<?xml version="1.0" encoding="utf-8"?>
<!-- Generator: Adobe Illustrator 23.1.0, SVG Export Plug-In . SVG Version: 6.00 Build 0)  -->
<svg version="1.1" id="Layer_1" xmlns="http://www.w3.org/2000/svg" xmlns:xlink="http://www.w3.org/1999/xlink" x="0px" y="0px"
	 viewBox="0 0 116.4 95.1" style="enable-background:new 0 0 116.4 95.1;" xml:space="preserve">
<style type="text/css">
	.st0{fill-rule:evenodd;clip-rule:evenodd;fill:#FAC99A;}
	.st1{fill-rule:evenodd;clip-rule:evenodd;fill:#EDA168;}
	.st2{fill-rule:evenodd;clip-rule:evenodd;fill:#167F60;}
	.st3{fill-rule:evenodd;clip-rule:evenodd;fill:#6E6866;}
	.st4{fill-rule:evenodd;clip-rule:evenodd;fill:#898382;}
	.st5{fill-rule:evenodd;clip-rule:evenodd;fill:#A91E17;}
	.st6{fill-rule:evenodd;clip-rule:evenodd;fill:#D5422A;}
	.st7{fill-rule:evenodd;clip-rule:evenodd;fill:#193E76;}
	.st8{fill-rule:evenodd;clip-rule:evenodd;fill:#375D9A;}
	.st9{fill-rule:evenodd;clip-rule:evenodd;fill:#009996;}
	.st10{fill-rule:evenodd;clip-rule:evenodd;}
	.st11{fill-rule:evenodd;clip-rule:evenodd;fill:#B73F18;}
	.st12{fill-rule:evenodd;clip-rule:evenodd;fill:#E68F50;}
	.st13{fill-rule:evenodd;clip-rule:evenodd;fill:#6E6466;}
	.st14{fill-rule:evenodd;clip-rule:evenodd;fill:#79A0D4;}
	.st15{fill-rule:evenodd;clip-rule:evenodd;fill:#D56813;}
</style>
<path class="st0" d="M89.7,23.6c-0.6-3.5-3.8-5.9-7.2-5.3c-2.7,0.5-4.7,2.6-5.1,5.3c-0.2,0-0.4,0-0.6,0c-0.6,0.2-0.9,0.8-0.8,1.5
	c0.2,0.6,0.8,1,1.4,0.8c0.5,3,2.9,5.1,5.7,5.3l0.3,2.9l3-0.3L86,30.6C88.6,29.5,90.2,26.6,89.7,23.6z"/>
<path class="st0" d="M39.2,23c-0.2-0.1-0.4-0.1-0.6,0c-0.5-2.6-2.4-4.8-5.1-5.3c-3.4-0.6-6.7,1.8-7.2,5.3c-0.5,3,1.1,5.8,3.7,7
	l-0.3,3.1l3,0.3l0.3-2.9c2.8-0.2,5.2-2.3,5.8-5.3c0.6,0.2,1.2-0.2,1.4-0.8C40.2,23.8,39.8,23.2,39.2,23z"/>
<path class="st1" d="M49,39.2c-0.1-0.9-0.1-1.7-0.5-1.8c-1-0.3-1.3,2.5-1.4,2.6h-7.8l-0.1,2.9h8.1c1.7,1.4,3.9,0.9,4.6-0.3
	C52.7,41,50.8,40.5,49,39.2z"/>
<path class="st2" d="M39.7,39c0,0-4-4.9-6.2-5.7c-0.9-0.3-1.9,0.1-1.4,1.6c1.4,4,4.9,8.1,4.9,8.1l9.2-0.1l0.1-4L39.7,39L39.7,39z"/>
<path class="st3" d="M32.4,72.5l4.2-0.2c6.5,0.6,4.6,3.5,4.1,3.5L33.3,76c-0.5,0.1-0.9-0.3-1-0.8L32.4,72.5z"/>
<path class="st4" d="M27.7,73.2l4.2,0c6.5,0.8,4.7,3.6,4.2,3.7l-7.4-0.1c-0.5,0-1-0.4-1-0.9L27.7,73.2z"/>
<polygon class="st5" points="49.2,28.1 62,28.1 62,41.3 60.5,43.8 48.1,43.2 47.6,29.6 "/>
<rect x="47.7" y="29.6" class="st6" width="12.8" height="14.1"/>
<path class="st0" d="M50.6,40.2c-0.1-0.9-0.1-1.7-0.5-1.8c-1-0.3-1.3,2.5-1.4,2.6h-7.8l-0.1,2.9h8.1c1.7,1.4,3.9,0.9,4.6-0.3
	C54.2,42.1,52.3,41.5,50.6,40.2z"/>
<polygon class="st7" points="35.8,72.3 37.7,52.6 30.4,52.2 32.2,72.3 "/>
<polygon class="st8" points="32.1,73.2 34.8,47.7 25.4,48.8 27.6,73.2 "/>
<path class="st9" d="M24.2,55.7c4,0.5,9.9,0.8,14.6,0c0,0-0.5-17.8-5-22.6c-1-1.1-4.6-1.3-5.5,0C24.9,37.6,24.2,55.7,24.2,55.7z"/>
<path class="st9" d="M39,40c0,0-5.6-5-7.6-6.1c-0.9-0.5-2.8,0.3-2.5,1.8c0.7,4.1,7.9,8.6,7.9,8.6h9.8V40L39,40L39,40z"/>
<polygon class="st10" points="42.6,52.6 42.6,51.2 58,51.2 56.2,47.3 66.5,51.9 56.2,56.5 58,52.6 "/>
<path class="st11" d="M77.2,41.7c0,0,2.5-5.9,4.4-7.2c0.8-0.5,1.8-0.5,1.7,1.1c-0.2,4.2-2.4,9.2-2.4,9.2l-8.8,2.5L71.2,43L77.2,41.7
	z"/>
<path class="st12" d="M67.5,43.7c-0.1-0.9-0.2-1.7,0.2-1.9c0.9-0.4,1.6,2.3,1.8,2.3l7.7-1l0.5,2.9l-8,1.1c-1.5,1.6-3.8,1.4-4.6,0.3
	C64.1,46,66,45.3,67.5,43.7z"/>
<path class="st13" d="M83.5,73.1l-4.2-0.2c-6.5,0.6-4.6,3.5-4.1,3.5l7.4,0.2c0.5,0.1,0.9-0.3,1-0.8L83.5,73.1z"/>
<path class="st4" d="M88.2,73.8l-4.2,0c-6.6,0.8-4.7,3.6-4.2,3.7l7.4-0.1c0.5,0,0.9-0.4,1-0.9L88.2,73.8z"/>
<path class="st0" d="M68.1,44.8c-0.1-0.9-0.3-1.7,0.1-1.9c0.9-0.5,1.8,2.2,1.9,2.2l7.6-1.6l0.7,2.8L70.5,48
	c-1.4,1.7-3.6,1.7-4.6,0.6C64.8,47.4,66.6,46.5,68.1,44.8z"/>
<polygon class="st14" points="81.1,48.3 81.6,53 78.3,53.3 80.1,73 83.7,73 83.8,73.8 88.3,73.8 90.5,49.4 "/>
<path class="st15" d="M91.7,56.3c-4,0.5-9.9,0.8-14.6,0c0,0,0.5-17.8,5-22.6c1-1.1,4.6-1.3,5.5,0C91,38.3,91.7,56.3,91.7,56.3z"/>
<path class="st15" d="M79.3,42.2c0,0,4.4-6,6.1-7.5c0.7-0.6,2.8-0.3,2.9,1.3c0.2,4.2-5.9,10.1-5.9,10.1l-9.6,2l-0.9-4.3L79.3,42.2z"
	/>
<g>
	<path d="M62.4,28.1c0-0.1,0-0.2-0.1-0.2c0,0,0,0,0,0h0c-0.1-0.1-0.2-0.1-0.2-0.1H49.2c-0.1,0-0.2,0-0.3,0.1l-1.5,1.5
		c-0.1,0.1-0.1,0.2-0.1,0.3l0.1,2.5v5.8c-0.2,0.4-0.3,0.9-0.5,1.4c0,0.1,0,0.2,0,0.2h-0.2l0-0.5c0-0.1,0-0.2-0.1-0.3
		s-0.2-0.1-0.3-0.1h-6.4c-0.5-0.6-2.4-2.8-4.2-4.3c-0.1-0.1-1.2-1-1.6-1.4c-0.2-0.3-0.6-0.5-1-0.6l0.1-1.4c2.7-0.3,5-2.4,5.7-5.2
		c0.7,0,1.3-0.5,1.5-1.1c0.2-0.8-0.2-1.7-1-1.9c-0.1,0-0.3-0.1-0.4-0.1c-0.6-2.7-2.7-4.8-5.4-5.2c-1.7-0.3-3.5,0.1-4.9,1.1
		c-1.5,1.1-2.5,2.7-2.8,4.5c-0.5,3.1,1,6,3.6,7.3l-0.2,1.9c-0.5,0.1-1,0.4-1.4,0.8c-3.4,4.5-4.1,22-4.1,22.8c0,0.2,0.1,0.4,0.3,0.4
		c0.5,0.1,1,0.1,1.6,0.2l1.5,16.9c0,0.1,0.1,0.2,0.1,0.3l-0.1,2.4c0.1,0.7,0.7,1.3,1.4,1.2l7.5,0.1c0.3,0,0.7-0.4,0.9-0.9l3.7-0.1
		c0.5,0,1-0.8,1-1.5c0-1.1-0.9-2.4-5.1-2.8l-0.3,0l1.5-15.6c0.4,0,0.8-0.1,1.2-0.2c0.2,0,0.3-0.2,0.3-0.4c0-0.4-0.2-5.5-1-11h8.4
		c0.2,0,0.4-0.2,0.4-0.4v-0.2h1.8c0.7,0.5,1.6,0.8,2.4,0.8c0.2,0,0.5,0,0.7-0.1c0.7-0.1,1.2-0.5,1.6-0.9h3.9l3,0.2c0,0,0,0,0,0
		c0.1,0,0.3-0.1,0.3-0.2l1.5-2.6c0-0.1,0-0.1,0-0.2L62.4,28.1L62.4,28.1C62.4,28.1,62.4,28.1,62.4,28.1z M39.4,39.3
		c0.1,0.1,0.2,0.1,0.3,0.1h6.2l0,0.2h-6.8c-0.3-0.3-1.5-1.3-2.8-2.4c-0.3-0.7-0.5-1.4-0.8-2C37.4,36.9,39.4,39.2,39.4,39.3z
		 M26.6,23.1c0.3-1.6,1.1-3.1,2.5-4c1-0.7,2.1-1.1,3.3-1.1c0.3,0,0.7,0,1,0.1c2.5,0.4,4.4,2.4,4.8,5c0,0.1,0.1,0.2,0.2,0.3
		c0.1,0.1,0.2,0.1,0.3,0c0.1,0,0.3,0,0.4,0c0.4,0.1,0.7,0.6,0.5,1c-0.1,0.4-0.5,0.7-0.9,0.5c-0.1,0-0.2,0-0.3,0
		c-0.1,0.1-0.2,0.1-0.2,0.3c-0.2,1-0.6,1.9-1.1,2.6c-1.2,0.1-1.9-0.3-2.2-1.3c-0.1-0.2-0.3-0.3-0.5-0.2s-0.3,0.3-0.2,0.5
		c0.3,0.8,0.9,1.6,2.3,1.8c-1.3,1.2-3.1,1.9-5,1.5C28.3,29.5,26.1,26.4,26.6,23.1z M32.5,30.9l-0.1,1.1c-0.6-0.1-1.3-0.2-1.9-0.1
		c-0.1,0-0.3,0-0.4,0l0.1-1.4c0.4,0.1,0.7,0.2,1.1,0.3C31.7,30.9,32.1,31,32.5,30.9C32.4,30.9,32.5,30.9,32.5,30.9z M26.5,56.3
		c1.7,0.1,3.6,0.2,5.5,0.2c0.5,0,1,0,1.5,0l-1.8,16.3h-3.9L26.5,56.3z M36.1,76.5l-7.5-0.1c-0.3,0-0.6-0.2-0.6-0.5l0.1-2.3l3.6,0
		h0.2c3.8,0.5,4.4,1.6,4.4,2.1C36.4,76.1,36.1,76.4,36.1,76.5z M36.5,72.6c3.7,0.3,4.3,1.4,4.4,1.8c0.1,0.5-0.2,0.9-0.3,0.9
		l-3.5,0.1c-0.1-0.8-0.9-2-4.3-2.6v-0.1l1.7-0.1h1.3c0.1,0,0.1,0,0.2-0.1L36.5,72.6z M35.5,71.9l-1,0.1h-1.9l1.7-15.5
		c0.9,0,1.8-0.1,2.7-0.2L35.5,71.9z M38.4,55.4c-4.5,0.7-10,0.4-13.9,0c0.1-2.5,1-18,4-22c0.3-0.4,1-0.7,2-0.7
		c1.2-0.1,2.5,0.3,3,0.7c0.6,0.7,1.2,1.7,1.7,2.8c-1.4-1.1-2.8-2.2-3.6-2.7c-0.6-0.3-1.5-0.2-2.3,0.3c-0.7,0.5-1,1.2-0.8,2
		c0.7,4.3,7.8,8.7,8.1,8.9c0.1,0,0.1,0.1,0.2,0.1h0.6C38.2,49.5,38.4,54.2,38.4,55.4z M46.2,44h-9.3c-0.8-0.5-7.1-4.6-7.6-8.3
		c-0.1-0.6,0.2-1,0.5-1.2c0.5-0.4,1.1-0.4,1.5-0.2c1.9,1.1,7.4,6,7.5,6c0.1,0.1,0.2,0.1,0.3,0.1h7.2V44z M46.9,40.3h0.2
		c0.1,0,0.1,0,0.2,0c0,0,0,0,0.1,0v0.4h-0.4L46.9,40.3L46.9,40.3z M53.1,43.3c-0.3,0.5-0.8,0.8-1.4,0.9c-0.9,0.2-1.8-0.1-2.6-0.7
		c-0.1,0-0.2-0.1-0.2-0.1H47v-2.2h0.4v0c0,0,0,0,0,0h1.3c0.1,0,0.1,0,0.2,0c0.2-0.1,0.2-0.3,0.3-0.7c0.1-0.4,0.4-1.6,0.8-1.8
		c0.1,0.1,0.2,0.8,0.2,1.2l0,0.3c0,0.1,0.1,0.2,0.1,0.3c0.5,0.4,1,0.7,1.4,1C53.1,42.3,53.5,42.6,53.1,43.3z M60.2,43.3h-2.8
		L54,43.1c0.2-1-0.8-1.6-1.8-2.3c-0.4-0.2-0.8-0.5-1.2-0.8l0-0.1c-0.1-0.9-0.1-1.7-0.7-1.9c-0.2-0.1-0.5,0-0.7,0.1
		c-0.6,0.3-0.9,1.3-1.1,2.3c0,0.1,0,0.1,0,0.2l-0.3-8.4v-2.1h12c0,0,0,0,0,0L60.2,43.3L60.2,43.3z M60.5,29.2H48.5l0.8-0.7h11.8
		L60.5,29.2z M61.6,41.2l-0.7,1.2V29.8l0.7-0.8V41.2z"/>
	<path d="M35.2,22.5c0,0.3,0.2,0.7,0.5,0.7c0.3,0,0.6-0.2,0.7-0.5S36.3,22,35.9,22C35.6,22,35.3,22.2,35.2,22.5z"/>
	<path d="M28.9,22.3c-0.6,0.5-0.6,1.5-0.3,2.2c0.2,0.4,0.6,0.6,1,0.6c0.1,0,0.3,0,0.4-0.1c0.2-0.1,0.3-0.3,0.3-0.5
		c-0.1-0.2-0.3-0.3-0.5-0.3c-0.3,0.1-0.4,0-0.5-0.2c-0.2-0.4-0.1-1,0.1-1.2c0.2-0.1,0.4,0,0.6,0.2c0.2,0.1,0.4,0.1,0.5-0.1
		c0.1-0.2,0.1-0.4-0.1-0.5C29.7,21.8,29.1,22.1,28.9,22.3z"/>
	<path d="M34,22.4C34,22.4,34.1,22.4,34,22.4c0.3,0,0.4-0.1,0.4-0.3c0.1-0.4,0.5-0.8,1-0.9c0.2,0,0.4-0.2,0.3-0.4
		c0-0.2-0.2-0.4-0.4-0.3c-0.8,0.1-1.5,0.7-1.7,1.5C33.7,22.1,33.8,22.3,34,22.4z"/>
	<path d="M88,33.5c-0.3-0.4-0.8-0.7-1.4-0.8l-0.2-1.9c2.6-1.3,4.1-4.2,3.6-7.3c-0.3-1.8-1.3-3.4-2.8-4.5c-1.4-1-3.2-1.4-4.9-1.1
		c-2.7,0.5-4.8,2.5-5.4,5.2c-0.1,0-0.3,0-0.4,0.1c-0.8,0.3-1.3,1.1-1,1.9c0.2,0.7,0.8,1.1,1.4,1.1c0.7,2.8,3,4.9,5.7,5.2l0.1,1.4
		c-0.4,0.2-0.8,0.3-1,0.6c-0.2,0.3-0.5,0.5-0.7,0.9c-1.8,1.4-3.8,6-4.3,7l-5.8,1.2c-0.1,0-0.2,0.1-0.2,0.2c-0.1,0.1-0.1,0.2-0.1,0.3
		l0.1,0.5l-1.2,0.2c0-0.1-0.1-0.2-0.1-0.2c-0.4-0.9-0.8-1.8-1.4-2.1c-0.2-0.1-0.4-0.1-0.7,0c-0.6,0.3-0.5,1.1-0.4,2l0,0.1
		c-0.4,0.4-0.8,0.7-1.1,1c-1.1,0.9-2.2,1.8-1.2,3c0.1,0.2,0.3,0.3,0.4,0.4c0,0.3,0.1,0.6,0.4,0.9c0.5,0.6,1.3,0.9,2.1,0.9h0.1
		c1.1,0,2.1-0.5,2.9-1.4l1.8-0.4l0,0.2c0,0.2,0.2,0.3,0.4,0.3c0,0,0.1,0,0.1,0l4.6-1c-0.6,4.6-0.7,8.5-0.7,8.9
		c0,0.2,0.1,0.3,0.3,0.4c0.4,0.1,0.8,0.1,1.2,0.2l1.5,15.6l-0.3,0c-4.2,0.4-5.1,1.7-5.1,2.8c0,0.8,0.5,1.5,1,1.5l3.6,0.1
		c0.2,0.5,0.6,0.9,0.9,0.9l7.4-0.1c0.7,0.1,1.3-0.5,1.4-1.3l-0.1-2.4c0.1-0.1,0.1-0.2,0.2-0.3l1.5-16.9c0.6,0,1.1-0.1,1.6-0.2
		c0.2,0,0.3-0.2,0.3-0.4C92.1,55.6,91.3,38.1,88,33.5z M79.5,29.2c1.4-0.1,2-1,2.3-1.8c0.1-0.2,0-0.4-0.2-0.5s-0.4,0-0.5,0.2
		c-0.3,1-1,1.4-2.2,1.3c-0.6-0.8-1-1.6-1.1-2.6c0-0.1-0.1-0.2-0.2-0.3c-0.1,0-0.1-0.1-0.2-0.1c0,0-0.1,0-0.1,0
		c-0.4,0.1-0.8-0.1-0.9-0.5c-0.1-0.4,0.1-0.9,0.5-1c0.1,0,0.3,0,0.4,0c0.1,0,0.2,0,0.3,0c0.1-0.1,0.2-0.1,0.2-0.3
		c0.4-2.5,2.4-4.5,4.8-5c1.5-0.3,3.1,0.1,4.3,1c1.3,0.9,2.2,2.4,2.5,4c0.6,3.3-1.6,6.5-4.8,7C82.6,31,80.8,30.4,79.5,29.2z
		 M85.8,32.6c-0.1,0-0.3,0-0.4,0c-0.6,0-1.2,0-1.8,0.2l-0.1-1.1c0,0,0,0,0,0c0.4,0,0.7,0,1.1-0.1c0.4-0.1,0.7-0.2,1.1-0.3L85.8,32.6
		z M82.4,34c0.5-0.5,1.8-0.8,3-0.7c0.9,0,1.7,0.3,2,0.7c0,0.1,0.1,0.1,0.1,0.2c0,0,0,0,0,0c-0.8-0.3-1.7-0.3-2.3,0.2
		c-1.5,1.3-5,6-6,7.3C80,38.4,81,35.5,82.4,34z M77.3,42.1c0.1,0,0.2-0.1,0.3-0.2c0,0,0.9-2.1,2-4c-0.4,1.3-0.8,2.7-1.1,4.1
		l-6.6,1.4c-0.1,0-0.1,0-0.2,0.1l0-0.2L77.3,42.1z M71.6,44L71.6,44C71.6,44,71.6,44,71.6,44L71.6,44z M71.6,44.2l0,0.2l-1.4,0.3
		c0-0.1-0.1-0.1-0.1-0.2c0,0,0,0,0,0L71.6,44.2z M68,42.1c0.1,0,0.2,0.2,0.3,0.3c-0.1,0-0.2,0-0.4,0.1c0,0-0.1,0-0.1,0.1
		C67.8,42.4,67.9,42.2,68,42.1z M65.4,47.1C65.4,47.1,65.4,47.1,65.4,47.1c-0.5-0.6-0.1-1,1.1-2c0.3-0.3,0.7-0.6,1.1-1
		c0,0.1,0,0.3,0.1,0.4l0,0.1c-0.3,0.4-0.7,0.8-1,1.1C66.1,46.2,65.7,46.6,65.4,47.1z M70.4,47.6c-0.1,0-0.2,0.1-0.2,0.1
		c-0.6,0.8-1.5,1.2-2.4,1.2c-0.7,0-1.2-0.2-1.6-0.6c-0.5-0.6-0.2-1,1-2.1c0.4-0.4,0.8-0.8,1.2-1.3c0.1-0.1,0.1-0.2,0.1-0.3l0-0.3
		c-0.1-0.4-0.2-1.1,0-1.3c0.2,0,0.4,0.3,0.6,0.6c0.1,0.3,0.2,0.5,0.3,0.6c0.1,0.2,0.1,0.3,0.2,0.4c0.2,0.5,0.3,0.6,0.5,0.7
		c0.1,0,0.1,0,0.2,0l1.7-0.4l0.4,2.1L70.4,47.6z M73.1,47.6L72.4,44l7-1.5c0.1,0,0.2-0.1,0.2-0.2c0-0.1,4.4-6,6.1-7.5
		c0.3-0.2,0.9-0.3,1.5-0.1c0.3,0.1,0.8,0.5,0.8,1.1c0.2,3.7-5.1,9-5.8,9.7L73.1,47.6z M79,57c0.9,0.1,1.8,0.2,2.7,0.2l1.7,15.4h-1.9
		l-0.9-0.1L79,57z M78.8,76.1L75.4,76c-0.1-0.1-0.4-0.5-0.3-1c0.1-0.4,0.7-1.5,4.3-1.8l0.6,0c0.1,0,0.1,0.1,0.2,0.1h1.3l1.8,0.1v0.1
		C79.8,74.1,78.9,75.3,78.8,76.1z M87.3,77l-7.4,0.1c-0.1-0.1-0.4-0.4-0.3-0.9c0.1-0.4,0.7-1.6,4.4-2.1l3.8,0l0.1,2.3
		C87.9,76.8,87.6,77,87.3,77z M88,73.4h-3.8l-1.8-16.3c0.5,0,1,0,1.5,0c1.9,0,3.8-0.1,5.5-0.2L88,73.4z M77.5,56
		c0.1-1.1,0.2-4.6,0.8-8.7c-0.2,0.1-0.4,0.1-0.6,0.1c0,0-0.1,0-0.1,0l4.9-1c0.1,0,0.1,0,0.2-0.1c0.2-0.2,5.5-5.3,6-9.5
		c1.9,5.9,2.6,17.1,2.7,19.2C87.5,56.5,82,56.7,77.5,56z"/>
	<path d="M80,22.6c-0.3,0-0.6,0.4-0.5,0.7c0.1,0.3,0.4,0.6,0.7,0.5s0.6-0.4,0.5-0.7C80.6,22.8,80.3,22.6,80,22.6z"/>
	<path d="M85.9,23.6c0.2-0.2,0.5-0.3,0.6-0.2c0.3,0.2,0.3,0.9,0.1,1.2c-0.1,0.2-0.3,0.3-0.5,0.2c-0.2-0.1-0.4,0-0.5,0.3
		s0.1,0.4,0.3,0.5c0.1,0,0.3,0.1,0.4,0.1c0.4,0,0.8-0.2,1-0.6c0.3-0.6,0.3-1.7-0.3-2.2c-0.2-0.2-0.8-0.5-1.6,0.2
		c-0.2,0.1-0.2,0.4-0.1,0.5C85.5,23.7,85.7,23.8,85.9,23.6z"/>
	<path d="M80.2,20.8c-0.2,0-0.4,0.2-0.4,0.4s0.2,0.4,0.4,0.4c0.5,0,1,0.4,1.1,0.8c0.1,0.2,0.2,0.3,0.4,0.3c0,0,0.1,0,0.1,0
		c0.2-0.1,0.3-0.3,0.3-0.5C81.7,21.4,80.9,20.8,80.2,20.8z"/>
</g>
</svg>
