<?xml version="1.0" encoding="utf-8"?>
<!-- Generator: Adobe Illustrator 22.1.0, SVG Export Plug-In . SVG Version: 6.00 Build 0)  -->
<svg version="1.1" id="Слой_1" xmlns="http://www.w3.org/2000/svg" xmlns:xlink="http://www.w3.org/1999/xlink" x="0px" y="0px"
	 viewBox="0 0 283.5 283.5" style="enable-background:new 0 0 283.5 283.5;" xml:space="preserve">
<style type="text/css">
	.st0{fill:none;stroke:#12100B;stroke-width:0.75;stroke-linecap:round;stroke-linejoin:round;stroke-miterlimit:10;}
	.st1{clip-path:url(#SVGID_2_);fill-rule:evenodd;clip-rule:evenodd;fill:#009D41;}
	.st2{clip-path:url(#SVGID_4_);fill:#FFFFFF;}
	.st3{clip-path:url(#SVGID_4_);fill:none;stroke:#12100B;stroke-linecap:round;stroke-linejoin:round;stroke-miterlimit:10;}
	.st4{clip-path:url(#SVGID_6_);fill:none;stroke:#12100B;stroke-linecap:round;stroke-linejoin:round;stroke-miterlimit:10;}
	.st5{clip-path:url(#SVGID_6_);fill-rule:evenodd;clip-rule:evenodd;fill:#FFFFFF;}
	
		.st6{clip-path:url(#SVGID_6_);fill:none;stroke:#12100B;stroke-width:0.75;stroke-linecap:round;stroke-linejoin:round;stroke-miterlimit:10;}
	.st7{clip-path:url(#SVGID_6_);fill-rule:evenodd;clip-rule:evenodd;fill:#009D41;}
	.st8{clip-path:url(#SVGID_8_);fill:#FFFFFF;}
	.st9{clip-path:url(#SVGID_8_);fill:none;stroke:#12100B;stroke-linecap:round;stroke-linejoin:round;stroke-miterlimit:10;}
	.st10{clip-path:url(#SVGID_10_);fill:none;stroke:#12100B;stroke-linecap:round;stroke-linejoin:round;stroke-miterlimit:10;}
	.st11{clip-path:url(#SVGID_10_);fill-rule:evenodd;clip-rule:evenodd;fill:#FFFFFF;}
	
		.st12{clip-path:url(#SVGID_10_);fill:none;stroke:#12100B;stroke-width:0.75;stroke-linecap:round;stroke-linejoin:round;stroke-miterlimit:10;}
	.st13{clip-path:url(#SVGID_10_);fill-rule:evenodd;clip-rule:evenodd;fill:#009D41;}
	.st14{clip-path:url(#SVGID_12_);fill:none;stroke:#12100B;stroke-linecap:round;stroke-linejoin:round;stroke-miterlimit:10;}
	.st15{clip-path:url(#SVGID_14_);fill:none;stroke:#12100B;stroke-linecap:round;stroke-linejoin:round;stroke-miterlimit:10;}
	.st16{clip-path:url(#SVGID_14_);fill-rule:evenodd;clip-rule:evenodd;fill:#12100B;}
	.st17{clip-path:url(#SVGID_14_);fill-rule:evenodd;clip-rule:evenodd;fill:#FFFFFF;}
	.st18{clip-path:url(#SVGID_16_);fill-rule:evenodd;clip-rule:evenodd;fill:#12100B;}
	.st19{clip-path:url(#SVGID_16_);fill-rule:evenodd;clip-rule:evenodd;fill:#FFFFFF;}
	
		.st20{clip-path:url(#SVGID_18_);fill:none;stroke:#12100B;stroke-width:0.7;stroke-linecap:round;stroke-linejoin:round;stroke-miterlimit:10;}
	.st21{clip-path:url(#SVGID_18_);fill-rule:evenodd;clip-rule:evenodd;fill:#009D41;}
	.st22{clip-path:url(#SVGID_18_);fill:none;stroke:#12100B;stroke-linecap:round;stroke-linejoin:round;stroke-miterlimit:10;}
	.st23{clip-path:url(#SVGID_18_);fill-rule:evenodd;clip-rule:evenodd;fill:#12100B;}
	
		.st24{clip-path:url(#SVGID_18_);fill:none;stroke:#12100B;stroke-width:0.75;stroke-linecap:round;stroke-linejoin:round;stroke-miterlimit:10;}
</style>
<line class="st0" x1="43.4" y1="233.8" x2="235.8" y2="233.8"/>
<line class="st0" x1="31.4" y1="272.9" x2="250.2" y2="272.9"/>
<g>
	<defs>
		<rect id="SVGID_1_" width="283.5" height="283.5"/>
	</defs>
	<clipPath id="SVGID_2_">
		<use xlink:href="#SVGID_1_"  style="overflow:visible;"/>
	</clipPath>
	<path class="st1" d="M91.6,235.5l-9.4,10.8c-1.9,2-3.6,4.6-2.9,6.2c0,0,6.1,6.7,14.7,11.8c5.4,3.2,8.6,3.5,8.8,1.8
		c0.3-2.5-12.8-17.5-12.8-17.5s8-8.6,8-8.7C98,239.9,91.6,235.5,91.6,235.5"/>
</g>
<g>
	<defs>
		<path id="SVGID_3_" d="M82.2,246.3c-1.9,2-3.6,4.6-2.9,6.2c0,0,6.1,6.7,14.7,11.8c5.4,3.2,8.6,3.5,8.8,1.8
			c0.3-2.5-12.8-17.5-12.8-17.5s8-8.6,8-8.7c0,0-6.4-4.4-6.4-4.4L82.2,246.3z"/>
	</defs>
	<clipPath id="SVGID_4_">
		<use xlink:href="#SVGID_3_"  style="overflow:visible;"/>
	</clipPath>
	<path class="st2" d="M81.3,246.3c-1.1,1,9.9,11.1,14.1,13.2c2.4,1.2,5.3-0.8,5.5-1.7l-7.8-8.4l6.9-9.4l-9.4-7.7L81.3,246.3z"/>
	<path class="st3" d="M81.3,246.3c-1.1,1,9.9,11.1,14.1,13.2c2.4,1.2,5.3-0.8,5.5-1.7l-7.8-8.4l6.9-9.4l-9.4-7.7L81.3,246.3z"/>
</g>
<g>
	<defs>
		<rect id="SVGID_5_" width="283.5" height="283.5"/>
	</defs>
	<clipPath id="SVGID_6_">
		<use xlink:href="#SVGID_5_"  style="overflow:visible;"/>
	</clipPath>
	<path class="st4" d="M91.6,235.5l-9.4,10.8c-1.9,2-3.6,4.6-2.9,6.2c0,0,6.1,6.7,14.7,11.8c5.4,3.2,8.6,3.5,8.8,1.8
		c0.3-2.5-12.8-17.5-12.8-17.5s8-8.6,8-8.7C98,239.9,91.6,235.5,91.6,235.5z"/>
	<path class="st5" d="M86.9,248.8c1.2-0.2,2.2-0.2,3,0.1"/>
	<path class="st6" d="M86.9,248.8c1.2-0.2,2.2-0.2,3,0.1"/>
	<path class="st5" d="M123,169.7l-6,18.9c-10.6,15.2-21.4,31.6-32.7,53.1c3.8,3.6,7.3,5.7,11.1,6.9c0,0,33.7-44.8,36.9-48.4
		c3.2-3.6,10.1-18.7,10.1-18.7L123,169.7z"/>
	<path class="st4" d="M123,169.7l-6,18.9c-10.6,15.2-21.4,31.6-32.7,53.1c3.8,3.6,7.3,5.7,11.1,6.9c0,0,33.7-44.8,36.9-48.4
		c3.2-3.6,10.1-18.7,10.1-18.7L123,169.7z"/>
	<path class="st6" d="M73.4,130.8c-11.3,9.4-20,19.8-26.2,31.1"/>
	<path class="st6" d="M207.6,127.4c-2.9-2.6-5.9-4.4-9-5.6"/>
	<path class="st6" d="M203.6,257.4c5.9-1.4,13.3-8.6,15.6-12.5"/>
	<path class="st6" d="M63.5,129.2c-8.7,7.2-15.3,15.2-20.1,23.8"/>
	<path class="st6" d="M215.6,127.4c-5.7-5.1-11.1-9-20.9-11.2"/>
	<path class="st6" d="M177.3,267.4c15-1.3,26.9-6,35.8-11.4"/>
	<path class="st6" d="M195.7,265.7c14.8-2.6,26.2-8.4,34.6-14.6"/>
	<path class="st7" d="M166.8,246l3.3,13.9c0.6,2.7,1.6,5.6,3.4,6c0,0,9-1.1,18.1-5.1c5.7-2.5,7.9-5,6.6-6.2
		c-1.9-1.7-21.7,0.3-21.7,0.3s-2.5-11.5-2.4-11.5C174.1,243.3,166.8,246,166.8,246"/>
</g>
<g>
	<defs>
		<path id="SVGID_7_" d="M166.8,246l3.3,13.9c0.6,2.7,1.6,5.6,3.4,6c0,0,9-1.1,18.1-5.1c5.7-2.5,7.9-5,6.6-6.2
			c-1.9-1.7-21.7,0.3-21.7,0.3s-2.5-11.5-2.4-11.5l0,0C174,243.4,166.8,246,166.8,246"/>
	</defs>
	<clipPath id="SVGID_8_">
		<use xlink:href="#SVGID_7_"  style="overflow:visible;"/>
	</clipPath>
	<path class="st8" d="M169.7,260.6c0.2,1.5,14.8-1.6,18.9-3.9c2.4-1.3,2.4-4.8,1.8-5.5l-11.4,1.5l-3.7-11.1l-11.7,3.3L169.7,260.6z"
		/>
	<path class="st9" d="M169.7,260.6c0.2,1.5,14.8-1.6,18.9-3.9c2.4-1.3,2.4-4.8,1.8-5.5l-11.4,1.5l-3.7-11.1l-11.7,3.3L169.7,260.6z"
		/>
</g>
<g>
	<defs>
		<rect id="SVGID_9_" width="283.5" height="283.5"/>
	</defs>
	<clipPath id="SVGID_10_">
		<use xlink:href="#SVGID_9_"  style="overflow:visible;"/>
	</clipPath>
	<path class="st10" d="M166.8,246l3.3,13.9c0.6,2.7,1.6,5.6,3.4,6c0,0,9-1.1,18.1-5.1c5.7-2.5,7.9-5,6.6-6.2
		c-1.9-1.7-21.7,0.3-21.7,0.3s-2.5-11.5-2.4-11.5C174.1,243.3,166.8,246,166.8,246z"/>
	<path class="st11" d="M115.7,146.1c0,0-4.5,10.5-0.6,18.6c3.9,8.1,30.4,28.9,30.4,28.9c6.2,19.7,13.8,38.7,21.2,55.7l13.4-4.9
		c0,0-10.3-43.8-11.7-50.2c-1.4-6.4-19-29.9-19-29.9l5.6-12L115.7,146.1z"/>
	<path class="st10" d="M115.7,146.1c0,0-4.5,10.5-0.6,18.6c3.9,8.1,30.4,28.9,30.4,28.9c6.2,19.7,13.8,38.7,21.2,55.7l13.4-4.9
		c0,0-10.3-43.8-11.7-50.2c-1.4-6.4-19-29.9-19-29.9l5.6-12L115.7,146.1z"/>
	<path class="st11" d="M174.9,257.5c0.5-1.1,1.1-1.9,1.8-2.4"/>
	<path class="st12" d="M174.9,257.5c0.5-1.1,1.1-1.9,1.8-2.4"/>
	<path class="st11" d="M91.7,151.9C91,151.2,77,161,77,164.9c0,1.3,2.5-0.9,2.5-0.9s-2.7,4.5-1.9,5.4c0.9,1,3.2-2.7,3.2-2.7
		s-3.1,5.5-1.8,6.4c1,0.7,2.9-2,2.9-2s-1.7,4.2,0.5,3c2.3-1.2,3.5-5.6,6.8-8.6c2.5-2.3,4-1.8,2.7,1.3c-1.7,4.1,0.7,6.4,1.9,5.5
		c1.3-0.8-0.7-2.3,2-8.3c2.1-4.5,0.6-8.8,0.6-8.8l5.6-9.7l-5.1-3L91.7,151.9z"/>
	<path class="st12" d="M91.7,151.9C91,151.2,77,161,77,164.9c0,1.3,2.5-0.9,2.5-0.9s-2.7,4.5-1.9,5.4c0.9,1,3.2-2.7,3.2-2.7
		s-3.1,5.5-1.8,6.4c1,0.7,2.9-2,2.9-2s-1.7,4.2,0.5,3c2.3-1.2,3.5-5.6,6.8-8.6c2.5-2.3,4-1.8,2.7,1.3c-1.7,4.1,0.7,6.4,1.9,5.5
		c1.3-0.8-0.7-2.3,2-8.3c2.1-4.5,0.6-8.8,0.6-8.8l5.6-9.7l-5.1-3L91.7,151.9z"/>
	<path class="st12" d="M87.8,161.8c-2.1,2.3-5,6.6-6.4,9.9"/>
	<path class="st12" d="M85.4,160.8c-2.1,2.3-4.1,4.7-5.7,7.8"/>
	<path class="st12" d="M83.2,159.7c-2.4,2.7-4.7,5.9-4.7,5.9"/>
	<path class="st11" d="M166.8,139.6l6.8,10.4c0,0-0.8,1.6-0.9,3.8c-0.2,4.2-1.9,6.5-1.9,6.5s-0.1,2.2,1.7,1.3s3.1-5.3,3.1-5.3
		l1.9,2.2c0,0,3.3,11.4,4.7,11.3c1.8-0.2,1.2-1.5,0.4-4.1c-0.7-2.6-1.9-7-1.9-7s4.9,11,6.8,12c1.5,0.7,2.8-0.2,1.7-2.2
		c-1.1-1.9-1.1-1.7-1.1-1.7s2,1.2,2.3-0.5c0.1-0.6-0.4-1.1-0.9-1.9c-0.6-1.1-1.2-2.5-1.2-2.5s2,2.4,2.6,0.6c0.4-1.1-1.5-2.4-4.1-7.7
		c-1.3-2.7-8.3-7.4-8.3-7.4l-6.5-11.6L166.8,139.6z"/>
	<path class="st12" d="M166.8,139.6l6.8,10.4c0,0-0.8,1.6-0.9,3.8c-0.2,4.2-1.9,6.5-1.9,6.5s-0.1,2.2,1.7,1.3s3.1-5.3,3.1-5.3
		l1.9,2.2c0,0,3.3,11.4,4.7,11.3c1.8-0.2,1.2-1.5,0.4-4.1c-0.7-2.6-1.9-7-1.9-7s4.9,11,6.8,12c1.5,0.7,2.8-0.2,1.7-2.2
		c-1.1-1.9-1.1-1.7-1.1-1.7s2,1.2,2.3-0.5c0.1-0.6-0.4-1.1-0.9-1.9c-0.6-1.1-1.2-2.5-1.2-2.5s2,2.4,2.6,0.6c0.4-1.1-1.5-2.4-4.1-7.7
		c-1.3-2.7-8.3-7.4-8.3-7.4l-6.5-11.6L166.8,139.6z"/>
	<path class="st12" d="M183.3,157.6c1.3,3.6,3.3,6.5,5,8.9"/>
	<path class="st12" d="M185.6,156.1c0.7,2.4,1.9,4.6,3.2,6.3"/>
	<path class="st13" d="M150.8,118.8c5.7,11.9,12.6,22,20.7,30.5c2.9-2.9,5.6-4.4,8.6-5.4l-16.9-25.1c-3.6-12.4-7.3-28.6-11-37.7
		C149.4,89,148.2,100.1,150.8,118.8"/>
	<path class="st10" d="M150.8,118.8c5.7,11.9,12.6,22,20.7,30.5c2.9-2.9,5.6-4.4,8.6-5.4l-16.9-25.1c-3.6-12.4-7.3-28.6-11-37.7
		C149.4,89,148.2,100.1,150.8,118.8z"/>
	<path class="st13" d="M152.4,81.9c-1.3-4.5-3.4-8.3-5.2-11c-0.1,0.8-0.6,1.4-1.3,2c-0.1,0.1-0.2,0.1-0.3,0.2
		c-0.3,0.3-0.8,0.6-1.2,0.6c0,0-0.1,0-0.1,0c-4.1,1.4-8.3-2.4-10.8-5.5c-0.6-0.7-0.9-1.5-0.8-2.4c-0.9,0.5-12.5,7.2-16,19
		c-3.6,12.2-4.6,71-4.6,71c15.1,2.3,30.7,2.9,44.6,0.2C156.7,156,156.5,96.1,152.4,81.9"/>
</g>
<g>
	<defs>
		<path id="SVGID_11_" d="M154.2,25.4c-4.9,1.2-13.2,14.8-13.2,14.8s-7.5-2.6-6.9,3c0.6,5.6,1.6,6.6,1.6,6.6l-0.4,7.7l-2.6,8.4
			c0,0-12.4,6.8-16,19c-3.6,12.2-4.6,71-4.6,71c15.1,2.3,30.7,2.9,44.6,0.2c0,0-0.2-59.9-4.3-74.1c-2.6-9.1-8.5-15.3-8.5-15.3
			l1.4-4.8c0,0,6.8,2.8,10,2.3c3.3-0.5,5.2-2.1,6.2-5.5c1.1-3.3,2.5-11.2,2.5-11.2s2.5,0.1,3.2-1.3c0.7-1.5-2.3-3.6-3.2-6.3
			c-0.8-2.7-2.7-13.6-2.7-13.6S160,25,157.2,25C156.3,25,155.3,25.1,154.2,25.4"/>
	</defs>
	<clipPath id="SVGID_12_">
		<use xlink:href="#SVGID_11_"  style="overflow:visible;"/>
	</clipPath>
	<path class="st14" d="M131.9,66c1.9,5.6,12.9,13.2,16.2,4.3l-2.5-3.7l1.4-2.1c0,0,9.9,3.8,13.5,0.9c3.6-3,5.6-16.2,5.6-16.2
		s4.3-1.5,4.1-4.6c-0.2-3.1-4.7-8.3-4.7-8.3s2.2-1.7,1.3-7.5c-0.9-5.7-4.2-10.3-8.9-11c-4.7-0.7-8.5,0.2-8.5,0.2s-9.7-2.5-12.3-1.4
		c-2.6,1.1-3.6,2.3-3.6,2.3s-10.9,2.6-12.2,6.7c-1.3,4.1-1.3,5.3-1.3,5.3s-4.6,2.2-2.7,9.8c1.9,7.7,7.2,17.2,9.8,18.1
		c2.6,0.9,4.3,1.4,4.3,1.4L131.9,66z"/>
</g>
<g>
	<defs>
		<rect id="SVGID_13_" width="283.5" height="283.5"/>
	</defs>
	<clipPath id="SVGID_14_">
		<use xlink:href="#SVGID_13_"  style="overflow:visible;"/>
	</clipPath>
	<path class="st15" d="M135.3,57.4l-2.6,8.4c0,0-12.4,6.8-16,19c-3.6,12.2-4.6,71-4.6,71c15.1,2.3,30.7,2.9,44.6,0.2
		c0,0-0.2-59.9-4.3-74.1c-2.6-9.1-8.5-15.3-8.5-15.3l1.4-4.8c0,0,6.8,2.8,10,2.3c3.3-0.5,5.2-2.1,6.2-5.5c1.1-3.3,2.5-11.2,2.5-11.2
		s2.5,0.1,3.2-1.3c0.7-1.5-2.3-3.6-3.2-6.3c-0.8-2.7-2.7-13.6-2.7-13.6s-2.4-1.9-7.3-0.8c-4.9,1.2-13.2,14.8-13.2,14.8
		s-7.5-2.6-6.9,3c0.6,5.6,1.6,6.6,1.6,6.6L135.3,57.4z"/>
	<path class="st15" d="M157.6,54.6c2.1-0.3,2.7-0.3,4.9-0.9"/>
	<polygon class="st16" points="141.6,58.2 141.6,58.3 141.7,58.3 141.8,58.4 141.9,58.5 142,58.6 142,58.6 142.1,58.7 142.2,58.8 
		142.3,58.8 142.3,58.9 142.4,59 142.5,59 142.6,59.1 142.6,59.2 142.7,59.2 142.8,59.3 142.9,59.4 143,59.4 143,59.5 143.1,59.5 
		143.2,59.6 143.3,59.7 143.3,59.7 143.4,59.8 143.5,59.8 143.6,59.9 143.7,60 143.7,60 143.8,60.1 143.9,60.1 144,60.2 144.1,60.3 
		144.1,60.3 144.2,60.4 144.3,60.4 144.4,60.5 144.5,60.5 144.6,60.6 144.6,60.6 144.7,60.7 144.8,60.7 144.9,60.8 145,60.8 
		145.1,60.9 145.1,60.9 145.2,61 145.3,61 145.4,61.1 145.5,61.1 145.6,61.2 145.6,61.2 145.7,61.3 145.8,61.3 145.9,61.4 146,61.4 
		146.1,61.5 146.2,61.5 146.2,61.5 146.3,61.6 146.4,61.6 146.5,61.7 146.6,61.7 146.7,61.7 146.8,61.8 146.8,61.8 147,62.1 
		147,62.5 147,62.5 146.7,62.7 146.3,62.7 146.3,62.7 146.2,62.6 146.1,62.6 146,62.5 146,62.5 145.9,62.4 145.8,62.4 145.7,62.3 
		145.6,62.3 145.5,62.2 145.4,62.2 145.3,62.1 145.3,62.1 145.2,62 145.1,62 145,61.9 144.9,61.9 144.8,61.8 144.7,61.7 144.7,61.7 
		144.6,61.6 144.5,61.6 144.4,61.5 144.3,61.5 144.2,61.4 144.2,61.3 144.1,61.3 144,61.2 143.9,61.2 143.8,61.1 143.7,61 143.7,61 
		143.6,60.9 143.5,60.8 143.4,60.8 143.3,60.7 143.3,60.6 143.2,60.6 143.1,60.5 143,60.5 142.9,60.4 142.9,60.3 142.8,60.2 
		142.7,60.2 142.6,60.1 142.6,60 142.5,60 142.4,59.9 142.3,59.8 142.2,59.8 142.2,59.7 142.1,59.6 142,59.5 141.9,59.5 141.9,59.4 
		141.8,59.3 141.7,59.3 141.6,59.2 141.6,59.1 141.5,59 141.4,59 141.3,58.9 141.3,58.8 141.2,58.7 141.1,58.6 141.1,58.2 	"/>
	<path class="st17" d="M163.6,34.7c-2.1-4.6-4.4-6.9-6.8-8.2c-3.4,3.4-3.7,5.9-8,6.6c0.5,2.2-0.4,3.4-3.1,3.4c0.3,3.4-1.1,5.7-4.2,7
		c-1.9-5-9.1-0.6-3.2,5.4c0.7,0.1-1.6,8-3.2,8.2c-1.2,0.1-2.4,0.8-3.1,1c-2.2,0.8-2.7-0.3-5-3.1c-6.8-8.7-9.8-18.6-6.3-22
		c1-4.9,3.3-8.4,7.4-10.4c2.7-1.3,5.2-2.2,7.4-2.2c1.9-2.1,6.4-2,12.9-0.4c2.6,0.1,5-0.8,7.2-0.4C160,20.4,167.1,25.6,163.6,34.7"/>
	<path class="st15" d="M163.6,34.7c-2.1-4.6-4.4-6.9-6.8-8.2c-3.4,3.4-3.7,5.9-8,6.6c0.5,2.2-0.4,3.4-3.1,3.4c0.3,3.4-1.1,5.7-4.2,7
		c-1.9-5-9.1-0.6-3.2,5.4c0.7,0.1-1.6,8-3.2,8.2c-1.2,0.1-2.4,0.8-3.1,1c-2.2,0.8-2.7-0.3-5-3.1c-6.8-8.7-9.8-18.6-6.3-22
		c1-4.9,3.3-8.4,7.4-10.4c2.7-1.3,5.2-2.2,7.4-2.2c1.9-2.1,6.4-2,12.9-0.4c2.6,0.1,5-0.8,7.2-0.4C160,20.4,167.1,25.6,163.6,34.7z"
		/>
	<polygon class="st16" points="139.5,43.6 139.5,43.6 139.6,43.6 139.6,43.6 139.6,43.6 139.7,43.6 139.7,43.6 139.7,43.6 
		139.8,43.6 139.8,43.6 139.8,43.7 139.8,43.7 139.9,43.7 139.9,43.7 139.9,43.7 140,43.7 140,43.7 140,43.8 140.1,43.8 140.1,43.8 
		140.1,43.8 140.1,43.8 140.2,43.9 140.2,43.9 140.2,43.9 140.3,43.9 140.3,43.9 140.3,44 140.4,44 140.4,44 140.4,44.1 140.4,44.1 
		140.5,44.1 140.5,44.1 140.5,44.2 140.6,44.2 140.6,44.2 140.6,44.3 140.7,44.3 140.7,44.4 140.7,44.4 140.8,44.4 140.8,44.5 
		140.8,44.5 140.9,44.5 140.9,44.6 140.9,44.6 140.9,44.7 141,44.7 141,44.8 141,44.8 141.1,44.9 141.1,44.9 141.1,45 141.2,45 
		141.2,45.1 141.3,45.1 141.3,45.2 141.3,45.2 141.3,45.5 141.2,45.7 141.2,45.7 141.2,45.7 140.9,45.7 140.6,45.6 140.6,45.6 
		140.6,45.5 140.6,45.5 140.6,45.4 140.5,45.4 140.5,45.3 140.5,45.3 140.4,45.2 140.4,45.2 140.4,45.1 140.4,45.1 140.3,45.1 
		140.3,45 140.3,45 140.2,44.9 140.2,44.9 140.2,44.9 140.2,44.8 140.1,44.8 140.1,44.8 140.1,44.7 140.1,44.7 140,44.7 140,44.7 
		140,44.6 140,44.6 140,44.6 139.9,44.6 139.9,44.5 139.9,44.5 139.9,44.5 139.8,44.5 139.8,44.5 139.8,44.4 139.8,44.4 139.8,44.4 
		139.7,44.4 139.7,44.4 139.7,44.4 139.7,44.3 139.7,44.3 139.7,44.3 139.6,44.3 139.6,44.3 139.6,44.3 139.6,44.3 139.6,44.3 
		139.6,44.3 139.6,44.3 139.5,44.3 139.5,44.3 139.5,44.3 139.5,44.3 139.5,44.3 139.5,44.3 139.5,44.2 139.5,44.2 139.5,44.2 
		139.5,44.2 139.5,44.2 139.4,44.2 139.4,44.2 139.4,44.2 139.4,44.2 139.4,44.2 139.4,44.2 139.4,44.2 139.4,44.2 139.4,44.3 
		139.4,44.3 139.4,44.3 139.4,44.3 139.4,44.3 139.4,44.3 139.4,44.3 139.4,44.3 139.4,44.3 139.4,44.3 139.4,44.3 139.4,44.3 
		139.3,44.3 139.3,44.3 139.3,44.3 139.3,44.3 139.3,44.3 139.3,44.3 139.3,44.3 139.3,44.3 139.3,44.4 139.3,44.4 139.3,44.4 
		139.3,44.4 139.3,44.4 139.3,44.4 139.2,44.4 139.2,44.4 139.2,44.5 139.2,44.5 139.2,44.5 139.2,44.5 139.2,44.5 139.2,44.5 
		139.2,44.6 139.2,44.6 139.2,44.6 139.2,44.6 139.2,44.6 139.2,44.7 139.2,44.7 139.2,44.7 139.2,44.7 139.2,44.7 139.1,44.8 
		139.1,44.8 139.1,44.8 139.1,44.8 139.1,44.9 139.1,44.9 139.1,44.9 139.1,44.9 139.1,45 139.1,45 139.1,45 139.1,45 139.1,45.1 
		139.1,45.1 139.1,45.1 139.1,45.2 139.1,45.2 139.1,45.2 139.1,45.2 139.1,45.3 139.1,45.3 139.1,45.3 139.1,45.4 139.1,45.4 
		139.1,45.4 139.1,45.4 139.1,45.5 139.1,45.5 139.1,45.5 139.2,45.6 139.2,45.6 139.2,45.6 139.2,45.7 139.2,45.7 139.2,45.7 
		139.2,45.7 139.2,45.8 139.2,45.8 139.2,45.8 139.2,45.9 139.2,45.9 139.2,45.9 139.2,46 139.2,46 139.3,46 139.3,46.1 139.3,46.1 
		139.3,46.1 139.3,46.1 139.3,46.2 139.3,46.2 139.3,46.2 139.3,46.3 139.4,46.3 139.4,46.3 139.4,46.4 139.4,46.4 139.4,46.4 
		139.4,46.5 139.4,46.5 139.4,46.5 139.5,46.5 139.5,46.6 139.5,46.6 139.5,46.6 139.5,46.7 139.5,46.7 139.6,46.7 139.6,46.7 
		139.6,46.8 139.6,46.8 139.6,46.8 139.6,46.9 139.7,46.9 139.7,46.9 139.7,46.9 139.7,47 139.7,47 139.8,47 139.8,47.1 139.8,47.1 
		139.8,47.1 139.8,47.1 139.9,47.2 139.9,47.2 139.9,47.2 139.9,47.2 140,47.3 140,47.3 140,47.3 140,47.3 140.1,47.4 140.1,47.4 
		140.1,47.4 140.1,47.4 140.2,47.4 140.2,47.5 140.2,47.5 140.2,47.5 140.3,47.5 140.3,47.5 140.3,47.6 140.4,47.6 140.4,47.6 
		140.4,47.6 140.4,47.6 140.5,47.7 140.5,47.7 140.5,47.7 140.6,47.7 140.6,47.7 140.6,47.7 140.7,47.8 140.7,47.8 140.7,47.8 
		140.8,47.8 140.8,47.8 140.8,47.8 140.9,47.8 140.9,47.8 140.9,47.9 141,47.9 141,47.9 141.1,47.9 141.1,47.9 141.1,47.9 
		141.2,47.9 141.2,47.9 141.3,47.9 141.3,47.9 141.3,47.9 141.4,47.9 141.4,47.9 141.5,48 141.5,48 141.5,48 141.6,48 141.6,48 
		141.7,48 141.7,48 141.8,48 141.8,48 141.9,48 141.9,48 142,48 142.2,48.1 142,48.3 141.9,48.4 141.9,48.4 141.8,48.4 141.8,48.4 
		141.7,48.4 141.7,48.4 141.6,48.4 141.6,48.4 141.5,48.4 141.5,48.4 141.4,48.4 141.4,48.4 141.3,48.4 141.3,48.4 141.2,48.4 
		141.2,48.3 141.1,48.3 141.1,48.3 141.1,48.3 141,48.3 141,48.3 140.9,48.3 140.9,48.3 140.8,48.3 140.8,48.3 140.7,48.3 
		140.7,48.2 140.7,48.2 140.6,48.2 140.6,48.2 140.5,48.2 140.5,48.2 140.4,48.2 140.4,48.1 140.4,48.1 140.3,48.1 140.3,48.1 
		140.3,48.1 140.2,48 140.2,48 140.1,48 140.1,48 140.1,48 140,47.9 140,47.9 140,47.9 139.9,47.9 139.9,47.8 139.9,47.8 
		139.8,47.8 139.8,47.8 139.8,47.7 139.7,47.7 139.7,47.7 139.7,47.7 139.6,47.6 139.6,47.6 139.6,47.6 139.6,47.6 139.5,47.5 
		139.5,47.5 139.5,47.5 139.4,47.4 139.4,47.4 139.4,47.4 139.4,47.3 139.3,47.3 139.3,47.3 139.3,47.3 139.3,47.2 139.2,47.2 
		139.2,47.2 139.2,47.1 139.2,47.1 139.1,47.1 139.1,47 139.1,47 139.1,47 139.1,46.9 139,46.9 139,46.9 139,46.8 139,46.8 
		139,46.8 138.9,46.7 138.9,46.7 138.9,46.7 138.9,46.6 138.9,46.6 138.9,46.5 138.8,46.5 138.8,46.5 138.8,46.4 138.8,46.4 
		138.8,46.4 138.8,46.3 138.8,46.3 138.7,46.3 138.7,46.2 138.7,46.2 138.7,46.2 138.7,46.1 138.7,46.1 138.7,46 138.7,46 138.7,46 
		138.6,45.9 138.6,45.9 138.6,45.9 138.6,45.8 138.6,45.8 138.6,45.8 138.6,45.7 138.6,45.7 138.6,45.7 138.6,45.6 138.6,45.6 
		138.6,45.6 138.6,45.5 138.6,45.5 138.5,45.4 138.5,45.4 138.5,45.4 138.5,45.3 138.5,45.3 138.5,45.3 138.5,45.2 138.5,45.2 
		138.5,45.2 138.5,45.1 138.5,45.1 138.5,45.1 138.5,45 138.5,45 138.5,45 138.5,44.9 138.5,44.9 138.5,44.9 138.5,44.8 138.5,44.8 
		138.5,44.8 138.5,44.7 138.5,44.7 138.5,44.7 138.5,44.7 138.5,44.6 138.6,44.6 138.6,44.6 138.6,44.5 138.6,44.5 138.6,44.5 
		138.6,44.4 138.6,44.4 138.6,44.4 138.6,44.4 138.6,44.3 138.6,44.3 138.6,44.3 138.6,44.2 138.6,44.2 138.7,44.2 138.7,44.2 
		138.7,44.1 138.7,44.1 138.7,44.1 138.7,44.1 138.7,44 138.7,44 138.8,44 138.8,44 138.8,43.9 138.8,43.9 138.8,43.9 138.8,43.9 
		138.9,43.9 138.9,43.8 138.9,43.8 138.9,43.8 138.9,43.8 139,43.8 139,43.7 139,43.7 139,43.7 139.1,43.7 139.1,43.7 139.1,43.7 
		139.1,43.7 139.2,43.6 139.2,43.6 139.2,43.6 139.3,43.6 139.3,43.6 139.3,43.6 139.4,43.6 139.4,43.6 139.4,43.6 139.4,43.6 
		139.5,43.6 	"/>
	<path class="st15" d="M122.3,37.3c-0.8-1.3-1.4-3.1-1.4-4.7"/>
	<path class="st15" d="M137.8,29.2c1.3-3.3,5.6-7,11.9-9.2"/>
	<path class="st15" d="M138.5,23.1c2.2-1.5,5.6-2.8,9.8-2.8"/>
	<path class="st15" d="M152.4,39.4c2.2-1.4,4.6-2.2,7-2.4"/>
</g>
<g>
	<defs>
		<path id="SVGID_15_" d="M154.6,43.1c1.9,0.1,3.6-0.2,5.3-0.8c-0.2-0.8-0.5-1.7-1.3-1.9c-0.1,0-0.3,0-0.4,0
			C156.4,40.3,154,41.6,154.6,43.1"/>
	</defs>
	<clipPath id="SVGID_16_">
		<use xlink:href="#SVGID_15_"  style="overflow:visible;"/>
	</clipPath>
	<path class="st18" d="M158.2,40.2c-0.8,0.1-1.3,0.8-1.2,1.4c0.1,0.7,0.8,1.1,1.6,1s1.3-0.8,1.2-1.4
		C159.6,40.6,158.9,40.1,158.2,40.2"/>
	<path class="st19" d="M158.6,40.7c-0.1,0-0.2,0.1-0.2,0.3c0,0.1,0.2,0.2,0.3,0.2c0.1,0,0.2-0.1,0.2-0.3
		C158.9,40.7,158.7,40.7,158.6,40.7"/>
</g>
<g>
	<defs>
		<rect id="SVGID_17_" width="283.5" height="283.5"/>
	</defs>
	<clipPath id="SVGID_18_">
		<use xlink:href="#SVGID_17_"  style="overflow:visible;"/>
	</clipPath>
	<path class="st20" d="M154.6,43.1c1.9,0.1,3.6-0.2,5.3-0.8c-0.2-0.8-0.5-1.7-1.3-1.9C156.9,40.1,154,41.4,154.6,43.1z"/>
	<path class="st20" d="M161.4,45.7c0,1,0.8,1.5,1.6,1.6"/>
	<path class="st20" d="M138,48.4c0,0,1.9,1.8,2.9,2c1.3,0.3,1.8-0.8,1.8-0.8"/>
	<path class="st21" d="M100.1,154.4c-2.8-0.1-6.2-2.4-8.3-5.6c0,0,22.8-68.9,29.5-72.8c9.5-5.5,11.4,4.3,9.9,8.7
		c-1.8,5.3-16,32.1-16,32.1C110.9,129.7,105.9,142.2,100.1,154.4"/>
	<path class="st22" d="M100.1,154.4c-2.8-0.1-6.2-2.4-8.3-5.6c0,0,22.8-68.9,29.5-72.8c9.5-5.5,11.4,4.3,9.9,8.7
		c-1.8,5.3-16,32.1-16,32.1C110.9,129.7,105.9,142.2,100.1,154.4z"/>
	<polygon class="st23" points="110.6,109.8 110.6,109.8 110.6,109.8 110.7,109.8 110.7,109.8 110.7,109.8 110.7,109.8 110.8,109.8 
		110.8,109.8 110.8,109.8 110.9,109.8 110.9,109.8 110.9,109.8 111,109.9 111,109.9 111,109.9 111,109.9 111.1,109.9 111.1,109.9 
		111.1,109.9 111.2,109.9 111.2,109.9 111.2,109.9 111.2,109.9 111.3,110 111.3,110 111.3,110 111.4,110 111.4,110 111.4,110 
		111.4,110 111.5,110 111.5,110.1 111.6,110.1 111.7,110.1 111.7,110.1 111.8,110.2 111.8,110.2 111.9,110.2 111.9,110.2 112,110.3 
		112.1,110.3 112.1,110.3 112.2,110.4 112.2,110.4 112.3,110.4 112.4,110.5 112.4,110.5 112.5,110.5 112.5,110.6 112.6,110.6 
		112.6,110.6 112.7,110.7 112.8,110.7 112.8,110.8 112.9,110.8 112.9,110.8 113,110.9 113,110.9 113.1,111 113.1,111 113.2,111 
		113.3,111.1 113.3,111.1 113.4,111.2 113.4,111.2 113.5,111.3 113.5,111.3 113.6,111.3 113.6,111.4 113.7,111.4 113.8,111.5 
		113.8,111.5 113.9,111.6 113.9,111.6 114,111.7 114,111.7 114.1,111.8 114.1,111.8 114.2,111.9 114.2,111.9 114.3,112 114.3,112 
		114.4,112.1 114.4,112.1 114.5,112.2 114.5,112.2 114.6,112.3 114.6,112.3 114.7,112.4 114.7,112.4 114.8,112.5 114.8,112.5 
		114.9,112.6 114.9,112.6 114.9,112.7 115,112.7 115,112.8 115.1,112.8 115.1,112.9 115.2,112.9 115.2,113 115.3,113 115.3,113.1 
		115.3,113.1 115.4,113.2 115.4,113.2 115.5,113.3 115.5,113.3 115.5,113.4 115.6,113.4 115.6,113.5 115.7,113.5 115.7,113.6 
		115.7,113.7 115.8,113.7 115.8,113.8 115.8,113.8 115.9,113.9 115.9,113.9 115.9,114 116,114 116,114.1 116,114.1 116.1,114.2 
		116.1,114.2 116.1,114.3 116.2,114.3 116.2,114.4 116.2,114.4 116.2,114.5 116.3,114.5 116.3,114.6 116.3,114.6 116.4,114.7 
		116.4,114.7 116.4,114.7 116.4,114.8 116.4,114.8 116.5,114.9 116.5,114.9 116.5,115 116.5,115 116.5,115.1 116.5,115.1 
		116.5,115.5 116.3,115.7 116.3,115.7 115.9,115.7 115.6,115.4 115.6,115.4 115.6,115.4 115.6,115.4 115.6,115.3 115.6,115.3 
		115.5,115.2 115.5,115.2 115.5,115.2 115.5,115.1 115.5,115.1 115.5,115 115.4,115 115.4,115 115.4,114.9 115.4,114.9 115.3,114.8 
		115.3,114.8 115.3,114.7 115.3,114.7 115.3,114.6 115.2,114.6 115.2,114.6 115.2,114.5 115.1,114.5 115.1,114.4 115.1,114.4 
		115.1,114.3 115,114.3 115,114.2 115,114.2 114.9,114.1 114.9,114.1 114.9,114 114.8,114 114.8,113.9 114.8,113.9 114.7,113.8 
		114.7,113.8 114.7,113.7 114.6,113.7 114.6,113.6 114.6,113.6 114.5,113.5 114.5,113.5 114.4,113.4 114.4,113.4 114.4,113.3 
		114.3,113.3 114.3,113.2 114.2,113.2 114.2,113.1 114.2,113.1 114.1,113 114.1,113 114,112.9 114,112.9 114,112.8 113.9,112.8 
		113.9,112.7 113.8,112.7 113.8,112.6 113.7,112.6 113.7,112.5 113.6,112.5 113.6,112.4 113.5,112.4 113.5,112.3 113.5,112.3 
		113.4,112.3 113.4,112.2 113.3,112.2 113.3,112.1 113.2,112.1 113.2,112 113.1,112 113.1,111.9 113,111.9 113,111.8 112.9,111.8 
		112.9,111.8 112.8,111.7 112.8,111.7 112.7,111.6 112.7,111.6 112.6,111.6 112.6,111.5 112.5,111.5 112.5,111.4 112.4,111.4 
		112.4,111.4 112.3,111.3 112.3,111.3 112.2,111.2 112.2,111.2 112.1,111.2 112.1,111.1 112,111.1 112,111.1 111.9,111 111.9,111 
		111.8,111 111.8,110.9 111.7,110.9 111.7,110.9 111.6,110.9 111.6,110.8 111.5,110.8 111.5,110.8 111.4,110.7 111.4,110.7 
		111.3,110.7 111.3,110.7 111.2,110.6 111.2,110.6 111.2,110.6 111.1,110.6 111.1,110.6 111.1,110.6 111.1,110.6 111,110.6 
		111,110.6 111,110.6 111,110.5 110.9,110.5 110.9,110.5 110.9,110.5 110.9,110.5 110.8,110.5 110.8,110.5 110.8,110.5 110.8,110.5 
		110.7,110.5 110.7,110.5 110.7,110.5 110.7,110.4 110.7,110.4 110.6,110.4 110.6,110.4 110.6,110.4 110.6,110.4 110.5,110.4 
		110.5,110.4 110.5,110.4 110.5,110.4 110.4,110.4 110.2,110 110.5,109.8 	"/>
	<polygon class="st23" points="163.5,117.7 163.6,118.1 163.6,118.1 163.6,118.1 163.5,118.4 163.2,118.6 163.1,118.6 163.1,118.6 
		163.1,118.6 163.1,118.6 163,118.6 163,118.6 163,118.6 162.9,118.6 162.9,118.6 162.9,118.6 162.8,118.6 162.8,118.6 162.8,118.6 
		162.7,118.6 162.7,118.6 162.7,118.6 162.6,118.6 162.6,118.6 162.6,118.6 162.5,118.6 162.5,118.6 162.4,118.6 162.4,118.6 
		162.4,118.6 162.3,118.7 162.3,118.7 162.2,118.7 162.2,118.7 162.2,118.7 162.1,118.7 162.1,118.7 162,118.7 162,118.7 
		161.9,118.7 161.9,118.7 161.9,118.8 161.8,118.8 161.8,118.8 161.7,118.8 161.7,118.8 161.6,118.8 161.6,118.8 161.5,118.8 
		161.5,118.9 161.5,118.9 161.4,118.9 161.4,118.9 161.3,118.9 161.3,118.9 161.2,119 161.2,119 161.1,119 161.1,119 161,119 
		161,119 161,119.1 160.9,119.1 160.9,119.1 160.8,119.1 160.8,119.1 160.7,119.1 160.7,119.2 160.6,119.2 160.6,119.2 160.5,119.2 
		160.5,119.2 160.5,119.3 160.4,119.3 160.4,119.3 160.3,119.3 160.3,119.3 160.2,119.4 160.2,119.4 160.1,119.4 160.1,119.4 
		160,119.5 160,119.5 160,119.5 159.9,119.5 159.9,119.5 159.8,119.6 159.8,119.6 159.7,119.6 159.7,119.6 159.7,119.7 159.6,119.7 
		159.6,119.7 159.5,119.7 159.5,119.8 159.5,119.8 159.4,119.8 159.4,119.8 159.3,119.9 159.3,119.9 159.3,119.9 159.2,119.9 
		159.2,120 159.2,120 159.1,120 159.1,120.1 159.1,120.1 159,120.1 159,120.1 158.9,120.2 158.9,120.2 158.9,120.2 158.8,120.3 
		158.8,120.3 158.8,120.3 158.8,120.3 158.7,120.4 158.7,120.4 158.7,120.4 158.6,120.5 158.6,120.5 158.6,120.5 158.6,120.5 
		158.5,120.6 158.5,120.6 158.5,120.6 158.5,120.7 158.4,120.7 158.4,120.7 158.4,120.7 158.4,120.8 158.3,120.8 158.3,120.8 
		158.3,120.9 158.3,120.9 157.9,121 157.7,120.6 157.8,120.6 157.8,120.5 157.8,120.5 157.8,120.4 157.9,120.4 157.9,120.4 
		157.9,120.3 157.9,120.3 158,120.2 158,120.2 158,120.2 158.1,120.1 158.1,120.1 158.1,120 158.1,120 158.2,120 158.2,119.9 
		158.2,119.9 158.3,119.9 158.3,119.8 158.3,119.8 158.4,119.8 158.4,119.7 158.5,119.7 158.5,119.7 158.5,119.6 158.6,119.6 
		158.6,119.5 158.6,119.5 158.7,119.5 158.7,119.4 158.8,119.4 158.8,119.4 158.8,119.3 158.9,119.3 158.9,119.3 159,119.3 
		159,119.2 159,119.2 159.1,119.2 159.1,119.1 159.2,119.1 159.2,119.1 159.3,119 159.3,119 159.3,119 159.4,118.9 159.4,118.9 
		159.5,118.9 159.5,118.9 159.6,118.8 159.6,118.8 159.7,118.8 159.7,118.7 159.8,118.7 159.8,118.7 159.9,118.7 159.9,118.6 
		159.9,118.6 160,118.6 160,118.6 160.1,118.5 160.1,118.5 160.2,118.5 160.2,118.5 160.3,118.4 160.3,118.4 160.4,118.4 
		160.4,118.4 160.5,118.3 160.5,118.3 160.6,118.3 160.6,118.3 160.7,118.2 160.7,118.2 160.8,118.2 160.8,118.2 160.9,118.2 
		160.9,118.1 161,118.1 161,118.1 161.1,118.1 161.1,118.1 161.2,118 161.2,118 161.3,118 161.3,118 161.4,118 161.4,118 
		161.5,117.9 161.5,117.9 161.5,117.9 161.6,117.9 161.6,117.9 161.7,117.9 161.7,117.8 161.8,117.8 161.8,117.8 161.9,117.8 
		161.9,117.8 162,117.8 162,117.8 162.1,117.8 162.1,117.7 162.2,117.7 162.2,117.7 162.2,117.7 162.3,117.7 162.3,117.7 
		162.4,117.7 162.4,117.7 162.5,117.7 162.5,117.6 162.6,117.6 162.6,117.6 162.6,117.6 162.7,117.6 162.7,117.6 162.8,117.6 
		162.8,117.6 162.9,117.6 162.9,117.6 162.9,117.6 163,117.6 163,117.6 163.1,117.6 163.1,117.6 163.1,117.6 163.1,117.6 	"/>
	<polygon class="st23" points="109.9,113.7 110,113.7 110,113.7 110.1,113.7 110.2,113.7 110.2,113.7 110.3,113.7 110.4,113.7 
		110.4,113.7 110.5,113.7 110.6,113.8 110.6,113.8 110.7,113.8 110.8,113.8 110.8,113.8 110.9,113.8 111,113.8 111.1,113.8 
		111.1,113.8 111.2,113.8 111.3,113.8 111.3,113.9 111.4,113.9 111.5,113.9 111.5,113.9 111.6,113.9 111.7,113.9 111.7,113.9 
		111.8,113.9 111.9,114 112,114 112,114 112.1,114 112.2,114 112.2,114 112.3,114.1 112.4,114.1 112.4,114.1 112.5,114.1 
		112.6,114.1 112.6,114.1 112.7,114.2 112.8,114.2 112.8,114.2 112.9,114.2 113,114.2 113,114.3 113.1,114.3 113.2,114.3 
		113.2,114.3 113.3,114.4 113.4,114.4 113.4,114.4 113.5,114.4 113.6,114.4 113.6,114.5 113.7,114.5 113.7,114.5 113.8,114.5 
		113.9,114.6 113.9,114.6 114,114.6 114.1,114.6 114.1,114.7 114.2,114.7 114.2,114.7 114.3,114.7 114.4,114.8 114.4,114.8 
		114.5,114.8 114.5,114.9 114.6,114.9 114.6,114.9 114.7,114.9 114.8,115 114.8,115 114.9,115 114.9,115 115,115.1 115,115.1 
		115.1,115.1 115.1,115.2 115.2,115.2 115.2,115.2 115.3,115.2 115.3,115.3 115.4,115.3 115.4,115.3 115.5,115.4 115.5,115.4 
		115.5,115.4 115.6,115.5 115.6,115.5 115.7,115.5 115.7,115.5 115.8,115.6 115.8,115.6 115.8,115.6 115.9,115.7 115.9,115.7 
		116.1,116 115.9,116.4 115.9,116.4 115.9,116.4 115.6,116.5 115.2,116.4 115.2,116.4 115.2,116.4 115.2,116.4 115.1,116.4 
		115.1,116.3 115.1,116.3 115.1,116.3 115,116.3 115,116.2 114.9,116.2 114.9,116.2 114.9,116.1 114.8,116.1 114.8,116.1 
		114.8,116.1 114.7,116 114.7,116 114.6,116 114.6,116 114.5,115.9 114.5,115.9 114.4,115.9 114.4,115.8 114.4,115.8 114.3,115.8 
		114.3,115.8 114.2,115.7 114.2,115.7 114.1,115.7 114.1,115.7 114,115.6 114,115.6 113.9,115.6 113.9,115.5 113.8,115.5 
		113.7,115.5 113.7,115.5 113.6,115.4 113.6,115.4 113.5,115.4 113.5,115.4 113.4,115.3 113.4,115.3 113.3,115.3 113.2,115.3 
		113.2,115.2 113.1,115.2 113.1,115.2 113,115.2 112.9,115.1 112.9,115.1 112.8,115.1 112.8,115.1 112.7,115.1 112.6,115 112.6,115 
		112.5,115 112.5,115 112.4,114.9 112.3,114.9 112.3,114.9 112.2,114.9 112.1,114.9 112.1,114.8 112,114.8 112,114.8 111.9,114.8 
		111.8,114.8 111.8,114.8 111.7,114.7 111.6,114.7 111.6,114.7 111.5,114.7 111.4,114.7 111.4,114.7 111.3,114.6 111.2,114.6 
		111.2,114.6 111.1,114.6 111.1,114.6 111,114.6 110.9,114.6 110.9,114.5 110.8,114.5 110.7,114.5 110.7,114.5 110.6,114.5 
		110.5,114.5 110.5,114.5 110.4,114.5 110.4,114.5 110.3,114.5 110.2,114.5 110.2,114.5 110.1,114.4 110.1,114.4 110,114.4 
		109.9,114.4 109.9,114.4 109.8,114.4 109.7,114.4 109.7,114.4 109.6,114.4 109.6,114.4 109.5,114.4 109.5,114.4 109.4,114.4 
		109.3,114.4 109.3,114.4 109.2,114.4 109.2,114.4 109.1,114.4 109.1,114.4 109,114.4 109,114.4 109,114.4 109,114.4 108.9,114.5 
		108.9,114.5 108.9,114.5 108.8,114.5 108.8,114.5 108.8,114.5 108.8,114.5 108.7,114.5 108.7,114.5 108.7,114.5 108.7,114.5 
		108.6,114.5 108.6,114.5 108.6,114.5 108.6,114.5 108.5,114.5 108.5,114.5 108.5,114.5 108.5,114.5 108.4,114.5 108.4,114.5 
		108.4,114.6 108.4,114.6 108.3,114.6 108.3,114.6 108.3,114.6 108.3,114.6 108.3,114.6 107.9,114.4 108,114 108.1,114 108.1,114 
		108.1,114 108.2,114 108.2,114 108.2,114 108.2,113.9 108.3,113.9 108.3,113.9 108.3,113.9 108.4,113.9 108.4,113.9 108.4,113.9 
		108.4,113.9 108.5,113.9 108.5,113.9 108.5,113.9 108.6,113.9 108.6,113.8 108.6,113.8 108.6,113.8 108.7,113.8 108.7,113.8 
		108.7,113.8 108.8,113.8 108.8,113.8 108.8,113.8 108.9,113.8 108.9,113.8 108.9,113.8 109,113.8 109,113.8 109,113.8 109.1,113.8 
		109.2,113.8 109.2,113.7 109.3,113.7 109.4,113.7 109.4,113.7 109.5,113.7 109.6,113.7 109.6,113.7 109.7,113.7 109.8,113.7 
		109.8,113.7 	"/>
	<polygon class="st23" points="164.1,118.3 164.4,118.6 164.4,118.6 164.4,118.6 164.3,119 164,119.3 164,119.3 164,119.3 
		164,119.3 163.9,119.3 163.9,119.3 163.9,119.3 163.9,119.3 163.8,119.3 163.8,119.3 163.8,119.3 163.7,119.4 163.7,119.4 
		163.7,119.4 163.6,119.4 163.6,119.4 163.6,119.4 163.5,119.4 163.5,119.4 163.5,119.5 163.4,119.5 163.4,119.5 163.4,119.5 
		163.3,119.5 163.3,119.5 163.2,119.6 163.2,119.6 163.2,119.6 163.1,119.6 163.1,119.6 163.1,119.7 163,119.7 163,119.7 
		162.9,119.7 162.9,119.7 162.9,119.8 162.8,119.8 162.8,119.8 162.7,119.8 162.7,119.9 162.7,119.9 162.6,119.9 162.6,119.9 
		162.5,120 162.5,120 162.5,120 162.4,120 162.4,120.1 162.3,120.1 162.3,120.1 162.3,120.1 162.2,120.2 162.2,120.2 162.1,120.2 
		162.1,120.2 162.1,120.3 162,120.3 162,120.3 161.9,120.4 161.9,120.4 161.9,120.4 161.8,120.4 161.8,120.5 161.8,120.5 
		161.7,120.5 161.7,120.6 161.6,120.6 161.6,120.6 161.6,120.7 161.5,120.7 161.5,120.7 161.4,120.8 161.4,120.8 161.4,120.8 
		161.3,120.9 161.3,120.9 161.3,120.9 161.2,121 161.2,121 161.2,121 161.1,121.1 161.1,121.1 161,121.1 161,121.2 161,121.2 
		160.9,121.2 160.9,121.3 160.9,121.3 160.8,121.3 160.8,121.4 160.8,121.4 160.8,121.4 160.7,121.5 160.7,121.5 160.7,121.5 
		160.6,121.6 160.6,121.6 160.6,121.7 160.5,121.7 160.5,121.7 160.5,121.8 160.5,121.8 160.4,121.8 160.4,121.9 160.4,121.9 
		160.4,121.9 160.3,122 160.3,122 160.3,122 160.3,122.1 160.2,122.1 160.2,122.2 160.2,122.2 160.2,122.2 160.2,122.3 160.1,122.3 
		160.1,122.3 160.1,122.4 160.1,122.4 160.1,122.4 160.1,122.5 160,122.5 160,122.5 160,122.6 160,122.6 160,122.6 160,122.7 
		160,122.7 160,122.7 159.9,122.8 159.6,123 159.3,122.6 159.3,122.6 159.4,122.5 159.4,122.5 159.4,122.5 159.4,122.4 159.4,122.4 
		159.4,122.3 159.4,122.3 159.5,122.2 159.5,122.2 159.5,122.1 159.5,122.1 159.5,122.1 159.6,122 159.6,122 159.6,121.9 
		159.6,121.9 159.6,121.8 159.7,121.8 159.7,121.7 159.7,121.7 159.7,121.7 159.8,121.6 159.8,121.6 159.8,121.5 159.8,121.5 
		159.9,121.4 159.9,121.4 159.9,121.4 159.9,121.3 160,121.3 160,121.2 160,121.2 160.1,121.1 160.1,121.1 160.1,121.1 160.2,121 
		160.2,121 160.2,120.9 160.3,120.9 160.3,120.9 160.3,120.8 160.4,120.8 160.4,120.7 160.4,120.7 160.5,120.6 160.5,120.6 
		160.5,120.6 160.6,120.5 160.6,120.5 160.6,120.4 160.7,120.4 160.7,120.4 160.8,120.3 160.8,120.3 160.8,120.3 160.9,120.2 
		160.9,120.2 160.9,120.1 161,120.1 161,120.1 161.1,120 161.1,120 161.1,120 161.2,119.9 161.2,119.9 161.3,119.8 161.3,119.8 
		161.3,119.8 161.4,119.7 161.4,119.7 161.5,119.7 161.5,119.6 161.5,119.6 161.6,119.6 161.6,119.5 161.7,119.5 161.7,119.5 
		161.8,119.4 161.8,119.4 161.8,119.4 161.9,119.3 161.9,119.3 162,119.3 162,119.2 162.1,119.2 162.1,119.2 162.1,119.2 
		162.2,119.1 162.2,119.1 162.3,119.1 162.3,119 162.3,119 162.4,119 162.4,119 162.5,118.9 162.5,118.9 162.6,118.9 162.6,118.9 
		162.6,118.8 162.7,118.8 162.7,118.8 162.8,118.8 162.8,118.7 162.8,118.7 162.9,118.7 162.9,118.7 163,118.6 163,118.6 163,118.6 
		163.1,118.6 163.1,118.6 163.2,118.5 163.2,118.5 163.2,118.5 163.3,118.5 163.3,118.5 163.4,118.4 163.4,118.4 163.4,118.4 
		163.5,118.4 163.5,118.4 163.6,118.4 163.6,118.4 163.6,118.3 163.7,118.3 163.7,118.3 163.7,118.3 163.7,118.3 	"/>
	<line class="st24" x1="144.4" y1="159.3" x2="149.5" y2="164.3"/>
</g>
</svg>
