<?xml version="1.0" encoding="utf-8"?>
<!-- Generator: Adobe Illustrator 22.1.0, SVG Export Plug-In . SVG Version: 6.00 Build 0)  -->
<svg version="1.1" id="Слой_5" xmlns="http://www.w3.org/2000/svg" xmlns:xlink="http://www.w3.org/1999/xlink" x="0px" y="0px"
	 viewBox="0 0 512 512" style="enable-background:new 0 0 512 512;" xml:space="preserve">
<style type="text/css">
	.st0{fill:#857154;stroke:#000000;stroke-width:3;stroke-linecap:round;stroke-linejoin:round;stroke-miterlimit:10;}
	.st1{fill:#FDCD95;stroke:#000000;stroke-width:3;stroke-linecap:round;stroke-linejoin:round;stroke-miterlimit:10;}
	.st2{fill:none;stroke:#000000;stroke-width:3;stroke-linecap:round;stroke-linejoin:round;stroke-miterlimit:10;}
	.st3{fill:#FFAFB9;}
	.st4{fill:#FFFFFF;}
	.st5{fill:none;stroke:#000000;stroke-width:3.4766;stroke-linecap:round;stroke-linejoin:round;stroke-miterlimit:10;}
	.st6{fill:#B5D758;stroke:#000000;stroke-width:3;stroke-linecap:round;stroke-linejoin:round;stroke-miterlimit:10;}
	.st7{fill:none;stroke:#000000;stroke-width:2.515;stroke-miterlimit:10;}
	.st8{fill:#FFFFFF;stroke:#000000;stroke-width:3;stroke-linecap:round;stroke-linejoin:round;stroke-miterlimit:10;}
	.st9{stroke:#000000;stroke-linecap:round;stroke-linejoin:round;stroke-miterlimit:10;}
</style>
<path class="st0" d="M359.2,238.4c0,0-61.5,5.1-91.5-44.4s9.4-150.4,73.5-138.5c0,0,29.1-16.2,47,6.8c0,0,43.6,7.5,50,72.3
	c4.8,49-28,94.2-76.4,103.3C360.9,238.1,360,238.3,359.2,238.4z"/>
<polygon class="st1" points="317.3,199.1 303.6,246.1 330.1,254.6 338.6,254.6 351.9,209.4 "/>
<ellipse class="st1" cx="286.8" cy="135.3" rx="8.9" ry="17.5"/>
<ellipse transform="matrix(0.4242 -0.9056 0.9056 0.4242 89.1168 473.9655)" class="st1" cx="417.3" cy="166.9" rx="17.5" ry="8.9"/>
<path class="st2" d="M295.7,88.9c0,0-12.6,47,7.9,25.6L320.7,82c0,0-10.3,31.6,0,30.8c10.3-0.9,13.7-16.2,13.7-16.2
	s-3.4,40.6,23.1,4.5c0,0,9.4,34,24.8,6.6c0,0,7.7,33.3,31.6,2.6c0,0-13.4,32.7,5.1,25.6"/>
<path class="st1" d="M419,148.2c0,37-30,67.1-67.1,67.1c-37.1,0-67.1-30-67.1-67.1c0-11.3,2.8-22,7.8-31.4c1.3,3.4,4.4,3.6,11-3.2
	l11.2-21.3c1.1-0.7,2.2-1.4,3.4-2.1c-2.2,9.3-4.1,22.3,2.5,21.7c9.9-0.8,13.5-15.3,13.7-16.2c-0.1,1.4-2.9,39.9,23.1,4.5
	c0,0,9.4,34,24.8,6.6c0,0,6.8,29.5,27.5,7.4c0.5,0.9,1,1.8,1.5,2.7c-2.6,8.9-4.7,21.9,6.5,18.5C418.6,139.6,419,143.8,419,148.2z"/>
<polygon points="343.7,177 335.4,193.6 350.2,195.8 357.6,179.6 353.9,175.2 345.1,175.2 "/>
<path class="st2" d="M325.9,133.1c0,0,4,11.8,23.3,8.5"/>
<path class="st2" d="M380.1,150.6c0,0,8,14.8,22.5,5.3"/>
<path class="st3" d="M337.5,191.8c0,0,14.3,0.1,14.6,2c0.3,1.9-4.4,8.1-4.4,8.1l-9.2,1.6c0,0-3.4-3.6-3.2-4.5
	C335.4,198.3,337.5,191.8,337.5,191.8z"/>
<path class="st4" d="M341.3,179.6c0,0,13.8-4.3,16.4,0c0,0,3.5-5.9-0.5-8.3C353.1,168.8,343.2,176.6,341.3,179.6z"/>
<path class="st2" d="M351.9,160.3c0,0,12.5-4.5,17.3,2.8"/>
<g>
	<path class="st5" d="M360.1,176.1c-0.4-2.2-1.4-3.9-3-4.8c-4.7-2.7-12.6,2.4-17.8,11.3c-5.2,8.9-5.6,18.3-0.9,21
		c3.5,2.1,9-0.4,13.7-5.6"/>
	<path class="st5" d="M352.1,198c0.5-4.8,2.3-15.3,8-22"/>
</g>
<path class="st6" d="M294.3,222.4l-71.9,63.9c0,0,10.3,26.5,26.5,33.3l-10.3,52.1l-6.8,63.2c0,0,54.8,47,115.9,17.9
	c0,0,20.4-126.5,21.5-131.6c1.1-5.1,24.2-50.6,7.1-66.8l-26.1-16c0,0-31.4,18.1-43.5-10.1L294.3,222.4z"/>
<path class="st2" d="M273.1,264.3c0,0-19.7,41.5-24.2,55.4"/>
<path class="st2" d="M326.1,304.9l-28.7,34c0,0,17.3,12.4,14.3,37c0,0,54.8-47.6,57.4-54.6"/>
<g>
	<path class="st1" d="M198.7,400.3c0,0-12.3,12-9.3,16.3s14.3-8.3,19.7-5.7c5.3,2.7,18.3,15.8,39.8,6.6s62.6-54.1,62.6-54.1
		s-6.8-20.8-10.3-21l-49.5,47.8c0,0-35.9-18.7-45.1-17.7s0.4,23.7,0.4,23.7L198.7,400.3z"/>
	<path class="st2" d="M261,397.9c0,0-6.1-6-9.2-7.7"/>
</g>
<g>
	<path class="st7" d="M272.4,332.8l-14-4.3c-3.5-1.1-5.6-4.9-4.5-8.4l7.3-23.6c1.1-3.5,4.9-5.6,8.4-4.5l14,4.3
		c3.5,1.1,5.6,4.9,4.5,8.4l-7.3,23.6C279.7,331.8,275.9,333.9,272.4,332.8z"/>
	<path class="st7" d="M263.2,292.8l5.9,14.9c1,2.5,3.7,3.2,5.8,1.6l13-9.9"/>
</g>
<path class="st1" d="M230.9,302.6c0,0-91.5,96-38.5,98.3c0,0,24.7-5.3,34.7,15c0,0,13,20.5,11.3-3c-1.7-23.5-39.3-18.7-33-30
	c6.3-11.3,21-1.7,23,2.7s13.3,22,16.7,18c3.3-4,4.5-16.3-10-20.3c0,0,17.3,3.3,8-7.3c-9.3-10.7-23.3-8-23.3-8l27.5-48.3
	C247.2,319.6,230.8,307.2,230.9,302.6z"/>
<path class="st8" d="M202.6,146.7c28.9-19.4,44.2-47.1,35.4-69.2c-11-28-56.3-36.4-101.1-18.7c-44.8,17.6-72.2,54.6-61.2,82.6
	c10.5,26.8,52.4,35.6,95.3,20.9c7.3,7.6,26.1,22.5,63.6,23.2C234.6,185.5,209.3,167.3,202.6,146.7z"/>
<g>
	<line class="st2" x1="149.8" y1="73.8" x2="171" y2="126.7"/>
	<ellipse transform="matrix(0.3579 -0.9337 0.9337 0.3579 -18.3041 241.6325)" cx="166.6" cy="134.1" rx="11.7" ry="4.8"/>
</g>
<g>
	<g>
		<line class="st2" x1="117.9" y1="84.5" x2="140.5" y2="136.8"/>
		<ellipse transform="matrix(0.3331 -0.9429 0.9429 0.3331 -45.2714 224.8459)" cx="136.3" cy="144.4" rx="11.7" ry="4.8"/>
	</g>
	<path class="st9" d="M143.6,110.6c0,0-3.6-5.9-10.4-9.3c-6.7-3.3-10.1-4.7-10.1-4.7L118.6,86c0,0,12.4,5.8,17.6,10.6
		S143.6,110.6,143.6,110.6z"/>
</g>
<g>
	<g>
		<line class="st2" x1="178.8" y1="65.2" x2="200.6" y2="117.9"/>
		<ellipse transform="matrix(0.3491 -0.9371 0.9371 0.3491 10.1447 265.5068)" cx="196.2" cy="125.5" rx="11.7" ry="4.8"/>
	</g>
	<path class="st9" d="M204.1,91.7c0,0-3.5-6-10.2-9.4c-6.7-3.4-10-4.8-10-4.8l-4.4-10.7c0,0,12.3,6,17.4,10.9
		C202.1,82.7,204.1,91.7,204.1,91.7z"/>
</g>
</svg>
