<?xml version="1.0" encoding="utf-8"?>
<!-- Generator: Adobe Illustrator 22.1.0, SVG Export Plug-In . SVG Version: 6.00 Build 0)  -->
<svg version="1.1" id="Слой_3" xmlns="http://www.w3.org/2000/svg" xmlns:xlink="http://www.w3.org/1999/xlink" x="0px" y="0px"
	 viewBox="0 0 512 512" style="enable-background:new 0 0 512 512;" xml:space="preserve">
<style type="text/css">
	.st0{fill:#857154;}
	.st1{fill:#FDCD95;}
	.st2{fill:#FDCD95;stroke:#000000;stroke-width:3;stroke-linecap:round;stroke-linejoin:round;stroke-miterlimit:10;}
	.st3{fill:none;stroke:#1D1D1B;stroke-width:3;stroke-linecap:round;stroke-linejoin:round;stroke-miterlimit:10;}
	.st4{fill:none;stroke:#000000;stroke-width:3;stroke-linecap:round;stroke-linejoin:round;stroke-miterlimit:10;}
	.st5{fill:#F6F6F6;stroke:#000000;stroke-width:3;stroke-linecap:round;stroke-linejoin:round;stroke-miterlimit:10;}
	.st6{fill:#FFFFFF;}
	.st7{opacity:0.88;fill:#AAD3E5;stroke:#000000;stroke-width:3;stroke-linecap:round;stroke-linejoin:round;stroke-miterlimit:10;}
	.st8{opacity:0.88;fill:#17333D;}
	.st9{fill:#B5D758;stroke:#000000;stroke-width:3;stroke-linecap:round;stroke-linejoin:round;stroke-miterlimit:10;}
	.st10{fill:none;stroke:#000000;stroke-width:3;stroke-miterlimit:10;}
	.st11{fill:#17333D;}
</style>
<polyline points="342.5,221.3 346.6,222.6 353.5,221.3 355.6,227.7 352.7,229.6 349,226.7 342.5,221.3 "/>
<polyline points="324.3,196.4 305.3,192.6 308.5,214.3 324.3,196.4 "/>
<path class="st0" d="M248.2,201.1l0.8,5.3l-13.9,5.5l-17.9,0.2l-14.7-5.5L187.4,193c0,0-12.9-14.6-15.2-30.7s-2.9-27-2.9-27
	s0.3-26,3.8-32.1c3.6-6.2,4.9-21.9,9.5-25.5c4.6-3.6,7.2-17.6,15.9-22.5l13.1-10.8l11.2-5.5l15.1-3.4l3.3,1.5l8.7-4.6l7.8-2.1
	l12.2,0.5l4.9,1.6l7.4-1.3l17.7,2.4l11.6,5.4l16.4,12.8L342,70.1c0,0,6.5,11.8,7.7,14.6c1.2,2.8,9.5,30.3,10,36.4
	c0.5,6.1,0,29.1-1.4,34.8c-1.5,5.7-6.8,19-7.9,20.9s-9.5,14.4-18,17.3c-8.5,2.9-12,4.6-16.9,5.5c-4.9,0.9-9.3-0.6-9.3-0.6
	l-10.6-15.4l-27,3.2c0,0-11.6,5.3-12.6,5.7s-8.4,4.7-8.4,4.7L248.2,201.1z"/>
<path class="st1" d="M251.6,237.1l16.1,2.6l15.6,0c0,0,17.3-3.3,21.9-6.9s6.6-5.6,6.6-5.6l-6.2-34c0,0,18.4-13.9,23.1-27
	c4.8-13,6.7-24,6.7-24l-1.2-23.4l-7.1-5.9l-6.3-8.5l-3.9,3.8l-4.8,1.3l-8.5-8.2l-7.7-12.3l-1.4,5.6l-4.3,3.8l-5.1-1.9l-7.3-13.3
	l0.8,7.2l-2.6,3.5l-5.4,0.3l-7.7-3.9l-2,0.9l-4,6l-4.9,1.4l-5.3-0.5l-6.5-5.4l-2.4-3.7l-2.4,11.4l-2.8,6.8l-1,3.3l-4.4,1.7l-5.7-3.5
	l-0.7,7.2l-5.1,6.6l-4.5-0.4l-0.8,7.9l-3.4,4.6l-2.4,1.7l1.1,11.3l9.4,23.4l12.9,15.3l18.5,12.4l2,0.7L251.6,237.1z"/>
<path class="st2" d="M204.6,138.1c-0.9-0.2-2.7-1.1-3.6-0.9c-5.4,1.4-5.7,6.9-3.3,15.7c2.4,8.9,8.6,14.9,14,13.5
	c0.4-0.1,0.1,0.4,0.5,0.2"/>
<path class="st3" d="M334.1,117.4c0.1,0.4,0.2,0.8,0.2,1.3"/>
<path class="st4" d="M334.2,151c-2.1,9.1-6,17.6-11.5,25c-4.5,6-10,11.3-16.4,15.5c-7.7,5.1-16.6,8.6-26.4,10.1
	c-9.7,1.4-19.3,0.7-28.1-2c-7.5-2.2-14.6-5.8-20.8-10.5c-8.2-6.2-15-14.3-19.6-23.8c-2.9-6-5-12.5-6-19.3c-0.5-3.5-1-4.5-0.9-7.9"/>
<path class="st4" d="M305.3,192.6L305.3,192.6l0.9,6.3l0.3,2l3.9,26.4c-23.6,23.6-58.8,9.7-58.8,9.7"/>
<polyline class="st4" points="251.6,237.1 249,206.4 248.5,201.1 248.5,201.1 "/>
<path class="st2" d="M334.3,151.2c0.9,0.5,1.9,0.8,2.9,0.9c5.5,0.4,10.5-6.8,11.1-16c0.6-9.2-3.4-16.9-8.9-17.2
	c-1.7-0.1-3.7-1.2-5.2,0c0.2,1.5,0.8,5.1,1,6.2C336.5,134,336.1,142.8,334.3,151.2z"/>
<path class="st3" d="M334.2,118.8c0.1,0,0.1-0.1,0.2-0.1"/>
<path class="st4" d="M306.2,198.9c6.5,1.1,13.1,0.8,19.4-1.2c30.4-9.6,43.4-54.3,29-99.9C340.4,53.1,305,24.2,275,32.4"/>
<path class="st4" d="M243.1,36.5c-33.1-3.5-65.2,31.3-72.3,79c-7.2,48.5,14.3,91.9,48,96.9c10.4,1.5,20.7-0.7,30.2-6"/>
<path class="st3" d="M275,32.4c-5.1-2.1-11-2.9-17.1-2c-5.7,0.8-10.7,3-14.8,6.1"/>
<path class="st4" d="M336.3,76c0,0,11.2,65.6-12.2,31.7c0,0-2.5-3.3-5.5-7.2c-4-5.2-9-11.7-10.5-13.1"/>
<path class="st4" d="M199.2,132.3c0,0,10.8,14.2,11.9-10.1c0,0,10,6.4,10.3-13.4"/>
<path class="st4" d="M215.5,93.9c0,0,9.3,31.4,18.6,10.2c0,0,4.5-12.2,3.6-18.5c0,0,10.4,28.3,23.2,3.4c0,0,19.7,16.9,14.7-7.2
	c0,0,14.6,32.6,19.1,7.5c0,0,17.8,34.4,25.4,13.1"/>
<path class="st4" d="M198.1,68.4c0,0-12.2,26.6-10.8,48.7"/>
<path class="st4" d="M303.4,55.3c0,0,16.1,9.8,20.8,26.8"/>
<g>
	<path class="st2" d="M139.4,444.4c0,0-6.7,4.9-7.4-0.4c-0.4-3,3.7-7.6,7.3-10.4c2.7-2.1,5.1-4.6,7.2-7.4
		c4.1-5.5,12.5-12.8,12.5-12.8c-1.2-36.7,19.3-83.5,19.3-83.5l17.4,3.7l6.4,2.2c0,0-18,52.6-20.3,58.8c-2.1,5.5-9.2,29.2-3.2,35.4
		c6.2,6.5,18.6,22,5.5,18.5c-13.1-3.6-13.1-6.8-20.1,6.8s-14.8,7.7-13.6,1.5"/>
	<path class="st2" d="M147.6,434.2c0,0-22.1,19.6-4.5,18.1"/>
	<path class="st2" d="M152.8,438.2c0,0-18.1,21.6-4.6,19.7c3.5-0.5,9.8-7.9,12-10.7"/>
</g>
<polygon points="250.1,219.1 241.6,221.7 249,234.5 251.6,226.8 "/>
<path d="M265,173.9c0,0,0.1,0.1,0.3,0.2c1.8,1.4,11.4,8.5,22.5,7.5c12.4-1.1,24-13.9,24-13.9l3.2-7.8l1.2-6.1l-8.3,1.6l-27.2,10.2
	l-14.6,4.4l-1.1,3.1L265,173.9z"/>
<ellipse transform="matrix(0.6446 -0.7645 0.7645 0.6446 -34.6135 346.1038)" class="st5" cx="355" cy="210.3" rx="15.2" ry="7.7"/>
<path class="st6" d="M263.5,173.9c0,0,41.6-12.9,51.3-20.1l-0.9-7l-6.1,3.6l-22.5,9.8l-17.3,4.8l-8.7,1.8l2.4,5.8L263.5,173.9z"/>
<path class="st4" d="M314.8,160.3l-3.5-0.1c-15.5,2.1-22.1,13.2-24.9,21.4c-11.7-0.1-23.9-6.3-26.6-12.1c-0.4-0.9-0.6-1.8-0.5-2.6
	c12.4-2.4,38.1-8.4,54.5-20.3c0,0.1,0.1,0.1,0.1,0.2C315.4,150.3,317,154.6,314.8,160.3z"/>
<path class="st4" d="M329.5,234.5c0,0,5.8,27.1,10.9,38.6"/>
<path class="st4" d="M286.6,180.9c0,0,24.6-3.1,28.5-22.6"/>
<path d="M360.1,297.2c0,0,11,0.5,18-20.8c3.6-11.1-16.5-5.5-16.5-5.5l-12.3-4.3l-4.8,6.3L360.1,297.2z"/>
<path class="st7" d="M363.5,198.1c0,0-18.1,4.7-19.6,24.1L312,203.6l-24.5-11.7c0,0-0.2-4.1,1-9.5c1.9-8.7,7.2-20.9,22.4-24.9
	l1.8,1.4L363.5,198.1z"/>
<path class="st8" d="M349,207.9c-2.6,3.5-4.6,8-5.1,14L312,203.4l-24.5-11.7c0,0-0.2-3.8,0.9-9c11.5,1.2,27.1,3.5,31.6,6.9
	c7.3,5.7,0.7,6.8,12,11.2C339.6,203.8,344.6,204.9,349,207.9z"/>
<path class="st2" d="M334.9,224.5l21,6l-5-40.5c0,0-14.5,15.5-14,6s6-13,6-13s-27.8,16.7-10.7-4.2c0,0-15.3,4.3-11.7-2.8
	c3.7-7.2,25.2-15,37,0c11.8,15,19.5,40.2,21.3,58.5c1.8,18.3,6.3,75.2-34.7,35.3L334.9,224.5z"/>
<path class="st9" d="M242.1,223.2c0,0-47.2,7.6-57.2,49.5c-10,42-20.2,60.2-20.2,60.2l39.1,16.2l-17.3,112.2c0,0,88.5,46.5,182.5,0
	l-26.5-180.6c0,0,12.8,14.6,18.2,15.5c0,0-26.7-36.4-11.8-69.5l-36.8-21.9C312.1,204.8,300.7,266.1,242.1,223.2z"/>
<g>
	<path class="st10" d="M254.8,319.6h-19.5c-3.7,0-6.8-3-6.8-6.8v-22.8c0-3.7,3-6.8,6.8-6.8h19.5c3.7,0,6.7,3,6.7,6.8v22.8
		C261.5,316.6,258.5,319.6,254.8,319.6z"/>
	<path class="st10" d="M229.6,285.9l11.8,11.9c2,2,5.2,1.9,7.1-0.2l11.1-12.7"/>
</g>
<line class="st4" x1="216.5" y1="292.7" x2="206.5" y2="346.5"/>
<path class="st4" d="M356,230.5c-1.7,15.2,3.3,34.2,3.3,34.2"/>
<path class="st4" d="M351,190c0,0,5.8,3.8,11.2,3.2"/>
<path class="st4" d="M332.3,178.8c0,0,2.7-3.2,10.3-3.3"/>
<path class="st4" d="M272.5,143.8c0,0,6.3-9,16.5-4.5"/>
<ellipse transform="matrix(0.9248 -0.3805 0.3805 0.9248 -32.0485 106.7327)" cx="254" cy="134.4" rx="5.4" ry="9.7"/>
<ellipse transform="matrix(0.9248 -0.3805 0.3805 0.9248 -31.4618 106.6747)" class="st6" cx="254.1" cy="132.9" rx="2.2" ry="3.2"/>
<path class="st4" d="M241.3,132.9c0,0,7.5-12.4,19.5-6.9"/>
<ellipse transform="matrix(0.9248 -0.3805 0.3805 0.9248 -24.1712 121.2521)" cx="294.6" cy="121.8" rx="5.4" ry="9.7"/>
<path class="st4" d="M282,120.3c0,0,7.5-12.4,19.5-6.9"/>
<ellipse transform="matrix(0.9248 -0.3805 0.3805 0.9248 -23.6973 121.1505)" class="st6" cx="294.6" cy="120.5" rx="2.2" ry="3.2"/>
<path class="st4" d="M228.5,124.6c0,0,8.2-17.4,27.3-12.7"/>
<path class="st4" d="M278.3,105.8c0,0,12.2-12.7,26.2-2.2"/>
<path class="st4" d="M342.5,280.7c0,0-8-7.2-13-17.7"/>
<path class="st11" d="M277.3,179.4l0.6,0c0,0,0,0,0,0C277.6,179.4,277.4,179.4,277.3,179.4z"/>
</svg>
