<svg enable-background="new 0 0 297.64 297.64" viewBox="0 0 297.64 297.64" xmlns="http://www.w3.org/2000/svg"><path d="m86.87 139.79-8.27-24.19c-.42-1.21-1.74-1.86-2.95-1.45s-1.86 1.74-1.45 2.95l3.94 11.53-27.14-32.93c-.82-.99-2.28-1.13-3.27-.32-.99.82-1.13 2.28-.32 3.27l27.16 32.96-10.03-6.37c-1.08-.69-2.52-.37-3.21.71s-.37 2.52.71 3.21l21.34 13.56c.39.25.82.36 1.25.36.77 0 1.52-.38 1.96-1.08.21-.33.32-.69.35-1.06.08-.36.07-.76-.07-1.15z" fill="#63b15a"/><g clip-rule="evenodd" fill-rule="evenodd"><path d="m103.49 96.02 67.05-27.13 31.63 83.95c-4.57 2.29-6.53 6.57-5.2 13.32l-61.73 13.67-38.55-75.66z" fill="#c6985c"/><path d="m96.69 104.34 67.04-27.13 33.24 89.13-66.91 25.33z" fill="#f15c4b"/><path d="m79.03 55.46 25.4 24.68c5.58-2.85 11.76 1.09 18.15 1.12 3.11.01 5.28-1.07 8.7-1.19s2.82 2.29 2.82 2.29-9.99 2.87-12.98 7.08c0 0 4 6.99 9.35 9.28 5.68 2.43 6.31 3.4 5.94 4.64-5.54 7.47-16.91-1.69-16.91-1.69s2.79 4.14 5.79 4.79c3.56.78.54 5.77-3.86 5.17 1.09 2.27-5.26 5.21-11.56-.41 1.49 2.73-1.47 4.51-4.77 3.06-2.7-1.19-10.71-6.6-10.22-22.04-10.46-5.53-21.43-12.38-30.97-17.61z" fill="#ffe7cc"/><path d="m205.09 84.63c-13.6-1.72-20.4 4.72-23.63 10.77 2.51-.35 5.28.36 7.79.43.25.01.49.03.72.07 2.47-3.64 6.93-6.63 15.06-5.59 9.5 1.21 12.55 6.33 13.41 10.93.83.4 1.6 1.05 2.19 2.03.23.37 2.46.85 2.99 1.14 1.2.67 2.12 1.62 3.39 2.17.08.03.14.07.22.11.11-5.69-2.93-19.62-22.14-22.06z" fill="#435773"/><path d="m98.02 179.82c7.35-1.77 14.52 1.16 21.45 9.97 1.31 21.26 5.28 40.78 12.46 58.58 21.26-.84 75.16 12.91 85.37-2.87 4.89-7.55 7.99-23.89 2.09-38.85-16.14-51.15-92.92-57.06-121.37-26.83z" fill="#435773"/><path d="m196.91 198.03c-1.71-1.89-4.01-3.47-6.12-4.88-.19-.13-.4-.25-.6-.36-1.17-.37-2.26-.86-3.32-1.4-1.63-.54-3.28-.99-4.75-1.74-.68-.09-1.33-.31-1.94-.66l-.09-.07c-3.45-.4-7.35-1-10.56-2.38-2.12.08-4.28-.19-6.35-.57-.62-.11-1.15-.33-1.61-.61-.72-.05-1.42-.18-2.07-.41-.17.06-.33.13-.5.18l-.53.07c-.23.04-.47.08-.71.1-.21.03-.43.06-.64.09-.54 0-1.05-.07-1.56-.19l-4.58-.25c-5.78-.12-8.92.26-15.81.93-12.71 1.23-24.19 6.57-24.19 18.65 0 8.59-1.67 24.31 4.6 36.84 4.48 8.94 22.83 10.77 39.77 11.44 16.81.67 28.1-.11 33.21-3.91 3.44-2.55 7.47-6.76 8.51-11.16 4.14-17.44 3.66-23.4 3.72-24.37.08-1.23.27-2.52.59-3.8-.65-.63-1.13-1.4-1.33-2.23-.81-3.35-.69-6.61-3.14-9.31z" fill="#203756"/><path d="m223.3 122.76c-10.74-26.23-40.05-22.74-40.05-22.74s12.42 33.21 19.81 53.02c0 0-2.85.89-4.6 3.91-1.95 3.35-.56 9.63-.56 9.63l-8.23 3.21s-15.35-8.37-38.79-10.19c-21.64-1.67-43.17 5.94-54.37 20.23l8.19.11c7.51-7.22 24.78-10.31 44.32-9.18 0 0 6.27.58 6.28.58.28-.09 7.17.62 11.12 1.56 9.43 2.25 20.9 6.23 21.23 6.58.02.02 3.82 2.09 8.01 4.53 3.83 2.23 7.98 4.77 9.83 6.33 3.28 2.76 6.37 6.25 9.26 9.4.26.03.87 1.19 1.13 1.27.67.16 1.38-.88 1.88-.42.56.36.69 1.53 1.01 2.13.19.42.21.95.35 1.39.02.05.03.1.05.16.07.3.28.59.32.91.54 1 1.49 3.88 1.79 5.03 6.2-31.63 8.87-70.72 2.02-87.45z" fill="#203756"/><path d="m243.98 141.01c-1.28-9.2-2.02-14.07-5.33-19.83-11.12-19.35-33.63-25.24-57.49-25.42.84 1.46 1.47 3 2.06 4.6 1.55-.29 2.5-.3 4.08-.3 2.15 0 4.23.25 6.21.7 1.72.18 3.37.52 4.97.99 3.4.7 6.52 2.05 9.29 3.88.46.28.91.57 1.35.87 8.34 4.38 14.51 13 15.58 22.82 1.32 3.08 1.69 5.78 1.81 9.07.44 1.86 3.77 8.37-4.88 71.16-.22.17-.49.3-.78.42 2.25 3.77 2.47 9.25 2.38 13.36-.06 3.2-.68 6.35-.85 9.55-.14 2.5-1.38 5.04-2.01 7.52-1.12 4.43-2.69 6.27-5.63 9.22 8.67-.98 27.62-3.85 33.75-26.24 3.86-14.14-3.79-77.17-4.51-82.37z" fill="#3f70b7"/><path d="m190.34 207.84c-.28-.95-.68-1.88-.93-2.83-.24-.91-1.66-2.05.03-.92-1.19-.8-2.01-1.77-2.52-2.83-.44-.19-.83-.36-1.16-.5-2.23-.98-2.37-2.65-9.21-3.63l-4.74-1.26c-8.35-1.67-19.61-2.5-30.84-2.51-16.06-.01-28.74 4.23-29.16 16.47-.27 7.63-1.02 21.37 4.6 32.51 4.01 7.94 25.03 9.86 40.19 10.47 11.04.44 23.6-1.94 29.02-9.77 3.69-5.33 5.49-12.9 6-19.95l.47.68c-.51-2.6-.8-5.27-.81-8.25-.01-2.66-.19-5.13-.94-7.68z" fill="#3f70b7"/><path d="m100.99 188.3c-.42 0-.86 0-1.29 0-.61 0-1.2.21-1.63.59s-.68.89-.68 1.42v9.48c0 .53.24 1.04.68 1.42.43.38 1.02.59 1.63.59h1.29c.61 0 1.2-.21 1.63-.59s.68-.89.68-1.42c0-2.55 0-6.93 0-9.48 0-.53-.24-1.04-.68-1.42-.43-.38-1.02-.59-1.63-.59z" fill="#c8c19f"/><path d="m100.29 186.95c1.35 0 2.44-1.09 2.44-2.44s-1.09-2.44-2.44-2.44-2.44 1.09-2.44 2.44 1.1 2.44 2.44 2.44z" fill="#c8c19f"/><path d="m123.3 216.43c-.48-.38-1.12-.6-1.79-.6-.06 0-.13 0-.19 0-.67 0-1.31.21-1.79.6-.47.38-.74.9-.74 1.44v7.05c0 .54.27 1.06.74 1.44.48.38 1.12.6 1.79.6h.19c.67 0 1.31-.21 1.79-.6.47-.38.74-.9.74-1.44 0-2 0-5.04 0-7.05 0-.54-.27-1.06-.74-1.44z" fill="#c8c19f"/><path d="m121.39 214.81c1.21 0 2.19-.98 2.19-2.19s-.98-2.19-2.19-2.19-2.19.98-2.19 2.19.98 2.19 2.19 2.19z" fill="#c8c19f"/><path d="m134.3 209.04-1.99-.12c-.02 0-.03 0-.04 0-.66-.04-1.31-.08-1.95-.13-.28-.04-.51.19-.53.46-.02.28.19.51.46.53.66.04 1.32.09 2 .13h.04l1.95.12h.03c.26 0 .48-.21.5-.47.02-.27-.19-.5-.47-.52z" fill="#010101"/><path d="m140.29 209.35c-.67-.03-1.34-.06-2-.1-.01 0-.02 0-.03 0l-1.96-.1c-.27-.02-.51.2-.53.47s.2.51.47.53l2 .1h.03c.65.03 1.31.06 1.97.09h.02c.27 0 .49-.21.5-.48.02-.26-.2-.5-.47-.51z" fill="#010101"/><path d="m128.32 208.65c-.67-.05-1.34-.1-1.99-.15-.67-.05-1.34-.11-1.99-.17-.27-.01-.52.18-.54.45-.02.28.18.52.45.54.65.06 1.32.11 2 .17.65.05 1.32.11 2 .16h.04c.26 0 .48-.2.5-.46.01-.28-.19-.52-.47-.54z" fill="#010101"/><path d="m120.26 208.93c.65.07 1.32.14 1.99.21h.05c.25 0 .47-.19.5-.45.03-.27-.17-.52-.45-.55-.67-.07-1.34-.13-1.98-.2-.27-.03-.52.17-.55.44s.17.52.44.55z" fill="#010101"/><path d="m176.26 210.4-1.99-.04-2-.04h-.01c-.27 0-.49.22-.5.49-.01.28.21.5.49.51l2 .04 2 .04h.01c.27 0 .49-.22.5-.49-.01-.27-.23-.5-.5-.51z" fill="#010101"/><path d="m170.26 210.28-1.95-.04c-.01 0-.03 0-.04 0l-2-.04c-.28-.01-.5.21-.51.49s.21.5.49.51l1.95.04h.05l2 .04h.01c.27 0 .49-.22.5-.49 0-.28-.22-.5-.5-.51z" fill="#010101"/><path d="m164.26 210.14-2-.05c-.01 0-.02 0-.03 0l-1.97-.05c-.32 0-.51.21-.51.49-.01.28.21.51.49.51l2 .05h.03l1.97.05h.01c.27 0 .49-.22.5-.49s-.21-.5-.49-.51z" fill="#010101"/><path d="m179.33 210.46-1.07-.02h-.01c-.27 0-.5.22-.5.49 0 .28.21.5.49.51l1.07.02h.01c.27 0 .5-.22.5-.49.01-.27-.21-.5-.49-.51z" fill="#010101"/><path d="m158.27 209.99-2-.06-1.99-.06c-.26-.01-.51.21-.51.49-.01.28.21.51.49.51l2 .06h.01l1.99.06h.01c.27 0 .49-.21.5-.49-.01-.27-.23-.5-.5-.51z" fill="#010101"/><path d="m152.27 209.81-1.99-.07s0 0-.01 0l-2-.07c-.24.01-.51.21-.52.48s.21.51.48.52l1.99.07h.01l2 .07h.02c.27 0 .49-.21.5-.48.01-.28-.2-.51-.48-.52z" fill="#010101"/><path d="m146.28 209.6-1.99-.08-2-.08c-.01 0-.01 0-.02 0-.27 0-.49.21-.5.48-.01.28.2.51.48.52l1.99.08h.01l2 .08h.02c.27 0 .49-.21.5-.48 0-.27-.22-.51-.49-.52z" fill="#010101"/><path d="m122.92 215.33c.97-.53 1.63-1.55 1.63-2.73 0-1.73-1.41-3.14-3.14-3.14s-3.14 1.41-3.14 3.14c0 1.18.66 2.2 1.63 2.73-.32.16-.63.36-.89.62-.62.62-.96 1.45-.96 2.32v6.18c0 .87.35 1.71.96 2.32.61.62 1.45.96 2.32.96h.14c.87 0 1.71-.35 2.32-.96.62-.62.96-1.45.96-2.32v-6.18c0-.87-.35-1.71-.96-2.32-.25-.26-.55-.46-.87-.62zm-3.14-2.73c0-.9.73-1.64 1.64-1.64.9 0 1.64.73 1.64 1.64 0 .9-.73 1.64-1.64 1.64-.91-.01-1.64-.74-1.64-1.64zm3.48 11.85c0 .47-.19.93-.52 1.26s-.79.52-1.26.52c-.05 0-.09 0-.14 0-.47 0-.93-.19-1.26-.52s-.52-.79-.52-1.26c0-1.76 0-4.42 0-6.18 0-.47.19-.93.52-1.26s.79-.52 1.26-.52h.14c.47 0 .93.19 1.26.52s.52.79.52 1.26z" fill="#010101"/><path d="m251.35 200.25c-.97-23.78-4.89-55.86-5.39-59.52-1.32-9.54-2.14-14.57-5.58-20.55-3.08-5.37-7.04-9.66-11.65-13.08.14-3.44-.8-10.2-5.86-15.74-3.51-3.84-9.02-7.14-17.58-8.22-8.96-1.14-15.14 1.12-19.36 4.49-1.99 1.58-3.51 3.43-4.72 5.3l-9.26-24.59c-.14-.38-.43-.68-.8-.84s-.79-.17-1.17-.02l-34.4 13.92c-.07-.49-.26-1.05-.69-1.56-.57-.67-1.61-1.36-3.67-1.29-3.39.12-5.54 1.2-8.64 1.19-3.09-.01-6.13-1-9.08-1.61-3.02-.63-5.96-.88-8.76.2 0 0-24.67-23.97-24.67-23.97-.3-.3-.72-.45-1.14-.42s-.82.23-1.08.57l-15.11 19.2c-.27.35-.38.8-.29 1.23s.36.8.75 1.02c9.29 5.09 19.95 11.73 30.17 17.18-.06 5.78 1.04 10.17 2.59 13.49l21.77 56.96c-9.1 3.28-16.92 8.34-22.4 15.32-.35.45-.42 1.06-.17 1.57.25.52.76.84 1.33.85l2.26.03c-1.16.58-1.96 1.76-1.96 3.13 0 1.43.86 2.66 2.09 3.2-.52.15-1 .42-1.39.81-.62.61-.96 1.45-.96 2.32v8.43c0 .87.35 1.71.96 2.32.62.62 1.45.96 2.32.96h.99c.87 0 1.71-.35 2.32-.96.62-.62.96-1.45.96-2.32v-8.43c0-.87-.34-1.71-.96-2.32-.39-.39-.87-.66-1.39-.81 1.23-.55 2.09-1.77 2.09-3.2 0-1.34-.77-2.5-1.88-3.09l2.73.04c.26 0 .52-.07.74-.19 4.27 1.01 8.46 3.96 12.58 9.09-4.76 3.13-7.74 7.79-7.74 14.47 0 6.91-.1 20.2 2.53 30.56-.04-.25-.09-.55-.14-.88.67 2.67 1.6 5.34 2.9 7.92 1.75 3.47 6.28 6 12.25 7.65 8.31 2.31 19.44 3.11 28.64 3.47 1.97.08 3.95.06 5.92-.04 3.81.09 7.18.09 10.17-.03 9.16.9 18.26 1.47 25.96.95 3.45-.24 6.62-.71 9.42-1.46.63-.17 2.58-.42 2.95-.52.28-.08 2.06-.61 2.92-.7.93-.1 2.01-.22 3.22-.38 9.75-1.31 27.4-5.51 33.4-27.44 1.21-4.36 1.39-13.23.96-23.66zm-46.26-115.62c18.53 2.35 22.01 15.39 22.14 21.42-2.73-1.86-5.67-3.43-8.78-4.75-.85-4.62-3.88-9.78-13.42-11-7.78-.99-12.2 1.7-14.73 5.12-2.72-.16-5.48-.23-8.25-.24l-.18-.48c3.37-5.82 10.15-11.72 23.22-10.07zm11.68 16c-2.63-1.02-5.37-1.88-8.2-2.58-5.23-1.3-10.76-2.08-16.45-2.49.25-.29.52-.58.81-.85 2.42-2.24 6.17-3.64 11.9-2.91 5.5.7 8.65 2.78 10.38 5.32.77 1.13 1.25 2.33 1.56 3.51zm-45.85-30.72 31.24 82.92c-3.31 1.66-5.23 4.36-5.55 8.27l-31.48-84.42c-.07-.19-.18-.37-.32-.51.15-1.79 2.04-3.73 6.11-6.26zm49.9 136.24c-.64-2.03-1.39-3.98-2.21-5.87-.26-.14-.51-.3-.76-.49 0-.02 0-.04-.01-.06-3.55-12.7-13.44-22.77-26.3-29.73l5.96-2.26c.68-.26 1.06-.96.95-1.65 0-.08.01-.16-.01-.24-1.16-5.89.4-9.68 4.4-11.69.69-.34 1-1.15.73-1.87l-19.35-51.35c38.24.82 50.43 22.18 36.69 105.45-.04-.07-.06-.16-.09-.24zm-85.43-123.04 33.04-13.37c-2.64 1.8-4.74 3.77-5.07 6.03-.06.02-.12.03-.18.05l-38.84 15.72c-.58-.76-1.05-1.45-1.38-1.96 1.16-1.2 2.92-2.23 4.68-3.1 3.4-1.68 6.87-2.67 6.87-2.67.37-.11.69-.37.88-.7zm-38.24 22.44c-.01 0-.02-.01-.03-.01-1.44-3.26-2.42-7.59-2.24-13.29-10.46-5.53-21.43-12.39-30.97-17.61l15.11-19.18 25.4 24.68c5.58-2.85 11.76 1.09 18.15 1.12 3.11.01 5.28-1.07 8.7-1.19s2.82 2.29 2.82 2.29-9.99 2.87-12.98 7.08c0 0 4 6.99 9.35 9.27 5.68 2.43 6.31 3.4 5.94 4.64-2.59 3.5-6.46 3.35-9.85 2.2-.08-.08-.18-.15-.3-.18-.27-.06-.52-.15-.78-.23-1.9-.77-3.56-1.78-4.65-2.52-1.62-1.38-2.78-2.93-3.71-4.14.84 1.42 1.88 3.27 3.5 4.95 1.31 1.36 3 2.57 5.23 3.37.11.03.22.03.32.02 1.66 1.13.07 3.97-2.73 4.67-.11-.01-.22 0-.33.05-.09.04-.18.06-.28.07-.04.01-.08.01-.12.01-.34.02-.75-.08-1.22-.25-1.22-.45-2.71-1.38-4.25-2.59-2.8-2.2-5.73-5.26-7.52-8 1.58 2.91 4.29 6.24 6.93 8.68 1.69 1.57 3.36 2.75 4.71 3.28-.78 1.5-4.32 2.6-8.41.57-.03-.03-.05-.07-.09-.1-.92-.58-2.84-2.1-4.73-3.84-1.65-1.51-3.27-3.17-4.2-4.52.78 1.46 2.2 3.32 3.66 5.04.91 1.07 1.84 2.07 2.64 2.88-.16 1.75-2.54 2.63-5.14 1.48-1.67-.74-5.38-3.1-7.84-8.44zm2.51 6.56c1.9 2 3.77 3.07 4.84 3.54 2.72 1.2 5.25.56 6.41-.76.18-.21.35-.44.48-.69 4.25 2.51 8.21 1.9 10.06.65.72-.49 1.19-1.08 1.43-1.7 2.67-.29 4.7-2.17 5.27-3.87.2-.59.25-1.16.16-1.7 3.36.63 6.81.03 9.3-3.32.11-.14.19-.3.24-.47.18-.61.2-1.19.01-1.78-.16-.51-.5-1.06-1.19-1.65-.88-.75-2.57-1.7-5.62-3-2.25-.96-4.24-2.83-5.74-4.58l38.13-15.43c.1.18.27.31.46.36l33.06 88.66-7.21 2.73c-8.34-4.24-17.83-7.21-27.6-8.78-14.74-2.37-30.08-1.54-43.02 2.8zm2.4 77.46c.33.33.52.79.52 1.26v8.43c0 .47-.19.93-.52 1.26s-.79.52-1.26.52c-.33 0-.67 0-.99 0-.47 0-.93-.19-1.26-.52s-.52-.79-.52-1.26c0-2.27 0-6.16 0-8.43 0-.47.19-.93.52-1.26s.79-.52 1.26-.52h.99c.47 0 .93.19 1.26.52zm.26-5.07c0 1.11-.9 2.01-2.01 2.01s-2.01-.9-2.01-2.01.9-2.01 2.01-2.01 2.01.89 2.01 2.01zm2.37-4.56-8.19-.11c26.28-33.51 108.22-21.4 119.89 20.3-28.24-35.64-94.89-36.35-111.7-20.19zm51.81 72.1c-15.16-.6-35.6-2.36-39.61-10.3-5.62-11.14-4.29-23.94-4.03-31.57.43-12.23 12.91-16.02 28.97-16 18.86.02 37.56 3.05 42.99 6.85 5.42 3.79 5.82 8.91 6.21 15.97.49 8.87-1.55 18.64-6.3 25.5-5.43 7.83-17.19 9.99-28.23 9.55zm15.97-.06c-.03 0-.06-.01-.09-.01 5.66-1.54 10.55-4.26 13.57-8.63 4.92-7.11 7.07-17.23 6.56-26.43-.42-7.59-1.01-13.04-6.84-17.12-1.73-1.21-4.72-2.38-8.6-3.38-8.64-2.22-21.9-3.73-35.25-3.74-8.29-.01-15.65 1-20.99 3.56-4.82 2.3-8.07 5.82-9.12 10.91.02-.81.04-1.58.04-2.31 0-12.08 10.59-16.87 23.31-18.1 40.87-3.96 62.17 7.24 64.15 17.57 1.7 8.87 1.18 19.78-2.68 33.25-1.25 4.34-4.07 7.9-7.51 10.46-3.37 2.47-8.58 3.65-16.55 3.97zm8.26.7c.06-.01.13-.02.19-.03 3.88-.7 6.79-1.83 9-3.47 3.7-2.75 6.72-6.58 8.06-11.25 3.94-13.75 4.45-24.89 2.71-33.94-.86-4.46-4.93-9.19-12.49-12.85-10.65-5.16-28.38-8.34-53.28-5.93-5.92.57-11.38 1.93-15.64 4.34-4.07-5.11-8.23-8.18-12.45-9.48 6.95-5.69 20.62-8.86 36.31-8.77 25.12.13 55.42 8.73 72.09 29.76.44.56 1.22.73 1.86.4.12-.06.21-.15.31-.23.75 1.75 1.43 3.55 2.02 5.42 5.9 14.96 2.8 31.29-2.09 38.85-4.93 7.59-19.96 8.35-36.6 7.18zm67.75-29.3c-5.95 21.74-24 25.07-32.98 26.15 1.24-.92 2.28-1.99 3.07-3.21 4.58-7.08 7.67-21.6 3.69-35.77.04-.29.08-.59.13-.87 6.26-36.93 7.58-62.11 4.07-78.92-2.45-11.7-7.23-19.47-14.22-24.44-7.15-5.08-16.74-7.17-28.78-7.35l-.67-1.78c23.06.21 45.04 5.2 55.84 23.99 3.31 5.77 4.05 10.63 5.33 19.83.74 5.2 8.39 68.23 4.52 82.37z" fill="#010101"/></g></svg>