<?xml version="1.0" encoding="utf-8"?>
<!-- Generator: Adobe Illustrator 23.1.0, SVG Export Plug-In . SVG Version: 6.00 Build 0)  -->
<svg version="1.1" id="Слой_1" xmlns="http://www.w3.org/2000/svg" xmlns:xlink="http://www.w3.org/1999/xlink" x="0px" y="0px"
	 viewBox="0 0 283.5 283.5" style="enable-background:new 0 0 283.5 283.5;" xml:space="preserve">
<style type="text/css">
	.st0{fill:#FFDC4D;}
	.st1{fill:#5FBA46;}
	.st2{fill:#CA4B27;}
	.st3{fill:#231F20;}
	.st4{fill:#FFDEA8;}
	.st5{fill:#FFFFFF;}
	.st6{fill:#E81E25;}
	.st7{fill:#F26E21;}
	.st8{fill:#426FB5;}
	.st9{fill:#A0CC3A;}
	.st10{fill:#FDEA05;}
	.st11{fill:#B24F9C;}
	.st12{fill:#F6F2A6;}
	.st13{fill:#273E96;}
	.st14{fill:#ED3243;}
</style>
<g>
	<path class="st0" d="M128,98.5l7.2,27.8c0,0,8.1-14.1,1.8-27.5C130.7,85.4,128,98.5,128,98.5z"/>
	<g>
		<path class="st1" d="M156.8,180.7c0-4.2-3.1-7.7-7.1-8.3c0.2-0.8,0.4-1.6,0.4-2.5c0-4.6-3.8-8.4-8.4-8.4c-1.1,0-2.1,0.2-3.1,0.6
			c-0.8-0.2-1.6-0.4-2.5-0.4c-4.6,0-8.4,3.8-8.4,8.4c0,0.8,0.1,1.6,0.4,2.4c-4.2,0.4-7.5,4-7.5,8.4c0,3.1,1.7,5.8,4.1,7.2
			c-0.3,0.9-0.5,1.9-0.5,2.9c0,4.6,3.8,8.4,8.4,8.4c2.6,0,4.9-1.2,6.4-3c1.5,1.9,3.9,3.2,6.6,3.2c4.6,0,8.4-3.8,8.4-8.4
			c0-1.3-0.3-2.5-0.8-3.6C155.4,186.2,156.8,183.6,156.8,180.7z"/>
		<path class="st2" d="M142.3,187.6c0.5-0.3,1-0.8,1.5-1.6c1.4-2.1,3.3-3.1,2.9-3.8c-0.4-0.7-2.5,0-4.7,1.4
			c-0.1,0.1-0.3,0.2-0.4,0.3l-0.3-1.7c0-0.3,0.1-0.5,0.1-0.8c0.5-3.8,0.3-8.6-0.4-8.4c-1.3,0.3-3.2,7.1-3.8,11.2
			c-0.2-0.2-0.5-0.5-0.8-0.7c-2-1.6-4-2.4-4.5-1.8c-0.5,0.6,1,2.2,2.7,4c1,1.1,2,1.8,2.7,2.2c-1.6,8.3-3,23.3-2.7,23.2
			c0.6,1,8.1,1.7,10.1-0.1L142.3,187.6z"/>
		<path class="st3" d="M157.7,180.7c0-4.3-2.9-7.9-6.9-9c0.1-0.6,0.2-1.2,0.2-1.8c0-5.1-4.2-9.3-9.3-9.3c-1.1,0-2.1,0.2-3.2,0.6
			c-0.8-0.2-1.6-0.3-2.5-0.3c-5.1,0-9.3,4.2-9.3,9.3c0,0.6,0.1,1.1,0.2,1.7c-4.2,0.9-7.3,4.7-7.3,9.1c0,3.1,1.5,5.9,3.9,7.6
			c-0.2,0.8-0.3,1.7-0.3,2.5c0,5.1,4.2,9.3,9.3,9.3c0.7,0,1.4-0.1,2.1-0.2c-0.1,0.8-0.2,1.5-0.3,2.3c-0.2,2.2-0.5,4.4-0.6,6.1
			c-0.2,2.8-0.2,2.9,0.1,3.2c0,0,0,0,0.1,0.1c1.1,1.3,5.4,1.3,5.9,1.3c1.8,0,4.3-0.2,5.5-1.3c0.2-0.2,0.3-0.5,0.3-0.8l-1.1-10.4
			c0.3,0,0.7,0.1,1,0.1c5.1,0,9.3-4.2,9.3-9.3c0-1.1-0.2-2.2-0.6-3.3C156.4,186.3,157.7,183.6,157.7,180.7z M139.8,212.2
			c-2.5,0-4.9-0.5-5.2-1c0,0,0,0,0,0c-0.3,0,1.1-14.9,2.8-23.2c-0.7-0.4-1.7-1.1-2.7-2.2c-1.8-1.9-3.2-3.4-2.7-4
			c0.1-0.1,0.3-0.2,0.6-0.2c0.9,0,2.4,0.8,4,2c0.3,0.2,0.6,0.5,0.8,0.7c0.7-4,2.5-10.9,3.8-11.2c0,0,0,0,0,0c0.6,0,0.8,4.7,0.3,8.4
			c0,0.3-0.1,0.6-0.1,0.8l0.3,1.7c0.1-0.1,0.3-0.2,0.4-0.3c1.6-1,3.1-1.7,4-1.7c0.3,0,0.6,0.1,0.7,0.3c0.4,0.7-1.5,1.6-2.9,3.8
			c-0.5,0.7-1,1.2-1.5,1.6l2.4,23.4C143.7,211.9,141.7,212.2,139.8,212.2z M153.1,187.7c0.5,1.1,0.8,2.3,0.8,3.6
			c0,4.6-3.8,8.4-8.4,8.4c-0.4,0-0.7,0-1.1-0.1l-1.2-11.6c0.5-0.4,0.9-0.9,1.3-1.5c0.6-0.9,1.3-1.6,1.9-2.1c0.8-0.8,1.7-1.6,1-2.6
			c-0.2-0.3-0.6-0.7-1.4-0.7c-1,0-2.3,0.5-3.8,1.4l-0.1-0.3c0-0.2,0.1-0.5,0.1-0.7c0.3-2.5,0.5-7.9-0.4-9c-0.2-0.2-0.5-0.4-0.8-0.4
			h0c-0.1,0-0.2,0-0.2,0c-0.7,0.2-1.6,0.9-2.8,4.8c-0.5,1.7-1,3.7-1.4,5.6c-1.3-1-3-1.9-4.2-1.9c-0.7,0-1.1,0.3-1.3,0.5
			c-1,1.2,0.5,2.8,2.7,5.2l0,0c0.8,0.9,1.6,1.6,2.4,2.1c-0.5,2.8-1.1,6.6-1.6,10.8c-0.7,0.2-1.4,0.3-2.2,0.3c-4.6,0-8.4-3.8-8.4-8.4
			c0-1,0.2-2,0.5-2.9c-2.5-1.5-4.1-4.1-4.1-7.2c0-4.4,3.3-7.9,7.5-8.4c-0.2-0.8-0.4-1.6-0.4-2.4c0-4.6,3.8-8.4,8.4-8.4
			c0.9,0,1.7,0.1,2.5,0.4c1-0.4,2-0.6,3.1-0.6c4.6,0,8.4,3.8,8.4,8.4c0,0.9-0.1,1.7-0.4,2.5c4,0.6,7.1,4.1,7.1,8.3
			C156.8,183.6,155.4,186.2,153.1,187.7z"/>
	</g>
	<g>
		<path class="st0" d="M138.8,89.9c-14.8-32.1-62.9-49-76.7-23.1c1.1-4.4,2.8-15.8-3-15.4c-5.9,0.4-2.8,9.3-0.3,14.3
			c-4.6-3.5-10.3-8.2-12-4.3c-2,4.6,3.5,5.6,8.5,7.1c-5.3,0.1-14.7,3.2-22.5,21.6c-8.4,19.8-5.3,35.8,2.1,48.8
			c9.6,16.8,16,16.5,16,16.5c-1.5-2.1-5.6-14.1-5.3-21c0,0-4.8,6.3-14.7-11.1c-4.6-8.2-2.7-26.3,10.2-15c0,0,9.3,16.5,19.8-9
			c1.6-4,4.9-12.3,6.1-18.4c7,8.1,20.4,19,44.5,22.9c10.6,1.7,4.2-6.6,4.2-6.6S154.3,123.6,138.8,89.9z"/>
		<path class="st4" d="M133.5,106.8c-4.7-1-11.5-4.4-15.5-7.4c-0.3,1.1,0.8,3.6-0.5,4.3c-4.5,2.5-9.6-0.1-14.3-0.9
			c-0.9-0.2-5.6-1.6-7-2.1c-0.8-0.3-1.5-0.1-2-0.6c-0.3-0.1-1-0.6-1.3-0.7c-0.7-0.2-1.3-0.4-2-0.7c-2.7-1-8-4-8.3-4.3
			c-0.5-0.2-1-0.5-1.5-0.8c-0.2-0.1-0.5-0.7-0.7-0.8c0,0-9.7-7.1-10.9-8.2c-0.7-0.6-1.2-1.2-1.5-2c0,0,0,0,0,0c-0.1,0-0.3,0-0.4,0
			c-0.1,0.5-0.3,1-0.5,1.5c0,0,0,0.1,0,0.1l0,0c-0.1,0.4-0.3,0.8-0.5,1.2c0,0.1-0.1,0.2-0.1,0.3c-0.7,2.1-1.4,4.2-2.4,6.2
			c-0.5,2-1.2,4-2,5.9c-1.3,3.2-2.7,6.6-4.7,9.4c-0.4,0.6-0.3,1.4-0.8,1.7c-0.8,1.1-1.6,2-2.7,2.9c-1.9,1.5-3.7,2.9-6.2,2.2
			c-2-0.5-3.9-1.3-4.8-2.9c-0.5-0.5-3.3-3.3-3.7-3.9c0,0.2-5.3-4.5-8.3-0.7c-2.7,3.4-3.6,11.5,2.1,19.3c1.9,2.5,8.4,13.6,13.1,7.4
			c-0.3,5.1,1,17,10.1,28.3c1.1,1.4,2.3,2.7,3.5,3.8l-2.3,17.9l28.7,5.7l1.7-12.1c3.1,0.1,5.5-0.2,6.6-0.4
			c42.4-7.9,40.3-55.8,40.3-56.1C134.9,120,135.2,114.2,133.5,106.8z"/>
		<path d="M113.2,133.7c-2.3-0.9-6-0.4-9,3c-0.1,0.1-0.1,0.2-0.1,0.4c0,0.1,0.1,0.3,0.2,0.4s0.3,0.1,0.4,0.1c0.1,0,0.3-0.1,0.4-0.2
			c2.6-3,5.8-3.5,7.8-2.7c1.6,0.6,2.4,2.1,2.4,4.1c0,0.3,0.2,0.6,0.5,0.6l0,0c0.3,0,0.5-0.2,0.5-0.5
			C116.3,136.4,115.2,134.5,113.2,133.7z"/>
		<g>
			<path class="st5" d="M95,148.7c0,0,3.2,5.6,12.9,6.9c6.8,0.9,11.4-3.9,11.4-3.9s-5.2,9.6-11.7,9.1C97.3,159.8,95,148.7,95,148.7z
				"/>
			<path d="M119.2,150.7L119.2,150.7c-0.2,0-0.4,0.1-0.5,0.1c-0.1,0-0.1,0.1-0.2,0.2c0,0-3.7,3.7-9,3.7c-0.5,0-1,0-1.5-0.1
				c-9-1.2-12.1-6.3-12.1-6.4c-0.2-0.4-0.8-0.6-1.2-0.4c-0.5,0.2-0.7,0.6-0.6,1.1c0,0.1,0.6,3,2.6,6c2.6,4.1,6.3,6.4,10.8,6.8
				c0.2,0,0.5,0,0.7,0c2.8,0,5.6-1.5,8.3-4.5c2.1-2.3,3.4-4.6,3.6-5.1c0.1-0.2,0.1-0.3,0.1-0.5C120.2,151.1,119.8,150.7,119.2,150.7
				z M118.9,152.2c-1.2,1.9-5.5,8.5-10.7,8.5c-0.2,0-0.4,0-0.6,0c-8.8-0.8-11.7-9.3-12.3-11.5c1,1.4,4.6,5.4,12.6,6.5
				c0.6,0.1,1.1,0.1,1.7,0.1C114.2,155.8,117.7,153.2,118.9,152.2z"/>
		</g>
		<g>
			<path d="M104.7,109.9c-2.7-0.7-10.5-0.7-14.9,2.1c-0.1,0.1-0.2,0.2-0.3,0.4c0,0.2,0,0.3,0.1,0.5c0.1,0.2,0.3,0.3,0.5,0.3
				c0.1,0,0.2,0,0.3-0.1c4.2-2.6,11.6-2.6,13.9-1.9c0.2,0,0.3,0,0.5-0.1c0.1-0.1,0.3-0.2,0.3-0.4c0-0.2,0-0.3-0.1-0.5
				C105,110.1,104.9,110,104.7,109.9z"/>
			<path d="M130.8,117c-1.8-2.5-3.8-4.6-8.9-4.8c-0.4,0-0.6,0.3-0.7,0.6c0,0.4,0.3,0.6,0.6,0.7c4.6,0.1,6.1,1.8,7.9,4.2
				c0.1,0.2,0.3,0.3,0.5,0.3c0.1,0,0.3,0,0.4-0.1c0.1-0.1,0.2-0.2,0.3-0.4C130.9,117.3,130.9,117.2,130.8,117z"/>
		</g>
		<g>
			<path d="M104.7,119.9c-5.1-0.3-12.1-0.2-17.2,1.5l-0.1,0c-0.3,0.1-0.5,0.4-0.4,0.7c0,0.2,0.2,0.3,0.3,0.3c0.1,0.1,0.3,0.1,0.5,0
				l0.1,0c4.7-1.6,11.3-1.7,16.1-1.5c-0.1,0.8-0.5,2.1-1.2,3.4c-0.2-1-1.3-1.7-2.5-1.7c-1.4,0-2.6,1-2.6,2.1c0,0.5,0.2,1,0.6,1.4
				c-1.4,0.1-2.8,0.1-3.6,0c-0.3,0-0.6,0.2-0.7,0.5c0,0.2,0,0.3,0.1,0.4c0.1,0.1,0.2,0.2,0.4,0.2c0.4,0,0.9,0.1,1.5,0.1
				c2.3,0,5.8-0.3,5.8-0.3c0.1,0,0.3-0.1,0.4-0.2c2.6-2.6,3-6.4,3-6.6c0-0.2,0-0.3-0.1-0.4C105,120,104.9,120,104.7,119.9z"/>
			<path d="M127.7,124.6c-0.1-0.1-1.6-1.8-7.2-2c-0.2,0-0.3,0-0.4,0.2c-0.1,0.1-0.2,0.3-0.2,0.4c0,0.2,0,0.3,0.2,0.4
				s0.3,0.2,0.4,0.2c3.7,0.2,5.4,1,6,1.4l-0.7,1.3c-0.4-0.8-1.3-1.3-2.4-1.3c-1.4,0-2.6,1-2.6,2.1c0,0.5,0.2,1,0.6,1.4l-2.9-0.4
				c-0.2,0-0.3,0-0.4,0.1c-0.1,0.1-0.2,0.2-0.2,0.4c0,0.2,0,0.3,0.1,0.4c0.1,0.1,0.2,0.2,0.4,0.2l6.3,0.9c0,0,0.1,0,0.1,0
				c0.2,0,0.4-0.1,0.5-0.3l2.5-4.7C127.8,125,127.8,124.8,127.7,124.6z"/>
		</g>
		<path class="st3" d="M124.3,214.5c-0.2,0-0.4-0.1-0.4-0.3l-31-83.9c-0.1-0.2,0-0.5,0.3-0.6c0.2-0.1,0.5,0,0.6,0.3l31,83.9
			c0.1,0.2,0,0.5-0.3,0.6C124.4,214.5,124.3,214.5,124.3,214.5z"/>
		<path class="st3" d="M245,172.3c0,0-0.1,0-0.1,0l-140.7-44.9c-0.2-0.1-0.4-0.3-0.3-0.6c0.1-0.2,0.3-0.4,0.6-0.3l140.7,44.9
			c0.2,0.1,0.4,0.3,0.3,0.6C245.4,172.2,245.2,172.3,245,172.3z"/>
		<path class="st4" d="M33.9,162.7c-0.6-0.8,17.9-15.4,24.6-20s20.3-13.6,28.3-15.7c2.1-0.6,5.3,2.5,1.8,4.4
			c-1.1,0.6-8.7,5.9-8.7,5.9s5.2,2.6,2.4,6.2c0,0,2.2,1.3,2.8,3.3c0.8,2.5-0.9,3.8-0.9,3.8s2.6,1.7,2.4,4.2
			c-0.2,2.5-1.2,3.9-6.9,7.3c-6,3.6-16.1,8.2-19.8,7c0,0-5.7,8.5-8.2,11.1C51.7,180.1,42,173.5,33.9,162.7z"/>
		<g>
			<path d="M43.8,124.7c-0.6,0-1,0.1-1.3,0.3c-0.4,0.4-0.4,0.9-0.5,1.5c0,0.8-0.1,1.5-1.2,1.9c-0.6,0.2-1.5-0.1-2.4-0.9
				c-2.7-2.1-5.5-7.1-5.3-12.2c0.1-1.8,0.6-2.9,1.5-3.4c1.9-1,5,1,5,1c0.2,0.1,0.5,0.1,0.6-0.1c0.1-0.2,0.1-0.5-0.1-0.6
				c-0.1-0.1-3.6-2.2-5.9-1c-1.2,0.6-1.9,2-2,4.2c-0.2,5.4,2.7,10.7,5.6,13c0.9,0.7,1.8,1.1,2.6,1.1c0.2,0,0.4,0,0.6-0.1
				c1.7-0.5,1.8-1.8,1.8-2.7c0-0.4,0-0.7,0.2-0.9c0.1-0.1,0.3-0.1,0.6-0.1c2,0.1,2.2,0.8,2.2,0.8c0,0,0,0,0,0c0,0.2,0.3,0.4,0.5,0.4
				c0.2,0,0.4-0.3,0.4-0.5C46.8,126.2,46.6,124.9,43.8,124.7z"/>
			<path d="M37.2,117.7c-0.8-0.8-0.5-2.5-0.5-2.5c0-0.2-0.1-0.5-0.4-0.5c-0.2,0-0.5,0.1-0.5,0.4c0,0.1-0.3,2.1,0.8,3.3
				c0.5,0.5,1.1,0.8,1.9,0.8c0.7,0,1.3,0.1,1.6,0.5c0.5,0.6,0.5,1.6,0.4,2.3c0,0.2,0.2,0.5,0.4,0.5c0,0,0,0,0,0
				c0.2,0,0.4-0.2,0.4-0.4c0.1-0.9,0.2-2.2-0.6-3c-0.5-0.5-1.3-0.8-2.3-0.8C37.9,118.1,37.5,118,37.2,117.7z"/>
			<path d="M139.6,89.5c-4.6-10-12.9-19.2-23.3-25.9c-9.9-6.3-21-9.9-30.7-9.9c-9.9,0-17.5,3.6-22.2,10.2c0.1-0.4,0.1-0.8,0.2-1.2
				c0.6-4.7,0.4-8-0.7-10c-0.8-1.4-2-2.1-3.5-2.1c-0.1,0-0.2,0-0.4,0c-2.1,0.2-3.1,1.2-3.5,2.1c-1.4,2.7,0.2,7.4,2,11.2
				c-2.4-2.2-5.5-4.4-7.9-4.4c-1.3,0-2.3,0.6-3,1.8c-0.9,1.6-0.5,2.8-0.1,3.6c1.1,1.9,4.3,3,7.4,3.5c-3.3,0.3-6.6,1.6-9.6,3.9
				c-4.7,3.6-8.9,9.5-12.3,17.5c-4,9.4-5.6,18.6-4.9,27.3c0.6,7.6,3,15,7.1,22.2c3.8,6.6,7.1,10.7,9.8,13.1
				c-0.3,0.2-0.5,0.4-0.8,0.6c-10,8.1-10.2,8.9-10.2,9.3c0,0.3,0,0.5,0.2,0.8c8.1,10.8,17.9,17.6,18,17.6c0.2,0.1,0.3,0.2,0.5,0.2
				c0.2,0,0.5-0.1,0.6-0.3c1.4-1.4,3.6-4.4,5.4-6.9l-1.2,9.1c-0.1,0.5,0.3,0.9,0.7,1l28.7,5.7c0.1,0,0.1,0,0.2,0
				c0.2,0,0.4-0.1,0.5-0.2c0.2-0.1,0.3-0.4,0.4-0.6l1.5-11.4c0,0,0,0,0,0c3.1,0,5.2-0.3,6-0.5c9.7-1.8,17.9-5.9,24.3-12.1
				c5.2-5,9.2-11.4,12-19c2.4-6.4,3.5-12.7,4-17.5l0.1,0.2l1.1-1.9c0.1-0.1,2.1-3.7,3.3-9c0.7-2.8,1.2-6.4,0.8-10.3
				c1-0.4,1.8-1,2.3-1.8C144.3,103,143.4,97.6,139.6,89.5z M59.1,51.4c0.1,0,0.2,0,0.3,0c4.9,0,3.7,9.4,2.7,14.4
				c-0.4,0.8-0.9,1.6-1.2,2.4C59,65,51.9,52,59.1,51.4z M47.4,61.7c0.5-1,1.3-1.4,2.2-1.4c2.8,0,6.9,3.6,9.1,6
				c0.4,0.7,0.7,1.3,1,1.8C56.7,68,44.6,67.1,47.4,61.7z M35,138.9c-7.4-13-10.5-29-2.1-48.8c7.6-17.8,16.9-21,22.6-21
				c2.4,0,4.2,0.6,4.8,0.8c-0.1,0.3-0.2,0.7-0.3,1l-0.1,0.3l0.1,0.3c0.1,0.2,2,4.7,7,10.5c-1.4,6-4.3,13.6-5.9,17.3
				c-4.6,11.1-8.9,14.2-12.3,14.2c-4.5,0-7.4-5.2-7.4-5.2c-2.9-2.6-5.3-3.6-7.1-3.6c-6.3,0-6.6,12.3-3.1,18.6
				c5.7,10.1,9.7,12.2,12.1,12.2c1.7,0,2.6-1.1,2.6-1.1c-0.2,4.1,1.2,10,2.6,14.6c-1.2,0.9-2.4,1.9-3.7,2.9
				C42.1,149.6,38.8,145.6,35,138.9z M51.7,180.1c0,0-9.7-6.7-17.8-17.4c-0.6-0.8,17.9-15.4,24.6-20c6.7-4.6,20.3-13.6,28.3-15.7
				c0.2,0,0.4-0.1,0.5-0.1c2.1,0,4.5,2.7,1.3,4.4c-0.9,0.5-6.6,4.5-8.3,5.6c-0.1,0-0.1,0-0.2,0c-0.1,0-2.6,0.9-4.4,2
				c-0.2,0.1-0.3,0.4-0.1,0.6c0.1,0.1,0.2,0.2,0.4,0.2c0.1,0,0.2,0,0.2-0.1c1.7-1.1,4.2-1.9,4.2-1.9c0.1,0,0.1-0.1,0.2-0.1
				c1.3,0.8,3.6,2.8,2,5.4c-0.2,0.1-3.9,1.4-5.4,2.4c-0.2,0.1-0.2,0.4-0.1,0.6c0.1,0.1,0.2,0.2,0.4,0.2c0.1,0,0.2,0,0.3-0.1
				c1.4-1,5.1-2.3,5.1-2.3c0,0,0,0,0,0c0.7,0.5,1.8,1.5,2.2,2.9c0.6,1.8-0.2,3-0.6,3.5c-0.6,0.2-3.3,1.3-4.5,2
				c-0.2,0.1-0.3,0.4-0.2,0.6c0.1,0.1,0.2,0.2,0.4,0.2c0.1,0,0.2,0,0.2-0.1c1.2-0.7,4.2-1.8,4.5-2c0.8,0.7,1.9,2,1.8,3.7
				c-0.2,2.5-1.2,3.9-6.9,7.3c-4.6,2.8-11.6,6.1-16.3,7c-0.3,0-2,0.2-3.5,0.1C59.9,169.1,54.2,177.6,51.7,180.1z M86.1,188.8
				l-28.7-5.7l1.4-10.8c0.6-0.9,1.2-1.7,1.5-2.2c0.3,0,0.6,0.1,1,0.1c0.8,0,1.6-0.1,2.6-0.3c8.7,6.2,17.9,7.5,23.8,7.7L86.1,188.8z
				 M134.2,125.8C134.2,125.8,134.2,125.8,134.2,125.8L134.2,125.8c-1,13.6-6.8,44.2-39.7,50.4c-1,0.2-3.1,0.5-5.8,0.5
				c-5.9,0-15-1.2-23.5-7.1c4.9-1.3,11.3-4.5,15.1-6.8c5.7-3.4,7.1-5,7.3-8c0.2-2-1.1-3.6-2-4.4c0.5-0.8,1-2.1,0.5-3.9
				c-0.5-1.5-1.7-2.6-2.5-3.3c0.5-0.9,0.6-1.8,0.4-2.7c-0.3-1.5-1.5-2.6-2.4-3.3c3-2.1,6.9-4.8,7.5-5.1c2.3-1.2,2.1-2.8,2-3.4
				c-0.4-1.5-2-2.7-3.7-2.7c-0.3,0-0.5,0-0.8,0.1c-7.5,2-19.7,9.7-28.6,15.9c-2,1.4-5.3,3.8-8.8,6.6c-1.4-4.4-2.7-10-2.5-14l0.1-2.9
				l-1.7,2.3c0,0-0.6,0.8-1.8,0.8c-1.7,0-5.5-1.5-11.3-11.7c-2.5-4.4-2.9-11.7-0.9-15.3c0.8-1.3,1.8-2,3.1-2c1.7,0,3.9,1.1,6.4,3.3
				c0.5,0.9,3.6,5.6,8.1,5.6c4.7,0,9.1-5,13.2-14.8c1.5-3.5,4.3-10.8,5.8-16.8c0.9,0.9,1.8,1.9,2.8,2.9c4.5,4.3,9.8,8,15.8,11.1
				c7.4,3.8,15.9,6.4,25.2,7.9c1,0.2,1.9,0.2,2.7,0.2c2.2,0,3.6-0.6,4.2-1.9c0.5-1,0.3-2.1,0-3.2c3.5,2.2,9.6,5.6,14.8,7.2
				c1.5,7.1,1.4,12.2,1.3,12.3C134.3,119.6,134.4,122,134.2,125.8z M135.2,126.4l-0.1-0.6c0.2-3.1,0.2-5.3,0.1-6.2c0,0,0,0,0,0
				c0.1-0.8,0.1-5.7-1.2-12.1c1.3,0.3,2.6,0.5,3.7,0.5c0.6,0,1.1,0,1.6-0.1C140.1,117.9,135.2,126.4,135.2,126.4z M137.7,107.1
				c-7.7,0-22-9.7-22-9.7s5.3,6.8-1.6,6.8c-0.7,0-1.6-0.1-2.6-0.2c-40.2-6.5-50.9-32.6-50.9-32.6c3.8-11.7,13.5-16.8,24.9-16.8
				c19.3,0,43.6,14.3,53.2,35.3C144.9,103.1,142.7,107.1,137.7,107.1z"/>
		</g>
	</g>
	<g>
		<path class="st6" d="M197.5,208.8h-30.2c-0.6,0-1.1-0.5-1.1-1.1v-4.4c0-0.6,0.5-1.1,1.1-1.1h30.2c0.6,0,1.1,0.5,1.1,1.1v4.4
			C198.6,208.3,198.1,208.8,197.5,208.8z"/>
		<path class="st7" d="M195.4,201.8h-26c-0.6,0-1.1-0.5-1.1-1.1v-4.4c0-0.6,0.5-1.1,1.1-1.1h26c0.6,0,1.1,0.5,1.1,1.1v4.4
			C196.5,201.3,196,201.8,195.4,201.8z"/>
		<path class="st8" d="M192.1,194.8h-19.5c-0.6,0-1.1-0.5-1.1-1.1v-4.4c0-0.6,0.5-1.1,1.1-1.1h19.5c0.6,0,1.1,0.5,1.1,1.1v4.4
			C193.2,194.3,192.7,194.8,192.1,194.8z"/>
		<path class="st9" d="M189.9,187.9H175c-0.6,0-1.1-0.5-1.1-1.1v-4.4c0-0.6,0.5-1.1,1.1-1.1h14.9c0.6,0,1.1,0.5,1.1,1.1l0,4.4
			C191,187.4,190.5,187.9,189.9,187.9z"/>
		<path class="st10" d="M185.2,171.2c0,2.7-2.9,6-2.9,6s-2.6-3.2-2.6-5.9c0-2.7,1.2-3.8,2.6-3.8S185.2,168.5,185.2,171.2z"/>
		<path class="st11" d="M187.9,181.1h-11c-0.6,0-1.1-0.5-1.1-1.1v-4.4c0-0.6,0.5-1.1,1.1-1.1h11c0.6,0,1.1,0.5,1.1,1.1v4.4
			C189,180.7,188.5,181.1,187.9,181.1z"/>
		<path class="st3" d="M196.2,201.4c0.8-0.8,1.2-1.8,1.2-2.9c0-2.3-1.9-4.2-4.2-4.2H193c0.7-0.7,1.1-1.7,1.1-2.8
			c0-2-1.4-3.7-3.3-4.1c0.7-0.7,1.1-1.7,1.1-2.8c0-1.9-1.3-3.5-3-4c0.6-0.7,1-1.7,1-2.7c0-2.3-1.9-4.2-4.2-4.2h-0.2
			c0.3-0.8,0.5-1.6,0.5-2.4c0-3.4-2-4.6-3.8-4.6c-1.7,0-3.5,1.2-3.5,4.7c0,0.8,0.2,1.6,0.5,2.3h-0.1c-2.3,0-4.2,1.9-4.2,4.2
			c0,1,0.4,2,1,2.7c-1.7,0.5-3,2.1-3,4c0,1.1,0.4,2,1.1,2.8c-1.9,0.4-3.3,2.1-3.3,4.1c0,1.1,0.4,2.1,1.1,2.8h-0.2
			c-2.3,0-4.2,1.9-4.2,4.2c0,1.1,0.5,2.2,1.2,2.9c-1.9,0.4-3.3,2.1-3.3,4.1c0,2.3,1.9,4.2,4.2,4.2h25.7c2.3,0,4.2-1.9,4.2-4.2
			C199.5,203.5,198.1,201.8,196.2,201.4z M179.6,171.3c0-2.7,1.2-3.8,2.6-3.8c1.5,0,2.9,1,2.9,3.7c0,0.8-0.3,1.6-0.6,2.4h-4.4
			C179.9,172.9,179.6,172.1,179.6,171.3z M175.8,177.8c0-1.8,1.5-3.3,3.3-3.3h6.6c1.8,0,3.3,1.5,3.3,3.3s-1.5,3.3-3.3,3.3h-6.6
			C177.3,181.1,175.8,179.7,175.8,177.8z M173.9,184.6c0-1.7,1.3-3.1,2.9-3.3c0.7,0.5,1.5,0.7,2.3,0.7h6.6c0.9,0,1.7-0.3,2.3-0.7
			c1.6,0.2,2.9,1.6,2.9,3.3c0,1.8-1.5,3.3-3.3,3.3h-10.5C175.4,187.9,173.9,186.4,173.9,184.6z M171.6,191.5c0-1.8,1.5-3.3,3.3-3.3
			h0.1c-0.1-0.1-0.1-0.1-0.2-0.2c0.7,0.5,1.5,0.8,2.4,0.8h10.5c0.8,0,1.5-0.2,2.1-0.6h0.1c1.8,0,3.3,1.5,3.3,3.3s-1.5,3.3-3.3,3.3
			h-15C173.1,194.8,171.6,193.3,171.6,191.5z M168.3,198.5c0-1.8,1.5-3.3,3.3-3.3h1.4c0.6,0.3,1.2,0.4,1.9,0.4h15
			c0.7,0,1.3-0.2,1.9-0.4h1.4c1.8,0,3.3,1.5,3.3,3.3c0,1.8-1.5,3.3-3.3,3.3h-21.5C169.8,201.8,168.3,200.3,168.3,198.5z
			 M195.3,208.8h-25.7c-1.8,0-3.3-1.5-3.3-3.3s1.5-3.3,3.3-3.3h0.2c0.6,0.3,1.2,0.4,1.9,0.4h21.5c0.7,0,1.3-0.2,1.9-0.4h0.2
			c1.8,0,3.3,1.5,3.3,3.3S197.1,208.8,195.3,208.8z"/>
	</g>
	<g>
		<g>
			<path class="st12" d="M244,180.7l-0.8-5.8l-3.7,0.7l-6.2,23.1l1.3,2.8c-3.7-1-11-2.9-11.3-2.9c-0.4,0-11.8,3.1-11.8,3.1
				s0.1,2.7,1.3,3.4l24,1.3l0-0.2l0.1,0.2L244,180.7z"/>
			<path class="st13" d="M236.2,203l7.8-29.7l-24.4-1.1l-10,29.3c0,0-0.9,3.6,2,5.6l27,1.7l8.1-28.5l-2,0.1l-7.8,26.6l-24.2-1.3
				c0,0-1-0.8-1.3-2c-0.2-0.5-0.2-2-0.2-2L236.2,203z"/>
			<polygon class="st14" points="214.6,203.3 217.8,203.5 215.6,213.9 214.7,210.1 212.3,213.5 			"/>
		</g>
		<line class="st3" x1="246.2" y1="180.5" x2="246.2" y2="180.5"/>
		<polygon class="st3" points="246.2,181.4 246.2,181.4 246.2,181.4 		"/>
		<path class="st3" d="M246.2,179.6L246.2,179.6C246.2,179.6,246.2,179.6,246.2,179.6L246.2,179.6
			C246.2,179.6,246.2,179.6,246.2,179.6C246.2,179.6,246.2,179.6,246.2,179.6l-1.4,0.1l-0.7-4.9l0.3-1c0.1-0.3,0-0.5-0.1-0.8
			c-0.2-0.2-0.4-0.4-0.7-0.4l-23.8-1c0,0,0,0,0,0c-0.4,0-0.7,0.2-0.8,0.6l-9.7,28.6c0,0,0,0,0,0c0,0,0,0,0,0c0,0.2-1,4.2,2.3,6.5
			c0.1,0.1,0.3,0.1,0.5,0.2l0.8,0l-1.3,5.6c-0.1,0.4,0.1,0.8,0.5,1c0.1,0.1,0.2,0.1,0.4,0.1c0.3,0,0.5-0.1,0.7-0.4l1.3-1.7l0.4,1.8
			c0.1,0.4,0.5,0.7,0.9,0.7c0,0,0,0,0,0c0.4,0,0.8-0.3,0.9-0.7l1.3-6.1l20.7,1.2c0,0,0,0,0.1,0c0.4,0,0.8-0.3,0.9-0.7l7.8-27.6
			c0-0.1,0-0.2,0-0.3C247.1,180,246.7,179.6,246.2,179.6z M244,180.7l-7,25.6c0,0-0.1,0-0.1,0l-1.3-2.8l0.3,0c0,0,0,0,0,0
			c0.4,0,0.8-0.3,0.9-0.7l6.8-25.6L244,180.7z M219.8,172.6l23.8,1l-7.6,28.9l-25.9-1.3L219.8,172.6z M212,206.7
			c-1.9-1.3-2.1-3.4-2.1-4.6c0,0,0,0-0.1-0.1c0,0,0.1,0,0.1,0l0.7,0c0.1,1,0.4,2.9,1.7,3.7c0.1,0.1,0.3,0.1,0.4,0.1l0.3,0l-0.2,0.8
			L212,206.7z M215.6,213.9l-0.8-3.8l-2.5,3.3l2.4-10.2l3.1,0.2L215.6,213.9z M214.7,202.4C214.7,202.4,214.7,202.4,214.7,202.4
			c-0.5,0-0.8,0.3-0.9,0.7l-0.5,2l-0.5,0c-0.9-0.5-1.2-2.1-1.3-2.9l23,1.2l1.4,3l-17.7-1l0.4-1.7c0.1-0.3,0-0.5-0.2-0.7
			c-0.2-0.2-0.4-0.3-0.7-0.4L214.7,202.4z M238.5,208.2l-20.5-1.2l0.2-0.8l18.7,1c0,0,0,0,0.1,0c0,0,0,0,0.1,0c0,0,0,0,0.1,0
			c0,0,0,0,0.1,0c0.4,0,0.7-0.3,0.8-0.7l7.1-25.7c0-0.1,0-0.2,0-0.3l1.3-0.1L238.5,208.2z"/>
	</g>
</g>
</svg>
