<?xml version="1.0" encoding="utf-8"?>
<!-- Generator: Adobe Illustrator 22.1.0, SVG Export Plug-In . SVG Version: 6.00 Build 0)  -->
<svg version="1.1" id="Слой_1" xmlns="http://www.w3.org/2000/svg" xmlns:xlink="http://www.w3.org/1999/xlink" x="0px" y="0px"
	 viewBox="0 0 283.5 283.5" style="enable-background:new 0 0 283.5 283.5;" xml:space="preserve">
<style type="text/css">
	.st0{clip-path:url(#SVGID_2_);fill-rule:evenodd;clip-rule:evenodd;fill:#946138;}
	.st1{clip-path:url(#SVGID_2_);fill-rule:evenodd;clip-rule:evenodd;fill:#FFFFFF;}
	.st2{clip-path:url(#SVGID_2_);fill:none;stroke:#12100B;stroke-linejoin:round;stroke-miterlimit:10;}
	.st3{clip-path:url(#SVGID_2_);fill-rule:evenodd;clip-rule:evenodd;fill:#12100B;}
	.st4{clip-path:url(#SVGID_2_);fill-rule:evenodd;clip-rule:evenodd;fill:#3BABE2;}
	.st5{clip-path:url(#SVGID_2_);fill:none;stroke:#12100B;stroke-width:0.95;stroke-linejoin:round;stroke-miterlimit:10;}
	.st6{clip-path:url(#SVGID_2_);fill:none;stroke:#12100B;stroke-linecap:round;stroke-linejoin:round;stroke-miterlimit:10;}
	.st7{clip-path:url(#SVGID_4_);fill:none;stroke:#12100B;stroke-linecap:round;stroke-linejoin:round;stroke-miterlimit:10;}
	.st8{clip-path:url(#SVGID_6_);fill:none;stroke:#12100B;stroke-linecap:round;stroke-linejoin:round;stroke-miterlimit:10;}
	.st9{clip-path:url(#SVGID_6_);fill-rule:evenodd;clip-rule:evenodd;fill:#FFFFFF;}
	
		.st10{clip-path:url(#SVGID_6_);fill:none;stroke:#12100B;stroke-width:2;stroke-linecap:round;stroke-linejoin:round;stroke-miterlimit:10;}
	.st11{clip-path:url(#SVGID_8_);fill-rule:evenodd;clip-rule:evenodd;fill:#12100B;}
	.st12{clip-path:url(#SVGID_8_);fill-rule:evenodd;clip-rule:evenodd;fill:#FFFFFF;}
	.st13{clip-path:url(#SVGID_10_);fill:none;stroke:#12100B;stroke-linecap:round;stroke-linejoin:round;stroke-miterlimit:10;}
	
		.st14{clip-path:url(#SVGID_10_);fill:none;stroke:#12100B;stroke-width:0.7;stroke-linecap:round;stroke-linejoin:round;stroke-miterlimit:10;}
	.st15{clip-path:url(#SVGID_10_);fill-rule:evenodd;clip-rule:evenodd;fill:#12100B;}
	.st16{clip-path:url(#SVGID_10_);fill-rule:evenodd;clip-rule:evenodd;fill:#946138;}
	.st17{clip-path:url(#SVGID_10_);fill-rule:evenodd;clip-rule:evenodd;fill:#FFFFFF;}
	.st18{clip-path:url(#SVGID_10_);fill:none;stroke:#12100B;stroke-linejoin:round;stroke-miterlimit:10;}
	.st19{clip-path:url(#SVGID_12_);fill-rule:evenodd;clip-rule:evenodd;fill:#FFFFFF;}
	.st20{clip-path:url(#SVGID_12_);fill:none;stroke:#12100B;stroke-linejoin:round;stroke-miterlimit:10;}
	.st21{clip-path:url(#SVGID_12_);fill:none;stroke:#12100B;stroke-linecap:round;stroke-linejoin:round;stroke-miterlimit:10;}
	.st22{clip-path:url(#SVGID_14_);fill:none;stroke:#12100B;stroke-linejoin:round;stroke-miterlimit:10;}
	.st23{clip-path:url(#SVGID_14_);fill:none;stroke:#12100B;stroke-linecap:round;stroke-linejoin:round;stroke-miterlimit:10;}
	.st24{clip-path:url(#SVGID_14_);fill-rule:evenodd;clip-rule:evenodd;fill:#FFFFFF;}
	.st25{clip-path:url(#SVGID_14_);fill-rule:evenodd;clip-rule:evenodd;fill:#3BABE2;}
	.st26{clip-path:url(#SVGID_14_);fill:none;stroke:#12100B;stroke-width:0.95;stroke-linejoin:round;stroke-miterlimit:10;}
	.st27{clip-path:url(#SVGID_14_);fill-rule:evenodd;clip-rule:evenodd;fill:#12100B;}
	.st28{clip-path:url(#SVGID_14_);fill:none;stroke:#000000;stroke-miterlimit:10;}
</style>
<g>
	<defs>
		<rect id="SVGID_1_" width="283.5" height="283.5"/>
	</defs>
	<clipPath id="SVGID_2_">
		<use xlink:href="#SVGID_1_"  style="overflow:visible;"/>
	</clipPath>
	<path class="st0" d="M253.2,193.1c0.7-4.8-2.4-9.4-7.1-10.4C230.6,179.2,199,172,199,172l-1.2,51.1c0,0,22.3,6.3,36.7,10.4
		c3,0.9,6.3,0.4,8.9-1.3c2.6-1.7,4.4-4.4,4.9-7.6C249.8,215,251.9,201.7,253.2,193.1"/>
	<polyline class="st0" points="230.7,231.3 219.9,284.7 226.4,287.8 237.2,233.3 	"/>
	<path class="st1" d="M113.4,140.9l-4.5-11.6c0,0,3.3-3.2,1.8-7.3c-1.5-4.1-1.4-4.4-1.4-4.4s0.1-2.5-1.2-4.3
		c-1.3-1.8-1.9-2.8-1.9-2.8c3-0.3,0.3-2.9,0-5.1c0,0,0.2-3.9,0-5.7l-4.3-2.7c2.1-1.7,2.8-3.2,1.7-4.2c0,0-4.1,1.3-7.4,1.8
		c-6.3,1.1-10.1,4.1-10.3,6.7l2.1,4.1c0,0-2.4,3.5-1,5.4c1.4,2,11.6,18.4,12,18.3c0.4-0.1,2.7,15.9,2.7,15.9L113.4,140.9z"/>
	<path class="st2" d="M113.4,140.9l-4.5-11.6c0,0,3.3-3.2,1.8-7.3c-1.5-4.1-1.4-4.4-1.4-4.4s0.1-2.5-1.2-4.3
		c-1.3-1.8-1.9-2.8-1.9-2.8c3-0.3,0.3-2.9,0-5.1c0,0,0.2-3.9,0-5.7l-4.3-2.7c2.1-1.7,2.8-3.2,1.7-4.2c0,0-4.1,1.3-7.4,1.8
		c-6.3,1.1-10.1,4.1-10.3,6.7l2.1,4.1c0,0-2.4,3.5-1,5.4c1.4,2,11.6,18.4,12,18.3c0.4-0.1,2.7,15.9,2.7,15.9L113.4,140.9z"/>
	<path class="st1" d="M110.9,101.2c0,0-1.2-2.6,1-4.1c2.2-1.4,2.8-1,2.8-1s0.2-2.9,3.1-2.5c2.9,0.4,4.3,2.5,4.3,2.5s4,0,4.5,3.7
		c0.2,2-2.7,3.7-2.7,3.7C118.1,103.9,112.7,103.3,110.9,101.2"/>
	<path class="st2" d="M110.9,101.2c0,0-1.2-2.6,1-4.1c2.2-1.4,2.8-1,2.8-1s0.2-2.9,3.1-2.5c2.9,0.4,4.3,2.5,4.3,2.5s4,0,4.5,3.7
		c0.2,2-2.7,3.7-2.7,3.7C118.1,103.9,112.7,103.3,110.9,101.2z"/>
	<polygon class="st3" points="100.2,101.7 100.3,101.7 100.3,101.7 100.4,101.7 100.4,101.7 100.5,101.7 100.5,101.7 100.6,101.7 
		100.6,101.7 100.7,101.7 100.7,101.7 100.8,101.7 100.8,101.7 100.9,101.7 100.9,101.8 101,101.8 101,101.8 101.1,101.8 
		101.1,101.8 101.2,101.8 101.2,101.8 101.3,101.8 101.3,101.8 101.4,101.8 101.4,101.8 101.5,101.8 101.5,101.8 101.6,101.9 
		101.6,101.9 101.7,101.9 101.7,101.9 101.8,101.9 101.9,101.9 102,101.9 102.1,102 102.1,102 102.2,102 102.3,102 102.4,102 
		102.5,102.1 102.6,102.1 102.7,102.1 102.8,102.1 102.8,102.2 102.9,102.2 103,102.2 103,102.2 103.1,102.2 103.2,102.3 
		103.2,102.3 103.3,102.3 103.4,102.3 103.4,102.3 103.5,102.4 103.6,102.4 103.7,102.4 103.7,102.4 103.7,102.5 103.8,102.5 
		103.9,102.5 103.9,102.6 106.6,105.3 105.8,106 103.3,103.4 103.2,103.4 103.2,103.3 103.1,103.3 103,103.3 103,103.3 102.9,103.2 
		102.9,103.2 102.8,103.2 102.7,103.2 102.7,103.2 102.6,103.1 102.5,103.1 102.5,103.1 102.4,103.1 102.3,103 102.2,103 102.2,103 
		102.1,103 102,103 101.9,102.9 101.8,102.9 101.7,102.9 101.6,102.9 101.6,102.8 101.5,102.8 101.5,102.8 101.4,102.8 101.4,102.8 
		101.3,102.8 101.3,102.8 101.2,102.8 101.2,102.8 101.2,102.8 101.1,102.8 101.1,102.7 101,102.7 101,102.7 100.9,102.7 
		100.9,102.7 100.8,102.7 100.8,102.7 100.7,102.7 100.7,102.7 100.7,102.7 100.6,102.7 100.6,102.7 100.5,102.7 100.5,102.7 
		100.4,102.7 100.4,102.7 100.4,102.7 100.3,102.7 100.3,102.6 100.2,102.6 100.2,102.6 100.1,102.6 100.1,102.6 100.1,102.6 
		100,102.6 100,102.6 99.9,102.6 99.9,102.6 99.9,102.6 99.8,102.7 99.8,102.7 99.8,102.7 99.7,102.7 99.7,102.7 99.7,102.7 
		99.6,102.7 99.6,102.7 99.6,102.7 99.5,102.7 99.5,102.7 99.5,102.7 99.4,102.7 99.4,102.7 99.4,102.7 99.4,102.7 99.4,102.7 
		99.4,102.7 99.4,102.7 99.3,102.7 99.3,102.7 99.3,102.8 99.3,102.8 99.3,102.8 99.3,102.8 99.3,102.8 99.3,102.8 99.3,102.8 
		99.2,102.8 99.2,102.8 99.2,102.8 99.2,102.8 99.2,102.8 99.2,102.8 99.2,102.8 99.2,102.8 99.1,102.8 99.1,102.9 99.1,102.9 
		99.1,102.9 99.1,102.9 99.1,102.9 99,102.9 99,102.9 99,102.9 99,103 99,103 99,103 98.9,103 98.9,103 98.9,103 98.9,103.1 
		98.9,103.1 98.8,103.1 98.8,103.1 98.7,103.2 98.7,103.2 98.7,103.3 98.6,103.3 98.6,103.4 98.5,103.4 98.5,103.5 98.4,103.5 
		98.4,103.6 98.3,103.6 98.2,103.7 98.2,103.8 98.1,103.8 98.1,103.9 98,103.9 98,104 97.9,104.1 97.9,104.1 97.8,104.2 97.7,104.3 
		97.7,104.4 97.6,104.4 97.6,104.5 97.5,104.6 97.5,104.7 97.4,104.7 97.3,104.8 97.3,104.9 97.2,105 97.1,105 97.1,105.1 97,105.2 
		97,105.3 96.9,105.4 96.8,105.4 96.8,105.5 96.7,105.6 96.7,105.7 96.6,105.8 96.5,105.9 96.4,106 96.3,106.2 96.2,106.4 96,106.6 
		95.9,106.7 95.8,106.9 95.7,107.1 95.6,107.2 95.4,107.4 95.3,107.6 95.2,107.7 95.1,107.9 95,108.1 94.9,108.2 94.8,108.4 
		94.7,108.5 94.6,108.7 94.5,108.8 94.4,109 94.3,109.1 94.2,109.2 94.1,109.3 94,109.6 93.8,109.8 93.7,110 93.6,110.1 93.5,110.3 
		93.5,110.4 93.4,110.4 92.8,110.1 92.9,110 93,109.9 93,109.8 93.1,109.6 93.2,109.4 93.4,109.2 93.5,109 93.6,108.8 93.7,108.7 
		93.8,108.6 93.9,108.4 94,108.3 94.1,108.1 94.2,108 94.3,107.8 94.4,107.6 94.5,107.5 94.6,107.3 94.7,107.1 94.8,107 94.9,106.8 
		95,106.6 95.1,106.4 95.3,106.3 95.4,106.1 95.5,105.9 95.6,105.7 95.7,105.6 95.9,105.4 95.9,105.3 96,105.2 96.1,105.1 96.1,105 
		96.2,105 96.2,104.9 96.3,104.8 96.4,104.7 96.4,104.6 96.5,104.5 96.5,104.5 96.6,104.4 96.7,104.3 96.7,104.2 96.8,104.1 
		96.8,104.1 96.9,104 97,103.9 97,103.8 97.1,103.7 97.1,103.7 97.2,103.6 97.2,103.5 97.3,103.5 97.4,103.4 97.4,103.3 97.5,103.2 
		97.5,103.2 97.6,103.1 97.6,103.1 97.7,103 97.7,102.9 97.8,102.9 97.9,102.8 97.9,102.8 98,102.7 98,102.6 98.1,102.6 98.1,102.5 
		98.2,102.5 98.2,102.4 98.2,102.4 98.3,102.4 98.3,102.4 98.3,102.3 98.3,102.3 98.4,102.3 98.4,102.3 98.4,102.3 98.4,102.2 
		98.5,102.2 98.5,102.2 98.5,102.2 98.5,102.2 98.6,102.1 98.6,102.1 98.6,102.1 98.6,102.1 98.7,102.1 98.7,102.1 98.7,102 
		98.7,102 98.8,102 98.8,102 98.8,102 98.8,102 98.8,102 98.9,102 98.9,101.9 98.9,101.9 98.9,101.9 98.9,101.9 99,101.9 99,101.9 
		99,101.9 99,101.9 99.1,101.9 99.1,101.9 99.1,101.9 99.1,101.8 99.1,101.8 99.2,101.8 99.2,101.8 99.3,101.8 99.3,101.8 
		99.4,101.8 99.4,101.8 99.5,101.8 99.5,101.8 99.6,101.7 99.6,101.7 99.7,101.7 99.7,101.7 99.8,101.7 99.8,101.7 99.9,101.7 
		99.9,101.7 100,101.7 100,101.7 100.1,101.7 100.1,101.7 100.2,101.7 	"/>
	<path class="st2" d="M106.2,110.7c-1.8,0.5-3.1-0.5-3.8-3.5l-1.4,2.5c0,0,1.2,0.2,1,1.7c-0.2,1.6-0.1,2.5-0.1,2.5
		c3.2,1.5,5.8,3.8,8,6.5"/>
	<path class="st1" d="M128.5,100.6c-1.8,0.4-4.5,3.1-13.1,2.4c-3.9-0.3-4.4-2.3-5.3-2.5c0,0-13.7-6.7-25.9-8.2
		c-13-1.6-17.6,1.7-14,2.8c1.5,0.5,12-1.1,24.8,1.4c1.8,0.4,7.8,2.5,7.8,2.5l3.3,1.9l3.3,1.6c0,0,1.7,4.7,9.5,4.3
		C127.5,106.4,128.5,100.6,128.5,100.6"/>
	<path class="st2" d="M128.5,100.6c-1.8,0.4-4.5,3.1-13.1,2.4c-3.9-0.3-4.4-2.3-5.3-2.5c0,0-13.7-6.7-25.9-8.2
		c-13-1.6-17.6,1.7-14,2.8c1.5,0.5,12-1.1,24.8,1.4c1.8,0.4,7.8,2.5,7.8,2.5l3.3,1.9l3.3,1.6c0,0,1.7,4.7,9.5,4.3
		C127.5,106.4,128.5,100.6,128.5,100.6z"/>
	<path class="st1" d="M86.9,107.9c2.3-5.1,5.9-11.2,8.4-13c1.9-1.4,5.3,0.4,6.6,2.4l0.9,1.9c0,0-3.6-2.3-5.2-1.3
		c-2.1,1.3-6.9,9.8-6.9,9.8L86.9,107.9z"/>
	<polygon class="st3" points="96.8,94.2 96.9,94.2 96.9,94.2 97,94.2 97,94.2 97.1,94.2 97.1,94.2 97.2,94.2 97.2,94.2 97.3,94.2 
		97.3,94.2 97.3,94.2 97.4,94.2 97.4,94.2 97.5,94.2 97.5,94.2 97.6,94.2 97.6,94.2 97.7,94.2 97.7,94.2 97.8,94.2 97.8,94.2 
		97.8,94.2 97.9,94.3 97.9,94.3 98,94.3 98,94.3 98.1,94.3 98.1,94.3 98.2,94.3 98.2,94.3 98.3,94.3 98.3,94.3 98.4,94.3 98.4,94.3 
		98.5,94.3 98.5,94.4 98.6,94.4 98.6,94.4 98.6,94.4 98.7,94.4 98.7,94.4 98.8,94.4 98.8,94.4 98.9,94.4 98.9,94.4 99,94.5 99,94.5 
		99.1,94.5 99.1,94.5 99.2,94.5 99.2,94.5 99.3,94.5 99.3,94.5 99.4,94.6 99.4,94.6 99.4,94.6 99.5,94.6 99.5,94.6 99.6,94.6 
		99.6,94.6 99.7,94.7 99.7,94.7 99.8,94.7 99.8,94.7 99.9,94.7 99.9,94.7 100,94.8 100,94.8 100,94.8 100.1,94.8 100.1,94.8 
		100.2,94.8 100.2,94.9 100.3,94.9 100.3,94.9 100.4,94.9 100.4,94.9 100.4,94.9 100.5,95 100.5,95 100.6,95 100.6,95 100.7,95 
		100.7,95.1 100.8,95.1 100.8,95.1 100.8,95.1 100.9,95.2 100.9,95.2 101,95.2 101,95.2 101,95.2 101.1,95.3 101.1,95.3 101.2,95.3 
		101.2,95.3 101.3,95.4 101.3,95.4 101.3,95.4 101.4,95.4 101.4,95.4 101.5,95.5 101.5,95.5 101.5,95.5 101.6,95.5 101.6,95.6 
		101.6,95.6 101.7,95.6 101.7,95.6 101.8,95.7 101.8,95.7 101.8,95.7 101.9,95.8 101.9,95.8 101.9,95.8 102,95.8 102,95.9 102,95.9 
		102.1,95.9 102.1,95.9 102.2,96 102.2,96 102.2,96 102.3,96.1 102.3,96.1 102.3,96.1 102.4,96.2 102.4,96.2 102.4,96.2 102.4,96.2 
		102.5,96.3 102.5,96.3 102.5,96.3 102.6,96.4 102.6,96.4 102.6,96.4 102.7,96.5 102.7,96.5 102.7,96.5 102.7,96.6 102.8,96.6 
		102.8,96.6 102.8,96.7 102.8,96.7 102.9,96.7 102.9,96.8 102.9,96.8 102.9,96.8 103,96.9 103,96.9 103,97 103,97 103,97 
		103.1,97.1 103.1,97.1 103.1,97.1 103.1,97.2 103.1,97.2 103.2,97.3 103.2,97.3 103.2,97.3 103.2,97.4 103.2,97.4 103.2,97.5 
		103.2,97.5 103.3,97.5 103.3,97.6 103.3,97.6 103.3,97.7 103.3,97.7 103.3,97.8 103.3,97.8 103.3,97.8 103.3,97.9 103.3,97.9 
		103.3,98 103.3,98 103.4,98.1 103.4,98.1 103.4,98.1 103.4,98.2 103.4,98.2 103.4,98.3 103.4,98.3 103.4,98.4 103.4,98.4 
		103.4,98.5 103.3,98.5 103.3,98.5 103.3,98.6 103.3,98.6 103.3,98.7 103.3,98.7 102.2,98.5 102.2,98.5 102.2,98.5 102.2,98.4 
		102.2,98.4 102.2,98.4 102.3,98.4 102.3,98.3 102.3,98.3 102.3,98.3 102.3,98.3 102.3,98.2 102.3,98.2 102.3,98.2 102.3,98.2 
		102.3,98.1 102.3,98.1 102.3,98.1 102.3,98.1 102.2,98 102.2,98 102.2,98 102.2,98 102.2,97.9 102.2,97.9 102.2,97.9 102.2,97.9 
		102.2,97.9 102.2,97.8 102.2,97.8 102.2,97.8 102.2,97.8 102.2,97.7 102.2,97.7 102.2,97.7 102.1,97.7 102.1,97.6 102.1,97.6 
		102.1,97.6 102.1,97.6 102.1,97.5 102.1,97.5 102.1,97.5 102,97.5 102,97.4 102,97.4 102,97.4 102,97.4 102,97.4 102,97.3 
		101.9,97.3 101.9,97.3 101.9,97.3 101.9,97.2 101.9,97.2 101.8,97.2 101.8,97.2 101.8,97.1 101.8,97.1 101.8,97.1 101.7,97.1 
		101.7,97 101.7,97 101.7,97 101.7,97 101.6,96.9 101.6,96.9 101.6,96.9 101.6,96.9 101.5,96.9 101.5,96.8 101.5,96.8 101.5,96.8 
		101.4,96.8 101.4,96.7 101.4,96.7 101.4,96.7 101.3,96.7 101.3,96.6 101.3,96.6 101.2,96.6 101.2,96.6 101.2,96.6 101.1,96.5 
		101.1,96.5 101.1,96.5 101.1,96.5 101,96.4 101,96.4 101,96.4 100.9,96.4 100.9,96.4 100.9,96.3 100.8,96.3 100.8,96.3 100.8,96.3 
		100.7,96.3 100.7,96.2 100.7,96.2 100.6,96.2 100.6,96.2 100.6,96.2 100.5,96.1 100.5,96.1 100.4,96.1 100.4,96.1 100.4,96.1 
		100.3,96 100.3,96 100.3,96 100.2,96 100.2,96 100.1,95.9 100.1,95.9 100.1,95.9 100,95.9 100,95.9 100,95.9 99.9,95.8 99.9,95.8 
		99.8,95.8 99.8,95.8 99.8,95.8 99.7,95.8 99.7,95.7 99.6,95.7 99.6,95.7 99.6,95.7 99.5,95.7 99.5,95.7 99.4,95.7 99.4,95.6 
		99.3,95.6 99.3,95.6 99.3,95.6 99.2,95.6 99.2,95.6 99.1,95.6 99.1,95.5 99.1,95.5 99,95.5 99,95.5 98.9,95.5 98.9,95.5 98.9,95.5 
		98.8,95.5 98.8,95.4 98.7,95.4 98.7,95.4 98.6,95.4 98.6,95.4 98.6,95.4 98.5,95.4 98.5,95.4 98.4,95.4 98.4,95.4 98.3,95.3 
		98.3,95.3 98.3,95.3 98.2,95.3 98.2,95.3 98.1,95.3 98.1,95.3 98,95.3 98,95.3 98,95.3 97.9,95.3 97.9,95.3 97.8,95.2 97.8,95.2 
		97.8,95.2 97.7,95.2 97.7,95.2 97.6,95.2 97.6,95.2 97.6,95.2 97.5,95.2 97.5,95.2 97.4,95.2 97.4,95.2 97.3,95.2 97.3,95.2 
		97.3,95.2 97.2,95.2 97.2,95.2 97.2,95.2 97.1,95.2 97.1,95.2 97,95.2 97,95.2 97,95.2 96.9,95.2 96.9,95.2 96.8,95.2 96.8,95.2 
		96.8,95.2 96.7,95.2 96.7,95.2 96.7,95.2 96.6,95.2 96.6,95.2 96.5,95.2 96.5,95.2 96.5,95.2 96.4,95.2 96.4,95.2 96.4,95.2 
		96.3,95.2 96.3,95.2 96.3,95.2 96.2,95.2 96.2,95.2 96.2,95.2 96.1,95.2 96.1,95.2 96.1,95.2 96,95.2 96,95.2 96,95.2 95.9,95.2 
		95.9,95.2 95.9,95.2 95.8,95.2 95.8,95.2 95.8,95.2 95.8,95.3 95.7,95.3 95.7,95.3 95.7,95.3 95.6,95.3 95.6,95.3 95.6,95.3 
		95.6,95.3 95.5,95.3 95.5,95.3 95.5,95.3 95.5,95.3 95.4,95.3 95.4,95.4 95.4,95.4 95.4,95.4 95.4,95.4 95.3,95.4 95.3,95.4 
		95.3,95.4 95.3,95.4 95.3,95.4 95.2,95.4 95.2,95.5 95.2,95.5 95.2,95.5 95.2,95.5 95.1,95.5 95.1,95.5 95.1,95.5 95.1,95.5 
		95.1,95.5 95.1,95.6 95,95.6 95,95.6 95,95.6 95,95.6 95,95.6 94.9,95.7 94.9,95.7 94.9,95.7 94.9,95.7 94.9,95.8 94.8,95.8 
		94.8,95.8 94.8,95.8 94.8,95.8 94.7,95.9 94.7,95.9 94.7,95.9 94.7,95.9 94.6,96 94.6,96 94.5,96.1 94.5,96.1 94.4,96.2 94.4,96.3 
		94.3,96.3 94.2,96.4 94.2,96.5 94.1,96.5 94.1,96.6 94,96.7 94,96.8 93.9,96.8 93.8,96.9 93.8,97 93.7,97.1 93.6,97.2 93.6,97.3 
		93.5,97.3 93.5,97.4 93.4,97.5 93.3,97.6 93.3,97.7 93.2,97.8 93.1,97.9 93.1,98 93,98.1 92.9,98.2 92.8,98.3 92.8,98.4 92.7,98.5 
		92.6,98.6 92.6,98.7 92.5,98.8 92.4,98.9 92.4,99 92.3,99.1 92.2,99.2 92.1,99.3 92.1,99.5 92,99.6 91.9,99.7 91.9,99.8 91.8,99.9 
		91.7,100 91.6,100.1 91.6,100.2 91.5,100.4 91.4,100.5 91.4,100.6 91.3,100.7 91.2,100.8 91.1,100.9 91.1,101.1 91,101.2 
		90.9,101.3 90.9,101.4 90.8,101.5 90.7,101.7 90.6,101.8 90.6,101.9 90.5,102 90.4,102.1 90.4,102.3 90.3,102.4 90.2,102.5 
		90.2,102.6 90.1,102.7 90,102.9 90,103 89.9,103.1 89.8,103.2 89.7,103.3 89.7,103.5 89.6,103.6 89.5,103.7 89.5,103.8 89.4,103.9 
		89.4,104.1 89.3,104.2 89.2,104.3 89.2,104.4 89.1,104.5 89,104.6 89,104.7 88.9,104.9 88.9,105 88.8,105.1 88.7,105.2 88.7,105.3 
		88.6,105.4 88.6,105.5 88.5,105.6 88.4,105.8 88.4,105.9 88.3,106 88.3,106.1 88.2,106.2 88.2,106.3 88.1,106.4 88.1,106.5 
		88,106.6 88,106.7 87.9,106.8 87.9,106.9 87.8,107 87.8,107.1 87.7,107.2 87.7,107.3 87.7,107.4 87.6,107.4 87.6,107.5 87.5,107.6 
		87.5,107.7 87.5,107.8 87.4,107.9 87.4,108 87.3,108 86.7,107.8 86.7,107.7 86.8,107.6 86.8,107.5 86.9,107.4 86.9,107.3 
		86.9,107.3 87,107.2 87,107.1 87.1,107 87.1,106.9 87.1,106.8 87.2,106.7 87.2,106.6 87.3,106.5 87.3,106.4 87.4,106.3 87.4,106.2 
		87.5,106.1 87.5,106 87.6,105.9 87.6,105.8 87.7,105.6 87.7,105.5 87.8,105.4 87.8,105.3 87.9,105.2 88,105.1 88,105 88.1,104.9 
		88.1,104.7 88.2,104.6 88.2,104.5 88.3,104.4 88.4,104.3 88.4,104.2 88.5,104 88.6,103.9 88.6,103.8 88.7,103.7 88.7,103.6 
		88.8,103.4 88.9,103.3 88.9,103.2 89,103.1 89.1,103 89.1,102.8 89.2,102.7 89.3,102.6 89.3,102.5 89.4,102.4 89.5,102.2 
		89.5,102.1 89.6,102 89.7,101.9 89.7,101.7 89.8,101.6 89.9,101.5 89.9,101.4 90,101.3 90.1,101.1 90.2,101 90.2,100.9 90.3,100.8 
		90.4,100.6 90.4,100.5 90.5,100.4 90.6,100.3 90.6,100.2 90.7,100 90.8,99.9 90.9,99.8 90.9,99.7 91,99.6 91.1,99.5 91.1,99.3 
		91.2,99.2 91.3,99.1 91.4,99 91.4,98.9 91.5,98.8 91.6,98.7 91.6,98.5 91.7,98.4 91.8,98.3 91.8,98.2 91.9,98.1 92,98 92.1,97.9 
		92.1,97.8 92.2,97.7 92.3,97.6 92.3,97.5 92.4,97.4 92.5,97.3 92.5,97.2 92.6,97.1 92.7,97 92.7,96.9 92.8,96.8 92.9,96.7 
		92.9,96.6 93,96.6 93,96.5 93.1,96.4 93.2,96.3 93.2,96.2 93.3,96.1 93.4,96.1 93.4,96 93.5,95.9 93.5,95.8 93.6,95.7 93.7,95.7 
		93.7,95.6 93.8,95.5 93.8,95.5 93.9,95.4 93.9,95.3 94,95.3 94,95.3 94,95.3 94.1,95.2 94.1,95.2 94.1,95.2 94.1,95.1 94.2,95.1 
		94.2,95.1 94.2,95.1 94.3,95 94.3,95 94.3,95 94.3,95 94.4,94.9 94.4,94.9 94.4,94.9 94.4,94.9 94.5,94.8 94.5,94.8 94.5,94.8 
		94.6,94.8 94.6,94.7 94.6,94.7 94.6,94.7 94.7,94.7 94.7,94.7 94.7,94.6 94.8,94.6 94.8,94.6 94.8,94.6 94.9,94.6 94.9,94.6 
		94.9,94.5 95,94.5 95,94.5 95,94.5 95.1,94.5 95.1,94.5 95.1,94.4 95.2,94.4 95.2,94.4 95.2,94.4 95.3,94.4 95.3,94.4 95.3,94.4 
		95.4,94.4 95.4,94.4 95.5,94.3 95.5,94.3 95.5,94.3 95.6,94.3 95.6,94.3 95.6,94.3 95.7,94.3 95.7,94.3 95.8,94.3 95.8,94.3 
		95.8,94.3 95.9,94.3 95.9,94.2 96,94.2 96,94.2 96,94.2 96.1,94.2 96.1,94.2 96.2,94.2 96.2,94.2 96.2,94.2 96.3,94.2 96.3,94.2 
		96.4,94.2 96.4,94.2 96.5,94.2 96.5,94.2 96.5,94.2 96.6,94.2 96.6,94.2 96.7,94.2 96.7,94.2 96.8,94.2 96.8,94.2 	"/>
	<polygon class="st3" points="98.5,97.4 98.5,97.4 98.6,97.4 98.6,97.4 98.6,97.4 98.7,97.4 98.7,97.4 98.8,97.4 98.8,97.4 
		98.8,97.4 98.9,97.4 98.9,97.4 99,97.4 99,97.4 99,97.4 99.1,97.4 99.1,97.4 99.2,97.4 99.2,97.4 99.2,97.4 99.3,97.4 99.3,97.4 
		99.4,97.4 99.4,97.4 99.5,97.5 99.5,97.5 99.5,97.5 99.6,97.5 99.6,97.5 99.7,97.5 99.7,97.5 99.8,97.5 99.9,97.5 100,97.6 
		100.1,97.6 100.1,97.6 100.2,97.6 100.3,97.7 100.4,97.7 100.5,97.7 100.6,97.7 100.7,97.8 100.8,97.8 100.8,97.8 100.9,97.8 
		101,97.9 101.1,97.9 101.2,97.9 101.3,98 101.4,98 101.5,98 101.6,98.1 101.7,98.1 101.7,98.1 101.8,98.2 101.9,98.2 102,98.2 
		102.1,98.3 102.2,98.3 102.3,98.3 102.4,98.4 102.5,98.4 102.6,98.4 102.6,98.5 102.7,98.5 102.8,98.6 102.9,98.6 103,98.6 
		103.1,98.7 103.2,98.7 103.2,98.8 103.3,98.8 103.4,98.8 103.5,98.9 103.6,98.9 103.7,98.9 103.7,99 103.8,99 103.9,99.1 104,99.1 
		104.1,99.1 104.1,99.2 104.2,99.2 104.3,99.3 104.4,99.3 104.4,99.3 104.5,99.4 104.6,99.4 104.7,99.5 104.7,99.5 104.8,99.5 
		104.9,99.6 104.9,99.6 105,99.6 105.1,99.7 105.1,99.7 105.2,99.8 105.3,99.8 105.3,99.8 105.4,99.9 105.5,99.9 105.5,99.9 
		105.6,100 105.6,100 105.7,100 105.7,100.1 105.8,100.1 105.8,100.1 105.9,100.1 105.9,100.2 106,100.2 106,100.2 106.1,100.3 
		106.1,100.3 106.1,100.3 106.2,100.3 106.2,100.4 106.2,100.4 106.3,100.4 106.3,100.4 106.3,100.5 106.4,100.5 106.4,100.5 
		106.4,100.5 106.5,100.6 106.5,100.6 106.5,100.6 106.5,100.6 106.6,100.7 106.6,100.7 106.6,100.7 106.6,100.7 106.6,100.7 
		106.6,100.8 106.7,100.8 106.7,100.9 106.7,100.9 106.7,101 105.6,101.1 105.6,101.2 105.6,101.2 105.6,101.3 105.7,101.3 
		105.7,101.3 105.7,101.3 105.7,101.4 105.7,101.4 105.7,101.4 105.7,101.4 105.7,101.4 105.7,101.4 105.7,101.4 105.7,101.4 
		105.7,101.4 105.7,101.4 105.7,101.4 105.7,101.4 105.7,101.4 105.7,101.3 105.7,101.3 105.6,101.3 105.6,101.3 105.6,101.3 
		105.6,101.3 105.5,101.2 105.5,101.2 105.5,101.2 105.4,101.2 105.4,101.1 105.4,101.1 105.3,101.1 105.3,101.1 105.2,101 
		105.2,101 105.2,101 105.1,100.9 105.1,100.9 105,100.9 105,100.9 104.9,100.8 104.8,100.8 104.8,100.8 104.7,100.7 104.7,100.7 
		104.6,100.7 104.6,100.6 104.5,100.6 104.4,100.5 104.4,100.5 104.3,100.5 104.2,100.4 104.2,100.4 104.1,100.4 104,100.3 
		104,100.3 103.9,100.2 103.8,100.2 103.7,100.2 103.7,100.1 103.6,100.1 103.5,100 103.4,100 103.4,100 103.3,99.9 103.2,99.9 
		103.1,99.8 103,99.8 103,99.8 102.9,99.7 102.8,99.7 102.7,99.6 102.6,99.6 102.6,99.6 102.5,99.5 102.4,99.5 102.3,99.5 
		102.2,99.4 102.1,99.4 102.1,99.3 102,99.3 101.9,99.3 101.8,99.2 101.7,99.2 101.6,99.2 101.6,99.1 101.5,99.1 101.4,99.1 
		101.3,99 101.2,99 101.1,99 101,98.9 101,98.9 100.9,98.9 100.8,98.8 100.7,98.8 100.6,98.8 100.5,98.7 100.5,98.7 100.4,98.7 
		100.3,98.7 100.2,98.6 100.1,98.6 100.1,98.6 100,98.6 99.9,98.5 99.8,98.5 99.7,98.5 99.7,98.5 99.6,98.5 99.5,98.4 99.5,98.4 
		99.4,98.4 99.4,98.4 99.4,98.4 99.3,98.4 99.3,98.4 99.2,98.4 99.2,98.4 99.2,98.4 99.1,98.4 99.1,98.4 99.1,98.4 99,98.4 99,98.3 
		99,98.3 98.9,98.3 98.9,98.3 98.9,98.3 98.8,98.3 98.8,98.3 98.8,98.3 98.7,98.3 98.7,98.3 98.7,98.3 98.6,98.3 98.6,98.3 
		98.6,98.3 98.5,98.3 98.5,98.3 98.5,98.3 98.4,98.3 98.4,98.3 98.4,98.3 98.4,98.3 98.3,98.3 98.3,98.3 98.3,98.3 98.2,98.3 
		98.2,98.3 98.2,98.3 98.2,98.3 98.1,98.3 98.1,98.3 98.1,98.3 98.1,98.3 98,98.3 98,98.3 98,98.3 98,98.3 98,98.3 97.9,98.3 
		97.9,98.3 97.9,98.4 97.9,98.4 97.9,98.4 97.9,98.4 97.8,98.4 97.8,98.4 97.8,98.4 97.8,98.4 97.8,98.4 97.7,98.4 97.7,98.4 
		97.7,98.4 97.7,98.4 97.6,98.5 97.6,98.5 97.6,98.5 97.6,98.5 97.5,98.5 97.5,98.5 97.5,98.5 97.5,98.6 97.4,98.6 97.4,98.6 
		97.4,98.6 97.4,98.6 97.3,98.7 97.3,98.7 97.3,98.7 97.3,98.7 97.2,98.8 97.2,98.8 97.2,98.8 97.1,98.8 97.1,98.9 97.1,98.9 
		97,98.9 97,98.9 97,99 96.9,99 96.9,99 96.9,99 96.9,99.1 96.8,99.1 96.8,99.1 96.8,99.2 96.7,99.2 96.7,99.2 96.7,99.3 96.6,99.3 
		96.6,99.3 96.6,99.4 96.5,99.4 96.5,99.4 96.5,99.5 96.4,99.5 96.4,99.5 96.4,99.6 96.3,99.6 96.2,99.7 96.2,99.8 96.1,99.9 
		96,99.9 96,100 95.9,100.1 95.8,100.2 95.8,100.3 95.7,100.4 95.6,100.5 95.5,100.5 95.5,100.6 95.4,100.7 95.3,100.8 95.2,100.9 
		95.2,101 95.1,101.1 95,101.2 94.9,101.3 94.9,101.4 94.8,101.5 94.7,101.6 94.7,101.7 94.6,101.8 94.5,101.9 94.4,102 94.4,102.1 
		94.3,102.2 94.2,102.3 94.1,102.4 94.1,102.5 94,102.6 93.9,102.7 93.9,102.8 93.8,102.9 93.7,103 93.6,103.1 93.6,103.2 
		93.5,103.3 93.4,103.4 93.4,103.6 93.3,103.7 93.2,103.8 93.2,103.9 93.1,104 93,104.1 93,104.2 92.9,104.4 92.7,104.5 92.6,104.7 
		92.5,104.9 92.4,105.1 92.3,105.3 92.2,105.5 92.1,105.6 92,105.8 91.9,105.9 91.8,106.1 91.7,106.2 91.6,106.4 91.5,106.5 
		91.5,106.6 91.4,106.7 91.3,106.8 91.3,106.9 91.2,107.1 91.1,107.2 91.1,107.3 91.1,107.3 90.5,106.9 90.5,106.9 90.5,106.8 
		90.6,106.7 90.7,106.6 90.7,106.5 90.8,106.4 90.8,106.3 90.9,106.1 91,106 91.1,105.9 91.2,105.7 91.2,105.6 91.3,105.4 
		91.4,105.2 91.5,105.1 91.6,104.9 91.7,104.7 91.9,104.5 92,104.3 92.1,104.1 92.2,103.9 92.3,103.7 92.4,103.6 92.5,103.5 
		92.5,103.4 92.6,103.3 92.7,103.2 92.7,103.1 92.8,103 92.9,102.9 92.9,102.8 93,102.7 93.1,102.6 93.1,102.5 93.2,102.4 
		93.3,102.3 93.3,102.2 93.4,102.1 93.5,102 93.6,101.9 93.6,101.8 93.7,101.6 93.8,101.5 93.8,101.4 93.9,101.3 94,101.2 
		94.1,101.1 94.1,101 94.2,100.9 94.3,100.8 94.3,100.7 94.4,100.6 94.5,100.5 94.6,100.4 94.6,100.3 94.7,100.2 94.8,100.1 
		94.9,100 94.9,99.9 95,99.8 95.1,99.7 95.2,99.6 95.2,99.6 95.3,99.5 95.4,99.4 95.4,99.3 95.5,99.2 95.6,99.1 95.7,99 95.7,99 
		95.7,99 95.8,98.9 95.8,98.9 95.8,98.8 95.9,98.8 95.9,98.8 95.9,98.7 96,98.7 96,98.6 96.1,98.6 96.1,98.6 96.1,98.5 96.2,98.5 
		96.2,98.5 96.2,98.4 96.3,98.4 96.3,98.4 96.3,98.3 96.4,98.3 96.4,98.3 96.4,98.2 96.5,98.2 96.5,98.2 96.5,98.1 96.6,98.1 
		96.6,98.1 96.6,98.1 96.7,98 96.7,98 96.7,98 96.8,97.9 96.8,97.9 96.9,97.9 96.9,97.9 96.9,97.8 97,97.8 97,97.8 97,97.8 
		97.1,97.7 97.1,97.7 97.1,97.7 97.2,97.7 97.2,97.7 97.2,97.6 97.3,97.6 97.3,97.6 97.3,97.6 97.4,97.6 97.4,97.6 97.4,97.5 
		97.5,97.5 97.5,97.5 97.5,97.5 97.6,97.5 97.6,97.5 97.6,97.5 97.7,97.5 97.7,97.4 97.8,97.4 97.8,97.4 97.8,97.4 97.9,97.4 
		97.9,97.4 97.9,97.4 98,97.4 98,97.4 98,97.4 98.1,97.4 98.1,97.4 98.2,97.4 98.2,97.4 98.2,97.4 98.3,97.4 98.3,97.4 98.3,97.4 
		98.4,97.4 98.4,97.4 98.5,97.4 	"/>
	<path class="st4" d="M179.5,133.9c0,0-4.4,1.1-4.8-4.2c-0.3-3.3,2.8-8.3,2.8-8.3s-7.4,2.6-16.8,14.5c-5.5,6.9-29.1,54.6-29.1,54.6
		l-19.1-53.3l-18.2,8.5c7.9,25.1,14.4,45.3,23.2,65.9c2.6,8.7,15.5,12.5,25.5,3.6L179.5,133.9z"/>
	<path class="st5" d="M172.8,128.7c0.5-1.6,4.5-7.2,4.5-7.2s-7.4,2.6-16.6,14.3c-5.5,6.9-29.1,54.6-29.1,54.6l-19.1-53.3l-18.2,8.5
		c7.9,25.1,14.4,45.3,23.2,65.9c2.6,8.7,15.5,12.5,25.5,3.6l35.8-78.8C178.7,136.3,170.1,137.4,172.8,128.7z"/>
	<path class="st6" d="M253.2,193.1c0.7-4.8-2.4-9.4-7.1-10.4C230.6,179.2,199,172,199,172l-1.2,51.1c0,0,22.3,6.3,36.7,10.4
		c3,0.9,6.3,0.4,8.9-1.3c2.6-1.7,4.4-4.4,4.9-7.6C249.8,215,251.9,201.7,253.2,193.1z"/>
	<path class="st4" d="M197.3,116.7l3-5.8c0,0,23.2,10.4,27.8,50.7c3,25.9-4.6,66.4-19.2,105.5l-77.7-39
		c2.3-10.1,14.6-22.3,14.6-22.3s10.1-39.4,18.8-63.6c2-5.7,10.5-19.5,14.5-22c-11.6,19.2,4.6,15.8,11.8,6
		C192.6,123.6,197.3,116.7,197.3,116.7"/>
</g>
<g>
	<defs>
		<path id="SVGID_3_" d="M142.9,33.7c0,0-4.9,23.1-6.4,29c-2.2,9.1-9.4,9.6-8,12.7c1.3,3.1,9.4,3.7,9.4,3.7l-1.5,9.7
			c0,0,12.6,4.7,13,6.5c0.4,1.8,0.3,4.6-10.5,4.5c0,0,1.4,3.6,1.9,5.2c2.5,7.5,5.4,8.7,12,9.7c6.6,1.1,22.2-5.7,22.2-5.7l4,11
			c-4,2.5-12.5,16.4-14.5,22c-8.8,24.2-18.8,63.6-18.8,63.6s-12.3,12.1-14.6,22.3l77.7,39c35.4-94.6,17.5-140.9-8.7-156.1l-3.7-10.2
			l-2.8-16c0,0,2.1-2.1,3.6-14c1.5-11.9-13.8-6.5-13.8-6.5s-16-29.3-25.8-31.9c-2.4-0.6-4.5-0.9-6.3-0.9
			C145.8,31.3,142.9,33.7,142.9,33.7"/>
	</defs>
	<clipPath id="SVGID_4_">
		<use xlink:href="#SVGID_3_"  style="overflow:visible;"/>
	</clipPath>
	<path class="st7" d="M200.3,110.9c-5.4,12-16.8,25.8-23.5,22.5c-5.7-2.8,2-13.2,2-13.2l-8.6-4.3c0,0-20.3,8-27.4,1.5
		c-7.1-6.5-10.3-34.7-10.3-34.7s-8.5-3.2-8-9.9s10.1-17.6,10.1-17.6s-4.4-3.7-2.2-15.9c2.2-12.2,9.2-21.9,18.7-23.3
		c9.5-1.4,17.2,0.6,17.2,0.6s19.8-5.1,25.1-2.7c5.3,2.4,7.2,4.9,7.2,4.9s22,5.8,24.3,14.5c2.3,8.7,2.3,11.3,2.3,11.3s9.2,4.7,4.8,21
		c-4.4,16.3-15.7,36.6-21.1,38.4c-5.4,1.8-8.8,2.8-8.8,2.8L200.3,110.9z"/>
</g>
<g>
	<defs>
		<rect id="SVGID_5_" width="283.5" height="283.5"/>
	</defs>
	<clipPath id="SVGID_6_">
		<use xlink:href="#SVGID_5_"  style="overflow:visible;"/>
	</clipPath>
	<path class="st8" d="M196.5,100.6l3.7,10.2c26.2,15.2,44,61.5,8.7,156.1l-77.7-39c2.3-10.1,14.6-22.3,14.6-22.3
		s10.1-39.5,18.8-63.6c2-5.5,10.5-19.5,14.5-22l-4-11c0,0-15.6,6.7-22.2,5.7c-6.6-1.1-9.5-2.2-12-9.7c-0.5-1.6-1.9-5.2-1.9-5.2
		c10.8,0.1,10.9-2.6,10.5-4.5c-0.4-1.8-13-6.5-13-6.5l1.5-9.7c0,0-8.1-0.6-9.4-3.7c-1.3-3.1,5.8-3.6,8-12.7c1.4-5.8,6.4-29,6.4-29
		s5.1-4.1,14.9-1.4c9.8,2.6,25.8,31.9,25.8,31.9s15.3-5.4,13.8,6.5c-1.5,11.9-3.6,14-3.6,14L196.5,100.6z"/>
	<path class="st9" d="M139.2,51.2c1.9-10.4,6.1-14.5,13-16.6c6.6,7.3,7.1,12.7,15.8,14.2c-1.2,4.6,0.6,7.3,6.1,7.2
		c-0.9,7.1,1.8,12.1,8.1,15c4.2-10.7,18.6-1.1,6.2,11.6c-1.4,0.2,2.9,17.1,6.1,17.5c2.4,0.3,4.8,1.7,6.3,2.3
		c3.2,1.2,4.7,0.4,7.1-2.5c0.9-1.1,1.9-2.4,3.2-4c14.4-18.3,21-39.4,14-46.7c-1.7-10.4-6.3-18-14.4-22.3c-5.3-2.8-10.4-4.7-14.8-4.9
		c-3.6-4.6-12.9-4.5-26.1-1.1c-5.4,0.1-9.4-1.9-13.8-1.3c-9.8,1.5-15.6,7.6-18.5,16.2C135.9,40.3,136.9,45.3,139.2,51.2"/>
	<path class="st8" d="M139.2,51.2c1.9-10.4,6.1-14.5,13-16.6c6.6,7.3,7.1,12.7,15.8,14.2c-1.2,4.6,0.6,7.3,6.1,7.2
		c-0.9,7.1,1.8,12.1,8.1,15c4.2-10.7,18.6-1.1,6.2,11.6c-1.4,0.2,2.9,17.1,6.1,17.5c2.4,0.3,4.8,1.7,6.3,2.3
		c3.2,1.2,4.7,0.4,7.1-2.5c0.9-1.1,1.9-2.4,3.2-4c14.4-18.3,21-39.4,14-46.7c-1.7-10.4-6.3-18-14.4-22.3c-5.3-2.8-10.4-4.7-14.8-4.9
		c-3.6-4.6-12.9-4.5-26.1-1.1c-5.4,0.1-9.4-1.9-13.8-1.3c-9.8,1.5-15.6,7.6-18.5,16.2C135.9,40.3,136.9,45.3,139.2,51.2z"/>
	<path class="st8" d="M190.6,40.8c-2.5-7-10.9-15-23.7-19.9"/>
	<path class="st8" d="M189.6,27.7c-4.4-3.3-11.2-6.1-19.7-6.3"/>
	<path class="st10" d="M158.7,62.3c-3.2-3.7-7.1-6-13.4-4.2"/>
</g>
<g>
	<defs>
		<path id="SVGID_7_" d="M147.2,64.2c-1.8,0.6-2.1,2.8-2.2,4.7c3.6,0.7,7.4,0.8,11.4-0.1c0.5-3.1-3.6-4.9-7-4.9
			C148.6,63.9,147.8,64,147.2,64.2"/>
	</defs>
	<clipPath id="SVGID_8_">
		<use xlink:href="#SVGID_7_"  style="overflow:visible;"/>
	</clipPath>
	<path class="st11" d="M147.3,65c1.9,0,3.4,1.6,3.4,3.6c0,2-1.5,3.6-3.4,3.6c-1.9,0-3.4-1.6-3.4-3.6C143.9,66.6,145.4,65,147.3,65"
		/>
	<path class="st12" d="M148.8,66c0.4,0,0.6,0.3,0.6,0.7c0,0.4-0.3,0.7-0.6,0.7c-0.4,0-0.6-0.3-0.6-0.7S148.5,66,148.8,66"/>
</g>
<g>
	<defs>
		<rect id="SVGID_9_" width="283.5" height="283.5"/>
	</defs>
	<clipPath id="SVGID_10_">
		<use xlink:href="#SVGID_9_"  style="overflow:visible;"/>
	</clipPath>
	<path class="st13" d="M156.4,68.8c-4,0.9-7.8,0.8-11.4,0.1c0.1-1.9,0.4-4,2.2-4.7C150.5,63.1,157,65,156.4,68.8z"/>
	<path class="st14" d="M142.6,75.7c-0.1,2.2-1.7,3.1-3.4,3.3"/>
	<polygon class="st15" points="182.2,103.2 182.2,103.7 182.2,103.8 182.1,103.9 182,104 181.9,104.1 181.8,104.1 181.8,104.2 
		181.7,104.3 181.6,104.4 181.5,104.4 181.4,104.5 181.4,104.6 181.3,104.7 181.2,104.8 181.1,104.8 181,104.9 180.9,105 
		180.9,105.1 180.8,105.1 180.7,105.2 180.6,105.3 180.5,105.4 180.4,105.4 180.3,105.5 180.3,105.6 180.2,105.7 180.1,105.7 
		180,105.8 179.9,105.9 179.8,106 179.7,106 179.7,106.1 179.6,106.2 179.5,106.2 179.4,106.3 179.3,106.4 179.2,106.4 179.1,106.5 
		179,106.6 178.9,106.7 178.9,106.7 178.8,106.8 178.7,106.9 178.6,106.9 178.5,107 178.4,107.1 178.3,107.1 178.2,107.2 
		178.1,107.3 178.1,107.3 178,107.4 177.9,107.5 177.8,107.5 177.7,107.6 177.6,107.7 177.5,107.7 177.4,107.8 177.3,107.8 
		177.2,107.9 177.2,108 177.1,108 177,108.1 176.9,108.2 176.8,108.2 176.7,108.3 176.6,108.3 176.5,108.4 176.4,108.4 176.4,108.5 
		176.3,108.6 176.2,108.6 176.1,108.7 176,108.7 175.9,108.8 175.8,108.8 175.7,108.9 175.6,109 175.6,109 175.5,109.1 175.4,109.1 
		175.3,109.2 175.2,109.2 175.1,109.3 175,109.3 175,109.4 174.9,109.4 174.8,109.5 174.7,109.5 174.6,109.6 174.5,109.6 
		174.4,109.7 174.4,109.7 174.3,109.8 174.2,109.8 174.1,109.9 174,109.9 174,109.9 173.9,110 173.8,110 173.7,110.1 173.6,110.1 
		173.5,110.2 173.5,110.2 173.4,110.2 173.3,110.3 173.2,110.3 173.2,110.4 173.1,110.4 173,110.4 172.9,110.5 172.8,110.5 
		172.8,110.6 172.7,110.6 172.6,110.6 172.5,110.7 172.5,110.7 172.4,110.7 172.3,110.8 172.3,110.8 172.2,110.8 172.1,110.9 
		172,110.9 172,110.9 171.9,111 171.8,111 171.8,111 171.7,111 171.6,111.1 171.6,111.1 171.6,111.1 171.1,111.1 170.8,110.8 
		170.8,110.8 170.8,110.8 170.9,110.4 171.2,110.1 171.2,110.1 171.2,110 171.3,110 171.4,110 171.4,110 171.5,109.9 171.6,109.9 
		171.6,109.9 171.7,109.9 171.8,109.8 171.8,109.8 171.9,109.8 172,109.7 172,109.7 172.1,109.7 172.2,109.7 172.2,109.6 
		172.3,109.6 172.4,109.6 172.5,109.5 172.5,109.5 172.6,109.5 172.7,109.4 172.8,109.4 172.8,109.4 172.9,109.3 173,109.3 
		173.1,109.2 173.2,109.2 173.2,109.2 173.3,109.1 173.4,109.1 173.5,109 173.6,109 173.6,109 173.7,108.9 173.8,108.9 173.9,108.8 
		174,108.8 174,108.7 174.1,108.7 174.2,108.7 174.3,108.6 174.4,108.6 174.5,108.5 174.6,108.5 174.6,108.4 174.7,108.4 
		174.8,108.3 174.9,108.3 175,108.2 175.1,108.2 175.2,108.1 175.2,108.1 175.3,108 175.4,108 175.5,107.9 175.6,107.9 175.7,107.8 
		175.8,107.8 175.9,107.7 175.9,107.7 176,107.6 176.1,107.6 176.2,107.5 176.3,107.4 176.4,107.4 176.5,107.3 176.6,107.3 
		176.7,107.2 176.7,107.2 176.8,107.1 176.9,107 177,107 177.1,106.9 177.2,106.9 177.3,106.8 177.4,106.7 177.5,106.7 177.6,106.6 
		177.6,106.6 177.7,106.5 177.8,106.4 177.9,106.4 178,106.3 178.1,106.2 178.2,106.2 178.3,106.1 178.4,106.1 178.4,106 
		178.5,105.9 178.6,105.9 178.7,105.8 178.8,105.7 178.9,105.7 179,105.6 179.1,105.5 179.2,105.5 179.2,105.4 179.3,105.3 
		179.4,105.3 179.5,105.2 179.6,105.1 179.7,105.1 179.8,105 179.9,104.9 179.9,104.8 180,104.8 180.1,104.7 180.2,104.6 
		180.3,104.6 180.4,104.5 180.5,104.4 180.5,104.4 180.6,104.3 180.7,104.2 180.8,104.1 180.9,104.1 181,104 181,103.9 181.1,103.8 
		181.2,103.8 181.3,103.7 181.4,103.6 181.4,103.5 181.5,103.5 181.6,103.4 181.7,103.3 181.8,103.2 	"/>
	<polygon class="st15" points="187.2,70.9 187.2,70.9 187.2,70.9 187.2,70.9 187.3,70.9 187.3,70.9 187.3,70.9 187.4,70.9 
		187.4,70.9 187.4,70.9 187.4,70.9 187.5,70.9 187.5,70.9 187.5,70.9 187.5,70.9 187.6,70.9 187.6,70.9 187.6,71 187.6,71 187.7,71 
		187.7,71 187.7,71 187.7,71 187.8,71 187.8,71 187.8,71 187.8,71 187.9,71 187.9,71.1 187.9,71.1 187.9,71.1 187.9,71.1 188,71.1 
		188,71.1 188,71.1 188,71.1 188.1,71.2 188.1,71.2 188.1,71.2 188.1,71.2 188.1,71.2 188.2,71.2 188.2,71.3 188.2,71.3 188.2,71.3 
		188.2,71.3 188.3,71.3 188.3,71.3 188.3,71.4 188.3,71.4 188.3,71.4 188.4,71.4 188.4,71.4 188.4,71.4 188.4,71.5 188.4,71.5 
		188.5,71.5 188.5,71.5 188.5,71.5 188.5,71.6 188.5,71.6 188.5,71.6 188.6,71.6 188.6,71.6 188.6,71.7 188.6,71.7 188.6,71.7 
		188.6,71.7 188.7,71.8 188.7,71.8 188.7,71.8 188.7,71.8 188.7,71.8 188.7,71.9 188.7,71.9 188.8,71.9 188.8,71.9 188.8,72 
		188.8,72 188.8,72 188.8,72 188.8,72.1 188.9,72.1 188.9,72.1 188.9,72.1 188.9,72.2 188.9,72.2 188.9,72.2 188.9,72.2 188.9,72.3 
		188.9,72.3 189,72.3 189,72.3 189,72.4 189,72.4 189,72.4 189,72.5 189,72.5 189,72.5 189,72.5 189.1,72.6 189.1,72.6 189.1,72.7 
		189.1,72.7 189.1,72.8 189.1,72.9 189.2,72.9 189.2,73 189.2,73 189.2,73.1 189.2,73.2 189.2,73.2 189.2,73.3 189.2,73.3 
		189.2,73.4 189.3,73.5 189.3,73.5 189.3,73.6 189.3,73.7 189.3,73.7 189.3,73.8 189.3,73.9 189.3,73.9 189.3,74 189.3,74.1 
		189.3,74.1 189.3,74.2 189.3,74.3 189.3,74.3 189.3,74.4 189.3,74.5 189.3,74.5 189.3,74.6 189.3,74.7 189.3,74.7 189.3,74.8 
		189.3,74.9 189.3,75 189.3,75 189.2,75.1 189.2,75.2 189.2,75.2 189.2,75.3 189.2,75.4 189.2,75.5 189.2,75.5 189.2,75.6 
		189.1,75.7 189.1,75.7 189.1,75.8 189.1,75.9 189.1,76 189.1,76 189,76.1 189,76.2 189,76.2 189,76.3 189,76.4 188.9,76.4 
		188.9,76.4 188.9,76.5 188.9,76.5 188.9,76.5 188.9,76.6 188.9,76.6 188.9,76.6 188.8,76.7 188.8,76.7 188.8,76.7 188.8,76.8 
		188.8,76.8 188.8,76.9 188.8,76.9 188.7,76.9 188.7,77 188.7,77 188.7,77 188.7,77.1 188.7,77.1 188.6,77.1 188.6,77.2 188.6,77.2 
		188.6,77.2 188.6,77.3 188.6,77.3 188.5,77.3 188.5,77.4 188.5,77.4 188.5,77.4 188.5,77.5 188.4,77.5 188.4,77.6 188.4,77.6 
		188.4,77.6 188.4,77.7 188.3,77.7 188.3,77.7 188.3,77.8 188.3,77.8 188.3,77.8 188.2,77.9 188.2,77.9 188.2,77.9 188.2,78 
		188.1,78 188.1,78 188.1,78.1 188.1,78.1 188.1,78.1 188,78.2 188,78.2 188,78.2 188,78.3 187.9,78.3 187.9,78.3 187.9,78.3 
		187.9,78.4 187.8,78.4 187.8,78.4 187.8,78.5 187.8,78.5 187.7,78.5 187.7,78.6 187.7,78.6 187.6,78.6 187.6,78.7 187.6,78.7 
		187.6,78.7 187.5,78.8 187.5,78.8 187.5,78.8 187.4,78.8 187.4,78.9 187.4,78.9 187.4,78.9 187.3,79 187.3,79 187.3,79 187.2,79 
		187.2,79.1 187.2,79.1 187.1,79.1 187.1,79.2 187.1,79.2 187.1,79.2 187,79.2 187,79.3 187,79.3 186.9,79.3 186.9,79.4 186.9,79.4 
		186.8,79.4 186.8,79.4 186.7,79.5 186.7,79.5 186.7,79.5 186.6,79.5 186.6,79.6 186.6,79.6 186.5,79.6 186.5,79.6 186.5,79.7 
		186.4,79.7 186.4,79.7 186.4,79.7 186.3,79.8 186.3,79.8 186.2,79.8 186.2,79.8 186.2,79.9 186.1,79.9 186.1,79.9 186,79.9 
		186,79.9 186,80 185.9,80 185.9,80 185.8,80 185.8,80 185.8,80.1 185.7,80.1 185.7,80.1 185.6,80.1 185.6,80.2 185.6,80.2 
		185.5,80.2 185.5,80.2 185.4,80.2 185.4,80.2 185.3,80.3 185.3,80.3 185.2,80.3 185.2,80.3 185.2,80.3 185.1,80.4 185.1,80.4 
		185,80.4 185,80.4 184.9,80.4 184.9,80.4 184.8,80.4 184.8,80.5 184.7,80.5 184.7,80.5 184.6,80.5 184.6,80.5 184.5,80.5 
		184.5,80.6 184.5,80.6 184.4,80.6 184.4,80.6 184.3,80.6 184.3,80.6 184.2,80.6 184.2,80.6 184.1,80.7 184,80.7 184,80.7 
		183.9,80.7 183.9,80.7 183.8,80.7 183.8,80.7 183.7,80.7 183.7,80.7 183.6,80.7 183.6,80.7 183.5,80.8 183.5,80.8 183.4,80.8 
		183.4,80.8 183.3,80.8 183.3,80.8 183.2,80.8 183.1,80.8 183.1,80.8 183,80.8 183,80.8 182.9,80.8 182.9,80.8 182.6,80.6 
		182.8,80.4 182.9,80.4 182.9,80.4 183,80.4 183,80.4 183.1,80.4 183.1,80.4 183.2,80.3 183.2,80.3 183.3,80.3 183.4,80.3 
		183.4,80.3 183.5,80.3 183.5,80.3 183.6,80.3 183.6,80.3 183.7,80.3 183.7,80.3 183.8,80.3 183.8,80.2 183.9,80.2 183.9,80.2 
		183.9,80.2 184,80.2 184,80.2 184.1,80.2 184.1,80.2 184.2,80.1 184.2,80.1 184.3,80.1 184.3,80.1 184.4,80.1 184.4,80.1 
		184.5,80.1 184.5,80.1 184.5,80 184.6,80 184.6,80 184.7,80 184.7,80 184.8,80 184.8,79.9 184.9,79.9 184.9,79.9 184.9,79.9 
		185,79.9 185,79.9 185.1,79.8 185.1,79.8 185.1,79.8 185.2,79.8 185.2,79.8 185.3,79.8 185.3,79.7 185.3,79.7 185.4,79.7 
		185.4,79.7 185.5,79.7 185.5,79.6 185.5,79.6 185.6,79.6 185.6,79.6 185.6,79.6 185.7,79.5 185.7,79.5 185.8,79.5 185.8,79.5 
		185.8,79.5 185.9,79.4 185.9,79.4 185.9,79.4 186,79.4 186,79.3 186,79.3 186.1,79.3 186.1,79.3 186.1,79.3 186.2,79.2 186.2,79.2 
		186.2,79.2 186.3,79.2 186.3,79.1 186.3,79.1 186.4,79.1 186.4,79.1 186.4,79 186.5,79 186.5,79 186.5,79 186.5,78.9 186.6,78.9 
		186.6,78.9 186.6,78.9 186.7,78.8 186.7,78.8 186.7,78.8 186.8,78.8 186.8,78.7 186.8,78.7 186.8,78.7 186.9,78.7 186.9,78.6 
		186.9,78.6 186.9,78.6 187,78.5 187,78.5 187,78.5 187.1,78.5 187.1,78.4 187.1,78.4 187.1,78.4 187.2,78.4 187.2,78.3 187.2,78.3 
		187.2,78.3 187.3,78.2 187.3,78.2 187.3,78.2 187.3,78.2 187.3,78.1 187.4,78.1 187.4,78.1 187.4,78 187.4,78 187.5,78 187.5,77.9 
		187.5,77.9 187.5,77.9 187.5,77.9 187.6,77.8 187.6,77.8 187.6,77.8 187.6,77.7 187.7,77.7 187.7,77.7 187.7,77.6 187.7,77.6 
		187.7,77.6 187.8,77.6 187.8,77.5 187.8,77.5 187.8,77.5 187.8,77.4 187.8,77.4 187.9,77.4 187.9,77.3 187.9,77.3 187.9,77.3 
		187.9,77.2 187.9,77.2 188,77.2 188,77.1 188,77.1 188,77.1 188,77 188,77 188.1,77 188.1,77 188.1,76.9 188.1,76.9 188.1,76.9 
		188.1,76.8 188.1,76.8 188.2,76.8 188.2,76.7 188.2,76.7 188.2,76.7 188.2,76.6 188.2,76.6 188.2,76.6 188.3,76.5 188.3,76.5 
		188.3,76.5 188.3,76.4 188.3,76.4 188.3,76.4 188.3,76.3 188.3,76.3 188.3,76.3 188.4,76.2 188.4,76.2 188.4,76.2 188.4,76.1 
		188.4,76.1 188.4,76 188.4,75.9 188.5,75.9 188.5,75.8 188.5,75.7 188.5,75.7 188.5,75.6 188.5,75.5 188.5,75.5 188.6,75.4 
		188.6,75.3 188.6,75.3 188.6,75.2 188.6,75.2 188.6,75.1 188.6,75 188.6,75 188.6,74.9 188.6,74.8 188.6,74.8 188.6,74.7 
		188.6,74.6 188.6,74.6 188.7,74.5 188.7,74.5 188.7,74.4 188.7,74.3 188.7,74.3 188.7,74.2 188.6,74.1 188.6,74.1 188.6,74 
		188.6,74 188.6,73.9 188.6,73.8 188.6,73.8 188.6,73.7 188.6,73.7 188.6,73.6 188.6,73.6 188.6,73.5 188.6,73.5 188.6,73.4 
		188.6,73.3 188.5,73.3 188.5,73.2 188.5,73.2 188.5,73.1 188.5,73.1 188.5,73 188.5,73 188.5,72.9 188.4,72.9 188.4,72.8 
		188.4,72.8 188.4,72.8 188.4,72.7 188.4,72.7 188.4,72.7 188.4,72.7 188.4,72.7 188.3,72.6 188.3,72.6 188.3,72.6 188.3,72.6 
		188.3,72.6 188.3,72.5 188.3,72.5 188.3,72.5 188.3,72.5 188.3,72.4 188.2,72.4 188.2,72.4 188.2,72.4 188.2,72.4 188.2,72.4 
		188.2,72.3 188.2,72.3 188.2,72.3 188.2,72.3 188.1,72.3 188.1,72.2 188.1,72.2 188.1,72.2 188.1,72.2 188.1,72.2 188.1,72.2 
		188.1,72.1 188.1,72.1 188,72.1 188,72.1 188,72.1 188,72.1 188,72.1 188,72 188,72 188,72 187.9,72 187.9,72 187.9,72 187.9,72 
		187.9,71.9 187.9,71.9 187.9,71.9 187.9,71.9 187.8,71.9 187.8,71.9 187.8,71.9 187.8,71.9 187.8,71.9 187.8,71.8 187.8,71.8 
		187.8,71.8 187.7,71.8 187.7,71.8 187.7,71.8 187.7,71.8 187.7,71.8 187.7,71.8 187.7,71.8 187.6,71.8 187.6,71.7 187.6,71.7 
		187.6,71.7 187.6,71.7 187.6,71.7 187.6,71.7 187.6,71.7 187.5,71.7 187.5,71.7 187.5,71.7 187.5,71.7 187.5,71.7 187.5,71.7 
		187.5,71.7 187.4,71.7 187.4,71.7 187.4,71.7 187.4,71.6 187.4,71.6 187.4,71.6 187.4,71.6 187.3,71.6 187.3,71.6 187.3,71.6 
		187.3,71.6 187.3,71.6 187.3,71.6 187.2,71.6 187.2,71.6 187.2,71.6 187.2,71.6 187.2,71.6 187.2,71.6 187.2,71.6 187.1,71.6 
		187.1,71.6 187.1,71.6 187.1,71.6 187.1,71.6 187.1,71.6 187,71.6 187,71.6 187,71.6 187,71.6 187,71.6 187,71.6 186.9,71.6 
		186.9,71.6 186.9,71.6 186.9,71.7 186.9,71.7 186.8,71.7 186.8,71.7 186.8,71.7 186.8,71.7 186.8,71.7 186.8,71.7 186.7,71.7 
		186.7,71.7 186.7,71.7 186.7,71.7 186.7,71.7 186.6,71.7 186.6,71.7 186.6,71.8 186.6,71.8 186.6,71.8 186.5,71.8 186.5,71.8 
		186.5,71.8 186.5,71.8 186.4,71.8 186.4,71.8 186.4,71.9 186.4,71.9 186.4,71.9 186.3,71.9 186.3,71.9 186.3,71.9 186.3,71.9 
		186.3,72 186.2,72 186.2,72 186.2,72 186.2,72 186.1,72 186.1,72.1 186.1,72.1 186.1,72.1 186,72.1 186,72.1 186,72.1 186,72.2 
		185.9,72.2 185.9,72.2 185.9,72.2 185.9,72.3 185.8,72.3 185.8,72.3 185.8,72.3 185.8,72.3 185.7,72.4 185.7,72.4 185.7,72.4 
		185.7,72.4 185.6,72.5 185.6,72.5 185.6,72.5 185.6,72.6 185.5,72.6 185.5,72.6 185.5,72.6 185.5,72.7 185.4,72.7 185.4,72.7 
		185.4,72.8 185.4,72.8 185.3,72.8 185.3,72.9 185.3,72.9 185.3,72.9 185.2,73 185.2,73 185.2,73 185.1,73.1 185.1,73.1 185.1,73.1 
		185.1,73.2 185,73.2 185,73.2 185,73.3 184.9,73.3 184.9,73.4 184.9,73.4 184.9,73.4 184.8,73.5 184.8,73.5 184.8,73.6 184.8,73.6 
		184.7,73.7 184.7,73.7 184.7,73.7 184.6,73.8 184.6,73.8 184.6,73.9 184.6,73.9 184.5,74 184.5,74 184.5,74.1 184.4,74.1 
		184.4,74.2 184.4,74.2 184.4,74.2 184.1,74.4 183.8,74.4 183.8,74.3 183.6,74.1 183.7,73.8 183.7,73.7 183.7,73.7 183.8,73.6 
		183.8,73.6 183.8,73.5 183.9,73.5 183.9,73.4 183.9,73.4 184,73.3 184,73.3 184,73.2 184,73.2 184.1,73.2 184.1,73.1 184.1,73.1 
		184.2,73 184.2,73 184.2,72.9 184.3,72.9 184.3,72.8 184.3,72.8 184.4,72.8 184.4,72.7 184.4,72.7 184.5,72.6 184.5,72.6 
		184.5,72.6 184.5,72.5 184.6,72.5 184.6,72.5 184.6,72.4 184.7,72.4 184.7,72.3 184.7,72.3 184.8,72.3 184.8,72.2 184.8,72.2 
		184.8,72.2 184.9,72.1 184.9,72.1 184.9,72.1 185,72 185,72 185,72 185.1,72 185.1,71.9 185.1,71.9 185.1,71.9 185.2,71.8 
		185.2,71.8 185.2,71.8 185.3,71.8 185.3,71.7 185.3,71.7 185.4,71.7 185.4,71.6 185.4,71.6 185.4,71.6 185.5,71.6 185.5,71.6 
		185.5,71.5 185.6,71.5 185.6,71.5 185.6,71.5 185.7,71.4 185.7,71.4 185.7,71.4 185.7,71.4 185.8,71.4 185.8,71.3 185.8,71.3 
		185.9,71.3 185.9,71.3 185.9,71.3 185.9,71.2 186,71.2 186,71.2 186,71.2 186.1,71.2 186.1,71.2 186.1,71.1 186.1,71.1 186.2,71.1 
		186.2,71.1 186.2,71.1 186.3,71.1 186.3,71.1 186.3,71.1 186.3,71 186.4,71 186.4,71 186.4,71 186.5,71 186.5,71 186.5,71 
		186.5,71 186.6,71 186.6,71 186.6,70.9 186.7,70.9 186.7,70.9 186.7,70.9 186.7,70.9 186.8,70.9 186.8,70.9 186.8,70.9 186.9,70.9 
		186.9,70.9 186.9,70.9 186.9,70.9 187,70.9 187,70.9 187,70.9 187.1,70.9 187.1,70.9 187.1,70.9 187.1,70.9 	"/>
	<path class="st13" d="M221.7,58.4c1.8-2.8,3.1-6.2,3.4-9.7"/>
	<path class="st14" d="M189.1,81.8c0,0-3.9,3.7-6.1,4.2c-2.7,0.6-3.6-1.7-3.6-1.7"/>
	<polygon class="st15" points="146.6,204.6 146.6,204.6 146.6,204.7 146.6,204.7 146.6,204.7 146.7,204.7 146.7,204.8 146.7,204.8 
		146.7,204.8 146.8,204.9 146.8,204.9 146.8,204.9 146.8,205 146.9,205 146.9,205 146.9,205 147,205.1 147,205.1 147,205.1 
		147,205.2 147.1,205.2 147.1,205.2 147.1,205.3 147.2,205.3 147.2,205.3 147.3,205.4 147.3,205.4 147.3,205.4 147.4,205.5 
		147.4,205.5 147.4,205.5 147.5,205.6 147.5,205.6 147.6,205.6 147.6,205.7 147.6,205.7 147.7,205.7 147.7,205.7 147.8,205.8 
		147.8,205.8 147.9,205.8 147.9,205.9 147.9,205.9 148,205.9 148,206 148.1,206 148.1,206 148.2,206.1 148.2,206.1 148.3,206.1 
		148.3,206.2 148.4,206.2 148.4,206.2 148.5,206.2 148.5,206.3 148.6,206.3 148.6,206.3 148.7,206.4 148.7,206.4 148.8,206.4 
		148.9,206.4 148.9,206.5 149,206.5 149,206.5 149.1,206.6 149.1,206.6 149.2,206.6 149.3,206.6 149.3,206.7 149.4,206.7 
		149.4,206.7 149.5,206.8 149.5,206.8 149.6,206.8 149.7,206.8 149.7,206.9 149.8,206.9 149.9,206.9 149.9,206.9 150,207 150,207 
		150.1,207 150.2,207 150.2,207.1 150.3,207.1 150.4,207.1 150.4,207.1 150.5,207.1 150.6,207.2 150.6,207.2 150.7,207.2 
		150.8,207.2 150.8,207.2 150.9,207.3 151,207.3 151,207.3 151.1,207.3 151.2,207.3 151.2,207.4 151.3,207.4 151.4,207.4 
		151.5,207.4 151.5,207.4 151.6,207.4 151.7,207.5 151.7,207.5 151.8,207.5 151.9,207.5 152,207.5 152,207.5 152.1,207.6 
		152.2,207.6 152.2,207.6 152.3,207.6 152.4,207.6 152.5,207.6 152.5,207.6 152.6,207.6 152.7,207.6 152.8,207.7 152.8,207.7 
		152.9,207.7 153,207.7 153.1,207.7 153.1,207.7 153.2,207.7 153.3,207.7 153.4,207.7 153.5,207.7 153.5,207.7 153.9,208.1 
		153.5,208.4 153.4,208.4 153.3,208.4 153.3,208.4 153.2,208.4 153.1,208.4 153,208.4 152.9,208.4 152.9,208.4 152.8,208.4 
		152.7,208.4 152.6,208.4 152.5,208.4 152.5,208.4 152.4,208.4 152.3,208.3 152.2,208.3 152.1,208.3 152.1,208.3 152,208.3 
		151.9,208.3 151.8,208.3 151.7,208.3 151.7,208.3 151.6,208.2 151.5,208.2 151.4,208.2 151.4,208.2 151.3,208.2 151.2,208.2 
		151.1,208.2 151.1,208.2 151,208.1 150.9,208.1 150.8,208.1 150.8,208.1 150.7,208.1 150.6,208 150.5,208 150.5,208 150.4,208 
		150.3,208 150.3,208 150.2,207.9 150.1,207.9 150,207.9 150,207.9 149.9,207.9 149.8,207.8 149.8,207.8 149.7,207.8 149.6,207.8 
		149.5,207.7 149.5,207.7 149.4,207.7 149.3,207.7 149.3,207.6 149.2,207.6 149.1,207.6 149.1,207.6 149,207.5 148.9,207.5 
		148.9,207.5 148.8,207.5 148.8,207.4 148.7,207.4 148.6,207.4 148.6,207.4 148.5,207.3 148.4,207.3 148.4,207.3 148.3,207.2 
		148.3,207.2 148.2,207.2 148.1,207.2 148.1,207.1 148,207.1 148,207.1 147.9,207 147.8,207 147.8,207 147.7,206.9 147.7,206.9 
		147.6,206.9 147.6,206.8 147.5,206.8 147.5,206.8 147.4,206.7 147.3,206.7 147.3,206.7 147.2,206.6 147.2,206.6 147.1,206.6 
		147.1,206.5 147,206.5 147,206.5 146.9,206.4 146.9,206.4 146.8,206.4 146.8,206.3 146.8,206.3 146.7,206.3 146.7,206.2 
		146.6,206.2 146.6,206.2 146.5,206.1 146.5,206.1 146.4,206.1 146.4,206 146.4,206 146.3,205.9 146.3,205.9 146.2,205.9 
		146.2,205.8 146.2,205.8 146.1,205.8 146.1,205.7 146,205.7 146,205.6 146,205.6 145.9,205.6 145.9,205.5 145.9,205.5 145.8,205.5 
		145.8,205.4 145.8,205.4 145.7,205.3 145.7,205.3 145.7,205.3 145.7,205.3 145.6,204.8 145.8,204.5 145.8,204.5 146.2,204.4 	"/>
	<polygon class="st15" points="131.5,189.4 131.7,189.8 131.7,189.8 131.6,190.2 131.2,190.3 131.2,190.3 131.1,190.3 131,190.3 
		131,190.3 130.9,190.3 130.8,190.3 130.8,190.3 130.7,190.3 130.6,190.3 130.5,190.3 130.5,190.3 130.4,190.3 130.3,190.3 
		130.3,190.3 130.2,190.4 130.1,190.4 130.1,190.4 130,190.4 130,190.4 129.9,190.4 129.8,190.4 129.8,190.4 129.7,190.4 
		129.6,190.4 129.6,190.4 129.5,190.5 129.4,190.5 129.4,190.5 129.3,190.5 129.3,190.5 129.2,190.5 129.1,190.5 129.1,190.5 
		129,190.6 129,190.6 128.9,190.6 128.9,190.6 128.8,190.6 128.7,190.6 128.7,190.7 128.6,190.7 128.6,190.7 128.5,190.7 
		128.5,190.7 128.4,190.7 128.3,190.8 128.3,190.8 128.2,190.8 128.2,190.8 128.1,190.9 128.1,190.9 128,190.9 128,190.9 
		127.9,190.9 127.9,191 127.8,191 127.8,191 127.7,191 127.7,191.1 127.6,191.1 127.6,191.1 127.5,191.1 127.5,191.2 127.4,191.2 
		127.4,191.2 127.3,191.3 127.3,191.3 127.2,191.3 127.2,191.3 127.1,191.4 127.1,191.4 127.1,191.4 127,191.5 127,191.5 
		126.9,191.5 126.9,191.6 126.8,191.6 126.8,191.6 126.7,191.7 126.7,191.7 126.7,191.7 126.6,191.8 126.6,191.8 126.5,191.8 
		126.5,191.9 126.5,191.9 126.4,191.9 126.4,192 126.4,192 126.3,192 126.3,192.1 126.2,192.1 126.2,192.2 126.2,192.2 126.1,192.2 
		126.1,192.3 126.1,192.3 126,192.4 126,192.4 126,192.4 125.9,192.5 125.9,192.5 125.9,192.6 125.8,192.6 125.8,192.6 125.8,192.7 
		125.7,192.7 125.7,192.8 125.7,192.8 125.7,192.9 125.6,192.9 125.6,193 125.6,193 125.5,193 125.5,193.1 125.5,193.1 125.5,193.2 
		125.4,193.2 125.4,193.3 125.4,193.3 125.4,193.4 125.3,193.4 125.3,193.5 125.3,193.5 125.3,193.6 125.3,193.6 125.2,193.7 
		125.2,193.7 125.2,193.8 124.8,194 124.5,193.5 124.6,193.5 124.6,193.4 124.6,193.4 124.6,193.3 124.6,193.2 124.7,193.2 
		124.7,193.1 124.7,193.1 124.7,193 124.8,193 124.8,192.9 124.8,192.9 124.8,192.8 124.9,192.7 124.9,192.7 124.9,192.6 125,192.6 
		125,192.5 125,192.5 125,192.4 125.1,192.4 125.1,192.3 125.1,192.3 125.2,192.2 125.2,192.2 125.2,192.1 125.3,192.1 125.3,192 
		125.3,192 125.4,191.9 125.4,191.9 125.5,191.8 125.5,191.8 125.5,191.7 125.6,191.7 125.6,191.6 125.6,191.6 125.7,191.5 
		125.7,191.5 125.8,191.4 125.8,191.4 125.8,191.4 125.9,191.3 125.9,191.3 126,191.2 126,191.2 126.1,191.1 126.1,191.1 
		126.2,191.1 126.2,191 126.3,191 126.3,190.9 126.3,190.9 126.4,190.9 126.4,190.8 126.5,190.8 126.5,190.7 126.6,190.7 
		126.6,190.7 126.7,190.6 126.7,190.6 126.8,190.6 126.8,190.5 126.9,190.5 127,190.4 127,190.4 127.1,190.4 127.1,190.3 
		127.2,190.3 127.2,190.3 127.3,190.2 127.3,190.2 127.4,190.2 127.5,190.1 127.5,190.1 127.6,190.1 127.6,190.1 127.7,190 
		127.7,190 127.8,190 127.9,189.9 127.9,189.9 128,189.9 128.1,189.9 128.1,189.8 128.2,189.8 128.2,189.8 128.3,189.8 128.4,189.7 
		128.4,189.7 128.5,189.7 128.6,189.7 128.6,189.7 128.7,189.6 128.8,189.6 128.8,189.6 128.9,189.6 129,189.5 129,189.5 
		129.1,189.5 129.2,189.5 129.2,189.5 129.3,189.5 129.4,189.4 129.4,189.4 129.5,189.4 129.6,189.4 129.7,189.4 129.7,189.4 
		129.8,189.4 129.9,189.3 129.9,189.3 130,189.3 130.1,189.3 130.2,189.3 130.2,189.3 130.3,189.3 130.4,189.3 130.5,189.3 
		130.5,189.3 130.6,189.2 130.7,189.2 130.8,189.2 130.8,189.2 130.9,189.2 131,189.2 131.1,189.2 131.2,189.2 131.2,189.2 	"/>
	<polygon class="st15" points="132.2,189.6 132.2,189.6 132.2,189.6 132.3,190 132.1,190.3 132.1,190.3 132.1,190.4 132,190.4 
		132,190.4 132,190.4 132,190.5 131.9,190.5 131.9,190.5 131.9,190.5 131.8,190.6 131.8,190.6 131.8,190.6 131.7,190.7 131.7,190.7 
		131.7,190.7 131.7,190.8 131.6,190.8 131.6,190.8 131.6,190.9 131.5,190.9 131.5,191 131.5,191 131.4,191 131.4,191.1 131.4,191.1 
		131.3,191.2 131.3,191.2 131.3,191.3 131.2,191.3 131.2,191.4 131.2,191.4 131.1,191.5 131.1,191.5 131.1,191.6 131,191.6 
		131,191.7 131,191.7 130.9,191.8 130.9,191.8 130.9,191.9 130.8,191.9 130.8,192 130.8,192.1 130.7,192.1 130.7,192.2 130.7,192.2 
		130.6,192.3 130.6,192.3 130.6,192.4 130.5,192.5 130.5,192.5 130.5,192.6 130.5,192.7 130.4,192.7 130.4,192.8 130.4,192.8 
		130.3,192.9 130.3,193 130.3,193 130.3,193.1 130.2,193.2 130.2,193.2 130.2,193.3 130.2,193.4 130.1,193.4 130.1,193.5 
		130.1,193.6 130,193.7 130,193.7 130,193.8 130,193.9 130,193.9 129.9,194 129.9,194.1 129.9,194.1 129.9,194.2 129.8,194.3 
		129.8,194.4 129.8,194.4 129.8,194.5 129.8,194.6 129.8,194.6 129.7,194.7 129.7,194.8 129.7,194.9 129.7,194.9 129.7,195 
		129.7,195.1 129.6,195.2 129.6,195.2 129.6,195.3 129.6,195.4 129.6,195.4 129.6,195.5 129.6,195.6 129.6,195.7 129.5,195.7 
		129.5,195.8 129.5,195.9 129.5,196 129.5,196 129.5,196.1 129.5,196.2 129.5,196.3 129.5,196.3 129.5,196.4 129.5,196.5 
		129.5,196.5 129.5,196.5 129.5,196.6 129.5,196.6 129.5,196.7 129.5,196.7 129.5,196.7 129.5,196.8 129.5,196.8 129.5,196.8 
		129.5,196.9 129.5,196.9 129.5,196.9 129.5,197 129.5,197 129.5,197 129.5,197.1 129.5,197.1 129.5,197.2 129.5,197.2 129.5,197.2 
		129.5,197.3 129.5,197.3 129.5,197.3 129.5,197.4 129.5,197.4 129.6,197.4 129.6,197.5 129.6,197.5 129.6,197.5 129.6,197.6 
		129.6,197.6 129.6,197.6 129.6,197.7 129.6,197.7 129.6,197.7 129.6,197.8 129.6,197.8 129.6,197.8 129.6,197.9 129.6,197.9 
		129.6,198 129.7,198 129.7,198 129.4,198.4 129,198.2 129,198.2 129,198.1 129,198.1 129,198.1 128.9,198 128.9,198 128.9,197.9 
		128.9,197.9 128.9,197.9 128.9,197.8 128.9,197.8 128.9,197.7 128.9,197.7 128.9,197.7 128.9,197.6 128.8,197.6 128.8,197.6 
		128.8,197.5 128.8,197.5 128.8,197.4 128.8,197.4 128.8,197.4 128.8,197.3 128.8,197.3 128.8,197.2 128.8,197.2 128.8,197.2 
		128.8,197.1 128.8,197.1 128.8,197 128.8,197 128.8,197 128.8,196.9 128.8,196.9 128.7,196.8 128.7,196.8 128.7,196.8 128.7,196.7 
		128.7,196.7 128.7,196.6 128.7,196.6 128.7,196.6 128.7,196.5 128.7,196.5 128.7,196.4 128.7,196.3 128.7,196.2 128.7,196.2 
		128.7,196.1 128.7,196 128.7,195.9 128.7,195.8 128.7,195.7 128.7,195.7 128.8,195.6 128.8,195.5 128.8,195.4 128.8,195.3 
		128.8,195.3 128.8,195.2 128.8,195.1 128.8,195 128.8,194.9 128.8,194.9 128.9,194.8 128.9,194.7 128.9,194.6 128.9,194.5 
		128.9,194.5 128.9,194.4 128.9,194.3 129,194.2 129,194.1 129,194.1 129,194 129,193.9 129.1,193.8 129.1,193.8 129.1,193.7 
		129.1,193.6 129.1,193.5 129.2,193.4 129.2,193.4 129.2,193.3 129.2,193.2 129.3,193.1 129.3,193.1 129.3,193 129.3,192.9 
		129.4,192.8 129.4,192.8 129.4,192.7 129.4,192.6 129.5,192.6 129.5,192.5 129.5,192.4 129.6,192.3 129.6,192.3 129.6,192.2 
		129.6,192.1 129.7,192.1 129.7,192 129.7,191.9 129.8,191.9 129.8,191.8 129.8,191.7 129.9,191.7 129.9,191.6 129.9,191.5 
		130,191.5 130,191.4 130,191.3 130.1,191.3 130.1,191.2 130.1,191.1 130.2,191.1 130.2,191 130.2,191 130.3,190.9 130.3,190.9 
		130.3,190.8 130.4,190.7 130.4,190.7 130.4,190.6 130.5,190.6 130.5,190.5 130.5,190.5 130.6,190.4 130.6,190.4 130.6,190.3 
		130.7,190.3 130.7,190.2 130.8,190.2 130.8,190.1 130.8,190.1 130.9,190 130.9,190 130.9,189.9 131,189.9 131,189.9 131.1,189.8 
		131.1,189.8 131.1,189.7 131.2,189.7 131.2,189.7 131.2,189.6 131.3,189.6 131.3,189.5 131.4,189.5 131.4,189.5 131.4,189.5 
		131.8,189.4 	"/>
	<polygon class="st16" points="-10.4,214.4 125.5,216.6 215.1,266.7 -25.1,266.6 	"/>
	<polygon class="st13" points="-10.4,214.4 125.5,216.6 215.1,266.7 -25.5,266.6 	"/>
	<polygon class="st16" points="-19.2,283.9 208.5,284.8 208.7,273.9 215,273.5 215.1,266.7 -19.2,266.7 	"/>
	<rect x="-19.2" y="266.7" class="st13" width="234.2" height="6.9"/>
	<path class="st17" d="M51.1,213.6c0,0,21.4,5.7,41.7,5.3c27.9-0.6,42.2-5.8,42.2-5.8s-5.8,27.8-41.9,28.7
		C55.9,242.7,51.1,213.6,51.1,213.6"/>
	<path class="st18" d="M51.1,213.6c0,0,21.4,5.7,41.7,5.3c27.9-0.6,42.2-5.8,42.2-5.8s-5.8,27.8-41.9,28.7
		C55.9,242.7,51.1,213.6,51.1,213.6z"/>
	<path class="st17" d="M92.8,203.2c23,0,41.7,4.1,41.7,9.2c0,5.1-18.7,9.2-41.7,9.2s-41.7-4.1-41.7-9.2
		C51.1,207.3,69.8,203.2,92.8,203.2"/>
</g>
<g>
	<defs>
		<path id="SVGID_11_" d="M51.1,212.4c0,5.1,18.7,9.2,41.7,9.2c23,0,41.7-4.1,41.7-9.2s-18.7-9.2-41.7-9.2
			C69.8,203.2,51.1,207.3,51.1,212.4"/>
	</defs>
	<clipPath id="SVGID_12_">
		<use xlink:href="#SVGID_11_"  style="overflow:visible;"/>
	</clipPath>
	<path class="st19" d="M58.3,220.3c0,0-2.1-3.4,4.3-6.1c4.8-2,12.4,0.1,9-1.8c-4.9-2.8,7.1-4.2,12.2-4c5,0.2,9,3.2,9,3.2
		s-0.3-2,5.7-2c6,0,8.5,3.4,8.5,3.4s4.9-2.6,9.3-1.4c4.4,1.2,5,3.5,5,3.5s8.2-2.1,7.4,2.1c-0.5,2.4-2.7,7.7-2.7,7.7
		C101.5,230.2,78.8,229.2,58.3,220.3"/>
	<path class="st20" d="M58.3,220.3c0,0-2.1-3.4,4.3-6.1c4.8-2,12.4,0.1,9-1.8c-4.9-2.8,7.1-4.2,12.2-4c5,0.2,9,3.2,9,3.2
		s-0.3-2,5.7-2c6,0,8.5,3.4,8.5,3.4s4.9-2.6,9.3-1.4c4.4,1.2,5,3.5,5,3.5s8.2-2.1,7.4,2.1c-0.5,2.4-2.7,7.7-2.7,7.7
		C101.5,230.2,78.8,229.2,58.3,220.3z"/>
	<path class="st21" d="M77.1,217.2c2-2.1,4.9-2,6.8,0"/>
	<path class="st21" d="M95.3,215c2-2.1,4.9-2,6.8,0"/>
	<path class="st21" d="M64.6,217c1.1-1.1,2.6-1.1,3.7,0"/>
	<path class="st21" d="M81.4,211.2c1.1-1.1,2.6-1.1,3.7,0"/>
	<path class="st21" d="M92.4,219.6c1.1-1.1,2.6-1.1,3.7,0"/>
	<path class="st21" d="M110.2,217.8c2-2.1,4.9-2,6.8,0"/>
</g>
<g>
	<defs>
		<rect id="SVGID_13_" width="283.5" height="283.5"/>
	</defs>
	<clipPath id="SVGID_14_">
		<use xlink:href="#SVGID_13_"  style="overflow:visible;"/>
	</clipPath>
	<ellipse class="st22" cx="92.8" cy="212.4" rx="41.7" ry="9.2"/>
	<path class="st23" d="M84.5,175.6c-9.7,9.7,6.9,11.7,1.1,22.6"/>
	<path class="st23" d="M89.5,164.9c-6.6,5.6,3.7,7.8-0.5,14.3"/>
	<path class="st23" d="M95.7,183.7c-6.6,5.6,3.7,7.8-0.5,14.3"/>
	<path class="st23" d="M80.2,190c-3.8,3.3,2.2,4.5-0.3,8.3"/>
	<path class="st24" d="M98.6,244.7c-6.4-1.2-12.4-4.6-17.8-10.7c0,0-2.8,4.4,0.7,8.2c3,3.3,11.3,4.2,11.3,4.2L98.6,244.7z"/>
	<path class="st22" d="M98.6,244.7c-6.4-1.2-12.4-4.6-17.8-10.7c0,0-2.8,4.4,0.7,8.2c3,3.3,11.3,4.2,11.3,4.2L98.6,244.7z"/>
	<path class="st24" d="M122.1,237.9l-20,5.2c-14.4-2.5-38.9,0-45.4,0.4c0,0-0.9,2.8,3.9,3.5c4.8,0.7,16.5-0.1,16.5-0.1l-25.6,1.8
		c0,0-2.7,4.7,7.5,4c7.3-0.5,19.3-2,19.3-2l0.2,1.3l-23.9,3.1c0,0-1.8,2.7,3,3.1c4.8,0.4,21.2-1.8,21.2-1.8l-12.8,3.9
		c0,0-1.5,2.7,3.4,2.5c4.8-0.2,13-2,20.5-3.9c7.5-1.9,13-6,13-6l24.5-5.8L122.1,237.9z"/>
	<path class="st22" d="M122.1,237.9l-20,5.2c-14.4-2.5-38.9,0-45.4,0.4c0,0-0.9,2.8,3.9,3.5c4.8,0.7,16.5-0.1,16.5-0.1l-25.6,1.8
		c0,0-2.7,4.7,7.5,4c7.3-0.5,19.3-2,19.3-2l0.2,1.3l-23.9,3.1c0,0-1.8,2.7,3,3.1c4.8,0.4,21.2-1.8,21.2-1.8l-12.8,3.9
		c0,0-1.5,2.7,3.4,2.5c4.8-0.2,13-2,20.5-3.9c7.5-1.9,13-6,13-6l24.5-5.8L122.1,237.9z"/>
	<path class="st25" d="M122.8,258l-9.7-19.8c17.2-5.9,40.3-18.3,62.6-30.6c0,0,15-66.1,20.5-69.7c11.8-7.6,20.2,1,18.3,17.9
		c-1.5,14.1-13.6,61.3-23.1,73.2C188.1,233.1,144,249.6,122.8,258"/>
	<path class="st26" d="M122.8,258l-9.7-19.8c17.2-5.9,40.3-18.3,62.6-30.6c0,0,15-66.1,20.5-69.7c11.8-7.6,20.2,1,18.3,17.9
		c-1.5,14.1-13.6,61.3-23.1,73.2C188.1,233.1,144,249.6,122.8,258z"/>
	<polygon class="st27" points="176.4,207.2 176.6,207.5 176.6,207.5 176.6,207.6 176.6,207.7 176.6,207.7 176.6,207.8 176.6,207.9 
		176.6,207.9 176.6,208 176.6,208.1 176.6,208.2 176.6,208.2 176.7,208.3 176.7,208.4 176.7,208.4 176.7,208.5 176.7,208.5 
		176.7,208.6 176.7,208.7 176.7,208.7 176.7,208.8 176.8,208.9 176.8,208.9 176.8,209 176.8,209.1 176.8,209.1 176.8,209.2 
		176.9,209.2 176.9,209.3 176.9,209.4 176.9,209.4 176.9,209.5 176.9,209.5 177,209.6 177,209.7 177,209.7 177,209.8 177,209.8 
		177.1,209.9 177.1,209.9 177.1,210 177.1,210 177.1,210.1 177.2,210.2 177.2,210.2 177.2,210.3 177.2,210.3 177.3,210.4 
		177.3,210.4 177.3,210.5 177.3,210.5 177.4,210.6 177.4,210.6 177.4,210.7 177.5,210.7 177.5,210.8 177.5,210.8 177.5,210.9 
		177.6,210.9 177.6,211 177.6,211 177.7,211.1 177.7,211.1 177.7,211.2 177.7,211.2 177.8,211.2 177.8,211.3 177.8,211.3 
		177.9,211.4 177.9,211.4 177.9,211.5 178,211.5 178,211.5 178,211.6 178.1,211.6 178.1,211.7 178.2,211.7 178.2,211.8 178.2,211.8 
		178.3,211.8 178.3,211.9 178.3,211.9 178.4,211.9 178.4,212 178.4,212 178.5,212.1 178.5,212.1 178.6,212.1 178.6,212.2 
		178.6,212.2 178.7,212.2 178.7,212.3 178.8,212.3 178.8,212.3 178.8,212.4 178.9,212.4 178.9,212.4 179,212.5 179,212.5 
		179.1,212.5 179.1,212.6 179.1,212.6 179.2,212.6 179.2,212.6 179.3,212.7 179.3,212.7 179.4,212.7 179.4,212.7 179.5,212.8 
		179.5,212.8 179.6,212.8 179.6,212.8 179.6,212.9 179.7,212.9 179.7,212.9 179.8,212.9 179.8,213 179.9,213 179.9,213 180,213 
		180,213 180.1,213.1 180.1,213.1 180.2,213.1 180.2,213.1 180.3,213.1 180.3,213.2 180.4,213.2 180.4,213.2 180.5,213.2 
		180.7,213.6 180.3,213.9 180.3,213.9 180.2,213.8 180.1,213.8 180.1,213.8 180,213.8 180,213.8 179.9,213.8 179.8,213.7 
		179.8,213.7 179.7,213.7 179.7,213.7 179.6,213.7 179.6,213.6 179.5,213.6 179.4,213.6 179.4,213.6 179.3,213.5 179.3,213.5 
		179.2,213.5 179.2,213.5 179.1,213.4 179.1,213.4 179,213.4 178.9,213.4 178.9,213.3 178.8,213.3 178.8,213.3 178.7,213.2 
		178.7,213.2 178.6,213.2 178.6,213.1 178.5,213.1 178.5,213.1 178.4,213 178.4,213 178.3,213 178.3,212.9 178.2,212.9 178.2,212.9 
		178.1,212.8 178.1,212.8 178,212.8 178,212.7 177.9,212.7 177.9,212.6 177.8,212.6 177.8,212.6 177.8,212.5 177.7,212.5 
		177.7,212.4 177.6,212.4 177.6,212.3 177.5,212.3 177.5,212.3 177.4,212.2 177.4,212.2 177.4,212.1 177.3,212.1 177.3,212 
		177.2,212 177.2,211.9 177.2,211.9 177.1,211.8 177.1,211.8 177,211.7 177,211.7 177,211.6 176.9,211.6 176.9,211.5 176.8,211.5 
		176.8,211.4 176.8,211.4 176.7,211.3 176.7,211.2 176.7,211.2 176.6,211.1 176.6,211.1 176.6,211 176.5,211 176.5,210.9 
		176.5,210.9 176.4,210.8 176.4,210.7 176.4,210.7 176.3,210.6 176.3,210.6 176.3,210.5 176.2,210.4 176.2,210.4 176.2,210.3 
		176.2,210.2 176.1,210.2 176.1,210.1 176.1,210.1 176.1,210 176,209.9 176,209.9 176,209.8 176,209.7 175.9,209.7 175.9,209.6 
		175.9,209.5 175.9,209.5 175.8,209.4 175.8,209.3 175.8,209.3 175.8,209.2 175.8,209.1 175.7,209 175.7,209 175.7,208.9 
		175.7,208.8 175.7,208.8 175.6,208.7 175.6,208.6 175.6,208.5 175.6,208.5 175.6,208.4 175.6,208.3 175.6,208.3 175.5,208.2 
		175.5,208.1 175.5,208 175.5,207.9 175.5,207.9 175.5,207.8 175.5,207.7 175.5,207.6 175.5,207.6 175.6,207.2 176,207 176,207 	"/>
	<polygon class="st27" points="217.3,162.4 217.3,162.4 217.6,162.7 217.6,163.1 217.6,163.1 217.6,163.2 217.5,163.4 217.4,163.5 
		217.4,163.6 217.3,163.8 217.2,163.9 217.1,164.1 217.1,164.2 217,164.4 216.9,164.5 216.8,164.7 216.7,164.9 216.7,165 
		216.6,165.2 216.5,165.2 216.5,165.3 216.5,165.4 216.4,165.5 216.4,165.6 216.3,165.6 216.3,165.7 216.2,165.8 216.2,165.9 
		216.2,166 216.1,166 216.1,166.1 216,166.2 216,166.3 215.9,166.3 215.9,166.4 215.8,166.5 215.8,166.6 215.7,166.7 215.7,166.7 
		215.7,166.8 215.6,166.9 215.6,167 215.5,167 215.5,167.1 215.4,167.2 215.4,167.3 215.3,167.3 215.3,167.4 215.2,167.5 
		215.2,167.6 215.1,167.6 215.1,167.7 215,167.8 215,167.9 214.9,167.9 214.9,168 214.8,168.1 214.8,168.1 214.8,168.2 214.7,168.3 
		214.7,168.3 214.6,168.4 214.6,168.5 214.5,168.6 214.5,168.6 214.4,168.7 214.4,168.7 214.3,168.8 214.3,168.9 214.2,168.9 
		214.2,169 214.1,169.1 214.1,169.1 214,169.2 214,169.2 213.9,169.3 213.9,169.4 213.8,169.4 213.8,169.5 213.7,169.5 213.7,169.6 
		213.6,169.6 213.6,169.7 213.5,169.7 213.5,169.8 213.4,169.8 213.4,169.9 213.3,169.9 213.3,170 213.2,170 213.2,170.1 
		213.1,170.1 213.1,170.2 213,170.2 213,170.2 213,170.3 212.9,170.3 212.9,170.3 212.9,170.3 212.9,170.3 212.8,170.4 212.8,170.4 
		212.8,170.4 212.8,170.4 212.8,170.4 212.7,170.4 212.7,170.5 212.7,170.5 212.7,170.5 212.6,170.5 212.6,170.5 212.6,170.5 
		212.6,170.5 212.5,170.6 212.5,170.6 212.5,170.6 212.5,170.6 212.4,170.6 212.4,170.6 212.4,170.6 212.4,170.7 212.3,170.7 
		212.3,170.7 212.3,170.7 212.3,170.7 212.2,170.7 212.2,170.7 212.2,170.7 212.2,170.7 212.1,170.7 212.1,170.8 212.1,170.8 
		212.1,170.8 212,170.8 212,170.8 212,170.8 212,170.8 211.9,170.8 211.9,170.8 211.9,170.8 211.8,170.8 211.8,170.8 211.8,170.8 
		211.4,170.5 211.7,170.1 211.7,170.1 211.7,170.1 211.8,170.1 211.8,170.1 211.8,170.1 211.8,170.1 211.8,170.1 211.8,170.1 
		211.8,170.1 211.9,170.1 211.9,170.1 211.9,170.1 211.9,170.1 211.9,170.1 211.9,170.1 211.9,170.1 212,170.1 212,170.1 212,170 
		212,170 212,170 212,170 212.1,170 212.1,170 212.1,170 212.1,170 212.1,170 212.1,170 212.2,169.9 212.2,169.9 212.2,169.9 
		212.2,169.9 212.2,169.9 212.3,169.9 212.3,169.9 212.3,169.9 212.3,169.8 212.3,169.8 212.3,169.8 212.4,169.8 212.4,169.8 
		212.4,169.8 212.4,169.8 212.4,169.7 212.5,169.7 212.5,169.7 212.5,169.7 212.5,169.7 212.6,169.6 212.6,169.6 212.6,169.6 
		212.7,169.5 212.7,169.5 212.8,169.4 212.8,169.4 212.8,169.4 212.9,169.3 212.9,169.3 213,169.2 213,169.2 213,169.1 213.1,169.1 
		213.1,169 213.2,169 213.2,168.9 213.3,168.9 213.3,168.8 213.3,168.7 213.4,168.7 213.4,168.6 213.5,168.6 213.5,168.5 
		213.6,168.4 213.6,168.4 213.7,168.3 213.7,168.3 213.7,168.2 213.8,168.1 213.8,168.1 213.9,168 213.9,167.9 214,167.9 214,167.8 
		214,167.7 214.1,167.7 214.1,167.6 214.2,167.5 214.2,167.5 214.3,167.4 214.3,167.3 214.3,167.2 214.4,167.2 214.4,167.1 
		214.5,167 214.5,167 214.6,166.9 214.6,166.8 214.6,166.7 214.7,166.7 214.7,166.6 214.8,166.5 214.8,166.4 214.9,166.4 
		214.9,166.3 214.9,166.2 215,166.1 215,166 215.1,166 215.1,165.9 215.1,165.8 215.2,165.7 215.2,165.7 215.3,165.6 215.3,165.5 
		215.3,165.4 215.4,165.3 215.4,165.3 215.5,165.2 215.5,165.1 215.5,165 215.6,165 215.6,164.9 215.6,164.8 215.7,164.7 
		215.8,164.6 215.8,164.4 215.9,164.3 216,164.1 216,163.9 216.1,163.8 216.2,163.6 216.2,163.5 216.3,163.3 216.4,163.2 
		216.4,163.1 216.5,162.9 216.5,162.8 216.6,162.6 216.6,162.6 216.9,162.3 	"/>
	<polygon class="st27" points="176.4,206.6 176.4,206.6 176.4,206.7 176.5,206.7 176.5,206.7 176.5,206.7 176.5,206.8 176.6,206.8 
		176.6,206.8 176.6,206.8 176.7,206.9 176.7,206.9 176.7,206.9 176.8,207 176.8,207 176.8,207 176.9,207 176.9,207.1 177,207.1 
		177,207.1 177,207.2 177.1,207.2 177.1,207.2 177.2,207.2 177.2,207.3 177.3,207.3 177.3,207.3 177.4,207.4 177.4,207.4 
		177.5,207.4 177.5,207.5 177.6,207.5 177.6,207.5 177.7,207.5 177.7,207.6 177.8,207.6 177.8,207.6 177.9,207.7 177.9,207.7 
		178,207.7 178.1,207.7 178.1,207.8 178.2,207.8 178.2,207.8 178.3,207.8 178.4,207.9 178.4,207.9 178.5,207.9 178.6,207.9 
		178.6,208 178.7,208 178.8,208 178.8,208 178.9,208.1 178.9,208.1 179,208.1 179.1,208.1 179.2,208.2 179.2,208.2 179.3,208.2 
		179.4,208.2 179.4,208.3 179.5,208.3 179.6,208.3 179.6,208.3 179.7,208.3 179.8,208.4 179.9,208.4 179.9,208.4 180,208.4 
		180.1,208.4 180.1,208.4 180.2,208.5 180.3,208.5 180.4,208.5 180.4,208.5 180.5,208.5 180.6,208.5 180.7,208.6 180.7,208.6 
		180.8,208.6 180.9,208.6 181,208.6 181,208.6 181.1,208.6 181.2,208.6 181.3,208.6 181.3,208.7 181.4,208.7 181.5,208.7 
		181.6,208.7 181.6,208.7 181.7,208.7 181.8,208.7 181.9,208.7 181.9,208.7 182,208.7 182.1,208.7 182.2,208.7 182.2,208.7 
		182.3,208.7 182.4,208.7 182.5,208.7 182.5,208.7 182.6,208.7 182.7,208.7 182.8,208.7 182.8,208.7 182.9,208.7 182.9,208.7 
		182.9,208.7 183,208.7 183,208.7 183,208.7 183.1,208.7 183.1,208.7 183.2,208.7 183.2,208.7 183.2,208.7 183.3,208.7 183.3,208.7 
		183.3,208.7 183.4,208.6 183.4,208.6 183.4,208.6 183.5,208.6 183.5,208.6 183.5,208.6 183.6,208.6 183.6,208.6 183.7,208.6 
		183.7,208.6 183.7,208.6 183.8,208.6 183.8,208.6 183.8,208.6 183.9,208.6 183.9,208.5 183.9,208.5 184,208.5 184,208.5 184,208.5 
		184.1,208.5 184.1,208.5 184.1,208.5 184.2,208.5 184.2,208.5 184.2,208.5 184.3,208.4 184.3,208.4 184.3,208.4 184.4,208.4 
		184.8,208.6 184.6,209.1 184.6,209.1 184.5,209.1 184.5,209.1 184.5,209.1 184.4,209.1 184.4,209.1 184.3,209.2 184.3,209.2 
		184.3,209.2 184.2,209.2 184.2,209.2 184.2,209.2 184.1,209.2 184.1,209.2 184,209.2 184,209.3 184,209.3 183.9,209.3 183.9,209.3 
		183.8,209.3 183.8,209.3 183.8,209.3 183.7,209.3 183.7,209.3 183.7,209.3 183.6,209.4 183.6,209.4 183.5,209.4 183.5,209.4 
		183.5,209.4 183.4,209.4 183.4,209.4 183.3,209.4 183.3,209.4 183.3,209.4 183.2,209.4 183.2,209.4 183.1,209.4 183.1,209.4 
		183.1,209.4 183,209.5 183,209.5 182.9,209.5 182.9,209.5 182.8,209.5 182.7,209.5 182.7,209.5 182.6,209.5 182.5,209.5 
		182.4,209.5 182.3,209.5 182.2,209.5 182.2,209.5 182.1,209.5 182,209.5 181.9,209.5 181.8,209.5 181.8,209.5 181.7,209.5 
		181.6,209.5 181.5,209.5 181.4,209.5 181.3,209.5 181.3,209.5 181.2,209.5 181.1,209.5 181,209.5 180.9,209.5 180.8,209.5 
		180.8,209.4 180.7,209.4 180.6,209.4 180.5,209.4 180.4,209.4 180.4,209.4 180.3,209.4 180.2,209.4 180.1,209.4 180,209.3 
		180,209.3 179.9,209.3 179.8,209.3 179.7,209.3 179.6,209.3 179.6,209.2 179.5,209.2 179.4,209.2 179.3,209.2 179.3,209.2 
		179.2,209.2 179.1,209.1 179,209.1 178.9,209.1 178.9,209.1 178.8,209 178.7,209 178.6,209 178.6,209 178.5,209 178.4,208.9 
		178.4,208.9 178.3,208.9 178.2,208.9 178.1,208.8 178.1,208.8 178,208.8 177.9,208.8 177.9,208.7 177.8,208.7 177.7,208.7 
		177.7,208.7 177.6,208.6 177.5,208.6 177.5,208.6 177.4,208.5 177.3,208.5 177.3,208.5 177.2,208.5 177.2,208.4 177.1,208.4 
		177,208.4 177,208.3 176.9,208.3 176.9,208.3 176.8,208.2 176.7,208.2 176.7,208.2 176.6,208.2 176.6,208.1 176.5,208.1 
		176.5,208.1 176.4,208 176.4,208 176.3,208 176.3,207.9 176.2,207.9 176.2,207.9 176.1,207.8 176.1,207.8 176,207.8 176,207.7 
		175.9,207.7 175.9,207.7 175.8,207.6 175.8,207.6 175.8,207.5 175.7,207.5 175.7,207.5 175.6,207.4 175.6,207.4 175.6,207.4 
		175.5,207 175.6,206.6 175.6,206.6 176,206.5 	"/>
	<line class="st24" x1="208.5" y1="273.7" x2="208.5" y2="287.8"/>
	<line class="st28" x1="208.5" y1="273.7" x2="208.5" y2="287.8"/>
	<polyline class="st23" points="230.3,232.8 220.7,282.4 226.8,287.1 236.9,234 	"/>
</g>
</svg>
