<?xml version="1.0" encoding="utf-8"?>
<!-- Generator: Adobe Illustrator 22.1.0, SVG Export Plug-In . SVG Version: 6.00 Build 0)  -->
<svg version="1.1" id="Слой_1" xmlns="http://www.w3.org/2000/svg" xmlns:xlink="http://www.w3.org/1999/xlink" x="0px" y="0px"
	 viewBox="0 0 283.5 283.5" style="enable-background:new 0 0 283.5 283.5;" xml:space="preserve">
<style type="text/css">
	.st0{clip-path:url(#SVGID_2_);fill:#5EC6F1;}
	.st1{clip-path:url(#SVGID_4_);fill:none;stroke:#12100B;stroke-linecap:round;stroke-linejoin:round;stroke-miterlimit:10;}
	.st2{clip-path:url(#SVGID_6_);fill:none;stroke:#12100B;stroke-linecap:round;stroke-linejoin:round;stroke-miterlimit:10;}
	.st3{clip-path:url(#SVGID_6_);fill-rule:evenodd;clip-rule:evenodd;fill:#FFFFFF;}
	.st4{clip-path:url(#SVGID_6_);fill-rule:evenodd;clip-rule:evenodd;fill:#12100B;}
	
		.st5{clip-path:url(#SVGID_6_);fill:none;stroke:#12100B;stroke-width:1.5;stroke-linecap:round;stroke-linejoin:round;stroke-miterlimit:10;}
	
		.st6{clip-path:url(#SVGID_6_);fill:none;stroke:#12100B;stroke-width:0.85;stroke-linecap:round;stroke-linejoin:round;stroke-miterlimit:10;}
	.st7{clip-path:url(#SVGID_6_);fill:#E31119;}
	.st8{clip-path:url(#SVGID_8_);fill-rule:evenodd;clip-rule:evenodd;fill:#12100B;}
	.st9{clip-path:url(#SVGID_8_);fill-rule:evenodd;clip-rule:evenodd;fill:#FFFFFF;}
	.st10{clip-path:url(#SVGID_10_);fill:none;stroke:#12100B;stroke-linecap:round;stroke-linejoin:round;stroke-miterlimit:10;}
	.st11{clip-path:url(#SVGID_12_);fill-rule:evenodd;clip-rule:evenodd;fill:#12100B;}
	.st12{clip-path:url(#SVGID_12_);fill-rule:evenodd;clip-rule:evenodd;fill:#FFFFFF;}
	.st13{clip-path:url(#SVGID_14_);fill:none;stroke:#12100B;stroke-linecap:round;stroke-linejoin:round;stroke-miterlimit:10;}
	.st14{clip-path:url(#SVGID_14_);fill-rule:evenodd;clip-rule:evenodd;fill:#FFFFFF;}
	
		.st15{clip-path:url(#SVGID_14_);fill:none;stroke:#12100B;stroke-width:0.85;stroke-linecap:round;stroke-linejoin:round;stroke-miterlimit:10;}
	.st16{clip-path:url(#SVGID_14_);fill-rule:evenodd;clip-rule:evenodd;fill:#12100B;}
</style>
<g>
	<defs>
		<rect id="SVGID_1_" width="283.5" height="283.5"/>
	</defs>
	<clipPath id="SVGID_2_">
		<use xlink:href="#SVGID_1_"  style="overflow:visible;"/>
	</clipPath>
	<path class="st0" d="M161.9,150.1c-3.7-7.1-9.6-8-12.8-9.3c-4.1-1.6-9.5-2.5-15.9-2.9c-4.9,8.2-15.4,13.2-25,9.4
		c-0.5-0.2-0.9-0.5-1.2-0.8c-3.2-1.1-6.1-3.1-8-5.8c-0.7-1.1-2.3-2.1-1.6-2.9c-6.8,0.2-16.9,0.8-21.8,6.1
		c-11.7,12.6-43.7,75.8-31.2,82.3c9,1.9,19.9-0.4,32.1-5.4l-0.7,39c0.2-0.1,1.2,0,6.9,2.3c8.3,3.3,24.4,0.5,30.1,1
		c5.3,0.5,15.4,3.1,23.3,0.6c9.6-3,9.1,1.5,17.7-4.5l-0.6-40.7c6.6,5.5,25.8,17.9,31.6,13.4C191.5,226.9,172.9,171.5,161.9,150.1
		 M76.5,200.5l-14.4,4.9l14.5-24L76.5,200.5z M153.2,199.5l0.3-20.3l10.8,27.5L153.2,199.5z"/>
</g>
<g>
	<defs>
		<path id="SVGID_3_" d="M76.7,181.4l-0.1,19.1l-14.4,4.9L76.7,181.4z M153.2,199.5l0.3-20.3l10.8,27.5L153.2,199.5z M104.9,121.7
			l-0.6,15.6c-0.6,0.7-21.6-1-28.7,6.6c-11.7,12.6-43.7,75.8-31.2,82.3c9,1.9,19.9-0.4,32-5.4l-0.7,39c-0.1,0,0,0.1,0,0.1l0-0.1
			c0.2-0.1,1.2,0,6.9,2.3c5.3,2.1,14,1.7,20.9,1.3c3.8-0.2,7.1-0.5,9.1-0.3c5.3,0.5,15.4,3.1,23.3,0.6c4-1.3,6.3-1.2,8.1-1.1
			c2.6,0.1,4.5,0.2,9.6-3.3l-0.6-40.7c6.6,5.5,25.8,17.9,31.6,13.4c6.8-5.3-11.8-60.6-22.9-82c-3.7-7.1-9.6-8-12.8-9.3
			c-5.6-2.2-15-3.1-23.7-3.1l-1.3-16.3L104.9,121.7z"/>
	</defs>
	<clipPath id="SVGID_4_">
		<use xlink:href="#SVGID_3_"  style="overflow:visible;"/>
	</clipPath>
	<path class="st1" d="M115.3,117c10.4,0,18.9,7.1,18.9,15.8c0,8.7-8.5,15.8-18.9,15.8s-18.9-7.1-18.9-15.8
		C96.4,124.1,104.9,117,115.3,117z"/>
</g>
<g>
	<defs>
		<rect id="SVGID_5_" width="283.5" height="283.5"/>
	</defs>
	<clipPath id="SVGID_6_">
		<use xlink:href="#SVGID_5_"  style="overflow:visible;"/>
	</clipPath>
	<path class="st2" d="M76.7,181.4l-14.5,24l14.4-4.9L76.7,181.4z M153.5,179.2l-0.3,20.3l11.2,7.2L153.5,179.2z M75.8,259.9l0.7-39
		c-12.2,5-23,7.3-32,5.4c-12.5-6.5,19.5-69.7,31.2-82.3c7-7.6,28.1-5.9,28.7-6.6l0.6-15.6l19.2-0.2l1.3,16.3
		c8.7,0,18.1,0.9,23.7,3.1c3.2,1.2,9.1,2.2,12.8,9.3c11,21.4,29.6,76.7,22.9,82c-5.8,4.5-25-7.9-31.6-13.4l0.6,40.7
		c-8.6,5.9-8.1,1.5-17.7,4.5c-7.9,2.5-18-0.1-23.3-0.6c-5.7-0.5-21.8,2.3-30.1-1C76.9,259.9,75.9,259.8,75.8,259.9L75.8,259.9
		C75.8,260,75.7,259.9,75.8,259.9z"/>
	<path class="st2" d="M52.2,204.7c2.1-0.7,4.8-1,9.8,0.3"/>
	<path class="st2" d="M164.4,206.6c3,1.2,5.6,3,8.4,6.5"/>
	<path class="st2" d="M164.4,206.2c2.2-0.2,4.9-0.2,7.7,1"/>
	<path class="st2" d="M47.8,213.2c2.9-2.7,5.5-4.9,14.3-7.8"/>
	<polyline class="st2" points="153.2,199.5 137.3,187.5 128.1,200.4 153.2,218.8 	"/>
	<path class="st2" d="M75.3,200.9l16-5.1l3.1,15.9c-4.6,2.5-10.1,5.3-17.7,8.7"/>
	<path class="st2" d="M73.4,167.3c0.9,2.9,3.8,5.1,3.8,5.1l-0.5,9.6"/>
	<path class="st2" d="M156.1,167.3c-0.8,2.2-2.4,3.6-2.4,3.6l-0.1,9.3"/>
	<path class="st2" d="M155,73.1c1.1,0,2.1,0.9,2.1,2c0,1.1-0.9,2-2.1,2c-1.1,0-2.1-0.9-2.1-2C153,74,153.9,73.1,155,73.1z"/>
	<path class="st2" d="M157.9,64.8c1.1,0,2.1,0.9,2.1,2c0,1.1-0.9,2-2.1,2c-1.1,0-2.1-0.9-2.1-2C155.8,65.7,156.7,64.8,157.9,64.8z"
		/>
	<path class="st3" d="M113.7,56.3c12.2,0,28.1,8,31,19.7c0.5,2.1,4.3,12.4,1.6,22.9c-0.9,3.7-1.6,4.9-3.1,8.7
		c-1.7,4.2-3.9,6.4-6.7,10.2c-5.1,6.8-14,14.8-21.7,15c-7.1,0.2-17.2-6.8-21.6-13.4c-3.3-5.1-10.6-17.1-12-25c-0.7-3.8,3-4.3,3-7.5
		C84.3,67.2,96,56.3,113.7,56.3"/>
	<path class="st2" d="M113.7,56.3c12.2,0,28.1,8,31,19.7c0.5,2.1,4.3,12.4,1.6,22.9c-0.9,3.7-1.6,4.9-3.1,8.7
		c-1.7,4.2-3.9,6.4-6.7,10.2c-5.1,6.8-14,14.8-21.7,15c-7.1,0.2-17.2-6.8-21.6-13.4c-3.3-5.1-10.6-17.1-12-25c-0.7-3.8,3-4.3,3-7.5
		C84.3,67.2,96,56.3,113.7,56.3z"/>
	<polygon class="st4" points="141.9,95.6 141.9,95.6 141.9,95.6 142,95.6 142,95.6 142,95.6 142,95.6 142.1,95.6 142.1,95.6 
		142.1,95.6 142.1,95.6 142.1,95.6 142.2,95.6 142.2,95.6 142.2,95.7 142.2,95.7 142.2,95.7 142.3,95.7 142.3,95.7 142.3,95.7 
		142.3,95.7 142.3,95.7 142.4,95.7 142.4,95.7 142.4,95.7 142.4,95.7 142.4,95.7 142.5,95.7 142.5,95.8 142.5,95.8 142.5,95.8 
		142.5,95.8 142.6,95.8 142.6,95.8 142.6,95.8 142.6,95.8 142.6,95.8 142.6,95.9 142.7,95.9 142.7,95.9 142.7,95.9 142.7,95.9 
		142.7,95.9 142.7,95.9 142.8,96 142.8,96 142.8,96 142.8,96 142.8,96 142.8,96 142.8,96 142.9,96.1 142.9,96.1 142.9,96.1 
		142.9,96.1 142.9,96.1 142.9,96.2 142.9,96.2 142.9,96.2 143,96.2 143,96.2 143,96.2 143,96.3 143,96.3 143,96.3 143,96.3 
		143,96.3 143,96.4 143,96.4 143,96.4 143,96.4 143,96.4 143.1,96.5 143.1,96.5 143.1,96.5 143.1,96.5 143.1,96.6 143.1,96.6 
		143.1,96.6 143.1,96.6 143.1,96.6 143.1,96.7 143.1,96.7 143.1,96.7 143.1,96.7 143.1,96.8 143.1,96.8 143.1,96.8 143.1,96.8 
		143.1,96.8 143.1,96.9 143.1,96.9 143.1,96.9 143.1,96.9 143.1,97 143.1,97 143.1,97 143.1,97 143.1,97.1 143.1,97.1 143.1,97.1 
		143.1,97.1 143.1,97.2 143,97.2 143,97.2 143,97.2 143,97.3 143,97.3 143,97.3 143,97.3 143,97.4 143,97.4 143,97.4 143,97.4 
		143,97.5 143,97.5 142.9,97.5 142.9,97.5 142.9,97.6 142.9,97.6 142.9,97.6 142.9,97.6 142.9,97.7 142.9,97.7 142.9,97.7 
		142.8,97.7 142.8,97.8 142.8,97.8 142.8,97.8 142.8,97.8 142.8,97.9 142.8,97.9 142.7,97.9 142.7,97.9 142.7,98 142.7,98 142.7,98 
		142.7,98 142.6,98.1 142.6,98.1 142.6,98.1 142.6,98.2 142.6,98.2 142.5,98.2 142.5,98.2 142.5,98.3 142.5,98.3 142.5,98.3 
		142.4,98.3 142.4,98.4 142.4,98.4 142.4,98.4 142.4,98.5 142.3,98.5 142.3,98.5 142.3,98.5 142.3,98.6 142.2,98.6 142.2,98.6 
		142.2,98.6 142.2,98.7 142.1,98.7 142.1,98.7 142.1,98.8 142,98.8 142,98.8 142,98.8 142,98.9 141.9,98.9 141.9,98.9 141.9,99 
		141.8,99 141.8,99 141.8,99 141.7,99.1 141.7,99.1 141.7,99.1 141.6,99.2 141.6,99.2 141.6,99.2 141.5,99.2 141.5,99.3 141.5,99.3 
		141.4,99.3 141.4,99.4 141.4,99.4 141.3,99.4 141.3,99.5 141.3,99.5 141.2,99.5 141.2,99.5 141.1,99.6 141.1,99.6 141.1,99.6 
		141,99.7 141,99.7 140.9,99.7 140.9,99.7 140.9,99.8 140.8,99.8 140.8,99.8 140.7,99.9 140.7,99.9 140.6,99.9 140.6,100 140.5,100 
		140.5,100 140.5,100 140.4,100.1 140.4,100.1 140.3,100.1 140,100.1 140.1,99.8 140.1,99.8 140.2,99.7 140.2,99.7 140.3,99.7 
		140.3,99.6 140.4,99.6 140.4,99.6 140.4,99.6 140.5,99.5 140.5,99.5 140.6,99.5 140.6,99.4 140.6,99.4 140.7,99.4 140.7,99.3 
		140.8,99.3 140.8,99.3 140.8,99.2 140.9,99.2 140.9,99.2 140.9,99.2 141,99.1 141,99.1 141,99.1 141.1,99 141.1,99 141.1,99 
		141.2,98.9 141.2,98.9 141.2,98.9 141.3,98.9 141.3,98.8 141.3,98.8 141.4,98.8 141.4,98.7 141.4,98.7 141.4,98.7 141.5,98.7 
		141.5,98.6 141.5,98.6 141.5,98.6 141.6,98.6 141.6,98.5 141.6,98.5 141.6,98.5 141.7,98.4 141.7,98.4 141.7,98.4 141.7,98.4 
		141.8,98.3 141.8,98.3 141.8,98.3 141.8,98.3 141.9,98.2 141.9,98.2 141.9,98.2 141.9,98.1 141.9,98.1 142,98.1 142,98.1 142,98 
		142,98 142,98 142,98 142.1,97.9 142.1,97.9 142.1,97.9 142.1,97.9 142.1,97.8 142.1,97.8 142.2,97.8 142.2,97.8 142.2,97.8 
		142.2,97.7 142.2,97.7 142.2,97.7 142.2,97.7 142.2,97.6 142.3,97.6 142.3,97.6 142.3,97.6 142.3,97.5 142.3,97.5 142.3,97.5 
		142.3,97.5 142.3,97.5 142.3,97.4 142.3,97.4 142.4,97.4 142.4,97.4 142.4,97.4 142.4,97.3 142.4,97.3 142.4,97.3 142.4,97.3 
		142.4,97.3 142.4,97.2 142.4,97.2 142.4,97.2 142.4,97.2 142.4,97.2 142.4,97.1 142.4,97.1 142.4,97.1 142.4,97.1 142.4,97.1 
		142.5,97.1 142.5,97 142.5,97 142.5,97 142.5,97 142.5,97 142.5,97 142.5,96.9 142.5,96.9 142.5,96.9 142.5,96.9 142.5,96.9 
		142.5,96.9 142.5,96.9 142.5,96.8 142.5,96.8 142.5,96.8 142.5,96.8 142.5,96.8 142.5,96.8 142.5,96.8 142.5,96.7 142.5,96.7 
		142.5,96.7 142.5,96.7 142.5,96.7 142.5,96.7 142.4,96.7 142.4,96.7 142.4,96.7 142.4,96.6 142.4,96.6 142.4,96.6 142.4,96.6 
		142.4,96.6 142.4,96.6 142.4,96.6 142.4,96.6 142.4,96.6 142.4,96.6 142.4,96.6 142.4,96.5 142.4,96.5 142.4,96.5 142.4,96.5 
		142.4,96.5 142.4,96.5 142.4,96.5 142.4,96.5 142.4,96.5 142.4,96.5 142.3,96.5 142.3,96.5 142.3,96.5 142.3,96.5 142.3,96.5 
		142.3,96.4 142.3,96.4 142.3,96.4 142.3,96.4 142.3,96.4 142.3,96.4 142.3,96.4 142.3,96.4 142.3,96.4 142.3,96.4 142.3,96.4 
		142.3,96.4 142.2,96.4 142.2,96.4 142.2,96.4 142.2,96.4 142.2,96.4 142.2,96.4 142.2,96.4 142.2,96.4 142.2,96.4 142.2,96.4 
		142.2,96.4 142.2,96.3 142.1,96.3 142.1,96.3 142.1,96.3 142.1,96.3 142.1,96.3 142.1,96.3 142.1,96.3 142.1,96.3 142.1,96.3 
		142.1,96.3 142.1,96.3 142,96.3 142,96.3 142,96.3 142,96.3 142,96.3 142,96.3 142,96.3 142,96.3 142,96.3 141.9,96.3 141.9,96.3 
		141.9,96.3 141.9,96.3 141.9,96.3 141.9,96.3 141.9,96.3 141.9,96.3 141.8,96.3 141.8,96.3 141.8,96.3 141.8,96.3 141.8,96.3 
		141.8,96.3 141.8,96.3 141.7,96.3 141.7,96.3 141.7,96.3 141.7,96.3 141.7,96.3 141.7,96.4 141.7,96.4 141.6,96.4 141.6,96.4 
		141.6,96.4 141.6,96.4 141.6,96.4 141.6,96.4 141.5,96.4 141.5,96.4 141.5,96.4 141.5,96.4 141.5,96.4 141.5,96.4 141.4,96.4 
		141.4,96.4 141.4,96.5 141.4,96.5 141.4,96.5 141.4,96.5 141.3,96.5 141.3,96.5 141.3,96.5 141.3,96.5 141.3,96.5 141.3,96.5 
		141.2,96.5 141.2,96.6 141.2,96.6 141.2,96.6 141.2,96.6 140.9,96.6 140.7,96.5 140.7,96.5 140.6,96.2 140.8,95.9 140.8,95.9 
		140.8,95.9 140.9,95.9 140.9,95.9 140.9,95.9 140.9,95.9 141,95.8 141,95.8 141,95.8 141,95.8 141.1,95.8 141.1,95.8 141.1,95.8 
		141.1,95.8 141.2,95.8 141.2,95.8 141.2,95.7 141.2,95.7 141.3,95.7 141.3,95.7 141.3,95.7 141.3,95.7 141.4,95.7 141.4,95.7 
		141.4,95.7 141.4,95.7 141.5,95.7 141.5,95.7 141.5,95.7 141.5,95.7 141.5,95.6 141.6,95.6 141.6,95.6 141.6,95.6 141.6,95.6 
		141.7,95.6 141.7,95.6 141.7,95.6 141.7,95.6 141.8,95.6 141.8,95.6 141.8,95.6 141.8,95.6 141.9,95.6 141.9,95.6 	"/>
	<polygon class="st4" points="86.6,95.5 86.6,95.5 86.6,95.5 86.6,95.5 86.7,95.5 86.7,95.5 86.7,95.5 86.8,95.5 86.8,95.5 
		86.8,95.5 86.8,95.5 86.9,95.5 86.9,95.5 86.9,95.5 87,95.5 87,95.5 87,95.6 87,95.6 87.1,95.6 87.1,95.6 87.1,95.6 87.2,95.6 
		87.2,95.6 87.2,95.6 87.2,95.6 87.3,95.7 87.3,95.7 87.3,95.7 87.4,95.7 87.4,95.7 87.4,95.7 87.4,95.8 87.5,95.8 87.5,95.8 
		87.5,95.8 87.6,95.8 87.6,95.8 87.6,95.9 87.7,95.9 87.7,95.9 87.7,95.9 87.7,95.9 87.8,96 87.8,96 87.8,96 87.9,96 87.9,96.1 
		87.9,96.1 88,96.3 87.9,96.6 87.9,96.6 87.7,96.7 87.4,96.6 87.4,96.6 87.4,96.6 87.3,96.6 87.3,96.6 87.3,96.5 87.3,96.5 
		87.3,96.5 87.2,96.5 87.2,96.5 87.2,96.5 87.2,96.4 87.1,96.4 87.1,96.4 87.1,96.4 87.1,96.4 87.1,96.4 87,96.4 87,96.3 87,96.3 
		87,96.3 87,96.3 87,96.3 86.9,96.3 86.9,96.3 86.9,96.3 86.9,96.3 86.9,96.3 86.8,96.2 86.8,96.2 86.8,96.2 86.8,96.2 86.8,96.2 
		86.8,96.2 86.7,96.2 86.7,96.2 86.7,96.2 86.7,96.2 86.7,96.2 86.7,96.2 86.6,96.2 86.6,96.2 86.6,96.2 86.6,96.2 86.6,96.2 
		86.6,96.2 86.6,96.2 86.5,96.2 86.5,96.2 86.5,96.2 86.5,96.2 86.5,96.2 86.5,96.2 86.5,96.2 86.4,96.2 86.4,96.2 86.4,96.2 
		86.4,96.2 86.4,96.2 86.4,96.2 86.4,96.2 86.4,96.2 86.3,96.2 86.3,96.2 86.3,96.2 86.3,96.2 86.3,96.2 86.3,96.2 86.3,96.2 
		86.3,96.2 86.3,96.2 86.2,96.2 86.2,96.2 86.2,96.2 86.2,96.2 86.2,96.2 86.2,96.2 86.2,96.3 86.2,96.3 86.2,96.3 86.1,96.3 
		86.1,96.3 86.1,96.3 86.1,96.3 86.1,96.3 86.1,96.3 86.1,96.3 86.1,96.3 86.1,96.3 86.1,96.3 86,96.4 86,96.4 86,96.4 86,96.4 
		86,96.4 86,96.4 86,96.4 86,96.4 86,96.4 86,96.4 86,96.5 85.9,96.5 85.9,96.5 85.9,96.5 85.9,96.5 85.9,96.5 85.9,96.5 85.9,96.6 
		85.9,96.6 85.9,96.6 85.9,96.6 85.9,96.6 85.9,96.6 85.9,96.6 85.8,96.7 85.8,96.7 85.8,96.7 85.8,96.7 85.8,96.7 85.8,96.7 
		85.8,96.8 85.8,96.8 85.8,96.8 85.8,96.8 85.8,96.8 85.8,96.8 85.8,96.9 85.8,96.9 85.8,96.9 85.8,96.9 85.8,96.9 85.8,96.9 
		85.8,97 85.8,97 85.8,97 85.8,97 85.8,97 85.7,97.1 85.7,97.1 85.7,97.1 85.7,97.1 85.7,97.1 85.7,97.2 85.7,97.2 85.7,97.2 
		85.7,97.2 85.7,97.3 85.7,97.3 85.7,97.3 85.7,97.3 85.7,97.3 85.7,97.4 85.8,97.4 85.8,97.4 85.8,97.4 85.8,97.5 85.8,97.5 
		85.8,97.5 85.8,97.5 85.8,97.5 85.8,97.6 85.8,97.6 85.8,97.6 85.8,97.6 85.8,97.7 85.8,97.7 85.8,97.7 85.8,97.7 85.8,97.8 
		85.8,97.8 85.8,97.8 85.8,97.8 85.9,97.9 85.9,97.9 85.9,97.9 85.9,97.9 85.9,98 85.9,98 85.9,98 85.9,98 85.9,98 85.9,98.1 
		86,98.1 86,98.1 86,98.1 86,98.2 86,98.2 86,98.2 86,98.2 86,98.3 86.1,98.3 86.1,98.3 86.1,98.3 86.1,98.4 86.1,98.4 86.1,98.4 
		86.1,98.4 86.2,98.5 86.2,98.5 86.2,98.5 86.2,98.5 86.2,98.6 86.3,98.6 86.3,98.6 86.3,98.6 86.3,98.7 86.3,98.7 86.4,98.7 
		86.4,98.7 86.4,98.8 86.4,98.8 86.4,98.8 86.5,98.8 86.5,98.9 86.5,98.9 86.5,98.9 86.6,98.9 86.6,99 86.6,99 86.6,99 86.7,99 
		86.7,99.1 86.7,99.1 86.7,99.1 86.8,99.1 86.8,99.2 86.8,99.2 86.9,99.2 86.9,99.2 86.9,99.3 86.9,99.3 87,99.3 87,99.3 87,99.3 
		87.1,99.4 87.1,99.4 87.1,99.4 87.2,99.4 87.2,99.5 87.2,99.5 87.3,99.5 87.3,99.5 87.4,99.5 87.4,99.6 87.4,99.6 87.5,99.6 
		87.5,99.6 87.5,99.7 87.6,99.7 87.6,99.7 87.7,99.7 87.7,99.7 87.7,99.8 87.8,99.8 87.8,99.8 87.9,99.8 87.9,99.8 88,99.9 
		88.1,100.1 87.8,100.2 87.8,100.2 87.7,100.2 87.7,100.2 87.6,100.1 87.6,100.1 87.5,100.1 87.5,100.1 87.4,100.1 87.4,100 
		87.4,100 87.3,100 87.3,100 87.2,100 87.2,99.9 87.1,99.9 87.1,99.9 87.1,99.9 87,99.9 87,99.8 86.9,99.8 86.9,99.8 86.9,99.8 
		86.8,99.7 86.8,99.7 86.8,99.7 86.7,99.7 86.7,99.6 86.6,99.6 86.6,99.6 86.6,99.6 86.5,99.6 86.5,99.5 86.5,99.5 86.4,99.5 
		86.4,99.5 86.4,99.4 86.4,99.4 86.3,99.4 86.3,99.3 86.3,99.3 86.2,99.3 86.2,99.3 86.2,99.2 86.1,99.2 86.1,99.2 86.1,99.2 
		86.1,99.1 86,99.1 86,99.1 86,99.1 86,99 85.9,99 85.9,99 85.9,98.9 85.9,98.9 85.8,98.9 85.8,98.9 85.8,98.8 85.8,98.8 85.7,98.8 
		85.7,98.7 85.7,98.7 85.7,98.7 85.7,98.7 85.6,98.6 85.6,98.6 85.6,98.6 85.6,98.5 85.6,98.5 85.6,98.5 85.5,98.5 85.5,98.4 
		85.5,98.4 85.5,98.4 85.5,98.3 85.5,98.3 85.4,98.3 85.4,98.3 85.4,98.2 85.4,98.2 85.4,98.2 85.4,98.1 85.4,98.1 85.3,98.1 
		85.3,98 85.3,98 85.3,98 85.3,98 85.3,97.9 85.3,97.9 85.3,97.9 85.3,97.8 85.3,97.8 85.2,97.8 85.2,97.8 85.2,97.7 85.2,97.7 
		85.2,97.7 85.2,97.6 85.2,97.6 85.2,97.6 85.2,97.5 85.2,97.5 85.2,97.5 85.2,97.5 85.2,97.4 85.2,97.4 85.2,97.4 85.2,97.3 
		85.2,97.3 85.2,97.3 85.2,97.3 85.2,97.2 85.2,97.2 85.2,97.2 85.1,97.1 85.1,97.1 85.1,97.1 85.2,97.1 85.2,97 85.2,97 85.2,97 
		85.2,97 85.2,96.9 85.2,96.9 85.2,96.9 85.2,96.8 85.2,96.8 85.2,96.8 85.2,96.8 85.2,96.7 85.2,96.7 85.2,96.7 85.2,96.7 
		85.2,96.6 85.2,96.6 85.2,96.6 85.2,96.6 85.2,96.5 85.2,96.5 85.2,96.5 85.3,96.5 85.3,96.4 85.3,96.4 85.3,96.4 85.3,96.4 
		85.3,96.3 85.3,96.3 85.3,96.3 85.3,96.3 85.3,96.2 85.4,96.2 85.4,96.2 85.4,96.2 85.4,96.2 85.4,96.1 85.4,96.1 85.4,96.1 
		85.4,96.1 85.5,96 85.5,96 85.5,96 85.5,96 85.5,96 85.5,95.9 85.6,95.9 85.6,95.9 85.6,95.9 85.6,95.9 85.6,95.9 85.6,95.8 
		85.7,95.8 85.7,95.8 85.7,95.8 85.7,95.8 85.7,95.8 85.8,95.7 85.8,95.7 85.8,95.7 85.8,95.7 85.8,95.7 85.9,95.7 85.9,95.7 
		85.9,95.6 85.9,95.6 86,95.6 86,95.6 86,95.6 86,95.6 86,95.6 86.1,95.6 86.1,95.6 86.1,95.5 86.1,95.5 86.2,95.5 86.2,95.5 
		86.2,95.5 86.2,95.5 86.3,95.5 86.3,95.5 86.3,95.5 86.3,95.5 86.4,95.5 86.4,95.5 86.4,95.5 86.5,95.5 86.5,95.5 86.5,95.5 
		86.5,95.5 	"/>
	<path class="st5" d="M99.5,81.3c2.2-3.6,7.1-5.4,10.5-4.9"/>
	<path class="st5" d="M129.5,81.3c-2.2-3.6-7.1-5.4-10.5-4.9"/>
	<path class="st2" d="M123.2,84.5c2.7,1.9,5.7,3.5,9.1,4.5"/>
	<path class="st2" d="M97.9,88.7c3.1-1.1,6.1-2.6,9-4.8"/>
	<path class="st6" d="M113.6,86.7c1.3,7.6-1.2,13.8-3.6,15.8c0.3,1.7,2.3,2.1,3.9,2.4"/>
	<path class="st2" d="M139.8,73.6c0.1,2.3-0.7,4-3.2,4.6"/>
	<path class="st3" d="M110.6,55.1c0,0,4.3-2.9,13.6,0c9.2,2.9,9.1,6.4,15.2,9c6.1,2.5,7.5,3.3,9.2,8.2c1.7,4.9,0.8,4.9,1.8,7.7
		c1,2.8,2.3,3.4,1.5,8.6c-0.8,5.2-1.1,5.4-2.1,9.2c-1,3.7,0.2,5.7-3.5,10.1c-1.1,1.3-1.7,2.3-2.1,3.1c-1.1,2.1-0.9,3.5-3.3,6.2
		c-5,5.9-9.1,6.1-9.1,6.1c5.8-6.4,7.6-9.9,8.6-20.9c8-4.6,3.7-12-0.8-8.4c0.7-2.2,0.6-3.7-0.2-6.9c-0.9-3.9-4-4.1-2.9-9
		c-8.4,0.3-12.4-3.1-12.2-7.1c-8.9-2.3-14.2-4.9-13.2-9.9L110.6,55.1z"/>
	<path class="st2" d="M110.6,55.1c0,0,4.3-2.9,13.6,0c9.2,2.9,9.1,6.4,15.2,9c6.1,2.5,7.5,3.3,9.2,8.2c1.7,4.9,0.8,4.9,1.8,7.7
		c1,2.8,2.3,3.4,1.5,8.6c-0.8,5.2-1.1,5.4-2.1,9.2c-1,3.7,0.2,5.7-3.5,10.1c-1.1,1.3-1.7,2.3-2.1,3.1c-1.1,2.1-0.9,3.5-3.3,6.2
		c-5,5.9-9.1,6.1-9.1,6.1c5.8-6.4,7.6-9.9,8.6-20.9c8-4.6,3.7-12-0.8-8.4c0.7-2.2,0.6-3.7-0.2-6.9c-0.9-3.9-4-4.1-2.9-9
		c-8.4,0.3-12.4-3.1-12.2-7.1c-8.9-2.3-14.2-4.9-13.2-9.9L110.6,55.1z"/>
	<path class="st3" d="M110.9,55.1l0.3,5.8l-3.3,4c1.5,5.5-3.4,8.9-9.7,12.3c-1.8,1-5,0.8-5.5,3.6c0,0-2.8-1.5-3.9,0.2
		c-1.3,2-0.4,3.1-0.2,4.7c-2.4,2.6-1.9,6-0.3,8.7c-2.8-2.1-4-0.7-4.6,0.2c-1.4,2,0.6,7.6,5.2,7.8c-0.3,10.4,3.3,16.7,6.7,19.7
		c-2.4,1-8.5-2.7-9.7-8.3c-0.7-3.4-6.7-3.9-5-12.7c0.4-2.1-2.8-2.7-1.9-6.7c-1.8-6-2.2-11.6,0.5-14.2c-1.3-4.4,1.8-10,10.1-15.8
		C92.4,56.4,104.7,52.2,110.9,55.1"/>
	<path class="st2" d="M110.9,55.1l0.3,5.8l-3.3,4c1.5,5.5-3.4,8.9-9.7,12.3c-1.8,1-5,0.8-5.5,3.6c0,0-2.8-1.5-3.9,0.2
		c-1.3,2-0.4,3.1-0.2,4.7c-2.4,2.6-1.9,6-0.3,8.7c-2.8-2.1-4-0.7-4.6,0.2c-1.4,2,0.6,7.6,5.2,7.8c-0.3,10.4,3.3,16.7,6.7,19.7
		c-2.4,1-8.5-2.7-9.7-8.3c-0.7-3.4-6.7-3.9-5-12.7c0.4-2.1-2.8-2.7-1.9-6.7c-1.8-6-2.2-11.6,0.5-14.2c-1.3-4.4,1.8-10,10.1-15.8
		C92.4,56.4,104.7,52.2,110.9,55.1z"/>
	<path class="st2" d="M111.1,57.2c0,0-10.9,5.6-7.7,6.2C106.6,63.9,111.1,57.2,111.1,57.2z"/>
	<path class="st2" d="M111.1,56.4c-2.2-1.1-11,0.3-9.6,1.7C103,59.5,110.5,56.6,111.1,56.4z"/>
	<path class="st2" d="M111.1,56.3c0,0,13.7,3.6,13.2,1.9c-0.4-1.3-3.8-2.2-7.1-2.3C114.1,55.8,111.1,56.3,111.1,56.3z"/>
	<path class="st2" d="M111.1,57.2c0,0,10.9,10.2,10.6,7C121.5,60.9,111.1,57.2,111.1,57.2z"/>
	<path class="st3" d="M198.2,38.2c5.3-5.2,15.7-6.8,23.3-3.6c10.1,4.2,17.6,13.1,14,23.4c4.1,2.1,6.9,5.2,6.9,9.5
		c0,8.1-9.4,15.3-19.1,15.5c-2.3,0.1-4.5,0-6.4-0.3c-2.6,8-14.6,10.9-23.2,9.5c-10.8-1.7-20.7-10.6-21-17.8c-5.7-1.1-10-5.6-10-11
		c0-4,2.4-7.5,6-9.5c-1.9-9.6,9-18.3,18.4-18.3C191.3,35.5,195.1,36.5,198.2,38.2"/>
	<path class="st2" d="M198.2,38.2c5.3-5.2,15.7-6.8,23.3-3.6c10.1,4.2,17.6,13.1,14,23.4c4.1,2.1,6.9,5.2,6.9,9.5
		c0,8.1-9.4,15.3-19.1,15.5c-2.3,0.1-4.5,0-6.4-0.3c-2.6,8-14.6,10.9-23.2,9.5c-10.8-1.7-20.7-10.6-21-17.8c-5.7-1.1-10-5.6-10-11
		c0-4,2.4-7.5,6-9.5c-1.9-9.6,9-18.3,18.4-18.3C191.3,35.5,195.1,36.5,198.2,38.2z"/>
	<path class="st3" d="M203.1,53.7c3.1-7.2,10.6-7.6,13.7-4.6c3.1,3.1,3,7.5,0,13.6c-2.2,4.6-8.6,13.2-13.2,16.2
		c-4.6-3.1-11.1-10-13.4-14.6c-4.7-9.4-3.7-11.9-0.3-15.3C192.9,45.9,200,46.5,203.1,53.7"/>
	<path class="st7" d="M203.1,53.7c3.1-7.2,10.6-7.6,13.7-4.6c3.1,3.1,3,7.5,0,13.6c-2.2,4.6-8.6,13.2-13.2,16.2
		c-4.6-3.1-11.1-10-13.4-14.6c-4.7-9.4-3.7-11.9-0.3-15.3C192.9,45.9,200,46.5,203.1,53.7"/>
	<path class="st2" d="M203.1,53.7c3.1-7.2,10.6-7.6,13.7-4.6c3.1,3.1,3,7.5,0,13.6c-2.2,4.6-8.6,13.2-13.2,16.2
		c-4.6-3.1-11.1-10-13.4-14.6c-4.7-9.4-3.7-11.9-0.3-15.3C192.9,45.9,200,46.5,203.1,53.7z"/>
</g>
<g>
	<defs>
		<path id="SVGID_7_" d="M122.3,87c-1.7,0.5-1.9,2.3-2,3.8c3.3,0.6,6.8,0.6,10.4-0.1c0.5-2.5-3.3-4-6.4-4
			C123.6,86.7,122.9,86.8,122.3,87"/>
	</defs>
	<clipPath id="SVGID_8_">
		<use xlink:href="#SVGID_7_"  style="overflow:visible;"/>
	</clipPath>
	<path class="st8" d="M125.2,86.4c1.5,0,2.7,1.3,2.7,2.9c0,1.6-1.2,2.9-2.7,2.9c-1.5,0-2.7-1.3-2.7-2.9
		C122.5,87.7,123.7,86.4,125.2,86.4"/>
	<path class="st9" d="M126.6,88c0.3,0,0.5,0.2,0.5,0.6s-0.2,0.6-0.5,0.6c-0.3,0-0.5-0.2-0.5-0.6S126.3,88,126.6,88"/>
</g>
<g>
	<defs>
		<rect id="SVGID_9_" width="283.5" height="283.5"/>
	</defs>
	<clipPath id="SVGID_10_">
		<use xlink:href="#SVGID_9_"  style="overflow:visible;"/>
	</clipPath>
	<path class="st10" d="M130.7,90.7c-3.6,0.7-7.1,0.6-10.4,0.1c0.1-1.5,0.3-3.2,2-3.8C125.4,86,131.3,87.6,130.7,90.7z"/>
</g>
<g>
	<defs>
		<path id="SVGID_11_" d="M99,90.2c3.6,0.7,7.1,0.6,10.4,0.1c-0.1-1.5-0.3-3.2-2-3.8c-0.6-0.2-1.3-0.3-2-0.3
			C102.3,86.3,98.5,87.8,99,90.2"/>
	</defs>
	<clipPath id="SVGID_12_">
		<use xlink:href="#SVGID_11_"  style="overflow:visible;"/>
	</clipPath>
	<path class="st11" d="M104.6,86c-1.5,0-2.7,1.3-2.7,2.9c0,1.6,1.2,2.9,2.7,2.9c1.5,0,2.7-1.3,2.7-2.9C107.3,87.3,106,86,104.6,86"
		/>
	<path class="st12" d="M103.2,87.5c-0.3,0-0.5,0.2-0.5,0.6c0,0.3,0.2,0.6,0.5,0.6c0.3,0,0.5-0.2,0.5-0.6
		C103.7,87.8,103.5,87.5,103.2,87.5"/>
</g>
<g>
	<defs>
		<rect id="SVGID_13_" width="283.5" height="283.5"/>
	</defs>
	<clipPath id="SVGID_14_">
		<use xlink:href="#SVGID_13_"  style="overflow:visible;"/>
	</clipPath>
	<path class="st13" d="M99,90.2c3.6,0.7,7.1,0.6,10.4,0.1c-0.1-1.5-0.3-3.2-2-3.8C104.4,85.6,98.4,87.2,99,90.2z"/>
	<path class="st14" d="M142.6,192.9l-10.7-8.8c0,0,0.7-3.1-1.2-5.7c-2.6-3.7-0.2-8,0-10.4c-3.8-0.7-7,3.2-5.4,9.8l-19.8-11.1
		c0,0-1.6-1.1-2.1,0.6c-1,3.2,11,8.9,11,8.9l-1.1,2.1c0,0-13.1-6.9-15.2-7.5c-4.1-1.2-2.8,2.8-2.4,3c0.9,0.4,14.3,7,14.3,7l0.3,0.9
		c0,0-9.7-3-12.1-3.5c-3.7-0.7-3.6,1.8-2.1,2.8c1.5,1,13.7,4.4,13.7,4.4v1.3c0,0-9.3-3.2-10.2-2.3c-1.3,1.3,1.5,2.7,7.4,5
		c8.2,3.2,19.9,3.7,19.9,3.7l10.6,8.3L142.6,192.9z"/>
	<path class="st13" d="M142.6,192.9l-10.7-8.8c0,0,0.7-3.1-1.2-5.7c-2.6-3.7-0.2-8,0-10.4c-3.8-0.7-7,3.2-5.4,9.8l-19.8-11.1
		c0,0-1.6-1.1-2.1,0.6c-1,3.2,11,8.9,11,8.9l-1.1,2.1c0,0-13.1-6.9-15.2-7.5c-4.1-1.2-2.8,2.8-2.4,3c0.9,0.4,14.3,7,14.3,7l0.3,0.9
		c0,0-9.7-3-12.1-3.5c-3.7-0.7-3.6,1.8-2.1,2.8c1.5,1,13.7,4.4,13.7,4.4v1.3c0,0-9.3-3.2-10.2-2.3c-1.3,1.3,1.5,2.7,7.4,5
		c8.2,3.2,19.9,3.7,19.9,3.7l10.6,8.3L142.6,192.9z"/>
	<path class="st14" d="M84.3,201.7l9.9-5c0,0-0.8-5.9,1.1-8.5c2.6-3.7-0.6-6.6-2.3-8.4c2.4-1.3,8.8-0.8,8.4,7.5l18.3-12.2
		c0,0,2-1.2,2.1,0.6c0.2,2.1-10.5,9.9-10.5,9.9l0.6,1.1c0,0,13.6-6.5,15.6-7.1c4.1-1.2,3.2,1,2.6,1.9c-0.6,0.8-15.5,7.7-15.5,7.7
		l0.2,1c0,0,10.3-2.4,12.6-2.9c3.7-0.7,3.1,1.2,1.6,2.2c-1.5,1-13.7,4.4-13.7,4.4v1.3c0,0,9.3-3.2,10.2-2.3c1.3,1.3-1.5,2.7-7.4,5
		c-8.2,3.2-19.8,5.7-19.8,5.7l-10.7,6.3L84.3,201.7z"/>
	<path class="st13" d="M84.3,201.7l9.9-5c0,0-0.8-5.9,1.1-8.5c2.6-3.7-0.6-6.6-2.3-8.4c2.4-1.3,8.8-0.8,8.4,7.5l18.3-12.2
		c0,0,2-1.2,2.1,0.6c0.2,2.1-10.5,9.9-10.5,9.9l0.6,1.1c0,0,13.6-6.5,15.6-7.1c4.1-1.2,3.2,1,2.6,1.9c-0.6,0.8-15.5,7.7-15.5,7.7
		l0.2,1c0,0,10.3-2.4,12.6-2.9c3.7-0.7,3.1,1.2,1.6,2.2c-1.5,1-13.7,4.4-13.7,4.4v1.3c0,0,9.3-3.2,10.2-2.3c1.3,1.3-1.5,2.7-7.4,5
		c-8.2,3.2-19.8,5.7-19.8,5.7l-10.7,6.3L84.3,201.7z"/>
	<path class="st13" d="M102.3,108.7c8.2,4.7,15.8,4.8,25,0C121.2,125.5,108.3,123.9,102.3,108.7z"/>
	<path class="st15" d="M115.7,105c4-0.5,4.9-2.5,2.9-3.9"/>
	<polygon class="st16" points="109.5,100.5 109.5,100.5 109.5,100.6 109.5,100.6 109.5,100.7 109.5,100.7 109.5,100.7 109.5,100.8 
		109.5,100.8 109.5,100.9 109.5,100.9 109.5,100.9 109.5,101 109.5,101 109.5,101 109.5,101.1 109.5,101.1 109.5,101.1 109.5,101.2 
		109.5,101.2 109.5,101.3 109.5,101.3 109.5,101.3 109.5,101.4 109.5,101.4 109.5,101.4 109.5,101.5 109.5,101.5 109.5,101.5 
		109.5,101.6 109.5,101.6 109.5,101.6 109.5,101.7 109.5,101.7 109.5,101.8 109.4,101.8 109.4,101.8 109.4,101.8 109.4,101.9 
		109.4,101.9 109.4,101.9 109.4,102 109.4,102 109.4,102 109.4,102.1 109.4,102.1 109.4,102.1 109.4,102.1 109.3,102.2 109.3,102.2 
		109.3,102.3 109.3,102.3 109.3,102.3 109.3,102.3 109.3,102.4 109.3,102.4 109.3,102.4 109.2,102.5 109.2,102.5 109.2,102.5 
		109.2,102.5 109.2,102.5 109.2,102.6 109.2,102.6 109.2,102.6 109.1,102.6 109.1,102.7 109.1,102.7 109.1,102.7 109.1,102.7 
		109.1,102.8 109,102.8 109,102.8 109,102.8 109,102.8 109,102.9 109,102.9 108.9,102.9 108.9,102.9 108.9,103 108.9,103 108.9,103 
		108.8,103 108.8,103.1 108.8,103.1 108.8,103.1 108.8,103.1 108.8,103.1 108.7,103.2 108.7,103.2 108.7,103.2 108.7,103.2 
		108.6,103.2 108.6,103.3 108.6,103.3 108.6,103.3 108.5,103.3 108.5,103.3 108.5,103.3 108.5,103.4 108.5,103.4 108.5,103.4 
		108.4,103.4 108.4,103.4 108.4,103.5 108.4,103.5 108.3,103.5 108.3,103.5 108.3,103.5 108.3,103.5 108.3,103.5 108.2,103.6 
		108.2,103.6 108.2,103.6 108.2,103.6 108.1,103.6 108.1,103.6 108.1,103.6 108.1,103.7 108,103.7 108,103.7 108,103.7 108,103.7 
		108,103.7 107.9,103.7 107.9,103.7 107.9,103.8 107.9,103.8 107.8,103.8 107.8,103.8 107.8,103.8 107.8,103.8 107.8,103.8 
		107.7,103.8 107.7,103.8 107.7,103.8 107.7,103.8 107.7,103.9 107.6,103.9 107.6,103.9 107.6,103.9 107.6,103.9 107.6,103.9 
		107.5,103.9 107.3,103.8 107.4,103.6 107.4,103.6 107.4,103.5 107.4,103.5 107.4,103.5 107.4,103.5 107.4,103.5 107.5,103.5 
		107.5,103.4 107.5,103.4 107.5,103.4 107.5,103.4 107.5,103.4 107.5,103.4 107.6,103.4 107.6,103.3 107.6,103.3 107.6,103.3 
		107.6,103.3 107.6,103.3 107.6,103.3 107.6,103.2 107.7,103.2 107.7,103.2 107.7,103.2 107.7,103.2 107.7,103.1 107.7,103.1 
		107.7,103.1 107.8,103.1 107.8,103.1 107.8,103.1 107.8,103 107.8,103 107.8,103 107.8,103 107.8,102.9 107.9,102.9 107.9,102.9 
		107.9,102.9 107.9,102.9 107.9,102.8 107.9,102.8 107.9,102.8 107.9,102.8 108,102.8 108,102.7 108,102.7 108,102.7 108,102.7 
		108,102.6 108,102.6 108,102.6 108.1,102.6 108.1,102.6 108.1,102.6 108.1,102.5 108.1,102.5 108.1,102.5 108.1,102.5 108.1,102.4 
		108.1,102.4 108.2,102.4 108.2,102.4 108.2,102.3 108.2,102.3 108.2,102.3 108.2,102.3 108.2,102.2 108.2,102.2 108.2,102.2 
		108.3,102.2 108.3,102.1 108.3,102.1 108.3,102.1 108.3,102.1 108.3,102.1 108.3,102.1 108.3,102 108.4,102 108.4,102 108.4,102 
		108.4,101.9 108.4,101.9 108.4,101.9 108.4,101.9 108.5,101.8 108.5,101.8 108.5,101.8 108.5,101.8 108.5,101.7 108.5,101.7 
		108.5,101.7 108.6,101.6 108.6,101.6 108.6,101.6 108.6,101.6 108.6,101.5 108.6,101.5 108.6,101.5 108.7,101.5 108.7,101.4 
		108.7,101.4 108.7,101.4 108.7,101.3 108.7,101.3 108.7,101.3 108.8,101.3 108.8,101.2 108.8,101.2 108.8,101.2 108.8,101.1 
		108.8,101.1 108.9,101.1 108.9,101 108.9,101 108.9,101 108.9,100.9 108.9,100.9 108.9,100.9 108.9,100.9 108.9,100.9 109,100.8 
		109,100.8 109,100.8 109,100.7 109,100.7 109,100.6 109,100.6 109.1,100.6 109.1,100.5 109.1,100.5 109.3,100.3 	"/>
	<polygon class="st16" points="121.1,100.1 121.1,100.1 121.1,100.2 121.1,100.2 121.1,100.3 121.1,100.3 121.2,100.3 121.2,100.3 
		121.2,100.4 121.2,100.4 121.2,100.5 121.2,100.5 121.2,100.5 121.2,100.6 121.3,100.6 121.3,100.7 121.3,100.7 121.3,100.7 
		121.3,100.7 121.3,100.8 121.3,100.8 121.3,100.9 121.4,100.9 121.4,100.9 121.4,101 121.4,101 121.4,101 121.4,101.1 121.4,101.1 
		121.5,101.1 121.5,101.1 121.5,101.1 121.5,101.2 121.5,101.2 121.5,101.2 121.5,101.2 121.5,101.2 121.5,101.2 121.5,101.2 
		121.5,101.3 121.5,101.3 121.6,101.3 121.6,101.3 121.6,101.3 121.6,101.4 121.6,101.4 121.6,101.4 121.6,101.4 121.6,101.4 
		121.6,101.4 121.6,101.4 121.7,101.5 121.7,101.5 121.7,101.5 121.7,101.5 121.7,101.5 121.7,101.5 121.7,101.6 121.7,101.6 
		121.7,101.6 121.7,101.6 121.7,101.6 121.7,101.6 121.7,101.7 121.8,101.7 121.8,101.7 121.8,101.7 121.8,101.7 121.8,101.7 
		121.8,101.8 121.8,101.8 121.8,101.8 121.8,101.8 121.8,101.8 121.9,101.9 121.9,101.9 121.9,101.9 121.9,101.9 121.9,101.9 
		121.9,102 121.9,102 121.9,102 121.9,102 121.9,102 122,102.1 122,102.1 122,102.1 122,102.1 122,102.1 122,102.2 122,102.2 
		122,102.2 122.1,102.2 122.1,102.3 122.1,102.3 122.1,102.3 122.1,102.3 122.1,102.3 122.1,102.4 122.1,102.4 122.2,102.4 
		122.2,102.4 122.2,102.5 122.2,102.5 122.2,102.5 122.3,102.5 122.3,102.6 122.3,102.6 122.3,102.6 122.3,102.6 122.3,102.6 
		122.4,102.7 122.4,102.7 122.4,102.7 122.4,102.8 122.5,102.8 122.5,102.8 122.5,102.8 122.5,102.9 122.5,102.9 122.6,103.1 
		122.3,103.2 122.3,103.2 122.3,103.2 122.2,103.2 122.2,103.1 122.2,103.1 122.1,103.1 122.1,103.1 122.1,103.1 122,103.1 
		122,103.1 122,103 121.9,103 121.9,103 121.9,103 121.8,103 121.8,103 121.8,103 121.7,102.9 121.7,102.9 121.7,102.9 121.6,102.9 
		121.6,102.9 121.6,102.8 121.6,102.8 121.5,102.8 121.5,102.8 121.5,102.8 121.5,102.8 121.4,102.7 121.4,102.7 121.4,102.7 
		121.4,102.7 121.3,102.6 121.3,102.6 121.3,102.6 121.3,102.6 121.2,102.6 121.2,102.6 121.2,102.5 121.2,102.5 121.2,102.5 
		121.1,102.5 121.1,102.4 121.1,102.4 121.1,102.4 121.1,102.4 121,102.4 121,102.3 121,102.3 121,102.3 121,102.3 120.9,102.2 
		120.9,102.2 120.9,102.2 120.9,102.2 120.9,102.2 120.9,102.1 120.9,102.1 120.8,102.1 120.8,102 120.8,102 120.8,102 120.8,102 
		120.8,102 120.8,101.9 120.8,101.9 120.8,101.9 120.7,101.9 120.7,101.8 120.7,101.8 120.7,101.8 120.7,101.8 120.7,101.8 
		120.7,101.7 120.7,101.7 120.7,101.7 120.7,101.6 120.7,101.6 120.7,101.6 120.7,101.6 120.7,101.5 120.6,101.5 120.6,101.5 
		120.6,101.4 120.6,101.4 120.6,101.4 120.6,101.4 120.6,101.4 120.6,101.3 120.6,101.3 120.6,101.3 120.6,101.3 120.6,101.2 
		120.6,101.1 120.6,101.1 120.6,101.1 120.6,101 120.6,101 120.6,100.9 120.6,100.9 120.6,100.8 120.6,100.8 120.6,100.8 
		120.6,100.7 120.6,100.7 120.6,100.6 120.6,100.6 120.6,100.5 120.7,100.5 120.7,100.5 120.7,100.4 120.7,100.4 120.7,100.3 
		120.7,100.3 120.7,100.3 120.7,100.2 120.7,100.2 120.7,100.2 120.7,100.1 120.9,100 	"/>
	<path class="st13" d="M129.1,104.9c0.7,0.9,1.5,1.7,2.6,2.3"/>
	<path class="st13" d="M97.3,107.2c0.9-0.7,1.7-1.5,2.3-2.6"/>
	<path class="st13" d="M116.6,123.2c-1.1-0.2-2.3-0.2-3.5,0"/>
	<path class="st13" d="M99,106.4c7.3,6.9,23.2,7.2,31.1,0.1"/>
</g>
</svg>
