<?xml version="1.0" encoding="utf-8"?>
<!-- Generator: Adobe Illustrator 22.1.0, SVG Export Plug-In . SVG Version: 6.00 Build 0)  -->
<svg version="1.1" id="Слой_1" xmlns="http://www.w3.org/2000/svg" xmlns:xlink="http://www.w3.org/1999/xlink" x="0px" y="0px"
	 viewBox="0 0 283.5 283.5" style="enable-background:new 0 0 283.5 283.5;" xml:space="preserve">
<style type="text/css">
	.st0{fill-rule:evenodd;clip-rule:evenodd;fill:#946138;}
	.st1{fill:none;stroke:#12100B;stroke-linecap:round;stroke-linejoin:round;stroke-miterlimit:10;}
	.st2{clip-path:url(#SVGID_2_);fill-rule:evenodd;clip-rule:evenodd;fill:#FFFFFF;}
	.st3{clip-path:url(#SVGID_2_);fill:none;stroke:#12100B;stroke-linecap:round;stroke-linejoin:round;stroke-miterlimit:10;}
	.st4{clip-path:url(#SVGID_2_);fill-rule:evenodd;clip-rule:evenodd;fill:#946138;}
	.st5{clip-path:url(#SVGID_2_);fill:none;stroke:#12100B;stroke-linejoin:round;stroke-miterlimit:10;}
	.st6{clip-path:url(#SVGID_2_);fill-rule:evenodd;clip-rule:evenodd;fill:#12100B;}
	.st7{clip-path:url(#SVGID_4_);fill:none;stroke:#12100B;stroke-linecap:round;stroke-linejoin:round;stroke-miterlimit:10;}
	.st8{clip-path:url(#SVGID_6_);fill:none;stroke:#12100B;stroke-linecap:round;stroke-linejoin:round;stroke-miterlimit:10;}
	.st9{clip-path:url(#SVGID_6_);fill-rule:evenodd;clip-rule:evenodd;fill:#FFFFFF;}
	.st10{clip-path:url(#SVGID_8_);fill-rule:evenodd;clip-rule:evenodd;fill:#FFFFFF;}
	.st11{clip-path:url(#SVGID_8_);fill:none;stroke:#12100B;stroke-linecap:round;stroke-linejoin:round;stroke-miterlimit:10;}
	.st12{clip-path:url(#SVGID_10_);fill:none;stroke:#12100B;stroke-linecap:round;stroke-linejoin:round;stroke-miterlimit:10;}
	.st13{clip-path:url(#SVGID_10_);fill-rule:evenodd;clip-rule:evenodd;fill:#FFFFFF;}
	.st14{clip-path:url(#SVGID_10_);fill-rule:evenodd;clip-rule:evenodd;fill:#5EC6F1;}
	.st15{clip-path:url(#SVGID_12_);fill-rule:evenodd;clip-rule:evenodd;fill:#FFFFFF;}
	.st16{clip-path:url(#SVGID_12_);fill:none;stroke:#12100B;stroke-linecap:round;stroke-linejoin:round;stroke-miterlimit:10;}
	.st17{clip-path:url(#SVGID_14_);fill:none;stroke:#12100B;stroke-linecap:round;stroke-linejoin:round;stroke-miterlimit:10;}
	.st18{clip-path:url(#SVGID_14_);fill-rule:evenodd;clip-rule:evenodd;fill:#12100B;}
	.st19{clip-path:url(#SVGID_14_);fill-rule:evenodd;clip-rule:evenodd;fill:#FFFFFF;}
	.st20{clip-path:url(#SVGID_16_);fill-rule:evenodd;clip-rule:evenodd;fill:#12100B;}
	.st21{clip-path:url(#SVGID_16_);fill-rule:evenodd;clip-rule:evenodd;fill:#FFFFFF;}
	
		.st22{clip-path:url(#SVGID_18_);fill:none;stroke:#12100B;stroke-width:0.7;stroke-linecap:round;stroke-linejoin:round;stroke-miterlimit:10;}
	.st23{clip-path:url(#SVGID_18_);fill-rule:evenodd;clip-rule:evenodd;fill:#12100B;}
	.st24{clip-path:url(#SVGID_18_);fill-rule:evenodd;clip-rule:evenodd;fill:#FFFFFF;}
	.st25{clip-path:url(#SVGID_18_);fill:none;stroke:#12100B;stroke-linecap:round;stroke-linejoin:round;stroke-miterlimit:10;}
	.st26{clip-path:url(#SVGID_18_);fill-rule:evenodd;clip-rule:evenodd;fill:#5EC6F1;}
</style>
<rect x="95.2" y="115.3" transform="matrix(0.9933 -0.1152 0.1152 0.9933 -17.147 12.1662)" class="st0" width="3.1" height="78.5"/>
<rect x="95.2" y="115.3" transform="matrix(0.9933 -0.1152 0.1152 0.9933 -17.147 12.1662)" class="st1" width="3.1" height="78.5"/>
<rect x="100.4" y="118.8" transform="matrix(0.9943 -0.1069 0.1069 0.9943 -15.5377 11.7241)" class="st0" width="2.4" height="64"/>
<rect x="100.4" y="118.8" transform="matrix(0.9943 -0.1069 0.1069 0.9943 -15.5377 11.7241)" class="st1" width="2.4" height="64"/>
<g>
	<defs>
		<rect id="SVGID_1_" width="283.5" height="283.5"/>
	</defs>
	<clipPath id="SVGID_2_">
		<use xlink:href="#SVGID_1_"  style="overflow:visible;"/>
	</clipPath>
	<path class="st2" d="M106.8,120.7c-0.3-3.3-3.2-5.7-6.5-5.3c-3.3,0.3-5.7,3.2-5.3,6.5l2.7,27.7c0.3,3.3,3.2,5.7,6.5,5.3
		c3.3-0.3,5.7-3.2,5.3-6.5L106.8,120.7z"/>
	<path class="st3" d="M106.8,120.7c-0.3-3.3-3.2-5.7-6.5-5.3c-3.3,0.3-5.7,3.2-5.3,6.5l2.7,27.7c0.3,3.3,3.2,5.7,6.5,5.3
		c3.3-0.3,5.7-3.2,5.3-6.5L106.8,120.7z"/>
	<polygon class="st2" points="165.3,186.4 151.6,181.1 105.4,181.3 97.7,189 98.9,193.7 161.4,194.4 	"/>
	<polygon class="st3" points="165.3,186.4 151.6,181.1 105.4,181.3 97.7,189 98.9,193.7 161.4,194.4 	"/>
	<path class="st2" d="M162.6,191.8c0-2.4-2-4.4-4.4-4.4h-56.9c-2.4,0-4.4,2-4.4,4.4s2,4.4,4.4,4.4h56.9
		C160.7,196.2,162.6,194.2,162.6,191.8"/>
	<path class="st3" d="M162.6,191.8c0-2.4-2-4.4-4.4-4.4h-56.9c-2.4,0-4.4,2-4.4,4.4s2,4.4,4.4,4.4h56.9
		C160.7,196.2,162.6,194.2,162.6,191.8z"/>
	<path class="st4" d="M140,193.3c2.7,0,5.3,0,8,0.1c2.5,0.1,4.5,1.9,5.8,3.9c1.8,2.6,4.9,11.3,4.9,11.3l-1.8,3c0,0-5-12.3-7.6-14.3
		c-0.1,0-0.1-0.1-0.2-0.1c-0.4-0.3-0.9-0.4-1.4-0.4c-10.6-0.3-21.4,0.1-32.4,0.2c-1,0-2-0.1-2.9,0.5c-1.8,1.2-3.3,3.8-4.3,5.8
		c-0.7,1.3-4.5,8.4-4.5,8.4l-2-2.8c0,0,5-10.6,7.6-13.2c1.2-1.1,2.7-2,4.3-2C122.4,193.4,131.2,193.3,140,193.3"/>
	<path class="st5" d="M140,193.3c2.7,0,5.3,0,8,0.1c2.5,0.1,4.5,1.9,5.8,3.9c1.8,2.6,4.9,11.3,4.9,11.3l-1.8,3c0,0-5-12.3-7.6-14.3
		c-0.1,0-0.1-0.1-0.2-0.1c-0.4-0.3-0.9-0.4-1.4-0.4c-10.6-0.3-21.4,0.1-32.4,0.2c-1,0-2-0.1-2.9,0.5c-1.8,1.2-3.3,3.8-4.3,5.8
		c-0.7,1.3-4.5,8.4-4.5,8.4l-2-2.8c0,0,5-10.6,7.6-13.2c1.2-1.1,2.7-2,4.3-2C122.4,193.4,131.2,193.3,140,193.3z"/>
	<path class="st4" d="M105.6,196.2l-4.2,0l-4.9,70.4c0.9,0.6,2.7,0.7,3.7,0.3L105.6,196.2z"/>
	<path class="st3" d="M105.6,196.2l-4.2,0l-4.9,70.4c0.9,0.6,2.7,0.7,3.7,0.3L105.6,196.2z"/>
	<path class="st4" d="M155.7,196.2l3.9-0.1l4.7,71.3c-0.9,0.6-2.7,0.7-3.7,0.3L155.7,196.2z"/>
	<path class="st3" d="M155.7,196.2l3.9-0.1l4.7,71.3c-0.9,0.6-2.7,0.7-3.7,0.3L155.7,196.2z"/>
	<polygon class="st6" points="168.1,185 168.1,185 168.2,185.4 167.9,185.7 167.9,185.7 167.9,185.7 167.9,185.7 167.9,185.7 
		167.8,185.7 167.8,185.8 167.8,185.8 167.8,185.8 167.7,185.8 167.7,185.8 167.7,185.8 167.7,185.8 167.6,185.8 167.6,185.9 
		167.6,185.9 167.6,185.9 167.5,185.9 167.5,185.9 167.5,186 167.5,186 167.4,186 167.4,186 167.4,186 167.4,186 167.3,186.1 
		167.3,186.1 167.3,186.1 167.2,186.1 167.2,186.2 167.2,186.2 167.1,186.2 167.1,186.2 167.1,186.2 167.1,186.3 167,186.3 
		167,186.3 167,186.3 166.9,186.4 166.9,186.4 166.9,186.4 166.9,186.5 166.8,186.5 166.8,186.5 166.8,186.5 166.7,186.6 
		166.7,186.6 166.7,186.6 166.6,186.6 166.6,186.7 166.6,186.7 166.6,186.7 166.5,186.8 166.5,186.8 166.5,186.8 166.4,186.9 
		166.4,186.9 166.4,186.9 166.4,186.9 166.3,187 166.3,187 166.3,187 166.2,187.1 166.2,187.1 166.2,187.1 166.2,187.2 166.1,187.2 
		166.1,187.2 166.1,187.3 166,187.3 166,187.3 166,187.4 166,187.4 165.9,187.4 165.9,187.5 165.9,187.5 165.9,187.5 165.8,187.6 
		165.8,187.6 165.8,187.6 165.8,187.7 165.7,187.7 165.7,187.7 165.7,187.8 165.7,187.8 165.6,187.8 165.6,187.9 165.6,187.9 
		165.6,188 165.5,188 165.5,188 165.5,188.1 165.5,188.1 165.5,188.1 165.4,188.2 165.4,188.2 165.4,188.2 165.4,188.3 165.4,188.3 
		165.4,188.3 165.3,188.4 165.3,188.4 165.3,188.4 165.3,188.5 165.3,188.5 165.3,188.5 165.2,188.6 165.2,188.6 165.2,188.6 
		165.2,188.7 165.2,188.7 165.2,188.7 165.2,188.8 165.1,188.8 165.1,188.8 165.1,188.9 165.1,188.9 165.1,188.9 165.1,189 
		165.1,189 165.1,189 165.1,189.1 165.1,189.1 165.1,189.1 165.1,189.2 165,189.2 165,189.2 165,189.3 165,189.3 165,189.3 
		164.7,189.6 164.4,189.3 164.4,189.2 164.4,189.2 164.4,189.2 164.4,189.1 164.4,189.1 164.4,189 164.4,189 164.4,189 164.4,188.9 
		164.5,188.9 164.5,188.8 164.5,188.8 164.5,188.7 164.5,188.7 164.5,188.7 164.5,188.6 164.5,188.6 164.5,188.5 164.5,188.5 
		164.6,188.5 164.6,188.4 164.6,188.4 164.6,188.3 164.6,188.3 164.6,188.2 164.6,188.2 164.7,188.2 164.7,188.1 164.7,188.1 
		164.7,188 164.7,188 164.7,188 164.8,187.9 164.8,187.9 164.8,187.8 164.8,187.8 164.8,187.7 164.9,187.7 164.9,187.7 164.9,187.6 
		164.9,187.6 165,187.5 165,187.5 165,187.5 165,187.4 165,187.4 165.1,187.3 165.1,187.3 165.1,187.3 165.1,187.2 165.2,187.2 
		165.2,187.1 165.2,187.1 165.2,187.1 165.3,187 165.3,187 165.3,186.9 165.3,186.9 165.4,186.9 165.4,186.8 165.4,186.8 
		165.5,186.7 165.5,186.7 165.5,186.7 165.5,186.6 165.6,186.6 165.6,186.6 165.6,186.5 165.7,186.5 165.7,186.4 165.7,186.4 
		165.7,186.4 165.8,186.3 165.8,186.3 165.8,186.3 165.9,186.2 165.9,186.2 165.9,186.2 166,186.1 166,186.1 166,186 166,186 
		166.1,186 166.1,185.9 166.1,185.9 166.2,185.9 166.2,185.8 166.2,185.8 166.3,185.8 166.3,185.7 166.3,185.7 166.4,185.7 
		166.4,185.7 166.4,185.6 166.5,185.6 166.5,185.6 166.5,185.5 166.5,185.5 166.6,185.5 166.6,185.4 166.6,185.4 166.7,185.4 
		166.7,185.4 166.7,185.3 166.8,185.3 166.8,185.3 166.8,185.3 166.9,185.2 166.9,185.2 166.9,185.2 167,185.2 167,185.1 167,185.1 
		167,185.1 167.1,185.1 167.1,185 167.1,185 167.2,185 167.2,185 167.2,185 167.3,184.9 167.3,184.9 167.3,184.9 167.4,184.9 
		167.4,184.9 167.4,184.8 167.4,184.8 167.5,184.8 167.5,184.8 167.9,184.8 	"/>
	<path class="st2" d="M181.9,245.1l0.9,6.2c-1.3,3.1-1.2,7.3-0.4,10.2c0,0,23.9,5.5,27.7,2.1c0.7-0.6,1.7-3.4-2.7-5.2
		c-8.8-3.6-17-5.4-17-5.4s0-8.1,0.1-8.1C190.5,244.9,181.9,245.1,181.9,245.1"/>
</g>
<g>
	<defs>
		<path id="SVGID_3_" d="M181.9,245.1l0.9,6.2c-1.3,3.1-1.2,7.3-0.4,10.2c0,0,23.9,5.5,27.7,2.1c0.7-0.6,1.7-3.4-2.7-5.2
			c-8.8-3.6-17-5.4-17-5.4s0-8.1,0.1-8.1c0,0,0,0-0.1,0C189.7,244.9,181.9,245.1,181.9,245.1"/>
	</defs>
	<clipPath id="SVGID_4_">
		<use xlink:href="#SVGID_3_"  style="overflow:visible;"/>
	</clipPath>
	<path class="st7" d="M181.5,254.8c-0.7,1.7,11,3.6,15.6,4c2.7,0.2,2.4-2.4,3.9-3.9l-10.4-5.1l0.3-7.8l-10,0.6L181.5,254.8z"/>
</g>
<g>
	<defs>
		<rect id="SVGID_5_" width="283.5" height="283.5"/>
	</defs>
	<clipPath id="SVGID_6_">
		<use xlink:href="#SVGID_5_"  style="overflow:visible;"/>
	</clipPath>
	<path class="st8" d="M181.9,245.1l0.9,6.2c-1.3,3.1-1.2,7.3-0.4,10.2c0,0,23.9,5.5,27.7,2.1c0.7-0.6,1.7-3.4-2.7-5.2
		c-8.8-3.6-17-5.4-17-5.4s0-8.1,0.1-8.1C190.5,244.9,181.9,245.1,181.9,245.1z"/>
	<path class="st9" d="M176.5,167.6l11.9,5.6c0,0,2.1,0.6,2.8,4.7c0.7,4.2,2.5,68.2,2.5,68.2l-8.3,1l-0.5-66.7L176.5,167.6z"/>
	<path class="st8" d="M176.5,167.6l11.9,5.6c0,0,2.1,0.6,2.8,4.7c0.7,4.2,2.5,68.2,2.5,68.2l-8.3,1l-0.5-66.7L176.5,167.6z"/>
	<path class="st9" d="M171.1,251.1l-0.4,7c-1.3,3.1-1.5,6.1-0.7,9.1c0,0,8.3,5.2,21.9,6.1c1.9,0.1,6.6,0.8,8.1-1
		c0.6-0.7,1.2-3.5-2.7-6.2c-6-4.2-17.8-8.6-17.8-8.6s0.1-6.5,0.1-6.5C179.7,250.9,171.1,251.1,171.1,251.1"/>
</g>
<g>
	<defs>
		<path id="SVGID_7_" d="M171.1,251.1l-0.4,7c-1.3,3.1-1.5,6.1-0.7,9.1c0,0,8.3,5.2,21.9,6.1c2,0.1,6.6,0.8,8.1-1
			c0.6-0.7,1.2-3.5-2.7-6.2c-6-4.2-17.8-8.6-17.8-8.6s0.1-6.5,0.1-6.5c0,0,0,0-0.1,0C178.9,250.9,171.1,251.1,171.1,251.1"/>
	</defs>
	<clipPath id="SVGID_8_">
		<use xlink:href="#SVGID_7_"  style="overflow:visible;"/>
	</clipPath>
	<path class="st10" d="M169.6,258.9c-0.9,1.7,14.2,8.8,19.6,7.7c3.2-0.7,4.1-4.1,4-5.2l-12.3-5.1l0.4-7.8l-11.7,0.6V258.9z"/>
	<path class="st11" d="M169.6,258.9c-0.9,1.7,14.2,8.8,19.6,7.7c3.2-0.7,4.1-4.1,4-5.2l-12.3-5.1l0.4-7.8l-11.7,0.6V258.9z"/>
</g>
<g>
	<defs>
		<rect id="SVGID_9_" width="283.5" height="283.5"/>
	</defs>
	<clipPath id="SVGID_10_">
		<use xlink:href="#SVGID_9_"  style="overflow:visible;"/>
	</clipPath>
	<path class="st12" d="M171.1,251.1l-0.4,7c-1.3,3.1-1.5,6.1-0.7,9.1c0,0,8.3,5.2,21.9,6.1c1.9,0.1,6.6,0.8,8.1-1
		c0.6-0.7,1.2-3.5-2.7-6.2c-6-4.2-17.8-8.6-17.8-8.6s0.1-6.5,0.1-6.5C179.7,250.9,171.1,251.1,171.1,251.1z"/>
	<path class="st13" d="M146.5,164.3l-18.7,8.8l-1.9,10.4c10.3,2.5,22.9,2.8,36.3,2.8l2.2,3c-0.8,27,0.5,47.2,2.4,65.9
		c12.1,1.5,17.7,0.4,20.1-0.7l0.7-69.8c0,0,0.7-7-5.5-9.9C175.9,172,146.5,164.3,146.5,164.3"/>
	<path class="st12" d="M146.5,164.3l-18.7,8.8l-1.9,10.4c10.3,2.5,22.9,2.8,36.3,2.8l2.2,3c-0.8,27,0.5,47.2,2.4,65.9
		c12.1,1.5,17.7,0.4,20.1-0.7l0.7-69.8c0,0,0.7-7-5.5-9.9C175.9,172,146.5,164.3,146.5,164.3z"/>
	<path class="st13" d="M165.4,156.9c1.7,3.6,3.7,7.2,6.1,10.8l-7.7,2.3l-5.9-9.4L165.4,156.9z"/>
	<path class="st12" d="M165.4,156.9c1.7,3.6,3.7,7.2,6.1,10.8l-7.7,2.3l-5.9-9.4L165.4,156.9z"/>
	<path class="st14" d="M155.3,152.3l6.8,11l7.1-6.1c-2.8-6.3-6.1-11.9-7.9-19.7c-1-30.1-2.9-46.8-5.4-54.2
		C152,96.1,152.2,120.3,155.3,152.3"/>
	<path class="st12" d="M155.3,152.3l6.8,11l7.2-6.1c-2.8-6.3-6.3-11.9-8-19.7c-1-30.1-2.9-48.3-5.4-55.6
		C152,94.6,152.2,120.3,155.3,152.3z"/>
	<path class="st14" d="M143.2,58.2l-2.7,6.1c0,0-10.8,4.8-16.6,17.6c-5.8,12.9-7.8,31.1-8.7,49c-0.9,17.9-1,39.2,0.3,42.4
		c1.3,3.1,2.9,6.7,5.7,8.3c2.8,1.5,5.6,2,5.6,2s0.3-4.9,2.9-8.1c2.6-3.2,8-6.4,12.2-8.5c4.3-2.1,19.3-3.5,19.3-3.5s-2.9-72-4.1-76.7
		c-1.2-4.7-6.1-17.2-6.1-17.2l3.3-4.4c0,0,6.6,4.3,10.1,4.3c3.5,0.1,5.8-1.4,7.5-4.9c1.7-3.5,4.6-11.9,4.6-11.9s2.6,0.6,3.6-0.9
		c1-1.5-1.8-4.4-2.3-7.5c-0.4-3.1-0.6-15.5-0.6-15.5s-2.2-2.6-7.5-2.1c-5.3,0.4-16.3,14-16.3,14s-7.4-4.2-7.7,2.1
		c-0.3,6.3,0.6,7.5,0.6,7.5L143.2,58.2z"/>
</g>
<g>
	<defs>
		<path id="SVGID_11_" d="M169.6,26.6c-5.3,0.4-16.3,14-16.3,14s-7.4-4.2-7.7,2.1c-0.3,6.3,0.6,7.5,0.6,7.5l-3,8l-2.7,6.1
			c0,0-10.8,4.8-16.6,17.6c-5.8,12.9-7.8,31.1-8.7,49c-0.9,17.9-1,39.2,0.3,42.4c1.3,3.1,2.9,6.7,5.7,8.3c2.8,1.5,5.6,2,5.6,2
			s0.3-4.9,2.9-8.1c2.6-3.2,8-6.4,12.2-8.5c4.3-2.1,19.3-3.5,19.3-3.5s-2.9-72-4.1-76.7c-1.2-4.7-6.1-17.2-6.1-17.2l3.3-4.4
			c0,0,6.6,4.3,10.1,4.3c3.5,0.1,5.8-1.4,7.5-4.9c1.7-3.5,4.6-11.9,4.6-11.9s2.6,0.6,3.6-0.9c1-1.5-1.8-4.4-2.3-7.5
			c-0.4-3.1-0.6-15.5-0.6-15.5s-1.9-2.2-6.4-2.2C170.4,26.5,170,26.5,169.6,26.6"/>
	</defs>
	<clipPath id="SVGID_12_">
		<use xlink:href="#SVGID_11_"  style="overflow:visible;"/>
	</clipPath>
	<path class="st15" d="M135.5,67.6c1,6.5,12.6,12.5,18.1,9.3v-6.3l1.8-2c0,0,9.7,6,14,3.4c4.3-2.7,8.6-16.9,8.6-16.9s4.7-0.9,5-4.3
		c0.3-3.5-3.5-10-3.5-10s2.6-1.5,2.6-8c0-6.5-2.7-12.1-7.4-13.8c-4.8-1.6-8.9-1.3-8.9-1.3s-9.7-4.5-12.7-3.7
		c-2.9,0.8-4.2,1.9-4.2,1.9S137,16.6,135,20.9c-2,4.3-2.2,5.6-2.2,5.6s-5.2,1.6-4.5,10.4c0.7,8.8,4.7,20.3,7.3,21.8
		c2.6,1.4,4.3,2.3,4.3,2.3L135.5,67.6z"/>
	<path class="st16" d="M135.5,67.6c1,6.5,12.6,12.5,18.1,9.3v-6.3l1.8-2c0,0,9.7,6,14,3.4c4.3-2.7,8.6-16.9,8.6-16.9s4.7-0.9,5-4.3
		c0.3-3.5-3.5-10-3.5-10s2.6-1.5,2.6-8c0-6.5-2.7-12.1-7.4-13.8c-4.8-1.6-8.9-1.3-8.9-1.3s-9.7-4.5-12.7-3.7
		c-2.9,0.8-4.2,1.9-4.2,1.9S137,16.6,135,20.9c-2,4.3-2.2,5.6-2.2,5.6s-5.2,1.6-4.5,10.4c0.7,8.8,4.7,20.3,7.3,21.8
		c2.6,1.4,4.3,2.3,4.3,2.3L135.5,67.6z"/>
</g>
<g>
	<defs>
		<rect id="SVGID_13_" width="283.5" height="283.5"/>
	</defs>
	<clipPath id="SVGID_14_">
		<use xlink:href="#SVGID_13_"  style="overflow:visible;"/>
	</clipPath>
	<path class="st17" d="M143.2,58.2l-2.7,6.1c0,0-10.8,4.8-16.6,17.6c-5.8,12.9-7.8,31.1-8.7,49c-0.9,17.9-1,39.2,0.3,42.4
		c1.3,3.1,2.9,6.7,5.7,8.3c2.8,1.5,5.6,2,5.6,2s0.3-4.9,2.9-8.1c2.6-3.2,8-6.4,12.2-8.5c4.3-2.1,19.3-3.5,19.3-3.5s-2.9-72-4.1-76.7
		c-1.2-4.7-6.1-17.2-6.1-17.2l3.3-4.4c0,0,6.6,4.3,10.1,4.3c3.5,0.1,5.8-1.4,7.5-4.9c1.7-3.5,4.6-11.9,4.6-11.9s2.6,0.6,3.6-0.9
		c1-1.5-1.8-4.4-2.3-7.5c-0.4-3.1-0.6-15.5-0.6-15.5s-2.2-2.6-7.5-2.1c-5.3,0.4-16.3,14-16.3,14s-7.4-4.2-7.7,2.1
		c-0.3,6.3,0.6,7.5,0.6,7.5L143.2,58.2z"/>
	<path class="st17" d="M168.3,59.5c2.2,0.1,2.9,0.2,5.3-0.1"/>
	<polygon class="st18" points="150.9,60.6 150.9,60.7 151,60.8 151.1,60.9 151.1,61 151.2,61.1 151.3,61.2 151.3,61.3 151.4,61.3 
		151.5,61.4 151.5,61.5 151.6,61.6 151.7,61.7 151.7,61.8 151.8,61.9 151.9,62 152,62 152,62.1 152.1,62.2 152.2,62.3 152.2,62.4 
		152.3,62.5 152.4,62.5 152.5,62.6 152.5,62.7 152.6,62.8 152.7,62.9 152.8,62.9 152.8,63 152.9,63.1 153,63.2 153.1,63.3 
		153.1,63.3 153.2,63.4 153.3,63.5 153.4,63.6 153.4,63.6 153.5,63.7 153.6,63.8 153.7,63.9 153.7,63.9 153.8,64 153.9,64.1 
		154,64.2 154.1,64.2 154.1,64.3 154.2,64.4 154.3,64.4 154.4,64.5 154.5,64.6 154.5,64.6 154.6,64.7 154.7,64.8 154.8,64.8 
		154.9,64.9 154.9,65 155,65 155.1,65.1 155.2,65.2 155.3,65.2 155.4,65.3 155.4,65.3 155.5,65.4 155.6,65.5 155.7,65.5 155.7,65.5 
		155.9,65.9 155.8,66.2 155.8,66.2 155.5,66.4 155.1,66.3 155.1,66.3 155,66.3 154.9,66.2 154.8,66.1 154.7,66.1 154.7,66 
		154.6,65.9 154.5,65.8 154.4,65.8 154.3,65.7 154.2,65.6 154.2,65.5 154.1,65.5 154,65.4 153.9,65.3 153.8,65.3 153.8,65.2 
		153.7,65.1 153.6,65 153.5,64.9 153.4,64.9 153.4,64.8 153.3,64.7 153.2,64.6 153.1,64.5 153.1,64.5 153,64.4 152.9,64.3 
		152.8,64.2 152.8,64.1 152.7,64.1 152.6,64 152.5,63.9 152.5,63.8 152.4,63.7 152.3,63.6 152.2,63.6 152.2,63.5 152.1,63.4 
		152,63.3 152,63.2 151.9,63.1 151.8,63 151.7,62.9 151.7,62.9 151.6,62.8 151.5,62.7 151.5,62.6 151.4,62.5 151.3,62.4 151.3,62.3 
		151.2,62.2 151.1,62.1 151.1,62 151,61.9 150.9,61.8 150.9,61.7 150.8,61.7 150.7,61.6 150.7,61.5 150.6,61.4 150.5,61.3 
		150.5,61.2 150.4,61.1 150.3,61 150.4,60.5 	"/>
	<path class="st19" d="M177.9,38.6c-1.4-5.5-3.4-8.4-5.7-10.3c-4.1,3.2-4.9,5.9-9.5,5.9c0.2,2.5-1,3.7-3.8,3.2
		c-0.2,3.8-2.1,6.1-5.6,7c-1.2-5.9-9.5-2.3-4.3,5.4c0.7,0.2-3.1,8.5-4.8,8.4c-1.2-0.1-2.6,0.4-3.5,0.6c-2.4,0.5-2.8-0.8-4.7-4.3
		c-5.7-10.8-7.1-22.3-2.8-25.4c1.8-5.2,4.9-8.7,9.5-10.1c3-0.9,5.8-1.5,8.1-1.1c2.3-2,7.1-1.1,13.6,1.9c2.7,0.6,5.4,0.1,7.6,0.9
		C176.6,22.1,183.1,29.1,177.9,38.6"/>
	<path class="st17" d="M177.9,38.6c-1.4-5.5-3.4-8.4-5.7-10.3c-4.1,3.2-4.9,5.9-9.5,5.9c0.2,2.5-1,3.7-3.8,3.2
		c-0.2,3.8-2.1,6.1-5.6,7c-1.2-5.9-9.5-2.3-4.3,5.4c0.7,0.2-3.1,8.5-4.8,8.4c-1.2-0.1-2.6,0.4-3.5,0.6c-2.4,0.5-2.8-0.8-4.7-4.3
		c-5.7-10.8-7.1-22.3-2.8-25.4c1.8-5.2,4.9-8.7,9.5-10.1c3-0.9,5.8-1.5,8.1-1.1c2.3-2,7.1-1.1,13.6,1.9c2.7,0.6,5.4,0.1,7.6,0.9
		C176.6,22.1,183.1,29.1,177.9,38.6z"/>
	<polygon class="st18" points="151,44.1 151,44.1 151,44.1 151.1,44.1 151.1,44.1 151.1,44.1 151.1,44.1 151.1,44.1 151.1,44.1 
		151.2,44.1 151.2,44.1 151.2,44.1 151.2,44.1 151.2,44.1 151.2,44.1 151.3,44.1 151.3,44.1 151.3,44.2 151.3,44.2 151.3,44.2 
		151.3,44.2 151.3,44.2 151.4,44.2 151.4,44.2 151.4,44.2 151.4,44.2 151.4,44.2 151.5,44.2 151.5,44.2 151.5,44.3 151.5,44.3 
		151.6,44.3 151.6,44.3 151.6,44.3 151.7,44.4 151.7,44.4 151.7,44.4 151.7,44.4 151.8,44.5 151.8,44.5 151.8,44.5 151.8,44.6 
		151.9,44.6 151.9,44.6 151.9,44.7 152,44.7 152,44.7 152,44.8 152,44.8 152.1,44.8 152.1,44.9 152.1,44.9 152.1,44.9 152.2,45 
		152.2,45 152.2,45.1 152.2,45.1 152.3,45.2 152.3,45.2 152.3,45.3 152.4,45.3 152.4,45.4 152.4,45.4 152.4,45.5 152.5,45.5 
		152.5,45.6 152.5,45.6 152.5,45.7 152.6,45.7 152.6,45.8 152.6,45.9 152.6,45.9 152.7,46 152.7,46 152.7,46.1 152.7,46.2 
		152.8,46.2 152.7,46.5 152.5,46.7 152.5,46.7 152.5,46.7 152.2,46.6 152,46.4 152,46.4 152,46.4 152,46.3 152,46.3 152,46.2 
		151.9,46.1 151.9,46.1 151.9,46 151.9,46 151.8,45.9 151.8,45.9 151.8,45.8 151.8,45.8 151.8,45.7 151.7,45.7 151.7,45.6 
		151.7,45.6 151.7,45.5 151.7,45.5 151.6,45.5 151.6,45.4 151.6,45.4 151.6,45.4 151.5,45.3 151.5,45.3 151.5,45.3 151.5,45.2 
		151.5,45.2 151.4,45.2 151.4,45.1 151.4,45.1 151.4,45.1 151.4,45.1 151.4,45 151.3,45 151.3,45 151.3,45 151.3,45 151.3,44.9 
		151.2,44.9 151.2,44.9 151.2,44.9 151.2,44.9 151.2,44.9 151.2,44.8 151.2,44.8 151.1,44.8 151.1,44.8 151.1,44.8 151.1,44.8 
		151.1,44.8 151.1,44.8 151.1,44.8 151.1,44.8 151.1,44.8 151.1,44.8 151.1,44.8 151.1,44.8 151.1,44.8 151,44.8 151,44.8 151,44.8 
		151,44.8 151,44.8 151,44.8 151,44.8 151,44.8 151,44.8 151,44.8 151,44.8 151,44.8 151,44.8 151,44.8 151,44.8 151,44.8 151,44.8 
		151,44.8 151,44.8 151,44.8 151,44.8 151,44.8 151,44.8 151,44.8 151,44.8 151,44.8 151,44.8 151,44.8 151,44.8 151,44.8 151,44.8 
		150.9,44.8 150.9,44.8 150.9,44.8 150.9,44.8 150.9,44.8 150.9,44.8 150.9,44.8 150.9,44.8 150.9,44.8 150.9,44.8 150.9,44.8 
		150.9,44.8 150.9,44.8 150.9,44.8 150.9,44.8 150.9,44.8 150.9,44.8 150.9,44.8 150.8,44.8 150.8,44.8 150.8,44.8 150.8,44.9 
		150.8,44.9 150.8,44.9 150.8,44.9 150.8,44.9 150.8,44.9 150.8,44.9 150.7,44.9 150.7,45 150.7,45 150.7,45 150.7,45 150.7,45 
		150.7,45 150.7,45.1 150.7,45.1 150.7,45.1 150.7,45.1 150.6,45.1 150.6,45.2 150.6,45.2 150.6,45.2 150.6,45.2 150.6,45.3 
		150.6,45.3 150.6,45.3 150.6,45.3 150.6,45.4 150.6,45.4 150.6,45.4 150.5,45.4 150.5,45.5 150.5,45.5 150.5,45.5 150.5,45.6 
		150.5,45.6 150.5,45.6 150.5,45.6 150.5,45.7 150.5,45.7 150.5,45.7 150.5,45.8 150.5,45.8 150.5,45.8 150.5,45.9 150.5,45.9 
		150.5,45.9 150.5,46 150.5,46 150.5,46 150.5,46.1 150.5,46.1 150.5,46.1 150.5,46.2 150.5,46.2 150.5,46.2 150.5,46.3 150.5,46.3 
		150.5,46.3 150.5,46.4 150.5,46.4 150.5,46.4 150.5,46.5 150.5,46.5 150.5,46.6 150.5,46.6 150.5,46.6 150.5,46.7 150.5,46.7 
		150.5,46.7 150.5,46.8 150.5,46.8 150.5,46.8 150.5,46.9 150.5,46.9 150.5,47 150.5,47 150.5,47 150.5,47.1 150.5,47.1 150.6,47.1 
		150.6,47.2 150.6,47.2 150.6,47.2 150.6,47.3 150.6,47.3 150.6,47.4 150.6,47.4 150.6,47.4 150.6,47.5 150.7,47.5 150.7,47.5 
		150.7,47.6 150.7,47.6 150.7,47.6 150.7,47.7 150.7,47.7 150.8,47.7 150.8,47.8 150.8,47.8 150.8,47.8 150.8,47.9 150.8,47.9 
		150.8,47.9 150.9,48 150.9,48 150.9,48 150.9,48.1 150.9,48.1 151,48.1 151,48.2 151,48.2 151,48.2 151,48.3 151.1,48.3 
		151.1,48.3 151.1,48.4 151.1,48.4 151.2,48.4 151.2,48.4 151.2,48.5 151.2,48.5 151.3,48.5 151.3,48.6 151.3,48.6 151.3,48.6 
		151.4,48.6 151.4,48.7 151.4,48.7 151.4,48.7 151.5,48.7 151.5,48.8 151.5,48.8 151.6,48.8 151.6,48.8 151.6,48.9 151.7,48.9 
		151.7,48.9 151.7,48.9 151.7,49 151.8,49 151.8,49 151.8,49 151.9,49 151.9,49 151.9,49 151.9,49 151.9,49.1 151.9,49.1 152,49.1 
		152,49.1 152,49.1 152,49.1 152,49.1 152.1,49.1 152.1,49.1 152.1,49.1 152.1,49.1 152.1,49.2 152.1,49.2 152.2,49.2 152.2,49.2 
		152.2,49.2 152.2,49.2 152.2,49.2 152.3,49.2 152.3,49.2 152.3,49.2 152.3,49.2 152.4,49.2 152.4,49.2 152.4,49.2 152.4,49.3 
		152.4,49.3 152.5,49.3 152.5,49.3 152.5,49.3 152.5,49.3 152.5,49.3 152.6,49.3 152.6,49.3 152.6,49.3 152.6,49.3 152.7,49.3 
		152.7,49.3 152.7,49.3 152.7,49.3 152.8,49.3 152.8,49.3 152.8,49.3 152.8,49.3 152.9,49.3 152.9,49.3 152.9,49.4 152.9,49.4 
		153,49.4 153,49.4 153,49.4 153.2,49.6 153,49.8 152.9,49.8 152.9,49.8 152.9,49.8 152.9,49.7 152.8,49.7 152.8,49.7 152.8,49.7 
		152.8,49.7 152.7,49.7 152.7,49.7 152.7,49.7 152.6,49.7 152.6,49.7 152.6,49.7 152.6,49.7 152.5,49.7 152.5,49.7 152.5,49.7 
		152.5,49.7 152.4,49.7 152.4,49.7 152.4,49.7 152.4,49.7 152.3,49.7 152.3,49.7 152.3,49.7 152.3,49.6 152.2,49.6 152.2,49.6 
		152.2,49.6 152.2,49.6 152.1,49.6 152.1,49.6 152.1,49.6 152.1,49.6 152,49.6 152,49.6 152,49.6 152,49.6 151.9,49.5 151.9,49.5 
		151.9,49.5 151.9,49.5 151.9,49.5 151.8,49.5 151.8,49.5 151.8,49.5 151.8,49.5 151.7,49.5 151.7,49.5 151.7,49.4 151.7,49.4 
		151.7,49.4 151.6,49.4 151.6,49.4 151.6,49.4 151.6,49.4 151.5,49.3 151.5,49.3 151.4,49.3 151.4,49.3 151.4,49.2 151.3,49.2 
		151.3,49.2 151.2,49.2 151.2,49.1 151.2,49.1 151.1,49.1 151.1,49 151.1,49 151,49 151,49 151,48.9 150.9,48.9 150.9,48.9 
		150.9,48.8 150.8,48.8 150.8,48.8 150.8,48.7 150.8,48.7 150.7,48.7 150.7,48.6 150.7,48.6 150.6,48.6 150.6,48.5 150.6,48.5 
		150.6,48.4 150.5,48.4 150.5,48.4 150.5,48.3 150.5,48.3 150.4,48.3 150.4,48.2 150.4,48.2 150.4,48.2 150.4,48.1 150.3,48.1 
		150.3,48 150.3,48 150.3,48 150.3,47.9 150.2,47.9 150.2,47.8 150.2,47.8 150.2,47.8 150.2,47.7 150.2,47.7 150.1,47.6 150.1,47.6 
		150.1,47.6 150.1,47.5 150.1,47.5 150.1,47.4 150.1,47.4 150.1,47.3 150,47.3 150,47.3 150,47.2 150,47.2 150,47.1 150,47.1 
		150,47.1 150,47 150,47 150,46.9 149.9,46.9 149.9,46.9 149.9,46.8 149.9,46.8 149.9,46.7 149.9,46.7 149.9,46.6 149.9,46.6 
		149.9,46.6 149.9,46.5 149.9,46.5 149.9,46.4 149.9,46.4 149.9,46.4 149.9,46.3 149.9,46.3 149.9,46.2 149.9,46.2 149.9,46.2 
		149.9,46.1 149.9,46.1 149.9,46 149.9,46 149.9,46 149.9,45.9 149.9,45.9 149.9,45.9 149.9,45.8 149.9,45.8 149.9,45.7 149.9,45.7 
		149.9,45.7 149.9,45.6 149.9,45.6 149.9,45.6 149.9,45.5 149.9,45.5 149.9,45.4 149.9,45.4 149.9,45.4 149.9,45.3 149.9,45.3 
		150,45.3 150,45.2 150,45.2 150,45.2 150,45.1 150,45.1 150,45.1 150,45 150,45 150,45 150.1,44.9 150.1,44.9 150.1,44.9 
		150.1,44.9 150.1,44.8 150.1,44.8 150.1,44.8 150.1,44.7 150.2,44.7 150.2,44.7 150.2,44.7 150.2,44.6 150.2,44.6 150.2,44.6 
		150.2,44.6 150.3,44.5 150.3,44.5 150.3,44.5 150.3,44.5 150.3,44.4 150.4,44.4 150.4,44.4 150.4,44.4 150.4,44.3 150.4,44.3 
		150.5,44.3 150.5,44.3 150.5,44.3 150.5,44.2 150.6,44.2 150.6,44.2 150.6,44.2 150.6,44.2 150.7,44.2 150.7,44.2 150.7,44.2 
		150.7,44.2 150.7,44.1 150.7,44.1 150.8,44.1 150.8,44.1 150.8,44.1 150.8,44.1 150.8,44.1 150.8,44.1 150.8,44.1 150.9,44.1 
		150.9,44.1 150.9,44.1 150.9,44.1 150.9,44.1 150.9,44.1 151,44.1 151,44.1 151,44.1 	"/>
	<path class="st17" d="M134.2,34.1c-0.7-1.6-0.9-3.7-0.7-5.5"/>
	<path class="st17" d="M151.9,27.9c2-3.4,7-6.7,14.1-8"/>
	<path class="st17" d="M153.6,21.3c2.6-1.3,6.3-2.1,10.8-1.4"/>
	<path class="st17" d="M165.8,42.5c2.6-1.2,5.2-1.6,7.7-1.4"/>
</g>
<g>
	<defs>
		<path id="SVGID_15_" d="M167,46.2c2,0.4,3.8,0.4,5.6,0c0-0.9-0.2-2-1.1-2.3c-0.3-0.1-0.7-0.2-1.1-0.2
			C168.8,43.7,166.8,44.6,167,46.2"/>
	</defs>
	<clipPath id="SVGID_16_">
		<use xlink:href="#SVGID_15_"  style="overflow:visible;"/>
	</clipPath>
	<path class="st20" d="M171.3,43.7c-0.8,0-1.5,0.6-1.5,1.4c0,0.8,0.7,1.4,1.5,1.4c0.8,0,1.5-0.6,1.5-1.4
		C172.8,44.3,172.1,43.7,171.3,43.7"/>
	<path class="st21" d="M171.7,44.3c-0.2,0-0.3,0.1-0.3,0.3c0,0.1,0.1,0.3,0.3,0.3c0.2,0,0.3-0.1,0.3-0.3
		C171.9,44.4,171.8,44.3,171.7,44.3"/>
</g>
<g>
	<defs>
		<rect id="SVGID_17_" width="283.5" height="283.5"/>
	</defs>
	<clipPath id="SVGID_18_">
		<use xlink:href="#SVGID_17_"  style="overflow:visible;"/>
	</clipPath>
	<path class="st22" d="M167,46.2c2,0.4,3.8,0.4,5.6,0c0-0.9-0.2-2-1.1-2.3C170,43.3,166.7,44.3,167,46.2z"/>
	<path class="st22" d="M173.8,50.3c-0.1,1.1,0.6,1.8,1.4,2"/>
	<path class="st22" d="M148.8,49.2c0,0,1.7,2.3,2.7,2.7c1.3,0.6,2-0.5,2-0.5"/>
	<polygon class="st23" points="165.1,181.9 165.1,181.9 165.1,181.9 165.2,182.3 165,182.6 165,182.6 165,182.6 165,182.6 
		165,182.7 165,182.7 164.9,182.7 164.9,182.7 164.9,182.7 164.9,182.7 164.9,182.8 164.8,182.8 164.8,182.8 164.8,182.8 
		164.8,182.8 164.8,182.9 164.7,182.9 164.7,182.9 164.7,182.9 164.7,183 164.7,183 164.6,183 164.6,183 164.6,183.1 164.6,183.1 
		164.5,183.1 164.5,183.1 164.5,183.2 164.5,183.2 164.4,183.2 164.4,183.3 164.4,183.3 164.4,183.3 164.4,183.3 164.3,183.4 
		164.3,183.4 164.3,183.4 164.3,183.5 164.2,183.5 164.2,183.5 164.2,183.6 164.2,183.6 164.1,183.6 164.1,183.7 164.1,183.7 
		164.1,183.7 164.1,183.8 164,183.8 164,183.8 164,183.9 164,183.9 163.9,183.9 163.9,184 163.9,184 163.9,184 163.9,184.1 
		163.8,184.1 163.8,184.2 163.8,184.2 163.8,184.2 163.8,184.3 163.7,184.3 163.7,184.3 163.7,184.4 163.7,184.4 163.7,184.5 
		163.6,184.5 163.6,184.5 163.6,184.6 163.6,184.6 163.6,184.7 163.5,184.7 163.5,184.7 163.5,184.8 163.5,184.8 163.5,184.8 
		163.4,184.9 163.4,184.9 163.4,185 163.4,185 163.4,185 163.4,185.1 163.4,185.1 163.3,185.2 163.3,185.2 163.3,185.2 163.3,185.3 
		163.3,185.3 163.3,185.4 163.3,185.4 163.2,185.4 163.2,185.5 163.2,185.5 163.2,185.5 163.2,185.6 163.2,185.6 163.2,185.7 
		163.2,185.7 163.1,185.7 163.1,185.8 163.1,185.8 163.1,185.8 163.1,185.9 163.1,185.9 163.1,186 163.1,186 163.1,186 163.1,186.1 
		163.1,186.1 163.1,186.1 163.1,186.2 163.1,186.2 163.1,186.2 163,186.3 163,186.3 163,186.3 163,186.4 163,186.4 163,186.5 
		163,186.5 163,186.5 163,186.5 163,186.6 163,186.6 163,186.6 163,186.7 163,186.7 163,186.7 163,186.8 163.1,186.8 162.8,187.2 
		162.4,186.9 162.4,186.9 162.4,186.8 162.4,186.8 162.4,186.7 162.4,186.7 162.4,186.7 162.4,186.6 162.4,186.6 162.4,186.5 
		162.4,186.5 162.4,186.5 162.4,186.4 162.4,186.4 162.4,186.3 162.4,186.3 162.4,186.2 162.4,186.2 162.4,186.2 162.4,186.1 
		162.4,186.1 162.4,186 162.4,186 162.4,185.9 162.4,185.9 162.4,185.9 162.4,185.8 162.4,185.8 162.4,185.7 162.4,185.7 
		162.4,185.6 162.5,185.6 162.5,185.5 162.5,185.5 162.5,185.5 162.5,185.4 162.5,185.4 162.5,185.3 162.5,185.3 162.5,185.2 
		162.5,185.2 162.6,185.1 162.6,185.1 162.6,185 162.6,185 162.6,185 162.6,184.9 162.6,184.9 162.6,184.8 162.7,184.8 162.7,184.7 
		162.7,184.7 162.7,184.6 162.7,184.6 162.7,184.6 162.8,184.5 162.8,184.5 162.8,184.4 162.8,184.4 162.8,184.3 162.8,184.3 
		162.9,184.2 162.9,184.2 162.9,184.2 162.9,184.1 162.9,184.1 163,184 163,184 163,183.9 163,183.9 163,183.9 163,183.8 
		163.1,183.8 163.1,183.7 163.1,183.7 163.1,183.6 163.2,183.6 163.2,183.6 163.2,183.5 163.2,183.5 163.2,183.4 163.3,183.4 
		163.3,183.4 163.3,183.3 163.3,183.3 163.3,183.2 163.4,183.2 163.4,183.2 163.4,183.1 163.4,183.1 163.5,183 163.5,183 163.5,183 
		163.5,182.9 163.6,182.9 163.6,182.9 163.6,182.8 163.6,182.8 163.7,182.7 163.7,182.7 163.7,182.7 163.7,182.6 163.7,182.6 
		163.8,182.6 163.8,182.5 163.8,182.5 163.8,182.5 163.9,182.4 163.9,182.4 163.9,182.4 163.9,182.3 164,182.3 164,182.3 164,182.2 
		164,182.2 164.1,182.2 164.1,182.2 164.1,182.1 164.1,182.1 164.2,182.1 164.2,182.1 164.2,182 164.2,182 164.3,182 164.3,181.9 
		164.3,181.9 164.3,181.9 164.4,181.9 164.4,181.9 164.4,181.9 164.8,181.7 	"/>
	<polygon class="st23" points="139.3,159.9 139.3,159.9 139.3,159.9 139.4,160.3 139.1,160.6 139.1,160.6 139.1,160.6 139,160.6 
		139,160.7 138.9,160.7 138.9,160.7 138.8,160.7 138.8,160.8 138.7,160.8 138.7,160.8 138.6,160.8 138.6,160.8 138.5,160.9 
		138.5,160.9 138.4,160.9 138.4,160.9 138.3,160.9 138.3,161 138.2,161 138.2,161 138.1,161 138,161.1 138,161.1 137.9,161.1 
		137.9,161.1 137.8,161.1 137.8,161.1 137.7,161.2 137.6,161.2 137.5,161.3 137.4,161.3 137.2,161.3 137.1,161.4 137,161.4 
		136.9,161.4 136.8,161.5 136.7,161.5 136.6,161.5 136.5,161.6 136.4,161.6 136.3,161.6 136.2,161.7 136,161.7 135.9,161.7 
		135.8,161.7 135.7,161.8 135.6,161.8 135.5,161.8 135.4,161.9 135.3,161.9 135.2,161.9 135.1,161.9 134.8,162 134.6,162.1 
		134.4,162.1 134.2,162.2 134,162.2 133.7,162.3 133.5,162.3 133.3,162.4 133.1,162.4 133,162.4 132.9,162.5 132.8,162.5 
		132.7,162.5 132.6,162.5 132.5,162.6 132.4,162.6 132.3,162.6 132.2,162.7 132.1,162.7 132,162.7 131.9,162.7 131.8,162.8 
		131.7,162.8 131.6,162.8 131.5,162.8 131.4,162.9 131.3,162.9 131.2,162.9 131.2,163 131.1,163 131,163 130.9,163 130.8,163.1 
		130.8,163.1 130.7,163.1 130.7,163.1 130.6,163.1 130.6,163.1 130.6,163.2 130.5,163.2 130.5,163.2 130.4,163.2 130.4,163.2 
		130.4,163.2 130.3,163.3 130.3,163.3 130.2,163.3 130.2,163.3 130.2,163.3 130.1,163.3 130.1,163.4 130.1,163.4 130,163.4 
		130,163.4 130,163.4 129.9,163.4 129.9,163.5 129.9,163.5 129.8,163.5 129.8,163.5 129.7,163.5 129.7,163.6 129.7,163.6 
		129.7,163.6 129.6,163.6 129.6,163.6 129.6,163.6 129.5,163.7 129.5,163.7 129.5,163.7 129.4,163.7 129.4,163.7 129.4,163.8 
		129.3,163.8 129.3,163.8 129.3,163.8 129.3,163.8 129.2,163.9 129.2,163.9 129.2,163.9 129.2,163.9 129.1,163.9 129.1,164 
		129.1,164 129.1,164 129,164 129,164 129,164.1 129,164.1 129,164.1 128.9,164.1 128.9,164.1 128.9,164.2 128.9,164.2 128.8,164.2 
		128.8,164.2 128.8,164.2 128.8,164.3 128.8,164.3 128.8,164.3 128.7,164.3 128.7,164.4 128.7,164.4 128.7,164.4 128.7,164.4 
		128.7,164.5 128.6,164.5 128.6,164.5 128.6,164.5 128.6,164.5 128.6,164.6 128.6,164.6 128.6,164.6 128.6,164.6 128.5,164.7 
		128.5,164.7 128.5,164.7 128.5,164.7 128.5,164.8 128.5,164.8 128.5,164.8 128.5,164.8 128.5,164.9 128.5,164.9 128.5,164.9 
		128.4,165 128.4,165 128.4,165 128.4,165 128.1,165.3 127.8,164.9 127.8,164.9 127.8,164.9 127.8,164.8 127.8,164.8 127.9,164.7 
		127.9,164.7 127.9,164.7 127.9,164.6 127.9,164.6 127.9,164.6 127.9,164.5 127.9,164.5 127.9,164.5 128,164.4 128,164.4 128,164.4 
		128,164.3 128,164.3 128,164.2 128.1,164.2 128.1,164.2 128.1,164.2 128.1,164.1 128.1,164.1 128.1,164.1 128.2,164 128.2,164 
		128.2,164 128.2,163.9 128.3,163.9 128.3,163.9 128.3,163.8 128.3,163.8 128.3,163.8 128.4,163.7 128.4,163.7 128.4,163.7 
		128.5,163.7 128.5,163.6 128.5,163.6 128.5,163.6 128.6,163.6 128.6,163.5 128.6,163.5 128.6,163.5 128.7,163.4 128.7,163.4 
		128.7,163.4 128.8,163.4 128.8,163.3 128.8,163.3 128.9,163.3 128.9,163.3 128.9,163.2 129,163.2 129,163.2 129,163.2 129.1,163.1 
		129.1,163.1 129.1,163.1 129.2,163.1 129.2,163.1 129.2,163 129.3,163 129.3,163 129.3,163 129.4,162.9 129.4,162.9 129.4,162.9 
		129.5,162.9 129.5,162.9 129.6,162.8 129.6,162.8 129.6,162.8 129.7,162.8 129.7,162.8 129.8,162.7 129.8,162.7 129.8,162.7 
		129.9,162.7 129.9,162.7 130,162.6 130,162.6 130,162.6 130.1,162.6 130.1,162.6 130.2,162.5 130.2,162.5 130.2,162.5 130.3,162.5 
		130.3,162.5 130.4,162.5 130.4,162.4 130.5,162.4 130.5,162.4 130.6,162.4 130.6,162.4 130.7,162.3 130.8,162.3 130.9,162.2 
		131,162.2 131.1,162.2 131.2,162.2 131.3,162.1 131.4,162.1 131.5,162.1 131.6,162 131.7,162 131.8,162 131.9,161.9 132,161.9 
		132.1,161.9 132.2,161.8 132.3,161.8 132.4,161.8 132.5,161.8 132.6,161.7 132.7,161.7 132.8,161.7 132.9,161.6 133.1,161.6 
		133.3,161.5 133.5,161.5 134,161.3 134.2,161.3 134.4,161.2 134.6,161.2 134.8,161.1 134.9,161.1 135,161 135.2,161 135.3,161 
		135.4,160.9 135.5,160.9 135.6,160.9 135.7,160.9 135.8,160.8 135.9,160.8 136,160.8 136.1,160.7 136.2,160.7 136.3,160.7 
		136.4,160.6 136.5,160.6 136.6,160.5 136.7,160.5 136.8,160.5 136.9,160.4 137,160.4 137.1,160.4 137.2,160.3 137.3,160.3 
		137.4,160.3 137.5,160.2 137.5,160.2 137.6,160.2 137.6,160.2 137.7,160.2 137.7,160.1 137.8,160.1 137.8,160.1 137.9,160.1 
		137.9,160.1 138,160 138,160 138.1,160 138.1,160 138.2,159.9 138.2,159.9 138.3,159.9 138.3,159.9 138.4,159.9 138.4,159.8 
		138.4,159.8 138.5,159.8 138.5,159.8 138.6,159.7 138.6,159.7 138.7,159.7 139.1,159.7 	"/>
	<polygon class="st23" points="140.6,161.1 140.6,161.1 140.6,161.1 140.7,161.5 140.5,161.8 140.5,161.8 140.5,161.8 140.4,161.9 
		140.4,161.9 140.3,161.9 140.3,162 140.3,162 140.2,162 140.2,162.1 140.1,162.1 140.1,162.1 140,162.1 140,162.2 139.9,162.2 
		139.9,162.2 139.9,162.3 139.8,162.3 139.8,162.3 139.7,162.4 139.7,162.4 139.6,162.4 139.6,162.4 139.6,162.5 139.5,162.5 
		139.5,162.5 139.4,162.6 139.4,162.6 139.3,162.6 139.3,162.6 139.3,162.7 139.2,162.7 139.2,162.7 139.1,162.7 139,162.8 
		139,162.8 138.9,162.9 138.8,162.9 138.7,163 138.6,163 138.5,163.1 138.4,163.1 138.3,163.2 138.3,163.2 138.2,163.3 138.1,163.3 
		138,163.4 137.9,163.4 137.8,163.4 137.8,163.5 137.7,163.5 137.6,163.6 137.5,163.6 137.4,163.6 137.3,163.7 137.2,163.7 
		137.2,163.7 137.1,163.8 137,163.8 136.9,163.8 136.8,163.9 136.8,163.9 136.7,164 136.6,164 136.4,164.1 136.3,164.1 136.1,164.2 
		136,164.2 135.8,164.3 135.7,164.4 135.5,164.4 135.4,164.5 135.2,164.5 135.2,164.6 135.1,164.6 135,164.6 135,164.6 134.9,164.7 
		134.8,164.7 134.8,164.7 134.7,164.8 134.6,164.8 134.6,164.8 134.5,164.8 134.5,164.9 134.4,164.9 134.3,164.9 134.3,165 
		134.2,165 134.2,165 134.1,165 134,165.1 134,165.1 133.9,165.1 133.9,165.2 133.8,165.2 133.8,165.2 133.8,165.2 133.8,165.2 
		133.7,165.3 133.7,165.3 133.7,165.3 133.7,165.3 133.6,165.3 133.6,165.3 133.6,165.3 133.6,165.4 133.5,165.4 133.5,165.4 
		133.5,165.4 133.5,165.4 133.5,165.4 133.4,165.5 133.4,165.5 133.4,165.5 133.4,165.5 133.4,165.5 133.3,165.5 133.3,165.6 
		133.3,165.6 133.3,165.6 133.3,165.6 133.2,165.6 133.2,165.6 133.2,165.7 133.2,165.7 133.2,165.7 133.2,165.7 133.1,165.7 
		133.1,165.7 133.1,165.8 133.1,165.8 133.1,165.8 133.1,165.8 133,165.8 133,165.8 133,165.9 133,165.9 133,165.9 133,165.9 
		133,165.9 132.9,166 132.9,166 132.9,166 132.9,166 132.9,166 132.9,166 132.9,166.1 132.9,166.1 132.8,166.1 132.8,166.1 
		132.8,166.1 132.8,166.2 132.8,166.2 132.8,166.2 132.8,166.2 132.8,166.2 132.8,166.3 132.7,166.3 132.7,166.3 132.7,166.3 
		132.7,166.4 132.7,166.4 132.7,166.4 132.7,166.4 132.7,166.4 132.7,166.5 132.7,166.5 132.7,166.5 132.7,166.5 132.7,166.6 
		132.7,166.6 132.6,166.6 132.6,166.6 132.6,166.7 132.6,166.7 132.6,166.7 132.6,166.7 132.3,167 132,166.6 132,166.6 132,166.6 
		132,166.5 132,166.5 132,166.5 132,166.4 132,166.4 132.1,166.4 132.1,166.4 132.1,166.3 132.1,166.3 132.1,166.3 132.1,166.2 
		132.1,166.2 132.1,166.2 132.1,166.1 132.1,166.1 132.1,166.1 132.2,166 132.2,166 132.2,166 132.2,166 132.2,165.9 132.2,165.9 
		132.2,165.9 132.2,165.8 132.3,165.8 132.3,165.8 132.3,165.8 132.3,165.7 132.3,165.7 132.3,165.7 132.3,165.7 132.4,165.6 
		132.4,165.6 132.4,165.6 132.4,165.6 132.4,165.5 132.4,165.5 132.5,165.5 132.5,165.5 132.5,165.4 132.5,165.4 132.5,165.4 
		132.6,165.4 132.6,165.3 132.6,165.3 132.6,165.3 132.6,165.3 132.7,165.2 132.7,165.2 132.7,165.2 132.7,165.2 132.8,165.1 
		132.8,165.1 132.8,165.1 132.8,165.1 132.8,165.1 132.9,165 132.9,165 132.9,165 132.9,165 133,165 133,164.9 133,164.9 133,164.9 
		133.1,164.9 133.1,164.9 133.1,164.8 133.1,164.8 133.2,164.8 133.2,164.8 133.2,164.8 133.2,164.7 133.3,164.7 133.3,164.7 
		133.3,164.7 133.4,164.7 133.4,164.6 133.4,164.6 133.4,164.6 133.5,164.6 133.5,164.6 133.6,164.5 133.6,164.5 133.7,164.4 
		133.8,164.4 133.8,164.4 133.9,164.3 133.9,164.3 134,164.3 134.1,164.2 134.1,164.2 134.2,164.2 134.3,164.1 134.3,164.1 
		134.4,164.1 134.5,164 134.5,164 134.6,164 134.7,164 134.7,163.9 134.8,163.9 134.9,163.9 134.9,163.8 135.1,163.8 135.2,163.7 
		135.4,163.6 135.5,163.6 135.7,163.5 135.8,163.4 136,163.4 136.1,163.3 136.3,163.2 136.3,163.2 136.4,163.2 136.5,163.1 
		136.6,163.1 136.7,163 136.7,163 136.8,163 136.9,162.9 137,162.9 137,162.9 137.1,162.8 137.2,162.8 137.3,162.7 137.4,162.7 
		137.4,162.6 137.5,162.6 137.6,162.6 137.7,162.5 137.8,162.5 137.8,162.4 137.9,162.4 138,162.3 138.1,162.3 138.2,162.2 
		138.2,162.2 138.3,162.2 138.4,162.1 138.5,162.1 138.5,162 138.6,162 138.7,161.9 138.7,161.9 138.7,161.9 138.8,161.8 
		138.8,161.8 138.9,161.8 138.9,161.8 138.9,161.7 139,161.7 139,161.7 139.1,161.7 139.1,161.6 139.1,161.6 139.2,161.6 
		139.2,161.5 139.3,161.5 139.3,161.5 139.3,161.5 139.4,161.4 139.4,161.4 139.4,161.4 139.5,161.3 139.5,161.3 139.6,161.3 
		139.6,161.2 139.6,161.2 139.7,161.2 139.7,161.1 139.8,161.1 139.8,161.1 139.8,161.1 139.9,161 139.9,161 140.2,160.9 	"/>
	<path class="st24" d="M159.2,173.4c0,0,12.8,9.3,15.3,9.6c3,0.3,2.5-1.7,0.5-2.5c-1.6-0.7-6-3.8-6-3.8l0.7-1.4
		c0,0,6.1,4.9,10.5,5.5c2.3,0.3,3.7-1,1.5-2.4c-0.1-0.1-10.3-6.1-10.3-6.1l0.1-0.3c7,2.3,13.8,7,15.2,4l-2.9-2.1l-7.1-7l-14-1.4
		l-8.4,1L159.2,173.4z"/>
	<path class="st25" d="M159.2,173.4c0,0,12.8,9.3,15.3,9.6c3,0.3,2.5-1.7,0.5-2.5c-1.6-0.7-6-3.8-6-3.8l0.7-1.4
		c0,0,6.1,4.9,10.5,5.5c2.3,0.3,3.7-1,1.5-2.4c-0.1-0.1-10.3-6.1-10.3-6.1l0.1-0.3c7,2.3,13.8,7,15.2,4l-2.9-2.1l-7.1-7l-14-1.4
		l-8.4,1L159.2,173.4z"/>
	<line class="st25" x1="173.7" y1="168.9" x2="182.6" y2="173.2"/>
	<path class="st26" d="M163.8,164l-6.9,12.1c0,0-27.7-23.2-30.9-30.7c-2.5-6-2.3-8.1-2-22.5c0.3-14.4,0.4-36,4.6-39.5
		c4.7-4,10.9-2.8,11.9,1.1c1,4-1.7,54.9-1.7,54.9C147.4,150,155.7,158,163.8,164"/>
	<path class="st25" d="M163.8,164l-6.9,12.1c0,0-27.7-23.2-30.9-30.7c-2.5-6-2.3-8.1-2-22.5c0.3-14.4,0.4-36,4.6-39.5
		c4.7-4,10.9-2.8,11.9,1.1c1,4-1.7,54.9-1.7,54.9C147.4,150,155.7,158,163.8,164z"/>
	<polygon class="st23" points="138.3,138.8 138.4,138.8 138.4,138.8 138.7,139 138.9,139.3 138.9,139.3 138.7,139.7 138.3,139.8 
		138.3,139.8 138.3,139.8 138.3,139.8 138.2,139.8 138.2,139.8 138.1,139.8 138.1,139.8 138.1,139.8 138,139.8 138,139.8 
		137.9,139.8 137.9,139.8 137.8,139.8 137.8,139.8 137.7,139.8 137.7,139.8 137.6,139.8 137.6,139.8 137.5,139.8 137.5,139.8 
		137.4,139.8 137.4,139.8 137.3,139.8 137.3,139.8 137.2,139.8 137.2,139.9 137.1,139.9 137,139.9 137,139.9 136.9,139.9 
		136.9,139.9 136.8,139.9 136.8,139.9 136.7,139.9 136.6,139.9 136.6,140 136.5,140 136.5,140 136.4,140 136.4,140 136.3,140 
		136.2,140 136.2,140.1 136.1,140.1 136,140.1 136,140.1 135.9,140.1 135.9,140.1 135.8,140.1 135.7,140.2 135.7,140.2 135.6,140.2 
		135.6,140.2 135.5,140.2 135.4,140.3 135.4,140.3 135.3,140.3 135.2,140.3 135.2,140.3 135.1,140.4 135.1,140.4 135,140.4 
		134.9,140.4 134.9,140.5 134.8,140.5 134.7,140.5 134.7,140.5 134.6,140.5 134.6,140.6 134.5,140.6 134.4,140.6 134.4,140.6 
		134.3,140.7 134.3,140.7 134.2,140.7 134.1,140.8 134.1,140.8 134,140.8 134,140.8 133.9,140.9 133.8,140.9 133.8,140.9 
		133.7,140.9 133.7,141 133.6,141 133.6,141 133.5,141.1 133.4,141.1 133.4,141.1 133.3,141.2 133.3,141.2 133.2,141.2 133.2,141.3 
		133.1,141.3 133.1,141.3 133,141.4 133,141.4 132.9,141.4 132.9,141.5 132.8,141.5 132.8,141.5 132.7,141.6 132.7,141.6 
		132.6,141.6 132.6,141.7 132.5,141.7 132.5,141.7 132.4,141.8 132.4,141.8 132.3,141.8 132.3,141.9 132.3,141.9 132.2,142 
		132.2,142 132.2,142 132.2,142 132.1,142 132.1,142 132.1,142.1 132.1,142.1 132.1,142.1 132,142.1 132,142.1 132,142.2 132,142.2 
		132,142.2 132,142.2 131.9,142.2 131.9,142.3 131.9,142.3 131.9,142.3 131.9,142.3 131.9,142.3 131.8,142.4 131.8,142.4 
		131.8,142.4 131.8,142.4 131.8,142.4 131.8,142.5 131.7,142.5 131.7,142.5 131.7,142.5 131.7,142.5 131.7,142.5 131.7,142.6 
		131.2,142.7 131.2,142.2 131.2,142.2 131.2,142.2 131.2,142.2 131.2,142.1 131.2,142.1 131.2,142.1 131.3,142.1 131.3,142 
		131.3,142 131.3,142 131.3,142 131.4,141.9 131.4,141.9 131.4,141.9 131.4,141.9 131.4,141.8 131.4,141.8 131.5,141.8 131.5,141.8 
		131.5,141.7 131.5,141.7 131.5,141.7 131.6,141.7 131.6,141.7 131.6,141.6 131.6,141.6 131.6,141.6 131.7,141.6 131.7,141.5 
		131.7,141.5 131.7,141.5 131.8,141.5 131.8,141.4 131.8,141.4 131.9,141.3 131.9,141.3 132,141.3 132,141.2 132.1,141.2 
		132.1,141.1 132.2,141.1 132.2,141 132.3,141 132.3,141 132.4,140.9 132.4,140.9 132.5,140.8 132.6,140.8 132.6,140.8 132.7,140.7 
		132.7,140.7 132.8,140.6 132.8,140.6 132.9,140.6 132.9,140.5 133,140.5 133.1,140.5 133.1,140.4 133.2,140.4 133.2,140.4 
		133.3,140.3 133.4,140.3 133.4,140.2 133.5,140.2 133.5,140.2 133.6,140.1 133.7,140.1 133.7,140.1 133.8,140 133.9,140 133.9,140 
		134,140 134,139.9 134.1,139.9 134.2,139.9 134.2,139.8 134.3,139.8 134.4,139.8 134.4,139.7 134.5,139.7 134.6,139.7 134.6,139.7 
		134.7,139.6 134.8,139.6 134.8,139.6 134.9,139.6 135,139.5 135,139.5 135.1,139.5 135.2,139.5 135.2,139.4 135.3,139.4 
		135.3,139.4 135.4,139.4 135.5,139.3 135.5,139.3 135.6,139.3 135.7,139.3 135.7,139.3 135.8,139.2 135.9,139.2 135.9,139.2 
		136,139.2 136.1,139.2 136.1,139.1 136.2,139.1 136.3,139.1 136.3,139.1 136.4,139.1 136.4,139.1 136.5,139 136.6,139 136.6,139 
		136.7,139 136.8,139 136.8,139 136.9,139 136.9,138.9 137,138.9 137.1,138.9 137.1,138.9 137.2,138.9 137.2,138.9 137.3,138.9 
		137.4,138.9 137.4,138.9 137.5,138.9 137.5,138.8 137.6,138.8 137.6,138.8 137.7,138.8 137.8,138.8 137.8,138.8 137.9,138.8 
		137.9,138.8 138,138.8 138,138.8 138.1,138.8 138.1,138.8 138.2,138.8 138.2,138.8 138.3,138.8 	"/>
	<polygon class="st23" points="139.3,139.9 139.3,139.9 139.3,139.9 139.4,140.2 139.1,140.5 139.1,140.5 139.1,140.5 139.1,140.6 
		139,140.6 139,140.6 138.9,140.6 138.9,140.6 138.9,140.7 138.8,140.7 138.8,140.7 138.8,140.7 138.7,140.8 138.7,140.8 
		138.6,140.8 138.6,140.8 138.6,140.9 138.5,140.9 138.5,140.9 138.4,140.9 138.4,141 138.3,141 138.3,141 138.3,141.1 138.2,141.1 
		138.2,141.1 138.1,141.2 138.1,141.2 138,141.2 138,141.3 137.9,141.3 137.9,141.3 137.9,141.4 137.8,141.4 137.8,141.5 
		137.7,141.5 137.7,141.5 137.6,141.6 137.6,141.6 137.5,141.7 137.5,141.7 137.4,141.7 137.4,141.8 137.4,141.8 137.3,141.9 
		137.3,141.9 137.2,142 137.2,142 137.1,142 137.1,142.1 137,142.1 137,142.2 136.9,142.2 136.9,142.3 136.9,142.3 136.8,142.4 
		136.8,142.4 136.7,142.5 136.7,142.5 136.6,142.6 136.6,142.6 136.6,142.7 136.5,142.7 136.5,142.8 136.4,142.8 136.4,142.9 
		136.3,142.9 136.3,143 136.3,143 136.2,143.1 136.2,143.1 136.1,143.2 136.1,143.2 136.1,143.3 136,143.3 136,143.4 135.9,143.4 
		135.9,143.5 135.9,143.5 135.8,143.6 135.8,143.7 135.7,143.7 135.7,143.8 135.7,143.8 135.6,143.9 135.6,143.9 135.6,144 
		135.5,144 135.5,144.1 135.5,144.1 135.4,144.2 135.4,144.2 135.4,144.3 135.3,144.4 135.3,144.4 135.3,144.5 135.3,144.5 
		135.2,144.6 135.2,144.6 135.2,144.7 135.1,144.7 135.1,144.8 135.1,144.8 135.1,144.9 135,145 135,145 135,145.1 135,145.1 
		135,145.2 134.9,145.2 134.9,145.3 134.9,145.3 134.9,145.4 134.9,145.4 134.8,145.5 134.8,145.5 134.8,145.5 134.8,145.5 
		134.8,145.6 134.8,145.6 134.8,145.6 134.8,145.6 134.8,145.7 134.8,145.7 134.8,145.7 134.8,145.7 134.8,145.8 134.8,145.8 
		134.8,145.8 134.7,145.8 134.7,145.9 134.7,145.9 134.7,145.9 134.7,145.9 134.7,146 134.7,146 134.7,146 134.7,146 134.7,146.1 
		134.7,146.1 134.7,146.1 134.7,146.1 134.7,146.2 134.7,146.2 134.7,146.2 134.7,146.2 134.4,146.5 134.1,146.2 134.1,146.2 
		134.1,146.1 134.1,146.1 134.1,146.1 134.1,146 134.1,146 134.1,146 134.1,146 134.1,145.9 134.1,145.9 134.1,145.9 134.1,145.8 
		134.1,145.8 134.1,145.8 134.1,145.8 134.1,145.7 134.1,145.7 134.1,145.7 134.1,145.6 134.1,145.6 134.1,145.6 134.1,145.5 
		134.2,145.5 134.2,145.5 134.2,145.5 134.2,145.4 134.2,145.4 134.2,145.4 134.2,145.3 134.2,145.3 134.2,145.3 134.2,145.2 
		134.2,145.2 134.3,145.1 134.3,145.1 134.3,145 134.3,144.9 134.3,144.9 134.4,144.8 134.4,144.7 134.4,144.7 134.4,144.6 
		134.4,144.6 134.5,144.5 134.5,144.4 134.5,144.4 134.6,144.3 134.6,144.3 134.6,144.2 134.6,144.1 134.7,144.1 134.7,144 
		134.7,144 134.8,143.9 134.8,143.8 134.8,143.8 134.9,143.7 134.9,143.7 134.9,143.6 135,143.5 135,143.5 135,143.4 135.1,143.4 
		135.1,143.3 135.1,143.2 135.2,143.2 135.2,143.1 135.3,143.1 135.3,143 135.3,142.9 135.4,142.9 135.4,142.8 135.4,142.8 
		135.5,142.7 135.5,142.6 135.6,142.6 135.6,142.5 135.7,142.5 135.7,142.4 135.7,142.4 135.8,142.3 135.8,142.2 135.9,142.2 
		135.9,142.1 136,142.1 136,142 136,142 136.1,141.9 136.1,141.9 136.2,141.8 136.2,141.8 136.3,141.7 136.3,141.7 136.4,141.6 
		136.4,141.5 136.5,141.5 136.5,141.4 136.5,141.4 136.6,141.3 136.6,141.3 136.7,141.2 136.7,141.2 136.8,141.1 136.8,141.1 
		136.9,141.1 136.9,141 137,141 137,140.9 137.1,140.9 137.1,140.8 137.2,140.8 137.2,140.7 137.2,140.7 137.3,140.6 137.3,140.6 
		137.4,140.6 137.4,140.5 137.5,140.5 137.5,140.4 137.6,140.4 137.6,140.4 137.7,140.3 137.7,140.3 137.8,140.2 137.8,140.2 
		137.9,140.2 137.9,140.1 138,140.1 138,140.1 138,140 138.1,140 138.1,140 138.2,139.9 138.2,139.9 138.3,139.9 138.3,139.8 
		138.4,139.8 138.4,139.8 138.4,139.8 138.5,139.7 138.5,139.7 138.6,139.7 138.6,139.7 138.7,139.6 138.7,139.6 139,139.6 	"/>
</g>
</svg>
