<?xml version="1.0" encoding="utf-8"?>
<!-- Generator: Adobe Illustrator 23.1.0, SVG Export Plug-In . SVG Version: 6.00 Build 0)  -->
<svg version="1.1" id="Слой_1" xmlns="http://www.w3.org/2000/svg" xmlns:xlink="http://www.w3.org/1999/xlink" x="0px" y="0px"
	 viewBox="0 0 283.5 283.5" style="enable-background:new 0 0 283.5 283.5;" xml:space="preserve">
<style type="text/css">
	.st0{fill:#12100B;}
	.st1{fill:#B96B17;}
	.st2{fill:#EE7B14;}
	.st3{fill:#98C346;}
	.st4{fill:#FFE2AF;}
	.st5{fill:#FFDE40;}
</style>
<path class="st0" d="M211.7,122.9l-24.5-6.8l3.8,5.2l-57,0.4l0,3.7l57-0.4c-1.6,2.3-4.2,6-3.9,5.8
	C187.5,130.6,211.7,122.9,211.7,122.9z"/>
<g>
	<path class="st1" d="M63.7,236.7l-4-8.9c0,0-2.6,0.7-3.3-1.3c0,0-5.1,3.2-5.1,5c-0.1,1.5,3.1,3.1,4.5,4.7c1.4,1.5,2.7,4.2,4.9,4.5
		c2.2,0.3,8.4,1.5,9.1,0.7C70.8,240.1,63.7,236.7,63.7,236.7z"/>
	<path class="st1" d="M142.7,225.9c-2.5-3.4-14.5,4.4-14.5,4.4l-2.1,2c0,0-0.4,3.7,0.9,5c0.9,0.9,3.7-0.4,7.3-3.2
		C137.8,231.4,143.2,226.6,142.7,225.9z"/>
</g>
<path class="st1" d="M61.4,238.7c0,0,0.8-1.2,2.2-2.1"/>
<path class="st2" d="M115.1,186l-9.7-15.4l-0.7-4.8l-35.9,8.4l-1.7,17.7l19.1,4.4l0.9-3.4c3.6,2.5,6.5,4.5,6.5,4.5L115.1,186z"/>
<path class="st3" d="M108.3,129c0,0-7.2-22.5-13.3-26.1c-5.3-3.1-12.5-4.7-18.8,1.7c-8.9,2.7-16.5,23.5-16.5,23.5l1.6,1
	c3.2,1.1,10.1,3,10.1,3l-5.2,7.8v17.6l1.2,17.2c0.8-0.8,20.3-5.1,40.1-9.4c0,0-1.1-17.1-3.9-34.4L108.3,129z"/>
<g>
	<path class="st4" d="M56.3,226.5c0,0,1,1.7,3.3,1.3c0,0,11.4-26.5,18.6-32.3l-9.5-2.9C68.7,192.6,61.9,199,56.3,226.5z"/>
	<path class="st4" d="M111.8,188.2l-10.4,5.3l10.2,9.7c0,0-0.6,8.2,14,28.9l3.1-2.9c0,0-8.4-19.3-9.6-27.9
		C118.4,197,111.8,188.2,111.8,188.2z"/>
	<path class="st4" d="M132.9,147.3c0,0-2.1-0.7-3.3-0.8c-1.2-0.4-2.4-0.8-2.4-0.8s1.3-2.6,0-3.5c-1.3-0.9-0.8,0.2-1.9,1.3
		c-1,1-4,2.5-5.2,3.5l-11.4-2.4l-2.2-14.7l-2.5,0.9l2.7,20.6l12.7,0.9c2,1.4,5.7,3.2,7.1,3.2c0.1,0,0.2,0,0.3-0.1l1.1,1
		c1.1,0.4,2.1-1.6,1.6-2l-1-0.7c0-0.1,0.1-0.1,0.1-0.2l1.3,0.7c0.8,0.3,1.6-1.9,0.7-2.5l-0.6-0.3c0,0,0-0.1,0.1-0.1l1.1,0.6
		c0.5,0.3,1.5-1.7,1.2-2.2C133.2,149.6,134.2,148.5,132.9,147.3z"/>
	<path class="st4" d="M58.8,171.5l0.1-0.9c0.9,1.6,2.1,3.4,2.8,3.1c1-0.4-1.3-5.1-2.2-6.9L60,164l2.2-18.9l9.4-12.7l-10-2.9l-6,12.2
		c-0.6,1.2-0.9,2.5-0.9,3.9l-0.3,17.4l-3.1,5c0-0.2,0-0.4,0-0.7c-0.2-2.4-3-0.2-3-0.2c-1.1-0.4-1.7,1.9-1.9,3
		c-0.2,1.1,2.8,4.1,2.8,4.1l0.2-0.2c0.2,0.2,0.5,0.3,0.8,0.3l5.5,0.6C57.7,175,58.4,173.3,58.8,171.5z"/>
	<path class="st4" d="M91.8,100.5v-4.2c0.9,0.1,1.9,0.2,2.8,0.2c11.7,0,21.2-9.1,21.6-20.5c0.1,0,0.1-0.1,0.2-0.1
		c1.9-1.2,2.7-3.2,1.9-4.3c-0.5-0.7-1.4-0.9-2.6-0.8c-2.1-9.5-10.7-16.7-21.1-16.7C82.7,54.1,73,63.6,73,75.3
		c0,9.9,0.2,15.9,9.4,18.2l0.3,1.3c0,0-2.7,6.1-2.7,6.2c-1.2,0.4,12.8,7.1,15,1.9C94.1,102.3,91.8,100.6,91.8,100.5z"/>
</g>
<g>
	<path class="st5" d="M80.6,47.4c-2.9,0.4,1.2,6,1.2,6C82,53.2,83.1,47,80.6,47.4z"/>
	<path class="st5" d="M81,53.5c-0.1-0.1-3.8-3.7-4.7-1.9C75.4,53.9,81,53.5,81,53.5z"/>
	<path class="st5" d="M81.1,54.3c0,0-10.6-0.3-13.9,12.2c-2.7,10.3,0,20.8,13.6,26.8c0,0,1.7-8.8,5.3-12.4c0,0-3.9-1.7-3.9-5.5
		c0-3.7,5.2-5.5,7.8,0.8c0,0,7.8-3.3,7.8-19.4c0,0,4.7,3.6,11.4,4.2c0,0,3.1,5.5,4.4,3.9C117.5,60.4,102.8,38.7,81.1,54.3z"/>
</g>
<g>
	<path class="st0" d="M106.9,67.5c-0.9,0.4-1.1,1.6-0.6,2.6c0.5,1,1.6,1.6,2.4,1.2c0.9-0.4,1.1-1.6,0.6-2.6
		C108.8,67.7,107.7,67.2,106.9,67.5z"/>
	<path class="st0" d="M108,64.5c0.3,0.1,0.6-0.1,0.7-0.4c0.1-0.3-0.1-0.6-0.4-0.7c-1-0.3-2.1-0.1-3.1,0.5c-1,0.6-1.7,1.5-1.9,2.5
		c-0.1,0.3,0.1,0.6,0.4,0.7c0,0,0.1,0,0.1,0c0.3,0,0.5-0.2,0.5-0.4c0.1-0.7,0.7-1.3,1.4-1.8C106.5,64.4,107.3,64.3,108,64.5z"/>
	<path class="st0" d="M143.6,225.3c-0.4-0.6-1.3-1.3-3-1.3c-3.5,0-9,3.1-11.6,4.6c-2.8-7.2-8-21.3-8.9-27.4
		c-0.4-2.8-4.2-8.6-7.1-12.7l2.6-1.4c0.3-0.2,0.5-0.4,0.6-0.7c0.1-0.3,0-0.6-0.2-0.9l-10.2-15.1l-0.5-3.7c0.6-0.1,1.2-0.3,1.9-0.4
		c0.5-0.1,0.9-0.6,0.9-1.1c0-0.1-0.2-5.5-0.8-13.1l12.1,1c5.4,3.7,6.8,3.7,7.2,3.7h0l0.7,0.7c0.1,0.1,0.2,0.2,0.3,0.2
		c0.3,0.1,0.5,0.2,0.8,0.2c1.2,0,2.1-1,2.4-2c0-0.1,0-0.2,0.1-0.3c0.6-0.3,1.1-0.9,1.4-1.7c0.1-0.3,0.1-0.5,0.1-0.8
		c0.7-0.5,1.2-1.7,1.3-2.2c0-0.1,0-0.2,0.1-0.3c0.3-0.3,0.7-0.7,0.8-1.1c0.2-0.5,0.4-1.7-0.9-2.9c-0.1-0.1-0.3-0.2-0.4-0.2
		c-0.3-0.1-2.1-0.7-3.5-0.8h0c-0.4-0.1-0.8-0.3-1.2-0.4c0.3-1.1,0.5-2.8-0.8-3.7c-0.4-0.3-0.9-0.6-1.4-0.6c-0.9,0-1.3,0.8-1.4,1.2
		c-0.1,0.3-0.2,0.5-0.5,0.8c-0.4,0.4-1.6,1.2-2.6,1.8c-0.8,0.5-1.4,0.9-2,1.3l-10.1-2.1l-2.3-13.2l1.4-0.6c0.5-0.2,0.8-0.8,0.6-1.4
		c-0.7-2.3-7.2-22.2-13.4-26.5c-0.1-0.1-0.2-0.2-0.3-0.3c-0.8-0.4-2.1-1.4-2.8-1.9v-2.5c0.6,0,1.1,0.1,1.7,0.1
		c5.9,0,11.5-2.2,15.8-6.3c4.1-3.9,6.5-9.1,6.9-14.7c1.3-0.9,2.1-2.2,2.4-3.4c0.2-0.9,0-1.7-0.5-2.3c-0.6-0.8-1.5-1.2-2.6-1.3
		c-0.4-1.6-1-3.1-1.8-4.5c0.9-1.4,0.7-3.6-0.4-6.1c-2.5-5.5-9.2-11.3-18.1-11.3c-4.3,0-8.6,1.3-13,3.9c0.1-1.4,0.1-3.2-0.5-4.2
		c-0.4-0.7-1.1-1.1-1.9-1.1c-0.1,0-0.3,0-0.4,0c-1.2,0.2-1.6,0.9-1.8,1.3c-0.3,0.8-0.1,1.9,0.3,3c-0.6-0.3-1.2-0.5-1.8-0.5
		c-0.8,0-1.5,0.4-1.8,1.2c-0.3,0.7-0.3,1.4,0.1,2c0.1,0.2,0.3,0.5,1,0.9c-3.6,1.3-8.2,4.4-10.3,12.2C64.8,71.9,65,77.3,67,81.9
		c2.3,5.3,6.9,9.5,13.5,12.4l1.2,0.5c-1.5,3.4-2.2,4.9-2.4,5.6c-0.1,0.2-0.2,0.4-0.2,0.6c-1.1,0.7-2.2,1.4-3.2,2.4
		c-3.7,1.2-7.6,5.3-11.5,12.1c-3.4,6-5.5,11.8-5.6,12.1c-0.1,0.3-0.1,0.6,0.1,0.9c0.2,0.3,0.4,0.5,0.7,0.6l1.3,0.4L54.8,141
		c-0.7,1.4-1.1,2.9-1.1,4.4l-0.3,17.1l-1.7,2.8c-0.3-0.3-0.8-0.4-1.1-0.4l0,0c-1.2-0.1-1.9,0.9-1.8,1c-0.2,0-0.3-0.1-0.5-0.1
		c-1.4,0-2.3,1.4-2.7,3.9c-0.2,1.4,1.5,3.5,3.1,5c0.2,0.2,0.5,0.3,0.8,0.3c0.1,0,0.2,0,0.3,0c0.2,0.1,0.4,0.1,0.6,0.1l5.5,0.6
		c0.2,0,0.3,0,0.4,0c1.8,0,2.7-1.3,3.2-2.6c0.8,1,1.5,1.4,2.2,1.4c0.2,0,0.4,0,0.6-0.1c0.4-0.2,0.7-0.5,0.8-0.9
		c0.2-0.5,0.6-1.6-2.3-7.2l0.4-2.5v0l2.2-18.6l2.2-3.4c-0.4,16.1,1,31.2,1.1,32.3c0,0.4,0.3,0.8,0.7,0.9c0.1,0,0.3,0.1,0.4,0.1
		c0.1,0,0.1,0,0.2,0l-2,16.4c-0.1,0.6,0.3,1.1,0.9,1.2l0.6,0.1c-2.8,3.8-8.1,13.1-12.1,32.6c-1.8,1.2-5.2,3.7-5.2,5.6
		c-0.1,1.5,1.4,2.7,3,4c0.7,0.5,1.3,1,1.8,1.5c0.3,0.4,0.7,0.9,1.1,1.4c1.1,1.5,2.4,3.2,4.4,3.5c0.3,0,0.6,0.1,0.9,0.2
		c2,0.3,5,0.9,6.9,0.9c1.2,0,1.8-0.2,2.2-0.7c0.3-0.4,0.5-0.9,0.4-1.4c-0.3-1.7-4-3.7-6.3-4.9l-3.6-8.1c1.5-3.5,11.7-26.2,18.1-31.4
		c0.2-0.1,0.3-0.3,0.3-0.5l6.6,1.5c0.1,0,0.2,0,0.3,0c0.5,0,0.9-0.3,1.1-0.8l0.5-1.9c2.8,2,5,3.5,5.2,3.7c0.2,0.1,0.4,0.2,0.6,0.2
		c0.2,0,0.3,0,0.5-0.1l7.7-4.1l8.8,9.4c0.5,2.1,3.7,14.5,14.3,28.9c-0.1,1.2-0.1,4.1,1.2,5.5c0.3,0.3,0.8,0.6,1.6,0.6
		c2,0,5-2,7.2-3.6c1.9-1.4,4.2-3.4,5.9-4.9C143.6,227.3,144.3,226.2,143.6,225.3z M128.4,156.6c-0.1,0-0.2,0-0.3-0.1l-2-1.8
		c-0.5-0.4-0.7-1.1-0.3-1.7c0,0,0-0.1,0.1-0.1c0.2,0.3,0.5,0.5,0.8,0.7l3.1,1.7c0,0,0.1,0,0.1,0.1
		C129.5,155.9,129,156.6,128.4,156.6z M130.3,154.4c0,0-0.1,0-0.1,0l-3.1-1.7c-0.5-0.3-0.8-1-0.6-1.6c0.1-0.2,0.2-0.3,0.3-0.4
		c0.2,0.2,0.4,0.4,0.7,0.5l3.4,2c0,0,0,0,0.1,0c0.1,0.1,0.2,0.1,0.3,0.1C131.1,153.8,130.7,154.4,130.3,154.4z M128.7,146.7
		c0.1-0.1,0.3-0.2,0.5-0.2c1.1,0,3.6,0.8,3.6,0.8c1.5,1.3,0.2,2.6-0.5,2.6c-0.1,0-0.1,0-0.2,0l-3-1.5
		C128.7,148,128.5,147.3,128.7,146.7z M128.8,149.3l3,1.5c0.2,0.1,0.4,0.2,0.7,0.2h0c-0.3,0.6-0.6,1.1-0.9,1.1c0,0-0.1,0-0.1,0
		l-3.4-2c-0.6-0.3-0.8-1-0.6-1.6c0.1-0.2,0.2-0.3,0.3-0.4C127.9,148.6,128.2,149,128.8,149.3z M108.7,144.7l11.4,2.4
		c1.2-1,4.2-2.6,5.2-3.5c0.8-0.8,0.7-1.6,1.2-1.6c0.2,0,0.3,0.1,0.7,0.3c0.7,0.5,0.6,1.4,0.5,2.2c0,0-0.1,0-0.1,0.1
		c-2.2,2.2-3.2,2.2-3.3,2.2c-0.3-0.1-0.6,0-0.7,0.2c-0.2,0.3-0.1,0.6,0.2,0.8c0.1,0.1,0.3,0.1,0.6,0.1c0.6,0,1.7-0.3,3.4-1.9
		c0.1,0,0.1,0,0.2,0.1c-0.1,0.1-0.1,0.2-0.2,0.3c-0.1,0.2-0.1,0.3-0.1,0.5c-0.5,0.2-0.9,0.7-1.2,1.3c-0.2,0.5-0.2,1-0.1,1.4
		c-0.4,0.3-0.7,0.6-0.8,1.1c-0.2,0.4-0.2,0.8-0.1,1.2c-0.3,0.2-0.4,0.4-0.6,0.7c-0.4,0.8-0.4,1.8,0.1,2.6c-1.6-0.8-3.7-2.2-5.1-3.2
		l-12.6-1c-0.5-5.6-1.2-12.4-2.3-19.2l1.5-0.6L108.7,144.7z M115.7,70.7c0.2,0,0.4-0.1,0.7-0.1c0.8,0,1.5,0.3,1.9,0.8
		c0.8,1.1,0,3.1-1.9,4.3c-0.1,0-0.1,0.1-0.2,0.1c-0.1,2.7-0.7,5.2-1.7,7.6c0,0-0.1,0-0.1,0c-0.6,0.4-1.6,0.6-2.6,0.4
		c-1-0.2-1.9-0.6-2.3-1.2c-0.2-0.3-0.5-0.3-0.8-0.1c-0.3,0.2-0.3,0.5-0.1,0.8c0.7,0.8,1.8,1.4,3.1,1.6c0.3,0,0.6,0.1,0.9,0.1
		c0.5,0,0.9-0.1,1.3-0.2c-3.6,6.8-10.8,11.5-19.2,11.5c-4.7,0-8.9-1.4-12.5-3.9c0.5-2.3,2.1-8.2,4.8-10.8l0.4-0.4
		c0.4,0.1,0.9,0.2,1.4,0.2c0.3,0,0.7,0,1.1-0.1c0.3-0.1,0.5-0.3,0.4-0.7c-0.1-0.3-0.3-0.5-0.7-0.4c-1.9,0.3-3.2-0.5-3.2-0.5
		c-0.1-0.1-0.2-0.1-0.3-0.1c-0.9-0.5-2.7-1.9-2.7-4.3c0-1.3,0.9-2.2,2.1-2.2c1.4,0,2.7,1.3,3.6,3.5l0.4,1l1-0.4
		c0.3-0.1,7.8-3.5,8.4-18.5c2,1.1,5.4,2.7,9.6,3.2c0.9,1.6,2.8,4.3,4.5,4.3c0.3,0,0.7-0.1,1-0.3C114.7,67.4,115.3,69.1,115.7,70.7z
		 M80.6,47.4c0.1,0,0.1,0,0.2,0c1.6,0,1.4,3.2,1.2,4.9c-0.2,0.1-0.4,0.3-0.7,0.4C80.4,51.3,78.4,47.8,80.6,47.4z M76.3,51.7
		c0.2-0.4,0.5-0.5,0.8-0.5c0.8,0,2,0.8,2.8,1.4c0.1,0.2,0.3,0.4,0.4,0.6c-0.5,0-1.1,0.1-1.9,0.3C77.1,53.3,75.8,52.8,76.3,51.7z
		 M80.8,93.3c-13.6-6-16.4-16.5-13.6-26.8c3.2-12,13-12.2,13.8-12.2c0,0,0.1,0,0.1,0c5.6-4,10.7-5.5,15.2-5.5
		c12.9,0,20.2,12.8,17.4,16.1c-0.2,0.2-0.4,0.3-0.6,0.3c-1.5,0-3.8-4.2-3.8-4.2c-6.7-0.6-11.4-4.2-11.4-4.2
		c0,16.1-7.8,19.4-7.8,19.4c-1.2-3-3-4.2-4.6-4.2c-1.7,0-3.2,1.4-3.2,3.3c0,3.9,3.9,5.5,3.9,5.5C82.5,84.6,80.8,93.3,80.8,93.3z
		 M81.9,93.8c0,0.3-0.1,0.5-0.1,0.6c0,0,0,0,0,0L81.9,93.8C81.9,93.8,81.9,93.8,81.9,93.8z M80.1,101c0-0.2,2.7-6.2,2.7-6.2l0.2-0.4
		c2.6,1.5,5.6,2.6,8.8,3v3.1c0,0.1,1.8,1.4,2.9,2.1c0,0,0,0-0.1,0c0.1,0.1,0.3,0.1,0.3,0.2c0,0,0,0,0.1,0c-0.6,1.4-2.2,2-4,2
		C86.2,104.9,79.2,101.3,80.1,101z M59.7,128.1c0,0,8.7-23.9,18.4-23.9c0.4,0,0.8,0,1.1,0.1c10.7,2.1-1.5,29.4-1.5,29.4L59.7,128.1z
		 M50.5,166.1c0.2,0,0.4,0.1,0.6,0.2l-0.9,1.5c-0.1-0.6-0.3-1.1-0.7-1.4C49.8,166.2,50.2,166.1,50.5,166.1z M48.1,171.1
		c-0.2,0.4-0.3,0.8-0.4,1.2c-0.7-0.8-1.2-1.7-1.2-2.2c0.2-1,0.7-3,1.6-3c0.1,0,0.2,0,0.3,0c1.1,0.4,0.4,2.6,0.4,2.6L48.1,171.1z
		 M62.2,145.1L60,164l-0.4,2.8c0.9,1.8,3.2,6.4,2.2,6.9c-0.1,0-0.1,0-0.2,0c-0.8,0-1.8-1.7-2.6-3.1l-0.1,0.9c-0.4,1.7-1,3.3-2.7,3.3
		c-0.1,0-0.2,0-0.3,0l-5.5-0.6c-1.2-0.1-1.9-1.5-1.3-2.6l5.4-8.8l0.3-17.4c0-1.4,0.3-2.7,0.9-3.9l6-11.7l8.7,2.7L62.2,145.1z
		 M67.8,174.3c0,0-1.7-16.8-1-34l4.7-7.2l6,1.9c0.1,0,0.2,0.1,0.3,0.1c0.5,0,0.9-0.3,1.1-0.7c0.4-0.8,8.9-20.1,4.9-27.9
		c-0.9-1.7-2.3-2.8-4.3-3.2c-0.4-0.1-0.9-0.1-1.4-0.1c-0.1,0-0.2,0-0.3,0c0.5-0.4,1-0.7,1.5-1c0.5,0.5,1.6,1.2,4.1,2.2
		c1.6,0.6,4.8,1.7,7.6,1.7c3,0,4.3-1.2,4.9-2.4c5.9,5.2,12.4,25.4,12.4,25.4l-3.8,1.6c0,0,0-0.1,0-0.1c-2.2-13-5.7-19.3-5.9-19.6
		c-0.2-0.3-0.5-0.3-0.8-0.2c-0.3,0.2-0.3,0.5-0.2,0.8c0,0.1,3.6,6.5,5.8,19.3c0,0.1,0.1,0.3,0.2,0.3c2.8,17.2,3.3,34.1,3.3,34.1
		C86.9,169,68.6,173.4,67.8,174.3z M63.4,236.2C63.4,236.2,63.4,236.2,63.4,236.2c-1.6,1-2.4,2.2-2.5,2.3c-0.2,0.3-0.1,0.6,0.2,0.8
		c0.1,0.1,0.2,0.1,0.3,0.1c0.2,0,0.4-0.1,0.5-0.3c0,0,0.7-1.1,2-1.9c0.1-0.1,0.2-0.1,0.2-0.2c1.6,0.8,6.5,3.4,5.5,4.5
		c-0.2,0.2-0.7,0.3-1.4,0.3c-2.1,0-6.1-0.7-7.7-1c-2.2-0.3-3.5-3-4.9-4.5c-1.4-1.5-4.5-3.2-4.5-4.7c0-1.3,2.7-3.3,4.2-4.3
		c0.4,0.7,1.7,1.8,3.6,1.8c0.3,0,0.6,0,0.9-0.1c0.1,0,0.2,0,0.3-0.1L63.4,236.2z M59.7,227.8c-0.2,0-0.4,0.1-0.7,0.1
		c-1.9,0-2.7-1.4-2.7-1.4c4.2-20.4,9.7-29.7,12.3-33.1l9.5,2.2C71,201.9,59.7,227.8,59.7,227.8z M86.2,196.3l-19.1-4.4l2.1-17
		c0.4-0.1,0.9-0.3,1.5-0.5c0.3,3.8,1.1,8.9,3.4,10.6c2,1.5,8,5.7,12.7,9L86.2,196.3z M93.6,197.5c0,0-15.6-10.8-18.9-13.3
		c-2-1.5-2.7-6.4-3-10.1c5.8-1.6,18.2-4.5,32.5-7.3l0.4,3c-5.7,1-10.3,5.5-10.5,5.6c-0.2,0.2-0.2,0.6,0,0.8c0.1,0.1,0.3,0.2,0.4,0.2
		c0.2,0,0.3-0.1,0.4-0.2c0,0,4.6-4.4,10-5.4l10.1,15.1L93.6,197.5z M111.8,203.9c0-0.1,0.1-0.1,0.1-0.2c0.2-1.2,0.9-2.3,0.9-2.3
		c0.2-0.3,0.1-0.6-0.2-0.8c-0.3-0.2-0.6-0.1-0.8,0.2c0,0-0.4,0.8-0.7,1.7l-8.2-8.7l9.1-4.9c2.9,4,6.6,9.7,7,12.4
		c0.9,6.3,6.2,20.7,9,27.8c-0.2,0.2-0.4,0.3-0.4,0.3c-0.1,0-0.1,0.1-0.2,0.1l-2,1.9C115.9,218.2,112.5,206.9,111.8,203.9z
		 M126.1,232.2l2.1-2c0,0,8.1-5.3,12.4-5.3c0.5,0,0.9,0.1,1.3,0.3c-2.9,0.3-8.8,4.5-11.4,6.7c-2.8,2.4-3.7,3.7-4,4.5
		C125.8,234.9,126.1,232.2,126.1,232.2z M134.2,234.1c-2.9,2.2-5.2,3.4-6.5,3.4c-0.1,0-0.2,0-0.3,0c0.1-0.1,0.1-0.3,0.1-0.4
		c-0.1-0.4,1-2.2,5.1-5.3c4.6-3.6,9-5.8,9.9-5.4c0,0,0.1,0,0.1,0C141.7,227.9,137.3,231.7,134.2,234.1z"/>
</g>
</svg>
