<?xml version="1.0" encoding="utf-8"?>
<!-- Generator: Adobe Illustrator 23.1.0, SVG Export Plug-In . SVG Version: 6.00 Build 0)  -->
<svg version="1.1" id="Слой_1" xmlns="http://www.w3.org/2000/svg" xmlns:xlink="http://www.w3.org/1999/xlink" x="0px" y="0px"
	 viewBox="0 0 283.5 283.5" style="enable-background:new 0 0 283.5 283.5;" xml:space="preserve">
<style type="text/css">
	.st0{clip-path:url(#SVGID_2_);fill:#47C7F2;}
	.st1{clip-path:url(#SVGID_4_);fill:none;stroke:#000000;stroke-linecap:round;stroke-linejoin:round;stroke-miterlimit:10;}
	.st2{clip-path:url(#SVGID_6_);fill:none;stroke:#000000;stroke-linecap:round;stroke-linejoin:round;stroke-miterlimit:10;}
	.st3{clip-path:url(#SVGID_6_);fill-rule:evenodd;clip-rule:evenodd;fill:#FFFFFF;}
	.st4{clip-path:url(#SVGID_6_);fill-rule:evenodd;clip-rule:evenodd;}
	
		.st5{clip-path:url(#SVGID_6_);fill:none;stroke:#000000;stroke-width:0.85;stroke-linecap:round;stroke-linejoin:round;stroke-miterlimit:10;}
	.st6{clip-path:url(#SVGID_8_);fill-rule:evenodd;clip-rule:evenodd;}
	.st7{clip-path:url(#SVGID_8_);fill-rule:evenodd;clip-rule:evenodd;fill:#FFFFFF;}
	.st8{clip-path:url(#SVGID_10_);fill:none;stroke:#000000;stroke-linecap:round;stroke-linejoin:round;stroke-miterlimit:10;}
	.st9{clip-path:url(#SVGID_12_);fill-rule:evenodd;clip-rule:evenodd;}
	.st10{clip-path:url(#SVGID_12_);fill-rule:evenodd;clip-rule:evenodd;fill:#FFFFFF;}
	.st11{clip-path:url(#SVGID_14_);fill:none;stroke:#000000;stroke-linecap:round;stroke-linejoin:round;stroke-miterlimit:10;}
	
		.st12{clip-path:url(#SVGID_14_);fill:none;stroke:#000000;stroke-width:0.85;stroke-linecap:round;stroke-linejoin:round;stroke-miterlimit:10;}
	
		.st13{clip-path:url(#SVGID_14_);fill:none;stroke:#000000;stroke-width:0.65;stroke-linecap:round;stroke-linejoin:round;stroke-miterlimit:10;}
	.st14{clip-path:url(#SVGID_14_);fill-rule:evenodd;clip-rule:evenodd;}
	.st15{clip-path:url(#SVGID_14_);fill-rule:evenodd;clip-rule:evenodd;fill:#FFFFFF;}
	
		.st16{clip-path:url(#SVGID_14_);fill:none;stroke:#000000;stroke-width:0.7;stroke-linecap:round;stroke-linejoin:round;stroke-miterlimit:10;}
	.st17{clip-path:url(#SVGID_14_);fill:#EB2227;}
	
		.st18{clip-path:url(#SVGID_14_);fill:none;stroke:#000000;stroke-width:1.5;stroke-linecap:round;stroke-linejoin:round;stroke-miterlimit:10;}
</style>
<g>
	<defs>
		<rect id="SVGID_1_" x="26.5" y="12.5" width="244.1" height="244.1"/>
	</defs>
	<clipPath id="SVGID_2_">
		<use xlink:href="#SVGID_1_"  style="overflow:visible;"/>
	</clipPath>
	<path class="st0" d="M202.1,182.5c-19.6-25.6-31.1-42.7-39.1-46.3c-3.2-1.4-7.5-2.3-12.2-2.7c-0.1,0.2-0.2,0.4-0.3,0.6
		c-5.1,8-15.8,12-24.6,7.3c-2.7-1.4-5.3-3.7-6.9-6.3c-0.3-0.5-1.4-1.1-1.3-1.7c-2.9,0.2-5.4,0.4-8.7,1.3c-3.1,0.8-7,2.6-8.6,4.5
		c-9.5,11.3-33,45.6-33.8,44.8l10.2,8.4c9.2-9,18.1-18.5,26-29.6l-1.9,75.6c0.1-0.1,1,0,6,2c7.1,2.8,21,0.4,25.9,0.9
		c4.5,0.4,13.2,2.7,20,0.5c8.3-2.6,7.8,1.3,15.2-3.8l-1.4-76.2l24.7,28.1L202.1,182.5z"/>
</g>
<g>
	<defs>
		<path id="SVGID_3_" d="M100.8,238.4L100.8,238.4C100.8,238.4,100.8,238.4,100.8,238.4 M66.6,183.9L66.6,183.9
			C66.6,183.9,66.6,183.9,66.6,183.9 M125.9,119.4l-0.5,13.5c-0.5,0.6-9-0.2-16.4,1.8c-3.1,0.8-7,2.6-8.6,4.5
			c-9.5,11.3-32.8,45.4-33.8,44.8l10.2,8.4c9.2-9,18.1-18.5,26-29.6l-1.9,75.6c0.1-0.1,1,0,6,2c4.6,1.8,12,1.5,18,1.1
			c3.3-0.2,6.1-0.4,7.9-0.2c4.5,0.4,13.2,2.7,20,0.5c3.5-1.1,5.4-1,7-1c2.3,0.1,3.9,0.1,8.2-2.9l-1.4-76.2l24.7,28.1l10.7-7.4
			c-19.6-25.6-31.1-42.7-39.1-46.3c-4.7-2.1-11.9-3-19.4-2.9l-1.1-14L125.9,119.4z"/>
	</defs>
	<clipPath id="SVGID_4_">
		<use xlink:href="#SVGID_3_"  style="overflow:visible;"/>
	</clipPath>
	<path class="st1" d="M134.3,100.9c10.8,0,19.5,9.6,19.5,21.4s-8.7,21.4-19.5,21.4c-10.8,0-19.5-9.6-19.5-21.4
		S123.6,100.9,134.3,100.9z"/>
</g>
<g>
	<defs>
		<rect id="SVGID_5_" x="26.5" y="12.5" width="244.1" height="244.1"/>
	</defs>
	<clipPath id="SVGID_6_">
		<use xlink:href="#SVGID_5_"  style="overflow:visible;"/>
	</clipPath>
	<path class="st2" d="M125.9,119.4l-0.5,13.5c-0.5,0.6-9-0.2-16.4,1.8c-3.1,0.8-7,2.6-8.6,4.5c-9.5,11.3-33,45.6-33.8,44.8l10.2,8.4
		c9.2-9,18.1-18.5,26-29.6l-1.9,75.7c0,0-0.7-0.7,6,1.9c7.1,2.8,21,0.4,25.9,0.9c4.5,0.4,13.2,2.7,20,0.5c8.3-2.6,7.8,1.3,15.2-3.8
		l-1.4-76.2l24.7,28.1l10.7-7.4c-19.6-25.6-31.1-42.7-39.1-46.3c-4.7-2.1-11.9-3-19.4-3l-1.1-14L125.9,119.4z"/>
	<path class="st3" d="M84.2,197.1c-2.6-1-4.8-1.1-6.7,0c-4,2.4-4.4,3.8-8,4.6c-2.9,0.6-8.8,0.5-10.4-4.9c-1.6-6.2-2-14.4-1.9-23.4
		c0.6-2.8,3.3-2.4,3.3-0.1c0.2,4,0.6,7.4,1.1,10.5l1.1-0.5c-0.8-5.2-0.8-11.8-0.5-16.6c0.2-3,3.2-2.2,3.3-0.2
		c0.3,6.2,0.5,11.2,1.1,16l1.2-0.2c-0.1-6.9,0.4-13.3,1-19.3c1.1-2.6,3.3-2.7,4-0.5l-1.3,20.1l0.9,0.1c0.8-5.5,1.2-10.9,2.7-15.1
		c0.8-2.3,3.7-1.3,3.1,0.8c-1.4,9.6-1.8,17.6-1.9,23.4C82.3,190,86.7,193.3,84.2,197.1"/>
	<path class="st2" d="M84.2,197.1c-2.6-1-4.8-1.1-6.7,0c-4,2.4-4.4,3.8-8,4.6c-2.9,0.6-8.8,0.5-10.4-4.9c-1.6-6.2-2-14.4-1.9-23.4
		c0.6-2.8,3.3-2.4,3.3-0.1c0.2,4,0.6,7.4,1.1,10.5l1.1-0.5c-0.8-5.2-0.8-11.8-0.5-16.6c0.2-3,3.2-2.2,3.3-0.2
		c0.3,6.2,0.5,11.2,1.1,16l1.2-0.2c-0.1-6.9,0.4-13.3,1-19.3c1.1-2.6,3.3-2.7,4-0.5l-1.3,20.1l0.9,0.1c0.8-5.5,1.2-10.9,2.7-15.1
		c0.8-2.3,3.7-1.3,3.1,0.8c-1.4,9.6-1.8,17.6-1.9,23.4C82.3,190,86.7,193.3,84.2,197.1z"/>
	<path class="st2" d="M74.2,183.8c-4.8-2.2-9.4-1.1-14.3,0.5"/>
	<path class="st2" d="M73,192.2c-2.8,0.5-4.7,3-5.9,6"/>
	<path class="st2" d="M63,189.2c1.8,1.4,2.3,4,2.1,6.6"/>
	<path class="st2" d="M77.9,171.3c2.3-0.2,4.4,1.5,5.9,3.5"/>
	<path class="st2" d="M193,172c-3,0.1-5.4,1.9-7,4.1"/>
	<path class="st2" d="M78.3,170.3c1.8-0.7,3.8,0.1,5.5,1.4"/>
	<path class="st2" d="M192.2,171.1c-2.4-0.5-4.9,0.5-6.8,2"/>
	<path class="st2" d="M98.8,158.6c0.9,1.4,2.1,2.7,4,3.8"/>
	<path class="st2" d="M170.5,157.9c-0.9,1.4-2.1,2.7-4,3.8"/>
	<path class="st3" d="M170.8,85.1c1,0,1.8,0.8,1.8,1.8c0,1-0.8,1.8-1.8,1.8c-1,0-1.8-0.8-1.8-1.8C169,85.9,169.8,85.1,170.8,85.1"/>
	<path class="st2" d="M170.8,85.1c1,0,1.8,0.8,1.8,1.8c0,1-0.8,1.8-1.8,1.8c-1,0-1.8-0.8-1.8-1.8C169,85.9,169.8,85.1,170.8,85.1z"
		/>
	<path class="st3" d="M173.3,77.9c1,0,1.8,0.8,1.8,1.8c0,1-0.8,1.8-1.8,1.8c-1,0-1.8-0.8-1.8-1.8C171.5,78.7,172.3,77.9,173.3,77.9"
		/>
	<path class="st2" d="M173.3,77.9c1,0,1.8,0.8,1.8,1.8c0,1-0.8,1.8-1.8,1.8c-1,0-1.8-0.8-1.8-1.8C171.5,78.7,172.3,77.9,173.3,77.9z
		"/>
	<path class="st3" d="M133.4,63.1c10.6,0,24.3,6.9,26.9,17.1c0.5,1.9,3.7,10.7,1.4,19.8c-0.8,3.2-1.4,4.3-2.7,7.5
		c-1.4,3.6-3.4,5.6-5.8,8.9c-4.4,5.9-12.1,12.8-18.8,13c-6.2,0.2-14.9-5.9-18.7-11.6c-2.9-4.4-9.2-14.8-10.4-21.6
		c-0.6-3.3,2.6-3.7,2.6-6.5C107.9,72.5,118,63.1,133.4,63.1"/>
	<path class="st2" d="M133.4,63.1c10.6,0,24.3,6.9,26.9,17.1c0.5,1.9,3.7,10.7,1.4,19.8c-0.8,3.2-1.4,4.3-2.7,7.5
		c-1.4,3.6-3.4,5.6-5.8,8.9c-4.4,5.9-12.1,12.8-18.8,13c-6.2,0.2-14.9-5.9-18.7-11.6c-2.9-4.4-9.2-14.8-10.4-21.6
		c-0.6-3.3,2.6-3.7,2.6-6.5C107.9,72.5,118,63.1,133.4,63.1z"/>
	<polygon class="st4" points="157.7,97.1 157.8,97.1 157.8,97.1 157.8,97.1 157.8,97.1 157.8,97.1 157.9,97.1 157.9,97.1 
		157.9,97.1 157.9,97.1 157.9,97.1 158,97.1 158,97.1 158,97.1 158,97.1 158,97.1 158.1,97.1 158.1,97.1 158.1,97.1 158.1,97.2 
		158.1,97.2 158.1,97.2 158.2,97.2 158.2,97.2 158.2,97.2 158.2,97.2 158.2,97.2 158.2,97.2 158.3,97.2 158.3,97.2 158.3,97.2 
		158.3,97.2 158.3,97.3 158.3,97.3 158.4,97.3 158.4,97.3 158.4,97.3 158.4,97.3 158.4,97.3 158.4,97.3 158.4,97.3 158.5,97.3 
		158.5,97.4 158.5,97.4 158.5,97.4 158.5,97.4 158.5,97.4 158.5,97.4 158.5,97.4 158.6,97.5 158.6,97.5 158.6,97.5 158.6,97.5 
		158.6,97.5 158.6,97.5 158.6,97.5 158.6,97.6 158.6,97.6 158.7,97.6 158.7,97.6 158.7,97.6 158.7,97.6 158.7,97.7 158.7,97.7 
		158.7,97.7 158.7,97.7 158.7,97.7 158.7,97.7 158.7,97.8 158.7,97.8 158.7,97.8 158.7,97.8 158.7,97.8 158.8,97.9 158.8,97.9 
		158.8,97.9 158.8,97.9 158.8,97.9 158.8,97.9 158.8,98 158.8,98 158.8,98 158.8,98 158.8,98 158.8,98.1 158.8,98.1 158.8,98.1 
		158.8,98.1 158.8,98.1 158.8,98.2 158.8,98.2 158.8,98.2 158.8,98.2 158.8,98.2 158.8,98.3 158.8,98.3 158.8,98.3 158.8,98.3 
		158.8,98.3 158.8,98.4 158.8,98.4 158.8,98.4 158.7,98.4 158.7,98.4 158.7,98.5 158.7,98.5 158.7,98.5 158.7,98.5 158.7,98.6 
		158.7,98.6 158.7,98.6 158.7,98.6 158.7,98.6 158.7,98.7 158.7,98.7 158.7,98.7 158.7,98.7 158.6,98.7 158.6,98.8 158.6,98.8 
		158.6,98.8 158.6,98.8 158.6,98.9 158.6,98.9 158.6,98.9 158.6,98.9 158.6,98.9 158.5,99 158.5,99 158.5,99 158.5,99 158.5,99.1 
		158.5,99.1 158.5,99.1 158.4,99.1 158.4,99.2 158.4,99.2 158.4,99.2 158.4,99.2 158.4,99.2 158.4,99.3 158.3,99.3 158.3,99.3 
		158.3,99.3 158.3,99.4 158.3,99.4 158.3,99.4 158.2,99.4 158.2,99.5 158.2,99.5 158.2,99.5 158.2,99.5 158.1,99.6 158.1,99.6 
		158.1,99.6 158.1,99.6 158.1,99.6 158,99.7 158,99.7 158,99.7 158,99.7 157.9,99.8 157.9,99.8 157.9,99.8 157.9,99.8 157.9,99.9 
		157.8,99.9 157.8,99.9 157.8,99.9 157.8,100 157.7,100 157.7,100 157.7,100 157.6,100.1 157.6,100.1 157.6,100.1 157.6,100.1 
		157.5,100.2 157.5,100.2 157.5,100.2 157.4,100.2 157.4,100.3 157.4,100.3 157.4,100.3 157.3,100.3 157.3,100.4 157.3,100.4 
		157.2,100.4 157.2,100.4 157.2,100.5 157.1,100.5 157.1,100.5 157.1,100.5 157,100.6 157,100.6 157,100.6 156.9,100.6 156.9,100.7 
		156.8,100.7 156.8,100.7 156.8,100.7 156.7,100.8 156.7,100.8 156.7,100.8 156.6,100.8 156.6,100.9 156.5,100.9 156.5,100.9 
		156.5,101 156.4,101 156.4,101 156.1,101 156.2,100.7 156.2,100.7 156.3,100.7 156.3,100.6 156.3,100.6 156.4,100.6 156.4,100.6 
		156.5,100.5 156.5,100.5 156.5,100.5 156.6,100.4 156.6,100.4 156.6,100.4 156.7,100.4 156.7,100.3 156.7,100.3 156.8,100.3 
		156.8,100.3 156.8,100.2 156.9,100.2 156.9,100.2 156.9,100.2 156.9,100.1 157,100.1 157,100.1 157,100.1 157.1,100 157.1,100 
		157.1,100 157.1,100 157.2,99.9 157.2,99.9 157.2,99.9 157.3,99.9 157.3,99.8 157.3,99.8 157.3,99.8 157.4,99.8 157.4,99.7 
		157.4,99.7 157.4,99.7 157.4,99.7 157.5,99.6 157.5,99.6 157.5,99.6 157.5,99.6 157.6,99.5 157.6,99.5 157.6,99.5 157.6,99.5 
		157.6,99.4 157.7,99.4 157.7,99.4 157.7,99.4 157.7,99.4 157.7,99.3 157.7,99.3 157.8,99.3 157.8,99.3 157.8,99.2 157.8,99.2 
		157.8,99.2 157.8,99.2 157.9,99.2 157.9,99.1 157.9,99.1 157.9,99.1 157.9,99.1 157.9,99 157.9,99 158,99 158,99 158,99 158,98.9 
		158,98.9 158,98.9 158,98.9 158,98.9 158,98.8 158.1,98.8 158.1,98.8 158.1,98.8 158.1,98.8 158.1,98.7 158.1,98.7 158.1,98.7 
		158.1,98.7 158.1,98.7 158.1,98.7 158.1,98.6 158.2,98.6 158.2,98.6 158.2,98.6 158.2,98.6 158.2,98.5 158.2,98.5 158.2,98.5 
		158.2,98.5 158.2,98.5 158.2,98.5 158.2,98.4 158.2,98.4 158.2,98.4 158.2,98.4 158.2,98.4 158.2,98.4 158.2,98.4 158.2,98.3 
		158.2,98.3 158.2,98.3 158.2,98.3 158.2,98.3 158.2,98.3 158.2,98.3 158.2,98.2 158.2,98.2 158.2,98.2 158.2,98.2 158.2,98.2 
		158.2,98.2 158.2,98.2 158.2,98.2 158.2,98.1 158.2,98.1 158.2,98.1 158.2,98.1 158.2,98.1 158.2,98.1 158.2,98.1 158.2,98.1 
		158.2,98.1 158.2,98 158.2,98 158.2,98 158.2,98 158.2,98 158.2,98 158.2,98 158.2,98 158.2,98 158.2,98 158.2,98 158.2,97.9 
		158.2,97.9 158.2,97.9 158.2,97.9 158.2,97.9 158.2,97.9 158.2,97.9 158.2,97.9 158.2,97.9 158.2,97.9 158.2,97.9 158.2,97.9 
		158.2,97.9 158.2,97.9 158.2,97.8 158.1,97.8 158.1,97.8 158.1,97.8 158.1,97.8 158.1,97.8 158.1,97.8 158.1,97.8 158.1,97.8 
		158.1,97.8 158.1,97.8 158.1,97.8 158.1,97.8 158.1,97.8 158.1,97.8 158.1,97.8 158.1,97.8 158.1,97.8 158.1,97.8 158.1,97.8 
		158,97.8 158,97.8 158,97.7 158,97.7 158,97.7 158,97.7 158,97.7 158,97.7 158,97.7 158,97.7 158,97.7 158,97.7 158,97.7 158,97.7 
		157.9,97.7 157.9,97.7 157.9,97.7 157.9,97.7 157.9,97.7 157.9,97.7 157.9,97.7 157.9,97.7 157.9,97.7 157.9,97.7 157.9,97.7 
		157.8,97.7 157.8,97.7 157.8,97.7 157.8,97.7 157.8,97.7 157.8,97.7 157.8,97.7 157.8,97.7 157.8,97.7 157.8,97.7 157.7,97.7 
		157.7,97.7 157.7,97.7 157.7,97.7 157.7,97.7 157.7,97.7 157.7,97.7 157.7,97.7 157.7,97.7 157.6,97.7 157.6,97.7 157.6,97.7 
		157.6,97.7 157.6,97.7 157.6,97.7 157.6,97.7 157.5,97.7 157.5,97.7 157.5,97.7 157.5,97.7 157.5,97.7 157.5,97.8 157.5,97.8 
		157.5,97.8 157.4,97.8 157.4,97.8 157.4,97.8 157.4,97.8 157.4,97.8 157.4,97.8 157.4,97.8 157.3,97.8 157.3,97.8 157.3,97.8 
		157.3,97.8 157.3,97.8 157.3,97.8 157.3,97.9 157.2,97.9 157.2,97.9 157.2,97.9 157.2,97.9 157.2,97.9 157.2,97.9 157.1,97.9 
		157.1,97.9 157.1,97.9 156.9,98 156.7,97.8 156.7,97.8 156.6,97.6 156.8,97.4 156.8,97.4 156.8,97.4 156.9,97.3 156.9,97.3 
		156.9,97.3 156.9,97.3 156.9,97.3 157,97.3 157,97.3 157,97.3 157,97.3 157.1,97.2 157.1,97.2 157.1,97.2 157.1,97.2 157.1,97.2 
		157.2,97.2 157.2,97.2 157.2,97.2 157.2,97.2 157.2,97.2 157.3,97.2 157.3,97.2 157.3,97.2 157.3,97.2 157.3,97.1 157.4,97.1 
		157.4,97.1 157.4,97.1 157.4,97.1 157.4,97.1 157.5,97.1 157.5,97.1 157.5,97.1 157.5,97.1 157.5,97.1 157.6,97.1 157.6,97.1 
		157.6,97.1 157.6,97.1 157.7,97.1 157.7,97.1 157.7,97.1 157.7,97.1 157.7,97.1 	"/>
	<polygon class="st4" points="109.8,97 109.9,97 109.9,97 109.9,97 109.9,97 110,97 110,97 110,97 110,97 110.1,97 110.1,97 
		110.1,97 110.1,97 110.2,97 110.2,97 110.2,97 110.2,97 110.3,97 110.3,97.1 110.3,97.1 110.3,97.1 110.4,97.1 110.4,97.1 
		110.4,97.1 110.4,97.1 110.5,97.1 110.5,97.1 110.5,97.2 110.5,97.2 110.6,97.2 110.6,97.2 110.6,97.2 110.6,97.2 110.7,97.2 
		110.7,97.3 110.7,97.3 110.7,97.3 110.8,97.3 110.8,97.3 110.8,97.3 110.8,97.4 110.9,97.4 110.9,97.4 110.9,97.4 110.9,97.4 
		111,97.5 111,97.5 111,97.5 111.1,97.7 111,97.9 111,97.9 110.8,98 110.5,98 110.5,98 110.5,97.9 110.5,97.9 110.5,97.9 
		110.5,97.9 110.5,97.9 110.4,97.9 110.4,97.8 110.4,97.8 110.4,97.8 110.4,97.8 110.3,97.8 110.3,97.8 110.3,97.8 110.3,97.8 
		110.3,97.7 110.3,97.7 110.2,97.7 110.2,97.7 110.2,97.7 110.2,97.7 110.2,97.7 110.2,97.7 110.1,97.7 110.1,97.7 110.1,97.7 
		110.1,97.6 110.1,97.6 110.1,97.6 110,97.6 110,97.6 110,97.6 110,97.6 110,97.6 110,97.6 110,97.6 109.9,97.6 109.9,97.6 
		109.9,97.6 109.9,97.6 109.9,97.6 109.9,97.6 109.9,97.6 109.9,97.6 109.8,97.6 109.8,97.6 109.8,97.6 109.8,97.6 109.8,97.6 
		109.8,97.6 109.8,97.6 109.8,97.6 109.7,97.6 109.7,97.6 109.7,97.6 109.7,97.6 109.7,97.6 109.7,97.6 109.7,97.6 109.7,97.6 
		109.7,97.6 109.6,97.6 109.6,97.6 109.6,97.6 109.6,97.6 109.6,97.6 109.6,97.6 109.6,97.6 109.6,97.6 109.6,97.6 109.6,97.6 
		109.5,97.6 109.5,97.6 109.5,97.6 109.5,97.6 109.5,97.6 109.5,97.6 109.5,97.6 109.5,97.7 109.5,97.7 109.5,97.7 109.5,97.7 
		109.4,97.7 109.4,97.7 109.4,97.7 109.4,97.7 109.4,97.7 109.4,97.7 109.4,97.7 109.4,97.7 109.4,97.7 109.4,97.7 109.4,97.8 
		109.4,97.8 109.3,97.8 109.3,97.8 109.3,97.8 109.3,97.8 109.3,97.8 109.3,97.8 109.3,97.8 109.3,97.8 109.3,97.9 109.3,97.9 
		109.3,97.9 109.3,97.9 109.3,97.9 109.3,97.9 109.2,97.9 109.2,97.9 109.2,98 109.2,98 109.2,98 109.2,98 109.2,98 109.2,98 
		109.2,98 109.2,98 109.2,98.1 109.2,98.1 109.2,98.1 109.2,98.1 109.2,98.1 109.2,98.1 109.2,98.2 109.2,98.2 109.2,98.2 
		109.2,98.2 109.1,98.2 109.1,98.2 109.1,98.2 109.1,98.3 109.1,98.3 109.1,98.3 109.1,98.3 109.1,98.3 109.1,98.3 109.1,98.4 
		109.1,98.4 109.1,98.4 109.1,98.4 109.1,98.4 109.1,98.5 109.1,98.5 109.1,98.5 109.1,98.5 109.1,98.5 109.1,98.5 109.1,98.6 
		109.1,98.6 109.1,98.6 109.1,98.6 109.1,98.6 109.1,98.7 109.1,98.7 109.1,98.7 109.1,98.7 109.1,98.7 109.2,98.8 109.2,98.8 
		109.2,98.8 109.2,98.8 109.2,98.8 109.2,98.9 109.2,98.9 109.2,98.9 109.2,98.9 109.2,98.9 109.2,99 109.2,99 109.2,99 109.2,99 
		109.2,99.1 109.2,99.1 109.2,99.1 109.2,99.1 109.3,99.1 109.3,99.2 109.3,99.2 109.3,99.2 109.3,99.2 109.3,99.2 109.3,99.3 
		109.3,99.3 109.3,99.3 109.3,99.3 109.4,99.4 109.4,99.4 109.4,99.4 109.4,99.4 109.4,99.4 109.4,99.5 109.4,99.5 109.4,99.5 
		109.5,99.5 109.5,99.5 109.5,99.6 109.5,99.6 109.5,99.6 109.5,99.6 109.6,99.7 109.6,99.7 109.6,99.7 109.6,99.7 109.6,99.7 
		109.6,99.8 109.7,99.8 109.7,99.8 109.7,99.8 109.7,99.8 109.7,99.9 109.7,99.9 109.8,99.9 109.8,99.9 109.8,100 109.8,100 
		109.9,100 109.9,100 109.9,100 109.9,100.1 109.9,100.1 110,100.1 110,100.1 110,100.1 110,100.2 110.1,100.2 110.1,100.2 
		110.1,100.2 110.1,100.2 110.2,100.3 110.2,100.3 110.2,100.3 110.3,100.3 110.3,100.3 110.3,100.4 110.3,100.4 110.4,100.4 
		110.4,100.4 110.4,100.4 110.5,100.5 110.5,100.5 110.5,100.5 110.5,100.5 110.6,100.5 110.6,100.6 110.6,100.6 110.7,100.6 
		110.7,100.6 110.8,100.6 110.8,100.6 110.8,100.7 110.9,100.7 110.9,100.7 110.9,100.7 111,100.7 111,100.7 111,100.8 111.1,101 
		110.9,101.1 110.9,101.1 110.8,101 110.8,101 110.8,101 110.7,101 110.7,101 110.6,101 110.6,100.9 110.6,100.9 110.5,100.9 
		110.5,100.9 110.4,100.9 110.4,100.9 110.4,100.8 110.3,100.8 110.3,100.8 110.3,100.8 110.2,100.8 110.2,100.7 110.2,100.7 
		110.1,100.7 110.1,100.7 110.1,100.7 110,100.6 110,100.6 110,100.6 109.9,100.6 109.9,100.6 109.9,100.5 109.9,100.5 109.8,100.5 
		109.8,100.5 109.8,100.5 109.7,100.4 109.7,100.4 109.7,100.4 109.7,100.4 109.6,100.3 109.6,100.3 109.6,100.3 109.5,100.3 
		109.5,100.3 109.5,100.2 109.5,100.2 109.4,100.2 109.4,100.2 109.4,100.1 109.4,100.1 109.4,100.1 109.3,100.1 109.3,100 
		109.3,100 109.3,100 109.2,100 109.2,99.9 109.2,99.9 109.2,99.9 109.2,99.9 109.1,99.9 109.1,99.8 109.1,99.8 109.1,99.8 
		109.1,99.8 109.1,99.7 109,99.7 109,99.7 109,99.7 109,99.6 109,99.6 109,99.6 108.9,99.6 108.9,99.5 108.9,99.5 108.9,99.5 
		108.9,99.4 108.9,99.4 108.9,99.4 108.9,99.4 108.8,99.3 108.8,99.3 108.8,99.3 108.8,99.3 108.8,99.2 108.8,99.2 108.8,99.2 
		108.8,99.2 108.8,99.1 108.7,99.1 108.7,99.1 108.7,99.1 108.7,99 108.7,99 108.7,99 108.7,99 108.7,98.9 108.7,98.9 108.7,98.9 
		108.7,98.9 108.7,98.8 108.7,98.8 108.7,98.8 108.6,98.8 108.6,98.7 108.6,98.7 108.6,98.7 108.6,98.7 108.6,98.6 108.6,98.6 
		108.6,98.6 108.6,98.6 108.6,98.5 108.6,98.5 108.6,98.5 108.6,98.5 108.6,98.4 108.6,98.4 108.6,98.4 108.6,98.4 108.6,98.3 
		108.6,98.3 108.6,98.3 108.6,98.3 108.6,98.2 108.6,98.2 108.6,98.2 108.6,98.2 108.6,98.2 108.6,98.1 108.6,98.1 108.6,98.1 
		108.6,98.1 108.6,98 108.7,98 108.7,98 108.7,98 108.7,97.9 108.7,97.9 108.7,97.9 108.7,97.9 108.7,97.9 108.7,97.8 108.7,97.8 
		108.7,97.8 108.7,97.8 108.7,97.8 108.7,97.7 108.7,97.7 108.8,97.7 108.8,97.7 108.8,97.7 108.8,97.6 108.8,97.6 108.8,97.6 
		108.8,97.6 108.8,97.6 108.8,97.5 108.8,97.5 108.9,97.5 108.9,97.5 108.9,97.5 108.9,97.4 108.9,97.4 108.9,97.4 108.9,97.4 
		109,97.4 109,97.4 109,97.3 109,97.3 109,97.3 109,97.3 109,97.3 109.1,97.3 109.1,97.3 109.1,97.2 109.1,97.2 109.1,97.2 
		109.1,97.2 109.2,97.2 109.2,97.2 109.2,97.2 109.2,97.1 109.2,97.1 109.2,97.1 109.3,97.1 109.3,97.1 109.3,97.1 109.3,97.1 
		109.3,97.1 109.4,97.1 109.4,97.1 109.4,97 109.4,97 109.5,97 109.5,97 109.5,97 109.5,97 109.5,97 109.6,97 109.6,97 109.6,97 
		109.6,97 109.7,97 109.7,97 109.7,97 109.7,97 109.7,97 109.8,97 109.8,97 109.8,97 	"/>
	<path class="st5" d="M135,105.7c3.5-0.5,4.2-2.2,2.5-3.4"/>
	<polygon class="st4" points="129.7,101.6 129.7,101.6 129.7,101.7 129.7,101.7 129.7,101.7 129.7,101.8 129.7,101.8 129.7,101.8 
		129.7,101.9 129.7,101.9 129.7,101.9 129.7,102 129.7,102 129.7,102 129.7,102 129.7,102.1 129.7,102.1 129.7,102.1 129.7,102.2 
		129.7,102.2 129.7,102.2 129.7,102.3 129.7,102.3 129.7,102.3 129.7,102.4 129.7,102.4 129.7,102.4 129.7,102.5 129.7,102.5 
		129.7,102.5 129.7,102.5 129.7,102.6 129.7,102.6 129.7,102.6 129.7,102.7 129.7,102.7 129.7,102.7 129.7,102.7 129.7,102.8 
		129.7,102.8 129.6,102.8 129.6,102.9 129.6,102.9 129.6,102.9 129.6,103 129.6,103 129.6,103 129.6,103 129.6,103.1 129.6,103.1 
		129.6,103.1 129.6,103.1 129.5,103.2 129.5,103.2 129.5,103.2 129.5,103.2 129.5,103.3 129.5,103.3 129.5,103.3 129.5,103.3 
		129.5,103.3 129.5,103.4 129.4,103.4 129.4,103.4 129.4,103.4 129.4,103.4 129.4,103.5 129.4,103.5 129.4,103.5 129.4,103.5 
		129.4,103.5 129.3,103.6 129.3,103.6 129.3,103.6 129.3,103.6 129.3,103.6 129.3,103.7 129.2,103.7 129.2,103.7 129.2,103.7 
		129.2,103.7 129.2,103.8 129.2,103.8 129.1,103.8 129.1,103.8 129.1,103.8 129.1,103.9 129.1,103.9 129.1,103.9 129,103.9 
		129,103.9 129,103.9 129,104 129,104 128.9,104 128.9,104 128.9,104 128.9,104.1 128.9,104.1 128.9,104.1 128.8,104.1 128.8,104.1 
		128.8,104.1 128.8,104.1 128.8,104.2 128.7,104.2 128.7,104.2 128.7,104.2 128.7,104.2 128.7,104.2 128.6,104.2 128.6,104.2 
		128.6,104.3 128.6,104.3 128.6,104.3 128.6,104.3 128.5,104.3 128.5,104.3 128.5,104.3 128.5,104.3 128.4,104.3 128.4,104.4 
		128.4,104.4 128.4,104.4 128.4,104.4 128.3,104.4 128.3,104.4 128.3,104.4 128.3,104.4 128.3,104.4 128.2,104.4 128.2,104.5 
		128.2,104.5 128.2,104.5 128.2,104.5 128.2,104.5 128.2,104.5 128.1,104.5 128.1,104.5 128.1,104.5 128.1,104.5 128.1,104.5 
		128,104.5 128,104.5 127.8,104.5 127.9,104.2 127.9,104.2 127.9,104.2 127.9,104.2 127.9,104.2 127.9,104.2 127.9,104.2 128,104.2 
		128,104.1 128,104.1 128,104.1 128,104.1 128,104.1 128,104.1 128,104.1 128.1,104.1 128.1,104 128.1,104 128.1,104 128.1,104 
		128.1,104 128.1,104 128.1,103.9 128.1,103.9 128.2,103.9 128.2,103.9 128.2,103.9 128.2,103.9 128.2,103.8 128.2,103.8 
		128.2,103.8 128.2,103.8 128.2,103.8 128.3,103.8 128.3,103.7 128.3,103.7 128.3,103.7 128.3,103.7 128.3,103.7 128.3,103.7 
		128.3,103.6 128.3,103.6 128.4,103.6 128.4,103.6 128.4,103.6 128.4,103.5 128.4,103.5 128.4,103.5 128.4,103.5 128.4,103.5 
		128.4,103.4 128.5,103.4 128.5,103.4 128.5,103.4 128.5,103.4 128.5,103.4 128.5,103.4 128.5,103.3 128.5,103.3 128.5,103.3 
		128.5,103.3 128.6,103.3 128.6,103.2 128.6,103.2 128.6,103.2 128.6,103.2 128.6,103.1 128.6,103.1 128.6,103.1 128.6,103.1 
		128.6,103.1 128.7,103 128.7,103 128.7,103 128.7,103 128.7,103 128.7,103 128.7,102.9 128.7,102.9 128.7,102.9 128.7,102.9 
		128.8,102.9 128.8,102.8 128.8,102.8 128.8,102.8 128.8,102.8 128.8,102.7 128.8,102.7 128.8,102.7 128.9,102.7 128.9,102.7 
		128.9,102.6 128.9,102.6 128.9,102.6 128.9,102.6 128.9,102.5 128.9,102.5 129,102.5 129,102.5 129,102.4 129,102.4 129,102.4 
		129,102.4 129,102.4 129.1,102.3 129.1,102.3 129.1,102.3 129.1,102.2 129.1,102.2 129.1,102.2 129.1,102.2 129.1,102.1 
		129.2,102.1 129.2,102.1 129.2,102.1 129.2,102 129.2,102 129.2,102 129.2,102 129.2,101.9 129.2,101.9 129.2,101.9 129.3,101.9 
		129.3,101.8 129.3,101.8 129.3,101.8 129.3,101.8 129.3,101.7 129.3,101.7 129.3,101.7 129.4,101.6 129.4,101.6 129.5,101.4 	"/>
	<polygon class="st4" points="139.4,101.4 139.4,101.4 139.4,101.5 139.4,101.5 139.5,101.5 139.5,101.6 139.5,101.6 139.5,101.6 
		139.5,101.6 139.5,101.7 139.5,101.7 139.5,101.7 139.5,101.8 139.5,101.8 139.6,101.8 139.6,101.9 139.6,101.9 139.6,101.9 
		139.6,102 139.6,102 139.6,102 139.6,102.1 139.6,102.1 139.7,102.1 139.7,102.1 139.7,102.2 139.7,102.2 139.7,102.2 139.7,102.2 
		139.7,102.3 139.7,102.3 139.7,102.3 139.7,102.3 139.8,102.3 139.8,102.3 139.8,102.3 139.8,102.4 139.8,102.4 139.8,102.4 
		139.8,102.4 139.8,102.4 139.8,102.4 139.8,102.5 139.8,102.5 139.8,102.5 139.9,102.5 139.9,102.5 139.9,102.5 139.9,102.5 
		139.9,102.5 139.9,102.6 139.9,102.6 139.9,102.6 139.9,102.6 139.9,102.6 139.9,102.6 139.9,102.6 139.9,102.7 139.9,102.7 
		139.9,102.7 140,102.7 140,102.7 140,102.7 140,102.7 140,102.8 140,102.8 140,102.8 140,102.8 140,102.8 140,102.8 140,102.9 
		140,102.9 140,102.9 140.1,102.9 140.1,102.9 140.1,102.9 140.1,103 140.1,103 140.1,103 140.1,103 140.1,103 140.1,103 
		140.1,103.1 140.2,103.1 140.2,103.1 140.2,103.1 140.2,103.1 140.2,103.1 140.2,103.2 140.2,103.2 140.2,103.2 140.2,103.2 
		140.2,103.2 140.3,103.3 140.3,103.3 140.3,103.3 140.3,103.3 140.3,103.3 140.3,103.3 140.3,103.4 140.3,103.4 140.4,103.4 
		140.4,103.4 140.4,103.5 140.4,103.5 140.4,103.5 140.4,103.5 140.5,103.6 140.5,103.6 140.5,103.6 140.5,103.6 140.5,103.6 
		140.5,103.6 140.5,103.7 140.6,103.7 140.6,103.7 140.6,103.7 140.6,103.8 140.6,103.8 140.7,103.8 140.7,104 140.5,104.1 
		140.5,104.1 140.4,104.1 140.4,104 140.4,104 140.3,104 140.3,104 140.3,104 140.2,104 140.2,104 140.2,104 140.2,103.9 
		140.2,103.9 140.1,103.9 140.1,103.9 140.1,103.9 140,103.9 140,103.9 140,103.8 140,103.8 139.9,103.8 139.9,103.8 139.9,103.8 
		139.8,103.8 139.8,103.7 139.8,103.7 139.8,103.7 139.8,103.7 139.7,103.7 139.7,103.7 139.7,103.7 139.7,103.6 139.6,103.6 
		139.6,103.6 139.6,103.6 139.6,103.6 139.6,103.6 139.6,103.5 139.5,103.5 139.5,103.5 139.5,103.5 139.5,103.5 139.4,103.4 
		139.4,103.4 139.4,103.4 139.4,103.4 139.4,103.4 139.4,103.3 139.4,103.3 139.3,103.3 139.3,103.3 139.3,103.3 139.3,103.2 
		139.3,103.2 139.3,103.2 139.3,103.2 139.2,103.2 139.2,103.1 139.2,103.1 139.2,103.1 139.2,103.1 139.2,103.1 139.2,103.1 
		139.2,103 139.2,103 139.1,103 139.1,103 139.1,103 139.1,102.9 139.1,102.9 139.1,102.9 139.1,102.9 139.1,102.9 139.1,102.8 
		139.1,102.8 139.1,102.8 139.1,102.8 139.1,102.8 139.1,102.7 139.1,102.7 139,102.7 139,102.7 139,102.6 139,102.6 139,102.6 
		139,102.6 139,102.6 139,102.5 139,102.5 139,102.5 139,102.5 139,102.4 139,102.4 139,102.4 139,102.3 139,102.3 139,102.3 
		139,102.3 139,102.2 139,102.2 139,102.1 139,102.1 139,102 139,102 139,102 139,101.9 139,101.9 139,101.9 139,101.8 139,101.8 
		139,101.7 139,101.7 139,101.7 139.1,101.6 139.1,101.6 139.1,101.6 139.1,101.5 139.1,101.5 139.1,101.5 139.1,101.4 139.1,101.4 
		139.3,101.3 	"/>
</g>
<g>
	<defs>
		<path id="SVGID_7_" d="M120.2,93.3c0,0-1,1.6-0.8,2.3c3.3,0.6,6.4,0.5,9.4,0c-0.1-1.2-1.7-2.6-1.7-2.6L120.2,93.3z"/>
	</defs>
	<clipPath id="SVGID_8_">
		<use xlink:href="#SVGID_7_"  style="overflow:visible;"/>
	</clipPath>
	<path class="st6" d="M124.2,92.6c1.1,0,2.1,0.9,2.1,1.9c0,1.1-0.9,1.9-2.1,1.9c-1.1,0-2.1-0.9-2.1-1.9
		C122.2,93.5,123.1,92.6,124.2,92.6"/>
	<path class="st7" d="M125.3,93.4c0.3,0,0.5,0.2,0.5,0.4c0,0.2-0.2,0.4-0.5,0.4c-0.3,0-0.5-0.2-0.5-0.4
		C124.9,93.6,125.1,93.4,125.3,93.4"/>
</g>
<g>
	<defs>
		<rect id="SVGID_9_" x="26.5" y="12.5" width="244.1" height="244.1"/>
	</defs>
	<clipPath id="SVGID_10_">
		<use xlink:href="#SVGID_9_"  style="overflow:visible;"/>
	</clipPath>
	<path class="st8" d="M119.4,95.6c3.3,0.6,6.4,0.5,9.4,0c-0.1-1.2-1.7-2.6-1.7-2.6l-6.8,0.2C120.2,93.3,119.2,94.9,119.4,95.6z"/>
</g>
<g>
	<defs>
		<path id="SVGID_11_" d="M139.1,95.8c3,0.5,6.1,0.5,9.4,0c0.2-0.8-0.8-2.3-0.8-2.3l-6.8-0.2C140.8,93.2,139.2,94.6,139.1,95.8"/>
	</defs>
	<clipPath id="SVGID_12_">
		<use xlink:href="#SVGID_11_"  style="overflow:visible;"/>
	</clipPath>
	<path class="st9" d="M143.7,92.8c-1.1,0-2.1,0.9-2.1,1.9c0,1.1,0.9,1.9,2.1,1.9c1.1,0,2.1-0.9,2.1-1.9
		C145.8,93.6,144.8,92.8,143.7,92.8"/>
	<path class="st10" d="M144.5,93.5c-0.3,0-0.5,0.2-0.5,0.4c0,0.2,0.2,0.4,0.5,0.4c0.3,0,0.5-0.2,0.5-0.4
		C145,93.7,144.8,93.5,144.5,93.5"/>
</g>
<g>
	<defs>
		<rect id="SVGID_13_" x="26.5" y="12.5" width="244.1" height="244.1"/>
	</defs>
	<clipPath id="SVGID_14_">
		<use xlink:href="#SVGID_13_"  style="overflow:visible;"/>
	</clipPath>
	<path class="st11" d="M148.5,95.8c-3.3,0.6-6.4,0.5-9.4,0c0.1-1.2,1.7-2.6,1.7-2.6l6.8,0.2C147.7,93.5,148.7,95,148.5,95.8z"/>
	<path class="st12" d="M133.1,89.9c1.2,6.6-1,11.9-3.1,13.7c0.3,1.5,2,1.9,3.4,2.1"/>
	<path class="st11" d="M118.4,93.2c2.4,0.2,8.5,0.1,11.3-0.3"/>
	<path class="st11" d="M149.5,93.4c-2.4,0.2-8.5,0.1-11.3-0.3"/>
	<path class="st13" d="M141.6,116.7c-4.8-3.3-11.4-3.9-17.1-2.1"/>
	<polygon class="st14" points="130.7,92.2 130.1,92.1 130.1,92.1 130,92.1 130,92.1 130,92 129.9,92 129.9,92 129.8,92 129.8,92 
		129.8,91.9 129.7,91.9 129.7,91.9 129.7,91.9 129.6,91.9 129.6,91.8 129.6,91.8 129.5,91.8 129.5,91.8 129.5,91.8 129.4,91.8 
		129.4,91.7 129.3,91.7 129.3,91.7 129.3,91.7 129.2,91.7 129.2,91.6 129.1,91.6 129.1,91.6 129.1,91.6 129,91.6 129,91.5 
		128.9,91.5 128.9,91.5 128.9,91.5 128.8,91.5 128.8,91.4 128.7,91.4 128.7,91.4 128.6,91.4 128.6,91.4 128.6,91.4 128.5,91.3 
		128.5,91.3 128.4,91.3 128.4,91.3 128.3,91.3 128.3,91.2 128.2,91.2 128.2,91.2 128.2,91.2 128.1,91.2 128.1,91.2 128,91.1 
		128,91.1 127.9,91.1 127.8,91.1 127.7,91 127.6,91 127.5,91 127.4,90.9 127.3,90.9 127.2,90.9 127.1,90.8 127,90.8 126.9,90.8 
		126.8,90.7 126.7,90.7 126.6,90.7 126.5,90.6 126.4,90.6 126.3,90.6 126.2,90.6 126.1,90.5 126,90.5 125.9,90.5 125.7,90.4 
		125.6,90.4 125.5,90.4 125.4,90.4 125.3,90.3 125.2,90.3 125.1,90.3 125,90.3 124.9,90.2 124.8,90.2 124.7,90.2 124.6,90.2 
		124.4,90.2 124.3,90.1 124.2,90.1 124.1,90.1 124,90.1 123.9,90.1 123.8,90 123.7,90 123.6,90 123.4,90 123.3,90 123.2,90 
		123.1,89.9 123,89.9 122.9,89.9 122.8,89.9 122.7,89.9 122.5,89.9 122.4,89.9 122.3,89.8 122.2,89.8 122.1,89.8 122,89.8 
		121.9,89.8 121.8,89.8 121.7,89.8 121.5,89.8 121.4,89.8 121.3,89.7 121.2,89.7 121.1,89.7 121,89.7 120.9,89.7 120.8,89.7 
		120.7,89.7 120.6,89.7 120.5,89.7 120.4,89.7 120.3,89.7 120.1,89.7 120,89.7 119.9,89.7 119.8,89.7 119.7,89.7 119.6,89.7 
		119.5,89.7 119.4,89.7 119.3,89.7 119.2,89.7 119.1,89.7 119,89.7 118.9,89.7 118.8,89.7 118.7,89.7 118.6,89.7 118.6,89.7 
		118.5,89.7 118.5,89.7 118.5,89.7 118.4,89.7 118.4,89.7 118.3,89.7 118.3,89.7 118.2,89.7 118.2,89.7 118.1,89.8 118.1,89.8 
		118,89.8 118,89.8 118,89.8 117.9,89.8 117.9,89.8 117.8,89.8 117.8,89.8 117.7,89.8 117.7,89.8 117.6,89.8 117.6,89.8 117.6,89.8 
		117.5,89.8 117.5,89.8 117.4,89.8 117.4,89.8 117.4,89.8 117,89.8 116.8,89.5 116.8,89.5 116.9,89.1 117.2,88.9 117.3,88.9 
		117.3,88.9 117.3,88.8 117.4,88.8 117.4,88.8 117.5,88.8 117.5,88.8 117.6,88.8 117.6,88.8 117.7,88.8 117.7,88.8 117.8,88.8 
		117.8,88.8 117.9,88.8 117.9,88.7 118,88.7 118,88.7 118.1,88.7 118.1,88.7 118.2,88.7 118.2,88.7 118.3,88.7 118.3,88.7 
		118.4,88.7 118.4,88.7 118.4,88.7 118.5,88.7 118.6,88.7 118.7,88.6 118.8,88.6 118.9,88.6 119,88.6 119.1,88.6 119.2,88.6 
		119.3,88.6 119.4,88.6 119.5,88.6 119.6,88.6 119.7,88.6 119.8,88.6 119.9,88.6 120,88.5 120.1,88.5 120.3,88.5 120.4,88.5 
		120.5,88.5 120.6,88.5 120.7,88.5 120.8,88.5 120.9,88.5 121,88.5 121.2,88.5 121.3,88.5 121.4,88.5 121.5,88.5 121.6,88.5 
		121.7,88.5 121.8,88.6 122,88.6 122.1,88.6 122.2,88.6 122.3,88.6 122.4,88.6 122.5,88.6 122.7,88.6 122.8,88.6 122.9,88.6 
		123,88.6 123.1,88.6 123.3,88.6 123.4,88.6 123.5,88.7 123.6,88.7 123.7,88.7 123.8,88.7 124,88.7 124.1,88.7 124.2,88.7 
		124.3,88.8 124.4,88.8 124.5,88.8 124.7,88.8 124.8,88.8 124.9,88.8 125,88.8 125.1,88.9 125.3,88.9 125.4,88.9 125.5,88.9 
		125.6,88.9 125.7,89 125.8,89 125.9,89 126.1,89 126.2,89 126.3,89.1 126.4,89.1 126.5,89.1 126.6,89.1 126.7,89.2 126.9,89.2 
		127,89.2 127.1,89.2 127.2,89.3 127.3,89.3 127.4,89.3 127.5,89.3 127.6,89.4 127.7,89.4 127.8,89.4 127.9,89.5 128.1,89.5 
		128.2,89.5 128.3,89.6 128.4,89.6 128.5,89.6 128.5,89.6 128.6,89.7 128.6,89.7 128.7,89.7 128.7,89.7 128.8,89.7 128.8,89.7 
		128.9,89.8 128.9,89.8 129,89.8 129,89.8 129.1,89.8 129.1,89.8 129.2,89.9 129.2,89.9 129.3,89.9 129.3,89.9 129.4,89.9 
		129.4,89.9 129.5,90 129.5,90 129.6,90 129.6,90 129.7,90 129.7,90.1 129.8,90.1 129.8,90.1 129.9,90.1 129.9,90.1 130,90.2 
		130,90.2 130,90.2 130.1,90.2 130.1,90.2 130.2,90.3 130.2,90.3 130.3,90.3 130.3,90.3 130.4,90.3 130.4,90.4 130.5,90.4 
		130.5,90.4 130.5,90.4 130.6,90.4 130.6,90.5 130.7,90.5 130.7,90.5 130.8,90.5 130.8,90.6 130.8,90.6 130.9,90.6 130.9,90.6 
		130.9,90.6 131.3,91.1 131.2,91.8 131.2,91.8 131.2,91.8 	"/>
	<polygon class="st14" points="148.8,88.1 148.8,88.1 148.9,88.1 148.9,88.1 149,88.1 149,88.1 149.1,88.1 149.1,88.1 149.2,88.1 
		149.2,88.1 149.3,88.1 149.3,88.1 149.4,88.1 149.4,88.1 149.5,88.1 149.5,88.1 149.6,88.1 149.7,88.1 149.7,88.1 149.8,88.1 
		149.8,88.1 149.9,88.1 149.9,88.1 150,88.1 150,88.1 150.1,88.1 150.1,88.2 150.2,88.2 150.2,88.2 150.3,88.2 150.3,88.2 
		150.3,88.2 150.4,88.2 150.4,88.2 150.5,88.2 150.5,88.2 150.6,88.2 150.6,88.2 150.7,88.2 150.7,88.2 150.8,88.2 150.8,88.2 
		150.9,88.3 150.9,88.3 151,88.3 151,88.3 151.5,88.6 151.6,89.3 151.6,89.3 151.3,89.8 150.6,90 150.6,90 150.6,89.9 150.5,89.9 
		150.5,89.9 150.5,89.9 150.4,89.9 150.4,89.9 150.3,89.9 150.3,89.9 150.3,89.9 150.2,89.9 150.2,89.9 150.1,89.9 150.1,89.9 
		150.1,89.8 150,89.8 150,89.8 149.9,89.8 149.9,89.8 149.9,89.8 149.8,89.8 149.8,89.8 149.7,89.8 149.7,89.8 149.6,89.8 
		149.6,89.8 149.5,89.8 149.5,89.8 149.5,89.8 149.4,89.8 149.4,89.7 149.3,89.7 149.3,89.7 149.2,89.7 149.2,89.7 149.1,89.7 
		149.1,89.7 149,89.7 149,89.7 149,89.7 148.9,89.7 148.9,89.7 148.8,89.7 148.8,89.7 148.7,89.7 148.7,89.7 148.6,89.7 148.6,89.7 
		148.5,89.7 148.5,89.7 148.4,89.7 148.4,89.7 148.3,89.7 148.2,89.7 148.1,89.7 148,89.7 147.9,89.7 147.8,89.7 147.7,89.7 
		147.6,89.7 147.5,89.7 147.4,89.7 147.3,89.7 147.2,89.7 147.1,89.7 147,89.7 146.9,89.7 146.8,89.7 146.7,89.7 146.6,89.7 
		146.4,89.7 146.3,89.7 146.2,89.7 146.1,89.7 146,89.7 145.9,89.7 145.8,89.8 145.7,89.8 145.6,89.8 145.5,89.8 145.3,89.8 
		145.2,89.8 145.1,89.8 145,89.8 144.9,89.8 144.8,89.9 144.7,89.9 144.6,89.9 144.4,89.9 144.3,89.9 144.2,89.9 144.1,90 144,90 
		143.9,90 143.8,90 143.7,90 143.6,90 143.4,90.1 143.3,90.1 143.2,90.1 143.1,90.1 143,90.1 142.9,90.2 142.8,90.2 142.7,90.2 
		142.6,90.2 142.4,90.3 142.3,90.3 142.2,90.3 142.1,90.3 142,90.4 141.9,90.4 141.8,90.4 141.7,90.4 141.6,90.5 141.5,90.5 
		141.4,90.5 141.3,90.5 141.2,90.6 141.1,90.6 141,90.6 140.9,90.7 140.8,90.7 140.7,90.7 140.6,90.7 140.5,90.8 140.3,90.8 
		140.3,90.8 140.2,90.9 140.1,90.9 140,90.9 139.9,91 139.8,91 139.7,91 139.6,91.1 139.5,91.1 139.4,91.1 139.3,91.2 139.2,91.2 
		139.1,91.2 139,91.3 139,91.3 138.9,91.3 138.9,91.3 138.9,91.3 138.8,91.4 138.8,91.4 138.7,91.4 138.7,91.4 138.6,91.4 
		138.6,91.5 138.6,91.5 138.5,91.5 138.5,91.5 138.4,91.5 138.4,91.5 138.4,91.6 138.3,91.6 138.3,91.6 138.2,91.6 138.2,91.6 
		138.2,91.7 138.1,91.7 138.1,91.7 138,91.7 138,91.7 138,91.8 137.9,91.8 137.9,91.8 137.9,91.8 137.5,91.8 137.2,91.6 137.2,91.6 
		137.2,91.2 137.4,90.9 137.4,90.9 137.5,90.9 137.5,90.9 137.6,90.8 137.6,90.8 137.6,90.8 137.7,90.8 137.7,90.8 137.8,90.7 
		137.8,90.7 137.9,90.7 137.9,90.7 137.9,90.6 138,90.6 138,90.6 138.1,90.6 138.1,90.5 138.2,90.5 138.2,90.5 138.2,90.5 
		138.3,90.5 138.3,90.4 138.4,90.4 138.4,90.4 138.5,90.4 138.5,90.4 138.6,90.3 138.6,90.3 138.7,90.3 138.8,90.2 138.9,90.2 
		139,90.1 139.1,90.1 139.2,90.1 139.3,90 139.4,90 139.5,89.9 139.6,89.9 139.7,89.9 139.8,89.8 139.9,89.8 140,89.7 140.1,89.7 
		140.2,89.7 140.3,89.6 140.4,89.6 140.5,89.5 140.6,89.5 140.7,89.5 140.8,89.4 140.9,89.4 141,89.4 141.2,89.3 141.3,89.3 
		141.4,89.3 141.5,89.2 141.6,89.2 141.7,89.2 141.8,89.1 141.9,89.1 142,89.1 142.2,89 142.3,89 142.4,89 142.5,89 142.6,88.9 
		142.7,88.9 142.8,88.9 142.9,88.8 143.1,88.8 143.2,88.8 143.3,88.8 143.4,88.7 143.5,88.7 143.6,88.7 143.8,88.7 143.9,88.6 
		144,88.6 144.1,88.6 144.2,88.6 144.3,88.5 144.5,88.5 144.6,88.5 144.7,88.5 144.8,88.4 144.9,88.4 145,88.4 145.2,88.4 
		145.3,88.4 145.4,88.4 145.5,88.3 145.6,88.3 145.7,88.3 145.8,88.3 146,88.3 146.1,88.3 146.2,88.2 146.3,88.2 146.4,88.2 
		146.5,88.2 146.7,88.2 146.8,88.2 146.9,88.2 147,88.2 147.1,88.2 147.2,88.1 147.3,88.1 147.4,88.1 147.6,88.1 147.7,88.1 
		147.8,88.1 147.9,88.1 148,88.1 148.1,88.1 148.2,88.1 148.3,88.1 148.4,88.1 148.4,88.1 148.5,88.1 148.5,88.1 148.6,88.1 
		148.7,88.1 148.7,88.1 	"/>
	<path class="st11" d="M155.9,78c0.1,2-0.6,3.4-2.8,4"/>
	<path class="st15" d="M130.6,62c0,0,3.8-2.5,11.7,0c8,2.5,7.9,5.6,13.2,7.8c5.3,2.2,6.5,2.8,8,7.1c1.5,4.2,0.7,4.2,1.5,6.6
		c0.9,2.4,2,2.9,1.3,7.5c-0.7,4.5-0.9,4.7-1.8,7.9c-0.9,3.2,0.1,4.9-3.1,8.8c-0.9,1.1-1.5,2-1.8,2.7c-0.9,1.9-0.8,3-2.8,5.4
		c-4.3,5.1-7.8,5.3-7.8,5.3c5-5.6,6.6-8.6,7.5-18.1c7-4,3.2-10.3-0.7-7.3c0.6-1.9,0.5-3.2-0.1-6c-0.8-3.3-3.5-3.6-2.5-7.8
		c-7.3,0.3-10.8-2.7-10.6-6.2c-7.7-2-12.3-4.2-11.4-8.6L130.6,62z"/>
	<path class="st11" d="M130.6,62c0,0,3.8-2.5,11.7,0c8,2.5,7.9,5.6,13.2,7.8c5.3,2.2,6.5,2.8,8,7.1c1.5,4.2,0.7,4.2,1.5,6.6
		c0.9,2.4,2,2.9,1.3,7.5c-0.7,4.5-0.9,4.7-1.8,7.9c-0.9,3.2,0.1,4.9-3.1,8.8c-0.9,1.1-1.5,2-1.8,2.7c-0.9,1.9-0.8,3-2.8,5.4
		c-4.3,5.1-7.8,5.3-7.8,5.3c5-5.6,6.6-8.6,7.5-18.1c7-4,3.2-10.3-0.7-7.3c0.6-1.9,0.5-3.2-0.1-6c-0.8-3.3-3.5-3.6-2.5-7.8
		c-7.3,0.3-10.8-2.7-10.6-6.2c-7.7-2-12.3-4.2-11.4-8.6L130.6,62z"/>
	<path class="st15" d="M130.9,62l0.2,5.1l-2.9,3.5c1.3,4.8-2.9,7.7-8.4,10.7c-1.6,0.8-4.3,0.7-4.7,3.1c0,0-2.4-1.3-3.4,0.2
		c-1.2,1.7-0.4,2.7-0.2,4c-2.1,2.3-1.7,5.2-0.3,7.5c-2.4-1.8-3.5-0.6-4,0.1c-1.2,1.7,0.5,6.5,4.5,6.8c-0.2,9,2.8,14.5,5.8,17.1
		c-2.1,0.9-7.4-2.3-8.4-7.2c-0.6-3-5.8-3.4-4.3-11c0.3-1.8-2.4-2.3-1.7-5.8c-1.6-5.2-1.9-10.1,0.4-12.3c-1.1-3.8,1.6-8.7,8.8-13.7
		C114.9,63.1,125.5,59.5,130.9,62"/>
	<path class="st11" d="M130.9,62l0.2,5.1l-2.9,3.5c1.3,4.8-2.9,7.7-8.4,10.7c-1.6,0.8-4.3,0.7-4.7,3.1c0,0-2.4-1.3-3.4,0.2
		c-1.2,1.7-0.4,2.7-0.2,4c-2.1,2.3-1.7,5.2-0.3,7.5c-2.4-1.8-3.5-0.6-4,0.1c-1.2,1.7,0.5,6.5,4.5,6.8c-0.2,9,2.8,14.5,5.8,17.1
		c-2.1,0.9-7.4-2.3-8.4-7.2c-0.6-3-5.8-3.4-4.3-11c0.3-1.8-2.4-2.3-1.7-5.8c-1.6-5.2-1.9-10.1,0.4-12.3c-1.1-3.8,1.6-8.7,8.8-13.7
		C114.9,63.1,125.5,59.5,130.9,62z"/>
	<path class="st11" d="M131.1,63.8c0,0-9.4,4.9-6.7,5.3C127.2,69.6,131.1,63.8,131.1,63.8z"/>
	<path class="st11" d="M131.1,63.1c-1.9-1-9.5,0.2-8.3,1.5C124.1,65.9,130.6,63.3,131.1,63.1z"/>
	<path class="st11" d="M131.1,63.1c0,0,11.8,3.1,11.4,1.6c-0.3-1.1-3.3-1.9-6.1-2C133.7,62.6,131.1,63.1,131.1,63.1z"/>
	<path class="st11" d="M131.1,63.8c0,0,9.4,8.8,9.2,6.1C140.1,67.1,131.1,63.8,131.1,63.8z"/>
	<path class="st16" d="M131.7,86.6c1.8,1.3,4.5,1.4,5.9,0"/>
	<path class="st16" d="M136.7,112.1c-1.4-1.2-4.5-1.2-5.9-0.6"/>
	<path class="st16" d="M135.2,118.7c-1-0.9-3.3-0.9-4.4-0.4"/>
	<path class="st16" d="M129.9,116.7c1.4,0.8,4.8,1.2,6.8,0.9"/>
	<path class="st16" d="M123.4,116.3c0.7-1.3,1.2-2.3,1.4-3.1"/>
	<path class="st16" d="M142.1,118.3c-0.3-1.5-0.4-2.3-0.4-3.2"/>
	<path class="st15" d="M208,55c4.5-4.5,13.5-5.8,20.1-3.1c8.7,3.6,15.1,11.3,12.1,20.1c3.5,1.8,5.9,4.5,5.9,8.2
		c0,7-8.1,13.2-16.4,13.4c-2,0.1-3.8,0-5.5-0.3c-2.2,6.9-12.6,9.3-19.9,8.2c-9.3-1.5-17.9-9.1-18-15.4c-4.9-1-8.6-4.8-8.6-9.4
		c0-3.5,2.1-6.5,5.1-8.2c-1.6-8.3,7.7-15.7,15.8-15.7C202,52.7,205.3,53.5,208,55"/>
	<path class="st11" d="M208,55c4.5-4.5,13.5-5.8,20.1-3.1c8.7,3.6,15.1,11.3,12.1,20.1c3.5,1.8,5.9,4.5,5.9,8.2
		c0,7-8.1,13.2-16.4,13.4c-2,0.1-3.8,0-5.5-0.3c-2.2,6.9-12.6,9.3-19.9,8.2c-9.3-1.5-17.9-9.1-18-15.4c-4.9-1-8.6-4.8-8.6-9.4
		c0-3.5,2.1-6.5,5.1-8.2c-1.6-8.3,7.7-15.7,15.8-15.7C202,52.7,205.3,53.5,208,55z"/>
	<path class="st15" d="M212.2,68.3c2.6-6.2,9.1-6.6,11.8-4c2.6,2.6,2.6,6.4,0,11.7c-1.9,3.9-7.4,11.4-11.3,14
		c-4-2.6-9.5-8.6-11.5-12.5c-4-8.1-3.2-10.3-0.3-13.2C203.4,61.6,209.5,62.1,212.2,68.3"/>
	<path class="st17" d="M212.2,68.3c2.6-6.2,9.1-6.6,11.8-4c2.6,2.6,2.6,6.4,0,11.7c-1.9,3.9-7.4,11.4-11.3,14
		c-4-2.6-9.5-8.6-11.5-12.5c-4-8.1-3.2-10.3-0.3-13.2C203.4,61.6,209.5,62.1,212.2,68.3"/>
	<path class="st11" d="M212.2,68.3c2.6-6.2,9.1-6.6,11.8-4c2.6,2.6,2.6,6.4,0,11.7c-1.9,3.9-7.4,11.4-11.3,14
		c-4-2.6-9.5-8.6-11.5-12.5c-4-8.1-3.2-10.3-0.3-13.2C203.4,61.6,209.5,62.1,212.2,68.3z"/>
	<line class="st18" x1="194.6" y1="61" x2="229.7" y2="89.3"/>
	<line class="st18" x1="229.7" y1="61" x2="194.6" y2="89.3"/>
	<path class="st11" d="M43.4,153.7c-0.3,14.4,1.8,27.6,7.6,38.9"/>
	<path class="st11" d="M49.3,167.8c-0.2,9.7,2.5,20.1,6.3,27.7"/>
	<path class="st11" d="M224.6,169.8c0,8.9-3.9,23.9-8.9,32.4"/>
	<path class="st11" d="M218.5,184.2c-0.3,5.8-3.3,15.9-5.7,19.3"/>
	<path class="st15" d="M183.8,195.7c2.3-1.2,4.4-1.7,6.3-0.8c4.1,1.9,4.6,3.2,8.1,3.5c2.8,0.3,8.4-0.5,9.2-5.9
		c0.8-6.2,0.2-14.2-0.9-22.9c-0.9-2.7-3.4-2-3.2,0.2c0.3,3.9,0.3,7.2,0.2,10.3l-1.1-0.3c0.2-5.1-0.6-11.5-1.5-16.1
		c-0.5-2.9-3.3-1.8-3.1,0.2c0.4,6.1,0.8,10.9,0.8,15.6l-1.1-0.1c-0.7-6.7-1.9-12.9-3.1-18.6c-1.3-2.4-3.4-2.2-3.8,0l3.5,19.3
		l-0.8,0.2c-1.4-5.2-2.4-10.4-4.3-14.3c-1.1-2.2-3.7-0.8-2.8,1.1c2.4,9.1,3.8,16.8,4.5,22.4C184.8,188.6,181,192.3,183.8,195.7"/>
	<path class="st11" d="M183.8,195.7c2.3-1.2,4.4-1.7,6.3-0.8c4.1,1.9,4.6,3.2,8.1,3.5c2.8,0.3,8.4-0.5,9.2-5.9
		c0.8-6.2,0.2-14.2-0.9-22.9c-0.9-2.7-3.4-2-3.2,0.2c0.3,3.9,0.3,7.2,0.2,10.3l-1.1-0.3c0.2-5.1-0.6-11.5-1.5-16.1
		c-0.5-2.9-3.3-1.8-3.1,0.2c0.4,6.1,0.8,10.9,0.8,15.6l-1.1-0.1c-0.7-6.7-1.9-12.9-3.1-18.6c-1.3-2.4-3.4-2.2-3.8,0l3.5,19.3
		l-0.8,0.2c-1.4-5.2-2.4-10.4-4.3-14.3c-1.1-2.2-3.7-0.8-2.8,1.1c2.4,9.1,3.8,16.8,4.5,22.4C184.8,188.6,181,192.3,183.8,195.7z"/>
	<path class="st11" d="M191.7,181.7c4.3-2.7,8.8-2.1,13.5-1.1"/>
	<path class="st11" d="M193.9,189.7c2.7,0.2,4.8,2.4,6.2,5.1"/>
	<path class="st11" d="M202.8,185.6c-1.6,1.5-1.7,4.1-1.2,6.6"/>
</g>
</svg>
