<?xml version="1.0" encoding="utf-8"?>
<!-- Generator: Adobe Illustrator 22.1.0, SVG Export Plug-In . SVG Version: 6.00 Build 0)  -->
<svg version="1.1" id="Слой_3" xmlns="http://www.w3.org/2000/svg" xmlns:xlink="http://www.w3.org/1999/xlink" x="0px" y="0px"
	 viewBox="0 0 512 512" style="enable-background:new 0 0 512 512;" xml:space="preserve">
<style type="text/css">
	.st0{fill:#857154;}
	.st1{fill:#FDCD95;}
	.st2{fill:#FDCD95;stroke:#000000;stroke-width:3;stroke-linecap:round;stroke-linejoin:round;stroke-miterlimit:10;}
	.st3{fill:none;stroke:#1D1D1B;stroke-width:3;stroke-linecap:round;stroke-linejoin:round;stroke-miterlimit:10;}
	.st4{fill:none;stroke:#000000;stroke-width:3;stroke-linecap:round;stroke-linejoin:round;stroke-miterlimit:10;}
	.st5{fill:#F6F6F6;}
	.st6{fill:#B5D758;stroke:#000000;stroke-width:3;stroke-linecap:round;stroke-linejoin:round;stroke-miterlimit:10;}
	.st7{fill:none;stroke:#000000;stroke-width:3;stroke-miterlimit:10;}
	.st8{fill:#315164;stroke:#000000;stroke-width:3.0432;stroke-linecap:round;stroke-linejoin:round;stroke-miterlimit:10;}
	.st9{fill:#FDCD95;stroke:#000000;stroke-width:3.0432;stroke-linecap:round;stroke-linejoin:round;stroke-miterlimit:10;}
	.st10{fill:none;stroke:#000000;stroke-width:3.0432;stroke-linecap:round;stroke-linejoin:round;stroke-miterlimit:10;}
	.st11{stroke:#000000;stroke-width:3;stroke-linecap:round;stroke-linejoin:round;stroke-miterlimit:10;}
</style>
<path d="M405.3,359c0,0,40.4,41.9,43.2,25s-7.8-36.9-7.8-36.9l-14.1-10.9l-7.9,9.5L405.3,359z"/>
<path d="M279.3,220c0,0,18.3-5.7,36.3-3.2l0.3,22.5c0,0-31.7-11.4-31.4-12.2C284.8,226.2,279.3,220,279.3,220z"/>
<path d="M367.5,212.4c0,0,24.7,4.4,39.1,14.7l-8.9,12l-24.2,9l-5.4-6.2l0-5.2L367.5,212.4z"/>
<path class="st0" d="M370.6,203.6v5.3l14.5,3.4l17.7-2.4l13.7-7.6l13-15.7c0,0,10.6-16.3,10.5-32.6c-0.1-16.2-1.1-27.2-1.1-27.2
	s-4.1-25.6-8.5-31.2c-4.4-5.6-8.1-20.9-13.2-23.8s-9.8-16.4-19.1-19.9l-14.5-8.7l-11.9-3.8l-15.4-1.1l-3,2l-9.3-3.3l-8-1l-12,2.2
	l-4.6,2.3l-7.5-0.2l-17.2,5l-10.7,7l-14.3,15l-11,20.3c0,0-4.7,12.7-5.4,15.6c-0.8,2.9-5,31.3-4.6,37.4c0.4,6.1,4.2,28.8,6.5,34.2
	c2.3,5.4,9.5,17.8,10.8,19.5c1.4,1.6,11.5,12.9,20.4,14.4c8.9,1.6,12.5,2.8,17.5,3s9.1-1.9,9.1-1.9l8.3-16.8l27.1-0.8
	c0,0,12.3,3.5,13.3,3.8c1.1,0.3,9,3.5,9,3.5V203.6z"/>
<path class="st1" d="M372.5,239.7l-12.6,4.9l-16,2.3c0,0-18.2-0.7-23.4-3.6c-5.2-2.9-7.6-4.6-7.6-4.6l1.2-34.5
	c0,0-20.9-11.1-27.8-23.3c-6.9-12.2-10.5-22.7-10.5-22.7l-2.3-23.3l6.4-6.9l5.1-9.3l4.6,3.2l5.1,0.6l7.5-9.3l6-13.3l2.3,5.3l5,3.2
	l3.9-3.4l6.5-13.5l0.3,7.2l3.2,3.1l5.6-0.5l5.4-5.5l4.7,3.1l4.3,3.4l5.3,0.7l5.1-4.4l4.7-7.1l2.3,6.8l4.9,9.5l2.7,4h2.9l5.5-4.2
	l3,9.2l3.5,4.5l6.4-0.9l2.2,7.9l2.8,4.4l5.5-0.6l2.8-3.5l0.6,16.2l-6.1,24.5l-10.9,17l-17.1,14.9l-6.6,3.1L372.5,239.7z"/>
<path class="st2" d="M409,128.4c0.9-0.3,1.8-0.4,2.7-0.3c5.5,0.6,9.1,8.5,8.1,17.7c-1.1,9.1-6.4,16-11.9,15.4
	c-0.4-0.1-0.9-0.1-1.3-0.3"/>
<path class="st3" d="M273.3,133.4c0,0.4,0,0.8,0,1.4"/>
<path class="st4" d="M278,165.1c3.5,9.4,8.9,17.8,15.7,24.7c5.6,5.7,12.1,10.4,19.2,13.9c8.7,4.2,18.4,6.5,28.7,6.5
	c10.3,0,20-2.3,28.7-6.5c7.4-3.6,14.1-8.5,19.8-14.4c7.5-7.9,13.3-17.5,16.6-28.3c2.1-6.8,3.2-14,3.2-21.5c0-3.7-0.3-7.4-0.8-11"/>
<path class="st4" d="M312.9,203.6L312.9,203.6v6.4v2v26.7c26.8,19.9,59.6,1,59.6,1"/>
<polyline class="st4" points="372.5,239.7 370.6,209 370.3,203.6 370.3,203.6 "/>
<path class="st2" d="M278,165.1c-0.8,0.6-1.7,1.1-2.7,1.3c-5.4,1.2-11.4-5.2-13.3-14.2c-1.9-9,0.9-17.2,6.3-18.4
	c1.7-0.4,3.4,0,5,0.9c0,1.5,0,3.5,0,4.6C273.3,148.5,275,157.1,278,165.1z"/>
<path class="st3" d="M273.5,134.9c-0.1,0-0.1-0.1-0.2-0.1"/>
<path class="st4" d="M312.9,210c-6.3,2.1-12.8,2.7-19.3,1.6c-31.5-5.1-50.9-47.4-43.3-94.5c7.5-46.3,38.2-80.1,69.1-76.4"/>
<path class="st4" d="M351.5,40c32.2-8.3,69.1,21.4,83.1,67.5c14.3,46.9-0.6,93-33.2,102.9c-10,3-20.6,2.3-30.8-1.5"/>
<path class="st3" d="M319.3,40.7c4.7-2.8,10.4-4.5,16.6-4.5c5.7,0,11,1.4,15.5,3.9"/>
<path class="st4" d="M265.1,92.8c0,0-1.4,66.6,16.7,29.5c0,0,2-3.6,4.4-7.9c3.2-5.8,7.2-12.9,8.4-14.5"/>
<path class="st4" d="M409,128.4c0,0-8.6,15.6-13.2-8.2c0,0-8.9,7.8-12.1-11.7"/>
<path class="st4" d="M387.2,92.8c0,0-4.6,32.4-16.9,12.8c0,0-6.2-11.4-6.2-17.8c0,0-6.1,29.5-22.5,6.8c0,0-17,19.6-15.6-5
	c0,0-9.6,34.4-17.8,10.3c0,0-12.5,36.6-23.2,16.7"/>
<path class="st4" d="M400.7,65.1c0,0,16,24.6,17.8,46.6"/>
<path class="st4" d="M294.6,67.5c0,0-14.5,12.1-16.7,29.5"/>
<ellipse cx="317.1" cy="138.2" rx="6.8" ry="11.9"/>
<circle class="st5" cx="317.4" cy="134.8" r="3.8"/>
<ellipse cx="364.9" cy="136.9" rx="6.8" ry="11.9"/>
<path class="st4" d="M302.6,136.9c0-1.6,12.8-17.9,25.6-4.9"/>
<circle class="st5" cx="364.9" cy="134.8" r="3.8"/>
<path class="st4" d="M378.9,135.5c0-1.6-12.8-17.9-25.6-4.9"/>
<path class="st4" d="M299.7,126.3c0,0,11.9-9.2,24.2-7.3"/>
<path class="st4" d="M354.7,117.1c0,0,15.5-3.3,24.2,8.5"/>
<path class="st4" d="M334.9,155.8c0,0,8.8-7.5,16.5,0"/>
<path class="st4" d="M321.1,175c0,0,20.1,39,45.6,0"/>
<path class="st6" d="M290.9,218.3c0,0-53.5,5-65.5,14s-19.5,72-19.5,72l-2.5,57.5l50,40.5l-3.5,60c0,0,123.5,30.5,171,0l-10-124
	c0,0,16.5,0,36.5,45c0,0,26-133-19.5-149.5l-42-15.5C385.9,218.3,339.4,272.3,290.9,218.3z"/>
<g>
	<path class="st7" d="M302.8,339.5H279c-3.7,0-6.8-3-6.8-6.8v-27.6c0-3.7,3-6.8,6.8-6.8h23.8c3.7,0,6.8,3,6.8,6.8v27.6
		C309.6,336.4,306.5,339.5,302.8,339.5z"/>
	<path class="st7" d="M273.4,301.3l13.3,13.5c2.2,2.3,5.9,2.2,8-0.2l12.6-14.3"/>
</g>
<line class="st4" x1="410.9" y1="338.3" x2="408.9" y2="295.3"/>
<rect x="82.8" y="176.1" transform="matrix(0.9759 -0.2184 0.2184 0.9759 -62.0676 46.449)" class="st8" width="192.5" height="255.7"/>
<path class="st9" d="M86.9,332.8l6.2,27.6c0,0-33-14.1-24.9-30.7c0,0-5.2-3.7-2.5-8c0,0-1.4-3.7-0.5-7.7c0.3-1.4,0.2-2.8-0.3-4.1
	c-2.4-6.3-7.4-24.7,14-28c0,0,16.7-2.8,4.5,12.3c0,0,27.3,6.7,15.5,14.5c0,0,20.2,10.4,8.8,12.3C107.9,321,117.9,335.9,86.9,332.8z"
	/>
<path class="st10" d="M69,329.6c0,0,22.7-16.3,38.8-8.7"/>
<path class="st10" d="M65.7,321.6c0,0,17.8-19.2,33.3-13"/>
<path class="st10" d="M65.3,310.6c0,0,0.4-14.3,18.3-16.4"/>
<path class="st10" d="M81.5,336.4c0,0,1.9-3.9,6.1-3.6"/>
<path class="st2" d="M444.2,376.4c0,0-18.3,17.9-88.3,5.9c-57.8-9.9-72.6-9.3-76.1-8.7c-1.2,0.2-2.3,0.2-3.5,0.2
	c-7.5-0.2-28.4-1.8-23.4-13.4c0,0-13-11-4-13.3c0,0-12.8-11.1-4.2-12.4c0,0-47.4-19.9-3-14.9l19.3,3.3c0,0,14-10.5,31.7,0.8
	c17.7,11.3,9.8,12,30.3,17s68.7,1.7,74.8,0c5.2-1.4,13.5-4.1,17.5-1.5C419.4,342.1,434.8,354.8,444.2,376.4z"/>
<path class="st4" d="M269,362.1c0,0-11.7,0.5-16.2-1.8"/>
<path class="st11" d="M267.2,351.3c0,0-16-2.1-18.3-4.3"/>
<path class="st4" d="M264.4,337.6c0,0-17.1-1.8-19.7-3"/>
<line class="st4" x1="261" y1="323.1" x2="275.9" y2="325.9"/>
</svg>
