<svg enable-background="new 0 0 297.64 297.64" viewBox="0 0 297.64 297.64" xmlns="http://www.w3.org/2000/svg"><g clip-rule="evenodd" fill-rule="evenodd"><path d="m178.92 47.61c-3.6-11.64-11.08-19.54-18.42-22.4-9.1-4.51-18.49 1.81-18.49 1.81-2.62-1.12-5.04-.5-7.88 1.6-14 8.42-24.18 47.78 4.35 54.6.42.1 2.81.55 3.6.66 3.98.49 2.54.35 6.28.56 5.09.28 11.38-2.58 12-2.72 18.75-4.28 22.6-21.08 18.56-34.11z" fill="#978771"/><path d="m105.9 100.7s19.19-10.61 22.06-11.75c7.99-3.16 8.89-3.62 15.08-4.96s14.57-1.47 20.91-2.76c5.61-1.14 12.08-3.69 17.93-5.16 6.38-1.61 8.93-1.67 8.93-1.67s-7.12 3.71-9.07 5.16c-2.62 1.95-9.21 8.44-9.21 8.44s-6.94 5.64-7.81 9.84c-1.12 5.37 3.02 11.58 7.67 11.37 4.18-.19 11.59-8.51 11.93-7.67 1.9 4.65.22 13.46-3.07 19.4-1.47 2.65-3.84 4.67-6.63 7.6-.43 5.74-1.55 17.12-5.65 16.4-13.33-2.37-30.64 1.52-42 9.14-1.67-5.4-8.34-6.29-6.07-15.28-5.87-5.88.52-14.6.7-22.26-2.3-4.85-12.35-13.75-15.7-15.84z" fill="#bbe4f9"/><path d="m160.12 81.27s-3.21 2.06-9.1 2.76c-5.99.71-9.28-.94-9.28-.94s-4.73 1.3-6.38 2.62c0 0 3.72 8.17 6.94 11.2.39.37.9 1.27 1.43 1.33s1.49-.26 1.85-.66c.61-.67.34-.23 1.05-1.01-.58 3.18-.22 6.94.03 8.83.65 4.8-.7 5.27-.7 5.27 2.27 2.72 7.19-1.67 7.19-1.67s1.05-2.2.8-7.15c-.11-2.25-.29-3.3-.14-5.58.66.82.32.46.94 1.22.38.47 1.39.69 1.99.59s1.77-1.32 2.16-1.78c3.74-4.37 5.34-15.17 5.34-15.17-1.17-.3-4.12.14-4.12.14z" fill="#fff"/><path d="m112.7 96.53-2.21 1.14c3.23 2.73 5.88 5.5 8.31 8.28l2.59-.42c-2.55-3.07-5.15-6.14-8.69-9z" fill="#fff"/><path d="m175.2 78.18-2.2 8.82 2.62-1.49 1.77-7.85z" fill="#fff"/><path d="m116.1 94.91-2.32 1.02c3.62 2.76 6.97 6.33 9.77 9.5.49.56 3.4.06 2.85-.56-3.11-3.47-6.42-6.84-10.3-9.96z" fill="#fff"/><path d="m178.3 77.34-1.64 7.41 2.08-.91 1.88-7.11z" fill="#fff"/><path d="m175.71 57.03c-.51-.4-1.16-.91-1.88-.77-1.33 3.28-4.8 2.53-6 1.26-.92-.98-.77-1.88-.49-3-1.36.7-3.24.3-3.55-1.42-.12-.66-.18-1.34-.22-2.03-.78.31-1.79 1.19-2.51.31-.48-.59-.68-2.19-.79-2.84-1.51 1.37-2.63 1.23-3.81-1.44-.02-.05.28-.88.27-.95-.01.01-.32.78-.33.79-1.04.79-2.63.26-3.38-.76-.12.17-.27.3-.36.44-1.86 2.68-2.89.72-3.46-.88-.52.15-1.71.29-2.19.12-.04.09-.08.18-.11.27-.64 1.66-2.3 3.1-4.04 1-1.81 3.07-3.62.7-3.9-1.08-.71 1.6-1.49 3.69-2.93 4.64-.51.34-1.11 0-1.6-.07-.3.67-.43 1.33-.63 2.07-.54 1.91-2.72 2.22-4.01 1.27-.09.42-.33.7-.38 1.13-.25 2.16-1.66 3.7-3.07 2.93-.31.06-1.99-1.17-2.23-.98-1.27 1-1.58 4.1 0 6.07.95 1.19 2.67 2.32 3.77 2.51 2.22 7.86 7.05 14.19 13.67 16.88l1.74 5.3c1.11 4.4 10.55 7.08 13.26.35l1.47-5.58c6.76-2.79 11.98-9.39 14.09-17.51.95-.32 2.49-1.71 3.28-2.72 1.53-2 1.61-4.32.32-5.31z" fill="#ffe7cc"/><path d="m126.24 164.2c.2 5.03.84 15.47 1.75 26.33 2.24 26.78 7.55 60.54 7.59 71.25-4.17 4.37-11.13 14.24-11.13 14.24-.17.51-3.43.75-2.16 2.77-1.04 1.02.38 3.07 1.95 2.08.1 1.29 1.86 2.35 2.73 1.49.39 1.23 2.51 2.13 3.32 1.16.83 1.38 7.6.32 6.96-3.96 1.17-3.47 1.05-4.01 3.64-7.59 2.49-3.1 6.89-6.23 2.95-10.19 3.15-27.17 4.68-54.78 4.8-86.07-5.63-5.19-15.81-9.49-22.4-11.51z" fill="#ffe7cc"/><path d="m174.18 276.01s-6.32-10.09-10.49-14.46c.39-14.18 7.86-78.21 7.9-96.82-6.59 2.02-15.97 5.1-21.59 10.28-.12 31.36 2.45 61.07 5.71 86.11-.24 2.14-2.98 5.39 2.86 10.4 2.58 3.57 2.21 5.01 3.39 8.48-.65 4.28 5.57 4.87 6.4 3.5.81.96 2.93.07 3.32-1.16.86.86 2.63-.2 2.73-1.49 1.57.99 2.99-1.06 1.95-2.08 1.25-2.01-2-2.25-2.18-2.76z" fill="#ffe7cc"/><path d="m206.6 72.7c-1.36-.79-8.21-1.22-9.35-.98-7.79 1.66-16 6.77-25.02 16.05-1.22 1.57-8.25 3.8-7.63 13.12.05.71.05 1.87.37 2.56-5.35 2.14-7.93 16.56-12.46 18.22-3.88 1.43-8.05-.05-10.92-1.58l.22-.23-5.16-4.07-6.54-6.92c1.11.5 7.25-.27 4.18-4.49-.23-.31-1.34.56-3.06.91-2.79.56-11.1.71-11.1.71l-7.03.42s-2.29-2.51-3.21-3.21c-.91-.69-4.14-2.33-4.14-2.33s-6.77 3.75-12.48 9.03c-8.86 8.18-3.65 15.62 4.8 16.02 6.21.29 14.43-4.77 18.69-8.22 1.6 4.25 6.36 4.48 9.44 7.27-.86 13.17.39 24.6 1 33.92 12.91 6.09 28.86 4.3 42.81-2.61 1.06-12.44 1.14-26.59 2.68-47.04.78-.18 1.63-.84 1.95-1.67-.04.61 3.66.41 3.26-2.28 1.13.6 3.35-.74 2.6-2.23 1.28.88 3.36-.96 3.3-2.6-.03-.94.85-5.52.28-5.86-.91-.53-1.02-1.61-1.72-.74.97-1.38.21 1.23.65-.79 3.55-.76 5.8-.94 18.37-3.81 4.29-.98 6.91-4.07 7.86-6 1.52-3.08 2.2-7.75-2.64-10.57zm-78.14 50.13c-.52-.83-1.26-1.81-2.31-2.98.3.34 1.57 1.73 2.92 2.65z" fill="#ffe7cc"/><path d="m150.23 98.85c.38-.01.69-.52.68-1.14s-.33-1.12-.71-1.12c-.38.01-.69.52-.68 1.14s.33 1.12.71 1.12z" fill="#203756"/><path d="m150.05 106.71c-.38-.04-.74.44-.8 1.06s.2 1.16.58 1.19c.38.04.74-.44.8-1.06.06-.61-.2-1.15-.58-1.19z" fill="#203756"/><path d="m150.2 101.63c-.38.01-.68.52-.67 1.14s.33 1.12.71 1.12c.38-.01.68-.52.67-1.14-.01-.63-.33-1.13-.71-1.12z" fill="#203756"/></g><path d="m223.42 137.81-8.35-24.76c-.41-1.22-1.73-1.87-2.95-1.46-.37.12-.68.34-.93.6-.3.25-.54.58-.69.97l-9.05 24.81c-.44 1.21.18 2.54 1.39 2.98.26.1.53.14.8.14.95 0 1.84-.59 2.18-1.53l4.46-12.23.45 44.53c.01 1.28 1.05 2.3 2.32 2.3h.02c1.28-.01 2.31-1.06 2.3-2.35l-.45-44.62 4.08 12.09c.33.97 1.23 1.58 2.2 1.58.25 0 .5-.04.74-.12 1.24-.39 1.89-1.71 1.48-2.93z" fill="#63b15a"/><path clip-rule="evenodd" d="m126.95 154.97c8.84 3.94 32.25 3.57 43.5-.56.62 3.04 1.63 9.24 1.02 14.12-7.12 3.01-16.15 7.56-19.92 13.31-.9 1.37-3.22 1.86-4.75-.18-4.96-6.61-13-10.75-20.9-13.84-.24-3.58.6-9.24 1.05-12.85z" fill="#fff" fill-rule="evenodd"/><path clip-rule="evenodd" d="m142.78 70.06c3.93 8 10.96 7.02 14.63-.39 0-.01-6.96 2.29-14.63.39z" fill="#fff" fill-rule="evenodd"/><path clip-rule="evenodd" d="m172.33 71.39c-.04 1.71-4.31 7.25-5.17 7.91 2.76-1.03 5.64-6.54 5.17-7.91z" fill="#c9b49a" fill-rule="evenodd"/><path clip-rule="evenodd" d="m168.75 74.36c-.18 1.18-3.53 5.04-4.17 5.51 1.95-.74 4.37-4.57 4.17-5.51z" fill="#c9b49a" fill-rule="evenodd"/><path clip-rule="evenodd" d="m128.08 72.85c-.45 1.28 2.28 6.45 4.93 7.41-.83-.62-4.9-5.8-4.93-7.41z" fill="#c9b49a" fill-rule="evenodd"/><path clip-rule="evenodd" d="m131.85 75.85c-.3.96 1.89 4.71 3.88 5.35-.63-.44-3.8-4.17-3.88-5.35z" fill="#c9b49a" fill-rule="evenodd"/><path clip-rule="evenodd" d="m138.31 37.57c.77-9.48 14.79-10.11 18.97-11.17-6.29-3.1-18.72 1.33-18.97 11.17z" fill="#c9b49a" fill-rule="evenodd"/><path clip-rule="evenodd" d="m139.34 27.99c-8.16.8-12.68 11.21-12.64 17.18 1.06-8.21 7.72-15.59 12.64-17.18z" fill="#c9b49a" fill-rule="evenodd"/><path clip-rule="evenodd" d="m159.4 25.98c.87.66 5.17 6.16 5.23 7.87.46-1.37-2.46-6.85-5.23-7.87z" fill="#c9b49a" fill-rule="evenodd"/><path clip-rule="evenodd" d="m171.17 43.02c.46-1.37-2.78-12.21-7.84-15 .86.65 6.21 7.27 7.84 15z" fill="#c9b49a" fill-rule="evenodd"/><path d="m149.77 149.22c.11-.25 0-.55-.25-.66s-.55 0-.66.25c-.27.61-.27 2.03.24 2.51.1.09.23.14.36.14s.26-.05.36-.15c.19-.2.19-.51-.01-.7-.13-.19-.2-1.05-.04-1.39z" fill="#010101"/><path d="m139.26 222.92c-.26-.1-.55.03-.65.28-.41 1.04-1.21 1.63-2.11 1.6-.97-.04-1.8-.74-2.12-1.79-.08-.26-.36-.41-.62-.33s-.41.36-.33.62c.44 1.44 1.66 2.44 3.04 2.5h.12c1.31 0 2.41-.83 2.96-2.24.1-.25-.03-.54-.29-.64z" fill="#010101"/><path d="m162.17 225.77h.12c1.38-.05 2.6-1.06 3.04-2.5.08-.26-.07-.54-.33-.62s-.54.07-.62.33c-.32 1.05-1.15 1.75-2.12 1.79-.92.03-1.71-.56-2.12-1.6-.1-.26-.39-.39-.65-.28-.26.1-.38.39-.28.65.55 1.4 1.65 2.23 2.96 2.23z" fill="#010101"/><path d="m150.25 99.85c.34 0 .68-.13.96-.38.39-.34.72-1 .7-1.78-.01-.78-.35-1.43-.75-1.76-.29-.24-.62-.35-.97-.35-.34.01-.68.13-.96.38-.39.34-.72 1-.7 1.78.01.78.35 1.43.75 1.76.29.24.62.35.97.35zm-.05-3.26c.38-.01.7.5.71 1.12s-.29 1.13-.68 1.14c-.38.01-.7-.5-.71-1.12 0-.63.3-1.14.68-1.14z" fill="#010101"/><path d="m149.74 109.96c.34.03.69-.06.99-.27.43-.3.82-.91.9-1.69.07-.78-.19-1.46-.56-1.83-.26-.27-.58-.42-.93-.45-.34-.03-.69.05-.99.27-.43.3-.82.91-.9 1.69s.19 1.46.56 1.83c.27.26.59.42.93.45zm.31-3.25c.38.04.64.57.58 1.19s-.42 1.1-.8 1.06-.64-.57-.58-1.19.42-1.09.8-1.06z" fill="#010101"/><path d="m150.26 104.89c.34-.01.68-.13.96-.38.39-.34.71-1 .69-1.78-.01-.78-.36-1.43-.76-1.75-.29-.24-.63-.35-.97-.34s-.68.13-.96.38c-.39.34-.71 1-.69 1.78.01.78.36 1.42.76 1.75.29.23.62.34.97.34zm-.06-3.26c.38-.01.7.49.71 1.12.01.62-.29 1.14-.67 1.14-.38.01-.7-.49-.71-1.12-.02-.62.28-1.14.67-1.14z" fill="#010101"/><path d="m158.48 70.2c.22-.43.15-.95-.17-1.32s-.82-.5-1.28-.35c0 0-2.89.95-6.95 1.07-2.1.07-4.52-.09-7.01-.7-.45-.11-.93.05-1.22.41s-.35.86-.14 1.28c2.24 4.55 5.45 6.43 8.54 6.25 3.05-.18 6.16-2.45 8.23-6.64zm-15.7-.14c7.68 1.9 14.63-.4 14.63-.4-1.83 3.71-4.51 5.8-7.22 5.98-2.71.17-5.45-1.58-7.41-5.58z" fill="#010101"/><path d="m147.58 66.58c.33.05.63-.17.68-.5.17-1.09 1.06-1.66 1.97-1.69.89-.03 1.8.48 1.99 1.58.06.33.37.55.69.49.33-.06.54-.37.49-.69-.31-1.78-1.77-2.62-3.22-2.57-1.43.05-2.85.98-3.11 2.71-.04.32.18.62.51.67z" fill="#010101"/><path d="m143.52 58.24c0-.38-.14-.72-.36-1 .24.02.5.04.77.08.33.04.63-.19.68-.51.05-.33-.18-.63-.51-.68-1.33-.18-2.4-.14-3.33.23s-1.75 1.05-2.54 2.21c-.19.27-.12.65.15.83.27.19.65.12.83-.15.35-.51.71-.91 1.08-1.21-.01.07-.02.13-.02.2 0 .89.73 1.61 1.63 1.61.89 0 1.62-.72 1.62-1.61z" fill="#010101"/><path d="m157.81 56.36c-.93-.37-2-.41-3.33-.23-.33.04-.56.35-.51.68s.35.56.68.51c.27-.04.52-.06.77-.08-.22.28-.36.62-.36 1 0 .89.73 1.61 1.63 1.61s1.63-.72 1.63-1.61c0-.07-.01-.13-.02-.2.37.31.72.7 1.08 1.21.19.27.56.34.83.15s.34-.56.15-.83c-.8-1.16-1.61-1.85-2.55-2.21z" fill="#010101"/><path d="m145.24 51.96c.33 0 .6-.27.6-.6s-.27-.6-.6-.6c-1.98 0-3.61.4-4.91.95-2.8 1.17-4.1 3-4.1 3-.19.27-.13.64.14.84.27.19.64.13.84-.14 0 0 1.15-1.57 3.59-2.59 1.17-.5 2.65-.86 4.44-.86z" fill="#010101"/><path d="m153.49 51.95c1.79-.06 3.28.25 4.48.7 2.47.93 3.68 2.46 3.68 2.46.2.26.58.31.84.11s.31-.58.11-.84c0 0-1.36-1.78-4.2-2.85-1.32-.5-2.97-.85-4.95-.78-.33.01-.59.29-.58.62s.29.59.62.58z" fill="#010101"/><path d="m168.3 52.17c.23-.67.22-1.21.22-1.21s-.1.49-.22 1.21z" fill="#010101"/><path d="m267.09 246.66-100.83.06c2-22.67 6.13-61.13 6.75-78.32-.01 0-.01 0-.02.01.55-4.99-.44-11.22-1.07-14.3-.09-.43-.36-.8-.74-1.01-.05-.03-.11-.05-.17-.07.21-2.89.39-5.9.55-9.11.37-.43.71-.95 1.01-1.58 1.56-3.27 2.39-9.4 2.73-13.59 2.76-2.94 5.47-6.26 6.92-8.88 3.52-6.36 4.55-14.51 2.52-19.49-.06-.15-.14-.28-.21-.41.05-1 .41-3.42.31-4.57-.08-.97-.56-1.53-.92-1.75 2.92-.56 5.94-1.01 16.82-3.5 4.88-1.12 7.64-3.93 8.72-6.12 1.05-2.15 1.91-4.75 1.27-7.18-.45-1.71-1.58-3.39-3.96-4.77-.52-.3-1.56-.57-2.82-.7-2.48-.27-5.91-.17-6.77.01-2.06.44-4.1 1.05-6.16 1.88-2.16.33-5.72.96-9.68 1.96-2.98.75-6.17 1.75-9.33 2.7 2.11-1.83 3.84-3.89 5.16-6.13 4.38-7.39 4.69-16.57 2.26-24.44-3-9.69-8.08-16.49-13.89-20.37-1.47-.98-2.99-1.77-4.54-2.39-.85-.42-1.7-.75-2.54-1.01-7.38-2.27-14.19 1.26-16.33 2.55-2.37-.75-4.9-.38-7.45 1.05-.5.28-.99.61-1.49.97-1 .6-1.97 1.33-2.91 2.19-5.88 5.38-10.43 15.69-10.92 25.94-.34 7.11 1.28 14.17 5.63 19.56 2.82 3.5 6.81 6.3 12.17 7.97-2.5.75-4.77 1.68-9.81 3.67-2.9 1.14-21.52 11.63-21.52 11.63-.45.26-.72.73-.75 1.24-2.58 1.56-8.1 5.08-12.35 9-5.58 5.15-5.16 9.36-4.42 11.41 1.25 3.42 4.96 5.68 9.69 5.91 6.2.3 14.16-4.5 18.44-7.79.7 1.3 1.71 2.19 2.82 2.91-.45 2.03-.98 4.06-1.31 6.02-.67 4.01-.49 7.77 2.27 10.97-.56 2.68-.35 4.59.23 6.08.64 1.65 1.74 2.81 2.93 3.93.88.82 1.83 1.61 2.5 2.72.05.7.1 1.41.15 2.1 0 .05.01.09.01.14-.33.24-.56.6-.62 1.02-.47 3.69-1.31 9.48-1.05 13.15.03.42.24.8.55 1.05.31 5.58.84 13.5 1.52 21.66 1.56 18.72 4.63 40.84 6.35 56.1l-99 .06c-.41 0-.75.34-.75.75s.34.75.75.75l99.16-.06c.6 5.47 1 9.96 1.06 12.94-3.9 4.23-9.77 12.44-10.72 13.77-.3.12-1.1.44-1.55.74-.6.4-1.03.92-1.21 1.55-.12.4-.15.88.01 1.42-.27.71-.21 1.5.11 2.2.47 1 1.48 1.8 2.69 1.78.45.61 1.09 1.1 1.77 1.33.42.14.83.2 1.24.17.59.58 1.38 1.03 2.17 1.19.58.12 1.14.09 1.64-.06.02.01.04.02.06.02.77.29 2 .37 3.29.11 2.68-.54 5.46-2.47 5.2-5.7 1-2.99.96-3.59 3.3-6.83 1.3-1.61 3.06-3.24 4.01-4.96.62-1.12.93-2.28.79-3.49-.11-1.01-.54-2.07-1.47-3.17.5-4.32.95-8.66 1.37-13.02h5.88c.49 4.41 1.01 8.72 1.55 12.88-.1.55-.35 1.16-.53 1.87-.27 1.06-.44 2.26-.17 3.62.34 1.68 1.36 3.67 3.96 5.93 2.27 3.18 2 4.59 2.97 7.62-.3 3.32 2.36 5.04 4.91 5.42 1.21.18 2.37.03 3.11-.3.49.15 1.04.17 1.61.05.79-.16 1.58-.6 2.17-1.19.4.03.82-.03 1.23-.17.68-.23 1.32-.72 1.77-1.33 1.21.02 2.22-.78 2.69-1.78.33-.7.39-1.49.11-2.2.16-.54.13-1.02.01-1.42-.18-.63-.61-1.16-1.21-1.55-.44-.29-1.21-.61-1.53-.73-.97-1.53-6.26-9.77-10.08-13.99.11-2.83.44-7.28.92-12.75l100.96-.06c.42 0 .75-.34.75-.75s-.29-.74-.7-.74zm-96.65-110.32c-.3 6.22-.57 11.74-.93 16.82-11.12 3.88-33.42 4.24-41.93.45 0-.03 0-.06-.01-.1-.59-7.86-1.22-16.69-.71-26.62.02.03.04.05.06.08.25.35.73.55 1.27.55.1 0 .21-.01.31-.02.74-.1 1.33-.57 1.58-1.24.24-.67.16-1.49-.26-2.47.65.28 1.3.4 1.89.25.47-.12 1.04-.45 1.42-1.29.17.07.36.15.56.23.01 0 .02.01.03.02s.03 0 .04.01c.43.17.92.33 1.39.42.86.16 1.74-.06 2.3-.6.2-.19.35-.41.45-.66.04.01.08.04.12.05.02 0 .04.01.05.01.8.33 1.88.61 2.83.27.43-.15.98-.49 1.37-1.2 2.92 1.38 6.8 2.45 10.5 1.09 2.3-.85 3.85-4.22 5.64-8.13 1.78-3.89 3.76-8.16 6.59-9.85 1.23 2.14 3.24 3.96 4.68 4.73.85.45 1.61.67 2.29.72-.73 10-1.16 18.73-1.53 26.48zm3.53-8.74c-.1.16-.13.34-.11.51-.27 3.55-.89 8.84-2.12 12.3.06-1.3.13-2.63.19-3.99.38-7.81.81-16.62 1.54-26.73.01 0 .02 0 .03-.01.66-.22 1.23-.63 1.68-1.19.52 0 1.14-.11 1.73-.35.36.68.56 1.39.59 2.16.04 1.22-.23 2.57-.69 4.14-.05.15.03.32.18.37s.32-.03.37-.18c.83-2.02 1.29-3.7 1.18-5.27-.05-.66-.23-1.29-.5-1.91.43-.36.78-.83.97-1.43.3-.07.6-.18.88-.31.59 3.51.82 11.59-5.92 21.89zm6.95-8.46c-.65 1.17-1.57 2.49-2.63 3.85 4.26-8.92 3.56-15.56 2.95-18.32.2-.24.37-.49.49-.77.47-.07.92-.25 1.32-.53.31-.21.58-.49.82-.82 1.13 4.67-.01 11.3-2.95 16.59zm16.59-46.29c1.14-.24 7.16-.27 8.52.52 4.84 2.82 3.61 6.93 2.1 10-.95 1.93-3.42 4.34-7.71 5.32-12.31 2.82-14.55 3.01-17.97 3.73-.06-.38-.15-.72-.27-1.01-.91-2.17-3.29-2.46-4.37-2.45-.21-.01-.4.16-.41.37s.16.4.37.41c.82.08 2.68.38 3.21 2.1.24.78.19 1.8-.3 3.19-.1.12-.77 1.85-1.36 2.9-.25.49-.05 1.09.45 1.34.49.25 1.09.05 1.34-.45.72-1.66 1.12-3.02 1.3-4.16.25.04.51.13.74.27.57.34-.08 4.42-.12 5.36-.11 2.69-2.64 1.93-2.62 1.98-.43-.17-.86-.44-1.26-.76-1.37-1.12-2.47-2.72-2.78-3.43-.07-.2-.29-.31-.49-.24s-.31.29-.24.49c.22.83 1.15 2.8 2.47 4.27.4.44.85.79 1.32 1.09.01.04 0 .08.02.12 0 .01.05.14.11.37-.38.26-.81.43-1.22.46-.89-.12-1.66-.42-2.33-.86-1.56-1.03-2.58-2.53-3.2-3.24-.13-.17-.37-.21-.54-.08s-.21.37-.08.55c.55.86 1.41 2.61 2.9 3.97.58.52 1.26.96 2.04 1.28-.74.77-1.8 1.06-2.68.91-.15-.03-.3-.03-.44-.09-.67-.29-1.25-1.01-1.86-1.55-1.12-1.01-2.03-2.22-2.18-3.06-.02-.21-.21-.37-.42-.35s-.37.21-.35.42c.02 1 .82 2.58 1.95 3.95.57.69 1.23 1.28 1.92 1.74-.69.25-1.58.16-2.69-.43-1.84-.98-4.8-3.88-4.99-6.79-.63-9.31 6.58-11.43 7.8-13 9.04-9.27 16.53-13.5 24.32-15.16zm-19.5-25.05c3.34 10.8 1.28 24.21-10.08 31.31-.44.12-.87.23-1.31.34.37-.35.76-.76 1.18-1.27 1.08-1.29 2.3-3.1 3.49-5.62.02-.04 0-.08-.03-.1-.04-.02-.08 0-.1.03-1.32 2.41-2.64 4.11-3.78 5.31-1 1.05-1.85 1.69-2.44 2.07-.56.13-1.12.26-1.67.37-.04.01-.08.01-.12.02 1.66-1.29 3.19-2.81 4.53-4.53 2.23-2.87 3.95-6.31 5.02-10.09.94-.46 1.88-1.19 2.66-2.19 1.04-1.33 1.58-2.83 1.64-4.12.06-1.44-.46-2.64-1.42-3.39-.32-.24-.67-.42-1.05-.54.45-1.59.78-3.66.72-6.13-.09-3.9-1.12-8.78-4.09-14.14-.6-1.09-1.23-2.08-1.86-3 3.61 3.82 6.66 9.05 8.71 15.67zm-30.56 57.67c-.19-1.45-.44-5.09-.28-8.14l3.36-3.71 2.46 3.03c-.09 1.87-.15 3.92-.07 5.5.25 4.95-.09 6.12-.09 6.12s-3.12 3.86-6.62 2.59c-.01-.02 1.88-.59 1.24-5.39zm-4.1-21.61c2.08.69 4.28 1.08 6.55 1.08 2.42 0 4.75-.43 6.95-1.2l-.93 3.51c-2.7 6.73-11 4.02-12.12-.37l-.76-2.96c.1-.02.21-.04.31-.06zm-15.95-24.76c.05-.01.11-.01.16-.02.5-.13 1.04-.46 1.49-1.16.44-.69.86-1.83 1.21-3.07.04.04.08.07.11.1.55.43 1.14.55 1.77.39.41-.11.91-.38 1.37-1.03.55-.78 1.01-1.76 1.36-2.76.18.06.36.09.55.1.58.03 1.42-.17 2.34-1.23.59-.68 1.1-1.47 1.54-2.28.03.06.06.12.09.17.54.97 1.33 1.22 2.04 1.11.42-.07.98-.31 1.47-1.06.05-.07.1-.15.14-.22.45.52 1 .78 1.57.82.5.03 1.1-.11 1.71-.67.51-.47.92-1.07 1.25-1.72.19.09.39.13.59.15.28.02.58-.01.89-.15.05.16.1.31.16.44.45 1.04 1.22 1.44 1.84 1.47.42.02.89-.09 1.37-.52.24-.21.46-.46.67-.74.13.21.27.39.42.53.43.43.92.63 1.4.65.46.02.97-.1 1.48-.54.22.71.49 1.28.76 1.58.42.47.91.65 1.4.66.37 0 .78-.09 1.19-.42.1.44.22.84.35 1.15.35.8.9 1.22 1.38 1.36.41.12.88.14 1.36-.11.16.94.41 1.8.75 2.4.4.7.93 1.14 1.52 1.33.4.13.83.16 1.31.03 0 .34.01.66.05.93.13.99.57 1.64 1.02 1.94.47.31 1.03.45 1.73.21.08-.03.15-.05.22-.08.04.07.09.14.13.2.43.54 1.13.99 2.33.54.14-.05.3-.14.47-.27-1.1 13.54-10.75 24.14-22.48 24.14-11.77-.01-21.46-10.72-22.48-24.35zm24.3 33.58c2.28-.41 4.4-1.87 5.61-4.88l.06-.18 1.21-4.58c.55-.25 1.08-.53 1.61-.82.83-.1 1.63-.22 2.42-.35.23.05.46.09.71.15 0 0-1.58 9.99-5.32 14.36-.39.46-.71.98-1.3 1.08-.6.1-1.2-.13-1.58-.6-1.12-1.35-2.48-3.02-3.42-4.18zm21.54-29.17c.43-2.06.7-4.2.72-6.42.03-.08.07-.17.1-.25.23.07.44.16.62.31 1.29.99 1.07 3.4-.49 5.39-.28.37-.61.68-.95.97zm-45.26-27.36c1.91-2.91 3.95-5.18 6-6.69 2.03-1.22 4.16-1.81 6.31-1.59-2.85 1.06-5.1 2.88-6.84 5.03-4.76 5.84-5.82 13.9-5.82 13.9-.01.05.03.1.08.11s.1-.03.11-.08c0 0 1.24-7.91 6.08-13.55 1.7-1.98 3.85-3.66 6.55-4.62-1.2 1.28-2.07 2.64-2.7 3.94-1.72 3.6-1.58 6.79-1.58 6.79 0 .06.05.1.1.1s.1-.05.1-.1c0 0 .01-3.11 1.85-6.55.83-1.56 2.06-3.17 3.84-4.6.02.01.04.01.06.02 4.29-3.02 9.14-4.14 13.92-3.44 1.42.7 2.69 1.88 3.78 3.63 1.47 2.35 2.61 5.68 3.36 10.15.01.05.05.08.1.07s.08-.05.07-.1c-.58-4.56-1.63-7.98-3.03-10.42-.7-1.23-1.51-2.19-2.38-2.95.63.16 1.25.34 1.87.56.02.03.03.06.06.09 0 0 4.2 3.16 7.12 8.59 1.6 2.98 2.8 6.63 2.74 10.83 0 .05.04.09.08.09.05 0 .09-.04.09-.08.2-4.26-.92-8-2.45-11.07-1.48-2.97-3.34-5.29-4.78-6.85 2.51 1.78 4.97 4.5 7.21 8.53 6.74 12.17 3.04 21.71 1.51 22.29s-.26-2.68-.26-2.68-.68 1.43-2.38 2.01c-1.25.43-.78-3.33-.44-5.33-.26.76-.84 1.68-2.11 2.17-2.38.9-2.1-6.79-2.1-6.79s-.39 1.81-1.74 3.06-1.63-5.09-1.63-5.09-.47 1.69-1.85 2.94c-.85.77-1.31-1.74-1.53-3.77.2-.92.32-1.8.36-2.65.06-1.28-.04-2.47-.23-3.55-.01-.05-.06-.09-.11-.08s-.09.06-.08.11c.09 1.07.08 2.24-.09 3.48-.15 1.07-.43 2.18-.87 3.33-.01.04-.01.07-.01.11-.23.51-.52.98-.88 1.3-1.31 1.15-2.11-3.6-2.11-3.6s-.62 2.59-1.87 3.71-1.59-4.97-1.59-4.97-.3 2.37-1.24 3.22c-.94.86-1.48-2.68-1.48-2.68s-.21 3.31-1.81 4.77-2.14-3.19-2.14-3.19-.01.07-.02.17c-.09-.65-.15-1.29-.18-1.92-.07-1.51-.01-2.95.17-4.32 0-.02-.01-.04-.03-.04s-.03.01-.04.03c-.3 1.36-.5 2.81-.56 4.33-.04 1.12.01 2.28.14 3.48-.23.51-.54 1.12-1 1.82-1.45 2.18-1.84-4.97-1.84-4.97s-.99 4.34-3.18 6.87c-2.2 2.53-2.21-2.42-2.21-2.42s-.54 4.19-2.12 6.42c-1.58 2.22-2.41-4.16-2.41-4.16s-.88 5.94-2.09 7.83c-1.22 1.9-3.04-1.64-3-3.07.04-3.31-.8-11.9 3.15-17.91zm-2.45 22.49c.13.1.27.17.4.23.12 1.93.43 3.8.87 5.61-.57-.36-1.12-.83-1.6-1.43-1.57-1.95-1.82-4.35-.57-5.36.28.39.58.72.9.95zm11.61 23.6c-.01-.01-.03-.02-.04-.03-1.84-.64-3.22-1.85-4.24-3.13-1.83-2.31-2.49-4.85-2.49-4.85 0-.02-.02-.03-.04-.02-.02 0-.03.02-.02.04 0 0 .5 2.62 2.19 5.1.35.52.78 1.02 1.25 1.5-14.52-7.12-15.09-24.92-9.88-37.94-.83 4.51-.51 8.93-.57 11.09-.02.62.2 1.53.58 2.4-.05.04-.12.06-.17.1-.95.75-1.46 1.97-1.38 3.4.07 1.29.63 2.78 1.69 4.1.96 1.2 2.15 2 3.29 2.41 1.07 3.48 2.7 6.65 4.78 9.32 2.41 3.1 5.4 5.54 8.76 7.14-.28.06-.55.13-.81.19.01 0 .02-.01.03-.01-1.02-.23-2-.51-2.93-.81zm-.48 3.31c1.47-.48 2.9-.86 4.91-1.31l.77 3c.7 2.79 3.69 5.1 6.94 5.5-.54.6-3.48 3.85-3.9 4.31-.36.4-.89.6-1.42.54s-.89-.46-1.28-.82c-3.22-3.03-6.41-10.92-6.41-10.92.13-.1.26-.2.39-.3zm-8.72 3.34c3.13-1.24 5.16-2.06 6.86-2.68l.09.21s1.49 3.69 3.48 7.05c1.01 1.71 2.16 3.33 3.3 4.4.38.35.75.71 1.18.93.3.15.62.26.98.29.5.05 1.01-.02 1.47-.19.12-.05.23-.12.34-.18-.04 2.78.17 5.68.34 6.95.21 1.59.13 2.62-.09 3.28-.1.31-.29.53-.29.53s-1.81 1.17-1.93 1.4c-.37.73 2.55 1.46 2.55 1.46-.18 0 3.08.2 4.52-.53 1.95-.99 3.27-2.62 3.27-2.62.12-.15.22-.33.27-.52 0 0 .42-1.26.16-6.62-.06-1.11-.04-2.46 0-3.8.27.22.55.4.87.52.52.2 1.08.26 1.65.16.41-.07.76-.22 1.07-.43.42-.29.76-.72 1.12-1.15 1.3-1.52 2.37-3.64 3.21-5.85 1.7-4.48 2.46-9.26 2.46-9.26l.13-.84c5.31-1.22 11.4-3.37 16.79-4.73 1.54-.39 3.01-.72 4.36-1-4.39 2.52-8.95 6.13-13.96 11.28-.04.04-.07.08-.11.12-.31.4-1.11.8-2.02 1.43-2.05 1.44-4.64 3.63-5.68 7.59-.97-.11-2.07-.02-3.3.53-.15.06-.23.22-.17.38.06.15.23.23.38.17 1.11-.33 2.06-.31 2.89-.11-.17.92-.26 1.93-.24 3.04-.58.07-1.18.2-1.8.41-1.54.53-3.14 1.51-4.51 3.33-.1.12-.08.31.04.41s.31.08.41-.04c1.39-1.55 2.91-2.34 4.35-2.7.54-.14 1.06-.2 1.56-.23.06.58.21 1.16.42 1.73-3.27 1.87-5.39 6.44-7.3 10.6-1.58 3.45-3.08 6.72-4.79 7.35-3.2 1.18-6.67.2-9.33-1.05.02-.25-.08-.5-.29-.66-.45-.33-.9-.69-1.35-1.04 1.81.51 3.35.63 4.64.49 4.12-.46 5.9-3.42 6.71-4.14.12-.1.14-.29.03-.41s-.29-.14-.41-.04c-.79.64-2.55 3.39-6.42 3.64-2.06.13-4.73-.49-8.15-2.46-1.92-1.66-3.82-3.46-5.73-5.43.72-.11 1.47-.37 2.12-.74.71.02 1.31.11 1.8.27 1.23.39 1.87 1.1 2.43 1.69.6.64 1.13 1.15 2.02 1.17.16.01.3-.11.31-.27s-.11-.3-.27-.31c-.69-.08-1.05-.55-1.48-1.09-.59-.73-1.27-1.59-2.65-2.16-.29-.12-.61-.22-.97-.3.58-.8 1.02-2.19-.37-4.2-.21-.31-.63-.41-.96-.24-.03.01-2.89 1.49-5.37 1.35-.67-.03-2.23.01-4.05.09.1-.87.75-2.13 1.56-3.46 1.33-2.18 3.12-4.47 4.13-5.54.11-.11.12-.3 0-.41s-.3-.12-.41 0c-1.29 1.17-3.78 3.92-5.34 6.31-.78 1.2-1.27 2.32-1.39 3.17-.31.02-.62.03-.94.05-.05-.24-.11-.5-.17-.78-.16-.72-.31-1.59-.04-2.61.25-.97.83-2.07 2.05-3.31.12-.11.13-.29.02-.41s-.29-.13-.41-.02c-1.49 1.22-2.25 2.38-2.65 3.42-.57 1.52-.33 2.81-.24 3.78-2.87.16-5.42.33-5.51.33-.5.06-1.02.13-1.54.19-2.47-2.54-5.03-4.65-7.04-5.42 0 .02 18.45-10.39 21.33-11.52zm-7.28 33.71c.42.22.84.43 1.27.64.84.41 1.66.82 2.43 1.3-2.74 4.37-3.57 9.28-3.82 12.1-2.51-4.07-1.02-9.03.12-14.04zm1.02 16.87c.16-.14.26-.34.25-.56 0-.08-.08-7.22 3.49-13.22-.51 8.54-.16 16.25.32 23.25-2.28-2.31-5.1-3.87-4.06-9.47zm.9-17.58c-1.58-.77-3.09-1.52-4.15-2.78-.24-.29-1.24-1.24-1.17-4.02.03-1.19.55-2.21.84-2.7.13-.17.09-.42-.08-.54-.17-.13-.42-.09-.54.08-.52.57-1.4 1.94-1.74 3.55-.14.68-.15 1.4-.02 2.12-4.05 3.15-11.72 7.89-17.61 7.6-4.05-.19-7.33-2.12-8.35-4.92-1.07-2.94.36-6.42 4.02-9.8 4.13-3.81 9.48-7.23 12.03-8.78.08.05.16.1.25.14 1.66.63 3.69 2.27 5.73 4.28-1.65.26-3.31.58-4.82.96-2.26.57-4.17 1.27-5.21 2.08-.13.09-.16.28-.06.41.09.13.28.16.41.06 1.03-.7 2.89-1.23 5.07-1.63 2.27-.42 4.88-.67 7.28-.81.06.01.12.04.19.03.11-.01 11.21-.84 13.83-.7 2.15.11 4.43-.75 5.51-1.22.67 1.28.13 1.87-.07 2.08-.95 1.03-3.04 1.19-3.43.97-.32-.21-.74-.14-.98.15s-.23.72.03.99c3.86 4.14 7.68 7.6 11.66 10.56-.04.06-.08.12-.11.19-.19.59-.44.76-.64.83-.32.11-.72.2-1.12.09-1.39-.1-3.01-1.77-4.35-2.7-1.29-.9-2.51-1.93-3.08-2.81-.08-.14-.26-.2-.4-.12s-.2.26-.12.4c.45 1.03 1.56 2.36 2.78 3.53.8.77 1.64 1.45 2.39 1.95-.03.19-.11.28-.15.32-.2.19-2.74 1.16-7.26-4.52-.03-.15-.19-.25-.35-.22s-.26.18-.23.34c.09.8.72 1.76 1.55 2.68.55.62 1.18 1.2 1.79 1.7-.1.39-.27.79-.57.87-.96.25-3.06-1.52-4.39-2.96-.1-.11-.2-.23-.31-.35-.27-.31-.74-.33-1.05-.06s-.34.74-.07 1.05c.08.09.19.22.33.37 3.55 4.04 2.8 5.15 2.77 5.2-.13.18-.41.19-.54.16-1.41-2.1-3.48-3.12-5.49-4.1zm3.33 45.94c-.25-3.59.59-9.25 1.04-12.85 8.84 3.95 32.25 3.57 43.5-.56.62 3.04 1.63 9.24 1.02 14.11-7.11 3.01-16.15 7.56-19.92 13.31-.9 1.37-3.22 1.86-4.75-.18-4.95-6.61-12.99-10.74-20.89-13.83zm14.97 104.13c-2.58 3.57-2.46 4.12-3.64 7.59.55 3.64-4.25 4.94-6.22 4.4-.01-.03-.02-.06-.04-.09-.7-.83-.89-1.46-.76-2 .12-.51.49-.92.89-1.27.26-.01.52.05.73.14.32.13.57.31.68.4.09.07.17.1.2.11h.02l.06-.01c.36-.1.59-.25.75-.47.15-.2.23-.47.27-.81l-.08.07c.05-.07.08-.16.02-.26-.07-.14-.25-.41-.56-.58-.15-.08-.34-.13-.56-.12.01-.03.02-.06.02-.1 0-.11-.08-.2-.19-.2s-.2.08-.2.19c-.01.09-.08.17-.18.26-.21.19-.53.38-.87.6-.7.45-1.46 1.02-1.74 1.84-.2.58-.16 1.28.3 2.17-.71.25-1.71-.1-2.33-.72 0-.05 0-.1-.02-.14-.33-.8-.33-1.36-.13-1.8.14-.29.35-.53.58-.75.12 0 .4.01.67.13.18.08.35.22.45.45.01.02.04.03.05.05s0 .04.01.06c.06.09.18.11.27.04.59-.4.77-.91.69-1.29-.07-.34-.35-.62-.81-.7.09-.15.17-.3.2-.47.03-.1-.04-.21-.14-.23-.1-.03-.21.04-.24.14-.14.45-.6.7-1.07 1.01-.5.32-1 .68-1.33 1.21-.27.45-.4 1.04-.28 1.83-.59.09-1.27-.25-1.71-.79 0-.04.01-.08 0-.12-.22-.76-.19-1.32 0-1.76.07-.15.15-.28.25-.41.05-.01.41-.07.78.03.2.05.41.16.54.37 0 .03.01.07.03.1.07.08.19.09.27.03.02-.02.03-.04.05-.05.53-.45.66-.95.54-1.3-.1-.27-.36-.47-.75-.53.18-.19.31-.37.33-.58.02-.11-.05-.21-.16-.22-.11-.02-.21.05-.22.16-.03.11-.11.2-.22.3-.16.14-.37.26-.6.4-.53.32-1.13.72-1.51 1.36-.23.39-.37.88-.37 1.5-1.18.19-2.06-1.18-1.5-2.09.06-.07.12-.14.18-.21h.01s.51-.03.94.09c.17.05.33.13.41.26.08.12.24.15.36.07.07-.05.1-.12.1-.21.48-.42.43-.85.17-1.13-.02-.03-.06-.04-.09-.07.37-.07.67-.11.85-.22.2-.12.32-.28.28-.56-.01-.11-.1-.19-.21-.18s-.19.1-.18.21c0 .17-.15.16-.35.17-.45.03-1.11-.01-1.82.23-.25.08-.5.2-.74.36.1-1.17 2.3-1.41 2.44-1.83 0 0 6.23-8.82 10.43-13.48.46-.14 1.15-.23 1.89-.2.77.03 1.57.14 2.18.4.14.08.32.02.4-.12s.02-.32-.12-.39c-.62-.42-1.47-.72-2.31-.92-.46-.11-.92-.17-1.34-.2-.24-11.37-5.39-44.32-7.58-70.57-.65-7.78-1.16-15.33-1.48-20.84 7.26 2.93 14.54 6.81 19.1 12.88.87 1.16 1.91 1.76 2.94 1.94-.36 27.72-1.88 52.68-4.73 77.27 3.93 3.94-.47 7.07-2.95 10.17zm-9.22 8.19c.07-.05.13-.1.19-.15.23-.18.43-.35.57-.52.25-.06.44-.02.59.06.21.12.32.31.37.41-.03.23-.09.4-.19.54-.09.12-.22.19-.4.25-.14-.11-.42-.32-.77-.47-.1-.05-.23-.08-.36-.12zm-3.33-.12c.08-.06.16-.13.24-.19.07-.06.14-.13.21-.19h.01c.43-.09.74.03.81.29.05.2-.03.43-.24.66-.13-.18-.28-.32-.45-.41-.2-.1-.4-.14-.58-.16zm-3.05-.92c.16-.15.32-.28.48-.4.02 0 .04.02.07.01.44-.13.77-.07.87.17.07.18.01.4-.18.64-.16-.16-.34-.29-.54-.35-.25-.07-.49-.08-.7-.07zm-2.55-.72c.13-.09.26-.18.39-.24.03 0 .05.02.08.01.32-.1.61-.07.76.06.12.11.09.28-.08.47-.15-.11-.32-.21-.52-.25-.23-.04-.44-.05-.63-.05zm24.16-31.65c1.13-12.19 1.96-24.58 2.5-37.46.71 13.11 1.8 25.67 3.09 37.45zm13 16.27c.08.14.25.19.4.12.75-.31 1.69-.69 2.55-.91.55-.14 1.05-.21 1.39-.08h.02c4.15 4.62 9.95 13.88 9.95 13.88.15.45 2.69.69 2.43 2.12-.15-.07-.3-.15-.46-.2-.67-.19-1.42-.18-1.93-.28-.22-.05-.41-.07-.41-.25.01-.11-.07-.2-.18-.21s-.2.07-.21.18c-.03.22.05.39.2.53.2.19.58.3 1.02.41-.05.04-.1.08-.13.13-.14.24-.12.59.34.95.01.01.02 0 .04.01 0 .03 0 .07.02.1.08.12.24.16.35.08.2-.14.46-.23.7-.3.19-.05.37-.08.51-.1.02.03.05.05.07.09.03.04.07.08.12.11.19.88-.64 1.93-1.7 1.72-.02-.52-.13-.94-.31-1.27-.36-.65-.94-1.02-1.46-1.32-.22-.13-.43-.24-.58-.36-.1-.08-.18-.17-.21-.28-.02-.11-.12-.18-.22-.16-.11.02-.18.12-.16.22.02.22.15.41.34.59-.32.06-.56.2-.69.4-.2.32-.15.82.38 1.29.02.05.04.1.09.13.12.08.28.05.36-.07.13-.21.33-.32.54-.37.35-.09.68-.05.77-.03.06.09.12.18.17.29.17.42.18.95-.04 1.69v.04c-.41.48-1.02.8-1.57.76.06-.66-.06-1.16-.3-1.55-.32-.53-.82-.89-1.32-1.2-.47-.3-.93-.55-1.06-1-.03-.1-.13-.17-.23-.14s-.17.13-.14.23c.03.17.11.32.2.47-.45.07-.73.33-.81.65-.08.33.08.77.55 1.16.02.07.06.13.13.16.13.06.28 0 .34-.13.1-.23.27-.37.45-.45.27-.12.56-.13.68-.13.22.21.42.44.55.72.17.36.17.82-.02 1.43-.51.66-1.47 1.12-2.24 1.03.29-.72.29-1.33.11-1.84-.34-.97-1.32-1.61-2.07-2.12-.26-.17-.48-.33-.62-.48-.06-.07-.11-.13-.11-.2-.01-.11-.1-.19-.2-.19-.11 0-.19.09-.19.2 0 .05.02.11.04.16-.28-.04-.53.01-.73.1-.32.15-.54.4-.62.59-.05.12-.05.23-.03.31.04.29.14.49.28.65.21.22.51.35.92.46l.06.01s.1-.02.22-.11c.11-.09.36-.27.68-.4.2-.08.44-.13.68-.13.43.38.82.82.96 1.37.09.38.02.81-.25 1.31-1.04 1.26-6.95.6-6.32-3.58-1.17-3.47-.8-4.91-3.39-8.48-5.84-5.01-3.1-8.26-2.86-10.4-2.92-22.51-5.29-48.79-5.65-76.64 1.14-.22 2.15-.91 2.75-1.82 3.53-5.37 11.87-9.59 18.63-12.48-1.04 22.86-7.13 76.15-7.71 90.53-.26.05-.54.12-.83.24-.96.4-2.05 1.1-2.88 1.66-.17.06-.23.24-.15.38zm16.17 15.8c-.12.02-.24.04-.37.07-.2.05-.39.13-.57.22 0 0 0-.01-.01-.01-.25-.22-.3-.38-.14-.47.15-.08.39-.08.65-.02.15.05.3.13.44.21zm-2.6.61c-.21-.01-.46 0-.71.07-.19.06-.36.18-.52.33-.23-.26-.29-.49-.17-.66.15-.21.5-.25.94-.12h.02c.15.11.3.24.44.38zm-3.06.92c-.18.02-.38.06-.58.16-.16.08-.3.21-.42.37-.23-.23-.32-.47-.27-.66.07-.24.38-.34.81-.25h.01c.07.06.13.12.2.18.08.07.17.13.25.2zm-3.36.14c-.12.03-.24.07-.35.11-.35.16-.63.36-.77.47-.2-.05-.37-.11-.5-.21-.14-.1-.23-.26-.26-.49l-.01-.03c.01-.02.05-.11.09-.16.13-.16.35-.32.66-.33.17-.01.37.05.58.15.12.12.25.24.4.36.05.04.1.08.16.13z" fill="#010101"/></svg>