<?xml version="1.0" encoding="utf-8"?>
<!-- Generator: Adobe Illustrator 23.1.0, SVG Export Plug-In . SVG Version: 6.00 Build 0)  -->
<svg version="1.1" id="Layer_1" xmlns="http://www.w3.org/2000/svg" xmlns:xlink="http://www.w3.org/1999/xlink" x="0px" y="0px"
	 viewBox="0 0 116.4 95.1" style="enable-background:new 0 0 116.4 95.1;" xml:space="preserve">
<style type="text/css">
	.st0{clip-path:url(#SVGID_2_);fill-rule:evenodd;clip-rule:evenodd;fill:#97623B;}
	.st1{clip-path:url(#SVGID_4_);fill-rule:evenodd;clip-rule:evenodd;fill:#BB6426;}
	.st2{clip-path:url(#SVGID_6_);fill-rule:evenodd;clip-rule:evenodd;fill:#6E6466;}
	.st3{clip-path:url(#SVGID_8_);fill-rule:evenodd;clip-rule:evenodd;fill:#898382;}
	.st4{clip-path:url(#SVGID_10_);fill-rule:evenodd;clip-rule:evenodd;fill:#79A0D4;}
	.st5{clip-path:url(#SVGID_12_);fill-rule:evenodd;clip-rule:evenodd;fill:#FAC99A;}
	.st6{clip-path:url(#SVGID_14_);fill-rule:evenodd;clip-rule:evenodd;fill:#79A0D4;}
	.st7{clip-path:url(#SVGID_16_);fill-rule:evenodd;clip-rule:evenodd;fill:#E68F50;}
	.st8{clip-path:url(#SVGID_18_);fill-rule:evenodd;clip-rule:evenodd;fill:#B14318;}
	.st9{clip-path:url(#SVGID_20_);fill-rule:evenodd;clip-rule:evenodd;fill:#D56813;}
	.st10{clip-path:url(#SVGID_22_);fill-rule:evenodd;clip-rule:evenodd;fill:#FAC99A;}
	.st11{clip-path:url(#SVGID_24_);fill-rule:evenodd;clip-rule:evenodd;fill:#A91E17;}
	.st12{clip-path:url(#SVGID_26_);fill-rule:evenodd;clip-rule:evenodd;fill:#D5422A;}
	.st13{clip-path:url(#SVGID_28_);fill-rule:evenodd;clip-rule:evenodd;fill:#1D1D1B;}
	.st14{clip-path:url(#SVGID_30_);}
	.st15{clip-path:url(#SVGID_32_);fill-rule:evenodd;clip-rule:evenodd;fill:#963B15;}
	.st16{clip-path:url(#SVGID_34_);fill-rule:evenodd;clip-rule:evenodd;fill:#FAC99A;}
	.st17{clip-path:url(#SVGID_36_);fill-rule:evenodd;clip-rule:evenodd;fill:#D86C14;}
	.st18{clip-path:url(#SVGID_38_);}
	.st19{clip-path:url(#SVGID_40_);fill:none;}
</style>
<g>
	<g>
		<defs>
			<path id="SVGID_1_" d="M89.5,82.8H26.4c-6.1,0-11-4.9-11-11V22.9c0-6.1,4.9-11,11-11h63.1c6.1,0,11,4.9,11,11v48.9
				C100.5,77.8,95.6,82.8,89.5,82.8z"/>
		</defs>
		<clipPath id="SVGID_2_">
			<use xlink:href="#SVGID_1_"  style="overflow:visible;"/>
		</clipPath>
		<polygon class="st0" points="62.5,40.6 60.3,43.2 60.4,45.4 62.5,42.4 		"/>
	</g>
	<g>
		<defs>
			<path id="SVGID_3_" d="M89.5,82.8H26.4c-6.1,0-11-4.9-11-11V22.9c0-6.1,4.9-11,11-11h63.1c6.1,0,11,4.9,11,11v48.9
				C100.5,77.8,95.6,82.8,89.5,82.8z"/>
		</defs>
		<clipPath id="SVGID_4_">
			<use xlink:href="#SVGID_3_"  style="overflow:visible;"/>
		</clipPath>
		<polygon class="st1" points="9.8,43.6 17,40.5 62.4,40.5 59.1,43.6 		"/>
	</g>
	<g>
		<defs>
			<path id="SVGID_5_" d="M89.5,82.8H26.4c-6.1,0-11-4.9-11-11V22.9c0-6.1,4.9-11,11-11h63.1c6.1,0,11,4.9,11,11v48.9
				C100.5,77.8,95.6,82.8,89.5,82.8z"/>
		</defs>
		<clipPath id="SVGID_6_">
			<use xlink:href="#SVGID_5_"  style="overflow:visible;"/>
		</clipPath>
		<path class="st2" d="M90.9,72.9l-4.2,0c-6.4,0.9-4.4,3.7-3.9,3.7l7.3-0.2c0.5,0,0.9-0.4,0.9-0.9L90.9,72.9z"/>
	</g>
	<g>
		<defs>
			<path id="SVGID_7_" d="M89.5,82.8H26.4c-6.1,0-11-4.9-11-11V22.9c0-6.1,4.9-11,11-11h63.1c6.1,0,11,4.9,11,11v48.9
				C100.5,77.8,95.6,82.8,89.5,82.8z"/>
		</defs>
		<clipPath id="SVGID_8_">
			<use xlink:href="#SVGID_7_"  style="overflow:visible;"/>
		</clipPath>
		<path class="st3" d="M95.6,73.5l-4.2,0.2c-6.5,1.2-4.5,3.8-4,3.8l7.4-0.4c0.5,0,0.9-0.4,0.9-0.9L95.6,73.5z"/>
	</g>
	<g>
		<defs>
			<path id="SVGID_9_" d="M89.5,82.8H26.4c-6.1,0-11-4.9-11-11V22.9c0-6.1,4.9-11,11-11h63.1c6.1,0,11,4.9,11,11v48.9
				C100.5,77.8,95.6,82.8,89.5,82.8z"/>
		</defs>
		<clipPath id="SVGID_10_">
			<use xlink:href="#SVGID_9_"  style="overflow:visible;"/>
		</clipPath>
		<polygon class="st4" points="87.4,73 84.7,53.4 91.8,52.7 91.1,72.8 		"/>
	</g>
	<g>
		<defs>
			<path id="SVGID_11_" d="M89.5,82.8H26.4c-6.1,0-11-4.9-11-11V22.9c0-6.1,4.9-11,11-11h63.1c6.1,0,11,4.9,11,11v48.9
				C100.5,77.8,95.6,82.8,89.5,82.8z"/>
		</defs>
		<clipPath id="SVGID_12_">
			<use xlink:href="#SVGID_11_"  style="overflow:visible;"/>
		</clipPath>
		<polygon class="st5" points="90.6,28.3 87.8,29.4 89.2,33.1 92,32 		"/>
	</g>
	<g>
		<defs>
			<path id="SVGID_13_" d="M89.5,82.8H26.4c-6.1,0-11-4.9-11-11V22.9c0-6.1,4.9-11,11-11h63.1c6.1,0,11,4.9,11,11v48.9
				C100.5,77.8,95.6,82.8,89.5,82.8z"/>
		</defs>
		<clipPath id="SVGID_14_">
			<use xlink:href="#SVGID_13_"  style="overflow:visible;"/>
		</clipPath>
		<polygon class="st6" points="91.2,73.6 87.3,48.4 96.7,49.1 95.7,73.4 		"/>
	</g>
	<g>
		<defs>
			<path id="SVGID_15_" d="M89.5,82.8H26.4c-6.1,0-11-4.9-11-11V22.9c0-6.1,4.9-11,11-11h63.1c6.1,0,11,4.9,11,11v48.9
				C100.5,77.8,95.6,82.8,89.5,82.8z"/>
		</defs>
		<clipPath id="SVGID_16_">
			<use xlink:href="#SVGID_15_"  style="overflow:visible;"/>
		</clipPath>
		<path class="st7" d="M69.2,36.4c0.1-0.8,0.1-1.6,0.5-1.7c0.9-0.3,1.1,2.4,1.2,2.4l7.2,0.3l0,2.7l-7.6-0.3
			c-1.7,1.2-3.7,0.7-4.3-0.5C65.7,38,67.5,37.6,69.2,36.4z"/>
	</g>
	<g>
		<defs>
			<path id="SVGID_17_" d="M89.5,82.8H26.4c-6.1,0-11-4.9-11-11V22.9c0-6.1,4.9-11,11-11h63.1c6.1,0,11,4.9,11,11v48.9
				C100.5,77.8,95.6,82.8,89.5,82.8z"/>
		</defs>
		<clipPath id="SVGID_18_">
			<use xlink:href="#SVGID_17_"  style="overflow:visible;"/>
		</clipPath>
		<path class="st8" d="M73.6,36.3l9.6,0.2c0,0,6-1.9,7.1-2.1c0.9-0.2,1.4,1.9,0.7,3.4c-0.8,1.8-5.2-0.3-5.2-0.3l-12.1,2.2L73.6,36.3
			z"/>
	</g>
	<g>
		<defs>
			<path id="SVGID_19_" d="M89.5,82.8H26.4c-6.1,0-11-4.9-11-11V22.9c0-6.1,4.9-11,11-11h63.1c6.1,0,11,4.9,11,11v48.9
				C100.5,77.8,95.6,82.8,89.5,82.8z"/>
		</defs>
		<clipPath id="SVGID_20_">
			<use xlink:href="#SVGID_19_"  style="overflow:visible;"/>
		</clipPath>
		<path class="st9" d="M97.6,54.9c-4,0.5-9.9,0.7-14.6,0c0,0,0.5-17.7,5-22.5c1-1.1,4.6-1.2,5.5,0C96.9,36.9,97.6,54.9,97.6,54.9z"
			/>
	</g>
	<g>
		<defs>
			<path id="SVGID_21_" d="M89.5,82.8H26.4c-6.1,0-11-4.9-11-11V22.9c0-6.1,4.9-11,11-11h63.1c6.1,0,11,4.9,11,11v48.9
				C100.5,77.8,95.6,82.8,89.5,82.8z"/>
		</defs>
		<clipPath id="SVGID_22_">
			<use xlink:href="#SVGID_21_"  style="overflow:visible;"/>
		</clipPath>
		<path class="st10" d="M80.6,24.6c-0.3-2.6,1.1-5.3,3.5-6.4c3.1-1.5,6.9-0.1,8.4,3.2s0.2,7.1-2.9,8.5c-3.1,1.5-6.8,0.1-8.3-3.1
			c-0.5,0.3-1.2,0.1-1.6-0.4c-0.3-0.5-0.2-1.3,0.3-1.6C80.2,24.7,80.4,24.6,80.6,24.6z"/>
	</g>
	<g>
		<defs>
			<path id="SVGID_23_" d="M89.5,82.8H26.4c-6.1,0-11-4.9-11-11V22.9c0-6.1,4.9-11,11-11h63.1c6.1,0,11,4.9,11,11v48.9
				C100.5,77.8,95.6,82.8,89.5,82.8z"/>
		</defs>
		<clipPath id="SVGID_24_">
			<use xlink:href="#SVGID_23_"  style="overflow:visible;"/>
		</clipPath>
		<polygon class="st11" points="48.2,28 60.2,28 60.2,40 58.8,42.4 47.2,41.8 46.7,29.4 		"/>
	</g>
	<g>
		<defs>
			<path id="SVGID_25_" d="M89.5,82.8H26.4c-6.1,0-11-4.9-11-11V22.9c0-6.1,4.9-11,11-11h63.1c6.1,0,11,4.9,11,11v48.9
				C100.5,77.8,95.6,82.8,89.5,82.8z"/>
		</defs>
		<clipPath id="SVGID_26_">
			<use xlink:href="#SVGID_25_"  style="overflow:visible;"/>
		</clipPath>
		<rect x="46.8" y="29.4" class="st12" width="12" height="12.9"/>
	</g>
	<g>
		<defs>
			<path id="SVGID_27_" d="M89.5,82.8H26.4c-6.1,0-11-4.9-11-11V22.9c0-6.1,4.9-11,11-11h63.1c6.1,0,11,4.9,11,11v48.9
				C100.5,77.8,95.6,82.8,89.5,82.8z"/>
		</defs>
		<clipPath id="SVGID_28_">
			<use xlink:href="#SVGID_27_"  style="overflow:visible;"/>
		</clipPath>
		<polygon class="st13" points="51.7,49.8 51.7,48.4 67.1,48.4 65.2,44.5 75.5,49.1 65.2,53.7 67.1,49.8 		"/>
	</g>
	<g>
		<defs>
			<path id="SVGID_29_" d="M89.5,82.8H26.4c-6.1,0-11-4.9-11-11V22.9c0-6.1,4.9-11,11-11h63.1c6.1,0,11,4.9,11,11v48.9
				C100.5,77.8,95.6,82.8,89.5,82.8z"/>
		</defs>
		<clipPath id="SVGID_30_">
			<use xlink:href="#SVGID_29_"  style="overflow:visible;"/>
		</clipPath>
		<polygon class="st14" points="51.7,49.8 51.7,48.4 67.1,48.4 65.2,44.5 75.5,49.1 65.2,53.7 67.1,49.8 		"/>
	</g>
	<g>
		<defs>
			<path id="SVGID_31_" d="M89.5,82.8H26.4c-6.1,0-11-4.9-11-11V22.9c0-6.1,4.9-11,11-11h63.1c6.1,0,11,4.9,11,11v48.9
				C100.5,77.8,95.6,82.8,89.5,82.8z"/>
		</defs>
		<clipPath id="SVGID_32_">
			<use xlink:href="#SVGID_31_"  style="overflow:visible;"/>
		</clipPath>
		<path class="st15" d="M60.1,44.1c0-0.3-0.2-0.5-0.5-0.5H10.2c-0.3,0-0.5,0.2-0.5,0.5v1c0,0.3,0.2,0.5,0.5,0.5h49.5
			c0.3,0,0.5-0.2,0.5-0.5V44.1z"/>
	</g>
	<g>
		<defs>
			<path id="SVGID_33_" d="M89.5,82.8H26.4c-6.1,0-11-4.9-11-11V22.9c0-6.1,4.9-11,11-11h63.1c6.1,0,11,4.9,11,11v48.9
				C100.5,77.8,95.6,82.8,89.5,82.8z"/>
		</defs>
		<clipPath id="SVGID_34_">
			<use xlink:href="#SVGID_33_"  style="overflow:visible;"/>
		</clipPath>
		<path class="st16" d="M69.2,38.8c0-0.9-0.1-1.7,0.3-1.9c0.9-0.4,1.5,2.4,1.6,2.4l7.7-0.7l0.4,2.9l-8.1,0.7c-1.6,1.5-3.8,1.2-4.6,0
			C65.7,41,67.6,40.3,69.2,38.8z"/>
	</g>
	<g>
		<defs>
			<path id="SVGID_35_" d="M89.5,82.8H26.4c-6.1,0-11-4.9-11-11V22.9c0-6.1,4.9-11,11-11h63.1c6.1,0,11,4.9,11,11v48.9
				C100.5,77.8,95.6,82.8,89.5,82.8z"/>
		</defs>
		<clipPath id="SVGID_36_">
			<use xlink:href="#SVGID_35_"  style="overflow:visible;"/>
		</clipPath>
		<path class="st17" d="M75.1,37.6l9.8-0.5c0,0,5.1-2.6,6.2-2.9c1.7-0.4,2.9,1.7,2.1,3c-1,1.7-6.8,4.2-6.8,4.2l-11.1,0.7L75.1,37.6z
			"/>
	</g>
	<g>
		<defs>
			<path id="SVGID_37_" d="M89.5,82.8H26.4c-6.1,0-11-4.9-11-11V22.9c0-6.1,4.9-11,11-11h63.1c6.1,0,11,4.9,11,11v48.9
				C100.5,77.8,95.6,82.8,89.5,82.8z"/>
		</defs>
		<clipPath id="SVGID_38_">
			<use xlink:href="#SVGID_37_"  style="overflow:visible;"/>
		</clipPath>
		<g class="st18">
			<path d="M62.6,40.3c-0.1,0-0.3,0-0.4,0.1c0-0.1,0.1-0.1,0.2-0.2c0,0,0,0,0,0c0,0,0,0,0,0h-1.8c0,0,0-0.1,0-0.1V28.3
				c0.1-0.1,0.1-0.3,0-0.5c0-0.1-0.1-0.1-0.2-0.1c-0.1,0-0.1-0.1-0.2-0.1h-12c-0.1,0-0.2,0-0.3,0.1l-1.5,1.3
				c-0.1,0.1-0.1,0.2-0.1,0.3l0,0.9c0,0,0,0,0,0v9.9H17c0,0-0.1,0-0.1,0l-7.1,3.1c-0.1,0-0.1,0.1-0.2,0.2c0,0,0,0,0,0
				c-0.1,0.2-0.3,0.4-0.3,0.6v1c0,0.5,0.4,0.9,0.9,0.9h49.5c0.1,0,0.2,0,0.3-0.1l0,0c0,0,0.1,0,0.1,0c0.1,0,0.2,0,0.3-0.2l2.5-3.2
				c0-0.1,0.1-0.2,0.1-0.2v-1.7C62.9,40.5,62.8,40.3,62.6,40.3z M48.3,28.4h11L58.6,29H47.7L48.3,28.4z M59.8,29v11l-0.6,1V29.5
				L59.8,29z M47.2,29.8h11c0,0,0,0,0,0c0.1,0.1,0.2,0.1,0.3,0.1c0,0,0,0,0,0v11.9H47.2V29.8z M59.6,45.3H10.2
				c-0.1,0-0.1-0.1-0.1-0.2v-1c0-0.1,0.1-0.2,0.1-0.2h49.4L59.6,45.3C59.6,45.2,59.6,45.3,59.6,45.3z M59,43.2H11.8l5.3-2.3h29.4
				v1.3c0,0.2,0.2,0.4,0.4,0.4h12c0.2,0,0.3-0.1,0.3-0.3c0,0,0,0,0,0l0.9-1.5h1.3L59,43.2z M62.1,42.2l-1.6,2.1v-0.3
				c0-0.2-0.1-0.4-0.3-0.6l1.9-1.9V42.2z M62.2,40.4L62.2,40.4C62.2,40.4,62.2,40.4,62.2,40.4L62.2,40.4z"/>
			<path d="M93.9,32.1c-0.4-0.5-1.1-0.8-1.7-0.9l-0.7-1.9c2.1-2,2.8-5.2,1.5-8.1c-0.8-1.7-2.2-3-3.9-3.6c-1.7-0.6-3.5-0.5-5.1,0.2
				c-2.4,1.2-3.9,3.7-3.8,6.5c-0.1,0-0.2,0.1-0.3,0.2c-0.8,0.5-1,1.5-0.5,2.3c0.4,0.6,1.1,0.9,1.7,0.8c0.5,0.9,1.2,1.6,1.9,2.2
				c0.1,0.1,0.1,0.1,0.2,0.1c1.1,0.8,2.5,1.2,3.8,1.2c0.3,0,0.6,0,0.9-0.1l0.3,0.7c-0.2,0.1-0.3,0.2-0.5,0.4
				c-0.7,0.8-1.3,1.8-1.8,3.1c-1.3,0.4-2.4,0.7-2.7,0.8l-9.5-0.2c-0.1,0-0.3,0-0.4,0.2c-0.1,0.1-0.2,0.2-0.1,0.4l0,0.4l-1.8-0.1
				c0,0,0,0,0-0.1c-0.2-1-0.4-1.9-1-2.3c-0.2-0.1-0.5-0.2-0.7-0.1c-0.7,0.2-0.8,1-0.8,1.9v0c-0.4,0.3-0.8,0.5-1.1,0.7
				c-1.1,0.6-2.4,1.4-1.7,2.8c0.2,0.3,0.4,0.5,0.6,0.8c-0.7,0.6-1,1.3-0.4,2.3c0.4,0.7,1.2,1.1,2.1,1.2c0.1,0,0.3,0,0.4,0
				c1,0,1.9-0.4,2.7-1l3.4-0.3c0,0.1,0.1,0.1,0.1,0.2c0.1,0.1,0.2,0.1,0.3,0.1c0,0,0,0,0,0l8.5-0.5c-1.1,6-1.3,12.3-1.3,12.7
				c0,0.3,0.2,0.5,0.4,0.5c0.5,0.1,1,0.2,1.6,0.2l2.4,16.8h-0.2c-4.2,0.6-5.1,2-5,3.1c0,0.8,0.6,1.6,1.2,1.6l3.5-0.1
				c0.2,0.5,0.6,0.9,1.1,0.9l7.4-0.4h0c0.8,0,1.4-0.6,1.4-1.5l-0.2-2.3c0.1-0.1,0.1-0.2,0.1-0.3l0.7-18c0.3,0,0.5,0,0.7-0.1
				c0.3,0,0.4-0.3,0.4-0.5C98.1,54.2,97.3,36.6,93.9,32.1z M84.5,29.4c1-0.5,1.3-1.4,1.3-2.1c0-0.3-0.2-0.5-0.5-0.5
				c-0.3,0-0.5,0.2-0.5,0.5c0,0.6-0.2,1.2-1.4,1.5c-0.7-0.5-1.3-1.3-1.7-2.2c-0.1-0.1-0.2-0.2-0.3-0.3c-0.1,0-0.1,0-0.1,0
				c-0.1,0-0.2,0-0.3,0.1c-0.3,0.2-0.7,0.1-0.9-0.2c-0.2-0.3-0.1-0.7,0.2-0.9c0.2-0.1,0.5-0.1,0.7-0.3c0.1-0.1,0.1-0.2,0.1-0.4
				c-0.3-2.5,1.1-4.9,3.3-5.9c1.3-0.6,2.9-0.7,4.3-0.2c1.5,0.5,2.7,1.6,3.4,3.1c1.4,3,0.2,6.5-2.7,7.9C87.8,30.2,86,30.1,84.5,29.4z
				 M91.1,31c-0.7,0-1.4,0.1-2,0.3l-0.2-0.6c0.3-0.1,0.6-0.2,0.9-0.4c0.3-0.1,0.6-0.3,0.8-0.5L91.1,31z M84.4,36.6
				c0.2-0.2,0.3-0.3,0.6-0.4c0.2,0,0.3-0.1,0.5-0.2c-0.1,0.1-0.1,0.2-0.1,0.4c-0.2,0.1-0.4,0.2-0.5,0.3l-0.7,0
				C84.2,36.7,84.3,36.6,84.4,36.6z M73.2,37.8l0,0.9l-1.7,0.2c0,0,0-0.1,0-0.1c-0.1-0.4-0.3-0.7-0.4-1L73.2,37.8z M69.8,36.2
				c0-0.3,0.1-0.7,0.2-1c0.1,0.2,0.3,0.7,0.4,1.3c-0.1-0.1-0.2-0.1-0.2-0.1c-0.1,0-0.2-0.1-0.4-0.1L69.8,36.2z M68.1,37.7
				c0.2-0.1,0.4-0.2,0.6-0.4c-0.1,0.4-0.1,0.8-0.1,1.2v0c-0.4,0.3-0.7,0.6-1.1,0.9c-0.1,0.1-0.2,0.1-0.3,0.2
				c-0.2-0.2-0.4-0.3-0.5-0.5C66.6,38.7,66.8,38.4,68.1,37.7z M71.2,41.8c-0.1,0-0.2,0.1-0.3,0.1c-0.7,0.7-1.6,1-2.4,0.9
				c-0.6-0.1-1.1-0.3-1.4-0.8c-0.3-0.5-0.2-0.8,1.2-1.8c0.4-0.3,0.9-0.7,1.3-1.1c0.1-0.1,0.2-0.2,0.2-0.4l0-0.3c0-0.4,0-1,0-1.1
				c0.1,0,0.4,0.4,0.8,1.7c0.2,0.5,0.2,0.7,0.5,0.8c0.1,0,0.2,0,0.2,0l3.5-0.3l0.1,1.9L71.2,41.8z M75.1,37.1
				c-0.3,0-0.5,0.3-0.5,0.5l0,0.9l-0.4,0l-0.1-1.8l5.6,0.1L75.1,37.1z M75.8,41.7l-0.1-3.6l9.3-0.5c0.1,0,0.1,0,0.2-0.1
				c1.4-0.7,5.2-2.7,6.1-2.8c0.8-0.2,1.2,0.3,1.4,0.5c0.4,0.5,0.5,1.3,0.2,1.8c-0.7,1.3-4.9,3.3-6.5,4L75.8,41.7z M85.5,55.7
				c0.8,0.1,1.6,0.1,2.4,0.2l2.6,16.5l-1.8,0.1h-0.8L85.5,55.7z M86.2,76.1l-3.3,0.1c-0.1-0.1-0.3-0.4-0.3-0.8
				c0.1-0.4,0.6-1.4,4.1-1.9h0.5c0.1,0,0.2,0.1,0.2,0.1c0,0,0,0,0,0l1.3-0.1h1.2C87.2,74.2,86.3,75.2,86.2,76.1z M94.8,76.5
				L94.8,76.5L87.5,77c-0.1-0.1-0.3-0.4-0.3-0.7c0.1-0.4,0.6-1.5,4.2-2.1l3.7-0.1l0.2,2.1C95.3,76.3,95.1,76.5,94.8,76.5z
				 M95.2,72.9l-3.6,0.2l-2.7-17.3c0.3,0,0.6,0,0.9,0c2.2,0,4.3-0.1,6.1-0.3L95.2,72.9z M83.5,54.5c0.1-1.6,0.4-7,1.3-12.2
				c-0.2,0-0.5,0-0.7-0.1l2.3-0.1c0.1,0,0.1,0,0.2,0c0.6-0.3,6-2.7,7-4.5c0.5-0.9,0.4-2-0.2-2.9c-0.6-0.8-1.5-1.1-2.4-0.9
				c-0.7,0.2-2.8,1.2-4.4,2c0.5-1.2,1.1-2.3,1.8-3c0.4-0.5,1.7-0.8,2.9-0.7c0.9,0,1.6,0.3,1.9,0.7c2.9,3.9,3.8,18.9,3.9,21.8
				C93.3,54.9,87.9,55.1,83.5,54.5z"/>
			<path d="M82.9,23c-0.3,0.1-0.4,0.5-0.3,0.8c0.1,0.3,0.5,0.5,0.8,0.3c0.3-0.1,0.4-0.5,0.3-0.8C83.6,23,83.3,22.9,82.9,23z"/>
			<path d="M89.5,24.4c0.7,0,1.2-0.4,1.3-1c0.2-0.7-0.2-1.8-0.9-2.1c-0.3-0.1-1-0.3-1.6,0.6c-0.2,0.2-0.1,0.5,0.1,0.7
				s0.5,0.1,0.7-0.1c0-0.1,0.3-0.4,0.4-0.3c0.2,0.1,0.5,0.6,0.4,1c0,0.2-0.1,0.2-0.3,0.2c-0.3,0-0.5,0.2-0.5,0.5
				C88.9,24.2,89.2,24.4,89.5,24.4C89.4,24.4,89.4,24.4,89.5,24.4z"/>
			<path d="M82.6,21.7c-0.3,0-0.5,0.3-0.4,0.6s0.3,0.5,0.6,0.4c0.5-0.1,1.1,0.1,1.2,0.2c0.1,0.1,0.2,0.1,0.3,0.1
				c0.1,0,0.3,0,0.4-0.2c0.2-0.2,0.2-0.5,0-0.7C84.3,21.8,83.4,21.6,82.6,21.7z"/>
		</g>
	</g>
	<g>
		<defs>
			<path id="SVGID_39_" d="M89.5,82.8H26.4c-6.1,0-11-4.9-11-11V22.9c0-6.1,4.9-11,11-11h63.1c6.1,0,11,4.9,11,11v48.9
				C100.5,77.8,95.6,82.8,89.5,82.8z"/>
		</defs>
		<clipPath id="SVGID_40_">
			<use xlink:href="#SVGID_39_"  style="overflow:visible;"/>
		</clipPath>
		<rect x="20.1" y="0.5" class="st19" width="86.6" height="86.6"/>
	</g>
</g>
</svg>
