<?xml version="1.0" encoding="utf-8"?>
<!-- Generator: Adobe Illustrator 22.1.0, SVG Export Plug-In . SVG Version: 6.00 Build 0)  -->
<svg version="1.1" id="Слой_1" xmlns="http://www.w3.org/2000/svg" xmlns:xlink="http://www.w3.org/1999/xlink" x="0px" y="0px"
	 viewBox="0 0 283.5 283.5" style="enable-background:new 0 0 283.5 283.5;" xml:space="preserve">
<style type="text/css">
	.st0{clip-path:url(#SVGID_2_);fill-rule:evenodd;clip-rule:evenodd;fill:#FFFFFF;}
	.st1{clip-path:url(#SVGID_2_);fill:none;stroke:#12100B;stroke-linecap:round;stroke-linejoin:round;stroke-miterlimit:10;}
	.st2{clip-path:url(#SVGID_2_);fill-rule:evenodd;clip-rule:evenodd;fill:#65B5E5;}
	.st3{clip-path:url(#SVGID_4_);fill:none;stroke:#12100B;stroke-linecap:round;stroke-linejoin:round;stroke-miterlimit:10;}
	.st4{clip-path:url(#SVGID_6_);fill:none;stroke:#12100B;stroke-linecap:round;stroke-linejoin:round;stroke-miterlimit:10;}
	.st5{clip-path:url(#SVGID_6_);fill-rule:evenodd;clip-rule:evenodd;fill:#FFFFFF;}
	.st6{clip-path:url(#SVGID_6_);fill-rule:evenodd;clip-rule:evenodd;fill:#12100B;}
	
		.st7{clip-path:url(#SVGID_6_);fill:none;stroke:#12100B;stroke-width:0.85;stroke-linecap:round;stroke-linejoin:round;stroke-miterlimit:10;}
	
		.st8{clip-path:url(#SVGID_6_);fill:none;stroke:#12100B;stroke-width:0.55;stroke-linecap:round;stroke-linejoin:round;stroke-miterlimit:10;}
	.st9{clip-path:url(#SVGID_8_);fill-rule:evenodd;clip-rule:evenodd;fill:#12100B;}
	.st10{clip-path:url(#SVGID_8_);fill-rule:evenodd;clip-rule:evenodd;fill:#FFFFFF;}
	.st11{clip-path:url(#SVGID_10_);fill:none;stroke:#12100B;stroke-linecap:round;stroke-linejoin:round;stroke-miterlimit:10;}
	.st12{clip-path:url(#SVGID_12_);fill-rule:evenodd;clip-rule:evenodd;fill:#12100B;}
	.st13{clip-path:url(#SVGID_12_);fill-rule:evenodd;clip-rule:evenodd;fill:#FFFFFF;}
	.st14{clip-path:url(#SVGID_14_);fill:none;stroke:#12100B;stroke-linecap:round;stroke-linejoin:round;stroke-miterlimit:10;}
	
		.st15{clip-path:url(#SVGID_14_);fill:none;stroke:#12100B;stroke-width:0.85;stroke-linecap:round;stroke-linejoin:round;stroke-miterlimit:10;}
	.st16{clip-path:url(#SVGID_14_);fill-rule:evenodd;clip-rule:evenodd;fill:#12100B;}
	.st17{clip-path:url(#SVGID_14_);fill-rule:evenodd;clip-rule:evenodd;fill:#FFFFFF;}
</style>
<g>
	<defs>
		<rect id="SVGID_1_" width="283.5" height="283.5"/>
	</defs>
	<clipPath id="SVGID_2_">
		<use xlink:href="#SVGID_1_"  style="overflow:visible;"/>
	</clipPath>
	<path class="st0" d="M53.8,267.7c0.1-2.7,0.8-8,0.8-8c3.3,6.3,7.1,9.4,9,6c-2.9-2.1-3.4-5-4.9-8.1c-2.6-6.1-4.5-8.9-6-9.4l0.2-15
		l-9.3-0.1l0.2,15.8c0,0-3.2,4.9-4.1,8.7c-2.4,10.2-1.3,17.4-0.7,17.9c3.6,3,2.2-7.7,3.1-10.3c-0.3,5-0.3,11.1,0.1,12.7
		c0.8,4.2,2.6,2.9,2.6,2.9s0.5-3.3,0.3-6.4c-0.2-2.7,0.7-9.3,0.7-9.3c0.3,3.7,0,14.1,1.5,16.2c1.6,2.3,2.8,0.3,2.6-0.3
		c-0.4-1.5,0.2-15.9,0.2-15.9c0.5,3.8,1,12.9,2.2,14.5c1.3,1.7,2.2-0.2,2-0.8C53.8,277.1,53.7,270.9,53.8,267.7"/>
	<path class="st1" d="M53.8,267.7c0.1-2.7,0.8-8,0.8-8c3.3,6.3,7.1,9.4,9,6c-2.9-2.1-3.4-5-4.9-8.1c-2.6-6.1-4.5-8.9-6-9.4l0.2-15
		l-9.3-0.1l0.2,15.8c0,0-3.2,4.9-4.1,8.7c-2.4,10.2-1.3,17.4-0.7,17.9c3.6,3,2.2-7.7,3.1-10.3c-0.3,5-0.3,11.1,0.1,12.7
		c0.8,4.2,2.6,2.9,2.6,2.9s0.5-3.3,0.3-6.4c-0.2-2.7,0.7-9.3,0.7-9.3c0.3,3.7,0,14.1,1.5,16.2c1.6,2.3,2.8,0.3,2.6-0.3
		c-0.4-1.5,0.2-15.9,0.2-15.9c0.5,3.8,1,12.9,2.2,14.5c1.3,1.7,2.2-0.2,2-0.8C53.8,277.1,53.7,270.9,53.8,267.7z"/>
	<path class="st0" d="M188.5,157l12.3-5.3c0,0-0.8-6.8,3.6-9.8c2.9-2,3.5-9.8,3.5-9.8c4.4-0.3,5.1,2.7,3.3,10.4
		c1.4,0.9,2.6,1,3.6,0.6c2.7,5.3,5.1,10.7,7.3,16.2c-8,4.5-15.2,5.8-17.5,2.6l-10.6,5.2L188.5,157z"/>
	<path class="st1" d="M188.5,157l12.3-5.3c0,0-0.8-6.8,3.6-9.8c2.9-2,3.5-9.8,3.5-9.8c4.4-0.3,5.1,2.7,3.3,10.4
		c1.4,0.9,2.6,1,3.6,0.6c2.7,5.3,5.1,10.7,7.3,16.2c-8,4.5-15.2,5.8-17.5,2.6l-10.6,5.2L188.5,157z"/>
	<path class="st0" d="M213.4,142.6c-1.2,1.6-0.7,3.5,1.2,3.9l8-3.1c2.2-1.1,0.8-6.3-2.8-4.5L213.4,142.6z"/>
	<path class="st1" d="M213.4,142.6c-1.2,1.6-0.7,3.5,1.2,3.9l8-3.1c2.2-1.1,0.8-6.3-2.8-4.5L213.4,142.6z"/>
	<path class="st0" d="M214.6,147.7c-1.3,1.6-0.9,3.4,1,4l9.5-3.3c2.2-1,1.2-6.2-2.6-4.6L214.6,147.7z"/>
	<path class="st1" d="M214.6,147.7c-1.3,1.6-0.9,3.4,1,4l9.5-3.3c2.2-1,1.2-6.2-2.6-4.6L214.6,147.7z"/>
	<path class="st0" d="M216.8,152.4c-1.1,1.1-0.5,2.9,1,3.4l7.7-2.1c1.8-0.6,0.8-5.1-2.2-4L216.8,152.4z"/>
	<path class="st1" d="M216.8,152.4c-1.1,1.1-0.5,2.9,1,3.4l7.7-2.1c1.8-0.6,0.8-5.1-2.2-4L216.8,152.4z"/>
	<path class="st0" d="M218.4,157.1c-1,0.9-0.4,2.8,0.8,3.3l5.9-1.2c1.9-0.4,1.5-4.9-1.1-4.1L218.4,157.1z"/>
	<path class="st1" d="M218.4,157.1c-1,0.9-0.4,2.8,0.8,3.3l5.9-1.2c1.9-0.4,1.5-4.9-1.1-4.1L218.4,157.1z"/>
	<path class="st0" d="M210.7,144.5c-0.8,4.8-2.2,8.1-5.1,10.6"/>
	<path class="st1" d="M210.7,144.5c-0.8,4.8-2.2,8.1-5.1,10.6"/>
	<path class="st0" d="M206.2,156.6c2.2-1,5.3-0.7,7,0.9"/>
	<path class="st1" d="M206.2,156.6c2.2-1,5.3-0.7,7,0.9"/>
	<path class="st2" d="M194.7,150.2l-34.1,16.6c0,0-14.1-35.9-19-43.8c-3.5-5.6-13.5-9.4-20.8-11.4c0,0.6-0.2,0.9-0.5,1.5
		c-1.9,3.4-6,6.2-9.8,7.4c-9.4,2.9-19.9,0.8-25.8-7.3c-0.5-0.6-0.6-1.3-0.4-1.9c-2.4,0.7-5.2,1.5-8.7,2.6c-6.4,2-10.9,3.7-13.6,6.3
		c-3,2.9-7.6,6.4-9.8,16.4C44.4,172,41.6,243.2,41.6,243.2l14.5-0.1c0,0,7.4-62.2,8.5-73.1L64,237.2c3.2,3.9,10.9,7.9,18.7,5.4
		c5-1.4,12.2-0.8,20.4,0.2c6.1,2.3,17.3,1.1,20.9-1.7c8.8,1,12,1.2,15.7-4.8l-1.4-70.9c0,0,13.9,24,20,23.9c8.5-0.3,44.7-24,44.7-24
		L194.7,150.2z"/>
</g>
<g>
	<defs>
		<path id="SVGID_3_" d="M92.3,94l0.7,15.1c-2.7,0.6-7.9,1.9-17.3,4.9c-6.4,2-10.9,3.7-13.6,6.3c-3,2.9-7.6,6.4-9.8,16.4
			C44.4,172,41.6,243.2,41.6,243.2l14.5-0.1c0,0,7.4-62.2,8.5-73.1L64,237.2c3.2,3.9,10.9,7.9,18.7,5.4c5-1.4,12.2-0.8,20.4,0.2
			c6.1,2.3,17.3,1.1,20.9-1.7c8.8,1,12,1.2,15.7-4.8l-1.4-70.9c0,0,13.9,24,20,23.9c8.5-0.3,44.7-24,44.7-24l-8.4-15l-34.1,16.6
			c0,0-14.1-35.9-19-43.8c-5.5-8.8-28.8-13.3-28.8-13.3L112.4,94H92.3z"/>
	</defs>
	<clipPath id="SVGID_4_">
		<use xlink:href="#SVGID_3_"  style="overflow:visible;"/>
	</clipPath>
	<path class="st3" d="M102.5,91.5c10.9,0,19.8,6.8,19.8,15.2c0,8.4-8.9,15.2-19.8,15.2s-19.8-6.8-19.8-15.2
		C82.8,98.3,91.6,91.5,102.5,91.5z"/>
</g>
<g>
	<defs>
		<rect id="SVGID_5_" width="283.5" height="283.5"/>
	</defs>
	<clipPath id="SVGID_6_">
		<use xlink:href="#SVGID_5_"  style="overflow:visible;"/>
	</clipPath>
	<path class="st4" d="M56.1,243.1l-14.5,0.1c0,0,2.8-71.1,10.6-106.4c2.2-10,6.8-13.5,9.8-16.4c2.7-2.6,7.2-4.3,13.6-6.3
		c9.5-3,14.7-4.3,17.3-4.9L92.3,94h20.1l0.3,15.7c0,0,23.4,4.5,28.8,13.3c4.9,7.9,19,43.8,19,43.8l34.1-16.6l8.4,15
		c0,0-36.2,23.8-44.7,24c-6.1,0.2-20-23.9-20-23.9l1.4,70.9c-3.8,6-7,5.8-15.7,4.8c-3.6,2.7-14.8,4-20.9,1.7
		c-8.3-1-15.4-1.6-20.4-0.2c-7.8,2.5-15.5-1.5-18.7-5.4l0.7-67.2C63.5,180.9,56.1,243.1,56.1,243.1z"/>
	<path class="st4" d="M64.9,148.8c0.1,2.9,0.5,5,0.9,6.5l-1.2,16.1"/>
	<path class="st4" d="M139.5,147.5c-0.1,2.9-1.3,4.5-1.8,6l0.7,13.1"/>
	<path class="st4" d="M160.8,166.6c-1.8,2-3.6,5.5-3,9.4"/>
	<path class="st4" d="M160.4,166.6c-2.1,0.7-4.9,2.5-6,5.6"/>
	<path class="st5" d="M102.7,28.4c12,0,27.6,8.1,30.5,19.8c0.5,2.1,4.2,12.4,1.6,23c-0.9,3.7-1.6,5-3.1,8.7
		c-1.6,4.2-3.9,6.5-6.6,10.3c-5,6.9-13.7,14.8-21.3,15.1c-7,0.2-16.9-6.8-21.2-13.4c-3.3-5.1-10.4-17.2-11.8-25.1
		c-0.7-3.8,2.9-4.3,2.9-7.5C73.8,39.3,85.3,28.4,102.7,28.4"/>
	<path class="st4" d="M102.7,28.4c12,0,27.6,8.1,30.5,19.8c0.5,2.1,4.2,12.4,1.6,23c-0.9,3.7-1.6,5-3.1,8.7
		c-1.6,4.2-3.9,6.5-6.6,10.3c-5,6.9-13.7,14.8-21.3,15.1c-7,0.2-16.9-6.8-21.2-13.4c-3.3-5.1-10.4-17.2-11.8-25.1
		c-0.7-3.8,2.9-4.3,2.9-7.5C73.8,39.3,85.3,28.4,102.7,28.4z"/>
	<polygon class="st6" points="130.7,67.6 130.7,67.6 130.7,67.6 130.7,67.6 130.8,67.6 130.8,67.6 130.8,67.6 130.8,67.6 
		130.9,67.6 130.9,67.6 130.9,67.6 130.9,67.6 130.9,67.6 131,67.6 131,67.6 131,67.6 131,67.7 131,67.7 131.1,67.7 131.1,67.7 
		131.1,67.7 131.1,67.7 131.1,67.7 131.2,67.7 131.2,67.7 131.2,67.7 131.2,67.8 131.2,67.8 131.2,67.8 131.3,67.8 131.3,67.8 
		131.3,67.8 131.3,67.8 131.3,67.9 131.3,67.9 131.4,67.9 131.4,67.9 131.4,67.9 131.4,67.9 131.4,68 131.4,68 131.4,68 131.5,68 
		131.5,68 131.5,68 131.5,68.1 131.5,68.1 131.5,68.1 131.5,68.1 131.5,68.1 131.5,68.2 131.5,68.2 131.5,68.2 131.6,68.2 
		131.6,68.2 131.6,68.3 131.6,68.3 131.6,68.3 131.6,68.3 131.6,68.4 131.6,68.4 131.6,68.4 131.6,68.4 131.6,68.4 131.6,68.5 
		131.6,68.5 131.6,68.5 131.6,68.5 131.6,68.6 131.6,68.6 131.6,68.6 131.6,68.6 131.6,68.6 131.6,68.7 131.6,68.7 131.6,68.7 
		131.6,68.7 131.6,68.8 131.6,68.8 131.6,68.8 131.6,68.8 131.6,68.9 131.6,68.9 131.6,68.9 131.6,68.9 131.6,69 131.6,69 131.6,69 
		131.6,69 131.6,69.1 131.6,69.1 131.6,69.1 131.6,69.1 131.6,69.2 131.6,69.2 131.6,69.2 131.6,69.2 131.5,69.3 131.5,69.3 
		131.5,69.3 131.5,69.4 131.5,69.4 131.5,69.4 131.5,69.4 131.5,69.5 131.5,69.5 131.5,69.5 131.5,69.5 131.4,69.6 131.4,69.6 
		131.4,69.6 131.4,69.7 131.4,69.7 131.4,69.7 131.4,69.7 131.4,69.8 131.3,69.8 131.3,69.8 131.3,69.9 131.3,69.9 131.3,69.9 
		131.3,69.9 131.3,70 131.2,70 131.2,70 131.2,70.1 131.2,70.1 131.2,70.1 131.2,70.2 131.1,70.2 131.1,70.2 131.1,70.2 131.1,70.3 
		131.1,70.3 131,70.3 131,70.4 131,70.4 131,70.4 131,70.5 130.9,70.5 130.9,70.5 130.9,70.5 130.9,70.6 130.8,70.6 130.8,70.6 
		130.8,70.7 130.8,70.7 130.7,70.7 130.7,70.8 130.7,70.8 130.7,70.8 130.6,70.8 130.6,70.9 130.6,70.9 130.6,70.9 130.5,71 
		130.5,71 130.5,71 130.5,71.1 130.4,71.1 130.4,71.1 130.4,71.2 130.3,71.2 130.3,71.2 130.3,71.2 130.2,71.3 130.2,71.3 
		130.2,71.3 130.1,71.4 130.1,71.4 130.1,71.4 130,71.5 130,71.5 130,71.5 129.9,71.6 129.9,71.6 129.9,71.6 129.8,71.7 129.8,71.7 
		129.8,71.7 129.7,71.7 129.7,71.8 129.6,71.8 129.6,71.8 129.6,71.9 129.5,71.9 129.5,71.9 129.4,72 129.4,72 129.4,72 129.3,72.1 
		129.3,72.1 129.2,72.1 129.2,72.1 129.1,72.2 129.1,72.2 129.1,72.2 129,72.3 129,72.3 128.9,72.3 128.9,72.4 128.8,72.4 
		128.8,72.4 128.5,72.4 128.6,72.1 128.6,72.1 128.7,72.1 128.7,72 128.8,72 128.8,72 128.9,71.9 128.9,71.9 128.9,71.9 129,71.9 
		129,71.8 129.1,71.8 129.1,71.8 129.1,71.7 129.2,71.7 129.2,71.7 129.2,71.6 129.3,71.6 129.3,71.6 129.4,71.5 129.4,71.5 
		129.4,71.5 129.5,71.4 129.5,71.4 129.5,71.4 129.6,71.4 129.6,71.3 129.6,71.3 129.7,71.3 129.7,71.2 129.7,71.2 129.8,71.2 
		129.8,71.1 129.8,71.1 129.9,71.1 129.9,71 129.9,71 129.9,71 130,71 130,70.9 130,70.9 130.1,70.9 130.1,70.8 130.1,70.8 
		130.1,70.8 130.2,70.7 130.2,70.7 130.2,70.7 130.2,70.7 130.3,70.6 130.3,70.6 130.3,70.6 130.3,70.5 130.3,70.5 130.4,70.5 
		130.4,70.4 130.4,70.4 130.4,70.4 130.5,70.4 130.5,70.3 130.5,70.3 130.5,70.3 130.5,70.2 130.6,70.2 130.6,70.2 130.6,70.2 
		130.6,70.1 130.6,70.1 130.6,70.1 130.7,70 130.7,70 130.7,70 130.7,70 130.7,69.9 130.7,69.9 130.8,69.9 130.8,69.9 130.8,69.8 
		130.8,69.8 130.8,69.8 130.8,69.8 130.8,69.7 130.9,69.7 130.9,69.7 130.9,69.6 130.9,69.6 130.9,69.6 130.9,69.6 130.9,69.5 
		130.9,69.5 130.9,69.5 130.9,69.5 131,69.4 131,69.4 131,69.4 131,69.4 131,69.4 131,69.3 131,69.3 131,69.3 131,69.3 131,69.2 
		131,69.2 131,69.2 131,69.2 131,69.1 131.1,69.1 131.1,69.1 131.1,69.1 131.1,69.1 131.1,69 131.1,69 131.1,69 131.1,69 131.1,69 
		131.1,68.9 131.1,68.9 131.1,68.9 131.1,68.9 131.1,68.9 131.1,68.8 131.1,68.8 131.1,68.8 131.1,68.8 131.1,68.8 131.1,68.8 
		131.1,68.7 131.1,68.7 131.1,68.7 131.1,68.7 131.1,68.7 131.1,68.7 131.1,68.6 131.1,68.6 131.1,68.6 131.1,68.6 131.1,68.6 
		131.1,68.6 131.1,68.6 131.1,68.5 131.1,68.5 131.1,68.5 131.1,68.5 131.1,68.5 131.1,68.5 131.1,68.5 131.1,68.5 131,68.4 
		131,68.4 131,68.4 131,68.4 131,68.4 131,68.4 131,68.4 131,68.4 131,68.4 131,68.4 131,68.3 131,68.3 131,68.3 131,68.3 131,68.3 
		131,68.3 131,68.3 131,68.3 131,68.3 131,68.3 130.9,68.3 130.9,68.3 130.9,68.3 130.9,68.3 130.9,68.3 130.9,68.3 130.9,68.2 
		130.9,68.2 130.9,68.2 130.9,68.2 130.9,68.2 130.9,68.2 130.9,68.2 130.9,68.2 130.9,68.2 130.8,68.2 130.8,68.2 130.8,68.2 
		130.8,68.2 130.8,68.2 130.8,68.2 130.8,68.2 130.8,68.2 130.8,68.2 130.8,68.2 130.8,68.2 130.8,68.2 130.7,68.2 130.7,68.2 
		130.7,68.2 130.7,68.2 130.7,68.2 130.7,68.2 130.7,68.2 130.7,68.2 130.7,68.2 130.7,68.2 130.6,68.2 130.6,68.2 130.6,68.2 
		130.6,68.2 130.6,68.2 130.6,68.2 130.6,68.2 130.6,68.2 130.5,68.2 130.5,68.2 130.5,68.2 130.5,68.2 130.5,68.2 130.5,68.2 
		130.4,68.2 130.4,68.2 130.4,68.2 130.4,68.2 130.4,68.2 130.4,68.2 130.4,68.3 130.3,68.3 130.3,68.3 130.3,68.3 130.3,68.3 
		130.3,68.3 130.2,68.3 130.2,68.3 130.2,68.3 130.2,68.3 130.2,68.3 130.2,68.3 130.1,68.4 130.1,68.4 130.1,68.4 130.1,68.4 
		130.1,68.4 130,68.4 130,68.4 130,68.4 130,68.5 130,68.5 129.9,68.5 129.9,68.5 129.9,68.5 129.9,68.5 129.8,68.6 129.8,68.6 
		129.8,68.6 129.8,68.6 129.8,68.6 129.7,68.6 129.7,68.7 129.7,68.7 129.5,68.7 129.3,68.6 129.3,68.6 129.3,68.6 129.2,68.4 
		129.3,68.2 129.3,68.1 129.4,68.1 129.4,68.1 129.4,68.1 129.4,68.1 129.5,68 129.5,68 129.5,68 129.5,68 129.6,68 129.6,68 
		129.6,67.9 129.7,67.9 129.7,67.9 129.7,67.9 129.7,67.9 129.8,67.9 129.8,67.8 129.8,67.8 129.8,67.8 129.9,67.8 129.9,67.8 
		129.9,67.8 129.9,67.8 130,67.8 130,67.7 130,67.7 130,67.7 130.1,67.7 130.1,67.7 130.1,67.7 130.1,67.7 130.2,67.7 130.2,67.7 
		130.2,67.7 130.2,67.6 130.3,67.6 130.3,67.6 130.3,67.6 130.3,67.6 130.4,67.6 130.4,67.6 130.4,67.6 130.4,67.6 130.5,67.6 
		130.5,67.6 130.5,67.6 130.5,67.6 130.6,67.6 130.6,67.6 130.6,67.6 130.6,67.6 130.6,67.6 	"/>
	<polygon class="st6" points="75.3,67.6 75.3,67.6 75.3,67.6 75.3,67.7 75.4,67.7 75.4,67.7 75.4,67.7 75.4,67.7 75.5,67.7 
		75.5,67.7 75.5,67.7 75.5,67.7 75.5,67.7 75.6,67.7 75.6,67.7 75.6,67.7 75.6,67.7 75.7,67.7 75.7,67.7 75.7,67.8 75.7,67.8 
		75.8,67.8 75.8,67.8 75.8,67.8 75.9,67.8 75.9,67.8 75.9,67.8 75.9,67.8 76,67.9 76,67.9 76,67.9 76,67.9 76.1,67.9 76.1,67.9 
		76.1,68 76.1,68 76.2,68 76.2,68 76.2,68 76.2,68.1 76.3,68.1 76.3,68.1 76.3,68.1 76.4,68.1 76.4,68.2 76.4,68.2 76.4,68.2 
		76.5,68.2 76.5,68.2 76.6,68.5 76.5,68.7 76.5,68.7 76.5,68.7 76.3,68.8 76,68.7 76,68.7 76,68.7 76,68.7 76,68.6 75.9,68.6 
		75.9,68.6 75.9,68.6 75.9,68.6 75.9,68.6 75.8,68.5 75.8,68.5 75.8,68.5 75.8,68.5 75.8,68.5 75.7,68.5 75.7,68.4 75.7,68.4 
		75.7,68.4 75.7,68.4 75.6,68.4 75.6,68.4 75.6,68.4 75.6,68.4 75.6,68.4 75.5,68.3 75.5,68.3 75.5,68.3 75.5,68.3 75.5,68.3 
		75.5,68.3 75.5,68.3 75.4,68.3 75.4,68.3 75.4,68.3 75.4,68.3 75.4,68.3 75.4,68.3 75.4,68.3 75.3,68.3 75.3,68.3 75.3,68.3 
		75.3,68.3 75.3,68.3 75.3,68.2 75.3,68.2 75.3,68.2 75.2,68.2 75.2,68.2 75.2,68.2 75.2,68.2 75.2,68.2 75.2,68.2 75.2,68.2 
		75.2,68.2 75.2,68.2 75.2,68.2 75.2,68.2 75.1,68.2 75.1,68.2 75.1,68.2 75.1,68.3 75.1,68.3 75.1,68.3 75.1,68.3 75.1,68.3 
		75.1,68.3 75.1,68.3 75.1,68.3 75.1,68.3 75.1,68.3 75.1,68.3 75.1,68.3 75.1,68.3 75.1,68.3 75,68.3 75,68.3 75,68.3 75,68.3 
		75,68.3 75,68.3 75,68.3 75,68.3 75,68.3 75,68.3 75,68.3 75,68.3 75,68.4 75,68.4 75,68.4 75,68.4 75,68.4 75,68.4 75,68.4 
		75,68.4 75,68.4 75,68.4 74.9,68.4 74.9,68.4 74.9,68.5 74.9,68.5 74.9,68.5 74.9,68.5 74.9,68.5 74.9,68.5 74.9,68.5 74.9,68.5 
		74.9,68.5 74.9,68.6 74.9,68.6 74.9,68.6 74.9,68.6 74.9,68.6 74.9,68.6 74.9,68.6 74.9,68.7 74.9,68.7 74.9,68.7 74.9,68.7 
		74.9,68.7 74.9,68.7 74.9,68.8 74.9,68.8 74.9,68.8 74.9,68.8 74.9,68.8 74.9,68.8 74.9,68.9 74.9,68.9 74.9,68.9 74.9,68.9 
		74.9,68.9 74.9,69 74.9,69 74.9,69 74.9,69 74.9,69 74.9,69.1 75,69.1 75,69.1 75,69.1 75,69.1 75,69.2 75,69.2 75,69.2 75,69.2 
		75,69.2 75,69.3 75,69.3 75,69.3 75,69.3 75,69.3 75.1,69.4 75.1,69.4 75.1,69.4 75.1,69.4 75.1,69.5 75.1,69.5 75.1,69.5 
		75.1,69.5 75.1,69.6 75.2,69.6 75.2,69.6 75.2,69.6 75.2,69.6 75.2,69.7 75.2,69.7 75.2,69.7 75.2,69.7 75.3,69.8 75.3,69.8 
		75.3,69.8 75.3,69.8 75.3,69.9 75.3,69.9 75.4,69.9 75.4,69.9 75.4,70 75.4,70 75.4,70 75.5,70 75.5,70.1 75.5,70.1 75.5,70.1 
		75.5,70.1 75.6,70.2 75.6,70.2 75.6,70.2 75.6,70.2 75.6,70.3 75.7,70.3 75.7,70.3 75.7,70.3 75.7,70.4 75.8,70.4 75.8,70.4 
		75.8,70.4 75.8,70.4 75.9,70.5 75.9,70.5 75.9,70.5 75.9,70.5 76,70.6 76,70.6 76,70.6 76.1,70.6 76.1,70.7 76.1,70.7 76.1,70.7 
		76.2,70.7 76.2,70.8 76.2,70.8 76.3,70.8 76.3,70.8 76.3,70.9 76.4,70.9 76.4,70.9 76.4,70.9 76.5,70.9 76.5,71 76.5,71 76.6,71 
		76.6,71 76.6,71.1 76.7,71.1 76.7,71.1 76.8,71.1 76.8,71.2 76.8,71.2 76.9,71.2 76.9,71.2 77,71.2 77,71.3 77,71.3 77.1,71.3 
		77.1,71.3 77.2,71.3 77.2,71.4 77.2,71.4 77.3,71.4 77.3,71.4 77.4,71.4 77.4,71.5 77.5,71.5 77.5,71.5 77.6,71.5 77.6,71.5 
		77.7,71.6 77.7,71.6 77.8,71.6 77.8,71.6 77.9,71.6 77.9,71.7 78,71.7 78,71.7 78.1,71.7 78.1,71.7 78.2,71.7 78.3,72 78.1,72.1 
		78,72.1 78,72 77.9,72 77.8,72 77.8,72 77.7,72 77.7,72 77.6,71.9 77.6,71.9 77.5,71.9 77.5,71.9 77.4,71.9 77.4,71.8 77.3,71.8 
		77.3,71.8 77.2,71.8 77.2,71.8 77.1,71.8 77.1,71.7 77,71.7 77,71.7 77,71.7 76.9,71.7 76.9,71.6 76.8,71.6 76.8,71.6 76.7,71.6 
		76.7,71.6 76.6,71.5 76.6,71.5 76.6,71.5 76.5,71.5 76.5,71.4 76.4,71.4 76.4,71.4 76.4,71.4 76.3,71.4 76.3,71.3 76.2,71.3 
		76.2,71.3 76.2,71.3 76.1,71.2 76.1,71.2 76.1,71.2 76,71.2 76,71.1 75.9,71.1 75.9,71.1 75.9,71.1 75.8,71 75.8,71 75.8,71 
		75.7,71 75.7,70.9 75.7,70.9 75.7,70.9 75.6,70.9 75.6,70.8 75.6,70.8 75.5,70.8 75.5,70.8 75.5,70.7 75.4,70.7 75.4,70.7 
		75.4,70.7 75.4,70.6 75.3,70.6 75.3,70.6 75.3,70.6 75.3,70.5 75.2,70.5 75.2,70.5 75.2,70.4 75.2,70.4 75.1,70.4 75.1,70.4 
		75.1,70.3 75.1,70.3 75,70.3 75,70.3 75,70.2 75,70.2 75,70.2 74.9,70.2 74.9,70.1 74.9,70.1 74.9,70.1 74.9,70 74.8,70 74.8,70 
		74.8,70 74.8,69.9 74.8,69.9 74.7,69.9 74.7,69.9 74.7,69.8 74.7,69.8 74.7,69.8 74.7,69.7 74.7,69.7 74.6,69.7 74.6,69.7 
		74.6,69.6 74.6,69.6 74.6,69.6 74.6,69.6 74.6,69.5 74.5,69.5 74.5,69.5 74.5,69.5 74.5,69.4 74.5,69.4 74.5,69.4 74.5,69.3 
		74.5,69.3 74.5,69.3 74.5,69.3 74.4,69.2 74.4,69.2 74.4,69.2 74.4,69.2 74.4,69.1 74.4,69.1 74.4,69.1 74.4,69.1 74.4,69 74.4,69 
		74.4,69 74.4,69 74.4,68.9 74.4,68.9 74.4,68.9 74.4,68.9 74.4,68.8 74.4,68.8 74.4,68.8 74.4,68.8 74.4,68.7 74.4,68.7 74.4,68.7 
		74.4,68.7 74.4,68.6 74.4,68.6 74.4,68.6 74.4,68.6 74.4,68.6 74.4,68.5 74.4,68.5 74.4,68.5 74.4,68.5 74.4,68.4 74.4,68.4 
		74.4,68.4 74.4,68.4 74.4,68.3 74.4,68.3 74.4,68.3 74.4,68.3 74.4,68.3 74.4,68.2 74.4,68.2 74.4,68.2 74.4,68.2 74.4,68.2 
		74.5,68.1 74.5,68.1 74.5,68.1 74.5,68.1 74.5,68.1 74.5,68 74.5,68 74.5,68 74.5,68 74.6,68 74.6,68 74.6,67.9 74.6,67.9 
		74.6,67.9 74.6,67.9 74.6,67.9 74.7,67.9 74.7,67.8 74.7,67.8 74.7,67.8 74.7,67.8 74.8,67.8 74.8,67.8 74.8,67.8 74.8,67.8 
		74.8,67.7 74.8,67.7 74.9,67.7 74.9,67.7 74.9,67.7 74.9,67.7 75,67.7 75,67.7 75,67.7 75,67.7 75,67.7 75.1,67.7 75.1,67.7 
		75.1,67.7 75.1,67.7 75.2,67.6 75.2,67.6 75.2,67.6 75.2,67.6 	"/>
	<path class="st7" d="M104.9,78.3c3.9-0.5,4.4-2.9,2.5-4.3"/>
	<polygon class="st6" points="95.8,76 95.8,76 95.8,76 95.8,76 95.8,76 95.8,76 95.9,75.9 95.9,75.9 95.9,75.9 95.9,75.9 95.9,75.9 
		95.9,75.9 95.9,75.9 96,75.8 96,75.8 96,75.8 96,75.8 96,75.8 96,75.8 96,75.7 96.1,75.7 96.1,75.7 96.1,75.7 96.1,75.7 96.1,75.6 
		96.1,75.6 96.1,75.6 96.2,75.6 96.2,75.6 96.2,75.6 96.2,75.5 96.2,75.5 96.2,75.5 96.2,75.5 96.2,75.5 96.3,75.4 96.3,75.4 
		96.3,75.4 96.3,75.4 96.3,75.4 96.3,75.3 96.3,75.3 96.3,75.3 96.4,75.3 96.4,75.3 96.4,75.2 96.4,75.2 96.4,75.2 96.4,75.2 
		96.4,75.2 96.4,75.1 96.5,75.1 96.5,75.1 96.5,75.1 96.5,75 96.5,75 96.5,75 96.5,75 96.5,75 96.6,74.9 96.6,74.9 96.6,74.9 
		96.6,74.9 96.6,74.8 96.6,74.8 96.6,74.8 96.6,74.8 96.6,74.7 96.7,74.7 96.7,74.7 96.7,74.7 96.7,74.7 96.7,74.6 96.7,74.6 
		96.7,74.6 96.7,74.6 96.7,74.6 96.8,74.5 96.8,74.5 96.8,74.5 96.8,74.5 96.8,74.5 96.8,74.4 96.8,74.4 96.8,74.4 96.8,74.4 
		96.8,74.4 96.9,74.3 96.9,74.3 96.9,74.3 96.9,74.3 96.9,74.2 96.9,74.2 96.9,74.2 97,74.2 97,74.2 97,74.1 97,74.1 97,74.1 97,74 
		97,74 97,74 97.1,74 97.1,74 97.1,73.9 97.1,73.9 97.1,73.9 97.1,73.8 97.1,73.8 97.1,73.8 97.2,73.8 97.2,73.7 97.2,73.7 
		97.2,73.7 97.2,73.6 97.2,73.6 97.2,73.6 97.3,73.5 97.3,73.5 97.3,73.5 97.3,73.4 97.3,73.4 97.3,73.4 97.3,73.4 97.3,73.3 
		97.4,73.3 97.4,73.3 97.4,73.2 97.4,73.2 97.4,73.2 97.4,73.1 97.4,73.1 97.4,73.1 97.4,73 97.5,73 97.5,73 97.5,72.9 97.6,72.8 
		97.8,73 97.8,73 97.8,73 97.8,73 97.8,73.1 97.8,73.1 97.8,73.2 97.8,73.2 97.8,73.2 97.8,73.3 97.8,73.3 97.8,73.4 97.8,73.4 
		97.8,73.4 97.8,73.4 97.8,73.5 97.8,73.5 97.8,73.6 97.8,73.6 97.8,73.6 97.8,73.7 97.8,73.7 97.8,73.7 97.8,73.8 97.8,73.8 
		97.8,73.9 97.8,73.9 97.8,73.9 97.8,74 97.8,74 97.8,74 97.8,74.1 97.8,74.1 97.8,74.2 97.8,74.2 97.8,74.2 97.8,74.2 97.7,74.3 
		97.7,74.3 97.7,74.3 97.7,74.4 97.7,74.4 97.7,74.4 97.7,74.5 97.7,74.5 97.7,74.5 97.7,74.5 97.7,74.6 97.6,74.6 97.6,74.7 
		97.6,74.7 97.6,74.7 97.6,74.7 97.6,74.8 97.6,74.8 97.6,74.8 97.6,74.8 97.6,74.9 97.5,74.9 97.5,74.9 97.5,74.9 97.5,75 97.5,75 
		97.5,75 97.5,75 97.4,75.1 97.4,75.1 97.4,75.1 97.4,75.1 97.4,75.1 97.4,75.2 97.4,75.2 97.3,75.2 97.3,75.3 97.3,75.3 97.3,75.3 
		97.3,75.3 97.2,75.4 97.2,75.4 97.2,75.4 97.2,75.4 97.2,75.5 97.1,75.5 97.1,75.5 97.1,75.5 97.1,75.5 97.1,75.5 97,75.6 97,75.6 
		97,75.6 97,75.6 97,75.7 96.9,75.7 96.9,75.7 96.9,75.7 96.9,75.7 96.9,75.7 96.8,75.8 96.8,75.8 96.8,75.8 96.8,75.8 96.8,75.8 
		96.7,75.9 96.7,75.9 96.7,75.9 96.7,75.9 96.6,75.9 96.6,75.9 96.6,75.9 96.6,76 96.6,76 96.6,76 96.5,76 96.5,76 96.5,76 96.5,76 
		96.4,76.1 96.4,76.1 96.4,76.1 96.4,76.1 96.4,76.1 96.3,76.1 96.3,76.1 96.3,76.1 96.3,76.2 96.2,76.2 96.2,76.2 96.2,76.2 
		96.2,76.2 96.2,76.2 96.1,76.2 96.1,76.2 96.1,76.2 96.1,76.2 96.1,76.3 96,76.3 96,76.3 96,76.3 96,76.3 96,76.3 95.9,76.3 
		95.9,76.3 95.7,76.2 95.8,76 	"/>
	<path class="st8" d="M111.9,95.3c0.9-1.3,2.9-2,3.8-2"/>
</g>
<g>
	<defs>
		<path id="SVGID_7_" d="M87.8,65.7c3.6,0.6,7,0.6,10.3,0.1c-0.1-1.4-0.3-3-2-3.4c-0.6-0.2-1.3-0.3-2-0.3
			C91,62.1,87.3,63.5,87.8,65.7"/>
	</defs>
	<clipPath id="SVGID_8_">
		<use xlink:href="#SVGID_7_"  style="overflow:visible;"/>
	</clipPath>
	<path class="st9" d="M92.9,61.7c1.5,0,2.7,1.2,2.7,2.7c0,1.5-1.2,2.7-2.7,2.7c-1.5,0-2.7-1.2-2.7-2.7
		C90.2,62.9,91.4,61.7,92.9,61.7"/>
	<path class="st10" d="M94.2,63.1c0.3,0,0.5,0.2,0.5,0.5s-0.2,0.5-0.5,0.5c-0.3,0-0.5-0.2-0.5-0.5S94,63.1,94.2,63.1"/>
</g>
<g>
	<defs>
		<rect id="SVGID_9_" width="283.5" height="283.5"/>
	</defs>
	<clipPath id="SVGID_10_">
		<use xlink:href="#SVGID_9_"  style="overflow:visible;"/>
	</clipPath>
	<path class="st11" d="M87.8,65.7c3.6,0.6,7,0.6,10.3,0.1c-0.1-1.4-0.3-3-2-3.4C93,61.5,87.2,62.9,87.8,65.7z"/>
</g>
<g>
	<defs>
		<path id="SVGID_11_" d="M111.1,62.2c-1.6,0.5-1.9,2.1-1.9,3.6c3.2,0.5,6.6,0.6,10.1-0.1c0.5-2.3-3.2-3.8-6.2-3.8
			C112.4,61.9,111.7,62,111.1,62.2"/>
	</defs>
	<clipPath id="SVGID_12_">
		<use xlink:href="#SVGID_11_"  style="overflow:visible;"/>
	</clipPath>
	<path class="st12" d="M113.9,61.7c1.4,0,2.6,1.2,2.6,2.7c0,1.5-1.2,2.7-2.6,2.7c-1.4,0-2.6-1.2-2.6-2.7
		C111.3,62.9,112.5,61.7,113.9,61.7"/>
	<path class="st13" d="M115.3,63.1c0.3,0,0.5,0.2,0.5,0.5c0,0.3-0.2,0.5-0.5,0.5c-0.3,0-0.5-0.2-0.5-0.5
		C114.8,63.4,115,63.1,115.3,63.1"/>
</g>
<g>
	<defs>
		<rect id="SVGID_13_" width="283.5" height="283.5"/>
	</defs>
	<clipPath id="SVGID_14_">
		<use xlink:href="#SVGID_13_"  style="overflow:visible;"/>
	</clipPath>
	<path class="st14" d="M119.3,65.7c-3.5,0.7-6.9,0.6-10.1,0.1c0.1-1.4,0.3-3.1,1.9-3.6C114.1,61.3,119.9,62.8,119.3,65.7z"/>
	<path class="st15" d="M101.8,59.6c1.3,7.6-1.3,13.9-3.6,15.9c0.3,1.7,2.2,2.5,3.8,2.8"/>
	<polygon class="st16" points="95.2,54.6 95.2,54.6 95.3,54.6 95.3,54.6 95.4,54.6 95.4,54.6 95.5,54.6 95.5,54.6 95.6,54.6 
		95.6,54.6 95.7,54.6 95.8,54.6 95.8,54.6 95.9,54.6 95.9,54.6 96,54.6 96,54.6 96.1,54.6 96.1,54.6 96.2,54.6 96.2,54.6 96.3,54.6 
		96.3,54.7 96.4,54.7 96.4,54.7 96.5,54.7 96.6,54.7 96.6,54.7 96.7,54.7 96.7,54.7 96.8,54.7 96.8,54.7 96.9,54.7 96.9,54.8 
		97,54.8 97,54.8 97.1,54.8 97.1,54.8 97.2,54.8 97.2,54.8 97.3,54.8 97.3,54.8 97.4,54.9 97.4,54.9 97.5,54.9 97.5,54.9 97.6,54.9 
		97.6,54.9 97.7,55 97.7,55 97.8,55 97.8,55 97.9,55 97.9,55 98,55.1 98,55.1 98.1,55.1 98.1,55.1 98.2,55.1 98.2,55.2 98.3,55.2 
		98.3,55.2 98.4,55.2 98.4,55.2 98.5,55.3 98.5,55.3 98.6,55.3 98.6,55.3 98.6,55.3 99,55.6 99.2,56 99.2,56.4 99.1,56.8 99.1,56.8 
		99.1,56.8 98.8,57.1 98.5,57.3 98.1,57.4 97.6,57.2 97.6,57.2 97.6,57.2 97.6,57.2 97.5,57.2 97.5,57.2 97.5,57.2 97.5,57.1 
		97.4,57.1 97.4,57.1 97.4,57.1 97.3,57.1 97.3,57.1 97.3,57.1 97.2,57 97.2,57 97.2,57 97.1,57 97.1,57 97.1,57 97,57 97,56.9 
		96.9,56.9 96.9,56.9 96.9,56.9 96.8,56.9 96.8,56.9 96.8,56.9 96.7,56.9 96.7,56.8 96.7,56.8 96.6,56.8 96.6,56.8 96.5,56.8 
		96.5,56.8 96.5,56.8 96.4,56.8 96.4,56.8 96.4,56.8 96.3,56.8 96.3,56.7 96.2,56.7 96.2,56.7 96.2,56.7 96.1,56.7 96.1,56.7 
		96,56.7 96,56.7 96,56.7 95.9,56.7 95.9,56.7 95.8,56.7 95.8,56.7 95.7,56.7 95.7,56.6 95.7,56.6 95.6,56.6 95.6,56.6 95.5,56.6 
		95.5,56.6 95.5,56.6 95.4,56.6 95.4,56.6 95.3,56.6 95.3,56.6 95.2,56.6 95.2,56.6 95.2,56.6 95.1,56.6 95.1,56.6 95,56.6 95,56.6 
		94.9,56.6 94.9,56.6 94.9,56.6 94.8,56.6 94.8,56.6 94.7,56.6 94.7,56.6 94.6,56.6 94.6,56.6 94.5,56.6 94.5,56.6 94.5,56.6 
		94.4,56.6 94.4,56.6 94.3,56.6 94.3,56.6 94.2,56.6 94.2,56.6 94.1,56.6 94.1,56.6 94,56.6 94,56.6 94,56.6 93.9,56.6 93.9,56.6 
		93.8,56.6 93.8,56.6 93.7,56.6 93.7,56.6 93.6,56.7 93.6,56.7 93.5,56.7 93.5,56.7 93.5,56.7 93.4,56.7 93.4,56.7 93.3,56.7 
		93.3,56.7 93.2,56.7 93.2,56.7 93.1,56.7 93.1,56.7 93,56.7 93,56.7 93,56.8 92.9,56.8 92.9,56.8 92.8,56.8 92.8,56.8 92.7,56.8 
		92.7,56.8 92.6,56.8 92.6,56.8 92.5,56.8 92.5,56.9 92.5,56.9 92.4,56.9 92.4,56.9 92.3,56.9 92.3,56.9 92.2,56.9 92.2,56.9 
		92.1,56.9 92.1,57 92,57 92,57 92,57 91.9,57 91.9,57 91.8,57 91.8,57.1 91.7,57.1 91.7,57.1 91.6,57.1 91.6,57.1 91.6,57.1 
		91.5,57.1 91.5,57.2 91.4,57.2 91.4,57.2 91.3,57.2 91.3,57.2 91.2,57.2 91.2,57.3 91.2,57.3 91.1,57.3 91.1,57.3 91,57.3 91,57.3 
		90.9,57.4 90.9,57.4 90.9,57.4 90.8,57.4 90.8,57.4 90.7,57.4 90.7,57.5 90.7,57.5 90.6,57.5 90.6,57.5 90.5,57.5 90.5,57.6 
		90.4,57.6 90.4,57.6 90.4,57.6 90.3,57.6 90.3,57.7 90.2,57.7 90.2,57.7 90.2,57.7 90.1,57.7 90.1,57.8 90,57.8 90,57.8 90,57.8 
		89.9,57.8 89.9,57.9 89.8,57.9 89.8,57.9 89.8,57.9 89.7,58 89.7,58 89.7,58 89.6,58 89.6,58.1 89.5,58.1 89.5,58.1 89.5,58.1 
		89.4,58.1 89.4,58.2 89.4,58.2 89.3,58.2 89.3,58.2 89.3,58.3 89.2,58.3 89.2,58.3 89.2,58.3 89.1,58.4 89.1,58.4 89.1,58.4 
		89,58.4 89,58.5 89,58.5 88.9,58.5 88.9,58.5 88.9,58.6 88.8,58.6 88.8,58.6 88.8,58.6 88.7,58.7 88.7,58.7 88.7,58.7 88.6,58.8 
		88.6,58.8 88.6,58.8 88.5,58.8 88.5,58.9 88.5,58.9 88.5,58.9 88.4,58.9 88.4,59 88.4,59 88.3,59 88.3,59.1 88.3,59.1 88.3,59.1 
		88.2,59.1 88.2,59.2 88.2,59.2 88.2,59.2 88.1,59.3 88.1,59.3 88.1,59.3 88.1,59.3 88,59.4 88,59.4 88,59.4 88,59.5 87.9,59.5 
		87.9,59.5 87.9,59.5 87.9,59.6 87.8,59.6 87.8,59.6 87.8,59.7 87.8,59.7 87.8,59.7 87.8,59.7 87.2,60.1 86.6,60 86.6,60 86.3,59.5 
		86.4,58.9 86.4,58.8 86.5,58.8 86.5,58.7 86.5,58.7 86.5,58.6 86.6,58.6 86.6,58.6 86.6,58.5 86.7,58.5 86.7,58.4 86.7,58.4 
		86.7,58.4 86.8,58.3 86.8,58.3 86.8,58.2 86.9,58.2 86.9,58.2 86.9,58.1 87,58.1 87,58 87,58 87.1,58 87.1,57.9 87.1,57.9 
		87.2,57.9 87.2,57.8 87.2,57.8 87.3,57.7 87.3,57.7 87.3,57.7 87.4,57.6 87.4,57.6 87.5,57.6 87.5,57.5 87.5,57.5 87.6,57.5 
		87.6,57.4 87.6,57.4 87.7,57.3 87.7,57.3 87.8,57.3 87.8,57.2 87.8,57.2 87.9,57.2 87.9,57.1 88,57.1 88,57.1 88,57 88.1,57 
		88.1,57 88.2,56.9 88.2,56.9 88.2,56.9 88.3,56.8 88.3,56.8 88.4,56.8 88.4,56.8 88.5,56.7 88.5,56.7 88.5,56.7 88.6,56.6 
		88.6,56.6 88.7,56.6 88.7,56.5 88.8,56.5 88.8,56.5 88.8,56.5 88.9,56.4 88.9,56.4 89,56.4 89,56.3 89.1,56.3 89.1,56.3 89.2,56.3 
		89.2,56.2 89.3,56.2 89.3,56.2 89.3,56.1 89.4,56.1 89.4,56.1 89.5,56.1 89.5,56 89.6,56 89.6,56 89.7,56 89.7,55.9 89.8,55.9 
		89.8,55.9 89.9,55.9 89.9,55.8 90,55.8 90,55.8 90.1,55.8 90.1,55.7 90.2,55.7 90.2,55.7 90.3,55.7 90.3,55.6 90.4,55.6 90.4,55.6 
		90.5,55.6 90.5,55.6 90.6,55.5 90.6,55.5 90.7,55.5 90.7,55.5 90.8,55.5 90.8,55.4 90.9,55.4 90.9,55.4 91,55.4 91,55.4 91.1,55.3 
		91.1,55.3 91.2,55.3 91.2,55.3 91.3,55.3 91.3,55.2 91.4,55.2 91.4,55.2 91.5,55.2 91.5,55.2 91.6,55.2 91.6,55.1 91.7,55.1 
		91.8,55.1 91.8,55.1 91.9,55.1 91.9,55.1 92,55 92,55 92.1,55 92.1,55 92.2,55 92.2,55 92.3,55 92.3,54.9 92.4,54.9 92.4,54.9 
		92.5,54.9 92.6,54.9 92.6,54.9 92.7,54.9 92.7,54.9 92.8,54.8 92.8,54.8 92.9,54.8 92.9,54.8 93,54.8 93,54.8 93.1,54.8 93.1,54.8 
		93.2,54.8 93.3,54.7 93.3,54.7 93.4,54.7 93.4,54.7 93.5,54.7 93.5,54.7 93.6,54.7 93.6,54.7 93.7,54.7 93.7,54.7 93.8,54.7 
		93.9,54.7 93.9,54.6 94,54.6 94,54.6 94.1,54.6 94.1,54.6 94.2,54.6 94.2,54.6 94.3,54.6 94.3,54.6 94.4,54.6 94.5,54.6 94.5,54.6 
		94.6,54.6 94.6,54.6 94.7,54.6 94.7,54.6 94.8,54.6 94.8,54.6 94.9,54.6 94.9,54.6 95,54.6 95.1,54.6 95.1,54.6 	"/>
	<polygon class="st16" points="110.7,54.6 110.8,54.6 110.8,54.6 110.9,54.6 110.9,54.6 111,54.6 111,54.6 111.1,54.6 111.1,54.6 
		111.2,54.6 111.2,54.6 111.3,54.6 111.4,54.6 111.4,54.6 111.5,54.6 111.5,54.6 111.6,54.6 111.6,54.6 111.7,54.6 111.7,54.6 
		111.8,54.6 111.8,54.6 111.9,54.7 112,54.7 112,54.7 112.1,54.7 112.1,54.7 112.2,54.7 112.2,54.7 112.3,54.7 112.3,54.7 
		112.4,54.7 112.4,54.7 112.5,54.7 112.6,54.8 112.6,54.8 112.7,54.8 112.7,54.8 112.8,54.8 112.8,54.8 112.9,54.8 112.9,54.8 
		113,54.8 113,54.9 113.1,54.9 113.1,54.9 113.2,54.9 113.3,54.9 113.3,54.9 113.4,54.9 113.4,54.9 113.5,55 113.5,55 113.6,55 
		113.6,55 113.7,55 113.7,55 113.8,55 113.8,55.1 113.9,55.1 113.9,55.1 114,55.1 114.1,55.1 114.1,55.1 114.2,55.2 114.2,55.2 
		114.3,55.2 114.3,55.2 114.4,55.2 114.4,55.2 114.5,55.3 114.5,55.3 114.6,55.3 114.6,55.3 114.7,55.3 114.7,55.4 114.8,55.4 
		114.8,55.4 114.9,55.4 114.9,55.4 115,55.5 115,55.5 115.1,55.5 115.1,55.5 115.2,55.5 115.2,55.6 115.3,55.6 115.3,55.6 
		115.4,55.6 115.4,55.6 115.5,55.7 115.5,55.7 115.6,55.7 115.6,55.7 115.7,55.8 115.7,55.8 115.8,55.8 115.8,55.8 115.9,55.9 
		115.9,55.9 116,55.9 116,55.9 116.1,56 116.1,56 116.2,56 116.2,56 116.3,56.1 116.3,56.1 116.4,56.1 116.4,56.1 116.4,56.2 
		116.5,56.2 116.5,56.2 116.6,56.3 116.6,56.3 116.7,56.3 116.7,56.3 116.8,56.4 116.8,56.4 116.9,56.4 116.9,56.5 116.9,56.5 
		117,56.5 117,56.5 117.1,56.6 117.1,56.6 117.2,56.6 117.2,56.7 117.3,56.7 117.3,56.7 117.3,56.8 117.4,56.8 117.4,56.8 
		117.5,56.8 117.5,56.9 117.6,56.9 117.6,56.9 117.6,57 117.7,57 117.7,57 117.8,57.1 117.8,57.1 117.8,57.1 117.9,57.2 117.9,57.2 
		118,57.2 118,57.3 118,57.3 118.1,57.3 118.1,57.4 118.1,57.4 118.2,57.5 118.2,57.5 118.3,57.5 118.3,57.6 118.3,57.6 118.4,57.6 
		118.4,57.7 118.4,57.7 118.5,57.7 118.5,57.8 118.5,57.8 118.6,57.9 118.6,57.9 118.7,57.9 118.7,58 118.7,58 118.8,58 118.8,58.1 
		118.8,58.1 118.8,58.2 118.9,58.2 118.9,58.2 118.9,58.3 119,58.3 119,58.4 119,58.4 119.1,58.4 119.1,58.5 119.1,58.5 119.2,58.6 
		119.2,58.6 119.2,58.6 119.2,58.7 119.3,58.7 119.3,58.8 119.3,58.8 119.3,58.8 119.3,58.9 119.5,59.5 119.1,60 119.1,60 
		118.5,60.1 118,59.7 118,59.7 118,59.7 117.9,59.7 117.9,59.6 117.9,59.6 117.9,59.6 117.9,59.5 117.8,59.5 117.8,59.5 117.8,59.5 
		117.8,59.4 117.7,59.4 117.7,59.4 117.7,59.3 117.7,59.3 117.6,59.3 117.6,59.3 117.6,59.2 117.6,59.2 117.5,59.2 117.5,59.1 
		117.5,59.1 117.5,59.1 117.4,59.1 117.4,59 117.4,59 117.4,59 117.3,58.9 117.3,58.9 117.3,58.9 117.2,58.9 117.2,58.8 117.2,58.8 
		117.1,58.8 117.1,58.8 117.1,58.7 117.1,58.7 117,58.7 117,58.6 117,58.6 116.9,58.6 116.9,58.6 116.9,58.5 116.8,58.5 116.8,58.5 
		116.8,58.5 116.7,58.4 116.7,58.4 116.7,58.4 116.6,58.4 116.6,58.3 116.6,58.3 116.5,58.3 116.5,58.3 116.5,58.2 116.4,58.2 
		116.4,58.2 116.4,58.2 116.3,58.1 116.3,58.1 116.2,58.1 116.2,58.1 116.2,58.1 116.1,58 116.1,58 116.1,58 116,58 116,57.9 
		115.9,57.9 115.9,57.9 115.9,57.9 115.8,57.8 115.8,57.8 115.7,57.8 115.7,57.8 115.7,57.8 115.6,57.7 115.6,57.7 115.6,57.7 
		115.5,57.7 115.5,57.7 115.4,57.6 115.4,57.6 115.3,57.6 115.3,57.6 115.3,57.6 115.2,57.5 115.2,57.5 115.1,57.5 115.1,57.5 
		115.1,57.5 115,57.4 115,57.4 114.9,57.4 114.9,57.4 114.8,57.4 114.8,57.4 114.8,57.3 114.7,57.3 114.7,57.3 114.6,57.3 
		114.6,57.3 114.5,57.3 114.5,57.2 114.5,57.2 114.4,57.2 114.4,57.2 114.3,57.2 114.3,57.2 114.2,57.1 114.2,57.1 114.2,57.1 
		114.1,57.1 114.1,57.1 114,57.1 114,57.1 113.9,57 113.9,57 113.8,57 113.8,57 113.8,57 113.7,57 113.7,57 113.6,56.9 113.6,56.9 
		113.5,56.9 113.5,56.9 113.4,56.9 113.4,56.9 113.3,56.9 113.3,56.9 113.3,56.9 113.2,56.8 113.2,56.8 113.1,56.8 113.1,56.8 
		113,56.8 113,56.8 112.9,56.8 112.9,56.8 112.8,56.8 112.8,56.8 112.8,56.7 112.7,56.7 112.7,56.7 112.6,56.7 112.6,56.7 
		112.5,56.7 112.5,56.7 112.4,56.7 112.4,56.7 112.3,56.7 112.3,56.7 112.2,56.7 112.2,56.7 112.2,56.7 112.1,56.7 112.1,56.6 
		112,56.6 112,56.6 111.9,56.6 111.9,56.6 111.8,56.6 111.8,56.6 111.7,56.6 111.7,56.6 111.7,56.6 111.6,56.6 111.6,56.6 
		111.5,56.6 111.5,56.6 111.4,56.6 111.4,56.6 111.3,56.6 111.3,56.6 111.3,56.6 111.2,56.6 111.2,56.6 111.1,56.6 111.1,56.6 
		111,56.6 111,56.6 110.9,56.6 110.9,56.6 110.9,56.6 110.8,56.6 110.8,56.6 110.7,56.6 110.7,56.6 110.6,56.6 110.6,56.6 
		110.6,56.6 110.5,56.6 110.5,56.6 110.4,56.6 110.4,56.6 110.3,56.6 110.3,56.6 110.3,56.6 110.2,56.6 110.2,56.6 110.1,56.6 
		110.1,56.6 110,56.6 110,56.7 110,56.7 109.9,56.7 109.9,56.7 109.8,56.7 109.8,56.7 109.8,56.7 109.7,56.7 109.7,56.7 109.6,56.7 
		109.6,56.7 109.6,56.7 109.5,56.7 109.5,56.7 109.4,56.8 109.4,56.8 109.4,56.8 109.3,56.8 109.3,56.8 109.2,56.8 109.2,56.8 
		109.2,56.8 109.1,56.8 109.1,56.8 109.1,56.8 109,56.9 109,56.9 108.9,56.9 108.9,56.9 108.9,56.9 108.8,56.9 108.8,56.9 
		108.8,56.9 108.7,57 108.7,57 108.7,57 108.6,57 108.6,57 108.6,57 108.5,57 108.5,57.1 108.5,57.1 108.4,57.1 108.4,57.1 
		108.4,57.1 108.3,57.1 108.3,57.1 108.3,57.2 108.2,57.2 108.2,57.2 108.2,57.2 108.1,57.2 108.1,57.2 108.1,57.2 107.7,57.4 
		107.3,57.3 106.9,57.1 106.7,56.8 106.7,56.8 106.5,56.4 106.6,56 106.8,55.6 107.1,55.3 107.1,55.3 107.2,55.3 107.2,55.3 
		107.3,55.3 107.3,55.2 107.4,55.2 107.4,55.2 107.5,55.2 107.5,55.2 107.6,55.1 107.6,55.1 107.7,55.1 107.7,55.1 107.8,55.1 
		107.8,55 107.9,55 107.9,55 108,55 108,55 108.1,55 108.1,54.9 108.2,54.9 108.2,54.9 108.3,54.9 108.3,54.9 108.4,54.9 
		108.4,54.8 108.5,54.8 108.5,54.8 108.6,54.8 108.6,54.8 108.7,54.8 108.7,54.8 108.8,54.8 108.8,54.8 108.9,54.7 108.9,54.7 
		109,54.7 109,54.7 109.1,54.7 109.1,54.7 109.2,54.7 109.2,54.7 109.3,54.7 109.4,54.7 109.4,54.7 109.5,54.6 109.5,54.6 
		109.6,54.6 109.6,54.6 109.7,54.6 109.7,54.6 109.8,54.6 109.8,54.6 109.9,54.6 109.9,54.6 110,54.6 110.1,54.6 110.1,54.6 
		110.2,54.6 110.2,54.6 110.3,54.6 110.3,54.6 110.4,54.6 110.4,54.6 110.5,54.6 110.5,54.6 110.6,54.6 110.6,54.6 	"/>
	<path class="st14" d="M128.3,45.8c0.1,2.3-0.7,4-3.2,4.6"/>
	<path class="st17" d="M99.6,27.2c0,0,4.3-2.9,13.3,0c9.1,2.9,9,6.5,15,9c6,2.6,7.4,3.3,9.1,8.2c1.7,4.9,0.8,4.9,1.8,7.7
		c1,2.8,2.3,3.4,1.4,8.6c-0.8,5.2-1.1,5.5-2.1,9.2c-1,3.8,0.2,5.7-3.5,10.2c-1,1.3-1.7,2.3-2.1,3.1c-1.1,2.2-0.9,3.5-3.2,6.3
		c-4.9,5.9-8.9,6.1-8.9,6.1c5.7-6.4,7.4-10,8.5-20.9c7.9-4.7,3.7-12-0.8-8.4c0.7-2.2,0.6-3.7-0.2-6.9c-0.9-3.9-3.9-4.1-2.8-9.1
		c-8.2,0.3-12.2-3.1-12-7.2c-8.7-2.4-13.9-4.9-12.9-10L99.6,27.2z"/>
	<path class="st14" d="M99.6,27.2c0,0,4.3-2.9,13.3,0c9.1,2.9,9,6.5,15,9c6,2.6,7.4,3.3,9.1,8.2c1.7,4.9,0.8,4.9,1.8,7.7
		c1,2.8,2.3,3.4,1.4,8.6c-0.8,5.2-1.1,5.5-2.1,9.2c-1,3.8,0.2,5.7-3.5,10.2c-1,1.3-1.7,2.3-2.1,3.1c-1.1,2.2-0.9,3.5-3.2,6.3
		c-4.9,5.9-8.9,6.1-8.9,6.1c5.7-6.4,7.4-10,8.5-20.9c7.9-4.7,3.7-12-0.8-8.4c0.7-2.2,0.6-3.7-0.2-6.9c-0.9-3.9-3.9-4.1-2.8-9.1
		c-8.2,0.3-12.2-3.1-12-7.2c-8.7-2.4-13.9-4.9-12.9-10L99.6,27.2z"/>
	<path class="st17" d="M99.9,27.2l0.2,5.9l-3.3,4c1.5,5.5-3.3,9-9.5,12.4c-1.8,1-4.9,0.8-5.4,3.6c0,0-2.8-1.5-3.9,0.2
		c-1.3,2-0.4,3.1-0.2,4.7c-2.4,2.6-1.9,6.1-0.3,8.7c-2.8-2.1-3.9-0.7-4.5,0.2c-1.4,2,0.6,7.6,5.1,7.9c-0.3,10.4,3.2,16.8,6.6,19.8
		c-2.4,1-8.4-2.7-9.5-8.4c-0.7-3.5-6.5-3.9-4.9-12.7c0.4-2.1-2.7-2.7-1.9-6.7c-1.8-6-2.1-11.7,0.5-14.3c-1.3-4.4,1.8-10,9.9-15.9
		C81.7,28.5,93.8,24.3,99.9,27.2"/>
	<path class="st14" d="M99.9,27.2l0.2,5.9l-3.3,4c1.5,5.5-3.3,9-9.5,12.4c-1.8,1-4.9,0.8-5.4,3.6c0,0-2.8-1.5-3.9,0.2
		c-1.3,2-0.4,3.1-0.2,4.7c-2.4,2.6-1.9,6.1-0.3,8.7c-2.8-2.1-3.9-0.7-4.5,0.2c-1.4,2,0.6,7.6,5.1,7.9c-0.3,10.4,3.2,16.8,6.6,19.8
		c-2.4,1-8.4-2.7-9.5-8.4c-0.7-3.5-6.5-3.9-4.9-12.7c0.4-2.1-2.7-2.7-1.9-6.7c-1.8-6-2.1-11.7,0.5-14.3c-1.3-4.4,1.8-10,9.9-15.9
		C81.7,28.5,93.8,24.3,99.9,27.2z"/>
	<path class="st14" d="M100.1,29.3c0,0-10.7,5.7-7.6,6.2C95.6,36,100.1,29.3,100.1,29.3z"/>
	<path class="st14" d="M100.1,28.5c-2.2-1.1-10.8,0.3-9.4,1.7C92.1,31.7,99.5,28.7,100.1,28.5z"/>
	<path class="st14" d="M100.1,28.4c0,0,13.4,3.6,13,1.9c-0.4-1.3-3.7-2.2-7-2.3C103,27.9,100.1,28.4,100.1,28.4z"/>
	<path class="st14" d="M100.1,29.3c0,0,10.7,10.3,10.4,7C110.3,33.1,100.1,29.3,100.1,29.3z"/>
	<path class="st16" d="M116,79.9c2.1-0.3,2.1,5,0.1,8.1c-1.9,2.9-5.1,4.1-8,3.9c-1.8-0.2-3.9-0.8-4.6-2.2c-0.4-0.9,2.1-1.3,6.6-4.8
		C114,81.8,115,80.1,116,79.9"/>
	<path class="st17" d="M144.4,71.5c-0.3-1.5-1.2-4.7-1.2-6.3c0-21.2,24-38.3,53.5-38.3c29.5,0,53.5,17.2,53.5,38.3
		c0,21.2-24,38.3-53.5,38.3c-18.7,0-35.3-6.9-44.8-17.4l-32.4,1.2L144.4,71.5z"/>
	<path class="st14" d="M144.4,71.5c-0.3-1.5-1.2-4.7-1.2-6.3c0-21.2,24-38.3,53.5-38.3c29.5,0,53.5,17.2,53.5,38.3
		c0,21.2-24,38.3-53.5,38.3c-18.7,0-35.3-6.9-44.8-17.4l-32.4,1.2L144.4,71.5z"/>
	<path class="st16" d="M225.4,58.2H223v3.4h2.4c0.9,0,1.5-0.1,1.8-0.4c0.3-0.3,0.5-0.7,0.5-1.3c0-0.5-0.2-0.9-0.5-1.2
		C226.9,58.4,226.3,58.2,225.4,58.2 M178.2,64.6h8V62h-8V64.6z M206.6,64.6h8V62h-8V64.6z M171,65.8l-2-6.5l-2,6.5H171z M197.5,64.6
		h-2.8v3.5h2.8c1.7,0,2.6-0.6,2.6-1.9C200.1,65.2,199.2,64.6,197.5,64.6 M225.8,65H223v3.6h2.8c0.9,0,1.6-0.2,2-0.5
		c0.4-0.3,0.6-0.8,0.6-1.4c0-0.5-0.2-0.9-0.6-1.3C227.4,65.1,226.8,65,225.8,65 M204.2,57.7h-9.6V61h3c2.7,0,4.7,0.5,6.1,1.4
		c1.3,1,2,2.5,2,4.5c0,1.7-0.6,2.9-1.8,3.8c-1.2,0.9-2.9,1.3-5.2,1.3h-9.5v-18h15.1V57.7z M227,72.4h-9.5V54.6h10.3
		c1.7,0,3,0.4,4,1.3c0.9,0.9,1.4,1.9,1.4,3.2c0,1.1-0.3,2-1,2.7c-0.4,0.5-1.1,0.9-1.9,1.2c1.3,0.3,2.2,0.8,2.8,1.6
		c0.6,0.7,0.9,1.7,0.9,2.8c0,0.9-0.2,1.8-0.6,2.5c-0.4,0.7-1,1.3-1.8,1.7c-0.5,0.3-1.2,0.5-2.1,0.6C228.2,72.3,227.4,72.4,227,72.4
		 M178.9,72.7h-5.8l-0.9-3h-6.3l-0.9,3h-5.7l6.8-18h6.1L178.9,72.7z"/>
</g>
</svg>
