<?xml version="1.0" encoding="utf-8"?>
<!-- Generator: Adobe Illustrator 22.1.0, SVG Export Plug-In . SVG Version: 6.00 Build 0)  -->
<svg version="1.1" id="Слой_4" xmlns="http://www.w3.org/2000/svg" xmlns:xlink="http://www.w3.org/1999/xlink" x="0px" y="0px"
	 viewBox="0 0 512 512" style="enable-background:new 0 0 512 512;" xml:space="preserve">
<style type="text/css">
	.st0{fill:#857154;stroke:#000000;stroke-width:2;stroke-linecap:round;stroke-linejoin:round;stroke-miterlimit:10;}
	.st1{fill:#857154;stroke:#000000;stroke-width:3;stroke-linecap:round;stroke-linejoin:round;stroke-miterlimit:10;}
	.st2{fill:#FDCD95;stroke:#000000;stroke-width:2;stroke-linecap:round;stroke-linejoin:round;stroke-miterlimit:10;}
	.st3{fill:#472B25;stroke:#000000;stroke-width:2;stroke-linecap:round;stroke-linejoin:round;stroke-miterlimit:10;}
	.st4{fill:#FFFFFF;}
	.st5{fill:none;stroke:#000000;stroke-width:2;stroke-linecap:round;stroke-linejoin:round;stroke-miterlimit:10;}
	.st6{fill:#685742;stroke:#000000;stroke-width:2;stroke-linecap:round;stroke-linejoin:round;stroke-miterlimit:10;}
	.st7{fill:#816164;stroke:#000000;stroke-width:2;stroke-linecap:round;stroke-linejoin:round;stroke-miterlimit:10;}
	.st8{fill:#B8E585;stroke:#000000;stroke-width:3;stroke-linecap:round;stroke-linejoin:round;stroke-miterlimit:10;}
</style>
<g>
	<rect x="213.7" y="225.4" class="st0" width="4.7" height="55.5"/>
	<path class="st1" d="M206.9,437.1L206.9,437.1c-3.7,0-6.8-3-6.8-6.8V319.8c0-3.7,3-6.8,6.8-6.8h0c3.7,0,6.7,3,6.7,6.8v110.5
		C213.7,434.1,210.6,437.1,206.9,437.1z"/>
	<path class="st1" d="M305.4,440.1L305.4,440.1c-3.7,0-6.8-3-6.8-6.8V322.8c0-3.7,3-6.8,6.7-6.8h0c3.7,0,6.8,3,6.8,6.8v110.5
		C312.2,437.1,309.1,440.1,305.4,440.1z"/>
	<rect x="294.6" y="224.9" class="st0" width="4.7" height="55.5"/>
	<path class="st0" d="M304,230.9h-95.5c-6.6,0-12-5.4-12-12v-14c0-6.6,5.4-12,12-12H304c6.6,0,12,5.4,12,12v14
		C316,225.6,310.6,230.9,304,230.9z"/>
	<polyline class="st0" points="217,281.9 192.5,320.9 316,320.9 287,273 217,281.9 	"/>
	<path class="st2" d="M244.2,125.4c-0.3,0.8,0,34.3,0,34.3l20,1.7v-3.7l-1.1-33L244.2,125.4z"/>
	<path class="st3" d="M232.6,115.3l-1.3,13c0,0-9-6.8-8.8-10.3l-1.8,6c0,0-9-6.8-10.7-19.7c0,0-3.7,5.3-3.5,7.8
		c0,0-17.2-65.2,44.7-68.5c0,0,4.7-2.7,6.6-4.8c0.4-0.4,1.1-0.3,1.3,0.2c0.5,1.5,1.5,3.7,2.9,4.7c2.3,1.7,19.8-2.5,33.3,26.8
		c0,0,11.8,26.2-1.8,45.3l-4.3-6.8c0,0-2.3,11.8-3.7,13.5l-2.8-4.3l-5,9l-4.2-8.3l-10.2,1.1l-12.8,2.9l-12.2-3.5L232.6,115.3z"/>
	<ellipse transform="matrix(0.9628 -0.2703 0.2703 0.9628 -18.3598 63.3942)" class="st2" cx="221" cy="98.4" rx="4.8" ry="7.6"/>
	<ellipse class="st2" cx="286.6" cy="95.9" rx="4.8" ry="7.6"/>
	<path class="st2" d="M287.7,95.3c0,18.2-14.8,38.5-33,38.5c-18.2,0-34.4-20.5-34.4-38.8c0-1.5,0.1-2.9,0.3-4.2
		c0.7-4.5,2.4-8.3,4.9-11.4c3.1,3,6,5.8,6,5.8s0.1-10.8-0.8-15.1c0.2-0.2,7.9,11.1,7.9,11.1s6-4.8,6-7.8c0,0,4.7,8.2,6.7,8
		c1.7-0.1,3.8-8.8,3.7-13.7c0.2,0,2.8,13,4.8,14.8c1.9,1.8,7.5-7,10.2-12.2c0.8,0.3,5.1,10,5.3,10.7c0.2,0.7,3-1.6,5.3-4
		c2.7,2.8,4.7,6.1,5.9,10.1C287.4,89.7,287.7,92.4,287.7,95.3z"/>
	<ellipse cx="240" cy="94.7" rx="3" ry="6.3"/>
	<circle class="st4" cx="240" cy="94.2" r="1.9"/>
	<path class="st5" d="M233.7,90.8c0,0,5.3-4.1,10.5-0.8"/>
	<ellipse cx="266.1" cy="94.6" rx="3" ry="6.3"/>
	<circle class="st4" cx="266.1" cy="94.1" r="1.9"/>
	<path class="st5" d="M272.3,90.7c0,0-5.3-4.1-10.5-0.8"/>
	<path class="st5" d="M249.1,102.9c0,0,3.8-2.8,7.5,0"/>
	<path class="st6" d="M267.5,434.4c0,0-5.3,26.7-3.3,31s16,7.7,21.7,3.7c5.7-4,2.7-5.2,0-16.4c-2.7-11.3-3-18.2-3-18.2l-9-3
		L267.5,434.4z"/>
	<path class="st6" d="M252.3,437c0,0,5.3,26.7,3.3,31c-2,4.3-16,7.7-21.7,3.7c-5.7-4-2.7-5.2,0-16.4c2.7-11.3,3-18.2,3-18.2l9-3
		L252.3,437z"/>
	<path class="st5" d="M241.8,114.2c0,0,13.1,13.6,22.4-0.8"/>
	<path class="st5" d="M229.8,86.6c0,0,7.8-7.3,16.8-2.7"/>
	<path class="st5" d="M259.3,83.4c0,0,8-4.2,15.5,1.1"/>
	<path class="st7" d="M222,269.4l-7.2,19l7.2,80l9.7,78.7c0,0,23.8-5.4,27.5-1.4c0,0,11.7-9.9,27.7,0.1c0,0,2.9-4.2,4.7-11.7
		c0.8-3.3,0.6-11.1,0.4-15.8c-0.1-2.9-0.1-5.7,0-8.6l5.6-121.6l-9.9-28l-38.7-2.9l-21.7,5.6L222,269.4z"/>
	<path class="st5" d="M240.1,278.4c0,0,15.6,11,16,16c0.4,5,3,150.5,3,150.5"/>
	<path class="st2" d="M315,203.1c0,0,5.3,17,3.3,31.7c-2,14.7-12,45.7-12,45.7s-0.3,23.7-12,30.7c0,0,5.2-13.8,4.2-15.2
		c0,0-5.1,10-8.3,14.9c-0.5,0.8-1.8,0.3-1.7-0.7c0.8-4.6,2.4-12.5,3.6-14.8c0,0-7.3,14.8-8.8,14.5s-0.8-2.3,0-6.2
		c0.8-3.8,3.3-12.2,3.3-12.2s-6.2,13-8.3,13s0-7.3,0-7.3s-2.3-0.5-2.3-2s1.3-10,4-11.5c2.7-1.5,8.7-3.7,8.7-3.7s6.8-14.7,8.7-24.2
		s5.3-20.5,5.3-24.8c0-4.3-3-21.9-3-21.9l8.8-4.5L315,203.1z"/>
	<path class="st2" d="M198.8,203.1c0,0-5.3,17-3.3,31.7c2,14.7,12,45.7,12,45.7s0.3,23.7,12,30.7c0,0-5.2-13.8-4.2-15.2
		c0,0,5.1,10,8.3,14.9c0.5,0.8,1.8,0.3,1.7-0.7c-0.8-4.6-2.4-12.5-3.6-14.8c0,0,7.3,14.8,8.8,14.5s0.8-2.3,0-6.2
		c-0.8-3.8-3.3-12.2-3.3-12.2s6.2,13,8.3,13s0-7.3,0-7.3s2.3-0.5,2.3-2s-1.3-10-4-11.5c-2.7-1.5-8.7-3.7-8.7-3.7s-6.8-14.7-8.7-24.2
		s-5.3-20.5-5.3-24.8c0-4.3,3-21.9,3-21.9l-8.8-4.5L198.8,203.1z"/>
	<path class="st5" d="M276,278.4c0,0-18,8.7-19.6,14.3"/>
	<path class="st2" d="M231.6,285.9c0,0,0,8,3.8,11.3"/>
	<g>
		<path class="st2" d="M282.1,285.9c0,0,0,8-3.8,11.3"/>
	</g>
	<path class="st8" d="M242.5,145.4c0,0-24.5,5-35,24.5s-15,35.5-15,35.5s21.5,11.5,25,9l6.5-14.5l-2,69.5c0,0,45.5,10.5,69.5-4.5
		l-3.5-71l11.5,22c0,0,18.5-7,20-11s-20-46.8-30-52c-8.6-4.5-25.3-7.5-25.3-7.5S256,170.4,242.5,145.4z"/>
	<path class="st5" d="M274.1,299.4c0,0-14.6-1.3-17.8,8.7"/>
	<path class="st5" d="M242.8,297.3c0,0,9.7-0.2,13.2,15.8"/>
</g>
</svg>
