<?xml version="1.0" encoding="utf-8"?>
<!-- Generator: Adobe Illustrator 23.1.0, SVG Export Plug-In . SVG Version: 6.00 Build 0)  -->
<svg version="1.1" id="Слой_1" xmlns="http://www.w3.org/2000/svg" xmlns:xlink="http://www.w3.org/1999/xlink" x="0px" y="0px"
	 viewBox="0 0 283.5 283.5" style="enable-background:new 0 0 283.5 283.5;" xml:space="preserve">
<style type="text/css">
	.st0{fill:#F48026;}
	.st1{fill:#FFDEA8;}
	.st2{fill:#8FB4DF;}
	.st3{fill:#FFDC4D;}
	.st4{fill:#FFFFFF;}
	.st5{fill:#231F20;}
</style>
<g>
	<g>
		<path class="st0" d="M77,205c0,0,0.1,9.1-0.2,12.2c-0.3,2.8-0.8,11.3-0.8,11.3l60.8-1.1c0,0-1.5-18.4-2.8-24.1L77,205z"/>
	</g>
	<path class="st1" d="M162.3,219.7c0,0-9.2-12.7-9.9-12.8c-2.4-10.8-11.7-49.5-11.7-49.5l-9.2,3.4l14.4,47.3c-1.2,2-1.2,5.4-2.9,8.1
		c-2.1,3.4-3.3,4.6-3.1,4.7c1.7,1,3.5,0.7,5.8-2.9c0.5,0,1.6,0.2,1.8,0.6l3.1,9.4c0.2,0.8,0.9,1.1,1.5,0.9c0.6-0.2,0.9-0.8,0.8-1.3
		l-2.3-8.5l0.4-0.2l3.7,8.4c0.2,0.6,0.8,0.9,1.4,0.7c0.6-0.2,0.9-0.8,0.7-1.4l-2.6-9l0.2-0.1l3.6,8c0.3,0.5,1,0.7,1.5,0.4
		c0.5-0.3,0.7-1,0.4-1.5l-2.4-7.4l-0.2,0l3.1,3.9c0.4,0.5,1.1,0.6,1.6,0.2C162.6,220.9,162.7,220.2,162.3,219.7z"/>
	<path class="st1" d="M49.1,223.6c0,0,6.9-14.5,7.5-14.7c2.1-17.9,15.2-54.7,15.2-54.7l8,8l-17.5,47.3c1,1.1,1.7,4.9,3.1,7.1
		c1.3,2,2.8,2.7,4,3.4c0.3,0.2,0.2,0.4,0,0.6c-0.7,0.7-2.3,1.5-5.6-1.3c-0.5,0.1-0.5,1-0.6,1.5l0.6,8c0.1,0.8-0.6,1.3-1.2,1.3
		c-0.6,0-1.1-0.5-1.1-1.1l-1.2-7.8l-0.4,0l-1,9.1c0,0.6-0.6,1.1-1.2,1c-0.6,0-1.1-0.6-1-1.2l0.1-9.3l-0.2-0.1l-2.2,7.4
		c-0.1,0.6-0.7,1-1.3,0.8c-0.6-0.1-1-0.7-0.8-1.3l1.6-7.7l-0.2-0.1l-2.5,4.9c-0.2,0.6-0.9,0.8-1.4,0.6
		C48.9,225.1,48.9,224.1,49.1,223.6z"/>
	<path class="st2" d="M145.6,155.9c0,0-14.3-28.1-29.5-31.8c-2.8-1.5-6.2-2.3-10.1-2.3l0-0.1c0.1-0.2-0.1-0.5-0.4-0.5
		c-4.4,0.1-8.3,1.3-11.6,3.4c-16.9,4.5-30.2,33.8-30.2,33.8l14.9,7.9l-5.3,47.1c0,0,10.2,1.6,32.9,1.6c18.9,0,32.3-2.8,32.3-2.8
		l-6.2-46L145.6,155.9z"/>
	<path class="st1" d="M140.8,85.5c-1.4-1.6-4.2-1.4-6.9,0.1c-2.7-13.1-14.2-23-28-23c-14.3,0-26.1,10.6-28.2,24.5
		c-2.8-1.9-6.2-2-7.7-0.1c-1.6,2-0.4,5.5,2.5,7.7c1.7,1.3,3.6,1.9,5.3,1.8c1.9,10.9,9.8,19.7,20.2,22.7v3.5c0,0.2,0,0.5,0,0.7
		c-1.6,0.5-3.1,1.3-4.5,2.1c2.1,4.7,6.9,7.9,12.3,7.9c5.6,0,10.5-3.4,12.5-8.3c-1.4-0.8-2.9-1.5-4.5-2c0-0.2,0-0.3,0-0.5v-3.5
		c10.6-3.1,18.6-12.1,20.3-23.3c1.4-0.3,2.9-1,4.3-2.2C141.4,91.1,142.5,87.4,140.8,85.5z"/>
	<g>
		<path class="st3" d="M90.8,59.4c0-0.3-1.1-8.7-4.1-7.2C83.1,54,90.8,59.4,90.8,59.4z"/>
		<path class="st3" d="M89.8,58.8c-0.2-0.1-6.6-3.1-6.8-0.4C82.6,61.6,89.8,58.8,89.8,58.8z"/>
		<path class="st3" d="M122.5,57.6c-9.2-5.3-16.6-4.8-21.4-4.2c-7.2,0.9-9.6,4.4-10,6c0,0.1,0,0.3-0.1,0.4c-0.9,0.2-25,5.3-14.1,27
			c0,0,3.6-16.4,16-21.2c8,9.7,21.6,9.3,21.6,9.3l-1-4.4c0,0,4.5,4.8,10.7,8.9c7.1,4.7,9.9,6.5,9.9,6.5s3.8-3.8,3.8-9.3
			C137.8,71.6,131.5,62.7,122.5,57.6z"/>
	</g>
	<g>
		<g>
			<path d="M96.7,85.9c-1.4,0.1-2.5,1.6-2.4,3.4c0.1,1.8,1.4,3.1,2.8,3c1.4-0.1,2.5-1.6,2.4-3.4C99.4,87.2,98.2,85.8,96.7,85.9z"/>
			<path d="M115.1,85.9c-1.4-0.1-2.7,1.3-2.8,3c-0.1,1.8,0.9,3.3,2.4,3.4c1.4,0.1,2.7-1.3,2.8-3C117.6,87.5,116.5,86,115.1,85.9z"/>
			<path d="M105.7,95.4c-1.9,0-3.5,1.3-3.5,2.9c0,0.2,0.1,0.3,0.3,0.3c0.2,0,0.3-0.1,0.3-0.3c0-1.2,1.3-2.3,2.9-2.3s2.9,1,2.9,2.3
				c0,0.2,0.1,0.3,0.3,0.3c0.2,0,0.3-0.1,0.3-0.3C109.2,96.6,107.7,95.4,105.7,95.4z"/>
			<path d="M98.8,81.2c0.1,0.1,0.3,0.1,0.4-0.1c0.1-0.1,0.1-0.3-0.1-0.4c-1-0.8-2.4-1.1-3.8-0.9c-1.4,0.2-2.7,0.9-3.4,1.9
				c-0.1,0.1-0.1,0.3,0.1,0.4c0.1,0,0.1,0.1,0.2,0.1c0.1,0,0.2,0,0.3-0.1c0.6-0.9,1.7-1.5,3-1.7C96.8,80.3,98,80.5,98.8,81.2z"/>
			<path d="M119.4,82.2c-0.6-1.1-1.8-1.9-3.1-2.3s-2.8-0.2-3.9,0.5c-0.1,0.1-0.2,0.3-0.1,0.4c0.1,0.1,0.3,0.2,0.4,0.1
				c0.9-0.6,2.2-0.7,3.4-0.4c1.2,0.3,2.2,1.1,2.8,2c0.1,0.1,0.2,0.2,0.3,0.2c0.1,0,0.1,0,0.1,0C119.5,82.6,119.5,82.4,119.4,82.2z"
				/>
		</g>
		<path class="st4" d="M108.6,109.1l9.7-7.5c0.6-0.5,1.5-0.2,1.8,0.5c0.6,1.7,1.1,4.5-0.9,6.9c-3.4,4.1-7.9,3.1-10.3,2.1
			C108.1,110.7,107.9,109.6,108.6,109.1z"/>
		<path d="M113.1,112.2c-1.7,0-3.2-0.5-4.3-0.9c-0.5-0.2-0.8-0.6-0.9-1.1c-0.1-0.5,0.1-1,0.5-1.3l9.7-7.5c0.4-0.3,0.9-0.4,1.3-0.2
			c0.5,0.1,0.8,0.5,1,0.9c0.6,1.6,1.2,4.6-1,7.2C117.5,111.5,115.2,112.2,113.1,112.2z M119,101.6c-0.2,0-0.4,0.1-0.5,0.2l-9.7,7.5
			l0,0c-0.2,0.2-0.4,0.5-0.3,0.8c0,0.3,0.2,0.5,0.5,0.7c2.3,0.9,6.7,1.9,9.9-2c1.9-2.2,1.5-4.8,0.9-6.6c-0.1-0.3-0.3-0.4-0.5-0.5
			C119.2,101.6,119.1,101.6,119,101.6z M108.6,109.1L108.6,109.1L108.6,109.1z"/>
	</g>
	<path class="st4" d="M194.9,58c-25.1,0-45.5,12.8-45.5,28.6c0,2.7,0.6,5.4,1.7,7.9L137,108.7l22.9-3.9c8.3,6.3,20.9,10.4,35,10.4
		c25.1,0,45.5-12.8,45.5-28.6S220,58,194.9,58z"/>
	<path class="st5" d="M194.9,58c25.1,0,45.5,12.8,45.5,28.6s-20.4,28.6-45.5,28.6c-14.1,0-26.7-4-35-10.4l-22.9,3.9l14.2-14.2
		c-1.1-2.5-1.7-5.1-1.7-7.9C149.5,70.8,169.8,58,194.9,58 M194.9,57.4c-12.3,0-23.8,3-32.5,8.5c-8.8,5.5-13.6,12.9-13.6,20.7
		c0,2.6,0.5,5.2,1.6,7.7l-13.9,13.9c-0.2,0.2-0.2,0.5-0.1,0.7c0.1,0.2,0.3,0.3,0.5,0.3c0,0,0.1,0,0.1,0l22.6-3.8
		c8.8,6.6,21.6,10.3,35.2,10.3c12.3,0,23.8-3,32.5-8.5c8.8-5.5,13.6-12.9,13.6-20.7s-4.8-15.2-13.6-20.7
		C218.7,60.4,207.2,57.4,194.9,57.4L194.9,57.4z"/>
	<g>
		<path class="st5" d="M173.5,75.6L166,94.5h4.1l1.6-4.3h7.7l1.7,4.3h4.2l-7.7-18.9H173.5z M172.9,87l2.6-7l2.6,7H172.9z"/>
		<path class="st5" d="M200,83.7c-0.9-0.3-2.1-0.5-3.6-0.5h-5.2v-4.4h10.5v-3.2h-14.4v18.9h9.1c1.6,0,2.8-0.2,3.7-0.5
			c0.9-0.3,1.6-1,2.3-1.9c0.7-0.9,1-2,1-3.3c0-1.2-0.3-2.3-1-3.3S201,84,200,83.7z M198.9,90.3c-0.4,0.4-0.8,0.7-1.3,0.8
			c-0.5,0.1-1.3,0.2-2.5,0.2h-3.8v-5h3.9c1.5,0,2.6,0.2,3.2,0.6c0.6,0.4,0.9,1,0.9,1.9C199.4,89.4,199.2,89.9,198.9,90.3z"/>
		<path class="st5" d="M221.8,86.2c-0.6-0.8-1.5-1.4-2.7-1.7c0.8-0.4,1.5-0.9,2-1.7c0.5-0.7,0.7-1.5,0.7-2.4c0-0.8-0.2-1.5-0.6-2.2
			c-0.4-0.7-0.9-1.2-1.5-1.6c-0.6-0.4-1.3-0.7-2-0.8s-1.9-0.2-3.4-0.2h-7.7v18.9h6.5c2.5,0,4-0.1,4.7-0.1c1-0.1,1.9-0.4,2.6-0.9
			c0.7-0.5,1.3-1.1,1.7-1.9c0.4-0.8,0.6-1.6,0.6-2.5C222.7,87.9,222.4,87,221.8,86.2z M210.5,78.8h2.2c1.8,0,2.9,0,3.3,0.1
			c0.6,0.1,1.1,0.3,1.5,0.7c0.3,0.4,0.5,0.8,0.5,1.4c0,0.6-0.2,1.1-0.6,1.5c-0.4,0.4-0.9,0.6-1.6,0.7c-0.4,0-1.3,0.1-2.8,0.1h-2.5
			V78.8z M218.2,90.4c-0.4,0.4-0.8,0.6-1.4,0.8c-0.4,0.1-1.3,0.1-2.7,0.1h-3.6v-5h3.1c1.8,0,2.9,0.1,3.4,0.3
			c0.5,0.2,0.9,0.5,1.2,0.9c0.3,0.4,0.4,0.9,0.4,1.4C218.7,89.5,218.5,90,218.2,90.4z"/>
	</g>
	<g>
		<path d="M162.8,219.4c0,0-2.3-3.2-4.7-6.4c-3.4-4.5-4.6-6-5.1-6.4c-2.2-9.6-9.3-39.4-11.2-47.3l4-3.1c0.1-0.1,0.2-0.3,0.1-0.4
			c0-0.1-4.9-9.5-11.8-18.1c-4.1-5-8-8.8-11.8-11.2c-1.2-0.7-2.3-1.3-3.5-1.8c0-0.1-0.1-0.1-0.1-0.2c-1.3-0.8-2.7-1.4-4.2-1.9
			c0,0,0,0,0-0.1v-3c10.5-3.2,18.4-12.2,20.3-23.3c1.4-0.4,2.8-1.1,4.1-2.2c2-1.7,3.3-4,3.4-6c0.1-1.2-0.2-2.3-0.9-3
			c-0.8-0.9-1.9-1.3-3.3-1.3c-0.5,0-1.1,0.1-1.7,0.2c1-1.7,2.2-4.2,2.1-7.3c0-2.7-1.6-6.3-4.4-9.9c-3-3.8-7-7.3-11.3-9.8
			c-5.5-3.1-10.9-4.6-16.6-4.6c-2,0-3.8,0.2-5.2,0.4c-3.3,0.4-5.9,1.4-7.8,2.8c-0.9,0.7-1.5,1.4-1.9,2c-0.2-1.3-0.8-3.8-2.1-5.3
			c-0.5-0.6-1.1-0.9-1.7-0.9c-0.3,0-0.7,0.1-1,0.2c-1,0.5-1.2,1.2-1.3,1.7c-0.1,1.2,1,2.7,2.2,3.9c-0.8-0.4-1.8-0.7-2.7-0.7
			c-1.9,0-2.2,1.2-2.3,1.7c-0.1,0.6,0.1,1.1,0.4,1.5c0.4,0.5,1.1,0.7,2.1,0.7c0.9,0,1.9-0.2,2.8-0.4c-1,0.3-2,0.7-3.2,1.3
			c-4.6,2.1-7.9,5.1-9.6,8.6c-2.1,4.4-1.9,9.6,0.7,15.4C74.8,85.2,74,85,73.2,85c-1.6,0-2.9,0.6-3.7,1.6c-0.7,0.9-0.9,2-0.8,3.2
			c0.3,1.9,1.5,3.9,3.4,5.3c1.6,1.2,3.4,1.9,5.1,1.9c2.1,10.7,9.9,19.4,20.1,22.5v3c-1.4,0.6-2.7,1.3-3.9,2.1c0-0.1,0-0.1,0-0.2
			c-6.1,1.8-12.5,6.9-18.8,15.2c-6.7,8.9-11,18.4-11.1,18.5c-0.1,0.1,0,0.3,0.1,0.4l5,2.7c-3.9,11.7-11.1,34.3-12.7,47.2
			c-0.4,0.5-1.3,2.1-4,7.5c-1.8,3.6-3.5,7.2-3.5,7.3c0,0,0,0,0,0c-0.2,0.5-0.3,1.2,0,1.8c0.2,0.3,0.4,0.6,0.7,0.7
			c0.2,0.1,0.4,0.1,0.6,0.1c0.7,0,1.3-0.4,1.6-1.1l0.9-1.7l-0.9,4.2c-0.1,0.4,0,0.9,0.2,1.3c0.2,0.4,0.6,0.7,1.1,0.8
			c0.1,0,0.3,0,0.4,0c0.8,0,1.5-0.6,1.7-1.3l1.2-4.1L56,230c0,0.4,0.1,0.9,0.4,1.2c0.3,0.3,0.7,0.6,1.2,0.6c0,0,0.1,0,0.1,0
			c0.9,0,1.6-0.7,1.7-1.6l0.7-6l0.8,4.8c0,0.9,0.8,1.6,1.7,1.6h0c0.5,0,1-0.2,1.4-0.6c0.3-0.4,0.5-0.8,0.4-1.4l-0.6-7.9
			c0-0.1,0-0.2,0.1-0.3c0-0.1,0-0.2,0.1-0.3c1.4,1.1,2.7,1.7,3.9,1.7c1,0,1.7-0.5,2.1-0.8c0.3-0.3,0.4-0.5,0.3-0.8
			c0-0.2-0.1-0.5-0.5-0.7c-0.2-0.1-0.4-0.3-0.7-0.4c-1-0.6-2.2-1.3-3.2-2.9c-0.6-1-1.2-2.5-1.6-3.8c-0.4-1.2-0.8-2.4-1.3-3
			l15.2-40.9l-5.1,45c0,0.2,0.1,0.3,0.3,0.3c0,0,1.1,0.2,3.3,0.4c0,1.2-0.1,2.4-0.2,3.1c-0.3,2.7-0.8,11.2-0.8,11.3l0.6,0
			c0-0.1,0.5-8.6,0.8-11.3c0.1-0.7,0.1-1.9,0.2-3.1c4.9,0.5,14.4,1.1,29,1.1c13.1,0,23.7-1.4,28.9-2.2c0.8,6.8,1.4,14.2,1.4,14.3
			l0.6-0.1c0-0.1-0.6-7.5-1.4-14.4c1.8-0.3,2.8-0.5,2.9-0.5c0.2,0,0.3-0.2,0.2-0.3l-6-44.6l12.4,40.6c-0.5,1-0.8,2.1-1.1,3.4
			c-0.4,1.5-0.8,3.1-1.6,4.5c-1.1,1.7-1.9,2.9-2.4,3.6c-0.6,0.8-0.8,1.1-0.7,1.5c0,0.2,0.2,0.4,0.3,0.5c0.7,0.4,1.3,0.6,1.9,0.6
			c1.5,0,3-1.1,4.5-3.4c0.4,0,0.8,0.2,1,0.3l3.1,9.3c0.2,1,1.1,1.4,1.8,1.4c0.2,0,0.3,0,0.5-0.1c0.4-0.1,0.8-0.4,1.1-0.8
			c0.2-0.4,0.3-0.9,0.2-1.3l-0.9-3.2l1.5,3.4c0.3,0.7,0.9,1.1,1.6,1.1c0.2,0,0.4,0,0.6-0.1c0.4-0.2,0.8-0.5,1-0.9
			c0.2-0.4,0.2-0.9,0.1-1.3l-0.6-2.1l0.7,1.5c0,0,0,0,0,0c0.3,0.6,0.9,0.9,1.5,0.9c0.3,0,0.6-0.1,0.8-0.2c0.4-0.2,0.7-0.6,0.8-1
			c0.1-0.4,0.1-0.9-0.1-1.3l-1.3-3.9l0.7,0.9c0.3,0.4,0.8,0.7,1.4,0.7c0.4,0,0.7-0.1,1-0.3c0.4-0.3,0.6-0.7,0.7-1.1
			C163.2,220.2,163.1,219.7,162.8,219.4z M138,84.4c1.2,0,2.2,0.4,2.8,1.1c1.7,1.9,0.6,5.6-2.4,8.2c-1.1,1-2.4,1.6-3.6,2
			c0.2-1.4,0.3-2.8,0.3-4.2c0-1.8-0.2-3.5-0.5-5.2c0.2-0.2,0.6-0.7,1.1-1.4C136.5,84.6,137.3,84.4,138,84.4z M91,59.4
			c0.5-1.6,2.9-5.1,10-6c1.5-0.2,3.2-0.4,5.1-0.4c4.4,0,9.9,0.9,16.3,4.6c9.1,5.2,15.3,14,15.4,19.1c0,5.5-3.8,9.3-3.8,9.3
			s-2.8-1.8-9.9-6.5c-6.2-4.2-10.7-8.9-10.7-8.9l1,4.4c0,0-0.1,0-0.3,0c-2,0-14.1-0.4-21.4-9.4C91,63.3,90.5,61.2,91,59.4z
			 M86.7,52.2c0.2-0.1,0.5-0.2,0.7-0.2c2.1,0,3.1,5.2,3.2,6.7c0,0.1-0.1,0.2-0.1,0.3C89.5,58.3,83.4,53.9,86.7,52.2z M84.8,59.9
			c-1.2,0-2-0.4-1.9-1.5c0.1-0.9,0.8-1.1,1.7-1.1c1.1,0,2.4,0.4,3.5,0.8c0.4,0.4,0.8,0.7,1.1,1C88.2,59.3,86.3,59.9,84.8,59.9z
			 M72.5,94.7C69.6,92.4,68.5,89,70,87c0.7-0.9,1.9-1.4,3.2-1.4c0.9,0,1.8,0.3,2.7,0.7c0.1,0.3,0.2,0.5,0.4,0.8l0.6,1.1
			c-0.1,1.1-0.2,2.2-0.2,3.3c0,1.7,0.1,3.4,0.4,5C75.6,96.4,74,95.8,72.5,94.7z M76.9,86.8c-10-20,9.5-25.9,13.4-26.9
			c0,0,0-0.1,0-0.1c0,0,0,0,0,0c-0.3,1.9,0.3,4,2,6C80.4,70.9,76.9,86.8,76.9,86.8z M77.3,91.5c0-1.9,0.2-3.8,0.6-5.6
			c0,0-0.1,0-0.1,0c0.4-1.6,1.5-4.7,3.3-8.1c2.2-4,5.9-9,11.7-11.4c7.5,8.7,19.2,9.2,21.5,9.2c0.2,0,0.3,0,0.3,0l0.7,0l-0.2-0.7
			l-0.5-2.3c1.8,1.8,5.2,4.8,9.3,7.5c7,4.7,9.9,6.5,9.9,6.5l0.4,0.2c0.3,1.5,0.4,3.1,0.4,4.7c0,15.9-12.8,28.8-28.6,28.8
			C90.1,120.3,77.3,107.4,77.3,91.5z M93.7,125.4c1.4-0.8,2.8-1.5,4.4-2c0-0.2,0-0.5,0-0.7v-2.8c2.5,0.7,5.2,1.1,7.9,1.1
			s5.4-0.4,7.9-1.1v2.8c0,0.2,0,0.3,0,0.5c1.6,0.5,3.1,1.2,4.5,2c-2.1,4.9-6.9,8.3-12.5,8.3c-5.5,0-10.2-3.2-12.3-7.9
			C93.5,125.4,93.6,125.4,93.7,125.4z M64.3,158.3c0.7-1.6,4.8-10.1,10.9-18.1c4.3-5.7,10.3-12,17.1-14.5
			c-6,4.6-10.1,12.3-11.7,22.5l-2,17.7L64.3,158.3z M62.3,209.4c1,1.1,1.7,4.9,3.1,7.1c1.3,2,2.8,2.7,4,3.4c0.3,0.2,0.2,0.4,0,0.6
			c-0.3,0.3-0.8,0.7-1.6,0.7c-0.9,0-2.2-0.5-4-2c-0.5,0.1-0.5,1-0.6,1.5l0.6,8c0.1,0.8-0.6,1.3-1.2,1.3c0,0,0,0,0,0
			c-0.6,0-1.1-0.5-1.1-1.1l-1.2-7.8l-0.4,0l-1,9.1c0,0.6-0.5,1-1.1,1c0,0-0.1,0-0.1,0c-0.6,0-1.1-0.6-1-1.2l0.1-9.3l-0.2-0.1
			l-2.2,7.4c-0.1,0.5-0.6,0.9-1.1,0.9c-0.1,0-0.2,0-0.2,0c-0.6-0.1-1-0.7-0.8-1.3l1.6-7.7l-0.2-0.1l-2.5,4.9c-0.2,0.4-0.6,0.7-1,0.7
			c-0.1,0-0.3,0-0.4-0.1c-0.6-0.2-0.6-1.2-0.4-1.8c0,0,6.9-14.5,7.5-14.7c1.5-12.8,8.7-35.5,12.6-47.2l9,4.8L62.3,209.4z
			 M138.2,211.9c-2,0.4-14.8,2.7-31.9,2.7c-20.3,0-30.7-1.3-32.5-1.5l7.3-64.9c1.6-10.3,5.9-18,11.9-22.4c2.3,5,7.3,8.1,12.8,8.1
			c5.4,0,10.3-3.1,12.7-7.9c5.4,4.2,9,12,11.4,24.3l2.1,15.7l-0.1,0c0.1,0.1,0.1,0.3,0.1,0.4L138.2,211.9z M132.6,165.6l-2.1-15.3
			c-2-10-4.6-16.7-8.2-21.3c-1.1-1.4-2.3-2.5-3.5-3.5c0,0,0-0.1,0.1-0.1c5.6,2.4,10.8,7.7,14.8,12.7c6.3,7.8,10.8,16.3,11.6,17.7
			L132.6,165.6z M162.1,221.3c-0.2,0.1-0.4,0.2-0.7,0.2c-0.3,0-0.7-0.2-0.9-0.4l-2.8-3.5l2.3,7.1c0.3,0.5,0.1,1.2-0.4,1.5
			c-0.2,0.1-0.3,0.1-0.5,0.1c-0.4,0-0.8-0.2-1-0.6l-3.6-8l-0.2,0.1l2.6,9c0.2,0.6-0.1,1.2-0.7,1.4c-0.1,0-0.2,0.1-0.4,0.1
			c-0.5,0-0.9-0.3-1.1-0.7l-3.7-8.4l-0.4,0.2l2.3,8.5c0.2,0.6-0.2,1.2-0.8,1.3c-0.1,0-0.2,0-0.3,0c-0.5,0-1.1-0.3-1.2-1l-3.1-9.4
			c-0.2-0.4-1.1-0.6-1.7-0.6c-0.1,0-0.1,0-0.2,0c-1.6,2.5-3,3.4-4.2,3.4c-0.6,0-1.1-0.2-1.6-0.5c-0.3-0.2,1-1.3,3.1-4.7
			c1.7-2.8,1.7-6.1,2.9-8.1l-12.9-42.1l8.2-6.3c2,8.3,9,38,11.1,47.2c0.7,0.1,9.9,12.8,9.9,12.8
			C162.7,220.2,162.6,220.9,162.1,221.3z"/>
		<polygon points="157.4,217.2 157.7,217.5 157.6,217.3 		"/>
	</g>
</g>
</svg>
