<svg enable-background="new 0 0 297.64 297.64" viewBox="0 0 297.64 297.64" xmlns="http://www.w3.org/2000/svg"><g clip-rule="evenodd" fill-rule="evenodd"><path d="m160.99 239.83-21.21 9.63s-.79.86-1.63 2.18c-.24.01-.47.02-.67.05-2.82 4.36-1.87 8.54.96 10.93.14.16.29.32.43.44 1.1.96 2.68 1.45 4.41 1.55 1.82.19 3.83-.1 5.89-.99 1.07-.43 2.05-.99 2.87-1.65.17-.12.34-.24.51-.37l-.01-.06c3.22-2.96 7-8.56 9.77-13.76.96-1.78.39-6.53-1.32-7.95z" fill="#8e8f90"/><path d="m190.21 256.81c.06-.51.08-1 .01-1.43-.52-3.46-3.35-6.21-3.35-6.21l-20.51-9.42c-1.64 1.38-2.79 5.68-1.88 7.4 2.71 5.1 6.99 11.13 10.12 13.95 3.34 3.01 9.07 4.53 13.19.98.35-.31.69-.73.99-1.21.88-1.09 1.41-2.46 1.43-4.06z" fill="#8e8f90"/><path d="m160.51 240.03c-3.74 1.49-9.05 1.01-10.67-.91-6.12 5.45-9.8 9.43-11.81 12.38.54-.06 1.11-.1 1.69-.1 2.58 0 9.63 1.75 12.51 6.23 3.17-2.99 6.16-7.97 8.63-11.94 1.07-1.74 1.26-4.17-.35-5.66z" fill="#dbdada"/><path d="m174.74 257.06c.98-1.55 2.31-2.88 4-3.83 5.01-2.31 8.72-2.26 9.32-2.19-1.94-2.89-5.48-6.79-11.36-12.05l-10.33.49c-1.55 1.43-.76 5.02.28 6.7 2.38 3.85 5.06 8.09 8.09 10.88z" fill="#dbdada"/><path d="m166.16 239.76c2.19 3.13 9.92.92 10.74-.7l.56-5.86-11.72-.07z" fill="#ffe7cc"/><path d="m149.48 239.41c1.02 1.63 8.65 3.21 11.58.7l.28-6.07-12.56.07z" fill="#ffe7cc"/><path d="m189.95 103.43c.08-.24.02-1.91.07-2.09 1.11-4.3-4.05-10.88-5.93-11.3-.1-.02-.39-.62-.49-.63.91-5.16-.61-5.79-2.23-4.26-1.32 1.25-2.19 2.54-2.09 4.19-.45.28.32 1.73.77 3-3.4-.62-3.36 2.4-1.81 4.05-2.58-1.05-3.16 1.98-2.02 3.77-2.39-.02-2.55 1.89-1.88 3.77 2.65 7.47 7.88 7.53 7.88 7.53l2.72 5.86-2.93 1.95c4.38 10.61 12.91 17.44 18.07 13.88 3.75-2.6 3.35-14.48-10.13-29.72z" fill="#ffe7cc"/><path d="m187.25 50.69c-.34-.26-1.36-.5-1.81-.51-.2.34-.34 1.2-.74 1.44l-.37.51c-.43.26-.95.51-1.35.51-.16.04-.52-.5-.7-.48-.2.02-.96-.1-1.16-.08-1.6.18-2-1.81-2.05-3.07-.72-.59-2.21-.37-2.51-.79-.6-.82-1.16-3.44-1.16-3.44s-1.42.7-1.77.51c-.44-.24-1.4-2.23-1.4-2.23l-2.19.14-1.26-2.47-1.91 1.21-1.49-1.53s-2.51 2.84-3.63-.19c-.3-.81-.82-.36-1.76-.48-.12-.08-.21-.19-.32-.27-.04.11-.08.23-.13.34 0 .01-.01.01-.01.02.07.44-.16.82-.67 1.14-1 1.14-2.19 1.03-3.06.35-.46.33-.94.64-1.56.77-.84.17-1.64-.05-2.23-.5-.4.35-.81.7-1.21 1.04-.48.67-1.11 1.01-1.77 1.1-.51.3-1.11.39-1.7.3-.4 1.33-.93 2.75-1.82 3.73-.79.86-1.76.9-2.4.22-.26-.07-.49-.2-.68-.36-.21.81-.42 1.61-.61 2.42-.09.4-.34.61-.63.71-.05.1-.1.21-.16.3-.41.62-1.05 1.34-1.7 1.03-.41.02-.99-.85-1.26-1.16-.27.06-1.41-.03-1.63.14-1.25.99-1.18 3.84.37 5.77.75.94 2.78 2.42 3.67 2.74 1.85 8.4 7.69 14.08 14.84 16.6l-.07 3.05c1.09 4.32 10.26 7.67 13.53.35l-.07-3.4c7.62-2.44 13.54-8.5 15.4-17.49.62-.37 1.86-1.2 2.37-1.86 1.55-1.95 2.03-5.16.77-6.13zm-17.51 13.7c-.08.09-.17.17-.25.25-.01.27-.12.54-.3.77-1.55 1.98-3.6 4.45-6.36 4.41-.5-.01-.97-.11-1.42-.27-.1-.01-.2-.02-.3-.04-.42-.08-.83-.24-1.23-.41-1.64-.29-3.53-1.45-3.9-2.96-.13-.05-.27-.1-.39-.16-.82-.37-1.01-1.56-.59-2.27.48-.83 1.45-.97 2.27-.59h.01c.09.03.19.07.28.11.19.07.38.13.57.18.44.13.89.24 1.35.33.23.05.47.09.7.12.07.01.15.02.22.03.02 0 .26.03.29.04.5.06 1 .09 1.5.11.52.02 1.04.02 1.56-.01.26-.01.53-.04.79-.06h.04.01c.11-.02.23-.04.34-.06.44-.08.86-.24 1.3-.35.08-.04.16-.08.23-.12.17-.09.34-.2.5-.32.35-.26.79-.29 1.19-.18.03-.03.06-.06.09-.09.9-1.05 2.43.49 1.5 1.54z" fill="#ffe7cc"/><path d="m154.3 147.45c1.61 1.98 3.85-1.21 2.51-2.93 1.6 1.79 2.7-1.52 1.74-3.28 1.28.95 2.23-2 1.4-3.14-.89-1.22-.39-2.11-4.4-3.56 1.31-.24 2.52-2.14 3.14-3.14 1.11-1.78-1.64-2.97-2.72-2.16-.93.7-1.67 1.54-3.49 1.67 0 0-6.11-2.18-11.86 2.37-.45-3.33-.09-5.62.63-8.93l-15.28-1.67c.33 1.91-1.31 39.55 15.14 20.58.67 1.97 4.95 4.19 4.95 4.19.26-.24 3.37 1.55 4.74 2.72 1.03 1.89 4.02-.05 3.5-2.72z" fill="#ffe7cc"/><path d="m189.87 41.74c-6.49-20.95-23.15-27.74-35.28-19.22-17.72-5.8-36.76 48.9.63 54.34-.09-.15-.16-.32-.21-.51-.08-.04-.16-.08-.24-.1-.38-.18-.78-.31-1.14-.53-.15-.09-.28-.21-.42-.31-1.32-.67-2.55-1.57-3.59-2.39-1.24-.96-2.37-1.98-3.29-3.26-.54-.76-1.01-1.66-1.49-2.51-.79-1.09-1.52-2.23-2.25-3.35-.96-1.46-1.69-2.96-2.11-4.6-1.03-.45-1.96-1.2-2.64-2.06-.48-.6-.9-1.21-1.21-1.91-.36-.83-.57-1.6-.66-2.5-.05-.56.3-1.12.73-1.45.45-.35 1.04-.5 1.61-.33.42.13.75.36 1.02.7.01.01.01.02.02.03.32.06.71.05 1.1-.04.07-.3.21-.6.44-.87.48-.56.93-1.12 1.29-1.77.47-.85 1.32-1.02 2.06-.78.17-.04.32-.12.56-.4.27-.32.44-.76.69-1.11.71-1.01 1.65-1.7 2.72-2.29.92-.5 1.85-.87 2.35-1.84.7-1.36 2.41-1.01 3.18 0-.33-.44-.33-.24.31-.43.31-.09.62-.18.94-.24 1.04-.21 2.11-.24 3.13-.57.26-.08.49-.22.71-.37.03-.09.06-.18.11-.26.1-.12.19-.25.29-.37.33-.36.83-.52 1.3-.54.25-.01.49.04.71.16.23.07.43.2.59.38.05.04.08.1.12.14.21.11.4.24.58.41.55.5.33.54 1.11.39.27-.05.54-.1.8-.13.01-.01.02-.03.03-.04.45-.46 1.2-.68 1.82-.49.36.11.66.3.93.56.08.08.15.16.21.25.16.05.3.12.46.18.2-.08.41-.13.63-.14.46-.02.98.22 1.3.54.2.2.35.47.44.75.13.07.26.14.39.21.18-.06.37-.09.56-.1.46-.02.98.22 1.3.54.2.2.39.52.48.85.41.24.8.5 1.19.77.23-.02.46 0 .68.05.44.1.88.46 1.1.85.14.23.21.49.23.74.04.04.08.07.12.11.56.55 1.07 1.14 1.66 1.65.08.07.16.15.25.22.12.01.25.03.37.05.44.1.88.46 1.1.85.21.36.36 1.01.19 1.42-.01.02-.02.05-.03.08.03.12.02.2-.05.16.24.14.82.11 1.08.17.93.2 1.36.75 2.14 1.12.75.36 1.28-.6 1.75-1.31.01-.02.01-.04.02-.05 0 0 .01.01.01.01.09-.14.19-.28.28-.38.32-.37.8-.53 1.27-.53.04 0 .08-.01.12-.01.46-.02.98.22 1.3.54.35.35.52.82.54 1.3.05 1.27-.26 2.65-.99 3.71-.45.65-.95 1.15-1.58 1.62-.02.02-.05.03-.07.04-.67.6-1.38 1.16-1.82 1.98-1.34 2.53-2.13 5.32-3.54 7.81-1.42 2.51-3.39 4.32-5.69 6.02-1.26.93-2.55 2.03-3.95 2.89 19.24-4.45 23.24-21.43 19.2-34.5z" fill="#978771"/><path d="m138.94 156.6c.44 26.68 3.7 51.69 6.25 75.75 3.25 1.49 11.86 1.74 17.3.27l1.29-56.74 1.23 56.3c5.77 1.56 13.55.77 16.87-1.48.99-22.81 4.14-46.33 3-74.66-16.14 1.91-32.21 1.99-45.94.56z" fill="#203756"/><path d="m254.61 202.61c.75.12 1.18 1.32.95 2.67s-1.03 2.35-1.79 2.23c-.75-.12-1.18-1.32-.95-2.67s1.03-2.35 1.79-2.23z" fill="#736139"/><path d="m207.3 202.31 4.84 38.33c-.09 4.09 32.16 7.68 36.47.19l6.6-38.6c-15.65-1.85-32.71-1.83-47.91.08z" fill="#f3cd9f"/><path d="m211.85 205.52c.76-.09 1.51.95 1.67 2.31s-.32 2.54-1.08 2.63-1.51-.95-1.67-2.31c-.17-1.37.32-2.55 1.08-2.63z" fill="#736139"/><path d="m212.65 210.36c5.72 20.09 36.5 28.79 42.35-2.73-6.81 22.19-31.21 23.09-42.35 2.73z" fill="#b28750"/><path d="m255.11 202.03c0-2.16-10.54-4.47-23.81-4.47s-24.09 1.94-24.09 4.09c0 2.16 10.91 4.19 24.19 4.19 13.26.01 23.71-1.65 23.71-3.81z" fill="#b28750"/><path d="m250.71 204.28s-3.99 1.16-20.27 1.57c-9.66.24-18.54-1.12-18.91-1.71-.33-.54-.8-1.95-.8-2.62 0-1.95 1.86-4.05 3.91-4.12.03-2.16 2.52-3.91 4.81-3.91.66 0 .95-.08 1.5.17.13-1.07.93-2.02 1.88-2.72 1.55-1.13 3.49-1.13 5.06-.1.65-.89 2.46-1.4 3.7-1.4 1.98 0 3.56 1.65 3.56 3.52 0 .13.08.15.07.28.55-.33 1.4-.52 2.09-.52 1.67 0 2.41.94 2.79 2.41.59-.35 1.7-.28 2.44-.28 1.95 0 3.38.93 3.59 2.72.29-.06 1.43.38 1.74.38 2.27 0 3.7 1.69 3.7 3.84.02.46-.86 2.49-.86 2.49z" fill="#e4f5fc"/><path d="m214.87 204.45c.58-1.53 2.09-2.62 3.87-2.62 1.96 0 3.59 1.33 4.02 3.1" fill="#e4f5fc"/><path d="m227.66 194.76c-.68-1.35-.28-2.95.87-3.86" fill="#e4f5fc"/><path d="m238.93 199.05c-.4-1.46.31-2.95 1.62-3.62" fill="#e4f5fc"/><path d="m214.87 197.69c1.53-.22 2.98.63 3.52 1.97" fill="#e4f5fc"/><path d="m224.13 204.93c0-1.17.98-2.12 2.19-2.12.32 0 .62.07.89.19 0-.04 0-.08 0-.12 0-2.19 1.83-3.97 4.08-3.97 2.06 0 3.77 1.49 4.04 3.43.84-.75 1.96-1.2 3.18-1.2 2.11 0 3.9 1.36 4.5 3.22" fill="#e4f5fc"/><path d="m262.55 243.8c1.8-.69 1.3-1.91 1.3-2.84 0-2.27-6.39-4.28-14.23-4.28-.25 0-.47 0-.47 0l-.51 4.19s-4.82 7.94-29.26 3.35c-6.19-1.16-7.02-3.35-7.02-3.35l-1.44-9.3s-4.19-.56-6.65-.56c-7.84 0-15.44 2.14-15.44 4.7 0 1.71 2.65 3.24 6.88 4.05-1.89.59-2.33 1.81-2.33 2.79 0 1.77 3.88 3.4 8.74 3.4.78 0 1.18-.02 1.91-.09-.49.5-.19 1.21-.19 1.77 0 2.34 4.43 4.08 10.84 4.56-.21.23.42.87.42 1.12 0 1.69 4.34 2.58 10.79 2.6-2.56 2.49 2.73 4.81 8.23 5.02 12.46.49 19.54-4.12 22.47-5.53 1 .05 2.95 0 4 0 10.4 0 18.7-3.02 18.7-5.91.01-2.82-6.71-5.57-16.74-5.69z" fill="#3f70b7"/><path d="m126.83 242.78-9.95 7.44-53.58-2.14c-1.06-.15-3.11-1.45-3.16-2.51l.28-4.56v-2.14l2.88-1.86c-26.09-.17-35.82 2.36-38.7 5.4-2.24 2.37-1.37 5.07 5.58 8.93-33.76 12.29 4.09 19.72 40.74 11.26-3.55 6.35 14.51 8 34.7.84 8.84 3.73 21.58 2.33 13.86-4.84 15.6-.08 17.95-8.56 10.7-11.26-1.25-.47 7.44-1.31-3.35-4.56z" fill="#3f70b7"/><path d="m59.76 243.62s-11.06 5.81-6.98 6.51 8.84.28 8.84.28-2.05 4.5 1.3 3.81 8-2.7 8-2.7-.72 3.17 2.14 3.44 8.37-3.63 8.37-3.63 1.63 4.53 3.35 4.65c3.91.28 5.95-4.47 5.95-4.47s12.16 7.77 14.79 5.86c2.05-1.49-1.4-5.4-1.4-5.4s14 5.92 15.63 4.09-.74-4.19-.74-4.19 9.49 2.42 10.6.47c.62-1.08-3.16-4.09-3.16-4.09s7.99-1.69 5.77-3.16c-1.8-1.19-5.49-2.42-5.49-2.42l-10.6 7.53-52.47-2.33c-.89-.04-3.03-.69-3.44-1.49z" fill="#b99484"/><path d="m189.71 103.53c.04.02.09.03.13.05 1.89.93 2.78 3.06 3.96 4.68.81 1.11 1.66 2.25 2.31 3.48.1-.07.2-.15.29-.22-3.51-11.26-7.78-19.64-12.69-25.5.19.31.29.67.29 1.05 0 .39-.01.84-.17 1.21-.08.2-.18.38-.28.55-.02.08-.05.16-.07.24-.03.14-.05.28-.08.42.02-.05.03-.02-.05.22-.01.1-.02.2-.02.3v.17c.14.09.29.2.42.35.08.09.15.19.23.28.48.02.96.18 1.35.55 3.25 3.12 5.07 7.7 4.38 12.17z" fill="#bbe4f9"/><path d="m185.32 117.75c-.81-1.32-1.42-2.77-1.83-4.27-.48-.66-.92-1.35-1.16-2.16-.04-.14-.05-.27-.08-.41-.87.01-1.69-.17-2.45-.57-.82-.27-1.54-.73-2.14-1.38-.72-.72-1.24-1.6-1.56-2.56-.1-.15-.21-.3-.32-.46-.6-1.04-.9-2.16-.91-3.36l.24-1.77c.16-.58.4-1.12.7-1.62.48-1.2 1.29-2.25 2.43-2.96-.07-.14-.14-.28-.21-.44-.51-1.23.13-2.68 1.29-3.26.03-.01.06-.03.09-.04-.01-.05-.02-.1-.03-.15-.04-.22-.07-.44-.1-.67-.09-.61-.16-1.21-.13-1.83.07-1.16.35-2.26.73-3.35.35-.99 1.22-1.64 2.29-1.5.42.06.8.25 1.11.52-4.41-5.1-9.34-8.2-14.69-9.55v.33c.14 3.43-1.99 6.98-6.41 6.98-4.43 0-6.56-3.54-6.41-6.97 0-.12-.01-.24 0-.36-12.41 2.99-26.34 15.37-30.63 46.48 3.74.73 12.26 2.17 15.94 1.33-.53 3.33-.94 6.25-1.26 8.92.28.08.55.19.8.34.16.12.31.24.47.36.41-.75 1.09-1.34 2.05-1.58.58-.38 1.19-.7 1.9-.93 1.35-.44 2.83-.51 4.24-.49 1.25.02 2.51.15 3.75.05.03 0 .16-.02.26-.03.09-.02.23-.04.26-.04.32-.07.63-.19.95-.26h.01c.01-.01.02-.02.05-.03.08-.05.18-.12.28-.17-.02 0-.01-.01.09-.08.01-.01.01-.01.02-.01.01-.02.02-.05.04-.08.58-.97 1.87-1.33 2.86-.75.96.56 1.33 1.89.75 2.86-.78 1.3-1.98 2.01-3.32 2.4.73.29 1.44.66 2.07 1.1.27.18.49.39.71.61.34.19.66.42.93.71-.01-.02-.03-.03-.04-.05.02.03.04.05.06.07.06.06.11.13.17.2.05.06.11.12.17.21.34.44.49.58.65 1.22.05.19.13.77.14.97 0 .19-.03.31-.06.54-.04.28-.03.38-.1.58-.12.28-.24.56-.36.84-.06.13-.15.25-.25.35l.18-.23c-.12.16-.21.33-.3.5-.03.05-.05.1-.08.15-.36 1.18-.96 2.3-1.72 3.19-.02.02-.04.04-.06.06-.02.08-.03.16-.05.24-.35 1.32-1.34 2.15-2.48 2.43-.07.25-.17.49-.3.74-.85 1.6-3.31 2.32-4.84 1.27-.77-.53-1.38-1.12-1.98-1.82.45.52-.19-.09-.41-.32-.23-.12-.32-.17-.27-.17-.16-.05-.32-.1-.48-.12-.63-.12-1.16-.46-1.58-.91-.5-.15-.94-.42-1.33-.77-.45-.06-.88-.21-1.29-.45-.24-.18-.48-.37-.72-.55-.34-.32-.59-.7-.73-1.14-.07-.13-.11-.28-.15-.42-.44-.43-.74-.97-.9-1.57-.01.04-.02.08-.03.13.47 1.45.09 3.21-1.15 4.14-.24 4.12-.43 8.23-.8 13.24 12.66 3.83 37.78 3.65 48.25.07-.83-18.48-2.7-32.55-4.09-40.43.86-.17 2.01-.57 3.26-1.09z" fill="#bbe4f9"/><path d="m162.59 89.9c.56.09.95.62.86 1.18s-.62.95-1.18.86-.95-.62-.86-1.18.62-.95 1.18-.86z" fill="#203756"/><path d="m162.59 96.23c.56.09.95.61.86 1.18-.09.56-.62.95-1.18.86s-.95-.61-.86-1.18c.09-.56.62-.94 1.18-.86z" fill="#203756"/><path d="m162.59 102.57c.56.09.95.62.86 1.18s-.62.95-1.18.86-.95-.62-.86-1.18.62-.95 1.18-.86z" fill="#203756"/><path d="m199.08 65.37-15.59 24.77c.43.04.86.18 1.24.39 1.2.69 1.94 1.83 2.13 3.11l16.18-25.72z" fill="#736139"/><path d="m175.1 105.06c-.15-.43-.56-1.77-.55-2.19l-16.47 26s.87.84.57 2.19c-.56 2.47-2.79 3.35-2.79 3.35s2.98.98 4.19 3.49l17.91-28.65c-.09-.04-.43-1.08-.52-1.13-1.05-.63-1.96-1.93-2.34-3.06z" fill="#736139"/><path d="m146.41 147.38-54.84 87.21c-9.83-.2-17.86-.79-20.19-.84-.4-.01-2.24.66-2.6.84-1.54.73-5.21 2.86-8 4.19-.27.13-.62.73-.56 1.02.06.3-.21 1.2.09 1.21.75.03-.09 1.3-.09 1.3s-.17 1.17-.19 2.79c-.01 1.26 1.81 2.64 3.07 2.7 9.2.43 43.6 2.2 52.28 2.6.31.01.85.11 1.12 0l1.95-1.4s5.58-3.76 7.91-5.4c.47-.33 1.1-1.67 1.21-2.23.25-1.26.24-4.09-.28-5.49-.27-.71-1.31-.74-1.4-.74-4.81-.1-15.19-.33-26.7-.56l52.6-83.91c-3.47-2.91-4.83-1.79-5.38-3.29z" fill="#736139"/><path d="m218.78 260.22c-1.81 0-4.42 1.02-4.19 2.98.13 1.06 7.53 2.51 8.56-.33.48-1.32-2.55-2.65-4.37-2.65z" fill="#9abbe2"/><path d="m210.97 257.76c-2.33.05-3.38 1.64-3.21 2.42.15.7 5.4 1.72 6.28-.09.41-.86-.93-2.38-3.07-2.33z" fill="#9abbe2"/><path d="m205.3 225.85c-.9 0-2.64 1.33-2.51 1.91.11.52 4.7 1.12 5.16-.23.22-.67-1.75-1.68-2.65-1.68z" fill="#9abbe2"/><path d="m269.11 225.66c-1.81 0-3.92 1.77-3.67 2.93.23 1.04 6.93 2.6 8.74-.09.78-1.17-1.54-2.84-5.07-2.84z" fill="#9abbe2"/><path d="m278.04 237.29c-1.81 0-4.17 1.75-4.23 2.93-.09 1.72 7.49 2.56 8.51-.19.49-1.31-2.46-2.74-4.28-2.74z" fill="#9abbe2"/><path d="m259.76 229.85c-1.95.05-3.24 1.44-3.12 2.23.23 1.44 5.95 1.91 6.33-.23.16-.93-1.99-2.03-3.21-2z" fill="#9abbe2"/><path d="m62.51 267.57c-3.16.05-4.87 2.3-4.6 3.63.6 3.01 9.58 1.38 9.53.09-.06-1.61-2.91-3.75-4.93-3.72z" fill="#9abbe2"/><path d="m14.83 248.45c-1.39 0-3.4 2.11-3.21 3.02.17.82 6.47 2 7.21-.37.33-1.05-2.61-2.65-4-2.65z" fill="#9abbe2"/><path d="m50.92 271.34c-1.54.03-3.89 2.1-3.67 3.12.19.91 7.52.8 7.49-.19-.05-1.23-1.21-2.98-3.82-2.93z" fill="#9abbe2"/><path d="m195.2 225.52c-1.22.03-3.44.7-3.3 2.42.06.72 5.81 1.53 6.47-.28.31-.89-1.03-2.18-3.17-2.14z" fill="#9abbe2"/><path d="m199.71 219.85c-1.41-.06-3.59 1.94-3.4 2.84.18.81 6.65 1.58 7.12-.37.26-1.07-1.48-2.38-3.72-2.47z" fill="#9abbe2"/><path d="m49.53 229.57c.5-1.53-2.95-3.26-4.98-3.26-2.02 0-5.21 2.34-4.93 3.67.25 1.21 8.75 3.12 9.91-.41z" fill="#9abbe2"/><path d="m55.3 230.22c-1.54 0-4.4 1.95-3.95 2.88 1.07 2.23 7.99.94 7.95-.05-.05-1.22-2.46-2.83-4-2.83z" fill="#9abbe2"/><path d="m120.64 271.62c-2.19 0-5.25 1.84-4.93 3.77.33 1.95 9.49 2.37 10.09-.33.37-1.63-2.97-3.44-5.16-3.44z" fill="#9abbe2"/><path d="m137.6 48.01c-.03 1.4 1.76 4.88 2.95 3.01 1.2-1.86 2.06-7.7 2.06-7.7s.81 6.27 2.37 4.09c1.56-2.19 2.09-6.31 2.09-6.31s.02 4.86 2.17 2.38c2.16-2.49 3.13-6.75 3.13-6.75s.38 7.02 1.81 4.88c1.42-2.14 1.5-3.48 1.5-3.48s.54 4.56 2.1 3.13c1.57-1.43 1.77-4.69 1.77-4.69s.53 3.48 1.45 2.64 1.22-3.17 1.22-3.17.33 5.99 1.56 4.89 1.84-3.65 1.84-3.65.79 4.67 2.08 3.54 1.71-4.3 1.71-4.3.35 7.23 1.69 6c1.35-1.23 1.81-2.89 1.81-2.89s.28 6.23 1.6 5 1.71-3 1.71-3-.27 7.57 2.07 6.68 2.29-3.32 2.29-3.32-1.46 7 .21 6.43 2.34-1.97 2.34-1.97-1.25 3.2.25 2.63c1.51-.57 5.14-9.95-1.48-21.91-10.8-19.5-27.07-7.93-27.07-7.93-4.43-1.9-9.61 1.36-14.1 8.2-3.88 5.9-3.05 14.34-3.13 17.57z" fill="#978771"/><path d="m166.88 18.18c4.07 1.05 7.16 5.46 8.49 14.49" fill="#978771"/><path d="m126.62 115.98c5.34.36 10.75 1.26 15.7 2.55l.39-1.94c-5.14-1.04-10.44-1.96-15.58-2.46z" fill="#fff"/><path d="m193.87 103.82c-.92.46-1.82.9-2.74 1.34l.29.38c.07.17.14.33.21.5.02.08.02.16.04.24.03.04.07.08.11.14-.02-.02.12.15.17.22 0 0 0 .01.01.01.02.05.05.1.07.15.9-.41 1.81-.81 2.72-1.2z" fill="#fff"/><path d="m125.75 119.82c5.43.3 10.76 1 15.78 2.23l.44-1.82c-5.22-.99-10.63-1.74-15.85-2.19z" fill="#fff"/><path d="m194.77 109.63s.8-.37 1.2-.55l-.77-1.71c-.47.24-1.4.71-1.4.71z" fill="#fff"/><path d="m181.3 114.93.79 1.64c1.05-.73 1.43-.66 2.5-1.3-.09-.19-.82-1.6-.77-1.91-1.24.7-1.32.8-2.52 1.57z" fill="#fff"/><path d="m169.61 63.23s-6.83 2.25-14.38.39c3.87 7.85 10.78 6.89 14.38-.39z" fill="#fff"/><path d="m168.67 76.95c.31 1.26-.15 1.88-.7 3.03-.19.41-.1 1.04-.38 1.36-.49.71-.59 1.19-1.41 1.53-.52.22-1.04.3-1.53.13-.7.12-1.41.16-2.11.15-.48 0-.97-.01-1.46-.05-.98.24-2.1.09-2.9-.52-.25-.19-.43-.41-.58-.64-.12-.06-.25-.11-.36-.18-1.2-.7-1.98-1.86-1.98-3.18-.05-.32-.03-.65.02-.98-.41-.39-.64-.96-.59-1.55 0-.01-.22-.26-.22-.27-1.8.61-4.26 1.17-5.58 2.16 0 0 2.48 7.63 5.76 11.06.38.4 1.72 1.17 2.27 1.19.55.01 1.8-.57 2.13-1.01.1-.13.2-.26.3-.39l-.44 19.37 6.98.1-.52-19.49c.12.16.23.32.35.48.33.46 1.29.75 1.85.73.56-.01 1.56-.69 1.95-1.08 2.82-2.81 4.99-11.06 4.99-11.06-1.43-.92-3.68-1.41-5.27-1.92.05.17-.62.85-.57 1.03zm-6.21 12.19c2.14 0 2.13 3.32 0 3.32-2.14 0-2.14-3.32 0-3.32zm0 16.05c-2.14 0-2.13-3.32 0-3.32 2.14.01 2.13 3.32 0 3.32zm.03-6.35c-2.14 0-2.13-3.32 0-3.32 2.14.01 2.14 3.32 0 3.32z" fill="#fff"/><path d="m270.13 246.95c7.64 2.6-6.38 6.27-13.76 4.86 17.04 3.81 26.24-4.95 13.76-4.86z" fill="#fff"/><path d="m243.39 255.05c1.08 2.9-11.79 3.45-14.26 1.42 4.99 5.07 21.63.3 14.26-1.42z" fill="#fff"/><path d="m194.35 236.17c-.9-2.2 11.42-3.47 13.67-2.03-4.52-3.66-20.62 1.16-13.67 2.03z" fill="#fff"/><path d="m38.76 240.99c-10.87-1.15-15.59 5.17-5.98 7.76 3.42-2.35-4.85-6.43 5.98-7.76z" fill="#fff"/><path d="m92.01 259.07c9.6 3.08-11.2 4.84-17.6 5.39 20.68 2.03 33.01-5.49 17.6-5.39z" fill="#fff"/><path d="m147.88 148.05.07-.06c-.01.01-.02.02-.03.03s-.03.02-.04.03z" fill="#010101"/><path d="m175.47 74.37c2.6-.9 6.03-6.15 5.84-7.5-.32 1.66-4.98 6.89-5.84 7.5z" fill="#c9b49a"/><path d="m144.73 69.94c-.25.79 1.61 3.88 3.31 4.41-.54-.36-3.25-3.43-3.31-4.41z" fill="#c9b49a"/><path d="m184.28 64.92c-.04 1.68-4.24 7.12-5.08 7.78 2.71-1.01 5.54-6.43 5.08-7.78z" fill="#c9b49a"/><path d="m140.86 66.43c-.45 1.26 2.24 6.34 4.84 7.29-.81-.62-4.81-5.71-4.84-7.29z" fill="#c9b49a"/><path d="m171.58 20.3c.85.65 5.09 6.06 5.14 7.74.45-1.35-2.42-6.75-5.14-7.74z" fill="#c9b49a"/><path d="m183.46 37.36c.45-1.19-2-10.87-6.36-13.51.74.61 5.21 6.64 6.36 13.51z" fill="#c9b49a"/><path d="m150.85 31.68c.76-9.32 14.54-9.94 18.65-10.97-6.19-3.05-18.41 1.3-18.65 10.97z" fill="#c9b49a"/><path d="m150.91 21.94c-7.54 1.38-11.17 11.85-10.8 17.67.53-8.08 6.32-15.75 10.8-17.67z" fill="#c9b49a"/><g fill="#010101"><path d="m153.18 244.44c.17-.38.01-.82-.37-1-1.35-.62-2.41-.88-3.92-.96-.43-.04-.77.3-.78.71-.02.41.3.76.71.78 1.31.06 2.19.28 3.36.82.1.05.21.07.31.07.29.01.56-.15.69-.42z"/><path d="m151.2 246.09c-1.26-.81-3.14-1.31-4.37-1.16-.41.05-.7.43-.65.84s.43.7.84.65c.89-.11 2.4.31 3.37.93.13.08.27.12.41.12.25 0 .49-.12.63-.34.22-.35.12-.81-.23-1.04z"/><path d="m173.86 244.12c.12.28.4.44.69.44.1 0 .21-.02.3-.06 1.16-.52 2.2-.87 3.45-.91.41-.01.74-.36.73-.77s-.36-.73-.77-.73c-1.59.04-2.87.52-4.01 1.04-.38.16-.55.61-.39.99z"/><path d="m175.95 246.67c.14.23.39.35.63.35.14 0 .28-.04.4-.12.97-.61 2.38-.94 2.68-.94h.01c.41.04.77-.26.81-.67s-.26-.78-.67-.82c-.67-.06-2.52.47-3.63 1.17-.34.22-.45.68-.23 1.03z"/><path d="m40.15 231.54c.79.46 2.74.76 4.67.74 1.27-.02 2.53-.15 3.39-.39.55-.15.97-.36 1.25-.57.62-.46.83-1.04.81-1.61-.04-1.05-.55-2.01-1.41-2.76-1.04-.91-2.62-1.49-4.21-1.49-1.88 0-3.93 1.08-4.87 2.32-.6.79-.81 1.65-.64 2.44.09.46.38.96 1.01 1.32zm4.5-4.57c2.02 0 4.06 1.2 4.12 2.81.05 1.29-7.92 1.34-8.17.14-.27-1.33 2.03-2.95 4.05-2.95z"/><path d="m62.55 266.81c-1.88 0-3.93 1.08-4.87 2.32-.6.79-.81 1.65-.64 2.44.1.46.38.95 1.01 1.31.79.46 2.74.76 4.67.74 1.27-.02 2.53-.15 3.39-.39.55-.15.97-.36 1.25-.57.62-.46.83-1.04.81-1.61-.04-1.05-.55-2.01-1.41-2.76-1.03-.89-2.62-1.48-4.21-1.48zm-4.04 4.45c-.28-1.33 2.02-2.95 4.05-2.95 2.02 0 4.06 1.2 4.12 2.81.04 1.29-7.92 1.34-8.17.14z"/><path d="m19.48 251.03c-.03-.84-.43-1.62-1.12-2.23-.79-.69-1.99-1.14-3.2-1.14-1.43 0-3 .83-3.72 1.78-.5.66-.67 1.39-.53 2.05.09.42.34.88.92 1.21.58.34 2.02.59 3.45.57 1.49-.02 2.94-.36 3.46-.75.57-.42.76-.96.74-1.49zm-7.09.16c-.19-.91 1.39-2.02 2.77-2.02 1.39 0 2.78.82 2.82 1.92.03.88-5.42.92-5.59.1z"/><path d="m50.95 270.36c-1.54 0-3.23.89-4 1.91-.53.69-.7 1.46-.56 2.15.09.43.35.9.94 1.24.63.37 2.19.63 3.75.61 1-.01 2-.12 2.67-.31.47-.13.83-.31 1.08-.49.58-.44.78-.99.76-1.52-.03-.89-.46-1.72-1.19-2.36-.86-.75-2.15-1.23-3.45-1.23zm-3.09 3.74c-.21-1.01 1.54-2.25 3.09-2.25 1.54 0 3.09.91 3.14 2.14.03.99-6.04 1.03-6.23.11z"/><path d="m51.73 234.57c.63.37 2.19.63 3.75.61 1-.01 1.99-.12 2.67-.31.47-.13.83-.31 1.08-.49.58-.43.78-.99.76-1.52-.03-.89-.46-1.72-1.19-2.36-.85-.74-2.15-1.23-3.45-1.23-1.54 0-3.23.89-4 1.91-.53.69-.7 1.46-.56 2.15.09.44.35.9.94 1.24zm3.61-3.79c1.54 0 3.09.91 3.14 2.14.04.98-6.03 1.02-6.22.11-.21-1.01 1.54-2.25 3.08-2.25z"/><path d="m218.8 259.02c-1.53 0-3.17.76-4.13 1.7.14-.27.2-.56.19-.85-.03-.78-.41-1.51-1.07-2.07-.72-.61-1.82-1.01-2.92-1.01-1.31 0-2.74.75-3.4 1.59-.49.63-.64 1.33-.51 1.96.09.41.34.86.91 1.18.52.29 1.82.52 3.11.51 1.35-.02 2.66-.33 3.13-.67.04-.03.07-.07.11-.1-.5.71-.67 1.47-.52 2.16.09.44.37.92.99 1.27.72.4 2.49.68 4.26.66 1.15-.01 2.29-.13 3.07-.34.51-.14.91-.33 1.17-.52.62-.45.83-1.02.81-1.58-.04-.97-.51-1.86-1.33-2.55-.96-.81-2.42-1.34-3.87-1.34zm-10.37.99c-.17-.78 1.22-1.73 2.44-1.73s2.45.7 2.49 1.65c.03.76-4.78.79-4.93.08zm6.74 3.08c-.25-1.16 1.82-2.57 3.63-2.57 1.82 0 3.64 1.04 3.7 2.45.03 1.12-7.11 1.17-7.33.12z"/><path d="m125.08 272.13c-1.1-.92-2.77-1.51-4.45-1.51-1.99 0-4.15 1.1-5.15 2.35-.65.81-.87 1.71-.69 2.52.1.46.4.96 1.05 1.32.83.46 2.91.77 4.96.75 1.36-.02 2.7-.15 3.61-.39.57-.15 1.01-.35 1.31-.56.65-.47.88-1.06.85-1.64-.03-1.07-.57-2.07-1.49-2.84zm-8.82 3.04c-.3-1.38 2.19-3.05 4.37-3.05 2.19 0 4.39 1.24 4.45 2.9.06 1.34-8.55 1.39-8.82.15z"/><path d="m169.14 61.8s-2.8.91-6.74 1.04c-2.04.06-4.38-.08-6.8-.68-.57-.14-1.16.06-1.53.52-.37.45-.44 1.08-.18 1.6 2.27 4.63 5.56 6.51 8.7 6.32 3.1-.18 6.27-2.46 8.37-6.71.27-.54.18-1.19-.21-1.65-.4-.45-1.03-.63-1.61-.44zm-6.62 7.3c-2.66.17-5.35-1.56-7.28-5.48 7.55 1.87 14.38-.39 14.38-.39-1.81 3.64-4.44 5.7-7.1 5.87z"/><path d="m159.97 60.11c.27.04.53-.15.57-.42.17-1.12 1.09-1.7 2.02-1.74.92-.03 1.85.49 2.05 1.62.05.27.31.45.58.41s.45-.31.41-.58c-.3-1.7-1.69-2.5-3.07-2.45-1.37.05-2.72.93-2.97 2.58-.05.28.13.54.41.58z"/><path d="m155.97 52c0-.42-.17-.79-.43-1.07.27.01.55.04.84.08.27.04.52-.15.56-.43.04-.27-.15-.53-.43-.56-1.29-.18-2.32-.14-3.23.22-.9.35-1.69 1.02-2.46 2.14-.16.23-.1.54.13.69.23.16.54.1.7-.13.37-.54.75-.95 1.15-1.26-.02.1-.03.21-.03.32 0 .88.72 1.59 1.6 1.59.88-.01 1.6-.72 1.6-1.59z"/><path d="m169.98 50.23c-.9-.35-1.94-.4-3.23-.22-.27.04-.47.29-.43.56s.29.47.56.43c.3-.04.58-.07.84-.08-.26.28-.43.66-.43 1.07 0 .88.72 1.59 1.6 1.59s1.6-.71 1.6-1.59c0-.11-.01-.22-.03-.32.4.31.77.72 1.15 1.26.16.23.47.28.7.13s.28-.47.13-.69c-.77-1.12-1.55-1.78-2.46-2.14z"/><path d="m157.66 45.99c.41 0 .75-.34.75-.75s-.34-.75-.75-.75c-1.97 0-3.59.4-4.89.95-2.8 1.17-4.1 3-4.1 3-.24.34-.17.81.17 1.05s.8.17 1.05-.17c0 0 1.11-1.51 3.46-2.49 1.14-.49 2.57-.84 4.31-.84z"/><path d="m170.64 45.25c-1.31-.5-2.95-.84-4.92-.77-.41.01-.74.36-.72.77.01.41.36.74.78.72 1.74-.06 3.18.24 4.34.68 2.38.9 3.55 2.37 3.55 2.37.25.33.73.39 1.05.13.33-.25.39-.72.13-1.05-.01 0-1.37-1.78-4.21-2.85z"/><path d="m162.74 88.91c-.55-.09-1.09.06-1.51.37s-.72.78-.81 1.33c-.09.56.06 1.09.37 1.51s.78.72 1.33.81 1.09-.06 1.51-.37.72-.78.81-1.33-.06-1.09-.37-1.51c-.3-.42-.77-.73-1.33-.81zm-.46 3.03c-.56-.09-.95-.61-.86-1.18.09-.56.62-.95 1.18-.86s.95.61.86 1.18c-.09.56-.62.94-1.18.86z"/><path d="m162.74 95.24c-.55-.09-1.09.06-1.51.37s-.72.77-.81 1.33c-.09.55.06 1.09.37 1.51s.78.72 1.33.81 1.09-.06 1.51-.37.72-.78.81-1.33-.06-1.09-.37-1.51c-.3-.42-.77-.72-1.33-.81zm-.46 3.03c-.56-.09-.95-.61-.86-1.18.09-.56.62-.95 1.18-.86s.95.61.86 1.18c-.09.56-.62.95-1.18.86z"/><path d="m162.74 101.58c-.55-.09-1.09.06-1.51.37s-.72.78-.81 1.33.06 1.09.37 1.51.78.72 1.33.81 1.09-.06 1.51-.37.72-.77.81-1.33c.09-.55-.06-1.09-.37-1.51-.3-.42-.77-.72-1.33-.81zm-.46 3.03c-.56-.09-.95-.61-.86-1.18.09-.56.62-.95 1.18-.86s.95.61.86 1.18c-.09.56-.62.95-1.18.86z"/><path d="m180.32 46.03c.23-.66.22-1.19.22-1.19s-.1.49-.22 1.19z"/><path d="m168.1 174.92c-.7.28-1.66.42-2.78.49-.51.03-1.04.04-1.6.05-.35.01-.71.02-1.07.02-.53.01-1.06.02-1.61.01-.81-.01-1.63-.03-2.43-.11-.11-.02-.22.06-.25.17-.02.11.06.23.17.24.95.25 1.93.45 2.91.57.4.05.8.07 1.19.09.27.01.53.02.8.01.7-.02 1.36-.1 1.98-.22 1.18-.21 2.17-.55 2.86-.95.1-.05.15-.18.1-.28s-.17-.14-.27-.09z"/><path d="m277.2 245.79c-2.52-1.39-7.11-2.48-12.65-2.89.17-.38.25-.76.25-1.15 0-1.1-.72-2.29-2.36-3.2-2.35-1.31-6.92-2.28-12.27-2.4l3.12-18.29c1.21-2.45 2.19-5.32 2.91-8.63l23.09-.04c.41 0 .75-.34.75-.75s-.34-.75-.75-.75l-22.79.04c.01-.17 0-.34-.04-.5.27-.49.48-1.06.59-1.69.25-1.44-.1-2.74-.66-3.47-.22-.28-.47-.5-.75-.66-.07-.2-.17-.4-.32-.59-.28-.37-.84-.79-1.72-1.12-.58-.22-1.35-.43-2.29-.63-.99-1.18-2.54-1.92-4.34-1.97-.81-1.81-2.68-3.09-4.88-3.09-.44 0-.87.05-1.28.15-.9-1.29-2.44-2.15-4.19-2.15-.22 0-.44.01-.66.04-.69-1.9-2.57-3.29-4.81-3.29-1.25 0-2.39.43-3.27 1.15-1.89-.74-4.11-.54-5.81.71-.8.58-1.39 1.32-1.77 2.14-.27-.04-.54-.06-.82-.06-2.67 0-4.88 1.75-5.51 4.09-1.33.36-2.43 1.21-3.11 2.33-.84.18-1.54.37-2.07.58-.88.34-1.44.76-1.72 1.12-.26.34-.38.7-.41 1.05-.05.19-.07.39-.04.59l.68 5.37-22.46.04c1.05-14.63 2.11-30.03 1.69-47.16.02-.01.05-.02.08-.02.63-.22 1.04-.82 1.01-1.49-.34-7.56-.85-14.39-1.44-20.36-.51-5.16-1.06-9.67-1.61-13.48 2.5 3.96 5.47 6.82 8.21 8.27 3.07 1.62 5.92 1.55 7.88-.1 1.02-.86 1.92-2.8 1.93-5.7.02-3.6-1.26-8.94-5.04-15.38.3-.38.41-.89.26-1.37-2.38-7.62-5.11-13.93-8.14-19.08 8.86-14.08 14.63-23.26 14.63-23.26.44-.7.23-1.61-.46-2.06l-3.96-2.56c-.34-.22-.75-.29-1.14-.21-.39.09-.73.33-.95.67l-12.94 20.55c0-.01-.01-.03-.01-.05-.25-.73-.7-1.16-1.22-1.39-.44-.49-.89-.97-1.34-1.42-2.42-2.39-4.98-4.24-7.66-5.61 6.87-2.36 11.55-6.43 14.43-11.27 4.3-7.24 4.62-16.24 2.22-23.94-2.95-9.48-7.95-16.15-13.67-19.95-.81-.54-1.64-1.02-2.48-1.44-1.5-.99-3-1.69-4.48-2.14-7.25-2.23-13.94 1.23-16.06 2.51-2.33-.74-4.83-.37-7.33 1.03-1.16.65-2.33 1.55-3.48 2.66.04-.04.07-.09.11-.13-.32.26-.63.52-.95.8-5.79 5.27-10.26 15.36-10.74 25.4-.33 6.96 1.26 13.88 5.54 19.16 2.61 3.22 6.24 5.84 11.05 7.5-3.62 1.82-7.19 4.5-10.47 8.3-6.34 7.33-11.66 18.88-14.08 36.4-.09.63.23 1.22.76 1.51 0 .1 0 .19.02.29.1.56-.04 4.02.18 8.15.23 4.4.85 9.5 2.38 12.94 1.25 2.79 3.13 4.53 5.62 4.64 1.08.05 2.35-.26 3.79-1.02-.22 3.23-.38 7.39-.65 11-.05.68.37 1.3 1 1.52l-29.8 47.42-88.9.16c-.41 0-.75.34-.75.75s.34.75.75.75l87.95-.15-15.22 24.17c-9.49-.19-17.68-.36-19.94-.4-.64-.01-1.27.12-1.84.4-1.06.51-3.48 1.66-5.8 2.76-18.84.16-30.54 1.39-36.07 3.48-3.26 1.24-4.64 2.96-4.74 4.66-.06 1.09.37 2.3 1.45 3.56.83.97 2.09 2.01 3.77 3.11-5.34 2.15-8.61 4.11-10.21 5.79-1.33 1.41-1.68 2.75-1.43 3.91.24 1.11 1.08 2.19 2.65 3.05 2.07 1.13 5.6 1.98 10.22 2.43 9.79.96 24.65.26 40.39-2.56.02.41.1.79.24 1.15.39 1.03 1.28 1.94 2.72 2.59 2.02.92 5.31 1.38 9.62 1.2 5.99-.24 14.03-1.67 23.28-4.54 4.65 1.82 10.33 2.25 13.57 1.44 1.89-.47 3.05-1.45 3.41-2.54.26-.79.21-1.72-.44-2.77-.19-.31-.44-.64-.77-.99 4.67-.44 8.12-1.57 10.27-2.93 2.34-1.48 3.3-3.32 3.17-4.97-.09-1.18-.72-2.36-2.04-3.38-.32-.24-.69-.47-1.1-.7.1-.06.2-.13.28-.19.61-.53.79-1.14.72-1.71-.05-.45-.28-1.02-1.01-1.5-.84-.56-2.33-1.2-3.74-1.74.05-.23.09-.47.09-.71v-4.83c0-.23-.06-.45-.16-.65.04.02.07.05.11.07-.01-.07-.02-.14-.03-.22-.23-.92-1.04-1.57-1.99-1.59-4.44-.09-14.92-.3-25.56-.52 3.07-4.87 8.5-13.51 15.33-24.37l25.42-.04c.83 7.8 1.7 15.49 2.5 23.07.06.53.38.98.86 1.2.96.44 2.36.78 4 1.01l.58 4.12c-5.29 4.78-8.71 8.38-10.75 11.08-.99 1.13-2.54 3.27-2.96 6.01-.39 2.58.33 5.26 2.31 6.98 3.64 3.15 10.75 2.97 14.79-.64 3.38-3.01 7.5-8.74 10.43-14.18.6-1.11.83-2.86.58-4.57-.25-1.75-1-3.41-2.11-4.33-.01-.01-.02-.01-.03-.02l.32-4.84c.4-.09.79-.18 1.17-.28.47-.13.84-.47 1.01-.9.19.22.44.38.74.46.25.07.51.12.76.18l.35 5.4c0 .02.01.04.01.07-.94.9-1.65 2.38-1.96 3.93-.33 1.68-.18 3.41.41 4.51 2.81 5.26 6.77 10.81 10.02 13.72 3.91 3.5 10.77 3.67 14.28.62 1.91-1.67 2.61-4.28 2.23-6.78-.01-.65-.16-1.39-.49-2.22 0-.01 0-.02 0-.02-.05-.11-.11-.22-.16-.33-.06-.13-.11-.26-.18-.4-1.41-2.83-5.11-7.13-12.44-13.78l.34-4.68c1.99-.44 3.72-1.07 4.91-1.88.39-.27.64-.7.66-1.18.3-7.02.81-14.12 1.33-21.4l22.76-.04 2.71 21.28c-1.74-.17-3.64-.26-5.65-.26-5.77 0-11.12.76-13.81 2.1-1.75.87-2.56 2.09-2.56 3.32 0 .9.44 1.82 1.4 2.61.85.7 2.21 1.34 3.88 1.88-.48.59-.71 1.23-.71 1.87 0 .94.5 1.92 1.62 2.7 1.63 1.15 4.9 2.01 8.69 2.01.01 1.09.58 2.19 1.79 3.13 1.75 1.35 5.08 2.47 9.2 2.95.22.75.86 1.52 2.03 2.12 1.73.88 4.91 1.56 8.72 1.78-.04.81.25 1.57.88 2.25 1.21 1.3 4.25 2.35 8.06 2.5 12.39.49 19.9-3.84 23.12-5.45.9.04 1.82.05 2.76.05 7.59 0 14.17-1.25 17.44-3 1.99-1.06 2.9-2.44 2.9-3.72.03-1.25-.84-2.6-2.74-3.65zm-21.6-41.52c.03.32.02.66-.04 1.02-.05.32-.15.61-.26.88-.01 0-.01 0-.02 0zm-69.49-45.01c-8.47 2.9-26.51 3.57-39.8 1.69 2-3.18 4-6.36 6.01-9.55.45-.04.9-.18 1.32-.44.61-.38 1.17-1.04 1.48-1.9.82-.06 1.6-.5 2.18-1.22.43-.53.72-1.2.83-1.91.33-.15.63-.39.9-.71.52-.64.84-1.76.82-2.89.21-.13.41-.3.58-.5.78-.9 1.03-2.62.34-3.86 6.06-9.63 11.94-18.99 17.32-27.54.92.75 1.84 1.29 2.63 1.51.16.79.31 1.58.45 2.35.34 1.87.61 3.67.8 5.45.03.25.15.45.31.6 1.35 8.1 3.05 21.55 3.83 38.92zm-27.08-30.26 15.12-24.02c.54 1.57 1.6 3.15 2.81 4.42l-17.11 27.21c-.5-.7-1.14-1.42-2.52-2.18.67-.64 1.23-1.36 1.57-1.9.95-1.54.69-2.77.13-3.53zm23.12-16.8c.78 1.62 1.7 3.72 2.63 5.77-.41.16-.81.31-1.2.43-.28-1.47-.6-2.96-.98-4.49-.14-.56-.3-1.13-.45-1.71zm17.55 20.17c-3.67 3.1-11.28-1.78-15.79-11.36-.06-.36-.12-.73-.18-1.08.52-.16 1.09-.37 1.67-.6.61 1.31 1.21 2.55 1.78 3.55.78 1.39 1.51 2.34 2.06 2.54.15.06.32-.01.38-.16s-.01-.32-.16-.38c-.17-.07-.35-.27-.55-.53-.51-.68-1.08-1.83-1.68-3.22-1.21-2.79-2.51-6.49-3.57-9.14 1.24-.31 2.35-1.03 3.29-2 1.5-1.55 2.56-3.74 3.18-5.39 12.33 14.59 12.12 25.62 9.57 27.77zm-3.92-22.75c-1.43-2.14-3.12-4.37-5.12-6.69.61-2.52-.54-6.08-2.22-8.96.11-.18.23-.37.34-.55 2.57 4.49 4.91 9.86 7 16.2zm-10.85-21.77 14.15-22.48 3.96 2.56-15.5 24.64c-.95-1.37-1.98-2.45-2.83-3.06.07-.56.16-1.13.22-1.66zm4.26 14.8c-.51 1.97-2.68 7.62-6.47 7.99-.1-.02-.2-.02-.3.01-.41.01-.83-.02-1.28-.15-2.01-.57-5.1-3.78-5.75-6.67-.35-1.55-.63-2.68.47-3.06.22.3.46.61.74.92.96 1.05 2.19 2.07 3.02 2.6.25.17.59.11.76-.14s.11-.59-.14-.76c-.72-.55-1.76-1.58-2.56-2.61-.53-.69-.96-1.36-1.04-1.88-.02-.11-.07-.21-.13-.3.08-.82.47-1.53 1.18-1.78.27.35.59.74.97 1.14.92.97 2.05 1.97 2.85 2.47.25.17.59.11.76-.14s.11-.59-.14-.76c-.58-.44-1.35-1.24-2.03-2.05-.73-.87-1.38-1.76-1.5-2.21-.05-.15-.14-.26-.25-.36-.05-.89.37-1.68 1.43-1.91.2.43.46.9.77 1.38.78 1.21 1.8 2.47 2.57 3.07.23.2.58.17.77-.06.2-.23.17-.58-.06-.77-.54-.5-1.2-1.45-1.76-2.42-.58-1.01-1.06-2.03-1.08-2.56-.01-.13-.06-.25-.13-.35-.06-1.06.66-1.11 2.06-.94 2.19.23 7.38 8 6.27 12.3zm-6.34-14.31-.28.44c-.53-.04-.99-.05-1.34.01-.31.06-.58.16-.81.29.16-1.18.68-2.29 1.65-3.21 1.23-1.16 1.05.53.78 2.47zm7.02-46.45c3.43 11.04 1.06 24.88-11.49 31.54.34-.35.7-.75 1.08-1.22 1.1-1.35 2.35-3.22 3.53-5.76.02-.04 0-.08-.03-.1s-.08 0-.1.03c-1.06 1.93-2.12 3.44-3.1 4.62-2.27 2.73-4.05 3.61-4.05 3.61-.06.03-.1.07-.14.12-.93.37-1.9.71-2.92 1.01-.09-.05-.18-.09-.28-.14 2.8-1.55 5.31-3.73 7.38-6.39 2.19-2.82 3.88-6.19 4.94-9.9.93-.46 1.85-1.19 2.62-2.17 1.03-1.32 1.56-2.79 1.62-4.06.06-1.42-.45-2.61-1.4-3.35-.3-.23-.66-.38-1.02-.5.45-1.57.76-3.61.71-6.03-.09-3.84-1.1-8.64-4.02-13.91-.39-.7-.78-1.35-1.18-1.97 3.21 3.65 5.96 8.51 7.85 14.57zm-27.64 34.87c-11.58 0-21.08-10.51-22.1-23.9.05-.01.11-.01.16-.02.5-.13 1.03-.45 1.48-1.15.43-.67.84-1.77 1.18-2.99.03.03.06.05.08.07.54.43 1.14.55 1.76.39.41-.11.9-.38 1.36-1.03.54-.76.98-1.72 1.33-2.69.17.05.34.09.52.1.57.03 1.4-.17 2.32-1.22.57-.65 1.06-1.41 1.49-2.2.02.04.04.09.06.13.54.96 1.33 1.22 2.03 1.1.41-.07.97-.31 1.47-1.05.04-.06.08-.12.12-.19.44.5.98.76 1.54.78.5.03 1.09-.11 1.7-.67.5-.45.9-1.04 1.22-1.67.19.08.38.12.56.14.27.02.56-.01.86-.14.05.15.1.29.15.41.45 1.03 1.22 1.43 1.83 1.46.41.02.89-.09 1.36-.51.23-.2.44-.44.64-.7.13.19.26.36.39.5.43.43.91.62 1.4.65.45.02.95-.09 1.44-.51.21.69.48 1.23.74 1.52.42.47.91.65 1.39.66.35 0 .75-.09 1.16-.39.1.42.21.8.34 1.09.35.79.9 1.21 1.37 1.35.4.12.85.14 1.33-.09.16.91.4 1.75.73 2.33.39.7.93 1.13 1.51 1.32.39.12.81.15 1.27.04 0 .32.01.62.05.89.13.98.56 1.63 1.01 1.93.46.31 1.03.45 1.72.21.07-.02.13-.05.2-.07.04.07.08.12.12.18.43.54 1.13.99 2.32.53.13-.05.28-.13.45-.25-1.06 13.26-10.54 23.66-22.06 23.66zm5.78.66-.03 1.58c-2.66 6.61-10.81 3.95-11.91-.37l-.09-1.34c1.99.64 4.09.98 6.25.98 1.99-.01 3.93-.3 5.78-.85zm-13.57-.7.14 2.01.04.27c.71 2.8 3.74 5.11 7.01 5.44-.85 1.13-2.21 2.95-3.25 4.32-.33.44-.85.69-1.39.67-.54-.01-.98-.35-1.35-.74-3.28-3.43-5.68-10.23-5.68-10.23 1.08-.82 2.37-1.5 3.78-2.06.23.11.46.22.7.32zm5.61 12.33 2.36-3.14 2.31 3.23.51 18.42h-5.57zm3.16-4.6c2.48-.23 4.86-1.65 6.17-4.9l.11-.53.04-2.1c.37-.14.73-.3 1.09-.46.35.14.7.31 1.04.47-.02 0-.03.01-.05.01.27.11.54.24.81.35.46.24.92.49 1.37.78 0 0-2.06 7.55-4.88 10.36-.4.4-.82.76-1.38.78-.56.01-1.09-.25-1.42-.71-.95-1.31-2.14-2.98-2.9-4.05zm22-27.28c.43-2.02.68-4.13.7-6.3.03-.07.06-.15.1-.23.21.06.41.15.59.28 1.26.97 1.05 3.35-.48 5.3-.28.36-.59.67-.91.95zm-44.52-26.88c3.51-5.34 7.43-8.48 11.09-8.7-2.18 1.37-3.86 3.38-5.12 5.63-3.4 6.07-3.79 13.75-3.79 13.75-.01.1.07.18.16.19.1.01.18-.06.19-.16 0 0 .73-7.48 4.34-13.25 1.22-1.95 2.78-3.7 4.76-4.86-1.01 1.19-1.76 2.43-2.31 3.62-1.64 3.61-1.45 6.77-1.45 6.77 0 .1.08.17.18.17s.17-.08.17-.18c0 0 .06-3.02 1.92-6.34.93-1.65 2.31-3.37 4.37-4.81.16-.12.25-.29.28-.47 1.61-.96 5.84-3.13 10.87-2.92.09.08.19.16.32.19 1.94.43 3.67 1.69 5.1 3.92 1.47 2.28 2.64 5.51 3.43 9.87.01.08.09.14.17.13s.14-.09.13-.17c-.51-4.52-1.5-7.91-2.85-10.35-.64-1.15-1.37-2.08-2.16-2.83.38.12.75.24 1.13.4.05.09.11.16.19.23 0 0 4.12 3.07 7.02 8.41 1.59 2.94 2.82 6.56 2.8 10.73 0 .09.06.16.15.16.08 0 .15-.06.16-.15.25-4.28-.82-8.05-2.3-11.16-.92-1.92-1.99-3.58-3.01-4.94 1.82 1.68 3.58 3.91 5.22 6.88 6.62 11.96 2.99 21.34 1.48 21.91s-.26-2.63-.26-2.63-.67 1.4-2.34 1.97c-1.23.42-.76-3.27-.43-5.24-.26.75-.83 1.66-2.07 2.13-2.34.89-2.07-6.68-2.07-6.68s-.38 1.78-1.71 3c-1.32 1.23-1.6-5-1.6-5s-.46 1.66-1.81 2.89c-.63.57-1.04-.7-1.3-2.21.21-1.24.29-2.41.27-3.51-.03-1.28-.19-2.44-.44-3.49-.01-.1-.09-.16-.18-.14-.08.02-.14.11-.12.2.08 1.05.08 2.18-.07 3.39-.07.61-.2 1.23-.35 1.87-.27.83-.66 1.7-1.22 2.19-1.29 1.13-2.08-3.54-2.08-3.54s-.61 2.55-1.84 3.65-1.56-4.89-1.56-4.89-.3 2.33-1.22 3.17-1.45-2.64-1.45-2.64-.21 3.26-1.78 4.69c-.65.6-1.12.15-1.46-.57 0-.05.01-.11.01-.16-.36-1.42-.58-2.79-.67-4.12-.1-1.48-.06-2.89.08-4.24.01-.03-.01-.06-.05-.07-.03-.01-.06.01-.07.05-.37 1.33-.64 2.74-.78 4.25-.12 1.31-.12 2.67-.01 4.09-.18.35-.39.72-.66 1.13-1.42 2.15-1.8-4.88-1.8-4.88s-.97 4.27-3.13 6.75c-2.16 2.49-2.17-2.38-2.17-2.38s-.53 4.12-2.08 6.31c-1.56 2.19-2.37-4.09-2.37-4.09s-.86 5.84-2.06 7.7-2.99-1.61-2.95-3.01c.11-3.26-.72-11.7 3.16-17.61zm-2.43 22.12c.12.09.24.15.36.21.12 1.88.39 3.71.81 5.46-.53-.35-1.03-.79-1.48-1.35-1.53-1.91-1.78-4.24-.58-5.25.28.39.59.71.89.93zm6.85 20.29c.34.49.75.97 1.19 1.42-13.84-7.02-14.65-24.06-9.77-36.69-.71 4.25-.42 8.35-.47 10.39-.02.6.19 1.5.57 2.35-.05.03-.1.05-.15.09-.94.74-1.44 1.95-1.36 3.37.07 1.27.62 2.74 1.67 4.04.94 1.16 2.09 1.95 3.2 2.36 1.07 3.42 2.68 6.54 4.73 9.17s4.52 4.77 7.28 6.32c-.31.15-.6.31-.9.47-.21-.06-.42-.12-.62-.19-.23-.07-1.33-.54-1.56-.64-1.45-.66-2.58-1.67-3.44-2.74-1.8-2.24-2.44-4.71-2.44-4.71 0-.02-.02-.03-.04-.02-.02 0-.03.02-.02.04-.01 0 .47 2.56 2.13 4.97zm3.38 6.03c.01.08.02.16.04.24 0 0 1.2 3.38 3.07 6.65.86 1.5 1.86 2.98 2.95 4.11.35.36.73.68 1.16.89.38.19.79.3 1.24.32.52.01 1.02-.1 1.47-.32.03-.02.06-.04.09-.06l-.37 16.97c-.01.4.15.79.43 1.08s.67.45 1.07.45h5.57c.41 0 .79-.16 1.07-.45s.44-.68.42-1.09l-.47-17.07c.41.17.85.28 1.31.26.47-.01.89-.14 1.29-.34.4-.21.77-.53 1.11-.87 1.03-1.03 1.99-2.61 2.78-4.29 1.31-2.76 2.21-5.77 2.43-6.54 2.25 1.3 4.41 3.01 6.46 5.09-.29.14-.6.35-.92.65-2.14 2.03-2.7 4.74-2.14 7.41-.48.24-.85.57-1.11.93-.53.73-.71 1.73-.53 2.74-.09.04-.18.09-.26.14-.76.44-1.3 1.2-1.53 2.13-.14.54-.17 1.13-.09 1.72-.47.22-.79.53-1.01.85-.31.45-.47 1.02-.46 1.71.01.27.05.57.1.89l-15.85 25.19c-.77-.26-1.7-.17-2.53.45-.7.53-1.32 1.39-2.62 1.57-1.22-.25-6.23-1.01-11.22 1.74-.13-2.35.01-4.68.52-7.01.04-.2.04-.4 0-.6.26-2.88.64-7.25 1.13-12.02.27-2.68.58-5.49.93-8.22.02-.15-.07-.28-.22-.3-.14-.02-.27.08-.3.23-.47 2.72-.92 5.52-1.32 8.19-.64 4.24-1.17 8.17-1.56 11l-.09.37c-4.24.21-11.56-1.11-14.79-1.74 3.45-25.01 12.83-37.59 22.75-43.05zm-21.95 44.71c2.27.42 5.52.98 8.58 1.26 1.16.11 2.29.18 3.34.19.36 0 1.29.09 1.95.14-.46 2.37-.6 4.74-.45 7.12-1.41-.79-3.26-1.14-4.9-.69-1.78.49-3.33 1.86-3.66 4.58-.03.19.1.36.28.39s.36-.1.39-.28c.43-2.23 1.74-3.33 3.25-3.63 1.69-.34 3.6.33 4.66 1.44.05.05.11.08.17.11.02.14.03.28.05.42.16-.13.32-.23.49-.35.13-.03.25-.09.35-.19.04-.04.05-.08.08-.13 5.51-3.7 11.46-2.19 11.46-2.19 1.82-.13 2.68-1.18 3.61-1.89 1.08-.81 2.55.17 1.44 1.96-.25.4-.62.87-1.1 1.36-.11 0-.45.35-.98.56-.35.14-.99.29-1.36.38-.88.21-1.72.29-2.23.22-.16-.04-.31.06-.35.22s.06.31.22.35c.54.18 1.49.28 2.5.24.23-.01.46-.03.7-.06 3.18 1.3 3.54 2.45 4.36 3.57.58.79.3 2.09-.35 2.48-.56-.71-1.24-1.38-1.95-1.94-1.2-.95-2.45-1.62-3.21-1.8-.15-.05-.32.04-.36.2-.05.15.04.32.19.36.67.25 1.71 1.01 2.69 2.01.77.79 1.48 1.73 1.9 2.69.02.03.05.06.07.09-.04.82-.34 1.58-.79 1.86-.42-.48-.97-.99-1.59-1.49-1.57-1.26-3.52-2.49-4.39-3.15-.12-.1-.31-.09-.41.03s-.09.31.03.41c.68.66 2.13 1.84 3.42 3.09.78.75 1.49 1.52 1.91 2.19.03.04.07.07.11.11-.15.94-.83 1.78-1.61 1.85-.01-.02-.02-.05-.04-.07-.63-.72-1.43-1.44-2.26-2.1-1.44-1.13-2.94-2.09-3.61-2.61-.12-.11-.3-.1-.41.02s-.1.31.02.41c.6.6 1.96 1.72 3.24 3.02.66.67 1.29 1.39 1.78 2.1-.31 1.27-1.42 1.9-2.3 1.44-.27-.14-2.35-1.97-5.14-3.13-.91-.38-2.64-1.16-3.89-2.08-.04-.1-1.13-.91-1.59-2-.39-.92-.4-1.8-.47-2.39-.01-.19-.16-.33-.35-.33-.19.01-.33.16-.33.35-.03.65-.15 1.62.11 2.7.08.31.2.64.35.96-14.79 14.24-13.45-16.43-13.62-20.38zm18.83 24.44-7.18 11.41c-.11-.03-.23-.06-.33-.09.34-4.52.59-8.38.9-12.2.67-.49 1.38-1.06 2.12-1.74.26.24.55.47.86.69 1.16.8 2.65 1.51 3.63 1.93zm-84.4 93.9c.22.09.46.14.72.15l52.94 2.04.44 5.59c-9.59-.45-42.9-2.02-51.9-2.45-1.26-.06-2.24-1.1-2.23-2.36.01-1.09.03-2.29.03-2.97zm2.3 11.46c-3.35.69.4-3.71.4-3.71s-5.88.96-9.96.26c-2.98-.51 2.53-3.51 5.73-5.1v.04c-.02 2.07 1.59 3.78 3.66 3.88 6.39.3 25.07 1.18 38.79 1.83.77.92 4.1 5.02 3.13 6-2.29 2.31-14.25-5.96-14.25-5.96s-3.7 5.09-5.86 4.77c-1.71-.26-2.8-5.2-2.8-5.2s-6.1 4.25-8.95 3.98c-2.86-.27-.4-3.98-.4-3.98s-6.14 2.51-9.49 3.19zm38.93-2.79c5.88.28 10.82.51 13.42.63.27.01.54-.01.8-.06.02 0 .05-.01.07 0 1 .62 4.2 2.78 2.83 4.34-1.46 1.63-14.46-3.78-17.12-4.91zm15.12 7.66c10.74 6.57-2.74 8.3-11.58 4.57-22.15 6.96-37.46 5.64-33.91-.71-39.08 7.46-73.98 1.87-40.22-10.42-14.53-8.07-7.83-13.04 29.01-13.59-.75.48-1.14 1.36-.96 2.25.02.08.04.15.07.22-.14.23-.24.49-.25.77l-.02 1.81c-1.35.66-3.42 1.71-5.04 2.72-1.38.87-2.42 1.78-2.78 2.44-.35.64-.34 1.23-.15 1.73.2.52.72 1.16 1.97 1.37 2.28.39 5.09.29 7.23.12-.06.13-.11.26-.15.39-.32 1.02-.1 1.86.42 2.39.4.41 1.19.84 2.62.54 1.88-.38 4.61-1.33 6.7-2.11-.01.68.17 1.3.55 1.8.41.53 1.07.99 2.19 1.1 1.05.1 2.46-.24 3.91-.85 1.54-.64 3.14-1.55 4.3-2.27.27.78.61 1.66 1.03 2.37.66 1.12 1.56 1.83 2.43 1.96.96.15 2.19-.29 3.35-1.17 1.15-.87 2.3-2.15 3.06-3.06 1.98 1.29 6.07 3.85 9.31 5.08 1.31.5 2.51.78 3.43.77.98-.01 1.74-.33 2.26-.85.53-.54.79-1.43.45-2.56-.12-.4-.34-.87-.6-1.35 3.42 1.34 7.89 2.94 10.69 3.42 1.13.19 2.05.19 2.64.04.53-.14.92-.39 1.19-.7.88-.99.93-2.11.39-3.21 2.28.34 4.82.66 6.35.65.88-.01 1.53-.16 1.87-.33.61-.31.87-.78.95-1.25.1-.55-.07-1.32-.69-2.09-.35-.43-.87-.91-1.43-1.37.51-.1 1.03-.22 1.51-.34.19-.05.36-.1.53-.16 7.5 3.04 2.57 9.81-12.63 9.88zm10.03-14.47c1.34.51 2.76 1.12 3.57 1.65.78.51.17.98-.94 1.36-2.77 1.01-5.94 1.18-5.94 1.18s4.71 2.89 4.49 4.11c-.18 1.01-8.91-.48-11.57-.96.17-.04.32-.11.47-.21l9.27-6.5c.25-.19.46-.4.65-.63zm-.76-6.89v4.83c0 .58-.28 1.11-.75 1.44-2.33 1.63-9.27 6.5-9.27 6.5l-.53-5.92c.37-.03 10.55-6.85 10.55-6.85zm-1.38-.9-9.93 6.39c-.1.07-.19.15-.27.23-6.72-.26-43.06-1.66-53.26-2.05-.3-.01-.56-.23-.62-.52-.06-.3.09-.6.36-.73 2.79-1.33 7.19-3.43 8.74-4.16.36-.17.77-.26 1.17-.25 2.18.04 9.94.2 19.04.38l-.93 1.48c-.13.2-.2.43-.22.66-.06.63.16 1.2.66 1.67.48.44 1.46.82 2.62.93 1.42.13 3.11-.1 4.02-.54.69-.34 1.09-.82 1.26-1.33.24-.38.83-1.31 1.69-2.69 10.37.22 20.73.43 25.67.53zm-28.78 1.59c-.06 1.28-5.78 1.39-5.66 0l56.07-89.06c.03 0 .07.02.1.02.37.2 1.8.98 2.66 1.65.33.49.72.82 1.14 1.05zm20.29-29.46c6.27-9.97 13.64-21.68 21.39-34.01.67 11.6 1.75 22.9 2.92 33.97zm23.36 42.19c1.99-2.51 5.14-5.75 9.79-9.96.22.21.49.41.81.6.98.57 2.51 1.02 4.11 1.19 1.36.14 2.77.08 3.91-.23.69-.19 1.29-.48 1.77-.84.63 1.37.58 3.01-.2 4.26-2.35 3.78-4.95 8.19-7.89 11.13-.04-.06-.08-.13-.14-.19-3.19-3.35-8.96-5.23-12.66-5.27.24-.27.52-.66.5-.69zm10.02-15.26c3.14.29 6.86.22 10.1-.28l-.32 4.82c-1.87 2.02-8.22.99-9.23-.63zm-12.57 19.39c.03-.07.06-.15.09-.22.08-.19.17-.4.27-.61.18-.35.38-.71.61-1.07 3.18-.43 9.39 1.34 12.64 4.76l.06.21c-.06.05-.12.12-.19.17-4.37 3.52-9.55 4.11-13.15.06-.68-.77-.88-1.81-.33-3.3zm24.01-8.33c.25-.4.42-.83.56-1.27.03 1.03-.12 2.02-.49 2.7-2.84 5.27-6.82 10.85-10.1 13.77-3.5 3.12-9.64 3.34-12.79.62-.89-.77-1.44-1.8-1.7-2.91 4.16 4.37 9.99 3.82 14.94-.17 3.62-2.92 6.79-8.24 9.58-12.74zm25.99 14.94c-3.02 2.63-8.92 2.41-12.28-.6-3.15-2.82-6.98-8.21-9.7-13.31-.37-.68-.47-1.68-.36-2.72.14.52.34 1.02.62 1.47 2.69 4.35 5.74 9.5 9.23 12.32 4.58 3.71 9.95 4.37 13.93.69-.3.82-.77 1.57-1.44 2.15zm.42-8.96c.57 1 1.1 2.18 1.3 3.47-.03.63-.25 1.14-.62 1.56-3.47 3.92-8.45 3.35-12.65-.05-.06-.05-.12-.11-.18-.16l.05-.21c3.11-3.29 9.02-5 12.1-4.61zm-2.06-2.9c0 .07.45.57 1.04 1.35-3.58.06-9.11 1.88-12.17 5.12-.05.05-.08.11-.13.17-2.82-2.85-5.3-7.08-7.56-10.72-.76-1.23-.79-2.83-.16-4.17.49.34 1.08.61 1.77.78 1.36.34 3.06.35 4.55.1 1.05-.17 1.99-.48 2.67-.85.43-.24.77-.52 1.02-.81 4.12 3.74 7.03 6.69 8.97 9.03zm-18.98-14.94c3.08.5 6.44.45 9.39-.01l-.34 4.72c-.82 1.61-7.15 2.33-8.72.29zm14.98-3.41c-3.32 2.25-11.1 3.04-16.87 1.48l-1.2-54.83-.03.03h-.03l-1.26 55.24c-5.45 1.47-14.06 1.22-17.3-.27-2.06-19.44-4.57-39.51-5.7-60.57 1.96-3.12 3.95-6.28 5.95-9.45 5.06.75 10.83 1.14 16.55 1.17 8.8.04 17.43-.78 23.05-2.35.59 26.06-2.23 48.13-3.16 69.55zm72.87-21.85c-6.26 29.32-34.97 21.75-41.63 2.97.11-.04.22-.08.32-.14 5.6 9.26 14.04 13.7 22.01 13.27 8.01-.44 15.51-5.79 19.11-16.04.06-.01.12-.04.19-.06zm-.53-6.83c0 .42-.71.82-1.98 1.19.09-.37.17-.78.17-1.06 0-.47-.08-.9-.2-1.32 1.29.37 2.01.77 2.01 1.19zm-.64 2.33c.19-.07.35-.15.51-.23l-.52 3.04c0 .01-.01.01-.01.02-3.18 10.37-10.4 15.84-18.2 16.26-7.59.41-15.59-3.95-20.85-12.89.4-.73.63-1.76.49-2.91-.1-.83-.38-1.57-.74-2.15 4.29.57 10.28.94 16.91.94 10.43.02 19.28-.89 22.41-2.08zm-37.76-.15c.6-.99 1.7-1.62 2.91-1.62 1.41 0 2.66.87 3.15 2.12-2.23-.13-4.27-.29-6.06-.5zm12.12-1.33c0-1.77 1.49-3.21 3.33-3.21 1.66 0 3.08 1.2 3.3 2.78.04.27.22.5.48.6.26.09.55.04.76-.14.73-.65 1.69-1.01 2.68-1.01 1.75 0 3.27 1.08 3.79 2.7-3.3.23-7.08.36-11.11.36-2.19 0-4.3-.04-6.3-.11.05-.71.67-1.28 1.43-1.28.21 0 .41.04.59.12.23.1.5.08.72-.06.21-.14.34-.38.33-.64zm-13.57-4.62c.06.01.11.02.17.01.62-.19 1.23-.21 1.8 0 .65.24 1.2.66 1.56 1.26.01.03.05.05.09.04.03-.01.05-.05.04-.09-.19-.79-.66-1.43-1.29-1.92-.37-.29-.79-.48-1.24-.6.55-1.58 2.11-2.73 3.97-2.73.66 0 1.28.14 1.83.4.13-1.07.69-2.07 1.65-2.77 1.21-.88 2.77-1.05 4.14-.6-.14.3-.24.62-.28.96-.09.77.03 1.57.49 2.28.04.09.14.12.23.08s.12-.14.08-.23c-.21-.66-.15-1.31.1-1.9.11-.26.26-.49.45-.69.01.01.02.01.03.02.08-.11.18-.19.27-.29.13-.11.28-.21.43-.29.09-.07.16-.16.21-.26.59-.39 1.28-.64 2.06-.64 1.98 0 3.59 1.52 3.59 3.39 0 .13-.01.25-.02.38.55-.33 1.2-.52 1.9-.52 1.17 0 2.2.54 2.84 1.37-.51.46-.9 1-1.09 1.64-.23.75-.24 1.56.08 2.34.03.09.12.15.22.12.09-.03.15-.12.12-.22-.09-.68.08-1.32.42-1.86.31-.49.8-.84 1.38-1.05.04-.02.07-.05.1-.08.43-.16.9-.26 1.39-.26 1.95 0 3.57 1.39 3.78 3.18.29-.06.6-.1.91-.1 2.27 0 4.15 1.4 4.15 3.55 0 .45-.32 1.39-.32 1.39s-.22.05-.74.14c.01.02.02.03.03.05-1.67.29-3.76.55-6.16.75.02-.11.02-.23-.02-.35-.72-2.24-2.81-3.74-5.22-3.74-.97 0-1.92.25-2.74.72-.72-1.74-2.48-2.95-4.48-2.95-2.38 0-4.37 1.69-4.76 3.91-1.54-.11-2.9 1.02-3.11 2.49-.59-2.05-2.47-3.48-4.68-3.48-1.96 0-3.73 1.17-4.48 2.93-.71-.1-1.37-.2-1.97-.31 0-.01 0-.02.01-.03-.09-.04-.15-.08-.17-.12-.33-.54-.53-1.16-.53-1.83-.01-1.68 1.18-3.06 2.78-3.49zm-2.53 7.27c.76-.09 1.51.95 1.67 2.31s-.32 2.54-1.08 2.63-1.51-.95-1.67-2.31c-.17-1.37.32-2.55 1.08-2.63zm-3.71-3.5c0-.43.74-.83 2.04-1.2-.05.29-.08.59-.08.89 0 .54.1 1.07.27 1.56-1.43-.37-2.23-.8-2.23-1.25zm.2 2.13c.14.07.28.13.44.2.39.15.87.29 1.44.43-.04.04-.08.07-.11.11-.59.7-1 1.98-.83 3.43.17 1.44.87 2.59 1.61 3.14.21.16.43.26.66.35 4.06 12.24 16.94 20.11 28 17.65 4.33-.96 8.42-3.49 11.6-7.97l-3.22 18.9c-4.3 7.5-35.13 3.54-35.04-.55zm51.29 50.52c-1.05 0-2.07-.02-3.08-.07-2.92 1.41-10.28 5.96-22.74 5.47-5.51-.22-9.25-2.2-6.68-4.69-6.46-.03-11.67-1.4-11.67-3.09 0-.24.11-.48.32-.71-6.41-.47-11.21-2.43-11.21-4.77 0-.55.27-1.09.76-1.58-.72.07-1.48.11-2.27.11-4.86 0-8.81-1.44-8.81-3.21 0-.98 1.2-1.85 3.09-2.44-4.24-.8-7.67-2.2-7.67-3.92 0-2.56 7.03-3.92 14.87-3.92 2.09 0 4.06.1 5.84.28l1 7.83c.03.71.39 1.48 1.25 2.16 1.16.92 3.55 1.84 6.63 2.53 6.71 1.51 16.8 2.12 23.32.51 3.19-.79 5.56-2.17 6.63-4.02.09-.15.15-.32.18-.49l.51-2.99c7.46.12 13.39 1.91 13.39 4.1 0 .93-1.07 1.79-2.87 2.48 10.03.12 18.05 2.41 18.05 5.22 0 2.87-8.44 5.21-18.84 5.21z"/><path d="m265.42 226.63c-.58.74-.78 1.56-.62 2.31.09.44.37.92.99 1.27.72.4 2.49.68 4.26.66 1.15-.01 2.29-.13 3.07-.34.51-.14.91-.32 1.17-.52.62-.45.83-1.02.81-1.58-.04-.97-.51-1.86-1.33-2.55-.95-.81-2.41-1.34-3.86-1.34-1.74.01-3.62.98-4.49 2.09zm8.18 1.87c.04 1.13-7.1 1.17-7.33.13-.25-1.16 1.82-2.57 3.63-2.57 1.81-.01 3.64 1.03 3.7 2.44z"/><path d="m199.82 218.97c-1.45 0-3.02.82-3.75 1.75-.52.67-.69 1.4-.54 2.07.09.42.35.88.93 1.21s2.03.58 3.47.56c1.51-.02 2.96-.35 3.48-.73.59-.43.78-.98.76-1.51-.03-.84-.44-1.62-1.15-2.23-.77-.68-1.98-1.12-3.2-1.12zm-2.82 3.5c-.19-.9 1.41-2 2.82-2s2.83.81 2.87 1.9c.04.87-5.51.91-5.69.1z"/><path d="m281.95 237.45c-.95-.81-2.41-1.34-3.87-1.34-1.73 0-3.61.97-4.48 2.08-.58.74-.78 1.56-.61 2.31.09.44.37.92.99 1.27.72.4 2.49.68 4.26.66 1.15-.01 2.29-.13 3.07-.34.51-.14.91-.33 1.17-.52.62-.45.83-1.02.81-1.58-.05-.95-.53-1.85-1.34-2.54zm-7.5 2.74c-.25-1.16 1.82-2.57 3.63-2.57 1.82 0 3.64 1.04 3.7 2.45.04 1.12-7.1 1.16-7.33.12z"/><path d="m256.46 230.48c-.49.63-.64 1.33-.51 1.96.09.41.34.86.91 1.18.52.29 1.82.52 3.11.51 1.35-.02 2.66-.33 3.13-.67.58-.42.77-.96.75-1.48-.03-.78-.41-1.51-1.07-2.07-.72-.61-1.82-1.01-2.92-1.01-1.31-.01-2.74.74-3.4 1.58zm5.89 1.56c.03.76-4.78.79-4.93.08-.17-.78 1.22-1.73 2.44-1.73s2.45.7 2.49 1.65z"/><path d="m191.69 226.04c-.49.63-.64 1.33-.51 1.96.09.41.34.86.91 1.18.52.29 1.82.52 3.11.51 1.36-.02 2.66-.33 3.13-.67.58-.42.76-.96.75-1.48-.03-.78-.41-1.51-1.07-2.07-.72-.61-1.82-1.01-2.92-1.01-1.32-.01-2.75.74-3.4 1.58zm5.88 1.55c.03.76-4.78.79-4.93.08-.17-.78 1.22-1.73 2.44-1.73 1.23.01 2.46.71 2.49 1.65z"/><path d="m202.56 226.06c-.44.57-.57 1.2-.45 1.77.09.41.35.9 1.01 1.21.54.25 1.87.41 2.97.32.99-.07 1.8-.42 2.09-.69.41-.38.55-.83.53-1.27-.03-.68-.35-1.33-.93-1.82-.59-.5-1.5-.84-2.41-.84-1.08 0-2.27.63-2.81 1.32zm2.82.18c.9 0 1.81.52 1.83 1.21.02.56-3.52.58-3.64.06-.12-.57.91-1.27 1.81-1.27z"/></g></g></svg>