<?xml version="1.0" encoding="utf-8"?>
<!-- Generator: Adobe Illustrator 22.1.0, SVG Export Plug-In . SVG Version: 6.00 Build 0)  -->
<svg version="1.1" id="Слой_9" xmlns="http://www.w3.org/2000/svg" xmlns:xlink="http://www.w3.org/1999/xlink" x="0px" y="0px"
	 viewBox="0 0 512 512" style="enable-background:new 0 0 512 512;" xml:space="preserve">
<style type="text/css">
	.st0{fill:#FDCD95;stroke:#000000;stroke-width:3;stroke-linecap:round;stroke-linejoin:round;stroke-miterlimit:10;}
	.st1{fill:#FDCD95;stroke:#000000;stroke-width:2;stroke-linecap:round;stroke-linejoin:round;stroke-miterlimit:10;}
	.st2{fill:#B5D758;stroke:#000000;stroke-width:3;stroke-linecap:round;stroke-linejoin:round;stroke-miterlimit:10;}
	.st3{fill:none;stroke:#000000;stroke-width:3;stroke-linecap:round;stroke-linejoin:round;stroke-miterlimit:10;}
	.st4{fill:#FFD56E;stroke:#000000;stroke-width:3;stroke-linecap:round;stroke-linejoin:round;stroke-miterlimit:10;}
	.st5{fill:#4D7450;stroke:#000000;stroke-width:3;stroke-linecap:round;stroke-linejoin:round;stroke-miterlimit:10;}
	.st6{fill:#FFFFFF;}
	.st7{fill:#426A81;stroke:#000000;stroke-width:2;stroke-linecap:round;stroke-linejoin:round;stroke-miterlimit:10;}
	.st8{fill:#B5D758;stroke:#000000;stroke-width:2;stroke-linecap:round;stroke-linejoin:round;stroke-miterlimit:10;}
	.st9{fill:#F2DE29;stroke:#000000;stroke-width:2;stroke-linecap:round;stroke-linejoin:round;stroke-miterlimit:10;}
	.st10{fill:#E5859A;stroke:#000000;stroke-width:2;stroke-linecap:round;stroke-linejoin:round;stroke-miterlimit:10;}
	.st11{fill:#426A81;stroke:#000000;stroke-linecap:round;stroke-linejoin:round;stroke-miterlimit:10;}
	.st12{fill:#395F72;stroke:#000000;stroke-linecap:round;stroke-linejoin:round;stroke-miterlimit:10;}
	.st13{fill:#6195AF;stroke:#000000;stroke-linecap:round;stroke-linejoin:round;stroke-miterlimit:10;}
	.st14{fill:#C9B62D;stroke:#000000;stroke-width:2;stroke-linecap:round;stroke-linejoin:round;stroke-miterlimit:10;}
	.st15{fill:#F7E55E;stroke:#000000;stroke-width:2;stroke-linecap:round;stroke-linejoin:round;stroke-miterlimit:10;}
	.st16{fill:#994D5B;stroke:#000000;stroke-width:2;stroke-linecap:round;stroke-linejoin:round;stroke-miterlimit:10;}
	.st17{fill:#B5D758;stroke:#000000;stroke-linecap:round;stroke-linejoin:round;stroke-miterlimit:10;}
	.st18{fill:#ACC457;stroke:#000000;stroke-linecap:round;stroke-linejoin:round;stroke-miterlimit:10;}
	.st19{fill:#C6E068;stroke:#000000;stroke-linecap:round;stroke-linejoin:round;stroke-miterlimit:10;}
	.st20{fill:#BB616E;stroke:#000000;stroke-linecap:round;stroke-linejoin:round;stroke-miterlimit:10;}
	.st21{fill:#AD5A6A;stroke:#000000;stroke-linecap:round;stroke-linejoin:round;stroke-miterlimit:10;}
	.st22{fill:#D67689;stroke:#000000;stroke-linecap:round;stroke-linejoin:round;stroke-miterlimit:10;}
	.st23{fill:#F2DE29;stroke:#000000;stroke-linecap:round;stroke-linejoin:round;stroke-miterlimit:10;}
	.st24{fill:#C9B62D;stroke:#000000;stroke-linecap:round;stroke-linejoin:round;stroke-miterlimit:10;}
	.st25{fill:#F7E55E;stroke:#000000;stroke-linecap:round;stroke-linejoin:round;stroke-miterlimit:10;}
	.st26{fill:#BB616E;stroke:#000000;stroke-width:2;stroke-linecap:round;stroke-linejoin:round;stroke-miterlimit:10;}
	.st27{fill:#D3BE26;stroke:#000000;stroke-width:2;stroke-linecap:round;stroke-linejoin:round;stroke-miterlimit:10;}
	.st28{fill:#878787;stroke:#000000;stroke-width:2;stroke-linecap:round;stroke-linejoin:round;stroke-miterlimit:10;}
	.st29{fill:#EDEDED;stroke:#000000;stroke-width:2;stroke-linecap:round;stroke-linejoin:round;stroke-miterlimit:10;}
	.st30{fill:none;stroke:#000000;stroke-width:2;stroke-linecap:round;stroke-linejoin:round;stroke-miterlimit:10;}
	.st31{fill:#C6C6C6;stroke:#000000;stroke-width:1.7416;stroke-linecap:round;stroke-linejoin:round;stroke-miterlimit:10;}
	.st32{fill:none;stroke:#000000;stroke-width:1.7416;stroke-linecap:round;stroke-linejoin:round;stroke-miterlimit:10;}
	.st33{fill:#AD5A6A;stroke:#000000;stroke-width:2;stroke-linecap:round;stroke-linejoin:round;stroke-miterlimit:10;}
	.st34{fill:#D67689;stroke:#000000;stroke-width:2;stroke-linecap:round;stroke-linejoin:round;stroke-miterlimit:10;}
	.st35{fill:#A80206;stroke:#000000;stroke-width:2;stroke-linecap:round;stroke-linejoin:round;stroke-miterlimit:10;}
	.st36{fill:#AAD3E5;stroke:#000000;stroke-width:2;stroke-linecap:round;stroke-linejoin:round;stroke-miterlimit:10;}
	.st37{fill:#DADADA;stroke:#000000;stroke-width:1.6654;stroke-linecap:round;stroke-linejoin:round;stroke-miterlimit:10;}
	.st38{fill:#DADADA;stroke:#000000;stroke-width:1.0338;stroke-linecap:round;stroke-linejoin:round;stroke-miterlimit:10;}
	.st39{fill:#857154;stroke:#000000;stroke-linecap:round;stroke-linejoin:round;stroke-miterlimit:10;}
	.st40{fill:none;stroke:#000000;stroke-linecap:round;stroke-linejoin:round;stroke-miterlimit:10;}
	.st41{fill:#FFF1AD;stroke:#000000;stroke-linecap:round;stroke-linejoin:round;stroke-miterlimit:10;}
	.st42{fill:#FFF1AD;stroke:#000000;stroke-miterlimit:10;}
</style>
<path class="st0" d="M232,341c0,0,47,4.7,36.3,26c0,0-4.8,10.2-24.5,5s-16.3-4.7-16.3-4.7l-4.3-23L232,341z"/>
<path class="st0" d="M174,383.7c0,0,36.4,15.7,67.9,7.5c5.5-1.4,10.2-5.1,12.4-10.3c2.2-5.2,2.2-12.2-6.6-19.5
	C230,346.7,210,347.7,210,347.7L183.3,365L174,383.7z"/>
<path class="st1" d="M172.3,226.7c0,0,80.7,43.7,86.2,41.7c5.5-2,0,8.3,0,8.3l2.4,5c0,0-38.9,2-79.3-23L172.3,226.7z"/>
<path class="st2" d="M141.3,223.3c0,0,19.3,19,30-2c0,0,40.3,20.3,34,106.7c0,0,38.7,2.3,48,14.7c0,0-34.7,4.7-65,37.7
	s-83.3,19-83.3,19l-30-20c0,0,19-27.7,22.3-32.7c3.3-5,10.7-17.7,12.7-26.3c2-8.7,6.3-68,11.3-76S141.3,223.3,141.3,223.3z"/>
<path class="st3" d="M161.3,350.3c0,0,26-20,44-22.3"/>
<g>
	<path class="st4" d="M149.8,74.4c0,0-6.3-16.6-13-21.6c-6.8-5-34.5-21.8-55,18.1s-20.2,84.8-8,107.5s26.2,45.8,27.2,55
		s15.6-4.8,20.5-15.5c4.9-10.7,0-32.2,0-32.2l-5.7-37l5.7-39.2L149.8,74.4z"/>
	<ellipse class="st0" cx="203.3" cy="159.4" rx="6.5" ry="14.6"/>
	<path class="st0" d="M140.4,204.3c0.5,1.7,0,22.3,0,22.3s16.7,13,33.1-2.1l-2.7-20.2H140.4z"/>
	<ellipse transform="matrix(0.9652 -0.2615 0.2615 0.9652 -39.519 32.5997)" class="st0" cx="102.8" cy="164.8" rx="11.7" ry="15"/>
	<path class="st5" d="M106.1,84.3c0,0,1.4-31.1,30.7-15.3l-13.1,15.3H106.1z"/>
	<path class="st0" d="M203.3,150.6c-2.3,35.7-18.4,64.7-47,64.7c-28,0-51.1-26.3-55.4-60.8c4.5-3.9,10.5-10.8,11.3-20.1
		c0,0,41.6,14.5,57.9,6.3c0,0-7.6-5-8.8-8.2c-1.3-3.1,19.3,2.5,27.5-8.2l9,34C197.9,158.3,200.4,155.5,203.3,150.6z"/>
	<path class="st4" d="M203.3,150.6c-2.9,4.9-5.4,7.7-5.4,7.7l-9-34c-8.2,10.7-28.8,5-27.5,8.2c1.3,3.1,8.8,8.2,8.8,8.2
		c-16.4,8.2-57.9-6.3-57.9-6.3c-0.8,9.3-6.8,16.2-11.3,20.1c-2.8,2.5-5.1,3.8-5.1,3.8l-9.7-21.6c-4.6-10.3-5.7-22-2.5-32.8
		c8.5-28.8,37.5-26.2,37.5-26.2c50.6-35.3,80.4,10.9,80.4,10.9C218.9,115.5,210.1,139,203.3,150.6z"/>
	<path class="st3" d="M112,114.9c0,0,0.8,16.1,0.3,19.5"/>
	<path class="st3" d="M144.3,111.4c0,0,11.6,21.2,19.1,20.1"/>
	<path class="st3" d="M165.7,100.6c0,0,7.2,19,23.1,23.7"/>
	<path class="st3" d="M128.8,82.6c0,0,70.5-27.3,74.5,47.9"/>
	<path class="st3" d="M112,90.6c0,0-26.4,9.1-16.1,67.8"/>
	<ellipse cx="132.6" cy="160.5" rx="5.4" ry="9.3"/>
	<g>
		<path d="M118.1,156.1c1.3-0.1,2.7-0.3,4-0.6c1.3-0.3,2.5-0.6,3.8-1.1c0.3-0.1,0.6-0.2,0.9-0.4l0.8-0.5c0.6-0.3,1.1-0.5,1.7-0.7
			c1.2-0.4,2.3-0.8,3.9-1l0,0c0.1,0,0.2,0.1,0.2,0.1c0,0,0,0.1,0,0.1c-0.3,0.7-0.6,1.5-1.1,2c-0.5,0.6-1,1.1-1.7,1.5
			c-1.2,0.8-2.8,1-4.2,1.2c-1.4,0.2-2.8,0.3-4.2,0.2c-1.4-0.1-2.8-0.2-4.1-0.6c-0.1,0-0.1-0.1-0.1-0.2
			C118,156.1,118,156.1,118.1,156.1L118.1,156.1z"/>
	</g>
	<path class="st3" d="M136.8,149.1c0,0-12.8-6.3-17.9,3.6"/>
	<ellipse cx="175.1" cy="159.2" rx="5.4" ry="9.3"/>
	<g>
		<path d="M189.6,155.1c-1.3,0.4-2.7,0.5-4.1,0.6c-1.4,0.1-2.8,0-4.2-0.2c-1.4-0.2-2.9-0.4-4.2-1.2c-0.6-0.4-1.2-0.9-1.7-1.5
			c-0.5-0.5-0.9-1.3-1.1-2c0-0.1,0-0.2,0.1-0.2c0,0,0.1,0,0.1,0l0,0c1.6,0.2,2.7,0.7,3.9,1c0.6,0.2,1.1,0.4,1.7,0.7l0.8,0.5
			c0.3,0.1,0.6,0.3,0.9,0.4c1.2,0.4,2.5,0.8,3.8,1.1c1.3,0.3,2.6,0.5,4,0.6l0,0c0.1,0,0.1,0.1,0.1,0.2
			C189.7,155.1,189.6,155.1,189.6,155.1z"/>
	</g>
	<circle class="st6" cx="175.1" cy="158.1" r="2.2"/>
	<circle class="st6" cx="133.2" cy="158.1" r="2.2"/>
	<path class="st3" d="M170.8,147.8c0,0,12.8-6.3,17.9,3.6"/>
	<path class="st3" d="M150,173.3c0,0,7.9-4.3,11.8,0"/>
	<path class="st3" d="M140.4,187.8c0,0,20,25.7,31.6-2.2"/>
</g>
<path class="st7" d="M58.9,347.1l0.1,29.9c-0.4,0.3-0.8,0.5-1.2,0.8c-2.7,1.4-6.9,2.3-11.6,2.4c-4.7,0-8.9-0.9-11.6-2.3
	c-0.5-0.2-0.9-0.5-1.3-0.8l-0.1-34.6C37.1,345.5,47.1,347.4,58.9,347.1z"/>
<path class="st8" d="M91.9,375.8c-0.8,0.7-2,1.3-3.4,1.8c-2.5,1-5.8,1.6-9.4,1.7c-4.2,0.1-8.1-0.5-10.8-1.6
	c-0.8-0.3-1.5-0.7-2.1-1.1l-0.2-5.8l-0.7-24.1c11.8,0,21.7-2.2,25.5-5.5l0.8,28.9L91.9,375.8z"/>
<path class="st9" d="M93.5,337.9c0.3,5.3-13.9,10.3-31.8,11.3c-0.9,0-1.7,0.1-2.6,0.1c-13.1,0.4-24.1-1.6-28.4-4.9
	c-1.2-0.9-1.9-1.9-2-3c-0.1-2.2,2.2-4.3,6.1-6.1l19-35.5c2.2-4.2,8.4-4.5,11.2-0.6l23.6,34.1l0,0C91.7,334.6,93.4,336.2,93.5,337.9z
	"/>
<path class="st10" d="M68.3,377.7l-10.5,0c0.4-0.2,0.9-0.5,1.2-0.8l0-5.9l7.1-0.2l0.2,5.8C66.8,377,67.5,377.3,68.3,377.7z"/>
<path class="st10" d="M88.5,377.6c1.4-0.5,2.5-1.1,3.4-1.8l-0.2-5.7l6.6-0.2l7,7.6L88.5,377.6z"/>
<path class="st10" d="M34.6,377.7l-9.3,0l-7.7-5.6l15.7-0.4l0,5.3C33.7,377.2,34.1,377.5,34.6,377.7z"/>
<polygon class="st11" points="54.7,451 54.7,482.6 28.4,482.6 28.4,450.9 41.8,450.9 50.9,451 "/>
<polygon class="st12" points="28.4,450.9 28.4,482.4 21.4,474 21.2,446.6 "/>
<polygon class="st13" points="54.7,451 50.7,451 50.7,451 42.1,451 28.8,451.1 28.4,450.9 21.2,446.6 21.2,446.6 21.2,446.6 
	26.9,446.4 33.5,446.1 37.8,445.9 40.3,445.8 46.6,445.5 53.7,450.3 "/>
<polygon class="st9" points="315.6,469.5 315.6,501.1 342,501.1 342,469.4 328.5,469.5 319.4,469.5 "/>
<polygon class="st14" points="342,469.4 342,501 348.9,492.6 349.1,465.2 "/>
<polygon class="st15" points="315.6,469.5 319.6,469.5 319.6,469.5 328.2,469.6 341.5,469.7 342,469.4 349.1,465.2 349.1,465.2 
	349.1,465.2 343.4,464.9 336.8,464.6 332.6,464.4 330,464.3 323.8,464 316.6,468.9 "/>
<polygon class="st16" points="78.8,431.8 68.3,422.8 68.3,388.6 77,388.6 82.5,400.4 "/>
<polygon class="st17" points="480.7,351.6 480.7,372.5 498.1,372.5 498.1,351.5 489.2,351.6 483.2,351.6 "/>
<polygon class="st18" points="498.1,351.5 498.1,372.4 502.7,366.9 502.8,348.7 "/>
<polygon class="st19" points="480.7,351.6 483.3,351.6 483.3,351.6 489,351.6 497.8,351.7 498.1,351.5 502.8,348.7 502.8,348.7 
	502.8,348.7 499.1,348.5 494.7,348.4 491.9,348.2 490.2,348.2 486,348 481.3,351.2 "/>
<polygon class="st20" points="470.3,357.4 470.3,378.3 452.9,378.3 452.9,357.3 461.8,357.3 467.8,357.3 "/>
<polygon class="st21" points="452.9,357.3 452.9,378.2 448.3,372.6 448.2,354.5 "/>
<polygon class="st22" points="470.3,357.4 467.7,357.4 467.7,357.4 462,357.4 453.2,357.5 452.9,357.3 448.2,354.5 448.2,354.5 
	448.2,354.5 451.9,354.3 456.3,354.1 459.1,354 460.8,353.9 464.9,353.7 469.7,356.9 "/>
<polygon class="st23" points="289.7,368.9 289.7,389.8 307.1,389.8 307.1,368.8 298.2,368.9 292.2,368.9 "/>
<polygon class="st24" points="307.1,368.8 307.1,389.7 311.7,384.2 311.8,366 "/>
<polygon class="st25" points="289.7,368.9 292.3,368.9 292.3,368.9 298,368.9 306.8,369 307.1,368.8 311.8,366 311.8,366 311.8,366 
	308.1,365.8 303.7,365.6 300.9,365.5 299.2,365.4 295,365.3 290.3,368.5 "/>
<g>
	<path class="st26" d="M105.3,377.5l0.1,27.4l-26.6,0.1c0-3.9-1.6-7.4-4.2-9.9c-2.6-2.6-6.1-4.1-10-4.1c-7.8,0-14.2,6.4-14.1,14.2
		l-25-0.1l-0.1-27.3l9.3,0c2.7,1.4,6.9,2.3,11.6,2.3c4.7,0,8.9-0.9,11.6-2.4l10.5,0c2.7,1.1,6.6,1.8,10.8,1.6
		c3.6-0.1,6.9-0.7,9.4-1.7L105.3,377.5z"/>
	<path class="st7" d="M50.5,432.4l-25,0.1l-0.1-27.3l25,0.1l0.1,26.6C50.5,432,50.5,432.2,50.5,432.4z"/>
	<path class="st9" d="M105.4,404.9l0.1,27.3l-26.7,0.1c0-0.2,0-0.3,0-0.5l-0.1-26.7L105.4,404.9z"/>
	<polygon class="st27" points="25.4,405.1 25.5,432.4 17.8,425.1 17.7,400.4 	"/>
	<polygon class="st16" points="25.3,377.8 25.4,405.1 17.7,400.4 17.6,372.1 	"/>
</g>
<path class="st28" d="M450.5,324.4c0,24.1-9.5,45.6-24.4,59.5c-2.9,2.7-6,5.1-9.2,7.2c-3.3-1.2-6.8-2.2-10.5-3.1
	c1.3-0.9,2.6-1.8,3.8-2.8c16.5-13.6,27.5-41.3,27.5-69.9c0-16.1-1.5-31.3-5.2-43.5C443.7,285.4,450.5,303.9,450.5,324.4z"/>
<path class="st29" d="M342,321.2c0,28.2,8.6,52.6,23.5,64.7c-4.4,0.6-9,1.6-13.6,2.9c-18.1-13.4-30.1-37.2-30.1-64.3
	c0-38.5,24.3-70.4,55.8-75.3C358,262.6,342,291.8,342,321.2z"/>
<path class="st30" d="M377.6,249.1c2.8-0.4,5.7-0.7,8.6-0.7c18.2,0,34.7,8.9,46.4,23.3"/>
<path class="st31" d="M512.8,409.7c0,0-8.8,4-20.3,6.6c-15.3,3.5-31.5,0.2-44.3-8.9c-2.9-2.1-6.4-4.4-10.4-6.7
	c-5.9-3.4-12.9-6.8-20.8-9.6c-3.3-1.2-6.8-2.2-10.5-3.1c-2.9-0.7-5.9-1.3-9-1.8c-9.8-1.6-20.5-1.9-32-0.3h0c-4.4,0.6-9,1.6-13.6,2.9
	c0,0,0,0-0.1,0c0,0,0,0-0.1,0c-5.9,1-277.4,28-288.7,43.5c-13.7,18.7,1.8,24,19.2,29.5c10.3,3.3,44.9,7.6,55.7,7.6l33.8,1.6
	c5.5,0,33.5-1.7,37.1-1.9c9.7-0.6,30.4-2.2,51.2-5.1l-0.1-14l0,0h0l8.2-0.4l9.7-0.4l6.3-0.3l3.7-0.2l9.2-0.4l8.5,5.7
	c4.5-1.7,8-3.6,10.1-5.7c9-8.6,24.2-28.1,43.9-40.8c5-3.3,10.4-6.1,16-8.2c0,0,0,0,0,0c9.6-3.6,20.1-5.1,31.1-2.9
	c4,0.8,8.2,2.1,12.4,3.9c1.3,0.6,2.5,1.1,3.7,1.6c34.3,15.5,42,26.1,59.8,29.4c10.8,2,22,0,31.6-5.3l13.6-7.4L512.8,409.7z
	 M124.6,443.1c-5.6-0.9-6.9-8.4-1.8-11c5.9-3.1,94.3-11.8,186-20C291.2,427.1,238.1,460.5,124.6,443.1z"/>
<path class="st31" d="M419,402.3l-55.2,4.8C383,405.4,401.7,403.8,419,402.3z"/>
<path class="st32" d="M351.8,388.7c-1.8,0.5-3.5,1-5.3,1.6c-3.8,1.2-7.7,2.7-11.6,4.5c-9,4-17.4,9.4-24.8,16
	c-0.4,0.4-0.9,0.8-1.4,1.2"/>
<path class="st32" d="M410.3,385.1c-4.2,0.3-8.5,0.7-12.8,1"/>
<path class="st28" d="M422.7,402l-3.7,0.3c-17.3,1.5-36,3.1-55.2,4.8l-4.3,0.4c5-3.3,10.4-6.1,16-8.2c0,0,0,0,0,0
	c3.5,0.7,7,1,10.7,1c7.2,0,14-1.4,20.5-3.9c4,0.8,8.2,2.1,12.4,3.9C420.3,400.9,421.5,401.5,422.7,402z"/>
<path class="st28" d="M406.6,396.5c-6.4,2.5-13.3,3.9-20.5,3.9c-3.6,0-7.2-0.4-10.7-1C385.1,395.7,395.5,394.3,406.6,396.5z"/>
<path class="st32" d="M305.5,454c-2.1,0.8-4.3,1.6-6.7,2.3h0c-0.1,0-0.2,0.1-0.3,0.1c-8,2.4-17.8,4.4-28,6
	c-3.4,0.6-6.9,1.1-10.3,1.5"/>
<path class="st31" d="M518.3,393.9c0,0-33.3,2.8-80.5,6.8c-5.9-3.4-12.9-6.8-20.8-9.6c3.3-2.1,6.3-4.5,9.2-7.2
	c53.4-4,90.9-6.4,90.9-6.4L518.3,393.9z"/>
<polygon class="st26" points="308.9,456.3 308.9,502.6 270.4,502.6 270.4,456.2 290.1,456.3 303.4,456.3 "/>
<polygon class="st33" points="270.4,456.2 270.4,502.4 260.3,490.1 260.1,463.9 260,450 "/>
<polygon class="st34" points="308.9,456.3 303.1,456.4 303.1,456.4 298.4,456.4 290.6,456.4 271,456.6 270.4,456.2 260,450 
	259.9,449.9 260,449.9 268.2,449.6 277.9,449.1 284.2,448.9 287.9,448.7 297.1,448.3 305.5,454 307.6,455.4 "/>
<g>
	<path class="st35" d="M362.8,454l0.2,0c16.3-2.3,17,11.2,17,11.2l31.7-1.2c4.6-12.6,11.4-11.6,15.2-9.6c-0.8-1.5-1.5-2.5-1.5-2.5
		l9.2-1.5c0.5,0.1,1,0.3,1.4,0.5c-0.6-5.3-5.3-11.4-5.3-11.4c-9.4-0.2-14.2-1.5-21.7-6.1l-1.1,10h-20.3c-1.8-8.5-0.1-13.7,2.3-16.9
		c-9.9,0-20.4,3.4-24.1,6.9c-5.7,5.3-16,3.3-16,3.3l-0.5,13.9"/>
	<path class="st36" d="M409,433.3l-1.1,10h-20.3c-1.8-8.5-0.1-13.7,2.3-16.9c5.3,0,10.3,1.1,14.1,3.6
		C405.7,431.3,407.4,432.4,409,433.3z"/>
	<path class="st29" d="M362.8,454c-1.4,2.7-3.2,7.1-2.1,10.1l-11.6-0.5c0,0-4.5-9.8-3.6-13.2l3.7,0.2l15,0.9
		C364.2,451.5,363.5,452.5,362.8,454z"/>
	<path class="st29" d="M437.8,465.2l-9-1.1c1.5-2.5-0.5-7-2-9.8c-0.8-1.5-1.5-2.5-1.5-2.5l9.2-1.5c0.5,0.1,1,0.3,1.4,0.5
		C443,454.2,437.8,465.2,437.8,465.2z"/>
	<circle class="st37" cx="370.5" cy="461.9" r="9.1"/>
	<circle class="st38" cx="370.5" cy="461.9" r="5.7"/>
	<circle class="st37" cx="420.8" cy="461.9" r="9.1"/>
	<circle class="st38" cx="420.8" cy="461.9" r="5.7"/>
</g>
<path class="st8" d="M244.8,424.2l-0.5-13.9c0,0-10.3,2-16-3.3c-3.7-3.5-14.2-7-24.1-6.9c2.4,3.2,4.1,8.4,2.3,16.9h-20.3l-1.1-10
	c-7.5,4.6-12.3,5.9-21.7,6.1c0,0-4.7,6.1-5.3,11.4c0.4-0.2,0.9-0.4,1.4-0.5l9.2,1.5c0,0-0.7,1-1.5,2.5c3.8-1.9,10.6-3,15.2,9.7
	l31.7,1.2c0,0,0.7-13.5,17-11.2l0.2,0"/>
<path class="st36" d="M185,407l1.1,10h20.3c1.8-8.5,0.1-13.7-2.3-16.9c-5.3,0-10.3,1.1-14.1,3.6C188.2,404.9,186.5,406,185,407z"/>
<path class="st29" d="M231.2,427.6c1.4,2.7,3.2,7.1,2.1,10.1l11.6-0.5c0,0,4.5-9.8,3.6-13.2l-3.7,0.2l-15,0.9
	C229.8,425.1,230.4,426.1,231.2,427.6z"/>
<path class="st29" d="M156.1,438.8l9-1.1c-1.5-2.5,0.5-7,2-9.8c0.8-1.5,1.5-2.5,1.5-2.5l-9.2-1.5c-0.5,0.1-1,0.3-1.4,0.5
	C150.9,427.8,156.1,438.8,156.1,438.8z"/>
<circle class="st37" cx="223.5" cy="435.5" r="9.1"/>
<circle class="st38" cx="223.5" cy="435.5" r="5.7"/>
<circle class="st37" cx="173.1" cy="435.5" r="9.1"/>
<circle class="st38" cx="173.1" cy="435.5" r="5.7"/>
<ellipse transform="matrix(0.4533 -0.8913 0.8913 0.4533 -113.9501 371.2035)" class="st39" cx="245.7" cy="278.5" rx="18.2" ry="6.3"/>
<ellipse transform="matrix(0.8913 -0.4533 0.4533 0.8913 -94.6384 163.824)" class="st39" cx="294.4" cy="279.3" rx="6.3" ry="18.2"/>
<path class="st39" d="M298.4,246.5c0,7.1-3.8,13.4-9.8,17.6c-4.4,3.1-10,4.9-16.1,4.9c-7.4,0-14.1-2.7-18.9-7.1
	c-4.4-4-7.1-9.4-7.1-15.4c0-2.7,0.6-5.3,1.6-7.7c0.4-0.9,0.9-1.8,1.4-2.7c1.7-2.8,3.9-5.2,6.7-7.1c0.8-0.6,1.7-1.1,2.6-1.6
	c4-2.1,8.6-3.4,13.6-3.4C286.8,224,298.4,234,298.4,246.5z"/>
<path class="st39" d="M294.7,279.7c-0.9-0.2-1.7-0.4-2.7-0.4c-7.4,0-13.3,7.9-13.3,17.6c0,3.6,0.8,6.9,2.2,9.7c-3,1-6.1,1.6-9.3,1.6
	c-3.7,0-7.5-0.6-11.2-1.8c1.6-2.9,2.5-6.5,2.5-10.3c0-9.7-6-17.6-13.3-17.6c-2.2,0-4.3,0.7-6.1,2c2.2-6.6,5.7-13.4,10.2-18.6
	c4.7,4.3,11.4,7.1,18.9,7.1c6.1,0,11.7-1.8,16.1-4.9C290.9,268.4,292.7,273.8,294.7,279.7z"/>
<path class="st40" d="M294.6,279.7c0.2,0.7,0.5,1.3,0.7,2c3.8,11.4-3.8,21.2-14.5,24.9"/>
<ellipse class="st41" cx="270.1" cy="291" rx="23.6" ry="15.5"/>
<path class="st40" d="M260.3,306.4c-11.3-3.5-20.9-12-17.8-23.1c0.3-0.9,0.6-1.9,0.9-2.9"/>
<path class="st39" d="M262.8,296.1c0,3.9-0.9,7.4-2.5,10.3c-2.4,4.4-6.3,7.3-10.8,7.3c-7.4,0-13.3-7.9-13.3-17.6
	c0-6.8,2.9-12.7,7.2-15.6c1.8-1.3,3.9-2,6.1-2C256.9,278.5,262.8,286.4,262.8,296.1z"/>
<ellipse class="st41" cx="249.5" cy="296.1" rx="9.5" ry="12.5"/>
<path class="st39" d="M305.3,296.9c0,9.7-6,17.6-13.3,17.6c-4.7,0-8.8-3.2-11.1-7.9c-1.4-2.8-2.2-6.1-2.2-9.7
	c0-9.7,6-17.6,13.3-17.6c0.9,0,1.8,0.1,2.7,0.4C300.7,281.3,305.3,288.4,305.3,296.9z"/>
<ellipse class="st41" cx="292" cy="296.9" rx="9.5" ry="12.5"/>
<circle cx="262.1" cy="240.3" r="3.1"/>
<circle class="st6" cx="262.1" cy="239" r="1.3"/>
<circle cx="278.7" cy="242.7" r="3.1"/>
<circle class="st6" cx="278.7" cy="241.3" r="1.3"/>
<ellipse transform="matrix(0.1402 -0.9901 0.9901 0.1402 -20.2921 485.0031)" class="st42" cx="269.1" cy="254.2" rx="6.7" ry="9.8"/>
<path class="st40" d="M269.1,250c0,0-0.4,6.1-0.1,7.3"/>
<path class="st40" d="M263,254.2c0.2,0.3,5.6,6.7,11.3,0.5"/>
<path class="st1" d="M253.3,304c0,0-10.3,0-15.3-4.7c0,0-79-9.3-100.3-31c0,0-21.8-16.2-17.1-29.2c1.5-4.2,6.2-6.2,10.4-4.7
	c6.2,2.2,18.2,7.7,39.4,21.6c35,23,64.3,32.7,70,30.7c5.7-2,10-12.3,13-10.7c3,1.7,0,9,0,9s19,1.3,20,4.3s-1.3,3.3-10,1.3
	c0,0,14.2,7.7,8.8,8.8l-8.8-2.2c0,0,17.5,14.8-1.7,5C261.7,302.3,272,320,253.3,304z"/>
<path class="st39" d="M258.8,227.4c-0.9,0.5-1.8,1-2.6,1.6c-0.8-1.9-2.8-3.3-5.1-3.3c-3,0-5.5,2.4-5.5,5.3c0,2.4,1.6,4.4,3.8,5.1
	c-0.5,0.9-1,1.8-1.4,2.7c-3.2-1.2-5.5-4.2-5.5-7.8c0-4.6,3.8-8.3,8.6-8.3C254.5,222.7,257.4,224.6,258.8,227.4z"/>
<path class="st41" d="M256.2,229c-2.8,1.9-5.1,4.3-6.7,7.1c-2.2-0.7-3.8-2.7-3.8-5.1c0-2.9,2.4-5.3,5.5-5.3
	C253.4,225.7,255.4,227,256.2,229z"/>
<path d="M270.3,249.8l3.5-3.6c0.8-0.9,0.3-2.3-0.8-2.5l-5.9-0.8c-1.2-0.2-2,1.1-1.5,2.1l2.4,4.4
	C268.4,250.4,269.6,250.5,270.3,249.8z"/>
<path class="st39" d="M287.3,227.7c0.9,0.5,1.8,1.1,2.6,1.7c0.9-1.9,2.9-3.2,5.2-3.1c3,0.1,5.4,2.6,5.2,5.6
	c-0.1,2.4-1.8,4.3-4.1,4.9c0.5,0.9,0.9,1.8,1.3,2.8c3.3-1.1,5.7-4,5.9-7.5c0.2-4.6-3.5-8.5-8.2-8.7
	C291.9,223.2,288.9,225,287.3,227.7z"/>
<path class="st41" d="M289.9,229.4c2.7,2,4.9,4.6,6.4,7.4c2.2-0.6,3.9-2.5,4.1-4.9c0.1-2.9-2.2-5.4-5.2-5.6
	C292.8,226.3,290.8,227.5,289.9,229.4z"/>
<path class="st40" d="M275.6,235.3c0,0,5.7-1.3,8.9,3.2"/>
<path class="st40" d="M258.6,233.6c0,0,4.4-2.2,7.6,1.3"/>
</svg>
