<svg enable-background="new 0 0 297.64 297.64" viewBox="0 0 297.64 297.64" xmlns="http://www.w3.org/2000/svg"><path clip-rule="evenodd" d="m152.8 86.8c-.73-.32-6.63 1.47-16.4-2.86-6.79-3.01-9.14-10.81-9.14-10.81-6.66 2.02-12.01 6.74-17.65 12.42 2.55 5.8 8.46 15.83 12.21 19.67-1.93 11.24-5.95 37.88-4.6 38.58.98 2.37 5.72 1.74 5.72 1.74l.14-8.86c5.42-6.9 11.2-12.9 16.38-14.9.41-.16.63-.6.78-1.01l.28-1.81c.29-.64 1.62-1.19 2.3-.99 1.44.41 1.75 1.83 5.94 2.25 1.44.14 3.56-3.7-2.86-4.95-1.13-.22 1.4-3.63 5.16-1.88 0 0 4.38 2.77 5.44 4.19 1.67 2.23 2.51 6.84 2.51 6.84l15.42 9.56c6.21-2.79 7.32-3.52 10.05-5.3-13.48-31.21-13.21-33.91-31.68-41.88z" fill="#bbe4f9" fill-rule="evenodd"/><path clip-rule="evenodd" d="m153.14 86.38-2.51.77s-.35 8.44-8.86 7.12c-7.81-1.22-4.53-9.7-4.53-9.7s-.91-.35-2.3-1.33c-5.27 8.64-2.85 17.23-2.16 17.3 1.32.14 3.6-1.81 6.16-3.69-1.16 2.39-1.48 9.31-1.43 11.41.11 4.57-1.57 4.94-1.57 4.94 2.89-.16 6.17-1.6 6.17-1.6s.17-1.61.42-6.31c.11-2.04.51-4.89.85-7.02 1.48 2.85 2.28 5.45 3.78 5.62 1.05.12 6.47-7.11 7.47-13.19.15-1.04-1.49-4.32-1.49-4.32zm-12.24 9.11c.17-.11.35-.22.52-.33.1.13.19.26.29.39-.27-.03-.54-.06-.81-.06z" fill="#fff" fill-rule="evenodd"/><path clip-rule="evenodd" d="m122.66 165.7c.2 5.03.51 8.94 1.26 19.81 1.85 27.09 7.7 66.25 7.74 76.95-4.17 4.37-11.02 14.44-11.02 14.44-.17.51-2.63 1.16-1.36 3.18-1.04 1.02.38 3.07 1.95 2.08.1 1.29 1.86 2.35 2.72 1.49.39 1.23 2.51 2.13 3.32 1.16.83 1.38 5.48.78 4.83-3.51 1.17-3.47 2.98-5.89 5.56-9.46 4.22-2.01 7.6-5.59 4.39-9.87 2.92-28.31 3.2-50.67 3.56-80.79-7.19-7.59-16.36-13.45-22.95-15.48z" fill="#ffe7cc" fill-rule="evenodd"/><path clip-rule="evenodd" d="m116.07 37.47s3.01-2.32 1.95-8c-.33-1.77 1.03-5.13 1.58-5.67 1.17-1.16-.3-4.57-2.33-3.63-1.77.82-3.56 3.21-3.56 3.21s-.62-.77-1.28-3.95c-.6-2.92-1.04-5.53-1.12-6.33-.25-2.72-4.14-2.43-4.16 2.67-.01 1.61-.16 1.78.49 4.4-2.09-3.56-2.2-4.02-4.14-6.7-1.6-2.21-3.72.57-3.16 1.95.81 2.01.31 3.26 2.63 6.7-2.93-3.28-5.18-6.2-6.53-4.47-1.18 1.52.26 6.15 4.09 8.93-4.66-1.56-5.58-3.07-7.16-1.95-2.26 1.59 2.54 4.46 4.23 5.51 4.6 2.86 5.32 9.8 8.98 9-.85 11.66 3.24 31.58 6.16 43.42 0 0 4.26-4.11 5.84-5.28 1.42-1.05 6.05-3.63 6.05-3.63-3.69-12.25-8.56-36.18-8.56-36.18z" fill="#ffe7cc" fill-rule="evenodd"/><path clip-rule="evenodd" d="m137.93 83.94-.55 5.36c.36 4.4 8.2 7.1 12.05.37l.67-3.56c6.63-.58 12.56-4.01 16.99-9.06 1.11.57 2.74.68 4.42.18 2.66-.79 4.4-2.81 3.9-4.49-.4-1.33-2.07-2.04-4.06-1.91.46-.87.89-1.77 1.27-2.68 5.5-13.12 2.83-25.69-10.58-31.31s-25.28-.12-31.74 12.55c-5.84 11.47-4.97 28.69 7.63 34.55z" fill="#ffe7cc" fill-rule="evenodd"/><path clip-rule="evenodd" d="m182.31 130.19-7.81 3.7-7.74-4.74-7.81-4.88c-.63-5.23-3.26-7.59-3.28-7.6-5.48-4.72-7.54-4.31-9.6-2.38-.32.3-.27.7.1.93 1.18.72 2.67.14 4.31 2.22.05.06-.03.09-.02.16.12.88-.19 2.28-1 2.42-2.2.37-5.53-1.14-6.9-1.84-.47-.24-1.04-.21-1.48.09-.28.19-.25.54-.35.7-.3.46-.63 2.23-.63 2.23-.13.29-.31.59-.6.73-1.77.81-11.61 5.97-16.56 15.88l.56 13.47c12.98 4.88 29.86 3.56 44.02-.21l-.28-6.07c5.68 3.98 11.61 6.6 15.77 5.02 5.08-1.95-.7-19.83-.7-19.83z" fill="#ffe7cc" fill-rule="evenodd"/><path clip-rule="evenodd" d="m169.52 277.5s-6.47-11.11-10.64-15.48c.88-17.21 10.04-84.57 9.28-98.39-6.59 2.02-15.89 5.49-21.51 10.67.23 30.56.02 60.46 2.95 86.23-3.21 4.28-.53 9.49 3.69 11.5 2.59 3.57 4.39 5.99 5.56 9.46-.65 4.28 4 4.88 4.83 3.51.81.96 2.93.07 3.32-1.16.86.86 2.63-.2 2.73-1.49 1.57.99 2.99-1.06 1.95-2.08 1.27-2.01-1.98-2.25-2.16-2.77z" fill="#ffe7cc" fill-rule="evenodd"/><path clip-rule="evenodd" d="m140.71 99.94c-.33-.01-.64.47-.69 1.06s.18 1.08.5 1.09c.33.01.64-.47.69-1.06.05-.6-.17-1.09-.5-1.09z" fill="#203756" fill-rule="evenodd"/><path clip-rule="evenodd" d="m139.63 109.53c-.32-.05-.68.39-.79.98s.07 1.1.39 1.15.68-.39.78-.98c.12-.59-.06-1.1-.38-1.15z" fill="#203756" fill-rule="evenodd"/><path clip-rule="evenodd" d="m140.23 104.71c-.33-.01-.64.47-.68 1.06-.05.59.18 1.08.51 1.08.33.01.64-.47.68-1.06.05-.59-.18-1.07-.51-1.08z" fill="#203756" fill-rule="evenodd"/><path d="m227.49 152.61c-1.21-.44-2.54.18-2.98 1.39l-4.46 12.23-.45-44.53c-.01-1.28-1.05-2.3-2.33-2.3-.01 0-.02 0-.02 0-1.28.01-2.31 1.06-2.3 2.35l.45 44.61-4.08-12.09c-.41-1.22-1.73-1.87-2.95-1.46s-1.87 1.73-1.46 2.95l8.35 24.76c.33.97 1.23 1.58 2.2 1.58.25 0 .5-.04.74-.12.44-.15.8-.41 1.06-.75.23-.23.43-.5.55-.82l9.05-24.81c.46-1.21-.16-2.55-1.37-2.99z" fill="#e31e26"/><g clip-rule="evenodd" fill-rule="evenodd"><path d="m182.38 124.26-12.98 6.49 1.67 1.19 11.87-5.66z" fill="#fff"/><path d="m129.39 78.1c-5.48 3.87-10.84 8.2-16.08 13.03l1.38 2.49c5.41-5.07 10.86-9.62 16.38-13.37z" fill="#fff"/><path d="m181.61 123.63-.63-1.95-14.3 7.05 1.67 1.32z" fill="#fff"/><path d="m129.02 76.87-1.04-2.1c-6.01 3.41-11.78 7.93-16.85 12.51l1.42 2.12c4.87-4.31 10.56-8.79 16.47-12.53z" fill="#fff"/><path d="m178.71 41.22c-3.34-4.76-6.57-8.54-10.08-10.17-3.84-2.35-8.36-3.72-13.67-2.93 0 0-8.84-3.43-20.16 6.66-3.95 3.53-6.22 6.99-7.01 9.63-7.61 12.02-4.44 23.84-2.54 28.77.05-.04.11-.08.16-.12.47-.3 1.07-.37 1.61-.3.15.02.28.05.42.09.08-.25.16-.52.25-.79-.13-.21-.22-.44-.28-.7-.62-3.15-1.14-5.88-.93-9.11s1.06-6.1 1.67-9.26c.2-1.01.79-1.55 1.5-1.74.08-.14.16-.28.26-.42.15-.22.35-.41.55-.59.03-.06.06-.12.09-.19.01-.11 1.01-.87 1.08-.96 1.6-2.09 1.81-2.68 2.76-.45.16.37.62 1.54.63 1.57.4.17 1.15.03 1.39.31.34-.64 1.19-.46 1.54-1.08 1.14-.87.27-.48 2.16-2.76-3.64 6.5-1.29 6.84 2.83 3.59.72-.57 1.95-2.48 2.65-3.84-3.71 8.21-.24 9.64 4.85 1.92-2.58 7.81-.47 11.45 5.9 2.72-3.63 10.33-.97 12.56 4.08 4.29-3.35 11.41 1.78 10.36 5.41 2.99-2.43 7.76-1.54 8.9 1.74 5.8-1.54 4.03-1.3 7.03-.56 8.44-.04.07.59 1.39.59 1.4.08.76 1.21-.54 1.35-.52.05 0 .1.01.15.01.32 0 .56.26.58.58.01.29.16.57-.12.59-.04 1.06-1.16 1.96-1.82 2.74-.76.91-1.5 1.87-2.33 2.71-1.87 1.9-4.12 3.6-6.62 4.59-.56.35-1.18.59-1.81.73-.13.03-.26.01-.37-.04-1.34.64-2.74 1.16-4.22 1.55.6.14 1.2.27 1.35.32 1.85.62 3.69 1.34 5.45 2.19 2.51 1.21 5.8 2.88 7.63 5.26.24.18.48.37.71.55.02.02.04.04.07.05.15.12.31.23.45.35.01.01.02.02.03.03 1.84-.72 3.69-1.78 5.52-3.35 15.17-13.02 13.59-39.04 5.11-51.11z" fill="#978771"/><path d="m135.2 71.15c.64 7.36 6.68 9.86 11.43 4.08-.01.01-6.81 1.07-11.43-4.08z" fill="#fff"/><path d="m167.58 93.83c3.76-.44 8.99-6.32 8.81-8.13-.56 2.07-7.53 7.57-8.81 8.13z" fill="#c9b49a"/><path d="m159.08 89.12c2.63-.46 6.09-4.81 5.89-6.08-.31 1.49-5.01 5.64-5.89 6.08z" fill="#c9b49a"/><path d="m147.85 37.44c3.21-9.6 16.81-3.3 21.09-2.33-5.22-6.39-18.29-7.9-21.09 2.33z" fill="#c9b49a"/><path d="m173.02 43.07c.88-1.04.14-6.84-2-8.68.55.88 2.53 7.17 2 8.68z" fill="#c9b49a"/><path d="m174.63 37.92c.64.84 4.02 8.34 3.71 15.8.74-1.11.3-11.84-3.71-15.8z" fill="#c9b49a"/><path d="m132.41 42.28c3.49-7.51 13.45-13.57 18.27-13.47-8.89-.7-16.51 7.76-18.27 13.47z" fill="#c9b49a"/><path d="m123.81 152.28c8.84 3.95 32.24 3.57 43.5-.56.62 3.04 1.63 9.24 1.02 14.12-7.11 3.01-16.15 7.56-19.92 13.31-.9 1.38-3.22 1.86-4.75-.18-4.96-6.61-13-10.75-20.89-13.83-.25-3.59.58-9.26 1.04-12.86z" fill="#fff"/><path d="m262.98 241.24-100.67.08c2.69-24.83 7.16-61.26 7.38-74.86.06-.14.11-.28.13-.43.63-5.04-.4-11.46-1.04-14.6-.07-.35-.27-.66-.55-.88l-.13-4c1.15.73 2.3 1.41 3.44 2.01 4.32 2.25 8.52 3.29 11.63 2.11.96-.37 1.69-1.06 2.17-2.05.55-1.11.79-2.67.74-4.44-.12-4.57-2.03-10.79-2.94-13.5.53-.31 1-.6 1.38-.85.62-.41.85-1.2.54-1.88-8.04-17.56-10.58-25.82-15.29-31.34 1.59-.75 3.19-1.76 4.76-3.11 7.92-6.79 11.51-16.95 11.97-27 .46-10.01-2.19-19.88-6.58-26.14-3.14-4.47-6.33-7.41-9.6-9.22.35.2-6.93-4.76-15.51-3.56-1.91-.61-10.21-2.44-20.86 7.06-4.09 3.65-6.1 7.1-7 9.91-3.19 5.06-4.63 9.94-5.09 14.32-2.2-9.37-4.18-18.74-4.74-21.47 1-1.18 2.62-3.93 1.73-8.73-.15-.83.13-1.94.44-2.8.15-.43.44-.95.47-1 .97-.99 1.27-2.51.95-3.58-.24-.78-.76-1.37-1.49-1.65-.58-.22-1.38-.28-2.37.18-.68.32-1.45.97-2.16 1.78-.21.24-.42.5-.62.76-.27-1.15-.56-2.45-.81-3.66-.58-2.83-.93-4.3-1-5.06-.21-2.25-1.61-3.06-2.59-2.99-.55.04-1.19.3-1.73.98-.6.77-1.22 2.38-1.23 5.02 0 .14 0 .27-.01.41-.7-1.29-1.21-2.5-2.2-3.86-1.27-1.75-2.57-1.76-3.38-1.43-.59.24-1.1.75-1.38 1.46-.31.76-.34 1.78.01 2.64.25.63.5 1.43.78 2.33-.41-.46-.78-.86-1.11-1.14-.76-.63-1.48-.84-2.08-.79-.56.05-1.11.3-1.59.9-.33.42-.53.99-.51 1.71.02.61.21 1.39.57 2.25.42 1.02 1.09 2.2 1.85 3.35-.7-.31-1.29-.57-1.78-.74-1.26-.42-2.17-.24-2.7.16-.62.46-.92.99-1.03 1.51-.16.72.02 1.53.63 2.32 1.19 1.55 4.67 3.31 5.89 4.16 1.01.7 1.71 1.67 2.28 2.64.69 1.16 1.23 2.35 1.83 3.28.78 1.22 1.66 2.07 2.8 2.36-.47 11.94 2.88 31.21 5.7 42.67-.61.58-1.21 1.17-1.81 1.77-.44.44-.56 1.1-.31 1.66 2.5 5.67 8.15 14.79 12 19.03-2.19 12.93-3.99 25.34-4.82 37.6-.06.95.69 1.74.94 2 .41.43 1.05.8 1.89 1.05.91.27 2.12.43 3.46.48l.12 4.83c-.22.23-.37.52-.41.84-.47 3.69-1.31 9.48-1.05 13.15.03.46.28.87.65 1.12.23 4.62.61 10.55 1.21 19.35 1.16 17.07 3.97 39.04 5.9 55.63l-98.96.08c-.41 0-.75.34-.75.75s.34.75.75.75l99.13-.08c.99 8.56 1.71 15.54 1.79 19.43-3.89 4.24-9.69 12.59-10.66 13.99-.31.12-1.1.44-1.54.74-.6.4-1.03.92-1.21 1.55-.12.4-.15.88.01 1.42-.27.71-.21 1.5.11 2.2.47 1 1.48 1.8 2.69 1.78.45.61 1.09 1.1 1.77 1.33.41.14.83.2 1.24.17.59.58 1.38 1.03 2.17 1.19.56.11 1.1.1 1.58-.05.46.22 1.02.36 1.63.37 1.41.02 3.08-.61 4.06-2.05.58-.84.94-1.98.8-3.45 1.1-3.06 2.74-5.28 5.03-8.44 2.83-1.44 4.86-3.59 5.35-6.07.33-1.66.02-3.52-1.29-5.47.63-6.18 1.17-12.4 1.63-18.66h2.22c.37 5.94.84 11.72 1.47 17.31-3.19 4.88-.41 10.64 4.25 13.07 2.29 3.15 3.93 5.38 5.03 8.44-.22 2.21.67 3.65 1.81 4.52 1.31.99 3.06 1.17 4.24.8.16-.05.31-.11.45-.18.48.14 1.01.15 1.56.04.79-.16 1.58-.6 2.17-1.19.4.03.82-.03 1.23-.17.68-.23 1.32-.72 1.77-1.33 1.21.02 2.22-.78 2.69-1.78.33-.7.39-1.49.11-2.2.16-.54.13-1.02.01-1.42-.18-.63-.61-1.16-1.21-1.55-.43-.29-1.19-.6-1.51-.72-1-1.69-6.28-10.5-10.1-14.84-.02-.12-.06-.23-.13-.33.25-4.14.89-10.68 1.73-18.48l100.84-.08c.41 0 .75-.34.75-.75-.03-.41-.36-.75-.78-.75zm-80.34-91.98c-8.94 3.4-27.75-15.17-29.13-16.54-.22.32-2.25 1.46-7.34 1.68-2.65.11-7.48.84-6.98-1.13.21-.85 1.93-1.08 3.99-1.6.5.02 1.03 0 1.6-.11.92-.19 1.88-.5 2.72-.84.18-.05.28-.22.22-.37s-.26-.23-.44-.18c-.84.15-1.78.27-2.66.27-.24 0-.47-.02-.7-.05-1.4-.53-1.92-1.89-1.43-3.02.53.02 1.22.01 1.99-.06 1.27-.12 2.68-.31 3.57-.49.18-.02.31-.17.28-.33-.02-.16-.19-.27-.36-.25-.89.03-2.27.01-3.51-.07-.88-.06-1.65-.15-2.04-.28-1.08-.66-1.53-1.92-.71-2.68.28.11.58.19.89.25 1.7.31 3.68-.03 4.6-.42.16-.06.24-.22.18-.37s-.23-.23-.39-.17c-.86.24-2.64.34-4.1-.12-.77-.25-1.43-.67-1.71-1.39-.14-1.23.63-2.41.86-2.27 1.78 1.09 3.62 1.81 5.51 2.07.4.06 2.11.09 2.59-.38.66-.64 1.27-2.58.87-3.09-.71-.91-2.23-2.49-4.36-2.48-.01-.01-.03-.03-.04-.04 1.07-.51 1.9-3.16 8.25 2.31 2.73 2.36 3.55 7.49 3.55 7.49s15.79 10.18 17.1 10.95c.85.51 1.6 1.03 1.9 1.64.08.2.3.3.49.22s.29-.3.21-.5c-.18-.63-.7-1.27-1.35-1.9-.23-.22-.49-.45-.75-.66 2.13-.96 4.17-1.99 5.82-2.9 1.44 4.33 4.95 16.23.81 17.81zm-41.53-22.5c-.34.79-.38 1.66-.16 2.45.13.45.35.9.66 1.29-1.08.26-1.99.5-2.57.82-.74.41-1.15.95-1.3 1.57-.16.64-.07 1.18.14 1.62.27.56.81 1.04 1.64 1.31 1.53.5 4.7.15 6.72.07 3.71-.16 5.92-.8 7.04-1.29l.02-.01c2.09 2.02 7.45 6.98 13.28 10.94l.16 4.8c-10.99 4-33.71 4.4-42.3.57-.07-.03-.13-.04-.2-.06l-.33-13.69c5.22-6.76 10.09-11.38 14.66-13.91.52-.29 1.04-.54 1.56-.77.03.06.05.12.09.18-.31.5-.43 1.06-.4 1.62.01.86.49 1.79 1.29 2.49zm42.6 1.81c-1.67 1.09-5.69 2.97-9.29 4.56-.32-.23-4.06-2.64-7.69-4.98.01-.05.03-.1.03-.15-.15-3.01-.29-6.87-.53-10.73.09-.04.17-.11.24-.19.42-.58 1.39-2.14 2.09-3.69.45-1.01.8-2.01.81-2.74.01-.16-.1-.3-.26-.31s-.3.1-.32.26c-.1.65-.54 1.5-1.07 2.36-.52.83-1.12 1.65-1.62 2.27-.21-2.88-.49-5.66-.89-7.99-.03-.18-.2-.31-.38-.28-.18.02-.31.19-.29.37.26 2.41.36 5.29.38 8.26.03 3.95-.08 8.02-.14 11.31-2.76-1.77-5.03-3.23-5.03-3.23-.36-1.6-1.48-5.62-3.91-7.71-3.75-3.24-5.94-3.84-7.25-3.76-.91.06-1.56.41-2.09.8-.2.15-.51.4-.56.44-.21.09-.37.23-.51.39-.67-.45-1.44-.85-2.31-1.15.26-.24.43-.56.47-.92 0 0 .17-1.63.43-6.39.05-.95.17-2.09.31-3.24.06.1.11.21.17.31.75 1.21 1.64 1.86 2.65 1.97.44.05 1.32-.17 2.21-1.07 1.81-1.83 5.01-7.08 5.87-12.28.07-.42-.08-1.31-.46-2.35 17.75 7.76 15.86 11.28 28.94 39.86zm-43.04-19.49c-.24-.31-.55-.49-.9-.54-.33-.05-.67.02-1 .24-.39.26-.78.82-.92 1.54-.13.73.04 1.37.31 1.75-.3.02-.6.06-.91.1-.13.02-.26.04-.39.07.36-.7.68-1.91.63-3.97-.04-1.72.17-6.7.89-9.74.94-.75 1.95-1.55 2.98-2.26.74 1.14 1.29 2.33 1.78 3.4-.28 1.88-.55 4.01-.64 5.63-.25 4.7-.42 6.31-.42 6.31s-.54.24-1.38.53c-.1-.01-.21-.02-.31-.03.26-.3.49-.73.59-1.24.16-.75-.02-1.42-.31-1.79zm-.65 1.6c-.11.59-.46 1.02-.78.97s-.5-.56-.39-1.15.46-1.02.78-.98c.32.06.5.57.39 1.16zm5.21-56.45c.54.05 1.3-.11 2.17-.7.33-.22.69-.52 1.09-.89-.04.8-.01 1.46.09 1.96.23 1.17.82 1.83 1.48 2.14s1.54.35 2.6-.21c.45-.23.97-.61 1.55-1.13-.22 1.27-.32 2.25-.29 2.96.04 1.28.5 2.01.94 2.36.63.5 1.57.69 2.72-.07.3-.2.65-.51 1.04-.92-.07 1.26-.03 2.19.11 2.82.27 1.24.91 1.83 1.54 2.07.64.25 1.49.21 2.44-.43.15-.1.3-.22.47-.35v.05c.06.92.38 1.49.74 1.84.51.5 1.19.73 2.07.52.01 0 .01 0 .02-.01-.33 2.28-.24 4.36.07 5.72.2.88.51 1.52.81 1.89.31.37.65.58.99.68.19.06.47.11.85.05.09-.01.22-.04.35-.08-6.68 9.41-18.06 14.72-30.22 9.83-12.3-4.95-14.25-20.17-9.96-31.72.1-.01.2-.02.3-.04.45-.1.95-.39 1.27-1.07.09-.19.48-1.17 2.82-3.55.03.37.08.69.16.96.21.76.58 1.25 1 1.55.66.48 1.58.64 2.74.08.34-.16.72-.41 1.15-.75.13.9.62 1.43 1.23 1.72.52.24 1.29.33 2.27-.04.38-.14.83-.37 1.34-.68.04.04.08.06.12.09-.3 2.33.83 3.24 1.93 3.35zm26.42 19.1c.79-.48 1.69-1.13 2.63-1.93.56.33.97.77 1.14 1.33.5 1.68-1.24 3.7-3.9 4.49-1 .3-1.98.37-2.85.26 1.09-1.29 2.09-2.68 2.98-4.15zm-28.56 21.91c2.69.01 5.64-1.31 7.65-4.82l.17-.47.46-2.47c.29-.04.58-.07.86-.12.18.1.34.19.49.29.58 1.31 1.1 2.67 1.02 3.16-1 6.07-5.38 12.22-6.43 12.1-1.86-.21-2.51-4.16-4.85-7.7.22.02.42.03.63.03zm-5.71-5.94.39-3.81c.18.08.35.18.54.25 3.95 1.59 7.83 2.15 11.51 1.89l-.38 2.03c-3.86 6.74-11.7 4.04-12.06-.36zm-1.05-4.48-.44 4.33v.28c.21 2.49 2.22 4.63 4.86 5.45-3.17 2.17-6.14 5.21-7.71 5.04-.48-.05-1.26-4.04.06-9.36.07-.12.1-.25.1-.4.49-1.83 1.23-3.81 2.32-5.83.26.16.52.34.81.49zm37.24 7.53c-1.61 1.38-3.24 2.38-4.86 3.09-1.88-1.91-4.13-3.52-7.14-5.14.65-.44 1.53-1.12 2.54-2.16 1.2-1.22 2.58-2.92 3.97-5.28.06-.08.04-.19-.05-.25-.08-.06-.19-.04-.25.04-1.33 1.64-2.6 2.88-3.73 3.82-2.54 2.11-4.31 2.61-4.31 2.61-.09.03-.16.09-.24.15-1.44-.71-3.02-1.43-4.8-2.19-.06-.03-.17-.08-.3-.15 5.01-1.33 9.49-4.22 13.11-8.09 1.27.34 2.83.35 4.43-.13 1.99-.59 3.54-1.77 4.34-3.04.69-1.08.88-2.24.56-3.32-.23-.78-.73-1.45-1.43-1.96 4.32-4.27 8.64-12.01 5.38-24.02-.41-1.53-1-3.05-1.71-4.54 8.15 12.31 9.46 37.72-5.51 50.56zm-38.61-56.59c6.66-5.94 12.3-7.19 15.82-7.21-.46.17-.92.35-1.36.56-1.63.78-3.08 1.83-4.36 3.02-.07.06-.09.18-.02.25.06.08.18.09.25.02 1.35-1 2.85-1.85 4.49-2.43.56-.2 1.15-.34 1.74-.47-1 .69-1.9 1.41-2.68 2.13-2.95 2.7-4.29 5.19-4.29 5.19-.05.08-.02.19.06.24s.19.02.24-.06c0 0 1.51-2.3 4.59-4.66 1.47-1.13 3.31-2.26 5.51-3.16.03-.01.05-.02.08-.03.01-.01.03-.01.04-.02.04-.02.07-.05.11-.08 4.51-.56 8.53.3 11.97 2.07 1.42 1.47 2.92 4.04 3.37 6.38.62 3.18.66 7.17.1 11.51-.01.08.04.16.13.17.08.01.16-.04.18-.13.84-4.38 1.04-8.45.61-11.72-.21-1.57-.58-2.94-1.08-4.11.13.1.26.2.39.3.72 1.06 3.02 4.74 4.1 9.84.69 3.25.88 7.07-.14 11.15-.02.08.02.17.11.19s.17-.03.19-.11c1.26-4.12 1.26-8.03.73-11.39-.41-2.59-1.13-4.84-1.85-6.62 2.58 3.01 4.42 6.58 5.39 10.13 5.18 19.08-9.92 26.72-11.03 26.38-1.04-.32-1.7-5.53.11-10.27-1.64 1.71-2.63 1.9-3.11 1.65-.73-.38-.37-1.99-.32-2.06 1.07-1.93 1.78-4.4 2.13-6.76.44-3.03.28-5.84-.42-6.96-.06-.11-.2-.16-.32-.09s-.16.21-.09.32c.53 1.11.34 3.72-.38 6.49-.41 1.56-1 3.16-1.75 4.55-.27.49-1.49 2.37-1.74 2.53-2.36 1.52-3.13.24-1.52-8.47-5.06 8.26-7.31 7.86-3.75-4.35-6.36 8.73-8.8 7.29-6.13-2.62-4.75 7.2-7.97 7.55-5.36.89.31-.66.66-1.26 1.06-1.82.97-1.35 2.12-2.47 3.38-3.59.03-.03.04-.07.02-.11-.02-.03-.07-.04-.11-.02-1.49.91-2.87 1.83-4.1 3.01-.98.95-1.83 2.07-2.56 3.45-3.91 2.81-4.92 1.26-1.41-5.01-5.04 6.08-7.37 7.33-7.21 2.82.01-.02.02-.03.03-.06.33-1.74.91-3.14 1.71-4.38.89-1.4 1.99-2.57 3.19-3.77.03-.03.04-.07.01-.11-.03-.03-.07-.04-.11-.01-1.44.98-2.77 1.97-3.94 3.22-1.13 1.2-2.06 2.63-2.78 4.49-.02.07-.01.14-.02.2-3.16 3.1-3.63 4.37-3.74 4.59-.81 1.77-4.45-5.91 5.84-15.08zm-8.6 13.01c.08 1.42.47 2.46.85 2.97.1.13.2.24.3.34-2.37 6.39-2.9 13.85-.99 20.26-.38.14-.75.31-1.12.48-.65-2.32-1.34-4.97-2.04-7.77-.42-4.56.07-10.21 3-16.28zm-23.08-34.7c1.8 2.48 2.07 4.45 4.62 7.29-1.01.63-2.03 1.48-2.96 2.43-.09.09-.17.19-.26.28-2.12-3.33-2.77-6.84-3.55-8.78-.55-1.38.56-3.42 2.15-1.22zm-6.35 4.01c1.31-1.69 3.62 3.47 7.63 6.13-1.03 1.12-1.92 2.32-2.51 3.43-2.34-2.35-6.22-8.14-5.12-9.56zm10.17 21.64c.94-.25 1.94-.7 2.49-1.21.13-.1.15-.28.05-.41s-.28-.15-.41-.05c-.41.25-1.01.42-1.64.52-.72.12-1.76-.03-2.01-.06-.12-.14-.29-.22-.46-.25-1.84-1.4-2.55-5.49-5.62-7.62-1.63-1.13-7.67-3.9-5.45-5.55.84-.62 3.55 1.25 7.87 2.78-.1.2-.19.39-.27.58-.07.15-.01.32.14.39s.32.01.39-.14c.68-1.3 1.98-2.83 3.48-4.13 1.45-1.26 3.07-2.3 4.49-2.65.4-.12.63-.53.51-.93s-.53-.62-.93-.51c-.45.15-.92.37-1.39.64-.37-1.97-.15-3.05-.15-4.45.03-5.11 2.31-5.61 2.56-2.88.07.79.42 2.31 1.02 5.23.36 1.77.82 3.74 1.15 5.14-.68 1.38-1.35 3.41-1.59 5.32-.23 1.85-.06 3.57.82 4.46.11.12.29.13.41.02s.13-.29.02-.41c-.69-.83-.65-2.33-.31-3.92.47-2.25 1.61-4.67 2.47-5.64.04-.05.06-.11.09-.16.79-1.08 1.77-2.23 2.63-2.63 2.02-.94 2.36 1.49 1.19 2.65-.55.54-1.62 3.34-1.29 5.1 1.05 5.67-1.89 7.97-1.89 7.97s4.78 23.2 8.42 36.17c-.09.24-.15.43-.13.48-3.95 1.96-7.67 4.78-11.25 8.08-2.77-11.6-5.98-30.44-5.41-41.93zm11.68 104.45c.1-.09.2-.18.28-.3 1.14-1.69 2.27-3.28 3.38-4.78l.14 5.83c-1.62-.08-3-.3-3.8-.75zm-.92-1.2c-.01-.03-.02-.05-.02-.08 1.14-12.01 2.59-24.23 4.72-36.91.37.15.79.31 1.26.46.63.2 1.32.37 2.03.49.13.03.27-.05.31-.18.03-.14-.05-.28-.18-.31-.65-.24-1.26-.53-1.81-.84-.69-.38-1.26-.76-1.65-1.06-.01 0-.02 0-.02-.01-3.75-4-9.47-13.21-11.97-18.88 5.15-5.19 10.51-9.61 16.47-11.89 1.41 3.88 3.78 7.3 7.24 9.76-.38.7-.73 1.39-1.03 2.08-.48-.9-1.27-2.35-2.53-3.99-1-1.3-2.3-2.71-3.98-4.06-.12-.11-.31-.09-.41.03s-.09.31.03.41c1.51 1.43 2.65 2.89 3.51 4.22 1.55 2.39 2.21 4.35 2.54 4.95.04.07.1.12.15.17-.06.18-.13.35-.19.53-.51-1.07-1.11-2.07-1.83-2.97-1.17-1.48-2.59-2.73-4.24-3.75-.13-.09-.31-.06-.4.08-.09.13-.06.32.08.41 1.49 1.1 2.74 2.39 3.73 3.88.91 1.37 1.57 2.91 2 4.6-1.04 4.14-.88 7.56-.52 9.18.2.91.55 1.45.77 1.66.32.31.67.43.97.46.76.08 1.8-.24 2.95-.97.26-.17.53-.36.81-.56-.49 3.11-.67 6.93-.63 8.43.03 1.35-.1 2.27-.31 2.9-.12.34-.93 1.52-.96 1.57-3.05.98-6.44 3.01-9.92 6.64-.11.11-.11.3 0 .41s.3.11.41 0c3.54-3.42 6.91-5.28 9.91-6.1 4.51-1.22 8.14-.04 10.1 1.78.26.49.77.82 1.36.8 1.41-.04 2.43.94 3.02 1.64-.06.29-.22.93-.42 1.24-.27.03-1.24.11-1.43.09-.99-.14-1.95-.43-2.9-.83-.05-.05-.09-.1-.16-.13-.6-.32-1.18-.58-1.74-.82-.05-.03-.1-.05-.14-.08-.11-.07-.27-.13-.45-.17-2.18-.85-4.09-1.13-6.1-.89-2.36.28-4.83 1.27-8.03 2.89-.15.07-.21.24-.14.39.07.14.24.21.39.14 3.16-1.39 5.59-2.23 7.87-2.38 1.4-.09 2.74.11 4.16.59-.44.57-.94 1.77-.85 3.04-6.58 2.89-13.85 10.11-21.83 21.94zm4.91 22.16c-.25-3.59.59-9.25 1.04-12.85 8.84 3.95 32.24 3.57 43.5-.56.62 3.04 1.63 9.24 1.02 14.11-7.11 3.01-16.15 7.56-19.92 13.31-.9 1.38-3.22 1.86-4.75-.18-4.95-6.6-13-10.74-20.89-13.83zm14.89 106.72c-2.59 3.57-4.39 5.99-5.56 9.46.56 3.73-2.9 4.67-4.34 3.93-.01-.09-.03-.17-.09-.25-.7-.83-.89-1.46-.76-2 .12-.51.49-.92.89-1.27.26-.01.52.05.73.14.32.13.57.31.68.4.09.07.17.1.2.11h.02l.06-.01c.36-.1.6-.25.75-.47.15-.2.23-.47.27-.81l-.09.08c.07-.08.12-.19 0-.28-.01-.01-.04-.03-.07-.05-.13-.09-.41-.26-.77-.34-.11-.02-.23-.03-.35-.04.08-.12.14-.24.14-.36 0-.11-.08-.2-.19-.2s-.2.08-.2.19c-.01.09-.08.17-.18.26-.21.19-.53.38-.87.6-.7.45-1.46 1.02-1.74 1.84-.21.63-.16 1.4.42 2.4-.77.16-1.8-.29-2.34-.98 0-.02 0-.04-.01-.06-.33-.8-.35-1.36-.16-1.81.13-.31.34-.56.57-.79.14.01.37.03.59.13.18.08.35.22.45.45.06.13.21.19.34.13.07-.03.11-.1.13-.17.64-.44.75-.94.59-1.29-.12-.26-.42-.46-.84-.51.09-.15.16-.3.19-.47.03-.1-.04-.21-.14-.23-.1-.03-.21.04-.24.14-.14.45-.59.72-1.05 1.03-.48.33-.97.71-1.27 1.26-.27.48-.37 1.11-.21 1.96-.65.02-1.38-.45-1.74-1.1-.21-.73-.18-1.28-.01-1.72.07-.18.16-.34.26-.48.15-.01.4-.02.66.05.2.05.41.16.54.37.08.12.24.15.36.07.06-.04.1-.1.11-.17.65-.51.68-1.04.44-1.35-.14-.18-.39-.29-.72-.33.16-.18.27-.36.29-.56.02-.11-.05-.21-.16-.22-.11-.02-.21.05-.22.16-.03.12-.11.21-.22.31-.15.14-.36.27-.58.42-.51.34-1.08.76-1.44 1.43-.23.42-.36.94-.34 1.6-1.06.04-1.82-1.17-1.37-2.03.09-.13.19-.24.3-.34.03.07.09.12.17.12-.03-.09-.06-.14-.09-.18.02-.02.05-.04.07-.06l.02.24c.01 0 .31-.05.61.03.14.04.29.12.38.27.08.12.24.15.36.07.06-.04.1-.11.11-.18.5-.41.52-.83.32-1.08-.04-.05-.1-.1-.16-.14.11-.05.23-.1.32-.15.37-.21.58-.46.53-.82-.01-.11-.1-.19-.21-.18s-.19.1-.18.21c0 .22-.22.29-.49.37-.58.18-1.42.29-2.11.65.01-1.24 2.3-1.48 2.44-1.91 0 0 6.15-8.99 10.35-13.67.13.02.27.02.41-.02.74-.3 1.39-.41 2.01-.34.79.09 1.5.35 2.19.65.18.11.42.05.53-.13s.05-.42-.13-.53c-.68-.53-1.41-1.02-2.27-1.34-.61-.23-1.28-.33-2.05-.31-.43-12.22-6.06-49.87-7.84-76.01-.57-8.33-.94-14.09-1.17-18.59 7.23 2.93 14.46 6.8 19 12.84.81 1.08 1.77 1.67 2.74 1.89.02 2.99.04 5.97.05 8.94-.54 24.34-1.69 48.07-4.08 71.21 3.19 4.25.69 7.91-3.54 9.92zm-9.31 9.43c.07-.05.13-.1.19-.15.11-.09.22-.17.31-.26.23-.04.45-.03.63.02.26.07.47.18.58.26-.03.2-.09.35-.18.47s-.22.19-.39.25c-.14-.11-.42-.32-.77-.47-.11-.05-.24-.09-.37-.12zm-3.29-.12c.07-.06.15-.13.22-.19.07-.07.14-.13.21-.2.42-.08.74-.01.85.2.1.19-.02.45-.34.71-.12-.16-.26-.29-.42-.37-.17-.08-.35-.12-.52-.15zm-2.99-.93c.14-.14.29-.27.43-.39h.01c.44-.13.79-.11.95.07.14.17.04.42-.29.72-.15-.15-.32-.26-.51-.32-.2-.07-.4-.08-.59-.08zm-2.26-.49c.14-.07.27-.14.41-.2.02 0 .03.01.05.01.31-.1.57-.1.68.03.09.11.02.26-.17.45-.12-.1-.25-.19-.39-.23-.21-.07-.41-.07-.58-.06zm24.67-38.41c.48-6.56.87-13.16 1.2-19.81.18 6.75.43 13.37.81 19.81zm26.02 41.28c.06-.77-.06-1.35-.3-1.79-.02-.03-.04-.05-.05-.08.11.04.23.02.3-.08.08-.14.25-.21.43-.26.32-.08.66-.09.84-.08.79.86-.03 2.36-1.22 2.29zm-.46-2.89c.13-.14.4-.16.72-.06.02 0 .03-.01.05-.01.18.07.35.15.51.26-.17 0-.36.01-.55.04-.23.04-.42.14-.58.27-.2-.2-.26-.38-.15-.5zm-15.41-16.15c.17.14.41.11.55-.05.67-.64 1.37-.92 2.03-1.03.88-.15 1.64.11 2.11.3.1.03.19.02.29.02 4.15 4.78 9.92 14.69 9.92 14.69.14.42 2.3.65 2.44 1.8-.14-.08-.28-.16-.43-.21-.64-.22-1.34-.26-1.81-.4-.2-.06-.36-.11-.37-.29.01-.11-.07-.2-.18-.21s-.2.07-.21.18c-.06.36.16.6.53.79.1.05.23.1.35.14-.06.04-.11.08-.15.13-.15.19-.18.45-.05.72-.29-.26-.61-.47-.91-.65-.22-.13-.42-.24-.58-.36-.1-.08-.18-.17-.21-.28-.02-.11-.12-.18-.22-.16-.11.02-.18.12-.16.22.02.21.15.4.33.58-.29.04-.52.14-.66.28-.3.31-.32.85.35 1.38.01.07.05.13.11.17.12.08.28.05.36-.07.13-.21.33-.32.54-.37.35-.09.68-.05.77-.03.06.09.12.18.17.29.17.42.18.95-.04 1.69-.02.08-.01.16.01.23-.35.61-1.03 1.06-1.66 1.07.19-.91.08-1.57-.22-2.06-.32-.53-.82-.89-1.32-1.2-.47-.3-.93-.55-1.06-1-.03-.1-.13-.17-.24-.14-.1.03-.17.13-.14.23.03.17.11.32.2.47-.42.05-.72.25-.84.51-.16.35-.05.85.59 1.29.02.07.06.14.13.17.13.06.28 0 .34-.13.09-.23.27-.37.45-.45.27-.12.56-.13.68-.13.22.21.42.44.55.72.2.43.19.99-.14 1.78-.01.02 0 .03-.01.05-.49.72-1.54 1.22-2.34 1.11.52-.95.56-1.7.34-2.32-.34-.97-1.32-1.61-2.07-2.12-.26-.17-.48-.33-.62-.48-.06-.07-.11-.13-.11-.2 0-.11-.09-.19-.2-.19s-.19.1-.19.2.04.19.09.3c-.16.01-.31.03-.45.08-.54.18-.92.59-.92.59l-.05.17c.03.3.14.51.28.68.2.22.51.35.92.46l.06.01s.1-.02.22-.11c.11-.09.36-.27.68-.4.2-.08.44-.13.68-.13.43.38.82.82.96 1.37.14.56-.05 1.22-.75 2.05-.01.01-.01.03-.02.04-1.38.83-5.01-.05-4.44-3.87-1.18-3.47-2.98-5.89-5.56-9.46-4.22-2.01-6.9-7.22-3.69-11.5-2.4-21.13-2.7-45.04-2.85-69.82.07-2.97.12-5.94.17-8.92 1.14-.23 2.14-.91 2.74-1.82 3.51-5.34 11.77-9.54 18.51-12.43-.55 19.13-8.1 75.7-9.22 93.24-.63-.02-1.38.05-2.15.38-.78.34-1.59.87-2.23 1.87-.17.16-.15.41.02.54zm14.37 16.85c-.21-.01-.46 0-.71.07-.19.06-.36.17-.51.32-.32-.3-.4-.55-.23-.71.18-.17.55-.19.99-.06h.02c.15.11.3.24.44.38zm-3.06.92c-.18.02-.38.06-.58.16-.16.08-.3.21-.42.37-.32-.27-.44-.52-.34-.71.11-.21.44-.28.88-.2h.01c.07.06.13.12.2.18.08.07.17.13.25.2zm-3.36.14c-.12.03-.24.07-.35.11-.35.16-.63.36-.77.47-.2-.05-.37-.11-.5-.21-.12-.09-.21-.21-.25-.4.11-.11.35-.31.66-.42.2-.07.43-.1.68-.03.11.11.23.21.37.33.05.06.1.1.16.15z" fill="#010101"/><path d="m107.08 30.76c-.75-.37-1.49-.58-2.09-.63-.5-.04-.92.07-1.23.25-.34.23-.44.7-.21 1.04s.7.44 1.04.21c.17-.13.47-.14.82-.1.55.06 1.2.24 1.84.51 1.04.44 2.06 1.1 2.64 1.89.09.14.27.17.4.08s.17-.27.08-.4c-.63-1.16-1.98-2.21-3.29-2.85z" fill="#010101"/><path d="m145.98 149.7c.27 0 .53-.11.73-.32.34-.37.36-.92.06-1.3-.06-.22-.07-.74 0-.92.22-.5 0-1.09-.51-1.32s-1.1 0-1.32.5c-.3.67-.39 2.38.36 3.08.19.19.43.28.68.28z" fill="#010101"/><path d="m137.28 221.81c-.26-.1-.55.03-.65.28-.41 1.04-1.21 1.63-2.11 1.61-.97-.04-1.8-.74-2.12-1.79-.08-.26-.36-.41-.62-.33s-.41.36-.33.62c.44 1.44 1.66 2.44 3.04 2.5h.12c1.31 0 2.41-.83 2.96-2.24.1-.26-.03-.55-.29-.65z" fill="#010101"/><path d="m156.47 224.89c1.38-.05 2.6-1.06 3.04-2.5.08-.26-.07-.54-.33-.62s-.54.07-.62.33c-.32 1.05-1.15 1.75-2.12 1.79-.96.03-1.71-.57-2.11-1.6-.1-.26-.39-.39-.65-.28-.26.1-.38.39-.28.65.55 1.41 1.65 2.24 2.96 2.24.03-.01.07-.01.11-.01z" fill="#010101"/><path d="m136.31 70.15c-.43-.48-1.12-.63-1.71-.38-.59.26-.95.86-.9 1.51.38 4.33 2.46 7.17 5.01 8.19 2.69 1.08 6.12.3 9.07-3.28.4-.48.45-1.16.14-1.7s-.92-.83-1.53-.74c0 0-2.57.39-5.5-.61-1.53-.51-3.17-1.42-4.58-2.99zm10.31 5.09c-2.38 2.89-5.07 3.71-7.26 2.89-2.18-.82-3.85-3.29-4.17-6.97 4.63 5.14 11.43 4.08 11.43 4.08z" fill="#010101"/><path d="m138.73 66.95c-.3.29-.3.76-.02 1.06.29.3.76.3 1.06.02.63-.61 1.4-.67 2.01-.41.65.28 1.16.91 1.06 1.64-.06.41.23.79.64.85s.79-.23.85-.64c.2-1.4-.69-2.68-1.95-3.22-1.12-.49-2.52-.4-3.65.7z" fill="#010101"/><path d="m134.54 59.25c1-.4 1.81-.53 2.56-.36.03.01.06.02.1.03-.13.09-.25.2-.35.35-.41.61-.24 1.45.38 1.86s1.46.25 1.86-.37c.12-.19.18-.39.2-.6.03.03.06.05.09.08.31.27.78.24 1.06-.07.27-.31.25-.79-.07-1.06-1.03-.91-1.96-1.47-2.97-1.69s-2.09-.1-3.43.44c-.38.15-.57.59-.42.97.17.39.61.58.99.42z" fill="#010101"/><path d="m148.77 64.33c.85.19 1.53.43 2.07.8-.45.08-.85.39-1.03.85-.26.7.1 1.49.81 1.75.62.23 1.3-.01 1.64-.54.05.16.1.32.15.49.1.4.51.65.91.54.4-.1.65-.51.54-.91-.35-1.4-.89-2.35-1.66-3.04-.76-.68-1.77-1.11-3.11-1.41-.4-.09-.8.16-.9.57-.08.41.18.81.58.9z" fill="#010101"/><path d="m134.86 55.5s1.33-.48 3.39-.15c.98.16 2.12.49 3.36 1.14.37.19.82.05 1.01-.32s.05-.82-.32-1.01c-1.41-.73-2.7-1.11-3.81-1.29-2.52-.4-4.15.22-4.15.22-.39.14-.58.58-.44.96.14.4.57.6.96.45z" fill="#010101"/><path d="m150.64 60.87c1.35.44 2.38 1.06 3.15 1.71 1.59 1.33 2.09 2.74 2.09 2.74.13.39.56.6.95.47s.6-.56.47-.95c0 0-.59-1.77-2.55-3.41-.9-.75-2.09-1.48-3.65-1.98-.39-.13-.82.09-.95.48-.12.39.09.81.49.94z" fill="#010101"/><path d="m140.5 103.08c.33.01.66-.1.95-.35.36-.3.7-.9.76-1.62.06-.76-.19-1.4-.52-1.74-.27-.28-.6-.42-.96-.43-.33-.01-.66.1-.95.35-.36.3-.69.9-.76 1.62-.06.76.19 1.4.52 1.74.27.28.6.42.96.43zm.21-3.14c.33.01.55.49.5 1.08s-.36 1.07-.69 1.06-.55-.49-.5-1.09c.05-.59.36-1.06.69-1.05z" fill="#010101"/><path d="m141.21 104.14c-.27-.28-.61-.42-.96-.43-.33-.01-.66.1-.95.35-.36.3-.69.9-.75 1.63-.06.76.2 1.4.53 1.74.27.28.61.42.96.43.33.01.66-.1.95-.35.36-.31.69-.91.75-1.63.06-.76-.2-1.41-.53-1.74zm-1.15 2.71c-.33-.01-.56-.49-.51-1.08s.35-1.07.68-1.06.56.49.51 1.08c-.05.6-.35 1.07-.68 1.06z" fill="#010101"/><path d="m153.42 132.63.08.08c.05-.06.02-.09-.08-.08z" fill="#010101"/></g></svg>