<?xml version="1.0" encoding="utf-8"?>
<!-- Generator: Adobe Illustrator 22.1.0, SVG Export Plug-In . SVG Version: 6.00 Build 0)  -->
<svg version="1.1" id="Слой_1" xmlns="http://www.w3.org/2000/svg" xmlns:xlink="http://www.w3.org/1999/xlink" x="0px" y="0px"
	 viewBox="0 0 283.5 283.5" style="enable-background:new 0 0 283.5 283.5;" xml:space="preserve">
<style type="text/css">
	.st0{fill-rule:evenodd;clip-rule:evenodd;fill:#FFFFFF;}
	.st1{fill:none;stroke:#12100B;stroke-linecap:round;stroke-linejoin:round;stroke-miterlimit:10;}
	.st2{fill-rule:evenodd;clip-rule:evenodd;fill:#BD1823;}
	.st3{fill:none;stroke:#12100B;stroke-width:2;stroke-linecap:round;stroke-linejoin:round;stroke-miterlimit:10;}
	.st4{clip-path:url(#SVGID_2_);fill-rule:evenodd;clip-rule:evenodd;fill:#FFFFFF;}
	.st5{clip-path:url(#SVGID_2_);fill:none;stroke:#12100B;stroke-linecap:round;stroke-linejoin:round;stroke-miterlimit:10;}
	.st6{clip-path:url(#SVGID_4_);fill:none;stroke:#12100B;stroke-linecap:round;stroke-linejoin:round;stroke-miterlimit:10;}
	.st7{clip-path:url(#SVGID_6_);fill:none;stroke:#12100B;stroke-linecap:round;stroke-linejoin:round;stroke-miterlimit:10;}
	.st8{clip-path:url(#SVGID_6_);fill-rule:evenodd;clip-rule:evenodd;fill:#12100B;}
	.st9{clip-path:url(#SVGID_6_);fill-rule:evenodd;clip-rule:evenodd;fill:#FFFFFF;}
	.st10{clip-path:url(#SVGID_8_);fill-rule:evenodd;clip-rule:evenodd;fill:#12100B;}
	.st11{clip-path:url(#SVGID_8_);fill-rule:evenodd;clip-rule:evenodd;fill:#FFFFFF;}
	.st12{clip-path:url(#SVGID_10_);fill:none;stroke:#12100B;stroke-linecap:round;stroke-linejoin:round;stroke-miterlimit:10;}
</style>
<polygon class="st0" points="248.4,200.6 156.1,200.4 142,212.3 141.9,218.8 260.8,218.8 261.2,211.9 "/>
<polygon class="st1" points="248.4,200.6 156.1,200.4 142,212.3 141.9,218.8 260.8,218.8 261.2,211.9 "/>
<line class="st1" x1="141.9" y1="212.2" x2="261.2" y2="211.7"/>
<rect x="179.9" y="153.8" class="st2" width="48.6" height="53.6"/>
<rect x="179.9" y="153.8" class="st3" width="48.6" height="53.6"/>
<g>
	<defs>
		<rect id="SVGID_1_" width="283.5" height="283.5"/>
	</defs>
	<clipPath id="SVGID_2_">
		<use xlink:href="#SVGID_1_"  style="overflow:visible;"/>
	</clipPath>
	<path class="st4" d="M117,186.6c0,0,2.5-5.4,7-8.9c2-1.6,5-1.2,8.4-2c4.8-1.1,5.9-2.2,5.9-2.2s2.9,2.6-0.9,5.8
		c-2.2,1.9-8.8,6.4-13.6,7.7C120.4,188,117,186.6,117,186.6"/>
	<path class="st5" d="M117,186.6c0,0,2.5-5.4,7-8.9c2-1.6,5-1.2,8.4-2c4.8-1.1,5.9-2.2,5.9-2.2s2.9,2.6-0.9,5.8
		c-2.2,1.9-8.8,6.4-13.6,7.7C120.4,188,117,186.6,117,186.6z"/>
	<path class="st4" d="M98.2,189l19.7-2.5c0,0,3.9-4,9-5.5c10.2-2.9,30.6-6,30.6-6c5.3-1.1,7.5,2.2,1.8,4.3l-13.2,4.1
		c1.3,1.7,1.5,3.5,0.6,5.3c1.2,1.8,1.3,3.3-0.3,5.8c1.3-0.6,1.9,4.9-1.3,6.2c-4.1,1.6-16.5,3.9-22.6,2.1c-1.3-0.4-2.6-3-2.6-3
		l-20,2.7L98.2,189z"/>
	<path class="st5" d="M98.2,189l19.7-2.5c0,0,3.9-4,9-5.5c10.2-2.9,30.6-6,30.6-6c5.3-1.1,7.5,2.2,1.8,4.3l-13.2,4.1
		c1.3,1.7,1.5,3.5,0.6,5.3c1.2,1.8,1.3,3.3-0.3,5.8c1.3-0.6,1.9,4.9-1.3,6.2c-4.1,1.6-16.5,3.9-22.6,2.1c-1.3-0.4-2.6-3-2.6-3
		l-20,2.7L98.2,189z"/>
	<polyline class="st5" points="141.5,190.4 144.4,190.1 146.5,188.6 	"/>
	<line class="st5" x1="142" y1="184.5" x2="146.3" y2="183.5"/>
	<polyline class="st5" points="141.4,196.1 144.2,195.9 146.4,194.4 	"/>
	<path class="st4" d="M80,95.8l-4.2,10.2c0,0-19.9,2.5-30.3,22c-7.4,13.8-8.8,32.9-11.1,60.8c-1.5,18.2,6.1,19.7,6.1,19.7
		c-1,16-2,32.2-3,48.7c30,5.7,52.7,4,71.9,0.3l0.7-53.8l3.7-0.4l-1.6-21l-2.8,0.3c0,0-0.8-43.6-2.4-51.8
		c-2.4-11.8-13.2-17.3-13.2-17.3l1.8-6.8c0,0,8.6,6.9,14.1,7.5s9.2-1.3,12.5-6.5c3.2-5.2,9-17.8,9-17.8s4,1.3,5.7-0.9
		c1.8-2.2-2.2-7.2-2.4-12.1c-0.2-4.9,1.6-24.2,1.6-24.2s-3.1-4.3-11.5-4.5C116.3,48.4,97,67.8,97,67.8s-10.9-7.7-12.4,2
		c-1.5,9.7-0.3,11.8-0.3,11.8C82.1,85.6,80.8,90.5,80,95.8"/>
</g>
<g>
	<defs>
		<path id="SVGID_3_" d="M97,67.8c0,0-10.9-7.7-12.4,2c-1.5,9.7-0.3,11.8-0.3,11.8c-2.2,4-3.5,8.9-4.3,14.3l-4.2,10.2
			c0,0-19.9,2.5-30.3,22c-7.4,13.8-8.8,32.9-11.1,60.8c-1.5,18.2,6.1,19.7,6.1,19.7c-1,16-2,32.2-3,48.7c30,5.7,52.7,4,71.9,0.3
			l0.7-53.8l3.7-0.4l-1.6-21l-2.8,0.3c0,0-0.8-43.6-2.4-51.8c-2.4-11.8-13.2-17.3-13.2-17.3l1.8-6.8c0,0,8.6,6.9,14.1,7.5
			c5.5,0.6,9.2-1.3,12.5-6.5c3.2-5.2,9-17.8,9-17.8s4,1.3,5.7-0.9c1.8-2.2-2.2-7.2-2.4-12.1c-0.2-4.9,1.6-24.2,1.6-24.2
			s-3.1-4.3-11.5-4.5c0,0-0.1,0-0.1,0C116.2,48.5,97,67.8,97,67.8"/>
	</defs>
	<clipPath id="SVGID_4_">
		<use xlink:href="#SVGID_3_"  style="overflow:visible;"/>
	</clipPath>
	<path class="st6" d="M73.7,106.3c0.1,10.9,25,24.1,22.7,8.2l1.1-3.7c0,0,12.5,11.4,19.6,8c7.1-3.5,16.1-25,16.1-25s7.5-0.6,8.5-6
		c1-5.3-4-16.1-4-16.1s4.3-1.9,5.3-12c1-10.1-2.3-19.3-9.5-22.5c-7.2-3.3-13.8-3.4-13.8-3.4s-14.5-8.5-19.2-7.8
		c-4.7,0.7-6.8,2.2-6.8,2.2S75.2,28,71.4,34.3c-3.8,6.4-4.4,8.4-4.4,8.4s-8.4,1.6-8.6,15.4c-0.3,13.8,4.1,32.3,7.9,34.9
		c3.8,2.6,6.3,4.2,6.3,4.2L73.7,106.3z"/>
</g>
<g>
	<defs>
		<rect id="SVGID_5_" width="283.5" height="283.5"/>
	</defs>
	<clipPath id="SVGID_6_">
		<use xlink:href="#SVGID_5_"  style="overflow:visible;"/>
	</clipPath>
	<path class="st7" d="M80,95.8l-4.2,10.2c0,0-19.9,2.5-30.3,22c-7.4,13.8-8.8,32.9-11.1,60.8c-1.5,18.2,6.1,19.7,6.1,19.7
		c-1,16-2,32.2-3,48.7c30,5.7,52.7,4,71.9,0.3l0.7-53.8l3.7-0.4l-1.6-21l-2.8,0.3c0,0-0.8-43.6-2.4-51.8
		c-2.4-11.8-13.2-17.3-13.2-17.3l1.8-6.8c0,0,8.6,6.9,14.1,7.5s9.2-1.3,12.5-6.5c3.2-5.2,9-17.8,9-17.8s4,1.3,5.7-0.9
		c1.8-2.2-2.2-7.2-2.4-12.1c-0.2-4.9,1.6-24.2,1.6-24.2s-3.1-4.3-11.5-4.5C116.3,48.4,97,67.8,97,67.8s-10.9-7.7-12.4,2
		c-1.5,9.7-0.3,11.8-0.3,11.8C82.1,85.6,80.8,90.5,80,95.8z"/>
	<path class="st7" d="M91.5,116.4c1.4-0.5,2.2-1.6,2.5-3.1"/>
	<path class="st7" d="M67.9,136.3c-0.8,3.9-2.7,6.9-5,9.4"/>
	<path class="st7" d="M104.7,137.6c1,13.6,0.8,29.2,0.9,45.2"/>
	<path class="st7" d="M107.2,203.9c1.2,9,2.2,27.5,2.3,43.5"/>
	<path class="st7" d="M62.6,132.1c1.1,7.8,0.1,21.6-6.2,55"/>
	<path class="st7" d="M48.8,187.3c2.4-0.1,4.7-0.5,7.5,0.1"/>
	<path class="st7" d="M40.4,208.5c4.8,3.3,37.4-0.3,69.1-4.6"/>
	<path class="st7" d="M49.5,189.8c4.7-2.7,35.7-3.7,60-7"/>
	<path class="st7" d="M117.5,100c1.9,1.2,4.6,2.3,7.1,3.4"/>
	<polygon class="st8" points="95.9,107.7 95.5,107.5 95.5,107.5 95.4,107.4 95.3,107.3 95.2,107.2 95.1,107.1 94.9,107 94.8,106.9 
		94.7,106.8 94.6,106.7 94.5,106.6 94.4,106.5 94.3,106.4 94.2,106.3 94.2,106.2 94.1,106.1 94,106 94,106 93.9,105.9 93.9,105.9 
		93.9,105.8 93.8,105.8 93.8,105.8 93.7,105.7 93.7,105.7 93.6,105.6 93.6,105.6 93.6,105.5 93.5,105.5 93.5,105.4 93.5,105.4 
		93.4,105.3 93.4,105.3 93.3,105.3 93.3,105.2 93.3,105.2 93.2,105.1 93.2,105.1 93.2,105 93.1,105 93.1,104.9 93.1,104.9 93,104.8 
		93,104.8 93,104.8 92.9,104.7 92.9,104.7 92.9,104.6 92.8,104.6 92.8,104.5 92.8,104.5 92.7,104.4 92.7,104.4 92.7,104.3 
		92.6,104.3 92.6,104.2 92.6,104.2 92.5,104.2 92.5,104.1 92.5,104.1 92.4,104 92.4,104 92.4,103.9 92.3,103.9 92.3,103.8 
		92.3,103.8 92.3,103.7 92.2,103.7 92.2,103.6 92.1,103.5 92,103.4 92,103.2 91.9,103.1 91.9,103 91.8,102.9 91.7,102.8 91.7,102.7 
		91.6,102.6 91.5,102.4 91.5,102.3 91.4,102.2 91.3,102.1 91.3,101.9 91.2,101.8 91.1,101.7 91,101.5 91,101.4 90.9,101.2 
		90.7,100.9 90.6,100.6 90.7,100.2 91.2,100.3 91.3,100.6 91.5,100.9 91.6,101.1 91.7,101.2 91.7,101.3 91.8,101.5 91.9,101.6 
		92,101.7 92,101.8 92.1,102 92.2,102.1 92.3,102.2 92.3,102.3 92.4,102.4 92.5,102.5 92.5,102.6 92.6,102.7 92.7,102.8 92.7,102.9 
		92.8,103 92.8,103.1 92.9,103.2 92.9,103.3 93,103.3 93,103.4 93,103.4 93.1,103.4 93.1,103.5 93.1,103.5 93.2,103.6 93.2,103.6 
		93.2,103.7 93.3,103.7 93.3,103.8 93.3,103.8 93.4,103.8 93.4,103.9 93.4,103.9 93.5,104 93.5,104 93.5,104 93.6,104.1 93.6,104.1 
		93.6,104.2 93.7,104.2 93.7,104.3 93.7,104.3 93.8,104.3 93.8,104.4 93.8,104.4 93.9,104.5 93.9,104.5 93.9,104.5 94,104.6 
		94,104.6 94,104.7 94.1,104.7 94.1,104.7 94.1,104.8 94.2,104.8 94.2,104.9 94.3,104.9 94.3,104.9 94.3,105 94.4,105 94.4,105.1 
		94.5,105.1 94.5,105.2 94.5,105.2 94.6,105.2 94.6,105.3 94.7,105.3 94.7,105.4 94.8,105.4 94.8,105.5 94.9,105.6 95,105.7 
		95.1,105.8 95.2,105.9 95.3,105.9 95.4,106 95.5,106.1 95.6,106.2 95.8,106.3 95.9,106.4 96,106.5 96.1,106.6 96.2,106.8 
		96.2,106.8 96.4,107.1 96.3,107.5 96.3,107.5 96.3,107.5 	"/>
	<path class="st9" d="M135.8,68.5c-1.3-8.8-4-13.6-7.3-16.9c-6.9,4.3-8.5,8.4-15.7,7.6c-0.1,3.9-2.1,5.6-6.5,4.3
		c-0.9,5.8-4.2,9.1-9.8,10c-0.9-9.3-14.4-5.1-7.6,7.7c1,0.4-5.8,14.9-8.5,14.5c-1.9-0.3-3.7-0.1-5.1,0c-3.8,0.3-7-3.9-9.4-9.8
		c-7.2-17.7-5.7-35.2,1.5-39.4c3.7-7.8,9.1-12.7,16.4-14.3c4.9-1,9.3-1.4,12.8-0.5c3.9-2.8,11.2-0.6,21,5c4.2,1.3,8.4,0.9,11.7,2.5
		C136.3,42.6,145.4,54.5,135.8,68.5"/>
	<path class="st7" d="M135.8,68.5c-1.3-8.8-4-13.6-7.3-16.9c-6.9,4.3-8.5,8.4-15.7,7.6c-0.1,3.9-2.1,5.6-6.5,4.3
		c-0.9,5.8-4.2,9.1-9.8,10c-0.9-9.3-14.4-5.1-7.6,7.7c1,0.4-5.8,14.9-8.5,14.5c-1.9-0.3-3.7-0.1-5.1,0c-3.8,0.3-7-3.9-9.4-9.8
		c-7.2-17.7-5.7-35.2,1.5-39.4c3.7-7.8,9.1-12.7,16.4-14.3c4.9-1,9.3-1.4,12.8-0.5c3.9-2.8,11.2-0.6,21,5c4.2,1.3,8.4,0.9,11.7,2.5
		C136.3,42.6,145.4,54.5,135.8,68.5z"/>
	<polygon class="st8" points="92.2,72.7 92.3,72.7 92.3,72.7 92.3,72.7 92.3,72.7 92.3,72.7 92.4,72.7 92.4,72.7 92.4,72.7 
		92.4,72.7 92.5,72.7 92.5,72.7 92.5,72.7 92.5,72.7 92.6,72.7 92.6,72.7 92.6,72.7 92.6,72.8 92.7,72.8 92.7,72.8 92.7,72.8 
		92.7,72.8 92.7,72.8 92.8,72.8 92.8,72.8 92.8,72.8 92.8,72.8 92.9,72.8 92.9,72.9 92.9,72.9 92.9,72.9 92.9,72.9 93,72.9 93,72.9 
		93,72.9 93,72.9 93.1,73 93.1,73 93.1,73 93.1,73 93.1,73 93.2,73 93.2,73.1 93.2,73.1 93.2,73.1 93.2,73.1 93.3,73.1 93.3,73.1 
		93.3,73.2 93.3,73.2 93.3,73.2 93.4,73.2 93.4,73.2 93.4,73.3 93.4,73.3 93.4,73.3 93.5,73.3 93.5,73.4 93.5,73.4 93.5,73.4 
		93.5,73.4 93.5,73.4 93.6,73.5 93.6,73.5 93.6,73.5 93.6,73.5 93.6,73.6 93.6,73.6 93.7,73.6 93.7,73.6 93.7,73.7 93.7,73.7 
		93.7,73.7 93.7,73.8 93.8,73.8 93.8,73.8 93.8,73.8 93.8,73.9 93.8,73.9 93.8,73.9 93.9,74 93.9,74 93.9,74 93.9,74.1 93.9,74.1 
		93.9,74.1 93.9,74.2 94,74.2 94,74.2 94,74.3 94,74.3 94,74.3 94,74.4 94,74.4 94,74.4 94.1,74.5 94.1,74.5 94.1,74.5 94.1,74.6 
		94.1,74.6 94.1,74.7 94.1,74.7 94.1,74.7 94.1,74.8 94.2,74.8 94.2,74.9 94.2,74.9 94.2,74.9 94.2,75 94.2,75 94.2,75.1 94.2,75.1 
		94.2,75.2 94.2,75.2 94.3,75.2 94.3,75.3 94.3,75.3 94.3,75.4 94.3,75.4 94.3,75.5 94.3,75.5 94.3,75.6 94.3,75.6 94.3,75.7 
		94.3,75.7 94.3,75.8 94.3,75.8 94.4,75.9 94.4,75.9 94.4,76 94.4,76 94.4,76.1 94.4,76.1 94.3,76.3 94,76.5 94,76.5 94,76.5 
		93.7,76.4 93.6,76.1 93.6,76.1 93.6,76.1 93.6,76 93.6,76 93.6,75.9 93.6,75.9 93.6,75.9 93.6,75.8 93.6,75.8 93.5,75.7 93.5,75.7 
		93.5,75.6 93.5,75.6 93.5,75.5 93.5,75.5 93.5,75.5 93.5,75.4 93.5,75.4 93.5,75.3 93.5,75.3 93.5,75.3 93.5,75.2 93.5,75.2 
		93.5,75.2 93.4,75.1 93.4,75.1 93.4,75 93.4,75 93.4,75 93.4,74.9 93.4,74.9 93.4,74.9 93.4,74.8 93.4,74.8 93.4,74.8 93.3,74.7 
		93.3,74.7 93.3,74.7 93.3,74.6 93.3,74.6 93.3,74.6 93.3,74.5 93.3,74.5 93.3,74.5 93.3,74.5 93.2,74.4 93.2,74.4 93.2,74.4 
		93.2,74.4 93.2,74.3 93.2,74.3 93.2,74.3 93.2,74.3 93.2,74.2 93.1,74.2 93.1,74.2 93.1,74.2 93.1,74.1 93.1,74.1 93.1,74.1 
		93.1,74.1 93.1,74 93.1,74 93,74 93,74 93,74 93,73.9 93,73.9 93,73.9 93,73.9 93,73.9 92.9,73.9 92.9,73.8 92.9,73.8 92.9,73.8 
		92.9,73.8 92.9,73.8 92.9,73.8 92.9,73.7 92.8,73.7 92.8,73.7 92.8,73.7 92.8,73.7 92.8,73.7 92.8,73.7 92.8,73.7 92.8,73.6 
		92.7,73.6 92.7,73.6 92.7,73.6 92.7,73.6 92.7,73.6 92.7,73.6 92.7,73.6 92.7,73.6 92.6,73.5 92.6,73.5 92.6,73.5 92.6,73.5 
		92.6,73.5 92.6,73.5 92.6,73.5 92.6,73.5 92.6,73.5 92.5,73.5 92.5,73.5 92.5,73.5 92.5,73.5 92.5,73.5 92.5,73.4 92.5,73.4 
		92.5,73.4 92.4,73.4 92.4,73.4 92.4,73.4 92.4,73.4 92.4,73.4 92.4,73.4 92.4,73.4 92.4,73.4 92.3,73.4 92.3,73.4 92.3,73.4 
		92.3,73.4 92.3,73.4 92.3,73.4 92.3,73.4 92.3,73.4 92.2,73.4 92.2,73.4 92.2,73.4 92.2,73.4 92.2,73.4 92.2,73.4 92.2,73.4 
		92.2,73.4 92.1,73.4 92.1,73.4 92.1,73.4 92.1,73.4 92.1,73.4 92.1,73.4 92.1,73.4 92.1,73.4 92,73.4 92,73.4 92,73.4 92,73.4 
		92,73.4 92,73.4 92,73.4 92,73.4 91.9,73.4 91.9,73.4 91.9,73.4 91.9,73.4 91.9,73.4 91.9,73.4 91.9,73.4 91.8,73.5 91.8,73.5 
		91.8,73.5 91.8,73.5 91.8,73.5 91.8,73.5 91.8,73.5 91.7,73.5 91.7,73.5 91.7,73.5 91.7,73.5 91.7,73.5 91.7,73.5 91.7,73.5 
		91.7,73.6 91.6,73.6 91.6,73.6 91.6,73.6 91.6,73.6 91.6,73.6 91.6,73.6 91.6,73.6 91.5,73.6 91.5,73.6 91.5,73.6 91.5,73.7 
		91.5,73.7 91.5,73.7 91.5,73.7 91.4,73.7 91.4,73.7 91.4,73.7 91.4,73.7 91.4,73.8 91.4,73.8 91.4,73.8 91.3,73.8 91.3,73.8 
		91.3,73.8 91.3,73.8 91.3,73.8 91.3,73.9 91.3,73.9 91.2,73.9 91.2,73.9 91.2,73.9 91.2,73.9 91.2,74 91.2,74 91.2,74 91.2,74 
		91.1,74 91.1,74 91.1,74 91.1,74.1 91.1,74.1 91.1,74.1 91.1,74.1 91.1,74.1 91,74.2 91,74.2 91,74.2 91,74.2 91,74.2 91,74.2 
		91,74.3 91,74.3 90.9,74.3 90.9,74.3 90.9,74.3 90.9,74.4 90.9,74.4 90.9,74.4 90.9,74.4 90.9,74.4 90.9,74.5 90.8,74.5 90.8,74.5 
		90.8,74.5 90.8,74.5 90.8,74.6 90.8,74.6 90.8,74.6 90.8,74.6 90.8,74.7 90.8,74.7 90.7,74.7 90.7,74.7 90.7,74.7 90.7,74.8 
		90.7,74.8 90.7,74.8 90.7,74.8 90.7,74.9 90.7,74.9 90.7,74.9 90.7,74.9 90.7,75 90.6,75 90.6,75 90.6,75 90.6,75 90.6,75.1 
		90.6,75.1 90.6,75.1 90.6,75.1 90.6,75.1 90.6,75.2 90.6,75.2 90.6,75.2 90.6,75.2 90.6,75.3 90.6,75.3 90.6,75.3 90.6,75.3 
		90.6,75.3 90.6,75.4 90.6,75.4 90.5,75.4 90.5,75.4 90.5,75.5 90.5,75.5 90.5,75.5 90.5,75.5 90.5,75.6 90.5,75.6 90.5,75.6 
		90.5,75.6 90.5,75.7 90.5,75.7 90.5,75.7 90.5,75.8 90.5,75.8 90.5,75.9 90.5,75.9 90.5,76 90.5,76 90.5,76.1 90.5,76.1 90.5,76.2 
		90.5,76.2 90.5,76.3 90.5,76.4 90.5,76.4 90.6,76.5 90.6,76.5 90.6,76.6 90.6,76.6 90.6,76.7 90.6,76.7 90.6,76.8 90.6,76.8 
		90.6,76.9 90.6,77 90.7,77 90.7,77.1 90.7,77.1 90.7,77.2 90.7,77.2 90.7,77.3 90.8,77.3 90.8,77.4 90.8,77.5 90.8,77.5 90.8,77.6 
		90.9,77.6 90.9,77.7 90.9,77.7 90.9,77.8 91,77.9 91,77.9 91,78 91,78 91.1,78.1 91.1,78.1 91.1,78.2 91.1,78.2 91.2,78.3 
		91.2,78.3 91.2,78.4 91.2,78.4 91.3,78.4 91.3,78.5 91.3,78.5 91.3,78.5 91.3,78.5 91.3,78.6 91.4,78.6 91.4,78.6 91.4,78.6 
		91.4,78.7 91.4,78.7 91.4,78.7 91.5,78.7 91.5,78.8 91.5,78.8 91.5,78.8 91.5,78.8 91.6,78.9 91.6,78.9 91.6,78.9 91.6,78.9 
		91.6,79 91.7,79 91.7,79 91.7,79 91.7,79.1 91.7,79.1 91.8,79.1 91.8,79.1 91.8,79.2 91.8,79.2 91.8,79.2 91.9,79.2 91.9,79.3 
		91.9,79.3 91.9,79.3 91.9,79.3 92,79.4 92,79.4 92,79.4 92,79.4 92.1,79.4 92.1,79.5 92.1,79.5 92.1,79.5 92.2,79.5 92.2,79.6 
		92.2,79.6 92.2,79.6 92.3,79.6 92.3,79.6 92.3,79.7 92.3,79.7 92.4,79.7 92.4,79.7 92.4,79.8 92.4,79.8 92.5,79.8 92.5,79.8 
		92.5,79.8 92.5,79.9 92.6,79.9 92.6,79.9 92.6,79.9 92.6,79.9 92.7,80 92.7,80 92.7,80 92.7,80 92.8,80 92.8,80 92.8,80.1 
		92.9,80.1 92.9,80.1 92.9,80.1 92.9,80.1 93,80.1 93,80.2 93,80.2 93.1,80.2 93.1,80.2 93.1,80.2 93.2,80.2 93.2,80.3 93.2,80.3 
		93.2,80.3 93.3,80.3 93.3,80.3 93.3,80.3 93.4,80.4 93.4,80.4 93.4,80.4 93.5,80.4 93.5,80.4 93.5,80.4 93.6,80.4 93.6,80.5 
		93.6,80.5 93.7,80.5 93.7,80.5 93.7,80.5 93.8,80.5 93.8,80.5 93.8,80.5 93.9,80.6 93.9,80.6 93.9,80.6 94,80.6 94,80.6 94,80.6 
		94.1,80.6 94.1,80.6 94.1,80.6 94.2,80.6 94.2,80.7 94.2,80.7 94.3,80.7 94.3,80.7 94.4,80.7 94.4,80.7 94.4,80.7 94.5,80.7 
		94.5,80.7 94.5,80.7 94.7,81 94.5,81.1 94.4,81.1 94.4,81.1 94.4,81.1 94.3,81.1 94.3,81.1 94.2,81.1 94.2,81.1 94.2,81.1 
		94.1,81.1 94.1,81.1 94,81.1 94,81 94,81 93.9,81 93.9,81 93.8,81 93.8,81 93.8,81 93.7,81 93.7,81 93.7,80.9 93.6,80.9 93.6,80.9 
		93.5,80.9 93.5,80.9 93.5,80.9 93.4,80.9 93.4,80.9 93.4,80.8 93.3,80.8 93.3,80.8 93.3,80.8 93.2,80.8 93.2,80.8 93.2,80.8 
		93.1,80.7 93.1,80.7 93,80.7 93,80.7 93,80.7 92.9,80.7 92.9,80.6 92.9,80.6 92.8,80.6 92.8,80.6 92.8,80.6 92.7,80.6 92.7,80.5 
		92.7,80.5 92.7,80.5 92.6,80.5 92.6,80.5 92.6,80.4 92.5,80.4 92.5,80.4 92.5,80.4 92.4,80.4 92.4,80.3 92.4,80.3 92.3,80.3 
		92.3,80.3 92.3,80.3 92.2,80.2 92.2,80.2 92.2,80.2 92.2,80.2 92.1,80.2 92.1,80.1 92.1,80.1 92,80.1 92,80.1 92,80 92,80 91.9,80 
		91.9,80 91.9,79.9 91.9,79.9 91.8,79.9 91.8,79.9 91.8,79.9 91.7,79.8 91.7,79.8 91.7,79.8 91.7,79.8 91.6,79.7 91.6,79.7 
		91.6,79.7 91.6,79.7 91.5,79.6 91.5,79.6 91.5,79.6 91.5,79.6 91.4,79.5 91.4,79.5 91.4,79.5 91.4,79.5 91.3,79.4 91.3,79.4 
		91.3,79.4 91.3,79.3 91.3,79.3 91.2,79.3 91.2,79.3 91.2,79.2 91.2,79.2 91.1,79.2 91.1,79.2 91.1,79.1 91.1,79.1 91.1,79.1 91,79 
		91,79 91,79 91,79 91,78.9 90.9,78.9 90.9,78.9 90.9,78.8 90.9,78.8 90.9,78.8 90.8,78.8 90.8,78.7 90.8,78.7 90.8,78.7 90.8,78.6 
		90.8,78.6 90.7,78.6 90.7,78.5 90.6,78.4 90.6,78.4 90.6,78.3 90.6,78.3 90.5,78.2 90.5,78.1 90.5,78.1 90.4,78 90.4,78 90.4,77.9 
		90.4,77.8 90.3,77.8 90.3,77.7 90.3,77.7 90.3,77.6 90.2,77.5 90.2,77.5 90.2,77.4 90.2,77.3 90.1,77.3 90.1,77.2 90.1,77.2 
		90.1,77.1 90.1,77 90.1,77 90,76.9 90,76.9 90,76.8 90,76.7 90,76.7 90,76.6 90,76.5 90,76.5 90,76.4 89.9,76.4 89.9,76.3 
		89.9,76.2 89.9,76.2 89.9,76.1 89.9,76.1 89.9,76 89.9,75.9 89.9,75.9 89.9,75.8 89.9,75.8 89.9,75.7 89.9,75.6 89.9,75.6 
		89.9,75.6 89.9,75.6 89.9,75.5 89.9,75.5 89.9,75.5 89.9,75.4 89.9,75.4 89.9,75.4 89.9,75.4 89.9,75.3 89.9,75.3 89.9,75.3 
		90,75.3 90,75.2 90,75.2 90,75.2 90,75.1 90,75.1 90,75.1 90,75.1 90,75 90,75 90,75 90,75 90,74.9 90,74.9 90,74.9 90,74.8 
		90,74.8 90,74.8 90.1,74.8 90.1,74.7 90.1,74.7 90.1,74.7 90.1,74.7 90.1,74.6 90.1,74.6 90.1,74.6 90.1,74.5 90.1,74.5 90.1,74.5 
		90.2,74.5 90.2,74.4 90.2,74.4 90.2,74.4 90.2,74.4 90.2,74.3 90.2,74.3 90.2,74.3 90.2,74.3 90.3,74.2 90.3,74.2 90.3,74.2 
		90.3,74.1 90.3,74.1 90.3,74.1 90.3,74.1 90.3,74 90.4,74 90.4,74 90.4,74 90.4,74 90.4,73.9 90.4,73.9 90.4,73.9 90.5,73.9 
		90.5,73.8 90.5,73.8 90.5,73.8 90.5,73.8 90.5,73.7 90.5,73.7 90.6,73.7 90.6,73.7 90.6,73.7 90.6,73.6 90.6,73.6 90.6,73.6 
		90.7,73.6 90.7,73.6 90.7,73.5 90.7,73.5 90.7,73.5 90.7,73.5 90.8,73.5 90.8,73.4 90.8,73.4 90.8,73.4 90.8,73.4 90.8,73.4 
		90.9,73.3 90.9,73.3 90.9,73.3 90.9,73.3 90.9,73.3 90.9,73.3 91,73.2 91,73.2 91,73.2 91,73.2 91,73.2 91.1,73.2 91.1,73.1 
		91.1,73.1 91.1,73.1 91.1,73.1 91.2,73.1 91.2,73.1 91.2,73 91.2,73 91.2,73 91.3,73 91.3,73 91.3,73 91.3,73 91.3,73 91.4,72.9 
		91.4,72.9 91.4,72.9 91.4,72.9 91.4,72.9 91.5,72.9 91.5,72.9 91.5,72.9 91.5,72.9 91.5,72.8 91.6,72.8 91.6,72.8 91.6,72.8 
		91.6,72.8 91.7,72.8 91.7,72.8 91.7,72.8 91.7,72.8 91.7,72.8 91.8,72.8 91.8,72.8 91.8,72.7 91.8,72.7 91.9,72.7 91.9,72.7 
		91.9,72.7 91.9,72.7 91.9,72.7 92,72.7 92,72.7 92,72.7 92,72.7 92.1,72.7 92.1,72.7 92.1,72.7 92.1,72.7 92.2,72.7 92.2,72.7 
		92.2,72.7 	"/>
	<path class="st7" d="M68.1,54.7c-0.8-2.6-0.8-5.8-0.2-8.6"/>
	<path class="st7" d="M96.7,47.9c3.6-4.9,12.1-9.3,23.3-10.3"/>
	<path class="st7" d="M100.5,37.8c4.2-1.6,10.3-2.3,17.1-0.5"/>
	<path class="st7" d="M115.4,72.3c4.4-2,8.7-2.1,12.4-0.5"/>
</g>
<g>
	<defs>
		<path id="SVGID_7_" d="M116.9,78c2.8,1.5,5.3,2.3,8.2,2.6c0.8-1.6,2-4.1,0.6-4.7c-0.6-0.3-1.8-0.4-3.2-0.4
			C120.1,75.5,117.2,76.1,116.9,78"/>
	</defs>
	<clipPath id="SVGID_8_">
		<use xlink:href="#SVGID_7_"  style="overflow:visible;"/>
	</clipPath>
	<path class="st10" d="M124.7,77.6c-1.2-0.4-2.5,0.3-2.8,1.4c-0.3,1.1,0.4,2.4,1.6,2.7c1.2,0.4,2.5-0.3,2.8-1.4
		C126.6,79.2,125.9,78,124.7,77.6"/>
	<path class="st11" d="M125,78.6c-0.2-0.1-0.5,0.1-0.5,0.3c-0.1,0.2,0.1,0.4,0.3,0.5c0.2,0.1,0.5-0.1,0.5-0.3
		C125.4,78.9,125.2,78.7,125,78.6"/>
</g>
<g>
	<defs>
		<rect id="SVGID_9_" width="283.5" height="283.5"/>
	</defs>
	<clipPath id="SVGID_10_">
		<use xlink:href="#SVGID_9_"  style="overflow:visible;"/>
	</clipPath>
	<path class="st12" d="M116.9,78c2.8,1.5,5.3,2.3,8.2,2.6c0.8-1.6,2-4.1,0.6-4.7C123.9,75.2,117.3,75.1,116.9,78z"/>
	<path class="st12" d="M127.5,86.1c-0.4,1.7,0.7,2.9,1.9,3.4"/>
	<path class="st12" d="M88.6,80.4c0,0,2.3,3.8,3.9,4.6c2,1.1,3.2-0.5,3.2-0.5"/>
	<path class="st12" d="M118.1,192.2c-0.6,2.7,1,6.9,2.3,8.6"/>
</g>
</svg>
