<?xml version="1.0" encoding="utf-8"?>
<!-- Generator: Adobe Illustrator 23.1.0, SVG Export Plug-In . SVG Version: 6.00 Build 0)  -->
<svg version="1.1" id="Слой_1" xmlns="http://www.w3.org/2000/svg" xmlns:xlink="http://www.w3.org/1999/xlink" x="0px" y="0px"
	 viewBox="0 0 283.5 283.5" style="enable-background:new 0 0 283.5 283.5;" xml:space="preserve">
<style type="text/css">
	.st0{fill:#F48026;}
	.st1{fill:#FFDEA8;}
	.st2{fill:#8EC757;}
	.st3{fill:#AD65A8;}
	.st4{fill:#FFDC4D;}
	.st5{fill:#FFFFFF;}
	.st6{fill:#231F20;}
</style>
<g>
	<path d="M197.1,73.1l9.7,0.2c0.6,1.1,3,5.4,6.3,8.5c3.6,3.3,7,9.1,6.7,14.8c-0.1,1.5-0.3,2.8-0.4,3.9c-0.3,2-0.5,3.4,0.3,4.2
		c0.5,0.5,1.2,0.8,2.4,0.8c4,0,8-6.1,8-10.6c0-3.5-1.2-9.3-1.6-11.1l1.8-0.4c0.8,0.7,3.9,2.9,10.2,3.1c5.4,0.2,8.7-1.2,10-4.3
		c0.5-1.4,0-4.3-0.2-5.2c0.5-0.6,1.9-2.6,1.7-5.4c-0.2-2.5-1-4.2-1.3-4.8c0.3-0.6,1-2,0.8-4.6c-0.2-3.2-2-4.7-2.9-5.3
		c0.5-0.9,1.4-2.7,0.6-4.6c-1.8-4.2-5.8-5.4-11.3-6h-0.4c-2.1-0.2-5.3-0.6-9-0.6c-2.5,0-5.3,0.2-8.2,0.6c-4.8,0.8-8.8,3.2-9.5,3.7
		l-11.5-0.2l0,0c-0.3,0-0.5,0.2-0.5,0.5s0.2,0.5,0.5,0.5l10.4,0.2c-1.3,1.5-1.5,3.4-1.5,3.5c0,0.3,0.2,0.5,0.5,0.6
		c0.3,0,0.5-0.2,0.6-0.5c0,0,0.3-2.4,2.1-3.7c0.1-0.1,4.3-2.8,9.3-3.6c7-1.2,13.5-0.4,17,0h0.4c5.1,0.6,8.9,1.7,10.5,5.4
		c0.6,1.5-0.1,3-0.5,3.7c-0.8-0.5-2.9-1.4-6.6-1.4c-0.9,0-2,0.1-3.1,0.2c-0.3,0-0.5,0.3-0.4,0.6c0,0.3,0.3,0.5,0.6,0.4
		c6.8-0.8,9.3,1.3,9.4,1.3h0.1c0,0,0,0,0,0.1c0.1,0,2.6,1.1,2.8,4.7c0.1,1.8-0.1,2.9-0.4,3.5c-0.9-1.2-3.5-3-10.3-3.2l0,0
		c-0.3,0-0.5,0.2-0.5,0.5s0.2,0.5,0.5,0.5c8.8,0.3,9.8,3.3,9.9,3.4c0,0,0,0,0,0.1v0.1c0,0,1.1,1.7,1.4,4.6c0.2,2.1-0.7,3.6-1.2,4.3
		c-1-1.1-4.1-3.8-10.9-4.3l0,0c-0.3,0-0.5,0.2-0.5,0.5s0.2,0.5,0.5,0.5c7.6,0.5,10.2,3.9,10.5,4.3c0.2,1.1,0.7,3.7,0.3,4.8
		c-0.4,0.9-1,1.6-1.8,2.1c0,0,0-0.1-0.1-0.1c-3.8-2.3-7.4-3-10.3-3c-4,0-6.7,1.3-7.1,1.5l-2.5,0.6c-0.1,0-0.2,0.1-0.3,0.2
		s-0.1,0.3-0.1,0.4s1.7,7.5,1.7,11.4s-3.7,9.5-7,9.5c-0.8,0-1.3-0.1-1.6-0.4c-0.4-0.5-0.3-1.7,0-3.4c0.1-1.1,0.3-2.4,0.4-4
		c0.3-6-3.3-12.2-7.1-15.6c-3.6-3.3-6.2-8.4-6.2-8.5c-0.1-0.2-0.3-0.3-0.4-0.3l-10-0.2c-0.3,0-0.5,0.2-0.5,0.5
		C196.6,72.9,196.8,73.1,197.1,73.1z M246.7,84.6c-1.5,0.7-3.6,1.1-6.2,1c-5.1-0.2-7.9-1.7-9.1-2.5
		C233.5,82.2,239.6,80.6,246.7,84.6z"/>
	<path d="M232.7,75.9c-0.2,0.2-0.3,0.5-0.1,0.7s0.5,0.3,0.7,0.1c0.7-0.5,1.9-1.9,1.1-4c-0.1-0.2-0.3-0.3-0.5-0.3c-0.1,0-0.1,0-0.2,0
		c-0.3,0.1-0.4,0.4-0.3,0.7C234,74.9,232.7,75.8,232.7,75.9z"/>
	<path d="M233.5,64.6c-0.1,0-0.1,0-0.2,0c-0.3,0.1-0.4,0.4-0.3,0.7c0.7,1.9-0.6,2.8-0.7,2.8c-0.2,0.2-0.3,0.5-0.1,0.7
		s0.5,0.3,0.7,0.1c0.7-0.5,1.8-1.9,1.1-4C233.9,64.7,233.7,64.6,233.5,64.6z"/>
	<path d="M232.1,60.4c-0.2,0.2-0.3,0.5-0.1,0.7s0.5,0.3,0.7,0.1c0.7-0.5,1.8-1.9,1.1-4c-0.1-0.2-0.3-0.3-0.5-0.3c-0.1,0-0.1,0-0.2,0
		c-0.3,0.1-0.4,0.4-0.3,0.7C233.5,59.4,232.2,60.3,232.1,60.4z"/>
</g>
<path d="M184.3,137c-0.4-0.4-1.1-0.3-1.4,0.1l-2.4,2.7c3.8-11.8,3.3-21.9,2.1-28.3c-0.9-4.8-2.2-8.3-3.1-10.2l3.2,2.9
	c0.4,0.4,1.1,0.3,1.4-0.1c0.4-0.4,0.3-1.1-0.1-1.4l-6.5-5.8c-0.3-0.3-0.7-0.3-1-0.2c-0.4,0.1-0.6,0.5-0.6,0.9l-0.7,8.4
	c0,0.6,0.4,1,0.9,1.1h0.1c0.5,0,1-0.4,1-0.9l0.3-4.2c1.9,4.2,7,18.5,1,37.2l-0.5-3.6c-0.1-0.6-0.6-0.9-1.1-0.9
	c-0.6,0.1-0.9,0.6-0.9,1.1l1.1,8.3c0.1,0.4,0.3,0.7,0.7,0.8c0.1,0,0.2,0,0.3,0c0.3,0,0.6-0.1,0.8-0.3l5.4-6
	C184.8,138,184.7,137.3,184.3,137z"/>
<g>
	<path class="st0" d="M55.9,217.4l-1,12.1c0,0,13.6,2.2,30.8,1.8c9.7-0.3,20.4-1.4,30.5-4.3l-2.3-10.5L55.9,217.4z"/>
</g>
<path class="st1" d="M150.1,103.4l0.8,34.2l-25-4c0,0-1.2,9.2-3.4,13.6c0,0,8.8,2.9,26,2.9c3,0,8.7-0.4,9.6-1c1.2-0.9,2-2,2.5-4.2
	c0.8-3.7-1-28.2-2-35.1C157.6,102.9,150.1,103.4,150.1,103.4z"/>
<path class="st2" d="M117.7,217.1c0,0-29.1,5.8-66.2,0.9l4.5-43.4l-7-11.2l-7.7-3.6c0,0,13.4-26.6,26.2-31.8
	c12.7-5.1,32.2-0.9,34.7-0.4c2.5,0.4,25.9,5.8,25.9,5.8s-0.4,8.3-8.1,25.7l-7.6-1.6L117.7,217.1z"/>
<path class="st1" d="M78.1,115.8l-1,9.7l-3.7,0.8c0,0,2,8.5,11,8.9c9.5,0.5,11-8.4,11-8.4l-2.9-1l0.8-5.6
	C93.3,120.3,87,125.6,78.1,115.8z"/>
<path class="st1" d="M111.4,139.1c-1.2-0.6-16.6,7.6-19.7,9.9c-2.4,1.9-2.8,4.1-2.8,4.1l-32.2,17.6l0.7-3.8c0.2,0.1-4.8-1.5-9.9-3.9
	c0,0-4,16.1-0.8,22c2.9,5.3,10.7,1.4,16.1-2.2c5-3.3,30.4-22.4,30.4-22.4s2.2,1,4.5,0.6c5.7-1.2,9.1-3.8,9.5-4.1
	c3.4-3.1,1.4-4.9,0.8-4.7c-0.2,0.1-0.9,0.3-1.1,0.4c-0.3,0.1-0.1-0.4,0.1-0.6c0.5-0.5,0.7-1.2,0.5-2.1c-0.5-1.9-3-0.5-3-0.5
	c0.4-0.4,1.5-1.4,1-2.2c0,0-0.3-1-1.6-1l-1.9,0.5c3.4-2,9.4-5.1,10-5.4C112.6,140.8,113,139.8,111.4,139.1z"/>
<ellipse class="st3" cx="132.3" cy="98.4" rx="6.7" ry="7.9"/>
<ellipse class="st3" cx="134.3" cy="98.5" rx="6.7" ry="7.7"/>
<path class="st3" d="M155.8,101.5l-1.3,4.4c0,0-18.6-4.7-19.5-4.9c-2.6-0.6-3.4-0.9-3.3-2.6c0-1.4,1.1-2.5,2.4-2.5
	C135.4,95.8,155.8,101.5,155.8,101.5z"/>
<path class="st4" d="M58.9,85.3c0,0-1.2,9.8,1.3,15c2.7,5.6,5.4,7.8,5.4,7.8l-0.8-17.5L58.9,85.3z"/>
<path class="st1" d="M92.4,59.2c-12.5-0.2-23.3,7.9-28,19.6c-0.6-0.1-1.3-0.1-1.9,0c-2.6,0.7-3.8,3-3.6,6.5c0.2,2.8,1.7,5.5,3.1,6.8
	c0.1,17.6,13.1,31.9,29.3,32.2c16.5,0.3,30.2-14.1,30.4-32C122.1,74.2,108.9,59.5,92.4,59.2z"/>
<path class="st4" d="M67.5,80.9c0,0,12.9,1.1,25.8-16.7l-4.7-6.9c0,0-23.6-4.6-29,23.2C59.6,80.6,62.5,75.9,67.5,80.9z"/>
<path class="st4" d="M88.2,57.3c0,0,3.3,16.2,24.3,29.8l0.5-4.5c0,0,1.7,3.6,4.4,7.6c2.3,3.5,4.6,6.2,4.6,6.2s10.1-15.5-4-29.1
	C103.3,53.3,88.2,57.3,88.2,57.3z"/>
<path class="st4" d="M87.8,57.2c0.1-0.3,0.7-9.7-3.1-8.4C82.4,49.7,87.8,57.2,87.8,57.2z"/>
<path class="st4" d="M87.3,57c-1-1.9-6.5-6.5-7.5-3.5C78.6,57,87.3,57,87.3,57z"/>
<path class="st5" d="M101.5,117.5c0,0-3.1-1.3-7.2-2.6c-3.2-1-6.3-1.1-6.3-1.1s6.2-4.4,11.1-4C106.2,110.5,101.5,117.5,101.5,117.5z
	"/>
<path d="M101.5,117.5c0,0-3.2-1.3-7.2-2.6c-3.2-1-6.4-1.2-6.4-1.2s4.2-3.1,8.6-3.9c0.9-0.2,1.7-0.2,2.6-0.2
	C106.1,110.4,101.5,117.5,101.5,117.5 M101.6,117.9L101.6,117.9c0.3-0.1,0.5-0.2,0.6-0.3c0.1-0.1,2.8-4.2,0.9-6.7
	c-0.7-0.9-2-1.5-3.8-1.7c-0.9-0.1-1.9,0-2.9,0.1c-4.4,0.8-8.8,4-8.9,4.1c-0.2,0.2-0.3,0.3-0.1,0.4c0,0.1,0.2,0.2,0.5,0.2
	c0,0,3,0.1,6.1,1.1c4,1.3,7.1,2.6,7.2,2.6C101.1,117.9,101.4,117.9,101.6,117.9L101.6,117.9z"/>
<path d="M101.3,88.6c-0.1,0-0.2,0-0.3-0.1c-0.1-0.1-0.1-0.4,0-0.5c2.3-1.9,5.2-1.8,6.5-1.3c0.2,0.1,0.3,0.3,0.2,0.4
	c-0.1,0.2-0.3,0.3-0.4,0.2c-1-0.4-3.6-0.6-5.8,1.2C101.5,88.6,101.4,88.6,101.3,88.6z"/>
<path d="M117.8,98.6c-0.2,0-0.3-0.1-0.3-0.3c0-1.2-0.7-3.5-2.4-4.8c-0.2-0.1-0.2-0.3-0.1-0.5s0.3-0.2,0.5-0.1c2,1.4,2.7,4,2.7,5.3
	C118.1,98.4,118,98.6,117.8,98.6L117.8,98.6z"/>
<path d="M109.1,108.6L109.1,108.6c-0.3-0.1-0.4-0.2-0.3-0.4c0.4-1.3,0-2.6-1-3.3c-1.3-0.9-3.1-0.7-4.9,0.6c-0.1,0.1-0.4,0.1-0.5-0.1
	c-0.1-0.1-0.1-0.4,0.1-0.5c2-1.5,4.1-1.7,5.7-0.6c1.3,0.9,1.8,2.5,1.2,4.1C109.3,108.5,109.2,108.6,109.1,108.6z"/>
<ellipse transform="matrix(0.4414 -0.8973 0.8973 0.4414 -26.9879 145.7491)" cx="103.6" cy="94.6" rx="2.6" ry="2"/>
<ellipse transform="matrix(0.4414 -0.8973 0.8973 0.4414 -25.4107 158.4957)" cx="114.6" cy="99.7" rx="2.6" ry="2"/>
<path class="st1" d="M140.5,92.5c0,0-2.7,1.9-5.8,2.2c-0.9,0.1-0.9,2.5,1.3,2.8s5.9-3.6,5.9-3.6L140.5,92.5z"/>
<path class="st1" d="M150.1,105.3c0,0-1.2,3.2-5.6,1.7c0,0-1.7,0.9-4-0.7c0,0-2.5,0.2-3.6-2.8c0,0-1-1.5-1.1-3.1
	c0,0,0.1-12.8,14.9-7.5c1.6,0.6,5.1,2.8,5.8,4.6l-1.9,3.6l-5.1-1.3c0,0-3.5,0.4-2,4.7L150.1,105.3z"/>
<ellipse transform="matrix(0.1326 -0.9912 0.9912 0.1326 35.4381 250.2673)" class="st3" cx="160.7" cy="104.9" rx="8.7" ry="8.5"/>
<ellipse class="st3" cx="162.6" cy="105.2" rx="7.4" ry="8.4"/>
<path class="st6" d="M164.9,96.5c-0.9-0.5-1.9-0.8-2.9-1c-0.4-0.1-0.8-0.1-1.2-0.1l0,0c-1.5,0-2.8,0.4-4.1,1
	c-1.2-1.9-4.3-3.7-5.8-4.3c-2.4-0.9-4.7-1.3-6.6-1.3c-2.2,0-3.8,0.5-5.1,1.4c-1.3-1.3-3-2.2-4.9-2.2l0,0c-0.6-0.2-1.3-0.3-2-0.3
	c-4.1,0-7.4,3.8-7.4,8.6c0,4.7,3.3,8.6,7.4,8.6c0.3,0,0.6,0,0.9-0.1c0.3,0.1,0.7,0.1,1.1,0.1c1.2,0,2.4-0.3,3.4-1
	c-0.1-0.1-0.2-0.2-0.3-0.3c0.9,0.9,1.9,1.3,2.8,1.3c1,0.6,2,0.9,2.9,0.9c0.6,0,1-0.1,1.3-0.2l0,0l0,0c0.1,0,0.1,0.1,0.2,0.1l0,0
	c0.7,0.2,1.3,0.3,2,0.3c1.3,0,2.2-0.4,2.8-0.9l0.7,29.7l-21.6-3.5c-0.1-0.3-0.2-0.5-0.5-0.5c-1-0.2-23.5-5.4-26-5.8
	c-0.1,0-0.3-0.1-0.6-0.1c-1.3-0.3-4.1-0.8-7.7-1.2l-0.6-0.2l0.1-0.6c7.5-0.4,14.5-3.7,19.9-9.5c4.7-5,7.6-11.3,8.7-18.1
	c0.2,0,0.4-0.1,0.5-0.3c0.1-0.2,2.6-4.1,3.4-9.7c0.7-5.2,0-13-7.5-20.2c-9.2-8.9-18.7-10.8-24.9-10.8c-2.3,0-4,0.3-4.9,0.4
	c0.1-1.7,0.1-5.9-1.4-7.6c-0.5-0.6-1.1-0.9-1.8-0.9c-0.3,0-0.6,0.1-0.9,0.2c-0.5,0.2-0.8,0.5-1,1c-0.3,1,0.3,2.6,1.1,4.1
	c-1.2-0.9-2.5-1.5-3.5-1.5s-1.7,0.5-2,1.5c-0.3,0.8-0.2,1.6,0.3,2.2c0.4,0.5,0.9,0.9,1.6,1.2c-3.1,0.4-6.8,1.5-10.3,3.8
	c-6.1,4-10,10.7-11.8,20c0,0.1,0,0.2,0,0.3c-0.5,1.1-0.9,2.5-0.8,4.4c-0.1,0.6-1.2,10.1,1.3,15.3c2.7,5.7,5.5,7.9,5.6,8
	s0.3,0.1,0.4,0.1l0,0c1.3,2.3,2.7,4.5,4.5,6.4c2,2.2,4.3,4.1,6.8,5.6l-0.4,4.3l-3.2,0.7c-0.1,0-0.2,0.1-0.3,0.1
	c-2.1,0.4-4.1,1-5.9,1.7c-5.4,2.2-11.5,8.3-18.2,18.1c-4.9,7.2-8.3,14-8.3,14c-0.1,0.2-0.1,0.4,0,0.5c0.1,0.2,0.2,0.3,0.4,0.4
	l6.1,2.7v0.1c-0.2,0.6-4,15.7-0.7,21.7c1.1,2,2.8,3,5.1,3c0.8,0,1.6-0.1,2.5-0.4L50.5,218c0,0.4,0.2,0.7,0.6,0.7
	c1.3,0.2,2.7,0.3,4.1,0.5l-0.9,10.4c0,0.2,0.1,0.3,0.3,0.4l0,0c0.2,0,0.3-0.1,0.3-0.3l0.9-10.3c8.4,0.9,17.1,1.4,25.8,1.4
	c14.8,0,26.4-1.4,32.1-2.2l1.9,8.6c0,0.2,0.2,0.3,0.4,0.3c0.2,0,0.3-0.2,0.3-0.4l-1.9-8.6c2-0.3,3.2-0.5,3.2-0.5
	c0.3-0.1,0.6-0.4,0.5-0.7l-5.3-58.6l6.7,1.4h0.1c0.3,0,0.5-0.2,0.6-0.4c1.8-4.2,3.2-7.8,4.3-11c3.7,0.9,11.6,2.2,23.7,2.2
	c1.8,0,8.8-0.3,10-1.1c1.5-1.1,2.3-2.4,2.8-4.6c0.8-3.3-0.5-21.1-1.5-30.7c0.3,0,0.6,0.1,0.8,0.1c0.3,0,0.7,0,1-0.1
	c0.3,0,0.6,0.1,1,0.1c4.4,0,8.1-4.1,8.1-9.1C170.7,101.1,168.2,97.6,164.9,96.5z M160.8,96.2c0.3,0,0.6,0,0.9,0.1
	c-4,0.5-7.1,4.4-7.1,9c0,3.7,2,6.9,4.8,8.3c-4.5-0.7-7.7-5-7.1-9.7C152.9,99.4,156.6,96.2,160.8,96.2z M151.6,103.7
	c-0.1,0.5-0.1,1-0.1,1.4c-0.7-0.2-0.2,0-0.9-0.2c-0.1-0.1-0.2-0.2-0.3-0.2l-2.4-0.8c-0.3-1.1-0.3-1.9,0.1-2.5
	c0.4-0.6,1.1-0.9,1.4-0.9l2.9,0.8C152,101.9,151.8,102.8,151.6,103.7z M125.6,98.4c0-4.3,3-7.8,6.6-7.9c-3.1,1-5.3,4.2-5.3,8
	c0,3.3,1.7,6.2,4.2,7.5C128,105.4,125.6,102.2,125.6,98.4z M134.3,106.2c-3.7,0-6.7-3.5-6.7-7.7s3-7.7,6.7-7.7
	c1.7,0,3.2,0.7,4.4,1.9c-0.1,0.1-0.2,0.2-0.3,0.3c-1,0.5-2.3,1-3.7,1.1c-0.6,0.1-1,0.5-1.1,1.1c-1.4,0.3-2.4,1.5-2.5,3.1
	c-0.1,2.3,1.3,2.8,3.8,3.3c0.1,0,0.2,0.1,0.5,0.1c0.3,1,0.8,1.9,1,2.1c0.3,0.7,0.6,1.2,1,1.6C136.4,105.9,135.4,106.2,134.3,106.2z
	 M135.1,100.4c0,0.2,0,0.4,0.1,0.6c-0.1,0-0.1,0-0.2,0c-2.6-0.6-3.4-0.9-3.3-2.6c0-1.2,0.8-2.1,1.8-2.4c0.1,0.9,0.7,1.9,2,2.2
	C135.1,99.4,135.1,100.3,135.1,100.4L135.1,100.4z M134.7,94.8c0.9-0.1,1.8-0.3,2.6-0.6c-0.8,1.1-1.3,2.3-1.6,3.3
	C133.8,96.9,133.8,94.9,134.7,94.8z M146.7,107.4c-0.5,0-1.2-0.1-1.9-0.3c-0.5-0.4-2.5-2.4-1.4-6.3c0-0.2-0.1-0.4-0.2-0.4
	c-0.2,0-0.4,0.1-0.4,0.2c-0.9,3.5,0.4,5.6,1.2,6.5c-0.2,0-0.4,0.1-0.7,0.1c-0.6,0-1.4-0.2-2.3-0.6v-0.1c-0.1-0.1-2-1.9-0.7-6.1
	c0.1-0.2,0-0.4-0.2-0.4c-0.2-0.1-0.4,0-0.4,0.2c-1,3.2-0.3,5.1,0.3,6.1c-0.6-0.1-1.5-0.4-2.2-1.4v-0.1c-0.3-1.5-0.6-3.5,0.2-5.3
	c0.1-0.2,0-0.4-0.2-0.4c-0.2-0.1-0.4,0-0.4,0.2c-0.6,1.3-0.6,2.8-0.5,4.1c-0.3-0.5-0.9-1.6-1-2.9c0,0,0.1-8.8,8.5-8.8
	c1.7,0,3.8,0.4,6.4,1.3c1.4,0.5,4.3,2.3,5.4,3.9c-1.5,0.9-2.7,2.2-3.5,3.7l-3.2-0.8c0,0-3.5,0.4-2,4.7l2.7,0.9
	C150.1,105.3,149.3,107.4,146.7,107.4z M93.4,56.8c5.7,0,15.2,1.6,24.5,10.6c14.1,13.6,4,29.1,4,29.1s-2.3-2.7-4.6-6.2
	c-2.7-4-4.4-7.6-4.4-7.6l-0.5,4.5c-21-13.7-24.3-29.8-24.3-29.8S90.2,56.8,93.4,56.8z M84.8,48.8c0.2-0.1,0.5-0.1,0.7-0.1
	c2.6,0,2.5,6,2.4,7.9c-0.3-0.6-1-1.4-1.8-2.2C84.7,52.2,83.4,49.3,84.8,48.8z M79.8,53.5c0.2-0.7,0.7-1,1.3-1c2,0,5.4,3,6.2,4.5l0,0
	C86.8,57,78.7,56.9,79.8,53.5z M82.6,57.1c1.9,0.5,4.1,0.5,4.7,0.5l0,0c0.1,0,0.1,0,0.2-0.1c0.2,0.7,1.1,4.2,3.9,9.1
	C81,79.5,70.9,80.9,68.1,81c-1.1-1.8-2.9-2.5-3.4-2.8c0,0,0-0.1,0.1-0.1c-0.2,0-0.4,0-0.6-0.1H64l0,0c-0.2,0-0.3,0-0.5,0
	c-0.4,0-0.8,0.1-1.2,0.2c-0.8,0.2-1.7,0.7-2.5,1.4C63.7,61.6,75.3,57.7,82.6,57.1z M60.2,100.2c-1.7-3.5-1.7-9.2-1.5-12.5
	c0.5,1.7,1.4,3.3,2.4,4.3v0.1c0,0,0.1,0.1,0.2,0.2c0.1,5.3,1.3,10.4,3.6,15C63.9,106.3,62,104.1,60.2,100.2z M62,93
	c0.9,0.7,2.6,1.7,4.6,1.7l0,0c0.2,0,0.3-0.1,0.3-0.3c0-0.2-0.1-0.3-0.3-0.3c-2.2,0-3.9-1.3-4.7-1.9l0,0c-1.4-1.2-2.9-4-3.1-6.8
	c-0.2-3.4,0.9-5.7,3.6-6.5c0.3-0.1,0.7-0.1,1-0.1c0.2,0,0.4,0,0.7,0.1c0,0,0,0.1,0.1,0.1c0,0,3.6,1.1,4.1,4.9c0,0.2,0.2,0.3,0.3,0.3
	l0,0c0.2,0,0.3-0.2,0.3-0.4c-0.1-0.8-0.3-1.4-0.6-2c2.9-0.1,13-1.5,23.4-14.3c0,0.1,0.1,0.1,0.1,0.2C95,73,101.1,80.8,112,88
	c0.1,0.1,0.2,0.1,0.4,0.1c0.1,0,0.2,0,0.3-0.1c0.2-0.1,0.4-0.3,0.4-0.5l0.2-2.2c0.8,1.5,1.9,3.5,3.4,5.7c2.2,3.3,4.4,5.9,4.6,6.2
	c-2.3,15.5-14.7,27.3-29.6,27.3c-0.1,0-0.3,0-0.4,0C75.4,123.9,62.6,110.1,62,93z M77.1,125.5l0.5-4.5c4.2,2.4,8.9,3.7,13.8,3.8
	c0.2,0,0.3,0,0.5,0c0.3,0,0.6,0,0.9,0l-0.1,1l2.9,1c0,0-1.4,8.4-10.2,8.4c-0.2,0-0.5,0-0.8,0c-9-0.5-11-8.9-11-8.9L77.1,125.5z
	 M51.4,187.3c-1.9,0-3.5-0.7-4.5-2.7c-3.2-5.9,0.7-21,0.7-21.2l0.5,0.2l0,0c4.4,2,8.2,3.1,8.9,3.3c-0.3,1.8-0.5,3-0.5,3.5
	c-3.7,2.1-4,6.1-4.1,6.3c0,0.2,0.1,0.3,0.3,0.4l0,0c0.2,0,0.3-0.1,0.3-0.3c0,0,0.4-3.7,3.5-5.6l32.4-18c0,0,0.4-2.2,2.8-4.1
	c2.9-2.2,17.4-9.9,19.5-9.9c0.1,0,0.1,0,0.2,0c1.6,0.8,1.3,1.7,0.4,2.2c-0.7,0.3-6.6,3.4-10,5.4l1.9-0.5h0.1c1.3,0,1.5,1,1.5,1
	c0.5,0.8-0.6,1.8-1,2.2c0,0,0.9-0.5,1.7-0.5c0.6,0,1.1,0.2,1.3,1c0.2,0.9,0,1.5-0.5,2.1c-0.2,0.2-0.3,0.6-0.2,0.6c0,0,0,0,0.1,0
	c0.3-0.1,0.9-0.3,1.1-0.4h0.1c0.7,0,2.2,1.8-0.9,4.7c-0.4,0.3-3.8,2.9-9.5,4.1c-0.4,0.1-0.8,0.1-1.2,0.1c-1.8,0-3.2-0.7-3.2-0.7
	s-25.7,19-30.7,22.3C58.9,185,54.7,187.3,51.4,187.3z M119.9,159.2l-7-1.4c-0.9-5.6-2.4-10.8-2.4-10.9c-0.1-0.2-0.2-0.3-0.4-0.2
	c-0.2,0-0.3,0.2-0.2,0.4c0,0.1,1.6,5.7,2.5,11.6l5.3,58.5c0,0-14.4,2.9-35.8,2.9c-9.1,0-19.4-0.5-30.4-2l3.2-30.6
	c2.3-0.7,5-2.1,8.2-4.2c4.7-3.1,27.5-19.9,30.4-22.1c0.6,0.2,1.8,0.6,3.1,0.6c0.5,0,0.9,0,1.4-0.1c5.5-1.1,9.1-3.7,9.8-4.3
	c2.4-2.2,2.3-3.9,2-4.6c-0.3-0.7-0.9-1.2-1.5-1.2H108c0.2-0.5,0.2-1.1,0.1-1.7c-0.2-1-0.9-1.5-1.9-1.5l0,0c0.2-0.5,0.1-0.9-0.1-1.3
	c-0.2-0.4-0.5-0.9-1.1-1.2c2.6-1.4,5.4-2.9,6.7-3.6c0.3-0.2,0.5-0.3,0.6-0.3c0.7-0.4,1.1-1,1.1-1.6c0-0.5-0.3-1.2-1.5-1.8
	c-0.1-0.1-0.3-0.1-0.4-0.1c-2.4,0-17.3,8-19.9,10.1c-2.1,1.6-2.8,3.5-3,4.2L57.1,170c0-0.2,0.1-0.4,0.1-0.7l0.5-2.2c0,0,0,0,0-0.1
	s0-0.3,0-0.4c0.8-4.8,2.2-12.9,3.7-17.5c0.1-0.2,0-0.4-0.2-0.4c-0.2-0.1-0.4,0-0.4,0.2c-1.5,4.5-2.9,12.3-3.7,17.2
	c-0.7-0.2-4.5-1.3-8.7-3.2l0,0l-7.2-3.2c0,0,13.4-26.6,26.2-31.8c1.7-0.7,3.5-1.2,5.4-1.6c0.1,0.3,0.6,2.4,2.2,4.5s4.5,4.7,9.3,4.9
	c0.3,0,0.5,0,0.8,0c4.8,0,7.6-2.4,9-4.5c1.5-2.2,1.9-4.4,1.9-4.5s0-0.3-0.1-0.4c3.1,0.5,5.3,0.9,6,1.1c2.5,0.4,25.9,5.8,25.9,5.8
	S127.5,141.7,119.9,159.2z M160.6,144.8c-0.5,2.2-1.3,3.3-2.5,4.2c-0.8,0.6-6.5,1-9.6,1c-11.9,0-19.7-1.4-23.5-2.2
	c2.7-7.8,3.4-12.4,3.5-13.8l22.1,3.6c1.6,1,2.4,3,2.4,3c0.1,0.1,0.2,0.2,0.3,0.2h0.1c0.2-0.1,0.2-0.3,0.2-0.4c0-0.1-1-2.3-2.8-3.4
	l-0.7-30.5c0.3-0.4,0.5-0.7,0.5-0.8c0.7,0.2,0,0,0.9,0.2c0.1,1.7,0.8,3.4,1.8,4.8c1.4,1.9,3.4,3.1,5.7,3.5
	C160.1,123.8,161.3,141.7,160.6,144.8z M162.6,113.6c-4.1,0-7.4-3.8-7.4-8.4s3.3-8.4,7.4-8.4c4.1,0,7.4,3.8,7.4,8.4
	C170,109.9,166.7,113.6,162.6,113.6z"/>
<circle class="st5" cx="179.6" cy="102.2" r="7.3"/>
</svg>
