<?xml version="1.0" encoding="utf-8"?>
<!-- Generator: Adobe Illustrator 22.1.0, SVG Export Plug-In . SVG Version: 6.00 Build 0)  -->
<svg version="1.1" id="Слой_4" xmlns="http://www.w3.org/2000/svg" xmlns:xlink="http://www.w3.org/1999/xlink" x="0px" y="0px"
	 viewBox="0 0 512 512" style="enable-background:new 0 0 512 512;" xml:space="preserve">
<style type="text/css">
	.st0{fill:#B5D758;stroke:#000000;stroke-width:3;stroke-linecap:round;stroke-linejoin:round;stroke-miterlimit:10;}
	.st1{fill:none;stroke:#000000;stroke-width:3;stroke-linecap:round;stroke-linejoin:round;stroke-miterlimit:10;}
	.st2{fill:#544432;stroke:#000000;stroke-width:3;stroke-linecap:round;stroke-linejoin:round;stroke-miterlimit:10;}
	.st3{fill:#FDCD95;stroke:#000000;stroke-width:1.8067;stroke-linecap:round;stroke-linejoin:round;stroke-miterlimit:10;}
	.st4{fill:#FFF35C;stroke:#000000;stroke-width:2;stroke-linecap:round;stroke-linejoin:round;stroke-miterlimit:10;}
	.st5{fill:#816164;stroke:#000000;stroke-width:2;stroke-linecap:round;stroke-linejoin:round;stroke-miterlimit:10;}
	.st6{fill:#857154;stroke:#000000;stroke-width:2;stroke-linecap:round;stroke-linejoin:round;stroke-miterlimit:10;}
	.st7{fill:#544432;stroke:#000000;stroke-width:2;stroke-linecap:round;stroke-linejoin:round;stroke-miterlimit:10;}
	.st8{fill:#6D5B44;stroke:#000000;stroke-width:2;stroke-linecap:round;stroke-linejoin:round;stroke-miterlimit:10;}
	.st9{fill:#EB8C30;stroke:#000000;stroke-width:2;stroke-linecap:round;stroke-linejoin:round;stroke-miterlimit:10;}
	.st10{fill:#FFD56E;stroke:#000000;stroke-width:1.8067;stroke-linecap:round;stroke-linejoin:round;stroke-miterlimit:10;}
	.st11{fill:#4D7450;stroke:#000000;stroke-width:1.8067;stroke-linecap:round;stroke-linejoin:round;stroke-miterlimit:10;}
	.st12{fill:none;stroke:#000000;stroke-width:1.8067;stroke-linecap:round;stroke-linejoin:round;stroke-miterlimit:10;}
	.st13{fill:#FFFFFF;}
	.st14{fill:#685945;stroke:#000000;stroke-width:2.4887;stroke-linecap:round;stroke-linejoin:round;stroke-miterlimit:10;}
	.st15{fill:none;stroke:#000000;stroke-width:2;stroke-linecap:round;stroke-linejoin:round;stroke-miterlimit:10;}
	.st16{fill:#EB8C30;}
	.st17{fill:#857154;stroke:#000000;stroke-width:2.5963;stroke-linecap:round;stroke-linejoin:round;stroke-miterlimit:10;}
	.st18{fill:#FDCD95;stroke:#000000;stroke-width:2;stroke-linecap:round;stroke-linejoin:round;stroke-miterlimit:10;}
	.st19{fill:#472B25;stroke:#000000;stroke-width:2;stroke-linecap:round;stroke-linejoin:round;stroke-miterlimit:10;}
</style>
<path class="st0" d="M204.8,283.3c-11.6,1.3-23.1,3.3-34.4,6.2C120.8,301.8,3.9,335.9,1.5,365.8c-2.8,35.2,40.8,18.6,17.2,42.2
	c-23.6,23.5,6.9,47.3,61.3,54.6c55.6,7.4,247.1,4.7,331.6-22.4c83.7-26.8,113.7-49,103.4-81.4c-10.3-32.4-37.1-24.6-24.1-43.6
	s28.1-34.8,5.1-47.9C466.2,250.3,266.4,276.5,204.8,283.3z"/>
<path class="st1" d="M217.9,459.8c0,0-14.2-20.1,5.8-11.8c0,0,3-12.2,11.5-4.7c0,0,16-22.5,15-6s0,10.7,0,10.7"/>
<path class="st1" d="M72.7,449.6c0,0-14.2-20.1,5.8-11.8c0,0,3-12.2,11.5-4.7c0,0,16-22.5,15-6s0,10.7,0,10.7"/>
<path class="st1" d="M299.9,378.4c0,0-3.5-24.3,10.5-7.9c0,0,8.2-9.5,12.4,1c0,0,24.5-12.8,16.1,1.4c-8.4,14.3-4.8,9.5-4.8,9.5"/>
<path class="st1" d="M425.8,358.7c0,0-3.5-24.3,10.5-7.9c0,0,8.2-9.5,12.4,1c0,0,24.5-12.8,16.1,1.4c-8.4,14.3-4.8,9.5-4.8,9.5"/>
<path class="st1" d="M426.2,299.9c0,0-3.5-24.3,10.5-7.9c0,0,8.2-9.5,12.4,1c0,0,24.5-12.8,16.1,1.4c-8.4,14.3-4.8,9.5-4.8,9.5"/>
<path class="st1" d="M311.7,328.2c0,0-6.6-10.4,3.2-5.8c0,0,1.8-6,5.8-2.1c0,0,8.5-10.9,7.6-2.7c-0.9,8.2-0.2,5.3-0.2,5.3"/>
<path class="st1" d="M241.2,381.9c0,0-6.6-10.4,3.2-5.8c0,0,1.8-6,5.8-2.1c0,0,8.5-10.9,7.6-2.7c-0.9,8.2-0.2,5.3-0.2,5.3"/>
<polygon class="st2" points="294,358.7 266.9,340.2 264,325.3 279.8,321.4 288.2,332.8 "/>
<polygon class="st2" points="264.4,363.9 217.9,328.3 226.2,310.9 250.2,301.9 268.9,301.8 272.5,318.9 "/>
<path class="st3" d="M369.9,216.8c0,0-12.8,2.5-15.7,17s4,11.8,4,11.8l8.3-5.8l7.5-4.7l2.2-14.8L369.9,216.8z"/>
<g>
	<path class="st4" d="M344,285.8c0,0-25.8,12.9-21.3,18.8c4.4,5.8,19.3,0.7,21.3,0c2.9-1,16.9-6.3,9.5-17.1l-4.5-2.3L344,285.8z"/>
	<path class="st5" d="M330.5,294.3c0,0,5.8,5.8,5.3,7.6c0,0,6.8-2,7.6-2.9c0.8-0.9-3.3-9.3-6-9.6L330.5,294.3z"/>
</g>
<path class="st6" d="M268.9,301.8c-98.6,43.8-186.1,92.7-186.1,92.7l-34.3-24.8c30.3-28.4,107-62.7,183.7-92.3L268.9,301.8z"/>
<path class="st6" d="M462.1,236.4C411.6,244,343.9,269,279.8,297l-35.7-24.2c39.5-15,78.4-28.7,110.2-39.4c7.4-2.5,14.5-4.9,21-7
	c32.4-10.7,53.5-17.2,53.5-17.2L462.1,236.4z"/>
<polygon class="st7" points="82.8,394.5 82.8,407.9 51.9,386.6 48.5,369.7 "/>
<path class="st8" d="M272.5,318.9L272.5,318.9c-67.8,29.8-181.8,82.4-189.7,89v-13.5c0,0,87.5-48.9,186.1-92.7h0L272.5,318.9z"/>
<path class="st8" d="M462.1,236.4v17.9c0,0-62.4,18.2-108.5,33.1c-4.6,1.5-9,2.9-13.2,4.3c-3.2,1.1-6.3,2.1-9.2,3.1
	c-1.3,0.5-2.6,0.9-3.8,1.3c0,0,0,0,0,0c-4,1.4-7.6,2.7-10.7,3.9c-6.7,2.5-18.8,7.7-34.2,14.4l-2.6-17.5
	C343.9,269,411.6,244,462.1,236.4z"/>
<path class="st4" d="M279.8,297c-3.7,1.6-7.3,3.2-10.9,4.8h0l-36.7-24.4l7.1-2.8l3.8-1.4l1-0.4L279.8,297z"/>
<path class="st4" d="M282.4,314.5c-3.2,1.4-6.5,2.8-9.9,4.4l-3.6-17.1c3.6-1.6,7.3-3.2,10.9-4.8L282.4,314.5z"/>
<path class="st4" d="M300,353.8c0,1.5-0.7,2.9-1.9,3.9c-2.6,2.1-6.5,1.1-7.8-2.1l-11.2-28.1l-8,35.3c-0.2,0.8-0.6,1.5-1.3,2
	c-0.6,0.5-1.4,0.8-2.3,0.8c-2.3,0-4-2.1-3.6-4.4l8.4-42.5v0c3.4-1.5,6.8-3,9.9-4.4l17.2,37.2C299.9,352.4,300,353.1,300,353.8z"/>
<path d="M445.7,246.2c0,0-11.3,1.9-13-3.2s5-12.3,6-11.8s7.8,1,7.8,1L445.7,246.2z"/>
<g>
	<path class="st4" d="M390.2,297.6c0,0-25.8,12.9-21.3,18.8c4.4,5.8,19.3,0.7,21.3,0c2.9-1,16.9-6.3,9.5-17.1l-4.5-2.3L390.2,297.6z
		"/>
	<path class="st5" d="M376.7,306.2c0,0,5.8,5.8,5.3,7.6c0,0,6.8-2,7.6-2.9c0.8-0.9-3.3-9.3-6-9.6L376.7,306.2z"/>
</g>
<path class="st3" d="M407.5,238.8c0,0-3.8,7.3-5.3,17.7c-1.5,10.3-11.3,40.5-12,41.2s5.5,6.7,9.5,1.7c0,0,17-35.1,19.2-42.5
	c2.2-7.3,10.5-10.8,12.7-11.2c2.2-0.3,10.3-3,11.9-7.3c1.6-4.3-3.6-8.5-4.4-8.5c-0.8,0-22.8,6.5-22.8,6.5L407.5,238.8z"/>
<path class="st9" d="M399.3,199.3l-35,17.1c0,0,10.5,6.3,12.1,11.5c1.5,5.2,11.5,1.3,17.4,3.5s13.4,16.5,19.6,13.8
	c6.2-2.7,16.9-12.3,24.4-10c7.5,2.3,9.2,6.7,7.7,10.3c0,0,4.5-2.8,6.7-7c2.2-4.2,3.1-13.5-2-22.2c-5.1-8.7-7.7-12.6-7.7-12.6
	l-13.6,1l-22.2-7.7L399.3,199.3z"/>
<path class="st4" d="M407.2,133c0,0-7-7.5-23.8,14.3c0,0-7.1,6.8,0,9.8c0,0,2.4,2.3,2.9,5s3,3.8,5.3,3s3.8-3.5,3.8-3.5l-1.6,33.3
	c0,0,14.3,29.3,51.3,13c0,0,9.2-76.8-17-74.3"/>
<g>
	<path class="st10" d="M412.8,44.2c0,0-3.8-10-7.8-13s-20.8-13.1-33.1,10.9c-12.4,24-12.1,51.1-4.8,64.7
		c7.3,13.7,15.8,27.6,16.4,33.1s9.4-2.9,12.3-9.4c2.9-6.5,0-19.4,0-19.4l-3.4-22.3l3.4-23.6L412.8,44.2z"/>
	<ellipse class="st3" cx="444.9" cy="95.4" rx="3.9" ry="8.8"/>
	<path class="st3" d="M407.1,122.5c0.3,1,0,13.4,0,13.4s10.1,7.8,19.9-1.3l-1.6-12.1H407.1z"/>
	<ellipse transform="matrix(0.9652 -0.2615 0.2615 0.9652 -12.432 103.9404)" class="st3" cx="384.4" cy="98.7" rx="7.1" ry="9"/>
	<path class="st11" d="M386.4,50.2c0,0,0.8-18.7,18.5-9.2l-7.9,9.2H386.4z"/>
	<path class="st3" d="M444.9,90.1c-1.4,21.5-11.1,38.9-28.3,38.9c-16.8,0-30.8-15.9-33.3-36.6c2.7-2.4,6.3-6.5,6.8-12.1
		c0,0,25,8.7,34.9,3.8c0,0-4.6-3-5.3-4.9s11.6,1.5,16.6-4.9l5.4,20.5C441.7,94.8,443.2,93.1,444.9,90.1z"/>
	<path class="st10" d="M444.9,90.1c-1.7,3-3.2,4.6-3.2,4.6l-5.4-20.5c-4.9,6.4-17.3,3-16.6,4.9s5.3,4.9,5.3,4.9
		c-9.9,4.9-34.9-3.8-34.9-3.8c-0.5,5.6-4.1,9.7-6.8,12.1c-1.7,1.5-3.1,2.3-3.1,2.3l-5.9-13c-2.8-6.2-3.5-13.2-1.5-19.8
		c5.1-17.3,22.6-15.8,22.6-15.8c30.5-21.2,48.4,6.6,48.4,6.6C454.3,69,449,83.1,444.9,90.1z"/>
	<path class="st12" d="M390,68.6c0,0,0.5,9.7,0.2,11.7"/>
	<path class="st12" d="M409.4,66.5c0,0,7,12.8,11.5,12.1"/>
	<path class="st12" d="M422.3,60c0,0,4.3,11.4,13.9,14.3"/>
	<path class="st12" d="M400.1,49.2c0,0,42.4-16.4,44.9,28.8"/>
	<path class="st12" d="M390,54c0,0-15.9,5.5-9.7,40.8"/>
	<ellipse cx="402.4" cy="96.1" rx="3.2" ry="5.6"/>
	<g>
		<path d="M393.6,93.4c1.6-0.1,3.2-0.5,4.6-1c0.7-0.3,1.3-0.7,2.1-0.9c0.7-0.2,1.4-0.5,2.4-0.6l0,0c0.1,0,0.1,0,0.1,0.1c0,0,0,0,0,0
			c-0.3,0.9-0.9,1.6-1.7,2.1c-0.7,0.5-1.7,0.6-2.5,0.7c-0.9,0.1-1.7,0.2-2.5,0.1c-0.8-0.1-1.7-0.1-2.5-0.4
			C393.6,93.6,393.5,93.6,393.6,93.4C393.6,93.5,393.6,93.4,393.6,93.4z"/>
	</g>
	<path class="st12" d="M404.9,89.2c0,0-7.7-3.8-10.8,2.2"/>
	<ellipse cx="428" cy="95.3" rx="3.2" ry="5.6"/>
	<g>
		<path d="M436.7,92.9c-0.8,0.2-1.6,0.3-2.5,0.4c-0.8,0-1.7,0-2.5-0.1c-0.8-0.1-1.8-0.2-2.5-0.7c-0.7-0.5-1.4-1.2-1.7-2.1
			c0-0.1,0-0.1,0.1-0.1c0,0,0,0,0,0l0,0c0.9,0.1,1.6,0.4,2.4,0.6c0.7,0.2,1.3,0.7,2.1,0.9c1.5,0.5,3,0.9,4.6,1
			C436.7,92.7,436.8,92.7,436.7,92.9C436.8,92.8,436.7,92.8,436.7,92.9z"/>
	</g>
	<circle class="st13" cx="428" cy="94.7" r="1.3"/>
	<circle class="st13" cx="402.8" cy="94.7" r="1.3"/>
	<path class="st12" d="M425.4,88.5c0,0,7.7-3.8,10.8,2.2"/>
	<path class="st12" d="M412.9,103.8c0,0,4.7-2.6,7.1,0"/>
	<path class="st12" d="M407.1,112.5c0,0,12,15.5,19-1.3"/>
</g>
<g>
	<path class="st6" d="M413.4,222.4l-62.8-26.1c0,0-2.9-8.1,5.4-12.3l64.5,26.5C420.5,210.5,413.7,212.6,413.4,222.4z"/>
	<path class="st6" d="M378.8,240.8c0,0,3.8,4.3,10.6,0.9v-29.1l-11.9-4.7l1.2,32.5"/>
	<ellipse transform="matrix(0.5612 -0.8277 0.8277 0.5612 3.5578 440.41)" class="st14" cx="417.1" cy="216.8" rx="6.7" ry="3.9"/>
</g>
<path class="st15" d="M428,146.3c0,0-9.2,22.5-5.7,24.5s5,4.5,5.7,7.5c0.8,3,0.9,11.5,3.2,11c2.3-0.5,7.8-13.8,7.5-19.5"/>
<path class="st3" d="M382.6,195.4c-1.2-1-4.2-2.7-8.1,1.2c0,0-2.7,8-6.1,2.8c0,0-5.4,2.3-4.8-2.2c0,0-7.5,0.6-5.3-4.7
	c0.5-1.3,1.5-2.4,2.6-3.2c2.2-1.7,6.9-5.3,8.6-7c2.3-2.2,14-22,14.2-23.3c0.2-1.3,1-0.1,2.6,4.5c0,0,2.1,2.7,4.3,1.7s4-2.8,4-2.8
	l-6.3,13.2c0,0-4.8,11-4.3,13.7s1.5,6.2,1.5,6.9c0,0.3-0.3,0.3-0.7,0.2C384,196.3,383.3,195.9,382.6,195.4z"/>
<path class="st15" d="M364.9,190c0,0-1.5,5.1-1.2,7.2"/>
<path class="st3" d="M421.4,172.2c0,0-14.1,19-27.2,23.2c-2.2,0.7-4.1,2-5.4,3.8c-2.3,3.2-4.4,7.7,0.6,8.8c0,0,1.8,3.9,5.3,2.5
	c0,0,2,3.8,4.6,1.7c0,0,4,3.8,5.6,0.5c1.6-3.3,1.9-7.1,1.8-7.7c-0.2-0.7,2.1-1.4,4.2-1.8c2.1-0.4,3.1-1.9,3.1-2.8
	c0-0.8,13.9-15.9,14.9-16.6C428.8,183.7,427.5,169.3,421.4,172.2z"/>
<path class="st15" d="M369,191.3c0,0-1.2,6.2-0.6,8.1"/>
<path class="st16" d="M401,267.2l-10.2,30.4c0,0,3.5,4.7,8.1,1.5l12.7-27.6C411.5,271.4,406.8,271.9,401,267.2z"/>
<g>
	<path class="st15" d="M392,201.8c0,0-2.9,4.7-2.5,6.3"/>
	<path class="st15" d="M395.9,203.8c0,0-1.6,4.8-1.2,6.7"/>
	<path class="st15" d="M400,206.1c0,0-0.8,5.2-0.7,6.1"/>
</g>
<path class="st15" d="M413.4,270.1c-9.3,1.1-12.3-4.6-12.3-4.6"/>
<path class="st15" d="M398.9,272.8c0,0,2.7,5.9,11.2,4.5"/>
<path class="st17" d="M129.2,340.6c0,0,4,7.2,10.6,1.3l-1.4-49l-12.1-7.5l2.7,54.7"/>
<path class="st6" d="M161.7,317l-52.1-43.1c0,0,0.2-9.3,9.4-10.9l54,45.2C173,308.3,164.9,307.7,161.7,317z"/>
<ellipse transform="matrix(0.7806 -0.625 0.625 0.7806 -158.5043 173.3765)" class="st14" cx="167.7" cy="312.5" rx="6.7" ry="3.9"/>
<path class="st5" d="M126.4,433.8c0,0-3.7,13.1,9.2,14.1c10,0.8,20.7-12.9,21.7-21.9c0.4-3.4-2.1-6.5-5.5-7
	c-4.6-0.6-10.8,1.8-19.1,7.9C130,428.8,126.4,433.8,126.4,433.8z"/>
<path class="st9" d="M140.6,421.8c0,0,6,10.4,5,11.2c0,0,7.5-2.8,7.8-4.8c0.3-2-4-8.8-4-8.8L140.6,421.8z"/>
<path class="st18" d="M55.5,293.3c0,0-7.4,29.5,6.9,28.1l3.4-12.5L64.5,296L55.5,293.3z"/>
<path class="st18" d="M119.5,368.6c0,0,2,16.7,2.7,21.5c0.7,4.8,4.8,38.8,4.7,43c-0.1,4.3,8.2,1,9.7-5.5s6.7-37.3,6.7-37.3
	s8.5-40.8,0.8-43.8s-16,1.7-16.5,2.2s-7.7,13.5-8,14S119.5,368.6,119.5,368.6z"/>
<path class="st9" d="M69.4,257.6c0,0-3.3-9.3-7.9,1S52.6,295,52.6,295s5.9,4.8,11,5.1s3.2-12.8,3.2-12.8L69.4,257.6z"/>
<path class="st5" d="M66.7,357.3c0,0-2.5,36.8,49.8,22c0,0,18.8-32.7,29.5-32c0,0-3.5-10.5-28.3-12.7l-29.2,18.2l-13.8,3.5
	L66.7,357.3z"/>
<path class="st18" d="M101,279.4c0,0,4.6-1,5.3-3.5c0.8-2.5-3.6-20.8,7-18.8c0,0,6-1.6,5.1,3.8c0,0,8,0.6,6.9,6.4
	c0,0-10.2,10.2-3,18.1c0,0-5.1,5.9-9.9,4.6c0,0-6.2,3.1-6.3,4.3s-5.2-8.4-5.2-8.4V279.4z"/>
<path class="st9" d="M66.8,251.3c0,0-13.6,94.7-0.9,111.3c0,0,40.7,17.3,53.7-29l-14.3-49c0,0-12.3-39.3-18.8-33.3l-8.5-4.7
	L66.8,251.3z"/>
<g>
	<path class="st19" d="M52,239.8l1.1,13c0,0-10.1-5-10.6-8.5l-0.7,6.2c0,0-10.1-5-14.2-17.3c0,0-2.6,5.9-2,8.4
		c0,0-29.1-60.8,31-75.7c0,0,4.1-3.5,5.6-5.9c0.3-0.5,1-0.5,1.3,0c0.8,1.4,2.1,3.3,3.7,4.1c2.6,1.2,19-6.2,37.7,20.1
		c0,0,16.5,23.5,6.7,44.9l-5.5-5.9c0,0-0.1,12.1-1.1,13.9l-3.6-3.7l-3.2,9.8l-5.7-7.4l-9.8,3l-12,5.3l-12.6-1.1L52,239.8z"/>
	
		<ellipse transform="matrix(0.8948 -0.4464 0.4464 0.8948 -96.6989 40.4296)" class="st18" cx="37.5" cy="225.4" rx="4.8" ry="7.6"/>
	<ellipse transform="matrix(0.9822 -0.188 0.188 0.9822 -37.7956 22.823)" class="st18" cx="101.5" cy="210.7" rx="4.8" ry="7.6"/>
	<path class="st18" d="M102.4,209.9c3.4,17.9-7.3,40.6-25.2,44c-17.9,3.4-37.6-13.7-41.1-31.6c-0.3-1.4-0.4-2.8-0.5-4.2
		c-0.2-4.5,0.8-8.6,2.7-12.1c3.6,2.4,7,4.6,7,4.6s-1.9-10.6-3.6-14.7c0.2-0.2,9.8,9.4,9.8,9.4s5-5.9,4.4-8.8c0,0,6.2,7.1,8.1,6.6
		c1.6-0.4,2.1-9.3,1.1-14.1c0.2,0,5.2,12.2,7.5,13.7c2.2,1.5,6.1-8.3,7.7-13.9c0.9,0.1,6.9,8.8,7.2,9.6c0.3,0.6,2.7-2.1,4.5-5
		c3.2,2.2,5.8,5.1,7.7,8.8C101,204.4,101.9,207,102.4,209.9z"/>
	<ellipse transform="matrix(0.9822 -0.188 0.188 0.9822 -40.0337 14.2975)" cx="55.4" cy="218.3" rx="3" ry="6.3"/>
	<circle class="st13" cx="55.3" cy="217.8" r="1.9"/>
	<path class="st15" d="M48.5,215.6c0,0,4.4-5,10.2-2.7"/>
	<ellipse transform="matrix(0.9822 -0.188 0.188 0.9822 -38.6309 19.0261)" cx="81" cy="213.2" rx="3" ry="6.3"/>
	<circle class="st13" cx="80.9" cy="212.7" r="1.9"/>
	<path class="st15" d="M86.4,208.2c0,0-5.9-3.1-10.5,1.2"/>
	<path class="st15" d="M65.9,224.6c0,0,3.2-3.5,7.4-1.4"/>
	<path class="st15" d="M60.9,237.1c0,0,15.4,10.9,21.8-4.9"/>
	<path class="st15" d="M43.9,212.2c0,0,6.3-8.7,16-5.8"/>
	<path class="st15" d="M72.3,203.6c0,0,7.1-5.6,15.4-1.9"/>
</g>
<path class="st9" d="M84.5,251.3c0,0-12.2,24,9.4,58.6c0,0,4.7-15.7,11.3-25.3"/>
<path class="st18" d="M94.7,307.3c0,0,15.4,37.3,26.9,20.4c0,0,11.8-20.1,13.9-21.6s8.9-3.9,9.6-6c0.8-2.1,3.1-7.5,7.3-8.4
	s4.1-10.4-3.9-8.3c0,0,9.1-6,0.3-8.6c0,0-3.9-9.7-10.4-2.2c-1.1,1.2-1.9,2.7-2.5,4.2c-2.5,6.2-11.4,27.5-18.4,27.8
	c0,0-9.4-10-13.3-18.7L94.7,307.3z"/>
<line class="st15" x1="120.5" y1="310.9" x2="117.7" y2="304.9"/>
<path class="st15" d="M142.1,277.1c0,0,2.5-3.3,6.7-2.3"/>
<path class="st15" d="M113.2,266.9c0,0,2.1-5.7,5.2-6.1"/>
<path class="st15" d="M109.4,265.4c0,0,1.6-8.2,3.9-8.4"/>
</svg>
