<?xml version="1.0" encoding="utf-8"?>
<!-- Generator: Adobe Illustrator 22.1.0, SVG Export Plug-In . SVG Version: 6.00 Build 0)  -->
<svg version="1.1" id="Слой_5" xmlns="http://www.w3.org/2000/svg" xmlns:xlink="http://www.w3.org/1999/xlink" x="0px" y="0px"
	 viewBox="0 0 512 512" style="enable-background:new 0 0 512 512;" xml:space="preserve">
<style type="text/css">
	.st0{fill:#315164;}
	.st1{fill:#EB8C30;stroke:#000000;stroke-width:2;stroke-linecap:round;stroke-linejoin:round;stroke-miterlimit:10;}
	.st2{fill:#FFBC85;stroke:#000000;stroke-width:2;stroke-linecap:round;stroke-linejoin:round;stroke-miterlimit:10;}
	.st3{fill:none;stroke:#000000;stroke-width:3;stroke-linecap:round;stroke-linejoin:round;stroke-miterlimit:10;}
	.st4{fill:#315164;stroke:#000000;stroke-width:2.9888;stroke-linecap:round;stroke-linejoin:round;stroke-miterlimit:10;}
	.st5{fill:none;stroke:#000000;stroke-width:2.9888;stroke-linecap:round;stroke-linejoin:round;stroke-miterlimit:10;}
	.st6{fill:#315164;stroke:#000000;stroke-width:2.9256;stroke-linecap:round;stroke-linejoin:round;stroke-miterlimit:10;}
	.st7{fill:#315164;stroke:#000000;stroke-width:2.7854;stroke-linecap:round;stroke-linejoin:round;stroke-miterlimit:10;}
	.st8{fill:#857154;stroke:#000000;stroke-width:1.4766;stroke-linecap:round;stroke-linejoin:round;stroke-miterlimit:10;}
	.st9{fill:#F0E3B2;stroke:#000000;stroke-width:3.1146;stroke-linecap:round;stroke-linejoin:round;stroke-miterlimit:10;}
	.st10{fill:#1D1D1B;}
	.st11{fill:#816164;stroke:#000000;stroke-width:2;stroke-linecap:round;stroke-linejoin:round;stroke-miterlimit:10;}
	.st12{fill:#FDCD95;stroke:#000000;stroke-width:1.4766;stroke-linecap:round;stroke-linejoin:round;stroke-miterlimit:10;}
	.st13{fill:none;stroke:#000000;stroke-width:1.4766;stroke-linecap:round;stroke-linejoin:round;stroke-miterlimit:10;}
	.st14{fill:#B5D758;stroke:#000000;stroke-width:2;stroke-linecap:round;stroke-linejoin:round;stroke-miterlimit:10;}
	.st15{fill:#FDCD95;stroke:#000000;stroke-width:1.4171;stroke-linecap:round;stroke-linejoin:round;stroke-miterlimit:10;}
	.st16{fill:none;stroke:#000000;stroke-width:1.4171;stroke-linecap:round;stroke-linejoin:round;stroke-miterlimit:10;}
	.st17{fill:#B5D758;stroke:#000000;stroke-width:1.4171;stroke-linecap:round;stroke-linejoin:round;stroke-miterlimit:10;}
</style>
<g>
	<polygon class="st0" points="64.6,259.1 64.6,295.8 468.6,295.8 452.3,255.9 64.6,252.2 	"/>
	<ellipse class="st1" cx="257.5" cy="365.9" rx="203.4" ry="41.9"/>
	<ellipse class="st2" cx="257.5" cy="365.9" rx="141.1" ry="29.1"/>
	<line class="st3" x1="479.7" y1="295.8" x2="72.9" y2="295.8"/>
	<path class="st4" d="M439.1,242.3v16.7H72.9v-30.1l15.3-10.3l79.7,0.3c0.7,4.3,2.9-1.5,4,1.1c2.3,5.6,2.1,1,8.5-1.4
		c0.1,0.7,16.1,5,16.3,5.3c0.6,1,16.9,2.1,30.3,1.5c-2.4,3-14.8,11.5-14.8,11.5l2.2,3c-7.5,5.7,6.3,8.2-3.2,6.1
		c-10.3-2.3-7.9-1.7,1,2.5c4.7,2.2,4.4,4.1,7.5-1.2l7-12.4l14.8-4.9c18.3-0.6,46.6,2.3,60.2,4c1.3,0.6,2.6,1.1,3.8,1.5
		c-0.3,0.1-0.5,0.2-0.8,0.4c-4.1,2.3-10.4,8.4-10.7,9.5c-0.2,1.1-0.7,3.3,1.8,1.5c0,0-1.8,4.8,3.2,0.4c0,0,6,1.4,10.8-1.3
		c3.2,1.5,36.6-5.4,54.8-18.4c0.3-0.2,0.5-0.4,0.8-0.6c3-1.2,6-2.4,8.8-3.6c2.9-1.3,5.7-2.9,8.2-4.7h8.8c0.8,7.1,5.8,13.3,13.1,15.1
		l31.9,8.1C437.2,242.1,438.2,242.2,439.1,242.3z"/>
	<line class="st5" x1="72.9" y1="259.1" x2="70.6" y2="259.1"/>
	<polygon class="st6" points="103.6,168.9 95.1,218.4 92.4,215.6 72.9,228.9 64.6,232.9 43.9,183 99,170 	"/>
	<path class="st7" d="M72.9,195v100.8h-41V195c0-6.6,5.4-12,12-12h17C67.5,183,72.9,188.4,72.9,195z"/>
	<path class="st7" d="M480.1,194.6v100.8h-41V194.6c0-1.6,0.3-3.1,0.9-4.5c1.8-4.4,6.1-7.5,11.1-7.5h17c0.1,0,0.2,0,0.4,0
		C474.9,182.8,480.1,188.1,480.1,194.6z"/>
	<path class="st6" d="M443.9,218.6H88.2c0-17.4,3.9-33.9,10.8-48.7c5.7-12,13.4-22.9,22.7-32.2c20.7-20.7,49.3-33.5,80.9-33.5h122.1
		c33.1,0,64.2,14,86.3,36.5c2.8,2.8,5.4,5.7,7.8,8.8c0.8,0.9,1.5,1.8,2.2,2.8c1.7,2.3,3.4,4.6,4.9,7c4.1,6.3,7.6,13,10.3,19.9
		c1.4,3.6,2.7,7.2,3.7,11C442.5,199.2,443.9,208.8,443.9,218.6z"/>
	<polygon class="st8" points="64.6,295.8 61.9,320.4 52.4,320.4 48.4,295.8 	"/>
	<polygon class="st8" points="468.6,295.8 465.8,320.4 456.3,320.4 452.3,295.8 	"/>
	<path class="st9" d="M468,188l-10.5,41.2c-2.1,8.4-10,13.8-18.4,13.1c-1-0.1-1.9-0.2-2.9-0.5l-31.9-8.1
		c-7.3-1.9-12.3-8.1-13.1-15.1c-0.2-2-0.1-4.1,0.4-6.2l1.1-4.2l1.1-4.3l1.4-5.5l2-7.7l0.5-2l2.4-9.4l0.3-1.4l1.7-6.8
		c1.9-7.6,8.6-12.8,16-13.2c1.3-0.1,2.7,0,4,0.2c0.4,0.1,0.9,0.2,1.3,0.3l2.6,0.6l19.1,4.9l10.3,2.6c7.5,1.9,12.7,8.5,13.2,15.9
		C468.6,184.4,468.5,186.2,468,188z"/>
	<path class="st1" d="M190,227.9c0,0-3,1.6-7,3c-6.4,2.3-15.1,4.3-17.4-1.3c-1.1-2.6-2-6.7-2.7-11c-1.7-10.7-1.6-22.6,2.7-16.4
		c3.6,5.2,5.2,12.1,8.4,16.4c1.9,2.6,4.4,4.3,8.2,4.3c0.4,0,0.9,0,1.4,0C195.3,221.9,190,227.9,190,227.9z"/>
	<path class="st10" d="M293.3,123.3c0,0-27,58.5,5.6,91.6L293.3,123.3z"/>
	<path class="st10" d="M350.6,125.1c0,0-27,58.5,5.6,91.6L350.6,125.1z"/>
	<path class="st10" d="M234.2,126.6c0,0-27,58.5,5.6,91.6L234.2,126.6z"/>
	<path class="st1" d="M224.1,237.6c0,0-1.8,4.9-4.5,9.7c-3.1,5.3-7.5,10.3-12.1,8.1c-8.9-4.1-28.9-22.4-18.6-20.1
		c9.5,2.1,18,10.2,25.5,4.6c0.6-0.5,1.2-1,1.8-1.7C224,229.5,224.1,237.6,224.1,237.6z"/>
	<path class="st11" d="M320.5,209.8v28.5c0,0-0.3,0-0.8,0c-0.6,0-1.7,0-3-0.2c-1.5-0.2-3.3-0.5-5.5-1c-1.7-0.4,4.1-8.5,2-9.2
		c-1.2-0.4-7.5-4.2-8.8-4.8c-6.7-2.9-17.6,3.2-26.4-4.5c-3.6-3.2-7.4-6.9-11.2-11.2l-12.6,11.2l-12.8,11.3l-21,18.5l-0.9-1.2
		l-5.3-7.4l-2.2-3c0,0,1.4-1.8,3.8-4.9c2.6-3.3,6.4-8.1,10.8-13.3c2.8-3.3,5.8-6.8,8.9-10.3c12.9-14.3,27.5-28.1,34.1-25.2
		c8.9,3.8,29.1,14.7,41.2,21.4C316.6,207.6,320.5,209.8,320.5,209.8z"/>
	<path class="st11" d="M326.5,212.5v22.3h-17c0,0-3-0.4-7.9-1c-13.6-1.6-41.9-4.6-60.2-4c-4.8,0.2-9,0.6-12,1.3c0,0-6,0.3-13.6,0.7
		c-13.3,0.6-31.8,1.3-32.4,0.4c-0.2-0.3-0.3-0.8-0.5-1.5c-0.4-2.1-0.7-5.6-0.8-8c-0.1-1.4-0.1-2.4-0.1-2.4s3-0.7,7.9-1.9
		c10.8-2.6,30.4-7.2,45.5-10.3c10.1-2.1,18.2-3.5,20.1-3.2c4.3,0.7,37.3,4,56.7,5.9c3.1,0.3,5.9,0.6,8.2,0.8
		C324.2,212.3,326.5,212.5,326.5,212.5z"/>
	<g>
		<path class="st12" d="M401.9,179.7c0,0-2.1,7.1-6.1,11.4c0,0-11.8-6.9-11.9-7.3s5.7-5.4,4.9-6.8c-0.8-1.4,2.3-2.5,2.3-2.5l8.9,3.1
			L401.9,179.7z"/>
		<path class="st12" d="M419.5,136.4c0,0-15.4,7.8-17,8.5c-1.6,0.6-10.4,0.5-11.3,3c-0.9,2.5-0.2,3.2-4.3,6.9
			c-3.8,3.5-15.3,13.5-2.8,20.4c1.7,0.9,3.6,1.6,5.5,2c4.3,0.9,12.8,3.1,17.2,2.9c1.1,0,2.2,0,3.3,0c4.4,0.3,14.9,0.2,12.7-9
			c-0.4-1.8,7.9-5.7,6-5.8c-0.1,0-8.2-3.4-4-4.4c0,0-10.1-7.1-0.1-11.2l-1.5-6.7L419.5,136.4z"/>
		<path class="st13" d="M386,155.6c0,0-0.6,4.8,4.3,7.7"/>
		<path class="st13" d="M401.8,148.9c0,0,5.3,3.2,3.8,8.3c0,0,0.7,2.4,1.7,3.1"/>
		<path class="st13" d="M409.2,147.6c0,0,4.2,3.9,2.7,9.4"/>
		<path class="st13" d="M405.4,175.6c0,0,0.8,3.1,4.6,4.5"/>
		<path class="st8" d="M419.9,148.9c0,0-10.5-12.6-2.2-14.6c8.3-2,18.6-2.3,25.6,10.9c7,13.2,0.5,28.5-11.9,38.7
			c-10.2,8.4-17.3,8.4-21,7.5s-9-3.2-10.3-4.6s1.8-7.1,1.8-7.1s24.3,4.6,20.9-8.6c0,0-1.4-4.5-4.7-3.3c0,0-5.7-5.4,2.7-6.8
			C420.8,161,411.3,153,419.9,148.9z"/>
	</g>
	<path class="st14" d="M398.1,192.6c0,5.1-2,10.6-5.4,15.6c-2.6,3.8-6.1,7.4-10.2,10.4c-2.5,1.8-5.3,3.4-8.2,4.7
		c-2.8,1.2-5.8,2.4-8.8,3.6c-21.3,8.2-45,14.3-45,14.3l-0.8-2.9l-0.9-3.4l-0.4-1.5l-4-14.8l-2-7.5l-1.8-6.6c0.1,0,0.2,0,0.3,0
		c11.9-0.3,26.7-2.6,35.1-6.6c4.3-2.1,31.6-14.6,39.5-15.9c0.5-0.1,0.9-0.1,1.2-0.1c4,0.1,8,5,10,8.2c0.2,0.3,0.3,0.5,0.5,0.7
		C397.8,191.8,398.1,192.5,398.1,192.6z"/>
	<g>
		<path class="st15" d="M317.1,239c0,0,0,0-4.8,5c-0.7,0.8-1.5,1.3-2.4,1.8c-4.8,2.6-10.8,1.3-10.8,1.3c-5,4.4-3.2-0.4-3.2-0.4
			c-2.5,1.8-2-0.4-1.8-1.5c0.2-1.1,6.6-7.2,10.7-9.5c0.3-0.1,0.5-0.3,0.8-0.4c2.2-0.8,5-0.5,7.2,0c1.9,0.4,3.3,1,3.3,1l0.8,1.7
			L317.1,239z"/>
		<path class="st16" d="M304.4,243c0,0-4,1.3-5.4,4.1"/>
		<path class="st17" d="M393.8,204c-2.8,4.3-9,9.1-16.7,14.6c-3.6,2.6-7.6,5.3-11.7,8.3c-0.3,0.2-0.5,0.4-0.8,0.6
			c-18.2,13-51.6,19.8-54.8,18.4c-0.2-0.1-0.3-0.2-0.3-0.3c-0.2-3.1,0.9-6.6,1.5-8.5c0.3-0.9,0.6-1.4,0.6-1.4s0.3-0.1,0.9-0.3
			c0.4-0.1,0.9-0.3,1.5-0.5c1.1-0.4,2.6-0.9,4.3-1.5c0.7-0.2,1.4-0.5,2.1-0.7c1.9-0.6,3.9-1.3,6-2.1c9.1-3.2,19.4-7.1,21.5-8.8
			c0.6-0.5,2-1.6,3.9-3.2c10.3-8.4,36.5-28.6,41.9-22.8c0.8,0.8,1.3,1.7,1.5,2.6C395.6,200.2,395,202,393.8,204z"/>
		<path class="st16" d="M301.3,240.9c0,0-3.2,2.5-5.5,5.8"/>
	</g>
	<path class="st10" d="M473.7,203.1c0,4.6-3.7,8.3-8.3,8.3c-0.7,0-1.4-0.1-2-0.2l4.1-16.1C471,195.9,473.7,199.2,473.7,203.1z"/>
	<circle class="st10" cx="52.2" cy="203.2" r="8.3"/>
	<path class="st10" d="M48.4,227.9c0,0,3.9,18.4,3.8,31.2c0,12.8-1.9,26.8-1.9,26.8S73.6,254.9,48.4,227.9z"/>
	<path class="st10" d="M465.5,230.1c0,0-3.9,18.4-3.8,31.2c0,12.8,1.9,26.8,1.9,26.8S440.3,257.1,465.5,230.1z"/>
	<path class="st10" d="M112.1,278.9c0,0,135.1-19.7,297.1-4.8L112.1,278.9z"/>
	<path class="st10" d="M176.6,128.9c0,0-27,58.5,5.6,91.6L176.6,128.9z"/>
	<path class="st10" d="M429.1,200.9l30.5-23C459.6,177.9,464.5,205.9,429.1,200.9z"/>
	<path class="st10" d="M428.5,201.7L393,215.6C393,215.6,414.2,234.5,428.5,201.7z"/>
	<path class="st10" d="M429.1,202.7l10.6,36.7C439.7,239.4,460.4,220,429.1,202.7z"/>
</g>
</svg>
