<?xml version="1.0" encoding="utf-8"?>
<!-- Generator: Adobe Illustrator 22.1.0, SVG Export Plug-In . SVG Version: 6.00 Build 0)  -->
<svg version="1.1" id="Слой_1" xmlns="http://www.w3.org/2000/svg" xmlns:xlink="http://www.w3.org/1999/xlink" x="0px" y="0px"
	 viewBox="0 0 283.5 283.5" style="enable-background:new 0 0 283.5 283.5;" xml:space="preserve">
<style type="text/css">
	.st0{clip-path:url(#SVGID_2_);fill-rule:evenodd;clip-rule:evenodd;fill:#FFFFFF;}
	.st1{clip-path:url(#SVGID_4_);fill:none;stroke:#12100B;stroke-linecap:round;stroke-linejoin:round;stroke-miterlimit:10;}
	.st2{clip-path:url(#SVGID_6_);fill:none;stroke:#12100B;stroke-linecap:round;stroke-linejoin:round;stroke-miterlimit:10;}
	.st3{clip-path:url(#SVGID_6_);fill-rule:evenodd;clip-rule:evenodd;fill:#FFFFFF;}
	
		.st4{clip-path:url(#SVGID_6_);fill:none;stroke:#12100B;stroke-width:0.75;stroke-linecap:round;stroke-linejoin:round;stroke-miterlimit:10;}
	.st5{clip-path:url(#SVGID_8_);fill:none;stroke:#12100B;stroke-linecap:round;stroke-linejoin:round;stroke-miterlimit:10;}
	.st6{clip-path:url(#SVGID_10_);fill:none;stroke:#12100B;stroke-linecap:round;stroke-linejoin:round;stroke-miterlimit:10;}
	.st7{clip-path:url(#SVGID_10_);fill-rule:evenodd;clip-rule:evenodd;fill:#FFFFFF;}
	
		.st8{clip-path:url(#SVGID_10_);fill:none;stroke:#12100B;stroke-width:0.75;stroke-linecap:round;stroke-linejoin:round;stroke-miterlimit:10;}
	
		.st9{clip-path:url(#SVGID_10_);fill:none;stroke:#12100B;stroke-width:0.9;stroke-linecap:round;stroke-linejoin:round;stroke-miterlimit:10;}
	
		.st10{clip-path:url(#SVGID_12_);fill:none;stroke:#12100B;stroke-width:0.9;stroke-linecap:round;stroke-linejoin:round;stroke-miterlimit:10;}
	
		.st11{clip-path:url(#SVGID_14_);fill:none;stroke:#12100B;stroke-width:0.9;stroke-linecap:round;stroke-linejoin:round;stroke-miterlimit:10;}
	
		.st12{clip-path:url(#SVGID_16_);fill:none;stroke:#12100B;stroke-width:0.9;stroke-linecap:round;stroke-linejoin:round;stroke-miterlimit:10;}
	
		.st13{clip-path:url(#SVGID_18_);fill:none;stroke:#12100B;stroke-width:0.9;stroke-linecap:round;stroke-linejoin:round;stroke-miterlimit:10;}
	.st14{clip-path:url(#SVGID_18_);fill-rule:evenodd;clip-rule:evenodd;fill:#009D41;}
	.st15{clip-path:url(#SVGID_18_);fill-rule:evenodd;clip-rule:evenodd;fill:#12100B;}
	.st16{clip-path:url(#SVGID_18_);fill-rule:evenodd;clip-rule:evenodd;fill:#FFFFFF;}
	.st17{clip-path:url(#SVGID_18_);fill:#009D41;}
	
		.st18{clip-path:url(#SVGID_20_);fill:none;stroke:#12100B;stroke-width:0.9;stroke-linecap:round;stroke-linejoin:round;stroke-miterlimit:10;}
	
		.st19{clip-path:url(#SVGID_22_);fill:none;stroke:#12100B;stroke-width:0.9;stroke-linecap:round;stroke-linejoin:round;stroke-miterlimit:10;}
	
		.st20{clip-path:url(#SVGID_24_);fill:none;stroke:#12100B;stroke-width:0.9;stroke-linecap:round;stroke-linejoin:round;stroke-miterlimit:10;}
	
		.st21{clip-path:url(#SVGID_26_);fill:none;stroke:#12100B;stroke-width:0.9;stroke-linecap:round;stroke-linejoin:round;stroke-miterlimit:10;}
	.st22{clip-path:url(#SVGID_26_);fill-rule:evenodd;clip-rule:evenodd;fill:#009D41;}
	.st23{clip-path:url(#SVGID_26_);fill-rule:evenodd;clip-rule:evenodd;fill:#FFFFFF;}
	.st24{clip-path:url(#SVGID_26_);fill-rule:evenodd;clip-rule:evenodd;fill:#12100B;}
	
		.st25{clip-path:url(#SVGID_26_);fill:none;stroke:#12100B;stroke-width:0.873;stroke-linecap:round;stroke-linejoin:round;stroke-miterlimit:10;}
	
		.st26{clip-path:url(#SVGID_26_);fill:none;stroke:#12100B;stroke-width:0.5;stroke-linecap:round;stroke-linejoin:round;stroke-miterlimit:10;}
	.st27{clip-path:url(#SVGID_28_);fill-rule:evenodd;clip-rule:evenodd;fill:#12100B;}
	.st28{clip-path:url(#SVGID_28_);fill-rule:evenodd;clip-rule:evenodd;fill:#FFFFFF;}
	
		.st29{clip-path:url(#SVGID_30_);fill:none;stroke:#12100B;stroke-width:0.5;stroke-linecap:round;stroke-linejoin:round;stroke-miterlimit:10;}
	.st30{clip-path:url(#SVGID_30_);fill-rule:evenodd;clip-rule:evenodd;fill:#FFFFFF;}
	
		.st31{clip-path:url(#SVGID_30_);fill:none;stroke:#12100B;stroke-width:0.873;stroke-linecap:round;stroke-linejoin:round;stroke-miterlimit:10;}
	.st32{clip-path:url(#SVGID_30_);fill-rule:evenodd;clip-rule:evenodd;fill:#12100B;}
	.st33{clip-path:url(#SVGID_32_);fill-rule:evenodd;clip-rule:evenodd;fill:#12100B;}
	.st34{clip-path:url(#SVGID_32_);fill-rule:evenodd;clip-rule:evenodd;fill:#FFFFFF;}
	
		.st35{clip-path:url(#SVGID_34_);fill:none;stroke:#12100B;stroke-width:0.5;stroke-linecap:round;stroke-linejoin:round;stroke-miterlimit:10;}
	
		.st36{clip-path:url(#SVGID_34_);fill:none;stroke:#12100B;stroke-width:0.9;stroke-linecap:round;stroke-linejoin:round;stroke-miterlimit:10;}
	.st37{clip-path:url(#SVGID_34_);fill-rule:evenodd;clip-rule:evenodd;fill:#12100B;}
	
		.st38{clip-path:url(#SVGID_34_);fill:none;stroke:#12100B;stroke-width:0.873;stroke-linecap:round;stroke-linejoin:round;stroke-miterlimit:10;}
</style>
<g>
	<defs>
		<rect id="SVGID_1_" width="283.5" height="283.5"/>
	</defs>
	<clipPath id="SVGID_2_">
		<use xlink:href="#SVGID_1_"  style="overflow:visible;"/>
	</clipPath>
	<path class="st0" d="M238.5,150.3l13.8,1.3c2.7,0.3,5.7,0.2,6.5-1.2c0,0,1.9-9.7,1.1-19.4c-0.5-6.1-2.9-7.3-4.4-6.4
		c-2.1,1.2-4,19.4-4,19.4s-13.2-0.8-13.3-0.8C238.3,143.2,238.5,150.3,238.5,150.3"/>
</g>
<g>
	<defs>
		<path id="SVGID_3_" d="M255.6,124.6c-2.1,1.2-4,19.4-4,19.4s-13.2-0.8-13.3-0.8c0,0,0.2,7.1,0.2,7.1l13.8,1.3
			c2.7,0.3,5.7,0.2,6.5-1.2c0,0,1.9-9.7,1.1-19.4c-0.4-4.9-2.1-6.7-3.5-6.7C256.2,124.3,255.9,124.4,255.6,124.6"/>
	</defs>
	<clipPath id="SVGID_4_">
		<use xlink:href="#SVGID_3_"  style="overflow:visible;"/>
	</clipPath>
	<path class="st1" d="M253.9,147.7c1.5,0.3,2.9-10.7,2.1-15.1c-0.5-2.6-4.5-2.6-5.3-2.3l-2.2,10.9l-11.3-0.1l-0.7,11.8L253.9,147.7z
		"/>
</g>
<g>
	<defs>
		<rect id="SVGID_5_" width="283.5" height="283.5"/>
	</defs>
	<clipPath id="SVGID_6_">
		<use xlink:href="#SVGID_5_"  style="overflow:visible;"/>
	</clipPath>
	<path class="st2" d="M238.5,150.3l13.8,1.3c2.7,0.3,5.7,0.2,6.5-1.2c0,0,1.9-9.7,1.1-19.4c-0.5-6.1-2.9-7.3-4.4-6.4
		c-2.1,1.2-4,19.4-4,19.4s-13.2-0.8-13.3-0.8C238.3,143.2,238.5,150.3,238.5,150.3z"/>
	<path class="st3" d="M253.3,145.9c-1.5-0.8-1.9-2.1-1.9-2.1"/>
	<path class="st4" d="M253.3,145.9c-1.5-0.8-1.9-2.1-1.9-2.1"/>
	<path class="st3" d="M245.4,154l13.8,1.3c2.7,0.3,4.6-0.6,5.4-2.1c0,0,3.6-10.1,2.7-19.7c-0.5-6.1-2.8-6.5-4.3-5.6
		c-2.1,1.2-6.5,20-6.5,20s-11.3-1.3-11.4-1.4C245.2,146.5,245.4,154,245.4,154"/>
</g>
<g>
	<defs>
		<path id="SVGID_7_" d="M263.2,127.9c-2.1,1.2-6.5,20-6.5,20s-11.3-1.3-11.3-1.4c0,0,0.2,7.5,0.2,7.5l13.8,1.3
			c2.7,0.3,4.6-0.6,5.4-2.1c0,0,3.6-10.1,2.7-19.7c-0.4-4.6-1.8-6-3.1-6C263.9,127.5,263.5,127.7,263.2,127.9"/>
	</defs>
	<clipPath id="SVGID_8_">
		<use xlink:href="#SVGID_7_"  style="overflow:visible;"/>
	</clipPath>
	<path class="st5" d="M259.7,156c1.7-0.8,4.3-15.9,3.2-18.7c-1-2.4-4.5-3.5-5.3-3.3l-2.2,10.9l-11.3-0.1l-0.7,11.8L259.7,156z"/>
</g>
<g>
	<defs>
		<rect id="SVGID_9_" width="283.5" height="283.5"/>
	</defs>
	<clipPath id="SVGID_10_">
		<use xlink:href="#SVGID_9_"  style="overflow:visible;"/>
	</clipPath>
	<path class="st6" d="M245.4,154l13.8,1.3c2.7,0.3,4.6-0.6,5.4-2.1c0,0,3.6-10.1,2.7-19.7c-0.5-6.1-2.8-6.5-4.3-5.6
		c-2.1,1.2-6.5,20-6.5,20s-11.3-1.3-11.4-1.4C245.2,146.5,245.4,154,245.4,154z"/>
	<path class="st7" d="M258.5,150.1c-0.8-0.8-1.4-1.6-1.6-2.4"/>
	<path class="st8" d="M258.5,150.1c-0.8-0.8-1.4-1.6-1.6-2.4"/>
	<path class="st7" d="M77.7,141.2c3.3,2.4,5.7,5.4,6.8,9.3c0,0-5.9,6.1-13.8,7.5c-21.6,4-18.8,0.5-31-1.1c-17-2.2-27.4-11.1-31.5-15
		c5.6-14.7,15.7-17.9,18.6-23.4L77.7,141.2z"/>
	<path class="st9" d="M77.7,141.2c3.3,2.4,5.7,5.4,6.8,9.3c0,0-5.9,6.1-13.8,7.5c-21.6,4-18.8,0.5-31-1.1c-17-2.2-27.4-11.1-31.5-15
		c5.6-14.7,15.7-17.9,18.6-23.4L77.7,141.2z"/>
	<path class="st7" d="M87.2,110.7c-9.9-7.8-21.5-15.1-48.4-17.4c-2.7,7.8-8.7,14.3-16.8,20.7c0,0,1.6,1.3,2.7,4.6s5.9,8.8,11.9,11.6
		c6,2.8,7.3,5.6,13.3,9.1s9.6,5.8,16.7,5c7.2-0.8,12.6,0.8,14.4-0.5c1.7-1.3,10.2-18.4,10.2-18.4L87.2,110.7z"/>
	<path class="st9" d="M87.2,110.7c-9.9-7.8-21.5-15.1-48.4-17.4c-2.7,7.8-8.7,14.3-16.8,20.7c0,0,1.6,1.3,2.7,4.6s5.9,8.8,11.9,11.6
		c6,2.8,7.3,5.6,13.3,9.1s9.6,5.8,16.7,5c7.2-0.8,12.6,0.8,14.4-0.5c1.7-1.3,10.2-18.4,10.2-18.4L87.2,110.7z"/>
</g>
<g>
	<defs>
		<path id="SVGID_11_" d="M18.7,139.4c3.8,5.8,12.4,7.4,21.1,5.4c-4.7-3.2-10-5.8-16.5-5.8C21.9,138.9,20.3,139.1,18.7,139.4"/>
	</defs>
	<clipPath id="SVGID_12_">
		<use xlink:href="#SVGID_11_"  style="overflow:visible;"/>
	</clipPath>
	<path class="st10" d="M27.6,136.7c-4,1.7-6,4.1-7,6.8"/>
	<path class="st10" d="M30.7,138.4c-4,1.7-6,4.1-7,6.8"/>
	<path class="st10" d="M33.7,140.1c-4,1.7-6,4.1-7,6.8"/>
	<path class="st10" d="M37,141.9c-4,1.7-6,4.1-7,6.8"/>
</g>
<g>
	<defs>
		<rect id="SVGID_13_" width="283.5" height="283.5"/>
	</defs>
	<clipPath id="SVGID_14_">
		<use xlink:href="#SVGID_13_"  style="overflow:visible;"/>
	</clipPath>
	<path class="st11" d="M39.8,144.7c-5.8-4-12.5-6.9-21.1-5.4C22.5,145.2,31.1,146.8,39.8,144.7z"/>
	<path class="st11" d="M30.7,126.6c-2.5,1.6-5.7,2.1-7.5,5.2"/>
	<path class="st11" d="M265.7,151.2c2.5,1.9,4.3,3.5,6.4,5.4c2,1.9,4.1,4,4.7,5.3c1.7,4.1,1.7,6,1.2,11.5
		c-0.5,5.4,0.2,12.3,0.2,12.3"/>
	<path class="st11" d="M17,149.2c-2,2.2-3.7,4.4-3.9,5.4c-0.6,2.4-2.8,16.4-0.4,27.9"/>
	<path class="st11" d="M276.8,162.5l-250,0.8c0,0-10.2,0.2-12.6-2.4c-1.8-1.9-1.3-4.4-1.3-4.4"/>
	<path class="st11" d="M21.4,160.3c-4.3,1.9-3.1,4.5-2.1,11.9"/>
	<path class="st11" d="M16.8,158.3c-4.9,2.7-1.5,6.4-0.5,24.2"/>
</g>
<g>
	<defs>
		<path id="SVGID_15_" d="M48.8,125.4c-4-5.6-9.2-10.3-17.8-11C32.5,121.2,40,125.1,48.8,125.4"/>
	</defs>
	<clipPath id="SVGID_16_">
		<use xlink:href="#SVGID_15_"  style="overflow:visible;"/>
	</clipPath>
	<path class="st12" d="M40.3,114.1c-4.3,0.7-7.1,2.5-9,5"/>
	<path class="st12" d="M42.6,116.6c-4.3,0.7-7.1,2.5-9,5"/>
	<path class="st12" d="M44.8,119.1c-4.3,0.7-7.1,2.5-9,5"/>
	<path class="st12" d="M47.2,121.8c-4.3,0.7-7.1,2.5-9,5"/>
</g>
<g>
	<defs>
		<rect id="SVGID_17_" width="283.5" height="283.5"/>
	</defs>
	<clipPath id="SVGID_18_">
		<use xlink:href="#SVGID_17_"  style="overflow:visible;"/>
	</clipPath>
	<path class="st13" d="M48.8,125.4c-4-5.6-9.2-10.3-17.8-11C32.5,121.2,40,125.1,48.8,125.4z"/>
	<path class="st13" d="M29.9,130.3c0.5-1,1.4-1.8,2.9-2.3"/>
	<path class="st14" d="M152,128.5c30.9,3.4,62.6,7.8,94.4,12.4l2.3,1.4L248,155c-18.9,1.1-36.9,1.3-53.6,0
		c-19.4,2.5-37.5,0.5-54.6-0.2C136.6,143.7,141.2,136.3,152,128.5"/>
	<path class="st13" d="M152,128.5c30.9,3.4,62.6,7.8,94.4,12.4l2.3,1.4L248,155c-18.9,1.1-36.9,1.3-53.6,0
		c-19.4,2.5-37.5,0.5-54.6-0.2C136.6,143.7,141.2,136.3,152,128.5z"/>
	<line class="st13" x1="248.7" y1="142.3" x2="157.8" y2="138.7"/>
	<path class="st13" d="M263.2,163c0.7,4.1,1,7.2,0.6,9.5"/>
	<path class="st13" d="M246.5,160.9c2.3,2.8,3.4,4.7,2.6,8.4"/>
	<path class="st13" d="M220.5,160c2.3,2.8,4.7,5.4,3.9,10.2"/>
	<path class="st13" d="M226.4,159.8c2.5,2.6,5.1,5,4.7,9.8"/>
	<polygon class="st15" points="197.4,151.7 197.4,151.7 197.4,151.8 197.4,151.8 197.4,151.9 197.4,151.9 197.4,152 197.4,152 
		197.3,152.1 197.3,152.1 197.3,152.1 197.3,152.2 197.3,152.2 197.3,152.3 197.3,152.3 197.3,152.3 197.3,152.4 197.3,152.4 
		197.2,152.5 197.2,152.5 197.2,152.6 197.2,152.6 197.2,152.6 197.2,152.7 197.2,152.7 197.1,152.8 197.1,152.8 197.1,152.8 
		197.1,152.9 197.1,152.9 197.1,153 197,153 197,153 197,153.1 197,153.1 197,153.1 197,153.2 196.9,153.2 196.9,153.3 196.9,153.3 
		196.9,153.3 196.9,153.4 196.8,153.4 196.8,153.4 196.8,153.5 196.8,153.5 196.7,153.5 196.7,153.6 196.7,153.6 196.7,153.6 
		196.7,153.7 196.6,153.7 196.6,153.8 196.6,153.8 196.6,153.8 196.5,153.9 196.5,153.9 196.5,153.9 196.5,153.9 196.4,154 
		196.4,154 196.4,154 196.4,154.1 196.4,154.1 196.3,154.1 196.3,154.2 196.3,154.2 196.3,154.2 196.2,154.3 196.2,154.3 
		196.2,154.3 196.2,154.3 196.1,154.4 196.1,154.4 196.1,154.4 196,154.5 196,154.5 196,154.5 196,154.5 195.9,154.6 195.9,154.6 
		195.9,154.6 195.9,154.6 195.8,154.7 195.8,154.7 195.8,154.7 195.8,154.7 195.7,154.8 195.7,154.8 195.7,154.8 195.7,154.8 
		195.6,154.9 195.6,154.9 195.6,154.9 195.6,154.9 195.5,155 195.5,155 195.5,155 195.4,155 195.4,155 195.4,155.1 195.4,155.1 
		195.3,155.1 195.3,155.1 195.3,155.1 195.3,155.2 195.2,155.2 195.2,155.2 195.2,155.2 195.2,155.2 195.1,155.2 195.1,155.3 
		195.1,155.3 195.1,155.3 195,155.3 195,155.3 195,155.3 195,155.4 194.9,155.4 194.9,155.4 194.9,155.4 194.9,155.4 194.9,155.4 
		194.8,155.4 194.8,155.5 194.8,155.5 194.8,155.5 194.7,155.5 194.7,155.5 194.7,155.5 194.3,155.5 194.1,155.3 194,155.3 
		194,154.9 194.3,154.6 194.3,154.6 194.3,154.6 194.3,154.6 194.4,154.6 194.4,154.6 194.4,154.6 194.4,154.5 194.4,154.5 
		194.5,154.5 194.5,154.5 194.5,154.5 194.5,154.5 194.5,154.5 194.5,154.5 194.6,154.5 194.6,154.5 194.6,154.4 194.6,154.4 
		194.6,154.4 194.7,154.4 194.7,154.4 194.7,154.4 194.7,154.4 194.8,154.4 194.8,154.3 194.8,154.3 194.8,154.3 194.8,154.3 
		194.9,154.3 194.9,154.3 194.9,154.3 194.9,154.2 195,154.2 195,154.2 195,154.2 195,154.2 195.1,154.2 195.1,154.1 195.1,154.1 
		195.1,154.1 195.1,154.1 195.2,154.1 195.2,154 195.2,154 195.2,154 195.3,154 195.3,154 195.3,153.9 195.3,153.9 195.4,153.9 
		195.4,153.9 195.4,153.9 195.4,153.8 195.5,153.8 195.5,153.8 195.5,153.8 195.5,153.8 195.6,153.7 195.6,153.7 195.6,153.7 
		195.6,153.7 195.7,153.6 195.7,153.6 195.7,153.6 195.7,153.6 195.7,153.5 195.8,153.5 195.8,153.5 195.8,153.5 195.8,153.4 
		195.9,153.4 195.9,153.4 195.9,153.4 195.9,153.3 196,153.3 196,153.3 196,153.2 196,153.2 196,153.2 196.1,153.2 196.1,153.1 
		196.1,153.1 196.1,153.1 196.1,153.1 196.2,153 196.2,153 196.2,153 196.2,152.9 196.2,152.9 196.3,152.9 196.3,152.8 196.3,152.8 
		196.3,152.8 196.3,152.8 196.4,152.7 196.4,152.7 196.4,152.7 196.4,152.6 196.4,152.6 196.4,152.6 196.5,152.5 196.5,152.5 
		196.5,152.5 196.5,152.4 196.5,152.4 196.5,152.4 196.6,152.3 196.6,152.3 196.6,152.3 196.6,152.2 196.6,152.2 196.6,152.2 
		196.6,152.1 196.6,152.1 196.7,152.1 196.7,152 196.7,152 196.7,152 196.7,151.9 196.7,151.9 196.7,151.9 196.7,151.8 196.7,151.8 
		196.8,151.8 196.8,151.7 196.8,151.7 196.8,151.7 196.8,151.6 197.1,151.3 	"/>
	<polygon class="st15" points="194.8,151.2 194.8,151.2 194.8,151.3 194.8,151.3 194.9,151.4 194.9,151.4 194.9,151.4 194.9,151.5 
		194.9,151.5 194.9,151.6 194.9,151.6 194.9,151.7 194.9,151.7 194.9,151.8 194.9,151.8 194.9,151.9 194.9,151.9 194.9,152 
		194.9,152 194.9,152.1 194.9,152.1 194.9,152.2 194.9,152.2 194.9,152.3 194.9,152.3 194.9,152.3 194.9,152.4 194.9,152.4 
		194.9,152.5 194.9,152.5 194.9,152.6 194.9,152.6 194.9,152.7 194.9,152.7 194.9,152.7 194.9,152.8 194.9,152.8 194.9,152.9 
		194.8,152.9 194.8,153 194.8,153 194.8,153 194.8,153.1 194.8,153.1 194.8,153.2 194.8,153.2 194.8,153.3 194.8,153.3 194.8,153.3 
		194.7,153.4 194.7,153.4 194.7,153.5 194.7,153.5 194.7,153.5 194.7,153.6 194.7,153.6 194.7,153.6 194.6,153.7 194.6,153.7 
		194.6,153.8 194.6,153.8 194.6,153.8 194.6,153.9 194.6,153.9 194.5,153.9 194.5,154 194.5,154 194.5,154 194.5,154.1 194.5,154.1 
		194.4,154.2 194.4,154.2 194.4,154.2 194.4,154.3 194.4,154.3 194.3,154.3 194.3,154.3 194.3,154.4 194.3,154.4 194.3,154.4 
		194.2,154.5 194.2,154.5 194.2,154.5 194.2,154.6 194.2,154.6 194.1,154.6 194.1,154.7 194.1,154.7 194.1,154.7 194.1,154.7 
		194,154.8 194,154.8 194,154.8 194,154.8 193.9,154.9 193.9,154.9 193.9,154.9 193.9,154.9 193.9,155 193.8,155 193.8,155 
		193.8,155 193.8,155.1 193.7,155.1 193.7,155.1 193.7,155.1 193.7,155.2 193.6,155.2 193.6,155.2 193.6,155.2 193.6,155.2 
		193.5,155.3 193.5,155.3 193.5,155.3 193.5,155.3 193.4,155.3 193.4,155.3 193.4,155.4 193.3,155.4 193.3,155.4 193.3,155.4 
		193.3,155.4 193.2,155.4 193.2,155.5 193.2,155.5 193.2,155.5 193.1,155.5 193.1,155.5 193.1,155.5 193.1,155.5 192.7,155.5 
		192.4,155.2 192.4,155.2 192.4,154.8 192.7,154.6 192.7,154.6 192.8,154.6 192.8,154.6 192.8,154.6 192.8,154.6 192.8,154.6 
		192.8,154.5 192.8,154.5 192.9,154.5 192.9,154.5 192.9,154.5 192.9,154.5 192.9,154.5 192.9,154.5 192.9,154.5 193,154.5 
		193,154.5 193,154.5 193,154.4 193,154.4 193,154.4 193.1,154.4 193.1,154.4 193.1,154.4 193.1,154.4 193.1,154.4 193.2,154.3 
		193.2,154.3 193.2,154.3 193.2,154.3 193.2,154.3 193.2,154.3 193.3,154.2 193.3,154.2 193.3,154.2 193.3,154.2 193.3,154.2 
		193.3,154.2 193.4,154.1 193.4,154.1 193.4,154.1 193.4,154.1 193.4,154.1 193.5,154 193.5,154 193.5,154 193.5,154 193.5,154 
		193.5,153.9 193.6,153.9 193.6,153.9 193.6,153.9 193.6,153.8 193.6,153.8 193.6,153.8 193.7,153.8 193.7,153.7 193.7,153.7 
		193.7,153.7 193.7,153.7 193.7,153.6 193.7,153.6 193.8,153.6 193.8,153.6 193.8,153.5 193.8,153.5 193.8,153.5 193.8,153.5 
		193.9,153.4 193.9,153.4 193.9,153.4 193.9,153.3 193.9,153.3 193.9,153.3 193.9,153.2 193.9,153.2 194,153.2 194,153.2 194,153.1 
		194,153.1 194,153.1 194,153 194,153 194,153 194.1,152.9 194.1,152.9 194.1,152.9 194.1,152.8 194.1,152.8 194.1,152.8 
		194.1,152.7 194.1,152.7 194.1,152.7 194.1,152.6 194.1,152.6 194.2,152.5 194.2,152.5 194.2,152.5 194.2,152.4 194.2,152.4 
		194.2,152.4 194.2,152.3 194.2,152.3 194.2,152.2 194.2,152.2 194.2,152.2 194.2,152.1 194.2,152.1 194.2,152.1 194.2,152 
		194.2,152 194.2,151.9 194.2,151.9 194.2,151.9 194.2,151.8 194.2,151.8 194.2,151.7 194.2,151.7 194.2,151.6 194.2,151.6 
		194.2,151.6 194.2,151.5 194.2,151.5 194.2,151.4 194.2,151.4 194.2,151.3 194.2,151.3 194.2,151.3 194.5,150.9 	"/>
	<path class="st16" d="M141.6,156.6l16-3.9c4.1,0.7,11.6,2,11.6,2c2.3,0.3,2.4,2.2,1.1,2.1c2.1,1.2,1.7,1.7-2.2,1.7l2.5,0.5
		c0,0,2.2,3.6-7.6,1.9l3.2,1.3c0,0,0.9,2.1-3.8,1.4c-3.7-0.5-10.1-1.6-10.1-1.6l-10.3-0.1L141.6,156.6z"/>
	<path class="st13" d="M141.6,156.6l16-3.9c4.1,0.7,11.6,2,11.6,2c2.3,0.3,2.4,2.2,1.1,2.1c2.1,1.2,1.7,1.7-2.2,1.7l2.5,0.5
		c0,0,2.2,3.6-7.6,1.9l3.2,1.3c0,0,0.9,2.1-3.8,1.4c-3.7-0.5-10.1-1.6-10.1-1.6l-10.3-0.1L141.6,156.6z"/>
	<path class="st13" d="M176.2,159.8c-2.5,2.6-2.7,4.7-2.2,9.5"/>
	<path class="st16" d="M133.7,120.6c7-3.3,15,3.7,15.2,7.9l-12.6-1.6L133.7,120.6z"/>
	<path class="st17" d="M133.7,120.6c7-3.3,15,3.7,15.2,7.9l-12.6-1.6L133.7,120.6z"/>
	<path class="st13" d="M133.7,120.6c7-3.3,15,3.7,15.2,7.9l-12.6-1.6L133.7,120.6z"/>
</g>
<g>
	<defs>
		<path id="SVGID_19_" d="M51.5,148.8c3.6,4.9,11.4,5.8,19,3.5c-4-2.4-8.4-4.2-13.5-4.2C55.2,148.1,53.4,148.4,51.5,148.8"/>
	</defs>
	<clipPath id="SVGID_20_">
		<use xlink:href="#SVGID_19_"  style="overflow:visible;"/>
	</clipPath>
	<path class="st18" d="M59.3,146c-3.4,1.7-5.1,3.9-5.9,6.4"/>
	<path class="st18" d="M62.1,147.3c-3.4,1.7-5.1,3.9-5.9,6.4"/>
	<path class="st18" d="M64.8,148.6c-3.4,1.7-5.1,3.9-5.9,6.4"/>
	<path class="st18" d="M67.8,150c-3.4,1.7-5.1,3.9-5.9,6.4"/>
</g>
<g>
	<defs>
		<rect id="SVGID_21_" width="283.5" height="283.5"/>
	</defs>
	<clipPath id="SVGID_22_">
		<use xlink:href="#SVGID_21_"  style="overflow:visible;"/>
	</clipPath>
	<path class="st19" d="M70.5,152.3c-5.4-3.2-11.4-5.4-19-3.5C55.1,153.7,62.8,154.6,70.5,152.3z"/>
	<path class="st19" d="M49,138.9c-1.6,1.6-4,2.7-3.8,6.3"/>
	<path class="st19" d="M50.5,140c1.1,2.1-2.4,3.8-1.4,8.9"/>
	<path class="st19" d="M68.4,160c-2.5,2.6-1.8,3.7-1.7,8.9"/>
	<path class="st19" d="M53.9,160.4c-2.5,2.6-1.8,3.7-1.7,8.9"/>
</g>
<g>
	<defs>
		<path id="SVGID_23_" d="M71.4,135.6c-3.4-4-7.7-7.3-14.6-7.4C58.2,133.3,64.3,135.9,71.4,135.6"/>
	</defs>
	<clipPath id="SVGID_24_">
		<use xlink:href="#SVGID_23_"  style="overflow:visible;"/>
	</clipPath>
	<path class="st20" d="M64.1,127.5c-3.4,0.7-5.5,2.3-6.8,4.2"/>
	<path class="st20" d="M66,129.3c-3.4,0.7-5.5,2.3-6.8,4.2"/>
	<path class="st20" d="M67.8,131.1c-3.4,0.7-5.5,2.3-6.8,4.2"/>
	<path class="st20" d="M69.9,133c-3.4,0.7-5.5,2.3-6.8,4.2"/>
</g>
<g>
	<defs>
		<rect id="SVGID_25_" width="283.5" height="283.5"/>
	</defs>
	<clipPath id="SVGID_26_">
		<use xlink:href="#SVGID_25_"  style="overflow:visible;"/>
	</clipPath>
	<path class="st21" d="M71.4,135.6c-3.4-4-7.7-7.3-14.6-7.4C58.2,133.3,64.3,135.9,71.4,135.6z"/>
	<path class="st21" d="M44.8,107.8c-1.6,0.2-3.9-0.6-5.2,1.4"/>
	<path class="st22" d="M131.6,121.8c0,0-32.8-12.4-36.3-12.8c-8.5-0.8-9.7,1.9-15.8,7.6c-4.7,4.4-7.8,11.8-6.5,15.5
		c1,2.8,4.3,6.9,9.8,10.7c11.1,7.7,27.6,15.2,28.1,14.9c9.5,2.4,20.6,4.5,32.6,6.4c-0.2-4.1,0.4-7.2,2.6-9.8l-4.6-0.9
		c2.6-12.6,7.6-20.9,13.1-25.8L131.6,121.8z"/>
	<path class="st21" d="M131.6,121.8c0,0-32.8-12.4-36.3-12.8c-8.5-0.8-9.7,1.9-15.8,7.6c-4.7,4.4-7.8,11.8-6.5,15.5
		c1,2.8,4.3,6.9,9.8,10.7c11.1,7.7,27.6,15.2,28.1,14.9c9.5,2.4,20.6,4.5,32.6,6.4c-0.2-4.1,0.4-7.2,2.6-9.8l-4.6-0.9
		c2.6-12.6,7.6-20.9,13.1-25.8L131.6,121.8z"/>
	<polyline class="st21" points="86.9,133.1 117.3,148.5 141.3,153.4 	"/>
	<polyline class="st21" points="123.7,125.9 103.3,118.2 100.9,115.4 	"/>
	<path class="st21" d="M76.5,148c-0.8-1.6-2.2-3-4.7-3.8"/>
	<path class="st21" d="M72.2,146.8c-0.5-1-1.4-1.8-2.9-2.3"/>
	<path class="st21" d="M112,160.7c-2.5,2.6-2.7,4.7-2.2,9.5"/>
	<path class="st21" d="M98.9,160.9c-2.5,2.6-1.8,1.6-1.7,6.8"/>
	<line class="st21" x1="86.7" y1="132.8" x2="83.4" y2="133.1"/>
	<path class="st23" d="M131.6,122.3c-2.5,1.1-4.9,1.7-8.1,1.7c0,0-0.7,1.9,1.8,2.3c2.4,0.4,4.6-0.2,4.6-0.2L131.6,122.3z"/>
	<path class="st21" d="M131.6,122.3c-2.5,1.1-4.9,1.7-8.1,1.7c0,0-0.7,1.9,1.8,2.3c2.4,0.4,4.6-0.2,4.6-0.2L131.6,122.3z"/>
	<polygon class="st24" points="117.4,148.3 117.6,148.5 117.6,148.5 117.6,148.6 117.7,148.6 117.7,148.6 117.7,148.6 117.7,148.7 
		117.7,148.7 117.7,148.7 117.7,148.8 117.7,148.8 117.7,148.8 117.7,148.8 117.7,148.9 117.7,148.9 117.7,148.9 117.7,149 
		117.7,149 117.7,149 117.8,149.1 117.8,149.1 117.8,149.1 117.8,149.2 117.8,149.2 117.8,149.2 117.8,149.3 117.8,149.3 
		117.8,149.3 117.8,149.4 117.8,149.4 117.8,149.4 117.8,149.5 117.8,149.5 117.8,149.5 117.8,149.6 117.8,149.6 117.8,149.6 
		117.8,149.7 117.8,149.7 117.8,149.8 117.8,149.8 117.8,149.8 117.8,149.9 117.8,149.9 117.8,149.9 117.8,150 117.7,150 
		117.7,150.1 117.7,150.1 117.7,150.1 117.7,150.2 117.7,150.2 117.7,150.3 117.7,150.3 117.7,150.3 117.7,150.4 117.7,150.4 
		117.7,150.5 117.7,150.5 117.7,150.5 117.7,150.6 117.7,150.6 117.7,150.7 117.7,150.7 117.6,150.7 117.6,150.8 117.6,150.8 
		117.6,150.9 117.6,150.9 117.6,151 117.6,151 117.6,151 117.6,151.1 117.6,151.1 117.5,151.2 117.5,151.2 117.5,151.2 117.5,151.3 
		117.5,151.3 117.5,151.4 117.5,151.4 117.5,151.5 117.5,151.5 117.4,151.5 117.4,151.6 117.4,151.6 117.4,151.7 117.4,151.7 
		117.4,151.7 117.4,151.8 117.3,151.8 117.3,151.9 117.3,151.9 117.3,152 117.3,152 117.3,152 117.2,152.1 117.2,152.1 117.2,152.2 
		117.2,152.2 117.2,152.2 117.2,152.3 117.1,152.3 117.1,152.4 117.1,152.4 117.1,152.4 117.1,152.5 117,152.5 117,152.6 117,152.6 
		117,152.6 116.9,152.7 116.9,152.7 116.9,152.8 116.9,152.8 116.9,152.8 116.8,152.9 116.8,152.9 116.8,152.9 116.8,153 116.7,153 
		116.7,153.1 116.7,153.1 116.7,153.1 116.6,153.2 116.6,153.2 116.6,153.2 116.6,153.3 116.5,153.3 116.5,153.3 116.1,153.4 
		116,153 116,152.9 116,152.9 116.1,152.9 116.1,152.8 116.1,152.8 116.1,152.8 116.1,152.7 116.2,152.7 116.2,152.7 116.2,152.6 
		116.2,152.6 116.2,152.6 116.3,152.5 116.3,152.5 116.3,152.5 116.3,152.4 116.3,152.4 116.3,152.4 116.4,152.3 116.4,152.3 
		116.4,152.3 116.4,152.2 116.4,152.2 116.4,152.1 116.4,152.1 116.5,152.1 116.5,152 116.5,152 116.5,152 116.5,151.9 116.5,151.9 
		116.5,151.9 116.6,151.8 116.6,151.8 116.6,151.7 116.6,151.7 116.6,151.7 116.6,151.6 116.6,151.6 116.6,151.6 116.6,151.5 
		116.7,151.5 116.7,151.4 116.7,151.4 116.7,151.4 116.7,151.3 116.7,151.3 116.7,151.3 116.7,151.2 116.7,151.2 116.7,151.1 
		116.7,151.1 116.7,151.1 116.8,151 116.8,151 116.8,150.9 116.8,150.9 116.8,150.9 116.8,150.8 116.8,150.8 116.8,150.8 
		116.8,150.7 116.8,150.7 116.8,150.6 116.8,150.6 116.8,150.6 116.8,150.5 116.8,150.5 116.8,150.5 116.8,150.4 116.8,150.4 
		116.8,150.4 116.8,150.3 116.8,150.3 116.8,150.3 116.8,150.2 116.9,150.2 116.9,150.1 116.9,150.1 116.9,150.1 116.9,150 
		116.9,150 116.9,150 116.9,149.9 116.9,149.9 116.9,149.9 116.9,149.8 116.9,149.8 116.9,149.8 116.9,149.8 116.9,149.7 
		116.9,149.7 116.9,149.7 116.8,149.6 116.8,149.6 116.8,149.6 116.8,149.5 116.8,149.5 116.8,149.5 116.8,149.5 116.8,149.4 
		116.8,149.4 116.8,149.4 116.8,149.3 116.8,149.3 116.8,149.3 116.8,149.3 116.8,149.2 116.8,149.2 116.8,149.2 116.8,149.2 
		116.8,149.2 116.8,149.1 116.8,149.1 116.8,149.1 116.8,149.1 116.8,149.1 116.8,149 116.8,149 116.7,149 116.7,149 116.7,149 
		116.7,149 116.7,148.9 116.7,148.9 116.7,148.9 116.7,148.9 116.7,148.9 116.7,148.9 116.7,148.5 117,148.2 117,148.2 	"/>
	<polygon class="st24" points="116.4,147.9 116.4,147.9 116.7,148.1 116.7,148.5 116.7,148.5 116.7,148.6 116.7,148.6 116.7,148.7 
		116.6,148.8 116.6,148.8 116.6,148.9 116.6,149 116.5,149 116.5,149.1 116.5,149.1 116.5,149.2 116.4,149.3 116.4,149.3 
		116.4,149.4 116.3,149.5 116.3,149.5 116.3,149.6 116.3,149.6 116.2,149.7 116.2,149.7 116.2,149.7 116.2,149.8 116.2,149.8 
		116.1,149.8 116.1,149.9 116.1,149.9 116.1,149.9 116.1,150 116,150 116,150 116,150.1 116,150.1 116,150.1 115.9,150.2 
		115.9,150.2 115.9,150.2 115.9,150.3 115.8,150.3 115.8,150.3 115.8,150.4 115.8,150.4 115.8,150.4 115.7,150.5 115.7,150.5 
		115.7,150.5 115.7,150.6 115.6,150.6 115.6,150.6 115.6,150.7 115.6,150.7 115.5,150.7 115.5,150.8 115.5,150.8 115.5,150.8 
		115.4,150.8 115.4,150.9 115.4,150.9 115.3,150.9 115.3,151 115.3,151 115.3,151 115.2,151.1 115.2,151.1 115.2,151.1 115.1,151.1 
		115.1,151.2 115.1,151.2 115.1,151.2 115,151.2 115,151.3 115,151.3 114.9,151.3 114.9,151.3 114.9,151.4 114.8,151.4 114.8,151.4 
		114.8,151.4 114.7,151.5 114.7,151.5 114.7,151.5 114.6,151.5 114.6,151.6 114.6,151.6 114.5,151.6 114.5,151.6 114.5,151.6 
		114.4,151.7 114.4,151.7 114.4,151.7 114.3,151.7 114.3,151.7 114.3,151.8 114.2,151.8 114.2,151.8 114.1,151.8 114.1,151.8 
		114.1,151.8 114,151.9 114,151.9 114,151.9 113.9,151.9 113.9,151.9 113.8,151.9 113.8,151.9 113.8,151.9 113.7,151.9 113.7,152 
		113.6,152 113.6,152 113.6,152 113.5,152 113.2,151.7 113.4,151.4 113.4,151.4 113.5,151.4 113.5,151.3 113.5,151.3 113.5,151.3 
		113.6,151.3 113.6,151.3 113.6,151.3 113.7,151.3 113.7,151.3 113.7,151.3 113.8,151.3 113.8,151.2 113.8,151.2 113.8,151.2 
		113.9,151.2 113.9,151.2 113.9,151.2 113.9,151.2 114,151.1 114,151.1 114,151.1 114,151.1 114.1,151.1 114.1,151.1 114.1,151 
		114.2,151 114.2,151 114.2,151 114.2,151 114.3,150.9 114.3,150.9 114.3,150.9 114.3,150.9 114.4,150.9 114.4,150.8 114.4,150.8 
		114.4,150.8 114.4,150.8 114.5,150.7 114.5,150.7 114.5,150.7 114.5,150.7 114.6,150.7 114.6,150.6 114.6,150.6 114.6,150.6 
		114.6,150.6 114.7,150.5 114.7,150.5 114.7,150.5 114.7,150.5 114.8,150.4 114.8,150.4 114.8,150.4 114.8,150.3 114.8,150.3 
		114.9,150.3 114.9,150.3 114.9,150.2 114.9,150.2 114.9,150.2 115,150.2 115,150.1 115,150.1 115,150.1 115,150 115,150 115.1,150 
		115.1,149.9 115.1,149.9 115.1,149.9 115.1,149.9 115.1,149.8 115.2,149.8 115.2,149.8 115.2,149.7 115.2,149.7 115.2,149.7 
		115.2,149.6 115.3,149.6 115.3,149.6 115.3,149.6 115.3,149.5 115.3,149.5 115.3,149.5 115.4,149.4 115.4,149.4 115.4,149.4 
		115.4,149.3 115.4,149.3 115.4,149.3 115.4,149.2 115.4,149.2 115.5,149.2 115.5,149.1 115.5,149 115.5,149 115.6,148.9 
		115.6,148.9 115.6,148.8 115.6,148.7 115.7,148.7 115.7,148.6 115.7,148.6 115.7,148.5 115.7,148.4 115.7,148.4 115.8,148.3 
		115.8,148.3 115.8,148.2 115.8,148.2 116,147.9 116.4,147.9 	"/>
	<path class="st21" d="M159.8,133.3c-1,4-1.5,5-4.4,9"/>
	<line class="st21" x1="163.1" y1="160.8" x2="156.3" y2="159.4"/>
	<line class="st21" x1="170.3" y1="156.8" x2="158.3" y2="155"/>
	<line class="st21" x1="169.3" y1="158.8" x2="158.3" y2="157.1"/>
	<path class="st23" d="M131,122.4c1.3-1.7,4.2-2.1,6.1-1.7c2.5,0.7,4.1,3.3,3.2,6.2c-2.2,6.4-7.1,12.1-9,12.1
		c-1.2,0,0.9-2.9,0.9-2.9s-2.9,3.7-5.2,2.3l1.8-2.8c0,0-2.2,2.5-3.3,2.8c-1.7,0.5-2.5-0.4-2.5-0.4l2.7-4.1c0,0-2.5,2.3-4.3,1.2
		C120.7,134.9,125.6,129.8,131,122.4"/>
	<path class="st21" d="M131,122.4c1.3-1.7,4.2-2.1,6.1-1.7c2.5,0.7,4.1,3.3,3.2,6.2c-2.2,6.4-7.1,12.1-9,12.1
		c-1.2,0,0.9-2.9,0.9-2.9s-2.9,3.7-5.2,2.3l1.8-2.8c0,0-2.2,2.5-3.3,2.8c-1.7,0.5-2.5-0.4-2.5-0.4l2.7-4.1c0,0-2.5,2.3-4.3,1.2
		C120.7,134.9,125.6,129.8,131,122.4z"/>
	<path class="st23" d="M125.3,134.4c1.7-1.8,3.2-3.7,4.3-5.8"/>
	<path class="st21" d="M125.3,134.4c1.7-1.8,3.2-3.7,4.3-5.8"/>
	<path class="st23" d="M128.1,136.2c1.7-1.8,3.4-4.6,4.6-6.8"/>
	<path class="st21" d="M128.1,136.2c1.7-1.8,3.4-4.6,4.6-6.8"/>
	<path class="st23" d="M130.9,137.4c1.7-1.8,3.4-4.6,4.6-6.8"/>
	<path class="st21" d="M130.9,137.4c1.7-1.8,3.4-4.6,4.6-6.8"/>
	<path class="st21" d="M45.8,110.2c-0.8,0.2-3.5,0.9-3.9,2.5"/>
	<path class="st23" d="M77.4,110.1c1.6,2,5,4.5,7.9,6.4c3,2.7-1.4,8.3-5.5,7.4c-3.7-2.1-7-5.2-8.8-7.6L77.4,110.1z"/>
	<path class="st21" d="M77.4,110.1c1.6,2,5,4.5,7.9,6.4c3,2.7-1.4,8.3-5.5,7.4c-3.7-2.1-7-5.2-8.8-7.6L77.4,110.1z"/>
	<path class="st23" d="M51,85.3c-4.8,4.3-8.3,12.9-5.5,18.5c0.5,1,2.6,6.3,7.3,9.5c1.6,1.1,2.4,1.4,4.2,2.3c2.1,1.1,3.8,1.2,6.2,1.7
		c4.4,0.9,10.6,0.9,13.7-1.7c2.9-2.4,4.5-8.6,3.9-12.7C80.5,99.8,79.2,92.5,77,89c-1-1.7-2.7-0.7-3.7-1.9C66.4,79.3,58,79.1,51,85.3
		"/>
	<path class="st25" d="M51,85.3c-4.8,4.3-8.3,12.9-5.5,18.5c0.5,1,2.6,6.3,7.3,9.5c1.6,1.1,2.4,1.4,4.2,2.3c2.1,1.1,3.8,1.2,6.2,1.7
		c4.4,0.9,10.6,0.9,13.7-1.7c2.9-2.4,4.5-8.6,3.9-12.7C80.5,99.8,79.2,92.5,77,89c-1-1.7-2.7-0.7-3.7-1.9C66.4,79.3,58,79.1,51,85.3
		z"/>
	<path class="st23" d="M51.8,83.7c0,0-2.7,0.4-5.3,4.7c-2.6,4.3-1.4,5.7-2.9,8.8c-1.5,3.1-1.8,3.9-0.8,6.4c1,2.5,1.4,2.2,1.9,3.6
		c0.6,1.4,0.3,2.1,2.4,3.9c2.1,1.8,2.3,1.8,4,2.9c1.7,1.1,1.9,2.3,4.9,2.7c0.9,0.1,1.4,0.3,1.9,0.5c1.2,0.5,1.6,1,3.4,1.3
		c4,0.6,5.7-0.8,5.7-0.8c-4.5-0.5-6.4-1.3-10.6-5.2c-4.8,1-5.6-3.4-2.6-3.6c-1.1-0.6-1.5-1.2-2.3-2.8c-1-1.8,0.2-3-2-4.5
		c3.4-2.8,3.8-5.5,2.4-7.1c2.7-4,3.9-6.8,1.8-8.5L51.8,83.7z"/>
	<path class="st25" d="M51.8,83.7c0,0-2.7,0.4-5.3,4.7c-2.6,4.3-1.4,5.7-2.9,8.8c-1.5,3.1-1.8,3.9-0.8,6.4c1,2.5,1.4,2.2,1.9,3.6
		c0.6,1.4,0.3,2.1,2.4,3.9c2.1,1.8,2.3,1.8,4,2.9c1.7,1.1,1.9,2.3,4.9,2.7c0.9,0.1,1.4,0.3,1.9,0.5c1.2,0.5,1.6,1,3.4,1.3
		c4,0.6,5.7-0.8,5.7-0.8c-4.5-0.5-6.4-1.3-10.6-5.2c-4.8,1-5.6-3.4-2.6-3.6c-1.1-0.6-1.5-1.2-2.3-2.8c-1-1.8,0.2-3-2-4.5
		c3.4-2.8,3.8-5.5,2.4-7.1c2.7-4,3.9-6.8,1.8-8.5L51.8,83.7z"/>
	<path class="st21" d="M69.5,118c0.6,2.6-1.8,3.2-2.5,6.2"/>
	<path class="st21" d="M66.3,118.3c-1.3,1.7-3.8,1.9-5.1,4.9"/>
	<polygon class="st24" points="54.2,110.1 54.3,110.3 54.3,110.3 54.2,110.6 54,110.7 54,110.7 54,110.7 54,110.7 53.9,110.7 
		53.9,110.7 53.9,110.7 53.8,110.7 53.8,110.7 53.8,110.7 53.8,110.7 53.8,110.7 53.7,110.7 53.7,110.7 53.7,110.7 53.7,110.7 
		53.7,110.7 53.7,110.7 53.6,110.7 53.6,110.7 53.6,110.7 53.6,110.7 53.6,110.7 53.6,110.7 53.6,110.7 53.6,110.7 53.6,110.7 
		53.6,110.8 53.5,110.8 53.5,110.8 53.5,110.8 53.5,110.8 53.5,110.8 53.5,110.8 53.5,110.8 53.5,110.8 53.5,110.8 53.5,110.8 
		53.5,110.8 53.5,110.8 53.5,110.8 53.5,110.8 53.5,110.8 53.5,110.8 53.5,110.8 53.5,110.8 53.5,110.8 53.5,110.8 53.5,110.8 
		53.5,110.8 53.5,110.8 53.5,110.8 53.5,110.8 53.5,110.8 53.5,110.8 53.5,110.8 53.5,110.8 53.5,110.8 53.5,110.8 53.5,110.8 
		53.5,110.8 53.5,110.8 53.5,110.8 53.5,110.8 53.5,110.8 53.5,110.8 53.5,110.8 53.5,110.8 53.5,110.8 53.5,110.8 53.5,110.8 
		53.5,110.8 53.5,110.8 53.5,110.8 53.5,110.8 53.5,110.8 53.5,110.8 53.5,110.8 53.5,110.8 53.5,110.8 53.5,110.8 53.5,110.9 
		53.5,110.9 53.5,110.9 53.5,110.9 53.5,110.9 53.5,110.9 53.5,110.9 53.5,110.9 53.6,110.9 53.6,110.9 53.6,110.9 53.6,111 
		53.6,111 53.6,111 53.6,111 53.6,111 53.6,111 53.7,111 53.7,111 53.7,111.1 53.7,111.1 53.7,111.1 53.7,111.1 53.8,111.1 
		53.8,111.1 53.8,111.1 53.8,111.1 53.8,111.2 53.9,111.2 53.9,111.2 53.9,111.2 53.9,111.2 54,111.2 54,111.2 54,111.2 54,111.2 
		54.1,111.3 54.1,111.3 54.1,111.3 54.2,111.3 54.2,111.3 54.2,111.3 54.3,111.3 54.3,111.3 54.3,111.3 54.4,111.3 54.4,111.3 
		54.4,111.3 54.5,111.4 54.5,111.4 54.6,111.4 54.6,111.4 54.6,111.4 54.7,111.4 54.7,111.4 54.8,111.4 54.8,111.4 54.9,111.4 
		54.9,111.4 55,111.4 55,111.4 55,111.4 55.1,111.4 55.1,111.4 55.2,111.4 55.2,111.4 55.3,111.4 55.4,111.4 55.4,111.4 55.5,111.4 
		55.5,111.4 55.6,111.4 55.6,111.4 55.8,111.5 55.7,111.7 55.6,111.7 55.6,111.7 55.5,111.7 55.4,111.8 55.4,111.8 55.3,111.8 
		55.3,111.8 55.2,111.8 55.2,111.8 55.1,111.8 55.1,111.8 55,111.8 55,111.8 54.9,111.8 54.9,111.8 54.8,111.8 54.8,111.8 
		54.7,111.8 54.7,111.8 54.6,111.8 54.6,111.8 54.5,111.8 54.5,111.8 54.4,111.8 54.4,111.8 54.3,111.8 54.3,111.8 54.3,111.8 
		54.2,111.8 54.2,111.8 54.1,111.8 54.1,111.7 54,111.7 54,111.7 54,111.7 53.9,111.7 53.9,111.7 53.9,111.7 53.8,111.7 53.8,111.7 
		53.8,111.7 53.7,111.6 53.7,111.6 53.7,111.6 53.6,111.6 53.6,111.6 53.6,111.6 53.5,111.6 53.5,111.5 53.5,111.5 53.4,111.5 
		53.4,111.5 53.4,111.5 53.4,111.5 53.3,111.5 53.3,111.4 53.3,111.4 53.3,111.4 53.2,111.4 53.2,111.4 53.2,111.3 53.2,111.3 
		53.2,111.3 53.1,111.3 53.1,111.3 53.1,111.2 53.1,111.2 53.1,111.2 53.1,111.2 53,111.1 53,111.1 53,111.1 53,111.1 53,111 
		53,111 53,111 53,111 52.9,110.9 52.9,110.9 52.9,110.9 52.9,110.9 52.9,110.8 52.9,110.8 52.9,110.8 52.9,110.8 52.9,110.8 
		52.9,110.8 52.9,110.8 52.9,110.7 52.9,110.7 52.9,110.7 52.9,110.7 52.9,110.7 52.9,110.7 52.9,110.7 52.9,110.6 53,110.6 
		53,110.6 53,110.6 53,110.6 53,110.6 53,110.6 53,110.5 53,110.5 53,110.5 53,110.5 53,110.5 53,110.5 53,110.5 53,110.4 53,110.4 
		53,110.4 53.1,110.4 53.1,110.4 53.1,110.4 53.1,110.4 53.1,110.4 53.1,110.4 53.1,110.3 53.1,110.3 53.2,110.3 53.2,110.3 
		53.2,110.3 53.2,110.2 53.3,110.2 53.3,110.2 53.3,110.2 53.3,110.2 53.4,110.2 53.4,110.1 53.4,110.1 53.5,110.1 53.5,110.1 
		53.5,110.1 53.6,110.1 53.6,110.1 53.6,110.1 53.7,110.1 53.7,110 53.7,110 53.8,110 53.8,110 53.8,110 53.9,110 53.9,110 
		53.9,110 54,110 54,110 	"/>
	<path class="st26" d="M66.9,105.1c-1.8,1.2-2.8,0.4-2.5-0.8"/>
	<polygon class="st24" points="63.5,105.6 63.5,105.6 63.5,105.6 63.6,105.7 63.6,105.7 63.6,105.7 63.7,105.7 63.7,105.7 
		63.7,105.8 63.7,105.8 63.7,105.8 63.8,105.8 63.8,105.8 63.8,105.8 63.8,105.8 63.8,105.9 63.8,105.9 63.8,105.9 63.9,105.9 
		63.9,105.9 63.9,106 63.9,106 63.9,106 63.9,106 63.9,106 64,106.1 64,106.1 64,106.1 64,106.1 64,106.1 64,106.2 64,106.2 
		64.1,106.2 64.1,106.2 64.1,106.2 64.1,106.3 64.1,106.3 64.1,106.3 64.1,106.3 64.1,106.4 64.1,106.4 64.1,106.4 64.1,106.4 
		64.1,106.4 64.1,106.5 64.1,106.5 64.1,106.5 64.1,106.5 64.1,106.6 64.1,106.6 64.1,106.6 64.1,106.6 64.1,106.7 64.1,106.7 
		64.1,106.7 64.1,106.8 64.1,106.8 64.1,106.8 64.1,106.8 64.1,106.9 64.1,106.9 64.1,106.9 64.1,106.9 64.1,107 64.1,107 
		64.1,107.1 64.1,107.1 64,107.1 64,107.2 64,107.2 64,107.2 64,107.2 64,107.3 63.9,107.3 63.9,107.3 63.9,107.3 63.8,107.4 
		63.7,107.3 63.7,107.3 63.7,107.2 63.7,107.2 63.7,107.1 63.7,107.1 63.7,107.1 63.7,107.1 63.7,107 63.7,107 63.7,107 63.7,106.9 
		63.7,106.9 63.7,106.9 63.7,106.9 63.7,106.9 63.7,106.8 63.7,106.8 63.7,106.8 63.7,106.8 63.7,106.7 63.7,106.7 63.7,106.7 
		63.7,106.7 63.7,106.7 63.7,106.6 63.7,106.6 63.7,106.6 63.7,106.6 63.7,106.6 63.6,106.6 63.6,106.5 63.6,106.5 63.6,106.5 
		63.6,106.5 63.6,106.5 63.6,106.5 63.6,106.4 63.6,106.4 63.6,106.4 63.6,106.4 63.6,106.4 63.6,106.4 63.6,106.4 63.6,106.3 
		63.6,106.3 63.6,106.3 63.6,106.3 63.6,106.3 63.6,106.2 63.6,106.2 63.6,106.2 63.6,106.2 63.5,106.2 63.5,106.2 63.5,106.1 
		63.5,106.1 63.5,106.1 63.5,106.1 63.5,106.1 63.5,106 63.5,106 63.5,106 63.5,106 63.5,106 63.5,106 63.5,105.9 63.5,105.9 
		63.4,105.9 63.4,105.9 63.4,105.8 63.4,105.8 63.4,105.8 63.4,105.7 63.4,105.7 63.4,105.6 	"/>
</g>
<g>
	<defs>
		<path id="SVGID_27_" d="M58.7,101c-1.6,0.9-3.4,3.8-2.1,4.7c1.7-1.2,3.1-2.6,4.2-4.1c-0.4-0.4-0.9-0.7-1.4-0.7
			C59.1,100.8,58.9,100.9,58.7,101"/>
	</defs>
	<clipPath id="SVGID_28_">
		<use xlink:href="#SVGID_27_"  style="overflow:visible;"/>
	</clipPath>
	<path class="st27" d="M57.3,102c-0.6,0.6-0.6,1.5-0.1,2.1c0.6,0.6,1.5,0.5,2.1-0.1s0.6-1.5,0.1-2.1C58.9,101.3,57.9,101.4,57.3,102
		"/>
	<path class="st28" d="M57.3,103.1c-0.1,0.1-0.1,0.3,0,0.4c0.1,0.1,0.3,0.1,0.4,0c0.1-0.1,0.1-0.3,0-0.4
		C57.6,102.9,57.4,102.9,57.3,103.1"/>
</g>
<g>
	<defs>
		<rect id="SVGID_29_" width="283.5" height="283.5"/>
	</defs>
	<clipPath id="SVGID_30_">
		<use xlink:href="#SVGID_29_"  style="overflow:visible;"/>
	</clipPath>
	<path class="st29" d="M56.5,105.7c1.7-1.2,3.1-2.6,4.2-4.1c-0.5-0.5-1.3-1-2.1-0.5C57.1,101.9,55.2,104.8,56.5,105.7z"/>
	<path class="st29" d="M61.5,96.9c2,3.5,5.1,5.1,6.8,5.1c0.4,0.8-0.1,1.8-0.6,2.4"/>
	<path class="st30" d="M51.8,83.8l1.9,2.4l2.7,0.4c1.3,2.7,4.4,2.3,8.1,1.5c1-0.2,2.2-1.4,3.4-0.5c0,0,0.6-1.6,1.6-1.3
		c1.2,0.3,1.2,1.1,1.7,1.7c1.9,0.2,2.9,1.7,3.1,3.3c0.4-1.8,1.3-1.7,1.9-1.5c1.2,0.3,2.4,3.2,0.6,4.9c3.7,4,4.5,7.7,4.2,10.1
		c1.3-0.4,2.4-4,1-6.6c-0.9-1.6,1.3-3.8-2.4-6.7c-0.9-0.7,0.2-2-1.5-3.3c-1.4-3-3.2-5.3-5.1-5.4c-1-2.2-4.2-3.3-9.4-2.7
		C59.5,77.9,53.2,80.5,51.8,83.8"/>
	<path class="st31" d="M51.8,83.8l1.9,2.4l2.7,0.4c1.3,2.7,4.4,2.3,8.1,1.5c1-0.2,2.2-1.4,3.4-0.5c0,0,0.6-1.6,1.6-1.3
		c1.2,0.3,1.2,1.1,1.7,1.7c1.9,0.2,2.9,1.7,3.1,3.3c0.4-1.8,1.3-1.7,1.9-1.5c1.2,0.3,2.4,3.2,0.6,4.9c3.7,4,4.5,7.7,4.2,10.1
		c1.3-0.4,2.4-4,1-6.6c-0.9-1.6,1.3-3.8-2.4-6.7c-0.9-0.7,0.2-2-1.5-3.3c-1.4-3-3.2-5.3-5.1-5.4c-1-2.2-4.2-3.3-9.4-2.7
		C59.5,77.9,53.2,80.5,51.8,83.8z"/>
	<polygon class="st32" points="75.9,90.5 75.9,90.5 75.9,90.5 75.9,90.5 76,90.5 76,90.5 76,90.5 76,90.5 76,90.5 76,90.5 76,90.5 
		76.1,90.5 76.1,90.5 76.1,90.5 76.1,90.5 76.1,90.5 76.1,90.6 76.2,90.6 76.2,90.6 76.2,90.6 76.2,90.6 76.3,90.6 76.3,90.6 
		76.3,90.7 76.3,90.7 76.3,90.7 76.4,90.7 76.4,90.7 76.4,90.8 76.4,90.8 76.5,90.8 76.5,90.8 76.5,90.8 76.5,90.9 76.5,90.9 
		76.5,90.9 76.6,90.9 76.6,91 76.6,91 76.6,91 76.6,91.1 76.6,91.1 76.7,91.1 76.7,91.1 76.7,91.2 76.7,91.2 76.7,91.2 76.7,91.3 
		76.7,91.3 76.7,91.3 76.8,91.4 76.8,91.4 76.8,91.5 76.8,91.5 76.8,91.5 76.8,91.6 76.8,91.6 76.8,91.6 76.8,91.7 76.8,91.7 
		76.8,91.8 76.9,91.8 76.9,91.9 76.9,91.9 76.9,91.9 76.9,92 76.9,92 76.9,92.1 76.9,92.1 76.9,92.2 76.9,92.2 76.9,92.3 76.9,92.3 
		76.9,92.4 76.9,92.4 76.9,92.5 76.9,92.5 76.9,92.6 76.9,92.6 76.9,92.7 76.9,92.7 76.8,92.8 76.8,92.8 76.8,92.9 76.8,92.9 
		76.8,93 76.8,93 76.8,93.1 76.8,93.2 76.8,93.2 76.8,93.3 76.7,93.3 76.7,93.4 76.7,93.4 76.7,93.5 76.5,93.6 76.4,93.4 76.4,93.4 
		76.4,93.3 76.4,93.3 76.4,93.2 76.4,93.1 76.4,93.1 76.4,93 76.4,93 76.4,92.9 76.4,92.9 76.4,92.8 76.4,92.8 76.4,92.7 76.4,92.7 
		76.4,92.6 76.4,92.6 76.4,92.5 76.4,92.5 76.4,92.4 76.4,92.4 76.4,92.4 76.4,92.3 76.4,92.3 76.4,92.2 76.4,92.2 76.4,92.2 
		76.4,92.1 76.4,92.1 76.4,92 76.4,92 76.4,92 76.4,91.9 76.4,91.9 76.4,91.9 76.4,91.8 76.4,91.8 76.4,91.8 76.3,91.7 76.3,91.7 
		76.3,91.7 76.3,91.6 76.3,91.6 76.3,91.6 76.3,91.5 76.3,91.5 76.3,91.5 76.2,91.5 76.2,91.4 76.2,91.4 76.2,91.4 76.2,91.4 
		76.2,91.4 76.2,91.3 76.2,91.3 76.2,91.3 76.1,91.3 76.1,91.3 76.1,91.2 76.1,91.2 76.1,91.2 76.1,91.2 76.1,91.2 76.1,91.2 
		76,91.2 76,91.2 76,91.1 76,91.1 76,91.1 76,91.1 76,91.1 76,91.1 76,91.1 76,91.1 75.9,91.1 75.9,91.1 75.9,91.1 75.9,91.1 
		75.9,91.1 75.9,91.1 75.9,91.1 75.9,91.1 75.9,91.1 75.9,91.1 75.9,91.1 75.9,91.1 75.9,91.1 75.9,91.1 75.9,91.1 75.9,91.1 
		75.9,91.1 75.9,91.1 75.9,91.1 75.9,91.1 75.9,91.1 75.9,91.1 75.9,91.1 75.9,91.1 75.9,91.1 75.9,91.1 75.9,91.1 75.9,91.1 
		75.9,91.1 75.9,91.1 75.9,91.1 75.9,91.1 75.9,91.1 75.9,91.1 75.9,91.1 75.9,91.1 75.9,91.1 75.9,91.1 75.9,91.1 75.9,91.1 
		75.9,91.1 75.9,91.1 75.9,91.1 75.9,91.1 75.9,91.1 75.9,91.1 75.9,91.1 75.9,91.1 75.9,91.1 75.9,91.1 75.9,91.1 75.9,91.1 
		75.9,91.1 75.9,91.1 75.9,91.1 75.9,91.1 75.9,91.1 75.9,91.1 75.9,91.1 75.9,91.1 75.9,91.1 75.8,91.1 75.8,91.1 75.8,91.1 
		75.8,91.1 75.8,91.1 75.8,91.1 75.8,91.1 75.8,91.1 75.8,91.1 75.8,91.2 75.8,91.2 75.8,91.2 75.8,91.2 75.8,91.2 75.8,91.2 
		75.8,91.2 75.8,91.2 75.8,91.3 75.8,91.3 75.8,91.3 75.8,91.3 75.8,91.3 75.7,91.4 75.7,91.4 75.7,91.4 75.7,91.4 75.7,91.5 
		75.7,91.5 75.7,91.5 75.7,91.6 75.7,91.6 75.6,91.8 75.4,91.8 75.4,91.8 75.4,91.8 75.1,91.7 75.1,91.5 75.1,91.5 75.1,91.4 
		75.1,91.4 75.1,91.4 75.1,91.3 75.1,91.3 75.1,91.2 75.1,91.2 75.1,91.2 75.2,91.1 75.2,91.1 75.2,91.1 75.2,91 75.2,91 75.2,91 
		75.2,91 75.2,90.9 75.3,90.9 75.3,90.9 75.3,90.8 75.3,90.8 75.3,90.8 75.3,90.8 75.3,90.8 75.4,90.8 75.4,90.7 75.4,90.7 
		75.4,90.7 75.4,90.7 75.4,90.7 75.4,90.7 75.4,90.7 75.4,90.7 75.5,90.7 75.5,90.7 75.5,90.6 75.5,90.6 75.5,90.6 75.5,90.6 
		75.5,90.6 75.5,90.6 75.6,90.6 75.6,90.6 75.6,90.6 75.6,90.6 75.6,90.6 75.6,90.6 75.6,90.5 75.7,90.5 75.7,90.5 75.7,90.5 
		75.7,90.5 75.7,90.5 75.7,90.5 75.7,90.5 75.8,90.5 75.8,90.5 75.8,90.5 75.8,90.5 75.8,90.5 75.8,90.5 75.8,90.5 75.9,90.5 
		75.9,90.5 	"/>
	<polygon class="st32" points="74.4,106 74.4,106 74.4,106 74.4,106.1 74.3,106.2 74.3,106.2 74.2,106.3 74.2,106.3 74.2,106.4 
		74.1,106.4 74.1,106.5 74,106.6 74,106.6 73.9,106.7 73.9,106.7 73.9,106.7 73.9,106.8 73.8,106.8 73.8,106.9 73.7,106.9 73.7,107 
		73.7,107.1 73.6,107.1 73.6,107.2 73.5,107.2 73.5,107.3 73.4,107.3 73.4,107.4 73.4,107.4 73.3,107.5 73.3,107.5 73.3,107.6 
		73.2,107.6 73.2,107.7 73.1,107.7 73.1,107.8 73,107.8 73,107.9 73,107.9 72.9,108 72.9,108 72.8,108.1 72.8,108.1 72.7,108.2 
		72.7,108.2 72.6,108.3 72.6,108.3 72.5,108.4 72.5,108.4 72.5,108.5 72.4,108.5 72.4,108.5 72.4,108.6 72.3,108.6 72.3,108.7 
		72.2,108.7 72.2,108.8 72.1,108.8 72.1,108.9 72,108.9 72,108.9 72,109 71.9,109 71.9,109 71.8,109.1 71.8,109.1 71.8,109.1 
		71.7,109.2 71.7,109.2 71.6,109.3 71.6,109.3 71.6,109.3 71.5,109.4 71.5,109.4 71.4,109.5 71.4,109.5 71.4,109.5 71.3,109.5 
		71.2,109.6 71.2,109.7 71.1,109.7 71,109.7 70.9,109.8 70.8,109.9 70.7,110 70.6,110.1 70.6,110.1 70.5,110.2 70.4,110.2 
		70.3,110.3 70.2,110.4 70,110.5 70,110.5 69.9,110.5 69.8,110.6 69.7,110.7 69.6,110.8 69.5,110.8 69.4,110.9 69.4,110.9 69.2,111 
		69.1,111 69,111.1 68.9,111.2 68.8,111.2 68.7,111.3 68.5,111.4 68.4,111.4 68.4,111.5 68.3,111.5 68.2,111.6 68.1,111.6 68,111.7 
		67.9,111.7 67.8,111.7 67.8,111.5 67.8,111.5 67.9,111.4 68,111.3 68.1,111.3 68.2,111.2 68.2,111.2 68.3,111.1 68.5,111 
		68.6,110.9 68.7,110.8 68.8,110.8 68.9,110.7 69,110.6 69.1,110.5 69.1,110.5 69.2,110.4 69.3,110.3 69.4,110.2 69.5,110.2 
		69.6,110.1 69.6,110 69.7,110 69.8,109.9 69.9,109.8 70,109.7 70.1,109.6 70.2,109.5 70.3,109.4 70.4,109.4 70.5,109.3 70.6,109.2 
		70.7,109.1 70.7,109.1 70.8,109 70.8,109 70.9,108.9 70.9,108.9 71,108.8 71,108.8 71.1,108.7 71.1,108.7 71.1,108.7 71.2,108.7 
		71.2,108.6 71.3,108.6 71.3,108.5 71.3,108.5 71.4,108.5 71.4,108.4 71.5,108.4 71.5,108.3 71.5,108.3 71.6,108.3 71.6,108.3 
		71.7,108.2 71.7,108.2 71.8,108.1 71.8,108.1 71.9,108 71.9,108 72,108 72,107.9 72,107.9 72.1,107.9 72.1,107.8 72.2,107.8 
		72.2,107.7 72.3,107.7 72.3,107.6 72.4,107.6 72.4,107.6 72.5,107.5 72.5,107.5 72.6,107.4 72.6,107.4 72.7,107.3 72.7,107.3 
		72.8,107.2 72.8,107.2 72.8,107.2 72.9,107.2 72.9,107.1 73,107.1 73,107 73.1,107 73.1,106.9 73.2,106.9 73.2,106.8 73.3,106.8 
		73.3,106.7 73.4,106.7 73.4,106.7 73.5,106.6 73.5,106.6 73.6,106.5 73.6,106.5 73.6,106.4 73.7,106.4 73.7,106.4 73.8,106.3 
		73.8,106.3 73.9,106.2 73.9,106.2 74,106.1 74,106.1 74.1,106 74.1,106 74.2,105.9 74.2,105.9 74.2,105.9 74.3,105.8 74.4,105.8 	
		"/>
	<polygon class="st32" points="73.5,108.9 73.5,108.9 73.4,108.9 73.4,109 73.4,109 73.4,109 73.4,109 73.4,109.1 73.4,109.1 
		73.4,109.1 73.4,109.1 73.4,109.1 73.4,109.2 73.4,109.2 73.4,109.2 73.3,109.3 73.3,109.3 73.3,109.3 73.3,109.3 73.3,109.4 
		73.3,109.4 73.3,109.4 73.3,109.4 73.3,109.5 73.3,109.5 73.3,109.5 73.2,109.5 73.2,109.5 73.2,109.6 73.2,109.6 73.2,109.6 
		73.2,109.6 73.2,109.7 73.2,109.7 73.2,109.7 73.1,109.7 73.1,109.7 73.1,109.7 73.1,109.8 73.1,109.8 73.1,109.8 73.1,109.8 
		73.1,109.9 73,109.9 73,109.9 73,109.9 73,109.9 73,109.9 73,110 73,110 72.9,110 72.9,110 72.9,110.1 72.9,110.1 72.9,110.1 
		72.9,110.1 72.9,110.1 72.8,110.1 72.8,110.2 72.8,110.2 72.8,110.2 72.8,110.2 72.8,110.2 72.8,110.2 72.7,110.2 72.7,110.3 
		72.7,110.3 72.7,110.3 72.7,110.3 72.7,110.3 72.6,110.3 72.6,110.3 72.6,110.3 72.6,110.4 72.6,110.4 72.6,110.4 72.6,110.4 
		72.5,110.4 72.5,110.4 72.5,110.4 72.5,110.4 72.5,110.5 72.4,110.5 72.4,110.5 72.4,110.5 72.4,110.5 72.4,110.5 72.4,110.5 
		72.3,110.5 72.3,110.6 72.3,110.6 72.3,110.6 72.3,110.6 72.2,110.6 72.2,110.6 72.2,110.6 72.2,110.6 72.2,110.6 72.2,110.6 
		72.1,110.6 72.1,110.7 72.1,110.7 72.1,110.7 72,110.7 72,110.7 72,110.7 72,110.7 72,110.7 72,110.7 71.9,110.7 71.9,110.7 
		71.9,110.7 71.9,110.7 71.8,110.8 71.8,110.8 71.8,110.8 71.8,110.8 71.8,110.8 71.7,110.8 71.7,110.8 71.7,110.8 71.7,110.8 
		71.7,110.8 71.6,110.8 71.6,110.8 71.6,110.8 71.6,110.8 71.6,110.8 71.5,110.8 71.5,110.8 71.5,110.8 71.5,110.8 71.5,110.8 
		71.4,110.8 71.4,110.8 71.4,110.8 71.4,110.8 71.4,110.8 71.3,110.8 71.3,110.8 71.3,110.8 71.3,110.8 71.3,110.8 71.2,110.8 
		71.1,110.7 71.2,110.6 71.2,110.6 71.2,110.6 71.3,110.6 71.3,110.6 71.3,110.6 71.3,110.6 71.3,110.6 71.4,110.6 71.4,110.6 
		71.4,110.6 71.4,110.5 71.4,110.5 71.4,110.5 71.5,110.5 71.5,110.5 71.5,110.5 71.5,110.5 71.5,110.5 71.5,110.5 71.6,110.5 
		71.6,110.5 71.6,110.5 71.6,110.4 71.6,110.4 71.6,110.4 71.7,110.4 71.7,110.4 71.7,110.4 71.7,110.4 71.7,110.4 71.7,110.4 
		71.8,110.4 71.8,110.3 71.8,110.3 71.8,110.3 71.8,110.3 71.8,110.3 71.9,110.3 71.9,110.3 71.9,110.3 71.9,110.3 71.9,110.2 
		71.9,110.2 72,110.2 72,110.2 72,110.2 72,110.2 72,110.2 72,110.2 72.1,110.1 72.1,110.1 72.1,110.1 72.1,110.1 72.1,110.1 
		72.1,110.1 72.1,110.1 72.2,110.1 72.2,110 72.2,110 72.2,110 72.2,110 72.2,110 72.3,110 72.3,110 72.3,109.9 72.3,109.9 
		72.3,109.9 72.3,109.9 72.3,109.9 72.4,109.9 72.4,109.9 72.4,109.8 72.4,109.8 72.4,109.8 72.4,109.8 72.5,109.8 72.5,109.8 
		72.5,109.8 72.5,109.7 72.5,109.7 72.5,109.7 72.6,109.7 72.6,109.7 72.6,109.7 72.6,109.6 72.6,109.6 72.6,109.6 72.6,109.6 
		72.7,109.6 72.7,109.6 72.7,109.6 72.7,109.5 72.7,109.5 72.7,109.5 72.8,109.5 72.8,109.5 72.8,109.4 72.8,109.4 72.8,109.4 
		72.8,109.4 72.8,109.4 72.9,109.4 72.9,109.4 72.9,109.3 72.9,109.3 72.9,109.3 72.9,109.3 72.9,109.3 73,109.2 73,109.2 73,109.2 
		73,109.2 73,109.2 73,109.1 73,109.1 73.1,109.1 73.1,109.1 73.1,109.1 73.1,109 73.1,109 73.1,109 73.1,109 73.2,109 73.2,108.9 
		73.2,108.9 73.2,108.9 73.2,108.9 73.2,108.8 73.2,108.8 73.4,108.8 	"/>
	<polygon class="st32" points="71.6,107.3 71.6,107.3 71.5,107.4 71.3,107.7 71.1,107.9 71,108.1 70.8,108.2 70.8,108.3 70.7,108.4 
		70.6,108.4 70.5,108.5 70.4,108.6 70.2,108.7 70.1,108.8 69.8,109 69.5,109.2 69.5,109.2 69.4,109.2 69.4,109 69.4,109 69.6,108.8 
		69.8,108.5 69.9,108.4 70.1,108.2 70.2,108.1 70.3,108 70.3,108 70.4,107.9 70.5,107.9 70.7,107.7 70.9,107.6 71,107.5 71.4,107.2 
		71.5,107.2 71.5,107.2 71.7,107.2 	"/>
</g>
<g>
	<defs>
		<path id="SVGID_31_" d="M64.5,95.8c-0.5,0.8-0.1,1.6,0.4,2.2c1.6-1,3.1-2.3,4.5-4c-0.2-0.4-0.5-0.5-1-0.5
			C67.1,93.5,65.2,94.7,64.5,95.8"/>
	</defs>
	<clipPath id="SVGID_32_">
		<use xlink:href="#SVGID_31_"  style="overflow:visible;"/>
	</clipPath>
	<path class="st33" d="M65.6,94.3c-0.6,0.6-0.7,1.5-0.2,2.1c0.5,0.6,1.5,0.6,2.1,0.1c0.6-0.6,0.7-1.5,0.2-2.1
		C67.2,93.8,66.3,93.8,65.6,94.3"/>
	<path class="st34" d="M65.5,95.4c-0.1,0.1-0.1,0.3,0,0.4c0.1,0.1,0.3,0.1,0.4,0c0.1-0.1,0.1-0.3,0-0.4
		C65.8,95.3,65.6,95.3,65.5,95.4"/>
</g>
<g>
	<defs>
		<rect id="SVGID_33_" width="283.5" height="283.5"/>
	</defs>
	<clipPath id="SVGID_34_">
		<use xlink:href="#SVGID_33_"  style="overflow:visible;"/>
	</clipPath>
	<path class="st35" d="M69.3,94c-1.3,1.6-2.8,2.9-4.5,4c-0.5-0.6-0.9-1.3-0.4-2.2C65.5,94.3,68.5,92.6,69.3,94z"/>
	<path class="st36" d="M67.8,91.7c-1.9,0.4-3.6,1.2-5.1,2.9"/>
	<path class="st36" d="M54.5,102.7c0.5-1.7,1.3-3.1,3.2-4.3"/>
	<path class="st35" d="M52.4,84.7c0,0,6.2-1.6,5.2-0.3C56.5,85.7,52.4,84.7,52.4,84.7z"/>
	<path class="st35" d="M52.1,84.4c0.5-1.2,4.4-3.7,4.4-2.7C56.4,82.8,52.4,84.2,52.1,84.4z"/>
	<path class="st35" d="M52.1,84.3c0,0-4.2,6.2-4.6,5.3c-0.3-0.6,0.7-2.2,2-3.4C50.7,85.2,52.1,84.3,52.1,84.3z"/>
	<path class="st35" d="M52.4,84.7c0,0-0.8,7.8-1.8,6.4C49.6,89.8,52.4,84.7,52.4,84.7z"/>
	<polygon class="st37" points="68.4,101.1 68.5,101.1 68.5,101.1 68.5,101.1 68.6,101.2 68.6,101.2 68.6,101.2 68.6,101.2 
		68.7,101.2 68.7,101.2 68.7,101.2 68.8,101.3 68.8,101.3 68.8,101.3 68.8,101.3 68.9,101.3 68.9,101.3 68.9,101.3 69,101.3 
		69,101.3 69,101.3 69,101.4 69.1,101.4 69.1,101.4 69.1,101.4 69.1,101.4 69.1,101.4 69.2,101.4 69.2,101.4 69.2,101.4 69.2,101.4 
		69.3,101.4 69.3,101.4 69.3,101.4 69.3,101.4 69.3,101.4 69.3,101.5 69.4,101.5 69.4,101.5 69.4,101.5 69.4,101.5 69.4,101.5 
		69.4,101.5 69.5,101.5 69.5,101.5 69.5,101.5 69.5,101.5 69.6,101.5 69.6,101.5 69.6,101.6 69.6,101.6 69.6,101.6 69.7,101.6 
		69.7,101.6 69.7,101.6 69.7,101.6 69.7,101.6 69.8,101.6 69.8,101.6 69.8,101.6 69.8,101.6 69.8,101.6 69.9,101.6 69.9,101.6 
		69.9,101.7 69.9,101.7 70,101.7 70,101.7 70,101.7 70,101.7 70.1,101.7 70.1,101.7 70.1,101.7 70.1,101.7 70.1,101.7 70.1,101.7 
		70.2,101.7 70.2,101.7 70.2,101.7 70.3,101.8 70.2,101.9 70.2,101.9 70.2,101.9 70.2,101.9 70.2,101.9 70.1,101.9 70.1,101.9 
		70.1,101.9 70.1,101.9 70.1,101.9 70,101.9 70,101.9 70,101.9 69.9,102 69.9,102 69.9,102 69.9,102 69.8,102 69.8,102 69.8,102 
		69.8,102 69.7,102 69.7,102 69.7,102 69.6,102 69.6,102 69.6,102 69.6,102 69.6,102 69.5,102 69.5,102 69.5,102 69.5,102 69.4,102 
		69.4,102 69.4,102 69.3,102 69.3,102 69.3,102 69.3,101.9 69.2,101.9 69.2,101.9 69.2,101.9 69.1,101.9 69.1,101.9 69.1,101.9 
		69.1,101.9 69.1,101.9 69,101.9 69,101.9 69,101.9 69,101.8 68.9,101.8 68.9,101.8 68.9,101.8 68.9,101.8 68.8,101.8 68.8,101.7 
		68.8,101.7 68.8,101.7 68.8,101.7 68.7,101.7 68.7,101.7 68.7,101.6 68.6,101.6 68.6,101.6 68.6,101.6 68.6,101.5 68.5,101.5 
		68.5,101.5 68.5,101.5 68.5,101.4 68.4,101.4 68.4,101.4 68.4,101.4 68.4,101.3 68.4,101.3 68.3,101.3 68.3,101.2 68.3,101.2 
		68.3,101.1 68.4,101.1 	"/>
	<path class="st38" d="M46.7,101.1c0.8,0.9,1.7,1.3,2.9,0.7"/>
</g>
</svg>
