<?xml version="1.0" encoding="utf-8"?>
<!-- Generator: Adobe Illustrator 22.1.0, SVG Export Plug-In . SVG Version: 6.00 Build 0)  -->
<svg version="1.1" id="Слой_1" xmlns="http://www.w3.org/2000/svg" xmlns:xlink="http://www.w3.org/1999/xlink" x="0px" y="0px"
	 viewBox="0 0 283.5 283.5" style="enable-background:new 0 0 283.5 283.5;" xml:space="preserve">
<style type="text/css">
	.st0{clip-path:url(#SVGID_2_);fill-rule:evenodd;clip-rule:evenodd;fill:#FFE600;}
	.st1{clip-path:url(#SVGID_2_);fill:none;stroke:#12100B;stroke-linejoin:round;stroke-miterlimit:10;}
	.st2{clip-path:url(#SVGID_4_);fill-rule:evenodd;clip-rule:evenodd;fill:#FFFFFF;}
	.st3{clip-path:url(#SVGID_4_);fill:none;stroke:#12100B;stroke-linecap:round;stroke-linejoin:round;stroke-miterlimit:10;}
	.st4{clip-path:url(#SVGID_6_);fill:none;stroke:#12100B;stroke-linecap:round;stroke-linejoin:round;stroke-miterlimit:10;}
	.st5{clip-path:url(#SVGID_6_);fill-rule:evenodd;clip-rule:evenodd;fill:#FFFFFF;}
	.st6{clip-path:url(#SVGID_8_);fill-rule:evenodd;clip-rule:evenodd;fill:#BBDEF6;}
	.st7{clip-path:url(#SVGID_8_);fill:none;stroke:#12100B;stroke-linejoin:round;stroke-miterlimit:10;}
	.st8{clip-path:url(#SVGID_10_);fill:none;stroke:#12100B;stroke-linejoin:round;stroke-miterlimit:10;}
	.st9{clip-path:url(#SVGID_10_);fill-rule:evenodd;clip-rule:evenodd;fill:#FFFFFF;}
	.st10{clip-path:url(#SVGID_10_);fill:none;stroke:#12100B;stroke-linecap:round;stroke-linejoin:round;stroke-miterlimit:10;}
	
		.st11{clip-path:url(#SVGID_10_);fill:none;stroke:#12100B;stroke-width:2;stroke-linecap:round;stroke-linejoin:round;stroke-miterlimit:10;}
	.st12{clip-path:url(#SVGID_12_);fill-rule:evenodd;clip-rule:evenodd;fill:#12100B;}
	.st13{clip-path:url(#SVGID_12_);fill-rule:evenodd;clip-rule:evenodd;fill:#FFFFFF;}
	.st14{clip-path:url(#SVGID_14_);fill:none;stroke:#12100B;stroke-linecap:round;stroke-linejoin:round;stroke-miterlimit:10;}
	
		.st15{clip-path:url(#SVGID_14_);fill:none;stroke:#12100B;stroke-width:0.7;stroke-linecap:round;stroke-linejoin:round;stroke-miterlimit:10;}
	.st16{clip-path:url(#SVGID_14_);fill-rule:evenodd;clip-rule:evenodd;fill:#FFFFFF;}
	.st17{clip-path:url(#SVGID_14_);fill-rule:evenodd;clip-rule:evenodd;fill:#12100B;}
	.st18{clip-path:url(#SVGID_14_);fill:none;stroke:#12100B;stroke-linejoin:round;stroke-miterlimit:10;}
	.st19{clip-path:url(#SVGID_14_);fill-rule:evenodd;clip-rule:evenodd;fill:#FFE600;}
</style>
<g>
	<defs>
		<rect id="SVGID_1_" width="283.5" height="283.5"/>
	</defs>
	<clipPath id="SVGID_2_">
		<use xlink:href="#SVGID_1_"  style="overflow:visible;"/>
	</clipPath>
	<path class="st0" d="M135.3,165.3c0,0-8.8-10.1-23.5,19.4c-7.3,14.6-28.4,92.8-28.4,92.8l28.6,0.2L135.3,165.3z"/>
	<path class="st1" d="M135.3,165.3c0,0-8.8-10.1-23.5,19.4c-7.3,14.6-28.4,92.8-28.4,92.8l28.6,0.2L135.3,165.3z"/>
	<path class="st0" d="M174,141.1l-0.7,12.4c19.5,21.3,23.3,71.9,25.7,125.6l-109.2-0.6c7.8-32.3,24.2-97.1,39.1-113.3
		c4.6-5,8.9-9.6,14.3-10.4l4.4-14.6c0,0-19.5,0.1-26-4.1c-6.5-4.1-8.7-6.7-7.6-15.2c0.2-1.9,1-7.2,1-7.2c13.4,3.6,15.8,0.3,15.8,0.3
		l-13.2-12.8l3-9.7c0,0-6.1-3-6.1-6.9c0-3.9,8.7-5.9,13.3-11.1c4.6-5.2,19.8-27.8,19.8-27.8s7.2-2,16.4,5.2
		c9.2,7.2,12.8,45.4,12.8,45.4s18.7,1.3,11.6,13.1c-7,11.8-10.2,13.1-10.2,13.1L174,141.1z"/>
</g>
<g>
	<defs>
		<path id="SVGID_3_" d="M147.7,46c0,0-15.3,22.6-19.8,27.8c-4.6,5.2-13.3,7.2-13.3,11.1c0,3.9,6.1,6.9,6.1,6.9l-3,9.7l13.2,12.8
			c0,0-2.4,3.3-15.8-0.3c0,0-0.8,5.3-1,7.2c-1.1,8.5,1.1,11.1,7.6,15.2c6.5,4.1,26,4.1,26,4.1l-4.4,14.6c-5.4,0.8-9.7,5.5-14.3,10.4
			c-14.9,16.2-31.3,81-39.1,113.3l109.2,0.6c-2.4-53.7-6.2-104.3-25.7-125.6l0.7-12.4l4.3-18.2c0,0,3.2-1.3,10.2-13.1
			c7-11.8-11.6-13.1-11.6-13.1s-3.6-38.2-12.8-45.4c-5.9-4.6-11-5.5-13.9-5.5C148.6,45.7,147.7,46,147.7,46"/>
	</defs>
	<clipPath id="SVGID_4_">
		<use xlink:href="#SVGID_3_"  style="overflow:visible;"/>
	</clipPath>
	<path class="st2" d="M173.3,153.6c-11.1,10.3-28.1,18.3-35,13.1c-4.8-3.6,4.6-11.7,4.6-11.7l-3.7-9.8c0,0-25.1-0.8-29.7-10.8
		c-4.6-10,4.8-41.4,4.8-41.4s-7.6-7.3-3.9-14c3.6-6.7,18.6-14,18.6-14s-2.9-5.9,4.9-17.8c7.9-11.9,19.6-19,30.3-16.2
		c10.7,2.8,17.9,8.4,17.9,8.4s23.2,3.6,27.7,8.5c4.5,4.9,5.4,8.5,5.4,8.5s20.6,16.1,19.1,26.3c-1.5,10.3-2.7,13-2.7,13
		s7.6,9.2-4.4,24.4c-12,15.3-33.2,31.6-39.7,31.1c-6.5-0.5-10.6-1-10.6-1L173.3,153.6z"/>
	<path class="st3" d="M173.3,153.6c-11.1,10.3-28.1,18.3-35,13.1c-4.8-3.6,4.6-11.7,4.6-11.7l-3.7-9.8c0,0-25.1-0.8-29.7-10.8
		c-4.6-10,4.8-41.4,4.8-41.4s-7.6-7.3-3.9-14c3.6-6.7,18.6-14,18.6-14s-2.9-5.9,4.9-17.8c7.9-11.9,19.6-19,30.3-16.2
		c10.7,2.8,17.9,8.4,17.9,8.4s23.2,3.6,27.7,8.5c4.5,4.9,5.4,8.5,5.4,8.5s20.6,16.1,19.1,26.3c-1.5,10.3-2.7,13-2.7,13
		s7.6,9.2-4.4,24.4c-12,15.3-33.2,31.6-39.7,31.1c-6.5-0.5-10.6-1-10.6-1L173.3,153.6z"/>
</g>
<g>
	<defs>
		<rect id="SVGID_5_" width="283.5" height="283.5"/>
	</defs>
	<clipPath id="SVGID_6_">
		<use xlink:href="#SVGID_5_"  style="overflow:visible;"/>
	</clipPath>
	<path class="st4" d="M174,141.1l-0.7,12.4c19.5,21.3,23.3,71.9,25.7,125.6l-109.2-0.6c7.8-32.3,24.2-97.1,39.1-113.3
		c4.6-5,8.9-9.6,14.3-10.4l4.4-14.6c0,0-19.5,0.1-26-4.1c-6.5-4.1-8.7-6.7-7.6-15.2c0.2-1.9,1-7.2,1-7.2c13.4,3.6,15.8,0.3,15.8,0.3
		l-13.2-12.8l3-9.7c0,0-6.1-3-6.1-6.9c0-3.9,8.7-5.9,13.3-11.1c4.6-5.2,19.8-27.8,19.8-27.8s7.2-2,16.4,5.2
		c9.2,7.2,12.8,45.4,12.8,45.4s18.7,1.3,11.6,13.1c-7,11.8-10.2,13.1-10.2,13.1L174,141.1z"/>
	<path class="st5" d="M33.1,112.6L93.9,74c9,1.2,21.4,36.3,16.9,40.2l-64.3,25.3C46.5,139.5,33.6,132.4,33.1,112.6"/>
</g>
<g>
	<defs>
		<path id="SVGID_7_" d="M33.1,112.6c0.5,19.8,13.5,26.9,13.5,26.9l64.3-25.3c4.5-3.9-7.9-39-16.9-40.2L33.1,112.6z"/>
	</defs>
	<clipPath id="SVGID_8_">
		<use xlink:href="#SVGID_7_"  style="overflow:visible;"/>
	</clipPath>
	<path class="st6" d="M31.1,112.6l80.7,0.1c-17,15.2-40.6,24.5-67.7,29.1C27.7,131.1,31.1,112.6,31.1,112.6"/>
	<path class="st7" d="M31.1,112.6l80.7,0.1c-17,15.2-40.6,24.5-67.7,29.1C27.7,131.1,31.1,112.6,31.1,112.6z"/>
</g>
<g>
	<defs>
		<rect id="SVGID_9_" width="283.5" height="283.5"/>
	</defs>
	<clipPath id="SVGID_10_">
		<use xlink:href="#SVGID_9_"  style="overflow:visible;"/>
	</clipPath>
	<path class="st8" d="M33.1,112.6L93.9,74c9,1.2,21.4,36.3,16.9,40.2l-64.3,25.3C46.5,139.5,33.6,132.4,33.1,112.6z"/>
	<path class="st9" d="M135.8,62.9c6.7-10.1,13-12.6,21.2-11.7c3.7,10.8,1.8,16.7,10.3,22.2c-3.3,4.4-2.7,7.9,3.2,10.4
		c-4.1,7.2-3.6,13.7,1.8,19.5c9.3-9.4,20.1,7.2,1.4,15.1c-1.5-0.4-4.7,19.4-1.5,21.2c2.4,1.4,4.3,4,5.6,5.3c2.8,2.8,4.8,2.6,8.7,0.6
		c1.4-0.7,3.1-1.7,5.2-2.8c23.5-12.9,40-32.2,36-43.1c3-11.8,1.5-21.9-5.1-30.1c-4.4-5.4-8.9-9.7-13.5-11.8
		c-1.8-6.5-11.6-10.6-27.1-13.1c-5.7-2.3-9.1-6.3-14.1-7.6c-11.1-2.9-19.9,1-26.9,8.7C137.3,49.9,136,55.5,135.8,62.9"/>
	<path class="st10" d="M135.8,62.9c6.7-10.1,13-12.6,21.2-11.7c3.7,10.8,1.8,16.7,10.3,22.2c-3.3,4.4-2.7,7.9,3.2,10.4
		c-4.1,7.2-3.6,13.7,1.8,19.5c9.3-9.4,20.1,7.2,1.4,15.1c-1.5-0.4-4.7,19.4-1.5,21.2c2.4,1.4,4.3,4,5.6,5.3c2.8,2.8,4.8,2.6,8.7,0.6
		c1.4-0.7,3.1-1.7,5.2-2.8c23.5-12.9,40-32.2,36-43.1c3-11.8,1.5-21.9-5.1-30.1c-4.4-5.4-8.9-9.7-13.5-11.8
		c-1.8-6.5-11.6-10.6-27.1-13.1c-5.7-2.3-9.1-6.3-14.1-7.6c-11.1-2.9-19.9,1-26.9,8.7C137.3,49.9,136,55.5,135.8,62.9z"/>
	<path class="st9" d="M194.9,75.2c0.5-8.5-4.7-20.8-16-31.7"/>
	<path class="st10" d="M194.9,75.2c0.5-8.5-4.7-20.8-16-31.7"/>
	<path class="st9" d="M199.7,60.9c-3.2-5.5-9.1-11.5-18-15.6"/>
	<path class="st10" d="M199.7,60.9c-3.2-5.5-9.1-11.5-18-15.6"/>
	<path class="st11" d="M151.7,84.2c-1.3-5.4-4-9.9-11.4-11.4"/>
	<path class="st9" d="M145,90.1c-4.7-1.8-8.6-4.5-11.8-7.7c1.4-1.9,3.2-3.9,5.5-3.3C142.9,80.1,148.3,86.6,145,90.1"/>
</g>
<g>
	<defs>
		<path id="SVGID_11_" d="M133.2,82.4c3.3,3.2,7.1,5.9,11.8,7.7c3.3-3.5-2.1-10-6.4-11.1c-0.3-0.1-0.5-0.1-0.8-0.1
			C135.9,78.9,134.4,80.7,133.2,82.4"/>
	</defs>
	<clipPath id="SVGID_12_">
		<use xlink:href="#SVGID_11_"  style="overflow:visible;"/>
	</clipPath>
	<path class="st12" d="M138.8,79.9c1.3,0.9,1.6,2.7,0.7,4.1c-0.9,1.4-2.7,1.8-4,0.9c-1.3-0.9-1.6-2.7-0.7-4.1
		C135.7,79.4,137.5,79,138.8,79.9"/>
	<path class="st13" d="M137.6,80.5c0.2,0.2,0.3,0.5,0.1,0.8c-0.2,0.3-0.5,0.3-0.8,0.2c-0.2-0.2-0.3-0.5-0.1-0.8
		C137,80.4,137.4,80.3,137.6,80.5"/>
</g>
<g>
	<defs>
		<rect id="SVGID_13_" width="283.5" height="283.5"/>
	</defs>
	<clipPath id="SVGID_14_">
		<use xlink:href="#SVGID_13_"  style="overflow:visible;"/>
	</clipPath>
	<path class="st14" d="M145,90.1c-4.7-1.8-8.6-4.5-11.8-7.7c1.4-1.9,3.2-3.9,5.5-3.3C142.9,80.1,148.3,86.6,145,90.1z"/>
	<path class="st15" d="M127.6,89.7c-1.1,2.2-3.3,2.5-5.1,1.9"/>
	<path class="st16" d="M157.4,137.5c-5,2-11.1,2.8-14.5,2.7"/>
	<polygon class="st17" points="157.7,137.4 157.5,137.9 157.4,137.9 157.3,138 157.2,138 157,138.1 156.9,138.1 156.8,138.2 
		156.7,138.2 156.6,138.3 156.4,138.3 156.3,138.3 156.2,138.4 156.1,138.4 156,138.5 155.8,138.5 155.7,138.6 155.6,138.6 
		155.5,138.7 155.3,138.7 155.2,138.7 155.1,138.8 155,138.8 154.8,138.9 154.7,138.9 154.6,138.9 154.5,139 154.3,139 154.2,139.1 
		154.1,139.1 154,139.1 153.8,139.2 153.7,139.2 153.6,139.2 153.5,139.3 153.3,139.3 153.2,139.3 153.1,139.4 153,139.4 
		152.8,139.4 152.7,139.5 152.6,139.5 152.5,139.5 152.3,139.6 152.2,139.6 152.1,139.6 152,139.7 151.8,139.7 151.7,139.7 
		151.6,139.8 151.5,139.8 151.3,139.8 151.2,139.8 151.1,139.9 151,139.9 150.8,139.9 150.7,139.9 150.6,140 150.5,140 150.4,140 
		150.2,140.1 150.1,140.1 150,140.1 149.9,140.1 149.7,140.1 149.6,140.2 149.5,140.2 149.4,140.2 149.3,140.2 149.1,140.3 
		149,140.3 148.9,140.3 148.8,140.3 148.7,140.3 148.5,140.4 148.4,140.4 148.3,140.4 148.2,140.4 148.1,140.4 148,140.4 
		147.8,140.5 147.7,140.5 147.6,140.5 147.5,140.5 147.4,140.5 147.3,140.5 147.2,140.6 147,140.6 146.9,140.6 146.8,140.6 
		146.7,140.6 146.6,140.6 146.5,140.6 146.4,140.6 146.3,140.7 146.2,140.7 146.1,140.7 145.9,140.7 145.8,140.7 145.7,140.7 
		145.6,140.7 145.5,140.7 145.4,140.7 145.3,140.7 145.2,140.8 145.1,140.8 145,140.8 144.9,140.8 144.8,140.8 144.7,140.8 
		144.6,140.8 144.5,140.8 144.4,140.8 144.3,140.8 144.2,140.8 144.1,140.8 144,140.8 143.9,140.8 143.9,140.8 143.8,140.8 
		143.7,140.8 143.6,140.8 143.5,140.8 143.4,140.8 143.3,140.8 143.2,140.8 143.1,140.8 143.1,140.8 143,140.8 142.9,140.8 
		142.9,140.8 142.5,140.6 142.3,140.2 142.3,140.2 142.5,139.7 142.9,139.6 142.9,139.6 143,139.6 143.1,139.6 143.2,139.6 
		143.3,139.6 143.3,139.6 143.4,139.6 143.5,139.6 143.6,139.6 143.7,139.6 143.8,139.6 143.8,139.6 143.9,139.6 144,139.6 
		144.1,139.6 144.2,139.6 144.3,139.6 144.4,139.6 144.5,139.6 144.6,139.6 144.7,139.6 144.8,139.6 144.9,139.6 144.9,139.6 
		145,139.6 145.1,139.6 145.2,139.6 145.3,139.5 145.4,139.5 145.5,139.5 145.6,139.5 145.7,139.5 145.9,139.5 146,139.5 
		146.1,139.5 146.2,139.5 146.3,139.5 146.4,139.5 146.5,139.5 146.6,139.5 146.7,139.5 146.8,139.4 146.9,139.4 147,139.4 
		147.1,139.4 147.2,139.4 147.4,139.4 147.5,139.4 147.6,139.4 147.7,139.4 147.8,139.3 147.9,139.3 148,139.3 148.2,139.3 
		148.3,139.3 148.4,139.3 148.5,139.3 148.6,139.2 148.7,139.2 148.8,139.2 149,139.2 149.1,139.2 149.2,139.2 149.3,139.1 
		149.4,139.1 149.6,139.1 149.7,139.1 149.8,139.1 149.9,139.1 150,139 150.2,139 150.3,139 150.4,139 150.5,138.9 150.6,138.9 
		150.8,138.9 150.9,138.9 151,138.9 151.1,138.8 151.3,138.8 151.4,138.8 151.5,138.8 151.6,138.7 151.7,138.7 151.9,138.7 
		152,138.7 152.1,138.6 152.2,138.6 152.4,138.6 152.5,138.5 152.6,138.5 152.7,138.5 152.9,138.5 153,138.4 153.1,138.4 
		153.2,138.4 153.4,138.3 153.5,138.3 153.6,138.3 153.7,138.2 153.8,138.2 154,138.2 154.1,138.1 154.2,138.1 154.3,138.1 
		154.5,138 154.6,138 154.7,138 154.8,137.9 155,137.9 155.1,137.9 155.2,137.8 155.3,137.8 155.4,137.8 155.6,137.7 155.7,137.7 
		155.8,137.6 155.9,137.6 156,137.6 156.2,137.5 156.3,137.5 156.4,137.4 156.5,137.4 156.6,137.4 156.8,137.3 156.9,137.3 
		157,137.2 157.1,137.2 157.2,137.1 	"/>
	<polygon class="st17" points="176.7,105.2 176.8,105.2 176.8,105.2 176.9,105.2 176.9,105.2 176.9,105.2 177,105.2 177,105.2 
		177,105.2 177.1,105.2 177.1,105.2 177.1,105.2 177.2,105.2 177.2,105.2 177.2,105.2 177.3,105.2 177.3,105.2 177.3,105.2 
		177.4,105.2 177.4,105.2 177.4,105.3 177.5,105.3 177.5,105.3 177.5,105.3 177.6,105.3 177.6,105.3 177.6,105.3 177.7,105.3 
		177.7,105.3 177.7,105.4 177.8,105.4 177.8,105.4 177.8,105.4 177.8,105.4 177.9,105.4 177.9,105.4 177.9,105.5 178,105.5 
		178,105.5 178,105.5 178,105.5 178.1,105.5 178.1,105.5 178.1,105.6 178.1,105.6 178.2,105.6 178.2,105.6 178.2,105.6 178.2,105.7 
		178.3,105.7 178.3,105.7 178.3,105.7 178.3,105.7 178.4,105.8 178.4,105.8 178.4,105.8 178.4,105.8 178.4,105.8 178.5,105.9 
		178.5,105.9 178.5,105.9 178.5,105.9 178.5,106 178.6,106 178.6,106 178.6,106 178.6,106.1 178.6,106.1 178.7,106.1 178.7,106.1 
		178.7,106.2 178.7,106.2 178.7,106.2 178.7,106.2 178.8,106.3 178.8,106.3 178.8,106.3 178.8,106.3 178.8,106.4 178.8,106.4 
		178.9,106.4 178.9,106.4 178.9,106.5 178.9,106.5 178.9,106.5 178.9,106.6 178.9,106.6 178.9,106.6 179,106.6 179,106.7 179,106.7 
		179,106.7 179,106.8 179,106.8 179,106.8 179,106.9 179,106.9 179,106.9 179,106.9 179.1,107 179.1,107 179.1,107 179.1,107.1 
		179.1,107.1 179.1,107.1 179.1,107.2 179.1,107.2 179.1,107.2 179.1,107.3 179.1,107.3 179.1,107.3 179.1,107.4 179.1,107.4 
		179.1,107.4 179.1,107.5 179.1,107.5 179.1,107.5 179.1,107.5 179.2,107.6 179.2,107.6 179.2,107.6 179.2,107.7 179.2,107.7 
		179.2,107.7 179.2,107.8 179.2,107.8 179.2,107.8 179.2,107.9 179.2,107.9 179.2,108 179.2,108 179.2,108 179.2,108.1 179.2,108.1 
		179.2,108.1 179.2,108.2 179.1,108.2 179.1,108.2 179.1,108.3 179.1,108.3 179.1,108.3 179.1,108.4 179.1,108.4 179.1,108.4 
		179.1,108.5 179.1,108.5 179.1,108.6 179.1,108.6 179.1,108.7 179.1,108.8 179.1,108.9 179,108.9 179,109 179,109.1 179,109.1 
		179,109.2 178.9,109.3 178.9,109.4 178.9,109.4 178.9,109.5 178.9,109.6 178.8,109.6 178.8,109.7 178.8,109.8 178.7,109.9 
		178.7,109.9 178.7,110 178.7,110.1 178.6,110.2 178.6,110.2 178.6,110.3 178.5,110.4 178.5,110.4 178.5,110.5 178.4,110.6 
		178.4,110.7 178.3,110.7 178.3,110.8 178.3,110.9 178.2,110.9 178.2,111 178.1,111.1 178.1,111.1 178,111.2 178,111.2 178,111.3 
		178,111.3 178,111.3 177.9,111.4 177.9,111.4 177.9,111.4 177.9,111.5 177.8,111.5 177.8,111.5 177.8,111.6 177.8,111.6 
		177.7,111.6 177.7,111.7 177.7,111.7 177.6,111.7 177.6,111.8 177.6,111.8 177.6,111.8 177.5,111.9 177.5,111.9 177.5,111.9 
		177.4,112 177.4,112 177.4,112 177.4,112.1 177.3,112.1 177.3,112.1 177.3,112.1 177.2,112.2 177.2,112.2 177.2,112.2 177.1,112.3 
		177.1,112.3 177.1,112.3 177,112.4 177,112.4 177,112.4 177,112.5 176.9,112.5 176.9,112.5 176.9,112.5 176.8,112.6 176.8,112.6 
		176.8,112.6 176.7,112.7 176.7,112.7 176.6,112.7 176.6,112.8 176.6,112.8 176.5,112.8 176.5,112.8 176.5,112.9 176.4,112.9 
		176.4,112.9 176.4,112.9 176.3,113 176.3,113 176.2,113 176.2,113.1 176.2,113.1 176.1,113.1 176.1,113.1 176.1,113.2 176,113.2 
		176,113.2 175.9,113.2 175.9,113.3 175.9,113.3 175.8,113.3 175.8,113.3 175.7,113.4 175.7,113.4 175.7,113.4 175.6,113.4 
		175.6,113.5 175.5,113.5 175.5,113.5 175.5,113.5 175.4,113.6 175.4,113.6 175.3,113.6 175.3,113.6 175.2,113.6 175.2,113.7 
		175.2,113.7 175.1,113.7 175.1,113.7 175,113.7 175,113.8 174.9,113.8 174.9,113.8 174.8,113.8 174.8,113.8 174.7,113.9 
		174.7,113.9 174.7,113.9 174.6,113.9 174.6,113.9 174.5,114 174.5,114 174.4,114 174.4,114 174.3,114 174.3,114 174.2,114 
		174.2,114.1 174.1,114.1 174.1,114.1 174,114.1 174,114.1 173.9,114.1 173.9,114.2 173.8,114.2 173.8,114.2 173.7,114.2 
		173.7,114.2 173.6,114.2 173.6,114.2 173.5,114.2 173.5,114.3 173.4,114.3 173.4,114.3 173.3,114.3 173.3,114.3 173.2,114.3 
		173.2,114.3 173.1,114.3 173.1,114.3 173,114.3 173,114.3 172.9,114.4 172.8,114.4 172.8,114.4 172.7,114.4 172.7,114.4 
		172.6,114.4 172.6,114.4 172.5,114.4 172.5,114.4 172.4,114.4 172.4,114.4 172.3,114.4 172.2,114.4 172.2,114.4 172.1,114.4 
		172.1,114.4 172,114.4 172,114.4 171.9,114.4 171.8,114.4 171.8,114.4 171.7,114.4 171.7,114.4 171.6,114.4 171.5,114.4 
		171.5,114.4 171.4,114.4 171.4,114.4 171.3,114.4 171.3,114.4 171.2,114.4 171.1,114.4 171.1,114.4 171,114.4 170.9,114.4 
		170.9,114.4 170.8,114.4 170.8,114.4 170.7,114.4 170.6,114.4 170.6,114.4 170.5,114.4 170.5,114.4 170.4,114.4 170.3,114.3 
		170.3,114.3 170.2,114.3 170.1,114.3 170.1,114.3 170,114.3 169.9,114.3 169.9,114.3 169.8,114.3 169.8,114.2 169.7,114.2 
		169.6,114.2 169.6,114.2 169.5,114.2 169.4,114.2 169.4,114.2 169.3,114.1 169.2,114.1 169.2,114.1 169.1,114.1 169,114.1 
		169,114.1 168.9,114 168.8,114 168.8,114 168.7,114 168.6,114 168.6,113.9 168.4,113.6 168.7,113.5 168.8,113.5 168.8,113.5 
		168.9,113.5 169,113.5 169,113.5 169.1,113.6 169.2,113.6 169.2,113.6 169.3,113.6 169.3,113.6 169.4,113.6 169.5,113.7 
		169.5,113.7 169.6,113.7 169.7,113.7 169.7,113.7 169.8,113.7 169.9,113.7 169.9,113.7 170,113.7 170,113.8 170.1,113.8 
		170.2,113.8 170.2,113.8 170.3,113.8 170.3,113.8 170.4,113.8 170.5,113.8 170.5,113.8 170.6,113.8 170.6,113.8 170.7,113.8 
		170.8,113.8 170.8,113.8 170.9,113.8 170.9,113.9 171,113.9 171,113.9 171.1,113.9 171.2,113.9 171.2,113.9 171.3,113.9 
		171.3,113.9 171.4,113.9 171.4,113.9 171.5,113.9 171.6,113.9 171.6,113.9 171.7,113.9 171.7,113.9 171.8,113.9 171.8,113.9 
		171.9,113.9 171.9,113.9 172,113.9 172,113.9 172.1,113.9 172.1,113.8 172.2,113.8 172.3,113.8 172.3,113.8 172.4,113.8 
		172.4,113.8 172.5,113.8 172.5,113.8 172.6,113.8 172.6,113.8 172.7,113.8 172.7,113.8 172.8,113.8 172.8,113.8 172.9,113.8 
		172.9,113.8 173,113.7 173,113.7 173.1,113.7 173.1,113.7 173.2,113.7 173.2,113.7 173.3,113.7 173.3,113.7 173.3,113.7 
		173.4,113.6 173.4,113.6 173.5,113.6 173.5,113.6 173.6,113.6 173.6,113.6 173.7,113.6 173.7,113.6 173.8,113.5 173.8,113.5 
		173.9,113.5 173.9,113.5 173.9,113.5 174,113.5 174,113.5 174.1,113.4 174.1,113.4 174.2,113.4 174.2,113.4 174.2,113.4 
		174.3,113.4 174.3,113.3 174.4,113.3 174.4,113.3 174.5,113.3 174.5,113.3 174.5,113.3 174.6,113.2 174.6,113.2 174.7,113.2 
		174.7,113.2 174.7,113.2 174.8,113.1 174.8,113.1 174.9,113.1 174.9,113.1 174.9,113.1 175,113 175,113 175.1,113 175.1,113 
		175.1,113 175.2,112.9 175.2,112.9 175.3,112.9 175.3,112.9 175.3,112.8 175.4,112.8 175.4,112.8 175.4,112.8 175.5,112.8 
		175.5,112.7 175.5,112.7 175.6,112.7 175.6,112.7 175.6,112.6 175.7,112.6 175.7,112.6 175.8,112.6 175.8,112.5 175.8,112.5 
		175.9,112.5 175.9,112.5 175.9,112.4 176,112.4 176,112.4 176,112.4 176.1,112.3 176.1,112.3 176.1,112.3 176.1,112.3 176.2,112.2 
		176.2,112.2 176.2,112.2 176.3,112.2 176.3,112.1 176.3,112.1 176.4,112.1 176.4,112 176.4,112 176.5,112 176.5,112 176.5,111.9 
		176.5,111.9 176.6,111.9 176.6,111.8 176.6,111.8 176.7,111.8 176.7,111.8 176.7,111.7 176.7,111.7 176.8,111.7 176.8,111.6 
		176.8,111.6 176.8,111.6 176.9,111.6 176.9,111.5 176.9,111.5 176.9,111.5 177,111.4 177,111.4 177,111.4 177,111.3 177.1,111.3 
		177.1,111.3 177.1,111.3 177.1,111.2 177.2,111.2 177.2,111.2 177.2,111.1 177.2,111.1 177.3,111.1 177.3,111 177.3,111 177.3,111 
		177.3,110.9 177.4,110.9 177.4,110.9 177.4,110.8 177.4,110.8 177.4,110.8 177.5,110.8 177.5,110.7 177.5,110.6 177.6,110.6 
		177.6,110.5 177.7,110.4 177.7,110.4 177.7,110.3 177.8,110.2 177.8,110.2 177.8,110.1 177.9,110 177.9,110 177.9,109.9 
		177.9,109.9 178,109.8 178,109.7 178,109.7 178,109.6 178.1,109.5 178.1,109.5 178.1,109.4 178.1,109.3 178.2,109.3 178.2,109.2 
		178.2,109.1 178.2,109.1 178.2,109 178.2,109 178.3,108.9 178.3,108.8 178.3,108.8 178.3,108.7 178.3,108.6 178.3,108.6 
		178.3,108.5 178.3,108.5 178.3,108.4 178.3,108.4 178.4,108.3 178.4,108.3 178.4,108.3 178.4,108.3 178.4,108.2 178.4,108.2 
		178.4,108.2 178.4,108.1 178.4,108.1 178.4,108.1 178.4,108.1 178.4,108 178.4,108 178.4,108 178.4,107.9 178.4,107.9 178.4,107.9 
		178.4,107.9 178.4,107.8 178.4,107.8 178.4,107.8 178.4,107.8 178.4,107.7 178.4,107.7 178.4,107.7 178.4,107.6 178.4,107.6 
		178.4,107.6 178.3,107.6 178.3,107.5 178.3,107.5 178.3,107.5 178.3,107.5 178.3,107.4 178.3,107.4 178.3,107.4 178.3,107.4 
		178.3,107.3 178.3,107.3 178.3,107.3 178.3,107.3 178.3,107.3 178.3,107.2 178.3,107.2 178.3,107.2 178.3,107.2 178.3,107.1 
		178.3,107.1 178.2,107.1 178.2,107.1 178.2,107.1 178.2,107 178.2,107 178.2,107 178.2,107 178.2,106.9 178.2,106.9 178.2,106.9 
		178.2,106.9 178.2,106.9 178.1,106.9 178.1,106.8 178.1,106.8 178.1,106.8 178.1,106.8 178.1,106.8 178.1,106.7 178.1,106.7 
		178.1,106.7 178.1,106.7 178,106.7 178,106.7 178,106.6 178,106.6 178,106.6 178,106.6 178,106.6 178,106.6 178,106.5 177.9,106.5 
		177.9,106.5 177.9,106.5 177.9,106.5 177.9,106.5 177.9,106.5 177.9,106.4 177.9,106.4 177.8,106.4 177.8,106.4 177.8,106.4 
		177.8,106.4 177.8,106.4 177.8,106.4 177.8,106.3 177.7,106.3 177.7,106.3 177.7,106.3 177.7,106.3 177.7,106.3 177.7,106.3 
		177.6,106.3 177.6,106.3 177.6,106.2 177.6,106.2 177.6,106.2 177.6,106.2 177.5,106.2 177.5,106.2 177.5,106.2 177.5,106.2 
		177.5,106.2 177.5,106.2 177.4,106.2 177.4,106.1 177.4,106.1 177.4,106.1 177.4,106.1 177.3,106.1 177.3,106.1 177.3,106.1 
		177.3,106.1 177.3,106.1 177.2,106.1 177.2,106.1 177.2,106.1 177.2,106.1 177.2,106.1 177.1,106.1 177.1,106.1 177.1,106.1 
		177.1,106.1 177,106 177,106 177,106 177,106 176.9,106 176.9,106 176.9,106 176.9,106 176.8,106 176.8,106 176.8,106 176.8,106 
		176.7,106 176.7,106 176.7,106 176.7,106 176.6,106 176.6,106 176.6,106 176.5,106 176.5,106 176.5,106 176.5,106 176.4,106.1 
		176.4,106.1 176.4,106.1 176.3,106.1 176.3,106.1 176.3,106.1 176.2,106.1 176.2,106.1 176.2,106.1 176.1,106.1 176.1,106.1 
		176.1,106.1 176,106.1 176,106.1 176,106.1 175.9,106.1 175.9,106.2 175.9,106.2 175.8,106.2 175.8,106.2 175.8,106.2 175.7,106.2 
		175.7,106.2 175.6,106.2 175.6,106.2 175.6,106.3 175.5,106.3 175.5,106.3 175.5,106.3 175.4,106.3 175.4,106.3 175.3,106.4 
		175.3,106.4 175.3,106.4 175.2,106.4 175.2,106.4 175.1,106.4 175.1,106.5 175.1,106.5 175,106.5 175,106.5 174.9,106.5 
		174.9,106.6 174.8,106.6 174.8,106.6 174.8,106.6 174.7,106.6 174.7,106.7 174.6,106.7 174.6,106.7 174.5,106.7 174.5,106.8 
		174.4,106.8 174.4,106.8 174.4,106.8 174.3,106.9 174.3,106.9 174.2,106.9 174.2,107 174.1,107 174.1,107 174,107 174,107.1 
		173.9,107.1 173.9,107.1 173.8,107.2 173.8,107.2 173.7,107.2 173.7,107.3 173.6,107.3 173.6,107.3 173.5,107.4 173.5,107.4 
		173.4,107.4 173.4,107.5 173.3,107.5 173.3,107.6 173.2,107.6 173.2,107.6 173.2,107.6 172.8,107.7 172.5,107.5 172.5,107.5 
		172.5,107.5 172.4,107.2 172.6,106.9 172.7,106.8 172.7,106.8 172.8,106.7 172.8,106.7 172.9,106.7 172.9,106.6 173,106.6 
		173,106.6 173.1,106.5 173.2,106.5 173.2,106.4 173.3,106.4 173.3,106.4 173.4,106.3 173.4,106.3 173.5,106.3 173.5,106.2 
		173.6,106.2 173.6,106.2 173.7,106.2 173.7,106.1 173.8,106.1 173.8,106.1 173.9,106 173.9,106 174,106 174.1,106 174.1,105.9 
		174.2,105.9 174.2,105.9 174.3,105.9 174.3,105.8 174.3,105.8 174.4,105.8 174.4,105.8 174.5,105.7 174.5,105.7 174.6,105.7 
		174.6,105.7 174.7,105.6 174.7,105.6 174.8,105.6 174.8,105.6 174.9,105.6 174.9,105.6 175,105.5 175,105.5 175.1,105.5 
		175.1,105.5 175.1,105.5 175.2,105.4 175.2,105.4 175.3,105.4 175.3,105.4 175.4,105.4 175.4,105.4 175.5,105.4 175.5,105.3 
		175.5,105.3 175.6,105.3 175.6,105.3 175.7,105.3 175.7,105.3 175.8,105.3 175.8,105.3 175.8,105.3 175.9,105.3 175.9,105.2 
		176,105.2 176,105.2 176.1,105.2 176.1,105.2 176.1,105.2 176.2,105.2 176.2,105.2 176.2,105.2 176.3,105.2 176.3,105.2 
		176.4,105.2 176.4,105.2 176.4,105.2 176.5,105.2 176.5,105.2 176.6,105.2 176.6,105.2 176.6,105.2 176.7,105.2 176.7,105.2 	"/>
	<path class="st16" d="M219.8,107.8c3.2-2.2,6.1-5.2,8-8.7"/>
	<path class="st14" d="M219.8,107.8c3.2-2.2,6.1-5.2,8-8.7"/>
	<path class="st15" d="M174.7,117.7c0,0-5.8,2.1-8.3,1.6c-3.1-0.6-3.1-3.4-3.1-3.4"/>
	<path class="st16" d="M70.4,162.9l-6.8-23.9c-7.9-2.5-11.7-8.2-15.4-15.2c-4.3-8.1-4.9-17.8-4.6-18.9c1.3-3.8,6-3,6-3
		c0.4,3.6,1.6,9.2,3.5,13.1c0,0-4.2-10.6-2.9-15.2c0.9-3.2,6.6-4.7,6.5-2l3.3,12.7c0,0-2.5-8.1-2.2-13.9c0.1-2.7,0-4.3,3.1-5.8
		c1.9-0.9,4.5-0.6,4.5-0.6c-0.7,4.1,0,11.7,1.2,16.6c0.5-0.4-1.3-6-1.3-11.8c0-6.1,2.1-8.1,4.2-9.3c3-1.7,6.2-0.6,5.1,0.8
		c0,0-8.2,17.4,8.4,33c5.4,2.8,8.4,3.2,14.5,0.3c-0.1,2.4-1.6,7.2-12.2,9.1c-4.8,0.8-6.4,5.3-6.4,5.3l8.9,21.4L70.4,162.9z"/>
	<path class="st18" d="M70.4,162.9l-6.8-23.9c-7.9-2.5-11.7-8.2-15.4-15.2c-4.3-8.1-4.9-17.8-4.6-18.9c1.3-3.8,6-3,6-3
		c0.4,3.6,1.6,9.2,3.5,13.1c0,0-4.2-10.6-2.9-15.2c0.9-3.2,6.6-4.7,6.5-2l3.3,12.7c0,0-2.5-8.1-2.2-13.9c0.1-2.7,0-4.3,3.1-5.8
		c1.9-0.9,4.5-0.6,4.5-0.6c-0.7,4.1,0,11.7,1.2,16.6c0.5-0.4-1.3-6-1.3-11.8c0-6.1,2.1-8.1,4.2-9.3c3-1.7,6.2-0.6,5.1,0.8
		c0,0-8.2,17.4,8.4,33c5.4,2.8,8.4,3.2,14.5,0.3c-0.1,2.4-1.6,7.2-12.2,9.1c-4.8,0.8-6.4,5.3-6.4,5.3l8.9,21.4L70.4,162.9z"/>
	<path class="st19" d="M63.6,155.5l22.8-12.1l35.2,70.9c0,0,5.7-4.3,13-10.2c8.4-6.7,19-15.4,25.9-21.9c2.4-2.3,9.1-6,13.9-3.5
		c8.4,4.2,12.2,20.4-15.1,47.3c-11.2,11.1-29,20.7-39.5,23.1C107.4,256.2,83.9,209.7,63.6,155.5"/>
	<path class="st18" d="M63.6,155.5l22.8-12.1l35.2,70.9c0,0,5.7-4.3,13-10.2c8.4-6.7,19-15.4,25.9-21.9c2.4-2.3,9.1-6,13.9-3.5
		c8.4,4.2,12.2,20.4-15.1,47.3c-11.2,11.1-29,20.7-39.5,23.1C107.4,256.2,83.9,209.7,63.6,155.5z"/>
	<polygon class="st17" points="122.7,214.4 122.7,214.4 122.8,214.5 122.9,214.5 123,214.6 123.1,214.6 123.1,214.6 123.2,214.7 
		123.3,214.7 123.4,214.8 123.4,214.8 123.5,214.8 123.6,214.9 123.7,214.9 123.7,215 123.8,215 123.9,215.1 124,215.1 124,215.2 
		124.1,215.2 124.2,215.2 124.2,215.3 124.3,215.3 124.4,215.4 124.4,215.4 124.5,215.5 124.6,215.5 124.6,215.6 124.7,215.6 
		124.8,215.7 124.8,215.7 124.9,215.8 125,215.8 125,215.9 125.1,215.9 125.1,216 125.2,216 125.3,216.1 125.3,216.1 125.4,216.2 
		125.4,216.3 125.5,216.3 125.6,216.4 125.6,216.4 125.7,216.5 125.7,216.5 125.8,216.6 125.8,216.6 125.9,216.7 125.9,216.8 
		126,216.8 126,216.9 126.1,216.9 126.1,217 126.2,217 126.2,217.1 126.3,217.2 126.3,217.2 126.4,217.3 126.4,217.3 126.4,217.4 
		126.5,217.5 126.5,217.5 126.6,217.6 126.6,217.6 126.7,217.7 126.7,217.8 126.7,217.8 126.8,217.9 126.8,217.9 126.8,218 
		126.9,218.1 126.9,218.1 127,218.2 127,218.3 127,218.3 127.1,218.4 127.1,218.5 127.1,218.5 127.1,218.6 127.2,218.6 127.2,218.7 
		127.2,218.8 127.3,218.8 127.3,218.9 127.3,219 127.3,219 127.4,219.1 127.4,219.2 127.4,219.2 127.4,219.3 127.5,219.4 
		127.5,219.4 127.5,219.5 127.5,219.6 127.5,219.6 127.6,219.7 127.6,219.8 127.6,219.8 127.6,219.9 127.6,220 127.6,220.1 
		127.7,220.1 127.7,220.2 127.7,220.3 127.7,220.3 127.7,220.4 127.7,220.5 127.7,220.5 127.7,220.6 127.7,220.7 127.8,220.7 
		127.8,220.8 127.8,220.9 127.8,220.9 127.8,221 127.8,221.1 127.8,221.2 127.8,221.2 127.8,221.3 127.8,221.4 127.8,221.4 
		127.8,221.5 127.8,221.6 127.8,221.7 127.8,221.7 127.8,221.8 127.8,221.9 127.8,221.9 127.8,222 127.3,222.4 127,222 127,221.9 
		127,221.8 127,221.8 127,221.7 127,221.6 127,221.6 127,221.5 127,221.5 127,221.4 127,221.3 127,221.3 126.9,221.2 126.9,221.2 
		126.9,221.1 126.9,221 126.9,221 126.9,220.9 126.9,220.8 126.9,220.8 126.9,220.7 126.9,220.7 126.9,220.6 126.8,220.6 
		126.8,220.5 126.8,220.4 126.8,220.4 126.8,220.3 126.8,220.3 126.8,220.2 126.7,220.1 126.7,220.1 126.7,220 126.7,220 
		126.7,219.9 126.7,219.9 126.6,219.8 126.6,219.7 126.6,219.7 126.6,219.6 126.5,219.6 126.5,219.5 126.5,219.5 126.5,219.4 
		126.4,219.3 126.4,219.3 126.4,219.2 126.4,219.2 126.3,219.1 126.3,219.1 126.3,219 126.3,219 126.2,218.9 126.2,218.9 
		126.2,218.8 126.1,218.7 126.1,218.7 126.1,218.6 126,218.6 126,218.5 126,218.5 125.9,218.4 125.9,218.4 125.9,218.3 125.8,218.3 
		125.8,218.2 125.7,218.2 125.7,218.1 125.7,218.1 125.6,218 125.6,218 125.5,217.9 125.5,217.9 125.5,217.8 125.4,217.8 
		125.4,217.7 125.3,217.7 125.3,217.6 125.2,217.6 125.2,217.5 125.1,217.5 125.1,217.4 125,217.4 125,217.4 124.9,217.3 
		124.9,217.3 124.8,217.2 124.8,217.2 124.7,217.1 124.7,217.1 124.6,217 124.6,217 124.5,216.9 124.5,216.9 124.4,216.9 
		124.4,216.8 124.3,216.8 124.3,216.7 124.2,216.7 124.1,216.7 124.1,216.6 124,216.6 124,216.5 123.9,216.5 123.8,216.5 
		123.8,216.4 123.7,216.4 123.7,216.3 123.6,216.3 123.5,216.3 123.5,216.2 123.4,216.2 123.3,216.1 123.3,216.1 123.2,216.1 
		123.1,216 123.1,216 123,216 122.9,215.9 122.9,215.9 122.8,215.9 122.7,215.8 122.7,215.8 122.6,215.8 122.5,215.7 122.4,215.7 
		122.4,215.7 122.3,215.6 122.2,215.6 122.2,215.6 121.9,215.2 121.9,214.8 121.9,214.8 122.2,214.4 	"/>
	<polygon class="st17" points="181,207.1 181,207.2 181,207.2 181,207.2 181,207.3 181,207.3 181,207.3 181,207.3 181,207.4 
		180.9,207.4 180.9,207.4 180.9,207.5 180.9,207.5 180.9,207.5 180.9,207.5 180.9,207.6 180.9,207.6 180.8,207.6 180.8,207.6 
		180.8,207.7 180.8,207.7 180.8,207.7 180.8,207.8 180.8,207.8 180.7,207.8 180.7,207.8 180.7,207.9 180.7,207.9 180.7,207.9 
		180.6,207.9 180.6,208 180.6,208 180.6,208 180.6,208.1 180.5,208.1 180.5,208.1 180.5,208.1 180.5,208.2 180.5,208.2 180.4,208.2 
		180.4,208.2 180.4,208.3 180.4,208.3 180.3,208.3 180.3,208.3 180.3,208.4 180.3,208.4 180.2,208.4 180.2,208.4 180.2,208.5 
		180.1,208.6 180.1,208.6 180,208.7 180,208.7 179.9,208.8 179.8,208.8 179.8,208.9 179.7,208.9 179.7,209 179.6,209 179.5,209.1 
		179.5,209.1 179.4,209.2 179.3,209.2 179.3,209.3 179.2,209.3 179.1,209.4 179.1,209.4 179,209.5 178.9,209.5 178.8,209.6 
		178.8,209.6 178.7,209.7 178.6,209.7 178.5,209.8 178.5,209.8 178.4,209.9 178.3,209.9 178.2,210 178.1,210 178.1,210.1 178,210.1 
		177.9,210.2 177.8,210.2 177.7,210.2 177.6,210.3 177.6,210.3 177.5,210.4 177.4,210.4 177.3,210.5 177.2,210.5 177.1,210.6 
		177,210.6 176.9,210.7 176.8,210.7 176.8,210.8 176.7,210.8 176.6,210.9 176.5,210.9 176.4,211 176.3,211 176.2,211 176.1,211.1 
		176,211.1 175.9,211.2 175.8,211.2 175.7,211.3 175.7,211.3 175.6,211.4 175.5,211.4 175.4,211.4 175.3,211.5 175.2,211.5 
		175.1,211.6 175,211.6 174.9,211.7 174.8,211.7 174.7,211.7 174.6,211.8 174.5,211.8 174.4,211.9 174.3,211.9 174.2,212 174.1,212 
		174,212 173.9,212.1 173.7,212.2 173.5,212.3 173.3,212.3 173.1,212.4 172.9,212.5 172.8,212.6 172.6,212.6 172.4,212.7 
		172.2,212.8 172,212.8 171.9,212.9 171.7,212.9 171.5,213 171.5,213 171.1,213 170.7,212.6 170.7,212.6 170.7,212.6 170.8,212.1 
		171.1,211.8 171.1,211.8 171.3,211.7 171.5,211.7 171.6,211.6 171.8,211.6 172,211.5 172.2,211.5 172.3,211.4 172.5,211.3 
		172.7,211.3 172.9,211.2 173.1,211.2 173.3,211.1 173.4,211 173.6,211 173.7,210.9 173.8,210.9 173.9,210.9 174,210.8 174.1,210.8 
		174.2,210.7 174.3,210.7 174.4,210.7 174.5,210.6 174.6,210.6 174.7,210.6 174.7,210.5 174.8,210.5 174.9,210.4 175,210.4 
		175.1,210.4 175.2,210.3 175.3,210.3 175.4,210.3 175.5,210.2 175.6,210.2 175.7,210.1 175.8,210.1 175.9,210.1 175.9,210 176,210 
		176.1,209.9 176.2,209.9 176.3,209.8 176.4,209.8 176.5,209.8 176.6,209.7 176.7,209.7 176.7,209.6 176.8,209.6 176.9,209.6 
		177,209.5 177.1,209.5 177.2,209.4 177.3,209.4 177.3,209.3 177.4,209.3 177.5,209.3 177.6,209.2 177.7,209.2 177.7,209.1 
		177.8,209.1 177.9,209 178,209 178,209 178.1,208.9 178.2,208.9 178.3,208.8 178.3,208.8 178.4,208.7 178.5,208.7 178.5,208.7 
		178.6,208.6 178.7,208.6 178.7,208.5 178.8,208.5 178.9,208.4 178.9,208.4 179,208.3 179.1,208.3 179.1,208.3 179.2,208.2 
		179.2,208.2 179.3,208.1 179.3,208.1 179.4,208 179.4,208 179.5,208 179.5,207.9 179.6,207.9 179.6,207.8 179.6,207.8 179.7,207.8 
		179.7,207.8 179.7,207.8 179.7,207.7 179.8,207.7 179.8,207.7 179.8,207.7 179.8,207.7 179.8,207.6 179.8,207.6 179.9,207.6 
		179.9,207.6 179.9,207.6 179.9,207.5 179.9,207.5 179.9,207.5 180,207.5 180,207.5 180,207.4 180,207.4 180,207.4 180,207.4 
		180,207.4 180.1,207.3 180.1,207.3 180.1,207.3 180.1,207.3 180.1,207.3 180.1,207.3 180.1,207.2 180.1,207.2 180.1,207.2 
		180.2,207.2 180.2,207.2 180.2,207.2 180.2,207.1 180.2,207.1 180.2,207.1 180.2,207.1 180.2,207.1 180.2,207.1 180.2,207 
		180.2,207 180.2,207 180.2,207 180.2,207 180.2,207 180.7,206.7 	"/>
	<polygon class="st17" points="122.3,214.6 122.3,214.6 122.4,214.7 122.4,214.7 122.4,214.8 122.4,214.8 122.5,214.9 122.5,214.9 
		122.5,215 122.5,215.1 122.6,215.1 122.6,215.2 122.6,215.2 122.6,215.3 122.6,215.4 122.7,215.4 122.7,215.5 122.7,215.6 
		122.7,215.6 122.7,215.7 122.7,215.8 122.8,215.8 122.8,215.9 122.8,216 122.8,216 122.8,216.1 122.8,216.2 122.9,216.3 
		122.9,216.3 122.9,216.4 122.9,216.5 122.9,216.6 122.9,216.6 122.9,216.7 122.9,216.8 122.9,216.9 122.9,217 123,217 123,217.1 
		123,217.2 123,217.3 123,217.4 123,217.4 123,217.5 123,217.6 123,217.7 123,217.8 123,217.9 123,217.9 123,218 123,218.1 
		123,218.2 123,218.3 123,218.4 123,218.5 123,218.6 123,218.6 123,218.7 123,218.8 123,218.9 123,219 123,219.1 123,219.2 
		123,219.3 123,219.4 123,219.4 122.9,219.5 122.9,219.6 122.9,219.7 122.9,219.8 122.9,219.9 122.9,220 122.9,220.1 122.9,220.2 
		122.9,220.3 122.8,220.4 122.8,220.5 122.8,220.5 122.8,220.6 122.8,220.7 122.8,220.8 122.7,220.9 122.7,221 122.7,221.1 
		122.7,221.2 122.7,221.3 122.6,221.4 122.6,221.5 122.6,221.5 122.6,221.6 122.5,221.7 122.5,221.8 122.5,221.9 122.5,222 
		122.4,222.1 122.4,222.2 122.4,222.3 122.3,222.4 122.3,222.4 122.3,222.5 122.3,222.6 122.2,222.7 122.2,222.8 122.2,222.9 
		122.1,223 122.1,223 122,223.1 122,223.2 122,223.3 122,223.3 121.9,223.3 121.9,223.4 121.9,223.4 121.9,223.5 121.9,223.5 
		121.8,223.5 121.8,223.6 121.8,223.6 121.8,223.7 121.8,223.7 121.7,223.8 121.7,223.8 121.7,223.8 121.7,223.9 121.6,223.9 
		121.6,224 121.6,224 121.6,224 121.5,224.1 121.5,224.1 121.5,224.1 121.5,224.2 121.4,224.2 121.4,224.3 121.4,224.3 121.4,224.3 
		121.3,224.4 121.3,224.4 121.3,224.5 121.3,224.5 121.2,224.5 121.2,224.6 121.2,224.6 121.2,224.6 121.1,224.7 121.1,224.7 
		121.1,224.7 121,224.8 121,224.8 121,224.9 121,224.9 120.9,224.9 120.4,225 120.3,224.4 120.3,224.4 120.4,224.4 120.4,224.3 
		120.4,224.3 120.4,224.3 120.5,224.2 120.5,224.2 120.5,224.2 120.5,224.1 120.5,224.1 120.6,224.1 120.6,224 120.6,224 120.6,224 
		120.7,223.9 120.7,223.9 120.7,223.9 120.7,223.8 120.7,223.8 120.8,223.8 120.8,223.7 120.8,223.7 120.8,223.6 120.8,223.6 
		120.9,223.6 120.9,223.5 120.9,223.5 120.9,223.5 120.9,223.4 121,223.4 121,223.4 121,223.3 121,223.3 121,223.2 121,223.2 
		121.1,223.2 121.1,223.1 121.1,223.1 121.1,223.1 121.1,223 121.1,223 121.2,222.9 121.2,222.9 121.2,222.9 121.2,222.8 
		121.3,222.7 121.3,222.6 121.3,222.5 121.3,222.5 121.4,222.4 121.4,222.3 121.4,222.2 121.4,222.1 121.5,222.1 121.5,222 
		121.5,221.9 121.5,221.8 121.6,221.7 121.6,221.7 121.6,221.6 121.6,221.5 121.6,221.4 121.7,221.3 121.7,221.2 121.7,221.2 
		121.7,221.1 121.7,221 121.7,220.9 121.8,220.8 121.8,220.7 121.8,220.6 121.8,220.6 121.8,220.5 121.8,220.4 121.8,220.3 
		121.8,220.2 121.8,220.1 121.9,220.1 121.9,220 121.9,219.9 121.9,219.8 121.9,219.7 121.9,219.6 121.9,219.5 121.9,219.5 
		121.9,219.4 121.9,219.3 121.9,219.2 121.9,219.1 121.9,219 121.9,219 121.9,218.9 121.9,218.8 121.9,218.7 121.9,218.6 
		121.9,218.6 121.9,218.5 121.9,218.4 121.9,218.3 121.9,218.2 121.9,218.2 121.9,218.1 121.9,218 121.9,217.9 121.9,217.8 
		121.9,217.8 121.9,217.7 121.9,217.6 121.8,217.5 121.8,217.5 121.8,217.4 121.8,217.3 121.8,217.2 121.8,217.2 121.8,217.1 
		121.8,217 121.8,217 121.8,216.9 121.7,216.8 121.7,216.8 121.7,216.7 121.7,216.6 121.7,216.6 121.7,216.5 121.7,216.4 
		121.6,216.4 121.6,216.3 121.6,216.2 121.6,216.2 121.6,216.1 121.6,216.1 121.6,216 121.5,216 121.5,215.9 121.5,215.9 
		121.5,215.8 121.5,215.8 121.4,215.7 121.4,215.7 121.4,215.6 121.4,215.6 121.4,215.5 121.4,215.5 121.3,215.4 121.3,215.4 
		121.3,215.4 121.3,215.3 121.3,215.3 121.2,215.2 121.2,215.2 121.2,215.2 121.2,214.7 121.5,214.3 121.5,214.3 122,214.3 	"/>
	<path class="st18" d="M94.3,74c-6.1,2.8,5.5,37.6,16.7,40"/>
	<polygon class="st17" points="80.3,132.5 80.2,132.5 80.2,132.6 80.1,132.6 80.1,132.7 80,132.8 80,132.8 79.9,132.9 79.9,132.9 
		79.8,133 79.7,133 79.7,133.1 79.6,133.1 79.6,133.2 79.5,133.2 79.5,133.3 79.4,133.3 79.3,133.4 79.3,133.4 79.2,133.5 
		79.2,133.5 79.1,133.6 79.1,133.6 79,133.7 78.9,133.7 78.9,133.8 78.8,133.8 78.8,133.9 78.7,133.9 78.7,134 78.6,134 78.5,134.1 
		78.5,134.1 78.4,134.1 78.4,134.2 78.3,134.2 78.2,134.3 78.2,134.3 78.1,134.4 78,134.4 78,134.5 77.9,134.5 77.9,134.5 
		77.8,134.6 77.7,134.6 77.7,134.7 77.6,134.7 77.6,134.7 77.5,134.8 77.4,134.8 77.4,134.9 77.3,134.9 77.2,134.9 77.2,135 
		77.1,135 77,135.1 77,135.1 76.9,135.1 76.9,135.2 76.8,135.2 76.7,135.2 76.7,135.3 76.6,135.3 76.5,135.4 76.5,135.4 76.4,135.4 
		76.3,135.5 76.3,135.5 76.2,135.5 76.1,135.6 76.1,135.6 76,135.6 75.9,135.7 75.9,135.7 75.8,135.7 75.7,135.8 75.7,135.8 
		75.6,135.8 75.5,135.9 75.4,135.9 75.4,135.9 75.3,135.9 75.2,136 75.2,136 75.1,136 75,136.1 75,136.1 74.9,136.1 74.8,136.2 
		74.8,136.2 74.7,136.2 74.6,136.2 74.5,136.3 74.5,136.3 74.4,136.3 74.3,136.3 74.3,136.4 74.2,136.4 74.1,136.4 74,136.4 
		74,136.5 73.9,136.5 73.8,136.5 73.8,136.5 73.7,136.6 73.6,136.6 73.5,136.6 73.5,136.6 73.4,136.7 73.3,136.7 73.2,136.7 
		73.2,136.7 73.1,136.7 73,136.8 72.9,136.8 72.9,136.8 72.8,136.8 72.7,136.8 72.6,136.9 72.6,136.9 72.5,136.9 72.4,136.9 
		72.3,136.9 72.3,136.9 72.2,137 72.1,137 72,137 72,137 71.9,137 71.7,136.3 71.8,136.2 71.8,136.2 71.9,136.2 72,136.2 
		72.1,136.2 72.1,136.1 72.2,136.1 72.3,136.1 72.3,136.1 72.4,136.1 72.5,136 72.6,136 72.6,136 72.7,136 72.8,135.9 72.8,135.9 
		72.9,135.9 73,135.9 73,135.8 73.1,135.8 73.2,135.8 73.3,135.8 73.3,135.7 73.4,135.7 73.5,135.7 73.5,135.7 73.6,135.6 
		73.7,135.6 73.7,135.6 73.8,135.6 73.9,135.5 73.9,135.5 74,135.5 74.1,135.5 74.1,135.4 74.2,135.4 74.3,135.4 74.3,135.3 
		74.4,135.3 74.5,135.3 74.5,135.3 74.6,135.2 74.6,135.2 74.7,135.2 74.8,135.1 74.8,135.1 74.9,135.1 75,135 75,135 75.1,135 
		75.2,134.9 75.2,134.9 75.3,134.9 75.3,134.8 75.4,134.8 75.5,134.8 75.5,134.7 75.6,134.7 75.6,134.7 75.7,134.6 75.8,134.6 
		75.8,134.6 75.9,134.5 75.9,134.5 76,134.5 76.1,134.4 76.1,134.4 76.2,134.3 76.2,134.3 76.3,134.3 76.4,134.2 76.4,134.2 
		76.5,134.2 76.5,134.1 76.6,134.1 76.6,134 76.7,134 76.8,134 76.8,133.9 76.9,133.9 76.9,133.8 77,133.8 77,133.8 77.1,133.7 
		77.2,133.7 77.2,133.6 77.3,133.6 77.3,133.5 77.4,133.5 77.4,133.5 77.5,133.4 77.5,133.4 77.6,133.3 77.6,133.3 77.7,133.2 
		77.8,133.2 77.8,133.2 77.9,133.1 77.9,133.1 78,133 78,133 78.1,132.9 78.1,132.9 78.2,132.8 78.2,132.8 78.3,132.7 78.3,132.7 
		78.4,132.6 78.4,132.6 78.5,132.5 78.5,132.5 78.6,132.4 78.6,132.4 78.7,132.3 78.7,132.3 78.8,132.2 78.8,132.2 78.9,132.1 
		78.9,132.1 79,132 79,132 79.1,131.9 79.1,131.9 79.2,131.8 79.2,131.8 79.2,131.7 79.3,131.7 79.3,131.6 	"/>
</g>
</svg>
