<?xml version="1.0" encoding="utf-8"?>
<!-- Generator: Adobe Illustrator 22.1.0, SVG Export Plug-In . SVG Version: 6.00 Build 0)  -->
<svg version="1.1" id="Слой_5" xmlns="http://www.w3.org/2000/svg" xmlns:xlink="http://www.w3.org/1999/xlink" x="0px" y="0px"
	 viewBox="0 0 512 512" style="enable-background:new 0 0 512 512;" xml:space="preserve">
<style type="text/css">
	.st0{fill:#FFFFFF;stroke:#000000;stroke-width:3;stroke-linecap:round;stroke-linejoin:round;stroke-miterlimit:10;}
	.st1{fill:#2E7553;stroke:#000000;stroke-width:3;stroke-linecap:round;stroke-linejoin:round;stroke-miterlimit:10;}
	.st2{fill:#472B25;stroke:#000000;stroke-width:3;stroke-linecap:round;stroke-linejoin:round;stroke-miterlimit:10;}
	.st3{fill:#FDCD95;stroke:#000000;stroke-width:3;stroke-linecap:round;stroke-linejoin:round;stroke-miterlimit:10;}
	.st4{fill:none;stroke:#000000;stroke-width:3;stroke-linecap:round;stroke-linejoin:round;stroke-miterlimit:10;}
	.st5{fill:#FFFFFF;}
	.st6{fill:none;stroke:#000000;stroke-width:2;stroke-linecap:round;stroke-linejoin:round;stroke-miterlimit:10;}
	.st7{fill:#315164;stroke:#000000;stroke-width:2;stroke-linecap:round;stroke-linejoin:round;stroke-miterlimit:10;}
	.st8{fill:#FFD56E;stroke:#000000;stroke-width:3;stroke-linecap:round;stroke-linejoin:round;stroke-miterlimit:10;}
	.st9{fill:#EB8C30;stroke:#000000;stroke-width:3;stroke-linecap:round;stroke-linejoin:round;stroke-miterlimit:10;}
</style>
<g>
	<path class="st0" d="M286.4,46.1c-51.5,0-93.2,32-93.2,71.4c0,16.5,7.3,31.7,19.5,43.7c-4.4,12.4-12.7,31.4-22.9,37.2
		c0,0,40.3-7,57.4-16.2c11.9,4.3,25.2,6.6,39.3,6.6c51.5,0,93.2-32,93.2-71.4C379.6,78.1,337.9,46.1,286.4,46.1z"/>
	<circle cx="145.5" cy="170.7" r="0.2"/>
	<g>
		<path class="st1" d="M96.2,246.2c0,0,30.5,14.7,32,21.1c1.5,6.4,0,7.9,0,7.9l0,0c11.5,9.9,19.4,23.4,22.4,38.3l7.9,39.1
			l-19.6,17.7l-30.6-31l-13.6-84.2L96.2,246.2z"/>
		<path class="st2" d="M62.5,217.7L56,221l-3.7-9.3L46.4,229c0,0-18.4-18.4-16.4-38.4c0,0-5.9,8.9-5.9,13.1
			c0,4.2-17.6-54.7,4.2-85.3c0,0,2.8-16.7,1.1-21.8c0,0,12.2,4.2,14.2,3.4c1.9-0.8,40.8-44.8,93.3-2.5c7.7,6.2,13.1,14.8,14.7,24.5
			c1,6.2,0.5,12.9-4.1,17.4c0,0-6.2-18.7-24.9-26.9c0,0,3.1,16.1,1.1,19.3c-2,3.1-19-18.7-30.6-20.4c0,0,0.8,29.5-2.5,37.1l-5.9-8.2
			c0,0,3,30.5-4.4,29.6L66.5,187l-1.6,12.2L62.5,217.7z"/>
		<path class="st3" d="M154.8,193.2c-2.3,44.2-39.1,44.2-44.7,45.3s-5.7,21-5.7,27.2c0,6.2,5.7,18.7,5.7,18.7H99.3l-32.9-14.2
			l-6.8-30.6l3.6-28.2l3.2-24.5c-7.6-5.9-5.7-24.4-0.3-28s12.5,9.3,12.5,9.3c7.4,0.8,5.4-29.7,5.4-29.7l5.9,8.2
			c3.4-7.6,2.5-37.1,2.5-37.1c11.6,1.7,28.6,23.5,30.6,20.4c2-3.1-1.1-19.3-1.1-19.3c18.7,8.2,24.9,26.9,24.9,26.9
			c0.9-0.9,1.6-1.8,2.2-2.8c1.6,9.1,2.6,18.7,2.6,18.7c1,11.4,8.8,21.6,11,24.2c0.4,0.5,0.7,1.2,0.8,1.8
			C164.7,188.5,154.8,193.2,154.8,193.2z"/>
		<path class="st4" d="M79.7,188.6c0,0-5.4,6.1-13.3-1.6"/>
		<path class="st4" d="M145.1,189.2c0,0,1.2,3.2,9.8,4"/>
		<path class="st4" d="M113.5,154.1c0,0,13.4-16,26.8-10.1"/>
		<path class="st4" d="M116.5,167.2c0,0,11.5-15.9,26.6-9.8"/>
		<ellipse cx="134.4" cy="169.2" rx="5.9" ry="12.4"/>
		<circle class="st5" cx="136.7" cy="168.2" r="3.3"/>
		<path d="M152,207.3c0,0-19.2-0.6-23.6-4.9c0,0-1,14,18.8,17.2L152,207.3z"/>
		<path class="st4" d="M110.1,238.5c0,0-17.1,0.8-27.7-12.2"/>
		<path class="st1" d="M57.6,227.2c0,0-7.2,38.8,68.7,57.2c0,0,17.4,25.5,21.9,74.3s7.2,154.1,7.2,154.1S54.6,525.6,48.9,515
			c-5.7-10.6-10.8-130.2-10.8-130.2l-37,5.4c0,0-17.2-116.5,41.3-140.3C42.5,249.9,47.4,229.8,57.6,227.2z"/>
		<path class="st3" d="M9.6,374.6c0,0,0.1,69.7,0.9,92.8c0.7,24.5,1.9,41.4,3.7,44.4c2,3.2,27.9-1,27.9-1s-3.7-48.7-3.3-57
			c0.4-8-0.7-79.2-0.7-79.2L9.6,374.6z"/>
		<path class="st4" d="M126.4,284.4c0,0-43.3,10.3-48,12c-7.5,2.6-35.8-46.4-35.8-46.4"/>
		<path class="st1" d="M1.3,335.1c-0.9-13.9,2.3-30.9,14.4-37.8c10.2-5.8,21.8-6.6,26.9,13.6c10.2,40.4,5.7,79.3,5.7,79.3h-47
			L1.3,335.1z"/>
		<path class="st4" d="M126.4,284.4c0,0-1.1-5,1.9-9.2"/>
		<path class="st3" d="M149,356.5c0,0,34.8,11.3,37.5,12c3.2,0.8,11-5,21-6s22-8.5,20.5-2s-14,12-5.5,14.5s31,8.5,27,12
			c0,0,8.5,1.9,7.7,5.6c-0.3,1.2-1.4,1.9-2.6,1.9h-5.3c0,0,12.2,7.8-10.2,4.5c0,0-1.2,11.7-26.3,0.8c0,0-37.8-12.8-59.3-9.8
			L149,356.5z"/>
		<path class="st4" d="M181.5,377.8c0,0,2.2-8.3,5-9.3"/>
		<path class="st4" d="M228.8,382.7c0,0,19,5.2,20.7,4.3"/>
		<path class="st4" d="M227.5,388.7c0,0,20.3,5.8,21.8,5.8"/>
		<path class="st4" d="M221,394.5c0,0,14.8,5,18.2,4.5"/>
		<path class="st6" d="M209,377c0,0,2.3,6.3-3.8,9.3"/>
		<path class="st6" d="M204.3,377c0,0,1.7,4.5-2.7,6.6"/>
	</g>
	<rect x="252.8" y="90.4" class="st7" width="63.7" height="63.7"/>
	<path class="st8" d="M500,364c0,0-34-25.2-30.7-57.6c0.5-4.7,2.2-9.1,4.7-13.1c5.6-8.7,17.6-27.6,23.6-38.7
		c8-14.7,8.8-36.2-0.1-41.6c-8.9-5.4-8.9-5.4-8.9-5.4s-9-2.3-8.7-3.3s41-48.7,71.3-16.7c39.5,41.7-6,88.7-21.3,104.3
		S485.7,335.7,500,364z"/>
	<path class="st8" d="M492.6,218c-0.2,1.2-0.3,2.5-0.6,3.7c-8,46.7-45.5,48.3-45.5,48.3l-10.5-6.7c0,0-2.7-14.3,2.3-35.7
		c5-21.3-11.3-41.7-11.3-41.7c1,9-7.3,28-5.7,24c1.7-4-11.8-40.1-11-35.7c1.2,6.6-12,16.7-12,16.7s-2-12.7-3.3-12
		c-1.3,0.7-6.3,8.7-6.3,8.7c-1.3-3-3.2-17.8-3.2-17.8l-12.3,18.3c0.8-61.9,48.8-53.6,73.3-49.2c17,3,35.9,18.9,43.5,43.7
		C493.1,193,494.3,204.9,492.6,218z"/>
	<path class="st3" d="M453,247.6c-5.4,10.3,0,62.7,0,62.7l-18,8.8c0,0-0.1,0-0.2,0c-2.8-0.5-30.2-5.7-27.7-13.7
		c2.7-8.4,1.5-26.8,1.5-26.8c-47.1,9.6-38.8-40.9-38.8-40.9c-2.7,0.5-5.6-1.8-7.4-3.6c-1.2-1.2-1.4-3-0.6-4.5
		c2.9-5.2,9.9-17.8,13.2-24.6c2.7-5.6,4.5-16.9,4.8-25.7c2.5-2.7,4.2-7.2,5.9-8.5c0,0,0.8,8.8,2.3,11.9c0,0,7.3-11.1,11.1-12.6
		c0,0,3.1,16,2.3,20.2c0,0,8.9-10.8,8.9-15.8c0,0,14.6,21.1,13.5,25.7c0,0,2.4-6,3.3-12.3c0.8-5.8,15.2,31.6,19.1,36
		c10.3-7.8,15.3-5.2,17.6,4.8C466,238.4,453,247.6,453,247.6z"/>
	<path class="st4" d="M377.4,235.4c0,0-4.4,2.7-7.6,2.2"/>
	<path class="st4" d="M386.3,193.2c0,0,16.4,1.7,23.2,12.1"/>
	<path class="st4" d="M446.6,248.3c0,0,4.7,0.6,6.5-0.8"/>
	<g>
		<path d="M386.2,207.5c0.9-1.1,2.3-1.8,3.8-2.2c1.5-0.3,3-0.2,4.5,0.2c0.7,0.2,1.4,0.5,2.1,0.7c0.7,0.3,1.3,0.7,2,1
			c0.6,0.4,1.3,0.7,1.9,1.1c0.6,0.4,1.2,0.9,1.7,1.4l0.1,0.1c-0.1-0.1-0.1-0.1-0.1-0.1c0,0,0,0,0,0c0,0,0.1,0.1,0.1,0.1
			c0.1,0.1,0.2,0.2,0.4,0.2c0.3,0.1,0.7,0.2,1.1,0.3c0.4,0.1,0.9,0.1,1.4,0.1c0.5,0,1,0,1.6,0.1l0,0c0.1,0,0.2,0.1,0.2,0.2
			c0,0,0,0.1,0,0.1c-0.4,0.4-0.8,0.7-1.3,1c-0.2,0.1-0.5,0.3-0.8,0.4c-0.3,0.1-0.5,0.2-0.8,0.3c-0.6,0.2-1.2,0.2-1.9,0.2
			c-0.3,0-0.7-0.1-1-0.3c-0.2-0.1-0.4-0.2-0.5-0.3c-0.1-0.1-0.2-0.1-0.3-0.2c-0.1-0.1-0.2-0.1-0.4-0.3l0.1,0.1
			c-0.5-0.4-1-0.8-1.5-1.3l-1.4-1.3c-0.5-0.4-1-0.8-1.6-1.1c-0.6-0.3-1.1-0.7-1.7-0.9c-1.2-0.5-2.4-0.9-3.7-0.9
			c-1.3,0-2.6,0.4-3.7,1.2l0,0c-0.1,0-0.2,0-0.2,0C386.2,207.6,386.2,207.5,386.2,207.5z"/>
	</g>
	<rect x="238.4" y="347.2" class="st7" width="37.7" height="37.7"/>
	<ellipse cx="391" cy="213.7" rx="4.4" ry="7.8"/>
	<circle class="st5" cx="389.7" cy="210.4" r="2.3"/>
	<path class="st3" d="M370.3,399c0,0-18.7,7.6-75.7-23.2l-12.3-5.8c0,0-11.7,0.3-15.3-3.7s-8.9-2.7-8.9-2.7s-2.5-5.3,8.2-5
		c0,0-2.7-11-22.2-12.3c0,0-1-9.3,18.1-5c19.1,4.3,45.4,29.7,90.7,25.3l21-7c0,0,5.7,13.7,5.7,13.5c0-0.2-0.3,9.5,0,15.5
		C380,394.7,370.3,399,370.3,399z"/>
	<path d="M369.8,249.3c0,0,8.5,5.4,16.5,2.3c0,0,0.9,8.4-11.6,14l-3.3-4.5l-1.7-8.4L369.8,249.3z"/>
	<path class="st4" d="M408.7,278.5c0,0,8.2-1.5,11.4-3.8"/>
	<path class="st9" d="M406.5,299.6c0,0,21.6,14.5,45.4-3.1c0,0,37.5,0,38.5,88.9c0,1.9-0.3,3.7-0.4,5.6l-1.4,41.4h-12.9l0.8,86.1
		c0,0-138.5,3.4-138.5-3.8s29.4-166.5,32.4-178.1C375.3,318.1,406.5,299.6,406.5,299.6z"/>
	<path class="st4" d="M475.7,432.3c0,0-34.8-0.4-34.8-4s-3.7-56-3.7-56"/>
	<path class="st4" d="M377.2,337.6c0,0-9.6,13.2-10.7,18.9"/>
	<path class="st9" d="M500,200c0,9.6-3.3,17.5-7.4,18c1.7-13.1,0.6-25-2.6-35.3c0.7-0.5,1.4-0.7,2.2-0.7c1.1,0,2.1,0.5,3,1.4
		C498,186.1,500,192.5,500,200z"/>
	<path class="st6" d="M279,361.2c0,0-6.6-3.3-12.7-2.5"/>
	<path class="st3" d="M450,431.2c0,0,6.7,19.8,5,28.8s-20,68.7-20,68.7h27.3c0,0,23.3-56.7,23-66.7c-0.3-10,0-29.5,0-29.5L450,431.2
		z"/>
</g>
</svg>
