<?xml version="1.0" encoding="utf-8"?>
<!-- Generator: Adobe Illustrator 23.0.6, SVG Export Plug-In . SVG Version: 6.00 Build 0)  -->
<svg version="1.1" id="Layer_1" xmlns="http://www.w3.org/2000/svg" xmlns:xlink="http://www.w3.org/1999/xlink" x="0px" y="0px"
	 viewBox="0 0 297.6 297.6" style="enable-background:new 0 0 297.6 297.6;" xml:space="preserve">
<style type="text/css">
	.st0{fill-rule:evenodd;clip-rule:evenodd;fill:#BBE4F9;}
	.st1{fill-rule:evenodd;clip-rule:evenodd;fill:#DBDADA;}
	.st2{fill-rule:evenodd;clip-rule:evenodd;fill:#203756;}
	.st3{fill-rule:evenodd;clip-rule:evenodd;fill:#978771;}
	.st4{fill-rule:evenodd;clip-rule:evenodd;fill:#FFFFFF;}
	.st5{fill-rule:evenodd;clip-rule:evenodd;fill:#8E8F90;}
	.st6{fill-rule:evenodd;clip-rule:evenodd;fill:#FFE7CC;}
	.st7{fill-rule:evenodd;clip-rule:evenodd;fill:#C9B49A;}
	.st8{fill-rule:evenodd;clip-rule:evenodd;fill:#010101;}
</style>
<g>
	<path class="st0" d="M120.7,114.3c-3.6,1.1-7.6,1.8-12.5,3.1c-3.4-8.2-1-24.3-1-24.3l27.4-8.7c4.9,2.7,12.2,0.4,12.2,0.4
		s0.2,0.6,4.2,1.4c0,0,1.6,12.5,7.5,13.1c2.1,0.2,4.1-5.1,4.1-5.1s4.1,6.8,6.1,10.8c3.2,6.2,7.9,15.9,11.4,23.2
		c-4.7,4.5-10,11.2-16.8,11.9c-1.9,16.5-6.3,29.4-5.2,40.6c-8.8-8.3-50.9,6.4-61.1-4.7c1.9-2.6,6.8-12.9,8.2-17.6
		c5-16.5,9-29.4,13.1-39.3C120.1,115.2,119.5,117,120.7,114.3z"/>
	<path class="st1" d="M71.3,210.9c-1.6,8.1-1.6,9.3-1.3,12.8c0.2,2.7,4.5,5.7,2.9,8.3c-1.7,2.8-11.1,5.1-15.3-3.4
		c-1.7-3.5-3.8-13.2-3.4-21.2c0.2-5.3,3.3-10.2,3.3-10.2s9.8-0.3,11.7,1.8L71.3,210.9z"/>
	<path class="st1" d="M175.9,254.3c7.3-4.2,14.7-8,20.3-10.1c3.4,0.4,5.8,3.7,3.6,8.6c-2.2,5-8.4,12.1-19.9,19.3
		c-0.4,0.2-2.7,1.5-3.1,1.7c-0.7,0.3-4.1,1.3-4.7,0.8c-2.4-2.1-5.4-6.5-5.7-9.4c0,0,3.7-0.7,7.4-5.2
		C174.9,258.9,176,254.3,175.9,254.3L175.9,254.3z"/>
	<path class="st2" d="M173.4,250.3L144.6,193c2.8-3.9,5.7-7.7,8.7-14.8c0,0-5.1-0.6-11.9-0.1c-9.2,0.7-21.4,2.5-27.9,2.5
		c-1.8,0-7-0.8-7-0.8c1.1,3.4,0.7,2.6,1.9,5.9c-2,7-1.2,14.6-3.3,19.9c-9.8-3-18.7-5.1-28-6.4c-2.1,4.9-4.1,15.5-3.7,20.3
		c11.4,4.6,32.1,10.1,43.2,9c2.2-0.2,6.3-3.1,8.6-7.2c9,15.8,20,29.9,32.9,42.9C161.5,260.8,169.3,254.3,173.4,250.3L173.4,250.3z"
		/>
	<path class="st3" d="M155.2,34c-12.6,1.6-26.2,18.9-29.4,26.4c-0.7,1.5-2.3,5.4-2.3,5.4c-3.8,5.9-2.9,9.1-1.4,8.7
		c-1.1,2.4-1.4,5.6,0.8,5.2c-1.2,4.3,5.2,5.2,12.4,3.8c-1.2,2.9,8.2,3.5,14.2,0c9-5.3,1.7-9.5,5.9-7.7c-0.9-2.5-1-5.1-0.2-7.3
		c-0.7-1.2-1.7-3.2-1.7-4.6c0-1.7,1.3-3.8,2.8-4.3l0.2,0.1l0.7-0.3l0.8-0.1l0.8,0.1c0.1,0,0.2,0.1,0.4,0.2c0.1,0,0.2,0.1,0.4,0.2
		h0.1c0.1,0,0.1,0.1,0.2,0.2c0.1,0,0.3,0.1,0.4,0.2c0.4,0.3,0.8,0.6,1.1,1.1c0.1,0.1,0.1,0.2,0.1,0.3c0.9,1.1,0.7,3.1,0.8,4.5
		c1.5,4,3.6,3.1,5-2.4c2.5,5.5,5.1,3.4,5.4-1.5c1.9,4.5,4.2,4.2,5.3-0.3c2,3.6,3.3,2.6,5.1-3.8c0.1,7.5,2.5,6.7,4.7,3.3
		c2,4.9,4,4.5,5.6,0.4c0.5,3.5,1.5,4.5,3.4,4.7c0.6,0.1,3.8-1.6,4.7-8.2C204.9,31,166.8,24.4,155.2,34L155.2,34z"/>
	<path class="st4" d="M164.1,97.75c-0.2-3.2-0.9-6-0.9-6s-0.4-3.7-6.2-7.7c-3.3-2.3-11.2,1-11.2,1c-1.7-1.8-0.37,15.12,4.83,20.32
		c0.5,0.5,2.08,0.48,3.58-1.12c-0.5,5.3-1.67,12.77-3.07,19.67l7.44,1.02c1.3-7.4,2.41-14.52,2.51-19.72c1,1.8,1.1,1.22,1.7,0.72
		C164.3,104.55,164.3,100.35,164.1,97.75L164.1,97.75z"/>
	<path class="st4" d="M116.1,91.1l-2.4,0.6c-0.6,8.5-0.2,16,0.2,23.5l2.3-0.5C115.9,107,115.7,99.5,116.1,91.1z"/>
	<path class="st4" d="M175.4,119.9l-10.5,7.8l-0.4,3.4l12.1-8.9L175.4,119.9z"/>
	<path class="st4" d="M112.4,92.2l-2.3,0.5c-0.8,8-0.4,16.1,0.3,23.2l2.2-0.3C112.1,109.5,111.6,100.6,112.4,92.2z"/>
	<path class="st4" d="M177.2,123.7l-13.1,9.7l-0.2,3.2l14.4-10.7L177.2,123.7z"/>
	<path class="st5" d="M195.6,244.2c-1.6,0.6-5.4,2.1-7.1,3.2c-0.3-0.2,0,3.6,3.2,8.7l-0.8,1.8c-4.9,5.9-12.1,11.5-20.5,14.2
		c0.4,1,2.9,3,3.1,3.3c9.1-3.4,17.2-10.2,21.8-15.7C201.6,254.7,202.3,243.6,195.6,244.2L195.6,244.2z"/>
	<path class="st5" d="M70.2,224.1c-1.9,1.8-6.3,2.5-10,0.6c-2.8-6.7-3-17.7,1.5-27.1c-0.8-0.2-4.2-1.6-5.4,1.5
		c-5.9,19,0.8,35.1,9,35.4c3.3,0.6,7.2-1.7,7.7-2.7C74,229.6,72.1,227,70.2,224.1z"/>
	<path class="st2" d="M157.87,105.61c-0.7-0.13-1.54,0.65-1.69,1.81c-0.14,1.17,0.14,2.07,0.84,2.2c0.7,0.13,1.54-0.65,1.69-1.81
		C158.99,106.78,158.57,105.74,157.87,105.61z"/>
	<path class="st2" d="M156.23,117.75c-0.73-0.13-1.61,0.66-1.75,1.85c-0.15,1.19,0.15,2.11,0.88,2.24s1.61-0.66,1.75-1.85
		C157.39,118.94,156.96,117.88,156.23,117.75z"/>
	<path class="st2" d="M157.25,111.57c-0.76-0.13-1.68,0.64-1.83,1.78c-0.15,1.15,0.15,2.04,0.92,2.17s1.68-0.64,1.83-1.78
		C158.32,112.59,158.01,111.7,157.25,111.57z"/>
	<path class="st6" d="M69.5,213l4,0.9c0,0,0.9-6.4,1.4-8.2c0.3-1.4,1.7-5.5,1.7-5.5l-7.7-1.5C64.6,199,63,212.6,69.5,213z"/>
	<path class="st6" d="M173.2,250.2l-11.5,10.4l5,4.7c3.8,0.2,10.2-8.3,9.2-10.7L173.2,250.2z"/>
	<path class="st6" d="M106.9,94.4c-8.3,2.7-7.5,2.7-15,6.1c-0.5,0.2-1.3,0.9-1.6,1.3c-5.5,8.6-9,17.1-11.6,26.2
		c-2.3,0.8-3.7,2.6-5.4,4.4c0.3-1.7-1.1-4-3.1-1.9c-2,2-2.2,7.8-0.2,9.6c-0.5,1.1,3.5,4.6,4.5,3.5c-0.1,1.5,3.1,2.3,4.6,1.4
		c0.8,1.2,3.3,0.9,4-0.6c3.9,2.3,7.4-6.5,4.9-12.3l12.6-19.9l5.9-1.3c0,0-0.5-6.4-0.5-8.5C106.1,100.4,106.9,94.4,106.9,94.4
		L106.9,94.4z"/>
	<path class="st6" d="M215.8,118.7c0.9-1-0.2-3.4-1.8-3.2c0.3-1.6-0.4-2.5-1.9-2.9c-2.6-0.7-6.1,0.8-6.6,3.4
		c-1.2-4.7-4.4-5.4-5.7-3.4c4.4,6.4,0.1,10.4,1.7,13c-5.7,3.3-11.3,6.7-18,10.5c-0.4,0.2-0.3-0.6-0.5-1c-1.4-2-4-5.3-4-5.3l-6.5,6.1
		l-6.1,3.3c3,6.7,6.6,9,12,11.8c0.4,0.2,0.9,0.3,1.3,0.2c11.8-2.6,22.5-13.8,27.4-19.5c5.2,0.7,12.6-6,9.7-9.2
		C218,120.9,217.2,118.8,215.8,118.7L215.8,118.7z"/>
	<path class="st6" d="M172.1,91.9c11-1.5,15.8-8.1,16.3-9.1c4.8,0.9,6-4.7,3.4-5.7c0,0,2.3-4,3.6-10.8c0.1-0.5-0.7-0.9-1.3-1.6
		c-0.7-0.7-1.2-1.7-1.2-1.7l-3,1.5l-2.6-2.9c0,0-1.7,2.6-2.9,2c-0.8-0.4-1.8-2.2-1.8-3.6c0-1.1-1.7,3.2-2.6,3.6
		c-0.8,0.3-2.1-3-2.4-2c-2.2,7.3-5.1,1-5.1,1s-0.1,3.5-2.1,3.9c-1.8,0.4-3.3-1.7-3.3-1.7s-1.5,3.2-2.6,3.3c-1.9,0.3-1.9-1.3-1.9-1.3
		s-0.3-11.7-7.6-6.8c-3.6,2.4-0.1,8.8-0.1,8.8s-0.4,2.7-0.3,3.6c0.1,0.7,0.8,2.9,0.8,2.9l-1.5-0.1c0,0,0.4,1.3-0.7,4.1
		c-0.7,1.8-2.7,3.6-2.7,3.6c0.1,9.2,4.5,15.5,7.9,16.6c3.5-1.8,5.1-8.4,5.1-8.4S167.9,92.5,172.1,91.9L172.1,91.9z"/>
	<g>
		<path class="st7" d="M187.3,36c2.8,4.4,14.3,9.5,10.6,27C203.4,48.6,193,37.6,187.3,36z"/>
		<path class="st7" d="M122.3,77.4c5.4-7.7,15.6-15.7,20.7-16C135.5,59.7,125.6,69,122.3,77.4z"/>
		<path class="st7" d="M196.1,63.2c1.2-0.7,2.2-6.7,0.5-9.4C196.9,54.9,197,61.9,196.1,63.2z"/>
		<path class="st7" d="M165.4,65c-1.2-4.7-0.5-10.2,0-11.6C162.9,56.9,163.2,64.4,165.4,65z"/>
		<path class="st7" d="M183.7,61.8c4.7-8.3,0.9-20.1-4.5-25.4C180.6,38.9,187.5,50,183.7,61.8z"/>
		<path class="st7" d="M140.7,77c-0.6,0.7-6,3.8-12.6,5.7C129.2,83.2,138.3,81.8,140.7,77z"/>
	</g>
	<g>
		<path class="st8" d="M53.9,127c0.8,1.9,1.8,3.8,2.8,5.6c0.7,1.2,1.4,2.4,2.2,3.6s1.6,2.3,2.4,3.4c1.2,1.7,2.5,3.3,3.9,4.9
			s2.8,3.1,4.3,4.5c2.2,2.2,4.6,4.2,7,6.2h0.1v-0.1c-2.3-2.1-4.5-4.3-6.5-6.6c-1.4-1.5-2.7-3.1-4-4.7s-2.5-3.3-3.7-4.9
			c-0.8-1.1-1.5-2.3-2.3-3.4s-1.5-2.3-2.2-3.5c-1-1.8-2-3.6-3-5.4c-1.4-2.8-2.7-5.6-3.7-8.5c-0.7-1.9-1.3-3.9-1.9-5.9l-0.1-0.1
			l-0.1,0.1c0.7,3.6,1.6,7.1,2.9,10.5C52.7,124.1,53.3,125.6,53.9,127z"/>
		<path class="st8" d="M50.7,140c1.1,1.2,2.3,2.4,3.5,3.6c0.8,0.8,1.7,1.5,2.5,2.2c0.9,0.7,1.8,1.4,2.7,2c1.4,1,2.8,1.9,4.2,2.8
			c1.4,0.9,2.9,1.7,4.4,2.5c2.2,1.2,4.5,2.2,6.8,3.1h0.1v-0.1c-2.2-1.1-4.4-2.4-6.5-3.7c-1.4-0.9-2.8-1.8-4.1-2.7s-2.7-1.9-4-2.9
			c-0.9-0.7-1.7-1.4-2.6-2.1c-0.8-0.7-1.7-1.4-2.5-2.1c-1.2-1.1-2.5-2.2-3.6-3.3c-1.8-1.7-3.5-3.5-5.1-5.4c-1.1-1.3-2.1-2.6-3-3.9
			c0,0-0.1-0.1-0.1,0v0.1c1.5,2.5,3.1,4.9,5,7.2C49,138.1,49.8,139,50.7,140L50.7,140z"/>
		<path class="st8" d="M221.4,106.3c0.9,1.8,1.8,3.7,2.6,5.6c0.5,1.3,1,2.5,1.5,3.8s1,2.6,1.4,3.8c0.7,1.9,1.3,3.9,1.8,5.9
			c0.6,2,1,4,1.5,6c0.6,3,1.1,6.1,1.5,9.2c-0.1-3.1-0.4-6.2-0.8-9.3c-0.3-2.1-0.6-4.1-1.1-6.1c-0.4-2.1-1-4.1-1.6-6.1
			c-0.4-1.3-0.9-2.7-1.3-3.9c-0.5-1.3-1-2.6-1.6-3.8c-0.9-1.9-1.8-3.8-2.9-5.6c-0.8-1.4-1.6-2.7-2.5-4c-2.1-3-4.3-5.9-6.8-8.5
			c1.3,1.6,2.5,3.3,3.6,5C218.4,100.8,220,103.5,221.4,106.3L221.4,106.3z"/>
		<path class="st8" d="M233.2,108.5c0.4,1.6,0.8,3.2,1.1,4.8c0.2,1.1,0.4,2.2,0.6,3.2c0.2,1.1,0.4,2.2,0.5,3.2
			c0.2,1.6,0.4,3.3,0.6,4.9s0.3,3.3,0.3,4.9c0.1,2.5,0.1,5,0,7.5c0.4-2.5,0.6-5,0.7-7.5c0.1-1.7,0.1-3.3,0.1-5s-0.1-3.3-0.3-5
			c-0.1-1.1-0.2-2.2-0.4-3.3s-0.4-2.2-0.7-3.3c-0.4-1.6-0.8-3.3-1.4-4.8c-0.4-1.2-0.8-2.4-1.3-3.5c-1.1-2.7-2.4-5.4-3.8-7.9
			c0.7,1.5,1.3,3.1,1.9,4.6C231.9,103.7,232.6,106.1,233.2,108.5L233.2,108.5z"/>
		<path class="st8" d="M135.5,270.8c1.7,0.6,3.5,1.1,5.3,1.6c1.2,0.3,2.4,0.6,3.6,0.8l3.6,0.6c1.8,0.2,3.6,0.5,5.5,0.6
			c1.8,0.1,3.6,0.2,5.5,0.2c2.6,0,5.4,0,8.2-0.2c-2.9-0.1-5.6-0.2-8.2-0.5c-1.9-0.2-3.7-0.4-5.4-0.6c-1.9-0.3-3.6-0.5-5.4-0.9
			c-1.2-0.2-2.4-0.5-3.6-0.7s-2.4-0.5-3.6-0.8c-1.8-0.4-3.6-0.9-5.3-1.3c-2.8-0.8-5.4-1.5-7.8-2.4c-1.8-0.6-3.5-1.2-5.2-1.9
			c2.3,1.2,4.8,2.4,7.5,3.5C132,269.5,133.7,270.1,135.5,270.8L135.5,270.8z"/>
		<path class="st8" d="M154,276.4c-3.7-0.2-7.6-0.5-11.5-0.9c-3.8-0.4-7.6-1-11.4-1.7c-2.5-0.5-5-1-7.5-1.5s-5-1.2-7.4-1.8
			c-3.8-1-7.4-2.1-11-3.4c-5.7-2-11-4.2-15.8-6.9c-3.5-1.9-6.8-4-9.7-6.2c4.8,4.1,10.6,7.7,17.1,10.8c2.6,1.2,5.2,2.4,8,3.4
			c3.6,1.4,7.2,2.6,11,3.7c2.5,0.7,5,1.3,7.5,1.9s5.1,1,7.6,1.5c3.9,0.6,7.7,1.1,11.5,1.5c3.9,0.4,7.8,0.5,11.6,0.5
			c6.2,0,12.1-0.4,17.3-1.2C166,276.5,160.2,276.7,154,276.4L154,276.4z"/>
		<path class="st8" d="M260.2,245l-108.6-39.5c-3.2-6.3-5.4-10.7-5.4-10.7c-0.1-0.2-0.2-0.5-0.3-0.7l-0.1-0.1l-0.4-0.8
			c2.4-3.3,5.9-8.2,8.4-13.8c1.2,0.3,2.1,0.8,2.9,1.5c0.4,0.4,1.1,0.5,1.7,0.3s0.9-0.9,0.8-1.5c-1.1-10.9,2.9-22.8,4.8-38.6
			c0.5-0.1,1-0.2,1.4-0.4c3.1,5.4,7.3,9.3,12.1,11.8c0.7,0.4,1.5,0.5,2.3,0.3c11.7-2.6,22.4-13.4,27.7-19.4c3.4,0,7.5-2.3,9.6-5
			c1.5-2,2-4.1,1.2-5.7c0.8-1.6,0.5-3.3-0.3-4.3c-0.1-0.2-0.3-0.3-0.4-0.4c0-0.4,0-0.8-0.2-1.3c-0.3-1-1-1.9-1.9-2.3
			c-0.1-0.6-0.3-1.2-0.6-1.6c-0.5-0.7-1.3-1.2-2.5-1.5c-1.9-0.5-4.3-0.1-6,1.1c-0.2,0.2-0.5,0.3-0.7,0.5c-2.1-3.6-5.7-3.3-7.2-1
			c-0.3,0.5-0.3,1.2,0,1.7c2.7,4,1.6,6.9,1.2,9.2c-0.1,0.8-0.2,1.6-0.1,2.3c-5.1,2.9-10.2,6-16.1,9.4c-0.2,0-0.4,0-0.5,0.1l-3.2-4.4
			c0.2-0.2,0.4-0.4,0.6-0.6c0.5-0.4,0.6-1.1,0.3-1.7c-3.5-7.4-8.3-16.8-11.5-23.1c-2.1-4.1-3.5-6.8-3.5-6.8s0-0.1-0.1-0.1l-2.2-3.6
			c0.3-0.9,0.5-1.7,0.6-2.3c1.2,0.2,2.4,0.4,3.5,0.6c1.4,0.2,2.9,0.1,4.7,0c9.5-0.6,14.7-6.5,16.4-9c2.1,0.1,3.5-0.7,4.2-1.7
			c1.1-1.5,1-3.7-0.3-5.1c1-1.8,2.7-5.3,3.4-9.8c0.1,0,0.2,0,0.3,0.1c0.4,0,1.2-0.1,2-0.8c1.1-0.9,2.6-3.1,3.4-8.4
			c2.1-13.6-6.7-22.2-17.6-26.2c-10.6-3.8-23.1-3-29.4,1.8c-5.2,0.8-10.4,3.9-15.1,7.9c-7,6-12.6,14.1-14.7,18.8
			c-0.6,1.4-1.4,3.8-1.7,4.5c-1.6,2.6-2.5,4.8-2.9,6.4c-0.3,1.3-0.3,2.4-0.1,3c0.1,0.4,0.3,0.7,0.5,1c-0.3,1-0.5,2.1-0.4,2.8
			c0.1,0.9,0.4,1.6,0.9,2.1c0.2,0.1,0.3,0.3,0.5,0.4c0,0.6,0.1,1.1,0.3,1.5c0.4,0.9,1.1,1.7,2.1,2.3c1.4,0.8,3.6,1.1,6.6,1.1
			l-23.5,7.2c-0.5,0.2-0.9,0.6-1,1.2v0.2c-4.9,1.9-9.7,3.8-14.4,5.9c-0.7,0.3-1.3,0.9-1.8,1.5c-5.5,8.5-9.2,17.3-11.8,26.4
			c-1.3,0.6-2.8,1.5-4.1,2.6c-0.1-0.3-0.2-0.5-0.4-0.7c-0.7-0.8-2-1.4-3.8,0.5c-1.4,1.5-2.2,4.3-2,6.9c0.1,1.5,0.6,2.9,1.3,3.8
			c0,0.2,0.1,0.4,0.2,0.6c0.3,0.7,1,1.6,1.9,2.3c0.8,0.6,1.7,1,2.5,1.1c0.3,0.4,0.7,0.8,1.3,1.1c1,0.6,2.4,0.8,3.7,0.5
			c1.3,0.9,3.1,0.7,4.3-0.5c0.5,0.1,1.1,0.1,1.6,0c1.2-0.2,2.3-1.1,3.2-2.5c1.6-2.6,2.1-7,0.8-10.9l12.1-19.2c0,0,2.3-0.5,5.1-1
			c0.3,1.8,0.7,3.6,1.3,5.1c0.3,0.7,1.1,1.1,1.8,0.9c3.6-1,7-1.4,10.1-2.2v0.1v0.1c-0.3,0.7-0.7,1.6-1.3,3.2
			c-4.1,9.9-8.2,23.2-13.2,39.7c-1.4,4.6-5.8,13.4-7.7,16c-0.4,0.6-0.4,1.4,0.1,1.9c2,2.2,5.1,3.5,8.9,4.2c0.6,1.7,1.1,3.3,1.7,5
			c-0.3,1.1-0.5,2.2-0.8,3.4L34.6,163c-0.4-0.1-0.8,0.1-1,0.4s0.1,0.8,0.5,1l72.6,26.4c-0.1,0.8-0.2,1.6-0.3,2.4
			c-0.5,4.4-0.7,8.9-1.7,12.3c-9.4-2.9-18.2-5.5-27.1-6.8c-0.3,0-0.5,0-0.7,0.1l-7.1-0.9c-0.1,0-0.2,0-0.3,0
			c-0.4-0.2-0.9-0.4-1.4-0.5c-2.1-0.6-6-0.9-7.3-1c-0.8-0.2-1.9-0.3-2.8,0.1c-0.7,0.3-1.3,0.7-1.9,1.5c-0.1,0.2-0.2,0.4-0.3,0.6
			c-3,9.5-3,18-1.4,24.4c2,7.8,6.6,12.4,11.7,12.5c3,0.1,4.8-0.5,5.8-1c2.6-1.4,2.4-3.3,2.4-3.3c0-0.1,0-0.2,0-0.3
			c0.2-1-0.1-2-0.5-2.9c-0.3-0.6-0.6-1.1-1-1.7c-0.3-0.5-0.7-1-0.7-1.7c-0.2-2.9-0.1-4.6,0.8-9.6c-0.1,1.6-0.1,3.1,0,4.3
			c0.1,0.6,0.4,1.1,0.9,1.3c11.6,4.7,32.3,9.5,43,8.9c0.9-0.1,1.9-0.4,3-1.2c1.3-0.9,2.7-2.3,4.2-4.2c0.3-0.4,0.6-0.8,1-1.2
			c8.9,15.2,19.5,29,32,41.6c0.3,0.3,0.7,0.4,1.1,0.4s0.8-0.2,1.1-0.4c0.8-0.8,1.7-1.6,2.7-2.5l3.6,3.9c0.6,2.4,2.5,4.9,4.4,6.9
			c0,0.2,0.1,0.4,0.1,0.5c0.2,0.5,0.5,0.9,0.9,1.3s0.9,0.9,1.1,1c0.5,0.6,1.4,0.8,2.2,0.5c8.2-3,14.9-8,19.7-13
			c3.1-3.2,5.3-6.4,6.6-9.1c1-2.1,1.4-4,1.3-5.4c-0.1-1-0.5-1.8-1-2.5c-0.7-0.9-1.7-1.6-2.2-1.9c-0.3-0.2-0.5-0.2-0.5-0.2
			c-0.6-0.3-2.2-0.1-2.3-0.1c-0.3,0-0.5,0-0.8,0.1c-0.2,0.1-0.4,0.1-0.5,0.2c-5.2,2-11.6,5.3-18.3,9.1l-2-3.3
			c0,0-13.3-26.1-21.6-42.3l107.1,39h0.3c0.3,0,0.6-0.2,0.7-0.5C260.8,245.5,260.6,245.1,260.2,245L260.2,245z M105.7,110.5l-5,1
			c-0.5-0.2-1.3-0.7-1.9-1.4s-1.1-1.5-1.2-2.2c0-0.2-0.1-0.3-0.3-0.3s-0.3,0.1-0.3,0.3c-0.1,0.8,0.3,1.9,0.9,2.8
			c0.4,0.7,0.9,1.2,1.4,1.6L87.5,131c-0.3-0.2-0.6-0.4-0.9-0.6c-1.2-0.6-2.7-1.1-3.4-1.1c-0.1,0-0.2,0.1-0.2,0.2s0.1,0.2,0.2,0.2
			c0.5,0.1,1.5,0.6,2.4,1.2c0.7,0.5,1.4,1.1,1.6,1.8c0,0.1,0.1,0.1,0.1,0.2c1.8,5.7-1,12.9-4.7,10.7c-0.7,1.5-2.6,1.8-3.4,0.6
			c-1.6,0.9-4.5,0-4.4-1.5c-0.9,1.1-4.5-1.6-4-2.7c-2-1.8-1.8-7.1,0.2-9.1c1.6-1.6,2-0.4,2,1c-0.4,0.9-0.7,1.8-0.9,2.8
			c-0.4,1.9-0.4,3.7,0.2,4.7c0.1,0.1,0.2,0.2,0.4,0.1c0.1-0.1,0.2-0.2,0.1-0.4c-0.4-0.9-0.2-2.6,0.3-4.2c0.4-1.4,1.1-2.7,1.9-3.6
			c1.4-1.1,3.1-2.2,4.6-2.7c2.6-9.1,6.3-18.1,11.8-26.7c0.3-0.4,0.7-0.8,1.1-1c4.4-2,8.9-3.8,13.5-5.6
			C105.7,98.4,105.1,104.7,105.7,110.5L105.7,110.5z M216.7,119.1c0.5,0.5,0.8,1.5,0.4,2.5c-0.4-0.2-0.8-0.3-1.3-0.3
			c-1.2-0.1-2.6,0.3-3.9,1c-1.4,0.7-2.5,1.6-3.1,2.5c-0.7-0.7-0.9-1.3-0.9-2c0.1-0.7,0.6-1.4,1.4-2c1.9-1.6,5.3-2.5,7.2-1.8
			C216.6,119.1,216.6,119.1,216.7,119.1L216.7,119.1z M215,115.8c0.1,0.2,0.3,0.2,0.5,0.3c0.3,0.4,0.6,0.9,0.6,1.4
			c-0.6-0.1-1.2,0-1.9,0.1c-1.9,0.3-4.1,1.3-5.5,2.6c-0.6,0.6-1,1.1-1.3,1.8c-0.1-0.1-0.2-0.1-0.3-0.2s-0.2-0.2-0.3-0.4
			c0-0.1,0-0.3,0-0.4c0-0.2-0.1-0.5-0.2-0.7v-0.1c0.1-0.7,0.4-1.5,1.1-2.4c0.8-0.9,2.2-1.5,3.6-1.8c1.1-0.2,2.1-0.3,2.9-0.2
			C214.6,115.7,214.9,115.8,215,115.8L215,115.8z M205.6,116.5c0.1-0.9,0.4-1.8,1-2.4c0.1-0.1,0.1-0.2,0.1-0.3
			c1.4-1.2,3.6-1.7,5.4-1.3c1.1,0.3,1.7,0.8,1.9,1.7c-0.6,0-1.2,0.1-1.9,0.2c-1.8,0.4-3.9,1.2-4.9,2.6c-0.5,0.6-0.8,1.2-1,1.8
			c-0.2-0.3-0.3-0.5-0.5-0.8C205.5,117.6,205.5,117.1,205.6,116.5L205.6,116.5z M182.2,135.9c-0.2,0.5-0.4,1.1-0.5,1.7
			c-0.2,1.1-0.2,2.2,0,3.1c0,0.2,0.2,0.3,0.3,0.2s0.3-0.2,0.2-0.3c-0.1-0.8,0.1-1.8,0.4-2.7c0.2-0.7,0.5-1.3,0.9-1.8
			c6.2-3.6,11.5-6.8,16.8-9.8c0.2,0.4,0.5,0.7,0.7,0.9c0.8,0.8,1.4,1.1,1.4,1.1c0.1,0.1,0.2,0,0.3-0.1s0-0.2-0.1-0.3
			c0,0-0.4-0.3-0.9-1.2c-0.1-0.3-0.3-0.6-0.4-1s0-0.1-0.1-0.1c-0.1-0.3-0.2-0.6-0.2-1c0,0,0,0,0-0.1c-0.2-2.6,2.4-6.3-1.3-11.8
			c1.2-1.7,3.7-1.4,5.2,1.8c-0.3,0.9-0.4,1.9-0.3,2.7v0.2c-0.2,0-0.4,0.1-0.5,0.2c-0.2,0.3-0.2,0.6,0.1,0.8c0.9,0.7,1.4,1.7,1.6,2.6
			c0.1,0.6,0.2,1.1,0.2,1.6c0,0.7-0.1,1.2-0.3,1.6c-0.1,0.1,0,0.2,0.1,0.3s0.2,0,0.3-0.1c0.4-0.4,0.7-1.2,0.8-2.1v-0.1
			c0.1,0.1,0.3,0.2,0.4,0.2c-0.1,0.3-0.1,0.6,0,0.9c0.1,0.7,0.5,1.3,1.3,2c-0.2,0.5-0.1,1,0.2,1.4c0.2,0.2,1.2,0.7,2.5,0.6
			c0.7-0.1,1.5-0.3,2.3-0.8c0.1-0.1,0.2-0.3,0.1-0.4s-0.3-0.2-0.4-0.1c-0.7,0.4-1.4,0.6-2,0.6c-1,0-1.7-0.3-1.8-0.4
			c-0.2-0.3-0.1-0.6,0.2-0.9c0.5-0.7,1.6-1.4,2.8-2c0.9-0.4,1.9-0.7,2.9-0.7c0.6,0,1.1,0.1,1.5,0.4h0.1c1.7,2.9-3.7,8.2-8.5,8.7
			c-0.2,0-0.7,0.1-1.1,0c-0.5,0-1-0.1-1.4-0.3c-0.7-0.4-1.2-1-1.4-1.3c-0.1-0.1-0.2-0.1-0.3-0.1c-0.1,0.1-0.1,0.2-0.1,0.3
			c0.1,0.5,0.5,1.2,1.2,1.9c0.2,0.2,0.4,0.3,0.6,0.5c-5.2,5.9-15.4,16-26.6,18.5c-0.4,0.1-0.9,0-1.3-0.2c-4.4-2.3-8.4-6-11.3-11
			c2.1-0.8,4.1-2.1,5.9-3.6c2.1-1.7,4.1-3.7,6-5.6C180,132.8,181.4,134.8,182.2,135.9L182.2,135.9z M164.1,97.9
			c0.1,2.6,0.2,6.6-1.3,7.9c-0.9,0.8-2.1-2.9-4-5.7c0.1,0,0.1,0,0.1-0.1c1.7-0.8,2.9-2.5,3.7-4.2v-0.1L164.1,97.9z M153.1,95.3
			c1.2,2.2,2.8,3.9,4.2,4.7c-2,2.3-5,5.6-5.9,4.8c-4.1-4.2-6.3-15.1-6.2-18.7c1.4-0.3,2.8-0.8,4-1.6c0.3-0.2,0.6-0.4,0.9-0.5
			l0.2,0.2c-0.1,0.2-0.1,0.3-0.1,0.5C149.9,87.3,151.2,91.8,153.1,95.3L153.1,95.3z M151.6,85.5c0.4,0.3,0.7,0.7,1.1,1
			c3.1,2.7,6.5,4.2,10,5.1c-0.3,1.4-1.4,5.8-4.3,7.2C155.2,97.7,151.7,89.9,151.6,85.5z M154.9,104.6c1-0.9,2.1-2.1,3.1-3.1
			c0.6,1,1.1,2,1.6,2.9c0.3,0.6,0.6,1.2,0.9,1.6c-0.3,5.2-1.3,12.2-2.4,18.4l-6-0.9C153.4,117.4,154.3,109.9,154.9,104.6
			L154.9,104.6z M190.6,77c2.5,1,2.1,5.7-2.7,4.8c-0.3,0.6-2.1,3.3-5.5,5.6c-0.7-0.1-1.8-0.7-2.7-1.8s-1.2-2.3-1.1-3.8
			c0-0.4-0.2-0.8-0.7-0.8c-0.4,0-0.8,0.2-0.8,0.7c-0.2,1.8,0.3,3.5,1.4,4.9c0.7,0.8,1.5,1.4,2.3,1.8c-2.3,1.2-5.1,2.2-8.6,2.5
			c-1.7,0.1-3.1,0.1-4.4,0c-4.9-0.6-9.9-1.8-14.2-5.6c-0.8-0.7-1.6-1.5-2.3-2.3c1.6-1.3,2.4-2.6,2.9-3.8c0.4-1,0.5-2,0.6-2.9
			c0.3,0,0.5-0.1,0.7-0.3c0.6-0.4,0.8-1.1,0.6-1.8c-0.6-1.5-0.6-3-0.4-4.4c0.1,0.1,0.1,0.1,0.2,0.1c0.6,0.4,1.3,0.8,2,1
			c0.2,0.1,0.3,0,0.4-0.2s0-0.3-0.2-0.4c-0.6-0.2-1.2-0.6-1.7-1.1s-1-1-1.3-1.6c-0.7-1.2-1-2.7-0.9-4c0.1-1.4,0.6-2.7,1.7-3.3
			c1-0.7,2.2-0.6,3.2-0.1s1.9,1.4,2.4,2.7c0.4,1,0.6,2,0.6,2.8c0,1.3-0.4,2.3-0.6,2.9c-0.1,0.2,0,0.3,0.2,0.4s0.4,0,0.4-0.2
			c0.1-0.3,0.3-0.7,0.5-1.1c0.1,0.1,0.2,0.2,0.2,0.2c0.7,0.6,1.5,0.7,2.2,0.4c0.5-0.2,1-0.6,1.5-1.3c0.3-0.4,0.6-1,0.9-1.7
			c0.2,0.3,0.4,0.5,0.6,0.7c0.9,0.8,1.8,0.9,2.6,0.7c0.5-0.2,1.1-0.5,1.6-1.2c0.3-0.3,0.5-0.8,0.8-1.4c0.1,0.1,0.1,0.1,0.1,0.2
			c0.7,0.7,1.5,1,2.2,1s1.5-0.3,2.2-1.2c0.2-0.3,0.4-0.6,0.7-1c0.7,0.6,1.4,0.7,2.1,0.6c0.6-0.1,1.2-0.5,1.8-1.3
			c0.1-0.1,0.2-0.3,0.3-0.5c0.1,0.2,0.2,0.3,0.2,0.5c0.4,0.7,1,1.1,1.6,1.3s1.3,0.1,2-0.3c0.3-0.2,0.7-0.5,1.1-0.9
			c0.3,0.5,0.6,1,0.9,1.3c0.7,0.7,1.4,1.1,2.1,1.1c0.7,0.1,1.5-0.2,2.2-0.8c0.1-0.1,0.2-0.2,0.3-0.4c0.6,1.1,1.3,1.7,1.9,2.1
			C193.7,72.6,190.6,77,190.6,77L190.6,77z M123.5,80.2c0-0.1,0.1-0.1,0.1-0.1c2.1-4.1,5.5-7.6,9.2-10.5
			c8.5-6.6,18.8-10.2,18.8-10.2c0.1,0,0.1-0.1,0.1-0.2s-0.1-0.1-0.2-0.1c0,0-10.4,3.3-19.3,9.7c-3.8,2.8-7.4,6.2-9.6,10.1
			c-0.7-0.5-0.7-1.9-0.2-3.4c0.1-0.1,0.1-0.1,0.1-0.2c3.8-7.4,8-13,12-17.1c9.1-9.3,17.4-11.5,17.4-11.5c0.1,0,0.1-0.1,0.1-0.2
			s-0.1-0.2-0.2-0.1c0,0-8.4,2-17.9,11.2c-4,3.9-8.2,9-12,15.9c-0.2-1.3,0.5-4,2.7-7.7c0.1-0.1,0.2-0.2,0.2-0.3
			c0.8-2,2.1-4.2,3.7-6.5c1.4-1.9,3.1-3.8,5.1-5.7c0.1-0.1,0.1-0.2,0-0.2c-0.1-0.1-0.2-0.1-0.2,0c-2.3,1.9-4.3,3.9-6,5.9
			c4.3-8.1,16.4-22.6,28.1-24.1c11.6-9.6,48.7-2.8,44.9,22.7c-1,6.7-3.2,7.9-3.8,7.9c-0.9-0.1-1.9-0.6-3-2.8
			c0.3-1.2,0.4-2.4,0.4-3.6c0-1.4-0.2-2.8-0.6-3.9c0-0.1-0.1-0.2-0.2-0.1s-0.2-0.1-0.2,0c0.2,1.1,0.2,2.4,0,3.8
			c-0.2,1.2-0.5,2.4-1,3.6v0.1c-1.4,2.3-2.9,1.7-4.6-2.4c-2.1,3.2-3.7,3.6-4.3-0.1c0.5-2.8,0.9-6.7,0.3-10.1c-0.4-2.6-1.4-5-3.1-6.5
			c-0.1-0.1-0.2-0.1-0.2,0s-0.1,0.2,0,0.2c1.5,1.5,2.3,3.8,2.5,6.3c0.4,3.6-0.3,7.5-1,10.2c-1.3,3.2-2.5,3.5-4,0.1
			c-1.6,5.3-3.4,5-5.3,0.5c-1.1,5.5-2.8,6.6-5,2.4c-0.7-1.9-0.9-3.8-0.9-5.5c0.1-3.9,1.6-6.8,1.6-6.8c0.1-0.1,0-0.2-0.1-0.2
			s-0.2,0-0.2,0.1c0,0-1.8,2.9-2.2,6.9c-0.2,2-0.1,4.2,0.7,6.6c-1.1,3.3-2.1,4.2-3.3,2c0.1-1,0-2.1-0.4-3.3
			c-0.6-1.6-1.6-2.9-2.9-3.5c-1.5-0.9-3.3-0.9-4.7,0c-1.1,0.8-1.9,2-2.1,3.5c-0.3,1.8,0.2,3.9,1.3,5.6c0,0.1,0.1,0.1,0.1,0.2
			c-0.5,2-0.5,4,0.3,6.2c-4.4-3.8,2.8,3.1-6.2,8.3c-4,2.3-10.1,2.2-12,1.3c-0.5-0.2-0.8-0.8-0.1-1.2c0.3-0.2,0.5-0.3,0.4-0.3
			c0.2-0.1,0.4-0.2,0.6-0.4c0.2-0.1,0.4-0.3,0.6-0.4c1.2-0.9,2.1-1.8,2.8-2.7v-0.1h-0.1c-0.7,0.8-1.7,1.7-2.9,2.4
			c-1,0.7-2.2,1.2-3.4,1.6c0,0,0,0-0.1,0C127.2,84.2,123.5,83.1,123.5,80.2L123.5,80.2z M98.1,175.6c1.9-2.6,6.5-11.7,7.9-16.4
			c5-16.5,9-29.7,13.1-39.6c1.6-4,1.6-3.7,2.8-6.4h-0.1c0.5-1,1-2.2,1.6-3.3c0.8-1.7,1.7-3.3,2.2-4.1c0.1-0.1,0.1-0.3,0-0.3
			s-0.3-0.1-0.3,0.1c-0.6,0.7-1.6,2.3-2.6,4c-0.9,1.5-1.8,3.1-2.5,4.4c-3.5,1.1-7.3,1.5-11.4,2.6c-3.4-8.2-0.8-22.8-0.8-22.8l26.3-8
			c0.4-0.1,0.8-0.1,1.1-0.2c0.1,0,0.1,0.1,0.1,0.1c0.6,0.4,1.7,0.7,3.2,0.8c1.4,0.1,3.2,0.1,5-0.2c0,2.4,0.8,7.1,2.2,11.4
			c1.1,3.2,2.6,6.2,4.4,8.1c0.6,0.6,1.4,0.8,2.6,0.3c0.1,0,0.2-0.1,0.3-0.2c-0.6,5.1-1.5,11.8-2.6,17.3c-0.1,0.4,0,0.8,0.2,1.2
			c0.2,0.3,0.6,0.6,1,0.6l6,0.9c0.8,0.1,1.6-0.4,1.7-1.2c1-5.8,1.9-12.2,2.3-17.3c0.3,0.1,0.5,0.2,0.8,0.2c0.4,0,0.8-0.2,1.2-0.5
			c0.6-0.6,1.1-1.5,1.4-2.6s0.4-2.3,0.4-3.5c0.6,1.2,1.4,2.7,2.3,4.5c3.2,6.2,7.9,15.7,11.4,23c-4.3,4.2-9.2,9.8-15.3,11.2
			c0.4-2.3,0.7-5.6,1-9c0.2-3.4,0.4-7,0.5-10.2c0-0.1-0.1-0.3-0.2-0.3s-0.3,0.1-0.3,0.2c-0.2,3.2-0.5,6.7-0.9,10.1
			c-0.5,4-1.1,7.7-1.6,10v0.4c-1.9,16-5.9,28.1-4.9,39.1C148.9,171.5,108.3,186.7,98.1,175.6L98.1,175.6z M62.2,199.1
			c0.1-0.2,0.1-0.3,0.2-0.5c0.9,0,2.6,0.1,4.2,0.4c-0.1,0.1-0.2,0.2-0.4,0.4c-1,1.1-1.6,2.7-1.9,4.6c-0.6,4.6,1.5,9.9,6.5,10.4
			c-0.1,0.4-0.1,0.8-0.2,1.2c-0.8-0.4-1.9-0.4-3.1-0.5c-0.6,0-1,0.4-1,0.9s0.4,1,0.9,1c0.7,0,1.9,0.1,2.4,0.3
			c0.1,0.1,0.2,0.1,0.4,0.1h0.1c0,0.1,0,0.3-0.1,0.4c-0.1,0-0.1-0.1-0.2-0.1l-0.3-0.1c-0.7-0.1-1.8-0.3-2.7-0.2
			c-0.6,0.1-0.9,0.6-0.8,1.1c0.1,0.6,0.6,0.9,1.1,0.8c0.6-0.1,1.5,0.1,2.1,0.2l0.4,0.1h0.1H70c-0.1,1.3-0.2,2.4-0.1,3.5
			c-1.3,1.1-5.1,1.5-8.6,0.9c-0.7-1.5-1.2-3.1-1.6-5C58.4,213.3,58.9,206.1,62.2,199.1L62.2,199.1z M66,233.3
			c-3.7-0.1-6.9-3.2-8.9-8.2c0-0.1-0.3-0.9-0.6-1.7c-0.3-1-0.5-2-0.5-2.1c-1.3-6-1-13.7,1.6-22.2c0.8-1.1,2-1,2.8-0.8
			c-4.2,8.8-4.1,18.2-1.7,24.8c0,0.1,0.4,1.1,0.8,1.9c0.3,0.6,0.5,1.1,0.6,1.2c2.9,5.2,7.4,7.6,12,4.8C72.1,231,72.1,233.5,66,233.3
			z M72.4,229c-0.6,0.2-5.8,3-8.6-1c-0.4-0.6-0.9-1-1.3-1.6c0.7,0.1,1.4,0.1,2.1,0.1c2.2,0,4.2-0.4,5.6-1
			C70.6,226.8,71.8,227.8,72.4,229z M72.9,212.6l-1.8-0.3c-6.5-0.4-5.9-12.2-1.6-12.5l6.1,0.8C74.4,203.9,73.4,208.5,72.9,212.6z
			 M116.6,227.8c-10.6,0.6-31-4.2-42.4-8.8c-0.4-4.8,1.1-13.9,3.2-18.8c8.9,1.3,17.7,4,27,6.8c0.4,0.7,0.8,1.3,1.5,1.8
			c0.6,0.5,1.4,0.8,2.3,0.9c0.2,0,0.4-0.1,0.4-0.3s-0.1-0.4-0.3-0.4c-0.7-0.2-1.2-0.6-1.6-1.1c-0.3-0.4-0.6-0.9-0.7-1.4
			c1.5-4.8,1.4-11.9,2.6-18c4.4,11.7,9.5,22.6,15.5,33C121.2,225.1,118.6,227.7,116.6,227.8z M197.3,245.7c0,0,2.3,0.9,2.5,2.9
			c0.2,2.2-1.5,5.8-4.6,9.8c0,0-0.4,0.5-0.8,1c-0.6,0.8-1.4,1.6-1.5,1.7c-4.6,5-11.3,10-19.4,13c-0.2-0.3-1.2-0.8-1.6-1.8
			c7.7-2.5,15-8,19.9-13.4c0.1-0.1,1.8-2.1,1.8-2.1c0.1-0.1,0.2-0.3,0.3-0.4C197,252.1,198.6,248,197.3,245.7L197.3,245.7z
			 M195.3,245.8c0,0.3,0.1,0.6,0.2,0.8c0.5,1,0.1,2.3-0.6,3.9c-0.6,1.4-1.5,2.8-2.6,4.3c-1.7-3.3-2.3-5.8-2.4-6.8
			C191.9,247.2,193.7,246.4,195.3,245.8L195.3,245.8z M176.8,256c0.1-0.4,0.1-0.7,0.1-1.1c0.1-0.1,0.3-0.1,0.4-0.2
			c0.2,0.8,0.6,1.6,1.1,2.6c0.2,0.3,0.5,0.5,0.9,0.5c0.2,0,0.3,0,0.5-0.1c0.5-0.3,0.7-0.9,0.4-1.4c-0.6-1.2-1-2-1.1-2.7
			c0.2-0.1,0.4-0.2,0.6-0.4c0.2,0.9,0.6,1.8,1.3,2.8c0.2,0.3,0.5,0.4,0.8,0.4c0.2,0,0.4-0.1,0.6-0.2c0.4-0.3,0.5-1,0.2-1.4
			c-0.7-0.9-1-1.8-1-2.5v-0.1c2.2-1.2,4.4-2.3,6.5-3.3c0.3,2,1.4,4.9,2.9,7.6c-1.2,1.4-2.5,2.8-3.9,4.1c-4.4,4.1-10.1,7.8-16,9.7
			c-0.2,0.1-0.3,0.1-0.5,0.2c-1.3-1.3-2.4-2.8-3.1-4.4c0.6-0.1,1.3-0.4,2-0.9c1.7-1.1,3.8-3.1,5.2-5.1
			C175.9,258.7,176.6,257.2,176.8,256L176.8,256z M174.7,254.6c1,2.4-5.2,9.6-7.9,9.7l-3.6-3.9c3.3-2.8,7.1-6,9.9-8.6L174.7,254.6z
			 M172.6,250.2c-4.1,4-11.2,9.5-14.6,13c-22.8-22.9-39.4-50.1-50.3-82.2c6,0.7,13.5,0,20.9-0.8s14.8-1.8,20.4-1.5
			c1.2,0.1,2.2,0.2,3.2,0.3c-2.3,5-5.4,9.5-7.7,12.7c-0.2-0.6-2.6-4.8-3.4-6.5c0-0.1-0.2-0.2-0.3-0.1s-0.2,0.2-0.1,0.3
			c-0.2,0.1,2.9,7.7,2.9,7.7L172.6,250.2z"/>
		<path class="st8" d="M157,110.2c0.5,0.1,1,0,1.4-0.4c0.4-0.3,0.8-1,1-1.8c0.1-0.8,0-1.5-0.2-2c-0.3-0.5-0.7-0.8-1.2-0.9
			s-1,0-1.4,0.4c-0.4,0.3-0.8,1-1,1.8c-0.1,0.8,0,1.5,0.2,2C156.1,109.8,156.6,110.1,157,110.2z M156.6,107.5
			c0.2-0.9,0.7-1.5,1.2-1.4s0.8,0.9,0.6,1.7c-0.2,0.9-0.7,1.5-1.2,1.4S156.4,108.3,156.6,107.5z"/>
		<path class="st8" d="M154.2,121.3c0.3,0.5,0.7,0.8,1.2,0.9s1,0,1.4-0.4c0.4-0.3,0.8-1,1-1.8c0.1-0.8,0-1.5-0.2-2
			c-0.3-0.5-0.7-0.8-1.2-0.9s-1,0-1.4,0.4s-0.8,1-1,1.8S153.9,120.8,154.2,121.3z M154.9,119.5c0.2-0.9,0.7-1.5,1.2-1.4
			s0.8,0.9,0.6,1.7c-0.2,0.9-0.7,1.5-1.2,1.4C155,121.2,154.7,120.4,154.9,119.5z"/>
		<path class="st8" d="M156.2,116.2c0.5,0.1,1,0,1.4-0.4c0.4-0.3,0.8-1,1-1.8c0.1-0.8,0-1.5-0.2-2c-0.3-0.5-0.7-0.8-1.2-0.9
			s-1,0-1.4,0.4c-0.4,0.3-0.8,1-1,1.8c-0.1,0.8,0,1.5,0.2,2C155.3,115.8,155.7,116.1,156.2,116.2z M155.8,113.4
			c0.2-0.9,0.7-1.5,1.2-1.4s0.8,0.9,0.6,1.7c-0.2,0.9-0.7,1.5-1.2,1.4S155.6,114.3,155.8,113.4z"/>
		<path class="st8" d="M181.4,68.5c-0.3,0.3-0.4,0.7-0.1,1.1c0.3,0.3,0.7,0.4,1.1,0.1c1.7-1.4,5.7-2.1,7.6-0.1
			c0.1,0.2,0.3,0.2,0.5,0.2s0.4-0.1,0.5-0.2c0.3-0.3,0.3-0.8,0-1.1C188.4,65.8,183.7,66.7,181.4,68.5z"/>
		<path class="st8" d="M187,70.9c-1.7-0.3-3.8,0.1-4.8,1c-0.3,0.3-0.3,0.8-0.1,1.1s0.8,0.3,1.1,0.1c0.5-0.4,1.9-0.8,3.1-0.7
			c-0.1,0.1-0.1,0.1-0.1,0.1c-0.5,0.6-0.3,1.5,0.3,1.9s1.5,0.3,2-0.3c0.1-0.2,0.2-0.3,0.2-0.5h0.2c0.1,0,0.2,0,0.3-0.1
			c0.4-0.2,0.5-0.6,0.3-1C189.1,71.7,188.2,71.1,187,70.9z"/>
		<path class="st8" d="M157.4,61.8c-0.3,0-0.6,0.2-0.9,0.3c-0.3,0.2-0.6,0.5-0.8,0.9s-0.4,0.8-0.4,1.4c0,0.6,0.1,1.2,0.4,1.9
			c0.2,0.4,0.5,0.9,1,1.4s1.1,1,1.9,1.5c0.1,0.1,0.3,0.1,0.4-0.1c0.1-0.1,0.1-0.3-0.1-0.4c-0.7-0.7-1.2-1.4-1.6-2
			c-0.2-0.3-0.3-0.6-0.4-0.9c-0.2-0.5-0.2-0.9-0.2-1.3c0-0.3,0.1-0.5,0.2-0.7c0.3-0.7,1-1,1.7-0.6c0.3,0.2,0.6,0.4,0.9,0.7
			c0.1,0.1,0.3,0.2,0.4,0.1s0.2-0.3,0.1-0.4C159.4,62.1,158.3,61.7,157.4,61.8L157.4,61.8z"/>
	</g>
</g>
</svg>
