<svg enable-background="new 0 0 297.64 297.64" viewBox="0 0 297.64 297.64" xmlns="http://www.w3.org/2000/svg"><g clip-rule="evenodd" fill-rule="evenodd"><path d="m174.04 54.31c-1.1-12.28-7.25-22.24-13.95-26.65-8.11-6.42-17.86-1.81-17.86-1.81-2.47-1.74-6.11-1.65-9.56 0-6.47 2.38-13.86 9.9-17.86 18.84-5.86 13.11-5.1 29.24 10.99 36.49 1.46.66 3.05 1.24 4.78 1.74 3.12.91 6.1 1.88 9.7 2.23 5.21.51 10.8.16 12.34-.06 16.86-2.34 22.55-18.17 21.42-30.78zm-45.74 22.81c-5.77-1.94-8.96-10.95-8.18-16.5.01-.07.04-.13.06-.2-.38-1.61-.47-3.26-.2-4.82.3-1.69 2.03-2.12 3.36-1.58 1.07.19 2.02.99 2.02 2.39v.03c1.81-.4 4.02 1.58 2.86 3.75-.11.21-.29.64-.41 1.08.48.96.74 2.05.75 3.22.02 1.19-.9 2.14-1.96 2.44-.11.31-.26.59-.45.83.86 2.12 2.11 4.02 3.48 4.48 3.08 1.04 1.76 5.92-1.33 4.88z" fill="#978771"/><path d="m86.69 105.87s-13.64 8.4-24.49 16.19c-8.96 1.28-15.51 7.17-16.33 8.09-.55.63.62 1.78.91 1.88.76.27 4.12-1.05 4.12-1.05s-2.09 2.05-4.53 3.77c-1.58 1.12 0 4.2 2.65 2.58 2.13-1.3 3.56-2.72 3.56-2.72s-4.07 4.46-5.44 6.91c-.6 1.07 2.11 2.63 3.21 1.81 2.7-2 5.37-4.67 5.37-4.67s-2.54 5.16-1.12 5.65c1.54.53 6.77-5.65 6.77-5.65-.68 3.36 1.92 4.04 3.42 3.56 1-1.35.52-4.03.98-5.37 1-2.91 3.23-4.19 2.09-6.63 3.74-2.03 27-12.84 27-12.84z" fill="#ffe7cc"/><path d="m224.37 136.73c-2.37-1.82-6.2-4.21-6.2-4.21s5.01 2.26 5.78 2.02c.29-.09 1.55-1.49 1.02-2.14-.77-.96-6.79-6.06-15.7-8.47-5.72-5.93-21.98-15.12-21.98-15.12l-8.11 11.79s20.57 8.96 23.05 10.44c-1.24 2.39 2.13 4.45 3 7.4.4 1.36-.59 3.91.35 5.3 3.07.7 4.86-.73 4.33-4.12 0 0 3.31 7.81 4.74 7.05.55-.29 2.45-.56 1.81-2.79-.54-1.88-2.64-6.23-2.64-6.23s3.52 5.52 6.13 7.63c1.07.86 3.81-.67 3.26-1.77-1.27-2.5-6.33-8.17-6.33-8.17s2.86 3.05 4.94 4.44c2.57 1.75 4.08-1.87 2.55-3.05z" fill="#ffe7cc"/><path d="m187.81 210.27-4.28 13.02 6.51 1.16c1.05-2.22 1.75-11.14.42-12.93z" fill="#ffe7cc"/><path d="m140.13 243.85 3.4 4.56c2.38-.38 9.47-5.6 10.19-7.67l-2.6-3.67z" fill="#ffe7cc"/><path d="m168.44 62.7c-.43-.51-1.11-.73-1.89-.73-.04.11-.08.22-.13.32-.16.28-.38.5-.66.66-.02.01-.05.02-.07.03-.15.21-.33.39-.56.53-.15.06-.29.12-.44.19-.24.08-.49.09-.73.03-.17 0-.32-.04-.46-.13-.23-.07-.43-.2-.59-.38-.1-.12-.19-.25-.29-.37-.08-.12-.13-.25-.16-.38-.25.04-.51.04-.76-.03-.31-.09-.58-.25-.81-.47-.23-.23-.39-.5-.47-.81-.09-.33-.09-.65 0-.98.01-.02.02-.05.03-.07.07-.17.14-.34.22-.51.03-.06.06-.12.08-.18.01-.02.02-.03.02-.05.03-.08.05-.17.09-.25.02-.06.05-.11.07-.16-.34.02-.67-.02-1.01-.07-.3-.05-.58-.17-.84-.31-.24-.12-.47-.3-.65-.5-.38-.42-.67-.94-.76-1.51-.08-.51-.11-.99-.06-1.51.03-.29.07-.58.12-.87-.11.05-.22.09-.34.14-.33.09-.65.09-.98 0-.15-.06-.29-.12-.44-.19-.21-.12-.39-.27-.52-.47-.16-.18-.27-.39-.33-.63-.08-.24-.09-.49-.03-.73.01-.25.08-.47.22-.68.09-.14.2-.28.28-.43.02-.3.02-.6.04-.91-.07.09-.14.19-.22.28-.03.04-.06.07-.09.11-.16.18-.38.32-.57.46-.29.17-.6.25-.93.25-.16-.02-.33-.04-.49-.07-.31-.09-.58-.25-.81-.47-.1-.12-.19-.25-.29-.37-.13-.21-.21-.44-.22-.68-.05-.24-.04-.49.03-.73.06-.24.17-.45.33-.63.03-.05.08-.1.12-.14.04-.27.08-.57.1-.9-.09.09-.18.18-.27.27-.01.03-.02.06-.03.08-.07.23-.2.43-.38.59l-.21.21c-.23.23-.5.39-.81.47-.16.02-.33.04-.49.07-.33 0-.64-.08-.93-.25-.12-.1-.25-.19-.37-.29-.18-.17-.31-.36-.38-.59-.12-.22-.17-.46-.16-.71 0-.11.01-.22.03-.32-.05.06-.1.13-.16.18-.07.14-.16.28-.28.39-.02.02-.05.05-.07.07-.05.04-.32.25-.37.29h-.01s-.44.19-.44.19c-.34.11-.44.07-.74.03-.08 0-.16-.01-.25-.03s-.44-.19-.44-.19-.37-.29-.37-.29-.29-.37-.29-.37l-.09-.22c.07.17-.07-.14-.09-.22 0 0-.07-.49-.07-.49s.07-.49.07-.49 0 0 0-.01.18-.43.19-.44v-.01c0-.01.01-.02.01-.02.02-.03.04-.06.06-.09-.07.02-.14.04-.22.06-.76.15-1.47-.09-1.91-.63-.12.23-.24.46-.38.67-.04.13-.09.25-.16.37-.04.06-.08.12-.12.18-.13.19-.25.39-.37.59-.16.28-.38.5-.66.66l-.44.19c-.33.09-.65.09-.98 0-.15-.06-.29-.12-.44-.19-.21-.12-.39-.27-.52-.47-.16-.18-.27-.39-.33-.63-.06-.21-.07-.41-.04-.62-.04-.14-.07-.28-.09-.43-.01-.04-.01-.1-.01-.15-.01.01-.02.02-.03.03-.12.36-.25.72-.32 1.09-.09.31-.25.58-.47.81-.12.1-.25.19-.37.29-.21.13-.44.21-.68.22-.16.04-.33.04-.49 0-.25-.01-.47-.08-.69-.22-.12-.1-.25-.19-.37-.29-.18-.17-.31-.36-.38-.59-.12-.22-.17-.46-.16-.71v-.34c0-.14.02-.27.05-.4-.02-.08-.05-.15-.05-.23-.02-.21-.06-.41-.1-.62-.04.06-.08.13-.13.19-.2.29-.39.57-.6.86.04.2.05.39.01.59-.01.25-.08.47-.22.68-.12.21-.27.39-.47.52 0 0-.01 0-.01.01-.15.19-.31.36-.53.49-.08.03-.15.06-.23.1-.01.01-.02.02-.03.03-.93 1.06-2.73.39-3.11-.78-.36 1.2-.84 2.37-1.65 3.07-.09.24-.22.45-.4.64-.12.1-.25.19-.37.29-.29.17-.6.25-.93.25-.16-.02-.33-.04-.49-.07-.24-.06-.45-.17-.63-.33-.2-.13-.36-.3-.47-.52-.13-.2-.19-.41-.21-.64-.42.84-.88 1.67-1.33 2.48-.3.54-.71 1.07-1.25 1.38-.67.38-1.51.41-2.18.01-.4-.24-.67-.58-.82-.97-.21.02-.41.07-.6.16-1.48.72-1.75 3.16-.6 5.44.67 1.33 1.68 2.3 2.69 2.75.39 9.02 4.67 16.97 11.36 21.03l.73 5.61c.99 3.78 11.02 6.02 14.8.91l.97-4.67c6.34-2.06 11.95-7.12 15.31-14 1.13.03 2.5-.46 3.69-1.44 1.96-1.63 2.69-3.97 1.62-5.22z" fill="#ffe7cc"/><path d="m100.85 123.59c-9.28-8.58-11.96-14.71-14.37-18.07-.44-.62.84-1.86 1.53-2.16 0 0 18.29-9.98 24.77-12.42 13.33-5.02 18.28-5.37 18.28-5.37s0 6.07 8.65 6.07c8.16 0 8.37-6.28 8.37-6.28s12.67 4.29 16.47 6.35c6.09 3.3 23.09 15.07 23.09 15.07s-8.32 13.19-12.63 18.7l-12.98-9.63 7.67 52.53c-10.64 9.71-47.5-1.66-57.91 6.7l2.3-59.16z" fill="#bbe4f9"/><path d="m190.08 223.46c3.01 7.34 10.35 17.4 10.62 17.55 5.86-.71 6.53-11.08 1.31-23.38-1.25-2.94-4.02-9.33-6.54-8.58.43.08-3.36.31-5.13 2.77 1.54 2.54 1.32 11.38-.26 11.64z" fill="#dbdada"/><path d="m197.23 235.54s2.09-6.3 8.4-7.19c1.74 6.46-.79 12.73-5.08 12.64-.41.37-2.14-3.34-3.32-5.45z" fill="#8e8f90"/><path d="m201.51 241.31c5.55-.68 4.57-19.78-4.85-32.12 1.08-.45 2.66-.11 3.06-.19 8.97 14.33 8.85 29.41 4.63 31.98-1.79 1.09-2.84.33-2.84.33z" fill="#8e8f90"/><path d="m143.92 247.45c-9.41 14.15-12.81 18.04-12.68 18.33 4.92 10.99 18.63-.92 26.3-11.86.7-1 3.63-6.52 3.63-6.52s-2.03-2.24-3.25-3.32c.16.41-1.82-3.36-4.85-3.56-1.44 2.44-8.09 8.14-9.15 6.93z" fill="#dbdada"/><path d="m157.88 244.22c-2.86 7.56-7.9 13.95-13 17.98-4.02-3.26-9.2-2.02-9.2-2.02-5.54 5.46-3.7 6.01-4.07 5.86 0 0 .24 2.19 2.07 3.23 6.67 3.81 19.7-6.31 27.23-21.72-.29-.3-2.08-2.65-3.03-3.33z" fill="#8e8f90"/><path d="m113.62 173.69c-.56 18 1.52 26.61 1.6 39 .02 2.83 11.96 21.53 20.86 32.51 5.17-1.5 14.07-6.86 16.88-10.26-3.54-8.45-11.21-18.31-16.95-24.7 2.89-6.95 3.07-17.51 2.93-28.6.12 9.23 2.69 18.88 5.23 26.65 1.27 3.88 21.07 11.69 36.84 20.51 2.78-5.71 5.35-14.48 7.05-18.84-7.89-5.07-15.59-10.25-24.28-12.42 1.75-12.07 1.61-14.51 3.07-27.21 0 0-3.28 1.81-11.37 2.3-6.17.37-19.51-.82-29.65-.91-7.33-.05-12.21 1.97-12.21 1.97z" fill="#203756"/><path d="m139.77 104.86c.99.11 1.89-.59 2.01-1.56s-.59-1.85-1.58-1.96-1.89.59-2.01 1.56c-.11.98.59 1.85 1.58 1.96z" fill="#203756"/><path d="m139.89 111.41c.93.1 1.77-.55 1.89-1.46.11-.91-.55-1.74-1.48-1.84s-1.77.55-1.89 1.46c-.11.91.55 1.73 1.48 1.84z" fill="#203756"/><path d="m140.41 114.78c-.95-.11-1.82.57-1.93 1.5s.56 1.78 1.52 1.89c.95.11 1.82-.57 1.93-1.5.12-.94-.56-1.78-1.52-1.89z" fill="#203756"/><g fill="#c9b49a"><path d="m135.13 37.09c1.42-9.51 15.61-9.2 19.9-9.98-6.14-3.56-18.98.07-19.9 9.98z"/><path d="m123.32 40.03c2.71-7.92 10.8-13.89 15.99-14.48-8.25-.85-14.82 8.55-15.99 14.48z"/><path d="m162.25 36.34c.75-1.26-.99-7.31-3.53-8.91.72.83 3.84 7.2 3.53 8.91z"/><path d="m162.74 31.33c.72.84 4.64 8.53 4.61 16.52.75-1.26-.16-12.68-4.61-16.52z"/><path d="m158.69 81.95c2.97-.43 7.02-5.25 6.85-6.7-.41 1.68-5.85 6.23-6.85 6.7z"/><path d="m123.27 78.5c-.63-.62-3.64-5.51-3.57-6.88-.44 1.04 1.48 5.75 3.57 6.88z"/></g><path d="m147.85 72.69c-3.6.37-12.38-1.49-15.38-3.1 1.25 9.06 10.24 11.42 15.38 3.1z" fill="#fff"/><path d="m147.94 85.95c.38 4.84-6.61 6.59-10.92 5.46-2.31.11-5.07-1.31-5.4-3.66-.32-.62-.11-1.37-.14-2.15-2.76.46-5.49 1.13-8.28 1.92 0 0 5.5 8.47 7.95 12.74.3.53.85.86 1.44.88s1.81-.19 2.15-.7c.79-1.19 1.69-2.51 2.52-3.7l-.82 24.8 7.4-.15-1.13-24.33c.77 1.07 1.6 2.22 2.36 3.23.36.49 1.71.34 2.31.28.59-.06 1.56-.29 1.83-.84 1.98-3.97 6.09-11.67 6.09-11.67-2.61-.92-5.04-1.61-7.36-2.11zm-9.8 17.22c.01-.17.04-.34.07-.5 0-.01 0-.02.01-.03.06-.16.13-.32.2-.47.01-.01.01-.02.02-.03s.01-.02.02-.03c.1-.13.19-.26.3-.39 0 0 .01-.01.01-.01.23-.23.5-.39.81-.47.16-.02.33-.04.49-.07.33 0 .64.08.93.25.12.1.25.19.37.29.18.17.31.36.38.59.12.22.17.46.16.71 0 .02-.01.05-.01.07s.01.05.01.07c.01.25-.04.49-.16.71-.07.23-.2.43-.38.59-.01.01-.02.01-.02.02-.12.11-.26.21-.39.3 0 0-.01.01-.01.01-.15.07-.29.15-.45.19-.31.08-.68.1-.99 0-.01 0-.44-.18-.44-.19-.14-.07-.26-.18-.38-.29-.23-.23-.38-.5-.48-.82-.05-.16-.06-.33-.07-.5 0 .01 0 .01 0 0zm.08 6.09c.03-.16.1-.32.19-.45 0 0 .29-.37.29-.37s.37-.29.37-.29c.29-.19.4-.18.69-.22.08-.01.16-.03.25-.03.3-.01.41.03.6.11-.07-.03.27.11.33.14.13.07.27.17.38.29.01.01.28.36.29.37v.01s.01.01.01.02c.01.03.02.06.04.09 0 .01.01.02.01.03l.09.18c.03.06.05.12.07.19 0 .01.01.02.01.03 0 0 0-.01-.01-.01.06.16.09.33.09.51v.01s-.07.49-.07.49-.19.44-.19.44c-.05.06-.1.12-.14.19-.07.1-.12.15-.14.18.02-.01-.06.08 0 0 0 0 0 0-.01 0l-.37.29s-.44.19-.44.19-.49.07-.49.07c-.08-.01-.16-.02-.24-.03-.09-.01-.17-.02-.25-.03.06.02-1.44-.19 0 0l-.44-.19s-.37-.29-.37-.29-.02-.03-.06-.07c0 0-.01 0-.01-.01-.18-.17-.31-.36-.38-.59-.12-.22-.17-.46-.16-.71-.01-.19.06-.53.06-.54zm3.82 8.07c-.06.27-.27.63-.47.82-.01 0-.37.29-.37.29-.13.09-.29.14-.44.19-.16.04-.33.07-.49.07s-.49-.07-.49-.07h-.01-.01c-.07-.03-.17-.07-.22-.09s-.15-.06-.22-.09c-.01 0-.01-.01-.02-.01-.28-.16-.5-.38-.66-.66-.06-.15-.12-.29-.19-.44-.01-.04-.01-.09-.02-.13-.01-.02-.02-.04-.03-.07-.12-.22-.17-.46-.16-.71 0-.23.05-.44.13-.64.04-.17.1-.34.19-.5.1-.12.19-.25.29-.37.17-.18.36-.31.59-.38.22-.12.46-.17.71-.16h.07c.33 0 .64.08.93.25.12.1.25.19.37.29.18.17.31.36.38.59.12.22.17.46.16.71v.02c0 .03-.01.07-.01.1 0 .01.01.02.01.03.05.16.07.33.07.49-.02-.02-.09.46-.09.47z" fill="#fff"/><path d="m180.36 102.56-12.07 16.96 1.9 1.49 12.26-17.11z" fill="#fff"/><path d="m183.54 104.57-12.26 17.21 1.92 1.29 12.23-17.16z" fill="#fff"/><path d="m92.79 101.55 12.69 18.62 2.28-1.11-12.92-18.77z" fill="#fff"/><path d="m89.37 103.54 12.86 18.54 2-1.35-12.88-18.6z" fill="#fff"/><g fill="#010101"><path d="m268.41 279.04-233.74-1.14c-.41 0-.75.33-.75.75 0 .41.33.75.75.75l233.74 1.15c.41 0 .75-.33.75-.75s-.34-.75-.75-.76z"/><path d="m237.74 205.89c.26.1.53.14.8.14.95 0 1.84-.59 2.18-1.53l4.56-12.5.45 45.18c.01 1.28 1.05 2.3 2.32 2.3h.02c1.28-.01 2.31-1.06 2.3-2.35l-.45-45.29 4.18 12.38c.33.97 1.23 1.58 2.2 1.58.25 0 .5-.04.74-.12 1.22-.41 1.87-1.73 1.46-2.95l-8.45-25.04c-.41-1.22-1.73-1.87-2.95-1.46-.37.13-.68.34-.93.61-.3.25-.54.57-.68.96l-9.15 25.09c-.43 1.23.19 2.56 1.4 3z"/><path d="m33.71 108.12c.21 1.39.47 2.77.77 4.15.45 2.05.99 4.09 1.6 6.12.61 2.01 1.3 3.99 2.07 5.96 1.14 2.92 2.46 5.78 3.91 8.59-1.23-2.9-2.3-5.84-3.24-8.82-.62-2-1.18-4-1.68-6.02-.5-2.03-.93-4.06-1.3-6.1-.25-1.36-.47-2.73-.67-4.09-.2-1.37-.39-2.74-.54-4.11-.23-2.07-.4-4.14-.49-6.21-.14-3.14-.13-6.27.1-9.36.15-2.1.38-4.17.71-6.23-.87 3.55-1.47 7.18-1.77 10.87-.13 1.57-.2 3.15-.21 4.74-.02 2.1.06 4.21.24 6.32.13 1.39.29 2.79.5 4.19z"/><path d="m39.95 134.85c-1.34-2.16-2.57-4.37-3.72-6.62-.77-1.5-1.48-3.02-2.17-4.56-.68-1.54-1.32-3.09-1.92-4.65-.4-1.05-.79-2.09-1.16-3.14-.38-1.05-.75-2.11-1.1-3.16-.53-1.6-1.02-3.2-1.46-4.81-.67-2.46-1.24-4.92-1.65-7.38-.28-1.68-.51-3.35-.66-5.02-.04 2.94.13 5.91.53 8.89.17 1.26.38 2.52.64 3.78.34 1.66.74 3.32 1.23 4.97.32 1.09.67 2.17 1.06 3.25.39 1.07.82 2.12 1.27 3.17.68 1.56 1.42 3.09 2.22 4.6.79 1.5 1.64 2.97 2.54 4.42 1.36 2.15 2.81 4.24 4.35 6.26z"/><path d="m205.49 199.36c.09-1.73.12-3.59.1-5.52-.02-1.79-.09-3.64-.21-5.51-.08-1.22-.18-2.44-.3-3.66-.13-1.22-.29-2.44-.46-3.65-.27-1.86-.59-3.68-.93-5.44-.27-1.4-.57-2.75-.88-4.04-.93-3.86-1.95-7.1-2.91-9.18.78 2.19 1.48 5.6 2.1 9.62.31 2.04.6 4.23.88 6.51.22 1.78.42 3.6.62 5.43.08.72.15 1.45.23 2.17.12 1.09.24 2.18.35 3.26.33 3.18.57 6.27.67 9.09.13 3.63.05 6.8-.39 9.1.59-2.07.96-4.91 1.13-8.18z"/><path d="m210.81 173.4c-.08 1.83-.19 3.75-.32 5.76-.08 1.25-.18 2.53-.28 3.83-.06.84-.14 1.69-.2 2.55-.11 1.4-.23 2.81-.34 4.24-.16 2.1-.31 4.23-.52 6.36-.15 1.51-.31 3.03-.5 4.54-.28 2.28-.61 4.55-1.03 6.79.65-2.19 1.23-4.41 1.73-6.67.33-1.5.63-3 .89-4.51.26-1.52.5-3.04.69-4.55.13-1.02.24-2.04.33-3.05.09-1.03.14-2.05.19-3.06.07-1.56.09-3.1.09-4.6-.01-1.99-.07-3.91-.17-5.74-.1-2.03-.26-3.94-.42-5.72-.03 1.21-.08 2.49-.14 3.83z"/><path d="m235.64 124c.59-1.05 1.14-2.12 1.63-3.21.33-.73.64-1.47.91-2.23s.51-1.52.73-2.3c.32-1.17.58-2.34.78-3.53.15-.89.27-1.79.34-2.68.19-2.1.19-4.19.03-6.27-.08 1.18-.22 2.35-.4 3.53-.27 1.73-.65 3.45-1.12 5.17-.3 1.12-.64 2.24-1.01 3.36-.24.74-.5 1.47-.76 2.21-.26.73-.52 1.46-.8 2.19-.42 1.09-.85 2.18-1.33 3.25-.47 1.07-.98 2.14-1.52 3.19-.81 1.58-1.68 3.12-2.64 4.62 1.16-1.37 2.25-2.78 3.26-4.26.68-.99 1.31-2 1.9-3.04z"/><path d="m238.59 125.95c-.73 1.21-1.48 2.41-2.3 3.57-.82 1.17-1.67 2.31-2.59 3.41 1.1-.94 2.15-1.91 3.14-2.96.67-.7 1.3-1.42 1.91-2.17s1.19-1.52 1.74-2.32c.36-.53.71-1.08 1.03-1.64s.62-1.14.89-1.72c.41-.88.78-1.78 1.1-2.69.25-.69.46-1.38.65-2.07.45-1.64.76-3.29.96-4.95-.54 1.8-1.26 3.55-2.07 5.3-.53 1.13-1.09 2.24-1.7 3.35-.22.41-.45.82-.68 1.23s-.46.82-.69 1.22c-.44.82-.9 1.64-1.39 2.44z"/><path d="m162.53 56.27c.38-.61.48-1.15.48-1.15s-.2.47-.48 1.15z"/><path d="m149.12 73.48c.3-.49.3-1.1-.01-1.58-.3-.48-.86-.75-1.42-.7-1.68.17-4.56-.19-7.39-.77-2.88-.59-5.7-1.39-7.13-2.16-.5-.27-1.1-.23-1.57.09-.46.32-.71.88-.63 1.44.74 5.36 3.93 8.62 7.55 9.36 3.53.71 7.65-.9 10.6-5.68zm-16.65-3.88c2.99 1.61 11.78 3.47 15.38 3.1-2.57 4.16-6.1 5.65-9.15 4.97-3.04-.69-5.6-3.55-6.23-8.07z"/><path d="m137.96 66.18c-.15.39.05.82.43.97.39.15.82-.05.97-.43.37-.97 1.32-1.31 2.17-1.16.83.15 1.58.79 1.54 1.84-.02.41.31.76.72.78s.76-.31.78-.72c.08-1.91-1.25-3.1-2.77-3.38-1.5-.27-3.18.38-3.84 2.1z"/><path d="m131.94 57.71c.67-1.02 1.93-1.5 3.15-1.55 1.27-.04 2.54.37 2.97 1.36.16.38.6.56.98.39.38-.16.56-.6.39-.98-.65-1.5-2.47-2.34-4.4-2.27-1.69.06-3.42.8-4.35 2.22-.23.35-.13.81.22 1.04s.81.14 1.04-.21z"/><path d="m147.7 59.54c.82-.44 2-.29 2.95.18.92.45 1.68 1.21 1.6 2.18-.03.41.27.77.68.81.41.03.78-.27.81-.69.13-1.58-.94-2.92-2.43-3.66-1.4-.69-3.12-.8-4.32-.16-.36.19-.5.65-.31 1.01.2.39.65.53 1.02.33z"/><path d="m131.37 53.45c1.44-.8 2.86-1.36 4.27-1.67 1.52-.34 3.03-.4 4.53-.19.41.06.79-.23.84-.64.06-.41-.23-.79-.64-.84-1.67-.23-3.36-.16-5.06.22-1.55.34-3.11.95-4.68 1.83-.36.2-.49.66-.29 1.02.22.34.67.47 1.03.27z"/><path d="m147.55 53.78c1.71.32 3.11.85 4.31 1.51 1.43.79 2.57 1.78 3.6 2.84.29.3.76.3 1.06.01s.3-.76.02-1.06c-1.13-1.16-2.38-2.24-3.95-3.1-1.32-.73-2.86-1.31-4.75-1.67-.41-.08-.8.19-.88.6-.09.4.18.79.59.87z"/><path d="m139.67 105.52c.67.07 1.31-.12 1.8-.5.51-.39.86-.97.95-1.65.08-.68-.12-1.33-.53-1.83-.39-.48-.97-.82-1.65-.9-.67-.08-1.31.12-1.8.5-.51.39-.86.97-.95 1.65-.08.68.12 1.33.53 1.83.4.48.98.82 1.65.9zm-1.2-2.61c.1-.81.85-1.39 1.67-1.29.82.09 1.41.82 1.31 1.63-.1.8-.85 1.38-1.67 1.29-.82-.1-1.41-.83-1.31-1.63z"/><path d="m140.37 107.35c-.67-.08-1.31.12-1.8.5-.51.39-.86.97-.95 1.65-.08.68.12 1.33.53 1.83.39.48.97.82 1.65.9.67.08 1.31-.12 1.8-.5.51-.39.86-.97.95-1.65.08-.68-.12-1.33-.53-1.83-.4-.49-.98-.83-1.65-.9zm1.2 2.61c-.1.81-.85 1.39-1.67 1.29-.82-.09-1.41-.82-1.31-1.63s.85-1.39 1.67-1.29c.82.09 1.4.82 1.31 1.63z"/><path d="m140.49 114.06c-.67-.08-1.31.12-1.8.5-.51.39-.86.97-.95 1.65-.08.68.12 1.33.53 1.83.39.48.97.82 1.65.9.67.07 1.31-.12 1.8-.5.51-.39.86-.97.95-1.65.08-.68-.12-1.33-.53-1.83-.4-.48-.98-.82-1.65-.9zm1.19 2.61c-.1.81-.85 1.39-1.67 1.29-.82-.09-1.41-.82-1.31-1.63s.85-1.39 1.67-1.29c.83.09 1.41.82 1.31 1.63z"/><path d="m45.33 137.31c.4.79 1.35 1.58 2.9 1.18-.53.77-.99 1.49-1.31 2.04-.66 1.18-.35 2.24.33 2.92.77.77 2.26 1.12 3.64.11.77-.57 1.74-1.34 2.74-2.16l-.07.22c-.29 1.01-.26 1.85-.07 2.32.22.55.61.91 1.14 1.09.37.13.8.15 1.29.02.52-.15 1.2-.56 1.92-1.21.9-.82 1.95-2.04 2.87-3.2.05.12.11.24.17.36.89 1.72 2.43 2.32 3.86 1.86.3-.1.56-.28.74-.54.45-.61.7-1.38.81-2.23.08-.67.08-1.4.08-2.09 0-.54-.02-1.04.11-1.41.4-1.17.95-1.96 1.34-2.67.32-.59.56-1.15.67-1.74.08-.45.1-.92.01-1.45 1.82-.91 5.15-2.52 9.02-4.36 5.57-2.66 12.22-5.79 17.09-8.09 1.76 1.94 3.6 3.75 5.45 5.36.48.42 1.16.49 1.72.18l11.71-6.53c-.01.13 0 1.35 0 1.35l-2.64 55.37c-.03.59.29 1.14.82 1.41.37.19.79.2 1.17.07-.12 14.61 1.65 26.65 1.72 37.05 0 .37.11.92.36 1.61.42 1.18 1.3 2.97 2.52 5.15 3.91 7.01 11.36 18.22 17.64 25.97.38.47 1 .66 1.58.5 1.03-.3 2.16-.72 3.33-1.22l2.67 3.41c-3.31 5-5.68 8.77-7.33 11.54-.14.07-.26.16-.34.3-.12.21-.55.72-.97 1.2-1.26 1.46-2.98 3.45-3.1 5.13-.2 2.68 2.96 4.21 3.41 4.34h.01c1.28.61 2.93.73 4.83.26 2.64-.65 5.86-2.44 9.16-5.23 4.68-3.95 9.56-9.93 13.18-17.34.27-.56.17-1.24-.26-1.69-.21-.22-.74-1.07-1.38-1.77-.3-.33-.63-.63-.96-.87-.13-.09-.28-.15-.43-.2-.03-.04-.06-.08-.09-.11-1.62-2.37-3.21-3.3-4.46-3.62-.01-.02-.02-.04-.03-.06l-1.88-2.82c.42-.4.8-.79 1.11-1.17.36-.43.44-1.02.23-1.54-3.48-8.3-10.65-17.49-16.4-23.97 1.58-4.35 2.32-10.54 2.74-17.16 1.19 5.46 2.57 10.79 3.99 15.11.21.65.73 1.41 1.6 2.19.99.89 2.5 1.9 4.4 3 6.97 4.02 19.52 9.43 30.56 15.61.36.2.79.25 1.18.12.39-.12.72-.4.9-.78.68-1.39 1.29-2.89 1.86-4.41l5.71 1.05h.04c1.52 3.32 3.8 7.16 5.84 10.32.27.41 1.25 1.88 1.48 2.31.62 1.15 1.07 1.98 1.44 2.58.58.95 1.6 2.02 1.88 2.22 0 0 .19.15.55.3.36.14.89.28 1.58.24.63-.04 1.43-.23 2.38-.8 1.18-.72 2.2-2.17 2.8-4.26.73-2.5.93-6.03.38-10.12-.77-5.82-3.04-12.83-7.33-19.68-.31-.5-.89-.77-1.47-.69-.02 0-1.3-.11-2.11-.02-.46.05-.92.15-1.33.32-.25.1-.45.27-.61.48-.08.01-.15.02-.23.04-.06.02-.12.04-.17.08-.02 0-.04.01-.06.01-.8.18-3 .67-4.58 2.17l-1.89-.85c-.12-.25-.29-.48-.53-.64-7.63-4.9-15.14-9.64-23.46-11.99 1.36-9.58 2-16.85 3.01-26.21.81-.46 1.56-.98 2.21-1.57.37-.34.55-.83.47-1.33l-7.42-50.4c.01-.02.02-.04.03-.07l11.37 7.96c.65.46 1.55.32 2.04-.3.8-1.02 1.64-2.06 2.48-3.12 4.34 1.75 10.01 4.05 14.79 6.06 3.38 1.42 6.3 2.69 7.94 3.5-.07.74.09 1.46.41 2.17.31.7.81 1.4 1.33 2.15.53.75 1.11 1.55 1.39 2.49.12.39-.01.9-.09 1.43-.12.84-.22 1.71-.11 2.48.08.58.27 1.13.59 1.6.18.26.43.46.72.57 1.23.46 2.93-.02 4.12-1.54.12-.16.24-.33.35-.51.69 1.21 1.46 2.47 2.17 3.33.67.83 1.36 1.34 1.87 1.51.57.19 1.09.13 1.55-.11.74-.39 1.38-.69 1.57-1.87.06-.35.06-.86-.09-1.61.79.8 1.58 1.53 2.27 2.09 1.33 1.07 2.83.78 3.64.04.71-.65 1.07-1.7.46-2.91-.29-.57-.72-1.3-1.22-2.1 1.54.46 2.51-.29 2.95-1.06.59-1.05.35-3-1.14-4.15-.17-.13-.33-.26-.5-.39.17-.01.3-.04.4-.07.48-.15 1.18-.57 1.46-1.16.25-.53.41-1.28-.35-2.22-.54-.67-3.12-3.07-7.48-5.35-2.2-1.15-4.85-2.28-7.93-3.14-2.83-2.88-6.57-5.82-10.38-8.49-3.87-2.72-7.8-5.16-10.97-7.03.12-.56-.08-1.16-.56-1.51-14.51-10.71-25.57-17.21-35.59-20.25 6.8-.84 11.83-3.74 15.39-7.72 5.83-6.53 7.73-16.05 6.99-24.36-.92-10.24-4.55-18.08-9.53-23.16-1.23-1.26-2.55-2.34-3.93-3.26-.78-.62-1.57-1.14-2.37-1.59-6.86-3.81-14.4-1.78-16.78-.98-2.19-1.26-4.79-1.44-7.61-.58-.76.23-1.54.54-2.33.92-.97.37-1.94.83-2.91 1.39-7.19 4.15-14.24 13.46-17.14 23.48-2.08 7.18-2.04 14.7 1.42 20.98 2.87 5.2 8.11 9.58 16.55 12.15l.2 1.53c-11.9 2.27-25.02 8.92-43.77 18.94-.69.37-.97 1.2-.67 1.91-3.34 2.08-8.06 5.06-12.88 8.22-3.91 2.56-7.87 5.22-11.2 7.59-3.22.5-6.02 1.49-8.34 2.6-4.36 2.1-7.01 4.66-7.57 5.29-.8.91-.67 1.67-.44 2.2.26.6.94 1.05 1.41 1.22.1.03.23.06.4.08-.17.13-.35.25-.52.37-1.53 1.08-1.85 3.02-1.3 4.09zm89.85 124.68c.41-.47.73-.85.95-1.15 1.01-.21 4.54-.74 7.48 1.32-2.16 1.74-4.26 3.04-6.06 3.73-.79.3-1.51.49-2.14.52-.58.02-2.39-.63-2.51-1.22-.01-.03-.03-.06-.06-.07.58-1.08 1.63-2.3 2.34-3.13zm22.91-16.93c.95.68 1.83 2.15 2.11 2.45-3.47 7.11-8.13 12.84-12.61 16.68-.02.02-.36.33-.7.61s-.69.52-.71.53c-3.43 2.66-6.69 4.15-9.12 4.2-.53.01-1.27-.12-1.96-.33-.08-.06-.17-.12-.27-.15-.02-.01-1.81-.78-2.28-2.06.3.24.63.42.98.57.26.11.52.18.78.24 1.41.29 2.87-.12 4.19-.68 1.94-.82 3.73-2 5.4-3.28.18-.14.36-.28.53-.43.11-.09 1.64-1.38 1.72-1.45 1.23-1.1 2.4-2.26 3.5-3.48 1.93-2.14 3.69-4.45 5.2-6.9 1.27-2.07 2.38-4.25 3.24-6.52zm-4.1-3.58c.84.32 1.88 1.05 2.99 2.59-.12.14-.23.29-.29.46-2.06 5.46-5.68 10.5-9.51 14.39-.79.8-1.58 1.54-2.38 2.24-2.57-1.95-5.61-2.12-7.5-1.97.9-1.49 2.01-3.27 3.37-5.39h.02c1.23-.07 2.56.26 4.08 1.04.11.05.23.08.34.08.27 0 .54-.15.67-.41.19-.37.04-.82-.33-1.01-1.37-.7-2.63-1.08-3.83-1.18.26-.4.54-.82.81-1.25 1.16-.02 2.42.31 3.84 1.03.11.05.23.08.34.08.27 0 .54-.15.67-.41.19-.37.04-.82-.33-1.01-1.27-.64-2.44-1.02-3.56-1.15.17-.26.33-.51.51-.78.14.02.28.02.42 0 1.6-.25 4.5-1.98 6.7-3.88 1.42-1.21 2.51-2.5 2.97-3.47zm-1.29-.8c-.71 2.08-6.22 6.29-8.61 6.67l-2.68-3.42c3.41-1.61 7-3.81 9.52-5.9zm47.64-.85c-.1-.15-.24-.26-.31-.37-.43-.71-.95-1.69-1.35-2.43-.29-.54-.58-1.07-.84-1.55.41-1 1.97-4.14 5.38-5.65.32 2.79.26 5.25-.03 7.18-.13.85-.42 1.55-.74 2.07-.28.43-1.48 1.72-2.11.75zm-.61-30.83c8.97 14.33 8.85 29.41 4.63 31.98-1.8 1.09-2.85.33-2.85.33 5.55-.68 4.57-19.78-4.85-32.12 1.08-.45 2.66-.11 3.07-.19zm-8.15 15.26c.8-1.7 1.27-6.2.94-9.42-.14-1.41-.47-2.58-.89-3.31 1.27-1.1 3.04-1.5 3.7-1.64.04.08.08.15.13.22 3.52 4.61 5.81 10.2 6.99 15.35.22.96.39 1.9.54 2.82-3.5 1.36-5.38 4.22-6.21 5.84-.96-1.5-1.98-3.14-2.93-4.81.04-.04.1-.07.13-.13.58-1 1.53-1.88 2.92-2.69.36-.21.48-.67.27-1.03s-.67-.48-1.03-.27c-1.37.8-2.37 1.69-3.08 2.69-.19-.35-.38-.7-.56-1.05.06-.05.13-.09.17-.17.58-1 1.53-1.88 2.92-2.69.36-.21.48-.67.27-1.03s-.67-.48-1.03-.27c-1.36.8-2.35 1.68-3.07 2.67-.13-.27-.26-.54-.38-.8.07-.09.15-.17.2-.28zm-3.14-12.93 1.81.81c1.33 1.79 1.02 9.26-.03 11.48l-5.47-1c1.45-4.13 2.58-8.32 3.69-11.29zm-25.55-13.12c.03.01.06.02.09.03-.16.29-.37.58-.6.85-.75.89-1.71 1.66-2.41 2.18-.14.09-.18.27-.09.4.09.14.27.18.4.09.82-.43 1.96-1.08 2.9-1.87.46-.39.86-.83 1.16-1.29 8.1 2.33 15.43 6.97 22.87 11.75-1.69 4.36-3.4 11.73-6.18 17.45-15.76-8.83-34.6-16.08-35.87-19.96-2.32-7.1-4.56-16.95-5.97-25.56.67-.04 1.32-.13 1.91-.27 1.21-.29 2.21-.76 2.91-1.32.14-.09.17-.27.07-.4s-.3-.16-.44-.07c-.5.25-1.12.41-1.82.53-.59.1-1.23.15-1.92.17-.3.01-.61.01-.93.01-.06-.36-.11-.72-.17-1.08-.01.36-.02.72-.04 1.08-.01 0-.02 0-.03 0-.38 0-.77.01-1.17.01-.47-.01-.93-.02-1.41-.05-.71-.05-1.42-.12-2.13-.26-.16-.05-.35.03-.4.18s.03.31.2.36c.97.42 1.98.74 3.01.93.43.08.85.13 1.27.16.21.02.41.02.62.02-.34 10.32-.75 21.39-3.27 27.91-.28.38-.71.65-1.2.86-1.05.43-2.29.61-2.99.77-.15.02-.26.17-.24.33s.15.27.3.25c.88-.04 2.5 0 3.78-.42.35-.11.66-.27.94-.46 5.62 6.35 12.59 15.29 15.98 23.37-2.81 3.39-10.6 7.94-15.77 9.44-8.91-10.98-20.16-28.97-20.18-31.8-.07-10.61-1.92-22.94-1.71-37.98 1.82-1.04 4.22-1.59 6.99-1.87 5.45-.55 12.23-.01 19.02.45 6.99.48 14 .88 19.65.07 2.2-.32 4.2-.83 5.95-1.56-.99 9.34-1.65 16.67-3.08 26.57zm46.15-73.56c8.9 2.4 14.26 7.13 15.03 8.09.52.65-.09.91-.39 1-.27.08-1.01-.04-1.87-.23-.05-.04-.09-.08-.15-.11-.32-.14-1.25-.49-2.19-.82-.99-.34-1.95-.67-2.17-.71-.13-.04-.24.02-.24.13 0 .12.11.24.24.29.22.1 1.07.64 1.96 1.2.01.01.02.01.03.02 1.03.89 2.6 2.22 4.02 3.31 1.54 1.18 1.08 3.79-1.5 2.06-.54-.36-1.13-.77-1.71-1.18-.43-.43-1.34-1.37-1.98-1.91-.8-.68-1.58-1.32-1.77-1.44-.11-.09-.23-.07-.27.04s.01.27.12.35c.17.17.77.98 1.4 1.83.58.79 1.44 1.89 1.62 2.17l.07.07c1.15 1.69 2.41 3.62 3.02 4.81.56 1.1-.75 1.88-1.82 1.02-1.35-1.09-3.08-2.91-4.44-4.42-.31-.49-.95-1.51-1.45-2.19-.62-.85-1.22-1.65-1.39-1.82-.08-.11-.21-.12-.27-.03-.07.09-.05.26.03.37.12.2.52 1.14.93 2.1.38.9.74 1.8.85 2.12.05.1.11.18.17.25.27.85.54 1.69.72 2.32.64 2.23.01 2.23-.54 2.52-1.44.76-5.51-7.82-5.51-7.82.53 3.38-1.85 5.61-3.33 5.06-.94-1.39.21-3.74-.2-5.1-.87-2.94-4.03-4.75-2.79-7.14-2.42-1.45-15.2-6.68-23.52-10.03 3.17-3.93 6.33-7.96 8.15-11.66 6.3 3.75 15.6 9.73 21.14 15.48zm-55.02-36.52c-.03.06-.15.51-.09.54 0 0-3.5 6.82-5.41 10.55-.26.51-.77.86-1.35.91s-1.14-.2-1.49-.65c-1.69-2.21-4.25-5.55-5.33-6.95 2.97-.09 5.9-1.18 7.68-3.58l.26-.59.37-1.77c1.77.38 3.54.9 5.36 1.54zm-14.11 6.27 2.85 3.72 1.08 23.28-7.4.15.76-23.19zm-7.88-7.27-.49-3.75c1.7.91 3.53 1.61 5.48 2.03 3.52.76 7.07.57 10.44-.39l-.63 3.02c-3.78 5.11-13.81 2.87-14.8-.91zm41.12-33.08c1.03 11.51-3.16 25.47-16.62 29.54.43-.32.89-.69 1.39-1.13 1.42-1.25 3.11-3.01 4.88-5.46.02-.03.02-.08-.01-.11s-.08-.02-.11.01c-1.51 1.84-2.93 3.26-4.19 4.35-1.9 1.63-3.4 2.49-4.24 2.9-1.61.33-3.34.52-5.19.57l.05-.23c2.73-1 5.32-2.52 7.66-4.49 3.05-2.57 5.66-5.89 7.59-9.78 1.02-.22 2.1-.73 3.08-1.54 1.23-1.02 2.04-2.28 2.35-3.45.32-1.23.12-2.37-.58-3.19-.35-.41-.81-.71-1.35-.9.86-1.51 1.7-3.6 2.21-6.23.74-3.87.76-8.92-1.05-14.85-.38-1.25-.8-2.39-1.25-3.46 2.8 4.56 4.75 10.41 5.38 17.45zm-8.24 14.97c.93-2.09 1.7-4.3 2.21-6.66 0-.01 0-.03.01-.04.06-.09.13-.19.19-.28.45.11.85.33 1.13.66 1.07 1.25.34 3.59-1.64 5.22-.61.5-1.26.86-1.9 1.1zm-39.13-37.28c5.4-5.26 10.72-7.52 14.71-5.89-3.37.33-6.23 1.75-8.59 3.66-5.97 4.83-8.75 12.67-8.75 12.67-.02.05.01.11.06.13s.11-.01.13-.06c0 0 2.92-7.67 8.93-12.28 2.25-1.73 4.94-3.02 8.08-3.29-1.72 1.08-3.05 2.36-4.05 3.65-2.5 3.19-3.04 6.37-3.04 6.37-.01.05.03.11.08.12s.11-.03.12-.08c0 0 .67-3.08 3.25-6.08 1.29-1.51 3.07-2.99 5.49-4.05.1-.05.17-.13.21-.22 1.76-.62 7.64-2.34 13.51-.17 1.61.99 2.88 2.68 3.74 5.08.97 2.73 1.41 6.37 1.19 10.97 0 .05.03.09.08.09s.09-.03.09-.08c.39-4.65.07-8.35-.81-11.16-.48-1.52-1.13-2.78-1.92-3.79.48.27.95.56 1.41.9.01.07.04.14.09.19 0 0 3.51 4.02 5.25 10.01.96 3.29 1.38 7.17.41 11.31-.01.05.02.09.06.1.05.01.09-.02.1-.06 1.11-4.17.79-8.12-.08-11.48-.84-3.26-2.21-5.96-3.31-7.8 2.13 2.31 4.01 5.52 5.38 10.01 4.11 13.48-1.61 22.11-3.27 22.36-1.65.24.31-2.7.31-2.7s-.98 1.26-2.8 1.47c-1.34.15-.06-3.46.7-5.36-.43.69-1.2 1.48-2.56 1.68-2.56.38-.64-7.17-.64-7.17s-.77 1.7-2.38 2.65c-.81.48-.94-.91-.87-2.39.08-.07.14-.15.18-.25.72-1.81 1.18-3.52 1.45-5.12.32-1.93.36-3.69.22-5.27 0-.1-.08-.17-.18-.17s-.17.08-.17.18c-.04 1.54-.26 3.23-.77 5.05-.37 1.32-.91 2.71-1.63 4.15-.34.33-.75.66-1.23.94-1.64.94-.41-6.41-.41-6.41s-1.11 3.1-2.67 3.95c-1.55.86-1.33-4.01-1.33-4.01s-1.17 2.43-2.66 3.27-.52-5.26-.52-5.26-.81 2.28-1.92 2.92c-1.12.64-.9-2.97-.9-2.97s-.92 3.23-2.82 4.32-1.45-3.61-1.45-3.61-.37 1.32-2.28 3.17c-1.91 1.84-.77-5.3-.77-5.3s-1.91 4.08-4.64 6.11c-.75.56-1.21.58-1.49.34.04-.09.07-.18.07-.28-.03-1.46.06-2.85.28-4.17.23-1.47.59-2.83 1.03-4.11.01-.03 0-.06-.03-.08-.03-.01-.06 0-.08.03-.66 1.22-1.24 2.53-1.71 3.97-.43 1.29-.75 2.66-.96 4.12-.6 1.13-1.38 2.38-2.29 3.2-2.05 1.86-1.51-4.63-1.51-4.63s-2.14 5.68-3.76 7.29-2.68-2.28-2.34-3.68c.76-3.24 1.75-11.91 6.98-17zm-6.93 21.98c-.31 1.92-.44 3.82-.43 5.68-.45-.46-.85-1.02-1.18-1.66-1.15-2.28-.89-4.72.6-5.44.2.45.44.85.71 1.14.1.11.2.19.3.28zm4.52 25.11c-1.53-1.11-2.63-2.54-3.37-3.98-1.49-2.88-1.7-5.7-1.7-5.7 0-.02-.02-.03-.03-.03-.02 0-.03.02-.03.03 0 0 .04 2.88 1.36 5.9.3.68.67 1.37 1.11 2.04-13.61-10.2-9-29.04.15-40.82-.18.37-.36.73-.52 1.1-1.86 4.34-2.49 8.87-3.01 11.03-.15.63-.13 1.64.09 2.63.03.12.07.24.1.36-.03.01-.07.02-.1.03-.97.47-1.62 1.43-1.81 2.69-.19 1.2.04 2.68.76 4.1.55 1.09 1.3 1.96 2.1 2.57.2 4.16 1.18 8.1 2.83 11.57 1.63 3.41 3.89 6.36 6.65 8.64-1.69-.66-3.2-1.38-4.58-2.16zm-3.1-24.55c.06 0 .13.02.19.01.52-.02 1.11-.23 1.71-.82.59-.59 1.27-1.64 1.88-2.82.04.07.09.13.13.18.44.53 1 .77 1.65.74.43-.02.97-.18 1.56-.72.72-.65 1.39-1.54 1.95-2.45.17.11.36.19.56.24.56.15 1.42.12 2.55-.71.75-.55 1.44-1.24 2.06-1.97.02.09.04.18.06.26.33 1.06 1.05 1.47 1.77 1.5.42.02 1.02-.1 1.66-.72.08-.07.15-.14.22-.22.34.63.83 1.02 1.41 1.17.49.13 1.09.12 1.81-.3.61-.35 1.16-.86 1.62-1.44.18.14.38.23.58.29.28.08.59.11.93.03.02.18.04.35.07.51.23 1.11.9 1.67 1.51 1.82.4.1.89.09 1.43-.22.3-.17.58-.38.86-.62.09.26.2.48.32.66.33.51.77.8 1.24.93.45.12.97.1 1.57-.22l.03-.02c.06.78.22 1.41.43 1.77.31.54.76.82 1.23.93.37.08.8.07 1.29-.18 0 .48.04.92.11 1.26.18.86.64 1.38 1.08 1.63.38.21.84.32 1.39.16-.05.98.02 1.9.23 2.58.24.77.68 1.31 1.23 1.62.37.21.8.33 1.31.3-.08.35-.13.67-.16.96-.08 1.01.22 1.74.6 2.13.39.4.91.64 1.64.56.09-.01.18-.02.27-.04.03.09.06.18.1.26.31.61.9 1.18 2.16 1 .16-.02.35-.09.57-.19-3.9 13.58-15.94 22.34-27.76 19.78-11.84-2.53-19.2-15.58-17.05-29.62zm4.24 33.51c.09-.11.39-.17.45-.19 1.86-.54 3.67-.98 5.46-1.32l.14 1.05.04.18c.27 1.04.99 2.03 2.08 2.84 1.56 1.16 3.93 1.99 6.42 2.15.11.01.21 0 .32.01-1 1.46-3.46 5.06-5.07 7.41-.33.48-.87.75-1.45.73s-1.1-.33-1.4-.83c-2.16-3.68-6.25-10.62-6.91-11.75-.04-.06-.15-.19-.08-.28zm-1.49.4c.03.16.08.32.17.47 0 0 4.65 7.9 7.01 11.91.55.94 1.55 1.53 2.64 1.57s2.12-.49 2.73-1.39l.06-.08-.68 20.83c-.01.41.14.81.43 1.11.29.29.69.46 1.1.45l7.4-.15c.4-.01.79-.18 1.06-.48.28-.3.42-.69.4-1.1l-.98-21.13.14.18c.66.87 1.72 1.33 2.81 1.24 1.09-.1 2.05-.75 2.55-1.72 1.92-3.73 5.42-10.55 5.42-10.55.11-.22.16-.47.16-.71 8.94 3.37 18.91 9.49 31.6 18.84-2.21 5.25-7.63 11.27-11.93 16.77l-12.43-8.7c-.38-2.02-.77-4.22-1.25-6.64-.33-1.69-.71-3.47-1.16-5.36-.03-.18-.2-.3-.37-.26s-.27.22-.24.4c.28 1.91.49 3.71.67 5.42.32 3.05.91 8.54 1.02 8.67l7.43 50.42c-10.64 9.71-46-2.47-56.41 5.9l2.64-55.26s.06-.77.08-1.12c.08-1.38.2-4.82.29-6.79.11-2.4.25-4.83.4-6.95.02-.19-.1-.35-.27-.38-.17-.02-.32.11-.34.29-.33 2.11-.68 4.51-1 6.9-.22 1.63-.41 3.23-.58 4.73l-12.52 7c-5.31-4.62-10.58-10.86-13.91-17.48 14.75-7.87 25.96-13.67 35.86-16.85zm-70.31 42.21c.31-.22.6-.44.87-.62.5-.36.88-.62 1.02-.67.11-.03.17-.14.14-.24s-.14-.17-.24-.14c-.16.03-.62.23-1.23.52-1.16.55-2.86 1.42-3.86 1.91-.97.19-1.85.3-2.14.2s-.89-.39-.35-1.02c.81-.93 6.39-6.17 15.36-7.45 7.38-5.29 18.09-12.09 24.2-15.91 1.94 3.58 4.4 7.03 7.11 10.16-9.22 4.34-24.32 11.47-26.88 12.87 1.14 2.44-.63 3.21-1.62 6.12-.46 1.34.21 3.97-.79 5.32-1.5.49-3.05-1.53-2.38-4.89 0 0-5.25 7.61-6.78 7.09-.8-.27.18-2.7 1.19-4.78.22-.36.49-.79.77-1.23.97-1.52 2.09-3.21 2.26-3.43.07-.08.07-.21-.01-.28s-.21-.07-.28.01c-.23.21-1.98 2.11-3.27 3.57-.18.2-.35.4-.5.58-1.7 1.44-3.85 3.23-5.29 4.29-1.1.81-2.38-.02-1.77-1.09.67-1.19 2.05-3.12 3.29-4.78.8-.8 1.95-1.95 2.92-2.88.84-.81 1.51-1.46 1.66-1.55.1-.05.14-.17.09-.27s-.17-.14-.27-.09c-.16.06-.96.63-1.95 1.35-.97.7-2.1 1.55-2.98 2.2-.7.45-1.43.92-2.08 1.32-2.65 1.62-3-1.01-1.41-2.12 2.44-1.72 5.33-4.08 5.33-4.08s-.06-.01-.13.01z"/></g></g></svg>