<?xml version="1.0" encoding="utf-8"?>
<!-- Generator: Adobe Illustrator 23.0.6, SVG Export Plug-In . SVG Version: 6.00 Build 0)  -->
<svg version="1.1" id="Layer_1" xmlns="http://www.w3.org/2000/svg" xmlns:xlink="http://www.w3.org/1999/xlink" x="0px" y="0px"
	 viewBox="0 0 297.64 297.64" style="enable-background:new 0 0 297.64 297.64;" xml:space="preserve">
<style type="text/css">
	.st0{fill-rule:evenodd;clip-rule:evenodd;fill:#978771;}
	.st1{fill-rule:evenodd;clip-rule:evenodd;fill:#FFFFFF;}
	.st2{fill-rule:evenodd;clip-rule:evenodd;fill:#C9B49A;}
	.st3{fill-rule:evenodd;clip-rule:evenodd;fill:#FFE7CC;}
	.st4{fill:#010101;}
</style>
<path class="st0" d="M267.53,101.42c-0.7-32.84-32.96-57.11-60.15-49.08c-0.28-0.05-0.57-0.11-0.85-0.15
	c-4.85-0.78-9.23-0.31-13.65-0.66c-31.77-2.53-60.77,40.22-57.17,78.09c4.17,43.95,10.64,30.56,10.64,30.56
	c3.32,12.66,11.54,16.43,9.76,6.36c6.06,21.96,22.99,18.9,27.81,16.2c17.69-9.87,19.07,6.62,19.07,6.62s65.51,9.66,66.23-73.38
	C269.27,110.82,268.66,105.97,267.53,101.42z"/>
<path class="st1" d="M218.73,144.52c5.27,4.99,25.3,7.19,32.19-0.45C242.05,167.97,227.15,166.17,218.73,144.52z"/>
<g>
	<path class="st2" d="M162.2,160.71c-1.2,3.91,4.78,21.63,14.04,23.14C170.47,182.5,162.23,166.25,162.2,160.71z"/>
	<path class="st2" d="M168.8,169.21c-0.73,2.71,5.71,12.92,11.31,14.5C178.32,182.56,169.12,172.51,168.8,169.21z"/>
	<path class="st2" d="M190.52,76.53c-1.42-5.76,9.32-20.47,14.25-23.01C200.74,54.22,187.65,67.59,190.52,76.53z"/>
	<path class="st2" d="M231.79,87.73c4.5-19.58-16.98-32.92-21.66-33.85C217.75,58.76,234.2,76.53,231.79,87.73z"/>
	<path class="st2" d="M199.23,54.58c-13.14,4.42-49,30.61-42.15,61.06C162.26,74.92,190.79,59.16,199.23,54.58z"/>
	<path class="st2" d="M187.21,53.05c-26.12,3.33-52.6,37.95-48.52,71.17C138.87,85.16,169.21,56.04,187.21,53.05z"/>
	<path class="st2" d="M213.82,53.11c10.06,0.56,47.57,16.79,51.55,58.52C269.33,83.92,248.86,51.24,213.82,53.11z"/>
	<path class="st2" d="M221.14,188.13c5.37-0.72,13.96-8.4,14.1-10.7C234.01,180.09,223.05,187.37,221.14,188.13z"/>
</g>
<g>
	<path class="st3" d="M156.24,192.02c0,0,0.91-2.26-1.35-4.26c-1.83-1.63-4.78-1.55-4.78-1.55c0.62-5.26-6.12-4.72-6.12-4.72
		s4.35-9.92,5.07-11.11c2.38-3.96-2.67-5.08-4.41-3.26c-6.63,6.95-14.72,24-18.61,32.57c-3.88,8.58-13.36,34.2-12.35,34.61
		c14.51,5.81,28.1,6.59,28.1,6.59c0.96-4.06,1.53-15.9,1.53-15.9c4.38-1.13,11.64-11.7,15.42-18.85c3.6-6.8,3.78-8.79,2.44-11.41
		C159.85,192.1,156.24,192.02,156.24,192.02z"/>
	<path class="st3" d="M262.88,117.86c-0.61-0.72-1.31-1.39-1.75-2.24c-0.45-0.86-0.63-1.74-0.59-2.62c-0.2-0.02-0.4-0.07-0.6-0.12
		c-1.4,0.18-2.82-0.5-3.63-1.75c-0.55-0.85-0.61-1.88-0.32-2.82c-0.28-0.78-0.49-1.59-0.68-2.41c-1.81,0.98-4.75,0.21-5.64-2.05
		c-0.43-1.1-0.94-2.12-1.46-3.13c-0.24,0.7-0.56,1.37-1.03,1.97c-2.02,2.6-5.34,2.61-7.65,0.37c-1.59-1.54-2.3-3.41-2.74-5.46
		c-0.25-0.3-0.5-0.6-0.74-0.91c-0.24,0.99-0.56,1.95-1.05,2.84c-1.17,2.1-3.39,3.45-5.84,2.86c-2.06-0.49-3.27-1.96-3.72-3.73
		c-0.71-0.94-1.33-2.04-1.79-3.17c-2.12,4.24-4.78,8.2-8.38,11.22c-0.68,0.57-1.54,0.83-2.4,0.85c-1.84,0.76-3.84-0.37-4.58-2.1
		c-2.05,2.24-4.14,4.36-6.41,6.13c-0.33,0.26-0.67,0.44-1.01,0.59c-1.71,3.57-7.21,1.14-6.64-2.45c-2.08,2.89-4.31,5.66-6.73,8.28
		c-2.44,2.65-6.43,0.04-6.14-2.96c-2.06,2.43-3.97,5.18-6.87,6.59c-0.07,0.03-0.14,0.05-0.2,0.08c-0.01,0.02-0.03,0.03-0.04,0.05
		c-1.95,2.22-5.15,0.75-6.04-1.59c-1.19-3.15-3.6-4.14-5.56-6.21c-3.94-3.01-8.32-3.39-11.56-1.45c-5.13,3.07-5.7,12.73-0.32,20.93
		c4.18,6.38,11.04,9.8,15.95,9.78c3.27,8.62,8.3,16.03,14.72,21.83c0.6,10.15,0.63,18.64-0.11,24.66
		c6.84,8.69,24.35,10.96,34.25,6.44c0.33-5.9,1.49-11.74,3.28-17.53c25.98-0.33,45.48-17.38,45.69-59.81
		C263.89,118.66,263.3,118.36,262.88,117.86z M251.76,144.52c-0.73,4.19-2.84,8.03-5.49,11.26c-2.18,2.66-5.3,5.86-8.62,6.36
		c-2.16,0.73-4.44,0.86-6.57,0.1c-2.19-0.78-4.05-2.16-5.68-3.8c-1.65-1.26-2.97-2.87-3.75-4.81c-0.52-0.92-0.95-1.87-1.29-2.91
		c-0.34-1.04-0.84-2.66-1.77-3.33c-0.94-0.68-1.4-1.84-0.77-2.92c0.54-0.93,0.63-1.64,1.56-0.97c0.32,0.23,0.86,0.95,1.12,1.21
		c0.19,0,2.96,1.25,3.16,1.3c4.58,1.19,7.29,2.15,12.09,2.05c2.43-0.05,4.01-0.41,6.33-1.12c1.09-0.33,3.65-0.47,4.65-1.02
		c1-0.55,1.49-2.3,2.6-2.62C251.02,142.81,252.03,142.98,251.76,144.52z"/>
</g>
<g>
	<path class="st4" d="M252.22,141.93c-1.03-0.62-2.35-0.43-3.15,0.47c-3.03,3.36-9.02,4.33-14.76,4.14
		c-5.82-0.19-11.5-1.6-13.85-3.83c-0.85-0.8-2.14-0.91-3.11-0.26c-0.97,0.65-1.36,1.89-0.94,2.98c2.72,6.99,6.12,12.02,9.73,14.99
		c2.72,2.24,5.59,3.38,8.46,3.46c2.9,0.08,5.82-0.9,8.62-3.12c3.67-2.91,7.2-8.1,10.06-15.82
		C253.68,143.81,253.24,142.55,252.22,141.93z M218.73,144.52c2.64,2.5,8.96,4.29,15.49,4.51c6.53,0.22,13.26-1.14,16.7-4.96
		C242.05,167.97,227.15,166.17,218.73,144.52z"/>
	<path class="st4" d="M228.04,115.67c-0.14-0.53-0.68-0.85-1.22-0.71c-4,1.05-6.42,2.98-8.82,5.56c-0.38,0.4-0.35,1.04,0.05,1.41
		c0.19,0.18,0.44,0.27,0.68,0.27c0.27,0,0.54-0.11,0.73-0.32c0.29-0.32,0.59-0.62,0.89-0.92c0,0.02,0,0.04-0.01,0.06
		c-0.02,2.34,1.44,4.25,3.26,4.26c1.82,0.02,3.32-1.87,3.34-4.21c0.01-1.49-0.58-2.8-1.48-3.57c0.58-0.23,1.19-0.45,1.86-0.62
		C227.86,116.75,228.18,116.2,228.04,115.67z"/>
	<path class="st4" d="M254.35,116.48c-0.14-0.53-0.68-0.85-1.22-0.71c-3.23,0.85-5.13,2.53-6.7,4.22c-0.38,0.4-0.35,1.04,0.05,1.41
		c0.19,0.18,0.44,0.27,0.68,0.27c0.2,0,0.38-0.08,0.55-0.19c0,2.31,1.41,4.19,3.16,4.21c1.77,0.01,3.22-1.86,3.24-4.19
		c0.01-1.46-0.54-2.75-1.39-3.51c0.29-0.1,0.6-0.2,0.92-0.28C254.17,117.56,254.49,117.01,254.35,116.48z"/>
	<path class="st4" d="M228.6,109.39c0.55,0.1,1.06-0.27,1.15-0.82c0.09-0.54-0.27-1.06-0.82-1.15c-4.44-0.76-12.85,4.23-16.38,9.71
		c-0.3,0.46-0.17,1.08,0.3,1.38c0.17,0.11,0.35,0.16,0.54,0.16c0.33,0,0.65-0.16,0.84-0.46
		C217.29,113.47,224.94,108.77,228.6,109.39z"/>
	<path class="st4" d="M246.5,110.32c2.18-0.43,7.19,1.49,8.9,7.89c0.12,0.45,0.52,0.74,0.97,0.74c0.09,0,0.17-0.01,0.26-0.03
		c0.53-0.14,0.85-0.69,0.71-1.22c-2.07-7.76-8.33-9.91-11.22-9.33c-0.54,0.11-0.89,0.63-0.79,1.18
		C245.43,110.08,245.96,110.43,246.5,110.32z"/>
	<path class="st4" d="M234.8,129.2c1.26-1.34,3.03-1.87,4.72-1.42c1.33,0.35,2.3,1.25,2.58,2.4c0.41,1.69-0.61,3.75-2.88,5.82
		c-0.41,0.37-0.44,1-0.07,1.41c0.2,0.22,0.47,0.33,0.74,0.33c0.24,0,0.48-0.09,0.67-0.26c3.83-3.48,3.82-6.36,3.48-7.77
		c-0.46-1.87-1.96-3.32-4.01-3.86c-2.38-0.63-4.94,0.13-6.68,1.99c-0.38,0.4-0.36,1.03,0.04,1.41
		C233.79,129.62,234.42,129.6,234.8,129.2z"/>
	<path class="st4" d="M270.03,101.12C269.55,82.39,259.28,66.33,245.4,57c-11.43-7.69-25.28-10.78-38.12-7.22
		c-0.12-0.02-0.23-0.04-0.35-0.06c-4.92-0.8-9.37-0.33-13.85-0.69c-13.42-1.07-26.42,5.41-36.88,16.25
		c-15.34,15.89-25.2,41.14-22.98,64.58c0.11,1.18,0.23,2.3,0.34,3.39l-20.07,4.45c-0.29,0.06-0.53,0.23-0.68,0.48
		c-0.15,0.23-0.19,0.51-0.13,0.78c0,0,0,0.01,0,0.01c0.12,0.47,0.55,0.79,1.04,0.79c0.08,0,0.14,0,0.24-0.02l19.82-4.39
		c0.38,3.42,0.78,6.43,1.18,9.08l-9.94,4.67c-0.26,0.12-0.46,0.34-0.55,0.61c-0.09,0.27-0.07,0.55,0.06,0.8
		c0.18,0.35,0.55,0.58,0.95,0.58c0.17,0,0.33-0.04,0.47-0.11l9.35-4.4c0.7,4.18,1.42,7.36,2.14,9.73c0.21,0.7,0.42,1.32,0.64,1.91
		c-0.2,0.02-0.4,0.07-0.58,0.2l-16.92,12.68c-0.23,0.17-0.37,0.42-0.4,0.71c-0.03,0.28,0.05,0.56,0.23,0.79
		c0.21,0.24,0.51,0.38,0.83,0.38c0,0,0.01,0,0.01,0c0.24,0,0.47-0.08,0.65-0.22l16.92-12.69c0.01,0,0.01-0.01,0.01-0.02
		c0.69,1.49,1.37,2.47,1.98,3.08c0.9,0.9,1.79,1.27,2.59,1.4c0.59,0.1,1.16,0.05,1.68-0.09c0.04,0.1,0.08,0.2,0.12,0.29
		c-0.72,0.24-1.36,0.61-1.85,1.13c-6.25,6.55-13.75,21.6-18.94,33.07c-1.82,4.02-5.07,12.25-7.89,20.01
		c-5.2,14.3-4.83,15.21-4.54,15.95c0.2,0.48,0.57,0.85,1.04,1.04c1.84,0.73,3.76,1.43,5.72,2.06c12.08,3.93,22.5,4.62,22.95,4.65
		c0.03,0,0.07,0,0.1,0c0.83,0,1.55-0.57,1.74-1.38c0.81-3.46,1.34-11.91,1.51-15.08c5.1-2.59,11.88-12.83,15.28-19.25
		c3.68-6.96,4.18-9.65,2.45-13.06c-0.77-1.51-2.15-2.62-4.02-3.23c-0.18-0.06-0.37-0.11-0.57-0.16c-0.07-1.19-0.55-2.71-2.12-4.1
		c-0.73-0.64-1.63-1.15-2.68-1.49c-0.48-0.16-0.98-0.28-1.53-0.37c-0.32-2.1-1.73-3.65-4.03-4.4c-0.37-0.12-0.76-0.22-1.18-0.3
		c1.43-3.24,2.62-5.86,3.32-7.34c0.92,0.9,1.83,1.54,2.62,1.87c1.44,0.6,2.73,0.51,3.78-0.06c2.63,5.25,6.04,8.47,9.55,10.36
		c4.54,2.46,9.32,2.71,13.14,2.13c-0.07,0.9-0.15,1.76-0.25,2.57c-0.08,0.66,0.1,1.33,0.52,1.85c3.04,3.85,7.93,6.63,13.45,8.18
		c8.05,2.26,17.4,1.91,23.81-1.01c0.84-0.39,1.41-1.21,1.46-2.13c0.09-1.59,0.25-3.18,0.46-4.76c8.48-1.19,19.1-4.29,28.64-11.89
		c13.09-10.43,24.27-29.34,24.57-63.63C271.77,110.74,271.16,105.78,270.03,101.12z M205.8,52.9c-3.68,2.9-6.64,7.49-8.54,12.59
		c-2.14,5.73-2.96,12.08-2.02,17.22c0.01,0.03,0.04,0.05,0.07,0.05c0.03-0.01,0.05-0.04,0.05-0.07c-0.71-5.1,0.34-11.33,2.69-16.89
		c2.21-5.26,5.57-9.94,9.68-12.43c1.78,2.5,2.96,5.63,3.78,9.08c1.16,4.84,1.62,10.3,2.02,15.56c0,0.03,0.03,0.06,0.06,0.06
		c0.03,0,0.06-0.03,0.06-0.06c-0.11-5.32-0.28-10.83-1.17-15.76c-0.6-3.31-1.54-6.35-2.98-8.92c4.64,1.3,10.15,4.5,14.88,8.54
		c5.29,4.53,9.61,10.12,10.67,15.35c0.01,0.03,0.04,0.05,0.07,0.05c0.03-0.01,0.05-0.04,0.05-0.07
		c-0.88-5.35-5.04-11.17-10.23-15.96c-4.83-4.46-10.56-8-15.37-9.46c30.94-7.13,67.09,26,55.91,65.38
		c-2.31-0.27-3.6-3.25-3.39-10.17c-2.03,8.44-4.33,9.3-7.46-12.43c-0.04,12.69-1.44,18.69-8.36-2.71
		c0.95,12.93-0.39,20.04-12.7-0.91c3.96,12.71-6.64,16.45-9.91-1.62c-3.46,14.65-15.31,24.39-12.9,12.37
		c0.77-1.74,1.5-3.76,2.1-5.78c1.01-3.38,1.7-6.73,1.73-8.73c0.01-0.13-0.09-0.24-0.22-0.25c-0.13-0.01-0.24,0.09-0.25,0.22
		c-0.2,1.95-1.16,5.15-2.43,8.36c-1.15,2.9-2.56,5.77-3.91,7.67c-0.08,0.13-0.12,0.26-0.14,0.4c-7.48,9.55-12.78,13.47-11.05,5.15
		c0.5-0.85,1.08-1.97,1.71-3.32c0.95-2.04,2.01-4.56,3.02-7.35c0.02-0.04,0-0.08-0.04-0.1c-0.04-0.02-0.08,0-0.1,0.04
		c-1.38,2.6-2.77,4.93-3.99,6.8c-0.41,0.63-0.79,1.19-1.14,1.69c-0.48,0.63-0.95,1.25-1.41,1.84c-0.18,0.2-0.34,0.37-0.47,0.49
		c-0.11,0.12-0.18,0.26-0.23,0.4c-9.4,11.93-13.67,14.11-7.37-3.79c-7.09,10.24-12.11,15.08-16.07,17.15
		c-0.25-0.55-0.53-1.11-0.83-1.67c-0.64-1.18-1.42-2.37-2.33-3.56c1.96-1.79,3.99-3.91,5.85-6.13c3.42-4.07,6.26-8.37,7.01-11.03
		c0.01-0.03-0.01-0.07-0.04-0.07c-0.03-0.01-0.06,0.01-0.07,0.04c-0.89,2.59-3.94,6.68-7.53,10.51c-1.94,2.07-4.04,4.04-6.04,5.68
		c-0.57-0.67-1.16-1.28-1.76-1.84c1.36-2.2,2.76-4.82,4.04-7.57c2.1-4.5,3.88-9.3,4.66-13.01c0.01-0.03-0.01-0.06-0.04-0.07
		c-0.03-0.01-0.06,0.01-0.07,0.04c-0.96,3.63-2.98,8.31-5.29,12.66c-1.38,2.59-2.85,5.05-4.27,7.11c-2.9-2.31-6-3.32-8.77-3.18
		c-0.29,0.01-0.58,0.06-0.87,0.1c-2.54-19.38,21.64-53.82,50.92-57.66C205.31,52.89,205.56,52.89,205.8,52.9z M148.42,169.99
		c-0.6,1-3.49,7.5-4.74,10.33c-0.42,0.57-1.99,2.74-2.84,4.84c-0.27,0.64,0.04,1.39,0.78,1.69c0.62,0.2,1.31-0.11,1.57-0.73
		c0.58-1.43,1.62-3.01,2.23-3.87c0.6,0.05,1.15,0.16,1.63,0.32c1.4,0.46,2.16,1.37,2.26,2.71c-1.14,1.42-2.96,3.81-3.61,5.36
		c-0.14,0.31-0.14,0.66-0.01,0.98c0.13,0.32,0.37,0.56,0.69,0.7l0,0c0.04,0.02,0.07,0.03,0.1,0.04c0.63,0.2,1.32-0.11,1.56-0.72
		c0.55-1.29,2.31-3.57,3.14-4.61c0.5,0.06,0.98,0.17,1.43,0.32c0.72,0.23,1.32,0.56,1.78,0.97c1.16,1.03,1.34,2.09,1.26,2.86
		c-0.8,1.04-2.47,3.25-3.19,4.53c-0.35,0.61-0.13,1.39,0.47,1.73c0.05,0.03,0.19,0.09,0.24,0.1c0.58,0.19,1.2-0.05,1.51-0.58
		c0.58-1.03,1.99-2.92,2.8-3.99c0.15,0.04,0.32,0.08,0.5,0.14c1.23,0.4,2.08,1.06,2.54,1.96c1.13,2.22,1.23,3.81-2.43,10.72
		c0,0,0,0,0,0c-4.31,8.14-11.25,17.53-14.95,18.48c-0.32,0.08-0.55,0.36-0.56,0.69c-0.01,0.11-0.52,10.71-1.38,15.14
		c-2.42-0.2-11.4-1.14-21.67-4.48c-1.74-0.57-3.46-1.19-5.14-1.84c0.45-3.3,8.31-24.87,12.34-33.77
		c5.1-11.28,12.45-26.05,18.46-32.36c0.56-0.58,1.69-0.78,2.64-0.48c0.3,0.1,0.84,0.34,1.03,0.86
		C149.05,168.51,148.9,169.19,148.42,169.99z M179.24,184.3c-0.08,0.01-0.16,0.03-0.23,0.04c-0.02-0.08-0.06-0.15-0.13-0.19
		c-4.01-2.27-6.77-5.21-8.66-8.11c-3.72-5.68-4.14-11.2-4.14-11.2c0-0.01-0.01-0.02-0.02-0.02c-0.01,0-0.02,0.01-0.02,0.02
		c0,0,0.31,5.56,3.93,11.36c1.82,2.91,4.47,5.88,8.33,8.24c-7.08,0.93-17.65-1.51-22.17-17.9c1.14,6.44-1.81,7.2-4.96,3.6
		c0.49-1.31,0.35-2.34,0.09-3.02c-0.42-1.13-1.35-1.98-2.62-2.39c-0.26-0.08-0.53-0.14-0.79-0.19c-0.55-1.31-1.05-2.76-1.47-4.37
		c0,0-4.71,9.74-8.69-14.7l7.49-3.52c0.26-0.12,0.46-0.34,0.55-0.61c0.09-0.27,0.07-0.55-0.06-0.8c-0.26-0.51-0.9-0.72-1.43-0.47
		l-6.89,3.24c-0.37-2.51-0.74-5.33-1.09-8.52l9.93-2.2c0.29-0.06,0.53-0.23,0.68-0.47c0.15-0.24,0.2-0.52,0.13-0.8
		c-0.14-0.55-0.71-0.89-1.28-0.77l-9.69,2.15c-0.1-1-0.21-2.02-0.31-3.08c-3.59-37.87,25.4-80.62,57.17-78.09
		c1.68,0.13,3.35,0.15,5.04,0.16c-12.45,1.54-23.69,7.85-32.56,16.92c-10.72,10.97-17.99,25.93-19.73,41.17
		c0,0.03,0.02,0.06,0.05,0.07c0.03,0,0.06-0.02,0.07-0.05c1.97-15.1,9.39-29.86,20.21-40.59c7.03-6.97,15.51-12.21,24.84-14.72
		c-18.47,8.4-33.19,27.16-37.8,43.1c-1.43,4.93-1.86,9.58-1.27,13.64c-1.92,0.84-3.54,2.34-4.64,4.46c-1,1.99-1.45,4.32-1.34,6.79
		c0.1,2.13,0.6,4.37,1.48,6.57c1.55,3.9,4.25,7.68,7.81,10.56c0.29,0.23,0.63,0.47,1,0.72c-0.45,6.98,0.07,13.12,1.01,18.25
		c2.06,11.21,6.08,17.64,6.08,17.64c0.02,0.03,0.05,0.04,0.08,0.02c0.03-0.02,0.04-0.05,0.02-0.08c0,0-3.74-6.52-5.35-17.71
		c-0.7-4.9-0.98-10.7-0.37-17.24c0.76,0.42,1.6,0.82,2.5,1.19c1.75,7.92,4.02,13.9,6.23,18.3c3.88,7.75,7.5,10.61,7.5,10.61
		c0.02,0.02,0.06,0.02,0.08-0.01c0.02-0.02,0.02-0.06-0.01-0.08c0,0-3.46-2.99-6.95-10.82c-1.9-4.26-3.8-9.96-5.16-17.38
		c0.16,0.05,0.31,0.11,0.47,0.16c0.41,0.13,0.83,0.22,1.25,0.32c0,0.05-0.01,0.1,0,0.14c1.34,5.36,3.46,10,5.7,13.8
		c4.39,7.45,9.2,11.63,9.2,11.63c0.02,0.02,0.06,0.02,0.08,0c0.02-0.02,0.02-0.06,0-0.08c0,0-4.57-4.36-8.57-11.94
		c-1.33-2.51-2.58-5.38-3.59-8.55c3.19,6.84,7.48,12.86,12.76,17.78C179.37,173.19,179.48,179.29,179.24,184.3z M215.56,196.15
		c-9.91,4.52-27.41,2.25-34.25-6.44c0.65-5.31,0.7-12.56,0.29-21.16c9.01,7.4,20.39,11.9,33.33,12.51c1.07,0.05,2.12,0.07,3.17,0.07
		C216.74,186.1,215.84,191.1,215.56,196.15z M215.05,178.56c-22.54-1.07-40.1-14.47-48.03-34.52c1.07,0.04,2.1-0.04,3.06-0.28
		c0.28-0.06,0.46-0.35,0.4-0.63c-0.06-0.28-0.35-0.46-0.63-0.4c-2.2,0.44-4.8-0.08-7.21-0.96c-2.65-0.97-5.06-2.41-6.4-3.59
		c-3.17-2.77-5.49-6.34-6.81-9.97c-0.71-1.97-1.11-3.95-1.18-5.84c-0.07-2.03,0.24-3.95,1.05-5.58c1.5-3.11,4.48-4.54,7.81-4.08
		c2.83,0.39,5.9,2.05,8.63,5.14c1.1,1.23,2.02,2.47,2.78,3.7c0.88,1.41,1.57,2.8,2.1,4.14c0.1,0.27,0.4,0.41,0.68,0.31
		c0.27-0.1,0.41-0.4,0.31-0.68c-0.05-0.15-0.11-0.31-0.17-0.47c2.67-1.37,5.81-3.86,9.65-8.23c-0.05,1.91,0.62,3.02,1.28,3.59
		c0.91,0.78,2.27,1.17,4.07,0.27c1.59-0.8,4.21-3.41,7.53-7.4c0.09,0.31,0.2,0.57,0.31,0.8c0.42,0.81,1.02,1.31,1.73,1.61
		c0.98,0.41,2.48,0.4,4.25-0.7c1.92-1.2,4.73-4.04,7.99-8.02c0.31,0.93,0.8,1.57,1.35,2c1.34,1.07,3.6,1.22,6.11-0.64
		c2.39-1.77,5.42-5.64,7.74-10.68c0.84,1.87,1.77,3.27,2.69,4.27c1.82,1.96,3.78,2.59,5.43,2.42c1.82-0.19,3.49-1.33,4.49-3.51
		c0.1-0.22,0.19-0.45,0.28-0.7c2.11,2.97,3.78,4.78,5.04,5.67c1.84,1.3,3.38,1.27,4.51,0.77c0.87-0.38,1.69-1.17,2.24-2.47
		c0.58,1.23,1.1,2.12,1.55,2.72c1.51,2.01,3.11,2.07,4.14,1.72c0.23-0.08,0.47-0.2,0.71-0.37c0.41,1.62,0.8,2.85,1.18,3.74
		c0.93,2.2,2.18,3,3.04,3.2c0.51,0.13,1.05,0.14,1.58-0.01c0.2,0.67,0.43,1.24,0.69,1.72c0.89,1.66,2.1,2.55,3.51,2.88
		C264.09,163.47,242.75,179.88,215.05,178.56z M218.9,188.97c0.46-2.64,1.06-5.27,1.81-7.89c6.55-0.28,12.68-1.62,18.21-4.11
		c-1.8,2.45-4.46,5.4-8.1,7.82c-1.76,1.17-3.75,2.2-5.98,3C222.78,188.29,220.79,188.68,218.9,188.97z M230.49,186.06
		c0.28-0.2,0.56-0.39,0.82-0.59c3.59-2.72,6.13-5.92,7.8-8.54c0.01-0.01-0.01-0.03-0.01-0.04c5.14-2.35,9.77-5.71,13.7-10.19
		c8.68-9.88,14.07-25.36,14.23-47.59c0.4-0.32,0.71-0.75,0.86-1.27c0.51-1.81,0.92-3.61,1.25-5.4c0.06,1.17,0.1,2.35,0.09,3.56
		C268.82,162.03,248.51,179.57,230.49,186.06z"/>
	<path class="st4" d="M167.38,135.68c-3.29-1.29-5.78-2.83-7.68-4.4c-1.72-1.43-2.89-2.9-3.65-4.3c-0.74-1.38-1.07-2.67-0.97-3.79
		c0.07-0.88,0.37-1.64,0.91-2.17c1.24-1.21,3.46-1.27,6.21,0.45c0.19,0.13,0.45,0.09,0.59-0.1c0.13-0.19,0.09-0.45-0.1-0.59
		c-2.35-1.84-4.52-2.25-6.15-1.81c-2.27,0.61-3.64,2.87-3.3,5.76c0.11,0.97,0.43,2.02,0.99,3.08c0.64,1.21,1.61,2.45,2.94,3.62
		c1.24,1.1,2.81,2.16,4.74,3.09c1.51,0.73,3.24,1.39,5.2,1.95c0.22,0.07,0.46-0.04,0.53-0.26C167.72,136,167.6,135.76,167.38,135.68
		z"/>
	<path class="st4" d="M152.17,147.24l-8.21,6.91c-0.22,0.19-0.35,0.45-0.37,0.73c-0.02,0.28,0.08,0.55,0.28,0.77
		c0.21,0.22,0.49,0.35,0.8,0.35c0.03,0,0.06,0,0.09,0c0.23-0.02,0.45-0.11,0.61-0.26l8.22-6.92c0.22-0.19,0.35-0.45,0.37-0.73
		c0.02-0.28-0.08-0.55-0.27-0.76C153.28,146.91,152.6,146.87,152.17,147.24z"/>
	<path class="st4" d="M109.57,105.08l12.74,6.11c-0.65,0.31-1.23,0.82-1.59,1.51c-0.86,1.62-0.26,3.56,1.36,4.34
		c1.61,0.77,3.61,0.08,4.47-1.54c0.76-1.44,0.36-3.13-0.85-4.03c-0.03-0.22-0.16-0.42-0.38-0.53l-9.23-4.43
		c1.68-1.24,3.41-2.21,3.87-2.13c0.35,0.09,0.73-0.09,0.9-0.41c0.02-0.04,0.04-0.09,0.06-0.14c0.12-0.4-0.11-0.8-0.51-0.91
		c-1.46-0.36-4.51,1.85-5.76,2.82c-0.02,0.01-0.03,0.04-0.04,0.06l-3.15-1.51c2.41-1.54,5.08-2.83,5.92-2.56
		c0.39,0.13,0.82-0.08,0.98-0.48c0.15-0.39-0.04-0.82-0.43-0.95c-2.17-0.72-7.38,2.79-8.4,3.5c-0.22,0.16-0.36,0.41-0.34,0.68
		C109.18,104.73,109.34,104.97,109.57,105.08z"/>
	<path class="st4" d="M103.85,174.01c0.28,0.08,0.58-0.06,0.65-0.32c0.42-1.45-2.26-4.71-2.8-5.34c-0.12-0.14-0.3-0.22-0.49-0.2
		c-0.18,0.02-0.34,0.13-0.41,0.29L97,177c-0.25-0.42-0.63-0.77-1.13-0.98c-1.18-0.5-2.52-0.03-3,1.06
		c-0.48,1.08,0.09,2.36,1.26,2.86c1.05,0.44,2.22,0.11,2.81-0.72c0.16-0.03,0.29-0.12,0.36-0.27l2.75-6.2
		c0.94,1.05,1.69,2.14,1.66,2.44c-0.05,0.23,0.09,0.47,0.32,0.57c0.03,0.01,0.07,0.02,0.1,0.03c0.29,0.06,0.56-0.1,0.62-0.37
		c0.2-0.97-1.48-2.87-2.22-3.64c-0.01-0.01-0.03-0.02-0.04-0.03l0.94-2.12c1.18,1.51,2.2,3.21,2.04,3.76
		C103.4,173.65,103.57,173.93,103.85,174.01z"/>
	<path class="st4" d="M76.12,134.54c1.21,0.14,2.32-0.53,2.67-1.55c0.15-0.07,0.26-0.21,0.28-0.38l0.92-7.09
		c1.29,0.79,2.39,1.68,2.45,1.99c0.02,0.26,0.24,0.45,0.5,0.48c0.04,0,0.08,0,0.12,0c0.31-0.01,0.55-0.27,0.53-0.55
		c-0.1-1.04-2.41-2.48-3.4-3.05c-0.02-0.01-0.04-0.01-0.05-0.02l0.32-2.42c1.68,1.19,3.25,2.61,3.25,3.21
		c0,0.29,0.25,0.52,0.58,0.52c0.31,0,0.57-0.23,0.57-0.52c-0.02-1.59-3.77-4.11-4.53-4.6c-0.16-0.11-0.38-0.13-0.56-0.06
		c-0.19,0.07-0.32,0.23-0.34,0.41l-1.27,9.79c-0.38-0.35-0.88-0.6-1.46-0.66c-1.36-0.16-2.6,0.71-2.76,1.95
		C73.78,133.24,74.76,134.37,76.12,134.54z"/>
	<path class="st4" d="M38.48,208.4c0.38,0.03,0.67-0.18,0.69-0.47c0.08-1.6-4.16-4.5-5.01-5.07c-0.18-0.12-0.43-0.16-0.65-0.11
		c-0.22,0.06-0.37,0.2-0.41,0.38l-1.98,9.75c-0.43-0.38-0.99-0.68-1.65-0.81c-1.57-0.29-3.05,0.47-3.3,1.7
		c-0.25,1.23,0.82,2.47,2.4,2.76c1.39,0.26,2.71-0.31,3.16-1.31c0.18-0.07,0.32-0.19,0.35-0.35l1.86-9.18l0.29-1.42
		c1.88,1.36,3.63,2.94,3.6,3.55C37.82,208.11,38.11,208.36,38.48,208.4z"/>
	<path class="st4" d="M67.15,166.5c1.62,0.72,3.41,0.38,4.25-0.71c0.24-0.03,0.45-0.15,0.54-0.34l5.03-10.83l0.78-1.68
		c1.89,2.21,3.55,4.67,3.33,5.41c-0.1,0.36,0.17,0.76,0.61,0.91c0.43,0.14,0.87-0.03,0.97-0.39c0.56-1.96-3.72-6.75-4.59-7.69
		c-0.19-0.21-0.47-0.33-0.76-0.32c-0.28,0-0.52,0.14-0.62,0.35l-5.34,11.5c-0.4-0.6-1-1.12-1.78-1.47
		c-1.83-0.81-3.86-0.28-4.54,1.17C64.38,163.86,65.32,165.69,67.15,166.5z"/>
	<path class="st4" d="M26.45,177.69c0.59,0.08,1.18,0.06,1.76-0.05c0.61-0.12,1.25-0.36,1.88-0.7c0.62-0.33,1.28-0.79,1.97-1.36
		l11.37-9.43l-3.74-1.54l-6.93,5.93l-0.92-9.18L28,159.78l1.45,13.39c-0.41,0.35-0.78,0.63-1.11,0.83c-0.36,0.21-0.69,0.36-1,0.43
		c-0.3,0.07-0.59,0.1-0.88,0.05c-0.3-0.04-0.62-0.13-0.96-0.27c-0.22-0.09-0.46-0.21-0.71-0.34c-0.24-0.14-0.5-0.3-0.77-0.49
		l-0.29-0.21l-1.3,2.88l0.19,0.13c0.25,0.18,0.54,0.35,0.86,0.52c0.31,0.16,0.6,0.29,0.87,0.41c0.69,0.28,1.35,0.47,1.97,0.57
		C26.36,177.67,26.4,177.68,26.45,177.69z"/>
	<polygon class="st4" points="51.87,135.8 57.55,129.58 57.52,135.83 60.92,135.84 60.95,129.6 66.57,135.87 70.96,135.89 
		64,128.15 70.48,120.61 66.22,120.59 60.96,126.81 61,120.57 57.6,120.55 57.56,126.8 52.37,120.53 48.11,120.5 54.52,128.1 
		47.48,135.78 	"/>
	<path class="st4" d="M70.55,198.35l3.37-1.98l-15.39-10.91l-2.79,1.64l3.34,17.99l3.39-1.99l-0.88-4.41l5.19-3.06L70.55,198.35z
		 M60.98,195.45l-0.23-1.14c-0.2-1.06-0.48-2.33-0.83-3.78c1.23,0.96,2.27,1.75,3.17,2.4l0.97,0.71L60.98,195.45z"/>
	<path class="st4" d="M115.37,205.7c0.77-1,1.2-2.01,1.25-3.03c0.05-1.01-0.22-1.97-0.79-2.87c-0.45-0.7-1.01-1.24-1.64-1.62
		c-0.65-0.38-1.39-0.59-2.23-0.62c-0.82-0.03-1.73,0.12-2.73,0.44c-0.98,0.32-2.07,0.83-3.24,1.51c-0.47,0.28-0.98,0.6-1.52,0.97
		l-1.82-2.8l7.48-4.4l-1.69-2.61l-10.66,6.27l9.37,14.45l4.03-2.37c1.04-0.61,1.9-1.18,2.57-1.72
		C114.42,206.77,114.97,206.22,115.37,205.7z M112.5,204.03c-0.27,0.38-0.64,0.76-1.13,1.15c-0.49,0.38-1.06,0.77-1.71,1.16
		l-1.03,0.6l-2.46-3.8c0.47-0.33,0.94-0.64,1.38-0.9c1.39-0.82,2.51-1.25,3.32-1.3c0.77-0.04,1.32,0.24,1.71,0.83
		c0.25,0.39,0.36,0.77,0.34,1.14C112.9,203.29,112.76,203.66,112.5,204.03z"/>
	<path class="st4" d="M46.6,153.35c0.02,0,0.04,0,0.06,0c0.07,0,0.14-0.01,0.18-0.02l8.14-1.4c0.29-0.05,0.54-0.22,0.7-0.45
		c0.16-0.23,0.21-0.5,0.16-0.77c-0.1-0.57-0.67-0.95-1.25-0.84l-8.13,1.4c0,0,0,0,0,0c-0.29,0.05-0.54,0.21-0.7,0.45
		c-0.16,0.23-0.22,0.5-0.17,0.77C45.69,152.97,46.1,153.32,46.6,153.35z"/>
	<path class="st4" d="M79.27,146.68c0.15-0.24,0.2-0.52,0.14-0.79c-0.13-0.57-0.7-0.92-1.27-0.79l-16.51,3.49c0,0,0,0,0,0
		c-0.28,0.06-0.53,0.24-0.68,0.48c-0.15,0.23-0.19,0.51-0.13,0.77c0.1,0.47,0.54,0.82,1.04,0.83c0.1,0,0.19-0.01,0.23-0.03
		l16.49-3.49C78.87,147.09,79.12,146.92,79.27,146.68z"/>
	<path class="st4" d="M93.27,192.01c0.22,0,0.43-0.06,0.62-0.19l21.51-14.85c0.24-0.16,0.4-0.4,0.45-0.68
		c0.05-0.28-0.02-0.57-0.2-0.8c-0.35-0.45-1-0.56-1.48-0.24c0,0,0,0-0.01,0l-21.52,14.85c-0.24,0.17-0.4,0.42-0.44,0.7
		c-0.04,0.28,0.03,0.55,0.2,0.79C92.61,191.86,92.93,191.99,93.27,192.01z M93.6,191.41L93.6,191.41L93.6,191.41L93.6,191.41z"/>
	<path class="st4" d="M88.43,195.33c0.04-0.28-0.03-0.56-0.2-0.79c-0.36-0.45-1-0.55-1.48-0.22c0,0,0,0,0,0l-27.67,19.2
		c-0.24,0.17-0.4,0.42-0.44,0.7c-0.04,0.28,0.03,0.55,0.21,0.79c0.21,0.26,0.52,0.41,0.85,0.41c0,0,0.01,0,0.01,0
		c0.22,0,0.43-0.07,0.62-0.2l27.67-19.2C88.23,195.86,88.38,195.62,88.43,195.33z"/>
	<path class="st4" d="M54.68,216.14C54.67,216.14,54.67,216.14,54.68,216.14l-16.55,11.02c-0.24,0.16-0.4,0.4-0.45,0.68
		c-0.05,0.28,0.02,0.56,0.19,0.79c0.2,0.27,0.53,0.43,0.87,0.43c0.01,0,0.02,0,0.03,0c0.2-0.01,0.4-0.07,0.58-0.18l16.54-11.02
		c0.24-0.16,0.41-0.41,0.46-0.69c0.05-0.28-0.02-0.56-0.19-0.79C55.81,215.94,55.16,215.83,54.68,216.14z"/>
	<path class="st4" d="M27.3,196.19l41.07-18.04c0.26-0.12,0.46-0.33,0.56-0.6c0.1-0.26,0.08-0.54-0.03-0.8c0,0,0-0.01,0-0.01
		c-0.25-0.51-0.89-0.74-1.41-0.5l-41.06,18.03c-0.27,0.12-0.47,0.33-0.58,0.6c-0.1,0.26-0.09,0.55,0.04,0.82
		c0.18,0.36,0.55,0.59,0.96,0.59C27.01,196.29,27.15,196.26,27.3,196.19z"/>
	<path class="st4" d="M74.84,174.64c0.15,0,0.29-0.03,0.43-0.09l19.57-8.29c0.27-0.11,0.48-0.33,0.58-0.59
		c0.1-0.26,0.09-0.55-0.03-0.8c-0.25-0.52-0.87-0.74-1.41-0.52c0,0,0,0,0,0l-19.57,8.29c-0.27,0.11-0.47,0.32-0.58,0.59
		c-0.1,0.26-0.09,0.54,0.03,0.81C74.04,174.39,74.42,174.63,74.84,174.64z"/>
	<path class="st4" d="M116.16,156.26c0.1-0.27,0.08-0.55-0.05-0.82c-0.26-0.5-0.89-0.71-1.41-0.48c0,0,0,0,0,0l-14.98,6.86
		c-0.26,0.12-0.46,0.34-0.55,0.61c-0.09,0.26-0.08,0.55,0.05,0.81c0.18,0.36,0.55,0.58,0.96,0.58c0.16,0,0.32-0.04,0.46-0.1
		l14.97-6.86C115.86,156.74,116.06,156.53,116.16,156.26z"/>
	<path class="st4" d="M84.49,144.43c-0.15,0.24-0.2,0.51-0.14,0.77c0.1,0.48,0.54,0.83,1.05,0.83c0.09,0,0.18-0.01,0.22-0.03
		l21.09-4.27c0.29-0.06,0.54-0.24,0.69-0.48c0.15-0.23,0.19-0.51,0.13-0.77c-0.06-0.27-0.23-0.5-0.47-0.66
		c-0.24-0.15-0.53-0.2-0.8-0.14l-21.09,4.27C84.9,144.01,84.64,144.19,84.49,144.43z"/>
	<path class="st4" d="M90.42,131.19C90.42,131.19,90.42,131.19,90.42,131.19c0.02,0,0.03,0,0.03,0l31.4-0.58
		c0.59-0.01,1.07-0.49,1.05-1.07c-0.01-0.57-0.48-1.03-1.09-1.03l-31.41,0.58c-0.59,0.01-1.06,0.49-1.05,1.06
		C89.36,130.72,89.84,131.18,90.42,131.19z"/>
	<path class="st4" d="M98.95,218.2c-0.13-0.18-0.33-0.3-0.57-0.3l-9.89,0.09c0.86-1.78,1.89-3.34,2.31-3.47
		c0.34-0.07,0.58-0.38,0.57-0.73c0-0.04-0.01-0.09-0.02-0.14c-0.08-0.4-0.47-0.66-0.86-0.57c-1.4,0.29-2.98,3.49-3.59,4.85
		c-0.01,0.02-0.01,0.04-0.02,0.07l-3.38,0.03c1.34-2.35,3.02-4.59,3.85-4.7c0.39-0.06,0.66-0.42,0.61-0.83
		c-0.05-0.4-0.42-0.68-0.81-0.63c-2.18,0.3-4.98,5.52-5.53,6.56c-0.11,0.23-0.11,0.51,0.02,0.73c0.13,0.22,0.36,0.35,0.62,0.35
		l13.66-0.12c-0.41,0.55-0.66,1.23-0.66,1.97c0.02,1.76,1.43,3.18,3.15,3.16c1.73-0.02,3.11-1.45,3.1-3.22
		C101.53,219.74,100.41,218.46,98.95,218.2z"/>
</g>
</svg>
