<?xml version="1.0" encoding="utf-8"?>
<!-- Generator: Adobe Illustrator 22.1.0, SVG Export Plug-In . SVG Version: 6.00 Build 0)  -->
<svg version="1.1" id="Слой_3" xmlns="http://www.w3.org/2000/svg" xmlns:xlink="http://www.w3.org/1999/xlink" x="0px" y="0px"
	 viewBox="0 0 512 512" style="enable-background:new 0 0 512 512;" xml:space="preserve">
<style type="text/css">
	.st0{fill:#857154;stroke:#000000;stroke-width:2;stroke-linecap:round;stroke-linejoin:round;stroke-miterlimit:10;}
	.st1{fill:#817870;stroke:#000000;stroke-width:2;stroke-linecap:round;stroke-linejoin:round;stroke-miterlimit:10;}
	.st2{fill:#FDCD95;stroke:#000000;stroke-width:2;stroke-linecap:round;stroke-linejoin:round;stroke-miterlimit:10;}
	.st3{fill:none;stroke:#000000;stroke-width:2;stroke-linecap:round;stroke-linejoin:round;stroke-miterlimit:10;}
	.st4{fill:#B5D758;stroke:#000000;stroke-width:2;stroke-linecap:round;stroke-linejoin:round;stroke-miterlimit:10;}
	.st5{fill:none;stroke:#000000;stroke-width:9;stroke-linecap:round;stroke-linejoin:round;stroke-miterlimit:10;}
</style>
<path class="st0" d="M446.1,264.5c0,0,10-19.9,12.3-27.6c2.3-7.6,6.6-17,12.3-9.3c5.3,7,3.4,15.8,0.8,27c-0.6,2.4-0.7,4.8-0.6,7.3
	c0.3,4.1,0.3,9.5,0,11.4c-0.4,3.1-9.3,17.3-25,4V264.5z"/>
<path class="st1" d="M308.7,258.3c0,0,37.3-19.9,49.3-13.2c12,6.7,33.7,17,33.7,17l35,2.4l8.5-4.8c0,0-61.5-47.8-83.5-43.3
	c-17.6,3.6-71,23.7-71,23.7l10.9,20.8c0,0,9.9,12,10.4,10.4C302.4,269.7,308.7,258.3,308.7,258.3z"/>
<path class="st1" d="M273.7,251.4l-2,29.2c0,0,20,3.6,44.3,1s134-1.3,134-1.3s3-9.3-0.3-19.4l-178-14L273.7,251.4z"/>
<path class="st2" d="M126.6,260.4c0,0,7.1,7,14.8,9.3c0,0,9.3-16,9.3-16.5s-10.3-2.6-10.3-4.8s-4.5-1.4-4.5-1.4l-8.4,9.6
	L126.6,260.4z"/>
<path class="st2" d="M77.1,221c0,0,23.3-1,25.7-1.3c2.3-0.3,12.7-6.3,15.3-4s2.3,3.7,9.7,5.3c6.8,1.6,27.1,5.7,16.9,22.2
	c-1.4,2.3-3.2,4.3-5.2,6c-4.5,3.9-13,12.2-18.3,14.9c-1.3,0.7-2.6,1.4-3.9,2.2c-5,3.3-17.4,10.1-21-2.1c-0.7-2.4-13.1-1.4-11-2.8
	c0.1,0,7.4-9.4,1.8-7.9c0,0,7.1-15.1-7.3-13.3l-2.7-8.9V221z"/>
<path class="st3" d="M129.4,221.4c0,0,3.9,5.2,0,12"/>
<path class="st3" d="M106.2,224c0,0-4.1,7.4,1,12.4c0,0,0.8,3.3,0,4.8"/>
<path class="st3" d="M96.6,227.4c0,0-2.4,7.5,3,12.9"/>
<path class="st3" d="M119.7,257.9c0,0,1.1,4.1-2.5,8.4"/>
<path class="st0" d="M84.9,236c0,0,4-21.9-7.1-18.8s-23.5,9.6-23,29.9s18.4,34,39.9,37.8c17.6,3.1,26-1.6,29.8-5.1
	c3.8-3.5,8.5-9.8,9.1-12.3s-6.9-7.1-6.9-7.1s-25.6,21.5-30.4,3.8c0,0-1.3-6.2,3.4-7c0,0,3.1-10.1-7.8-6.3
	C91.9,251,97.7,235.1,84.9,236z"/>
<path class="st4" d="M269.8,240.2c0,0-110.4-5.6-124.9,16.6c0,0-9.8,16.5,0,23.3s47,8.5,68.3,3.5s65.5-1.5,65.5-1.5l2-32.8
	L269.8,240.2z"/>
<path class="st2" d="M268.4,244.6c0,0,5.1-9.6,11.6-10.9s18.9-0.4,20.1,0.6s3.8,3-0.6,3.3c0,0,6.3,3.6-3.1,3.4c0,0-7.4,9.6-17.1,8.6
	s-9.8-1-9.8-1L268.4,244.6z"/>
<path class="st3" d="M286.9,241.4c0,0,5.5-2.3,9.5-0.4"/>
<path class="st4" d="M272.2,240c0,0-44.7,17.9-51.7,17.9s-72.4,0-73.1,13.3c-0.7,14.5,27.1,10.4,60.1,7.9s78-27.5,76-30.3
	C279.7,243.7,272.2,240,272.2,240z"/>
<path class="st3" d="M288.2,236.4c0,0,5.8-0.3,11.3,1.3"/>
<line class="st5" x1="14.3" y1="296.8" x2="497.7" y2="296.8"/>
</svg>
