<?xml version="1.0" encoding="utf-8"?>
<!-- Generator: Adobe Illustrator 22.1.0, SVG Export Plug-In . SVG Version: 6.00 Build 0)  -->
<svg version="1.1" id="Слой_4" xmlns="http://www.w3.org/2000/svg" xmlns:xlink="http://www.w3.org/1999/xlink" x="0px" y="0px"
	 viewBox="0 0 512 512" style="enable-background:new 0 0 512 512;" xml:space="preserve">
<style type="text/css">
	.st0{fill:#B2B2B2;stroke:#000000;stroke-width:3.0569;stroke-linecap:round;stroke-linejoin:round;stroke-miterlimit:10;}
	.st1{fill:#FCE0C5;stroke:#000000;stroke-width:3;stroke-linecap:round;stroke-linejoin:round;stroke-miterlimit:10;}
	.st2{fill:none;stroke:#000000;stroke-width:3;stroke-linecap:round;stroke-linejoin:round;stroke-miterlimit:10;}
	.st3{fill:#A80206;stroke:#000000;stroke-width:2;stroke-linecap:round;stroke-linejoin:round;stroke-miterlimit:10;}
	.st4{fill:none;stroke:#000000;stroke-width:2;stroke-linecap:round;stroke-linejoin:round;stroke-miterlimit:10;}
	.st5{fill:none;stroke:#A80206;stroke-width:2;stroke-linecap:round;stroke-linejoin:round;stroke-miterlimit:10;}
</style>
<g>
	<path class="st0" d="M432.4,69c-1.9-6.8-8.1-11.2-14.8-11.2c-1.8,0-3.6,0.3-5.4,1l-174.1,65.5l182.5-36.1
		C429.4,86.6,434.8,77.7,432.4,69z M422.3,77.6l-28.8,8.2c-2.9,0.8-6-0.9-6.8-3.8c-0.8-2.9,0.9-6,3.8-6.8l28.9-8.2
		c2.9-0.8,6,0.9,6.8,3.8c0.1,0.5,0.2,1,0.2,1.5C426.3,74.7,424.8,76.9,422.3,77.6z"/>
	<g>
		<path class="st1" d="M88.5,428c-9-6.7-12-18.8-7.2-29c6.1-13.1,12-35.1,6.8-67.3c-9.3-56.9-7.4-84.1,23.8-97.7
			c0,0,14.2-29.9,24.8-24.1c0,0,3.7-66.8,43.3-17.2c0,0,1.6-112.8,26.9-94.6c0,0,13.8,0.2,14.3,76.8c0.5,76.7,7.4,86.7,7.4,86.7
			s63.1-61.2,84-47.4c0,0,12.5,10.2-10.8,22.9c-9.1,4.9-16.9,11.8-23.2,20c-4.7,6.1-10.1,14.2-15.5,24.4
			c-15.7,29.7-28.6,43.1-39.5,53.6c-9.5,9.2-43.3,63.2-45.8,102.1c-0.6,9.6-8.6,17.1-18.2,16.8C142.5,453.5,116.3,448.5,88.5,428z"
			/>
		<path class="st2" d="M175.8,239.2c0,0,4-24.1,4.1-46.5"/>
		<path class="st2" d="M239.5,284.2c0,0-8.2-11.8-11-22.5"/>
		<path class="st2" d="M132.1,252c0.9-1.3,4.5-26.5,5-47.3"/>
		<path class="st2" d="M99.4,258.2c4.4-3,16.1-31.1,16.1-31.1"/>
		<path class="st2" d="M167.7,195.4c0,0,11.7,12.9,11.1,19.3"/>
	</g>
	<path class="st3" d="M209.8,120.1l-1.6,14.5c-0.7,6.4,5.8,11.2,11.8,8.6l0,0c5.9-2.6,6.8-10.7,1.6-14.5L209.8,120.1z"/>
	<line class="st4" x1="235.9" y1="110.3" x2="260.9" y2="86.1"/>
	<line class="st4" x1="228.6" y1="108.3" x2="233.6" y2="76.4"/>
	<line class="st5" x1="194.2" y1="111.9" x2="177.1" y2="81.5"/>
	<line class="st5" x1="190.4" y1="118.4" x2="160.9" y2="105.5"/>
	<line class="st5" x1="190" y1="126" x2="157.9" y2="128.7"/>
	<line class="st4" x1="240.8" y1="136" x2="275.5" y2="138.8"/>
	<line class="st4" x1="236.4" y1="142.2" x2="260.5" y2="163.6"/>
</g>
</svg>
