<?xml version="1.0" encoding="utf-8"?>
<!-- Generator: Adobe Illustrator 22.1.0, SVG Export Plug-In . SVG Version: 6.00 Build 0)  -->
<svg version="1.1" id="Слой_3" xmlns="http://www.w3.org/2000/svg" xmlns:xlink="http://www.w3.org/1999/xlink" x="0px" y="0px"
	 viewBox="0 0 512 512" style="enable-background:new 0 0 512 512;" xml:space="preserve">
<style type="text/css">
	.st0{fill:none;stroke:#000000;stroke-width:8;stroke-linecap:round;stroke-linejoin:round;stroke-miterlimit:10;}
	.st1{fill:#2E7553;stroke:#000000;stroke-width:2.963;stroke-linecap:round;stroke-linejoin:round;stroke-miterlimit:10;}
	.st2{fill:#42996D;stroke:#000000;stroke-width:2.963;stroke-linecap:round;stroke-linejoin:round;stroke-miterlimit:10;}
</style>
<g>
	<line class="st0" x1="32" y1="353.7" x2="480" y2="353.7"/>
	<path class="st1" d="M344.2,410.6c-76.3,19.5-129.7,11.4-161.5,0.9c-19.3-20.6-31.2-48.5-31.2-79.3c0-63.1,49.9-114.3,111.5-114.3
		c61.6,0,111.5,51.2,111.5,114.3C374.6,362.5,363,390.1,344.2,410.6z"/>
	<ellipse class="st2" cx="209" cy="324" rx="52.3" ry="55"/>
	<path class="st1" d="M170,269c0,0,15.8-27.1,39-36.9c0,0-39.7-71.1,0-81.7s143.7-32,139,9.3s-13.4,48-31.1,72.4
		c-17.6,24.3,27.3,61.2,43.5,44.4c0,0,62.5-108.4,27.5-159.4c-20.7-30.2-56.7-30.7-133.3-24s-116,40.7-106.7,94S172.3,265.3,170,269
		z"/>
	<g>
		<path d="M206.3,335.6c0,2.4-3.5,4.2-5.5,4.2c-2.8,0-5.3-1.5-8.8-4.1c-1.2-0.9-5.6-5.1-8.8-8.6v2.1c0,6.4,1.6,9.6,1.6,10.1
			c0,1.4-1.6,2-2.4,2c-2.4,0-4.6-2.5-4.6-19.5c0-5.1,0.2-10.7,0.9-16c-0.2-0.4-0.2-0.8-0.2-0.9c0-2,1.2-3,2.9-3
			c1.3,0,4.3,1.8,4.3,3.3c0,0.7-0.2,1-1,1.4c-0.4,0.2-0.4,0.4-0.6,1.8c-0.4,4.2-0.7,5.6-0.8,9.6c4.2-4.8,9-9.4,13.4-13.4
			c1.6-1.5,2.5-2,4.1-2c0.3,0,0.8,0.1,1.3,0.3c0.9,0.9,1.5,3,1.5,3.7c0,1.1-0.7,1.5-1.8,1.5c-0.4,0-0.9-0.1-1.3-0.4
			c-1.3,0.3-9.2,7.8-14.8,14.4c1.8,2.6,5.9,6.6,8,8.6c3.2,3,5.2,4.6,6.8,4.6c1.9,0,2.1-1.8,3.9-1.8
			C205.7,333.6,206.3,334.2,206.3,335.6z"/>
		<path d="M218.8,326.3c0,4,0.7,8.4,2.1,11.7c0.1,0.1,0.1,0.2,0.1,0.5c0,0.8-0.9,1.2-2.7,1.2h-0.5c-1.9,0-3-1.5-3.4-4.5
			c-0.4-3.1-0.7-7.9-0.7-12.3c0-4.1,0.2-8.5,0.7-12.9c0-0.5-0.2-1.8-0.2-2.2c0-1.6,0.9-2.6,2.8-3c6.3-1,13.9-2.6,16.8-2.6
			c2.5,0,4.5,1.1,4.5,2.7c0,1.4-0.9,2-2.7,2c-0.4,0-1.6-0.2-2-0.2c-2.9,0-8.1,1.2-12,1.8c-0.6,0.2-1.2,0.3-1.5,1.2
			C219.2,312,218.8,320.5,218.8,326.3z"/>
	</g>
</g>
</svg>
