<?xml version="1.0" encoding="utf-8"?>
<!-- Generator: Adobe Illustrator 22.1.0, SVG Export Plug-In . SVG Version: 6.00 Build 0)  -->
<svg version="1.1" id="Слой_4" xmlns="http://www.w3.org/2000/svg" xmlns:xlink="http://www.w3.org/1999/xlink" x="0px" y="0px"
	 viewBox="0 0 512 512" style="enable-background:new 0 0 512 512;" xml:space="preserve">
<style type="text/css">
	.st0{fill:#315164;stroke:#000000;stroke-width:3;stroke-linecap:round;stroke-linejoin:round;stroke-miterlimit:10;}
	.st1{fill:#FFF35C;stroke:#000000;stroke-width:3;stroke-linecap:round;stroke-linejoin:round;stroke-miterlimit:10;}
	.st2{fill:#EB8F30;stroke:#000000;stroke-width:3;stroke-linecap:round;stroke-linejoin:round;stroke-miterlimit:10;}
	.st3{fill:#816164;stroke:#000000;stroke-width:3;stroke-linecap:round;stroke-linejoin:round;stroke-miterlimit:10;}
	.st4{fill:#D2EFFC;stroke:#000000;stroke-width:3;stroke-linecap:round;stroke-linejoin:round;stroke-miterlimit:10;}
	.st5{fill:#FDCD95;stroke:#000000;stroke-width:2.6671;stroke-linecap:round;stroke-linejoin:round;stroke-miterlimit:10;}
	.st6{fill:#FDCD95;stroke:#000000;stroke-width:3;stroke-linecap:round;stroke-linejoin:round;stroke-miterlimit:10;}
	.st7{fill:#664C42;stroke:#000000;stroke-width:3;stroke-linecap:round;stroke-linejoin:round;stroke-miterlimit:10;}
	.st8{fill:#FDDD95;stroke:#000000;stroke-width:3;stroke-linecap:round;stroke-linejoin:round;stroke-miterlimit:10;}
</style>
<path class="st0" d="M252.5,93.5v149.8l-139-48.1C132.2,136.3,187.3,93.5,252.5,93.5z"/>
<path class="st1" d="M391.5,195.2l-139,48.1V93.5C317.6,93.5,372.8,136.3,391.5,195.2z"/>
<path class="st2" d="M398.2,239.3c0,47.2-22.4,89.1-57.1,115.7l-88.7-111.6l139-48.1C395.9,209.1,398.2,223.9,398.2,239.3z"/>
<path class="st3" d="M341.1,355c-24.6,18.8-55.3,30-88.7,30c-32,0-61.6-10.3-85.6-27.8l85.6-113.9L341.1,355z"/>
<path class="st4" d="M252.5,243.4l-85.6,113.9c-36.5-26.5-60.2-69.5-60.2-118c0-15.4,2.4-30.1,6.8-44L252.5,243.4z"/>
<path class="st5" d="M247.5,495.4c-0.4-3.1-1.8-8-6.8-12.8c-2.8-2.6-5.3-5.5-7.5-8.6c-3-4.4-6.9-9.9-8.9-12.4
	c-3.6-4.4-16.9-17.8-8-20.7c0,0,5.2-2.7,13.8,9.6c8.6,12.2,10.4,3.3,10.4,0.7c0-2.5-10-53.3,0.1-51.2c1.3,0.3,2.4,1.4,2.7,2.7
	l8.9,31.1c0,0-2-43.6,4.2-40.5c6.2,3.1,5.6,32,5.8,39.8c0,0,15.1-47.1,15.8-30.4c0.7,16.7-4.4,35.1-4.4,35.1s15.3-25.8,18-21.6
	c0,0,1.9,4.6-9.2,29.9c-0.4,0.9-0.7,1.8-0.9,2.8c-1.7,7.6-7.7,42.7-8.3,47.1c-0.4,3.1-14.4,3.3-21.8,2.9
	C249.4,498.9,247.7,497.4,247.5,495.4z"/>
<path class="st6" d="M74.2,25.7c3,1.9,8.3,4,16.1,3c4.3-0.6,8.5-0.8,12.8-0.6c6,0.4,13.5,0.8,17.1,0.8c6.4,0,27.5-2.4,23.8,7.4
	c0,0-1.3,6.4-18.1,5.5s-10.2,6.8-7.9,8.7c2.2,1.8,53.9,28.5,44.9,36c-1.2,1-2.9,1.1-4.3,0.5l-33.6-14c0,0,39.7,28.7,32.7,32
	c-7.1,3.3-32.1-17.5-39.1-22.8c0,0,30.9,46.3,15.8,35.2C119.3,106.4,106.7,89,106.7,89s12,31.6,6.4,30.9c0,0-5.4-1.5-19.9-29
	c-0.5-1-1.1-1.9-1.8-2.8c-5.5-6.9-32.2-36.7-35.6-40.3c-2.4-2.6,7.2-14.9,12.7-21.2C69.9,24.9,72.3,24.5,74.2,25.7z"/>
<path class="st7" d="M4.5,337.2c3-1.8,7.4-5.5,10-12.9c1.5-4,3.2-8,5.4-11.6c3.1-5.1,7-11.6,8.6-14.8c2.9-5.7,10.5-25.5,17.6-17.7
	c0,0,5.1,4.1-3.5,18.6s1.3,12.2,4.1,11c2.6-1.1,50.2-34.6,52.6-23.3c0.3,1.5-0.3,3.1-1.5,4.1l-27.9,23.4c0,0,43.8-22,43.5-14.2
	c-0.3,7.8-30.3,20.4-38.2,24.1c0,0,55.3-6,38.5,2.3c-16.8,8.3-38.1,11.5-38.1,11.5s33.5,4,30.4,8.6c0,0-3.8,4.1-34.9,4.3
	c-1.1,0-2.2,0.1-3.3,0.3c-8.6,1.7-47.5,11.6-52.2,13c-3.4,1-9.9-13.3-13-21.1C1.8,340.7,2.5,338.3,4.5,337.2z"/>
<path class="st8" d="M440.2,30.6c-1.7,3.1-3.5,8.5-2.1,16.2c0.8,4.2,1.3,8.5,1.3,12.8c-0.1,6-0.1,13.6,0.1,17.2
	c0.4,6.4,3.9,27.3-6.1,24.2c0,0-6.5-0.9-6.4-17.8s-7.4-9.8-9.1-7.4c-1.6,2.3-25.5,55.3-33.5,46.8c-1.1-1.1-1.3-2.8-0.8-4.3L395.7,84
	c0,0-26.5,41.3-30.2,34.3c-3.7-6.9,15.7-33,20.6-40.2c0,0-44.5,33.4-34.3,17.6c10.2-15.7,26.9-29.3,26.9-29.3s-30.9,13.7-30.6,8
	c0,0,1.2-5.4,27.9-21.4c0.9-0.6,1.8-1.2,2.7-2c6.6-5.8,34.9-34.2,38.3-37.8c2.4-2.6,15.3,6.4,21.9,11.5
	C440.7,26.2,441.3,28.7,440.2,30.6z"/>
<path class="st6" d="M489.7,359.5c-3.4-1-9.1-1.8-16.3,1.2c-4,1.6-8.1,3-12.3,3.8c-5.9,1.1-13.3,2.6-16.8,3.6
	c-6.2,1.6-26,9.3-24.9-1.1c0,0-0.4-6.5,16.1-9.9c16.5-3.3,8.2-9.2,5.4-10.4c-2.6-1.1-59.3-13.9-52.6-23.4c0.9-1.3,2.5-1.8,4-1.6
	l36.1,5c0,0-45.7-17.7-39.7-22.7c6-5,35.5,8.8,43.6,12.1c0,0-41.6-36.9-24.2-30.1c17.5,6.9,34.1,20.5,34.1,20.5s-19.6-27.5-14-28.3
	c0,0,5.6,0.1,26.6,23c0.7,0.8,1.6,1.6,2.5,2.2c7,5.3,40.5,27.3,44.7,29.9c3,1.9-3.2,16.3-6.9,23.8
	C494.1,359.1,491.8,360.1,489.7,359.5z"/>
</svg>
