<?xml version="1.0" encoding="utf-8"?>
<!-- Generator: Adobe Illustrator 22.1.0, SVG Export Plug-In . SVG Version: 6.00 Build 0)  -->
<svg version="1.1" id="Слой_4" xmlns="http://www.w3.org/2000/svg" xmlns:xlink="http://www.w3.org/1999/xlink" x="0px" y="0px"
	 viewBox="0 0 512 512" style="enable-background:new 0 0 512 512;" xml:space="preserve">
<style type="text/css">
	.st0{fill:none;stroke:#000000;stroke-width:6;stroke-linecap:round;stroke-linejoin:round;stroke-miterlimit:10;}
	.st1{fill:#AAD3E5;stroke:#000000;stroke-width:2;stroke-linecap:round;stroke-linejoin:round;stroke-miterlimit:10;}
	.st2{fill:none;stroke:#A80206;stroke-width:6;stroke-linecap:round;stroke-linejoin:round;stroke-miterlimit:10;}
	.st3{fill:#FFDA5F;stroke:#000000;stroke-width:3;stroke-linecap:round;stroke-linejoin:round;stroke-miterlimit:10;}
	.st4{fill:#FFF1AB;stroke:#000000;stroke-width:3;stroke-linecap:round;stroke-linejoin:round;stroke-miterlimit:10;}
</style>
<path d="M220.9,180.5l-8.4-37.7l-9.4,7.1l-43.7-57.8c-2.1-2.8-5.6-3.7-7.9-2.1c-2.2,1.7-2.3,5.3-0.2,8.1l43.7,57.8l-8.1,6.1
	L220.9,180.5z"/>
<line class="st0" x1="257.7" y1="77.6" x2="257.7" y2="250.9"/>
<path class="st1" d="M307.1,92.3l-7.3,12.6c-3.2,5.6,0.8,12.6,7.3,12.6h0c6.5,0,10.5-7,7.3-12.6L307.1,92.3z"/>
<path class="st1" d="M291.8,150l-7.3,12.6c-3.2,5.6,0.8,12.6,7.3,12.6h0c6.5,0,10.5-7,7.3-12.6L291.8,150z"/>
<path class="st1" d="M339.1,134.3l-7.3,12.6c-3.2,5.6,0.8,12.6,7.3,12.6h0c6.5,0,10.5-7,7.3-12.6L339.1,134.3z"/>
<path class="st1" d="M315.8,207.7l-7.3,12.6c-3.2,5.6,0.8,12.6,7.3,12.6h0c6.5,0,10.5-7,7.3-12.6L315.8,207.7z"/>
<path class="st1" d="M353.4,178.3l-7.3,12.6c-3.2,5.6,0.8,12.6,7.3,12.6h0c6.5,0,10.5-7,7.3-12.6L353.4,178.3z"/>
<line class="st2" x1="385.7" y1="97.3" x2="275.6" y2="231.2"/>
<path d="M192.7,279l-8.3,111c-0.2,3.1,2,5.8,5.1,6.2l4.8,0.6c3.1,0.4,6-1.8,6.5-4.9l15.8-103.8c0.4-2.7-1.1-5.3-3.6-6.3l-17.3-6.3
	C193.4,274.5,192.9,276.4,192.7,279z"/>
<line class="st2" x1="275.6" y1="97.3" x2="385.7" y2="231.2"/>
<path class="st0" d="M114.3,268.5c0,0,144.7,38.7,283.3,0"/>
<path class="st3" d="M295.5,428.8c-1.7,0.4-3.6,0.5-5.5,0.3c0,0-29.3,1.3-36,4c-6.7,2.7-23.7,1.7-39.3-6.7
	c-15.7-8.3-23.3-6-20.7-18.3c2.7-12.3,11.7-121.4,0.3-131.1c0,0,119.8-4.4,128.7,0c0,0,1.1,18.6,0.9,42.8
	c-8.3,15.9-32.1,58.8-52.6,70.6C247.9,404,268.2,419,295.5,428.8z"/>
<path class="st4" d="M323.9,319.8c-0.4,42.9-5.2,103.4-28.4,109c-27.3-9.8-47.6-24.8-24.2-38.4C291.8,378.6,315.6,335.8,323.9,319.8
	z"/>
</svg>
