<?xml version="1.0" encoding="utf-8"?>
<!-- Generator: Adobe Illustrator 22.1.0, SVG Export Plug-In . SVG Version: 6.00 Build 0)  -->
<svg version="1.1" id="Слой_4" xmlns="http://www.w3.org/2000/svg" xmlns:xlink="http://www.w3.org/1999/xlink" x="0px" y="0px"
	 viewBox="0 0 512 512" style="enable-background:new 0 0 512 512;" xml:space="preserve">
<style type="text/css">
	.st0{fill:#C5D5F8;stroke:#000000;stroke-width:2;stroke-linecap:round;stroke-linejoin:round;stroke-miterlimit:10;}
	.st1{fill:none;stroke:#000000;stroke-width:7;stroke-linecap:round;stroke-linejoin:round;stroke-miterlimit:10;}
	.st2{fill:none;stroke:#000000;stroke-width:3;stroke-linecap:round;stroke-linejoin:round;}
	.st3{fill:none;stroke:#000000;stroke-width:3;stroke-linecap:round;stroke-linejoin:round;stroke-dasharray:12.6491,12.6491;}
</style>
<path class="st0" d="M155.3,361.2c0,0-67.8,1.7-70.3,75.4c0,0,30.7,22.6,96.7-11c3.3-1.7,6.9-2.6,10.5-2.6
	c14.3-0.1,52.1-1.5,64.9-11c16-11.9,38.9-7,45.6-9.4c6.1-2.2,28.7-17.6,37.5-32.4c2.1-3.5,4.9-6.6,8.2-9.1l0,0v5.2
	c0,0,12.3-10.3,12.7-15c0.3-4.7-6.7,24.7-8.7,27.7s36-33,35-65c0,0,4,7,4,9.3s6-19.3,4.3-26.3c-1.7-7,4.7,16.7,2,25.3
	c-2.7,8.7,28.7-43.3,11.3-86c0,0,5,4.3,8,13.3c0,0,5.7-20.3,0-30.7c0,0,6.3,1.3,7.3,5s-12-33.3-37.7-38c-25.7-4.7-43.7-24-43.7-24
	l0.3,5c0,0-11.3,2.7-16.3-2.7c-5-5.3,4.7,10,10,12c0,0-22.3,3.3-26.3-1.7s6.3,11,12.3,11.7c0,0-25.7,12.7-28.3,13.7
	c-2.7,1,2.7,2,2,4.7c-0.7,2.7-16.3,7.7-12.7,10.3c3.7,2.7,8.7,6.7,6.3,8s-34.4,11.3-35.7,11s9,11.7,24.7,13.3c0,0-8.7,12.3-16,13
	s9.7,4.7,9.7,4.7s-17.7,13-27.7,12s14.9,10.2,14.9,10.2s-14.3,7-27.4,2c-2.7-1-5.7-0.8-8.1,0.8c-5,3.4-13.7,8.3-19.3,6.9
	c0,0-36.3-5-49.3,14.3c0,0-14.7,0-18.7,7.7c-4,7.7-11,5.7-11,10.7s5.7,12-0.3,13.7c-6,1.7-12.3,6-12.3,6l10.7-0.7l-12.7,11
	C111.7,359.7,145.8,357,155.3,361.2z"/>
<g>
	<path d="M312.5,236.8c-2.7,3.1-5.5,6.1-8.4,9c-2.9,2.9-6,5.7-9.1,8.3c-3.2,2.6-6.3,5.3-10,7.4c-1.8,1-3.7,1.9-5.7,2.6
		c-2,0.7-4.1,1.2-6.2,1.1c-0.1,0-0.1,0-0.1-0.1c0,0,0-0.1,0.1-0.1c4-1,7.4-3.1,10.8-5.2c1.7-1.1,3.4-2.2,5.1-3.3
		c1.7-1.1,3.3-2.3,5-3.5c3.2-2.5,6.4-5.1,9.4-7.8c3.1-2.7,6.1-5.5,9-8.4c0,0,0.1,0,0.1,0C312.5,236.7,312.5,236.8,312.5,236.8z"/>
</g>
<g>
	<path d="M317.5,207.5c-2,1.7-4.1,3.2-6.2,4.8c-2.1,1.5-4.3,3-6.5,4.5c-2.2,1.4-4.4,3-6.8,4c-2.4,1.1-4.9,2-7.6,2.4
		c-0.1,0-0.1,0-0.1-0.1c0,0,0-0.1,0-0.1c2.3-1.4,4.5-2.7,6.7-4c2.2-1.3,4.6-2.4,6.9-3.6c2.3-1.2,4.5-2.6,6.7-3.9
		c2.2-1.3,4.4-2.7,6.6-4.1c0,0,0.1,0,0.1,0C317.5,207.4,317.5,207.4,317.5,207.5z"/>
</g>
<g>
	<path d="M396.5,207.4c2.7,4.6,5.2,9.2,7.5,14c1.2,2.4,2.5,4.7,3.3,7.2c0.9,2.5,1.6,5.1,1.9,7.8c0,0.1,0,0.1-0.1,0.1
		c0,0-0.1,0-0.1-0.1c-1.3-2.3-2.4-4.7-3.5-7.1c-1.1-2.4-1.9-4.9-2.9-7.3c-1-2.4-2-4.9-3.1-7.3c-1-2.4-2.1-4.8-3.2-7.3
		c0-0.1,0-0.1,0.1-0.1C396.4,207.3,396.5,207.3,396.5,207.4z"/>
</g>
<g>
	<path d="M386.2,253.4c1.2,3.5,2.3,7.1,3.4,10.7c1,3.6,2,7.2,3,10.8c0.9,3.6,1.9,7.2,2.5,11c0.6,3.7,0.9,7.5,0.9,11.2
		c0,0.1,0,0.1-0.1,0.1c0,0-0.1,0-0.1-0.1c-1-3.6-1.8-7.3-2.6-10.9c-0.8-3.6-1.3-7.3-2.1-11c-0.7-3.7-1.5-7.3-2.4-10.9
		c-0.8-3.6-1.7-7.3-2.6-10.9c0-0.1,0-0.1,0.1-0.1C386.1,253.3,386.2,253.3,386.2,253.4z"/>
</g>
<g>
	<path d="M369.5,290.1c1.1,7.5,1.6,15,1.8,22.6c0.1,7.6-0.2,15.2-1,22.7c-0.8,7.5-2.1,15.1-4.7,22.3c-2.5,7.2-6.1,14.1-11.1,19.9
		c0,0-0.1,0-0.1,0c0,0,0-0.1,0-0.1c1-1.6,2-3.2,2.9-4.9l0.7-1.2l0.6-1.3c0.4-0.8,0.8-1.7,1.2-2.5c1.5-3.4,2.8-6.9,3.9-10.5
		c2.2-7.1,3.9-14.4,5-21.9c1.1-7.4,1.5-15,1.6-22.5c0.1-7.5-0.2-15.1-1-22.6c0-0.1,0-0.1,0.1-0.1C369.4,290,369.5,290,369.5,290.1z"
		/>
</g>
<g>
	<path d="M358.5,303c0.8,1.9,1.3,3.9,1.9,5.9c0.5,2,1,4,1.4,6c0.8,4,1.4,8.1,1.9,12.2c0.2,2,0.4,4.1,0.5,6.2l0,3.1
		c0,1-0.1,2.1-0.2,3.1c-0.4,4.1-1.2,8.2-2.9,12c0,0.1-0.1,0.1-0.1,0.1c0,0-0.1-0.1-0.1-0.1c0.6-4.1,0.9-8.1,1.1-12.1
		c0.1-4,0.3-8.1,0-12.1c-0.2-4-0.6-8.1-1.2-12.1c-0.3-2-0.6-4-1-6c-0.4-2-0.8-4-1.5-5.9l0,0c0-0.1,0-0.1,0.1-0.1
		C358.4,303,358.5,303,358.5,303z"/>
</g>
<g>
	<path d="M335.8,323.1c-3,5.2-5.5,10.7-7.7,16.2c-1.1,2.8-2.1,5.6-2.9,8.5c-0.8,2.9-1.4,5.8-1.8,8.7l-0.2,2.2c-0.1,0.7,0,1.5,0,2.2
		c0,1.4,0.2,3,0.3,4.5c0.1,1.5,0.1,3,0.1,4.5c0,1.5-0.1,3-0.2,4.5c-0.2,3-0.6,6-1.2,9c-0.3,1.5-0.6,3-1,4.4
		c-0.2,0.7-0.4,1.5-0.7,2.2c-0.3,0.7-0.5,1.4-1.1,2.1c0,0-0.1,0-0.1,0c0,0,0-0.1,0-0.1l0,0c0.3-0.6,0.5-1.4,0.6-2.1
		c0.2-0.7,0.3-1.5,0.4-2.2c0.2-1.5,0.4-3,0.5-4.4c0.3-3,0.5-5.9,0.6-8.9c0.1-1.5,0.1-3,0.1-4.5c0-1.5,0-3,0-4.5
		c0-1.5-0.1-2.9-0.1-4.5c0-0.8,0-1.6,0.1-2.3l0.3-2.3c0.5-3,1.2-6,2.1-8.9c0.9-2.9,2-5.7,3.2-8.5c2.5-5.5,5.3-10.8,8.5-15.9
		c0,0,0.1-0.1,0.1,0C335.8,323,335.9,323.1,335.8,323.1z"/>
</g>
<g>
	<path d="M288.5,349.4c-1,5.1-2.1,10.3-3.4,15.4c-1.3,5.1-2.7,10.1-4.3,15.1c-1.6,5-3.3,10-5.7,14.7c-1.2,2.4-2.5,4.7-4,6.9
		c-1.5,2.2-3.2,4.2-5.3,5.9c0,0-0.1,0-0.1,0c0,0,0-0.1,0-0.1c3.3-4.1,5.5-8.8,7.7-13.5c0.5-1.2,1.1-2.4,1.6-3.6
		c0.5-1.2,1-2.4,1.5-3.6c1-2.4,2-4.8,2.9-7.3c1.8-4.9,3.4-9.9,4.9-14.9c1.5-5,2.9-10,4.1-15.1c0-0.1,0.1-0.1,0.1-0.1
		C288.5,349.3,288.5,349.4,288.5,349.4z"/>
</g>
<g>
	<path d="M211.8,377.5c-1.4,4.6-3.1,9.1-4.9,13.6c-1.9,4.4-4,8.8-6.3,13c-2.4,4.2-4.9,8.4-8,12.1c-3.2,3.7-6.8,7.1-10.9,9.6
		c0,0-0.1,0-0.1,0c0,0,0-0.1,0-0.1c3.4-3.4,6.6-6.9,9.5-10.7c2.8-3.8,5.7-7.6,8.2-11.7c2.5-4.1,4.7-8.3,6.8-12.6
		c2.1-4.3,4-8.7,5.6-13.2c0-0.1,0.1-0.1,0.1-0.1C211.8,377.4,211.9,377.4,211.8,377.5z"/>
</g>
<g>
	<path d="M161.1,343.2c-2.9-0.3-5.8-0.4-8.8-0.5c-2.9-0.1-5.8-0.1-8.8-0.1c-2.9,0.1-5.8,0.4-8.7,0.5l-8.7,0.4c-0.1,0-0.1,0-0.1-0.1
		c0,0,0-0.1,0.1-0.1c2.7-1.2,5.7-1.8,8.6-2.2c3-0.4,5.9-0.2,8.9-0.1c2.9,0.1,5.9,0.4,8.8,0.7c2.9,0.3,5.8,0.7,8.7,1.3
		c0.1,0,0.1,0.1,0.1,0.1C161.2,343.1,161.1,343.2,161.1,343.2z"/>
</g>
<g>
	<path d="M203.4,325.2c-3.6-2-7.4-3.8-11.2-5.4c-3.8-1.6-7.7-3-11.7-4.2c-4-1.2-8-1.9-12-2.7c-4-0.7-8.1-1.1-12.3-1.4
		c-0.1,0-0.1,0-0.1-0.1c0,0,0-0.1,0.1-0.1c4.1-0.9,8.4-0.9,12.6-0.4c4.2,0.5,8.3,1.8,12.2,3.1c4,1.4,7.8,3,11.6,4.8
		c3.8,1.8,7.4,3.8,10.9,6.1c0,0,0.1,0.1,0,0.1C203.5,325.2,203.4,325.2,203.4,325.2z"/>
</g>
<g>
	<path d="M244,311.3l-8.6-3.5c-2.9-1.2-5.7-2.4-8.6-3.5c-2.9-1.2-5.8-2.1-8.6-3.4l-4.2-1.9c-0.7-0.3-1.4-0.7-2.1-0.9l-1.1-0.5
		c-0.4-0.1-0.7-0.2-1.1-0.3l0,0c-0.1,0-0.1-0.1-0.1-0.1c0,0,0-0.1,0.1-0.1c0.4,0,0.8,0,1.2,0l1.2,0.2c0.8,0.1,1.5,0.3,2.3,0.5
		c1.5,0.4,3,0.9,4.5,1.4c2.9,1,5.7,2.5,8.5,3.8c2.8,1.3,5.6,2.7,8.4,4.1l8.2,4.3c0,0,0.1,0.1,0,0.1
		C244.1,311.3,244.1,311.3,244,311.3z"/>
</g>
<g>
	<path d="M341.1,261.1c-5.3,5.2-11.2,9.7-17.4,13.8c-6.2,4-12.8,7.5-19.8,10.1c-3.5,1.4-7,2.5-10.7,3.4c-1.8,0.5-3.6,0.8-5.5,1.1
		c-1.9,0.2-3.7,0.5-5.6,0.6c-7.5,0.5-15-0.4-22-2.8c-0.1,0-0.1-0.1-0.1-0.1c0,0,0.1-0.1,0.1-0.1c0.9,0.1,1.8,0.3,2.7,0.4l1.4,0.2
		l1.4,0.1l2.7,0.3l2.7,0.1c3.6,0.1,7.3,0.1,10.9-0.3c3.6-0.3,7.2-0.9,10.8-1.6c3.6-0.7,7.1-1.7,10.5-2.9c6.9-2.4,13.5-5.7,19.8-9.5
		c6.3-3.8,12.3-8.1,17.7-13.1c0,0,0.1,0,0.1,0C341.2,261,341.2,261.1,341.1,261.1z"/>
</g>
<g>
	<path d="M397.7,322.4c2.3-5,4.1-10.3,5.6-15.6c1.5-5.3,2.7-10.7,3.4-16.1c0.3-2.7,0.6-5.5,0.7-8.2c0-1.4,0.1-2.7,0-4.1
		c0-1.4,0-2.7-0.1-4.1c-0.1-2.7-0.4-5.4-0.8-8.1c-0.3-1.3-0.5-2.7-0.8-4c-0.2-1.4-0.7-2.7-1-4l0,0c0-0.1,0-0.1,0.1-0.1
		c0,0,0.1,0,0.1,0.1c0.6,1.2,1.2,2.5,1.7,3.8c0.5,1.3,0.9,2.7,1.3,4c0.7,2.7,1.2,5.5,1.4,8.3c0.1,1.4,0.2,2.8,0.2,4.2
		c0,1.4-0.1,2.8-0.1,4.2c-0.2,2.8-0.6,5.6-1.1,8.3c-0.9,5.5-2.3,10.9-4.1,16.2c-1.8,5.3-3.9,10.4-6.4,15.4c0,0-0.1,0.1-0.1,0
		C397.7,322.5,397.6,322.4,397.7,322.4z"/>
</g>
<line class="st1" x1="396.7" y1="124.7" x2="380.4" y2="182"/>
<g>
	<path d="M118.5,407.3c5.7-5.2,11.8-9.9,18.1-14.3c1.6-1.1,3.2-2.2,4.8-3.2l2.4-1.6l2.4-1.5c1.6-1,3.2-2.1,4.9-3.1l5-3
		c13.3-7.8,27.2-14.6,41.3-20.7l10.7-4.4c3.6-1.4,7.2-2.7,10.8-4l10.8-4c1.8-0.7,3.6-1.3,5.4-2l5.4-2.1
		c14.3-5.6,28.3-11.9,41.8-19.3c13.5-7.3,26.4-15.8,37.9-25.8l2.2-1.9l2.1-2l4.1-4c1.4-1.3,2.6-2.8,3.9-4.2l1.9-2.1l1-1.1l0.9-1.1
		c2.3-3,4.8-6,6.8-9.2l1.6-2.4c0.5-0.8,1.1-1.6,1.5-2.4l2.8-5c1-1.6,1.8-3.4,2.6-5.1c0.8-1.7,1.6-3.5,2.4-5.2
		c1.5-3.6,2.9-7.1,4.3-10.7c2.9-7.1,5.6-14.3,8.2-21.6c5.3-14.4,10.1-29.1,14.4-43.9c-1.9,7.5-4,14.9-6.3,22.2
		c-2.3,7.4-4.7,14.7-7.2,22c-2.5,7.3-5.2,14.5-7.9,21.7c-1.4,3.6-2.8,7.2-4.2,10.8c-0.7,1.8-1.6,3.5-2.4,5.3
		c-0.8,1.8-1.6,3.6-2.5,5.2c-7.2,13.7-17.2,25.9-28.9,36.1c-11.6,10.2-24.6,18.8-38.1,26.2c-13.6,7.4-27.7,13.6-42.1,19.2
		c-14.4,5.7-29,10.3-43.2,16.2c-14.2,5.9-28.1,12.5-41.5,20.1l-5,2.9c-1.7,1-3.3,2-4.9,3l-2.5,1.5l-2.4,1.6
		c-1.6,1.1-3.3,2.1-4.8,3.1c-3.2,2.1-6.3,4.3-9.4,6.6C124.5,402.4,121.4,404.8,118.5,407.3z"/>
</g>
<g>
	<g>
		<path class="st2" d="M151.6,50.1c0,2.2-0.1,4.2-0.3,6"/>
		<path class="st3" d="M148.2,68.3c-4.7,10.9-12.6,16.5-12.6,35.3c0,26.8,16,26.8,16,53.5c0,26.8-16,26.8-16,53.6
			c0,21.9,10.7,25.9,14.6,41.3"/>
		<path class="st2" d="M151.3,258.3c0.2,1.8,0.3,3.8,0.3,6"/>
	</g>
</g>
<g>
	<g>
		<path class="st2" d="M191.7,47.5c0,2.2-0.1,4.2-0.3,6"/>
		<path class="st3" d="M188.3,65.7c-4.7,10.9-12.6,16.5-12.6,35.3c0,26.8,16,26.8,16,53.5c0,26.8-16,26.8-16,53.6
			c0,21.9,10.7,25.9,14.6,41.3"/>
		<path class="st2" d="M191.5,255.7c0.2,1.8,0.3,3.8,0.3,6"/>
	</g>
</g>
<g>
	<g>
		<path class="st2" d="M231.9,44.9c0,2.2-0.1,4.2-0.3,6"/>
		<path class="st3" d="M228.5,63.1c-4.7,10.9-12.6,16.5-12.6,35.3c0,26.8,16,26.8,16,53.5c0,26.8-16,26.8-16,53.6
			c0,21.9,10.7,25.9,14.6,41.3"/>
		<path class="st2" d="M231.6,253.1c0.2,1.8,0.3,3.8,0.3,6"/>
	</g>
</g>
<path class="st0" d="M348.1,159.1c0,0,3.7,30.3,32.9,24c0,0,12.8,26,46.1,7.7c0,0-35.7-2.5-42.3-10.6c0,0,31.3-0.1,42.3-15.8
	c0,0-34.3,4-39.5,6.3c0,0,15.5-12.7,15.2-20.3c0,0-13.3,5-16.7,14c0,0-5-21.3,0-27.7c5-6.3-15.3,3.8-5.1,30.3
	c0,0-13.2-10.9-12.5-30.6c0,0-8,9.3-1.3,23c0,0-11-2.7-16-17.7c0,0,0,11.3,9.3,23C360.4,164.7,359.4,170.7,348.1,159.1z"/>
<g>
	<path d="M361.1,164c2,2.1,4.1,4.2,6.3,6.2c1.1,1,2.2,1.9,3.4,2.8c1.2,0.8,2.4,1.7,3.9,2.1c-1.5-0.2-2.8-0.9-4.1-1.7
		c-1.3-0.7-2.6-1.6-3.8-2.4c-2.4-1.7-4.8-3.6-7.1-5.5c-0.4-0.4-0.5-1-0.1-1.4C360,163.6,360.6,163.6,361.1,164
		C361,164,361.1,164,361.1,164L361.1,164z"/>
</g>
<g>
	<path d="M367.9,158.8c1.2,1.9,2.5,3.8,3.8,5.7c1.3,1.9,2.7,3.7,4.3,5.4c-1.8-1.4-3.5-3.1-5.1-4.7c-1.6-1.7-3.2-3.4-4.7-5.2
		c-0.4-0.4-0.3-1.1,0.1-1.4c0.4-0.4,1.1-0.3,1.4,0.1C367.8,158.7,367.9,158.8,367.9,158.8L367.9,158.8z"/>
</g>
<g>
	<path d="M386,174c3.3-0.1,6.6-0.3,9.9-0.6c3.3-0.3,6.6-0.7,9.8-1.2c3.3-0.5,6.5-1.2,9.7-2.1c3.2-0.9,6.3-2.1,9.1-4
		c-2.6,2-5.8,3.3-8.9,4.4c-3.1,1.1-6.4,1.9-9.6,2.6c-3.3,0.7-6.5,1.3-9.8,1.7c-3.3,0.5-6.6,0.9-10,1.1c-0.6,0-1-0.4-1.1-0.9
		C385,174.6,385.4,174.1,386,174C386,174,386,174,386,174L386,174z"/>
</g>
</svg>
