<?xml version="1.0" encoding="utf-8"?>
<!-- Generator: Adobe Illustrator 22.1.0, SVG Export Plug-In . SVG Version: 6.00 Build 0)  -->
<svg version="1.1" id="Слой_3" xmlns="http://www.w3.org/2000/svg" xmlns:xlink="http://www.w3.org/1999/xlink" x="0px" y="0px"
	 viewBox="0 0 512 512" style="enable-background:new 0 0 512 512;" xml:space="preserve">
<style type="text/css">
	.st0{fill:#EB8C30;stroke:#000000;stroke-width:3;stroke-linecap:round;stroke-linejoin:round;stroke-miterlimit:10;}
	.st1{fill:#934948;stroke:#000000;stroke-width:3;stroke-linecap:round;stroke-linejoin:round;stroke-miterlimit:10;}
	.st2{fill:none;stroke:#000000;stroke-linecap:round;stroke-linejoin:round;stroke-miterlimit:10;}
	.st3{fill:#C54020;stroke:#000000;stroke-width:3;stroke-linecap:round;stroke-linejoin:round;stroke-miterlimit:10;}
	.st4{fill:#E2CA50;stroke:#000000;stroke-width:3;stroke-linecap:round;stroke-linejoin:round;stroke-miterlimit:10;}
	.st5{fill:#EB8C30;stroke:#000000;stroke-linecap:round;stroke-linejoin:round;stroke-miterlimit:10;}
	.st6{fill:#E2CA50;}
	.st7{fill:#A35757;stroke:#000000;stroke-width:3;stroke-linecap:round;stroke-linejoin:round;stroke-miterlimit:10;}
	.st8{fill:#AD5151;stroke:#000000;stroke-width:3;stroke-linecap:round;stroke-linejoin:round;stroke-miterlimit:10;}
</style>
<g>
	<path class="st0" d="M338.4,346.6c0,0,28,11.7,39-17.3s3-59.3-6.3-75.7c-9.3-16.3-3.7-42,6-47.7c0,0-40.7-9.7-40.3,38
		c0,0,14,46,11.7,60.3C346,318.6,338.4,346.6,338.4,346.6z"/>
	<g>
		<path class="st1" d="M172.3,335.3c0,0-91.3,0.3-66.3,41l31,1.7l50.4-15.3l-6.7-17.7L172.3,335.3z"/>
		<path class="st2" d="M122.8,342.7c0,0-2,4.6-1.6,8.5c0.5,3.8,1.4,6.7,2.8,6.2c1.4-0.5-0.3-3.7,0.9-5.8c1.2-2.2,1.8-2.2,1.2-4.5
			c-0.7-2.3-1.1-5-1.1-5s0.9,1,2.6,1.7c1.7,0.7,1.5,5,1.8,9c0.3,4-0.5,4.8-3.3,8.6c-2.8,3.8,2.7,9.7,3.2,12.6s-0.4,3.7-1.9,2.5
			c-1.5-1.2-6.8-7.8-7.4-10.4c-0.6-2.5,0.7-2,0-4.7c-0.7-2.7-1.3-6.4-1.2-11.3c0-4.8,1.4-6.3,1.4-6.3"/>
		<path class="st1" d="M178.3,360c-12,0.3-93.8,3.9-76,40.7c0.7,1.4,1.2,2.8,1.8,4.2c1.1,2.8,5.6,8.2,23.6,6.4
			c15.7-1.5,48.4-13.3,69.2-21.3c9.2-3.5,12.2-15,5.9-22.6h0c-2.2-2.7-5.3-4.4-8.7-5l-13.1-2.2C180.1,360,179.2,360,178.3,360z"/>
		<path class="st2" d="M124.1,411.6c0,0-10.4-7.8-11.5-14.3c-1.2-6.5-0.8-8.8,1-9.3s1.5,2.5,3.5,3.8c2,1.3,16.4,13.6,13,19.2"/>
		<path class="st2" d="M126,411.5c0-1.1-10.2-9.3-9.6-12.7c0.6-3.4,2.7-4.3,3.1-1.5c0.4,2.9,4.4,7,6.5,8.9c2.2,1.8,3.2,5,3.2,5"/>
		<path class="st1" d="M200.4,376.3c0,0-92.3,14.7-83.3,43.3c9,28.7,69.7,4.7,70.3,7.7s1.3,17.3,9.7,9.7c8.3-7.7,30.7-22,33-23.7
			c2.3-1.7,2.3-19,2.3-19l-9.7-16.3L200.4,376.3z"/>
		<g>
			<path d="M133,340c0.6,1.3,0.9,2.5,1.3,3.7c0.3,1.2,0.5,2.5,0.7,3.7c0.1,1.3,0.2,2.5,0.2,3.8c0,1.2-0.2,2.5-0.4,3.7
				c-0.1-1.2-0.1-2.4-0.4-3.6c-0.2-1.2-0.5-2.4-0.9-3.5c-0.4-1.1-0.8-2.2-1.3-3.3c-0.5-1-1.1-2.1-1.7-3l0,0
				c-0.5-0.7-0.3-1.6,0.3-2.1c0.7-0.5,1.6-0.3,2.1,0.3C132.9,339.9,133,339.9,133,340z"/>
		</g>
		<g>
			<path d="M141.9,339c0.6,1.9,1.1,3.7,1.5,5.6c0.4,1.9,0.8,3.8,0.9,5.7c-0.6-1.8-1.4-3.5-2.3-5.1c-0.9-1.6-1.8-3.3-2.8-4.8l0,0
				c-0.5-0.7-0.2-1.6,0.5-2.1c0.7-0.5,1.6-0.2,2.1,0.5C141.8,338.8,141.9,338.9,141.9,339z"/>
		</g>
		<g>
			<path d="M149.9,336.4c0.8,1.3,1.4,2.6,2,3.9c0.6,1.3,1.1,2.6,1.6,4c0.4,1.4,0.8,2.8,1.1,4.2c0.2,1.4,0.3,2.8,0.2,4.2
				c-0.2-1.4-0.5-2.7-1-4c-0.5-1.3-1.1-2.5-1.7-3.8c-0.7-1.2-1.4-2.4-2.2-3.5c-0.8-1.1-1.6-2.2-2.5-3.2l0,0
				c-0.6-0.6-0.5-1.6,0.1-2.1c0.6-0.6,1.6-0.5,2.1,0.1C149.8,336.2,149.8,336.3,149.9,336.4z"/>
		</g>
		<g>
			<path d="M120.8,370.4c1.2,2.9,2.3,5.7,3.3,8.6c0.5,1.5,0.9,2.9,1.3,4.4c0.4,1.5,0.7,3,0.7,4.5c-0.2-1.5-0.8-2.9-1.4-4.3
				c-0.6-1.4-1.2-2.7-1.9-4.1c-1.4-2.7-2.9-5.3-4.5-7.8l0,0c-0.4-0.7-0.2-1.6,0.5-2.1c0.7-0.4,1.6-0.2,2.1,0.5
				C120.8,370.2,120.8,370.3,120.8,370.4z"/>
		</g>
		<g>
			<path d="M133.1,366.1c1,3.3,2,6.5,2.9,9.8c0.5,1.6,0.9,3.3,1.3,4.9c0.4,1.7,0.8,3.3,1.1,5c-0.5-1.6-1.1-3.2-1.8-4.8
				c-0.7-1.6-1.3-3.1-2-4.7c-1.4-3.1-2.8-6.2-4.3-9.2l0,0c-0.4-0.7,0-1.6,0.7-2c0.7-0.4,1.6,0,2,0.7
				C133.1,366,133.1,366,133.1,366.1z"/>
		</g>
		<g>
			<path d="M143.8,363.2c1.2,3.2,2.2,6.3,3.2,9.6c0.5,1.6,0.9,3.2,1.3,4.9c0.3,1.6,0.7,3.3,0.4,5c0-1.7-0.6-3.2-1.1-4.8
				c-0.6-1.5-1.3-3.1-1.9-4.6c-1.4-3-2.9-6-4.5-8.8l0,0c-0.4-0.7-0.1-1.6,0.6-2c0.7-0.4,1.6-0.1,2,0.6
				C143.8,363.1,143.8,363.1,143.8,363.2z"/>
		</g>
		<g>
			<path d="M154.1,361.1c0.8,1.2,1.5,2.5,2.2,3.7c0.7,1.3,1.3,2.5,2,3.8c0.6,1.3,1.2,2.6,1.6,4c0.5,1.4,0.8,2.8,0.8,4.2
				c-0.2-1.4-0.9-2.7-1.5-3.9c-0.7-1.2-1.4-2.4-2.2-3.5c-0.8-1.1-1.6-2.3-2.5-3.3c-0.9-1.1-1.8-2.2-2.7-3.2l0,0
				c-0.6-0.6-0.5-1.6,0.1-2.1c0.6-0.6,1.6-0.5,2.1,0.1C154,360.9,154.1,361,154.1,361.1z"/>
		</g>
		<g>
			<path d="M132.9,396.4c1.7,2.6,3.2,5.3,4.6,8c0.7,1.4,1.3,2.8,1.9,4.2c0.6,1.4,1.1,2.9,1.2,4.4c-0.3-1.5-1.1-2.8-1.8-4.1
				c-0.8-1.3-1.6-2.5-2.5-3.7c-1.8-2.4-3.7-4.8-5.7-7l0,0c-0.6-0.6-0.5-1.6,0.1-2.1c0.6-0.6,1.6-0.5,2.1,0.1
				C132.8,396.2,132.9,396.3,132.9,396.4z"/>
		</g>
		<g>
			<path d="M141,392.3c1.5,2.4,2.8,4.7,4.2,7.2c1.3,2.4,2.6,4.9,3.8,7.3c1.2,2.5,2.4,5,3.3,7.6c1,2.6,1.9,5.2,2.3,7.9
				c-0.7-2.7-1.8-5.2-3-7.6c-1.2-2.4-2.6-4.8-4-7.1c-1.4-2.3-2.9-4.6-4.4-6.9c-1.5-2.2-3.1-4.5-4.7-6.6l0,0
				c-0.5-0.7-0.4-1.6,0.3-2.1c0.7-0.5,1.6-0.4,2.1,0.3C141,392.3,141,392.3,141,392.3z"/>
		</g>
		<g>
			<path d="M155.9,387c1.5,2.2,3,4.3,4.4,6.6c1.4,2.2,2.7,4.5,4,6.8c1.3,2.3,2.4,4.6,3.4,7.1c1,2.4,1.9,4.9,2,7.6
				c-0.4-2.6-1.5-5-2.7-7.2c-1.2-2.3-2.6-4.5-4-6.6c-1.5-2.1-3-4.2-4.6-6.3c-1.6-2-3.2-4.1-4.9-6l0,0c-0.5-0.6-0.5-1.6,0.2-2.1
				s1.6-0.5,2.1,0.2C155.8,387,155.9,387,155.9,387z"/>
		</g>
		<g>
			<path d="M167.4,385.1c2,4.3,3.8,8.6,5.5,13c0.8,2.2,1.6,4.4,2.4,6.6c0.7,2.2,1.4,4.5,1.5,6.9c-0.4-2.3-1.3-4.5-2.2-6.6
				c-0.9-2.1-2-4.2-3-6.3c-2.1-4.1-4.4-8.2-6.8-12.2l0,0c-0.4-0.7-0.2-1.6,0.5-2.1c0.7-0.4,1.6-0.2,2.1,0.5
				C167.3,385,167.4,385.1,167.4,385.1z"/>
		</g>
		<g>
			<path d="M178,381.9c1.9,4.2,3.7,8.4,5.4,12.7c0.8,2.1,1.6,4.3,2.3,6.5c0.7,2.2,1.3,4.4,1.7,6.6c-0.6-2.2-1.5-4.3-2.4-6.4
				c-0.9-2.1-1.9-4.1-3-6.1c-2.1-4-4.3-8-6.6-11.9l0,0c-0.4-0.7-0.2-1.6,0.5-2.1s1.6-0.2,2.1,0.5C178,381.8,178,381.9,178,381.9z"/>
		</g>
	</g>
	<g>
		<path class="st1" d="M339.7,336c0,0,91.3,0.3,66.3,41l-31,1.7l-50.4-15.3l6.7-17.7L339.7,336z"/>
		<path class="st2" d="M389.2,343.4c0,0,2,4.6,1.6,8.5c-0.5,3.8-1.4,6.7-2.8,6.2c-1.4-0.5,0.3-3.7-0.9-5.8c-1.2-2.2-1.8-2.2-1.2-4.5
			c0.7-2.3,1.1-5,1.1-5s-0.9,1-2.6,1.7c-1.7,0.7-1.5,5-1.8,9s0.5,4.8,3.3,8.6c2.8,3.8-2.7,9.7-3.2,12.6c-0.5,2.8,0.4,3.7,1.9,2.5
			c1.5-1.2,6.8-7.8,7.4-10.4s-0.7-2,0-4.7c0.7-2.7,1.3-6.4,1.2-11.3c0-4.8-1.4-6.3-1.4-6.3"/>
		<path class="st1" d="M333.7,360.7c12,0.3,93.8,3.9,76,40.7c-0.7,1.4-1.2,2.8-1.8,4.2c-1.1,2.8-5.6,8.2-23.6,6.4
			c-15.7-1.5-48.4-13.3-69.2-21.3c-9.2-3.5-12.2-15-5.9-22.6l0,0c2.2-2.7,5.3-4.4,8.7-5l13.1-2.2
			C331.9,360.8,332.8,360.7,333.7,360.7z"/>
		<path class="st2" d="M387.9,412.3c0,0,10.4-7.8,11.5-14.3c1.2-6.5,0.8-8.8-1-9.3c-1.8-0.5-1.5,2.5-3.5,3.8
			c-2,1.3-16.4,13.6-13,19.2"/>
		<path class="st2" d="M386,412.2c0-1.1,10.2-9.3,9.6-12.7c-0.6-3.4-2.7-4.3-3.1-1.5c-0.4,2.9-4.4,7-6.5,8.9c-2.2,1.8-3.2,5-3.2,5"
			/>
		<path class="st1" d="M311.6,377c0,0,92.3,14.7,83.3,43.3c-9,28.7-69.7,4.7-70.3,7.7c-0.7,3-1.3,17.3-9.7,9.7
			c-8.3-7.7-30.7-22-33-23.7c-2.3-1.7-2.3-19-2.3-19l9.7-16.3L311.6,377z"/>
		<g>
			<path d="M381.6,342.3c-0.6,0.8-1.2,1.9-1.7,3c-0.5,1.1-1,2.2-1.3,3.3c-0.4,1.1-0.7,2.3-0.9,3.5c-0.2,1.2-0.3,2.4-0.4,3.6
				c-0.2-1.2-0.4-2.4-0.4-3.7c0-1.2,0-2.5,0.2-3.8c0.1-1.3,0.4-2.5,0.7-3.7c0.3-1.3,0.7-2.4,1.3-3.7c0.3-0.8,1.2-1.1,2-0.8
				c0.8,0.3,1.1,1.2,0.8,2C381.7,342.1,381.7,342.2,381.6,342.3L381.6,342.3z"/>
		</g>
		<g>
			<path d="M372.8,341c-1,1.5-1.9,3.2-2.8,4.8c-0.9,1.7-1.7,3.3-2.3,5.1c0.1-1.9,0.5-3.8,0.9-5.7c0.4-1.9,0.9-3.7,1.5-5.6
				c0.3-0.8,1.1-1.2,1.9-1c0.8,0.3,1.2,1.1,1,1.9C372.9,340.8,372.9,340.9,372.8,341L372.8,341z"/>
		</g>
		<g>
			<path d="M364.5,338.9c-0.9,1-1.7,2.1-2.5,3.2c-0.8,1.1-1.5,2.3-2.2,3.5c-0.6,1.2-1.2,2.5-1.7,3.8c-0.5,1.3-0.8,2.6-1,4
				c-0.1-1.4,0-2.8,0.2-4.2c0.3-1.4,0.6-2.8,1.1-4.2c0.5-1.4,1-2.7,1.6-4c0.6-1.3,1.2-2.6,2-3.9c0.4-0.7,1.4-0.9,2.1-0.5
				c0.7,0.4,0.9,1.4,0.5,2.1C364.7,338.7,364.6,338.8,364.5,338.9L364.5,338.9z"/>
		</g>
		<g>
			<path d="M393.8,372.5c-1.6,2.5-3.1,5.1-4.5,7.8c-0.7,1.3-1.4,2.7-1.9,4.1c-0.6,1.4-1.1,2.8-1.4,4.3c0-1.5,0.3-3.1,0.7-4.5
				c0.4-1.5,0.8-3,1.3-4.4c1-2.9,2.1-5.8,3.3-8.6c0.3-0.8,1.2-1.1,2-0.8c0.8,0.3,1.1,1.2,0.8,2C393.9,372.3,393.9,372.4,393.8,372.5
				L393.8,372.5z"/>
		</g>
		<g>
			<path d="M381.7,367.9c-1.5,3-2.9,6.1-4.3,9.2c-0.7,1.5-1.4,3.1-2,4.7c-0.6,1.6-1.3,3.1-1.8,4.8c0.3-1.7,0.7-3.3,1.1-5
				c0.4-1.7,0.9-3.3,1.3-4.9c0.9-3.3,1.9-6.5,2.9-9.8c0.2-0.8,1.1-1.2,1.9-1c0.8,0.2,1.2,1.1,1,1.9
				C381.7,367.8,381.7,367.8,381.7,367.9L381.7,367.9z"/>
		</g>
		<g>
			<path d="M370.9,365.2c-1.6,2.9-3.1,5.8-4.5,8.8c-0.7,1.5-1.4,3-1.9,4.6c-0.5,1.5-1.1,3.1-1.1,4.8c-0.2-1.7,0.1-3.4,0.4-5
				c0.3-1.6,0.8-3.3,1.3-4.9c0.9-3.2,2-6.4,3.2-9.6c0.3-0.8,1.2-1.2,1.9-0.9s1.2,1.2,0.9,1.9C371,365,370.9,365.1,370.9,365.2
				L370.9,365.2z"/>
		</g>
		<g>
			<path d="M360.3,363.6c-0.9,1-1.8,2.1-2.7,3.2c-0.9,1.1-1.7,2.2-2.5,3.3c-0.8,1.1-1.6,2.3-2.2,3.5c-0.7,1.2-1.3,2.5-1.5,3.9
				c0-1.4,0.4-2.8,0.8-4.2c0.5-1.4,1-2.7,1.6-4c0.6-1.3,1.3-2.6,2-3.8c0.7-1.3,1.4-2.5,2.2-3.7c0.4-0.7,1.4-0.9,2.1-0.5
				c0.7,0.4,0.9,1.4,0.5,2.1C360.4,363.5,360.3,363.6,360.3,363.6L360.3,363.6z"/>
		</g>
		<g>
			<path d="M381.5,398.9c-2,2.2-3.9,4.6-5.7,7c-0.9,1.2-1.7,2.4-2.5,3.7c-0.8,1.3-1.5,2.6-1.8,4.1c0.1-1.5,0.6-3,1.2-4.4
				c0.6-1.4,1.2-2.8,1.9-4.2c1.4-2.7,2.9-5.4,4.6-8c0.4-0.7,1.4-0.9,2.1-0.5s0.9,1.4,0.5,2.1C381.6,398.8,381.5,398.8,381.5,398.9
				L381.5,398.9z"/>
		</g>
		<g>
			<path d="M373.4,394.8c-1.6,2.2-3.2,4.4-4.7,6.6c-1.5,2.3-3,4.5-4.4,6.9c-1.4,2.3-2.8,4.7-4,7.1c-1.2,2.4-2.3,4.9-3,7.6
				c0.4-2.7,1.3-5.3,2.3-7.9c1-2.6,2.1-5.1,3.3-7.6c1.2-2.5,2.5-4.9,3.8-7.3c1.3-2.4,2.7-4.8,4.2-7.2c0.4-0.7,1.4-0.9,2.1-0.5
				s0.9,1.4,0.5,2.1C373.5,394.7,373.5,394.7,373.4,394.8L373.4,394.8z"/>
		</g>
		<g>
			<path d="M358.5,389.6c-1.7,1.9-3.3,3.9-4.9,6c-1.6,2-3.1,4.1-4.6,6.3c-1.5,2.1-2.8,4.3-4,6.6c-1.2,2.3-2.3,4.7-2.7,7.2
				c0.1-2.6,1-5.1,2-7.6c1-2.4,2.2-4.8,3.4-7.1c1.3-2.3,2.6-4.5,4-6.8c1.4-2.2,2.8-4.4,4.4-6.6c0.5-0.7,1.4-0.8,2.1-0.4
				c0.7,0.5,0.8,1.4,0.4,2.1C358.5,389.5,358.5,389.6,358.5,389.6L358.5,389.6z"/>
		</g>
		<g>
			<path d="M347.3,387.2c-2.4,4-4.6,8.1-6.8,12.2c-1.1,2.1-2.1,4.2-3,6.3c-0.9,2.1-1.8,4.3-2.2,6.6c0.1-2.3,0.8-4.6,1.5-6.9
				c0.7-2.2,1.5-4.5,2.4-6.6c1.7-4.4,3.5-8.7,5.5-13c0.3-0.8,1.2-1.1,2-0.7c0.8,0.3,1.1,1.2,0.7,2
				C347.3,387.1,347.3,387.2,347.3,387.2L347.3,387.2z"/>
		</g>
		<g>
			<path d="M336.6,384.1c-2.3,3.9-4.6,7.8-6.6,11.9c-1,2-2,4.1-3,6.1c-0.9,2.1-1.8,4.2-2.4,6.4c0.3-2.3,1-4.5,1.7-6.6
				c0.7-2.2,1.5-4.3,2.3-6.5c1.6-4.3,3.4-8.5,5.4-12.7c0.3-0.8,1.2-1.1,2-0.7s1.1,1.2,0.7,2C336.7,384,336.6,384,336.6,384.1
				L336.6,384.1z"/>
		</g>
	</g>
	<path class="st3" d="M178,202.8c0,0,13.6,14.5-5.9,42.9c-18.7,27.2-46.8,92.3,11.6,123.7c9.2,5,16.8,12.8,20.8,22.5
		c0.2,0.5,0.4,1.1,0.7,1.7c4.2,11.2,36.2,39.8,76.8,21.6c13.6-6.1,23.3-18.1,27.4-32.4c2.3-8.1,8.5-18,23.7-25.6
		c30.5-15.3,21.2-53.4,16.9-78c-4.2-24.6-31.4-90.7-28-98.3l-7.6,29.7c0,0-17.7-29.5-18.6-52.5c-0.9-22-5.1-24.6-5.1-24.6
		l-11.9,32.2c0,0-5.1-39.8-1.7-51.7c0,0-11.1,19.1-10.8,7.1l0.7-7.1l-15.3,31.5c0,0-1.9-15.3-5.8-20.3c0,0-16.4,24.1-18.1,6.5
		c-0.3-3.1,0-6.2,0.8-9.2l5.2-20.7c0,0-46,48.3-36.3,103C197.4,204.6,185,199.6,178,202.8z"/>
	<path class="st4" d="M189.4,104c0,0,4.7,14.7-6,32.3s3.5,39.7,3.5,39.7s1.9-13.7,6.8-24.7C199.9,137.4,199.4,111,189.4,104z"/>
	<path class="st0" d="M214.5,56.7c0,0,3.3,10.3-4.2,22.7s2.5,27.9,2.5,27.9s1.4-9.6,4.8-17.3C221.9,80.2,221.5,61.6,214.5,56.7z"/>
	<path class="st0" d="M308.5,98.3c0,0-4.7,14.7,6,32.3s-3.5,39.7-3.5,39.7s-1.9-13.7-6.8-24.7C297.9,131.8,298.5,105.3,308.5,98.3z"
		/>
	<path class="st5" d="M239.7,369.6c0,0-19.7-17-31-34.7c-10.2-15.9-10-64-7.3-69.7c0,0-24.7-7.7-22.3,42.7c0,0-17-29.3,3-62.3
		c0,0,8.1-11.4,6.5-19c0,0,17.4,15.3,17.4,0c0-15.3-5-70.7,11.7-78.7c0,0,2,11.3,5.7,14.7c3.7,3.3,11.3-7.3,14.3-8.3
		s0.7,5.7,6.3,7.3c5.7,1.7,15.3-11.3,18.7-12.3c0,0-3.3,9.3,0,11c3.3,1.7,6.7-1.3,6.7-1.3s1,33,8.3,42c0,0,11-20.7,8.3-26.7
		c-2.7-6,22,32,18,55.3c0,0,12.7-2.7,16-7.7c0,0-0.7,19,1.3,23.7c0,0,5.3-3,4.7-9.4c0,0,29.1,54.3,0.1,97.3c0,0,0.3-12.3-2.7-18.7
		c-3-6.3-13.3,1.7-13.3,1.7s-7.7-12.7-7-30.3c0.7-17.7-7-33.7-11.7-32.7c-4.1,0.9-15.1,62.5-17.7,77.9c-0.5,3.1-2.1,5.9-4.7,7.7
		c-3.1,2.3-7.4,3-10.3-5.9c-5-15.7-5.3-24.7-9.3-20.7s-3.4,20.3-3.4,20.3l-6.6-5.7C239.4,327.3,234.7,360.6,239.7,369.6z"/>
	<path class="st4" d="M144.7,185.3c-1.4-0.2,15.3,6.7,18,14c2.7,7.3-0.3,26.3,2.7,30c0,0-0.7-6,2.7-13.7
		C171.4,208,179.7,190.3,144.7,185.3z"/>
	<path class="st6" d="M212.4,249.3c0,0-56,73.7,20,122.3c0,0-21-54-2.7-80.3c0,0-15.3,16.3-15,23.3
		C214.7,314.6,198.7,265,212.4,249.3z"/>
	<path class="st6" d="M303.7,331.3c0,0,29.5-12.3,25.3-44.1c-1.1-8.2-4.2-16.1-8.8-23L306.7,244c0,0,16,59.7-3,85.7"/>
	<path class="st6" d="M265.7,357.3c0,0,33-29,32.7-71.7c-0.3-42.7-1.7-50.3-4.7-62.3L281.4,252c0,0-3.4-12.8-8-20
		c-4.3-6.8-17-25-12-40.3c0,0-14.3,9,2.3,46.3c0,0-23.5-34.7-17.8-57c0,0-16.3,47.3,0,80.3S271.4,342.6,265.7,357.3z"/>
	<path class="st3" d="M134,312c0,0-12.7-10.8-1.7-34.9c0,0,4.7-9.1,3.3-11.8c-1.3-2.7,5,11.3,1.7,23.3S131.7,309.3,134,312z"/>
	<path class="st3" d="M117.8,339.6c0,0,12.7-10.8,1.7-34.9c0,0-4.7-9.1-3.3-11.8c1.3-2.7-5,11.3-1.7,23.3S120.2,336.9,117.8,339.6z"
		/>
	<ellipse class="st1" cx="268.5" cy="423.6" rx="34.3" ry="31.8"/>
	<path class="st7" d="M277.7,404.6c0,0-23.3-1.3-25,10.7c-1.7,12-7,21.8,7.3,23.9c14.3,2.1,16-0.8,17.7,0s1.7-8.2,3.7-9.2
		s4.3-5.7,6.7-7.7c2.3-2-3-11.3-6.7-12.3C277.7,409,277.7,404.6,277.7,404.6z"/>
	<path class="st8" d="M264.7,411.7c0,0-12,13.3-3.7,17.3l3.7,3c0,0,2.3-3.3,3.8-3.7c1.5-0.3,5.5-4.5,6.9-4.8c1.3-0.2-1-8.2-4-7.6
		C268.4,416.6,264.7,411.7,264.7,411.7z"/>
</g>
</svg>
