<?xml version="1.0" encoding="utf-8"?>
<!-- Generator: Adobe Illustrator 22.1.0, SVG Export Plug-In . SVG Version: 6.00 Build 0)  -->
<svg version="1.1" id="Слой_4" xmlns="http://www.w3.org/2000/svg" xmlns:xlink="http://www.w3.org/1999/xlink" x="0px" y="0px"
	 viewBox="0 0 512 512" style="enable-background:new 0 0 512 512;" xml:space="preserve">
<style type="text/css">
	.st0{fill:#B9D3E5;}
	.st1{fill:none;stroke:#000000;stroke-width:3;stroke-linecap:round;stroke-linejoin:round;stroke-miterlimit:10;}
	.st2{fill:none;stroke:#315164;stroke-width:3;stroke-linecap:round;stroke-linejoin:round;stroke-miterlimit:10;}
</style>
<g>
	<path class="st0" d="M274.9,251c0,0-36.7,10-39.6,25.3c-2.8,15.3,0.1,100.2,4.6,105.6c4.5,5.4,29.6,12.6,29.6,12.6l46.3,4.3
		c0,0,13,3.9,15,3.9s8.7-1.8,8.7-1.8l5.4,0.2l20.6-8.7l13.2-7.9c0,0,6.3-13.4,6.3-19l-0.1-16.6l-3-46.4l-3.2-36.6
		c0,0-19.9-11.4-32.5-10.3s-49.2-9.7-57.8-6.4C279.8,252.6,274.9,251,274.9,251z"/>
	<path class="st1" d="M343.1,391.2c-0.2,5-1.6,7.9-3.6,9.6c-5.2,4.2-14.7-0.1-19-1.3c-6-1.7-46.3-4.4-46.3-4.4s-13-1.3-29.7-7.9
		c-13.7-5.5-11.2-80.7-9.8-107.2c0.3-7,5.7-12.8,12.7-13.7c30.5-4,93.8,19.2,93.8,21.2C341.1,289.9,343.8,373.5,343.1,391.2z"/>
	<path class="st0" d="M138.4,255.6c0,0-45.8,62.6-44.1,72.3c1.7,9.7,19.4,20.6,19.4,20.6s20.3,14.9,23.4,22.4
		c3.1,7.4,8.5,15.5,12.9,16.1s38,6.4,38,6.4l14.1,1.5l22-19.9l11.4-12.6l14.4-19.2c0,0,11.7-20.7,9-26.4c-2.8-5.7-17.1-19.7-22-22.8
		c-4.9-3-22.1-19.6-22.1-19.6l-14.5-18.9l-7.1-5.3h-3.7l-3.9-2.6l-6,0.3l-21,3.5L138.4,255.6z"/>
	<path class="st1" d="M177.1,271.9c-10.5,8.4-48.3,69.7-51.3,68.7c-3-1-5-3-26.7-4.7c-1-0.1-1.9-0.3-2.5-0.7c0,0,0,0,0,0
		c-12-7.3,29.1-64.1,38.6-77c1.2-1.7,3.1-2.8,5.1-3.1c7.1-1.1,24.9-4,38.2-6.8C195.5,244.5,190.8,260.9,177.1,271.9z"/>
	<path class="st1" d="M203.5,394.9c-0.7,2-49-7.7-52-7.7s-10.7-4.3-13-13.7c-2.3-9.2-40.7-37.5-41.9-38.4c0.7,0.4,1.5,0.7,2.5,0.7
		c21.7,1.7,23.7,3.7,26.7,4.7c0,0,33.3,18,38.3,24.6c3.2,4.3,16.2,14.4,23.8,19.7C191.9,387.6,204.1,392.9,203.5,394.9z"/>
	<path class="st1" d="M203.5,394.9c0,0,55.6-48.3,55.3-75.7c0-4.2-2.2-8.1-5.6-10.7c-9.6-7.3-37.9-29.6-46.3-44.1
		c-2.6-4.4-5.8-8.3-9.8-11.5c-3-2.4-6.2-4.1-7.7-2.7"/>
	<path class="st1" d="M383.4,376.2c-0.5,2.4-1.8,4.4-3.7,6c-7,5.6-28.1,21.6-40.2,18.7c2-1.6,3.5-4.6,3.6-9.6
		c0.7-17.7-2-101.3-2-103.7c0,0,19.3-19.3,37.3-16.7C378.5,270.9,388.6,353,383.4,376.2z"/>
	<path class="st1" d="M378.5,270.9c3-11.7-37-17.3-77-21.2c-40-3.9-58.9,18.1-58.9,18.1"/>
	<path class="st0" d="M212.1,167.3c0,0-3.4,12-3.9,30c-0.4,18,0.4,53,3.5,58.4s9.5,7.3,15.5,8.9s28.2,7.7,28.2,7.7s25.1,1.6,26.7,0
		s3.3-2.5,3.3-2.5l6.6,1.5l9.4-1l9.1-4.3l8.5-4.1l14.5-4.9l7.2-5.8l1.2-10.7l1.6-53.3l-0.2-18c0,0,0.2-5.2-11.1-5.1l-8.7-3
		c0,0-39.9-10.6-43.7-9.7C276,152,212.1,167.3,212.1,167.3z"/>
	<path class="st1" d="M285.4,269.6c-15,9.1-53.7-5.1-68.3-7.4c-14.7-2.3-8-88.3-6.7-93.7c0.3-1.3,3-1.9,7-1.9c0,0,0,0,0,0
		c12.3-0.1,37.3,4.8,48.6,8.3c15,4.7,6.3,44,6.3,44C270.2,246.2,285.4,269.6,285.4,269.6z"/>
	<path class="st1" d="M270.8,178.2c0,0,71.2-22.3,72.5-9.3s-1.8,80.8-1.8,80.8s-3.3,7.2-17.3,10.4s-23.7,16.3-38.7,9.6"/>
	<path class="st1" d="M217.5,166.6c1.7-0.5,58.7-17.1,67.9-15.4c9.3,1.7,50,13.6,50,13.6"/>
	<path class="st1" d="M217.5,166.6C217.5,166.6,217.5,166.6,217.5,166.6"/>
	<path class="st1" d="M141.9,260.1c0,0-35.4,57.6-34.8,62.2c0.7,4.6,14,7.3,21.3-2.7c7.3-10,27.3-42.7,27.3-42.7"/>
	<path class="st1" d="M217.5,174.9c0,0-7.1,75.9,6.6,78.7"/>
	<path class="st1" d="M263.3,191.7c0,0,3.3,18,0,26.5c-2.6,6.8-0.5,37.3,3.3,40.8"/>
	<path class="st1" d="M246.6,162.7c0,0,35.4-9.8,40.2-7.3s10.3,4.8,17,4.8s2.3,6.6-12.3,6.4"/>
	<path class="st1" d="M316,178.7c0,0,12.8,0.5,16,0s8.4-0.5,7.4,4.8s-1.8,60.5-11.7,64.2s-33.3,8.8-35.8,7.8"/>
	<path class="st1" d="M127,346.5c0,0,18,11,20.5,13.8s20.5,22.5,28.3,24.3"/>
	<path class="st1" d="M182.3,280.2c0,0,7.8-17.1,15.8-7.6c8,9.6,36.3,39.8,41,41.8s4.3,17.6-7.5,20.7"/>
	<path class="st1" d="M260.8,296.7c-1,1.3,3.5,27.3,5.8,31.8c1.7,3.4,8.3,17.8-5.9,24c-14.1,6.3-16.4,13.5-15.9,14.8"/>
	<path class="st1" d="M270.8,279.5c0,0,60,0.5,60,17.3c0,16.2,8.5,106.5-17.2,92c-2.6-1.5-5.4-2.6-8.3-3.1
		c-8.2-1.5-23.9-3.7-33.2-1.2"/>
	<path class="st1" d="M351,285.5c0,0,20.3-10.3,20,0s9.8,79.5,0,86.5c-9.8,7-14,7.5-14,7.5"/>
	<path class="st1" d="M310.6,269.8c0,0,25.7,6.7,30.7,4.2s9.8-4.2,9.8-4.2"/>
	<g>
		<path class="st2" d="M154.2,222.5c-6.7,6.5-15.1-2.1-21.8,4.4c-6.7,6.5,1.6,15.1-5.1,21.6c-6.7,6.5-15.1-2.1-21.8,4.4
			c-6.7,6.5,1.6,15.1-5.1,21.6s-15.1-2.1-21.8,4.4"/>
	</g>
	<g>
		<path class="st2" d="M317.6,138.2c-9.4,0-9.4-12-18.7-12c-9.4,0-9.4,12-18.7,12c-9.4,0-9.4-12-18.7-12c-9.4,0-9.4,12-18.7,12
			c-9.4,0-9.4-12-18.7-12"/>
	</g>
	<g>
		<path class="st2" d="M408.6,305.3c-2.9-8.9,8.4-12.7,5.5-21.5c-2.9-8.9-14.3-5.1-17.3-14c-2.9-8.9,8.4-12.7,5.5-21.5
			c-2.9-8.9-14.3-5.1-17.3-14c-2.9-8.9,8.4-12.7,5.5-21.5"/>
	</g>
	<g>
		<path class="st2" d="M420.6,224.7c1.5,4.7-9.8,8.4-8.3,13.1c1.5,4.7,12.9,0.9,14.5,5.6c1.5,4.7-9.8,8.4-8.3,13.1
			c1.5,4.7,12.9,0.9,14.5,5.6c1.5,4.7-9.8,8.4-8.3,13.1"/>
	</g>
	<g>
		<path class="st2" d="M76.9,256.5c3-3.9,12.5,3.4,15.5-0.5c3-3.9-6.5-11.2-3.6-15.1c3-3.9,12.5,3.4,15.5-0.5
			c3-3.9-6.5-11.2-3.6-15.1c3-3.9,12.5,3.4,15.5-0.5"/>
	</g>
	<g>
		<path class="st2" d="M247.9,103.4c4.9,0,4.9,12,9.8,12c4.9,0,4.9-12,9.8-12c4.9,0,4.9,12,9.8,12c4.9,0,4.9-12,9.8-12
			c4.9,0,4.9,12,9.8,12"/>
	</g>
</g>
</svg>
