<?xml version="1.0" encoding="utf-8"?>
<!-- Generator: Adobe Illustrator 22.1.0, SVG Export Plug-In . SVG Version: 6.00 Build 0)  -->
<svg version="1.1" id="Слой_4" xmlns="http://www.w3.org/2000/svg" xmlns:xlink="http://www.w3.org/1999/xlink" x="0px" y="0px"
	 viewBox="0 0 512 512" style="enable-background:new 0 0 512 512;" xml:space="preserve">
<style type="text/css">
	.st0{fill:#FDCD95;stroke:#000000;stroke-width:2;stroke-linecap:round;stroke-linejoin:round;stroke-miterlimit:10;}
	.st1{fill:#857154;stroke:#000000;stroke-width:2;stroke-linecap:round;stroke-linejoin:round;stroke-miterlimit:10;}
	.st2{fill:#FDCD95;stroke:#000000;stroke-miterlimit:10;}
	.st3{fill:none;stroke:#000000;stroke-width:2;stroke-linecap:round;stroke-linejoin:round;stroke-miterlimit:10;}
	.st4{fill:#816164;stroke:#000000;stroke-width:2;stroke-linecap:round;stroke-linejoin:round;stroke-miterlimit:10;}
	.st5{fill:#FAA510;stroke:#000000;stroke-width:2;stroke-linecap:round;stroke-linejoin:round;stroke-miterlimit:10;}
	.st6{fill:#FFFFFF;}
	.st7{fill:#F9F8F2;stroke:#000000;stroke-width:2;stroke-linecap:round;stroke-linejoin:round;stroke-miterlimit:10;}
	.st8{fill:#2E7553;stroke:#000000;stroke-width:2;stroke-linecap:round;stroke-linejoin:round;stroke-miterlimit:10;}
	.st9{fill:#EB8C30;stroke:#000000;stroke-width:2;stroke-linecap:round;stroke-linejoin:round;stroke-miterlimit:10;}
	.st10{fill:#FFF35C;stroke:#000000;stroke-width:2;stroke-linecap:round;stroke-linejoin:round;stroke-miterlimit:10;}
	.st11{fill:#FDCD95;stroke:#000000;stroke-width:1.4118;stroke-linecap:round;stroke-linejoin:round;stroke-miterlimit:10;}
	.st12{fill:none;stroke:#000000;stroke-linecap:round;stroke-linejoin:round;stroke-miterlimit:10;}
	.st13{fill:none;stroke:#000000;stroke-width:1.4118;stroke-linecap:round;stroke-linejoin:round;stroke-miterlimit:10;}
	.st14{fill:#F9F8F2;stroke:#000000;stroke-width:1.4118;stroke-linecap:round;stroke-linejoin:round;stroke-miterlimit:10;}
	.st15{fill:#F9EBE1;}
	.st16{fill:#D7EF7F;stroke:#000000;stroke-width:2;stroke-linecap:round;stroke-linejoin:round;stroke-miterlimit:10;}
	.st17{fill:#B5D758;stroke:#000000;stroke-width:2;stroke-linecap:round;stroke-linejoin:round;stroke-miterlimit:10;}
	.st18{fill:#857154;}
	.st19{fill:#FDCD95;}
	.st20{fill:#FDCD95;stroke:#000000;stroke-width:1.333;stroke-linecap:round;stroke-linejoin:round;stroke-miterlimit:10;}
	.st21{fill:none;stroke:#1D1D1B;stroke-width:1.333;stroke-linecap:round;stroke-linejoin:round;stroke-miterlimit:10;}
	.st22{fill:none;stroke:#000000;stroke-width:1.333;stroke-linecap:round;stroke-linejoin:round;stroke-miterlimit:10;}
	.st23{fill:none;stroke:#000000;stroke-width:1.2338;stroke-linecap:round;stroke-linejoin:round;stroke-miterlimit:10;}
	.st24{fill:#F6F6F6;}
</style>
<g>
	<g>
		<path class="st0" d="M405.8,138.3v14.5c0,0,6,11.3,14.7,6.3c0,0,7.4-5.6,7.8-7.9c0.4-2.3-0.6-15.4-0.6-15.4l-14,1L405.8,138.3z"/>
		<path class="st1" d="M414.8,141c0,0-32.1,2.8-44.2-25.2c-4.1-9.4-4.7-19.9-2.5-29.9c2.7-12.2,9.9-28.2,29.1-27.7
			c0,0,21.3-17.9,44.9,1c16.4,13.2,22.3,35.4,15.8,55.4c-4.4,13.6-14.2,26.1-35.3,23.7L414.8,141z"/>
		<ellipse class="st2" cx="449.6" cy="105.3" rx="3.8" ry="9.5"/>
		
			<ellipse transform="matrix(0.9815 -0.1912 0.1912 0.9815 -13.4827 75.6666)" class="st2" cx="385.3" cy="107.7" rx="3.8" ry="9.5"/>
		<path class="st3" d="M385.3,74.8c0,0,3.3,30.3,37.9,21c0,0-12.2-4.6-12.7-8.1c0,0,20.2,7.8,26.7,4.8l-7.7-9c0,0,20.5,1.3,22.5-4.5
			c0,0-9.7,1.7-12.8-3"/>
		<path class="st0" d="M449.9,98.7c0,22.4-15.1,46.2-32.2,46.2c-17.1,0-32.3-24.3-32.3-46.7c0-5.7,1-10.6,2.7-14.9
			c3.9,8.1,13.3,18.2,35.2,12.3c0,0-12.2-4.6-12.7-8.1c0,0,20.2,7.8,26.7,4.8l-7.7-9c0,0,10.2,0.6,16.9-1
			C448.7,86.9,449.9,92.4,449.9,98.7z"/>
		<path class="st3" d="M394.3,102.3c0,0,7-4.3,13-2"/>
		<path class="st1" d="M392.7,463.9c0,0-15,24.8-11.7,28.6s31.7,5.5,32,0s-6.7-27.9-6.7-27.9L392.7,463.9z"/>
		<path class="st1" d="M438.7,463.9c0,0-9,26.8,0,28.6s41,4.1,44-1.9s-10-5-13.7-9.3c-3.7-4.3-16.7-10.5-17.7-17.4
			C450.3,457,438.7,463.9,438.7,463.9z"/>
		<path class="st3" d="M425.3,99.6c0,0,6.7-3,11.7,0"/>
		<g>
			<path class="st0" d="M367.3,210.3c0,0-2,8.5-2.5,13s2.3,10.8,1.8,12.3s-6.3,48.4-6.3,50.3s-1.8,8.7-4,10.7s-10.8,15.3-5.8,13.3
				l3.8-4c0,0-4.3,13.3-0.3,8.5l5.5-6c0,0-3.5,17,1,10.5l4.3-11.8c0,0,2.3,16.5,4,7.8c0,0-0.5-14.3,2.3-13.5s6,4.3,6.5,1.3
				s-8.5-11.8-8.5-11.8l7-29.1c0,0,3.5-22.7,3.3-25.9s1.6-15,2.2-17.5c0.6-2.5-1.2-6.8-1.2-6.8l-5.3-3.3L367.3,210.3z"/>
			<line class="st3" x1="359.9" y1="298.6" x2="354.3" y2="305.8"/>
			<line class="st3" x1="362.4" y1="301" x2="359.5" y2="308.3"/>
			<line class="st3" x1="365.2" y1="301" x2="364.8" y2="307"/>
		</g>
		<g>
			<path class="st0" d="M464.2,205.2c0,0,2,8.5,2.5,13s1.6,10.1,2.1,11.6s2.4,49,2.4,50.9s1.8,8.7,4,10.7s10.8,15.3,5.8,13.3l-3.8-4
				c0,0,4.3,13.3,0.3,8.5l-5.5-6c0,0,3.5,17-1,10.5l-4.3-11.8c0,0-2.3,16.5-4,7.8c0,0,0.5-14.3-2.3-13.5s-6,4.3-6.5,1.3
				s8.5-11.8,8.5-11.8l-7-29.1c0,0-3.5-22.7-3.3-25.9s-1.6-15-2.2-17.5c-0.6-2.5,1.2-6.8,1.2-6.8l5.3-3.3L464.2,205.2z"/>
			<line class="st3" x1="471.5" y1="293.6" x2="477.2" y2="300.7"/>
			<line class="st3" x1="469" y1="296" x2="471.9" y2="303.2"/>
			<line class="st3" x1="466.2" y1="296" x2="466.7" y2="302"/>
		</g>
		<path class="st4" d="M384.7,278.7l4,189.3c0,0,18.3,7.7,22.3,0l8.7-139.6c0,0,6.3,39.6,6.3,49.2c0,9.7,7,82.3,9,87
			c2,4.7,16.7,3.7,19.3,2c2.7-1.7-0.7-75.6-1.3-91.6c-0.7-16-6.3-96.4-6.3-96.4l-31.7-4.2L384.7,278.7z"/>
		<ellipse cx="404.6" cy="111.4" rx="3.2" ry="7.1"/>
		<path class="st5" d="M404.6,150.4c0,0-29.1,5.4-36.6,40.6c-8.1,38.3-11,96.7-11,96.7s13.4,3.8,14.9,2l12.7-73.7l-3.2,65.8
			c0,0,40,13.3,68.5,0l-2.7-69.3l13,73.3c0,0,13.5,0.4,14.1-1.3c0,0-3.9-127.3-34.5-130.1l-8.7-2.1l-15.2,8L404.6,150.4z"/>
		<circle class="st6" cx="404.5" cy="110.3" r="1.9"/>
		<path class="st3" d="M398,108.4c0,0,4.6-4.4,7.8-3.5"/>
		<ellipse cx="429.5" cy="111.3" rx="3.2" ry="7.1"/>
		<circle class="st6" cx="429.6" cy="110.1" r="1.9"/>
		<path class="st3" d="M436.1,108.2c0,0-4.6-4.4-7.8-3.5"/>
		<path class="st3" d="M414.1,119.4c0,0,3.6-2.1,7.1,0"/>
		<path class="st3" d="M408.9,129.3c0,0,9.8,11.8,17.6,0"/>
		<line class="st3" x1="386.1" y1="191.8" x2="384.7" y2="217.9"/>
		<line class="st3" x1="445.5" y1="190.3" x2="447.5" y2="216"/>
		<path class="st7" d="M404.6,150.4c0,0,11.4,13.1,24.9-0.1l10.4,4.1l-17.1,23.3l-6.3-20.6l-4.1,21.5L392,155.4L404.6,150.4z"/>
	</g>
	<path class="st1" d="M194.3,464.7c0,0-11.7,19.6-10.3,23c1.2,3,18,7.4,28.2,3.2c1.9-0.8,2.9-2.9,2.3-4.9l-6.1-21.3H194.3z"/>
	<path class="st1" d="M231.7,466c0,0-2.7,19.6,0,21.6c2.7,2,29.7,8.2,41.7-1.9c0,0,1.7-1.5-10-7.6c0,0-18.7-7.4-19.7-12.1
		S231.7,466,231.7,466z"/>
	<path class="st8" d="M196.3,317.8l-5.3,152c0,0,17.5-0.8,19,0l11.7-112.5l8.5,112.5c0,0,12.7,3.3,16.2,0c0,0,7-121.2,0-143.2
		L234,316.3h-23L196.3,317.8z"/>
	<polygon class="st9" points="158.9,328.4 188.9,318.3 200.9,354.4 171,364.9 	"/>
	<path class="st0" d="M171,341.5c0,0,0,23.9,4,25.4s4.4-0.9,4.4-0.9s4.5,2.3,5.4-1.4c0,0,5.9-0.9,3.8-7c0,0,4.8,1,5.4-1.3
		s-13.5-13.3-13.5-13.3L171,341.5z"/>
	<path class="st0" d="M263.8,337.5c0,0-6.1,13-4.4,15.2s5-3.9,5.4-2.6s3.1,15.4,4,10.9s0.8-9.4,2-7.9s7.1,12.3,6,4.6
		s-1.6-10-0.4-8.6s5.1,5.3,5.4,2.8s-3.6-6.5-3.6-6.5s8.6,0.6,2.4-3.4s-10.1-5.8-10.1-5.8L263.8,337.5z"/>
	<path class="st10" d="M214,226.6c0,0-3.6,0.3-8.1,1.6c-6.8,2-15.8,6.2-18.3,15.1c-4,14.7-18.2,100.2-18.2,100.2s9.3,4.2,12.3,1.7
		l13.2-69.7l-0.7,40.3l5.3,11.2c0,0,30.8,14.3,50.5,0.7l1.5-45.9l10.7,58.4c0,0,9.5,2,11.5-3.4c0,0-11.7-100.8-26.5-104.8l-16.7-6.3
		h-10.4L214,226.6z"/>
	<path class="st11" d="M214.6,213.5l0.9,14.7c0,0,7.6,6.6,15.1-0.7v-13L214.6,213.5z"/>
	<path class="st1" d="M205.5,144c0,0-31.7,6.3-26,45.3S218,216,218,216s27.1,6.2,38-7.7C267.3,193.8,266,126,205.5,144z"/>
	<ellipse class="st11" cx="196.6" cy="190.3" rx="4.3" ry="6.8"/>
	<ellipse class="st11" cx="251.7" cy="190.3" rx="4.3" ry="6.8"/>
	<path class="st3" d="M190.5,167.8c0,0,13.5,16.5,35.3,13c0,0-10.3-7.8-11.2-13c0,0,17.7,11.5,23.5,9.7l-5.7-10.3
		c0,0,15.8,6.2,20.2,13"/>
	<path class="st0" d="M251.7,185.3c0,18-13.8,36.7-28.1,36.7c-14.3,0-27.4-19.6-27.4-37.7c0-3.8,0.6-7.3,1.7-10.3
		c6.1,4.3,15.8,8.8,28.3,6.8c0,0-10.3-7.8-11.2-13c0,0,17.7,11.5,23.5,9.7l-5.7-10.3c0.4,0.2,12,4.7,17.9,10.3
		C251.3,179.9,251.7,182.5,251.7,185.3z"/>
	<path class="st3" d="M206.5,185.8c0,0,5.8-3.6,9.8-1"/>
	<path class="st3" d="M230.6,183.8c0,0,5.9-1.7,8.8,2"/>
	<ellipse cx="213.1" cy="192.4" rx="2.4" ry="4.6"/>
	<ellipse cx="234.5" cy="192.4" rx="2.4" ry="4.6"/>
	<path class="st6" d="M214.1,191.9c0,0.6-0.5,1.1-1.1,1.1c-0.6,0-1.1-0.5-1.1-1.1s0.5-1.1,1.1-1.1
		C213.7,190.8,214.1,191.3,214.1,191.9z"/>
	<circle class="st6" cx="234.5" cy="192.1" r="1.1"/>
	<path class="st12" d="M220.6,199.6c0,0,3.3-2.6,7.4,0"/>
	<path class="st3" d="M217.5,207.4c0,0,7.7,8.3,14.6-0.4"/>
	<path class="st13" d="M205.3,229.1c0,0,18.6,22.7,34.2,0"/>
	<circle class="st14" cx="208.6" cy="265.7" r="6.5"/>
	<line class="st3" x1="251.7" y1="281.8" x2="250.8" y2="261.7"/>
	<path class="st3" d="M171,334.7c0,0,5,4.4,11.9,2"/>
	<path class="st3" d="M261,332.7c0,0,8.4,1.7,12-3.1"/>
	<path class="st3" d="M184,487.6c0,0,18.1-8.2,30.4-1.9"/>
	<path class="st3" d="M263.3,478.1c0,0-5.7,4.2-1.8,12.5"/>
	<polygon class="st15" points="188.9,318.3 194.3,315.8 204.6,346 201.3,353.3 	"/>
	<polyline class="st3" points="200.9,354.4 204.6,346 194.3,315.8 188.9,318.3 	"/>
	<path class="st0" d="M42.5,328.4c0,0-15.3,28.9-16.8,32.7S7.9,376.1,8.9,381c0,0,6.9,1,10.6-3s5.3-4.5,4.9-2.1s-0.9,5.8-0.1,6.4
		s4.8-4.3,4.9-7.9s2-6.1,3.3-8.5c2.5-4.8,20-27.4,20.3-29.1S42.5,328.4,42.5,328.4z"/>
	<path class="st16" d="M40.5,318.9c0,0-3.4,3-3.5,4.1s8.6,14.6,16.6,15.1c0,0,5.1-2,5.9-4.4s-10.1-9.6-10.1-9.6L40.5,318.9z"/>
	<path class="st4" d="M73.3,486.3c-4.5,2.5-18.3,1-20.6,0c-1.8-0.7,2.7-9.5,5.1-14v1c0,0,6.8,7,12.8,0c0,0,0,0,0,0
		C73,477.6,76.3,484.6,73.3,486.3z"/>
	<path class="st4" d="M123.4,484.9c-7.9,0.6-23.4,1.6-24.7-0.4c-1.3-2,0.5-9.2,1.6-12.8c1.8,1.2,7.1,4.2,12.7,1.3c0,0-0.1-1-0.3-2.5
		c7.2,2.9,11,6.5,13,9.2C127.3,481.8,126,484.7,123.4,484.9z"/>
	<path class="st0" d="M123.3,328.4c0,0,15.2,28.9,16.7,32.7s17.9,15,16.9,19.9c0,0-6.9,1-10.6-3s-5.3-4.5-4.9-2.1s0.9,5.8,0.1,6.4
		s-4.8-4.3-4.9-7.9s-2-6.1-3.3-8.5c-2.5-4.8-20-27.4-20.2-29.1S123.3,328.4,123.3,328.4z"/>
	<path class="st10" d="M59.3,362.8l-1.5,109.5c0,0,7,7.3,12.8,1L85,396l15.3,75.7c0,0,7.4,6.3,12.7,1.3c0,0-2.5-102.3-7.8-110.3
		H59.3z"/>
	<path class="st16" d="M125.3,318.9c0,0,3.4,3,3.5,4.1s-8.6,14.6-16.6,15.1c0,0-5.1-2-5.9-4.4s10.1-9.6,10.1-9.6L125.3,318.9z"/>
	<path class="st17" d="M72.6,288.6c0,0-9.1,1.7-14.9,8.7L38.3,319c0,0,8.9,14.7,19.4,16l-0.5,31c0,0,30.8,13.3,49.9,0v-30
		c0,0,15.7-5.7,19.4-16c0,0-9.4-15-17.2-24.3c-3.7-4.5-9.3-7.1-15.1-7.1l-1.1,0C93.3,288.6,82.2,295.8,72.6,288.6z"/>
	<line class="st3" x1="58.4" y1="310.1" x2="57.8" y2="335.7"/>
	<line class="st3" x1="106.3" y1="311.4" x2="107.2" y2="336.8"/>
	<path class="st3" d="M59.5,481.8c0,0,5.8-0.3,7.6,0"/>
	<path class="st3" d="M115.9,480.4c0,0,5.9-0.5,6.9-3.8"/>
	<path class="st18" d="M95.8,278.1l-2.7,1.7l9.1,2.2l7.9-1.1l6.1-3.4l5.8-7c0,0,4.7-7.3,4.7-14.5s-0.5-12.1-0.5-12.1
		s-1.8-11.4-3.8-13.9c-2-2.5-3.6-9.3-5.9-10.6c-2.3-1.3-4.3-7.3-8.5-8.9l-6.5-3.9l-5.3-1.7l-6.8-0.5l-1.4,0.9l-4.1-1.5l-3.6-0.4
		l-5.4,1l-2,1l-3.3-0.1l-7.6,2.2l-4.7,3.1l-6.4,6.7l-4.9,9c0,0-2.1,5.6-2.4,6.9s-2.2,13.9-2,16.6c0.2,2.7,1.9,12.8,2.9,15.2
		c1,2.4,4.2,7.9,4.8,8.7c0.6,0.7,5.1,5.7,9,6.4c3.9,0.7,5.6,1.2,7.8,1.3c2.2,0.1,5.9-1.5,5.9-1.5l1.8-6.8l12.1-0.4
		c0,0,5.5,1.6,5.9,1.7s4,1.5,4,1.5V278.1z"/>
	<path class="st19" d="M93.1,295.5l-2.1,0.8l-7.1,1c0,0-7.2-0.9-9.4-2.2s-1.5-1.4-1.5-1.4l-0.4-14.6c0,0-11.3-5.7-14.3-11.2
		c-3-5.4-4.7-10.1-4.7-10.1l-1-10.4l2.8-3.1l2.3-4.1l2,1.4L62,242l3.3-4.1l2.7-5.9l1,2.4l2.2,1.4l1.7-1.5l2.9-6l0.1,3.2l1.4,1.4
		l2.5-0.2l2.4-2.4l2.1,1.4l1.9,1.5l2.3,0.3l2.3-2l2.1-3.1l1,3l2.2,4.2l1.2,1.8h1.3l2.4-1.9l1.3,4.1l1.6,2l2.8-0.4l1,3.5l1.2,2
		l2.5-0.3l1.2-1.6l0.3,7.2l-2.7,10.9l-4.8,7.6L98,277l-5.3,3.1L93.1,295.5z"/>
	<path class="st20" d="M112.9,244.6c0.4-0.1,0.8-0.2,1.2-0.1c2.4,0.3,4,3.8,3.6,7.9c-0.5,4.1-2.8,7.1-5.3,6.8
		c-0.2,0-0.4-0.1-0.6-0.1"/>
	<path class="st21" d="M52.6,246.9c0,0.2,0,0.4,0,0.6"/>
	<path class="st22" d="M54.6,260.9c1.6,4.2,4,7.9,7,11c2.5,2.5,5.4,4.6,8.5,6.2c3.9,1.9,8.2,2.9,12.7,2.9c4.6,0,8.9-1,12.8-2.9
		c3.3-1.6,6.3-3.8,8.8-6.4c3.3-3.5,5.9-7.8,7.4-12.6c0.9-3,1.4-6.2,1.4-9.5c0-1.7-0.1-3.3-0.4-4.9"/>
	<path class="st23" d="M72.6,279.1L72.6,279.1v2.7v0.9v11.2c10.8,8.4,21,1.6,21,1.6"/>
	<polyline class="st22" points="93.6,295.5 92.8,282.4 92.7,280.1 92.7,280.1 	"/>
	<path class="st20" d="M54.6,260.9c-0.4,0.3-0.8,0.5-1.2,0.6c-2.4,0.5-5.1-2.3-5.9-6.3c-0.9-4,0.4-7.6,2.8-8.2
		c0.7-0.2,1.5,0,2.2,0.4c0,0.7,0,1.6,0,2.1C52.6,253.6,53.3,257.4,54.6,260.9z"/>
	<path class="st21" d="M52.6,247.5C52.6,247.5,52.6,247.5,52.6,247.5"/>
	<path class="st22" d="M72.6,280.1c-2.8,0.9-8.2,2-11.1,1.6c-14-2.2-22.6-21.1-19.2-42c3.3-20.6,17-35.6,30.7-34"/>
	<path class="st22" d="M87.3,205.4c14.3-3.7,30.7,9.5,36.9,30c6.3,20.9-0.3,41.3-14.8,45.7c-4.5,1.4-12.3,0.7-16.8-1"/>
	<path class="st21" d="M73,205.7c2.1-1.3,4.6-2,7.4-2c2.5,0,4.9,0.6,6.9,1.7"/>
	<path class="st22" d="M48.9,228.8c0,0-0.6,29.6,7.4,13.1c0,0,0.9-1.6,1.9-3.5c1.4-2.6,3.2-5.7,3.8-6.4"/>
	<path class="st22" d="M112.9,244.6c0,0-3.8,6.9-5.9-3.6c0,0-4,3.5-5.4-5.2"/>
	<path class="st22" d="M103.2,228.8c0,0-2,14.4-7.5,5.7c0,0-2.8-5.1-2.8-7.9c0,0-2.7,13.1-10,3c0,0-7.6,8.7-6.9-2.2
		c0,0-4.3,15.3-7.9,4.6c0,0-5.6,16.3-10.3,7.4"/>
	<path class="st22" d="M109.2,216.5c0,0,7.1,10.9,7.9,20.7"/>
	<path class="st22" d="M62,217.6c0,0-6.4,5.4-7.4,13.1"/>
	<ellipse cx="72" cy="249" rx="3" ry="5.3"/>
	<circle class="st24" cx="72.1" cy="247.5" r="1.7"/>
	<ellipse cx="93.3" cy="248.4" rx="3" ry="5.3"/>
	<path class="st22" d="M65.6,248.4c0-0.7,5.7-8,11.4-2.2"/>
	<circle class="st24" cx="93.3" cy="247.5" r="1.7"/>
	<path class="st22" d="M99.5,247.8c0-0.7-5.7-8-11.4-2.2"/>
	<path class="st22" d="M64.3,243.7c0,0,5.3-4.1,10.8-3.2"/>
	<path class="st22" d="M88.7,239.6c0,0,6.9-1.5,10.7,3.8"/>
	<path class="st22" d="M80,256.8c0,0,3.9-3.3,7.4,0"/>
	<path class="st22" d="M73.8,265.4c0,0,8.9,17.3,20.3,0"/>
	<path d="M341.7,122.5l-25.5-29l-4.8,10.7l-66.1-29.7c-3.2-1.4-6.7-0.6-7.9,2c-1.1,2.5,0.5,5.8,3.8,7.2l66.1,29.7l-4.2,9.2
		L341.7,122.5z"/>
</g>
</svg>
