<?xml version="1.0" encoding="utf-8"?>
<!-- Generator: Adobe Illustrator 22.1.0, SVG Export Plug-In . SVG Version: 6.00 Build 0)  -->
<svg version="1.1" id="Слой_3" xmlns="http://www.w3.org/2000/svg" xmlns:xlink="http://www.w3.org/1999/xlink" x="0px" y="0px"
	 viewBox="0 0 512 512" style="enable-background:new 0 0 512 512;" xml:space="preserve">
<style type="text/css">
	.st0{fill:#EABB53;stroke:#000000;stroke-width:2;stroke-linecap:round;stroke-linejoin:round;stroke-miterlimit:10;}
	.st1{fill:none;stroke:#000000;stroke-width:5;stroke-linecap:round;stroke-linejoin:round;stroke-miterlimit:10;}
	.st2{fill:#857154;stroke:#000000;stroke-width:2;stroke-linecap:round;stroke-linejoin:round;stroke-miterlimit:10;}
	.st3{fill:none;stroke:#000000;stroke-width:6;stroke-linecap:round;stroke-linejoin:round;stroke-miterlimit:10;}
	.st4{fill:#AAD3E5;stroke:#000000;stroke-width:2;stroke-linecap:round;stroke-linejoin:round;stroke-miterlimit:10;}
</style>
<g>
	<path class="st0" d="M332.7,433.5c-17.1,8.7-94.6,43.4-161.2-1.8c0,0-4-143.2,0-158.5c3.9-15,34.8,35,92,21.6
		c2.8-0.7,59.8-26,66.7-18.9c7.1,7.2,5.5,129.2,5.9,152.1C336.1,430.2,334.8,432.4,332.7,433.5z"/>
	<path class="st1" d="M126,272.4c0,0,152.5,25.7,260-2.2"/>
	<g>
		<polygon points="176.5,284.8 173.1,248.1 175.9,245.4 		"/>
		<g>
			<polygon class="st2" points="187.5,286.4 176.5,286.4 176.5,245.4 187.5,245.4 187.5,264.6 			"/>
			<line class="st2" x1="182" y1="263.8" x2="187.5" y2="263.8"/>
		</g>
	</g>
	<g>
		<polygon points="318.6,287.9 315.3,251.1 318,248.5 		"/>
		<g>
			<polygon class="st2" points="329.6,289.5 318.6,289.5 318.6,248.5 329.6,248.5 329.6,267.7 			"/>
			<line class="st2" x1="324.1" y1="266.8" x2="329.6" y2="266.8"/>
		</g>
	</g>
	<path d="M314.7,123.6l5.3-38.2l9.9,6.3l38.8-61.3c1.9-3,5.3-4.2,7.7-2.7s2.7,5.1,0.8,8.1l-38.8,61.3l8.6,5.4L314.7,123.6z"/>
	<line class="st3" x1="248.2" y1="75.4" x2="248.2" y2="248.7"/>
	<path class="st4" d="M297.6,91.8l-7.3,12.6c-3.2,5.6,0.8,12.6,7.3,12.6h0c6.5,0,10.5-7,7.3-12.6L297.6,91.8z"/>
	<path class="st4" d="M282.3,149.5l-7.3,12.6c-3.2,5.6,0.8,12.6,7.3,12.6h0c6.5,0,10.5-7,7.3-12.6L282.3,149.5z"/>
	<path class="st4" d="M329.6,133.8l-7.3,12.6c-3.2,5.6,0.8,12.6,7.3,12.6h0c6.5,0,10.5-7,7.3-12.6L329.6,133.8z"/>
	<path class="st4" d="M306.3,207.1l-7.3,12.6c-3.2,5.6,0.8,12.6,7.3,12.6h0c6.5,0,10.5-7,7.3-12.6L306.3,207.1z"/>
	<path class="st4" d="M187.5,419.1l-7.3,12.6c-3.2,5.6,0.8,12.6,7.3,12.6h0c6.5,0,10.5-7,7.3-12.6L187.5,419.1z"/>
	<path class="st4" d="M167.5,446.8l-7.3,12.6C157,465,161,472,167.5,472h0c6.5,0,10.5-7,7.3-12.6L167.5,446.8z"/>
	<path class="st4" d="M229.8,459.7l-7.3,12.6c-3.2,5.6,0.8,12.6,7.3,12.6h0c6.5,0,10.5-7,7.3-12.6L229.8,459.7z"/>
	<path class="st4" d="M227.1,406.4l-7.3,12.6c-3.2,5.6,0.8,12.6,7.3,12.6h0c6.5,0,10.5-7,7.3-12.6L227.1,406.4z"/>
	<path class="st4" d="M263.5,388.1l-7.3,12.6c-3.2,5.6,0.8,12.6,7.3,12.6h0c6.5,0,10.5-7,7.3-12.6L263.5,388.1z"/>
	<path class="st4" d="M280.5,447.1l-7.3,12.6c-3.2,5.6,0.8,12.6,7.3,12.6h0c6.5,0,10.5-7,7.3-12.6L280.5,447.1z"/>
	<path class="st4" d="M302.1,409.1l-7.3,12.6c-3.2,5.6,0.8,12.6,7.3,12.6h0c6.5,0,10.5-7,7.3-12.6L302.1,409.1z"/>
	<path class="st4" d="M325.1,443.7l-7.3,12.6c-3.2,5.6,0.8,12.6,7.3,12.6h0c6.5,0,10.5-7,7.3-12.6L325.1,443.7z"/>
	<path class="st4" d="M343.9,177.8l-7.3,12.6c-3.2,5.6,0.8,12.6,7.3,12.6h0c6.5,0,10.5-7,7.3-12.6L343.9,177.8z"/>
</g>
</svg>
