<?xml version="1.0" encoding="utf-8"?>
<!-- Generator: Adobe Illustrator 22.1.0, SVG Export Plug-In . SVG Version: 6.00 Build 0)  -->
<svg version="1.1" id="Слой_5" xmlns="http://www.w3.org/2000/svg" xmlns:xlink="http://www.w3.org/1999/xlink" x="0px" y="0px"
	 viewBox="0 0 512 512" style="enable-background:new 0 0 512 512;" xml:space="preserve">
<style type="text/css">
	.st0{fill:#938A3B;stroke:#000000;stroke-width:3;stroke-miterlimit:10;}
	.st1{fill:#FFF1AB;}
	.st2{fill:#B5D758;}
	.st3{fill:none;stroke:#000000;stroke-width:3;stroke-linecap:round;stroke-linejoin:round;stroke-miterlimit:10;}
	.st4{fill:#FFF1AB;stroke:#000000;stroke-width:3;stroke-linecap:round;stroke-linejoin:round;stroke-miterlimit:10;}
	.st5{fill:#335160;stroke:#000000;stroke-width:3;stroke-linecap:round;stroke-linejoin:round;stroke-miterlimit:10;}
	.st6{fill:#426A81;stroke:#000000;stroke-width:3;stroke-linecap:round;stroke-linejoin:round;stroke-miterlimit:10;}
	.st7{fill:#AAD3E5;stroke:#000000;stroke-width:3;stroke-linecap:round;stroke-linejoin:round;stroke-miterlimit:10;}
	.st8{fill:#FFD25B;stroke:#000000;stroke-width:3;stroke-linecap:round;stroke-linejoin:round;stroke-miterlimit:10;}
	.st9{fill:none;stroke:#000000;stroke-width:3;stroke-linecap:round;stroke-linejoin:round;}
	.st10{fill:none;stroke:#000000;stroke-width:3;stroke-linecap:round;stroke-linejoin:round;stroke-dasharray:10.0064,5.5591;}
	.st11{fill:none;stroke:#000000;stroke-width:3;stroke-linecap:round;stroke-linejoin:round;stroke-dasharray:8.1865,4.5481;}
	
		.st12{fill:none;stroke:#000000;stroke-width:3;stroke-linecap:round;stroke-linejoin:round;stroke-miterlimit:10;stroke-dasharray:9,5;}
	.st13{fill:#635A44;stroke:#000000;stroke-width:3;stroke-linecap:round;stroke-linejoin:round;stroke-miterlimit:10;}
	.st14{fill:#FFEC66;stroke:#000000;stroke-width:3;stroke-linecap:round;stroke-linejoin:round;stroke-miterlimit:10;}
	.st15{fill:#F2DE29;stroke:#000000;stroke-width:3;stroke-linecap:round;stroke-linejoin:round;stroke-miterlimit:10;}
</style>
<g>
	<path class="st0" d="M332.9,257.7c0,0,49.8,20.5,98.8,2.9c0,0,3.3-3.7,0-7c-3.3-3.3-97-11.6-99.4,0
		C330.2,263.1,332.9,257.7,332.9,257.7z"/>
	<path class="st1" d="M264.2,376.5c0,0-6.4,3.6-5.6,6.8c0.7,3.2,4.7,6.8,5.6,8.3c0.9,1.5,2.4,11.3,2.4,11.3l8.3,5.8h7.8h10.5l5.4,2
		l5.6,9.5l6,6.3h5.5c0,0,12.3-3,13.3-2.9c1,0.1,6.5,0,6.5,0l7.5,7.5l8.3,6.1c0,0,6.3,1.3,7,1.3s9.3-4.8,9.3-4.8l7.8-2.3l6.4,2l7.3,5
		l6.3,3.5c0,0,8.8-3.9,11.3-6.1s9-5.7,9-5.7s3.3-1.5,8.5,1.5s11.8,3.8,11.8,3.8l5.3-2l8.3-9.9l6-5.9l7-0.5l11.5,0.8c0,0,4,0,4.8-1.3
		s6-8.2,6.1-10.1c0.1-1.9,3.1-7.6,3.1-7.6l3.5-3.5l1.9-4.8l-1.3-6.3l-1.7-1.6l-127.1,6.7c0,0-61-3.3-63-4S264.2,376.5,264.2,376.5z"
		/>
	<path class="st2" d="M332.9,260.6c0,0-27.5,33.8-38.6,77.8c0,0-10.8,25.7-30.1,38.1c0,0,6.9,18.7,24.4,16.6l-3.4,5.1
		c0,0,17.9,8,29.9,8.3l10.8-0.6l-3.4,5.8c0,0,14.7,9.4,19.9,9.4c5.2-0.1,15.4,1.5,15.4,1.5l13.4-3.7l20.4,4.6l16.1-0.8l14.1-4.1
		l6.3-4.4l10.2,1.3l13.9-1.9l10.7-6.2l4-4.1l-3.2-2.6l4.4-1.5l12.3-6.8l9.6-9.9l-6.6-5.7L471,358.2l-14.1-41.5L446.5,290l-11.1-19.9
		l-6.1-5.5l-40.5,5.1l-19-2.9l-16.4-2.2l-8.5-2.8l-7-0.6L332.9,260.6z"/>
	<path class="st3" d="M332.9,260.6c0,0-19.4,17.6-34.4,66.6c-3.7,12-9.5,23.3-17.3,33.1c-5.9,7.4-12.5,14.2-17,14.2
		c0,0,3.7,19.3,22.7,19"/>
	<path class="st3" d="M343.9,264.6c0,0-23.7,36.6-38.3,94.2c0,0-9.7,29.7-21.3,38.7c0,0,14.7,11.7,41.7,8.4"/>
	<path class="st3" d="M359.2,268.5c0,0-14.3,34.3-20.3,85.3s-16.3,56-17,57s26.3,19.7,49.3,8c0,0,3.3-34.7,2.7-59
		c-0.6-21.9,4.3-88,4.3-88"/>
	<path class="st3" d="M398.6,268.5c0,0,9.8,30.3,13.3,54.3c3.5,23.7,9.3,87.7,16.3,91.3c0,0-15.7,17.3-57,4.7"/>
	<path class="st3" d="M418.2,266.8c0,0,11.4,18.7,15.7,43.7s5.6,77,33,92.3c0,0-10,17.7-38.7,11.3"/>
	<path class="st3" d="M463.7,400.8c19.3-5.7,26.9-18.9,26.9-18.9c-19.3-7.3-28.7-56-41.3-85.7c-12.7-29.7-19.3-31.6-19.3-31.6"/>
	<path class="st4" d="M332.2,253.6l-2,9.5c0,0,43.7,23.7,103.7,5.7c0,0,0.3-8.8-1.7-12C432.2,256.8,387.9,275.1,332.2,253.6z"/>
	<g>
		<path class="st3" d="M260.9,388.5c8.4,6.3,0.9,13.2,12.2,19.6c5.2,3,16.1-2.5,23.2,0.9c5.9,2.8,8.4,14.8,15.4,17.4
			c6.3,2.4,16.1-4.8,23.1-2.8c6.5,1.9,11.1,13.2,18.2,14.5c6.7,1.2,15-7.7,22.1-7.1c6.9,0.5,13.7,10.7,20.8,10.4
			c6.9-0.3,12.8-10.9,19.9-12c6.8-1.1,15.9,7,22.7,5c6.5-2,9.6-13.8,16.2-16.7c6.2-2.8,17.1,2.8,23.2-1c5.8-3.5,5.9-15.7,11.6-20.2"
			/>
	</g>
	<path class="st3" d="M260.6,388.3c0,0-6.3-6.5,3.7-11.8"/>
	<path class="st3" d="M489.2,396.8c0,0,7.7-3.3,1.3-15"/>
	<g>
		<path class="st5" d="M52.6,224c0,0,59.5-16.5,135,0l-24.2,23.3l-72.3,12.4c0,0-26.9-6.8-26.9-6.8C64.3,252.9,52.6,224,52.6,224z"
			/>
		<path class="st6" d="M204.1,464c-34.5,25-54,2-54,2s-19.5-135.5-23-150.5s-8-12.3-9.5-8.8c-2.8,6.6-26,162.8-26,162.8
			c-42,11.5-57.5-6-57.5-6l16.8-218l1.7-21.5c62,36,135,0,135,0l1.4,20.4L204.1,464z"/>
		<path class="st7" d="M91.6,469.5l-3,21.5c-35.5,19.5-60.2-7-60.2-7l3-21.8l2.8,1.3C34.1,463.5,49.6,481,91.6,469.5z"/>
		<path class="st7" d="M150.1,466h-3.5l1.8,25.3c0,0,33,22.2,60.8-6l-2.5-23h-2.5C204.1,462.3,178.4,490.3,150.1,466z"/>
		<path class="st3" d="M47.4,292.3c0,0,38,11.9,33.5-33.1"/>
		<path class="st3" d="M50.8,248c0,0,79.1,34.8,136.9-2.2"/>
		<path class="st3" d="M107.9,239.8c0,0-5,44.2,9.7,63.9"/>
		<path class="st3" d="M156,234.9c0,0,2.1,9.1,0,22.6"/>
		<path class="st3" d="M162.8,233.1c0,0,2.3,11.2-0.8,24.4c0,0-5.1,44,29.2,34.5"/>
		<path class="st3" d="M86.6,237.1c0,0-5,11.2-1.8,20.4"/>
		<path class="st3" d="M79.3,235.3c0,0-7.1,7.4-2.6,21.2"/>
		<circle class="st8" cx="120.6" cy="252" r="6.3"/>
		<g>
			<g>
				<path class="st9" d="M86.6,262.8c0,0,0.4,1.7,0.5,4.5"/>
				<path class="st10" d="M87.1,272.8c-0.8,10.5-5.9,25.6-29,26.8"/>
				<path class="st9" d="M55.3,299.7c-1.4,0-2.9,0-4.5-0.1"/>
			</g>
		</g>
		<g>
			<g>
				<path class="st9" d="M152.6,263.2c0,0-0.3,1.7-0.4,4.5"/>
				<path class="st11" d="M152.1,272.3c0.5,11.5,5.1,30.1,30.1,31.4"/>
				<path class="st9" d="M184.5,303.8c1.4,0,2.9,0,4.5-0.1"/>
			</g>
		</g>
		<path class="st12" d="M128.4,266.5c0,0,2.3,26-6.5,33.1"/>
		<line class="st12" x1="50.8" y1="309" x2="40.6" y2="459.5"/>
		<line class="st12" x1="187.6" y1="311.5" x2="199.1" y2="459.5"/>
	</g>
	<path class="st13" d="M155.2,94.3c0,0-0.5,29.7,22.9,33.7l7.3-19l-14.1-18L155.2,94.3z"/>
	<path class="st13" d="M230.1,21.7c0,0,32.6,20.9,63.2-2.1L288.4,57c0,0-34,20.5-37,15S233,53.5,232,50.5c-1-3-1.9-20-1.9-20V21.7z"
		/>
	<path class="st13" d="M350.7,125c0,0,21.4,2,24.8-31.5L350.7,91l-4.4,14.5L350.7,125z"/>
	<path class="st14" d="M204.3,110l-26.3,18c1.9-27-22.9-33.7-22.9-33.7l48.7-47.3l1.5-1.5C205.4,45.6,218.9,81,204.3,110z"/>
	<path class="st14" d="M375.5,93.5c-17.5-2-24.8,31.5-24.8,31.5l-27.2-13.5c0,0-15.3-34.3,1.7-63.3L375.5,93.5z"/>
	<path class="st15" d="M323.4,111.5V228c-72.9,26-117.2,3.1-117.2,3.1L204.3,110c14.6-29,1.1-64.4,1.1-64.4l24.7-23.9
		c36.5,45.2,63.2-2.1,63.2-2.1l9.2,8.3l22.7,20.4C308.1,77.2,323.4,111.5,323.4,111.5z"/>
	<path class="st3" d="M224,29.3c0,0,39.7,48.8,78.5-1.5"/>
</g>
</svg>
