<?xml version="1.0" encoding="utf-8"?>
<!-- Generator: Adobe Illustrator 22.1.0, SVG Export Plug-In . SVG Version: 6.00 Build 0)  -->
<svg version="1.1" id="Слой_3" xmlns="http://www.w3.org/2000/svg" xmlns:xlink="http://www.w3.org/1999/xlink" x="0px" y="0px"
	 viewBox="0 0 512 512" style="enable-background:new 0 0 512 512;" xml:space="preserve">
<style type="text/css">
	.st0{fill:#857154;}
	.st1{fill:#FDCD95;}
	.st2{fill:#FDCD95;stroke:#000000;stroke-width:3;stroke-linecap:round;stroke-linejoin:round;stroke-miterlimit:10;}
	.st3{fill:none;stroke:#1D1D1B;stroke-width:3;stroke-linecap:round;stroke-linejoin:round;stroke-miterlimit:10;}
	.st4{fill:none;stroke:#000000;stroke-width:3;stroke-linecap:round;stroke-linejoin:round;stroke-miterlimit:10;}
	.st5{fill:#F6F6F6;}
	.st6{fill:#B5D758;stroke:#000000;stroke-width:3;stroke-linecap:round;stroke-linejoin:round;stroke-miterlimit:10;}
	.st7{fill:none;stroke:#000000;stroke-width:3;stroke-miterlimit:10;}
	.st8{fill:#DADADA;stroke:#000000;stroke-width:3;stroke-linecap:round;stroke-linejoin:round;stroke-miterlimit:10;}
	.st9{fill:#36A9E1;stroke:#000000;stroke-width:3.1652;stroke-linecap:round;stroke-linejoin:round;stroke-miterlimit:10;}
</style>
<g>
	<path d="M362.1,364.7c0,0,4.1,6.1,10.6-5s-12.5-19.5-12.5-19.5l-9.4-6.6l4,14.1L362.1,364.7"/>
	<path d="M178.5,209.6c0,0,18.3-6.7,36.3-3.2l0.3,22.5c0,0-31.7-11.4-31.4-12.2C184,215.8,178.5,209.6,178.5,209.6z"/>
	<path d="M272.5,202.9c0,0,24.6,2.4,39.2,16.9l-8.9,12l-24.2,9l-5.4-6.2l0-5.2L272.5,202.9z"/>
	<path class="st0" d="M272.5,199.1v5.3l14.5,3.4l17.7-2.4l13.7-7.6l13-15.7c0,0,10.6-16.3,10.5-32.6c-0.1-16.2-1.1-27.2-1.1-27.2
		s-4.1-25.6-8.5-31.2c-4.4-5.6-8.1-20.9-13.2-23.8S309.3,51,300,47.5l-14.5-8.7L273.6,35l-15.4-1.1l-3,2l-9.3-3.3l-8-1l-12,2.2
		l-4.6,2.3l-7.5-0.2l-17.2,5l-10.7,7l-14.3,15l-11,20.3c0,0-4.7,12.7-5.4,15.6c-0.8,2.9-5,31.3-4.6,37.4c0.4,6.1,4.2,28.8,6.5,34.2
		c2.3,5.4,9.5,17.8,10.8,19.5s11.5,12.9,20.4,14.4c8.9,1.6,12.5,2.8,17.5,3s9.1-1.9,9.1-1.9l8.3-16.8l27.1-0.8
		c0,0,12.3,3.5,13.3,3.8c1.1,0.3,9,3.5,9,3.5V199.1z"/>
	<path class="st1" d="M274.4,235.2l-12.6,4.9l-16,2.3c0,0-18.2-0.7-23.4-3.6c-5.2-2.9-7.6-4.6-7.6-4.6l1.2-34.5
		c0,0-20.9-11.1-27.8-23.3c-6.9-12.2-10.5-22.7-10.5-22.7l-2.3-23.3l6.4-6.9l5.1-9.3l4.6,3.2l5.1,0.6l7.5-9.3l6-13.3l2.3,5.3l5,3.2
		l3.9-3.4l6.5-13.5l0.3,7.2l3.2,3.1l5.6-0.5l5.4-5.5l4.7,3.1l4.3,3.4l5.3,0.7l5.1-4.4l4.7-7.1l2.3,6.8l4.9,9.5l2.7,4h2.9l5.5-4.2
		l3,9.2l3.5,4.5l6.4-0.9l2.2,7.9l2.8,4.4l5.5-0.6l2.8-3.5l0.6,16.2l-6.1,24.5l-10.9,17l-17.1,14.9l-6.6,3.1L274.4,235.2z"/>
	<path class="st2" d="M310.9,123.9c0.9-0.3,1.8-0.4,2.7-0.3c5.5,0.6,9.1,8.5,8.1,17.7c-1.1,9.1-6.4,16-11.9,15.4
		c-0.4-0.1-0.9-0.1-1.3-0.3"/>
	<path class="st3" d="M175.2,128.9c0,0.4,0,0.8,0,1.4"/>
	<path class="st4" d="M179.8,160.5c3.5,9.4,8.9,17.8,15.7,24.7c5.6,5.7,12.1,10.4,19.2,13.9c8.7,4.2,18.4,6.5,28.7,6.5
		s20-2.3,28.7-6.5c7.4-3.6,14.1-8.5,19.8-14.4c7.5-7.9,13.3-17.5,16.6-28.3c2.1-6.8,3.2-14,3.2-21.5c0-3.7-0.3-7.4-0.8-11"/>
	<path class="st4" d="M214.8,199.1L214.8,199.1v6.4v2v26.7c26.8,19.9,59.6,1,59.6,1"/>
	<polyline class="st4" points="274.4,235.2 272.5,204.4 272.1,199.1 272.1,199.1 	"/>
	<path class="st2" d="M179.8,160.5c-0.8,0.6-1.7,1.1-2.7,1.3c-5.4,1.2-11.4-5.2-13.3-14.2c-1.9-9,0.9-17.2,6.3-18.4
		c1.7-0.4,3.4,0,5,0.9c0,1.5,0,3.5,0,4.6C175.2,143.9,176.8,152.6,179.8,160.5z"/>
	<path class="st3" d="M175.3,130.3c-0.1,0-0.1-0.1-0.2-0.1"/>
	<path class="st4" d="M214.8,205.4c-6.3,2.1-12.8,2.7-19.3,1.6c-31.5-5.1-50.9-47.4-43.3-94.5c7.5-46.3,38.2-80.1,69.1-76.4"/>
	<path class="st4" d="M253.4,35.5c32.2-8.3,69.1,21.4,83.1,67.5c14.3,46.9-0.6,93-33.2,102.9c-10,3-20.6,2.3-30.8-1.5"/>
	<path class="st3" d="M221.2,36.1c4.7-2.8,10.4-4.5,16.6-4.5c5.7,0,11,1.4,15.5,3.9"/>
	<path class="st4" d="M167,88.3c0,0-1.4,66.6,16.7,29.5c0,0,2-3.6,4.4-7.9c3.2-5.8,7.2-12.9,8.4-14.5"/>
	<path class="st4" d="M310.9,123.9c0,0-8.6,15.6-13.2-8.2c0,0-8.9,7.8-12.1-11.7"/>
	<path class="st4" d="M289,88.3c0,0-4.6,32.4-16.9,12.8c0,0-6.2-11.4-6.2-17.8c0,0-6.1,29.5-22.5,6.8c0,0-17,19.6-15.6-5
		c0,0-9.6,34.4-17.8,10.3c0,0-12.5,36.6-23.2,16.7"/>
	<path class="st4" d="M302.6,60.5c0,0,16,24.6,17.8,46.6"/>
	<path class="st4" d="M196.5,63c0,0-14.5,12.1-16.7,29.5"/>
	<ellipse cx="219" cy="133.6" rx="6.8" ry="11.9"/>
	<circle class="st5" cx="219.2" cy="130.2" r="3.8"/>
	<ellipse cx="266.8" cy="132.3" rx="6.8" ry="11.9"/>
	<path class="st4" d="M204.5,132.3c0-1.6,12.8-17.9,25.6-4.9"/>
	<circle class="st5" cx="266.8" cy="130.2" r="3.8"/>
	<path class="st4" d="M280.8,130.9c0-1.6-12.8-17.9-25.6-4.9"/>
	<path class="st4" d="M201.6,121.7c0,0,11.9-9.2,24.2-7.3"/>
	<path class="st4" d="M256.6,112.5c0,0,15.5-3.3,24.2,8.5"/>
	<path class="st4" d="M236.8,151.3c0,0,8.8-7.5,16.5,0"/>
	<path class="st4" d="M223,170.5c0,0,20.1,39,45.6,0"/>
	<g>
		<path class="st2" d="M368,181.6c0,0-6.1-59.3,7.3-49.5c0,0,8,0.9,1.1,46.4l-8,4.9"/>
		<path class="st2" d="M344.4,342.1c0,0,32.7,25.1,45.8,21.5c13.2-3.6,19.5-36,19.8-48.4c0.3-11.4-9.1-71.3-5.7-80.9
			c3.4-9.6,17.9-49.4-5.5-46.3c0,0,1.6-15.7-9.2-11c0,0-0.6-8.2-4.9-6c0,0-0.5-4.9-10.2,2.5c0,0-8.2,4.1-9,4.7
			c-0.9,0.6-5,7.9-5,13.4c-0.1,5.6-15.3,31.6,1.7,41.2l1.3,62.6l-6.8,23.5l-3.9,9.3L344.4,342.1z"/>
		<path class="st4" d="M384.7,171c0,0,4.1,4.4-1.8,12.1c-5.9,7.7-10.2,13.9-7.9,17.8c2.2,3.9,10.1,13.9,9.1,20.3"/>
		<path class="st4" d="M374.2,235.1c0,0-4.9,2.1-12-2.3"/>
		<path class="st4" d="M386.9,238.1c0,0,11.5,2.6,17.5-3.8"/>
		<path class="st4" d="M401.5,196.7c0,0-6.9,16.3-13.6,11.1c-2.1-1.6-2.9-4.4-2.2-6.9c1.1-4.7,4.4-12.7,13.2-12.9"/>
		<path class="st4" d="M389.6,177c0,0,1,20.6-10,30.2"/>
	</g>
	<path class="st6" d="M199.1,207.7c0,0-38-2-53,32s-45,102.5-45,102.5s44-12.5,58.5-3l-9.5,127c0,0,106.5,32,196,0l-13-126l29,24.5
		c0,0-5.1-25.6,1.1-42.6c2.6-7,3.8-14.5,3.1-22l-3.5-36.2c-0.2-1-0.9-2.1-2.1-3.4c-6.7-7.7-14.5-14.4-22.9-20.3l-42.7-30.1
		C294,207.6,250.1,277.7,199.1,207.7z"/>
	<path class="st4" d="M156.6,289.7c0,0-2.5,39.5,3,49.5"/>
	<line class="st4" x1="322.6" y1="289.7" x2="333.5" y2="344"/>
	<g>
		<path class="st7" d="M207.9,335H184c-3.7,0-6.8-3-6.8-6.8v-27.6c0-3.7,3-6.8,6.8-6.8h23.8c3.7,0,6.8,3,6.8,6.8v27.6
			C214.6,331.9,211.6,335,207.9,335z"/>
		<path class="st7" d="M178.5,296.8l13.3,13.5c2.2,2.3,5.9,2.2,8-0.2l12.6-14.3"/>
	</g>
	<path class="st2" d="M108.7,340.3c0,0-20.4,33.1,1.5,49.8c6.4,4.9,14.6,6.6,22.5,5.3c14.8-2.5,47-8.5,75.1-18.7
		c10.2-3.7,21-5.7,31.9-5.6c7.3,0.1,15,1.1,20.9,4.1c15.8,8,25.3,10.8,31.3,10s28.2,3.7,30.8,3.8c6.8,0.3,17.5-4.8,2-13
		c0,0,7.6-3.3,3.4-8.5c0,0-2.2-3.3-5.4-2c0,0,3.5-12.8-5.5-12.3c0,0,4.3-11.8-6.5-12.9c0,0-3.1-24.8-46-6.9c-2.5,1.1-5.2,1.8-8,2
		c-19.2,1.9-97.2,9.4-103.8,6.8l0.7-5.4C153.6,336.7,130.4,333.1,108.7,340.3z"/>
	<path class="st4" d="M269.9,357.7c0,0,6.8,2,16.5-4.3c2.4-1.6,4.5-2.7,6.2-3.6c5.1-2.6,7.4-2.3,9.3-1.2"/>
	<path class="st4" d="M310.6,340.3c0,0,4.2,17-5,19.3c-2,0.5-4.1,0-5.9-1.1c-2.7-1.7-7.1-5-7.2-8.6"/>
	<path class="st4" d="M317.1,353.2c0,0-0.4,17.6-24.6,8.2c0,0-6.8-3.7,1.3-8.2"/>
	<path class="st4" d="M322.6,365.4c0,0-5.6,11.3-30.1,2.5c0,0-8.8-4.5,0-6.6"/>
	<path class="st4" d="M324.6,375.9c0,0-27.9,6-27.5-6.5"/>
	<path class="st8" d="M215.4,336.4c0,0-7.5,19.2,4.7,41l12.8-1.2c0,0-15.5-30.2-3-41.2L215.4,336.4z"/>
	<ellipse class="st9" cx="221.9" cy="333.7" rx="12.5" ry="5"/>
</g>
</svg>
