<svg enable-background="new 0 0 297.64 297.64" viewBox="0 0 297.64 297.64" xmlns="http://www.w3.org/2000/svg" xmlns:xlink="http://www.w3.org/1999/xlink"><clipPath id="a"><path d="m254.52 290.48h-210.23c-20.23 0-36.62-19.68-36.62-43.94v-195.58c0-24.27 16.4-43.94 36.62-43.94h210.22c20.22 0 36.62 19.67 36.62 43.94v195.58c.01 24.27-16.39 43.94-36.61 43.94z"/></clipPath><g clip-rule="evenodd"><path clip-path="url(#a)" d="m78.41 198.69c-4.79-23.05-11.53-36.47-18.17-37.92l-11.76-3.48c-8.5 5.04-13.9 14.79-15.92 30.14-3.34 25.42-2.43 56.92-2.43 56.92 16.2 2.39 32.79 2.99 48.16-.12 0 0-2.68-27.63-4.48-43.52 1.29-.25 3.27-.6 4.6-2.02z" fill="#bbe4f9" fill-rule="evenodd"/><g clip-path="url(#a)" fill="#7f4b23" fill-rule="evenodd"><path d="m103.19 177.26.37 8.31 191.51 59.08-.51-6.68z"/><path d="m292.2 228.96 7.45-239.47-187.88 17.09.57 167.48z"/></g><path clip-path="url(#a)" d="m112.34 174.52 192.7 59.45-4.52 4.43-197.33-60.99z" fill="#583217" fill-rule="evenodd"/><path clip-path="url(#a)" d="m292.11 219.33-1.12-216.36-172.74.41.59 166.72z" fill="#416b5c" fill-rule="evenodd"/><path clip-path="url(#a)" d="m183.92 150.5c-2.64-5.49-18.95 10.82-15.77 13.83 3.78 3.57 15.77-13.83 15.77-13.83z" fill="#c1918b" fill-rule="evenodd"/><path clip-path="url(#a)" d="m205.08 236.13c-1.53 18.85.41 55.49.41 55.49 14.45 1.56 35.52.59 57.71-1.41 0 0-.11-39.91.17-56.71-19.79.67-40.09 4.32-58.29 2.63z" fill="#72a9ad" fill-rule="evenodd"/><path clip-path="url(#a)" d="m184.59 149.26c1.1 4.78-12.81 17.08-16.45 16.26 4.34 10.42 20.8 51.3 30.38 51.96 12.68.88 23.1-44.58 9.95-36.68l-3.29-48.71c-2.68 3.87-7.22 5.61-7.88 50.72z" fill="#c1918b" fill-rule="evenodd"/><path clip-path="url(#a)" d="m186.28 66.52c-4.09 6.25-6.26 14.13-.61 16.61 9.46-7.07 8.6-10.07 15.89-12.14 2.59-.74 5.95.52 8.92 2.24 2.65 1.54 6.05 4.73 7.74 8.97.99 2.48 1.7 5.75 1.74 7.59 2.31-.7 5.05-6.57 2.89-6.49-.98.04 5.45-6.2 6.42 1.85.66 5.51-4.47 6.14-4.47 6.14 3.59 2.47 6.69 5.72 8.61 9.3l2.99-1.41c5.73-32.38 1.09-41.22-10.52-47.16-9.62-4.92-21.83-3.57-31.34 5.21-3.09 2.85-5.73 5.42-8.26 9.29z" fill="#6a462d" fill-rule="evenodd"/><path clip-path="url(#a)" d="m271.7 138.61c-1.58-10.38-6.34-15.23-11.47-15.85-6.47-4.87-16.29-10.6-23.09-12.25-7.04 1.97-12.99 6.55-18.87 8.98-2.06.85-3.75 2.25-5.69 2.93-13.2 4.62-14.92 19.1-9.4 40.25l1.28 75.95c.63 5.65 47.68 8.62 62.96 4.54l-.61-113.43c2.18 1.96 3.62 5.01 4.89 8.88z" fill="#7ca6d8" fill-rule="evenodd"/><g clip-path="url(#a)" fill="#9c5929" fill-rule="evenodd"><path d="m211.25 50.69c-21.32 3.35-34.47 30.17-24.68 30.1-4.63-8.51 10.9-26.73 24.68-30.1z"/><path d="m202.26 69.51c3.42-3.13 13.42 2.47 16.42 8.78-3.79-9.96-17.49-13.51-16.42-8.78z"/></g><path clip-path="url(#a)" d="m64.09 166.25c1.93 5.71 3.88 13.59 5.25 21.13l-5.02 1.21c-.49-7.24-2.83-17.09-3.42-21.74-.12-.96 1.26-2.64 1.26-2.64s2.05 1.48 1.93 2.04z" fill="#fff" fill-rule="evenodd"/><g clip-path="url(#a)" fill="#203756" fill-rule="evenodd"><path d="m57.78 247.19c-11.53-.19-24.74-2.05-24.74-2.05.92 14.94 2.73 35.15 4.28 47.44l37.6-.21 2.03-47.32c-.01 0-14.35 2.22-19.17 2.14z"/><path d="m64.35 173.52c.32-.14.43-.72.26-1.3s-.57-.94-.89-.8-.43.72-.26 1.3.57.94.89.8z"/><path d="m64.67 177.93c.14.59.51.97.84.85.32-.12.48-.69.34-1.28s-.51-.97-.84-.85c-.32.12-.48.7-.34 1.28z"/><path d="m65.71 183.05c.11.6.47 1 .8.9s.5-.67.39-1.26c-.11-.6-.47-1-.8-.9s-.5.67-.39 1.26z"/></g><path clip-path="url(#a)" d="m79.45 112.22c2.49 5.45 2.22 7.61.7 8.14-.85.29-1.55-.17-3.61-3.05.58 3.89-.75 4.7-4.38 1.81-.24 4.25-1.75 4.8-5.12-.95 1.46 5.78 1.23 7.98-2.19 5.35 1.13 4.83-.39 5.32-3.81 2.68 1.7 5.14.69 6.52-3.59 3.38 1.58 5.53.85 7.14-3.23 3.03.08 2.58-1.13 3.48-3.63 2.68l1.32 4.01c5.88 7.42 6.13 9.47 1.23 6.66 3.45 4.28 3.73 6.23 1.12 6.06.27 1.39-4.96 11.19-15.32 4.07-5.51-3.79-9.97-13.52-10.82-20.09-2.7-20.7 7.14-24.04 7.14-24.04s1.73-4.95 7.74-8.34c13.67-7.7 31.31-2.64 36.45 8.6z" fill="#978771" fill-rule="evenodd"/><g clip-path="url(#a)" fill="#c9b49a" fill-rule="evenodd"><path d="m32.16 115.2c-7.42 7.73-4.12 28.89 9.22 41.8-12.6-18.08-12.1-36.77-9.22-41.8z"/><path d="m38.32 133.45c-4.28-7.41-4.15-17.86-3.82-19.25-2.74 7.32 2.35 18.71 3.82 19.25z"/><path d="m54.45 117.57c-1.47 5.5 4.25 12.17 5.57 12.24-4.54-4.15-5.68-11.24-5.57-12.24z"/><path d="m63.59 103.5c5.41.74 13.78 7.23 16.5 15.66-1.14-6.29-7.88-16.37-16.5-15.66z"/><path d="m61.4 110.17c.94.37 6.6 4.74 8.09 10.73.56-1.21-2.58-9.43-8.09-10.73z"/><path d="m47.26 139.8c-.05 4.09 5.08 7.73 6 7.54-3.87-2.08-5.9-6.82-6-7.54z"/></g><path clip-path="url(#a)" d="m73.79 140.95c1.65 2.66 5.63 2.6 7.09 1.62" fill="#ffdfb8" fill-rule="evenodd"/><path clip-path="url(#a)" d="m54.09 132.38c1.81 2.33 2.75 4.79 1.61 5.93-1.38 1.37-3.89 1.43-5.97-.21-2.08-1.63-2.78-4.19-1.57-5.71 1.21-1.51 4.31-2.1 5.93-.01z" fill="#ffdfb8" fill-rule="evenodd"/><g clip-path="url(#a)" fill="#ffdfb8" fill-rule="evenodd"><path d="m89.13 258.72c-.2-.92-2.81-2.88-4-5.77 0 0-1.37-2-2.79-7.26-2.06-16.68-2.57-28.61-5.86-45.12l-2.14.28 4.62 42.61c.07.63-.19 1.29-.81 1.39l-1.21.09-.94 23.21s1.64.04 2.71-.59c0 0 1.15 1.55 2.7 1.21 2.35-.52 1.67-10.51 1.67-10.51 2.3 3.13 6.45 2.35 6.05.46z"/><path d="m81.95 130.81s.39-4.66-1.61-9.84c-.36.11-.74.11-1.12-.04-.57-.23-1.09-.51-1.58-.81-.15.28-.34.52-.57.7-.87.69-2.05.55-2.85-.17-.32-.29-.63-.59-.93-.89.02.2.03.4.03.61-.04 1.6-1.83 2.76-3.27 1.87-.62-.38-1.1-.9-1.51-1.49.15.7.29 1.41.31 2.13.05 1.85-2.07 2.62-3.39 1.77.15.27.28.56.38.87.69 2.04-2.2 3.7-3.63 2.11-.01-.01-.03-.03-.04-.05.12.67.06 1.43-.24 2.3-.39 1.15-1.39 1.69-2.55 1.53.14.49.22 1 .26 1.52.17 2.45-3.76 2.95-4.26.58-.11-.5-.3-1.01-.5-1.52-.22-.15-.53-.23-.96-.35-1.2-.35-2.38-.58-3.51-1.14-.34.16-.68.31-1.02.49-1.66.85-2.87 2.68-2.1 4.46.99 2.29 2.65 3.21 5.78 4.43 1.09.43 1.55 1.66 2.03 2.72.28.61.54 1.72 1.1 2.13 1.68 1.26.98 3.56-.57 3.98.06.04.12.08.17.13 1.57 1.31.08 3.96-1.77 3.71-.03.09-.06.17-.06.19-.1.3-.18.6-.27.89-.34 1.05-.78 2.06-1.51 2.84 3.42 3.03 8.27 4.97 8.44 4.67.14-2.37.9-5.45 1.98-7.96 2.93-.05 5.72-.66 8.24-1.74 1.04-.44 2.1-1.09 3.31-1.9 7.5-5.03 7.91-12.88 7.85-13.86 4.01-1.39 2.3-5.19-.06-4.87z"/><path d="m57.2 258.34c-1.42-1.54-2.7-6.53-5.31-7.16l-3.74-24.33-.17-21.79c-2.74.78-10.82 1.09-13.67.56l3.02 23.44 5.37 23.17c-.27 5.34-.2 9.08.13 12.88.06 7.29 3.04 6.85 3.59 5.28 1.82 2.84 4.02 3.57 3.61.79 1.36 2.96 3.6 3.05 3.49-.9 1.16 1.93 2.44 1.62 2.79.08.44-1.96-.74-4.58-1.59-10.37 3.28 5.55 5.66 3.22 5.29 1.93-.29-.98-1.6-2.27-2.81-3.58z"/></g><g clip-path="url(#a)" fill="#ffdfb8" fill-rule="evenodd"><path d="m181.43 138.26c-1.71-5.45.66-12.25.66-12.25-.2-.52-3.5.04-5.49 6.35-5.49-10.43-6.65-14.88-7.62-15.21-.96.2-1.17 1.36-.32 5.1.5 2.16 1.1 4.59 2.27 7.78-3.18-5.66-7.28-13.81-8.41-13.73-1.23.08-1.06 2.68.96 7.04 1.07 2.32 1.92 4.94 4.03 8.34l-9.15-10.28c-1.17.48-.24 2.82 1.67 5.83 1.45 2.28 2.67 4.6 4.7 7.38-3.72-2.73-7.35-5.71-8.11-5.27-.1.98-1.68-.65 5.07 7.38.62.74 2.06 3.9 3.56 6.16 2.33 3.53 5.09 6.64 5.09 6.64l4.84 12.65 7.63-7.26 1.86-3.53-2.98-4.65c0-.01.79-5.14-.26-8.47z"/><path d="m258.97 254.77c-1.08-.2-2.16-.49-3.23-.76-2.05.05-4.16-.29-6.15-.77-.27-.07-.5-.16-.71-.27l-1.16 3.2c-4.02 3.09-8.52 10.79-12.05 14.18.59 2.15 5.12 1.57 8.41-3.41.35 2.39-.45 5.12-1.37 7.89-.55 1.66-1.59 5.58-1.73 6.29-.99 4.98 1.99 2.81 2.42 1.07.35-1.41 3.63-8.54 4.59-10.27 0 0-4.22 15.84-1.6 14.05.57-.39 1.32.44 2.18-3.46.55-2.47 2.02-6.34 2.9-9.5-1.67 7.9-2.24 14.17.19 13.21 1.25-.49 1.32-6.43 2.85-12.62-.12 3.65-.1 7.19.58 9.09.67 1.95 2.35 2.32 2.36-4.64.01-3.97.77-9.36.03-18.86z"/><path d="m236.2 100.47c-.28.28-.63.48-1.1.55-.41.06-.8-.01-1.18-.15-1.13-.15-2.02-.95-2.48-1.97-.9-1-1.65-2.13-2.62-3.07-.91-.88-2.06-2.02-2.38-3.3-.15-.61.08-1.15.38-1.67.4-.67.77-1.35 1.16-2.02.39-.68.77-1.35 1.04-2.05.15-.64.26-1.3.34-1.97-.01-.19-.03-.38-.07-.58-.2-.95-.62-1.87-1.42-2.28-1.63-.84-3.96.01-5.64.98-.13.24-.26.49-.38.74-.17.35-.37.71-.66.98-.08.08-.17.15-.26.22.11.68.21 1.37.29 2.06.03.23.05.45.08.68.01.12.03.24.05.36 0 .01 0 .02.01.04.07.46.15.91.25 1.36.18.79-.23 1.52-1.01 1.77-.72.23-1.6-.27-1.77-1.01-.22-.99-.34-1.99-.46-3-.03-.23-.05-.45-.08-.68-.01-.12-.03-.24-.05-.36 0-.01 0-.02-.01-.04-.07-.46-.15-.91-.25-1.36-.01-.05 0-.09-.01-.14-.06-.07-.12-.14-.17-.22-.29-.45-.31-1.02-.2-1.52.05-.23.18-.47.34-.67-.25-.23-.48-.49-.67-.79-.41-.63-.71-1.32-1-2.01-.44-.14-.84-.45-1.12-.87-.37-.55-.67-1.1-.9-1.73-.02-.07-.04-.14-.05-.21-1.49-1.1-3-1.92-4.75-2.73-.45-.21-.79-.48-1.05-.78-2.37-.52-4.74-1.07-7.08-1.53-.09-.02-.17-.05-.26-.07-.95.82-2 1.56-3.05 2.3-3.77 2.64-7.56 5.43-10.45 9.05-.45.57-1.02.87-1.62.98.81 4.46 2.16 9.08 4.51 13.99l-1.45 5.41c-2.61 4.35 2.16 4.18 4.01 3.35 2.02 5.09 8.09 12.43 11.02 13.81 2.53 1.19 10.5-3.57 15.77-6.84 2.25 5.37 3.68 7.18 5.14 14.47 4.35-2.12 14.08-9.49 14.73-17.32-1.3-2.46-2.38-6.58-3.47-10.16z"/></g><path clip-path="url(#a)" d="m141.94 169.43-19.21-4.8-5.49 1.99 20.04 17.2 4.22-2.55z" fill="#efb01e" fill-rule="evenodd"/><path clip-path="url(#a)" d="m136.89 171.88-19.65-4.88-.25 10.99 19.52 5.63z" fill="#edea5a" fill-rule="evenodd"/><g clip-path="url(#a)" fill="#fff" fill-rule="evenodd"><path d="m62.21 160.71c-.11.19-.24.38-.4.55-.98 1.07-2.99 1.1-3.97 0-.01-.01-.03-.03-.04-.05-.14-.07-.28-.15-.42-.22-.33-.15-.67-.29-.98-.47-.52-.3-.99-.69-1.38-1.15-1.23-.6-2.18-1.55-2.68-2.73-.63.88-1.54 1.51-2.62 1.79-.6.16-1.22.21-1.85.22-.51.21-1.02.4-1.54.55-.35.1-.71-.04-.94-.3-.51.31-.84.52-.84.52s3.19 3.09 6.57 6.11c3.1 2.78 6.37 5.52 7.23 5.36.92-.17 3.27-4.6 3.6-6.99 2.86 2.39 5.35 5.48 5.2 3.8-.2-1.99-1.63-3.62-4.94-6.99z"/><path d="m76.84 190.93-4.3 1.7.31 1.68 4.27-1.72z"/><path d="m72.9 195.38.29 1.72 4.81-2.01-.53-1.52z"/><path d="m54.73 195.83-.25-2.32-21.18 1.95.03 2.37z"/><path d="m33.34 199.04-.03 2.29 21.72-2.06-.17-2.22z"/><path d="m165.86 187.97.01-.03-18.59-5.45c-4.12-.34-3.61 4.29-1.94 5.23l18.81 6.11.18-.63c.19.39.45.63.76.63.73 0 1.45-1.33 1.59-2.96.13-1.44-.23-2.64-.82-2.9z"/></g><path clip-path="url(#a)" d="m2.65-69.13h304.39v364.64h-304.39z" fill="none"/><path clip-path="url(#a)" d="m268.52 135.08c-2.54-5.09-10.18-11.64-18.34-2.33-3.77 4.3-5.06 14.87.81 31.53 2.73 7.23 5.32 16.1 7.75 27.23.16 18.05-9.14 47.2-13.58 58.48 5.79 2.96 14.59 4.5 20.48 4 7.21-22.45 12.2-45.9 13.45-59.33.8-8.7-2.97-44.35-10.57-59.58z" fill="#c1918b" fill-rule="evenodd"/></g><g clip-path="url(#a)" fill="#010101"><path d="m64.66 179.94c.43.2.87.22 1.3.07.36-.13.68-.38.92-.77.28-.47.43-1.24.24-2.03-.21-.88-.76-1.48-1.25-1.71-.43-.2-.87-.22-1.3-.07-.36.13-.68.38-.92.77-.28.47-.43 1.24-.24 2.03.2.88.76 1.48 1.25 1.71zm.35-3.28c.32-.12.7.26.84.85s-.01 1.16-.34 1.28c-.32.12-.7-.26-.84-.85s.02-1.17.34-1.28z"/><path d="m65.72 180.55c-.37.11-.71.35-.96.73-.3.46-.48 1.21-.34 2.01.16.89.68 1.51 1.16 1.77.42.23.86.27 1.3.14.37-.11.71-.35.96-.73.3-.46.49-1.21.34-2.01-.16-.89-.68-1.51-1.16-1.77-.42-.23-.87-.27-1.3-.14zm.78 3.41c-.33.1-.68-.3-.8-.9-.11-.6.07-1.16.39-1.26.33-.1.68.3.8.9.12.59-.06 1.16-.39 1.26z"/><path d="m78.1 125.41c.39.13.82-.07.96-.46s-.07-.82-.46-.96c-1.56-.54-3.52-.13-5.26 1.09-1.4.99-2.27 2.28-2.27 3.36 0 .41.33.75.75.75.41 0 .75-.33.75-.75 0-.48.52-1.35 1.64-2.14 1.02-.72 2.59-1.34 3.89-.89z"/><path d="m78.91 127.54c-.75-.25-1.72-.1-2.73.42-1.29.67-2.35 1.79-2.69 2.86-.12.4.1.82.49.94.08.02.15.03.23.03.32 0 .61-.21.72-.52.17-.54.7-1.15 1.37-1.62.07.5.43.94.95 1.05.65.14 1.29-.28 1.41-.94.05-.28-.01-.55-.13-.79.37.08.75-.12.87-.49.12-.39-.09-.81-.49-.94z"/><path d="m53.9 137.22c-.84-.24-1.46-.54-1.95-.86-.24-.15-.42-.32-.58-.48-.25-.26-.38-.52-.43-.78-.06-.27-.03-.53.09-.74.34-.58 1.12-.83 1.96-.15.12.12.32.13.45.01.12-.12.13-.32.01-.45-.66-.89-1.49-1.09-2.19-1.01-.24.03-.46.12-.67.23-.27.14-.49.34-.68.58-.39.49-.58 1.17-.42 1.86.12.51.43 1.05 1 1.48.34.26.77.49 1.32.65s1.21.27 2.01.29c.17.03.33-.09.36-.27.01-.17-.11-.33-.28-.36z"/><path d="m88.74 256.41c-.78-.91-2.13-2.2-2.89-4.05-.05-.11-.11-.22-.18-.32 0 0-1.08-1.54-2.39-6.32-1.93-15.6-3.08-29.49-5.91-44.72.71-.34 1.4-.8 1.98-1.42.29-.31.41-.74.32-1.15-2.91-14.01-6.56-24.51-10.44-30.99-.34-.57-.69-1.11-1.04-1.62-.26-.66-.65-1.32-1.19-2.05-.85-1.15-2.13-2.48-3.92-4.31-.13-.13-.27-.23-.43-.31l-.26-.12c.26-1.45.7-2.99 1.24-4.41 2.76-.16 5.39-.78 7.79-1.8 1.12-.48 2.26-1.16 3.56-2.04 6.86-4.6 8.24-11.37 8.47-14.1 1.65-.85 2.31-2.11 2.43-3.25.19-1.7-.88-3.32-2.42-3.91-.02-1.77-.28-5.02-1.55-8.56.43-.46.73-1.08.84-1.93.19-1.41-.28-3.77-1.95-7.44-2.2-4.82-6.53-8.61-11.9-10.86-7.89-3.31-18.02-3.28-26.64 1.58-5.21 2.94-7.45 6.97-8.16 8.51-2.35 1.18-9.94 6.5-7.47 25.36.9 6.93 5.65 17.14 11.46 21.13 1.79 1.23 3.45 2 4.97 2.42v.01c-6.1 5.73-10.13 14.71-11.81 27.5-3.36 25.52-2.44 57.12-2.44 57.12.02.63.49 1.16 1.11 1.25.81.12 1.62.22 2.43.33.89 14.98 2.09 35.79 3.45 46.56.1.78.74 1.37 1.5 1.36l37.6-.21c.81 0 1.47-.68 1.49-1.53l.62-23.4c.51.01 1.04-.07 1.62-.26.53.72 1.4 1.31 2.82.99.65-.14 1.24-.56 1.67-1.31.36-.62.63-1.54.78-2.64.22-1.62.22-3.66.15-5.4.38.21.75.38 1.11.51 1.09.4 2.09.45 2.79.28.66-.16 1.15-.51 1.46-.96.33-.47.5-1.08.34-1.85-.09-.4-.43-.99-1.01-1.67zm-21.61-88.7c.15 1.68-2.34-1.41-5.2-3.8-.33 2.39-2.68 6.82-3.6 6.99-.86.16-4.13-2.58-7.23-5.36-2.43-2.17-4.72-4.35-5.84-5.42 1.1.08 2.11-.01 3.03-.23 1.39-.34 2.59-.97 3.6-1.72.34.28.69.56 1.05.82 2.88 2.07 6.05 3.4 7.06 3.62 1.18.25 1.76-.45 1.91-.72.12-.2.19-.43.2-.67.01-.18.04-.37.05-.56 3.35 3.41 4.79 5.04 4.97 7.05zm-2.63 2.51c-.44-.18-.89-.17-1.3.01-.35.15-.66.43-.87.83-.25.49-.35 1.26-.12 2.04.26.86.85 1.43 1.35 1.63.44.18.89.17 1.3-.01.35-.15.66-.42.87-.83.18-.35.28-.85.24-1.39 1.26 4.61 2.45 9.8 3.37 14.88l-5.02 1.21c-.41-6.03-2.1-13.87-2.99-19.01.5-.89 1-1.94 1.39-2.96.81.76 1.54 1.46 2.12 1.98.28.89.55 1.84.82 2.8-.3-.6-.75-1.01-1.16-1.18zm-.15 3.3c-.32.14-.72-.22-.89-.8s-.06-1.16.26-1.3.72.22.89.8c.17.59.06 1.17-.26 1.3zm-11.31-16.35c.47-.47.88-.95 1.23-1.43.52-.72.89-1.42 1.14-2.01.54.15 1.08.3 1.64.42 1.69.36 3.35.52 4.97.53-.76 2.17-1.29 4.55-1.4 6.47-.16.26-4.27-1.37-7.58-3.98zm28.91-26.36c2.36-.32 4.08 3.48.05 4.87.03.54-.08 3.15-1.42 6.22-.04.02-.08.02-.11.05-.59.4-1.95.66-3.33.37-.84-.18-2-.63-2.7-1.76-.22-.35-.68-.46-1.03-.24s-.46.68-.24 1.03c.98 1.58 2.53 2.2 3.66 2.44.51.11 1.03.16 1.54.16.43 0 .84-.05 1.23-.12-1.17 1.98-2.89 4.01-5.44 5.72-1.21.81-2.28 1.46-3.31 1.9-3.99 1.7-8.63 2.26-13.48 1.23-.13-.03-.25-.07-.38-.1.02-.02.05-.05.06-.07.38-.51.59-1.19.43-2.1-.09-.49-.31-1.1-.7-1.83.49-.15.82-.46 1.05-.83.28-.46.45-1.29-.04-2.47-.45-1.1-1.6-2.89-3.46-5.34.17-.04.33-.08.49-.14.17-.05.26-.23.21-.4s-.23-.26-.4-.21c-.26.07-.53.1-.8.1-.27 0-.54-.02-.8-.06-.59-.09-1.13-.27-1.56-.46-1.42-.63-2.38-1.4-2.93-2.24-.64-.98-.64-2.07-.1-3.18.34-.76 1.13-1.28 2.03-1.49.86-.2 1.84-.13 2.7.39.8.46 1.33 1.03 1.7 1.59.26.39.42.77.56 1.11-.06.17.12.72.28.82.04.13.65.46.69.37.25.12.49.2.68.23.9.16 1.56-.13 2.04-.7.31-.36.56-.92.61-1.72.02-.38 0-.86-.07-1.43.17.06.34.1.49.13 1.11.23 1.9-.08 2.44-.64.36-.38.65-.93.73-1.69.04-.33.03-.72-.02-1.18.88.23 1.59.1 2.14-.22.58-.34 1.06-.96 1.23-1.97.04-.25.06-.54.06-.87.78.1 1.37-.14 1.83-.57.41-.38.74-1 .82-1.94 0-.04.01-.09.01-.14.04.02.07.04.1.06.72.41 1.36.45 1.9.31.57-.15 1.09-.51 1.49-1.19.15-.25.28-.57.39-.95.4.22.77.38 1.09.48.9.29 1.63.21 2.19-.05.46-.21.86-.56 1.14-1.07.05.05.11.09.16.13 1.09.89 1.91.89 2.77.6 1.67 4.88 1.33 9.06 1.33 9.06zm-42.99 25.28c-5.51-3.79-9.97-13.52-10.82-20.09-1.95-14.94 2.63-20.83 5.33-22.96-.58 1.37-1.02 3.04-1.23 4.79-.29 2.37-.2 4.88.38 6.94.02.09.12.15.21.13s.15-.12.13-.21c-.4-2.03-.28-4.45.19-6.71.44-2.1 1.18-4.05 2.12-5.38.08 2.24.41 3.99.83 5.32.93 2.95 2.27 3.92 2.27 3.92.08.06.19.05.25-.03s.05-.19-.03-.25c0 0-1.13-1.03-1.7-3.85-.32-1.56-.45-3.64-.15-6.4 1.51-1.64 3.08-2.68 4.54-3.31 3.47-1.5 6.31-.83 6.31-.83.09.03.19-.03.22-.12s-.03-.19-.12-.22c0 0-2.94-.96-6.74.3-1.41.47-2.92 1.25-4.45 2.49 1.13-1.73 3.15-4.12 6.52-6.02 13.66-7.7 31.3-2.64 36.44 8.6 2.49 5.45 2.22 7.61.7 8.14-.61.21-1.15.01-2.17-1.17.03-.11.04-.22.01-.34-.71-2.66-1.68-4.84-3.63-6.9-1.44-1.52-3.4-2.97-6.2-4.5-.08-.05-.19-.02-.24.06s-.02.19.06.24c2.6 1.69 4.41 3.23 5.69 4.81 1.65 2.03 2.39 4.11 2.86 6.62.02.09.06.16.1.23-.22 1.96-1.64 1.97-4.48-.29-.18 3.24-1.11 4.32-3.03 2.11-.43-1.1-.98-2.28-1.67-3.44-.78-1.3-1.7-2.57-2.76-3.63-.06-.07-.18-.08-.25-.02s-.08.17-.02.25c.89 1.15 1.62 2.48 2.2 3.82.46 1.06.82 2.14 1.08 3.14.53 3.29-.18 4.23-2.87 2.16 1.13 4.83-.39 5.32-3.81 2.67 1.38 4.17.97 5.86-1.51 4.68-.04-.04-.06-.09-.11-.13-1.82-1.26-3.06-2.75-3.92-4.2-1.71-2.9-1.87-5.56-1.87-5.56 0-.1-.08-.17-.18-.17s-.17.08-.17.18c0 0-.09 2.78 1.4 5.99.69 1.47 1.72 3.02 3.23 4.44.71 3.23.2 4.37-1.92 2.78-.09-.26-.2-.54-.35-.82-.37-.72-.96-1.45-1.86-2.1-1.11-.78-2.43-1-3.61-.79-1.39.24-2.57 1.1-3.11 2.23-.58 1.31-.64 2.59-.11 3.74.59 1.29 1.93 2.44 4.13 3.22.38.13.86.23 1.35.3 3.8 4.87 4.94 7.2 3.58 7.17-.07-.1-.16-.19-.27-.25-1.92-.82-3.42-2.05-4.58-3.3-2.21-2.4-3.15-4.87-3.15-4.87-.03-.09-.13-.14-.22-.11s-.14.13-.11.22c0 0 .73 2.65 2.78 5.35 1.04 1.37 2.43 2.72 4.2 3.78 1.61 2.38 1.76 3.69.53 3.98-1.23-.31-2.33-.87-3.25-1.5-1.77-1.22-2.84-2.6-2.84-2.6-.05-.08-.16-.1-.24-.05s-.1.16-.05.24c0 0 .91 1.59 2.56 3.12.75.7 1.65 1.36 2.69 1.88-1.1 2.85-6.2 9.18-15.09 3.08zm-3.94 22.85c1.04-5.59 3.15-10.87 6.86-11.6 5.01-.99 11.27 1.33 13.73 35.97-5.9 1.36-18.99 2.39-22.37 1.71-.1-8.65.36-18.43 1.78-26.08zm21.28 91.43c-.11.48-.31.82-.57 1.03-.07-.06-.16-.11-.25-.14-.83-.19-1.46-1.26-2.01-2.57-.74-1.76-1.25-3.96-1.53-5.7.02 2.13.28 4.96.97 6.98.16.48.36.9.57 1.27-.19 2.19-1.31 2.58-2.39 1.53 0-.05 0-.1-.01-.15-.09-.24-.69-1.17-1.34-3.28-.39-1.27-.8-2.95-1.12-5.18-.05 1.8.02 3.27.14 4.47.24 2.5.7 3.78.84 4.24-.52.21-1.38-.26-2.27-1.27-.01-.08-.03-.16-.07-.23-.43-.64-.93-1.93-1.28-3.42-.29-1.24-.47-2.57-.41-3.81-.29 1.23-.37 2.61-.33 3.91.04 1.23.21 2.35.43 3.19-1.07.48-2.79-.6-2.83-6.12-.33-3.81-.4-7.54-.13-12.88l-5.37-23.17-2.23-22.69c2.99.11 7.82-.16 12.36-.64l.7 21.11.01.08c-.65.32-1.19.62-1.85.89-.43.18-.89.34-1.47.48-.1.01-.17.1-.16.19.01.1.1.17.19.16.63.03 1.15 0 1.64-.05.65-.06 1.22-.18 1.86-.3l3.52 22.87c2.61.63 3.89 5.62 5.31 7.16 1.21 1.31 2.52 2.6 2.81 3.6.37 1.29-2.01 3.62-5.29-1.93.82 5.8 2 8.42 1.56 10.37zm-26.17-26.02s-.92-31.49 2.43-56.92c.12-.91.25-1.8.4-2.67-.74 6.47-.99 13.69-.92 20.26.01.56.41 1.05.96 1.16.17.03.37.06.58.09l2.25 22.94c.01.06.02.13.03.19l3.74 16.1c-3.16-.31-6.32-.69-9.47-1.15zm44.78 47.75-11.9.07c.26-.11.44-.37.45-.67l.51-34.89c0-.09-.02-.18-.05-.26 1.02-.15 2.01-.38 2.9-.75.8-.33 1.53-.75 2.11-1.3.16-.13.18-.36.05-.51-.13-.16-.36-.18-.51-.05-.57.41-1.25.68-1.99.88-1.03.27-2.17.35-3.31.32-.41.02-.73.37-.72.78.01.16 0 .69 0 .86l-.51 34.89c0 .31.18.58.45.7l-25.1.14c-1.35-10.68-2.54-31.23-3.43-46.15 2 .25 4.01.49 6.02.68l1.28 5.52c-.26 5.29-.19 9.03.14 12.83.04 3.54.79 5.49 1.55 6.45.9 1.12 1.95 1.33 2.82 1.16.18-.04.36-.09.53-.16.62.7 1.25 1.19 1.78 1.46.63.32 1.22.39 1.69.32.24-.04.48-.12.71-.24.05.04.09.07.14.1.69.49 1.38.63 2 .54.68-.1 1.33-.47 1.81-1.24.09-.15.18-.32.26-.51.25.06.48.08.7.07 1.06-.06 2.11-.83 2.47-2.43.21-.95.15-2.03-.11-3.43-.14-.74-.34-1.6-.55-2.61.29.14.56.23.8.29 1.23.28 2.18-.13 2.81-.75.74-.74.99-1.82.74-2.68-.33-1.15-1.76-2.69-3.14-4.2-.81-.88-1.54-2.95-2.55-4.59-.71-1.14-1.55-2.08-2.51-2.61 0 0-.15-.97-.39-2.51 7.9.15 15.72-.33 23.27-1.67zm-22.25-45.79c-1.02-6.63-3.01-19.6-3.01-19.6l-.7-21.14c2.66-.31 5.12-.7 6.92-1.11.57-.13.96-.66.92-1.25-1.25-17.58-3.5-26.95-6.04-31.81-1.41-2.71-2.96-4.12-4.46-4.82-1.58-.74-3.16-.71-4.65-.42-1.23.24-2.32.89-3.27 1.84 1.56-2.81 3.4-5.16 5.48-7.15.93.89 3.52 3.36 6.25 5.8 2.59 2.32 5.32 4.6 6.76 5.35.75.39 1.37.44 1.74.37.27-.05.59-.17.92-.43.18-.14.38-.34.59-.58.93 5.05 2.33 11.91 2.7 17.33.03.44.25.85.61 1.11s.81.35 1.24.25l5.02-1.21c.77-.19 1.27-.94 1.12-1.73-1.09-6.02-2.55-12.24-4.08-17.44.06.01.12.02.18.02.59 0 1.05-.24 1.38-.69.06-.08.12-.19.17-.31 3.71 6.43 7.16 16.57 9.95 29.99-.93.99-2.17 1.46-3.27 1.74-.33-1.8-1.29-6.98-2.37-12.07-.66-3.12-1.36-6.19-1.99-8.42-.04-.14-.18-.22-.32-.19-.14.04-.22.18-.19.32.52 2.25 1.07 5.34 1.58 8.46 1.03 6.32 1.88 12.79 1.88 12.79.02.15.1.28.19.38 1.8 16.02 4.37 42.52 4.37 42.52-8.26 1.69-16.89 2.28-25.62 2.1zm35.37 12.96c-.17-.16-.4-.27-.65-.27-1.13.06-1.99-.17-2.65-.56-1.36-.81-1.85-2.08-1.85-2.08l-.57-.39s-1.5.27-2.36-1.06c-.41-.63-.68-1.57-.65-2.99 0-.04-.03-.08-.07-.08s-.08.03-.08.07c-.33 1.98.07 3.17.64 3.91.67.88 1.62 1.13 2.17 1.2.09.25.25.62.48 1.03.22 2.95.52 9.57-1.3 9.97-.72.16-1.14-.16-1.4-.55.22-.67.49-1.72.44-3.32-.04-1.23-.24-2.75-.78-4.68-.01-.04-.05-.07-.09-.06s-.07.05-.06.09c.07 1.93-.09 3.39-.33 4.55-.27 1.32-.69 2.12-1 2.61-.08.16-.09.33-.08.49-.27.06-.53.09-.77.09l.57-21.57c.3-.06.61-.11.92-.17.65-.13 1.1-.74 1.04-1.4 0 0-2.55-26.33-4.35-42.37.23-.06.47-.12.71-.19 2.8 15.13 3.94 28.95 5.86 44.47 1.42 5.26 2.66 6.93 2.66 6.93 1.19 2.89 3.63 4.58 3.83 5.5.06.37-.05.65-.28.83z"/><path d="m299.97 232.4c.14-.65.24-1.31.31-2l-24.1-7.43c.44-1.95.86-3.86 1.25-5.73l14.05 3.99c-.04-.71-.08-1.41-.12-2.11l-13.52-3.84c1.62-7.96 2.73-15.01 3.24-20.43.73-7.84-2.21-37.2-8.27-54.58.63-.42.99-1.17.87-1.96-1.71-11.29-7.02-16.54-12.68-17.47-5.51-4.07-13.17-8.64-19.53-11.04-.02-.03-.02-.07-.04-.1-1.21-2.31-2.24-6.13-3.27-9.56.1-.19.19-.39.23-.61 6.01-33.93.59-43.06-11.58-49.29-10.31-5.28-23.42-3.89-33.61 5.52-3.22 2.97-5.96 5.66-8.58 9.68-2.71 4.14-4.56 8.95-4.34 12.7.16 2.75 1.33 5.01 3.78 6.41.8 4.28 2.09 8.71 4.26 13.39l-1.19 4.44c-1.28 2.28-.85 3.72-.29 4.47.54.71 1.47 1.19 2.71 1.21.82.01 1.84-.2 2.77-.47 1.77 3.49 4.81 7.65 7.47 10.42 1.48 1.54 2.89 2.67 3.92 3.15 1.09.51 2.83.49 4.93-.21 2.96-.99 6.92-3.26 10.37-5.36.17.4.33.78.48 1.16-.67.32-1.33.63-1.99.9-2.02.83-3.68 2.22-5.59 2.89-7.32 2.56-11.48 7.83-13.02 15.42-.69 3.4-.82 7.31-.47 11.66-.95 6.43-1.7 15.84-2.03 30.01l-10.87-28.7c-.14-.36-.46-.59-.82-.63-.42-.37-.92-.62-1.47-.76l-.42-.94c.48-1.74 1.46-5.95.52-8.91-1.54-4.89.64-10.99.64-10.99.16-.44.15-.93-.02-1.37-.24-.62-.97-1.55-2.48-1.43-.95.07-3.12.86-5 3.88-3.03-6.07-4.32-9.51-5.14-10.9-.59-1.01-1.23-1.42-1.71-1.58-.34-.12-.71-.14-1.06-.07-1.11.23-1.94.85-2.3 2.27l-.03.12c-.42-.67-.8-1.24-1.14-1.67-.51-.66-.99-1.07-1.33-1.28-.52-.3-.99-.37-1.39-.34-1.22.08-2.18.76-2.53 2.28-.19.81-.09 2.17.43 3.98l-.44-.49c-.56-.63-1.47-.84-2.25-.52-1.1.45-1.75 1.34-1.76 2.74-.01 1.12.7 3 2 5.2-1-.33-1.78-.14-2.22.12-.43.25-.76.65-.9 1.12-.12.21-.21.42-.27.66-.08.36-.15.86.21 1.61.29.63 1.49 2.22 5.5 7 .6.71 1.97 3.78 3.42 5.98 2 3.03 5.23 5.79 6.44 6.77 0 0 .48 1.33 1.19 3.31-2.24 2.32-4.11 4.85-4.92 6.8-.91 2.19-.55 3.94.49 4.93.18.17.36.3.56.43l.6 1.45c2.99 7.21 5.69 13.38 8.14 18.7l-32.43-9.21.28-7.64c.04-.95-.6-1.79-1.51-2.02l-19.22-4.8c-.39-.1-.79-.08-1.16.06l-3.24 1.17-.53-155.57.01-.25c-.67-.09-1.34-.18-2-.29l.55 156.79-.26.09c-.67.24-1.16.82-1.29 1.52-.04.19-.04.38-.02.57 0 .04-.02.08-.02.12l-.15 6.72c-.02-.14-.06-.28-.08-.42l-2.08-.64c-.19-.06-.39-.09-.6-.09l-.54-165.63c-.66-.18-1.32-.38-1.97-.59-.01.1-.03.2-.03.3l.56 166.47-7.75 2.45c-.68.21-1.16.78-1.32 1.45-.01-.01-.03-.01-.04-.02-.02.13-.04.27-.03.41v.05.03c0 .02.01.03.01.05l.36 8.19c.04.84.6 1.57 1.41 1.82l89.91 27.74c2.42 2.48 4.19 3.17 5.57 3.26.14.01.28.01.42.01 1.08 0 2.16-.3 3.23-.86.2 11.9.35 21.01.35 21.01 0 .06 0 .13.01.19.04.39.17.79.39 1.18-1.05 20.21.65 53.49.65 53.49.05 1.04.81 1.88 1.79 1.99 14.55 1.61 35.76.62 58.09-1.45 1.03-.1 1.83-1.01 1.83-2.11 0 0-.05-18.53 0-35.93.2-.01.4-.02.59-.04.8-.07 1.49-.61 1.73-1.38 1.6-4.99 3.08-10.01 4.45-14.98l21.66 6.68c-.01-.78-.05-1.49-.14-2.13l-20.99-6.48c.49-1.82.96-3.62 1.42-5.41l23.41 7.23c.3-.61.58-1.22.85-1.83l-23.77-7.35c.45-1.83.89-3.63 1.31-5.41zm-28.71-96.15c-.25-.58-.51-1.15-.77-1.69-.16-.08-.31-.17-.47-.25-1.76-3.7-4.09-6.14-7.9-6.86-9.56-1.81-21.57 7.23-13.75 33.66-.01.06-.01.12-.02.18-.01.03-.02.06-.03.09-15.63-33.62 16.79-53.48 22.94-25.13zm-84.98-69.73c2.53-3.87 5.17-6.44 8.27-9.3 9.5-8.78 21.72-10.14 31.34-5.21 11.61 5.95 16.25 14.78 10.52 47.16l-2.99 1.41c-1.92-3.58-3.14-6.25-6.74-8.72 0 0 1.07-1.52 1.5-1.98 1.86-2.02 2.62-3.88 2.54-5.42-.07-1.38-.81-2.53-2.1-3.41-1.17-.73-2.83-.83-4.39-.24-1.33.5-2.57 1.48-3.3 2.86-.58 1.13-.79 2.15-.79 3.04 0 1.23.36 2.15.54 2.69-.23.15-.46.28-.73.36-.04-1.83-.75-5.11-1.74-7.59-1.69-4.24-5.09-7.43-7.74-8.97-2.97-1.72-6.33-2.98-8.92-2.24-7.29 2.07-6.43 5.07-15.89 12.14-5.64-2.45-3.47-10.33.62-16.58zm32.14 47.07c-5.11 3.14-11.57 6.83-13.87 5.75-1.77-.84-4.75-4.02-7.28-7.53 3.72-.7 6.45-4.36 7.22-5.51.23-.34.14-.81-.2-1.04-.35-.23-.81-.14-1.04.2-1.48 2.2-4 4.65-6.64 4.94-.09.01-.18.04-.26.08-1.26-1.88-2.34-3.78-2.98-5.4-1.84.83-7 2.41-4.39-1.94l1.45-5.41c-2.12-4.43-3.43-8.63-4.25-12.69.24-.06.48-.16.69-.31 4.85-3.62 7.06-6.2 8.98-8.14 1.65-1.66 3.06-2.77 6.26-3.68 2.15-.61 4.9.61 7.37 2.05 2.36 1.37 5.38 4.21 6.89 7.98.9 2.25 1.56 5.23 1.6 6.89.01.62.32 1.21.82 1.57.51.37 1.15.48 1.75.3.76-.23.45-.59 1.02-1.14.17-.17.19-.79-.11-1.22-.09-.49-.38-1.43-.24-2.63.08-.74.34-1.58.91-2.48.61-.98 1.58-1.62 2.57-1.95 1.04-.34 2.13-.32 2.88.18 1.15.7 1.73 1.72 1.59 3.01-.12 1.11-.7 2.38-1.82 3.81-.33.43-.8.92-1.36 1.35-.5.38-1.06.72-1.67.91-.2.05-.33.24-.3.43.04.18.23.29.43.24.09-.02.19-.05.28-.07.07.57.37 1.08.84 1.41 3.29 2.26 4.35 4.74 6.11 8.02.5.94 1.66 1.32 2.62.86l2.19-1.04c1.01 3.36 2.01 7.02 3.18 9.26-.66 7.83-10.38 15.2-14.73 17.32-1.32-6.62-2.49-9.4-4.37-13.87.89-.76 2.66-2.37 3.91-4.16.97-1.39 1.64-2.87 1.41-4.15-.02-.18-.18-.31-.36-.29s-.31.18-.29.36c.05 1.11-.72 2.26-1.69 3.33-1.92 2.05-5.08 4.13-5.12 4.4zm1.82 5c1.02 2.64 1.84 5.31 2.72 9.74.12.61.52 1.13 1.07 1.4.56.28 1.21.28 1.76.01 2.77-1.35 7.6-4.7 11.17-8.97 2.24-2.67 3.95-5.71 4.51-8.82 1.28.51 2.61 1.1 3.96 1.75-3.82 9.35-16.64 17.29-22.8 20.66-1.46-2.44-2.23-6-3.11-10.05-.34-1.57-.7-3.19-1.11-4.89.61-.26 1.22-.54 1.83-.83zm-57.71-2.3c1.07-.07 4.81 7.23 7.9 12.81-1.2.86-2.19 1.66-3.01 2.4-2.03-3.32-2.88-5.9-3.93-8.18-2.02-4.35-2.19-6.94-.96-7.03zm-4.17 5.1 9.03 10.14c-.47.43-.89.84-1.26 1.23-.62.66-1.09 1.24-1.45 1.76-2-2.74-3.21-5.04-4.65-7.3-1.91-3.01-2.84-5.35-1.67-5.83zm11.86 26.91c-1.42-1.23-3.53-3.25-4.97-5.43-1.49-2.27-2.94-5.43-3.56-6.16-6.75-8.04-5.16-6.41-5.07-7.38.75-.43 4.35 2.5 8.04 5.22-1 1.43-1.16 2.26-1.16 2.26-.03.12.05.25.17.28s.25-.05.28-.17c0 0 .45-1.36 2.91-3.37 1.3-1.06 3.16-2.28 5.82-3.58.48-.27.65-.89.37-1.37-.27-.48-.89-.65-1.36-.37-.39.26-.76.51-1.11.77-.93-2.69-1.46-4.83-1.91-6.75-.86-3.73-.64-4.9.32-5.1.92.32 2.03 4.38 6.89 13.8-.11 1.36.2 2.38.42 2.9-1.19 1.67-1.6 3.38-1.52 4.94.11 2.08 1.08 3.9 2.22 4.98.09.09.24.1.33.01s.1-.24.01-.33c-.94-1.07-1.7-2.78-1.64-4.67.04-1.44.59-2.98 1.92-4.42l.07-.77s-.6-1.29-.04-3.17c.26-.88.78-1.86 1.71-2.91.11-.14.16-.29.19-.45 1.32-1.29 2.45-1.35 2.56-1.05 0 0-2.38 6.8-.66 12.25 1.05 3.33-.74 8.45-.74 8.45l2.27 5.14c-.01.02-.02.03-.03.05.02 0 .03-.01.05-.01l.02.04c-.77 1.53-2.24 3.55-4.58 5.89-.95.95-1.89 1.8-2.79 2.56l-3.8-10.52c.09.03.17.06.27.09 1.23.38 2.65.54 4.2.3.53-.14.86-.68.72-1.22s-.68-.86-1.22-.72c-1.22.45-2.4.53-3.46.42-.84-.07-1.56-.24-2.14-.43zm-2.06 16.03c-1.33-1.26.75-4.84 3.81-8.18.62 1.72 1.32 3.66 2.01 5.55-2.58 1.92-4.67 2.92-5.51 2.85-.11-.06-.22-.13-.31-.22zm-24.66 17.01.08-2.14 33.62 9.55c.71 1.51 1.4 2.96 2.07 4.32l-10.59-3.27c-.09-1.22-.46-2.22-.91-2.8-.24-.31-.51-.53-.79-.7.01 0 .02 0 .03-.01-.17-.12-.36-.22-.58-.29l-18.59-5.45c-.13-.04-.26-.06-.4-.07-1.91-.16-3.18.44-4.02 1.27.04-.12.07-.26.08-.41zm23.18 9.53c-.15 1.63-.86 2.96-1.59 2.96s-1.21-1.32-1.07-2.96c.15-1.63.86-2.96 1.59-2.96s1.21 1.33 1.07 2.96zm-4.45 2.34-16.89-5.49c-1.67-.94-2.18-5.57 1.94-5.23l15.99 4.68c-.59.78-1.1 2.06-1.23 3.52-.1.94 0 1.8.19 2.52zm-39.5-28.58 17.65 4.41-2.38 1.18c-.19-.13-.4-.22-.63-.28l-17.38-4.32zm19.17 5.89-.4 10.75-.18.11-.07-.02c-.08.08-.18.14-.26.22l-2.47 1.49.35-11.05zm-24.67-3.39c.04-.04.09-.07.14-.1l19.51 4.85-.38 11.74-19.52-5.63zm-4.89 7.39 2.71.84-.06 2.58c-.02.91.57 1.72 1.45 1.97l19.52 5.63c.41.12.84.09 1.23-.05.04.1.09.2.13.31.34-.01.69-.08.99-.27l3.28-1.98.69.21c-.2.75-.23 1.56-.1 2.34.26 1.5 1.15 2.8 2.17 3.37.11.06.23.12.36.16l18.81 6.11c.34.11.69.12 1.02.04.18.04.35.06.54.06.7 0 1.44-.28 2.08-.95.58-.6 1.12-1.7 1.38-3.02l11.94 3.68c1.29 2.56 2.5 4.85 3.63 6.88l-80.94-25.01zm-8.78 11.05-.27-6.03 82.29 25.43c1.84 3.14 3.45 5.54 4.88 7.41zm95.02 30.91c-2.57-.18-5.97-3.75-10.2-10.64l.12.04c-.12-.13-.23-.26-.34-.39-1.92-3.16-4-7.01-6.25-11.53 0-.02 0-.04 0-.06l-.03-.01c-3.61-7.27-7.64-16.26-12.09-26.99l-.2-.49c3.23-.82 7.9-4.81 10.25-7.17 1.58-1.59 3.82-4.07 5-6.48l11.52 30.41c.17.45.63.71 1.11.63.47-.08.82-.49.83-.97.18-11.83.62-20.64 1.22-27.29.45 2.37.99 4.83 1.66 7.4 0 0 .51 30.17.88 52.42-1.18.81-2.36 1.2-3.48 1.12zm2.58-63.06c-2.49-14.8-.2-25.27 8.85-29.9-6.87 8.48-8.72 19.51-8.85 29.9zm2.03 10.4c.18-.19.29-.46.27-.74-.9-13.44-.51-30.24 10.54-40.98.13-.13.2-.28.25-.44.77-.42 1.54-.89 2.33-1.33.36 1.52.69 2.99 1 4.41 1.02 4.7 1.9 8.76 3.92 11.53.19.27.5.41.81.41.16 0 .32-.04.47-.12 7.37-3.94 20.29-12.01 24.44-21.96 3.55 1.84 7.13 4.03 10.26 6.19-.45.06-.9.15-1.34.26-3.25.81-6.44 2.95-8.95 6.26-5.47 7.19-7.87 20.09-.33 35.69.37.76 1.16 1.18 1.96 1.11.09.28.18.55.28.83.01.01.01.03.01.04 2.68 7.11 5.24 15.83 7.62 26.74.08 15.9-7.19 40.33-11.87 53.32-18.62-.05-40-2.63-40.42-6.43zm60.01 128.13c-22.19 2.06-43.26 3.05-57.71 1.45 0 0-1.61-31.35-.73-51.57 1.07.62 2.58 1.23 4.48 1.75 7.56 2.07 21.82 3.36 34.91 3.44-.3.81-.59 1.56-.86 2.24-.38.96.03 2.04.95 2.51.79.41 1.65.78 2.54 1.13l-.75 2.06c-3.95 3.33-8.31 10.65-11.74 13.94-.53.51-.74 1.27-.54 1.97.39 1.41 1.47 2.37 3.1 2.6 1.18.17 2.85-.15 4.58-1.18-.19.62-.4 1.26-.61 1.89-.58 1.73-1.65 5.8-1.79 6.53-.33 1.64-.26 2.72-.09 3.37.3 1.11.95 1.64 1.58 1.9.7.29 1.56.28 2.42-.19.21-.11.42-.26.62-.43.13 1.41.84 2.17 1.42 2.47.59.3 1.39.45 2.33-.1.23-.07.72-.22 1.03-.42.14-.09.29-.21.46-.38.37.59.86.96 1.37 1.17.62.25 1.36.31 2.23-.03.62-.24 1.34-.87 1.78-2.09.08-.22.15-.46.22-.74.13.12.27.22.4.3.6.36 1.23.45 1.84.31.61-.13 1.34-.52 1.89-1.57.46-.9.92-2.8.92-6.23.01-3.94.75-9.28.05-18.61 0 0 .52-1.55 1.17-3.46.87.06 1.72.1 2.53.1-.05 17.38 0 35.87 0 35.87zm-5.75-13.91c-.01 6.96-1.69 6.59-2.36 4.64-.68-1.9-.69-5.44-.58-9.09-1.52 6.19-1.59 12.13-2.85 12.62-2.43.95-1.86-5.32-.19-13.21-.87 3.16-2.35 7.02-2.9 9.5-.87 3.9-1.62 3.07-2.18 3.46-.72.49-.92-.34-.84-1.8l-.21.1c.04-.02.07-.04.11-.06l.1-.04c.21-3.89 2.44-12.24 2.44-12.24-.96 1.74-4.24 8.86-4.59 10.27-.43 1.75-3.42 3.92-2.42-1.07.14-.71 1.17-4.63 1.73-6.29.92-2.77 1.73-5.5 1.37-7.89-3.29 4.98-7.82 5.56-8.41 3.41 3.53-3.38 8.03-11.09 12.05-14.18l.93-2.57c3.16 1.07 6.65 1.81 9.97 2.19l-1.15 3.39c.75 9.51-.02 14.9-.02 18.86zm8.18-24.06c-5.89.5-14.68-1.03-20.48-4 4.31-10.95 13.19-38.7 13.57-56.83 1.75-.16 3.38-.01 4.78.3 2.93.65 4.86 1.85 4.86 1.85.1.08.25.05.33-.05s.05-.25-.05-.33c0 0-1.83-1.54-4.78-2.65-1.47-.55-3.2-.96-5.11-1.07 1.12-.34 2.2-.53 3.18-.62 2.03-.19 3.5-.01 3.5-.01.12.03.25-.05.28-.17.03-.13-.05-.25-.17-.28 0 0-1.47-.51-3.59-.77-1.11-.14-2.37-.18-3.7-.06-2.28-10.08-4.7-18.27-7.25-25.01-.17-.48-.32-.94-.48-1.4.17-.41.21-.88.06-1.34-7.72-24.89 2.32-33.8 11.17-32.12 4.44.84 6.33 4.55 8.05 9.82.16.5.51.89.94 1.13 6.11 16.98 9.08 46.49 8.35 54.3-1.25 13.41-6.25 36.86-13.46 59.31z"/><path d="m223.33 85.93c.5-1.12 1.44-1.35 2.09-1.01.24.12.4.35.49.63.08.27.1.59-.03.98-.08.24-.18.51-.34.79-.33.58-.81 1.23-1.55 1.94-.16.13-.2.34-.08.49s.35.16.51.03c.81-.49 1.43-.98 1.91-1.45s.79-.94 1.01-1.38c.37-.74.4-1.42.25-1.96-.2-.73-.75-1.25-1.42-1.48-.32-.11-.66-.17-1.01-.13-.27.02-.55.07-.81.18-.77.33-1.51 1.01-1.72 2.22-.06.19.05.37.24.41.2.05.4-.08.46-.26z"/><path d="m221.78 262.26c-.01-.05-.01-.09-.03-.14-.02-.04-.05-.08-.08-.12s-.05-.09-.08-.12c-.02-.02-.04-.02-.05-.04-.12-.11-.28-.18-.45-.19-1.03 0-2.75-.28-4.44-.8-1.57-.48-3.11-1.14-4.07-1.96-.15-.14-.38-.13-.51.02-.14.15-.13.38.02.51.96.97 2.56 1.83 4.2 2.48 1.45.58 2.93.98 4.04 1.16l.5 28.96c.01.41.34.74.75.74h.01c.41-.01.74-.35.74-.76l-.51-29.61c-.01-.05-.03-.09-.04-.13z"/><path d="m200.97 92.55c-1.32-.24-2.48-.49-3.81-.55-1.17-.05-2.42.07-3.98.47-.52.19-.78.77-.59 1.29.16.42.57.66.99.63-.03.12-.06.25-.05.38.03.72.6 1.28 1.27 1.25s1.19-.64 1.15-1.36c-.02-.42-.23-.76-.52-.99.63-.23 1.22-.39 1.8-.49 1.27-.22 2.42-.22 3.71-.28.09.01.18-.07.18-.16.02-.1-.05-.18-.15-.19z"/><path d="m174.02 144.08c.25.5.85.7 1.34.45s.7-.85.45-1.34c-.75-1.22-1.98-1.95-3.41-2.25-2.52-.54-5.43.11-5.43.11-.13.02-.22.14-.2.26.02.13.14.22.26.2 0 0 2.75-.14 4.96.76.91.36 1.68.92 2.03 1.81z"/><path d="m202.6 86.68-5.78-.49c-.1-.01-.22.01-.32.04l-6.21 2.26c-.39.14-.59.57-.45.96.11.3.4.49.71.49.08 0 .17-.01.26-.04l6.06-2.21 5.62.48c.41.04.78-.27.81-.68.02-.41-.28-.77-.7-.81z"/></g><g clip-path="url(#a)" fill="#63b15a"><ellipse cx="52.76" cy="74.33" rx="5.35" ry="5.5"/><path d="m56.46 62.71 1.6-26.76h-10.7l1.93 26.87z"/><path d="m138.14 125.16-17.64.53c-.97.03-1.73.84-1.7 1.8.03.95.81 1.7 1.75 1.7h.05l7.76-.23-33.55 12.37c-.91.33-1.37 1.34-1.04 2.25.26.71.93 1.14 1.64 1.14.2 0 .41-.03.61-.11l33.47-12.35-6.14 5.35c-.73.64-.8 1.74-.17 2.47.35.4.83.6 1.32.6.41 0 .82-.14 1.15-.43l13.61-11.88c.23-.2.39-.45.48-.71.12-.25.19-.52.18-.81 0-.96-.82-1.72-1.78-1.69z"/></g></svg>