<?xml version="1.0" encoding="utf-8"?>
<!-- Generator: Adobe Illustrator 22.1.0, SVG Export Plug-In . SVG Version: 6.00 Build 0)  -->
<svg version="1.1" id="Слой_5" xmlns="http://www.w3.org/2000/svg" xmlns:xlink="http://www.w3.org/1999/xlink" x="0px" y="0px"
	 viewBox="0 0 512 512" style="enable-background:new 0 0 512 512;" xml:space="preserve">
<style type="text/css">
	.st0{fill:none;stroke:#000000;stroke-width:3;stroke-linecap:round;stroke-linejoin:round;stroke-miterlimit:10;}
	.st1{fill:#FDCD95;stroke:#000000;stroke-width:3;stroke-linecap:round;stroke-linejoin:round;stroke-miterlimit:10;}
	.st2{fill:#857154;stroke:#000000;stroke-width:3;stroke-linecap:round;stroke-linejoin:round;stroke-miterlimit:10;}
	.st3{fill:none;stroke:#000000;stroke-width:2.9368;stroke-linecap:round;stroke-linejoin:round;stroke-miterlimit:10;}
	.st4{fill:#B5D758;stroke:#000000;stroke-width:3;stroke-linecap:round;stroke-linejoin:round;stroke-miterlimit:10;}
</style>
<g>
	<g>
		<path class="st0" d="M449.1,65.1c0,0,7.3,37.4-25.6,58.6"/>
		<path class="st0" d="M461.4,88.7c0,0,3.9,19.8-13.5,31"/>
		<path class="st0" d="M472.5,94.5c0,0,3.3,17-11.6,26.6"/>
	</g>
	<g>
		<path class="st0" d="M351.1,22.5c0,0-34.2,17-30.9,56"/>
		<path class="st0" d="M324.9,27.1c0,0-18,9-16.3,29.6"/>
		<path class="st0" d="M313.5,21.8c0,0-15.5,7.7-14,25.4"/>
	</g>
	<path class="st1" d="M153.6,353.5c0,0-8.6,114.9-26.7,144.9c0,0-18.7-0.6-21.6-4.9c-2.9-4.2,9.4-127.1,16.8-143.4s27-6.2,27-6.2
		L153.6,353.5z"/>
	<path class="st1" d="M312.8,319c0,0,82.9-25.1,83.3-54.3c0.4-29.2-12.5-91.6-13.1-99.2c-0.6-7.6-0.2-28.2,12.6-43.3
		c12.8-15.1,19.1-30.5,11.8-27.8c-7.4,2.7-24.7,21.6-18.8,10.4c7.5-14.4,18.4-37.1,9.9-33.1c-8.5,4-22.5,34.5-22.4,26.9
		c0.1-7,13.7-38.8,5.6-32.7c-1.3,1-3,3.7-3.6,5.3c-2.9,7-12.9,29.7-13,19.7c0-1.4,0.2-2.7,0.6-4c1.7-5.8,6.9-25.1,0.2-16
		c-7.8,10.7-17.8,40.2-17.8,40.2s-12.8-23.3-20.5-19.7c-2.5,1.2-2.7,4.3-1.5,6.7c1.5,2.9,3.8,8.3,5.4,13c1.5,4.3,1.6,29.9,11.5,37.7
		c1,0.8,1.7,1.9,2.1,3.2c1.7,6.5,6.2,25.7,3.7,40.4c-3.1,17.9-4.5,51.9-3.2,53.6c1.3,1.7-40.9,18.5-40.9,18.5l-1.7,40.6L312.8,319z"
		/>
	<polygon class="st1" points="199,223.3 199,276.7 244.7,282 267.3,271 267.3,223.3 233.2,216.7 	"/>
	<path class="st2" d="M331,149.2c0,52.9-42.5,95.8-95,95.8s-95-42.9-95-95.8c0-44.1,29.6-81.3,69.8-92.4c11-6.4,27-11.7,41.9-1.9
		C297.2,62.8,331,102,331,149.2z"/>
	<path class="st3" d="M260.7,61.7c-2.6-2.8-5.2-5.1-7.9-6.8"/>
	<path class="st3" d="M210.8,56.7C202.5,61.6,197,67,197,67"/>
	<path class="st4" d="M197,250.1c0,0-53.1-19.5-77.7,72l-18.6,54.2c0,0-2,24.6,48.2,26.3l-7.8,91.5l190,4.2c0,0-21-163.6-14.2-168.6
		c6.8-5.1,39.8-28.8,39.8-28.8s-22-40.7-15.3-55.9c0,0-60.2,15.3-73.7,6.8C267.6,251.8,237,297.8,197,250.1z"/>
	<line class="st0" x1="158.3" y1="340.8" x2="148.8" y2="402.6"/>
	<path class="st0" d="M294,362.8c0,0,8.5-22.7,22.8-33.1"/>
	<path class="st0" d="M165.3,183.3c0,0,5.7,21.3,22,27.7"/>
	<path class="st0" d="M180.3,187.7c0,0,5,9.7,9.3,13.7"/>
	<path class="st0" d="M314.7,134.3c0,0,4.3,24.3-4.7,43"/>
	<path class="st0" d="M307.3,142.7c0,0,2,16-2,25.3"/>
	<path class="st0" d="M173.7,98.7c0,0-8.3,24.7,0,44"/>
	<path class="st0" d="M165.3,107.8c0,0-5,18.8,0,29.2"/>
</g>
</svg>
