<svg enable-background="new 0 0 297.64 297.64" viewBox="0 0 297.64 297.64" xmlns="http://www.w3.org/2000/svg"><path clip-rule="evenodd" d="m187.71 54.71c-9.96-3.23-39.95-8.62-55.44 10-26.67 32.07-15.84 106.94-15.84 106.94l107.98-1.93s2.23-25.84-2.67-52.49c-5.19-28.14-17.94-57.3-34.03-62.52z" fill="#43210f" fill-rule="evenodd"/><path clip-rule="evenodd" d="m75.08 236.67c-2.25-22.53-4.48-46.83-9.28-71.64 4.36-7.76-2.26-14.19-3.67-23.22-.9-5.75 1.9-9.63.76-11.41-3.75-1.52-6.64 6.31-8.6 14.45l-8.7-8.34c-5.02-4.75-10.95-15.57-13.84-16.9-4.99-2.29-2.16 5.19 8.37 22.12-10.57-10.42-15.22-22.24-19.46-19.88-.88.49-1.06 2.68 4.14 10.05 3.72 5.28 8.85 14.18 10.46 16.63-7-7.58-11.36-12.14-14.23-14.71-3.12-2.79-4.93-.81-2.14 4.31 2.27 4.15 8.27 10.71 13.61 16.35-6.14-4.11-11.56-9.19-13.62-9.24-2.02-.04-2.16 2.67 10.76 13.89 8.78 7.63 15.79 12 21.4 13.04.31 45.49-.17 89.59 9.63 94.41 4.22 4.58 23.23-2.81 42.7-26.23l-22.6-13.67z" fill="#fdd5b4" fill-rule="evenodd"/><path clip-rule="evenodd" d="m208.59 100.9c-1.64-.81-3.62-.5-5.4.64-1.32-23.66-17.47-42.39-37.18-42.39-20.32 0-36.86 19.91-37.26 44.62-2.56-1.67-5.34-1.97-7.16-.52-2.66 2.12-2.29 7.18.81 11.29 2.36 3.13 5.64 4.81 8.24 4.5 3.72 13.67 12.61 24.46 23.83 28.93.89 4.06 1.03 8.16-1.49 12.46 1.02 4.89 10.08 16.8 17.17 16.98 6.32.16 14.13-13.84 15.02-18.34-2.64-3.85-3.28-8.44-3.02-13.35 9.71-5.71 17.09-16.41 19.9-29.37 2.86.73 6.38-1.42 8.23-5.21 2.04-4.19 1.28-8.77-1.69-10.24z" fill="#fdd5b4" fill-rule="evenodd"/><path clip-rule="evenodd" d="m255.49 188.03c-2.3-6.13-1.31-22.46-9.64-31.51-2.72-2.95-4.06-13.4-3.99-15.6.17-4.79-8.81-.89-5.59 11.65 2.09 6.58-10.51 6.8-17.52 6.47-4.86-.23-5.96.59-6.66 2.46-1.01 2.71 2.34 4.17 2.34 4.17-2.53.05-2.97 1.85-3.09 3.39-.21 2.64 1.63 5.58 3.64 5.36-1.91 4.25.84 7.79 3.96 8.42 0 0-1.6 4.29 3.2 6.02 9.09 3.28 19.05-.35 19.05-.35l3.45 46.99c-4.98 5.4-14.18 12.69-14.18 12.69s19.25 33.27 31.1 27.13c17.73-9.16-6.07-87.29-6.07-87.29z" fill="#fdd5b4" fill-rule="evenodd"/><path clip-rule="evenodd" d="m244.09 236.89c-2.51-13.1-1.95-27.21-2.99-42.13-.26-1.41-.53-2.82-.82-4.23-.02-.09-.03-.17-.04-.26-6.05 2.42-14.47 1.89-20.16-.54-2.02-.86-2.97-4.34-2.65-6.56-2.89-1.19-5.12-5.02-3.35-7.67-.14-.03.74-.49.6-.52-3-.74-4.09-3.22-3.75-5.66-7.37-4-15.64-7.43-24.84-10.18-.02.17-.03.34-.07.51-.31 1.64-.79 3.14-1.41 4.52-.83 3.55-2.72 6.35-5.57 8.34-2.01 3.3-4.67 5.89-9.24 5.78-2.8-.07-4.65-1.27-6.25-2.85-1.5-.68-2.82-1.77-3.92-3.18-2.72-2.4-4.87-5.57-6.26-8.71-.65-1.48-.75-3.01-.37-4.34l-.31.01c-17.39 1.14-45.02 14.18-74.11 62.92 11.12 11.09 23.06 16.8 36.54 19.99.24 6.73 6.06 12.84 9.02 14.97-.45 8.11-.75 15.78-.53 21.76l92.16 1.75c-.01-5.18-2.52-25.32-2.52-25.32 1.35-.18 6.18-.41 8.35-6.38 1.14-3.13 1.67-5.74.84-9.63l5.3 10.47c7.42-4.77 11.64-8.57 16.35-12.86z" fill="#bbe4f9" fill-rule="evenodd"/><path clip-rule="evenodd" d="m226.11 46.55c6.24 8.26 14.97 23.73 17.03 36.66 4.36-20.67 18.72-46.07 30.9-58.65-11.07 5.15-22.39 16.36-32.37 36.38-4.45-8.5-10.32-11.57-15.56-14.39z" fill="#76a641" fill-rule="evenodd"/><path clip-rule="evenodd" d="m170.43 196.49c1.56-.01 2.8-1.29 2.77-2.85s-1.33-2.82-2.89-2.81-2.8 1.29-2.77 2.85c.04 1.56 1.33 2.82 2.89 2.81z" fill="#203756" fill-rule="evenodd"/><path clip-rule="evenodd" d="m170.66 207.52c1.56-.01 2.8-1.29 2.77-2.85s-1.33-2.82-2.89-2.81-2.8 1.29-2.77 2.85 1.33 2.82 2.89 2.81z" fill="#203756" fill-rule="evenodd"/><path clip-rule="evenodd" d="m170.77 212.8c-1.56.01-2.8 1.29-2.77 2.85s1.33 2.82 2.89 2.81 2.8-1.29 2.77-2.85-1.33-2.82-2.89-2.81z" fill="#203756" fill-rule="evenodd"/><path clip-rule="evenodd" d="m217.76 157.59h14.8c1.93-1.08 3.18-2.97 3.14-6.26-.06-4.77-.09-9.17 2.7-12.07-.92-5.54-2.25-10.44-3.01-12.84-3.07-9.66-19.9-55.96-24.24-63.26-19.88-33.38-54.65-25.42-60.54-16.13-.03.42-.06.83-.08 1.23l-.2-1.67c-9.64-.27-16.23 2.97-22.24 9.62-6.33 7.01-10.19 20.68-13.04 31.48-4.98 18.84-13.98 47.74-16.35 57.14-4.35 17.29 8.33 30.61 15.06 32.31 3.87.98 9.7.07 13.39-5.42-13.17-2.96-16.44-47.86 2.2-73.28 4.24-15.17 22.97-23.11 22.97-35.17l-.38-3.2c6.45 16.15 32.42 7.27 51.51 33.68 12.62 17.48 21.32 44.79 14.31 63.84z" fill="#713e1b" fill-rule="evenodd"/><path d="m109.22 127.51c-.11.34-.21.68-.32 1.02.07-.08.18-.44.32-1.02z" fill="#9c5929"/><path d="m219.83 91.09c-14.31-38.53-39.66-64-68.66-41.62 3.71.22 61.74-27.23 82.24 105.74-1.19-17.44-6.75-45.74-13.58-64.12z" fill="#9c5929"/><path d="m109.22 127.51c8.21-26.57 20.21-74.72 37.85-75.87-21.95-13.43-35.41 65.91-37.85 75.87z" fill="#9c5929"/><g clip-rule="evenodd" fill-rule="evenodd"><path d="m180.54 123.89c-10.26 2.36-19.63 2.55-28.15.67-.79-.17-1.61.15-2.07.81-.46.67-.48 1.55-.04 2.23 4.38 6.76 10.28 10.28 16.13 10.32 5.86.04 11.84-3.39 16.31-11.07.4-.69.35-1.55-.12-2.19-.48-.65-1.29-.95-2.06-.77zm-28.59 2.62c4.4.97 9.01 1.41 13.84 1.31 4.84-.11 9.9-.76 15.19-1.98-8.02 13.8-21.14 12.85-29.03.67z" fill="#010101"/><path d="m140.26 95.16c.17-.18.81-.4 1.73-.71 1.18-.4 2.82-.79 4.69-1.08.72-.11 1.47-.21 2.25-.3.73-.09 1.48-.17 2.24-.22 1.23-.08 2.48-.1 3.74.06 1.24.15 2.46.41 3.66.91.26.14.58.04.71-.22.14-.26.04-.58-.22-.71-1.82-1.18-3.81-1.88-5.84-2.2-1.41-.22-2.83-.26-4.18-.13-.56.05-1.11.15-1.65.26-.85.18-1.65.4-2.4.66-1.35.46-2.5 1-3.4 1.5-1.22.67-1.99 1.28-2.17 1.57-.18.23-.13.56.1.74.23.15.56.1.74-.13z" fill="#010101"/><path d="m172.23 102.39c1.33-1.6 2.79-2.48 4.18-2.94-.25.45-.41.95-.41 1.49 0 1.78 1.56 3.22 3.49 3.22s3.49-1.44 3.49-3.22c0-.43-.09-.84-.26-1.21 2.47.93 4.73 2.7 5.95 4.85.23.4.65.63 1.09.63.21 0 .42-.05.62-.17.6-.34.81-1.11.46-1.71-2.1-3.67-6.41-6.39-10.72-6.76-3.79-.34-7.28 1.17-9.81 4.22-.44.53-.37 1.32.16 1.76.53.45 1.32.37 1.76-.16z" fill="#010101"/><path d="m172.16 92.53c1.29-.27 2.52-.39 3.72-.47 1.3-.08 2.52-.05 3.7.02.76.04 1.49.11 2.2.17.77.07 1.5.13 2.2.22.97.12 1.85.25 2.64.4 2.42.46 3.9 1.01 3.9 1.01.26.14.58.04.71-.22.14-.26.04-.58-.22-.71 0 0-2.03-1.42-5.46-2.46-.72-.22-1.51-.4-2.35-.55-.51-.09-1.05-.17-1.6-.2-1.27-.08-2.62-.03-4.02.16-1.86.26-3.77.8-5.75 1.62-.28.09-.43.38-.34.66.09.29.39.44.67.35z" fill="#010101"/><path d="m147.46 100.35c-.16.37-.26.78-.26 1.21 0 1.81 1.59 3.29 3.56 3.29 1.96 0 3.56-1.47 3.56-3.29 0-.6-.19-1.15-.49-1.64 1.44.44 2.96 1.33 4.35 2.99.44.53 1.23.6 1.76.16s.6-1.23.16-1.76c-2.54-3.05-6.02-4.55-9.81-4.22-4.31.37-8.62 3.09-10.73 6.76-.34.6-.14 1.36.46 1.71.2.11.41.17.62.17.43 0 .85-.23 1.09-.63 1.19-2.08 3.34-3.8 5.73-4.75z" fill="#010101"/><path d="m160.11 114.35c1.55 1.78 3.71 2.78 5.92 2.78.33 0 .67-.02 1.01-.07 2.17-.3 3.92-1.56 4.81-3.46.24-.5.02-1.1-.48-1.33s-1.1-.02-1.33.48c-.6 1.28-1.8 2.13-3.28 2.33-1.88.26-3.8-.5-5.14-2.05-.36-.42-.99-.46-1.41-.1-.42.37-.46 1-.1 1.42z" fill="#010101"/><path d="m185.3 158.54c.18.97.08 1.99-.35 2.96.14 1.17-.05 2.4-.58 3.53-1.79 3.85-4.39 7.62-8.11 9.77-3.33 3.62-8.87 3.11-12.93 0-4.61-2.42-8.21-7.22-10.68-11.64-.75-1.34-.87-2.82-.5-4.16-4.95 1.02-9.29 2.16-13.18 3.39 12.24 35.51 24.78 34.49 31.06 15.2 8.39 18.08 17.59 20.82 27.25-14.8-2.99-1.21-6.6-2.43-11.98-4.25z" fill="#fff"/><path d="m180.98 125.84c-10.59 2.44-20.24 2.61-29.03.67 7.89 12.18 21.01 13.13 29.03-.67z" fill="#fff"/><path d="m170.45 198.49c2.68-.02 4.81-2.21 4.76-4.89-.05-2.65-2.25-4.79-4.9-4.77-2.68.02-4.81 2.21-4.76 4.89.05 2.65 2.25 4.79 4.9 4.77zm-.13-7.66c1.56-.01 2.86 1.25 2.89 2.81s-1.21 2.84-2.77 2.85-2.85-1.25-2.89-2.81 1.2-2.84 2.77-2.85z" fill="#010101"/><path d="m170.68 209.52c2.68-.02 4.81-2.21 4.75-4.89-.05-2.65-2.25-4.79-4.9-4.77-2.68.02-4.81 2.21-4.76 4.89.06 2.65 2.25 4.79 4.91 4.77zm-.14-7.66c1.56-.01 2.86 1.25 2.89 2.81s-1.21 2.84-2.77 2.85-2.85-1.25-2.89-2.81c-.03-1.56 1.21-2.84 2.77-2.85z" fill="#010101"/><path d="m170.75 210.8c-2.68.02-4.81 2.21-4.76 4.89.05 2.65 2.25 4.79 4.9 4.77 2.68-.02 4.81-2.21 4.76-4.89-.05-2.65-2.25-4.79-4.9-4.77zm.14 7.66c-1.56.01-2.86-1.25-2.89-2.81s1.21-2.84 2.77-2.85 2.86 1.25 2.89 2.81-1.21 2.84-2.77 2.85z" fill="#010101"/><path d="m51.52 158.26c-1.05-.42-2.15-.67-3.24-.75-.7-.05-1.4-.02-2.06.05-.71.08-1.39.21-2.02.37-.91.24-1.7.54-2.31.85-.81.41-1.31.83-1.42 1.12-.07.16 0 .35.15.42.16.07.35 0 .42-.15.07-.12.31-.23.62-.36.77-.33 2.03-.62 3.52-.76.85-.08 1.76-.1 2.7-.05.58.03 1.18.07 1.77.16.96.15 1.92.39 2.83.81.87.41 1.71.94 2.46 1.69.11.13.31.15.45.03.13-.11.15-.31.03-.45-1.07-1.42-2.42-2.38-3.9-2.98z" fill="#010101"/><path d="m275.67 23.4c-.56-.78-1.6-1.06-2.47-.65-5.47 2.55-11.02 6.51-16.43 12.22-5.24 5.53-10.38 12.71-15.22 21.84-1.6-2.4-3.32-4.3-5.09-5.88-3.09-2.75-6.35-4.5-9.41-6.14-.83-.45-1.86-.25-2.47.46s-.64 1.76-.08 2.51c3.19 4.23 7.05 10.38 10.3 17.1 2.95 6.1 5.4 12.67 6.36 18.68.15.95.96 1.66 1.93 1.68.96.02 1.81-.64 2.01-1.59 2.06-9.79 6.42-20.66 11.71-30.68 5.69-10.78 12.46-20.59 18.67-27 .67-.7.75-1.77.19-2.55zm-32.53 59.81c-2.06-12.93-10.79-28.4-17.03-36.67 5.24 2.82 11.11 5.9 15.56 14.39 9.98-20.02 21.3-31.23 32.37-36.38-12.18 12.59-26.54 37.99-30.9 58.66z" fill="#010101"/><path d="m257.88 187.3c-.02-.05-.03-.1-.05-.15-1.68-4.46-1.6-14.33-4.65-22.85-1.25-3.5-3-6.78-5.49-9.48-.86-.94-1.45-2.84-1.97-4.87-.93-3.62-1.4-7.71-1.36-8.95.08-2.4-1.1-3.72-2.48-4.28-.43-.17-.93-.26-1.46-.26-.89-4.69-1.97-8.7-2.65-10.81-3.1-9.74-20.1-56.42-24.48-63.78-14.69-24.66-37.14-27.81-51.38-24.19-5.44 1.38-9.71 3.81-12.15 6.4-10.13-.13-17.14 3.37-23.54 10.45-6.55 7.25-10.65 21.35-13.6 32.52-4.98 18.85-13.99 47.77-16.35 57.17-2.83 11.27.98 20.98 6.07 27.35 2.38 2.97 5.04 5.18 7.46 6.56-10.57 9.72-21.86 23.46-33.35 42.7-.19.32-.29.67-.33 1.02-1.84-18.1-4-37.11-7.69-56.44 2.07-4.27 1.5-8.22.07-12.34-1.24-3.58-3.21-7.3-3.89-11.65-.57-3.67.58-6.5.92-8.42.3-1.66.1-2.96-.52-3.94-.28-.44-.69-.78-1.17-.97-2.08-.84-4.07-.34-5.86 1.47-1.91 1.94-3.62 5.96-5 10.57 0 0-5.65-5.42-5.65-5.42s-.01-.01-.01-.01c-3.44-3.25-7.29-9.42-10.27-13.27-1.64-2.11-3.16-3.58-4.24-4.08-1.93-.89-3.35-.67-4.2-.2-.89.5-1.59 1.37-1.72 2.82-.04.5 0 1.16.17 1.97-.2-.21-.4-.41-.59-.6-2.52-2.4-4.87-2.85-7.02-1.66-.86.48-1.72 1.35-1.76 3.13-.03 1.24.62 3.68 3.36 7.99-1.68-.9-3.14-.8-4.02-.36-.89.44-1.61 1.23-1.89 2.49-.28 1.25-.03 3.49 1.57 6.41.55 1.01 1.32 2.17 2.24 3.42h-.01c-1.23-.02-2.19.45-2.79 1.14-.48.56-.83 1.31-.77 2.35.04.71.33 1.79 1.28 3.23 1.44 2.18 4.74 5.81 11.35 11.56 8.21 7.13 15 11.48 20.56 13.12.23 31.34.78 61.27 4.36 78.2 1 4.73 2.25 8.5 3.75 11.1 1.13 1.96 2.43 3.32 3.84 4.12.87.77 2.07 1.27 3.6 1.36 1.77.11 4.15-.35 6.97-1.46 8.33-3.27 21.26-12.38 33.7-25.81 2.62.94 5.3 1.75 8.05 2.45 1.02 6.05 5.61 11.45 8.76 14.12-.41 7.72-.68 14.98-.46 20.7.05 1.32 1.13 2.38 2.45 2.4l92.16 1.75c.67.01 1.32-.25 1.8-.72s.75-1.12.75-1.79c-.01-4.18-1.62-17.97-2.27-23.4 2.26-.81 5.28-2.8 7.15-7.95.4-1.1.77-2.52 1.07-4.09 0 0 2.18 4.36 2.18 4.36.35.7 1 1.19 1.77 1.33.32.06.63.04.94-.01 2.53 4.13 10.59 16.68 18.86 23.25 5.1 4.05 10.38 5.73 14.73 3.48 2.72-1.41 4.73-4.05 6.02-7.74 1.73-4.95 2.16-11.95 1.72-19.83-1.5-26.24-12.59-62.68-12.59-62.68zm-107.28-140.27c5.9-9.29 40.66-17.25 60.54 16.13 4.35 7.3 21.17 53.6 24.24 63.26.66 2.08 1.74 6.05 2.62 10.67-.62.32-1.24.75-1.82 1.36-2.21 2.29-4.27 7.18-2.33 14.74.01.05.03.09.04.14.11.34.17.63.07.88-.11.29-.37.48-.67.68-.64.42-1.48.71-2.41.95-3.61.92-8.54.87-12.01.7-.26-.01-.5-.02-.74-.03 6.32-18.99-2.29-45.62-14.69-62.77-22.88-31.64-55.65-12.59-52.84-46.71zm59.27 117.57c.08.18.17.35.27.51-.18.22-.32.47-.46.72-3.4-1.74-6.96-3.37-10.71-4.88-.21-.19-.46-.36-.74-.47-2.97-1.21-6.54-2.43-11.81-4.21-1.44-2.75-1.88-5.86-1.82-9.16 9.19-5.89 16.28-16.01 19.42-28.24 2.76-.33 5.62-2.13 7.59-5.1 3.17 7.76 5.36 16.03 5.99 23.99.53 6.7-.05 13.15-2.12 18.83-.85.08-1.54.22-2.1.41-2.03.68-2.95 1.86-3.61 3.63-.59 1.54-.41 2.86.1 3.97zm-84.95 2.47c.19.29.34.6.45.91-.49-.46-.96-1.01-1.41-1.65-1.35-1.92-2.44-4.53-3.27-7.6-2.85-10.46-2.7-26.13 1.73-40.49 1.9 1.73 4.05 2.83 6.03 3.19.1.02.19.02.28.03 4.06 13.1 12.72 23.45 23.54 28.28.39 2.22.42 4.46-.29 6.75-.87.18-1.71.36-2.55.54-7.03.96-15.46 3.74-24.81 9.63.11.13.21.27.3.41zm-1.62-51.47c.88-2.51 1.89-4.96 3.04-7.32.22 3.61.78 7.1 1.63 10.44-1.6-.51-3.24-1.58-4.67-3.12zm5.43-10.93c0-.27.01-.54.02-.81.82-1.36 1.68-2.68 2.61-3.95.18-.24.31-.52.39-.81 2.43-8.72 9.98-14.86 15.54-20.94 3.17-3.47 5.72-6.95 6.86-10.69 3.21 2.84 7.49 4.6 12.46 6.2 10.31 3.33 23.78 6.27 34.8 21.52.46.63.91 1.29 1.35 1.94.33 2.45.52 4.95.52 7.51 0 25.12-16.7 45.52-37.28 45.52-20.57.04-37.27-20.36-37.27-45.49zm21.15 54.83c.28-.04.56-.08.83-.11-.22.48-.29 1.02-.18 1.54.68 3.23 4.43 9.31 9.1 13.65 3.05 2.83 6.49 4.85 9.61 5.23-6.5 17.09-18.53 16.67-30.28-17.41 3.29-1.04 6.9-2.01 10.92-2.9zm3.1.92c1.94-3.3 2.29-6.49 1.95-9.63 3.52 1.24 7.24 1.91 11.08 1.91 5.72 0 11.17-1.48 16.11-4.13.11 3.83.93 7.4 3.05 10.49-.89 4.5-8.7 18.5-15.02 18.34-7.1-.18-16.15-12.09-17.17-16.98zm24.76 15.74c4.87-4.69 9.15-13.11 9.86-16.56 3.33 1.04 6.54 2.16 9.63 3.38-9.22 33.9-18.03 32.83-26.11 16.86 2.16-.29 4.47-1.61 6.62-3.68zm27.97-74.34c1.69 2.88 3.25 5.92 4.66 9.07-.03.08-.06.15-.1.23-1.32 2.7-3.49 4.55-5.67 5.14.76-3.71 1.18-7.59 1.18-11.59 0-.95-.02-1.9-.07-2.85zm-107.03 43.01c2.36-9.4 11.37-38.31 16.35-57.14 2.85-10.8 6.71-24.48 13.04-31.48 5.55-6.14 11.6-9.35 20.08-9.6-.01.07-.04.14-.04.22-.75 9.03.92 14.66 4 18.53-1.97 10.93-18.78 18.81-22.77 33.09-3.25 4.44-5.84 9.47-7.82 14.77-.01-.01-.01-.02-.02-.03-.02.07-.03.14-.05.21-9.28 25.02-5.15 55.88 5.69 58.33-3.69 5.49-9.53 6.4-13.39 5.42-6.74-1.71-19.41-15.02-15.07-32.32zm-21.85 79.06c.9.9 1.81 1.75 2.72 2.58l-2.62 3.52c-.23-2.35-.47-4.72-.71-7.1.12.37.32.72.61 1zm-56.17-102.03c4.15-2.31 8.71 8.99 18.83 19.24-.24.22-.49.43-.73.67-.99.99-1.91 2.1-2.71 3.25-.32.47-.62.94-.9 1.42-.2.34-.39.69-.58 1.03-2.08-3.35-6.48-10.87-9.78-15.55-5.19-7.38-5.01-9.56-4.13-10.06zm-1.77 16.29c-2.79-5.12-.98-7.09 2.14-4.31 2.76 2.47 6.9 6.79 13.43 13.85-.17.33-.34.65-.5.97-1.09 2.25-1.78 4.2-2.1 5.17-5.16-5.48-10.79-11.69-12.97-15.68zm43.11 127.38c-9.8-4.82-10.64-47.85-10.95-93.34-5.62-1.04-12.63-5.41-21.4-13.04-12.92-11.23-12.79-13.93-10.76-13.89 1.98.04 7.08 4.75 12.92 8.76-.09.29-.14.45-.14.45-.08.22.02.46.24.55.22.08.46-.02.55-.24 0 0 .97-1.91 2.53-4.45.55-.89 1.17-1.86 1.83-2.85.41-.61.83-1.23 1.26-1.86.63-.92 1.27-1.84 1.96-2.71 1.31-1.63 2.73-3.08 4.35-3.97.21-.1.3-.35.21-.56s-.35-.3-.56-.21c-1.54.59-3.02 1.58-4.38 2.79-10.13-16.38-12.8-23.6-7.89-21.34 2.89 1.33 8.82 12.15 13.84 16.9l7.32 7.02c-.17 1.83-.21 4.43.4 7.28.61 2.84 1.85 5.92 4.3 8.66-2.09-2.91-3.01-6.01-3.31-8.82-.55-5.1.94-9.19.94-9.19.04-.12.04-.24.03-.35 1.9-6.61 4.44-12 7.62-10.72 1.13 1.78-1.66 5.66-.76 11.41 1.41 9.03 8.03 15.47 3.67 23.22 4.71 24.39 6.95 48.27 9.16 70.47-.04 1.31-.21 2.81-.46 4.29-.46 2.72-1.15 5.31-1.8 6.32-.12.17-.08.42.09.54s.42.08.54-.09c.78-1 1.78-3.65 2.52-6.48.54-2.04.91-4.15.99-5.8l4.57-6.14c6.61 5.66 13.51 9.68 20.85 12.58-17.87 19.04-36.49 28.93-40.28 24.81zm166.67-17.15-4.6-9.18c-.05-2.09-.24-4.24-.53-6.44-.61-4.67-1.54-9.48-1.69-14.01-.15-4.78.52-9.25 3.48-12.88.23-.26.2-.66-.06-.89s-.66-.2-.89.06c-4.14 4.4-5 10.32-4.79 16.64.13 3.75.63 7.64 1.04 11.43.34 3.2.61 6.31.44 9.21-.18 3.06-.81 5.87-2.5 8.23-2.71 3.81-7.93 6.44-17.42 7.34-.35.02-.61.32-.59.67s.32.61.67.59c5.14-.15 9.14-.89 12.25-2.07.61 5.04 2.29 19.28 2.3 23.52l-92.16-1.75c-.22-5.9.07-13.46.51-21.47 3.05 1.1 6.92 1.78 11.84 1.93.35.02.65-.24.67-.59s-.24-.65-.59-.67c-9.48-.9-14.7-3.53-17.42-7.34-1.68-2.36-2.32-5.17-2.5-8.23-.17-2.89.1-6.01.44-9.21.4-3.78.91-7.67 1.04-11.43.22-6.33-.65-12.24-4.79-16.64-.23-.26-.63-.29-.89-.06s-.29.63-.06.89c2.96 3.62 3.63 8.1 3.48 12.88-.14 4.53-1.08 9.34-1.69 14.01-.39 3-.62 5.93-.51 8.7-12.68-3.27-24.01-8.94-34.59-19.5 11.63-19.48 23.03-33.25 33.63-42.84.31.11.62.22.91.29 4.64 1.17 11.65.13 16.08-6.45.46-.68.55-1.55.25-2.32s-.97-1.33-1.77-1.52c-.53-.12-1.03-.35-1.51-.66 3.63-2.27 7.11-4.04 10.42-5.42v.02c4.58 13.29 9.28 21.62 13.63 25.96 3.53 3.51 6.99 4.64 10.1 4.1 2.12-.36 4.16-1.52 6.01-3.48 1.44-1.53 2.79-3.6 4-6.15 1.94 3.37 3.94 5.91 5.93 7.44 2.52 1.94 5.1 2.48 7.7 1.62 2.22-.73 4.58-2.67 6.86-6.24 2.85-4.48 5.79-11.78 8.74-22.55 3.27 1.35 6.39 2.81 9.37 4.35-.03.2-.06.4-.08.6-.16 2.07.56 4.27 1.72 5.78.41.53.87.98 1.37 1.33-.25 1.74.05 3.34.69 4.7.77 1.65 2.07 2.96 3.58 3.79 0 .98.18 2.15.79 3.28.7 1.3 1.96 2.62 4.3 3.47 3.55 1.28 7.22 1.62 10.48 1.5 2.82-.1 5.32-.54 7.15-.96 0 0 3.04 37.65 3.93 44.38-4.26 3.78-9.12 7.74-14.17 12.24zm32.91 26.95c-10.45 5.41-26.64-19.8-30.33-25.85-.02.01-.05.01-.07.02 4.3-3.8 8.45-7.25 12.21-10.54.13.78.26 1.56.41 2.33-.77.79-1.43 1.83-1.87 2.97-.52 1.32-.79 2.7-.68 3.74.01.18.15.32.33.32s.32-.15.32-.33c.04-.93.46-2.11 1.09-3.21.33-.59.74-1.13 1.19-1.61.3 1.46.62 2.89.96 4.21 1.11 4.34 2.49 7.7 4.03 8.52.17.1.39.04.49-.13s.04-.39-.13-.49c-1.38-.85-2.37-4.08-3.17-8.17-.35-1.76-.65-3.68-.91-5.65 0 0 0-.01 0-.02-.77-5.77-1.2-11.94-1.44-15.69-.01-.06-.03-.1-.05-.16l-2.59-35.26c1.15-.5 2.23-1.14 3.16-1.85 2.05-1.56 3.4-3.34 3.52-4.25.04-.21-.09-.41-.3-.45s-.41.09-.45.3c-.2.77-1.61 2.11-3.54 3.25-1.33.79-2.92 1.44-4.58 1.69-.16.03-.3.11-.42.21-3.52.86-10.26 1.91-16.57-.37-2.77-1-3.4-2.84-3.45-4.23 1.84.31 4.08.33 6.25.13 3.23-.3 6.3-1.06 7.6-1.96.2-.13.27-.4.14-.6s-.4-.27-.6-.14c-1.28.73-4.19 1.17-7.22 1.21-2.63.03-5.35-.27-7.14-1.03-.16-.06-.32-.07-.48-.05-1.88-1.09-3.22-3.28-2.81-5.93.29.06.6.11.92.16 1.92.27 4.38.33 6.84.2 4.01-.21 7.98-.94 9.55-2 .2-.13.26-.4.13-.6s-.4-.26-.6-.14c-1.54.91-5.33 1.29-9.11 1.25-3.7-.04-7.39-.48-8.83-1.4-.11-.07-.24-.1-.36-.12-1.05-1.03-1.76-2.84-1.63-4.53.07-.91.27-1.9.92-2.58.33.16.7.31 1.12.44 2.06.64 5.24 1.04 8.44 1.07 4.4.05 8.79-.61 10.35-2.09.18-.16.2-.44.03-.62-.16-.18-.44-.2-.62-.03-1.52 1.29-5.64 1.53-9.7 1.24-2.55-.18-5.06-.6-6.94-1.16-1.08-.32-1.91-.67-2.31-1.08-.05-.04-.1-.06-.15-.1-.5-.67-.8-1.55-.4-2.64.7-1.87 1.8-2.69 6.66-2.46 7 .33 19.61.12 17.52-6.47-3.21-12.54 5.76-16.44 5.59-11.65-.08 2.2 1.27 12.65 3.99 15.6 8.34 9.05 7.34 25.38 9.64 31.51-.04-.03 23.76 78.1 6.05 87.27z" fill="#010101"/></g></svg>