<?xml version="1.0" encoding="utf-8"?>
<!-- Generator: Adobe Illustrator 22.1.0, SVG Export Plug-In . SVG Version: 6.00 Build 0)  -->
<svg version="1.1" id="Слой_3" xmlns="http://www.w3.org/2000/svg" xmlns:xlink="http://www.w3.org/1999/xlink" x="0px" y="0px"
	 viewBox="0 0 512 512" style="enable-background:new 0 0 512 512;" xml:space="preserve">
<style type="text/css">
	.st0{fill:none;stroke:#000000;stroke-width:3;stroke-linecap:round;stroke-linejoin:round;stroke-miterlimit:10;}
	.st1{fill:#857154;}
	.st2{fill:#FDCD95;}
	.st3{fill:#FDCD95;stroke:#000000;stroke-width:3;stroke-linecap:round;stroke-linejoin:round;stroke-miterlimit:10;}
	.st4{fill:none;stroke:#1D1D1B;stroke-width:3;stroke-linecap:round;stroke-linejoin:round;stroke-miterlimit:10;}
	.st5{fill:#F6F6F6;}
	.st6{fill:#B5D758;stroke:#000000;stroke-width:3.1624;stroke-linecap:round;stroke-linejoin:round;stroke-miterlimit:10;}
	.st7{fill:none;stroke:#000000;stroke-width:3;stroke-miterlimit:10;}
</style>
<path d="M187.3,243.4c0,0-4.8-8.2-12.9,2.2s-29.8,75.6-15.6,74.3c14.2-1.2,24.5-11.5,24.5-11.5l9.7-55.2l-7.3-9.9"/>
<g>
	<path class="st0" d="M69.2,70.6c0,0-7.3,37.4,25.6,58.6"/>
	<path class="st0" d="M56.9,94.2c0,0-3.9,19.8,13.5,31"/>
	<path class="st0" d="M45.7,100c0,0-3.3,17,11.6,26.6"/>
</g>
<g>
	<path class="st0" d="M167.1,28c0,0,34.2,17,30.9,56"/>
	<path class="st0" d="M193.3,32.6c0,0,18,9,16.3,29.6"/>
	<path class="st0" d="M204.7,27.3c0,0,15.5,7.7,14,25.4"/>
</g>
<path d="M225.8,247.6c0,0,18.3-6.7,36.3-3.2l0.3,22.5c0,0-31.7-11.4-31.4-12.2S225.8,247.6,225.8,247.6z"/>
<path d="M308.9,241.9c0,0,30.8,10.9,39.2,16.9l-8.9,12l-24.2,9l-5.4-6.2l0-5.2L308.9,241.9z"/>
<path class="st1" d="M309.3,230.9v5.3l14.5,3.4l17.7-2.4l13.7-7.6l13-15.7c0,0,10.6-16.3,10.5-32.6c-0.1-16.2-1.1-27.2-1.1-27.2
	s-4.1-25.6-8.5-31.2c-4.4-5.6-8.1-20.9-13.2-23.8c-5.1-2.9-9.8-16.4-19.1-19.9l-14.5-8.7l-11.9-3.8L295,65.7l-3,2l-9.3-3.3l-8-1
	l-12,2.2l-4.6,2.3l-7.5-0.2l-17.2,5l-10.7,7l-14.3,15l-11,20.3c0,0-4.7,12.7-5.4,15.6c-0.8,2.9-5,31.3-4.6,37.4
	c0.4,6.1,4.2,28.8,6.5,34.2c2.3,5.4,9.5,17.8,10.8,19.5c1.4,1.6,11.5,12.9,20.4,14.4c8.9,1.6,12.5,2.8,17.5,3s9.1-1.9,9.1-1.9
	l8.3-16.8l27.1-0.8c0,0,12.3,3.5,13.3,3.8c1.1,0.3,9,3.5,9,3.5V230.9z"/>
<path class="st2" d="M311.2,267l-12.6,4.9l-16,2.3c0,0-18.2-0.7-23.4-3.6c-5.2-2.9-7.6-4.6-7.6-4.6l1.2-34.5
	c0,0-20.9-11.1-27.8-23.3c-6.9-12.2-10.5-22.7-10.5-22.7l-2.3-23.3l6.4-6.9l5.1-9.3l4.6,3.2l5.1,0.6l7.5-9.3l6-13.3l2.3,5.3l5,3.2
	l3.9-3.4l6.5-13.5l0.3,7.2l3.2,3.1l5.6-0.5l5.4-5.5l4.7,3.1l4.3,3.4l5.3,0.7l5.1-4.4l4.7-7.1l2.3,6.8l4.9,9.5l2.7,4h2.9l5.5-4.2
	l3,9.2l3.5,4.5l6.4-0.9l2.2,7.9l2.8,4.4l5.5-0.6l2.8-3.5l0.6,16.2l-6.1,24.5l-10.9,17l-17.1,14.9l-6.6,3.1L311.2,267z"/>
<path class="st3" d="M347.7,155.7c0.9-0.3,1.8-0.4,2.7-0.3c5.5,0.6,9.1,8.5,8.1,17.7c-1.1,9.1-6.4,16-11.9,15.4
	c-0.4-0.1-0.9-0.1-1.3-0.3"/>
<path class="st4" d="M212,160.7c0,0.4,0,0.8,0,1.4"/>
<path class="st0" d="M216.6,192.3c3.5,9.4,8.9,17.8,15.7,24.7c5.6,5.7,12.1,10.4,19.2,13.9c8.7,4.2,18.4,6.5,28.7,6.5
	c10.3,0,20-2.3,28.7-6.5c7.4-3.6,14.1-8.5,19.8-14.4c7.5-7.9,13.3-17.5,16.6-28.3c2.1-6.8,3.2-14,3.2-21.5c0-3.7-0.3-7.4-0.8-11"/>
<path class="st0" d="M251.5,230.9L251.5,230.9v6.4v2V266c26.8,19.9,59.6,1,59.6,1"/>
<polyline class="st0" points="311.2,267 309.3,236.2 308.9,230.9 308.9,230.9 "/>
<path class="st3" d="M216.6,192.3c-0.8,0.6-1.7,1.1-2.7,1.3c-5.4,1.2-11.4-5.2-13.3-14.2c-1.9-9,0.9-17.2,6.3-18.4
	c1.7-0.4,3.4,0,5,0.9c0,1.5,0,3.5,0,4.6C212,175.7,213.6,184.4,216.6,192.3z"/>
<path class="st4" d="M212.1,162.1c-0.1,0-0.1-0.1-0.2-0.1"/>
<path class="st0" d="M251.5,237.2c-6.3,2.1-12.8,2.7-19.3,1.6c-31.5-5.1-50.9-47.4-43.3-94.5c7.5-46.3,38.2-80.1,69.1-76.4"/>
<path class="st0" d="M290.2,67.3c32.2-8.3,69.1,21.4,83.1,67.5c14.3,46.9-0.6,93-33.2,102.9c-10,3-20.6,2.3-30.8-1.5"/>
<path class="st4" d="M258,67.9c4.7-2.8,10.4-4.5,16.6-4.5c5.7,0,11,1.4,15.5,3.9"/>
<path class="st0" d="M203.8,120.1c0,0-1.4,66.6,16.7,29.5c0,0,2-3.6,4.4-7.9c3.2-5.8,7.2-12.9,8.4-14.5"/>
<path class="st0" d="M347.7,155.7c0,0-8.6,15.6-13.2-8.2c0,0-8.9,7.8-12.1-11.7"/>
<path class="st0" d="M325.8,120.1c0,0-4.6,32.4-16.9,12.8c0,0-6.2-11.4-6.2-17.8c0,0-6.1,29.5-22.5,6.8c0,0-17,19.6-15.6-5
	c0,0-9.6,34.4-17.8,10.3c0,0-12.5,36.6-23.2,16.7"/>
<path class="st0" d="M339.4,92.3c0,0,16,24.6,17.8,46.6"/>
<path class="st0" d="M233.3,94.8c0,0-14.5,12.1-16.7,29.5"/>
<ellipse cx="255.8" cy="165.4" rx="6.8" ry="11.9"/>
<circle class="st5" cx="256" cy="162" r="3.8"/>
<ellipse cx="303.6" cy="164.1" rx="6.8" ry="11.9"/>
<path class="st0" d="M241.3,164.1c0-1.6,12.8-17.9,25.6-4.9"/>
<circle class="st5" cx="303.6" cy="162" r="3.8"/>
<path class="st0" d="M317.6,162.7c0-1.6-12.8-17.9-25.6-4.9"/>
<path class="st0" d="M238.4,153.5c0,0,11.9-9.2,24.2-7.3"/>
<path class="st0" d="M293.4,144.3c0,0,15.5-3.3,24.2,8.5"/>
<path class="st0" d="M273.6,183c0,0,8.8-7.5,16.5,0"/>
<path class="st0" d="M259.8,202.3c0,0,20.1,39,45.6,0"/>
<path class="st3" d="M354.3,350.8c0,0,8.6,114.9,26.7,144.9c0,0,18.7-0.6,21.6-4.9c2.9-4.2-9.4-127.1-16.8-143.4s-27-6.2-27-6.2
	L354.3,350.8z"/>
<path class="st3" d="M202.6,315.4c0,0-82.9-25.1-83.3-54.3c-0.4-29.2,12.5-91.6,13.1-99.2c0.6-7.6,0.2-28.2-12.6-43.3
	s-19.1-30.5-11.8-27.8c7.4,2.7,24.7,21.6,18.8,10.4c-7.5-14.4-18.4-37.1-9.9-33.1c8.5,4,22.5,34.5,22.4,26.9
	c-0.1-7-13.7-38.8-5.6-32.7c1.3,1,3,3.7,3.6,5.3c2.9,7,12.9,29.7,13,19.7c0-1.4-0.2-2.7-0.6-4c-1.7-5.8-6.9-25.1-0.2-16
	c7.8,10.7,17.8,40.2,17.8,40.2s12.8-23.3,20.5-19.7c2.5,1.2,2.7,4.3,1.5,6.7c-1.5,2.9-3.8,8.3-5.4,13c-1.5,4.3-1.6,29.9-11.5,37.7
	c-1,0.8-1.7,1.9-2.1,3.2c-1.7,6.5-6.2,25.7-3.7,40.4c3.1,17.9,4.5,51.9,3.2,53.6c-1.3,1.7,40.9,18.5,40.9,18.5l1.7,40.6L202.6,315.4
	z"/>
<path class="st6" d="M236.3,246c0,0-42.7,4.2-50.6-2.6c0,0-15.8,68.5-26.9,74.8c0,0,46.9,11.1,49.5,42.7
	c2.6,31.6-8.4,122.3-8.4,122.3s133.9,23.7,160.2,5.8l-6.3-93.3c0,0,25.3,14.8,43.7-1.6c0,0,1.8-52.2-6.9-90
	c-4.5-19.3-18-35.2-36.4-42.6l-27.9-11.3C326.4,250.2,287.9,304.5,236.3,246z"/>
<line class="st0" x1="353.9" y1="396.5" x2="350.4" y2="342.5"/>
<g>
	<path class="st7" d="M254.2,382.8h-23.8c-3.7,0-6.8-3-6.8-6.8v-27.6c0-3.7,3-6.8,6.8-6.8h23.8c3.7,0,6.8,3,6.8,6.8V376
		C260.9,379.7,257.9,382.8,254.2,382.8z"/>
	<path class="st7" d="M224.8,344.6l13.3,13.5c2.2,2.3,5.9,2.2,8-0.2l12.6-14.3"/>
</g>
</svg>
