<?xml version="1.0" encoding="utf-8"?>
<!-- Generator: Adobe Illustrator 23.1.0, SVG Export Plug-In . SVG Version: 6.00 Build 0)  -->
<svg version="1.1" xmlns="http://www.w3.org/2000/svg" xmlns:xlink="http://www.w3.org/1999/xlink" x="0px" y="0px"
	 viewBox="0 0 283.5 283.5" style="enable-background:new 0 0 283.5 283.5;" xml:space="preserve">
<style type="text/css">
	.st0{clip-path:url(#SVGID_2_);fill-rule:evenodd;clip-rule:evenodd;fill:#FFFFFF;}
	.st1{clip-path:url(#SVGID_2_);fill:none;stroke:#12100B;stroke-linecap:round;stroke-linejoin:round;stroke-miterlimit:10;}
	.st2{clip-path:url(#SVGID_4_);fill:none;stroke:#12100B;stroke-linecap:round;stroke-linejoin:round;stroke-miterlimit:10;}
	.st3{clip-path:url(#SVGID_6_);fill:none;stroke:#12100B;stroke-linecap:round;stroke-linejoin:round;stroke-miterlimit:10;}
	.st4{clip-path:url(#SVGID_6_);fill-rule:evenodd;clip-rule:evenodd;fill:#FFFFFF;}
	.st5{clip-path:url(#SVGID_6_);fill-rule:evenodd;clip-rule:evenodd;fill:#12100B;}
	.st6{clip-path:url(#SVGID_8_);fill-rule:evenodd;clip-rule:evenodd;fill:#12100B;}
	.st7{clip-path:url(#SVGID_8_);fill-rule:evenodd;clip-rule:evenodd;fill:#FFFFFF;}
	
		.st8{clip-path:url(#SVGID_10_);fill:none;stroke:#12100B;stroke-width:0.85;stroke-linecap:round;stroke-linejoin:round;stroke-miterlimit:10;}
	.st9{clip-path:url(#SVGID_12_);fill-rule:evenodd;clip-rule:evenodd;fill:#12100B;}
	.st10{clip-path:url(#SVGID_12_);fill-rule:evenodd;clip-rule:evenodd;fill:#FFFFFF;}
	
		.st11{clip-path:url(#SVGID_14_);fill:none;stroke:#12100B;stroke-width:0.85;stroke-linecap:round;stroke-linejoin:round;stroke-miterlimit:10;}
	
		.st12{clip-path:url(#SVGID_14_);fill:none;stroke:#12100B;stroke-width:2;stroke-linecap:round;stroke-linejoin:round;stroke-miterlimit:10;}
	.st13{clip-path:url(#SVGID_14_);fill-rule:evenodd;clip-rule:evenodd;fill:#12100B;}
	
		.st14{clip-path:url(#SVGID_14_);fill:none;stroke:#12100B;stroke-width:0.65;stroke-linecap:round;stroke-linejoin:round;stroke-miterlimit:10;}
	.st15{clip-path:url(#SVGID_14_);fill:none;stroke:#12100B;stroke-linecap:round;stroke-linejoin:round;stroke-miterlimit:10;}
	.st16{clip-path:url(#SVGID_14_);fill-rule:evenodd;clip-rule:evenodd;fill:#009D41;}
	.st17{clip-path:url(#SVGID_14_);fill-rule:evenodd;clip-rule:evenodd;fill:#FFFFFF;}
</style>
<g id="Слой_1">
</g>
<g id="Слой_3">
	<g>
		<g>
			<defs>
				<rect id="SVGID_1_" x="24.1" y="20.4" width="242.7" height="242.7"/>
			</defs>
			<clipPath id="SVGID_2_">
				<use xlink:href="#SVGID_1_"  style="overflow:visible;"/>
			</clipPath>
			<path class="st0" d="M192.6,114.5c-2.5,3.7-5.4,6.2-10.6,11.7c0,0,1-2.6-0.3-5.8c-1.5-3.7-4.2-2.2-4.2-2.2
				c1.4,2.1,0.2,5.4-0.5,7.1c-2,5.2-6.8,8.9-3.3,15.3l-5.9,10.5l7.7,5.3l5.6-11c7.9-0.3,19.2-15.4,20.6-17.9c1.7-3-0.6-3.8-1-3.1
				c-2.9,4.6-8.6,10.6-8.6,10.6l-0.4-1c4.6-5.4,10.4-12.3,10.7-13.9c0.9-4.4-2.4-2-3-1.2c-2.1,3-6.7,8-10.3,11.2
				c3.6-5.7,12.8-14.5,12.8-16.1c0.1-4-3.1-0.9-4.2,0.5c-2.1,2.8-11.9,13.3-11.9,13.3c3.9-5.9,9.6-10.3,10-12.9
				C196.5,111.5,193.8,112.7,192.6,114.5"/>
			<path class="st1" d="M192.6,114.5c-2.5,3.7-5.4,6.2-10.6,11.7c0,0,1-2.6-0.3-5.8c-1.5-3.7-4.2-2.2-4.2-2.2
				c1.4,2.1,0.2,5.4-0.5,7.1c-2,5.2-6.8,8.9-3.3,15.3l-5.9,10.5l7.7,5.3l5.6-11c7.9-0.3,19.2-15.4,20.6-17.9c1.7-3-0.6-3.8-1-3.1
				c-2.9,4.6-8.8,9.9-8.8,9.9l-0.2-0.4c4.6-5.4,10.4-12.3,10.7-13.9c0.9-4.4-2.4-2-3-1.2c-2.1,3-6.7,8-10.3,11.2
				c3.6-5.7,12.8-14.5,12.8-16.1c0.1-4-3.1-0.9-4.2,0.5c-2.1,2.8-11.9,13.3-11.9,13.3c3.9-5.9,9.6-10.3,10-12.9
				C196.5,111.5,193.8,112.7,192.6,114.5z"/>
			<path class="st1" d="M182.1,126.2c-1.2,5-2.1,7.9-3.9,12.4"/>
			<path class="st1" d="M185.3,126.9c2.7,2.2,5.6,4.8,6.5,8"/>
			<path class="st0" d="M105.8,245.6l20.3-4.4l-1.2-63.4l25.9,20.5c3.9,3,7.4,2.4,10.4-1.2l19.5-46.6l-14.1-6.4L153,179.8
				c-16.2-19.9-33.4-40.2-51.4-40.7l3.8-7.6l-14.2-7.8l-4,14.2c0,0-25.1,4.2-31,14.6c-6.4,11.3-9.6,37.5-10.5,46.2
				c-2.2,20.7-5.6,39.6,2.9,40c3.4,0.7,6.5-1.3,9.7-3.5l-0.2,6.4l18.4,3.7"/>
		</g>
		<g>
			<defs>
				<path id="SVGID_3_" d="M87.2,138c0,0-25.1,4.2-31,14.6c-6.4,11.3-9.6,37.5-10.5,46.2c-2.2,20.7-5.6,39.6,2.9,40
					c3.4,0.7,6.5-1.3,9.7-3.5l-0.2,6.4l18.4,3.7l29.3,0.3l20.3-4.4l-1.2-63.4l25.9,20.5c3.9,3,7.4,2.4,10.4-1.2l19.5-46.6l-14.1-6.4
					L153,179.8c-16.2-19.9-33.4-40.2-51.4-40.7l3.8-7.6l-14.2-7.8L87.2,138z"/>
			</defs>
			<clipPath id="SVGID_4_">
				<use xlink:href="#SVGID_3_"  style="overflow:visible;"/>
			</clipPath>
			<ellipse class="st2" cx="95.7" cy="133.3" rx="15.5" ry="15.4"/>
		</g>
		<g>
			<defs>
				<rect id="SVGID_5_" x="24.1" y="20.4" width="242.7" height="242.7"/>
			</defs>
			<clipPath id="SVGID_6_">
				<use xlink:href="#SVGID_5_"  style="overflow:visible;"/>
			</clipPath>
			<path class="st3" d="M105.8,245.6l20.3-4.4l-1.2-63.4l25.9,20.5c3.9,3,7.4,2.4,10.4-1.2l19.5-46.6l-14.1-6.4L153,179.8
				c-16.2-19.9-33.4-40.2-51.4-40.7l3.8-7.6l-14.2-7.8l-4,14.2c0,0-25.1,4.2-31,14.6c-6.4,11.3-9.6,37.5-10.5,46.2
				c-2.2,20.7-5.6,39.6,2.9,40c3.4,0.7,6.5-1.3,9.7-3.5l-0.2,6.4l18.4,3.7"/>
			<path class="st3" d="M67.4,94.4c1.9,1.8,4.8,2.1,10-2.2"/>
			<path class="st4" d="M74.1,104.7C66.7,88.4,74.2,76.3,86,72.9c4.8-1.4,12.6-3.1,18-0.9c8.3,3.3,16.2,7.9,16.9,18.9
				c1-0.7,8.1,12.4-0.5,14.9c2.1,12.3-4.2,26.7-13.8,29.3c-7.3,2-20-1.3-29.5-17.3c-1.1-0.1-4.9-1.5-6-2.1c-3-1.7-4-7.9-2.4-9.5
				C71,103.9,72.8,104.8,74.1,104.7"/>
			<path class="st3" d="M74.1,104.7C66.7,88.4,74.2,76.3,86,72.9c4.8-1.4,12.6-3.1,18-0.9c8.3,3.3,16.2,7.9,16.9,18.9
				c1-0.7,8.1,12.4-0.5,14.9c2.1,12.3-4.2,26.7-13.8,29.3c-7.3,2-20-1.3-29.5-17.3c-1.1-0.1-4.9-1.5-6-2.1c-3-1.7-4-7.9-2.4-9.5
				C71,103.9,72.8,104.8,74.1,104.7z"/>
			<path class="st4" d="M88.2,68.3c0,0,4,5.8,1,9.7c-3,4-8.8,7.1-8.8,7.1c0.5,3.6-0.9,5.8-3.6,7.6c0,0,2.2,0.8,1.1,3.3
				c-1.2,2.8-3.3,3.1-3,4.2c0.8,2.5,1.8,7.4,2,7.4c-5.4-3.4-11.1,4.3,1.3,9.1c2.4,5.1,4,9,8.7,12.7c-2,2.5-6.1,0.8-8.8-4.3
				c-4.4-1.9-8.5-4.5-11-9.7c-1.8-2.4-2.9-4.8-4.8-9.4c-4.1-9.6-2.4-18.5,2.7-22.8C66.1,77.7,76.6,68.1,88.2,68.3"/>
			<path class="st3" d="M88.2,68.3c0,0,4,5.8,1,9.7c-3,4-8.8,7.1-8.8,7.1c0.5,3.6-0.9,5.8-3.6,7.6c0,0,2.2,0.8,1.1,3.3
				c-1.2,2.8-3.3,3.1-3,4.2c0.8,2.5,1.8,7.4,2,7.4c-5.4-3.4-11.1,4.3,1.3,9.1c2.4,5.1,4,9,8.7,12.7c-2,2.5-6.1,0.8-8.8-4.3
				c-4.4-1.9-8.5-4.5-11-9.7c-1.8-2.4-2.9-4.8-4.8-9.4c-4.1-9.6-2.4-18.5,2.7-22.8C66.1,77.7,76.6,68.1,88.2,68.3z"/>
			<polygon class="st5" points="75,108.8 75.1,108.8 75.1,108.8 75.1,108.8 75.2,108.8 75.2,108.8 75.3,108.8 75.3,108.8 
				75.4,108.8 75.4,108.8 75.4,108.8 75.5,108.8 75.5,108.8 75.6,108.8 75.6,108.8 75.7,108.8 75.7,108.9 75.7,108.9 75.9,109 
				76,109.2 75.9,109.2 75.8,109.4 75.6,109.4 75.6,109.4 75.5,109.4 75.5,109.4 75.5,109.4 75.4,109.4 75.4,109.4 75.4,109.4 
				75.3,109.4 75.3,109.4 75.2,109.4 75.2,109.4 75.2,109.4 75.1,109.4 75.1,109.4 75.1,109.4 75,109.4 75,109.4 75,109.4 
				74.9,109.4 74.9,109.4 74.9,109.4 74.9,109.4 74.8,109.4 74.8,109.4 74.8,109.4 74.7,109.4 74.7,109.4 74.7,109.4 74.7,109.4 
				74.6,109.4 74.6,109.4 74.6,109.4 74.6,109.4 74.5,109.4 74.5,109.4 74.5,109.4 74.5,109.4 74.4,109.4 74.4,109.4 74.4,109.4 
				74.4,109.4 74.4,109.4 74.3,109.5 74.3,109.5 74.3,109.5 74.3,109.5 74.3,109.5 74.3,109.5 74.2,109.5 74.2,109.5 74.2,109.5 
				74.2,109.5 74.2,109.5 74.2,109.6 74.1,109.6 74.1,109.6 74.1,109.6 74.1,109.6 74.1,109.6 74.1,109.6 74.1,109.6 74.1,109.6 
				74,109.7 74,109.7 74,109.7 74,109.7 74,109.7 74,109.7 74,109.7 74,109.8 74,109.8 74,109.8 73.9,109.8 73.9,109.8 73.9,109.8 
				73.9,109.9 73.9,109.9 73.9,109.9 73.9,109.9 73.9,109.9 73.9,109.9 73.9,110 73.9,110 73.9,110 73.9,110 73.9,110 73.9,110 
				73.8,110.1 73.8,110.1 73.8,110.1 73.8,110.1 73.8,110.2 73.8,110.2 73.8,110.2 73.8,110.2 73.8,110.2 73.8,110.3 73.8,110.3 
				73.8,110.3 73.8,110.3 73.8,110.3 73.8,110.4 73.8,110.4 73.8,110.4 73.8,110.4 73.8,110.5 73.8,110.5 73.8,110.5 73.8,110.5 
				73.8,110.6 73.8,110.6 73.8,110.6 73.8,110.6 73.9,110.7 73.9,110.7 73.9,110.7 73.9,110.7 73.9,110.8 73.9,110.8 73.9,110.8 
				73.9,110.8 73.9,110.9 73.9,110.9 73.9,110.9 73.9,111 73.9,111 73.9,111 74,111 74,111.1 74,111.1 74,111.1 74,111.1 74,111.2 
				74,111.2 74,111.2 74.1,111.3 74.1,111.3 74.1,111.3 74.1,111.3 74.1,111.4 74.1,111.4 74.1,111.4 74.2,111.4 74.2,111.5 
				74.2,111.5 74.2,111.5 74.2,111.6 74.2,111.6 74.3,111.6 74.3,111.6 74.3,111.7 74.3,111.7 74.3,111.7 74.4,111.7 74.4,111.8 
				74.4,111.8 74.4,111.8 74.4,111.9 74.5,111.9 74.5,111.9 74.5,111.9 74.5,112 74.5,112 74.6,112 74.6,112 74.6,112.1 74.6,112.1 
				74.7,112.1 74.7,112.2 74.7,112.2 74.7,112.2 74.8,112.2 74.8,112.3 74.8,112.3 74.8,112.3 74.9,112.3 74.9,112.4 74.9,112.4 
				75,112.4 75,112.4 75,112.5 75,112.5 75.1,112.5 75.1,112.5 75.1,112.6 75.2,112.6 75.2,112.6 75.2,112.6 75.3,112.7 75.3,112.7 
				75.3,112.7 75.4,112.7 75.4,112.7 75.4,112.8 75.5,112.8 75.5,112.8 75.5,112.8 75.6,112.9 75.6,112.9 75.6,112.9 75.7,112.9 
				75.7,112.9 75.8,113 75.8,113 75.8,113 75.9,113 75.9,113 75.9,113.1 76,113.1 76,113.1 76.1,113.1 76.1,113.1 76.1,113.1 
				76.2,113.2 76.2,113.2 76.3,113.2 76.3,113.2 76.4,113.2 76.4,113.2 76.4,113.3 76.5,113.3 76.5,113.3 76.6,113.3 76.6,113.3 
				76.7,113.3 76.7,113.3 76.7,113.4 76.8,113.4 76.8,113.4 76.9,113.4 76.9,113.4 77,113.4 77,113.4 77.1,113.4 77.1,113.4 
				77.2,113.5 77.2,113.5 77.3,113.5 77.3,113.5 77.4,113.5 77.4,113.5 77.5,113.5 77.5,113.5 77.6,113.5 77.6,113.5 77.7,113.5 
				77.7,113.5 77.8,113.5 77.8,113.5 77.9,113.5 77.9,113.5 78,113.5 78,113.5 78.1,113.6 78.2,113.6 78.2,113.6 78.3,113.6 
				78.4,113.7 78.3,113.9 78.2,113.9 78.2,113.9 78.1,113.9 78,113.9 78,113.9 77.9,113.9 77.9,113.9 77.8,113.9 77.8,113.9 
				77.7,113.9 77.6,113.9 77.6,113.9 77.5,113.9 77.5,113.8 77.4,113.8 77.4,113.8 77.3,113.8 77.3,113.8 77.2,113.8 77.2,113.8 
				77.1,113.8 77.1,113.8 77,113.8 77,113.8 76.9,113.8 76.9,113.8 76.8,113.7 76.8,113.7 76.7,113.7 76.7,113.7 76.6,113.7 
				76.6,113.7 76.5,113.7 76.5,113.7 76.4,113.6 76.4,113.6 76.3,113.6 76.3,113.6 76.2,113.6 76.2,113.6 76.1,113.6 76.1,113.5 
				76,113.5 76,113.5 76,113.5 75.9,113.5 75.9,113.5 75.8,113.4 75.8,113.4 75.7,113.4 75.7,113.4 75.7,113.4 75.6,113.3 
				75.6,113.3 75.5,113.3 75.5,113.3 75.4,113.3 75.4,113.2 75.4,113.2 75.3,113.2 75.3,113.2 75.3,113.1 75.2,113.1 75.2,113.1 
				75.1,113.1 75.1,113.1 75.1,113 75,113 75,113 75,113 74.9,112.9 74.9,112.9 74.8,112.9 74.8,112.9 74.8,112.8 74.7,112.8 
				74.7,112.8 74.7,112.7 74.6,112.7 74.6,112.7 74.6,112.7 74.6,112.6 74.5,112.6 74.5,112.6 74.5,112.6 74.4,112.5 74.4,112.5 
				74.4,112.5 74.3,112.4 74.3,112.4 74.3,112.4 74.3,112.4 74.2,112.3 74.2,112.3 74.2,112.3 74.2,112.2 74.1,112.2 74.1,112.2 
				74.1,112.1 74.1,112.1 74,112.1 74,112.1 74,112 74,112 73.9,112 73.9,111.9 73.9,111.9 73.9,111.9 73.8,111.8 73.8,111.8 
				73.8,111.8 73.8,111.7 73.8,111.7 73.7,111.7 73.7,111.7 73.7,111.6 73.7,111.6 73.7,111.6 73.7,111.5 73.6,111.5 73.6,111.5 
				73.6,111.4 73.6,111.4 73.6,111.4 73.6,111.3 73.5,111.3 73.5,111.3 73.5,111.2 73.5,111.2 73.5,111.2 73.5,111.1 73.5,111.1 
				73.5,111.1 73.4,111.1 73.4,111 73.4,111 73.4,111 73.4,110.9 73.4,110.9 73.4,110.9 73.4,110.8 73.4,110.8 73.4,110.8 
				73.4,110.7 73.3,110.7 73.3,110.7 73.3,110.6 73.3,110.6 73.3,110.6 73.3,110.5 73.3,110.5 73.3,110.5 73.3,110.5 73.3,110.4 
				73.3,110.4 73.3,110.4 73.3,110.3 73.3,110.3 73.3,110.3 73.3,110.2 73.3,110.2 73.3,110.2 73.3,110.1 73.3,110.1 73.3,110.1 
				73.3,110.1 73.3,110 73.3,110 73.3,110 73.3,109.9 73.3,109.9 73.3,109.9 73.4,109.9 73.4,109.8 73.4,109.8 73.4,109.8 
				73.4,109.7 73.4,109.7 73.4,109.7 73.4,109.7 73.4,109.6 73.4,109.6 73.5,109.6 73.5,109.6 73.5,109.5 73.5,109.5 73.5,109.5 
				73.5,109.5 73.5,109.4 73.6,109.4 73.6,109.4 73.6,109.4 73.6,109.3 73.6,109.3 73.6,109.3 73.7,109.3 73.7,109.2 73.7,109.2 
				73.7,109.2 73.8,109.2 73.8,109.2 73.8,109.1 73.8,109.1 73.8,109.1 73.9,109.1 73.9,109.1 73.9,109 74,109 74,109 74,109 
				74,109 74.1,109 74.1,109 74.1,108.9 74.1,108.9 74.2,108.9 74.2,108.9 74.2,108.9 74.3,108.9 74.3,108.9 74.3,108.9 74.4,108.8 
				74.4,108.8 74.4,108.8 74.5,108.8 74.5,108.8 74.5,108.8 74.6,108.8 74.6,108.8 74.6,108.8 74.7,108.8 74.7,108.8 74.8,108.8 
				74.8,108.8 74.8,108.8 74.9,108.8 74.9,108.8 74.9,108.8 75,108.8 			"/>
			<path class="st3" d="M122,82.6c1.7,4.3,2.1,5.7,2.1,8.1"/>
			<path class="st3" d="M118.9,95.3c0.4,2.8,0.8,5.8,1.3,9.2"/>
			<path class="st4" d="M88.9,69.8c-1.1,4.6,8.1,14.9,16.3,13.8c1.7-0.2,3.1,0.8,4.3,0.8c1.3,0,2.3-0.9,3.3-0.6
				c1.2,0.5,1.3,2.4,2.3,3.6c1,1.2,1.6,1.8,2.1,2.8c1.8,3.7,1.7,5.4,1.7,5.4s4.9-3.9,3.8,5.1c-0.3,2.3-2.3,3.5-2.3,3.5
				c0.8,6.7,0.3,10.9-0.7,14.9c0,0,4.4-4.1,4.5-8c0.1-3.9-0.1-2.9,0.8-6c0.2-0.8,1.9-3.3,1.9-5.3c0-2.3-1-5.1-1-5.1s1.7-4.1-2.3-9.8
				c-1.6-2.2-2.1-4.6-2.1-4.6s-2.3-6.9-6.3-8c-5-1.3-5.1-3.3-9-4.7s-11.3-3.5-15-1.8C87.4,67.6,88.9,69.8,88.9,69.8"/>
			<path class="st3" d="M88.9,69.8c-1.1,4.6,8.1,14.9,16.3,13.8c1.7-0.2,3.1,0.8,4.3,0.8c1.3,0,2.3-0.9,3.3-0.6
				c1.2,0.5,1.3,2.4,2.3,3.6c1,1.2,1.6,1.8,2.1,2.8c1.8,3.7,1.7,5.4,1.7,5.4s4.9-3.9,3.8,5.1c-0.3,2.3-2.3,3.5-2.3,3.5
				c0.8,6.7,0.3,10.9-0.7,14.9c0,0,4.4-4.1,4.5-8c0.1-3.9-0.1-2.9,0.8-6c0.2-0.8,1.9-3.3,1.9-5.3c0-2.3-1-5.1-1-5.1s1.7-4.1-2.3-9.8
				c-1.6-2.2-2.1-4.6-2.1-4.6s-2.3-6.9-6.3-8c-5-1.3-5.1-3.3-9-4.7s-11.3-3.5-15-1.8C87.4,67.6,88.9,69.8,88.9,69.8z"/>
		</g>
		<g>
			<defs>
				<path id="SVGID_7_" d="M94.4,97c-3.1,0.2-8.1,3.3-6.7,5.6c3.5-0.5,6.7-1.6,9.6-3.1c-0.5-1.2-1.2-2.5-2.7-2.5
					C94.5,97,94.4,97,94.4,97"/>
			</defs>
			<clipPath id="SVGID_8_">
				<use xlink:href="#SVGID_7_"  style="overflow:visible;"/>
			</clipPath>
			<path class="st6" d="M94.4,96.5c1.3-0.4,2.7,0.2,3.1,1.4c0.4,1.2-0.3,2.6-1.6,3c-1.3,0.4-2.7-0.2-3.1-1.4
				C92.5,98.2,93.2,96.9,94.4,96.5"/>
			<path class="st7" d="M92.9,98.2c0.3-0.1,0.5,0,0.6,0.3c0.1,0.2-0.1,0.5-0.3,0.6c-0.3,0.1-0.5,0-0.6-0.3
				C92.5,98.6,92.7,98.3,92.9,98.2"/>
		</g>
		<g>
			<defs>
				<rect id="SVGID_9_" x="24.1" y="20.4" width="242.7" height="242.7"/>
			</defs>
			<clipPath id="SVGID_10_">
				<use xlink:href="#SVGID_9_"  style="overflow:visible;"/>
			</clipPath>
			<path class="st8" d="M87.7,102.5c3.5-0.5,6.7-1.6,9.6-3.1c-0.5-1.2-1.2-2.5-2.9-2.5C91.3,97.1,86.3,100.2,87.7,102.5z"/>
		</g>
		<g>
			<defs>
				<path id="SVGID_11_" d="M106.3,94.1c-1.4,0.6-1.4,2.1-1.3,3.4c3,0.1,6.1-0.3,9.2-1.3c-0.1-1.9-2.3-2.7-4.5-2.7
					C108.5,93.4,107.2,93.7,106.3,94.1"/>
			</defs>
			<clipPath id="SVGID_12_">
				<use xlink:href="#SVGID_11_"  style="overflow:visible;"/>
			</clipPath>
			<path class="st9" d="M111.5,92.8c1.3-0.2,2.5,0.7,2.7,1.9c0.2,1.2-0.8,2.4-2.1,2.5c-1.3,0.2-2.5-0.7-2.7-1.9
				C109.3,94.2,110.2,93,111.5,92.8"/>
			<path class="st10" d="M109.6,94.3c0.3,0,0.5,0.1,0.5,0.4c0,0.3-0.1,0.5-0.4,0.5c-0.3,0-0.5-0.1-0.5-0.4
				C109.2,94.6,109.4,94.3,109.6,94.3"/>
		</g>
		<g>
			<defs>
				<rect id="SVGID_13_" x="24.1" y="20.4" width="242.7" height="242.7"/>
			</defs>
			<clipPath id="SVGID_14_">
				<use xlink:href="#SVGID_13_"  style="overflow:visible;"/>
			</clipPath>
			<path class="st11" d="M114.2,96.1c-3.1,1-6.2,1.4-9.2,1.3c-0.1-1.3-0.1-2.7,1.3-3.4C108.9,92.9,114,93.2,114.2,96.1z"/>
			<path class="st12" d="M84,96.7c3.5-3.4,7.9-5.8,10.9-6.5"/>
			<path class="st12" d="M102.8,88.8c4.2-0.9,8.6-0.7,11.1,0.1"/>
			<path class="st11" d="M104.2,109.7c-2.8,0.7-4.3-0.6-3.5-2.3"/>
			<polygon class="st13" points="109.5,104 109.5,104 109.5,104.1 109.5,104.1 109.6,104.1 109.6,104.1 109.6,104.2 109.6,104.2 
				109.6,104.2 109.7,104.2 109.7,104.2 109.7,104.3 109.7,104.3 109.7,104.3 109.7,104.3 109.8,104.3 109.8,104.4 109.8,104.4 
				109.8,104.4 109.8,104.4 109.9,104.4 109.9,104.5 109.9,104.5 109.9,104.5 109.9,104.5 109.9,104.5 110,104.5 110,104.6 
				110,104.6 110,104.6 110,104.6 110,104.6 110.1,104.6 110.1,104.6 110.1,104.7 110.1,104.7 110.1,104.7 110.1,104.7 110.2,104.7 
				110.2,104.7 110.2,104.7 110.2,104.8 110.2,104.8 110.2,104.8 110.2,104.8 110.3,104.8 110.3,104.8 110.3,104.8 110.3,104.8 
				110.3,104.9 110.3,104.9 110.3,104.9 110.4,104.9 110.4,104.9 110.4,104.9 110.4,104.9 110.4,104.9 110.4,104.9 110.4,104.9 
				110.4,105 110.5,105 110.5,105 110.5,105 110.5,105 110.5,105 110.5,105 110.5,105 110.5,105 110.5,105 110.6,105.1 110.6,105.1 
				110.6,105.1 110.6,105.1 110.6,105.1 110.6,105.1 110.6,105.1 110.6,105.1 110.7,105.1 110.7,105.2 110.7,105.2 110.7,105.2 
				110.7,105.2 110.7,105.2 110.7,105.2 110.8,105.2 110.8,105.2 110.8,105.2 110.8,105.3 110.8,105.3 110.8,105.3 110.8,105.3 
				110.8,105.3 110.9,105.3 110.9,105.3 110.9,105.3 110.9,105.4 110.9,105.4 111,105.4 111,105.4 111,105.4 111,105.5 111.1,105.5 
				111.1,105.5 111.1,105.5 111.1,105.5 111.2,105.5 111.2,105.6 111.2,105.6 111.3,105.6 111.3,105.6 111.3,105.6 111.3,105.6 
				111.4,105.7 111.4,105.7 111.4,105.7 111.4,105.7 111.5,105.7 111.5,105.7 111.5,105.7 111.6,105.8 111.6,105.8 111.7,105.9 
				111.5,106.1 111.5,106.1 111.4,106.1 111.4,106.1 111.4,106.1 111.3,106.1 111.3,106.1 111.3,106 111.3,106 111.2,106 111.2,106 
				111.1,106 111.1,106 111.1,106 111,106 111,106 110.9,106 110.9,106 110.9,106 110.9,106 110.8,106 110.8,106 110.7,106 
				110.7,106 110.7,105.9 110.6,105.9 110.6,105.9 110.6,105.9 110.5,105.9 110.5,105.9 110.5,105.9 110.5,105.9 110.5,105.9 
				110.4,105.9 110.4,105.9 110.4,105.9 110.4,105.9 110.4,105.8 110.3,105.8 110.3,105.8 110.3,105.8 110.3,105.8 110.3,105.8 
				110.2,105.8 110.2,105.8 110.2,105.8 110.2,105.7 110.1,105.7 110.1,105.7 110.1,105.7 110.1,105.7 110.1,105.7 110.1,105.7 
				110,105.7 110,105.6 110,105.6 110,105.6 110,105.6 110,105.6 109.9,105.6 109.9,105.6 109.9,105.5 109.9,105.5 109.9,105.5 
				109.9,105.5 109.8,105.5 109.8,105.5 109.8,105.5 109.8,105.4 109.8,105.4 109.8,105.4 109.7,105.4 109.7,105.4 109.7,105.3 
				109.7,105.3 109.7,105.3 109.7,105.3 109.7,105.3 109.6,105.3 109.6,105.2 109.6,105.2 109.6,105.2 109.6,105.2 109.6,105.1 
				109.5,105.1 109.5,105.1 109.5,105.1 109.5,105.1 109.5,105 109.5,105 109.5,105 109.5,104.9 109.4,104.9 109.4,104.9 
				109.4,104.9 109.4,104.9 109.4,104.8 109.4,104.8 109.4,104.8 109.4,104.7 109.4,104.7 109.4,104.7 109.3,104.7 109.3,104.6 
				109.3,104.6 109.3,104.6 109.3,104.5 109.3,104.5 109.3,104.5 109.3,104.5 109.3,104.4 109.3,104.4 109.3,104.4 109.2,104.3 
				109.2,104.3 109.2,104.3 109.2,104.2 109.2,104.2 109.2,104.2 109.2,104.2 109.3,104 			"/>
			<path class="st11" d="M101.8,93.8c1.5,6.7,4.7,10.8,7,11.7c0.4,1.4-0.7,2.7-1.8,3.2"/>
			<path class="st14" d="M98.6,117c-0.1,1.2-0.5,1.8-1.8,2.1"/>
			<path class="st14" d="M105.4,127c0.4-0.9,2.7-1.4,4.5-1"/>
			<path class="st14" d="M108.2,116.8c-1,0.7-1.8,0.9-3,0.7"/>
			<path class="st14" d="M115.7,113.4c-0.8-0.2-1.5-0.5-2.2-1.2"/>
			<path class="st15" d="M98.3,118.5c6.5,4.9,14.1,2.3,16.1-5.2"/>
			<rect x="194.2" y="57.3" class="st16" width="36.5" height="38.7"/>
			<rect x="194.2" y="57.3" class="st15" width="36.5" height="38.7"/>
			<rect x="172.8" y="96" class="st17" width="78.3" height="2.5"/>
			<rect x="172.8" y="96" class="st15" width="78.3" height="2.5"/>
			<path class="st15" d="M51.4,213c2.2-1.9,5.1-2.4,8.4-1.3"/>
			<path class="st15" d="M157.7,183c-0.8-1.8-2.4-3-4.7-3.4"/>
			<path class="st15" d="M155.4,184.5c0.1-1.8-0.7-3.4-2.5-4.6"/>
			<path class="st15" d="M65.9,163.8c0.2,3.1,0.9,5,0.9,5s-5.8,28.9-7,42.4"/>
			<line class="st15" x1="76.5" y1="245.3" x2="105.8" y2="245.6"/>
			<path class="st15" d="M126.9,164.5c-0.2,1.6-0.8,3.1-1.9,4.5"/>
			<path class="st17" d="M73.6,205.3l10.5-10.2c0,0-0.1-7.1,1.3-9.8c2.2-4.2,6.8-8.7,6.8-8.7l6.3-11c1.4-3.5,5.4-3.8,3.2,1.8
				l-4.1,8.4c1.7,0.3,3.4,1.3,3.9,2.9c1.7,0.4,3.4,1.3,3.8,3.7c0.4-1,3,2.9,1.8,5.4c-1.5,3.2-6.5,10.3-11.1,12.6
				c-1,0.5-3.2,0.6-3.2,0.6l-12,11.9L73.6,205.3z"/>
			<path class="st15" d="M80.5,198.9l3.7-3.8c0,0-0.1-7.1,1.3-9.8c2.2-4.2,6.8-8.7,6.8-8.7l6.3-11c1.4-3.5,5.4-3.8,3.2,1.8l-4.1,8.4
				c1.7,0.3,3.4,1.3,3.9,2.9c1.7,0.4,3.4,1.3,3.8,3.7c0.4-1.1,3,2.9,1.8,5.4c-1.5,3.2-6.5,10.3-11.1,12.6c-1,0.5-3.2,0.6-3.2,0.6
				l-4.9,4.9L80.5,198.9z"/>
			<line class="st15" x1="87.6" y1="187.4" x2="92.3" y2="176.7"/>
			<path class="st15" d="M124.3,162.5c0.3,5.1,0.5,10.2,0.6,15.3"/>
			<path class="st15" d="M99.6,183c1.1-1.1,1.8-2.5,2.1-4.4"/>
			<path class="st15" d="M95.7,180.8c0.9-1.5,1.5-3.2,2-5.1"/>
			<path class="st15" d="M103.1,185.8c0.9-0.7,1.7-1.6,2.1-3.5"/>
			<path class="st15" d="M48.3,222.8c2.3-4.1,6.1-7.7,11.1-11l17.1-16.9l12.4,11.6c-9.9,10.2-19.8,20.2-30.3,28.6"/>
			<path class="st15" d="M87.6,70.7c0,0-10.6,9-7.7,8.9C82.7,79.5,87.6,70.7,87.6,70.7z"/>
			<path class="st15" d="M87.4,70.1c-2.2-0.5-11.9,4.6-10.4,5.6C78.5,76.7,87,70.4,87.4,70.1z"/>
			<path class="st15" d="M87.4,70c0-0.3,12.4,1.3,11.6,0.2c-0.7-1-3.5-2.2-6.4-1.7C89.9,69,87.4,70,87.4,70z"/>
			<path class="st15" d="M87.6,70.7c0,0,9.2,6.1,8.3,3.3C95,71.3,87.6,70.7,87.6,70.7z"/>
		</g>
	</g>
</g>
<g id="Слой_5">
</g>
<g id="Слой_4">
</g>
</svg>
