<?xml version="1.0" encoding="utf-8"?>
<!-- Generator: Adobe Illustrator 23.1.0, SVG Export Plug-In . SVG Version: 6.00 Build 0)  -->
<svg version="1.1" id="Слой_1" xmlns="http://www.w3.org/2000/svg" xmlns:xlink="http://www.w3.org/1999/xlink" x="0px" y="0px"
	 viewBox="0 0 283.5 283.5" style="enable-background:new 0 0 283.5 283.5;" xml:space="preserve">
<style type="text/css">
	.st0{fill:url(#SVGID_1_);}
</style>
<linearGradient id="SVGID_1_" gradientUnits="userSpaceOnUse" x1="145.1089" y1="52.2925" x2="145.1089" y2="235.9044">
	<stop  offset="0.1356" style="stop-color:#E83E52"/>
	<stop  offset="0.3763" style="stop-color:#E93242"/>
	<stop  offset="0.8792" style="stop-color:#EC1C24"/>
</linearGradient>
<path class="st0" d="M175.7,146.8l57.2-57.2c8.5-8.5,8.5-22.4,0-30.9l0,0c-8.5-8.5-22.4-8.5-30.9,0l-57.2,57.2L88.3,59.4
	c-8.5-8.5-22.4-8.5-30.9,0h0c-8.5,8.5-8.5,22.4,0,30.9l56.4,56.4l-51,51c-8.5,8.5-8.5,22.4,0,30.9c8.5,8.5,22.4,8.5,30.9,0l51-51
	l51.8,51.8c8.5,8.5,22.4,8.5,30.9,0c8.5-8.5,8.5-22.4,0-30.9L175.7,146.8z"/>
</svg>
