<?xml version="1.0" encoding="utf-8"?>
<!-- Generator: Adobe Illustrator 23.1.0, SVG Export Plug-In . SVG Version: 6.00 Build 0)  -->
<svg version="1.1" id="Слой_1" xmlns="http://www.w3.org/2000/svg" xmlns:xlink="http://www.w3.org/1999/xlink" x="0px" y="0px"
	 viewBox="0 0 283.5 283.5" style="enable-background:new 0 0 283.5 283.5;" xml:space="preserve">
<style type="text/css">
	.st0{clip-path:url(#SVGID_2_);fill-rule:evenodd;clip-rule:evenodd;fill:#FFFFFF;}
	.st1{clip-path:url(#SVGID_2_);fill:none;stroke:#000000;stroke-linecap:round;stroke-linejoin:round;stroke-miterlimit:10;}
	.st2{clip-path:url(#SVGID_2_);}
	.st3{clip-path:url(#SVGID_2_);fill-rule:evenodd;clip-rule:evenodd;fill:#BD202F;}
	.st4{clip-path:url(#SVGID_4_);fill:none;stroke:#000000;stroke-linecap:round;stroke-linejoin:round;stroke-miterlimit:10;}
	.st5{clip-path:url(#SVGID_6_);fill:none;stroke:#000000;stroke-linecap:round;stroke-linejoin:round;stroke-miterlimit:10;}
	.st6{clip-path:url(#SVGID_6_);fill-rule:evenodd;clip-rule:evenodd;fill:#FFFFFF;}
	.st7{clip-path:url(#SVGID_6_);fill-rule:evenodd;clip-rule:evenodd;}
	
		.st8{clip-path:url(#SVGID_6_);fill:none;stroke:#000000;stroke-width:0.85;stroke-linecap:round;stroke-linejoin:round;stroke-miterlimit:10;}
	.st9{clip-path:url(#SVGID_8_);fill-rule:evenodd;clip-rule:evenodd;}
	.st10{clip-path:url(#SVGID_8_);fill-rule:evenodd;clip-rule:evenodd;fill:#FFFFFF;}
	.st11{clip-path:url(#SVGID_10_);fill:none;stroke:#000000;stroke-linecap:round;stroke-linejoin:round;stroke-miterlimit:10;}
	.st12{clip-path:url(#SVGID_12_);fill-rule:evenodd;clip-rule:evenodd;}
	.st13{clip-path:url(#SVGID_12_);fill-rule:evenodd;clip-rule:evenodd;fill:#FFFFFF;}
	.st14{clip-path:url(#SVGID_14_);fill:none;stroke:#000000;stroke-linecap:round;stroke-linejoin:round;stroke-miterlimit:10;}
	
		.st15{clip-path:url(#SVGID_14_);fill:none;stroke:#000000;stroke-width:0.85;stroke-linecap:round;stroke-linejoin:round;stroke-miterlimit:10;}
	.st16{clip-path:url(#SVGID_14_);fill-rule:evenodd;clip-rule:evenodd;}
	.st17{clip-path:url(#SVGID_14_);fill-rule:evenodd;clip-rule:evenodd;fill:#FFFFFF;}
	.st18{fill:none;stroke:#000000;stroke-linecap:round;stroke-linejoin:round;stroke-miterlimit:10;}
</style>
<g>
	<g>
		<defs>
			<rect id="SVGID_1_" x="23" y="16" width="244.1" height="244.1"/>
		</defs>
		<clipPath id="SVGID_2_">
			<use xlink:href="#SVGID_1_"  style="overflow:visible;"/>
		</clipPath>
		<path class="st0" d="M197.3,45.4c3.6-3.6,9-5.9,15.6-5.8c11.8,0.1,22.4,9.7,22.4,19.1c0,1.6-0.3,3-0.8,4.3
			c3.2,2.7,5.4,6.2,5.8,9.8c1.1,8.7-7.1,14.7-18,16c-2.5,0.3-5,0.2-7.3-0.2c-3,5.9-10.8,9.2-20,9.1c-11.3-0.1-20.5-7.1-21.2-15.9
			c-6.5-1.5-11.2-6.3-11.2-11.9c0-4,2.1-7.5,5.6-9.7c0-0.2,0-0.3,0-0.5c0.1-9.3,8.7-16.9,19.3-16.8C191.2,43.1,194.5,44,197.3,45.4"
			/>
		<path class="st1" d="M197.3,45.4c3.6-3.6,9-5.9,15.6-5.8c11.8,0.1,22.4,9.7,22.4,19.1c0,1.6-0.3,3-0.8,4.3
			c3.2,2.7,5.4,6.2,5.8,9.8c1.1,8.7-7.1,14.7-18,16c-2.5,0.3-5,0.2-7.3-0.2c-3,5.9-10.8,9.2-20,9.1c-11.3-0.1-20.5-7.1-21.2-15.9
			c-6.5-1.5-11.2-6.3-11.2-11.9c0-4,2.1-7.5,5.6-9.7c0-0.2,0-0.3,0-0.5c0.1-9.3,8.7-16.9,19.3-16.8C191.2,43.1,194.5,44,197.3,45.4z
			"/>
		<path class="st0" d="M47.2,235.1c4.8-4,8.9-8.2,12.9-12.5c0,0-3.3-0.4-6-1.9c-2.8-1.5-1.1-4.5-1.1-4.5c7.5,2.9,9.5-2,15.3,0.9
			l5.3-10.6l7.1,3.9l-6.1,11.1c1.1,6.3-10,19.5-12.2,20.4c-2.6,1-1.2-1.4-1.2-1.4c2.3-3.3,5.7-8.4,5.7-8.4c-3.5,4.5-8.3,9.3-9.5,9.9
			c-3.4,1.5-2.5-1-2.5-1c3.3-3.6,6.3-7.4,8.7-10.5c-3.9,3.8-11.1,11-12.7,11.4c-3.5,1-2.2-1.5-2.2-1.5c5.2-4.8,10.7-11.8,10.7-11.8
			c-2.7,2.5-7.8,7.6-9.9,8.3C46.7,237.6,47.2,235.1,47.2,235.1"/>
		<path class="st1" d="M47.2,235.1c4.8-4,8.9-8.2,12.9-12.5c0,0-3.3-0.4-6-1.9c-2.8-1.5-1.1-4.5-1.1-4.5c7.5,2.9,9.5-2,15.3,0.9
			l5.3-10.6l7.1,3.9l-6.1,11.1c1.1,6.3-10,19.5-12.2,20.4c-2.6,1-1.2-1.4-1.2-1.4c2.3-3.3,5.7-8.4,5.7-8.4c-3.5,4.5-8.3,9.3-9.5,9.9
			c-3.4,1.5-2.5-1-2.5-1c3.3-3.6,6.3-7.4,8.7-10.5c-3.9,3.8-11.1,11-12.7,11.4c-3.5,1-2.2-1.5-2.2-1.5c5.2-4.8,10.7-11.8,10.7-11.8
			c-2.7,2.5-7.8,7.6-9.9,8.3C46.7,237.6,47.2,235.1,47.2,235.1z"/>
		<path class="st0" d="M212.8,233.8c-4.9-3.8-9.2-7.9-13.3-12.1c0,0,3.3-0.5,6-2.1c2.8-1.6,0.9-4.6,0.9-4.6
			c-7.4,3.1-9.5-1.7-15.2,1.4l-5.7-10.5l-7,4.1L185,221c-0.8,6.3,10.6,19.2,12.9,20c2.6,0.9,1.1-1.5,1.1-1.5c-2.4-3.3-6-8.2-6-8.2
			c3.6,4.4,8.6,9.1,9.8,9.6c3.4,1.4,2.5-1.1,2.5-1.1c-3.4-3.5-6.6-7.1-9-10.2c4,3.7,11.5,10.6,13,11c3.6,0.9,2.2-1.6,2.2-1.6
			c-5.3-4.7-11.1-11.5-11.1-11.5c2.7,2.4,8.1,7.4,10.1,7.9C213.4,236.2,212.8,233.8,212.8,233.8"/>
		<path class="st1" d="M212.8,233.8c-4.9-3.8-9.2-7.9-13.3-12.1c0,0,3.3-0.5,6-2.1c2.8-1.6,0.9-4.6,0.9-4.6
			c-7.4,3.1-9.5-1.7-15.2,1.4l-5.7-10.5l-7,4.1L185,221c-0.8,6.3,10.6,19.2,12.9,20c2.6,0.9,1.1-1.5,1.1-1.5c-2.4-3.3-6-8.2-6-8.2
			c3.6,4.4,8.6,9.1,9.8,9.6c3.4,1.4,2.5-1.1,2.5-1.1c-3.4-3.5-6.6-7.1-9-10.2c4,3.7,11.5,10.6,13,11c3.6,0.9,2.2-1.6,2.2-1.6
			c-5.3-4.7-11.1-11.5-11.1-11.5c2.7,2.4,8.1,7.4,10.1,7.9C213.4,236.2,212.8,233.8,212.8,233.8z"/>
		<path class="st1" d="M199.8,221.4c-2.7,0.5-3.6-0.9-6.5,2"/>
		<path class="st1" d="M59.8,222.4c2.7,0.5,3.6-1.1,6.5,1.8"/>
		<path class="st2" d="M194.7,73.7l-5.9,0l0-0.7c0-1.2,0.1-2.3,0.4-3c0.2-0.8,0.6-1.5,1-2.1c0.5-0.6,1.5-1.8,3-3.4
			c0.8-0.8,1.3-1.6,1.3-2.3c0-0.7-0.2-1.3-0.5-1.7c-0.3-0.4-0.8-0.6-1.5-0.6c-0.7,0-1.3,0.3-1.8,0.9c-0.5,0.6-0.8,1.7-0.9,3.2l-6-1
			c0.2-2.7,1-5,2.4-6.6c1.4-1.7,3.6-2.5,6.4-2.5c2.3,0,4.1,0.6,5.4,1.8c1.9,1.6,2.8,3.7,2.8,6.3c0,1.1-0.3,2.1-0.7,3.2
			c-0.5,1-1.5,2.2-3,3.7c-1,1-1.7,1.8-2,2.5C194.8,71.9,194.7,72.7,194.7,73.7 M191.6,76.1c1.8,0,3.2,1.5,3.2,3.2
			c0,1.8-1.5,3.2-3.2,3.2c-1.8,0-3.2-1.5-3.2-3.2C188.4,77.5,189.8,76.1,191.6,76.1"/>
		<path class="st2" d="M213.4,73.8l-5.9,0l0-0.7c0-1.2,0.1-2.3,0.4-3c0.2-0.8,0.6-1.5,1-2.1c0.5-0.6,1.5-1.8,3-3.4
			c0.8-0.8,1.3-1.6,1.3-2.3c0-0.7-0.2-1.3-0.5-1.6c-0.3-0.4-0.8-0.6-1.5-0.6c-0.7,0-1.3,0.3-1.8,0.9c-0.5,0.6-0.8,1.7-0.9,3.2l-6-1
			c0.2-2.7,1-5,2.4-6.6c1.4-1.7,3.6-2.5,6.4-2.5c2.3,0,4.1,0.6,5.4,1.8c1.9,1.6,2.8,3.7,2.8,6.3c0,1.1-0.3,2.1-0.7,3.2
			c-0.5,1-1.5,2.2-3,3.7c-1,1-1.7,1.8-2,2.5C213.6,72,213.4,72.8,213.4,73.8 M210.3,76.2c1.8,0,3.2,1.5,3.2,3.2
			c0,1.8-1.5,3.2-3.2,3.2c-1.8,0-3.2-1.5-3.2-3.2C207.1,77.6,208.5,76.2,210.3,76.2"/>
		<path class="st3" d="M128.9,122.1c1.3-0.8,3-1.2,4.7-0.9c0.4,0.1,0.8,0.4,1.2,0.7c0.4,0.2,0.8,0.5,1.1,0.9
			c0.3-1.1,0.8-2.1,1.4-3.1c0.3-0.5,0.7-0.9,1.2-1.1c0,0,0,0,0,0c0.1-0.5,0.3-0.9,0.7-1.1c0.3-0.4,0.7-0.7,1.1-0.8
			c0.1-0.1,0.2-0.2,0.4-0.2l-13.2,0c0.4,1.9,0.8,3.7,1.4,5.5C128.9,122,128.9,122,128.9,122.1"/>
		<path class="st3" d="M174.7,176c0,0-1.8-45-6.6-52.2c-4.4-6.7-19.8-7.3-22.2-7.3c-0.3,0.5-0.6,1-1,1.4c-0.2,0.2-0.4,0.4-0.6,0.5
			c-0.1,0-0.6,5.3-0.9,6c-1.4,3.3-3.4,5.8-6.6,7.4c-0.6,0.3-1.2,0.6-1.9,0.9c-3.7,1.3-8.6,1-11.3-2.1c-0.3-0.2-0.6-0.4-0.9-0.7
			c-0.5-0.3-1-0.8-1.2-1.4c-1.1-0.9-1.8-2-1.8-3.6c-0.2-0.2-0.3-0.5-0.4-0.8c0-0.2-0.1-0.4-0.1-0.7c0-0.1,0-0.1,0-0.2
			c0,0,0-0.1,0-0.1c-0.3-0.9-0.6-1.9-0.7-3c0-0.1,0-0.2,0-0.3c-0.5-0.4-0.9-0.8-1.4-1.2c-0.5-0.4-0.7-1-0.7-1.5
			c-0.1-0.1-0.2-0.3-0.3-0.5h-0.3c0,0-19.3-0.1-23.2,7.7c-0.6,1.2-3.1,6.8-4.2,15.3c-1.7,14.3-3.7,37.8-3.7,37.8
			c-5.9,12.7-12,24.5-18.2,36c2.7,2.1,6.1,4.2,10.4,6.5c6.6-10.1,12.8-20.6,17.7-32.6c3-11.9,4.6-22.6,5.6-32.8l-1.9,66.2
			c2.9,3.7,10.2,7.1,17.5,4.8c4.7-1.3,6.9-0.8,14.6,0.2c5.7,2.2,14.2,1.3,17.6-1.2c8.7,1.8,13.2-0.5,15.4-1.4
			c0.1-20-1.5-44-3.6-69.2l3.9,29.1c6.1,13.2,12.3,25.1,18.2,35.1l10.8-6.6C186.2,200.2,180.2,188.5,174.7,176"/>
	</g>
	<g>
		<defs>
			<path id="SVGID_3_" d="M115.7,116.4c0,0-19.3-0.1-23.2,7.7c-0.6,1.2-3.1,6.8-4.2,15.3c-1.7,14.3-3.7,37.8-3.7,37.8
				c-5.9,12.7-12,24.5-18.2,36c2.7,2.1,6.1,4.2,10.4,6.5c6.6-10.1,12.8-20.6,17.7-32.6c3-11.9,4.6-22.6,5.6-32.8l-1.9,66.2
				c2.9,3.7,10.2,7.1,17.5,4.8c4.7-1.3,6.9-0.8,14.6,0.2c5.7,2.2,14.2,1.3,17.6-1.2c8.7,1.8,13.2-0.5,15.4-1.4
				c0.1-20-1.5-44-3.6-69.2l3.9,29.1c6.1,13.2,12.3,25.1,18.2,35.1l10.8-6.6c-6.3-11.2-12.3-22.9-17.9-35.3c0,0-1.8-45-6.6-52.2
				s-22.5-7.3-22.5-7.3L115.7,116.4z"/>
		</defs>
		<clipPath id="SVGID_4_">
			<use xlink:href="#SVGID_3_"  style="overflow:visible;"/>
		</clipPath>
		<path class="st4" d="M131.4,97.4c7.6,0,13.8,8.2,13.7,18.2c-0.1,10-6.3,18.1-13.9,18c-7.6,0-13.8-8.2-13.7-18.2
			C117.5,105.5,123.7,97.4,131.4,97.4z"/>
	</g>
	<g>
		<defs>
			<rect id="SVGID_5_" x="23" y="16" width="244.1" height="244.1"/>
		</defs>
		<clipPath id="SVGID_6_">
			<use xlink:href="#SVGID_5_"  style="overflow:visible;"/>
		</clipPath>
		<path class="st5" d="M76.8,219.7c-4.3-2.3-7.7-4.5-10.4-6.5c6.2-11.5,12.3-23.3,18.2-36c0,0,2-23.5,3.7-37.8
			c1-8.5,3.6-14.1,4.2-15.3c3.9-7.8,23.2-7.7,23.2-7.7l29.9,0c0,0,17.7,0.1,22.5,7.3c4.8,7.2,6.6,52.2,6.6,52.2
			c5.5,12.5,11.5,24.2,17.9,35.3l-10.8,6.6c-6-10-12.2-21.9-18.2-35.1l-3.9-29.1c2,25.1,3.6,49.2,3.6,69.2
			c-2.2,0.9-6.7,3.2-15.4,1.4c-3.4,2.5-11.9,3.4-17.6,1.2c-7.7-1-9.9-1.4-14.6-0.2c-7.3,2.3-14.6-1.1-17.5-4.8l1.9-66.2
			c-1.1,10.2-2.7,20.9-5.6,32.8C89.6,199.2,83.3,209.7,76.8,219.7z"/>
		<path class="st6" d="M164.9,97.4c1.3,0,2.3,1,2.3,2.3c0,1.3-1,2.3-2.3,2.3c-1.3,0-2.3-1-2.3-2.3C162.6,98.5,163.6,97.4,164.9,97.4
			"/>
		<path class="st5" d="M164.9,97.4c1.3,0,2.3,1,2.3,2.3c0,1.3-1,2.3-2.3,2.3c-1.3,0-2.3-1-2.3-2.3C162.6,98.5,163.6,97.4,164.9,97.4
			z"/>
		<path class="st6" d="M168.2,88c1.3,0,2.3,1,2.3,2.3c0,1.3-1,2.3-2.3,2.3c-1.3,0-2.3-1-2.3-2.3C165.9,89,166.9,88,168.2,88"/>
		<path class="st5" d="M168.2,88c1.3,0,2.3,1,2.3,2.3c0,1.3-1,2.3-2.3,2.3c-1.3,0-2.3-1-2.3-2.3C165.9,89,166.9,88,168.2,88z"/>
		<path class="st6" d="M130.7,62.9c9.9,0.1,22.6,6.7,24.9,16.3C156,81,159,89.4,156.8,98c-0.8,3-1.3,4-2.5,7.1
			c-1.4,3.4-3.2,5.2-5.5,8.3c-4.1,5.6-11.3,12-17.6,12.2c-5.7,0.1-13.8-5.6-17.3-11c-2.7-4.2-8.4-14.1-9.5-20.5
			c-0.5-3.1,2.4-3.5,2.4-6.1C106.9,71.7,116.4,62.9,130.7,62.9"/>
		<path class="st5" d="M130.7,62.9c9.9,0.1,22.6,6.7,24.9,16.3C156,81,159,89.4,156.8,98c-0.8,3-1.3,4-2.5,7.1
			c-1.4,3.4-3.2,5.2-5.5,8.3c-4.1,5.6-11.3,12-17.6,12.2c-5.7,0.1-13.8-5.6-17.3-11c-2.7-4.2-8.4-14.1-9.5-20.5
			c-0.5-3.1,2.4-3.5,2.4-6.1C106.9,71.7,116.4,62.9,130.7,62.9z"/>
		<polygon class="st7" points="153.2,95.3 153.2,95.3 153.2,95.3 153.3,95.3 153.3,95.3 153.3,95.3 153.3,95.3 153.3,95.3 
			153.3,95.3 153.4,95.3 153.4,95.3 153.4,95.3 153.4,95.3 153.4,95.3 153.4,95.3 153.5,95.3 153.5,95.3 153.5,95.3 153.5,95.3 
			153.5,95.3 153.5,95.3 153.6,95.3 153.6,95.3 153.6,95.3 153.6,95.4 153.6,95.4 153.6,95.4 153.6,95.4 153.7,95.4 153.7,95.4 
			153.7,95.4 153.7,95.4 153.7,95.4 153.7,95.4 153.7,95.4 153.8,95.4 153.8,95.5 153.8,95.5 153.8,95.5 153.8,95.5 153.8,95.5 
			153.8,95.5 153.9,95.5 153.9,95.5 153.9,95.5 153.9,95.6 153.9,95.6 153.9,95.6 153.9,95.6 153.9,95.6 153.9,95.6 153.9,95.6 
			154,95.6 154,95.7 154,95.7 154,95.7 154,95.7 154,95.7 154,95.7 154,95.7 154,95.8 154,95.8 154,95.8 154,95.8 154.1,95.8 
			154.1,95.8 154.1,95.8 154.1,95.9 154.1,95.9 154.1,95.9 154.1,95.9 154.1,95.9 154.1,95.9 154.1,96 154.1,96 154.1,96 154.1,96 
			154.1,96 154.1,96 154.1,96.1 154.1,96.1 154.1,96.1 154.1,96.1 154.1,96.1 154.1,96.1 154.1,96.2 154.1,96.2 154.1,96.2 
			154.1,96.2 154.1,96.2 154.1,96.3 154.1,96.3 154.1,96.3 154.1,96.3 154.1,96.3 154.1,96.3 154.1,96.4 154.1,96.4 154.1,96.4 
			154.1,96.4 154.1,96.4 154.1,96.5 154.1,96.5 154.1,96.5 154.1,96.5 154.1,96.5 154.1,96.6 154.1,96.6 154.1,96.6 154.1,96.6 
			154.1,96.6 154,96.7 154,96.7 154,96.7 154,96.7 154,96.7 154,96.8 154,96.8 154,96.8 154,96.8 154,96.8 154,96.9 154,96.9 
			153.9,96.9 153.9,96.9 153.9,96.9 153.9,97 153.9,97 153.9,97 153.9,97 153.9,97 153.9,97.1 153.8,97.1 153.8,97.1 153.8,97.1 
			153.8,97.2 153.8,97.2 153.8,97.2 153.8,97.2 153.7,97.2 153.7,97.3 153.7,97.3 153.7,97.3 153.7,97.3 153.7,97.3 153.7,97.4 
			153.6,97.4 153.6,97.4 153.6,97.4 153.6,97.5 153.6,97.5 153.6,97.5 153.5,97.5 153.5,97.5 153.5,97.6 153.5,97.6 153.5,97.6 
			153.4,97.6 153.4,97.7 153.4,97.7 153.4,97.7 153.4,97.7 153.3,97.8 153.3,97.8 153.3,97.8 153.3,97.8 153.2,97.8 153.2,97.9 
			153.2,97.9 153.2,97.9 153.1,97.9 153.1,98 153.1,98 153.1,98 153,98 153,98.1 153,98.1 153,98.1 152.9,98.1 152.9,98.1 
			152.9,98.2 152.9,98.2 152.8,98.2 152.8,98.2 152.8,98.3 152.7,98.3 152.7,98.3 152.7,98.3 152.7,98.4 152.6,98.4 152.6,98.4 
			152.6,98.4 152.5,98.5 152.5,98.5 152.5,98.5 152.4,98.5 152.4,98.6 152.4,98.6 152.3,98.6 152.3,98.6 152.3,98.6 152.2,98.7 
			152.2,98.7 152.2,98.7 152.1,98.7 152.1,98.8 152,98.8 152,98.8 152,98.8 151.9,98.9 151.9,98.9 151.7,98.8 151.7,98.7 
			151.8,98.6 151.8,98.6 151.9,98.6 151.9,98.6 151.9,98.5 152,98.5 152,98.5 152,98.5 152.1,98.4 152.1,98.4 152.1,98.4 
			152.2,98.4 152.2,98.3 152.2,98.3 152.3,98.3 152.3,98.3 152.3,98.2 152.3,98.2 152.4,98.2 152.4,98.2 152.4,98.1 152.5,98.1 
			152.5,98.1 152.5,98.1 152.5,98 152.6,98 152.6,98 152.6,98 152.6,97.9 152.7,97.9 152.7,97.9 152.7,97.9 152.7,97.9 152.8,97.8 
			152.8,97.8 152.8,97.8 152.8,97.8 152.9,97.7 152.9,97.7 152.9,97.7 152.9,97.7 153,97.6 153,97.6 153,97.6 153,97.6 153,97.6 
			153.1,97.5 153.1,97.5 153.1,97.5 153.1,97.5 153.1,97.4 153.1,97.4 153.2,97.4 153.2,97.4 153.2,97.4 153.2,97.3 153.2,97.3 
			153.2,97.3 153.3,97.3 153.3,97.3 153.3,97.2 153.3,97.2 153.3,97.2 153.3,97.2 153.4,97.2 153.4,97.1 153.4,97.1 153.4,97.1 
			153.4,97.1 153.4,97.1 153.4,97 153.4,97 153.5,97 153.5,97 153.5,97 153.5,96.9 153.5,96.9 153.5,96.9 153.5,96.9 153.5,96.9 
			153.5,96.8 153.5,96.8 153.6,96.8 153.6,96.8 153.6,96.8 153.6,96.8 153.6,96.7 153.6,96.7 153.6,96.7 153.6,96.7 153.6,96.7 
			153.6,96.7 153.6,96.6 153.6,96.6 153.6,96.6 153.6,96.6 153.6,96.6 153.6,96.6 153.7,96.5 153.7,96.5 153.7,96.5 153.7,96.5 
			153.7,96.5 153.7,96.5 153.7,96.4 153.7,96.4 153.7,96.4 153.7,96.4 153.7,96.4 153.7,96.4 153.7,96.4 153.7,96.3 153.7,96.3 
			153.7,96.3 153.7,96.3 153.7,96.3 153.7,96.3 153.7,96.3 153.7,96.3 153.7,96.2 153.7,96.2 153.7,96.2 153.7,96.2 153.7,96.2 
			153.7,96.2 153.7,96.2 153.7,96.2 153.7,96.2 153.7,96.1 153.7,96.1 153.7,96.1 153.7,96.1 153.7,96.1 153.7,96.1 153.7,96.1 
			153.7,96.1 153.7,96.1 153.7,96.1 153.7,96 153.7,96 153.7,96 153.7,96 153.7,96 153.7,96 153.7,96 153.6,96 153.6,96 153.6,96 
			153.6,96 153.6,96 153.6,96 153.6,95.9 153.6,95.9 153.6,95.9 153.6,95.9 153.6,95.9 153.6,95.9 153.6,95.9 153.6,95.9 
			153.6,95.9 153.6,95.9 153.6,95.9 153.6,95.9 153.6,95.9 153.6,95.9 153.6,95.9 153.6,95.9 153.5,95.9 153.5,95.8 153.5,95.8 
			153.5,95.8 153.5,95.8 153.5,95.8 153.5,95.8 153.5,95.8 153.5,95.8 153.5,95.8 153.5,95.8 153.5,95.8 153.5,95.8 153.5,95.8 
			153.5,95.8 153.4,95.8 153.4,95.8 153.4,95.8 153.4,95.8 153.4,95.8 153.4,95.8 153.4,95.8 153.4,95.8 153.4,95.8 153.4,95.8 
			153.4,95.8 153.4,95.8 153.4,95.8 153.3,95.8 153.3,95.8 153.3,95.8 153.3,95.8 153.3,95.8 153.3,95.8 153.3,95.8 153.3,95.8 
			153.3,95.8 153.3,95.8 153.2,95.8 153.2,95.8 153.2,95.8 153.2,95.8 153.2,95.8 153.2,95.8 153.2,95.8 153.2,95.8 153.2,95.8 
			153.2,95.8 153.1,95.8 153.1,95.8 153.1,95.8 153.1,95.8 153.1,95.8 153.1,95.8 153.1,95.8 153.1,95.8 153,95.8 153,95.8 
			153,95.8 153,95.8 153,95.8 153,95.8 153,95.8 153,95.8 152.9,95.8 152.9,95.8 152.9,95.8 152.9,95.8 152.9,95.8 152.9,95.8 
			152.9,95.8 152.8,95.8 152.8,95.8 152.8,95.8 152.8,95.9 152.8,95.9 152.8,95.9 152.8,95.9 152.7,95.9 152.7,95.9 152.7,95.9 
			152.7,95.9 152.7,95.9 152.7,95.9 152.7,95.9 152.6,95.9 152.6,95.9 152.6,96 152.6,96 152.6,96 152.4,96 152.3,95.9 152.2,95.9 
			152.2,95.7 152.3,95.5 152.4,95.5 152.4,95.5 152.4,95.5 152.4,95.5 152.4,95.5 152.5,95.5 152.5,95.5 152.5,95.4 152.5,95.4 
			152.5,95.4 152.6,95.4 152.6,95.4 152.6,95.4 152.6,95.4 152.6,95.4 152.6,95.4 152.7,95.4 152.7,95.4 152.7,95.4 152.7,95.4 
			152.7,95.3 152.8,95.3 152.8,95.3 152.8,95.3 152.8,95.3 152.8,95.3 152.9,95.3 152.9,95.3 152.9,95.3 152.9,95.3 152.9,95.3 
			153,95.3 153,95.3 153,95.3 153,95.3 153,95.3 153,95.3 153.1,95.3 153.1,95.3 153.1,95.3 153.1,95.3 153.1,95.3 153.2,95.3 
			153.2,95.3 153.2,95.3 		"/>
		<polygon class="st7" points="109.5,95.8 109.3,95.8 109.3,95.8 109.3,95.7 109.3,95.7 109.2,95.7 109.2,95.7 109.2,95.7 
			109.2,95.7 109.2,95.6 109.1,95.6 109.1,95.6 109.1,95.6 109.1,95.6 109.1,95.6 109.1,95.6 109,95.5 109,95.5 109,95.5 109,95.5 
			109,95.5 109,95.5 109,95.5 108.9,95.5 108.9,95.5 108.9,95.5 108.9,95.5 108.9,95.4 108.9,95.4 108.8,95.4 108.8,95.4 
			108.8,95.4 108.8,95.4 108.8,95.4 108.8,95.4 108.8,95.4 108.7,95.4 108.7,95.4 108.7,95.4 108.7,95.4 108.7,95.4 108.7,95.4 
			108.7,95.4 108.6,95.4 108.6,95.4 108.6,95.4 108.6,95.4 108.6,95.4 108.6,95.4 108.6,95.4 108.6,95.4 108.6,95.4 108.5,95.4 
			108.5,95.4 108.5,95.4 108.5,95.4 108.5,95.4 108.5,95.4 108.5,95.4 108.5,95.4 108.5,95.4 108.4,95.4 108.4,95.4 108.4,95.4 
			108.4,95.4 108.4,95.4 108.4,95.4 108.4,95.4 108.4,95.4 108.4,95.4 108.3,95.4 108.3,95.4 108.3,95.4 108.3,95.4 108.3,95.4 
			108.3,95.4 108.3,95.4 108.3,95.4 108.3,95.4 108.3,95.4 108.3,95.5 108.2,95.5 108.2,95.5 108.2,95.5 108.2,95.5 108.2,95.5 
			108.2,95.5 108.2,95.5 108.2,95.5 108.2,95.5 108.2,95.5 108.2,95.5 108.1,95.5 108.1,95.5 108.1,95.6 108.1,95.6 108.1,95.6 
			108.1,95.6 108.1,95.6 108.1,95.6 108.1,95.6 108.1,95.6 108.1,95.6 108.1,95.6 108.1,95.7 108.1,95.7 108,95.7 108,95.7 
			108,95.7 108,95.7 108,95.7 108,95.7 108,95.8 108,95.8 108,95.8 108,95.8 108,95.8 108,95.8 108,95.8 108,95.8 108,95.9 
			108,95.9 108,95.9 107.9,95.9 107.9,95.9 107.9,95.9 107.9,95.9 107.9,96 107.9,96 107.9,96 107.9,96 107.9,96 107.9,96 
			107.9,96.1 107.9,96.1 107.9,96.1 107.9,96.1 107.9,96.1 107.9,96.1 107.9,96.2 107.9,96.2 107.9,96.2 107.9,96.2 107.9,96.2 
			107.9,96.2 107.9,96.3 107.9,96.3 107.9,96.3 107.9,96.3 107.9,96.3 107.9,96.4 107.9,96.4 107.9,96.4 107.9,96.4 107.9,96.4 
			107.9,96.4 107.9,96.5 107.9,96.5 107.9,96.5 107.9,96.5 107.9,96.5 107.9,96.6 107.9,96.6 107.9,96.6 107.9,96.6 107.9,96.6 
			108,96.7 108,96.7 108,96.7 108,96.7 108,96.7 108,96.8 108,96.8 108,96.8 108,96.8 108,96.8 108,96.9 108,96.9 108,96.9 
			108,96.9 108,96.9 108.1,97 108.1,97 108.1,97 108.1,97 108.1,97 108.1,97.1 108.1,97.1 108.1,97.1 108.1,97.1 108.1,97.2 
			108.2,97.2 108.2,97.2 108.2,97.2 108.2,97.2 108.2,97.3 108.2,97.3 108.2,97.3 108.2,97.3 108.3,97.3 108.3,97.4 108.3,97.4 
			108.3,97.4 108.3,97.4 108.3,97.4 108.4,97.5 108.4,97.5 108.4,97.5 108.4,97.5 108.4,97.5 108.4,97.6 108.5,97.6 108.5,97.6 
			108.5,97.6 108.5,97.6 108.5,97.7 108.5,97.7 108.6,97.7 108.6,97.7 108.6,97.7 108.6,97.8 108.6,97.8 108.7,97.8 108.7,97.8 
			108.7,97.8 108.7,97.9 108.8,97.9 108.8,97.9 108.8,97.9 108.8,97.9 108.9,98 108.9,98 108.9,98 108.9,98 109,98 109,98.1 
			109,98.1 109,98.1 109.1,98.1 109.1,98.1 109.1,98.2 109.2,98.2 109.2,98.2 109.2,98.2 109.2,98.2 109.3,98.2 109.3,98.3 
			109.3,98.3 109.4,98.3 109.4,98.3 109.4,98.3 109.5,98.3 109.5,98.4 109.5,98.4 109.6,98.4 109.6,98.4 109.6,98.4 109.7,98.4 
			109.7,98.5 109.8,98.6 109.6,98.7 109.6,98.7 109.5,98.7 109.5,98.7 109.4,98.6 109.4,98.6 109.4,98.6 109.3,98.6 109.3,98.6 
			109.3,98.6 109.2,98.5 109.2,98.5 109.2,98.5 109.1,98.5 109.1,98.5 109.1,98.5 109,98.4 109,98.4 109,98.4 108.9,98.4 
			108.9,98.4 108.9,98.3 108.8,98.3 108.8,98.3 108.8,98.3 108.8,98.3 108.7,98.3 108.7,98.2 108.7,98.2 108.6,98.2 108.6,98.2 
			108.6,98.2 108.6,98.1 108.5,98.1 108.5,98.1 108.5,98.1 108.5,98.1 108.4,98 108.4,98 108.4,98 108.4,98 108.3,97.9 108.3,97.9 
			108.3,97.9 108.3,97.9 108.2,97.9 108.2,97.8 108.2,97.8 108.2,97.8 108.2,97.8 108.1,97.7 108.1,97.7 108.1,97.7 108.1,97.7 
			108.1,97.7 108,97.6 108,97.6 108,97.6 108,97.6 108,97.5 108,97.5 107.9,97.5 107.9,97.5 107.9,97.4 107.9,97.4 107.9,97.4 
			107.9,97.4 107.8,97.4 107.8,97.3 107.8,97.3 107.8,97.3 107.8,97.3 107.8,97.2 107.8,97.2 107.8,97.2 107.7,97.2 107.7,97.1 
			107.7,97.1 107.7,97.1 107.7,97.1 107.7,97 107.7,97 107.7,97 107.7,97 107.6,97 107.6,96.9 107.6,96.9 107.6,96.9 107.6,96.9 
			107.6,96.8 107.6,96.8 107.6,96.8 107.6,96.8 107.6,96.7 107.6,96.7 107.6,96.7 107.6,96.7 107.5,96.6 107.5,96.6 107.5,96.6 
			107.5,96.6 107.5,96.5 107.5,96.5 107.5,96.5 107.5,96.5 107.5,96.5 107.5,96.4 107.5,96.4 107.5,96.4 107.5,96.4 107.5,96.3 
			107.5,96.3 107.5,96.3 107.5,96.3 107.5,96.2 107.5,96.2 107.5,96.2 107.5,96.2 107.5,96.2 107.5,96.1 107.5,96.1 107.5,96.1 
			107.5,96.1 107.5,96 107.5,96 107.5,96 107.5,96 107.5,96 107.5,95.9 107.5,95.9 107.5,95.9 107.5,95.9 107.5,95.9 107.5,95.8 
			107.5,95.8 107.5,95.8 107.5,95.8 107.6,95.8 107.6,95.7 107.6,95.7 107.6,95.7 107.6,95.7 107.6,95.7 107.6,95.6 107.6,95.6 
			107.6,95.6 107.6,95.6 107.6,95.6 107.6,95.5 107.6,95.5 107.6,95.5 107.7,95.5 107.7,95.5 107.7,95.5 107.7,95.4 107.7,95.4 
			107.7,95.4 107.7,95.4 107.7,95.4 107.7,95.4 107.7,95.3 107.8,95.3 107.8,95.3 107.8,95.3 107.8,95.3 107.8,95.3 107.8,95.2 
			107.8,95.2 107.8,95.2 107.9,95.2 107.9,95.2 107.9,95.2 107.9,95.2 107.9,95.1 107.9,95.1 107.9,95.1 108,95.1 108,95.1 
			108,95.1 108,95.1 108,95.1 108,95 108.1,95 108.1,95 108.1,95 108.1,95 108.1,95 108.1,95 108.2,95 108.2,95 108.2,95 108.2,95 
			108.2,95 108.3,94.9 108.3,94.9 108.3,94.9 108.3,94.9 108.3,94.9 108.4,94.9 108.4,94.9 108.4,94.9 108.4,94.9 108.4,94.9 
			108.5,94.9 108.5,94.9 108.5,94.9 108.5,94.9 108.5,94.9 108.6,94.9 108.6,94.9 108.6,94.9 108.6,94.9 108.7,94.9 108.7,94.9 
			108.7,94.9 108.7,94.9 108.7,94.9 108.8,94.9 108.8,94.9 108.8,94.9 108.8,94.9 108.8,94.9 108.9,94.9 108.9,94.9 108.9,94.9 
			108.9,95 109,95 109,95 109,95 109,95 109,95 109.1,95 109.1,95 109.1,95 109.1,95 109.2,95 109.2,95.1 109.2,95.1 109.2,95.1 
			109.3,95.1 109.3,95.1 109.3,95.1 109.3,95.1 109.3,95.1 109.4,95.2 109.4,95.2 109.4,95.2 109.4,95.2 109.5,95.2 109.5,95.2 
			109.5,95.3 109.5,95.3 109.5,95.3 109.6,95.3 109.6,95.3 109.6,95.4 109.6,95.4 109.6,95.4 109.7,95.5 109.7,95.7 109.7,95.7 
			109.7,95.7 		"/>
		<path class="st8" d="M132,103.2c3.2-0.4,3.9-2,2.3-3.2"/>
		<polygon class="st7" points="126.5,99.2 126.5,99.2 126.5,99.2 126.5,99.2 126.5,99.3 126.5,99.3 126.5,99.3 126.5,99.4 
			126.5,99.4 126.5,99.4 126.5,99.5 126.5,99.5 126.5,99.5 126.5,99.5 126.5,99.6 126.5,99.6 126.5,99.6 126.5,99.7 126.5,99.7 
			126.5,99.7 126.5,99.8 126.5,99.8 126.5,99.8 126.5,99.8 126.5,99.9 126.5,99.9 126.5,99.9 126.5,100 126.5,100 126.5,100 
			126.5,100.1 126.5,100.1 126.5,100.1 126.4,100.2 126.4,100.2 126.4,100.2 126.4,100.2 126.4,100.2 126.4,100.3 126.4,100.3 
			126.4,100.3 126.4,100.4 126.4,100.4 126.4,100.4 126.4,100.4 126.4,100.4 126.4,100.5 126.4,100.5 126.3,100.5 126.3,100.6 
			126.3,100.6 126.3,100.6 126.3,100.6 126.3,100.6 126.3,100.7 126.3,100.7 126.3,100.7 126.3,100.7 126.3,100.7 126.2,100.8 
			126.2,100.8 126.2,100.8 126.2,100.8 126.2,100.8 126.2,100.9 126.2,100.9 126.2,100.9 126.2,100.9 126.1,100.9 126.1,101 
			126.1,101 126.1,101 126.1,101 126.1,101 126.1,101 126.1,101.1 126,101.1 126,101.1 126,101.1 126,101.1 126,101.2 126,101.2 
			125.9,101.2 125.9,101.2 125.9,101.2 125.9,101.2 125.9,101.3 125.9,101.3 125.8,101.3 125.8,101.3 125.8,101.3 125.8,101.4 
			125.8,101.4 125.8,101.4 125.7,101.4 125.7,101.4 125.7,101.4 125.7,101.4 125.7,101.5 125.7,101.5 125.6,101.5 125.6,101.5 
			125.6,101.5 125.6,101.5 125.6,101.5 125.6,101.6 125.5,101.6 125.5,101.6 125.5,101.6 125.5,101.6 125.5,101.6 125.5,101.6 
			125.4,101.6 125.4,101.6 125.4,101.7 125.4,101.7 125.4,101.7 125.3,101.7 125.3,101.7 125.3,101.7 125.3,101.7 125.3,101.7 
			125.3,101.7 125.2,101.8 125.2,101.8 125.2,101.8 125.2,101.8 125.2,101.8 125.2,101.8 125.1,101.8 125.1,101.8 125.1,101.8 
			125.1,101.8 125.1,101.8 125.1,101.8 125,101.9 125,101.9 125,101.9 125,101.9 125,101.9 125,101.9 124.9,101.9 124.9,101.9 
			124.8,101.8 124.8,101.7 124.8,101.7 124.8,101.6 124.8,101.6 124.9,101.6 124.9,101.6 124.9,101.6 124.9,101.6 124.9,101.6 
			124.9,101.6 124.9,101.6 124.9,101.5 125,101.5 125,101.5 125,101.5 125,101.5 125,101.5 125,101.5 125,101.5 125,101.4 
			125,101.4 125.1,101.4 125.1,101.4 125.1,101.4 125.1,101.4 125.1,101.3 125.1,101.3 125.1,101.3 125.1,101.3 125.1,101.3 
			125.2,101.3 125.2,101.3 125.2,101.2 125.2,101.2 125.2,101.2 125.2,101.2 125.2,101.2 125.2,101.2 125.2,101.1 125.3,101.1 
			125.3,101.1 125.3,101.1 125.3,101.1 125.3,101.1 125.3,101.1 125.3,101 125.3,101 125.3,101 125.3,101 125.4,101 125.4,101 
			125.4,100.9 125.4,100.9 125.4,100.9 125.4,100.9 125.4,100.9 125.4,100.9 125.4,100.8 125.4,100.8 125.5,100.8 125.5,100.8 
			125.5,100.8 125.5,100.7 125.5,100.7 125.5,100.7 125.5,100.7 125.5,100.7 125.5,100.6 125.5,100.6 125.6,100.6 125.6,100.6 
			125.6,100.6 125.6,100.6 125.6,100.5 125.6,100.5 125.6,100.5 125.6,100.5 125.6,100.5 125.6,100.5 125.6,100.4 125.7,100.4 
			125.7,100.4 125.7,100.4 125.7,100.4 125.7,100.4 125.7,100.3 125.7,100.3 125.7,100.3 125.7,100.3 125.7,100.3 125.7,100.3 
			125.8,100.2 125.8,100.2 125.8,100.2 125.8,100.2 125.8,100.2 125.8,100.2 125.8,100.1 125.8,100.1 125.8,100.1 125.8,100.1 
			125.9,100 125.9,100 125.9,100 125.9,100 125.9,100 125.9,99.9 125.9,99.9 125.9,99.9 125.9,99.9 126,99.9 126,99.8 126,99.8 
			126,99.8 126,99.8 126,99.7 126,99.7 126,99.7 126,99.7 126.1,99.6 126.1,99.6 126.1,99.6 126.1,99.6 126.1,99.5 126.1,99.5 
			126.1,99.5 126.1,99.5 126.1,99.4 126.1,99.4 126.1,99.4 126.2,99.4 126.2,99.3 126.2,99.3 126.2,99.3 126.2,99.2 126.2,99.2 
			126.2,99.2 126.2,99.2 126.4,99 		"/>
		<polygon class="st7" points="136.1,99.2 136.1,99.2 136.1,99.3 136.1,99.3 136.1,99.3 136.1,99.4 136.1,99.4 136.1,99.4 
			136.1,99.4 136.2,99.5 136.2,99.5 136.2,99.5 136.2,99.6 136.2,99.6 136.2,99.6 136.2,99.7 136.2,99.7 136.2,99.7 136.2,99.7 
			136.2,99.8 136.3,99.8 136.3,99.8 136.3,99.9 136.3,99.9 136.3,99.9 136.3,99.9 136.3,99.9 136.3,99.9 136.3,99.9 136.3,100 
			136.3,100 136.3,100 136.3,100 136.3,100 136.4,100 136.4,100.1 136.4,100.1 136.4,100.1 136.4,100.1 136.4,100.1 136.4,100.1 
			136.4,100.1 136.4,100.1 136.4,100.2 136.4,100.2 136.4,100.2 136.4,100.2 136.4,100.2 136.5,100.2 136.5,100.3 136.5,100.3 
			136.5,100.3 136.5,100.3 136.5,100.3 136.5,100.3 136.5,100.3 136.5,100.3 136.5,100.4 136.5,100.4 136.5,100.4 136.5,100.4 
			136.5,100.4 136.5,100.4 136.6,100.4 136.6,100.5 136.6,100.5 136.6,100.5 136.6,100.5 136.6,100.5 136.6,100.5 136.6,100.5 
			136.6,100.6 136.6,100.6 136.6,100.6 136.6,100.6 136.6,100.6 136.7,100.6 136.7,100.7 136.7,100.7 136.7,100.7 136.7,100.7 
			136.7,100.7 136.7,100.7 136.7,100.7 136.7,100.8 136.7,100.8 136.7,100.8 136.8,100.8 136.8,100.8 136.8,100.8 136.8,100.9 
			136.8,100.9 136.8,100.9 136.8,100.9 136.8,100.9 136.8,101 136.8,101 136.9,101 136.9,101 136.9,101 136.9,101 136.9,101.1 
			136.9,101.1 136.9,101.1 136.9,101.1 137,101.1 137,101.2 137,101.2 137,101.2 137,101.2 137,101.2 137.1,101.3 137.1,101.3 
			137.1,101.3 137.1,101.3 137.1,101.3 137.1,101.3 137.1,101.4 137.2,101.4 137.2,101.4 137.2,101.4 137.2,101.5 137.2,101.5 
			137.2,101.5 137.3,101.7 137.1,101.7 137.1,101.7 137.1,101.7 137,101.7 137,101.7 137,101.6 137,101.6 136.9,101.6 136.9,101.6 
			136.9,101.6 136.8,101.6 136.8,101.6 136.8,101.6 136.8,101.5 136.8,101.5 136.7,101.5 136.7,101.5 136.7,101.5 136.7,101.5 
			136.6,101.5 136.6,101.4 136.6,101.4 136.6,101.4 136.5,101.4 136.5,101.4 136.5,101.4 136.5,101.4 136.5,101.3 136.4,101.3 
			136.4,101.3 136.4,101.3 136.4,101.3 136.4,101.3 136.3,101.2 136.3,101.2 136.3,101.2 136.3,101.2 136.3,101.2 136.3,101.2 
			136.2,101.1 136.2,101.1 136.2,101.1 136.2,101.1 136.2,101.1 136.2,101.1 136.1,101 136.1,101 136.1,101 136.1,101 136.1,101 
			136.1,100.9 136,100.9 136,100.9 136,100.9 136,100.9 136,100.9 136,100.8 136,100.8 136,100.8 136,100.8 136,100.8 135.9,100.7 
			135.9,100.7 135.9,100.7 135.9,100.7 135.9,100.7 135.9,100.7 135.9,100.6 135.9,100.6 135.9,100.6 135.9,100.6 135.9,100.6 
			135.9,100.5 135.9,100.5 135.8,100.5 135.8,100.5 135.8,100.5 135.8,100.5 135.8,100.4 135.8,100.4 135.8,100.4 135.8,100.4 
			135.8,100.3 135.8,100.3 135.8,100.3 135.8,100.3 135.8,100.3 135.8,100.2 135.8,100.2 135.8,100.2 135.8,100.2 135.8,100.2 
			135.8,100.1 135.8,100.1 135.8,100.1 135.8,100.1 135.8,100.1 135.8,100 135.8,100 135.8,100 135.8,100 135.8,100 135.8,99.9 
			135.8,99.9 135.8,99.9 135.8,99.8 135.8,99.8 135.8,99.8 135.8,99.7 135.8,99.7 135.8,99.7 135.8,99.6 135.8,99.6 135.8,99.5 
			135.8,99.5 135.8,99.5 135.8,99.4 135.8,99.4 135.8,99.4 135.8,99.4 135.8,99.3 135.8,99.3 135.8,99.3 135.8,99.2 135.8,99.2 
			136,99.1 		"/>
	</g>
	<g>
		<defs>
			<path id="SVGID_7_" d="M117.9,93.8c3.1,0.5,6,0.5,8.8,0.1c-0.1-1.1-0.3-2.4-1.7-2.8c-0.5-0.1-1.1-0.2-1.8-0.2
				C120.7,90.8,117.5,91.9,117.9,93.8"/>
		</defs>
		<clipPath id="SVGID_8_">
			<use xlink:href="#SVGID_7_"  style="overflow:visible;"/>
		</clipPath>
		<path class="st9" d="M122.3,90.5c1.3,0,2.3,1,2.3,2.2c0,1.2-1,2.2-2.3,2.1c-1.3,0-2.3-1-2.3-2.2C120,91.5,121,90.5,122.3,90.5"/>
		<path class="st10" d="M123.5,91.7c0.2,0,0.4,0.2,0.4,0.4c0,0.2-0.2,0.4-0.4,0.4c-0.2,0-0.4-0.2-0.4-0.4
			C123,91.9,123.2,91.7,123.5,91.7"/>
	</g>
	<g>
		<defs>
			<rect id="SVGID_9_" x="23" y="16" width="244.1" height="244.1"/>
		</defs>
		<clipPath id="SVGID_10_">
			<use xlink:href="#SVGID_9_"  style="overflow:visible;"/>
		</clipPath>
		<path class="st11" d="M117.9,93.8c3.1,0.5,6,0.5,8.8,0.1c-0.1-1.1-0.3-2.4-1.7-2.8C122.5,90.3,117.4,91.5,117.9,93.8z"/>
	</g>
	<g>
		<defs>
			<path id="SVGID_11_" d="M137.2,91c-1.4,0.4-1.6,1.7-1.7,2.9c2.8,0.5,5.7,0.5,8.8,0c0.4-1.9-2.8-3.1-5.4-3.1
				C138.3,90.8,137.7,90.9,137.2,91"/>
		</defs>
		<clipPath id="SVGID_12_">
			<use xlink:href="#SVGID_11_"  style="overflow:visible;"/>
		</clipPath>
		<path class="st12" d="M139.7,90.6c1.3,0,2.3,1,2.3,2.3c0,1.2-1,2.2-2.3,2.2c-1.3,0-2.3-1-2.3-2.3
			C137.4,91.6,138.4,90.6,139.7,90.6"/>
		<path class="st13" d="M140.8,91.8c0.2,0,0.4,0.2,0.4,0.4c0,0.2-0.2,0.4-0.4,0.4c-0.2,0-0.4-0.2-0.4-0.4
			C140.4,92,140.6,91.8,140.8,91.8"/>
	</g>
	<g>
		<defs>
			<rect id="SVGID_13_" x="23" y="16" width="244.1" height="244.1"/>
		</defs>
		<clipPath id="SVGID_14_">
			<use xlink:href="#SVGID_13_"  style="overflow:visible;"/>
		</clipPath>
		<path class="st14" d="M144.3,93.9c-3.1,0.5-6,0.5-8.8,0c0.1-1.2,0.3-2.5,1.7-2.9C139.8,90.3,144.8,91.5,144.3,93.9z"/>
		<path class="st15" d="M129.8,88.3c1,6.2-1,11.3-3,12.9c0.2,1.4,1.8,1.8,3.1,2"/>
		<polygon class="st16" points="131.1,112.3 131.2,112.3 131.2,112.3 131.2,112.3 131.3,112.3 131.3,112.3 131.3,112.3 131.4,112.3 
			131.4,112.3 131.5,112.3 131.5,112.3 131.5,112.3 131.5,112.4 131.6,112.4 131.6,112.4 131.7,112.4 131.7,112.4 131.7,112.4 
			131.8,112.4 131.8,112.4 131.8,112.4 131.9,112.4 131.9,112.4 132,112.4 132,112.4 132.1,112.5 132.1,112.5 132.1,112.5 
			132.1,112.5 132.2,112.5 132.2,112.5 132.3,112.5 132.3,112.5 132.4,112.5 132.4,112.6 132.4,112.6 132.5,112.6 132.5,112.6 
			132.5,112.6 132.6,112.6 132.6,112.6 132.7,112.7 132.7,112.7 132.7,112.7 132.8,112.7 132.8,112.7 132.9,112.8 132.9,112.8 
			132.9,112.8 133,112.8 133,112.8 133,112.8 133.1,112.9 133.1,112.9 133.2,112.9 133.2,112.9 133.2,112.9 133.3,113 133.3,113 
			133.4,113 133.4,113 133.5,113.1 133.5,113.1 133.5,113.1 133.5,113.1 133.6,113.1 133.6,113.2 133.7,113.2 133.7,113.2 
			133.7,113.3 133.8,113.3 133.8,113.3 133.8,113.5 133.6,113.5 133.6,113.5 133.6,113.5 133.5,113.5 133.5,113.5 133.5,113.5 
			133.4,113.4 133.4,113.4 133.4,113.4 133.3,113.4 133.3,113.4 133.2,113.4 133.2,113.4 133.2,113.4 133.1,113.3 133.1,113.3 
			133,113.3 133,113.3 133,113.3 132.9,113.3 132.9,113.3 132.8,113.3 132.8,113.2 132.7,113.2 132.7,113.2 132.7,113.2 
			132.7,113.2 132.6,113.2 132.6,113.2 132.5,113.2 132.5,113.2 132.5,113.2 132.4,113.2 132.4,113.1 132.4,113.1 132.3,113.1 
			132.3,113.1 132.3,113.1 132.2,113.1 132.2,113.1 132.1,113.1 132.1,113.1 132.1,113.1 132,113.1 132,113.1 132,113.1 
			131.9,113.1 131.9,113.1 131.9,113.1 131.8,113.1 131.8,113.1 131.7,113 131.7,113 131.7,113 131.6,113 131.6,113 131.6,113 
			131.6,113 131.5,113 131.5,113 131.4,113 131.4,113 131.4,113 131.4,113 131.3,113 131.3,113 131.3,113 131.2,113 131.2,113 
			131.2,113 131.1,113 131.1,113 131.1,113 131.1,113 131,113 131,113 131,113 130.9,113 130.9,113 130.9,113 130.8,113 130.8,113 
			130.8,113 130.7,113 130.7,113 130.7,113 130.6,113 130.6,113 130.6,113 130.6,113 130.5,113 130.5,113 130.5,113 130.4,113 
			130.4,113 130.3,113 130.3,113 130.3,113 130.3,113 130.2,113 130.2,113 130.2,113 130.1,113 130.1,113 130.1,113 130,113 
			130,113 130,113.1 130,113.1 129.9,113.1 129.9,113.1 129.9,113.1 129.8,113.1 129.8,113.1 129.8,113.1 129.7,113.1 129.7,113.1 
			129.7,113.1 129.6,113.1 129.6,113.1 129.6,113.1 129.5,113.1 129.5,113.1 129.5,113.2 129.4,113.2 129.4,113.2 129.4,113.2 
			129.4,113.2 129.3,113.2 129.3,113.2 129.3,113.2 129.2,113.2 129.2,113.2 129.2,113.2 129.1,113.3 129.1,113.3 129.1,113.3 
			129.1,113.3 129,113.3 129,113.3 129,113.3 128.9,113.3 128.9,113.4 128.9,113.4 128.7,113.3 128.8,113.1 128.8,113.1 
			128.8,113.1 128.8,113.1 128.9,113 128.9,113 128.9,113 129,113 129,113 129,112.9 129.1,112.9 129.1,112.9 129.1,112.9 
			129.1,112.9 129.2,112.8 129.2,112.8 129.2,112.8 129.3,112.8 129.3,112.8 129.3,112.7 129.4,112.7 129.4,112.7 129.4,112.7 
			129.5,112.7 129.5,112.7 129.5,112.6 129.6,112.6 129.6,112.6 129.7,112.6 129.7,112.6 129.7,112.6 129.8,112.6 129.8,112.5 
			129.8,112.5 129.8,112.5 129.9,112.5 129.9,112.5 129.9,112.5 130,112.5 130,112.5 130.1,112.5 130.1,112.5 130.1,112.4 
			130.2,112.4 130.2,112.4 130.2,112.4 130.3,112.4 130.3,112.4 130.3,112.4 130.4,112.4 130.4,112.4 130.5,112.4 130.5,112.4 
			130.5,112.4 130.6,112.4 130.6,112.4 130.6,112.4 130.7,112.3 130.7,112.3 130.7,112.3 130.8,112.3 130.8,112.3 130.9,112.3 
			130.9,112.3 130.9,112.3 130.9,112.3 131,112.3 131,112.3 131.1,112.3 131.1,112.3 		"/>
		<path class="st14" d="M117.4,91.7c2.4-0.5,5.9-1.2,7.9-2.5"/>
		<path class="st14" d="M144.4,92c-2.4-0.5-4.9-1.5-7.1-2.7"/>
		<polygon class="st16" points="131.4,109.6 131.4,109.6 131.5,109.6 131.5,109.6 131.5,109.6 131.6,109.6 131.6,109.6 131.6,109.6 
			131.6,109.6 131.7,109.6 131.7,109.6 131.7,109.6 131.8,109.6 131.8,109.6 131.8,109.6 131.9,109.6 131.9,109.6 131.9,109.6 
			132,109.6 132,109.6 132,109.6 132.1,109.6 132.1,109.6 132.1,109.6 132.2,109.6 132.2,109.6 132.2,109.6 132.2,109.6 
			132.3,109.6 132.3,109.6 132.3,109.6 132.4,109.6 132.4,109.6 132.4,109.6 132.4,109.6 132.5,109.6 132.5,109.6 132.5,109.7 
			132.6,109.7 132.6,109.7 132.6,109.7 132.7,109.7 132.7,109.7 132.7,109.7 132.8,109.7 132.8,109.7 132.8,109.7 132.8,109.7 
			132.9,109.7 132.9,109.7 132.9,109.7 133,109.7 133,109.7 133,109.7 133.1,109.8 133.1,109.8 133.1,109.8 133.2,109.8 
			133.2,109.8 133.2,109.8 133.3,109.8 133.3,109.8 133.3,109.8 133.4,109.8 133.4,109.8 133.4,109.8 133.4,109.8 133.5,109.9 
			133.5,109.9 133.5,109.9 133.6,109.9 133.6,109.9 133.6,109.9 133.6,109.9 133.7,109.9 133.7,109.9 133.7,109.9 133.8,109.9 
			133.8,110 133.8,110 133.8,110 133.9,110 133.9,110 133.9,110 134,110 134,110 134,110 134.1,110 134.1,110.1 134.1,110.1 
			134.2,110.1 134.2,110.1 134.2,110.1 134.2,110.1 134.3,110.1 134.3,110.1 134.3,110.2 134.4,110.2 134.4,110.2 134.4,110.2 
			134.5,110.2 134.5,110.2 134.5,110.2 134.6,110.2 134.6,110.3 134.6,110.3 134.6,110.3 134.7,110.3 134.7,110.3 134.7,110.3 
			134.8,110.3 134.8,110.4 134.8,110.4 134.8,110.4 134.9,110.4 134.9,110.4 134.9,110.4 135,110.4 135,110.4 135,110.5 135,110.5 
			135.1,110.5 135.1,110.5 135.1,110.5 135.2,110.5 135.2,110.6 135.2,110.6 135.3,110.6 135.3,110.6 135.3,110.6 135.3,110.6 
			135.4,110.7 135.4,110.7 135.4,110.7 135.5,110.7 135.5,110.7 135.5,110.7 135.5,110.8 135.6,110.8 135.6,110.8 135.6,110.8 
			135.7,110.8 135.7,110.9 135.7,110.9 135.8,110.9 135.8,110.9 135.8,110.9 135.8,111 135.9,111 135.9,111 135.9,111 135.9,111 
			136,111 136,111 136,111.1 136,111.1 136.1,111.1 136.1,111.1 136.1,111.2 136.2,111.2 136.2,111.2 136.2,111.2 136.3,111.2 
			136.3,111.3 136.3,111.3 136.3,111.3 136.4,111.3 136.4,111.3 136.4,111.4 136.5,111.4 136.5,111.4 136.5,111.4 136.5,111.5 
			136.6,111.5 136.6,111.5 136.6,111.5 136.7,111.5 136.7,111.6 136.7,111.6 136.7,111.6 136.8,111.6 136.8,111.7 136.8,111.7 
			136.9,111.7 136.9,111.7 136.9,111.8 136.9,111.8 137,111.8 137,111.8 137,111.9 137,111.9 137.1,111.9 137.1,111.9 137.1,112 
			137.2,112 137.2,112 137.2,112 137.2,112.1 137.3,112.1 137.3,112.1 137.3,112.1 137.4,112.2 137.4,112.2 137.4,112.2 
			137.4,112.2 137.5,112.3 137.5,112.3 137.5,112.3 137.5,112.4 137.6,112.4 137.7,112.5 137.7,112.5 137.7,112.6 137.8,112.6 
			137.8,112.6 137.9,112.7 137.9,112.7 138,112.8 138,112.9 138.1,112.9 138.1,113 138.2,113 138.2,113.1 138.3,113.2 138.3,113.2 
			138.4,113.3 138.4,113.4 138.5,113.4 138.6,113.5 138.6,113.6 138.7,113.6 138.7,113.7 138.8,113.8 138.8,113.8 138.9,113.9 
			138.9,114 138.9,114 139,114 139,114 139,114.3 138.9,114.5 138.9,114.5 138.6,114.6 138.4,114.4 138.4,114.4 138.4,114.4 
			138.3,114.3 138.3,114.3 138.3,114.2 138.2,114.1 138.2,114.1 138.1,114 138.1,114 138,113.9 138,113.8 137.9,113.8 137.9,113.7 
			137.8,113.6 137.8,113.6 137.7,113.5 137.7,113.5 137.6,113.4 137.6,113.3 137.5,113.3 137.5,113.2 137.5,113.2 137.4,113.1 
			137.4,113 137.3,113 137.3,113 137.3,112.9 137.2,112.9 137.2,112.8 137.1,112.8 137.1,112.7 137.1,112.7 137,112.7 137,112.7 
			137,112.6 137,112.6 136.9,112.6 136.9,112.6 136.9,112.5 136.9,112.5 136.8,112.5 136.8,112.5 136.8,112.4 136.8,112.4 
			136.7,112.4 136.7,112.4 136.7,112.3 136.7,112.3 136.6,112.3 136.6,112.3 136.6,112.2 136.5,112.2 136.5,112.2 136.5,112.2 
			136.5,112.1 136.4,112.1 136.4,112.1 136.4,112.1 136.4,112.1 136.3,112 136.3,112 136.3,112 136.3,112 136.2,111.9 136.2,111.9 
			136.2,111.9 136.2,111.9 136.1,111.8 136.1,111.8 136.1,111.8 136.1,111.8 136,111.8 136,111.7 136,111.7 135.9,111.7 
			135.9,111.7 135.9,111.7 135.9,111.6 135.8,111.6 135.8,111.6 135.8,111.6 135.8,111.6 135.7,111.5 135.7,111.5 135.7,111.5 
			135.6,111.5 135.6,111.5 135.6,111.4 135.6,111.4 135.6,111.4 135.5,111.4 135.5,111.4 135.5,111.4 135.5,111.3 135.4,111.3 
			135.4,111.3 135.4,111.3 135.3,111.3 135.3,111.3 135.3,111.2 135.3,111.2 135.2,111.2 135.2,111.2 135.2,111.2 135.2,111.1 
			135.1,111.1 135.1,111.1 135.1,111.1 135,111.1 135,111.1 135,111 135,111 134.9,111 134.9,111 134.9,111 134.9,111 134.8,111 
			134.8,110.9 134.8,110.9 134.7,110.9 134.7,110.9 134.7,110.9 134.7,110.9 134.6,110.8 134.6,110.8 134.6,110.8 134.6,110.8 
			134.5,110.8 134.5,110.8 134.5,110.8 134.5,110.8 134.4,110.7 134.4,110.7 134.4,110.7 134.3,110.7 134.3,110.7 134.3,110.7 
			134.3,110.7 134.2,110.7 134.2,110.6 134.2,110.6 134.1,110.6 134.1,110.6 134.1,110.6 134.1,110.6 134,110.6 134,110.6 
			134,110.5 133.9,110.5 133.9,110.5 133.9,110.5 133.9,110.5 133.8,110.5 133.8,110.5 133.8,110.5 133.7,110.5 133.7,110.4 
			133.7,110.4 133.7,110.4 133.6,110.4 133.6,110.4 133.6,110.4 133.5,110.4 133.5,110.4 133.5,110.4 133.5,110.4 133.5,110.4 
			133.4,110.3 133.4,110.3 133.4,110.3 133.3,110.3 133.3,110.3 133.3,110.3 133.3,110.3 133.2,110.3 133.2,110.3 133.2,110.3 
			133.1,110.3 133.1,110.3 133.1,110.2 133,110.2 133,110.2 133,110.2 133,110.2 132.9,110.2 132.9,110.2 132.9,110.2 132.8,110.2 
			132.8,110.2 132.8,110.2 132.8,110.2 132.7,110.2 132.7,110.2 132.7,110.2 132.6,110.1 132.6,110.1 132.6,110.1 132.5,110.1 
			132.5,110.1 132.5,110.1 132.5,110.1 132.4,110.1 132.4,110.1 132.4,110.1 132.3,110.1 132.3,110.1 132.3,110.1 132.3,110.1 
			132.3,110.1 132.2,110.1 132.2,110.1 132.2,110.1 132.1,110.1 132.1,110.1 132.1,110.1 132,110.1 132,110.1 132,110.1 132,110 
			131.9,110 131.9,110 131.9,110 131.8,110 131.8,110 131.8,110 131.7,110 131.7,110 131.7,110 131.7,110 131.6,110 131.6,110 
			131.6,110 131.5,110 131.5,110 131.5,110 131.4,110 131.4,110 131.4,110 131.4,110 131.3,110 131.3,110 131.3,110 131.2,110 
			131.2,110 131.2,110 131.2,110 131.1,110 131.1,110 131.1,110 131.1,110 131,110 131,110 131,110 130.9,110 130.9,110 130.9,110 
			130.8,110 130.8,110 130.8,110 130.8,110 130.7,110 130.7,110 130.7,110.1 130.6,110.1 130.6,110.1 130.6,110.1 130.5,110.1 
			130.5,110.1 130.5,110.1 130.5,110.1 130.4,110.1 130.4,110.1 130.4,110.1 130.3,110.1 130.3,110.1 130.3,110.1 130.2,110.1 
			130.2,110.1 130.2,110.1 130.2,110.1 130.1,110.1 130.1,110.1 130.1,110.1 130,110.1 130,110.1 130,110.1 130,110.2 129.9,110.2 
			129.9,110.2 129.9,110.2 129.9,110.2 129.8,110.2 129.8,110.2 129.8,110.2 129.7,110.2 129.7,110.2 129.7,110.2 129.6,110.2 
			129.6,110.2 129.6,110.2 129.6,110.2 129.5,110.3 129.5,110.3 129.5,110.3 129.4,110.3 129.4,110.3 129.4,110.3 129.4,110.3 
			129.3,110.3 129.3,110.3 129.3,110.3 129.2,110.3 129.2,110.3 129.2,110.4 129.1,110.4 129.1,110.4 129.1,110.4 129.1,110.4 
			129,110.4 129,110.4 129,110.4 128.9,110.4 128.9,110.4 128.9,110.5 128.8,110.5 128.8,110.5 128.8,110.5 128.7,110.5 
			128.7,110.5 128.6,110.5 128.6,110.6 128.5,110.6 128.5,110.6 128.4,110.6 128.3,110.7 128.3,110.7 128.2,110.7 128.2,110.7 
			128.1,110.8 128,110.8 128,110.8 127.9,110.9 127.9,110.9 127.8,110.9 127.8,110.9 127.7,111 127.6,111 127.6,111 127.5,111.1 
			127.5,111.1 127.5,111.1 127.4,111.1 127.3,111.2 127.3,111.2 127.2,111.2 127.2,111.3 127.1,111.3 127.1,111.4 127,111.4 
			126.9,111.4 126.9,111.5 126.8,111.5 126.8,111.5 126.7,111.6 126.7,111.6 126.6,111.7 126.5,111.7 126.5,111.7 126.4,111.8 
			126.4,111.8 126.3,111.9 126.3,111.9 126.3,111.9 126.2,112 126.2,112 126.1,112 126,112.1 126,112.1 125.9,112.2 125.9,112.2 
			125.8,112.3 125.8,112.3 125.7,112.4 125.7,112.4 125.6,112.5 125.5,112.5 125.5,112.6 125.4,112.6 125.4,112.7 125.3,112.7 
			125.3,112.8 125.2,112.8 125.2,112.9 125.1,112.9 125.1,113 125,113 124.9,113.1 124.9,113.2 124.8,113.2 124.8,113.3 
			124.7,113.3 124.7,113.4 124.7,113.4 124.6,113.4 124.6,113.5 124.5,113.6 124.5,113.6 124.4,113.7 124.4,113.7 124.3,113.8 
			124.3,113.9 124.2,113.9 124.2,114 124.1,114 124.1,114 123.9,114.2 123.6,114.1 123.6,114.1 123.6,114.1 123.5,113.9 
			123.6,113.6 123.6,113.6 123.6,113.5 123.7,113.5 123.8,113.4 123.8,113.4 123.9,113.3 123.9,113.2 124,113.2 124,113.1 
			124.1,113.1 124.2,113 124.2,112.9 124.2,112.9 124.3,112.9 124.3,112.8 124.4,112.8 124.4,112.7 124.5,112.6 124.6,112.6 
			124.6,112.5 124.7,112.5 124.7,112.4 124.8,112.4 124.8,112.3 124.9,112.3 125,112.2 125,112.2 125.1,112.1 125.1,112.1 
			125.2,112 125.3,112 125.3,111.9 125.4,111.9 125.4,111.8 125.5,111.8 125.6,111.7 125.6,111.7 125.7,111.6 125.7,111.6 
			125.8,111.5 125.9,111.5 125.9,111.5 126,111.4 126,111.4 126,111.4 126.1,111.3 126.2,111.3 126.2,111.2 126.3,111.2 
			126.3,111.2 126.4,111.1 126.5,111.1 126.5,111 126.6,111 126.6,111 126.7,110.9 126.8,110.9 126.8,110.8 126.9,110.8 127,110.8 
			127,110.7 127.1,110.7 127.1,110.7 127.2,110.6 127.2,110.6 127.3,110.6 127.3,110.6 127.4,110.5 127.5,110.5 127.5,110.5 
			127.6,110.5 127.6,110.4 127.7,110.4 127.8,110.4 127.8,110.3 127.9,110.3 128,110.3 128,110.3 128.1,110.2 128.1,110.2 
			128.2,110.2 128.3,110.1 128.3,110.1 128.4,110.1 128.5,110.1 128.5,110.1 128.6,110 128.6,110 128.7,110 128.7,110 128.7,110 
			128.7,110 128.8,110 128.8,110 128.8,109.9 128.9,109.9 128.9,109.9 128.9,109.9 129,109.9 129,109.9 129,109.9 129.1,109.9 
			129.1,109.9 129.1,109.9 129.2,109.9 129.2,109.8 129.2,109.8 129.3,109.8 129.3,109.8 129.3,109.8 129.3,109.8 129.4,109.8 
			129.4,109.8 129.4,109.8 129.5,109.8 129.5,109.8 129.5,109.8 129.6,109.8 129.6,109.7 129.6,109.7 129.7,109.7 129.7,109.7 
			129.7,109.7 129.8,109.7 129.8,109.7 129.8,109.7 129.9,109.7 129.9,109.7 129.9,109.7 130,109.7 130,109.7 130,109.7 
			130.1,109.7 130.1,109.7 130.1,109.7 130.1,109.6 130.2,109.6 130.2,109.6 130.2,109.6 130.3,109.6 130.3,109.6 130.3,109.6 
			130.4,109.6 130.4,109.6 130.4,109.6 130.5,109.6 130.5,109.6 130.5,109.6 130.6,109.6 130.6,109.6 130.6,109.6 130.7,109.6 
			130.7,109.6 130.7,109.6 130.8,109.6 130.8,109.6 130.8,109.6 130.8,109.6 130.9,109.6 130.9,109.6 130.9,109.6 131,109.6 
			131,109.6 131,109.6 131.1,109.6 131.1,109.6 131.1,109.6 131.2,109.6 131.2,109.6 131.2,109.6 131.2,109.6 131.3,109.6 
			131.3,109.6 131.3,109.6 131.4,109.6 		"/>
		<polygon class="st16" points="127,80.2 127.4,80.6 127.4,80.6 127.3,81.1 126.9,81.4 126.9,81.4 126.9,81.5 126.8,81.5 
			126.8,81.5 126.8,81.5 126.7,81.5 126.7,81.5 126.6,81.5 126.6,81.5 126.6,81.5 126.5,81.6 126.5,81.6 126.5,81.6 126.4,81.6 
			126.4,81.6 126.4,81.6 126.3,81.6 126.3,81.6 126.3,81.6 126.2,81.7 126.2,81.7 126.1,81.7 126.1,81.7 126.1,81.7 126,81.7 
			126,81.7 126,81.7 125.9,81.8 125.9,81.8 125.9,81.8 125.8,81.8 125.8,81.8 125.7,81.8 125.7,81.8 125.7,81.9 125.6,81.9 
			125.6,81.9 125.6,81.9 125.5,81.9 125.5,81.9 125.5,81.9 125.4,82 125.4,82 125.4,82 125.3,82 125.3,82 125.2,82 125.2,82.1 
			125.2,82.1 125.1,82.1 125.1,82.1 125.1,82.1 125,82.1 125,82.2 125,82.2 124.9,82.2 124.9,82.2 124.8,82.2 124.8,82.2 
			124.8,82.3 124.7,82.3 124.7,82.3 124.7,82.3 124.6,82.3 124.6,82.4 124.6,82.4 124.5,82.4 124.5,82.4 124.5,82.4 124.4,82.4 
			124.4,82.5 124.3,82.5 124.3,82.5 124.3,82.5 124.2,82.5 124.2,82.6 124.2,82.6 124.1,82.6 124,82.7 124,82.7 123.9,82.7 
			123.8,82.8 123.7,82.8 123.7,82.9 123.6,82.9 123.5,83 123.5,83 123.4,83.1 123.3,83.1 123.3,83.1 123.2,83.2 123.1,83.2 
			123.1,83.3 123,83.3 122.9,83.4 122.9,83.4 122.8,83.5 122.7,83.5 122.6,83.6 122.6,83.6 122.5,83.7 122.4,83.7 122.4,83.8 
			122.3,83.8 122.2,83.9 122.2,83.9 122.1,84 122,84 122,84.1 121.9,84.1 121.9,84.2 121.8,84.2 121.7,84.3 121.7,84.4 121.6,84.4 
			121.5,84.5 121.5,84.5 121.4,84.6 121.3,84.6 121.3,84.7 121.2,84.8 121.2,84.8 121.1,84.9 121,84.9 121,85 120.9,85 120.9,85.1 
			120.8,85.2 120.7,85.2 120.7,85.3 120.6,85.3 120.6,85.4 120.5,85.5 120.4,85.5 120.4,85.6 120.3,85.6 120.3,85.7 120.2,85.8 
			120.2,85.8 120.1,85.9 120,86 120,86 119.9,86.1 119.9,86.1 119.8,86.2 119.8,86.3 119.7,86.3 119.7,86.4 119.6,86.5 119.6,86.5 
			119.5,86.6 119.5,86.7 119.4,86.7 119.4,86.8 119.3,86.8 119.3,86.9 119.2,87 119.2,87 119.1,87.1 119.1,87.2 119,87.2 119,87.3 
			118.9,87.4 118.9,87.4 118.8,87.5 118.8,87.6 118.7,87.6 118.7,87.6 118.5,87.8 118.3,87.8 118.3,87.8 118.1,87.5 118.1,87.3 
			118.2,87.2 118.2,87.1 118.3,87.1 118.3,87 118.4,86.9 118.4,86.8 118.5,86.8 118.5,86.7 118.5,86.6 118.6,86.6 118.6,86.5 
			118.7,86.4 118.7,86.3 118.8,86.3 118.8,86.2 118.9,86.1 118.9,86.1 119,86 119,85.9 119.1,85.8 119.1,85.8 119.2,85.7 
			119.2,85.6 119.3,85.6 119.4,85.5 119.4,85.4 119.5,85.4 119.5,85.3 119.6,85.2 119.6,85.1 119.7,85.1 119.7,85 119.8,84.9 
			119.8,84.9 119.9,84.8 120,84.7 120,84.7 120.1,84.6 120.1,84.5 120.2,84.5 120.3,84.4 120.3,84.3 120.4,84.3 120.4,84.2 
			120.5,84.1 120.6,84.1 120.6,84 120.7,84 120.7,83.9 120.8,83.8 120.9,83.8 120.9,83.7 121,83.6 121.1,83.6 121.1,83.5 
			121.2,83.5 121.3,83.4 121.3,83.3 121.4,83.3 121.5,83.2 121.5,83.2 121.6,83.1 121.7,83 121.7,83 121.8,82.9 121.9,82.9 
			121.9,82.8 122,82.7 122.1,82.7 122.1,82.6 122.2,82.6 122.3,82.5 122.3,82.5 122.4,82.4 122.5,82.4 122.6,82.3 122.6,82.2 
			122.7,82.2 122.8,82.1 122.8,82.1 122.9,82 123,82 123.1,81.9 123.1,81.9 123.2,81.8 123.3,81.8 123.3,81.7 123.4,81.7 
			123.5,81.6 123.6,81.6 123.6,81.6 123.6,81.5 123.7,81.5 123.7,81.5 123.7,81.5 123.8,81.4 123.8,81.4 123.9,81.4 123.9,81.4 
			123.9,81.3 124,81.3 124,81.3 124,81.3 124.1,81.3 124.1,81.2 124.2,81.2 124.2,81.2 124.2,81.2 124.3,81.1 124.3,81.1 
			124.3,81.1 124.4,81.1 124.4,81.1 124.5,81 124.5,81 124.5,81 124.6,81 124.6,81 124.7,80.9 124.7,80.9 124.7,80.9 124.8,80.9 
			124.8,80.9 124.8,80.8 124.9,80.8 124.9,80.8 125,80.8 125,80.8 125,80.7 125.1,80.7 125.1,80.7 125.2,80.7 125.2,80.7 
			125.2,80.6 125.3,80.6 125.3,80.6 125.4,80.6 125.4,80.6 125.4,80.6 125.5,80.5 125.5,80.5 125.6,80.5 125.6,80.5 125.6,80.5 
			125.7,80.5 125.7,80.4 125.7,80.4 125.8,80.4 125.8,80.4 125.9,80.4 125.9,80.4 125.9,80.3 126,80.3 126,80.3 126.1,80.3 
			126.1,80.3 126.1,80.3 126.2,80.3 126.2,80.2 126.3,80.2 126.3,80.2 126.3,80.2 126.4,80.2 126.4,80.2 126.5,80.2 126.5,80.1 
			126.5,80.1 		"/>
		<polygon class="st16" points="135.1,79.9 135.2,79.9 135.2,79.9 135.2,79.9 135.3,80 135.3,80 135.4,80 135.4,80 135.5,80 
			135.5,80 135.5,80.1 135.6,80.1 135.6,80.1 135.7,80.1 135.7,80.1 135.8,80.1 135.8,80.2 135.8,80.2 135.9,80.2 135.9,80.2 
			136,80.2 136,80.2 136,80.3 136.1,80.3 136.1,80.3 136.2,80.3 136.2,80.3 136.3,80.4 136.3,80.4 136.3,80.4 136.4,80.4 
			136.4,80.4 136.5,80.5 136.5,80.5 136.5,80.5 136.6,80.5 136.6,80.6 136.7,80.6 136.7,80.6 136.7,80.6 136.8,80.6 136.8,80.7 
			136.9,80.7 136.9,80.7 136.9,80.7 137,80.8 137,80.8 137.1,80.8 137.1,80.8 137.2,80.8 137.2,80.9 137.2,80.9 137.3,80.9 
			137.3,80.9 137.4,81 137.4,81 137.4,81 137.5,81 137.5,81.1 137.6,81.1 137.6,81.1 137.6,81.1 137.7,81.2 137.7,81.2 137.7,81.2 
			137.8,81.2 137.8,81.3 137.9,81.3 137.9,81.3 137.9,81.4 138,81.4 138,81.4 138.1,81.4 138.1,81.5 138.1,81.5 138.2,81.5 
			138.2,81.5 138.3,81.6 138.3,81.6 138.3,81.6 138.4,81.7 138.4,81.7 138.5,81.7 138.5,81.7 138.5,81.8 138.6,81.8 138.6,81.8 
			138.6,81.9 138.7,81.9 138.7,81.9 138.8,81.9 138.8,82 138.9,82.1 139,82.1 139.1,82.2 139.1,82.2 139.2,82.3 139.3,82.4 
			139.4,82.4 139.4,82.5 139.5,82.6 139.6,82.6 139.6,82.7 139.7,82.7 139.8,82.8 139.9,82.9 139.9,82.9 140,83 140.1,83.1 
			140.1,83.1 140.2,83.2 140.3,83.3 140.4,83.3 140.4,83.4 140.5,83.5 140.6,83.5 140.6,83.6 140.7,83.7 140.8,83.7 140.8,83.8 
			140.9,83.9 141,83.9 141,84 141.1,84.1 141.2,84.1 141.2,84.2 141.3,84.3 141.4,84.3 141.4,84.4 141.5,84.5 141.5,84.6 
			141.6,84.6 141.7,84.7 141.7,84.8 141.8,84.8 141.9,84.9 141.9,85 142,85 142,85.1 142.1,85.2 142.1,85.2 142.2,85.3 142.3,85.4 
			142.3,85.4 142.4,85.5 142.4,85.6 142.5,85.7 142.5,85.7 142.6,85.8 142.6,85.9 142.7,85.9 142.8,86 142.8,86.1 142.9,86.1 
			142.9,86.2 143,86.3 143,86.3 143.1,86.4 143.1,86.5 143.2,86.5 143.2,86.6 143.3,86.7 143.3,86.7 143.3,86.8 143.4,86.9 
			143.4,86.9 143.5,87 143.5,87 143.6,87.1 143.6,87.2 143.7,87.2 143.7,87.3 143.7,87.4 143.8,87.4 143.8,87.4 143.8,87.7 
			143.7,87.9 143.7,87.9 143.4,88 143.2,87.8 143.2,87.8 143.2,87.8 143.1,87.7 143.1,87.6 143,87.6 143,87.5 142.9,87.5 
			142.9,87.4 142.9,87.4 142.8,87.3 142.8,87.2 142.7,87.2 142.7,87.1 142.6,87.1 142.6,87 142.5,86.9 142.5,86.9 142.4,86.8 
			142.4,86.7 142.3,86.7 142.2,86.6 142.2,86.6 142.1,86.5 142.1,86.4 142,86.4 142,86.3 141.9,86.3 141.9,86.2 141.8,86.1 
			141.7,86.1 141.7,86 141.6,85.9 141.6,85.9 141.5,85.8 141.5,85.7 141.4,85.7 141.3,85.6 141.3,85.6 141.2,85.5 141.1,85.4 
			141.1,85.4 141,85.3 141,85.2 140.9,85.2 140.8,85.1 140.8,85.1 140.7,85 140.6,84.9 140.6,84.9 140.5,84.8 140.4,84.7 
			140.4,84.7 140.3,84.6 140.2,84.6 140.2,84.5 140.1,84.4 140,84.4 140,84.3 139.9,84.3 139.8,84.2 139.8,84.1 139.7,84.1 
			139.6,84 139.5,84 139.5,83.9 139.4,83.8 139.3,83.8 139.3,83.7 139.2,83.7 139.1,83.6 139,83.6 139,83.5 138.9,83.4 138.8,83.4 
			138.8,83.3 138.7,83.3 138.6,83.2 138.5,83.2 138.5,83.1 138.4,83.1 138.3,83 138.2,83 138.2,82.9 138.1,82.9 138.1,82.8 
			138,82.8 138,82.8 137.9,82.8 137.9,82.7 137.9,82.7 137.8,82.7 137.8,82.7 137.8,82.6 137.7,82.6 137.7,82.6 137.6,82.6 
			137.6,82.5 137.6,82.5 137.5,82.5 137.5,82.5 137.5,82.4 137.4,82.4 137.4,82.4 137.3,82.4 137.3,82.4 137.3,82.3 137.2,82.3 
			137.2,82.3 137.2,82.3 137.1,82.2 137.1,82.2 137,82.2 137,82.2 137,82.2 136.9,82.1 136.9,82.1 136.9,82.1 136.8,82.1 
			136.8,82.1 136.7,82 136.7,82 136.7,82 136.6,82 136.6,82 136.5,81.9 136.5,81.9 136.5,81.9 136.4,81.9 136.4,81.9 136.4,81.8 
			136.3,81.8 136.3,81.8 136.2,81.8 136.2,81.8 136.2,81.7 136.1,81.7 136.1,81.7 136.1,81.7 136,81.7 136,81.7 135.9,81.6 
			135.9,81.6 135.9,81.6 135.8,81.6 135.8,81.6 135.8,81.6 135.7,81.6 135.7,81.5 135.6,81.5 135.6,81.5 135.6,81.5 135.5,81.5 
			135.5,81.5 135.5,81.4 135.4,81.4 135.4,81.4 135.4,81.4 135.3,81.4 135.3,81.4 135.2,81.4 135.2,81.4 135.2,81.3 135.1,81.3 
			135.1,81.3 135.1,81.3 135,81.3 135,81.3 134.9,81.3 134.9,81.3 134.9,81.3 134.8,81.2 134.8,81.2 134.8,81.2 134.7,81.2 
			134.7,81.2 134.3,80.9 134.3,80.4 134.3,80.4 134.6,80 135.1,79.9 		"/>
		<path class="st14" d="M151.6,77.2c0,1.8-0.6,3.2-2.6,3.7"/>
		<path class="st17" d="M128.2,61.9c0,0,3.5-2.4,10.9,0.1c7.4,2.4,7.3,5.3,12.2,7.4c4.9,2.1,6,2.7,7.4,6.7c1.4,4,0.6,4,1.4,6.3
			c0.8,2.3,1.8,2.8,1.1,7c-0.7,4.3-0.9,4.4-1.8,7.5c-0.9,3,0.1,4.6-2.9,8.3c-0.9,1-1.4,1.8-1.7,2.6c-0.9,1.8-0.8,2.8-2.7,5.1
			c-4,4.8-7.3,4.9-7.3,4.9c4.7-5.2,6.2-8.1,7.1-17c6.5-3.8,3.1-9.8-0.6-6.9c0.6-1.8,0.5-3-0.1-5.7c-0.7-3.2-3.2-3.4-2.3-7.4
			c-6.8,0.2-10-2.6-9.8-5.9c-7.2-2-11.4-4.1-10.6-8.2L128.2,61.9z"/>
		<path class="st14" d="M128.2,61.9c0,0,3.5-2.4,10.9,0.1c7.4,2.4,7.3,5.3,12.2,7.4c4.9,2.1,6,2.7,7.4,6.7c1.4,4,0.6,4,1.4,6.3
			c0.8,2.3,1.8,2.8,1.1,7c-0.7,4.3-0.9,4.4-1.8,7.5c-0.9,3,0.1,4.6-2.9,8.3c-0.9,1-1.4,1.8-1.7,2.6c-0.9,1.8-0.8,2.8-2.7,5.1
			c-4,4.8-7.3,4.9-7.3,4.9c4.7-5.2,6.2-8.1,7.1-17c6.5-3.8,3.1-9.8-0.6-6.9c0.6-1.8,0.5-3-0.1-5.7c-0.7-3.2-3.2-3.4-2.3-7.4
			c-6.8,0.2-10-2.6-9.8-5.9c-7.2-2-11.4-4.1-10.6-8.2L128.2,61.9z"/>
		<path class="st17" d="M128.4,62l0.2,4.8l-2.7,3.3c1.2,4.5-2.8,7.3-7.8,10c-1.4,0.8-4,0.6-4.4,2.9c0,0-2.3-1.2-3.2,0.1
			c-1.1,1.6-0.4,2.5-0.2,3.8c-2,2.1-1.6,4.9-0.3,7.1c-2.2-1.7-3.2-0.6-3.7,0.1c-1.2,1.6,0.4,6.2,4.2,6.4c-0.3,8.5,2.6,13.7,5.3,16.2
			c-2,0.8-6.9-2.2-7.8-6.9c-0.6-2.8-5.3-3.2-4-10.4c0.3-1.7-2.2-2.2-1.5-5.5c-1.4-4.9-1.7-9.5,0.5-11.6c-1-3.6,1.5-8.2,8.2-12.9
			C113.5,62.9,123.4,59.5,128.4,62"/>
		<path class="st14" d="M128.4,62l0.2,4.8l-2.7,3.3c1.2,4.5-2.8,7.3-7.8,10c-1.4,0.8-4,0.6-4.4,2.9c0,0-2.3-1.2-3.2,0.1
			c-1.1,1.6-0.4,2.5-0.2,3.8c-2,2.1-1.6,4.9-0.3,7.1c-2.2-1.7-3.2-0.6-3.7,0.1c-1.2,1.6,0.4,6.2,4.2,6.4c-0.3,8.5,2.6,13.7,5.3,16.2
			c-2,0.8-6.9-2.2-7.8-6.9c-0.6-2.8-5.3-3.2-4-10.4c0.3-1.7-2.2-2.2-1.5-5.5c-1.4-4.9-1.7-9.5,0.5-11.6c-1-3.6,1.5-8.2,8.2-12.9
			C113.5,62.9,123.4,59.5,128.4,62z"/>
		<path class="st14" d="M128.6,63.6c0,0-8.8,4.6-6.2,5C124.9,69.1,128.6,63.6,128.6,63.6z"/>
		<path class="st14" d="M128.6,63c-1.8-0.9-8.8,0.2-7.7,1.3C122,65.5,128.1,63.1,128.6,63z"/>
		<path class="st14" d="M128.6,62.9c0,0,11,3,10.6,1.6c-0.3-1.1-3.1-1.8-5.7-1.9C131,62.5,128.6,62.9,128.6,62.9z"/>
		<path class="st14" d="M128.6,63.6c0,0,8.7,8.4,8.5,5.8C136.9,66.8,128.6,63.6,128.6,63.6z"/>
		<path class="st14" d="M98.6,138.4c0.5,3.7,1.2,4.3,1.8,4.5l-0.4,13.5"/>
		<path class="st14" d="M161.9,137.4c-0.1,2.6-1.2,3.8-2.2,4.5l0.2,12.4"/>
		<line class="st14" x1="122" y1="122.1" x2="123.2" y2="126.9"/>
		<line class="st14" x1="140.2" y1="122.2" x2="139" y2="126.7"/>
		<path class="st14" d="M84.6,177.5c1.5,0,4.5,1.5,5.9,3.7"/>
		<path class="st14" d="M174.9,176.2c-1.5,0-4.5,1.4-6,3.6"/>
		<path class="st14" d="M84.9,176.6c0.9-0.3,3.1-0.2,4.5,0.9"/>
		<path class="st14" d="M174.6,175.3c-0.9-0.3-3.1-0.2-4.5,0.8"/>
	</g>
</g>
<path class="st18" d="M127.6,238.1c2.8,0.9,8.4,0.8,11.2-0.3"/>
<path class="st18" d="M105.5,224.4c0.3,9.6,1,19.1,1.8,28.5"/>
<path class="st18" d="M160.2,225c-0.3,9.5-1.4,18.5-2.2,27.9"/>
<line class="st18" x1="133.2" y1="239.6" x2="134.1" y2="252.9"/>
</svg>
