<?xml version="1.0" encoding="utf-8"?>
<!-- Generator: Adobe Illustrator 22.1.0, SVG Export Plug-In . SVG Version: 6.00 Build 0)  -->
<svg version="1.1" id="Слой_1" xmlns="http://www.w3.org/2000/svg" xmlns:xlink="http://www.w3.org/1999/xlink" x="0px" y="0px"
	 viewBox="0 0 283.5 283.5" style="enable-background:new 0 0 283.5 283.5;" xml:space="preserve">
<style type="text/css">
	.st0{clip-path:url(#SVGID_2_);fill-rule:evenodd;clip-rule:evenodd;fill:#EB5D11;}
	
		.st1{clip-path:url(#SVGID_2_);fill:none;stroke:#12100B;stroke-width:0.85;stroke-linecap:round;stroke-linejoin:round;stroke-miterlimit:10;}
	.st2{clip-path:url(#SVGID_4_);fill-rule:evenodd;clip-rule:evenodd;fill:#FFFFFF;}
	.st3{clip-path:url(#SVGID_4_);fill:none;stroke:#12100B;stroke-linecap:round;stroke-linejoin:round;stroke-miterlimit:10;}
	.st4{clip-path:url(#SVGID_6_);fill:none;stroke:#12100B;stroke-linecap:round;stroke-linejoin:round;stroke-miterlimit:10;}
	.st5{clip-path:url(#SVGID_6_);fill-rule:evenodd;clip-rule:evenodd;fill:#12100B;}
	.st6{clip-path:url(#SVGID_6_);fill-rule:evenodd;clip-rule:evenodd;fill:#FFFFFF;}
	
		.st7{clip-path:url(#SVGID_6_);fill:none;stroke:#12100B;stroke-width:0.85;stroke-linecap:round;stroke-linejoin:round;stroke-miterlimit:10;}
	.st8{clip-path:url(#SVGID_8_);fill-rule:evenodd;clip-rule:evenodd;fill:#12100B;}
	.st9{clip-path:url(#SVGID_8_);fill-rule:evenodd;clip-rule:evenodd;fill:#FFFFFF;}
	.st10{clip-path:url(#SVGID_10_);fill:none;stroke:#12100B;stroke-linecap:round;stroke-linejoin:round;stroke-miterlimit:10;}
	.st11{clip-path:url(#SVGID_12_);fill-rule:evenodd;clip-rule:evenodd;fill:#12100B;}
	.st12{clip-path:url(#SVGID_12_);fill-rule:evenodd;clip-rule:evenodd;fill:#FFFFFF;}
	.st13{clip-path:url(#SVGID_14_);fill:none;stroke:#12100B;stroke-linecap:round;stroke-linejoin:round;stroke-miterlimit:10;}
	
		.st14{clip-path:url(#SVGID_14_);fill:none;stroke:#12100B;stroke-width:0.75;stroke-linecap:round;stroke-linejoin:round;stroke-miterlimit:10;}
	
		.st15{clip-path:url(#SVGID_14_);fill:none;stroke:#12100B;stroke-width:0.85;stroke-linecap:round;stroke-linejoin:round;stroke-miterlimit:10;}
	.st16{clip-path:url(#SVGID_14_);fill-rule:evenodd;clip-rule:evenodd;fill:#12100B;}
	.st17{clip-path:url(#SVGID_14_);fill-rule:evenodd;clip-rule:evenodd;fill:#FFFFFF;}
</style>
<g>
	<defs>
		<rect id="SVGID_1_" width="283.5" height="283.5"/>
	</defs>
	<clipPath id="SVGID_2_">
		<use xlink:href="#SVGID_1_"  style="overflow:visible;"/>
	</clipPath>
	<path class="st0" d="M133.8,116l0.2-8.6c8.4,0.3,15.7,0.4,22.3,0.5l0,8.6c0,0.1,31,4.5,40.7,13.1c12.1,10.8,17.5,99.2,10.2,105.6
		c-6.6,5.8-16.9-5.4-16.9-5.4l0.8,37.4c-1.5,3.3-11.2,8.2-21.7,5.2c-6.9-2-10.9,2.2-17.3,2.2c-3.7,0-11.9-3.8-19.3-2.6
		c-17.6,3-24.7-1.3-29.4-7l1.5-35c0,0-13.7,10.6-20.6,5.7c-4.3-3-2.6-28.4,0.1-53c2.7-24.9,6.7-47.6,13.9-53.2
		C111.6,118.9,133.7,116,133.8,116"/>
	<path class="st1" d="M133.8,116l0.2-8.6c8.4,0.3,15.7,0.4,22.3,0.5l0,8.6c0,0.1,31,4.5,40.7,13.1c12.1,10.8,17.5,99.2,10.2,105.6
		c-6.6,5.8-16.9-5.4-16.9-5.4l0.8,37.4c-1.5,3.3-11.2,8.2-21.7,5.2c-6.9-2-10.9,2.2-17.3,2.2c-3.7,0-11.9-3.8-19.3-2.6
		c-17.6,3-24.7-1.3-29.4-7l1.5-35c0,0-13.7,10.6-20.6,5.7c-4.3-3-2.6-28.4,0.1-53c2.7-24.9,6.7-47.6,13.9-53.2
		C111.6,118.9,133.7,116,133.8,116z"/>
</g>
<g>
	<defs>
		<path id="SVGID_3_" d="M133.8,116c0,0-22.2,2.9-35.7,13.5c-7.2,5.6-11.1,28.3-13.9,53.2c-2.7,24.6-4.4,49.9-0.1,53
			c6.9,4.9,20.6-5.7,20.6-5.7l-1.5,35c4.8,5.7,11.8,10,29.4,7c7.5-1.3,15.7,2.6,19.3,2.6c2.6,0,4.8-0.7,6.9-1.4
			c3.2-1,6.3-2,10.4-0.8c10.5,3.1,20.2-1.9,21.7-5.2l-0.8-37.4c0,0,10.3,11.2,16.9,5.4c7.3-6.4,1.9-94.8-10.2-105.6
			c-9.7-8.6-40.7-13-40.7-13.1l0-8.6c-6.7-0.1-14-0.2-22.3-0.5L133.8,116z"/>
	</defs>
	<clipPath id="SVGID_4_">
		<use xlink:href="#SVGID_3_"  style="overflow:visible;"/>
	</clipPath>
	<path class="st2" d="M146.1,88.7c11.9,0,21.6,9.1,21.6,20.3c0,11.2-9.7,20.3-21.6,20.3c-11.9,0-21.6-9.1-21.6-20.3
		C124.5,97.8,134.1,88.7,146.1,88.7"/>
	<path class="st3" d="M146.1,88.7c11.9,0,21.6,9.1,21.6,20.3c0,11.2-9.7,20.3-21.6,20.3c-11.9,0-21.6-9.1-21.6-20.3
		C124.5,97.8,134.1,88.7,146.1,88.7z"/>
</g>
<g>
	<defs>
		<rect id="SVGID_5_" width="283.5" height="283.5"/>
	</defs>
	<clipPath id="SVGID_6_">
		<use xlink:href="#SVGID_5_"  style="overflow:visible;"/>
	</clipPath>
	<path class="st4" d="M133.8,116l0.2-8.6c8.4,0.3,15.7,0.4,22.3,0.5l0,8.6c0,0.1,31,4.5,40.7,13.1c12.1,10.8,17.5,99.2,10.2,105.6
		c-6.6,5.8-16.9-5.4-16.9-5.4l0.8,37.4c-1.5,3.3-11.2,8.2-21.7,5.2c-6.9-2-10.9,2.2-17.3,2.2c-3.7,0-11.9-3.8-19.3-2.6
		c-17.6,3-24.7-1.3-29.4-7l1.5-35c0,0-13.7,10.6-20.6,5.7c-4.3-3-2.6-28.4,0.1-53c2.7-24.9,6.7-47.6,13.9-53.2
		C111.6,118.9,133.7,116,133.8,116z"/>
	<polygon class="st5" points="104.2,154.8 104.3,155 104.3,155 104.3,155.1 104.3,155.1 104.3,155.1 104.3,155.2 104.3,155.2 
		104.3,155.2 104.3,155.3 104.4,155.3 104.4,155.4 104.4,155.4 104.4,155.4 104.4,155.5 104.4,155.5 104.4,155.6 104.4,155.6 
		104.4,155.6 104.4,155.7 104.5,155.7 104.5,155.8 104.5,155.8 104.5,155.8 104.5,155.9 104.5,155.9 104.5,156 104.5,156 104.6,156 
		104.6,156.1 104.6,156.1 104.6,156.2 104.6,156.2 104.6,156.3 104.6,156.3 104.7,156.3 104.7,156.4 104.7,156.4 104.7,156.5 
		104.7,156.5 104.7,156.5 104.8,156.6 104.8,156.6 104.8,156.7 104.8,156.7 104.8,156.8 104.9,156.8 104.9,156.8 104.9,156.9 
		104.9,156.9 104.9,157 104.9,157 105,157.1 105,157.1 105,157.1 105,157.2 105.1,157.2 105.1,157.3 105.1,157.3 105.1,157.4 
		105.1,157.4 105.2,157.4 105.2,157.5 105.2,157.5 105.2,157.6 105.2,157.6 105.3,157.6 105.3,157.7 105.3,157.7 105.3,157.8 
		105.4,157.8 105.4,157.9 105.4,157.9 105.4,157.9 105.5,158 105.5,158 105.5,158.1 105.5,158.1 105.6,158.1 105.6,158.2 
		105.6,158.2 105.6,158.2 105.6,158.3 105.7,158.3 105.7,158.4 105.7,158.4 105.8,158.4 105.8,158.5 105.8,158.5 105.8,158.6 
		105.9,158.6 105.9,158.6 105.9,158.7 105.9,158.7 106,158.7 106,158.8 106,158.8 106,158.8 106.1,158.9 106.1,158.9 106.1,158.9 
		106.1,159 106.2,159 106.2,159 106.2,159.1 106.3,159.1 106.3,159.1 106.3,159.2 106.3,159.2 106.4,159.2 106.4,159.2 106.4,159.3 
		106.4,159.3 106.5,159.3 106.5,159.4 106.5,159.4 106.5,159.4 106.6,159.4 106.6,159.5 106.6,159.5 106.7,159.5 106.7,159.5 
		106.7,159.6 106.7,159.6 106.8,159.6 106.8,159.6 106.8,159.7 106.8,159.7 106.9,159.7 106.9,159.7 106.9,159.7 107,159.8 
		107,159.8 107,159.9 107,159.9 107.1,160 107.1,160 106,201.2 106,201.2 105.8,201.4 105.4,201.5 105.4,201.5 105.1,201.4 
		104.9,201.2 104.9,201.2 106.4,160.2 106.4,160.1 106.3,160.1 106.3,160.1 106.3,160.1 106.2,160 106.2,160 106.2,160 106.1,160 
		106.1,159.9 106.1,159.9 106,159.9 106,159.8 106,159.8 106,159.8 105.9,159.7 105.9,159.7 105.9,159.7 105.8,159.6 105.8,159.6 
		105.8,159.6 105.7,159.5 105.7,159.5 105.7,159.5 105.7,159.4 105.6,159.4 105.6,159.3 105.6,159.3 105.5,159.3 105.5,159.2 
		105.5,159.2 105.5,159.2 105.4,159.1 105.4,159.1 105.4,159 105.3,159 105.3,159 105.3,158.9 105.3,158.9 105.2,158.8 105.2,158.8 
		105.2,158.8 105.2,158.7 105.1,158.7 105.1,158.6 105.1,158.6 105,158.6 105,158.5 105,158.5 105,158.4 104.9,158.4 104.9,158.3 
		104.9,158.3 104.9,158.3 104.8,158.2 104.8,158.2 104.8,158.1 104.8,158.1 104.7,158 104.7,158 104.7,158 104.7,157.9 104.6,157.9 
		104.6,157.8 104.6,157.8 104.6,157.7 104.6,157.7 104.5,157.6 104.5,157.6 104.5,157.6 104.5,157.5 104.4,157.5 104.4,157.4 
		104.4,157.4 104.4,157.3 104.4,157.3 104.3,157.2 104.3,157.2 104.3,157.1 104.3,157.1 104.3,157.1 104.2,157 104.2,157 
		104.2,156.9 104.2,156.9 104.2,156.8 104.2,156.8 104.1,156.7 104.1,156.7 104.1,156.6 104.1,156.6 104.1,156.6 104.1,156.5 
		104,156.5 104,156.4 104,156.4 104,156.3 104,156.3 104,156.2 103.9,156.2 103.9,156.2 103.9,156.1 103.9,156.1 103.9,156 
		103.9,156 103.9,155.9 103.8,155.9 103.8,155.8 103.8,155.8 103.8,155.8 103.8,155.7 103.8,155.7 103.8,155.6 103.8,155.6 
		103.8,155.5 103.7,155.5 103.7,155.5 103.7,155.4 103.7,155.4 103.7,155.3 103.7,155.3 103.7,155.3 103.7,155.2 103.7,155.2 
		103.7,155.1 103.7,155.1 103.7,154.9 103.9,154.8 103.9,154.8 	"/>
	<polygon class="st5" points="191.3,154.1 191.5,154.2 191.5,154.5 191.5,154.5 191.5,154.5 191.5,154.6 191.5,154.6 191.5,154.6 
		191.5,154.7 191.5,154.7 191.5,154.8 191.5,154.8 191.5,154.9 191.5,154.9 191.5,154.9 191.4,155 191.4,155 191.4,155.1 
		191.4,155.1 191.4,155.1 191.4,155.2 191.4,155.2 191.4,155.3 191.4,155.3 191.3,155.4 191.3,155.4 191.3,155.5 191.3,155.5 
		191.3,155.5 191.3,155.6 191.3,155.6 191.2,155.7 191.2,155.7 191.2,155.8 191.2,155.8 191.2,155.9 191.2,155.9 191.1,156 
		191.1,156 191.1,156 191.1,156.1 191.1,156.1 191.1,156.2 191,156.2 191,156.3 191,156.3 191,156.4 191,156.4 190.9,156.4 
		190.9,156.5 190.9,156.5 190.9,156.6 190.9,156.6 190.8,156.7 190.8,156.7 190.8,156.8 190.8,156.8 190.8,156.9 190.7,156.9 
		190.7,156.9 190.7,157 190.7,157 190.6,157.1 190.6,157.1 190.6,157.2 190.6,157.2 190.5,157.3 190.5,157.3 190.5,157.3 
		190.5,157.4 190.5,157.4 190.4,157.5 190.4,157.5 190.4,157.6 190.4,157.6 190.3,157.7 190.3,157.7 190.3,157.7 190.3,157.8 
		190.2,157.8 190.2,157.9 190.2,157.9 190.2,157.9 190.1,158 190.1,158 190.1,158.1 190,158.1 190,158.2 190,158.2 190,158.2 
		189.9,158.3 189.9,158.3 189.9,158.4 189.9,158.4 189.8,158.4 189.8,158.5 189.8,158.5 189.7,158.5 189.7,158.6 189.7,158.6 
		189.7,158.7 189.6,158.7 189.6,158.7 189.6,158.8 189.5,158.8 189.5,158.8 189.5,158.9 189.4,158.9 189.4,158.9 189.4,159 
		189.4,159 189.3,159 189.3,159.1 189.3,159.1 189.2,159.1 189.2,159.2 189.2,159.2 189.1,159.2 189.1,159.3 189.1,159.3 189,159.3 
		189,159.4 189,159.4 189,159.4 188.9,159.4 188.9,159.5 188.9,159.5 188.8,159.5 190.1,206.9 190.1,207 190,207.2 189.6,207.3 
		189.6,207.3 189.3,207.2 189.1,207 189.1,207 188.2,159.4 188.2,159.3 188.2,159.3 188.2,159.2 188.2,159.2 188.3,159.1 
		188.3,159.1 188.3,159.1 188.4,159 188.4,159 188.4,159 188.4,159 188.5,159 188.5,158.9 188.5,158.9 188.5,158.9 188.6,158.9 
		188.6,158.8 188.6,158.8 188.7,158.8 188.7,158.8 188.7,158.7 188.7,158.7 188.8,158.7 188.8,158.7 188.8,158.6 188.8,158.6 
		188.9,158.6 188.9,158.5 188.9,158.5 188.9,158.5 189,158.4 189,158.4 189,158.4 189.1,158.4 189.1,158.3 189.1,158.3 189.1,158.3 
		189.2,158.2 189.2,158.2 189.2,158.2 189.2,158.1 189.3,158.1 189.3,158 189.3,158 189.3,158 189.4,157.9 189.4,157.9 189.4,157.9 
		189.5,157.8 189.5,157.8 189.5,157.8 189.5,157.7 189.6,157.7 189.6,157.6 189.6,157.6 189.6,157.6 189.7,157.5 189.7,157.5 
		189.7,157.4 189.7,157.4 189.7,157.4 189.8,157.3 189.8,157.3 189.8,157.2 189.8,157.2 189.9,157.2 189.9,157.1 189.9,157.1 
		189.9,157 190,157 190,157 190,156.9 190,156.9 190,156.8 190.1,156.8 190.1,156.7 190.1,156.7 190.1,156.7 190.2,156.6 
		190.2,156.6 190.2,156.5 190.2,156.5 190.2,156.4 190.3,156.4 190.3,156.4 190.3,156.3 190.3,156.3 190.3,156.2 190.4,156.2 
		190.4,156.2 190.4,156.1 190.4,156.1 190.4,156 190.4,156 190.5,155.9 190.5,155.9 190.5,155.9 190.5,155.8 190.5,155.8 
		190.5,155.7 190.6,155.7 190.6,155.6 190.6,155.6 190.6,155.6 190.6,155.5 190.6,155.5 190.7,155.4 190.7,155.4 190.7,155.3 
		190.7,155.3 190.7,155.3 190.7,155.2 190.7,155.2 190.7,155.1 190.8,155.1 190.8,155.1 190.8,155 190.8,155 190.8,154.9 
		190.8,154.9 190.8,154.9 190.8,154.8 190.8,154.8 190.9,154.7 190.9,154.7 190.9,154.7 190.9,154.6 190.9,154.6 190.9,154.6 
		190.9,154.5 190.9,154.5 190.9,154.4 190.9,154.4 190.9,154.4 191.1,154.2 191.3,154.1 	"/>
	<polygon class="st5" points="191.3,206.1 191.4,206.1 191.4,206.1 191.4,206.1 191.5,206.1 191.5,206.1 191.6,206.2 191.6,206.2 
		191.6,206.2 191.7,206.2 191.7,206.2 191.8,206.2 191.8,206.2 191.8,206.2 191.9,206.2 191.9,206.2 192,206.2 192,206.2 192,206.2 
		192.1,206.2 192.1,206.2 192.2,206.2 192.2,206.2 192.2,206.2 192.3,206.2 192.3,206.2 192.4,206.2 192.4,206.2 192.4,206.3 
		192.5,206.3 192.5,206.3 192.6,206.3 192.6,206.3 192.7,206.3 192.7,206.3 192.7,206.3 192.8,206.3 192.8,206.3 192.9,206.3 
		192.9,206.3 192.9,206.4 193,206.4 193,206.4 193.1,206.4 193.1,206.4 193.2,206.4 193.2,206.4 193.2,206.4 193.3,206.5 
		193.4,206.5 193.5,206.5 193.6,206.5 193.7,206.6 193.8,206.6 193.8,206.6 193.9,206.6 194,206.7 194.1,206.7 194.2,206.7 
		194.3,206.8 194.4,206.8 194.4,206.8 194.5,206.9 194.6,206.9 194.7,206.9 194.8,207 194.9,207 194.9,207 195,207.1 195.1,207.1 
		195.2,207.2 195.3,207.2 195.4,207.2 195.5,207.3 195.5,207.3 195.6,207.4 195.7,207.4 195.8,207.4 195.9,207.5 195.9,207.5 
		196,207.6 196.1,207.6 196.2,207.7 196.3,207.7 196.3,207.8 196.4,207.8 196.5,207.9 196.6,207.9 196.6,208 196.7,208 196.8,208.1 
		196.9,208.1 196.9,208.2 197,208.2 197.1,208.2 197.1,208.3 197.1,208.3 197.2,208.3 197.2,208.3 197.2,208.4 197.3,208.4 
		197.3,208.4 197.3,208.4 197.4,208.5 197.4,208.5 197.4,208.5 197.5,208.5 197.5,208.6 197.5,208.6 197.6,208.6 197.6,208.6 
		197.6,208.7 197.7,208.7 197.7,208.7 197.7,208.8 197.8,208.8 197.8,208.8 197.8,208.8 197.9,208.9 197.9,208.9 197.9,208.9 
		198,209 198,209 198,209 198,209 198.1,209.1 198.1,209.1 198.1,209.1 198.2,209.1 198.2,209.2 198.2,209.2 198.2,209.2 
		198.3,209.3 198.3,209.3 198.3,209.3 198.4,209.3 198.4,209.4 198.4,209.4 198.4,209.4 198.5,209.5 198.5,209.5 198.5,209.5 
		198.5,209.6 198.6,209.6 198.6,209.6 198.6,209.6 198.6,209.7 198.7,209.7 198.7,209.7 198.7,209.8 198.7,209.8 198.7,209.8 
		198.8,209.8 198.8,209.9 198.8,209.9 198.8,209.9 198.9,210 198.9,210 198.9,210 198.9,210.1 198.9,210.1 198.9,210.1 199,210.1 
		199,210.2 199,210.2 199,210.2 199,210.3 199.1,210.3 199.1,210.3 199.1,210.4 199.1,210.4 199.1,210.4 199.1,210.4 199.1,210.5 
		199.2,210.5 199.2,210.5 199.1,210.8 198.9,210.7 198.9,210.7 198.8,210.6 198.8,210.6 198.8,210.6 198.8,210.5 198.8,210.5 
		198.8,210.5 198.8,210.5 198.7,210.4 198.7,210.4 198.7,210.4 198.7,210.4 198.7,210.3 198.7,210.3 198.6,210.3 198.6,210.3 
		198.6,210.2 198.6,210.2 198.6,210.2 198.5,210.2 198.5,210.1 198.5,210.1 198.5,210.1 198.4,210.1 198.4,210 198.4,210 198.4,210 
		198.4,209.9 198.3,209.9 198.3,209.9 198.3,209.9 198.3,209.8 198.2,209.8 198.2,209.8 198.2,209.8 198.2,209.7 198.1,209.7 
		198.1,209.7 198.1,209.7 198.1,209.6 198,209.6 198,209.6 198,209.6 198,209.5 197.9,209.5 197.9,209.5 197.9,209.5 197.8,209.4 
		197.8,209.4 197.8,209.4 197.8,209.4 197.7,209.3 197.7,209.3 197.7,209.3 197.6,209.3 197.6,209.2 197.6,209.2 197.5,209.2 
		197.5,209.2 197.5,209.2 197.4,209.1 197.4,209.1 197.4,209.1 197.3,209.1 197.3,209 197.3,209 197.2,209 197.2,209 197.2,208.9 
		197.1,208.9 197.1,208.9 197.1,208.9 197,208.8 197,208.8 197,208.8 196.9,208.8 196.9,208.8 196.9,208.7 196.8,208.7 196.8,208.7 
		196.8,208.7 196.7,208.6 196.7,208.6 196.6,208.6 196.5,208.5 196.4,208.5 196.4,208.4 196.3,208.4 196.2,208.4 196.1,208.3 
		196.1,208.3 196,208.2 195.9,208.2 195.8,208.2 195.7,208.1 195.7,208.1 195.6,208 195.5,208 195.4,208 195.3,207.9 195.3,207.9 
		195.2,207.9 195.1,207.8 195,207.8 194.9,207.8 194.9,207.7 194.8,207.7 194.7,207.7 194.6,207.7 194.5,207.6 194.4,207.6 
		194.4,207.6 194.3,207.5 194.2,207.5 194.1,207.5 194,207.5 193.9,207.4 193.9,207.4 193.8,207.4 193.7,207.4 193.6,207.3 
		193.5,207.3 193.5,207.3 193.4,207.3 193.3,207.3 193.2,207.3 193.1,207.2 193.1,207.2 193,207.2 193,207.2 192.9,207.2 
		192.9,207.2 192.9,207.2 192.8,207.2 192.8,207.2 192.7,207.2 192.7,207.2 192.7,207.1 192.6,207.1 192.6,207.1 192.5,207.1 
		192.5,207.1 192.5,207.1 192.4,207.1 192.4,207.1 192.4,207.1 192.3,207.1 192.3,207.1 192.2,207.1 192.2,207.1 192.2,207.1 
		192.1,207.1 192.1,207.1 192.1,207.1 192,207.1 192,207.1 192,207.1 191.9,207.1 191.9,207.1 191.8,207.1 191.8,207.1 191.8,207.1 
		191.7,207.1 191.7,207.1 191.7,207.1 191.6,207.1 191.6,207.1 191.6,207.1 191.5,207.1 191.5,207.1 191.5,207.1 191.4,207.1 
		191.4,207.1 191.4,207.1 191.3,207.1 191.3,207.1 191.3,207.1 191.2,207.1 191.2,207.1 191.2,207.1 191.2,207.1 191.1,207.1 
		191.1,207.1 191.1,207.1 191,207.1 191,207.1 191,207.1 191,207.1 190.9,207.1 190.9,207.1 190.9,207.1 190.8,207.1 190.8,207.1 
		190.8,207.1 190.8,207.2 190.7,207.2 190.7,207.2 190.7,207.2 190.7,207.2 190.6,207.2 190.6,207.2 190.6,207.2 190.6,207.2 
		190.5,207.2 190.5,207.2 190.5,207.2 190.5,207.2 190.4,207.3 190.4,207.3 190.4,207.3 190.4,207.3 190,207.3 189.8,207 189.8,207 
		189.8,206.6 190.1,206.3 190.1,206.3 190.1,206.3 190.1,206.3 190.2,206.3 190.2,206.3 190.2,206.3 190.3,206.3 190.3,206.3 
		190.3,206.2 190.4,206.2 190.4,206.2 190.4,206.2 190.5,206.2 190.5,206.2 190.5,206.2 190.6,206.2 190.6,206.2 190.6,206.2 
		190.7,206.2 190.7,206.2 190.8,206.2 190.8,206.2 190.8,206.2 190.9,206.2 190.9,206.2 190.9,206.2 191,206.2 191,206.2 
		191.1,206.1 191.1,206.1 191.1,206.1 191.2,206.1 191.2,206.1 191.2,206.1 191.3,206.1 	"/>
	<polygon class="st5" points="95,208.2 95,208.2 95.1,208.2 95.2,208.2 95.2,208.2 95.4,208.4 95.2,208.5 95.2,208.5 95.1,208.5 
		95,208.5 95,208.5 94.9,208.5 94.9,208.5 94.8,208.6 94.7,208.6 94.7,208.6 94.6,208.6 94.5,208.6 94.5,208.6 94.4,208.6 
		94.4,208.6 94.3,208.6 94.2,208.6 94.2,208.6 94.1,208.7 94,208.7 94,208.7 93.9,208.7 93.8,208.7 93.8,208.7 93.7,208.7 
		93.6,208.7 93.6,208.8 93.5,208.8 93.4,208.8 93.4,208.8 93.3,208.8 93.2,208.8 93.2,208.8 93.1,208.9 93.1,208.9 93,208.9 
		92.9,208.9 92.9,208.9 92.8,209 92.7,209 92.7,209 92.6,209 92.5,209 92.5,209.1 92.4,209.1 92.3,209.1 92.3,209.1 92.2,209.1 
		92.2,209.2 92.1,209.2 92,209.2 92,209.2 91.9,209.3 91.8,209.3 91.8,209.3 91.7,209.3 91.7,209.4 91.6,209.4 91.5,209.4 
		91.5,209.4 91.4,209.5 91.3,209.5 91.3,209.5 91.2,209.5 91.2,209.6 91.1,209.6 91.1,209.6 91,209.6 90.9,209.7 90.9,209.7 
		90.8,209.7 90.8,209.8 90.7,209.8 90.7,209.8 90.6,209.8 90.5,209.9 90.5,209.9 90.4,209.9 90.4,210 90.3,210 90.3,210 90.2,210.1 
		90.2,210.1 90.1,210.1 90.1,210.2 90,210.2 90,210.2 89.9,210.2 89.9,210.3 89.8,210.3 89.8,210.3 89.7,210.4 89.7,210.4 
		89.6,210.4 89.6,210.5 89.6,210.5 89.5,210.5 89.5,210.6 89.4,210.6 89.4,210.6 89.4,210.7 89.3,210.7 89.3,210.7 89.2,210.8 
		89.2,210.8 89.2,210.8 89.1,210.9 89.1,210.9 89.1,210.9 89,211 89,211 89,211 88.9,211.1 88.9,211.1 88.9,211.1 88.8,211.2 
		88.8,211.2 88.8,211.2 88.8,211.3 88.8,211.3 88.7,211.3 88.7,211.3 88.7,211.3 88.7,211.4 88.7,211.4 88.7,211.4 88.7,211.4 
		88.7,211.4 88.7,211.4 88.6,211.5 88.6,211.5 88.6,211.5 88.6,211.5 88.6,211.5 88.6,211.5 88.6,211.5 88.6,211.6 88.6,211.6 
		88.6,211.6 88.6,211.6 88.3,211.8 87.9,211.8 87.9,211.8 87.6,211.5 87.7,211.1 87.7,211.1 87.7,211.1 87.7,211 87.7,211 87.8,211 
		87.8,211 87.8,211 87.8,210.9 87.8,210.9 87.8,210.9 87.9,210.9 87.9,210.8 87.9,210.8 87.9,210.8 87.9,210.8 87.9,210.8 88,210.7 
		88,210.7 88,210.7 88,210.7 88,210.7 88.1,210.6 88.1,210.6 88.1,210.5 88.2,210.5 88.2,210.5 88.3,210.4 88.3,210.4 88.4,210.3 
		88.4,210.3 88.4,210.3 88.5,210.2 88.5,210.2 88.6,210.1 88.6,210.1 88.7,210.1 88.7,210 88.8,210 88.8,210 88.9,209.9 88.9,209.9 
		89,209.9 89,209.8 89.1,209.8 89.1,209.8 89.2,209.7 89.2,209.7 89.3,209.7 89.3,209.6 89.4,209.6 89.4,209.6 89.5,209.5 
		89.6,209.5 89.6,209.5 89.7,209.5 89.7,209.4 89.8,209.4 89.9,209.4 89.9,209.3 90,209.3 90,209.3 90.1,209.3 90.2,209.2 
		90.2,209.2 90.3,209.2 90.3,209.1 90.4,209.1 90.5,209.1 90.5,209.1 90.6,209 90.7,209 90.7,209 90.8,209 90.8,208.9 90.9,208.9 
		91,208.9 91,208.9 91.1,208.9 91.2,208.8 91.2,208.8 91.3,208.8 91.4,208.8 91.4,208.7 91.5,208.7 91.6,208.7 91.6,208.7 
		91.7,208.7 91.8,208.6 91.8,208.6 91.9,208.6 92,208.6 92,208.6 92.1,208.6 92.2,208.5 92.3,208.5 92.3,208.5 92.4,208.5 
		92.5,208.5 92.5,208.5 92.6,208.4 92.7,208.4 92.7,208.4 92.8,208.4 92.9,208.4 92.9,208.4 93,208.4 93.1,208.4 93.1,208.3 
		93.2,208.3 93.3,208.3 93.4,208.3 93.4,208.3 93.5,208.3 93.6,208.3 93.6,208.3 93.7,208.3 93.8,208.3 93.8,208.3 93.9,208.2 
		94,208.2 94,208.2 94.1,208.2 94.2,208.2 94.2,208.2 94.3,208.2 94.4,208.2 94.4,208.2 94.5,208.2 94.6,208.2 94.6,208.2 
		94.7,208.2 94.8,208.2 94.8,208.2 94.9,208.2 	"/>
	<polygon class="st5" points="134.2,115.7 134.2,115.7 134.2,115.7 134.2,115.8 134.3,115.8 134.3,115.8 134.3,115.9 134.3,115.9 
		134.3,115.9 134.4,116 134.4,116 134.4,116 134.4,116.1 134.5,116.1 134.5,116.1 134.5,116.2 134.5,116.2 134.6,116.2 134.6,116.3 
		134.6,116.3 134.6,116.3 134.7,116.4 134.7,116.4 134.7,116.4 134.7,116.5 134.8,116.5 134.8,116.5 134.8,116.6 134.8,116.6 
		134.9,116.6 134.9,116.7 134.9,116.7 135,116.7 135,116.8 135,116.8 135,116.8 135.1,116.8 135.1,116.9 135.1,116.9 135.2,116.9 
		135.2,117 135.2,117 135.2,117 135.3,117 135.3,117.1 135.3,117.1 135.4,117.1 135.4,117.2 135.4,117.2 135.5,117.2 135.5,117.2 
		135.5,117.3 135.6,117.3 135.6,117.3 135.6,117.3 135.7,117.4 135.7,117.4 135.7,117.4 135.8,117.4 135.8,117.5 135.8,117.5 
		135.9,117.5 135.9,117.5 135.9,117.6 136,117.6 136,117.6 136,117.6 136.1,117.7 136.1,117.7 136.2,117.7 136.2,117.7 136.2,117.7 
		136.3,117.8 136.3,117.8 136.3,117.8 136.4,117.8 136.4,117.8 136.5,117.9 136.5,117.9 136.5,117.9 136.6,117.9 136.6,117.9 
		136.6,118 136.7,118 136.7,118 136.8,118 136.8,118 136.8,118.1 136.9,118.1 136.9,118.1 137,118.1 137,118.1 137,118.1 
		137.1,118.2 137.1,118.2 137.2,118.2 137.2,118.2 137.2,118.2 137.3,118.2 137.3,118.3 137.4,118.3 137.4,118.3 137.5,118.3 
		137.5,118.3 137.5,118.3 137.6,118.3 137.6,118.4 137.7,118.4 137.7,118.4 137.8,118.4 137.8,118.4 137.8,118.4 137.9,118.4 
		137.9,118.4 138,118.4 138,118.5 138.1,118.5 138.1,118.5 138.1,118.5 138.2,118.5 138.2,118.5 138.3,118.5 138.3,118.5 
		138.4,118.5 138.4,118.5 138.4,118.6 138.5,118.6 138.5,118.6 138.6,118.6 138.6,118.6 138.8,118.8 138.6,118.9 138.5,118.9 
		138.5,118.9 138.5,118.9 138.4,118.9 138.4,118.9 138.3,118.9 138.3,118.9 138.2,118.9 138.2,118.9 138.1,118.9 138.1,118.9 
		138,118.9 138,118.9 137.9,118.9 137.9,118.8 137.8,118.8 137.8,118.8 137.7,118.8 137.7,118.8 137.7,118.8 137.6,118.8 
		137.6,118.8 137.5,118.8 137.5,118.8 137.4,118.8 137.4,118.8 137.3,118.8 137.3,118.7 137.2,118.7 137.2,118.7 137.1,118.7 
		137.1,118.7 137.1,118.7 137,118.7 137,118.7 136.9,118.7 136.9,118.6 136.8,118.6 136.8,118.6 136.7,118.6 136.7,118.6 
		136.6,118.6 136.6,118.6 136.6,118.5 136.5,118.5 136.5,118.5 136.4,118.5 136.4,118.5 136.3,118.5 136.3,118.4 136.2,118.4 
		136.2,118.4 136.2,118.4 136.1,118.4 136.1,118.4 136,118.3 136,118.3 135.9,118.3 135.9,118.3 135.9,118.3 135.8,118.2 
		135.8,118.2 135.7,118.2 135.7,118.2 135.6,118.2 135.6,118.1 135.6,118.1 135.5,118.1 135.5,118.1 135.4,118.1 135.4,118 
		135.4,118 135.3,118 135.3,118 135.2,117.9 135.2,117.9 135.1,117.9 135.1,117.9 135.1,117.8 135,117.8 135,117.8 134.9,117.8 
		134.9,117.7 134.9,117.7 134.8,117.7 134.8,117.7 134.8,117.6 134.7,117.6 134.7,117.6 134.6,117.5 134.6,117.5 134.6,117.5 
		134.5,117.5 134.5,117.4 134.5,117.4 134.4,117.4 134.4,117.3 134.3,117.3 134.3,117.3 134.3,117.2 134.2,117.2 134.2,117.2 
		134.2,117.1 134.1,117.1 134.1,117.1 134.1,117 134,117 134,117 134,116.9 133.9,116.9 133.9,116.9 133.9,116.8 133.8,116.8 
		133.8,116.8 133.8,116.7 133.7,116.7 133.7,116.7 133.7,116.6 133.6,116.6 133.6,116.5 133.6,116.5 133.5,116.5 133.5,116.4 
		133.5,116.4 133.4,116.4 133.4,116.3 133.4,116.3 133.4,116.2 133.4,116.2 133.3,115.9 133.5,115.5 133.5,115.5 133.9,115.5 	"/>
	<path class="st6" d="M144.3,23.6c14.1,0,32.4,9.2,35.8,22.6c0.6,2.4,4.9,14.2,1.9,26.2c-1.1,4.2-4.8,5.7-6.5,10
		c-1.9,4.8-3.9,9.2-7.1,13.6c-5.8,7.8-13.8,15-22.7,15.3c-8.2,0.2-19.8-7.7-24.9-15.3c-3.9-5.8-12.2-19.6-13.8-28.6
		c-0.8-4.4,3.4-4.9,3.4-8.5C110.4,36,123.9,23.6,144.3,23.6"/>
	<path class="st4" d="M144.3,23.6c14.1,0,32.4,9.2,35.8,22.6c0.6,2.4,4.9,14.2,1.9,26.2c-1.1,4.2-4.8,5.7-6.5,10
		c-1.9,4.8-3.9,9.2-7.1,13.6c-5.8,7.8-13.8,15-22.7,15.3c-8.2,0.2-19.8-7.7-24.9-15.3c-3.9-5.8-12.2-19.6-13.8-28.6
		c-0.8-4.4,3.4-4.9,3.4-8.5C110.4,36,123.9,23.6,144.3,23.6z"/>
	<path class="st7" d="M147.4,79.7c4.6-0.6,5.2-3.3,2.9-4.9"/>
	<polygon class="st5" points="138.9,76.9 138.9,76.9 138.9,76.9 138.8,77 138.8,77 138.8,77.1 138.8,77.1 138.8,77.1 138.8,77.2 
		138.8,77.2 138.8,77.3 138.8,77.3 138.8,77.3 138.8,77.4 138.8,77.4 138.8,77.5 138.7,77.5 138.7,77.5 138.7,77.6 138.7,77.6 
		138.7,77.7 138.7,77.7 138.7,77.8 138.7,77.8 138.6,77.8 138.6,77.9 138.6,77.9 138.6,77.9 138.6,78 138.6,78 138.6,78 138.6,78.1 
		138.5,78.1 138.5,78.2 138.5,78.2 138.5,78.2 138.5,78.2 138.5,78.3 138.4,78.3 138.4,78.4 138.4,78.4 138.4,78.4 138.4,78.5 
		138.3,78.5 138.3,78.5 138.3,78.5 138.3,78.6 138.3,78.6 138.3,78.6 138.2,78.7 138.2,78.7 138.2,78.7 138.2,78.8 138.1,78.8 
		138.1,78.8 138.1,78.8 138.1,78.9 138.1,78.9 138.1,78.9 138,78.9 138,79 138,79 138,79 138,79.1 137.9,79.1 137.9,79.1 
		137.9,79.1 137.9,79.1 137.8,79.2 137.8,79.2 137.8,79.2 137.8,79.2 137.7,79.2 137.7,79.3 137.7,79.3 137.7,79.3 137.7,79.3 
		137.6,79.3 137.6,79.4 137.6,79.4 137.5,79.4 137.5,79.4 137.5,79.5 137.4,79.5 137.4,79.5 137.4,79.5 137.4,79.5 137.4,79.5 
		137.3,79.6 137.3,79.6 137.3,79.6 137.2,79.6 137.2,79.6 137.2,79.6 137.1,79.7 137.1,79.7 137.1,79.7 137.1,79.7 137.1,79.7 
		137,79.7 137,79.7 137,79.8 136.9,79.8 136.9,79.8 136.9,79.8 136.8,79.8 136.8,79.8 136.8,79.8 136.7,79.9 136.7,79.9 136.7,79.9 
		136.7,79.9 136.7,79.9 136.6,79.9 136.6,79.9 136.6,79.9 136.5,79.9 136.5,79.9 136.5,79.9 136.4,80 136.4,80 136.4,80 136.4,80 
		136.3,80 136.3,80 136.3,80 136.2,80 136.2,80 136.2,80 136.2,80 136.1,80 136.1,80 136.1,80 136.1,80 136.1,80 136,80.1 136,80.1 
		136,80.1 135.9,80.1 135.9,80.1 135.9,80.1 135.9,80.1 135.9,80.1 135.8,80.1 135.6,79.9 135.7,79.7 135.8,79.7 135.8,79.7 
		135.8,79.7 135.8,79.7 135.8,79.7 135.9,79.6 135.9,79.6 135.9,79.6 135.9,79.6 135.9,79.6 136,79.6 136,79.6 136,79.6 136,79.5 
		136,79.5 136.1,79.5 136.1,79.5 136.1,79.5 136.1,79.5 136.1,79.4 136.2,79.4 136.2,79.4 136.2,79.4 136.2,79.4 136.2,79.4 
		136.3,79.4 136.3,79.3 136.3,79.3 136.3,79.3 136.3,79.3 136.4,79.3 136.4,79.3 136.4,79.2 136.4,79.2 136.4,79.2 136.4,79.2 
		136.5,79.2 136.5,79.2 136.5,79.1 136.5,79.1 136.5,79.1 136.6,79.1 136.6,79 136.6,79 136.6,79 136.7,79 136.7,79 136.7,79 
		136.7,78.9 136.7,78.9 136.8,78.9 136.8,78.9 136.8,78.8 136.8,78.8 136.8,78.8 136.8,78.8 136.9,78.8 136.9,78.8 136.9,78.7 
		136.9,78.7 136.9,78.7 137,78.7 137,78.6 137,78.6 137,78.6 137,78.6 137,78.6 137.1,78.5 137.1,78.5 137.1,78.5 137.1,78.5 
		137.1,78.5 137.2,78.4 137.2,78.4 137.2,78.4 137.2,78.4 137.2,78.4 137.3,78.3 137.3,78.3 137.3,78.3 137.3,78.3 137.3,78.2 
		137.4,78.2 137.4,78.2 137.4,78.2 137.4,78.1 137.5,78.1 137.5,78.1 137.5,78.1 137.5,78 137.5,78 137.6,78 137.6,78 137.6,77.9 
		137.6,77.9 137.7,77.9 137.7,77.9 137.7,77.8 137.7,77.8 137.8,77.8 137.8,77.8 137.8,77.7 137.8,77.7 137.9,77.7 137.9,77.6 
		137.9,77.6 137.9,77.6 137.9,77.6 138,77.5 138,77.5 138,77.5 138,77.4 138.1,77.4 138.1,77.4 138.1,77.3 138.1,77.3 138.2,77.3 
		138.2,77.2 138.2,77.2 138.2,77.2 138.3,77.1 138.3,77.1 138.3,77.1 138.3,77.1 138.3,77 138.3,77 138.4,77 138.4,76.9 138.4,76.9 
		138.4,76.9 138.5,76.8 138.5,76.8 138.5,76.8 138.7,76.6 	"/>
	<polygon class="st5" points="152.7,77 152.9,77.2 152.9,77.2 152.9,77.2 152.9,77.3 153,77.3 153,77.3 153,77.4 153,77.4 153,77.4 
		153,77.5 153.1,77.5 153.1,77.6 153.1,77.6 153.1,77.7 153.2,77.7 153.2,77.7 153.2,77.8 153.2,77.8 153.2,77.8 153.3,77.9 
		153.3,77.9 153.3,78 153.3,78 153.4,78 153.4,78 153.4,78.1 153.4,78.1 153.4,78.1 153.4,78.1 153.4,78.1 153.4,78.1 153.4,78.2 
		153.5,78.2 153.5,78.2 153.5,78.2 153.5,78.2 153.5,78.3 153.5,78.3 153.6,78.3 153.6,78.3 153.6,78.3 153.6,78.3 153.6,78.4 
		153.6,78.4 153.6,78.4 153.6,78.4 153.7,78.4 153.7,78.4 153.7,78.5 153.7,78.5 153.7,78.5 153.7,78.5 153.7,78.5 153.7,78.5 
		153.8,78.6 153.8,78.6 153.8,78.6 153.8,78.6 153.8,78.6 153.8,78.6 153.8,78.7 153.9,78.7 153.9,78.7 153.9,78.7 153.9,78.7 
		153.9,78.8 153.9,78.8 153.9,78.8 154,78.8 154,78.8 154,78.8 154,78.8 154,78.9 154,78.9 154,78.9 154.1,78.9 154.1,78.9 
		154.1,79 154.1,79 154.1,79 154.1,79 154.1,79 154.2,79.1 154.2,79.1 154.2,79.1 154.2,79.1 154.2,79.1 154.3,79.2 154.3,79.2 
		154.3,79.2 154.3,79.2 154.3,79.2 154.3,79.3 154.4,79.3 154.4,79.3 154.4,79.3 154.4,79.4 154.5,79.4 154.5,79.4 154.5,79.4 
		154.5,79.4 154.5,79.5 154.6,79.5 154.6,79.5 154.6,79.5 154.6,79.5 154.7,79.6 154.7,79.6 154.7,79.6 154.7,79.6 154.8,79.7 
		154.8,79.7 154.8,79.7 154.8,79.7 154.9,79.7 154.9,79.8 154.9,79.8 155,79.8 155,79.8 155,79.9 155.1,79.9 155.1,79.9 155.1,79.9 
		155.1,79.9 155.2,80.2 155,80.3 155,80.3 154.9,80.3 154.9,80.3 154.8,80.3 154.8,80.3 154.8,80.3 154.7,80.2 154.7,80.2 
		154.6,80.2 154.6,80.2 154.6,80.2 154.5,80.2 154.5,80.2 154.5,80.2 154.4,80.2 154.4,80.2 154.3,80.1 154.3,80.1 154.3,80.1 
		154.2,80.1 154.2,80.1 154.1,80.1 154.1,80.1 154.1,80 154,80 154,80 154,80 154,80 153.9,80 153.9,79.9 153.8,79.9 153.8,79.9 
		153.8,79.9 153.8,79.9 153.7,79.9 153.7,79.9 153.7,79.8 153.6,79.8 153.6,79.8 153.6,79.8 153.5,79.7 153.5,79.7 153.5,79.7 
		153.5,79.7 153.5,79.7 153.4,79.7 153.4,79.6 153.4,79.6 153.3,79.6 153.3,79.6 153.3,79.5 153.3,79.5 153.3,79.5 153.2,79.5 
		153.2,79.5 153.2,79.4 153.2,79.4 153.2,79.4 153.1,79.4 153.1,79.4 153.1,79.3 153.1,79.3 153.1,79.3 153,79.2 153,79.2 153,79.2 
		153,79.2 153,79.2 153,79.1 152.9,79.1 152.9,79.1 152.9,79 152.9,79 152.9,79 152.9,79 152.9,79 152.8,78.9 152.8,78.9 
		152.8,78.9 152.8,78.8 152.8,78.8 152.8,78.8 152.8,78.7 152.8,78.7 152.8,78.7 152.7,78.7 152.7,78.7 152.7,78.6 152.7,78.6 
		152.7,78.6 152.7,78.5 152.7,78.5 152.7,78.5 152.7,78.5 152.7,78.4 152.6,78.4 152.6,78.4 152.6,78.4 152.6,78.3 152.6,78.3 
		152.6,78.3 152.6,78.2 152.6,78.2 152.6,78.1 152.6,78 152.6,78 152.6,78 152.6,77.9 152.6,77.9 152.6,77.8 152.5,77.8 152.5,77.7 
		152.5,77.7 152.5,77.6 152.5,77.6 152.5,77.5 152.5,77.5 152.5,77.5 152.5,77.4 152.5,77.4 152.5,77.3 152.5,77.3 152.5,77.3 	"/>
</g>
<g>
	<defs>
		<path id="SVGID_7_" d="M126,66.4c4.7,0.7,9.1,0.7,13.3,0.1c-0.1-1.6-2.4-3.5-2.4-3.5c-2.3-0.3-3.8-0.2-4.9-0.9
			C132,62,125,63.1,126,66.4"/>
	</defs>
	<clipPath id="SVGID_8_">
		<use xlink:href="#SVGID_7_"  style="overflow:visible;"/>
	</clipPath>
	<path class="st8" d="M132.7,61.9c1.9,0,3.4,1.4,3.4,3c0,1.7-1.5,3-3.4,3c-1.9,0-3.4-1.4-3.4-3C129.2,63.2,130.8,61.9,132.7,61.9"/>
	<path class="st9" d="M134.4,63.4c0.4,0,0.7,0.3,0.7,0.6c0,0.3-0.3,0.6-0.7,0.6c-0.4,0-0.7-0.3-0.7-0.6
		C133.8,63.7,134.1,63.4,134.4,63.4"/>
</g>
<g>
	<defs>
		<rect id="SVGID_9_" width="283.5" height="283.5"/>
	</defs>
	<clipPath id="SVGID_10_">
		<use xlink:href="#SVGID_9_"  style="overflow:visible;"/>
	</clipPath>
	<path class="st10" d="M126,66.4c4.7,0.7,9.1,0.7,13.3,0.1c-0.1-1.6-2.4-3.5-2.4-3.5c-2.3-0.3-3.8-0.2-4.9-0.9
		C132,62,125,63.1,126,66.4z"/>
</g>
<g>
	<defs>
		<path id="SVGID_11_" d="M152.7,62.9c0,0-1.3,1.4-1.5,3.6c4.1,0.6,8.4,0.7,13-0.1c0.6-3.8-7.1-4.3-7.1-4.3L152.7,62.9z"/>
	</defs>
	<clipPath id="SVGID_12_">
		<use xlink:href="#SVGID_11_"  style="overflow:visible;"/>
	</clipPath>
	<path class="st11" d="M157.3,61.9c1.9,0,3.4,1.4,3.4,3.1c0,1.7-1.5,3.1-3.4,3.1c-1.9,0-3.4-1.4-3.4-3.1
		C153.9,63.3,155.4,61.9,157.3,61.9"/>
	<path class="st12" d="M159,63.5c0.4,0,0.6,0.3,0.6,0.6c0,0.3-0.3,0.6-0.6,0.6c-0.4,0-0.6-0.3-0.6-0.6
		C158.4,63.8,158.7,63.5,159,63.5"/>
</g>
<g>
	<defs>
		<rect id="SVGID_13_" width="283.5" height="283.5"/>
	</defs>
	<clipPath id="SVGID_14_">
		<use xlink:href="#SVGID_13_"  style="overflow:visible;"/>
	</clipPath>
	<path class="st13" d="M164.2,66.4c-4.5,0.8-8.9,0.7-13,0.1c0.2-2.2,1.5-3.6,1.5-3.6l4.4-0.8C157.1,62.1,164.8,62.6,164.2,66.4z"/>
	<path class="st14" d="M143.2,103.4c1.7-1.2,3.1-0.9,4.2-0.5"/>
	<path class="st15" d="M143.9,58.3c1.5,8.7-1.5,15.8-4.1,18.1c0.3,1.9,2.5,2.9,4.2,3.2"/>
	<polygon class="st16" points="142.1,93.9 142.2,93.9 142.2,93.9 142.3,93.9 142.4,93.9 142.4,94 142.5,94 142.5,94 142.5,94 
		142.6,94 142.7,94 142.7,94.1 142.8,94.1 142.8,94.1 142.9,94.1 143,94.1 143,94.2 143.1,94.2 143.1,94.2 143.2,94.2 143.3,94.2 
		143.3,94.2 143.4,94.2 143.4,94.2 143.4,94.3 143.5,94.3 143.6,94.3 143.6,94.3 143.7,94.3 143.7,94.3 143.8,94.3 143.9,94.3 
		143.9,94.4 143.9,94.4 144,94.4 144,94.4 144.1,94.4 144.1,94.4 144.2,94.4 144.3,94.4 144.3,94.4 144.4,94.4 144.4,94.4 
		144.5,94.4 144.5,94.4 144.5,94.4 144.6,94.4 144.7,94.5 144.7,94.5 144.8,94.5 144.8,94.5 144.9,94.5 144.9,94.5 145,94.5 
		145,94.5 145.1,94.5 145.1,94.5 145.2,94.5 145.2,94.5 145.3,94.5 145.3,94.5 145.3,94.5 145.4,94.5 145.4,94.5 145.5,94.5 
		145.5,94.5 145.5,94.5 145.6,94.5 145.6,94.5 145.7,94.5 145.7,94.5 145.7,94.5 145.8,94.5 145.9,94.5 145.9,94.5 146,94.5 
		146,94.5 146,94.5 146.1,94.5 146.1,94.5 146.2,94.5 146.2,94.5 146.3,94.5 146.3,94.5 146.4,94.5 146.4,94.5 146.5,94.5 
		146.5,94.5 146.6,94.5 146.6,94.5 146.7,94.5 146.7,94.5 146.8,94.5 146.8,94.5 146.9,94.5 146.9,94.5 146.9,94.5 147,94.5 
		147,94.5 147.1,94.5 147.1,94.5 147.2,94.4 147.2,94.4 147.3,94.4 147.3,94.4 147.4,94.4 147.4,94.4 147.4,94.4 147.5,94.4 
		147.5,94.4 147.6,94.4 147.6,94.4 147.7,94.4 147.7,94.4 147.8,94.3 147.8,94.3 147.8,94.3 147.9,94.3 147.9,94.3 148,94.3 
		148,94.3 148.1,94.3 148.1,94.3 148.2,94.2 148.2,94.2 148.3,94.2 148.3,94.2 148.4,94.2 148.4,94.2 148.4,94.1 148.5,94.1 
		148.5,94.1 148.6,94.1 148.6,94.1 148.7,94.1 148.7,94 148.8,94 148.8,94 148.8,94 148.9,94 149.2,94 149.1,94.3 149.1,94.3 
		149.1,94.4 149,94.4 149,94.4 148.9,94.5 148.9,94.5 148.9,94.5 148.8,94.5 148.8,94.6 148.7,94.6 148.7,94.6 148.6,94.7 
		148.6,94.7 148.6,94.7 148.5,94.7 148.5,94.8 148.5,94.8 148.4,94.8 148.4,94.8 148.3,94.8 148.3,94.9 148.2,94.9 148.2,94.9 
		148.1,94.9 148.1,95 148,95 148,95 147.9,95 147.9,95.1 147.8,95.1 147.8,95.1 147.7,95.1 147.7,95.1 147.6,95.2 147.6,95.2 
		147.6,95.2 147.5,95.2 147.5,95.2 147.4,95.2 147.4,95.2 147.3,95.3 147.3,95.3 147.2,95.3 147.1,95.3 147.1,95.3 147.1,95.3 
		147,95.3 147,95.4 146.9,95.4 146.9,95.4 146.8,95.4 146.7,95.4 146.7,95.4 146.6,95.4 146.6,95.4 146.5,95.4 146.5,95.4 
		146.5,95.5 146.4,95.5 146.3,95.5 146.3,95.5 146.2,95.5 146.2,95.5 146.1,95.5 146,95.5 146,95.5 146,95.5 145.9,95.5 145.9,95.5 
		145.8,95.5 145.7,95.5 145.7,95.5 145.7,95.5 145.6,95.5 145.6,95.5 145.5,95.5 145.5,95.5 145.4,95.5 145.4,95.5 145.3,95.5 
		145.3,95.5 145.2,95.5 145.2,95.5 145.1,95.5 145.1,95.5 145,95.5 145,95.5 144.9,95.5 144.9,95.4 144.8,95.4 144.8,95.4 
		144.7,95.4 144.6,95.4 144.6,95.4 144.5,95.4 144.4,95.4 144.4,95.3 144.3,95.3 144.3,95.3 144.3,95.3 144.2,95.3 144.1,95.3 
		144.1,95.3 144,95.2 144,95.2 143.9,95.2 143.8,95.2 143.8,95.2 143.7,95.2 143.7,95.1 143.6,95.1 143.6,95.1 143.5,95.1 143.5,95 
		143.4,95 143.3,95 143.3,95 143.2,94.9 143.2,94.9 143.2,94.9 143.1,94.9 143,94.9 143,94.8 142.9,94.8 142.9,94.8 142.8,94.7 
		142.7,94.7 142.7,94.7 142.6,94.6 142.6,94.6 142.5,94.6 142.4,94.6 142.4,94.5 142.3,94.5 142.3,94.4 142.3,94.4 142.2,94.4 
		142.1,94.4 142.1,94.3 142,94.3 142,94.3 141.9,94.2 141.9,94.2 141.8,93.9 142.1,93.8 	"/>
	<polygon class="st16" points="145.5,86.5 145.7,86.5 145.9,86.5 146.2,86.5 146.6,86.5 146.9,86.6 147.6,86.7 148.1,86.7 
		148.1,86.7 148.2,86.9 148.1,87 148.1,87 147.6,87.1 146.9,87.1 146.5,87.1 146.2,87.2 145.8,87.2 145.7,87.2 145.5,87.2 
		145.3,87.2 145.1,87.1 144.7,87.1 144.3,87.1 143.9,87 143.2,86.9 142.9,86.9 142.9,86.9 142.8,86.7 142.9,86.6 142.9,86.6 
		143.2,86.6 143.9,86.5 144.3,86.5 144.7,86.5 145.2,86.5 145.3,86.5 	"/>
	<polygon class="st16" points="145.5,90 145.6,90 145.7,90 145.8,90 145.9,90 146,90 146.1,90 146.2,90 146.3,90 146.4,90 146.5,90 
		146.6,90 146.7,90 146.7,90 146.8,90 146.9,90 147,90.1 147.2,90.1 147.3,90.1 147.4,90.1 147.5,90.1 147.6,90.1 147.7,90.1 
		147.8,90.1 147.9,90.1 148,90.1 148.1,90.2 148.2,90.2 148.3,90.2 148.4,90.2 148.5,90.2 148.5,90.2 148.6,90.2 148.7,90.3 
		148.8,90.3 148.9,90.3 149,90.3 149.1,90.3 149.2,90.3 149.3,90.4 149.5,90.4 149.6,90.4 149.7,90.4 149.8,90.4 149.9,90.5 
		150,90.5 150.1,90.5 150.2,90.5 150.3,90.6 150.3,90.6 150.4,90.6 150.5,90.6 150.6,90.6 150.7,90.7 150.8,90.7 150.9,90.7 
		151,90.7 151.1,90.8 151.2,90.8 151.3,90.8 151.4,90.9 151.5,90.9 151.6,90.9 151.7,91 151.8,91 151.9,91 152,91.1 152.1,91.1 
		152.1,91.1 152.2,91.1 152.3,91.2 152.4,91.2 152.5,91.2 152.6,91.3 152.7,91.3 152.8,91.4 152.9,91.4 153,91.4 153.1,91.5 
		153.2,91.5 153.3,91.6 153.4,91.6 153.5,91.7 153.6,91.7 153.7,91.7 153.8,91.8 153.9,91.8 154,91.9 154.1,91.9 154.2,92 154.3,92 
		154.4,92.1 154.5,92.1 154.6,92.2 154.7,92.2 154.7,92.3 154.8,92.3 154.9,92.4 155,92.4 155.1,92.5 155.2,92.5 155.2,92.6 
		155.3,92.6 155.4,92.7 155.5,92.7 155.6,92.8 155.6,92.8 155.7,92.8 155.7,92.9 155.8,92.9 155.8,92.9 155.9,93 155.9,93 155.9,93 
		156,93 156,93.1 156.1,93.1 156.1,93.1 156.2,93.2 156.2,93.2 156.3,93.2 156.3,93.3 156.3,93.3 156.4,93.3 156.4,93.4 156.5,93.4 
		156.5,93.4 156.6,93.5 156.6,93.5 156.7,93.5 156.7,93.6 156.7,93.6 156.8,93.6 156.8,93.7 156.9,93.7 156.9,93.7 157,93.8 
		157,93.8 157,93.8 157.1,93.9 157.1,93.9 157.2,93.9 157.2,94 157.3,94 157.3,94 157.3,94.1 157.3,94.1 157.4,94.1 157.4,94.2 
		157.4,94.2 157.6,94.5 157.5,94.9 157.5,94.9 157.1,95 156.7,94.9 156.7,94.9 156.7,94.9 156.7,94.8 156.7,94.8 156.6,94.8 
		156.6,94.8 156.6,94.7 156.5,94.7 156.5,94.7 156.4,94.6 156.4,94.6 156.4,94.6 156.3,94.5 156.3,94.5 156.2,94.5 156.2,94.4 
		156.2,94.4 156.1,94.4 156.1,94.3 156.1,94.3 156,94.3 156,94.2 155.9,94.2 155.9,94.2 155.9,94.1 155.8,94.1 155.8,94.1 155.7,94 
		155.7,94 155.7,94 155.6,93.9 155.6,93.9 155.5,93.9 155.5,93.8 155.4,93.8 155.4,93.8 155.4,93.8 155.3,93.7 155.3,93.7 
		155.2,93.7 155.2,93.6 155.2,93.6 155.1,93.6 155.1,93.5 155,93.5 154.9,93.4 154.8,93.4 154.7,93.3 154.7,93.3 154.6,93.3 
		154.6,93.2 154.5,93.2 154.4,93.1 154.3,93.1 154.2,93 154.1,92.9 154,92.9 154,92.8 153.9,92.8 153.8,92.7 153.7,92.7 153.6,92.7 
		153.5,92.6 153.4,92.6 153.3,92.5 153.2,92.5 153.1,92.4 153.1,92.4 153,92.3 152.9,92.3 152.8,92.2 152.7,92.2 152.6,92.2 
		152.5,92.1 152.4,92.1 152.3,92 152.2,92 152.1,92 152,91.9 151.9,91.9 151.8,91.9 151.8,91.8 151.7,91.8 151.7,91.8 151.6,91.7 
		151.5,91.7 151.4,91.7 151.3,91.6 151.2,91.6 151.1,91.6 151,91.5 150.9,91.5 150.8,91.5 150.7,91.5 150.6,91.4 150.5,91.4 
		150.4,91.4 150.3,91.3 150.2,91.3 150.1,91.3 150.1,91.3 150,91.3 149.9,91.2 149.8,91.2 149.7,91.2 149.6,91.2 149.5,91.1 
		149.4,91.1 149.3,91.1 149.2,91.1 149.1,91.1 149,91 148.9,91 148.8,91 148.7,91 148.6,91 148.5,90.9 148.4,90.9 148.4,90.9 
		148.3,90.9 148.2,90.9 148.1,90.9 148,90.9 147.9,90.8 147.8,90.8 147.7,90.8 147.6,90.8 147.5,90.8 147.4,90.8 147.3,90.8 
		147.2,90.8 147.1,90.8 147,90.7 146.9,90.7 146.8,90.7 146.7,90.7 146.7,90.7 146.6,90.7 146.5,90.7 146.4,90.7 146.3,90.7 
		146.2,90.7 146.1,90.7 146,90.7 145.9,90.7 145.8,90.7 145.7,90.7 145.6,90.7 145.5,90.7 145.4,90.7 145.3,90.7 145.2,90.7 
		145.1,90.7 145,90.7 145,90.7 144.9,90.7 144.8,90.7 144.7,90.7 144.6,90.7 144.5,90.7 144.4,90.7 144.3,90.7 144.2,90.7 
		144.1,90.7 144,90.7 143.9,90.7 143.8,90.7 143.7,90.7 143.6,90.7 143.5,90.8 143.4,90.8 143.3,90.8 143.3,90.8 143.2,90.8 
		143.1,90.8 143,90.8 142.9,90.8 142.8,90.8 142.7,90.8 142.6,90.9 142.5,90.9 142.4,90.9 142.3,90.9 142.2,90.9 142.1,90.9 142,91 
		141.9,91 141.8,91 141.7,91 141.6,91 141.5,91 141.4,91.1 141.4,91.1 141.3,91.1 141.2,91.1 141.1,91.1 141,91.1 140.9,91.2 
		140.8,91.2 140.7,91.2 140.6,91.2 140.5,91.3 140.4,91.3 140.4,91.3 140.3,91.3 140.2,91.4 140.1,91.4 140,91.4 139.9,91.4 
		139.8,91.5 139.7,91.5 139.6,91.5 139.5,91.6 139.4,91.6 139.4,91.6 139.3,91.6 139.3,91.6 139.2,91.7 139.1,91.7 139,91.7 
		138.9,91.8 138.8,91.8 138.7,91.8 138.6,91.9 138.5,91.9 138.5,91.9 138.4,92 138.3,92 138.2,92 138.1,92.1 138,92.1 137.9,92.1 
		137.9,92.2 137.8,92.2 137.7,92.2 137.6,92.3 137.6,92.3 137.5,92.3 137.4,92.4 137.4,92.4 137.3,92.4 137.2,92.5 137.1,92.5 
		137,92.6 137,92.6 136.9,92.6 136.8,92.7 136.7,92.7 136.6,92.8 136.6,92.8 136.5,92.8 136.4,92.9 136.3,92.9 136.3,93 136.2,93 
		136.1,93.1 136,93.1 136,93.2 135.9,93.2 135.8,93.2 135.7,93.3 135.7,93.3 135.6,93.4 135.5,93.4 135.4,93.5 135.4,93.5 
		135.3,93.6 135.2,93.6 135.2,93.7 135.1,93.7 135,93.8 135,93.8 134.9,93.9 134.9,93.9 134.8,93.9 134.8,94 134.7,94 134.6,94.1 
		134.6,94.1 134.5,94.2 134.4,94.2 134.4,94.3 134.3,94.3 134.3,94.4 134.2,94.4 134.1,94.5 134.1,94.5 134,94.6 134,94.7 
		133.9,94.7 133.9,94.7 133.5,94.8 133.2,94.7 133.2,94.7 133.1,94.3 133.2,94 133.2,94 133.3,93.9 133.4,93.9 133.4,93.8 
		133.5,93.7 133.6,93.7 133.6,93.6 133.7,93.6 133.8,93.5 133.8,93.5 133.9,93.4 134,93.4 134,93.3 134.1,93.3 134.2,93.2 
		134.3,93.1 134.3,93.1 134.3,93.1 134.4,93 134.5,93 134.6,92.9 134.6,92.9 134.7,92.8 134.8,92.8 134.9,92.7 134.9,92.7 135,92.6 
		135.1,92.6 135.2,92.6 135.3,92.5 135.3,92.5 135.4,92.4 135.5,92.4 135.6,92.3 135.7,92.3 135.7,92.2 135.8,92.2 135.9,92.1 
		136,92.1 136.1,92.1 136.2,92 136.2,92 136.3,91.9 136.4,91.9 136.5,91.9 136.6,91.8 136.7,91.8 136.7,91.7 136.8,91.7 136.9,91.7 
		137,91.6 137.1,91.6 137.2,91.5 137.3,91.5 137.4,91.5 137.5,91.4 137.5,91.4 137.6,91.4 137.7,91.3 137.8,91.3 137.9,91.3 
		138,91.2 138.1,91.2 138.2,91.2 138.3,91.1 138.4,91.1 138.5,91.1 138.5,91 138.6,91 138.7,91 138.8,90.9 138.9,90.9 139,90.9 
		139.1,90.9 139.2,90.8 139.3,90.8 139.4,90.8 139.5,90.8 139.6,90.7 139.7,90.7 139.8,90.7 139.9,90.7 140,90.6 140.1,90.6 
		140.2,90.6 140.3,90.6 140.4,90.5 140.5,90.5 140.6,90.5 140.7,90.5 140.8,90.4 140.9,90.4 141,90.4 141.1,90.4 141.2,90.4 
		141.3,90.4 141.4,90.3 141.5,90.3 141.6,90.3 141.7,90.3 141.8,90.3 141.9,90.2 142,90.2 142.1,90.2 142.2,90.2 142.3,90.2 
		142.4,90.2 142.5,90.2 142.6,90.2 142.7,90.1 142.8,90.1 142.9,90.1 143,90.1 143.1,90.1 143.2,90.1 143.2,90.1 143.3,90.1 
		143.4,90.1 143.5,90.1 143.6,90.1 143.7,90 143.8,90 143.9,90 144,90 144.1,90 144.2,90 144.3,90 144.4,90 144.5,90 144.6,90 
		144.7,90 144.8,90 145,90 145,90 145.1,90 145.2,90 145.3,90 145.4,90 	"/>
	<polygon class="st16" points="141.7,62 141,62.1 140.4,62 139.8,61.7 139.8,61.7 139.8,61.6 139.7,61.6 139.7,61.6 139.6,61.5 
		139.6,61.5 139.6,61.4 139.5,61.4 139.5,61.4 139.5,61.3 139.4,61.3 139.4,61.2 139.3,61.2 139.2,61.1 139.1,61 139.1,60.9 
		139,60.9 138.9,60.8 138.8,60.7 138.7,60.7 138.7,60.6 138.6,60.5 138.5,60.4 138.4,60.4 138.4,60.3 138.3,60.2 138.2,60.2 
		138.1,60.1 138,60 137.9,60 137.9,59.9 137.8,59.9 137.7,59.8 137.6,59.7 137.5,59.7 137.4,59.6 137.4,59.5 137.3,59.5 137.2,59.4 
		137.1,59.4 137,59.3 136.9,59.2 136.8,59.2 136.8,59.1 136.7,59.1 136.6,59 136.5,58.9 136.4,58.9 136.3,58.8 136.2,58.8 
		136.1,58.7 136,58.7 135.9,58.6 135.9,58.5 135.8,58.5 135.7,58.4 135.6,58.4 135.5,58.3 135.4,58.3 135.3,58.2 135.2,58.2 
		135.1,58.1 135,58.1 134.9,58 134.8,58 134.7,57.9 134.6,57.9 134.5,57.8 134.5,57.8 134.4,57.7 134.3,57.7 134.2,57.6 134.1,57.6 
		134,57.5 133.9,57.5 133.8,57.4 133.7,57.4 133.6,57.4 133.5,57.3 133.4,57.3 133.3,57.2 133.2,57.2 133.1,57.2 133,57.1 
		132.9,57.1 132.8,57 132.7,57 132.6,57 132.5,56.9 132.4,56.9 132.3,56.8 132.2,56.8 132.1,56.8 132,56.7 131.9,56.7 131.8,56.7 
		131.7,56.6 131.6,56.6 131.5,56.6 131.4,56.5 131.3,56.5 131.2,56.5 131.1,56.4 131.1,56.4 131,56.4 130.9,56.3 130.8,56.3 
		130.7,56.3 130.6,56.3 130.5,56.2 130.4,56.2 130.3,56.2 130.2,56.2 130.1,56.1 130,56.1 129.9,56.1 129.8,56.1 129.7,56 129.6,56 
		129.5,56 129.4,56 129.3,55.9 129.2,55.9 129.1,55.9 129,55.9 128.9,55.9 128.8,55.8 128.7,55.8 128.6,55.8 128.5,55.8 128.5,55.8 
		128.4,55.8 128.3,55.7 128.2,55.7 128.2,55.7 127.6,55.4 127.4,54.8 127.4,54.8 127.7,54.2 128.3,54 128.3,54 128.4,54 128.5,54 
		128.6,54 128.7,54 128.8,54 129,54 129.1,54 129.2,54 129.3,54 129.4,54 129.5,54 129.6,54 129.7,54.1 129.8,54.1 129.9,54.1 
		130,54.1 130.1,54.1 130.2,54.1 130.3,54.1 130.5,54.1 130.6,54.2 130.7,54.2 130.8,54.2 130.9,54.2 131,54.2 131.1,54.2 
		131.2,54.2 131.3,54.3 131.4,54.3 131.6,54.3 131.7,54.3 131.8,54.3 131.9,54.4 132,54.4 132.1,54.4 132.2,54.4 132.3,54.5 
		132.4,54.5 132.6,54.5 132.7,54.5 132.8,54.6 132.9,54.6 133,54.6 133.1,54.6 133.2,54.7 133.3,54.7 133.5,54.7 133.6,54.8 
		133.7,54.8 133.8,54.8 133.9,54.8 134,54.9 134.1,54.9 134.2,54.9 134.4,55 134.5,55 134.6,55 134.7,55.1 134.8,55.1 134.9,55.2 
		135,55.2 135.1,55.2 135.3,55.3 135.4,55.3 135.5,55.3 135.6,55.4 135.7,55.4 135.8,55.5 135.9,55.5 136,55.6 136.1,55.6 
		136.3,55.6 136.4,55.7 136.5,55.7 136.6,55.8 136.7,55.8 136.8,55.9 136.9,55.9 137,56 137.1,56 137.3,56.1 137.4,56.1 137.5,56.2 
		137.6,56.2 137.7,56.3 137.8,56.3 137.9,56.4 138,56.4 138.1,56.5 138.2,56.5 138.4,56.6 138.5,56.6 138.6,56.7 138.7,56.8 
		138.8,56.8 138.9,56.9 139,56.9 139.1,57 139.2,57.1 139.3,57.1 139.4,57.2 139.5,57.2 139.6,57.3 139.7,57.4 139.9,57.4 140,57.5 
		140.1,57.6 140.2,57.6 140.3,57.7 140.4,57.8 140.5,57.8 140.6,57.9 140.7,58 140.8,58 140.9,58.1 141,58.2 141.1,58.3 141.2,58.3 
		141.3,58.4 141.4,58.5 141.5,58.5 141.6,58.6 141.7,58.7 141.7,58.7 141.8,58.8 141.8,58.8 141.9,58.9 141.9,58.9 142,58.9 142,59 
		142.1,59 142.1,59.1 142.2,59.1 142.2,59.1 142.6,59.7 142.7,60.3 142.6,61 142.3,61.6 142.3,61.6 142.3,61.6 	"/>
	<polygon class="st16" points="162.6,54 162.9,54.6 162.9,54.6 162.7,55.2 162.1,55.5 162.1,55.5 162,55.6 162,55.6 161.9,55.6 
		161.8,55.6 161.7,55.6 161.6,55.6 161.5,55.7 161.4,55.7 161.3,55.7 161.2,55.7 161.1,55.7 161,55.7 160.9,55.8 160.8,55.8 
		160.7,55.8 160.6,55.8 160.5,55.9 160.4,55.9 160.3,55.9 160.2,55.9 160.1,56 160,56 160,56 159.9,56 159.8,56.1 159.7,56.1 
		159.6,56.1 159.5,56.1 159.4,56.2 159.3,56.2 159.2,56.2 159.1,56.3 159,56.3 158.9,56.3 158.8,56.4 158.7,56.4 158.6,56.4 
		158.5,56.5 158.4,56.5 158.3,56.5 158.2,56.6 158.1,56.6 158,56.6 157.9,56.7 157.8,56.7 157.7,56.8 157.6,56.8 157.5,56.8 
		157.4,56.9 157.4,56.9 157.3,57 157.2,57 157.1,57 157,57.1 156.9,57.1 156.8,57.2 156.7,57.2 156.6,57.3 156.5,57.3 156.4,57.3 
		156.3,57.4 156.2,57.4 156.1,57.5 156,57.5 155.9,57.6 155.8,57.6 155.7,57.7 155.7,57.7 155.6,57.8 155.5,57.8 155.4,57.9 
		155.3,57.9 155.2,58 155.1,58 155,58.1 154.9,58.1 154.8,58.2 154.7,58.2 154.6,58.3 154.6,58.3 154.5,58.4 154.4,58.4 154.3,58.5 
		154.2,58.6 154.1,58.6 154,58.7 153.9,58.7 153.8,58.8 153.8,58.8 153.7,58.9 153.6,59 153.5,59 153.4,59.1 153.3,59.1 153.2,59.2 
		153.2,59.3 153.1,59.3 153,59.4 152.9,59.5 152.8,59.5 152.7,59.6 152.7,59.7 152.6,59.7 152.5,59.8 152.4,59.8 152.3,59.9 
		152.2,60 152.2,60 152.1,60.1 152,60.2 151.9,60.2 151.8,60.3 151.8,60.4 151.7,60.5 151.6,60.5 151.5,60.6 151.5,60.7 151.4,60.7 
		151.3,60.8 151.2,60.9 151.2,61 151.1,61 151,61.1 150.9,61.2 150.9,61.2 150.8,61.3 150.7,61.4 150.7,61.5 150.7,61.5 150.1,61.8 
		149.4,61.9 148.7,61.8 148.2,61.4 148.2,61.4 148.2,61.4 147.8,60.8 147.7,60.1 147.9,59.5 148.3,58.9 148.3,58.9 148.4,58.8 
		148.5,58.7 148.6,58.7 148.7,58.6 148.8,58.5 148.8,58.4 148.9,58.4 149,58.3 149.1,58.2 149.2,58.1 149.3,58.1 149.4,58 
		149.5,57.9 149.6,57.8 149.7,57.8 149.9,57.7 150,57.6 150.1,57.6 150.2,57.5 150.3,57.4 150.4,57.4 150.5,57.3 150.6,57.2 
		150.7,57.2 150.8,57.1 150.9,57 151,57 151.1,56.9 151.2,56.9 151.3,56.8 151.4,56.7 151.5,56.7 151.6,56.6 151.7,56.6 151.8,56.5 
		151.9,56.5 152.1,56.4 152.2,56.3 152.3,56.3 152.4,56.2 152.5,56.2 152.6,56.1 152.7,56.1 152.8,56 152.9,56 153,55.9 153.1,55.9 
		153.2,55.8 153.4,55.8 153.5,55.7 153.6,55.7 153.7,55.6 153.8,55.6 153.9,55.5 154,55.5 154.1,55.4 154.2,55.4 154.3,55.4 
		154.5,55.3 154.6,55.3 154.7,55.2 154.8,55.2 154.9,55.2 155,55.1 155.1,55.1 155.2,55 155.3,55 155.4,55 155.6,54.9 155.7,54.9 
		155.8,54.9 155.9,54.8 156,54.8 156.1,54.7 156.2,54.7 156.3,54.7 156.4,54.7 156.6,54.6 156.7,54.6 156.8,54.6 156.9,54.5 
		157,54.5 157.1,54.5 157.2,54.4 157.3,54.4 157.4,54.4 157.6,54.4 157.7,54.3 157.8,54.3 157.9,54.3 158,54.3 158.1,54.2 
		158.2,54.2 158.3,54.2 158.4,54.2 158.5,54.1 158.7,54.1 158.8,54.1 158.9,54.1 159,54.1 159.1,54.1 159.2,54 159.3,54 159.4,54 
		159.5,54 159.6,54 159.8,54 159.9,53.9 160,53.9 160.1,53.9 160.2,53.9 160.3,53.9 160.4,53.9 160.5,53.9 160.6,53.9 160.7,53.8 
		160.8,53.8 160.9,53.8 161,53.8 161.1,53.8 161.2,53.8 161.4,53.8 161.5,53.8 161.6,53.8 161.7,53.8 161.8,53.8 161.9,53.8 
		162,53.8 	"/>
	<polygon class="st16" points="127.6,59.3 127.6,59.3 127.7,59.4 127.8,59.4 127.8,59.4 127.9,59.5 128,59.5 128,59.5 128.1,59.6 
		128.2,59.6 128.3,59.7 128.3,59.7 128.4,59.7 128.5,59.8 128.5,59.8 128.6,59.8 128.7,59.9 128.8,59.9 128.8,60 128.9,60 129,60 
		129,60.1 129.1,60.1 129.2,60.1 129.3,60.2 129.3,60.2 129.4,60.2 129.5,60.3 129.6,60.3 129.6,60.4 129.7,60.4 129.8,60.4 
		129.9,60.5 130,60.5 130,60.5 130.1,60.6 130.2,60.6 130.3,60.6 130.3,60.7 130.4,60.7 130.5,60.7 130.6,60.8 130.7,60.8 
		130.7,60.8 130.8,60.9 130.9,60.9 131,60.9 131.1,61 131.1,61 131.2,61 131.3,61 131.4,61.1 131.5,61.1 131.6,61.1 131.6,61.2 
		131.7,61.2 131.8,61.2 131.9,61.3 132,61.3 132.1,61.3 132.1,61.3 132.2,61.4 132.3,61.4 132.4,61.4 132.5,61.5 132.6,61.5 
		132.7,61.5 132.7,61.5 132.8,61.6 132.9,61.6 133,61.6 133.1,61.6 133.2,61.7 133.3,61.7 133.4,61.7 133.5,61.7 133.5,61.8 
		133.6,61.8 133.7,61.8 133.8,61.8 133.9,61.8 134,61.9 134.1,61.9 134.2,61.9 134.3,61.9 134.4,61.9 134.5,62 134.5,62 134.6,62 
		134.7,62 134.8,62 134.9,62.1 135,62.1 135.1,62.1 135.2,62.1 135.3,62.1 135.4,62.1 135.5,62.2 135.6,62.2 135.7,62.2 135.8,62.2 
		135.9,62.2 136,62.2 136.1,62.3 136.2,62.3 136.3,62.3 136.4,62.3 136.5,62.3 136.6,62.3 136.7,62.3 136.8,62.3 136.9,62.3 
		137,62.4 137.1,62.4 137.2,62.4 137.3,62.4 137.4,62.4 137.5,62.4 137.6,62.4 137.7,62.4 137.8,62.4 137.9,62.4 138,62.4 
		138.1,62.4 138.2,62.4 138.3,62.4 138.4,62.5 138.5,62.5 138.6,62.5 138.7,62.5 138.7,62.5 139,62.6 139.2,63 139.2,63 139,63.3 
		138.7,63.5 138.7,63.5 138.6,63.5 138.4,63.5 138.3,63.4 138.2,63.4 138.1,63.4 138,63.4 137.9,63.4 137.8,63.4 137.7,63.4 
		137.6,63.4 137.5,63.4 137.4,63.4 137.3,63.4 137.2,63.4 137.1,63.3 137,63.3 136.9,63.3 136.8,63.3 136.6,63.3 136.5,63.3 
		136.4,63.3 136.3,63.3 136.2,63.2 136.1,63.2 136,63.2 135.9,63.2 135.8,63.2 135.7,63.2 135.6,63.2 135.5,63.1 135.4,63.1 
		135.3,63.1 135.2,63.1 135.1,63.1 135,63 134.9,63 134.8,63 134.7,63 134.6,63 134.5,62.9 134.4,62.9 134.4,62.9 134.3,62.9 
		134.2,62.9 134.1,62.8 134,62.8 133.9,62.8 133.8,62.8 133.7,62.7 133.6,62.7 133.5,62.7 133.4,62.7 133.3,62.6 133.2,62.6 
		133.1,62.6 133,62.6 132.9,62.5 132.8,62.5 132.8,62.5 132.7,62.4 132.6,62.4 132.5,62.4 132.4,62.4 132.3,62.3 132.2,62.3 
		132.1,62.3 132,62.2 131.9,62.2 131.9,62.2 131.8,62.2 131.7,62.1 131.6,62.1 131.5,62.1 131.4,62 131.3,62 131.3,62 131.2,61.9 
		131.1,61.9 131,61.9 130.9,61.8 130.8,61.8 130.7,61.8 130.7,61.7 130.6,61.7 130.5,61.7 130.4,61.6 130.3,61.6 130.2,61.6 
		130.2,61.5 130.1,61.5 130,61.4 129.9,61.4 129.8,61.4 129.8,61.3 129.7,61.3 129.6,61.3 129.5,61.2 129.4,61.2 129.4,61.2 
		129.3,61.1 129.2,61.1 129.1,61 129.1,61 129,61 128.9,60.9 128.8,60.9 128.7,60.8 128.7,60.8 128.6,60.8 128.5,60.7 128.4,60.7 
		128.4,60.7 128.3,60.6 128.2,60.6 128.1,60.5 128.1,60.5 128,60.5 127.9,60.4 127.9,60.4 127.8,60.3 127.7,60.3 127.6,60.3 
		127.6,60.2 127.5,60.2 127.4,60.1 127.4,60.1 127.3,60 127.2,60 127.2,60 127,59.8 127.1,59.5 127.1,59.5 127.3,59.3 	"/>
	<polygon class="st16" points="163.1,59.2 163.1,59.2 163.2,59.5 163,59.8 163,59.8 162.9,59.8 162.8,59.8 162.8,59.9 162.7,59.9 
		162.6,60 162.6,60 162.5,60.1 162.4,60.1 162.3,60.1 162.3,60.2 162.2,60.2 162.1,60.3 162.1,60.3 162,60.3 161.9,60.4 161.8,60.4 
		161.8,60.5 161.7,60.5 161.6,60.5 161.5,60.6 161.5,60.6 161.4,60.6 161.3,60.7 161.2,60.7 161.2,60.8 161.1,60.8 161,60.8 
		160.9,60.9 160.8,60.9 160.8,61 160.7,61 160.6,61 160.5,61.1 160.4,61.1 160.4,61.1 160.3,61.2 160.2,61.2 160.1,61.2 160,61.3 
		160,61.3 159.9,61.3 159.8,61.4 159.7,61.4 159.6,61.5 159.5,61.5 159.5,61.5 159.4,61.6 159.3,61.6 159.2,61.6 159.1,61.7 
		159,61.7 159,61.7 158.9,61.8 158.8,61.8 158.7,61.8 158.6,61.8 158.5,61.9 158.4,61.9 158.3,61.9 158.3,62 158.2,62 158.1,62 
		158,62.1 157.9,62.1 157.8,62.1 157.7,62.1 157.6,62.2 157.5,62.2 157.4,62.2 157.4,62.3 157.3,62.3 157.2,62.3 157.1,62.3 
		157,62.4 156.9,62.4 156.8,62.4 156.7,62.4 156.6,62.5 156.5,62.5 156.4,62.5 156.3,62.5 156.2,62.6 156.1,62.6 156,62.6 
		155.9,62.6 155.9,62.7 155.8,62.7 155.7,62.7 155.6,62.7 155.5,62.7 155.4,62.8 155.3,62.8 155.2,62.8 155.1,62.8 155,62.8 
		154.9,62.9 154.8,62.9 154.7,62.9 154.6,62.9 154.5,62.9 154.4,62.9 154.3,63 154.2,63 154.1,63 154,63 153.9,63 153.8,63 
		153.7,63 153.6,63.1 153.5,63.1 153.3,63.1 153.2,63.1 153.1,63.1 153,63.1 152.9,63.1 152.8,63.1 152.7,63.1 152.6,63.2 
		152.5,63.2 152.4,63.2 152.3,63.2 152.2,63.2 152.1,63.2 152,63.2 151.9,63.2 151.8,63.2 151.6,63.2 151.5,63.2 151.5,63.2 
		151.2,63.1 151,62.7 151,62.7 151.2,62.4 151.5,62.2 151.5,62.2 151.6,62.2 151.7,62.2 151.8,62.2 151.9,62.2 152,62.2 152.1,62.2 
		152.2,62.2 152.3,62.2 152.4,62.2 152.5,62.2 152.6,62.2 152.7,62.2 152.8,62.2 152.9,62.1 153,62.1 153.1,62.1 153.2,62.1 
		153.3,62.1 153.4,62.1 153.5,62.1 153.6,62.1 153.7,62.1 153.8,62.1 153.9,62 154,62 154.1,62 154.2,62 154.3,62 154.4,62 
		154.5,62 154.6,61.9 154.7,61.9 154.8,61.9 154.9,61.9 155,61.9 155.1,61.9 155.2,61.8 155.3,61.8 155.4,61.8 155.5,61.8 
		155.6,61.8 155.7,61.7 155.7,61.7 155.8,61.7 155.9,61.7 156,61.7 156.1,61.6 156.2,61.6 156.3,61.6 156.4,61.6 156.5,61.6 
		156.6,61.5 156.7,61.5 156.7,61.5 156.8,61.5 156.9,61.4 157,61.4 157.1,61.4 157.2,61.4 157.3,61.3 157.4,61.3 157.5,61.3 
		157.5,61.3 157.6,61.2 157.7,61.2 157.8,61.2 157.9,61.2 158,61.1 158.1,61.1 158.1,61.1 158.2,61 158.3,61 158.4,61 158.5,61 
		158.6,60.9 158.6,60.9 158.7,60.9 158.8,60.8 158.9,60.8 159,60.8 159.1,60.7 159.1,60.7 159.2,60.7 159.3,60.7 159.4,60.6 
		159.5,60.6 159.5,60.6 159.6,60.5 159.7,60.5 159.8,60.5 159.9,60.4 159.9,60.4 160,60.4 160.1,60.3 160.2,60.3 160.3,60.3 
		160.3,60.2 160.4,60.2 160.5,60.1 160.6,60.1 160.6,60.1 160.7,60 160.8,60 160.9,60 160.9,59.9 161,59.9 161.1,59.9 161.2,59.8 
		161.2,59.8 161.3,59.8 161.4,59.7 161.4,59.7 161.5,59.6 161.6,59.6 161.7,59.6 161.7,59.5 161.8,59.5 161.9,59.5 161.9,59.4 
		162,59.4 162.1,59.3 162.2,59.3 162.2,59.3 162.3,59.2 162.4,59.2 162.4,59.2 162.5,59.1 162.6,59.1 162.9,59 	"/>
	<polygon class="st16" points="145,45.1 145,45.3 144.9,45.5 144.9,45.6 144.9,45.8 144.9,46 144.9,46.2 144.9,46.3 144.9,46.5 
		144.9,46.7 144.9,46.9 144.9,47 144.9,47.2 144.9,47.4 144.8,47.6 144.8,47.8 144.8,47.9 144.8,48.1 144.8,48.3 144.8,48.5 
		144.8,48.7 144.8,48.8 144.8,49 144.8,49.2 144.8,49.4 144.8,49.6 144.8,49.7 144.8,49.9 144.8,50.1 144.8,50.3 144.8,50.5 
		144.8,50.6 144.8,50.8 144.8,51 144.8,51.2 144.8,51.4 144.8,51.5 144.8,51.7 144.8,51.9 144.8,52.1 144.8,52.2 144.8,52.4 
		144.8,52.6 144.8,52.8 144.9,52.9 144.9,53.1 144.9,53.3 144.9,53.5 144.9,53.6 144.9,53.8 144.9,54 144.9,54.1 144.9,54.3 
		144.9,54.5 145,54.6 145,54.8 145,55 145,55.1 145,55.3 145,55.4 145,55.5 145,55.5 145,55.6 145.1,55.7 145.1,55.8 145.1,55.9 
		145.1,55.9 145.1,56 145.1,56.1 145.1,56.2 145.1,56.3 145.1,56.3 145,56.5 144.8,56.7 144.8,56.7 144.8,56.7 144.5,56.6 
		144.4,56.3 144.4,56.3 144.4,56.3 144.4,56.2 144.4,56.1 144.3,56 144.3,55.9 144.3,55.9 144.3,55.8 144.3,55.7 144.3,55.6 
		144.3,55.5 144.3,55.4 144.3,55.4 144.3,55.2 144.3,55 144.3,54.9 144.3,54.7 144.3,54.5 144.2,54.3 144.2,54.2 144.2,54 
		144.2,53.8 144.2,53.7 144.2,53.5 144.2,53.3 144.2,53.1 144.2,53 144.2,52.8 144.2,52.6 144.2,52.4 144.2,52.3 144.2,52.1 
		144.2,51.9 144.2,51.7 144.2,51.5 144.2,51.4 144.2,51.2 144.2,51 144.2,50.8 144.2,50.6 144.2,50.5 144.2,50.3 144.2,50.1 
		144.3,49.9 144.3,49.7 144.3,49.5 144.3,49.4 144.3,49.2 144.3,49 144.3,48.8 144.3,48.6 144.3,48.5 144.3,48.3 144.3,48.1 
		144.4,47.9 144.4,47.7 144.4,47.6 144.4,47.4 144.4,47.2 144.4,47 144.4,46.8 144.4,46.7 144.5,46.5 144.5,46.3 144.5,46.1 
		144.5,45.9 144.5,45.8 144.5,45.6 144.5,45.4 144.6,45.2 144.6,45.1 144.8,44.9 	"/>
	<polygon class="st16" points="146.7,49.3 146.7,49.4 146.7,49.6 146.7,49.7 146.7,49.8 146.7,49.9 146.7,50 146.7,50.1 146.6,50.2 
		146.6,50.3 146.6,50.4 146.6,50.5 146.6,50.7 146.6,50.8 146.6,50.9 146.6,51 146.6,51.1 146.6,51.2 146.6,51.3 146.6,51.4 
		146.6,51.6 146.6,51.7 146.6,51.8 146.6,51.9 146.6,52 146.6,52.1 146.6,52.2 146.6,52.3 146.6,52.5 146.6,52.6 146.6,52.7 
		146.6,52.8 146.6,52.9 146.6,53 146.6,53.1 146.6,53.2 146.6,53.3 146.6,53.5 146.6,53.6 146.6,53.7 146.6,53.8 146.6,53.9 
		146.7,54 146.7,54.1 146.7,54.2 146.7,54.3 146.7,54.4 146.7,54.5 146.7,54.6 146.7,54.7 146.7,54.9 146.7,55 146.7,55.1 
		146.7,55.2 146.7,55.3 146.7,55.4 146.8,55.5 146.8,55.6 146.8,55.7 146.8,55.8 146.8,55.9 146.8,56 146.8,56.1 146.8,56.2 
		146.9,56.3 146.9,56.3 146.8,56.5 146.5,56.7 146.5,56.7 146.2,56.6 146.1,56.4 146.1,56.3 146.1,56.3 146.1,56.1 146.1,56 
		146.1,55.9 146.1,55.8 146.1,55.7 146.1,55.6 146,55.5 146,55.4 146,55.3 146,55.2 146,55.1 146,55 146,54.9 146,54.8 146,54.7 
		146,54.6 146,54.5 146,54.3 146,54.2 146,54.1 146,54 146,53.9 146,53.8 146,53.7 146,53.6 146,53.5 146,53.3 146,53.2 146,53.1 
		146,53 146,52.9 146,52.8 146,52.7 146.1,52.6 146.1,52.4 146.1,52.3 146.1,52.2 146.1,52.1 146.1,52 146.1,51.9 146.1,51.8 
		146.1,51.6 146.1,51.5 146.1,51.4 146.1,51.3 146.1,51.2 146.1,51.1 146.1,51 146.2,50.9 146.2,50.7 146.2,50.6 146.2,50.5 
		146.2,50.4 146.2,50.3 146.2,50.2 146.2,50.1 146.2,50 146.2,49.9 146.2,49.7 146.3,49.6 146.3,49.5 146.3,49.4 146.3,49.3 
		146.5,49.1 	"/>
	<path class="st13" d="M174.3,43.4c0.1,2.6-0.8,4.5-3.7,5.2"/>
	<path class="st17" d="M140.7,22.2c0,0,5-3.3,15.6,0c10.6,3.3,10.5,7.4,17.5,10.3c7,2.9,8.7,3.7,10.6,9.3c2,5.6,0.9,5.6,2.1,8.8
		c1.1,3.2,2.7,3.9,1.7,9.9c-1,6-1.3,6.2-2.4,10.5c-1.2,4.3,0.2,6.5-4.1,11.6c-4.2,5.1-2.4,6.3-6.2,10.7c-5.7,6.7-10.4,7-10.4,7
		c7-8.6,8.7-15.8,9.8-24.1c3.3-1.4,7-8.6,4.4-10.2c-1.2-0.8-3.6,0.6-5.5,2.1c0.8-2.6,0.9-5.6,0-9.3c-1.1-4.4-4.6-4.7-3.3-10.3
		c-9.6,0.4-14.3-3.6-14.1-8.2c-10.2-2.7-16.3-5.6-15.2-11.4L140.7,22.2z"/>
	<path class="st13" d="M140.7,22.2c0,0,5-3.3,15.6,0c10.6,3.3,10.5,7.4,17.5,10.3c7,2.9,8.7,3.7,10.6,9.3c2,5.6,0.9,5.6,2.1,8.8
		c1.1,3.2,2.7,3.9,1.7,9.9c-1,6-1.3,6.2-2.4,10.5c-1.2,4.3,0.2,6.5-4.1,11.6c-4.2,5.1-2.4,6.3-6.2,10.7c-5.7,6.7-10.4,7-10.4,7
		c7-8.6,8.7-15.8,9.8-24.1c3.3-1.4,7-8.6,4.4-10.2c-1.2-0.8-3.6,0.6-5.5,2.1c0.8-2.6,0.9-5.6,0-9.3c-1.1-4.4-4.6-4.7-3.3-10.3
		c-9.6,0.4-14.3-3.6-14.1-8.2c-10.2-2.7-16.3-5.6-15.2-11.4L140.7,22.2z"/>
	<path class="st17" d="M141,22.3l0.3,6.7l-3.8,4.6c1.8,6.3-3.9,10.2-11.1,14.1c-2.1,1.1-5.8,0.9-6.3,4.1c0,0-2.1-0.8-3.4,1.1
		c-1.5,2.3-0.8,2.8-0.6,4.6c-2.2,3.4-1.9,7.6-1.2,9.8c-3.2-2.4-5.2-1.8-5.4-0.7c-0.8,3.6,2.2,9.5,6.4,10.3
		c0.8,12.9,3.5,18.7,7.4,22.1c-2.8,1.2-9.8-3-11.2-9.5c-0.8-3.9-7.7-4.5-5.8-14.5c0.5-2.4-3.2-3.1-2.2-7.7
		c-2.1-6.9-2.5-13.3,0.6-16.2c-1.5-5,2.1-11.4,11.7-18.1C119.7,23.7,133.9,18.9,141,22.3"/>
	<path class="st13" d="M141,22.3l0.3,6.7l-3.8,4.6c1.8,6.3-3.9,10.2-11.1,14.1c-2.1,1.1-5.8,0.9-6.3,4.1c0,0-2.1-0.8-3.4,1.1
		c-1.5,2.3-0.8,2.8-0.6,4.6c-2.2,3.4-1.9,7.6-1.2,9.8c-3.2-2.4-5.2-1.8-5.4-0.7c-0.8,3.6,2.2,9.5,6.4,10.3
		c0.8,12.9,3.5,18.7,7.4,22.1c-2.8,1.2-9.8-3-11.2-9.5c-0.8-3.9-7.7-4.5-5.8-14.5c0.5-2.4-3.2-3.1-2.2-7.7
		c-2.1-6.9-2.5-13.3,0.6-16.2c-1.5-5,2.1-11.4,11.7-18.1C119.7,23.7,133.9,18.9,141,22.3z"/>
	<path class="st13" d="M141.3,24.6c0,0-12.5,6.4-8.9,7.1C136.1,32.3,141.3,24.6,141.3,24.6z"/>
	<path class="st13" d="M141.3,23.7c-2.6-1.3-12.6,0.3-11,2C131.9,27.3,140.6,23.9,141.3,23.7z"/>
	<path class="st13" d="M141.3,23.6c0,0,15.8,4.1,15.2,2.2c-0.4-1.5-4.4-2.5-8.2-2.7C144.7,23,141.3,23.6,141.3,23.6z"/>
	<path class="st13" d="M141.3,24.6c0,0,12.6,11.7,12.2,8C153.2,28.9,141.3,24.6,141.3,24.6z"/>
	<polygon class="st16" points="177,68.1 177,68.1 177,68.1 177,68.1 177.1,68.1 177.1,68.1 177.1,68.1 177.1,68.1 177.2,68.2 
		177.2,68.2 177.2,68.2 177.2,68.2 177.3,68.2 177.3,68.2 177.3,68.2 177.3,68.2 177.4,68.2 177.4,68.2 177.4,68.2 177.4,68.2 
		177.5,68.3 177.5,68.3 177.5,68.3 177.5,68.3 177.6,68.3 177.6,68.3 177.6,68.3 177.6,68.3 177.6,68.4 177.7,68.4 177.7,68.4 
		177.7,68.4 177.7,68.4 177.7,68.4 177.8,68.5 177.8,68.5 177.8,68.5 177.8,68.5 177.8,68.5 177.8,68.5 177.8,68.6 177.9,68.6 
		177.9,68.6 177.9,68.6 177.9,68.7 177.9,68.7 177.9,68.7 177.9,68.7 178,68.7 178,68.8 178,68.8 178,68.8 178,68.8 178,68.9 
		178,68.9 178,68.9 178,68.9 178,69 178,69 178,69 178.1,69 178.1,69.1 178.1,69.1 178.1,69.1 178.1,69.1 178.1,69.2 178.1,69.2 
		178.1,69.2 178.1,69.2 178.1,69.3 178.1,69.3 178.1,69.3 178.1,69.3 178.1,69.4 178.1,69.4 178.1,69.4 178.1,69.5 178.1,69.5 
		178.1,69.5 178.1,69.5 178.1,69.6 178.1,69.6 178.1,69.6 178.1,69.7 178.1,69.7 178.1,69.7 178.1,69.7 178.1,69.8 178.1,69.8 
		178,69.8 178,69.9 178,69.9 178,69.9 178,69.9 178,70 178,70 178,70 178,70.1 178,70.1 178,70.1 178,70.2 178,70.2 177.9,70.2 
		177.9,70.3 177.9,70.3 177.9,70.3 177.9,70.3 177.9,70.4 177.9,70.4 177.9,70.4 177.8,70.5 177.8,70.5 177.8,70.5 177.8,70.6 
		177.8,70.6 177.8,70.6 177.8,70.7 177.7,70.7 177.7,70.7 177.7,70.8 177.7,70.8 177.7,70.8 177.6,70.9 177.6,70.9 177.6,70.9 
		177.6,71 177.6,71 177.5,71 177.5,71.1 177.5,71.1 177.5,71.1 177.5,71.2 177.4,71.2 177.4,71.2 177.4,71.3 177.4,71.3 177.3,71.3 
		177.3,71.4 177.3,71.4 177.3,71.4 177.2,71.5 177.2,71.5 177.2,71.5 177.2,71.6 177.1,71.6 177.1,71.7 177.1,71.7 177.1,71.7 
		177,71.8 177,71.8 177,71.8 176.9,71.9 176.9,71.9 176.9,71.9 176.8,72 176.8,72 176.8,72 176.7,72.1 176.7,72.1 176.7,72.1 
		176.6,72.2 176.6,72.2 176.6,72.2 176.5,72.3 176.5,72.3 176.5,72.4 176.4,72.4 176.4,72.4 176.3,72.5 176.3,72.5 176.3,72.5 
		176.2,72.6 176.2,72.6 176.1,72.6 176.1,72.7 176.1,72.7 176,72.7 176,72.8 175.9,72.8 175.9,72.8 175.8,72.9 175.8,72.9 175.8,73 
		175.7,73 175.7,73 175.6,73.1 175.6,73.1 175.5,73.1 175.5,73.2 175.4,73.2 175.4,73.2 175.3,73.3 175.3,73.3 175.2,73.3 
		175.2,73.4 175.1,73.4 175.1,73.4 175,73.5 175,73.5 174.9,73.5 174.9,73.6 174.8,73.6 174.7,73.7 174.5,73.6 174.5,73.3 
		174.6,73.3 174.6,73.2 174.7,73.2 174.7,73.2 174.8,73.1 174.8,73.1 174.9,73.1 174.9,73 175,73 175,73 175.1,72.9 175.1,72.9 
		175.2,72.9 175.2,72.8 175.3,72.8 175.3,72.7 175.3,72.7 175.4,72.7 175.4,72.6 175.5,72.6 175.5,72.6 175.5,72.5 175.6,72.5 
		175.6,72.5 175.7,72.4 175.7,72.4 175.7,72.4 175.8,72.3 175.8,72.3 175.9,72.3 175.9,72.2 175.9,72.2 176,72.1 176,72.1 176,72.1 
		176.1,72 176.1,72 176.1,72 176.2,71.9 176.2,71.9 176.2,71.9 176.3,71.8 176.3,71.8 176.3,71.8 176.4,71.7 176.4,71.7 176.4,71.7 
		176.5,71.6 176.5,71.6 176.5,71.6 176.5,71.5 176.6,71.5 176.6,71.5 176.6,71.4 176.6,71.4 176.7,71.4 176.7,71.3 176.7,71.3 
		176.7,71.3 176.8,71.2 176.8,71.2 176.8,71.2 176.8,71.1 176.9,71.1 176.9,71.1 176.9,71 176.9,71 176.9,71 177,70.9 177,70.9 
		177,70.9 177,70.8 177,70.8 177,70.8 177.1,70.7 177.1,70.7 177.1,70.7 177.1,70.7 177.1,70.6 177.1,70.6 177.2,70.6 177.2,70.5 
		177.2,70.5 177.2,70.5 177.2,70.5 177.2,70.4 177.2,70.4 177.3,70.4 177.3,70.3 177.3,70.3 177.3,70.3 177.3,70.3 177.3,70.2 
		177.3,70.2 177.3,70.2 177.3,70.1 177.4,70.1 177.4,70.1 177.4,70.1 177.4,70 177.4,70 177.4,70 177.4,70 177.4,69.9 177.4,69.9 
		177.4,69.9 177.4,69.9 177.4,69.8 177.4,69.8 177.4,69.8 177.4,69.8 177.4,69.7 177.4,69.7 177.5,69.7 177.5,69.7 177.5,69.7 
		177.5,69.6 177.5,69.6 177.5,69.6 177.5,69.6 177.5,69.5 177.5,69.5 177.5,69.5 177.5,69.5 177.5,69.5 177.5,69.4 177.5,69.4 
		177.5,69.4 177.5,69.4 177.5,69.4 177.5,69.4 177.5,69.3 177.5,69.3 177.5,69.3 177.5,69.3 177.5,69.3 177.4,69.3 177.4,69.2 
		177.4,69.2 177.4,69.2 177.4,69.2 177.4,69.2 177.4,69.2 177.4,69.2 177.4,69.1 177.4,69.1 177.4,69.1 177.4,69.1 177.4,69.1 
		177.4,69.1 177.4,69.1 177.4,69.1 177.4,69 177.4,69 177.4,69 177.4,69 177.4,69 177.3,69 177.3,69 177.3,69 177.3,69 177.3,69 
		177.3,69 177.3,69 177.3,68.9 177.3,68.9 177.3,68.9 177.3,68.9 177.3,68.9 177.3,68.9 177.3,68.9 177.3,68.9 177.2,68.9 
		177.2,68.9 177.2,68.9 177.2,68.9 177.2,68.9 177.2,68.9 177.2,68.9 177.2,68.9 177.2,68.9 177.2,68.9 177.2,68.9 177.2,68.8 
		177.2,68.8 177.1,68.8 177.1,68.8 177.1,68.8 177.1,68.8 177.1,68.8 177.1,68.8 177.1,68.8 177.1,68.8 177.1,68.8 177,68.8 
		177,68.8 177,68.8 177,68.8 177,68.8 177,68.8 177,68.8 177,68.8 176.9,68.8 176.9,68.8 176.9,68.8 176.9,68.8 176.9,68.8 
		176.9,68.8 176.9,68.8 176.8,68.8 176.8,68.8 176.8,68.8 176.8,68.8 176.8,68.8 176.8,68.8 176.7,68.9 176.7,68.9 176.7,68.9 
		176.7,68.9 176.7,68.9 176.6,68.9 176.6,68.9 176.6,68.9 176.6,68.9 176.6,68.9 176.5,68.9 176.5,68.9 176.5,68.9 176.5,68.9 
		176.5,69 176.4,69 176.4,69 176.4,69 176.4,69 176.4,69 176.3,69 176.3,69 176.3,69.1 176.3,69.1 176.2,69.1 176.2,69.1 
		176.2,69.1 176.2,69.1 176.1,69.1 176.1,69.2 176.1,69.2 176.1,69.2 176,69.2 176,69.2 176,69.3 176,69.3 175.9,69.3 175.9,69.3 
		175.9,69.3 175.9,69.4 175.8,69.4 175.8,69.4 175.6,69.5 175.3,69.3 175.3,69.3 175.2,69 175.4,68.8 175.4,68.8 175.4,68.7 
		175.5,68.7 175.5,68.7 175.5,68.7 175.6,68.7 175.6,68.6 175.6,68.6 175.6,68.6 175.7,68.6 175.7,68.5 175.7,68.5 175.8,68.5 
		175.8,68.5 175.8,68.5 175.9,68.5 175.9,68.4 175.9,68.4 176,68.4 176,68.4 176,68.4 176,68.4 176.1,68.3 176.1,68.3 176.1,68.3 
		176.2,68.3 176.2,68.3 176.2,68.3 176.3,68.3 176.3,68.3 176.3,68.2 176.3,68.2 176.4,68.2 176.4,68.2 176.4,68.2 176.5,68.2 
		176.5,68.2 176.5,68.2 176.5,68.2 176.6,68.2 176.6,68.2 176.6,68.2 176.7,68.2 176.7,68.1 176.7,68.1 176.7,68.1 176.8,68.1 
		176.8,68.1 176.8,68.1 176.9,68.1 176.9,68.1 176.9,68.1 176.9,68.1 	"/>
	<polygon class="st16" points="112.7,68.1 112.7,68.1 112.7,68.1 112.8,68.1 112.8,68.1 112.8,68.1 112.8,68.1 112.9,68.1 
		112.9,68.1 112.9,68.2 113,68.2 113,68.2 113,68.2 113,68.2 113.1,68.2 113.1,68.2 113.1,68.2 113.2,68.2 113.2,68.2 113.2,68.2 
		113.2,68.2 113.3,68.2 113.3,68.3 113.3,68.3 113.4,68.3 113.4,68.3 113.4,68.3 113.4,68.3 113.5,68.3 113.5,68.3 113.5,68.4 
		113.6,68.4 113.6,68.4 113.6,68.4 113.7,68.4 113.7,68.4 113.7,68.5 113.8,68.5 113.8,68.5 113.8,68.5 113.8,68.5 113.9,68.5 
		113.9,68.6 113.9,68.6 114,68.6 114,68.6 114,68.7 114.1,68.7 114.1,68.7 114.1,68.7 114.2,68.7 114.2,68.8 114.2,68.8 114.2,68.8 
		114.4,69 114.3,69.3 114.3,69.3 114,69.5 113.8,69.4 113.8,69.4 113.7,69.4 113.7,69.3 113.7,69.3 113.6,69.3 113.6,69.3 
		113.6,69.3 113.6,69.2 113.5,69.2 113.5,69.2 113.5,69.2 113.5,69.2 113.4,69.1 113.4,69.1 113.4,69.1 113.4,69.1 113.4,69.1 
		113.3,69.1 113.3,69.1 113.3,69 113.3,69 113.2,69 113.2,69 113.2,69 113.2,69 113.1,69 113.1,69 113.1,68.9 113.1,68.9 
		113.1,68.9 113,68.9 113,68.9 113,68.9 113,68.9 113,68.9 112.9,68.9 112.9,68.9 112.9,68.9 112.9,68.9 112.9,68.9 112.9,68.9 
		112.8,68.8 112.8,68.8 112.8,68.8 112.8,68.8 112.8,68.8 112.8,68.8 112.7,68.8 112.7,68.8 112.7,68.8 112.7,68.8 112.7,68.8 
		112.7,68.8 112.6,68.8 112.6,68.8 112.6,68.8 112.6,68.8 112.6,68.8 112.6,68.8 112.6,68.8 112.6,68.8 112.5,68.8 112.5,68.8 
		112.5,68.8 112.5,68.8 112.5,68.8 112.5,68.8 112.5,68.8 112.5,68.8 112.5,68.8 112.4,68.8 112.4,68.8 112.4,68.8 112.4,68.9 
		112.4,68.9 112.4,68.9 112.4,68.9 112.4,68.9 112.4,68.9 112.4,68.9 112.4,68.9 112.4,68.9 112.3,68.9 112.3,68.9 112.3,68.9 
		112.3,68.9 112.3,68.9 112.3,68.9 112.3,68.9 112.3,68.9 112.3,68.9 112.3,68.9 112.3,69 112.3,69 112.3,69 112.3,69 112.3,69 
		112.2,69 112.2,69 112.2,69 112.2,69 112.2,69 112.2,69 112.2,69 112.2,69.1 112.2,69.1 112.2,69.1 112.2,69.1 112.2,69.1 
		112.2,69.1 112.2,69.1 112.2,69.1 112.2,69.2 112.2,69.2 112.2,69.2 112.2,69.2 112.2,69.2 112.1,69.2 112.1,69.2 112.1,69.3 
		112.1,69.3 112.1,69.3 112.1,69.3 112.1,69.3 112.1,69.3 112.1,69.4 112.1,69.4 112.1,69.4 112.1,69.4 112.1,69.4 112.1,69.4 
		112.1,69.5 112.1,69.5 112.1,69.5 112.1,69.5 112.1,69.5 112.1,69.6 112.1,69.6 112.1,69.6 112.1,69.6 112.1,69.7 112.1,69.7 
		112.1,69.7 112.1,69.7 112.1,69.7 112.1,69.8 112.2,69.8 112.2,69.8 112.2,69.8 112.2,69.9 112.2,69.9 112.2,69.9 112.2,69.9 
		112.2,70 112.2,70 112.2,70 112.2,70 112.2,70.1 112.2,70.1 112.2,70.1 112.2,70.1 112.3,70.2 112.3,70.2 112.3,70.2 112.3,70.3 
		112.3,70.3 112.3,70.3 112.3,70.3 112.3,70.4 112.3,70.4 112.4,70.4 112.4,70.5 112.4,70.5 112.4,70.5 112.4,70.5 112.4,70.6 
		112.4,70.6 112.5,70.6 112.5,70.7 112.5,70.7 112.5,70.7 112.5,70.7 112.5,70.8 112.6,70.8 112.6,70.8 112.6,70.9 112.6,70.9 
		112.6,70.9 112.7,71 112.7,71 112.7,71 112.7,71.1 112.7,71.1 112.8,71.1 112.8,71.2 112.8,71.2 112.8,71.2 112.8,71.3 112.9,71.3 
		112.9,71.3 112.9,71.4 112.9,71.4 113,71.4 113,71.5 113,71.5 113.1,71.5 113.1,71.6 113.1,71.6 113.1,71.6 113.2,71.7 113.2,71.7 
		113.2,71.7 113.3,71.8 113.3,71.8 113.3,71.8 113.3,71.9 113.4,71.9 113.4,71.9 113.4,72 113.5,72 113.5,72 113.5,72.1 113.6,72.1 
		113.6,72.1 113.7,72.2 113.7,72.2 113.7,72.3 113.8,72.3 113.8,72.3 113.8,72.4 113.9,72.4 113.9,72.4 114,72.5 114,72.5 114,72.5 
		114.1,72.6 114.1,72.6 114.2,72.6 114.2,72.7 114.2,72.7 114.3,72.7 114.3,72.8 114.4,72.8 114.4,72.9 114.5,72.9 114.5,72.9 
		114.6,73 114.6,73 114.7,73 114.7,73.1 114.8,73.1 114.8,73.1 114.9,73.2 114.9,73.2 115,73.2 115,73.3 115.1,73.3 115.1,73.6 
		114.8,73.7 114.8,73.6 114.7,73.6 114.7,73.5 114.6,73.5 114.6,73.5 114.5,73.4 114.5,73.4 114.4,73.4 114.4,73.3 114.3,73.3 
		114.3,73.3 114.2,73.2 114.2,73.2 114.1,73.2 114.1,73.1 114,73.1 114,73.1 113.9,73 113.9,73 113.8,73 113.8,72.9 113.7,72.9 
		113.7,72.8 113.7,72.8 113.6,72.8 113.6,72.7 113.5,72.7 113.5,72.7 113.4,72.6 113.4,72.6 113.4,72.6 113.3,72.5 113.3,72.5 
		113.3,72.5 113.2,72.4 113.2,72.4 113.1,72.4 113.1,72.3 113.1,72.3 113,72.2 113,72.2 113,72.2 112.9,72.1 112.9,72.1 112.9,72.1 
		112.8,72 112.8,72 112.8,72 112.7,71.9 112.7,71.9 112.7,71.9 112.6,71.8 112.6,71.8 112.6,71.8 112.5,71.7 112.5,71.7 112.5,71.7 
		112.5,71.6 112.4,71.6 112.4,71.5 112.4,71.5 112.3,71.5 112.3,71.4 112.3,71.4 112.3,71.4 112.2,71.3 112.2,71.3 112.2,71.3 
		112.2,71.2 112.1,71.2 112.1,71.2 112.1,71.1 112.1,71.1 112.1,71.1 112,71 112,71 112,71 112,70.9 112,70.9 111.9,70.9 
		111.9,70.8 111.9,70.8 111.9,70.8 111.9,70.7 111.9,70.7 111.8,70.7 111.8,70.6 111.8,70.6 111.8,70.6 111.8,70.5 111.8,70.5 
		111.7,70.5 111.7,70.4 111.7,70.4 111.7,70.4 111.7,70.3 111.7,70.3 111.7,70.3 111.7,70.3 111.6,70.2 111.6,70.2 111.6,70.2 
		111.6,70.1 111.6,70.1 111.6,70.1 111.6,70 111.6,70 111.6,70 111.6,69.9 111.6,69.9 111.6,69.9 111.5,69.9 111.5,69.8 111.5,69.8 
		111.5,69.8 111.5,69.7 111.5,69.7 111.5,69.7 111.5,69.7 111.5,69.6 111.5,69.6 111.5,69.6 111.5,69.5 111.5,69.5 111.5,69.5 
		111.5,69.5 111.5,69.4 111.5,69.4 111.5,69.4 111.5,69.3 111.5,69.3 111.5,69.3 111.5,69.3 111.5,69.2 111.5,69.2 111.5,69.2 
		111.5,69.2 111.5,69.1 111.5,69.1 111.5,69.1 111.5,69.1 111.5,69 111.5,69 111.5,69 111.6,69 111.6,68.9 111.6,68.9 111.6,68.9 
		111.6,68.9 111.6,68.8 111.6,68.8 111.6,68.8 111.6,68.8 111.6,68.7 111.6,68.7 111.7,68.7 111.7,68.7 111.7,68.7 111.7,68.6 
		111.7,68.6 111.7,68.6 111.7,68.6 111.8,68.5 111.8,68.5 111.8,68.5 111.8,68.5 111.8,68.5 111.8,68.5 111.9,68.4 111.9,68.4 
		111.9,68.4 111.9,68.4 111.9,68.4 112,68.4 112,68.3 112,68.3 112,68.3 112,68.3 112.1,68.3 112.1,68.3 112.1,68.3 112.1,68.3 
		112.1,68.2 112.2,68.2 112.2,68.2 112.2,68.2 112.2,68.2 112.3,68.2 112.3,68.2 112.3,68.2 112.3,68.2 112.4,68.2 112.4,68.2 
		112.4,68.2 112.4,68.1 112.5,68.1 112.5,68.1 112.5,68.1 112.5,68.1 112.6,68.1 112.6,68.1 112.6,68.1 112.7,68.1 	"/>
	<path class="st17" d="M143.6,192l-7.4-7.2l12.8-10.9c-1.5-2.1,4.8-10.6,9-17.1c5.3-4.5,11.5-10.8,14.2-15.7c2.2-0.3,2,1.2,2,1.2
		l4.6-7.2c1.5,0.1,2.1,0.9,1.5,3l2.1-3.6c1.8,0.1,2.7,2.4-0.6,7.1c0,0,1.2,1.4-0.7,3.9c-2.9,3.9-13.7,17.5-13.7,17.5l0.4,2.8
		c0,0,5.1-3.7,8.7-2.8c3.6,0.9,1.7,3,1.7,3s-4.3,0.4-8.7,5c-4.5,4.6-4.8,6.5-7.1,7.8c-3.9,2.3-5,1.7-5,1.7L143.6,192z"/>
	<path class="st13" d="M143.6,192l-7.4-7.2l12.8-10.9c-1.5-2.1,4.8-10.6,9-17.1c5.3-4.5,11.5-10.8,14.2-15.7c2.2-0.3,2,1.2,2,1.2
		l4.6-7.2c1.5,0.1,2.1,0.9,1.5,3l2.1-3.6c1.8,0.1,2.7,2.4-0.6,7.1c0,0,1.2,1.4-0.7,3.9c-2.9,3.9-13.7,17.5-13.7,17.5l0.4,2.8
		c0,0,5.1-3.7,8.7-2.8c3.6,0.9,1.7,3,1.7,3s-4.3,0.4-8.7,5c-4.5,4.6-4.8,6.5-7.1,7.8c-3.9,2.3-5,1.7-5,1.7L143.6,192z"/>
	<path class="st17" d="M174.4,142.1c0.8,4.2-4.5,10.4-10.4,16.9c-4,7.9-3.9,15.1-7.7,18.6"/>
	<path class="st13" d="M174.4,142.1c0.8,4.2-4.5,10.4-10.4,16.9c-4,7.9-3.9,15.1-7.7,18.6"/>
	<path class="st17" d="M180.3,138.2c-1.6,4.2-4.4,8.3-12.9,19.5"/>
	<path class="st13" d="M180.3,138.2c-1.6,4.2-4.4,8.3-12.9,19.5"/>
	<line class="st13" x1="181.9" y1="141.6" x2="168.9" y2="158.7"/>
	<path class="st13" d="M147.8,193l11.6-11.2l29.4,24.8c4.4,2.5,7.3,5.2,8.4,8.3"/>
	<path class="st13" d="M145.1,193.5l-12.6-12.4l-28.9,21.4c-4.4,2.5-12.7,10-13.8,13.1"/>
	<line class="st13" x1="147.9" y1="193.1" x2="190.2" y2="229.7"/>
	<line class="st13" x1="145.1" y1="193.5" x2="104.9" y2="229.7"/>
	<path class="st17" d="M149.8,190.8l7.3-6.9l-9.5-10c0,0,1.4-1.5-2.2-6.8c-3.6-5.3-11.2-13.3-14.2-15.9c-5.3-4.7-9.4-11.8-9.4-11.8
		c-1.1-0.2-1.7,0.5-1.9,1.2c0,0-2.5-4.2-3.4-5.9c-0.4-0.8-1.9,1-1.9,1l-1.2-1.8c-1.7,0.4-2,2.6-0.9,6.6c0,0-2-1.1-0.4,3.6
		c2.8,7.9,14.3,21.9,14.5,20.9c0,0-9.5-4.9-10.7,1.7c-0.2,1.4,3.9,0.1,8.6,3.8c4.6,3.6,4.8,5.8,8.9,8.2c4.1,2.4,6.5,2.2,6.5,2.2
		L149.8,190.8z"/>
	<path class="st13" d="M149.8,190.8l7.3-6.9l-9.5-10c0,0,1.4-1.5-2.2-6.8c-3.6-5.3-11.2-13.3-14.2-15.9c-5.3-4.7-9.4-11.8-9.4-11.8
		c-1.1-0.2-1.7,0.5-1.9,1.2c0,0-2.5-4.2-3.4-5.9c-0.4-0.8-1.9,1-1.9,1l-1.2-1.8c-1.7,0.4-2,2.6-0.9,6.6c0,0-2-1.1-0.4,3.6
		c2.8,7.9,14.3,21.9,14.5,20.9c0,0-9.5-4.9-10.7,1.7c-0.2,1.4,3.9,0.1,8.6,3.8c4.6,3.6,4.8,5.8,8.9,8.2c4.1,2.4,6.5,2.2,6.5,2.2
		L149.8,190.8z"/>
	<path class="st17" d="M119.8,140.3c-1,2.6,5.3,13.5,13.1,18.9c3.4,6.7,2.8,13.7,8,17.4"/>
	<path class="st13" d="M119.8,140.3c-1,2.6,5.3,13.5,13.1,18.9c3.4,6.7,2.8,13.7,8,17.4"/>
	<path class="st17" d="M130.6,168.7c1.8,0.5,3.7,2,5.7,4.5"/>
	<polygon class="st16" points="130.7,168.2 130.8,168.2 130.8,168.2 130.9,168.2 130.9,168.3 131,168.3 131,168.3 131,168.3 
		131.1,168.3 131.1,168.4 131.2,168.4 131.2,168.4 131.3,168.4 131.3,168.4 131.4,168.4 131.4,168.5 131.4,168.5 131.5,168.5 
		131.5,168.5 131.6,168.6 131.6,168.6 131.7,168.6 131.7,168.6 131.8,168.6 131.8,168.7 131.8,168.7 131.9,168.7 131.9,168.7 
		132,168.8 132,168.8 132.1,168.8 132.1,168.8 132.1,168.9 132.2,168.9 132.2,168.9 132.3,169 132.3,169 132.4,169 132.4,169 
		132.5,169.1 132.5,169.1 132.5,169.1 132.6,169.2 132.6,169.2 132.7,169.2 132.7,169.2 132.8,169.3 132.8,169.3 132.9,169.3 
		132.9,169.4 132.9,169.4 133,169.4 133,169.5 133.1,169.5 133.1,169.5 133.2,169.6 133.2,169.6 133.3,169.6 133.3,169.7 
		133.3,169.7 133.4,169.8 133.4,169.8 133.5,169.8 133.5,169.9 133.6,169.9 133.6,169.9 133.7,170 133.7,170 133.7,170.1 
		133.8,170.1 133.8,170.1 133.9,170.2 133.9,170.2 134,170.3 134,170.3 134.1,170.3 134.1,170.4 134.1,170.4 134.2,170.5 
		134.2,170.5 134.3,170.6 134.3,170.6 134.4,170.6 134.4,170.7 134.5,170.7 134.5,170.8 134.5,170.8 134.6,170.9 134.6,170.9 
		134.7,171 134.7,171 134.8,171.1 134.8,171.1 134.9,171.1 134.9,171.2 135,171.2 135,171.3 135,171.3 135.1,171.4 135.1,171.4 
		135.2,171.5 135.2,171.5 135.3,171.6 135.3,171.6 135.4,171.7 135.4,171.8 135.4,171.8 135.5,171.9 135.5,171.9 135.6,172 
		135.6,172 135.7,172.1 135.7,172.1 135.8,172.2 135.8,172.2 135.9,172.3 135.9,172.4 136,172.4 136,172.5 136,172.5 136.1,172.6 
		136.1,172.6 136.2,172.7 136.2,172.8 136.3,172.8 136.3,172.9 136.4,172.9 136.4,173 136.5,173.1 136.4,173.3 136.2,173.3 
		136.2,173.2 136.1,173.2 136.1,173.1 136,173 136,173 135.9,172.9 135.9,172.9 135.8,172.8 135.8,172.8 135.7,172.7 135.7,172.7 
		135.6,172.6 135.6,172.6 135.5,172.5 135.5,172.5 135.4,172.4 135.4,172.4 135.3,172.3 135.3,172.3 135.2,172.2 135.2,172.2 
		135.1,172.1 135.1,172.1 135,172 135,172 134.9,171.9 134.9,171.9 134.8,171.8 134.8,171.8 134.7,171.8 134.7,171.7 134.6,171.7 
		134.6,171.6 134.5,171.6 134.5,171.5 134.4,171.5 134.4,171.5 134.3,171.4 134.3,171.4 134.2,171.3 134.2,171.3 134.1,171.3 
		134.1,171.2 134,171.2 134,171.1 134,171.1 133.9,171.1 133.9,171 133.8,171 133.8,170.9 133.7,170.9 133.7,170.9 133.6,170.8 
		133.6,170.8 133.5,170.8 133.5,170.7 133.4,170.7 133.4,170.7 133.4,170.6 133.3,170.6 133.3,170.6 133.2,170.5 133.2,170.5 
		133.1,170.5 133.1,170.4 133,170.4 133,170.4 132.9,170.3 132.9,170.3 132.9,170.3 132.8,170.3 132.8,170.2 132.7,170.2 
		132.7,170.2 132.6,170.1 132.6,170.1 132.5,170.1 132.5,170.1 132.5,170 132.4,170 132.4,170 132.3,170 132.3,169.9 132.2,169.9 
		132.2,169.9 132.2,169.9 132.1,169.8 132.1,169.8 132,169.8 132,169.8 131.9,169.7 131.9,169.7 131.9,169.7 131.8,169.7 
		131.8,169.7 131.7,169.6 131.7,169.6 131.6,169.6 131.6,169.6 131.6,169.6 131.5,169.5 131.5,169.5 131.4,169.5 131.4,169.5 
		131.4,169.5 131.3,169.4 131.3,169.4 131.2,169.4 131.2,169.4 131.2,169.4 131.1,169.4 131.1,169.4 131,169.3 131,169.3 131,169.3 
		130.9,169.3 130.9,169.3 130.8,169.3 130.8,169.3 130.8,169.2 130.7,169.2 130.7,169.2 130.6,169.2 130.6,169.2 130.6,169.2 
		130.5,169.2 130.5,169.2 130.4,169.2 130.4,169.2 130.1,168.9 130.1,168.5 130.1,168.5 130.4,168.2 130.7,168.2 	"/>
	<path class="st17" d="M125.9,164.7c0.9,0.3,2.8,1.3,2,4.6"/>
	<polygon class="st16" points="127.7,169.2 127.7,169.2 127.8,169.2 127.8,169.1 127.8,169.1 127.8,169 127.8,169 127.8,169 
		127.8,168.9 127.8,168.9 127.8,168.9 127.8,168.8 127.8,168.8 127.8,168.8 127.8,168.7 127.8,168.7 127.8,168.7 127.8,168.6 
		127.8,168.6 127.8,168.6 127.8,168.5 127.8,168.5 127.8,168.5 127.8,168.4 127.8,168.4 127.8,168.4 127.8,168.3 127.8,168.3 
		127.8,168.3 127.8,168.2 127.8,168.2 127.8,168.2 127.8,168.1 127.8,168.1 127.8,168.1 127.8,168 127.8,168 127.8,168 127.8,168 
		127.8,167.9 127.8,167.9 127.8,167.9 127.8,167.8 127.8,167.8 127.8,167.8 127.8,167.7 127.8,167.7 127.8,167.7 127.8,167.7 
		127.8,167.6 127.8,167.6 127.8,167.6 127.8,167.6 127.8,167.5 127.8,167.5 127.8,167.5 127.8,167.5 127.8,167.4 127.8,167.4 
		127.8,167.4 127.7,167.3 127.7,167.3 127.7,167.2 127.7,167.2 127.7,167.1 127.7,167.1 127.7,167 127.7,167 127.7,167 127.6,166.9 
		127.6,166.9 127.6,166.8 127.6,166.8 127.6,166.7 127.6,166.7 127.5,166.7 127.5,166.6 127.5,166.6 127.5,166.6 127.5,166.5 
		127.5,166.5 127.4,166.4 127.4,166.4 127.4,166.4 127.4,166.3 127.4,166.3 127.3,166.3 127.3,166.3 127.3,166.2 127.3,166.2 
		127.3,166.2 127.2,166.1 127.2,166.1 127.2,166.1 127.2,166 127.2,166 127.1,166 127.1,166 127.1,165.9 127.1,165.9 127,165.9 
		127,165.9 127,165.9 127,165.8 127,165.8 126.9,165.8 126.9,165.8 126.9,165.7 126.9,165.7 126.8,165.7 126.8,165.7 126.8,165.7 
		126.8,165.6 126.7,165.6 126.7,165.6 126.7,165.6 126.7,165.6 126.6,165.6 126.6,165.5 126.6,165.5 126.6,165.5 126.5,165.5 
		126.5,165.5 126.5,165.5 126.5,165.4 126.4,165.4 126.4,165.4 126.4,165.4 126.4,165.4 126.3,165.4 126.3,165.4 126.3,165.4 
		126.3,165.3 126.3,165.3 126.2,165.3 126.2,165.3 126.2,165.3 126.2,165.3 126.1,165.3 126.1,165.3 126.1,165.3 126.1,165.3 
		126,165.3 126,165.2 126,165.2 126,165.2 126,165.2 125.9,165.2 125.9,165.2 125.9,165.2 125.9,165.2 125.9,165.2 125.8,165.2 
		125.8,165.2 125.8,165.2 125.8,165.2 125.8,165.2 125.7,165.2 125.7,165.2 125.4,164.9 125.4,164.5 125.4,164.5 125.6,164.2 
		126,164.2 126,164.2 126.1,164.2 126.1,164.2 126.1,164.2 126.1,164.2 126.2,164.3 126.2,164.3 126.2,164.3 126.2,164.3 
		126.3,164.3 126.3,164.3 126.3,164.3 126.3,164.3 126.4,164.3 126.4,164.4 126.4,164.4 126.5,164.4 126.5,164.4 126.5,164.4 
		126.5,164.4 126.6,164.5 126.6,164.5 126.6,164.5 126.7,164.5 126.7,164.5 126.7,164.5 126.8,164.6 126.8,164.6 126.8,164.6 
		126.8,164.6 126.9,164.6 126.9,164.7 126.9,164.7 127,164.7 127,164.7 127,164.8 127.1,164.8 127.1,164.8 127.1,164.8 127.1,164.9 
		127.2,164.9 127.2,164.9 127.2,164.9 127.3,165 127.3,165 127.3,165 127.3,165 127.4,165.1 127.4,165.1 127.4,165.1 127.5,165.2 
		127.5,165.2 127.5,165.2 127.5,165.3 127.6,165.3 127.6,165.3 127.6,165.4 127.7,165.4 127.7,165.4 127.7,165.5 127.7,165.5 
		127.8,165.5 127.8,165.6 127.8,165.6 127.8,165.7 127.8,165.7 127.9,165.7 127.9,165.8 127.9,165.8 127.9,165.9 128,165.9 
		128,165.9 128,166 128,166 128,166.1 128.1,166.1 128.1,166.2 128.1,166.2 128.1,166.3 128.1,166.3 128.1,166.4 128.2,166.4 
		128.2,166.4 128.2,166.5 128.2,166.5 128.2,166.6 128.2,166.6 128.2,166.7 128.2,166.8 128.3,166.8 128.3,166.9 128.3,166.9 
		128.3,167 128.3,167 128.3,167.1 128.3,167.1 128.3,167.2 128.3,167.3 128.3,167.3 128.3,167.3 128.3,167.4 128.3,167.4 
		128.3,167.4 128.3,167.5 128.3,167.5 128.3,167.5 128.3,167.5 128.3,167.6 128.3,167.6 128.3,167.6 128.3,167.7 128.3,167.7 
		128.3,167.7 128.3,167.8 128.3,167.8 128.3,167.8 128.3,167.9 128.3,167.9 128.3,167.9 128.3,168 128.3,168 128.3,168 128.3,168.1 
		128.3,168.1 128.3,168.1 128.3,168.2 128.3,168.2 128.3,168.2 128.3,168.3 128.3,168.3 128.3,168.3 128.3,168.4 128.3,168.4 
		128.3,168.4 128.3,168.5 128.2,168.5 128.2,168.5 128.2,168.6 128.2,168.6 128.2,168.6 128.2,168.7 128.2,168.7 128.2,168.7 
		128.2,168.8 128.2,168.8 128.2,168.9 128.2,168.9 128.2,168.9 128.2,169 128.1,169 128.1,169 128.1,169.1 128.1,169.1 128.1,169.2 
		128.1,169.2 128.1,169.2 128.1,169.3 128.1,169.3 128.1,169.3 127.9,169.5 127.7,169.3 	"/>
	<path class="st17" d="M114.7,135.7c-2.1,2.9,4.6,13,9.4,19.2c2.1,2.8,4,3.9,4,3.9l1.1,2.1"/>
	<path class="st13" d="M114.7,135.7c-2.1,2.9,4.6,13,9.4,19.2c2.1,2.8,4,3.9,4,3.9l1.1,2.1"/>
	<path class="st17" d="M112.4,140.2c3.4,7.8,9,16.3,13.4,20.3l0.7,2.1"/>
	<path class="st13" d="M112.4,140.2c3.4,7.8,9,16.3,13.4,20.3l0.7,2.1"/>
	<path class="st17" d="M159.4,175.7c0.6-1.7,2.1-3.6,4.7-5.6"/>
	<polygon class="st16" points="164.4,169.8 164.4,169.8 164.4,169.8 164.5,170.2 164.4,170.5 164.4,170.5 164.3,170.6 164.2,170.6 
		164.2,170.7 164.1,170.7 164.1,170.7 164,170.8 163.9,170.8 163.9,170.9 163.8,170.9 163.8,171 163.7,171 163.7,171 163.6,171.1 
		163.5,171.1 163.5,171.2 163.4,171.2 163.4,171.3 163.3,171.3 163.3,171.3 163.2,171.4 163.2,171.4 163.1,171.5 163.1,171.5 
		163,171.6 163,171.6 162.9,171.7 162.9,171.7 162.8,171.7 162.8,171.8 162.7,171.8 162.7,171.9 162.6,171.9 162.6,172 162.5,172 
		162.5,172 162.4,172.1 162.4,172.1 162.3,172.2 162.3,172.2 162.2,172.3 162.2,172.3 162.2,172.3 162.1,172.4 162.1,172.4 
		162,172.5 162,172.5 161.9,172.5 161.9,172.6 161.9,172.6 161.8,172.7 161.8,172.7 161.7,172.8 161.7,172.8 161.7,172.8 
		161.6,172.9 161.6,172.9 161.5,173 161.5,173 161.5,173 161.4,173.1 161.4,173.1 161.3,173.2 161.3,173.2 161.3,173.3 161.2,173.3 
		161.2,173.3 161.2,173.4 161.1,173.4 161.1,173.5 161.1,173.5 161,173.5 161,173.6 161,173.6 160.9,173.7 160.9,173.7 160.9,173.7 
		160.8,173.8 160.8,173.8 160.8,173.9 160.7,173.9 160.7,174 160.7,174 160.6,174 160.6,174.1 160.6,174.1 160.6,174.2 160.5,174.2 
		160.5,174.2 160.5,174.3 160.5,174.3 160.4,174.4 160.4,174.4 160.4,174.4 160.3,174.5 160.3,174.5 160.3,174.6 160.3,174.6 
		160.2,174.6 160.2,174.7 160.2,174.7 160.2,174.8 160.2,174.8 160.1,174.8 160.1,174.9 160.1,174.9 160.1,175 160,175 160,175 
		160,175.1 160,175.1 160,175.1 159.9,175.2 159.9,175.2 159.9,175.3 159.9,175.3 159.9,175.3 159.8,175.4 159.8,175.4 159.8,175.5 
		159.8,175.5 159.8,175.5 159.8,175.6 159.7,175.6 159.7,175.7 159.7,175.7 159.7,175.7 159.7,175.8 159.7,175.8 159.3,176 
		159.1,175.6 159.1,175.6 159.1,175.5 159.1,175.5 159.1,175.4 159.1,175.4 159.2,175.3 159.2,175.3 159.2,175.3 159.2,175.2 
		159.2,175.2 159.2,175.1 159.3,175.1 159.3,175 159.3,175 159.3,175 159.3,174.9 159.4,174.9 159.4,174.8 159.4,174.8 159.4,174.7 
		159.4,174.7 159.5,174.6 159.5,174.6 159.5,174.6 159.5,174.5 159.5,174.5 159.6,174.4 159.6,174.4 159.6,174.3 159.6,174.3 
		159.7,174.2 159.7,174.2 159.7,174.2 159.7,174.1 159.8,174.1 159.8,174 159.8,174 159.8,173.9 159.9,173.9 159.9,173.8 
		159.9,173.8 160,173.8 160,173.7 160,173.7 160,173.6 160.1,173.6 160.1,173.5 160.1,173.5 160.2,173.4 160.2,173.4 160.2,173.3 
		160.3,173.3 160.3,173.3 160.3,173.2 160.4,173.2 160.4,173.1 160.4,173.1 160.5,173 160.5,173 160.5,172.9 160.6,172.9 
		160.6,172.8 160.6,172.8 160.7,172.8 160.7,172.7 160.7,172.7 160.8,172.6 160.8,172.6 160.9,172.5 160.9,172.5 160.9,172.4 
		161,172.4 161,172.3 161,172.3 161.1,172.2 161.1,172.2 161.2,172.2 161.2,172.1 161.3,172.1 161.3,172 161.3,172 161.4,171.9 
		161.4,171.9 161.5,171.8 161.5,171.8 161.6,171.7 161.6,171.7 161.6,171.6 161.7,171.6 161.7,171.5 161.8,171.5 161.8,171.5 
		161.9,171.4 161.9,171.4 162,171.3 162,171.3 162.1,171.2 162.1,171.2 162.2,171.1 162.2,171.1 162.3,171 162.3,171 162.4,170.9 
		162.4,170.9 162.5,170.8 162.5,170.8 162.6,170.7 162.6,170.7 162.7,170.6 162.7,170.6 162.8,170.5 162.8,170.5 162.9,170.5 
		162.9,170.4 163,170.4 163,170.3 163.1,170.3 163.2,170.2 163.2,170.2 163.3,170.1 163.3,170.1 163.4,170 163.4,170 163.5,169.9 
		163.6,169.9 163.6,169.8 163.7,169.8 163.7,169.7 163.7,169.7 164.1,169.6 	"/>
	<path class="st17" d="M166.1,167.3c0.7-0.7,2.1-1.6,2.8-2.1"/>
	<polygon class="st16" points="169.2,164.9 169.2,164.9 169.2,164.9 169.3,165.3 169.1,165.6 169.1,165.6 169.1,165.7 169.1,165.7 
		169,165.7 169,165.7 169,165.8 168.9,165.8 168.8,165.8 168.8,165.9 168.7,165.9 168.6,166 168.5,166.1 168.3,166.2 168.1,166.3 
		167.9,166.4 167.8,166.5 167.7,166.5 167.6,166.6 167.5,166.7 167.4,166.7 167.3,166.8 167.2,166.9 167.2,166.9 167.1,166.9 
		167.1,167 167,167 167,167 166.9,167.1 166.9,167.1 166.8,167.1 166.8,167.2 166.8,167.2 166.7,167.2 166.7,167.3 166.6,167.3 
		166.6,167.3 166.5,167.3 166.5,167.4 166.5,167.4 166.4,167.4 166.4,167.5 166.4,167.5 166.3,167.5 166.3,167.6 165.8,167.5 
		165.8,167.1 165.9,167.1 165.9,167 166,167 166,167 166,166.9 166.1,166.9 166.1,166.8 166.2,166.8 166.2,166.8 166.2,166.7 
		166.3,166.7 166.3,166.6 166.4,166.6 166.4,166.6 166.5,166.5 166.5,166.5 166.5,166.5 166.6,166.4 166.6,166.4 166.7,166.3 
		166.7,166.3 166.8,166.3 166.9,166.2 167,166.1 167.1,166 167.2,165.9 167.3,165.9 167.3,165.8 167.4,165.7 167.6,165.6 
		167.8,165.4 168,165.3 168,165.2 168.1,165.2 168.2,165.1 168.3,165.1 168.3,165 168.4,165 168.4,165 168.4,164.9 168.5,164.9 
		168.5,164.9 168.5,164.9 168.5,164.9 168.9,164.8 	"/>
</g>
</svg>
