<?xml version="1.0" encoding="utf-8"?>
<!-- Generator: Adobe Illustrator 22.1.0, SVG Export Plug-In . SVG Version: 6.00 Build 0)  -->
<svg version="1.1" id="Слой_1" xmlns="http://www.w3.org/2000/svg" xmlns:xlink="http://www.w3.org/1999/xlink" x="0px" y="0px"
	 viewBox="0 0 283.5 283.5" style="enable-background:new 0 0 283.5 283.5;" xml:space="preserve">
<style type="text/css">
	.st0{clip-path:url(#SVGID_2_);fill-rule:evenodd;clip-rule:evenodd;fill:#672883;}
	
		.st1{clip-path:url(#SVGID_2_);fill:none;stroke:#12100B;stroke-width:1.2;stroke-linecap:round;stroke-linejoin:round;stroke-miterlimit:10;}
	.st2{clip-path:url(#SVGID_2_);fill-rule:evenodd;clip-rule:evenodd;fill:#FFFFFF;}
	.st3{clip-path:url(#SVGID_2_);fill:none;stroke:#12100B;stroke-linecap:round;stroke-linejoin:round;stroke-miterlimit:10;}
	.st4{clip-path:url(#SVGID_4_);fill-rule:evenodd;clip-rule:evenodd;fill:#12100B;}
	.st5{clip-path:url(#SVGID_4_);fill-rule:evenodd;clip-rule:evenodd;fill:#FFFFFF;}
	
		.st6{clip-path:url(#SVGID_6_);fill:none;stroke:#12100B;stroke-width:1.2;stroke-linecap:round;stroke-linejoin:round;stroke-miterlimit:10;}
	.st7{clip-path:url(#SVGID_8_);fill-rule:evenodd;clip-rule:evenodd;fill:#12100B;}
	.st8{clip-path:url(#SVGID_8_);fill-rule:evenodd;clip-rule:evenodd;fill:#FFFFFF;}
	
		.st9{clip-path:url(#SVGID_10_);fill:none;stroke:#12100B;stroke-width:1.2;stroke-linecap:round;stroke-linejoin:round;stroke-miterlimit:10;}
	.st10{clip-path:url(#SVGID_10_);fill:none;stroke:#12100B;stroke-linecap:round;stroke-linejoin:round;stroke-miterlimit:10;}
	
		.st11{clip-path:url(#SVGID_10_);fill:none;stroke:#12100B;stroke-width:0.55;stroke-linecap:round;stroke-linejoin:round;stroke-miterlimit:10;}
	
		.st12{clip-path:url(#SVGID_10_);fill:none;stroke:#12100B;stroke-width:0.8;stroke-linecap:round;stroke-linejoin:round;stroke-miterlimit:10;}
	
		.st13{clip-path:url(#SVGID_10_);fill:none;stroke:#12100B;stroke-width:3;stroke-linecap:round;stroke-linejoin:round;stroke-miterlimit:10;}
	.st14{clip-path:url(#SVGID_10_);fill-rule:evenodd;clip-rule:evenodd;fill:#12100B;}
</style>
<g>
	<defs>
		<rect id="SVGID_1_" width="283.5" height="283.5"/>
	</defs>
	<clipPath id="SVGID_2_">
		<use xlink:href="#SVGID_1_"  style="overflow:visible;"/>
	</clipPath>
	<path class="st0" d="M59.7,235.8c0,0-3.1-42.6,7.4-53c5.4-5.4,10-8.9,19.7-12.1c11.2-3.7,27.4-5.6,27.4-5.6
		c2.6,5.6,7.1,9.7,13.7,11.7c13.4,4.2,33.5-0.1,39.3-13.8c19.7,2.2,36,6.1,45.5,14.8c12.2,17,11.2,43.5,11.2,43.5l-0.3,16.7
		c0,0-42.9,4.9-102.4,4.7C88.2,242.7,59.7,235.8,59.7,235.8"/>
	<path class="st1" d="M160.2,158.7c1.6,1.9,3,3.3,3,3.3s39,2.8,50.3,17.3c12.1,15.5,10.2,57.9,10.2,57.9"/>
	<path class="st1" d="M119.2,159.8c-1.9,2.5-4,4.4-4,4.4s-36,4.1-48.1,17.8c-11.2,12.6-7.2,53.7-7.2,53.7"/>
	<path class="st2" d="M140.7,47.3c25.5,0,49.1,20.6,49.1,53.5c0,8.6-4.6,15.9-7.5,23.9c-8,22.6-22.7,41.4-41.6,41.9
		c-15.9,0.4-24.5-9.2-32.8-19.4c-5.1-6.3-10.9-12.7-13.3-21.5c-1.8-6.3-5.8-13.7-5.8-20.8C88.8,72,115.2,47.3,140.7,47.3"/>
	<path class="st3" d="M140.7,47.3c25.5,0,49.1,20.6,49.1,53.5c0,8.6-4.6,15.9-7.5,23.9c-8,22.6-22.7,41.4-41.6,41.9
		c-15.9,0.4-24.5-9.2-32.8-19.4c-5.1-6.3-10.9-12.7-13.3-21.5c-1.8-6.3-5.8-13.7-5.8-20.8C88.8,72,115.2,47.3,140.7,47.3z"/>
	<path class="st2" d="M139.3,70.9c0,0-0.3,3.6,4.2,7.3c4.5,3.8,13.3,4.6,13.3,4.6s1,2.9,3.8,4.5c2.7,1.6,7.7,1.3,7.7,1.3
		s0.5,3.1,3.3,5c2.8,1.9,4.2,1,5.9,4c1.7,3,2.7,7,2.7,7s1.5-5.3,4.7-5.3c3.4,0,4.1,4.8,2.3,10.4c-1.6,4.9-7.1,10-7.1,10.1
		c-0.2,7.1-7.9,26.9-9.5,26.7c0,0,2.6,1.1,6.5-4.7c3.9-5.8,1-4.6,5.4-8c4-3.1,6-6.4,8.6-13.4c2.5-6.9,3.1-4.7,4.5-12.2
		c1.4-7.6,0.1-3.9,1.7-11.1c1.7-7.2,0.9-9-0.9-15.8c-1.8-6.8-2.9-9.5-5.5-14.6c-2.6-5.1-7.5-5.4-9.1-9.7c-1.6-4.3-9.1-8.2-13-10.6
		c-3.9-2.4-10.1-4.8-15.8-6.1c-5.7-1.4-13.5-1.6-13.5-1.6C136.6,48.6,135.9,59.1,139.3,70.9"/>
	<path class="st3" d="M139.3,70.9c0,0-0.3,3.6,4.2,7.3c4.5,3.8,13.3,4.6,13.3,4.6s1,2.9,3.8,4.5c2.7,1.6,7.7,1.3,7.7,1.3
		s0.5,3.1,3.3,5c2.8,1.9,4.2,1,5.9,4c1.7,3,2.7,7,2.7,7s1.5-5.3,4.7-5.3c3.4,0,4.1,4.8,2.3,10.4c-1.6,4.9-7.1,10-7.1,10.1
		c-0.2,7.1-7.9,26.9-9.5,26.7c0,0,2.6,1.1,6.5-4.7c3.9-5.8,1-4.6,5.4-8c4-3.1,6-6.4,8.6-13.4c2.5-6.9,3.1-4.7,4.5-12.2
		c1.4-7.6,0.1-3.9,1.7-11.1c1.7-7.2,0.9-9-0.9-15.8c-1.8-6.8-2.9-9.5-5.5-14.6c-2.6-5.1-7.5-5.4-9.1-9.7c-1.6-4.3-9.1-8.2-13-10.6
		c-3.9-2.4-10.1-4.8-15.8-6.1c-5.7-1.4-13.5-1.6-13.5-1.6C136.6,48.6,135.9,59.1,139.3,70.9z"/>
	<path class="st2" d="M99.6,103.7c0,0-0.3,1.8,3.9-0.3c4.2-2.1,5.4-6,5.4-6s6,0.1,9.6-4.2c3.6-4.3,2.5-6.1,6.6-7.8s6.4-4.5,9-8.4
		c2.6-3.9,5-7.2,5-7.2s-0.9-17.2,0-22.5c0.9-5.3,0-8.4,0-8.4l-15.6,3.3c0,0-18.2,5.4-21.1,10.2c-2.9,4.8-5.1,9-5.1,9
		s-9.3,3.7-11.2,14c-2.3,12.7,2.1,11.2-0.1,17c-2.2,5.8-4.5,12.1-1.7,19.8c2.7,7.6,3.8,4.6,3.3,9.4c-0.5,4.8,1.7,8.3,6.5,13
		c4.8,4.7,4.1,4,4.1,4s1.7,5.5,5.2,7.9c3.3,2.2,5.7,1.9,5.7,1.9c-6.3-7.6-8.9-16.3-9.9-27.8c-7.3-4.2-9.2-15.7-7.1-19.8
		C94.1,97,98.7,98,99.6,103.7"/>
	<path class="st3" d="M99.6,103.7c0,0-0.3,1.8,3.9-0.3c4.2-2.1,5.4-6,5.4-6s6,0.1,9.6-4.2c3.6-4.3,2.5-6.1,6.6-7.8s6.4-4.5,9-8.4
		c2.6-3.9,5-7.2,5-7.2s-0.9-17.2,0-22.5c0.9-5.3,0-8.4,0-8.4l-15.6,3.3c0,0-18.2,5.4-21.1,10.2c-2.9,4.8-5.1,9-5.1,9
		s-9.3,3.7-11.2,14c-2.3,12.7,2.1,11.2-0.1,17c-2.2,5.8-4.5,12.1-1.7,19.8c2.7,7.6,3.8,4.6,3.3,9.4c-0.5,4.8,1.7,8.3,6.5,13
		c4.8,4.7,4.1,4,4.1,4s1.7,5.5,5.2,7.9c3.3,2.2,5.7,1.9,5.7,1.9c-6.3-7.6-8.9-16.3-9.9-27.8c-7.3-4.2-9.2-15.7-7.1-19.8
		C94.1,97,98.7,98,99.6,103.7z"/>
	<path class="st1" d="M80.6,195.8c-1.5,11.1-1.7,29.4-0.6,44.1"/>
	<path class="st1" d="M199,193.6c2,11,2.5,31.6,2.1,46.4"/>
	<path class="st1" d="M114.5,164.2c0,0,3.3,9.5,14.3,12.4c11,2.9,18,2.4,25.8-0.7c7.8-3.1,12.7-13.1,12.7-13.1"/>
	<path class="st1" d="M130.8,108.9c-5-0.3-10.9,0.2-16.2,2.1"/>
	<path class="st1" d="M148.2,108.9c5-0.3,10.9,0.2,16.2,2.1"/>
	<path class="st1" d="M71.4,35.7c-5.9,32.6-5.7,64.7,0.6,103.3"/>
	<path class="st1" d="M208.9,65.3c1.9,24.2-0.7,51.5-3.7,69.5"/>
	<path class="st1" d="M77.1,76.7c0,20.2,0.6,39.1,2.6,54.4"/>
	<path class="st1" d="M59.7,103.9c1,7.5,1.7,15.1,2.2,22.9"/>
	<path class="st1" d="M201.4,92.4c0.5,14.3-0.1,25.7-1.6,34.5"/>
	<path class="st3" d="M179.3,85c-2.6,2.6-6.2,4.6-11.5,3.9"/>
	<path class="st3" d="M96.6,71.2c-1.2-4.4-0.5-7.3,2.2-11.8"/>
	<path class="st3" d="M182.3,58c2.6,4.2,4.5,12.9,1.9,17.8"/>
</g>
<g>
	<defs>
		<path id="SVGID_3_" d="M114.2,115.2c6.2,0.6,11.6,0.5,16.7,0.1c0.3-1.9,0.7-4.5-2-5.2c-1.2-0.4-2.7-0.5-4.4-0.5
			C119.6,109.5,113.7,111.3,114.2,115.2"/>
	</defs>
	<clipPath id="SVGID_4_">
		<use xlink:href="#SVGID_3_"  style="overflow:visible;"/>
	</clipPath>
	<path class="st4" d="M123.3,106.8c-2.6,0-4.7,1.8-4.7,3.9c0,2.2,2.1,3.9,4.7,3.9c2.6,0,4.7-1.8,4.7-3.9
		C127.9,108.5,125.8,106.8,123.3,106.8"/>
	<path class="st5" d="M120.6,109.7c-0.5,0-0.8,0.4-0.8,0.8c0,0.5,0.4,0.8,0.8,0.8c0.5,0,0.8-0.4,0.8-0.8
		C121.5,110.1,121.1,109.7,120.6,109.7"/>
</g>
<g>
	<defs>
		<rect id="SVGID_5_" width="283.5" height="283.5"/>
	</defs>
	<clipPath id="SVGID_6_">
		<use xlink:href="#SVGID_5_"  style="overflow:visible;"/>
	</clipPath>
	<path class="st6" d="M114.2,115.2c6.2,0.6,11.6,0.5,16.7,0.1c0.3-1.9,0.7-4.5-2-5.2C124,108.6,113.6,110,114.2,115.2z"/>
</g>
<g>
	<defs>
		<path id="SVGID_7_" d="M150.1,110.1c-2.7,0.8-2.3,3.4-2,5.2c5.1,0.4,10.6,0.6,16.7-0.1c0.5-3.9-5.3-5.7-10.3-5.7
			C152.8,109.5,151.3,109.7,150.1,110.1"/>
	</defs>
	<clipPath id="SVGID_8_">
		<use xlink:href="#SVGID_7_"  style="overflow:visible;"/>
	</clipPath>
	<path class="st7" d="M155.8,106.8c2.6,0,4.7,1.8,4.7,4.1c0,2.2-2.1,4.1-4.7,4.1c-2.6,0-4.7-1.8-4.7-4.1
		C151.1,108.6,153.2,106.8,155.8,106.8"/>
	<path class="st8" d="M153.3,109.9c0.5,0,0.8,0.4,0.8,0.8c0,0.5-0.4,0.8-0.8,0.8c-0.5,0-0.8-0.4-0.8-0.8
		C152.4,110.2,152.8,109.9,153.3,109.9"/>
</g>
<g>
	<defs>
		<rect id="SVGID_9_" width="283.5" height="283.5"/>
	</defs>
	<clipPath id="SVGID_10_">
		<use xlink:href="#SVGID_9_"  style="overflow:visible;"/>
	</clipPath>
	<path class="st9" d="M164.8,115.2c-6.2,0.6-11.6,0.5-16.7,0.1c-0.3-1.9-0.7-4.5,2-5.2C155,108.6,165.4,110,164.8,115.2z"/>
	<path class="st10" d="M138.3,48.8c0,0-23.9,9.2-17.9,10.8C124.2,60.7,138.3,48.8,138.3,48.8z"/>
	<path class="st10" d="M139.2,49.5c0,0,3.4,15.4,4.8,11.7C145.4,57.6,139.2,49.5,139.2,49.5z"/>
	<path class="st10" d="M138.8,49.5c0,0-10.9,15.6-11.4,11.8C127,58.4,138.8,49.5,138.8,49.5z"/>
	<path class="st10" d="M137.9,48c-2.9-2.4-14-4.4-12.4-1.8C127.1,48.7,137,48,137.9,48z"/>
	<path class="st10" d="M139.3,48.9c0,0,16.8-0.9,15.8-2.8c-0.8-1.5-5-1.2-8.8-0.1C142.6,47.1,139.3,48.9,139.3,48.9z"/>
	<path class="st10" d="M137.8,48.1c0,0,19,19.3,18.4,13.1C155.7,55,137.8,48.1,137.8,48.1z"/>
	<path class="st10" d="M120.5,135.8c-0.3,1.1-1.1,2.1-2.4,2.6"/>
	<path class="st10" d="M158.3,136.1c0.3,1,0.8,1.8,2,2.3"/>
	<path class="st11" d="M145.6,160.8c-3.8-1.3-7.6-1.4-11.3,0"/>
	<path class="st12" d="M134.8,154.3c3,2.3,7.5,2.6,10.3,0.2"/>
	<path class="st11" d="M145.1,140.7c-3.5-0.2-7-0.2-10.3,0"/>
	<path class="st10" d="M97.4,90.8c0.1,3.8,3.9,5.9,12,6.6"/>
	<line class="st10" x1="98.7" y1="117.1" x2="99.5" y2="121.5"/>
	<path class="st10" d="M92.5,100.2c2.6-0.2,4.7,3.9,6.2,12.6"/>
	<path class="st10" d="M187.1,100.7c-2.6-0.2-4.7,3.9-6.2,12.6"/>
	<path class="st10" d="M136.1,117.9c0.5,4.1-0.4,7.8-2.5,11.2"/>
	<path class="st10" d="M131.5,130.7c6,6.8,10.7,5.6,14.6,0.1"/>
	<path class="st13" d="M112.1,102.9c5.6-1,15.4-1.9,21.5-1.5"/>
	<path class="st13" d="M146.2,102c6.7-0.5,15.8,0.2,21.5,1.6"/>
	<path class="st10" d="M119.8,137.6c14.3,8.1,26.3,7.8,38.7,0"/>
	<path class="st10" d="M125,140.6c4.9,4.1,7.5,11.9,15,12.3c6,0.3,9.9-8.7,14.6-13.1"/>
	<polygon class="st14" points="218.1,117.9 218.2,104.5 210.9,107.9 220.6,86.6 229.7,107.6 222.3,104.6 222.1,133 222,146.4 
		229.3,143 219.7,164.3 210.6,143.4 218,146.3 218,133 218,133 218,126.1 218.1,117.9 	"/>
</g>
</svg>
