<?xml version="1.0" encoding="utf-8"?>
<!-- Generator: Adobe Illustrator 22.1.0, SVG Export Plug-In . SVG Version: 6.00 Build 0)  -->
<svg version="1.1" id="Слой_4" xmlns="http://www.w3.org/2000/svg" xmlns:xlink="http://www.w3.org/1999/xlink" x="0px" y="0px"
	 viewBox="0 0 512 512" style="enable-background:new 0 0 512 512;" xml:space="preserve">
<style type="text/css">
	.st0{fill:#857154;}
	.st1{fill:#FDCD95;}
	.st2{fill:#FDCD95;stroke:#000000;stroke-width:2.3284;stroke-linecap:round;stroke-linejoin:round;stroke-miterlimit:10;}
	.st3{fill:none;stroke:#1D1D1B;stroke-width:2.3284;stroke-linecap:round;stroke-linejoin:round;stroke-miterlimit:10;}
	.st4{fill:none;stroke:#000000;stroke-width:2.3284;stroke-linecap:round;stroke-linejoin:round;stroke-miterlimit:10;}
	.st5{fill:none;stroke:#000000;stroke-width:1.5523;stroke-linecap:round;stroke-linejoin:round;stroke-miterlimit:10;}
	.st6{fill:#FFFFFF;}
	.st7{fill:#FDCD95;stroke:#000000;stroke-width:3;stroke-linecap:round;stroke-linejoin:round;stroke-miterlimit:10;}
	.st8{fill:none;stroke:#000000;stroke-width:2;stroke-linecap:round;stroke-linejoin:round;stroke-miterlimit:10;}
	.st9{fill:#B5D758;stroke:#000000;stroke-width:3;stroke-linecap:round;stroke-linejoin:round;stroke-miterlimit:10;}
	.st10{fill:none;stroke:#000000;stroke-width:3;stroke-linecap:round;stroke-linejoin:round;stroke-miterlimit:10;}
	.st11{fill:none;stroke:#000000;stroke-width:3;stroke-miterlimit:10;}
	.st12{fill:#FFAFB9;}
</style>
<g>
	<path d="M166.4,223.1c0,0-11.1-3.3-14.4,11s-3.5,32.8,9.2,32.7c12.7-0.2,21.5-12,21.5-13.3c0-1.3-15.5-29-15.5-29"/>
	<path d="M343,227.2c0,0,12.2-10,15.6,0c3.4,10,5.8,50.6-15.6,40.6c-21.3-10-13-26.7-13-26.7L343,227.2z"/>
	<polyline points="225.3,215.7 239.4,210.6 239.4,227.6 225.3,215.7 	"/>
	<polygon points="285.2,212 298.9,215.6 287.4,227.2 284.7,218.7 	"/>
	<path class="st0" d="M284.2,203.6v4.1l11.3,2.7l13.7-1.9l10.6-5.9l10.1-12.2c0,0,8.2-12.7,8.1-25.3c-0.1-12.6-0.9-21.1-0.9-21.1
		s-3.2-19.9-6.6-24.2s-6.2-16.2-10.2-18.5s-7.6-12.7-14.8-15.5l-11.3-6.8l-9.2-2.9l-12-0.9l-2.4,1.5l-7.2-2.5l-6.2-0.7l-9.4,1.7
		l-3.6,1.8l-5.8-0.1l-13.3,3.9l-8.3,5.5L205.9,98l-8.6,15.7c0,0-3.6,9.8-4.2,12.1c-0.6,2.3-3.9,24.3-3.6,29.1
		c0.3,4.7,3.3,22.3,5,26.5s7.4,13.9,8.4,15.1c1.1,1.3,8.9,10,15.8,11.2c6.9,1.2,9.7,2.2,13.6,2.3s7-1.5,7-1.5l6.4-13.1l21.1-0.6
		c0,0,9.5,2.7,10.4,2.9c0.8,0.2,7,2.7,7,2.7V203.6z"/>
	<path class="st1" d="M285.7,231.6l-9.8,3.8l-12.4,1.8c0,0-14.2-0.5-18.2-2.8s-5.9-3.6-5.9-3.6l0.9-26.8c0,0-16.2-8.6-21.6-18.1
		s-8.2-17.6-8.2-17.6l-1.8-18.1l5-5.3l4-7.2l3.6,2.5l3.9,0.5l5.8-7.2l4.7-10.3l1.8,4.1l3.9,2.5l3-2.6l5.1-10.5l0.2,5.6l2.5,2.4
		l4.3-0.4l4.2-4.3l3.7,2.4l3.3,2.6l4.1,0.5l4-3.4l3.7-5.5l1.8,5.3l3.8,7.3l2.1,3.1h2.3l4.3-3.3l2.3,7.2l2.8,3.5l4.9-0.7l1.7,6.1
		l2.1,3.4l4.3-0.5l2.1-2.7l0.5,12.6l-4.7,19l-8.5,13.2L288,201.7l-5.1,2.4L285.7,231.6z"/>
	<path class="st2" d="M314,145.2c0.7-0.2,1.4-0.3,2.1-0.2c4.3,0.5,7.1,6.6,6.3,13.7c-0.8,7.1-4.9,12.4-9.2,11.9
		c-0.3,0-0.7-0.1-1-0.2"/>
	<path class="st3" d="M208.7,149.1c0,0.3,0,0.7,0,1.1"/>
	<path class="st4" d="M212.3,173.7c2.7,7.3,6.9,13.8,12.2,19.2c4.3,4.4,9.4,8.1,14.9,10.8c6.8,3.3,14.3,5.1,22.3,5.1
		s15.5-1.8,22.3-5.1c5.8-2.8,10.9-6.6,15.4-11.2c5.8-6.1,10.3-13.6,12.9-22c1.6-5.3,2.5-10.9,2.5-16.7c0-2.9-0.2-5.8-0.6-8.5"/>
	<path class="st4" d="M239.4,203.6L239.4,203.6v4.9v1.6v20.7c20.8,15.5,46.3,0.8,46.3,0.8"/>
	<polyline class="st4" points="285.7,231.6 284.2,207.7 284,203.6 284,203.6 	"/>
	<path class="st2" d="M212.3,173.7c-0.6,0.5-1.3,0.8-2.1,1c-4.2,0.9-8.8-4-10.3-11c-1.5-7,0.7-13.4,4.9-14.3c1.3-0.3,2.6,0,3.9,0.7
		c0,1.2,0,2.7,0,3.6C208.7,160.8,210,167.5,212.3,173.7z"/>
	<path class="st3" d="M208.8,150.2c0,0-0.1-0.1-0.1-0.1"/>
	<path class="st4" d="M239.4,208.5c-4.9,1.6-10,2.1-15,1.3c-24.4-3.9-39.5-36.8-33.6-73.4c5.8-36,29.6-62.1,53.6-59.3"/>
	<path class="st4" d="M269.4,76.6c25-6.5,53.6,16.6,64.5,52.4c11.1,36.4-0.5,72.2-25.8,79.9c-7.8,2.4-16,1.8-23.9-1.2"/>
	<path class="st3" d="M244.4,77.1c3.6-2.2,8.1-3.5,12.9-3.5c4.4,0,8.6,1.1,12,3"/>
	<path class="st4" d="M202.3,117.6c0,0-1.1,51.7,13,22.9c0,0,1.5-2.8,3.4-6.2c2.5-4.5,5.6-10,6.6-11.2"/>
	<path class="st4" d="M314,145.2c0,0-6.6,12.1-10.3-6.4c0,0-6.9,6.1-9.4-9.1"/>
	<path class="st4" d="M297.1,117.6c0,0-3.6,25.1-13.1,9.9c0,0-4.8-8.8-4.8-13.8c0,0-4.8,22.9-17.4,5.2c0,0-13.2,15.2-12.1-3.9
		c0,0-7.5,26.7-13.8,8c0,0-9.7,28.4-18,13"/>
	<path class="st4" d="M307.6,96c0,0,12.4,19.1,13.8,36.2"/>
	<path class="st4" d="M225.3,98c0,0-11.2,9.4-12.9,22.9"/>
	<path class="st4" d="M253.2,165.2c0,0,7.4-4.4,13.5-0.5"/>
	<path class="st5" d="M235.3,181.4c0,0,0.8,5.6,3.2,6.7"/>
	<path class="st5" d="M285.9,179.6c0,0-0.4,4.2-1.6,6.5"/>
	<ellipse cx="240.4" cy="153.3" rx="5.1" ry="8"/>
	<ellipse class="st6" cx="240.4" cy="153.3" rx="2" ry="3"/>
	<path class="st4" d="M230.5,149.8c0,0,7-7.8,19.9-1.3"/>
	<ellipse cx="277" cy="153.3" rx="5.1" ry="8"/>
	<ellipse class="st6" cx="276.9" cy="153.3" rx="2" ry="3"/>
	<path class="st4" d="M267.1,149.8c0,0,8.9-8.5,19.9-0.2"/>
	<path class="st4" d="M225.9,142.2c0,0,11.9-12.8,24.6-3.4"/>
	<path class="st4" d="M289.4,141.4c0,0-11.9-12.8-24.6-3.4"/>
	<g>
		<path class="st7" d="M171.9,256.8c-0.3,0.9-1.3,1.4-2.3,1.2c-8.8-2.4-52.9-16.5-71.2-23.9c-18.4-7.4-41.6-7.6-44.1-6.6
			c-2.5,1-39.6,10.3-18.3,0.3c0.1,0,0.2-0.1,0.3-0.1c1.7-0.5,17.8-5.2,3.4-7.2c-15.3-2.1-24.5-5.4-8.8-5.6s23.9-0.1,8.9-4.5
			c0,0-29.3-7.7-15.7-8.5c3.2-0.2,6.4,0.1,9.5,0.9c6.2,1.5,17.8,3.9,12-0.8c-0.1-0.1-0.2-0.2-0.4-0.2c-2.5-1.2-28.2-13.9-7.4-8.9
			c0.1,0,0.2,0,0.2,0.1c1.4,0.5,14.2,5.5,21.4,7c1.6,0.3,2.8-1.4,2-2.8c-2.8-4.6-7.2-12.8-3.4-13.4c0.6-0.1,1.2,0.2,1.6,0.6
			c1.9,2.1,8.2,9.2,9.6,10.4c1.6,1.4,9,8.4,11.4,13.3s52,14.5,53.5,14.8s33.4,7.4,37.1,9.8c3.4,2.2,3.1,15.1,3,17.2
			c0,0.2,0,0.4-0.1,0.5L171.9,256.8z"/>
		<path class="st8" d="M60.7,206.9c0,0-4.1,3.1-3.3,10"/>
		<path class="st8" d="M65.8,209.9c0,0-2.7,2-2.1,6.5"/>
	</g>
	<g>
		<path class="st7" d="M340.1,256.8c0.3,0.9,1.3,1.4,2.3,1.2c8.8-2.4,52.9-16.5,71.2-23.9c18.4-7.4,41.6-7.6,44.1-6.6
			c2.5,1,39.6,10.3,18.3,0.3c-0.1,0-0.2-0.1-0.3-0.1c-1.7-0.5-17.8-5.2-3.4-7.2c15.3-2.1,24.5-5.4,8.8-5.6s-23.9-0.1-8.9-4.5
			c0,0,29.3-7.7,15.7-8.5c-3.2-0.2-6.4,0.1-9.5,0.9c-6.2,1.5-17.8,3.9-12-0.8c0.1-0.1,0.2-0.2,0.4-0.2c2.5-1.2,28.2-13.9,7.4-8.9
			c-0.1,0-0.2,0-0.2,0.1c-1.4,0.5-14.2,5.5-21.4,7c-1.6,0.3-2.8-1.4-2-2.8c2.8-4.6,7.2-12.8,3.4-13.4c-0.6-0.1-1.2,0.2-1.6,0.6
			c-1.9,2.1-8.2,9.2-9.6,10.4c-1.6,1.4-9,8.4-11.4,13.3s-52,14.5-53.5,14.8s-33.4,7.4-37.1,9.8c-3.4,2.2-3.1,15.1-3,17.2
			c0,0.2,0,0.4,0.1,0.5L340.1,256.8z"/>
		<path class="st8" d="M451.3,206.9c0,0,4.1,3.1,3.3,10"/>
		<path class="st8" d="M446.2,209.9c0,0,2.7,2,2.1,6.5"/>
	</g>
	<path class="st9" d="M229.7,215.8c0,0-58.7,8.4-65.2,7.8c0,0,9.3,12.3-4.2,41.3c0,0,41.5,3.5,45,14.5s-16,136-16,136s65,49.5,148,3
		c0,0-26-133.5-9-140.5s24-9.5,24-9.5s-14.5-27-2.5-44.5l-55.5-8.1c0,0-6.7,17.5-26.6,19.8c-13.7,1.6-27.1-4.7-35.2-15.9
		L229.7,215.8z"/>
	<line class="st10" x1="205.6" y1="263" x2="205.6" y2="290"/>
	<line class="st10" x1="319.8" y1="264.5" x2="322.6" y2="297"/>
	<g>
		<path class="st11" d="M245.1,305.4h-19.5c-3.7,0-6.8-3-6.8-6.8v-22.8c0-3.7,3-6.8,6.8-6.8h19.5c3.7,0,6.8,3,6.8,6.8v22.8
			C251.8,302.4,248.8,305.4,245.1,305.4z"/>
		<path class="st11" d="M219.9,271.7l11.8,11.9c2,2,5.2,1.9,7.1-0.2l11.1-12.7"/>
	</g>
	<g>
		<polygon points="243.4,184.7 278.4,183.3 272.2,190.7 267.3,193.5 256.8,194.4 248,189.9 		"/>
		<path class="st6" d="M243.4,184.7c0,0,12.6,5.5,34.3,0l1.3-3.7l-36.5,1.5L243.4,184.7z"/>
		<path class="st12" d="M252,192.6c0,0,17-5.1,22.4-3.8l-7.1,4.8C267.3,193.5,258.2,197.2,252,192.6z"/>
		<path class="st10" d="M279,181c-10,1.6-27.8,1.6-36.5,1.5c1.2,4.6,9.3,12.3,18.2,12.4C270.5,195,278.7,185.5,279,181z"/>
	</g>
</g>
</svg>
