<?xml version="1.0" encoding="utf-8"?>
<!-- Generator: Adobe Illustrator 22.1.0, SVG Export Plug-In . SVG Version: 6.00 Build 0)  -->
<svg version="1.1" id="Слой_1" xmlns="http://www.w3.org/2000/svg" xmlns:xlink="http://www.w3.org/1999/xlink" x="0px" y="0px"
	 viewBox="0 0 283.5 283.5" style="enable-background:new 0 0 283.5 283.5;" xml:space="preserve">
<style type="text/css">
	.st0{clip-path:url(#SVGID_2_);fill-rule:evenodd;clip-rule:evenodd;fill:#65B5E5;}
	.st1{clip-path:url(#SVGID_4_);fill-rule:evenodd;clip-rule:evenodd;fill:#FFFFFF;}
	.st2{clip-path:url(#SVGID_4_);fill:none;stroke:#12100B;stroke-linecap:round;stroke-linejoin:round;stroke-miterlimit:10;}
	.st3{clip-path:url(#SVGID_6_);fill:none;stroke:#12100B;stroke-linecap:round;stroke-linejoin:round;stroke-miterlimit:10;}
	.st4{clip-path:url(#SVGID_6_);fill-rule:evenodd;clip-rule:evenodd;fill:#12100B;}
	.st5{clip-path:url(#SVGID_6_);fill-rule:evenodd;clip-rule:evenodd;fill:#FFFFFF;}
	
		.st6{clip-path:url(#SVGID_6_);fill:none;stroke:#12100B;stroke-width:0.85;stroke-linecap:round;stroke-linejoin:round;stroke-miterlimit:10;}
	.st7{clip-path:url(#SVGID_8_);fill-rule:evenodd;clip-rule:evenodd;fill:#12100B;}
	.st8{clip-path:url(#SVGID_8_);fill-rule:evenodd;clip-rule:evenodd;fill:#FFFFFF;}
	.st9{clip-path:url(#SVGID_10_);fill:none;stroke:#12100B;stroke-linecap:round;stroke-linejoin:round;stroke-miterlimit:10;}
	.st10{clip-path:url(#SVGID_12_);fill-rule:evenodd;clip-rule:evenodd;fill:#12100B;}
	.st11{clip-path:url(#SVGID_12_);fill-rule:evenodd;clip-rule:evenodd;fill:#FFFFFF;}
	.st12{clip-path:url(#SVGID_14_);fill:none;stroke:#12100B;stroke-linecap:round;stroke-linejoin:round;stroke-miterlimit:10;}
	.st13{clip-path:url(#SVGID_14_);fill-rule:evenodd;clip-rule:evenodd;fill:#12100B;}
	
		.st14{clip-path:url(#SVGID_14_);fill:none;stroke:#12100B;stroke-width:0.85;stroke-linecap:round;stroke-linejoin:round;stroke-miterlimit:10;}
	.st15{clip-path:url(#SVGID_14_);fill-rule:evenodd;clip-rule:evenodd;fill:#FFFFFF;}
</style>
<g>
	<defs>
		<rect id="SVGID_1_" width="283.5" height="283.5"/>
	</defs>
	<clipPath id="SVGID_2_">
		<use xlink:href="#SVGID_1_"  style="overflow:visible;"/>
	</clipPath>
	<path class="st0" d="M203.5,172.3l-20.8-19.2l1,20L203.5,172.3z M132.9,113.8l0.2-17.6l20.7,0.5v16.9c0,0.1-0.1,0.1-0.1,0.2
		c1.9,0.1,19.5,0.4,30.1,5.8c8.8,4.5,28.8,28.1,39.9,42.3c4.3,5.5,12.9,16.9,8.6,23.4c-2.2,3.4-7.1,5.6-16.1,6l-30.7,2.6l1.1,63.5
		c-9.4,2.4-20.5,9.5-34.1,7.2c-23.9-4-41.6,0.7-48.2-6.3l2.1-72.7l-7.2,38.2l4.6,47.5l-17.1,2.8c0,0-9.2-37.9-7.8-53.5
		c1.3-14.1,4-57.7,10-83.3c2.6-11.2,7.1-13.8,10.7-16.1C112.1,113.3,132.9,113.8,132.9,113.8"/>
</g>
<g>
	<defs>
		<path id="SVGID_3_" d="M182.7,153.2l20.8,19.2l-19.8,0.8L182.7,153.2z M132.9,113.8c0,0-20.8-0.5-33.3,7.5
			c-3.6,2.3-8.1,4.9-10.7,16.1c-6.1,25.6-8.7,69.2-10,83.3c-1.5,15.6,7.8,53.5,7.8,53.5l17.1-2.8l-4.6-47.5l7.2-38.2l-2.1,72.7
			c6.6,6.9,24.3,2.3,48.2,6.3c13.6,2.3,24.7-4.9,34.1-7.2l-1.1-63.5l30.7-2.6c9-0.4,13.9-2.6,16.1-6c4.3-6.5-4.3-17.9-8.6-23.4
			c-11.2-14.2-31.1-37.8-39.9-42.3c-10.6-5.4-28.2-5.7-30.1-5.8c0-0.1,0.1-0.1,0.1-0.2V96.7l-20.7-0.5L132.9,113.8z"/>
	</defs>
	<clipPath id="SVGID_4_">
		<use xlink:href="#SVGID_3_"  style="overflow:visible;"/>
	</clipPath>
	<path class="st1" d="M143.3,89.6c11,0,20,8.8,20,19.6c0,10.8-8.9,19.6-20,19.6c-11,0-20-8.8-20-19.6
		C123.3,98.4,132.2,89.6,143.3,89.6"/>
	<path class="st2" d="M143.3,89.6c11,0,20,8.8,20,19.6c0,10.8-8.9,19.6-20,19.6c-11,0-20-8.8-20-19.6
		C123.3,98.4,132.2,89.6,143.3,89.6z"/>
</g>
<g>
	<defs>
		<rect id="SVGID_5_" width="283.5" height="283.5"/>
	</defs>
	<clipPath id="SVGID_6_">
		<use xlink:href="#SVGID_5_"  style="overflow:visible;"/>
	</clipPath>
	<path class="st3" d="M203.5,172.3l-20.8-19.2l1,20L203.5,172.3z M132.9,113.8l0.2-17.6l20.7,0.5v16.9c0,0.1-0.1,0.1-0.1,0.2
		c1.9,0.1,19.5,0.4,30.1,5.8c8.8,4.5,28.8,28.1,39.9,42.3c4.3,5.5,12.9,16.9,8.6,23.4c-2.2,3.4-7.1,5.6-16.1,6l-30.7,2.6l1.1,63.5
		c-9.4,2.4-20.5,9.5-34.1,7.2c-23.9-4-41.6,0.7-48.2-6.3l2.1-72.7l-7.2,38.2l4.6,47.5l-17.1,2.8c0,0-9.2-37.9-7.8-53.5
		c1.3-14.1,4-57.7,10-83.3c2.6-11.2,7.1-13.8,10.7-16.1C112.1,113.3,132.9,113.8,132.9,113.8z"/>
	<line class="st3" x1="89.9" y1="273.5" x2="91.7" y2="283.9"/>
	<line class="st3" x1="100.7" y1="272" x2="102.5" y2="281.9"/>
	<polygon class="st4" points="103.4,147.2 103.5,147.4 103.5,147.4 103.6,147.4 103.6,147.5 103.6,147.5 103.6,147.6 103.7,147.6 
		103.7,147.7 103.7,147.7 103.7,147.8 103.8,147.8 103.8,147.9 103.8,147.9 103.8,148 103.9,148 103.9,148.1 103.9,148.1 
		103.9,148.2 104,148.2 104,148.3 104,148.3 104.1,148.4 104.1,148.5 104.1,148.5 104.2,148.6 104.2,148.6 104.2,148.7 104.3,148.7 
		104.3,148.8 104.4,148.8 104.4,148.9 104.4,149 104.5,149 104.5,149.1 104.5,149.1 104.6,149.2 104.6,149.3 104.7,149.3 
		104.7,149.4 104.7,149.4 104.8,149.5 104.8,149.5 104.9,149.6 104.9,149.7 105,149.7 105,149.8 105,149.8 105.1,149.9 105.1,150 
		105.2,150 105.2,150.1 105.3,150.1 105.3,150.2 105.3,150.2 105.4,150.3 105.4,150.4 105.5,150.4 105.5,150.5 105.6,150.6 
		105.7,150.7 105.8,150.8 105.9,150.9 106,151.1 106.1,151.2 106.2,151.3 106.3,151.4 106.4,151.5 106.5,151.6 106.5,151.7 
		106.6,151.8 106.7,151.9 106.8,152 106.9,152.1 107,152.2 107.1,152.3 107.2,152.4 107.3,152.5 107.3,152.6 107.4,152.7 
		107.5,152.8 107.6,152.9 107.7,153 107.8,153.1 107.8,153.2 107.9,153.3 108,153.3 108.1,153.4 108.1,153.5 108.3,153.6 
		108.4,153.8 108.5,153.9 108.5,153.9 108.6,154 108.6,154 108.6,154.1 108.6,154.1 107,185.6 107,185.6 106.8,185.9 106.5,186 
		106.5,186 106.1,185.8 106,185.6 106,185.6 107.9,154.2 107.9,154.2 107.7,154.1 107.6,154 107.5,153.9 107.5,153.8 107.4,153.7 
		107.3,153.6 107.2,153.6 107.2,153.5 107.1,153.4 107,153.3 106.9,153.2 106.8,153.1 106.8,153 106.7,152.9 106.6,152.8 
		106.5,152.7 106.4,152.6 106.3,152.5 106.2,152.4 106.1,152.3 106,152.2 105.9,152 105.8,151.9 105.8,151.8 105.7,151.7 
		105.6,151.6 105.5,151.5 105.4,151.4 105.3,151.2 105.2,151.1 105.1,151 105,150.9 105,150.8 104.9,150.8 104.9,150.7 104.8,150.6 
		104.8,150.6 104.7,150.5 104.7,150.5 104.6,150.4 104.6,150.3 104.6,150.3 104.5,150.2 104.5,150.2 104.4,150.1 104.4,150 
		104.3,150 104.3,149.9 104.3,149.9 104.2,149.8 104.2,149.7 104.1,149.7 104.1,149.6 104,149.6 104,149.5 104,149.4 103.9,149.4 
		103.9,149.3 103.9,149.3 103.8,149.2 103.8,149.1 103.7,149.1 103.7,149 103.7,149 103.6,148.9 103.6,148.8 103.6,148.8 
		103.5,148.7 103.5,148.7 103.5,148.6 103.4,148.5 103.4,148.5 103.4,148.4 103.3,148.4 103.3,148.3 103.3,148.3 103.2,148.2 
		103.2,148.1 103.2,148.1 103.2,148 103.1,148 103.1,147.9 103.1,147.9 103.1,147.8 103,147.8 103,147.7 103,147.6 103,147.6 
		103,147.6 103,147.4 103.1,147.2 103.1,147.2 	"/>
	<polygon class="st4" points="186,144.9 185.9,145.1 185.8,145.3 185.8,145.6 185.7,145.9 185.7,146.1 185.6,146.4 185.6,146.6 
		185.5,146.7 185.5,146.9 185.5,147 185.4,147.2 185.4,147.3 185.4,147.5 185.3,147.7 185.3,147.8 185.2,148 185.2,148.1 
		185.2,148.3 185.1,148.5 185.1,148.6 185,148.8 185,148.9 185,149.1 184.9,149.3 184.9,149.3 184.9,149.4 184.8,149.5 184.8,149.6 
		184.8,149.7 184.8,149.7 184.8,149.8 184.7,149.9 184.7,150 184.7,150 184.7,150.1 184.6,150.2 184.6,150.3 184.6,150.4 
		184.6,150.4 184.5,150.5 184.5,150.6 184.5,150.7 184.5,150.7 184.4,150.8 184.4,150.9 184.4,151 184.4,151 184.3,151.1 
		184.3,151.2 184.3,151.2 184.3,151.3 184.2,151.4 184.2,151.5 184.2,151.5 184.2,151.6 184.1,151.7 184.1,151.7 184.1,151.8 
		184,151.9 184,151.9 184,152 184,152 183.9,152.1 183.9,152.2 183.9,152.2 183.8,152.3 183.8,152.4 183.8,152.4 183.8,152.5 
		183.7,152.5 183.7,152.6 183.7,152.6 183.6,152.7 183.6,152.7 183.6,152.8 183.5,152.9 183.5,152.9 183.5,153 183.4,153 183.4,153 
		183.4,153.1 183.4,153.1 183.4,153.1 183.4,153.1 183.3,153.1 183.3,153.2 183.3,153.2 183.3,153.2 183.3,153.2 183.3,153.3 
		183.2,153.3 183.2,153.3 183.2,153.3 183.2,153.3 183.2,153.4 183.2,153.4 183.1,153.4 183.1,153.4 183.1,153.4 183.1,153.5 
		183.1,153.5 183,153.5 183,153.5 183,153.5 183,153.6 183,153.6 182.6,153.7 182.3,153.5 182.3,153.5 182.2,153.1 182.3,152.8 
		182.4,152.8 182.4,152.8 182.4,152.7 182.4,152.7 182.4,152.7 182.4,152.7 182.4,152.7 182.4,152.7 182.5,152.7 182.5,152.7 
		182.5,152.7 182.5,152.6 182.5,152.6 182.5,152.6 182.5,152.6 182.5,152.6 182.6,152.6 182.6,152.6 182.6,152.5 182.6,152.5 
		182.6,152.5 182.6,152.5 182.6,152.5 182.7,152.5 182.7,152.4 182.7,152.4 182.7,152.4 182.8,152.3 182.8,152.3 182.8,152.2 
		182.8,152.2 182.9,152.2 182.9,152.1 182.9,152.1 183,152 183,152 183,151.9 183.1,151.9 183.1,151.8 183.1,151.8 183.1,151.7 
		183.2,151.7 183.2,151.6 183.2,151.5 183.3,151.5 183.3,151.4 183.3,151.4 183.4,151.3 183.4,151.2 183.4,151.2 183.4,151.1 
		183.5,151.1 183.5,151 183.5,150.9 183.6,150.9 183.6,150.8 183.6,150.7 183.6,150.7 183.7,150.6 183.7,150.5 183.7,150.5 
		183.8,150.4 183.8,150.3 183.8,150.2 183.9,150.2 183.9,150.1 183.9,150 183.9,150 184,149.9 184,149.8 184,149.7 184.1,149.7 
		184.1,149.6 184.1,149.5 184.1,149.4 184.2,149.4 184.2,149.3 184.2,149.2 184.3,149.1 184.3,149.1 184.3,148.9 184.4,148.7 
		184.4,148.6 184.5,148.4 184.5,148.3 184.6,148.1 184.7,148 184.7,147.8 184.8,147.7 184.8,147.5 184.9,147.4 184.9,147.2 
		184.9,147.1 185,146.9 185,146.8 185.1,146.6 185.1,146.5 185.2,146.3 185.3,146 185.3,145.8 185.4,145.5 185.5,145.2 185.6,145 
		185.6,144.8 185.8,144.6 	"/>
	<polygon class="st4" points="133.3,113.5 133.3,113.5 133.4,113.6 133.4,113.6 133.4,113.6 133.4,113.7 133.4,113.7 133.5,113.7 
		133.5,113.8 133.5,113.8 133.5,113.8 133.5,113.9 133.6,113.9 133.6,113.9 133.6,114 133.6,114 133.6,114 133.7,114.1 133.7,114.1 
		133.7,114.1 133.7,114.1 133.8,114.2 133.8,114.2 133.8,114.2 133.8,114.3 133.9,114.3 133.9,114.3 133.9,114.4 133.9,114.4 
		134,114.4 134,114.5 134,114.5 134,114.5 134.1,114.5 134.1,114.6 134.1,114.6 134.1,114.6 134.2,114.7 134.2,114.7 134.2,114.7 
		134.2,114.7 134.3,114.8 134.3,114.8 134.3,114.8 134.4,114.8 134.4,114.9 134.4,114.9 134.4,114.9 134.5,115 134.5,115 134.5,115 
		134.6,115 134.6,115.1 134.6,115.1 134.7,115.1 134.7,115.1 134.7,115.2 134.7,115.2 134.8,115.2 134.8,115.2 134.8,115.2 
		134.9,115.3 134.9,115.3 134.9,115.3 135,115.3 135,115.4 135,115.4 135.1,115.4 135.1,115.4 135.1,115.4 135.2,115.5 135.2,115.5 
		135.2,115.5 135.3,115.5 135.3,115.6 135.3,115.6 135.4,115.6 135.4,115.6 135.4,115.6 135.5,115.7 135.5,115.7 135.5,115.7 
		135.6,115.7 135.6,115.7 135.7,115.7 135.7,115.8 135.7,115.8 135.8,115.8 135.8,115.8 135.8,115.8 135.9,115.8 135.9,115.9 
		135.9,115.9 136,115.9 136,115.9 136.1,115.9 136.1,115.9 136.1,116 136.2,116 136.2,116 136.2,116 136.3,116 136.3,116 136.4,116 
		136.4,116.1 136.4,116.1 136.5,116.1 136.5,116.1 136.6,116.1 136.6,116.1 136.6,116.1 136.7,116.1 136.7,116.2 136.8,116.2 
		136.8,116.2 136.8,116.2 136.9,116.2 136.9,116.2 137,116.2 137,116.2 137,116.2 137.1,116.2 137.1,116.3 137.2,116.3 137.2,116.3 
		137.2,116.3 137.3,116.3 137.3,116.3 137.4,116.3 137.4,116.3 137.6,116.5 137.4,116.6 137.3,116.6 137.3,116.6 137.2,116.6 
		137.2,116.6 137.2,116.6 137.1,116.6 137.1,116.6 137,116.6 137,116.6 136.9,116.6 136.9,116.6 136.8,116.6 136.8,116.6 
		136.8,116.6 136.7,116.6 136.7,116.6 136.6,116.6 136.6,116.6 136.5,116.5 136.5,116.5 136.5,116.5 136.4,116.5 136.4,116.5 
		136.3,116.5 136.3,116.5 136.2,116.5 136.2,116.5 136.2,116.5 136.1,116.5 136.1,116.4 136,116.4 136,116.4 135.9,116.4 
		135.9,116.4 135.9,116.4 135.8,116.4 135.8,116.4 135.7,116.4 135.7,116.3 135.6,116.3 135.6,116.3 135.6,116.3 135.5,116.3 
		135.5,116.3 135.4,116.3 135.4,116.2 135.4,116.2 135.3,116.2 135.3,116.2 135.2,116.2 135.2,116.2 135.2,116.2 135.1,116.1 
		135.1,116.1 135,116.1 135,116.1 134.9,116.1 134.9,116 134.9,116 134.8,116 134.8,116 134.7,116 134.7,116 134.7,115.9 
		134.6,115.9 134.6,115.9 134.6,115.9 134.5,115.8 134.5,115.8 134.4,115.8 134.4,115.8 134.4,115.8 134.3,115.7 134.3,115.7 
		134.2,115.7 134.2,115.7 134.2,115.6 134.1,115.6 134.1,115.6 134.1,115.6 134,115.5 134,115.5 133.9,115.5 133.9,115.5 
		133.9,115.4 133.8,115.4 133.8,115.4 133.8,115.4 133.7,115.3 133.7,115.3 133.7,115.3 133.6,115.3 133.6,115.2 133.6,115.2 
		133.5,115.2 133.5,115.1 133.4,115.1 133.4,115.1 133.4,115 133.3,115 133.3,115 133.3,115 133.2,114.9 133.2,114.9 133.2,114.9 
		133.1,114.8 133.1,114.8 133.1,114.8 133.1,114.7 133,114.7 133,114.7 133,114.6 132.9,114.6 132.9,114.6 132.9,114.5 132.8,114.5 
		132.8,114.5 132.8,114.4 132.7,114.4 132.7,114.3 132.7,114.3 132.7,114.3 132.6,114.2 132.6,114.2 132.6,114.2 132.5,114.1 
		132.5,114.1 132.5,114 132.5,114 132.4,113.7 132.7,113.4 132.7,113.4 133,113.3 	"/>
	<path class="st5" d="M142.6,24.6c13,0,29.9,8.9,33.1,21.8c0.6,2.4,4.6,13.7,1.7,25.3c-1,4.1-1.7,5.5-3.3,9.6
		c-1.8,4.6-4.2,7.1-7.2,11.3c-5.4,7.6-14.9,16.3-23.1,16.6c-7.6,0.2-18.3-7.5-23-14.8c-3.6-5.6-11.3-18.9-12.8-27.6
		c-0.7-4.2,3.2-4.8,3.2-8.2C111.3,36.6,123.8,24.6,142.6,24.6"/>
	<path class="st3" d="M142.6,24.6c13,0,29.9,8.9,33.1,21.8c0.6,2.4,4.6,13.7,1.7,25.3c-1,4.1-1.7,5.5-3.3,9.6
		c-1.8,4.6-4.2,7.1-7.2,11.3c-5.4,7.6-14.9,16.3-23.1,16.6c-7.6,0.2-18.3-7.5-23-14.8c-3.6-5.6-11.3-18.9-12.8-27.6
		c-0.7-4.2,3.2-4.8,3.2-8.2C111.3,36.6,123.8,24.6,142.6,24.6z"/>
	<polygon class="st4" points="172.4,67.9 172.4,67.9 172.4,67.9 172.4,67.9 172.5,67.9 172.5,67.9 172.5,67.9 172.5,67.9 
		172.6,67.9 172.6,67.9 172.6,67.9 172.6,67.9 172.6,67.9 172.7,67.9 172.7,67.9 172.7,67.9 172.7,67.9 172.7,67.9 172.8,68 
		172.8,68 172.8,68 172.8,68 172.9,68 172.9,68 172.9,68 172.9,68 172.9,68 173,68 173,68.1 173,68.1 173,68.1 173,68.1 173,68.1 
		173.1,68.1 173.1,68.1 173.1,68.1 173.1,68.2 173.1,68.2 173.1,68.2 173.2,68.2 173.2,68.2 173.2,68.2 173.2,68.3 173.2,68.3 
		173.2,68.3 173.3,68.3 173.3,68.3 173.3,68.3 173.3,68.4 173.3,68.4 173.3,68.4 173.3,68.4 173.3,68.4 173.4,68.5 173.4,68.5 
		173.4,68.5 173.4,68.5 173.4,68.5 173.4,68.6 173.4,68.6 173.4,68.6 173.4,68.6 173.5,68.6 173.5,68.7 173.5,68.7 173.5,68.7 
		173.5,68.7 173.5,68.8 173.5,68.8 173.5,68.8 173.5,68.8 173.5,68.9 173.5,68.9 173.5,68.9 173.5,68.9 173.5,68.9 173.6,69 
		173.6,69 173.6,69 173.6,69 173.6,69.1 173.6,69.1 173.6,69.1 173.6,69.1 173.6,69.2 173.6,69.2 173.6,69.2 173.6,69.2 173.6,69.3 
		173.6,69.3 173.6,69.3 173.6,69.4 173.6,69.4 173.6,69.4 173.6,69.4 173.6,69.5 173.6,69.5 173.6,69.5 173.6,69.5 173.6,69.6 
		173.6,69.6 173.6,69.6 173.6,69.7 173.6,69.7 173.6,69.7 173.6,69.7 173.6,69.8 173.6,69.8 173.5,69.8 173.5,69.9 173.5,69.9 
		173.5,69.9 173.5,69.9 173.5,70 173.5,70 173.5,70 173.5,70.1 173.5,70.1 173.5,70.1 173.5,70.2 173.5,70.2 173.4,70.2 173.4,70.2 
		173.4,70.3 173.4,70.3 173.4,70.3 173.4,70.4 173.4,70.4 173.4,70.4 173.3,70.5 173.3,70.5 173.3,70.5 173.3,70.6 173.3,70.6 
		173.3,70.6 173.3,70.6 173.2,70.7 173.2,70.7 173.2,70.7 173.2,70.8 173.2,70.8 173.2,70.8 173.1,70.9 173.1,70.9 173.1,70.9 
		173.1,71 173.1,71 173,71 173,71.1 173,71.1 173,71.1 173,71.2 172.9,71.2 172.9,71.2 172.9,71.3 172.9,71.3 172.8,71.3 
		172.8,71.3 172.8,71.4 172.8,71.4 172.7,71.4 172.7,71.5 172.7,71.5 172.7,71.5 172.6,71.6 172.6,71.6 172.6,71.6 172.5,71.7 
		172.5,71.7 172.5,71.7 172.5,71.8 172.4,71.8 172.4,71.8 172.4,71.9 172.3,71.9 172.3,71.9 172.3,72 172.2,72 172.2,72 172.2,72.1 
		172.1,72.1 172.1,72.1 172.1,72.2 172,72.2 172,72.2 171.9,72.3 171.9,72.3 171.9,72.3 171.8,72.4 171.8,72.4 171.8,72.4 
		171.7,72.5 171.7,72.5 171.6,72.5 171.6,72.6 171.5,72.6 171.5,72.6 171.5,72.7 171.4,72.7 171.4,72.7 171.3,72.8 171.3,72.8 
		171.2,72.8 171.2,72.9 171.1,72.9 171.1,72.9 171,73 171,73 170.9,73 170.7,73 170.7,72.7 170.8,72.7 170.8,72.6 170.9,72.6 
		170.9,72.6 170.9,72.5 171,72.5 171,72.5 171.1,72.4 171.1,72.4 171.2,72.4 171.2,72.3 171.2,72.3 171.3,72.3 171.3,72.2 
		171.3,72.2 171.4,72.2 171.4,72.1 171.5,72.1 171.5,72.1 171.5,72 171.6,72 171.6,72 171.6,71.9 171.7,71.9 171.7,71.9 171.7,71.8 
		171.8,71.8 171.8,71.8 171.8,71.7 171.9,71.7 171.9,71.7 171.9,71.6 172,71.6 172,71.6 172,71.5 172,71.5 172.1,71.5 172.1,71.5 
		172.1,71.4 172.1,71.4 172.2,71.4 172.2,71.3 172.2,71.3 172.2,71.3 172.3,71.2 172.3,71.2 172.3,71.2 172.3,71.1 172.4,71.1 
		172.4,71.1 172.4,71 172.4,71 172.4,71 172.5,71 172.5,70.9 172.5,70.9 172.5,70.9 172.5,70.8 172.5,70.8 172.6,70.8 172.6,70.7 
		172.6,70.7 172.6,70.7 172.6,70.7 172.6,70.6 172.7,70.6 172.7,70.6 172.7,70.5 172.7,70.5 172.7,70.5 172.7,70.5 172.7,70.4 
		172.8,70.4 172.8,70.4 172.8,70.4 172.8,70.3 172.8,70.3 172.8,70.3 172.8,70.2 172.8,70.2 172.8,70.2 172.8,70.2 172.9,70.1 
		172.9,70.1 172.9,70.1 172.9,70.1 172.9,70 172.9,70 172.9,70 172.9,70 172.9,69.9 172.9,69.9 172.9,69.9 172.9,69.9 172.9,69.8 
		172.9,69.8 172.9,69.8 172.9,69.8 173,69.7 173,69.7 173,69.7 173,69.7 173,69.7 173,69.6 173,69.6 173,69.6 173,69.6 173,69.6 
		173,69.5 173,69.5 173,69.5 173,69.5 173,69.4 173,69.4 173,69.4 173,69.4 173,69.4 173,69.4 173,69.3 173,69.3 173,69.3 173,69.3 
		173,69.3 173,69.2 173,69.2 173,69.2 172.9,69.2 172.9,69.2 172.9,69.2 172.9,69.1 172.9,69.1 172.9,69.1 172.9,69.1 172.9,69.1 
		172.9,69.1 172.9,69 172.9,69 172.9,69 172.9,69 172.9,69 172.9,69 172.9,69 172.9,69 172.9,68.9 172.9,68.9 172.9,68.9 
		172.9,68.9 172.8,68.9 172.8,68.9 172.8,68.9 172.8,68.9 172.8,68.8 172.8,68.8 172.8,68.8 172.8,68.8 172.8,68.8 172.8,68.8 
		172.8,68.8 172.8,68.8 172.8,68.8 172.8,68.8 172.7,68.7 172.7,68.7 172.7,68.7 172.7,68.7 172.7,68.7 172.7,68.7 172.7,68.7 
		172.7,68.7 172.7,68.7 172.7,68.7 172.7,68.7 172.7,68.7 172.7,68.7 172.6,68.7 172.6,68.7 172.6,68.6 172.6,68.6 172.6,68.6 
		172.6,68.6 172.6,68.6 172.6,68.6 172.6,68.6 172.6,68.6 172.6,68.6 172.6,68.6 172.6,68.6 172.5,68.6 172.5,68.6 172.5,68.6 
		172.5,68.6 172.5,68.6 172.5,68.6 172.5,68.6 172.5,68.6 172.5,68.6 172.5,68.6 172.5,68.6 172.5,68.6 172.4,68.6 172.4,68.6 
		172.4,68.6 172.4,68.6 172.4,68.6 172.4,68.6 172.4,68.6 172.4,68.6 172.4,68.6 172.4,68.6 172.4,68.6 172.3,68.6 172.3,68.6 
		172.3,68.6 172.3,68.6 172.3,68.6 172.3,68.6 172.3,68.6 172.3,68.6 172.3,68.6 172.3,68.6 172.2,68.6 172.2,68.6 172.2,68.6 
		172.2,68.6 172.2,68.6 172.2,68.6 172.2,68.6 172.2,68.6 172.2,68.6 172.2,68.6 172.1,68.6 172.1,68.6 172.1,68.7 172.1,68.7 
		172.1,68.7 172.1,68.7 172.1,68.7 172.1,68.7 172.1,68.7 172,68.7 172,68.7 172,68.7 172,68.7 172,68.7 172,68.8 172,68.8 
		172,68.8 171.9,68.8 171.9,68.8 171.9,68.8 171.9,68.8 171.9,68.8 171.9,68.8 171.9,68.9 171.9,68.9 171.8,68.9 171.8,68.9 
		171.6,69 171.3,68.9 171.3,68.9 171.3,68.9 171.2,68.6 171.3,68.4 171.3,68.4 171.3,68.3 171.4,68.3 171.4,68.3 171.4,68.3 
		171.4,68.3 171.4,68.2 171.5,68.2 171.5,68.2 171.5,68.2 171.5,68.2 171.5,68.2 171.6,68.1 171.6,68.1 171.6,68.1 171.6,68.1 
		171.7,68.1 171.7,68.1 171.7,68.1 171.7,68 171.7,68 171.8,68 171.8,68 171.8,68 171.8,68 171.9,68 171.9,68 171.9,68 171.9,68 
		172,67.9 172,67.9 172,67.9 172,67.9 172,67.9 172.1,67.9 172.1,67.9 172.1,67.9 172.1,67.9 172.2,67.9 172.2,67.9 172.2,67.9 
		172.2,67.9 172.3,67.9 172.3,67.9 172.3,67.9 172.3,67.9 172.3,67.9 	"/>
	<polygon class="st4" points="113.1,67.9 113.2,67.9 113.2,67.9 113.2,67.9 113.2,67.9 113.3,67.9 113.3,67.9 113.3,67.9 
		113.4,67.9 113.4,67.9 113.4,67.9 113.4,67.9 113.5,67.9 113.5,67.9 113.5,67.9 113.6,68 113.6,68 113.6,68 113.7,68 113.7,68 
		113.7,68 113.7,68 113.8,68.1 113.8,68.1 113.8,68.1 113.9,68.1 113.9,68.1 113.9,68.2 114,68.2 114,68.2 114,68.2 114,68.2 
		114.1,68.3 114.1,68.3 114.1,68.3 114.2,68.3 114.2,68.4 114.2,68.4 114.2,68.4 114.3,68.7 114.3,68.9 114.2,68.9 114,69 
		113.7,68.9 113.7,68.9 113.7,68.9 113.7,68.9 113.6,68.9 113.6,68.9 113.6,68.8 113.6,68.8 113.6,68.8 113.5,68.8 113.5,68.8 
		113.5,68.7 113.5,68.7 113.5,68.7 113.4,68.7 113.4,68.7 113.4,68.7 113.4,68.7 113.4,68.7 113.3,68.6 113.3,68.6 113.3,68.6 
		113.3,68.6 113.3,68.6 113.3,68.6 113.3,68.6 113.2,68.6 113.2,68.6 113.2,68.6 113.2,68.6 113.2,68.6 113.2,68.6 113.2,68.6 
		113.1,68.6 113.1,68.6 113.1,68.6 113.1,68.6 113.1,68.6 113.1,68.6 113.1,68.6 113.1,68.6 113.1,68.6 113.1,68.6 113.1,68.6 
		113,68.6 113,68.6 113,68.6 113,68.6 113,68.6 113,68.6 113,68.6 113,68.6 113,68.6 113,68.6 113,68.6 113,68.6 113,68.6 113,68.6 
		112.9,68.6 112.9,68.6 112.9,68.6 112.9,68.6 112.9,68.6 112.9,68.6 112.9,68.6 112.9,68.6 112.9,68.6 112.9,68.6 112.9,68.6 
		112.9,68.6 112.9,68.7 112.9,68.7 112.9,68.7 112.8,68.7 112.8,68.7 112.8,68.7 112.8,68.7 112.8,68.7 112.8,68.7 112.8,68.7 
		112.8,68.8 112.8,68.8 112.8,68.8 112.8,68.8 112.8,68.8 112.8,68.8 112.8,68.8 112.7,68.9 112.7,68.9 112.7,68.9 112.7,68.9 
		112.7,68.9 112.7,68.9 112.7,69 112.7,69 112.7,69 112.7,69 112.7,69 112.7,69.1 112.7,69.1 112.7,69.1 112.7,69.1 112.7,69.1 
		112.7,69.2 112.7,69.2 112.7,69.2 112.7,69.2 112.7,69.2 112.7,69.3 112.7,69.3 112.7,69.3 112.6,69.3 112.6,69.4 112.6,69.4 
		112.6,69.4 112.6,69.4 112.6,69.4 112.6,69.5 112.6,69.5 112.6,69.5 112.6,69.5 112.6,69.6 112.6,69.6 112.6,69.6 112.7,69.7 
		112.7,69.7 112.7,69.7 112.7,69.7 112.7,69.8 112.7,69.8 112.7,69.8 112.7,69.8 112.7,69.9 112.7,69.9 112.7,69.9 112.7,69.9 
		112.7,70 112.7,70 112.7,70 112.7,70 112.7,70.1 112.7,70.1 112.7,70.1 112.7,70.2 112.7,70.2 112.7,70.2 112.8,70.2 112.8,70.3 
		112.8,70.3 112.8,70.3 112.8,70.4 112.8,70.4 112.8,70.4 112.8,70.4 112.8,70.5 112.8,70.5 112.9,70.5 112.9,70.5 112.9,70.6 
		112.9,70.6 112.9,70.6 112.9,70.7 112.9,70.7 112.9,70.7 112.9,70.7 113,70.8 113,70.8 113,70.8 113,70.8 113,70.9 113,70.9 
		113,70.9 113.1,70.9 113.1,71 113.1,71 113.1,71 113.1,71.1 113.1,71.1 113.2,71.1 113.2,71.1 113.2,71.2 113.2,71.2 113.2,71.2 
		113.2,71.2 113.3,71.3 113.3,71.3 113.3,71.3 113.3,71.3 113.3,71.3 113.4,71.4 113.4,71.4 113.4,71.4 113.4,71.4 113.5,71.5 
		113.5,71.5 113.5,71.5 113.5,71.5 113.5,71.6 113.6,71.6 113.6,71.6 113.6,71.6 113.6,71.6 113.7,71.7 113.7,71.7 113.7,71.7 
		113.7,71.7 113.8,71.7 113.8,71.8 113.8,71.8 113.9,71.8 113.9,71.8 113.9,71.8 113.9,71.9 114,71.9 114,71.9 114,71.9 114.1,71.9 
		114.1,71.9 114.1,72 114.1,72 114.2,72 114.2,72 114.2,72 114.3,72 114.3,72 114.3,72.1 114.4,72.1 114.4,72.1 114.4,72.1 
		114.5,72.1 114.5,72.1 114.5,72.1 114.6,72.1 114.6,72.2 114.7,72.2 114.7,72.2 114.7,72.2 114.8,72.2 114.8,72.2 114.8,72.2 
		114.9,72.2 114.9,72.2 115,72.2 115,72.2 115,72.3 115.1,72.3 115.1,72.3 115.2,72.3 115.2,72.3 115.3,72.3 115.3,72.3 115.3,72.3 
		115.4,72.3 115.4,72.3 115.5,72.3 115.5,72.3 115.6,72.3 115.6,72.3 115.8,72.5 115.6,72.7 115.6,72.7 115.5,72.7 115.5,72.7 
		115.4,72.7 115.4,72.7 115.3,72.7 115.3,72.7 115.2,72.7 115.2,72.7 115.1,72.7 115.1,72.7 115,72.7 115,72.7 114.9,72.7 
		114.9,72.7 114.9,72.7 114.8,72.7 114.8,72.6 114.7,72.6 114.7,72.6 114.6,72.6 114.6,72.6 114.5,72.6 114.5,72.6 114.5,72.6 
		114.4,72.6 114.4,72.6 114.3,72.5 114.3,72.5 114.3,72.5 114.2,72.5 114.2,72.5 114.1,72.5 114.1,72.5 114.1,72.4 114,72.4 
		114,72.4 113.9,72.4 113.9,72.4 113.9,72.4 113.8,72.3 113.8,72.3 113.8,72.3 113.7,72.3 113.7,72.3 113.7,72.3 113.6,72.2 
		113.6,72.2 113.6,72.2 113.5,72.2 113.5,72.1 113.5,72.1 113.4,72.1 113.4,72.1 113.4,72.1 113.3,72 113.3,72 113.3,72 113.2,72 
		113.2,71.9 113.2,71.9 113.2,71.9 113.1,71.9 113.1,71.8 113.1,71.8 113,71.8 113,71.8 113,71.7 113,71.7 112.9,71.7 112.9,71.6 
		112.9,71.6 112.9,71.6 112.8,71.6 112.8,71.5 112.8,71.5 112.8,71.5 112.7,71.4 112.7,71.4 112.7,71.4 112.7,71.4 112.7,71.3 
		112.6,71.3 112.6,71.3 112.6,71.2 112.6,71.2 112.6,71.2 112.5,71.1 112.5,71.1 112.5,71.1 112.5,71.1 112.5,71 112.4,71 112.4,71 
		112.4,70.9 112.4,70.9 112.4,70.9 112.4,70.8 112.4,70.8 112.3,70.8 112.3,70.7 112.3,70.7 112.3,70.7 112.3,70.6 112.3,70.6 
		112.3,70.6 112.2,70.5 112.2,70.5 112.2,70.5 112.2,70.4 112.2,70.4 112.2,70.4 112.2,70.4 112.2,70.3 112.2,70.3 112.1,70.3 
		112.1,70.2 112.1,70.2 112.1,70.2 112.1,70.1 112.1,70.1 112.1,70.1 112.1,70 112.1,70 112.1,70 112.1,69.9 112.1,69.9 112.1,69.9 
		112.1,69.8 112,69.8 112,69.8 112,69.7 112,69.7 112,69.7 112,69.6 112,69.6 112,69.6 112,69.6 112,69.5 112,69.5 112,69.5 
		112,69.4 112,69.4 112,69.4 112,69.3 112,69.3 112,69.3 112,69.2 112,69.2 112,69.2 112,69.2 112,69.1 112,69.1 112,69.1 112,69 
		112,69 112,69 112,69 112.1,68.9 112.1,68.9 112.1,68.9 112.1,68.8 112.1,68.8 112.1,68.8 112.1,68.8 112.1,68.7 112.1,68.7 
		112.1,68.7 112.1,68.7 112.1,68.6 112.1,68.6 112.1,68.6 112.2,68.6 112.2,68.5 112.2,68.5 112.2,68.5 112.2,68.5 112.2,68.4 
		112.2,68.4 112.2,68.4 112.2,68.4 112.3,68.3 112.3,68.3 112.3,68.3 112.3,68.3 112.3,68.3 112.3,68.2 112.4,68.2 112.4,68.2 
		112.4,68.2 112.4,68.1 112.4,68.1 112.4,68.1 112.5,68.1 112.5,68.1 112.5,68.1 112.5,68 112.6,68 112.6,68 112.6,68 112.6,68 
		112.6,68 112.7,68 112.7,67.9 112.7,67.9 112.8,67.9 112.8,67.9 112.8,67.9 112.8,67.9 112.9,67.9 112.9,67.9 112.9,67.9 
		112.9,67.9 113,67.9 113,67.9 113,67.9 113.1,67.9 113.1,67.9 	"/>
	<path class="st6" d="M145.5,78.9c4.3-0.6,4.3-2.6,2.2-4.1"/>
	<polygon class="st4" points="156.2,90.3 156.1,90.5 156.1,90.5 156,90.5 156,90.6 155.9,90.6 155.9,90.6 155.9,90.6 155.9,90.7 
		155.8,90.7 155.8,90.7 155.7,90.7 155.7,90.8 155.6,90.8 155.6,90.8 155.6,90.9 155.5,90.9 155.5,90.9 155.4,90.9 155.4,90.9 
		155.4,91 155.3,91 155.3,91 155.3,91 155.3,91.1 155.3,91.1 155.2,91.1 155.2,91.1 155.2,91.1 155.2,91.1 155.2,91.1 155.2,91.2 
		155.1,91.2 155.1,91.2 155.1,91.2 155.1,91.2 155.1,91.2 155,91.3 155,91.3 155,91.3 155,91.3 155,91.3 155,91.3 154.9,91.4 
		154.9,91.4 154.9,91.4 154.9,91.4 154.9,91.4 154.9,91.4 154.8,91.5 154.8,91.5 154.8,91.5 154.8,91.5 154.8,91.5 154.8,91.5 
		154.7,91.6 154.7,91.6 154.7,91.6 154.7,91.6 154.7,91.6 154.7,91.6 154.6,91.7 154.6,91.7 154.6,91.7 154.6,91.7 154.6,91.7 
		154.6,91.7 154.6,91.8 154.5,91.8 154.5,91.8 154.5,91.8 154.5,91.8 154.5,91.8 154.5,91.9 154.4,91.9 154.4,91.9 154.4,91.9 
		154.4,91.9 154.4,91.9 154.3,92 154.3,92 154.3,92 154.3,92 154.3,92 154.2,92.1 154.2,92.1 154.2,92.1 154.2,92.1 154.2,92.1 
		154.2,92.2 154.1,92.2 154.1,92.2 154.1,92.2 154.1,92.3 154.1,92.3 154,92.3 154,92.3 154,92.3 154,92.4 154,92.4 153.9,92.4 
		153.9,92.5 153.9,92.5 153.9,92.5 153.9,92.5 153.8,92.5 153.8,92.6 153.8,92.6 153.8,92.6 153.8,92.7 153.7,92.7 153.7,92.7 
		153.7,92.8 153.7,92.8 153.6,92.8 153.6,92.9 153.6,92.9 153.6,92.9 153.6,93 153.5,93 153.5,93 153.5,93.1 153.5,93.1 153.5,93.1 
		153.4,93.2 153.4,93.2 153.4,93.3 153.4,93.3 153.2,93.4 153,93.2 153,93.2 153,93.1 153,93.1 153,93 153,93 153,92.9 153.1,92.9 
		153.1,92.8 153.1,92.8 153.1,92.7 153.1,92.7 153.1,92.7 153.1,92.6 153.1,92.6 153.1,92.5 153.1,92.5 153.1,92.4 153.1,92.4 
		153.2,92.4 153.2,92.3 153.2,92.3 153.2,92.2 153.2,92.2 153.2,92.1 153.2,92.1 153.2,92.1 153.2,92.1 153.3,92 153.3,92 
		153.3,91.9 153.3,91.9 153.3,91.9 153.3,91.8 153.3,91.8 153.4,91.8 153.4,91.7 153.4,91.7 153.4,91.7 153.4,91.6 153.4,91.6 
		153.5,91.6 153.5,91.5 153.5,91.5 153.5,91.5 153.5,91.5 153.5,91.4 153.6,91.4 153.6,91.4 153.6,91.3 153.6,91.3 153.7,91.3 
		153.7,91.2 153.7,91.2 153.7,91.2 153.8,91.1 153.8,91.1 153.8,91.1 153.8,91.1 153.8,91.1 153.9,91 153.9,91 153.9,91 153.9,91 
		153.9,91 154,90.9 154,90.9 154,90.9 154,90.9 154,90.9 154.1,90.8 154.1,90.8 154.1,90.8 154.1,90.8 154.2,90.8 154.2,90.8 
		154.2,90.7 154.3,90.7 154.3,90.7 154.3,90.7 154.3,90.7 154.4,90.6 154.4,90.6 154.4,90.6 154.4,90.6 154.5,90.6 154.5,90.6 
		154.5,90.6 154.5,90.6 154.6,90.5 154.6,90.5 154.6,90.5 154.7,90.5 154.7,90.5 154.7,90.5 154.8,90.5 154.8,90.4 154.8,90.4 
		154.8,90.4 154.9,90.4 154.9,90.4 154.9,90.4 155,90.4 155,90.4 155,90.4 155.1,90.3 155.1,90.3 155.1,90.3 155.2,90.3 155.2,90.3 
		155.3,90.3 155.4,90.3 155.4,90.3 155.5,90.2 155.5,90.2 155.6,90.2 155.6,90.2 155.7,90.2 155.7,90.2 155.7,90.2 155.8,90.2 
		155.9,90.2 155.9,90.2 155.9,90.2 156,90.2 	"/>
	<polygon class="st4" points="138.2,74.4 138.2,74.4 138.2,74.4 138.2,74.5 138.2,74.5 138.2,74.6 138.2,74.6 138.2,74.7 
		138.2,74.7 138.2,74.8 138.2,74.8 138.2,74.9 138.2,74.9 138.2,74.9 138.2,74.9 138.2,75 138.2,75 138.2,75.1 138.2,75.1 
		138.2,75.2 138.2,75.2 138.2,75.3 138.2,75.3 138.2,75.4 138.2,75.4 138.2,75.4 138.2,75.5 138.2,75.5 138.2,75.6 138.2,75.6 
		138.2,75.6 138.1,75.7 138.1,75.7 138.1,75.8 138.1,75.8 138.1,75.8 138.1,75.9 138.1,75.9 138.1,75.9 138.1,76 138.1,76 
		138.1,76.1 138,76.1 138,76.1 138,76.2 138,76.2 138,76.2 138,76.3 138,76.3 138,76.4 138,76.4 137.9,76.4 137.9,76.5 137.9,76.5 
		137.9,76.6 137.9,76.6 137.9,76.6 137.9,76.6 137.8,76.7 137.8,76.7 137.8,76.7 137.8,76.8 137.8,76.8 137.8,76.8 137.8,76.8 
		137.7,76.9 137.7,76.9 137.7,76.9 137.7,77 137.7,77 137.7,77 137.6,77.1 137.6,77.1 137.6,77.1 137.6,77.1 137.6,77.2 137.5,77.2 
		137.5,77.2 137.5,77.3 137.5,77.3 137.4,77.3 137.4,77.3 137.4,77.4 137.4,77.4 137.3,77.4 137.3,77.5 137.3,77.5 137.3,77.5 
		137.3,77.5 137.2,77.6 137.2,77.6 137.2,77.6 137.2,77.6 137.1,77.7 137.1,77.7 137.1,77.7 137.1,77.8 137.1,77.8 137,77.8 
		137,77.8 137,77.8 137,77.9 136.9,77.9 136.9,77.9 136.9,77.9 136.8,77.9 136.8,78 136.8,78 136.8,78 136.8,78 136.7,78 
		136.7,78.1 136.7,78.1 136.7,78.1 136.6,78.1 136.6,78.1 136.6,78.2 136.6,78.2 136.5,78.2 136.5,78.2 136.5,78.2 136.4,78.2 
		136.4,78.3 136.4,78.3 136.4,78.3 136.3,78.3 136.3,78.3 136.3,78.3 136.3,78.4 136.2,78.4 136.2,78.4 136.2,78.4 136.2,78.4 
		136.2,78.4 136.1,78.4 136.1,78.4 136.1,78.4 136.1,78.5 136,78.5 136,78.5 136,78.5 136,78.5 136,78.5 136,78.5 135.7,78.4 
		135.8,78.2 135.8,78.2 135.8,78.2 135.8,78.1 135.8,78.1 135.8,78.1 135.8,78.1 135.9,78.1 135.9,78.1 135.9,78 135.9,78 135.9,78 
		135.9,78 135.9,78 136,78 136,78 136,77.9 136,77.9 136,77.9 136,77.9 136,77.9 136.1,77.8 136.1,77.8 136.1,77.8 136.1,77.8 
		136.1,77.7 136.1,77.7 136.2,77.7 136.2,77.7 136.2,77.7 136.2,77.6 136.2,77.6 136.2,77.6 136.2,77.6 136.3,77.6 136.3,77.5 
		136.3,77.5 136.3,77.5 136.3,77.4 136.3,77.4 136.3,77.4 136.4,77.4 136.4,77.3 136.4,77.3 136.4,77.3 136.4,77.3 136.4,77.2 
		136.5,77.2 136.5,77.2 136.5,77.1 136.5,77.1 136.5,77.1 136.5,77.1 136.6,77 136.6,77 136.6,77 136.6,76.9 136.6,76.9 136.6,76.9 
		136.6,76.9 136.6,76.8 136.7,76.8 136.7,76.8 136.7,76.7 136.7,76.7 136.7,76.7 136.7,76.7 136.7,76.6 136.8,76.6 136.8,76.6 
		136.8,76.6 136.8,76.5 136.8,76.5 136.8,76.5 136.8,76.5 136.9,76.4 136.9,76.4 136.9,76.4 136.9,76.4 136.9,76.3 136.9,76.3 
		136.9,76.3 136.9,76.3 137,76.2 137,76.2 137,76.2 137,76.1 137,76.1 137,76.1 137.1,76 137.1,76 137.1,76 137.1,75.9 137.1,75.9 
		137.2,75.9 137.2,75.8 137.2,75.8 137.2,75.8 137.2,75.7 137.2,75.7 137.3,75.7 137.3,75.6 137.3,75.6 137.3,75.6 137.3,75.5 
		137.3,75.5 137.4,75.5 137.4,75.4 137.4,75.4 137.4,75.4 137.4,75.3 137.4,75.3 137.4,75.3 137.5,75.3 137.5,75.2 137.5,75.2 
		137.5,75.1 137.5,75.1 137.5,75.1 137.6,75 137.6,75 137.6,75 137.6,74.9 137.6,74.9 137.6,74.8 137.7,74.8 137.7,74.8 137.7,74.8 
		137.7,74.7 137.7,74.7 137.7,74.7 137.7,74.6 137.7,74.6 137.7,74.5 137.8,74.5 137.8,74.5 137.8,74.4 137.8,74.4 138,74.2 	"/>
	<polygon class="st4" points="150.8,74.6 150.8,74.6 150.8,74.6 150.8,74.6 150.8,74.6 150.8,74.6 150.8,74.7 150.8,74.7 
		150.8,74.7 150.8,74.7 150.8,74.8 150.8,74.8 150.8,74.8 150.8,74.8 150.8,74.8 150.8,74.8 150.9,74.9 150.9,74.9 150.9,74.9 
		150.9,74.9 150.9,74.9 150.9,75 150.9,75 150.9,75 150.9,75 150.9,75.1 151,75.1 151,75.1 151,75.1 151,75.1 151,75.2 151,75.2 
		151,75.2 151,75.2 151,75.2 151.1,75.3 151.1,75.3 151.1,75.3 151.1,75.3 151.1,75.3 151.1,75.4 151.1,75.4 151.1,75.4 151.2,75.4 
		151.2,75.5 151.2,75.5 151.2,75.5 151.2,75.5 151.2,75.5 151.2,75.5 151.3,75.6 151.3,75.6 151.3,75.6 151.3,75.6 151.3,75.7 
		151.3,75.7 151.3,75.7 151.4,75.7 151.4,75.7 151.4,75.8 151.4,75.8 151.4,75.8 151.4,75.8 151.5,75.8 151.5,75.9 151.5,75.9 
		151.5,75.9 151.5,75.9 151.5,76 151.6,76 151.6,76 151.6,76 151.6,76 151.6,76.1 151.6,76.1 151.6,76.1 151.7,76.1 151.7,76.1 
		151.7,76.2 151.7,76.2 151.7,76.2 151.7,76.2 151.7,76.2 151.8,76.3 151.8,76.3 151.8,76.3 151.8,76.3 151.8,76.3 151.8,76.4 
		151.8,76.4 151.8,76.4 151.9,76.4 151.9,76.4 151.9,76.5 151.9,76.5 151.9,76.5 152,76.6 152,76.6 152,76.6 152,76.6 152,76.6 
		152,76.7 152.1,76.7 152.1,76.7 152.1,76.7 152.1,76.8 152.1,76.8 152.2,76.8 152.2,76.8 152.2,76.9 152.2,76.9 152.2,76.9 
		152.2,76.9 152.3,77 152.3,77 152.3,77 152.3,77.1 152.3,77.1 152.3,77.1 152.4,77.1 152.4,77.2 152.4,77.2 152.4,77.2 152.5,77.2 
		152.5,77.3 152.5,77.3 152.5,77.3 152.5,77.4 152.6,77.4 152.6,77.4 152.6,77.5 152.6,77.5 152.6,77.5 152.7,77.5 152.7,77.5 
		152.7,77.6 152.7,77.6 152.8,77.6 152.8,77.7 152.8,77.7 152.9,77.7 152.9,77.8 152.9,77.8 152.9,77.8 153,78 152.7,78.1 
		152.7,78.1 152.7,78.1 152.6,78.1 152.6,78 152.5,78 152.5,78 152.5,78 152.4,78 152.4,78 152.3,77.9 152.3,77.9 152.3,77.9 
		152.3,77.9 152.2,77.9 152.2,77.9 152.2,77.8 152.1,77.8 152.1,77.8 152,77.8 152,77.8 152,77.7 151.9,77.7 151.9,77.7 151.9,77.7 
		151.8,77.6 151.8,77.6 151.8,77.6 151.8,77.6 151.7,77.6 151.7,77.5 151.7,77.5 151.6,77.5 151.6,77.5 151.6,77.5 151.5,77.4 
		151.5,77.4 151.5,77.4 151.4,77.4 151.4,77.3 151.4,77.3 151.4,77.3 151.3,77.2 151.3,77.2 151.3,77.2 151.3,77.2 151.2,77.2 
		151.2,77.1 151.2,77.1 151.2,77.1 151.1,77.1 151.1,77 151.1,77 151.1,77 151.1,77 151,76.9 151,76.9 151,76.9 151,76.9 151,76.8 
		150.9,76.8 150.9,76.8 150.9,76.8 150.9,76.8 150.9,76.7 150.8,76.7 150.8,76.7 150.8,76.6 150.8,76.6 150.8,76.6 150.8,76.6 
		150.8,76.5 150.7,76.5 150.7,76.5 150.7,76.5 150.7,76.4 150.7,76.4 150.7,76.4 150.7,76.3 150.6,76.3 150.6,76.3 150.6,76.2 
		150.6,76.2 150.6,76.2 150.6,76.2 150.6,76.1 150.6,76.1 150.5,76.1 150.5,76.1 150.5,76 150.5,76 150.5,76 150.5,75.9 150.5,75.9 
		150.5,75.9 150.5,75.8 150.5,75.8 150.5,75.8 150.4,75.8 150.4,75.7 150.4,75.7 150.4,75.7 150.4,75.6 150.4,75.6 150.4,75.6 
		150.4,75.5 150.4,75.5 150.4,75.5 150.4,75.4 150.4,75.4 150.4,75.4 150.4,75.4 150.4,75.4 150.4,75.3 150.4,75.3 150.4,75.3 
		150.4,75.2 150.4,75.2 150.4,75.2 150.4,75.1 150.4,75.1 150.3,75.1 150.3,75.1 150.3,75 150.3,75 150.3,75 150.3,74.9 150.3,74.9 
		150.3,74.9 150.3,74.9 150.4,74.8 150.4,74.8 150.4,74.8 150.4,74.8 150.4,74.8 150.4,74.7 150.4,74.7 150.4,74.7 150.4,74.6 
		150.4,74.6 150.4,74.6 150.4,74.6 150.6,74.4 	"/>
</g>
<g>
	<defs>
		<path id="SVGID_7_" d="M126.3,64.6c4,0.6,7.7,0.5,11.3,0c-0.1-1.3-0.4-2.7-2.2-3.2c-0.6-0.2-1.4-0.2-2.2-0.2
			C129.9,61.2,125.8,62.5,126.3,64.6"/>
	</defs>
	<clipPath id="SVGID_8_">
		<use xlink:href="#SVGID_7_"  style="overflow:visible;"/>
	</clipPath>
	<path class="st7" d="M132,60.9c1.6,0,2.9,1.1,2.9,2.4c0,1.3-1.3,2.4-2.9,2.4c-1.6,0-2.9-1.1-2.9-2.4C129,62,130.4,60.9,132,60.9"/>
	<path class="st8" d="M133.5,62.2c0.3,0,0.6,0.2,0.6,0.5c0,0.3-0.2,0.5-0.6,0.5c-0.3,0-0.6-0.2-0.6-0.5
		C132.9,62.4,133.2,62.2,133.5,62.2"/>
</g>
<g>
	<defs>
		<rect id="SVGID_9_" width="283.5" height="283.5"/>
	</defs>
	<clipPath id="SVGID_10_">
		<use xlink:href="#SVGID_9_"  style="overflow:visible;"/>
	</clipPath>
	<path class="st9" d="M126.3,64.6c4,0.6,7.7,0.5,11.3,0c-0.1-1.3-0.4-2.7-2.2-3.2C132.2,60.7,125.7,62,126.3,64.6z"/>
</g>
<g>
	<defs>
		<path id="SVGID_11_" d="M152.3,62c-1.7,0.4-2,1.9-2.1,3.2c3.5,0.5,7,0.5,10.8,0c0.5-2.1-3.4-3.3-6.6-3.3
			C153.6,61.8,152.9,61.8,152.3,62"/>
	</defs>
	<clipPath id="SVGID_12_">
		<use xlink:href="#SVGID_11_"  style="overflow:visible;"/>
	</clipPath>
	<path class="st10" d="M155.2,61.5c1.5,0,2.8,1.1,2.8,2.4c0,1.4-1.3,2.4-2.8,2.4c-1.5,0-2.8-1.1-2.8-2.4
		C152.4,62.6,153.7,61.5,155.2,61.5"/>
	<path class="st11" d="M156.7,62.8c0.3,0,0.5,0.2,0.5,0.5c0,0.3-0.2,0.5-0.5,0.5c-0.3,0-0.5-0.2-0.5-0.5
		C156.1,63,156.4,62.8,156.7,62.8"/>
</g>
<g>
	<defs>
		<rect id="SVGID_13_" width="283.5" height="283.5"/>
	</defs>
	<clipPath id="SVGID_14_">
		<use xlink:href="#SVGID_13_"  style="overflow:visible;"/>
	</clipPath>
	<path class="st12" d="M161,65.1c-3.8,0.6-7.4,0.5-10.8,0c0.1-1.3,0.4-2.7,2.1-3.2C155.4,61.2,161.6,62.5,161,65.1z"/>
	<polygon class="st13" points="131.4,90.2 131.4,90.2 131.5,90.2 131.5,90.2 131.6,90.2 131.6,90.2 131.6,90.2 131.7,90.2 
		131.7,90.2 131.7,90.2 131.8,90.2 131.8,90.2 131.9,90.2 131.9,90.2 132,90.2 132,90.2 132.1,90.2 132.1,90.2 132.1,90.2 
		132.2,90.2 132.2,90.3 132.3,90.3 132.3,90.3 132.3,90.3 132.4,90.3 132.4,90.3 132.4,90.3 132.5,90.3 132.5,90.3 132.6,90.4 
		132.6,90.4 132.6,90.4 132.6,90.4 132.7,90.4 132.7,90.4 132.7,90.4 132.8,90.4 132.8,90.5 132.9,90.5 132.9,90.5 132.9,90.5 
		132.9,90.5 133,90.5 133,90.5 133,90.6 133.1,90.6 133.1,90.6 133.1,90.6 133.2,90.6 133.2,90.7 133.2,90.7 133.2,90.7 133.3,90.7 
		133.3,90.7 133.3,90.8 133.3,90.8 133.3,90.8 133.4,90.8 133.4,90.8 133.4,90.8 133.5,90.9 133.5,90.9 133.5,90.9 133.5,90.9 
		133.5,90.9 133.6,91 133.6,91 133.6,91 133.6,91 133.6,91.1 133.7,91.1 133.7,91.1 133.7,91.1 133.7,91.1 133.7,91.2 133.7,91.2 
		133.8,91.2 133.8,91.3 133.8,91.3 133.8,91.3 133.8,91.3 133.9,91.4 133.9,91.4 133.9,91.4 133.9,91.4 133.9,91.5 133.9,91.5 
		134,91.5 134,91.5 134,91.6 134,91.6 134,91.6 134,91.7 134,91.7 134.1,91.7 134.1,91.7 134.1,91.8 134.1,91.8 134.1,91.8 
		134.1,91.8 134.1,91.9 134.1,91.9 134.2,91.9 134.2,92 134.2,92.1 134.2,92.1 134.2,92.1 134.2,92.2 134.3,92.2 134.3,92.3 
		134.3,92.3 134.3,92.4 134.3,92.5 134.3,92.5 134.4,92.6 134.4,92.6 134.4,92.7 134.4,92.7 134.4,92.7 134.4,92.8 134.4,92.8 
		134.4,92.9 134.4,92.9 134.3,93.1 134.1,93 134.1,93 134,93 134,92.9 134,92.9 134,92.9 133.9,92.8 133.9,92.8 133.9,92.8 
		133.9,92.7 133.8,92.7 133.8,92.7 133.8,92.6 133.7,92.6 133.7,92.5 133.7,92.5 133.6,92.4 133.6,92.4 133.6,92.4 133.6,92.4 
		133.5,92.3 133.5,92.3 133.5,92.3 133.5,92.2 133.4,92.2 133.4,92.2 133.4,92.2 133.4,92.2 133.4,92.2 133.4,92.1 133.3,92.1 
		133.3,92.1 133.3,92.1 133.3,92.1 133.3,92 133.2,92 133.2,92 133.2,92 133.2,92 133.2,92 133.2,92 133.2,91.9 133.1,91.9 
		133.1,91.9 133.1,91.9 133.1,91.9 133.1,91.8 133,91.8 133,91.8 133,91.8 133,91.8 133,91.8 133,91.8 132.9,91.7 132.9,91.7 
		132.9,91.7 132.9,91.7 132.9,91.7 132.9,91.7 132.8,91.7 132.8,91.6 132.8,91.6 132.8,91.6 132.8,91.6 132.8,91.6 132.7,91.6 
		132.7,91.5 132.7,91.5 132.7,91.5 132.7,91.5 132.6,91.5 132.6,91.5 132.6,91.5 132.6,91.4 132.6,91.4 132.6,91.4 132.5,91.4 
		132.5,91.4 132.5,91.4 132.5,91.3 132.4,91.3 132.4,91.3 132.4,91.3 132.4,91.3 132.4,91.3 132.4,91.2 132.3,91.2 132.3,91.2 
		132.3,91.2 132.3,91.2 132.2,91.1 132.2,91.1 132.2,91.1 132.2,91.1 132.1,91.1 132.1,91.1 132.1,91 132.1,91 132,91 132,91 
		132,91 132,91 131.9,90.9 131.9,90.9 131.9,90.9 131.9,90.9 131.8,90.9 131.8,90.8 131.8,90.8 131.7,90.8 131.7,90.8 131.7,90.8 
		131.6,90.7 131.6,90.7 131.6,90.7 131.5,90.7 131.5,90.7 131.5,90.7 131.4,90.6 131.4,90.6 131.4,90.6 131.3,90.6 131.3,90.6 
		131.2,90.5 131.2,90.5 131.2,90.5 131,90.3 131.3,90.2 131.3,90.2 131.3,90.2 	"/>
	<path class="st14" d="M142.8,58.3c1.4,8.4-1.4,15.3-3.9,17.5c0.3,1.9,2.4,2.8,4.1,3"/>
	<polygon class="st13" points="143.7,85.1 143.7,85.1 143.8,85.1 143.8,85.1 143.9,85.1 143.9,85.1 144,85.1 144,85.1 144.1,85.1 
		144.1,85.2 144.2,85.2 144.2,85.2 144.2,85.2 144.3,85.2 144.3,85.2 144.4,85.2 144.5,85.2 144.5,85.2 144.6,85.2 144.6,85.2 
		144.7,85.3 144.7,85.3 144.8,85.3 144.8,85.3 144.9,85.3 144.9,85.3 145,85.3 145,85.3 145.1,85.4 145.1,85.4 145.2,85.4 
		145.3,85.4 145.3,85.4 145.4,85.4 145.4,85.5 145.4,85.5 145.5,85.5 145.6,85.5 145.6,85.5 145.7,85.6 145.7,85.6 145.8,85.6 
		145.8,85.6 145.9,85.7 145.9,85.7 146,85.7 146,85.7 146.1,85.7 146.1,85.8 146.2,85.8 146.2,85.8 146.3,85.9 146.3,85.9 
		146.4,85.9 146.5,85.9 146.5,86 146.6,86 146.6,86 146.7,86.1 146.7,86.1 146.7,86.1 146.8,86.1 146.8,86.2 146.9,86.2 146.9,86.3 
		147,86.3 147,86.3 147.1,86.3 147.1,86.6 146.9,86.7 146.8,86.7 146.8,86.7 146.7,86.7 146.7,86.6 146.6,86.6 146.6,86.6 
		146.5,86.6 146.5,86.6 146.5,86.6 146.4,86.5 146.3,86.5 146.3,86.5 146.2,86.5 146.2,86.5 146.1,86.4 146.1,86.4 146,86.4 
		145.9,86.4 145.9,86.4 145.8,86.4 145.8,86.4 145.7,86.3 145.7,86.3 145.7,86.3 145.6,86.3 145.6,86.3 145.5,86.3 145.4,86.3 
		145.4,86.3 145.3,86.3 145.3,86.3 145.2,86.3 145.2,86.2 145.2,86.2 145.1,86.2 145.1,86.2 145,86.2 145,86.2 144.9,86.2 
		144.9,86.2 144.8,86.2 144.8,86.2 144.7,86.2 144.6,86.2 144.6,86.2 144.6,86.2 144.5,86.2 144.5,86.2 144.4,86.2 144.4,86.2 
		144.3,86.1 144.3,86.1 144.2,86.1 144.2,86.1 144.1,86.1 144.1,86.1 144.1,86.1 144,86.1 144,86.1 143.9,86.1 143.9,86.1 
		143.9,86.1 143.8,86.1 143.8,86.1 143.7,86.1 143.7,86.1 143.7,86.1 143.6,86.1 143.6,86.1 143.5,86.1 143.5,86.1 143.5,86.1 
		143.4,86.1 143.4,86.1 143.3,86.1 143.3,86.1 143.3,86.1 143.3,86.1 143.2,86.1 143.2,86.1 143.1,86.1 143.1,86.1 143,86.1 
		143,86.1 142.9,86.1 142.9,86.1 142.9,86.1 142.8,86.1 142.8,86.1 142.7,86.1 142.7,86.1 142.6,86.2 142.6,86.2 142.5,86.2 
		142.5,86.2 142.5,86.2 142.4,86.2 142.4,86.2 142.4,86.2 142.3,86.2 142.3,86.2 142.2,86.2 142.2,86.2 142.1,86.2 142.1,86.2 
		142,86.2 142,86.2 142,86.2 142,86.2 141.9,86.3 141.9,86.3 141.8,86.3 141.8,86.3 141.7,86.3 141.7,86.3 141.7,86.3 141.6,86.3 
		141.6,86.3 141.5,86.3 141.5,86.4 141.4,86.4 141.4,86.4 141.4,86.4 141.3,86.4 141.3,86.4 141.2,86.4 141.2,86.4 141.2,86.5 
		141.1,86.5 141.1,86.5 141.1,86.5 141,86.5 141,86.5 140.9,86.5 140.9,86.6 140.9,86.6 140.8,86.6 140.8,86.6 140.7,86.6 
		140.7,86.7 140.7,86.7 140.6,86.7 140.6,86.7 140.3,86.6 140.4,86.3 140.4,86.3 140.5,86.3 140.5,86.3 140.5,86.2 140.6,86.2 
		140.6,86.2 140.6,86.1 140.7,86.1 140.7,86.1 140.8,86 140.8,86 140.8,86 140.9,86 140.9,85.9 141,85.9 141,85.9 141.1,85.9 
		141.1,85.8 141.1,85.8 141.2,85.8 141.2,85.8 141.3,85.7 141.3,85.7 141.4,85.7 141.4,85.7 141.5,85.6 141.5,85.6 141.5,85.6 
		141.6,85.6 141.6,85.6 141.7,85.5 141.7,85.5 141.8,85.5 141.8,85.5 141.9,85.5 141.9,85.4 142,85.4 142,85.4 142.1,85.4 
		142.1,85.4 142.2,85.4 142.2,85.3 142.3,85.3 142.3,85.3 142.3,85.3 142.4,85.3 142.4,85.3 142.5,85.3 142.5,85.3 142.6,85.2 
		142.7,85.2 142.7,85.2 142.8,85.2 142.8,85.2 142.8,85.2 142.9,85.2 142.9,85.2 143,85.2 143,85.2 143.1,85.2 143.1,85.2 
		143.2,85.1 143.2,85.1 143.3,85.1 143.3,85.1 143.4,85.1 143.4,85.1 143.5,85.1 143.5,85.1 143.5,85.1 143.6,85.1 143.6,85.1 	"/>
	<polygon class="st13" points="141.2,91.2 141.2,91.2 141.2,91.3 141.3,91.3 141.3,91.3 141.4,91.3 141.4,91.3 141.4,91.3 
		141.4,91.3 141.5,91.4 141.5,91.4 141.6,91.4 141.6,91.4 141.6,91.4 141.7,91.4 141.7,91.5 141.8,91.5 141.8,91.5 141.9,91.5 
		141.9,91.5 141.9,91.5 142,91.5 142,91.5 142,91.5 142.1,91.6 142.1,91.6 142.1,91.6 142.2,91.6 142.2,91.6 142.3,91.6 142.3,91.6 
		142.3,91.6 142.4,91.6 142.4,91.6 142.4,91.6 142.4,91.7 142.5,91.7 142.5,91.7 142.6,91.7 142.6,91.7 142.6,91.7 142.7,91.7 
		142.7,91.7 142.8,91.7 142.8,91.7 142.8,91.7 142.8,91.7 142.9,91.7 142.9,91.7 142.9,91.7 143,91.7 143,91.7 143.1,91.8 
		143.1,91.8 143.1,91.8 143.2,91.8 143.2,91.8 143.2,91.8 143.3,91.8 143.3,91.8 143.3,91.8 143.3,91.8 143.4,91.8 143.4,91.8 
		143.4,91.8 143.5,91.8 143.5,91.8 143.5,91.8 143.6,91.8 143.6,91.8 143.6,91.8 143.6,91.8 143.7,91.8 143.7,91.8 143.7,91.8 
		143.7,91.8 143.8,91.8 143.8,91.8 143.8,91.8 143.9,91.8 143.9,91.8 143.9,91.8 144,91.8 144,91.8 144,91.8 144.1,91.8 144.1,91.8 
		144.1,91.8 144.2,91.8 144.2,91.8 144.2,91.8 144.3,91.8 144.3,91.8 144.3,91.8 144.4,91.8 144.4,91.8 144.4,91.8 144.4,91.8 
		144.5,91.8 144.5,91.8 144.5,91.8 144.6,91.8 144.6,91.8 144.6,91.8 144.7,91.8 144.7,91.8 144.7,91.8 144.8,91.8 144.8,91.8 
		144.8,91.8 144.9,91.8 144.9,91.8 144.9,91.8 145,91.8 145,91.8 145,91.8 145.1,91.8 145.1,91.8 145.1,91.8 145.1,91.8 145.2,91.8 
		145.2,91.8 145.2,91.7 145.3,91.7 145.3,91.7 145.3,91.7 145.4,91.7 145.4,91.7 145.4,91.7 145.5,91.7 145.5,91.7 145.5,91.7 
		145.6,91.7 145.6,91.7 145.6,91.6 145.6,91.6 145.7,91.6 145.7,91.6 145.7,91.6 146,91.7 145.9,91.9 145.9,91.9 145.9,91.9 
		145.9,92 145.8,92 145.8,92 145.8,92 145.7,92 145.7,92.1 145.7,92.1 145.6,92.1 145.6,92.1 145.6,92.1 145.6,92.2 145.5,92.2 
		145.5,92.2 145.5,92.2 145.5,92.2 145.4,92.2 145.4,92.2 145.4,92.3 145.3,92.3 145.3,92.3 145.3,92.3 145.2,92.3 145.2,92.3 
		145.2,92.4 145.1,92.4 145.1,92.4 145,92.4 145,92.4 145,92.4 144.9,92.4 144.9,92.5 144.9,92.5 144.8,92.5 144.8,92.5 144.8,92.5 
		144.8,92.5 144.7,92.5 144.7,92.5 144.6,92.5 144.6,92.5 144.6,92.6 144.5,92.6 144.5,92.6 144.5,92.6 144.4,92.6 144.4,92.6 
		144.4,92.6 144.3,92.6 144.3,92.6 144.2,92.6 144.2,92.6 144.2,92.6 144.1,92.6 144.1,92.6 144.1,92.6 144,92.6 144,92.6 144,92.6 
		143.9,92.6 143.9,92.7 143.8,92.7 143.8,92.7 143.8,92.7 143.7,92.7 143.7,92.7 143.7,92.7 143.6,92.7 143.6,92.7 143.5,92.7 
		143.5,92.7 143.5,92.7 143.5,92.6 143.4,92.6 143.4,92.6 143.4,92.6 143.3,92.6 143.3,92.6 143.2,92.6 143.2,92.6 143.2,92.6 
		143.2,92.6 143.1,92.6 143.1,92.6 143,92.6 143,92.6 142.9,92.6 142.9,92.6 142.9,92.5 142.8,92.5 142.8,92.5 142.7,92.5 
		142.7,92.5 142.6,92.5 142.6,92.5 142.6,92.5 142.6,92.5 142.5,92.4 142.5,92.4 142.4,92.4 142.4,92.4 142.4,92.4 142.3,92.4 
		142.3,92.3 142.2,92.3 142.2,92.3 142.2,92.3 142.1,92.3 142.1,92.3 142.1,92.2 142,92.2 142,92.2 141.9,92.2 141.9,92.2 
		141.9,92.1 141.8,92.1 141.8,92.1 141.8,92.1 141.7,92.1 141.7,92 141.7,92 141.6,92 141.6,92 141.5,91.9 141.5,91.9 141.5,91.9 
		141.4,91.9 141.4,91.8 141.3,91.8 141.3,91.8 141.3,91.8 141.2,91.7 141.2,91.7 141.2,91.7 141.1,91.7 141.1,91.6 141.1,91.6 
		141,91.6 141,91.6 141,91.5 141,91.5 140.9,91.3 141.2,91.2 	"/>
	<polygon class="st13" points="143.9,87.6 144,87.6 144.1,87.6 144.2,87.6 144.3,87.6 144.4,87.6 144.5,87.6 144.5,87.6 144.6,87.6 
		144.7,87.6 144.8,87.6 144.9,87.6 145,87.6 145,87.6 145.1,87.6 145.2,87.7 145.3,87.7 145.3,87.7 145.4,87.7 145.5,87.7 
		145.6,87.7 145.7,87.7 145.8,87.7 145.9,87.7 146,87.7 146.1,87.7 146.2,87.7 146.2,87.8 146.3,87.8 146.4,87.8 146.5,87.8 
		146.5,87.8 146.6,87.8 146.7,87.8 146.8,87.8 146.9,87.8 147,87.9 147,87.9 147.1,87.9 147.2,87.9 147.3,87.9 147.4,87.9 147.5,88 
		147.6,88 147.7,88 147.8,88 147.8,88 147.9,88 148,88.1 148,88.1 148.1,88.1 148.2,88.1 148.3,88.1 148.4,88.2 148.5,88.2 
		148.6,88.2 148.6,88.2 148.7,88.2 148.8,88.3 148.9,88.3 149,88.3 149.1,88.3 149.2,88.4 149.2,88.4 149.3,88.4 149.4,88.4 
		149.5,88.5 149.5,88.5 149.6,88.5 149.7,88.5 149.8,88.6 149.8,88.6 149.9,88.6 150,88.7 150.1,88.7 150.2,88.7 150.3,88.8 
		150.4,88.8 150.4,88.8 150.5,88.9 150.6,88.9 150.7,88.9 150.8,89 150.9,89 150.9,89 151,89.1 151.1,89.1 151.2,89.1 151.3,89.2 
		151.4,89.2 151.4,89.3 151.5,89.3 151.6,89.3 151.7,89.4 151.8,89.4 151.8,89.5 151.9,89.5 152,89.6 152.1,89.6 152.2,89.6 
		152.2,89.7 152.2,89.7 152.3,89.7 152.4,89.8 152.5,89.8 152.6,89.9 152.6,89.9 152.7,90 152.8,90 152.9,90.1 152.9,90.1 153,90.2 
		153.1,90.2 153.2,90.3 153.3,90.3 153.3,90.4 153.4,90.4 153.5,90.5 153.6,90.5 153.6,90.6 153.7,90.6 153.8,90.7 153.8,90.8 
		153.9,90.8 154,90.9 154.1,90.9 154.1,90.9 154.1,91 154.1,91 154.3,91.3 154.2,91.7 154.2,91.7 153.8,91.9 153.5,91.8 153.5,91.8 
		153.4,91.7 153.4,91.7 153.4,91.6 153.3,91.6 153.2,91.5 153.2,91.5 153.1,91.4 153,91.4 153,91.3 152.9,91.3 152.8,91.2 
		152.8,91.1 152.7,91.1 152.6,91 152.6,91 152.5,90.9 152.4,90.9 152.3,90.8 152.3,90.8 152.2,90.7 152.1,90.7 152.1,90.6 152,90.6 
		151.9,90.6 151.9,90.5 151.8,90.5 151.7,90.4 151.7,90.4 151.6,90.4 151.6,90.3 151.5,90.3 151.4,90.2 151.3,90.2 151.3,90.2 
		151.2,90.1 151.1,90.1 151,90 151,90 150.9,90 150.8,89.9 150.7,89.9 150.7,89.8 150.6,89.8 150.5,89.8 150.4,89.7 150.4,89.7 
		150.3,89.7 150.2,89.6 150.1,89.6 150,89.5 150,89.5 149.9,89.5 149.8,89.4 149.7,89.4 149.6,89.4 149.6,89.4 149.5,89.3 
		149.4,89.3 149.3,89.3 149.3,89.2 149.2,89.2 149.2,89.2 149.1,89.2 149,89.1 148.9,89.1 148.8,89.1 148.8,89.1 148.7,89 148.6,89 
		148.5,89 148.4,89 148.3,88.9 148.3,88.9 148.2,88.9 148.1,88.9 148,88.8 147.9,88.8 147.8,88.8 147.8,88.8 147.8,88.8 147.7,88.8 
		147.6,88.7 147.5,88.7 147.4,88.7 147.3,88.7 147.3,88.7 147.2,88.6 147.1,88.6 147,88.6 146.9,88.6 146.8,88.6 146.7,88.6 
		146.7,88.5 146.6,88.5 146.5,88.5 146.4,88.5 146.4,88.5 146.3,88.5 146.2,88.5 146.2,88.5 146.1,88.4 146,88.4 145.9,88.4 
		145.8,88.4 145.7,88.4 145.6,88.4 145.5,88.4 145.5,88.4 145.4,88.4 145.3,88.3 145.2,88.3 145.1,88.3 145,88.3 144.9,88.3 
		144.9,88.3 144.9,88.3 144.8,88.3 144.7,88.3 144.6,88.3 144.5,88.3 144.4,88.3 144.3,88.3 144.3,88.3 144.2,88.3 144.1,88.3 
		144,88.3 143.9,88.3 143.8,88.3 143.7,88.3 143.7,88.3 143.6,88.3 143.5,88.3 143.5,88.3 143.4,88.3 143.3,88.3 143.2,88.3 
		143.1,88.3 143.1,88.3 143,88.3 142.9,88.3 142.8,88.3 142.7,88.3 142.6,88.3 142.5,88.3 142.5,88.3 142.4,88.3 142.3,88.3 
		142.2,88.4 142.1,88.4 142.1,88.4 142,88.4 141.9,88.4 141.9,88.4 141.8,88.4 141.7,88.4 141.6,88.4 141.5,88.4 141.4,88.4 
		141.4,88.5 141.3,88.5 141.2,88.5 141.1,88.5 141,88.5 140.9,88.5 140.9,88.5 140.8,88.5 140.7,88.6 140.6,88.6 140.5,88.6 
		140.5,88.6 140.4,88.6 140.4,88.6 140.3,88.6 140.2,88.7 140.1,88.7 140,88.7 140,88.7 139.9,88.7 139.8,88.8 139.7,88.8 
		139.6,88.8 139.6,88.8 139.5,88.8 139.4,88.9 139.3,88.9 139.2,88.9 139.2,88.9 139.1,88.9 139,89 138.9,89 138.9,89 138.8,89 
		138.8,89 138.7,89.1 138.6,89.1 138.6,89.1 138.5,89.1 138.4,89.2 138.3,89.2 138.2,89.2 138.2,89.2 138.1,89.3 138,89.3 138,89.3 
		137.9,89.3 137.8,89.4 137.7,89.4 137.7,89.4 137.6,89.5 137.5,89.5 137.4,89.5 137.4,89.5 137.3,89.6 137.3,89.6 137.2,89.6 
		137.2,89.6 137.1,89.7 137,89.7 136.9,89.7 136.9,89.8 136.8,89.8 136.7,89.8 136.7,89.9 136.6,89.9 136.5,89.9 136.5,90 136.4,90 
		136.3,90 136.3,90.1 136.2,90.1 136.1,90.1 136.1,90.2 136,90.2 136,90.2 135.9,90.3 135.8,90.3 135.8,90.4 135.7,90.4 135.6,90.4 
		135.6,90.5 135.5,90.5 135.5,90.5 135.4,90.6 135.3,90.6 135.3,90.7 135.2,90.7 135.2,90.7 135.1,90.8 135,90.8 135,90.9 
		134.9,90.9 134.9,90.9 134.9,90.9 134.8,91 134.8,91 134.7,91.1 134.7,91.1 134.6,91.2 134.5,91.2 134.5,91.2 134.4,91.3 
		134.4,91.3 134.3,91.4 134.3,91.4 134.2,91.5 134.2,91.5 134.1,91.6 134.1,91.6 134.1,91.6 133.7,91.7 133.4,91.5 133.4,91.5 
		133.4,91.5 133.3,91.2 133.4,90.8 133.4,90.8 133.5,90.8 133.5,90.7 133.6,90.7 133.7,90.7 133.7,90.6 133.8,90.6 133.8,90.5 
		133.9,90.5 134,90.4 134,90.4 134.1,90.3 134.1,90.3 134.2,90.3 134.3,90.2 134.3,90.2 134.4,90.1 134.5,90.1 134.5,90 134.6,90 
		134.6,90 134.7,89.9 134.8,89.9 134.8,89.8 134.9,89.8 135,89.8 135,89.7 135.1,89.7 135.2,89.6 135.2,89.6 135.3,89.6 135.4,89.5 
		135.5,89.5 135.5,89.5 135.6,89.4 135.7,89.4 135.7,89.4 135.8,89.3 135.9,89.3 135.9,89.3 136,89.2 136.1,89.2 136.2,89.1 
		136.2,89.1 136.3,89.1 136.4,89.1 136.5,89 136.5,89 136.6,89 136.7,88.9 136.8,88.9 136.8,88.9 136.9,88.8 136.9,88.8 137,88.8 
		137.1,88.8 137.1,88.7 137.2,88.7 137.3,88.7 137.4,88.7 137.4,88.6 137.5,88.6 137.6,88.6 137.7,88.6 137.8,88.5 137.8,88.5 
		137.9,88.5 138,88.5 138.1,88.4 138.2,88.4 138.2,88.4 138.3,88.4 138.4,88.3 138.5,88.3 138.6,88.3 138.6,88.3 138.6,88.3 
		138.7,88.2 138.8,88.2 138.9,88.2 139,88.2 139.1,88.2 139.1,88.1 139.2,88.1 139.3,88.1 139.4,88.1 139.5,88.1 139.6,88 139.6,88 
		139.7,88 139.8,88 139.9,88 140,88 140.1,87.9 140.1,87.9 140.2,87.9 140.3,87.9 140.3,87.9 140.4,87.9 140.5,87.9 140.6,87.9 
		140.7,87.8 140.7,87.8 140.8,87.8 140.9,87.8 141,87.8 141.1,87.8 141.2,87.8 141.3,87.8 141.4,87.7 141.4,87.7 141.5,87.7 
		141.6,87.7 141.7,87.7 141.8,87.7 141.9,87.7 142,87.7 142,87.7 142.1,87.7 142.1,87.7 142.2,87.7 142.3,87.7 142.4,87.7 
		142.5,87.6 142.6,87.6 142.7,87.6 142.8,87.6 142.8,87.6 142.9,87.6 143,87.6 143.1,87.6 143.2,87.6 143.3,87.6 143.4,87.6 
		143.5,87.6 143.5,87.6 143.6,87.6 143.6,87.6 143.7,87.6 143.8,87.6 	"/>
	<polygon class="st13" points="160,53.2 160.1,53.2 160.1,53.2 160.2,53.2 160.2,53.2 160.6,53.4 160.8,53.8 160.8,53.8 160.6,54.3 
		160.2,54.5 160.2,54.5 160.1,54.5 160.1,54.5 160.1,54.5 160,54.5 160,54.5 160,54.5 159.9,54.5 159.9,54.5 159.8,54.5 159.8,54.5 
		159.8,54.5 159.7,54.5 159.7,54.5 159.6,54.5 159.6,54.5 159.6,54.5 159.5,54.5 159.5,54.5 159.4,54.6 159.4,54.6 159.4,54.6 
		159.3,54.6 159.2,54.6 159.1,54.6 159,54.6 159,54.6 158.9,54.7 158.8,54.7 158.7,54.7 158.6,54.7 158.5,54.7 158.4,54.8 
		158.3,54.8 158.2,54.8 158.1,54.8 158,54.9 157.9,54.9 157.8,54.9 157.7,54.9 157.6,55 157.5,55 157.4,55 157.3,55.1 157.2,55.1 
		157.1,55.1 157,55.1 156.9,55.2 156.8,55.2 156.7,55.2 156.6,55.3 156.5,55.3 156.4,55.4 156.3,55.4 156.2,55.4 156.1,55.5 
		156,55.5 155.9,55.5 155.8,55.6 155.7,55.6 155.6,55.7 155.5,55.7 155.4,55.8 155.3,55.8 155.1,55.8 155,55.9 154.9,55.9 154.8,56 
		154.7,56 154.6,56.1 154.5,56.1 154.4,56.2 154.3,56.2 154.2,56.2 154.1,56.3 154,56.3 153.9,56.4 153.7,56.4 153.6,56.5 
		153.5,56.5 153.4,56.6 153.3,56.6 153.2,56.7 153.1,56.8 153,56.8 152.9,56.9 152.8,56.9 152.7,57 152.6,57 152.5,57.1 152.4,57.1 
		152.3,57.2 152.2,57.2 152.1,57.3 152,57.3 151.9,57.4 151.8,57.5 151.7,57.5 151.6,57.6 151.5,57.6 151.4,57.7 151.3,57.7 
		151.2,57.8 151.1,57.9 151,57.9 150.9,58 150.8,58 150.7,58.1 150.6,58.1 150.5,58.2 150.4,58.3 150.3,58.3 150.2,58.4 150.1,58.4 
		150,58.5 150,58.6 149.9,58.6 149.8,58.7 149.7,58.7 149.6,58.8 149.5,58.9 149.4,58.9 149.4,59 149.3,59 149.2,59.1 149.1,59.2 
		149,59.2 149,59.3 148.9,59.3 148.8,59.4 148.7,59.5 148.7,59.5 148.6,59.6 148.5,59.6 148.5,59.7 148.4,59.7 148.4,59.7 
		148.4,59.8 148.3,59.8 148.3,59.8 148.3,59.9 148.2,59.9 148.2,59.9 148.2,60 148.1,60 148.1,60 147.7,60.2 147.2,60.3 146.8,60.1 
		146.4,59.8 146.4,59.8 146.1,59.4 146.1,58.9 146.2,58.5 146.5,58.1 146.5,58.1 146.6,58 146.6,58 146.6,58 146.7,57.9 146.7,57.9 
		146.8,57.9 146.8,57.8 146.9,57.8 146.9,57.8 147,57.7 147,57.7 147.1,57.6 147.2,57.6 147.3,57.5 147.4,57.4 147.5,57.4 
		147.6,57.3 147.7,57.3 147.8,57.2 147.9,57.1 148,57.1 148.1,57 148.2,57 148.3,56.9 148.4,56.8 148.5,56.8 148.6,56.7 148.7,56.7 
		148.8,56.6 148.9,56.6 149,56.5 149.1,56.4 149.2,56.4 149.3,56.3 149.4,56.3 149.5,56.2 149.6,56.2 149.7,56.1 149.8,56.1 
		149.9,56 150,56 150.2,55.9 150.3,55.8 150.4,55.8 150.5,55.7 150.6,55.7 150.7,55.6 150.8,55.6 150.9,55.5 151.1,55.5 151.2,55.4 
		151.3,55.4 151.4,55.3 151.5,55.3 151.6,55.2 151.7,55.2 151.9,55.2 152,55.1 152.1,55.1 152.2,55 152.3,55 152.4,54.9 152.6,54.9 
		152.7,54.8 152.8,54.8 152.9,54.7 153,54.7 153.1,54.7 153.3,54.6 153.4,54.6 153.5,54.5 153.6,54.5 153.7,54.5 153.9,54.4 
		154,54.4 154.1,54.3 154.2,54.3 154.3,54.3 154.4,54.2 154.6,54.2 154.7,54.2 154.8,54.1 154.9,54.1 155,54.1 155.1,54 155.3,54 
		155.4,54 155.5,53.9 155.6,53.9 155.7,53.9 155.8,53.8 155.9,53.8 156.1,53.8 156.2,53.7 156.3,53.7 156.4,53.7 156.5,53.7 
		156.6,53.6 156.7,53.6 156.8,53.6 157,53.6 157.1,53.5 157.2,53.5 157.3,53.5 157.4,53.5 157.5,53.5 157.6,53.4 157.7,53.4 
		157.8,53.4 157.9,53.4 158,53.4 158.1,53.4 158.2,53.3 158.3,53.3 158.4,53.3 158.6,53.3 158.7,53.3 158.8,53.3 158.9,53.3 
		159,53.3 159,53.2 159.1,53.2 159.2,53.2 159.2,53.2 159.3,53.2 159.3,53.2 159.4,53.2 159.4,53.2 159.5,53.2 159.5,53.2 
		159.6,53.2 159.6,53.2 159.7,53.2 159.7,53.2 159.8,53.2 159.8,53.2 159.8,53.2 159.9,53.2 159.9,53.2 160,53.2 	"/>
	<polygon class="st13" points="127.4,52.8 127.4,52.8 127.5,52.8 127.5,52.8 127.6,52.8 127.6,52.8 127.7,52.8 127.7,52.8 
		127.8,52.8 127.8,52.8 127.9,52.8 127.9,52.8 128,52.8 128,52.8 128,52.8 128.1,52.8 128.1,52.8 128.2,52.8 128.2,52.8 128.3,52.9 
		128.3,52.9 128.4,52.9 128.4,52.9 128.5,52.9 128.5,52.9 128.6,52.9 128.6,52.9 128.7,52.9 128.8,52.9 128.8,52.9 128.9,52.9 
		128.9,52.9 129,52.9 129,53 129.1,53 129.1,53 129.2,53 129.2,53 129.3,53 129.3,53 129.4,53 129.5,53 129.6,53.1 129.7,53.1 
		129.8,53.1 129.9,53.1 130,53.2 130.2,53.2 130.3,53.2 130.4,53.2 130.5,53.3 130.6,53.3 130.7,53.3 130.8,53.4 130.9,53.4 
		131.1,53.4 131.2,53.5 131.3,53.5 131.4,53.5 131.5,53.6 131.6,53.6 131.8,53.6 131.9,53.7 132,53.7 132.1,53.8 132.2,53.8 
		132.4,53.8 132.5,53.9 132.6,53.9 132.7,54 132.8,54 133,54.1 133.1,54.1 133.2,54.1 133.3,54.2 133.4,54.2 133.6,54.3 133.7,54.3 
		133.8,54.4 133.9,54.4 134,54.5 134.2,54.5 134.3,54.6 134.4,54.6 134.5,54.7 134.7,54.7 134.8,54.8 134.9,54.8 135,54.9 
		135.1,54.9 135.3,55 135.4,55 135.5,55.1 135.6,55.1 135.7,55.2 135.8,55.3 136,55.3 136.1,55.4 136.2,55.4 136.3,55.5 136.4,55.5 
		136.6,55.6 136.7,55.7 136.8,55.7 136.9,55.8 137,55.8 137.1,55.9 137.2,55.9 137.4,56 137.5,56.1 137.6,56.1 137.7,56.2 
		137.8,56.2 137.9,56.3 138,56.4 138.1,56.4 138.3,56.5 138.4,56.5 138.5,56.6 138.6,56.7 138.7,56.7 138.8,56.8 138.9,56.8 
		139,56.9 139.1,57 139.2,57 139.3,57.1 139.4,57.2 139.5,57.2 139.6,57.3 139.7,57.3 139.8,57.4 139.9,57.5 140,57.5 140.1,57.6 
		140.2,57.7 140.3,57.7 140.4,57.8 140.4,57.8 140.5,57.9 140.6,58 140.7,58 140.8,58.1 140.9,58.2 141,58.2 141.1,58.3 141.1,58.3 
		141.1,58.3 141.4,58.7 141.6,59.2 141.5,59.7 141.3,60.1 141.3,60.1 141.3,60.1 140.9,60.4 140.4,60.5 140,60.5 139.5,60.3 
		139.5,60.3 139.5,60.2 139.4,60.1 139.3,60.1 139.3,60 139.2,60 139.1,59.9 139,59.8 139,59.8 138.9,59.7 138.8,59.7 138.7,59.6 
		138.7,59.5 138.6,59.5 138.5,59.4 138.4,59.3 138.3,59.3 138.3,59.2 138.2,59.2 138.1,59.1 138,59 137.9,59 137.8,58.9 137.7,58.8 
		137.7,58.8 137.6,58.7 137.5,58.6 137.4,58.6 137.3,58.5 137.2,58.4 137.1,58.4 137,58.3 136.9,58.2 136.8,58.2 136.7,58.1 
		136.6,58.1 136.5,58 136.4,57.9 136.3,57.9 136.2,57.8 136.1,57.7 136,57.7 135.9,57.6 135.8,57.5 135.7,57.5 135.6,57.4 
		135.5,57.4 135.4,57.3 135.3,57.2 135.1,57.2 135,57.1 134.9,57 134.8,57 134.7,56.9 134.6,56.9 134.5,56.8 134.4,56.7 134.3,56.7 
		134.2,56.6 134.1,56.6 134,56.5 133.8,56.4 133.7,56.4 133.6,56.3 133.5,56.3 133.4,56.2 133.3,56.2 133.2,56.1 133.1,56 133,56 
		132.8,55.9 132.7,55.9 132.6,55.8 132.5,55.8 132.4,55.7 132.3,55.7 132.2,55.6 132.1,55.6 132,55.5 131.9,55.5 131.7,55.4 
		131.6,55.4 131.5,55.3 131.4,55.3 131.3,55.2 131.2,55.2 131.1,55.1 131,55.1 130.9,55.1 130.8,55 130.7,55 130.6,54.9 130.5,54.9 
		130.4,54.9 130.2,54.8 130.1,54.8 130,54.7 129.9,54.7 129.8,54.7 129.7,54.6 129.6,54.6 129.5,54.6 129.4,54.5 129.3,54.5 
		129.2,54.5 129.1,54.4 129,54.4 129,54.4 129,54.4 128.9,54.4 128.9,54.4 128.8,54.4 128.8,54.3 128.7,54.3 128.7,54.3 128.6,54.3 
		128.6,54.3 128.5,54.3 128.5,54.3 128.4,54.3 128.4,54.3 128.4,54.2 128.3,54.2 128.3,54.2 128.2,54.2 128.2,54.2 128.1,54.2 
		128.1,54.2 128,54.2 128,54.2 128,54.2 127.9,54.2 127.9,54.1 127.8,54.1 127.8,54.1 127.8,54.1 127.7,54.1 127.7,54.1 127.6,54.1 
		127.6,54.1 127.6,54.1 127.5,54.1 127.5,54.1 127.4,54.1 127.4,54.1 127.4,54.1 127.3,54.1 127.3,54.1 127.3,54.1 127.2,54.1 
		127.2,54.1 127.2,54.1 126.7,53.9 126.6,53.4 126.6,53.4 126.8,53 127.2,52.8 127.3,52.8 127.3,52.8 127.3,52.8 	"/>
	<path class="st12" d="M170.4,43.7c0.1,2.5-0.8,4.4-3.5,5.1"/>
	<path class="st15" d="M139.3,23.2c0,0,4.6-3.2,14.5,0c9.8,3.2,9.7,7.1,16.2,9.9c6.5,2.8,8,3.6,9.8,9c1.8,5.4,0.9,5.4,1.9,8.5
		c1.1,3.1,2.5,3.7,1.6,9.5c-0.9,5.8-1.2,6-2.3,10.1c-1.1,4.1,0.2,6.3-3.8,11.2c-1.1,1.4-1.8,2.5-2.3,3.5c-1.1,2.4-1,3.8-3.5,6.9
		c-5.3,6.5-9.7,6.7-9.7,6.7c6.2-7.1,8.1-11,9.2-23c8.6-5.1,4-13.2-0.9-9.3c0.8-2.5,0.6-4.1-0.2-7.6c-1-4.3-4.3-4.5-3.1-10
		c-8.9,0.3-13.3-3.5-13.1-7.9c-9.5-2.6-15.1-5.4-14-11L139.3,23.2z"/>
	<path class="st12" d="M139.3,23.2c0,0,4.6-3.2,14.5,0c9.8,3.2,9.7,7.1,16.2,9.9c6.5,2.8,8,3.6,9.8,9c1.8,5.4,0.9,5.4,1.9,8.5
		c1.1,3.1,2.5,3.7,1.6,9.5c-0.9,5.8-1.2,6-2.3,10.1c-1.1,4.1,0.2,6.3-3.8,11.2c-1.1,1.4-1.8,2.5-2.3,3.5c-1.1,2.4-1,3.8-3.5,6.9
		c-5.3,6.5-9.7,6.7-9.7,6.7c6.2-7.1,8.1-11,9.2-23c8.6-5.1,4-13.2-0.9-9.3c0.8-2.5,0.6-4.1-0.2-7.6c-1-4.3-4.3-4.5-3.1-10
		c-8.9,0.3-13.3-3.5-13.1-7.9c-9.5-2.6-15.1-5.4-14-11L139.3,23.2z"/>
	<path class="st15" d="M139.6,23.3l0.3,6.5l-3.6,4.4c1.6,6.1-3.6,9.9-10.3,13.6c-1.9,1.1-5.3,0.8-5.8,4c0,0-3-1.6-4.2,0.2
		c-1.4,2.2-0.5,3.4-0.3,5.1c-2.6,2.9-2.1,6.7-0.3,9.6c-3-2.3-4.3-0.7-4.9,0.2c-1.5,2.2,0.6,8.4,5.6,8.7c-0.3,11.5,3.5,18.5,7.1,21.8
		c-2.6,1.1-9.1-2.9-10.4-9.2c-0.8-3.8-7.1-4.3-5.4-14c0.4-2.4-3-3-2.1-7.4c-1.9-6.6-2.3-12.8,0.5-15.7c-1.4-4.8,2-11.1,10.8-17.4
		C119.9,24.7,133,20,139.6,23.3"/>
	<path class="st12" d="M139.6,23.3l0.3,6.5l-3.6,4.4c1.6,6.1-3.6,9.9-10.3,13.6c-1.9,1.1-5.3,0.8-5.8,4c0,0-3-1.6-4.2,0.2
		c-1.4,2.2-0.5,3.4-0.3,5.1c-2.6,2.9-2.1,6.7-0.3,9.6c-3-2.3-4.3-0.7-4.9,0.2c-1.5,2.2,0.6,8.4,5.6,8.7c-0.3,11.5,3.5,18.5,7.1,21.8
		c-2.6,1.1-9.1-2.9-10.4-9.2c-0.8-3.8-7.1-4.3-5.4-14c0.4-2.4-3-3-2.1-7.4c-1.9-6.6-2.3-12.8,0.5-15.7c-1.4-4.8,2-11.1,10.8-17.4
		C119.9,24.7,133,20,139.6,23.3z"/>
	<path class="st15" d="M139.9,25.5c0,0-11.6,6.2-8.2,6.8C135,33,139.9,25.5,139.9,25.5"/>
	<path class="st12" d="M139.9,25.5c0,0-11.6,6.2-8.2,6.8C135,33,139.9,25.5,139.9,25.5z"/>
	<path class="st15" d="M139.9,24.7c-2.4-1.2-11.7,0.3-10.2,1.9C131.2,28.2,139.2,24.9,139.9,24.7"/>
	<path class="st12" d="M139.9,24.7c-2.4-1.2-11.7,0.3-10.2,1.9C131.2,28.2,139.2,24.9,139.9,24.7z"/>
	<path class="st15" d="M139.9,24.6c0,0,14.6,4,14.1,2.1c-0.4-1.5-4.1-2.4-7.6-2.6C143,24,139.9,24.6,139.9,24.6"/>
	<path class="st12" d="M139.9,24.6c0,0,14.6,4,14.1,2.1c-0.4-1.5-4.1-2.4-7.6-2.6C143,24,139.9,24.6,139.9,24.6z"/>
	<path class="st15" d="M139.9,25.5c0,0,11.6,11.3,11.3,7.7C150.9,29.7,139.9,25.5,139.9,25.5"/>
	<path class="st12" d="M139.9,25.5c0,0,11.6,11.3,11.3,7.7C150.9,29.7,139.9,25.5,139.9,25.5z"/>
	<polygon class="st13" points="96.7,223.1 96.8,223.1 96.9,223.1 96.9,223.1 97,223.1 97.1,223.1 97.2,223.1 97.2,223.1 97.3,223.1 
		97.4,223.1 97.4,223.1 97.5,223.1 97.6,223.1 97.6,223.1 97.7,223.1 97.8,223.1 97.8,223.1 97.9,223.1 98,223.2 98,223.2 
		98.1,223.2 98.2,223.2 98.2,223.2 98.3,223.2 98.4,223.2 98.4,223.2 98.5,223.2 98.6,223.2 98.6,223.3 98.7,223.3 98.8,223.3 
		98.8,223.3 98.9,223.3 99,223.3 99,223.3 99.1,223.4 99.2,223.4 99.2,223.4 99.3,223.4 99.4,223.4 99.4,223.4 99.5,223.5 
		99.6,223.5 99.6,223.5 99.7,223.5 99.7,223.5 100,223.8 100,224.1 100,224.2 99.7,224.4 99.4,224.5 99.4,224.5 99.3,224.4 
		99.2,224.4 99.2,224.4 99.1,224.4 99.1,224.4 99,224.3 99,224.3 98.9,224.3 98.8,224.3 98.8,224.3 98.7,224.2 98.7,224.2 
		98.6,224.2 98.5,224.2 98.5,224.2 98.4,224.2 98.4,224.1 98.3,224.1 98.2,224.1 98.2,224.1 98.1,224.1 98.1,224.1 98,224.1 
		97.9,224 97.9,224 97.8,224 97.8,224 97.7,224 97.6,224 97.6,224 97.5,224 97.5,223.9 97.4,223.9 97.3,223.9 97.3,223.9 
		97.2,223.9 97.1,223.9 97.1,223.9 97,223.9 97,223.9 96.9,223.9 96.8,223.9 96.8,223.9 96.7,223.9 96.6,223.9 96.6,223.8 
		96.5,223.8 96.5,223.8 96.4,223.8 96.3,223.8 96.3,223.8 96.2,223.8 96.1,223.8 96.1,223.8 96,223.8 95.9,223.8 95.9,223.8 
		95.8,223.8 95.8,223.8 95.7,223.8 95.6,223.8 95.6,223.8 95.5,223.8 95.4,223.8 95.4,223.8 95.3,223.8 95.2,223.8 95.2,223.8 
		95.1,223.8 95,223.8 95,223.8 94.9,223.9 94.8,223.9 94.8,223.9 94.7,223.9 94.6,223.9 94.6,223.9 94.5,223.9 94.4,223.9 
		94.4,223.9 94.3,223.9 94.2,223.9 94.2,223.9 94.1,223.9 94,223.9 94,223.9 93.9,224 93.8,224 93.8,224 93.7,224 93.6,224 
		93.6,224 93.5,224 93.4,224 93.4,224 93.3,224.1 93.2,224.1 93.2,224.1 93.1,224.1 93,224.1 93,224.1 92.9,224.1 92.8,224.2 
		92.7,224.2 92.7,224.2 92.6,224.2 92.5,224.2 92.5,224.2 92.4,224.3 92.3,224.3 92.3,224.3 92.2,224.3 92.1,224.3 92,224.3 
		92,224.4 91.9,224.4 91.8,224.4 91.8,224.4 91.7,224.4 91.6,224.5 91.6,224.5 91.5,224.5 91.4,224.5 91.3,224.5 91.3,224.6 
		91.2,224.6 91.1,224.6 91.1,224.6 90.9,224.5 91,224.3 91,224.3 91.1,224.3 91.2,224.2 91.2,224.2 91.3,224.2 91.4,224.2 
		91.4,224.1 91.5,224.1 91.6,224.1 91.7,224.1 91.7,224 91.8,224 91.9,224 91.9,224 92,223.9 92.1,223.9 92.1,223.9 92.2,223.9 
		92.3,223.8 92.4,223.8 92.4,223.8 92.5,223.8 92.6,223.7 92.6,223.7 92.7,223.7 92.8,223.7 92.8,223.7 92.9,223.6 93,223.6 
		93,223.6 93.1,223.6 93.2,223.6 93.3,223.5 93.3,223.5 93.4,223.5 93.5,223.5 93.5,223.5 93.6,223.5 93.7,223.4 93.7,223.4 
		93.8,223.4 93.9,223.4 93.9,223.4 94,223.4 94.1,223.4 94.2,223.3 94.2,223.3 94.3,223.3 94.4,223.3 94.4,223.3 94.5,223.3 
		94.6,223.3 94.6,223.3 94.7,223.2 94.8,223.2 94.8,223.2 94.9,223.2 95,223.2 95,223.2 95.1,223.2 95.2,223.2 95.2,223.2 
		95.3,223.2 95.4,223.2 95.5,223.1 95.5,223.1 95.6,223.1 95.7,223.1 95.7,223.1 95.8,223.1 95.9,223.1 95.9,223.1 96,223.1 
		96.1,223.1 96.1,223.1 96.2,223.1 96.3,223.1 96.3,223.1 96.4,223.1 96.5,223.1 96.5,223.1 96.6,223.1 96.7,223.1 	"/>
	<polygon class="st13" points="91.9,221 91.9,221 92,221 92.1,221 92.1,221 92.2,221 92.3,221 92.3,221 92.4,221 92.5,221 92.5,221 
		92.6,221 92.7,221 92.7,221 92.8,221 92.9,221 92.9,221 93,221 93.1,221 93.1,221 93.2,221 93.3,221 93.3,221 93.4,221 93.5,221 
		93.5,221 93.6,221.1 93.7,221.1 93.7,221.1 93.8,221.1 93.8,221.1 93.9,221.1 94,221.1 94,221.1 94.1,221.1 94.2,221.1 94.2,221.1 
		94.3,221.1 94.4,221.1 94.4,221.2 94.5,221.2 94.5,221.2 94.6,221.2 94.7,221.2 94.7,221.2 94.8,221.2 94.9,221.2 94.9,221.2 
		95,221.3 95,221.3 95.1,221.3 95.2,221.3 95.2,221.3 95.3,221.3 95.3,221.3 95.4,221.4 95.5,221.4 95.5,221.4 95.6,221.4 
		95.6,221.4 95.7,221.4 95.8,221.4 95.8,221.5 95.9,221.5 95.9,221.5 96,221.5 96.1,221.5 96.1,221.5 96.2,221.6 96.2,221.6 
		96.3,221.6 96.4,221.6 96.4,221.6 96.5,221.7 96.5,221.7 96.6,221.7 96.7,221.7 96.7,221.7 96.8,221.8 96.8,221.8 96.9,221.8 
		96.9,221.8 97,221.9 97.1,221.9 97.1,221.9 97.2,221.9 97.2,221.9 97.3,222 97.3,222 97.4,222 97.4,222 97.5,222.1 97.6,222.1 
		97.6,222.1 97.7,222.1 97.7,222.2 97.8,222.2 97.8,222.2 97.9,222.3 97.9,222.3 98,222.3 98,222.3 98.1,222.4 98.2,222.4 
		98.2,222.4 98.3,222.5 98.3,222.5 98.4,222.5 98.4,222.6 98.5,222.6 98.5,222.6 98.6,222.7 98.6,222.7 98.7,222.7 98.7,222.8 
		98.8,222.8 98.8,222.8 98.9,222.9 98.9,222.9 99,222.9 99,223 99.1,223 99.1,223 99.2,223.1 99.2,223.1 99.3,223.2 99.3,223.2 
		99.4,223.2 99.4,223.2 99.6,223.6 99.4,223.9 99.4,223.9 99.1,224.1 98.7,224 98.7,224 98.7,223.9 98.7,223.9 98.6,223.9 
		98.6,223.8 98.5,223.8 98.5,223.8 98.4,223.7 98.4,223.7 98.4,223.7 98.3,223.6 98.3,223.6 98.2,223.5 98.2,223.5 98.1,223.5 
		98.1,223.4 98.1,223.4 98,223.4 98,223.3 97.9,223.3 97.9,223.3 97.8,223.2 97.8,223.2 97.7,223.2 97.7,223.2 97.6,223.1 
		97.6,223.1 97.6,223.1 97.5,223 97.5,223 97.4,223 97.4,222.9 97.3,222.9 97.3,222.9 97.2,222.9 97.2,222.8 97.1,222.8 97.1,222.8 
		97,222.7 97,222.7 96.9,222.7 96.9,222.7 96.8,222.6 96.8,222.6 96.7,222.6 96.7,222.6 96.6,222.5 96.6,222.5 96.5,222.5 
		96.5,222.5 96.4,222.4 96.4,222.4 96.3,222.4 96.3,222.4 96.2,222.3 96.2,222.3 96.1,222.3 96.1,222.3 96,222.2 95.9,222.2 
		95.9,222.2 95.8,222.2 95.8,222.2 95.7,222.1 95.7,222.1 95.6,222.1 95.6,222.1 95.5,222.1 95.5,222 95.4,222 95.3,222 95.3,222 
		95.2,222 95.2,221.9 95.1,221.9 95.1,221.9 95,221.9 95,221.9 94.9,221.9 94.8,221.8 94.8,221.8 94.7,221.8 94.7,221.8 94.6,221.8 
		94.5,221.8 94.5,221.7 94.4,221.7 94.4,221.7 94.3,221.7 94.3,221.7 94.2,221.7 94.1,221.6 94.1,221.6 94,221.6 94,221.6 
		93.9,221.6 93.8,221.6 93.8,221.6 93.7,221.6 93.6,221.5 93.6,221.5 93.5,221.5 93.5,221.5 93.4,221.5 93.3,221.5 93.3,221.5 
		93.2,221.5 93.1,221.5 93.1,221.4 93,221.4 93,221.4 92.9,221.4 92.8,221.4 92.8,221.4 92.7,221.4 92.6,221.4 92.6,221.4 
		92.5,221.4 92.4,221.4 92.4,221.3 92.3,221.3 92.3,221.3 92.2,221.3 92.1,221.3 92.1,221.3 92,221.3 91.9,221.3 91.9,221.3 
		91.8,221.3 91.6,221.1 91.8,221 	"/>
	<path class="st12" d="M149.7,61.8c3.3,0.1,7.3-1,10.5-2.7"/>
	<polygon class="st13" points="142.4,47.1 142.5,47.3 142.5,47.3 142.9,56.3 142.6,56.6 142.2,56.3 141.5,47.3 141.5,47.3 
		141.7,47.1 142,47 142,47 	"/>
	<polygon class="st13" points="144.2,49.4 144.6,49.5 144.7,49.7 144.7,49.7 144.3,55.9 143.9,56.2 143.6,55.9 143.7,49.7 
		143.7,49.7 143.8,49.5 144.2,49.4 	"/>
	<path class="st12" d="M127.7,58.3c2.7,1.9,6.9,3.2,10.6,3.5"/>
	<polygon class="st13" points="208.3,171.9 208.4,171.9 208.4,171.9 208.5,171.9 208.5,171.9 208.6,171.9 208.6,171.9 208.7,171.9 
		208.8,171.9 208.8,171.9 208.9,171.9 208.9,171.9 209,171.9 209.1,171.9 209.1,171.9 209.2,171.9 209.2,171.9 209.3,172 209.4,172 
		209.4,172 209.5,172 209.6,172 209.6,172 209.7,172 209.7,172 209.8,172 209.9,172.1 209.9,172.1 210,172.1 210.1,172.1 
		210.1,172.1 210.2,172.1 210.3,172.2 210.3,172.2 210.4,172.2 210.4,172.2 210.5,172.2 210.6,172.2 210.6,172.3 210.7,172.3 
		210.8,172.3 210.8,172.3 210.9,172.3 211,172.3 211,172.4 211.1,172.4 211.2,172.4 211.2,172.4 211.3,172.4 211.4,172.5 
		211.4,172.5 211.5,172.5 211.5,172.5 211.6,172.6 211.7,172.6 211.9,172.6 212,172.7 212.1,172.7 212.3,172.8 212.4,172.8 
		212.5,172.9 212.7,172.9 212.8,173 212.9,173 213,173.1 213.2,173.1 213.3,173.2 213.4,173.2 213.5,173.3 213.6,173.3 213.8,173.3 
		214,173.4 214.2,173.5 214.7,173.7 214.9,173.8 215.1,173.9 215.2,173.9 215.3,174 215.4,174 215.5,174 215.5,174 215.7,174.3 
		215.8,174.7 215.8,174.7 215.5,174.9 215.1,175 215.1,175 215,174.9 214.9,174.9 214.8,174.8 214.7,174.8 214.5,174.7 214.3,174.6 
		213.9,174.5 213.6,174.4 213.4,174.3 213.3,174.2 213.2,174.2 213,174.1 212.9,174.1 212.8,174 212.7,174 212.6,173.9 212.4,173.9 
		212.3,173.8 212.2,173.8 212.1,173.8 211.9,173.7 211.8,173.7 211.7,173.6 211.6,173.6 211.4,173.5 211.3,173.5 211.2,173.5 
		211.2,173.4 211.1,173.4 211.1,173.4 211,173.4 210.9,173.4 210.9,173.3 210.8,173.3 210.7,173.3 210.7,173.3 210.6,173.3 
		210.6,173.2 210.5,173.2 210.4,173.2 210.4,173.2 210.3,173.2 210.3,173.2 210.2,173.1 210.1,173.1 210.1,173.1 210,173.1 
		210,173.1 209.9,173.1 209.8,173.1 209.8,173 209.7,173 209.7,173 209.6,173 209.5,173 209.5,173 209.4,173 209.4,172.9 
		209.3,172.9 209.3,172.9 209.2,172.9 209.1,172.9 209.1,172.9 209,172.9 209,172.9 208.9,172.9 208.9,172.9 208.8,172.9 
		208.8,172.9 208.7,172.8 208.7,172.8 208.6,172.8 208.6,172.8 208.5,172.8 208.5,172.8 208.4,172.8 208.4,172.8 208.3,172.8 
		208.3,172.8 208.2,172.8 208.2,172.8 208.1,172.8 208.1,172.8 208.1,172.8 208,172.8 208,172.8 207.9,172.8 207.9,172.8 
		170.4,174.1 170.4,174.1 171.6,194.3 171.6,194.3 185.4,193.4 185.7,193.5 185.8,193.7 185.8,193.7 185.8,193.7 185.8,193.7 
		185.7,194 185.5,194.1 185.5,194.1 171.3,195 171.2,195 171.2,195 171.1,195 171.1,195 171,194.9 171,194.9 171,194.9 170.9,194.8 
		170.9,194.8 170.9,194.7 169.5,173.8 169.5,173.7 169.6,173.7 169.6,173.6 169.6,173.5 169.6,173.5 169.7,173.4 169.7,173.4 
		169.8,173.4 169.9,173.4 169.9,173.4 207.8,171.9 207.9,171.9 207.9,171.9 208,171.9 208,171.9 208.1,171.9 208.1,171.9 
		208.2,171.9 208.2,171.9 	"/>
	<polygon class="st13" points="209.6,167.9 209.6,167.9 209.6,167.9 209.7,167.9 209.7,167.9 209.7,167.9 209.8,167.9 209.8,167.9 
		209.8,167.9 209.9,167.9 209.9,167.9 210,167.9 210,167.9 210,167.9 210.1,167.9 210.1,167.9 210.1,167.9 210.2,167.9 210.2,167.9 
		210.2,167.9 210.3,167.9 210.3,167.9 210.3,167.9 210.4,167.9 210.4,168 210.4,168 210.5,168 210.5,168 210.5,168 210.6,168 
		210.6,168 210.6,168 210.6,168 210.7,168 210.7,168 210.7,168 210.8,168.1 210.8,168.1 210.8,168.1 210.9,168.1 210.9,168.1 
		210.9,168.1 210.9,168.1 211,168.1 211,168.2 211,168.2 211.1,168.2 211.1,168.2 211.1,168.2 211.1,168.2 211.2,168.3 211.2,168.3 
		211.2,168.3 211.2,168.3 211.3,168.7 210.9,168.8 210.9,168.8 210.9,168.8 210.8,168.8 210.8,168.8 210.8,168.8 210.8,168.8 
		210.8,168.8 210.8,168.7 210.7,168.7 210.7,168.7 210.7,168.7 210.7,168.7 210.6,168.7 210.6,168.7 210.6,168.7 210.6,168.7 
		210.6,168.7 210.5,168.7 210.5,168.7 210.5,168.6 210.5,168.6 210.4,168.6 210.4,168.6 210.4,168.6 210.4,168.6 210.3,168.6 
		210.3,168.6 210.3,168.6 210.3,168.6 210.2,168.6 210.2,168.6 210.2,168.6 210.2,168.6 210.1,168.6 210.1,168.6 210.1,168.6 
		210,168.6 210,168.6 210,168.6 210,168.6 209.9,168.6 209.9,168.6 209.9,168.6 209.8,168.6 209.8,168.6 209.8,168.5 209.8,168.5 
		209.7,168.5 209.7,168.5 209.7,168.5 209.6,168.5 209.6,168.6 209.6,168.6 209.5,168.6 209.5,168.6 209.5,168.6 209.4,168.6 
		209.4,168.6 209.4,168.6 209.3,168.6 209.3,168.6 209.3,168.6 209.2,168.6 209.2,168.6 209.2,168.6 209.1,168.6 209.1,168.6 
		209.1,168.6 209,168.6 209,168.6 209,168.6 208.9,168.6 208.9,168.6 208.9,168.6 208.8,168.6 208.8,168.6 208.8,168.6 208.7,168.7 
		208.7,168.7 208.7,168.7 208.6,168.7 208.6,168.7 208.6,168.7 208.5,168.7 208.5,168.7 208.5,168.7 208.4,168.7 208.4,168.7 
		208.4,168.7 208.3,168.8 208.3,168.8 208.2,168.8 208.2,168.8 208.2,168.8 208.1,168.8 208.1,168.8 208.1,168.8 208,168.8 
		208,168.8 208,168.9 207.9,168.9 207.9,168.9 207.9,168.9 207.8,168.9 207.8,168.9 207.7,168.9 207.7,168.9 207.7,169 207.6,169 
		207.6,169 207.6,169 207.5,169 207.5,169 207.5,169 207.4,169.1 207.4,169.1 207.3,169.1 207.3,169.1 207.3,169.1 207.2,169.1 
		207.2,169.1 207.2,169.2 207.1,169.2 207.1,169.2 207.1,169.2 207,169.2 207,169.2 207,169.3 206.9,169.3 206.9,169.3 206.9,169.3 
		206.8,169.3 206.8,169.4 206.7,169.4 206.7,169.4 206.7,169.4 206.6,169.4 206.6,169.4 206.6,169.5 206.5,169.5 206.5,169.5 
		206.5,169.5 206.4,169.5 206.4,169.6 206.4,169.6 206.3,169.6 206.3,169.6 206.3,169.6 206.2,169.7 206.2,169.7 206.2,169.7 
		206.1,169.7 206.1,169.7 206.1,169.8 206,169.8 206,169.8 206,169.8 205.9,169.9 205.9,169.9 205.9,169.9 205.8,169.9 205.8,169.9 
		205.8,170 205.8,170 205.7,170 205.7,170 205.7,170.1 205.6,170.1 205.6,170.1 205.6,170.1 205.5,170.1 205.5,170.2 205.5,170.2 
		205.5,170.2 205.4,170.2 205.4,170.3 205.4,170.3 205.3,170.3 205.3,170.3 205.3,170.4 205.3,170.4 205.2,170.4 205.2,170.4 
		205.2,170.5 205.1,170.5 205.1,170.5 205.1,170.5 205.1,170.6 205,170.6 205,170.6 205,170.6 205,170.7 204.9,170.7 204.9,170.7 
		204.9,170.7 204.9,170.8 204.8,170.8 204.8,170.8 204.8,170.9 204.8,170.9 204.7,170.9 204.7,170.9 204.7,171 204.7,171 204.7,171 
		204.6,171 204.6,171.1 204.6,171.1 204.6,171.1 204.6,171.1 204.5,171.2 204.5,171.2 204.5,171.2 204.5,171.3 204.5,171.3 
		204.4,171.3 204.4,171.3 204.4,171.4 204.4,171.4 204.4,171.4 204.3,171.4 204.3,171.5 204.3,171.5 204.3,171.5 204.3,171.6 
		204.3,171.6 204.3,171.6 204.2,171.6 204.2,171.7 204.2,171.7 204.2,171.7 204.2,171.8 204.2,171.8 204.2,171.8 204.1,171.8 
		204.1,171.9 204.1,171.9 204.1,171.9 204.1,172 204.1,172 204.1,172 204.1,172 204.1,172.1 204.1,172.1 204,172.1 204,172.1 
		204,172.2 204,172.2 204,172.2 204,172.3 204,172.3 204,172.3 204,172.3 204,172.4 204,172.4 204,172.4 204,172.4 203.8,172.8 
		203.4,172.8 203.4,172.8 203.1,172.6 203,172.2 203,172.2 203,172.2 203,172.1 203,172.1 203,172 203,172 203.1,172 203.1,171.9 
		203.1,171.9 203.1,171.8 203.1,171.8 203.1,171.8 203.1,171.7 203.2,171.7 203.2,171.7 203.2,171.6 203.2,171.6 203.2,171.5 
		203.2,171.5 203.2,171.5 203.3,171.4 203.3,171.4 203.3,171.4 203.3,171.3 203.3,171.3 203.4,171.3 203.4,171.2 203.4,171.2 
		203.4,171.1 203.4,171.1 203.5,171.1 203.5,171 203.5,171 203.5,171 203.5,170.9 203.6,170.9 203.6,170.9 203.6,170.8 203.6,170.8 
		203.7,170.8 203.7,170.7 203.7,170.7 203.7,170.7 203.8,170.6 203.8,170.6 203.8,170.6 203.8,170.5 203.9,170.5 203.9,170.5 
		203.9,170.4 203.9,170.4 204,170.4 204,170.4 204,170.3 204.1,170.3 204.1,170.3 204.1,170.2 204.1,170.2 204.2,170.2 204.2,170.1 
		204.2,170.1 204.3,170.1 204.3,170.1 204.3,170 204.4,170 204.4,170 204.4,169.9 204.4,169.9 204.5,169.9 204.5,169.9 204.5,169.8 
		204.6,169.8 204.6,169.8 204.6,169.7 204.7,169.7 204.7,169.7 204.7,169.7 204.8,169.6 204.8,169.6 204.8,169.6 204.9,169.6 
		204.9,169.5 204.9,169.5 205,169.5 205,169.5 205,169.4 205.1,169.4 205.1,169.4 205.2,169.4 205.2,169.3 205.2,169.3 205.3,169.3 
		205.3,169.3 205.3,169.2 205.4,169.2 205.4,169.2 205.4,169.2 205.5,169.1 205.5,169.1 205.5,169.1 205.6,169.1 205.6,169 
		205.7,169 205.7,169 205.7,169 205.8,169 205.8,168.9 205.8,168.9 205.9,168.9 205.9,168.9 206,168.9 206,168.8 206,168.8 
		206.1,168.8 206.1,168.8 206.2,168.8 206.2,168.7 206.2,168.7 206.3,168.7 206.3,168.7 206.3,168.7 206.4,168.6 206.4,168.6 
		206.5,168.6 206.5,168.6 206.5,168.6 206.6,168.6 206.6,168.5 206.7,168.5 206.7,168.5 206.7,168.5 206.8,168.5 206.8,168.5 
		206.9,168.4 206.9,168.4 206.9,168.4 207,168.4 207,168.4 207.1,168.4 207.1,168.3 207.1,168.3 207.2,168.3 207.2,168.3 
		207.3,168.3 207.3,168.3 207.3,168.3 207.4,168.2 207.4,168.2 207.5,168.2 207.5,168.2 207.5,168.2 207.6,168.2 207.6,168.2 
		207.7,168.2 207.7,168.1 207.7,168.1 207.8,168.1 207.8,168.1 207.9,168.1 207.9,168.1 207.9,168.1 208,168.1 208,168.1 
		208.1,168.1 208.1,168 208.1,168 208.2,168 208.2,168 208.3,168 208.3,168 208.3,168 208.4,168 208.4,168 208.5,168 208.5,168 
		208.5,168 208.6,167.9 208.6,167.9 208.7,167.9 208.7,167.9 208.7,167.9 208.8,167.9 208.8,167.9 208.8,167.9 208.9,167.9 
		208.9,167.9 209,167.9 209,167.9 209,167.9 209.1,167.9 209.1,167.9 209.1,167.9 209.2,167.9 209.2,167.9 209.3,167.9 209.3,167.9 
		209.3,167.9 209.4,167.9 209.4,167.9 209.4,167.9 209.5,167.9 209.5,167.9 	"/>
	<path class="st15" d="M170,187.6c0,0-1,2.9-3.9,6.6c-1.6,2-4.2,5.3-6.4,6.9c-5.4,3.9-0.2,10.9-3,10.9c-8.7,0-5.1-10-5.1-10
		s-7.6-2.8-10.8-5.3c-3.2-2.5-0.4-5.3-0.4-5.3c-0.6-2.4-0.3-4.4,2.2-5.8c-0.6-1.9,0-4.5,2.8-6.3c-1-2.1,0.5-5.6,3.2-5.6
		c8.3-1.2,15.8-1.1,21.1,3L170,187.6z"/>
	<path class="st12" d="M170,187.6c0,0-1,2.9-3.9,6.6c-1.6,2-4.2,5.3-6.4,6.9c-5.4,3.9-0.2,10.9-3,10.9c-8.7,0-5.1-10-5.1-10
		s-7.6-2.8-10.8-5.3c-3.2-2.5-0.4-5.3-0.4-5.3c-0.6-2.4-0.3-4.4,2.2-5.8c-0.6-1.9,0-4.5,2.8-6.3c-1-2.1,0.5-5.6,3.2-5.6
		c8.3-1.2,15.8-1.1,21.1,3L170,187.6z"/>
	<path class="st12" d="M150.4,173.5c0.6,0.1,10.8,4.8,11.2,6.6c0.6,2.6-1.6,3.8-1.6,3.8c1.3,1.5,0.6,5.1-1.2,5.3
		c0.7,3.8-0.3,4.7-2.6,6.3c0.6,3.1-0.4,5.3-4.4,6"/>
	<path class="st12" d="M150.4,180.1c3.3,1.6,6.5,2.8,9.4,3.6"/>
	<path class="st12" d="M165.8,183.7c-1.6,0-3.6,1.5-4.7,3.1"/>
	<path class="st12" d="M148.8,186.4c4.3,1.7,6.6,2.3,9.5,2.8"/>
	<path class="st12" d="M146.3,192.4c3.6,1.8,8,3.1,9.8,2.9"/>
	<path class="st12" d="M153.4,195.1c1.4,2.1,0.8,4.9-2.4,5.9"/>
	<path class="st12" d="M155.6,189.2c2.5,1.2,0.8,5.3-2.2,5.6"/>
	<path class="st12" d="M158.2,183.3c1.3,3-1.2,4.8-2.6,5.2"/>
	<path class="st12" d="M159.5,178.7c0.3,1.5-0.5,3.8-1.9,4.2"/>
</g>
</svg>
