<svg enable-background="new 0 0 297.64 297.64" viewBox="0 0 297.64 297.64" xmlns="http://www.w3.org/2000/svg"><path clip-rule="evenodd" d="m130.94 45.98c-9.73-3.16-39.04-8.43-54.18 9.78-26.06 31.34-15.49 104.51-15.49 104.51l103.92 3.15s3.79-30.29-1-56.33c-5.07-27.5-17.52-56.01-33.25-61.11z" fill="#43210f" fill-rule="evenodd"/><path clip-rule="evenodd" d="m129.77 148.15c.02.3 0 .59-.05.89-.58 3.25-2.34 5.8-4.48 8.11-.3.48-.64.95-.98 1.42-.05.16-.1.33-.19.49-1.48 2.99-3.82 5.79-7.16 6.04-.34.21-.69.37-1.04.42-4.18 1.44-8.06-1.37-11.13-4.24-2.93-2.73-6.96-6.43-8.07-10.43-.28-1.01-.31-1.92-.14-2.73-17 1.2-43.9 14.03-72.23 61.47 10.87 10.84 21.17 17.76 34.34 20.88.23 6.58 6.32 10.75 9.21 12.84 2.05 7.18.84 36.56.84 36.56h87.63s-.99-32.31 1.67-33.49c2.67-3.37 6.57-7.56 7.26-12.56 0 0 27.79-14.93 32.65-24.28-10.05-26.51-30.82-49.97-68.13-61.39z" fill="#bbe4f9" fill-rule="evenodd"/><path clip-rule="evenodd" d="m75.17 108.89c3.57 13.06 11.96 23.43 22.6 27.95.58 4.41.62 8.66-.78 12.46 1 4.78 9.85 16.42 16.78 16.59 6.17.15 13.81-13.53 14.67-17.92-1.28-4.33-1.75-8.98-1.72-13.81 8.32-5.38 14.72-14.57 17.66-25.66 2.77.14 6.2-2.58 8.28-6.81 2.45-5 2.08-10.23-.83-11.66-1.67-.83-3.82-.21-5.81 1.4-1.43-22.96-17.14-41.09-36.31-41.09-19.52 0-35.47 18.79-36.38 42.35-2.43-1.43-4.9-1.67-6.52-.37-2.59 2.07-2.02 7.3 1.27 11.67 2.09 2.73 4.76 4.49 7.09 4.9z" fill="#fdd5b4" fill-rule="evenodd"/><path clip-rule="evenodd" d="m185.83 222.44c-6.4 5.26-10.3 7.32-18.35 11.25l3.07 18.47-39.52-16.81c.07-.02.12-.03.19-.04 5.24-1.22 9.63-5.61 15.7-8.1 6.22-2.55 8.73.9 8.6-.73-.44-5.32-8.34-6.17-10.21-6.29-.26.09-.4.09-.4-.02 0 0 .15 0 .4.02 2.39-.87 15.03-10.12 19.48-17.33 2.94-4.76.38-4.19.38-4.19 2.19-4.05 2.28-6.69.45-7.71l-1.82 1.64s-1.39-2.47-2.02-1.76c-1.41 1.61-5.18 5.51-5.18 5.51 0-.77-.61-1.82-1.9-1.93 0 0-5.94 6.04-13.09 9.57-4.04 2-14.96 6.91-20.25 11.63s-5.05 8.56-5.05 8.56l-5.91 2.4-5.22-2.22s.24-3.83-5.03-8.68c-5.27-4.84-16.14-10.01-20.17-12.1-7.12-3.7-13.04-9.88-13.04-9.88-1.29.08-1.89 1.11-1.89 1.88 0 0-3.76-3.99-5.16-5.63-.62-.73-2.01 1.71-2.01 1.71l-1.81-1.68c-1.83.97-1.73 3.61.45 7.72 0 0-2.55-.64.38 4.19 4.27 7.03 16.09 16.14 19.09 17.64.44.07.71.13.71.13.01.15-.25.1-.71-.13-2.43-.39-10.31-1.14-10.21 5.55.02 1.63 2.72-1.12 8.92 1.58 5.8 2.52 10.07 6.76 15.03 8.28l-36.11 13.29 2.98-18.88c-6.37-1.75-13.86-3.78-21.67-8.65-2.01 12.79-6.06 48.72 4.17 53.45 12.75 5.89 39-9.41 71.39-30.47 33.08 23.11 64.82 36.23 75.23 29.36 6.43-4.24 3.44-38.22.11-50.6z" fill="#fdd5b4" fill-rule="evenodd"/><path clip-rule="evenodd" d="m110.77 166.75c-.86-.21-1.61-.86-2.07-1.67-3.4-1.46-6.64-4.42-8.9-7.89-2.06-1.98-3.55-4.62-4.23-7.31-.17-.65-.14-1.28.03-1.84-4.6.97-8.66 2.04-12.3 3.19 13.37 33.79 24.45 34.14 30.83 15.81-1.05.08-2.18 0-3.36-.29z" fill="#fff" fill-rule="evenodd"/><path clip-rule="evenodd" d="m129.51 147.77c.24 1.56-.33 3.38-1.31 4.78-.09.14-.2.26-.3.39-1.4 4.48-4.37 8.95-8.33 11.35-1.26 1.51-2.98 2.45-5.01 2.71 8.07 17.16 13.61 17.24 25.73-15.38-2.74-1.12-6.04-2.25-10.78-3.85z" fill="#fff" fill-rule="evenodd"/><path clip-rule="evenodd" d="m115.2 186.28c1.53-.04 2.72-1.31 2.66-2.83-.06-1.53-1.34-2.73-2.87-2.69s-2.72 1.31-2.66 2.83 1.34 2.72 2.87 2.69z" fill="#203756" fill-rule="evenodd"/><path clip-rule="evenodd" d="m115.61 197.05c1.53-.04 2.72-1.31 2.66-2.83-.06-1.53-1.34-2.73-2.87-2.69s-2.72 1.31-2.66 2.83 1.35 2.72 2.87 2.69z" fill="#203756" fill-rule="evenodd"/><path clip-rule="evenodd" d="m115.81 202.21c-1.53.04-2.72 1.31-2.66 2.83s1.34 2.73 2.87 2.69 2.72-1.31 2.66-2.83-1.34-2.73-2.87-2.69z" fill="#203756" fill-rule="evenodd"/><path clip-rule="evenodd" d="m164.92 82.05c-15.84-62.34-56.32-52.73-70.25-43.57-.02.21-.03.4-.04.61l-.24-1.04c-9.42-.26-16.95 3.69-22.82 10.19-6.19 6.84-10.26 15.96-13.05 26.52-4.86 18.41-5.4 26.45-7.12 36.75-1.58 9.45-4.56 15.02-6.7 24.25-6.37 27.56 18.84 40.28 25.88 28.57-10.78-7.05-14.44-49.51 3.78-74.36 4.07-14.57 23.04-23.6 23.7-35.09 8.63 10.88 31.23 5.73 48.25 29.27 14.05 19.44 21.94 54.05 9.04 72.3l14.48 11.14c24.18-28.67 1.92-46.19-4.91-85.54z" fill="#713e1b" fill-rule="evenodd"/><path d="m163.26 82.31c-14.31-38.53-39.66-64-68.66-41.61 3.71.22 61.74-27.23 82.24 105.74-1.19-17.44-6.76-45.75-13.58-64.13z" fill="#9c5929"/><path d="m52.65 118.73c8.21-26.57 20.21-74.72 37.85-75.86-21.95-13.44-35.41 65.88-37.85 75.86z" fill="#9c5929"/><path d="m52.65 118.73c-.11.34-.21.68-.32 1.02.07-.08.18-.44.32-1.02z" fill="#9c5929"/><g clip-rule="evenodd" fill-rule="evenodd"><path d="m120.94 166.93c.59-1.74 2.11-3.6 4.67-5.58" fill="#fff"/><path d="m127.63 158.56c.74-.71 2.14-1.6 2.76-2.08" fill="#fff"/><path d="m236.76 46.74-17.63-18.04c-2.15-2.2-5.69-2.24-7.89-.09s-2.24 5.69-.09 7.89l17.81 18.22-17.81 18.22c-2.15 2.2-2.11 5.74.09 7.89s5.74 2.11 7.89-.09l17.63-18.04 17.63 18.04c2.15 2.2 5.69 2.24 7.89.09s2.24-5.69.09-7.89l-17.81-18.22 17.81-18.22c2.15-2.2 2.11-5.74-.09-7.89s-5.74-2.11-7.89.09z" fill="#bf2035"/><path d="m85.9 84.12c1.31-.66 2.67-.9 4.05-.93 1.66-.04 3.35.28 5.06.65 1.15.25 2.3.53 3.45.76 1.21.24 2.42.43 3.6.5 1.97.13 3.85-.04 5.57-.77.55-.24 1.11-.85 1.32-1.7.2-.81.16-1.82-.43-2.78-.11-.21-.36-.28-.57-.18-.21.11-.29.36-.18.57.28.61.3 1.21.18 1.73-.13.57-.44 1.01-.8 1.12-1.14.36-2.34.42-3.56.34-1.2-.07-2.43-.31-3.68-.57-1-.2-2.01-.42-3.02-.61-1.59-.3-3.18-.53-4.74-.57-2.37-.05-4.65.35-6.69 1.71-.2.12-.27.38-.15.58.13.2.39.27.59.15z" fill="#010101"/><path d="m84.45 95.49c.16.09.33.13.5.13.35 0 .68-.18.87-.5 1.23-2.14 3.48-3.92 5.95-4.84-.25.45-.41.95-.41 1.49 0 1.77 1.56 3.21 3.48 3.21s3.48-1.44 3.48-3.21c0-.71-.25-1.35-.67-1.88 1.52.41 3.14 1.3 4.62 3.07.35.42.98.48 1.41.13.42-.35.48-.98.13-1.41-2.43-2.92-5.77-4.36-9.4-4.04-4.14.36-8.29 2.97-10.31 6.5-.3.47-.13 1.08.35 1.35z" fill="#010101"/><path d="m123.5 87.12c-3.63-.31-6.97 1.12-9.4 4.04-.35.42-.29 1.06.13 1.41s1.06.29 1.41-.13c1.41-1.7 2.96-2.59 4.42-3.02-.36.5-.57 1.1-.57 1.74 0 1.74 1.53 3.15 3.41 3.15s3.41-1.41 3.41-3.15c0-.54-.16-1.04-.42-1.49 2.56.9 4.91 2.72 6.18 4.94.18.32.52.5.87.5.17 0 .34-.04.5-.13.48-.27.65-.88.37-1.36-2.02-3.53-6.16-6.14-10.31-6.5z" fill="#010101"/><path d="m115.32 85.5c.06.03.12.05.18.07.89.26 2.09.32 3.5.24.82-.05 1.7-.13 2.64-.26.82-.11 1.68-.26 2.57-.42.99-.17 2.01-.35 3.04-.5 1.53-.22 3.07-.4 4.58-.36.23.02.44-.14.46-.38.03-.23-.14-.44-.38-.46-1.51-.28-3.08-.39-4.66-.37-.67 0-1.33.03-1.99.08-1.01.07-2 .17-2.95.3-.67.09-1.31.19-1.92.3-1.03.17-1.98.34-2.82.42-.64.06-1.21.09-1.69.02-.23-.12-.74-.44-1-.99-.19-.41-.28-.93-.05-1.58.09-.21 0-.46-.22-.56-.21-.09-.46 0-.56.22-.48.91-.45 1.69-.25 2.34.38 1.22 1.52 1.89 1.52 1.89z" fill="#010101"/><path d="m106.69 103.33c-.36-.42-.99-.46-1.41-.1s-.46.99-.1 1.41c1.52 1.75 3.64 2.73 5.8 2.73.33 0 .66-.02.99-.07 2.12-.3 3.85-1.54 4.72-3.4.24-.5.02-1.1-.48-1.33-.5-.24-1.1-.02-1.33.48-.58 1.24-1.75 2.07-3.19 2.27-1.82.26-3.69-.49-5-1.99z" fill="#010101"/><path d="m126.45 119.62s-.28.27-.67.7c-.27-1.13-.94-2.03-1.97-2.64-5.33-3.14-19.37 2.48-21.24 3.59-.18.11-.3.27-.38.45-.02-.01-.05-.03-.07-.04-.7-.4-1.26-.62-1.26-.62-.13-.11-.33-.09-.44.04s-.09.33.04.44c0 0 .33.5.85 1.12.19.22.39.46.63.67.09.08.19.15.29.22.16.11.31.2.47.29.71.39 1.27.61 1.27.61.14.11.33.09.44-.04s.09-.33-.04-.44c0 0-.28-.43-.73-.99 2.06-1.18 15.04-5.98 19.15-3.56.8.47 1.16 1.2 1.13 2.29-.01.35.17.65.44.83-.01.02-.02.04-.02.05-.33.84-.51 1.5-.51 1.5-.09.15-.04.34.11.43s.34.04.43-.11c0 0 .49-.47 1.06-1.17.21-.26.43-.53.62-.83.07-.12.14-.24.19-.37.09-.19.18-.38.25-.57.32-.85.49-1.51.49-1.51.09-.15.04-.34-.11-.43-.13-.11-.33-.06-.42.09z" fill="#010101"/><path d="m115.25 188.28c2.64-.07 4.71-2.27 4.61-4.91-.1-2.61-2.3-4.68-4.92-4.62-2.64.07-4.71 2.27-4.61 4.91.1 2.61 2.31 4.68 4.92 4.62zm-.26-7.53c1.53-.04 2.81 1.17 2.87 2.69s-1.13 2.79-2.66 2.83-2.81-1.17-2.87-2.69 1.13-2.79 2.66-2.83z" fill="#010101"/><path d="m115.66 199.04c2.64-.07 4.71-2.27 4.61-4.91-.1-2.61-2.31-4.68-4.92-4.62-2.64.07-4.71 2.27-4.61 4.91.1 2.62 2.31 4.69 4.92 4.62zm-.26-7.52c1.53-.04 2.81 1.17 2.87 2.69.06 1.53-1.13 2.79-2.66 2.83s-2.81-1.17-2.87-2.69 1.13-2.79 2.66-2.83z" fill="#010101"/><path d="m115.76 200.21c-2.64.07-4.71 2.27-4.61 4.91.1 2.61 2.3 4.68 4.92 4.62 2.64-.07 4.71-2.27 4.61-4.91-.1-2.61-2.31-4.68-4.92-4.62zm.26 7.53c-1.53.04-2.81-1.17-2.87-2.69-.06-1.53 1.13-2.8 2.66-2.83 1.53-.04 2.81 1.17 2.87 2.69s-1.13 2.79-2.66 2.83z" fill="#010101"/><path d="m198.81 208.56c-5.67-14.08-14.12-28.01-26.82-39.66 12.54-15.03 13-27.18 9.43-40.72-3.38-12.82-10.64-26.98-14.04-46.56-.01-.06-.02-.13-.04-.19-6.57-25.84-17.36-39.65-28.7-46.44-16.62-9.94-34.69-4.97-44.03.57-.05-.01-.1-.02-.15-.02-10.21-.28-18.38 3.97-24.75 11.01-6.43 7.12-10.71 16.58-13.61 27.55-4.89 18.52-5.44 26.61-7.17 36.98-1.57 9.4-4.55 14.93-6.67 24.1-3.78 16.36 2.83 27.83 10.82 32.95-9.85 9.39-20.3 22.37-30.93 40.17-.59.98-.43 2.24.38 3.05 3.74 3.73 7.56 6.84 11.51 9.47-.15.26-.26.53-.31.83-1.43 9.11-4.48 29.1-2.63 41.92.93 6.44 3.28 11.14 6.94 12.83 5.67 2.62 13.82 1.65 23.85-2.28 1.88-.74 3.84-1.59 5.86-2.52-.05 4.16-.13 7.08-.13 7.08-.02.67.24 1.33.71 1.81s1.12.76 1.79.76l85.16.02c.68 0 1.32-.27 1.79-.76.47-.48.73-1.14.71-1.81 0 0-.07-2.47-.11-6.02 4.61 1.74 8.87 3.03 12.65 3.8 7.41 1.51 13.2 1 16.78-1.36 1.11-.74 2.12-2.03 2.86-3.87.84-2.09 1.42-5.01 1.74-8.45 1.14-12.49-1.07-32.16-3.45-41.02-.04-.15-.1-.28-.16-.41.21-.16.42-.31.62-.47 4.63-3.56 8.43-7.22 10.01-10.26.33-.64.36-1.4.09-2.08zm-104.14-170.08c13.93-9.16 54.41-18.77 70.25 43.57 6.8 39.18 28.9 56.73 5.21 85.18-4.43-3.86-9.36-7.45-14.84-10.68.05-.01.1-.03.16-.04l-.09-.07c12.9-18.25 5.01-52.86-9.04-72.3-22.37-30.94-54.4-12.31-51.65-45.66zm-21.69 71.83c3.5 12.05 10.95 21.83 20.42 27.14 1.35.76 4.33 2.06 4.41 2.09-.81.01-1.65-.28-2.33-.8.07.69.12 1.38.15 2.06.07 1.62 0 3.21-.25 4.74-.64.13-1.26.27-1.88.4-7.25.99-16.01 3.97-25.74 10.38-.83-2.01-1.54-4.38-2.12-7-2.52-11.43-2.24-27.64 2.69-42.09 1.49 1.41 3.09 2.47 4.65 3.08zm-3.9-5.15c.61-1.62 1.29-3.22 2.02-4.77.25 2.54.64 5.02 1.21 7.41-1.11-.65-2.21-1.54-3.23-2.64zm5.28-10.75c.64-1.02 1.31-2.01 2.01-2.97.18-.24.31-.52.39-.81 2.38-8.53 10.21-14.98 16-21.29 2.94-3.21 5.36-6.41 6.7-9.72 2.95 2.15 6.65 3.62 10.83 4.97 10.07 3.25 23.22 6.12 33.98 21.01.47.65.93 1.33 1.39 2.01.31 2.34.48 4.74.48 7.19 0 24.55-16.32 44.49-36.43 44.49-18.83 0-34.34-17.49-36.23-39.88-.08-.96-.14-1.94-.17-2.92-.07.07.6-1.35 1.05-2.08zm19.63 53.99c.23-.03.47-.07.7-.09-.01.04-.02.08-.04.12-.16.44-.2.92-.1 1.38.66 3.16 4.34 9.12 8.91 13.37 3.24 3.01 6.93 5.09 10.19 5.2-6.45 16.96-17.31 15.79-30.35-17.15 3.21-1.02 6.76-1.96 10.69-2.83zm3 .89c1.1-2.99 1.3-6.26 1.06-9.66 3.69 1.41 7.62 2.17 11.68 2.17 6.1 0 11.89-1.72 17.05-4.77.15 3.8.64 7.47 1.67 10.93-.87 4.4-8.5 18.08-14.67 17.92-6.94-.17-15.79-11.81-16.79-16.59zm24.25 15.42c4.77-4.58 8.95-12.81 9.65-16.2 3.24 1.02 6.33 2.15 9.3 3.37-11.75 31.54-17.3 32.21-25.03 16.35 1.99-.38 4.1-1.62 6.08-3.52zm9.13-19.29c-.75-3.18-1.09-6.53-1.13-9.98 7.97-5.6 14.17-14.52 17.26-25.22.43-.12.86-.28 1.29-.48 2.15-1.02 4.36-3.14 6.02-6 3.04 8.05 5.04 16.77 5.48 25.1.53 9.91-1.12 19.28-5.98 26.16-.07.1-.12.21-.17.32-3.44-1.92-7.09-3.7-10.97-5.33-.25-.29-.56-.53-.94-.68-2.76-1.14-6.08-2.28-10.86-3.89zm18.23-53c1.55 2.79 2.97 5.77 4.25 8.86-.06.13-.11.26-.17.39-1.42 2.91-3.49 5.09-5.54 6.14.99-4.13 1.52-8.48 1.52-13 0-.8-.03-1.6-.06-2.39zm-103.9 43.33c2.13-9.23 5.11-14.8 6.7-24.25 1.73-10.31 2.26-18.34 7.12-36.75 2.79-10.56 6.86-19.67 13.05-26.52 5.41-5.99 12.24-9.8 20.65-10.15-.01.06-.03.13-.04.19-.76 9.27 1.07 14.89 4.36 18.7.29.33.6.64.92.95-3.35 10.11-19.4 18.79-23.1 32.05-18.21 24.84-14.56 67.31-3.78 74.36-7.04 11.7-32.25-1.02-25.88-28.58zm-5.61 138.4c-9.53-4.41-5.54-34.43-3.33-48.89-.23-.64.62-2.74.65-3.07 6.26 3.92 12.09 6.38 19.05 8.34l-3.38 17.72c-.73.45-4.13 2.65-5.75 6.01-.77 1.6-1.16 3.45-.62 5.51-.24-2.01.34-3.7 1.29-5.1 2.12-3.15 6.06-4.7 6.06-4.7.15-.07.26-.18.35-.3l62.9-25.5s-.24-3.84 5.05-8.56 16.21-9.63 20.25-11.63c7.15-3.53 13.09-9.57 13.09-9.57.8.07 1.34.5 1.63 1 .05.6-.11 1.27-.41 1.99-.76 1.84-2.39 3.92-4.52 5.96-3.74 3.59-9 7.03-14.01 8.8-.07.02-.14.07-.19.13-3.52 4.3-4.96 9.32-7.59 12.89-1.25 1.7-2.78 3.07-4.94 3.86 2.21-.71 3.81-2.03 5.14-3.7 2.73-3.41 4.35-8.29 7.95-12.39 5.2-1.62 10.71-4.93 14.68-8.45 2.43-2.14 4.27-4.38 5.18-6.35.58-1.26.75-2.44.57-3.47 1.2-1.26 2.78-2.92 3.58-3.84.37-.43 1.02.28 1.48.93.25.62.04 1.46-.36 2.44-.84 2.04-2.65 4.51-4.84 6.98-5.03 5.69-12.04 11.33-14.42 11.63-.02 0-.05.01-.06.03l-1.7 2.37 1.81-2.24c2.46-.2 9.88-5.48 15.29-10.93 2.99-3.01 5.34-6.09 6.05-8.42.26-.84.28-1.6.13-2.26l.45-.41c1.55.85 1.71 2.88.41 5.92-.95 1.6-2.62 3.62-4.6 5.75-3.11 3.35-6.96 6.89-10.06 9.4-.8.64-1.53 1.14-2.18 1.51-1.45.85-2.4 1.1-2.4 1.1-.02.01-.04.02-.06.04l-1.74 2.51 1.87-2.36c.18-.04 1.12-.27 2.5-.96.68-.34 1.47-.8 2.32-1.41 3.29-2.33 7.39-5.65 10.75-8.83 1.43-1.35 2.71-2.68 3.75-3.9-.08.62-.45 1.6-1.4 3.13-3.7 5.99-13.06 13.39-17.49 16.22-1.17.26-2.86.74-4.17 1.49s-2.26 1.75-1.94 3.09c-.09-1.27.9-2.06 2.2-2.55 1.17-.44 2.57-.64 3.66-.73 3 .45 8.12 1.84 8.47 6.1.13 1.63-2.38-1.82-8.6.73-6.06 2.48-10.46 6.88-15.7 8.1-3.26.76-5.39.76-6.63.62-1.14-.28-2.14-.71-2.14-.71l-3.81 3.26.02.02-6.05 3.81c-33.34 21.76-60.46 37.86-73.49 31.84zm18.72-42.59c.07.31.13.63.21.94.04-.07.1-.13.15-.2.08.58.18 1.15.31 1.71.3 1.28.73 2.5 1.34 3.63 1.02 1.87 2.49 3.53 4.53 4.89-5.6 2.27-9.36 3.79-9.36 3.79zm21.1-11.08c-1.41-1.05-3.51-1.82-5.07-2.29-4.57-3.13-13.38-10.44-16.95-16.31-.79-1.31-1.18-2.2-1.33-2.83 1.06 1.33 2.46 2.79 4.06 4.29 3.16 2.96 7.04 6.06 10.31 8.45.85.62 1.64 1.1 2.32 1.46 1.38.73 2.32.98 2.5 1.02 0 0 1.87 2.4 1.87 2.4l-1.73-2.55c-.01-.02-.03-.03-.06-.04 0 0-.95-.27-2.39-1.16-.64-.39-1.37-.9-2.16-1.57-3.07-2.57-6.71-5.89-9.64-9.02-2.44-2.6-4.39-5.05-5-6.78-.05-.14-.14-.25-.24-.35-.99-2.69-.75-4.47.68-5.23l.51.47c-.16.7-.11 1.52.2 2.44.78 2.3 3.12 5.37 6.04 8.4 5.36 5.54 12.62 10.97 15.08 11.23 0 0 1.8 2.28 1.8 2.28l-1.69-2.41c-.02-.02-.04-.03-.06-.03-2.36-.35-9.22-6.14-14.19-11.91-2.15-2.5-3.94-4.99-4.83-7.03-.25-.57-.41-1.1-.49-1.57-.07-.45-.05-.84.14-1.14.03-.04.03-.09.05-.13.43-.53.94-.98 1.26-.61.85.99 2.56 2.85 3.79 4.16-.12.64-.04 1.43.34 2.34.8 1.95 2.88 4.61 5.69 7.25 3.87 3.63 9.11 7.26 14.1 8.94 3.59 4.19 5.21 9.1 7.93 12.57 1.33 1.7 2.92 3.06 5.13 3.82-2.15-.84-3.67-2.25-4.92-3.98-2.61-3.63-4.05-8.69-7.55-13.07-.05-.06-.12-.11-.19-.13-3.98-1.5-8.08-4.34-11.44-7.37-3.23-2.92-5.77-6.01-6.78-8.27-.18-.4-.3-.77-.37-1.1-.05-.27-.07-.5.03-.67.04-.08.06-.17.08-.25.3-.26.7-.45 1.22-.48 0 0 5.92 6.18 13.04 9.88 4.02 2.09 14.9 7.26 20.17 12.1 5.27 4.85 5.03 8.68 5.03 8.68l1.97.84c-3.45 1.4-7.94 3.22-12.85 5.21 0-.04 0-.08-.03-.12-.71-1.06-1.53-1.98-2.4-2.75-.64-.56-1.31-1.05-1.97-1.45-.29-.17-.58-.33-.86-.47-.46-.23-.91-.42-1.34-.59-2.02-.76-3.52-.92-3.52-.92-.11-.02-.22.05-.25.17-.02.11.05.22.17.25 0 0 .97.27 2.36.89.46.21.97.45 1.51.74.39.21.8.43 1.22.68.39.22.79.46 1.19.72.63.4 1.26.85 1.88 1.36.58.49 1.15 1.02 1.68 1.63 0 0 .01 0 .01.01-2.42.98-4.93 2-7.46 3.02-3.7-1.95-7.28-4.94-11.79-6.9-6.2-2.69-8.9.06-8.92-1.58-.07-4.85 4.05-5.79 7.25-5.79 1.55.21 3.98.66 5.64 1.57 1.08.59 1.81 1.36 1.74 2.39.2-1.11-.47-2.03-1.52-2.81zm77.13 51.6c-.31-.03-.6-.09-.88-.18.04 4.01.12 6.88.12 6.88l-85.16-.02s.09-3.5.13-8.33c11.57-5.62 25.21-14.03 40.18-23.73.03.01.05.03.08.04 16.38 11.32 32.37 20.13 45.61 25.34-.03 0-.05 0-.08 0zm29.68.96c-10.18 6.72-40.75-5.67-73.02-27.82.42-.27.84-.54 1.26-.82l9.67-6.09c1.06.18 2.76.29 5.19-.03h.06v-.01c.88-.12 1.84-.29 2.92-.54.93-.22 1.84-.53 2.74-.9l33.17 14.11c.1.12.23.22.39.29 0 0 2.75.75 4.56 2.82 1.1 1.26 1.85 2.95 1.52 5.23.77-2.35.22-4.28-.71-5.82-.91-1.49-2.23-2.58-3.23-3.26l-2.6-15.69c4.14-2.34 11.68-6.78 18.34-11.56 3.26 12.75 6.08 45.9-.26 50.09zm-20.32-36.67 1.94 11.69-6.79-2.89c1.07-1.03 1.94-2.14 2.63-3.32.7-1.2 1.21-2.49 1.56-3.82-.01.06-.02.13-.04.19.01.18-.02.35-.02.53.29-.76.52-1.56.72-2.38zm7.5-7.85c-2.18 1.32-7.25 3.42-7.49 3.78 0-.24 0-.47-.01-.71-.19-4.82-1.64-9.91-3.03-14.76-.08-.34-.42-.55-.76-.47s-.55.42-.47.76c.91 4.79 1.79 9.82 1.64 14.48-.06 1.91-.3 3.74-.81 5.48-.34 1.14-.8 2.24-1.4 3.29-.73 1.29-1.68 2.48-2.91 3.59l-20.17-8.58c.86-.48 1.71-.99 2.58-1.53 2.4-1.49 4.89-3.15 7.78-4.33 3.11-1.27 5.03-.65 5.98-.35.67.21 1.19.28 1.53.26.86-.04 1.46-.38 1.92-.89.38-.41.8-1.08.71-2.27-.28-3.39-2.57-5.6-5.4-6.9-.3-.14-.6-.26-.9-.37 5.09-3.74 12.07-9.75 15.2-14.83 1.68-2.72 1.86-4.31 1.76-5.14-.06-.48-.17-.87-.33-1.21.88-2.11 1.17-3.86 1.02-5.17-.21-1.8-1.09-3.08-2.54-3.88-.88-.48-1.95-.39-2.74.21-.32-.26-.64-.45-.93-.56-1.23-.48-2.34-.27-3.25.77-.69.79-1.97 2.15-3.07 3.3-.54-.3-1.18-.51-1.92-.57s-1.46.21-1.98.74c0 0-5.64 5.73-12.42 9.08-4.16 2.06-15.36 7.15-20.81 12-3.97 3.54-5.28 6.73-5.7 8.66 0 0-1.33.54-3.57 1.45l-2.92-1.24c-.41-1.93-1.71-5.15-5.66-8.79-5.41-4.98-16.57-10.33-20.71-12.48-6.77-3.52-12.39-9.39-12.39-9.39-.51-.53-1.22-.81-1.95-.77-.75.04-1.39.23-1.93.52-1.1-1.19-2.38-2.58-3.08-3.39-.9-1.05-2-1.27-3.22-.82-.29.11-.61.29-.92.53-.77-.63-1.85-.74-2.74-.27-1.46.77-2.36 2.05-2.57 3.87-.15 1.31.14 3.08 1.03 5.23-.28.53-.5 1.29-.3 2.41.14.81.58 2.05 1.7 3.9 2.88 4.74 9.02 10.37 13.93 14.23-1.46.49-2.79 1.29-3.76 2.48-1 1.24-1.68 2.91-1.65 5.21.02 1.01.38 1.64.8 2.09.37.39.84.69 1.45.84.39.1.94.12 1.65.04 1.1-.13 3.21-.57 6.52.87 2.89 1.26 5.37 2.97 7.76 4.52.69.45 1.37.88 2.06 1.29-5.71 2.31-11.37 4.61-16.13 6.54-2.35-1.39-3.91-3.1-4.93-5.06-.49-.93-.87-1.91-1.15-2.94-.42-1.54-.64-3.17-.74-4.89-.23-4.08.18-8.56.51-13.03.04-.35-.2-.66-.55-.71-.35-.04-.66.2-.71.55-.8 4.53-1.78 9.05-1.87 13.24v.15c-.4-.1-.79-.21-1.19-.32-.19-.11-1.38-.49-1.76-.59 0 .03-.01.06-.01.1-11.15-3.31-21.22-8.75-30.69-18.2 10.71-17.93 21.2-30.9 31.04-40.18 1.66.8 3.33 1.33 4.96 1.58 5.09.79 9.77-.96 12.43-5.39.69-1.15.35-2.65-.78-3.38-1.17-.76-2.2-2.02-3.11-3.65 4.24-2.81 8.29-4.95 12.1-6.55.01.04.02.08.03.12 5.04 12.73 9.82 20.84 14.11 25.15 3.48 3.49 6.83 4.69 9.79 4.29 2.08-.28 4.07-1.35 5.88-3.24 1.36-1.43 2.64-3.37 3.81-5.79 1.18 2.12 2.32 3.84 3.45 5.11 1.66 1.88 3.36 2.89 5.04 3.18 2.5.42 5.29-.68 8.15-4.32 3.16-4.04 6.81-11.67 11.28-23.65 29.08 12.69 45.07 34.46 54 56.63-2.98 5.79-14.88 13.76-23.57 19.04z" fill="#010101"/><path d="m127.41 231.01c.84-1.06 1.74-1.89 2.62-2.57.68-.53 1.37-.96 2.02-1.32.29-.16.57-.31.85-.45.46-.23.9-.42 1.33-.58 2.03-.78 3.54-.8 3.54-.8.12.01.22-.08.22-.2.01-.12-.08-.22-.2-.22 0 0-1.62-.23-3.84.4-.47.13-.96.3-1.46.53-.31.13-.62.29-.93.47-.69.4-1.4.91-2.08 1.54-.85.79-1.67 1.78-2.41 2.98-.07.1-.04.23.05.29.09.04.23.02.29-.07z" fill="#010101"/></g></svg>