<?xml version="1.0" encoding="utf-8"?>
<!-- Generator: Adobe Illustrator 22.1.0, SVG Export Plug-In . SVG Version: 6.00 Build 0)  -->
<svg version="1.1" id="Слой_1" xmlns="http://www.w3.org/2000/svg" xmlns:xlink="http://www.w3.org/1999/xlink" x="0px" y="0px"
	 viewBox="0 0 283.5 283.5" style="enable-background:new 0 0 283.5 283.5;" xml:space="preserve">
<style type="text/css">
	.st0{clip-path:url(#SVGID_2_);fill-rule:evenodd;clip-rule:evenodd;fill:#FFFFFF;}
	.st1{clip-path:url(#SVGID_2_);fill:none;stroke:#12100B;stroke-linecap:round;stroke-linejoin:round;stroke-miterlimit:10;}
	.st2{clip-path:url(#SVGID_2_);fill-rule:evenodd;clip-rule:evenodd;fill:#BD1823;}
	
		.st3{clip-path:url(#SVGID_2_);fill:none;stroke:#12100B;stroke-width:2;stroke-linecap:round;stroke-linejoin:round;stroke-miterlimit:10;}
	.st4{clip-path:url(#SVGID_2_);fill-rule:evenodd;clip-rule:evenodd;fill:#12100B;}
</style>
<g>
	<defs>
		<rect id="SVGID_1_" width="283.5" height="283.5"/>
	</defs>
	<clipPath id="SVGID_2_">
		<use xlink:href="#SVGID_1_"  style="overflow:visible;"/>
	</clipPath>
	<path class="st0" d="M76.2,237.2c0,0-1.6-9,1.6-17.1c3.3-8,7.6-15.2,6.9-23.3c-0.7-8.1-6-17.7-1.7-18.4c2.8-0.5,8.1,0.7,11.1,6.4
		c3.1,5.7,2.8,17.3,2.8,17.3c1.8,1.7,5.2,2.1,7.9,1.6c6.3-3,11.6-5.5,16.2-7.7c0,0,26-19,29.3-22.1c5-4.8,9.4-2.9,8.1,1.9
		c-1,3.8-16.1,16.8-21.3,20.7c-5.2,3.9-10,7.3-10,7.3l1.2,1.8c0,0,4.4-2.2,18.9-13c13.2-9.9,19.6-15,23.1-14.7
		c3.6,0.3,4,4.4-2.2,10.4c-6.2,6-34.1,24.7-34.1,24.7l0.8,2.8c0,0,12.1-7.6,23.4-15.2c4.7-3.2,9-7.6,12-8.8c3.3-1.3,4.8,0.9,4,3.7
		c-1.6,5.3-8.2,10.9-8.2,10.9s4,3.9-1.9,10.4c-3.4,3.7-21.2,19.9-41.9,29.3c-14.4,6.5-24.2,8.6-31.5,6.2
		C83.6,249.9,76.2,237.2,76.2,237.2"/>
	<path class="st1" d="M76.2,237.2c0,0-1.6-9,1.6-17.1c3.3-8,7.6-15.2,6.9-23.3c-0.7-8.1-6-17.7-1.7-18.4c2.8-0.5,8.1,0.7,11.1,6.4
		c3.1,5.7,2.8,17.3,2.8,17.3c1.8,1.7,5.2,2.1,7.9,1.6c6.3-3,11.6-5.5,16.2-7.7c0,0,26-19,29.3-22.1c5-4.8,9.4-2.9,8.1,1.9
		c-1,3.8-16.1,16.8-21.3,20.7c-5.2,3.9-10,7.3-10,7.3l1.2,1.8c0,0,4.4-2.2,18.9-13c13.2-9.9,19.6-15,23.1-14.7
		c3.6,0.3,4,4.4-2.2,10.4c-6.2,6-34.1,24.7-34.1,24.7l0.8,2.8c0,0,12.1-7.6,23.4-15.2c4.7-3.2,9-7.6,12-8.8c3.3-1.3,4.8,0.9,4,3.7
		c-1.6,5.3-8.2,10.9-8.2,10.9s4,3.9-1.9,10.4c-3.4,3.7-21.2,19.9-41.9,29.3c-14.4,6.5-24.2,8.6-31.5,6.2
		C83.6,249.9,76.2,237.2,76.2,237.2z"/>
	<rect x="122.4" y="90.3" class="st2" width="46.9" height="40.1"/>
	<rect x="122.4" y="90.3" class="st3" width="46.9" height="40.1"/>
	<path class="st0" d="M103.4,87.9c-1.7-1.7-2.3-3.7-0.5-6.5l21.4-18.8l15-10.9c0,0,27.1-11.6,38.9-9.8C190,43.7,196.9,48,198.5,53
		c1.6,5,1.4,11.3-5,21.5c-6.4,10.2-9.4,12.4-11.5,22.5c-1.9,8.8,0.5,15.3,0.5,15.3s-11.1,4.3-12.4-9.6c-0.4-4.6,1.5-19.5,1.5-19.5
		c-4.5-6.1-8.8-10.2-20.1-9.4c-5.9,5.7-11.5,11-19.2,16.3c0,0-5.3,6.8-8.9,12.7c-3,5-5.4,9.2-8.2,9.7c-5.5,0.9-5.6-2.5-5.6-2.5
		l3.2-9c0,0-2.6,4.6-6.1,4.2c-3.6-0.5-3.4-4.3-3.4-4.3l2.8-4.6c-4.1,1.2-5.3-0.4-5.8-2.9L103.4,87.9z"/>
	<path class="st1" d="M103.4,87.9c-1.7-1.7-2.3-3.7-0.5-6.5l21.4-18.8l15-10.9c0,0,27.1-11.6,38.9-9.8C190,43.7,196.9,48,198.5,53
		c1.6,5,1.4,11.3-5,21.5c-6.4,10.2-9.4,12.4-11.5,22.5c-1.9,8.8,0.5,15.3,0.5,15.3s-11.1,4.3-12.4-9.6c-0.4-4.6,1.5-19.5,1.5-19.5
		c-4.5-6.1-8.8-10.2-20.1-9.4c-5.9,5.7-11.5,11-19.2,16.3c0,0-5.3,6.8-8.9,12.7c-3,5-5.4,9.2-8.2,9.7c-5.5,0.9-5.6-2.5-5.6-2.5
		l3.2-9c0,0-2.6,4.6-6.1,4.2c-3.6-0.5-3.4-4.3-3.4-4.3l2.8-4.6c-4.1,1.2-5.3-0.4-5.8-2.9L103.4,87.9z"/>
	<path class="st1" d="M137.2,226.3c9-5.3,18.6-11.3,28.9-19.7"/>
	<path class="st1" d="M94.4,199.1c1.3,3.9,6.3,5.5,13.5,5.6"/>
	<path class="st1" d="M119.7,239.7c-3.4-2.8-15.9-7.2-23.4-6.7"/>
	<path class="st1" d="M137.2,233c0.9-18.8-9.6-29.4-15.2-33.9"/>
	<path class="st1" d="M106,210.8c-1.1,3.5-2.7,6.4-4.8,8.6"/>
	<polyline class="st1" points="103.4,87.9 111,77.3 129.4,58.7 	"/>
	<path class="st1" d="M105.9,96.5c0,0,8.5-14.4,10-16.4c3.9-5.1,21.1-19.7,21.1-19.7"/>
	<path class="st1" d="M112.8,101c0,0,8.5-14.4,10-16.4C126.8,79.6,144,65,144,65"/>
	<path class="st1" d="M181,104.3c-2.6-1.4-5.8,0.5-3.4,6.5"/>
	<path class="st1" d="M112.9,103.9c3.1-0.7,4,2.8,2,6.4"/>
	<path class="st1" d="M107.8,96.7c2.9-0.2,3.2,3,1,6"/>
	<path class="st1" d="M104.4,88.9c2.3-0.2,2.6,2.4,0.8,4.8"/>
	<polygon class="st4" points="123.6,168.5 137,134.5 139.7,135.5 126.2,169.6 131.8,170.1 117.6,188.5 118.9,165.2 	"/>
	<path class="st1" d="M143.3,54.9c1.5-1.1,3.2-1.6,5.5-1"/>
	<path class="st1" d="M150.4,59.3c1.5-1.1,3.2-1.6,5.5-1"/>
	<path class="st1" d="M157.9,71.7c-2.3-0.1-4.3,0.8-6.2,2"/>
	<path class="st1" d="M169.3,77.8c1.7,1.2,3,2.9,2,6.6"/>
</g>
</svg>
