<?xml version="1.0" encoding="utf-8"?>
<!-- Generator: Adobe Illustrator 23.1.0, SVG Export Plug-In . SVG Version: 6.00 Build 0)  -->
<svg version="1.1" xmlns="http://www.w3.org/2000/svg" xmlns:xlink="http://www.w3.org/1999/xlink" x="0px" y="0px"
	 viewBox="0 0 283.5 283.5" style="enable-background:new 0 0 283.5 283.5;" xml:space="preserve">
<style type="text/css">
	.st0{clip-path:url(#SVGID_2_);fill-rule:evenodd;clip-rule:evenodd;fill:#FFFFFF;}
	.st1{clip-path:url(#SVGID_4_);fill:none;stroke:#12100B;stroke-linecap:round;stroke-linejoin:round;stroke-miterlimit:10;}
	.st2{clip-path:url(#SVGID_6_);fill:none;stroke:#12100B;stroke-linecap:round;stroke-linejoin:round;stroke-miterlimit:10;}
	.st3{clip-path:url(#SVGID_6_);fill-rule:evenodd;clip-rule:evenodd;fill:#009D41;}
	.st4{clip-path:url(#SVGID_6_);fill-rule:evenodd;clip-rule:evenodd;fill:#FFFFFF;}
	.st5{clip-path:url(#SVGID_6_);fill-rule:evenodd;clip-rule:evenodd;fill:#12100B;}
	
		.st6{clip-path:url(#SVGID_6_);fill:none;stroke:#12100B;stroke-width:0.85;stroke-linecap:round;stroke-linejoin:round;stroke-miterlimit:10;}
	
		.st7{clip-path:url(#SVGID_6_);fill:none;stroke:#12100B;stroke-width:0.65;stroke-linecap:round;stroke-linejoin:round;stroke-miterlimit:10;}
	.st8{clip-path:url(#SVGID_8_);fill-rule:evenodd;clip-rule:evenodd;fill:#12100B;}
	.st9{clip-path:url(#SVGID_8_);fill-rule:evenodd;clip-rule:evenodd;fill:#FFFFFF;}
	.st10{clip-path:url(#SVGID_10_);fill:none;stroke:#12100B;stroke-linecap:round;stroke-linejoin:round;stroke-miterlimit:10;}
	.st11{clip-path:url(#SVGID_12_);fill-rule:evenodd;clip-rule:evenodd;fill:#12100B;}
	.st12{clip-path:url(#SVGID_12_);fill-rule:evenodd;clip-rule:evenodd;fill:#FFFFFF;}
	.st13{clip-path:url(#SVGID_14_);fill:none;stroke:#12100B;stroke-linecap:round;stroke-linejoin:round;stroke-miterlimit:10;}
	.st14{clip-path:url(#SVGID_14_);fill-rule:evenodd;clip-rule:evenodd;fill:#12100B;}
</style>
<g id="Слой_1">
</g>
<g id="Слой_3">
	<g>
		<g>
			<g>
				<defs>
					<rect id="SVGID_1_" x="22.5" y="22.4" width="242.3" height="242.3"/>
				</defs>
				<clipPath id="SVGID_2_">
					<use xlink:href="#SVGID_1_"  style="overflow:visible;"/>
				</clipPath>
				<path class="st0" d="M123.4,246.1c8.4-1,15.2-2.4,19.9-4.3l-1.1-24.6c5.8,5.9,18-27.8,22.5-42.1l-8.9-0.6l-5.4,11.3
					c0,0-6.8-41.3-11.8-47.6c-5.7-7.2-13.6-8.4-21.6-9.5l0.6-12.3c-4.6,6.4-10.3,7.9-16.9,5.6l0.8,7c0,0-24.5,2.8-32.3,13.9
					c-2.1,3-6.1,8.2-5,20.5c2.1,22.8,13.5,56.8,13.5,56.8l-1.5,25C91.2,247.5,106.9,247.8,123.4,246.1"/>
			</g>
			<g>
				<defs>
					<path id="SVGID_3_" d="M100.8,122l0.8,7c0,0-24.5,2.8-32.3,13.9c-2.1,3-6.1,8.2-5,20.5c2.1,22.8,13.5,56.8,13.5,56.8l-1.5,25
						c15,2.3,30.7,2.7,47.2,1c8.4-1,15.2-2.4,19.9-4.3l-1.1-24.6c5.8,5.9,18-27.8,22.5-42.1l-8.9-0.6l-5.4,11.3
						c0,0-6.8-41.3-11.8-47.6c-5.7-7.2-13.6-8.4-21.6-9.5l0.6-12.3C113,122.7,107.4,124.3,100.8,122"/>
				</defs>
				<clipPath id="SVGID_4_">
					<use xlink:href="#SVGID_3_"  style="overflow:visible;"/>
				</clipPath>
				<path class="st1" d="M109.5,111.4c8.5,0.3,15.5,6.8,15.5,14.5c0,7.7-6.9,13.8-15.5,13.5c-8.5-0.3-15.5-6.8-15.5-14.5
					S101,111.1,109.5,111.4z"/>
			</g>
			<g>
				<defs>
					<rect id="SVGID_5_" x="22.5" y="22.4" width="242.3" height="242.3"/>
				</defs>
				<clipPath id="SVGID_6_">
					<use xlink:href="#SVGID_5_"  style="overflow:visible;"/>
				</clipPath>
				<path class="st2" d="M123.4,246.1c8.4-1,15.2-2.4,19.9-4.3l-1.1-24.6c5.8,5.9,18-27.8,22.5-42.1l-8.9-0.6l-5.4,11.3
					c0,0-6.8-41.3-11.8-47.6c-5.7-7.2-13.6-8.4-21.6-9.5l0.6-12.3c-4.6,6.4-10.3,7.9-16.9,5.6l0.8,7c0,0-24.5,2.8-32.3,13.9
					c-2.1,3-6.1,8.2-5,20.5c2.1,22.8,13.5,56.8,13.5,56.8l-1.5,25C91.2,247.5,106.9,247.8,123.4,246.1z"/>
				<line class="st2" x1="151.1" y1="184.4" x2="143.2" y2="199.7"/>
				<path class="st2" d="M134.4,151.7c2.7,12.2,5.6,36.6,7.9,65.3"/>
				<path class="st2" d="M86.2,213.4c1.6-2.2,3.5-4.2,6.9-4.9"/>
				<path class="st2" d="M86.2,221c1.8-4,4.3-8.5,7.7-12.6"/>
				<path class="st2" d="M84.1,157.9c-0.2,3.1-1.3,5.5-2.8,6.6"/>
				<path class="st2" d="M80,157c1.9,16.5,7.9,36.9,13.2,52.2l14.9-18.2c2.7,1.7,6.3,2.3,10.4,2.5c0,0-18.8,38-28.4,39.1
					c-8.3,1-12.4-12.5-12.4-12.5"/>
				<rect x="181.4" y="53.1" class="st3" width="41.5" height="41.7"/>
				<rect x="181.4" y="53.1" class="st2" width="41.5" height="41.7"/>
				<rect x="155.1" y="94.8" class="st4" width="92" height="2.7"/>
				<rect x="155.1" y="94.8" class="st2" width="92" height="2.7"/>
				<path class="st2" d="M127,44.5c9.6,9.3,15.1,21.4,15,47.1"/>
				<path class="st2" d="M52.9,82.7C52.5,91,55.1,98.8,66,110.5"/>
				<path class="st4" d="M143.2,193.2c1.6-2.2,3.7-6.1,6.9-7.5"/>
				<path class="st2" d="M143.2,193.2c1.6-2.2,3.7-6.1,6.9-7.5"/>
				<path class="st4" d="M138,150.9c-0.6,1.7-1.6,2.9-2.7,3.3"/>
				<path class="st2" d="M138,150.9c-0.6,1.7-1.6,2.9-2.7,3.3"/>
				<path class="st4" d="M132.5,184c-2.9,0-5.8,0.1-7.2,2c-2.9,3.9-3.5,5.2-6.7,7.4c-2.6,1.7-9,2.2-11.8-1.9
					c-4-5.8-4-11.8-10.4-21.1c-3.3-4.4,0.7-5.2,2.3-3.2c2.6,3.3,5.3,8.5,6.9,11.4l0.4-0.8c-2.6-6.4-6.2-12.2-8.3-16.4
					c-1.4-2.8,0.9-4.2,2.6-2.5c1.5,1.5,3,4,4,5.8c2.2,3.9,3.4,7.5,4.7,11.1l0.4-0.3c-2-7.3-3.5-12.9-6.1-18.6
					c-2.1-4.6,1.6-5.4,3.3-2.9c3.1,6.4,5.2,11.5,8,19.7l-0.1,0.1c-0.8-6.1-2.8-12.1-3.2-16.7c-0.2-2.6,2.1-1.9,3.3,0.3
					c3,6,4.2,13.9,6.2,23.8C128.8,177.6,133.5,180.5,132.5,184"/>
				<path class="st2" d="M132.5,184c-2.9,0-5.8,0.1-7.2,2c-2.9,3.9-3.5,5.2-6.7,7.4c-2.6,1.7-9,2.2-11.8-1.9
					c-4-5.8-4-11.8-10.4-21.1c-3.3-4.4,0.7-5.2,2.3-3.2c2.6,3.3,5.3,8.5,6.9,11.4l0.4-0.8c-2.6-6.4-6.2-12.2-8.3-16.4
					c-1.4-2.8,0.9-4.2,2.6-2.5c1.5,1.5,3,4,4,5.8c2.2,3.9,3.4,7.5,4.7,11.1l0.4-0.3c-2-7.3-3.5-12.9-6.1-18.6
					c-2.1-4.6,1.6-5.4,3.3-2.9c3.1,6.4,5.2,11.5,8,19.7l-0.1,0.1c-0.8-6.1-2.8-12.1-3.2-16.7c-0.2-2.6,2.1-1.9,3.3,0.3
					c3,6,4.2,13.9,6.2,23.8C128.8,177.6,133.5,180.5,132.5,184z"/>
				<path class="st4" d="M145.4,175.4c0.8-1.3,4.2-1.9,6.2-1.1c3.8,1.5,5.5,3.2,8.7,3.3c4.2,0.1,8.6-2.5,8.4-6.7
					c-0.2-5.2-3.6-14.3-5.1-23.3c-0.6-3.3-2.2-1.1-2.3-0.3c-0.4,3.4,0.3,7.5,0.3,10.2l0.1,0c-1-4.7-1.8-7.1-2.6-10.3
					c-1.6-6.1-4.1-7.1-4.6-5.2c-0.4,1.7,2.6,10.7,3.3,15.4l-0.6,0.4c-1.3-4.3-2.7-10.1-6.5-16.6c-1.3-2.3-4.6-1.5-2.2,3.4
					c1.7,3.4,4.7,11.1,5.4,14.2l-0.6,0.3c-2.2-4.7-3.2-8.2-5.9-12c-2.1-3-3.5-0.9-2.8,1.1c2.3,5.9,4.9,12.7,7.8,20.5
					C145.7,167.6,143.2,173.3,145.4,175.4"/>
				<path class="st2" d="M145.4,175.4c0.8-1.3,4.2-1.9,6.2-1.1c3.8,1.5,5.5,3.2,8.7,3.3c4.2,0.1,8.6-2.5,8.4-6.7
					c-0.2-5.2-3.6-14.3-5.1-23.3c-0.6-3.3-2.2-1.1-2.3-0.3c-0.4,3.4,0.3,7.5,0.3,10.2l0.1,0c-1-4.7-1.8-7.1-2.6-10.3
					c-1.6-6.1-4.1-7.1-4.6-5.2c-0.4,1.7,2.6,10.7,3.3,15.4l-0.6,0.4c-1.3-4.3-2.7-10.1-6.5-16.6c-1.3-2.3-4.6-1.5-2.2,3.4
					c1.7,3.4,4.7,11.1,5.4,14.2l-0.6,0.3c-2.2-4.7-3.2-8.2-5.9-12c-2.1-3-3.5-0.9-2.8,1.1c2.3,5.9,4.9,12.7,7.8,20.5
					C145.7,167.6,143.2,173.3,145.4,175.4z"/>
				<path class="st4" d="M117.4,174.5c-5.5-0.4-9.8,2.3-13.9,5.5"/>
				<path class="st2" d="M117.4,174.5c-5.5-0.4-9.8,2.3-13.9,5.5"/>
				<path class="st4" d="M151.6,160.4c4.7-2.5,7.8-3.1,12.2-2.9"/>
				<path class="st2" d="M151.6,160.4c4.7-2.5,7.8-3.1,12.2-2.9"/>
				<path class="st4" d="M119.1,182.9c-2.5,1.5-3.3,4.8-3.3,8.1"/>
				<path class="st2" d="M119.1,182.9c-2.5,1.5-3.3,4.8-3.3,8.1"/>
				<path class="st4" d="M155.1,167.9c2.4,0,5.1,2.3,6.6,4.7"/>
				<path class="st2" d="M155.1,167.9c2.4,0,5.1,2.3,6.6,4.7"/>
				<path class="st4" d="M109,183.4c2.3,0.7,3.1,2.5,4,5.2"/>
				<path class="st2" d="M109,183.4c2.3,0.7,3.1,2.5,4,5.2"/>
				<path class="st4" d="M163.3,162.7c-1.3,1.5-1.1,5.8-0.5,8.1"/>
				<path class="st2" d="M163.3,162.7c-1.3,1.5-1.1,5.8-0.5,8.1"/>
				<path class="st4" d="M77.9,98.7C71.7,83,82,69.3,93,66.6c4.5-1.1,11.4-1.7,16.3,0.6c7.5,3.4,12.9,9.2,13.7,19.4
					c2.3-7.1,6-0.4,6.2,2.5c0.4,4-3.9,7.5-4.8,8.2c1.4,13.4-3.8,26.3-13.9,28.5c-8.9,1.9-18.2-2-26.3-17.5c-0.5,0.9-5,2.4-7.5-4
					C75.7,101.9,77.2,98.8,77.9,98.7"/>
				<path class="st2" d="M77.9,98.7C71.7,83,82,69.3,93,66.6c4.5-1.1,11.4-1.7,16.3,0.6c7.5,3.4,12.9,9.2,13.7,19.4
					c2.3-7.1,6-0.4,6.2,2.5c0.4,4-3.9,7.5-4.8,8.2c1.4,13.4-3.8,26.3-13.9,28.5c-8.9,1.9-18.2-2-26.3-17.5c-0.5,0.9-5,2.4-7.5-4
					C75.7,101.9,77.2,98.8,77.9,98.7z"/>
				<path class="st2" d="M92.4,81.4c0.9,1.9,2,3.5,3.4,4.9"/>
				<path class="st2" d="M93.7,76.9c0.9,4.1,2,7,3.3,9"/>
				<path class="st4" d="M89.3,69.7c0,0-1.1,2.5-0.4,3.8c0.6,1.3-0.1,9.6-3.4,11.6c-3.3,2-3.5,0.3-4.4,2.7c-0.9,2.3-3.7,0.6-2.9,3.5
					c0.8,3-0.8,2.9,1,5.7c1.8,2.8,3.1,5.4,3.1,5.4s-2.8-1.2-2.4,1c0.9,4.5,4.7,4.9,4.7,4.9c1.8,4.5,4.5,8.4,7.7,11.6
					c0,0-2.4,1.8-5.2,0c-0.9-0.6-1.6-1.3-2.1-2.1c-1.1-1.6-1.3-3.2-1.3-3.2s-2.9,1.8-4.7-1.5c-1.8-3.3-2.4-3.4-4-6
					c-1.6-2.7-0.9-2.8-2.5-6c-1.6-3.3-0.4-3.5-0.9-7.2c-0.5-3.7-3.4-7.9-0.8-11.9c2.5-4,2.9-4.3,3.8-7.9c0.4-1.7,1.7-6.1,7.1-8.8
					c3.8-1.9,6.8-1.5,6.8-1.5L89.3,69.7z"/>
				<path class="st2" d="M89.3,69.7c0,0-1.1,2.5-0.4,3.8c0.6,1.3-0.1,9.6-3.4,11.6c-3.3,2-3.5,0.3-4.4,2.7c-0.9,2.3-3.7,0.6-2.9,3.5
					c0.8,3-0.8,2.9,1,5.7c1.8,2.8,3.1,5.4,3.1,5.4s-2.8-1.2-2.4,1c0.9,4.5,4.7,4.9,4.7,4.9c1.8,4.5,4.5,8.4,7.7,11.6
					c0,0-2.4,1.8-5.2,0c-0.9-0.6-1.6-1.3-2.1-2.1c-1.1-1.6-1.3-3.2-1.3-3.2s-2.9,1.8-4.7-1.5c-1.8-3.3-2.4-3.4-4-6
					c-1.6-2.7-0.9-2.8-2.5-6c-1.6-3.3-0.4-3.5-0.9-7.2c-0.5-3.7-3.4-7.9-0.8-11.9c2.5-4,2.9-4.3,3.8-7.9c0.4-1.7,1.7-6.1,7.1-8.8
					c3.8-1.9,6.8-1.5,6.8-1.5L89.3,69.7z"/>
				<path class="st2" d="M116.5,71.2c0.1,2-0.5,3.6-1.9,4.6"/>
				<path class="st4" d="M88.5,63.7c0,0,0.3,9.1,5.8,10.1c5.6,0.9,8.3-0.1,8.3-0.1s1.5,3.3,6.4,3.2c4.8-0.2,5.9-1.1,5.9-1.1
					s0,3.7,4.2,6.2c2.4,1.4,2,8.7,2,8.7s3-4.6,4.9-2.7c2.4,2.4-1.6,8-1.6,8c0.6,6.6,0.2,12.6-1.8,17.8c0,0,3.5-0.7,4.7-5.6
					c1.2-4.9,0.3-5.3,2-8.5c1.7-3.2,2.8-11.1,0.8-15c-2.1-4.1,0-8-3-11.5c-2.3-2.6-3.8-6.9-7.8-8.1c-4-1.2-7.2-2.4-11.5-3.5
					c-4.3-1.1-9.5-1.8-13.2-0.7C90.1,62,88.5,63.7,88.5,63.7"/>
				<path class="st2" d="M88.5,63.7c0,0,0.3,9.1,5.8,10.1c5.6,0.9,8.3-0.1,8.3-0.1s1.5,3.3,6.4,3.2c4.8-0.2,5.9-1.1,5.9-1.1
					s0,3.7,4.2,6.2c2.4,1.4,2,8.7,2,8.7s3-4.6,4.9-2.7c2.4,2.4-1.6,8-1.6,8c0.6,6.6,0.2,12.6-1.8,17.8c0,0,3.5-0.7,4.7-5.6
					c1.2-4.9,0.3-5.3,2-8.5c1.7-3.2,2.8-11.1,0.8-15c-2.1-4.1,0-8-3-11.5c-2.3-2.6-3.8-6.9-7.8-8.1c-4-1.2-7.2-2.4-11.5-3.5
					c-4.3-1.1-9.5-1.8-13.2-0.7C90.1,62,88.5,63.7,88.5,63.7z"/>
				<polygon class="st5" points="93.9,87.1 93.9,87.2 94,87.8 93.7,88.3 93.7,88.3 93.6,88.3 93.4,88.4 93.3,88.5 93.2,88.5 
					93.1,88.6 93,88.6 92.9,88.7 92.9,88.7 92.8,88.8 92.8,88.8 92.7,88.8 92.6,88.9 92.6,88.9 92.5,89 92.4,89 92.3,89 92.3,89.1 
					92.2,89.1 92.1,89.2 92.1,89.2 92,89.3 91.9,89.3 91.9,89.3 91.8,89.4 91.7,89.4 91.7,89.5 91.6,89.5 91.5,89.6 91.4,89.6 
					91.4,89.7 91.3,89.7 91.2,89.8 91.1,89.8 91.1,89.9 91,89.9 90.9,90 90.9,90 90.8,90.1 90.7,90.1 90.6,90.2 90.6,90.2 
					90.5,90.3 90.4,90.3 90.3,90.4 90.3,90.4 90.2,90.5 90.1,90.6 90,90.6 90,90.7 89.9,90.7 89.8,90.8 89.7,90.8 89.7,90.9 
					89.6,91 89.5,91 89.4,91.1 89.4,91.1 89.3,91.2 89.2,91.2 89.1,91.3 89.1,91.4 89,91.4 88.9,91.5 88.8,91.6 88.8,91.6 
					88.7,91.7 88.6,91.7 88.5,91.8 88.5,91.9 88.4,91.9 88.3,92 88.3,92.1 88.2,92.1 88.1,92.2 88,92.3 88,92.3 87.9,92.4 
					87.8,92.5 87.8,92.5 87.7,92.6 87.6,92.7 87.5,92.7 87.5,92.8 87.4,92.9 87.3,92.9 87.3,93 87.2,93.1 87.1,93.2 87.1,93.2 
					87,93.3 87,93.3 86.9,93.4 86.9,93.4 86.9,93.4 86.8,93.5 86.8,93.5 86.8,93.5 86.7,93.6 86.7,93.6 86.7,93.7 86.7,93.7 
					86.6,93.7 86.6,93.8 86.6,93.8 86.5,93.8 86.5,93.9 86.5,93.9 86.4,94 86.4,94 86.4,94 86.3,94.1 86.3,94.1 86.3,94.1 
					86.3,94.2 86.2,94.2 86.2,94.3 86.2,94.3 86.1,94.3 86.1,94.4 86.1,94.4 86,94.4 86,94.5 86,94.5 86,94.6 85.9,94.6 85.9,94.6 
					85.9,94.7 85.9,94.7 85.8,94.8 85.8,94.8 85.8,94.8 85.7,94.9 85.7,94.9 85.7,95 85.7,95 85.6,95 85.6,95.1 85.6,95.1 
					85.6,95.2 85.5,95.2 85.5,95.2 85.5,95.3 85.5,95.3 85.4,95.4 85.4,95.4 85.4,95.4 85.4,95.5 85.3,95.5 85.3,95.6 85.3,95.6 
					85.3,95.6 85.2,95.7 85.2,95.7 85.2,95.8 85.2,95.8 85.1,95.8 85.1,95.8 84.9,96 84.6,96 84.6,96 84.4,95.8 84.4,95.5 
					84.4,95.4 84.5,95.4 84.5,95.3 84.5,95.3 84.5,95.2 84.5,95.2 84.6,95.2 84.6,95.1 84.6,95.1 84.6,95 84.7,95 84.7,94.9 
					84.7,94.9 84.7,94.8 84.8,94.8 84.8,94.8 84.8,94.7 84.8,94.7 84.9,94.6 84.9,94.6 84.9,94.5 84.9,94.5 85,94.4 85,94.4 
					85,94.4 85,94.3 85.1,94.3 85.1,94.2 85.1,94.2 85.1,94.1 85.2,94.1 85.2,94 85.2,94 85.3,94 85.3,93.9 85.3,93.9 85.3,93.8 
					85.4,93.8 85.4,93.7 85.4,93.7 85.5,93.7 85.5,93.6 85.5,93.6 85.5,93.5 85.6,93.5 85.6,93.4 85.6,93.4 85.7,93.4 85.7,93.3 
					85.7,93.3 85.8,93.2 85.8,93.2 85.8,93.2 85.8,93.1 85.9,93.1 85.9,93 85.9,93 86,92.9 86,92.9 86,92.9 86.1,92.8 86.1,92.8 
					86.1,92.7 86.2,92.7 86.2,92.7 86.2,92.6 86.3,92.5 86.4,92.5 86.4,92.4 86.5,92.3 86.6,92.2 86.6,92.1 86.7,92.1 86.8,92 
					86.8,91.9 86.9,91.8 87,91.8 87,91.7 87.1,91.6 87.2,91.5 87.2,91.5 87.3,91.4 87.4,91.3 87.5,91.2 87.5,91.2 87.6,91.1 
					87.7,91 87.7,90.9 87.8,90.9 87.9,90.8 88,90.7 88,90.7 88.1,90.6 88.2,90.5 88.2,90.4 88.3,90.4 88.4,90.3 88.5,90.2 
					88.5,90.2 88.6,90.1 88.7,90 88.8,90 88.8,89.9 88.9,89.8 89,89.8 89.1,89.7 89.1,89.6 89.2,89.6 89.3,89.5 89.4,89.5 
					89.4,89.4 89.5,89.3 89.6,89.3 89.7,89.2 89.7,89.2 89.8,89.1 89.9,89 89.9,89 90,88.9 90.1,88.9 90.2,88.8 90.2,88.7 
					90.3,88.7 90.4,88.6 90.5,88.6 90.5,88.5 90.6,88.5 90.7,88.4 90.7,88.3 90.8,88.3 90.9,88.2 91,88.2 91,88.1 91.1,88.1 
					91.2,88 91.2,88 91.3,87.9 91.4,87.9 91.4,87.8 91.5,87.8 91.6,87.7 91.6,87.7 91.7,87.6 91.8,87.6 91.8,87.5 91.9,87.5 
					92,87.5 92,87.4 92.1,87.4 92.2,87.3 92.2,87.3 92.4,87.2 92.5,87.1 92.6,87 92.7,87 92.8,86.9 92.8,86.9 93.4,86.8 				"/>
				<polygon class="st5" points="105.9,83.5 106,83.5 106.1,83.5 106.2,83.5 106.3,83.5 106.4,83.5 106.5,83.5 106.6,83.5 
					106.7,83.5 106.8,83.5 106.9,83.5 107,83.5 107.1,83.5 107.2,83.5 107.3,83.5 107.3,83.5 107.4,83.5 107.4,83.5 107.5,83.5 
					107.5,83.5 107.6,83.5 107.6,83.5 107.7,83.5 107.7,83.6 107.8,83.6 107.8,83.6 107.9,83.6 107.9,83.6 108,83.6 108,83.6 
					108.1,83.6 108.1,83.6 108.2,83.6 108.2,83.6 108.3,83.6 108.3,83.6 108.4,83.6 108.4,83.6 108.5,83.7 108.5,83.7 108.6,83.7 
					108.6,83.7 108.7,83.7 108.8,83.7 108.8,83.7 108.9,83.7 108.9,83.7 109,83.7 109,83.7 109.1,83.7 109.1,83.8 109.2,83.8 
					109.2,83.8 109.3,83.8 109.3,83.8 109.4,83.8 109.4,83.8 109.5,83.8 109.5,83.8 109.6,83.9 109.6,83.9 109.7,83.9 109.7,83.9 
					109.8,83.9 109.8,83.9 109.8,83.9 109.9,83.9 109.9,84 110,84 110,84 110.1,84 110.1,84 110.2,84 110.2,84 110.3,84.1 
					110.3,84.1 110.4,84.1 110.4,84.1 110.5,84.1 110.5,84.1 110.5,84.1 110.8,84.3 110.8,84.6 110.8,84.6 110.6,84.9 110.3,84.9 
					110.3,84.9 110.3,84.9 110.2,84.9 110.2,84.9 110.1,84.9 110.1,84.9 110,84.8 110,84.8 109.9,84.8 109.9,84.8 109.8,84.8 
					109.8,84.8 109.8,84.8 109.7,84.8 109.7,84.8 109.6,84.8 109.6,84.8 109.5,84.7 109.5,84.7 109.4,84.7 109.4,84.7 109.3,84.7 
					109.3,84.7 109.2,84.7 109.2,84.7 109.1,84.7 109.1,84.7 109.1,84.7 109,84.7 109,84.7 108.9,84.6 108.9,84.6 108.8,84.6 
					108.8,84.6 108.7,84.6 108.7,84.6 108.6,84.6 108.6,84.6 108.5,84.6 108.5,84.6 108.4,84.6 108.4,84.6 108.3,84.6 108.3,84.6 
					108.2,84.6 108.2,84.6 108.1,84.6 108.1,84.6 108,84.6 108,84.6 107.9,84.6 107.9,84.6 107.9,84.6 107.8,84.6 107.8,84.6 
					107.7,84.6 107.7,84.6 107.6,84.5 107.6,84.5 107.5,84.5 107.5,84.5 107.4,84.5 107.4,84.5 107.3,84.5 107.3,84.5 107.2,84.5 
					107.2,84.5 107.1,84.5 107,84.5 106.9,84.5 106.8,84.5 106.7,84.5 106.6,84.5 106.5,84.5 106.4,84.6 106.3,84.6 106.2,84.6 
					106.1,84.6 106,84.6 105.9,84.6 105.8,84.6 105.7,84.6 105.6,84.6 105.5,84.6 105.4,84.6 105.3,84.6 105.2,84.6 105.1,84.6 
					105,84.7 104.9,84.7 104.8,84.7 104.7,84.7 104.7,84.7 104.6,84.7 104.5,84.7 104.4,84.7 104.3,84.7 104.2,84.8 104.1,84.8 
					104,84.8 103.9,84.8 103.8,84.8 103.7,84.8 103.6,84.8 103.5,84.9 103.4,84.9 103.3,84.9 103.2,84.9 103.1,84.9 103.1,84.9 
					103,85 102.9,85 102.8,85 102.7,85 102.6,85 102.5,85 102.4,85.1 102.3,85.1 102.2,85.1 102.2,85.1 102.1,85.1 102,85.2 
					101.9,85.2 101.8,85.2 101.7,85.2 101.6,85.2 101.6,85.3 101.5,85.3 101.4,85.3 101.3,85.3 101.2,85.3 101.1,85.4 101.1,85.4 
					101,85.4 100.9,85.4 100.8,85.4 100.7,85.5 100.7,85.5 100.6,85.5 100.5,85.5 100.4,85.6 100.3,85.6 100.3,85.6 100.2,85.6 
					100.1,85.6 100,85.7 100,85.7 99.9,85.7 99.8,85.7 99.7,85.7 99.7,85.8 99.6,85.8 99.5,85.8 99.3,85.9 99.2,85.9 99.1,86 
					98.9,86 98.9,86 98.3,85.9 98,85.4 97.9,85.4 98,84.8 98.5,84.4 98.5,84.4 98.6,84.4 98.8,84.4 98.9,84.3 99.1,84.3 99.2,84.3 
					99.3,84.3 99.4,84.2 99.4,84.2 99.5,84.2 99.6,84.2 99.7,84.2 99.7,84.2 99.8,84.1 99.9,84.1 100,84.1 100.1,84.1 100.2,84.1 
					100.2,84.1 100.3,84 100.4,84 100.5,84 100.6,84 100.7,84 100.7,84 100.8,83.9 100.9,83.9 101,83.9 101.1,83.9 101.2,83.9 
					101.3,83.9 101.4,83.8 101.5,83.8 101.5,83.8 101.6,83.8 101.7,83.8 101.8,83.8 101.9,83.8 102,83.7 102.1,83.7 102.2,83.7 
					102.3,83.7 102.4,83.7 102.5,83.7 102.6,83.7 102.7,83.7 102.8,83.6 102.9,83.6 103,83.6 103.1,83.6 103.2,83.6 103.2,83.6 
					103.3,83.6 103.4,83.6 103.5,83.6 103.6,83.6 103.7,83.5 103.8,83.5 103.9,83.5 104,83.5 104.1,83.5 104.2,83.5 104.3,83.5 
					104.4,83.5 104.5,83.5 104.6,83.5 104.7,83.5 104.9,83.5 105,83.5 105.1,83.5 105.2,83.5 105.3,83.5 105.4,83.5 105.5,83.5 
					105.6,83.5 105.7,83.5 105.8,83.5 				"/>
				<path class="st2" d="M88.1,65.9c0,0-8.8,9.9-6.1,9.4C84.6,74.8,88.1,65.9,88.1,65.9z"/>
				<path class="st2" d="M87.9,65.2c-2.1-0.3-10.5,5.9-9,6.6C80.4,72.6,87.4,65.6,87.9,65.2z"/>
				<path class="st2" d="M87.8,65.2c0-0.3,11.7-0.4,10.8-1.3c-0.8-0.9-3.6-1.6-6.2-0.8C90,63.9,87.8,65.2,87.8,65.2z"/>
				<path class="st2" d="M88.1,65.9c0,0,9.3,4.6,8.1,2.1C95.1,65.5,88.1,65.9,88.1,65.9z"/>
				<path class="st6" d="M106,104.7c2.8-1.3,3.1-3.1,1.4-3.6"/>
				<polygon class="st5" points="98.6,103.8 98.6,103.8 98.6,103.9 98.6,103.9 98.6,103.9 98.6,103.9 98.7,104 98.7,104 98.7,104 
					98.7,104.1 98.7,104.1 98.7,104.1 98.7,104.1 98.7,104.1 98.7,104.2 98.8,104.2 98.8,104.2 98.8,104.2 98.8,104.3 98.8,104.3 
					98.8,104.3 98.8,104.3 98.8,104.4 98.8,104.4 98.9,104.4 98.9,104.4 98.9,104.5 98.9,104.5 98.9,104.5 98.9,104.5 98.9,104.6 
					98.9,104.6 98.9,104.6 98.9,104.6 98.9,104.6 98.9,104.7 98.9,104.7 98.9,104.7 98.9,104.7 98.9,104.8 98.9,104.8 98.9,104.8 
					98.9,104.8 98.9,104.9 98.9,104.9 98.9,104.9 98.9,104.9 98.9,104.9 98.9,105 98.9,105 98.9,105 98.9,105 98.9,105.1 
					98.9,105.1 98.9,105.1 98.9,105.1 98.9,105.2 98.9,105.2 98.9,105.2 98.9,105.2 98.9,105.2 98.9,105.3 98.9,105.3 98.9,105.3 
					98.9,105.3 98.9,105.3 98.9,105.4 98.9,105.4 98.9,105.4 98.9,105.4 98.9,105.4 98.9,105.4 98.8,105.5 98.8,105.5 98.8,105.5 
					98.8,105.5 98.8,105.5 98.8,105.5 98.8,105.6 98.8,105.6 98.8,105.6 98.8,105.6 98.8,105.6 98.8,105.7 98.7,105.7 98.7,105.7 
					98.7,105.7 98.7,105.7 98.7,105.7 98.7,105.8 98.7,105.8 98.6,105.8 98.6,105.9 98.6,105.9 98.6,105.9 98.6,105.9 98.5,106 
					98.5,106 98.5,106 98.5,106.1 98.4,106.1 98.4,106.1 98.4,106.1 98.4,106.1 98.3,106.2 98.3,106.2 98.3,106.2 98.3,106.2 
					98.2,106.3 98.2,106.3 98.2,106.3 98.2,106.3 98.2,106.3 98.1,106.3 98.1,106.4 98.1,106.4 98,106.4 97.8,106.4 97.8,106.2 
					97.8,106.2 97.8,106.2 97.8,106.1 97.9,106.1 97.9,106.1 97.9,106.1 97.9,106 97.9,106 97.9,106 97.9,106 97.9,105.9 
					97.9,105.9 97.9,105.9 98,105.8 98,105.8 98,105.8 98,105.8 98,105.7 98,105.7 98,105.7 98,105.6 98,105.6 98,105.6 98,105.6 
					98,105.5 98,105.5 98.1,105.5 98.1,105.5 98.1,105.4 98.1,105.4 98.1,105.4 98.1,105.4 98.1,105.4 98.1,105.3 98.1,105.3 
					98.1,105.3 98.1,105.3 98.1,105.3 98.1,105.3 98.1,105.2 98.1,105.2 98.1,105.2 98.1,105.2 98.1,105.2 98.1,105.2 98.1,105.1 
					98.1,105.1 98.1,105.1 98.1,105.1 98.1,105.1 98.1,105.1 98.1,105 98.1,105 98.1,105 98.1,105 98.2,105 98.2,105 98.2,104.9 
					98.2,104.9 98.2,104.9 98.2,104.9 98.2,104.9 98.2,104.9 98.2,104.8 98.2,104.8 98.2,104.8 98.2,104.8 98.2,104.8 98.2,104.8 
					98.2,104.7 98.2,104.7 98.2,104.7 98.2,104.7 98.2,104.7 98.2,104.7 98.2,104.6 98.2,104.6 98.2,104.6 98.2,104.6 98.2,104.6 
					98.2,104.5 98.2,104.5 98.2,104.5 98.3,104.5 98.3,104.4 98.3,104.4 98.3,104.4 98.3,104.4 98.3,104.4 98.3,104.3 98.3,104.3 
					98.3,104.3 98.3,104.3 98.3,104.2 98.3,104.2 98.3,104.2 98.3,104.2 98.3,104.2 98.3,104.1 98.3,104.1 98.3,104.1 98.3,104 
					98.3,104 98.3,104 98.3,104 98.3,103.9 98.3,103.9 98.4,103.7 				"/>
				<path class="st6" d="M97.9,92c2.6,5.6,3.4,10.9,2.2,12.9c0.6,1.2,2.4,1.3,3.5,0.9"/>
				<path class="st7" d="M107.8,117c1.1-1.1,2.2-1.3,3.3-0.9"/>
				<path class="st7" d="M104.4,111.5c0.8-0.8,2.4-1.4,3.2-1.1"/>
				<path class="st7" d="M99.5,116.6c0.5,1,0.7,2,0.2,2.7"/>
				<path class="st2" d="M112.7,43.8c7.5,3.6,13.2,9.5,18.3,24.7"/>
				<path class="st2" d="M63.4,73.8c-2.3,8-1.6,16.2,6.4,30.1"/>
				<path class="st7" d="M115.2,111.6c0.1,1.1,0.6,2,1.4,2.3"/>
				<path class="st2" d="M115.5,113.3c-3.2-1.8-12.2-2.4-15.2,4.5"/>
				<path class="st2" d="M86.2,100.8c2.5-4.6,7.6-5.6,7.3-7.4"/>
				<path class="st2" d="M113.8,88.6c-5.1-1.1-10.4,2-11.5,0.5"/>
			</g>
			<g>
				<defs>
					<path id="SVGID_7_" d="M92.7,95.2c-2.8,0.7-6.5,4.5-4.8,6.3c3.1-1.1,5.6-2.5,8-4.4c-0.6-0.9-1.4-2-2.6-2
						C93,95.1,92.9,95.2,92.7,95.2"/>
				</defs>
				<clipPath id="SVGID_8_">
					<use xlink:href="#SVGID_7_"  style="overflow:visible;"/>
				</clipPath>
				<path class="st8" d="M92.7,95.5c1.2-0.7,2.6-0.3,3.3,0.8c0.6,1.1,0.2,2.6-1,3.2c-1.2,0.7-2.6,0.3-3.3-0.8
					C91.1,97.6,91.5,96.1,92.7,95.5"/>
				<path class="st9" d="M94,95.2c0.2-0.1,0.5-0.1,0.6,0.2c0.1,0.2,0,0.5-0.2,0.6c-0.2,0.1-0.5,0.1-0.6-0.2
					C93.7,95.6,93.8,95.3,94,95.2"/>
			</g>
			<g>
				<defs>
					<rect id="SVGID_9_" x="22.5" y="22.4" width="242.3" height="242.3"/>
				</defs>
				<clipPath id="SVGID_10_">
					<use xlink:href="#SVGID_9_"  style="overflow:visible;"/>
				</clipPath>
				<path class="st10" d="M87.9,101.5c3.1-1.1,5.6-2.5,8-4.4c-0.6-1-1.6-2.3-3.1-2C89.9,95.9,86.2,99.7,87.9,101.5z"/>
			</g>
			<g>
				<defs>
					<path id="SVGID_11_" d="M105.1,89.8c-1.3,0.8-1,2.4-0.7,3.5c3-0.5,5.6-1.3,8.6-2.8c-0.1-1.2-1.6-1.8-3.4-1.8
						C108,88.6,106.2,89,105.1,89.8"/>
				</defs>
				<clipPath id="SVGID_12_">
					<use xlink:href="#SVGID_11_"  style="overflow:visible;"/>
				</clipPath>
				<path class="st11" d="M111.1,88.1c-1.3,0.4-2,1.7-1.6,2.8c0.4,1.1,1.7,1.8,3,1.3c1.3-0.4,2-1.7,1.6-2.8
					C113.7,88.3,112.4,87.7,111.1,88.1"/>
				<path class="st12" d="M111.7,88.8c-0.2,0.1-0.4,0.3-0.3,0.5c0.1,0.2,0.3,0.3,0.6,0.3c0.2-0.1,0.4-0.3,0.3-0.5
					S111.9,88.8,111.7,88.8"/>
			</g>
			<g>
				<defs>
					<rect id="SVGID_13_" x="22.5" y="22.4" width="242.3" height="242.3"/>
				</defs>
				<clipPath id="SVGID_14_">
					<use xlink:href="#SVGID_13_"  style="overflow:visible;"/>
				</clipPath>
				<path class="st13" d="M112.9,90.4c-2.9,1.5-5.6,2.3-8.6,2.8c-0.3-1.1-0.6-2.6,0.7-3.5C107.5,88.3,112.7,88,112.9,90.4z"/>
				<polygon class="st14" points="81.9,103 81.9,103 81.9,103 82,103 82,103 82,103 82,103 82.1,103 82.1,103 82.1,103.1 
					82.2,103.1 82.2,103.1 82.2,103.1 82.2,103.1 82.3,103.1 82.3,103.1 82.3,103.1 82.3,103.1 82.4,103.1 82.4,103.1 82.4,103.1 
					82.5,103.1 82.5,103.1 82.5,103.2 82.6,103.2 82.6,103.2 82.6,103.2 82.6,103.2 82.6,103.2 82.8,103.4 82.8,103.6 82.8,103.6 
					82.8,103.6 82.6,103.8 82.4,103.8 82.4,103.8 82.4,103.7 82.4,103.7 82.3,103.7 82.3,103.7 82.3,103.7 82.3,103.7 82.2,103.7 
					82.2,103.7 82.2,103.7 82.2,103.7 82.2,103.7 82.1,103.7 82.1,103.6 82.1,103.6 82.1,103.6 82.1,103.6 82,103.6 82,103.6 
					82,103.6 82,103.6 82,103.6 82,103.6 81.9,103.6 81.9,103.6 81.9,103.6 81.9,103.6 81.9,103.6 81.9,103.6 81.8,103.6 
					81.8,103.6 81.8,103.6 81.8,103.6 81.8,103.6 81.8,103.6 81.8,103.6 81.7,103.6 81.7,103.6 81.7,103.6 81.7,103.6 81.7,103.6 
					81.7,103.6 81.7,103.6 81.7,103.6 81.6,103.6 81.6,103.6 81.6,103.6 81.6,103.6 81.6,103.6 81.6,103.6 81.6,103.6 81.6,103.6 
					81.6,103.6 81.6,103.6 81.5,103.7 81.5,103.7 81.5,103.7 81.5,103.7 81.5,103.7 81.5,103.7 81.5,103.7 81.5,103.7 81.5,103.7 
					81.5,103.7 81.5,103.7 81.5,103.7 81.5,103.7 81.4,103.7 81.4,103.7 81.4,103.7 81.4,103.7 81.4,103.8 81.4,103.8 81.4,103.8 
					81.4,103.8 81.4,103.8 81.4,103.8 81.4,103.8 81.4,103.8 81.4,103.8 81.4,103.8 81.4,103.8 81.4,103.8 81.4,103.9 81.3,103.9 
					81.3,103.9 81.3,103.9 81.3,103.9 81.3,103.9 81.3,103.9 81.3,103.9 81.3,103.9 81.3,104 81.3,104 81.3,104 81.3,104 81.3,104 
					81.3,104 81.3,104 81.3,104 81.3,104.1 81.3,104.1 81.3,104.1 81.3,104.1 81.3,104.1 81.3,104.1 81.3,104.1 81.3,104.2 
					81.3,104.2 81.3,104.2 81.3,104.2 81.3,104.2 81.3,104.2 81.3,104.3 81.3,104.3 81.3,104.3 81.3,104.3 81.3,104.3 81.3,104.3 
					81.3,104.4 81.3,104.4 81.3,104.4 81.3,104.4 81.3,104.4 81.3,104.4 81.3,104.5 81.3,104.5 81.3,104.5 81.3,104.5 81.3,104.5 
					81.3,104.5 81.3,104.6 81.3,104.6 81.3,104.6 81.3,104.6 81.3,104.6 81.3,104.7 81.3,104.7 81.3,104.7 81.3,104.7 81.3,104.7 
					81.4,104.8 81.4,104.8 81.4,104.8 81.4,104.8 81.4,104.8 81.4,104.8 81.4,104.9 81.4,104.9 81.4,104.9 81.4,104.9 81.4,104.9 
					81.4,105 81.4,105 81.5,105 81.5,105 81.5,105 81.5,105.1 81.5,105.1 81.5,105.1 81.5,105.1 81.5,105.1 81.5,105.2 81.5,105.2 
					81.6,105.2 81.6,105.2 81.6,105.2 81.6,105.3 81.6,105.3 81.6,105.3 81.6,105.3 81.6,105.3 81.7,105.4 81.7,105.4 81.7,105.4 
					81.7,105.4 81.7,105.4 81.7,105.5 81.7,105.5 81.8,105.5 81.8,105.5 81.8,105.5 81.8,105.5 81.8,105.6 81.8,105.6 81.9,105.6 
					81.9,105.6 81.9,105.6 81.9,105.7 81.9,105.7 81.9,105.7 82,105.7 82,105.7 82,105.8 82,105.8 82,105.8 82.1,105.8 82.1,105.8 
					82.1,105.8 82.1,105.9 82.1,105.9 82.2,105.9 82.2,105.9 82.2,105.9 82.2,105.9 82.2,106 82.3,106 82.3,106 82.3,106 82.3,106 
					82.4,106 82.4,106.1 82.4,106.1 82.4,106.1 82.4,106.1 82.5,106.1 82.5,106.1 82.5,106.2 82.5,106.2 82.6,106.2 82.6,106.2 
					82.6,106.2 82.6,106.2 82.7,106.2 82.7,106.3 82.7,106.3 82.8,106.3 82.8,106.3 82.8,106.3 82.8,106.3 82.9,106.3 82.9,106.3 
					82.9,106.4 82.9,106.4 83,106.4 83,106.4 83,106.4 83.1,106.4 83.1,106.4 83.1,106.4 83.2,106.5 83.2,106.5 83.2,106.5 
					83.3,106.5 83.3,106.5 83.3,106.5 83.3,106.5 83.4,106.5 83.4,106.5 83.4,106.5 83.5,106.5 83.5,106.6 83.5,106.6 83.6,106.6 
					83.6,106.6 83.7,106.6 83.7,106.6 83.8,106.8 83.6,106.9 83.6,106.9 83.6,106.9 83.5,106.9 83.5,106.9 83.4,106.9 83.4,106.9 
					83.4,106.9 83.3,106.9 83.3,106.8 83.3,106.8 83.2,106.8 83.2,106.8 83.2,106.8 83.1,106.8 83.1,106.8 83.1,106.8 83,106.8 
					83,106.8 83,106.7 82.9,106.7 82.9,106.7 82.9,106.7 82.8,106.7 82.8,106.7 82.8,106.7 82.7,106.7 82.7,106.7 82.7,106.6 
					82.6,106.6 82.6,106.6 82.6,106.6 82.5,106.6 82.5,106.6 82.5,106.6 82.4,106.5 82.4,106.5 82.4,106.5 82.4,106.5 82.3,106.5 
					82.3,106.5 82.3,106.5 82.2,106.4 82.2,106.4 82.2,106.4 82.2,106.4 82.1,106.4 82.1,106.4 82.1,106.3 82.1,106.3 82,106.3 
					82,106.3 82,106.3 82,106.2 81.9,106.2 81.9,106.2 81.9,106.2 81.9,106.2 81.8,106.2 81.8,106.1 81.8,106.1 81.8,106.1 
					81.7,106.1 81.7,106.1 81.7,106 81.7,106 81.7,106 81.6,106 81.6,106 81.6,105.9 81.6,105.9 81.5,105.9 81.5,105.9 81.5,105.9 
					81.5,105.8 81.5,105.8 81.4,105.8 81.4,105.8 81.4,105.7 81.4,105.7 81.4,105.7 81.4,105.7 81.3,105.7 81.3,105.6 81.3,105.6 
					81.3,105.6 81.3,105.6 81.3,105.6 81.2,105.5 81.2,105.5 81.2,105.5 81.2,105.5 81.2,105.4 81.2,105.4 81.1,105.4 81.1,105.4 
					81.1,105.3 81.1,105.3 81.1,105.3 81.1,105.3 81.1,105.3 81.1,105.2 81,105.2 81,105.2 81,105.2 81,105.1 81,105.1 81,105.1 
					81,105.1 81,105 81,105 80.9,105 80.9,105 80.9,105 80.9,104.9 80.9,104.9 80.9,104.9 80.9,104.9 80.9,104.8 80.9,104.8 
					80.9,104.8 80.9,104.8 80.9,104.7 80.8,104.7 80.8,104.7 80.8,104.7 80.8,104.7 80.8,104.6 80.8,104.6 80.8,104.6 80.8,104.6 
					80.8,104.5 80.8,104.5 80.8,104.5 80.8,104.5 80.8,104.4 80.8,104.4 80.8,104.4 80.8,104.4 80.8,104.4 80.8,104.3 80.8,104.3 
					80.8,104.3 80.8,104.3 80.8,104.2 80.8,104.2 80.8,104.2 80.8,104.2 80.8,104.2 80.8,104.1 80.8,104.1 80.8,104.1 80.8,104.1 
					80.8,104 80.8,104 80.8,104 80.8,104 80.8,104 80.8,103.9 80.8,103.9 80.8,103.9 80.8,103.9 80.8,103.9 80.8,103.8 80.8,103.8 
					80.8,103.8 80.8,103.8 80.8,103.8 80.8,103.7 80.8,103.7 80.8,103.7 80.9,103.7 80.9,103.7 80.9,103.6 80.9,103.6 80.9,103.6 
					80.9,103.6 80.9,103.6 80.9,103.5 80.9,103.5 80.9,103.5 81,103.5 81,103.5 81,103.4 81,103.4 81,103.4 81,103.4 81,103.4 
					81,103.4 81.1,103.3 81.1,103.3 81.1,103.3 81.1,103.3 81.1,103.3 81.1,103.3 81.2,103.3 81.2,103.2 81.2,103.2 81.2,103.2 
					81.2,103.2 81.2,103.2 81.3,103.2 81.3,103.2 81.3,103.2 81.3,103.2 81.3,103.1 81.4,103.1 81.4,103.1 81.4,103.1 81.4,103.1 
					81.4,103.1 81.5,103.1 81.5,103.1 81.5,103.1 81.5,103.1 81.6,103.1 81.6,103.1 81.6,103.1 81.6,103 81.6,103 81.7,103 
					81.7,103 81.7,103 81.7,103 81.8,103 81.8,103 81.8,103 81.8,103 81.9,103 				"/>
				<polygon class="st14" points="124.3,89.4 124.4,89.4 124.4,89.4 124.4,89.4 124.4,89.4 124.5,89.4 124.5,89.4 124.5,89.4 
					124.5,89.4 124.5,89.4 124.6,89.4 124.6,89.4 124.6,89.4 124.6,89.4 124.7,89.4 124.7,89.4 124.7,89.5 124.7,89.5 124.7,89.5 
					124.8,89.5 124.8,89.5 124.8,89.5 124.8,89.5 124.8,89.5 124.9,89.6 124.9,89.6 124.9,89.6 124.9,89.6 124.9,89.6 124.9,89.6 
					124.9,89.7 125,89.7 125,89.7 125,89.7 125,89.7 125,89.8 125,89.8 125,89.8 125,89.8 125.1,89.8 125.1,89.9 125.1,89.9 
					125.1,89.9 125.1,89.9 125.1,89.9 125.1,90 125.1,90 125.1,90 125.1,90 125.2,90.1 125.2,90.1 125.2,90.1 125.2,90.1 
					125.2,90.2 125.2,90.2 125.2,90.2 125.2,90.2 125.2,90.3 125.2,90.3 125.2,90.3 125.2,90.3 125.2,90.4 125.2,90.4 125.2,90.4 
					125.3,90.4 125.3,90.5 125.3,90.5 125.3,90.5 125.3,90.5 125.3,90.6 125.3,90.6 125.3,90.6 125.3,90.7 125.3,90.7 125.3,90.7 
					125.3,90.7 125.3,90.8 125.3,90.8 125.3,90.8 125.3,90.9 125.3,90.9 125.3,90.9 125.3,90.9 125.3,91 125.3,91 125.3,91 
					125.3,91.1 125.3,91.1 125.3,91.1 125.3,91.2 125.3,91.2 125.3,91.2 125.3,91.2 125.3,91.3 125.3,91.3 125.3,91.3 125.3,91.4 
					125.3,91.4 125.3,91.4 125.3,91.5 125.2,91.5 125.2,91.5 125.2,91.6 125.2,91.6 125.2,91.6 125.2,91.7 125.2,91.7 125.2,91.7 
					125.2,91.8 125.2,91.8 125.2,91.8 125.2,91.9 125.2,91.9 125.2,91.9 125.2,92 125.2,92 125.1,92 125.1,92.1 125.1,92.1 
					125.1,92.1 125.1,92.2 125.1,92.2 125.1,92.2 125.1,92.3 125.1,92.3 125.1,92.3 125.1,92.4 125,92.4 125,92.4 125,92.5 
					125,92.5 125,92.5 125,92.6 125,92.6 125,92.6 124.9,92.7 124.9,92.7 124.9,92.7 124.9,92.8 124.9,92.8 124.9,92.8 124.9,92.9 
					124.8,92.9 124.8,92.9 124.8,93 124.8,93 124.8,93 124.8,93.1 124.8,93.1 124.7,93.1 124.7,93.2 124.7,93.2 124.7,93.2 
					124.7,93.3 124.7,93.3 124.6,93.3 124.6,93.4 124.6,93.4 124.6,93.4 124.6,93.5 124.5,93.5 124.5,93.5 124.5,93.6 124.5,93.6 
					124.5,93.6 124.4,93.7 124.4,93.7 124.4,93.7 124.4,93.8 124.3,93.8 124.3,93.8 124.3,93.8 124.3,93.9 124.3,93.9 124.2,93.9 
					124.2,94 124.2,94 124.2,94 124.1,94.1 124.1,94.1 124.1,94.1 124.1,94.1 124,94.2 124,94.2 124,94.2 124,94.3 123.9,94.3 
					123.9,94.3 123.9,94.3 123.8,94.4 123.8,94.4 123.8,94.4 123.8,94.5 123.7,94.5 123.7,94.5 123.7,94.5 123.6,94.6 123.6,94.6 
					123.6,94.6 123.6,94.6 123.5,94.7 123.5,94.7 123.5,94.7 123.4,94.7 123.4,94.8 123.4,94.8 123.3,94.8 123.3,94.8 123.3,94.9 
					123.2,94.9 123.2,94.9 123.2,94.9 123.1,94.9 122.9,94.9 123,94.7 123,94.7 123,94.6 123,94.6 123.1,94.6 123.1,94.6 
					123.1,94.5 123.2,94.5 123.2,94.5 123.2,94.5 123.3,94.5 123.3,94.4 123.3,94.4 123.3,94.4 123.4,94.4 123.4,94.3 123.4,94.3 
					123.4,94.3 123.5,94.3 123.5,94.2 123.5,94.2 123.5,94.2 123.6,94.2 123.6,94.1 123.6,94.1 123.6,94.1 123.7,94 123.7,94 
					123.7,94 123.7,94 123.8,93.9 123.8,93.9 123.8,93.9 123.8,93.9 123.8,93.8 123.9,93.8 123.9,93.8 123.9,93.7 123.9,93.7 
					124,93.7 124,93.7 124,93.6 124,93.6 124,93.6 124.1,93.5 124.1,93.5 124.1,93.5 124.1,93.4 124.1,93.4 124.1,93.4 124.2,93.4 
					124.2,93.3 124.2,93.3 124.2,93.3 124.2,93.2 124.2,93.2 124.3,93.2 124.3,93.1 124.3,93.1 124.3,93.1 124.3,93.1 124.3,93 
					124.4,93 124.4,93 124.4,92.9 124.4,92.9 124.4,92.9 124.4,92.8 124.4,92.8 124.4,92.8 124.5,92.7 124.5,92.7 124.5,92.7 
					124.5,92.6 124.5,92.6 124.5,92.6 124.5,92.6 124.5,92.5 124.6,92.5 124.6,92.5 124.6,92.4 124.6,92.4 124.6,92.4 124.6,92.3 
					124.6,92.3 124.6,92.3 124.6,92.2 124.6,92.2 124.6,92.2 124.7,92.1 124.7,92.1 124.7,92.1 124.7,92.1 124.7,92 124.7,92 
					124.7,92 124.7,91.9 124.7,91.9 124.7,91.9 124.7,91.8 124.7,91.8 124.7,91.8 124.7,91.7 124.7,91.7 124.7,91.7 124.7,91.7 
					124.8,91.6 124.8,91.6 124.8,91.6 124.8,91.5 124.8,91.5 124.8,91.5 124.8,91.4 124.8,91.4 124.8,91.4 124.8,91.4 124.8,91.3 
					124.8,91.3 124.8,91.3 124.8,91.2 124.8,91.2 124.8,91.2 124.8,91.2 124.8,91.1 124.8,91.1 124.8,91.1 124.8,91.1 124.8,91 
					124.8,91 124.8,91 124.8,91 124.8,90.9 124.8,90.9 124.8,90.9 124.8,90.8 124.8,90.8 124.8,90.8 124.8,90.8 124.8,90.8 
					124.8,90.7 124.8,90.7 124.8,90.7 124.8,90.7 124.8,90.6 124.8,90.6 124.8,90.6 124.7,90.6 124.7,90.5 124.7,90.5 124.7,90.5 
					124.7,90.5 124.7,90.5 124.7,90.4 124.7,90.4 124.7,90.4 124.7,90.4 124.7,90.4 124.7,90.3 124.7,90.3 124.7,90.3 124.7,90.3 
					124.7,90.3 124.7,90.3 124.7,90.2 124.7,90.2 124.6,90.2 124.6,90.2 124.6,90.2 124.6,90.2 124.6,90.2 124.6,90.1 124.6,90.1 
					124.6,90.1 124.6,90.1 124.6,90.1 124.6,90.1 124.6,90.1 124.6,90.1 124.6,90.1 124.5,90 124.5,90 124.5,90 124.5,90 124.5,90 
					124.5,90 124.5,90 124.5,90 124.5,90 124.5,90 124.5,90 124.5,90 124.5,90 124.5,90 124.5,89.9 124.4,89.9 124.4,89.9 
					124.4,89.9 124.4,89.9 124.4,89.9 124.4,89.9 124.4,89.9 124.4,89.9 124.4,89.9 124.4,89.9 124.4,89.9 124.4,89.9 124.4,89.9 
					124.4,89.9 124.4,89.9 124.4,89.9 124.3,89.9 124.3,89.9 124.3,89.9 124.3,89.9 124.3,89.9 124.3,89.9 124.3,89.9 124.3,89.9 
					124.3,89.9 124.3,89.9 124.3,89.9 124.2,89.9 124.2,89.9 124.2,89.9 124.2,89.9 124.2,89.9 124.2,90 124.2,90 124.2,90 
					124.2,90 124.1,90 124.1,90 124.1,90 124.1,90 124.1,90 124.1,90 124.1,90 124,90 124,90.1 124,90.1 124,90.1 124,90.1 
					124,90.1 123.9,90.1 123.9,90.1 123.9,90.1 123.9,90.2 123.9,90.2 123.8,90.2 123.8,90.2 123.8,90.2 123.8,90.3 123.8,90.3 
					123.8,90.3 123.7,90.3 123.7,90.3 123.7,90.4 123.7,90.4 123.5,90.5 123.3,90.4 123.3,90.4 123.3,90.4 123.2,90.2 123.2,90 
					123.3,89.9 123.3,89.9 123.3,89.9 123.3,89.9 123.4,89.8 123.4,89.8 123.4,89.8 123.4,89.8 123.5,89.7 123.5,89.7 123.5,89.7 
					123.5,89.7 123.6,89.7 123.6,89.6 123.6,89.6 123.6,89.6 123.7,89.6 123.7,89.6 123.7,89.6 123.7,89.5 123.8,89.5 123.8,89.5 
					123.8,89.5 123.8,89.5 123.9,89.5 123.9,89.5 123.9,89.4 123.9,89.4 124,89.4 124,89.4 124,89.4 124,89.4 124.1,89.4 
					124.1,89.4 124.1,89.4 124.1,89.4 124.2,89.4 124.2,89.4 124.2,89.4 124.2,89.4 124.3,89.4 124.3,89.4 124.3,89.4 				"/>
			</g>
		</g>
	</g>
</g>
<g id="Слой_5">
</g>
<g id="Слой_4">
</g>
</svg>
