<svg enable-background="new 0 0 297.64 297.64" viewBox="0 0 297.64 297.64" xmlns="http://www.w3.org/2000/svg"><path d="m261.34 101.76-66.37-65.72-93.4.34-65.72 66.21.45 93.29 66.37 65.72 93.4-.34 65.72-66.21z" fill="#cb202d"/><path clip-rule="evenodd" d="m67.42 176.61h158.58v2.42h-158.58z" fill="#fff" fill-rule="evenodd"/><path d="m258.26 103.43-64.23-63.68-90.45.39-63.68 64.23.39 90.45 64.23 63.68 90.45-.39 63.68-64.23zm-69.43 142.99-81.97.35-58.21-57.71-.35-81.97 57.71-58.21 81.97-.35 58.21 57.71.35 81.97z" fill="#fff"/><path d="m93.45 156.4c-1.7 1.54-3.73 2.31-6.09 2.31-3.2 0-5.8-1.21-7.79-3.63-2-2.42-3-6.48-3-12.18 0-5.37 1.01-9.26 3.04-11.66s4.67-3.6 7.93-3.6c2.36 0 4.36.68 6.01 2.03s2.73 3.2 3.25 5.54l8.78-2.15c-1-3.61-2.5-6.38-4.5-8.31-3.36-3.26-7.73-4.89-13.1-4.89-6.16 0-11.12 2.08-14.9 6.23s-5.67 9.98-5.67 17.49c0 7.09 1.88 12.69 5.64 16.78s8.55 6.14 14.39 6.14c4.72 0 8.61-1.2 11.68-3.58 3.07-2.39 5.26-6.04 6.58-10.97l-8.6-2.8c-.74 3.29-1.96 5.71-3.65 7.25z" fill="#fff"/><path d="m108.61 128.26h13.04v37.46h8.87v-37.46h13.01v-7.63h-34.92z" fill="#fff"/><path d="m195.57 165.72h8.87v-37.53h17.21v37.53h8.88v-45.09h-34.96z" fill="#fff"/><path d="m167.15 119.86c-3.58 0-6.74.6-9.47 1.78-2.06.88-3.95 2.23-5.68 4.06s-3.09 3.89-4.09 6.18c-1.34 3.12-2.01 6.97-2.01 11.57 0 7.18 1.93 12.81 5.79 16.9s9.05 6.14 15.59 6.14c6.46 0 11.61-2.06 15.47-6.17s5.79-9.81 5.79-17.09c0-7.34-1.94-13.07-5.83-17.19-3.9-4.12-9.09-6.18-15.56-6.18zm8.8 34.92c-2.27 2.61-5.17 3.92-8.71 3.92s-6.46-1.32-8.75-3.95c-2.3-2.63-3.45-6.51-3.45-11.61 0-5.19 1.12-9.07 3.36-11.64s5.19-3.86 8.84-3.86c3.66 0 6.59 1.27 8.8 3.81s3.31 6.4 3.31 11.56c0 5.24-1.13 9.16-3.4 11.77z" fill="#fff"/><g fill="#010101"><path d="m263.34 101.75c0-.53-.22-1.04-.59-1.41l-66.37-65.72c-.38-.37-.89-.58-1.41-.58l-93.4.34c-.53 0-1.04.21-1.41.59l-65.72 66.21c-.37.38-.58.89-.58 1.42l.45 93.29c0 .53.22 1.04.59 1.41l66.37 65.72c.38.37.89.58 1.42.58l93.4-.34c.53 0 1.04-.21 1.41-.59l65.72-66.21c.38-.38.58-.89.58-1.42zm-67.27 159.51-93.4.34-66.37-65.72-.45-93.29 65.72-66.21 93.4-.34 66.37 65.72.45 93.29z"/><path d="m259.67 102.01-64.23-63.68c-.38-.37-.89-.58-1.42-.58l-90.45.39c-.53 0-1.04.21-1.41.59l-63.68 64.23c-.37.38-.58.89-.58 1.42l.39 90.45c0 .53.22 1.04.59 1.41l64.23 63.68c.38.37.89.58 1.42.58l90.45-.39c.53 0 1.04-.22 1.41-.59l63.68-64.23c.37-.38.58-.89.58-1.42l-.39-90.45c0-.53-.21-1.03-.59-1.41zm-64.71 156.1-90.45.39-64.23-63.68-.39-90.45 63.68-64.23 90.45-.39 64.23 63.68.39 90.45z"/><path d="m247.6 104.83-58.21-57.71c-.38-.37-.89-.58-1.42-.58l-81.97.35c-.53 0-1.04.21-1.41.59l-57.71 58.21c-.37.38-.58.89-.58 1.42l.35 81.97c0 .53.22 1.04.59 1.41l58.21 57.71c.38.37.89.58 1.42.58l81.97-.35c.53 0 1.04-.21 1.41-.59l57.71-58.21c.37-.38.58-.89.58-1.42l-.35-81.97c0-.53-.22-1.04-.59-1.41zm-58.77 141.59-81.97.35-58.21-57.71-.35-81.97 57.71-58.21 81.97-.35 58.21 57.71.35 81.97z"/><path d="m226 174.61h-158.58c-1.1 0-2 .9-2 2v2.43c0 1.1.9 2 2 2h158.58c1.1 0 2-.9 2-2v-2.43c0-1.11-.9-2-2-2zm0 4.42h-158.58v-2.42h158.58z"/><path d="m167.24 158.71c3.54 0 6.44-1.31 8.71-3.92s3.4-6.54 3.4-11.77c0-5.17-1.1-9.02-3.31-11.56s-5.14-3.81-8.8-3.81-6.61 1.29-8.84 3.86c-2.24 2.57-3.36 6.45-3.36 11.64 0 5.11 1.15 8.98 3.45 11.61 2.29 2.63 5.21 3.95 8.75 3.95zm-6.96-25.57c1.76-2.02 4.09-3 6.96-3s5.18.96 6.91 2.95c1.89 2.17 2.7 5.51 2.7 9.93 0 4.48-.84 7.88-2.79 10.13-1.78 2.05-4.05 3.06-6.82 3.06s-5.07-1.03-6.87-3.1c-1.97-2.25-2.83-5.6-2.83-9.97 0-4.44.82-7.8 2.74-10z"/><path d="m230.53 118.13h-34.96c-1.38 0-2.5 1.12-2.5 2.5v45.09c0 1.38 1.12 2.5 2.5 2.5h8.87c1.38 0 2.5-1.12 2.5-2.5v-35.03h12.21v35.03c0 1.38 1.12 2.5 2.5 2.5h8.87c1.38 0 2.5-1.12 2.5-2.5v-45.09c.01-1.38-1.11-2.5-2.49-2.5zm0 47.59h-8.87v-37.53h-17.21v37.53h-8.87v-45.09h34.96v45.09z"/><path d="m145.6 130.9c-1.45 3.38-2.21 7.56-2.21 12.55 0 7.92 2.21 14.1 6.47 18.62 4.31 4.57 10.1 6.92 17.41 6.92 7.23 0 12.98-2.35 17.29-6.96 4.25-4.53 6.46-10.78 6.46-18.8 0-8.09-2.23-14.37-6.51-18.91-4.35-4.61-10.12-6.97-17.36-6.97-3.95 0-7.44.68-10.46 1.99-2.35 1.01-4.53 2.55-6.51 4.64-1.93 2.04-3.45 4.34-4.57 6.9 0 .01 0 .01-.01.02zm2.3.99c1-2.3 2.36-4.36 4.09-6.18s3.62-3.18 5.68-4.06c2.74-1.19 5.9-1.78 9.47-1.78 6.48 0 11.66 2.06 15.54 6.18 3.89 4.12 5.83 9.85 5.83 17.19 0 7.28-1.93 12.97-5.79 17.09-3.86 4.11-9.01 6.17-15.47 6.17-6.54 0-11.73-2.05-15.59-6.14s-5.79-9.73-5.79-16.9c.02-4.6.69-8.46 2.03-11.57z"/><path d="m87.45 168.99c5.34 0 9.74-1.41 13.21-4.11 3.45-2.69 5.98-6.76 7.46-12.29.34-1.28-.38-2.61-1.64-3.02l-8.6-2.8c-.67-.22-1.4-.14-2.01.21s-1.05.94-1.2 1.63c-.6 2.69-1.51 4.7-2.9 5.95-1.23 1.11-2.7 1.66-4.41 1.66-2.41 0-4.36-.9-5.87-2.72-1.73-2.1-2.43-5.65-2.43-10.59 0-4.61.71-7.98 2.45-10.04 1.54-1.82 3.55-2.71 6.02-2.71 1.73 0 3.21.47 4.43 1.46 1.23 1.01 2.01 2.4 2.4 4.15.15.66.55 1.23 1.12 1.58s1.26.46 1.91.31l8.78-2.15c.66-.16 1.22-.58 1.56-1.16s.43-1.28.25-1.93c-.19-.68-.39-1.33-.61-1.95.36.2.78.32 1.22.32h10.54v34.96c0 1.38 1.12 2.5 2.5 2.5h8.88c1.38 0 2.5-1.12 2.5-2.5v-34.96h10.51c1.38 0 2.5-1.12 2.5-2.5v-7.63c0-1.38-1.12-2.5-2.5-2.5h-34.93c-1.38 0-2.5 1.12-2.5 2.5v6.83c-.92-1.79-2.02-3.29-3.28-4.5-3.8-3.69-8.74-5.59-14.84-5.59-6.93 0-12.5 2.37-16.75 7.05-4.15 4.56-6.32 10.93-6.32 19.17 0 7.82 2.15 13.96 6.3 18.47 4.26 4.57 9.66 6.9 16.25 6.9zm21.16-48.36h34.93v7.63h-13.01v37.46h-8.88v-37.46h-13.04zm-35.52 5.46c3.78-4.15 8.74-6.23 14.9-6.23 5.38 0 9.74 1.63 13.1 4.89 2 1.93 3.5 4.7 4.5 8.31l-8.78 2.15c-.52-2.34-1.6-4.18-3.25-5.54-1.65-1.35-3.65-2.03-6.01-2.03-3.26 0-5.9 1.2-7.93 3.6s-3.04 6.28-3.04 11.66c0 5.7 1 9.76 3 12.18s4.6 3.63 7.79 3.63c2.36 0 4.39-.77 6.09-2.31s2.92-3.96 3.66-7.26l8.6 2.8c-1.32 4.92-3.51 8.58-6.58 10.97s-6.96 3.58-11.68 3.58c-5.84 0-10.63-2.05-14.39-6.14s-5.64-9.68-5.64-16.78c-.01-7.5 1.88-13.33 5.66-17.48z"/></g></svg>