<?xml version="1.0" encoding="utf-8"?>
<!-- Generator: Adobe Illustrator 23.1.0, SVG Export Plug-In . SVG Version: 6.00 Build 0)  -->
<svg version="1.1" id="Слой_1" xmlns="http://www.w3.org/2000/svg" xmlns:xlink="http://www.w3.org/1999/xlink" x="0px" y="0px"
	 viewBox="0 0 283.5 283.5" style="enable-background:new 0 0 283.5 283.5;" xml:space="preserve">
<style type="text/css">
	.st0{fill-rule:evenodd;clip-rule:evenodd;fill:url(#SVGID_1_);}
</style>
<linearGradient id="SVGID_1_" gradientUnits="userSpaceOnUse" x1="152.1204" y1="52.4411" x2="152.1204" y2="233.3824">
	<stop  offset="0.3623" style="stop-color:#6CBD45"/>
	<stop  offset="0.4776" style="stop-color:#68B944"/>
	<stop  offset="0.603" style="stop-color:#5BAD40"/>
	<stop  offset="0.733" style="stop-color:#45983A"/>
	<stop  offset="0.8663" style="stop-color:#267C31"/>
	<stop  offset="1" style="stop-color:#005826"/>
</linearGradient>
<path class="st0" d="M65.2,112.8c13.9,24.9,49.7,92.3,54.9,101.4c12.4,21.7,17.1,22.2,23.5,14.9c2.9-3.3,6.3-8.4,10.7-15.6
	c8.1-13.4,20.7-34.4,36.1-60.3c10-16.8,19.9-34.8,35.1-57c27.4-40.2,22.5-44.8,18.2-43.7c-11.3,3.1-25.9,18.1-45.9,38.3
	c-36.1,36.3-62.8,68.4-62.8,68.4s-22.7-31.5-56.3-55.9C49.3,82,55.7,95.9,65.2,112.8z"/>
</svg>
