<?xml version="1.0" encoding="utf-8"?>
<!-- Generator: Adobe Illustrator 22.1.0, SVG Export Plug-In . SVG Version: 6.00 Build 0)  -->
<svg version="1.1" id="Слой_1" xmlns="http://www.w3.org/2000/svg" xmlns:xlink="http://www.w3.org/1999/xlink" x="0px" y="0px"
	 viewBox="0 0 283.5 283.5" style="enable-background:new 0 0 283.5 283.5;" xml:space="preserve">
<style type="text/css">
	.st0{clip-path:url(#SVGID_2_);fill-rule:evenodd;clip-rule:evenodd;fill:#009D41;}
	.st1{clip-path:url(#SVGID_4_);fill-rule:evenodd;clip-rule:evenodd;fill:#FFFFFF;}
	.st2{clip-path:url(#SVGID_4_);fill:none;stroke:#12100B;stroke-linecap:round;stroke-linejoin:round;stroke-miterlimit:10;}
	.st3{clip-path:url(#SVGID_6_);fill:none;stroke:#12100B;stroke-linecap:round;stroke-linejoin:round;stroke-miterlimit:10;}
	.st4{clip-path:url(#SVGID_6_);fill-rule:evenodd;clip-rule:evenodd;fill:#12100B;}
	.st5{clip-path:url(#SVGID_6_);fill-rule:evenodd;clip-rule:evenodd;fill:#FFFFFF;}
	
		.st6{clip-path:url(#SVGID_6_);fill:none;stroke:#12100B;stroke-width:0.85;stroke-linecap:round;stroke-linejoin:round;stroke-miterlimit:10;}
	.st7{clip-path:url(#SVGID_8_);fill-rule:evenodd;clip-rule:evenodd;fill:#12100B;}
	.st8{clip-path:url(#SVGID_8_);fill-rule:evenodd;clip-rule:evenodd;fill:#FFFFFF;}
	.st9{clip-path:url(#SVGID_10_);fill:none;stroke:#12100B;stroke-linecap:round;stroke-linejoin:round;stroke-miterlimit:10;}
	.st10{clip-path:url(#SVGID_12_);fill-rule:evenodd;clip-rule:evenodd;fill:#12100B;}
	.st11{clip-path:url(#SVGID_12_);fill-rule:evenodd;clip-rule:evenodd;fill:#FFFFFF;}
	.st12{clip-path:url(#SVGID_14_);fill:none;stroke:#12100B;stroke-linecap:round;stroke-linejoin:round;stroke-miterlimit:10;}
	.st13{clip-path:url(#SVGID_14_);fill-rule:evenodd;clip-rule:evenodd;fill:#12100B;}
	
		.st14{clip-path:url(#SVGID_14_);fill:none;stroke:#12100B;stroke-width:0.85;stroke-linecap:round;stroke-linejoin:round;stroke-miterlimit:10;}
	.st15{clip-path:url(#SVGID_14_);fill-rule:evenodd;clip-rule:evenodd;fill:#FFFFFF;}
</style>
<g>
	<defs>
		<rect id="SVGID_1_" width="283.5" height="283.5"/>
	</defs>
	<clipPath id="SVGID_2_">
		<use xlink:href="#SVGID_1_"  style="overflow:visible;"/>
	</clipPath>
	<path class="st0" d="M184.2,159l-0.1,24.3l18.1,6.8L184.2,159z M129.8,111.9l0.2-18.1l22.3,0.5v17.4c0,0.1-0.1,0.1-0.1,0.2
		c2,0.1,21,0.4,32.4,6c13.1,6.4,43.6,77.4,43.6,77.4c4.1,12.1,1.9,22.9-11.7,21.2l-30.6-8.8l1.7,56.3c-4.6,2.6-22,7.1-36,4.2
		c-22.6-4.7-47.7,5.2-51.8-6.2l1.4-76l-7.8,39.4l5,49l-18.5,2.9c0,0-8.2-37.5-6.6-53.6c2-20.9,6.9-94,21.6-104.6
		C107.8,110,129.8,111.9,129.8,111.9"/>
</g>
<g>
	<defs>
		<path id="SVGID_3_" d="M184.1,183.3l0.1-24.3l18.1,31.1L184.1,183.3z M129.8,111.9c0,0-22-1.9-34.8,7.3
			c-14.7,10.5-19.6,83.6-21.6,104.6c-1.6,16.1,6.6,53.6,6.6,53.6l18.5-2.9l-5-49l7.8-39.4l-1.4,76c2.4,6.8,12.2,6,24.6,5.3
			c8.4-0.5,18.1-1,27.2,0.9c13.9,2.9,31.4-1.6,36-4.2l-1.7-56.3l30.6,8.8c13.6,1.7,15.8-9.1,11.7-21.2c0,0-30.5-71-43.6-77.4
			c-11.4-5.6-30.4-5.9-32.4-6c0-0.1,0.1-0.1,0.1-0.2V94.3l-22.3-0.5L129.8,111.9z"/>
	</defs>
	<clipPath id="SVGID_4_">
		<use xlink:href="#SVGID_3_"  style="overflow:visible;"/>
	</clipPath>
	<path class="st1" d="M142.1,84.8c11.9,0,21.5,9.1,21.5,20.2c0,11.2-9.6,20.2-21.5,20.2c-11.9,0-21.5-9.1-21.5-20.2
		C120.6,93.8,130.2,84.8,142.1,84.8"/>
	<ellipse class="st2" cx="142.1" cy="105" rx="21.5" ry="20.2"/>
</g>
<g>
	<defs>
		<rect id="SVGID_5_" width="283.5" height="283.5"/>
	</defs>
	<clipPath id="SVGID_6_">
		<use xlink:href="#SVGID_5_"  style="overflow:visible;"/>
	</clipPath>
	<path class="st3" d="M184.2,159l-0.1,24.3l18.1,6.8L184.2,159z M129.8,111.9l0.2-18.1l22.3,0.5v17.4c0,0.1-0.1,0.1-0.1,0.2
		c2,0.1,21,0.4,32.4,6c13.1,6.4,43.6,77.4,43.6,77.4c4.1,12.1,1.9,22.9-11.7,21.2l-30.6-8.8l1.7,56.3c-4.6,2.6-22,7.1-36,4.2
		c-22.6-4.7-47.7,5.2-51.8-6.2l1.4-76l-7.8,39.4l5,49l-18.5,2.9c0,0-8.2-37.5-6.6-53.6c2-20.9,6.9-94,21.6-104.6
		C107.8,110,129.8,111.9,129.8,111.9z"/>
	<path class="st3" d="M184.1,183.1l-16.2-5.3c-3.5,6.4-6.4,13.3-8.7,20.6l26.8,9.2"/>
	<polygon class="st4" points="99.7,149 99.7,149 99.7,149 99.7,149 99.8,149.1 99.8,149.1 99.8,149.2 99.8,149.2 99.9,149.2 
		99.9,149.3 99.9,149.3 99.9,149.3 99.9,149.4 100,149.4 100,149.5 100,149.5 100,149.5 100.1,149.6 100.1,149.6 100.1,149.7 
		100.1,149.7 100.2,149.7 100.2,149.8 100.2,149.8 100.3,149.8 100.3,149.9 100.3,149.9 100.3,149.9 100.4,150 100.4,150 
		100.4,150.1 100.4,150.1 100.5,150.1 100.5,150.2 100.5,150.2 100.6,150.2 100.6,150.3 100.6,150.3 100.6,150.3 100.7,150.4 
		100.7,150.5 100.8,150.5 100.8,150.6 100.9,150.7 101,150.7 101,150.8 101.1,150.9 101.2,150.9 101.2,151 101.3,151.1 101.3,151.1 
		101.4,151.2 101.5,151.3 101.5,151.3 101.6,151.4 101.7,151.5 101.7,151.5 101.8,151.6 101.9,151.7 101.9,151.7 102,151.8 
		102,151.9 102.1,151.9 102.2,152 102.4,152.2 102.5,152.3 102.8,152.5 102.9,152.7 103,152.8 103.1,152.9 103.2,153 103.3,153 
		103.3,153.1 103.4,153.1 103.4,153.2 103.5,153.3 103.5,153.3 103.6,153.4 103.6,153.4 103.6,153.5 103.6,153.5 101.9,186 
		101.9,186 101.7,186.2 101.3,186.3 101.3,186.3 101,186.2 100.9,186 100.9,186 102.9,153.6 102.9,153.6 102.8,153.6 102.8,153.5 
		102.7,153.4 102.7,153.4 102.5,153.3 102.4,153.1 102.3,153 102,152.8 101.9,152.6 101.8,152.5 101.6,152.4 101.6,152.3 
		101.5,152.3 101.5,152.2 101.4,152.1 101.3,152.1 101.3,152 101.2,151.9 101.1,151.9 101.1,151.8 101,151.7 100.9,151.7 
		100.9,151.6 100.8,151.5 100.7,151.4 100.7,151.4 100.6,151.3 100.5,151.2 100.5,151.2 100.4,151.1 100.4,151 100.3,150.9 
		100.2,150.9 100.2,150.8 100.1,150.7 100.1,150.7 100.1,150.7 100.1,150.6 100,150.6 100,150.6 100,150.5 99.9,150.5 99.9,150.4 
		99.9,150.4 99.9,150.4 99.8,150.3 99.8,150.3 99.8,150.2 99.7,150.2 99.7,150.2 99.7,150.1 99.7,150.1 99.6,150 99.6,150 99.6,150 
		99.5,149.9 99.5,149.9 99.5,149.8 99.5,149.8 99.4,149.8 99.4,149.7 99.4,149.7 99.4,149.6 99.3,149.6 99.3,149.6 99.3,149.5 
		99.3,149.5 99.2,149.4 99.2,149.4 99.2,149.3 99.2,149.3 99.1,149.3 99.1,149.2 99.1,149 99.3,148.8 99.3,148.8 99.5,148.8 	"/>
	<polygon class="st4" points="204.6,189 204.6,189 204.7,189 204.7,189 204.8,189 204.9,189 204.9,189 205,189 205,189 205.1,189 
		205.1,189 205.2,189 205.3,189.1 205.3,189.1 205.4,189.1 205.4,189.1 205.5,189.1 205.6,189.1 205.6,189.1 205.7,189.1 
		205.8,189.1 205.8,189.1 205.9,189.1 205.9,189.1 206,189.1 206.1,189.1 206.1,189.2 206.2,189.2 206.3,189.2 206.3,189.2 
		206.4,189.2 206.5,189.2 206.5,189.2 206.6,189.2 206.6,189.2 206.7,189.2 206.8,189.3 206.8,189.3 206.9,189.3 207,189.3 
		207,189.3 207.1,189.3 207.2,189.3 207.2,189.4 207.3,189.4 207.4,189.4 207.4,189.4 207.5,189.4 207.6,189.4 207.6,189.4 
		207.7,189.5 207.8,189.5 207.8,189.5 207.9,189.5 208,189.5 208,189.5 208.1,189.6 208.2,189.6 208.2,189.6 208.3,189.6 
		208.4,189.6 208.4,189.7 208.5,189.7 208.6,189.7 208.6,189.7 208.7,189.7 208.8,189.7 208.8,189.8 208.9,189.8 209,189.8 
		209,189.8 209.1,189.8 209.2,189.9 209.2,189.9 209.3,189.9 209.4,189.9 209.4,190 209.5,190 209.6,190 209.6,190 209.7,190 
		209.8,190.1 209.8,190.1 209.9,190.1 210,190.1 210,190.2 210.1,190.2 210.2,190.2 210.2,190.2 210.3,190.3 210.4,190.3 
		210.4,190.3 210.5,190.3 210.6,190.4 210.6,190.4 210.7,190.4 210.8,190.4 210.8,190.5 210.9,190.5 211,190.5 211,190.5 
		211.1,190.6 211.2,190.6 211.2,190.6 211.3,190.6 211.3,190.7 211.4,190.7 211.5,190.7 211.5,190.7 211.6,190.8 211.7,190.8 
		211.7,190.8 211.8,190.8 211.8,190.9 211.9,190.9 212,190.9 212,191 212.1,191 212.2,191 212.2,191 212.3,191.1 212.3,191.1 
		212.4,191.1 212.5,191.2 212.5,191.2 212.6,191.2 212.6,191.2 212.7,191.3 212.7,191.3 212.8,191.3 212.9,191.4 212.9,191.4 
		213,191.4 213,191.4 213.1,191.5 213.1,191.5 213.2,191.5 213.2,191.6 213.3,191.6 213.4,191.6 213.4,191.6 213.5,191.7 
		213.5,191.7 213.6,191.7 213.6,191.8 213.7,191.8 213.7,191.8 213.8,191.9 213.8,191.9 213.9,191.9 213.9,191.9 214,192 214,192 
		214.1,192 214.1,192.1 214.2,192.1 214.2,192.1 214.3,192.2 214.3,192.2 214.4,192.2 214.4,192.2 214.4,192.3 214.5,192.3 
		214.5,192.3 214.6,192.4 214.6,192.4 214.7,192.4 214.7,192.5 214.7,192.5 214.8,192.5 214.8,192.6 214.9,192.6 214.9,192.6 
		214.9,192.6 215,192.7 215,192.7 215.1,192.7 215.1,192.8 215.1,192.8 215.2,192.8 215.2,192.9 215.2,192.9 215.3,192.9 
		215.3,192.9 215.3,193 215.4,193 215.4,193 215.4,193.1 215.5,193.1 215.5,193.1 215.5,193.2 215.6,193.2 215.6,193.2 215.6,193.3 
		215.6,193.3 215.7,193.3 215.7,193.3 215.7,193.4 215.7,193.4 215.8,193.4 215.8,193.5 215.8,193.7 215.5,193.7 215.5,193.6 
		215.5,193.6 215.5,193.6 215.4,193.6 215.4,193.5 215.4,193.5 215.4,193.5 215.3,193.5 215.3,193.4 215.3,193.4 215.3,193.4 
		215.2,193.3 215.2,193.3 215.2,193.3 215.1,193.3 215.1,193.2 215.1,193.2 215,193.2 215,193.2 215,193.1 214.9,193.1 214.9,193.1 
		214.9,193.1 214.8,193 214.8,193 214.8,193 214.7,192.9 214.7,192.9 214.6,192.9 214.6,192.9 214.6,192.8 214.5,192.8 214.5,192.8 
		214.4,192.8 214.4,192.7 214.4,192.7 214.3,192.7 214.3,192.6 214.2,192.6 214.2,192.6 214.1,192.6 214.1,192.5 214,192.5 
		214,192.5 214,192.5 213.9,192.4 213.9,192.4 213.8,192.4 213.8,192.3 213.7,192.3 213.7,192.3 213.6,192.3 213.6,192.2 
		213.5,192.2 213.5,192.2 213.4,192.2 213.4,192.1 213.3,192.1 213.3,192.1 213.2,192.1 213.1,192 213.1,192 213,192 213,191.9 
		212.9,191.9 212.9,191.9 212.8,191.9 212.8,191.8 212.7,191.8 212.6,191.8 212.6,191.8 212.5,191.7 212.5,191.7 212.4,191.7 
		212.4,191.7 212.3,191.6 212.2,191.6 212.2,191.6 212.1,191.6 212.1,191.5 212,191.5 211.9,191.5 211.9,191.5 211.8,191.4 
		211.8,191.4 211.7,191.4 211.6,191.4 211.6,191.3 211.5,191.3 211.5,191.3 211.4,191.3 211.3,191.3 211.3,191.2 211.2,191.2 
		211.1,191.2 211.1,191.2 211,191.1 210.9,191.1 210.9,191.1 210.8,191.1 210.8,191 210.7,191 210.6,191 210.6,191 210.5,191 
		210.4,190.9 210.4,190.9 210.3,190.9 210.2,190.9 210.2,190.9 210.1,190.8 210,190.8 210,190.8 209.9,190.8 209.8,190.8 
		209.8,190.7 209.7,190.7 209.7,190.7 209.6,190.7 209.5,190.7 209.5,190.6 209.4,190.6 209.3,190.6 209.3,190.6 209.2,190.6 
		209.1,190.5 209.1,190.5 209,190.5 208.9,190.5 208.9,190.5 208.8,190.5 208.7,190.4 208.7,190.4 208.6,190.4 208.5,190.4 
		208.5,190.4 208.4,190.4 208.3,190.4 208.3,190.3 208.2,190.3 208.1,190.3 208.1,190.3 208,190.3 207.9,190.3 207.9,190.2 
		207.8,190.2 207.7,190.2 207.7,190.2 207.6,190.2 207.5,190.2 207.5,190.2 207.4,190.2 207.3,190.1 207.3,190.1 207.2,190.1 
		207.2,190.1 207.1,190.1 207,190.1 207,190.1 206.9,190.1 206.8,190.1 206.8,190.1 206.7,190 206.6,190 206.6,190 206.5,190 
		206.5,190 206.4,190 206.3,190 206.3,190 206.2,190 206.2,190 206.1,190 206,190 206,190 205.9,189.9 205.9,189.9 205.8,189.9 
		205.7,189.9 205.7,189.9 205.6,189.9 205.6,189.9 205.5,189.9 205.4,189.9 205.4,189.9 205.3,189.9 205.3,189.9 205.2,189.9 
		205.2,189.9 205.1,189.9 205.1,189.9 205,189.9 204.9,189.9 204.9,189.9 204.8,189.9 204.8,189.9 204.7,189.9 204.7,189.9 
		204.6,189.9 204.6,189.9 204.5,189.9 204.5,189.9 204.4,189.9 204.4,189.9 204.3,189.9 204.3,189.9 204.2,189.9 204.2,189.9 
		204.1,189.9 204.1,189.9 204,189.9 204,190 203.9,190 203.9,190 203.9,190 203.8,190 203.8,190 203.7,190 203.7,190 203.6,190 
		203.6,190 203.6,190 203.5,190 203.5,190 203.4,190.1 203.4,190.1 203.4,190.1 203.3,190.1 203.3,190.1 203.3,190.1 203.2,190.1 
		203.2,190.1 203.2,190.1 203.1,190.2 203.1,190.2 203.1,190.2 203,190.2 203,190.2 203,190.2 202.9,190.2 202.9,190.3 202.9,190.3 
		202.9,190.3 202.8,190.3 202.8,190.3 202.8,190.3 202.8,190.3 202.7,190.4 202.7,190.4 202.7,190.4 202.7,190.4 202.7,190.4 
		202.7,190.4 202.7,190.4 202.7,190.4 202.7,190.4 202.6,190.4 202.6,190.4 202.6,190.5 202.6,190.5 202.6,190.5 202.6,190.5 
		202.6,190.5 202.6,190.5 202.2,190.6 201.9,190.5 201.9,190.5 201.8,190.1 201.9,189.7 201.9,189.7 201.9,189.7 202,189.7 
		202,189.7 202,189.7 202,189.7 202,189.6 202.1,189.6 202.1,189.6 202.1,189.6 202.1,189.6 202.1,189.6 202.2,189.6 202.2,189.6 
		202.2,189.5 202.3,189.5 202.3,189.5 202.3,189.5 202.4,189.4 202.4,189.4 202.5,189.4 202.5,189.4 202.5,189.4 202.6,189.3 
		202.6,189.3 202.7,189.3 202.7,189.3 202.8,189.3 202.8,189.3 202.9,189.2 202.9,189.2 202.9,189.2 203,189.2 203,189.2 
		203.1,189.2 203.1,189.2 203.2,189.1 203.2,189.1 203.3,189.1 203.3,189.1 203.4,189.1 203.4,189.1 203.5,189.1 203.5,189.1 
		203.6,189.1 203.6,189.1 203.7,189.1 203.7,189.1 203.8,189.1 203.8,189 203.9,189 204,189 204,189 204.1,189 204.1,189 204.2,189 
		204.2,189 204.3,189 204.3,189 204.4,189 204.4,189 204.5,189 	"/>
	<polygon class="st4" points="187.9,145.5 187.8,145.6 187.8,145.7 187.7,145.8 187.7,145.9 187.6,146 187.6,146.1 187.5,146.2 
		187.5,146.3 187.4,146.4 187.4,146.5 187.3,146.6 187.3,146.7 187.3,146.8 187.2,146.9 187.2,147.1 187.1,147.2 187.1,147.3 
		187,147.4 187,147.5 186.9,147.6 186.9,147.7 186.8,147.8 186.8,147.9 186.7,148 186.7,148.1 186.6,148.2 186.5,148.3 186.5,148.4 
		186.4,148.5 186.4,148.6 186.3,148.7 186.3,148.8 186.2,148.9 186.2,149 186.1,149.1 186.1,149.2 186,149.3 186,149.4 185.9,149.5 
		185.8,149.6 185.8,149.7 185.7,149.8 185.7,149.9 185.6,150.1 185.6,150.2 185.5,150.3 185.4,150.4 185.4,150.5 185.3,150.6 
		185.3,150.7 185.2,150.8 185.1,150.9 185.1,151 185,151.1 185,151.2 184.9,151.3 184.8,151.4 184.8,151.5 184.7,151.6 184.6,151.7 
		184.6,151.8 184.5,151.9 184.5,152 184.4,152 184.4,159.5 184.4,159.5 184.3,159.8 184.1,159.9 184.1,159.9 184.1,160 184.1,160 
		183.8,159.9 183.6,159.5 183.6,159.5 183.8,151.9 183.8,151.9 183.8,151.8 183.8,151.8 183.8,151.8 183.9,151.7 184,151.6 
		184,151.5 184.1,151.4 184.2,151.3 184.2,151.2 184.3,151.1 184.4,151 184.4,150.9 184.5,150.8 184.6,150.7 184.6,150.6 
		184.7,150.5 184.8,150.4 184.8,150.3 184.9,150.2 185,150.1 185,150 185.1,149.9 185.1,149.8 185.2,149.7 185.3,149.6 185.3,149.5 
		185.4,149.4 185.4,149.3 185.5,149.2 185.6,149.1 185.6,149 185.7,148.9 185.7,148.8 185.8,148.7 185.9,148.6 185.9,148.5 
		186,148.4 186,148.3 186.1,148.2 186.1,148.1 186.2,148 186.3,147.9 186.3,147.8 186.4,147.7 186.4,147.6 186.5,147.5 186.5,147.4 
		186.6,147.3 186.6,147.2 186.7,147.1 186.7,147 186.8,146.9 186.9,146.8 186.9,146.7 187,146.6 187,146.5 187.1,146.4 187.1,146.3 
		187.2,146.2 187.2,146.1 187.3,146 187.3,145.9 187.4,145.8 187.4,145.7 187.5,145.6 187.5,145.5 187.6,145.4 187.8,145.3 	"/>
	<path class="st3" d="M219.6,198.4c-4.2-3.1-9.6-5.9-17.3-8.3"/>
	<polygon class="st4" points="130.3,111.6 130.3,111.6 130.3,111.7 130.3,111.7 130.3,111.7 130.3,111.8 130.4,111.8 130.4,111.8 
		130.4,111.9 130.4,111.9 130.4,111.9 130.5,112 130.5,112 130.5,112 130.5,112.1 130.6,112.1 130.6,112.1 130.6,112.2 130.6,112.2 
		130.7,112.2 130.7,112.3 130.7,112.3 130.7,112.3 130.8,112.4 130.8,112.4 130.8,112.4 130.8,112.5 130.9,112.5 130.9,112.5 
		130.9,112.6 131,112.6 131,112.6 131,112.6 131,112.7 131.1,112.7 131.1,112.7 131.1,112.8 131.2,112.8 131.2,112.8 131.2,112.9 
		131.2,112.9 131.3,112.9 131.3,112.9 131.3,113 131.4,113 131.4,113 131.4,113 131.5,113.1 131.5,113.1 131.5,113.1 131.6,113.2 
		131.6,113.2 131.6,113.2 131.7,113.2 131.7,113.3 131.7,113.3 131.8,113.3 131.8,113.3 131.8,113.4 131.9,113.4 131.9,113.4 
		131.9,113.4 132,113.5 132,113.5 132,113.5 132.1,113.5 132.1,113.5 132.1,113.6 132.2,113.6 132.2,113.6 132.2,113.6 132.3,113.7 
		132.3,113.7 132.4,113.7 132.4,113.7 132.4,113.7 132.5,113.8 132.5,113.8 132.5,113.8 132.6,113.8 132.6,113.8 132.7,113.9 
		132.7,113.9 132.7,113.9 132.8,113.9 132.8,113.9 132.9,114 132.9,114 132.9,114 133,114 133,114 133.1,114 133.1,114.1 
		133.1,114.1 133.2,114.1 133.2,114.1 133.3,114.1 133.3,114.1 133.3,114.2 133.4,114.2 133.4,114.2 133.5,114.2 133.5,114.2 
		133.5,114.2 133.6,114.2 133.6,114.3 133.7,114.3 133.7,114.3 133.8,114.3 133.8,114.3 133.8,114.3 133.9,114.3 133.9,114.3 
		134,114.4 134,114.4 134.1,114.4 134.1,114.4 134.1,114.4 134.2,114.4 134.2,114.4 134.3,114.4 134.3,114.4 134.4,114.4 
		134.4,114.5 134.4,114.5 134.5,114.5 134.5,114.5 134.6,114.5 134.6,114.5 134.7,114.5 134.8,114.7 134.6,114.8 134.6,114.8 
		134.5,114.8 134.5,114.8 134.4,114.8 134.4,114.8 134.4,114.8 134.3,114.8 134.3,114.8 134.2,114.8 134.2,114.8 134.1,114.8 
		134.1,114.8 134,114.8 134,114.8 133.9,114.8 133.9,114.8 133.8,114.7 133.8,114.7 133.7,114.7 133.7,114.7 133.7,114.7 
		133.6,114.7 133.6,114.7 133.5,114.7 133.5,114.7 133.4,114.7 133.4,114.7 133.3,114.7 133.3,114.6 133.2,114.6 133.2,114.6 
		133.2,114.6 133.1,114.6 133.1,114.6 133,114.6 133,114.6 132.9,114.6 132.9,114.5 132.8,114.5 132.8,114.5 132.7,114.5 
		132.7,114.5 132.7,114.5 132.6,114.5 132.6,114.4 132.5,114.4 132.5,114.4 132.4,114.4 132.4,114.4 132.3,114.4 132.3,114.3 
		132.3,114.3 132.2,114.3 132.2,114.3 132.1,114.3 132.1,114.3 132,114.2 132,114.2 132,114.2 131.9,114.2 131.9,114.2 131.8,114.1 
		131.8,114.1 131.7,114.1 131.7,114.1 131.7,114.1 131.6,114 131.6,114 131.5,114 131.5,114 131.4,114 131.4,113.9 131.4,113.9 
		131.3,113.9 131.3,113.9 131.2,113.8 131.2,113.8 131.2,113.8 131.1,113.8 131.1,113.7 131,113.7 131,113.7 131,113.7 130.9,113.6 
		130.9,113.6 130.9,113.6 130.8,113.5 130.8,113.5 130.7,113.5 130.7,113.5 130.7,113.4 130.6,113.4 130.6,113.4 130.5,113.3 
		130.5,113.3 130.5,113.3 130.4,113.3 130.4,113.2 130.4,113.2 130.3,113.2 130.3,113.1 130.3,113.1 130.2,113.1 130.2,113 
		130.2,113 130.1,113 130.1,112.9 130,112.9 130,112.9 130,112.8 129.9,112.8 129.9,112.8 129.9,112.7 129.8,112.7 129.8,112.7 
		129.8,112.6 129.8,112.6 129.7,112.5 129.7,112.5 129.7,112.5 129.6,112.4 129.6,112.4 129.6,112.4 129.5,112.3 129.5,112.3 
		129.5,112.2 129.4,112.2 129.4,112.2 129.4,112.2 129.3,111.8 129.6,111.5 129.6,111.5 129.9,111.4 	"/>
	<path class="st5" d="M140.3,19.9c14,0,32.3,9.1,35.7,22.5c0.6,2.4,4.9,14.1,1.9,26.1c-1.1,4.2-1.9,5.6-3.6,9.9
		c-1.9,4.8-4.5,7.3-7.7,11.7c-5.8,7.8-16,16.9-24.9,17.1c-8.2,0.2-19.8-7.7-24.8-15.2c-3.8-5.8-12.2-19.5-13.8-28.5
		c-0.8-4.3,3.4-4.9,3.4-8.5C106.5,32.3,120,19.9,140.3,19.9"/>
	<path class="st3" d="M140.3,19.9c14,0,32.3,9.1,35.7,22.5c0.6,2.4,4.9,14.1,1.9,26.1c-1.1,4.2-1.9,5.6-3.6,9.9
		c-1.9,4.8-4.5,7.3-7.7,11.7c-5.8,7.8-16,16.9-24.9,17.1c-8.2,0.2-19.8-7.7-24.8-15.2c-3.8-5.8-12.2-19.5-13.8-28.5
		c-0.8-4.3,3.4-4.9,3.4-8.5C106.5,32.3,120,19.9,140.3,19.9z"/>
	<polygon class="st4" points="173.1,64.3 173.1,64.3 173.1,64.3 173.1,64.3 173.2,64.4 173.2,64.4 173.2,64.4 173.2,64.4 
		173.3,64.4 173.3,64.4 173.3,64.4 173.3,64.4 173.4,64.4 173.4,64.4 173.4,64.4 173.4,64.4 173.5,64.4 173.5,64.4 173.5,64.4 
		173.5,64.5 173.6,64.5 173.6,64.5 173.6,64.5 173.6,64.5 173.6,64.5 173.7,64.5 173.7,64.5 173.7,64.6 173.7,64.6 173.7,64.6 
		173.8,64.6 173.8,64.6 173.8,64.6 173.8,64.6 173.8,64.7 173.9,64.7 173.9,64.7 173.9,64.7 173.9,64.7 173.9,64.8 173.9,64.8 
		173.9,64.8 174,64.8 174,64.8 174,64.9 174,64.9 174,64.9 174,64.9 174,65 174,65 174.1,65 174.1,65 174.1,65 174.1,65.1 
		174.1,65.1 174.1,65.1 174.1,65.1 174.1,65.2 174.1,65.2 174.1,65.2 174.1,65.2 174.1,65.3 174.1,65.3 174.2,65.3 174.2,65.3 
		174.2,65.4 174.2,65.4 174.2,65.4 174.2,65.4 174.2,65.5 174.2,65.5 174.2,65.5 174.2,65.6 174.2,65.6 174.2,65.6 174.2,65.6 
		174.2,65.7 174.2,65.7 174.2,65.7 174.2,65.7 174.2,65.8 174.2,65.8 174.2,65.8 174.2,65.9 174.2,65.9 174.2,65.9 174.1,65.9 
		174.1,66 174.1,66 174.1,66 174.1,66.1 174.1,66.1 174.1,66.1 174.1,66.2 174.1,66.2 174.1,66.2 174.1,66.2 174.1,66.3 174.1,66.3 
		174.1,66.3 174,66.4 174,66.4 174,66.4 174,66.5 174,66.5 174,66.5 174,66.6 174,66.6 174,66.6 173.9,66.6 173.9,66.7 173.9,66.7 
		173.9,66.7 173.9,66.8 173.9,66.8 173.9,66.8 173.8,66.9 173.8,66.9 173.8,66.9 173.8,67 173.8,67 173.8,67 173.7,67.1 173.7,67.1 
		173.7,67.1 173.7,67.2 173.7,67.2 173.6,67.2 173.6,67.3 173.6,67.3 173.6,67.3 173.5,67.4 173.5,67.4 173.5,67.4 173.5,67.5 
		173.5,67.5 173.4,67.5 173.4,67.6 173.4,67.6 173.4,67.6 173.3,67.7 173.3,67.7 173.3,67.7 173.2,67.8 173.2,67.8 173.2,67.8 
		173.2,67.9 173.1,67.9 173.1,68 173.1,68 173,68 173,68.1 173,68.1 173,68.1 172.9,68.2 172.9,68.2 172.9,68.2 172.8,68.3 
		172.8,68.3 172.8,68.3 172.7,68.4 172.7,68.4 172.7,68.4 172.6,68.5 172.6,68.5 172.5,68.5 172.5,68.6 172.5,68.6 172.4,68.7 
		172.4,68.7 172.3,68.7 172.3,68.8 172.3,68.8 172.2,68.8 172.2,68.9 172.1,68.9 172.1,68.9 172.1,69 172,69 172,69 171.9,69.1 
		171.9,69.1 171.8,69.1 171.8,69.2 171.8,69.2 171.7,69.3 171.7,69.3 171.6,69.3 171.6,69.4 171.5,69.4 171.5,69.4 171.4,69.5 
		171.4,69.5 171.3,69.5 171.3,69.6 171.2,69.6 171.2,69.6 171.1,69.7 171.1,69.7 171,69.7 170.9,69.8 170.9,69.8 170.8,69.8 
		170.6,69.8 170.6,69.5 170.7,69.5 170.7,69.4 170.8,69.4 170.8,69.4 170.9,69.3 170.9,69.3 171,69.3 171,69.2 171.1,69.2 
		171.1,69.2 171.2,69.1 171.2,69.1 171.3,69 171.3,69 171.3,69 171.4,68.9 171.4,68.9 171.5,68.9 171.5,68.8 171.6,68.8 171.6,68.8 
		171.6,68.7 171.7,68.7 171.7,68.7 171.8,68.6 171.8,68.6 171.8,68.6 171.9,68.5 171.9,68.5 172,68.4 172,68.4 172,68.4 172.1,68.3 
		172.1,68.3 172.1,68.3 172.2,68.2 172.2,68.2 172.2,68.2 172.3,68.1 172.3,68.1 172.3,68.1 172.4,68 172.4,68 172.4,68 172.5,67.9 
		172.5,67.9 172.5,67.9 172.5,67.8 172.6,67.8 172.6,67.8 172.6,67.7 172.7,67.7 172.7,67.7 172.7,67.6 172.7,67.6 172.8,67.6 
		172.8,67.5 172.8,67.5 172.8,67.5 172.9,67.4 172.9,67.4 172.9,67.4 172.9,67.3 172.9,67.3 173,67.3 173,67.2 173,67.2 173,67.2 
		173,67.1 173.1,67.1 173.1,67.1 173.1,67 173.1,67 173.1,67 173.2,67 173.2,66.9 173.2,66.9 173.2,66.9 173.2,66.8 173.2,66.8 
		173.2,66.8 173.3,66.7 173.3,66.7 173.3,66.7 173.3,66.7 173.3,66.6 173.3,66.6 173.3,66.6 173.4,66.5 173.4,66.5 173.4,66.5 
		173.4,66.5 173.4,66.4 173.4,66.4 173.4,66.4 173.4,66.3 173.4,66.3 173.4,66.3 173.5,66.3 173.5,66.2 173.5,66.2 173.5,66.2 
		173.5,66.2 173.5,66.1 173.5,66.1 173.5,66.1 173.5,66.1 173.5,66 173.5,66 173.5,66 173.5,66 173.5,65.9 173.5,65.9 173.5,65.9 
		173.5,65.9 173.5,65.9 173.5,65.8 173.5,65.8 173.5,65.8 173.5,65.8 173.5,65.8 173.6,65.7 173.6,65.7 173.6,65.7 173.6,65.7 
		173.6,65.7 173.6,65.6 173.6,65.6 173.5,65.6 173.5,65.6 173.5,65.6 173.5,65.5 173.5,65.5 173.5,65.5 173.5,65.5 173.5,65.5 
		173.5,65.5 173.5,65.4 173.5,65.4 173.5,65.4 173.5,65.4 173.5,65.4 173.5,65.4 173.5,65.4 173.5,65.4 173.5,65.3 173.5,65.3 
		173.5,65.3 173.5,65.3 173.5,65.3 173.5,65.3 173.5,65.3 173.5,65.3 173.5,65.2 173.5,65.2 173.4,65.2 173.4,65.2 173.4,65.2 
		173.4,65.2 173.4,65.2 173.4,65.2 173.4,65.2 173.4,65.2 173.4,65.2 173.4,65.2 173.4,65.1 173.4,65.1 173.4,65.1 173.4,65.1 
		173.4,65.1 173.3,65.1 173.3,65.1 173.3,65.1 173.3,65.1 173.3,65.1 173.3,65.1 173.3,65.1 173.3,65.1 173.3,65.1 173.3,65.1 
		173.3,65.1 173.3,65.1 173.3,65.1 173.2,65.1 173.2,65.1 173.2,65.1 173.2,65 173.2,65 173.2,65 173.2,65 173.2,65 173.2,65 
		173.2,65 173.1,65 173.1,65 173.1,65 173.1,65 173.1,65 173.1,65 173.1,65 173.1,65 173,65 173,65 173,65 173,65 173,65 173,65 
		173,65 172.9,65 172.9,65 172.9,65 172.9,65 172.9,65 172.9,65.1 172.8,65.1 172.8,65.1 172.8,65.1 172.8,65.1 172.8,65.1 
		172.8,65.1 172.7,65.1 172.7,65.1 172.7,65.1 172.7,65.1 172.7,65.1 172.6,65.1 172.6,65.1 172.6,65.1 172.6,65.2 172.6,65.2 
		172.5,65.2 172.5,65.2 172.5,65.2 172.5,65.2 172.4,65.2 172.4,65.2 172.4,65.2 172.4,65.3 172.4,65.3 172.3,65.3 172.3,65.3 
		172.3,65.3 172.3,65.3 172.2,65.4 172.2,65.4 172.2,65.4 172.2,65.4 172.1,65.4 172.1,65.4 172.1,65.5 172.1,65.5 172,65.5 
		172,65.5 172,65.5 172,65.6 171.9,65.6 171.9,65.6 171.7,65.7 171.4,65.5 171.4,65.5 171.4,65.5 171.3,65.3 171.5,65 171.5,65 
		171.5,65 171.6,64.9 171.6,64.9 171.6,64.9 171.6,64.9 171.7,64.8 171.7,64.8 171.7,64.8 171.8,64.8 171.8,64.8 171.8,64.7 
		171.9,64.7 171.9,64.7 171.9,64.7 172,64.7 172,64.6 172,64.6 172,64.6 172.1,64.6 172.1,64.6 172.1,64.6 172.2,64.6 172.2,64.5 
		172.2,64.5 172.3,64.5 172.3,64.5 172.3,64.5 172.3,64.5 172.4,64.5 172.4,64.5 172.4,64.4 172.5,64.4 172.5,64.4 172.5,64.4 
		172.6,64.4 172.6,64.4 172.6,64.4 172.6,64.4 172.7,64.4 172.7,64.4 172.7,64.4 172.7,64.4 172.8,64.4 172.8,64.4 172.8,64.4 
		172.9,64.4 172.9,64.3 172.9,64.3 172.9,64.3 173,64.3 173,64.3 173,64.3 	"/>
	<polygon class="st4" points="109.5,65.7 109.2,65.6 109.2,65.6 109.2,65.6 109.1,65.6 109.1,65.6 109.1,65.5 109.1,65.5 109,65.5 
		109,65.5 109,65.5 109,65.4 108.9,65.4 108.9,65.4 108.9,65.4 108.9,65.4 108.8,65.3 108.8,65.3 108.8,65.3 108.8,65.3 108.7,65.3 
		108.7,65.3 108.7,65.3 108.7,65.2 108.7,65.2 108.6,65.2 108.6,65.2 108.6,65.2 108.6,65.2 108.5,65.2 108.5,65.2 108.5,65.1 
		108.5,65.1 108.5,65.1 108.4,65.1 108.4,65.1 108.4,65.1 108.4,65.1 108.4,65.1 108.3,65.1 108.3,65.1 108.3,65.1 108.3,65.1 
		108.3,65.1 108.3,65.1 108.2,65.1 108.2,65 108.2,65 108.2,65 108.2,65 108.2,65 108.2,65 108.1,65 108.1,65 108.1,65 108.1,65 
		108.1,65 108.1,65 108.1,65 108,65 108,65 108,65 108,65 108,65 108,65 108,65 108,65 108,65 107.9,65 107.9,65 107.9,65 
		107.9,65.1 107.9,65.1 107.9,65.1 107.9,65.1 107.9,65.1 107.9,65.1 107.9,65.1 107.9,65.1 107.9,65.1 107.8,65.1 107.8,65.1 
		107.8,65.1 107.8,65.1 107.8,65.1 107.8,65.1 107.8,65.1 107.8,65.1 107.8,65.1 107.8,65.1 107.8,65.1 107.8,65.2 107.8,65.2 
		107.7,65.2 107.7,65.2 107.7,65.2 107.7,65.2 107.7,65.2 107.7,65.2 107.7,65.2 107.7,65.2 107.7,65.2 107.7,65.3 107.7,65.3 
		107.7,65.3 107.7,65.3 107.7,65.3 107.7,65.3 107.7,65.3 107.6,65.3 107.6,65.4 107.6,65.4 107.6,65.4 107.6,65.4 107.6,65.4 
		107.6,65.4 107.6,65.4 107.6,65.5 107.6,65.5 107.6,65.5 107.6,65.5 107.6,65.5 107.6,65.6 107.6,65.6 107.6,65.6 107.6,65.6 
		107.6,65.6 107.6,65.6 107.6,65.7 107.6,65.7 107.6,65.7 107.6,65.7 107.6,65.8 107.6,65.8 107.6,65.8 107.6,65.8 107.6,65.8 
		107.6,65.9 107.6,65.9 107.6,65.9 107.6,65.9 107.6,66 107.6,66 107.6,66 107.6,66 107.6,66.1 107.6,66.1 107.6,66.1 107.6,66.1 
		107.6,66.2 107.6,66.2 107.6,66.2 107.6,66.2 107.6,66.3 107.6,66.3 107.6,66.3 107.7,66.4 107.7,66.4 107.7,66.4 107.7,66.4 
		107.7,66.5 107.7,66.5 107.7,66.5 107.7,66.6 107.7,66.6 107.7,66.6 107.7,66.7 107.8,66.7 107.8,66.7 107.8,66.7 107.8,66.8 
		107.8,66.8 107.8,66.8 107.8,66.9 107.8,66.9 107.9,66.9 107.9,67 107.9,67 107.9,67 107.9,67.1 107.9,67.1 107.9,67.1 108,67.2 
		108,67.2 108,67.2 108,67.3 108,67.3 108.1,67.3 108.1,67.4 108.1,67.4 108.1,67.4 108.1,67.5 108.2,67.5 108.2,67.5 108.2,67.6 
		108.2,67.6 108.2,67.7 108.3,67.7 108.3,67.7 108.3,67.8 108.3,67.8 108.4,67.8 108.4,67.9 108.4,67.9 108.4,67.9 108.5,68 
		108.5,68 108.5,68.1 108.5,68.1 108.6,68.1 108.6,68.2 108.6,68.2 108.7,68.2 108.7,68.3 108.7,68.3 108.7,68.4 108.8,68.4 
		108.8,68.4 108.8,68.5 108.9,68.5 108.9,68.5 108.9,68.6 109,68.6 109,68.7 109,68.7 109.1,68.7 109.1,68.8 109.1,68.8 109.2,68.9 
		109.2,68.9 109.3,68.9 109.3,69 109.3,69 109.4,69 109.4,69.1 109.5,69.1 109.5,69.2 109.5,69.2 109.6,69.2 109.6,69.3 109.7,69.3 
		109.7,69.4 109.7,69.4 109.8,69.4 109.8,69.5 109.9,69.5 109.9,69.5 110,69.6 110,69.6 110.1,69.7 110.1,69.7 110.2,69.7 
		110.2,69.8 110.3,69.8 110.3,69.9 110.4,69.9 110.4,69.9 110.5,70 110.5,70 110.6,70.3 110.3,70.3 110.2,70.3 110.2,70.3 
		110.1,70.2 110.1,70.2 110,70.1 110,70.1 109.9,70.1 109.9,70 109.8,70 109.8,70 109.7,69.9 109.7,69.9 109.6,69.8 109.6,69.8 
		109.5,69.8 109.5,69.7 109.4,69.7 109.4,69.6 109.3,69.6 109.3,69.6 109.2,69.5 109.2,69.5 109.1,69.5 109.1,69.4 109.1,69.4 
		109,69.3 109,69.3 108.9,69.3 108.9,69.2 108.9,69.2 108.8,69.1 108.8,69.1 108.7,69.1 108.7,69 108.7,69 108.6,68.9 108.6,68.9 
		108.5,68.9 108.5,68.8 108.5,68.8 108.4,68.8 108.4,68.7 108.4,68.7 108.3,68.6 108.3,68.6 108.3,68.6 108.2,68.5 108.2,68.5 
		108.2,68.4 108.1,68.4 108.1,68.4 108.1,68.3 108,68.3 108,68.3 108,68.2 108,68.2 107.9,68.1 107.9,68.1 107.9,68.1 107.8,68 
		107.8,68 107.8,68 107.8,67.9 107.7,67.9 107.7,67.8 107.7,67.8 107.7,67.8 107.6,67.7 107.6,67.7 107.6,67.7 107.6,67.6 
		107.6,67.6 107.5,67.5 107.5,67.5 107.5,67.5 107.5,67.4 107.4,67.4 107.4,67.4 107.4,67.3 107.4,67.3 107.4,67.2 107.4,67.2 
		107.3,67.2 107.3,67.1 107.3,67.1 107.3,67.1 107.3,67 107.3,67 107.2,67 107.2,66.9 107.2,66.9 107.2,66.9 107.2,66.8 107.2,66.8 
		107.2,66.8 107.1,66.7 107.1,66.7 107.1,66.7 107.1,66.6 107.1,66.6 107.1,66.5 107.1,66.5 107.1,66.5 107.1,66.4 107.1,66.4 
		107,66.4 107,66.4 107,66.3 107,66.3 107,66.3 107,66.2 107,66.2 107,66.2 107,66.1 107,66.1 107,66.1 107,66 107,66 107,66 
		107,65.9 107,65.9 107,65.9 107,65.8 107,65.8 107,65.8 107,65.8 107,65.7 107,65.7 107,65.7 107,65.6 107,65.6 107,65.6 107,65.6 
		107,65.5 107,65.5 107,65.5 107,65.4 107,65.4 107,65.4 107,65.4 107,65.3 107,65.3 107,65.3 107,65.3 107,65.2 107,65.2 107,65.2 
		107,65.2 107,65.1 107,65.1 107.1,65.1 107.1,65.1 107.1,65 107.1,65 107.1,65 107.1,65 107.1,64.9 107.1,64.9 107.1,64.9 
		107.2,64.9 107.2,64.8 107.2,64.8 107.2,64.8 107.2,64.8 107.2,64.8 107.2,64.7 107.3,64.7 107.3,64.7 107.3,64.7 107.3,64.7 
		107.3,64.6 107.4,64.6 107.4,64.6 107.4,64.6 107.4,64.6 107.4,64.6 107.5,64.5 107.5,64.5 107.5,64.5 107.5,64.5 107.5,64.5 
		107.6,64.5 107.6,64.5 107.6,64.5 107.6,64.4 107.7,64.4 107.7,64.4 107.7,64.4 107.7,64.4 107.8,64.4 107.8,64.4 107.8,64.4 
		107.8,64.4 107.9,64.4 107.9,64.4 107.9,64.4 107.9,64.4 108,64.3 108,64.3 108,64.3 108.1,64.3 108.1,64.3 108.1,64.3 108.1,64.3 
		108.2,64.3 108.2,64.3 108.2,64.3 108.2,64.3 108.3,64.4 108.3,64.4 108.3,64.4 108.4,64.4 108.4,64.4 108.4,64.4 108.4,64.4 
		108.5,64.4 108.5,64.4 108.5,64.4 108.6,64.4 108.6,64.4 108.6,64.4 108.6,64.4 108.7,64.4 108.7,64.5 108.7,64.5 108.8,64.5 
		108.8,64.5 108.8,64.5 108.9,64.5 108.9,64.5 108.9,64.5 108.9,64.6 109,64.6 109,64.6 109,64.6 109.1,64.6 109.1,64.6 109.1,64.7 
		109.2,64.7 109.2,64.7 109.2,64.7 109.2,64.7 109.3,64.8 109.3,64.8 109.3,64.8 109.4,64.8 109.4,64.8 109.4,64.9 109.5,64.9 
		109.5,64.9 109.5,64.9 109.6,65 109.6,65 109.6,65 109.7,65 109.7,65.1 109.7,65.1 109.8,65.3 109.7,65.6 109.7,65.6 109.7,65.6 	
		"/>
	<path class="st6" d="M142.9,76.5c4.6-0.6,5.2-3.3,2.9-4.8"/>
	<polygon class="st4" points="128,87.5 128,87.5 128.1,87.5 128.1,87.4 128.1,87.4 128.2,87.4 128.2,87.4 128.2,87.3 128.3,87.3 
		128.3,87.3 128.3,87.2 128.4,87.2 128.4,87.1 128.5,87.1 128.5,87.1 128.5,87 128.6,87 128.6,87 128.6,86.9 128.6,86.9 128.7,86.9 
		128.7,86.9 128.7,86.9 128.7,86.8 128.7,86.8 128.7,86.8 128.8,86.8 128.8,86.7 128.8,86.7 128.8,86.7 128.8,86.7 128.9,86.7 
		128.9,86.6 128.9,86.6 128.9,86.6 128.9,86.6 128.9,86.6 129,86.5 129,86.5 129,86.5 129,86.5 129,86.4 129,86.4 129.1,86.4 
		129.1,86.4 129.1,86.3 129.1,86.3 129.1,86.3 129.1,86.3 129.2,86.3 129.2,86.2 129.2,86.2 129.2,86.2 129.2,86.2 129.2,86.1 
		129.2,86.1 129.2,86.1 129.3,86.1 129.3,86.1 129.3,86 129.3,86 129.3,86 129.3,86 129.4,85.9 129.4,85.9 129.4,85.9 129.4,85.9 
		129.4,85.8 129.4,85.8 129.4,85.8 129.5,85.8 129.5,85.8 129.5,85.7 129.5,85.7 129.5,85.7 129.5,85.7 129.6,85.6 129.6,85.6 
		129.6,85.6 129.6,85.6 129.6,85.6 129.6,85.5 129.6,85.5 129.7,85.5 129.7,85.4 129.7,85.4 129.7,85.4 129.7,85.4 129.7,85.3 
		129.7,85.3 129.8,85.3 129.8,85.3 129.8,85.2 129.8,85.2 129.8,85.2 129.8,85.1 129.9,85.1 129.9,85.1 129.9,85 129.9,85 129.9,85 
		129.9,84.9 129.9,84.9 130,84.9 130,84.8 130,84.8 130,84.8 130,84.7 130,84.7 130.1,84.6 130.1,84.6 130.1,84.6 130.1,84.5 
		130.1,84.5 130.1,84.5 130.1,84.4 130.2,84.4 130.2,84.3 130.2,84.3 130.2,84.2 130.2,84.2 130.2,84.2 130.4,84 130.6,84.2 
		130.6,84.2 130.6,84.3 130.6,84.3 130.6,84.4 130.6,84.4 130.6,84.5 130.6,84.5 130.6,84.6 130.6,84.6 130.6,84.7 130.6,84.7 
		130.6,84.7 130.6,84.8 130.6,84.8 130.6,84.9 130.6,84.9 130.6,85 130.6,85 130.6,85.1 130.6,85.1 130.6,85.1 130.6,85.2 
		130.6,85.2 130.6,85.3 130.6,85.3 130.6,85.3 130.6,85.4 130.6,85.4 130.6,85.5 130.6,85.5 130.6,85.6 130.5,85.6 130.5,85.6 
		130.5,85.6 130.5,85.7 130.5,85.7 130.5,85.8 130.5,85.8 130.5,85.8 130.5,85.9 130.5,85.9 130.4,86 130.4,86 130.4,86 130.4,86 
		130.4,86.1 130.4,86.1 130.4,86.2 130.3,86.2 130.3,86.2 130.3,86.3 130.3,86.3 130.3,86.3 130.3,86.3 130.3,86.4 130.2,86.4 
		130.2,86.4 130.2,86.4 130.2,86.5 130.2,86.5 130.2,86.5 130.1,86.6 130.1,86.6 130.1,86.6 130.1,86.7 130,86.7 130,86.7 130,86.7 
		130,86.8 130,86.8 130,86.8 129.9,86.8 129.9,86.8 129.9,86.9 129.9,86.9 129.8,86.9 129.8,86.9 129.8,87 129.8,87 129.7,87 
		129.7,87 129.7,87.1 129.7,87.1 129.6,87.1 129.6,87.1 129.6,87.1 129.6,87.2 129.6,87.2 129.5,87.2 129.5,87.2 129.5,87.2 
		129.4,87.3 129.4,87.3 129.4,87.3 129.4,87.3 129.3,87.3 129.3,87.4 129.3,87.4 129.3,87.4 129.2,87.4 129.2,87.4 129.2,87.4 
		129.2,87.4 129.1,87.5 129.1,87.5 129.1,87.5 129,87.5 129,87.5 129,87.5 128.9,87.6 128.9,87.6 128.8,87.6 128.8,87.6 128.7,87.7 
		128.7,87.7 128.6,87.7 128.5,87.7 128.5,87.8 128.4,87.8 128.4,87.8 128.4,87.8 128.3,87.8 128.3,87.8 128.2,87.9 128.2,87.9 
		128.2,87.9 127.9,87.8 128,87.5 	"/>
	<polygon class="st4" points="132.3,73.9 132.3,73.9 132.3,73.9 132.3,73.9 132.3,73.9 132.3,73.8 132.4,73.8 132.4,73.8 
		132.4,73.8 132.4,73.8 132.4,73.8 132.4,73.7 132.5,73.7 132.5,73.7 132.5,73.7 132.5,73.7 132.5,73.6 132.5,73.6 132.6,73.6 
		132.6,73.6 132.6,73.6 132.6,73.6 132.6,73.5 132.6,73.5 132.7,73.5 132.7,73.5 132.7,73.4 132.7,73.4 132.7,73.4 132.7,73.4 
		132.8,73.4 132.8,73.3 132.8,73.3 132.8,73.3 132.8,73.3 132.8,73.3 132.8,73.2 132.8,73.2 132.9,73.2 132.9,73.2 132.9,73.2 
		132.9,73.1 132.9,73.1 132.9,73.1 133,73.1 133,73 133,73 133,73 133,73 133,72.9 133,72.9 133.1,72.9 133.1,72.9 133.1,72.8 
		133.1,72.8 133.1,72.8 133.1,72.8 133.1,72.8 133.1,72.7 133.2,72.7 133.2,72.7 133.2,72.6 133.2,72.6 133.2,72.6 133.2,72.6 
		133.2,72.5 133.3,72.5 133.3,72.5 133.3,72.5 133.3,72.5 133.3,72.4 133.3,72.4 133.3,72.4 133.3,72.3 133.4,72.3 133.4,72.3 
		133.4,72.3 133.4,72.3 133.4,72.2 133.4,72.2 133.4,72.2 133.5,72.1 133.5,72.1 133.5,72.1 133.5,72.1 133.5,72 133.5,72 133.6,72 
		133.6,71.9 133.6,71.9 133.6,71.9 133.6,71.9 133.6,71.8 133.7,71.8 133.7,71.8 133.7,71.7 133.7,71.7 133.7,71.7 133.7,71.6 
		133.8,71.6 133.8,71.6 133.8,71.5 133.8,71.5 133.8,71.5 133.8,71.5 133.9,71.4 133.9,71.4 133.9,71.4 133.9,71.3 133.9,71.3 
		133.9,71.2 134,71.2 134,71.2 134,71.1 134,71.1 134,71.1 134,71 134,71 134.1,71 134.1,70.9 134.1,70.9 134.1,70.9 134.1,70.8 
		134.1,70.8 134.1,70.8 134.1,70.7 134.2,70.7 134.2,70.7 134.2,70.6 134.2,70.6 134.2,70.5 134.2,70.5 134.2,70.5 134.3,70.4 
		134.5,70.2 134.6,70.4 134.6,70.5 134.6,70.5 134.6,70.5 134.6,70.6 134.6,70.6 134.6,70.7 134.7,70.7 134.7,70.8 134.7,70.8 
		134.7,70.9 134.7,70.9 134.7,70.9 134.7,70.9 134.7,71 134.7,71 134.7,71.1 134.7,71.1 134.7,71.2 134.7,71.2 134.7,71.3 
		134.7,71.3 134.7,71.3 134.6,71.4 134.6,71.4 134.6,71.5 134.6,71.5 134.6,71.5 134.6,71.6 134.6,71.6 134.6,71.6 134.6,71.7 
		134.6,71.7 134.6,71.8 134.6,71.8 134.6,71.9 134.6,71.9 134.6,71.9 134.6,71.9 134.6,72 134.5,72 134.5,72.1 134.5,72.1 
		134.5,72.1 134.5,72.2 134.5,72.2 134.5,72.2 134.5,72.3 134.5,72.3 134.4,72.3 134.4,72.4 134.4,72.4 134.4,72.5 134.4,72.5 
		134.4,72.5 134.4,72.5 134.4,72.6 134.3,72.6 134.3,72.6 134.3,72.6 134.3,72.7 134.3,72.7 134.3,72.7 134.3,72.8 134.3,72.8 
		134.2,72.8 134.2,72.8 134.2,72.9 134.2,72.9 134.2,72.9 134.1,72.9 134.1,73 134.1,73 134.1,73 134.1,73 134.1,73.1 134,73.1 
		134,73.1 134,73.2 134,73.2 133.9,73.2 133.9,73.2 133.9,73.3 133.9,73.3 133.8,73.3 133.8,73.3 133.8,73.3 133.8,73.4 133.8,73.4 
		133.7,73.4 133.7,73.4 133.7,73.5 133.7,73.5 133.6,73.5 133.6,73.5 133.6,73.6 133.6,73.6 133.5,73.6 133.5,73.6 133.5,73.6 
		133.5,73.7 133.5,73.7 133.4,73.7 133.4,73.7 133.4,73.7 133.4,73.8 133.3,73.8 133.3,73.8 133.3,73.8 133.3,73.8 133.2,73.8 
		133.2,73.9 133.2,73.9 133.2,73.9 133.1,73.9 133.1,73.9 133.1,73.9 133.1,74 133,74 133,74 133,74 133,74 132.9,74 132.9,74 
		132.9,74.1 132.9,74.1 132.8,74.1 132.8,74.1 132.8,74.1 132.8,74.1 132.7,74.1 132.7,74.1 132.7,74.2 132.7,74.2 132.7,74.2 
		132.6,74.2 132.6,74.2 132.6,74.2 132.6,74.2 132.5,74.2 132.5,74.2 132.5,74.2 132.5,74.2 132.5,74.2 132.2,74.2 132.3,73.9 	"/>
	<polygon class="st4" points="148.3,70.4 148.3,70.4 148.3,70.5 148.4,70.5 148.4,70.6 148.4,70.6 148.4,70.6 148.4,70.7 
		148.4,70.7 148.4,70.7 148.4,70.8 148.4,70.8 148.5,70.9 148.5,70.9 148.5,71 148.5,71 148.5,71.1 148.5,71.1 148.5,71.1 
		148.6,71.2 148.6,71.2 148.6,71.3 148.6,71.3 148.6,71.3 148.6,71.3 148.6,71.4 148.6,71.4 148.6,71.4 148.7,71.4 148.7,71.4 
		148.7,71.5 148.7,71.5 148.7,71.5 148.7,71.5 148.7,71.6 148.7,71.6 148.7,71.6 148.7,71.6 148.8,71.6 148.8,71.6 148.8,71.7 
		148.8,71.7 148.8,71.7 148.8,71.7 148.8,71.7 148.8,71.8 148.8,71.8 148.8,71.8 148.9,71.8 148.9,71.9 148.9,71.9 148.9,71.9 
		148.9,71.9 148.9,71.9 148.9,71.9 148.9,72 148.9,72 148.9,72 149,72 149,72 149,72.1 149,72.1 149,72.1 149,72.1 149,72.1 
		149,72.2 149,72.2 149,72.2 149.1,72.2 149.1,72.2 149.1,72.3 149.1,72.3 149.1,72.3 149.1,72.3 149.1,72.3 149.1,72.4 149.1,72.4 
		149.2,72.4 149.2,72.4 149.2,72.5 149.2,72.5 149.2,72.5 149.2,72.5 149.2,72.5 149.2,72.6 149.3,72.6 149.3,72.6 149.3,72.6 
		149.3,72.7 149.3,72.7 149.3,72.7 149.3,72.7 149.3,72.7 149.4,72.8 149.4,72.8 149.4,72.8 149.4,72.8 149.4,72.9 149.4,72.9 
		149.5,72.9 149.5,72.9 149.5,73 149.5,73 149.5,73 149.6,73 149.6,73.1 149.6,73.1 149.6,73.1 149.6,73.2 149.7,73.2 149.7,73.2 
		149.7,73.2 149.7,73.3 149.7,73.3 149.8,73.3 149.8,73.3 149.8,73.4 149.8,73.4 149.9,73.4 149.9,73.5 149.9,73.5 150,73.5 
		150,73.6 150,73.6 150,73.8 149.8,73.9 149.8,73.9 149.7,73.9 149.7,73.8 149.7,73.8 149.6,73.8 149.6,73.8 149.5,73.8 149.5,73.8 
		149.4,73.7 149.4,73.7 149.4,73.7 149.4,73.7 149.3,73.7 149.3,73.7 149.2,73.6 149.2,73.6 149.2,73.6 149.1,73.6 149.1,73.6 
		149.1,73.5 149,73.5 149,73.5 149,73.5 148.9,73.4 148.9,73.4 148.9,73.4 148.9,73.4 148.8,73.4 148.8,73.3 148.8,73.3 148.7,73.3 
		148.7,73.3 148.7,73.2 148.7,73.2 148.6,73.2 148.6,73.2 148.6,73.2 148.6,73.1 148.5,73.1 148.5,73.1 148.5,73.1 148.5,73 
		148.4,73 148.4,73 148.4,73 148.4,72.9 148.4,72.9 148.3,72.9 148.3,72.9 148.3,72.8 148.3,72.8 148.2,72.8 148.2,72.8 148.2,72.7 
		148.2,72.7 148.2,72.7 148.2,72.7 148.2,72.7 148.1,72.6 148.1,72.6 148.1,72.6 148.1,72.5 148.1,72.5 148.1,72.5 148.1,72.5 
		148.1,72.4 148,72.4 148,72.4 148,72.4 148,72.3 148,72.3 148,72.3 148,72.2 148,72.2 148,72.2 148,72.2 148,72.2 147.9,72.1 
		147.9,72.1 147.9,72.1 147.9,72 147.9,72 147.9,72 147.9,71.9 147.9,71.9 147.9,71.9 147.9,71.9 147.9,71.8 147.9,71.8 147.9,71.8 
		147.9,71.7 147.9,71.7 147.9,71.7 147.9,71.7 147.9,71.6 147.9,71.6 147.9,71.6 147.9,71.5 147.9,71.5 147.9,71.5 147.9,71.5 
		147.9,71.4 147.9,71.4 147.9,71.3 147.9,71.3 147.9,71.2 147.9,71.2 147.9,71.2 147.9,71.1 147.9,71 147.9,71 147.9,70.9 
		147.9,70.9 147.9,70.8 147.9,70.8 147.9,70.7 147.9,70.7 147.9,70.6 147.9,70.6 147.9,70.6 147.9,70.5 147.9,70.5 148,70.4 
		148,70.4 148.1,70.2 	"/>
</g>
<g>
	<defs>
		<path id="SVGID_7_" d="M122.4,61.6c4.4,0.7,8.5,0.7,12.5,0.1c-0.1-1.6-0.4-3.4-2.4-3.9c-0.7-0.2-1.6-0.3-2.5-0.3
			C126.4,57.4,121.8,59,122.4,61.6"/>
	</defs>
	<clipPath id="SVGID_8_">
		<use xlink:href="#SVGID_7_"  style="overflow:visible;"/>
	</clipPath>
	<path class="st7" d="M128.6,57.1c1.8,0,3.2,1.3,3.2,3s-1.4,3-3.2,3c-1.8,0-3.2-1.3-3.2-3S126.9,57.1,128.6,57.1"/>
	<path class="st8" d="M130.3,58.6c0.3,0,0.6,0.3,0.6,0.6c0,0.3-0.3,0.6-0.6,0.6c-0.3,0-0.6-0.3-0.6-0.6
		C129.7,58.9,130,58.6,130.3,58.6"/>
</g>
<g>
	<defs>
		<rect id="SVGID_9_" width="283.5" height="283.5"/>
	</defs>
	<clipPath id="SVGID_10_">
		<use xlink:href="#SVGID_9_"  style="overflow:visible;"/>
	</clipPath>
	<path class="st9" d="M122.4,61.6c4.4,0.7,8.5,0.7,12.5,0.1c-0.1-1.6-0.4-3.4-2.4-3.9C128.9,56.8,121.7,58.4,122.4,61.6z"/>
</g>
<g>
	<defs>
		<path id="SVGID_11_" d="M149.2,57.9c-2.1,0.6-2.4,2.4-2.5,4c4.1,0.6,8.4,0.7,12.9-0.1c0.6-2.7-4.1-4.3-7.9-4.3
			C150.8,57.6,150,57.7,149.2,57.9"/>
	</defs>
	<clipPath id="SVGID_12_">
		<use xlink:href="#SVGID_11_"  style="overflow:visible;"/>
	</clipPath>
	<path class="st10" d="M152.8,57.3c1.8,0,3.3,1.4,3.3,3.1c0,1.7-1.5,3.1-3.3,3.1c-1.8,0-3.3-1.4-3.3-3.1
		C149.4,58.7,150.9,57.3,152.8,57.3"/>
	<path class="st11" d="M154.5,58.9c0.4,0,0.6,0.3,0.6,0.6c0,0.3-0.3,0.6-0.6,0.6c-0.4,0-0.6-0.3-0.6-0.6
		C153.9,59.2,154.2,58.9,154.5,58.9"/>
</g>
<g>
	<defs>
		<rect id="SVGID_13_" width="283.5" height="283.5"/>
	</defs>
	<clipPath id="SVGID_14_">
		<use xlink:href="#SVGID_13_"  style="overflow:visible;"/>
	</clipPath>
	<path class="st12" d="M159.7,61.9c-4.5,0.8-8.8,0.7-12.9,0.1c0.1-1.6,0.4-3.5,2.5-4C153,56.9,160.4,58.6,159.7,61.9z"/>
	<polygon class="st13" points="152,84.2 152,84.2 152,84.2 152,84.3 152,84.3 152.1,84.4 152.1,84.4 152.1,84.4 152.1,84.5 
		152.1,84.5 152.2,84.6 152.2,84.6 152.2,84.7 152.2,84.7 152.3,84.8 152.3,84.8 152.3,84.9 152.4,84.9 152.4,84.9 152.4,85 
		152.4,85 152.4,85 152.4,85 152.5,85 152.5,85.1 152.5,85.1 152.5,85.1 152.5,85.1 152.5,85.2 152.5,85.2 152.6,85.2 152.6,85.2 
		152.6,85.2 152.6,85.2 152.6,85.3 152.6,85.3 152.7,85.3 152.7,85.3 152.7,85.4 152.7,85.4 152.7,85.4 152.7,85.4 152.7,85.4 
		152.8,85.4 152.8,85.5 152.8,85.5 152.8,85.5 152.8,85.5 152.9,85.6 152.9,85.6 152.9,85.6 152.9,85.6 152.9,85.6 152.9,85.7 
		152.9,85.7 153,85.7 153,85.7 153,85.7 153,85.7 153,85.8 153,85.8 153.1,85.8 153.1,85.8 153.1,85.8 153.1,85.8 153.1,85.9 
		153.2,85.9 153.2,85.9 153.2,85.9 153.2,85.9 153.2,86 153.2,86 153.3,86 153.3,86 153.3,86 153.3,86 153.3,86.1 153.3,86.1 
		153.4,86.1 153.4,86.1 153.4,86.2 153.4,86.2 153.5,86.2 153.5,86.2 153.5,86.2 153.5,86.2 153.5,86.3 153.5,86.3 153.6,86.3 
		153.6,86.3 153.6,86.4 153.6,86.4 153.7,86.4 153.7,86.4 153.7,86.4 153.7,86.5 153.8,86.5 153.8,86.5 153.8,86.5 153.8,86.6 
		153.9,86.6 153.9,86.6 153.9,86.6 153.9,86.6 154,86.7 154,86.7 154,86.7 154,86.7 154.1,86.8 154.1,86.8 154.1,86.8 154.2,86.8 
		154.2,86.9 154.3,86.9 154.3,86.9 154.3,86.9 154.3,86.9 154.4,87 154.4,87 154.4,87 154.5,87 154.5,87.1 154.6,87.1 154.6,87.1 
		154.6,87.1 154.7,87.1 154.7,87.2 154.8,87.4 154.6,87.5 154.6,87.5 154.5,87.5 154.5,87.5 154.4,87.5 154.4,87.5 154.3,87.5 
		154.3,87.5 154.2,87.5 154.2,87.4 154.1,87.4 154.1,87.4 154.1,87.4 154,87.4 154,87.4 153.9,87.4 153.9,87.4 153.8,87.4 
		153.8,87.4 153.7,87.3 153.7,87.3 153.7,87.3 153.6,87.3 153.6,87.3 153.5,87.3 153.5,87.3 153.5,87.2 153.4,87.2 153.4,87.2 
		153.4,87.2 153.3,87.2 153.3,87.2 153.2,87.1 153.2,87.1 153.2,87.1 153.2,87.1 153.1,87.1 153.1,87.1 153,87 153,87 153,87 
		152.9,87 152.9,87 152.9,86.9 152.9,86.9 152.8,86.9 152.8,86.9 152.8,86.9 152.7,86.8 152.7,86.8 152.7,86.8 152.6,86.8 
		152.6,86.7 152.6,86.7 152.6,86.7 152.5,86.7 152.5,86.7 152.5,86.6 152.5,86.6 152.5,86.6 152.4,86.6 152.4,86.5 152.4,86.5 
		152.4,86.5 152.3,86.5 152.3,86.4 152.3,86.4 152.3,86.4 152.3,86.4 152.2,86.3 152.2,86.3 152.2,86.3 152.2,86.2 152.2,86.2 
		152.2,86.2 152.1,86.2 152.1,86.2 152.1,86.1 152.1,86.1 152.1,86.1 152,86 152,86 152,86 152,85.9 152,85.9 152,85.9 152,85.9 
		151.9,85.8 151.9,85.8 151.9,85.8 151.9,85.7 151.9,85.7 151.9,85.7 151.9,85.6 151.9,85.6 151.8,85.6 151.8,85.5 151.8,85.5 
		151.8,85.5 151.8,85.5 151.8,85.5 151.8,85.4 151.8,85.4 151.8,85.4 151.8,85.3 151.8,85.3 151.7,85.3 151.7,85.2 151.7,85.2 
		151.7,85.2 151.7,85.1 151.7,85.1 151.7,85 151.7,84.9 151.7,84.9 151.7,84.8 151.6,84.8 151.6,84.7 151.6,84.6 151.6,84.6 
		151.6,84.5 151.6,84.5 151.6,84.5 151.6,84.4 151.6,84.4 151.6,84.3 151.6,84.3 151.7,84.1 	"/>
	<path class="st14" d="M139.3,55.3c1.5,8.6-1.5,15.7-4.2,18.1c0.3,1.9,2.6,2.9,4.4,3.1"/>
	<polygon class="st13" points="138,93.1 138,93.1 138.1,93.2 138.2,93.2 138.2,93.2 138.3,93.2 138.3,93.2 138.3,93.2 138.4,93.3 
		138.5,93.3 138.5,93.3 138.6,93.3 138.7,93.3 138.7,93.4 138.8,93.4 138.8,93.4 138.9,93.4 139,93.4 139,93.4 139.1,93.5 
		139.1,93.5 139.2,93.5 139.2,93.5 139.3,93.5 139.3,93.5 139.4,93.5 139.4,93.5 139.5,93.6 139.5,93.6 139.6,93.6 139.7,93.6 
		139.7,93.6 139.8,93.6 139.8,93.6 139.8,93.6 139.9,93.6 140,93.6 140,93.6 140.1,93.7 140.1,93.7 140.2,93.7 140.2,93.7 
		140.3,93.7 140.3,93.7 140.4,93.7 140.4,93.7 140.5,93.7 140.5,93.7 140.6,93.7 140.6,93.7 140.7,93.7 140.7,93.7 140.8,93.7 
		140.8,93.7 140.9,93.7 140.9,93.7 141,93.7 141,93.7 141.1,93.7 141.1,93.7 141.2,93.8 141.2,93.8 141.2,93.8 141.3,93.8 
		141.3,93.8 141.4,93.8 141.4,93.8 141.4,93.8 141.5,93.8 141.5,93.8 141.6,93.8 141.6,93.8 141.7,93.8 141.7,93.8 141.8,93.8 
		141.8,93.8 141.8,93.8 141.9,93.8 141.9,93.8 142,93.8 142,93.8 142.1,93.8 142.1,93.8 142.2,93.8 142.2,93.8 142.3,93.8 
		142.3,93.8 142.4,93.8 142.4,93.8 142.5,93.8 142.5,93.8 142.6,93.7 142.6,93.7 142.7,93.7 142.7,93.7 142.7,93.7 142.8,93.7 
		142.8,93.7 142.9,93.7 142.9,93.7 143,93.7 143,93.7 143.1,93.7 143.1,93.7 143.2,93.7 143.2,93.7 143.2,93.7 143.3,93.7 
		143.3,93.7 143.4,93.6 143.4,93.6 143.5,93.6 143.5,93.6 143.6,93.6 143.6,93.6 143.6,93.6 143.7,93.6 143.7,93.6 143.8,93.6 
		143.8,93.5 143.9,93.5 143.9,93.5 144,93.5 144,93.5 144.1,93.5 144.1,93.5 144.2,93.4 144.2,93.4 144.2,93.4 144.3,93.4 
		144.3,93.4 144.4,93.4 144.4,93.4 144.5,93.3 144.5,93.3 144.5,93.3 144.6,93.3 144.6,93.3 144.7,93.2 144.7,93.2 145,93.3 
		144.9,93.6 144.9,93.6 144.9,93.6 144.9,93.6 144.8,93.7 144.8,93.7 144.7,93.7 144.7,93.8 144.7,93.8 144.6,93.8 144.6,93.9 
		144.5,93.9 144.5,93.9 144.4,93.9 144.4,94 144.3,94 144.3,94 144.3,94 144.3,94 144.2,94.1 144.2,94.1 144.1,94.1 144.1,94.1 
		144,94.2 144,94.2 143.9,94.2 143.9,94.2 143.8,94.3 143.8,94.3 143.7,94.3 143.7,94.3 143.6,94.3 143.6,94.4 143.5,94.4 
		143.5,94.4 143.4,94.4 143.4,94.4 143.4,94.4 143.3,94.5 143.3,94.5 143.2,94.5 143.2,94.5 143.1,94.5 143,94.5 143,94.6 
		142.9,94.6 142.9,94.6 142.9,94.6 142.8,94.6 142.8,94.6 142.7,94.6 142.7,94.6 142.6,94.7 142.5,94.7 142.5,94.7 142.4,94.7 
		142.4,94.7 142.4,94.7 142.3,94.7 142.3,94.7 142.2,94.7 142.1,94.7 142.1,94.7 142,94.7 142,94.7 141.9,94.7 141.8,94.8 
		141.8,94.8 141.8,94.8 141.7,94.8 141.7,94.8 141.6,94.8 141.6,94.8 141.5,94.8 141.5,94.8 141.4,94.8 141.4,94.8 141.3,94.8 
		141.3,94.8 141.2,94.8 141.2,94.7 141.1,94.7 141.1,94.7 141,94.7 141,94.7 140.9,94.7 140.9,94.7 140.8,94.7 140.8,94.7 
		140.7,94.7 140.7,94.7 140.6,94.7 140.6,94.7 140.5,94.7 140.4,94.6 140.4,94.6 140.3,94.6 140.2,94.6 140.2,94.6 140.2,94.6 
		140.1,94.6 140.1,94.5 140,94.5 139.9,94.5 139.9,94.5 139.8,94.5 139.8,94.5 139.7,94.4 139.6,94.4 139.6,94.4 139.6,94.4 
		139.5,94.4 139.4,94.3 139.4,94.3 139.3,94.3 139.3,94.3 139.2,94.3 139.1,94.2 139.1,94.2 139,94.2 139,94.2 139,94.1 138.9,94.1 
		138.8,94.1 138.8,94.1 138.7,94 138.7,94 138.6,94 138.5,93.9 138.5,93.9 138.4,93.9 138.4,93.8 138.3,93.8 138.2,93.8 138.2,93.7 
		138.1,93.7 138.1,93.7 138.1,93.7 138,93.6 138,93.6 137.9,93.6 137.8,93.5 137.8,93.5 137.8,93.5 137.7,93.2 138,93.1 	"/>
	<polygon class="st13" points="138.9,86.8 138.9,86.8 139,86.8 139,86.8 139,86.9 139.1,86.9 139.1,86.9 139.1,86.9 139.2,86.9 
		139.2,86.9 139.3,86.9 139.3,87 139.4,87 139.4,87 139.5,87 139.5,87 139.5,87 139.6,87 139.6,87 139.7,87.1 139.7,87.1 
		139.8,87.1 139.8,87.1 139.8,87.1 139.8,87.1 139.9,87.1 139.9,87.1 140,87.1 140,87.1 140.1,87.1 140.1,87.1 140.2,87.2 
		140.2,87.2 140.2,87.2 140.2,87.2 140.3,87.2 140.3,87.2 140.4,87.2 140.4,87.2 140.4,87.2 140.5,87.2 140.5,87.2 140.6,87.2 
		140.6,87.2 140.6,87.2 140.7,87.2 140.7,87.2 140.7,87.2 140.8,87.2 140.8,87.2 140.9,87.2 140.9,87.2 140.9,87.3 141,87.3 
		141,87.3 141,87.3 141.1,87.3 141.1,87.3 141.1,87.3 141.2,87.3 141.2,87.3 141.2,87.3 141.3,87.3 141.3,87.3 141.3,87.3 
		141.4,87.3 141.4,87.3 141.4,87.3 141.5,87.3 141.5,87.3 141.5,87.3 141.5,87.3 141.6,87.3 141.6,87.3 141.6,87.3 141.7,87.3 
		141.7,87.3 141.7,87.3 141.8,87.3 141.8,87.3 141.8,87.3 141.9,87.3 141.9,87.3 142,87.3 142,87.3 142,87.3 142.1,87.3 142.1,87.3 
		142.1,87.3 142.2,87.3 142.2,87.3 142.3,87.3 142.3,87.3 142.3,87.3 142.4,87.3 142.4,87.3 142.4,87.3 142.4,87.3 142.5,87.3 
		142.5,87.3 142.5,87.3 142.6,87.3 142.6,87.3 142.7,87.2 142.7,87.2 142.7,87.2 142.8,87.2 142.8,87.2 142.8,87.2 142.9,87.2 
		142.9,87.2 142.9,87.2 143,87.2 143,87.2 143,87.2 143.1,87.2 143.1,87.2 143.1,87.2 143.2,87.2 143.2,87.1 143.2,87.1 143.3,87.1 
		143.3,87.1 143.3,87.1 143.4,87.1 143.4,87.1 143.4,87.1 143.5,87.1 143.5,87.1 143.5,87.1 143.6,87 143.6,87 143.6,87 143.7,87 
		143.7,87 143.7,87 143.8,87 143.8,87 143.8,86.9 144.1,87 144,87.2 144,87.3 144,87.3 144,87.3 143.9,87.3 143.9,87.3 143.9,87.4 
		143.8,87.4 143.8,87.4 143.8,87.4 143.7,87.4 143.7,87.5 143.7,87.5 143.6,87.5 143.6,87.5 143.6,87.6 143.5,87.6 143.5,87.6 
		143.5,87.6 143.4,87.6 143.4,87.6 143.4,87.7 143.3,87.7 143.3,87.7 143.3,87.7 143.2,87.7 143.2,87.8 143.2,87.8 143.1,87.8 
		143.1,87.8 143,87.8 143,87.8 143,87.9 142.9,87.9 142.9,87.9 142.9,87.9 142.8,87.9 142.8,87.9 142.8,87.9 142.7,87.9 142.7,87.9 
		142.6,88 142.6,88 142.6,88 142.5,88 142.5,88 142.5,88 142.4,88 142.4,88 142.4,88 142.3,88 142.3,88.1 142.2,88.1 142.2,88.1 
		142.1,88.1 142.1,88.1 142.1,88.1 142.1,88.1 142,88.1 142,88.1 141.9,88.1 141.9,88.1 141.8,88.1 141.8,88.1 141.7,88.1 
		141.7,88.1 141.7,88.1 141.7,88.1 141.6,88.1 141.6,88.1 141.5,88.1 141.5,88.1 141.5,88.1 141.4,88.1 141.4,88.1 141.3,88.1 
		141.3,88.1 141.3,88.1 141.2,88.1 141.2,88.1 141.2,88.1 141.1,88.1 141.1,88.1 141.1,88.1 141,88.1 141,88.1 140.9,88.1 
		140.9,88.1 140.9,88.1 140.8,88.1 140.8,88.1 140.7,88 140.7,88 140.6,88 140.6,88 140.6,88 140.5,88 140.5,88 140.5,88 140.4,88 
		140.4,88 140.3,87.9 140.3,87.9 140.2,87.9 140.2,87.9 140.1,87.9 140.1,87.9 140.1,87.8 140,87.8 140,87.8 140,87.8 139.9,87.8 
		139.9,87.8 139.8,87.8 139.8,87.7 139.7,87.7 139.7,87.7 139.6,87.7 139.6,87.7 139.6,87.7 139.6,87.6 139.5,87.6 139.5,87.6 
		139.4,87.6 139.4,87.5 139.3,87.5 139.3,87.5 139.3,87.5 139.2,87.4 139.2,87.4 139.1,87.4 139.1,87.4 139,87.3 139,87.3 
		138.9,87.3 138.9,87.3 138.9,87.3 138.9,87.2 138.8,87.2 138.8,87.2 138.7,87.1 138.7,87.1 138.7,87.1 138.6,86.9 138.9,86.8 	"/>
	<polygon class="st13" points="130.3,85.9 130.3,85.9 130.3,86 130.3,86 130.3,86 130.4,86 130.4,86.1 130.5,86.1 130.5,86.1 
		130.5,86.2 130.6,86.2 130.6,86.2 130.6,86.3 130.7,86.3 130.7,86.3 130.8,86.4 130.8,86.4 130.8,86.4 130.9,86.5 130.9,86.5 
		130.9,86.5 131,86.6 131,86.6 131.1,86.6 131.1,86.7 131.1,86.7 131.2,86.7 131.2,86.8 131.3,86.8 131.3,86.8 131.3,86.9 
		131.4,86.9 131.4,86.9 131.4,86.9 131.5,87 131.5,87 131.6,87 131.6,87.1 131.6,87.1 131.7,87.2 131.8,87.2 131.9,87.3 132,87.3 
		132,87.4 132.1,87.4 132.2,87.5 132.2,87.5 132.3,87.6 132.4,87.6 132.5,87.7 132.5,87.7 132.6,87.8 132.7,87.8 132.8,87.9 
		132.9,87.9 133,88 133,88 133.1,88.1 133.2,88.1 133.3,88.2 133.4,88.2 133.5,88.3 133.6,88.3 133.6,88.3 133.7,88.4 133.8,88.4 
		133.9,88.5 134,88.5 134.1,88.6 134.2,88.6 134.3,88.6 134.3,88.7 134.4,88.7 134.5,88.8 134.6,88.8 134.7,88.8 134.8,88.9 
		134.9,88.9 135,89 135,89 135.1,89 135.2,89 135.3,89.1 135.3,89.1 135.4,89.1 135.5,89.2 135.6,89.2 135.7,89.2 135.8,89.3 
		135.9,89.3 136,89.3 136.1,89.4 136.2,89.4 136.3,89.4 136.4,89.4 136.5,89.5 136.6,89.5 136.6,89.5 136.6,89.5 136.7,89.5 
		136.8,89.6 136.9,89.6 137,89.6 137.1,89.6 137.2,89.7 137.3,89.7 137.4,89.7 137.5,89.7 137.6,89.8 137.7,89.8 137.8,89.8 
		137.9,89.8 138,89.8 138.1,89.8 138.2,89.9 138.3,89.9 138.3,89.9 138.4,89.9 138.5,89.9 138.6,89.9 138.7,89.9 138.8,90 138.9,90 
		139,90 139,90 139.1,90 139.2,90 139.3,90 139.4,90 139.5,90.1 139.6,90.1 139.7,90.1 139.8,90.1 139.9,90.1 139.9,90.1 140,90.1 
		140.1,90.1 140.2,90.1 140.3,90.1 140.4,90.1 140.5,90.1 140.6,90.1 140.7,90.1 140.8,90.1 140.9,90.1 141,90.1 141.1,90.1 
		141.2,90.1 141.3,90.1 141.4,90.1 141.5,90.1 141.5,90.1 141.6,90.1 141.7,90.1 141.8,90.1 141.9,90.1 142,90.1 142.1,90.1 
		142.2,90.1 142.3,90.1 142.3,90.1 142.4,90.1 142.5,90.1 142.6,90.1 142.7,90.1 142.8,90.1 142.9,90.1 143,90 143.1,90 143.2,90 
		143.2,90 143.3,90 143.4,90 143.5,90 143.6,90 143.7,90 143.8,90 143.9,89.9 144,89.9 144.1,89.9 144.2,89.9 144.3,89.9 
		144.3,89.9 144.4,89.9 144.5,89.8 144.6,89.8 144.7,89.8 144.8,89.8 144.9,89.8 145,89.7 145,89.7 145.1,89.7 145.2,89.7 
		145.3,89.7 145.4,89.7 145.5,89.6 145.5,89.6 145.6,89.6 145.7,89.6 145.8,89.5 145.9,89.5 146,89.5 146.1,89.5 146.2,89.4 
		146.3,89.4 146.4,89.4 146.4,89.4 146.5,89.3 146.6,89.3 146.7,89.3 146.8,89.3 146.9,89.2 146.9,89.2 147,89.2 147,89.2 
		147.1,89.1 147.2,89.1 147.3,89.1 147.4,89 147.5,89 147.6,89 147.6,89 147.7,88.9 147.8,88.9 147.9,88.9 148,88.8 148.1,88.8 
		148.1,88.8 148.2,88.7 148.3,88.7 148.4,88.6 148.5,88.6 148.5,88.6 148.6,88.5 148.6,88.5 148.7,88.5 148.8,88.5 148.9,88.4 
		148.9,88.4 149,88.3 149.1,88.3 149.2,88.3 149.3,88.2 149.3,88.2 149.4,88.1 149.5,88.1 149.6,88.1 149.6,88 149.7,88 149.8,87.9 
		149.9,87.9 149.9,87.8 150,87.8 150.1,87.8 150.1,87.7 150.2,87.7 150.3,87.6 150.4,87.6 150.4,87.5 150.5,87.5 150.6,87.4 
		150.6,87.4 150.7,87.3 150.8,87.3 150.8,87.2 150.9,87.2 151,87.2 151,87.1 151.1,87.1 151.2,87 151.2,87 151.3,86.9 151.3,86.9 
		151.4,86.9 151.4,86.8 151.5,86.8 151.5,86.7 151.6,86.7 151.7,86.6 151.7,86.5 151.8,86.5 151.8,86.4 151.9,86.4 152,86.3 
		152,86.3 152.1,86.2 152.1,86.2 152.2,86.1 152.2,86.1 152.5,86 152.9,86.1 152.9,86.1 153,86.5 152.9,86.8 152.9,86.8 152.8,86.9 
		152.7,87 152.7,87 152.6,87.1 152.5,87.1 152.5,87.2 152.4,87.2 152.4,87.3 152.3,87.3 152.2,87.4 152.1,87.5 152.1,87.5 152,87.6 
		151.9,87.6 151.9,87.7 151.8,87.7 151.8,87.7 151.7,87.8 151.7,87.8 151.6,87.9 151.5,87.9 151.4,88 151.4,88 151.3,88.1 
		151.2,88.1 151.1,88.2 151.1,88.2 151,88.3 150.9,88.3 150.8,88.3 150.8,88.4 150.7,88.4 150.6,88.5 150.5,88.5 150.4,88.6 
		150.4,88.6 150.3,88.7 150.2,88.7 150.1,88.7 150.1,88.8 150,88.8 149.9,88.9 149.8,88.9 149.7,89 149.6,89 149.6,89 149.5,89.1 
		149.4,89.1 149.3,89.1 149.2,89.2 149.1,89.2 149.1,89.3 149,89.3 149,89.3 148.9,89.3 148.8,89.4 148.7,89.4 148.6,89.4 
		148.5,89.5 148.5,89.5 148.4,89.5 148.3,89.6 148.2,89.6 148.1,89.6 148,89.7 147.9,89.7 147.8,89.7 147.7,89.8 147.7,89.8 
		147.6,89.8 147.5,89.9 147.4,89.9 147.3,89.9 147.2,89.9 147.1,90 147.1,90 147,90 146.9,90 146.8,90.1 146.7,90.1 146.6,90.1 
		146.6,90.1 146.5,90.2 146.4,90.2 146.3,90.2 146.2,90.2 146.1,90.2 146,90.3 145.9,90.3 145.8,90.3 145.7,90.3 145.6,90.4 
		145.5,90.4 145.4,90.4 145.3,90.4 145.2,90.4 145.2,90.4 145.1,90.5 145,90.5 144.9,90.5 144.8,90.5 144.8,90.5 144.7,90.5 
		144.6,90.6 144.5,90.6 144.4,90.6 144.3,90.6 144.2,90.6 144.1,90.6 144,90.6 143.9,90.6 143.8,90.7 143.7,90.7 143.6,90.7 
		143.5,90.7 143.4,90.7 143.3,90.7 143.2,90.7 143.2,90.7 143.1,90.7 143,90.7 142.9,90.7 142.8,90.8 142.7,90.8 142.6,90.8 
		142.5,90.8 142.4,90.8 142.3,90.8 142.2,90.8 142.1,90.8 142,90.8 141.9,90.8 141.8,90.8 141.7,90.8 141.6,90.8 141.5,90.8 
		141.5,90.8 141.4,90.8 141.3,90.8 141.2,90.8 141.1,90.8 141,90.8 140.9,90.8 140.8,90.8 140.7,90.8 140.6,90.8 140.5,90.8 
		140.4,90.8 140.3,90.8 140.2,90.8 140.1,90.8 140,90.8 139.9,90.8 139.9,90.8 139.8,90.8 139.7,90.8 139.6,90.7 139.5,90.7 
		139.4,90.7 139.3,90.7 139.2,90.7 139.1,90.7 139,90.7 138.9,90.7 138.8,90.7 138.7,90.7 138.6,90.6 138.5,90.6 138.4,90.6 
		138.3,90.6 138.2,90.6 138.2,90.6 138.1,90.6 138,90.6 137.9,90.5 137.8,90.5 137.7,90.5 137.6,90.5 137.5,90.5 137.4,90.4 
		137.3,90.4 137.2,90.4 137.1,90.4 137,90.4 136.9,90.3 136.8,90.3 136.7,90.3 136.6,90.3 136.5,90.2 136.4,90.2 136.4,90.2 
		136.3,90.2 136.2,90.2 136.1,90.1 136,90.1 135.9,90.1 135.8,90.1 135.7,90 135.6,90 135.5,90 135.4,89.9 135.3,89.9 135.2,89.9 
		135.1,89.8 135,89.8 134.9,89.8 134.8,89.7 134.7,89.7 134.7,89.7 134.6,89.7 134.5,89.6 134.4,89.6 134.3,89.6 134.2,89.5 
		134.1,89.5 134,89.4 133.9,89.4 133.8,89.4 133.7,89.3 133.6,89.3 133.5,89.2 133.5,89.2 133.4,89.1 133.3,89.1 133.2,89.1 
		133.1,89 133,89 132.9,88.9 132.8,88.9 132.7,88.8 132.6,88.8 132.5,88.7 132.4,88.7 132.3,88.6 132.3,88.6 132.2,88.5 132.1,88.5 
		132,88.4 131.9,88.4 131.8,88.3 131.7,88.3 131.7,88.3 131.6,88.2 131.5,88.1 131.4,88.1 131.4,88 131.3,88 131.2,87.9 131.1,87.9 
		131.1,87.8 131,87.8 131,87.8 130.9,87.7 130.9,87.7 130.8,87.7 130.8,87.6 130.8,87.6 130.7,87.6 130.7,87.5 130.6,87.5 
		130.6,87.5 130.5,87.4 130.5,87.4 130.5,87.4 130.4,87.4 130.4,87.3 130.3,87.3 130.3,87.3 130.2,87.2 130.2,87.2 130.2,87.2 
		130.1,87.1 130.1,87.1 130,87 130,87 130,87 129.9,86.9 129.9,86.9 129.8,86.9 129.8,86.8 129.8,86.8 129.7,86.8 129.7,86.7 
		129.7,86.7 129.6,86.7 129.6,86.7 129.6,86.7 129.4,86.3 129.6,86 129.6,86 129.9,85.8 	"/>
	<polygon class="st13" points="134.4,49.7 134.5,49.7 134.5,49.7 134.6,49.7 134.7,49.7 134.7,49.7 134.8,49.7 134.9,49.7 
		134.9,49.7 135,49.7 135.1,49.7 135.1,49.7 135.2,49.7 135.3,49.7 135.3,49.7 135.4,49.7 135.5,49.7 135.5,49.7 135.6,49.8 
		135.7,49.8 135.7,49.8 135.7,49.8 136.4,50 136.9,50.5 137.2,51.1 137.2,51.8 137.2,51.8 137,52.4 136.5,52.9 135.9,53.2 
		135.2,53.2 135.2,53.2 135.1,53.2 135.1,53.2 135.1,53.2 135,53.2 135,53.2 134.9,53.2 134.9,53.2 134.8,53.1 134.8,53.1 
		134.7,53.1 134.7,53.1 134.6,53.1 134.6,53.1 134.5,53.1 134.5,53.1 134.4,53.1 134.4,53.1 134.3,53.1 134.3,53.1 134.2,53.1 
		134.2,53.1 134.1,53.1 134.1,53 134,53 134,53 133.9,53 133.8,53 133.8,53 133.7,53 133.7,53 133.6,53 133.6,53 133.5,53 133.5,53 
		133.4,53 133.4,53 133.3,53 133.2,53 133.2,53 133.1,53 133.1,53 133,53 133,53 132.9,53 132.8,53 132.8,53 132.7,53 132.7,53 
		132.6,53 132.5,53 132.5,53 132.4,53 132.4,53 132.3,53 132.3,53 132.2,53 132.1,53 132.1,53 132,53 131.9,53 131.9,53 131.8,53 
		131.8,53 131.7,53 131.6,53 131.6,53 131.5,53 131.5,53 131.4,53 131.3,53 131.3,53 131.2,53.1 131.1,53.1 131.1,53.1 131,53.1 
		131,53.1 130.9,53.1 130.8,53.1 130.8,53.1 130.7,53.1 130.6,53.1 130.5,53.1 130.3,53.1 130.2,53.2 130.1,53.2 129.9,53.2 
		129.8,53.2 129.7,53.2 129.6,53.2 129.4,53.3 129.3,53.3 129.2,53.3 129,53.3 128.9,53.3 128.8,53.4 128.6,53.4 128.5,53.4 
		128.4,53.4 128.2,53.5 128.1,53.5 128,53.5 127.9,53.6 127.7,53.6 127.6,53.6 127.5,53.6 127.3,53.7 127.2,53.7 127.1,53.7 
		126.9,53.8 126.8,53.8 126.7,53.8 126.6,53.8 126.4,53.9 126.3,53.9 126.2,53.9 126,54 125.9,54 125.8,54 125.7,54.1 125.5,54.1 
		125.4,54.2 125.3,54.2 125.2,54.2 125,54.3 124.9,54.3 124.8,54.3 124.7,54.4 124.5,54.4 124.4,54.5 124.3,54.5 124.2,54.5 
		124,54.6 123.9,54.6 123.8,54.6 123.7,54.7 123.6,54.7 123.5,54.8 123.3,54.8 123.2,54.8 123.1,54.9 123,54.9 122.9,55 122.8,55 
		122.7,55.1 122.5,55.1 122.4,55.1 122.3,55.2 122.2,55.2 122.1,55.3 122,55.3 121.9,55.3 121.8,55.4 121.7,55.4 121.6,55.5 
		121.5,55.5 121.4,55.6 121.3,55.6 121.2,55.6 121.1,55.7 121,55.7 120.9,55.8 120.8,55.8 120.7,55.8 120.6,55.9 120.5,55.9 
		120.5,56 120.4,56 120.3,56.1 120.3,56.1 119.6,56.1 119.1,55.7 119.1,55.7 119,55 119.4,54.5 119.5,54.5 119.6,54.4 119.7,54.3 
		119.8,54.3 119.9,54.2 120,54.2 120.1,54.1 120.2,54.1 120.3,54 120.4,54 120.5,53.9 120.6,53.8 120.7,53.8 120.8,53.7 120.9,53.7 
		121,53.6 121.1,53.6 121.2,53.5 121.3,53.4 121.4,53.4 121.5,53.3 121.6,53.3 121.7,53.2 121.8,53.2 122,53.1 122.1,53.1 122.2,53 
		122.3,52.9 122.4,52.9 122.5,52.8 122.6,52.8 122.8,52.7 122.9,52.7 123,52.6 123.1,52.6 123.3,52.5 123.4,52.4 123.5,52.4 
		123.6,52.3 123.7,52.3 123.9,52.2 124,52.2 124.1,52.1 124.2,52.1 124.4,52 124.5,52 124.6,51.9 124.8,51.9 124.9,51.8 125,51.8 
		125.2,51.7 125.3,51.7 125.4,51.6 125.6,51.6 125.7,51.5 125.8,51.5 126,51.4 126.1,51.4 126.2,51.3 126.4,51.3 126.5,51.2 
		126.6,51.2 126.8,51.1 126.9,51.1 127,51 127.2,51 127.3,50.9 127.4,50.9 127.6,50.9 127.7,50.8 127.9,50.8 128,50.7 128.1,50.7 
		128.3,50.7 128.4,50.6 128.6,50.6 128.7,50.5 128.8,50.5 129,50.5 129.1,50.4 129.3,50.4 129.4,50.4 129.5,50.3 129.7,50.3 
		129.8,50.3 130,50.2 130.1,50.2 130.2,50.2 130.3,50.2 130.4,50.1 130.4,50.1 130.5,50.1 130.6,50.1 130.7,50.1 130.7,50.1 
		130.8,50.1 130.9,50 130.9,50 131,50 131.1,50 131.1,50 131.2,50 131.3,50 131.4,50 131.4,49.9 131.5,49.9 131.6,49.9 131.6,49.9 
		131.7,49.9 131.8,49.9 131.8,49.9 131.9,49.9 132,49.9 132.1,49.9 132.1,49.8 132.2,49.8 132.3,49.8 132.3,49.8 132.4,49.8 
		132.5,49.8 132.5,49.8 132.6,49.8 132.7,49.8 132.7,49.8 132.8,49.8 132.9,49.8 133,49.8 133,49.7 133.1,49.7 133.2,49.7 
		133.2,49.7 133.3,49.7 133.4,49.7 133.4,49.7 133.5,49.7 133.6,49.7 133.6,49.7 133.7,49.7 133.8,49.7 133.8,49.7 133.9,49.7 
		134,49.7 134.1,49.7 134.1,49.7 134.2,49.7 134.3,49.7 134.3,49.7 	"/>
	<polygon class="st13" points="148.8,49.5 148.9,49.5 148.9,49.5 149,49.5 149.1,49.5 149.1,49.5 149.2,49.5 149.3,49.5 149.3,49.5 
		149.4,49.6 149.5,49.6 149.5,49.6 149.6,49.6 149.7,49.6 149.7,49.6 149.8,49.6 149.9,49.6 149.9,49.6 150,49.6 150.1,49.6 
		150.1,49.6 150.2,49.6 150.3,49.6 150.3,49.6 150.4,49.6 150.5,49.6 150.5,49.6 150.6,49.6 150.7,49.7 150.7,49.7 150.8,49.7 
		150.9,49.7 150.9,49.7 151,49.7 151.1,49.7 151.1,49.7 151.2,49.7 151.3,49.7 151.3,49.7 151.4,49.7 151.5,49.8 151.5,49.8 
		151.6,49.8 151.7,49.8 151.7,49.8 151.8,49.8 151.9,49.8 151.9,49.8 152,49.8 152.1,49.9 152.1,49.9 152.2,49.9 152.3,49.9 
		152.3,49.9 152.4,49.9 152.5,49.9 152.6,50 152.7,50 152.9,50 153,50.1 153.1,50.1 153.3,50.1 153.4,50.1 153.5,50.2 153.7,50.2 
		153.8,50.2 153.9,50.3 154.1,50.3 154.2,50.3 154.3,50.4 154.5,50.4 154.6,50.5 154.7,50.5 154.9,50.5 155,50.6 155.1,50.6 
		155.2,50.7 155.4,50.7 155.5,50.7 155.6,50.8 155.8,50.8 155.9,50.9 156,50.9 156.1,51 156.3,51 156.4,51 156.5,51.1 156.6,51.1 
		156.8,51.2 156.9,51.2 157,51.3 157.1,51.3 157.3,51.4 157.4,51.4 157.5,51.5 157.6,51.5 157.8,51.6 157.9,51.6 158,51.7 
		158.1,51.7 158.3,51.8 158.4,51.8 158.5,51.9 158.6,51.9 158.7,52 158.8,52 159,52.1 159.1,52.1 159.2,52.2 159.3,52.2 159.4,52.3 
		159.5,52.3 159.7,52.4 159.8,52.4 159.9,52.5 160,52.5 160.1,52.6 160.2,52.7 160.3,52.7 160.4,52.8 160.5,52.8 160.6,52.9 
		160.7,52.9 160.9,53 161,53 161.1,53.1 161.2,53.1 161.3,53.2 161.4,53.3 161.5,53.3 161.6,53.4 161.7,53.4 161.8,53.5 161.9,53.5 
		162,53.6 162.1,53.6 162.2,53.7 162.2,53.8 162.3,53.8 162.4,53.9 162.5,53.9 162.6,54 162.7,54 162.8,54.1 162.9,54.1 162.9,54.1 
		163.3,54.7 163.2,55.3 163.2,55.3 162.7,55.7 162,55.7 162,55.7 161.9,55.6 161.9,55.6 161.8,55.6 161.7,55.5 161.6,55.5 
		161.5,55.4 161.4,55.4 161.3,55.4 161.2,55.3 161.1,55.3 161,55.2 160.9,55.2 160.8,55.1 160.7,55.1 160.6,55.1 160.5,55 160.4,55 
		160.3,54.9 160.2,54.9 160.1,54.9 160,54.8 159.9,54.8 159.8,54.7 159.7,54.7 159.6,54.7 159.5,54.6 159.4,54.6 159.3,54.5 
		159.2,54.5 159.1,54.5 158.9,54.4 158.8,54.4 158.7,54.4 158.6,54.3 158.5,54.3 158.4,54.2 158.3,54.2 158.2,54.2 158,54.1 
		157.9,54.1 157.8,54.1 157.7,54 157.6,54 157.5,54 157.3,53.9 157.2,53.9 157.1,53.9 157,53.8 156.9,53.8 156.8,53.8 156.6,53.7 
		156.5,53.7 156.4,53.7 156.3,53.6 156.2,53.6 156,53.6 155.9,53.5 155.8,53.5 155.7,53.5 155.6,53.5 155.4,53.4 155.3,53.4 
		155.2,53.4 155.1,53.3 154.9,53.3 154.8,53.3 154.7,53.3 154.6,53.2 154.5,53.2 154.3,53.2 154.2,53.2 154.1,53.2 154,53.1 
		153.8,53.1 153.7,53.1 153.6,53.1 153.5,53.1 153.4,53 153.2,53 153.1,53 153,53 152.9,53 152.8,53 152.6,52.9 152.5,52.9 
		152.4,52.9 152.3,52.9 152.2,52.9 152,52.9 152,52.9 151.9,52.9 151.9,52.9 151.8,52.9 151.7,52.9 151.7,52.9 151.6,52.8 
		151.6,52.8 151.5,52.8 151.4,52.8 151.4,52.8 151.3,52.8 151.3,52.8 151.2,52.8 151.2,52.8 151.1,52.8 151,52.8 151,52.8 
		150.9,52.8 150.9,52.8 150.8,52.8 150.8,52.8 150.7,52.8 150.6,52.8 150.6,52.8 150.5,52.8 150.5,52.8 150.4,52.8 150.4,52.8 
		150.3,52.8 150.2,52.8 150.2,52.8 150.1,52.8 150.1,52.8 150,52.8 150,52.8 149.9,52.8 149.9,52.8 149.8,52.8 149.7,52.8 
		149.7,52.8 149.6,52.8 149.6,52.8 149.5,52.8 149.5,52.8 149.4,52.8 149.4,52.8 149.3,52.9 149.3,52.9 149.2,52.9 149.2,52.9 
		149.1,52.9 149.1,52.9 149,52.9 149,52.9 148.9,52.9 148.8,52.9 148.8,52.9 148.7,52.9 148.7,52.9 148.6,52.9 148.6,52.9 
		148.5,52.9 148.5,52.9 148.4,53 148.4,53 148.3,53 148.3,53 148.2,53 148.2,53 148.2,53 148.1,53 148.1,53 148,53 148,53 
		147.9,53.1 147.9,53.1 147.8,53.1 147.8,53.1 147.1,53 146.5,52.8 146.1,52.3 145.8,51.6 145.8,51.6 145.9,50.9 146.1,50.3 
		146.6,49.9 147.3,49.6 147.3,49.6 147.3,49.6 147.4,49.6 147.5,49.6 147.5,49.6 147.6,49.6 147.7,49.6 147.7,49.6 147.8,49.6 
		147.9,49.6 147.9,49.6 148,49.6 148.1,49.6 148.1,49.5 148.2,49.5 148.3,49.5 148.3,49.5 148.4,49.5 148.5,49.5 148.5,49.5 
		148.6,49.5 148.7,49.5 148.7,49.5 	"/>
	<path class="st12" d="M170.2,39.6c0.1,2.6-0.8,4.5-3.7,5.2"/>
	<path class="st15" d="M136.7,18.5c0,0,5-3.3,15.6,0c10.6,3.3,10.5,7.3,17.5,10.2c7,2.9,8.6,3.7,10.6,9.3c2,5.6,0.9,5.6,2,8.7
		c1.1,3.2,2.7,3.9,1.7,9.8c-1,5.9-1.2,6.2-2.4,10.5c-1.2,4.3,0.2,6.4-4.1,11.5c-1.2,1.5-1.9,2.6-2.4,3.6c-1.2,2.4-1.1,3.9-3.8,7.1
		c-5.7,6.7-10.4,6.9-10.4,6.9c6.7-7.3,8.7-11.3,9.9-23.8c9.2-5.3,4.3-13.6-1-9.6c0.8-2.5,0.7-4.2-0.2-7.9c-1.1-4.4-4.6-4.7-3.3-10.3
		c-9.6,0.4-14.3-3.6-14.1-8.1c-10.2-2.7-16.3-5.6-15.1-11.3L136.7,18.5z"/>
	<path class="st12" d="M136.7,18.5c0,0,5-3.3,15.6,0c10.6,3.3,10.5,7.3,17.5,10.2c7,2.9,8.6,3.7,10.6,9.3c2,5.6,0.9,5.6,2,8.7
		c1.1,3.2,2.7,3.9,1.7,9.8c-1,5.9-1.2,6.2-2.4,10.5c-1.2,4.3,0.2,6.4-4.1,11.5c-1.2,1.5-1.9,2.6-2.4,3.6c-1.2,2.4-1.1,3.9-3.8,7.1
		c-5.7,6.7-10.4,6.9-10.4,6.9c6.7-7.3,8.7-11.3,9.9-23.8c9.2-5.3,4.3-13.6-1-9.6c0.8-2.5,0.7-4.2-0.2-7.9c-1.1-4.4-4.6-4.7-3.3-10.3
		c-9.6,0.4-14.3-3.6-14.1-8.1c-10.2-2.7-16.3-5.6-15.1-11.3L136.7,18.5z"/>
	<path class="st15" d="M137.1,18.6l0.3,6.7l-3.8,4.6c1.8,6.3-3.9,10.2-11.1,14c-2.1,1.1-5.8,0.9-6.3,4.1c0,0-3.2-1.7-4.5,0.2
		c-1.5,2.3-0.5,3.5-0.3,5.3c-2.8,3-2.2,6.9-0.3,9.9c-3.2-2.3-4.6-0.8-5.3,0.2c-1.6,2.3,0.7,8.6,6,8.9c-0.3,11.8,3.8,19.1,7.7,22.5
		c-2.8,1.2-9.8-3-11.2-9.5c-0.8-3.9-7.6-4.5-5.8-14.5c0.5-2.4-3.2-3-2.2-7.6c-2.1-6.9-2.5-13.2,0.6-16.2c-1.5-5,2.1-11.4,11.6-18
		C115.8,20,129.9,15.2,137.1,18.6"/>
	<path class="st12" d="M137.1,18.6l0.3,6.7l-3.8,4.6c1.8,6.3-3.9,10.2-11.1,14c-2.1,1.1-5.8,0.9-6.3,4.1c0,0-3.2-1.7-4.5,0.2
		c-1.5,2.3-0.5,3.5-0.3,5.3c-2.8,3-2.2,6.9-0.3,9.9c-3.2-2.3-4.6-0.8-5.3,0.2c-1.6,2.3,0.7,8.6,6,8.9c-0.3,11.8,3.8,19.1,7.7,22.5
		c-2.8,1.2-9.8-3-11.2-9.5c-0.8-3.9-7.6-4.5-5.8-14.5c0.5-2.4-3.2-3-2.2-7.6c-2.1-6.9-2.5-13.2,0.6-16.2c-1.5-5,2.1-11.4,11.6-18
		C115.8,20,129.9,15.2,137.1,18.6z"/>
	<path class="st12" d="M137.3,20.9c0,0-12.5,6.4-8.9,7C132.1,28.5,137.3,20.9,137.3,20.9z"/>
	<path class="st12" d="M137.3,20c-2.6-1.3-12.6,0.3-11,1.9C128,23.6,136.6,20.2,137.3,20z"/>
	<path class="st12" d="M137.3,19.9c0,0,15.7,4.1,15.2,2.2c-0.4-1.5-4.4-2.5-8.1-2.6C140.7,19.3,137.3,19.9,137.3,19.9z"/>
	<path class="st12" d="M137.3,20.9c0,0,12.5,11.6,12.2,8C149.2,25.2,137.3,20.9,137.3,20.9z"/>
	<path class="st15" d="M161.4,192.3c1.5-4.2,3.3-8.4,5.4-12.5l-6.8-2.5c-0.2-6.3,1.6-8.6-6-13.3c-0.8-3.7-0.6-5.5,1.5-9.6
		c5.2-3.2-2.4-7.6-7.6-1.1c-1.9,2.4-2.2,8.7-1.4,10.1l-14.6-1.1c-2.7-0.5-4.4,7-0.9,8.2c-3.2-0.4-3.2,4.5-2.1,7.4
		c0.4,1,1.7,1.1,2.9,0.9c-3.5,0.7-2.8,4.1-1.2,6.5c0.5,0.8,1.7,1.1,2.7,0.5c-1.5,1.8,0.6,6.2,3.3,5.8c8.6,0.4,15,0.2,18.7-1.6
		L161.4,192.3z"/>
	<path class="st12" d="M161.4,192.3c1.5-4.2,3.3-8.4,5.4-12.5l-6.8-2.5c-0.2-6.3,1.6-8.6-6-13.3c-0.8-3.7-0.6-5.5,1.5-9.6
		c5.2-3.2-2.4-7.6-7.6-1.1c-1.9,2.4-2.2,8.7-1.4,10.1l-14.6-1.1c-2.7-0.5-4.4,7-0.9,8.2c-3.2-0.4-3.2,4.5-2.1,7.4
		c0.4,1,1.7,1.1,2.9,0.9c-3.5,0.7-2.8,4.1-1.2,6.5c0.5,0.8,1.7,1.1,2.7,0.5c-1.5,1.8,0.6,6.2,3.3,5.8c8.6,0.4,15,0.2,18.7-1.6
		L161.4,192.3z"/>
	<path class="st15" d="M157.1,186.8c-0.4,1.1-1.1,2.2-2.1,3.3"/>
	<polygon class="st13" points="157.4,186.9 157.4,187 157.4,187 157.3,187.1 157.3,187.1 157.3,187.2 157.3,187.2 157.3,187.3 
		157.2,187.3 157.2,187.4 157.2,187.4 157.2,187.5 157.2,187.5 157.1,187.6 157.1,187.7 157.1,187.7 157.1,187.8 157,187.8 
		157,187.9 157,187.9 157,188 156.9,188 156.9,188.1 156.9,188.1 156.8,188.2 156.8,188.3 156.8,188.3 156.8,188.4 156.7,188.4 
		156.7,188.5 156.7,188.5 156.6,188.6 156.6,188.6 156.6,188.7 156.5,188.8 156.5,188.8 156.5,188.9 156.4,188.9 156.4,189 
		156.4,189 156.3,189.1 156.3,189.1 156.3,189.2 156.2,189.3 156.2,189.3 156.2,189.4 156.1,189.4 156.1,189.5 156,189.5 156,189.6 
		156,189.7 155.9,189.7 155.9,189.8 155.8,189.8 155.8,189.9 155.8,189.9 155.7,190 155.7,190.1 155.6,190.1 155.6,190.2 
		155.5,190.2 155.5,190.3 155.5,190.3 155.4,190.4 155.4,190.4 155.4,190.5 155,190.6 154.7,190.5 154.7,190.5 154.5,190.1 
		154.6,189.8 154.6,189.8 154.7,189.7 154.7,189.7 154.8,189.6 154.8,189.6 154.9,189.5 154.9,189.5 154.9,189.4 155,189.4 
		155,189.3 155.1,189.3 155.1,189.2 155.2,189.2 155.2,189.1 155.3,189.1 155.3,189 155.3,189 155.4,189 155.4,188.9 155.5,188.9 
		155.5,188.8 155.5,188.8 155.6,188.7 155.6,188.7 155.6,188.6 155.7,188.6 155.7,188.5 155.8,188.5 155.8,188.4 155.8,188.4 
		155.9,188.3 155.9,188.3 155.9,188.2 156,188.2 156,188.1 156,188.1 156.1,188 156.1,188 156.1,187.9 156.2,187.9 156.2,187.8 
		156.2,187.8 156.3,187.7 156.3,187.7 156.3,187.6 156.3,187.6 156.4,187.5 156.4,187.5 156.4,187.4 156.5,187.4 156.5,187.3 
		156.5,187.3 156.5,187.2 156.6,187.2 156.6,187.2 156.6,187.1 156.6,187.1 156.7,187 156.7,187 156.7,186.9 156.7,186.9 
		156.8,186.8 156.8,186.8 156.8,186.7 156.8,186.7 157.2,186.5 	"/>
	<path class="st15" d="M134.5,170.8c-1.2,0.2-2.5,0.1-3.9-0.2"/>
	<polygon class="st13" points="130.7,170.1 130.7,170.1 130.8,170.1 130.9,170.2 130.9,170.2 131,170.2 131.1,170.2 131.1,170.2 
		131.2,170.2 131.3,170.2 131.3,170.3 131.4,170.3 131.4,170.3 131.5,170.3 131.6,170.3 131.6,170.3 131.7,170.3 131.8,170.3 
		131.8,170.4 131.9,170.4 131.9,170.4 132,170.4 132.1,170.4 132.1,170.4 132.2,170.4 132.3,170.4 132.3,170.4 132.4,170.4 
		132.4,170.5 132.5,170.5 132.6,170.5 132.6,170.5 132.7,170.5 132.7,170.5 132.8,170.5 132.9,170.5 132.9,170.5 133,170.5 
		133,170.5 133.1,170.5 133.1,170.5 133.2,170.5 133.3,170.5 133.3,170.5 133.4,170.5 133.4,170.5 133.5,170.5 133.5,170.5 
		133.6,170.5 133.6,170.5 133.7,170.5 133.8,170.5 133.8,170.5 133.9,170.5 133.9,170.5 134,170.5 134,170.5 134.1,170.5 
		134.1,170.5 134.2,170.5 134.3,170.5 134.3,170.5 134.4,170.5 134.4,170.5 134.5,170.5 134.8,170.8 134.5,171.1 134.5,171.1 
		134.4,171.1 134.4,171.1 134.3,171.2 134.3,171.2 134.2,171.2 134.1,171.2 134.1,171.2 134,171.2 134,171.2 133.9,171.2 
		133.9,171.2 133.8,171.2 133.7,171.2 133.7,171.2 133.6,171.2 133.6,171.2 133.5,171.3 133.4,171.3 133.4,171.3 133.3,171.3 
		133.3,171.3 133.2,171.3 133.1,171.3 133.1,171.3 133,171.3 132.9,171.3 132.9,171.3 132.8,171.3 132.8,171.3 132.7,171.3 
		132.6,171.3 132.6,171.3 132.5,171.3 132.4,171.3 132.4,171.3 132.3,171.3 132.2,171.3 132.2,171.3 132.1,171.3 132,171.3 
		132,171.3 131.9,171.3 131.8,171.2 131.8,171.2 131.7,171.2 131.6,171.2 131.6,171.2 131.5,171.2 131.4,171.2 131.4,171.2 
		131.3,171.2 131.2,171.2 131.2,171.2 131.1,171.2 131,171.2 131,171.2 130.9,171.1 130.8,171.1 130.7,171.1 130.7,171.1 
		130.6,171.1 130.5,171.1 130.5,171.1 130.5,171.1 130.1,170.9 130.1,170.5 130.1,170.5 130.3,170.2 130.7,170.1 	"/>
	<path class="st15" d="M139.6,178.5c0,1.4-6,0.2-8.4,0.4"/>
	<polygon class="st13" points="139.9,178.5 139.9,178.5 139.9,178.6 139.9,178.6 139.9,178.6 139.9,178.7 139.8,178.7 139.8,178.7 
		139.8,178.7 139.8,178.8 139.8,178.8 139.8,178.8 139.8,178.8 139.8,178.9 139.8,178.9 139.8,178.9 139.7,178.9 139.7,178.9 
		139.7,179 139.7,179 139.7,179 139.7,179 139.6,179 139.6,179.1 139.6,179.1 139.6,179.1 139.6,179.1 139.5,179.1 139.5,179.1 
		139.5,179.1 139.5,179.2 139.5,179.2 139.4,179.2 139.4,179.2 139.4,179.2 139.4,179.2 139.4,179.2 139.3,179.2 139.3,179.3 
		139.3,179.3 139.3,179.3 139.2,179.3 139.2,179.3 139.2,179.3 139.2,179.3 139.1,179.3 139.1,179.3 139.1,179.3 139.1,179.3 
		139,179.4 139,179.4 139,179.4 139,179.4 138.9,179.4 138.9,179.4 138.9,179.4 138.8,179.4 138.8,179.4 138.8,179.4 138.8,179.4 
		138.7,179.4 138.7,179.4 138.7,179.4 138.6,179.4 138.6,179.5 138.6,179.5 138.5,179.5 138.5,179.5 138.4,179.5 138.4,179.5 
		138.3,179.5 138.2,179.5 138.2,179.5 138.1,179.5 138,179.5 138,179.5 137.9,179.5 137.8,179.5 137.7,179.5 137.7,179.5 
		137.6,179.5 137.5,179.5 137.4,179.5 137.4,179.5 137.3,179.5 137.2,179.5 137.1,179.5 137,179.5 137,179.5 136.9,179.5 
		136.8,179.5 136.7,179.5 136.6,179.5 136.6,179.5 136.5,179.5 136.4,179.5 136.3,179.5 136.2,179.5 136.1,179.5 136,179.5 
		135.9,179.5 135.7,179.5 135.5,179.5 135.3,179.5 135.2,179.5 135,179.5 134.8,179.5 134.5,179.5 134.1,179.4 133.9,179.4 
		133.8,179.4 133.6,179.4 133.4,179.4 133.3,179.4 133.1,179.4 132.9,179.4 132.9,179.4 132.8,179.4 132.7,179.4 132.6,179.4 
		132.5,179.4 132.5,179.4 132.4,179.4 132.3,179.4 132.2,179.4 132.2,179.4 132.1,179.4 132,179.4 132,179.4 131.9,179.4 
		131.8,179.4 131.8,179.4 131.7,179.4 131.6,179.4 131.6,179.4 131.5,179.4 131.4,179.4 131.4,179.4 131.3,179.4 131.3,179.4 
		131.2,179.4 131.2,179.4 131.2,179.4 130.8,179.3 130.6,178.9 130.6,178.9 130.8,178.6 131.1,178.4 131.1,178.4 131.2,178.4 
		131.2,178.4 131.3,178.4 131.3,178.4 131.4,178.4 131.5,178.4 131.6,178.4 131.6,178.4 131.7,178.4 131.8,178.4 131.8,178.4 
		131.9,178.4 132,178.4 132.1,178.4 132.1,178.4 132.2,178.4 132.3,178.4 132.4,178.4 132.4,178.4 132.5,178.4 132.6,178.4 
		132.7,178.4 132.8,178.4 132.8,178.4 132.9,178.5 133,178.5 133.2,178.5 133.3,178.5 133.5,178.5 133.7,178.5 133.8,178.5 
		134,178.5 134.2,178.6 134.5,178.6 134.9,178.6 135.1,178.6 135.2,178.7 135.4,178.7 135.6,178.7 135.8,178.7 135.9,178.7 
		136.1,178.7 136.2,178.7 136.3,178.8 136.3,178.8 136.4,178.8 136.5,178.8 136.6,178.8 136.7,178.8 136.7,178.8 136.8,178.8 
		136.9,178.8 137,178.8 137.1,178.8 137.1,178.8 137.2,178.8 137.3,178.8 137.4,178.8 137.4,178.8 137.5,178.8 137.6,178.8 
		137.7,178.8 137.7,178.8 137.8,178.8 137.9,178.8 137.9,178.8 138,178.8 138.1,178.8 138.1,178.8 138.2,178.8 138.2,178.8 
		138.3,178.8 138.4,178.8 138.4,178.8 138.5,178.8 138.5,178.8 138.5,178.8 138.5,178.8 138.6,178.8 138.6,178.8 138.6,178.8 
		138.6,178.8 138.7,178.8 138.7,178.8 138.7,178.8 138.7,178.7 138.8,178.7 138.8,178.7 138.8,178.7 138.8,178.7 138.8,178.7 
		138.9,178.7 138.9,178.7 138.9,178.7 138.9,178.7 138.9,178.7 139,178.7 139,178.7 139,178.7 139,178.7 139,178.7 139,178.7 
		139,178.7 139.1,178.7 139.1,178.6 139.1,178.6 139.1,178.6 139.1,178.6 139.1,178.6 139.1,178.6 139.1,178.6 139.1,178.6 
		139.2,178.6 139.2,178.6 139.2,178.6 139.2,178.6 139.2,178.6 139.2,178.6 139.2,178.6 139.2,178.6 139.2,178.6 139.2,178.5 
		139.2,178.6 139.2,178.5 139.2,178.5 139.2,178.6 139.2,178.5 139.2,178.5 139.2,178.5 139.2,178.5 139.2,178.5 139.2,178.5 
		139.2,178.5 139.2,178.5 139.2,178.5 139.2,178.5 139.2,178.5 139.2,178.5 139.2,178.5 139.2,178.5 139.2,178.5 139.2,178.5 
		139.2,178.5 139.2,178.5 139.2,178.5 139.2,178.5 139.6,178.2 	"/>
	<path class="st15" d="M138.9,170.2c0,1.4-6.1,0.6-8.3,0.3"/>
	<polygon class="st13" points="139.2,170.3 139.2,170.3 139.2,170.3 139.2,170.3 139.2,170.4 139.2,170.4 139.2,170.4 139.2,170.4 
		139.2,170.5 139.2,170.5 139.2,170.5 139.1,170.5 139.1,170.6 139.1,170.6 139.1,170.6 139.1,170.6 139.1,170.7 139.1,170.7 
		139.1,170.7 139,170.7 139,170.7 139,170.8 139,170.8 139,170.8 139,170.8 138.9,170.8 138.9,170.8 138.9,170.9 138.9,170.9 
		138.9,170.9 138.8,170.9 138.8,170.9 138.8,170.9 138.8,170.9 138.8,171 138.7,171 138.7,171 138.7,171 138.7,171 138.6,171 
		138.6,171 138.6,171 138.6,171.1 138.5,171.1 138.5,171.1 138.5,171.1 138.5,171.1 138.4,171.1 138.4,171.1 138.4,171.1 
		138.4,171.1 138.3,171.1 138.3,171.2 138.3,171.2 138.3,171.2 138.2,171.2 138.2,171.2 138.2,171.2 138.1,171.2 138.1,171.2 
		138.1,171.2 138.1,171.2 138,171.2 138,171.2 138,171.2 137.9,171.2 137.9,171.3 137.9,171.3 137.8,171.3 137.8,171.3 137.7,171.3 
		137.6,171.3 137.6,171.3 137.5,171.3 137.4,171.3 137.4,171.3 137.3,171.3 137.2,171.3 137.2,171.4 137.1,171.4 137,171.4 
		136.9,171.4 136.9,171.4 136.8,171.4 136.7,171.4 136.6,171.4 136.5,171.4 136.5,171.4 136.4,171.4 136.3,171.4 136.2,171.4 
		136.1,171.4 136.1,171.4 136,171.4 135.9,171.4 135.8,171.4 135.7,171.4 135.6,171.4 135.6,171.4 135.5,171.4 135.4,171.4 
		135.3,171.4 135.2,171.4 135.1,171.4 135,171.4 134.9,171.4 134.9,171.4 134.8,171.4 134.7,171.4 134.6,171.4 134.5,171.4 
		134.4,171.4 134.3,171.4 134.2,171.4 134.2,171.4 134,171.4 133.8,171.3 133.6,171.3 133.5,171.3 133.3,171.3 133.1,171.3 
		132.9,171.3 132.8,171.3 132.6,171.3 132.4,171.3 132.3,171.2 132.1,171.2 132,171.2 131.8,171.2 131.5,171.2 131.2,171.1 
		131,171.1 130.7,171.1 130.5,171.1 130.5,171.1 130.2,170.9 130.1,170.5 130.1,170.5 130.3,170.2 130.6,170.1 130.6,170.1 
		130.8,170.1 131.1,170.2 131.3,170.2 131.6,170.2 131.9,170.3 132.1,170.3 132.2,170.3 132.4,170.3 132.5,170.3 132.7,170.4 
		132.9,170.4 133,170.4 133.2,170.4 133.4,170.4 133.5,170.5 133.7,170.5 133.9,170.5 134,170.5 134.2,170.5 134.3,170.5 
		134.4,170.5 134.5,170.5 134.6,170.6 134.6,170.6 134.7,170.6 134.8,170.6 134.9,170.6 135,170.6 135.1,170.6 135.2,170.6 
		135.2,170.6 135.3,170.6 135.4,170.6 135.5,170.6 135.6,170.6 135.7,170.6 135.7,170.6 135.8,170.6 135.9,170.6 136,170.6 
		136.1,170.6 136.1,170.7 136.2,170.7 136.3,170.7 136.4,170.7 136.5,170.7 136.5,170.7 136.6,170.7 136.7,170.7 136.8,170.7 
		136.8,170.7 136.9,170.7 137,170.6 137,170.6 137.1,170.6 137.2,170.6 137.2,170.6 137.3,170.6 137.4,170.6 137.4,170.6 
		137.5,170.6 137.6,170.6 137.6,170.6 137.7,170.6 137.7,170.6 137.8,170.6 137.8,170.6 137.8,170.6 137.8,170.6 137.9,170.6 
		137.9,170.6 137.9,170.6 137.9,170.6 138,170.6 138,170.5 138,170.5 138,170.5 138.1,170.5 138.1,170.5 138.1,170.5 138.1,170.5 
		138.1,170.5 138.2,170.5 138.2,170.5 138.2,170.5 138.2,170.5 138.2,170.5 138.3,170.5 138.3,170.5 138.3,170.5 138.3,170.5 
		138.3,170.4 138.3,170.4 138.4,170.4 138.4,170.4 138.4,170.4 138.4,170.4 138.4,170.4 138.4,170.4 138.4,170.4 138.5,170.4 
		138.5,170.4 138.5,170.4 138.5,170.4 138.5,170.4 138.5,170.4 138.5,170.3 138.5,170.3 138.5,170.3 138.5,170.3 138.6,170.3 
		138.6,170.3 138.6,170.3 138.6,170.3 138.6,170.3 138.6,170.3 138.6,170.3 138.6,170.3 138.6,170.3 138.6,170.3 138.6,170.3 
		138.6,170.3 138.6,170.3 138.6,170.3 138.6,170.3 138.6,170.3 138.6,170.3 138.6,170.3 138.6,170.3 138.6,170.3 138.6,170.2 
		138.6,170.3 138.6,170.3 138.6,170.2 138.6,170.3 138.6,170.2 138.6,170.2 138.9,169.9 	"/>
	<path class="st15" d="M141.3,184.9c-0.9,1.5-4.8,1-7.9,1"/>
	<polygon class="st13" points="141.6,185.1 141.6,185.1 141.6,185.1 141.6,185.1 141.5,185.1 141.5,185.2 141.5,185.2 141.5,185.2 
		141.5,185.2 141.5,185.3 141.5,185.3 141.4,185.3 141.4,185.3 141.4,185.3 141.4,185.3 141.4,185.4 141.4,185.4 141.3,185.4 
		141.3,185.4 141.3,185.4 141.3,185.5 141.3,185.5 141.2,185.5 141.2,185.5 141.2,185.5 141.2,185.5 141.2,185.6 141.1,185.6 
		141.1,185.6 141.1,185.6 141.1,185.6 141.1,185.6 141,185.6 141,185.7 141,185.7 141,185.7 141,185.7 140.9,185.7 140.9,185.7 
		140.9,185.7 140.9,185.8 140.8,185.8 140.8,185.8 140.8,185.8 140.8,185.8 140.7,185.8 140.7,185.8 140.7,185.8 140.7,185.9 
		140.6,185.9 140.6,185.9 140.6,185.9 140.6,185.9 140.5,185.9 140.5,185.9 140.5,185.9 140.5,185.9 140.4,186 140.4,186 140.4,186 
		140.4,186 140.3,186 140.3,186 140.3,186 140.2,186 140.1,186.1 140.1,186.1 140,186.1 140,186.1 139.9,186.1 139.9,186.1 
		139.8,186.1 139.7,186.2 139.7,186.2 139.6,186.2 139.6,186.2 139.5,186.2 139.4,186.2 139.4,186.2 139.3,186.2 139.2,186.2 
		139.2,186.3 139.1,186.3 139,186.3 139,186.3 138.9,186.3 138.8,186.3 138.8,186.3 138.7,186.3 138.6,186.3 138.6,186.3 
		138.5,186.3 138.4,186.3 138.4,186.3 138.3,186.3 138.2,186.4 138.2,186.4 138.1,186.4 138,186.4 137.9,186.4 137.9,186.4 
		137.8,186.4 137.7,186.4 137.7,186.4 137.6,186.4 137.5,186.4 137.4,186.4 137.4,186.4 137.3,186.4 137.2,186.4 137.1,186.4 
		136.9,186.4 136.8,186.4 136.6,186.4 136.5,186.4 136.3,186.4 136.2,186.4 136,186.4 135.9,186.4 135.6,186.4 135.2,186.4 
		134.9,186.4 134.8,186.4 134.6,186.4 134.5,186.4 134.3,186.4 134.2,186.4 134,186.4 133.9,186.4 133.8,186.4 133.6,186.4 
		133.5,186.4 133.5,186.4 133.5,186.4 133.1,186.3 133,185.9 133,185.9 133.1,185.6 133.5,185.4 133.5,185.4 133.5,185.4 
		133.6,185.4 133.8,185.4 133.9,185.4 134.1,185.4 134.2,185.4 134.4,185.4 134.5,185.4 134.7,185.5 134.8,185.5 135,185.5 
		135.3,185.5 135.6,185.5 135.9,185.5 136,185.5 136.2,185.5 136.3,185.5 136.5,185.5 136.6,185.5 136.8,185.6 136.9,185.6 
		137.1,185.6 137.2,185.6 137.3,185.6 137.4,185.6 137.4,185.6 137.5,185.6 137.6,185.6 137.6,185.6 137.7,185.6 137.8,185.6 
		137.9,185.6 137.9,185.6 138,185.6 138.1,185.6 138.1,185.6 138.2,185.6 138.3,185.6 138.3,185.6 138.4,185.6 138.5,185.6 
		138.5,185.6 138.6,185.6 138.7,185.6 138.7,185.6 138.8,185.5 138.8,185.5 138.9,185.5 139,185.5 139,185.5 139.1,185.5 
		139.1,185.5 139.2,185.5 139.3,185.5 139.3,185.5 139.4,185.5 139.4,185.5 139.5,185.5 139.5,185.5 139.6,185.5 139.7,185.4 
		139.7,185.4 139.8,185.4 139.8,185.4 139.9,185.4 139.9,185.4 140,185.4 140,185.4 140.1,185.4 140.1,185.3 140.1,185.3 
		140.1,185.3 140.2,185.3 140.2,185.3 140.2,185.3 140.2,185.3 140.3,185.3 140.3,185.3 140.3,185.3 140.3,185.3 140.3,185.3 
		140.4,185.3 140.4,185.2 140.4,185.2 140.4,185.2 140.4,185.2 140.5,185.2 140.5,185.2 140.5,185.2 140.5,185.2 140.5,185.2 
		140.5,185.2 140.6,185.2 140.6,185.2 140.6,185.1 140.6,185.1 140.6,185.1 140.7,185.1 140.7,185.1 140.7,185.1 140.7,185.1 
		140.7,185.1 140.7,185.1 140.7,185.1 140.8,185 140.8,185 140.8,185 140.8,185 140.8,185 140.8,185 140.8,185 140.9,185 140.9,185 
		140.9,185 140.9,184.9 140.9,184.9 140.9,184.9 140.9,184.9 140.9,184.9 141,184.9 141,184.9 141,184.9 141,184.8 141,184.8 
		141,184.8 141,184.8 141,184.8 141,184.8 141,184.8 141.1,184.8 141.1,184.7 141.1,184.7 141.5,184.6 	"/>
	<path class="st15" d="M129.9,163.5c1.1-1.8,4.4-2.8,4.4-2.8c4,0.7,8.5,0.4,6.7,2.3"/>
	<path class="st12" d="M129.9,163.5c1.1-1.8,4.4-2.8,4.4-2.8c4,0.7,8.5,0.4,6.7,2.3"/>
	<polygon class="st13" points="90.9,224.6 91,224.6 91,224.6 91.1,224.6 91.2,224.7 91.2,224.7 91.3,224.7 91.4,224.7 91.5,224.7 
		91.5,224.7 91.6,224.7 91.7,224.7 91.8,224.7 91.8,224.7 91.9,224.7 92,224.7 92,224.7 92.1,224.7 92.2,224.7 92.3,224.7 
		92.3,224.7 92.4,224.8 92.5,224.8 92.5,224.8 92.6,224.8 92.7,224.8 92.8,224.8 92.8,224.8 92.9,224.8 93,224.8 93,224.9 
		93.1,224.9 93.2,224.9 93.3,224.9 93.3,224.9 93.4,224.9 93.5,224.9 93.5,225 93.6,225 93.7,225 93.8,225 93.8,225 93.9,225.1 
		94,225.1 94,225.1 94,225.1 94.3,225.3 94.4,225.7 94.4,225.7 94.1,226 93.7,226 93.7,226 93.7,226 93.6,226 93.5,226 93.5,226 
		93.4,225.9 93.3,225.9 93.3,225.9 93.2,225.9 93.2,225.9 93.1,225.8 93,225.8 93,225.8 92.9,225.8 92.8,225.8 92.8,225.7 
		92.7,225.7 92.6,225.7 92.6,225.7 92.5,225.7 92.4,225.7 92.4,225.7 92.3,225.6 92.2,225.6 92.2,225.6 92.1,225.6 92.1,225.6 
		92,225.6 91.9,225.6 91.9,225.5 91.8,225.5 91.7,225.5 91.7,225.5 91.6,225.5 91.5,225.5 91.5,225.5 91.4,225.5 91.3,225.5 
		91.3,225.5 91.2,225.5 91.1,225.4 91.1,225.4 91,225.4 90.9,225.4 90.8,225.4 90.8,225.4 90.7,225.4 90.6,225.4 90.6,225.4 
		90.5,225.4 90.4,225.4 90.4,225.4 90.3,225.4 90.2,225.4 90.2,225.4 90.1,225.4 90,225.4 90,225.4 89.9,225.4 89.8,225.4 
		89.7,225.4 89.7,225.4 89.6,225.4 89.5,225.4 89.5,225.4 89.4,225.4 89.3,225.4 89.3,225.4 89.2,225.4 89.1,225.4 89,225.4 
		89,225.4 88.9,225.4 88.8,225.4 88.8,225.4 88.7,225.4 88.6,225.4 88.5,225.4 88.5,225.5 88.4,225.5 88.3,225.5 88.3,225.5 
		88.2,225.5 88.1,225.5 88,225.5 88,225.5 87.9,225.5 87.8,225.5 87.7,225.5 87.7,225.6 87.6,225.6 87.5,225.6 87.5,225.6 
		87.4,225.6 87.3,225.6 87.2,225.6 87.2,225.6 87.1,225.7 87,225.7 86.9,225.7 86.9,225.7 86.8,225.7 86.7,225.7 86.6,225.7 
		86.6,225.8 86.5,225.8 86.4,225.8 86.3,225.8 86.3,225.8 86.2,225.8 86.1,225.9 86,225.9 86,225.9 85.9,225.9 85.8,225.9 
		85.7,225.9 85.7,226 85.6,226 85.5,226 85.4,226 85.4,226 85.3,226.1 85.2,226.1 85.1,226.1 85.1,226.1 85,226.2 84.9,226.2 
		84.8,226.2 84.8,226.2 84.5,226.1 84.6,225.9 84.7,225.9 84.8,225.9 84.9,225.8 84.9,225.8 85,225.8 85.1,225.7 85.2,225.7 
		85.3,225.7 85.3,225.7 85.4,225.6 85.5,225.6 85.6,225.6 85.6,225.6 85.7,225.5 85.8,225.5 85.9,225.5 85.9,225.5 86,225.4 
		86.1,225.4 86.2,225.4 86.2,225.4 86.3,225.4 86.4,225.3 86.5,225.3 86.5,225.3 86.6,225.3 86.7,225.2 86.8,225.2 86.8,225.2 
		86.9,225.2 87,225.2 87.1,225.1 87.1,225.1 87.2,225.1 87.3,225.1 87.4,225.1 87.4,225.1 87.5,225 87.6,225 87.6,225 87.7,225 
		87.8,225 87.9,225 87.9,224.9 88,224.9 88.1,224.9 88.2,224.9 88.2,224.9 88.3,224.9 88.4,224.9 88.5,224.8 88.5,224.8 88.6,224.8 
		88.7,224.8 88.8,224.8 88.8,224.8 88.9,224.8 89,224.8 89.1,224.8 89.1,224.8 89.2,224.7 89.3,224.7 89.3,224.7 89.4,224.7 
		89.5,224.7 89.6,224.7 89.6,224.7 89.7,224.7 89.8,224.7 89.9,224.7 89.9,224.7 90,224.7 90.1,224.7 90.2,224.7 90.2,224.7 
		90.3,224.7 90.4,224.7 90.4,224.7 90.5,224.6 90.6,224.6 90.7,224.6 90.7,224.6 90.8,224.6 	"/>
	<polygon class="st13" points="85.6,222.5 85.7,222.5 85.8,222.5 85.9,222.5 85.9,222.5 86,222.5 86.1,222.5 86.1,222.5 86.2,222.5 
		86.3,222.5 86.4,222.5 86.4,222.5 86.5,222.5 86.6,222.5 86.6,222.5 86.7,222.5 86.8,222.5 86.9,222.5 86.9,222.5 87,222.5 
		87.1,222.5 87.1,222.5 87.2,222.5 87.3,222.5 87.3,222.5 87.4,222.5 87.5,222.5 87.6,222.6 87.6,222.6 87.7,222.6 87.8,222.6 
		87.8,222.6 87.9,222.6 88,222.6 88,222.6 88.1,222.6 88.2,222.6 88.2,222.6 88.3,222.6 88.4,222.7 88.4,222.7 88.5,222.7 
		88.6,222.7 88.6,222.7 88.7,222.7 88.8,222.7 88.8,222.7 88.9,222.7 89,222.8 89,222.8 89.1,222.8 89.2,222.8 89.2,222.8 
		89.3,222.8 89.4,222.8 89.4,222.9 89.5,222.9 89.6,222.9 89.6,222.9 89.7,222.9 89.8,222.9 89.8,223 89.9,223 89.9,223 90,223 
		90.1,223 90.1,223 90.2,223.1 90.3,223.1 90.3,223.1 90.4,223.1 90.5,223.1 90.5,223.2 90.6,223.2 90.6,223.2 90.7,223.2 
		90.8,223.2 90.8,223.3 90.9,223.3 91,223.3 91,223.3 91.1,223.4 91.1,223.4 91.2,223.4 91.3,223.4 91.3,223.4 91.4,223.5 
		91.4,223.5 91.5,223.5 91.6,223.5 91.6,223.6 91.7,223.6 91.7,223.6 91.8,223.7 91.9,223.7 91.9,223.7 92,223.7 92,223.8 
		92.1,223.8 92.1,223.8 92.2,223.9 92.3,223.9 92.3,223.9 92.4,223.9 92.4,224 92.5,224 92.5,224 92.6,224.1 92.7,224.1 92.7,224.1 
		92.8,224.2 92.8,224.2 92.9,224.2 92.9,224.3 93,224.3 93.1,224.3 93.1,224.4 93.2,224.4 93.2,224.4 93.3,224.5 93.3,224.5 
		93.4,224.6 93.4,224.6 93.5,224.6 93.5,224.7 93.6,224.7 93.6,224.8 93.7,224.8 93.7,224.8 93.9,225.1 93.8,225.5 93.8,225.5 
		93.4,225.7 93.1,225.6 93.1,225.6 93,225.5 93,225.5 92.9,225.4 92.9,225.4 92.8,225.4 92.8,225.3 92.7,225.3 92.7,225.3 
		92.7,225.2 92.6,225.2 92.6,225.1 92.5,225.1 92.5,225.1 92.4,225 92.4,225 92.3,225 92.3,224.9 92.2,224.9 92.2,224.9 92.1,224.8 
		92.1,224.8 92,224.8 92,224.7 91.9,224.7 91.9,224.7 91.8,224.6 91.8,224.6 91.7,224.6 91.7,224.5 91.6,224.5 91.6,224.5 
		91.5,224.5 91.5,224.4 91.4,224.4 91.4,224.4 91.3,224.3 91.3,224.3 91.2,224.3 91.2,224.2 91.1,224.2 91,224.2 91,224.2 
		90.9,224.1 90.9,224.1 90.8,224.1 90.8,224.1 90.7,224 90.7,224 90.6,224 90.6,224 90.5,223.9 90.4,223.9 90.4,223.9 90.3,223.9 
		90.3,223.8 90.2,223.8 90.2,223.8 90.1,223.8 90,223.7 90,223.7 89.9,223.7 89.9,223.7 89.8,223.7 89.7,223.6 89.7,223.6 
		89.6,223.6 89.6,223.6 89.5,223.5 89.4,223.5 89.4,223.5 89.3,223.5 89.3,223.5 89.2,223.4 89.1,223.4 89.1,223.4 89,223.4 
		89,223.4 88.9,223.4 88.8,223.3 88.8,223.3 88.7,223.3 88.6,223.3 88.6,223.3 88.5,223.3 88.5,223.2 88.4,223.2 88.3,223.2 
		88.3,223.2 88.2,223.2 88.1,223.2 88.1,223.2 88,223.1 87.9,223.1 87.9,223.1 87.8,223.1 87.7,223.1 87.7,223.1 87.6,223.1 
		87.5,223 87.5,223 87.4,223 87.3,223 87.3,223 87.2,223 87.1,223 87.1,223 87,223 86.9,222.9 86.9,222.9 86.8,222.9 86.7,222.9 
		86.7,222.9 86.6,222.9 86.5,222.9 86.5,222.9 86.4,222.9 86.3,222.9 86.3,222.8 86.2,222.8 86.1,222.8 86,222.8 86,222.8 
		85.9,222.8 85.8,222.8 85.8,222.8 85.7,222.8 85.6,222.8 85.6,222.8 85.4,222.6 85.6,222.5 	"/>
	<line class="st12" x1="82.8" y1="277" x2="84.2" y2="283.5"/>
	<line class="st12" x1="95.6" y1="275.2" x2="97.1" y2="283.9"/>
</g>
</svg>
