<?xml version="1.0" encoding="utf-8"?>
<!-- Generator: Adobe Illustrator 22.1.0, SVG Export Plug-In . SVG Version: 6.00 Build 0)  -->
<svg version="1.1" id="Слой_3" xmlns="http://www.w3.org/2000/svg" xmlns:xlink="http://www.w3.org/1999/xlink" x="0px" y="0px"
	 viewBox="0 0 512 512" style="enable-background:new 0 0 512 512;" xml:space="preserve">
<style type="text/css">
	.st0{fill:none;stroke:#000000;stroke-width:5;stroke-linecap:round;stroke-linejoin:round;stroke-miterlimit:10;}
	.st1{fill:#4D7450;stroke:#000000;stroke-width:2;stroke-linecap:round;stroke-linejoin:round;stroke-miterlimit:10;}
	.st2{fill:#FDCD95;stroke:#000000;stroke-width:2;stroke-linecap:round;stroke-linejoin:round;stroke-miterlimit:10;}
	.st3{fill:none;stroke:#000000;stroke-width:2;stroke-linecap:round;stroke-linejoin:round;stroke-miterlimit:10;}
	.st4{fill:#635A44;stroke:#000000;stroke-width:2;stroke-linecap:round;stroke-linejoin:round;stroke-miterlimit:10;}
	.st5{fill:#635A44;stroke:#000000;stroke-width:2.1264;stroke-linecap:round;stroke-linejoin:round;stroke-miterlimit:10;}
	.st6{fill:#878787;stroke:#000000;stroke-width:2.0516;stroke-linecap:round;stroke-linejoin:round;stroke-miterlimit:10;}
	.st7{fill:#878787;stroke:#000000;stroke-width:2.026;stroke-linecap:round;stroke-linejoin:round;stroke-miterlimit:10;}
	.st8{fill:#F2DE29;stroke:#000000;stroke-width:2;stroke-linecap:round;stroke-linejoin:round;stroke-miterlimit:10;}
	.st9{fill:#FFD56E;stroke:#000000;stroke-width:2;stroke-linecap:round;stroke-linejoin:round;stroke-miterlimit:10;}
	.st10{fill:#685742;stroke:#000000;stroke-width:2;stroke-linecap:round;stroke-linejoin:round;stroke-miterlimit:10;}
	.st11{fill:#FDCD95;stroke:#000000;stroke-width:3;stroke-linecap:round;stroke-linejoin:round;stroke-miterlimit:10;}
	.st12{fill:none;stroke:#000000;stroke-width:3;stroke-linecap:round;stroke-linejoin:round;stroke-miterlimit:10;}
	.st13{fill:#857154;stroke:#000000;stroke-width:2;stroke-linecap:round;stroke-linejoin:round;stroke-miterlimit:10;}
	.st14{fill:#FFFFFF;}
	.st15{fill:#9D9D9C;stroke:#000000;stroke-width:2;stroke-linecap:round;stroke-linejoin:round;stroke-miterlimit:10;}
	.st16{fill:#FFD56E;stroke:#000000;stroke-linecap:round;stroke-linejoin:round;stroke-miterlimit:10;}
	.st17{fill:#F6F6F6;stroke:#000000;stroke-linecap:round;stroke-linejoin:round;stroke-miterlimit:10;}
	.st18{fill:#816164;stroke:#000000;stroke-width:2;stroke-linecap:round;stroke-linejoin:round;stroke-miterlimit:10;}
	.st19{fill:#503941;stroke:#000000;stroke-width:2;stroke-linecap:round;stroke-linejoin:round;stroke-miterlimit:10;}
	.st20{fill:#F0E3B2;stroke:#000000;stroke-width:2;stroke-linecap:round;stroke-linejoin:round;stroke-miterlimit:10;}
	.st21{fill:#B5D758;stroke:#000000;stroke-width:2;stroke-linecap:round;stroke-linejoin:round;stroke-miterlimit:10;}
	.st22{fill:none;stroke:#000000;stroke-width:1.4803;stroke-linecap:round;stroke-linejoin:round;stroke-miterlimit:10;}
	.st23{fill:#AAD3E5;stroke:#000000;stroke-width:2;stroke-linecap:round;stroke-linejoin:round;stroke-miterlimit:10;}
	.st24{fill:#3C3C3B;stroke:#000000;stroke-width:2;stroke-linecap:round;stroke-linejoin:round;stroke-miterlimit:10;}
	.st25{fill:#5D827A;stroke:#000000;stroke-width:2;stroke-linecap:round;stroke-linejoin:round;stroke-miterlimit:10;}
</style>
<g>
	<line class="st0" x1="176.1" y1="345.4" x2="162" y2="446.9"/>
	<line class="st0" x1="278.1" y1="345.8" x2="297.7" y2="446.4"/>
	<line class="st0" x1="270" y1="253.4" x2="271" y2="274.6"/>
	<g>
		<path class="st1" d="M221.7,401.6c-6.9,14.3-21.7,3.9-21.7,3.9c-1.1-4.1-2.1-8.3-3.1-12.5c5.7,1.2,16.3,2.2,24-3.7
			C221.3,393.3,221.5,397.5,221.7,401.6z"/>
		<path class="st2" d="M196.9,393c-5.5-24.1-8.1-48.2,4.1-46.4c12.6,1.8,18,21.4,19.9,42.7C213.2,395.2,202.6,394.2,196.9,393z"/>
		<path class="st1" d="M220.4,439c0,0-1.6,4.6-10.2,0.3c0,0-5.3-15.5-10.2-33.8c0,0,14.8,10.4,21.7-3.9
			C222.2,416.8,221.3,431.3,220.4,439z"/>
	</g>
	<g>
		<path class="st1" d="M234.7,403.6c6.9,14.3,21.7,3.9,21.7,3.9c1.1-4.1,2.1-8.3,3.1-12.5c-5.7,1.2-16.3,2.2-24-3.7
			C235.1,395.4,234.9,399.6,234.7,403.6z"/>
		<path class="st2" d="M259.5,395.1c5.5-24.1,8.1-48.2-4.1-46.4c-12.6,1.8-18,21.4-19.9,42.7C243.2,397.3,253.8,396.2,259.5,395.1z"
			/>
		<path class="st1" d="M236,441c0,0,1.6,4.6,10.2,0.3c0,0,5.3-15.5,10.2-33.8c0,0-14.8,10.4-21.7-3.9
			C234.2,418.9,235.1,433.3,236,441z"/>
	</g>
	<path class="st4" d="M267.5,258.4H197c-8.3,0-15-6.7-15-15v-7.5c0-8.3,6.7-15,15-15h70.5c8.3,0,15,6.7,15,15v7.5
		C282.5,251.7,275.8,258.4,267.5,258.4z"/>
	<polygon class="st5" points="282.5,353.7 169,353.7 188,288.1 269,282 	"/>
	<polygon class="st6" points="116,300.5 126.5,439.4 133,429.4 124.5,298.4 	"/>
	<polygon class="st7" points="464.5,301.9 457.5,430.7 464.5,439.4 471.5,301.9 	"/>
	<line class="st0" x1="141.5" y1="420.9" x2="118.5" y2="449.9"/>
	<line class="st0" x1="448" y1="419.9" x2="475" y2="451.9"/>
	<path class="st8" d="M194,294.3l-5.2,72.4c0,0,10.2-15,29.2,0.4l9.2-40.3c0-0.1,0.2-0.1,0.2,0l12.1,39.3c0,0,19-14.7,28.3,2.9
		c0,0-2.6-68.9-8.3-72.6C253.8,292.7,194,294.3,194,294.3z"/>
	<path class="st2" d="M307.8,131c0,0-20-28.4-18-34.1s7.2,6.9,8.9,2.3c1.7-4.7-3.4-19.3,0-19.7s5.7,14.3,7.7,12s1.3-24.7,4.7-18.2
		c3.3,6.5,2.3,19.9,4.7,16.5c2.3-3.3,4.3-22,6-13.8s-0.7,21.8,2,18.2c2.7-3.7,5.7-14,6-8s-3.7,26-8.3,31.7
		c-4.7,5.7-6.3,17.1-6.3,17.1l-5.4-4.9L307.8,131z"/>
	<path class="st1" d="M218.7,192.4c0,0-18.9-3-42.2,27.3c-22.3,29-42.2,44.9-13.5,51.2c2.4,0.5,4.8,1.4,7.1,2.3
		c3.7,1.5,9.9,2.6,12.2-4.8c3.4-11,5.4-12,5.4-12l-11.3-5.3l17-14.3l-0.6,72.9h70.3c0,0-7.1-58.3-6.4-69.6
		c0.7-11.3,6.7-20.3,10-22.3s32.9-16.3,34.7-18.3c3.2-3.8,16.7-15.3,17-40.7c0.3-22.7,3.8-36.3-9.9-34.2c-3.2,0.5-5.8,2.9-6.6,6.1
		c-3,11.7-11.2,41.4-17.8,43.8c-8.3,3-45.4,13.5-45.4,13.5L218.7,192.4z"/>
	<path class="st9" d="M221.2,73.2c0,0-5-13.1-10.3-17.1s-27.4-17.3-43.7,14.3s-16,67.3-6.3,85.3s20.8,36.3,21.6,43.7
		c0.8,7.3,12.4-3.8,16.3-12.3c3.9-8.5,0-25.5,0-25.5l-4.5-29.3l4.5-31.1L221.2,73.2z"/>
	<rect x="106.7" y="290.2" class="st10" width="375.8" height="8.3"/>
	<ellipse class="st11" cx="263.6" cy="140.7" rx="5.1" ry="11.6"/>
	<path class="st2" d="M213.7,176.4c0.4,1.3,0,17.7,0,17.7s11.1,12,24.1,0v-17.7H213.7z"/>
	
		<ellipse transform="matrix(0.9652 -0.2615 0.2615 0.9652 -31.5244 53.1084)" class="st11" cx="183.8" cy="145" rx="9.3" ry="11.9"/>
	<path class="st1" d="M186.5,81.1c0,0,1.1-24.7,24.4-12.2l-10.4,12.2H186.5z"/>
	<path class="st11" d="M263.6,133.8c-1.8,28.4-14.6,51.3-37.3,51.3c-22.2,0-40.6-20.9-44-48.2c3.6-3.1,8.4-8.6,9-16
		c0,0,33,11.5,46,5c0,0-6-4-7-6.5s15.3,2,21.8-6.5l7.2,27C259.4,139.9,261.4,137.7,263.6,133.8z"/>
	<path class="st9" d="M263.6,133.8c-2.3,3.9-4.3,6.1-4.3,6.1l-7.2-27c-6.5,8.5-22.8,4-21.8,6.5s7,6.5,7,6.5c-13,6.5-46-5-46-5
		c-0.6,7.4-5.4,12.9-9,16c-2.3,2-4,3-4,3l-7.7-17.1c-3.7-8.2-4.5-17.5-2-26.1c6.8-22.9,29.7-20.8,29.7-20.8
		c40.2-28,63.8,8.7,63.8,8.7C276,105.8,269,124.5,263.6,133.8z"/>
	<path class="st12" d="M191.2,105.4c0,0,0.6,12.8,0.2,15.5"/>
	<path class="st12" d="M216.8,102.6c0,0,9.2,16.8,15.2,15.9"/>
	<path class="st12" d="M233.8,94.1c0,0,5.7,15.1,18.4,18.8"/>
	<path class="st3" d="M204.5,79.7c0,0,55.9-21.7,59.1,38"/>
	<path class="st3" d="M191.2,86.1c0,0-20.9,7.3-12.8,53.8"/>
	<ellipse cx="207.5" cy="141.6" rx="4.3" ry="7.4"/>
	<polygon class="st13" points="482.5,290.2 106.7,290.2 127.5,275.2 271,274.6 462,273.9 	"/>
	<g>
		<path d="M196,138.1c1.1-0.1,2.1-0.2,3.2-0.4c1-0.2,2-0.5,3-0.8c1-0.3,1.8-0.9,2.8-1.2c1-0.3,1.9-0.7,3-1l0,0c0.1,0,0.1,0,0.1,0.1
			c0,0,0,0,0,0.1c-0.5,1.1-1.3,2-2.3,2.6c-1,0.6-2.2,0.8-3.3,1c-1.1,0.2-2.2,0.3-3.3,0.2c-1.1-0.1-2.2-0.1-3.3-0.4
			C195.9,138.3,195.9,138.3,196,138.1C195.9,138.2,195.9,138.1,196,138.1L196,138.1z"/>
	</g>
	<path class="st3" d="M210.9,132.5c0,0-10.1-5-14.3,2.9"/>
	<rect x="111.5" y="298.4" class="st10" width="367.5" height="7"/>
	<rect x="116" y="313.4" class="st10" width="355.5" height="9.5"/>
	<ellipse cx="241.2" cy="140.6" rx="4.3" ry="7.4"/>
	<g>
		<path d="M252.8,137.3c-1.1,0.3-2.2,0.4-3.3,0.4c-1.1,0-2.2,0-3.3-0.2c-1.1-0.2-2.3-0.3-3.3-1c-1-0.6-1.8-1.5-2.3-2.6
			c0-0.1,0-0.1,0.1-0.1c0,0,0,0,0.1,0l0,0c1.2,0.3,2.1,0.7,3,1c0.9,0.3,1.8,0.9,2.8,1.2c1,0.3,2,0.6,3,0.8c1,0.2,2.1,0.3,3.2,0.4
			l0,0C252.8,137.1,252.8,137.2,252.8,137.3C252.8,137.3,252.8,137.3,252.8,137.3z"/>
	</g>
	<circle class="st14" cx="241.2" cy="139.7" r="1.7"/>
	<circle class="st14" cx="208" cy="139.7" r="1.7"/>
	<path class="st3" d="M237.9,131.5c0,0,10.1-5,14.3,2.9"/>
	<path class="st3" d="M221.4,151.8c0,0,6.3-3.4,9.4,0"/>
	<polygon class="st15" points="204.2,256.4 197.5,247.7 200.8,245.4 209.7,258.3 	"/>
	<path class="st3" d="M213.7,163.3c0,0,15.9,20.4,25.1-1.8"/>
	<path class="st2" d="M187.2,257.4l3.5,2.5c0,0,9-10,19-1.6s14.5,13.4,5.8,10.1c0,0,6.3,10.3-4.8,4.8c0,0-9.3,11-22.8,1.6l-6.2-4.8
		L187.2,257.4z"/>
	<line class="st3" x1="176.5" y1="251.1" x2="167.2" y2="247.4"/>
	<path class="st3" d="M187.2,265.4c0,0,1.5-3.8,3.5-5.5"/>
	<line class="st3" x1="201" y1="266.7" x2="210.7" y2="273.2"/>
	<path class="st3" d="M203,261.4c0,0,11.5,5.1,12.5,7"/>
	<path class="st3" d="M213,193.4c0,0-11.2,9.4-2.3,14.3c8.4,4.7,13.6-7.4,13.6-7.4s5.7,10.5,12.9,6.2c2.9-1.7,4.6-5.1,3.7-8.3
		c-0.4-1.4-1.3-2.9-3.1-4.1"/>
	<line class="st3" x1="224.3" y1="200.3" x2="224.3" y2="223.2"/>
	<circle class="st16" cx="224.8" cy="228.7" r="3.6"/>
	<circle class="st16" cx="224.8" cy="238.3" r="3.6"/>
	<circle class="st16" cx="224.8" cy="247.9" r="3.6"/>
	<circle class="st16" cx="224.8" cy="257.4" r="3.6"/>
	<polygon class="st17" points="209,277.9 219,287.9 255.5,284.4 244.5,274.9 	"/>
	<rect x="20.5" y="124.3" class="st3" width="117.4" height="30.4"/>
	<line class="st3" x1="20.5" y1="131.9" x2="137.8" y2="131.9"/>
	<line class="st3" x1="20.5" y1="139.5" x2="137.8" y2="139.5"/>
	<line class="st3" x1="20.5" y1="147.2" x2="137.8" y2="147.2"/>
	<line class="st3" x1="60.2" y1="136.4" x2="60.2" y2="160.2"/>
	<ellipse transform="matrix(0.866 -0.5 0.5 0.866 -73.6304 50.0044)" cx="56.5" cy="162.4" rx="4.9" ry="2.4"/>
	<line class="st3" x1="46.2" y1="162.4" x2="64.7" y2="162.4"/>
	<g>
		<line class="st3" x1="81.6" y1="136.4" x2="81.6" y2="160.2"/>
		<ellipse transform="matrix(0.866 -0.5 0.5 0.866 -70.7631 60.7054)" cx="77.9" cy="162.4" rx="4.9" ry="2.4"/>
	</g>
	<g>
		<line class="st3" x1="102.5" y1="122.3" x2="102.5" y2="146"/>
		<ellipse transform="matrix(0.866 -0.5 0.5 0.866 -60.9093 69.2388)" cx="98.7" cy="148.3" rx="4.9" ry="2.4"/>
	</g>
	<g>
		<line class="st3" x1="127" y1="113.5" x2="127" y2="137.3"/>
		<ellipse transform="matrix(0.866 -0.5 0.5 0.866 -53.2546 80.3173)" cx="123.2" cy="139.5" rx="4.9" ry="2.4"/>
	</g>
	<line class="st3" x1="67.6" y1="162.4" x2="86.1" y2="162.4"/>
	<path class="st3" d="M29,146c0,0,5.9-14.7,13.5-4.6c6.9,9.2-7,16.2-13.5,11c-6.5-5.2-4-13.8,6.5-23.5c9-8.4,5.9-25-0.2-17.8
		c-2.3,2.8-3,6.6-1.9,10c3.1,10.2,8.6,34.6,4.6,41.2c-5,8.5-12.4,1.5-12.6,0"/>
	<circle cx="26.8" cy="161.9" r="2.4"/>
	<g>
		<path d="M50.4,85.6c0.7-0.1,2.3,0.2,2.3,1.1c-0.1,0.9-1.5,1.4-2.3,1.5c-3.5,0.5-7.3,0.7-10.8,0.7c-1,0-2.9-0.1-2.9-1.3
			c0-0.4,0.2-1.2,0.5-1.5c3.6-6.6,9.1-16.9,11.1-23.9c0.3-1.2,0.8-5-1.4-5c-2.6,0-5.6,3.9-6.3,6.3c-0.1,0.6-0.4,0.9-1,0.9
			c-0.9,0-1.9-0.9-1.9-1.7c0-3.7,5.4-8.1,9.6-8.1c3.5,0,5.4,2.1,5.4,5.5c0,5.1-6.9,18.6-9.4,23.8c-0.3,0.6-0.8,1.3-0.8,2
			c0,0.3,0.2,0.4,0.5,0.4C45.4,86.4,47.9,85.8,50.4,85.6z"/>
		<path d="M71.6,69.2c0.7,0,3.2,0.3,3.2,1.4c0,0.9-1.5,1-2.1,1c-0.8,0-4.6-0.3-4.8,0.3c-0.1,0.3-0.4,5.4-0.4,6
			c0,1.4-0.2,1.9-1.7,1.9c-1.4,0-2.6-0.3-2.6-2c0-1.8,0.2-3.4,0.2-5.1c0-0.7-0.5-0.9-1.1-0.9c-0.9,0-1.5,0-2.4,0
			c-0.6,0-2.3-0.5-2.3-1.3c0-1.3,4.1-1,5-1c0.8,0,1.3-0.1,1.4-0.7c0.3-1.1,0-7.3,2.8-7.3c1.3,0,2.1,0.6,2.1,1.9
			c0,1.7-0.6,3.2-0.6,4.8c0,0.4,0.1,1,0.7,1C69.7,69.3,70.6,69.2,71.6,69.2z"/>
		<path d="M93.1,85.6c0.7-0.1,2.3,0.2,2.3,1.1c-0.1,0.9-1.5,1.4-2.3,1.5c-3.5,0.5-7.3,0.7-10.8,0.7c-1,0-2.9-0.1-2.9-1.3
			c0-0.4,0.2-1.2,0.5-1.5C83.5,79.6,89,69.3,91,62.3c0.3-1.2,0.8-5-1.4-5c-2.6,0-5.6,3.9-6.3,6.3c-0.1,0.6-0.4,0.9-1,0.9
			c-0.9,0-1.9-0.9-1.9-1.7c0-3.7,5.4-8.1,9.6-8.1c3.5,0,5.4,2.1,5.4,5.5c0,5.1-6.9,18.6-9.4,23.8c-0.3,0.6-0.8,1.3-0.8,2
			c0,0.3,0.2,0.4,0.5,0.4C88.1,86.4,90.6,85.8,93.1,85.6z"/>
		<path d="M117.2,67.9c0,0.9-1,1-1.7,1c-2.1,0-3.6-0.5-5.8-0.5c-2.1,0-4.4-0.1-6.5,0.3c-0.3,0.1-0.7,0.1-1,0.1
			c-0.7,0-1.9-0.5-1.9-1.3c0-1.3,7.9-1.1,9.2-1.1C110.6,66.4,117.2,66.3,117.2,67.9z M112.2,73.3c0.9,0,3.4,0.2,3.4,1.4
			c0,0.9-2,1-2.7,1c-2.9,0-5.6-0.2-8.5-0.2c-0.8,0-4,0.3-4-1.1c0-0.9,2.5-0.9,3.1-0.9C106.4,73.4,109.3,73.3,112.2,73.3z"/>
		<path d="M139.7,79c0.2,0.1,1.6,0,1.9,0c1-0.1,0.9,0.5,0.9,1.4c0,0.8-1.5,0.9-2.1,0.9c-1.3,0-1.4,0.1-1.4,1.4
			c0,1.7-0.2,3.4-0.3,5.1c-0.1,1.2,0.2,2.5-1.4,2.7c-0.2,0.1-0.4,0.1-0.6,0.1c-1.4,0-2.7-0.3-2.7-1.9c0-1.9,0.5-3.8,0.5-5.7
			c0-0.6-0.2-1-0.8-1c-3,0-6.1,1.1-9.1,1.1c-1.1,0-2.6-0.3-2.6-1.7c0-4.1,5.1-17.9,6.3-22.7c0.3-1,0.5-2,0.7-3
			c0.2-0.7,0.6-0.9,1.3-0.9c1.3,0,2.1,0.5,2.1,1.9c0,6-3.6,15.3-5,21.4c-0.1,0.5-0.3,1-0.3,1.5c0,0.5,0.2,0.7,0.7,0.7
			c1.8,0,3.9-0.3,5.6-0.6c0.5-0.1,1.3-0.1,1.5-1.1c0.3-1.6,0.3-2.7,0.6-4.2c0.7-5.8,1.5-11.6,2.8-17.4c0.2-1,0.7-2.2,1.9-2.2
			c1.2,0,1.7,1.1,1.7,2.1c0,2.2-0.6,4.7-0.9,7c-0.6,4.4-1,8.8-1.5,13.3c0,0.5-0.2,0.9-0.2,1.4C139.2,78.7,139.4,78.9,139.7,79z"/>
	</g>
	<path class="st18" d="M127,247.9l-50.1,33.5l-37.2-52.2c-1-1.4-1.5-3-1.5-4.6c0-2.6,1.2-5.1,3.5-6.6l39.9-26.2L127,247.9z"/>
	<path class="st19" d="M75.2,290.9l-35.1-47.2c-1.2-1.7-1.9-3.7-1.9-5.8v-13.4c0,1.6,0.5,3.2,1.5,4.6l37.2,52.2
		C76.9,281.4,73.7,286.2,75.2,290.9z"/>
	<path class="st20" d="M129,256.4l-53.8,34.5c-1.5-4.8,1.7-9.5,1.7-9.5l50.1-33.5C125.5,251.5,129,256.4,129,256.4z"/>
	<line class="st3" x1="38.2" y1="224.6" x2="38.2" y2="221.9"/>
	<path class="st21" d="M331.5,61.6l8.6-2.1c1.3-0.3,2.6,0.7,2.6,2.1v0h0.9c2.8,0,4.8,2.8,3.8,5.5l-3.3,8.8c-0.8,2,0.2,4.3,2.1,5.3
		c1.8,0.9,3.4,2.3,3.2,4.3c-0.5,4,0.5,8.5,6.8,10c3.8,0.9,6.5,3.6,8.1,5.6c1.1,1.4,2.7,2.4,4.5,2.6l7.6,0.9c0,0-7,11.3,0,19.9
		c4.5,5.6,5.7,13.5,5.9,18.4c0.1,2.7,2,4.9,4.6,5.6l0,0c0,0,3,10.7,7,11.2c4,0.5-3-9.3,0-11.2s3.7-6.9,3.7-6.9s5.3-5.5,4.3-9.5
		c0,0,3,1,3.8-2.2c0.8-3.2,2.8-7.8,4.2-10.2c1.3-2.3,0.2-6-2.5-5.3c0,0-1.3-3.7-6.3-3.7c0,0-2.3-2.2-3.7-4.8
		c-1.3-2.7-3.8-6.3-8.2-6.2c-4.3,0.2-10.7,0.2-11.3-0.7c-0.7-0.8-4-3.5-5-2.7c-1,0.8-2.3-3.3-2-4c0.3-0.7-3.5-3-4.9-2.3
		c-1.3,0.7-5.5-10.5,9.8-3.5c0,0-0.7-9.2,11.2-10c0,0,3.8-4.7,7.8-4c0,0,0.2-2.8,0.2-4.7c0-1.8,2.2-1.3,4.2-2c2-0.7,1.5-7-1-6.8
		c0,0-5-7.5-9.2-1.2c0,0-10.5,6-6.2-1c0,0,7-1.3,6.5-4.3s-5.5-4-10.3-1.5c0,0-5,3.2-6.8-2.7c0,0-7.3-0.2-11,2.3s-6.2,0.2-6.3-2.3
		c-0.2-2.5-2.5-1-5.2,0C347.2,49.2,333.2,51.6,331.5,61.6z"/>
	<path class="st22" d="M469,206.4c0.1,0.9,0,1.4-0.9,1.3c-0.4,0-0.7-0.2-1-0.4"/>
	<path class="st21" d="M479.9,178.2c-1,1.7-2.5,5.2-3.1,7.5c-0.6,2.4-2.8,1.6-2.8,1.6c0.7,3-3.2,7-3.2,7s-0.5,3.7-2.7,5.1
		c-1.6,1,0.6,4.9,0.9,7c-0.6,0.3-1.3,0.6-1.9,0.9c-1.1-0.7-2-2.3-2.7-3.8c-0.9-2-1.5-4-1.5-4c-1.9-0.5-3.3-2.2-3.4-4.1
		c-0.2-3.6-1-9.5-4.4-13.6c-5.2-6.4,0-14.7,0-14.7l-5.6-0.6c-1.3-0.2-2.5-0.8-3.4-1.9c-1.1-1.5-3.2-3.4-6-4.1
		c-4.6-1.1-5.4-4.4-5-7.4c0.2-1.5-1.1-2.5-2.4-3.2c-1.4-0.7-2.1-2.4-1.5-3.9l2.4-6.5c0.7-2-0.7-4.1-2.8-4.1h-0.5
		c6.1-3.6,13.2-5.7,20.8-5.7c3.8,0,7.5,0.5,11,1.5c-1.1,0.4-2.1,0.6-2.1,0.6c-3.2,5.2,4.6,0.7,4.6,0.7c0.1-0.2,0.2-0.3,0.3-0.5
		c2.9,1,5.6,2.4,8.1,4c0.1,1.1-0.2,2.2-0.9,2.4c-1.5,0.5-3.1,0.1-3.1,1.5c0,1.3-0.1,3.4-0.1,3.4c-3-0.5-5.8,3-5.8,3
		c-8.8,0.6-8.3,7.4-8.3,7.4c-11.3-5.2-8.3,3.1-7.3,2.6c1-0.5,3.8,1.2,3.6,1.7c-0.2,0.5,0.7,3.6,1.5,3s3.2,1.4,3.7,2
		c0.5,0.6,5.2,0.6,8.4,0.5c3.2-0.1,5.1,2.6,6.1,4.6c1,2,2.7,3.6,2.7,3.6c3.7,0,4.7,2.7,4.7,2.7C480,173.8,480.9,176.5,479.9,178.2z"
		/>
	<path class="st23" d="M467,207.3c-4.9,2.1-10.3,3.3-16,3.3c-22.4,0-40.5-18.1-40.5-40.5c0-14.8,7.9-27.7,19.8-34.8h0.5
		c2.1,0,3.5,2.1,2.8,4.1l-2.4,6.5c-0.6,1.5,0.1,3.1,1.5,3.9c1.3,0.7,2.5,1.7,2.4,3.2c-0.4,3,0.4,6.3,5,7.4c2.8,0.7,4.8,2.7,6,4.1
		c0.8,1,2,1.7,3.4,1.9l5.6,0.6c0,0-5.2,8.4,0,14.7c3.4,4.1,4.2,10,4.4,13.6c0.1,2,1.5,3.6,3.4,4.1c0,0,0.6,2,1.5,4
		C465.1,205,466,206.6,467,207.3z"/>
	<path class="st3" d="M464.8,132c-0.1,0.1-0.2,0.3-0.3,0.5c0,0-7.8,4.4-4.6-0.7c0,0,1-0.2,2.1-0.6C463,131.4,463.9,131.7,464.8,132z
		"/>
	<path class="st23" d="M491.5,170.1c0,15.9-9.2,29.7-22.6,36.3c-0.3-2.1-2.5-6-0.9-7c2.2-1.4,2.7-5.1,2.7-5.1s3.9-4.1,3.2-7
		c0,0,2.2,0.7,2.8-1.6c0.6-2.3,2.1-5.8,3.1-7.5c1-1.7,0.1-4.4-1.9-4c0,0-1-2.7-4.7-2.7c0,0-1.7-1.6-2.7-3.6c-1-2-2.8-4.7-6.1-4.6
		c-3.2,0.1-7.9,0.1-8.4-0.5c-0.5-0.6-3-2.6-3.7-2s-1.7-2.5-1.5-3c0.2-0.5-2.6-2.2-3.6-1.7c-1,0.5-4.1-7.8,7.3-2.6
		c0,0-0.5-6.8,8.3-7.4c0,0,2.8-3.5,5.8-3c0,0,0.1-2.1,0.1-3.4c0-1.4,1.6-1,3.1-1.5c0.7-0.2,1-1.3,0.9-2.4
		C484.1,143.2,491.5,155.8,491.5,170.1z"/>
	<polygon class="st24" points="219.5,269.9 224,278.9 216.8,270.9 	"/>
	<path class="st25" d="M342.2,195.5c0.5,1.1,0.8,2.3,0.8,3.5v54c0,4.4-3.6,8-8,8c-4.4,0-8-3.6-8-8v-54c0-1.3,0.3-2.4,0.8-3.5"/>
	<path d="M343.1,226.7v25c0,4.4-3.6,8-8,8c-4.4,0-8-3.6-8-8v-25.3c3.6,2.2,8.3,3.5,13.5,1.4C341.4,227.4,342.3,227,343.1,226.7z"/>
	<ellipse class="st25" cx="335.1" cy="192.1" rx="11.3" ry="3.5"/>
	<path class="st25" d="M372.2,194.4c-0.5,1.1-0.8,2.3-0.8,3.5v23.4l-17.6,30.5c-7.9,13.6,2,30.7,17.7,30.7h15.8
		c15.7,0,25.6-17,17.7-30.7l-17.6-30.5v-23.4c0-1.3-0.3-2.4-0.8-3.5"/>
	<path d="M387.3,282h-15.8c-15.7,0-25.6-17-17.7-30.7l2.7-4.7c6.2,2.5,13.2,4.2,19.4,2.7c15-3.5,16.5-0.1,22,2.4
		c2.5,1.1,5.2,1.5,7.8,1C412.1,266.1,402.4,282,387.3,282z"/>
	<ellipse class="st25" cx="379.4" cy="191" rx="13.1" ry="4"/>
	<path class="st9" d="M220.4,439l-11.1,1c0,0-15.8,21,1.6,22C210.9,462,237.1,465.9,220.4,439z M206.2,454.1l1.1-6.2
		c6.3-5.5,14.5-0.9,14.5-0.9l0.1,7.1C218.8,450.2,206.2,454.1,206.2,454.1z"/>
	<path class="st1" d="M221.9,454.1c-3.1-3.9-15.7,0-15.7,0l1.1-6.2c6.3-5.5,14.5-0.9,14.5-0.9L221.9,454.1z"/>
	<path class="st9" d="M245.3,463.2c17.4-1,1.6-22,1.6-22l-11.1-1C219.1,467.1,245.3,463.2,245.3,463.2z M234.3,455.3l0.1-7.1
		c0,0,8.2-4.6,14.5,0.9l1.1,6.2C250,455.3,237.4,451.4,234.3,455.3z"/>
	<path class="st1" d="M234.3,455.3c3.1-3.9,15.7,0,15.7,0l-1.1-6.2c-6.3-5.5-14.5-0.9-14.5-0.9L234.3,455.3z"/>
</g>
</svg>
