<?xml version="1.0" encoding="utf-8"?>
<!-- Generator: Adobe Illustrator 23.0.6, SVG Export Plug-In . SVG Version: 6.00 Build 0)  -->
<svg version="1.1" id="Layer_1" xmlns="http://www.w3.org/2000/svg" xmlns:xlink="http://www.w3.org/1999/xlink" x="0px" y="0px"
	 viewBox="0 0 127.56 127.56" style="enable-background:new 0 0 127.56 127.56;" xml:space="preserve">
<style type="text/css">
	.st0{fill-rule:evenodd;clip-rule:evenodd;fill:#FCF7BB;}
	.st1{fill-rule:evenodd;clip-rule:evenodd;fill:#76A641;}
	.st2{fill-rule:evenodd;clip-rule:evenodd;fill:#BBE4F9;}
	.st3{fill-rule:evenodd;clip-rule:evenodd;fill:#FFFFFF;}
	.st4{fill-rule:evenodd;clip-rule:evenodd;fill:#F4C385;}
	.st5{fill-rule:evenodd;clip-rule:evenodd;fill:#FFD219;}
	.st6{fill-rule:evenodd;clip-rule:evenodd;fill:#B28750;}
	.st7{fill-rule:evenodd;clip-rule:evenodd;fill:#FFDFB8;}
	.st8{fill-rule:evenodd;clip-rule:evenodd;fill:#203756;}
	.st9{fill-rule:evenodd;clip-rule:evenodd;fill:#978771;}
	.st10{fill-rule:evenodd;clip-rule:evenodd;fill:#C9B49A;}
	.st11{fill-rule:evenodd;clip-rule:evenodd;fill:#5E6EB4;}
	.st12{fill-rule:evenodd;clip-rule:evenodd;fill:#F2FAFE;}
	.st13{fill-rule:evenodd;clip-rule:evenodd;fill:#719BD1;}
	.st14{fill-rule:evenodd;clip-rule:evenodd;fill:#010101;}
</style>
<polygon class="st0" points="74.4,38.12 58.99,60.01 74.26,67.56 87.85,78.38 106.58,55.21 87.71,49.21 "/>
<path class="st1" d="M66.91,52.39l-3.83,5.67l11.08,6.15l3.61-4.87c-0.16-0.97-0.72-1.43-1.83-1.17c-0.42-1.31-1.36-1.79-2.67-1.71
	c-0.22-0.97-0.87-1.09-1.61-1.03c-0.06-1.42-0.89-1.74-2.18-1.4C69.29,52.39,67.84,51.9,66.91,52.39z"/>
<path class="st2" d="M46.2,44.29c-10.54,4.5-13.08,34.98-10.02,51.81c0.74,4.09,2.29,0.74,2.7,0.19c6.59-8.82,21.43-6.15,26.47-9.81
	c0.34-0.25,0.43-0.71,0.22-1.07c-2.04-3.47-4.05-14.38-4.62-23.49c-0.02-0.26-0.16-0.5-0.38-0.63l-1.38-0.85
	c-0.38-0.23-0.5-0.72-0.27-1.1l1.83-3.09c0.12-0.2,0.14-0.44,0.07-0.66c-1.19-3.74-2.12-6.69-4.02-8.45
	c-0.37-0.34-0.95-0.29-1.24,0.12c-0.92,1.33-2,3.68-8.48-2.75C46.85,44.25,46.5,44.16,46.2,44.29z"/>
<path class="st2" d="M43.37,74.3c-0.84-2.61-1.58-5.25-1.99-7.56c-3.22-18.26,5.98-25.15,15,2.04C52.54,72.1,46.98,74.14,43.37,74.3
	z"/>
<g>
	<path class="st3" d="M53.33,52.48c0.54-0.2,1.02-2.33,1.17-3.78c0.21,0.41,0.46,0.81,0.73,1.18c-0.33-0.39-0.62-0.71-0.62-0.71
		s-0.43,1.92-0.34,2.39c0.59,3.09,1.18,6.62,1.59,10.43l2.66-0.94c-0.49-3.73-1.2-6.51-2.36-9.82c0.01-0.09-0.12-0.31-0.31-0.57
		c0.99,1.12,1.97,1.73,2.01,1.06c0.04-0.72,1.4-1.21-2.14-5.12c-0.02,0.15-0.07,0.86-0.1,1.01c-0.05,0.28-0.24-0.15-0.46,0.02
		c-0.24,0.19-0.53,0.95-0.84,0.97c-0.73,0.05-1.5-0.11-2.18-0.37c-0.69-0.27-1.33-0.6-1.94-1.02c-0.28-0.19-0.36,0.02-0.44-0.32
		c-0.02-0.1-0.46-0.27-0.47-0.37c-0.59-0.45-1-0.96-1.4-1.58c-0.15-0.23-0.68-0.91-0.65-1.21c-1.17,0.59-2.42,1.12-2.42,1.12
		C46.79,49.68,51.56,53.13,53.33,52.48z"/>
	<path class="st3" d="M54.38,62.56c-3.72,3.15-8.82,5.15-12.94,5.59c0.16,0.49,0.31,0.98,0.43,1.48c4.18-0.55,9.19-2.53,13.01-5.58
		C54.78,63.54,54.57,63.06,54.38,62.56z"/>
	<path class="st3" d="M55.51,65.01c-0.01-0.02-0.02-0.04-0.03-0.06c-3.81,3.29-9.13,5.33-13.35,5.72c0.12,0.5,0.25,0.99,0.39,1.49
		c4.3-0.5,9.57-2.54,13.5-5.75c-0.05-0.09-0.09-0.18-0.12-0.27C55.79,65.75,55.66,65.38,55.51,65.01z"/>
</g>
<g>
	<path class="st4" d="M30.72,69.49c-1.64-1.56-6.08-0.21-8.3,3.07l0.07,13.81l8.3-5.58L30.72,69.49z"/>
	<path class="st4" d="M36,96.28l-5.86,0.19l-7.81,6.23c-0.51,0.44-0.12,1.02,0.56,1.02l28.65,0.19l1.67,3.16l3.3-3.62
		c0.22-0.25-9.58-1.43-9.91-1.49l-6.88-2.33c-0.59-0.16-2.06-1.67-2.57-1.33l-0.32,0.21L36,96.28z"/>
</g>
<g>
	<polygon class="st5" points="30.02,81.35 27.98,82.61 27.98,98.38 30.02,96.91 	"/>
	<path class="st5" d="M52.97,106.47h-4.95v-0.12h-4.4v0.12H22.35V73.05h-2.01v35.37h2.01v-0.14h13.67v8.76h4.53h2.2l0.91-2.02
		L43.59,117h4.5l-0.07-8.72h4.95V106.47z M43.63,111.6l-3.07,3.67v-6.99h3.07V111.6z"/>
</g>
<polygon class="st6" points="21.86,106.68 53.04,106.82 51.58,103.75 21.86,103.75 "/>
<g>
	<path class="st7" d="M48.44,42.91c-0.21,0.29-0.42,0.58-0.61,0.88c1.08,3.27,5.26,4.36,6.56,4.53c-0.02-1.12,0.55-2.11,1.24-3
		c0.07,0,0.14,0.01,0.21,0.01c0.7,0.02,1.48-0.08,2.38-0.24c5.56-0.95,7.82-5.41,8.04-5.99c2.65,0.25,2.66-2.41,1.23-2.84
		c0,0,5.69-10.37-4.01-17.86c-6.4-4.94-15.64-3.45-19.94,3.44c-4.49,7.19-2.14,15.82,4.32,20.67
		C48.05,42.65,48.25,42.78,48.44,42.91z"/>
	<path class="st7" d="M77.51,71.23c-0.37-0.67-1-2.3,2.3-3.91c0.5-0.24-1.54-1.29-4.97,2.36c-0.68,0.72-1.26,1.13-1.63,2.33
		c-2.69,0.69-4.49,1.13-7.72,1.86c0.71-3.41,1.27-3.17,0.84-9.58l-3.63-1.86c-0.65,3.07-0.79,3.4-0.93,7.53
		c0.61,1.1,0.17,0.62,0.19,0.65c0.17,0.52,0.03,1.23,0.09,1.77c0.01,0.04,0.09-0.23,0.09-0.19c0.09,0.16-0.3,0.31-0.27,0.49
		c0-0.01,0-0.01,0-0.02c0,0.02,0.01,0.04,0.01,0.06c0,0.04,0.02,0.08,0.02,0.12c0,0.01,0,0.01,0,0.02c0.04,0.21,0.42,0.79,0.42,1
		c0.01,0.52-0.65,0.58-1.09,0.81c0.91,0.02-0.39-0.05-0.39,0.21c-0.62,0.13-0.66-0.04-1.3,0.09l-3.35-5.12
		c-0.91,0.95-2.9,1.93-4.09,2.46c-1.22,0.55-3.1,1.35-4.38,1.72c2.5,4.22,7.07,9.47,8.74,9.86c1.87,0.05,13.6-3.59,21.13-8.03
		c1.79,0.49,3.92-0.35,4.89-0.9C80.55,73.71,79.17,72.28,77.51,71.23z"/>
	<path class="st7" d="M63.1,52.76c-2.33,0.97-1.53,3.01-1.53,3.01s0.52-1.82,4.77-2.07c1.48-0.08,0.94-1.16-0.29-1.35
		C65.27,52.23,64.22,52.3,63.1,52.76z"/>
</g>
<g>
	<path class="st8" d="M77.21,91.07c-4.27-2.07-9.52-3.48-11.63-4.65c-0.23,0.24-2.62,1.54-2.97,1.58c-2.73,0.33-2.7,0.95-6.05,1.3
		c-1.97,0.21-4.73,0.34-6.65,0.83c-2.87,0.72-5.89,1.67-8.39,3.35c-0.91,0.65-1.76,1.38-2.52,2.17c-0.13,0.13-0.27,0.23-0.42,0.3
		c-0.11,0.27-0.2,0.56-0.26,0.87c-0.04,0.21,0.34,1.37-0.46,1.32c2.32,3.52,10.48,4.29,20.65,4.84c-0.19,4.45,0.68,9.29,1.9,13.95
		h20.88c0.04-6.67,0.3-13.65,0.29-18.14C81.58,94.51,81.15,92.98,77.21,91.07z"/>
	<path class="st8" d="M55.96,54.3c0.13-0.1,0.17-0.44,0.08-0.77c-0.09-0.32-0.28-0.51-0.41-0.41s-0.17,0.44-0.08,0.77
		C55.64,54.22,55.83,54.4,55.96,54.3z"/>
	<path class="st8" d="M56.61,57.12c0.14-0.09,0.19-0.43,0.11-0.76c-0.08-0.33-0.25-0.53-0.39-0.44s-0.19,0.43-0.11,0.76
		C56.3,57.01,56.47,57.21,56.61,57.12z"/>
	<path class="st8" d="M57.24,59.95c0.14-0.08,0.2-0.42,0.14-0.76c-0.06-0.34-0.23-0.55-0.37-0.47c-0.14,0.08-0.2,0.42-0.14,0.76
		C56.94,59.82,57.1,60.03,57.24,59.95z"/>
</g>
<path class="st9" d="M70.66,25.28c0.4,3.83-1.15,5.1-1.49,5.11c-0.56,0.01-1.22-0.49-1.14-3.3c-0.99,2.8-2.39,3.62-3.18-0.1
	c-0.75,2.9-2.24,3.54-2.42-1.87c-0.62,3.77-1.28,6.36-2.57,2.57c-0.57,3.13-1.55,3.02-2.82,0.58c0.39,3.93-1.33,4.57-2.88,1.05
	c0.33,3.77-1.3,4.42-2.59,0.94c-0.6,1.54-1.51,1.75-2.73,0.63l-0.25,2.7c2.28,6.43,1.1,7.17-0.96,4.23
	c0.88,3.42,0.55,4.64-0.88,3.85c-0.19,0.89-3.55,5.58-8.45-2.26c-3.42-5.47-2.18-24.11,8.27-24.93C50.31,9.71,69.01,9.7,70.66,25.28
	z"/>
<g>
	<path class="st10" d="M40.38,19.3c-3.82,4.14-4.37,17.65,0.5,22.54C36.93,37.24,38.67,22.53,40.38,19.3z"/>
	<path class="st10" d="M43.49,27.14c-0.65-5.32,1.84-11.29,2.35-12.01C42.62,18.66,42.8,26.46,43.49,27.14z"/>
	<path class="st10" d="M53.38,30.79c-1.27-3.69,0.2-8.02,0.56-8.55C51.51,24.89,52.67,30.35,53.38,30.79z"/>
	<path class="st10" d="M64.39,15.49c2.88,1.85,5.96,7.82,5.32,13.43C70.7,24.97,69.48,17.35,64.39,15.49z"/>
	<path class="st10" d="M61.24,19.49c0.44,0.46,2.53,4.48,1.82,8.36C63.69,27.29,64.03,21.69,61.24,19.49z"/>
	<path class="st10" d="M44.02,36.23c-1.09,2.37,0.88,5.82,1.46,5.96C43.81,39.96,43.88,36.68,44.02,36.23z"/>
</g>
<path class="st7" d="M51.38,29.91c0.77,1.57,0.1,3.52-0.62,4.05c-0.98,0.72-2.93-0.44-3.7-2.01c-0.77-1.57-0.24-3.08,0.84-3.64
	C48.98,27.75,50.61,28.34,51.38,29.91z"/>
<polygon class="st11" points="88.93,51.54 100.67,56.08 95.53,62.84 84.8,56.97 "/>
<g>
	<path class="st12" d="M90.98,54.16c0.01,0.11,0.11,0.21,0.25,0.26c0.18,0.05,0.35-0.01,0.39-0.15s-0.07-0.29-0.24-0.34
		c-0.05-0.01-0.09-0.02-0.14-0.02c0.06-0.21-0.12-0.45-0.39-0.53c-0.01,0-0.01,0-0.02-0.01c0.04-0.04,0.08-0.09,0.09-0.15
		c0.07-0.21-0.11-0.46-0.39-0.54c-0.28-0.09-0.56,0.02-0.62,0.23c-0.02,0.05-0.02,0.11-0.01,0.16c-0.06-0.04-0.12-0.08-0.2-0.1
		c-0.22-0.07-0.45-0.02-0.56,0.12c-0.04-0.03-0.08-0.05-0.13-0.07c-0.18-0.05-0.35,0.01-0.39,0.15c-0.04,0.13,0.07,0.29,0.24,0.34
		c0.1,0.03,0.19,0.02,0.27-0.01c0.07,0.11,0.19,0.2,0.34,0.24c0.28,0.09,0.86,0.32,1.14,0.4C90.75,54.19,90.87,54.19,90.98,54.16z"
		/>
	<path class="st12" d="M92.76,56.86c-0.03-0.01-0.07-0.02-0.1-0.02c0.06-0.15-0.05-0.34-0.25-0.43c0,0-0.01,0-0.01-0.01
		c0.04-0.03,0.06-0.06,0.08-0.1c0.07-0.16-0.05-0.35-0.25-0.44c-0.2-0.09-0.42-0.03-0.49,0.13c-0.02,0.04-0.02,0.08-0.02,0.12
		c-0.04-0.04-0.09-0.07-0.14-0.09c-0.16-0.07-0.33-0.05-0.43,0.05c-0.03-0.02-0.06-0.04-0.09-0.06c-0.13-0.05-0.27-0.02-0.31,0.08
		s0.03,0.22,0.16,0.27c0.07,0.03,0.14,0.03,0.2,0.01c0.04,0.09,0.13,0.16,0.23,0.21c0.2,0.09,0.62,0.31,0.83,0.39
		c0.09,0.04,0.19,0.05,0.27,0.03c0,0.08,0.07,0.17,0.17,0.21c0.13,0.05,0.27,0.02,0.31-0.08C92.96,57.04,92.89,56.92,92.76,56.86z"
		/>
</g>
<path class="st13" d="M84.53,56.99l11,6.25l1.61-2.12c-0.45-1.24-2.74-0.55-3.69-1.51c-0.82-1.3-1.82-1.59-2.91-1.47
	c-0.6-0.21-1.57-0.2-2.1-1.2c-0.1-1.3-1.07-1.58-2.48-1.69L84.53,56.99z"/>
<path class="st5" d="M98.72,56.04c0.31-0.19,0.55-0.44,0.69-0.71c-0.66-0.19-1.31-0.39-1.94-0.65c-0.35-0.14-0.73-0.28-1.04-0.5
	c-0.05-0.03-0.09-0.07-0.13-0.11c-0.14,0.08-0.27,0.17-0.39,0.27l-2.22-0.64c-0.13-0.04-0.27,0.04-0.31,0.17
	c-0.04,0.13,0.04,0.27,0.17,0.31l1.99,0.57c-0.06,0.09-0.1,0.19-0.13,0.28c-0.01,0.04-0.02,0.07-0.03,0.11l-1.86,0.03
	c-0.14,0-0.25,0.12-0.25,0.25s0.12,0.25,0.25,0.25l1.89-0.03c0.06,0.16,0.16,0.3,0.3,0.43l-0.73,0.6c-0.11,0.09-0.12,0.25-0.03,0.35
	c0.09,0.11,0.25,0.12,0.35,0.03l0.87-0.72c0.23,0.09,0.49,0.15,0.79,0.16l-0.23,1.05c-0.03,0.13,0.06,0.27,0.19,0.3
	c0.13,0.03,0.27-0.06,0.3-0.19l0.26-1.18c0.28-0.04,0.55-0.11,0.81-0.21l0.59,0.97c0.07,0.12,0.23,0.15,0.34,0.08
	c0.12-0.07,0.16-0.23,0.08-0.34L98.72,56.04z"/>
<g>
	<path class="st14" d="M64.2,30.83c-1.09,0.07-2,0.49-2.37,1.1c-0.14,0.24-0.07,0.54,0.17,0.69c0.24,0.14,0.54,0.07,0.69-0.17
		c0.16-0.27,0.76-0.56,1.58-0.62c0.77-0.05,1.78,0.13,2.31,0.78c0.1,0.12,0.24,0.19,0.39,0.19c0.11,0,0.22-0.04,0.31-0.11
		c0.21-0.17,0.25-0.49,0.08-0.7C66.7,31.18,65.51,30.74,64.2,30.83z"/>
	<path class="st14" d="M62.85,33.53c-0.26,0.09-0.39,0.38-0.3,0.64c0.09,0.26,0.38,0.39,0.64,0.3c0.76-0.28,1.45-0.3,1.96-0.11
		c-0.07,0.05-0.13,0.1-0.18,0.18c-0.24,0.35-0.16,0.83,0.17,1.09c0.34,0.25,0.8,0.17,1.04-0.17c0.08-0.11,0.11-0.24,0.12-0.37
		c0.06-0.01,0.12-0.02,0.18-0.05c0.23-0.15,0.31-0.45,0.16-0.69C65.97,33.25,64.48,32.93,62.85,33.53z"/>
	<path class="st14" d="M64.91,88.6c0.01-0.01,0.02-0.01,0.02-0.02C64.88,88.51,64.88,88.54,64.91,88.6z"/>
	<path class="st14" d="M56.33,54.9c0.13-0.09,0.24-0.24,0.3-0.45c0.09-0.27,0.1-0.67-0.01-1.07c-0.26-0.93-0.98-1.13-1.36-0.85
		c-0.13,0.09-0.24,0.24-0.3,0.45c-0.09,0.27-0.1,0.67,0.01,1.07C55.23,54.98,55.94,55.18,56.33,54.9z M55.55,53.89
		c-0.09-0.32-0.06-0.67,0.08-0.77s0.32,0.08,0.41,0.41s0.06,0.67-0.08,0.77C55.83,54.4,55.64,54.22,55.55,53.89z"/>
	<path class="st14" d="M56.95,57.73c0.13-0.08,0.25-0.23,0.33-0.43c0.1-0.26,0.13-0.66,0.04-1.06c-0.22-0.95-0.93-1.19-1.32-0.94
		c-0.13,0.08-0.25,0.23-0.33,0.43c-0.1,0.26-0.13,0.66-0.04,1.06C55.84,57.74,56.55,57.98,56.95,57.73z M56.33,55.91
		c0.14-0.09,0.31,0.11,0.39,0.44c0.08,0.33,0.03,0.67-0.11,0.76c-0.14,0.09-0.31-0.11-0.39-0.44C56.14,56.34,56.19,56,56.33,55.91z"
		/>
	<path class="st14" d="M49.18,29.48c-0.3-0.03-0.58,0.04-0.82,0.18c-0.37,0.22-0.61,0.62-0.54,1.16c0.04,0.29,0.18,0.62,0.48,0.98
		c0.17,0.2,0.38,0.4,0.67,0.61c0.3,0.22,0.66,0.44,1.11,0.66c0.08,0.05,0.19,0.03,0.25-0.05c0.05-0.08,0.03-0.19-0.05-0.25
		c-0.56-0.45-0.93-0.86-1.2-1.21c-0.26-0.34-0.38-0.61-0.4-0.85c-0.03-0.24,0.09-0.41,0.28-0.48c0.38-0.14,0.9-0.05,1.24,0.44
		c0.05,0.09,0.16,0.12,0.24,0.07c0.09-0.05,0.12-0.16,0.07-0.24C50.24,29.84,49.69,29.54,49.18,29.48z"/>
	<path class="st14" d="M94.17,63.99l-9.8-5.54c-0.2-0.12-0.46-0.04-0.58,0.16c-0.12,0.2-0.04,0.46,0.16,0.58l9.8,5.54
		c0.07,0.04,0.14,0.06,0.21,0.06c0.15,0,0.29-0.08,0.37-0.22C94.45,64.37,94.38,64.11,94.17,63.99z"/>
	<path class="st14" d="M93.07,65.33l-9.69-5.61c-0.2-0.12-0.46-0.05-0.58,0.15c-0.12,0.2-0.05,0.46,0.15,0.58l9.69,5.61
		c0.07,0.04,0.14,0.06,0.21,0.06c0.15,0,0.29-0.08,0.37-0.21C93.34,65.71,93.27,65.45,93.07,65.33z"/>
	<path class="st14" d="M91.78,66.77l-9.44-5.57c-0.2-0.12-0.46-0.05-0.58,0.15c-0.12,0.2-0.05,0.46,0.15,0.58l9.44,5.57
		c0.07,0.04,0.14,0.06,0.22,0.06c0.15,0,0.29-0.08,0.37-0.21C92.05,67.15,91.98,66.89,91.78,66.77z"/>
	<path class="st14" d="M90.15,68.46l-9.03-5.56c-0.2-0.12-0.46-0.06-0.58,0.14c-0.12,0.2-0.06,0.46,0.14,0.58l9.03,5.56
		c0.07,0.04,0.15,0.06,0.22,0.06c0.14,0,0.28-0.07,0.36-0.2C90.41,68.85,90.35,68.58,90.15,68.46z"/>
	<path class="st14" d="M88.91,70.43l-9.01-5.97c-0.2-0.13-0.46-0.08-0.59,0.12c-0.13,0.2-0.08,0.46,0.12,0.59l9.01,5.97
		c0.07,0.05,0.15,0.07,0.23,0.07c0.14,0,0.27-0.07,0.35-0.19C89.16,70.82,89.1,70.55,88.91,70.43z"/>
	<path class="st14" d="M84.15,56.68c-0.09,0.11-0.13,0.26-0.1,0.41c0.03,0.14,0.12,0.27,0.24,0.34l11,6.25
		c0.22,0.12,0.49,0.07,0.64-0.13l1.61-2.12c0.06-0.08,0.09-0.18,0.09-0.27l3.55-4.68c0.12-0.16,0.16-0.37,0.11-0.57
		c-0.06-0.2-0.2-0.36-0.39-0.43l-11.74-4.54c-0.27-0.1-0.58-0.02-0.75,0.21l-3.43,4.5L84.15,56.68z M88.93,51.54l11.74,4.54
		l-3.34,4.4c-0.31-0.34-0.76-0.54-1.31-0.64c-0.42-0.08-0.9-0.12-1.34-0.2c-0.32-0.06-0.62-0.15-0.84-0.34
		c-0.92-1.43-2.03-1.77-3.25-1.66c-0.22-0.07-0.48-0.11-0.75-0.2c-0.33-0.1-0.67-0.26-0.91-0.65c-0.15-1.35-1.06-1.81-2.48-1.99
		L88.93,51.54z M88.44,56.94c0.53,1,1.5,0.99,2.1,1.2c1.09-0.12,2.09,0.17,2.91,1.47c0.88,0.89,2.9,0.38,3.55,1.29l-1.47,1.94
		L84.8,56.97l1.3-1.71C87.44,55.39,88.35,55.69,88.44,56.94z"/>
	<path class="st14" d="M83.72,50.56c0.08,0.06,0.17,0.09,0.26,0.09c0.13,0,0.25-0.06,0.34-0.16c0.14-0.19,0.11-0.45-0.07-0.6
		l-9.1-7.07c-0.19-0.15-0.45-0.11-0.6,0.07c-0.14,0.19-0.11,0.45,0.07,0.6L83.72,50.56z"/>
	<path class="st14" d="M82.82,51.9c0.08,0.06,0.16,0.08,0.25,0.08c0.13,0,0.26-0.06,0.34-0.17c0.14-0.19,0.1-0.46-0.09-0.59
		l-9.28-6.77c-0.19-0.14-0.46-0.1-0.59,0.09c-0.14,0.19-0.1,0.46,0.09,0.59L82.82,51.9z"/>
	<path class="st14" d="M81.68,53.31c0.08,0.06,0.16,0.08,0.25,0.08c0.13,0,0.26-0.06,0.34-0.17c0.14-0.19,0.1-0.45-0.09-0.59
		l-9.19-6.78c-0.19-0.14-0.45-0.1-0.59,0.09c-0.14,0.19-0.1,0.45,0.09,0.59L81.68,53.31z"/>
	<path class="st14" d="M80.77,54.77c0.08,0.06,0.16,0.08,0.25,0.08c0.13,0,0.26-0.06,0.34-0.17c0.14-0.19,0.1-0.46-0.09-0.59
		l-9.21-6.74c-0.19-0.14-0.46-0.1-0.59,0.09c-0.14,0.19-0.1,0.46,0.09,0.59L80.77,54.77z"/>
	<path class="st14" d="M79.85,56.07c0.07,0.05,0.16,0.08,0.25,0.08c0.13,0,0.26-0.06,0.35-0.18c0.14-0.19,0.09-0.46-0.1-0.59
		l-9.3-6.6c-0.19-0.14-0.46-0.09-0.59,0.1c-0.14,0.19-0.09,0.46,0.1,0.59L79.85,56.07z"/>
	<path class="st14" d="M79.12,57.7c0.14,0,0.27-0.07,0.35-0.19c0.13-0.19,0.08-0.46-0.11-0.59l-9.51-6.42
		c-0.19-0.13-0.46-0.08-0.59,0.11c-0.13,0.19-0.08,0.46,0.11,0.59l9.51,6.42C78.95,57.67,79.03,57.7,79.12,57.7z"/>
	<path class="st14" d="M107.74,54.87c-0.12-0.38-0.41-0.68-0.79-0.8L88.3,48.14L75.17,37.19c-0.25-0.21-0.59-0.31-0.92-0.27
		c-0.33,0.05-0.63,0.23-0.83,0.5l-9.97,14.17c-0.24,0.07-0.48,0.14-0.73,0.25c-0.92,0.38-1.47,0.91-1.8,1.44
		c-0.71-1.48-1.46-2.91-2.21-4.11c-0.78-1.24-1.55-2.23-2.26-2.87c0.59-0.03,1.22-0.1,1.94-0.22c5.08-0.87,7.63-4.42,8.49-5.97
		c1.16-0.08,1.87-0.64,2.24-1.27c0.54-0.95,0.36-2.17-0.36-2.93c0.4-0.93,0.99-2.58,1.26-4.62c0.19-0.12,0.39-0.26,0.6-0.49
		c0.65-0.74,1.57-2.43,1.23-5.65C70.62,13.41,60.41,9.86,53,10.57c-3.06,0.29-5.63,1.35-7.02,2.77c-4.38,0.56-7.31,3.93-8.94,8.28
		c-2.43,6.44-1.93,14.95,0.25,18.43c1.64,2.63,3.17,3.96,4.45,4.56c0.84,0.39,1.6,0.51,2.29,0.46c-2.28,1.97-4.18,5.1-5.65,9.03
		c-4.36,11.62-5.15,30.12-2.76,42.02h-5.13V81.53l0.22-0.16c0.27-0.18,0.44-0.48,0.44-0.81l0.16-10.77c0-0.28-0.11-0.55-0.31-0.74
		c-0.88-0.83-2.15-1.14-3.56-0.87c-1.8,0.35-3.87,1.66-5.37,3.89c-0.08,0.11-0.12,0.24-0.15,0.37h-1.14c-0.55,0-1,0.44-1,1v34.43
		c0,0.55,0.45,1,1,1h1.1c0.19,0,0.36-0.07,0.51-0.16c0.15,0.09,0.32,0.16,0.51,0.16h12.61v8.2h1v-8.2h3.55v8.2h1v-2.4l3.49-4.18
		c0.23-0.19,0.73-0.29,1.13-0.22c0.51,0.1,1.01,0.17,0.21,1.32l-4.33,5.48h1.28l0.39-0.5v0.5h1v-1.77l2.44-3.09
		c0.02-0.01,0.03-0.03,0.04-0.05c0.76-1.09,0.62-1.76,0.45-2.09c-0.21-0.4-0.71-0.67-1.31-0.78c-0.54-0.1-1.18,0.03-1.62,0.24v-0.66
		h3.36v8.2h1v-8.2h3.98c0.55,0,1-0.45,1-1v-0.65c0.16-0.05,0.3-0.14,0.42-0.27l3.03-3.29c0.26,0.02,0.51,0.04,0.78,0.05
		c-0.04,4.32,0.71,8.8,1.86,13.22h1.24c-1.17-4.43-1.93-8.92-1.89-13.24c0.48-0.04,0.94-0.12,1.35-0.25
		c0.91-0.29,1.56-0.67,1.56-0.67c0.05-0.02,0.07-0.08,0.05-0.13c-0.02-0.05-0.08-0.07-0.13-0.05c0,0-0.68,0.24-1.59,0.34
		c-0.21,0.02-0.44,0.03-0.67,0.03c0.42-0.25,0.78-0.53,1.06-0.82c0.92-0.92,1.22-1.88,1.22-1.88c0.02-0.05-0.01-0.11-0.06-0.13
		c-0.05-0.01-0.11,0.01-0.13,0.06c0,0-0.4,0.84-1.37,1.56c-0.46,0.34-1.05,0.63-1.79,0.8c-9.36-0.52-17.15-1.61-19.94-4.62
		c3.58-5.9,10.75-6.94,16.83-7.82c2.71-0.39,5.22-0.74,7.2-1.36c1.23-0.39,2.26-0.9,3.06-1.55c2.55,1.14,7.36,2.64,11.1,4.45
		c3.93,1.91,4.05,3.23,4.05,7.51c0,4.63-0.07,11.07-0.03,17.77h1.2c-0.04-6.7,0.03-13.14,0.03-17.77c0-2.92-0.15-4.61-1.16-5.98
		c-0.68-0.93-1.76-1.73-3.57-2.61c-3.45-1.67-7.82-3.09-10.5-4.19c-0.12-0.05-0.23-0.09-0.34-0.14c0.1-0.36,0.04-0.76-0.21-1.07
		c-0.53-0.66-1-1.55-1.43-2.64c4.13-1.27,9.05-3.12,13-5.38c1.96,0.31,4.14-0.5,5.21-1.1l4.1,3.26c0.51,0.41,1.26,0.33,1.68-0.18
		l18.73-23.17C107.77,55.66,107.85,55.25,107.74,54.87z M21.88,74l-0.13,11.55c0,0.18,0.05,0.35,0.13,0.5v16.54
		c-0.24,0.23-0.35,0.55-0.3,0.88v2.8c0,0.25,0.12,0.47,0.3,0.62v0.98h-1.1V73.44h1.1V74z M63.1,52.76c1.12-0.47,2.18-0.53,2.95-0.41
		c1.23,0.2,1.77,1.27,0.3,1.35c-4.25,0.25-4.77,2.07-4.77,2.07S60.78,53.73,63.1,52.76z M67.96,52.36
		c-0.03-0.05-0.08-0.09-0.11-0.13c0.75,0.08,1.5,0.65,1.63,1.8c1.29-0.34,2.13-0.03,2.18,1.4c0.68-0.06,1.27,0.04,1.54,0.8
		l-0.47,0.54c-0.64-0.49-1.51-0.72-2.29-0.58c-0.52,0.1-0.95,0.35-1.24,0.72c-0.48-0.32-1.17-0.38-1.74-0.26
		c-0.63,0.14-1.12,0.49-1.4,0.96c-0.43-0.39-0.95-0.61-1.52-0.63c-0.28-0.01-0.56,0.05-0.83,0.15l1.55-2.3
		c0.34-0.06,0.72-0.1,1.14-0.13c1.34-0.07,1.76-0.8,1.83-1.32C68.27,53.05,68.2,52.69,67.96,52.36z M73.91,56.62
		c0.04-0.04,0.07-0.09,0.08-0.14c0.94,0.12,1.62,0.64,1.95,1.69c1.12-0.26,1.68,0.2,1.83,1.17l-3.6,4.87l-10.76-5.97
		c0.3-0.3,0.68-0.47,1.11-0.46c0.53,0.02,1.02,0.32,1.37,0.86c0.08,0.11,0.2,0.18,0.33,0.18c0.04,0,0.07-0.01,0.1-0.02
		c0.17-0.04,0.29-0.18,0.3-0.35c0.07-0.73,0.73-0.95,1.01-1.02c0.55-0.12,1.13,0.03,1.3,0.32c0.08,0.14,0.23,0.22,0.38,0.2
		c0.15-0.01,0.28-0.1,0.34-0.25c0.2-0.49,0.62-0.66,0.94-0.72c0.65-0.12,1.42,0.14,1.88,0.63c0.07,0.08,0.19,0.14,0.29,0.13
		c0.12,0,0.23-0.05,0.3-0.14L73.91,56.62z M61.3,56.73c0.09,0.02,0.18,0.04,0.28,0.04l0.95-0.71l-0.01,0.04c0,0,0.39-0.55,1.57-0.97
		l-1.67,2.48c-0.12,0.18-0.17,0.41-0.11,0.63c0.05,0.22,0.19,0.41,0.39,0.52l11.08,6.15c0.35,0.19,0.79,0.1,1.03-0.23l3.61-4.86
		c0.13-0.18,0.18-0.4,0.14-0.61c-0.12-0.74-0.43-1.27-0.89-1.58c-0.32-0.22-0.72-0.34-1.22-0.33c-0.28-0.54-0.65-0.92-1.09-1.19
		c-0.44-0.27-0.95-0.42-1.53-0.45c-0.14-0.28-0.32-0.48-0.52-0.63c-0.27-0.22-0.59-0.34-0.95-0.39c-0.17-0.63-0.51-1.03-0.93-1.27
		c-0.35-0.2-0.81-0.29-1.34-0.25c-0.57-1.52-2.08-1.96-3.22-1.57c-0.2-0.08-0.42-0.15-0.66-0.19c-0.32-0.05-0.7-0.06-1.1-0.04
		l9.29-13.21l12.97,10.81L73.86,67.36l-14.45-7.15c-0.03-0.22-0.06-0.44-0.1-0.65L61.3,56.73z M66.92,65.26l6.7,3.32l0.35,0.27
		c-0.67,0.71-0.88,1.59-1.19,2.69c-1.99,0.5-4.12,1.02-6.39,1.54C66.78,70.91,67.01,68.69,66.92,65.26z M65.12,73.37
		c-0.72,0.16-1.46,0.32-2.2,0.49c-0.24-1.93-0.42-4.07-0.56-6.44c0,0,0.46-2.15,0.86-3.99l2.48,1.23
		C65.84,68.61,65.57,70.96,65.12,73.37z M57.34,68.46c-0.7-2.09-1.4-3.99-2.09-5.7c0.03,0.02,0.04,0.06,0.07,0.08
		c0.26,0.16,0.58,0.19,0.87,0.09l2.66-0.94c0.24-0.09,0.42-0.25,0.53-0.46l1.14,0.56c0.26,1.63,0.48,3.5,0.6,5.63
		c0,0.08,0.03,0.15,0.07,0.21c0.14,2.26,0.33,4.32,0.56,6.18c-0.62,0.14-1.24,0.27-1.89,0.41c0,0-1.95-2.83-3.22-4.67
		c0.13-0.11,0.27-0.21,0.4-0.32C57.35,69.27,57.46,68.84,57.34,68.46z M56.39,68.78c-3.85,3.32-9.4,5.36-13.02,5.51
		c-0.84-2.6-1.58-5.25-1.99-7.56C38.16,48.48,47.36,41.59,56.39,68.78z M54.39,48.32c-1.29-0.17-5.48-1.25-6.55-4.53
		c0.01-0.02,0.02-0.04,0.04-0.06c2.25,1.53,4.69,2.36,7.11,2.55C54.63,46.91,54.38,47.59,54.39,48.32z M54.42,49.3
		c-0.19,1.37-0.62,3.01-1.09,3.18c-1.77,0.64-7.56-4.85-7.87-7.27l0.04-0.53c0.18-0.12,0.39-0.19,0.6-0.26
		c0.12-0.05,0.24-0.09,0.37-0.12c0.15-0.05,0.3-0.07,0.45-0.11c0.52,1.49,1.57,2.6,2.76,3.39c1.73,1.15,3.73,1.62,4.59,1.73
		C54.32,49.32,54.37,49.3,54.42,49.3z M54.72,52.24c0.16-0.38,0.31-0.89,0.44-1.43c0.4,0.42,0.77,0.79,1.07,1.04
		c0.07,0.06,0.13,0.09,0.19,0.14c0.79,2.37,1.36,4.53,1.79,7.05l-0.19,0.27c-0.01,0.01-0.01,0.02-0.02,0.03
		c-0.01-0.07,0-0.15-0.01-0.23c-0.1-0.53-0.39-0.88-0.62-1c-0.22-0.13-0.45-0.14-0.67-0.02c-0.13,0.08-0.26,0.21-0.35,0.42
		c-0.1,0.25-0.15,0.65-0.07,1.05c0.1,0.53,0.38,0.88,0.61,1c0.22,0.13,0.45,0.14,0.67,0.02c0.1-0.06,0.18-0.15,0.27-0.28
		c0.09,0.33,0.32,0.61,0.62,0.77l-2.6,0.92c-0.36-3.36-0.87-6.48-1.38-9.29C54.56,52.57,54.64,52.41,54.72,52.24z M57.25,59.95
		c-0.14,0.08-0.31-0.13-0.37-0.47c-0.07-0.34-0.01-0.68,0.13-0.76c0.15-0.08,0.31,0.13,0.38,0.47
		C57.45,59.53,57.39,59.87,57.25,59.95z M61.71,64.75c-0.14-0.81-0.28-1.57-0.44-2.28l0.84,0.41L61.71,64.75z M58.65,51.46
		c0.63,1.14,1.24,2.39,1.81,3.64c0.01,0.24,0.04,0.46,0.07,0.63l-1.51,2.16c-0.36-1.91-0.82-3.64-1.41-5.47
		c0.26-0.02,0.49-0.11,0.67-0.28C58.43,52,58.58,51.79,58.65,51.46z M57.69,51.16c-0.06,0.91-1.31-0.54-2.76-2.02
		c0.04-0.03,0.09-0.04,0.13-0.07c0.22-0.2,0.34-0.47,0.33-0.76c0-0.41,0.1-0.78,0.26-1.15c0.07,0.07,0.15,0.16,0.23,0.24
		C57.08,48.95,57.73,50.48,57.69,51.16z M67.49,36.26c1.43,0.44,1.42,3.09-1.23,2.84c-0.12,0.32-0.85,1.79-2.39,3.22
		c-0.04,0-0.07-0.01-0.11,0c-0.42,0.07-1.24-0.13-1.93-0.64c-0.44-0.32-0.99-0.89-1.09-1.73c-0.04-0.28-0.29-0.46-0.56-0.44
		c-0.28,0.04-0.47,0.29-0.44,0.56c0.12,0.94,0.65,1.8,1.49,2.42c0.47,0.34,1.01,0.59,1.54,0.72c-1.18,0.84-2.67,1.56-4.55,1.89
		c-0.9,0.15-1.67,0.25-2.38,0.23c-2.52-0.05-5.11-0.85-7.47-2.48c0.38-0.23,0.71-0.62,0.86-1.25c0.06-0.25,0.09-0.56,0.08-0.94
		c0.22,0.02,0.42-0.02,0.6-0.08c0.49-0.17,1.03-0.62,1.11-1.65c0.07-0.77-0.16-2.2-0.83-4.36c0.05-0.03,0.09-0.07,0.1-0.14
		c0.02-0.11-0.05-0.22-0.17-0.24c-0.33-0.09-0.65-0.27-0.94-0.48c-0.31-0.23-0.58-0.5-0.78-0.74c-0.61-0.73-0.93-1.44-1.05-2.06
		c-0.16-0.83,0.06-1.51,0.5-1.88c0.37-0.34,0.94-0.4,1.52-0.25c0.53,0.14,1.08,0.45,1.5,0.97c0.34,0.4,0.53,0.79,0.64,1.14
		c0.18,0.59,0.13,1.06,0.11,1.36c-0.01,0.06,0.03,0.12,0.07,0.17c-0.02,0.11-0.07,0.22-0.14,0.32c0.28,0.35,0.56,0.59,0.8,0.73
		c0.55,0.32,1.08,0.33,1.54,0.16c0.39-0.15,0.78-0.46,1.06-0.99c0.02-0.05,0.05-0.11,0.07-0.16c0.06,0.04,0.12,0.07,0.18,0.1
		c0.56,0.29,1.08,0.29,1.54,0.13c0.41-0.15,0.8-0.46,1.09-1c0.08-0.16,0.16-0.34,0.22-0.55c0.28,0.1,0.55,0.12,0.81,0.09
		c0.41-0.05,0.81-0.24,1.17-0.65c0.03-0.04,0.07-0.08,0.1-0.13c0.09,0.05,0.17,0.1,0.25,0.14c0.6,0.26,1.18,0.18,1.7-0.32
		c0.11-0.1,0.21-0.23,0.32-0.39c0.22,0.21,0.45,0.34,0.67,0.41c0.51,0.16,1.06,0.08,1.58-0.36c0.03-0.02,0.05-0.04,0.08-0.06
		c0.02,0.02,0.04,0.05,0.06,0.07c0.55,0.64,1.17,0.8,1.76,0.71c0.25-0.04,0.51-0.14,0.76-0.3c0.45,0.91,1.08,1.16,1.65,1.2
		C68.53,34.34,67.49,36.26,67.49,36.26z M38.3,39.41c-3.24-5.18-2.29-22.18,6.71-24.64c-0.94,0.88-1.69,2.2-2.25,3.68
		c-1.04,2.8-1.42,6.14-1.18,7.76c0.01,0.06,0.07,0.11,0.13,0.1c0.06,0,0.11-0.06,0.1-0.13c-0.14-1.59,0.42-4.81,1.6-7.47
		c0.74-1.67,1.71-3.12,2.95-3.73c0.75,0.2,1.39,0.52,1.93,0.87c1.36,0.92,2.03,2.05,2.03,2.05c0.03,0.06,0.1,0.09,0.16,0.06
		c0.06-0.03,0.08-0.1,0.05-0.16c0,0-0.55-1.28-1.87-2.44c-0.32-0.28-0.69-0.54-1.1-0.78c1.1-0.24,2.1-0.23,2.94-0.09
		c2.12,0.37,3.37,1.5,3.37,1.5c0.05,0.04,0.12,0.04,0.17,0c0.04-0.05,0.04-0.12,0-0.17c0,0-1.21-1.32-3.4-1.93
		c-0.91-0.25-1.99-0.36-3.22-0.23c5.12-3.89,21.7-3.01,23.24,11.62c0.41,3.83-1.15,5.1-1.49,5.1c-0.38,0.01-0.81-0.25-1.02-1.32
		c0.01-0.02,0.03-0.04,0.04-0.06c0.47-1.51,0.81-3.25,0.5-5.28c-0.23-1.46-0.78-3.08-1.88-4.87c-0.04-0.06-0.11-0.08-0.16-0.04
		c-0.06,0.03-0.08,0.1-0.05,0.15c0.94,1.81,1.36,3.41,1.48,4.83c0.14,1.91-0.29,3.5-0.84,4.88c-0.01,0.03-0.01,0.06-0.01,0.1
		c-0.85,1.24-1.78,1.01-2.38-1.79c-0.54,2.12-1.49,3.02-2.03,1.24c0.02-0.3,0.03-0.62,0.03-0.96c0-0.63-0.04-1.3-0.13-1.98
		c-0.14-0.96-0.36-1.94-0.72-2.83c-0.02-0.06-0.08-0.09-0.14-0.07c-0.07,0.02-0.1,0.08-0.08,0.15c0.23,0.89,0.32,1.85,0.32,2.79
		c0,0.99-0.11,1.95-0.27,2.77c0,0.01,0.01,0.01,0,0.02c-0.48,1.76-1.08,2.19-1.97-0.43c-0.57,3.13-1.55,3.02-2.82,0.58
		c0.31,3.1-0.7,4.14-1.89,2.73c-0.01-0.04-0.02-0.07-0.03-0.11c-0.72-1.2-1.05-2.4-1.17-3.47c-0.24-2.14,0.33-3.73,0.33-3.73
		c0.02-0.06-0.01-0.13-0.07-0.15c-0.06-0.02-0.13,0-0.15,0.06c0,0-0.75,1.6-0.72,3.86c0.01,1.11,0.24,2.37,0.8,3.68
		c-0.22,1.68-1.11,1.89-2,0.35c0-0.22,0-0.46-0.05-0.73c-0.08-0.43-0.27-0.92-0.62-1.45c-0.61-0.87-1.48-1.38-2.32-1.52
		c-0.74-0.12-1.45,0.07-1.96,0.5c-0.54,0.49-0.9,1.29-0.81,2.25c0.08,0.87,0.52,1.88,1.53,2.89c0.22,0.22,0.52,0.47,0.86,0.68
		c1.51,4.43,1.25,5.91,0.18,5.18c-0.85-0.96-1.41-2.03-1.76-3.03c-0.69-1.94-0.66-3.58-0.66-3.58c0.01-0.06-0.04-0.12-0.11-0.13
		c-0.06,0-0.12,0.05-0.12,0.11c0,0-0.21,1.7,0.3,3.78c0.25,1.04,0.7,2.16,1.42,3.22c0.23,1.56,0.01,2.29-0.65,2.22
		c-0.72-0.53-1.24-1.18-1.6-1.83c-0.72-1.28-0.88-2.47-0.88-2.47c0-0.06-0.06-0.11-0.12-0.11c-0.07,0.01-0.12,0.06-0.11,0.13
		c0,0.09,0.01,1.32,0.55,2.71c0.26,0.68,0.66,1.37,1.23,2.01C45.47,43.72,42.43,46.02,38.3,39.41z M22.88,74l0.02-1.37
		c2.21-3.28,5.76-4.41,7.41-2.86l-0.16,10.78l-7.27,4.92V74z M29.49,82.21v14.38l-1,0.79v-14.5L29.49,82.21z M22.88,86.55
		c0.15-0.02,0.3-0.07,0.43-0.16l4.18-2.83v14.6l-4.61,3.63V86.55z M43.23,110.52l-2.17,2.6v-4.25h2.17V110.52z M52.57,107.87H22.9
		v-0.76h29.67V107.87z M52.45,104.09l0.85-0.71c0.8,0.07,1.61,0.14,2.44,0.2l-2.49,2.69l-0.89-2.12
		C52.39,104.13,52.42,104.12,52.45,104.09z M22.42,106.27v-1.98c0.05,0.01,0.09,0.02,0.14,0.02h28.79l0.82,1.96H22.42z M40.48,100.7
		c2.69,1.27,6.7,2.04,11.44,2.54l-0.09,0.07H22.56l7.87-6.19h5.41c0.08,0.33,0.14,0.68,0.22,0.99c0.12,0.48,0.52,0.84,1.01,0.9
		c0.26,0.04,0.51-0.02,0.72-0.13C38.48,99.57,39.37,100.18,40.48,100.7z M65.3,85.93c-4.5,4.66-21.97,0.76-28.08,11.89
		c-3.73-15.01-1.56-43.75,7.46-51.71c0.17,0.46,0.42,0.97,0.78,1.5c1.14,1.72,3.17,3.73,4.9,4.87c0.7,0.47,1.37,0.8,1.92,0.95
		c0.51,0.13,0.95,0.12,1.31,0.01c0.45,2.54,0.89,5.31,1.23,8.28c-1.93-4.52-3.81-7.62-5.52-9.5c-1.93-2.11-3.75-2.78-5.2-2.49
		c-1.49,0.3-2.79,1.63-3.55,3.94c-0.97,2.93-1.15,7.55-0.15,13.24c0.41,2.35,1.16,5.04,2.02,7.69c0.14,0.43,0.55,0.71,0.99,0.69
		c1.19-0.05,2.59-0.31,4.07-0.73c1.72,2.86,4.14,5.97,6.07,7.85c1.15,1.12,2.2,1.8,2.87,1.96c0.08,0.02,0.16,0.03,0.24,0.03
		c0.84,0.02,3.56-0.53,7.01-1.53C64.15,84.15,64.69,85.18,65.3,85.93z M77.6,75.88c-7.53,4.44-19.04,7.37-20.91,7.32
		c-1.61-0.37-5.51-4.9-8.03-9c2.38-0.81,4.87-2.04,7.03-3.61l3.17,4.58c-0.2,0.21-0.38,0.44-0.52,0.69
		c-0.51,0.92-0.63,1.88-0.63,1.88c-0.01,0.07,0.03,0.15,0.11,0.17c0.07,0.01,0.15-0.03,0.17-0.11c0,0,0.27-0.63,0.81-1.24
		c0.28-0.31,0.64-0.58,1.08-0.75c0.04-0.02,0.07-0.06,0.11-0.09c4.99-1.06,9.39-2.08,13.26-3.06c0.13,0.25,0.28,0.48,0.47,0.63
		c0.44,0.38,0.9,0.49,0.9,0.49c0.01,0.01,0.07-0.01,0.1-0.06c0.02-0.05-0.01-0.11-0.06-0.13v-0.01c-0.01,0-0.03-0.02-0.06-0.04
		c-0.11-0.09-0.31-0.28-0.48-0.58c-0.11-0.19-0.16-0.43-0.17-0.72c-0.01-0.06-0.04-0.12-0.08-0.17c0.26-0.98,0.39-1.78,0.97-2.4
		c3.43-3.65,5.47-2.6,4.98-2.36c-3.31,1.62-2.58,3.81-2.21,4.48c0.03,0.02,0.06,0.02,0.09,0.04l4.28,3.4
		C80.89,75.74,79.12,76.3,77.6,75.88z M87.85,78.37l-9.4-7.48c0-0.15,0.01-0.3,0.04-0.45c-0.01-0.01-0.03-0.02-0.04-0.03
		c-0.04-0.13-0.06-0.27-0.01-0.44c0.15-0.5,0.71-0.99,1.9-1.58c0.59-0.28,0.75-0.75,0.75-1.16c0-0.33-0.11-0.75-0.56-1.08
		c-0.24-0.18-0.75-0.41-1.52-0.35c-0.87,0.06-2.34,0.51-4.18,2.2l-0.17-0.13l13.56-18.5l18.37,5.84L87.85,78.37z M71.24,92.44
		c-1.62-0.56-4.54-1.46-7.49-2.25c0.08-0.05,0.16-0.1,0.23-0.16c0.81-0.63,1.22-1.22,1.22-1.22c0.07-0.07,0.06-0.18-0.01-0.25
		s-0.18-0.06-0.25,0.01l0.11,0.27c-0.03-0.05-0.1-0.17-0.13-0.25c-0.02,0.01-0.05,0.03-0.07,0.05c-0.14,0.1-0.45,0.31-0.88,0.55
		c-0.2,0.12-0.42,0.24-0.67,0.36l-0.74,0.36c-0.14,0-0.26,0.06-0.35,0.16l-0.04,0.03c-0.31,0.13-0.63,0.27-0.98,0.39
		c-0.33,0.11-0.67,0.21-1.03,0.27c-0.1,0.01-0.18,0.09-0.17,0.19c0,0.1,0.09,0.17,0.19,0.17c0.61,0.03,1.18-0.01,1.71-0.12
		c0.18-0.04,0.32-0.11,0.49-0.16c0.02,0.01,0.05,0.03,0.08,0.04c3.26,0.84,6.67,1.89,8.46,2.5c3.56,1.23,3.43,5.34,3.18,13.51
		c-0.09,2.81-0.19,6.19-0.15,10.04h1c-0.04-3.84,0.06-7.21,0.15-10C75.36,98.53,75.5,93.9,71.24,92.44z"/>
</g>
</svg>
