<svg enable-background="new 0 0 127.56 127.56" viewBox="0 0 127.56 127.56" xmlns="http://www.w3.org/2000/svg"><g clip-rule="evenodd" fill-rule="evenodd"><path d="m42.27 11.32s-4.53-.94-6.6 1.92c-.78 1.08-2.26 2.73-2.79 4.67-.66 2.45-.35 5.23-.97 6.39-3.43 6.29.03 8.47 1.56 9.03 2.63.96 2.79.03 4.56.56 1.34.39 3.35.54 4.63-.23 1.27-.77 2.62-.39 4.49-.25 6.96.5 7.04-1.89 9.47-3.94 1.13-.96 1.13-3.39.18-4.74-.45-.64-1.02-2.6-1.6-4.44-1.37-4.32-2.95-4.03-2.95-4.03z" fill="#713e1b"/><path d="m52.01 23.46c-.25-5.31-3.9-9.53-8.36-9.53-4.63 0-8.38 4.54-8.38 10.12v.07c-.56-.21-1.11-.16-1.43.19-.47.52-.25 1.49.49 2.16.44.4.96.6 1.42.59.9 2.88 2.96 5.31 5.11 6.53l.31 1.46c1.74 6.2 5.6 5.37 6.28 0l.39-2.25c1.97-1.51 3.53-3.95 4.03-6.83.51.14 1.19-.05 1.75-.55.74-.67.96-1.64.49-2.16-.46-.49-1.37-.39-2.1.2z" fill="#ffdfb8"/><path d="m82.91 43.9c-.02-1.11-5.45 1.72-5.45 1.72-3.34 1.42-5.46 3-4.85 5.33-2.15 2.04-5.03 4.3-7.55 6.23l-4.66-5.87-4.31 2.86c2.46 3.04 5.35 5.64 8.51 7.97.48.35 1.13.33 1.59-.05 3.42-2.95 7.22-7.22 8.52-9.03 1.71-.09 2.79.13 5.7-1.92 1.12-.79.92-1.57.23-1.62.45-.88.23-1.58-.61-1.62.52-.96.53-1.39-.48-1.59-.01-.01 3.37-1.81 3.36-2.41z" fill="#ffdfb8"/><path d="m36.26 98.82c-.33 6.28.76 13.63 2.07 19.62h4.12c.34-5.23.43-14.2-.2-19.54z" fill="#ffdfb8"/><path d="m46.3 98.76c-.63 5.34-.4 14.45-.06 19.68l3.77-.01c1.31-6 2.6-13.48 2.27-19.75z" fill="#ffdfb8"/><path d="m32.18 78.59c-.59-1.66-1.76-2.72-1.76-2.72.19-6.75.86-16.56 1.71-23.67l-5.09-.73c-.16 7.2-.1 16.87.8 24.84-.37 7.67-.48 10 .24 9.8l.24-4.05c1.21 8.71 1.6 4.28 1.01-.42 1.39 8.05 2.12 6.88 1.38-.21.62 3.19.67 4.86 1.34 5.04.77.21-.73-3.04-.06-5.63 1.34 2.71 2.99 2.69 2.39 1.9-.87-1.11-1.45-2.03-2.2-4.15z" fill="#ffdfb8"/><path d="m54.66 54.74c2.75.2 6.12-.98 9.21-2.98 0 0-4.05-7.4-5.96-10.88-.62-1.14-1.65-2.01-2.88-2.44-2.16-.76-5.38-1.89-5.38-1.89l-1.05.02c-.07.85-.54 1.62-1.16 2.22-.12.17-.24.34-.37.5-.06.07-.13.15-.2.21-.43.38-.82.61-1.36.8-.56.19-1.09.13-1.65.05-.41-.06-.81-.24-1.18-.44-.04-.02-.07-.05-.1-.07-.06-.03-.11-.05-.18-.08-.96-.44-1.66-1.39-2.08-2.33-.13-.22-.2-.46-.24-.7l-1.13.02s-3.17.82-5.25 1.36c-1.15.3-2.17.98-2.89 1.93-2.26 3-7.2 9.56-7.2 9.56 2.44 2.97 5.56 4.65 9.39 4.98.17 1.06.75 2 1.56 2.86l-2.96 14.37c5.27 2.92 21.94 2.05 25.66-.14l-3.7-14.67c.32-.59.93-1.42 1.1-2.26z" fill="#b23e3f"/><path d="m48.25 33.99-.19.01c-.07.33-.15.65-.25.97s-.2.64-.28.97c-.18.66-.4 1.36-.76 1.95-.29.48-.66.87-1.14 1.16-.77.46-1.78.43-2.55-.01-.94-.54-1.38-1.5-1.69-2.49-.07-.23-.12-.46-.15-.7-.06-.18-.12-.37-.17-.56-.08-.33-.14-.68-.15-1.02h-.08l-2.42 2.33c.24 3.02 1.92 5.98 2.79 6.33.56.04.89-.07 1.72-.93l-.23 9.07 4.33-.14-.42-8.84c.82.81 1.13.91 1.49.7.73-.08 2.22-3.98 2.19-6.37z" fill="#5e6eb4"/><path d="m53.05 15.42c-2.37-4-7.07-6.93-12.93-4.3-.04-.07-.07-.12-.07-.12s-2.91-.19-4.35 1.92c-1.15 1.68-2.25 2.19-2.89 4.28s-.66 3.72-.66 4.73c0 1.41-.43 2.62-.43 2.62s1.07.16 2.45-1.34c1.38-1.51 1.36-2.17 3.05-3.04s3.25-2.3 3.91-4.32c.03-.09.05-.18.07-.27.8.58 1.94 1.13 3.56 1.58 3.96 1.1 6.49 4.64 7.39 8.9.34-1.78 3.99-6.54.9-10.64z" fill="#9c5929"/><path d="m55.69 72.88s-6.51 1.44-13.08 1.27c-8.06-.21-9.74-1.2-9.74-1.2s-.4 2.12-.67 5.38c.01.01.01.03.02.04 0 0 .01 0 .01.01.5.6.84 1.27 1.19 1.97.16.32.32.64.51.94.05.08.1.15.15.23.02.04.05.07.07.11.01.01.02.02.03.03.11.11.21.24.32.35.13.12.19.28.21.44.28.25.33.7.16 1.01-.22.42-.74.48-1.12.29-.69-.32-1.23-.9-1.65-1.54.01.08.02.15.02.23 0 .03 0 .03.01.05 0 .03.01.06.01.09.05.34.12.68.21 1.02.18.73.21 1.5.41 2.22.12.44-.15.87-.57 1.01-.05.02-.1.01-.15.01.22 5.2.94 10.89 1.51 14.74 3.33.6 8.63 1 12.86.81 4.68-.2 8.48-1.12 8.48-1.12s.94-10.09 1.15-13.47c.63-10.24-.35-14.92-.35-14.92z" fill="#8e8f90"/><path d="m44.75 43.61c.26 0 .48-.27.48-.6s-.21-.6-.48-.6-.48.27-.48.6.22.6.48.6z" fill="#680d0d"/><path d="m44.75 45.39c-.26 0-.48.27-.48.6s.21.6.48.6.48-.27.48-.6-.21-.6-.48-.6z" fill="#680d0d"/><path d="m44.75 48.38c-.26 0-.48.27-.48.6s.21.6.48.6.48-.27.48-.6-.21-.6-.48-.6z" fill="#680d0d"/><path d="m104.9 14.19h-7.36l1.33 18.12 4.93-.08zm-3.64 22.18c2.03 0 3.68 1.66 3.68 3.71s-1.65 3.71-3.68 3.71-3.68-1.66-3.68-3.71c.01-2.05 1.65-3.71 3.68-3.71z" fill="#69b54b"/><g fill="#010101"><path d="m41.2 24.42c0-.04-.02-.08-.03-.12.21.13.37.31.45.53.06.16.21.26.37.26.05 0 .1-.01.14-.03.21-.08.31-.31.23-.52-.27-.69-.92-1.17-1.72-1.25-.89-.09-1.74.34-2.26 1.16-.12.19-.06.43.12.55s.43.06.55-.12c.12-.19.27-.33.43-.46 0 .39.38.71.85.71.49 0 .87-.32.87-.71z"/><path d="m43.65 27.21c-.31-.02-.48-.12-.5-.16-.05-.21-.25-.35-.47-.31s-.36.25-.31.47c.07.37.41.64.91.75.14.03.29.04.44.04.53 0 1.12-.19 1.45-.66.13-.18.09-.43-.09-.56s-.43-.09-.56.09c-.19.28-.58.36-.87.34z"/><path d="m45.14 24.96c.19.12.43.06.55-.12.13-.2.28-.34.45-.47 0 .39.38.71.85.71s.86-.32.86-.71c0-.03-.02-.06-.02-.09.19.13.34.31.42.52.06.16.21.26.37.26.05 0 .1-.01.14-.03.21-.08.31-.31.23-.52-.27-.69-.92-1.17-1.72-1.25-.89-.09-1.74.34-2.26 1.16-.11.18-.06.42.13.54z"/><path d="m41.92 22.51c.22-.03.38-.23.35-.44-.03-.22-.22-.37-.44-.35-1.51.18-3.33-.53-3.35-.54-.21-.08-.44.02-.52.22-.08.21.02.44.22.52.07.03 1.59.62 3.13.62.21 0 .41-.01.61-.03z"/><path d="m46.71 29.73c-1.8-.12-3.7-.1-5.65.08-.22.02-.38.21-.36.43.02.21.19.36.4.36h.04c1.91-.17 3.77-.2 5.52-.08.21.02.41-.15.43-.37s-.16-.4-.38-.42z"/><path d="m44.76 30.75h-1.51c-.22 0-.4.18-.4.4s.18.4.4.4h1.51c.22 0 .4-.18.4-.4s-.18-.4-.4-.4z"/><path d="m83.81 43.89c0-.32-.12-.57-.3-.76-.22-.24-.65-.44-1.27-.37-1.41.16-4.82 1.87-5.16 2.05-1.77.75-3.22 1.57-4.15 2.49-.98.97-1.45 2.07-1.29 3.33-1.88 1.74-4.24 3.62-6.42 5.29l-2.05-2.58c.42-.24.84-.49 1.25-.75.44-.28.59-.86.33-1.32 0 0-4.05-7.4-5.96-10.88-.74-1.36-1.96-2.39-3.42-2.9-1.87-.66-4.52-1.59-5.21-1.83l-.99-1.19c1.82-.03 3.08-.31 4.03-.73 1.02-.45 1.71-1.06 2.35-1.74.53-.56 1.02-1.18 1.72-1.77.62-.53 1.03-1.36 1.17-2.31.19-1.28-.11-2.76-.81-3.77-.42-.59-.92-2.44-1.47-4.17-.33-1.06-.69-1.87-1.06-2.51-.2-.88-.58-1.75-1.21-2.61-2.55-4.26-7.52-7.36-13.71-4.84-.02 0-.04-.02-.06-.02 0 0-3.51-.2-5.24 2.35-.55.81-1.1 1.33-1.58 1.91-.57.69-1.08 1.44-1.45 2.64-.68 2.22-.7 3.95-.7 5.02 0 1.23-.37 2.29-.37 2.29-.02.05-.01.09-.02.14-1.64 3.26-1.53 5.52-.86 7.02.77 1.71 2.28 2.56 3.21 2.9 1.53.56 2.34.55 3.02.5.48-.04.88-.14 1.6.08.43.13.93.21 1.45.27l-.64.71c-.64.17-3.29.85-5.1 1.32-1.37.36-2.58 1.17-3.44 2.3-2.26 3-7.2 9.56-7.2 9.56-.28.37-.27.88.03 1.24 1.01 1.23 2.13 2.23 3.36 3.05-.11 6.97.01 15.71.83 23.05-.21 4.29-.33 6.92-.27 8.36.03.76.13 1.26.25 1.53.16.36.4.54.63.63.2.07.41.09.65.02.03-.01.06-.02.09-.03.03.1.06.19.09.26.17.41.4.57.53.64.24.12.68.16.99-.16.21.29.45.39.61.42.22.04.44 0 .64-.13.12-.08.29-.26.4-.59.15 4.7.65 9.24 1.34 14.02.06.42.39.76.81.84.51.09 1.02.17 1.54.25.22 5.36 1.35 11.16 2.42 16.04h.92c-1.05-4.82-2.19-10.57-2.43-15.9 2.08.29 4.16.45 6.24.5.16 5.09-.15 11.36-.41 15.4h.9c.26-4.05.56-10.28.41-15.38.58 0 1.16-.01 1.74-.02-.15 5.13.15 11.37.41 15.4h.9c-.26-4.02-.57-10.31-.42-15.43 2.07-.09 4.15-.31 6.25-.66-.23 5.38-1.39 11.21-2.45 16.07l.92.02c1.07-4.94 2.23-10.83 2.45-16.26.44-.08.88-.15 1.33-.25.43-.09.75-.45.79-.89.91-9.85 2.25-19.94.88-27.84.66-.21 1.21-.43 1.61-.66.38-.22.57-.68.46-1.11l-3.6-14.29c.23-.41.51-.89.73-1.38.29 0 .58-.03.88-.05 2.32 2.68 4.95 5.04 7.81 7.16.81.6 1.93.56 2.7-.09 0 0 .01 0 .01-.01 3.28-2.82 6.88-6.83 8.4-8.84 1.62-.06 2.84-.02 5.75-2.07.9-.63 1.17-1.33 1.17-1.81.01-.39-.12-.74-.37-1 .09-.54-.02-1.01-.26-1.35-.08-.11-.17-.21-.27-.3.02-.08.04-.16.05-.24.04-.29.01-.54-.08-.77.7-.41 1.52-.94 1.99-1.36.5-.42.67-.88.66-1.15zm-33.9-7.28c.04 2.39-1.18 5.62-1.91 5.7-.48.29-1.72-.98-2.75-2.21.53-.15 1.03-.47 1.48-.98.71-.81 1.29-2.15 1.51-3.96 0 0 .03-.18.08-.46zm-4.77-14.04c.09 0 2.19-.04 3.68-.88.14-.08.21-.22.2-.37 1.04 1.39 1.76 3.09 2.15 4.94.06.29.25.51.49.65-1.09 4.19-4.43 7.29-7.81 7.51-3.6.23-8.58-4.78-8.58-10.37 0-.21.02-.42.04-.63.35-.42.61-.77.84-1.09.37-.49.7-.86 1.53-1.29 1.64-.85 3.15-2.19 4.02-4 .75.39 1.66.76 2.79 1.07 1.74.48 3.15 1.5 4.25 2.85-.1-.03-.22-.03-.32.03-1.31.74-3.27.77-3.29.77-.22 0-.4.19-.39.41 0 .22.18.4.4.4zm-3.14 12.4c.65.2 1.29.29 1.9.25.99-.06 1.98-.36 2.92-.84.08.01.16.02.25.02.17.01.32.02.48.03l-.11.63c-.34 2.72-1.5 4.27-2.78 4.34-.01-.01-.01-.02-.02-.02-.01.01-.01.01-.02.02-1.24.04-2.59-1.29-3.44-4.28.29-.05.56-.08.82-.15zm2.64 5.65c.5.59 1.04 1.18 1.54 1.63l.47 8.31-3.54.05.23-8.53c.4-.42.84-.91 1.3-1.46zm10.2-18.73c.15-.52.28-1.07.35-1.62v.01c.58 1.85 1.16 3.81 1.6 4.44.95 1.35.95 3.78-.18 4.74-2.25 1.9-2.53 4.06-8.07 3.99.01-.08.03-.16.04-.24 1.76-1.45 3.2-3.58 3.85-6.1-.04-.03-.06-.06-.1-.09.22-.04.41-.16.55-.31.43-.11.87-.33 1.26-.69 1.12-1.01 1.25-2.51.54-3.29-.03-.03-.07-.06-.1-.09.1-.24.19-.49.26-.75zm-1.22 3.54c-.09.08-.19.14-.29.2.22-.57.58-1.3.93-2.13.24.55 0 1.35-.64 1.93zm-13.52-14.3c5.87-2.65 10.58.29 12.95 4.29 3.09 4.11-.56 8.86-.9 10.64-.9-4.26-3.43-7.8-7.39-8.9-6.6-1.84-5.34-5.32-4.66-6.03zm-7.95 10.8c0-1.01.01-2.64.66-4.73.64-2.09 1.75-2.59 2.89-4.28.87-1.28 2.27-1.71 3.25-1.85-.45.89-.76 2.39.29 3.93.34.51.86 1.03 1.6 1.52-.76 1.66-2.14 2.86-3.62 3.63-1.69.87-1.67 1.54-3.05 3.04-1.38 1.51-2.45 1.34-2.45 1.34s.43-1.19.43-2.6zm2.71 4.9c-.18-.09-.36-.2-.53-.35-.5-.45-.75-1.03-.72-1.52.28-.17.57-.38.88-.67.02.86.15 1.72.37 2.54zm3.17 7.06c-1.78-.52-1.93.4-4.56-.56-1.44-.52-4.52-2.49-2.11-7.88.07.03.14.07.22.08 0 0 .5.11 1.28-.19.09.6.39 1.22.94 1.72.42.39.9.61 1.37.71.76 2.11 2.07 3.97 3.58 5.29.45.39.91.72 1.38 1.01l-.09.1c-.72 0-1.43-.11-2.01-.28zm2.2 1.28h.14l.01.06c0 .02.01.03.01.05.58 2.06 1.4 3.4 2.24 4.14.45.39.91.61 1.37.71-1.12 1.33-2.06 2.4-2.78 2.35-.87-.35-2.09-2.81-2.33-5.83zm-8.19 51.3c-.67-.18-.72-1.86-1.34-5.04.73 7.1 0 8.26-1.38.21.59 4.7.2 9.13-1.01.42l-.24 4.05c-.72.2-.61-2.12-.24-9.8-.8-7.15-.93-15.65-.84-22.52 1.45.82 3.04 1.36 4.78 1.64-.68 6.65-1.19 14.67-1.35 20.44 0 0 1.17 1.06 1.76 2.72.75 2.12 1.34 3.05 2.19 4.16.61.79-1.05.82-2.39-1.9-.67 2.58.84 5.83.06 5.62zm.46-30.24c.25.53.59 1.03.99 1.51 0 0-1.01 4.88-1.82 8.85.22-3.47.5-7.06.83-10.36zm-1.17 16.57c.29.15.62.29.97.42-.13 1.1-.25 2.18-.35 3.24-.27-.39-.54-.71-.72-.9.02-.88.06-1.81.1-2.76zm22.97 28.16c-6.85 1.44-13.54 1.46-20.32.21-.69-4.79-1.19-9.34-1.34-14.06.01 0 .01-.01.02-.01.19-.14.39-.41.41-.86.01-.36-.11-1.01-.25-1.81-.07-.39-.14-.82-.18-1.27.33.32.63.52.88.65.46.23.85.22 1.08.15.36-.11.58-.35.66-.67.07-.24.06-.62-.26-1.04-.81-1.05-1.36-1.93-2.07-3.94-.03-.09-.08-.17-.11-.25.1-1.46.26-2.97.44-4.52 3.03.89 7.46 1.23 11.79 1.13 3.85-.09 7.59-.54 10.16-1.19 1.34 7.8-.02 17.75-.91 27.48zm.95-46.21c.24-.92.4-1.85.5-2.74.31-2.86.01-5.22.01-5.22-.01-.05-.05-.09-.1-.08s-.09.05-.08.1c0 0 .15 2.34-.32 5.14-.27 1.58-.74 3.3-1.56 4.82-.01.02-.01.04-.02.07-.04.06-.08.13-.11.19l3.7 14.67c-3.72 2.19-20.39 3.06-25.66.14l2.96-14.37c-.34-.36-.63-.74-.88-1.14-.48-.9-.77-2.06-.96-3.27-.51-3.31-.18-7-.18-7 .01-.05-.03-.1-.08-.1-.05-.01-.1.03-.1.08 0 0-.52 3.71-.18 7.09.05.47.11.94.2 1.39-3.54-.46-6.46-2.1-8.77-4.9 0 0 4.94-6.56 7.2-9.56.72-.95 1.73-1.63 2.89-1.93 1.43-.37 3.35-.87 4.43-1.15.21 2.16.89 4.03 1.59 5.1.4.62.85 1 1.21 1.15.08.03.16.05.25.06.4.03.86-.12 1.34-.46l-.21 7.78c-.01.22.08.43.23.58.15.16.36.24.58.24l3.54-.05c.22 0 .43-.1.57-.25.15-.16.23-.37.21-.59l-.43-7.63c.47.26.91.3 1.22.2.14-.03.3-.1.47-.23.23-.18.5-.51.75-.97.62-1.15 1.21-3.21 1.25-4.96 1.13.4 2.95 1.04 4.34 1.53 1.23.43 2.25 1.3 2.88 2.44 1.91 3.48 5.96 10.88 5.96 10.88-2.89 1.82-6 2.96-8.64 2.95zm19.46-1.69c-1.3 1.82-5.09 6.08-8.52 9.03-.45.38-1.11.4-1.59.05-2.65-1.96-5.1-4.14-7.28-6.58 1.63-.29 3.35-.91 5.04-1.78l2.35 2.96c-.12.17-.25.33-.36.51-.15.24-.29.49-.39.75s-.17.56-.08.83c-.02-.28.11-.52.26-.73s.33-.41.52-.59c.13-.12.26-.23.39-.34l.01.02c2.52-1.93 5.41-4.19 7.55-6.23-.57-2.18 1.24-3.7 4.21-5.05.05.1.08.24.05.39-.04.27-.22.57-.41.84-.4.55-.94 1.02-1.49 1.48l-.01.01c-.06.05-.07.13-.03.2.2.32.33.74.29 1.15-.03.41-.24.8-.53 1.11.33-.27.6-.64.69-1.09.08-.4.03-.8-.12-1.19.23-.15.45-.3.67-.47-.03.08-.05.17-.06.27-.01.4.22.7.53.85.04.02.08.02.12.03-.07.11-.15.24-.16.46 0 .16.06.21.09.3.04.08.07.17.15.23.17.18.36.25.54.27-.04.14-.08.28-.07.47-.03.24.09.64.38.8.56.29.99.1 1.4.02.14-.04.26-.1.39-.14-2.07 1.22-3.08 1.08-4.53 1.16zm5.33-5.2c-.92.33-2.41.82-2.63.86-.05 0-.11.01-.16.03-.04.01-.09.02-.14.02-.17.02-.32 0-.39-.03-.03-.02-.03-.03-.05-.05.01-.03-.04-.07-.01-.06-.03.01.06-.14.17-.25.13-.12.26-.23.42-.35.3-.23.64-.44.97-.65l1.64-1c.67.23.62.65.18 1.48zm.62 1.6c-.82.34-1.66.64-2.51.78-.09.02-.97.27-1.1-.15-.05-.17-.08-.07.06-.24.1-.11 2.19-1.27 3.09-1.92.67.12.84.74.46 1.53zm-.25 1.68c-.16.12-.3.2-.46.3-.4.12-.79.21-1.19.25-.37.04-.81.14-.96-.17-.36-.34.18-.78.18-.78.01-.02.02-.05.02-.07.08-.02.17-.02.24-.05.87-.27 1.64-.68 2.4-1.12v.01c.69.06.88.84-.23 1.63zm-.84-4.85c-.56.14-1.11.31-1.64.54-.3.12-.58.27-.86.43.19-.23.36-.48.46-.81.08-.25.07-.56-.03-.85.37-.19 5.39-2.77 5.41-1.7.01.57-3.1 2.26-3.34 2.39z"/></g></g></svg>