<svg enable-background="new 0 0 127.56 127.56" viewBox="0 0 127.56 127.56" xmlns="http://www.w3.org/2000/svg"><g clip-rule="evenodd" fill-rule="evenodd"><path d="m98.24 11.81c-7.68-3.17-15.16 1.49-15.16 1.49-.1.06-.19.13-.29.2-3.57.22-8.24 5.85-8.76 11.94-.15 1.74.01 3.67.69 5.31 0 .22 0 .44.01.66 0 0 1.51 11.52 9.42 14.9.47-.32 1.05-.41 1.54-.13 1.76-.19 3.55.17 5.33.23 1.18.04 2.45 0 3.61-.22.74-.14 1.39-.5 2.06-.78.15-.13.33-.22.55-.27.13-.03.25-.03.38-.05h.03c.18-.03.35-.06.53-.07.11 0 .2.01.3.03.38-.02.77-.07 1.13-.18.06-.02.25-.14.31-.14 0-.12.03-.44.05-.52.06-.28.18-.53.33-.78.56-.94 1.65-.81 2.25-.22 2.65-2.28 4.99-6.02 5.7-12.15 1.18-10.06-3.28-16.47-10.01-19.25z" fill="#978771"/><path d="m79.9 66.06c-2.03-.72-5.1-4.1-5.86-5.69 4.05-5.72 7.04-11.73 13.18-15.48l14.97-.23c10.68 10.21 7.92 28.52.95 55.24.22-.85-.47.45-.91-.35-.43-.79-1.02-3.81-1.67-4.47-3.65-3.65-12.23-7.05-24.72-9.7z" fill="#bbe4f9"/><path d="m90.88 77.19c-4.1.56-8.39.95-13.6 1.02-5.09-2.59-16.21.34-13.76 3.35-1.35 1.49-.05 2.81.95 1.37-1.03 1.67.79 1.9 2.64 1.28.64 2.02 8.59-1.4 8.59-1.4s11.96 3.18 18.99 1.06c2.17-.66 6.18-9.23 6.18-9.23l-7.37-3.96z" fill="#ffdfb8"/><path d="m105.04 24.48c-.99-.67-2.14-.32-3.15.91-.01-.01-.01-.03-.02-.04-.03.1-.09.2-.14.31-.02.07-.05.14-.07.22.04.12.06.25.04.38-.09.58-.23 1.15-.35 1.72-.06.29-.13.59-.18.89-.02.13-.04.25-.06.38 0 .02-.02.14-.02.15-.01.08-.02.16-.02.23-.03.31-.22.57-.54.62-.23.03-.48-.08-.61-.27-.27.21-.62.34-1.06.34-.7 0-1.18-.33-1.46-.79-.28.05-.58.05-.83-.02-.45-.12-.83-.44-1.07-.83-.14-.23-.24-.48-.32-.73-.29.3-.7.51-1.24.51-.62 0-1.07-.26-1.36-.64-.11-.06-.21-.12-.31-.2-.01-.01-.02-.02-.03-.02-.08-.07-.16-.15-.22-.24-.01-.01-.01-.02-.02-.03-.07-.09-.12-.19-.17-.29 0-.01 0-.01-.01-.02-.05-.11-.09-.22-.12-.34-.03 0-.06.01-.1.01-.08 0-.15-.02-.22-.03-.02.88-.6 1.75-1.73 1.75-.42 0-.75-.12-1.02-.31-.04.05-.08.11-.13.15l-.05.05c-.22.22-.49.38-.79.46-.16.02-.32.04-.48.06-.32 0-.63-.08-.91-.25-.07-.05-.13-.1-.2-.15-.29.32-.71.54-1.27.54-.7 0-1.18-.33-1.46-.79-.02.01-.03.03-.04.04.28 1.03-.28 2.32-1.66 2.32-.07 0-.14-.01-.21-.02-.03.08-.06.17-.1.25-.09.12-.19.24-.28.36-.16.18-.36.3-.58.37-.21.11-.44.16-.69.15-.25.01-.48-.04-.69-.15-.22-.07-.42-.2-.58-.37l-.05-.05c-.03-.04-.06-.08-.09-.11-.08.01-.15.03-.24.03-.01.49.03 1 .09 1.56.06.63-.34 1.2-.88 1.52 1.57 7.18 6.8 11.79 12.99 11.36.3 1.32 1.02 2.37 1.72 2.98 2.37-1.08 8.97-3.86 8.05-8.05-.11.09.34-.78.23-.7 1.78-2.45 2.35-5 2.7-8.56.69-.11 1.07-.95 2.03-1.94 1.25-1.24 1.03-3.98-.02-4.68z" fill="#ffdfb8"/><path d="m47.99 63.42s-.78.54-1.4.98c-.2.14-.33.35-.37.59s.03.49.18.68c.08.1.16.21.25.32-.38.3-.82.69-.85.87-.14.91 1.6.92 1.6.92l-.08-.94c.19.24.33.42.33.42z" fill="#ffdfb8"/><path d="m78.47 68.92c.01-.89.28-1.75.43-2.62 0 0 0 0 0-.01-.26-.16-.52-.3-.79-.45-.45-.26-.84-.59-1.19-.98-.03-.03-.06-.07-.09-.1-.96-.63-1.79-1.4-2.38-2.4-.02-.03-.02-.06-.04-.09l-.4.76c-4.87.49-10.41.78-16.39.93 0 0-2.34-1.27-3.15-1.7-.18-.1-.37-.15-.57-.16-1.15-.06-5.18-.2-5.4 1.04-.32 1.83.09 2.56-.65 4.64-.21.59 2.09.94 2.89-3.11 1.09-.22 2.84.48 3.38 2.04-2.25 1.34-2.4 3.07-1.72 3.47 0 0 .9-1.53 2.43-1.33 2.34.3 3.49-.46 3.49-.46 3.79.71 18.18 2.61 20.2.93-.04-.13-.06-.26-.05-.4z" fill="#ffdfb8"/><path d="m92.78 88.15-2.44-3.2c-1.76.38-3.75.21-5.4.1-1.41-.09-2.82-.16-4.21-.41-1.6-.29-3.15-.77-4.71-1.23-.07.02-.15.04-.22.06-2.37.74-4.61 1.97-7.16 1.9-.36-.01-.69-.14-.98-.34-.75.08-1.51.1-2.28.06-.52-.03-.97-.31-1.29-.69-.05-.02-.1-.05-.15-.07-1.2-.12-2.16-1.57-1.41-2.69.06-.08.18-.24.28-.39-.09-.31-.11-.64 0-.94.1-.28.21-.56.37-.8.26-.4.71-.66 1.19-.77.38-.24.78-.44 1.18-.63.15-.31.38-.57.69-.73 2.48-1.2 5.26-1.2 7.92-.77 1.27.21 2.59.54 3.83 1.03 1.64-.51 3.64-.39 5.2-.41.41-.01.8-.06 1.19-.07l-5.8-7.61c-.47.71-1.28 1.11-2.16 1.2-.3.03-.59.01-.89-.03-.06-.01-.12-.02-.18-.03-.86.14-1.74.17-2.62.1-.93-.07-1.86-.22-2.79-.37-.4-.06-.81-.13-1.21-.19-.06-.01-.42-.06-.43-.06-.14-.02-.28-.03-.42-.05-.06-.01-.1-.03-.15-.04-.58.01-1.16.01-1.71.04-2.16.12-4.22-.79-6.29-.91-.09 0-.17-.01-.26-.02-.02 0-.04 0-.06 0-.16-.02-.31-.03-.48-.06-.08-.01-.16-.05-.23-.08-1.15.4-2.39.55-3.62.42-.02 0-.03 0-.05 0v-.01c-.16-.02-.32-.03-.48-.05-.12-.02-.22-.06-.33-.1-.06.06-.06.07-.16.21-.01-.01-.02-.01-.03-.02-.09.13-.16.26-.26.38-.57.7-1.7.63-2.36.14-.67-.5-.96-1.59-.46-2.32.07-.1.15-.21.22-.31-.01-.02.15-.28.22-.39-.01-.01.16-.42.18-.48l.06-.18c-.05-.1-.1-.21-.14-.31-.52.8-1.39 1.34-2.18 1.89-.56.38-1.28.3-1.83-.03h-.29c-.73 0-1.36-.45-1.64-1.1-.31-.71-.1-1.4.37-1.96.14-.17.16-.2.07-.08l.39-.51c.13-.16.26-.32.4-.46.26-.25.54-.45.84-.62.22-.25.52-.44.85-.56 1.65-.59 3.51-.69 5.29-.41 1.43-.2 2.94.67 4.09 1.43.04.03.07.06.11.09.08-.01.16-.02.23-.03.04-.02.08-.04.13-.06 2.11-.7 4.34-.45 6.52-.44.14 0 .27.02.4.04.4-.02.81-.04 1.21-.07 2.28-.19 4.56-.51 6.86-.44l-2.6-3.41-42.23-.19-16.22 30.23 80.09.56c.66 0 .82-1.22.43-1.75z" fill="#f4c385"/><path d="m112.7 71.22c-.94-1.28-3.56-3.07-3.56-3.07l-1.88 14.79 5.58 3.28z" fill="#f4c385"/><path d="m103.01 99.83s-3.13 3-7.6 3.56c-5.58.7-15 .28-15 .28l.07 1.05 32.37-.21-9-6.35z" fill="#f4c385"/><path d="m88.29 93.78-2.79.05-.21 3.84-26.44.07s-7.93 12.44-11.79 20.3h26.37c2.63-3.71 6.08-10.91 7.19-14.09 15.61.55 20.67-.58 21.84-4.74.7-5.02-10.67-9.21-10.67-9.21l-2.44-.14-.16 3.07c-.05.47-.43.84-.9.85z" fill="#203756"/><path d="m86.96 61.06c.23.08.52-.18.64-.58.13-.4.04-.78-.19-.86s-.52.18-.64.58c-.13.39-.04.78.19.86z" fill="#203756"/><path d="m88 57.98c.23.08.52-.18.64-.58.13-.4.04-.78-.19-.86s-.52.18-.64.58-.04.78.19.86z" fill="#203756"/><path d="m89.02 54.69c.23.08.52-.18.64-.58.13-.4.04-.79-.19-.86s-.52.18-.64.58-.04.78.19.86z" fill="#203756"/><path d="m106.31 99.76-.28-10.7-2.33 8.56.47.84z" fill="#ffd219"/><path d="m112.95 72.27.1 38.09 2.2.11v-38.44z" fill="#ffd219"/><path d="m92.36 110.55h4.23v7.28h-4.23z" fill="#ffd219"/><path d="m77.29 110.74h7.25l.56 7.07 3.4.02-.01-1.08.82 1.06h2.51l-2.73-4.06.03-3.14h23.44l.18-1.99-34.52.26z" fill="#ffd219"/><path d="m85.22 93.57h-67.45v4.1h3.54v20.16l5.3.05v-20.21h58.61z" fill="#ffd219"/><path d="m62.3 83.64c-.16-.37-.2-.78-.09-1.17.08-.29.25-.53.44-.76 0-.08.02-.18.03-.26-.26-.51-.29-1.12.07-1.64.77-1.13 1.84-1.86 3.12-2.32.13-.05.26-.08.39-.12l-1.76-7.86c-1.87-.02-3.74-.04-5.61-.05-.96 0-1.92-.05-2.89-.05-.51 0-.91.02-1.22.08-.19.04-.39.09-.57.16.02.02-.46.3-.23.11-.75.62-1.8.74-2.54 0-.01-.01-.02-.03-.03-.04s-.03-.02-.04-.03c-.28-.28-.43-.6-.49-.94l-12.86-.07-4.55 15.24h28.98c-.05-.08-.11-.18-.15-.28z" fill="#f0e7b6"/><path d="m103.28 37.17c.23.82-1.48 4.81-1.89 5.4 1.48-1.37 2.37-4.9 1.89-5.4z" fill="#c9b49a"/><path d="m105.14 38.2c.02.85-1.96 4.13-2.36 4.57 1.33-.87 2.62-3.96 2.36-4.57z" fill="#c9b49a"/><path d="m77.26 33.3c-1.54-3.05-2.68-12.78 3.04-18.8-7.7 7.03-6.13 16.56-3.04 18.8z" fill="#c9b49a"/><path d="m86.69 12.56c.91-.04 6.08 1.04 6.62 1.99-.01-1.01-4.01-2.75-6.62-1.99z" fill="#c9b49a"/><path d="m82.8 13.56c.49.12 3.93 1.94 5.91 4.94-.02-.68-3.22-4.71-5.91-4.94z" fill="#c9b49a"/><path d="m103.7 76.22c1.12-2.73 2.13-5.51 2.77-7.93 5.06-19.15-3.72-26.37-15.6 2.14 3.62 3.48 9.13 5.62 12.83 5.79z" fill="#bbe4f9"/><path d="m92.43 53.36c1.87-.07 10.63-6.89 10.4-8.7-.12-.95-1.44-2.42-2.09-3-.51 1.31-1.53 2.93-2.73 3.76-.33.23-.67.44-1.03.64-.58.43-1.17.84-1.77 1.24-.33.22-.63.46-.99.63-.74.35-1.98.66-2.78.4.15 2.02.36 5.06.99 5.03z" fill="#fff"/><path d="m91.44 48.49-.41.31c.2-.24.39-.48.55-.71-.33-.14-.61-.33-.84-.62-.29-.38-.38-.76-.44-1.23-.02-.2-.03-.41-.02-.62-.46.01-.92-.05-1.34-.2-1.07 2.39-2 5.94-1.24 6.24.24.1 1.04-.22 1.53-.6-1.65 1.51-3.48 7.29-4.51 10.95l3.86 1.6c.77-3.64 3.09-11.63 3.09-11.63zm-3.38 11.81c-.05.28-.17.55-.35.76-.05.06-.13.12-.19.16-.02.01-.03.02-.05.03-.06.03-.12.06-.18.07-.27.06-.54-.01-.74-.19-.1-.09-.16-.2-.2-.32-.02-.06-.03-.13-.03-.2 0-.02 0-.04 0-.06.02-.19.07-.36.16-.53.06-.11.14-.21.21-.31.06-.08.12-.16.19-.23.01-.01.02-.01.03-.02.03-.08.07-.15.13-.21.1-.11.26-.17.4-.17s.31.06.4.17c.1.11.15.2.19.34.03.08.04.18.05.27.03.13.01.29-.02.44zm.89-3.37c-.13.32-.22.66-.34.98-.03.1-.08.18-.15.25-.04.03-.08.06-.12.09-.13.08-.29.09-.44.06-.14-.03-.27-.14-.34-.26s-.11-.31-.06-.44c.06-.16.11-.33.17-.5.07-.22.15-.43.24-.64.05-.09.12-.15.21-.21.05-.02.09-.04.14-.06.15-.05.31-.01.44.06.12.07.23.21.26.34.02.08.03.15.01.23 0 .08-.03.15-.07.21.01-.03.03-.07.05-.11zm.91-3.24c0 .03-.01.13-.02.16v.02c-.06.22-.15.43-.21.65-.04.15-.14.26-.26.34-.13.08-.29.09-.44.06-.07-.02-.14-.05-.19-.1-.06-.04-.11-.09-.15-.16-.08-.13-.09-.3-.06-.44.03-.13.08-.25.12-.38.02-.06.04-.12.06-.19.01-.03.02-.07.03-.1-.01.04-.01.08-.02.12 0-.07.01-.13.04-.19.02-.07.06-.13.12-.18 0 0 .11-.09.12-.09 0 0 .14-.06.14-.06s.15-.02.15-.02c.05.01.1.01.15.02.02.01.05.02.07.03.08.03.11.04.18.12 0 0 .09.12.09.12s.06.14.06.14c0-.02.02.13.02.13z" fill="#fff"/><path d="m76.7 56.23c-.23.38-.5.73-.78 1.07 1.26 1.53 2.88 2.84 4.62 3.9.01-.06.03-.12.04-.17.08-.37.18-.75.28-1.12-1.58-1-3.04-2.24-4.16-3.68z" fill="#fff"/><path d="m75.32 57.96c-.3.31-.6.62-.92.91 1.44 1.94 3.45 3.58 5.61 4.81.09-.44.18-.88.27-1.32-1.93-1.15-3.7-2.64-4.96-4.4z" fill="#fff"/><path d="m93.83 63.42c-.2.38-.42.76-.65 1.13-.04.08-.07.17-.11.25 3.33 3.62 8.57 5.95 13.02 6.56.14-.48.26-.96.38-1.45-4.32-.54-9.52-2.86-12.64-6.49z" fill="#fff"/><path d="m92.59 66.08c-.03-.03-.06-.05-.09-.07-.23.48-.46.96-.66 1.45 3.41 3.76 8.89 6.15 13.44 6.68.13-.48.27-.97.41-1.45-4.43-.44-9.9-2.82-13.1-6.61z" fill="#fff"/><path d="m49.01 71.57.78-3.24 7.13-14.25c.38-.64 1.55-.44 1.22.5l-6.98 14.15z" fill="#b23e3f"/><path d="m89.47 89.53-74.97.28.55 4.18h73.96z" fill="#b28750"/><path d="m80.05 104.43-1.51 4.3 34.65.1v-4.01z" fill="#b28750"/></g><path d="m85.03 44.93c-3.83-1.68-6.84-5.31-8.11-10.26-.18-.06-.38-.14-.6-.29-.47-.33-.87-.71-1.23-1.13.76 3.28 2.98 10.08 8.54 12.81.46-.38.91-.77 1.4-1.13z" fill="none"/><path d="m92.52 52.72c1.87-.07 9.98-6.25 9.75-8.07-.12-.92-.83-1.74-1.47-2.31-.33.97-.93 1.86-1.72 2.65-1.87 1.89-4.77 3.2-6.28 3.89-.3.14-.63.13-.93.02.11 1.85.1 3.84.65 3.82z" fill="none"/><path d="m58.99 64.42c.25 1.08-.02 2.3-.02 2.3-.01.06-.07.11-.13.1s-.11-.07-.1-.13c0 0 .02-1.13-.41-2.04-.14-.29-.35-.53-.63-.69-.03 0-.05 0-.08 0 0 0-1.45-.78-2.46-1.33l-1.6 3.23c.24.25.45.53.56.84-2.25 1.34-2.4 3.07-1.72 3.47 0 0 .9-1.53 2.43-1.33 2.34.3 3.49-.46 3.49-.46 3.51.68 16.21 2.36 19.59 1.25l.61-2.89c-.7-.41-1.45-.98-2.17-1.64-.81-.74-1.57-1.58-2.19-2.36l-.16.3c-4.54.46-9.68.74-15.2.89.09.15.15.32.19.49z" fill="none"/><path d="m76.89 33.56c1.01.7 1.04-.56.75-3.02-.38-.93-.65-2.15-.77-3.4-.15-1.51-.11-2.99.16-3.84 0-.02.02-.03.04-.02.02 0 .03.02.02.04-.16.86-.02 2.3.3 3.74.3 1.31.75 2.6 1.29 3.42.02.04.03.08.04.13.43.46.93.83 1.44.88 1.1.1.56-3.63.56-3.63s.63 2.07 1.66 2.41.06-7.56.06-7.56.95 5.48 2.31 5.75c1.26.25.63-2.49.63-2.49s.77 2.23 1.95 2.54.16-3.79.16-3.79c2.75 5.29 3.56 4.55 3-1.35 2.51 5.14 4.06 7.13 3.6 2.54 1.55 3.14 2.52 4.3 2.71 2.8.06-.83-.01-1.62-.17-2.34-.25-1.11-.7-2.02-1.17-2.51-.02-.01-.02-.04 0-.05.01-.02.04-.02.05 0 .57.43 1.18 1.29 1.63 2.41.31.78.53 1.67.6 2.61.99 1.9 1.72 1.62 1.04-1.63 0 0 1.08 2.18 2.1 2.78 0-.02-.02-.03-.02-.05-.01-.18-.47-1.9.12-3.53.22-.6.49-1.23.9-1.71.04-.04.08-.08.12-.12-.62-3.72-2.58-8.49-7.97-11.04-2.68-1.27-5.82-1.45-7.95-1.1 1.22.15 2.82.51 4.54 1.4 1.7.87 3.51 2.25 5.13 4.42.03.04.03.11-.02.14-.04.03-.11.03-.14-.02-1.7-2.02-3.53-3.26-5.23-4.01-2.15-.95-4.09-1.1-5.24-1.09.52.22 1.04.49 1.56.85 1.37.94 2.74 2.32 3.91 4.15.03.05.02.11-.02.14-.05.03-.11.02-.14-.03-1.04-1.35-2.18-2.42-3.33-3.2-1.45-.99-2.9-1.49-4.12-1.46-.06 0-.12-.02-.17-.04-.61 1.2-.89 2.33-.97 3.32-.18 2.14.49 3.61.49 3.61.03.06.01.13-.05.16s-.13.01-.16-.05c0 0-.86-1.47-.9-3.74-.02-.96.14-2.06.54-3.25-3.38 1.09-7.25 6.22-7.72 11.73-.25 2.91.33 6.36 2.85 8.1z" fill="none"/><path d="m49.32 70.29-.31 1.28.8-1.06z" fill="none"/><path d="m55.7 61.55c.84.46 2.21 1.2 2.21 1.2 5.1-.13 9.86-.38 14.16-.75l-1.68-2.19h-13.83z" fill="none"/><path d="m51.91 62.06c-1.52.04-3.26.26-3.4 1.07-.32 1.83.09 2.56-.65 4.64-.15.41.46.59 1.12-.65.2-.39.9-1.52 1.48-2.15z" fill="none"/><path d="m49.55 69.31.88.38.46-.6c.09-.67.45-1.51 1.24-2.32l6.02-12.19c.33-.94-.84-1.14-1.22-.5l-7.13 14.25z" fill="none"/><path d="m99.83 41.25c-1.93 2.41-4.52 4.06-7.67 4.57-.34.06-.68.08-1.02.11.28.8.66 1.41 1.17 1.86 2.09-.96 7.02-3.16 7.52-6.54z" fill="none"/><path d="m89.89 45.97c-.39 0-.77-.03-1.15-.07-.93 2.29-1.35 4.88-.65 5.16.55.22 2.15-1.25 3.2-2.59-.6-.6-1.06-1.41-1.4-2.5z" fill="none"/><path d="m87.41 59.61c-.23-.08-.52.18-.64.58-.13.4-.04.79.19.86.23.08.52-.18.64-.58.13-.39.04-.78-.19-.86z" fill="none"/><path d="m101.63 19.84c.64 1.39 1.03 2.79 1.27 4.09.48-.18 1.04-.2 1.7.03.74.28 1.29.95 1.52 1.82.24.95.09 2.13-.54 3.18-.25.4-.97 1.29-1.88 1.85-.3 3.33-1.23 6.36-2.73 8.82.1.47.13.93.1 1.37.33.25.71.57 1.09.98.02.02.04.06.06.08.42-.51.9-1.17 1.33-1.97.56-1.06 1.01-2.32 1.04-3.69 0-.05.04-.09.09-.09s.09.04.09.09c.12 1.43-.22 2.79-.68 3.94-.41 1.01-.91 1.84-1.32 2.44.03.05.08.09.11.15 2.52-2.3 4.71-5.97 5.4-11.86 1.17-10.07-3.29-16.47-10.03-19.25-3.63-1.5-7.21-1.24-9.98-.56 1.95.02 4.19.4 6.2 1.35 3.69 1.73 5.88 4.45 7.16 7.23z" fill="none"/><path d="m88.46 56.53c-.23-.08-.52.18-.64.58s-.05.79.18.87.52-.18.64-.58c.13-.41.05-.79-.18-.87z" fill="none"/><path d="m77.93 34.62c1.91 7.1 7.65 11.25 14.06 10.21 6.09-.99 9.85-6.55 10.65-13.56-.33.07-.67.09-1 0-.14-.02-.23-.16-.2-.29.02-.14.16-.23.29-.2.52.06 1-.16 1.42-.47.78-.56 1.36-1.45 1.55-1.83.34-.67.42-1.38.34-2-.04-.33-.14-.64-.29-.89-.14-.24-.33-.45-.58-.55-.66-.3-1.19-.1-1.59.29-.95.91-1.18 4.33-1.2 4.59 0 .14-.12.25-.26.25-.07 0-.12-.03-.17-.07-.01.32.06.6.28.89.04.05.09.09.13.13-.38 0-.79-.14-1.19-.42-.12-.09-.25-.2-.37-.32-.22.37-.53.54-.83.59-.33.06-.8 0-1.27-.47-.12-.12-.25-.29-.4-.5-.19.19-.42.29-.65.33-.25.04-.55.02-.87-.16-.24-.13-.55-.41-.89-.85-.06-.08-.12-.17-.19-.26-.17.2-.38.31-.58.37-.37.11-.94.06-1.52-.52-.28-.28-.63-.75-1.02-1.39-.09.58-.26.98-.43 1.22-.21.28-.47.43-.74.5-.26.07-.54.06-.86-.07-.23-.09-.51-.28-.82-.6-.11.31-.29.53-.48.68-.31.24-.69.36-1.19.23-.35-.09-.69-.29-1-.55-.1.13-.22.23-.36.32-.3.19-.68.29-1.16.2-.24-.05-.49-.16-.72-.34-.01.29-.04.55-.08.76-.23 1.28-1.08 1.55-1.69 1.35-.12-.04-.23-.09-.35-.15-.02.09-.04.18-.07.26-.28.85-.86 1.23-1.58 1.17-.44-.04-.89-.23-1.31-.52.04.68.03 1.22-.05 1.57-.11.57-.41.9-.76 1.07zm24.47-5.65c.56-.19.92-.49 1.17-.81.18-.23.28-.48.34-.72.05-.18.07-.36.07-.51.01-.23-.1-.43-.26-.56-.12-.09-.26-.17-.4-.16-.24.01-.48.16-.66.5-.03.08-.13.13-.21.09-.08-.03-.13-.13-.09-.21.21-.79.77-1.01 1.26-.96.36.04.7.26.92.57.15.2.22.45.23.72 0 .22-.03.48-.13.74-.11.31-.3.64-.6.92-.36.33-.85.6-1.56.7-.09.02-.18-.03-.2-.12-.02-.08.03-.16.12-.19z" fill="none"/><path d="m88.61 52.23c-.99 2.55-2.55 6.73-3.36 9.61l3.04 1.39c.55-2.59 2-7.67 2.8-10.38-.16-.41-.24-1.18-.29-2.05-.59.56-1.18 1.03-1.63 1.25-.2.09-.38.14-.56.18zm-.37 8.45c-.16.51-.5.86-.81 1-.23.1-.47.11-.69.04s-.4-.22-.53-.44c-.17-.3-.24-.78-.08-1.28.16-.51.5-.86.81-1 .23-.1.47-.11.69-.04s.4.22.53.44c.17.29.24.78.08 1.28zm1.05-3.08c-.16.51-.5.86-.81 1-.23.1-.47.11-.69.04s-.4-.22-.53-.44c-.17-.3-.24-.78-.08-1.28.16-.51.5-.86.81-1 .23-.1.47-.11.69-.04.22.07.4.22.53.44.17.29.24.78.08 1.28zm.4-5.02c.22.07.4.22.53.44.17.3.24.78.08 1.28-.16.51-.5.86-.81 1-.23.1-.47.11-.69.04s-.4-.22-.53-.44c-.17-.3-.24-.78-.08-1.28.16-.51.5-.86.81-1 .23-.1.47-.11.69-.04z" fill="none"/><path d="m89.02 54.69c.23.08.52-.18.64-.58.13-.4.04-.79-.19-.86s-.52.18-.64.58-.04.78.19.86z" fill="none"/><path d="m45.8 66.86c-.08.5.41.72.86.82.01-.1.03-.2.07-.31.27-.75.37-1.31.42-1.82-.01.02-.01.04-.02.06-.27.2-1.29.96-1.33 1.25z" fill="none"/><path d="m104.81 76.67c-.19.47-.66.77-1.16.75-3.92-.17-9.77-2.43-13.61-6.12-.36-.34-.47-.87-.28-1.33 3.65-8.76 7.04-14.2 9.82-17.03 2.21-2.25 4.2-2.93 5.69-2.62.34.07.65.2.96.37-.78-1.83-1.77-3.49-3-4.91-.29.61-.9 1.41-1.74 2.25-1.77 1.78-4.53 3.87-6.49 4.98-1.03.58-1.91.89-2.41.91-.24.01-.48-.05-.7-.16-.81 2.8-2.09 7.29-2.6 9.68-.06.3-.26.55-.53.69s-.59.14-.87.02l-3.04-1.39c-.45-.21-.68-.71-.55-1.18.79-2.8 2.29-6.83 3.29-9.43-.46-.22-.89-.7-1-1.55-.13-1.04.26-3.01.96-4.86-.52-.1-1.02-.24-1.52-.41.09.07.19.12.31.17-5.54 3.77-8.44 9.46-12.28 14.89.64 1.35 2.95 3.99 4.88 5.2.82-3.37 1.59-6.02 2.26-8.05 1.4-4.23 2.34-5.81 2.34-5.81.04-.07.12-.09.19-.05s.09.12.05.19c0 0-.83 1.61-1.96 5.85-.6 2.24-1.27 5.22-1.95 9.09-.02.12-.09.22-.17.3l-.47 2.22 5.73 7.45c-.29-.01-.55-.03-.85.03-.2.04-.33.16-.42.29l-4.98-6.48c-.14.07-.3.13-.47.18-.88.27-2.29.4-3.99.41-2.46 0-5.58-.25-8.47-.56l1.4 6.25c-.35.02-.68.18-.92.48l-1.53-6.85c-2.55-.3-4.83-.64-6.19-.88-.63.27-1.9.64-3.82.4-.81-.1-1.25.75-1.25.75-.34.57-1.07.76-1.64.43-.32-.19-.57-.48-.74-.86l-1.33 1.77c-.26.34-.72.45-1.1.27-.39-.18-.59-.61-.49-1.02l.53-2.21c-.22.09-.41.13-.57.13-.53.02-.91-.21-1.16-.54l-8.92-.05-4.55 15.24h29.63c.08.17.23.32.44.4.01.02.02.05.03.06.09.16.2.31.34.43.05.05.12.07.18.11h-30.64c-.32 0-.61-.15-.8-.4s-.25-.58-.16-.88l4.55-15.24c.13-.43.52-.72.96-.71h6.97c-.17-.29-.25-.62-.19-1.03.03-.19.15-.48.41-.77.04-.04.08-.09.13-.13-.12-.3-.17-.63-.12-.95.08-.51.36-.97.79-1.27l1.4-.98c.01-.01.02-.01.03-.01.24-.6.83-1.12 1.77-1.4.93-.27 2.23-.33 3.29-.33l.53-1.05h-24.22l-15.86 29.46 80-.12-2.9-3.76c.48.04.98.01 1.42-.13l2.43 3.16c.28.36.33.85.13 1.26-.09.18-.23.33-.39.44 6.46 2.6 9.57 5.63 9.09 9.11 3.19-11.46 6.06-24.42 5.89-35.3-.24 1.46-.57 3.01-1 4.66-.66 2.47-1.69 5.29-2.82 8.08zm-64.22-6.63c.04-.22.25-.36.47-.32s.36.25.32.47l-1.32 7.08c-.04.19-.2.33-.39.33-.02 0-.05 0-.07-.01-.22-.04-.36-.25-.32-.47zm-.8 10.28-1.07.23-.28 1.05.95.22-.15.57-4.17-1.02.15-.56 4.72-1.06zm.54-2.02c-.06.01-.15.03-.26.05-.05.01-.09.01-.1.02.12.09.2.18.24.28s.05.2.02.31c-.05.2-.18.35-.39.47-.21.11-.45.17-.73.17-.18 0-.34-.03-.47-.08s-.22-.12-.27-.22c-.05-.09-.08-.23-.09-.4-.01-.24-.04-.4-.08-.49h-.08c-.16 0-.29.02-.37.07s-.14.14-.18.27c-.02.09-.01.16.03.21.05.05.14.09.28.12l-.26.46c-.3-.05-.5-.14-.62-.27s-.14-.31-.08-.56c.06-.23.15-.39.27-.5s.25-.19.4-.23.41-.07.78-.07h.99c.28 0 .49-.01.63-.03s.29-.05.46-.09zm.8 2.35c-.02 0-.04 0-.06 0-.22-.03-.37-.23-.34-.45l1.46-10.14c.03-.22.23-.37.45-.34s.37.23.34.45l-1.46 10.14c-.02.2-.19.34-.39.34zm1.78.12c-.02 0-.03 0-.05 0-.22-.03-.37-.23-.35-.45l1.28-10.26c.03-.22.23-.37.45-.35.22.03.37.23.35.45l-1.28 10.26c-.03.2-.2.35-.4.35zm1.76-.06c-.02 0-.03 0-.05 0-.22-.03-.38-.22-.35-.44l1.19-10.11c.03-.22.23-.37.44-.35.22.03.38.22.35.44l-1.19 10.11c-.02.2-.19.35-.39.35zm1.76.12c-.01 0-.03 0-.04 0-.22-.02-.38-.22-.36-.44l.97-10.25c.02-.22.21-.38.44-.36.22.02.38.22.36.44l-.98 10.26c-.02.2-.19.35-.39.35zm2.07-.64c-.02.21-.19.37-.4.37-.01 0-.02 0-.03 0-.22-.02-.38-.21-.37-.43l.55-6.99c.02-.22.21-.38.43-.37.22.02.38.21.37.43z" fill="none"/><path d="m47.22 63.96c-.2.14-.42.29-.62.43s-.33.35-.37.59v.06c.23-.18.41-.31.41-.31.17-.12.37-.16.56-.16 0-.18.01-.39.02-.61z" fill="none"/><path d="m90.86 70.43c3.63 3.48 9.14 5.62 12.83 5.79 1.12-2.73 2.13-5.51 2.77-7.93 5.06-19.15-3.72-26.37-15.6 2.14z" fill="none"/><path d="m37.93 80.72-1.74.37 1.55.35z" fill="none"/><path d="m39.34 78.43c-.07-.01-.21-.02-.41-.02h-.17c.02.06.04.17.05.31s.04.23.08.28c.06.07.15.1.27.1s.23-.03.33-.08.16-.12.18-.2c.02-.09 0-.18-.08-.26-.06-.07-.15-.12-.25-.13z" fill="none"/><path d="m102.48 29.29c.7-.1 1.2-.37 1.56-.7.3-.28.49-.6.6-.92.09-.26.12-.52.13-.74-.01-.27-.09-.52-.23-.72-.22-.31-.56-.53-.92-.57-.49-.05-1.04.17-1.26.96-.03.08.01.18.09.21s.18-.01.21-.09c.18-.35.42-.49.66-.5.15-.01.28.07.4.16.16.13.27.33.26.56 0 .15-.02.33-.07.51-.06.23-.16.48-.34.72-.25.32-.61.62-1.17.81-.09.02-.14.11-.12.2.02.08.11.13.2.11z" fill="#010101"/><path d="m87.63 58.95c-.22-.07-.46-.06-.69.04-.31.14-.65.49-.81 1-.16.5-.09.99.08 1.28.13.22.31.37.53.44s.46.06.69-.04c.31-.14.65-.49.81-1 .16-.5.09-.99-.08-1.28-.13-.22-.31-.36-.53-.44zm-.03 1.52c-.13.4-.41.66-.64.58s-.31-.46-.19-.86c.13-.4.41-.66.64-.58s.32.47.19.86z" fill="#010101"/><path d="m88.68 55.87c-.22-.07-.46-.06-.69.04-.31.14-.65.49-.81 1-.16.5-.09.99.08 1.28.13.22.31.37.53.44s.46.06.69-.04c.31-.14.65-.49.81-1 .16-.5.09-.99-.08-1.28-.13-.22-.32-.36-.53-.44zm-.03 1.52c-.13.4-.41.66-.64.58s-.31-.46-.19-.86.41-.66.64-.58.31.46.19.86z" fill="#010101"/><path d="m88.19 53.62c-.16.5-.09.99.08 1.28.13.22.31.37.53.44s.46.06.69-.04c.31-.14.65-.49.81-1 .16-.5.09-.99-.08-1.28-.13-.22-.31-.37-.53-.44s-.46-.06-.69.04c-.31.14-.65.5-.81 1zm1.28-.38c.23.08.31.46.19.86-.13.4-.41.66-.64.58s-.31-.46-.19-.86.41-.65.64-.58z" fill="#010101"/><path d="m86.52 40.48c.25-.11.37-.4.26-.66s-.4-.37-.66-.26c-.34.15-.71.05-.87-.19-.15-.21-.06-.5.27-.78.21-.18.24-.49.06-.7s-.49-.24-.7-.06c-.87.74-.83 1.56-.44 2.11.39.58 1.25.9 2.08.54z" fill="#010101"/><path d="m87.47 31.96c.47-.31 1.2-.49 1.96-.59.76-.09 1.54-.09 2.12.02.27.05.53-.12.59-.39.05-.27-.12-.53-.4-.59-.67-.13-1.56-.14-2.43-.04-.92.11-1.81.37-2.38.74-.23.15-.3.46-.15.69.15.24.46.31.69.16z" fill="#010101"/><path d="m91.61 32.56c-.53.5-1.27.87-1.99 1.12-.87.3-1.74.43-2.21.33-.27-.05-.53.12-.59.39-.05.27.12.53.39.59.3.06.74.06 1.24-.01.17.24.51.37.85.27.33-.09.58-.34.64-.63.86-.3 1.73-.75 2.35-1.34.2-.19.21-.51.02-.71-.19-.19-.5-.2-.7-.01z" fill="#010101"/><path d="m91.57 40.87c-.25-.12-.55-.01-.67.24-.39.82-1.21 1.34-2.08 1.53-.91.2-1.89.06-2.52-.49-.21-.18-.52-.16-.71.05-.18.21-.16.52.05.71.85.75 2.17.99 3.4.71 1.17-.26 2.25-.97 2.77-2.08.12-.26.01-.55-.24-.67z" fill="#010101"/><path d="m81.06 33.1c-.58.1-1.11.3-1.6.61-.45.29-.86.68-1.22 1.19-.16.23-.1.54.12.7.23.16.54.1.7-.12.28-.4.59-.7.94-.93.37-.24.79-.39 1.23-.47.27-.05.45-.31.41-.58-.05-.26-.31-.45-.58-.4z" fill="#010101"/><path d="m39.59 77.58c.02 0 .05.01.07.01.19 0 .36-.13.39-.33l1.32-7.08c.04-.22-.1-.43-.32-.47s-.43.1-.47.32l-1.32 7.08c-.03.22.12.43.33.47z" fill="#010101"/><path d="m42.65 69.71c-.22-.03-.42.12-.45.34l-1.46 10.14c-.03.22.12.42.34.45h.06c.2 0 .37-.14.4-.34l1.46-10.14c.02-.21-.14-.42-.35-.45z" fill="#010101"/><path d="m44.24 69.71c-.22-.02-.42.13-.45.35l-1.28 10.26c-.03.22.13.42.35.45h.05c.2 0 .37-.15.4-.35l1.28-10.26c.03-.22-.13-.42-.35-.45z" fill="#010101"/><path d="m45.9 69.8c-.22-.02-.42.13-.44.35l-1.19 10.11c-.03.22.13.42.35.44h.05c.2 0 .37-.15.4-.35l1.19-10.11c.02-.22-.14-.42-.36-.44z" fill="#010101"/><path d="m47.44 69.78c-.23-.02-.42.14-.44.36l-.97 10.26c-.02.22.14.42.36.44h.04c.2 0 .38-.15.4-.36l.98-10.26c.01-.22-.15-.42-.37-.44z" fill="#010101"/><path d="m48.68 72.76c-.22-.01-.41.15-.43.37l-.55 6.99c-.02.22.15.41.37.43h.03c.21 0 .38-.16.4-.37l.55-6.99c.02-.22-.15-.41-.37-.43z" fill="#010101"/><path d="m35.08 81.37 4.17 1.02.15-.57-.95-.22.28-1.05 1.07-.23.15-.58-4.72 1.06zm2.85-.65-.19.72-1.55-.35z" fill="#010101"/><path d="m39.37 77.91h-.99c-.37 0-.63.02-.78.07s-.28.12-.4.23-.21.28-.27.5c-.07.25-.04.44.08.56.12.13.32.21.62.27l.26-.46c-.14-.03-.23-.07-.28-.12s-.06-.12-.03-.21c.04-.13.09-.22.18-.27.08-.05.21-.07.37-.07h.08c.04.09.07.25.08.49.01.18.04.31.09.4s.14.16.27.22c.13.05.28.08.47.08.27 0 .52-.06.73-.17s.34-.27.39-.47c.03-.11.02-.22-.02-.31-.04-.1-.13-.19-.24-.28.02 0 .05-.01.1-.02.12-.02.2-.04.26-.05l.13-.5c-.17.04-.32.08-.46.09-.14.02-.35.02-.64.02zm.11 1.1c-.1.05-.21.08-.33.08s-.21-.03-.27-.1c-.04-.04-.06-.13-.08-.28-.01-.14-.03-.24-.05-.31h.17c.2 0 .34.01.41.02.11.02.19.06.25.12.08.08.11.17.08.26-.01.09-.07.16-.18.21z" fill="#010101"/><path d="m114.79 71.33h-1.31c-.07 0-.14.03-.21.04-.01-.19-.07-.37-.19-.52-.96-1.32-2.12-2.32-3.31-3.03.08-1.82.1-3.6.03-5.31-.31-7.58-2.2-14.07-6.42-18.35-.01-.02-.02-.04-.02-.06 2.82-2.43 5.34-6.38 6.09-12.89 1.25-10.75-3.57-17.54-10.76-20.5-8.23-3.4-16.25 1.58-16.25 1.58s-.01 0-.01.01c-.17.11-.34.22-.5.34-1.57.37-3.25 1.47-4.73 3.14-2.13 2.4-3.85 5.92-4.16 9.58-.14 1.63-.01 3.39.49 4.99 0 .37-.01.74.01 1.12 0 .04 0 .08.01.11 0 0 .65 5.02 3.34 9.55 1.36 2.29 3.24 4.44 5.77 5.81-3.84 3.65-6.43 8.26-9.6 12.74-.25.35-.29.81-.11 1.2.11.23.26.49.44.76l-.03.06-2.02-2.62c-.23-.3-.58-.47-.95-.47h-13.24l1.8-3.64c.01-.03.03-.07.04-.1.23-.65.07-1.14-.18-1.48s-.65-.55-1.1-.59c-.58-.04-1.22.23-1.57.81-.01.02-.02.04-.03.06l-2.47 4.94h-24.82c-.44 0-.85.24-1.05.63l-15.86 29.47c-.2.37-.19.82.02 1.18.22.36.61.59 1.03.59l1.2-.01v2.79c0 .66.54 1.2 1.2 1.2h1.89v2.7c0 .62.5 1.12 1.12 1.12h2.46v19.62h1.2v-19.62h3.81v19.62h1.2v-19.62h30.9c-2.88 4.94-7.38 12.43-10.68 18.54-.04.08-.62.91-.65.99h1.33c3.42-6.29 8.56-14.67 11.39-19.53h8.58l-8.54 18.95c-.03.07-.28.51-.29.58h1.28l8.87-19.53h15.42c.62 0 1.12-.5 1.12-1.12v-2.7h2.84c.66 0 1.2-.54 1.2-1.2v-2.9h1.05c3.1 1.07 5.57 2.22 7.39 3.45 2.37 1.62 3.58 3.32 3.31 5.27-.04.28.03.54.17.77-2.1 2.88-7.92 3.89-20.54 3.52.17-.31.29-.61.33-.89.14-.81-.09-1.39-.09-1.39-.02-.08-.1-.13-.17-.11-.08.02-.12.09-.11.17 0 .06-.01.53-.32 1.08-.05.08-.12.15-.19.23-.08-.18-.17-.35-.28-.5-.62-.88-1.43-1.22-1.43-1.22-.07-.04-.15-.01-.19.05-.04.07-.01.16.05.19 0 0 .6.46.92 1.33.13.37.17.82.11 1.35-1.17 3.22-4.59 10.48-7.08 14.15h1.44c1.15-1.8 2.47-4.28 3.67-6.71h6.28v6.73h1v-6.73h3.37v1.49c-.45-.22-1.09-.34-1.63-.24-.59.1-1.1.37-1.31.78-.17.33-.31.99.46 2.09.01.02.02.03.03.05l2.03 2.56h1.27l-2.51-3.18c-.81-1.16-.3-1.23.21-1.32.4-.07.89.03 1.12.22l3.5 4.18v.1h1v-6.73h3.55v6.73h1v-6.73h15.07c.23 0 .43-.1.6-.23.17.13.37.23.6.23h1.31c.55 0 1-.45 1-1v-37.77c-.01-.56-.46-1-1.01-1zm-2.51.11.17 14.19-4.55-2.85c.89-4.7 1.55-9.37 1.81-13.82.93.63 1.81 1.45 2.57 2.48zm-41.47 11.19c-.89.03-1.99.18-2.87.52-.71.27-1.23.7-1.5 1.24-1.05.24-1.97.16-2.21-.34.59-.89 1.4-1.55 2.23-2.02 1.61-.9 3.21-1.15 3.21-1.15.07-.01.11-.06.11-.13-.01-.06-.07-.11-.13-.1 0 0-1.69.07-3.46.83-1 .43-2.01 1.09-2.79 2.04-.41-.1-.64-.67-.29-1.37.71-.8 1.47-1.36 2.19-1.75 1.5-.8 2.75-.87 2.75-.87.07 0 .12-.05.12-.12 0-.06-.05-.11-.11-.11 0 0-1.33-.1-3.02.54-.59.23-1.22.55-1.86 1-.34-2.62 8.7-4.83 13.55-2.87.01 0 .01.01.02.01.46.22.79.52 1.01.84.45.67.53 1.34.53 1.34 0 .07.05.12.11.12.07 0 .12-.05.12-.11 0 0 .1-.77-.21-1.63-.04-.12-.09-.23-.16-.35 4.59-.09 8.47-.44 12.16-.93.5.21.86.55 1.1.92.54.83.62 1.74.62 1.74 0 .07.05.12.11.12.07 0 .12-.05.12-.12 0 0 .13-1.28-.49-2.41-.16-.31-.39-.59-.68-.84l1.37-3.42c2.31 1.6 4.92 2.79 7.36 3.48-1.34 2.58-3.66 6.69-5.14 7.13-7.03 2.12-18.99-1.06-18.99-1.06s-6.74 2.9-8.3 1.77c.15-.31.46-.57.85-.8.77-.44 1.77-.74 2.6-.91.06-.01.11-.07.1-.13s-.07-.11-.13-.1zm-8.71-1.15c-.55.99-.39 1.91-.04 2.46h-28.59l4.55-15.24 8.92.04c.25.33.63.57 1.16.54.15-.01.35-.04.56-.13l-.53 2.21c-.09.41.11.84.5 1.02.38.18.84.07 1.1-.27l1.33-1.76c.17.37.43.67.75.86.57.33 1.3.14 1.64-.43 0 0 .44-.85 1.25-.75 1.92.24 3.19-.13 3.82-.4 1.36.25 3.64.59 6.19.89l1.44 6.44c-.91.3-1.72.65-2.35 1.05-1.06.66-1.66 1.48-1.8 2.27-.07.39-.05.79.1 1.2zm-14.97-15.87c.01-.02.02-.04.02-.06-.04.51-.15 1.08-.42 1.82-.04.11-.05.21-.07.31-.46-.1-.94-.32-.86-.82.04-.29 1.06-1.04 1.33-1.25zm-.91-.56v-.06c.04-.24.17-.45.37-.59s.42-.3.63-.44c-.02.22-.02.43-.03.63-.2 0-.39.03-.56.15 0 0-.18.13-.41.31zm2.76 2.08c-.65 1.24-1.26 1.06-1.12.65.74-2.09.33-2.82.65-4.65.14-.8 1.88-1.03 3.4-1.07l-1.45 2.92c-.58.63-1.28 1.76-1.48 2.15zm.34 3.17.49.21-.8 1.06zm16.44.34c2.9.31 6.01.56 8.47.56 1.7 0 3.11-.13 3.99-.41.18-.05.33-.11.48-.18l4.72 6.15c-1.84.12-3.78.21-5.88.25-1.93-.89-4.56-1.14-7.09-.92-1.16.11-2.3.31-3.34.59zm25.1-.21c11.88-28.51 20.66-21.29 15.6-2.14-.64 2.42-1.65 5.19-2.77 7.93-3.69-.17-9.2-2.31-12.83-5.79zm7.37-58.61c6.74 2.78 11.2 9.18 10.03 19.25-.68 5.89-2.87 9.56-5.4 11.86-.03-.05-.08-.1-.11-.15.42-.6.92-1.43 1.33-2.44.46-1.16.79-2.51.68-3.94 0-.05-.05-.09-.09-.09-.05 0-.09.04-.09.09-.03 1.38-.48 2.63-1.04 3.69-.42.8-.91 1.47-1.32 1.97-.03-.02-.04-.05-.07-.08-.37-.4-.75-.72-1.08-.97.02-.45 0-.9-.1-1.38 1.5-2.46 2.43-5.49 2.73-8.82.91-.56 1.63-1.45 1.88-1.85.63-1.05.78-2.23.54-3.18-.23-.87-.79-1.53-1.52-1.82-.66-.22-1.22-.21-1.7-.03-.24-1.3-.63-2.69-1.27-4.09-1.28-2.78-3.47-5.5-7.17-7.24-2.01-.95-4.25-1.33-6.2-1.35 2.76-.68 6.34-.93 9.97.57zm-10.13 39.25c-.71-.29-.29-2.88.64-5.16.38.03.76.06 1.15.06.33 1.09.79 1.9 1.41 2.51-1.06 1.33-2.65 2.81-3.2 2.59zm2.99 1.78c-.79 2.71-2.25 7.79-2.8 10.38l-3.04-1.39c.81-2.87 2.37-7.06 3.36-9.61.18-.04.36-.09.56-.19.45-.22 1.04-.69 1.63-1.25.05.88.13 1.64.29 2.06zm-7.83-17.34c-.2-.19-.52-.18-.71.02-.32.33-.88.66-1.48.9-.59.23-1.2.39-1.62.3-.27-.05-.53.12-.59.39-.01.04 0 .07 0 .11-.37-.82-.69-1.69-.93-2.61.35-.17.65-.5.79-1.11.07-.35.08-.88.04-1.56.42.29.87.48 1.31.52.72.07 1.3-.32 1.58-1.17.03-.08.06-.16.07-.25.12.06.23.11.35.15.6.2 1.46-.07 1.69-1.35.03-.21.06-.47.07-.77.24.19.48.3.73.35.48.09.86-.01 1.16-.2.13-.08.25-.19.36-.32.3.27.64.46 1 .55.49.14.88.02 1.18-.22.19-.15.36-.38.48-.68.31.32.59.51.82.6.31.12.6.13.85.06.28-.07.53-.22.74-.49.18-.24.35-.64.44-1.22.39.64.74 1.11 1.02 1.39.58.58 1.15.63 1.52.52.21-.06.41-.17.58-.36.07.09.13.18.19.26.33.44.64.72.88.85.32.18.62.2.87.16.24-.04.46-.14.65-.33.15.21.28.38.4.5.47.46.94.53 1.27.46.3-.05.62-.21.83-.59.12.12.25.23.37.32.4.28.81.42 1.19.42-.04-.05-.09-.09-.13-.14-.22-.28-.28-.57-.27-.89.04.05.1.08.16.08.14 0 .26-.11.26-.25.02-.26.25-3.69 1.2-4.6.41-.39.93-.58 1.6-.28.24.1.43.31.57.55.15.26.25.56.29.9.09.62 0 1.33-.34 1.99-.18.38-.76 1.28-1.54 1.84-.43.31-.91.53-1.43.47-.14-.03-.27.06-.29.2-.03.14.07.27.2.29.34.09.67.07 1 0-.79 7.01-4.56 12.57-10.65 13.56-5.44.88-10.39-1.99-12.94-7.22.06.04.12.08.2.09.18.04.4.04.63.02.15.33.54.5.94.36.35-.12.58-.42.6-.74h.01c.74-.29 1.44-.72 1.83-1.14.21-.19.2-.5 0-.69zm7.88 10.42c.34-.03.67-.06 1.02-.11 3.15-.51 5.73-2.16 7.67-4.57-.5 3.38-5.43 5.58-7.52 6.54-.52-.45-.89-1.06-1.17-1.86zm1.67 2.95c1.51-.69 4.4-2.01 6.28-3.89.78-.79 1.38-1.68 1.71-2.65.64.57 1.35 1.39 1.47 2.31.23 1.81-7.88 8-9.75 8.07-.56.02-.54-1.97-.64-3.82.3.11.63.12.93-.02zm-18.78-23.43c.47-5.52 4.34-10.65 7.72-11.74-.4 1.19-.55 2.3-.53 3.26.04 2.27.89 3.74.89 3.74.03.06.1.08.16.05s.08-.1.05-.16c0 0-.67-1.47-.49-3.61.09-.99.37-2.12.98-3.32.05.02.11.04.17.04 1.23-.03 2.67.47 4.12 1.46 1.15.78 2.29 1.85 3.33 3.2.03.05.09.06.14.03.04-.03.06-.1.02-.14-1.16-1.82-2.53-3.21-3.9-4.15-.53-.36-1.05-.63-1.57-.85 1.15-.02 3.09.14 5.24 1.09 1.7.75 3.53 1.98 5.23 4 .03.05.1.06.14.02.05-.03.05-.1.02-.14-1.62-2.18-3.43-3.55-5.13-4.43-1.71-.88-3.32-1.24-4.54-1.39 2.13-.36 5.27-.17 7.95 1.09 5.4 2.55 7.36 7.32 7.98 11.04l-.12.12c-.41.48-.68 1.11-.9 1.71-.59 1.62-.12 3.35-.12 3.53 0 .02.02.03.02.05-1.02-.6-2.1-2.78-2.1-2.78.68 3.26-.05 3.53-1.04 1.63-.08-.94-.29-1.83-.6-2.61-.46-1.11-1.07-1.97-1.63-2.4-.02-.02-.04-.02-.06 0-.01.02-.01.04.01.05.46.49.91 1.4 1.16 2.51.17.72.23 1.52.18 2.35-.2 1.49-1.17.34-2.71-2.8.45 4.6-1.1 2.6-3.61-2.54.56 5.88-.25 6.64-2.99 1.37.07.3.96 4.07-.17 3.77-1.03-.27-1.75-2.01-1.92-2.44.09.49.45 2.61-.66 2.39-1.23-.25-2.12-4.73-2.29-5.61.13 1.09.87 7.72-.08 7.41-1.03-.34-1.66-2.41-1.66-2.41s.55 3.74-.55 3.63c-.51-.04-1.01-.42-1.44-.87-.02-.05-.02-.09-.05-.13-.54-.81-.99-2.11-1.29-3.41-.32-1.45-.46-2.89-.3-3.75 0-.01-.01-.03-.02-.03-.02-.01-.04 0-.04.02-.27.85-.31 2.33-.16 3.84.12 1.25.4 2.48.77 3.4.29 2.46.26 3.72-.75 3.02-2.52-1.74-3.1-5.19-2.86-8.11zm1.06 7.81c.36.41.76.8 1.23 1.12.21.15.41.24.6.29 1.27 4.96 4.28 8.58 8.11 10.26-.49.36-.94.75-1.4 1.14-5.56-2.74-7.78-9.53-8.54-12.81zm11.23 12.22c-.11-.05-.21-.1-.3-.17.49.17 1 .31 1.52.41-.71 1.85-1.1 3.83-.97 4.86.11.86.54 1.34 1.01 1.56-1 2.59-2.5 6.63-3.29 9.43-.13.47.1.97.55 1.18l3.03 1.39c.28.13.6.12.87-.02.27-.13.47-.39.53-.68.5-2.39 1.78-6.89 2.6-9.69.22.12.46.17.7.17.5-.02 1.38-.33 2.41-.91 1.97-1.12 4.73-3.2 6.49-4.99.84-.84 1.45-1.64 1.74-2.25 1.24 1.43 2.23 3.08 3.01 4.91-.31-.17-.63-.3-.96-.37-1.49-.31-3.48.37-5.69 2.62-2.78 2.83-6.17 8.28-9.82 17.04-.19.46-.08.98.28 1.33.45.43.93.83 1.42 1.22l-1.43 3.57c-1.66.22-3.37.41-5.17.56l-5.64-7.33.47-2.23c.08-.08.15-.17.17-.3.68-3.86 1.36-6.84 1.95-9.08 1.13-4.25 1.96-5.86 1.96-5.86.04-.07.02-.15-.05-.19s-.16-.01-.19.06c0 0-.95 1.57-2.34 5.8-.67 2.03-1.44 4.68-2.26 8.05-1.93-1.21-4.24-3.84-4.88-5.2 3.85-5.43 6.74-11.12 12.28-14.89zm-12.53 17.57c.2.17.33.41.42.67.22.67.18 1.42.18 1.42 0 .03.02.06.05.07.03 0 .06-.02.07-.05 0 0 .15-.78.04-1.51-.05-.34-.19-.64-.38-.89l.01-.02c.62.78 1.38 1.62 2.19 2.36.72.66 1.47 1.24 2.17 1.64l-.61 2.9c-3.38 1.11-16.08-.58-19.58-1.25 0 0-1.15.75-3.49.46-1.54-.2-2.44 1.33-2.44 1.33-.68-.4-.53-2.12 1.72-3.47-.11-.3-.31-.58-.56-.83l1.6-3.24c1.01.55 2.45 1.33 2.45 1.33h.08c.28.16.5.39.64.69.42.91.4 2.04.4 2.04-.01.06.04.12.1.13.07.01.13-.04.13-.1 0 0 .27-1.22.02-2.3-.04-.17-.1-.34-.17-.49 5.42-.17 10.46-.44 14.96-.89zm-3.4-3.24 1.68 2.19c-4.3.38-9.05.62-14.16.75 0 0-1.37-.74-2.21-1.2l.86-1.74zm-13.47-5.74c.38-.64 1.55-.44 1.22.5l-6.02 12.2c-.79.81-1.14 1.64-1.23 2.32l-.46.6-.88-.38.24-.98zm11.72 44.21h.3c-.11.01-.2.01-.3 0zm16-1.12h-66.27v-2.7h66.27zm3.96-3.9h-73.24v-2.79l73.24-.11zm-75.64-3.98 15.86-29.47h24.22l-.53 1.05c-1.06 0-2.36.07-3.29.33-.94.27-1.53.8-1.77 1.4-.01.01-.02.01-.03.01l-1.4.98c-.43.29-.71.75-.79 1.26-.05.33 0 .66.12.96-.05.04-.09.09-.13.13-.26.29-.38.58-.41.77-.07.41.02.75.19 1.03l-6.97-.03c-.45-.01-.84.28-.97.71l-4.54 15.24c-.09.3-.04.63.15.88.19.26.49.41.8.41h29.91c.24.28.57.51 1 .64.57.18 1.4.17 2.3-.02.15.11.32.2.51.27.53.2 1.3.26 2.19.15 2.2-.27 5.33-1.48 6.41-1.92 1.7.41 8.53 1.95 14.53 1.67l2.64 3.43zm80.69.85c.16-.11.3-.26.39-.44.2-.41.15-.9-.13-1.27l-2.15-2.8c1.15-.11 2.26-.3 3.27-.61.81-.24 1.9-1.28 2.93-2.74 1.13-1.62 2.28-3.73 3.05-5.24.93.21 1.83.35 2.63.39.51.02.97-.28 1.16-.75 1.14-2.78 2.17-5.61 2.82-8.07.43-1.65.76-3.2 1-4.66.18 10.88-2.69 23.85-5.88 35.3.48-3.48-2.63-6.51-9.09-9.11zm11.98 2.86v5.76l-1.26-.92c.43-1.59.85-3.21 1.26-4.84zm-6.7 10.18c1.85-.68 3.08-1.6 3.86-2.75.51-.02.96-.35 1.1-.86.07-.23.13-.46.19-.7l7.22 5.24h-16.28c1.55-.23 2.85-.54 3.91-.93zm-7.27 13-2.17-2.6v-2.47h2.17zm20.62-6.07h-33.96l.36-.75h33.6zm.2-1.75h-33.34c.55-1.21 1.04-2.33 1.4-3.25h31.94zm0-4.62-5.85-4.25v-10.67c.38-1.66.74-3.32 1.06-4.98l4.23 2.65c.17.1.37.15.56.14zm2.31 6.37h-1.31v-1.19c.12-.16.2-.35.2-.56v-3.25c0-.22-.08-.41-.2-.57v-32.2h1.31z" fill="#010101"/><path d="m29.13 65.12c-.25-.12-.55-.01-.67.24l-6.53 13.9c-.12.25-.01.55.24.67.07.03.14.05.21.05.19 0 .37-.11.45-.29l6.53-13.9c.13-.26.02-.56-.23-.67z" fill="#010101"/></svg>