<svg enable-background="new 0 0 297.64 297.64" viewBox="0 0 297.64 297.64" xmlns="http://www.w3.org/2000/svg"><g clip-rule="evenodd" fill-rule="evenodd"><path d="m34.21 50.47h228.86v163.15h-228.86z" fill="#7f4b23"/><path d="m28.93 220.11h240.95v7.17h-240.95z" fill="#7f4b23"/><path d="m263.06 213.8h-228.85l-5.28 6.31h240.95z" fill="#583217"/><path d="m42.39 56.96h212.5v150.17h-212.5z" fill="#416b5c"/><path d="m235.09 195.37h-34.82l-4.51 3.08 35.15 17.33 4.18-3.08z" fill="#efb01e"/><path d="m86.87 210.35c0-2.38-1.01-4.37-2.34-4.81v-.1h-35.29c-3.61.91-3.48 9.06 0 9.83h35.28v-.1c1.34-.45 2.35-2.43 2.35-4.82z" fill="#fff"/><path d="m195.76 198.45h34.81v17.32h-34.81z" fill="#edea5a"/><path d="m123.25 213.16c0-1.84-.9-3.37-2.1-3.72v-.08h-31.58c-3.24.71-3.11 7 0 7.59h31.58v-.08c1.19-.34 2.1-1.87 2.1-3.71z" fill="#73b0e0"/><path d="m271.45 219.96c-.01-.1-.02-.19-.05-.29 0-.01 0-.01 0-.02-.08-.27-.22-.52-.43-.72l-6.41-5.93c.04.01.07.02.11.03v-162.56c0-.88-.71-1.59-1.59-1.59h-228.87c-.88 0-1.59.71-1.59 1.59v162.76l-4.91 5.86c-.35.41-.44.96-.29 1.47-.03-.01-.05-.02-.08-.04v6.77c0 .88.71 1.59 1.59 1.59h240.95c.88 0 1.59-.71 1.59-1.59v-7.17c0-.06-.01-.11-.02-.16zm-237.24-169.49h228.86v161.74h-26.38v-3.49h18.2c.88 0 1.59-.71 1.59-1.59v-150.17c0-.88-.71-1.59-1.59-1.59h-212.5c-.88 0-1.59.71-1.59 1.59v150.17c0 .88.71 1.59 1.59 1.59h2.76c-.1.56-.16 1.13-.16 1.7 0 .61.08 1.21.2 1.79h-10.98zm197.94 147.81 2.94-2v16.42l-2.92 2.15v-16.4c0-.06-.01-.11-.02-.17zm-34.05-1.42 2.17-1.48h33.48l-2.45 1.67c-.22-.12-.47-.19-.73-.19zm32.47 1.59v17.32h-34.81v-17.32zm-30.3-4.67c-.32 0-.63.1-.9.28l-4.5 3.07h-.01s-.01.01-.01.01c-.1.07-.18.15-.26.24-.03.03-.05.06-.07.09-.06.07-.11.15-.15.23-.02.03-.03.06-.05.09-.05.11-.09.23-.12.35v.04c-.02.09-.03.18-.03.27v8.68h-106.31c-.25-.67-.57-1.27-.95-1.74-.4-.49-.86-.87-1.34-1.13-.28-.25-.64-.41-1.04-.41h-35.29c-.13 0-.26.02-.39.05-1.11.28-2.01.98-2.66 1.97-.25.38-.45.81-.62 1.26h-3.19v-150.17h212.5v150.17h-18.2v-11.75c0-.88-.71-1.59-1.59-1.59h-34.82zm-75.5 18.43c-.18-1.31-.71-2.44-1.43-3.21-.1-.11-.21-.19-.32-.28h71.15v3.49zm-6.74.95c0-2.1 1.17-3.8 2.61-3.8s2.61 1.7 2.61 3.8-1.17 3.8-2.61 3.8-2.61-1.71-2.61-3.8zm-.4 3.8h-28.06c-3.11-.59-3.24-6.89 0-7.59h28.06c-.72.94-1.2 2.29-1.2 3.8 0 1.5.48 2.84 1.2 3.79zm-31.94-2.69c-.49.62-1.09 1-1.74 1-1.61 0-2.92-2.2-2.92-4.91s1.31-4.91 2.92-4.91c1.42 0 2.58 1.71 2.85 3.97-.78 1.02-1.21 2.39-1.2 3.8 0 .35.04.7.09 1.05zm-4.74 1h-31.71c-3.48-.76-3.61-8.91 0-9.83h31.71c-.89 1.13-1.51 2.9-1.51 4.91 0 2.02.62 3.79 1.51 4.92zm188.93 12.01h-240.95v-5.58h240.95zm-240.95-7.17 5.28-6.3h11.45c.17.41.36.79.59 1.13.67.98 1.57 1.65 2.66 1.89.11.02.23.04.34.04h35.28c.27 0 .52-.07.75-.2-.07-.01-.12-.02-.19-.03.4-.14.77-.38 1.13-.67.62 1.3 1.67 2.29 3.06 2.55.1.02.2.03.3.03h31.44c-.04-.01-.08-.02-.12-.03.91-.07 1.76-.47 2.45-1.21.77-.82 1.34-2.07 1.47-3.51h69.36v1.97c0 .88.71 1.59 1.59 1.59h34.81c.07 0 .14-.01.22-.02.37.03.75-.06 1.06-.29l4.18-3.08c.07-.05.13-.12.19-.18h26.84l6.82 6.3h-240.96z" fill="#010101"/></g></svg>