<?xml version="1.0" encoding="utf-8"?>
<!-- Generator: Adobe Illustrator 22.1.0, SVG Export Plug-In . SVG Version: 6.00 Build 0)  -->
<svg version="1.1" id="Слой_3" xmlns="http://www.w3.org/2000/svg" xmlns:xlink="http://www.w3.org/1999/xlink" x="0px" y="0px"
	 viewBox="0 0 512 512" style="enable-background:new 0 0 512 512;" xml:space="preserve">
<style type="text/css">
	.st0{fill:#FCE0C5;stroke:#000000;stroke-width:3;stroke-linecap:round;stroke-linejoin:round;stroke-miterlimit:10;}
	.st1{fill:none;stroke:#000000;stroke-width:3;stroke-linecap:round;stroke-linejoin:round;stroke-miterlimit:10;}
</style>
<g>
	<g>
		<path d="M83,116.3c-1.8,0-5.6-0.4-5.6-3c0-4.8,17.4-31.4,21.8-34.8c1.2-0.8,3-1.2,4.6-1.2c3.6,0,7.6,1.2,7.6,5.6
			c0,1.8-0.4,3.4-0.6,5.2c-5,35.2-8.8,70.6-12.4,106c-0.2,2-0.4,3.6-2.2,4.6c-1.4,0.6-3,0.8-4.6,0.8c-4.4,0-9.4-1.4-9.4-6.8
			c0-1.8,0.4-3.6,0.6-5.4c2.8-21.4,4.8-43,7.8-64.4c0.6-4,1.6-8.6,2.2-13c0.2-3.2-1.2-3.8-2.6-1C88.4,112.3,86.4,116.3,83,116.3z"/>
	</g>
	<g>
		<path d="M263.7,182.3c2.6-0.2,8.2,0.6,8,4c-0.2,3.2-5.4,5-8,5.4c-12.2,1.6-25.6,2.6-37.8,2.6c-3.4,0-10-0.2-10-4.6
			c0-1.4,0.8-4.2,1.6-5.4c12.6-23.2,31.8-59.2,38.8-83.8c1-4.2,2.8-17.4-4.8-17.4c-9.2,0-19.8,13.8-22,22.2c-0.4,2-1.4,3-3.6,3
			c-3,0-6.8-3-6.8-6c0-13,18.8-28.4,33.6-28.4c12.2,0,19,7.2,19,19.2c0,18-24.2,65.4-33,83.6c-1,2-2.8,4.6-2.8,7
			c0,1.2,0.6,1.4,1.8,1.4C246.3,185.1,255.1,182.9,263.7,182.3z"/>
	</g>
	<g>
		<path d="M400.8,108.7c21,0,33.8,11.6,33.8,32.6c0,25.2-16.2,53-44,53c-12,0-28.8-5.4-28.8-20.2c0-5.4,3.6-12.6,9.8-12.6
			c1.4,0,5,0.8,5,2.6c0,1.4-1,2.8-1,4.4c0,7.8,1.4,18.4,13,18.4c19,0,30.4-32.6,30.4-48c0-10.2-4-22.8-16.2-22.8
			c-10.4,0-19.4,9.2-27,9.2c-2.2,0-6.2-5.2-6.2-8c0-2.2,36.2-31.2,36.2-34.8c0-1.6-9.4-1.2-11-1.2c-2.8,0-19.8,1.8-19.8-3
			c0-3.4,10.4-2.8,13.4-2.8c2,0,19.2-0.4,28,0c8,0.4,8,1.6,8,4.2c0,4.2-25,26.2-25,28.2C399.4,108.5,400.4,108.7,400.8,108.7z
			 M390.4,186.5c0,0-0.2,0.2-0.2,0H390.4h0.2H390.4z"/>
	</g>
</g>
<path class="st0" d="M364.9,491.2c-8.9-0.2-16.4-6.7-17.9-15.5c-2-11.3-8.3-28.3-26.4-46.8c-32.1-32.6-43.3-51.2-29.3-74.3
	c0,0-4.5-25.9,5.1-27c0,0-28.2-45,20.2-30.9c0,0-50.6-73.9-25.9-73.7c0,0,9-6.2,44.4,43.3s44.4,52.9,44.4,52.9s12.9-68.6,32.9-69.2
	c0,0,12.8,0.9,3.4,19.8c-3.7,7.4-5.6,15.4-5.9,23.6c-0.2,6.1,0,13.8,1.1,23c3.4,26.4,1.1,41.1-1.1,52.9c-2,10.3,0.8,60.8,17,87.2
	c4,6.5,2.3,15-4.1,19.2C411.7,483.1,392.4,491.8,364.9,491.2z"/>
<path class="st1" d="M335.2,328.8c0,0-8.4-17.5-18.6-32.1"/>
<path class="st1" d="M397.1,328.8c0,0-10.7-3.9-17.4-9.6"/>
<path class="st1" d="M312.7,357c0-1.2-9.2-19.2-18.4-33"/>
<path class="st1" d="M294.3,376c1.5-3.9-3.8-27.5-3.8-27.5"/>
<path class="st1" d="M309.9,304c0,0,13.5,3,16,7.4"/>
</svg>
