<svg enable-background="new 0 0 297.64 297.64" viewBox="0 0 297.64 297.64" xmlns="http://www.w3.org/2000/svg"><path clip-rule="evenodd" d="m181.58 169.03 7.35 63.19c-3.94 3.2-12.12 4.33-15.88 3.54l-8.49-49.88-4.72 47.14c-.3 3.53-13.87 4.13-17.54-.69l3.23-62.5z" fill="#203756" fill-rule="evenodd"/><path clip-rule="evenodd" d="m187.95 137.9c-6.4-13.42-13.25-27.22-21.18-26.66l-11.38.58c-15.6-2.5-20.51 19.71-25.99 32.28 3.64 2.36 11.98 3.69 15.54 3.05l-2.44 28.84c13.63 3.11 28.21.52 41.31-3.2l-4.13-30.35c2.02-.12 6.52-1.75 8.27-4.54z" fill="#bbe4f9" fill-rule="evenodd"/><path clip-rule="evenodd" d="m221.37 136.76s.85 7.98 8.78 8.22c8.6.25 9.55-7.88 9.55-7.88-5.36-2.19-11.82-2.33-18.33-.34z" fill="#fff" fill-rule="evenodd"/><path clip-rule="evenodd" d="m150.89 111.87c.72 1.14 3.32 8.53 6.09 9.81 1.25.58 2.56-.94 3.56-2.6l.94 20.13 5.88-.45-2.55-20.11c1.05 1.3 2.03 2.28 3.02 1.63 1.44-.95.72-6.06-.48-9.37-2.52-2.02-13.79-1.54-16.46.96zm10.57 5.51c.47-.97.76-1.72.76-1.72.49.41.95.93 1.39 1.47z" fill="#fff" fill-rule="evenodd"/><path clip-rule="evenodd" d="m130.74 139.6 13.49 3.38.13-1.94-13-3.18c-.18.59-.39 1.17-.62 1.74z" fill="#fff" fill-rule="evenodd"/><path clip-rule="evenodd" d="m129.65 141.98-.06.26 14.45 3.37c.04-.6.1-1.19.18-1.79l-13.92-3.18c-.21.45-.42.9-.65 1.34z" fill="#fff" fill-rule="evenodd"/><path clip-rule="evenodd" d="m186.42 133.18-6.91 4.21c.15.24.29.5.38.79.06.21.1.42.14.63l7.21-4.34c-.28-.42-.56-.85-.82-1.29z" fill="#fff" fill-rule="evenodd"/><path clip-rule="evenodd" d="m180.16 139.77c.09.47.2.95.26 1.42v.03l8.09-5.05c-.3-.37-.59-.75-.87-1.13z" fill="#fff" fill-rule="evenodd"/><path clip-rule="evenodd" d="m200.1 253.71h-12.99c-.66 0-1.75.53-2.45 1.19l-2.51 2.38c-.69.66-.72 1.19-.07 1.19h12.99c.66 0 1.75-.53 2.45-1.19l2.51-2.38c.7-.66.73-1.19.07-1.19z" fill="#9f9f9f" fill-rule="evenodd"/><path clip-rule="evenodd" d="m194.33 233.94 12.44.06c.63 0 1.58-.51 2.11-1.14l1.92-2.29c.53-.63.44-1.15-.19-1.15l-12.44-.06c-.63 0-1.58.51-2.11 1.14l-1.92 2.29c-.53.63-.45 1.14.19 1.15z" fill="#9f9f9f" fill-rule="evenodd"/><path clip-rule="evenodd" d="m224.35 261.16-17.41-.6c-.94-.03-2.33.68-3.09 1.6l-2.78 3.32c-.77.92-.63 1.68.32 1.72l17.41.6c.94.03 2.33-.68 3.09-1.6l2.78-3.32c.76-.92.62-1.69-.32-1.72z" fill="#9f9f9f" fill-rule="evenodd"/><path clip-rule="evenodd" d="m168.96 234.67h-8.88c-.39.47-.88.87-1.45 1.13-.48.21-.95.4-1.46.53-.36.09-.73.16-1.09.24-.03.01-.06.01-.09.01-.2.1-.41.15-.64.14 0 .15-.02.31-.07.46-.24.68-.44 1.37-.61 2.07h10.46c.63 0 1.57-.51 2.1-1.14l1.92-2.29c.52-.64.44-1.15-.19-1.15z" fill="#9f9f9f" fill-rule="evenodd"/><path clip-rule="evenodd" d="m139.76 249.69h-10.6c-.55.77-1.19 1.46-1.98 2.02-1.29.92-2.92 1.25-4.47 1.3-1.22.05-2.5-.05-3.69-.35-.75-.19-1.54-.56-2.11-1.11l-2.89 2c-1.03.71-1.29 1.29-.58 1.29h18.84c.71 0 2.12-.58 3.15-1.29l3.73-2.58c1.06-.7 1.32-1.28.6-1.28z" fill="#9f9f9f" fill-rule="evenodd"/><path clip-rule="evenodd" d="m77.18 258.96h-12.65c-.59 0-1.65.48-2.36 1.07l-2.58 2.14c-.71.59-.81 1.07-.22 1.07h12.65c.59 0 1.65-.48 2.36-1.07l2.58-2.14c.71-.59.81-1.07.22-1.07z" fill="#9f9f9f" fill-rule="evenodd"/><path clip-rule="evenodd" d="m279.01 234.17-14.87-.1c-.76-.01-1.76.61-2.23 1.37l-1.69 2.75c-.47.76-.23 1.38.53 1.38l14.87.1c.76.01 1.76-.61 2.23-1.37l1.69-2.75c.48-.76.24-1.38-.53-1.38z" fill="#9f9f9f" fill-rule="evenodd"/><path clip-rule="evenodd" d="m53.44 250.78h-18.63c-.77 0-2.31.62-3.44 1.39l-4.09 2.79c-1.13.77-1.42 1.39-.65 1.39h18.63c.77 0 2.31-.62 3.44-1.39l4.09-2.79c1.13-.77 1.42-1.39.65-1.39z" fill="#9f9f9f" fill-rule="evenodd"/><path clip-rule="evenodd" d="m250.15 231.63 10.3.04c.53 0 1.31-.42 1.75-.94l1.59-1.9c.44-.52.37-.95-.16-.95l-10.3-.04c-.52 0-1.31.42-1.74.94l-1.59 1.9c-.45.52-.38.95.15.95z" fill="#9f9f9f" fill-rule="evenodd"/><path clip-rule="evenodd" d="m250.38 254.68-12.58.08c-.63 0-1.57.52-2.1 1.15l-1.92 2.29c-.53.63-.45 1.14.18 1.14l12.58-.08c.63 0 1.57-.52 2.1-1.15l1.92-2.29c.53-.63.45-1.14-.18-1.14z" fill="#9f9f9f" fill-rule="evenodd"/><path clip-rule="evenodd" d="m34.64 242.26 2.43-1.82c.67-.5.81-.91.3-.91h-12.97c-.5 0-1.45.41-2.12.91l-2.43 1.82c-.67.5-.81.91-.3.91h12.97c.5 0 1.45-.41 2.12-.91z" fill="#9f9f9f" fill-rule="evenodd"/><path clip-rule="evenodd" d="m279.17 178.6c-.59-.54-1.27-.92-2-1.14 2.49-3.1 2.64-7.19.25-9.38-2.07-1.9-5.42-1.77-8.15.08-.03-1.83-.65-3.27-1.86-3.89-2.41-1.22-6.25 1.3-8.56 5.63-.02.04-.05.09-.07.13-.27-.1-.55-.15-.84-.15-2.1 0-3.9 2.76-4.02 6.16-.06 1.63.28 3.11.88 4.21-1.14-.29-1.17.85-1.21 2.19-.11 3.1 1.93 6.96 4.48 6.96.57 0 1.12-.13 1.63-.35.78.88 1.76 1.64 2.92 2.23 3.92 1.99 8.45 1.21 10.67-1.66 1.98.22 4.14-.56 5.72-2.27 2.45-2.66 2.53-6.59.16-8.75z" fill="#6bab43" fill-rule="evenodd"/><path clip-rule="evenodd" d="m51.88 163.59c1.57-2.19 2.47-5.03 2.47-7.93 0-7.38-7.13-13.15-14.51-13.15-5.84 0-11.01 4.65-10.9 9.86-5.28-.61-9.63 2.26-11.1 8.11-1.36 5.42 2.58 13.14 6.62 15.44-5.1 3.63.01 14.69 9.84 11.12 3.68-1.34 8.94-.01 12.15-.01 4.92 0 9.13-7.86 9.13-13.79.01-4.18-.81-7.87-3.7-9.65z" fill="#6bab43" fill-rule="evenodd"/><path clip-rule="evenodd" d="m269.83 198.26c-.4-3.06-.34-6.5-1.81-10.65 0 0 2.56-3.5 1.47-3.83-1.07-.33-2.27.93-2.27.93s-.92-6.98-2.17-4.38c-.71 1.46-.79 4.45-.79 4.45s-3.02-2.2-2.46-.72c.57 1.48 1.71 2.49 1.71 2.49l-.29 11.82z" fill="#a14823" fill-rule="evenodd"/><path clip-rule="evenodd" d="m42.6 170.55s-.45-5.8-1.71-8.64c-2.21-5.03-2.84 8.51-2.84 8.51s-3.67-3.14-5.26-2.51c-1.63.64 6.03 7.58 6.03 7.58-1.78 8.07-2.98 15.31-3.25 21.24l10.15.19-1.77-22.94s1.64-1.96 2.34-4.83c.7-2.86-3.69 1.4-3.69 1.4z" fill="#a14823" fill-rule="evenodd"/><path clip-rule="evenodd" d="m131.65 239.4c-.43-8-3.76-12.26-7.4-12.71-1.52-.19-5.67-.36-6.76 1.1-1.51 2.04-.39 23.74 3.27 24.08 6.64.61 11.3-4.69 10.89-12.47z" fill="#103d63" fill-rule="evenodd"/><path clip-rule="evenodd" d="m83.44 233.78c-2.05.68-2.58 7.67-1.6 14.4.72 4.95 1.03 10.1 2.58 10.55 5.23 1.51 13.21-2 13.16-11.57-.05-8.13-4.18-16.69-14.14-13.38z" fill="#103d63" fill-rule="evenodd"/><path clip-rule="evenodd" d="m118.6 227.45c-3.78-.63-6.88 4.31-6.92 11.01s2.99 12.65 6.77 13.28 6.88-4.31 6.92-11.01-2.99-12.65-6.77-13.28z" fill="#fff7b2" fill-rule="evenodd"/><path clip-rule="evenodd" d="m83.98 234.08c-4.07-.6-7.27 4.5-7.14 11.37.12 6.87 3.53 12.94 7.59 13.54 4.07.6 7.27-4.5 7.14-11.37-.12-6.87-3.53-12.94-7.59-13.54z" fill="#fff7b2" fill-rule="evenodd"/><path clip-rule="evenodd" d="m113.37 240.26 5.62-1.84c-.62-2.65-2.65-3.83-9.05-1.7-.62.37-1.22.68-1.9.98-1.33.1-2.95.39-4.95.94-1.54.78-3.01 1.33-5.54 1.89-.62 1.29-.46 2.74.2 4.27l7.39-1.99c.01.04.03.08.04.12l2.32-.76 5.97-1.6c-.03-.1-.07-.2-.1-.31z" fill="#55270f" fill-rule="evenodd"/><path clip-rule="evenodd" d="m119.15 238.33c-1.57-.32-5.77.56-9.39 1.96-.47.18-.91.37-1.31.55-1.85.32-3.91.82-5.84 1.44-4.11 1.33-5.99 2.7-4.19 3.06s6.6-.43 10.71-1.76c.9-.29 1.69-.58 2.36-.87 1.29-.34 2.66-.77 3.95-1.27 3.61-1.4 5.28-2.8 3.71-3.11z" fill="#622f2f" fill-rule="evenodd"/><path clip-rule="evenodd" d="m255.42 242.49c-.1.18-.23.34-.4.45-.98.61-2.21.77-3.34.85-1.1.07-2.22.02-3.31-.18-.51-.09-.82-.63-.84-1.11-.37-.18-.72-.4-1.06-.68-.11-.09-.18-.2-.23-.32l-2.41.36c-.72 2.85-.33 4.7.4 5.29 8.64-.41 13.19-1.06 14.91-2.05.17-1.38-.19-1.84-3.72-2.61z" fill="#203756" fill-rule="evenodd"/><path clip-rule="evenodd" d="m218.78 239.74c-1.18 1.33-1.8 3.89-.42 5.59 4.69 5.79 10.54 6.58 11.49 5.84 3.11-2.42-7.24-11.68-7.24-11.68z" fill="#203756" fill-rule="evenodd"/><path clip-rule="evenodd" d="m203.32 157.93c7.16-10.51 7.18-23.03 27.71-21.12 15.97-.74 17.94 10.69 23.77 23.67-1.88 2.38-5.58-1.14-9.88 1.05l6.54 42.15c-11.92 4.84-33.89 4.15-45.07.26 1.34-13.94 3.63-27.83 7.39-43.9-3.52.78-8.25 1.07-10.46-2.11z" fill="#f17796" fill-rule="evenodd"/><path clip-rule="evenodd" d="m249.08 106.07c7.39-8.01 20.3 1.46 9.8 18.63-1.94 3.16-8.26 10.56-7.83 12.07-2.72-2.76.76-13.18.94-23.92.05-2.52-1.69-6.36-2.91-6.78z" fill="#fee993" fill-rule="evenodd"/><path clip-rule="evenodd" d="m230.6 99.55s1.33-1.89-.57-4.19c-2.42-2.93-10.21-5.84-15.03 1.94-8.38 13.52-1.69 27.25-1.69 27.25.35-9.43 5.08-18.73 17.29-25z" fill="#fee993" fill-rule="evenodd"/><path clip-rule="evenodd" d="m186.85 237.73c5.21-.1 13.85.74 16.6.74 4.84 0 3.01 3.22 2.98 4.37 1.02 4.74-15.48 7.7-26.19 8.6-.65.05-2.02-7.54-1.58-9.4 2.69 1.4 9-3.48 8.19-4.31z" fill="#dbdada" fill-rule="evenodd"/><path clip-rule="evenodd" d="m154.81 241.17 5.41 7.6c2.96 2.42 6.28 3.87 6.4 4.4.71 3.12-4.47 7.21-11.44 5.67-3.63-.8-8.88-5.94-12.37-11.44-.62-3.33 1.44-7.44 2.88-7.81 0 0-.02 2.81 3.95 3.49 4.38.74 5.17-1.91 5.17-1.91z" fill="#dbdada" fill-rule="evenodd"/><path clip-rule="evenodd" d="m158.74 68.04c13.23-8.17 37.25 29.69 7.81 40.76-1.71-6.74-9.83-3.31-9.32 1.75-17.01 1.05-23.79-11.03-22.76-21.66 1.57-16.4 13.45-24.95 24.27-20.85z" fill="#978771" fill-rule="evenodd"/><path clip-rule="evenodd" d="m120.37 239.66-21.98 5.79v3.98l22.53-6.07c1.09-.48 1.82-3.42-.55-3.7z" fill="#2d2d2c" fill-rule="evenodd"/><path d="m118.18 196.95-22.71-6.6 11.55-.94-1.4-55.76-52.39 2.64 1.09 57.39 2.49-.2.1 7.15 32.37 10.93 30.48-6.23z" fill="#704644"/><g clip-rule="evenodd" fill-rule="evenodd"><path d="m102.07 187.35-24.77 4.92c-1.86 5.69 2.04 9.6 7.9 9.81 3.88.14 9.13-.15 11.18 1.88-1.37 1.99-2.42 7.15-2.59 12.53-.28 9.27 1.12 19.72 1.12 19.72 3.96-3.98 7.13-4.87 10.08-3.76 0 0 3.84-1.97 6.74.01-.04-12.06 9.46-23 8.42-34.63.3-3.48-14.59-6.07-18.08-10.48z" fill="#277350"/><path d="m82.13 146.22c-14.74-2.42-18.25 18.36-20.84 26.38 6.33 2.29 8 2.56 13.09 3.17.55 7.16.07 12.92 1.41 20.46 15.2 2.5 14.08-9.71 34.7-5.32-2.4-3.92-4.1-8.96-5.28-14.85l7.43-3.75c-6.63-13.68-12.54-27.23-20.18-25.58z" fill="#8dd4dc"/><path d="m163.44 125.16c.49-.1.81-.58.7-1.08-.11-.49-.6-.81-1.09-.71s-.81.58-.7 1.07c.11.5.6.82 1.09.72z" fill="#203756"/><path d="m163.87 130.59c.49-.1.81-.58.7-1.08-.11-.49-.59-.81-1.09-.71-.49.1-.81.58-.7 1.08.11.49.59.81 1.09.71z" fill="#203756"/><path d="m164.99 134.95c-.11-.49-.59-.81-1.09-.71-.49.1-.8.58-.7 1.08.11.49.59.81 1.09.71.49-.11.81-.59.7-1.08z" fill="#203756"/><path d="m175.77 83.63c.26 1.01-.55 3.86-1.77 2.71-1.23-1.15-2.85-5.26-2.85-5.26s.41 4.71-1.15 3.39-2.64-4.24-2.64-4.24.79 3.55-1.28 2.11-3.52-4.38-3.52-4.38.86 5.19-.58 3.87c-1.45-1.32-1.73-2.28-1.73-2.28s.34 3.42-1.1 2.65-2.14-3.11-2.14-3.11.16 2.63-.68 2.18c-.85-.45-1.46-2.1-1.46-2.1s.73 4.43-.4 3.84-2.02-2.34-2.02-2.34.17 3.54-1.01 2.94-2.02-2.84-2.02-2.84.93 5.33-.31 4.67-1.87-1.79-1.87-1.79.82 4.59-.4 3.93c-1.22-.67-1.81-1.89-1.81-1.89s1.45 5.47-.49 5.23-2.31-2.02-2.31-2.02 2.28 4.85.89 4.72c-1.38-.13-2.12-1.03-2.12-1.03s1.49 2.12.24 1.96-5.59-6.36-2.47-16.23c5.09-16.09 19.51-10.47 19.51-10.47 3.09-2.15 7.61-.67 12.19 3.54 3.95 3.6 4.7 9.89 5.3 12.24z" fill="#978771"/><path d="m145.45 76.36c-.31-7.88 9.89-8.23 13.81-6.95-4.74-3.84-14.67-2.18-13.81 6.95z" fill="#c9b49a"/><path d="m159.8 68.22c.69.25 4.65 2.66 5.09 3.57-.05-.79-3.14-3.37-5.09-3.57z" fill="#c9b49a"/><path d="m160.49 67.09c.64-.01 5.42 1.14 8.79 4.28-.24-.85-5.42-4.88-8.79-4.28z" fill="#c9b49a"/><path d="m146.27 68.75c-2.47 1.6-4.18 7.04-3.46 8.08-.3-1.46 2.75-7.29 3.46-8.08z" fill="#c9b49a"/><path d="m142.18 72.17c-3.15 2.58-4.14 11.78-3.56 12.72-.22-5.78 3.05-12.14 3.56-12.72z" fill="#c9b49a"/><path d="m140.57 102.2c-.38 1.03 1.75 5 3.86 5.66-.65-.46-3.85-4.39-3.86-5.66z" fill="#c9b49a"/><path d="m143.96 104.94c-.22.75 1.91 3.55 3.73 3.98-.59-.31-3.61-3.07-3.73-3.98z" fill="#c9b49a"/><path d="m176.43 97.45c.13 1.6-3.69 7.45-4.5 8.21 2.73-1.42 5.12-7.02 4.5-8.21z" fill="#c9b49a"/><path d="m109.28 125.41c.55-.41.91-1.07.91-1.82 0-1.26-1.01-2.28-2.27-2.28s-2.28 1.01-2.28 2.27c0 .12.03.23.04.34.07-.02.14-.04.21-.06 1.02-.25 1.92.32 2.25 1.27.33.93.12 1.89-.27 2.76-.27.59-.7 1.12-1.14 1.6-.17.18-.36.34-.55.51-.04.54-.12 1.08-.25 1.6.31.09.63.15.97.15 1.99 0 3.62-1.61 3.62-3.61.01-1.08-.47-2.06-1.24-2.73z" fill="#dc6626"/><path d="m106.58 115.17c.73-.7.69-1.66.69-2.74.01-2.14-1.75-3.89-3.92-3.89-.08 0-.16 0-.24.01-.54-1.5-1.99-2.57-3.69-2.57-.51 0-.99.09-1.44.27-.66-.81-1.63-1.35-2.74-1.44.01-2.21-1.79-4.01-4-4.02-.17 0-.34.01-.51.03-.54-1.57-2.03-2.7-3.79-2.71-1.16 0-2.21.49-2.94 1.27-.51-.39-1.14-.62-1.83-.62-1.66 0-3.01 1.34-3.02 3v.15c-.39-.18-.82-.29-1.28-.29-1.46 0-2.68 1.04-2.96 2.42-.51-.26-1.09-.41-1.7-.41-1.68 0-3.1 1.11-3.57 2.63-.43-.18-.91-.28-1.4-.28-2.06 0-3.73 1.66-3.74 3.72v.11c-1.24.34-2.15 1.48-2.15 2.82 0 .37.07.72.19 1.05-1.47.58-2.52 2.07-2.53 3.83 0 1.1.41 2.11 1.08 2.85-1.72.23-3.05 1.77-3.05 3.65 0 1.43.77 2.66 1.9 3.27-.59.64-.96 1.49-.96 2.43 0 1.48.88 2.75 2.15 3.31-.08.29-.12.6-.12.92 0 1.61 1.05 2.97 2.5 3.45-.37.56-.58 1.23-.58 1.96 0 1.99 1.61 3.62 3.6 3.62.69 0 1.34-.19 1.89-.53.32 1.67 1.78 2.93 3.54 2.93.82 0 1.58-.27 2.19-.73.61 1.12 1.8 1.89 3.17 1.89 1.23 0 2.32-.62 2.98-1.56-.23-.15-.46-.29-.71-.42-.13-.08-.23-.17-.33-.27-.67-.45-1.33-.91-1.96-1.42-.42-.34-.83-.71-1.2-1.11-.07-.08-.14-.16-.22-.23-.16-.04-.43-.29-.55-.36-.5-.31.1-1.03-.26-1.5-.3-.39-.75-.97-.88-1.44-.12-.43-.78-.8-.84-1.26-.07-.11-.35.17-.4.05-.1 0-.19.01-.29.01-.58-.02-1.16-.11-1.73-.22-.41-.08-.21-.72-.6-.86-.54-.19-.51-.02-.93-.42-.05-.05-.51-.27-.56-.33-.38-.15-.35-.4-.56-.74-.04-.05-.57-.55-.6-.6-.25-.39-.35-.59-.23-1.02.14-.49-.06-.42.33-.71.67-.49 1.46-.49 2.24-.55.03-.01.06-.02.09-.02.01 0 .02-.01.02-.01.06-.05.12-.1.17-.16.2-.21.41-.39.65-.55.16-.11.34-.2.53-.27.07-.09.14-.18.21-.27.23-.23.5-.38.81-.47.16-.02.32-.04.49-.06.18-.01.35.03.51.08-.04-.23 1.27.05 1.19-.16 2.11-.51 3.34-2.06 3.35-4.28 0-.08.28-.48.28-.56 2.06-.33 3.08-1.37 3.4-3.4.28.09 1.13-.23 1.44-.23 1.66 0 .94-2.27 2.56-2.65 1.35-.31.24.21.23.14.52.43.11.14.84.14.83 0 1.31.13 1.86-.42.45 1.54 2.5 2.27 4.19 2.28 1.71 0 2.87-.98 3.3-2.56.7 1.05.86 1.39 2.23 1.4.23 0 .71.18.93.14.12 2.03 2.66 3.44 4.74 3.44 2.17 0 4.32-2.51 4.33-4.65.02-1.44-.69-2.61-1.79-3.3z" fill="#dc6626"/><path d="m104.95 156.01c.31.35.54.75.73 1.17.97.99 2.56 3.95 3.13 5.2l-.47-30.51c-.53.23-1.95.35-2.55.15-.14.64-.3 1.28-.48 1.9-.07.32-.16.63-.27.94-.13.38-.28.76-.44 1.13-.14.36-.29.73-.44 1.09-.01.03-.01.05-.02.08l.63 18.69c.06.05.12.09.18.16z" fill="#9f9f9f"/><path d="m116.22 185.27c-2.09-.55-4.49-1.18-6.96-1.82.24.92.49 1.88.59 2.84.01.03.03.06.04.09.14.34.27.68.38 1.02 1.73.45 3.39.89 4.89 1.28 3.33.87 5.62 3.71 5.6 6.96-.06 9.14-.46 24.26-.46 30.35 0 2.38 4.39 1.62 4.4.21.04-5.89-.21-21.3-.14-30.58.02-4.83-3.38-9.06-8.34-10.35z" fill="#9f9f9f"/><path d="m81.44 190.44c-9.49-2.58-25.24-6.87-25.24-6.87-.21-.04-.4-.05-.59-.05l-.94-52.1c-.01-.83-.6-1.55-1.43-1.75l-12.42-2.77c-1.01-.25-1.94 3.32-.92 3.57l11.01 2.42 1.02 56.72 3.79.04-.04-2.39c2.73.74 16.23 4.42 24.74 6.73 3.34.91 5.66 3.87 5.67 7.24.04 9.57.08 25.18.11 31.42.01 1.56 3.79 1.66 3.79.27-.02-6.01-.07-21.99-.11-31.71-.02-5.02-3.46-9.42-8.44-10.77z" fill="#9f9f9f"/><ellipse cx="106.9" cy="57.84" fill="#ffc60a" rx="9.75" ry="9.61"/><path d="m63.37 70.72c-.2.03-.4.06-.59.1-.03-.19-.09-.38-.18-.57-.92-2-4.67-3.19-8.37-2.66-3.69.54-5.94 2.6-5.02 4.61.17.38.45.73.8 1.04-.96-.09-2.02-.06-3.12.1-3.91.57-6.85 2.62-6.56 4.57.28 1.95 3.69 3.07 7.59 2.51 2.15-.31 4-1.07 5.19-2.02 1.26 1.71 4.69 2.67 8.08 2.18 3.69-.54 5.94-2.6 5.02-4.61l-.01-.02c2.87-.77 4.84-2.16 4.65-3.43-.22-1.57-3.58-2.37-7.48-1.8z" fill="#aed0e3"/><path d="m235.52 61.91c-2.46-.25-4.83-.07-6.74.43-.11.01-.21.01-.32.02.03-.19.03-.38 0-.58-.29-2.04-3.64-3.57-7.49-3.42-3.85.16-6.73 1.94-6.45 3.98.05.39.22.75.47 1.09-.93-.18-1.99-.26-3.14-.22-4.07.16-7.64 1.86-7.97 3.79s2.7 3.36 6.77 3.2c2.23-.09 4.32-.65 5.8-1.45.71 1.79 3.83 3.07 7.36 2.93 2.56-.1 4.7-.93 5.76-2.07.99.27 2.08.48 3.26.6 5.27.53 10.15-.9 10.9-3.19.74-2.3-2.94-4.58-8.21-5.11z" fill="#aed0e3"/><path d="m91.45 130.24c-.02-.15-.16-.26-.31-.23-.15.02-.26.16-.24.31s.16.26.31.24c.16-.03.26-.17.24-.32z" fill="#933f20"/><path d="m88.5 130.28c-.02-.15-.16-.26-.31-.23s-.26.16-.24.31.16.26.31.24c.16-.03.26-.17.24-.32z" fill="#933f20"/><path d="m89.46 130.98c-.15.02-.26.16-.24.31s.16.26.31.24.26-.16.24-.31c-.01-.15-.15-.26-.31-.24z" fill="#933f20"/><path d="m85.35 130.6c-.15.02-.26.16-.23.31.02.15.16.26.31.23.15-.02.26-.16.24-.31s-.17-.25-.32-.23z" fill="#933f20"/><path d="m85.91 133.34c-.15.02-.26.16-.24.31s.16.26.31.23c.15-.02.26-.16.23-.31-.01-.14-.15-.25-.3-.23z" fill="#933f20"/><path d="m88.35 132.73c-.15.02-.26.16-.24.31s.16.26.31.23c.15-.02.26-.16.24-.31s-.16-.25-.31-.23z" fill="#933f20"/><path d="m90.16 133.62c-.15.02-.26.16-.24.31s.16.26.31.24.26-.16.24-.31c-.02-.16-.16-.26-.31-.24z" fill="#933f20"/><path d="m83.99 131.88c-.15.02-.26.16-.23.31.02.15.16.26.31.23.15-.02.26-.16.24-.31s-.17-.25-.32-.23z" fill="#933f20"/><path d="m83.99 134.21c-.15.02-.26.16-.23.31.02.15.16.26.31.24s.26-.16.24-.31-.17-.27-.32-.24z" fill="#933f20"/><path d="m91.52 131.91c-.15.02-.26.16-.23.31s.16.26.31.24.26-.16.23-.31-.16-.26-.31-.24z" fill="#933f20"/><path d="m86.94 131.81c-.15.02-.26.16-.23.31.02.15.16.26.31.23.15-.02.26-.16.24-.31-.03-.14-.17-.25-.32-.23z" fill="#933f20"/><path d="m99.8 130.34c-.15 0-.27.13-.27.29.01.15.13.27.29.27.15-.01.27-.13.27-.29-.01-.16-.13-.27-.29-.27z" fill="#933f20"/><path d="m102.1 131.26c-.15.01-.27.13-.27.29.01.15.13.27.29.27.15-.01.27-.13.27-.29-.01-.16-.14-.28-.29-.27z" fill="#933f20"/><path d="m98.56 131.53c-.15.01-.27.13-.27.29.01.15.13.27.29.27.15-.01.27-.13.27-.29 0-.15-.13-.27-.29-.27z" fill="#933f20"/><path d="m99.12 128.51c-.15.01-.27.13-.27.29.01.15.13.27.29.27.15-.01.27-.13.27-.29-.01-.15-.14-.27-.29-.27z" fill="#933f20"/><path d="m101.28 128.79c-.15.01-.27.13-.27.29.01.15.13.27.29.27.15-.01.27-.13.27-.29-.01-.16-.14-.27-.29-.27z" fill="#933f20"/><path d="m97.91 129.63c-.15.01-.27.13-.27.29.01.15.13.27.29.27.15 0 .27-.13.27-.29-.01-.16-.14-.28-.29-.27z" fill="#933f20"/><ellipse cx="54.79" cy="221.95" fill="#2d2d2c" rx="21.03" ry="33.69" transform="matrix(.9989 -.0476 .0476 .9989 -10.5094 2.8616)"/><ellipse cx="50.88" cy="221.58" fill="#45545d" rx="20.73" ry="33.32" transform="matrix(.9989 -.0469 .0469 .9989 -10.3452 2.6325)"/><ellipse cx="49.9" cy="221.96" fill="#888" rx="16.18" ry="28.6" transform="matrix(.9995 -.0305 .0305 .9995 -6.7543 1.6273)"/><path d="m177.23 237.02 1.95 4.93c1.25 1.45 7.76-2 7.63-4.47l-.84-3.07z" fill="#ffe7cc"/><path d="m146.53 238.09c.11 4.76 5.77 5.14 6.81 3.52l1.29-4.77-8.84-1.4z" fill="#ffe7cc"/><path d="m177.55 85.18c-.39-.17-.83-.16-1.29-.02-.26 1.29-1.86 2.25-2.95 1.01-.34-.39-.65-.79-.96-1.2-.29-.02-.93.19-1.27.18-.99-.03-2.01-.51-2.48-1.41-.02-.05-.15-.35-.26-.65-.7.25-1.53.23-2.2-.02s-1.06-.7-1.23-1.34c-.14.03-.29.07-.34.09-.64.22-1.25.52-1.88.77-.66.26-1.29.01-1.71-.46-1.02.31-2.12.37-3.06.12-.48-.13-.91-.38-1.24-.7-.01.06-.02.12-.03.16-.12.45-.3.88-.57 1.25-.65.91-2.17 1.13-2.89.31-.18.74-.73 1.35-1.65 1.27-.13-.01-.32-.01-.5-.01-.12.45-.37.85-.68 1.24-.48.61-1.14.67-1.73.44-.1.17-.19.34-.25.52-.34.94-1.57 1.55-2.47 1.2.07.22.14.44.18.67.21 1.21-.11 2.16-1.1 2.9-.29.21-.6.28-.9.27-.02.1-.04.2-.05.29-.22 1.1-.8 2.2-1.98 2.48-.6.15-1.22.06-1.72-.21.06.21.12.43.18.65-1.04-.3-2.02-.16-2.53.48-.77.97-.17 2.68 1.34 3.82 1.15.87 2.5 1.16 3.41.81 2.77 4.6 7.09 7.85 11.9 8.91l1.28 3.26c3.33 5.84 8.78 3.76 9.65.36l-.13-5.06c5.62-2.96 9.21-9.16 9.4-16.14 1.08.13 2.42-.78 3.18-2.25.86-1.71.66-3.48-.47-3.99z" fill="#ffe7cc"/><path d="m187.2 172.09c-.08-2.93.05-18.62-2.27-30.63l-4.33 1.53 4.08 29.97-1.85 1.22.94 10.78c7.34 1.04 3.43-12.87 3.43-12.87z" fill="#ffe7cc"/><path d="m133.6 146.94-3.09 26.79-4.34 5.54c-2.7 4.2-1.65 6.63-.68 5.73-.54 2.56 2.42 5 2.64 1-.33 6.05 3.09 5.59 3.29 1.82-.1 1.8 1.58 2.6 2.41 1.64 1.05-1.22.55-3.37 2.16-7.78 1.91 4.77 3.96 3.07 4.19 2.02.18-.81-1.02-2.36-1.36-3.73-.4-1.63-.17-3.6-1.74-5.02l4.55-26.52c-2.67-.39-5.61-.49-8.03-1.49z" fill="#ffe7cc"/><path d="m165.83 251.73c-.06.24-.17.49-.31.76-.17-.54-2.08-1.9-4.47-3.08-1.51.48-5.2 1.79-8.24 4.27l.09.71c-1.46-.93-2.72-2.09-3.49-2.98-2.71-3.15-6.57-8.32-6.42-8.37 0 0-.99 3.3.28 5.3 3.49 5.5 8.16 9.86 11.81 10.56 4.4 1.45 11.81-1.86 11.72-4.28 0-.23-.97-2.89-.97-2.89z" fill="#8e8f90"/><path d="m206.05 240.98c-.24-.95-.78-1.55-.78-1.55s.06.21.07.56c-.36-.91-1.56-.76-3.22-.93-1.79-.18-3.08 0-3.08 0-1.12 1.01-1.34 3.66-.53 7.17-.43.13-.88.26-1.36.38-6.45 1.59-16.81 2.2-16.81 2.2s-.42 1.71.63 1.66c2.69-.13 5.67-.37 8.52-.73 3.26-.41 6.35-.98 8.64-1.7 4.93-1.57 8.7-3.99 7.92-7.06z" fill="#8e8f90"/><path d="m222.65 239.92c-.48-10.87.65-21.46 2.4-32.48l-10.98-.93c-.91 11.77 3.05 28.46 5.11 34.04.88 2.38 2.95 4.16 5.72 5.62 1.84.97 2.75.59 2.19-1.71-.58-1.44-2.44-2.68-4.44-4.54z" fill="#fdd5b4"/><path d="m248.32 240.39c-2.16-11.23-3.42-23.35-3.74-34.44l-11.16 1.67c.73 12.14 7.22 29.71 10.29 34.89-.08 2.91 9.61 1.11 9.61 1.11s2.33-.37 1.77-1.77c-.24-.59-6.59-.52-6.77-1.46z" fill="#fdd5b4"/><path d="m235.37 137.11.71-5.43c2.22-1.05 4.06-2.52 5.49-4.39 1.37.7 2.59.77 3.79 0 1.77-1.13 2.48-2.7 1.99-3.53-.49-.84-1.65-1.03-3.05-.29-.25.13-.54.32-.84.53.43-1.05.78-2.17 1.01-3.39-1.07-11.73-5.83-19.78-22.35-16.1-2.86 3.39-3.71 7.47-3.9 10.4-.42-.18-.85-.19-1.24-.01-.88.41-1.18 2.1-.37 4.04.22.52.52.93.89 1.26-2.06 4.84 2.71 11.12 6.31 13.46.75.04 1.48.05 2.2.05.2 1.68-.09 3.7.72 4.69 2.95 3.62 8.44 1.95 8.64-1.29z" fill="#fdd5b4"/><path d="m257.04 192.32c-1.04-5.42-2.3-7.42-3.21-8.72l-2.12-21.73c-1.72-.43-3.81-1.51-5.92-.86l2.8 23.32c-1.91 1.74-1.85 5.97-2.99 7.42.11 1.56 1.47 1.78 2.77-1.95.69 3.62-.16 5.76.49 6.16 1.4.86 1.79-1.83 1.82-4.55.32 2.17.32 5.31.39 6.08 1.04 1.3 1.95-2.01 1.44-5.99.6 2.18.65 5.51 1.01 5.64 1 .34 2.13-.56 1.43-3.49.81 4.43 2.7 1.83 2.09-1.33z" fill="#fdd5b4"/><path d="m205.85 161.01-1.92 21.75c-.91 1.3-2.28 3.22-3.32 8.63-.57 2.96.75 3.23 1.59-.37-.48 2.62-.17 4.95.73 4.64.36-.12.79-2.93 1.4-5.11-.51 3.97.4 7.29 1.44 5.99.07-.77.07-3.91.39-6.08.03 2.73.42 5.42 1.82 4.55.65-.4-.21-2.54.49-6.16 1.3 3.73 2.65 3.51 2.77 1.95-1.14-1.45-1.08-5.68-2.99-7.42l3.67-22.06c-1.59.24-3.66.2-6.07-.31z" fill="#fdd5b4"/><path d="m243.65 104.96s3.2-1.38 4.59 2.45c.94 2.6.95 3.78.71 5.33-.22 1.42-1.69 1.95-2.61 1.66-.5-.15-.53-1.17-.58-2.1-.15-2.86-2.11-7.34-2.11-7.34z" fill="#bbe4f9"/><path d="m222.66 103.18s-1.55-3.52 2.34-5.13c2.64-1.09 3.86-1.12 5.46-.88 1.48.22 2.08 1.84 1.82 2.86-.14.55-1.18.6-2.14.67-2.95.24-7.48 2.48-7.48 2.48z" fill="#bbe4f9"/><path d="m231.72 101.46c-12.25-3.57-15.57 7.62-14.11 11.78 1.37-9.99 16.03-11.7 14.11-11.78z" fill="#fee993"/><path d="m224.07 102.8c-1.51 4.23 3.88 8.15 6.53 10.06.78.56.35-.65.6-2.03 3.41 4.78 5.94 7.88 6.43 8.34.55.52.78-1.04.53-3.32 1.44 4.65 5.73 3.88 5.01 9.94 3.41-3.61 4.6-10.91 3.58-15.47-.31-1.4-2.01-5.82-6.1-8.27-5.17-3.1-14.2-3.89-16.58.75z" fill="#fee993"/><path d="m100.86 239.11c.88-.1 1.91-.65 2.84-1.01l.54-.37-.66-4.66c-.76.09-1.55 0-2.39-.34-.12.04-.23.07-.29.08-.04.02-.09.04-.13.06-.67.34-1.37.52-2.06.58-.59.75-1.33 1.34-2.19 1.67l1.41 5.11c.82-.6 1.84-1 2.93-1.12z" fill="#fac7b0"/><path d="m106.35 237.35c1.54-.43 3.13-.94 4.74-.83l-.42-4.06c-1.74.14-3.47.07-5.23.02-.55.29-1.11.49-1.69.58l1.49 4.58c.36-.1.74-.19 1.11-.29z" fill="#fac7b0"/><path d="m104.15 124.71c-.15-.52-.32-1.03-.51-1.53-.69-.07-1.33-.27-1.94-.62-.32-.25-.65-.5-.97-.75-.59-.6-1-1.3-1.23-2.11-.02-.18-.05-.36-.07-.54-.37-.05-.87-.12-.88-.12-.2-.05-.58-.24-.58-.24-.67-.28-.39-.14-.58-.24-.28-.15-.53-.34-.76-.56-.18.3-.39.59-.66.84-.02.02-.04.03-.06.05-.01.01-.02.03-.03.04-.6.59-1.3 1-2.11 1.23-.42.06-.85.11-1.27.17-.66.02-1.28-.11-1.85-.41-.59-.19-1.11-.52-1.54-.99-.16-.15-.28-.32-.41-.49-.35.08-.72.13-1.13.13-.63 0-1.17-.12-1.67-.3-.09.24-.2.48-.33.71l-.75.97c-.6.59-1.3 1-2.11 1.23-.4.05-.8.11-1.21.16-.02.04-.04.09-.06.13-.19.59-.52 1.11-.99 1.54-.43.47-.95.8-1.54.99-.34.18-.69.29-1.06.35 0 .1.01.19.01.29.02.66-.11 1.28-.41 1.85-.19.59-.52 1.11-.99 1.54l-.09.09c-.6.59-1.3 1-2.11 1.23-.42.06-.85.11-1.27.17-.31 0-.61-.04-.9-.1.05.68.13 1.36.24 2.02-.07-.03-.13-.07-.19-.1-1.79-.82-3.6-.59-4.05.52s.64 2.68 2.43 3.5c1.12.52 2.26.62 3.05.35 1.56 3.64 4.2 6.66 7.46 8.59l-.88 2.87c3.38 6.74 13.89 6.15 11.15.43l.5-1.24c7.69-1.3 13.34-8.39 13.11-16.99.35-.22.69-.48 1.01-.79 1.41-1.38 1.87-3.15 1.02-3.95-.63-.56-1.71-.49-2.79.08z" fill="#fac7b0"/><path d="m71.41 181.73.88-5.63-8-2.05-.09 6.37c-.18.05-1.17.35-1.35.42-2.07.75-2.06 2.34-2.24 4.62-.2 2.53 3.14 7 2.51 1.48.04.28.09.53.15.77l-.05.32.14.02c.71 2.53 2.15 2.71 2.65.46l.42.07c.61 3.01 1.69 2.18 2.58.44l.28.05.2-1.11c.06-.14.11-.28.16-.42-1.05 6.48 5.11-.14 3.8-3.04-.53-1.19-1.18-2.14-2.04-2.77z" fill="#fac7b0"/><path d="m121.83 180.54c-1.58-4.16-6.2-5.11-9.3-4.19-.23.07.02-.46-.19-.37l-.86-2.26-5.63 2.81 1.37 4.53-1.91.81c-.27.12-.46.76-.37.95.18.39.66 1.05 1 1.26l.35.23.65.35c.89.37 1.37.09 2.42-.35.77 1.86 2.52 3.51 2.3-.35.4 4.19 2.56 3.95 2.93-.21.29 5.97 1.95 3.42 3.16.67-1.42 6.44 5.21-.91 4.08-3.88z" fill="#fac7b0"/><path d="m157.58 98.89c.3.14.66.01.8-.29s.01-.66-.29-.8c-.67-.31-.83-1.02-.65-1.62.18-.61.69-1.14 1.42-1.08.33.03.62-.21.65-.54s-.21-.62-.54-.65c-1.36-.12-2.35.81-2.68 1.94-.34 1.14.01 2.45 1.29 3.04z" fill="#010101"/><path d="m163.74 88.82c.33-.02.58-.3.57-.63-.02-.33-.3-.59-.63-.57-1.5.08-2.4.98-2.69 1.98-.25.87-.03 1.84.69 2.51.09.15.21.28.37.37.15.09.31.14.47.15.17.06.35.03.49-.06.28-.09.54-.28.71-.56.36-.6.2-1.36-.36-1.71-.4-.24-.88-.19-1.27.06-.01-.15 0-.3.04-.44.18-.57.73-1.05 1.61-1.1z" fill="#010101"/><path d="m149.54 93.03c-.31 1.14.17 2.52 1.45 3.15.23.11.49.06.67-.1.31-.09.59-.28.79-.57.42-.63.28-1.47-.31-1.87-.45-.3-1.03-.26-1.47.05 0-.12 0-.23.03-.34.16-.59.73-1.02 1.66-.92.33.03.62-.21.66-.54.03-.33-.21-.62-.54-.66-1.69-.17-2.65.73-2.94 1.8z" fill="#010101"/><path d="m161.03 85.84c1.02 0 1.87.19 2.54.46 1.39.54 2.05 1.38 2.05 1.38.2.26.58.31.84.11s.31-.58.11-.84c0 0-.82-1.08-2.57-1.77-.79-.31-1.78-.54-2.98-.54-.33 0-.6.27-.6.6.01.33.28.59.61.6z" fill="#010101"/><path d="m147.61 91.72c.32.1.65-.08.75-.4 0 0 .34-1.05 1.48-2.08.56-.5 1.31-.99 2.29-1.36.31-.12.47-.46.35-.77s-.46-.47-.77-.35c-1.15.43-2.02 1.01-2.67 1.59-1.43 1.29-1.83 2.62-1.83 2.62-.1.31.08.65.4.75z" fill="#010101"/><path d="m158.48 104.44c.64 0 1.3-.09 1.96-.29 2.42-.73 3.98-2.67 4.07-5.08.01-.33-.25-.61-.58-.62-.34 0-.61.25-.62.58-.08 1.91-1.28 3.39-3.22 3.98-2 .6-4.11.02-5.14-1.42-.19-.27-.57-.33-.84-.14s-.33.57-.14.84c1 1.38 2.68 2.15 4.51 2.15z" fill="#010101"/><path d="m118.63 54.09c.11.3.4.49.71.49.08 0 .17-.01.26-.05l7.02-2.55c.39-.14.59-.57.45-.96s-.57-.59-.96-.45l-7.02 2.55c-.4.15-.6.58-.46.97z" fill="#010101"/><path d="m113.41 47.18c.22 0 .45-.1.59-.29l3.52-4.53c.25-.33.19-.8-.13-1.05-.33-.25-.8-.19-1.05.13l-3.52 4.53c-.25.33-.19.8.13 1.05.14.1.3.16.46.16z" fill="#010101"/><path d="m119.43 61.75c-.1.4.14.81.54.92l7.03 1.83c.06.02.13.02.19.02.33 0 .64-.22.72-.56.1-.4-.14-.81-.54-.92l-7.03-1.83c-.4-.1-.81.14-.91.54z" fill="#010101"/><path d="m108.32 69.75c-.41.03-.72.4-.68.81l.62 7.41c.03.39.36.69.75.69h.06c.41-.03.72-.4.68-.81l-.62-7.41c-.03-.42-.37-.72-.81-.69z" fill="#010101"/><path d="m115.35 67.1c-.31.28-.33.75-.05 1.06l5 5.51c.15.16.35.25.56.25.18 0 .36-.06.5-.19.31-.28.33-.75.05-1.06l-5-5.51c-.28-.31-.76-.34-1.06-.06z" fill="#010101"/><path d="m94.84 75.19c.24 0 .48-.12.62-.33l4.11-6.18c.23-.35.13-.81-.21-1.04s-.81-.13-1.04.21l-4.11 6.18c-.23.35-.13.81.21 1.04.14.07.28.12.42.12z" fill="#010101"/><path d="m87.14 64.62c.09.33.39.54.72.54.07 0 .14-.01.21-.03l6.75-1.97c.4-.12.63-.53.51-.93s-.53-.62-.93-.51l-6.75 1.97c-.4.12-.63.53-.51.93z" fill="#010101"/><path d="m87.58 51.26 7.26 2.84c.09.04.18.05.27.05.3 0 .58-.18.7-.48.15-.39-.04-.82-.42-.97l-7.26-2.84c-.39-.15-.82.04-.97.42-.15.4.04.83.42.98z" fill="#010101"/><path d="m99.74 47.66c.13.26.39.4.67.4.12 0 .24-.03.35-.09.37-.19.51-.65.32-1.01l-3.31-6.31c-.19-.37-.64-.51-1.01-.32s-.51.65-.32 1.01z" fill="#010101"/><path d="m104.68 45.98c.04 0 .08 0 .13-.01.41-.07.68-.46.61-.87l-.89-5.21c-.07-.41-.46-.69-.87-.61-.41.07-.68.46-.61.87l.89 5.21c.06.36.38.62.74.62z" fill="#010101"/><path d="m109.21 45.97c.05.01.1.01.15.01.35 0 .66-.25.73-.6l1.28-6.44c.08-.41-.18-.8-.59-.88-.4-.08-.8.18-.88.59l-1.28 6.44c-.08.4.18.8.59.88z" fill="#010101"/><path d="m96.61 50.42c.14.12.31.18.48.18.21 0 .43-.09.58-.27.27-.32.22-.79-.09-1.06l-3.32-2.78c-.32-.27-.79-.22-1.06.09-.27.32-.22.79.09 1.06z" fill="#010101"/><path d="m93.9 59.45h.02c.41 0 .74-.32.75-.73s-.32-.76-.73-.77l-5.04-.13c-.01 0-.01 0-.02 0-.41 0-.74.32-.75.73s.32.76.73.77z" fill="#010101"/><path d="m92.82 68.7c.12 0 .25-.03.37-.1l3.23-1.81c.36-.2.49-.66.29-1.02s-.66-.49-1.02-.29l-3.23 1.81c-.36.2-.49.66-.29 1.02.14.25.39.39.65.39z" fill="#010101"/><path d="m102.39 70.37-.71 3.65c-.08.41.19.8.59.88.05.01.1.01.14.01.35 0 .67-.25.74-.61l.71-3.65c.08-.41-.19-.8-.59-.88-.4-.07-.8.19-.88.6z" fill="#010101"/><path d="m112.11 69.04c-.38.16-.57.6-.41.98l1.42 3.43c.12.29.4.46.69.46.1 0 .19-.02.29-.06.38-.16.57-.6.41-.98l-1.42-3.43c-.16-.37-.6-.55-.98-.4z" fill="#010101"/><path d="m122.32 67.93c.23-.34.14-.81-.21-1.04l-3.09-2.06c-.35-.23-.81-.14-1.04.21-.23.34-.14.81.21 1.04l3.09 2.06c.13.09.27.13.42.13.24-.01.47-.13.62-.34z" fill="#010101"/><path d="m120.66 58.56h.03l4.63-.17c.41-.01.74-.36.72-.78-.01-.41-.38-.75-.78-.72l-4.63.17c-.41.01-.74.36-.72.78.01.4.35.72.75.72z" fill="#010101"/><path d="m116.75 50.26c.14.22.38.34.63.34.14 0 .28-.04.41-.12l3.17-2.07c.35-.23.44-.69.22-1.04-.23-.35-.69-.44-1.04-.22l-3.17 2.07c-.35.22-.45.69-.22 1.04z" fill="#010101"/><path d="m95.66 57.84c0 6.13 5.03 11.11 11.25 11.11 6.21 0 11.25-4.99 11.25-11.11s-5.03-11.11-11.25-11.11-11.25 4.98-11.25 11.11zm11.24-9.61c5.38 0 9.75 4.31 9.75 9.61 0 5.31-4.37 9.61-9.75 9.61s-9.75-4.31-9.75-9.61c.01-5.31 4.38-9.61 9.75-9.61z" fill="#010101"/><path d="m41.34 81.13c1.63.79 4.1 1.14 6.8.75 1.85-.27 3.51-.85 4.79-1.58.57.44 1.27.83 2.06 1.13 1.8.68 4.12.95 6.42.61 2.7-.39 4.72-1.55 5.7-2.86.52-.7.8-1.45.82-2.22 1.74-.65 3.06-1.52 3.73-2.38.59-.75.79-1.55.68-2.3-.13-.87-.68-1.69-1.73-2.27-1.41-.79-3.99-1.19-6.9-.86-.56-.9-1.52-1.68-2.79-2.24-1.86-.82-4.39-1.18-6.91-.81-2.7.39-4.72 1.55-5.7 2.86-.64.87-.92 1.82-.78 2.78-.28.02-.57.06-.85.1-2.69.39-4.97 1.44-6.3 2.66-1.2 1.1-1.71 2.39-1.53 3.61.17 1.21 1.02 2.31 2.49 3.02zm5.55-7.8c1.1-.16 2.16-.19 3.12-.1-.35-.31-.63-.66-.8-1.04-.92-2 1.33-4.07 5.02-4.61s7.44.65 8.37 2.66c.09.19.15.38.18.57.19-.03.39-.07.59-.1 3.91-.57 7.26.23 7.49 1.79.19 1.27-1.79 2.66-4.65 3.43l.01.02c.92 2-1.33 4.07-5.02 4.61-3.39.49-6.83-.47-8.08-2.18-1.19.95-3.04 1.71-5.19 2.02-3.91.57-7.31-.55-7.59-2.51-.3-1.95 2.64-4 6.55-4.56z" fill="#010101"/><path d="m204.12 70.26c1.38.94 3.77 1.56 6.61 1.45 1.92-.08 3.73-.47 5.21-1.05.44.48 1.01.91 1.7 1.28 1.59.85 3.83 1.35 6.24 1.26 2.55-.1 4.72-.88 6.1-1.93.84.2 1.75.35 2.71.44 3.44.35 6.73-.1 8.98-1.03 1.88-.78 3.09-1.94 3.49-3.19.47-1.45-.02-2.96-1.5-4.24-1.57-1.35-4.45-2.47-7.98-2.83-2.13-.21-4.19-.12-5.99.19-.37-.84-1.07-1.61-2.07-2.23-1.6-.99-4.04-1.62-6.69-1.51-2.7.11-4.99.96-6.32 2.1-.94.8-1.47 1.76-1.57 2.75-.4-.01-.81-.01-1.23.01-2.73.11-5.25.86-6.92 1.89-1.43.89-2.27 2.03-2.47 3.14-.23 1.32.34 2.57 1.7 3.5zm-.22-3.25c.33-1.93 3.9-3.63 7.97-3.79 1.15-.05 2.21.03 3.14.22-.25-.34-.42-.71-.47-1.09-.29-2.04 2.6-3.83 6.45-3.98 3.85-.16 7.2 1.38 7.49 3.42.03.19.03.39 0 .58.1-.01.21-.02.32-.02 1.91-.49 4.28-.67 6.74-.43 5.27.53 8.95 2.82 8.21 5.11s-5.62 3.72-10.9 3.19c-1.18-.12-2.27-.32-3.26-.6-1.06 1.14-3.19 1.97-5.76 2.07-3.53.14-6.65-1.14-7.36-2.93-1.48.8-3.57 1.36-5.8 1.45-4.08.16-7.11-1.27-6.77-3.2z" fill="#010101"/><path d="m97.58 135.94c-.35-.06-.66.18-.72.52-.22 1.34-1.38 2.44-2.89 2.75-1.79.37-3.53-.45-4.64-2.2-.18-.29-.57-.38-.86-.19s-.38.57-.19.86c1.18 1.85 2.93 2.87 4.84 2.87.37 0 .74-.04 1.11-.12 2.01-.41 3.57-1.93 3.87-3.78.05-.34-.18-.66-.52-.71z" fill="#010101"/><path d="m88.86 128.76c.61-1.36-.08-2.88-1.43-3.38-.92-.34-2.19-.21-3.54.91-.21.18-.24.49-.06.7s.49.24.7.06c.34-.29.68-.49 1-.63.11.69.79 1.45 1.57 1.72.36.12.67.11.91.01-.02.07-.04.13-.06.2-.11.25 0 .55.25.66s.55 0 .66-.25z" fill="#010101"/><path d="m98.52 124.06c-.92-.34-2.19-.21-3.54.91-.21.18-.24.49-.06.7s.49.24.7.06c.46-.38.89-.62 1.3-.74.01.08.02.17.04.26.19.76.86 1.47 1.51 1.59.29.05.51-.03.67-.19-.02.13-.05.25-.11.38-.11.25 0 .55.25.66s.55 0 .66-.25c.62-1.36-.07-2.88-1.42-3.38z" fill="#010101"/><path d="m93.92 129.59c.54-.69 1.17-.66 1.57-.4.5.32.84 1.06.39 1.94-.13.25-.03.55.22.67.07.04.15.05.23.05.18 0 .36-.1.45-.27.7-1.37.15-2.66-.75-3.24-.8-.51-2-.51-2.9.63-.17.22-.13.53.08.7.22.18.54.14.71-.08z" fill="#010101"/><path d="m88.25 122.92c.28.01.51-.19.53-.46.02-.28-.19-.51-.46-.53-2.3-.16-4.76 1.26-5.63 2.69-.14.24-.07.54.17.69.08.05.17.07.26.07.17 0 .33-.08.43-.24.69-1.15 2.87-2.36 4.7-2.22z" fill="#010101"/><path d="m95.92 122.02c1.33-.1 2.84.75 3.33 1.56.09.15.26.24.43.24.09 0 .18-.02.26-.07.24-.14.31-.45.17-.69-.66-1.08-2.51-2.15-4.25-2.04-.28.02-.48.26-.46.53 0 .28.25.47.52.47z" fill="#010101"/><path d="m223.67 122.28c-.37.66-.31 1.67.65 2.46.09.08.2.11.32.11.15 0 .29-.06.39-.18.17-.21.14-.53-.07-.7-.55-.45-.57-.92-.41-1.19.13-.24.47-.45 1-.26.26.09.55-.04.64-.3s-.04-.55-.3-.64c-1.05-.39-1.87.07-2.22.7z" fill="#010101"/><path d="m220.64 114.6c.1 0 .21-.03.3-.1.06-.04 1.4-1.02 3.37-.27.26.1.55-.03.65-.29s-.03-.55-.29-.65c-2.51-.96-4.26.35-4.33.41-.22.17-.26.48-.09.7.09.13.24.2.39.2z" fill="#010101"/><path d="m229.29 116.22c.02 0 2.19.53 3.05 1.93.09.15.26.24.43.24.09 0 .18-.02.26-.07.23-.15.31-.45.16-.69-1.08-1.75-3.57-2.35-3.68-2.38-.27-.06-.54.1-.6.37-.05.27.11.54.38.6z" fill="#010101"/><path d="m220.4 118.11c-.26-.54-.89-.78-1.41-.53s-.72.89-.46 1.43.89.78 1.41.53.72-.89.46-1.43z" fill="#010101"/><path d="m230.05 122.19c.42-.41.43-1.08.02-1.5s-1.08-.42-1.5-.01-.43 1.09-.02 1.5 1.08.42 1.5.01z" fill="#010101"/><path d="m225.24 130.3c1.7 0 3.18-.98 3.98-2.69.12-.25.01-.55-.24-.66s-.55-.01-.66.24c-.87 1.87-2.51 2.28-3.76 2.05-1.46-.28-3.01-1.52-3.15-3.68-.02-.28-.29-.48-.53-.47-.28.02-.48.26-.47.53.17 2.69 2.12 4.25 3.96 4.6.3.06.59.08.87.08z" fill="#010101"/><path d="m200.1 255.26c.75-.71.76-1.22.64-1.53-.06-.16-.28-.52-.92-.52h-12.99c-.78 0-2 .58-2.79 1.33l-2.51 2.38c-.75.71-.76 1.22-.64 1.53.06.16.28.52.92.52h12.99c.78 0 2-.58 2.79-1.33zm-.69-.72-2.51 2.38c-.65.62-1.63 1.05-2.1 1.05l-12.87-.01c.06-.08.15-.19.28-.32l2.51-2.38c.65-.62 1.63-1.05 2.1-1.05l12.87.01c-.05.08-.14.19-.28.32z" fill="#010101"/><path d="m211.27 229.44c-.07-.16-.31-.53-.95-.53l-12.43-.06s0 0-.01 0c-.79 0-1.86.57-2.49 1.32l-1.92 2.29c-.59.7-.49 1.2-.38 1.44.07.16.31.53.95.53l12.43.06h.01c.79 0 1.86-.57 2.49-1.32l1.92-2.29c.59-.7.49-1.2.38-1.44zm-1.14.8-1.92 2.29c-.48.57-1.29.96-1.72.96l-12.43-.06c-.01 0-.01 0-.02 0 .03-.07.09-.18.21-.33l1.92-2.29c.48-.57 1.3-.94 1.72-.96l12.43.06h.02c-.03.08-.09.19-.21.33z" fill="#010101"/><path d="m224.09 260.66-17.41-.6c-1.1-.05-2.63.74-3.49 1.78l-2.78 3.32c-.56.67-.75 1.33-.51 1.85.11.25.41.66 1.2.69l17.41.6h.08c1.09 0 2.57-.77 3.42-1.78l2.78-3.32c.56-.67.75-1.33.51-1.85-.12-.25-.42-.66-1.21-.69zm-.09 1.9-2.78 3.32c-.67.8-1.92 1.44-2.69 1.42l-17.41-.6c-.21-.01-.3-.06-.32-.1-.03-.06-.02-.34.37-.8l2.78-3.32c.66-.78 1.85-1.42 2.64-1.42h.05l17.41.6c.2.01.3.06.32.1.03.06.02.34-.37.8z" fill="#010101"/><path d="m279.02 233.67-14.87-.1h-.01c-.93 0-2.09.7-2.64 1.6l-1.69 2.75c-.35.56-.41 1.13-.17 1.55.21.37.62.59 1.13.59l14.87.1h.01c.93 0 2.09-.7 2.64-1.6l1.7-2.75c.34-.56.41-1.13.17-1.55-.22-.37-.63-.59-1.14-.59zm.1 1.62-1.7 2.75c-.37.6-1.21 1.13-1.79 1.13 0 0 0 0-.01 0l-14.87-.1c-.13 0-.23-.03-.26-.08-.04-.06-.03-.26.15-.54l1.69-2.75c.37-.6 1.21-1.13 1.79-1.13h.01l14.87.1c.13 0 .23.03.26.08.05.06.04.26-.14.54z" fill="#010101"/><path d="m263.63 227.38-10.3-.04c-.68 0-1.59.48-2.13 1.12l-1.59 1.9c-.52.62-.43 1.07-.33 1.28.07.15.29.49.87.49l10.3.04h.01c.68 0 1.59-.48 2.12-1.12l1.59-1.9c.52-.62.43-1.07.33-1.29-.08-.13-.3-.47-.87-.48zm-.23 1.14-1.59 1.9c-.37.44-1.02.76-1.36.76l-10.17-.05c.02-.04.05-.08.09-.13l1.59-1.9c.37-.44 1.02-.77 1.36-.77l10.17.05c-.02.05-.05.09-.09.14z" fill="#010101"/><path d="m250.39 254.18c-.01 0-.01 0 0 0l-12.59.08c-.78 0-1.85.58-2.48 1.33l-1.92 2.29c-.59.71-.49 1.21-.38 1.44.07.16.31.52.94.52h.01l12.58-.08c.78 0 1.85-.58 2.48-1.33l1.92-2.29c.59-.71.49-1.21.38-1.44-.08-.16-.31-.52-.94-.52zm-.21 1.32-1.92 2.29c-.48.57-1.29.97-1.72.97l-12.58.08c.03-.07.09-.17.21-.32l1.92-2.29c.48-.57 1.29-.97 1.72-.97l12.58-.08c-.04.07-.09.18-.21.32z" fill="#010101"/><path d="m61.07 199.19c-2.9-4.18-6.57-6.8-10.52-7.26-4.04-.47-7.86 1.33-10.95 4.9-4.29 4.93-7.22 13.35-7.38 23.21-.16 9.8 2.43 18.8 6.51 24.68 2.9 4.18 6.57 6.8 10.52 7.26 4.04.47 7.86-1.33 10.95-4.9 4.29-4.93 7.22-13.35 7.38-23.21.17-9.8-2.43-18.8-6.51-24.68zm-11.64 51.3c-8.93-1.04-15.97-14.67-15.71-30.42s7.73-27.69 16.66-26.64c8.93 1.04 15.97 14.67 15.71 30.42-.27 15.75-7.73 27.68-16.66 26.64z" fill="#010101"/><path d="m76.55 118.35c.03 0 .05-.01.07-.01.37.7.99 1.27 1.79 1.54.05.02.11.03.16.03.21 0 .4-.13.47-.34.09-.26-.05-.55-.31-.64-1.16-.4-1.79-1.68-1.39-2.86.09-.26-.05-.55-.31-.63-.26-.09-.54.05-.63.31-.18.52-.2 1.06-.12 1.57-.79-.06-1.53-.39-2.09-.96-.63-.64-.98-1.48-.97-2.38 0-.28-.22-.5-.5-.5-.28 0-.5.22-.5.5 0 1.17.45 2.26 1.26 3.09.83.82 1.91 1.28 3.07 1.28z" fill="#010101"/><path d="m162.21 125.87c.41.27.92.38 1.44.27s.94-.42 1.21-.83.38-.92.26-1.44c-.11-.51-.42-.93-.83-1.2s-.92-.38-1.44-.27-.94.42-1.21.83-.38.92-.26 1.44c.11.51.42.93.83 1.2zm.84-2.49c.49-.1.98.22 1.09.71s-.21.97-.7 1.08c-.49.1-.98-.22-1.09-.71-.1-.5.21-.98.7-1.08z" fill="#010101"/><path d="m164.71 128.1c-.41-.27-.92-.38-1.44-.27s-.94.42-1.21.83-.38.92-.26 1.44c.11.51.42.93.83 1.2s.92.38 1.44.27.94-.42 1.21-.83.38-.92.26-1.44c-.11-.51-.42-.93-.83-1.2zm-.84 2.49c-.49.1-.98-.22-1.09-.71s.21-.97.7-1.08c.49-.1.98.22 1.09.71.1.5-.21.98-.7 1.08z" fill="#010101"/><path d="m165.13 133.53c-.41-.27-.92-.38-1.44-.27s-.94.42-1.21.83-.38.92-.26 1.44c.11.51.42.93.83 1.2s.92.38 1.44.27.94-.42 1.21-.83.38-.92.26-1.44c-.11-.51-.42-.93-.83-1.2zm-.84 2.49c-.49.1-.98-.21-1.09-.71-.11-.49.2-.97.7-1.08.49-.1.98.22 1.09.71.11.5-.21.98-.7 1.08z" fill="#010101"/><path d="m142.58 89.7c-.21-.49-.36-.83-.36-.83s.07.39.36.83z" fill="#010101"/><path d="m76.9 258.46h-12.65c-.71 0-1.86.51-2.68 1.18l-2.57 2.14c-.65.54-.9 1.03-.74 1.46.05.15.24.5.84.5h12.65c.71 0 1.86-.51 2.68-1.18l2.58-2.14c.65-.54.9-1.03.74-1.46-.06-.15-.25-.5-.85-.5zm-.53 1.19-2.58 2.14c-.68.56-1.62.95-2.04.95h-12.31c.05-.05.12-.11.2-.18l2.58-2.14c.68-.56 1.62-.95 2.04-.95h12.31c-.06.05-.13.11-.2.18z" fill="#010101"/><path d="m259.11 242.07c-.56-.31-7.49-1.7-9.71-2.13-.26-.05-.46-.25-.51-.5-.91-4.25-1.6-9.09-2.12-14.04h32.2c.41 0 .75-.34.75-.75s-.34-.75-.75-.75h-32.35c-.57-5.79-.91-11.67-1.1-16.89 2.39-.51 4.6-1.16 6.54-1.96.63-.26.99-.93.89-1.61l-.67-4.33c.3-.13.59-.34.85-.68.09-.12.17-.25.26-.41l.04.01c.53.18 1.01.13 1.45-.07.42-.2.84-.58 1.12-1.25.03-.06.04-.14.06-.21h5.72c-.03 1.09-.05 1.82-.05 1.82-.01.41.15.8.43 1.09.29.29.68.45 1.09.44l6.61-.1c.43-.01.83-.19 1.11-.52.28-.32.41-.75.35-1.17-.07-.51-.12-1.04-.17-1.57h7.82c.41 0 .75-.34.75-.75s-.34-.75-.75-.75h-7.96c-.06-.59-.12-1.19-.19-1.81 1.19-.46 2.27-1.13 3.12-2.03 2.18 0 4.46-.94 6.17-2.79 3.06-3.32 3.02-8.19.08-10.88-.26-.24-.53-.45-.81-.64 1.94-3.5 1.59-7.57-.94-9.88-2.06-1.88-5.14-2.24-8.01-1.11-.43-1.35-1.24-2.37-2.33-2.93-1.34-.68-3-.62-4.71.19-1.88.9-3.87 2.75-5.39 5.26h-.05c-1.24 0-2.44.59-3.42 1.7-.35.4-.66.87-.94 1.39-.27-3.95-.52-7.71-.61-9.06.89-.04 1.67-.4 2.36-1.26.36-.45.4-1.09.16-1.61-2.33-5.2-3.95-10.11-6.07-14.08-1.72-3.22-3.77-5.86-6.66-7.65-.48-.29-.98-.56-1.51-.8-.39-.18-1.49-.7-1.66-.77-.32-.13-.65-.25-.98-.36-.49-.16-1-.31-1.5-.45.12-.88.25-1.91.36-2.76 1.77-.93 3.31-2.13 4.59-3.58 1.45.45 2.79.3 4.11-.55 1.67-1.07 2.57-2.49 2.78-3.6.14-.75.01-1.42-.3-1.96-.33-.55-.83-.99-1.45-1.24.71-1.97 1.15-4.13 1.31-6.2.94-.45 1.73-1.3 1.93-2.58.02-.12.03-.24.05-.36 0 .07.02.14.02.21-.13 7.52-1.87 14.88-1.97 19.56-.05 2.53.44 4.4 1.46 5.44.48.49 1.24.59 1.83.24.51-.3.79-.86.73-1.44.09-.19.48-1.06.91-1.72 1.84-2.9 5.35-7.19 6.71-9.41 4.53-7.41 4.89-13.52 3.34-17.6-1.29-3.37-3.87-5.47-6.77-6.04-2.75-.54-5.82.3-8.38 2.85-.58-.62-1.22-1-1.83-1.21-.75-.26-1.47-.28-2.06-.22-.84-.91-1.85-1.78-3.04-2.49-2.21-1.32-5.06-2.24-7.87-2.59-.24-.66-.65-1.29-1.21-1.75-.21-.64-.56-1.32-1.15-2.03-1.98-2.4-7.03-4.81-11.83-2.9-2 .8-3.98 2.34-5.64 5.01-8.83 14.24-1.76 28.7-1.76 28.7.3.62.99.95 1.66.81s1.16-.73 1.19-1.41c.06-1.58.26-3.15.6-4.7.11.22.24.42.37.61-.49 1.72-.36 3.55.22 5.35 1.21 3.76 4.38 7.34 6.98 9.04.22.14.48.23.74.24.14.01.28 0 .42.01-.7.09-1.47.18-2.06.29-.19.03-2.13.53-2.49.63-1.76.51-3.27 1.2-4.58 2.04-3.57 2.31-5.76 5.71-7.76 9.53-1.58 3.02-3.06 6.3-5.17 9.41-.34.5-.36 1.17-.01 1.67.62.9 1.4 1.59 2.29 2.09 0 .01-.01.02-.01.02l-1.88 21.35c-.96 1.39-2.31 3.53-3.33 8.88-.26 1.33-.16 2.27.02 2.77.22.62.61.95.97 1.12h-14.02l-1.07-9.19c.45-.13.88-.3 1.23-.55 1.32-.9 2.07-2.51 2.34-4.43.48-3.45-.58-7.91-.82-8.87-.07-3.2-.08-18.43-2.02-30.13 1.4-.83 2.67-1.88 3.46-3.15.27-.43.3-.98.08-1.44-3.9-8.17-7.98-16.48-12.34-21.7-2.7-3.23-5.57-5.28-8.53-5.72-.04-.03-.06-.08-.1-.11-.01-.01-.03-.02-.04-.02 5.56-2.34 9.19-5.65 11.31-9.39 2.78-4.9 3.04-10.57 1.68-15.9-1.98-7.81-7.44-14.87-13.13-17.67-1.85-.91-3.73-1.37-5.55-1.33-1.65-.21-3.18.03-4.52.76-1.97-.59-7.58-1.84-12.73.94-1.43.77-2.83 1.85-4.1 3.34-.22.2-.43.39-.64.6-3.97 3.98-6.88 10.01-7.62 17.69-.61 6.33 1.38 13.13 6.36 17.75 2.2 2.04 4.99 3.66 8.41 4.62-3.07 1.23-5.65 3.51-7.86 6.46-5.38 7.15-8.53 18.29-11.86 25.92-.29.67-.06 1.46.56 1.86 1.01.66 2.37 1.24 3.89 1.73-.02.08-.05.17-.06.25l-3.04 26.37-4.08 5.21c-.03.04-.07.09-.1.14-1.17 1.9-1.5 3.62-1.45 4.74.04.74.25 1.3.49 1.65.13.19.27.34.42.46.07.89.38 1.62.75 2.11.38.5.85.81 1.31.95.1.03.21.06.32.08.09.34.2.63.33.87.45.84 1.12 1.25 1.8 1.38.54.1 1.12.01 1.69-.31.24-.14.5-.34.74-.6.04.01.09.02.13.03.96.43 2.12.27 3.04-.79.56-.65.89-1.57 1.13-2.85.13-.67.25-1.46.44-2.4.25.33.49.57.71.75.96.8 1.81.77 2.43.55.72-.26 1.28-.92 1.47-1.77.14-.64.02-1.18-.28-1.71-.11-.2-.26-.4-.43-.62-.18-.23-.41-.49-.52-.92-.25-1.01-.38-2.37-.78-3.61-.25-.78-.61-1.51-1.1-2.14 0 0 4.6-25.94 4.54-26.14.35.01.57.03.89.02l-2.32 27.14c-.06.74.43 1.42 1.16 1.59.48.11.97.2 1.46.29l-.89 17.25h-16.71c-.17-3.54-1.94-6.74-4.75-8.89.6-.78 1.14-1.76 1.43-2.75.32-1.07.34-2.13.01-3.01-1.81-4.76-6.26-5.89-9.92-5.07l-.45-1.12c.6-.3 1-.5 1-.5.73-.37 1.03-1.26.67-1.99-1.5-3.1-2.97-6.19-4.43-9.1l-.55-30.39c1.37-.85 2.3-2.36 2.31-4.11 0-.99-.29-1.92-.8-2.69.3-.52.48-1.13.48-1.77 0-1.53-.97-2.81-2.32-3.31.19-.54.31-1.1.31-1.7 0-1.32-.48-2.53-1.27-3.46.4-.74.63-1.59.63-2.49.01-2.69-1.99-4.92-4.6-5.27-.93-1.54-2.62-2.57-4.55-2.57-.33 0-.65.03-.96.08-.51-.43-1.1-.76-1.75-.98-.52-2.26-2.45-3.98-4.81-4.18-.94-1.58-2.66-2.64-4.63-2.65-1.13 0-2.18.34-3.05.94-.49-.19-1.03-.3-1.59-.3-1.87 0-3.48 1.16-4.13 2.81h-.05c-1.56 0-2.94.81-3.73 2.04-.26-.04-.53-.07-.81-.07-1.8 0-3.39.93-4.31 2.34-.18-.02-.35-.03-.54-.03-2.52-.01-4.63 1.83-5.06 4.24-1.3.76-2.17 2.16-2.18 3.78 0 .09 0 .17.01.26-1.37.99-2.28 2.64-2.28 4.53 0 .73.13 1.42.37 2.05-1.37.9-2.29 2.49-2.29 4.32 0 1.46.58 2.76 1.51 3.69-.25.58-.39 1.23-.39 1.9 0 1.61.78 3.04 1.98 3.93 0 .07-.01.15-.01.23 0 .23.02.45.05.67l-4.32.22-.06-3.24c-.01-.74-.28-1.43-.72-1.99-.08-.23-.25-.41-.48-.48-.39-.33-.86-.58-1.39-.71-.01 0-.02-.01-.03-.01l-12.41-2.76c-.58-.14-1.16-.02-1.7.4-.52.41-1.05 1.3-1.31 2.29s-.22 2.03.05 2.64c.28.64.75 1.02 1.35 1.17.01 0 .02.01.03.01l9.85 2.17.18 10.16c-2.8-2.03-6.25-3.26-9.78-3.26-6.08 0-11.46 4.48-12.29 9.78-5.33-.01-9.63 3.22-11.16 9.33-.75 3.01-.09 6.66 1.38 9.88 1.12 2.47 2.71 4.66 4.41 6.12-.95 1.31-1.33 2.93-1.18 4.62.44 5.03 5.73 10.66 13.83 7.72.02-.01.05-.01.07-.02-.33 2.31-.57 4.51-.72 6.56h-17.85c-.41 0-.75.34-.75.75s.34.75.75.75h17.76c0 .06-.01.11-.01.17-.01.24.04.47.14.68-3.34 5.65-5.45 13.24-5.59 21.79-.03 1.61.03 3.19.14 4.76h-12.44c-.41 0-.75.34-.75.75s.34.75.75.75h12.57c.48 4.91 1.59 9.54 3.22 13.64h-7.98c-.7 0-1.77.52-2.42 1.01l-2.43 1.82c-.66.49-.91.93-.77 1.34.05.14.22.47.77.47h12.97c.49 0 1.15-.26 1.73-.58.91 1.73 1.92 3.33 3.01 4.77.66.87 1.35 1.67 2.07 2.42h-4.51c-.97 0-2.65.75-3.72 1.48l-4.09 2.79c-1.01.69-1.43 1.27-1.27 1.78.06.2.26.53.9.53h18.63c.76 0 1.95-.46 2.94-1.01.73.2 1.48.35 2.23.44.57.07 1.14.1 1.71.1.73.2 1.47.35 2.22.44 5.04.59 9.77-1.44 13.63-5.42 5.36-5.53 9.03-14.92 9.41-26h7.56c.01 2.54.02 4.79.02 6.5-.56.12-1.13.26-1.73.46-.17.06-.33.15-.5.25-1.45.22-2.79.99-3.92 2.24-1.98 2.22-3.3 6.06-3.22 10.63.08 4.47 1.47 8.61 3.49 11.36 1.52 2.05 3.41 3.35 5.38 3.64.54.08 1.07.08 1.58.02 5.25.52 11.84-2.74 13.07-10.57l12.76-3.42c.44 1.14.97 2.18 1.56 3.07.64.94 1.35 1.71 2.12 2.31l-1.84 1.27c-.93.65-1.32 1.2-1.16 1.68.05.16.23.52.87.52h18.84c.9 0 2.46-.7 3.44-1.38l3.73-2.58c.93-.65 1.31-1.2 1.16-1.68-.05-.16-.23-.52-.87-.52h-9.01c1.87-2.46 2.88-5.86 2.67-9.87-.28-5.22-1.76-8.96-3.71-11.24-1.08-1.26-2.31-2.1-3.6-2.55 0-.04 0-.1 0-.14h15.3l-.35 6.86c-.02.35.09.7.31.99.92 1.21 2.37 2.16 4.08 2.83l-.14 1.9v.15c.01.31.04.61.08.89-.45.26-.91.63-1.33 1.14-1.25 1.51-2.25 4.18-1.7 7.18.04.2.11.39.22.56 2.26 3.61 4.65 6.64 7.04 8.66 1.72 1.45 3.47 2.39 5.18 2.73 3.65 1.14 8.69.06 11.13-1.95 1.44-1.19 2.08-2.69 1.73-4.24-.07-.31-.28-.77-.82-1.25-.77-.68-2.76-1.89-5.18-3.87 0 0-6.01-7.07-6.01-7.07-.1-.12-.23-.21-.36-.29l.12-.87h9.73c.79 0 1.85-.57 2.49-1.32l1.92-2.29c.59-.7.49-1.21.38-1.44-.07-.16-.31-.52-.95-.52h-7.64c.15-.32.25-.65.29-1l.78-7.78h7.65l1.81 10.63c.1.61.57 1.09 1.17 1.22 1.12.23 2.6.3 4.24.22l1.31 4.11c.04.13.11.25.19.37-.04.08-.08.16-.1.25-.33 1.4 0 4.54.48 6.49 0-.01.01-.01.02-.02-.06.33-.14 1.01-.02 1.59.13.59.44 1.08.9 1.39.33.22.75.38 1.31.35 2.73-.13 5.75-.37 8.63-.74 3.36-.42 6.55-1.01 8.9-1.76 3.25-1.04 6.01-2.46 7.54-4.12 1.3-1.42 1.82-3.02 1.38-4.75-.19-.75-.61-1.43-.98-1.9-.28-.36-.61-.84-2.09-.94-.59-.04-1.32-.11-2.16-.19-1.31-.13-2.38-.09-2.96-.04-2.64-.15-7.1-.5-11.91-.46l-.36-1.97c1.06-.49 2.02-1.06 2.82-1.71.4-.32.6-.83.54-1.34l-.77-6.66h24.73c.82 5.62 1.9 10.71 2.84 13.96-1.26 1.88-1.69 4.87-.02 6.92 3.6 4.45 7.86 6.16 10.43 6.54 1.58.23 2.7-.11 3.15-.46.89-.69 1.26-1.65 1.15-2.82-.07-.79-.41-1.71-.95-2.68-.69-1.24-2.27-3.11-3.58-4.54-1.09-1.2-1.82-1.84-1.72-1.71-.49-.42-1.01-.86-1.55-1.35-.17-4.34-.12-9.06.09-13.84h12.18c0-.03 0-.05 0-.08 1.91 6.72 4.18 12.82 5.85 16.12.07.13.08.28.05.43-.42 1.83-.42 3.29-.19 4.31.15.7.41 1.25.72 1.65.42.56 1.12.84 1.82.81 8.05-.4 12.63-1.08 14.72-1.97.77-.33 1.29-1.07 1.31-1.9.02-.62-.1-1.12-.35-1.57-.27-.48-.63-.86-1.24-1.19zm-134.56-46.46c-.05 7.74-.2 24.72-.25 28.72-.01.55.1 2.05-.26 2.49-.34.41-1.02.49-1.3.49-.5-.01-1.26 0-1.63-.26-.63-.44-.55-2.16-.55-2.28.03-4.17.08-11.13.12-17.87.79-3 1.22-6.02.96-9.09.02-.74-.25-1.49-.88-2.19.02-3.24-2.27-6.07-5.6-6.95-1.48-.39-3.12-.82-4.83-1.26-.15-.33-.32-.65-.46-.99.14.09.28.17.41.22.42.16.83.16 1.21.04.47.47.99.68 1.48.72.38.03.76-.03 1.14-.21.28.37.59.59.89.72.67.29 1.45.24 2.22-.36.38.29.83.42 1.34.39.46-.03 1.06-.28 1.66-.76 2.69 2 4.35 5.06 4.33 8.43zm-9.9 28.28c.85-2.81 1.96-5.59 3.05-8.35.5-1.27.99-2.54 1.45-3.81-.03 5.09-.07 9.87-.09 13.03-.03-.28-.05-.55-.04-.83 0-.02 0-.03 0-.05h-4.37zm4.24 1.5c-.05.01-.09.02-.13.03-.47.12-.87.3-1.24.5-1.41.12-2.73.79-3.86 1.97.15-.84.35-1.67.57-2.5zm-7.17 7.08c-2.29-1.57-5.16-.67-6.27-.22.11-4.78 2.66-12.33 4.94-19.03 1.35-3.99 2.63-7.76 3.34-10.73 1.07-4.53-3.06-5.96-7.05-7.35-.68-.24-1.36-.48-2.04-.74 1.34-.22 2.86-.34 4.56-.46.12 0 .21-.09.21-.2s-.1-.19-.22-.19c-1.99-.09-3.78-.15-5.3-.02-.39.03-.76.08-1.12.15-.12-.01-.24.03-.35.08-.81.17-1.53.43-2.14.8-.33.23-.4.66-.15.96s.72.36 1.05.14c.32-.25.7-.46 1.12-.63.04.03.07.06.12.09 1.21.56 2.51 1.01 3.77 1.45 4.24 1.47 6.8 2.53 6.08 5.58-.69 2.9-1.96 6.64-3.3 10.6-2.3 6.77-4.88 14.39-5.02 19.42-2.49-.53-5.16.4-8.36 3.39-.28-.37-.58-.71-.9-1.04-.38-3.33-1.13-11.01-.91-18.02.16-5.37 1.22-10.54 2.59-12.53-1.03-1.03-2.9-1.46-4.98-1.66 0-.37 0-.75 0-1.11-.01-2.13-.56-4.17-1.55-5.96 4.53-2.4 8.97-5.28 20.35-2.86.27.06.54.03.79-.05 4.71 1.88 9.34 3.55 9.17 5.52 1.03 11.62-8.46 22.56-8.43 34.62zm3.35 7.06c1.55-.32 2.85-.47 3.61-.41.23-.05.46-.08.68-.1.03.02.06.06.09.08l-4.18 1.15c.01-.07.01-.14.01-.19-.01-.17-.06-.36-.21-.53zm-1.16-1.08c-.67-.95-1.7-1.65-3.31-1.93 5.39-1.68 7.45-.82 8.22 1.3-1.19-.09-3 .18-4.91.63zm-4.38-2.96c-.09.03-.17.07-.25.12-.53.31-1.05.59-1.63.84-.8.07-1.69.21-2.68.41l-1.02-3.14c.17.05.33.08.5.14.4.15.84.12 1.21-.07 0 0 1.13-.57 2.55-.69.82-.07 1.75.03 2.57.56l.15 1.4c-.44.13-.9.27-1.4.43zm-16.49-2.35c-.49-.32-1-.61-1.55-.84-.02-4.17-.04-12.05-.07-19.65l1.16-.24c-.15 1.3-.26 2.66-.3 4.03-.18 6.17.36 12.84.76 16.7zm-.25-22.3-1.37.28c0-1.45-.01-2.89-.01-4.27l2.4-.66c-.41 1.34-.76 2.92-1.02 4.65zm-1.39-5.54c0-.5 0-.99-.01-1.47.35.03.71.06 1.04.12.74.12 1.42.26 1.99.51 0 .01-.01.02-.01.02zm19.86-16.1c1.23.32 2.43.64 3.53.92 2.18.57 3.79 2.18 4.29 4.17-.42-.26-.87-.52-1.37-.77-1.6-.8-3.65-1.59-5.73-2.42.04-.34-.01-.68-.19-.98-.2-.29-.36-.61-.53-.92zm1.29-12.32c3.11-.92 7.17-.16 8.75 4 1.13 2.97-4.7 9.19-3.27 2.78-1.22 2.75-3.13 5.21-3.42-.76-.37 4.16-2.67 3.95-3.06-.24.31 5.55-2.76.89-2.42-1.62.32-2.28 1.31-3.53 3.42-4.16zm-4.94 2.87c-.24-.93-.48-1.88-.69-2.87 0 0 2.24-1.13 4.07-2.05l.36.9c-1.22.48-2.73 1.53-3.74 4.02zm.52 4.2c-1.19.13-2.32-.2-2.79-1.23-.23-.51 1.02-.56 2.28-1.19.02.79.22 1.65.51 2.42zm4.52-11.64-6.15 3.1c-.56-2.44-2.38-9.47-4.19-14.8-1.03-3.03-2.05-5.51-2.82-6.3-.08-.09-.22-.09-.3-.01-.09.08-.09.22-.01.3.71.8 1.57 3.25 2.42 6.23 1.68 5.88 3.3 13.81 3.55 15.44.03.14.1.26.19.36.28 1.33.58 2.62.92 3.86-.56.2-1.05.33-1.35.48-.56.28-.85.67-.99 1.03-.15.4-.18.84.05 1.35.67 1.47 2.2 2.15 3.88 2.11.77 1.99 1.64 3.83 2.63 5.45-12.05-2.56-16.68.54-21.47 3.06-1.69-2.36-4.19-4.16-7.19-4.98-2.1-.57-4.51-1.23-6.99-1.9-.1-2.18-.14-4.32-.22-6.53.05-.11.08-.22.07-.35-.13-1.56-.79-10.83-.54-17.84.12-3.39.44-6.24 1.15-7.41.06-.1.03-.23-.06-.29-.1-.06-.23-.03-.29.07-.79 1.18-1.27 4.11-1.54 7.6-.34 4.34-.36 9.55-.31 13.29-4.14-.52-6.05-.93-11.81-3.02 2.15-6.65 4.93-22.06 14.22-25.75.66.34 1.39.55 2.18.55.32 0 .63-.05.94-.11.01.19.06.39.15.56 2.39 4.78 7.86 6.36 11.12 5.47 1.38-.38 2.41-1.18 2.94-2.25.44-.91.56-2.08.05-3.47 0 0 .02-.05.05-.12.75-.17 1.48-.41 2.19-.68 6.41 1.52 11.69 13.45 17.53 25.5zm-36.86 23.92c-.12-.7-.22-1.37-.31-2.04 2.69.73 4.54 1.24 4.54 1.24.75.2 1.43.55 2.03.98-1.76.24-3.79.23-6.26-.18zm7.61 1.49c.74 1 1.19 2.21 1.19 3.51v.8c-3.3-.27-5.88-1.74-7.06-4.06 2.28.21 4.19.09 5.87-.25zm-7.85-.01c.08.01.16.02.25.04.13.38.28.74.47 1.09 1.44 2.66 4.48 4.41 8.34 4.7v.57l-13.25-4.53c-.81-1.46-1.7-2.82-2.64-4.06-.05-.07-.1-.13-.16-.2l5.54-.19c.06.45.14.9.22 1.36.11.63.6 1.12 1.23 1.22zm9.06 7.98c0 1.38.01 2.82.02 4.29l-10.21-3.45c-.6-1.76-1.29-3.45-2.06-5.03 3.91 1.34 8.77 3 12.25 4.19zm-17.28-11.83c-.74-.82-1.5-1.59-2.29-2.28.16-.02.32-.05.48-.1.28.08.56.15.84.23.17.12.34.21.51.27.28.1.57.13.87.1 2 .54 3.98 1.08 5.76 1.57zm2.32-6.3c-1.05 2.81-2.82 5.39-3.46-.56-.12 4.18-2.43 4.11-3.07-.06.63 5.53-2.71 1.05-2.51-1.48.18-2.29 1.09-3.59 3.16-4.34 3.05-1.1 7.15-.59 8.97 3.47 1.31 2.9-4.13 9.45-3.09 2.97zm-5.09-8.22.59-3.84c2.42.75 4.11 1.1 6.35 1.41l-.61 3.33c-1.93-1.16-4.24-1.35-6.33-.9zm7.68 1.93.74-4.07c.11 1.79.17 3.5.22 5.18-.3-.41-.62-.78-.96-1.11zm33.72-48.42c.18.02.36.06.54.06.36 0 .7-.04 1.03-.12l.48 26.74c-1.1-2.09-2.2-4.04-3.32-5.79l-.51-15.31c.87-1.71 1.48-3.59 1.78-5.58zm-.58-8.56c.61-.1 1.16 0 1.52.34.8.75.43 2.36-.79 3.7-.11-1.39-.35-2.75-.73-4.04zm-16.2 22.31c-8.35-.02-15.52-6.7-16.91-15.32.24-.19.48-.39.69-.61 3-.12 5.44-2.35 5.89-5.21 1.61-.6 2.9-1.85 3.55-3.42 1.67-.08 3.1-1.1 3.79-2.54.25.05.51.07.78.07.52 0 1.02-.09 1.49-.25.93 1.23 2.4 2.02 4.05 2.02 1.54 0 2.93-.69 3.88-1.78.67.42 1.44.69 2.27.78.73 2.07 2.7 3.55 5.02 3.56.07 0 .14-.01.22-.01.56 1.65.92 3.4.99 5.22.39 9.67-6.65 17.51-15.71 17.49zm13.94 4.83c-.33-.45-.66-.89-1-1.29-1.62-1.98-3.32-3.42-5.07-4.24 2.25-1.23 4.2-2.98 5.71-5.1zm-22.51-5.85c2.58 1.47 5.5 2.31 8.57 2.32.73 0 1.45-.06 2.16-.15 2.49 5.58-7.86 6.1-11.21-.58zm27.53-24.11c.91.28 1.58 1.12 1.57 2.13 0 .73-.35 1.38-.89 1.78.74.65 1.21 1.61 1.21 2.68 0 1.96-1.59 3.54-3.53 3.54-.13 0-.26-.01-.39-.03.04-.51.06-1.03.07-1.55.21-.16.42-.32.61-.51 1.1-1.08 1.71-2.35 1.82-3.41.1-.99-.2-1.84-.81-2.42-.34-.32-.77-.53-1.25-.65.63-.4 1.17-.93 1.59-1.56zm-49.22 2.53c0-1.46.83-2.71 2.01-3.28.39.3.84.51 1.34.6.2.04.39.05.59.05.65 0 1.28-.2 1.83-.58.23-.16.28-.47.13-.7-.16-.23-.47-.28-.7-.13-.49.34-1.08.47-1.66.36-.34-.06-.65-.21-.93-.42-.43-.65-.69-1.44-.69-2.3 0-1.72 1.03-3.19 2.46-3.76-.12-.32-.19-.67-.19-1.03 0-1.32.89-2.43 2.1-2.77 0-.03 0-.07 0-.11 0-2.02 1.64-3.66 3.64-3.65.15 0 .3.03.44.04-.26 1.48.53 2.99 1.96 3.58.06.03.13.04.19.04.2 0 .38-.12.46-.31.1-.26-.02-.55-.27-.65-1.11-.45-1.66-1.72-1.25-2.85.57-1.28 1.84-2.17 3.31-2.16.6 0 1.16.15 1.66.41.27-1.36 1.46-2.38 2.88-2.38.45 0 .87.1 1.25.28 0-.05 0-.1 0-.15 0-1.63 1.32-2.95 2.94-2.95.67 0 1.29.23 1.78.61.72-.77 1.73-1.25 2.86-1.25 1.65 0 3.06 1.05 3.62 2.51.01.03.01.06.02.08.5 1.14-.02 2.47-1.14 2.97-.25.11-.37.41-.25.66.08.19.27.3.46.3.07 0 .14-.01.2-.04 1.47-.65 2.2-2.28 1.81-3.79 1.57.22 2.83 1.38 3.23 2.9-1.63.28-2.81 1.76-2.68 3.44.02.26.24.46.5.46h.04c.28-.02.48-.26.46-.54-.09-1.16.71-2.17 1.82-2.38.52.04 1 .19 1.44.41.48.24.89.59 1.23 1 .43-.17.91-.26 1.4-.26 1.66 0 3.07 1.06 3.6 2.53h.05c.32.96-.04 2.05-.92 2.61-.23.15-.3.46-.15.69.09.15.26.23.42.23.09 0 .18-.02.27-.08 1.15-.73 1.68-2.08 1.44-3.35 1.69.4 2.95 1.91 2.94 3.71 0 1.06-.44 2.03-1.15 2.72 1.08.68 1.8 1.88 1.79 3.24 0 2.1-1.72 3.81-3.84 3.8-2.03 0-3.7-1.59-3.81-3.59-.22.04-.44.06-.67.06-.9 0-1.73-.32-2.38-.84.28-.66.28-1.55-.02-2.4-.09-.26-.38-.4-.64-.3-.26.09-.4.38-.3.64.15.42.19.85.14 1.23-.43 1.54-1.83 2.66-3.48 2.66-1.39 0-2.58-.8-3.19-1.96-.01-.07-.03-.13-.07-.19-.04-.07-.08-.15-.11-.23s-.07-.16-.09-.24c0 0-.01.01-.01.01-.36-.99-.21-2.29.62-2.92.22-.17.26-.48.1-.7-.17-.22-.48-.26-.7-.1-1.32 1-1.48 2.91-.86 4.3-.37.17-.79.28-1.22.27-.71 0-1.36-.26-1.86-.68 0 .07.01.14.01.21 0 1.63-1.32 2.95-2.94 2.95-.3 0-.59-.05-.87-.13-.31 1.99-1.89 3.56-3.9 3.89 0 .08.01.16.01.24-.01 2.56-2.13 4.64-4.73 4.64-.14 0-.27-.01-.41-.02-.86 1.18-2.27 1.95-3.85 1.94-2.32 0-4.25-1.66-4.64-3.83-.45.23-.94.35-1.47.35-1.9 0-3.42-1.63-3.41-3.62zm13.28 11.83c-.54-.05-1.13-.2-1.71-.47-1.44-.66-2.41-1.8-2.5-2.8.14.01.29.03.43.03.95 0 1.85-.21 2.65-.59.25 1.34.63 2.61 1.13 3.83zm-13.27-8.14c.3.3.64.55 1 .76-.4-.14-.75-.41-1-.76zm.9 1.9c0-.38.08-.74.19-1.09.69.38 1.46.62 2.28.62.17 0 .34-.01.51-.03.75 1.56 2.16 2.76 3.87 3.25-.01.51.1 1.05.37 1.58.5.99 1.53 1.99 2.9 2.62.99.46 1.96.62 2.82.58 1.52 3.1 3.78 5.74 6.53 7.63l-.33 1.09c-.39.16-.82.25-1.26.25-1.33 0-2.49-.75-3.09-1.86-.59.45-1.33.72-2.13.72-1.71 0-3.14-1.24-3.45-2.88-.54.33-1.17.52-1.84.52-1.94 0-3.52-1.6-3.51-3.55 0-.71.21-1.37.57-1.92-1.42-.46-2.44-1.8-2.43-3.38 0-.31.04-.62.12-.9-1.26-.55-2.12-1.8-2.12-3.25zm1.18 6.3c.36.73.89 1.36 1.55 1.82-.12.42-.19.86-.19 1.32-.01 2.68 2.15 4.85 4.81 4.86.37 0 .74-.04 1.09-.12.82 1.48 2.4 2.48 4.2 2.48.33 0 .66-.04.97-.1-2.15 1.2-3.97 2.98-5.49 5.12-4.54 6.36-6.5 15.95-8.09 20.86-.25.77.16 1.6.92 1.87 1.1.4 2.06.73 2.93 1.02l-.74 4.8c-1.68.67-2.74 1.67-3.32 3.12-1.16-.31-2.04-.56-2.55-.69l-.83-46.13zm-4.8 47.68s1.17.32 3.03.83c-.05.3-.09.61-.12.95-.07.92.2 2.03.62 3.01-2.75-.75-4.56-1.24-4.56-1.24-2.43-.47-1.98-4.09 1.03-3.55zm-1.84-53.09c.18.28.3.59.31.94l.91 50.61c-1.52 0-2.53.77-3.05 1.7-.57 1.02-.56 2.31.04 3.32-.23-.04-.46-.08-.69-.11l-.96-53.1c.02-.03.04-.06.06-.1.93-2.29 2.57-3.03 3.38-3.26zm-14.47-.01c-1.01-.25-.09-3.82.92-3.57l11.9 2.65c-.96.52-2.08 1.46-2.89 3.1zm-5.59 56.57c-9.83 3.57-14.94-7.48-9.84-11.12-4.05-2.3-7.98-10.02-6.62-15.44 1.47-5.86 5.82-8.73 11.1-8.11-.11-5.21 5.06-9.86 10.9-9.86 3.6 0 7.13 1.38 9.81 3.64l.71 39.21c-1.19 1.03-2.52 1.67-3.9 1.67l-.98-12.61c.59-.83 1.69-2.61 2.26-4.92.35-1.4-.17-2.12-.57-2.44-.41-.33-1-.52-1.75-.33-.44.11-1.05.43-1.65.86l-.01.01c-.28-2.01-.77-4.63-1.5-6.3-.68-1.54-1.57-1.95-2.11-2.01-.72-.07-1.68.33-2.24 1.65-.59 1.41-.96 4.44-1.16 6.68-.49-.31-1.02-.6-1.53-.83-1.12-.49-2.22-.59-2.99-.28-1.02.4-1.65 1.49-.77 3.14.93 1.74 4.28 5.01 5.7 6.35-.91 4.2-1.66 8.15-2.19 11.83-.02-.1-.04-.19-.04-.29 0-.25.06-.51.17-.74-.28.07-.55.15-.8.24zm10.69.62c-2.54.9-4.91 2.47-7.01 4.65-.81.84-1.58 1.78-2.31 2.79.39-5.62 1.51-12.26 3.14-19.62 0 0-7.66-6.93-6.03-7.58 1.6-.63 5.26 2.51 5.26 2.51s.63-13.54 2.84-8.51c1.25 2.84 1.71 8.64 1.71 8.64s4.39-4.26 3.69-1.4c-.71 2.86-2.34 4.83-2.34 4.83zm-12.76 55.01h-12.38s.01-.01.01-.01l2.43-1.82c.62-.46 1.47-.81 1.82-.81h8.39c.32.74.65 1.47.99 2.17-.49.28-1.01.47-1.26.47zm12.74 13.18-18.3-.01c.13-.13.33-.29.6-.47l4.09-2.79c1.13-.77 2.57-1.31 3.16-1.31h5.53c1.99 1.86 4.17 3.26 6.48 4.12-.65.29-1.24.46-1.56.46zm5.34-1.06c-11.46-1.34-20.51-17.3-20.21-35.63.31-18.33 9.86-32.12 21.32-30.79 11.46 1.34 20.51 17.3 20.21 35.63-.31 18.33-9.86 32.12-21.32 30.79zm6.28.79c2.6-.89 5.02-2.5 7.17-4.73 5.47-5.66 9.18-15.38 9.37-26.82.19-11.37-3.14-21.85-8.36-28.72-1.76-2.31-3.73-4.2-5.86-5.62.62.17 1.28.35 1.99.54.03.02.06.03.08.05.39.38.78.63 1.1.72.03.01.07.01.1.01 8.18 5.51 13.9 18.7 13.66 33.4-.29 17.25-8.71 30.52-19.25 31.17zm20.54-31.69c.04-5.52-.76-10.81-2.18-15.58l9.61 3.25c-.01-.25.02-.5.05-.75.02 4.42.03 9.05.04 13.09h-7.52zm3.28-29.91c-2.71-.74-5.92-1.61-9.13-2.48.37-.2.76-.49 1.12-.9.51-.57 1.01-1.37 1.39-2.23 2.7.74 5.35 1.46 7.64 2.08 4.98 1.35 8.42 5.75 8.44 10.77.04 9.72.09 25.7.11 31.71.01 1.39-3.78 1.29-3.79-.27-.02-6.25-.07-21.85-.11-31.42-.01-3.39-2.33-6.35-5.67-7.26zm4.01 65.01c-4.07-.6-7.47-6.66-7.59-13.54-.12-6.87 3.08-11.97 7.14-11.37s7.47 6.66 7.59 13.54c.13 6.87-3.07 11.96-7.14 11.37zm4.89-.23c.18-.17.36-.34.53-.53 1.98-2.22 3.3-6.06 3.22-10.63-.08-4.47-1.47-8.61-3.49-11.36-.23-.31-.48-.6-.72-.88 1.15-.14 2.02-.72 2.4-1.49 4.36 2.06 6.29 7.77 6.32 13.3.04 6.83-4.02 10.56-8.26 11.59zm7.56-22.33c2.11-1.92 3.94-2.85 5.65-2.89l1.17 3.61c-.31.08-.63.15-.96.24-.08.02-.17.05-.25.09-1.37.7-2.71 1.19-4.86 1.69zm1.82 6.75c-.16-.94-.37-1.87-.65-2.76 2.21-.52 3.61-1.04 5.04-1.77 5.39-1.47 8.07-1.18 9.4.16-.38.1-.75.21-1.12.32h.12c-2.5.33-6.01 1.24-9.22 2.45-1.6.61-2.75 1.14-3.57 1.6zm.22 1.44c.71-.43 1.9-1.03 3.8-1.75 4.06-1.53 8.93-2.64 10.83-2.48-.12.09-.29.21-.5.33.03.02.07.04.1.07.01.01.01.02.02.03l-14.24 3.93c.01-.04 0-.08-.01-.13zm.11 3.76c.02-.4.05-.81.05-1.23 0-.31-.02-.62-.03-.92l21.13-5.84c1.33-.28 1.54 1.74.43 2.21zm14.05-2.28 7.93-2.13c.07-.02.14-.04.21-.07 1.19-.5 1.78-1.78 1.6-2.91-.12-.76-.56-1.41-1.19-1.76-.34-.19-.74-.3-1.21-.3 0-.02.01-.05.01-.07-.01-.12-.05-.27-.15-.42 0-.1 0-.2-.03-.31-.25-1.07-.7-1.95-1.4-2.6-.81-.74-1.96-1.22-3.69-1.2-.82.01-1.81.15-2.96.41l-.09-.83c.1-.03.21-.06.3-.11.49-.26.8-.77.8-1.33 0-.48.04-.95.06-1.42 1.27-2.51 3.18-3.94 5.31-3.59 3.78.63 6.81 6.58 6.77 13.28s-3.14 11.63-6.92 11.01c-2.18-.38-4.12-2.57-5.35-5.65zm26.02 4.09c-.12.1-.27.23-.48.37l-3.73 2.58c-1.02.71-2.33 1.2-2.87 1.2l-18.46-.01c.12-.1.27-.23.48-.37l2.15-1.49c.65.37 1.33.62 2.02.74.6.1 1.19.09 1.76-.01.21.08.42.13.64.15 3.63.34 6.77-.87 9-3.17zm-7.45-10.79c.37 6.95-3.31 11.91-8.84 12.45.28-.24.56-.5.83-.8 1.9-2.14 3.21-5.86 3.24-10.32.03-4.36-1.18-8.41-3-11.11-.24-.35-.49-.68-.75-.99.64-.07 1.23-.27 1.66-.55.41-.27.69-.62.87-1.03 3.04 1.27 5.61 5.39 5.99 12.35zm130.16-44.41h-4.21c.23-.55.38-1.55.11-2.95-.08-.41-.16-.8-.24-1.17.2.02.4.04.61.04.41 0 .82-.05 1.21-.14.74.69 1.61 1.31 2.59 1.81-.03.83-.05 1.65-.07 2.41zm1.41 3.36.29-11.82s-1.14-1.01-1.71-2.49 2.46.72 2.46.72.08-2.99.79-4.45c1.25-2.59 2.17 4.38 2.17 4.38s1.2-1.26 2.27-.93c1.09.33-1.47 3.83-1.47 3.83 1.47 4.16 1.42 7.6 1.81 10.65zm-5.28-28.46c.29 0 .57.05.84.15.02-.04.05-.09.07-.13 2.31-4.33 6.15-6.86 8.56-5.63 1.21.61 1.83 2.06 1.86 3.89 2.74-1.85 6.08-1.98 8.15-.08 2.39 2.19 2.24 6.28-.25 9.38.73.22 1.42.6 2 1.14 2.36 2.16 2.29 6.08-.17 8.75-1.57 1.71-3.74 2.49-5.72 2.27-.69.9-1.63 1.58-2.69 2.05-.2-1.21-.48-2.48-.91-3.84.3-.45.69-1.08 1-1.68.32-.63.53-1.26.57-1.72.1-1.12-.41-1.82-1.32-2.1-.54-.16-1.09-.14-1.62-.01-.24-1.1-.57-2.34-.95-2.98-.53-.89-1.28-1.15-1.89-1.1-.49.04-1.23.3-1.77 1.42-.34.7-.56 1.71-.7 2.64-.23-.1-.44-.18-.62-.22-.9-.18-1.5.2-1.83.66-.23.32-.5.91-.14 1.85.43 1.11 1.12 2.01 1.59 2.54 0 0-.04 1.69-.09 3.75-.85-.52-1.6-1.14-2.21-1.83-.51.23-1.06.35-1.63.35-.34 0-.68-.05-1-.14-.9-3.36-2.18-4.7-2.69-6.09 0 0-.72-2.31.42-2.92-.4-.74-.68-1.67-.8-2.68-.02-.32-.04-.65-.07-.98 0-.18-.02-.36-.01-.55.12-3.4 1.92-6.16 4.02-6.16zm-4.49 14.1c.07.56.39 1.16.47 1.3.31.55.62 1.22.94 2.06.19.42.84 3 .94 3.05.15.59.29 1.23.42 1.94.57 2.95-.74 3.23-1.58-.32.47 2.6.16 4.9-.74 4.6-.36-.12-.79-2.93-1.4-5.11.51 3.97-.4 7.29-1.44 5.99-.07-.77-.07-3.91-.39-6.08-.03 2.73-.42 5.42-1.82 4.55-.65-.4.21-2.54-.49-6.16-1.3 3.73-2.65 3.51-2.77 1.95 1.14-1.45 1.08-5.68 2.99-7.42l-2.48-22.98c1.64-.27 3.51.29 4.66.68.26.09.51.16.76.22.02-.01 1.38 17.13 1.93 21.73zm-6.1-60.23c.49.83-.23 2.4-1.99 3.53-.74.47-1.49.62-2.28.5.12-.18.25-.35.37-.53.3-.06.59-.21.81-.44.94-1 1.74-2.26 2.37-3.67.3.12.55.33.72.61zm11.54.94c-1.94 3.16-8.26 10.56-7.83 12.06-2.72-2.76.76-13.17.94-23.92.02-1.37-.48-3.13-1.14-4.52 1.19.26 2.95 1.4 3.52 5.16.4 2.65.21 6.53-1.12 12.21 2.1-7.32 2.1-11.73 1.32-14.37-.96-3.3-3.12-3.98-4.29-4.03-.1-.16-.21-.3-.31-.44 1.26-.95 2.56-1.25 3.73-.91 1.76.51 3.16 2.4 3.67 5.43.68 4.01-.2 9.95-3.89 17.46 3.98-7.48 5.04-13.48 4.49-17.55-.46-3.4-2.06-5.5-4.01-6.14-1.42-.47-3.05-.16-4.64.98-.03-.06-.06-.12-.09-.18 7.39-7.76 20.08 1.69 9.65 18.76zm-10.65-17.29c.95 2.6.95 3.78.71 5.33-.05.36-.19.65-.37.89-.01-1.31-.12-2.55-.37-3.64-.21-.93-.96-3.04-2.49-5.18.91.22 1.89.88 2.52 2.6zm-7.59-5.35c4.09 2.45 5.78 6.87 6.1 8.27 1.02 4.56-.18 11.86-3.58 15.47.73-6.06-3.56-5.29-5.01-9.94.25 2.27.02 3.84-.53 3.32-.48-.46-3.02-3.56-6.43-8.34-.25 1.38.18 2.59-.6 2.03-2.65-1.91-8.04-5.83-6.53-10.06 2.38-4.65 11.41-3.86 16.58-.75zm-8.8-4.01c-.89-.03-1.77-.01-2.6.1-1.48.19-2.82.62-3.93 1.28-.98.15-1.87.4-2.68.75.33-.79 1.02-1.57 2.37-2.12 2.64-1.09 3.86-1.12 5.46-.88.61.09 1.07.43 1.38.87zm-9.38 7.61c-2.37 1.75-4.39 4.18-4.85 7.59-.73-2.08-.27-5.92 1.91-8.79.87-1.15 2.03-2.12 3.48-2.78-.09.14-.19.28-.27.44-.03.06-.06.12-.08.18-.41 1.14-.44 2.27-.19 3.36zm-7.48 9.31c-.23.52-.36 1.21-.34 2-.8 2.48-1.24 5.02-1.33 7.58 0 0-6.7-13.73 1.69-27.25 4.82-7.78 12.61-4.87 15.03-1.94.08.09.14.18.2.28-1.25-.15-2.38-.13-4.08.4-.34-.38-.77-.73-1.32-.97-2.13-.91-5.72-.49-8.37 3.83-1.97 3.21-3.44 8.63-3.32 17.36.18-8.62 1.78-13.93 3.83-17.04 2.49-3.76 5.62-4.18 7.49-3.31.28.13.52.29.72.47-.24.09-.49.18-.76.29-1.57.65-2.45 1.56-2.96 2.47-.37.67-.53 1.36-.58 1.99-2.58 1.75-4.11 4.47-4.74 7.09-.5 2.06-.43 4.04.03 5.42-.5.28-.92.71-1.19 1.33zm1.55 3.78c-.63-1.65-.46-3.1.18-3.67-.08 1.45-.03 2.62.03 3.29-.08.12-.14.25-.21.38zm6.98 14.71c-3.93-2.74-8.99-9.85-5.21-14.68 0 0-.26-1.73-.06-4.17.45-.21.78-.64.85-1.16.38-2.79 1.97-4.81 3.88-6.31.2.44.45.88.73 1.3 1.58 2.38 4.32 4.4 6.02 5.62.75.54 1.34.46 1.68.35.15-.05.28-.11.41-.19 2.56 3.46 4.38 5.65 4.78 6.03.78.74 1.52.63 2.11.26.14-.09.29-.21.42-.37.2.2.4.39.6.57.71.65 1.43 1.22 1.78 2.22.24.67.3 1.52.16 2.67-.05.41.09.8.33 1.1-3.44 5.04-9.74 7.32-17.84 6.96-.23.01-.45-.06-.64-.2zm12.33-.02-.48 3.67c-.21 3.24-5.69 4.91-8.64 1.29-.58-.71-.6-1.94-.63-3.19 3.68-.03 6.95-.63 9.75-1.77zm-11.19 3c.09 1.17.34 2.21.91 2.91 2.26 2.77 5.69 3.09 8.13 2.03 1.79-.78 3.04-2.3 3.17-4.12 0 0 .02-.12.04-.34.73.21 1.45.43 2.15.71 0 0-.89 6.97-8.9 6.6-7.39-.34-8.17-7.22-8.17-7.22.89-.24 1.78-.42 2.67-.57zm-24.05 54.95c1.04-5.42 2.42-7.33 3.32-8.63l1.87-21.26c.26.09.52.17.78.23 1.64.4 3.46.38 5.2.17-.01.04-.02.09-.03.13-.02.1-.01.19-.01.28l-3.51 21.08c1.91 1.74 1.85 5.97 2.99 7.42-.11 1.56-1.47 1.78-2.77-1.95-.69 3.62.16 5.76-.49 6.16-1.4.86-1.79-1.83-1.82-4.55-.32 2.17-.32 5.31-.39 6.08-1.04 1.3-1.96-2.01-1.44-5.99-.6 2.18-1.04 4.98-1.4 5.11-.9.31-1.21-1.99-.74-4.6-.82 3.55-2.13 3.26-1.56.32zm-14.32-19.21s2.88 10.37-1.42 12.13l-1.16-9.94c.17-.05.33-.09.5-.14.72-.2 1.18-.91 1.08-1.64l-3.9-28.64c0-.04.01-.08.01-.12-.01-.05-.02-.11-.03-.16.91-.23 1.95-.6 3-1.09 1.88 11.76 1.84 26.86 1.92 29.6zm-18.44-51.9c-1.42.93-2.8-1.44-4.41-3.36 1.76-.72 3.12-2.21 3.57-3.96l.05-.41-.05-1.86c.13.07.26.14.36.22 1.19 3.31 1.92 8.43.48 9.37zm-27.02-24.33c.07.02.15.05.21.06 1.1.14 1.63-.36 1.92-.86l.04-.06c.62.05 1.08-.16 1.42-.48.38-.35.69-1 .62-1.92-.01-.1-.02-.21-.04-.32.25-.04.47-.12.68-.22.5-.26.9-.72 1.13-1.38.15-.44.22-1.01.22-1.63.29 0 .55-.08.78-.19.43-.21.88-.67 1.06-1.45.04-.16.06-.34.08-.54.24.05.47.04.68 0 .46-.09.87-.34 1.18-.82.15-.23.27-.59.35-1.04.36.1.68.09.97.02.44-.11.84-.36 1.15-.8.04-.06.08-.13.12-.2.12.08.24.16.37.22.74.39 1.34.26 1.82-.05.36-.23.74-.68.9-1.39l.01-.07c.16 0 .32-.03.46-.07.11-.03.22-.07.33-.12.34.36.72.67 1.14.89.62.33 1.14.34 1.57.23.42-.1.8-.34 1.09-.71.81.66 1.52.55 1.98.35.34-.15.67-.42.9-.88.39.39.8.75 1.24 1.05.94.65 1.67.67 2.15.56.1-.02.2-.05.29-.09.41.59.88 1.15 1.38 1.57.7.6 1.33.65 1.8.56.32-.06.62-.2.88-.43.42.71.86 1.32 1.26 1.69.52.49 1.05.66 1.51.67.05 0 .11-.01.16-.01 1.24 9.79-4.29 18.9-13.08 20.88-8.73 1.97-17.57-3.77-20.73-13.02zm.17 4.12c-.56-.14-1.14-.41-1.69-.82-1.51-1.14-2.11-2.85-1.34-3.82.23-.29.56-.47.95-.56.5 1.86 1.21 3.6 2.08 5.2zm24.55 12.52c-.38 1.5-1.66 2.74-3.25 3.16-.03-.03-.06-.06-.09-.08 0 0-.02.04-.04.11-1.99.46-4.45-.35-6.26-3.54l-.63-1.61c2.16.35 4.39.31 6.61-.19 1.26-.28 2.45-.71 3.58-1.24zm-11.04.19.09.19c1.73 3.03 3.98 4.24 6.02 4.41.28.02.56.01.84-.01-.99 2.04-2.79 5.09-4.47 4.31-2.77-1.28-5.37-8.67-6.09-9.81.57-.54 1.55-.97 2.74-1.32zm8.15 5.6c.3.38.6.77.89 1.13.54.68 1.08 1.27 1.6 1.69l2.22 17.57-5.88.45-.83-17.67c.77-.93 1.47-2.13 2-3.17zm13.65-16.03c.16-.35.3-.7.43-1.06 1.31-3.52 1.5-7.07 1.5-7.07 0-.02-.01-.03-.03-.03s-.03.01-.03.03c0 0-.32 2.78-1.47 5.78-.6 1.58-1.45 3.2-2.59 4.51-1.9 1.59-4.27 2.99-7.17 4.12l-.01-.24c2.96-1.77 5.37-4.38 7-7.53 1.28-2.47 2.07-5.25 2.31-8.19.2-.06.39-.14.59-.24.94-.49 1.87-1.4 2.5-2.6.64-1.22.82-2.48.65-3.49-.2-1.19-.86-2.09-1.82-2.52-.28-.12-.58-.18-.89-.21-.01-.12-.03-.25-.06-.35-.4-1.58-.89-4.91-2.32-8.08-.25-.56-.55-1.12-.87-1.66 6.35 7.61 9.73 20.18 2.28 28.83zm-.25-14.88c.03-.03.07-.05.1-.09.43-.44.79-1.19.99-1.97.03-.11.04-.22.06-.32.12.02.23.05.34.1 1.12.5 1.33 2.27.45 3.95-.43.83-1.04 1.47-1.69 1.85.01-1.16-.08-2.33-.25-3.52zm-37.31-9.18c.94-2.96 2.19-5.18 3.61-6.84.37-.33.75-.64 1.14-.94-.79 1.2-1.59 2.75-2.16 4.7-.72 2.45-1.09 5.53-.64 9.31.01.05.05.08.1.08.05-.01.08-.05.08-.1-.31-3.74.16-6.75.95-9.14 1.03-3.09 2.61-5.1 3.73-6.23.57-.33 1.16-.62 1.75-.87-.69.66-1.28 1.42-1.75 2.31-1.13 2.16-1.59 5.03-1.24 8.77 0 .05.04.08.09.08s.08-.04.08-.09c-.13-2.94.19-5.31.95-7.19.89-2.23 2.41-3.75 4.46-4.72 2.63-.61 5.39-.51 8.09.37.01.01.02.03.04.04 1.67 1.02 2.82 2.28 3.6 3.5 1.59 2.47 1.73 4.79 1.73 4.79 0 .05.05.1.1.1.06 0 .1-.05.1-.1 0 0 0-2.4-1.48-5.05-.58-1.04-1.4-2.12-2.53-3.1 2.91.3 5.31 1.7 7.2 3.42 3.65 3.29 5.45 7.71 5.45 7.71.02.05.08.08.13.06s.08-.08.06-.13c0 0-2.15-5.77-6.75-9.29-1.48-1.13-3.22-2.03-5.22-2.43.69-.22 1.39-.34 2.11-.36 2.42.35 5.17 1.89 7.94 4.43 3.96 3.64 4.72 9.94 5.31 12.28.26 1.01-.55 3.86-1.77 2.71-1.23-1.15-2.85-5.26-2.85-5.26s.41 4.71-1.15 3.39c-1.56-1.33-2.64-4.24-2.64-4.24s.79 3.55-1.28 2.11-3.52-4.38-3.52-4.38.86 5.19-.58 3.87c-.13-.12-.25-.24-.36-.35 0-1.14-.3-2.37-.83-3.47-.72-1.51-1.76-2.76-2.62-3.15-.08-.05-.19-.02-.24.07s-.01.19.07.24c.72.46 1.47 1.73 1.92 3.18.25.82.38 1.69.34 2.51-.06.87-.3 1.79-1.12 1.35-1.44-.77-2.14-3.11-2.14-3.11s.16 2.63-.68 2.17c-.7-.38-1.24-1.56-1.4-1.97l-.03.01c.12.75.59 4.22-.42 3.69-1.13-.59-2.02-2.34-2.02-2.34s.17 3.54-1.01 2.94c-.23-.12-.44-.3-.63-.51-.5-.67-.9-1.61-1.17-2.78-.39-1.65-.54-3.66-.4-5.84 0-.03-.02-.06-.05-.06s-.06.02-.06.05c-.45 2.2-.57 4.27-.41 6.01.13 1.49.52 2.7 1.05 3.59 0 .94-.14 1.65-.64 1.38-1.24-.66-1.87-1.79-1.87-1.79s.82 4.59-.41 3.92c-1.22-.66-1.81-1.89-1.81-1.89s1.45 5.47-.49 5.23c-1.03-.13-1.62-.69-1.94-1.19.58 1.38 1.55 3.99.53 3.89-1.38-.13-2.12-1.03-2.12-1.03s1.49 2.12.24 1.96c-1.3-.21-5.64-6.42-2.52-16.28zm8.71 31.17c-.55-.35-1.76-1.18-3.13-2.68-.88-.96-1.82-2.18-2.7-3.71-.02-.04-.07-.05-.1-.03-.04.02-.05.07-.03.1.77 1.62 1.64 2.93 2.45 3.97.47.6.93 1.11 1.35 1.54-8.25-3.72-11.58-12.1-10.84-19.75.36-3.7 1.24-7 2.52-9.85-1.04 3.91-.99 7.24-.47 9.84.39 1.95 1.05 3.51 1.72 4.63-.58.2-1.07.53-1.43.98-.64.81-.83 1.9-.49 3.06.29 1 1.01 2.06 2.1 2.89 1.08.82 2.31 1.23 3.36 1.26.07 0 .14-.01.21-.01 1.36 2.06 3.03 3.84 4.9 5.27 1.48 1.12 3.1 2.02 4.79 2.67-.41.18-.78.38-1.11.58-1.08-.19-2.12-.44-3.1-.76zm-11.21 65.93c1.57 1.42 1.63 4.02 2.03 5.64.34 1.38 1.39 1.75 1.21 2.56-.23 1.05-1.66 1.61-3.57-3.16-1.61 4.41-1.23 7-2.28 8.22-.43.5-.96.6-1.39.35-.15-.21-.25-.48-.28-.83-.04-.45-.03-.97.03-1.52.17-1.56.66-3.35 1.1-4.7-.82 1.5-1.82 3.62-2.2 5.34-.14.65-.16 1.22-.1 1.72-.86 1.24-2.03 1.07-2.36-.5.05-.52.19-1.73.75-3.64.32-1.06.76-2.32 1.39-3.79-.9 1.35-1.57 2.51-2.08 3.51-.68 1.32-1.06 2.31-1.28 2.96-.48-.1-.92-.67-1.06-1.51 0-.02.01-.05.01-.07-.09-.67.07-1.45.38-2.27.44-1.18 1.12-2.4 1.74-3.5-.87.95-1.82 2.01-2.54 3.09-.18.27-.34.55-.48.82-.18-.88.06-2.48 1.18-4.29l4.34-5.54 3.09-26.79c2.4.73 4.4.87 7.03 1.29zm6.24.6 2.29-27.12s.69-11.2 1.04-16.52c.11-1.65.23-3.02.36-3.8.03-.14-.06-.27-.2-.3s-.27.06-.3.2c-.18.79-.38 2.17-.57 3.84-.59 5.04-1.2 12.76-1.56 15-2.42.11-5.91-.31-9.01-1.13-.03-.01-.06-.02-.09-.03-.13-.05-.26-.08-.4-.1-1.83-.51-3.5-1.17-4.68-1.93 4.7-10.8 9.01-28.69 20.01-31.94.03.19.09.37.2.54.43.68 1.52 3.58 2.92 6.07 1.13 2 2.5 3.7 3.83 4.32.93.43 1.92.32 2.87-.24l.77 16.46c.02.4.2.79.5 1.05.3.27.7.4 1.11.37l5.88-.45c.41-.03.79-.23 1.05-.55s.38-.73.33-1.14l-2.1-16.58c.64.11 1.28-.01 1.93-.43.72-.47 1.29-1.49 1.44-2.94.19-1.91-.25-4.75-.96-7.11 6.93 2 13.03 14.34 18.78 26.39-1.41 2.26-4.61 3.75-6.86 4.31-.47-2.28-1.33-6.11-2.19-9.59-.83-3.34-1.66-6.36-2.13-7.37-.06-.13-.21-.19-.33-.13-.13.06-.19.21-.13.33.42 1.03 1.07 4.03 1.71 7.37.68 3.5 1.33 7.35 1.68 9.63-.01 0-.01 0-.02 0l4.13 30.35c-13.09 3.69-27.67 6.28-41.3 3.17zm-1.27 47.9h-15.37c.05-6.69.13-19.11.19-27.4h16.6zm9.33 31.63c-2.36-1.93-4.71-4.91-6.94-8.48-.16-.89-.15-1.75-.03-2.54l.66 1.12c.99 1.47 2.92 4.09 4.77 6.23.46.54 1.12 1.21 1.89 1.88-.21.56-.32 1.19-.35 1.79zm15.33-1.84c.37 3.16-6.53 5.51-10.98 4.07-.94-.17-1.88-.57-2.83-1.15-.07-.39-.05-1.19.09-1.86 1.62 1.19 3.53 2.17 5.29 2.12 4.4-.12 7.49-1.92 8.43-3.18zm-1.17-1.27c-.04.12-.06.25-.06.38-.13.14-.4.43-.66.61-1.29.94-3.61 1.86-6.59 1.95-1.02.03-2.1-.42-3.11-1-.44-.25-.86-.54-1.27-.84 2.83-2.24 6.14-3.5 7.75-4.02 1.62 1.32 3.02 2.26 3.94 2.92zm-8.86-8.5c-1.13.16-2.08.63-2.82 1.42-.27.3-.23.77.09 1.06.14.13.32.2.49.21.22.02.43-.06.58-.22.66-.71 1.54-1.06 2.7-1.05.05 0 .09-.02.14-.03l.42.5c-1.15.16-2.11.63-2.85 1.43-.27.3-.23.77.09 1.06.14.13.32.2.49.21.22.02.43-.06.58-.22.66-.71 1.54-1.06 2.7-1.05.06 0 .12-.02.17-.03l.95 1.12c-1.88.67-4.97 1.98-7.63 4.12-.07.01-.15.04-.21.07-.66-.58-1.22-1.16-1.62-1.62-2.35-2.72-5.2-6.94-5.2-6.94s-.54-.74-.89-1.18c.39-.96.94-1.72 1.51-2.17 1.13 2.56 3.87 3.52 5.99 3.37 1.41-.1 2.54-.73 3.05-1.52zm-9.32-5.82.12-1.53c.06.02.11.03.16.05 2.28.61 4.84.79 7.14.63l-.6 4.36c-1.05 1.63-6.71 1.24-6.82-3.51zm22.16-2.92c-.03.07-.09.18-.21.32l-1.92 2.29c-.48.57-1.29.97-1.72.97h-9.59l.23-1.67c.52-.08 1.02-.17 1.48-.28 1.39-.35 2.51-.88 3.22-1.51.04-.04.07-.08.11-.12zm-6.44-11.28 2.68-26.8 4.56 26.8zm16.26 13.44c2.34-.25 4.88-.8 7.13-1.65l.31 1.68c.13 2.46-4.98 5.19-6.24 3.74zm26.76 2.1s.54.6.78 1.55c.73 2.85-2.48 5.15-6.88 6.72l-.5-1.51c7.88-2.46 6.6-6.76 6.6-6.76zm-6.22-.37s1.29-.18 3.08 0c.5.05.95.07 1.35.1l.33.03c.05.22.05.77.04.96-.01.2-.05.48-.17.82-.4 1.04-1.65 2.6-5.44 3.78-.44-2.76-.15-4.83.81-5.69zm-9.55 10.69c-2.84.36-5.82.6-8.52.73-1.05.05-.63-1.66-.63-1.66s10.36-.62 16.81-2.2c.02 0 .04-.01.06-.01l.53 1.57c-2.25.65-5.17 1.18-8.25 1.57zm-2.25-11.18h1.23c-.45.89-.62 1.84-.5 2.82.05.38.37.65.74.65.03 0 .06 0 .1-.01.41-.05.7-.43.65-.84-.12-.92.13-1.78.75-2.61.27.01.54.01.8.02-.45.9-.62 1.85-.5 2.83.05.38.37.65.74.65.03 0 .06 0 .1-.01.41-.05.7-.43.65-.84-.12-.91.13-1.76.74-2.59 1.69.07 3.24.16 4.55.24-.32.57-.57 1.26-.69 2.11-.16 1.12-.11 2.53.16 4.14-6.35 1.55-16.52 2.16-16.52 2.16-.06 0-.12.03-.18.04-.29-1.51-.46-3.39-.31-4.5.2.06.42.11.65.14.74.07 1.68-.09 2.63-.48 1.27-.52 2.56-1.43 3.38-2.45.39-.45.66-.96.83-1.47zm-14.21-2.81-8.26-48.55c.12-.02.24-.02.35-.04.3-.05.6-.13.89-.22.45-.14.88-.29 1.29-.49 1.06-.5 1.98-1.16 2.79-1.97.14-.11.16-.31.05-.44-.11-.14-.31-.16-.45-.05-.71.46-1.46.78-2.26 1.06-.51.18-1.04.31-1.58.44-.39.09-.8.17-1.21.25-.4.08-.81.16-1.23.23-.61.1-1.23.18-1.89.24-.63.06-1.26.1-1.93.12-.17-.01-.33.11-.34.29-.02.17.11.33.29.34 1.16.21 2.25.36 3.32.38.53.01 1.04-.02 1.54-.07l-4.58 45.76c-.3 3.53-13.87 4.13-17.54-.69l2.81-54.3c12.34 2.09 25.28-.03 37.15-3.26l6.68 57.45c-3.95 3.18-12.12 4.31-15.89 3.52zm16.43-11.87-3.19-27.4h15.02c.58.68 1.38.84 2.12.59l.04-.01c.08.16.17.3.26.41.48.63 1.06.85 1.61.85.05 0 .11-.01.17-.02-.21 1.83-.42 3.67-.6 5.5-.07.68.35 1.31 1 1.54 2.1.73 4.57 1.35 7.28 1.84-.22 5.15.24 11.12.99 16.7zm38.27 23.89c.43-.29.83-.84.96-1.71 1.51 2.1 2.4 4.14 1.16 5.1-.95.74-6.8-.05-11.49-5.84-.94-1.16-.94-2.71-.47-4 1.05 2.56 3.28 4.57 6.31 6.17 1.6.84 2.85.73 3.53.28zm-5.09-7.86c2 1.87 3.86 3.1 4.44 4.54.56 2.3-.35 2.68-2.19 1.71-2.77-1.46-4.84-3.25-5.72-5.62-1.95-5.27-4.85-21.37-4.39-33.08 2.95.47 6.14.79 9.41.96-1.36 10.2-1.98 21.82-1.55 31.49zm-16.25-35.99c.22-2.26.47-4.52.75-6.79.06-.15.11-.3.13-.46v-.01c.45.05.95-.04 1.5-.38.45-.28.81-.74.93-1.49.06-.36.01-.9-.02-1.62.37.16.72.21 1.03.18.92-.07 1.91-.86 2.03-2.45.03-.37-.09-.74-.32-1.04-.48-.6-.62-1.82-.93-3.04-.36-1.43-.85-2.86-1.64-3.91 0 0 3.56-21.36 3.56-21.36.02-.09.02-.18.01-.28.35-1.84 1.08-5.53 1.75-8.43.45-1.95.85-3.53 1.08-3.9.08-.11.06-.26-.03-.34s-.23-.06-.3.05c-.27.36-.84 1.97-1.47 3.97-.8 2.55-1.7 5.72-2.23 7.68-3.25.5-6.99.33-8.89-2.4 5.65-8.29 6.88-17.81 17.21-20.54.22 1.3 1.71 7.97 9.58 8.33 2.79.13 4.82-.54 6.32-1.49 2.84-1.82 3.75-4.75 4.01-5.89 7.45 3.41 9.32 12.12 13.71 21.89-1.77 2.24-4.74-1.65-8.66-.33-.37-1.57-1.08-4.45-1.72-6.72-.47-1.65-.91-2.98-1.17-3.3-.07-.09-.2-.11-.3-.04-.09.07-.11.2-.04.3.22.32.49 1.62.78 3.22.56 3.03 1.12 7.1 1.21 7.84.01.06.04.12.07.17l2.7 22.47c-.81 1.05-1.31 2.5-1.67 3.95-.3 1.18-.44 2.36-.89 2.98-.23.32-.39.7-.36 1.1.12 1.59 1.11 2.37 2.03 2.44.31.02.66-.02 1.03-.18-.03.72-.07 1.26-.02 1.62.12.76.48 1.21.93 1.49.55.34 1.06.42 1.5.38v.01c.03.29.14.57.32.8.28.35.57.56.86.69l.71 4.56c-11.94 4.85-33.91 4.16-45.08.27zm17.88 19.96c.28-5.21.77-10.48 1.43-15.4 2.39.09 4.81.09 7.21 0 .49 4.77 1.66 10.22 3.08 15.41h-11.72zm10.14-15.48c3.33-.18 6.59-.55 9.61-1.11.39 10.56 1.41 23.74 3.63 33.5.07.29.32.49.62.51 6.78.43 5.93 1.33 5.93 1.33l-.25.05c-1.5.29-9.87 1.77-9.8-.88-2.89-4.87-8.48-21.35-9.74-33.4zm24.35 36.88c-1.93.87-6.34 1.46-14.21 1.85-.23.01-.46-.09-.59-.28-.28-.41-.47-1.06-.5-1.92-.02-.51.49-.86.95-.64.47.22 1.04.38 1.69.47 2.42.32 6.1-.24 7.66-.51.21-.03.48-.07.72-.12.24-.04.6-.16.91-.57.09-.12.32-.48.33-1 2.86.64 3.46 1.09 3.45 2.11-.01.26-.17.5-.41.61z" fill="#010101"/></g><path d="m237.22 120.28c-.16-.33-.46-.58-.82-.68l-8.01-2.19c-.34-.09-.7-.04-1.01.14-.3.18-.52.47-.6.82-.07.31-.13.6-.17.88-.39-.13-.83-.23-1.24-.3.15-.36.28-.73.39-1.08.21-.71-.18-1.45-.89-1.67l-6.29-1.97c-.39-.12-.81-.06-1.15.16s-.56.59-.6 1c-.31 3.33.42 5.07 1.31 5.99.73.76 1.62 1.08 2.5 1.17 1.53.17 2.72-.5 3.61-1.6.26-.32.48-.68.68-1.06.43.06 1.11.19 1.56.38-.09 1.74.39 2.93 1.06 3.77.93 1.16 2.32 1.67 3.52 1.86 3.27.53 5.23-2.21 6.18-4.54.14-.36.13-.75-.03-1.08zm-16.43.92c-1.46-.17-3.04-1.16-2.62-5.7l6.29 1.97c-.54 1.8-1.63 3.96-3.67 3.73zm10.49 3.4c-1.85-.3-4.32-1.44-3.24-5.94l8.01 2.19c-.76 1.84-2.18 4.17-4.77 3.75z" fill="#435773"/></svg>