<svg enable-background="new 0 0 297.64 297.64" viewBox="0 0 297.64 297.64" xmlns="http://www.w3.org/2000/svg"><path clip-rule="evenodd" d="m216.72 164.46c.99 32.76 7.63 64.97 6.65 97.5.78 1.45 10.77 1.78 12.82.87 2.29-13.09-6.31-63.13-6.19-80.67l10.62 88.93c1.44 1.94 13.3 2.1 13.37.85 1.96-35.71 5.51-79.07 6.04-109.32-14.72.46-29.8 3.03-43.31 1.84z" fill="#72a9ad" fill-rule="evenodd"/><path clip-rule="evenodd" d="m240.53 73.57c-5.23 1.43-9.65 4.74-14.02 6.5-11.05 4.44-15.97 13.49-11.21 31.26l.95 54.98c.47 4.09 35.43 6.24 46.78 3.29l-2.68-84.46c-.93-2.82-12.06-10.67-19.82-11.57z" fill="#7ca6d8" fill-rule="evenodd"/><path clip-rule="evenodd" d="m223.37 268.06c2.48.77 7.67 1.4 10.88-.05l-.05-3.77s-2.42 0-5.77-.19l-4.74-.93z" fill="#ffe7cc" fill-rule="evenodd"/><path clip-rule="evenodd" d="m241.6 276.47c3.12 1.72 8.98 1.35 10.28.28l.09-3.4s-1.4.56-5.21.28c-3.35-.25-5.12-1.12-5.12-1.12z" fill="#ffe7cc" fill-rule="evenodd"/><path clip-rule="evenodd" d="m175.49 114.92c-3.47-1.06-6.28-3.84-6.28-3.84-2.17.59-4.16 2.6-.49 5.93-8.09.63-11.13.9-11.44 1.33-.32 1.1-.15 2.42 2.72 2.65 1.66.13 1.09.59 3.63.49-4.73.96-5.4.76-8.02 1.6-.27 1.39 1.12 2.53 4.67 2.09 1.89-.23 1.51.08 4.4-.63l-5.86 2.3c-.37.16-.62.54-.56.94.22 1.6 2.27 1.67 4.54 1.08 1.94-.5 3.23-1.15 5.65-1.95-1.67 1.4-2.93 1.19-4.95 2.79-.16 1.26 1.69 2.22 8.86-.7 1.69-.69 3.54-.45 6-1.47 2.77 1.81 4.57 2.55 5.86 3.28 1.6.91 2.23.35 3.07-2.44l.77-4.05c.14-.61-.23-1.78-.79-2.05-.72-.35-1.99-.88-4.23-1.65.23-4.14-4.08-4.64-7.55-5.7z" fill="#ffe7cc" fill-rule="evenodd"/><path clip-rule="evenodd" d="m232.07 86.94c8.58-6.28 10.57-8.31 11.02-13.6-1.45-2.7-2.5-8.32-3.84-10.95 1.45-10.52-.59-20.86-8.39-26.3-13.57-4.89-22.96 2.06-29.71 13.12.38 4.97.78 9.07 3.56 14.72l-.07 4.47c-1.48 4.83 2.19 3.95 3.56 3.35 1.5 3.68 5.36 8.14 7.53 9.14 1.88.86 7.53-2.03 11.44-4.4 1.4 3.59 2.09 6 3.28 10.05.21.63 1.07.8 1.62.4z" fill="#ffe7cc" fill-rule="evenodd"/><path clip-rule="evenodd" d="m257.05 170.8-10-1.53-.98 2.98c-3.27 2.35-7.25 8.94-10.14 11.53.41 1.71 4.05 3.07 6.79-.79.22 1.89-.59 2.53-1.4 4.7-.48 1.3-1.5 4.66-1.63 5.21-.92 3.91 2.73 2.9 3.12 1.53.31-1.1 1.47-4.23 2.28-5.58 0 0-3.72 8.88-.05 8.37.54-.08 1.39-.11 2.19-3.16.5-1.94-.03-.74.74-3.21-1.54 6.19-.51 7.31 1.44 6.6 1.01-.36.98-2 1.77-6.65-.19 2.88-.16 2.72.33 4.23.48 1.55 2.97 1.62 3.16-3.86.11-3.12.98-8.35.65-15.86z" fill="#ffe7cc" fill-rule="evenodd"/><path clip-rule="evenodd" d="m253.14 276.43c-3.1 1.15-11.43 1.96-12.09-.6-6.93 1.63-14.37 2.96-20.93 6.47-2.4 8.35 11.63 11.77 33.3 3.21 2-.8 1.63-6.15-.28-9.08z" fill="#496787" fill-rule="evenodd"/><path clip-rule="evenodd" d="m84.35 202.24.87-2.34-5.18-15.56s4.95 3.56 6.35 4.53l1.33-7.26c-1.64-5.22-6.12-16.86-12.07-20.3-.44-.41-.35 3.42-.35 3.42s-2.65.35-6.07-.98c-1.22-.47-3.7-2.51-3.7-2.51s-1.86.09-2.3-.7c-6.25 4.31-14.2 5.08-11.51 43.33.41 5.88 2.27 16.46 1.42 22.56 2.49.28 5.82-.05 8.42-1.44 6.03-3.24 10.14-8.47 10.14-8.47l-2.47.09c-1.88.2-1.82-1.08-1.21-1.58z" fill="#bbe4f9" fill-rule="evenodd"/><path clip-rule="evenodd" d="m77.05 166.1c1.5.98 2.65 2.48 3.16 1.81 1.95-2.51-5.26-7.02-5.26-7.02l-.01 3.77-.08.05-.27.16c-.7.02-2.35.01-4.34-.48-2.6-.64-4.79-3.44-4.79-3.44l-3.02.42c-.56.65 3.62 6.33 12.33 9.3 1.23.42.8-1.74.56-3.44 1.21 3.4 3.67 7.77 5.35 12.7l1.63.98 1.86-.88c-2.42-6.57-4.29-11.04-7.12-13.93z" fill="#fff" fill-rule="evenodd"/><path clip-rule="evenodd" d="m76.81 176.85c-3.61 4.73-9.11 11.74-12.19 16.74l1.53 1.53c3.26-5.4 8.7-12.6 12.37-17.02z" fill="#fff" fill-rule="evenodd"/><path clip-rule="evenodd" d="m67.09 195.78 1.63 1.58c3.05-5.4 8.11-12.44 11.86-16.94l-1.57-1.39c-3.61 4.83-8.83 11.64-11.92 16.75z" fill="#fff" fill-rule="evenodd"/><path clip-rule="evenodd" d="m116.07 225.73c-1.24-.35-31.2.14-38.14.19-.8.01-1.12-.75-1.12-1.55v-3.66l-4.65-.09-.19-4.19-10.23 8.93s4.74 4 25.02 2.51c.5-.04 1.68.21 2.05.56s.18.89.19 1.4c.19 9.13.35 18.35.87 25.16.06.78.68 1.4 1.47 1.45 4.78.28 13.43.02 15.62-1.4l-.09-2.88c3.02-.62 5.88-1.54 6.14-2.05z" fill="#203756" fill-rule="evenodd"/><path clip-rule="evenodd" d="m85.56 135.01s-.59-3.57-3.15-7.17c-.82.82-2.23 1.03-3.1.01-.01.04-.03.07-.05.11.02.13-.74 1.64-1 1.9l-.28.26c-.25.16-.5.24-.79.26-.19.05-.23.17-.42.12-.27-.01-.53-.07-.77-.21-.24.12-.41.49-.66.58-.02.22-.06.44-.17.64-.05.18-.14.34-.28.47-.1.16-.22.29-.39.39-.13.13-.19-.04-.37.01-.26.13-.59-.15-.88-.16-.13-.02-.52.06-.65.05-.26.7-.68 1.7-1.4 1.85.07.39.12.78.11 1.18-.04 1.38-1.3 2.27-2.5 2.1.49.73.43 1.97-.09 2.64-.35.46-1.17.46-1.72.53-.03.05-.03 2.27-.07 2.33-.58.78-1.7-.87-2.55-1.49-.3-.22-.61-.22-1.01-.3-.25-.04-.48-.11-.72-.19-.33.25-.75.4-1.23.36-.05 0-.12 0-.17-.01-.04.05-.07.1-.12.14-.71.6-1.6 1.13-2.2 1.85-.22.27-.22.74-.07 1.49.11.52.28 1.21.54 1.84.77.35 1.43.77 2.14 1.24.06.04.56.38.84.53.02 0 .05.01.12.03.11.03.21.06.32.09.05.01.17.03.24.05.06.01.12.01.14.01.12.01.24.01.35.02.4.03.81.07 1.21.14.77.14 1.54.53 2.07 1.1 1.09 1.17 1.4 3.05.7 4.46.36.84.21 1.9-.24 2.68.07.09.14.18.2.27.52.83.68 1.85.18 2.74-.51.9-1.5 1.31-2.5 1.26-.09 0-.18-.02-.27-.04 1.81 2.06 7.03 4.13 10.24 3.75.01-1.75-.37-4.62-.21-6.77 8.94-1.99 11.09-10.26 11.09-10.26-2.09-.82-3.43-1.37-4.19-3.63l5.65-.56c.12-.82.01-2.58-.49-4.12 3.13-1.83.48-5.28-1.43-4.57z" fill="#ffe7cc" fill-rule="evenodd"/><path clip-rule="evenodd" d="m97.31 203.64c.31-.17-2.77-2.21-1.51-4.27 6.33 2.53 8.62 1.67 8.46 1.1l-5.62-2.66c3.75.37 8.21 3.68 7.91 1.53-1.55-1.16-3.5-2.26-6.13-3.6 3.67 1.59 6.7 2.36 3.78-.02l-4.57-1.84c4.82.81 4.88.84 2.49-.36-3.83-1.91-6-2.41-7.45-2.52 1.17-5.53 1.67-11.77 1.27-15.23 2.37.51 3.32-5.7 4.25-10.42.45-2.29-.38-3.08-1.01-2.27-.36.47-2.36 3.72-2.36 3.72s2.09-7.01.69-7.08c-1.19-.06-3.18 6.1-3.18 6.1s2.08-8.67.4-8.48c-.02 0-.98-.95-2.12 4.7-.2 1.01-.8 2.08-1.01 3.56 0 0 .41-3.51-.18-6.13-.49-2.19-1.55.47-1.72 2.27-.45 4.8-1.1 5.2-1.18 5.79-1.45-1.33-3.23-1.53-3.64-.45 1.15.77 1.51 1.79 1.98 2.71 1.01 1.96.21 4.04 3.08 5.71-.54 3.07-3.39 14.05-3.39 14.05l-7.21-4.2-5.91 8.31s9.77 10.16 15.93 8.33c.84-.25 1.62-1.05 2.33-2.24 2.34 2.49 4.33 4.59 5.62 3.89z" fill="#ffe7cc" fill-rule="evenodd"/><path clip-rule="evenodd" d="m106.56 251.66c-.01.47.07 3.14.07 3.14s-3.85 1.26-5.16 1.4c-3.49.35-7.6-.14-7.6-.14.63 4.22.07 1.58 1.12 4.74 1.43.61 7.21.45 9-.63.04-1.22.13-2.53.21-3.63 1.7.31 5.16-2.16 5.16-2.16v-2.86z" fill="#ffe7cc" fill-rule="evenodd"/><path clip-rule="evenodd" d="m46.77 219.59-11.26 9.3c-.42.36-.46 1.4.09 1.4l40.47-.09 2.79 3.07c.65.65 1.27 1.17 1.86.47l4.28-5.58-7.26.09s-2.79.37-10.7-.84c-1.96-.3-5.58-2.23-5.58-2.23s-4.19 2.23-8.09.93c-.76-.25 0-6.23 0-6.23z" fill="#f4c385" fill-rule="evenodd"/><path clip-rule="evenodd" d="m46.79 182.18c-2.26-2.19-7.16-.59-10.21 4.01l-.2 19.39 10.18-6.78z" fill="#f4c385" fill-rule="evenodd"/><path clip-rule="evenodd" d="m123.23 257.17c.92.26-8.66-3.09-13.3-4-.08.96-3.88 3.4-5.44 2.93-.28 1.35-1.14 3.66-.14 4.09-1.58 1.38-8.75 1.63-10.14.56-1.21 2.01-.52 6.44-.6 6.14-.41 1.94 5.29 2.61 7.53 3.07 9.41 1.92 18.69-2.49 18.88-6.84-.07-.09 6.89-3.34 3.21-5.95z" fill="#dbdada" fill-rule="evenodd"/><path d="m123.23 257.5c-.07-.23-4.32-2.46-5.81-1.68 0 0-2.98 1.99-3.53 5.35-.69.36-2.7 2.74-4.42 5.86-4.95.33-11.23-.73-16-3.12-.09.95.53 4.3.6 4.33 10.05 3.4 25.44 3.02 26.79-1.67.45-1.57-.14-2.37-.14-2.37 0 .01-.84-1.21-1.9-.96 1.47-.4 2.67-.98 3.51-1.73 2.34-2.09 1-3.89.9-4.01z" fill="#8e8f90"/><g clip-rule="evenodd" fill-rule="evenodd"><path d="m234.49 267.87c-11.2 2.92-11.72-1.86-11.72-1.86s-19.03 3.78-19.35 5.21c-2.51 11.26 15.71 9.24 31.35 4.28 1.9-.61 1.4-4.86-.28-7.63z" fill="#496787"/><path d="m201.51 41.73c-3.04 4.53-3.43 11.18.77 12.98 7.03-5.12 6.3-7.15 11.72-8.65 1.92-.53 3.38-.34 5.58.91 1.04.59 2.78 1.85 3.84 3.07 2.66 3.06 3.74 7.54 3.77 8.86.8-.24 1.11-3.72 1.26-4.53.17-.93 1.68-2.65 3.07-2.79 1.74-.17 4.33 1.67 3.14 6-.36 1.31-1.6 3.28-1.6 3.28 1.74 1.74 2.62 3.9 4.05 6.49l3.43-1.29c.51-.19.88-.65.98-1.18 4.02-22.71.7-28.5-9.16-34.43-6.84-4.11-16.8-2.66-23.86 3.7-2.31 2.05-5.11 4.78-6.99 7.58z" fill="#6a462d"/><path d="m35.74 236.45 40.95.27c.81.01 1.47-.65 1.47-1.46v-1.4h-42.35z" fill="#ffd219"/><path d="m98.97 113.85c-5.88-1-10.16-4.01-10.33-7.77-.22-4.72 6.14-8.89 14.33-9.48-1.66-1.31-2.69-2.97-2.79-4.81-.25-4.69 5.62-8.83 13.11-9.23 3.99-.21 7.64.68 10.22 2.28 3.3-2.67 5.59-2.76 9.18-3.03 8.94-.69 15.79 5.55 15.68 10.03-.04 1.72-1.1 3.29-2.88 4.56 5.15 1.15 8.77 3.84 8.92 7.11.22 4.65-6.62 8.74-15.25 9.15-2.28.11-4.46-.06-6.44-.44-.33 4.36-5.85 8.04-12.77 8.36-6.51.3-12.06-2.47-13.31-6.39-3.32 2.96-10.67 6.94-16.6 5.62 3.95-.76 6.94-3.14 8.93-5.96z" fill="#e1eef9"/><path d="m210.4 73.76c1.62-.41 4.22-1.92 5.67-3.45 0 0 .02 3.84-3.76 5.8-.34-.35-.61-.72-.89-1.09-.32-.41-.63-.84-1.02-1.26z" fill="#fff"/><path d="m202.06 127.23-14.03-4.76s.66.9-.23 4c-1.21 4.19-2.05 5.16-2.05 5.16l-4.65-2.56s-1.07 3.72-.65 5.26c.56 2.06 3.17 2.18 4.23 2.58 7.84 2.96 19.58 5 21.26 4.35 2.65-1.02 5.67-4.35 8.97-10.46l-.51-19.95c-.47-1.12-2-9.95-2-9.95s-6.44 18.4-10.34 26.33zm-20.14 8.42c.85-.11 1.72-.77 2.52-1.73-.81 1.09-1.68 1.77-2.52 1.73z" fill="#c1918b"/><path d="m265.56 106.66c-1.19-11.01-3.1-21.38-8.46-22.33-1.69-2.71-14.92.24-7.81 25.59 1.64 5.36 3.09 11.9 4.29 20.06-.82 13.04-5.05 30.39-7.09 38.74 5.44.43 9.88 1.32 13.32 2.68 5.45-18.47 7.95-40.49 5.75-64.74z" fill="#c1918b"/><path d="m248.55 110.6c-5.43-25.89 5.27-31.2 11.82-24.97 1.29 1.23 2.65 3.6 3.32 5.41-2.12-6.23-5.18-9.8-8.68-9.68-7.24.23-11.83 11.26-6.46 29.24z" fill="#7ca6d8"/><path d="m221.3 30.27c-15.84 2.43-25.61 21.84-18.34 21.79-3.44-6.16 8.1-19.35 18.34-21.79z" fill="#9c5929"/><path d="m214.62 43.89c2.54-2.27 9.97 1.79 12.2 6.35-2.81-7.21-12.99-9.77-12.2-6.35z" fill="#9c5929"/><path d="m74.67 118.31c9.71 4.77 7.32 9.68 6.47 9.64-.72-.03-1.87-.53-3.63-1.42 1.16 2.77.27 3.63-3.1 2.18.59 3.19-.5 3.89-4.18.27 2.19 4 2.42 5.67-.74 4.38 1.76 3.36.66 4.01-2.49 2.71 2.26 3.48 1.72 4.7-2.19 3.19 2.24 3.79 1.97 5.13-1.97 2.86.53 1.9-.25 2.79-2.35 2.68l1.76 2.72c5.95 4.37 6.51 5.85 2.17 4.69 3.48 2.51 4.05 3.9 1.98 4.27 2.48 1.89 1.44 5.4-3.55 3.47-8.61 10.11-28.45-14.62-17.02-28.72.05-9.22 17.67-18.41 28.84-12.92z" fill="#978771"/><path d="m63.58 141.57c2.39.67 5.6 3.93 4.92 5.58-.68 1.64-2.49 1.69-5.71 1.19-2.68-.41-4.9-3.67-4.22-5.32.68-1.64 2.39-2.18 5.01-1.45z" fill="#ffe7cc"/><path d="m47.57 131.16c-6.51 8.15-2.41 25.28 10.46 30.64-10.57-7.97-14.55-25.32-10.46-30.64z" fill="#c9b49a"/><path d="m61.98 118.5c2.65-1.48 17.17.02 19.32 8.22-2.21-9.28-14.34-10.84-19.32-8.22z" fill="#c9b49a"/><path d="m63.5 123.15c2.2.29 8.76 6.45 9.5 7.64-.96-3.65-7.67-8.05-9.5-7.64z" fill="#c9b49a"/><path d="m59.56 130.41c-.46 1.5 3.17 7.29 6.41 8.26-1.04-.67-6.26-6.42-6.41-8.26z" fill="#c9b49a"/><path d="m55.54 124.08c-.93-1.09-7.24.28-9.02 4.61 1.95-1.71 5.22-5.53 9.02-4.61z" fill="#c9b49a"/><path d="m47.5 129.42c2.35-.44 6.57-1.84 9.86.29-.54-1.13-6.88-2.62-9.86-.29z" fill="#c9b49a"/><path d="m70.58 236.15-4.56.19-.74 1.4-4.84 5.67v-7.16l-5.49.19v14.14l-4.19.19c-.87-.06-1.42.15-1.49 1.02l.09 3.53h5.77l-.09 13.67-16.19.09-.09 5.12h35.26l.09-4.93-13.86-.19-.65-14.15h24.22l.24-4.27-13.67-.09zm-4.41 15.09h-6.56v-.5l6.56-8.36z" fill="#ffd219"/><path d="m35.88 186.22-2.58.56.07 48.11c0 .83.15 1.63.98 1.63h1.47l-.56-7.53 1.05-1.4z" fill="#ffd219"/><path d="m46.49 220.13.07-20.31-3.21 2.17.28 20.09z" fill="#ffd219"/><path d="m157.19 220.61h-80.28l.08 4.42c.01.49.41.88.9.87l69.72.1c0 9.08.28 38.06.28 45.4 0 .42-.07 1-.37 1.3s-1.16.19-1.58.19l-55.44.19.09 4.56s42.37-.09 56.46-.09c1.23 0 2.85-.71 3.72-1.58s1.3-2.68 1.3-3.91c-.01-11.06.1-37.61.09-46.14l3.91-.09c.74-.06.95-.75.98-1.49z" fill="#ffd219"/><path d="m35.26 229.96v4.26l44.79.07-3.98-4.47z" fill="#b28750"/><path d="m72.07 216.34.15 3.59c.02.49.42.87.91.88l85.53.09c.78 0 1.42-.63 1.44-1.41l.07-3.43z" fill="#b28750"/><path d="m104.88 194.24-.28.91 1.19 1.19.28 1.6c2.3 1.67 1.01 2.57.56 2.72l-1.47-.21c.14.91-.54 1.69-4.05 1.47-2.09-.14-4.79-1.35-4.6-.98l1.6 2.79c-.07.75-1.4 1.47-3.56.07l-2.79-2.65c-1.88 1.95-3.35 2.02-5.58 1.88l-2.37-.77-16.32 13.54 1.19.84 93.56-.21c.52 0 1.25-.81.91-1.19l-19.4-21.42z" fill="#f4c385"/><path d="m77.86 169.26c-.36.08-.48.62-.28 1.19s.65.97 1.01.88c.36-.08.48-.62.28-1.19s-.65-.97-1.01-.88z" fill="#203756"/><path d="m80.7 175.28c-.36.08-.48.62-.28 1.19s.65.97 1.01.88c.36-.08.48-.62.28-1.19-.21-.57-.66-.96-1.01-.88z" fill="#203756"/><path d="m80.17 173.16c-.18-.49-.57-.83-.88-.76s-.42.53-.24 1.02.57.83.88.76c.3-.06.41-.52.24-1.02z" fill="#203756"/><path d="m228.47 55.11c-.79 2.36.1 6.84 1.84 7.21 1.74.36 2.8-1.1 4.2-4.05 1.17-2.45-.28-6.12-2.02-6.48s-3.16.74-4.02 3.32z" fill="#ffe7cc"/><ellipse cx="121.58" cy="110.96" fill="#55b948" rx="2.95" ry="3.03"/><path d="m123.62 104.55.88-14.77h-5.9l1.06 14.83z" fill="#55b948"/><path d="m96.26 114.78c-1.67 1.71-3.84 3.04-6.5 3.55-.7.13-1.21.74-1.22 1.45s.48 1.33 1.17 1.49c5.6 1.25 12.4-1.82 16.4-4.74.73 1.11 1.77 2.11 3.05 2.95 2.72 1.76 6.59 2.8 10.84 2.6 4.53-.21 8.5-1.78 11.04-4 1.39-1.22 2.37-2.64 2.84-4.15 1.68.23 3.47.31 5.32.22 5.55-.26 10.39-1.98 13.34-4.37 2.26-1.83 3.45-4.06 3.35-6.35-.08-1.67-.83-3.22-2.15-4.57-1.27-1.29-3.1-2.39-5.34-3.19.91-1.17 1.41-2.46 1.45-3.81.05-2.13-1.13-4.64-3.35-6.78-3.06-2.94-8.08-5.23-13.94-4.78-3.62.28-6.01.43-9.19 2.74-2.71-1.41-6.29-2.19-10.17-1.98-4.9.26-9.14 2.03-11.71 4.48-1.92 1.82-2.94 4.03-2.82 6.33.07 1.28.49 2.5 1.21 3.61-4.02.73-7.42 2.29-9.66 4.27-2.1 1.86-3.2 4.09-3.1 6.4.09 1.87.95 3.61 2.48 5.08 1.58 1.52 3.89 2.77 6.66 3.55zm6.71-18.18c-1.66-1.31-2.69-2.97-2.79-4.81-.25-4.69 5.62-8.83 13.11-9.22 3.99-.21 7.64.68 10.22 2.28 3.3-2.67 5.59-2.76 9.18-3.03 8.94-.69 15.79 5.55 15.68 10.03-.04 1.72-1.1 3.29-2.88 4.56 5.15 1.15 8.77 3.83 8.92 7.11.21 4.65-6.62 8.74-15.25 9.14-2.28.11-4.46-.06-6.44-.44-.33 4.36-5.85 8.04-12.77 8.36-6.51.3-12.06-2.47-13.31-6.39-3.32 2.96-10.67 6.94-16.6 5.62 3.95-.75 6.94-3.13 8.93-5.95-5.88-.99-10.16-4.01-10.33-7.77-.22-4.73 6.14-8.89 14.33-9.49z" fill="#010101"/><path d="m150.77 210.82c.15.19.37.29.59.29.16 0 .32-.05.46-.16.33-.25.39-.73.13-1.05l-9.33-11.98c-.25-.33-.73-.38-1.05-.13-.33.25-.39.73-.13 1.05z" fill="#010101"/><path d="m80.76 131.68c.01-.28-.2-.51-.48-.52-1.32-.05-2.72.59-3.77 1.72-.84.91-1.28 1.98-1.18 2.86.03.25.25.44.5.44h.06c.27-.03.47-.28.44-.56-.07-.59.28-1.38.92-2.06.84-.91 1.99-1.44 3-1.4.26.03.5-.2.51-.48z" fill="#010101"/><path d="m77.69 137.2c.03.25.25.44.5.44h.06c.27-.03.47-.28.44-.56-.03-.25.22-.83.74-1.39.23-.25.48-.45.73-.61 0 .03-.01.05-.01.08.03.64.45 1.14.96 1.11.5-.02.89-.55.86-1.19-.01-.32-.13-.6-.3-.81 0-.01.01-.03.01-.04.01-.28-.2-.51-.48-.52-.8-.04-1.72.45-2.5 1.29-.71.77-1.08 1.59-1.01 2.2z" fill="#010101"/><path d="m66.03 145.78c-.92.19-1.68.13-2.33 0-.47-.1-.85-.28-1.16-.48-.24-.15-.44-.3-.58-.47-.2-.21-.26-.49-.18-.74.06-.2.15-.4.33-.51.31-.19.74-.25 1.29-.03.15.09.34.03.43-.12s.03-.34-.12-.43c-1.05-.78-1.99-.56-2.6-.09-.51.39-.76 1.04-.75 1.67 0 .44.18.86.47 1.23.2.23.46.47.79.66.38.21.83.39 1.36.47.42.06.87.08 1.37.01.58-.08 1.2-.25 1.87-.56.17-.05.26-.23.2-.4-.05-.17-.22-.26-.39-.21z" fill="#010101"/><path d="m78.52 171.46c.05 0 .11-.01.16-.02.19-.05.35-.18.45-.37.15-.29.15-.71-.01-1.12-.26-.68-.82-1.08-1.3-.96-.19.05-.35.18-.45.37-.15.29-.15.71.01 1.12.22.6.69.99 1.14.98zm-.56-1.8c.01-.01.02-.03.03-.04h.01c.09 0 .36.17.5.56.1.26.09.48 0 .62-.1.02-.36-.15-.52-.55-.08-.27-.07-.49-.02-.59z" fill="#010101"/><path d="m80.18 175.5c-.15.29-.15.71.01 1.12.23.6.7.99 1.14.98.05 0 .11-.01.16-.02.19-.05.35-.18.45-.37.15-.29.15-.71-.01-1.12-.26-.68-.82-1.08-1.3-.96-.19.04-.35.17-.45.37zm.59.3c.01-.01.02-.03.03-.04h.01c.09 0 .36.17.5.56.1.26.09.48 0 .62-.1.02-.36-.15-.52-.55-.08-.27-.07-.49-.02-.59z" fill="#010101"/><path d="m78.75 172.43c-.15.29-.15.71.01 1.12.23.6.7.99 1.14.98.06 0 .11-.01.16-.02.19-.05.35-.18.45-.37.15-.29.15-.71-.01-1.12-.26-.67-.81-1.09-1.3-.96-.19.04-.35.18-.45.37zm.59.3c0-.01.02-.03.03-.04h.01c.09 0 .36.17.5.56.1.26.09.48 0 .62-.08.03-.36-.15-.52-.56-.08-.26-.07-.48-.02-.58z" fill="#010101"/><path d="m276.58 243.11-19.34-.01c1.6-24.71 3.36-50.35 4.04-71.38.02-.08.05-.17.07-.25.73-.13 1.43-.27 2.04-.43.68-.18 1.14-.8 1.12-1.5l-.3-9.52c3.35-15.95 4.6-34.01 2.84-53.5 0-.01 0-.02 0-.03-.56-5.2-1.31-10.23-2.46-14.27.5-.38.73-1.05.52-1.68-1.38-4.05-3.17-7.03-5.16-8.77-.48-.41-.97-.75-1.47-1.04-.14-.12-.26-.23-.41-.35-3.57-2.92-9.35-6.31-14.48-7.72-.79-1.58-1.48-3.96-2.16-6.2.35-.22.6-.57.68-.99 3.11-17.1 1.72-25.41-2.33-30.4-1.8-2.22-4.14-3.82-6.93-5.21-7.66-3.82-17.39-2.81-24.96 4-2.39 2.16-4.43 4.1-6.38 7.01-2.02 3.01-3.4 6.51-3.23 9.25.12 2 .98 3.66 2.81 4.68.61 3.13 1.58 6.37 3.22 9.79 0 0-.29 3.28-.29 3.28-.42 1.42-.45 2.39-.32 3.03.17.83.58 1.34 1.08 1.66.49.32 1.12.45 1.82.38.42-.05.89-.18 1.34-.34 1.95 3.71 5.67 7.76 7.78 8.73.8.37 2.1.35 3.65-.15 2.18-.72 5.1-2.34 7.65-3.85.1.26.19.51.29.76-.45.21-.9.41-1.34.59-4.74 1.9-8.41 4.62-10.8 8.39-2.13 3.36-3.26 7.59-3.14 12.89-2.92 9.22-6.65 18.76-10.34 26.34 0 0-16.3-5.79-17.79-6.32-.26-2.09-1.61-3.43-3.47-4.35-1.7-.85-3.88-1.3-5.69-1.86-3.02-.92-4.7-2.79-4.7-2.79-.38-.43-.97-.61-1.52-.46-1.12.31-1.85.86-2.23 1.52-.41.7-.53 1.59-.06 2.71.2.47.53 1.01 1.01 1.62-5.06.56-7.77.56-8.86.71-.96.13-1.4.54-1.58.79-.1.14-.18.3-.23.47-.17.61-.12 1.15.1 1.62.19.41.51.8 1.02 1.11.18.11.4.21.65.3-.91.24-1.72.47-2.41.7-.52.17-.91.61-1.02 1.14-.15.77.03 1.37.38 1.85.29.4.76.74 1.44.93.49.14 1.17.19 2.02.17l-.05.02c-.46.2-.79.63-.87 1.12-.13.77.05 1.33.34 1.73.31.44.78.77 1.48.9.67.12 1.78-.04 3.15-.36-.08.72.06 1.29.33 1.67.28.41.71.76 1.49.83.34.03.83.01 1.52-.16 1.12-.27 3-.95 6.13-2.22.75-.31 1.74-.42 2.81-.59s2.21-.37 3.32-.74c.63.39 1.31.79 2.01 1.19-.13.47-.25.94-.33 1.4-.33 1.86-.25 3.57.26 4.68.22.48.68.8 1.21.86.09.01.18.01.27.01 6.65 3.13 19.09 5.57 23.25 5.57.47 0 .84-.03 1.08-.1 2.52-.71 5.26-3.84 8.05-8.05.26 15.14.56 32.4.56 32.4 0 .05 0 .1.01.15.05.44.24.89.6 1.31 1.04 25.28 5.18 50.24 6.31 75.3l-68.84-.03-.02-16.55h3.49c.83 0 1.5-.67 1.5-1.5v-3.4h1.65c.83 0 1.5-.67 1.5-1.5v-3.02h1.41c.59 0 1.13-.35 1.37-.9.24-.54.13-1.18-.27-1.62l-18.88-20.63c-.29-.31-.69-.49-1.12-.49l-38.48.25c-.09-.18-.24-.38-.48-.57-.22-.17-.82-.5-1.72-.95-2.87-1.43-4.87-2.11-6.34-2.43.85-4.61 1.25-9.47 1.09-12.8.58-.32 1.1-.88 1.55-1.67 1.17-2.08 1.9-6.22 2.57-9.64.36-1.84-.02-3.02-.42-3.55-.41-.55-.93-.78-1.45-.81-.1-.01-.21-.01-.32.01.03-.52.01-.98-.06-1.32-.24-1.19-.98-1.69-1.83-1.73-.23-.01-.48.02-.73.11-.02-.29-.06-.55-.11-.77-.28-1.13-.94-1.65-1.73-1.72-.27-.07-.62-.11-1.05.03-.33.11-.85.35-1.36 1.21-.11.18-.22.41-.35.7-.25-.29-.51-.45-.71-.52-.61-.24-1.34-.18-1.99.51-.56.6-1.22 2.4-1.35 3.82-.14 1.53-.31 2.6-.46 3.35-.02.1-.04.19-.06.28-.71-.29-1.4-.39-1.96-.34-1.08.11-1.88.69-2.24 1.65-.25.65-.01 1.39.57 1.78.35.23.58.5.76.78.29.45.49.93.72 1.37.33.64.41 1.3.55 1.95.14.64.32 1.28.64 1.9.33.64.8 1.27 1.56 1.86-.17.8-.41 1.83-.67 2.94-1.07-3.09-2.61-6.92-4.68-10.26-.71-1.14-2.52-5-7.22-8.35-.05-.69-.08-1.17-.09-1.85 8.94-2.51 10.94-10.04 10.94-10.04.21-.74-.18-1.52-.9-1.8-1.06-.41-1.99-.95-2.69-1.75 0 0 3.82-.51 3.82-.51.67-.09 1.19-.61 1.29-1.28.11-.78.07-1.77-.25-3.07 1.15-1.03 1.42-2.18 1.3-3.1-.18-1.41-1.39-2.56-2.84-2.78-.41-1.48-1.32-3.97-3.14-6.45.11-.24.21-.5.28-.81.44-2.01-.19-6.27-8.09-10.15-7.16-3.52-16.8-1.48-23.37 2.9-4.37 2.92-7.33 6.88-7.59 10.81-6.92 9.07-2.4 22 4.45 28.66 2.56 2.49 5.42 4.06 8.13 4.39-.32.4-.64.81-.95 1.27-3.73 5.56-6.47 16.01-4.82 39.52.28 4 1.15 9.65 1.39 14.75l-5.41-.11v-18.95l.23-.15c.41-.27.66-.73.67-1.23l.24-16.63c.01-.41-.16-.81-.46-1.1-1.24-1.2-3.03-1.65-5.02-1.26-2.5.49-5.39 2.36-7.48 5.52-.09.14-.15.3-.2.46h-.94c-.83 0-1.5.67-1.5 1.5v48.44c0 .83.67 1.5 1.5 1.5h20.22v5.76l-33.94-.01c-.41 0-.75.34-.75.75s.34.75.75.75l33.94.01v5.72h-4.63c-.55 0-1 .45-1 1v3.69c0 .55.45 1 1 1h4.62v12.49h-14.87c-.83 0-1.5.67-1.5 1.5v3.69c0 .83.67 1.5 1.5 1.5h34.03c.83 0 1.5-.67 1.5-1.5v-3.69c0-.83-.67-1.5-1.5-1.5h-12.47v-12.49h22.72c.55 0 1-.45 1-1v-3.69c0-.55-.45-1-1-1h-12.47v-5.71l17.32.01c.13 4.07.31 7.83.57 11.01.06.73.64 1.31 1.37 1.37.71.06 1.55.11 2.47.15.21.94.47 1.87.77 2.85-.04.05-.09.1-.12.16-1.04 1.74-.87 4.58-.76 5.65 0 .11.01.22.02.32-.02.27.01.53.08.77.04.31.09.58.14.76.22.92.88 1.23 1 1.28 4.67 1.79 10.89 2.47 16.12 2.22 3.69-.18 6.9-.83 8.8-1.82.4-.21.78-.45 1.11-.72 2.38-1.96 1.36-4.22 1.24-4.5-.09-.2-.18-.38-.26-.54.6-.29 1.12-.61 1.55-.96 1.31-1.07 1.72-2.12 1.82-2.96.19-1.61-.81-2.68-.81-2.68-.29-.32-1.47-.76-1.78-.88-.43-.17-1.38-.49-2.61-.89-.01 0-.01 0-.02 0-2.62-.84-6.51-1.98-9.34-2.51-.04-.01-.08 0-.13-.01l.01-.49c.59-.15 1.12-.31 1.56-.46.67-.23 1.17-.46 1.46-.66.36-.24.56-.52.68-.74.08-.15.13-.32.15-.49l.66-5.23 32.59.01v27.54c0 .02-.01.05-.03.06-.02.02-.04.03-.06.03h-55.7c-.83 0-1.5.67-1.5 1.5v3.24c0 .83.67 1.5 1.5 1.5h55.53c1.62 0 3.18-.65 4.33-1.8s1.79-2.71 1.79-4.33l-.03-27.73 68.91.03c.23 5.77.3 11.54.13 17.32-.01.26.05.52.18.75.18.33.5.68 1.02.97l-.09 1.6c-.1 0-.21 0-.31.02-5.26 1.05-14.11 2.82-17.66 4.2-.82.32-1.42.66-1.74.95-.38.33-.56.68-.65.98-.54 1.87-.35 3.41.33 4.66.94 1.73 2.96 2.97 5.85 3.56 6.05 1.23 16.27-.24 25.93-3.3 1.11-.35 1.81-1.24 2.01-2.57.26-1.75-.57-4.56-1.81-6.77l.08-2.32c.8-.11 1.43-.27 1.83-.45.45-.2.78-.62.86-1.11.1-.59.19-1.27.25-2.01 0 0 1.22 10.18 1.22 10.18.03.26.13.51.29.72.3.41.88.82 1.68 1.15l-.12 2.11c-.06.01-.12.01-.19.02-7.06 1.66-13.79 2.65-20.47 6.23-.36.19-.62.52-.73.91-.51 1.78-.33 3.29.36 4.55.94 1.71 2.94 3 5.83 3.64 6.12 1.36 16.61 0 27.4-4.05 1.02-.38 1.78-1.26 2.14-2.53.6-2.08.05-5.41-1.54-7.84-.19-.3-.49-.49-.81-.58l.05-1.63c.51-.09.94-.19 1.22-.32.93-.41 1.22-1.09 1.25-1.62.48-8.77 1.06-18.02 1.67-27.4l19.43.01c.41 0 .75-.34.75-.75s-.4-.71-.82-.71zm-120.28-18.1h-78.62v-3.4h78.62zm-48.68 27.66c.44-.1.86-.19 1.27-.29l-.04 1.78s-.59.39-1.4.83c.08-.18.13-.36.13-.56zm51.83-32.56h-86.44v-2.83l86.44-.18zm-15.98-25.15 18.88 20.63-93.9.2 16-12.67c1.87.61 3.71.8 5.32.32.71-.21 1.41-.67 2.06-1.37 1.09 1.11 2.1 2.07 2.97 2.59 1.22.74 2.33.79 3.22.31.46-.25.71-.63.79-1.09.05-.26.05-.63-.18-1.05-.11-.2-.53-.63-.98-1.18 2.01.65 3.52.9 4.58.94 1.34.06 2.17-.22 2.59-.48.29-.18.5-.38.65-.59 1.06.17 1.76-.19 2.16-.69.28-.36.51-.89.4-1.69l-.59-.99c-.22-.17-.46-.33-.7-.5.03-.07.05-.14.07-.2.08-.33.1-.8-.21-1.35-.12-.22-.37-.52-.75-.89zm-41.36-1.43c2.4 1.2 2.33 1.17-2.49.36l4.57 1.84c2.92 2.37-.11 1.61-3.78.02 2.63 1.33 4.58 2.43 6.13 3.6.3 2.15-4.16-1.16-7.91-1.53l5.62 2.66c.16.57-2.13 1.43-8.46-1.1-1.26 2.06 1.82 4.1 1.51 4.27-1.09.59-2.68-.83-4.56-2.76.87-1.34 1.65-3.2 2.31-5.35.41-1.34.77-2.79 1.09-4.29 1.38.29 3.25.92 5.97 2.28zm-12.18-18.02c-2.87-1.67-2.07-3.75-3.08-5.71-.48-.92-.83-1.94-1.98-2.71.41-1.08 2.19-.88 3.64.45.08-.59.73-.99 1.18-5.79.17-1.8 1.22-4.45 1.72-2.27.59 2.62.18 6.13.18 6.13.21-1.48.81-2.55 1.01-3.56 1.14-5.65 2.1-4.69 2.12-4.7 1.68-.19-.4 8.48-.4 8.48s1.99-6.16 3.18-6.1c1.39.07-.69 7.08-.69 7.08s1.99-3.26 2.36-3.72c.63-.8 1.46-.01 1.01 2.27-.74 3.8-1.51 8.56-3.01 10-.07.01-.14.01-.21.04-.3.17-.62.29-.93.38-.03 0-.06 0-.09 0v.03c-.23.07-.46.13-.69.16-1.07.15-1.94.04-1.94.04-.11-.03-.22.03-.25.14-.03.1.03.21.14.24 0 0 .88.37 2.05.53.25.03.51.05.78.05.41 7.57-2.29 23.74-6.67 25.05-5.14 1.53-12.76-5.26-15.16-7.57l6.11-8.9 4.64 2.99c.03.03.04.06.07.09.81.48 1.34.92 1.69 1.34.59.72.64 1.22.64 1.22-.01.11.07.21.18.22s.21-.07.22-.18c0 0 .15-.62-.31-1.7-.13-.31-.33-.65-.6-1.03.7-2.85 2.65-10.51 3.09-12.99zm-7.15 5.62.98-.41c.56 2.01 1.21 4.19 1.66 6.32l-4.27-2.75 1.41-2.05c.23-.34.29-.73.22-1.11zm3.33 4.07c-.11-.43-.22-.87-.35-1.31l.75-.28c-.14.55-.28 1.08-.4 1.59zm-16.2 12.82c-12.87-10.69-15.08-24.27-10.78-28.91 5.16-4.2 14.05 4.78 22.19 12.29zm10.87-29.62c3.02 4.32 5.03 9.91 6.14 13.44l-1.55.58c.03.11.06.21.08.32 0 .02-.67-2.15-1.01-3.12-.01-.05-.01-.09-.03-.14-1.75-4.74-3.19-8.3-4.88-10.98.43.16.78.12 1.01.03.08-.03.16-.07.24-.13zm-4.97-6.36c1.03.79 2.31 1.86 3.14 2.85 2.14 2.56.9 2.7.57 2.5-.87-.5-2.37-1.87-3.77-2.88.12-.2.12-1.72.06-2.47zm1.45 5c2.28 2.87 4.09 6.74 6.29 12.68l-1.26.52c-.48-.44-.96-.89-1.45-1.34-1.34-3.9-3.56-8.49-4.93-11.27-.08-.56-.17-1.16-.25-1.72.55.36 1.1.76 1.6 1.13zm7.84-31.1c1.91-.71 4.08 1.85.98 3.72.5 1.53.61 2.62.49 3.44l-5.55.73c-.23.03-.38.27-.29.49.81 1.99 2.4 3.15 4.36 3.91 0 0-2.74 9.86-15.98 9.74-.08-.38-.21-.76-.41-1.13.09-.12.16-.24.21-.36.31-.67.33-1.6-.48-2.7-.07-.09-.14-.18-.22-.28.22-.21.37-.46.46-.73.16-.47.17-1.26-.54-2.2-.37-.48-1.03-1.13-1.97-1.93.15-.03.3-.06.42-.09.17-.03.28-.2.25-.37s-.2-.28-.37-.25c-.71.09-1.74.1-2.67.02-.65-.06-1.24-.17-1.61-.35-1.04-.48-1.84-1.19-2.36-1.95-.28-.42-.46-.85-.53-1.29-.07-.42-.04-.84.15-1.22.36-.8 1.21-1.29 2.22-1.41.93-.11 1.99.05 2.99.62.33.18.7.46 1.05.74.39.32.75.65.96.89.05.07.13.1.21.12.32.06.54-.39.58-.45.05-.1.1-.2.14-.32.12-.35.16-.79.07-1.32-.03-.19-.09-.41-.17-.65.19-.01.37-.02.52-.06.71-.15 1.18-.52 1.48-1 .26-.41.4-.95.31-1.64-.02-.16-.05-.33-.11-.51.61-.07 1.07-.3 1.41-.62.46-.43.77-1.06.71-1.98-.01-.11-.02-.23-.04-.36.55-.14.93-.44 1.2-.83.25-.36.42-.85.39-1.5 1.29.22 2.35-.44 2.61-2.08.27.05.51.09.73.1.83.04 1.43-.18 1.86-.5.42-.32.73-.76.86-1.36.69.26 1.23.39 1.64.41.32.01.7-.07 1.08-.31 2.43 3.45 2.96 6.82 2.96 6.82zm-10.51 29.63c.01 0 .01-.01.02-.01.26 2.12.74 4.6.06 4.35-6.09-2.28-11.48-8.15-11.38-8.25.55.16 1.05.23 1.52.28 2.14 2.22 6.27 4.06 9.78 3.63zm-7.71-3.81c.86-.27 1.46-.76 1.82-1.3.19-.3.33-.63.41-.99 1.85.02 3.52-.14 5.01-.44.05 1.79.31 3.7.3 5.05-2.6.32-5.56-.79-7.54-2.32zm-21.17-30.36c.08 0 .17-.01.25-.05 1.57-.76 3.11-1.03 4.47-1.05 2.69-.04 4.66.84 4.66.84.09.04.19.01.24-.08.04-.08.01-.19-.07-.24 0 0-1.95-1.16-4.78-1.45-1.02-.1-2.16-.07-3.35.15 1.03-.99 2.12-1.68 3.16-2.14 2.68-1.19 5.02-1 5.02-1 .06.01.12-.04.13-.1s-.04-.12-.1-.13c0 0-2.41-.37-5.28.66-1.28.46-2.64 1.23-3.92 2.39 2.3-8.46 18.17-15.98 28.53-10.89 9.71 4.77 7.32 9.68 6.47 9.64-.54-.03-1.32-.31-2.43-.83-1.02-1.37-2.31-2.89-4.23-4.07-1.57-.97-3.55-1.72-6.14-1.98-.06-.01-.12.04-.13.1s.04.12.1.13c2.49.4 4.37 1.23 5.83 2.26 1.72 1.21 2.85 2.69 3.73 4.03.49 1.9-.58 2.36-3.46 1.11.5 2.71-.21 3.61-2.69 1.61-.23-.31-.48-.62-.75-.94-.6-.69-1.31-1.39-2.13-2.05-.05-.04-.12-.04-.17.01-.04.05-.04.12.01.17.71.74 1.3 1.51 1.8 2.25.4.61.73 1.2 1 1.76.85 2.11.39 2.81-1.98 1.84 1.76 3.36.66 4.01-2.49 2.7 1.97 3.04 1.81 4.35-.86 3.63-.02-.01-.03-.02-.05-.03-1.66-.6-2.93-1.52-3.88-2.47-1.9-1.9-2.56-3.93-2.56-3.93-.02-.06-.08-.1-.14-.08s-.1.08-.08.14c0 0 .53 2.16 2.33 4.28.9 1.05 2.12 2.08 3.72 2.86.45.87.67 1.53.7 1.99-.33-.34-.69-.66-1.01-.89-1.44-1.02-3.07-1.29-4.41-1.01-1.19.25-2.15.97-2.66 1.96-.49 1.04-.42 2.22.16 3.3.63 1.17 1.86 2.23 3.49 2.84.48.17 1.21.26 2 .25.1 0 .21-.01.32-.01 3.43 2.7 4.04 3.88 2.02 3.65-.05-.03-.11-.05-.17-.06-.29-.02-.56-.08-.83-.12-.21-.05-.43-.1-.67-.17l.09.06c-1.18-.27-2.21-.72-3.08-1.24-2.34-1.4-3.58-3.24-3.58-3.24-.03-.06-.11-.07-.16-.04-.06.03-.07.11-.04.16 0 0 1.13 2.01 3.44 3.64 1.24.87 2.8 1.63 4.71 1.94.08.01.15 0 .22-.03 1.99 1.73 2.08 2.72.38 3.02 2.48 1.89 1.44 5.4-3.55 3.47-.37.43-.77.78-1.17 1.08-.13-.01-.27-.03-.4-.05 0 .01.01.02.01.02-1-.3-1.89-.7-2.63-1.17-2.32-1.45-3.48-3.29-3.48-3.29-.03-.06-.1-.08-.16-.04-.06.03-.08.1-.04.16 0 0 1.05 2 3.34 3.69.67.5 1.45.96 2.34 1.34-9.28 4.55-25.21-17.24-14.96-30.26zm13.18 32.34c1.16-.13 2.27-.52 3.29-1.2 1.77 2.25 6.19 6.34 12.23 8.64.45.17.81.08 1.11-.13.2-.15.42-.43.51-.87 1.03 2.14 2.22 4.74 3.19 7.24-4.02-3.71-8.08-7.33-11.69-9.28-3.61-1.94-6.85-2.23-9.35-.19-.05.04-.11.09-.15.15-1.96 2.12-2.87 5.84-2.15 10.36.99 6.21 5 14.02 13.07 20.73.32.27.75.39 1.16.33s.79-.29 1.03-.64l2.19-3.18c1.55 1.47 4.73 4.3 8.18 6.16.44.24.88.45 1.33.65l-15.31 12.13c-.5.4-.7 1.07-.48 1.67s.78 1.01 1.42 1.01h1.43c-5.09 4.54-8.82 9.34-16 8.54.85-6.1-.8-15.54-1.21-21.42-1.86-26.33 1.74-35.89 6.2-40.7zm-22.31 22.45c3.06-4.61 7.95-6.2 10.21-4.01l-.24 16.63-10.18 6.78zm9.08 15.01v18.57l-1.37 1.1v-18.76zm-2.87 1.92v18.96l-5.73 4.6v-19.77c.05-.03.1-.04.15-.07zm4.18 17.53 5.65.11c.04 1.75-.02 3.4-.22 4.86-.06.4.05.81.3 1.13s.62.53 1.02.57c2.98.33 5.43-.2 7.62-1.27 1.15.72 2.61 1.34 4.53 1.8 2.5.61 5.87.99 10.46 1.11l-.23.23c-.05.05-.08.11-.11.17h-39.87zm-11.4 7.23-.39.31c-.48.39-.67 1.03-.49 1.61-.02-.01-.05-.02-.08-.03v3.65c0 .43.18.81.46 1.08v1.26h-.89v-48.44h.76c.03-.1.08-.19.12-.29l-.19 18.53c-.01.51.26.98.68 1.26v21.06zm.55 2.98h39.89l2.21 2.57h-42.1zm41.08-.92.92-.94c1.66.02 3.47.01 5.45-.04l-3.63 4.16zm-27.4 24.99v-3.69h4.62v3.69zm23.79 14.99v3.69h-34.04v-3.69zm-17.67-1.5v-31.15h3.69v31.15zm27.91-17.18v3.69h-22.72v-3.67l.01-.02zm-17.66-12.96c.7-.55 2.93-.22 1.85 1.74l-6.9 8.81v-4.57zm-5.06 3.65v-4.66h3.95c-.01.01-.03.03-.04.04zm8.48-3.87c-.14-.32-.36-.57-.62-.8h.88v12.97h-3.69v-5.43l3.03-3.86c.05-.06.09-.13.13-.2.65-1.16.55-2.05.27-2.68zm-4.92 8.66v3.52h-2.76zm-28.09-10.95v-.84h40.89v.84zm34.78 7.26v-5.76h6.11c.83 0 1.5-.67 1.5-1.5v-.84h.44c.39 0 .75-.15 1.02-.4.24-.08.47-.22.64-.42l4.54-5.2c.75-.02 1.52-.05 2.31-.08.1 0 .2.03.27.1s.12.17.12.27c.1 4.72.19 9.43.32 13.84zm19.38 12.39c-.58-6.93-.73-16.6-.93-26.25-.01-.5-.22-.98-.59-1.33s-.86-.53-1.36-.51c-14.4.57-21.27-.22-24.98-2.13 1.46-.91 2.82-2.03 4.19-3.27 1.42-1.29 2.86-2.7 4.44-4.07v2.26c0 .83.67 1.5 1.5 1.5h3.17v3.4c0 .83.67 1.5 1.5 1.5h29l-.59 27.89c-2.47 1.58-11.15 1.35-15.35 1.01zm12.85 1.31c-.06.91-.12 1.81-.15 2.83-1.79 1.07-6.53 1.12-7.97.52-.34-1.04-.6-1.99-.83-2.95 2.64.08 5.64.04 8.02-.25.32-.05.63-.1.93-.15zm4.93 12.89c-4.63.04-9.8-.63-13.78-2.16-.03-.01-.08-.2-.13-.49-.04-.18-.07-.37-.07-.56-.01-.03-.01-.06-.02-.09-.01-.07-.01-.15-.02-.22 0-.05 0-.09.01-.14.02.06 0-.04-.03-.25-.01-.22-.01-.43.01-.63 3.68 1.4 9.36 2.51 14.19 2.87-.09.4-.16.82-.19 1.25-.02.14 0 .28.03.42zm-.93-3.17c-11.38-1.28-12.97-2.88-13.25-2.86.02-.73.13-1.51.42-2.21.04.02.08.05.13.07.84.35 2.64.57 4.5.49s3.77-.47 4.82-1.1c.42-.25.69-.69.72-1.18.32.07.67.15 1.01.23-.55.56-1.05 1.24-1.5 2.1-.19.37-.05.82.31 1.01.1.05.21.08.32.09.28.01.55-.14.69-.4.55-1.04 1.16-1.79 1.86-2.28.04-.03.06-.06.09-.09.33.08.66.16.99.25-.58.61-1.08 1.38-1.51 2.33-.17.38-.01.82.37.99.09.04.19.06.28.07.29.01.58-.15.71-.44.49-1.07 1.05-1.84 1.73-2.37.04-.03.07-.08.1-.12.85.24 1.7.48 2.51.72-1.15.87-2.84 2.44-3.77 4.68-.5.02-1.01.08-1.53.02zm10.09-2.1c-.33.32-.83.55-1.39.78-1.41.59-3.32 1-5.47 1.19 1.22-2.35 3.36-3.71 3.89-4.02 2.48-.05 3.69.89 3.5 1.15-.03.1.14.25-.53.9zm2.32 2.38c-2.97 3.13-9.78 2.93-10.12 2.91.03-.5.21-1.31.33-1.76 5.26-.36 9.32-1.93 9.42-4.05.01 0 1.89 1.3.37 2.9zm3.19-8.67c.2.64.52 2.14-.78 3.35-.48.44-1.23 1.05-2.07 1.14-.19-.05-.96-.26-1.01-.28-.02-.01-.06-.02-.09-.03.08-.03.17-.06.25-.09 1.9-.83 3.28-2.61 3.7-4.09zm-3.42-1.52c1.87.45 1.88.95 1.91.99-.09 1.92-1.99 3.26-4.91 3.85-.33-.11-2.11-.67-2.2-.7.81-2.91 3.5-4.27 3.5-4.27.09.02.48-.16 1.7.13zm-9-2.23c-.37.38-.73.83-1.07 1.37-.23.36-.14.8.19.99.09.05.2.08.3.08.26.01.54-.14.7-.39.47-.75.96-1.29 1.49-1.63.02-.01.03-.03.04-.04.22.06.44.11.66.17-.4.43-.78.94-1.12 1.55-.21.37-.1.81.24.97.08.04.17.06.27.07.28.01.57-.15.72-.43.43-.78.88-1.32 1.4-1.7.02-.01.02-.03.04-.04.57.16 1.14.32 1.69.48-1.04.79-2.56 2.27-3.19 4.48-2.66-.79-5.67-1.61-8.13-2.1.02-.37.04-.73.07-1.09.14-.03.27-.06.41-.1 1.82-.57 3.93-1.98 3.93-1.98.27-.18.44-.48.44-.81v-.06c.29.07.61.15.92.21zm1.49-4.72c-.22.42-2.21 1-4.61 1.54l.52-24.62h7zm2.34-6.54 2.09-16.54h30.31v16.55zm35.41 32.51c-.87.87-2.04 1.36-3.27 1.36-14.09 0-55.53 0-55.53 0v-3.24h55.7c.42 0 .82-.17 1.12-.47s.47-.7.47-1.12v-45.59h2.81c.01 9.87.04 35.29.05 45.78 0 1.24-.49 2.41-1.35 3.28zm111.8-105.7c.38-1.35.74-2.72 1.09-4.1l.12 3.83c-.37.1-.78.19-1.21.27zm3.75-63.2c2.2 24.25-.3 46.28-5.74 64.73-3.44-1.36-7.88-2.25-13.32-2.68 1.99-8.15 6.05-24.85 7.01-37.77 1.31 0 2.52.23 3.54.55 2.13.67 3.48 1.68 3.48 1.68.05.04.12.03.17-.02.04-.05.03-.12-.02-.16 0 0-1.29-1.17-3.41-2.07-1.05-.44-2.29-.8-3.68-.94-.02-.14-.04-.28-.07-.42.88-.17 1.73-.23 2.48-.22 1.51.02 2.59.26 2.59.26.06.02.13-.02.15-.08s-.02-.13-.08-.15c0 0-1.07-.41-2.6-.65-.8-.13-1.72-.2-2.68-.15-.95-6.15-2.05-11.36-3.26-15.82-.12-.43-.31-3.57-.35-3.76-2.24-11.52-1.16-18.55 1.42-22.02 1.08-1.46 2.43-2.18 3.84-2.2 1.48-.02 2.99.7 4.31 1.95 1.15 1.1 2.35 3.23 2.95 4.84.15.39.44.68.79.84 1.18 4 1.92 9.04 2.48 14.26zm-11.73 83.72c-.2 5.48-1.51 5.16-1.99 3.61-.49-1.51-.4-4.3-.21-7.18-1.37 4.85-1.59 9.52-2.6 9.89-1.95.7-1.33-4.23.21-10.42-.78 2.47-2.05 5.49-2.55 7.43-.79 3.06-1.36 2.39-1.82 2.68-.57.36-.72-.26-.63-1.36l-.02.01c-.03.01-.07.03-.1.05.02-.01.04-.02.06-.03l.04-.02c.01 0 .01-.01.02-.01.24-3.02 2.27-9.68 2.27-9.68-.81 1.35-3.6 6.9-3.91 8-.39 1.37-2.81 3.02-1.89-.89.13-.55 1.06-3.62 1.54-4.92.81-2.16 1.52-4.3 1.3-6.19-2.74 3.86-6.34 4.23-6.76 2.52 2.89-2.6 6.66-8.58 9.93-10.93l1.05-2.62c3.02.29 5.7.74 8.04 1.35l-1.45 3.83c.33 7.52-.41 11.75-.53 14.88zm9.86-99.34c-.67-1.81-2.03-4.18-3.32-5.41-6.55-6.23-17.24-.92-11.81 24.97-5.37-17.98-.78-29.01 6.46-29.25 3.48-.11 6.55 3.46 8.67 9.69zm-60.94-49.31c1.88-2.8 3.84-4.66 6.14-6.73 7.06-6.35 16.14-7.34 23.28-3.77 8.63 4.31 12.72 10.56 8.46 34l-2.86 1.16c-1.43-2.59-2.31-4.2-4.04-5.94 0 0 .02-.03.04-.06-.03 0-.06-.02-.09-.02.26-.31.52-.64.75-.97.46-.65.8-1.3.92-1.79.41-1.69.23-3.31-.38-4.48-.57-1.1-1.51-1.81-2.64-1.99-1.1-.14-2.23.25-3.11 1.1-.95.91-1.61 2.33-1.64 3.98-.5-1.92-1.62-4.73-3.51-6.9-1.06-1.22-2.29-2.13-3.33-2.72-2.21-1.25-4.7-2.15-6.63-1.62-5.42 1.5-4.78 3.67-11.81 8.79-4.2-1.81-2.59-7.52.45-12.04zm9.32 34.38c-.01-.01-.01-.01-.02-.02-.62-.76-1.22-1.57-1.76-2.4 1.7-.47 4.26-1.91 5.72-3.38.01 0 .02 3.85-3.94 5.8zm13.16.52c-3.5 2.04-7.4 4.03-8.9 3.34-.93-.43-2.19-1.52-3.45-2.92 4.43-2.34 4.4-6.74 4.4-6.74 0-.49-.31-.93-.79-1.11s-1.02-.07-1.37.29c-1.36 1.37-3.81 2.74-5.33 3.11-.04.01-.08.04-.12.06-.39-.67-.73-1.34-.99-1.98-1.37.6-4.66 2.33-3.18-2.5l.34-3.84c-1.57-3.19-2.53-6.21-3.14-9.14.17-.05.34-.11.49-.22 3.6-2.62 5.24-4.49 6.67-5.9 1.22-1.2 2.27-2 4.65-2.66 1.6-.44 3.65.44 5.49 1.48.92.52 2 1.32 2.94 2.4 2.38 2.73 3.44 6.58 3.47 7.76.01.47.24.9.61 1.18.38.28.86.36 1.31.23.03-.01.06-.02.09-.03.04 0 .08.02.12.01.17-.05.26-.23.21-.4-.08-.31-.15-.79-.19-1.29-.04-.45-.05-.91-.02-1.29.09-1.15.55-2.12 1.17-2.82.67-.76 1.55-1.19 2.42-1.04.42.06.79.27 1.09.57.32.31.58.7.76 1.17.34.86.47 1.92.29 3.05-.06.41-.3.96-.62 1.52-.45.82-1.04 1.66-1.51 2.2-.12.12-.12.32 0 .45.12.12.32.12.45 0 .02-.02.05-.05.07-.07.01.01.02.03.03.04 1.63 1.64 2.45 3.17 3.79 5.6.37.67 1.17.95 1.88.67l1.74-.71c.74 2.4 1.47 4.98 2.33 6.58-.49 5.67-5.19 8.3-10.94 12.54-1.26-4.53-1.98-6.65-3.23-9.89.71-.64 1.82-1.72 2.63-2.91.71-1.05 1.2-2.16 1.03-3.12-.01-.13-.14-.23-.27-.21-.13.01-.23.14-.21.27.04.83-.53 1.71-1.25 2.51-1.46 1.55-4.55 3.52-4.96 3.76zm2.58 2.86c.71 2 1.33 3.96 2.2 7.1.13.48.49.86.96 1.02s.98.08 1.38-.21c2.94-2.17 5.6-3.93 7.6-5.86 2.1-2.03 3.49-4.27 3.88-7.21.85.26 1.71.56 2.58.91-2.57 5.8-8.82 11.68-16.53 15.55-1.38-3-2.58-6.17-2.84-10.82 0-.04-.02-.07-.03-.1.26-.14.53-.25.8-.38zm-71.42 44.01c2.47-.79 6.48-1.73 10.88-2.63.19 1.07.46 1.96.75 2.72-2.58.58-4.5.61-6.27.83-3.55.43-5.63.47-5.36-.92zm2.92 4.05 8.75-3.87c.11.28.23.54.35.78.38.77.79 1.34 1.15 1.76-2.22.7-4.4 1.2-6.18 1.66-2.56.67-4.31 1.06-4.07-.33zm19.26-.83c-2.46 1.01-5.19.91-6.88 1.6-7.18 2.92-7.56 2.63-7.41 1.37 2.11-1.02 3.87-1.86 5.44-3.27.57.61 1 .83 1 .83.08.05.19.02.24-.06s.02-.19-.06-.24c0 0-.36-.26-.8-.87.01-.01.02-.01.02-.02-.01 0-.02.01-.03.01-.31-.44-.65-1.05-.95-1.9-.41-1.19-.69-2.8-.62-4.99-.01-.41-.36-.74-.77-.72-.41.01-.74.36-.72.77.05.53.12 1.03.21 1.5-2.11.04-3.74-.08-5.2-.2-2.87-.23-4.35-.66-4.03-1.76.29-.4 3.26-.14 10.85-1.06 1.61 1.24 2.79 1.95 3.66 2.33 1.97.86 2.44.18 2.44.18.06-.07.06-.18-.02-.25-.07-.06-.18-.06-.25.02 0 0-.53.46-2.45-.98-.48-.36-1.14-.88-1.89-1.53-3.62-3.3-3.61-4.9-1.44-5.49 0 0 1.91 2.18 5.38 3.24 3.23.99 7.69 1.61 8.1 5.03-.05.09-.08.2-.08.31.07.95-.22 1.8-.62 2.51-.77 1.32-1.86 2.15-1.86 2.15-.08.05-.11.16-.06.24s.16.11.24.06c0 0 1.7-.84 2.83-2.42.34-.47.61-1.02.78-1.61 1.19.43 2.42.89 3.62 1.35.03.15.08.95.06 1.38-.03.53-.13 1.15-.27 1.82-.31 1.43-.85 3.08-1.53 4.58-2.31-1.19-4.93-2.6-6.93-3.91zm3.25 8.16c-.06-.02-.13-.02-.19-.02-.41-1.09-.32-2.78.11-4.54 1.04.57 2.09 1.11 3.08 1.62-.38.7-.8 1.33-1.23 1.85-.4.48-1.16 1.25-1.77 1.09zm23.91 5.66c-1.52.43-14.15-1.52-22-4.8.32-.24.66-.56 1.01-.99 2.08-2.49 4.15-8.12 4.03-11.26l13.04 4.45c.05.02.1.01.14.02.59 1.02.98 2.06 1.22 3.02.56 2.23.39 4 .39 4-.01.06.04.12.1.13s.12-.04.13-.1c0 0 .34-1.81-.01-4.16-.15-1-.44-2.09-.93-3.18.79.3 1.52.66 2.13 1.03 1.33.8 2.16 1.57 2.16 1.57.04.05.12.05.17.01s.05-.12.01-.17c0 0-.74-.91-1.97-1.92-.62-.51-1.37-1.02-2.21-1.47 3.22-6.65 6.46-14.75 9.18-22.84.27 2.19.71 4.53 1.35 7.06.01.27.03.54.04.8.01.13.05.24.11.34.04 2.09.17 9.99.33 19.15-2.73 4.36-5.89 8.61-8.42 9.31zm7.92-38.05c-.61-6.62.6-11.63 3.31-15.4-2.14 4.53-3.03 10.17-3.31 15.4zm2.59 63.82-.95-54.98c-.05-.2-.09-.39-.14-.59-.71-14.53 2.19-25.1 8.01-29.05 0 0 .01-.01.01-.01.76-.43 1.56-.82 2.39-1.19.35 5.02 1.74 8.37 3.26 11.62.08.18.24.32.43.39.08.03.17.04.25.04.11 0 .22-.02.33-.07 8.33-4.01 15.16-10.36 17.94-16.64 2.52 1.15 5 2.59 7.08 4.05-3.37.15-6.31 2.2-8.15 6.06-2.4 5.01-3.29 13.39.09 24.04.49 1.55 1.72 2.73 1.81 3.04 1.3 4.74 2.47 10.32 3.47 17.03-.84 12.94-5.02 30.06-7.04 38.32-.1.43-.02.88.24 1.24.23.31.56.51.94.59l-.31.78c-13.74-.09-29.34-1.95-29.66-4.67zm6.64 100.43-.03.56c-.01.11.02.21.03.31l-9.69 2.42c-.4.1-.65.51-.55.91.08.34.39.57.73.57.06 0 .12-.01.18-.02l10.49-2.62c1.17.35 2.45.55 3.84.6 1.76.06 3.69-.13 5.79-.55.16-.03.32-.1.45-.18.15.31.28.64.41.96-.09.1-.17.22-.19.37-.38 2.22-2.98 3-10.62 4.22-11 1.75-17.73.85-19.46-2.61-.02-.03-.05-.06-.07-.09 1.44-1.43 12.52-3.61 18.69-4.85zm1.47.5.18-3.07c.4.1.83.2 1.32.28 2.23.36 5.29.47 7.62.34l-.09 2.66c-2.09.42-4 .6-5.72.51-.88-.06-2.54-.14-3.31-.72zm10.82 4.69c.24 1.45.03 2.63-.92 2.93-14.49 4.6-30.23 5.62-30.44-1.28 1.84 2.03 5.32 3.06 10.46 3.06 2.76 0 6-.29 9.7-.88 5.89-.94 9.7-1.66 11.2-3.83zm1.01-9.11c-2.05.92-12.04.58-12.82-.86.93-31.06-5.05-61.82-6.46-93.05.75.37 1.73.73 2.91 1.04 5.47 1.46 15.65 2.38 25.16 2.48-2.94 2.57-6.18 7.42-8.78 9.96-.82-.06-1.59-.14-2.32-.24-.9-.12-1.72-.26-2.49-.41-.47-.09-.91-.19-1.32-.27-.47-.1-.91-.19-1.32-.28-.74-.17-1.39-.34-1.95-.52-.83-.27-1.44-.53-1.83-.76-.14-.09-.28-.19-.35-.24 0-.05-.01-.09-.03-.14-.07-.16-.26-.23-.42-.15-.19.07-.26.22-.22.46.02.11.12.29.33.51.33.35 1 .86 2.04 1.39.61.31 1.36.63 2.24.9.44.14.92.26 1.44.35.14 18.21 8.45 66.94 6.19 79.83zm17.83 18.45c.19 1.84-.24 3.43-1.37 3.86-16.73 6.28-32.69 6.06-31.81-1.36 1.62 3.05 5.44 4.01 9.78 4.01 3.32 0 6.94-.56 10.11-1.17 7.34-1.42 11.59-3.11 13.29-5.34zm-.56-2.4c-.04.08-.07.16-.08.25-.33 2.43-4.56 4.4-12.93 6.01-11.07 2.13-17.14 1.22-18.56-2.76 6.23-3.12 12.51-4.07 19.07-5.61.05.23.15.43.29.61l-11.73 3.98c-.39.13-.6.56-.47.95.11.31.4.51.71.51.08 0 .16-.01.24-.04l13.3-4.51c.03-.01.05-.03.07-.04.82.16 1.68.26 2.59.29 1.76.06 3.69-.13 5.79-.55.41-.08.74-.34.96-.68.29.5.54 1.04.75 1.59zm-11.05-2.43.17-2.86c1.47.34 3.35.55 5.19.62 1.34.05 2.65.02 3.76-.07l-.08 2.35c-3.54.72-6.57.73-9.04-.04zm11.58-4.52c-.07 1.25-11.92 1.09-13.37-.85l-10.51-88.07c.01 0 .02 0 .03.01.5.09 1.02.15 1.58.19.74.05 1.53.07 2.38.04.46-.02.93-.05 1.42-.1-.19.33-.26.72-.17 1.1.26 1.09 1.08 1.85 2.33 2.06.96.16 2.33-.09 3.77-.93-.18.54-.39 1.1-.59 1.65-.5 1.34-1.46 4.52-1.59 5.1-.3 1.27-.28 2.11-.16 2.62.2.85.68 1.27 1.17 1.49.52.23 1.18.24 1.85-.1.2-.1.41-.25.62-.42v.12c.05 1.1.58 1.7 1.03 1.95.44.24 1.04.37 1.77-.04.17-.04.56-.15.81-.3.13-.08.28-.19.44-.36.28.51.66.83 1.07 1.01.46.2 1.03.26 1.7.02.48-.17 1.04-.64 1.41-1.56.08-.2.16-.45.23-.72.06.07.13.13.19.18.34.28.72.42 1.08.46.63.06 1.48-.14 2.07-1.33.36-.72.71-2.17.8-4.7.11-3.11.84-7.3.55-14.68 0 0 .67-1.77 1.38-3.67.7.22 1.38.44 2.01.69.15.06.31.09.48.09-1.02 29.3-4.03 67.21-5.78 99.05z" fill="#010101"/><path d="m214.01 59.37c-.64-.1-1.31.02-2.02.25-1.28.41-2.68 1.17-4.22 1.57-.39.14-.59.57-.45.96s.57.59.96.45c.15-.07.28-.16.43-.23.11.42.47.74.9.72.5-.02.88-.47.86-.99-.01-.24-.11-.46-.27-.62.71-.46 1.38-.93 2.03-1.28.6-.32 1.17-.55 1.75-.57.07.01.13-.05.14-.12.02-.08-.04-.14-.11-.14z" fill="#010101"/><path d="m215.08 56.56s-1.27-.1-2.38-.16c-.84-.04-1.59-.07-1.59-.07-.12 0-.24.03-.34.09l-4.79 2.74c-.36.21-.47.67-.26 1.03s.67.47 1.03.26l4.55-2.81c.27-.01.81-.02 1.39-.05 1.11-.05 2.38-.14 2.38-.14.25 0 .45-.2.45-.45.01-.23-.19-.44-.44-.44z" fill="#010101"/><path d="m230.2 56.08c.12-.58.42-.9.75-1.05.2-.09.41-.05.61.01.25.07.46.28.51.57.06.21.08.46.07.74-.02.37-.08.79-.26 1.23-.25.61-.63 1.27-1.3 1.93-.14.11-.16.31-.06.44.11.14.3.16.44.06.64-.38 1.13-.8 1.52-1.23.34-.38.58-.76.76-1.14.23-.48.34-.96.38-1.39.03-.38-.02-.72-.1-1.02-.14-.45-.4-.83-.76-1.08-.52-.36-1.2-.52-1.81-.32-.73.24-1.44.9-1.39 2.2-.01.17.11.33.29.34s.33-.12.35-.29z" fill="#010101"/><path d="m177.91 120.29c-1.22.2-2.08.75-2.67 1.5-1.27 1.62-1.23 3.99-1.23 3.99-.01.1.07.18.17.18.1.01.18-.07.18-.17 0 0 .23-1.64 1.23-2.88.53-.66 1.31-1.15 2.43-1.14.41-.03.72-.39.69-.8-.03-.4-.39-.71-.8-.68z" fill="#010101"/></g></svg>