<?xml version="1.0" encoding="utf-8"?>
<!-- Generator: Adobe Illustrator 22.1.0, SVG Export Plug-In . SVG Version: 6.00 Build 0)  -->
<svg version="1.1" id="Слой_7" xmlns="http://www.w3.org/2000/svg" xmlns:xlink="http://www.w3.org/1999/xlink" x="0px" y="0px"
	 viewBox="0 0 512 512" style="enable-background:new 0 0 512 512;" xml:space="preserve">
<style type="text/css">
	.st0{fill:#878787;stroke:#000000;stroke-width:3;stroke-linecap:round;stroke-linejoin:round;stroke-miterlimit:10;}
	.st1{fill:#4D7450;stroke:#000000;stroke-width:3;stroke-linecap:round;stroke-linejoin:round;stroke-miterlimit:10;}
	.st2{fill:#857154;stroke:#000000;stroke-width:3;stroke-linecap:round;stroke-linejoin:round;stroke-miterlimit:10;}
	.st3{fill:#F6F6F6;stroke:#000000;stroke-width:3;stroke-linecap:round;stroke-linejoin:round;stroke-miterlimit:10;}
	.st4{fill:#FCE0C5;stroke:#000000;stroke-width:2;stroke-linecap:round;stroke-linejoin:round;stroke-miterlimit:10;}
	.st5{fill:none;stroke:#000000;stroke-width:2;stroke-linecap:round;stroke-linejoin:round;stroke-miterlimit:10;}
	.st6{fill:#857154;stroke:#000000;stroke-width:2;stroke-linecap:round;stroke-linejoin:round;stroke-miterlimit:10;}
	.st7{fill:#FCE0C5;stroke:#000000;stroke-width:1.7238;stroke-linecap:round;stroke-linejoin:round;stroke-miterlimit:10;}
	.st8{fill:none;stroke:#1D1D1B;stroke-width:2;stroke-linecap:round;stroke-linejoin:round;stroke-miterlimit:10;}
	.st9{fill:#FFFFFF;}
	.st10{fill:none;stroke:#000000;stroke-linecap:round;stroke-linejoin:round;stroke-miterlimit:10;}
	.st11{fill:#F6F6F6;stroke:#000000;stroke-width:2;stroke-linecap:round;stroke-linejoin:round;stroke-miterlimit:10;}
	.st12{fill:#817870;stroke:#000000;stroke-width:2;stroke-linecap:round;stroke-linejoin:round;stroke-miterlimit:10;}
	.st13{fill:#FFD25B;stroke:#000000;stroke-width:2;stroke-linecap:round;stroke-linejoin:round;stroke-miterlimit:10;}
	.st14{fill:#FFFFFF;stroke:#000000;stroke-width:2;stroke-linecap:round;stroke-linejoin:round;stroke-miterlimit:10;}
	.st15{fill:#FFFFFF;stroke:#000000;stroke-width:0.75;stroke-linecap:round;stroke-linejoin:round;stroke-miterlimit:10;}
</style>
<g>
	<polyline class="st0" points="489.5,297.3 517.5,297.3 517.5,323.6 143.5,323.6 143.5,297.3 154.7,297.3 	"/>
	<rect x="154.7" y="43.3" class="st1" width="334.9" height="258.1"/>
	<rect x="341.4" y="279.2" class="st2" width="196.6" height="223.7"/>
	<g>
		<path class="st3" d="M449.5,240.3h-76.1c-3.3,0-6-2.7-6-6v0c0-3.3,2.7-6,6-6h76.1c3.3,0,6,2.7,6,6v0
			C455.5,237.6,452.8,240.3,449.5,240.3z"/>
		<path class="st3" d="M454.6,253h-76.1c-3.3,0-6-2.7-6-6v0c0-3.3,2.7-6,6-6h76.1c3.3,0,6,2.7,6,6v0
			C460.6,250.3,457.9,253,454.6,253z"/>
		<path class="st3" d="M459.7,265.7h-76.1c-3.3,0-6-2.7-6-6l0,0c0-3.3,2.7-6,6-6h76.1c3.3,0,6,2.7,6,6l0,0
			C465.7,263,463,265.7,459.7,265.7z"/>
		<path class="st3" d="M464.9,278.4h-76.1c-3.3,0-6-2.7-6-6v0c0-3.3,2.7-6,6-6h76.1c3.3,0,6,2.7,6,6v0
			C470.9,275.8,468.2,278.4,464.9,278.4z"/>
	</g>
	<path class="st4" d="M33.5,260c0,2.2-0.9,26.2-1.2,35.1c-0.1,3.1-0.1,8.2,0.6,11.2c0.7,3.1,2,3.4,3.4-1.4c0,0,5.3,20.4,6,2.7v-10.5
		c0,0,5.8,28,6,7.3L47,292c0,0,10,28.3,8.3,15S49,283.5,49,283.5s6.1,8.9,8,10.5c2.2,1.9,1-5-3.8-15.8s-5.5-13.5-4.3-17.5
		S33.5,257.3,33.5,260z"/>
	<path class="st4" d="M237.7,156.1c1.7-1,24.4-3.1,28.7-7.1c4.7-4.3,8.7-10,2.3-10.3c0,0,7.6-3,2.5-6.3c0,0,6.4-5,1.7-9.3
		c0,0,1-10-7.7-10c-3.5,0-6.8,1.7-9,4.5l-1.5,1.9c0,0-4.1-11.7-4.7-7.9c-0.5,3.7-7.5,18.9-8.5,23.6c-1,4.7-5.6,13.3-14.2,17.3
		C219.7,156,236,157.1,237.7,156.1z"/>
	<path class="st4" d="M80.7,107.4v17.3c0,2.7-1.6,5.2-4,6.4l-19.9,9.6l39,25.7l26.6-37.2l-15.8-3.1c-2.2-0.4-3.7-2.3-3.7-4.5v-15.8
		L80.7,107.4z"/>
	<path class="st5" d="M36.3,305c0,0,0.8-8.9,0-13.4"/>
	<line class="st5" x1="42.3" y1="297.3" x2="41" y2="291.6"/>
	<path class="st5" d="M268.7,138.7c0,0-18.4-3.1-11.8,1.5c5.3,3.6,8.2,3.3,8.2,3.3"/>
	<path class="st5" d="M271.1,132.3c0,0-10.3-4-13.6-1.5c-0.9,0.7-0.8,2.1,0.1,2.8c1.9,1.4,5.5,4,6.7,4.2"/>
	<path class="st5" d="M272.9,123c0,0-11.4-3.8-13.9,0.6c-0.5,0.8,0,1.9,1,2.2c2.6,0.8,8.8,3.5,9.7,5.2"/>
	<path class="st5" d="M256.5,117.1c0,0-0.3,2,6.9,2.3c0,0,3.2,0,4.2,2.1"/>
	<path class="st6" d="M74,44c0,0-18.5-0.3-20.5,29s10.8,49,26,37.7l22.5-2c0,0,7.8,7.3,15,0.5c7.2-6.7,12.9-30.7,1.6-55.7
		c-0.2-0.4-0.4-0.9-0.6-1.3c-1.2-2.8-11.8-15-24.3-10C93.8,42.3,83.8,36.8,74,44z"/>
	<ellipse transform="matrix(0.1653 -0.9862 0.9862 0.1653 12.9452 182.281)" class="st7" cx="114.2" cy="83.5" rx="8.1" ry="5.1"/>
	
		<ellipse transform="matrix(0.9982 -6.024274e-02 6.024274e-02 0.9982 -4.9106 4.1082)" class="st7" cx="65.7" cy="83.5" rx="5.1" ry="8.1"/>
	<path class="st8" d="M69.8,50.5c0,0,0.9-5.4,7.7-8.6"/>
	<path class="st8" d="M93.8,42.3c0,0,4.8,1.7,7.5,4"/>
	<path class="st4" d="M115.6,78c0,19.4-9.1,39.1-25,39.1c-15.9,0-25.2-19.3-25.2-38.6c0-3.3,0.3-6.3,0.8-9.2c2,1.7,5.2,0.5,10.1-9.6
		c0,0,3,18.3,9.8-1.5c0,0,5.3,15.5,11,0.8c0,0,3.7,13.8,9.8,0.5c0,0,3.3,11.2,8.3,11.1C115.4,72.9,115.6,75.4,115.6,78z"/>
	<ellipse cx="80.7" cy="80.4" rx="3.3" ry="5.6"/>
	<circle class="st9" cx="80.7" cy="80.4" r="2"/>
	<path class="st5" d="M74.8,77.1c0,0,5-4.4,10.5-0.6"/>
	<ellipse cx="99.5" cy="80.4" rx="3.3" ry="5.6"/>
	<circle class="st9" cx="99.5" cy="80.4" r="2"/>
	<path class="st5" d="M105.5,77.1c0,0-5-4.4-10.5-0.6"/>
	<path class="st6" d="M79.7,462.6c0,0-2.3,12.7-0.2,16c2.1,3.3,13.9,1.5,17,4.2c3,2.7,8.4,10.6,28.8,7.1c1.8-0.3,3.5-1.4,4.4-3
		c1.5-2.7,1.1-6.9-11.4-10.7c0,0-13.7-5-18.5-11.3s-10.2-3.3-10.2-3.3L79.7,462.6z"/>
	<path class="st10" d="M86.8,91.8c0,0,5-1.5,7,0"/>
	<path class="st10" d="M84,101.6c0,0,6.8,11.3,14.3,0"/>
	<path class="st6" d="M65.3,467.2l0.6-1.2c0,0-5.2,11.7-1.9,18.7c3.3,7,8.7,18.7,24.7,15.7c0,0,14.3-2.3,4.3-13.7
		C83,475.3,74.3,468,74.3,468L65.3,467.2z"/>
	<path class="st5" d="M76.5,71.9c0,0,7.9-3.5,8.8-3.9"/>
	<path class="st5" d="M95,67c0,0,7.6,3.2,8.7,3.6"/>
	<path class="st4" d="M84.7,393.7L79,419c0,0,4.3,31,2.8,37.3c-1.5,6.3-9.2,18.3,17.8,17.3c0,0,0.5-4.7,4.1-4.7
		c0,0-12.8-6.7-6.8-36.5s6.8-38.8,6.8-38.8l-12.4-5L84.7,393.7z"/>
	<path class="st11" d="M256.8,103.3l5.2,4.8l-0.1,5.5c0,0-6.2,2.7-5.5,3.7c0.7,1,6.9,2.3,6.9,2.3l-1.3,2.1l-3.1,2.1l2.3,2.7
		l-1.4,2.3L251,136L256.8,103.3z"/>
	<path class="st4" d="M66.7,388.7v75.7l-2.1,7l2.1,5c0,0,9.3-5.3,12-4.3c2.7,1-5-5.7-2.3-15.7c2.7-10,8.3-54,8.3-54l-8-13.7H66.7z"
		/>
	<path class="st12" d="M65,241c0,0-8.2,15.8-8.7,32.4c-0.5,15.7,8,126.2,8.7,130.6s34.2,9.7,38.8,5c0,0,24.9-88.5,26.6-98.6
		c1.7-10.1,11.3-58.1-2.3-76.8C128,233.7,64.3,243.3,65,241z"/>
	<path class="st13" d="M58.1,140c0,0-11.6,1.7-17.7,22.7c0,0-6,35.7-7.7,50c-1.2,10.4-1.7,33.6-1.8,45.7c-0.1,4.1,3.4,7.3,7.5,6.9
		l7-0.7c3.6-0.3,6.3-3.4,6.2-7c-0.4-18.4-0.9-71.4,6.6-85.4c0,0,13.6,30.4,12.9,37.1C70.3,216,61,245,61,245s48,14.3,70-9.3
		c0,0-10.7-38-6.7-47c2.1-4.7,3.6-8.9,4.6-12.9c1.3-5.3,0.7-11-1.4-16l-1.2-2.8c0,0,27.9,38.2,55,31.1c20.3-5.3,45.3-20.9,56.7-28.4
		c3.4-2.2,4.3-6.7,2.1-10.1l-0.1-0.1c-2.2-3.4-6.7-4.3-10.1-2.1c-13.9,9-48.5,28.3-69.2,12.9c-26.3-19.6-24.7-32.2-38.3-30.3
		c0,0-13.6,33.2-50.3,16.1C72,146.1,60.8,138.3,58.1,140z"/>
	<path class="st14" d="M89.1,160l4.6-9c0,0-14.1,2.3-25.1-7.5s-15.4-0.9-15.4-0.9s6,0.7,7.7,4.4S67.9,162.3,89.1,160z"/>
	<path class="st14" d="M101.2,150l8.2,7c0,0,9.8-2.5,13-16.4C125,129,125,129,125,129l-7.1-0.8c0,0-1.5,9.3-4.9,13.3
		S101.2,150,101.2,150z"/>
	<circle class="st15" cx="99.6" cy="160.3" r="5.8"/>
</g>
</svg>
