<svg enable-background="new 0 0 297.64 297.64" viewBox="0 0 297.64 297.64" xmlns="http://www.w3.org/2000/svg"><g clip-rule="evenodd" fill-rule="evenodd"><path d="m249.95 158.27c-13.37-14.63-28.28-15.53-42.82 1.84-7.01 8.37-13.38 20.35-20.04 37.46 5.5 3.5 15.63 4.83 17.17 4.76l2.19-25.66-2.84 33.31c3.37-.89 6.6-.39 10.04.34 4.07.86 8.04 1.15 12.19 1.37 3.07.16 6.08.11 9.07-.08 5.83-1.88 12.64-3.66 18.75-2.74l-3.36-30.84 2.57 23.54c2-.16 14.62-2.33 17.51-6.65-6-15.02-13.16-28.69-20.43-36.65z" fill="#bbe4f9"/><path d="m113.24 127.6-13.52 14.8c-13.57-3.87-28.15-6.16-33.85-3.46l-11.77-15.23-15.37 18.69s9.94 15.58 19.42 23.79c-2.24 18.29-3.22 47.57-3.33 60.83l58.4-1.43c-1.69-18.57-3.44-39.97-7.16-58.98 10.08-5.61 18.23-14.64 21.32-21.2-1.87-1.4-14.14-17.81-14.14-17.81z" fill="#bbe4f9"/><path d="m147.03 86.88c2.89-1.68 6.07-5.23 7.22-6.54 1.85-2.11.51-3.77-.96-2.32-1.9 1.87-4.62 4.63-8.05 5.85 1.39-1.66 2.32-3.6 2.88-4.77 1.78-3.71-.32-4.72-1.46-2.83-.17.29-1.37 2.06-3.46 4.33-1.92 2.08-4.76 4.69-4.76 4.69s-.65-4-1.64-5.22c-1.13-1.39-1.93-.92-2.06.4-.13 1.35.62 4.07-.28 5.2-2.46 3.07-.12 7.14-.12 7.14l-19.86 27.68-1.26 5.86 6.7 9.21 20.8-37.69s2.2-.13 4.64-1.07c1.78-.69 3.62-2.34 5.25-2.09 4.73.75 5.54-1.82 4.18-2.31-.83-.3-4.24.39-7.28-2.06 2.32-.63 9.67-3.99 9.65-5.83-.07-3.13-5.97 3.15-10.13 2.37z" fill="#ffe7cc"/><path d="m39.25 87.57s1.96-4.09.09-7.55c-.69-1.27.54-3.82.65-5.17.11-1.32-.59-1.93-1.96-.76-1.2 1.02-2.33 4.81-2.33 4.81-.1.65-3.77-4.59-4.87-8.42-1.28-4.48-3.29-3.22-2.93-.13.22 1.85.65 3.6 1.29 5.71-3.35-.71-4.5-5.53-6.59-7.19-1.72-1.37-2.32.55-1.52 2.14.86 1.72 3.12 5.8 5.67 7.97-4.24.03-8.46-6.17-9.53-4.13-1.38 2.64 6.28 6.43 8.46 7.46-3.43 1.86-6.92.7-7.79.85-1.43.24-.83 2.79 3.96 2.89 1.65.04 2.99 1.43 4.62 2.42 2.24 1.37 4 3.43 4 3.43l14.93 40.74 8.23-9.63-.14-4.47z" fill="#ffe7cc"/><path d="m106.47 118.69c.02-.12.04-.24.06-.36 2.23-14.68-6.12-28.15-18.64-30.05s-24.49 8.48-26.72 23.16c-.04.27-.07.54-.1.81-.96-.55-1.95-.7-2.72-.26-1.43.81-1.55 3.25-.26 5.44.78 1.33 1.9 2.26 2.97 2.62 1.12 8.79 6.03 16.24 13.05 19.66l.27 4.15c.2.71 1.27 1.86 1.88 2.46 2.89 2.81 8.98 3.44 12.56-1.04l.78-4.77c6.27-2.24 11.65-7.45 14.68-14.37 1.16 0 2.55-.58 3.71-1.67 1.86-1.74 2.45-4.11 1.3-5.29-.63-.66-1.69-.79-2.82-.49zm-16.45 12.5c-1.76 2.82-5.08 5.76-8.63 5.26-1.89-.27-3.4-1.45-4.71-2.76-.56-.56-1.09-.99-1.5-1.67-.22-.37-.48-.99-.62-1.4-.03-.08-.05-.17-.08-.25-.01-.03.43.06.42.04-.01-.01-.44-.09-.46-.1-.75-.65-.9-2.24-.24-2.9.7-.7 1.98-.34 2.72.23.09.03.18.06.26.09 3.64.65 7.03 1 10.76 1 .99 0 2.25-.23 2.25.77 0 .09-.01.19-.03.28.14.47.12.99-.14 1.41z" fill="#ffe7cc"/><path d="m267.65 199.26c-3.47 2.24-8.19 3.35-12.87 3.68l1.59 5.95c-10.18.92-18.06 2.17-25.04 3.55-11.33-1.33-21.58-2.15-30.54-2.38l1.27-6.44-13.18-3.23c-2.38 8.76-2.38 16.86-1.31 18.78 2.16 3.87 21.57 3.26 33.18 2.16-.22.23-.52.47-.92.71-2.18 1.3-6.13 1.5-5.29 2.77.85 1.27 10.69-2 10.69-2s-8.4 4.18-7.36 5.85c.97 1.55 10.6-4.23 10.6-4.23s-4.01 4.13-3.72 4.71c.84 1.7 6.11-2.81 8.62-4.86 1.77 1.19 3.27 2.11 3.76 2.41 3.84 2.37 3.79.08 3.75-.15-.12-.59-4.04-3.52-4.04-3.52s3.66 1.38 5.96 2.27c2.64 1.01 4.84-.47 2.18-2.11-.85-.53-2.35-1.65-3.65-2.65.48.03.98.06 1.47.09 1.54.84 3.13 1.78 3.93 2.45 3.18 2.68 3.82.45 2.09-2.18 9.65.27 19.27-.27 20.76-2.93 1.08-1.87.45-9.94-1.93-18.7zm-42.49 21.6c.56-.07 1.09-.15 1.56-.22l.28-.36c.48.21 1.05.41 1.74.59.77.65 1.62 1.31 2.48 1.93z" fill="#ffe7cc"/><path d="m207.36 131.63c2.58 7.81 8.23 13.87 15.25 16.22l.42 4.08c1.48 3.78 8.65 5.92 12.01.21l.37-4.23c7.09-2.31 12.82-8.38 15.42-16.24 1.27.01 2.8-.8 3.94-2.22 1.6-2 1.83-4.42.5-5.41-.76-.57-1.87-.53-2.98-.02.04-.63.07-1.27.07-1.92 0-14.81-10.42-26.84-23.26-26.84s-23.26 12.03-23.26 26.84c0 .64.03 1.28.07 1.91-1.12-.5-2.24-.53-3 .05-1.31 1.01-1.05 3.43.57 5.41 1.13 1.36 2.63 2.14 3.88 2.16z" fill="#ffe7cc"/><path d="m91.2 140.29c-.16.12-.35.21-.52.31.05 4.32-2.6 8.66-7.93 9 .18.25.39.54.62.87l-2.4-.15c.21-.27.39-.51.55-.72-5.26-.28-7.93-4.43-8.02-8.66-.16.01-.31.03-.48.03-2.14 0-3.87-.62-5.21-1.62-.54 1.61-.71 3.48-.4 5.63 1.48 4.47 3.77 8.28 6.21 11.32.35.42.87.66 1.42.65s1.06-.27 1.39-.7c.86-1.12 2-2.62 3.04-3.98l-1.2 27.44 7.14.01-.75-27.46c1.03 1.44 2.19 3.05 3.06 4.27.33.46.86.74 1.43.75s1.11-.25 1.46-.7c2.62-3.39 4.96-6.89 6.35-10.61 1.25-3.34.75-6.17-.83-8.43-1.15 1.4-2.8 2.41-4.93 2.75z" fill="#fff"/><path d="m43.26 149.47 2.36 2.72 14.94-16.98-2.35-2.4z" fill="#fff"/><path d="m104.7 136.18 15.36 19.52 2.68-2.78-15.11-18.86z" fill="#fff"/><path d="m55.33 128.13-15.02 16.8 1.89 2.49 15.55-16.98z" fill="#fff"/><path d="m108.85 132.81 15.07 18.1 2.31-2.55-15.14-17.57z" fill="#fff"/><path d="m241.02 151.08c-1.39-.9-3.04-1.79-4.91-2.47-.02.25-.05.49-.11.73-.22.86-.26 1.76-.56 2.6-.64 1.79-1.97 3.35-3.93 3.74h-.01c-.38.15-.78.26-1.21.32-.33.04-.53.07-.83.07-.71 0-1.43-.17-.95-.12-.55-.07-1.1-.12-1.63-.25-2.34-.59-4.24-2.28-4.91-4.61-.21-.73-.25-1.49-.17-2.24-1.83.72-3.72 1.73-5.67 3.11-.23 4.02-.35 10.07 3.06 11.87 1.26.66 4.89-2.14 7.49-4.56l-.73 25.91 7.08.04-.84-26.6c2.43 2.01 5.89 4.45 7.94 4.65 2.74.26 2.13-9.92.89-12.19zm-12.4 6.25c.59-.65.95-1.12.9-1.22.17.24.63.7 1.26 1.28z" fill="#fff"/><path d="m189.05 190.23 15.38 4.67.34-3.12-14.7-4.27z" fill="#fff"/><path d="m268.48 188.34-1.02-2.62-14.73 5.66.33 3.07z" fill="#fff"/><path d="m187.4 195.01 16.73 4.66.31-3.03-16.01-4.58z" fill="#fff"/><path d="m269.11 190.1-16.05 6.09.3 2.99 16.78-6.23z" fill="#fff"/><path d="m229.24 167.68c.78.06 1.47-.56 1.53-1.37.07-.81-.51-1.52-1.29-1.58s-1.47.56-1.53 1.37c-.06.82.52 1.52 1.29 1.58z" fill="#203756"/><path d="m229.27 174.25c.78.06 1.47-.56 1.53-1.37.07-.81-.51-1.52-1.29-1.58s-1.47.56-1.53 1.37c-.07.82.51 1.52 1.29 1.58z" fill="#203756"/><path d="m229.54 177.87c-.78-.06-1.47.56-1.53 1.37-.07.81.51 1.52 1.29 1.58s1.47-.56 1.53-1.37c.06-.82-.51-1.52-1.29-1.58z" fill="#203756"/><path d="m81.7 162.55c.78.06 1.47-.56 1.53-1.37.07-.81-.51-1.52-1.29-1.58s-1.47.56-1.53 1.37c-.07.82.51 1.52 1.29 1.58z" fill="#203756"/><path d="m81.72 169.12c.78.06 1.47-.56 1.53-1.37.07-.81-.51-1.52-1.29-1.58s-1.47.56-1.53 1.37c-.06.82.51 1.52 1.29 1.58z" fill="#203756"/><path d="m81.99 172.74c-.78-.06-1.47.56-1.53 1.37-.07.81.51 1.52 1.29 1.58s1.47-.56 1.53-1.37c.07-.82-.51-1.52-1.29-1.58z" fill="#203756"/><path d="m258.06 113.12c-3.71-11.7-10.61-19.06-18.17-21.93-9.37-4.53-18.58 1.85-18.58 1.85-2.7-1.13-5.66-.46-8.59 1.65-15 8.8-24.3 50.12 9.63 54.43.01-.23.02-.44.04-.66-.02-.01-.04-.02-.06-.03-2.74-.86-5.12-2.46-7-4.53-1.28-.76-2.45-1.71-3.48-2.85-1.01-1.12-1.92-2.34-2.81-3.56-1.04-1.43-1.81-2.9-2.03-4.67 0-.04 0-.07 0-.1-1.27-.39-2.48-.97-3.48-1.86-.79-.7-1.34-1.57-1.69-2.52-.01-.03-.03-.06-.04-.09-.02-.05-.03-.11-.05-.17-.05-.16-.1-.32-.14-.49-.2-.83-.27-1.71-.18-2.58.09-.96.74-1.78 1.78-1.78.23 0 .46.05.67.15.33-.1.69-.17 1.09-.17.38 0 .71.06 1.03.15.02-.03.02-.06.04-.08.22-.37.64-.71 1.06-.82.02 0 .04-.01.06-.02.01-.01.02-.01.04-.02.01-.01.02-.02.03-.03.03-.06.07-.11.1-.17.02-.03.03-.07.05-.1.11-.33.2-.68.26-1.02.08-.45.45-.83.82-1.06.4-.26.91-.28 1.37-.18.32.07.63.29.86.55.08-.1.17-.2.25-.3.02-.03.07-.09.11-.14.03-.05.06-.09.08-.11.08-.11.14-.23.21-.34.03-.08.08-.23.1-.31.31-1.67 1.95-2.61 3.53-2.67.28-2.83 3.36-3.7 5.46-2.64.09-.01.17-.03.26-.03.16.02.31.04.47.06.13.03.24.08.35.14 1.04-.45 2.11-.81 3.21-1.04.41-.38.91-.69 1.49-.88 1.08-.35 2.3-.04 3.22.64.47.05.92.12 1.37.21 1.25-.62 2.93-.56 3.98.32.19-.07.39-.11.6-.11.86 0 1.71.72 1.77 1.6.14.04.29.07.44.1.89.18 1.86.38 2.51 1.07.19.2.35.44.51.67 0 0 0 0 .01.01.1-.01.24.05.34.07.19.04.39.06.58.11 1.2.33 1.87 1.26 2.13 2.42l.04.17c0 .01 0 .01.01.02.03.01.05.01.06.01.48.08.96.2 1.37.46 1 .62 1.43 1.69 1.81 2.75.04.12.08.23.12.35.01.02.05.1.06.14.06.11.19.35.08.2.46.62.1.12.1.12 0 .01.08.05.12.07.04.01.08.03.11.04.42.1.85.08 1.27.23.35.12.7.27 1.03.43.01 0 .01.01.02.01.36.11.7.27 1 .52.41-1.09 1.35-1.95 2.86-1.95 3.16 0 3.9 3.73 2.24 5.5-.12 1.31-.93 2.54-2.44 2.82-.47.54-1.17.9-2.06.96-.2 2.71-1.71 5.29-3.29 7.41-1.64 2.2-3.59 4.47-6.02 5.82-.04.02-.07.03-.11.05-1.26.84-2.62 1.53-4.05 2.01-.8.4-1.62.75-2.47 1.02.03.15.07.3.09.46 22.17-3.72 26.84-21.89 22.44-35.76z" fill="#978771"/><path d="m113.44 110.29c-1.86-12.14-7.47-20.46-14.42-24.43-8.46-5.88-18.4-.92-18.4-.92-2.46-1.51-5.45-1.3-8.62.37-15.95 6.5-31.23 46.08 1.19 55.37.06-.37.15-.71.24-1.03-7.16-3.23-12.15-11.27-12.94-19.25-.6-.19-1.18-.41-1.7-.73-1.67-.99-2.78-2.72-2.77-4.68-.06-.59-.04-1.18.06-1.81.08-.56.51-.94 1.02-1.14.1-.11.22-.21.35-.3.78-.5 2.01-.19 2.43.64.08.16.19.31.29.46.2.23.42.44.65.64.1-.12.22-.24.35-.35l.88-1.28c.35-1.27 1.64-2.34 2.99-2.28 2.55.12 4.79-2.78 7.07-3.82 2.4-1.09 4.34 0 6.85-.38 2.85-.44 3.63-1.18 6.63-.26 1.77.55 3.67.59 5.45 1.4.87.39 1.72.89 2.52 1.44.05.06.11.09.17.11 1.59 1.13 3.02 2.53 4.16 4.05.78 1.05 1.23 2.22 1.94 3.28.79 1.18 1.42 1.57 2.17 1.98-.03.74.12 1.23.63 1.14.32-.06.6-.15.86-.26.39.27.72.56 1 .86 0 .28.12.47.41.49.08.11.16.23.23.35.01-.01.03-.03.04-.04.68-.78 1.41-1.51 2.32-2.03.82-.47 1.96-.2 2.43.64.8 1.44 1.06 3.02.37 4.55-.74 1.64-2.45 2.6-4.16 3.21-.01.01-.02.01-.02.02-.08.06-.16.12-.25.17-.32.19-.69.33-1.03.47-.1.04-.21.08-.32.1-.09.19-.17.37-.26.56-.66 1.35-1.4 2.59-2.2 3.72-.61 1.66-1.68 3.12-3.21 4.11-.83 1.16-1.96 2.12-3.41 2.71-.78.72-1.72 1.3-2.83 1.67-.92.69-6.45 2.45-6.45 2.56 22.2-.37 29.49-17.69 27.29-32.08z" fill="#978771"/></g><path d="m205.67 56.27c-.15-.29-.36-.56-.64-.78l-14.4-11.14c-1.02-.78-2.48-.6-3.26.42s-.6 2.48.42 3.26l4.94 3.82c-23.63-6.06-53.12-7.92-73.01 3.34-1.12.63-1.51 2.05-.88 3.17.43.76 1.21 1.18 2.03 1.18.39 0 .78-.1 1.14-.3 12.73-7.2 37.35-11.37 69.67-2.88l-6.43.65c-1.28.13-2.21 1.27-2.08 2.55.12 1.2 1.13 2.09 2.31 2.09.08 0 .16 0 .24-.01l18.23-1.83c1.28-.13 2.21-1.27 2.08-2.55-.06-.37-.19-.7-.36-.99z" fill="#91c83e"/><g clip-rule="evenodd" fill-rule="evenodd"><g fill="#010101"><path d="m103.02 113.16c.33-.63.41-1.17.41-1.17s-.18.47-.41 1.17z"/><path d="m248.05 117.51c.24-.67.23-1.21.23-1.21s-.1.49-.23 1.21z"/><path d="m229.17 168.74c.69.05 1.35-.2 1.84-.65.46-.42.77-1.02.83-1.7.06-.69-.16-1.33-.54-1.81-.41-.52-1.03-.86-1.73-.92-.69-.05-1.35.2-1.84.65-.46.42-.77 1.02-.83 1.7-.06.69.16 1.33.54 1.81.42.53 1.03.87 1.73.92zm.32-4.01c.78.06 1.35.76 1.29 1.58-.07.81-.76 1.43-1.53 1.37-.78-.06-1.35-.76-1.29-1.58.07-.81.75-1.42 1.53-1.37z"/><path d="m229.59 170.24c-.7-.05-1.35.2-1.84.65-.46.42-.77 1.02-.83 1.7-.06.69.16 1.33.54 1.81.41.52 1.03.86 1.73.92.69.05 1.35-.2 1.84-.65.46-.42.78-1.02.83-1.7.06-.69-.16-1.33-.54-1.81-.41-.53-1.02-.87-1.73-.92zm-.32 4.01c-.78-.06-1.35-.76-1.29-1.58.07-.81.76-1.43 1.53-1.37.78.06 1.35.76 1.29 1.58-.07.81-.75 1.42-1.53 1.37z"/><path d="m229.62 176.81c-.7-.05-1.35.2-1.84.65-.46.42-.77 1.02-.83 1.7-.06.69.16 1.33.54 1.81.41.52 1.03.87 1.73.92.69.05 1.35-.2 1.84-.65.46-.42.78-1.02.83-1.7.06-.69-.16-1.33-.54-1.81-.42-.53-1.03-.87-1.73-.92zm-.33 4.01c-.78-.06-1.35-.76-1.29-1.58.07-.81.76-1.43 1.53-1.37.78.06 1.35.76 1.29 1.58-.06.81-.75 1.43-1.53 1.37z"/><path d="m236.73 136.75c.17-.41-.01-.88-.42-1.05s-.88.01-1.05.42c-1.01 2.33-3.27 3.46-5.62 3.44-2.26-.02-4.61-1.11-6.07-3.26-.25-.37-.75-.46-1.11-.21s-.46.75-.21 1.11c1.77 2.61 4.63 3.93 7.38 3.96 2.98.03 5.83-1.44 7.1-4.41z"/><path d="m226.68 132.19c.44.07.85-.23.91-.67.15-.99 1.01-1.5 1.85-1.53.83-.03 1.69.42 1.87 1.42.08.44.49.72.93.65.43-.08.72-.49.65-.93-.34-1.89-1.92-2.8-3.5-2.74-1.56.05-3.09 1.05-3.38 2.88-.06.44.24.85.67.92z"/><path d="m222.31 122.82c.2.02.4.03.62.06.44.06.84-.25.9-.69s-.25-.84-.69-.9c-1.4-.19-2.51-.14-3.49.23-1 .38-1.87 1.09-2.72 2.29-.25.36-.17.86.19 1.11s.86.17 1.12-.19c.31-.44.62-.8.95-1.09.03.87.76 1.57 1.67 1.57.93 0 1.68-.73 1.68-1.62 0-.27-.09-.54-.23-.77z"/><path d="m237.3 121.53c-.98-.37-2.1-.42-3.49-.23-.44.06-.74.46-.69.9.06.44.46.75.9.69.22-.03.42-.05.62-.06-.14.24-.22.5-.22.79 0 .9.75 1.62 1.68 1.62.91 0 1.65-.7 1.67-1.57.32.28.64.64.95 1.09.25.36.76.45 1.12.19.36-.25.45-.75.19-1.11-.86-1.22-1.73-1.93-2.73-2.31z"/><path d="m224.41 118.05c.44.05.84-.26.89-.7s-.26-.84-.7-.89c-2.04-.25-3.78-.05-5.19.33-3.07.83-4.67 2.52-4.67 2.52-.31.32-.29.83.02 1.13.32.31.83.29 1.13-.02 0 0 1.36-1.39 3.93-2.08 1.26-.34 2.79-.51 4.59-.29z"/><path d="m232.94 118.22c1.8-.21 3.33-.02 4.58.32 2.57.71 3.92 2.11 3.92 2.11.3.32.81.34 1.13.04s.34-.81.04-1.13c0 0-1.58-1.71-4.65-2.56-1.41-.39-3.15-.6-5.19-.37-.44.05-.75.45-.7.89.03.44.43.75.87.7z"/><path d="m81.62 163.61c.69.05 1.35-.2 1.84-.65.46-.42.77-1.02.83-1.7.06-.69-.16-1.33-.54-1.81-.41-.52-1.03-.87-1.73-.92-.69-.05-1.35.2-1.84.65-.46.42-.77 1.02-.83 1.7-.06.69.16 1.33.54 1.81.42.53 1.03.87 1.73.92zm.32-4.01c.78.06 1.35.76 1.29 1.58-.07.81-.76 1.43-1.53 1.37-.78-.06-1.35-.76-1.29-1.58.07-.81.76-1.43 1.53-1.37z"/><path d="m81.64 170.18c.69.05 1.35-.2 1.84-.65.46-.42.77-1.02.83-1.7.06-.69-.16-1.33-.54-1.81-.41-.52-1.03-.86-1.73-.92-.69-.05-1.35.2-1.84.65-.46.42-.77 1.02-.83 1.7-.06.69.16 1.33.54 1.81.42.53 1.03.87 1.73.92zm.33-4.01c.78.06 1.35.76 1.29 1.58-.07.81-.76 1.43-1.53 1.37-.78-.06-1.35-.76-1.29-1.58.06-.81.75-1.43 1.53-1.37z"/><path d="m82.07 171.68c-.69-.05-1.35.2-1.84.65-.46.42-.77 1.02-.83 1.7-.06.69.16 1.33.54 1.81.41.52 1.03.86 1.73.92.69.05 1.35-.2 1.84-.65.46-.42.77-1.02.83-1.7.06-.69-.16-1.33-.54-1.81-.42-.53-1.03-.87-1.73-.92zm-.33 4.01c-.78-.06-1.35-.76-1.29-1.58.07-.81.76-1.43 1.53-1.37.78.06 1.35.76 1.29 1.57-.06.82-.75 1.43-1.53 1.38z"/><path d="m89.55 127.75c-2 .2-4.45.34-7.2.11-2.16-.18-4.51-.6-6.98-1.41-.54-.18-1.14-.05-1.57.33s-.61.96-.5 1.52c1.32 6.21 4.81 8.97 8.24 9.3 3.92.38 8.13-2.45 9.7-7.82.15-.51.03-1.06-.31-1.47-.33-.4-.85-.61-1.38-.56zm-14.68.22c2.94.96 5.71 1.39 8.22 1.54s4.75.01 6.62-.17c-2.47 8.48-12.45 9.84-14.84-1.37z"/><path d="m79.86 124.8c.42.13.87-.1 1-.52.3-.96 1.2-1.34 2.02-1.25.81.09 1.57.67 1.59 1.69.01.44.38.79.82.78s.79-.38.78-.82c-.05-1.93-1.46-3.06-3.01-3.24-1.53-.18-3.18.58-3.74 2.36-.12.42.12.87.54 1z"/><path d="m75.71 114.27c1.28-.1 2.53.52 3.04 1.52.2.39.68.55 1.07.35s.55-.68.35-1.07c-.77-1.54-2.65-2.56-4.59-2.4-1.54.13-3.14.97-4.2 2.9-.21.39-.07.87.31 1.09s.87.07 1.09-.31c.74-1.36 1.84-1.99 2.93-2.08z"/><path d="m92 115.11c-1.57-.5-3.45-.25-4.91 1.14-.32.31-.33.81-.02 1.13s.81.33 1.13.02c.99-.95 2.26-1.11 3.32-.78 1.12.36 2.03 1.28 1.99 2.46-.02.44.33.81.77.83s.81-.33.83-.77c.07-1.89-1.29-3.45-3.11-4.03z"/><path d="m74.37 110.07c1.17-.29 2.29-.07 3.13.29.41.17.88-.02 1.05-.43s-.02-.88-.43-1.05c-1.11-.46-2.59-.75-4.13-.36-1.16.29-2.37.96-3.47 2.24-.29.33-.25.84.08 1.13s.84.25 1.13-.08c.83-.99 1.75-1.52 2.64-1.74z"/><path d="m94.18 111.19c-1.01-.6-2.33-.89-3.95-.74-.44.04-.76.43-.72.87s.43.76.87.72c1.23-.11 2.23.08 3 .53.86.5 1.41 1.34 1.69 2.35.12.43.56.68.98.56.43-.12.68-.56.56-.98-.4-1.44-1.21-2.6-2.43-3.31z"/><path d="m141.64 91.39c-.98.13-1.95.53-2.7 1.23-.14.1-.16.3-.06.44.11.14.3.16.44.06.71-.46 1.54-.65 2.36-.61.76.04 1.48.34 2.02.87.34.28.85.22 1.13-.12s.22-.85-.12-1.13c-.91-.62-1.99-.88-3.07-.74z"/><path d="m31.24 84.36c-1.04-.33-2.15-.26-3.16.18-.39.21-.53.7-.32 1.09s.7.53 1.09.32c.64-.43 1.39-.6 2.15-.5.81.11 1.6.44 2.21 1.02.11.13.31.14.44.02s.14-.31.02-.44c-.61-.82-1.49-1.39-2.43-1.69z"/><path d="m155.18 82.28c-.27.1-.57.23-.89.39.48-.52.87-.96 1.15-1.28 1.58-1.8 1.44-3.5.95-4.35-.45-.78-1.21-1.22-2.16-1.17-.6.03-1.35.29-2.07 1-.66.65-1.43 1.43-2.3 2.2.92-2.38.39-3.93-.21-4.58-1.02-1.1-3.06-1.22-4.37.95-.16.27-1.29 1.93-3.26 4.07-.81.88-1.78 1.85-2.63 2.67-.09-.32-.18-.64-.29-.95-.3-.9-.68-1.69-1.07-2.17-1.18-1.45-2.37-1.56-3.12-1.33-.81.25-1.63 1.09-1.78 2.59-.07.74.08 1.85.14 2.93.02.39.03.77-.01 1.11-.02.12-.01.24-.07.32-1.57 1.97-1.66 4.24-1.3 6.03.15.78.39 1.45.59 1.96l-17.18 25.03c.19-2.57.09-5.15-.29-7.65-1.56-10.15-5.66-17.74-10.94-22.49-1.32-1.19-2.72-2.2-4.17-3.04-.8-.55-1.61-1.02-2.42-1.41-7.05-3.36-14.4-.92-16.78.05-2.27-1.11-4.87-1.12-7.64-.09-.55.2-1.1.46-1.66.75-1.08.44-2.16 1.01-3.22 1.72-6.76 4.46-12.93 14.08-14.97 24.26-.35 1.76-.58 3.54-.67 5.31l-12.52-27.86c.29-.46.64-1.09.93-1.82.67-1.7.99-3.95-.21-6.17-.05-.09-.02-.2-.01-.32.02-.34.09-.72.19-1.1.26-1.05.6-2.12.66-2.86.12-1.5-.53-2.48-1.29-2.87-.69-.36-1.88-.46-3.31.76-.48.41-.99 1.14-1.42 1.98-.15.3-.29.61-.43.92-1.03-1.6-2.24-3.85-2.78-5.73-.6-2.11-1.46-3.21-2.13-3.65-.65-.43-1.28-.5-1.84-.37-.54.12-1.05.44-1.45 1.02-.47.68-.82 1.92-.63 3.5.04.3.08.6.12.89-.94-1.5-1.81-2.99-2.84-3.82-1.6-1.27-2.83-.88-3.56-.25-.36.31-.64.76-.79 1.32-.22.82-.13 1.97.4 3.03.33.65.85 1.62 1.5 2.71-.51-.38-.97-.72-1.39-.96-1.13-.68-2.12-.74-2.81-.46-.45.19-.86.52-1.16 1.09-.69 1.33-.33 2.91 1.05 4.4 1.06 1.16 2.78 2.32 4.41 3.27-.67.01-1.28-.06-1.77-.11-.86-.1-1.52-.15-1.86-.09-1.32.22-2 1.16-2.02 2.26-.01.57.19 1.26.76 1.91.76.86 2.43 1.83 5.44 1.9.54.01 1.01.29 1.49.6.75.48 1.51 1.08 2.33 1.59 1.61.98 3.24 1.82 4.1 2.24 0 0 13 35.72 14.82 40.72l-7.06 8.58c-.44.54-.49 1.29-.11 1.88 0 0 9.53 14.9 18.89 23.39.02.16.07.31.16.44-2.16 18.4-3.1 46.87-3.21 59.91 0 .43.17.85.48 1.15s.73.47 1.16.46l58.4-1.43c.44-.01.86-.2 1.16-.54.29-.33.44-.77.4-1.21-1.66-18.23-3.37-39.18-6.95-57.94.07-.05.12-.12.18-.19 9.85-5.82 17.72-14.71 20.79-21.23.32-.69.12-1.51-.49-1.97-.9-.67-4.27-4.93-7.46-9.07l20.8-35.66c.94-.13 2.54-.43 4.25-1.08.95-.37 1.91-.98 2.85-1.48.55-.29 1.06-.6 1.57-.52 3.05.48 4.83-.28 5.67-1.06.63-.58.9-1.25.95-1.85.08-1.07-.48-2.06-1.65-2.48-.34-.12-.98-.17-1.84-.21-.54-.02-1.21-.05-1.94-.2 1.72-.78 3.6-1.77 4.92-2.73.92-.66 1.58-1.34 1.92-1.92.27-.47.38-.93.38-1.35-.01-1.01-.4-1.6-.83-1.96-.57-.45-1.51-.66-2.73-.23zm-1.9-4.27c1.47-1.45 2.81.21.96 2.32-1.1 1.26-4.07 4.56-6.86 6.31-.06-.19-.12-.38-.19-.57-.33-.95-.72-1.83-1.14-2.56 3.05-1.33 5.49-3.78 7.23-5.5zm-39.84 32.28c1.66 10.87-2.1 23.4-13.59 29.05.24-.24.5-.5.76-.79 1.15-1.27 2.45-3.06 3.69-5.52.02-.04.01-.09-.03-.11s-.09-.01-.11.03c-1.1 1.86-2.21 3.3-3.23 4.4-2.35 2.54-4.19 3.24-4.19 3.24-.04.02-.07.04-.1.07-1.74.59-3.62 1.06-5.66 1.35l.05-.32c2.84-1.15 5.49-2.86 7.82-5.05 2.62-2.46 4.83-5.52 6.48-9.02 1.24-.24 2.58-.89 3.74-1.98 1.27-1.19 2.04-2.61 2.3-3.9.29-1.45-.06-2.76-.94-3.67-.4-.42-.9-.71-1.47-.9.66-1.5 1.26-3.45 1.56-5.81.5-3.91.2-8.94-1.97-14.75-.36-.96-.74-1.86-1.14-2.71 2.87 4.27 5.01 9.75 6.03 16.39zm-12.25 9.34c.43.39 1 .61 1.75.48.06-.01.12-.02.18-.04.03.07.06.13.09.19.37.62 1.02 1.18 2.32.91.13-.03.29-.08.46-.17-3.19 13.25-14.44 22.28-26.18 20.5-11.81-1.8-19.9-13.89-18.91-27.59.06 0 .12.01.18 0 .54-.06 1.14-.3 1.72-.95.53-.6 1.12-1.63 1.64-2.79l.04.04c.5.53 1.1.74 1.77.67.44-.05.99-.25 1.57-.84.66-.68 1.26-1.57 1.76-2.49.16.08.33.13.51.17.58.12 1.48.04 2.58-.89.66-.56 1.27-1.23 1.82-1.94l.02.06c.41 1.08 1.2 1.47 1.96 1.45.44-.01 1.05-.17 1.68-.86l.11-.12c.38.56.9.89 1.46 1.01.51.1 1.14.05 1.86-.42.57-.38 1.07-.9 1.49-1.48.17.1.36.17.54.22.26.06.56.08.87 0 .02.14.05.27.08.39.31 1.14 1.05 1.68 1.7 1.8.43.08.93.04 1.49-.32.25-.16.49-.36.72-.57.1.2.2.38.31.52.38.51.85.78 1.36.88.45.09.96.05 1.52-.27.12.71.31 1.29.53 1.62.37.55.85.81 1.36.89.35.06.76.03 1.2-.19.04.42.09.8.18 1.1.25.88.76 1.39 1.23 1.62.38.18.83.27 1.33.12.03.93.15 1.81.4 2.44.3.78.79 1.31 1.37 1.59.36.18.77.27 1.24.24-.04.31-.07.59-.08.85-.02 1.05.34 1.78.77 2.17zm-11.87 22.66-.49 2.99c-3.58 4.48-9.68 3.85-12.56 1.04-.61-.59-1.68-1.75-1.88-2.46l-.15-2.34c1.68.73 3.47 1.26 5.34 1.55 3.33.51 6.63.2 9.74-.78zm-16.53 1.68.06.34c.11.37.34.84.68 1.31.48.68 1.17 1.41 1.63 1.86 1.48 1.44 3.66 2.4 6 2.61-1.24 1.62-3.34 4.37-4.73 6.18-.33.44-.84.69-1.39.7s-1.07-.23-1.42-.65c-2.44-3.04-4.73-6.85-6.21-11.32-.26-1.75-.18-3.3.14-4.69 1.57.72 3.26 1.35 5.12 1.89zm6.56 11.11c.97-1.26 1.99-2.6 2.77-3.62 0 0 1.42 1.98 2.63 3.66l.67 24.61-7.14-.01zm3.75-5c2.52-.24 5.06-1.39 6.98-3.8l.33-.74.31-1.88c2.52-.33 4.83-.89 6.93-1.64.05 1.23-.15 2.55-.68 3.96-1.39 3.72-3.73 7.22-6.35 10.61-.35.45-.89.71-1.46.7s-1.1-.29-1.43-.75c-1.38-1.92-3.44-4.79-4.63-6.46zm23.09-24.41c.83-2.12 1.47-4.37 1.86-6.73.06-.1.13-.2.19-.31.41.09.78.26 1.06.54 1.14 1.18.56 3.55-1.3 5.29-.57.54-1.19.93-1.81 1.21zm-41.23-34.61c2.38-2.62 4.78-4.57 7.08-5.77 1.97-.8 3.96-1.09 5.86-.76-2.75.7-5.08 2.14-7.01 3.91-5.64 5.18-7.9 13.16-7.9 13.16-.02.06.02.12.07.13.06.02.12-.01.13-.07 0 0 2.43-7.8 8.12-12.75 2.1-1.83 4.66-3.27 7.71-3.75-1.6 1.17-2.81 2.51-3.71 3.83-2.28 3.34-2.61 6.53-2.61 6.53-.01.06.03.11.09.12s.11-.03.12-.09c0 0 .48-3.1 2.86-6.23 1.08-1.42 2.55-2.84 4.55-3.99.01.01.03.01.04.02 4.91-2.42 10.11-2.75 14.92-1.16 1.33.93 2.46 2.36 3.31 4.34 1.14 2.65 1.81 6.24 1.88 10.82 0 .05.04.09.09.09s.09-.04.09-.09c.11-4.65-.44-8.32-1.49-11.05-.51-1.33-1.15-2.43-1.89-3.34.4.18.79.38 1.18.59.02.04.04.09.08.13 0 0 3.74 3.77 5.85 9.61 1.16 3.21 1.82 7.04 1.12 11.21-.01.05.02.1.07.11s.1-.02.11-.07c.85-4.22.29-8.12-.79-11.42-1.02-3.13-2.5-5.7-3.7-7.46 2.22 2.15 4.26 5.21 5.88 9.53 4.93 13.14-.23 22.08-1.85 22.43-1.63.34.14-2.7.14-2.7s-.9 1.32-2.69 1.64c-1.32.23-.28-3.43.36-5.37-.38.72-1.1 1.55-2.45 1.83-2.52.54-1.08-7.09-1.08-7.09s-.66 1.74-2.2 2.78-.86-5.32-.86-5.32-.73 1.61-2.3 2.65c-.7.46-.93-.74-.98-2.22.32-.9.6-2.27.73-3.68.13-1.47.13-2.93-.11-3.85-.02-.1-.11-.17-.22-.15-.1.02-.17.12-.15.22.08.89-.14 2.27-.49 3.62-.25.98-.58 1.94-.91 2.67-.31.47-.67.89-1.07 1.14-1.49.95-1.58-3.9-1.58-3.9s-1.01 2.49-2.44 3.41c-1.43.93-.84-5.2-.84-5.2s-.66 2.31-1.73 3.02-1.08-2.9-1.08-2.9-.71 3.27-2.53 4.47c-.74.49-1.15.01-1.38-.74.04-.09.07-.19.08-.29.01-1.92.36-3.76.88-5.44.63-2.04 1.5-3.82 2.3-5.15.02-.03.01-.07-.02-.08-.03-.02-.07-.01-.08.01-.99 1.24-2.1 2.93-3.01 4.92-.77 1.67-1.37 3.54-1.65 5.52-.24.33-.52.68-.86 1.06-1.78 1.95-1.09-5.23-1.09-5.23s-1.65 4.17-4.24 6.36c-2.59 2.18-1.86-2.75-1.86-2.75s-1.17 4.09-3.1 6.07c-1.93 1.97-1.79-4.51-1.79-4.51s-1.78 5.78-3.29 7.48-2.8-2.1-2.55-3.51c.55-3.28 1-11.96 5.88-17.35zm-5.62 27.91c-.46-.42-.89-.93-1.25-1.53-1.26-2.15-1.17-4.52.17-5.38.23.44.5.83.79 1.1.1.09.2.17.3.24-.16 1.89-.17 3.75-.01 5.57zm.28-21.5c-1.43 4.26-1.77 8.55-2.14 10.64-.11.6-.04 1.52.2 2.43-.04.02-.08.03-.12.05-1.1.62-1.8 1.78-1.94 3.25-.12 1.31.21 2.9 1.09 4.39.77 1.32 1.82 2.29 2.89 2.88.57 3.66 1.76 7.08 3.47 10.08 2.13 3.75 5.05 6.84 8.55 8.96-2.34-.78-4.39-1.74-6.21-2.83-.04-.09-.09-.17-.18-.22-2.18-1.24-3.64-3.06-4.62-4.89-1.78-3.31-2.01-6.63-2.01-6.63 0-.02-.02-.03-.04-.03s-.03.02-.03.04c0 0 .04 3.38 1.64 6.84.24.53.53 1.05.85 1.57-10.05-9.63-7.89-25.36-1.4-36.53zm-38.54-26.47c-.8-1.59-.2-3.5 1.52-2.14 1.9 1.51 3.04 5.64 5.76 6.9-.56.66-1.13 1.48-1.64 2.38-.1.17-.19.35-.28.53-2.42-2.22-4.54-6.02-5.36-7.67zm-3.87 3.84c1.03-1.97 4.99 3.71 9.08 4.09-.52 1.02-.98 2.08-1.31 3.04-2.75-1.35-9.03-4.72-7.77-7.13zm13.8 16.08s-2.31-1.08-4.55-2.45c-1.63-1-2.97-2.38-4.62-2.42-4.79-.11-5.39-2.66-3.96-2.89.79-.13 3.75.8 6.85-.42-.15.52-.26.99-.31 1.39-.03.17.09.33.26.36s.33-.09.36-.25c.25-1.15 1.09-2.93 2.14-4.59 1-1.59 2.17-3.05 3.19-3.62.37-.23.49-.73.25-1.1-.23-.38-.73-.49-1.1-.25-.19.13-.39.3-.59.49-.49-1.71-.84-3.23-1.03-4.81-.36-3.09 1.65-4.35 2.93.13.71 2.47 2.49 5.53 3.69 7.22-.02.59-.26 1.21-.53 1.88-.31.79-.64 1.61-.74 2.47-.13 1.08.05 2.2 1.05 3.33.11.13.3.16.44.05s.16-.3.05-.44c-.69-1-.75-1.91-.54-2.76.22-.91.74-1.74 1.16-2.54.37-.7.63-1.38.7-2.04.44-1.2 1.16-2.92 1.91-3.56 1.36-1.17 2.06-.56 1.96.76-.11 1.35-1.33 3.89-.65 5.17 1.87 3.46-1.15 7.05-1.15 7.05l14.39 32.03c.09 1.15.24 2.29.47 3.41-.07.06-.13.11-.19.18l-7.13 8.67zm96.37 54.47c-2.89 6.15-10.22 14.45-19.41 20.09l-2.68-8.27c-.04-.19-.24-.31-.43-.27s-.31.24-.27.43l1.55 9.18c-.02.01-.05.03-.07.04 3.72 19.02 5.47 40.41 7.16 58.98l-58.4 1.43c.11-13 1.05-41.4 3.2-59.74.17-.16.3-.36.34-.61.07-.97.21-2.31.36-3.69.3-2.75.65-5.56.65-5.56.04-.19-.09-.38-.28-.42s-.38.09-.42.28c0 0-.77 2.73-1.49 5.41-.2.74-.39 1.46-.55 2.12-8.99-8.45-17.9-22.41-17.9-22.41l14.77-17.96c.56 2.03 1.37 3.98 2.46 5.82 2.17 3.67 5.46 6.9 10.11 9.33-.43 1.66-.55 3.53-.24 5.64.01.09.03.18.06.27 1.54 4.67 3.93 8.65 6.48 11.82 0 .01.01.01.01.02.66.8 1.65 1.25 2.68 1.24 1.01-.02 1.96-.49 2.59-1.28l-.98 22.37c-.02.44.14.86.44 1.18.3.31.72.49 1.15.49l7.14.01c.43 0 .85-.17 1.15-.48s.47-.73.45-1.16l-.61-22.25c.01.01.02.03.02.03.63.87 1.63 1.4 2.7 1.42s2.09-.47 2.75-1.32c2.72-3.53 5.14-7.17 6.59-11.03.69-1.84.89-3.55.75-5.14 4.07-1.74 7.31-4.25 9.78-7.23 1.52-1.83 2.74-3.86 3.71-5.99l.54-.59c0 .01 12.27 16.42 14.14 17.8zm27.38-52.98c1.37.49.56 3.06-4.18 2.31-1.63-.26-3.46 1.4-5.25 2.09-2.45.95-4.64 1.07-4.64 1.07l-20.88 35.79c-2.85-3.73-5.3-7.03-5.3-7.03-.23-.31-.57-.52-.95-.6.57-1.58.98-3.21 1.28-4.86l19.47-28.37s-2.33-4.07.12-7.14c.9-1.13.15-3.85.28-5.2.13-1.32.93-1.8 2.06-.4.57.7 1.03 2.32 1.31 3.58-.02.06-.06.11-.07.17-.07.68.08 1.43.33 2.22.27.86.63 1.77.69 2.7.05.88-.17 1.76-1.02 2.62-.13.11-.14.31-.03.44s.31.14.44.03c1.18-.93 1.56-2 1.62-3.09.05-.86-.12-1.73-.29-2.56-.14-.72-.28-1.4-.18-1.99 1-.95 2.45-2.36 3.59-3.59 2.09-2.27 3.28-4.04 3.46-4.33 1.14-1.89 3.24-.88 1.46 2.83-.48 1-1.23 2.54-2.3 4.01-.24-.38-.5-.71-.75-.96-.33-.3-.83-.27-1.13.05-.3.33-.27.83.05 1.13.9.74 1.8 2.39 2.49 4.13.73 1.81 1.24 3.72 1.28 4.9 0 .17.14.31.31.31s.31-.14.32-.31c.02-.4 0-.89-.06-1.42 2.84 1.73 5.72 1.2 6.47 1.47zm-6.54-2.29c-.16-1-.41-2.11-.75-3.2 4.13.3 9.62-5.43 9.66-2.4.03 1.68-6.07 4.62-8.91 5.6z"/><path d="m268.93 198.31c1.19-.76 2.15-1.6 2.76-2.5.29-.44.35-.99.16-1.48-6.06-15.23-13.34-29.07-20.72-37.14-3.15-3.45-6.4-6.14-9.7-8.07 7.5-2.36 12.58-6.59 15.71-11.65 4.63-7.48 4.98-16.83 2.44-24.83-3.12-9.83-8.43-16.72-14.49-20.61-1.48-.95-3.01-1.72-4.56-2.32-.89-.43-1.79-.77-2.67-1.03-7.56-2.23-14.53 1.29-16.74 2.59-2.43-.75-5.03-.39-7.63 1.03-.52.28-1.05.63-1.57 1-1 .58-1.97 1.29-2.91 2.12-6.13 5.4-10.89 15.86-11.38 26.26-.34 7.22 1.36 14.4 5.95 19.85 2.98 3.55 7.21 6.38 12.92 8.01-3.54 2.2-7.08 5.35-10.59 9.54-7.09 8.47-13.56 20.59-20.3 37.91-.28.71-.01 1.52.63 1.93.39.25.81.49 1.25.71-.06.11-.11.23-.15.35-1.14 4.19-1.75 8.24-1.96 11.57-.27 4.16.16 7.27.8 8.42.44.8 1.34 1.54 2.69 2.09 2.17.89 5.75 1.4 9.94 1.6 4.41.22 9.52.11 14.3-.15-.11.2-.2.39-.24.59-.1.48-.05 1.03.35 1.62.21.31.52.59.97.78.42.17 1.07.27 1.89.21.23-.01.48-.04.75-.08-.8 1.09-.79 2.13-.32 2.89.29.47.75.82 1.42.96.44.09 1.05.08 1.77-.09.93-.21 2.17-.71 3.44-1.3 0 .31.07.56.18.78.5 1.02 1.5 1.53 2.97 1.15.78-.2 1.82-.74 2.92-1.48 1.44-.96 3.01-2.23 4.26-3.25 1.35.88 2.42 1.54 2.82 1.79 2.33 1.44 3.71 1.41 4.45 1.17 1.29-.42 1.64-1.6 1.72-2.35 1.49.51 2.87.41 3.73.03.6-.26 1.02-.65 1.28-1.08.05-.09.1-.18.14-.28.61.27 1.12.36 1.5.35.56-.02 1-.21 1.36-.49.46-.37.8-.93.88-1.69.03-.32-.01-.73-.11-1.17 3.79.05 7.48-.04 10.56-.35 2.65-.27 4.88-.71 6.42-1.33 1.39-.55 2.3-1.31 2.75-2.11.4-.71.69-2.1.71-4 .04-3.68-.78-9.64-2.49-15.94-.04-.19-.14-.37-.26-.53zm-28.8-35.05c-2.6-.26-7.49-4.12-9.63-6.13 2.22-.34 4.39-1.59 5.91-4.18l.21-.67.28-3.2c.17-.06.34-.12.5-.19.46.2.93.39 1.39.62-.15.02-.3.04-.45.06.97.48 1.87.99 2.67 1.52 1.25 2.26 1.86 12.44-.88 12.17zm-11.03-12.73c2.12 0 4.18-.31 6.15-.89l-.22 2.5c-3.36 5.71-10.53 3.57-12.01-.21l-.24-2.33c2.02.61 4.14.93 6.32.93zm-23.16-25.96c.07-.01.13-.01.2-.03.51-.14 1.06-.47 1.54-1.19.45-.68.88-1.8 1.23-3.03.04.03.07.06.11.09.57.42 1.19.54 1.83.36.43-.12.94-.4 1.42-1.06.57-.77 1.03-1.75 1.39-2.74.19.06.38.09.58.1.59.02 1.45-.2 2.39-1.26.59-.66 1.11-1.43 1.55-2.23.02.04.04.08.07.12.39.66.91.98 1.38 1.09.62.15 1.51.09 2.3-1.07.04-.06.08-.12.12-.17.48.52 1.05.78 1.65.8.52.02 1.12-.13 1.75-.69.52-.46.95-1.06 1.28-1.7.2.08.41.13.62.14.27.02.57-.01.87-.14.05.15.1.28.16.41.34.76.85 1.19 1.3 1.36.61.24 1.33.25 2.07-.4.24-.21.46-.45.66-.71.14.2.28.38.43.52.45.43.96.63 1.48.65.46.01.97-.11 1.47-.52.23.71.52 1.27.8 1.57.45.47.96.66 1.48.65.36 0 .76-.1 1.16-.39.1.42.22.81.36 1.1.39.83.98 1.26 1.5 1.4.4.11.86.12 1.33-.1.17.94.43 1.79.78 2.39.42.72.99 1.16 1.62 1.35.39.11.81.14 1.27.03 0 .31.02.61.05.86.14 1.05.62 1.72 1.12 2.03.48.3 1.06.43 1.77.19.07-.02.14-.05.21-.07.05.08.1.15.16.21.45.53 1.18.97 2.4.51.14-.05.29-.13.46-.25-1.18 13.55-11.09 24.14-23.14 24.14-12.13.04-22.09-10.67-23.18-24.32zm23.75 33.97c.7.64 1.59 1.4 2.57 2.17l.77 24.51-7.08-.04.67-23.71c1.2-1.05 2.31-2.11 3.07-2.93zm28.37-45.42c3.37 10.63 1.4 23.78-9.7 31.01 1.13-1.39 2.41-3.29 3.62-5.86.02-.05.01-.1-.04-.13-.05-.02-.1-.01-.13.04-1.12 1.97-2.25 3.51-3.29 4.71-1.23 1.42-2.31 2.33-3.07 2.89-1.82.9-3.84 1.65-6.07 2.24-.01-.01-.03-.01-.04-.02 3.05-1.58 5.77-3.84 8.02-6.62 1.94-2.4 3.52-5.19 4.65-8.25.08-.02.17-.03.25-.06 1.29-.37 2.67-1.27 3.76-2.63s1.65-2.89 1.71-4.2c.07-1.48-.48-2.73-1.5-3.49-.59-.44-1.31-.67-2.1-.71.67-1.7 1.23-4.25 1.16-7.42-.09-3.93-1.16-8.86-4.23-14.27-.52-.92-1.06-1.77-1.6-2.57 3.55 3.79 6.56 8.91 8.6 15.34zm-5.4 18.05c.7-2.39 1.14-4.92 1.26-7.54.51 0 .97.12 1.35.41 1.32.99 1.1 3.42-.5 5.41-.62.77-1.36 1.34-2.11 1.72zm-46.13-29.76c1.98-2.94 4.09-5.23 6.22-6.75 1.72-1.01 3.52-1.57 5.34-1.61-2.18 1.09-3.97 2.61-5.42 4.35-4.94 5.9-6.02 14.07-6.02 14.07-.01.07.04.13.11.14s.13-.04.14-.11c0 0 1.31-7.99 6.34-13.62 1.62-1.82 3.64-3.38 6.13-4.34-1.34 1.37-2.28 2.82-2.93 4.22-1.72 3.67-1.48 6.9-1.48 6.9 0 .07.06.12.13.12s.12-.06.12-.13c0 0-.05-3.15 1.82-6.6.85-1.57 2.11-3.19 3.95-4.61.04.01.09.02.13.03 4.01-2.75 8.49-3.94 12.97-3.61 1.98.51 3.74 1.81 5.2 4.05 1.53 2.35 2.73 5.7 3.52 10.2.01.06.06.1.12.09s.1-.06.09-.12c-.59-4.62-1.67-8.08-3.11-10.55-.8-1.36-1.72-2.4-2.73-3.19.52.12 1.04.26 1.56.43.73.56 4.47 3.57 7.18 8.43 1.66 2.99 2.93 6.66 2.87 10.89 0 .06.04.11.1.11s.11-.04.11-.1c.22-4.3-.94-8.09-2.52-11.2-1.46-2.86-3.27-5.14-4.72-6.7 2.76 1.78 5.49 4.61 7.95 8.93 6.94 12.22 3.13 21.81 1.55 22.4-1.58.58-.27-2.69-.27-2.69s-.7 1.43-2.45 2.02c-1.29.43-.8-3.34-.45-5.36-.27.76-.87 1.69-2.17 2.17-2.45.91-2.17-6.83-2.17-6.83s-.4 1.82-1.79 3.07c-1.39 1.26-1.67-5.11-1.67-5.11s-.49 1.7-1.9 2.95c-.64.57-1.06-.62-1.33-2.09.2-.94.3-2.32.24-3.73-.06-1.47-.26-2.92-.62-3.8-.03-.1-.14-.15-.23-.12-.1.03-.15.14-.12.23.2.88.16 2.26-.01 3.65-.12 1.03-.33 2.04-.57 2.81-.24.52-.54.99-.91 1.31-1.35 1.16-2.18-3.61-2.18-3.61s-.64 2.6-1.93 3.73-1.64-5-1.64-5-.31 2.38-1.28 3.24c-.96.86-1.52-2.7-1.52-2.7s-.22 3.33-1.86 4.79c-.61.54-1.07.24-1.4-.34 0-.04 0-.08-.01-.12-.59-1.82-.83-3.69-.86-5.44-.04-2.14.24-4.1.58-5.61.01-.03-.01-.07-.04-.08s-.07.01-.08.04c-.55 1.49-1.08 3.44-1.33 5.61-.19 1.63-.18 3.37.07 5.13-.19.36-.42.75-.71 1.18-1.49 2.19-1.89-4.99-1.89-4.99s-1.02 4.36-3.28 6.91c-2.26 2.54-2.28-2.43-2.28-2.43s-.55 4.21-2.19 6.45-2.48-4.18-2.48-4.18-.9 5.97-2.16 7.87c-1.25 1.9-2.94-1.66-3.09-3.08-.36-3.07-.81-11.92 3.26-17.97zm-2.92 22.31c.12.13.25.25.38.35.11.08.23.14.34.21.16 2.38.56 4.69 1.2 6.87-.73-.37-1.45-.95-2.06-1.69-1.63-1.98-1.88-4.4-.57-5.41.21-.16.45-.27.71-.33zm7.33 21.82c-1.34-.9-2.42-2.1-3.26-3.32-1.83-2.66-2.59-5.4-2.59-5.4-.01-.02-.03-.04-.05-.03s-.04.03-.03.05c0 0 .66 3.38 2.68 6.48-10.02-8.19-10.13-22.96-5.7-34.38-.8 4.43-.55 8.66-.34 10.62.08.71.47 1.82 1 2.79-.26.11-.51.25-.73.42-1.01.78-1.54 2.03-1.45 3.51.08 1.31.66 2.83 1.77 4.18 1.1 1.34 2.49 2.22 3.79 2.58.05.01.1.01.14.03 1.13 3.08 2.72 5.89 4.67 8.31 2.3 2.85 5.1 5.15 8.23 6.73-.19.1-.39.19-.58.29-2.88-.67-5.39-1.64-7.55-2.86zm5.19 6.42c1.02-.72 2.02-1.34 3.01-1.87-.15 0-.29 0-.44 0 .76-.42 1.52-.79 2.29-1.12.05.02.09.04.14.06l.31 3.07.1.42c.99 2.52 3.95 4.53 7.19 4.71-2.13 2.35-7.88 7.47-9.53 6.6-3.43-1.81-3.3-7.85-3.07-11.87zm-29.05 45.61c6.66-17.11 13.04-29.09 20.04-37.46 2.44-2.92 4.9-5.31 7.35-7.22-.1 2.39-.08 5.22.55 7.55.58 2.14 1.67 3.87 3.42 4.79.47.25 1.07.36 1.78.23.6-.1 1.34-.4 2.14-.85.81-.46 1.71-1.09 2.61-1.8l-.63 22.32c-.01.43.15.85.45 1.16s.71.49 1.14.49l7.08.04c.44 0 .85-.17 1.15-.48s.47-.73.45-1.17l-.73-23.24c.15.1.29.21.44.31 2.05 1.4 4.18 2.47 5.64 2.61 1.47.14 2.83-1 3.35-3.33.59-2.64.3-6.91-.32-9.5 2.35 1.67 4.67 3.75 6.94 6.24 7.28 7.96 14.44 21.63 20.41 36.65-2.5 3.73-12.29 5.86-16.17 6.47-.35-2.87-1.35-9.54-2.41-16.23-1.16-7.35-2.38-14.7-2.86-16.98-.04-.19-.23-.32-.42-.28-.2.04-.32.23-.29.42.39 2.29 1.3 9.66 2.16 17.04.86 7.44 1.66 14.87 1.79 17.04.04.5.42.87.89.95l.46 4.22c-8.83.88-15.91 2.02-22.25 3.26-5.18-.61-10.14-1.11-14.85-1.49-4.46-.36-8.68-.62-12.69-.77l.4-4.63c.37-.14.66-.47.7-.89.17-2.2 1.37-12.31 2.5-21.23.84-6.59 1.64-12.52 1.96-14.12.04-.19-.08-.38-.27-.43-.19-.04-.39.08-.43.27-.39 1.59-1.43 7.51-2.53 14.09-.02.12-.04.24-.06.36l.45-5.32-.45 5.32c-1.37 8.17-2.81 17.23-3.22 20.25-3.37-.35-11.11-1.76-15.67-4.66zm37.67 31.6c-.29-.59 3.72-4.71 3.72-4.71s-9.64 5.78-10.6 4.23c-1.04-1.67 7.36-5.85 7.36-5.85s-9.84 3.27-10.69 2c-.49-.73.6-1.1 2.03-1.54 4.2-.3 7.91-.7 10.3-1.06.1-.01.26-.04.45-.11l.66.2c.97.8 2.04 1.6 3.09 2.34.34.24.68.48 1.02.7-2.71 2.2-6.62 5.25-7.34 3.8zm26.6-9.17c-.82.42-8.65-5-8.6-4.18 0 0 2.93 1.95 4.19 3 3.8 3.18 3.83 7.7-.2 4.29-1.84-1.56-7.88-4.49-7.88-4.49s4.4 3.53 6.14 4.6c2.66 1.64.46 3.12-2.18 2.11-2.31-.88-5.96-2.27-5.96-2.27s3.92 2.93 4.04 3.52c.04.23.09 2.52-3.75.15-.91-.56-5.28-3.22-8.4-5.86-.54-.14-1.47-.58-1.88-.74l-.26.53c-8.96 1.36-36.44 3.17-39.04-1.47-1.07-1.92-1.07-10.02 1.31-18.78l.37.09c0-.01 0-.02 0-.02 4.33 1.86 9.71 2.88 12.79 3.27l-.96 4.89c-1.21.3-3 .91-4.47 1.95-1.1.78-2.01 1.77-2.33 3.08.5-1.17 1.5-1.97 2.66-2.52 1.32-.64 2.81-.93 3.93-1.05 7.67.19 16.29.83 25.71 1.84.02.01.04.02.05.03.02 0 .05-.01.07-.02.73.08 1.49.17 2.23.25-.63.34-1.27.73-1.84 1.22-.98.83-1.77 1.85-1.98 3.12.4-1.15 1.3-1.99 2.35-2.59 1.89-1.1 4.26-1.4 5-1.44.2-.03.37-.13.49-.28 4.95-.92 9.48-.04 9.68.03 8.35 3.19 9.64 7.28 8.72 7.74zm18.23-1.99c-1.29 2.3-8.71 3.02-16.94 2.99.2-.22.37-.5.47-.84.11-.38.14-.89-.01-1.5-.19-.76-.72-1.83-1.82-3-1.44-1.52-3.95-3.33-8.08-4.92-.05-.02-.38-.1-.9-.18 4.05-.6 8.48-1.14 13.47-1.6.09.04.18.07.27.07.67-.04 2.22.4 3.53.96 1.08.47 1.97 1 2.09 1.44 0-.48-.78-1.24-1.76-1.99-.92-.7-2-1.34-2.82-1.71-.37-.17-.69-.25-.93-.3-.06 0-.11.01-.17.02l-1.2-4.51c4.68-.33 9.4-1.44 12.87-3.68 2.38 8.76 3.01 16.83 1.93 18.75z"/></g><path d="m216.88 103.31c1.03-9.81 15.46-10.67 19.78-11.82-6.38-3.11-19.27 1.65-19.78 11.82z" fill="#c9b49a"/><path d="m217.79 92.92c-6.69 1.08-11.57 9.84-12.25 14.73 1.84-6.78 8.09-13.17 12.25-14.73z" fill="#c9b49a"/><path d="m238.44 91.49c.89.66 5.33 6.19 5.39 7.91.47-1.38-2.53-6.9-5.39-7.91z" fill="#c9b49a"/><path d="m250.96 108.48c.47-1.38-2.86-12.27-8.08-15.08.89.67 6.4 7.31 8.08 15.08z" fill="#c9b49a"/><path d="m255.02 133.05c-.04 1.72-4.47 8.59-5.36 9.52 2.86-1.89 5.84-8.3 5.36-9.52z" fill="#c9b49a"/><path d="m244.54 146.1c2.23-.68 5.03-4.67 4.83-5.7-.23 1.26-4.1 5.23-4.83 5.7z" fill="#c9b49a"/><path d="m206.66 138.62c-.27 1.34 3.39 6.53 6.29 7.42-.96-.61-6-5.77-6.29-7.42z" fill="#c9b49a"/><path d="m74.59 95.79c.82-9.55 14.95-10.12 19.16-11.16-6.32-3.15-18.87 1.25-19.16 11.16z" fill="#c9b49a"/><path d="m63.03 99.45c2.2-8.04 9.87-14.48 15-15.39-8.25-.33-14.21 9.43-15 15.39z" fill="#c9b49a"/><path d="m97.44 84.72c.77.79 4.27 6.93 4.06 8.64.67-1.3-1.43-7.21-4.06-8.64z" fill="#c9b49a"/><path d="m101.68 88.34c.77.79 5.14 8.19 5.61 16.14.66-1.3-.95-12.59-5.61-16.14z" fill="#c9b49a"/><path d="m100.36 139.01c2.83-.77 5.77-5.99 5.29-7.4-.04 1.7-4.41 6.82-5.29 7.4z" fill="#c9b49a"/><path d="m64.6 136.31c-.77-.7-4.39-6.26-4.3-7.88-.55 1.25 1.76 6.68 4.3 7.88z" fill="#c9b49a"/></g></svg>