<?xml version="1.0" encoding="utf-8"?>
<!-- Generator: Adobe Illustrator 23.1.0, SVG Export Plug-In . SVG Version: 6.00 Build 0)  -->
<svg version="1.1" id="Слой_1" xmlns="http://www.w3.org/2000/svg" xmlns:xlink="http://www.w3.org/1999/xlink" x="0px" y="0px"
	 viewBox="0 0 283.5 283.5" style="enable-background:new 0 0 283.5 283.5;" xml:space="preserve">
<style type="text/css">
	.st0{fill:#704C2C;}
	.st1{fill:#628FCA;}
	.st2{fill:#B296C5;}
	.st3{fill:#F9BBA5;}
	.st4{fill:#713F34;}
	.st5{fill:none;stroke:#231F20;stroke-miterlimit:10;}
	.st6{fill:#492E22;}
	.st7{fill:#787677;}
	.st8{fill:#231F20;}
	.st9{fill:#6B3013;}
</style>
<path class="st0" d="M147.4,209.9l-19,25.7c0,0,2.2-0.1,5.2-0.2c1.1,0,2.5-0.4,3.5-0.4c4.1,0.2,12.3,5.3,19,3.7
	c6.6-1.6,11.7,0,21.5,0.5c9.8,0.5,13.3-1.4,17.1-1.6c3.9-0.2,9,1.7,10.6,1.4c1.5-0.3,10.7-2.6,10.7-2.6s13.9-22.2,14.2-22.9
	C230.4,212.9,147.4,209.9,147.4,209.9z"/>
<path class="st1" d="M66.5,218.8c-0.4,0.3-0.4,14.1-0.1,17.3c1.6-0.5,3.9-0.4,5.7-0.5c1.7-0.1,2.5,0.2,4.1-0.1
	c3.7-0.8,8-0.1,11.8,0.1c4.3,0.2,6.9-0.7,11,0.1c1.7,0.3,4.9,0.1,6.6,0.4c3.6,0.7,8.1-0.5,11.7-1.2c1.8-0.4,3.6-0.1,4.6-0.5
	c-0.1-1.6,0.3-16.7,0.3-16.7S66.5,218.8,66.5,218.8z"/>
<path class="st2" d="M100,101.5c0,0-8.3-1.2-16.4,2.1c-5,2-12.8,6.9-19.8,31.5c-0.7,2.5-1.2,5-1.7,7.5c-4,18.9-5,34.9-3.6,38
	c1.6,3.6,7.9,12.7,7.9,12.7L64.6,223c0,0,7.9,3,22.6,3.8s35.2-2.6,35.2-2.6l1.8-0.8l0.4-26.7l0-34.6c0,0,3.8,7.7,10.3,16
	c6.5,8.3,22.2,26.3,22.2,26.3s3.2-3.2,5.1-6.7c2-3.6,3.2-5.7,3.2-5.7l-24.5-34c0,0-13.3-34.2-15.7-39.3c-3.1-6.6-6.8-9.3-9.9-11.2
	c-3.4-2.1-8.2-4-8.2-4L100,101.5z"/>
<path class="st0" d="M220,238.5c-0.2,0.2-0.3,0.5-0.5,0.7c0.5,0.2,1.1,0.3,1.7,0.2c0.3,0,0.5-0.1,0.8-0.1c0.5,0,0.9,0.4,1.4,0.7
	c0.4,0.2,0.9,0.3,1.4,0.2c0.4-0.1,1-0.2,1.2,0.1c0.1,0.1,0.1,0.3,0.2,0.2c0.1,0,0.1-0.1,0.1-0.1c1-1.7,1.9-3.4,2.9-5.1
	c1.8-2.9,3.5-5.9,5.3-8.8c1.1-1.9,2.3-3.8,3.4-5.7c0.3-0.5,1.4-1.8,1.4-2.4c0,0,0-8.5,0-8.5c-2.2,3.3-4.5,6.6-6.7,9.8
	C228.3,225.9,224.2,232.2,220,238.5z"/>
<path class="st3" d="M103.1,87.5L96.3,102c0,0,0.3,5.7,5.7,8.7c7,3.9,10.4-0.5,10.5-0.7c0.3-0.4,7.1-11.5,7.1-11.5L103.1,87.5z"/>
<path class="st4" d="M66,237.2c-0.9,0.4-2,0.3-2.7-0.4c-1.1-0.9-2.1-2.3-2.4-3.7c-0.5-2.4,0.9-4,0.9-4l67.5-30.6l4.5,7.8L66,237.2z"
	/>
<line class="st5" x1="85.4" y1="208.1" x2="87.7" y2="206.5"/>
<path class="st6" d="M206.4,238.8c0,0,0.2,0,0.3,0.1c0.1,0,0.2,0.1,0.3,0.2c0.2,0.1,0.5,0,0.7-0.1c0.9-0.3,1.9-0.5,2.8-0.3
	c0.9,0.1,1.7,0.5,2.6,0.6c1.4,0.1,2.8-0.4,4.2-0.2c0.2,0,0.4,0.1,0.6,0.2c0.3,0.2,0.6,0.5,1,0.5c0.3,0,0.6-0.1,0.9-0.1
	c0.3,0.1,0.4,0.1,0.5-0.2c0-0.1,0.1-0.1,0.1-0.2c0.1-0.1,0.2-0.2,0.2-0.4c0.2-0.3,0.4-0.7,0.6-1c0.6-0.9,1.2-1.8,1.8-2.8
	c0.8-1.2,1.5-2.4,2.3-3.6c0.9-1.4,1.8-2.7,2.6-4.1c0.9-1.4,1.8-2.9,2.8-4.3c0.9-1.4,1.8-2.8,2.7-4.2c0.8-1.2,1.6-2.5,2.4-3.7
	c0.6-1,1.3-2,1.9-3c0.4-0.6,0.8-1.3,1.2-1.9c0-0.1,0.3-0.6,0.4-0.6c0,0-94.6-2.4-94.6-2.4c-1.8,1.9-3.5,3.8-5.3,5.8
	c-3.5,3.9-7.1,7.8-10.6,11.6c-2.8,3.1-4.4,4.5-7.1,7.7c0.4,0.4-0.4,2.2,0.2,2.1c0.6-0.1,1.1-0.3,1.7-0.4c1.1-0.2,2.2,0,3.2,0.5
	c0.5,0.3,1,0.7,1.6,0.8c0.9,0.2,2-0.1,2.9,0c0.6,0,0.8-0.3,1.2-0.7c0.7-0.8,1.4-1.6,2.1-2.3c1.8-2,3.6-4,5.3-5.9
	c3.3-3.6,6.5-7.3,9.8-10.9c0.2-0.2,1.1-1.5,1.3-1.5c0,0,70.4,2.4,70.4,2.4c-0.2,0.3-0.5,0.7-0.7,1c-0.6,0.9-1.2,1.7-1.8,2.6
	c-0.8,1.2-1.7,2.5-2.5,3.7c-1,1.4-1.9,2.8-2.9,4.2c-0.9,1.4-1.9,2.8-2.8,4.2c-0.8,1.2-1.6,2.4-2.4,3.6c-0.6,0.8-1.1,1.6-1.7,2.4
	c-0.1,0.1-0.1,0.2-0.2,0.3C206.5,238.6,206.4,238.7,206.4,238.8z"/>
<path class="st3" d="M83.3,206.1l2.1,2c0,0,0,8.2,0.1,10.3c0.2,3.8,8.4,8.3,11.1,8.7c2.9,0.4,4.1-0.8,4.1-0.8s2.5,0.3,4.2-1.3
	c1.1-1,1.4-2,1.4-2s3.7,0.5,4.7-2.4c0.9-2.4-1.2-3.4-1.2-3.4l-2.5,0.9l-4.7-7.8l4.6-2.1l4.8-1.7c0,0-5.3-5.9-8.9-5.9
	s-7.7,0.6-7.7,0.6l-5.9-4.2L83.3,206.1z"/>
<path class="st3" d="M160,200.4c-0.1-0.3,1.2,0.7,1.2,2.6c0,1.9-0.2,5.2-1.5,7.5c-1.3,2.3-2.9,4.2-2.9,4.2s2.2,3.2,4.7,1
	c2.6-2.2,6-7.4,7.8-7.9c1.8-0.5,16.1,0.3,16.1,0.3s-4-6.1-11.3-10c-7.3-3.9-10.2-3.2-10.2-3.2S160.1,200.6,160,200.4z"/>
<path class="st7" d="M120.2,185.4c3,0.2,8.7,0.6,11.1,0.7c0.7,0,1.3,0.4,1.6,1l13.6,24.3c0.4,0.7,0.1,1.7-0.6,2l-9.2,4.4
	c-0.6,0.3-1.4,0-1.7-0.6L119.1,187C118.7,186.2,119.3,185.3,120.2,185.4z"/>
<ellipse transform="matrix(2.929367e-02 -0.9996 0.9996 2.929367e-02 54.9531 199.0856)" class="st3" cx="130" cy="71.2" rx="36.3" ry="34.4"/>
<g>
	<ellipse transform="matrix(0.6667 -0.7454 0.7454 0.6667 -11.3509 128.6595)" class="st8" cx="138.2" cy="77" rx="2.7" ry="2.1"/>
	<ellipse transform="matrix(0.5823 -0.813 0.813 0.5823 -8.6186 158.3817)" class="st8" cx="149.8" cy="87.6" rx="2.7" ry="2.1"/>
	<g>
		<path class="st8" d="M137.9,98.8c-3.6,1.3-6-0.1-7.1-1.1c-1.7-1.4-2.7-3.7-2.3-5.6c0.1-0.4-0.2-0.9-0.7-1c-0.4-0.1-0.9,0.2-1,0.7
			c-0.4,2.4,0.7,5.3,2.9,7.1c1.5,1.3,3.4,2,5.4,2c1.1,0,2.2-0.2,3.3-0.6c0.4-0.2,0.6-0.6,0.5-1C138.8,98.9,138.3,98.7,137.9,98.8z"
			/>
		<path class="st8" d="M145,82.6c-0.4-0.3-0.9-0.2-1.1,0.2l-2.2,3.3c-0.2,0.2-0.2,0.5-0.1,0.8c0.6,1.3,0.3,2.6-0.7,3.1
			c-0.5,0.2-0.9,0.1-1.2,0c-0.6-0.2-1.2-0.8-1.5-1.5c-0.2-0.4-0.7-0.6-1.1-0.4c-0.4,0.2-0.6,0.7-0.4,1.1c0.5,1.1,1.4,2,2.5,2.3
			c0.4,0.1,0.8,0.2,1.2,0.2c0.5,0,0.9-0.1,1.3-0.3c1.6-0.8,2.3-2.9,1.6-4.8l2-2.9C145.5,83.4,145.4,82.9,145,82.6z"/>
	</g>
</g>
<path class="st9" d="M170.3,76.6c0,0-4.4,3.6-9.9-1.1c-7.1-6.1-14.2-21-29.4-23.5c-3.5-0.6-11.5,3.6-15,5.2
	c-0.6,0.2-1.2-0.2-1.1-0.8c0.3-2.7,0.4-8.1-3.8-6.4c-4.1,1.7-3.8,11.6-3.8,11.6s-1.9,3.5-4.6,5.2c-3,1.9-6.8,1.8-6.7-1.3
	c0.1-3.7,0.6-4.1,2-7.8c6.6-17.8,26.3-26.4,44.1-20.6c14.1,4.5,17.8,16.5,22,27.8C166.6,71.8,170.3,76.6,170.3,76.6z"/>
<path class="st8" d="M94.3,226c-1.5,0-3.1,0-4.6,0c0,0,0,0,0,0c-0.1,0.1-0.2,0.1-0.2,0.2c-0.2,0.3-0.4,0.5-0.6,0.7
	c-0.4,0.2-0.7,0.5-1.1,0.7c1.4,0.1,2.8,0.1,4.2,0.1c1.4,0,2.9,0,4.4-0.1C95.4,227.3,94.7,226.8,94.3,226z"/>
<path class="st8" d="M240.2,209.9c0-0.1,0-0.2,0-0.2c0,0,0,0,0-0.1c0,0,0,0,0,0c0,0,0,0,0,0c0,0-0.1-0.1-0.1-0.1
	c0,0-0.1-0.1-0.1-0.1c0,0-0.1,0-0.1-0.1c0,0,0,0-0.1,0c0,0,0,0-0.1,0c0,0-0.1,0-0.1,0c0,0-0.1,0-0.1,0l-53-1.3l-0.1-0.2
	c-0.1-0.2-2.3-3.5-6.3-6.7l-1.1-0.9l0.1,0.1l-1.2-0.8c-1-0.7-2-1.3-3.1-1.9c-5-2.6-8-3.2-9.5-3.3c0.6-1.1,0.9-1.7,0.9-1.7
	c0.2-0.3,0.1-0.6-0.1-0.9l-24.5-34c-0.9-2.4-13.4-34.2-15.7-39.2c-3.1-6.7-6.9-9.5-10.2-11.6c0.2-0.4,0.5-0.8,0.7-1.1
	c0.6,0.3,1.2,0.5,1.8,0.7c3.8,1.4,7.8,2.1,11.7,2.1c4.9,0,9.9-1.1,14.5-3.3c8.8-4.2,15.5-11.8,18.8-21.5c0.6-1.8,1.1-3.7,1.4-5.6
	c0.6,0.1,1.3,0.2,1.8,0.2c2.6,0,4.1-1.1,4.2-1.2l0.6-0.5l-0.5-0.7c0-0.1-5-7-6.7-14.1l-0.1,0c-2.8-11.5-10.8-21.3-22.2-25.6
	c-8.6-3.2-17.9-2.8-26.2,1.2c-8.8,4.2-15.5,11.8-18.8,21.5c-3.8,11.2-2.1,23.1,3.6,32.5l-4.2,9c-3.2,0-8.1,0.4-12.9,2.4
	c-5.9,2.4-13.5,8.2-20.2,32.1c-0.6,2-1,4.1-1.4,6.1l-0.3,1.5c-3.7,17.4-5.3,34.7-3.6,38.5c1.5,3.3,6.8,11.1,7.8,12.6l-1.8,29.4
	c0,0.4,0.2,0.7,0.5,0.8c0.1,0,0.4,0.2,1.1,0.4c0,0.8,0,1.7,0.1,2.5l-4.1,1.9c-0.1,0-0.2,0.1-0.3,0.2c-0.1,0.1-1.6,1.9-1.1,4.7
	c0.4,1.8,1.7,3.3,2.7,4.1c0.6,0.5,1.4,0.8,2.2,0.8c0.5,0,1-0.1,1.4-0.3l25.8-11.7c1.8,0.9,3.4,1.6,4.3,1.7c0.5,0.1,0.9,0.1,1.3,0.1
	c1.4,0,2.3-0.4,2.8-0.7c2.5-0.2,14.6-1.9,20.9-2.8c0,1.4-0.5,10.2-0.5,10.2l1.7-0.1c0,0,0.1-1.3,0.1-1.9l12.8-14
	c0.1,0,0.3,0.1,0.4,0.1c0.3,0,0.6-0.1,0.9-0.2l9.2-4.4c1.5-0.9,1.3-2.4,1.3-2.4c0-0.1-1.5-3.3-1.5-3.3l13.7,0.3
	c-0.2,0.5-0.4,1-0.6,1.4c-0.8,1.5-1.8,2.8-2.3,3.5l-5-0.2c-0.2,0-0.5,0.1-0.7,0.2c-1.3,0.6-2.2,1.9-2.2,1.9l-18.3,20.1
	c0.8-0.1,1.6,0,2.4-0.1l18.3-20.3c0.1,0,0.2-0.1,0.3-0.2c0,0,0,0,0,0l4.7,0.2c0.3,0.3,1.4,1.8,3.1,2c0.1,0,0.3,0,0.4,0
	c0.8,0,1.6-0.3,2.4-1c0.3-0.2,0.6-0.5,0.9-0.8l57,1.9L205.3,239c0,0,1.3,0,2,0c0.1-0.2,12.7-18.7,13.2-19.5c0.4-0.5,1.7-2.6,1.5-2.9
	c0-0.1,0.1-0.9-1.3-0.9c-0.2,0-0.3,0-0.5,0c-0.3,0-0.7,0-1,0c-0.5,0-1,0-1.5-0.1c-0.7,0-1.3,0-2-0.1c-0.8,0-1.6-0.1-2.4-0.1
	c-0.9,0-1.8-0.1-2.7-0.1c-1,0-2-0.1-3-0.1c-1.1,0-2.1-0.1-3.2-0.1c-1.1,0-2.3-0.1-3.4-0.1c-1.2,0-2.4-0.1-3.5-0.1
	c-1.2,0-2.4-0.1-3.6-0.1c-1.2,0-2.4-0.1-3.6-0.1c-1.2,0-2.4-0.1-3.6-0.1c-1.2,0-2.3-0.1-3.5-0.1c-1.1,0-2.2-0.1-3.3-0.1
	c-1.1,0-2.1-0.1-3.2-0.1c-1,0-1.9-0.1-2.9-0.1c-0.9,0-1.7-0.1-2.6-0.1c-0.7,0-1.5-0.1-2.2-0.1c-0.6,0-1.2,0-1.8-0.1
	c-0.5,0-0.9,0-1.4,0c-0.3,0-0.6,0-0.9,0c-0.1,0-0.2,0-0.3,0c0.4-0.5,0.8-1,1.3-1.5c1-1.2,2.3-2.7,3.2-3.4l68.9,1.9l-19.1,29
	c0.6,0,1.3,0,1.9,0l17.9-27.2v5.5l-14,22.4c0.3,0,1.6,0.1,1.9,0.1l13.7-21.8c0-0.1,0.1-0.3,0.1-0.4
	C240.2,218.4,240.2,209.9,240.2,209.9z M98.4,59.4c3.1-9.2,9.5-16.5,17.9-20.5c4.4-2.1,9.1-3.2,13.8-3.2c3.8,0,7.5,0.7,11.2,2
	c11.6,4.3,19.5,14.7,21.7,26.6c0.1,0.2,0.2,0.4,0.2,0.6c0.3,0.8,0.6,1.6,1,2.4c0,0,0.1,0,0.1,0c1.6,3.9,3.7,7.2,4.7,8.6
	c-1.2,0.5-3.9,1.1-7.6-1.1c-1.7-1-3.8-3.8-6.1-6.7c-1.9-2.5-4-5.1-6-7c-7.9-7.6-15.3-10.1-19.6-9.9c-6,0.2-11.2,3.6-12.9,4.7
	c-0.2,0.1-0.3,0.2-0.4,0.3l-0.2,0.1c-0.2,0.1-0.5,0.3-0.7,0.4c0-0.2,0-0.5,0.1-0.8c0.5-2.2,0.4-5-1.2-6.3c-0.6-0.5-1.7-1-3.5-0.3
	c-4.8,2-4.3,9.8-4.3,10.1c0,0.1,0.1,3-3.4,5.7c-2.8,2.2-5.5,2.2-6.5,2.1C96.9,64.7,97.5,62,98.4,59.4z M96.5,69
	c1.3,0.1,4.4,0.1,7.7-2.4c4.3-3.3,4.1-6.9,4.1-7.1c0-0.1-0.4-7,3.3-8.5c1.2-0.5,1.6-0.1,1.8,0c0.8,0.7,1.1,2.7,0.6,4.7
	c-0.2,1-0.4,2.2,0.4,2.7c0.8,0.6,1.9,0,2.6-0.5l0.2-0.1c0.1-0.1,0.3-0.2,0.5-0.3c1.6-1.1,6.5-4.3,12.1-4.5c4-0.2,10.9,2.3,18.4,9.5
	c2,1.9,3.9,4.4,5.8,6.8c2.4,3,4.6,5.9,6.5,7.1c0.9,0.5,1.7,0.9,2.4,1.2c-0.3,1.8-0.7,3.7-1.4,5.5c-3.1,9.2-9.5,16.5-17.9,20.5
	c-7.9,3.8-16.8,4.2-25,1.1C104.2,99.3,95.5,84.4,96.5,69z M101.4,93c3.4,5,7.9,9.1,13.4,11.8c-1.5,2.5-2.9,4.6-3,4.8
	c0,0-3,4-9.4,0.4c-4.4-2.4-5.2-6.9-5.3-7.9L101.4,93z M59.2,180.3c-1.2-2.6-0.5-17.5,3.7-37.5l0.3-1.5c0.4-2,0.8-4,1.4-6
	c6.6-23.2,13.8-28.8,19.3-31c4.2-1.7,8.5-2.2,11.6-2.2l0,0c0,0.3,0.4,6.2,6.1,9.4c2.3,1.3,4.2,1.7,5.8,1.7c3.9,0,5.8-2.6,5.8-2.7
	c0.1-0.1,0.7-1.1,1.6-2.5c3.1,1.9,6.7,4.5,9.6,10.8c2.1,4.7,13.6,33.9,15.4,38.6c-0.5,0.3-1.2,0.7-1.7,1c-0.8,0.5-2.1,1.6-2.2,1.7
	c-0.3,0.3-0.4,0.8-0.1,1.2c0.2,0.2,0.4,0.3,0.6,0.3c0.2,0,0.4-0.1,0.5-0.2c0,0,1.3-1.1,2-1.5c0.5-0.3,1.1-0.7,1.6-1l23.8,33
	c-0.4,0.8-1.5,2.7-2.9,5.3c-1.4,2.5-3.4,4.8-4.4,5.9c-2.9-3.4-15.8-18.3-21.5-25.6c-5.9-7.5-9.6-14.6-10.1-15.7
	c0-2.2-0.5-21.8-1.8-29.2c-0.1-0.4-0.5-0.7-1-0.7c-0.4,0.1-0.7,0.5-0.7,1c1.4,7.6,1.8,28.9,1.8,29.2l-0.1,22.8
	c-1.3-0.1-2.5-0.2-3.4-0.2c-0.7-0.1-1.3,0.3-1.7,0.9c-0.4,0.6-0.4,1.3-0.1,1.9l6.4,12.4l-12.9,5.8c-1.6-1.6-5.7-5.6-8.9-5.6
	c-3,0-6.4,0.4-7.5,0.6l-4.8-3.4l1.9-2.8c0.2-0.3,0.2-0.8-0.1-1c-8.9-8.9-15.5-19.1-16.4-20.5c-0.8-8.4,7.4-44.9,7.5-45.3
	c0.1-0.4-0.2-0.9-0.6-1c-0.4-0.1-0.9,0.2-1,0.6c-0.3,1.5-8,35.5-7.6,45.2c-1.2,0.1-3.2,0.4-3.8,0.7c-0.8,0.4-1.9,1.6-2.1,1.8
	c-0.3,0.3-0.2,0.9,0.1,1.2c0.2,0.1,0.3,0.2,0.5,0.2c0.2,0,0.5-0.1,0.6-0.3c0.4-0.5,1.1-1.2,1.5-1.4c0.3-0.1,2-0.4,3.6-0.6
	c1.3,2.1,7.6,11.5,16,20l-10.1,14.8l-13.7-16C66.7,192.3,60.7,183.7,59.2,180.3z M125.6,201.2l3.4,6.5l-21.1,9.6
	c-0.1-0.1-0.2-0.3-0.2-0.3l-3.6-6.1L125.6,201.2z M103.7,209.3c0.1-0.5,0.2-0.9,0.3-1c0.2-0.1,0.6,0.1,1.2,0.3L103.7,209.3z
	 M67.1,195.3l13.1,15.3c0.2,0.2,0.4,0.3,0.6,0.3c0,0,0,0,0,0c0.3,0,0.5-0.1,0.6-0.4l2-3l1,0.9c0,1.5,0,7.1,0.1,9.4l-13.2,6
	c-3-0.6-5-1.2-5.9-1.5L67.1,195.3z M67.1,224.6c0.5,0.1,1.2,0.3,1.8,0.5l-1.8,0.8C67.1,225.4,67.1,224.9,67.1,224.6z M65.7,236.4
	c-0.6,0.3-1.3,0.2-1.9-0.2c-0.9-0.7-1.9-2-2.1-3.2c-0.3-1.6,0.4-2.8,0.6-3.1l22.7-10.3c0.7,2.1,3,4.1,5.5,5.6L65.7,236.4z
	 M104.2,224.4c-1.4,1.3-3.5,1.1-3.5,1.1c-0.1,0-0.2,0-0.3,0l-5.6-3.2c-0.4-0.2-0.9-0.1-1.1,0.3c-0.2,0.4-0.1,0.9,0.3,1.1l4.5,2.6
	c-0.5,0.1-1.1,0.1-1.9,0c-2.6-0.4-10.2-4.8-10.4-7.9c-0.1-2-0.1-10.2-0.1-10.3c0-0.2-0.1-0.5-0.3-0.6l-1.5-1.3l5.3-7.7l5,3.6
	c0.2,0.1,0.4,0.2,0.6,0.1c0,0,4.1-0.6,7.6-0.6c2.2,0,5.5,2.8,7.3,4.7l-3.3,1.5c-0.8-0.5-2.5-1.4-3.6-1c-1.3,0.4-1.5,2.6-1.5,3.5
	c0,0.2,0,0.3,0.1,0.4l4.6,7.7c0.2,0.3,0.4,0.4,0.7,0.4c0.1,0,0.2,0,0.3-0.1l2.2-0.8c0.4,0.6,0.7,1.5,0.4,2.4
	c-0.8,2.2-3.7,1.9-3.9,1.9c-0.1,0-0.2,0-0.2,0c0,0,0,0,0,0l-5.7-3.5c-0.4-0.2-0.9-0.1-1.1,0.3c-0.2,0.4-0.1,0.9,0.3,1.1l5.5,3.4
	C104.8,223.8,104.6,224.1,104.2,224.4z M105.6,225.3c0.5-0.5,0.9-1,1.1-1.4c1.6,0,4.1-0.5,5-2.9c0.5-1.4,0.2-2.6-0.3-3.5l12-5.5
	l0,10.8C118.9,223.4,107.5,225.2,105.6,225.3z M122.9,230.2c0.1-2.4,0.1-4.3,0.2-5.9c0.9-0.1,1.5-0.2,1.9-0.2c0-0.2,0-0.5,0-0.8
	c0,0,0,0,0,0l0-12.1l4.6-2.1l0.6,1.1l0.8,1.5l3.1,5.9c0,0.1,0.1,0.1,0.1,0.1L122.9,230.2z M145.8,212.3c-0.1,0.2-0.2,0.3-0.3,0.4
	l-9.2,4.4c-0.2,0.1-0.5,0-0.6-0.2l-15.7-30.3c-0.1-0.1,0-0.2,0-0.3c0,0,0.1-0.1,0.2-0.1h0c3,0.2,8.7,0.6,11.1,0.7
	c0.4,0,0.8,0.3,1,0.6l13.6,24.3C145.8,212,145.9,212.1,145.8,212.3z M144.9,206.7C144.9,206.7,144.9,206.7,144.9,206.7
	c0,0-0.1,0-0.1,0l-3.2-5.8l-7.9-14.2c-0.5-0.8-1.3-1.4-2.3-1.4c-1.3-0.1-3.7-0.2-6.1-0.4l0.1-19.6c1.7,3,4.7,8.1,8.8,13.3
	c4.2,5.3,22.1,26.3,22.2,26.4c0.1,0.2,0.4,0.3,0.6,0.3c0.2,0,0.4-0.1,0.6-0.2c0.1-0.1,1.2-1.2,2.5-2.9c0.1,0.3,0.2,0.6,0.2,0.9
	c0,1-0.1,2.6-0.4,4.1L144.9,206.7z M169.2,206.9c-1.3,0.4-2.9,2.2-4.7,4.4c-1.2,1.4-2.4,2.8-3.4,3.7c-0.5,0.4-1,0.6-1.5,0.6
	c-0.6-0.1-1.2-0.5-1.6-0.9c0.6-0.7,1.6-2.1,2.5-3.7c1.3-2.3,1.6-5.6,1.6-7.9c0-0.8-0.3-1.7-0.7-2.4c0.6-0.8,1.1-1.6,1.6-2.5
	c0.5-0.9,0.9-1.7,1.3-2.4l0,0c0,0,2.8-0.5,9.6,3.1c5,2.6,8.4,6.4,10,8.4C179.7,206.9,170.7,206.5,169.2,206.9z"/>
</svg>
