<?xml version="1.0" encoding="utf-8"?>
<!-- Generator: Adobe Illustrator 23.1.0, SVG Export Plug-In . SVG Version: 6.00 Build 0)  -->
<svg version="1.1" id="Слой_1" xmlns="http://www.w3.org/2000/svg" xmlns:xlink="http://www.w3.org/1999/xlink" x="0px" y="0px"
	 viewBox="0 0 283.5 283.5" style="enable-background:new 0 0 283.5 283.5;" xml:space="preserve">
<style type="text/css">
	.st0{fill:#D0E5F6;}
	.st1{fill:#B1B974;}
	.st2{fill:#758461;stroke:#231F20;stroke-width:0.75;stroke-miterlimit:10;}
	.st3{fill:none;stroke:#231F20;stroke-linecap:round;stroke-linejoin:round;stroke-miterlimit:10;}
	.st4{fill:#A6A8AB;stroke:#231F20;stroke-linecap:round;stroke-linejoin:round;stroke-miterlimit:10;}
	.st5{fill:#D0D2D3;stroke:#231F20;stroke-linecap:round;stroke-linejoin:round;stroke-miterlimit:10;}
	.st6{fill:#FFECBF;stroke:#231F20;stroke-miterlimit:10;}
	.st7{fill:#B4D1EC;stroke:#231F20;stroke-miterlimit:10;}
	.st8{fill:#B4745D;stroke:#231F20;stroke-miterlimit:10;}
	.st9{fill:none;stroke:#231F20;stroke-miterlimit:10;}
	.st10{opacity:0.5;fill:#FFFFFF;}
	.st11{fill:#B4745D;}
	.st12{fill:#929497;stroke:#231F20;stroke-linecap:round;stroke-linejoin:round;stroke-miterlimit:10;}
	.st13{fill:#AEC9DD;}
	.st14{fill:none;stroke:#231F20;stroke-width:0.75;stroke-miterlimit:10;}
	.st15{fill:#FCEC74;}
	.st16{fill:#FFFFFF;}
</style>
<rect x="30.2" y="44.3" class="st0" width="224.7" height="204.3"/>
<polyline class="st1" points="30.2,167.4 37.1,167.4 251.4,167.4 249.3,247.1 37.7,247.1 "/>
<path class="st2" d="M37.1,167.4h85l-1-41.7c0,0-53.7-2.9-58.6,20.9c0,0-12.6-4.8-12.6,7.3c0,0-10.5-7-14.4,0.4s-5.4,15.4-5.4,15.4
	L37.1,167.4z"/>
<path class="st2" d="M259.3,167.7l-93.4,1l0.6-45.8c0,0,59-3.8,64.6,22.2c0,0,13.8-5.4,13.9,7.9c0,0,11.4-7.8,15.8,0.2
	c4.4,8,6.1,16.8,6.1,16.8L259.3,167.7z"/>
<line class="st3" x1="49.2" y1="198.5" x2="44.8" y2="193.7"/>
<line class="st3" x1="51.8" y1="193.7" x2="51.8" y2="198.5"/>
<line class="st3" x1="56.5" y1="193.7" x2="54" y2="198.5"/>
<line class="st3" x1="83" y1="193.7" x2="89.7" y2="200.6"/>
<line class="st3" x1="91.1" y1="193.7" x2="92.3" y2="198.5"/>
<line class="st3" x1="97.9" y1="196.1" x2="95.9" y2="200.6"/>
<line class="st3" x1="47" y1="228.1" x2="55.3" y2="234.7"/>
<line class="st3" x1="55.3" y1="228.1" x2="59.1" y2="234.7"/>
<line class="st3" x1="69.5" y1="226.5" x2="62.5" y2="234.7"/>
<line class="st3" x1="188.8" y1="211.8" x2="194.6" y2="215.3"/>
<line class="st3" x1="195" y1="207.2" x2="198.1" y2="213.6"/>
<line class="st3" x1="203.9" y1="210.4" x2="200.4" y2="215.3"/>
<line class="st3" x1="222.5" y1="190.9" x2="227.8" y2="196.1"/>
<line class="st3" x1="229.3" y1="189.4" x2="230.7" y2="193.5"/>
<path class="st3" d="M235.1,190.9c-0.7,2.1-1.8,5.2-1.8,5.2"/>
<line class="st3" x1="225.2" y1="224.8" x2="230.7" y2="228.1"/>
<line class="st3" x1="234.2" y1="220.4" x2="235.1" y2="224.8"/>
<line class="st3" x1="242.1" y1="222.6" x2="238.8" y2="228.1"/>
<polygon class="st4" points="68.1,174.2 62.5,181.1 222.5,181.1 213,173.8 73.1,171.5 "/>
<polygon class="st5" points="121.4,176.2 69.5,254.4 199.2,254.4 160,176.6 "/>
<rect x="121.1" y="146.4" class="st6" width="10.1" height="30.3"/>
<rect x="149.5" y="146.4" class="st6" width="10.5" height="30.3"/>
<rect x="121.1" y="97.4" class="st6" width="38.9" height="6.1"/>
<rect x="121.1" y="103.6" class="st7" width="7.8" height="28.9"/>
<rect x="121.1" y="132.5" class="st6" width="38.9" height="13.8"/>
<rect x="131.2" y="146.4" class="st8" width="18.3" height="30.3"/>
<rect x="128.9" y="103.6" class="st7" width="8.4" height="28.9"/>
<rect x="137.3" y="103.6" class="st7" width="8.4" height="28.9"/>
<rect x="154.1" y="103.6" class="st7" width="5.9" height="28.9"/>
<line class="st9" x1="149.5" y1="176.6" x2="131.2" y2="176.6"/>
<rect x="145.7" y="103.6" class="st7" width="8.4" height="28.9"/>
<rect x="134.4" y="149.1" class="st7" width="3.8" height="21.2"/>
<rect x="142.8" y="149.1" class="st7" width="3.8" height="21.2"/>
<g>
	<polygon class="st7" points="81.1,105.3 81.1,131.3 68.1,131.3 68.1,132.9 68,132.9 68,105.3 	"/>
	<rect x="81.1" y="105.3" class="st7" width="29.5" height="14.5"/>
	<rect x="96.7" y="119.8" class="st7" width="13.9" height="11.5"/>
	<rect x="68" y="99.1" class="st6" width="42.7" height="6.1"/>
	<line class="st9" x1="110.9" y1="119.8" x2="110.6" y2="119.8"/>
	<line class="st9" x1="81.1" y1="119.8" x2="68.2" y2="119.8"/>
	<line class="st9" x1="96.7" y1="119.8" x2="96.7" y2="105.5"/>
	<g>
		<rect x="81.1" y="119.8" class="st7" width="15.6" height="11.5"/>
		<rect x="68.1" y="131.3" class="st8" width="42.7" height="5.8"/>
		<rect x="81.2" y="137.1" class="st7" width="29.5" height="13.7"/>
		<rect x="68.1" y="137.1" class="st7" width="13.2" height="26"/>
		<rect x="96.8" y="150.8" class="st7" width="14" height="12.3"/>
		<line class="st9" x1="111" y1="150.8" x2="110.8" y2="150.8"/>
		<line class="st9" x1="81.2" y1="150.8" x2="68.3" y2="150.8"/>
		<rect x="81.2" y="150.8" class="st7" width="15.6" height="12.3"/>
		<line class="st9" x1="96.8" y1="150.8" x2="96.8" y2="137.3"/>
	</g>
	<rect x="68.1" y="163.1" class="st6" width="42.7" height="13.4"/>
	<polygon class="st8" points="121.1,107.2 121.1,175 110.8,175 110.8,131.3 110.6,131.3 110.6,107.2 	"/>
	<line class="st9" x1="110.6" y1="119.8" x2="110.6" y2="107.2"/>
</g>
<g>
	<polygon class="st7" points="200,105 200,131.1 213,131.1 213,132.6 213.1,132.6 213.1,105 	"/>
	<rect x="170.5" y="105" class="st7" width="29.5" height="14.5"/>
	<rect x="170.5" y="119.5" class="st7" width="13.9" height="11.5"/>
	<rect x="170.5" y="98.9" class="st6" width="42.7" height="6.1"/>
	<line class="st9" x1="170.5" y1="119.5" x2="170.3" y2="119.5"/>
	<line class="st9" x1="212.9" y1="119.5" x2="200" y2="119.5"/>
	<line class="st9" x1="184.4" y1="105.2" x2="184.4" y2="119.5"/>
	<g>
		<rect x="184.4" y="119.5" class="st7" width="15.6" height="11.5"/>
		<rect x="170.4" y="131.1" class="st8" width="42.7" height="5.8"/>
		<rect x="170.4" y="136.8" class="st7" width="29.5" height="13.7"/>
		<rect x="199.9" y="136.8" class="st7" width="13.2" height="26"/>
		<rect x="170.4" y="150.5" class="st7" width="14" height="12.3"/>
		<line class="st9" x1="170.4" y1="150.5" x2="170.2" y2="150.5"/>
		<line class="st9" x1="212.8" y1="150.5" x2="199.9" y2="150.5"/>
		<rect x="184.3" y="150.5" class="st7" width="15.6" height="12.3"/>
		<line class="st9" x1="184.3" y1="137.1" x2="184.3" y2="150.5"/>
	</g>
	<rect x="170.4" y="162.9" class="st6" width="42.7" height="13.4"/>
	<polygon class="st8" points="160,107 160,174.7 170.4,174.7 170.4,131.1 170.5,131.1 170.5,107 	"/>
	<line class="st9" x1="170.5" y1="107" x2="170.5" y2="119.5"/>
</g>
<line class="st9" x1="121.1" y1="146.4" x2="121.1" y2="132.5"/>
<polygon class="st10" points="121.5,132 124.1,132.1 128.4,104 126.1,104 "/>
<polygon class="st10" points="129.3,132 131.9,132.1 136.3,104 133.9,104 "/>
<polygon class="st10" points="137.8,132 140.3,132.1 144.7,104 142.4,104 "/>
<polygon class="st10" points="146.2,132 148.7,132.1 153.1,104 150.8,104 "/>
<polygon class="st10" points="154.6,132.1 157.1,132.1 159.6,104 159.2,104.1 "/>
<g>
	<g>
		<polygon class="st10" points="68.4,119.4 72.2,119.4 76.8,105.8 72.8,105.8 		"/>
		<polygon class="st10" points="73.7,119.4 76.7,119.3 80.8,105.8 78,105.8 		"/>
	</g>
	<g>
		<polygon class="st10" points="69.1,130.7 71.9,130.7 75.4,120.4 72.4,120.4 		"/>
		<polygon class="st10" points="73.1,130.7 75.3,130.6 78.4,120.4 76.3,120.5 		"/>
	</g>
	<polygon class="st10" points="83,130.6 85.8,130.6 89.3,120.4 86.3,120.4 	"/>
	<polygon class="st10" points="87,130.6 89.2,130.6 92.3,120.4 90.2,120.4 	"/>
	<polygon class="st10" points="101.4,130.7 103.7,130.6 106.7,120.4 104.6,120.5 	"/>
	<polygon class="st10" points="97.4,130.9 100.2,130.9 103.8,120.4 100.7,120.4 	"/>
	<g>
		<polygon class="st10" points="82.3,119.3 86,119.3 90.7,105.7 86.7,105.7 		"/>
		<polygon class="st10" points="87.6,119.3 90.6,119.3 94.6,105.7 91.9,105.8 		"/>
	</g>
	<g>
		<polygon class="st10" points="97.9,119.3 101.6,119.3 106.3,105.7 102.2,105.7 		"/>
		<polygon class="st10" points="103.2,119.3 106.1,119.3 110.2,105.7 107.4,105.7 		"/>
	</g>
	<g>
		<polygon class="st10" points="69.1,162.2 71.9,162.2 75.4,151.3 72.4,151.3 		"/>
		<polygon class="st10" points="73.1,162.2 75.3,162.2 78.4,151.3 76.3,151.3 		"/>
		<polygon class="st10" points="83,162.1 85.8,162.1 89.3,151.2 86.3,151.2 		"/>
		<polygon class="st10" points="87,162.1 89.3,162.1 92.3,151.2 90.2,151.3 		"/>
		<polygon class="st10" points="97.5,162.4 100.3,162.4 103.8,151.2 100.7,151.2 		"/>
		<polygon class="st10" points="101.4,162.4 103.7,162.4 106.7,151.2 104.6,151.3 		"/>
	</g>
	<g>
		<polygon class="st10" points="68.4,150.1 72.2,150.1 76.8,137.6 72.8,137.6 		"/>
		<polygon class="st10" points="73.7,150.1 76.7,150.1 80.8,137.6 78,137.6 		"/>
		<polygon class="st10" points="82.3,150.1 86.1,150.1 90.7,137.5 86.7,137.5 		"/>
		<polygon class="st10" points="87.6,150.1 90.6,150.1 94.7,137.5 91.9,137.6 		"/>
		<polygon class="st10" points="97.9,150 101.6,150.1 106.3,137.5 102.2,137.5 		"/>
		<polygon class="st10" points="103.2,150.1 106.2,150 110.2,137.5 107.5,137.5 		"/>
	</g>
</g>
<g>
	<g>
		<polygon class="st10" points="212.7,119.1 209,119.1 204.3,105.5 208.4,105.5 		"/>
		<polygon class="st10" points="207.4,119.1 204.4,119.1 200.4,105.5 203.1,105.5 		"/>
	</g>
	<g>
		<polygon class="st10" points="212,130.4 209.2,130.4 205.7,120.2 208.8,120.2 		"/>
		<polygon class="st10" points="208,130.4 205.8,130.4 202.8,120.2 204.8,120.2 		"/>
	</g>
	<polygon class="st10" points="198.1,130.4 195.3,130.4 191.8,120.1 194.8,120.1 	"/>
	<polygon class="st10" points="194.1,130.4 191.9,130.3 188.8,120.1 190.9,120.1 	"/>
	<polygon class="st10" points="179.7,130.4 177.5,130.4 174.4,120.2 176.5,120.2 	"/>
	<polygon class="st10" points="183.7,130.6 180.9,130.6 177.4,120.1 180.4,120.1 	"/>
	<g>
		<polygon class="st10" points="198.8,119.1 195.1,119.1 190.4,105.5 194.5,105.5 		"/>
		<polygon class="st10" points="193.5,119.1 190.5,119.1 186.5,105.5 189.3,105.5 		"/>
	</g>
	<g>
		<polygon class="st10" points="183.3,119.1 179.5,119.1 174.9,105.4 178.9,105.4 		"/>
		<polygon class="st10" points="177.9,119.1 175,119 170.9,105.4 173.7,105.5 		"/>
	</g>
	<g>
		<polygon class="st10" points="212,161.9 209.2,162 205.7,151.1 208.7,151.1 		"/>
		<polygon class="st10" points="208,162 205.8,161.9 202.7,151.1 204.8,151.1 		"/>
		<polygon class="st10" points="198.1,161.9 195.3,161.9 191.8,151 194.8,151 		"/>
		<polygon class="st10" points="194.1,161.9 191.9,161.9 188.8,151 190.9,151 		"/>
		<polygon class="st10" points="183.7,162.2 180.9,162.2 177.4,151 180.4,151 		"/>
		<polygon class="st10" points="179.7,162.2 177.5,162.2 174.4,151 176.5,151 		"/>
	</g>
	<g>
		<polygon class="st10" points="212.7,149.8 209,149.9 204.3,137.3 208.3,137.3 		"/>
		<polygon class="st10" points="207.4,149.9 204.4,149.8 200.4,137.3 203.1,137.3 		"/>
		<polygon class="st10" points="198.8,149.8 195.1,149.8 190.4,137.3 194.5,137.3 		"/>
		<polygon class="st10" points="193.5,149.8 190.5,149.8 186.5,137.3 189.2,137.3 		"/>
		<polygon class="st10" points="183.2,149.8 179.5,149.8 174.8,137.3 178.9,137.3 		"/>
		<polygon class="st10" points="177.9,149.8 175,149.8 170.9,137.3 173.7,137.3 		"/>
	</g>
</g>
<polygon class="st10" points="136.6,149.5 134.8,169.8 136,169.8 137.3,149.5 "/>
<polygon class="st10" points="145.1,149.6 143.3,169.9 144.5,169.9 145.8,149.6 "/>
<g>
	<path class="st11" d="M122.8,142.1v-6.7h1.5v5.4h1.8v-5.4h1.5v5.4h1.8v-5.4h1.5v6.7H122.8z"/>
	<path class="st11" d="M134.6,135.4v3.2l2.1-3.2h1.5l-1.6,2.4l2,4.3h-1.7l-1.3-2.9l-0.9,1.4v1.5h-1.5v-6.7H134.6z"/>
	<path class="st11" d="M142.3,142.2c-0.9,0-1.6-0.3-2.1-1s-0.7-1.5-0.7-2.5c0-1,0.3-1.8,0.8-2.5c0.5-0.7,1.2-1,2.1-1
		c0.9,0,1.6,0.4,2.1,1.1c0.5,0.7,0.7,1.5,0.7,2.4c0,1-0.2,1.8-0.7,2.5C143.9,141.9,143.2,142.2,142.3,142.2z M142.3,136.5
		c-0.8,0-1.2,0.7-1.2,2.2c0,1.5,0.4,2.2,1.2,2.2c0.8,0,1.2-0.7,1.2-2.2C143.5,137.3,143.1,136.5,142.3,136.5z"/>
	<path class="st11" d="M147.3,142.1h-1.4l1.9-6.7h2.1l1.9,6.7h-1.7l-1.4-5.3L147.3,142.1z"/>
	<path class="st11" d="M156.3,135.4l2.1,6.7h-1.7l-0.4-1.4h-2.2l-0.4,1.4h-1.4l2.2-6.7H156.3z M154.5,139.5h1.4l-0.7-2.4
		L154.5,139.5z"/>
</g>
<rect x="218.4" y="68.6" class="st4" width="2.9" height="125.8"/>
<path class="st12" d="M223.3,219.1h-7v-23.6c0-1.6,1.3-2.9,2.9-2.9h1.1c1.6,0,2.9,1.3,2.9,2.9V219.1z"/>
<circle class="st12" cx="219.8" cy="66.6" r="4.4"/>
<g>
	<path class="st13" d="M221.2,102.2c-19.5-18.5-39,17.2-58.4-1.3c0-7.9,0-15.9,0-23.8c19.5,17.6,39-18.9,58.4-1.3
		C221.2,84.7,221.2,93.5,221.2,102.2z"/>
	<path class="st14" d="M221.2,102.2c-19.5-18.5-39,17.2-58.4-1.3c0-7.9,0-15.9,0-23.8c19.5,17.6,39-18.9,58.4-1.3
		C221.2,84.7,221.2,93.5,221.2,102.2z"/>
</g>
<g>
	<path class="st15" d="M221.2,113.5c-19.5-15-39,14-58.4-1c0-6.4,0-12.9,0-19.3c19.5,14.3,39-15.3,58.4-1
		C221.2,99.3,221.2,106.4,221.2,113.5z"/>
	<path class="st14" d="M221.2,113.5c-19.5-15-39,14-58.4-1c0-6.4,0-12.9,0-19.3c19.5,14.3,39-15.3,58.4-1
		C221.2,99.3,221.2,106.4,221.2,113.5z"/>
</g>
<rect x="148.3" y="129.2" transform="matrix(6.123234e-17 -1 1 6.123234e-17 118.6036 398.7405)" class="st16" width="220.7" height="21.8"/>
<rect x="-82.1" y="132.6" transform="matrix(6.123234e-17 -1 1 6.123234e-17 -113.2567 169.8419)" class="st16" width="220.7" height="17.9"/>
</svg>
