<?xml version="1.0" encoding="utf-8"?>
<!-- Generator: Adobe Illustrator 23.1.0, SVG Export Plug-In . SVG Version: 6.00 Build 0)  -->
<svg version="1.1" id="Слой_1" xmlns="http://www.w3.org/2000/svg" xmlns:xlink="http://www.w3.org/1999/xlink" x="0px" y="0px"
	 viewBox="0 0 283.5 283.5" style="enable-background:new 0 0 283.5 283.5;" xml:space="preserve">
<style type="text/css">
	.st0{fill:#4968B0;}
	.st1{fill:#FFDEA8;}
	.st2{fill:#FFFFFF;}
	.st3{fill:#FFDC4D;}
	.st4{fill:#FFE500;}
	.st5{fill:#FCC615;}
</style>
<g>
	<path class="st0" d="M142.3,157c0,0-12.4-36.1-19.6-36.9c-0.2,0-0.4,0-0.6,0c-6.9-5.4-17.3-5.9-17.3-5.9
		c-7.1-0.1-12.5,2.4-16.7,6.9c-3.1,1.5-6.3,5.6-7.9,14.7c-2.3,7-4,15.6-5.3,25.2c-4.2,30.3-4.1,64.5-4.1,64.5
		c25.4,5.6,65.1-0.8,65.1-0.8c-0.2-27.2-0.8-48.2-2.2-64.2C137.5,159.2,142.3,157,142.3,157z"/>
	<path class="st1" d="M155.3,179.2c-2.4,0.6-3.8-1.2-8.3-0.9c-3,0.2-4.6,2.2-5.5,4.3l-4.5-23.1l-3.1,1.3l1.7,30.5
		c0,0.8-0.5,3.3,3.2,2.6l2.7-2.5l0.3-5.3l5.9-4.4c0,0,5.5,0.8,6.8,0.4C156.8,181.3,157.7,178.7,155.3,179.2z"/>
	<path class="st1" d="M151.4,159.6c0,0,1.3-1.3,3.2-0.1s3,2.7,4.2,2.8c1.3,0.1,1.8,0.3,1.7,0.8s-1.3,1.1-1.3,1.1L151.4,159.6z"/>
	<path class="st2" d="M176.7,151.2c0,0-15.1,16.7-25.1,26.7c0.1,0,0.2,0,0.4-0.1c0.6-0.1,1.1,0,1.7,0.1c0,0,0,0,0.1,0
		c0,0,0-0.1,0.1-0.1c0.1-0.1,0.2-0.2,0.3-0.2c0.1,0,0.3,0,0.4,0c0.1,0,0.3,0,0.4,0.1c0.1,0.1,0.1,0.1,0.2,0.1c0,0,0,0,0,0
		c0,0,0.2,0,0.3,0c0,0,0,0,0,0c0.1,0,0.2,0.1,0.3,0.1c0.1,0.1,0.2,0.2,0.3,0.2c0.1,0.1,0.2,0.3,0.3,0.4c0,0.1,0,0.2,0,0.3
		c0,0,0,0,0,0c0.5,0.4,0.6,1.1,0.3,1.6c-0.1,0.1-0.2,0.3-0.3,0.4c-0.1,0.2-0.3,0.3-0.4,0.4c-0.5,0.4-1.3,0.6-1.9,0.7
		c-0.7,0.1-1.3,0.2-2,0.1c-1.2-0.1-2.4-0.1-3.5-0.5c-0.1,0-0.2-0.1-0.3-0.1c-0.2,0-0.3,0-0.5-0.1c0,0,0,0,0,0l-7.3,5.5l-1.9,1.9
		l27.3,22.9c0,0,14.9-13.5,19.6-18.2c4.9-4.9,19-20.5,19-20.5L176.7,151.2z"/>
	<line class="st3" x1="179.8" y1="160.5" x2="175.6" y2="188.7"/>
	<line class="st3" x1="194.5" y1="175.9" x2="162.4" y2="172.2"/>
	<line class="st3" x1="187.3" y1="185.6" x2="169" y2="163.4"/>
	<line class="st3" x1="189.4" y1="166.2" x2="165.3" y2="182.8"/>
	<line class="st3" x1="182.4" y1="188.7" x2="173.8" y2="161.1"/>
	<line class="st3" x1="169.5" y1="186.6" x2="185.5" y2="162.3"/>
	<line class="st3" x1="191.3" y1="181" x2="165.2" y2="167.4"/>
	<line class="st3" x1="162.4" y1="177.8" x2="192.4" y2="170.7"/>
	
		<ellipse transform="matrix(0.9962 -8.677023e-02 8.677023e-02 0.9962 -14.4273 16.0662)" class="st2" cx="177.6" cy="174" rx="10.7" ry="10"/>
	<path d="M179.3,163.8c-0.1,0-0.1,0-0.2,0C179.2,163.8,179.3,163.8,179.3,163.8z"/>
	<path class="st4" d="M170,170.9c0,0-4.2,0.6-2.3,1.8c2,1.3,7.6,2.5,6.3,3.1c-1.3,0.6-2.4,1.7-0.4,1.8c2,0.1,5.4,0.1,5.2-0.7
		c-0.1-0.8-1.8-1.6-1.8-1.6s4,1.4,4.1,0.1c0.1-1.3-1.7-1.6-1.7-1.6s3.7,0.7,3.4-0.6c-0.3-1.3-2.4-2-2.4-2s3,0.1,2.3-1.3
		c-0.7-1.4-5.2-4.1-8.2-4.2c-3-0.1-2.5,0.7-2.1,1.7s-2.5,0-2.7,1.1c-0.1,1.1,1,2,1,2"/>
	<path class="st5" d="M172.7,173.4l-5.1-0.7l-34.1-17.8c0,0-0.1-2.7,1.7-3.5l33.6,17.6L172.7,173.4z"/>
	<path class="st1" d="M94.7,167.4c0,0,11.4,15.8,14.9,17.9s5.9,3.5,36.1-7.8c0,0,7.6,2.5,13.4,0c6.4-2.8,4-4.7,4-4.7
		s2.1-1.8,1.7-2.1c-0.4-0.3-0.4-0.3-0.4-0.3s0.6-0.3-0.4-1.4c-1-1.1-2.4-0.8-2.4-0.8s0.8-1.6-0.3-2s-6.3,1-7.8,0.7
		c-1.4-0.3-2.4-1.1-2.5-2.7l-3.8-1.8c0,0-4.4,4.1-4.5,6.6l-26.7,6.6c0,0-8.4-15.2-9.8-17.6L94.7,167.4z"/>
	<path d="M106.2,108.9l14.9,5.3l-1.3,4.7c0,0,4.3,7.5-3.4,8.1c-0.2,0-0.4,0-0.7,0c-8.4,0-13.2-11.7-13.2-11.7l2.8-0.8L106.2,108.9
		 M105.8,108.1l-0.1,0.7l-0.9,5.3l-2.5,0.7l-0.6,0.2l0.2,0.6c0.1,0.1,1.3,3,3.5,6c3.1,4,6.6,6.1,10.2,6.1c0.2,0,0.5,0,0.7,0
		c2.3-0.2,3.9-1,4.6-2.4c1.2-2.3-0.2-5.5-0.7-6.3l1.3-4.5l0.1-0.5l-0.5-0.2l-14.9-5.3L105.8,108.1L105.8,108.1z"/>
	<path class="st3" d="M94,76.4c0,0-2.8,12.1,1.7,16c4.6,3.9,4.9-13.2,4.9-13.2L94,76.4z"/>
	<path d="M94,76.4l6.6,2.8c0,0-0.2,13.8-3.6,13.8c-0.4,0-0.8-0.2-1.3-0.6C91.1,88.6,94,76.4,94,76.4 M93.6,75.7l-0.2,0.7
		c-0.1,0.5-2.9,12.5,1.9,16.6c0.6,0.5,1.1,0.7,1.6,0.7c1.7,0,2.9-2.4,3.6-7.4c0.5-3.5,0.5-6.9,0.5-7l0-0.4l-0.4-0.1l-6.6-2.8
		L93.6,75.7L93.6,75.7z"/>
	<path class="st1" d="M132.6,59.5c-12.1-2.3-24.2,3-31.2,12.5c-1.5-1.6-3.5-2.4-5.2-1.8c-2.4,0.9-3.3,4.3-1.9,7.6
		c0.6,1.4,1.5,2.6,2.5,3.4c-0.2,0.6-0.4,1.2-0.5,1.9c-2.6,11.1,1.4,22,9.4,28.7l-0.5,2.8l-2.8,0.8c0,0,5.1,12.3,13.9,11.7
		c7.7-0.6,3.4-8.1,3.4-8.1l0.2-0.8c15.8,2.4,31.4-8.1,35.1-23.8C158.8,78.1,148.8,62.5,132.6,59.5z"/>
	<g>
		<path d="M134.5,92.6c0.9-0.9,1-2.1,0.3-2.7c-0.7-0.6-1.9-0.3-2.8,0.6c-0.9,0.9-1,2.1-0.3,2.7C132.3,93.8,133.6,93.5,134.5,92.6z"
			/>
		<path d="M144.3,98.4c-0.9,0.9-1,2.1-0.3,2.7c0.7,0.6,1.9,0.3,2.8-0.6c0.9-0.9,1-2.1,0.3-2.7C146.4,97.3,145.2,97.5,144.3,98.4z"/>
		<path d="M134,111.6c-2.9,0.3-5.1-0.2-6.4-1.6c-2-2.1-1.5-5.5-1.5-5.5c0-0.2-0.1-0.3-0.2-0.3c-0.2,0-0.3,0.1-0.3,0.2
			c0,0.1-0.6,3.7,1.6,6c1.2,1.3,3,1.9,5.3,1.9c0.5,0,1,0,1.6-0.1c0.2,0,0.3-0.2,0.2-0.3C134.3,111.7,134.1,111.6,134,111.6z"/>
		<path d="M138.1,100c-0.3-0.2-0.5-0.4-0.5-0.7c-0.1-0.9,1-2.2,1.5-2.7c0.1-0.1,0.1-0.3,0-0.4c-0.1-0.1-0.3-0.1-0.4,0
			c-0.1,0.1-1.8,1.7-1.7,3.1c0.1,0.5,0.3,0.9,0.8,1.2c0.9,0.5,1.4,1.1,1.4,1.7c0,0.6-0.6,1.1-1,1.4c-1.5,0.9-3.5,0.2-3.5,0.2
			c-0.1-0.1-0.3,0-0.4,0.2c-0.1,0.1,0,0.3,0.2,0.4c0.1,0,0.8,0.3,1.8,0.3c0.7,0,1.5-0.1,2.2-0.6c1.1-0.7,1.3-1.4,1.3-1.9
			C139.8,101.6,139.5,100.8,138.1,100z"/>
		<path d="M132.1,86c0,0,4.5-0.3,7.2,2.1c0.1,0,0.1,0.1,0.2,0.1c0.1,0,0.2,0,0.2-0.1c0.1-0.1,0.1-0.3,0-0.4
			c-2.9-2.5-7.4-2.3-7.6-2.2c-0.2,0-0.3,0.1-0.3,0.3C131.8,85.9,131.9,86,132.1,86z"/>
		<path d="M147.7,93c-0.1-0.1-0.3-0.1-0.4,0c-0.1,0.1-0.1,0.3,0,0.4c0,0,2,2,1.9,4.4c0,0.2,0.1,0.3,0.3,0.3c0,0,0,0,0,0
			c0.1,0,0.3-0.1,0.3-0.3C149.9,95.3,147.8,93.1,147.7,93z"/>
	</g>
	<path class="st3" d="M142.7,54.4c-9.3-4.9-16.6-6.2-22.7-5.4c1-2.3,2.3-6.9-0.4-7.1c-3.3-0.2-2,5-1.2,7.4c-0.3,0.1-0.4,0.1-0.7,0.1
		c-1.2-1.7-3.8-4.4-5.1-2.7c-1.3,1.7,0.4,2.7,2.5,3.3C101,54.4,96.7,69.9,96.7,69.9s2.1-0.7,4.6,2.1c1.5,1.7,3.6,8,3.6,8
		c14.5-4.7,19.8-19.2,19.8-19.2c3.9,17.1,17.2,26.5,18.3,27c4.1,1.8,3-3.5,3-3.5c3.2,9.8,7,14.6,7,14.6
		C165.6,94.8,163.7,65.6,142.7,54.4z"/>
	<path d="M204.6,173l-27.7-22c-0.1-0.1-0.3-0.1-0.4,0c-0.1,0.1-6.4,7.1-13.5,14.7l-3-1.6c0.3-0.2,0.7-0.6,0.8-1
		c0.1-0.2,0-0.4-0.1-0.6c-0.2-0.3-0.8-0.5-1.8-0.6c-0.6-0.1-1.2-0.6-2-1.2c-0.6-0.5-1.3-1.1-2.2-1.6c-2.1-1.2-3.6,0.2-3.6,0.2
		c0,0,0,0.1-0.1,0.1l-9-4.8c-1.2-3.2-3.5-9.6-6.4-16.1c-5.5-12.5-9.7-18.7-12.9-19.1c-0.1,0-0.2,0-0.3,0c-0.1,0-0.1,0-0.2,0
		c-0.8-0.6-1.7-1.2-2.6-1.7c0.1,0.2,0.2,0.5,0.2,0.7c3,1.8,5.7,4.2,7.2,7.7c3.7,8.6,6,22.6,7.3,44.1l-18.1,4.5
		c-1.2-2.1-6.7-12-9.5-16.9c0,0,0.1,0,0.1-0.1c0.2-0.1,0.3-0.4,0.2-0.6c0-0.1-2.2-9.4-5.3-18.5c-4.3-12.7-8.1-18.8-11.6-18.8
		c-0.2,0-0.5,0-0.7,0.1c-0.1,0-0.2,0.1-0.3,0.1c3.9-3.8,8.9-6,15.3-6c0.1,0,0.3,0,0.4,0c0,0,0,0,0,0c0-0.2,0-0.4,0.1-0.6
		c0,0-0.1,0-0.1,0c0,0,0,0,0,0c-0.1,0-0.3,0-0.4,0c-7.1,0-12.4,2.5-16.6,7c-2.5,1.2-5.8,4.5-7.7,12.7c-0.2,0.8-0.3,1.6-0.5,2.5
		c-2.3,7.1-4,15.5-5.3,25.1c-4.2,30-4.1,64.3-4.1,64.6c0,0.3,0.2,0.5,0.4,0.5c7,1.6,15.7,2.3,25.9,2.3c20,0,39.2-3.1,39.4-3.1
		c0.3,0,0.5-0.3,0.5-0.6c-0.1-11.4-0.2-21.7-0.5-30.9c0.6,0.2,1.1,0.4,1.7,0.4c1.9,0,3.1-1.3,3.8-2.6l24.2,20.3
		c0.1,0,0.1,0.1,0.2,0.1c0.1,0,0.1,0,0.2-0.1c0.1-0.1,14.9-13.6,19.6-18.3c4.8-4.9,18.9-20.4,19-20.5c0.1-0.1,0.1-0.1,0.1-0.2
		C204.7,173.1,204.6,173.1,204.6,173z M152,159.5c0.5-0.3,1.4-0.5,2.5,0.2c0.8,0.5,1.5,1,2.1,1.5c0.8,0.7,1.5,1.2,2.3,1.3
		c0.4,0,1.3,0.1,1.4,0.3c0,0,0,0,0,0.2c-0.1,0.2-0.5,0.6-0.8,0.8l-7.9-4.2C151.7,159.6,151.8,159.6,152,159.5z M168.4,169.2
		c-0.1,0.5-0.3,2-1.4,2.9l-1.8-0.9c0.1-0.2,0.1-0.3,0.1-0.4c0-0.2-0.1-0.4-0.3-0.5l0,0c0.1-0.5-0.2-1-0.7-1.6c-0.6-0.7-1.4-1-2-1
		c0.1-0.3,0.1-0.7,0-1.1c-0.1-0.4-0.4-0.7-0.9-0.8c-0.2-0.1-0.5-0.1-0.8-0.1c-0.9,0-2.1,0.2-3.4,0.4c-0.5,0.1-1,0.2-1.4,0.2
		l-22-11.5c0-0.5,0.1-2.3,1.4-3l6.5,3.4C141.7,155.2,168.4,169.2,168.4,169.2z M172.7,173.7C172.7,173.7,172.7,173.7,172.7,173.7
		c0.1,0,0.2-0.1,0.3-0.1c0.1-0.1,0-0.2,0-0.3l-2-2.3c0,0,0.1,0,0.1-0.1c0.1-0.1,0.1-0.3-0.1-0.4c0,0-1-0.8-0.9-1.7
		c0-0.3,0.6-0.4,1.3-0.4c0.6,0,1.1,0,1.3-0.3c0.1-0.1,0.1-0.3,0-0.6l0-0.1c-0.2-0.4-0.3-0.8-0.2-0.9c0.1-0.1,0.5-0.4,2.1-0.3
		c2.8,0.1,7.3,2.8,7.9,4.1c0.1,0.3,0.1,0.4,0,0.4c-0.2,0.4-1.3,0.5-2,0.4c-0.1,0-0.3,0.1-0.3,0.2c0,0.1,0.1,0.3,0.2,0.3
		c0.5,0.2,2,0.9,2.2,1.8c0,0.1,0,0.2,0,0.2c-0.3,0.3-1.8,0.3-2.9,0.1c-0.1,0-0.1,0-0.2,0c-0.2,0-0.3,0.1-0.3,0.2
		c0,0.2,0.1,0.3,0.2,0.3c0,0,0,0,0.1,0c0.3,0.1,1.5,0.4,1.4,1.2c0,0.1,0,0.1-0.1,0.2c-0.6,0.3-2.5-0.1-3.6-0.5
		c-0.1-0.1-0.3,0-0.4,0.2c-0.1,0.1,0,0.3,0.2,0.4c0.6,0.3,1.6,0.8,1.7,1.3c-0.1,0.3-1.9,0.6-4.9,0.4c-0.6,0-0.8-0.2-0.8-0.2
		c0-0.1,0.4-0.7,1.3-1.1c0.3-0.1,0.4-0.3,0.4-0.5c0-0.5-0.8-0.8-3-1.6c-0.7-0.2-1.3-0.5-2-0.7L172.7,173.7z M170.6,172.8
		c0.2-0.3,0.3-0.6,0.4-0.8l0.9,1L170.6,172.8z M171.4,174.5c0.9,0.3,2.2,0.8,2.6,1c-0.8,0.4-1.7,1-1.6,1.6c0.1,0.6,1,0.7,1.3,0.7
		c0.3,0,1.1,0.1,2,0.1c1.3,0,2.9-0.1,3.4-0.6c0.1-0.1,0.2-0.3,0.2-0.5c0-0.3-0.2-0.5-0.4-0.7c0.9,0.2,1.8,0.3,2.3,0
		c0.2-0.1,0.3-0.3,0.4-0.6c0.1-0.5-0.1-0.8-0.4-1.1c0.7,0,1.5,0,1.9-0.4c0.1-0.1,0.3-0.4,0.2-0.7c-0.2-0.8-0.9-1.3-1.5-1.7
		c0.5-0.1,1.1-0.3,1.3-0.6c0.1-0.2,0.2-0.5,0-1c-0.8-1.6-5.5-4.2-8.4-4.4c-1.5-0.1-2.3,0.1-2.6,0.5c-0.3,0.4-0.1,1,0.2,1.5l0,0.1
		c0,0,0,0,0,0c-0.1,0.1-0.6,0.1-0.8,0.1c-0.8,0-1.8,0-1.9,0.9c0,0.3,0,0.5,0.1,0.8l-0.5-0.6c0-0.1-0.1-0.1-0.1-0.1
		c1.9-2.7,5.2-4.5,8.8-4.5c0.4,0,0.9,0,1.3,0.1c2.9,0.3,5.4,1.8,7.1,3.9c1.5,2,2.2,4.5,1.8,6.9c-0.8,5.3-6,9.1-11.8,8.5
		c-2.9-0.3-5.4-1.8-7.1-3.9c-1.5-2-2.2-4.4-1.8-6.9l0.2,0.1c0,0,0.1,0,0.1,0l0.1,0C168.6,173.5,170.1,174.1,171.4,174.5z M169,169.7
		l1.6,1.8c0,0.2-0.1,0.7-0.6,1.3l-2.3-0.3l-0.1,0C168.5,171.5,168.8,170.4,169,169.7z M166.3,172.4l-1.7-0.2
		c0.2-0.2,0.3-0.3,0.4-0.5L166.3,172.4z M154.8,166.3c-0.3,0-0.6,0.1-0.8,0.1c-0.2,0-0.3,0-0.4,0c-1.1-0.2-1.7-0.8-2-1.7
		L154.8,166.3z M146.6,162.1c-0.8,0.7-4,4-4.5,6.5l-2.7,0.7l-1.9-9.5c0.9-0.4,1.8-0.8,2.5-1.1L146.6,162.1z M127.6,126.2
		c-1-2.2-2.5-4.2-4.5-5.9c6,1.5,15.3,25.8,18.3,34.1l-6.1-3.2c-0.1,0-0.2,0-0.2,0c-0.8,0.4-1.3,1.1-1.6,1.8
		C132.1,140.7,130.2,132.2,127.6,126.2z M133.7,155.4l5.6,2.9c-1.5,0.7-3.4,1.5-5.1,2.2C134.1,158.8,133.9,157,133.7,155.4z
		 M134.3,161.1c0.9-0.4,1.8-0.8,2.7-1.2l1.9,9.4l-3.9,1C134.8,167.1,134.5,164,134.3,161.1z M115.8,175.4
		C115.8,175.4,115.7,175.4,115.8,175.4c-0.1,0.1-1.2,0.9-1.6,2.3c0,0.2,0.1,0.3,0.2,0.3c0,0,0.1,0,0.1,0c0.1,0,0.2-0.1,0.2-0.2
		c0.3-1.2,1.3-1.9,1.3-1.9c0.1-0.1,0.1-0.1,0.1-0.2l26.5-6.6c0.1-2.5,4.5-6.6,4.5-6.6l0.2,0.1v0l3.7,1.9c0.2,1.5,1.1,2.3,2.5,2.6
		c0.1,0,0.3,0,0.5,0c1.6,0,5-0.8,6.6-0.8c0.3,0,0.5,0,0.6,0.1c0.7,0.3,0.6,1,0.5,1.5c-2.9,3.1-8,2.8-8.1,2.8l0,0.6c0,0,0.2,0,0.4,0
		c1.3,0,5.5-0.2,8.1-3c0.5,0,1.2,0.2,1.8,0.9c0.4,0.5,0.6,0.8,0.6,1c-4.2,3.5-11,4.1-11.1,4.1l0,0.6c0.3,0,6.9-0.5,11.2-4.1
		c0,0,0.1,0,0.1,0.1c0.3,0.2-0.6,1.1-1.2,1.6c0,0,0,0-0.1,0l0,0.1c-0.1,0.1-0.2,0.2-0.2,0.2c0,0,0,0,0,0c0,0,0,0,0,0
		c-0.1,0.1-0.2,0.2-0.2,0.2s0,0,0,0c-0.8,0.9-4.2,3.5-7.9,3.4l0,0.6c0.1,0,0.2,0,0.3,0c3.5,0,6.9-2.2,8-3.5c0.3,0.7,0.1,2.2-4.3,4.1
		c-1.9,0.8-4.1,1.1-6,1.1c-4,0-7.4-1.1-7.4-1.1c-1.2,0.5-2.8,1-4.4,1.6l0,0c0,0,0,0,0,0c-3.3,1.2-6.5,2.3-6.6,2.4
		c-11.5,4-17.1,5.3-20.4,5.3c-2.4,0-3.5-0.7-4.8-1.5c-2.5-1.5-10.2-11.6-14.6-17.7c3.7-3.2,7.6-6.5,11.3-9.1
		C109.1,163.4,114.7,173.5,115.8,175.4z M146.7,178.4c1.3,0.3,3.7,0.8,6.4,0.8c0,0,0,0,0,0c0.4,0.1,0.8,0.2,1.2,0.2
		c0.3,0,0.6,0,1-0.1c0.2-0.1,0.4-0.1,0.6-0.1c1.6,0,0.7,2.2-1.4,2.9c-0.3,0.1-0.7,0.1-1.3,0.1c-2.1,0-5.5-0.5-5.5-0.5l-7.1,5.3
		c0,0,0,0,0,0c0,0-0.1-0.1-0.2-0.1C140.6,185.5,141.4,179,146.7,178.4z M141.5,179.7c0.7-0.3,1.5-0.5,2.2-0.8
		c-0.8,0.5-1.4,1.2-2,2.1L141.5,179.7z M89.6,120.8c0.2,0,0.4-0.1,0.6-0.1c7.8,0,16.4,36.9,16.4,36.9c-10.7,7.6-24.3,21.2-24.9,21.2
		c0,0,0,0,0,0C75.1,134.3,83.2,122.3,89.6,120.8z M96.6,228c-8.9,0-18-0.6-25.8-2.3c0,0-0.1-34.2,4.1-64.5c1.1-8,2.5-15.3,4.2-21.6
		c-1.2,9.8-0.5,23,1.8,39.2c0,0.3,0.3,0.5,0.6,0.5c0.4,0,0.6-0.1,4.8-4c2.2-2,5-4.6,8.1-7.3c4.5,6.1,12.2,16.3,14.8,17.8
		c1.3,0.8,2.6,1.5,5.1,1.5c3.7,0,9.9-1.6,20.5-5.3c0.5,12.2,0.8,26.4,0.9,43C135.9,225,116.8,228,96.6,228z M137.7,193.9
		c-0.5,0-1.1-0.1-1.7-0.4c-0.1-4.1-0.3-8-0.4-11.7c1.7-0.6,3.5-1.2,5.4-1.9l0.4,1.8c-0.2,0.3-0.3,0.6-0.5,1c-0.9,2.2-1,4.4-1,4.5
		l0,0.2l-1.5,1.5c-0.1,0.1-0.1,0.1-0.1,0.2c0,0.1,0,0.2,0.1,0.2l2.7,2.3C140.4,192.7,139.3,193.9,137.7,193.9z M185.2,193.5
		c-4.4,4.4-17.7,16.5-19.4,18.1L139,189l1.8-1.6l7.1-5.2c0.8,0.1,3.5,0.5,5.3,0.5c0.7,0,1.2-0.1,1.5-0.2c1.5-0.5,2.7-1.9,2.6-3
		c0-0.3-0.2-0.6-0.5-0.8c0.9-0.2,1.8-0.5,2.6-0.8c3-1.3,4.6-2.6,4.7-4c0.1-0.5-0.1-0.8-0.2-1.1c0.1-0.1,0.2-0.2,0.3-0.3l2.5,0.3
		c-0.1,1.2-0.1,2.4,0.2,3.5l-4.5,1.1c-0.1,0-0.2,0.2-0.2,0.3c0,0.1,0.1,0.2,0.3,0.2c0,0,0,0,0.1,0l4.6-1.1c0.3,1.1,0.9,2.2,1.6,3.1
		c0,0,0.1,0.1,0.1,0.1l-3.6,2.5c-0.1,0.1-0.1,0.2-0.1,0.4c0.1,0.1,0.1,0.1,0.2,0.1c0.1,0,0.1,0,0.1,0l3.6-2.5
		c0.8,0.9,1.6,1.6,2.6,2.2l-2.5,3.8c-0.1,0.1,0,0.3,0.1,0.4c0,0,0.1,0,0.1,0c0.1,0,0.2,0,0.2-0.1l2.5-3.8c1.2,0.6,2.5,1,3.8,1.2
		l-0.7,4.5c0,0.1,0.1,0.3,0.2,0.3c0,0,0,0,0,0c0.1,0,0.2-0.1,0.3-0.2l0.7-4.5c0.3,0,0.6,0.1,1,0.1c1.1,0,2.1-0.2,3.1-0.4l1.5,4.9
		c0,0.1,0.1,0.2,0.2,0.2c0,0,0.1,0,0.1,0c0.1,0,0.2-0.2,0.2-0.3l-1.5-4.9c1.1-0.4,2.1-0.9,3.1-1.5l3,3.6c0.1,0.1,0.1,0.1,0.2,0.1
		c0.1,0,0.1,0,0.2-0.1c0.1-0.1,0.1-0.3,0-0.4l-3-3.6c1-0.8,1.8-1.7,2.5-2.8l4.2,2.2c0,0,0.1,0,0.1,0c0.1,0,0.2-0.1,0.2-0.1
		c0.1-0.1,0-0.3-0.1-0.4l-4.1-2.2c0.5-1,0.9-2,1.1-3.1l6,0.7c0,0,0,0,0,0c0.1,0,0.2-0.1,0.3-0.2c0-0.1-0.1-0.3-0.2-0.3l-6-0.7
		c0.1-1,0.1-2-0.1-3l4.1-1c0.1,0,0.2-0.2,0.2-0.3c0-0.1-0.2-0.2-0.3-0.2l-4.1,1c-0.3-1.1-0.8-2.2-1.5-3.1l2.8-1.9
		c0.1-0.1,0.1-0.2,0.1-0.4c-0.1-0.1-0.2-0.1-0.4-0.1l-2.8,1.9c-0.8-1-1.7-1.8-2.8-2.4l2-3c0.1-0.1,0-0.3-0.1-0.4
		c-0.1-0.1-0.3,0-0.4,0.1l-2,3c-1.1-0.6-2.4-1.1-3.8-1.3l0.5-3.4c0-0.1-0.1-0.3-0.2-0.3c-0.1,0-0.3,0.1-0.3,0.2l-0.5,3.4
		c-1.4-0.2-2.8,0-4,0.3l-0.9-3c0-0.1-0.2-0.2-0.3-0.2c-0.1,0-0.2,0.2-0.2,0.3l0.9,3c-1.2,0.3-2.3,0.9-3.3,1.5l-2-2.5
		c-0.1-0.1-0.3-0.1-0.4,0c-0.1,0.1-0.1,0.3,0,0.4l2,2.4c-0.9,0.7-1.7,1.5-2.4,2.5l-4.9-2.6c6.4-6.9,12.2-13.2,13.3-14.4l27.2,21.7
		C202.2,175.2,189.7,189,185.2,193.5z"/>
	<path d="M157.7,69.8c-2.3-4.8-6.6-11.4-14.7-15.7c-7.1-3.7-13.6-5.6-19.6-5.6c-1,0-1.9,0.1-2.8,0.2c0.7-1.9,1.5-4.6,0.9-6.1
		c-0.3-0.8-0.9-1.2-1.8-1.3c-0.1,0-0.2,0-0.2,0c-1,0-1.6,0.5-1.9,0.9c-1,1.6-0.3,4.8,0.4,6.8c-0.3-0.3-0.5-0.7-0.8-1
		c-1.4-1.6-2.6-2.4-3.6-2.4c-0.6,0-1.1,0.3-1.4,0.7c-0.6,0.8-0.5,1.4-0.4,1.9c0.3,0.8,1.3,1.5,2.5,1.9c-1.2,0.5-2.4,1-3.5,1.7
		c-3,1.7-5.8,4.2-8.2,7.2c-4.1,5.1-5.7,10.2-5.8,10.5c-0.2,0-0.4,0.1-0.6,0.2c-1.1,0.4-1.9,1.2-2.4,2.4c-0.7,1.7-0.7,3.9,0.2,6
		c0.5,1.3,1.4,2.5,2.4,3.3c-0.2,0.5-0.3,1-0.4,1.6c-1.9,8-0.5,16,3.8,22.7c4.3,6.7,11.1,11.2,19.1,12.7c1.9,0.4,3.8,0.5,5.8,0.5
		c13,0,24.8-8.2,29.6-20c3.6-1.3,6.1-5.2,6.8-10.9C161.7,82.4,160.5,75.7,157.7,69.8z M119.4,41.9c0.1,0,0.1,0,0.2,0
		c2.5,0.2,1.3,4.4,0.3,6.9c-0.5,0.1-0.9,0.1-1.4,0.2C117.7,46.5,116.6,41.9,119.4,41.9z M112.6,46.8c0.3-0.4,0.6-0.5,1-0.5
		c1.2,0,2.8,1.7,3.8,3c-0.8,0.2-1.6,0.4-2.4,0.7C113.1,49.3,111.4,48.2,112.6,46.8z M124.5,118.4c-1.9,0-3.8-0.2-5.7-0.5
		c-16.2-3.1-26.3-18.6-22.5-34.8c0.1-0.6,0.3-1.3,0.5-1.9c-1-0.8-1.9-2-2.5-3.4c-1.4-3.3-0.5-6.7,1.9-7.6c0.2-0.1,0.3-0.1,0.5-0.1
		c0.3,0,0.7-0.1,1,0c0.1,0,0.2,0,0.4,0c0.1,0,0.1,0,0.2,0c0.7,0.1,1.4,0.5,2.1,0.9c0.3,0.2,0.6,0.5,0.9,0.8c1.1,1.3,2.9,5.9,3.5,7.6
		l0.2,0.5l0.5-0.2c7.6-2.4,12.7-7.5,15.5-11.3c1.9-2.5,3.1-4.8,3.8-6.3c2.2,8.1,6.5,14.2,9.9,17.9c4,4.5,7.6,7,8.3,7.3
		c0.7,0.3,1.2,0.4,1.7,0.4c0.6,0,1.2-0.2,1.5-0.7c0.2-0.2,0.3-0.4,0.4-0.6c2.9,7.8,5.9,12.2,6.1,12.4l0.2,0.3l0.4-0.1
		c0.1,0,0.1,0,0.2-0.1C148.5,110.7,136.9,118.4,124.5,118.4z M153.1,98.7c0,0-3.8-5.5-7-15.1c0,0,0.8,3.8-1.5,3.8
		c-0.4,0-0.9-0.1-1.5-0.4c-1.1-0.5-14.4-9.7-18.2-26.4c0,0-5.2,14.2-19.7,18.8c0,0-0.1-0.1-0.1-0.2c-0.2-0.5-0.3-0.9-0.5-1.4
		c-0.3-0.7-0.6-1.5-0.9-2.2c-0.3-0.8-0.7-1.6-1.1-2.3c-0.2-0.3-0.3-0.7-0.5-1c-0.1-0.1-0.2-0.3-0.3-0.4c-0.1-0.2-0.2-0.3-0.3-0.5
		c-0.1-0.2-0.3-0.3-0.5-0.5c-0.2-0.2-0.4-0.3-0.6-0.4c0,0,0,0-0.1-0.1c0,0-0.1,0-0.1-0.1c-0.7-0.5-1.4-0.7-1.9-0.8
		c-0.4-0.1-0.7-0.1-1.1-0.1c-0.1,0-0.1,0-0.2,0c0.8-2.3,7.6-20.4,26.1-20.4c5.4,0,11.8,1.5,19.4,5.5C163.6,65.6,165,95.8,153.1,98.7
		z"/>
</g>
</svg>
