<svg enable-background="new 0 0 297.64 297.64" viewBox="0 0 297.64 297.64" xmlns="http://www.w3.org/2000/svg"><path clip-rule="evenodd" d="m67.56 29.72h115.81v216.65h-115.81z" fill="#c8c8c8" fill-rule="evenodd"/><path clip-rule="evenodd" d="m41.63 269.71-.42-250.53-6.18-4-5.75.79-.79 255.69 6.54 1.01z" fill="#b18d74" fill-rule="evenodd"/><path clip-rule="evenodd" d="m35.03 272.67 31.14-13.21v-230.03l-31.14-14.25z" fill="#975b33" fill-rule="evenodd"/><path clip-rule="evenodd" d="m137.78 66.33h45.6v85.11h-45.6z" fill="#975b33" fill-rule="evenodd"/><path clip-rule="evenodd" d="m227.58 30.68c-.44-.54-1.07-.88-1.76-.95-.69-.07-1.38.14-1.91.58s-.88 1.07-.95 1.76c-.36 3.55-.96 9.49-.96 9.49l5.19.52s.6-5.94.96-9.49c.08-.68-.13-1.37-.57-1.91z" fill="#975b33" fill-rule="evenodd"/><path clip-rule="evenodd" d="m67.49 193.34h115.88v65.99h-115.88z" fill="#66728b" fill-rule="evenodd"/><path clip-rule="evenodd" d="m148.06 223.45-2.35-29.23s-5.39 2.03-23.91 1.86c-10.05-.09-19.81-1.86-19.81-1.86l-3.85 31.56-3.09 28.9c8.2 3.22 14.65 2.43 20.31.53l1.7-23.71 7.11-19.52 10.07 47.44c8.18 1.83 14.68.28 19.07-5.48z" fill="#203756" fill-rule="evenodd"/><path clip-rule="evenodd" d="m123.1 134.85c.66.08 1.26-.37 1.35-1.01s-.37-1.23-1.02-1.31c-.66-.09-1.26.37-1.35 1.01s.37 1.23 1.02 1.31z" fill="#203756" fill-rule="evenodd"/><path clip-rule="evenodd" d="m123.1 141.85c.66.09 1.26-.37 1.35-1.01s-.37-1.23-1.02-1.31c-.66-.08-1.26.37-1.35 1.01s.37 1.23 1.02 1.31z" fill="#203756" fill-rule="evenodd"/><path clip-rule="evenodd" d="m123.1 148.86c.66.08 1.26-.37 1.35-1.01s-.37-1.23-1.02-1.31c-.66-.08-1.26.37-1.35 1.01s.37 1.22 1.02 1.31z" fill="#203756" fill-rule="evenodd"/><path clip-rule="evenodd" d="m41.37 135.18c2.32 0 4.2 2.78 4.2 6.21 0 3.42-1.88 6.21-4.2 6.21s-4.2-2.78-4.2-6.21 1.88-6.21 4.2-6.21z" fill="#736139" fill-rule="evenodd"/><ellipse clip-rule="evenodd" cx="44.7" cy="141.68" fill="#c5bc79" fill-rule="evenodd" rx="4.54" ry="7.72"/><path clip-rule="evenodd" d="m183.67 164.55h-24.93l4.93 21.3 3.16 4.28 3.44-.28v-5.4c.1-1.04 1.47-1.81 2.51-1.86h11.35z" fill="#f4c385" fill-rule="evenodd"/><path clip-rule="evenodd" d="m176.65 167.41h-12.15l-1.63 7.56h15.37z" fill="#b23e3f" fill-rule="evenodd"/><path clip-rule="evenodd" d="m183.14 203.75h-12.65l-.93 3.8 13.58.02z" fill="#f4c385" fill-rule="evenodd"/><path clip-rule="evenodd" d="m172.95 183.16c-.55 0-1.07.22-1.46.61s-.61.92-.61 1.46v4.15h-4.7l3.35 4.06h1.35c.01.54.22 1.05.6 1.43.39.39.91.61 1.46.61h10.51v-12.33h-10.5z" fill="#b28750" fill-rule="evenodd"/><path clip-rule="evenodd" d="m169.66 207.57h13.79v2.6h-13.79z" fill="#b28750" fill-rule="evenodd"/><path clip-rule="evenodd" d="m184.23 146.07-.38-76.43h-41.91v76.43z" fill="#416b5c" fill-rule="evenodd"/><path clip-rule="evenodd" d="m67.49 192.47v-4.71l27.7-19.36v4.49l-15.7 19.44z" fill="#b28750" fill-rule="evenodd"/><path clip-rule="evenodd" d="m67.49 187.76v-19.1l27.7-.26-16.27 19.17z" fill="#f4c385" fill-rule="evenodd"/><path clip-rule="evenodd" d="m162.87 174.97h15.36v2.69h-15.36z" fill="#b19c84" fill-rule="evenodd"/><path clip-rule="evenodd" d="m67.88 175.54v5.09h6.41l10.18-9.6c-.78-.54-.8-2.82 0-4.77z" fill="#b19c84" fill-rule="evenodd"/><path clip-rule="evenodd" d="m67.49 166.55v8.79h6.02l10.95-9.08z" fill="#f15c4b" fill-rule="evenodd"/><path clip-rule="evenodd" d="m160.09 263.57c-.37-1.4-2.19-1.58-2.19-1.58s0 0-.93-.98-2.33-.51-2.33-.51c-2.93 8.79-10.46 4.6-10.46 4.6s-5.26 9.77-5.4 9.81c0 0 6.05 1.53 9.07 2.88s5.44 3.91 5.44 3.91 2.56-4.42 4.56-8.09 2.61-8.65 2.24-10.04z" fill="#dbdada" fill-rule="evenodd"/><path clip-rule="evenodd" d="m97.58 263.04c-18.65 10.63-18.68 12.68-17.35 14.75 2.27 3.99 13.29.15 27.6-6.61 2.65-1.25 1.23-6.36-.64-8.29-2.25 3.61-9.99 1.75-9.61.15z" fill="#dbdada" fill-rule="evenodd"/><path d="m157.96 262c.22.03-1.84 7.76-4.43 12.63-.81 1.52-1.95 3.42-3.63 5.09l-.23-.78c-4.85-2.61-8.3-3.84-10.49-4.03-3.59 1.29-6.09 5.78-6.09 6.58 0 2.6 1.56 4.67 9.81 4.99 4.72.19 7.84-2.92 7.84-2.92l-.05-.21c3.53-2.95 6.92-9.53 9.4-16.47 1.06-2.96-2.13-4.88-2.13-4.88z" fill="#8e8f90"/><path d="m93.76 277.15c-.03-.35-.13-.75-.36-1.28-1.91-2.79-3.89-5.31-7.35-6.15 0 0-2.66 1.99-4.28 3.09-1.59 1.09-2.8 2.07-2.93 3.57-.06-.36-.07-.7-.04-.99-.14.64-.23 1.61.02 2.93 1.36 7.26 16.77 2.56 30.45-6.66 1.16-.78.64-2.77.64-2.77s-7.42 5.14-16.15 8.26z" fill="#8e8f90"/><g clip-rule="evenodd" fill-rule="evenodd"><path d="m159.96 152.29c-8.26-16.62-10.26-29.67-29.22-34.08l-14.51.24c-6.11-.98-16.93 7.6-32.65 26.2 6.77 7.54 13.63 11.93 18.93 12.85l-2.41 35.86c14.89 2.93 33.94 2.63 48.14 0l-5.22-36.21c4.24.74 12.59-2.04 16.94-4.86zm-36.76-2.8c-2.41 0-2.41-3.74 0-3.74s2.41 3.74 0 3.74zm0-6.79c-2.41 0-2.41-3.74 0-3.74 2.41-.01 2.41 3.74 0 3.74zm.1-7.07c-2.41 0-2.41-3.74 0-3.74 2.41-.01 2.4 3.74 0 3.74z" fill="#bbe4f9"/><path d="m162.07 105.71h5.98l-3.02-10.73zm3.99-1.5h-2.03l1-3.64z" fill="#fff"/><path d="m177.62 116.72-8.77-28.93c-.19-.63-.78-1.06-1.44-1.06h-4.68c-.67 0-1.25.44-1.44 1.07l-8.53 28.93c-.13.45-.05.94.24 1.32.28.38.73.6 1.2.6h4.69c.68 0 1.27-.45 1.45-1.1l1.5-5.47h6.49l1.6 5.49c.19.64.77 1.08 1.44 1.08h4.81c.47 0 .92-.23 1.21-.61.28-.37.37-.86.23-1.32zm-6.25.44-1.91-6.57h-8.75l-1.81 6.57h-4.69l8.53-28.93h4.68l8.77 28.93z" fill="#fff"/><path d="m110.71 119.83s.46 10.59 2.86 11.44c1.72.6 4.64-1.4 6.72-3.13l-.8 23.78 7.56-.02-1.28-23.45c2.17 1.59 5.02 3.17 6.87 2.22 2.45-1.25 1.21-11.37 1.21-11.37-4.66-2.29-20.3-2.15-23.14.53zm12.04 6.09s.38.37.99.9l-1.87-.06c.54-.5.88-.84.88-.84zm.55 5.71c2.38 0 2.37 3.69 0 3.69-2.38 0-2.38-3.69 0-3.69zm-.1 7.07c2.38 0 2.37 3.69 0 3.69s-2.37-3.69 0-3.69zm1.94 9.01c0 .33-.08.64-.25.93-.1.12-.19.25-.29.37-.23.23-.5.39-.81.47l-.49.07c-.25.01-.49-.04-.71-.16-.23-.07-.43-.2-.59-.38-.18-.17-.31-.36-.38-.59-.12-.22-.17-.46-.16-.71v-.21c0-.33.08-.64.25-.93.1-.12.19-.25.29-.37.23-.23.5-.39.81-.47l.49-.07c.25-.01.49.04.71.16.23.07.43.2.59.38.18.17.31.36.38.59.12.22.17.46.16.71z" fill="#fff"/><path d="m87.45 139.82c4.52 4.12 9.8 7.62 15.01 10.99l.29-2.56c-4.61-2.79-9.54-6.38-13.66-10.19z" fill="#fff"/><path d="m84.84 142.84c5.25 4.6 10.86 8.93 17.37 12.53l.25-2.58c-6.33-3.86-10.76-7.66-15.86-11.7z" fill="#fff"/><path d="m143.88 152.75.39 1.99c6.24-.79 14.53-4.76 14.53-4.76l-.69-1.81c-1.86 1.1-11.54 4.17-14.23 4.58z" fill="#fff"/><path d="m156.78 145.12c-1.86 1.1-10.42 3.85-13.4 4.52l.25 1.82c5.85-.89 13.84-4.53 13.84-4.53z" fill="#fff"/><path d="m142.19 90.85c1.27.59 1.47 2.6.45 4.49s-2.87 2.94-4.14 2.35-1.47-2.6-.45-4.49 2.87-2.94 4.14-2.35z" fill="#ffe7cc"/><path d="m97.65 99.92c.93-1.04 3.05-.79 4.73.55s2.28 3.27 1.35 4.31-3.05.79-4.73-.55-2.28-3.27-1.35-4.31z" fill="#ffe7cc"/><path d="m143.01 82.75c-4.8-8.51-11.42-13.32-17.98-14.66-8.9-2.71-15.94 4.37-15.94 4.37-2.02-.39-3.99.25-5.81 1.73-12.61 7.64-15.27 46.03 15.34 43.78-1.32-7.77 9.37-7.89 11.17-2.41 18.13-6.7 19.16-22.26 13.22-32.81zm-41.34 22.94c-.41.45-1.11.4-1.56.04.06.04.12.1.11.09-.02-.01-.04-.03-.07-.05-.05-.04-.11-.08-.16-.12-.19-.15-.4-.29-.57-.47-.02-.02-.04-.05-.06-.07-.64-.28-1.16-.65-1.58-1.22-.29-.39-.44-.89-.43-1.38-.38-.39-.58-.88-.68-1.45-.11-.64.16-1.2.8-1.41.27-.09.61-.03.86.11.76.03 1.4.37 1.84 1 .34.49.44 1.1.5 1.67.01.09 0 .19-.03.28.23.21.39.51.37.82v.01c.01.02.03.03.04.04.04.04.09.09.14.13.01.01.03.02.04.04.01.01.02.02.04.03.13.09.27.19.38.3.49.43.43 1.17.02 1.61zm41.14-9.3c-.28.5-.92.69-1.43.47-.5-.21-.85-.81-.66-1.35.07-.2.13-.41.17-.62.02-.09.03-.18.05-.26.01-.04.01-.04.01-.05s0-.03 0-.04c.04-.38.05-.76.04-1.14-.01-.78-.07-1.55-.04-2.33.02-.64.51-1.12 1.15-1.15.37-.02.7.2.92.5.41.17.7.61.72 1.07.03.76.1 1.52 0 2.27-.13.94-.47 1.8-.93 2.63z" fill="#978771"/><path d="m99.05 92.09c-.94-6.86 2.39-15.66 5.89-18.82-7.15 5.06-8.15 14.21-5.89 18.82z" fill="#c9b49a"/><path d="m106.88 79.23c.3-6.28 10.06-8.8 12.95-10.11-4.47-1.07-13.02 3.68-12.95 10.11z" fill="#c9b49a"/><path d="m122.49 67.7c1.16.79 7.33 6.94 7.7 8.67.31-1.31-4.18-7.25-7.7-8.67z" fill="#c9b49a"/><path d="m127.77 69.81c.86.42 6.57 5.1 9.23 11.19.17-1.18-4.38-9.59-9.23-11.19z" fill="#c9b49a"/><path d="m142.99 100.26c.39 1.36-1.72 7.33-2.26 8.18 1.99-1.86 2.97-7.28 2.26-8.18z" fill="#c9b49a"/><path d="m137.44 111.15c1.68-.91 3.01-4.57 2.58-5.36.13 1.05-2.09 4.87-2.58 5.36z" fill="#c9b49a"/><path d="m115.79 106.91c4.72 7.03 13.18 3.36 12.83-2.64-4.53 2.61-8.76 3.17-12.83 2.64z" fill="#fff"/><path d="m262.18 67.26c-3.26 0-5.9 2.65-5.9 5.9 0 3.26 2.65 5.9 5.9 5.9 3.26 0 5.9-2.65 5.9-5.9.01-3.25-2.64-5.9-5.9-5.9z" fill="#69b54b"/><path d="m266.26 60.69 1.76-28.72h-11.8l2.13 28.84z" fill="#69b54b"/><path d="m158.64 202.87c-.6-.96-1.49-4-1.49-4l-.09 20.37-2.88 7.16-.09.09.19 2.33 3.91.19.09-3.07.19.28 2.51-7.26-.37-14.05c-.01.01-.85-.27-1.97-2.04z" fill="#ffd219"/><path d="m172.98 194.79h2.57v12.78h-2.57z" fill="#ffd219"/><path d="m174.88 210.14h-2.57v6.2 9.6h2.57v-7.57h7.71v-2.03h-7.71z" fill="#ffd219"/><path d="m172.16 225.84.15-9.5h-2.84z" fill="#ffd219"/><path d="m88.67 182c-.68 1-1.4 1.98-2.3 2.79v25.22l-8.84 11.12 2.97-.19 8.34-10.94h.51v-28.97c-.23.33-.46.65-.68.97z" fill="#ffd219"/><path d="m77.53 221.46h2.97v1.98h-2.97z" fill="#ffd219"/><path d="m81.05 223.44 8.29-11.19v-1.58l-8.43 11.46z" fill="#ffd219"/><path d="m162.2 138.19h17.34v7.88h-17.34z" fill="#ffd219"/><path d="m238.26 71.71c-1.31-2.73-2.41-6.32-2.33-11.44.01-1.07.68-6.27.67-9.3-.02-6.67-6.76-11.6-13.57-11.6-6.28 0-11.85 2.81-13.17 9.33-.25 1.24-.83 8.22-1 8.98-.89 3.95-2.81 7.03-6.66 9.57-4.48-1.54-5.26 3.29-2.7 4.45l13.98 1.69c-.13.52-.2 1.06-.2 1.62 0 3.76 3.04 6.81 6.79 6.81s6.79-3.05 6.79-6.81c0 0 0 0 0-.01l14.37 1.73c1.95-1.3 1.29-4.98-2.97-5.02z" fill="#ffd219"/><path d="m97.11 262.95c.45 2.21 8.78 2.34 10.22-.13l1.08-5.53s-4.81.15-6.23 0c-1.49-.15-5.4-1.21-5.4-1.21z" fill="#ffe7cc"/><path d="m154.37 259.34-2.33-3.16s-2.98 2.88-5.02 3.44c-3.29.9-5.86 1.12-5.86 1.12l3.91 5.3c5.64 2.49 11.36-5.49 9.3-6.7z" fill="#ffe7cc"/><path d="m83.85 146.41-4.28 4-18.94-8.32c.61-6.91-4.84-14.32-8.01-14.38-.66 1.02 1.28 1.23 3.26 3.93-2.02-2.36-5.73-4.59-8.95-4.14-2.74.38-1.79 1.89-1.79 1.89-3.39-1.14-5.67.78-2.63 3.04-3.2-.71-2.88 1.86.41 3.49 2.74 1.36 5.58 1.97 6.36 5.29.85 3.62-4.17 2.47-5.34 4.3-1.24 1.92 5.22 1.9 11.82 1.37 6.7 7.72 19.22 17.58 23.81 17.49 3.49.35 10.32-4.75 14.88-9.4z" fill="#ffe7cc"/><path d="m168.02 192.55-4.36-6.7-6.88-30.7-12.28 3.07 9.3 28.56c-1.84 1.88-.41 5.38-.77 7.4-.31 1.72-.76 3.54-.86 3.95-.31 1.28 2.11 1.96 4.08-4.04 2.4 5.26 2.86 8.48 4.27 9.88 1.11 1.1 1.9.43 1.84-1.79 1.82 4.31 4.49 3.99 3.8-1.22 1.15 2.53 3.14 1.58 2.59-2.54 1.3 1.03 2.01-2.14-.73-5.87z" fill="#ffe7cc"/><path d="m139.95 92.76c-.17.15-.29.22-.5.31-.08.03-.15.07-.24.09-.13.03-.27.05-.41.05-.02 0-.04 0-.06 0-.12-.01-.25-.03-.36-.05-.04-.01-.07-.02-.11-.03-.16-.04-.3-.11-.42-.22-.09-.05-.17-.13-.22-.22-.05-.05-.06-.12-.1-.18-.07.06-.13.12-.2.17-.28.2-.66.3-1 .28-.74-.05-1.29-.51-1.54-1.2-.16-.44-.12-.88-.09-1.33-.02-.08-.03-.16-.05-.24-.42.42-.95.71-1.57.71-.56 0-1.08-.24-1.5-.61-.48-.43-.63-1.06-.7-1.67-.02-.2-.03-.4-.02-.6-.43.44-1.03.67-1.87.5-.41-.08-.75-.47-.86-.86-.09-.33-.14-.68-.18-1.02-.18.26-.39.49-.66.66-.44.27-1 .37-1.49.21-.64-.21-1.03-.73-1.25-1.35-.04-.12-.06-.24-.09-.37-.27.43-.65.76-1.2.91-.48.13-1 .08-1.42-.19-.26-.17-.45-.39-.6-.65-.03.08-.06.16-.1.24-.21.44-.59.91-1.05 1.11-.32.14-.6.2-.95.12-.3-.07-.58-.31-.73-.56-.19-.31-.29-.64-.34-.98-.01.01-.01.03-.02.04-.22.48-.75.76-1.26.69-.23-.03-.43-.14-.6-.28-.12.82-.32 1.63-.76 2.35-.34.56-1.11.79-1.68.44-.37-.23-.62-.54-.8-.88-.08.3-.21.59-.38.85-.01.04-.01.07-.01.08-.01.02-.11.28-.13.3 0 0 0 .01-.01.01-.02.03-.17.22-.2.25-.04.04-.1.08-.15.12-.04.03-.1.08-.15.11-.01.01-.02.01-.03.02-.08.04-.22.1-.3.13-.01 0-.01 0-.02.01-.06.02-.15.02-.18.03-.2.03-.28.05-.5-.02-.01 0-.28-.12-.3-.12-.01 0-.25-.19-.25-.19-.01-.01-.09-.11-.14-.18-.34-.23-.57-.6-.73-.98-.05-.11-.07-.23-.11-.34-.33 1.6-.87 3.13-1.87 4.41-.32.41-.96.43-1.43.2-.01.18-.01.36-.03.53-.09.82-.23 1.8-.89 2.38-.55.49-1.33.67-2 .31-.35-.18-.6-.51-.75-.87-.02-.02-.04-.04-.06-.06-.03.93-.06 1.87-.2 2.78-.11.68-.33 1.43-.81 1.94-.06.06-.12.1-.18.15 2.07 8.15 7.95 14.27 14.94 16.29l.65 5.17c1.44 3 8.42 4.71 11.69.17l.69-6.54c7.55-3.83 12.03-12.76 10.84-22.33zm-10.61 12.6c-.01.16-.06.32-.15.46-.15.21-.29.43-.43.64.04.18.05.38-.01.6-.3 1.11-.92 2.05-1.85 2.73-.8.58-1.78.84-2.75.95-.01 0-.03 0-.04 0-1.07.63-2.47.56-3.65.21-1.33-.39-2.58-1.06-3.77-1.77-.26-.16-.43-.39-.52-.66-.63-.15-.98-.91-.82-1.5.19-.68.86-.98 1.51-.86 2 .37 4 .13 6-.08.8-.22 1.6-.44 2.36-.74.34-.15.66-.33.96-.54.03-.02.06-.04.08-.07.27-.24.59-.34.91-.33.09-.11.19-.21.32-.28.1-.04.2-.08.29-.12.22-.06.44-.06.65 0 .1.04.2.08.29.12.14.08.26.18.34.32.11.12.18.26.22.42.09.17.1.34.06.5z" fill="#ffe7cc"/></g><path d="m240.05 42.54c.39.11.71.39.88.76.24.53.18 1.21-.18 1.98-.5 1.08-.21 2.38.74 3.3.62.6 1.39.92 2.14.92.41 0 .81-.09 1.18-.28.49-.25.69-.85.44-1.34s-.85-.69-1.34-.44c-.36.18-.78-.04-1.03-.29-.25-.24-.49-.66-.32-1.02.77-1.67.53-2.91.19-3.65-.41-.9-1.19-1.58-2.14-1.85-.81-.23-1.33-.58-1.54-1.03-.28-.6.01-1.29.03-1.32.23-.5.02-1.09-.48-1.32-.5-.24-1.1-.02-1.33.48-.07.15-.69 1.55-.04 2.98.45.99 1.4 1.71 2.8 2.12z" fill="#010101"/><path d="m205.44 43.71c0 .15.01.31.01.47-.4.03-.75.3-.87.71-.16.53.14 1.09.67 1.25.24.07.46.11.67.11.34 0 .64-.1.9-.29.68-.51.66-1.38.63-2.29-.04-1.78-.09-3.79 3.38-4.65 1.4-.35 2.36-1.03 2.83-2.03.7-1.46.05-2.93-.03-3.1-.23-.5-.83-.72-1.33-.49s-.72.83-.49 1.33c0 .01.33.78.04 1.39-.21.43-.72.75-1.51.95-5.03 1.24-4.94 4.89-4.9 6.64z" fill="#010101"/><path d="m244.41 41.15c.39-.01.88.25 1.21.72.41.56.52 1.25.3 1.84-.2.52.07 1.09.58 1.29.12.04.24.06.35.06.4 0 .78-.25.94-.65.46-1.22.25-2.61-.56-3.72-.74-1.02-1.84-1.58-2.93-1.54-.55.03-.98.5-.95 1.05.04.56.48.98 1.06.95z" fill="#010101"/><path d="m204.05 41.27c.12 0 .24-.02.35-.06.52-.2.78-.77.58-1.29-.22-.59-.11-1.27.3-1.84.33-.46.8-.76 1.21-.72.53.03 1.02-.4 1.05-.95s-.4-1.02-.95-1.05c-1.1-.04-2.19.52-2.93 1.54-.81 1.11-1.02 2.5-.56 3.72.17.4.55.65.95.65z" fill="#010101"/><path d="m196.72 59.82h.07c.54 0 .98-.43 1-.97.02-.55-.41-1.01-.97-1.03-.03 0-.07 0-.1 0-1.52 0-2.94 1.11-3.4 2.67-.16.53.15 1.09.67 1.24.09.03.19.04.28.04.43 0 .83-.28.96-.72.23-.76.95-1.23 1.49-1.23z" fill="#010101"/><path d="m249.98 64.11c-.5-.21-1.1.02-1.31.53s.02 1.1.53 1.31c.57.24.58 1.17.46 1.59-.15.53.15 1.08.68 1.24.09.03.19.04.28.04.43 0 .83-.28.96-.72.42-1.43 0-3.32-1.6-3.99z" fill="#010101"/><path d="m196.77 64.61c.55-.08.92-.59.84-1.13 0 0-.05-.48.21-.81.18-.23.49-.36.95-.41 2.85-.29 3.75-1.48 3.45-4.55-.08-.86.28-1.1.58-1.14.55-.05.96-.54.91-1.09s-.55-.95-1.09-.91c-.11.01-1.08.12-1.76.95-.35.42-.74 1.17-.62 2.38.21 2.18-.08 2.21-1.67 2.37-1.26.13-1.96.71-2.32 1.17-.78 1-.63 2.2-.61 2.33.07.5.5.86.99.86.04-.01.09-.02.14-.02z" fill="#010101"/><path d="m248.09 68.1c-1.54-.41-1.82-.48-1.28-2.6.3-1.17.03-1.98-.25-2.45-.55-.93-1.49-1.19-1.6-1.21-.54-.13-1.08.19-1.21.73s.19 1.08.73 1.21c0 0 .24.09.36.29.15.26.1.64.03.92-.77 2.99-.06 4.31 2.71 5.03.43.11.72.3.86.54.18.31.12.72.08.86-.16.52.14 1.08.66 1.24.1.03.2.04.3.04.43 0 .82-.28.96-.7.04-.13.37-1.29-.24-2.4-.28-.5-.88-1.18-2.11-1.5z" fill="#010101"/><path d="m239.61 69.82c-.99-2.38-1.74-5.42-1.68-9.52.01-1.07.68-6.29.67-9.33-.02-5.52-3.94-10.07-9.05-12.23l.6-5.94c.12-1.22-.24-2.43-1.02-3.38-.77-.95-1.89-1.55-3.11-1.67s-2.43.24-3.38 1.02c-.95.77-1.55 1.89-1.67 3.11-.17 1.65-.38 3.82-.57 5.66-6.13.74-11.17 4.16-12.51 10.78-.25 1.24-.82 8.19-.99 8.94-.72 3.19-2.21 5.72-5.08 7.83-2.34-.48-3.91.38-4.8 1.49-1.7 2.1-1.1 5.71 1.66 6.96.19.08.38.14.58.16l12.03 1.45c.07 4.8 3.98 8.68 8.79 8.68 4.09 0 7.51-2.8 8.5-6.59l12.42 1.5c.48.06.96-.06 1.35-.33 2.11-1.42 2.61-4.36.95-6.51-.74-.95-1.93-1.78-3.69-2.08zm-16.65-37.75c.07-.69.41-1.32.95-1.76s1.22-.65 1.91-.58c.69.07 1.32.41 1.76.95s.65 1.22.58 1.91c-.16 1.59-.37 3.65-.55 5.45-1.48-.43-3.03-.66-4.58-.66-.2 0-.4.01-.6.02.17-1.77.38-3.77.53-5.33zm-2.89 49.76c-3.62 0-6.58-2.85-6.77-6.43l13.26 1.6c-.85 2.79-3.43 4.83-6.49 4.83zm21.16-5.08-41.73-5.03c-2.56-1.16-1.79-5.99 2.7-4.45 3.85-2.54 5.77-5.61 6.66-9.57.17-.76.75-7.74 1-8.98 1.32-6.53 6.89-9.33 13.17-9.33 6.81 0 13.55 4.93 13.57 11.6.01 3.03-.65 8.23-.67 9.3-.07 5.12 1.03 8.71 2.33 11.44 4.26.02 4.92 3.7 2.97 5.02z" fill="#010101"/><path d="m211.12 81.38c-.25-.49-.85-.69-1.34-.45l-4.17 2.09c-.49.25-.69.85-.45 1.34.18.35.53.55.9.55.15 0 .3-.03.45-.11l4.17-2.09c.48-.24.68-.84.44-1.33z" fill="#010101"/><path d="m229.75 83.26c-.43-.35-1.06-.29-1.41.14s-.29 1.06.14 1.41l3.61 2.95c.19.15.41.23.63.23.29 0 .58-.13.78-.37.35-.43.29-1.06-.14-1.41z" fill="#010101"/><path d="m210.71 83.79-2.27 1.9c-.42.36-.48.99-.12 1.41.2.24.48.36.77.36.23 0 .45-.08.64-.23l2.27-1.9c.42-.36.48-.99.12-1.41s-.98-.49-1.41-.13z" fill="#010101"/><path d="m218.71 86.3c-.56-.05-1.03.37-1.08.92l-.24 2.95c-.04.55.37 1.03.92 1.08h.08c.52 0 .95-.4 1-.92l.24-2.95c.04-.55-.37-1.04-.92-1.08z" fill="#010101"/><path d="m227.46 85.72c-.29-.47-.9-.62-1.37-.33s-.62.9-.33 1.37l1.54 2.53c.19.31.52.48.85.48.18 0 .36-.05.52-.15.47-.29.62-.9.33-1.37z" fill="#010101"/><path d="m120.8 133.36c-.1.69.1 1.35.5 1.85.39.49.96.84 1.64.93.67.09 1.32-.1 1.82-.47.52-.38.89-.96.98-1.64.1-.69-.1-1.35-.5-1.85-.39-.49-.96-.84-1.64-.93-.67-.09-1.32.1-1.82.47-.52.38-.89.96-.98 1.64zm2.63-.83c.65.08 1.11.67 1.02 1.31s-.7 1.09-1.35 1.01-1.11-.67-1.02-1.31.7-1.09 1.35-1.01z" fill="#010101"/><path d="m123.6 138.25c-.67-.09-1.32.1-1.82.47-.52.38-.89.96-.98 1.64-.1.69.1 1.35.5 1.85.39.49.96.84 1.64.93.67.09 1.32-.1 1.82-.47.52-.38.89-.96.98-1.64.1-.69-.1-1.35-.5-1.85-.39-.49-.96-.84-1.64-.93zm-.5 3.6c-.65-.08-1.11-.67-1.02-1.31s.69-1.09 1.35-1.01c.65.08 1.11.67 1.02 1.31-.09.65-.69 1.1-1.35 1.01z" fill="#010101"/><path d="m123.6 145.25c-.67-.09-1.32.1-1.82.47-.52.38-.89.96-.98 1.64-.1.69.1 1.35.5 1.85.39.49.96.84 1.64.93.67.09 1.32-.1 1.82-.47.52-.38.89-.96.98-1.64.1-.69-.1-1.35-.5-1.85-.39-.49-.96-.84-1.64-.93zm-.5 3.61c-.65-.08-1.11-.67-1.02-1.31s.69-1.09 1.35-1.01c.65.08 1.11.67 1.02 1.31s-.69 1.09-1.35 1.01z" fill="#010101"/><path d="m135.36 86.95s-.01.42 0 1.02c.1-.58 0-1.02 0-1.02z" fill="#010101"/><path d="m119.25 103.15c.33-.01.59-.29.58-.62-.03-.87.63-1.45 1.37-1.62.73-.17 1.55.06 1.88.89.12.31.47.46.78.34s.46-.47.34-.78c-.57-1.44-1.99-1.91-3.27-1.62-1.26.29-2.35 1.33-2.29 2.83 0 .33.28.59.61.58z" fill="#010101"/><path d="m110.76 95.09c-.75 1.02-.93 2.39-.52 3.35.11.26.4.38.65.27s.38-.4.27-.65c-.29-.69-.13-1.65.41-2.38.07-.09.15-.17.23-.25 0 .07 0 .14.02.21.15.76.93 1.25 1.74 1.09s1.34-.91 1.19-1.67c-.06-.31-.23-.57-.46-.77.01-.02.02-.04.02-.07.02-.28-.19-.51-.47-.53-1.42-.08-2.45.54-3.08 1.4z" fill="#010101"/><path d="m126.03 92.59c-.02.15-.03.3 0 .46.15.75.91 1.22 1.7 1.07.79-.16 1.31-.89 1.17-1.63-.06-.3-.22-.56-.44-.75-.02-.22-.18-.41-.41-.45-1.37-.21-2.3.16-2.91.72-.87.81-1.06 2.07-.84 2.93.07.27.34.43.61.36s.43-.34.36-.61c-.15-.57-.02-1.41.56-1.95.04-.05.12-.1.2-.15z" fill="#010101"/><path d="m108.32 95.59c.26.09.55-.05.64-.31 0 0 .42-1.18 1.76-2.3.65-.54 1.5-1.06 2.62-1.44.26-.09.4-.37.32-.63-.09-.26-.37-.4-.63-.32-1.26.42-2.22 1.01-2.95 1.62-1.58 1.32-2.07 2.74-2.07 2.74-.09.26.04.55.31.64z" fill="#010101"/><path d="m124.08 89.34c1.22-.07 2.24.1 3.06.37 1.71.56 2.57 1.53 2.57 1.53.18.21.5.23.7.05.21-.18.23-.5.05-.7 0 0-1-1.17-3.02-1.83-.93-.3-2.07-.5-3.43-.42-.27.02-.49.25-.47.53.03.28.27.49.54.47z" fill="#010101"/><path d="m114.71 107.63c1.64 2.44 3.68 3.73 5.7 4.21 4.92 1.15 9.8-2.58 9.51-7.64-.03-.45-.28-.86-.68-1.07-.4-.22-.88-.21-1.27.02-4.25 2.44-8.21 2.97-12.02 2.48-.51-.07-1 .17-1.27.6-.26.43-.25.98.03 1.4zm13.91-3.36c.17 3-1.86 5.42-4.52 6.21s-5.96-.05-8.31-3.57c4.07.53 8.3-.03 12.83-2.64z" fill="#010101"/><path d="m183.37 28.22h-115.81c-.15 0-.29.03-.42.07-.1-.09-.22-.17-.35-.22l-31.13-14.25c-.08-.03-.16-.05-.23-.07-.03-.01-.06-.02-.09-.03-.16-.03-.31-.04-.47-.02-.01 0-.03 0-.04 0l-5.76.79c-.74.1-1.29.73-1.3 1.48l-.79 255.69c0 .74.54 1.37 1.27 1.49l6.55 1.01h.04c.07.01.15.01.22 0h.07c.16-.01.32-.04.48-.11l31.13-13.21c.07-.03.13-.08.19-.12.17.07.35.11.55.11h28.77l.02 1.23c-4.33 2.48-7.64 4.5-10.17 6.17-.34-.01-.68.09-.96.29 0 0-2.63 1.97-4.23 3.06-.64.43-1.19.87-1.68 1.32-.16.04-.29.08-.29.08s-.69-.06-1.15.75c-.05.07-.09.13-.14.21-.11.22-.24.59-.32 1.04-.19.82-.3 2.02 0 3.62.53 2.86 2.63 4.43 5.93 4.72 6.07.55 16.91-3.73 26.84-10.41.84-.57 1.25-1.46 1.38-2.35.14-1.04-.12-2.04-.12-2.04-.1-.37-.33-.68-.64-.88-.18-2.02-1.13-4.23-2.24-5.54l.16-1.27h25.09c.06.02.11.05.18.07 2.42.54 4.7.79 6.83.75l2.84 3.31-4.99 9.41c-2.13.9-3.86 2.67-4.94 4.16-.41.16-.74.5-.88.93 0 0-.45 1.51-.46 1.89-.07 1.72.99 3.31 2.9 4.43 3.53 2.07 10.11 2.55 14.24.13 2-.9 3.8-2.7 5.4-5.17 2.22-3.41 4.1-8.11 5.89-13.11.57-1.59.47-2.82.19-3.72-.4-1.28-1.19-1.97-1.48-2.19-.03-.03-.07-.04-.11-.07v-.01c-.03-.02-.07-.04-.11-.06.02.01.04.03.07.04-.27-.14-.52-.19-.74-.19-.15-.22-.3-.43-.46-.61h25.25c.83 0 1.5-.67 1.5-1.5v-229.6c.02-.82-.65-1.5-1.48-1.5zm-149.84 244.22-5.05-.78.79-255.69 4.26-.59zm32.48-12.92-30.98 13.14v-257.48l31.07 14.22c-.02.1-.04.21-.04.32v113.28l-3.88-1.84c.05-4.97-2.55-10-5.26-12.69-1.48-1.47-3.04-2.24-4.27-2.26-.45-.01-.88.19-1.17.52-1.57-.63-3.22-.93-4.77-.72-1.79.25-2.54.97-2.88 1.53-.01.02-.02.03-.03.04-1.57-.12-2.82.34-3.46.99s-1.01 1.64-.62 2.76c-.41.28-.67.65-.8 1.01-.2.53-.22 1.19.08 1.91.04.1.1.2.15.31-.43.25-.83.57-1.19.97-1.22 1.32-2.05 3.45-2.05 5.85 0 2.41.83 4.53 2.05 5.85.9.97 2.01 1.52 3.19 1.58 1 1.18 2.23 1.83 3.54 1.83 1.35 0 2.64-.69 3.65-1.96.01-.01.02-.02.03-.04 1.97.04 4.34-.05 6.76-.22 2.98 3.32 6.98 6.84 10.93 9.76l-.07 101.14c0 .08.02.14.02.2zm-23.61-112.93c.2.59.76 1.22 1.84 1.58.6.2 1.45.33 2.48.4-.61.52-1.3.82-2.03.82-2.5 0-4.54-3.46-4.54-7.72 0-1.91.42-3.65 1.09-5 .31.2.64.4 1 .58 1.08.54 2.18.95 3.16 1.47 1.11.59 2.06 1.32 2.41 2.82.06.26.11.46.03.6-.09.15-.27.21-.45.28-.36.15-.78.25-1.19.36-.75.19-1.51.39-2.11.69s-1.08.7-1.41 1.21c-.45.72-.47 1.37-.28 1.91zm-3.49-4.91c0 2.16.49 4.14 1.27 5.66-1.74-.76-3.01-3.13-3.01-5.95 0-2.67 1.15-4.94 2.76-5.81.1.11.21.22.33.33-.83 1.53-1.35 3.54-1.35 5.77zm16.86 5.2c-6.6.53-13.05.55-11.82-1.37.93-1.45 4.29-1.03 5.2-2.61.01.02.01.04.02.06.19.79.12 1.55-.54 2.03.8-.39.99-1.2.94-2.09-.02-.36-.09-.72-.18-1.08-.01-.19-.04-.39-.09-.6-.78-3.32-3.62-3.93-6.36-5.29-2.58-1.28-3.33-3.13-1.99-3.53.65.06 2.71.28 5.03.96 1.65.49 3.42 1.2 4.91 2.24-1.36-1.26-3.05-2.22-4.65-2.94-2.24-1.01-4.29-1.53-5.02-1.7-.44-1.06.39-1.83 1.82-1.89.1.06.21.11.33.13 0 0 .65.02 1.66.17.04.01.08.02.12.04 0 0 0-.01-.01-.02 1.27.19 3.07.57 4.85 1.33 1.38.59 2.74 1.4 3.83 2.53-1.21-1.62-2.93-2.79-4.61-3.63-1.44-.72-2.85-1.19-3.9-1.49.28-.26.77-.49 1.63-.61 3.23-.45 6.94 1.78 8.95 4.14-1.98-2.7-3.92-2.91-3.26-3.93 3.17.06 8.62 7.47 8.01 14.38l18.24 8.65c.2.5.35 1.03.42 1.53.16 1.08.1 1.97.1 1.97-.03.2.1.39.3.42s.39-.1.42-.3c0 0 .24-.95.29-2.15.03-.62-.03-1.29-.17-1.95l3.84-2.9c3.24 3.38 6.49 6.04 9.56 7.98-5.01 4.16-11.33 8.47-13.87 8.21-4.61.07-17.31-8.97-24-16.69zm51.04-30.57c.04.04.09.08.13.13-11.92-4.76-14.33-19.05-11.45-29.98-.03.43-.05.85-.06 1.27-.02 3.93 1 7.59 1.31 9.41.06.35.23.78.47 1.24-.25.15-.49.33-.68.54-.76.84-1.01 2.01-.69 3.27.28 1.09 1.03 2.27 2.21 3.21 1.16.93 2.5 1.43 3.67 1.51.22.01.42 0 .62-.02 1.54 2.7 3.51 5.04 5.8 6.88 1.7 1.37 3.57 2.46 5.54 3.26-.77.18-1.47.39-2.07.62-.05-.03-.1-.06-.16-.08-1.65-.26-3.01-1-4.09-1.85-2.04-1.61-3.08-3.58-3.08-3.58-.01-.03-.05-.04-.08-.03s-.04.05-.03.07c0 0 .79 2.17 2.64 4.13zm-7.06-26.44c0 .06.06.11.12.11s.11-.06.11-.12c0 0-.22-5.32 2.01-10.34 1.13-2.54 2.9-5 5.67-6.62-.91 1.45-1.45 2.89-1.74 4.21-.73 3.33.07 5.91.07 5.91.02.06.08.1.14.08s.1-.08.08-.14c0 0-.61-2.53.3-5.69.45-1.56 1.27-3.27 2.74-4.91.02-.02.02-.06.03-.08.78-.72 3.69-3.19 7.78-4.28.08.03.16.06.25.05 1.77-.22 3.58.28 5.41 1.62 1.9 1.4 3.8 3.67 5.69 6.98.03.05.09.07.14.04s.07-.09.04-.14c-1.76-3.48-3.59-5.9-5.45-7.42-.92-.76-1.86-1.29-2.79-1.63.87-.03 1.77.01 2.7.16 1.09.55 4.31 2.33 7.06 5.49 1.88 2.15 3.54 4.94 4.18 8.4.01.06.06.09.12.08.05-.01.09-.06.08-.12-.5-3.56-2.09-6.47-3.92-8.75-1.48-1.84-3.12-3.27-4.48-4.28 2.57 1 5.27 2.84 7.99 5.92 7.76 8.8 6.12 17.23 4.89 17.96-1.23.74-.65-2.14-.65-2.14s-.35 1.28-1.72 2.04c-1.01.56-1.21-2.59-1.24-4.28-.1.67-.45 1.52-1.47 2.13-1.9 1.14-2.91-5.2-2.91-5.2s-.04 1.54-1 2.79-2.22-3.89-2.22-3.89-.13 1.46-1.11 2.72c-.59.76-1.37-1.13-1.9-2.73-.03-.79-.15-1.73-.35-2.67-.27-1.33-.68-2.63-1.13-3.38-.03-.05-.09-.07-.14-.04s-.07.09-.04.14c.37.76.64 2.05.79 3.36.14 1.29.16 2.6.02 3.41-.12.41-.28.79-.51 1.07-.94 1.17-2.4-2.58-2.4-2.58s-.11 2.22-1.01 3.35-2.17-3.8-2.17-3.8.12 1.99-.55 2.85-1.7-1.94-1.7-1.94.35 2.74-.79 4.2c-.53.68-1.08.24-1.51-.43-.39-.9-.78-2.03-1.04-3.26-.26-1.21-.41-2.5-.34-3.75 0-.02-.01-.03-.03-.03s-.03.01-.04.03c-.2 1.26-.18 2.58-.05 3.83.11.98.3 1.9.52 2.72-.11.48-.29 1.08-.61 1.8-.89 2.03-2.38-3.75-2.38-3.75s-.15 3.72-1.63 6.16-2.29-1.6-2.29-1.6.21 3.52-.79 5.61c-1.01 2.09-2.74-2.99-2.74-2.99s.21 5-.54 6.76c-.09.21-.2.36-.33.45-.01-.06-.03-.11-.04-.17-.15.12-.31.21-.47.3-.92-.12-2.1-1.72-2.24-2.58-.46-2.7-2.57-9.58-.14-15.17 2.23-5.13 5.21-8.45 8.44-9.2-1.83 1.32-3.18 2.99-4.17 4.78-3.12 5.72-2.6 12.59-2.6 12.59zm83.62 56.2h-2.62v-7.88c0-.66-.54-1.2-1.2-1.2h-17.35c-.66 0-1.2.54-1.2 1.2v7.88h-2.32c-2.04-4.51-3.8-8.68-5.8-12.39-2.75-5.12-5.98-9.39-10.94-12.55v-11.54c1.89-2.03 3.27-4.24 4.21-6.53 2.86-6.98 1.66-14.83-1.84-21.03-.75-1.32-1.55-2.54-2.37-3.69v-8.69h41.06v.05c.12-.04.25-.06.37-.08v76.38zm-3.82 1.2h3.82v4.18h-22.16c-.7-1.42-1.36-2.81-1.99-4.18h2.98zm-17.35-1.2v-7.88h17.34v7.88zm20.8-77.63h-41.06c-.66 0-1.2.54-1.2 1.2v7.1c-.95-1.19-1.94-2.3-2.96-3.28v-7.12h45.6v2.18c-.13-.05-.25-.08-.38-.08zm-39.99 14.31c4.46 7.91 4.99 18.64-2.68 26.34.16-.37.33-.78.49-1.25.5-1.44.96-3.34 1.16-5.75.01-.05-.03-.09-.08-.1s-.09.03-.1.08c-.32 1.87-.77 3.41-1.24 4.65-.74 1.92-1.33 3.05-1.77 3.61-.21.27-.99.98-1.36 1.26-.95.7-2.57 1.67-3.79 2.3 2.01-1.69 3.72-3.77 5.03-6.14 1.49-2.71 2.46-5.8 2.82-9.06.93-.56 1.83-1.45 2.47-2.62.72-1.33.94-2.71.77-3.82-.19-1.28-.88-2.25-1.91-2.73-.41-.19-.86-.28-1.33-.29.09-1.34 0-2.97-.41-4.81-.72-3.21-2.41-7.07-5.87-11-.23-.26-.46-.51-.69-.75 3.13 2.41 6.05 5.76 8.49 10.08zm-2.22 28.46-.05 9.18c-.93-.53-1.91-1.02-2.96-1.48v-5.76c.93-.64 1.99-1.45 2.59-1.94.36-.29.42 0 .42 0zm-18.04 14.71s-6.29 6.36-9.18 5.34c-2.4-.84-2.86-11.44-2.86-11.44.7-.67 2.21-1.17 4.13-1.53l.42 3.32.14.46c.97 2.03 3.91 3.72 7.11 3.8 2.62.07 5.35-.9 7.15-3.41l.27-.72.37-3.48c1.45.26 2.7.59 3.56 1.01 0 0 1.24 10.12-1.21 11.37-3.33 1.73-9.9-4.72-9.9-4.72zm4.3 25.98-7.56.02.74-21.82c1-.76 1.9-1.54 2.55-2.13.76.66 1.87 1.56 3.1 2.38zm-25.68-51.08c.05-.02.11-.03.16-.06.44-.21.87-.6 1.16-1.29.25-.6.43-1.52.54-2.52.57.25 1.12.23 1.66-.04.35-.18.75-.51 1.05-1.15.34-.7.57-1.53.71-2.37.15.01.31 0 .46-.03.51-.09 1.2-.43 1.84-1.47.36-.59.65-1.24.88-1.9.46.47.97.64 1.41.64.56 0 1.32-.22 1.81-1.33l.01-.02c.48.31 1 .4 1.5.32.45-.08.95-.31 1.4-.89.35-.45.61-.98.79-1.53.17.02.34.02.5-.01.2-.03.41-.09.61-.2.05.07.09.14.14.21.45.61.99.88 1.43.95.57.09 1.19-.04 1.73-.71.14-.17.27-.37.38-.57.13.11.25.21.37.28.48.29.96.36 1.42.28.36-.06.73-.23 1.08-.58.31.5.63.87.91 1.06.48.32.98.39 1.44.28.27-.06.55-.18.81-.42.14.28.28.52.42.71.5.67 1.11.92 1.61.94.32.01.66-.04.99-.24.29.7.65 1.32 1.03 1.73.5.54 1.08.81 1.67.86.3.02.61-.02.94-.13.04.2.09.38.15.54.31.91.89 1.4 1.4 1.58.46.16.99.17 1.56-.15l.09-.05c.05.05.1.09.15.12.49.35 1.2.59 2.18 0 .09-.05.18-.14.28-.23 1.09 11.13-5.46 21.27-15.46 23.25-10.08 1.96-20.06-5.03-23.21-15.86zm.18 4.55c-.83-.12-1.74-.5-2.55-1.15-1.68-1.34-2.28-3.27-1.35-4.3.12-.13.26-.24.42-.33.48.54 1.03.97 1.55 1.19.08.03.16.05.24.07.43 1.59 1 3.1 1.69 4.52zm27.39 11.47-.51 4.77c-3.27 4.54-10.25 2.83-11.69-.17l-.44-3.56c2.76.7 5.66.82 8.56.25 1.43-.28 2.79-.72 4.08-1.29zm2.14-.1c-.04-.01-.09-.01-.13-.01 2.1-.82 3.97-1.75 5.63-2.78v4.48c-1.68-.65-3.49-1.22-5.5-1.69zm10.15-25.67c.03-.12.06-.23.08-.36.31-.02.61.02.88.15 1.27.59 1.47 2.6.45 4.49-.28.52-.63.97-1 1.34.06-1.85-.07-3.73-.41-5.62zm-30.78 37.76c.3 1.05.67 1.96 1.09 2.59.45.66.98 1.07 1.53 1.27 1.18.41 2.8.09 4.46-.8.38-.21.77-.44 1.16-.69l-.7 20.68c-.01.41.14.8.42 1.09s.67.46 1.08.46l7.56-.02c.41 0 .8-.17 1.09-.47.28-.3.43-.7.41-1.11l-1.12-20.55c.34.18.68.35 1.02.5 1.78.76 3.53.92 4.87.24.54-.27 1.02-.75 1.38-1.44.36-.68.62-1.63.77-2.7.41-2.92.06-6.94-.07-8.29 14.7 5.38 17.03 17.57 24.56 32.71-3.89 2.52-10.97 5.01-15.46 4.96-.43-2.67-1.27-9.17-2.24-14.34-.52-2.79-1.08-5.19-1.62-6.41-.05-.13-.2-.19-.33-.13-.13.05-.19.2-.13.33.48 1.21.91 3.59 1.29 6.34.81 5.79 1.4 13.23 1.68 15.21.01.05.03.08.05.12l5.04 34.97c-14.2 2.63-33.25 2.93-48.14 0l2.34-34.77c.05-.09.09-.2.09-.31.07-2.05.42-9.9.92-15.9.26-3.09.56-5.69.88-6.71.05-.13-.02-.27-.16-.32-.13-.05-.28.02-.32.16-.38 1.02-.8 3.65-1.21 6.79-.67 5.25-1.29 11.93-1.54 14.88-5.08-1.38-11.34-5.63-17.53-12.53 10.87-12.87 19.4-20.93 25.65-24.35.09 1.28.4 5.56 1.23 8.54zm67.79 47.34v1.49h-15.36v-1.49zm-15.37-1.2 1.62-7.56h12.16l1.58 7.56zm6.75 23.42c-.41-.53-.9-1.12-1.44-1.73-.77-.88-1.61-1.75-2.37-2.43.59.83 1.2 1.85 1.75 2.87.52.95.96 1.86 1.27 2.56.02 1.93-.64 2.84-1.4 2.69-.33-.69-.85-1.71-1.5-2.85-.63-1.1-1.36-2.3-2.14-3.4.55 1.21 1.05 2.51 1.46 3.71.48 1.39.83 2.59.99 3.22-.16 2.47-1.53 2.79-2.86 1.02-.09-.9-.31-1.84-.64-2.8-.52-1.5-1.25-2.98-1.99-4.26.48 1.36.9 2.92 1.12 4.47.14.98.16 1.92.06 2.79-.33.38-.82.31-1.41-.27-1.42-1.4-1.88-4.62-4.27-9.88-1.97 6.01-4.39 5.33-4.08 4.04.1-.42.56-2.24.86-3.95.36-2.03-.49-5.2 1.36-7.08l-8.85-28.4c3.16-.21 7.16-1.33 10.6-2.77l6.88 30.01 5.01 6.62c1.98 2.69 2.15 5.1 1.59 5.82zm-1.33-7.97h1.39v1.9c-.14-.22-.28-.43-.44-.65zm-12.98 34.72 2.48-5.98h2.57l-2.17 6.07c-.13-.05-.26-.08-.4-.08h-2.48zm2.48 1.2v1.98h-2.97v-1.98zm0-8.38v-15.79c.51 1.28 1.03 2.23 1.68 2.88.3.3.6.51.89.66v12.26h-2.57zm-6.13-27.45c-.02.45-.02.89-.01 1.33h-2.11l-4.1-28.43 7.29 23.38c-.74 1.08-1.01 2.39-1.07 3.72zm-70.03 30.64 7.71-10.48v1.58l-7.65 10.33v-1.12c0-.11-.03-.21-.06-.31zm-3.41-.89 8.15-10.25 2.17-.21c-.06.05-.11.1-.16.16l-7.62 10.35c-.09-.02-.17-.05-.26-.05zm2.27 1.2v1.98h-2.97v-1.98zm4.68-29.62h-3.74l3.74-4.63zm3.74 16.72-2.54.24v-23.08l2.98-3.68v26.57c-.15-.04-.29-.06-.44-.05zm-9.22-16.61-.09-3.43c.08-.06.17-.1.24-.18l15.36-18.08v2.63c-.01 0-15.5 19.29-15.51 19.06zm-12.02-4.19v-5.92c.07.01.14.04.21.04h6.41c.32 0 .63-.12.86-.34l10.18-9.6c.27-.26.42-.63.39-1.01-.03-.34-.19-.65-.45-.87-.02-.07-.1-.33-.12-.51-.03-.32-.01-.68.03-1.06l9.8-.09c-.01.06-.01.11-.02.17l.25-.17-16.27 19.16zm10.88 4.46c.01.21-9.5.25-10.88.25v-3.51l10.74-.19zm5.91-21.19-9.75 9.19c-.9-1.37-.59-3.31-.45-3.95 0 0 .01 0 .01-.01l9.66-8.01c-.16 1.29.01 2.42.53 2.78zm-10.95 4.31h-5.84v-8.79l16.79-.28zm.05 5.29h-5.68v-4.09h5.12c-.15.98-.24 2.67.56 4.09zm16.98-.07 5.58-6.91c.17-.21.27-.48.27-.75v-4.49c0-.03-.01-.06-.01-.09 0-.05-.01-.1-.02-.16s-.03-.12-.05-.17c-.01-.03-.01-.06-.03-.09-.01-.02-.02-.03-.03-.05-.03-.05-.06-.1-.1-.15-.03-.04-.06-.08-.09-.12-.04-.04-.09-.08-.13-.11s-.08-.07-.13-.09c-.01-.01-.03-.02-.04-.03-.02-.01-.04-.01-.06-.02-.11-.05-.24-.09-.36-.1-.03 0-.05-.01-.08-.01-.02 0-.04-.01-.06-.01l-9.76.09c.06-.19.12-.38.19-.56.2-.49.07-1.06-.33-1.41-.1-.09-.21-.16-.33-.21 0 .02 0 .05.01.07-.16-.08-.34-.13-.53-.13l-16.77.28v-6c1.89 1.33 3.74 2.5 5.43 3.41 2.71 1.47 5.06 2.28 6.61 2.28 1.23.09 3.22-.59 5.49-1.87 3.02-1.7 6.68-4.42 9.79-7.03 2.1 1.2 4.1 2.05 5.94 2.53 0 0-1.8 26.71-2.23 33.17h-8.15v-11.27zm-22.87 78.77v-65.66l11.83-.14c.22 0 .43-.07.62-.19h5.05v16.25l-8.58 10.79c-.22.27-.3.62-.24.95h.01c-.01.05-.03.08-.03.13v1.98c0 .66.54 1.2 1.2 1.2h2.97c.08 0 .15-.03.23-.05.01 0 .01.01.02.01.48.13.98-.05 1.28-.44l8.29-11.19c.15-.21.24-.46.24-.71v-1.58c0-.12-.02-.23-.05-.34.03-.1.05-.21.05-.32v-16.67h8.07c0 .71.49 1.33 1.2 1.47.54.11 1.09.2 1.64.3l-4.79 30.44c0 .02-.01.05-.01.07l-3.09 28.9c-.07.67.31 1.31.94 1.56.57.22 1.13.43 1.69.62l.04 2.63h-28.58zm14.1 13.49c1.62-1.1 4.28-3.09 4.28-3.09 3.39.82 5.36 3.27 7.24 6-1.16.41-2.34.79-3.53 1.12-4.33 1.18-6.75 1.38-8.19.73-.51-.23-.89-.59-1.17-.98h.01s-.6-.97-.69-2.07c.53-.61 1.23-1.15 2.05-1.71zm27.51-1.15c-13.69 9.22-29.1 13.91-30.45 6.66-.18-.95-.18-1.72-.12-2.31l.13.37c.34 1.93 2.52 4.3 11.32 1.9 10.18-2.78 19.76-9.39 19.76-9.39s.52 1.99-.64 2.77zm-.06-4.08c-.05.03-.1.04-.14.08 0 0-6.46 4.45-14.34 7.52-.03-.05-.05-.11-.09-.16-1.82-2.65-3.74-5.02-6.67-6.23.93-.59 1.95-1.23 3.08-1.92.07.06.16.11.26.14 1.29.41 1.92 1.02 2.5 2.4.12.29.4.46.69.46.1 0 .2-.02.29-.06.38-.16.56-.6.4-.98-.53-1.25-1.2-2.24-2.58-2.9.39-.23.8-.47 1.22-.72.06.04.12.09.2.11 1.36.44 1.91.94 2.46 2.25.12.29.4.46.69.46.1 0 .2-.02.29-.06.38-.16.56-.6.4-.98-.58-1.38-1.27-2.17-2.43-2.72.41-.24.85-.49 1.28-.74.23.33.54.63.95.88.71.44 1.77.77 2.98.9 1.63.18 3.53.03 4.98-.47.88-.3 1.59-.74 2.1-1.26.73 1.07 1.31 2.58 1.48 4zm-11.52-10.41c3.55 1.03 6.77 1.33 9.75 1.16l-.49 3.82c-1.3 2.35-8.77 2.23-9.18.13zm11.14 2.15.14-1.12c2.43-.27 4.7-.84 6.86-1.56.57-.19.98-.71 1.02-1.32l1.68-23.5 5.25-14.41 8.9 41.91zm25.4.1-10.07-47.44-.11.3-.63-5.76c.08 0 .16.01.25.01.85 0 1.72-.08 2.62-.24 1.22-.21 2.47-.57 3.76-1.03.11-.03.18-.15.14-.26-.03-.11-.15-.18-.26-.14-.77.17-1.51.31-2.25.42-.77.11-1.52.19-2.25.23-.51.03-1.01.03-1.5.03-.5 0-1-.02-1.49-.05-.67-.05-1.32-.14-1.96-.27-.98-.21-1.92-.52-2.82-.99-.1-.06-.23-.03-.29.07s-.03.23.07.29c1.1.75 2.3 1.29 3.59 1.62.3.07.6.13.9.18-.02.08-.03.15-.02.23l.97 8.85-5.84 16.04-1.7 23.71c-5.67 1.9-12.12 2.69-20.31-.53l2.71-25.35c1.29.95 2.76 1.44 4.46 1.44.79 0 1.63-.1 2.52-.31.4-.09.66-.5.56-.9-.09-.4-.5-.65-.9-.56-2.45.56-4.4.23-5.97-1.02-.15-.12-.33-.17-.51-.16l.22-2.05 4.79-30.42c13.32 2.16 29.25 1.97 42.13.02l3 28.06 5.25 30.5c-4.38 5.76-10.88 7.31-19.06 5.48zm8.39 2.11c3.72-.39 6.95-1.77 9.64-4.23l.97 1.72c2.07 1.21-1.89 8.59-7.53 6.1zm-.39 9.15c1.42-.16 2.59.17 3.54 1.02.14.13.32.19.5.19.21 0 .41-.08.56-.25.28-.31.25-.78-.06-1.06-1.04-.93-2.29-1.41-3.72-1.44l.34-.64c.05 0 .09.02.14.01 1.49-.21 2.71.13 3.7 1.01.14.13.32.19.5.19.21 0 .41-.08.56-.25.28-.31.25-.78-.06-1.06-1.12-.99-2.47-1.47-4.02-1.44l.42-.8c.13.13.28.25.46.33 4.95 2.19 8.9-1.63 9.91-4.67.15-.44.22-.86.25-1.25.72.24 1.45.83 2.08 1.7-.55.83-.76 2.01-.77 2.06-.79 2.41-2.45 7.18-4.08 10.24-.53.99-1.3 2.23-2.24 3.42-4.48-2.22-7.77-3.31-9.96-3.6zm-7.12 7.52c1.05-.99 2.71-1.89 4.09-2.46 0 .01.01.02.01.03.02.07.29.09.43.05 2.02.17 5.17 1.19 9.56 3.34-.23.24-.45.5-.7.72-1.08.98-2.34 1.94-3.75 2.17-5.78.97-8.67-1.55-9.7-2.74-.27-.33-.25-.82.06-1.11zm23.04-13.94c.17-.56.37-1.38.37-1.38l.28.25c.48.5 1.33 1.77.53 3.98-2.91 8.14-6.05 15.48-10.57 17.45-5.27 3.16-15.12.9-14.95-3.17.01-.3.39-1.5.39-1.5.4 1.11 3.55 4.94 10.87 3.5 4.16-.82 7.25-5.36 8.73-8.14 1.91-3.58 3.68-8.59 4.4-10.99zm25.21-17.89v.01 12.94h-27.23c-.37-.17-.75-.3-1.11-.35-.15-.37-.36-.7-.63-.95 0 0-.41-.74-1.02-1.83.39-.42.77-.87 1.13-1.34.25-.33.36-.75.29-1.16l-5.24-30.45-3.01-28.09c.66-.11 1.32-.22 1.96-.34.72-.13 1.22-.76 1.22-1.48h1.89c-.01.2-.03.4-.06.58-.3 1.68-.74 3.45-.84 3.86-.3 1.24.32 2.23 1.32 2.59.53.19 1.26.22 2.1-.24.58-.32 1.33-1 2.08-2.25.14.35.26.69.38 1.02v20.02l-2.88 6.94c-.06.14-.08.28-.08.43 0 .02-.01.03-.01.05v1.98c0 .66.54 1.2 1.2 1.2h2.97c.66 0 1.2-.54 1.2-1.2v-1.88c.01.01.02.01.03.02l2.47-6.91c.04-.12.06-.24.06-.37 0-.01.01-.02.01-.04v-13.17c.23-.01.44-.05.62-.12.19-.07.37-.17.55-.3.33.34.65.59.95.75.66.36 1.3.42 1.86.29.72-.17 1.41-.68 1.82-1.69.12-.29.22-.64.29-1.05.1 0 .2-.01.3-.02.58-.09 1.16-.41 1.61-1.05.38-.54.68-1.45.74-2.71.07-.12.1-.24.1-.37.21-.16.4-.36.56-.63.25-.42.44-1.07.42-1.9-.01-.29-.04-.61-.1-.95.16.09.32.18.48.24v6.09h-1.29c-.55 0-1.03.38-1.17.92l-.9 3.68c.05-.02.09-.04.14-.06-.07.15-.11.31-.11.48v2.6c0 .66.54 1.2 1.2 1.2h1.44v3.78h-1.64c-.38 0-.73.18-.96.48s-.3.69-.2 1.05l2.69 9.49c.09.32.32.57.59.72.2.15.44.26.71.26h2.57c.66 0 1.2-.54 1.2-1.2v-6.37h6.51c.3 0 .57-.12.78-.31v27.11zm-11.59-42.63v2.62h-1.93l.64-2.62zm-.67 12.59v5.77l-1.64-5.77zm1.2 9.6v-14.57h2.57v14.57zm3.77-7.57v-2.02h6.51v2.02zm7.29-2.92c-.21-.18-.48-.31-.78-.31h-6.51v-3.78h7.29zm0-5.28h-13.71v-2.6h13.71zm-10.39-3.8v-11.58h2.57v11.58zm3.77 0v-2.62h6.39v2.62zm6.62-3.77c-.08-.02-.15-.05-.23-.05h-6.39v-5.87h6.62zm0-8.08v.96h-6.62v-.69c0-.66-.54-1.2-1.2-1.2h-2.57c-.66 0-1.2.54-1.2 1.2v.32c-.1-.07-.21-.15-.3-.24-.39-.39-.61-.91-.61-1.46v-8.19c0-.55.22-1.07.61-1.46s.91-.61 1.46-.61h10.42v11.37zm0-12.56h-10.42c-.87 0-1.7.34-2.31.96s-.96 1.44-.96 2.31v3.99h-2.29l-2.98-3.94-1.47-6.42h15.3c.66 0 1.2-.54 1.2-1.2v-2.69c0-.01 0-.02 0-.02 0-.07-.01-.15-.02-.22l-1.58-7.56c-.12-.56-.61-.95-1.18-.95h-12.16c-.57 0-1.06.4-1.17.95l-1.49 6.93-2.05-8.93h23.58v.69zm0-18.01h-23.86l-1.98-8.64c1.2-.56 2.31-1.16 3.24-1.76.33-.22.55-.54.63-.9h21.96v11.3zm0-98.81h-45.6c-.66 0-1.2.54-1.2 1.2v6.03c-2.58-2.23-5.32-3.84-8.1-4.85-1.01-.37-2.02-.65-3.03-.86-1.13-.34-2.23-.54-3.3-.63-6.62-.53-11.85 3.41-13.54 4.87-2.15-.2-4.26.53-6.21 2.1-.03.02-.05.05-.08.07-1.28.81-2.48 1.88-3.55 3.2-4.42 5.44-6.82 14.91-5.54 23.58.9 6.05 3.57 11.7 8.47 15.4 2.04 1.54 4.48 2.73 7.34 3.47-1.03.53-2.12 1.16-3.26 1.94-6.02 4.1-13.8 11.73-23.34 23.02-.48.57-.47 1.41.03 1.97.19.21.38.41.57.61l-3.9 2.95-11.46-5.44v-114.05h115.7z" fill="#010101"/><path d="m159.37 261.65.01.01z" fill="#010101"/><path d="m136.62 231.8c-2.23 1.16-4.21 1.32-6.04.5-.38-.17-.82 0-.99.38s0 .82.38.99c.97.43 1.96.65 2.98.65 1.38 0 2.83-.4 4.36-1.19.37-.19.51-.64.32-1.01s-.65-.51-1.01-.32z" fill="#010101"/></svg>