<svg enable-background="new 0 0 297.64 297.64" viewBox="0 0 297.64 297.64" xmlns="http://www.w3.org/2000/svg"><g clip-rule="evenodd" fill-rule="evenodd"><path d="m253.2 265.26c-3.1 1.15-10.73 2.3-11.39-.26-6.93 1.63-13.54 2.58-20.11 6.09.23 9.12 14.95 8.23 31.62 2.32 2.04-.73 1.79-5.22-.12-8.15z" fill="#496787"/><path d="m234.1 255.65c-5.11.94-11.99.22-9.16-.98-6.48 1.3-14.02 2.36-20.21 5.41-2.54 8.84 14.57 8.03 30.2 3.07 1.91-.61.85-4.73-.83-7.5z" fill="#496787"/><path d="m48.24 169.51c-2.26-2.19-7.16-.6-10.21 4.01l-.2 19.39 10.17-6.77z" fill="#f4c385"/><path d="m37.56 216.7h40.58l3.24 3.75 6.19-7.08.16-4.61-39.32-.77z" fill="#f4c385"/><path d="m144.92 182.29-49.12.32-25.9 20.52 93.9-.2z" fill="#f4c385"/><path d="m37.56 216.7h43.29v4.07h-43.29z" fill="#b28750"/><path d="m74.46 203.54h86.44v3.91h-86.44z" fill="#b28750"/><path d="m78.34 212.28-.09-3.9-3.71-.04c-.5-.01-.89-.42-.88-.92l.05-2.66-11.23 7.85s8.02 4.4 25.81 2.72c.5-.05 1.24 0 1.6.35s.55.68.56 1.19c.23 9.86.47 21.6 1.05 28.53 4.2.34 14.78-.78 17.23-2.37l.42-4.74c2.34-.61 4.32-1.18 5.09-1.6l3.26-23.87s-27.11.48-38.34.31c-.45-.03-.81-.39-.82-.85z" fill="#203756"/><path d="m80.73 158.84c.39-.11.49-.71.24-1.33-.26-.62-.78-1.03-1.17-.92s-.49.71-.24 1.33c.26.62.79 1.03 1.17.92z" fill="#203756"/><path d="m81.18 161.33c.26.62.78 1.03 1.17.92s.49-.71.24-1.33-.78-1.03-1.17-.92-.5.71-.24 1.33z" fill="#203756"/><path d="m82.57 164.66c.26.62.78 1.03 1.17.92s.49-.71.24-1.33c-.26-.62-.78-1.03-1.17-.92s-.5.71-.24 1.33z" fill="#203756"/><path d="m97.58 247.67c1.54.75 5.66.49 7.35-.72.03-.95.15-2.63.15-2.63l-7.9.98c-.01 0 .27 1.57.4 2.37z" fill="#ffe7cc"/><path d="m108.95 238.14-.24 3.73 1.44-.37c.43-.11.74-.49.76-.93l.17-2.92z" fill="#ffe7cc"/><path d="m100.9 185.41c3.75.37 9.8 1.23 8.41-.73l-7.45-1.61c4.27.9 7.53 1.04 6.71-.79l-6.27-.96c4.82.82 5.25-.46 2.61-.77-7.66-.89-7.8-2.67-9.52-2.87 1.16-6.42 1.93-15.33 2.25-20.03.59-.1 1.29-1.97 2.2-5.21.94-3.39.97-4.11 1.43-6.19.41-1.86.03-3.25-.67-2.35-.41.52-1.8 3.3-1.8 3.3s.41-3.41.49-5.74c.04-1.33-.38-1.33-.84-1.4-1.1-.16-2.25 6.05-2.25 6.05s1.02-8.68-.63-8.2c-.02.01-.66-.42-.85.51-.43 2.19-.54 4.82-.93 7.49 0 0 .05-1.9-.62-4.84-.56-2.46-1.62-.8-1.65-.29-.17 3.76-.46 8-.55 8.66-1.82-2.15-4.18-1.53-4.63-.32 1.29.87 1.89.64 2.52 1.62 1.36 2.12-.28 4.66 2.48 6.54-.59 3.44-3.83 17.18-3.83 17.18l-7.01-4.42-6.57 8.74s12.6 7.52 17.91 6.64c5 2 4.56 5.55 5.6 5.33.35-.08 2.13-2.79-.03-3.91 10.86 2.4 10.78.75 10.61.18z" fill="#ffe7cc"/><path d="m76.3 152.15c.02-2.17-.53-5.93.1-8.16 5.23-1.16 8.12-4.6 9.66-6.63 2.82-3.71 2.74-10.2 2.44-11.09 3.1-1.8.45-5.25-1.47-4.57 0 0-2.77-12.94-19.52-12.46-11.04.32-19.93 8.76-19.01 18.43.83 8.7 7.36 14.09 16.41 15.62.06 1.75-.1 4.05 1.05 5.06 1.74 2.09 5.35 4.99 10.34 3.8z" fill="#ffe7cc"/><path d="m83.57 113.3c-7.81-17.94-36.23-6.48-36.28 5.25-11.61 9.35 6.03 43.43 17.66 26.97 1.9.17 3.38-.74 2.91-1.72 2.07-.37 1.5-1.76-1.98-4.27 4.29 1.14 3.78-.3-2.01-4.57-.01 0-.01 0-.02 0-.28-.06-.55-.17-.82-.29-.87-.32-1.66-.82-2.14-1.63-.76-1.28-.31-3.14.97-3.92.3-.18.62-.28.95-.31.22-.06.46-.09.75-.13.36-.04.72.03 1.07.08.58.09 1.12.33 1.65.58.4.19.77.42 1.12.68.07.05.14.11.21.16.2-.56-.29-1.81-1.35-3.62 3.92 1.51 4.45.29 2.19-3.19 3.15 1.3 4.25.65 2.49-2.71 3.15 1.3 2.93-.38.74-4.38 3.68 3.62 4.76 2.92 4.17-.27 3.36 1.45 4.25.59 3.1-2.18 3.85 1.97 4.8 2.06 4.62-.53z" fill="#978771"/><path d="m124.18 244.24c-.1-.14-8.59-2.81-13.12-3.67-.08.96-5.27 3.58-6.84 3.12-1.39 1.33-.4 2.27-.47 2.03-.13.61.62 1.36 1.69 2.07-1.71.82-6.76 1.2-8.38.72-1.73 1.65-1.04 5.09-1.12 4.79-.41 1.94 5.07 1.86 7.32 2.32 9.41 1.92 17.06-.13 17.25-4.48-.05-.07-1.35-.49-3.24-1.05 4.1-.94 6.8-3.48 6.91-5.85z" fill="#dbdada"/><path d="m124.51 244.51c-.14-.82-3.75-1.82-5.35-2.09 0 0-4.47 6.04-4.05 6.05-1.15.89-3.36 3.54-4 6-4.95.33-11.23-.64-16-3.02-.09.95.2 4.02.28 4.05 12.09 4.47 24.61 2.04 26-.93.69-1.48.89-2.35.8-3.48 0-.03-.63-1.4-.63-1.4s1.75-1.16 2.34-1.73c1.87-1.79.61-3.45.61-3.45z" fill="#8e8f90"/><path d="m71.99 224.03 7.49.11v-2.79h-42.32v2.74l20.21.02-.53 14.27-6.12-.59v5.08l6.07.38-.19 13.41 5.3-.05-.07-13.85 23.62.35.37-5.06-13.73-.26zm-4.38 14.54h-6.56v-.5l6.56-8.36zm0-12.96-6.56 7.75v-9.24l6.56.01z" fill="#ffd219"/><path d="m34.83 174.56v49.54l2.19.09.23-50.23z" fill="#ffd219"/><path d="m47.71 187.49-2.65 1.63-.09 20.98 2.93-2.65z" fill="#ffd219"/><path d="m158.64 208.05-80.37-.09.09 5.3 70.6-.19c0 9.08.37 38.24.37 45.58 0 .42-.07 1.28-.37 1.58s-1.07.09-1.49.09l-55.63-.09.19 4.74s42.19.09 56.28.09c1.23 0 3.04-.81 3.91-1.67.87-.87 1.4-2.87 1.4-4.09-.01-11.06.01-37.61 0-46.14l4.93-.09z" fill="#ffd219"/><path d="m109.69 241.24v.03.03z" fill="#010101"/><path d="m69.14 202.7 20.69-16.36s-3.28-.66-7.36-2.2c-2.02-.76-7.85-4.05-7.85-4.05l8.02-9.84s3.77 2.34 4.53 3.31l1.36-6.87c-.78-2.49-7.74-17.58-12-18.84-.02.5.36 2.67.1 3.66-.13.5-.82.78-1.33.84-2.02.21-8.65-1.22-9.91-5.51-1.75 1.2-3.99 2.27-5.58 4.01-4.95 5.44-7.56 17.7-1.71 63.07.05.36 1.08.64 1.4.45 5-3.04 15.03-10.47 15.03-10.47l-5.13-.07c-.36-.01-.55-.87-.26-1.13zm13.84-39.25c.11-.04.25-.01.35.04.08 0 .15.02.22.06s.14.11.18.18c.1.17.15.36.19.55.03.15.06.31.11.45-.01-.02-.01-.03-.02-.04.05.11.08.24.04.36-.03.08-.07.16-.13.22-.15.16-.42.19-.61.08-.15-.09-.26-.21-.37-.35-.08-.11-.13-.23-.18-.36-.07-.18-.11-.38-.14-.57-.03-.14-.01-.26.05-.39.07-.11.19-.19.31-.23zm-1.45-3.32h.65c.14 0 .26.06.35.15.1.09.14.22.15.35 0 .07-.01.13-.04.19-.01.04-.04.07-.07.1.11.23.16.49.09.74-.03.11-.09.19-.18.26-.05.04-.1.07-.17.09-.04.01-.09.01-.13.02-.01 0-.01 0-.02 0-.03.01-.06.04-.1.04-.11.01-.22 0-.32-.06-.07-.04-.13-.11-.18-.18-.17-.26-.31-.54-.36-.84-.01-.01-.02-.01-.02-.02-.1-.09-.14-.22-.15-.35 0-.07.01-.13.04-.19.02-.06.05-.12.1-.16.1-.08.23-.14.36-.14zm-1.86-3.35c.11-.07.27-.08.39-.05h.02c.08.01.17.02.25.05.14.05.22.09.33.18.15.12.22.3.29.47.05.12.08.25.1.37.03.19.04.35.01.54-.04.18-.19.29-.36.34-.01.01-.02.02-.03.03-.11.07-.27.08-.39.05-.13-.04-.23-.12-.3-.23-.09-.13-.17-.27-.25-.4-.05-.08-.09-.17-.13-.25-.05-.11-.1-.22-.13-.34-.01-.05-.01-.11-.01-.16-.03-.1-.04-.2-.02-.3.03-.13.12-.23.23-.3z" fill="#bbe4f9"/><path d="m82.76 168.73-9.62 11.84c-12.87-10.69-16.87-19.48-12.57-24.13 5.16-4.2 14.05 4.78 22.19 12.29z" fill="#bbe4f9"/><path d="m41 257.25h34.03v3.69h-34.03z" fill="#ffd219"/><path d="m222.31 145.79-1.63 11.01c2.48 3.17 4.43 9.98 6.47 13.28-.87 1.52-4.23.16-5.78-4.31-.74 1.75-.65 4-.48 6.3.1 1.38.13 4.59.1 5.15-.21 4.01-2.07 1.75-2.07.32.01-1.15-1.12-7.26-1.52-8.78 0 0 .15 12.96-1.51 11.06-.36-.41-1.1.07-1-3.09.06-2-.32-5.25-.37-7.84-.25 6.37-1.04 11.28-2.71 10.06-.87-.63.24-5.18.27-10.22-.62 2.81-1.32 5.51-2.21 6.83-.89 1.35-2.25 1.3-.9-4.02.77-3.03 1.23-7.3 3.65-14.42l1.9-10.3z" fill="#ffe7cc"/><path d="m223.95 255.86c3.35 1.86 7.14 1.41 10.42.28l.93-3.91-10.79-.84z" fill="#ffe7cc"/><path d="m241.71 260.89.84 4.09c2.48.77 6.14 1.3 10.33.28l.09-3.72s-4.18.54-5.58.47c-1.44-.09-5.68-1.12-5.68-1.12z" fill="#ffe7cc"/><path d="m217.4 152.73c.99 32.76 7.63 64.97 6.65 97.5.78 1.45 10.77 1.78 12.82.86 2.29-13.09-6.31-63.13-6.19-80.67l10.62 88.93c1.44 1.94 13.3 2.1 13.37.85 1.96-35.71 5.51-79.07 6.04-109.32-14.71.48-29.79 3.04-43.31 1.85z" fill="#72a9ad"/><path d="m241.22 61.85c-5.23 1.42-9.65 4.74-14.02 6.5-11.05 4.44-15.97 13.49-11.21 31.25l.95 54.98c.47 4.09 35.43 6.24 46.78 3.29l-2.68-84.46c-.94-2.82-12.07-10.66-19.82-11.56z" fill="#7ca6d8"/><path d="m251.1 152.06-3.69 9.17c-3.27 2.35-7.04 8.34-9.93 10.93.41 1.71 4.02 1.34 6.76-2.52.21 1.89-.49 4.02-1.3 6.19-.48 1.3-1.41 4.37-1.54 4.92-.92 3.91 1.5 2.26 1.89.89.32-1.1 3.11-6.65 3.91-8 0 0-3.77 12.4-1.65 11.04.46-.29 1.03.37 1.82-2.68.5-1.94 1.77-4.96 2.55-7.43-1.54 6.19-2.16 11.12-.21 10.42 1.01-.36 1.22-5.04 2.6-9.89-.19 2.88-.28 5.66.21 7.18.48 1.55 1.8 1.88 1.99-3.61.11-3.12.86-7.36.53-14.86l3.24-8.57z" fill="#ffe7cc"/><path d="m202.46 36.85c.38 4.97 1.28 10.1 4.05 15.75l-1.07 3.91c-2.12 4.42 2.54 3.03 3.91 2.43 1.5 3.68 5.48 8.3 7.66 9.3 1.88.86 7.52-2.48 11.43-4.84 1.67 3.88 2.61 5.79 3.69 11.06 5.75-4.24 10.46-6.87 10.94-12.54-1.45-2.7-2.56-8.27-3.9-10.9 1.45-10.52.17-21.22-7.63-26.67-13.56-4.88-22.33 1.44-29.08 12.5z" fill="#ffe7cc"/><path d="m203.43 30.01c-3.04 4.53-4.65 10.23-.45 12.02 7.03-5.12 6.39-7.29 11.81-8.79 1.92-.53 4.42.38 6.63 1.62 1.97 1.11 4.49 3.42 5.75 6.49.74 1.8 1.26 4.17 1.29 5.49 1.71-.5 2.34-3.15 2.15-4.7-.46-3.6 4.93-6.41 5.64-.58.49 3.99-2.8 6.79-2.8 6.79 2.67 1.79 3.58 3.72 5 6.31l2.22-1.02c4.26-23.44.81-29.84-7.82-34.14-7.14-3.57-16.22-2.58-23.28 3.77-2.29 2.07-4.26 3.94-6.14 6.74z" fill="#6a462d"/><path d="m211.08 62.04c1.62-.41 4.22-1.92 5.67-3.45 0 0 .02 3.84-3.76 5.8-.34-.35-.61-.72-.89-1.09-.31-.42-.62-.84-1.02-1.26z" fill="#fff"/><path d="m215.41 103.21c-2.49 20.99-4.22 45.35-5.47 51.72-.07.37.17.72.54.79 2.42.45 6.11.99 6.11.99s-.63-22.33-.93-38.51c-.16-8.96.33-19.84-.25-14.99z" fill="#c1918b"/><path d="m267.11 94.75c-1.19-11.01-3.52-19.7-8.88-20.65-1.39-2.22-10.35-1.28-9.81 13.4.12 3.26.33 8.23 1.63 12.84 1.64 5.36 2.19 9.75 3.4 17.91-.8 12.64-4.86 29.72-7.01 38.36-.11.43.2.83.64.87 4.74.38 9.6 1.78 12.89 3.01.45.17.95-.08 1.09-.55 5.23-18.33 8.21-41.32 6.05-65.19z" fill="#c1918b"/><path d="m249.24 98.88c-6.5-30.99 10.27-30.99 15.37-18.81-5.63-23.03-26.42-5.67-15.37 18.81z" fill="#7ca6d8"/><path d="m110.7 106.53c-7.12-1.18-12.32-4.74-12.53-9.17-.27-5.58 7.45-10.49 17.38-11.19-2.02-1.55-3.26-3.5-3.38-5.68-.3-5.54 6.82-10.42 15.9-10.89 4.84-.25 9.27.81 12.39 2.69 4-3.15 6.78-3.25 11.13-3.58 10.85-.82 19.14 6.55 19.01 11.84-.05 2.03-1.34 3.89-3.49 5.39 6.25 1.36 10.64 4.53 10.82 8.4.26 5.49-8.03 10.32-18.5 10.8-2.77.12-5.41-.07-7.81-.52-.4 5.15-7.1 9.49-15.48 9.87-7.89.36-14.63-2.92-16.13-7.54-4.03 3.49-12.94 8.19-20.13 6.63 4.78-.92 8.41-3.73 10.82-7.05z" fill="#e1eef9"/></g><path d="m139.76 98.2h-4.32c-.01-.71-.02-1.14-.02-1.3 0-1.6.23-2.92.69-3.95s1.39-2.2 2.78-3.49 2.22-2.14 2.49-2.54c.42-.63.63-1.33.63-2.09 0-1.06-.37-1.97-1.11-2.72s-1.74-1.13-2.99-1.13c-1.21 0-2.22.39-3.03 1.18s-1.37 1.99-1.68 3.6l-4.37-.62c.12-2.31.99-4.28 2.58-5.89 1.6-1.62 3.7-2.42 6.3-2.42 2.73 0 4.91.82 6.53 2.45s2.42 3.54 2.42 5.71c0 1.2-.3 2.34-.89 3.41s-1.86 2.53-3.81 4.38c-1.01.96-1.63 1.72-1.87 2.31-.24.57-.35 1.61-.33 3.11zm-4.32 7.32v-5.45h4.76v5.45z" fill="#e42f2d"/><path clip-rule="evenodd" d="m221.98 18.55c-15.84 2.43-25.61 21.84-18.33 21.79-3.44-6.17 8.1-19.35 18.33-21.79z" fill="#9c5929" fill-rule="evenodd"/><path clip-rule="evenodd" d="m215.3 32.17c2.54-2.27 9.97 1.79 12.2 6.35-2.81-7.21-12.99-9.77-12.2-6.35z" fill="#9c5929" fill-rule="evenodd"/><path clip-rule="evenodd" d="m230.53 42.2c-.79 2.36.1 6.84 1.84 7.2s2.8-1.1 4.2-4.05c1.17-2.45-.28-6.12-2.02-6.48-1.74-.35-3.15.75-4.02 3.33z" fill="#ffe7cc" fill-rule="evenodd"/><path clip-rule="evenodd" d="m63.43 105.83c2.65-1.48 17.18.27 19.33 8.47-2.21-9.27-14.35-11.08-19.33-8.47z" fill="#c9b49a" fill-rule="evenodd"/><path clip-rule="evenodd" d="m61.37 118.85c-.34 1.53 3.7 7.03 7 7.77-1.08-.59-6.72-5.94-7-7.77z" fill="#c9b49a" fill-rule="evenodd"/><path clip-rule="evenodd" d="m57.43 111.85c-.84-1.17-7.24-.32-9.37 3.85 2.08-1.54 5.66-5.09 9.37-3.85z" fill="#c9b49a" fill-rule="evenodd"/><path clip-rule="evenodd" d="m57.41 116.24c-.71-1.01-7.1-1.37-9.6 1.44 2.19-.83 6.06-2.95 9.6-1.44z" fill="#c9b49a" fill-rule="evenodd"/><path clip-rule="evenodd" d="m45.74 125.64c-1.36 10.36 6.11 25.43 15.49 21.61-8.02 1.42-15-11.72-15.49-21.61z" fill="#c9b49a" fill-rule="evenodd"/><path clip-rule="evenodd" d="m81.35 156.1c1.71-.17 1.23-2.54.7-3.24-1.85-2.44-5.16-4.81-5.16-4.81s-.4 4.07-.45 4.08c-7.53 1.19-11.16-5.37-11.16-5.37l-2.09 1.67c1.85 3.24 4.68 6.72 13.29 10.01.78.3.87-1.64.87-1.64 1.18 2.4 2.07 4.25 3.73 8.79.3.81 1.99 2.38 2.2 3.1l3.21-2.06c-1.88-6.09-5.14-10.49-5.14-10.53zm-.53 2.42c-.01.01-.02.03-.03.05-.06.06-.14.1-.22.13-.11.03-.23.02-.33-.03-.06-.02-.12-.05-.16-.1-.03-.03-.05-.07-.08-.1-.06-.11-.1-.23-.15-.35-.03-.04-.07-.08-.1-.12-.13-.21-.22-.45-.22-.69 0-.23.16-.41.37-.48.07-.02.14-.02.21 0 .11-.02.24 0 .33.05.06.03.1.07.14.13.04.05.07.1.09.17-.01-.03-.02-.05-.03-.08.07.16.15.32.22.49.04.1.06.21.08.31.01.04.03.08.04.12.06.18-.02.37-.16.5zm1.57 3.57c-.11.07-.27.08-.39.05-.11-.03-.25-.12-.3-.23-.16-.32-.29-.66-.47-.98-.12-.22-.07-.49.13-.64.09-.07.19-.1.3-.11.07 0 .15.02.22.06h.07c.07.02.12.05.17.09s.1.08.13.14c.04.05.06.12.09.18.01.01.03.02.04.04.11.13.19.24.24.4.03.07.04.16.04.24s-.01.17-.03.25c0 .01-.01.01-.01.02.01.06.01.12-.01.19-.02.12-.12.23-.22.3zm1.51 3.32c-.1.06-.28.09-.39.05-.14-.05-.21-.1-.33-.19-.07-.06-.12-.13-.17-.2-.09-.12-.15-.26-.21-.4-.08-.2-.14-.42-.2-.63-.04-.13-.01-.27.05-.39s.18-.19.3-.23.28-.01.39.05c.08.05.13.12.18.2.04.02.09.03.13.07.09.08.16.18.22.28.07.11.12.23.17.35.04.09.06.18.08.27.01.08.03.16.03.24s-.01.16-.02.23c-.02.13-.13.24-.23.3z" fill="#fff" fill-rule="evenodd"/><path clip-rule="evenodd" d="m78.32 164.38c-3.06 3.36-7.72 8.45-10.37 12.05l1.15 1.21c2.66-3.53 7.64-9.07 10.66-12.18z" fill="#fff" fill-rule="evenodd"/><path clip-rule="evenodd" d="m69.81 178.33 1.63 1.12c2.64-3.91 6.95-8.86 10.09-12.05l-1.42-1.17c-3.05 3.44-7.65 8.42-10.3 12.1z" fill="#fff" fill-rule="evenodd"/><path clip-rule="evenodd" d="m69.32 144.91c.01-.02.02-.03.02-.04.01 0 .02-.01.02-.02-.01.02-.02.04-.04.06z" fill="#010101" fill-rule="evenodd"/><path clip-rule="evenodd" d="m214.7 47.64c-.64-.1-1.31.02-2.02.25-1.28.41-2.68 1.17-4.22 1.57-.39.14-.59.57-.45.96s.57.59.96.45c.15-.07.28-.16.43-.23.11.42.47.74.9.72.5-.02.88-.47.86-.99-.01-.24-.11-.46-.27-.62.71-.46 1.38-.93 2.03-1.28.6-.32 1.17-.55 1.76-.57.07 0 .13-.05.14-.12s-.05-.13-.12-.14z" fill="#010101" fill-rule="evenodd"/><path clip-rule="evenodd" d="m215.9 44.39s-1.27-.1-2.38-.16c-.84-.05-1.59-.07-1.59-.07-.12 0-.24.03-.34.09l-4.79 2.75c-.36.21-.47.67-.26 1.03.21.35.67.47 1.03.26l4.55-2.81c.27-.01.81-.02 1.39-.05 1.11-.05 2.38-.14 2.38-.14.25 0 .45-.2.45-.45.01-.25-.19-.45-.44-.45z" fill="#010101" fill-rule="evenodd"/><path clip-rule="evenodd" d="m232.25 43.65c.17.02.33-.11.35-.28.13-.56.39-.88.67-1.06.34-.22.73.04.78.47.04.21.05.47.03.76-.03.37-.08.79-.24 1.24-.22.63-.55 1.31-1.13 1.99-.13.12-.14.32-.02.45s.32.14.45.02c.58-.41 1.03-.85 1.4-1.3.3-.38.52-.76.68-1.14.21-.47.31-.92.35-1.33.03-.36 0-.69-.06-.98-.26-.96-1.02-1.54-1.82-1.49-.25.02-.5.06-.72.2-.52.31-1.03.96-.99 2.11-.03.17.1.32.27.34z" fill="#010101" fill-rule="evenodd"/><path clip-rule="evenodd" d="m277.73 226.17-19.48.21c1.51-23.14 3.08-46.77 3.72-66.39.02-.08.05-.16.07-.25.74-.13 1.43-.27 2.04-.43.68-.18 1.14-.8 1.12-1.5l-.3-9.52c3.35-15.95 4.6-34.01 2.84-53.5 0-.01 0-.02 0-.03-.53-4.88-1.21-9.61-2.25-13.51.47-.35.71-.96.57-1.56-1.68-6.89-4.73-10.41-7.94-11.52-3.6-2.8-9-5.89-13.83-7.22-.84-1.68-1.56-4.26-2.29-6.62.07-.14.13-.28.16-.44 4.47-24.61.44-31.23-8.62-35.75-7.66-3.82-17.39-2.81-24.96 4-2.39 2.15-4.43 4.1-6.38 7.01-2.02 3.01-3.4 6.51-3.24 9.25.12 2 .98 3.66 2.81 4.67.6 3.09 1.56 6.28 3.16 9.66 0 0-.89 3.25-.89 3.25-.92 2-.65 3.25-.17 3.95.46.67 1.21 1.07 2.15 1.17.78.08 1.73-.09 2.55-.31 1.94 3.73 5.69 7.83 7.82 8.81.8.37 2.1.35 3.65-.15 2.2-.72 5.15-2.36 7.71-3.88.11.26.22.5.32.75-.48.23-.96.44-1.43.64-4.74 1.9-8.41 4.62-10.8 8.39-3.5 5.51-4.3 13.36-1.35 24.47 0 0 .03 1.52.07 4.04-.03.3-.07.59-.1.88-2.28 21.34-3.74 45.54-4.96 50.54-.07.28-.01.59.16.82.17.24.44.39.73.41.27.02.53.05.8.07l-.03.16c-2.4 7.11-2.88 11.39-3.65 14.43-.62 2.45-.69 3.94-.54 4.73.23 1.31.99 1.74 1.61 1.86.36.07.76.04 1.17-.14.07-.03.15-.07.23-.12-.01.29 0 .54.02.76.1.99.5 1.59.92 1.89.57.42 1.13.52 1.63.46.44-.05.9-.26 1.31-.67.11.21.22.35.32.47.19.21.54.43.69.52.59.59 1.2.64 1.69.53.38-.08.86-.38 1.23-.98 1.48 15.46 3.39 30.86 4.3 46.28l-67.85.73-.02-13.65h3.49c.83 0 1.5-.67 1.5-1.5v-3.4h1.65c.83 0 1.5-.67 1.5-1.5v-3.02h1.41c.59 0 1.13-.35 1.37-.9.24-.54.13-1.18-.27-1.62l-18.88-20.63c-.29-.31-.69-.49-1.12-.49l-37.4.24c-.04-.28-.17-.59-.53-.85-.31-.23-.96-.5-1.95-.61-5.45-.63-6.92-1.73-7.99-2.33-.02-.01-.03-.01-.04-.02 1.05-6.12 1.77-14.14 2.1-18.81.21-.24.42-.54.61-.92.45-.91.98-2.48 1.58-4.62.39-1.41.63-2.37.81-3.15.25-1.12.37-1.88.64-3.12.25-1.13.24-2.12.11-2.74-.15-.67-.47-1.1-.76-1.33-.39-.31-.83-.43-1.32-.36.01-.22.02-.43.03-.64.03-1.06-.2-1.63-.42-1.97-.43-.65-1.01-.86-1.7-.96-.28-.04-.56-.02-.84.08-.06-.33-.14-.62-.23-.84-.29-.73-.77-1.13-1.24-1.31-.18-.07-.38-.11-.58-.12-.41-.1-.94-.11-1.44.16-.39.21-.88.61-1.07 1.58-.02.11-.04.22-.06.33-.09-.05-.18-.08-.26-.11-.61-.2-1.24-.08-1.78.33-.65.48-1.1 1.53-1.12 2.04-.08 1.76-.18 3.62-.28 5.17-.02.3-.04.59-.06.87-.57-.19-1.14-.26-1.65-.23-1.54.08-2.7 1-3.1 2.08-.24.65-.01 1.38.57 1.77.89.59 1.45.68 1.92.98.06.04.11.11.17.2.45.7.4 1.47.45 2.22.06.85.16 1.69.51 2.49.24.56.6 1.11 1.15 1.62-.28 1.43-.76 3.63-1.29 5.95-.04.2-.09.4-.14.6-1-2.65-2.3-5.59-3.94-8.24-.39-.63-.8-1.23-1.23-1.81-.09-.49-.32-1.11-.79-1.8-1.04-1.54-3.17-3.77-5.23-5.18-.03-.55-.06-1.1-.06-1.64 0-.4.02-.77.06-1.13 5.08-1.37 7.57-4.29 9.15-6.37 1.87-2.46 2.62-6 2.82-8.66.08-1.03.06-1.93.02-2.61 1.27-1.04 1.56-2.22 1.44-3.14-.18-1.37-1.4-2.5-2.85-2.72-.4-1.35-1.25-3.56-2.87-5.79.21-.53.32-1.23.26-2.14-.01-.17-.05-.34-.12-.49-5.06-11.63-18.08-12.04-27.74-7.6-6.26 2.88-10.95 7.8-11.38 12.73-2.76 2.54-3.93 6.42-3.82 10.72.15 6.42 3.15 13.75 7.26 18.28 2.77 3.06 6.06 4.81 9.31 4.55-1.65 2.54-3.01 6.25-3.71 12.26-.99 8.44-.7 21.64 1.82 43l-8.07-.16v-18.95l.23-.15c.41-.27.66-.73.67-1.23l.24-16.63c.01-.41-.16-.81-.46-1.1-1.24-1.2-3.03-1.65-5.02-1.26-2.5.49-5.39 2.36-7.48 5.52-.09.14-.15.3-.2.47h-.94c-.83 0-1.5.67-1.5 1.5v48.9c0 .83.67 1.5 1.5 1.5h1.37c.33 0 .62-.11.87-.29.05.01.1.02.15.02h17.84v3.76l-33.93.36c-.41 0-.75.34-.74.76 0 .41.34.74.75.74h.01l33.91-.36v7.03h-4.62c-.83 0-1.5.67-1.5 1.5v3.69c0 .83.67 1.5 1.5 1.5h4.62v11.99h-14.87c-.83 0-1.5.67-1.5 1.5v3.69c0 .83.67 1.5 1.5 1.5h34.03c.83 0 1.5-.67 1.5-1.5v-3.69c0-.83-.67-1.5-1.5-1.5h-12.47v-11.99h22.72c.83 0 1.5-.67 1.5-1.5v-3.69c0-.83-.67-1.5-1.5-1.5h-12.48v-7.21l17.32-.19c.2 5.73.44 11.12.77 15.08.06.73.64 1.31 1.37 1.37.95.08 2.14.08 3.46.02.08.45.16.91.23 1.37-.8.81-1.25 1.89-1.44 2.95-.15.84-.14 1.74-.11 2.33 0 .25 0 .5.02.75 0 .1.01.2.02.29.04.44.09.85.14 1.1.2 1.01.95 1.33 1.08 1.37 5.63 1.81 11.19 2.36 15.69 2.12 3.76-.2 6.8-.96 8.59-1.96 1.08-.6 1.77-1.33 2.11-2.05.29-.62.44-1.19.52-1.68.19-1.19-.05-1.97-.05-1.97-.03-.12-.1-.22-.15-.32.01 0 .01-.01.02-.01-.03-.05-.06-.1-.09-.15 0 0 0-.01-.01-.01-.05-.07-.1-.15-.17-.22.82-.4 1.52-.85 2.03-1.34 1.15-1.1 1.39-2.07 1.39-2.8-.02-1.53-1.27-2.36-1.27-2.36-.2-.14-.43-.21-.67-.24.03-.02.05-.04.07-.06-.1-.06-.22-.12-.35-.17-.56-.22-1.65-.47-2.69-.68h.02.06c-2.62-.83-6.45-1.95-9.25-2.48-.04-.01-.08-.01-.13-.01l.03-1.43c1.28-.41 2.3-.81 2.8-1.09.41-.23.69-.64.76-1.11l.96-6.92 32.56-.35v30.38c0 .02-.01.05-.02.06-.02.02-.04.03-.06.03h-55.7c-.83 0-1.5.67-1.5 1.5v3.23c0 .83.67 1.5 1.5 1.5h55.53c1.62 0 3.18-.65 4.33-1.8s1.79-2.71 1.79-4.33l-.03-30.63 67.92-.73c.4 7.3.58 14.6.36 21.93-.01.26.05.52.18.75.18.33.5.68 1.02.97l-.09 1.48c-6.37 1.24-13.6 2.39-19.59 5.34-.38.19-.66.53-.78.93-.54 1.87-.35 3.41.33 4.66.94 1.73 2.96 2.97 5.85 3.56 6.05 1.23 16.27-.23 25.93-3.3 1.11-.35 1.81-1.24 2.01-2.57.25-1.68-.5-4.34-1.66-6.5l.42-2.67c.56-.1 1.02-.22 1.33-.36.46-.2.78-.62.87-1.11.1-.59.19-1.27.25-2.01 0 0 1.22 10.18 1.22 10.18.03.26.13.51.29.72.22.3.6.6 1.1.88l.25 2.41c-7.06 1.66-13.78 2.65-20.46 6.22-.5.27-.81.79-.79 1.36.11 4.4 2.91 6.97 7.64 7.89 6.07 1.18 15.67-.54 25.98-4.2 1.04-.37 1.8-1.25 2.17-2.52.6-2.08.04-5.43-1.54-7.85-.19-.3-.48-.49-.81-.59l.05-1.63c.51-.09.94-.19 1.22-.32.93-.41 1.22-1.09 1.25-1.62.57-10.33 1.27-21.3 1.99-32.4l19.59-.21c.41 0 .75-.34.74-.76-.03-.41-.36-.74-.79-.74zm-119.99-13.82h-78.62v-3.4h78.62zm-47.99 26.65c.2-.06.4-.12.6-.17l-.03 1.37c-.02.01-.04.02-.05.03-.14.11-.26.24-.35.38-.04.01-.11.02-.16.03zm51.14-31.55h-86.43v-2.83l86.44-.18v3.01zm-51.25-24.2c.06-.21.07-.46.03-.72l35.24-.23 18.88 20.64-93.9.2 20.47-16.21c.77.04 1.49.02 2.11-.11 2.73 1.46 3.16 3.46 3.64 4.19.43.67.94.87 1.57.73.12-.03.29-.09.47-.22.18-.14.48-.47.75-.93.35-.62.64-1.46.6-2.29 5.23 1.01 7.46.88 8.37.54.71-.27.99-.68 1.12-1.02.15-.39.11-.77.03-1.05l.05-.01c.68-.17 1.1-.53 1.29-.89.23-.44.28-1.03-.23-1.75l-.6-.4-.07-.01c.08-.15.14-.3.18-.46zm-4.72-2.69c2.49.29 2.24 1.45-1.85.89l5.51.84c.81 1.83-2.45 1.69-6.71.79l7.45 1.61c1.4 1.95-4.66 1.09-8.41.73l7.15 1.61c.16.56.25 2.21-10.61-.18 2.16 1.12.38 3.83.03 3.91-.9.19-.71-2.39-3.79-4.39.4-.25.82-.67 1.19-1.33.55-.98 1.07-2.63 1.53-4.68.14-.65.28-1.35.42-2.08 1.1.63 2.8 1.67 8.09 2.28zm-16.22-5.94c-.16-.37-.42-.8-.78-1.26-.02-.11-.04-.21-.07-.32.84-3.58 3.03-13 3.5-15.77-2.76-1.88-1.12-4.41-2.48-6.54-.63-.98-1.23-.75-2.52-1.62.45-1.21 2.82-1.84 4.63.32.08-.66.38-4.9.55-8.66.02-.51 1.09-2.17 1.65.29.67 2.94.62 4.84.62 4.84.39-2.67.5-5.3.93-7.49.18-.92.82-.5.85-.51 1.65-.48.63 8.2.63 8.2s1.14-6.21 2.25-6.05c.46.07.88.07.84 1.4-.08 2.33-.49 5.74-.49 5.74s1.39-2.77 1.8-3.3c.7-.9 1.07.49.67 2.35-.46 2.08-.49 2.8-1.43 6.19-.6 2.17-1.12 3.7-1.57 4.52-.7.3-1.28.44-1.78.46-1.17.04-1.77-.44-1.77-.44-.07-.08-.2-.09-.28-.01-.08.07-.09.2-.01.28 0 0 .55.78 1.97 1.11.34.08.74.12 1.19.12-.58 8.03-2.24 25.41-4.77 26.63-3.57 1.73-13.15-3.17-17.11-5.35l6.87-8.45 3.65 2.3c.02.03.04.06.07.08.81.48 1.34.92 1.69 1.34.59.72.64 1.22.64 1.22-.01.11.07.21.18.22s.21-.07.22-.18c-.02.04.13-.58-.34-1.66zm-15.56 5.94c-12.87-10.69-16.87-19.48-12.57-24.12 5.16-4.2 14.05 4.78 22.19 12.29zm10.39-10.4.4-.49c.15-.18.23-.39.28-.61l1.15-.41c.26 1.02.5 2.06.72 3.11zm-1.02-14.02c2.35 3.49 4.05 7.7 5.18 11-.2.87-.39 1.71-.57 2.49-.13-.55-.26-1.11-.4-1.65.34-.38.48-.92.32-1.43-1.19-3.87-2.74-7.49-4.61-10.35.03-.02.05-.05.08-.06zm3.09 10.84-1.82.65c-.5-.46-1-.92-1.5-1.39-1.15-3.36-2.95-7.21-4.3-10-.06-.58-.15-1.26-.24-1.95.31.22.61.44.89.65.85.62 1.6 1.14 2.06 1.33 2.02 2.83 3.66 6.63 4.91 10.71zm-8.34-17.58c2.38 1.92 4.57 4.64 4.44 5.41-.12.73-2.41-1.41-4.53-2.7.11-.21.19-.43.19-.68.01-.59-.04-1.29-.1-2.03zm0 9.39c.06-.05.13-.1.19-.17.78 1.66 1.63 3.51 2.37 5.35-3.01-2.76-6.03-5.41-8.85-7.28 1.43.85 3 1.65 4.7 2.29.66.25 1.17.11 1.59-.19zm-1.4-7.37c-3.26.39-7.11-1.45-8.85-3.54-.3-.26-.51-.58-.69-.92 1.29-.21 2.28-.84 2.72-1.49.02-.04.03-.08.06-.11.31.02.62.05.93.05 2.11.05 3.94-.12 5.55-.42-.13 2.12.29 4.72.28 6.43zm.18 1.49c.01 0 .01-.01.02-.01.26 2.12.84 4.93.16 4.67-6.33-2.42-10.83-6.83-12.13-8.77.33-.31.65-.64.97-1.01.23.41.52.79.88 1.12 2.02 2.38 6.4 4.44 10.1 4zm10.48-30.21c1.92-.69 4.08 1.77.98 3.57.18.54.28 3.06-.27 5.8-.01 0-.03 0-.04.01-.7.28-2.45.76-3.66-.73-.26-.32-.73-.37-1.06-.11-.32.26-.37.73-.11 1.06.93 1.15 2.17 1.57 3.35 1.57.37 0 .74-.04 1.09-.12-.39 1.3-.95 2.56-1.74 3.6-2 2.63-5.58 6.68-14.75 6.55.01-.03.03-.05.05-.08.31-.67.33-1.6-.48-2.7-.07-.09-.14-.18-.22-.28.22-.21.37-.46.46-.73.16-.47.17-1.26-.54-2.2-.43-.56-1.27-1.35-2.47-2.34.31-.09.61-.21.89-.37.11-.06.16-.2.1-.31s-.2-.16-.31-.1c-.47.21-.96.32-1.44.35-.52.04-1.03-.02-1.47-.12-1.03-.25-1.95-.83-2.61-1.55-.69-.76-1.09-1.69-.89-2.58.16-.86.8-1.47 1.64-1.75.79-.26 1.74-.27 2.7.1.78.29 1.36.7 1.79 1.14.67.67 1.01 1.39 1.22 1.83.05.12.19.17.31.12s.17-.19.12-.31c-.09-.23-.21-.53-.37-.86.04-.06.09-.11.12-.17.21-.39.33-.93.2-1.64-.03-.19-.09-.41-.17-.65.19 0 .37-.02.52-.05.71-.15 1.18-.52 1.48-1 .26-.41.4-.95.31-1.64-.02-.16-.05-.32-.11-.51.61-.07 1.07-.3 1.41-.62.46-.43.77-1.06.71-1.98-.01-.11-.02-.23-.04-.36.55-.14.93-.44 1.2-.83.25-.36.42-.85.39-1.5 1.29.22 2.35-.44 2.61-2.08.27.05.51.08.73.1.83.04 1.43-.18 1.86-.5.42-.32.72-.76.85-1.35.53.2.97.33 1.33.37.69.09 1.21-.03 1.62-.25 2.22 3.18 2.71 6.2 2.71 6.2zm-39.43-3.97c.13.02.27.02.41-.03 1.56-.75 3.09-1.03 4.43-1.05 2.68-.05 4.61.83 4.61.83.09.05.19.01.24-.07.05-.09.01-.19-.07-.24 0 0-1.92-1.16-4.74-1.44-.88-.09-1.84-.07-2.85.08.87-.79 1.78-1.39 2.66-1.82 2.65-1.27 4.97-1.2 4.97-1.2.1.01.18-.06.19-.16s-.06-.18-.16-.19c0 0-2.44-.34-5.36.7-1.23.44-2.53 1.14-3.79 2.19 3.26-10.84 28.62-19.8 35.93-3.01.15 2.12-.47 2.44-2.8 1.43-.01-.01-.01-.03-.02-.04-1.14-1.54-2.72-3.01-5.09-3.93-1.65-.64-3.67-1.03-6.19-.97-.1 0-.18.08-.18.17 0 .1.07.18.17.18 2.41.17 4.31.7 5.83 1.46 1.96.98 3.23 2.35 4.11 3.76.21 1.52-.9 1.81-3.55.67.46 2.51-.12 3.47-2.18 2-.89-1.65-2.24-3.32-4.41-4.7-1.55-.98-3.53-1.82-6.07-2.37-.06-.02-.13.02-.14.08-.02.06.02.13.09.14 2.45.68 4.33 1.6 5.78 2.65 1.73 1.24 2.84 2.66 3.59 4.08 1.34 2.8 1.11 3.86-1.57 2.76 1.76 3.36.66 4.01-2.49 2.71 1.78 2.74 1.81 4.07-.15 3.78-.03-.02-.05-.04-.09-.06-1.78-.59-3.15-1.51-4.19-2.48-2.08-1.95-2.84-4.05-2.84-4.05-.03-.1-.13-.16-.24-.13-.1.03-.16.13-.13.23 0 0 .53 2.31 2.47 4.61.94 1.12 2.23 2.21 3.91 3.07.2.44.31.8.38 1.12-.4-.38-.9-.74-1.53-1.03-1.16-.53-2.36-.6-3.35-.31-1.23.36-2.14 1.28-2.4 2.53-.18.99.12 2.03.79 2.91.81 1.07 2.15 1.9 3.64 2.15.06.01.12.01.18.02 3.39 2.59 4.46 3.94 3.36 4.12-.09-.06-.2-.11-.31-.12-1.76-.11-3.24-.66-4.44-1.34-2.35-1.34-3.61-3.15-3.61-3.15-.05-.08-.16-.11-.24-.06s-.11.16-.06.24c0 0 1.11 2.04 3.41 3.74 1.24.91 2.83 1.7 4.76 2.05.06.01.12-.01.19-.01 1.5 1.45 1.43 2.3-.11 2.57.41.87-.72 1.68-2.31 1.73-.06-.02-.12-.05-.19-.06-1.73-.11-3.17-.6-4.33-1.22-2.34-1.26-3.54-2.97-3.54-2.97-.05-.08-.16-.11-.24-.06s-.11.16-.06.24c0 0 1.05 1.95 3.36 3.57.95.67 2.12 1.26 3.49 1.65-11.51 13.48-27.83-18.61-16.93-27.95zm13.7 32.17c.72-.27 1.43-.65 2.14-1.15 1.03 1.44 3.38 3.87 6.73 6.1-.23-.13-.45-.26-.68-.38-3.61-1.94-6.85-2.23-9.35-.19-.05.04-.11.09-.15.14-2.06 2.23-2.63 5.24-1.47 8.9 1.52 4.74 6.16 10.74 14.18 17.4.31.26.71.38 1.1.34s.77-.24 1.02-.55l.45-.55c2.45 1.36 7.4 3.95 11.66 5.24.64.19 1.26.34 1.86.46l-19.31 15.29c-.5.4-.7 1.07-.48 1.67.21.6.78 1.01 1.42 1.01l2.74-.01c-4.76 3.08-9.14 6.47-13.58 9.06-5.76-44.21-2.99-57.1 1.72-62.78zm-3.94 57.25c.22 1.85.46 3.75.72 5.72.06.5.38.93.83 1.15s.98.2 1.42-.05c.92-.54 1.85-1.12 2.77-1.72 1.18.78 2.69 1.44 4.73 1.94.01 0 .02 0 .03.01h-27.92l8.98-7.21zm-18.34 5.86v-19.77c.05-.03.1-.04.15-.07l5.58-3.72v18.96zm7.23-5.8v-18.76l1.37-.91v18.57zm-7.71-34.68c3.06-4.61 7.95-6.2 10.21-4.01l-.24 16.62-10.18 6.78zm-1.02 41.69-.39.31c-.05.04-.09.1-.14.15-.06.06-.12.11-.16.18-.04.06-.06.13-.1.19-.03.07-.08.14-.1.21-.02.08-.03.16-.04.24-.01.06-.03.12-.03.19v4.07c0 .43.18.81.46 1.08v1.44c0 .1.01.19.03.28h-.91v-48.9h.88l-.19 18.24c-.01.51.26.98.68 1.26v21.06zm.55 5.54v-4.07h43.29v4.07zm13.69 21.5v-3.69h4.62v3.69zm23.78 14.99v3.69h-34.03v-3.69zm-17.66-1.5v-30.96h3.69v30.96zm27.91-17.18v3.69h-22.72v-3.67l.01-.02zm-17.67-12.96c.7-.55 2.93-.22 1.84 1.74l-6.9 8.81v-4.57zm-5.05 3.66v-4.48h3.56v.28zm8.48-3.87c-.1-.23-.24-.43-.41-.61h.67v12.29h-3.69v-4.93l3.03-3.86c.05-.06.09-.13.13-.2.64-1.17.55-2.07.27-2.69zm-4.93 8.65v3.02h-2.37zm-28.08-10.76v-1.02h40.89v1.02zm34.77 5.07v-3.57h6.11c.83 0 1.5-.67 1.5-1.5v-1.02h.44c.39 0 .75-.15 1.02-.4.24-.08.47-.22.64-.42l4.54-5.2c.75-.02 1.52-.05 2.31-.08.1 0 .2.03.27.1s.12.17.12.27c.09 3.78.19 7.77.31 11.65zm9.51-12.02c.87-.01 1.77-.02 2.7-.04l-2.66 3.04v-2.64c.01-.13-.01-.25-.04-.36zm10.08 28.29c-.58-6.93-.91-18.27-1.13-28.13-.01-.5-.22-.98-.59-1.33s-.86-.53-1.36-.51c-14.88.59-21.73-.28-25.34-2.33 2.92-1.97 5.87-4.13 8.99-6.17v1.28c0 .83.67 1.5 1.5 1.5h3.17v3.4c0 .83.67 1.5 1.5 1.5h29.15l-.02 28.31c-2.46 1.59-11.67 2.82-15.87 2.48zm10.95 1.19c.01.01.02.02.03.03.02 0 .08.05.16.14.13.08.26.17.39.25.16.1.33.2.49.3-.48.14-1.25.35-1.92.44-1.86.26-4.07.36-5 .08-.03-.01-.06-.01-.1-.02-.06-.34-.11-.67-.17-1.01 1.85-.14 3.84-.4 5.65-.72-.03.03-.07.06-.1.1.22.11.41.23.57.41zm6.55 11.16c-4.09.07-8.85-.53-13.76-2.11-.06-.02-.22-1.01-.22-1.9 0-.01.01-.02.01-.02 0-.05-.01-.13-.01-.19 0-.12.01-.23.02-.34 4.28 2.14 9.59 2.95 14.21 2.86-.09.39-.29 1.55-.25 1.7zm-.85-3.19c-4.13-.04-8.69-.84-12.44-2.72-.2-.1-.42-.15-.63-.15.13-.86.43-1.78 1.11-2.42 1.94.58 8.86-.08 8.96-1.27.25.05.52.11.78.16-.51.56-.97 1.24-1.38 2.06-.18.37-.03.82.34 1 .1.05.21.08.32.08.28 0 .55-.15.68-.42.52-1.06 1.1-1.82 1.79-2.33 0 0 0-.01.01-.01.16.04.33.08.49.11-.51.61-.95 1.35-1.33 2.26-.16.38.03.82.41.98.09.04.19.06.28.06.3 0 .58-.17.69-.46.44-1.07.97-1.87 1.62-2.42 1.12.28 2.25.57 3.32.87-1.15.93-2.67 2.47-3.52 4.6-.49.01-.99.02-1.5.02zm7.23-4.34c.92.3 2.39.71 3.47 1.07.34.23-.26.96-.5 1.16-.36.29-.94.55-1.5.79-1.42.59-3.33 1-5.5 1.2 1.39-2.78 4.03-4.22 4.03-4.22zm4.43 4.33c-.74 1.59-4.39 2.87-9.41 3.14.03-.14.15-1.18.37-1.71 5.26-.36 9.33-1.93 9.42-4.05 0 0 .31 1.14-.38 2.62zm2.74-8.96s1.55 1.03-.32 2.82c-.63.6-1.57 1.12-2.72 1.52-.69-.24-1.56-.5-2.35-.74 3.03-.64 5.2-1.98 5.39-3.6zm-1.72-.62c.03-.07.07-.15.12-.22-.05.07-.09.14-.12.22.11.03.21.06.32.08-.05.12-.08.24-.09.37-.06.51-.58.88-1.24 1.25-1.11.63-2.66 1.08-4.42 1.3 1.03-2.35 3.21-3.45 3.21-3.45.71.13 1.54.29 2.22.45zm-9.87-2.63c-.29.37-.56.8-.8 1.3-.18.37-.03.82.34 1 .11.05.22.08.33.08.28 0 .54-.15.67-.42.34-.7.72-1.2 1.16-1.57.32.08.63.15.96.24-.33.43-.62.93-.86 1.52-.16.38.02.82.4.98.09.04.19.06.29.06.29 0 .57-.17.69-.46.31-.74.67-1.27 1.1-1.66.55.15 1.1.31 1.63.47-1.01.76-2.45 2.15-3.12 4.23-.15.01-.29.02-.44.02-.42.01-.86-.02-1.29-.04-2.25-.59-4.61-1.17-6.6-1.54-.09-.02-.18-.02-.27-.02-.46-.21-.92-.43-1.36-.68-.05-.03-.1-.04-.15-.07.11-.03.23-.05.34-.08 1.85-.43 3.36-.96 4.19-1.5.4-.26.64-.69.67-1.16.81-.18 1.41-.45 1.44-.82.22.02.46.08.68.12zm1.59-5.45c-.6.33-1.99.85-3.68 1.35l.02-23.62h6.75zm2.65-8.22 1.95-14.05h30.41v13.71zm35.36 35c-.87.87-2.04 1.36-3.27 1.36-14.09 0-55.53 0-55.53 0v-3.23h55.7c.42 0 .82-.17 1.12-.47s.46-.7.46-1.12v-45.59h2.81c.01 9.89.04 35.3.05 45.78.01 1.22-.47 2.4-1.34 3.27zm111.05-104.76c.38-1.35.74-2.72 1.09-4.1l.12 3.83c-.38.1-.79.18-1.21.27zm3.75-63.2c2.2 24.25-.3 46.28-5.74 64.73-3.44-1.36-7.88-2.25-13.32-2.68 1.99-8.15 6.05-24.85 7.01-37.77 1.31 0 2.52.23 3.54.55 2.13.67 3.48 1.68 3.48 1.68.05.04.12.03.17-.02.04-.05.03-.12-.02-.16 0 0-1.29-1.17-3.41-2.07-1.05-.44-2.29-.8-3.68-.94-.02-.14-.04-.28-.06-.42.88-.17 1.73-.23 2.48-.22 1.51.02 2.59.26 2.59.26.06.02.13-.02.15-.08s-.02-.13-.08-.15c0 0-1.07-.41-2.6-.65-.8-.13-1.71-.2-2.68-.15-.9-5.77-1.92-10.71-3.04-14.98-.11-.42-.41-2.06-.62-3.7-.16-1.19-.24-2.46-.31-2.91-1.21-7.21-1-12.42.08-15.97.72-2.36 1.82-3.92 3.17-4.71 1.22-.71 2.62-.75 3.98-.26 2.36.84 4.57 3.12 5.91 6.33.15.36.43.64.77.79 1.02 3.86 1.7 8.6 2.23 13.5zm-11.73 83.72c-.2 5.48-1.51 5.16-1.99 3.61-.49-1.51-.4-4.3-.21-7.17-1.37 4.85-1.59 9.52-2.6 9.89-1.95.7-1.33-4.23.21-10.42-.78 2.47-2.05 5.49-2.55 7.43-.79 3.06-1.36 2.39-1.82 2.68-.57.36-.72-.26-.63-1.36-.04.02-.08.03-.12.06.02-.01.04-.02.06-.03l.06-.03c.24-3.02 2.27-9.68 2.27-9.68-.8 1.35-3.6 6.9-3.91 8-.39 1.37-2.82 3.02-1.89-.89.13-.55 1.05-3.62 1.54-4.92.81-2.16 1.52-4.3 1.3-6.19-2.74 3.86-6.34 4.23-6.76 2.52 2.89-2.6 6.66-8.58 9.93-10.94l1.05-2.62c3.02.29 5.7.74 8.04 1.35l-1.45 3.83c.33 7.52-.42 11.75-.53 14.88zm10.08-98.59c-2.55-6.09-8.01-9.13-12.03-6.78s-6.58 10.1-3.34 25.59c-11.04-24.48 9.75-41.84 15.37-18.81zm-36.39-12.14c0-.01 0-.02 0-.03.14-.07.29-.13.43-.19.76 1.92 1.37 3.85 2.03 7.07.1.5.45.92.93 1.1s1.02.11 1.43-.19c2.94-2.16 5.6-3.93 7.6-5.86 2.1-2.04 3.5-4.28 3.88-7.23.85.26 1.72.56 2.58.92-2.57 5.82-8.85 11.72-16.6 15.6-1.81-3.15-3.25-6.68-2.28-11.19zm-24.78-37.92c1.88-2.8 3.84-4.66 6.14-6.73 7.06-6.35 16.14-7.34 23.28-3.77 8.63 4.31 12.07 10.7 7.82 34.14l-2.22 1.02c-1.19-2.16-2.04-3.86-3.84-5.4.18-.15.35-.3.51-.47 1.3-1.36 2.17-3.41 2.34-4.09.4-1.7.19-3.33-.43-4.5-.58-1.09-1.52-1.81-2.65-1.98-1.1-.14-2.23.24-3.12 1.08-1 .95-1.71 2.45-1.7 4.22.01.4.09 1.34.2 2.29-.33.49-.76.88-1.3 1.04-.03-1.33-.56-3.7-1.3-5.49-1.26-3.07-3.78-5.38-5.75-6.49-2.21-1.25-4.7-2.15-6.63-1.62-5.42 1.5-4.78 3.67-11.8 8.79-4.2-1.82-2.58-7.52.45-12.04zm7.54 31.94c1.73-.5 4.27-1.91 5.72-3.36 0 0 .01 3.81-3.95 5.78-.62-.77-1.23-1.59-1.77-2.42zm6.04 6.29c-.97-.45-2.3-1.61-3.61-3.09 4.38-2.29 4.35-6.57 4.35-6.57 0-.41-.27-.77-.67-.92s-.86-.06-1.16.24c-1.41 1.4-3.93 2.79-5.5 3.16-.42-.72-.79-1.44-1.07-2.12-1.37.6-6.03 1.99-3.91-2.43l1.08-3.91c-1.57-3.19-2.53-6.21-3.14-9.14.17-.05.34-.11.49-.22 3.6-2.62 5.24-4.49 6.67-5.9 1.22-1.2 2.27-2 4.65-2.66 1.6-.44 3.65.44 5.49 1.48 1.75.99 3.99 3.03 5.1 5.75.66 1.62 1.16 3.76 1.18 4.96.01.47.24.9.61 1.18.38.28.86.36 1.31.23.26-.08.81-.23 1.19-.39.04.19.08.35.11.44.05.17.23.26.4.21s.26-.23.21-.4c-.07-.25-.1-.99-.13-1.81-.04-1.09-.04-2.32-.01-2.78.07-1.14.52-2.11 1.12-2.82.66-.76 1.54-1.2 2.4-1.05.86.12 1.48.82 1.83 1.74.33.85.44 1.91.25 3.03-.1.61-.75 2.46-1.79 3.75-.6.75-1.32 1.33-2.18 1.28-.17-.02-.33.11-.35.28s.11.33.28.35c.34.05.66.02.98-.07 1.97 1.52 2.76 3.19 3.95 5.35.38.69 1.23.97 1.94.64l1.65-.76c.74 2.42 1.49 5.04 2.35 6.66-.49 5.67-5.19 8.3-10.95 12.54-.97-4.72-1.83-6.75-3.19-9.9.7-.62 1.67-1.56 2.41-2.59.73-1.02 1.24-2.1 1.06-3.03-.02-.13-.14-.23-.27-.21s-.23.14-.21.27c.04.8-.47 1.7-1.27 2.41-4.09 3.63-11.98 7.59-13.65 6.82zm7.42 1.51c.08-.06.15-.13.2-.21.62-.32 1.26-.63 1.93-.92-.71 4.85 1.1 8.68 3 11.83.14.23.39.36.64.36.11 0 .22-.02.32-.07 8.34-4.01 15.16-10.36 17.94-16.65 2.33 1.07 4.61 2.39 6.58 3.73-.68.07-1.36.22-2.01.48-2.77 1.07-5.38 3.85-6.95 7.93-1.91 4.96-2.18 11.51.51 19.34.12.36.81 2.06 1.16 2.7.76 1.38 1.66 3.48 1.78 3.9 1.21 4.54 2.29 9.85 3.23 16.15-.84 12.94-5.02 30.06-7.03 38.32-.1.43-.02.88.24 1.23.23.31.56.51.94.59l-.32.78c-13.74-.07-29.35-1.93-29.66-4.65l-.93-54.09c.15-.15.24-.35.23-.58-1.01-14.49 2.13-26.05 8.2-30.17zm-5.52 4.07c-2.62 4.58-4.13 11.09-4.34 18.88-1.19-8.57.45-14.63 4.34-18.88zm-8.44 81.69c1.08-4.44 2.36-23.97 4.23-43.25.28 16.17.73 42.34.73 42.34 0 .05 0 .1.01.15.05.43.24.86.59 1.28 0 .05 0 .1.01.14-1.73-.27-3.57-.5-5.57-.66zm6.45 23.22c.02.02.04.03.05.05-.03-.03-.06-.06-.1-.09-.22 1.08-.54 1.64-.98 1.13-.36-.41-1.1.07-1-3.09.06-2-.32-5.25-.37-7.84-.25 6.37-1.04 11.28-2.71 10.06-.87-.63.24-5.18.27-10.22-.62 2.81-1.32 5.51-2.21 6.83-.89 1.35-2.25 1.3-.9-4.02.77-3.03 1.23-7.3 3.65-14.42l.07-.39c1.19.13 2.32.29 3.4.47.26 5.87.69 11.72 1.2 17.55-.08 1.49-.2 2.94-.41 3.94zm.49-2.55c.09 1.02.18 2.03.28 3.05-.17-.95-.25-1.99-.28-3.05zm6.16 78.75-.03.59-9.82 2.19c-.4.09-.66.49-.57.9.08.35.39.59.73.59.05 0 .11-.01.16-.02l10.18-2.27c.11.07.23.14.37.19 1.46.45 3.22.72 5.09.68 1.63-.04 3.35-.31 5.03-.89.09-.03.17-.08.26-.13-.04.09-.08.19-.14.28.14.31.28.62.4.94-.09.1-.17.23-.2.38-.38 2.31-2.99 3.12-10.62 4.38-11 1.81-17.72.88-19.45-2.7-.01-.01-.02-.02-.02-.03 5.71-2.79 12.55-3.9 18.63-5.08zm1.48.46.17-2.95c.4.1.83.2 1.32.28 2.37.38 5.7.49 8.07.31l-.39 2.44c-3.14 1.08-6.41.97-8.85.29-.07-.16-.18-.29-.32-.37zm10.81 4.86c.23 1.43.02 2.59-.93 2.89-14.42 4.57-30.07 5.61-30.44-1.18 1.84 2.09 5.32 3.15 10.44 3.15 2.76 0 6-.3 9.71-.91 5.92-.97 9.73-1.72 11.22-3.95zm18.86 9.62c.11 1.71-.32 3.15-1.4 3.54-15.04 5.33-28.48 6.57-31.14.08 1.67 2.04 4.76 3.06 9.32 3.06 2.89 0 6.37-.41 10.45-1.22 7.16-1.43 11.19-3.13 12.77-5.46zm-.53-2.56c-.09.11-.17.23-.19.38-.34 2.59-4.26 4.54-12.35 6.15-11.58 2.3-18.05 1.25-19.22-3.14 6.26-3.17 12.57-4.13 19.17-5.67-.06-.2-.09-.41-.09-.62v-.32l.08.77c.02.17.07.33.15.49l-11.84 3.37c-.4.11-.63.53-.52.93.09.33.39.54.72.54.07 0 .14-.01.21-.03l13.26-3.78c.96.22 1.98.35 3.07.39 1.76.06 3.69-.13 5.79-.55.41-.08.74-.34.96-.68.31.56.59 1.16.8 1.77zm-11.42-5.58c1.52.41 3.63.66 5.67.74 1.34.05 2.65.02 3.76-.07l-.08 2.35c-3.24.66-6.05.71-8.41.12-.02 0-.03-.01-.05-.01-.19-.05-.39-.09-.58-.15zm11.9-1.53c-.07 1.25-11.92 1.09-13.37-.85l-10.6-88.73c1.53.3 3.32.51 5.37.54.41-.01.74-.36.73-.77s-.36-.74-.77-.73c-2.48.18-4.58.06-6.31-.2-2.82-.44-4.61-1.26-5.34-1.79-.13-.09-.24-.21-.29-.26.02-.04.02-.09 0-.14-.04-.09-.15-.13-.23-.09-.12.05-.17.15-.13.29.02.09.12.24.3.42.54.52 1.95 1.39 4.25 2.11.72.22 1.52.43 2.41.61-.06 17.71 8.47 67.43 6.19 80.48-2.05.92-12.04.58-12.82-.86.93-31.06-5.05-61.83-6.46-93.06.75.38 1.72.74 2.91 1.05 5.47 1.46 15.65 2.38 25.16 2.48-3.09 2.7-6.52 7.94-9.19 10.34-.41.37-.58.93-.46 1.47.26 1.09 1.08 1.85 2.33 2.07.95.16 2.33-.09 3.77-.93-.18.54-.39 1.1-.59 1.65-.5 1.35-1.46 4.53-1.59 5.1-.3 1.27-.28 2.11-.16 2.62.2.85.68 1.27 1.17 1.49.52.23 1.18.24 1.85-.1.2-.1.41-.25.62-.42v.12c.05 1.1.58 1.7 1.03 1.94.44.24 1.04.37 1.77-.04.17-.04.56-.15.81-.31.13-.08.28-.19.44-.36.28.51.66.83 1.07 1.01.47.2 1.03.26 1.7.02.48-.17 1.04-.64 1.41-1.56.08-.2.16-.45.23-.72.06.07.13.13.19.18.34.28.72.42 1.08.46.63.06 1.48-.14 2.07-1.33.36-.72.71-2.17.8-4.7.11-3.11.84-7.3.55-14.67 0 0 .67-1.77 1.38-3.67.7.22 1.38.44 2.01.69.15.06.31.09.48.09-1.01 29.31-4.02 67.22-5.77 99.06z" fill="#010101" fill-rule="evenodd"/><path clip-rule="evenodd" d="m152.23 198.18c.15.18.36.27.58.27.17 0 .34-.06.48-.17.32-.27.36-.74.09-1.06l-9.48-11.34c-.26-.32-.74-.36-1.06-.09s-.36.74-.09 1.06z" fill="#010101" fill-rule="evenodd"/><path clip-rule="evenodd" d="m107.95 107.48c-2.11 2.21-4.9 3.95-8.36 4.6-.7.13-1.22.74-1.23 1.45s.48 1.34 1.18 1.49c6.84 1.48 15.16-2.29 19.91-5.75.87 1.4 2.16 2.65 3.8 3.68 3.24 2.05 7.87 3.25 12.95 3.02 5.41-.25 10.15-2.06 13.18-4.64 1.72-1.47 2.91-3.18 3.44-5.01 2.1.3 4.35.41 6.68.3 6.65-.3 12.45-2.31 15.97-5.08 2.67-2.09 4.08-4.65 3.95-7.28-.09-1.91-.97-3.69-2.54-5.23-1.58-1.56-3.9-2.88-6.72-3.81 1.22-1.41 1.89-2.98 1.93-4.63.06-2.46-1.35-5.35-3.99-7.82-3.65-3.42-9.65-6.08-16.64-5.55-4.38.33-7.26.49-11.14 3.29-3.26-1.7-7.62-2.64-12.35-2.4-5.85.3-10.92 2.35-13.99 5.2-2.27 2.1-3.47 4.64-3.33 7.28.09 1.6.66 3.11 1.66 4.46-4.99.81-9.24 2.67-11.99 5.04-2.47 2.13-3.79 4.7-3.66 7.36.1 2.14 1.13 4.14 2.92 5.82 1.96 1.82 4.87 3.31 8.37 4.21zm7.6-21.32c-2.02-1.55-3.26-3.5-3.38-5.68-.3-5.54 6.82-10.42 15.9-10.89 4.84-.25 9.27.81 12.39 2.69 4-3.15 6.78-3.25 11.13-3.58 10.85-.82 19.14 6.55 19.01 11.84-.05 2.03-1.34 3.89-3.49 5.39 6.25 1.36 10.64 4.53 10.82 8.4.26 5.48-8.03 10.32-18.5 10.8-2.77.12-5.41-.07-7.81-.52-.4 5.15-7.1 9.49-15.48 9.87-7.89.36-14.63-2.92-16.14-7.55-4.03 3.49-12.94 8.19-20.13 6.63 4.79-.89 8.42-3.7 10.83-7.02-7.12-1.18-12.32-4.74-12.53-9.17-.27-5.59 7.45-10.51 17.38-11.21z" fill="#010101" fill-rule="evenodd"/><path clip-rule="evenodd" d="m79.71 156.28c-.22.06-.39.22-.5.44-.17.35-.15.85.05 1.33.28.69.83 1.14 1.33 1.14.08 0 .15-.01.23-.03.22-.06.39-.22.5-.44.17-.35.15-.85-.05-1.33-.33-.8-1-1.28-1.56-1.11zm.96 1.35c.15.37.13.66.06.8-.04.08-.08.09-.09.1-.18.05-.56-.21-.78-.73-.15-.37-.13-.66-.06-.8.04-.08.08-.09.09-.1.01 0 .03-.01.05-.01.19.01.53.26.73.74z" fill="#010101" fill-rule="evenodd"/><path clip-rule="evenodd" d="m80.83 160.13c-.17.35-.15.85.05 1.33.29.69.83 1.14 1.33 1.14.08 0 .15-.01.23-.03.22-.06.39-.22.5-.44.17-.35.15-.85-.05-1.33-.33-.79-1-1.27-1.56-1.1-.22.05-.4.21-.5.43zm.58.28c.04-.08.08-.09.09-.1.01 0 .03-.01.04-.01.19 0 .54.26.73.73.15.37.13.66.06.8-.04.08-.08.09-.09.1-.17.05-.56-.22-.78-.73-.14-.36-.11-.66-.05-.79z" fill="#010101" fill-rule="evenodd"/><path clip-rule="evenodd" d="m82.71 163.02c-.22.06-.39.22-.5.44-.17.35-.15.85.05 1.33.29.69.83 1.14 1.33 1.14.08 0 .15-.01.23-.03.22-.06.39-.22.5-.44.17-.35.15-.85-.05-1.33-.32-.8-1-1.28-1.56-1.11zm.96 1.35c.15.37.13.66.06.8-.04.08-.08.09-.1.1-.17.05-.56-.22-.78-.73-.15-.37-.13-.66-.06-.8.04-.08.08-.09.09-.1.01 0 .03-.01.04-.01.21.01.56.27.75.74z" fill="#010101" fill-rule="evenodd"/><path clip-rule="evenodd" d="m81.59 118.9c-.04-.41-.41-.71-.82-.67-1.38.14-2.75 1.03-3.66 2.36-.75 1.1-1.04 2.27-.78 3.21.09.33.39.55.72.55.07 0 .13-.01.2-.03.4-.11.64-.52.53-.92-.13-.49.09-1.27.57-1.97.66-.96 1.65-1.62 2.58-1.71.4-.04.7-.41.66-.82z" fill="#010101" fill-rule="evenodd"/><path clip-rule="evenodd" d="m82.61 121.33c-.03-.27-.28-.48-.55-.45-.78.08-1.64.69-2.29 1.64-.58.85-.83 1.72-.67 2.31.06.22.26.37.48.37.04 0 .09-.01.13-.02.27-.07.42-.35.35-.61-.07-.25.1-.85.53-1.49.06-.09.14-.17.2-.26 0 .05-.01.11 0 .16.12.62.75 1.03 1.41.91s1.1-.73.98-1.36c-.07-.39-.36-.68-.72-.82.11-.1.17-.24.15-.38z" fill="#010101" fill-rule="evenodd"/><path clip-rule="evenodd" d="m67.25 133.32c-.76.03-1.38-.06-1.91-.19-.25-.07-.47-.15-.67-.24-.34-.15-.59-.35-.79-.56-.14-.15-.25-.3-.31-.47-.19-.5 0-1.03.57-1.22.24-.08.51-.14.84-.12.13.02.25-.06.27-.19s-.06-.25-.19-.27c-1.09-.31-1.86.07-2.27.61-.14.19-.23.42-.28.65-.06.28-.04.57.04.87.09.31.26.63.52.9.29.3.7.57 1.24.73.36.11.77.18 1.23.19.52 0 1.1-.06 1.76-.22.13-.02.22-.14.2-.26 0-.13-.12-.22-.25-.21z" fill="#010101" fill-rule="evenodd"/></svg>