<svg enable-background="new 0 0 297.64 297.64" viewBox="0 0 297.64 297.64" xmlns="http://www.w3.org/2000/svg"><g clip-rule="evenodd" fill-rule="evenodd"><path d="m278.05 121.19c-6.38 1.47-13.94 1.72-22.03 2-.47-7.29-12.91-10.29-28.81-17.76-15.4-10.31-19.86-19.8-22.78-18.74-4.15 3.49-4.55 10.83 2.42 22.42-33.02-.98-62.83-6.99-65.71-3.55-3.94 9.28 14.91 14.51 51.51 16.59-.34 2.27-.55 4.31-.4 5.73-27.15.64-57.57-1.73-58.08.11-3.38 12.25 18.49 14.94 58.16 12.02-.64 2.35-.57 3.95.08 4.94-16.92.97-54.99 2.51-52.08 3.83 1.27 8.18 6.91 10.05 26.75 8.19 7.34-.69 10.44 2.14 26.01-.71l.66 3.18c-15.71 2.72-42.14 6.57-41.24 8.22.58 6.4 12.18 9.95 28.12 4.27 61.16 1.38 69.83-5.21 76.34-13.11 6.31.44 13.71.53 22.17.55z" fill="#ffe7cc"/><path d="m80.4 131.65c2.73-3.4 44.17-2.58 42.45-7.61.47-8.57-42.7-.96-43.16-6.37 16.96-3.06 34.64-4.94 32.05-10.1.89-4.89-31.1 1.09-42.84 1.87-17.23 1.14-29.05 3.64-32.84 12.22l-20.78-1.28-.15 30.5 21.5-.33c1.55 11.73 20.69 12.59 29.96 29.7 6.39-1.79 4.8-14.07-5.39-21.35 23.03.03 56.51 6.17 58.19-.42 2.19-8.6-40.57-6.06-38.16-11.47-.58-4.42 43.75 2.28 46.55-4.47 2.84-10.58-50.33-4.79-47.38-10.89z" fill="#ffe7cc"/><path d="m220.62 117.46c-3.81-1.33-7.81-4.12-13.58-8.33-14.51 1.9 7.76 22.6 26.64 25.39-12.38-6.71-13.06-17.06-13.06-17.06z" fill="#fdd5b4"/><path d="m219.37 162.15c6.47-11.07 7.86-14.69 20.24-21.4-18.16-.96-34.75 19.51-20.24 21.4z" fill="#fdd5b4"/><g fill="#010101"><path d="m125.29 136.4c-5.9-2.41-18.25-2.86-28.58-3.33-4.5-.21-8.6-.43-11.52-.88.89-.15 1.88-.28 2.97-.41 9.37-1.1 24.76-1.66 31.69-3.4 1.89-.48 3.25-1.11 3.96-1.75.96-.86 1.27-1.83 1.05-2.85-.04-1.91-1.26-3.47-3.69-4.46-3.9-1.6-11.71-1.77-19.58-1.66-3.8.06-7.61.16-10.96.15 8.21-1.4 15.53-2.75 19.39-4.56 3.43-1.61 4.6-3.77 3.76-6.05-.03-.84-.41-1.57-1.16-2.18-.68-.55-1.91-1.02-3.62-1.22-8.18-.96-30.74 2.99-40.22 3.62-10.63.71-19.26 1.96-25.3 4.72-3.91 1.79-6.81 4.2-8.6 7.42 0 0-19.45-1.2-19.45-1.2-.55-.03-1.09.16-1.49.54s-.63.9-.64 1.46l-.15 30.51c0 .54.21 1.06.59 1.44s.9.59 1.44.58l19.85-.31c1.21 4.29 4.62 7.31 9.07 10.24 6.51 4.27 15.38 8.47 20.75 18.39.45.82 1.4 1.23 2.3.98 3.41-.95 5.31-4.03 5.26-8.15-.05-3.88-1.93-8.78-5.8-13.02 15.24.53 33.31 2.88 43.92 2.48 3.37-.13 6.05-.56 7.78-1.31 1.73-.76 2.71-1.88 3.04-3.2.61-2.41-.65-4.52-3.75-5.98-4.79-2.25-14.77-3.17-23.11-4.08-3.68-.4-7.01-.81-9.35-1.37 1.46-.13 3.29-.17 5.38-.17 9.19.02 22.97.93 31.09-.14 2.34-.31 4.26-.8 5.57-1.47 1.28-.65 2.09-1.51 2.48-2.45.03-.08.06-.17.09-.25.74-2.85-.79-5.18-4.46-6.68zm2.51 6.15c-2.8 6.75-47.12.04-46.55 4.47-2.42 5.41 40.34 2.87 38.16 11.47-1.63 6.4-33.23.79-56.14.43-.79-.47-1.68-.95-2.57-1.36-1.36-.63-2.71-1.11-3.7-1.14-.11-.01-.2.07-.21.18s.07.2.18.21c.92.14 2.13.74 3.34 1.48.31.19.62.4.93.61-.01 0-.01 0-.02 0 10.19 7.28 11.77 19.56 5.39 21.35-8.6-15.88-25.7-17.77-29.35-27.34v-.01c0-.18-.07-.34-.18-.47-.07-.22-.14-.45-.2-.68-.35-1.82-.64-5.76-.25-8.75.03-.15-.07-.28-.22-.31s-.29.07-.31.22c-.57 2.44-.73 5.54-.68 7.66l-20.28.31.15-30.5 20.78 1.28c3.78-8.58 15.61-11.08 32.84-12.22 11.74-.78 43.73-6.77 42.84-1.87 2.59 5.16-15.1 7.05-32.05 10.1.45 5.41 43.63-2.19 43.16 6.37 1.72 5.03-39.72 4.21-42.45 7.61-2.96 6.1 50.21.31 47.39 10.9z"/><path d="m280.05 121.13c-.02-.6-.3-1.16-.78-1.53s-1.09-.5-1.68-.37c-5.82 1.34-12.63 1.64-19.93 1.89-.83-2.63-3-4.86-6.37-6.9-5.23-3.17-13.53-6.06-23.09-10.54-10.57-7.1-15.88-13.8-19.11-16.82-1.08-1.02-2.02-1.67-2.81-1.98-.92-.36-1.76-.36-2.55-.07-.22.08-.43.2-.6.35-2.51 2.11-3.98 5.35-3.67 9.84.22 3.25 1.41 7.24 3.88 11.98-25.07-1.01-47.76-4.65-57.48-4.47-1.75.03-3.12.19-4.09.47-1.05.3-1.75.78-2.18 1.29-.13.15-.23.32-.31.5-1.97 4.64.15 8.76 6.9 11.86 7.95 3.65 23.01 6.09 44.18 7.39-.07.67-.13 1.3-.16 1.89-21.18.39-43.85-.93-52.5-.59-2.24.09-3.72.38-4.29.69-.75.4-1.06.96-1.19 1.44-.69 2.5-.5 4.68.42 6.57 1.27 2.62 4.07 4.75 8.47 6.23 9.18 3.07 25.94 3.5 48.8 1.94-.02.31-.03.61-.02.89-16.12.88-45.82 2.2-49.84 3.37-1.41.41-1.78 1.38-1.86 1.78-.08.41-.1 1.01.27 1.56.5 2.6 1.47 4.62 3.05 6.15 1.68 1.63 4.1 2.74 7.63 3.28 4.13.63 9.96.5 18.12-.26 4.83-.45 7.83.6 13.71.58-12.6 2.09-26.02 4.36-28.84 5.75-1.59.78-1.8 1.93-1.6 2.76.37 3.13 2.72 5.85 6.83 7.38 5.24 1.95 13.6 1.99 23.59-1.5 24.41.54 40.48-.2 51.38-1.77 16.28-2.35 21.52-6.6 25.53-11.29 6.12.38 13.22.46 21.28.49.54 0 1.06-.22 1.44-.61s.58-.91.57-1.46zm-22.24 37.74c0-.06.01-.11.01-.17.08-2.11-.06-5.51-.67-8.12-.03-.15-.17-.24-.31-.22-.15.03-.24.17-.22.31.4 3.04.09 7.08-.27 8.86 0 .01-.01.02-.01.04-6.49 7.56-16.51 13.69-75.71 12.36-15.94 5.68-27.54 2.13-28.12-4.27-.89-1.62 24.85-5.39 40.63-8.11.25.54.55 1.05.89 1.53.15.23.46.3.69.15s.3-.46.15-.69c-.57-1-.9-2.13-1.11-3.27-.14-.77-.2-1.55-.24-2.31-.05-1.04-.04-2.04.05-2.92.12-1.23.33-2.22.63-2.74.15-.23.08-.54-.15-.69s-.54-.08-.69.15c-.47.64-.97 2.01-1.21 3.72-.11.79-.17 1.66-.13 2.55.02.46.08.92.15 1.39-14.78 2.58-17.91-.12-25.1.55-19.85 1.86-25.48-.01-26.75-8.19-2.86-1.29 33.74-2.8 51.1-3.78.15.6.34 1.18.59 1.72.1.26.39.39.65.29s.39-.39.29-.65c-.29-.92-.4-1.93-.43-2.93-.02-.67.01-1.34.04-1.99.05-.89.12-1.74.24-2.49.17-1.06.37-1.9.61-2.32.15-.23.09-.54-.14-.69s-.54-.09-.69.14c-.39.51-.88 1.66-1.21 3.13-.06.28-.12.57-.16.87-38.97 2.79-60.4.04-57.06-12.1.5-1.82 30.16.47 57.05-.08 0 .4 0 .8.02 1.2.1 1.92.43 3.84 1.05 5.58.08.26.36.41.63.33.26-.08.41-.36.33-.63-.46-1.68-.62-3.5-.62-5.32 0-1.21.09-2.42.2-3.59.16-1.6.39-3.12.68-4.45.42-1.92.92-3.44 1.39-4.17.16-.23.1-.54-.12-.7-.23-.16-.54-.1-.7.12-.65.86-1.49 2.82-2.1 5.33-.04.16-.07.33-.1.5-36.07-2.11-54.63-7.33-50.72-16.54 2.84-3.39 31.86 2.4 64.34 3.5.82 1.08 1.79 2.08 2.87 2.98 1 .83 2.07 1.6 3.18 2.26 1.15.68 2.33 1.26 3.46 1.76 1.85.81 3.58 1.37 4.89 1.72-.02.57.06 1.27.28 2.07.58 2.2 2.08 5.23 4.39 8.09 2.26 2.79 5.29 5.41 8.99 6.92.19.08.4-.01.48-.19.08-.19-.01-.4-.19-.48-3.5-1.57-6.32-4.19-8.4-6.94-1.76-2.33-2.97-4.75-3.6-6.71-.4-1.24-.56-2.28-.42-2.94.08-.41-.19-.8-.6-.88-.19-.04-.37.01-.52.1-1.49-.51-3.54-1.37-5.71-2.52-.77-.41-1.56-.85-2.34-1.32-.51-.31-1.01-.62-1.51-.95-1.03-.68-2.04-1.42-2.94-2.23-.43-.39-.85-.79-1.23-1.21-6.63-11.28-6.2-18.46-2.11-21.89 2.92-1.06 7.38 8.43 22.78 18.74 15.89 7.47 28.34 10.47 28.81 17.76 8.09-.28 15.65-.53 22.03-2l1.1 38.18c-8.11-.04-15.23-.12-21.36-.51z"/><path d="m239.68 140.6c-1.08.34-3.24 1.27-5.74 2.89-1.1.71-2.28 1.55-3.45 2.54-1.04.88-2.08 1.88-3.08 2.98-1.38 1.52-2.66 3.26-3.77 5.19-.1.16-.04.36.11.46.16.09.36.04.46-.11 1.16-1.84 2.49-3.46 3.88-4.91 1-1.04 2.03-1.99 3.05-2.84 1.14-.96 2.26-1.81 3.31-2.54 2.38-1.64 4.41-2.66 5.44-3.03.17-.06.27-.25.21-.42-.05-.17-.24-.27-.42-.21z"/><path d="m105.39 110.72c.27.11.56.2.87.24.61.09 1.28.06 2-.1-.83-.06-1.56-.29-2.15-.6-.33-.17-.59-.38-.79-.6-.2-.21-.32-.45-.32-.71-.02-.15.01-.3.06-.45.06-.16.14-.32.26-.47.16-.2.35-.39.59-.57.54-.4 1.23-.74 2.05-.92-.61-.04-1.19.01-1.71.14-.42.1-.79.26-1.11.46-.42.25-.73.57-.92.92-.17.3-.23.63-.22.96.02.25.09.5.22.72.23.4.63.76 1.17.98z"/><path d="m115.16 125.45c.26.12.55.22.86.28.61.12 1.28.12 2-.01-.83-.1-1.54-.36-2.12-.71-.32-.19-.57-.41-.77-.64-.19-.22-.3-.46-.29-.72-.01-.15.02-.3.08-.44.07-.16.16-.31.28-.46.17-.19.37-.38.61-.54.56-.38 1.26-.68 2.08-.82-.61-.07-1.18-.05-1.71.05-.42.08-.8.23-1.13.4-.51.28-.88.67-1.07 1.09-.11.23-.15.48-.15.73.01.25.07.5.19.73.23.43.61.8 1.14 1.06z"/><path d="m123.2 143.55c-.82-.07-1.53-.32-2.11-.64-.32-.18-.57-.39-.77-.62-.19-.22-.3-.46-.3-.72-.02-.32.12-.62.37-.89.17-.19.37-.36.62-.52.56-.36 1.26-.64 2.07-.76.05 0 .09-.04.09-.09s-.04-.09-.09-.09c-.62-.06-1.2-.02-1.72.1-.42.09-.8.24-1.12.43-.51.29-.87.68-1.07 1.11-.11.23-.15.48-.15.73.01.25.07.5.18.73.21.42.6.8 1.12 1.06.26.13.54.23.86.3.61.13 1.29.16 2.02.05.05 0 .09-.04.09-.09s-.04-.09-.09-.09z"/><path d="m113.14 159.47c.26.12.54.22.86.28.61.12 1.28.12 2-.01-.83-.1-1.54-.37-2.12-.71-.32-.19-.57-.41-.77-.64-.19-.22-.3-.46-.29-.72-.01-.15.02-.3.08-.44.07-.16.16-.31.28-.46.17-.19.37-.38.61-.54.56-.38 1.26-.68 2.08-.82-.61-.07-1.18-.05-1.71.05-.42.08-.8.23-1.13.4-.51.28-.88.67-1.08 1.09-.11.23-.15.48-.15.73.01.25.07.5.19.73.24.43.62.81 1.15 1.06z"/><path d="m74.75 120.34c-.09.16-.04.36.12.46s.36.04.46-.12c.33-.47.56-.98.69-1.53.08-.36.12-.73.11-1.12-.01-.35-.08-.72-.18-1.09-.13-.49-.34-.98-.6-1.5-.07-.17-.26-.25-.43-.18s-.25.26-.18.43c.19.6.29 1.18.35 1.72.03.23.04.46.05.67 0 .15.01.3.01.44-.01.31-.03.62-.09.92-.09.32-.18.61-.31.9z"/><path d="m75.47 128.75c-.08-.16-.28-.23-.45-.15-.16.08-.23.28-.15.45.19.47.31.94.39 1.4.05.31.07.62.07.93.01.38-.01.76-.09 1.15-.08.38-.18.76-.36 1.14-.09.16-.03.36.13.46.16.09.36.03.45-.13.34-.5.58-.99.72-1.51.11-.37.16-.75.15-1.13s-.07-.75-.18-1.12c-.14-.5-.38-.99-.68-1.49z"/><path d="m75.6 141.74c-.06-.17-.25-.27-.42-.21s-.27.25-.21.42c.12.48.18.96.22 1.43.03.32.03.63.04.94 0 .31 0 .62-.02.94-.04.46-.1.93-.23 1.41-.07.17.02.36.19.43s.36-.02.43-.19c.24-.5.42-1 .53-1.52.07-.36.11-.72.11-1.08s-.05-.71-.13-1.07c-.12-.51-.3-1.01-.51-1.5z"/></g></g></svg>