<?xml version="1.0" encoding="utf-8"?>
<!-- Generator: Adobe Illustrator 22.1.0, SVG Export Plug-In . SVG Version: 6.00 Build 0)  -->
<svg version="1.1" id="Слой_9" xmlns="http://www.w3.org/2000/svg" xmlns:xlink="http://www.w3.org/1999/xlink" x="0px" y="0px"
	 viewBox="0 0 512 512" style="enable-background:new 0 0 512 512;" xml:space="preserve">
<style type="text/css">
	.st0{fill:#FDF8B4;stroke:#000000;stroke-width:2;stroke-miterlimit:10;}
	.st1{fill:#C2E9F9;}
	.st2{fill:#D2E58F;}
	.st3{fill:#C6C6C6;stroke:#000000;stroke-width:2.6924;stroke-linecap:round;stroke-linejoin:round;stroke-miterlimit:10;}
	.st4{fill:#E7E7E7;stroke:#000000;stroke-width:2;stroke-linecap:round;stroke-linejoin:round;stroke-miterlimit:10;}
	.st5{fill:#FFDC98;stroke:#000000;stroke-width:3;stroke-linecap:round;stroke-linejoin:round;stroke-miterlimit:10;}
	.st6{fill:#C1E2D7;stroke:#000000;stroke-width:3;stroke-linecap:round;stroke-linejoin:round;stroke-miterlimit:10;}
	.st7{fill:#FFF35C;stroke:#000000;stroke-width:3;stroke-linecap:round;stroke-linejoin:round;stroke-miterlimit:10;}
	.st8{fill:none;stroke:#000000;stroke-width:3;stroke-linecap:round;stroke-linejoin:round;stroke-miterlimit:10;}
	.st9{fill:#FDF8B4;stroke:#000000;stroke-width:3;stroke-linecap:round;stroke-linejoin:round;stroke-miterlimit:10;}
	.st10{fill:#FAA510;stroke:#000000;stroke-width:3;stroke-linecap:round;stroke-linejoin:round;stroke-miterlimit:10;}
	.st11{fill:#B5D758;}
	.st12{fill:#1789BC;stroke:#000000;stroke-width:2;stroke-linecap:round;stroke-linejoin:round;stroke-miterlimit:10;}
	.st13{fill:#D2EFFC;stroke:#000000;stroke-linecap:round;stroke-linejoin:round;stroke-miterlimit:10;}
	.st14{fill:#D2EFFC;stroke:#000000;stroke-width:0.75;stroke-linecap:round;stroke-linejoin:round;stroke-miterlimit:10;}
	.st15{fill:#FFD56E;stroke:#000000;stroke-linecap:round;stroke-linejoin:round;stroke-miterlimit:10;}
	.st16{fill:#FDCD95;stroke:#000000;stroke-linecap:round;stroke-linejoin:round;stroke-miterlimit:10;}
	.st17{fill:#4D7450;stroke:#000000;stroke-linecap:round;stroke-linejoin:round;stroke-miterlimit:10;}
	.st18{fill:none;stroke:#000000;stroke-linecap:round;stroke-linejoin:round;stroke-miterlimit:10;}
	.st19{fill:#FFFFFF;}
	.st20{fill:#36A9E1;}
	.st21{fill:#857154;}
	.st22{fill:#FCE0C5;stroke:#000000;stroke-width:1.2383;stroke-linecap:round;stroke-linejoin:round;stroke-miterlimit:10;}
	.st23{fill:none;stroke:#1D1D1B;stroke-width:1.2383;stroke-linecap:round;stroke-linejoin:round;stroke-miterlimit:10;}
	.st24{fill:none;stroke:#000000;stroke-width:1.2383;stroke-linecap:round;stroke-linejoin:round;stroke-miterlimit:10;}
	.st25{fill:#F6F6F6;}
	.st26{fill:#664C42;stroke:#000000;stroke-width:1.1618;stroke-linecap:round;stroke-linejoin:round;stroke-miterlimit:10;}
	.st27{fill:#472B25;stroke:#000000;stroke-width:1.1618;stroke-linecap:round;stroke-linejoin:round;stroke-miterlimit:10;}
	.st28{fill:none;stroke:#000000;stroke-width:1.1618;stroke-linecap:round;stroke-linejoin:round;stroke-miterlimit:10;}
	.st29{fill:#857253;stroke:#000000;stroke-linecap:round;stroke-linejoin:round;stroke-miterlimit:10;}
	.st30{fill:#816164;stroke:#000000;stroke-linecap:round;stroke-linejoin:round;stroke-miterlimit:10;}
	.st31{fill:#664C42;stroke:#000000;stroke-linecap:round;stroke-linejoin:round;stroke-miterlimit:10;}
	.st32{fill:#EB8F30;stroke:#000000;stroke-linecap:round;stroke-linejoin:round;stroke-miterlimit:10;}
	.st33{fill:#B5D758;stroke:#000000;stroke-linecap:round;stroke-linejoin:round;stroke-miterlimit:10;}
	.st34{fill:#FAA510;stroke:#000000;stroke-linecap:round;stroke-linejoin:round;stroke-miterlimit:10;}
	.st35{fill:#857154;stroke:#000000;stroke-width:2;stroke-linecap:round;stroke-linejoin:round;stroke-miterlimit:10;}
	.st36{fill:#FCE0C5;stroke:#000000;stroke-linecap:round;stroke-linejoin:round;stroke-miterlimit:10;}
	.st37{fill:#B5D544;stroke:#000000;stroke-linecap:round;stroke-linejoin:round;stroke-miterlimit:10;}
	.st38{fill:#FDCD95;stroke:#000000;stroke-width:2;stroke-linecap:round;stroke-linejoin:round;stroke-miterlimit:10;}
	.st39{fill:none;stroke:#000000;stroke-width:2;stroke-linecap:round;stroke-linejoin:round;stroke-miterlimit:10;}
	.st40{fill:#FFD25B;stroke:#000000;stroke-width:2;stroke-linecap:round;stroke-linejoin:round;stroke-miterlimit:10;}
	.st41{fill:#FFD25D;stroke:#000000;stroke-linecap:round;stroke-linejoin:round;stroke-miterlimit:10;}
	.st42{fill:#FFFFFF;stroke:#000000;stroke-width:2;stroke-linecap:round;stroke-linejoin:round;stroke-miterlimit:10;}
	.st43{fill:#FFAFB9;}
</style>
<g>
	<path class="st0" d="M-10.5,450.2c42.2-8,237.8-43.1,381-34.1c1.6,0.1,3.3,0,4.9-0.2c13.2-1.8,76.3-11.1,115.5-25.6
		c15-5.5,31.1,4.5,32.8,20.3l0.7,6.4c0.7,6.5-1.2,13-5.4,18c-15.6,18.6-71.3,51-270.5,39.8c-5.5-0.3-10.9-0.2-16.4,0.3
		C192.3,479.2,23.2,496.4-9.5,512c-0.4,0.2-0.7,0.3-1.1,0.5c-23.8,10.9-45.5-18.4-28.2-37.9l14.6-16.5
		C-20.6,454-15.8,451.3-10.5,450.2z"/>
	<rect x="-18.7" y="-13.5" class="st1" width="552.5" height="349"/>
	<path class="st2" d="M146.5,229.5c0,4.7-0.8,9.2-2.2,13.5c-0.3,1.1-0.8,2.1-1.2,3.1c-0.1,0.2-0.2,0.4-0.3,0.6
		c-4.8,10.8-13.9,19.6-25.5,24.8h0c0,0-0.1,0.1-0.2,0.1c-1.2,0.6-2.5,1.1-3.8,1.5c-1.8,0.7-3.6,1.2-5.5,1.7
		c-0.4,0.1-0.9,0.2-1.3,0.3c0.8,0.4,1.6,0.9,2.3,1.4c0.3,0.2,0.7,0.4,1,0.6c0.1,0.1,0.2,0.1,0.3,0.2c0.1,0.1,0.2,0.1,0.3,0.2
		c4.3,2.8,8.1,6.2,11.3,10.1c3.4,4.1,6,8.7,7.8,13.7c1.6,4.5,2.4,9.2,2.4,14.1c0,1.7-0.1,3.3-0.3,5c-0.3,2.8-0.9,5.5-1.8,8.1
		c0,0,0,0,0,0c-0.1,0.4-0.3,0.8-0.4,1.2c-0.7,2-1.6,4-2.6,5.8c-1,2-2.2,3.8-3.6,5.6c-2.1,2.8-4.5,5.5-7.3,7.9
		c-6.1,5.3-13.7,9.4-22.2,11.6c-0.2,0.1-0.4,0.1-0.7,0.2c0,0,0,0,0,0c-4.6,1.2-9.5,1.8-14.5,1.8c-0.3,0-0.7,0-1,0
		c-2.4,0-4.7-0.2-7-0.5c0-0.1,0.1-0.3,0.2-0.4c2.4-4.1,5.8-10.3,6.9-12.7H41.3c-0.6-0.5-1.1-1-1.7-1.5c-1.3-1.2-2.4-2.4-3.5-3.7
		c-0.9,1.8-1.8,3.5-2.9,5.2H0v-13.5h-18.7V196c0.1,0,0.2-0.1,0.3-0.1c6.8-19.1,27-32.9,50.9-32.9c2.4,0,4.8,0.1,7.2,0.4
		c13,1.5,24.6,7.2,32.9,15.5c1.5,1.5,2.8,3,4.1,4.6c0.2,0.3,0.4,0.6,0.7,0.9c5-1.4,10.3-2.1,15.8-2.1c12.2,0,23.4,3.6,32.4,9.7
		c0.2,0.1,0.3,0.2,0.5,0.4c1.8,1.2,3.4,2.5,5,3.9c8.3,7.4,13.8,17.1,15.2,28C146.4,226,146.5,227.8,146.5,229.5z"/>
	<path class="st2" d="M535.7,209.5c-0.6-0.3-1.2-0.6-1.9-0.8c-19.9-8.4-42.3-3.6-57.3,10.6c-1.7-0.2-3.4-0.3-5.1-0.4
		c-3.3-15.8-13.8-29.9-29.5-37.2c-20.4-9.5-43.7-4.9-59.1,9.8c-18.7-2.4-37.7,5.4-49.2,20.8c-2.3,3-4.2,6.2-5.9,9.8
		c-0.3,0.8-0.7,1.5-1,2.3c-2.5,6.1-3.8,12.4-4,18.7c-0.3,10.6,2.5,21,8,29.8c-3.5,3.9-6.5,8.4-8.8,13.4c-2.5,5.3-4,10.8-4.7,16.3
		c-0.2,1.8-0.3,3.6-0.4,5.5c-0.1,7.5,1.3,14.9,4.3,21.7c0,0.1,0,0.2,0.1,0.2c0.6,1.5,1.4,3,2.2,4.4c0.2,0.4,0.4,0.8,0.6,1.2
		c0.3,0.5,0.6,1,0.9,1.5c0,0,0,0,0,0c0.5,0.8,1,1.5,1.5,2.3c0.7,1,1.4,2,2.2,3c0.1,0.2,0.3,0.3,0.4,0.5c1.4,1.7,2.9,3.3,4.5,4.8
		c0.1,0.1,0.1,0.1,0.2,0.2c0.4,0.4,0.9,0.8,1.4,1.2h69.5c1.6-1.4,3.2-2.9,4.6-4.5c0.6-0.6,1.1-1.2,1.6-1.8c0.2,2,0.6,4,1,6
		c0,0.1,0.1,0.3,0.1,0.4h0.2c3.1,3.8,7.2,6.6,11.9,7.9c0,2.9,0.1,7.3,0.1,7.3s0.6,0.5,1.5,1c-0.8-0.3-1.7-0.6-2.5-1c0,0-0.8-2.3-5,0
		c5.3,8.7,13.1,16,23,20.6c3,1.4,6.1,2.5,9.2,3.3l-2.5-15.3c0,0,18.4-5.6,31.6-23.8H512v-13.5h5c-0.1-8.5-2.3-16.8-6.2-24.2
		c7.9,0.3,15.8-1.2,23-4.3c11.7-5,21.7-14.2,27.5-26.6C573.8,253.6,562.3,221.9,535.7,209.5z M458.8,353.9
		c-2.8,2.4-20.2,7.5-20.2,7.5s-0.8,1.5-2.6,2.8c0.4-0.5,0.8-1.2,1.1-1.9v-5.9c4.1-1.4,7.6-4,10.3-7.4h15.9
		C461.4,351.3,459.7,353.2,458.8,353.9z"/>
	<rect x="205" y="329.7" class="st3" width="307" height="19.3"/>
	<g>
		<path class="st4" d="M292.7,294c0,5.3-4.3,9.7-9.7,9.7h-44c-5.3,0-9.7-4.3-9.7-9.7v-22.7c0-5.3,4.3-9.7,9.7-9.7h44
			c5.3,0,9.7,4.3,9.7,9.7V294z"/>
		<path class="st4" d="M333.7,243v86.7H205v-52.3c0-7.3-3-13.8-7.7-18.6c-4.8-4.8-11.3-7.7-18.6-7.7c-14.5,0-26.3,11.8-26.3,26.3
			v52.3H39.7V243H333.7z"/>
	</g>
	<path class="st5" d="M39.7,163v61.3h294V163H39.7z M131,210c0,5.3-4.3,9.7-9.7,9.7h-44c-4.1,0-7.5-2.5-9-6.1
		c-0.5-1.1-0.7-2.3-0.7-3.6v-22.7c0-3.6,2-6.7,4.9-8.4c1.4-0.8,3.1-1.3,4.8-1.3h44c5.3,0,9.7,4.3,9.7,9.7V210z M213,210
		c0,5.3-4.3,9.7-9.7,9.7h-44c-0.6,0-1.3-0.1-1.9-0.2c-4.4-0.9-7.8-4.8-7.8-9.5v-22.7c0-5.3,4.3-9.7,9.7-9.7h44
		c5.3,0,9.7,4.3,9.7,9.7V210z M295,210c0,5.3-4.3,9.7-9.7,9.7h-44c-5.3,0-9.7-4.3-9.7-9.7v-22.7c0-5.3,4.3-9.7,9.7-9.7h44
		c5.3,0,9.7,4.3,9.7,9.7V210z"/>
	<polyline class="st6" points="205,349 333.7,349 333.7,329.7 205,329.7 	"/>
	<rect x="39.7" y="224.3" class="st6" width="294" height="18.7"/>
	<rect y="329.7" class="st3" width="39.7" height="19.3"/>
	<polygon class="st7" points="333.7,148.5 333.7,163 39.7,163 39.7,147.8 40,147.7 332,147.7 	"/>
	<polygon class="st8" points="39.7,147.7 40,147.7 39.7,147.8 	"/>
	<polygon class="st8" points="333.7,147.7 333.7,148.5 332,147.7 	"/>
	<polygon class="st9" points="315,147.7 63.7,147.7 186.7,89.3 	"/>
	<polygon class="st10" points="332,147.7 315,147.7 186.7,89.3 63.7,147.7 40,147.7 186,77 	"/>
	<rect x="39.7" y="329.7" class="st6" width="112.7" height="19.3"/>
	<path class="st11" d="M409.9,279.1c0.1,0,0.3-0.1,0.4-0.1c0.3,0.6,0.5,1.1,0.8,1.6C410.8,280.1,410.3,279.6,409.9,279.1z"/>
	<path class="st7" d="M205,277.3V349h-52.7v-71.7c0-14.5,11.8-26.3,26.3-26.3c7.3,0,13.9,3,18.6,7.7C202,263.5,205,270.1,205,277.3z
		"/>
	<path class="st12" d="M121.3,177.7h-44c-1.8,0-3.4,0.5-4.8,1.3c-2.9,1.7-4.9,4.8-4.9,8.4V210c0,1.3,0.3,2.5,0.7,3.6
		c1.4,3.6,4.9,6.1,9,6.1h44c5.3,0,9.7-4.3,9.7-9.7v-22.7C131,182,126.7,177.7,121.3,177.7z M125.5,206.3c0,5.3-4.3,9.7-9.7,9.7h-33
		c-0.2,0-0.4,0-0.6,0c-0.2,0-0.5,0-0.7-0.1c-0.1,0-0.3,0-0.4-0.1c-0.2,0-0.4-0.1-0.6-0.1c-0.2,0-0.3-0.1-0.4-0.1
		c-0.2-0.1-0.4-0.1-0.6-0.2c-0.2-0.1-0.4-0.2-0.7-0.3c-0.3-0.1-0.5-0.3-0.8-0.4c-0.1-0.1-0.3-0.2-0.4-0.2c-0.2-0.1-0.4-0.2-0.5-0.4
		c-0.2-0.1-0.3-0.2-0.4-0.3c-0.2-0.2-0.5-0.4-0.7-0.6c-0.2-0.2-0.3-0.4-0.5-0.5c-0.2-0.2-0.3-0.4-0.4-0.5c-0.1-0.2-0.3-0.4-0.4-0.6
		c-0.1-0.1-0.1-0.2-0.2-0.4c-0.1-0.1-0.1-0.2-0.2-0.4c-0.1-0.1-0.1-0.2-0.2-0.3c-0.1-0.1-0.1-0.2-0.2-0.3c-0.1-0.2-0.2-0.5-0.3-0.7
		c-0.1-0.2-0.1-0.5-0.2-0.7c-0.1-0.5-0.2-1.1-0.3-1.6v0c0-0.1,0-0.2,0-0.4c0-0.1,0-0.2,0-0.4V191c0-0.2,0-0.4,0-0.6s0-0.4,0-0.6
		c0-0.1,0-0.3,0.1-0.4c0-0.2,0.1-0.5,0.1-0.7c0-0.1,0.1-0.3,0.1-0.5c0-0.2,0.1-0.3,0.2-0.5c0.1-0.2,0.1-0.3,0.2-0.5
		c0-0.1,0.1-0.3,0.2-0.4c0.1-0.1,0.1-0.3,0.2-0.4c0.1-0.2,0.2-0.4,0.3-0.6c0.2-0.3,0.3-0.5,0.5-0.8c0.1-0.1,0.2-0.3,0.3-0.4
		c0.1-0.2,0.3-0.3,0.4-0.5c0.1-0.1,0.2-0.2,0.3-0.3c0.1-0.1,0.3-0.3,0.5-0.4c0,0,0,0,0.1-0.1c0.2-0.1,0.4-0.3,0.5-0.4
		c0.1,0,0.1-0.1,0.2-0.2c0.2-0.1,0.4-0.2,0.5-0.3c0.2-0.1,0.4-0.3,0.7-0.4c0,0,0,0,0,0c0.2-0.1,0.4-0.2,0.6-0.3
		c0.1-0.1,0.3-0.1,0.5-0.2c0.2-0.1,0.3-0.1,0.5-0.2c0.1,0,0.3-0.1,0.4-0.1c0.2,0,0.4-0.1,0.6-0.1c0.2,0,0.5-0.1,0.7-0.1
		c0.3,0,0.6,0,0.9,0h33c5.3,0,9.7,4.3,9.7,9.7V206.3z"/>
	<path class="st12" d="M203.3,177.7h-44c-5.3,0-9.7,4.3-9.7,9.7V210c0,4.7,3.4,8.6,7.8,9.5c0.6,0.1,1.2,0.2,1.9,0.2h44
		c5.3,0,9.7-4.3,9.7-9.7v-22.7C213,182,208.7,177.7,203.3,177.7z M207.5,206.3c0,5.3-4.3,9.7-9.7,9.7h-33c-5.3,0-9.7-4.3-9.7-9.7
		V191c0-5.3,4.3-9.7,9.7-9.7h33c5.3,0,9.7,4.3,9.7,9.7V206.3z"/>
	<path class="st12" d="M285.3,177.7h-44c-5.3,0-9.7,4.3-9.7,9.7V210c0,5.3,4.3,9.7,9.7,9.7h44c5.3,0,9.7-4.3,9.7-9.7v-22.7
		C295,182,290.7,177.7,285.3,177.7z M289.5,206.3c0,5.3-4.3,9.7-9.7,9.7h-33c-5.3,0-9.7-4.3-9.7-9.7V191c0-5.3,4.3-9.7,9.7-9.7h33
		c5.3,0,9.7,4.3,9.7,9.7V206.3z"/>
	<path class="st13" d="M289.5,191v15.4c0,5.3-4.3,9.7-9.7,9.7h-33c-5.3,0-9.7-4.3-9.7-9.7V191c0-5.3,4.3-9.7,9.7-9.7h33
		C285.2,181.3,289.5,185.6,289.5,191z"/>
	<path class="st12" d="M292.3,268.8C292.3,268.8,292.3,268.8,292.3,268.8c-1.7-2.9-4.8-4.8-8.3-4.8h-44c-5.3,0-9.7,4.3-9.7,9.7v22.7
		c0,0.9,0.1,1.8,0.4,2.6v0c1.1,4.1,4.9,7,9.3,7h44c0.5,0,1,0,1.4-0.1h0c4.7-0.7,8.3-4.7,8.3-9.6v-22.7
		C293.7,271.9,293.2,270.2,292.3,268.8z M235.8,277.3c0-5.3,4.3-9.7,9.7-9.7h33c5.3,0,9.7,4.3,9.7,9.7v15.4c0,5.3-4.3,9.7-9.7,9.7
		h-33c-5.3,0-9.7-4.3-9.7-9.7V277.3z"/>
	<path class="st13" d="M288.2,277.3v15.4c0,5.3-4.3,9.7-9.7,9.7h-33c-5.3,0-9.7-4.3-9.7-9.7v-15.4c0-5.3,4.3-9.7,9.7-9.7h33
		C283.8,267.6,288.2,272,288.2,277.3z"/>
	<path class="st14" d="M207.5,191v15.4c0,5.3-4.3,9.7-9.7,9.7h-33c-5.3,0-9.7-4.3-9.7-9.7V191c0-5.3,4.3-9.7,9.7-9.7h33
		C203.2,181.3,207.5,185.6,207.5,191z"/>
	<path class="st13" d="M125.5,191v15.4c0,5.3-4.3,9.7-9.7,9.7h-33c-5.3,0-9.7-4.3-9.7-9.7V191c0-5.3,4.3-9.7,9.7-9.7h33
		C121.2,181.3,125.5,185.6,125.5,191z"/>
	<g>
		<path class="st15" d="M313.6,306.6c0,0-2.6-6.8-5.3-8.8c-2.8-2.1-14.1-8.9-22.5,7.4c-8.4,16.3-8.3,34.7-3.3,44
			c5,9.3,10.7,18.7,11.1,22.5c0.4,3.8,6.4-2,8.4-6.4c2-4.4,0-13.2,0-13.2l-2.3-15.1l2.3-16L313.6,306.6z"/>
		<ellipse class="st16" cx="335.5" cy="341.4" rx="2.6" ry="6"/>
		<path class="st16" d="M309.8,359.8c0.2,0.7,0,9.1,0,9.1s5.7,6.2,12.4,0v-9.1H309.8z"/>
		
			<ellipse transform="matrix(0.9652 -0.2615 0.2615 0.9652 -79.5969 88.9203)" class="st16" cx="294.4" cy="343.6" rx="4.8" ry="6.1"/>
		<path class="st17" d="M295.8,310.6c0,0,0.6-12.7,12.6-6.3l-5.3,6.3H295.8z"/>
		<path class="st16" d="M335.5,337.8c-0.9,14.6-7.5,26.5-19.2,26.5c-11.4,0-20.9-10.8-22.7-24.9c1.8-1.6,4.3-4.4,4.6-8.2
			c0,0,17,5.9,23.7,2.6c0,0-3.1-2.1-3.6-3.3c-0.5-1.3,7.9,1,11.3-3.3l3.7,13.9C333.3,340.9,334.3,339.8,335.5,337.8z"/>
		<path class="st15" d="M335.5,337.8c-1.2,2-2.2,3.1-2.2,3.1l-3.7-13.9c-3.3,4.4-11.8,2.1-11.3,3.3c0.5,1.3,3.6,3.3,3.6,3.3
			c-6.7,3.3-23.7-2.6-23.7-2.6c-0.3,3.8-2.8,6.6-4.6,8.2c-1.2,1-2.1,1.6-2.1,1.6l-4-8.8c-1.9-4.2-2.3-9-1-13.4
			c3.5-11.8,15.3-10.7,15.3-10.7c20.7-14.4,32.9,4.5,32.9,4.5C341.9,323.4,338.3,333,335.5,337.8z"/>
		<path class="st18" d="M298.2,323.2c0,0,0.3,6.6,0.1,8"/>
		<path class="st18" d="M311.4,321.7c0,0,4.7,8.7,7.8,8.2"/>
		<path class="st18" d="M320.1,317.3c0,0,2.9,7.8,9.5,9.7"/>
		<path class="st18" d="M305,309.9c0,0,28.8-11.2,30.5,19.6"/>
		<path class="st18" d="M298.2,313.2c0,0-10.8,3.7-6.6,27.7"/>
		<ellipse cx="306.6" cy="341.8" rx="2.2" ry="3.8"/>
		<g>
			<path d="M300.6,340c1.1,0,2.2-0.3,3.2-0.6c0.5-0.2,0.9-0.5,1.4-0.6c0.5-0.2,1-0.4,1.6-0.5c0,0,0.1,0,0.1,0c0,0,0,0,0,0
				c-0.2,0.6-0.7,1-1.2,1.3c-0.5,0.3-1.1,0.4-1.7,0.5C302.9,340.4,301.7,340.4,300.6,340C300.6,340.1,300.6,340.1,300.6,340
				C300.6,340.1,300.6,340,300.6,340z"/>
		</g>
		<path class="st18" d="M308.7,335.1c0,0-5.2-2.6-7.3,1.5"/>
		<ellipse cx="324" cy="341.3" rx="2.2" ry="3.8"/>
		<g>
			<path d="M329.9,339.6c-1.1,0.2-2.2,0.3-3.4,0.1c-0.6-0.1-1.2-0.2-1.7-0.5c-0.5-0.3-0.9-0.8-1.2-1.3c0,0,0-0.1,0-0.1c0,0,0,0,0,0
				c0.6,0.1,1.1,0.3,1.6,0.5c0.5,0.2,0.9,0.5,1.4,0.6C327.7,339.3,328.8,339.5,329.9,339.6C329.9,339.5,329.9,339.5,329.9,339.6
				C329.9,339.6,329.9,339.6,329.9,339.6z"/>
		</g>
		<circle class="st19" cx="324" cy="340.9" r="0.9"/>
		<circle class="st19" cx="306.8" cy="340.9" r="0.9"/>
		<path class="st18" d="M320.9,335.1c0,0,5.2-2.6,7.3,1.5"/>
		<path class="st18" d="M313.7,347.1c0,0,3.2-1.7,4.8,0"/>
		<path class="st18" d="M309.8,353c0,0,8.2,10.5,12.9-0.9"/>
		<circle class="st18" cx="306" cy="341.7" r="5"/>
		<circle class="st18" cx="323.7" cy="341.9" r="5"/>
		<circle class="st20" cx="306.4" cy="341.8" r="5"/>
		<circle class="st20" cx="324.2" cy="342" r="5"/>
		<path class="st18" d="M311,341.7c0,0,4.3-2.5,7.7,0.1"/>
		<path class="st21" d="M219,364.7l-0.1,1.5l4.1,1.3l5.2-0.3l4.1-1.9l4.1-4.3c0,0,3.4-4.5,3.7-9.2c0.3-4.7,0.2-7.9,0.2-7.9
			s-0.7-7.5-1.8-9.2c-1.2-1.7-1.9-6.2-3.3-7.2s-2.5-5-5.1-6.2l-4-2.8l-3.4-1.3l-4.4-0.6l-0.9,0.5l-2.6-1.1l-2.3-0.4l-3.5,0.4
			l-1.4,0.6l-2.2-0.2l-5.1,1.1l-3.2,1.8l-4.5,4.1l-3.6,5.6c0,0-1.6,3.6-1.9,4.4c-0.3,0.8-2.1,9-2.1,10.8s0.6,8.4,1.2,10
			s2.4,5.4,2.7,5.9c0.4,0.5,3.1,4,5.6,4.6c2.5,0.6,3.6,1.1,5,1.2c1.4,0.2,4.4,0,4.4,0l1-5.1l7.9,0.3c0,0,3.5,1.3,3.8,1.4
			s2.5,1.2,2.5,1.2L219,364.7z"/>
		<path class="st22" d="M231.7,343.7c0.3-0.1,0.5-0.1,0.8,0c1.6,0.3,2.5,2.7,2,5.3c-0.5,2.6-2.2,4.5-3.8,4.2c-0.1,0-0.3-0.1-0.4-0.1
			"/>
		<path class="st22" d="M218.9,375.1l-3.8,1.2l-4.7,0.3c0,0-5.3-0.6-6.7-1.5c-1.4-0.9,0.8,0.4,0.8,0.4l0-10.9c0,0-7.7-4.6-9.4-8.3
			c-1.7-3.7-2.6-6.8-2.6-6.8l-0.2-6.8l2-1.9l1.7-2.6l1.3,1l1.5,0.3l2.4-2.5l2-3.7l0.6,1.6l1.4,1l1.2-0.9l2.2-3.8l-0.1,2.1l0.9,1
			l1.6,0l1.7-1.5l1.3,1l1.2,1.1l1.5,0.3l1.6-1.2l1.5-1.9l0.5,2l1.2,2.8l0.7,1.2l0.9,0.1l1.7-1.1l0.7,2.7l0.9,1.4l1.9-0.1l0.5,2.3
			l0.7,1.3l1.6-0.1l0.9-1l-0.2,4.7l-2.3,7l-3.5,4.7l-5.3,4l-2,0.8L218.9,375.1z"/>
		<path class="st23" d="M192.3,342.3c0,0.1,0,0.2,0,0.4"/>
		<path class="st24" d="M193,351.6c0.8,2.8,2.2,5.3,4,7.5c1.5,1.8,3.3,3.3,5.3,4.4c2.4,1.4,5.2,2.3,8.2,2.5c3,0.2,5.8-0.3,8.5-1.3
			c2.2-0.9,4.3-2.2,6-3.8c2.3-2.1,4.2-4.8,5.4-7.9c0.7-1.9,1.2-4,1.4-6.2c0.1-1.1,0.1-2.2,0-3.2"/>
		<path class="st22" d="M193,351.6c-0.2,0.2-0.5,0.3-0.8,0.3c-1.6,0.2-3.2-1.7-3.6-4.4c-0.4-2.6,0.6-5,2.2-5.2
			c0.5-0.1,1,0.1,1.4,0.4c0,0.4-0.1,1-0.1,1.3C192,346.7,192.3,349.2,193,351.6z"/>
		<path class="st23" d="M192.3,342.7C192.3,342.7,192.3,342.7,192.3,342.7"/>
		<path class="st24" d="M203.9,365.7c-1.9,0.5-5.5,0.1-7.4-0.3c-9-2.1-13.8-14.8-10.6-28.3c3.1-13.3,12.7-22.4,21.6-20.7"/>
		<path class="st24" d="M216.9,316.9c9.5-1.7,19.6,7.6,22.7,21.3c3.2,13.9-2.1,26.9-11.8,29.1c-3,0.7-6,0.2-8.9-1.1"/>
		<path class="st23" d="M207.5,316.4c1.4-0.7,3.1-1.1,4.9-1c1.7,0.1,3.2,0.6,4.4,1.4"/>
		<path class="st24" d="M190.7,330.4c0,0-1.8,19.3,4.2,8.9c0,0,0.6-1,1.4-2.2c1.1-1.6,2.4-3.6,2.7-4"/>
		<path class="st24" d="M231.7,343.7c0,0-2.8,4.4-3.7-2.7c0,0-2.8,2.1-3.3-3.7"/>
		<path class="st24" d="M226.1,332.9c0,0-2,9.3-5.2,3.4c0,0-1.6-3.4-1.4-5.3c0,0-2.4,8.4-6.6,1.5c0,0-5.3,5.3-4.4-1.8
			c0,0-3.5,9.8-5.4,2.6c0,0-4.4,10.3-7.1,4.4"/>
		<path class="st24" d="M230.6,325.1c0,0,4.1,7.4,4.2,13.9"/>
		<path class="st24" d="M199.8,323.6c0,0-4.4,3.2-5.4,8.2"/>
		
			<ellipse transform="matrix(7.153087e-02 -0.9974 0.9974 7.153087e-02 -153.496 524.2708)" cx="204.9" cy="344.6" rx="3.5" ry="2"/>
		<circle class="st25" cx="205" cy="343.6" r="1.1"/>
		
			<ellipse transform="matrix(7.153087e-02 -0.9974 0.9974 7.153087e-02 -141.2262 538.6739)" cx="218.7" cy="345.2" rx="3.5" ry="2"/>
		<path class="st24" d="M200.7,343.9c0-0.5,4.1-4.9,7.5-0.9"/>
		<circle class="st25" cx="218.8" cy="344.6" r="1.1"/>
		<path class="st24" d="M222.8,345.1c0-0.5-3.3-5.5-7.3-1.9"/>
		<path class="st24" d="M200.1,340.8c0,0,3.6-2.4,7.2-1.6"/>
		<path class="st24" d="M216.2,339.3c0,0,4.6-0.6,6.8,3"/>
		<path class="st24" d="M209.7,350.1c0,0,2.7-2,4.8,0.3"/>
		<path class="st24" d="M205.3,355.3c0,0,5,11.7,13.2,0.9"/>
		<ellipse class="st26" cx="407.2" cy="339.5" rx="3.1" ry="4.7"/>
		<ellipse class="st26" cx="453.1" cy="339.2" rx="3.1" ry="4.7"/>
		<path class="st26" d="M437.1,353.9v8.4c-0.3,0.8-0.7,1.4-1.1,1.9c0,0,0,0,0,0c-3.1,4.1-7.7,2.3-10.1,1c-1-0.5-1.5-1-1.5-1
			s-0.1-4.4-0.1-7.3c0-1.4,0-2.4,0.1-2.5L437.1,353.9z"/>
		<path class="st26" d="M453.1,333.6c0,0.3,0,0.6,0,1c0,0.3,0,0.6-0.1,0.9c-0.3,2.6-0.9,5.1-1.9,7.4c-0.9,2.2-2.2,4.3-3.7,6.1
			c-2.7,3.4-6.3,6-10.3,7.4c-2.3,0.8-4.7,1.2-7.2,1.2c-1.9,0-3.8-0.3-5.6-0.7c-4.7-1.3-8.9-4.1-11.9-7.9c-0.1-0.1-0.2-0.3-0.3-0.4
			c-1-1.3-1.9-2.7-2.6-4.2c-0.2-0.3-0.3-0.7-0.5-1c-1.1-2.4-1.8-5.1-2.1-7.9c0-0.2,0-0.4,0-0.6c0-0.6-0.1-1.2-0.1-1.8
			c0.2,0,0.5-0.1,0.7-0.2c0.1,0,0.2-0.1,0.3-0.1c0.1,0,0.3-0.1,0.4-0.2c0.2-0.1,0.4-0.2,0.6-0.3c0.3-0.2,0.5-0.3,0.7-0.5
			c0.2-0.1,0.3-0.3,0.5-0.4c0.6-0.5,1.2-1.1,1.7-1.7c0.3-0.3,0.5-0.6,0.7-0.9c0.1-0.1,0.2-0.3,0.3-0.4c0.1-0.2,0.3-0.4,0.4-0.5
			c0.4-0.6,0.7-1.1,0.9-1.5c0,0,0-0.1,0.1-0.1c0.1-0.2,0.2-0.4,0.3-0.5c0,0,0,0,0,0c0.1-0.2,0.2-0.3,0.2-0.4
			c0.2-0.3,0.2-0.5,0.2-0.5s5.8,3,7-3.4c0,0,4.3,5.2,6-2.2c0,0,4.1,6.1,11.4,0c0,0,2.5,5.5,5.6,4.7c0,0,0.8,7.6,4.3,5.5c0,0,0,0,0,0
			c0,0,0.1,0.2,0.2,0.3c0,0.1,0.1,0.2,0.2,0.3c0,0.1,0.1,0.1,0.1,0.2c0,0.1,0.1,0.2,0.1,0.2C450.4,331.5,451.6,333.1,453.1,333.6z"
			/>
		<path class="st27" d="M458.6,329.7c-1.9,3.8-3.9,4.5-5.5,4c-2.4-0.8-4.1-4.3-4.1-4.3c-3.5,2.1-4.3-5.5-4.3-5.5
			c-3.1,0.8-5.6-4.7-5.6-4.7c-7.4,6.1-11.4,0-11.4,0c-1.7,7.4-6,2.2-6,2.2c-1.2,6.4-7,3.4-7,3.4s-3.4,7.6-8.1,8.4
			c-0.9,0.2-1.9,0.1-2.8-0.4c-6.1-2.7,0-9.2,0-9.2c-0.5-6.4,5.5-7.8,5.5-7.8c2.2-11.7,9.7-6.1,9.7-6.1c3.1-9.4,10.9-3.4,10.9-3.4
			c7-7.4,13.3,1.6,13.3,1.6c6.8-1,7.2,8.1,7.2,8.1c6.8-1.9,5,7.6,5,7.6C460,324.8,458.6,329.7,458.6,329.7z"/>
		<ellipse cx="424.3" cy="333.1" rx="2.2" ry="2.8"/>
		<ellipse class="st19" cx="424.3" cy="333.1" rx="0.7" ry="0.9"/>
		<path class="st28" d="M427.3,330.4c0,0-4.5-1.5-7.6,2"/>
		<path class="st28" d="M427.3,325.8c0,0-4.3-2.5-8.9,2.7"/>
		<ellipse cx="437.1" cy="332.6" rx="2.2" ry="2.8"/>
		<path class="st28" d="M434.2,330c0,0,4.5-1.5,7.6,2"/>
		<ellipse class="st19" cx="437.1" cy="332.7" rx="0.7" ry="0.9"/>
		<path class="st28" d="M434.2,325.3c0,0,4.3-2.5,8.9,2.7"/>
		<path class="st28" d="M428.3,339.2c0,0,2.7-2.7,5.4,0"/>
		<path class="st28" d="M423.3,344.7c0,0,8.3,13.2,15,0"/>
		<g>
			<path class="st29" d="M428,452.6c-0.4,0-10.9,2.4-11.8,6.3s18.6,3.4,22.8,2.1s3.4-6.9-2-10.6S428,452.6,428,452.6z"/>
			<path class="st29" d="M471.3,415.4c0,0,5-10.9,9.3-3.3s8.8,24.1,6.3,26.4S474.1,428,474.1,428L471.3,415.4z"/>
			<path class="st30" d="M416,406.5c0,0-4.3,18-1.9,23.8s4.3,9.3,4.3,9.3l8.1,15.3c0,0,12.8-0.8,13.3-3.6s-9.3-15.4-9.3-15.4
				l2.9-15.6c0,0,14.9,27.3,29,20c0,0,13.8-7.8,14-9.6s0.4-14.2-3.1-16.8s-15.3,4.6-15.3,4.6s-4-0.8-10-13.5L416,406.5z"/>
			<path class="st31" d="M474.1,339.5c0,0-3.7-8-4.5-10.5c-1.1-3.8-0.1-6.8,1.4-5.4s2.4,2.5,3.1,3.2c1.9,1.7,3-0.4,3-0.4
				s7.8-11,7.9-7.3l-0.8,3.2c0,0,6.5-4.4,4.9-0.5l-1.5,3c0,0,5.9-3.5,4,0l-1.9,3.7c0,0,6.1-2,4.8,0s-12.3,13.7-12.3,13.7
				L474.1,339.5z"/>
			<path class="st26" d="M389,385.5c0,0-1.6,2.2-6.3-0.1c-1.6-0.8-3.4-1.3-5.2-1.2c-2.2,0.1-4.7,1-6.2,3.9c-3,5.9,4,1.6,4,1.6
				l4.5,2.3c0,0,2.4,1,2.4,2.6s0.1,5.3,1.9,3.8c1.9-1.6,2.3-4.1,3.4-4.4s3.1-0.6,3.1-0.6l3.4-1.8v-4L389,385.5z"/>
			<path class="st32" d="M485,340.1c-1.6,3.3-3.5,6.2-5.4,8.9c-13.2,18.3-31.6,23.8-31.6,23.8l2.5,15.3l2.6,16.2
				c-1.2,1.3-2.5,2.4-3.8,3.4c-12.8,9.6-28.2,4.3-34,1.8c-1.5-0.7-2.4-1.2-2.4-1.2c4-8,2-24,2-24c-8.7,15-24.7,13.7-24.7,13.7
				c0.3-1.2,0.3-2.9,0.2-4.7c-0.2-2.7-0.7-5.7-1.1-7.6c-0.2-1.2-0.4-2-0.4-2c1.4,0.5,3.7-0.1,6-1c5-1.9,9.4-5.2,13-9.2
				c4.7-5.3,8-8,10.3-9.3c4.2-2.3,5,0,5,0c0.9,0.4,1.7,0.8,2.5,1c4.8,1.6,8.1,0.4,10.1-1c0,0,0,0,0,0c1.8-1.3,2.6-2.8,2.6-2.8
				s17.4-5.2,20.2-7.5c0.9-0.8,2.6-2.7,4.6-4.9c3.7-4.2,8.3-9.7,9.8-11.5c0.3-0.4,0.5-0.6,0.5-0.6l10.6,3L485,340.1z"/>
			<line class="st18" x1="482.2" y1="326.4" x2="484.3" y2="322.3"/>
			<path class="st33" d="M309.4,453.4c0,0-8.5,5.3-13.9,7.1c-4.6,1.6-4.6,3.6-1,3.8s11.3-1.4,13-1.5s8.8-0.8,8.1-4.8
				s-4.3-5.6-4.3-5.6L309.4,453.4z"/>
			<path class="st33" d="M354.3,425.1c0,0,4.5-7.2,7.8-1.9c3.3,5.3,5.4,19.9,2,18.4c0,0-0.6-1.3-1.8-2.8c-1.4-1.7-2.7-3.5-3.9-5.4
				c-1.1-1.9-2.6-4-4.1-4.2C351.5,428.9,354.3,425.1,354.3,425.1z"/>
			<line class="st18" x1="485" y1="327.6" x2="487.6" y2="324.7"/>
			<line class="st18" x1="487.6" y1="330.2" x2="489.8" y2="328.5"/>
			<path class="st16" d="M299.1,433.6l7.9,21.5c0,0,6,4.3,6.6-1.1l-4.5-20.4H299.1z"/>
			<path class="st16" d="M330.8,433.6c0,0,9.5,16.4,17.6,7.1l5.8-7.3c1.5-1.9,2.5-4.2,2.7-6.7c0.1-1.5-0.1-2.9-1.1-3.4
				c-2.5-1.4-11.5,5.4-14.3,9.4l-4.9-4.6l-3.6,1.3L330.8,433.6z"/>
			<path class="st27" d="M91.2,450.7c0,0-16.8,4.3-21,4.6c-4.2,0.2-5.5,6-0.8,6.7c6.2,0.9,12.1,0.8,16.6,1s14.1,1.8,17.8-1.1
				c3.7-2.9,0.8-10.9-1.5-13.7c-2.3-2.8-9.1,1.5-9.1,1.5L91.2,450.7z"/>
			<path class="st27" d="M122,449.7c0,0-10.8,10.5-10.1,12.1c0.7,1.6,3.8,3.3,7.2,1.8s8-4.5,12-5.2s11.2-2.8,12.3-6.2
				c1.2-3.3-2.7-12.9-7.2-12.9s-8.5,4.9-8.5,4.9L122,449.7z"/>
			<path class="st34" d="M301.5,408.5l-6,26.3c0,0,13.8,6.1,16,3.6s5-15.1,6.8-14.1s8.8,11.8,10.8,12.3c3.7,0.8,13.3-6.6,13.3-6.6
				s-8.3-20.7-9.5-23.7S301.5,408.5,301.5,408.5z"/>
			<path class="st16" d="M342.3,390.3c0,0,3.5,5,9.8,5.5s19.6-1,19.6-1l11.8,0.3l0,0c0.6-1,0.1-2.2-1-2.5c-1.2-0.4-2.6-1.2-3.9-2.7
				c-0.9-1.1-2.7-1.9-4.1-1.9c-2.2,0.1-3.4,0.2-6.7,1c0,0-19.5-4.5-22.1-3.3S342.3,390.3,342.3,390.3z"/>
			<path class="st16" d="M289.6,388.6c0,0-18.4,5-20.5,4.8s-8.9-4.6-13.1-0.6l0.9,3.2l1.4,5.3c0,0,3.9,2.8,3.6,3.9s6.4-0.3,7.9-2.9
				c0,0,20.4-0.3,23.8-5.4c3.4-5.1,2.7-7.6,2.7-7.6L289.6,388.6z"/>
			<path class="st33" d="M308.8,368.2c0,0-13.3,3.8-23.1,19.7l8,9l7.7-7.2l-2.2,20.7c0,0,14.8,10.2,36.3-1.3l-2.6-23.3
				c0,0,8.3,8.2,9.6,7.8s5.8-6,5.8-8.5s-6.8-4.4-10.2-10.1s-15.4-8.8-15.4-8.8l-5.7,5.5L308.8,368.2z"/>
			
				<ellipse transform="matrix(0.6077 -0.7941 0.7941 0.6077 -166.8104 450.8451)" class="st31" cx="373" cy="394.3" rx="4.1" ry="1.6"/>
			<path class="st16" d="M81.7,411.8c0,0,5.9,19.7,6.5,22.6c0.8,3.8,1.7,15.4,0,16.8c-1.7,1.3,6.2,7,12,2.2c0,0,2.6-2.5,4.3-9.5
				c1.9-7.9-3.1-28.2-5.8-29.8s-7.1-3.7-7.1-3.7h-8.8L81.7,411.8z"/>
			<path class="st16" d="M104.5,418.3c0,0,11.5,14.2,14.4,17.2c1.3,1.3,8.5,9.8,3.7,14.4c0,0,1.2,0.2,2.8,0.3
				c5,0.5,9.8-2.4,11.3-7.1c0.2-0.8,0.4-1.6,0.4-2.3c0,0-3.8-5-5.5-9.5c-1.7-4.5-5.7-11.9-9.5-15c-3.8-3.1-10.8-2.1-10.8-2.1
				L104.5,418.3z"/>
			
				<ellipse transform="matrix(0.6077 -0.7941 0.7941 0.6077 -166.2883 454.6085)" class="st31" cx="377" cy="395.6" rx="4.1" ry="1.9"/>
			<path class="st30" d="M177.3,458.9c0,0-10.8,2.3-11.3,2.3c-0.6,0-0.8,4.3,6.2,4.9c6.9,0.7,9.3,1.2,10.8,1.3
				c1.5,0.2,6-0.3,6.3-5.1c0.3-4.8,1.7-7.5,1.7-7.5l-8.4,3.4L177.3,458.9z"/>
			
				<ellipse transform="matrix(0.6077 -0.7941 0.7941 0.6077 -166.854 458.3962)" class="st31" cx="380.6" cy="398.1" rx="4.1" ry="2"/>
			<path class="st30" d="M247,422.8c0,0-1.3-3.3,2.9-3.8c1.2-0.1,9.8,3.3,11.9,9.3c2.1,6,1.6,9.1-0.6,8.2s-6.2-5.3-6.2-5.3l-5.2-2.8
				l-1.9-2.6L247,422.8z"/>
			<path class="st35" d="M75,294.8c0,0-20.5-13.8-17.5-38.8s7-62,46.5-59.5c0,0,31.5-17.5,51.3,17.8c0,0,18.3,37,2.3,67.8
				S137,321,137,321l-33.5-4.1L77.8,308l-3-14.5L75,294.8z"/>
			<path class="st36" d="M183.6,437.4c0,0,0.3,15.3-1.8,17.3c-2.1,1.9-5.6,5.2-6.1,5.3c-0.5,0.1,5.3,6.4,13.9-2.4
				c0,0,7.8-15.3,7.8-17.3s-5.8-5.9-5.8-5.9L183.6,437.4z"/>
			<path class="st36" d="M231.9,389c0,0,12.3,9.7,27.7,10.3l2.2,1.1l1.1,1.1c0,0,3.5-7.3-5.3-7.3c0,0-3.2-2.2-0.4-3l-20.4-8.4
				l-4.9,3.6V389z"/>
			<path class="st36" d="M219.8,432.4c0,0,8.5,9.6,13.8,8.7c1.2-0.2,2.2-0.8,3-1.7c1.8-1.9,6.1-6.3,9.1-7c3.9-0.9,10.2-0.3,10.2-0.3
				s-4.8-10.5-9.5-10c0,0-4.4,6-10.5,3.8s-7.2,1.7-7.2,1.7l-1.5,3L219.8,432.4z"/>
			<path class="st37" d="M187.5,408.8c0.3,0.3-8.6,24.3-11.6,26.5s19,9,25.1,6.8c0,0,8.6,3.5,17.8-1.7c0,0,15.6,0.5,17.7-10.9
				c0.1-0.6,0.2-1.2,0.4-1.8l0.8-2.9c0.2-0.7,0.1-1.4-0.3-1.9l-10.8-14.8c0,0-11.2-0.3-12.2-0.3s-18.3-1.1-19.3-1.1
				S187.5,408.8,187.5,408.8z"/>
			<line class="st18" x1="200.8" y1="435.3" x2="201" y2="442"/>
			<path class="st18" d="M217.5,432.4c0,0,0.6,6.8,1.3,7.9"/>
			<polyline class="st18" points="308.8,368.2 304.4,378.5 317,372.8 328.7,374.6 322.7,366.1 			"/>
			<path class="st18" d="M226.8,390.3c0,0-1-4.2-1.8-6"/>
			<path class="st38" d="M36.5,273.2c0,0-6.8-11.4-10-13.5s-10.2-7-3.8-7c0,0-8.2-9,0.8-8c0,0-3-6.4,2.3-4.5c0,0-2.7-9.5,9.3,3.2
				c0,0,2.5,2.7,2.2,3.7c0,0,5.7-5,5.7,3.8c0,8.8,2.3,17.7,2.3,17.7L36.5,273.2z"/>
			<line class="st39" x1="27.3" y1="247.9" x2="23.5" y2="244.7"/>
			<path class="st39" d="M37.7,257.2c0,0,0.5-6.4-0.3-10.1"/>
			<path class="st40" d="M74.8,363.8V412c0,0,21.5,16.3,48.7,7.7c0,0,4.8-39.2,4.7-41.3c-0.2-2.2-3.3-14.5-3.3-14.5l-7.3-2.3
				l-34.2-1.4L74.8,363.8z"/>
			<path class="st16" d="M150.3,356.3c0,0,1.5,12.2,3,14.7c1.5,2.6,2.8,1.2,2.8,1.2v-4.4l1.6-5.5c0,0,3.9-2.7,4.9,1.9l4.5,0.2
				c0,0,3-8.4-6.3-12.6c-9.3-4.2-7.3-2.6-7.3-2.6l-3.2,3.6V356.3z"/>
			<line class="st39" x1="31" y1="244.7" x2="25.8" y2="240.3"/>
			<path class="st36" d="M167,361.7c0,0,4.4,0.1,5.5,3.1s4.6,9.8,7.2,11.8c2.6,1.9,6.6,2.8,6.6,2.8l0.3,4l-1.2,3.6
				c0,0-8.8,6.3-15.2-5l-5.1-7.7c0,0,4.3-3,3-5.7c-1.3-2.7-3-0.5-3-0.5s1.1-4.3-1.9-3.3C163.3,364.8,163.4,360.8,167,361.7z"/>
			<line class="st39" x1="26.8" y1="253.9" x2="22.7" y2="252.7"/>
			<path class="st40" d="M160.8,351.9l-10.5,4.4c-0.2-1.9-1.4-4.5-3.2-7.3c-2.7-4.2-6.7-9.1-10.6-13.5c-1.9-2.1-3.7-4.1-5.4-5.8
				c-0.4-0.4-0.8-0.8-1.1-1.2c0,0,0,0,0,0c-3.6-3.7-6.1-6.2-6.1-6.2c-0.7,2.5-1.1,4.9-1.2,7.3c-0.1,2-0.1,3.9,0,5.8
				c0.1,2,0.4,3.9,0.8,5.6c0.6,3,1.4,5.6,2.2,7.9c1.6,4.4,3.1,7.1,3.1,7.1c4,6.4,1.1,10.5-2.7,13c-3.3,2.2-7.3,3.1-7.7,3.2
				c-24,6.4-25.1-9.8-25.1-10.7c0,3.7-1.7,6.9-3.4,9.2c-2.2,2.9-6.3,3.8-9.5,2c-1.8-1-3.8-2.1-5.6-3.2c-0.8-0.5-1.5-0.9-2.2-1.3
				c-2.1-1.3-2.9-3.9-1.9-6.1h0c0-0.1,0.1-0.3,0.2-0.4c2.4-4.1,5.8-10.3,6.9-12.7c0-0.1,0.1-0.2,0.1-0.3c0.9-2.3,0.3-7.7-0.9-13.2
				c-0.5-2-1-4-1.5-5.8c-0.2-0.7-0.4-1.3-0.6-1.9C73.6,323.9,73,308,73,308l-13-3.7c-6.5-1.5-14.7-11.9-20.3-20.5
				c-4.1-6.2-7-11.4-7-11.4l2.5-1.4l4.5-2.4l5-2.7l0.6-0.3l11.9,15.1c3.1,3.8,6.8,6.2,10.7,7.6c10.3,3.7,21.7,0.6,26.3-0.9
				c0,0,0,0,0,0c0.9-0.3,1.6-0.6,1.9-0.7c0.1,0,0.2-0.1,0.2-0.1l5.1-1.1l9.7,0.6l1,0.1l1.5,3.4l0.8,1.9c5.6,2.3,10.7,5.7,15.3,9.8
				c4.2,3.7,7.9,7.9,11.2,12.3c4,5.3,7.4,10.9,10.2,16.1c0.4,0.8,0.8,1.5,1.2,2.2c0.6,1.2,1.2,2.4,1.8,3.6
				c2.8,5.8,4.7,10.6,5.7,13.5C160.5,350.8,160.8,351.9,160.8,351.9z"/>
			<path class="st41" d="M199.4,370l-16.8,8.1l1.4,11.4l7-4.3c1.1-0.7,2.5,0.4,2.1,1.6L186,410c0,0,25.6,14.4,45-0.3l-4.2-19.4
				l6.4,2.5l6.1-9.8c0,0-12.9-11.6-19.7-11.5c0,0-11.3,4-15.5-0.8C203.3,369.7,200.5,369.5,199.4,370z"/>
			<path class="st42" d="M91,328.5c9-4.5,23.5-37,23.5-37l1.2-9.7l-18-1.3l-3.4,6.9c0,0-1,1-2.2,3.1c-2.6,4.4-6,13.8-3,29
				c4.5,22.5,4.4,42.1,4.4,42.1"/>
			<path class="st18" d="M210.5,373c0.1,0.4,0.2,0.8,0.2,1.3c0,3-2.4,5.4-5.4,5.4c-3,0-5.4-2.4-5.4-5.4c0-1.5,0.6-2.9,1.7-3.9"/>
			<path class="st18" d="M221.1,371.6c0.6,0.9,0.9,2.3,0.9,3.4c0,3-3,4.8-5.9,4.8s-5.4-2.4-5.4-5.4c0-0.5-0.1-0.5,0.1-1"/>
			<path class="st38" d="M96.8,283.5L94,296.4l2,1.5c2.7,1.9,6.2,2.3,9.2,1.1l5-2.1l1.1-13.3H96.8z"/>
			<ellipse class="st38" cx="74.8" cy="251" rx="4.8" ry="10"/>
			
				<ellipse transform="matrix(0.2805 -0.9598 0.9598 0.2805 -146.2721 325.8268)" class="st38" cx="144.2" cy="260.5" rx="10" ry="4.8"/>
			
				<ellipse transform="matrix(0.742 -0.6703 0.6703 0.742 -203.2995 200.5833)" class="st36" cx="159" cy="364.5" rx="4.3" ry="1.6"/>
			
				<ellipse transform="matrix(0.742 -0.6703 0.6703 0.742 -204.8979 203.2633)" class="st36" cx="161.7" cy="367.9" rx="4.3" ry="1.9"/>
			
				<ellipse transform="matrix(0.742 -0.6703 0.6703 0.742 -206.2314 206.2285)" class="st36" cx="164.8" cy="371.1" rx="4.3" ry="2.1"/>
			<path class="st39" d="M73,237.8c0,0,14.9-20.3,30-22.8c0,0,19.8,21.3,29.8,26s14.8,7.5,14.8,7.5"/>
			<path class="st38" d="M145.6,251c0,21.4-15.8,38.8-35.3,38.8S74.9,272.4,74.9,251c0-8.1,2.3-15.7,6.2-21.9
				c5.7-5.7,13.7-12.1,21.8-13.4c0,0,19.8,21.3,29.8,26c6.4,3,10.6,5.2,12.8,6.5C145.6,249,145.6,250,145.6,251z"/>
			<ellipse cx="88.9" cy="247.9" rx="3.2" ry="6.9"/>
			<circle class="st19" cx="88.9" cy="248.4" r="1.9"/>
			<path class="st39" d="M83.9,243.1c0,0,4.5-4,9.5,0"/>
			<ellipse cx="120.8" cy="250.3" rx="3.2" ry="6.9"/>
			<circle class="st19" cx="120.8" cy="250.8" r="1.9"/>
			<path class="st39" d="M125.8,245.6c0,0-4.5-4-9.5,0"/>
			<path class="st39" d="M94.9,258.5c0,0,7.6-2.8,11.8,1.3"/>
			<polygon points="92,270.5 97.2,271.3 109.9,272.3 115.2,273.5 113.2,276.3 108,277.8 101.7,276.9 94,274.9 			"/>
			<path class="st39" d="M82.6,235.1c0,0,5.6-5.1,13.6,1.6"/>
			<path class="st43" d="M94,273.5c0,0,12.4,2.8,17.3,3.3l-3.6,1.9l-5.7,0.4l-4.9-2l-3.2-2.7V273.5z"/>
			<path class="st19" d="M92,271.6c0,0,12.9,4.6,22.9,3l2.8-3.4c0,0-17,1.4-27-3.4L92,271.6z"/>
			<path class="st39" d="M115.5,238.3c0,0,5.9-2.5,12.1,2"/>
			<path class="st39" d="M117.6,271.1c-14.9,0.7-23.2-1.7-27-3.4c0.6,4.3,5.2,10.1,11.5,11.4C108.4,280.4,115.3,275.2,117.6,271.1z"
				/>
			<path class="st39" d="M92,290.5c0,0,1.8,18.4,20.7,4.9"/>
			
				<ellipse transform="matrix(0.6077 -0.7941 0.7941 0.6077 -218.029 360.5929)" class="st16" cx="256" cy="401" rx="3.1" ry="1.2"/>
			
				<ellipse transform="matrix(0.6077 -0.7941 0.7941 0.6077 -218.5842 363.4123)" class="st16" cx="258.6" cy="403" rx="3.1" ry="1.4"/>
			
				<ellipse transform="matrix(0.6077 -0.7941 0.7941 0.6077 -219.0079 366.2492)" class="st16" cx="261.2" cy="404.8" rx="3.1" ry="1.5"/>
		</g>
	</g>
</g>
</svg>
