<?xml version="1.0" encoding="utf-8"?>
<!-- Generator: Adobe Illustrator 22.1.0, SVG Export Plug-In . SVG Version: 6.00 Build 0)  -->
<svg version="1.1" id="Слой_6" xmlns="http://www.w3.org/2000/svg" xmlns:xlink="http://www.w3.org/1999/xlink" x="0px" y="0px"
	 viewBox="0 0 512 512" style="enable-background:new 0 0 512 512;" xml:space="preserve">
<style type="text/css">
	.st0{fill:#878787;stroke:#000000;stroke-width:3;stroke-linecap:round;stroke-linejoin:round;stroke-miterlimit:10;}
	.st1{fill:#4D7450;stroke:#000000;stroke-width:3;stroke-linecap:round;stroke-linejoin:round;stroke-miterlimit:10;}
	.st2{fill:#857154;stroke:#000000;stroke-width:3;stroke-linecap:round;stroke-linejoin:round;stroke-miterlimit:10;}
	.st3{fill:#F6F6F6;stroke:#000000;stroke-width:3;stroke-linecap:round;stroke-linejoin:round;stroke-miterlimit:10;}
	.st4{fill:#857154;stroke:#000000;stroke-width:2;stroke-linecap:round;stroke-linejoin:round;stroke-miterlimit:10;}
	.st5{fill:#817870;stroke:#000000;stroke-width:2;stroke-linecap:round;stroke-linejoin:round;stroke-miterlimit:10;}
	.st6{fill:#FCE0C5;stroke:#000000;stroke-width:2;stroke-linecap:round;stroke-linejoin:round;stroke-miterlimit:10;}
	.st7{fill:#C18474;stroke:#000000;stroke-width:2;stroke-linecap:round;stroke-linejoin:round;stroke-miterlimit:10;}
	.st8{fill:none;stroke:#000000;stroke-width:2;stroke-linecap:round;stroke-linejoin:round;stroke-miterlimit:10;}
	.st9{fill:#FCE0C5;stroke:#000000;stroke-width:1.7238;stroke-linecap:round;stroke-linejoin:round;stroke-miterlimit:10;}
	.st10{fill:none;stroke:#1D1D1B;stroke-width:2;stroke-linecap:round;stroke-linejoin:round;stroke-miterlimit:10;}
	.st11{fill:#FFFFFF;}
	.st12{fill:none;stroke:#000000;stroke-linecap:round;stroke-linejoin:round;stroke-miterlimit:10;}
	.st13{fill:#F6F6F6;stroke:#000000;stroke-width:2;stroke-linecap:round;stroke-linejoin:round;stroke-miterlimit:10;}
	.st14{fill:#FFFFFF;stroke:#000000;stroke-width:2;stroke-linecap:round;stroke-linejoin:round;stroke-miterlimit:10;}
	.st15{fill:#B5D758;stroke:#000000;stroke-width:2;stroke-linecap:round;stroke-linejoin:round;stroke-miterlimit:10;}
</style>
<g>
	<polyline class="st0" points="489.5,297.3 517.5,297.3 517.5,323.6 143.5,323.6 143.5,297.3 154.7,297.3 	"/>
	<rect x="154.7" y="43.3" class="st1" width="334.9" height="258.1"/>
	<rect x="341.4" y="279.2" class="st2" width="196.6" height="223.7"/>
	<g>
		<path class="st3" d="M449.5,240.3h-76.1c-3.3,0-6-2.7-6-6v0c0-3.3,2.7-6,6-6h76.1c3.3,0,6,2.7,6,6v0
			C455.5,237.6,452.8,240.3,449.5,240.3z"/>
		<path class="st3" d="M454.6,253h-76.1c-3.3,0-6-2.7-6-6v0c0-3.3,2.7-6,6-6h76.1c3.3,0,6,2.7,6,6v0
			C460.6,250.3,457.9,253,454.6,253z"/>
		<path class="st3" d="M459.7,265.7h-76.1c-3.3,0-6-2.7-6-6l0,0c0-3.3,2.7-6,6-6h76.1c3.3,0,6,2.7,6,6l0,0
			C465.7,263,463,265.7,459.7,265.7z"/>
		<path class="st3" d="M464.9,278.4h-76.1c-3.3,0-6-2.7-6-6v0c0-3.3,2.7-6,6-6h76.1c3.3,0,6,2.7,6,6v0
			C470.9,275.8,468.2,278.4,464.9,278.4z"/>
	</g>
	<path class="st4" d="M56,473c0,0-31.7,13.3-31.3,17.3c0.3,4,9,10.7,21,6c12-4.7,14-6.3,18-6.3s16-4.7,12.3-14.7S56,473,56,473z"/>
	<path class="st4" d="M109,470.2c0,0-5.3,10.6-2.7,13.9c2.7,3.3,9,8.1,12.7,13.9c3.7,5.7,18,7.6,21.7,0c3.7-7.6,6-10.6-8-29.3
		L109,470.2z"/>
	<path class="st5" d="M58.1,258l-7.4,216.7c0,0,23,9.3,33-0.7c0,0-0.4-126.1,6.6-157.6c0.3-1.4,2.4-1.3,2.5,0.2l13.5,156.7
		c0,0,13,8.7,30.3-1.3c0,0-5.7-205.3-7.7-214c-2-8.7-23.3-6.3-23.3-6.3l-30,4.3L58.1,258z"/>
	<path class="st4" d="M162.6,365.4L12,259.7c-1.9-1.3-4.6-0.8-5.9,1.1h0c-1.3,1.9-0.7,4.6,1.2,5.8L162.6,365.4z"/>
	<path class="st6" d="M36.6,194.6c0,0-0.8,20.5-0.3,33s-2.8,29.6-2.8,32.3c0,2.2-0.9,26.2-1.2,35.1c-0.1,3.1-0.1,8.2,0.6,11.2
		c0.7,3.1,2,3.4,3.4-1.4c0,0,5.3,20.4,6,2.7v-10.5c0,0,5.8,28,6,7.3L47,292c0,0,10,28.3,8.3,15S49,283.5,49,283.5s6.1,8.9,8,10.5
		c2.2,1.9,1-5-3.8-15.8s-5.5-13.5-4.3-17.5s7.8-49.3,3-58.5s-17.3-9.5-17.3-9.5L36.6,194.6z"/>
	<path class="st6" d="M154.3,178.7c0,0,12.7,16.7,34.7,7c0,0,53.3-29,55-30s18.1-2.7,22.3-6.7c4.7-4.3,8.7-10,2.3-10.3
		c0,0,7.6-3,2.5-6.3c0,0,6.4-5,1.7-9.3c0,0,1-10-7.7-10c-3.5,0-6.8,1.7-9,4.5l-1.5,1.9c0,0-4.1-11.7-4.7-7.9
		c-0.5,3.7-7.5,18.9-8.5,23.6c-1,4.7-9,15-17.6,19.1c-7.6,3.6-41.6,13-46.6,11.5s-17-8.1-17-8.1l-6,6.3l-1.7,7.3L154.3,178.7z"/>
	<path class="st7" d="M72,122.8c0,0-33.3,0.8-38,49.5c-3.6,37.2-3.6,74.5-3.4,90.1c0.1,4.2,3.5,7.6,7.7,7.6h6.5
		c3.6,0,6.5-2.8,6.8-6.3l6.8-88.7l-3.6,95h76.3l-3.9-97.7c0,0,33.8,20.6,58,14.8c18.2-4.4,42.3-20,53.1-27.4c3.2-2.2,4-6.5,1.8-9.7
		l-0.7-1c-2.1-3-6.1-3.8-9.2-1.9c-13.8,8.6-50.9,28.1-72.6,4.3c0,0-35.3-36.1-50-31.7S93,124,93,124l-6.7-4.4L72,122.8z"/>
	<polygon class="st6" points="78,108.5 79,131.4 89.1,139 102.8,134.3 102.8,106.6 	"/>
	<path class="st8" d="M36.3,305c0,0,0.8-8.9,0-13.4"/>
	<line class="st8" x1="42.3" y1="297.3" x2="41" y2="291.6"/>
	<path class="st8" d="M119.3,270c0,0-1.3,16.8,11.4,17.3"/>
	<path class="st8" d="M65.3,270c0,0,1.7,12.5-7.3,16.8"/>
	<path class="st8" d="M268.7,138.7c0,0-18.4-3.1-11.8,1.5c5.3,3.6,8.2,3.3,8.2,3.3"/>
	<path class="st8" d="M271.1,132.3c0,0-10.3-4-13.6-1.5c-0.9,0.7-0.8,2.1,0.1,2.8c1.9,1.4,5.5,4,6.7,4.2"/>
	<path class="st8" d="M272.9,123c0,0-11.4-3.8-13.9,0.6c-0.5,0.8,0,1.9,1,2.2c2.6,0.8,8.8,3.5,9.7,5.2"/>
	<path class="st8" d="M256.5,117.1c0,0-0.3,2,6.9,2.3c0,0,3.2,0,4.2,2.1"/>
	<path class="st4" d="M74,44c0,0-18.5-0.3-20.5,29s10.8,49,26,37.7l22.5-2c0,0,7.8,7.3,15,0.5c7.2-6.7,12.9-30.7,1.6-55.7
		c-0.2-0.4-0.4-0.9-0.6-1.3c-1.2-2.8-11.8-15-24.3-10C93.8,42.3,83.8,36.8,74,44z"/>
	<ellipse transform="matrix(0.1653 -0.9862 0.9862 0.1653 12.9452 182.281)" class="st9" cx="114.2" cy="83.5" rx="8.1" ry="5.1"/>
	
		<ellipse transform="matrix(0.9982 -6.024274e-02 6.024274e-02 0.9982 -4.9106 4.1082)" class="st9" cx="65.7" cy="83.5" rx="5.1" ry="8.1"/>
	<path class="st10" d="M69.8,50.5c0,0,0.9-5.4,7.7-8.6"/>
	<path class="st10" d="M93.8,42.3c0,0,4.8,1.7,7.5,4"/>
	<path class="st6" d="M115.6,78c0,19.4-9.1,39.1-25,39.1c-15.9,0-25.2-19.3-25.2-38.6c0-3.3,0.3-6.3,0.8-9.2c2,1.7,5.2,0.5,10.1-9.6
		c0,0,3,18.3,9.8-1.5c0,0,5.3,15.5,11,0.8c0,0,3.7,13.8,9.8,0.5c0,0,3.3,11.2,8.3,11.1C115.4,72.9,115.6,75.4,115.6,78z"/>
	<ellipse cx="80.7" cy="80.4" rx="3.3" ry="5.6"/>
	<circle class="st11" cx="80.7" cy="80.4" r="2"/>
	<path class="st8" d="M74.8,77.1c0,0,5-4.4,10.5-0.6"/>
	<ellipse cx="99.5" cy="80.4" rx="3.3" ry="5.6"/>
	<circle class="st11" cx="99.5" cy="80.4" r="2"/>
	<path class="st8" d="M105.5,77.1c0,0-5-4.4-10.5-0.6"/>
	<path class="st12" d="M86.8,91.8c0,0,5-1.5,7,0"/>
	<path class="st12" d="M84,101.6c0,0,6.8,11.3,14.3,0"/>
	<path class="st8" d="M76.5,71.9c0,0,7.9-3.5,8.8-3.9"/>
	<path class="st8" d="M95,67c0,0,7.6,3.2,8.7,3.6"/>
	<path class="st13" d="M256.8,103.3l5.2,4.8l-0.1,5.5c0,0-6.2,2.7-5.5,3.7c0.7,1,6.9,2.3,6.9,2.3l-1.3,2.1l-3.1,2.1l2.3,2.7
		l-1.4,2.3L251,136L256.8,103.3z"/>
	<path class="st14" d="M78,117.1l-9.3,6L80,158.3l11.1-20.7l11.7,19.3l12.8-36.8l-11.4-3.5c-0.5,1.3-3.8,10.9-7.6,12.5
		c-3.8,1.6-8,1.9-11,0.1C81.6,126.9,78,122.4,78,117.1z"/>
	<polygon class="st15" points="89.1,141.4 82.3,215.6 91.1,230.3 100.3,215.6 93.7,141.9 91.1,137.7 	"/>
</g>
</svg>
