<?xml version="1.0" encoding="utf-8"?>
<!-- Generator: Adobe Illustrator 22.1.0, SVG Export Plug-In . SVG Version: 6.00 Build 0)  -->
<svg version="1.1" id="Слой_4" xmlns="http://www.w3.org/2000/svg" xmlns:xlink="http://www.w3.org/1999/xlink" x="0px" y="0px"
	 viewBox="0 0 512 512" style="enable-background:new 0 0 512 512;" xml:space="preserve">
<style type="text/css">
	.st0{fill:#FDCD95;stroke:#000000;stroke-width:3;stroke-linecap:round;stroke-linejoin:round;stroke-miterlimit:10;}
	.st1{fill:#662227;stroke:#000000;stroke-width:3;stroke-linecap:round;stroke-linejoin:round;stroke-miterlimit:10;}
	.st2{fill:none;stroke:#000000;stroke-width:3;stroke-linecap:round;stroke-linejoin:round;stroke-miterlimit:10;}
	.st3{fill:none;stroke:#000000;stroke-width:2;stroke-linecap:round;stroke-linejoin:round;stroke-miterlimit:10;}
	.st4{fill:#816164;stroke:#000000;stroke-width:3;stroke-linecap:round;stroke-linejoin:round;stroke-miterlimit:10;}
	.st5{fill:#8A242E;stroke:#000000;stroke-width:3;stroke-linecap:round;stroke-linejoin:round;stroke-miterlimit:10;}
	.st6{fill:none;stroke:#000000;stroke-width:2.8163;stroke-linecap:round;stroke-linejoin:round;stroke-miterlimit:10;}
</style>
<path class="st0" d="M251.6,179.3c0,0,2,16.3-3.3,23.3c-3.7,4.9-20.3,11.3-20.3,11.3l-13.8,13.8l49.7,18.5l28.9-2.8
	c0,0,13.8-7.8,13.8-8.8s0-17.5,0-17.5s-18.2-7.5-20.1-28.3v-14l-8.7,4.8L266,181L251.6,179.3z"/>
<path class="st1" d="M233.3,159.6c0,0-11-8.3-17-5c-6,3.3-9.9-6.5-11.1-10.3c-0.8-2.6-6.2-6.2-9.9-9.7c-2.4-2.3-3.9-10.6-3.7-14
	c0.4-5.6-0.6-13.5-3-17.7c-1.6-2.8-3.7-14,1.7-18c5.3-4,9.3-17.7,9-22.3c-0.3-4.7,4-14.3,15.2-14c7.5,0.2,19.8-10,21.8-15.7
	s22.8-22,33.7-4c0,0,19-3.7,29.3,8.7c10.3,12.3,20.7,11.3,20.7,11.3s13.7,3.7,10,18.8c-3.7,15.2,1.7,19.9,5.3,22.4
	c3.7,2.4,7.7,13.4,4.7,19.8c-3,6.3-7,20.7-7,23.7s-0.5,15-7.8,18.7c-7.2,3.7-12.8,7.9-15.6,12c-2.1,3-16,4.7-17,2
	c-1-2.7-11,3.3-11,3.3s-4,5.7-6,6.3s-18.7,1.7-20.3,0s-14.3-6-14.7-7S233.3,159.6,233.3,159.6z"/>
<path class="st0" d="M228.4,78.3c5.8-1,16.4-5.2,20.1-9.7c0.4-0.4,0.7-0.9,1.1-1.4c6.7-8.3,11.3-9.3,14.3-11c2-1.1,6.8-3.8,8.9-7.3
	c1-1.7,0-3.6,0.7-5.7l-1.7,7c34.7-7,16.2,33.7,26.5,37.7s15,12.4,15,12.4l-4.2,4.8c3-3.5,8.4-8.3,12.6-4.2c6,5.7,7.5,28.8-13.4,37.3
	c-5.3,28.5-22.3,49.4-42.5,49.4c-20.7,0-38.1-22.1-42.9-51.8c-16.7-4.8-22.2-24.5-15.3-32.8c5.7-6.9,12.1-2.9,15.3-0.1
	c1.5-9.1,4.1-17.5,7.7-24.7"/>
<path class="st2" d="M308.7,67.6c0,0,1.6-10.3-6.4-12.7c-8-2.3-10-6.6-10.7-9.3c-0.8-3-5.9-11.3-17.1-9"/>
<path class="st3" d="M211.3,107.7c0,0,6.4,9.1,7.8,14.1"/>
<path class="st3" d="M209.8,115.2c0,0,4.6-1.5,6.3,0"/>
<path class="st3" d="M318.9,110.9c0,0-6.4,9.1-7.8,14.1"/>
<polygon class="st4" points="205.5,449.6 209.8,556.9 340.6,542.1 326.7,436.9 "/>
<path class="st3" d="M320.4,118.4c0,0-4.6-1.5-6.3,0"/>
<path class="st2" d="M270,28.9c0,0,2,3.2,3.2,7c0.7,2.3,1.1,4.9,0.5,7.2"/>
<path class="st2" d="M231.8,57.8c0,0,6.5-10.3,13.6-11.5c7.1-1.2,13-3.7,14.2-5.6c2.1-3.4,8.1-8.9,11.2-8.4"/>
<path class="st3" d="M258.1,103.7c0,0,3.3,21.7-1.5,28.9c-0.7,1.1-0.6,2.5,0.4,3.3c1.4,1.1,4,2.2,9,1.7"/>
<path class="st3" d="M270.9,129.3c0,0,3.5,5,1.3,8.4"/>
<path class="st0" d="M177.8,448.1c0,0,1.9,29.1,13.3,40.6c11.4,11.5,20.6,10.1,20.6,10.1l-3.9-49L177.8,448.1z"/>
<path d="M257.2,145.8c0,0,15.6-0.7,18.8,4.8c3.2,5.5,4.6,14,3.6,17.3c-1,3.3-16-11.7-16.6-12.2C262.4,155.3,257.2,145.8,257.2,145.8
	z"/>
<path class="st5" d="M244.3,205.9c0,0-36.3,5.8-44.2,33.7c-7.9,27.9-39.3,153.7-25.7,203.1c0,0,6.4,16.4,36.5,9.3v-5
	c0,0,72.2,32.5,119-1.4l-3.2-125.1c0,0,14.3-8.2,13.9-29.7c-0.4-21.4-11.1-73-46.9-84.8C293.7,205.9,281.1,241.3,244.3,205.9z"/>
<path class="st2" d="M324.2,267.8c0-1.4-30.4-61.9-30.4-61.9s-7.7,13.1-20.2,12.8c0,0,18.5,126.8,53.1,101.7"/>
<path class="st0" d="M273.9,218.5c0,0-12.6-27.5-27.7-38.5c-9.3-6.8-14.3-22.7-8-25c0,0-6.3-13.3,2-12.3c0,0,0.3-10.7,8-2.7
	c0,0,1.3-10,12,3.7c10.7,13.7,18.3,22,18.3,22s-3-22.3,2.7-17.3c0,0,7.3,18.7,7.3,22c0,3.3-0.9,31.9,2.7,39
	C291.2,209.3,278.3,224.1,273.9,218.5z"/>
<path class="st2" d="M251.6,174c0,0-11.9-15.3-13.3-19"/>
<path class="st2" d="M257.2,170.3c-0.9-1-17.2-25.8-16.9-27.7"/>
<path class="st2" d="M263.4,164.5c0,0-13.8-20.1-15.1-24.5"/>
<line class="st2" x1="283.2" y1="170.3" x2="278.6" y2="165.7"/>
<line class="st2" x1="235.3" y1="100.9" x2="249" y2="93.8"/>
<line class="st6" x1="278.5" y1="92.1" x2="292.6" y2="98.9"/>
<path class="st2" d="M235.2,111.5c0,0,8.7,5.3,17,0"/>
<path class="st2" d="M277.9,111.7c0,0,11.3,5.7,17.3-1.3"/>
<path class="st3" d="M244.6,85.8c0,0,9.3-2.4,15,0.1c5.7,2.5,9.9-0.2,12.1-1.2c2.2-1,3.3-1.4,6.5-2.1c4.2-0.9,10.5,0.6,10.5,0.6"/>
<path class="st3" d="M246.8,79c0,0,8.4-2,13.5,0.2c5.1,2.1,8.9-0.1,10.9-1s3-1.2,5.8-1.7c3.8-0.7,9.5,0.5,9.5,0.5"/>
<path class="st3" d="M237.1,106.4c0,0,6.4-1.1,10.1-0.1"/>
<path class="st3" d="M279.9,105.2c0,0,5.5-2.5,11.3,0"/>
<path class="st3" d="M251.6,127.7c0,0-5.3,5.4-5.8,8.8"/>
<path class="st3" d="M275.6,128.3c0,0,9.3,8.8,10.7,14.2"/>
<path class="st2" d="M219.1,287.3c0,0-13.7,133.8-8.3,159.7"/>
</svg>
