<?xml version="1.0" encoding="utf-8"?>
<!-- Generator: Adobe Illustrator 22.1.0, SVG Export Plug-In . SVG Version: 6.00 Build 0)  -->
<svg version="1.1" id="Слой_3" xmlns="http://www.w3.org/2000/svg" xmlns:xlink="http://www.w3.org/1999/xlink" x="0px" y="0px"
	 viewBox="0 0 512 512" style="enable-background:new 0 0 512 512;" xml:space="preserve">
<style type="text/css">
	.st0{fill:#857154;}
	.st1{fill:#FDCD95;}
	.st2{fill:#FDCD95;stroke:#000000;stroke-width:3;stroke-linecap:round;stroke-linejoin:round;stroke-miterlimit:10;}
	.st3{fill:none;stroke:#1D1D1B;stroke-width:3;stroke-linecap:round;stroke-linejoin:round;stroke-miterlimit:10;}
	.st4{fill:none;stroke:#000000;stroke-width:3;stroke-linecap:round;stroke-linejoin:round;stroke-miterlimit:10;}
	.st5{fill:#FFFFFF;}
	.st6{fill:#FFAFB9;}
	.st7{fill:#B5D758;stroke:#000000;stroke-width:3;stroke-linecap:round;stroke-linejoin:round;stroke-miterlimit:10;}
	.st8{fill:none;stroke:#000000;stroke-width:3;stroke-miterlimit:10;}
</style>
<g>
	<path d="M314.3,349.1c0,0,8.4,16.6,9.5,0C325,332.5,339,301,339,301l-1.8-3.6l-10.5-2.2c0,0-10.4,17-10.4,18s-3.8,24.3-3.8,24.3
		L314.3,349.1L314.3,349.1"/>
	<g>
		<polyline points="178.4,213.8 199.9,210.2 197.8,228.6 178.4,213.8 		"/>
		<polygon points="253.2,207.4 272.4,213 256.3,231.2 252.5,217.9 		"/>
		<path class="st0" d="M252.8,199.2v5.1l13.8,3.3l16.9-2.3l13-7.3l12.4-14.9c0,0,10.1-15.6,10-31s-1.1-25.9-1.1-25.9
			s-3.9-24.4-8.1-29.8c-4.2-5.3-7.7-19.9-12.6-22.7s-9.3-15.6-18.1-19l-13.9-8.3l-11.3-3.6l-14.7-1.1l-2.9,1.9l-8.8-3.1l-7.6-0.9
			l-11.5,2.1L204,44l-7.2-0.1l-16.4,4.7l-10.2,6.7l-13.6,14.3l-10.5,19.3c0,0-4.4,12.1-5.2,14.9c-0.7,2.8-4.7,29.8-4.4,35.7
			s4,27.4,6.2,32.5c2.2,5.1,9,17,10.3,18.6s10.9,12.3,19.4,13.8s11.9,2.7,16.7,2.8c4.7,0.2,8.6-1.8,8.6-1.8l7.9-16l25.9-0.8
			c0,0,11.7,3.3,12.7,3.6c1,0.3,8.5,3.3,8.5,3.3V199.2z"/>
		<path class="st1" d="M254.6,233.6l-12,4.7l-15.2,2.2c0,0-17.4-0.7-22.3-3.4s-7.2-4.4-7.2-4.4l1.1-32.9c0,0-19.9-10.5-26.4-22.2
			s-10-21.6-10-21.6l-2.2-22.2l6.1-6.6l4.9-8.8l4.4,3l4.8,0.6l7.1-8.9l5.8-12.7l2.2,5l4.7,3l3.7-3.2l6.2-12.9l0.2,6.9l3.1,3l5.3-0.4
			l5.2-5.2l4.5,2.9l4.1,3.2l5,0.6l4.9-4.2l4.5-6.7l2.2,6.5l4.7,9l2.6,3.8h2.8l5.2-4l2.8,8.8l3.4,4.2l6-0.9l2.1,7.5l2.6,4.2l5.3-0.6
			l2.6-3.3L290,143l-5.8,23.4l-10.4,16.2l-16.3,14.2l-6.3,2.9L254.6,233.6z"/>
		<path class="st2" d="M289.4,127.5c0.8-0.3,1.7-0.4,2.6-0.3c5.2,0.6,8.7,8.1,7.7,16.8c-1,8.7-6.1,15.2-11.3,14.6
			c-0.4-0.1-0.8-0.1-1.2-0.3"/>
		<path class="st3" d="M160.2,132.3c0,0.4,0,0.8,0,1.3"/>
		<path class="st4" d="M164.6,162.5c3.3,8.9,8.5,16.9,14.9,23.5c5.3,5.4,11.5,9.9,18.3,13.2c8.3,4,17.6,6.2,27.3,6.2
			s19-2.2,27.3-6.2c7.1-3.4,13.4-8.1,18.8-13.7c7.1-7.5,12.6-16.7,15.8-27c2-6.4,3-13.3,3-20.4c0-3.6-0.3-7.1-0.8-10.5"/>
		<path class="st4" d="M197.8,199.2L197.8,199.2v6.1v1.9v25.4c25.5,19,56.8,0.9,56.8,0.9"/>
		<polyline class="st4" points="254.6,233.6 252.8,204.2 252.5,199.2 252.5,199.2 		"/>
		<path class="st2" d="M164.6,162.5c-0.8,0.6-1.6,1-2.6,1.2c-5.2,1.1-10.8-4.9-12.7-13.5c-1.8-8.6,0.9-16.4,6-17.5
			c1.6-0.3,3.2,0,4.8,0.9c0,1.5,0,3.3,0,4.4C160.2,146.7,161.7,154.9,164.6,162.5z"/>
		<path class="st3" d="M160.3,133.7c-0.1,0-0.1-0.1-0.2-0.1"/>
		<path class="st4" d="M197.8,205.2c-6,2-12.2,2.6-18.4,1.6c-30-4.8-48.5-45.1-41.2-90c7.1-44.1,36.3-76.3,65.8-72.8"/>
		<path class="st4" d="M234.6,43.4c30.7-7.9,65.8,20.4,79.2,64.3c13.6,44.7-0.6,88.6-31.7,98c-9.6,2.9-19.6,2.2-29.3-1.4"/>
		<path class="st3" d="M204,44c4.5-2.7,9.9-4.3,15.8-4.3c5.4,0,10.5,1.4,14.8,3.7"/>
		<path class="st4" d="M152.3,93.6c0,0-1.4,63.4,15.9,28.1c0,0,1.9-3.4,4.2-7.6c3.1-5.5,6.9-12.3,8-13.8"/>
		<path class="st4" d="M289.4,127.5c0,0-8.2,14.9-12.6-7.8c0,0-8.5,7.5-11.6-11.2"/>
		<path class="st4" d="M268.6,93.6c0,0-4.4,30.8-16.1,12.2c0,0-5.9-10.8-5.9-16.9c0,0-5.8,28.1-21.4,6.4c0,0-16.2,18.6-14.9-4.7
			c0,0-9.2,32.8-16.9,9.8c0,0-11.9,34.9-22.1,15.9"/>
		<path class="st4" d="M281.5,67.2c0,0,15.3,23.4,16.9,44.4"/>
		<path class="st4" d="M180.5,69.6c0,0-13.8,11.5-15.9,28.1"/>
		<path class="st4" d="M214.7,152.1c0,0,9-5.4,16.5-0.6"/>
		<path class="st4" d="M192.7,172c0,0,1,6.8,4,8.3"/>
		<path class="st4" d="M254.9,169.7c0,0-0.5,5.2-1.9,8"/>
		<ellipse cx="199" cy="137.4" rx="6.3" ry="9.8"/>
		<ellipse class="st5" cx="199" cy="137.4" rx="2.4" ry="3.7"/>
		<path class="st4" d="M186.9,133.2c0,0,8.6-9.6,24.4-1.6"/>
		<ellipse cx="244" cy="137.4" rx="6.3" ry="9.8"/>
		<ellipse class="st5" cx="243.9" cy="137.4" rx="2.4" ry="3.7"/>
		<path class="st4" d="M231.9,133.2c0,0,10.9-10.4,24.4-0.3"/>
		<path class="st4" d="M181.2,123.9c0,0,14.6-15.7,30.2-4.1"/>
		<path class="st4" d="M259.2,122.8c0,0-14.6-15.7-30.2-4.1"/>
		<g>
			<polygon points="202.7,176 245.6,174.3 238.1,183.3 232,186.9 219.2,187.9 208.4,182.4 			"/>
			<path class="st5" d="M202.7,176c0,0,15.5,6.8,42.1,0l1.6-4.5l-44.8,1.9L202.7,176z"/>
			<path class="st6" d="M213.3,185.7c0,0,20.9-6.2,27.5-4.7l-8.7,5.9C232,186.9,220.8,191.4,213.3,185.7z"/>
			<path class="st4" d="M246.4,171.5c-12.2,1.9-34.2,2-44.8,1.9c1.4,5.7,11.4,15.1,22.3,15.2C236,188.6,246.1,177,246.4,171.5z"/>
		</g>
		<g>
			<path class="st2" d="M314.3,339.6c0,0,26,31,41,17.7s19-37,19-38.5s7.3-48.5,10.3-53.2c3-4.7,12.5-15.6,14.9-19.9
				c3.2-5.8,21.5-49.4,8.8-41.8l-5.3,5.8c0,0,11-26.3-1.5-16l-3.5,6.5c0,0,7.7-27.2-2.3-12.8c-10,14.3-12.7,26.6-12.7,26.6
				s10.3-40.6-0.7-27.1s-17.2,34.3-17.2,34.3s-1.6-6.2-1.6-8.8c0-3.2-2.1-11-5.6-7.2c-3.4,3.7-7.7,32.9-1.1,48.4
				c0.4,1,0.5,2.1,0.4,3.2c-1.2,7.9-6.6,39.4-18.2,45.2l-7.2-5l-13.7,3.2L314.3,339.6z"/>
			<path class="st4" d="M328.5,326.4c0,0,4.3-20.3,10.5-24.3"/>
			<path class="st4" d="M368,234.1c0,0-1.2-9.5-2.8-12.8"/>
			<line class="st4" x1="381.8" y1="220.4" x2="383.2" y2="213.2"/>
			<path class="st4" d="M389,221.3c0.2-0.8,9-21,9-21"/>
			<line class="st4" x1="396.7" y1="224.1" x2="403.4" y2="208.7"/>
			<path class="st7" d="M187.4,214.5c0,0-30.7-4.9-44.2,19.5c-6.9,12.5-35.5,106-35.5,106s13,18,32.5,17.5l16-5l-6.5,105
				c0,0,72,33.5,160.5,0l-4.5-118l12.5,14c0,0-1-43,19-56c0,0-13.5-88.9-65-83C272.2,214.5,224.8,271.3,187.4,214.5z"/>
			<g>
				<path class="st8" d="M202.7,338.6h-23.8c-3.7,0-6.8-3-6.8-6.8v-27.6c0-3.7,3-6.8,6.8-6.8h23.8c3.7,0,6.8,3,6.8,6.8v27.6
					C209.5,335.5,206.4,338.6,202.7,338.6z"/>
				<path class="st8" d="M173.4,300.4l13.3,13.5c2.2,2.3,5.9,2.2,8-0.2l12.6-14.3"/>
			</g>
			<line class="st4" x1="161" y1="293.6" x2="156.2" y2="352.4"/>
			<line class="st4" x1="303" y1="293.6" x2="305.7" y2="341.6"/>
			<path class="st2" d="M112,344.9c0,0-15.4,34.7-12.4,44.7c2.9,9.5,13.6,25.7,55.1,8.4c3.9-1.6,7.5-3.7,10.9-6.2
				c7.5-5.5,22.2-16,29-18.9c9.3-4,40.8-8,43-21.8c0,0,11.5-10.8,1.8-11.5c0,0,8.2-13.8-1.2-14.2c0,0,4-12.7-12.3-6.7
				c0,0,18.8-28.5,8.7-28.2c-1.8,0.1-3.4,1-4.6,2.4c-4.1,5-16.5,19.7-19.1,18.2c0,0-19.2,1.5-26.2,11.9s-22.7,28.4-32.7,30.7
				c-10,2.2-12.8,3.7-12.8,3.7l-11.7-2.2L112,344.9z"/>
			<path class="st4" d="M113.3,365.1c0,0,32.7-1.8,42.8-12.7"/>
			<path class="st4" d="M200.5,318.8c0,0,7.7-1.9,11.9-7.8"/>
			<path class="st4" d="M231.5,334.3c0,0,6.4-6,6.8-8.8"/>
			<path class="st4" d="M234.2,343.2c0,0,4.7-2.3,5.3-3.6"/>
			<path class="st4" d="M231.5,353.1c0,0,4.5-0.2,6.2-2"/>
		</g>
	</g>
</g>
</svg>
