<?xml version="1.0" encoding="utf-8"?>
<!-- Generator: Adobe Illustrator 23.1.0, SVG Export Plug-In . SVG Version: 6.00 Build 0)  -->
<svg version="1.1" id="Слой_1" xmlns="http://www.w3.org/2000/svg" xmlns:xlink="http://www.w3.org/1999/xlink" x="0px" y="0px"
	 viewBox="0 0 283.5 283.5" style="enable-background:new 0 0 283.5 283.5;" xml:space="preserve">
<style type="text/css">
	.st0{fill:#8EC757;}
	.st1{fill:#FBC595;}
	.st2{fill:#FFDC4D;}
	.st3{fill:#FFFFFF;}
	.st4{fill:#ED232C;}
</style>
<g>
	<path class="st0" d="M168.9,180.6c0,0-26.2-43.5-50.7-37c-2.1,0.1-4.3,0.2-6.4,0.4c-24-6.5-47.2,37-47.2,37l17.8,8.7l-6.8,64.4
		c0,0,13.1,3.3,41.7,3.3c23.8,0,39.8-3.6,39.8-3.6l-6.4-61.3L168.9,180.6z"/>
	<path class="st1" d="M160.2,96.7c-1.7-2-5.2-1.9-8.4,0c-2.8-17.3-17.7-30.5-35.6-30.5c-18,0-33,13.4-35.6,30.9
		C77,94.7,72.8,94.6,71,97c-2,2.5-0.5,6.9,3.2,9.8c2.1,1.6,4.6,2.4,6.6,2.3c2.4,13.8,12.4,24.9,25.5,28.8c0,2.3,0,5.1,0,5.3
		c-2,0.7-4.6,1.1-6.4,2.2c2.7,5.9,9.3,10.6,16.2,10.6c7.1,0,13.8-4.5,16.4-10.7c-1.8-1-4.3-1.7-6.3-2.3c0-0.1,0-2.8,0-5
		c12.8-3.7,22.7-14.5,25.4-27.9c1.8-0.4,3.8-1.3,5.6-2.9C161,103.8,162.3,99.1,160.2,96.7z"/>
	<path class="st2" d="M97.1,62.1c0.1-0.3-1.4-11-5.2-9.1C87.5,55.3,97.1,62.1,97.1,62.1z"/>
	<path class="st2" d="M95.9,61.3c-0.2-0.2-8.3-3.9-8.6-0.5C86.9,64.9,95.9,61.3,95.9,61.3z"/>
	<g>
		<g>
			<path d="M104.2,95.6c-1.8,0.1-3.1,2.1-3,4.3c0.2,2.3,1.7,4,3.5,3.9c1.8-0.1,3.1-2.1,3-4.3C107.6,97.2,106,95.4,104.2,95.6z"/>
			<path d="M126.8,95.6c-1.7-0.1-3.3,1.6-3.4,3.9c-0.2,2.3,1.1,4.2,2.9,4.3c1.7,0.1,3.3-1.6,3.4-3.9
				C129.8,97.6,128.6,95.7,126.8,95.6z"/>
			<path d="M115.4,107.3c-1.9,0.1-3.7,1.3-4.6,3.1c-0.2,0.4,0,0.9,0.4,1.1c0.1,0.1,0.2,0.1,0.4,0.1c0.3,0,0.6-0.2,0.7-0.4
				c0.6-1.3,1.9-2.2,3.3-2.2c1.4-0.1,2.7,1.2,3.2,2c0.2,0.4,0.7,0.5,1.1,0.4c0.4-0.2,0.5-0.7,0.4-1.1
				C119.4,108.7,117.5,107.1,115.4,107.3z"/>
			<path d="M106.7,86.8l0.2-0.1c0.4-0.2,0.6-0.6,0.4-1c-0.2-0.4-0.6-0.6-1-0.4l-0.2,0.1c-2.5,1.1-4.7,2.1-7,5.5
				c-0.2,0.4-0.1,0.9,0.2,1.1c0.1,0.1,0.3,0.1,0.4,0.1c0.3,0,0.5-0.1,0.7-0.4C102.4,88.7,104.3,87.9,106.7,86.8z"/>
			<path d="M131.7,90.7l-0.1-0.2c-1.8-2.1-3.3-4-7.1-5.3c-0.4-0.1-0.9,0.1-1,0.5c-0.1,0.4,0.1,0.9,0.5,1c3.4,1.1,4.7,2.7,6.4,4.8
				l0.1,0.2c0.2,0.2,0.4,0.3,0.6,0.3c0.2,0,0.4-0.1,0.5-0.2C132,91.5,132,91,131.7,90.7z"/>
		</g>
		<path class="st3" d="M97.6,114.4c0,0,5.8,4.5,17.8,5c10.8,0.5,17.9-5,17.9-5s-5.2,4.6-7.5,7.9c-3,4.4-4.4,8.6-10.3,8.4
			c-5.1-0.1-7.1-4.8-10.2-8.7C102,117.8,97.6,114.4,97.6,114.4z"/>
		<path d="M136.4,114.2c0,0-2.3-1.1-2.9-3.6c-0.1-0.4-0.5-0.7-1-0.6c-0.4,0.1-0.7,0.5-0.6,1c0.2,0.8,0.5,1.4,0.9,1.9
			c-0.1,0-0.1,0.1-0.2,0.1c-0.2,0.2-6.3,4.7-15.6,4.7c-0.4,0-0.8,0-1.2,0c-11.1-0.5-16.7-4.5-16.9-4.7c-0.1-0.1-0.2-0.1-0.2-0.1
			c0.7-0.8,1-1.5,1-1.6c0.2-0.4,0-0.9-0.4-1c-0.4-0.2-0.9,0-1,0.4c0,0-1,2.3-3.6,3.1c-0.4,0.1-0.7,0.6-0.5,1
			c0.1,0.3,0.4,0.6,0.8,0.6c0.1,0,0.1,0,0.2,0c0.5-0.1,0.9-0.3,1.3-0.6c0,0.1,0.1,0.3,0.2,0.4c0.1,0.1,0.2,0.2,0.3,0.3
			c0,0,0.1,0,0.1,0.1c0.2,0.2,4.4,3.4,7.4,7.2c0.6,0.8,1.3,1.7,1.8,2.5c2.3,3.3,4.8,6.7,9.6,6.8c0.1,0,0.2,0,0.4,0
			c5.5,0,7.7-3.5,9.9-7c0.4-0.7,0.9-1.4,1.4-2.1c2-3,6.8-7.2,7.2-7.6c0.1-0.1,0.2-0.3,0.3-0.4c0.5,0.3,0.8,0.5,0.8,0.5
			c0.1,0,0.2,0.1,0.3,0.1c0.3,0,0.6-0.2,0.7-0.5C137,114.8,136.8,114.4,136.4,114.2z M126.1,122.2c-3,4.3-4.4,8.4-10,8.4
			c-0.1,0-0.2,0-0.3,0c-5.1-0.1-7.1-4.8-10.2-8.7c-3.3-4.1-7.6-7.4-7.7-7.5c0.1,0.1,5.9,4.5,17.8,5c0.4,0,0.9,0,1.3,0
			c10.1,0,16.6-5.1,16.6-5.1S128.3,118.9,126.1,122.2z"/>
	</g>
	<path class="st2" d="M96.6,62.2c0,0-33.3,7.5-16.9,34.5c0,0,3-20.5,19.6-27.3L96.6,62.2z"/>
	<path class="st2" d="M127,81.7c0,0-17.2,0.6-27.3-11.9c-2.3-2.9-2.9-5.5-2.2-7.8c0.6-2.1,3.6-6.5,12.7-7.6c6.1-0.8,15.3-1.4,27,5.3
		c11.4,6.6,19.3,17.8,19.4,24.2c0,6.9-4.8,11.8-4.8,11.8s-3.5-2.3-12.5-8.3c-7.8-5.3-13.5-11.3-13.5-11.3L127,81.7z"/>
	<path class="st1" d="M127.4,189.4c11.2,8.7,27,26.6,37.6,30.1c3.9,1.3,6.5-0.7,7.5-3.6c2.1-6.3-7-31.8-7-31.8l-10.9,6.8l5.2,10.4
		L132.1,182c-0.5-1.8,0-2.5-0.9-5.5c-0.9-2.9,0.7-7.1,0.7-8.9c0-0.3-4.5-1.1-5.4,7.5c-0.5,0.5-11.2-8.2-11.2-8.2
		c-2.9-2.2-4.2-2-4.6-1.3c-0.4,0.7,0.1,1.7,1.7,3.3l5.3,5.4l-11.7-6c-1.1-0.5-2.5-0.4-3,0.1c-0.9,0.9,1.9,3.2,2.6,3.5l6.7,5.6
		l-6.3-2.8c-2.6-1.1-3.4-0.4-3.6,0.4c-0.3,0.7,1.8,2,5.6,4.3l5.4,3.4c0,0-8.3-3.6-8.8-0.8c-0.1,0.7,4.6,3.5,11,5.6
		C120,189.2,123.5,190.3,127.4,189.4z"/>
	<path class="st1" d="M101.9,195.3c-11.2,8.7-26.4,19.3-36.8,23.4c-2.8,1.1-5.6,0.5-6.6-2.4c-3-9,8.4-32.3,8.4-32.3l11.3,5.3
		l-4.9,10.3l23.9-11.7c0.5-1.8,0-2.5,0.9-5.5c0.9-2.9-0.7-7.1-0.7-8.9c0-0.3,4.5-1.1,5.4,7.5c0.5,0.5,11.2-8.2,11.2-8.2
		c2.9-2.2,4.2-2,4.6-1.3c0.4,0.7-0.1,1.7-1.7,3.3l-6,5.8l12.3-6.2c1.1-0.5,1.9-0.3,2.5,0.3c0.9,0.9-0.4,2.1-1.1,2.5l-10.9,7.2
		l9.6-3.7c2.6-1.1,3.4-0.4,3.6,0.4c0.3,0.7-1.8,2-5.6,4.3l-5.4,3.4c0,0,10.5-3.9,11-1.2c0.1,0.7-6.8,3.8-13.2,6
		C109.3,195.1,105.8,196.3,101.9,195.3z"/>
	<g>
		<path class="st4" d="M218.8,50.7c-3.2-1.7-7.9,0-11.7,3.8c-3.8-3.7-8.4-5.3-11.5-3.6c-4.2,2.2-4.2,9.4-0.1,16.1
			c4.1,6.6,12.1,12.2,12.1,12.2s9.5-9.3,11.4-12.5C223,60.1,223,52.9,218.8,50.7z"/>
		<g>
			<path d="M164.4,81.4c-0.3-0.1-0.6-0.1-0.8-0.1c-1.8,0-3.3,1.3-3.7,3c-0.2,1,0,2,0.5,2.9c0.5,0.9,1.4,1.5,2.4,1.7
				c0.3,0.1,0.6,0.1,0.8,0.1c1.8,0,3.3-1.3,3.7-3c0.2-1,0-2-0.5-2.9C166.3,82.2,165.4,81.6,164.4,81.4z M165.8,85.6
				c-0.2,1-1.2,1.7-2.2,1.7c-0.2,0-0.3,0-0.5-0.1c-1.2-0.3-2-1.5-1.7-2.7c0.2-1,1.2-1.7,2.2-1.7c0.2,0,0.3,0,0.5,0.1
				C165.3,83.2,166.1,84.4,165.8,85.6z"/>
			<path d="M170.8,76c-0.2-0.1-0.5-0.1-0.7-0.1c0,0,0,0,0,0c-1.6,0-2.9,1.1-3.3,2.6c-0.4,1.8,0.7,3.6,2.5,4c0.2,0.1,0.5,0.1,0.7,0.1
				c1.6,0,2.9-1.1,3.3-2.6c0.2-0.9,0-1.8-0.4-2.5C172.4,76.8,171.6,76.2,170.8,76z M171.8,79.7c-0.2,0.8-0.9,1.4-1.7,1.4
				c-0.1,0-0.3,0-0.4,0c-1-0.2-1.6-1.2-1.4-2.1c0.2-0.8,0.9-1.4,1.7-1.4c0.1,0,0.3,0,0.4,0C171.4,77.8,172,78.7,171.8,79.7z"/>
			<path d="M241,58.2c0.1-0.6,0.1-1.3,0.1-1.9c0-12.7-10.4-23.1-23.1-23.1c-5.3,0-10.5,1.8-14.6,5.2c-2.9-1.3-6-2-9.2-2
				c-10.5,0-19.6,7.7-21.4,18c-3.2,2.5-5,6.3-5,10.3c0,7,5.4,12.7,12.3,13.1c3.9,10,13.5,16.6,24.2,16.6c7.9,0,15.4-3.7,20.4-9.8
				c1.7,0.6,3.5,0.9,5.3,0.9c8.8,0,15.9-7.1,15.9-15.9C245.8,65.3,244.1,61.2,241,58.2z M230,83.9c-2.1,0-4-0.4-5.8-1.2
				c-4.4,6.2-11.7,10.2-19.8,10.2c-10.7,0-19.9-6.9-23.1-16.6c-0.1,0-0.2,0-0.3,0c-6.4,0-11.6-5.2-11.6-11.6c0-3.9,1.9-7.4,4.9-9.5
				c1.3-9.8,9.7-17.3,19.9-17.3c3.4,0,6.6,0.8,9.4,2.3c3.8-3.4,8.8-5.5,14.4-5.5c11.9,0,21.5,9.6,21.5,21.5c0,0.9-0.1,1.7-0.2,2.5
				c3,2.6,4.9,6.5,4.9,10.7C244.3,77.5,237.9,83.9,230,83.9z"/>
			<path d="M219.6,49.3c-1.1-0.6-2.3-0.9-3.6-0.9c-2.9,0-6.1,1.4-9,3.9c-2.8-2.4-5.9-3.7-8.7-3.7c-1.3,0-2.5,0.3-3.6,0.9
				c-1.8,1-3,2.6-3.6,4.8c-1,3.8,0.1,8.9,2.9,13.4c4.2,6.8,12.2,12.4,12.5,12.7c0.3,0.2,0.6,0.3,0.9,0.3c0.4,0,0.8-0.2,1.1-0.4
				c0.4-0.4,9.6-9.4,11.7-12.8c2.8-4.6,3.9-9.6,2.9-13.4C222.6,51.9,221.3,50.2,219.6,49.3z M218.9,66.7c-2,3.2-11.4,12.5-11.4,12.5
				s-8-5.6-12.1-12.2c-4.1-6.6-4-13.8,0.1-16.1c0.8-0.5,1.8-0.7,2.8-0.7c2.7,0,5.9,1.6,8.7,4.3c2.8-2.8,6.1-4.5,8.9-4.5
				c1,0,2,0.2,2.8,0.7C223,52.9,223,60.1,218.9,66.7z"/>
		</g>
	</g>
	<path d="M166.4,184.7c-0.1-0.1-0.1-0.3-0.2-0.4l3.6-2.4c0.7-0.5,0.9-1.4,0.5-2.1c-0.8-1.4-18.9-31.1-39.5-37.2
		c-1-0.3-1.9-0.6-2.9-0.9c0,0,0,0-0.1,0c0-0.6,0-1.5,0-2.7c12.5-4.1,22.2-14.6,25.1-27.8c1.8-0.5,3.7-1.6,5.3-3
		c4.5-3.9,5.9-9.5,3.2-12.6c-1.1-1.3-2.8-2-4.8-2c-0.5,0-1,0.1-1.5,0.1c1.4-2.3,2.9-5.7,2.9-9.9c0-6.8-7.7-18.5-20.2-25.6
		c-7-4-14-6-21.3-6c-2.6,0-4.9,0.2-6.6,0.5c-5.9,0.7-9.7,2.9-11.9,5.2c-0.5-2-1.3-4.1-2.4-5.5c-1-1.2-2.1-1.4-2.8-1.4
		c-0.5,0-1.1,0.1-1.6,0.4c-1.2,0.6-1.9,1.6-2,2.8c-0.1,1.1,0.4,2.3,1.2,3.4c-0.4,0-0.7-0.1-1-0.1c-3.1,0-3.6,2.2-3.7,2.9
		c-0.1,1.3,0.3,2.1,0.7,2.5c0.3,0.3,0.7,0.6,1.1,0.8C82.8,66.3,77.5,70.1,75,76c-2.2,5.3-1.8,11.2,1.4,17.8
		c-0.4-0.1-0.9-0.1-1.3-0.1h0c-2.3,0-4.1,0.8-5.3,2.4c-2.5,3.3-1,8.5,3.5,12c1.9,1.5,4.1,2.4,6.2,2.6C82.2,124,92,134.8,104.7,139
		c0,1.2,0,2.2,0,2.9c-0.2,0-0.3,0.1-0.5,0.1c-21.7,2.7-40.2,36.8-41,38.3c-0.2,0.4-0.2,0.8-0.1,1.2c0.1,0.4,0.4,0.7,0.8,0.9l1.6,0.8
		c-0.7,1.4-11.6,24-8.5,33.5c0.8,2.5,2.9,4,5.5,4c1,0,2.1-0.2,3.1-0.6c3.8-1.5,8.2-3.8,12.6-6.5L74,254c-0.1,0.8,0.4,1.5,1.2,1.7
		c0.5,0.1,13.7,3.4,42.1,3.4c23.7,0,40-3.6,40.2-3.6c0.8-0.2,1.3-0.9,1.2-1.7l-4-38.5c3.5,2.6,6.8,4.6,9.8,5.6
		c1,0.3,1.9,0.5,2.8,0.5c3.1,0,5.6-1.9,6.6-5.1C176.1,209.7,167.4,187.3,166.4,184.7z M168.9,180.6l-16.7,11.1l-0.1-1.2
		c0,0,0-0.1,0-0.1c-3.4-17.1-8-35.4-16.6-44.2C153.6,155.3,168.9,180.6,168.9,180.6z M154.1,192.4l1.9,4.5l-3.6-2.5l-0.1-0.9
		L154.1,192.4z M156.6,95.3c1.5,0,2.7,0.5,3.6,1.4c2.1,2.4,0.7,7.1-3,10.4c-1.2,1.1-2.6,1.9-3.9,2.4c0.4-2.2,0.6-4.4,0.6-6.7
		c0-2.2-0.2-4.3-0.6-6.4c0.1-0.1,0.3-0.3,0.4-0.5C154.7,95.5,155.7,95.3,156.6,95.3z M97.4,62c0.6-2.1,3.6-6.5,12.7-7.6
		c1.8-0.2,4-0.4,6.4-0.4c5.5,0,12.5,1.1,20.5,5.8c11.4,6.6,19.3,17.8,19.4,24.2c0,6.9-4.8,11.8-4.8,11.8s-3.5-2.3-12.5-8.3
		c-7.8-5.3-13.5-11.3-13.5-11.3l1.2,5.6c0,0-0.1,0-0.3,0c-2.5,0-17.7-0.5-27-11.9C97.4,67,96.8,64.3,97.4,62z M92,53
		c0.3-0.2,0.6-0.2,0.9-0.2c2.1,0,3.4,4.2,3.9,7c0,0.1-0.1,0.1-0.1,0.2c-0.6-0.4-2.2-1.1-3.8-1.5C91,56.4,89.7,54.1,92,53z
		 M87.3,60.8c0.1-1.1,1-1.5,2.1-1.5c1.9,0,4.7,1.1,5.9,1.6c-1.1,0.3-2.9,0.9-5,1.7c-0.2,0-0.4,0-0.6,0
		C88.2,62.8,87.1,62.3,87.3,60.8z M74.1,106.8C70.4,104,69,99.6,71,97c0.9-1.2,2.4-1.8,4.1-1.8c0.7,0,1.5,0.1,2.2,0.3
		c0.3,0.6,0.7,1.3,1.1,1.9c0.1,0.2,0.3,0.4,0.5,0.5c-0.2,1.5-0.3,3.1-0.3,4.7c0,2.1,0.2,4.2,0.5,6.3C77.5,108.8,75.7,108,74.1,106.8
		z M95.7,62.5c-0.3,1.9-0.1,4.5,2.1,7.6c-15.4,7.4-18.2,26.7-18.2,26.7C64.9,72.4,90.5,63.9,95.7,62.5z M80.2,102.7
		c0-1.6,0.1-3.1,0.3-4.6c0.4-0.2,0.7-0.7,0.8-1.2c0-0.2,2.9-18.8,17.6-25.6c9.6,11.4,24.8,12,27.8,12c0.3,0,0.4,0,0.4,0
		c0.5,0,0.9-0.2,1.2-0.6c0.3-0.4,0.4-0.9,0.3-1.3l-0.1-0.4c2.4,2.2,5.9,5.1,9.9,7.8c8.9,5.9,12.4,8.3,12.5,8.3
		c0.3,0.2,0.6,0.3,0.9,0.3c0.1,0,0.1,0,0.2,0c0.3,1.8,0.4,3.6,0.4,5.4c0,20.2-16.1,36.5-36.1,36.5C96.3,139.3,80.2,122.9,80.2,102.7
		z M104.5,143.6c0.2,0,0.5-0.1,0.7-0.1c0,0,0-0.1,0-0.1c0.4-0.1,0.8-0.2,1.1-0.3c0-0.1,0-1.8,0-3.6c3.2,0.9,6.5,1.4,10,1.4
		c3.5,0,6.8-0.5,10-1.4c0,1.7,0,3.3,0,3.3c2,0.6,4.5,1.3,6.3,2.3c-2.6,6.2-9.3,10.7-16.4,10.7c-6.9,0-13.5-4.6-16.2-10.6
		C101.2,144.5,102.9,144.1,104.5,143.6z M116.1,157.4c7.3,0,14.3-4.4,17.4-10.8c9.5,8.8,14.3,30.7,16.9,44.1l0.3,2.5l-17.2-12.1
		c-0.1-0.4-0.1-0.7-0.1-1.1c-0.1-0.9-0.1-2-0.7-3.9c-0.5-1.6,0-3.9,0.3-5.7c0.2-1.1,0.4-2,0.4-2.8c0-0.9-0.7-1.8-2.2-1.8
		c-0.8,0-4.5,0.4-6,6.7c0,0-0.1,0-0.1,0c-2.1-1.5-5.7-4.3-8.9-6.9c0,0,0,0,0,0c-1.9-1.4-3.4-2.1-4.6-2.1c-1,0-1.8,0.4-2.3,1.2
		c-0.9,1.3-0.3,2.7,0.5,3.8l-3.2-1.7c-0.7-0.3-1.5-0.5-2.2-0.5c-1.1,0-2,0.3-2.6,0.9c-0.5,0.5-0.7,1.2-0.6,1.9
		c0.2,1.4,1.7,2.8,2.7,3.5c-0.1,0-0.1,0-0.2,0c-0.9,0-1.6,0.3-2.2,0.8c-1.5-1.5-3-1.7-3.5-1.7c-1.5,0-2.2,0.9-2.2,1.8
		c0,0.8,0.2,1.7,0.4,2.8c0.4,1.8,0.8,4.1,0.3,5.7c-0.6,1.9-0.6,3-0.7,3.9c0,0.4,0,0.7-0.1,1L82,193.6l0.8-7.2
		c5.2-27.3,13.7-37.6,16-40.1C101.9,152.9,109,157.4,116.1,157.4z M119.9,170.5C119.9,170.5,119.9,170.5,119.9,170.5
		c0.9,0.7,2,1.5,2.9,2.2c-0.1,0-0.2,0.1-0.3,0.1l-3.3,1.7C120,173.4,120.8,171.9,119.9,170.5z M105.6,171.8
		c-0.7-0.4-3.5-2.6-2.6-3.5c0.3-0.3,0.9-0.5,1.5-0.5c0.5,0,1,0.1,1.5,0.3l6.8,3.5c-1.2,1-2.5,2.1-3.8,3L105.6,171.8z M107.9,175.5
		c-1,0.8-2,1.5-2.8,2.1c-0.7-0.5-1.3-0.8-1.7-1.2c-0.3-0.7-0.6-1.3-0.9-1.8c0.2-0.3,0.6-0.5,1.2-0.5c0.5,0,1.2,0.2,2.2,0.5
		L107.9,175.5z M112.4,168.8c-1.6-1.6-2.2-2.7-1.7-3.3c0.2-0.3,0.5-0.5,1-0.5c0.7,0,1.9,0.4,3.6,1.8c0,0,1.5,1.2,3.4,2.8
		c-0.3-0.1-0.7-0.2-1.1-0.2c-1,0-2.1,0.4-3.4,1.3L112.4,168.8z M64.6,181.2c0,0,14.6-27.2,32.5-35.4c-3.1,3.4-11,14.2-15.9,40.4
		c0,0,0,0.1,0,0.1l-0.3,2.8L64.6,181.2z M80.3,194.4l-3.6,1.8l2.9-6l1.1,0.6L80.3,194.4z M65.1,218.7c-0.9,0.3-1.7,0.5-2.5,0.5
		c-1.8,0-3.4-0.9-4-2.9c-3-8.8,7.8-31.2,8.4-32.3l11.2,5.5l-3.7,7.8c-2,1.1-6,3.4-7.3,5.3c-0.2,0.4-0.1,0.9,0.2,1.1
		c0.1,0.1,0.3,0.1,0.4,0.1c0.3,0,0.5-0.1,0.7-0.4c1-1.4,4.2-3.4,6.4-4.6l22.3-10.9c0.5-1.8,0-2.5,0.9-5.5c0.9-2.9-0.7-7.1-0.7-8.9
		c0-0.1,0.2-0.2,0.6-0.2c1.3,0,4.1,1.1,4.8,7.7c0,0,0,0,0.1,0c1,0,11.1-8.3,11.1-8.3c1.7-1.3,2.9-1.8,3.6-1.8c0.5,0,0.8,0.2,1,0.5
		c0.4,0.7-0.1,1.7-1.7,3.3l-6,5.8l12.3-6.2c0.4-0.2,0.8-0.3,1.1-0.3c0.5,0,1,0.2,1.3,0.6c0.9,0.9-0.4,2.1-1.1,2.5l-10.9,7.2l9.6-3.7
		c1-0.4,1.7-0.5,2.2-0.5c0.9,0,1.3,0.5,1.4,0.9c0.3,0.7-1.8,2-5.6,4.3l-5.4,3.4c0,0,5.8-2.2,8.9-2.2c1.1,0,1.9,0.3,2,1
		c0.1,0.7-6.8,3.8-13.2,6c-3.3,1.1-6.1,2.1-8.9,2.1c-1,0-1.9-0.1-2.9-0.4C90.7,204,75.5,214.6,65.1,218.7z M157.1,254
		c0,0-16.1,3.6-39.8,3.6c-28.6,0-41.7-3.3-41.7-3.3l4.4-41.6c8.8-5.5,17.6-12,22.3-15.7c0.8,0.2,1.6,0.2,2.5,0.2
		c3.1,0,6.2-1,9.4-2.1c3.1-1,6.5-2.4,9.2-3.6c0.1-0.1,0.2-0.1,0.4-0.2c0.2,0,0.5,0,0.7,0c0.9,0,1.7-0.1,2.5-0.2
		c3.6,2.9,7.7,6.6,11.9,10.6c4.7,4.3,9.5,8.8,14,12.3L157.1,254z M172.4,215.9c-0.8,2.2-2.5,4-5.2,4c-0.7,0-1.5-0.1-2.3-0.4
		c-10.6-3.5-26.4-21.4-37.6-30.1c0,0,0,0,0,0c1-0.7,1.3-1.3,1.1-2.1c-0.1-0.9-0.8-2.3-3.6-2.3c0,0,0,0-0.1,0
		c0.8-0.5,1.4-0.9,1.9-1.3c0.7-0.5,2.2-1.7,1.7-3.3c-0.4-1.3-1.5-2-2.9-2c-0.1,0-0.1,0-0.2,0l0.1-0.1c0.7-0.4,1.9-1.4,2.1-2.8
		c0.1-0.8-0.2-1.6-0.8-2.2c0,0,0,0-0.1-0.1c1-5,3.4-6,4.5-6c0.4,0,0.6,0.1,0.6,0.2c0,1.8-1.5,6-0.7,8.9c0.9,3,0.4,3.7,0.9,5.5
		l26,18.2c2.4,1.8,5.9,4.7,6.8,6.1c0.2,0.2,0.4,0.4,0.7,0.4c0.1,0,0.3,0,0.4-0.1c0.4-0.2,0.5-0.7,0.2-1.1c-1.2-1.8-5.8-5.4-7.8-6.9
		l-3-6.9l0.1-0.1c0,0-0.1-0.1-0.1-0.1l9.5-6.3c0,0,0,0,0,0.1c0,0.1,0,0.1-0.1,0.2C165.2,185.9,174.5,209.7,172.4,215.9z"/>
</g>
</svg>
