<?xml version="1.0" encoding="utf-8"?>
<!-- Generator: Adobe Illustrator 22.1.0, SVG Export Plug-In . SVG Version: 6.00 Build 0)  -->
<svg version="1.1" id="Слой_3" xmlns="http://www.w3.org/2000/svg" xmlns:xlink="http://www.w3.org/1999/xlink" x="0px" y="0px"
	 viewBox="0 0 512 512" style="enable-background:new 0 0 512 512;" xml:space="preserve">
<style type="text/css">
	.st0{fill:#857154;}
	.st1{fill:#FDCD95;}
	.st2{fill:#FDCD95;stroke:#000000;stroke-width:3;stroke-linecap:round;stroke-linejoin:round;stroke-miterlimit:10;}
	.st3{fill:none;stroke:#1D1D1B;stroke-width:3;stroke-linecap:round;stroke-linejoin:round;stroke-miterlimit:10;}
	.st4{fill:none;stroke:#000000;stroke-width:3;stroke-linecap:round;stroke-linejoin:round;stroke-miterlimit:10;}
	.st5{fill:#F6F6F6;}
	.st6{fill:#B5D758;stroke:#000000;stroke-width:3;stroke-linecap:round;stroke-linejoin:round;stroke-miterlimit:10;}
	.st7{fill:none;stroke:#000000;stroke-width:3;stroke-miterlimit:10;}
</style>
<g>
	<g>
		<path class="st0" d="M310.6,191.4v5.3l14.5,3.4l17.7-2.4l13.7-7.6l13-15.7c0,0,10.6-16.3,10.5-32.6c-0.1-16.2-1.1-27.2-1.1-27.2
			s-4.1-25.6-8.5-31.2c-4.4-5.6-8.1-20.9-13.2-23.8s-9.8-16.4-19.1-19.9l-14.5-8.7l-11.9-3.8l-15.4-1.1l-3,2l-9.3-3.3l-8-1l-12,2.2
			l-4.6,2.3l-7.5-0.2l-17.2,5l-10.7,7l-14.3,15l-11,20.3c0,0-4.7,12.7-5.4,15.6c-0.8,2.9-5,31.3-4.6,37.4c0.4,6.1,4.2,28.8,6.5,34.2
			c2.3,5.4,9.5,17.8,10.8,19.5c1.4,1.6,11.5,12.9,20.4,14.4c8.9,1.6,12.5,2.8,17.5,3c5,0.2,9.1-1.9,9.1-1.9l8.3-16.8l27.1-0.8
			c0,0,12.3,3.5,13.3,3.8c1.1,0.3,9,3.5,9,3.5V191.4z"/>
		<path class="st1" d="M312.5,227.5l-12.6,4.9l-16,2.3c0,0-18.2-0.7-23.4-3.6c-5.2-2.9-7.6-4.6-7.6-4.6l1.2-34.5
			c0,0-20.9-11.1-27.8-23.3c-6.9-12.2-10.5-22.7-10.5-22.7l-2.3-23.3l6.4-6.9l5.1-9.3l4.6,3.2l5.1,0.6l7.5-9.3l6-13.3l2.3,5.3l5,3.2
			l3.9-3.4l6.5-13.5l0.3,7.2l3.2,3.1l5.6-0.5l5.4-5.5l4.7,3.1l4.3,3.4l5.3,0.7l5.1-4.4l4.7-7.1l2.3,6.8l4.9,9.5l2.7,4h2.9l5.5-4.2
			l3,9.2l3.5,4.5l6.4-0.9l2.2,7.9l2.8,4.4l5.5-0.6l2.8-3.5l0.6,16.2l-6.1,24.5l-10.9,17L315.5,189l-6.6,3.1L312.5,227.5z"/>
		<path class="st2" d="M349,116.2c0.9-0.3,1.8-0.4,2.7-0.3c5.5,0.6,9.1,8.5,8.1,17.7c-1.1,9.1-6.4,16-11.9,15.4
			c-0.4-0.1-0.9-0.1-1.3-0.3"/>
		<path class="st3" d="M213.4,121.2c0,0.4,0,0.8,0,1.4"/>
		<path class="st4" d="M218,152.9c3.5,9.4,8.9,17.8,15.7,24.7c5.6,5.7,12.1,10.4,19.2,13.9c8.7,4.2,18.4,6.5,28.7,6.5
			c10.3,0,20-2.3,28.7-6.5c7.4-3.6,14.1-8.5,19.8-14.4c7.5-7.9,13.3-17.5,16.6-28.3c2.1-6.8,3.2-14,3.2-21.5c0-3.7-0.3-7.4-0.8-11"
			/>
		<path class="st4" d="M252.9,191.4L252.9,191.4v6.4v2v26.7c26.8,19.9,59.6,1,59.6,1"/>
		<polyline class="st4" points="312.5,227.5 310.6,196.7 310.3,191.4 310.3,191.4 		"/>
		<path class="st2" d="M218,152.9c-0.8,0.6-1.7,1.1-2.7,1.3c-5.4,1.2-11.4-5.2-13.3-14.2c-1.9-9,0.9-17.2,6.3-18.4
			c1.7-0.4,3.4,0,5,0.9c0,1.5,0,3.5,0,4.6C213.4,136.3,215,144.9,218,152.9z"/>
		<path class="st3" d="M213.5,122.7c-0.1,0-0.1-0.1-0.2-0.1"/>
		<path class="st4" d="M252.9,197.8c-6.3,2.1-12.8,2.7-19.3,1.6c-31.5-5.1-50.9-47.4-43.3-94.5c7.5-46.3,38.2-80.1,69.1-76.4"/>
		<path class="st4" d="M291.5,27.8c32.2-8.3,69.1,21.4,83.1,67.5c14.3,46.9-0.6,93-33.2,102.9c-10,3-20.6,2.3-30.8-1.5"/>
		<path class="st3" d="M259.4,28.5c4.7-2.8,10.4-4.5,16.6-4.5c5.7,0,11,1.4,15.5,3.9"/>
		<path class="st4" d="M205.1,80.6c0,0-1.4,66.6,16.7,29.5c0,0,2-3.6,4.4-7.9c3.2-5.8,7.2-12.9,8.4-14.5"/>
		<path class="st4" d="M349,116.2c0,0-8.6,15.6-13.2-8.2c0,0-8.9,7.8-12.1-11.7"/>
		<path class="st4" d="M327.2,80.6c0,0-4.6,32.4-16.9,12.8c0,0-6.2-11.4-6.2-17.8c0,0-6.1,29.5-22.5,6.8c0,0-17,19.6-15.6-5
			c0,0-9.6,34.4-17.8,10.3c0,0-12.5,36.6-23.2,16.7"/>
		<path class="st4" d="M340.7,52.8c0,0,16,24.6,17.8,46.6"/>
		<path class="st4" d="M234.7,55.3c0,0-14.5,12.1-16.7,29.5"/>
		<ellipse cx="257.1" cy="126" rx="6.8" ry="11.9"/>
		<circle class="st5" cx="257.4" cy="122.6" r="3.8"/>
		<ellipse cx="304.9" cy="124.7" rx="6.8" ry="11.9"/>
		<path class="st4" d="M242.7,124.7c0-1.6,12.8-17.9,25.6-4.9"/>
		<circle class="st5" cx="304.9" cy="122.6" r="3.8"/>
		<path class="st4" d="M318.9,123.3c0-1.6-12.8-17.9-25.6-4.9"/>
		<path class="st4" d="M239.7,114.1c0,0,11.9-9.2,24.2-7.3"/>
		<path class="st4" d="M294.7,104.9c0,0,15.5-3.3,24.2,8.5"/>
		<path class="st4" d="M275,143.6c0,0,8.8-7.5,16.5,0"/>
	</g>
	<g>
		<path class="st6" d="M251,204c0,0-61,9-103.3,64c0,0,45.3-6.3,48.7,16s-11,65.3-11,65.3v133.3c0,0,167,12,185.7,0l-3.3-129.6
			l-28-37.7l5.7-8c0,0,25-14,34.3-11.7c0,0-14-76.3-66.7-80.3C313,215.4,287.7,251,251,204z"/>
		<g>
			<path class="st7" d="M246.2,328.4h-23.8c-3.7,0-6.8-3-6.8-6.8V294c0-3.7,3-6.8,6.8-6.8h23.8c3.7,0,6.8,3,6.8,6.8v27.6
				C253,325.3,250,328.4,246.2,328.4z"/>
			<path class="st7" d="M216.9,290.2l13.3,13.5c2.2,2.3,5.9,2.2,8-0.2l12.6-14.3"/>
		</g>
		<path class="st2" d="M150.3,267.8c0,0-29.9,29.9-23.3,48c7,19,14,33,81,37c0,0,24.7,6.7,25.3,10c0.7,3.3,6,26,9.7,31
			c3.7,5,4.7,53,23.7,41c0,0,6.7-7,2.7-25.7s24.7-33.3,29.7-41.7c3.5-5.8,0.2-19.7-5.7-21.3c-2.6-0.7-0.3-13.3-16.3-13.3
			c0,0-1.3-13.3-13.3-11.3c0,0-4.3-4-31.3-2.7c0,0-29.7-6.7-38.3-17.3c0,0,4-12.3,2.3-17.3s-7.3-12.3-18.2-15.2
			C171.5,267.1,150.3,267.8,150.3,267.8z"/>
		<path class="st4" d="M226,336c0,0,1.3,19,7.3,26.7"/>
		<path class="st4" d="M263.7,321.4c0,0-43.7,14-17.7,24.7c0,0-14.6,15.3,4.7,14c0,0-7,19.7,7.6,14c0,0-8.1,12.5,6,10.6
			c5.3-0.7,10.3-2.9,14.6-6.2c3.1-2.4,6.6-5.5,7.5-7.7"/>
		<line class="st4" x1="260" y1="338.7" x2="246" y2="346"/>
		<line class="st4" x1="269.7" y1="349.4" x2="249.4" y2="360.1"/>
		<line class="st4" x1="279" y1="360.1" x2="258.3" y2="374"/>
		<path class="st4" d="M164,287.3c0,0,21.8,7.7,30,14.1"/>
		<path class="st4" d="M268.1,170.2c0,0,25.5-1.8,37.5-1.3"/>
		<path class="st4" d="M268.1,165c-0.8,2-1.8,9.5-1.8,9.5"/>
		<line class="st4" x1="305.6" y1="165" x2="308.8" y2="173.2"/>
		<path class="st4" d="M280.3,182c0,0,8.3-1.3,13,0"/>
		<g>
			<path class="st2" d="M376.3,295.5c0,0,22.6,48.6-1.3,59.2s-46.6-9.6-46.6-9.6l12.8-30.5l11.1-9.8L376.3,295.5z"/>
			<path class="st2" d="M350.5,273.7c1.6,11.2,9.5,75.9-26.9,72.3c0,0-25.6,1.9-35.9-34.1c0,0-15.4-29.6-5.7-28.1
				c1.8,0.3,3.4,1.5,4.4,3.1l6.7,10.8c0,0-2-44.3,3.5-42.5c5.5,1.7,10.5,45.3,13.7,35.9c0,0,0.1-48.7,5.6-36.1
				c5.2,11.7,4.7,46.1,9.1,39c0.7-1.2,1.1-2.6,1.1-4c0.1-7.8,0.9-40.6,6.1-32.3c0.8,1.3,1.3,2.9,1.4,4.4c0.6,8.2,3.1,41.1,7.5,31.1
				c0.7-1.6,1-3.3,1-5c0.1-5.3,0.7-19.3,6-17.5C349.4,271.1,350.3,272.3,350.5,273.7z"/>
			<path class="st4" d="M331,308c0,0-14.2-4.7-22.5,2"/>
			<path class="st4" d="M327.3,318.5c0,0-11-1-13.7,1.2"/>
			<path class="st4" d="M298.2,303.1c0,0-2.9-1.8-5.2-5.5"/>
			<path class="st4" d="M371.6,326.5c0,0-6.5-5.7-20.8-7.8"/>
		</g>
	</g>
</g>
</svg>
