<?xml version="1.0" encoding="utf-8"?>
<!-- Generator: Adobe Illustrator 22.1.0, SVG Export Plug-In . SVG Version: 6.00 Build 0)  -->
<svg version="1.1" id="Слой_5" xmlns="http://www.w3.org/2000/svg" xmlns:xlink="http://www.w3.org/1999/xlink" x="0px" y="0px"
	 viewBox="0 0 512 512" style="enable-background:new 0 0 512 512;" xml:space="preserve">
<style type="text/css">
	.st0{fill:#FDCD95;stroke:#000000;stroke-width:3;stroke-linecap:round;stroke-linejoin:round;stroke-miterlimit:10;}
	.st1{fill:#662227;stroke:#000000;stroke-width:3;stroke-linecap:round;stroke-linejoin:round;stroke-miterlimit:10;}
	.st2{fill:none;stroke:#000000;stroke-width:3;stroke-linecap:round;stroke-linejoin:round;stroke-miterlimit:10;}
	.st3{fill:none;stroke:#000000;stroke-width:2;stroke-linecap:round;stroke-linejoin:round;stroke-miterlimit:10;}
	.st4{fill:#816164;stroke:#000000;stroke-width:3;stroke-linecap:round;stroke-linejoin:round;stroke-miterlimit:10;}
	.st5{fill:#8A242E;stroke:#000000;stroke-width:3;stroke-linecap:round;stroke-linejoin:round;stroke-miterlimit:10;}
	.st6{fill:none;stroke:#000000;stroke-width:3.0002;stroke-linecap:round;stroke-linejoin:round;stroke-miterlimit:10;}
	.st7{fill:none;stroke:#000000;stroke-width:2.4343;stroke-linecap:round;stroke-linejoin:round;stroke-miterlimit:10;}
</style>
<g>
	<path class="st0" d="M248.9,189.8c0,0,2,16.3-3.3,23.3c-3.7,4.9-20.3,11.3-20.3,11.3l-13.8,13.8l49.7,18.5l28.9-2.8
		c0,0,13.8-7.8,13.8-8.8s0-17.5,0-17.5s-18.2-7.5-20.1-28.3v-14l-8.7,4.8l-11.7,1.5L248.9,189.8z"/>
	<path class="st1" d="M230.5,170.2c0,0-11-8.3-17-5c-6,3.3-9.9-6.5-11.1-10.3c-0.8-2.6-6.2-6.2-9.9-9.7c-2.4-2.3-3.9-10.6-3.7-14
		c0.4-5.6-0.6-13.5-3-17.7c-1.6-2.8-3.7-14,1.7-18c5.3-4,9.3-17.7,9-22.3c-0.3-4.7,4-14.3,15.2-14c7.5,0.2,19.8-10,21.8-15.7
		s22.8-22,33.7-4c0,0,19-3.7,29.3,8.7c10.3,12.3,20.7,11.3,20.7,11.3s13.7,3.7,10,18.8s1.7,19.9,5.3,22.4c3.7,2.4,7.7,13.4,4.7,19.8
		c-3,6.3-7,20.7-7,23.7s-0.5,15-7.8,18.7s-12.8,7.9-15.6,12c-2.1,3-16,4.7-17,2s-11,3.3-11,3.3s-4,5.7-6,6.3c-2,0.7-18.7,1.7-20.3,0
		c-1.7-1.7-14.3-6-14.7-7S230.5,170.2,230.5,170.2z"/>
	<path class="st0" d="M225.7,88.8c5.8-1,16.4-5.2,20.1-9.7c0.4-0.4,0.7-0.9,1.1-1.4c6.7-8.3,11.3-9.3,14.3-11c2-1.1,6.8-3.8,8.9-7.3
		c1-1.7,0-3.6,0.7-5.7l-1.7,7c34.7-7,16.2,33.7,26.5,37.7c10.3,4,15,12.4,15,12.4l-4.2,4.8c3-3.5,8.4-8.3,12.6-4.2
		c6,5.7,7.5,28.8-13.4,37.3c-5.3,28.5-22.3,49.4-42.5,49.4c-20.7,0-38.1-22.1-42.9-51.8c-16.7-4.8-22.2-24.5-15.3-32.8
		c5.7-6.9,12.1-2.9,15.3-0.1c1.5-9.1,4.1-17.5,7.7-24.7"/>
	<path class="st2" d="M305.9,78.2c0,0,1.6-10.3-6.4-12.7c-8-2.3-10-6.6-10.7-9.3c-0.8-3-5.9-11.3-17.1-9"/>
	<path class="st3" d="M250.9,113.3c0,0,5.7,20.6,2.2,32.7c-0.6,2.1,0.3,4.3,2.3,5.2c2.1,0.9,5.2,1.5,9.4,0.1"/>
	<path class="st3" d="M268,140.3c0,0,3,4.4,2.5,8.3"/>
	<path class="st3" d="M208.5,118.2c0,0,6.4,9.1,7.8,14.1"/>
	<path class="st3" d="M207,125.7c0,0,4.6-1.5,6.3,0"/>
	<path class="st3" d="M316.1,121.4c0,0-6.4,9.1-7.8,14.1"/>
	<path class="st3" d="M317.6,129c0,0-4.6-1.5-6.3,0"/>
	<path class="st2" d="M267.2,39.5c0,0,2,3.2,3.2,7c0.7,2.3,1.1,4.9,0.5,7.2"/>
	<path class="st2" d="M229,68.3c0,0,6.5-10.3,13.6-11.5c7.1-1.2,13-3.7,14.2-5.6c2.1-3.4,8.1-8.9,11.2-8.4"/>
	<path class="st4" d="M179.4,432v98.5c0,0,106.4,15.6,158.9-6.9l-4.1-89.5L179.4,432z"/>
	<path class="st5" d="M225.3,224.3c0,0,34.5,47.8,78.5,3.3c0,0,40.8,9.4,42.8,13.4s15,25,15,25l-27.5,56l3.6,92.5l1.5,63.9
		c0,0-110,35.7-167-10.3l7.5-122.5l-20.5-39C159.1,306.5,150.3,217.8,225.3,224.3z"/>
	<line class="st2" x1="185.1" y1="274.5" x2="179.6" y2="345.5"/>
	<path class="st0" d="M410.9,206.1c-1.1,1-1.7,2.4-1.9,3.9c-0.4,3.6-1.4,11.9-2.5,13c0,0-4-29.7-12.7-26c0,0-3,0,1.3,13.7
		c0,0-13.7-9-18-2c0,0-0.9,1.9-0.9,3.2c0,0.4,0.1,0.8,0.5,1c-2.3-0.9-13.7-5-15.2-3.5c-0.6,0.6-1.4,1.6-2.5,2.8c0,0,0,0,0,0
		c-2.2,2.4-5.4,5.1-9.8,5.1c-6.7,0-3,25.3,1.3,35.3s5,31.7,4.3,33.3c-0.7,1.7,8,14,25,6c0,0,2-18,8-24.7c6-6.7,28-27,28.7-37.7
		C417.2,220,416.2,201.1,410.9,206.1z M369.1,240.2c-0.7-1.3-10.3-4.5-11-6.2c-0.5-1.4-2.5-8.7-1.3-9.5c1-0.7,4.5-5,6.3-8.7
		c0.2-0.4,0.4-0.9,0.6-1.3c0.2-0.6,0.3-1.1,0.2-1.5c0,0,5.1,4.8,9.3,8.5C377.3,225.2,369.1,240.2,369.1,240.2z"/>
	<line class="st2" x1="330.6" y1="270.5" x2="334.1" y2="322"/>
	<line class="st2" x1="377.3" y1="213" x2="383.1" y2="218.3"/>
	<path class="st2" d="M383.1,228c0,0,2.3-10.5,1.2-12.3"/>
	<path class="st2" d="M376.4,211.8c0,0,4.7,2.5,9.2,2.3"/>
	<path class="st2" d="M394,230c0,0,6.3-13.8,1.3-19.3"/>
	<path class="st2" d="M400.3,231c0,0,6-1.2,6.3-8"/>
	<path class="st2" d="M378.3,235.7c0,0,1.5,6.5,14.2,3.7"/>
	<path class="st2" d="M374.3,245.7c0,0,6,3,11.1,2.3"/>
	<path class="st5" d="M353.6,278.3c0,0,2.2,17.8,30.7,7.3c0,0-4.3,106.3-41.1,91.5c-7.9-3.2-10.7-13.3-11.1-21.8
		C331.5,342.1,334.4,317.2,353.6,278.3z"/>
	<path class="st0" d="M95.4,229.7c0.7,10.7,22.7,31,28.7,37.7c6,6.7,8,24.7,8,24.7c17,8,25.7-4.3,25-6c-0.7-1.7,0-23.3,4.3-33.3
		s8-35.3,1.3-35.3c-4.4,0-7.7-2.8-9.8-5.1c0,0,0,0,0,0c-1.1-1.2-1.9-2.3-2.5-2.8c-1.5-1.5-12.9,2.6-15.2,3.5c0.3-0.2,0.4-0.6,0.5-1
		c0.1-1.3-0.9-3.2-0.9-3.2c-4.3-7-18,2-18,2c4.3-13.7,1.3-13.7,1.3-13.7c-8.7-3.7-12.7,26-12.7,26c-1-1-2.1-9.3-2.5-13
		c-0.2-1.5-0.8-2.9-1.9-3.9C95.8,201.1,94.8,220,95.4,229.7z M138.9,221.5c4.2-3.7,9.3-8.5,9.3-8.5c-0.1,0.4,0,0.9,0.2,1.5
		c0.2,0.4,0.3,0.9,0.6,1.3c1.8,3.7,5.2,8,6.3,8.7c1.2,0.8-0.8,8.1-1.3,9.5c-0.7,1.7-10.3,4.8-11,6.2
		C142.9,240.2,134.7,225.2,138.9,221.5z"/>
	<line class="st2" x1="134.7" y1="213" x2="128.9" y2="218.3"/>
	<path class="st2" d="M128.9,228c0,0-2.3-10.5-1.2-12.3"/>
	<path class="st2" d="M135.6,211.8c0,0-4.7,2.5-9.2,2.3"/>
	<path class="st2" d="M118,230c0,0-6.3-13.8-1.3-19.3"/>
	<path class="st2" d="M111.7,231c0,0-6-1.2-6.3-8"/>
	<path class="st2" d="M133.7,235.7c0,0-1.5,6.5-14.2,3.7"/>
	<path class="st2" d="M137.7,245.7c0,0-6,3-11.1,2.3"/>
	<path class="st5" d="M158.4,278.3c0,0-2.2,17.8-30.7,7.3c0,0,4.3,106.3,41.1,91.5c7.9-3.2,10.7-13.3,11.1-21.8
		C180.5,342.1,177.6,317.2,158.4,278.3z"/>
	<path class="st2" d="M363.8,213c0,0,5.1,4.8,9.3,8.5c4.2,3.7-4,18.7-4,18.7c-0.7-1.3-10.3-4.5-11-6.2c-0.5-1.4-2.5-8.7-1.3-9.5
		c1-0.7,4.5-4.9,6.3-8.7c0.2-0.4,0.4-0.9,0.6-1.3C363.9,213.9,363.9,213.4,363.8,213c-0.4-1.9-4.4-0.9-4.7-0.8c0,0,0,0,0,0"/>
	<path class="st6" d="M241.8,164.2c0.3-0.7,8.6-2.6,14.5-0.6c5.9,2,8.5,0.1,10-0.2c1.5-0.3,8.9-1,14.7,0.9"/>
	<path class="st3" d="M241.2,158.8c0,0-1,7.1-1.8,8.6"/>
	<path class="st7" d="M281.2,157.6c0,0,1.4,7.9,3.2,9.8"/>
	<path class="st3" d="M253.1,172.3c0,0,7.5,6.1,16.6,0"/>
	<path class="st3" d="M230.6,118.5c0,0,7.8-2.6,11.8,0"/>
	<path class="st3" d="M277.4,116.4c0,0,7.6-2.7,12.5,1"/>
	<path class="st2" d="M229,123.6c0,0,7.1,6.9,18.4,0"/>
	<path class="st2" d="M274.6,122.9c0,0,10,7,18.6-0.6"/>
	<path class="st2" d="M272,106.8c0,0,9.5-6.1,21.4,0.8"/>
	<path class="st2" d="M227,109.5c0,0,5.8-6.8,18.4-1.4"/>
</g>
</svg>
