<?xml version="1.0" encoding="utf-8"?>
<!-- Generator: Adobe Illustrator 22.1.0, SVG Export Plug-In . SVG Version: 6.00 Build 0)  -->
<svg version="1.1" id="Слой_3" xmlns="http://www.w3.org/2000/svg" xmlns:xlink="http://www.w3.org/1999/xlink" x="0px" y="0px"
	 viewBox="0 0 512 512" style="enable-background:new 0 0 512 512;" xml:space="preserve">
<style type="text/css">
	.st0{fill:#857154;}
	.st1{fill:#FDCD95;}
	.st2{fill:#FDCD95;stroke:#000000;stroke-width:3;stroke-linecap:round;stroke-linejoin:round;stroke-miterlimit:10;}
	.st3{fill:none;stroke:#1D1D1B;stroke-width:3;stroke-linecap:round;stroke-linejoin:round;stroke-miterlimit:10;}
	.st4{fill:none;stroke:#000000;stroke-width:3;stroke-linecap:round;stroke-linejoin:round;stroke-miterlimit:10;}
	.st5{fill:#B5D758;stroke:#000000;stroke-width:3;stroke-linecap:round;stroke-linejoin:round;stroke-miterlimit:10;}
	.st6{fill:#FFFFFF;}
	.st7{fill:#FFAFB9;}
	.st8{fill:none;stroke:#000000;stroke-width:4;stroke-linecap:round;stroke-linejoin:round;stroke-miterlimit:10;}
	.st9{fill:none;stroke:#000000;stroke-width:2.8598;stroke-miterlimit:10;}
</style>
<g>
	<path class="st0" d="M293.3,185.4v5.3l14.5,3.4l17.7-2.4l13.7-7.6l13-15.7c0,0,10.6-16.3,10.5-32.6c-0.1-16.2-1.1-27.2-1.1-27.2
		s-4.1-25.6-8.5-31.2c-4.4-5.6-8.1-20.9-13.2-23.8s-9.8-16.4-19.1-19.9l-14.5-8.7l-11.9-3.8L279,20.2l-3,2l-9.3-3.3l-8-1l-12,2.2
		l-4.6,2.3l-7.5-0.2l-17.2,5l-10.7,7l-14.3,15l-11,20.3c0,0-4.7,12.7-5.4,15.6c-0.8,2.9-5,31.3-4.6,37.4c0.4,6.1,4.2,28.8,6.5,34.2
		c2.3,5.4,9.5,17.8,10.8,19.5c1.4,1.6,11.5,12.9,20.4,14.4c8.9,1.6,12.5,2.8,17.5,3c5,0.2,9.1-1.9,9.1-1.9l8.3-16.8l27.1-0.8
		c0,0,12.3,3.5,13.3,3.8c1.1,0.3,9,3.5,9,3.5V185.4z"/>
	<path class="st1" d="M295.2,221.5l-12.6,4.9l-16,2.3c0,0-18.2-0.7-23.4-3.6s-7.6-4.6-7.6-4.6l1.2-34.5c0,0-20.9-11.1-27.8-23.3
		c-6.9-12.2-10.5-22.7-10.5-22.7l-2.3-23.3l6.4-6.9l5.1-9.3l4.6,3.2l5.1,0.6l7.5-9.3l6-13.3l2.3,5.3l5,3.2l3.9-3.4l6.5-13.5l0.3,7.2
		l3.2,3.1l5.6-0.5l5.4-5.5l4.7,3.1l4.3,3.4l5.3,0.7l5.1-4.4l4.7-7.1l2.3,6.8l4.9,9.5l2.7,4h2.9l5.5-4.2l3,9.2l3.5,4.5l6.4-0.9
		l2.2,7.9l2.8,4.4l5.5-0.6l2.8-3.5l0.6,16.2l-6.1,24.5l-10.9,17L298.3,183l-6.6,3.1L295.2,221.5z"/>
	<path class="st2" d="M331.7,110.2c0.9-0.3,1.8-0.4,2.7-0.3c5.5,0.6,9.1,8.5,8.1,17.7c-1.1,9.1-6.4,16-11.9,15.4
		c-0.4-0.1-0.9-0.1-1.3-0.3"/>
	<path class="st3" d="M196.1,115.2c0,0.4,0,0.8,0,1.4"/>
	<path class="st4" d="M200.7,146.9c3.5,9.4,8.9,17.8,15.7,24.7c5.6,5.7,12.1,10.4,19.2,13.9c8.7,4.2,18.4,6.5,28.7,6.5
		c10.3,0,20-2.3,28.7-6.5c7.4-3.6,14.1-8.5,19.8-14.4c7.5-7.9,13.3-17.5,16.6-28.3c2.1-6.8,3.2-14,3.2-21.5c0-3.7-0.3-7.4-0.8-11"/>
	<path class="st3" d="M235.6,185.4L235.6,185.4v6.4v2v26.7c26.8,19.9,59.6,1,59.6,1"/>
	<polyline class="st3" points="295.2,221.5 293.3,190.7 293,185.4 293,185.4 	"/>
	<path class="st2" d="M200.7,146.9c-0.8,0.6-1.7,1.1-2.7,1.3c-5.4,1.2-11.4-5.2-13.3-14.2c-1.9-9,0.9-17.2,6.3-18.4
		c1.7-0.4,3.4,0,5,0.9c0,1.5,0,3.5,0,4.6C196.1,130.3,197.7,138.9,200.7,146.9z"/>
	<path class="st3" d="M196.2,116.7c-0.1,0-0.1-0.1-0.2-0.1"/>
	<path class="st4" d="M235.6,191.8c-6.3,2.1-12.8,2.7-19.3,1.6c-31.5-5.1-50.9-47.4-43.3-94.5c7.5-46.3,38.2-80.1,69.1-76.4"/>
	<path class="st4" d="M274.2,21.8c32.2-8.3,69.1,21.4,83.1,67.5c14.3,46.9-0.6,93-33.2,102.9c-10,3-20.6,2.3-30.8-1.5"/>
	<path class="st3" d="M242.1,22.4c4.7-2.8,10.4-4.5,16.6-4.5c5.7,0,11,1.4,15.5,3.9"/>
	<path class="st4" d="M187.8,74.6c0,0-1.4,66.6,16.7,29.5c0,0,2-3.6,4.4-7.9c3.2-5.8,7.2-12.9,8.4-14.5"/>
	<path class="st3" d="M331.7,110.2c0,0-8.6,15.6-13.2-8.2c0,0-8.9,7.8-12.1-11.7"/>
	<path class="st4" d="M309.9,74.6c0,0-4.6,32.4-16.9,12.8c0,0-6.2-11.4-6.2-17.8c0,0-6.1,29.5-22.5,6.8c0,0-17,19.6-15.6-5
		c0,0-9.6,34.4-17.8,10.3c0,0-12.5,36.6-23.2,16.7"/>
	<path class="st4" d="M323.4,46.8c0,0,16,24.6,17.8,46.6"/>
	<path class="st4" d="M217.4,49.3c0,0-14.5,12.1-16.7,29.5"/>
	<path d="M255.4,158.7v12.8h2.3h12.1c0,0,1.5-9.4,1.1-10.1s-1.5-4.6-1.5-4.6l-9.5,1.3L255.4,158.7z"/>
	<path class="st5" d="M187.5,298c0,0-55.8,11.4-51.3-8.1S165,188,207,199c0,0,39.5,52,91.5,20c0,0,48.5-36,65,1.5s54,91.5,7.5,89.5
		s-31,0.1-31,0.1l-5.5,2.9L360,417c0,0,20.5,50.5-33.5,57c0,0-171.5,28.5-166-25.5l17-129.5L187.5,298z"/>
	<path class="st6" d="M255,159.2c0,0,5.9,4.9,15.3,0l-4.7-7.3l-4.2-0.7L255,159.2z"/>
	<g>
		<path class="st2" d="M280.7,200.8c-8.8-6.6-8.1-11.1-8.1-11.1c-0.3-11.5,30.4,6.7,30.4,6.7l-8.1-4.4c0,0-3.8-4-6.1-10.7
			c-2.3-6.6,6.4-7.2,15.8,0.5c8.6,7,25.8,29.5,26.8,35.4c1.3,7.7,5.2,19,6.6,20.7c1.3,1.7,24.9,37.3,28.8,43.9
			c3.8,6.6,20.3,28.2,20.3,28.2s-6.8,55-36.7,27.2c-6.4-6-11.1-13.6-13.9-21.9l-12.3-37.1l-13.6-31.4c0,0-11.4-6.9-12.3-14.9
			c0,0-24.3-5.8-24.1-11.8c0.2-6,18.9,0.1,18.9,0.1l-11.5-2.9c-14.7-7.9-14.5-14.4-14.5-14.4c0.5-9.6,27.7,3.2,27.7,3.2"/>
	</g>
	<g>
		<path class="st2" d="M235.1,194.3c8.3-7.3,7.1-11.7,7.1-11.7c-0.6-11.5-29.7,9.2-29.7,9.2l7.7-5c0,0,3.5-4.3,5.2-11.1
			c1.8-6.8-7-6.6-15.7,1.7c-8,7.7-23.3,31.5-23.8,37.5c-0.7,7.7-3.6,19.4-4.8,21.2c-1.2,1.8-29.3,55.1-32.6,62s-9,0-9,0
			s10,68.1,37.4,37.9c5.9-6.5,9.9-14.4,12-22.9l9.2-38l11-32.4c0,0,10.8-7.8,11-15.9c0,0,23.8-7.8,23.1-13.7
			c-0.7-6-18.8,1.7-18.8,1.7l11.3-3.9c14-9.1,13.3-15.6,13.3-15.6c-1.3-9.5-27.3,5.4-27.3,5.4"/>
	</g>
	<path class="st7" d="M255.4,171.4c0,0,11.9-2.8,14.5,0l-4.1,5.9l-5.6,0.4L255.4,171.4z"/>
	<ellipse class="st4" cx="262.7" cy="164.7" rx="8.3" ry="13.7"/>
	<path class="st3" d="M254.3,138.7c0,0,5.8-6.7,12.7-1.3"/>
	<ellipse cx="236" cy="122.5" rx="7.7" ry="11.2"/>
	<ellipse class="st6" cx="237.5" cy="120" rx="2.4" ry="3.4"/>
	<path class="st4" d="M245,111.3c0,0-14.4-4.3-23.4,13.8"/>
	<ellipse cx="281.6" cy="122.7" rx="7.7" ry="11.2"/>
	<path class="st4" d="M272.6,111.6c0,0,14.4-4.3,23.4,13.8"/>
	<path class="st8" d="M242.5,98.3c0,0-10.7,3-18.4,12"/>
	<ellipse class="st6" cx="284" cy="120" rx="2.4" ry="3.4"/>
	<path class="st8" d="M278.6,95c0,0,10.7,3,18.4,12"/>
	<path class="st9" d="M229,321.1h-23.8c-3.7,0-6.8-3-6.8-6.8v-27.6c0-3.7,3-6.8,6.8-6.8H229c3.7,0,6.8,3,6.8,6.8v27.6
		C235.8,318.1,232.7,321.1,229,321.1z"/>
	<path class="st9" d="M199.6,282.9l13.3,13.5c2.2,2.3,5.9,2.2,8-0.2l12.6-14.3"/>
</g>
</svg>
