<?xml version="1.0" encoding="utf-8"?>
<!-- Generator: Adobe Illustrator 22.1.0, SVG Export Plug-In . SVG Version: 6.00 Build 0)  -->
<svg version="1.1" id="Слой_6" xmlns="http://www.w3.org/2000/svg" xmlns:xlink="http://www.w3.org/1999/xlink" x="0px" y="0px"
	 viewBox="0 0 512 512" style="enable-background:new 0 0 512 512;" xml:space="preserve">
<style type="text/css">
	.st0{fill:#857154;}
	.st1{fill:#FDCD95;}
	.st2{fill:#FDCD95;stroke:#000000;stroke-width:3;stroke-linecap:round;stroke-linejoin:round;stroke-miterlimit:10;}
	.st3{fill:none;stroke:#1D1D1B;stroke-width:3;stroke-linecap:round;stroke-linejoin:round;stroke-miterlimit:10;}
	.st4{fill:none;stroke:#000000;stroke-width:3;stroke-linecap:round;stroke-linejoin:round;stroke-miterlimit:10;}
	.st5{fill:#B5D758;stroke:#000000;stroke-width:3;stroke-linecap:round;stroke-linejoin:round;stroke-miterlimit:10;}
	.st6{fill:#FFFFFF;}
	.st7{fill:#FFAFB9;}
	.st8{fill:none;stroke:#000000;stroke-width:3.2446;stroke-linecap:round;stroke-linejoin:round;stroke-miterlimit:10;}
	.st9{fill:none;stroke:#000000;stroke-width:2;stroke-linecap:round;stroke-linejoin:round;stroke-miterlimit:10;}
</style>
<g>
	<polyline points="226.3,188 244.6,181.4 244.6,203.3 226.3,188 	"/>
	<polygon points="303.1,183.8 320.7,188.3 305.9,203.3 302.4,192.4 	"/>
	<path class="st0" d="M302.3,181.4v5.3l14.5,3.4l17.7-2.4l13.7-7.6l13-15.7c0,0,10.6-16.3,10.5-32.6c-0.1-16.2-1.1-27.2-1.1-27.2
		s-4.1-25.6-8.5-31.2c-4.4-5.6-8.1-20.9-13.2-23.8s-9.8-16.4-19.1-19.9l-14.5-8.7l-11.9-3.8L288,16.2l-3,2l-9.3-3.3l-8-1l-12,2.2
		l-4.6,2.3l-7.5-0.2l-17.2,5l-10.7,7l-14.3,15l-11,20.3c0,0-4.7,12.7-5.4,15.6c-0.8,2.9-5,31.3-4.6,37.4c0.4,6.1,4.2,28.8,6.5,34.2
		c2.3,5.4,9.5,17.8,10.8,19.5c1.4,1.6,11.5,12.9,20.4,14.4c8.9,1.6,12.5,2.8,17.5,3c5,0.2,9.1-1.9,9.1-1.9l8.3-16.8l27.1-0.8
		c0,0,12.3,3.5,13.3,3.8c1.1,0.3,9,3.5,9,3.5V181.4z"/>
	<path class="st1" d="M304.2,217.5l-12.6,4.9l-16,2.3c0,0-18.2-0.7-23.4-3.6c-5.2-2.9-7.6-4.6-7.6-4.6l1.2-34.5
		c0,0-20.9-11.1-27.8-23.3c-6.9-12.2-10.5-22.7-10.5-22.7l-2.3-23.3l6.4-6.9l5.1-9.3l4.6,3.2l5.1,0.6l7.5-9.3l6-13.3l2.3,5.3l5,3.2
		l3.9-3.4l6.5-13.5l0.3,7.2l3.2,3.1l5.6-0.5l5.4-5.5l4.7,3.1l4.3,3.4l5.3,0.7l5.1-4.4l4.7-7.1l2.3,6.8l4.9,9.5l2.7,4h2.9l5.5-4.2
		l3,9.2l3.5,4.5l6.4-0.9l2.2,7.9l2.8,4.4l5.5-0.6l2.8-3.5l0.6,16.2l-6.1,24.5l-10.9,17L307.2,179l-6.6,3.1L304.2,217.5z"/>
	<path class="st2" d="M340.7,106.2c0.9-0.3,1.8-0.4,2.7-0.3c5.5,0.6,9.1,8.5,8.1,17.7c-1.1,9.1-6.4,16-11.9,15.4
		c-0.4-0.1-0.9-0.1-1.3-0.3"/>
	<path class="st3" d="M205,111.2c0,0.4,0,0.8,0,1.4"/>
	<path class="st4" d="M209.6,142.9c3.5,9.4,8.9,17.8,15.7,24.7c5.6,5.7,12.1,10.4,19.2,13.9c8.7,4.2,18.4,6.5,28.7,6.5
		c10.3,0,20-2.3,28.7-6.5c7.4-3.6,14.1-8.5,19.8-14.4c7.5-7.9,13.3-17.5,16.6-28.3c2.1-6.8,3.2-14,3.2-21.5c0-3.7-0.3-7.4-0.8-11"/>
	<path class="st4" d="M244.6,181.4L244.6,181.4v6.4v2v26.7c26.8,19.9,59.6,1,59.6,1"/>
	<polyline class="st4" points="304.2,217.5 302.3,186.7 301.9,181.4 301.9,181.4 	"/>
	<path class="st2" d="M209.6,142.9c-0.8,0.6-1.7,1.1-2.7,1.3c-5.4,1.2-11.4-5.2-13.3-14.2c-1.9-9,0.9-17.2,6.3-18.4
		c1.7-0.4,3.4,0,5,0.9c0,1.5,0,3.5,0,4.6C205,126.3,206.6,134.9,209.6,142.9z"/>
	<path class="st3" d="M205.1,112.7c-0.1,0-0.1-0.1-0.2-0.1"/>
	<path class="st4" d="M244.6,187.8c-6.3,2.1-12.8,2.7-19.3,1.6c-31.5-5.1-50.9-47.4-43.3-94.5c7.5-46.3,38.2-80.1,69.1-76.4"/>
	<path class="st4" d="M283.2,17.8c32.2-8.3,69.1,21.4,83.1,67.5c14.3,46.9-0.6,93-33.2,102.9c-10,3-20.6,2.3-30.8-1.5"/>
	<path class="st3" d="M251,18.4c4.7-2.8,10.4-4.5,16.6-4.5c5.7,0,11,1.4,15.5,3.9"/>
	<path class="st4" d="M196.8,70.6c0,0-1.4,66.6,16.7,29.5c0,0,2-3.6,4.4-7.9c3.2-5.8,7.2-12.9,8.4-14.5"/>
	<path class="st4" d="M340.7,106.2c0,0-8.6,15.6-13.2-8.2c0,0-8.9,7.8-12.1-11.7"/>
	<path class="st4" d="M318.8,70.6c0,0-4.6,32.4-16.9,12.8c0,0-6.2-11.4-6.2-17.8c0,0-6.1,29.5-22.5,6.8c0,0-17,19.6-15.6-5
		c0,0-9.6,34.4-17.8,10.3c0,0-12.5,36.6-23.2,16.7"/>
	<path class="st4" d="M332.4,42.8c0,0,16,24.6,17.8,46.6"/>
	<path class="st4" d="M226.3,45.3c0,0-14.5,12.1-16.7,29.5"/>
	<g>
		<path class="st2" d="M120.8,472.3c0,0-9,6.5-10-0.5c-0.6-4,4.9-10.2,9.8-14c3.7-2.9,6.9-6.2,9.7-9.9c5.5-7.4,16.8-17.2,16.8-17.2
			c-1.7-49.3,26-112.3,26-112.3l23.3,5l8.7,3c0,0-24.2,70.7-27.3,79c-2.8,7.4-12.3,39.3-4.3,47.7c8.4,8.7,25,29.6,7.3,24.8
			s-17.7-9.2-27,9.2c-9.3,18.3-20,10.3-18.3,2"/>
		<path class="st2" d="M131.8,458.6c0,0-29.7,26.4-6,24.3"/>
		<path class="st2" d="M138.8,463.9c0,0-24.3,29-6.2,26.4c4.7-0.7,13.2-10.7,16.1-14.4"/>
	</g>
	<path class="st5" d="M231.3,189.3c0,0-24.7-16-56.3,80.7l-17,52.7c0,0,9,15.3,40,7.3l-18.3,137c0,0,110,45.3,196-9l-36-181.3
		c0,0,10.3,39.7,12.7,41c2.3,1.3,23.7,14.7,49,1c0,0-10-104.9-76.8-128.3c-3.8-1.3-8.1-0.6-11.3,1.7
		C298.9,202.4,256.5,228,231.3,189.3z"/>
	<g>
		<path class="st4" d="M251,314.4h-23.8c-3.7,0-6.8-3-6.8-6.8v-27.6c0-3.7,3-6.8,6.8-6.8H251c3.7,0,6.8,3,6.8,6.8v27.6
			C257.8,311.4,254.7,314.4,251,314.4z"/>
		<path class="st4" d="M221.7,276.2l13.3,13.5c2.2,2.3,5.9,2.2,8-0.2l12.6-14.3"/>
	</g>
	<path class="st1" d="M263.1,365.8c0.4-0.7,0.8-1.5,1.1-2.3c0.9-2.6-1.2-4.4-3.4-4.6c-0.2-0.3-0.3-0.5-0.5-0.8
		c-1.7-2.3-4.8-3.3-7.4-1.8c-2.9,1.7-3.1,5.2-2.4,8.2c0.3,1.2,0.8,2.2,1.5,3c-2.5,0.2-4.8,2.3-3.3,5.1c1.7,3.1,2.2,6.7,5.7,8.5
		c2.8,1.4,6.3,1,8.4-1.5c2.5-2.9,1.6-7.1,1-10.5C263.5,368.1,263.4,367,263.1,365.8z"/>
	<line class="st4" x1="197.9" y1="330" x2="206.6" y2="280.7"/>
	<path class="st1" d="M253.6,355.3h-2.8c-1,0-2.1,0.2-2.9,0.9c-0.7,0.6-1.3,1.5-1.3,2.4c0,2,1.7,3.8,3.8,3.8h2.8
		c1,0,2.1-0.2,2.9-0.9c0.7-0.6,1.3-1.5,1.3-2.4C257.4,357.1,255.7,355.3,253.6,355.3z"/>
	<g>
		<path class="st2" d="M262.9,360l-9.3-3.7c-0.9-0.5-1.6-1-2.1-1.4c-8.2-6.9,15.5-11.9,15.5-11.9c6.5-3.5,7-13.3,6.8-19.9
			c-0.1-3.1,0.6-6.2,2.1-8.9c4.5-8.2,4.2,10.9,9.4,15.8c6,5.7,10,23.3,10,23.3s31.3-10.3,49-11c3.5-0.1,6-1.1,7.9-2.6
			c7.4-5.9,3.5-19.9,3.4-20.3c0,0,18,11.8,38.2,2.6c0.2,7.3,0,18.7-2.1,34.3c-2.3,17-16.3,22.5-31.4,24.2
			c-11.3,1.2-23.2,0.4-31.3,0.5c-19,0.3-39.7,4-39.7,4c-34.4,18-35.3,0-35.3-1.3c0,0,0-0.1,0-0.1"/>
		<path class="st2" d="M260.3,383.3c0,0-17.4,1.5-10.5-14.8"/>
		<path class="st2" d="M259.3,371.3c0,0-29.6-9.5-9.5-15.2"/>
	</g>
	<path d="M245.9,152.8l10.1,15.2l11.5,1.4l14.5-1.8l8.2-2.5l4.4-8.9c0,0,0.4-4.3,0.5-4.3c0.1-0.1-17.7-0.9-17.7-0.9
		s-13.2,1.3-13.7,0.9c-0.5-0.4-13.7-0.1-14.3,0C248.8,152,245.9,152.8,245.9,152.8z"/>
	<path class="st6" d="M244.8,146.9l51.3-0.4l0.3,4.4c0,0-11.3,12-50.4,2.6L244.8,146.9z"/>
	<path class="st7" d="M255,167.1c0,0,15.9-9.6,32.4-0.4l-11.3,7.8l-15.2-1.7L255,167.1z"/>
	<path class="st8" d="M244.8,146.9l51.3-0.4c0.1,0.6,0.2,1.1,0.2,1.8c0.6,10.5-11.8,25.4-24.7,26.1c-12.9,0.7-26.3-15.5-26.8-26
		C244.7,148,244.7,147.4,244.8,146.9z"/>
	<path class="st4" d="M262.3,132c0,0,9.5-5.7,17.3-0.7"/>
	<path class="st9" d="M237.1,148.5c0,0,1,7.2,4.2,8.7"/>
	<path class="st9" d="M304.4,146.6c0,0-0.5,5.4-2,8.4"/>
	<ellipse cx="245.8" cy="116.6" rx="6.6" ry="10.3"/>
	<ellipse class="st6" cx="245.8" cy="116.6" rx="2.5" ry="3.9"/>
	<path class="st4" d="M233.1,112.2c0,0,9.1-10.1,25.7-1.7"/>
	<ellipse cx="293" cy="116.6" rx="6.6" ry="10.3"/>
	<ellipse class="st6" cx="292.9" cy="116.6" rx="2.5" ry="3.9"/>
	<path class="st4" d="M280.3,112.2c0,0,11.4-10.9,25.7-0.3"/>
	<path class="st4" d="M227.1,102.3c0,0,15.3-16.5,31.7-4.3"/>
	<path class="st4" d="M308.9,101.3c0,0-15.3-16.5-31.7-4.3"/>
</g>
</svg>
