<?xml version="1.0" encoding="utf-8"?>
<!-- Generator: Adobe Illustrator 23.1.0, SVG Export Plug-In . SVG Version: 6.00 Build 0)  -->
<svg version="1.1" id="Слой_1" xmlns="http://www.w3.org/2000/svg" xmlns:xlink="http://www.w3.org/1999/xlink" x="0px" y="0px"
	 viewBox="0 0 283.5 283.5" style="enable-background:new 0 0 283.5 283.5;" xml:space="preserve">
<style type="text/css">
	.st0{fill:#FFDEA8;}
	.st1{fill:#FFDC4D;}
	.st2{fill:#C9EAF7;}
	.st3{fill:#231F20;}
	.st4{fill:#FFFFFF;}
</style>
<g>
	<path class="st0" d="M214.6,122.5c-2.8-3.1-8.4-2.9-13.7,0.2c-4.8-27.8-28.5-49-57.2-49c-28.8,0-52.7,21.4-57.3,49.5
		c-5-3.6-10.9-4.1-13.9-0.9c-3.5,3.6-2,10.6,3.3,15.6c3.3,3.1,7.3,4.7,10.6,4.7c3.7,22.8,20.1,41.2,41.6,47.3v9.5
		c0,0.5,0,0.9,0.1,1.4c-3.1,1.1-6,2.5-8.8,4.1c4.1,9.1,13.2,15.5,23.8,15.5c10.9,0,20.2-6.7,24.1-16.2c-2.7-1.6-5.6-2.9-8.7-3.8
		c0-0.3,0-0.6,0-1v-9.4c21.8-5.9,38.5-24.3,42.3-47.2c2.9-0.6,6-2,8.8-4.4C215.8,133.5,218,126.3,214.6,122.5z"/>
	<g>
		<path class="st1" d="M112.7,68.1c-0.3-0.4-11.2-8.8-12.9-3.7C97.7,70.5,112.7,68.1,112.7,68.1z"/>
		<path class="st1" d="M177.8,62.9c-18.5-11-33.3-10-42.9-8.8c-14.4,1.9-19.2,9.2-20.2,12.6c-0.2,0.6-0.2,1.2-0.3,1.8
			c0.3-4,0.5-15.6-4.9-14.2c-6.2,1.6,0.9,11,3.7,14.4c-6.2,1.5-47.8,12.9-27.3,54.2c0,0,7.3-33.8,32.5-43
			c16.1,20.3,43.3,19.4,43.3,19.4l-2-9.2c0,0,9,10,21.5,18.7c14.3,9.9,19.8,13.7,19.8,13.7s7.6-8,7.6-19.5
			C208.6,92.3,196,73.8,177.8,62.9z"/>
	</g>
	<g>
		<g>
			<path d="M138.1,146.3c0.3,0,0.6-0.3,0.6-0.6c0-2.5,2.5-4.5,5.7-4.5c3.1,0,5.7,2,5.7,4.5c0,0.3,0.3,0.6,0.6,0.6
				c0.3,0,0.6-0.3,0.6-0.6c0-3.1-3-5.6-6.8-5.6c-3.7,0-6.8,2.5-6.8,5.6C137.5,146,137.8,146.3,138.1,146.3z"/>
			<path d="M140.7,174.7c-0.3,0.1-0.4,0.5-0.3,0.8c0.1,0.3,0.5,0.4,0.8,0.3c2.7-1.4,4-1.3,6.2,0.1c0.1,0.1,0.2,0.1,0.3,0.1
				c0.2,0,0.4-0.1,0.5-0.3c0.2-0.3,0.1-0.6-0.2-0.8C145.5,173.1,143.7,173.1,140.7,174.7z"/>
			<path d="M155.3,163.3c-3.1-2.1-6.8-3.5-10.7-3.6c-1.9-0.1-3.9,0.4-5.6,1c-1.8,0.6-3.5,1.5-5.1,2.5c-3.2,2-6.1,4.5-8.1,7.7
				c1.2-1.4,2.5-2.7,4-3.8c1.4-1.1,3-2.2,4.6-3.1c1.6-0.9,3.3-1.7,5-2.2c1.7-0.6,3.5-0.9,5.3-0.9c1.8,0,3.6,0.4,5.3,1
				c1.7,0.6,3.4,1.4,4.9,2.3c3.1,1.9,5.9,4.4,8,7.5C161.1,168.2,158.4,165.3,155.3,163.3z"/>
		</g>
		<g>
			<path d="M131.3,102.3c-0.3-0.1-0.6,0.1-0.7,0.4c-0.6,2-5.1,9.2-12.7,9.4c-0.3,0-0.6,0.3-0.6,0.6c0,0.3,0.3,0.6,0.6,0.6
				c0,0,0,0,0,0c8.2-0.2,13.1-8,13.7-10.2C131.8,102.7,131.6,102.4,131.3,102.3z"/>
			<path d="M170.6,112.1c-7.6-0.2-12.1-7.4-12.7-9.4c-0.1-0.3-0.4-0.5-0.7-0.4c-0.3,0.1-0.5,0.4-0.4,0.7c0.7,2.2,5.5,10,13.7,10.2
				c0,0,0,0,0,0c0.3,0,0.6-0.2,0.6-0.6C171.2,112.3,170.9,112.1,170.6,112.1z"/>
		</g>
		<g>
			<path class="st2" d="M132.5,135.8c0,0-0.8,3.1-3,4.9c-1.8,1.4-4.1,2.8-3.5,4.6C127.2,149.3,133.7,145.9,132.5,135.8z"/>
			<path d="M132.5,135.8c0.9,7.3-2.3,11.1-4.6,11.1c-0.9,0-1.6-0.5-1.9-1.7c-0.6-1.9,1.7-3.2,3.5-4.6
				C131.7,138.9,132.5,135.8,132.5,135.8 M132.7,132.7l-0.7,3c0,0-0.8,3-2.8,4.6c-0.3,0.2-0.5,0.4-0.8,0.6c-1.7,1.3-3.5,2.6-2.9,4.6
				c0.4,1.3,1.3,2.1,2.5,2.1c1,0,2-0.6,2.9-1.6c0.9-1,3-4.1,2.2-10.2L132.7,132.7L132.7,132.7z"/>
		</g>
		<g>
			<path class="st3" d="M130.8,119.3c-1.4-1.2-3.2-1.8-4.9-1.7c-4.1,0.3-7.1,4.4-6.8,9.1c0.2,2.5,1.3,4.8,3,6.3
				c1.3,1.1,2.9,1.7,4.5,1.7c0.2,0,0.3,0,0.5,0c4.1-0.3,7.1-4.4,6.8-9.1C133.6,123.1,132.5,120.8,130.8,119.3z"/>
			<g>
				<path class="st4" d="M129.9,129.3c-0.9,0.4-1.9,0.6-2.9,0.7c-1.3,0.1-2.5-0.1-3.6-0.5c-0.8-0.3-1.5,0.5-1,1.1
					c1.1,1.3,2.8,2.1,4.6,2c1.6-0.1,3-0.9,4-2.2C131.4,129.7,130.7,129,129.9,129.3z"/>
				<path class="st4" d="M128.3,124.3c0-2.1-1.7-3.8-3.8-3.8c-2.1,0-3.8,1.7-3.8,3.8s1.7,3.8,3.8,3.8
					C126.6,128.1,128.3,126.4,128.3,124.3z"/>
			</g>
		</g>
		<g>
			<path class="st3" d="M167.4,119.3c-1.4-1.2-3.2-1.8-4.9-1.7c-4.1,0.3-7.1,4.4-6.8,9.1c0.2,2.5,1.3,4.8,3,6.3
				c1.3,1.1,2.9,1.7,4.5,1.7c0.2,0,0.3,0,0.5,0c4.1-0.3,7.1-4.4,6.8-9.1C170.2,123.1,169.1,120.8,167.4,119.3z"/>
			<g>
				<path class="st4" d="M166.5,129.3c-0.9,0.4-1.9,0.6-2.9,0.7c-1.3,0.1-2.5-0.1-3.6-0.5c-0.8-0.3-1.5,0.5-1,1.1
					c1.1,1.3,2.8,2.1,4.6,2c1.6-0.1,3-0.9,4-2.2C168.1,129.7,167.3,129,166.5,129.3z"/>
				<circle class="st4" cx="161.1" cy="124.3" r="3.8"/>
			</g>
		</g>
	</g>
	<path class="st3" d="M215.5,121.7c-1.5-1.7-3.8-2.6-6.5-2.6c-1.5,0-3,0.3-4.5,0.8c2.3-3.5,5.4-9.5,5.4-17c0-5.6-3.2-13.1-8.8-20.6
		c-6-8-14-15.3-22.6-20.4c-10.9-6.5-21.8-9.7-33.3-9.7c-4,0-7.7,0.4-10.4,0.7c-6.5,0.8-11.8,2.8-15.7,5.9c-1.5,1.2-2.7,2.5-3.5,3.6
		c-0.2-2.9-0.7-5.8-1.9-7.6c-1.1-1.6-2.4-1.9-3.3-1.9c-0.4,0-0.7,0-1.1,0.1c-2,0.5-2.8,1.8-3.1,2.7c-0.7,2.2,0.6,5.3,2.3,8
		c-2.1-1.2-4.4-2.2-6.3-2.2c-1.7,0-3,0.9-3.5,2.4c-0.5,1.6-0.1,2.7,0.4,3.3c1,1.4,3.3,2.2,6.9,2.3c-1.5,0.6-3.1,1.2-4.8,2
		c-9,4.3-15.6,10.2-19,17.2c-4.4,8.9-3.8,19.5,1.5,31.6c-1.9-0.8-3.8-1.3-5.7-1.3c-2.6,0-4.7,0.8-6.3,2.4c-1.5,1.5-2.3,3.6-2.2,6.1
		c0.1,3.8,2.1,8,5.5,11.2c3.1,2.9,6.9,4.6,10.4,4.9c4,22.5,20.3,40.8,41.5,47.2v8.7c0,0.2,0,0.4,0,0.6c-2.9,1.1-5.6,2.4-8.2,4
		c-0.5,0.3-0.7,0.9-0.4,1.4c4.4,9.8,14.2,16.1,24.8,16.1c11,0,20.9-6.6,25.2-16.9c0.2-0.5,0-1.1-0.5-1.4c-2.5-1.5-5.2-2.7-8.1-3.7
		c0-0.1,0-0.1,0-0.2v-8.5c21.5-6.2,38.1-24.4,42.2-47.1c2.9-0.7,5.9-2.2,8.5-4.5c4-3.4,6.5-7.8,6.8-11.8
		C217.5,125.3,216.8,123.3,215.5,121.7z M134.9,54.1c2.9-0.4,6.4-0.7,10.2-0.7c8.8,0,19.8,1.9,32.7,9.5c18.2,10.9,30.8,29.4,30.9,40
		c0,11.5-7.6,19.5-7.6,19.5s-5.6-3.7-19.8-13.7c-12.5-8.7-21.5-18.7-21.5-18.7l2,9.2c0,0-0.2,0-0.5,0c-3.9,0-28.2-0.8-42.9-19.7
		c-3.7-4.7-4.6-9.1-3.6-12.9C115.6,63.3,120.4,56,134.9,54.1z M109.5,54.2c0.3-0.1,0.6-0.1,0.8-0.1c3.3,0,4.1,5.5,4.2,10
		c-0.5,1-0.8,1.7-0.9,2.2c-0.1,0.3-0.1,0.6-0.2,0.9c-0.4-0.3-1.4-1.1-2.7-2.1C107.8,61.1,104.9,55.4,109.5,54.2z M99.7,64.4
		c0.4-1.2,1.3-1.6,2.4-1.6c3.3,0,8.5,3.7,10,4.9c-0.7,0.2-1.6,0.4-2.7,0.8c-0.8,0.1-1.7,0.1-2.7,0.1C102.8,68.6,98.6,67.8,99.7,64.4
		z M113.2,68.6c-0.3,3.7,1.1,7.7,4.1,11.6C93.1,90,86,122.8,86,122.8C65.4,81.5,107,70.1,113.2,68.6z M75.8,138
		c-5.3-5-6.8-12.1-3.3-15.6c1.4-1.4,3.3-2.1,5.5-2.1c2,0,4.3,0.7,6.4,1.8c0.2,0.4,0.3,0.8,0.5,1.2l0.3,0.6c-0.7,3.6-0.7,5.1-0.7,9
		c0,3.3,0.3,6.4,0.8,9.6C82.1,142.2,78.7,140.7,75.8,138z M167.3,204.4c-4,9.5-13.3,16.2-24.1,16.2c-10.6,0-19.7-6.4-23.8-15.5
		c2.7-1.7,5.7-3.1,8.8-4.1c0-0.5-0.1-0.9-0.1-1.4v-8.4c5,1.4,10.2,2.2,15.6,2.2c5.2,0,10.1-0.7,14.9-2v8.2c0,0.3,0,0.7,0,1
		C161.7,201.5,164.6,202.8,167.3,204.4z M143.7,192.3c-32.1,0-58.1-26.5-58.1-59.3c0-2.4,0.2-4.7,0.5-7l1-2.9c0-0.1,2-8.9,7.1-18.5
		c4.4-8.2,12.1-18.6,24-23.2c15,18.1,38.4,19.1,43,19.1c0.4,0,0.6,0,0.6,0l1.4,0l-0.3-1.3l-1.1-5.3c3.6,3.7,10.5,10.1,18.9,16
		c14.1,9.8,19.8,13.6,19.9,13.7l0.6,0.4c0,0,0,0,0,0c0.5,3,0.8,6.1,0.8,9.2C201.9,165.7,175.8,192.3,143.7,192.3z M209.8,138.6
		c-2.4,2-5,3.4-7.6,4.1c0.5-3.2,0.8-6.4,0.8-9.7c0-3.4-0.3-6.7-0.9-10c0.2-0.2,0.6-0.7,1.2-1.4c1.9-0.8,3.9-1.3,5.6-1.3
		c2.3,0,4.4,0.7,5.7,2.2C218,126.3,215.8,133.5,209.8,138.6z"/>
</g>
</svg>
