<?xml version="1.0" encoding="utf-8"?>
<!-- Generator: Adobe Illustrator 22.1.0, SVG Export Plug-In . SVG Version: 6.00 Build 0)  -->
<svg version="1.1" id="Слой_3" xmlns="http://www.w3.org/2000/svg" xmlns:xlink="http://www.w3.org/1999/xlink" x="0px" y="0px"
	 viewBox="0 0 512 512" style="enable-background:new 0 0 512 512;" xml:space="preserve">
<style type="text/css">
	.st0{fill:#FDCD95;stroke:#000000;stroke-width:3;stroke-linecap:round;stroke-linejoin:round;stroke-miterlimit:10;}
	.st1{fill:#816164;stroke:#000000;stroke-width:3;stroke-linecap:round;stroke-linejoin:round;stroke-miterlimit:10;}
	.st2{fill:#8A242E;stroke:#000000;stroke-width:3;stroke-linecap:round;stroke-linejoin:round;stroke-miterlimit:10;}
	.st3{fill:none;stroke:#000000;stroke-width:3;stroke-linecap:round;stroke-linejoin:round;stroke-miterlimit:10;}
	.st4{fill:#662227;stroke:#000000;stroke-width:3;stroke-linecap:round;stroke-linejoin:round;stroke-miterlimit:10;}
	.st5{fill:none;stroke:#000000;stroke-width:2;stroke-linecap:round;stroke-linejoin:round;stroke-miterlimit:10;}
	.st6{fill:#FFFFFF;}
	.st7{fill:#FFAFB9;}
</style>
<g>
	<path class="st0" d="M158.8,436.1c0,0-26.3,32-7.7,31c0,0,5.3,12.3,14,4c0,0,7.3,8.4,12,2.9c0,0,10.7,1.1,10.3-7.9
		c0,0,4.3-17.3,4.3-18.3s-19.7-19-19.7-19L158.8,436.1z"/>
	<path class="st0" d="M353.2,433.8c0,0,26.3,32,7.7,31c0,0-5.3,12.3-14,4c0,0-7.3,8.4-12,2.9c0,0-10.7,1.1-10.3-7.9
		c0,0-4.3-17.3-4.3-18.3s19.7-19,19.7-19L353.2,433.8z"/>
	<polygon class="st1" points="186.2,411.2 186.2,527.9 325.8,545.8 325.8,396.6 	"/>
	<path class="st2" d="M220.5,171.7c0,0-43.3-6-58.7,20c-14.1,23.9-12.4,219.3-12.1,251c0,3,1.7,5.7,4.4,7c5,2.4,13.9,4.8,24.1-0.5
		c2.2-1.1,6.5-3.7,6.7-6.1v-28c0,0,63.5,42,140.8,4v22.7c0,0,28.9,7.4,33-3.3c4.3-11.3,4.3-269.2-57-267.3S220.5,171.7,220.5,171.7z
		"/>
	<line class="st3" x1="183.8" y1="246" x2="185" y2="415"/>
	<path class="st0" d="M219.4,163.5c0.8,1.5,0.9,19.1,0.9,19.1s18.5,33.6,56.8,4.8V156L219.4,163.5z"/>
	<line class="st3" x1="311.2" y1="228.3" x2="325.8" y2="419"/>
	<path class="st4" d="M216.1,159.6c0,0-11-8.3-17-5c-6,3.3-9.9-6.5-11.1-10.3c-0.8-2.6-6.2-6.2-9.9-9.7c-2.4-2.3-3.9-10.6-3.7-14
		c0.4-5.6-0.6-13.5-3-17.7c-1.6-2.8-3.7-14,1.7-18c5.3-4,9.3-17.7,9-22.3c-0.3-4.7,4-14.3,15.2-14c7.5,0.2,19.8-10,21.8-15.7
		s22.8-22,33.7-4c0,0,19-3.7,29.3,8.7c10.3,12.3,20.7,11.3,20.7,11.3s13.7,3.7,10,18.8c-3.7,15.2,1.7,19.9,5.3,22.4
		c3.7,2.4,7.7,13.4,4.7,19.8c-3,6.3-7,20.7-7,23.7s-0.5,15-7.8,18.7c-7.2,3.7-12.8,7.9-15.6,12c-2.1,3-16,4.7-17,2
		c-1-2.7-11,3.3-11,3.3s-4,5.7-6,6.3s-18.7,1.7-20.3,0c-1.7-1.7-14.3-6-14.7-7S216.1,159.6,216.1,159.6z"/>
	<path class="st0" d="M211.3,78.3c5.8-1,16.4-5.2,20.1-9.7c0.4-0.4,0.7-0.9,1.1-1.4c6.7-8.3,11.3-9.3,14.3-11c2-1.1,6.8-3.8,8.9-7.3
		c1-1.7,0-3.6,0.7-5.7l-1.7,7c34.7-7,16.2,33.7,26.5,37.7s15,12.4,15,12.4l-4.2,4.8c3-3.5,8.3-8.3,12.6-4.2
		c6,5.7,7.5,28.8-13.4,37.3c-5.3,28.5-22.3,49.4-42.5,49.4c-20.7,0-38.1-22.1-42.9-51.8c-16.7-4.8-22.2-24.5-15.3-32.8
		c5.7-6.9,12.1-2.9,15.3-0.1c1.5-9.1,4.1-17.5,7.7-24.7"/>
	<path class="st3" d="M291.5,67.6c0,0,1.6-10.3-6.4-12.7c-8-2.3-10-6.6-10.7-9.3c-0.8-3-5.9-11.3-17.1-9"/>
	<path class="st5" d="M194.1,107.7c0,0,6.4,9.1,7.8,14.1"/>
	<path class="st5" d="M192.6,115.2c0,0,4.6-1.5,6.3,0"/>
	<path class="st5" d="M301.7,110.9c0,0-6.4,9.1-7.8,14.1"/>
	<path class="st5" d="M303.2,118.4c0,0-4.6-1.5-6.3,0"/>
	<path class="st3" d="M252.8,28.9c0,0,2,3.2,3.2,7c0.7,2.3,1.1,4.9,0.5,7.2"/>
	<path class="st3" d="M214.6,57.8c0,0,6.5-10.3,13.6-11.5c7.1-1.2,13-3.7,14.2-5.6c2.1-3.4,8.1-8.9,11.2-8.4"/>
	<path class="st5" d="M241,103.7c0,0,3.3,21.7-1.5,28.9c-0.7,1.1-0.6,2.5,0.4,3.3c1.4,1.1,4,2.2,9,1.7"/>
	<path class="st5" d="M253.7,129.3c0,0,3.5,5,1.3,8.4"/>
	<path d="M227.8,154.2c0,0,20.2,3,24.7,1.6c4.5-1.3,12.6-2.4,12.6-2.4l-6.4,12.5l-12.2,1l-11.3,0.1L227.8,154.2z"/>
	<path class="st6" d="M228.3,155.4c0,0,17.6,7,36.6-1.2c0,0,3.2-8.8-1.2-6.9c-4.4,1.9-16.9,9-24.9,4.6c-8-4.4-12.4-1.7-12.4-1.7
		L228.3,155.4z"/>
	<path class="st7" d="M233.2,164.7c0,0,15.1-2.9,26.2,0.6c0,0-12,17-24.3,1.9L233.2,164.7z"/>
	<path class="st3" d="M208.7,95c0,0,9.7-4.6,12.7,0.4s4.7,8,10.5,7.8"/>
	<path class="st3" d="M254.9,101.1c0,0,4.7,3.1,9.3-2.5c4.7-5.5,9.7-9.9,14-6.2"/>
	<path class="st5" d="M231,90c0,0,8.8,13.9,19.5,1.2"/>
	<path class="st5" d="M235.5,84.3c0,0,5.6,8.8,12.4,0.8"/>
	<g>
		<path class="st5" d="M225.8,148.3c2.7,10.4,10.2,25,20.4,25c12.5,0,19.9-18.3,20.3-27.2v0"/>
		<polyline class="st5" points="225.8,148.3 247.2,154.2 266.5,146.1 266.5,146.1 		"/>
	</g>
	<ellipse transform="matrix(0.9937 -0.1123 0.1123 0.9937 -11.9622 25.7706)" cx="222.8" cy="119.1" rx="4.8" ry="7.8"/>
	<circle class="st6" cx="222.8" cy="117.6" r="2.3"/>
	<path class="st3" d="M213.7,107.4c0,0,12.7,4.3,16.6,10.8"/>
	<ellipse cx="265.6" cy="117.8" rx="4.8" ry="7.8"/>
	<circle class="st6" cx="265.5" cy="116.3" r="2.3"/>
	<path class="st3" d="M273.3,105.2c0,0-12.2,5.7-15.3,12.6"/>
</g>
</svg>
