<?xml version="1.0" encoding="utf-8"?>
<!-- Generator: Adobe Illustrator 22.1.0, SVG Export Plug-In . SVG Version: 6.00 Build 0)  -->
<svg version="1.1" id="Слой_5" xmlns="http://www.w3.org/2000/svg" xmlns:xlink="http://www.w3.org/1999/xlink" x="0px" y="0px"
	 viewBox="0 0 512 512" style="enable-background:new 0 0 512 512;" xml:space="preserve">
<style type="text/css">
	.st0{fill:#FDCD95;stroke:#000000;stroke-width:3;stroke-linecap:round;stroke-linejoin:round;stroke-miterlimit:10;}
	.st1{fill:#662227;stroke:#000000;stroke-width:3;stroke-linecap:round;stroke-linejoin:round;stroke-miterlimit:10;}
	.st2{fill:none;stroke:#000000;stroke-width:3;stroke-linecap:round;stroke-linejoin:round;stroke-miterlimit:10;}
	.st3{fill:none;stroke:#000000;stroke-width:2;stroke-linecap:round;stroke-linejoin:round;stroke-miterlimit:10;}
	.st4{fill:#816164;stroke:#000000;stroke-width:3;stroke-linecap:round;stroke-linejoin:round;stroke-miterlimit:10;}
	.st5{fill:#8A242E;stroke:#000000;stroke-width:3;stroke-linecap:round;stroke-linejoin:round;stroke-miterlimit:10;}
	.st6{fill:#FFFFFF;}
	.st7{fill:#B9D3E5;stroke:#000000;stroke-width:0.3584;stroke-miterlimit:10;}
</style>
<path class="st0" d="M242.1,179.3c0,0,2,16.3-3.3,23.3c-3.7,4.9-20.3,11.3-20.3,11.3l-13.8,13.8l49.7,18.5l28.9-2.8
	c0,0,13.8-7.8,13.8-8.8s0-17.5,0-17.5s-18.2-7.5-20.1-28.3v-14l-8.7,4.8l-11.7,1.5L242.1,179.3z"/>
<path class="st1" d="M223.7,159.6c0,0-11-8.3-17-5c-6,3.3-9.9-6.5-11.1-10.3c-0.8-2.6-6.2-6.2-9.9-9.7c-2.4-2.3-3.9-10.6-3.7-14
	c0.4-5.6-0.6-13.5-3-17.7c-1.6-2.8-3.7-14,1.7-18c5.3-4,9.3-17.7,9-22.3c-0.3-4.7,4-14.3,15.2-14c7.5,0.2,19.8-10,21.8-15.7
	s22.8-22,33.7-4c0,0,19-3.7,29.3,8.7c10.3,12.3,20.7,11.3,20.7,11.3s13.7,3.7,10,18.8s1.7,19.9,5.3,22.4c3.7,2.4,7.7,13.4,4.7,19.8
	c-3,6.3-7,20.7-7,23.7s-0.5,15-7.8,18.7c-7.2,3.7-12.8,7.9-15.6,12c-2.1,3-16,4.7-17,2c-1-2.7-11,3.3-11,3.3s-4,5.7-6,6.3
	s-18.7,1.7-20.3,0c-1.7-1.7-14.3-6-14.7-7C230.7,167.9,223.7,159.6,223.7,159.6z"/>
<path class="st0" d="M219.2,78.3c5.8-1,16.4-5.2,20.1-9.7c0.4-0.4,0.7-0.9,1.1-1.4c6.7-8.3,11.3-9.3,14.3-11c2-1.1,6.8-3.8,8.9-7.3
	c1-1.7,0-3.6,0.7-5.7l-1.7,7c34.7-7,16.2,33.7,26.5,37.7s15,12.4,15,12.4l-4.2,4.8c3-3.5,8.4-8.3,12.6-4.2c6,5.7,7.5,28.8-13.4,37.3
	c-5.3,28.5-22.3,49.4-42.5,49.4c-20.7,0-38.1-22.1-42.9-51.8c-16.7-4.8-22.2-24.4-15.3-32.8c5.7-6.9,12.1-2.9,15.3-0.1
	c1.5-9.1,4.1-17.5,7.7-24.7"/>
<path class="st2" d="M299.1,67.6c0,0,1.6-10.3-6.4-12.7c-8-2.3-10-6.6-10.7-9.3c-0.8-3-5.9-11.3-17.1-9"/>
<path class="st3" d="M201.7,107.7c0,0,6.4,9.1,7.8,14.1"/>
<path class="st3" d="M200.2,115.2c0,0,4.6-1.5,6.3,0"/>
<path class="st3" d="M309.3,110.9c0,0-6.4,9.1-7.8,14.1"/>
<polygon class="st4" points="189.1,435.3 185.9,525 338.8,537.9 330.9,440.4 "/>
<path class="st3" d="M310.8,118.4c0,0-4.6-1.5-6.3,0"/>
<path class="st2" d="M260.4,28.9c0,0,2,3.2,3.2,7c0.7,2.3,1.1,4.9,0.5,7.2"/>
<path class="st2" d="M222.2,57.8c0,0,6.5-10.3,13.6-11.5c7.1-1.2,13-3.7,14.2-5.6c2.1-3.4,8.1-8.9,11.2-8.4"/>
<path class="st3" d="M248.6,107.7c0,0,3.3,21.7-1.5,28.9c-0.7,1.1-0.6,2.5,0.4,3.3c1.4,1.1,4,2.2,9,1.7"/>
<path class="st3" d="M261.3,133.3c0,0,3.5,5,1.3,8.4"/>
<path class="st0" d="M171.2,437.3c0,0,6.5,26.4,18.9,35c12.4,8.6,20.6,5.9,20.6,5.9L199,433.9L171.2,437.3z"/>
<path class="st0" d="M341.3,433.9c0,0,10.5,29.9-16.6,44.5c-0.4,0.2-0.7,0.3-1.1,0.5l-6.3,1.8l6.5-41L341.3,433.9z"/>
<path class="st5" d="M232.7,205.4c0,0-47.3,14.8-60.5,112.6c-13.2,97.8-3.5,122.5-3.5,122.5s9.3,10.8,27.4,8.3
	c3.7-0.5,6.7-3.1,7.9-6.6h0c0,0,63.5,30.8,114.6-2.6v15.6c0,0,19.4,0.3,25.6-16.5c6.2-16.7,7.9-223.9-60.8-231.8
	C283.2,206.9,260.9,240.6,232.7,205.4z"/>
<path class="st2" d="M212.7,282.7c0,0-19.4,123.4-8.8,159.5"/>
<path class="st2" d="M306.1,274.8c0,0,20.3,143.7,12.3,164.8"/>
<path class="st2" d="M239.6,164.5c0,0,8.8-4.3,12-2.5c2.9,1.7,5.9,2.3,9.8,0.1c0.7-0.4,1.5-0.6,2.3-0.6c2.3,0,8.5,0.9,10.7,3"/>
<path class="st3" d="M239.6,160.8c0,0-1.3,4.3-1.8,6.8"/>
<path class="st3" d="M274.4,160.2c0,0,1.8,6.2,1.7,7.5"/>
<path class="st3" d="M248.9,170.5c0,0,6.5,4.7,13.4,0.7"/>
<path class="st3" d="M270.2,141.8c0,0,7,10.2,8.2,14.7"/>
<path class="st3" d="M240.9,144c0,0-5.8,12.2-6,16.2"/>
<g>
	<path class="st3" d="M225,94.7c0,0,10.2-6.7,19.7-4.7s8.7,1.9,13.5-0.3c4.8-2.2,15.4-0.1,19.4,1.9"/>
	<line class="st2" x1="222.2" y1="109.5" x2="239.6" y2="100.8"/>
	<line class="st2" x1="263.4" y1="100" x2="280.4" y2="107"/>
	<ellipse cx="233.9" cy="120.5" rx="4.6" ry="7.8"/>
	<circle class="st6" cx="232.7" cy="120.3" r="1.8"/>
	<path class="st2" d="M233.9,112.7c0,0-3.6,1-8.3,9.3"/>
	<ellipse cx="274.7" cy="118.5" rx="4.6" ry="7.8"/>
	<circle class="st6" cx="273.3" cy="118.3" r="1.8"/>
	<path class="st2" d="M274.7,110.7c0,0,3.6,1,8.3,9.3"/>
</g>
<path class="st7" d="M281.9,136.7l-2.1,3.7c-0.9,1.6,0.2,3.7,2.1,3.7l0,0c1.9,0,3-2,2.1-3.7L281.9,136.7z"/>
<path class="st7" d="M232.2,133.1l-2.1,3.7c-0.9,1.6,0.2,3.7,2.1,3.7l0,0c1.9,0,3-2,2.1-3.7L232.2,133.1z"/>
<path class="st7" d="M277.7,126.5l-2.1,3.7c-0.9,1.6,0.2,3.7,2.1,3.7l0,0c1.9,0,3-2,2.1-3.7L277.7,126.5z"/>
</svg>
