<?xml version="1.0" encoding="utf-8"?>
<!-- Generator: Adobe Illustrator 23.1.0, SVG Export Plug-In . SVG Version: 6.00 Build 0)  -->
<svg version="1.1" id="Слой_1" xmlns="http://www.w3.org/2000/svg" xmlns:xlink="http://www.w3.org/1999/xlink" x="0px" y="0px"
	 viewBox="0 0 283.5 283.5" style="enable-background:new 0 0 283.5 283.5;" xml:space="preserve">
<style type="text/css">
	.st0{fill:#8EC757;}
	.st1{fill:#FFDEA8;}
	.st2{fill:#FFFFFF;}
	.st3{fill:#ED232C;}
	.st4{fill:#FFDC4D;}
</style>
<g>
	<path class="st0" d="M67,247.1c0,0,2.2-20,3.9-31.9c0.8-5.4,2.9-19.1,2.9-19.1s-8.3-2.9-10.9-3.9c-2.7-1-10.1-4.3-10.1-4.3
		s19.6-38.9,45.7-41.5c22.8-2.3,20.5-0.9,27.3,1.9c6.8,2.8,23.2,12.3,37.7,38.6c0,0-8,4.6-10.9,5.8c-3.9,1.7-9.9,3.6-9.9,3.6
		s2.4,15.3,2.9,20.3c0.8,7.4,2.7,30.4,2.7,30.4H67z"/>
	<path class="st1" d="M157.4,191.2l-11.1,4.8l4.6,20.5c0,0-21-10.9-34.3-18.2c1.3-0.3,3-0.8,4.1-1.8c2.2-1.9,6.8-5.3,8.5-5.8
		c1.7-0.5,4.1-1.4,4.1-2.2c0-0.7-1.7-2.4-3.9-1.7c-2.2,0.7-5.6,3.4-5.6,3.4l2.6-4.3c0,0,2-1.5,5.8-6.4c2.7-3.4,4-5.6,3.3-6.5
		c-0.5-0.5-1.4-0.3-1.4-0.3c0.1-0.7-0.4-1.1-1.2-0.9l-0.9,0.9c0,0-0.4-1.2-1.6-0.5c-0.3,0.2-0.9,1.3-0.9,1.3s-1.1-1.5-2.7,1.4
		c-0.7,1.4-2.9,3.4-4.1,4.3c-1.2,1-6.3,4.6-7.2,5.8c-1,1.2-5.6,6.8-6.9,8.6c-1.5-0.9-2.4-1.5-2.5-1.7c-1.2-1.7-5.9-7.6-6.8-8.9
		c-0.9-1.2-5.9-5-7.1-6c-1.2-1-3.3-3.1-4-4.4c-1.5-3-2.6-1.5-2.6-1.5s-0.6-1.2-0.9-1.4c-1.3-0.8-1.6,0.4-1.6,0.4l-0.9-0.9
		c-0.9-0.2-1.3,0.2-1.2,0.9c0,0-0.9-0.3-1.4,0.2c-0.8,0.9,0.5,3.1,3.1,6.6c3.7,5,5.6,6.6,5.6,6.6l2.5,4.4c0,0-3.3-2.7-5.5-3.5
		c-2.2-0.8-3.9,0.9-3.9,1.6c0,0.7,2.4,1.7,4.1,2.3c1.7,0.5,6.2,4,8.3,6c2.1,2,6.2,2.3,6.2,2.3s0.4,0.4,1.2,1
		c-12.5,5.8-36.3,16-36.3,16l5.1-18.1l-12.1-4.7c0,0-12.5,40.2-2.7,40.6c9.5,0.4,39.4-19.2,52.8-28.3c13.7,10.8,41,31.1,52,30
		C169.5,232.2,157.4,191.2,157.4,191.2z"/>
	<circle class="st2" cx="157" cy="86.1" r="3.2"/>
	<circle class="st2" cx="163.7" cy="80.1" r="2.5"/>
	<path class="st2" d="M239.3,63.6c0.1-0.9,0.2-1.7,0.2-2.6c0-12.4-10-22.4-22.4-22.4c-5.7,0-11,2.2-14.9,5.7
		c-2.9-1.6-6.2-2.4-9.8-2.4c-10.6,0-19.3,7.8-20.7,18c-3.1,2.2-5.1,5.8-5.1,9.8c0,6.6,5.4,12,12,12c0.1,0,0.2,0,0.3,0
		c3.4,10,12.9,17.2,24,17.2c8.5,0,16-4.2,20.6-10.6c1.8,0.8,3.9,1.3,6,1.3c8.2,0,14.9-6.7,14.9-14.9
		C244.4,70.4,242.4,66.4,239.3,63.6z"/>
	<g>
		<path d="M157,82.2c-2.2,0-4,1.8-4,4c0,2.2,1.8,4,4,4c2.2,0,4-1.8,4-4C161,83.9,159.2,82.2,157,82.2z M157,89.4
			c-1.8,0-3.2-1.4-3.2-3.2c0-1.8,1.4-3.2,3.2-3.2s3.2,1.4,3.2,3.2C160.3,87.9,158.8,89.4,157,89.4z"/>
		<path d="M163.7,76.9c-1.8,0-3.3,1.5-3.3,3.3c0,1.8,1.5,3.3,3.3,3.3c1.8,0,3.3-1.5,3.3-3.3C167,78.3,165.5,76.9,163.7,76.9z
			 M163.7,82.7c-1.4,0-2.5-1.1-2.5-2.5c0-1.4,1.1-2.5,2.5-2.5c1.4,0,2.5,1.1,2.5,2.5C166.3,81.5,165.1,82.7,163.7,82.7z"/>
		<path d="M240.1,63.3c0.1-0.8,0.1-1.6,0.1-2.3c0-12.8-10.4-23.1-23.1-23.1c-5.5,0-10.9,2-15,5.6c-3-1.5-6.3-2.3-9.7-2.3
			c-5.3,0-10.3,1.9-14.3,5.4c-3.8,3.4-6.3,8-7.1,13c-3.2,2.4-5.2,6.2-5.2,10.2c0,6.9,5.6,12.6,12.5,12.7
			c3.7,10.3,13.5,17.2,24.6,17.2c8.2,0,15.9-3.9,20.9-10.4c1.8,0.7,3.8,1.1,5.8,1.1c8.6,0,15.6-7,15.6-15.6
			C245.1,70.5,243.3,66.3,240.1,63.3z M229.5,89.7c-2.1,0-4.2-0.5-6-1.3c-4.6,6.4-12.1,10.6-20.6,10.6c-11.2,0-20.6-7.2-24-17.2
			c-0.1,0-0.2,0-0.3,0c-6.6,0-12-5.4-12-12c0-4.1,2-7.7,5.1-9.8c1.4-10.2,10.1-18,20.7-18c3.5,0,6.9,0.9,9.8,2.4
			c4-3.5,9.2-5.7,14.9-5.7c12.4,0,22.4,10,22.4,22.4c0,0.9-0.1,1.8-0.2,2.6c3.1,2.7,5.1,6.7,5.1,11.2
			C244.4,83,237.7,89.7,229.5,89.7z"/>
	</g>
	<g>
		<path class="st3" d="M219.1,54.5c-3.5-1.8-8.6,0-12.9,4.1c-4.2-3.9-9.2-5.6-12.6-3.8c-4.6,2.4-4.6,10.1-0.1,17.1
			c4.5,7.1,13.2,13,13.2,13s10.4-9.9,12.5-13.3C223.7,64.6,223.6,56.9,219.1,54.5z"/>
		<path d="M216,53.8c1.1,0,2.1,0.2,3.1,0.7c4.6,2.4,4.6,10.1,0.1,17.1c-2.2,3.4-12.5,13.3-12.5,13.3s-8.7-6-13.2-13
			c-4.5-7.1-4.4-14.7,0.1-17.1c0.9-0.5,2-0.7,3.1-0.7c3,0,6.5,1.7,9.5,4.5C209.3,55.6,212.9,53.8,216,53.8 M216,53.1
			c-3.1,0-6.6,1.6-9.8,4.5c-3.1-2.7-6.5-4.3-9.5-4.3c-1.3,0-2.4,0.3-3.4,0.8c-1.7,0.9-2.9,2.5-3.5,4.6c-1,3.8,0.1,8.9,3.1,13.5
			c4.5,7.1,13,13,13.4,13.2c0.1,0.1,0.3,0.1,0.4,0.1c0.2,0,0.4-0.1,0.5-0.2c0.4-0.4,10.5-10,12.6-13.4c2.9-4.6,4.1-9.7,3.1-13.5
			c-0.6-2.1-1.8-3.7-3.5-4.6C218.4,53.4,217.3,53.1,216,53.1L216,53.1z"/>
		<path d="M226.3,82.7l-18.8-13.4l17.9-15c0.3-0.3,0.3-0.7,0.1-1s-0.7-0.3-1-0.1l-18.2,15.2l-19.1-13.6c-0.3-0.2-0.8-0.2-1,0.2
			c-0.2,0.3-0.2,0.8,0.2,1l18.8,13.4l-17.9,15c-0.3,0.3-0.3,0.7-0.1,1c0.1,0.2,0.3,0.3,0.6,0.3c0.2,0,0.3-0.1,0.5-0.2l18.2-15.2
			l19.1,13.6c0.1,0.1,0.3,0.1,0.4,0.1c0.2,0,0.5-0.1,0.6-0.3C226.7,83.4,226.7,83,226.3,82.7z"/>
	</g>
	<path class="st1" d="M154.6,98.7c-1.8-2-5.4-1.9-8.7,0c-2.9-17.9-18.2-31.6-36.7-31.6c-18.6,0-34,13.9-36.7,32
		c-3.7-2.5-8.1-2.7-10-0.2c-2,2.6-0.6,7.2,3.3,10.1c2.2,1.7,4.7,2.5,6.8,2.3c2.5,14.3,12.8,25.8,26.3,29.7v4c0,0.3,0,0.6,0,0.9
		c-2.1,0.7-4.1,1.6-5.9,2.8c2.8,6.1,8.9,10.4,16.1,10.4c7.3,0,13.6-4.5,16.3-10.8c-1.8-1.1-3.8-1.9-5.9-2.6c0-0.2,0-0.4,0-0.7v-4
		c13.2-3.9,23.4-15,26.2-28.8c1.9-0.4,3.9-1.4,5.8-2.9C155.4,106,156.8,101.2,154.6,98.7z"/>
	<g>
		<path class="st4" d="M88.6,62.7c-0.2-0.2-7.6-5.6-8.6-2.2C78.7,64.6,88.6,62.7,88.6,62.7z"/>
		<path class="st4" d="M130.7,60.5c-12-6.9-21.6-6.3-27.8-5.5c-9.3,1.2-12.5,5.7-13.1,7.9c-0.1,0.2,0,0.4-0.1,0.6c0,0,0,0,0,0
			c0.1-1.9,0.3-11-3.5-9.9c-4.4,1.3,1.8,8.4,3.2,9.9c-3.7,0.8-30.9,7.7-17.4,35.9c0,0,2.8-19.4,20.6-28
			c10.5,12.4,27.7,11.8,27.7,11.8l-1.3-5.7c0,0,5.8,6.3,13.9,11.7c9.2,6.2,13.5,9.5,13.5,9.5s4.3-5.9,4.3-13.1
			C150.7,78.9,142.5,67.3,130.7,60.5z"/>
	</g>
	<g>
		<g>
			<path d="M112.2,130.3c-1.5-3.3-4.8-6.1-8.7-7.4c-4-1.3-8.2-1-11.4,0.7c-0.2,0.1-0.2,0.3-0.1,0.5c0.1,0.2,0.3,0.2,0.5,0.1
				c3-1.7,7-1.9,10.8-0.7c3.8,1.2,6.9,3.9,8.3,7c0.1,0.1,0.2,0.2,0.3,0.2c0.1,0,0.1,0,0.2,0C112.2,130.7,112.3,130.4,112.2,130.3z"
				/>
			<path d="M100.5,124.6c-1.2-0.4-2.6-0.3-3.6,0.2c-0.2,0.1-0.2,0.3-0.1,0.5c0.1,0.2,0.3,0.2,0.5,0.1c0.8-0.5,2-0.5,3-0.2
				c1.1,0.4,1.9,1.1,2.3,1.9c0.1,0.1,0.2,0.2,0.3,0.2c0,0,0.1,0,0.1,0c0.2-0.1,0.3-0.3,0.2-0.5C102.7,125.9,101.7,125,100.5,124.6z"
				/>
		</g>
		<g>
			<path d="M97.2,98.2c-1.9,0.1-3.2,2.1-3.1,4.5c0.2,2.3,1.8,4.1,3.7,4c1.9-0.1,3.2-2.1,3.1-4.5C100.7,99.9,99,98.1,97.2,98.2z"/>
			<path d="M121,98.2c-1.9-0.1-3.5,1.7-3.7,4c-0.2,2.3,1.2,4.3,3.1,4.5c1.9,0.1,3.5-1.7,3.7-4C124.3,100.4,122.9,98.4,121,98.2z"/>
			<path d="M109.1,110.1c-2.5,0-4.5,1.7-4.5,3.7c0,0.2,0.2,0.4,0.4,0.4c0.2,0,0.4-0.2,0.4-0.4c0-1.7,1.7-3,3.8-3
				c2.1,0,3.8,1.3,3.8,3c0,0.2,0.2,0.4,0.4,0.4c0.2,0,0.4-0.2,0.4-0.4C113.6,111.7,111.6,110.1,109.1,110.1z"/>
			<path d="M92.8,89.4c-0.1-0.1-0.4-0.1-0.5,0c-0.1,0.1-0.1,0.4,0,0.5c0.2,0.2,6.1,5.9,10,7.6c0,0,0.1,0,0.1,0
				c0.1,0,0.3-0.1,0.3-0.2c0.1-0.2,0-0.4-0.2-0.5C98.8,95.2,92.9,89.5,92.8,89.4z"/>
			<path d="M125.9,89.4c-0.2-0.1-0.4-0.1-0.5,0.1c0,0.1-4.6,5.7-8.8,7.1c-0.2,0.1-0.3,0.3-0.2,0.5c0.1,0.2,0.2,0.2,0.3,0.2
				c0,0,0.1,0,0.1,0c4.4-1.5,8.9-7.1,9.1-7.4C126.1,89.8,126,89.5,125.9,89.4z"/>
		</g>
	</g>
	<path d="M162.3,208.5c-1.8-9.1-4.2-17.4-4.3-17.5c0-0.1-0.1-0.1-0.1-0.1c2.8-1.5,5.6-3.1,5.8-3.2c0.3-0.2,0.5-0.6,0.3-1
		c-6.3-11.5-13.7-21-21.9-28.3c-7.2-6.4-13.2-9.4-16.2-10.6c-1.1-0.4-5-2.2-5-2.1c-0.2-0.1-0.4-0.2-0.7-0.3c0,0,0-0.1,0-0.1v-3.4
		c13.1-4,23.1-15.1,26-28.8c1.9-0.5,3.9-1.5,5.7-3c2-1.7,3.4-3.9,4.1-6c0.7-2.3,0.4-4.3-0.9-5.7c-1-1.1-2.5-1.7-4.2-1.7
		c-0.8,0-1.7,0.2-2.6,0.4c1.3-2.4,3.1-6.6,3.1-11.4c0-3.5-2.1-8.2-5.7-12.9c-3.9-5-9-9.6-14.6-12.8c-7.1-4.1-14.1-6.1-21.6-6.1
		c-2.6,0-5,0.2-6.7,0.5c-4.2,0.5-7.6,1.8-10.2,3.7c-1,0.8-1.7,1.5-2.2,2.3C90.4,58,90,55.4,89,54c-0.7-1-1.6-1.2-2.2-1.2
		c-0.3,0-0.5,0-0.8,0.1c-1.3,0.4-1.8,1.2-2,1.9c-0.5,1.8,0.9,4,2.4,5.7c-1.5-0.9-3.4-1.7-4.8-1.7c-1.2,0-2,0.6-2.4,1.7
		c-0.3,1,0,1.8,0.3,2.2c0.7,0.9,2.2,1.4,4.5,1.4c0.5,0,1,0,1.5-0.1c-1.1,0.4-2.4,0.8-3.8,1.5c-5.7,2.6-9.8,6.3-12.1,10.7
		c-3,5.9-2.8,13,0.7,21.2c-1.2-0.5-2.4-0.8-3.6-0.8v0.7l0-0.7c-2,0-3.7,0.7-4.8,2.1c-2.3,2.9-0.7,7.9,3.4,11.1
		c2,1.6,4.5,2.5,6.7,2.5c2.7,14.1,12.9,25.4,26.2,29.5v3.4c0,0.1,0,0.3,0,0.4c-0.1,0.1-0.3,0.1-0.4,0.2c-5.9,0.7-12,3.3-18,7.7
		c-4.9,3.6-9.8,8.4-14.6,14.3c-8.1,10-13.1,19.8-13.1,19.9c-0.1,0.2-0.1,0.4,0,0.6c0.1,0.2,0.2,0.3,0.4,0.4c0.2,0.1,2.2,1,4.5,2
		c0,0,0,0-0.1,0.1c0,0.1-2.5,8.2-4.4,17.1c-2.5,12.1-2.7,19.7-0.5,22.8c0.7,1,1.7,1.6,3,1.6c0.1,0,0.2,0,0.3,0c3,0,7.8-1.8,13.3-4.4
		c-1.2,9.7-2.2,19.2-2.2,19.3c0,0.2,0,0.4,0.2,0.6c0.1,0.2,0.3,0.2,0.5,0.2h81.2c0.2,0,0.4-0.1,0.5-0.2c0.1-0.1,0.2-0.3,0.2-0.5
		c0-0.1-0.7-8.4-1.4-16.5c4.7,2.2,8.6,3.4,11.4,3.4c0.3,0,0.6,0,0.9,0c1.2-0.1,2.2-0.7,2.9-1.8C164.9,228.8,164.8,220.9,162.3,208.5
		z M150.9,97.2c1.5,0,2.8,0.5,3.7,1.5c2.2,2.5,0.8,7.3-3.1,10.7c-1.6,1.4-3.3,2.3-5,2.7c0.4-2.3,0.7-4.8,0.7-7.2
		c0-1.8-0.2-3.6-0.4-5.4l0.3-0.4c0-0.1,0.4-0.5,0.8-1.2C148.9,97.5,150,97.2,150.9,97.2z M89.8,63.2c0-0.1,0-0.2,0-0.3
		c0.6-2.1,3.7-6.7,13.1-7.9c1.9-0.2,4.1-0.5,6.6-0.5c5.7,0,12.9,1.2,21.2,6c11.8,6.8,20,18.4,20,25.1c0,7.2-4.3,13.1-4.3,13.1
		s-4.2-3.3-13.5-9.5c-8.1-5.4-13.9-11.7-13.9-11.7l1.3,5.7c0,0-0.1,0-0.4,0c-2.6,0-18.3-0.5-27.8-12.3
		C89.9,68.1,89.3,65.5,89.8,63.2L89.8,63.2L89.8,63.2z M86.2,53.6c0.2-0.1,0.4-0.1,0.6-0.1c2.4,0,2.9,4.7,3,7.8
		c-0.3,0.5-0.4,0.9-0.5,1.1l-0.1-0.1c-0.1-0.1-0.5-0.4-1-0.8C86,59,82.6,54.6,86.2,53.6z M84.1,63.2c-2.4,0-4.7-0.5-4.1-2.6
		c0.2-0.8,0.9-1.1,1.7-1.1c2.5,0,6.8,3.1,7,3.3c0,0,0,0,0,0C88.6,62.7,86.3,63.2,84.1,63.2z M65.8,109.1c-3.8-2.9-5.3-7.5-3.3-10.1
		c0.9-1.2,2.5-1.8,4.2-1.8c1.3,0,2.7,0.4,4,1c0.2,0.5,0.4,1,0.6,1.5l0.3,0.6c-0.2,1.5-0.3,3.1-0.3,4.7c0,2.2,0.2,4.4,0.6,6.6
		C69.9,111.4,67.7,110.6,65.8,109.1z M71.9,99c0-0.1,0-0.1,0-0.2c0,0,0,0.1,0,0.1C59.2,71.9,84.2,64.7,89,63.6
		c-0.4,2.5,0.5,5.2,2.6,7.8c0.1,0.1,0.2,0.2,0.3,0.4C74.8,80.5,72,99.4,72,99.4C72,99.2,71.9,99.1,71.9,99z M72,104.9
		c0-1.2,0.1-2.3,0.2-3.5l0.2,0.4l0.3-2.4c0-0.1,0.8-5.1,3.8-11.1c2.6-5.1,7.5-11.8,15.9-16.1c9.7,11,24.6,11.6,27.5,11.6
		c0.2,0,0.4,0,0.4,0l0.9,0L121,83l-0.7-3.3c2.3,2.3,6.8,6.4,12.2,10c9.1,6.1,13.4,9.4,13.4,9.4l0,0c0,0,0,0.1,0,0.2
		c0.3,1.8,0.4,3.7,0.4,5.5c0,20.9-16.7,37.8-37.2,37.8C88.7,142.7,72,125.8,72,104.9z M99,146.1c0-0.3,0-0.6,0-0.9v-3.2
		c3.3,0.9,6.7,1.5,10.3,1.5c3.6,0,7-0.5,10.3-1.5v3.2c0,0.2,0,0.4,0,0.7c2.1,0.7,4.1,1.5,5.9,2.6c-2.7,6.4-9,10.8-16.3,10.8
		c-7.1,0-13.3-4.3-16.1-10.4C94.9,147.8,96.9,146.8,99,146.1z M52.7,188c0,0,17.9-35.6,42.3-41c-0.8,0.4-1.6,0.8-2.4,1.3
		c-0.3,0.2-0.4,0.6-0.3,0.9c3,6.6,9.5,10.8,16.7,10.8c7.4,0,14.1-4.4,16.9-11.3c0-0.1,0-0.1,0-0.2c7,3,23.1,12.6,37.3,38.5
		c0,0-8,4.6-10.9,5.8c-3.2,1.4-7.8,2.9-9.4,3.4c-0.5-2.5-2.2-10.2-3-12c-0.1-0.2-0.3-0.3-0.5-0.2c-0.2,0.1-0.3,0.3-0.2,0.5
		c0.9,2.1,3.1,12.6,3.1,12.7c0,0.1,0.1,0.1,0.1,0.1c0.4,2.5,1.5,10,2.2,15.3c-8.9-4.7-18.9-10-26.6-14.1c1-0.3,1.9-0.8,2.7-1.5
		c2.2-1.9,6.6-5.2,8.2-5.6c2.1-0.6,4.6-1.6,4.6-2.9c0-1-1.5-2.6-3.5-2.6c-0.4,0-0.9,0.1-1.3,0.2c-0.9,0.3-2,0.9-3,1.5l0.8-1.3
		c0.5-0.4,2.5-2.1,5.8-6.5c3-3.9,4.4-6.1,3.2-7.4c-0.3-0.4-0.8-0.6-1.3-0.6c-0.1-0.1-0.1-0.3-0.2-0.4c-0.2-0.2-0.6-0.5-1.2-0.5
		c-0.2,0-0.4,0-0.6,0.1c-0.1,0-0.2,0.1-0.3,0.2l-0.4,0.3c-0.2-0.2-0.6-0.3-1-0.3c-0.4,0-0.7,0.1-1.1,0.3c-0.2,0.1-0.5,0.4-0.8,0.9
		c-0.1,0-0.3-0.1-0.5-0.1c-0.9,0-1.8,0.7-2.5,2.2c-0.7,1.2-2.8,3.2-3.9,4.1c-0.3,0.2-0.9,0.7-1.6,1.2c-2.6,2-5.1,3.8-5.8,4.7
		c-0.3,0.3-0.8,1-1.5,1.8c-1.6,2-3.9,4.7-5,6.2c-0.9-0.6-1.6-1-1.8-1.2c-0.9-1.3-3.6-4.7-5.3-7c-0.7-0.9-1.2-1.5-1.5-1.9
		c-0.7-0.9-3.1-2.8-5.6-4.8c-0.7-0.5-1.3-1-1.6-1.3c-1.1-1-3.2-3-3.8-4.2c-0.8-1.5-1.6-2.3-2.5-2.3c-0.2,0-0.3,0-0.5,0.1
		c-0.3-0.5-0.5-0.8-0.8-0.9c-0.4-0.2-0.8-0.4-1.1-0.4c-0.4,0-0.7,0.1-0.9,0.3l-0.4-0.3c-0.1-0.1-0.2-0.2-0.3-0.2
		c-0.2-0.1-0.4-0.1-0.6-0.1c-0.6,0-1,0.3-1.2,0.5c-0.1,0.1-0.2,0.2-0.2,0.4c-0.5,0-1,0.2-1.3,0.6c-1.1,1.3,0.1,3.6,3.1,7.5
		c3.3,4.4,5.2,6.2,5.7,6.6l0.7,1.3c-1-0.6-2-1.3-2.9-1.6c-0.5-0.2-0.9-0.2-1.4-0.2c-2,0-3.5,1.5-3.5,2.5c0,1.3,2.5,2.3,4.6,3
		c1.5,0.5,5.9,3.9,8,5.8c2,1.9,5.5,2.4,6.4,2.5c0,0,0.1,0.1,0.1,0.1c-7.3,3.3-18.1,8.1-27.8,12.3c0.8-5.3,1.8-11.7,2-13.2
		c0,0,0,0,0,0c0-0.1,1.8-9,2.7-12.2c0.1-0.2-0.1-0.4-0.3-0.4c-0.2-0.1-0.4,0.1-0.4,0.3c-0.8,2.9-2.2,10.1-2.6,11.9
		c-0.7-0.2-1.8-0.6-3.1-1.1c0,0,0,0,0,0l-0.1,0c0,0,0,0,0,0c-2.5-0.9-5.6-2-7-2.5C60.2,191.3,52.7,188,52.7,188z M145.5,196.2
		l4.2,18.9c-1.3-0.7-2.6-1.4-4-2.1c-0.7-5.5-2-13.8-2.4-16.1C143.9,196.8,144.6,196.5,145.5,196.2z M92.8,189.4
		c-1.2-0.7-2.3-1.8-3-2.6l-1.8-3.3c0,0-2-1.6-5.6-6.6c-2.6-3.5-3.9-5.7-3.1-6.6c0.2-0.3,0.5-0.3,0.8-0.3c0,0,0,0,0,0c0,0,0,0,0,0
		c0.5,3.6,3.9,7.3,6.2,9.8c0.9,1,1.9,2.1,1.9,2.4c0,0.2,0.2,0.3,0.4,0.3c0,0,0,0,0,0c0.2,0,0.3-0.2,0.3-0.4
		c-0.1-0.5-0.7-1.3-2.1-2.8c-2.2-2.4-5.5-6.1-6-9.4c0-0.1-0.1-0.1-0.1-0.2c0.1-0.3,0.3-0.6,0.7-0.6c0.1,0,0.3,0,0.4,0.1l0.6,0.6
		c-0.3,2.7,2.8,6.2,5,8.8c1,1.2,1.9,2.2,2.1,2.8c0.1,0.1,0.2,0.2,0.3,0.2c0,0,0.1,0,0.1,0c0.2-0.1,0.3-0.3,0.2-0.5
		c-0.2-0.7-1.1-1.7-2.3-3c-2.2-2.5-5.2-6-4.8-8.4c0,0,0-0.1,0-0.1c0.1-0.1,0.3-0.2,0.5-0.2c0.2,0,0.5,0.1,0.8,0.3
		c0.1,0.1,0.4,0.4,0.5,0.7c0,0.1-0.1,0.1-0.1,0.2c0,0.1,0.1,2.4,1.7,4.6c0.4,0.6,1.1,1.3,1.9,2.3c2.5,2.8,6.3,7,6.7,10.6
		c0.3,2.7,1.3,5.1,2.4,5.8c0.1,0,0.1,0.1,0.2,0.1c0.1,0,0.2-0.1,0.3-0.2c0.1-0.2,0.1-0.4-0.1-0.5c-0.8-0.5-1.7-2.6-2.1-5.2
		c-0.5-3.8-4.3-8.2-6.9-11c-0.8-0.9-1.5-1.7-1.9-2.2c-1.3-1.8-1.5-3.5-1.5-4c0.1-0.1,0.2-0.1,0.4-0.1c0.5,0,1.1,0.4,1.9,1.9
		c0.7,1.4,2.8,3.5,4,4.4c1.2,1,6.2,4.7,7.1,6c0.9,1.2,5.6,7.1,6.8,8.9c0.1,0.2,0.8,0.7,1.9,1.3c0,0,0,0,0,0
		c-0.5,0.5-3.3,1.9-7.5,3.8c-0.3-0.3-0.6-0.5-0.6-0.5s-4.1-0.3-6.2-2.3c-2.1-2-6.6-5.5-8.3-6c-1.7-0.5-4.1-1.6-4.1-2.3
		c0-0.6,1.2-1.8,2.8-1.8c0.4,0,0.7,0.1,1.1,0.2c1.1,0.4,2.5,1.3,3.7,2.1c0.4,0.6,2.1,2.5,3.8,3.5c0.1,0,0.1,0,0.2,0
		c0.1,0,0.2-0.1,0.3-0.2C93.1,189.8,93,189.5,92.8,189.4z M70.9,210.1c-1.8,0.8-3.5,1.5-5.2,2.2l4.7-16.5c1.1,0.4,2,0.7,2.6,0.9
		C72.6,198.6,71.6,204.9,70.9,210.1z M54.9,231.4c-9.8-0.4,2.6-40.5,2.7-40.6c1.9,0.8,3.9,1.7,5.1,2.1c1.4,0.6,4.5,1.7,7.1,2.5
		l-4.9,17.1c-0.6,0.4-2.5,1.8-3,3.3c-0.1,0.2,0,0.4,0.2,0.5c0,0,0.1,0,0.1,0c0.2,0,0.3-0.1,0.3-0.2c0.4-1.1,1.8-2.3,2.5-2.8
		c4.5-1.9,42.1-18,43.3-19.6c1.2-1.7,6-7.5,7-8.7c1-1.2,6-4.8,7.2-5.8c1.2-1,3.4-3,4.1-4.3c0.8-1.5,1.4-1.8,1.9-1.8
		c0.1,0,0.2,0.1,0.3,0.1c0,0,0,0,0,0c0,0,0.8,1-1.2,3.5c-0.3,0.4-0.9,1.1-1.6,1.8c-2.7,2.9-7.2,7.7-7.8,11.7
		c-0.4,2.7-1.4,4.7-2.2,5.2c-0.2,0.1-0.2,0.3-0.1,0.5c0.1,0.1,0.2,0.2,0.3,0.2c0.1,0,0.1,0,0.2-0.1c1.1-0.6,2.1-3,2.5-5.7
		c0.6-3.8,5-8.5,7.6-11.3c0.7-0.8,1.3-1.4,1.7-1.8c1.8-2.3,1.6-3.6,1.3-4.2c0.2-0.3,0.5-0.8,0.6-0.9c0.3-0.2,0.5-0.2,0.8-0.2
		c0.4,0,0.6,0.2,0.8,0.4c-0.3,3-3.2,6-5.4,8.3c-1.1,1.2-2,2.1-2.3,2.8c-0.1,0.2,0,0.4,0.2,0.5c0,0,0.1,0,0.1,0
		c0.1,0,0.3-0.1,0.3-0.2c0.2-0.5,1.1-1.5,2.1-2.5c2.3-2.4,5.5-5.7,5.6-9c0,0,0-0.1,0-0.1l0.4-0.3c0.1,0,0.3-0.1,0.4-0.1
		c0.6,0,0.9,0.4,0.8,0.9c0,0,0,0,0,0c-0.1,2.8-3.6,6.4-6,8.8c-1.2,1.2-2,2.1-2.3,2.6c-0.1,0.2,0,0.4,0.2,0.5c0,0,0.1,0,0.1,0
		c0.1,0,0.3-0.1,0.3-0.2c0.2-0.4,1.1-1.3,2.1-2.4c2.5-2.5,6.1-6.2,6.2-9.3c0.2,0,0.4,0.1,0.6,0.3c0.8,0.9-0.6,3.1-3.3,6.5
		c-3.8,4.9-5.8,6.4-5.8,6.4l-1.5,2.5c-0.5,0.6-1.9,2.4-3.5,3.3c-0.2,0.1-0.2,0.3-0.1,0.5c0.1,0.1,0.2,0.2,0.3,0.2c0.1,0,0.1,0,0.2,0
		c1.4-0.8,2.7-2.2,3.4-3.1c1.2-0.8,2.9-2,4.2-2.4c0.4-0.1,0.7-0.2,1.1-0.2c1.6,0,2.8,1.3,2.8,1.9c0,0.7-2.4,1.7-4.1,2.2
		c-1.7,0.5-6.3,3.9-8.5,5.8c-2.2,1.9-6.3,2.2-6.3,2.2s-46.4,32.9-59.2,32.9C55.1,231.4,55,231.4,54.9,231.4z M148.1,247.1H67
		c0,0,1.1-9.8,2.3-19.8c12.7-6.2,29.2-17,38.4-23.3c4.2,3.3,9.5,7.4,15.2,11.4c9.5,6.8,17.4,11.7,23.8,14.7
		C147.4,238.6,148.1,247.1,148.1,247.1z M159.7,233.1c-0.3,0-0.6,0-0.9,0c-11.4,0-37-18.9-50.5-29.6c3.3-2.2,5.6-3.8,6.3-4.3
		c0.5,0,1.6-0.2,2.9-0.5c11.7,6.4,28.6,15.2,32.5,17.3c0.1,0,2.8,1.5,3.5,2.9c0.1,0.1,0.2,0.2,0.3,0.2c0.1,0,0.1,0,0.2,0
		c0.2-0.1,0.2-0.3,0.2-0.5c-0.7-1.3-2.8-2.6-3.5-3l-4.4-19.6l0.1-0.1c2-0.7,4.5-1.6,6.4-2.4c1-0.5,2.8-1.4,4.6-2.3c0,0,0,0,0,0v0
		l0,0C157.4,191.2,169.5,232.2,159.7,233.1z"/>
</g>
</svg>
