<?xml version="1.0" encoding="utf-8"?>
<!-- Generator: Adobe Illustrator 23.1.0, SVG Export Plug-In . SVG Version: 6.00 Build 0)  -->
<svg version="1.1" id="Слой_1" xmlns="http://www.w3.org/2000/svg" xmlns:xlink="http://www.w3.org/1999/xlink" x="0px" y="0px"
	 viewBox="0 0 283.5 283.5" style="enable-background:new 0 0 283.5 283.5;" xml:space="preserve">
<style type="text/css">
	.st0{fill:#FFDEA8;}
	.st1{fill:#FFDC4D;}
	.st2{fill:#FFFFFF;}
</style>
<g>
	<path d="M104.8,173.4c0.3-3-1.2-5-1.8-5.6c0.2-0.9,0.8-4,0.2-5.5c-1.3-3.2-4.8-4.7-10.4-4.5c-6.7,0.3-9.9,2.6-10.7,3.3l-2-0.5
		c0.4-1.7,1.7-8,1.7-11.7c0-4.6-4.2-11-8.3-11c-1.2,0-2,0.2-2.4,0.8c-0.7,0.9-0.6,2.2-0.3,4.3c0.2,1.1,0.3,2.5,0.4,4.1
		c0.3,6-3.4,12.2-7.1,15.7c-3.5,3.3-6.1,7.9-6.6,9l-18.8,1.2c-0.2,0-0.4,0.2-0.4,0.4l-0.6,23.3c0,0.1,0,0.2,0.1,0.3
		c0.1,0.1,0.2,0.1,0.3,0.1l23.1-0.9c0.8,0.5,5,3.1,10,3.9c3,0.5,6,0.7,8.6,0.7c3.9,0,7.3-0.4,9.5-0.6l0.4,0c5.8-0.6,10-2,11.8-6.3
		c0.9-2.1-0.1-4-0.6-4.9c0.9-0.6,2.9-2.1,3.1-5.6c0.2-2.8-0.5-4.3-0.8-4.9C103.7,177.8,104.5,176.1,104.8,173.4z M92.9,158.7
		c2.9-0.1,5.1,0.3,6.8,1.1c-7.7,4.5-14.4,2.5-16.5,1.7C84.3,160.6,87.4,158.9,92.9,158.7z M103.3,183.2c-0.3,3.9-2.9,5-3,5
		c0,0,0,0,0,0.1c0,0-0.1,0-0.1,0c0,0-2.6,2.3-9.9,1.4c-0.2,0-0.5,0.1-0.5,0.4c0,0.2,0.1,0.5,0.4,0.5c1.2,0.1,2.3,0.2,3.3,0.2
		c4,0,6.1-1,6.9-1.5c0.4,0.7,1.3,2.3,0.6,4c-1.7,3.9-5.7,5.2-11.1,5.8l-0.4,0c-3.7,0.4-10.5,1.2-17.9,0c-5.2-0.9-9.7-3.8-9.8-3.9
		c-1.9-1.4-2.2-3.9-2.2-3.9c0-0.2-0.2-0.4-0.5-0.4c-0.2,0-0.4,0.3-0.4,0.5c0,0.1,0.3,2.2,1.7,3.8l-21.7,0.8l0.6-22.4l18.6-1.2
		c0.2,0,0.3-0.1,0.4-0.2c0-0.1,2.7-5.4,6.5-8.9c3.9-3.6,7.7-10.1,7.4-16.4c-0.1-1.6-0.3-3.1-0.4-4.2c-0.2-1.8-0.4-3.1,0.1-3.6
		c0.3-0.3,0.8-0.5,1.7-0.5c3.6,0,7.4,5.9,7.4,10.1c0,4.1-1.8,11.9-1.8,12c0,0.1,0,0.2,0.1,0.3c0.1,0.1,0.2,0.2,0.3,0.2l2.7,0.6
		c0.3,0.2,3.2,1.5,7.4,1.5c3.1,0,6.8-0.7,10.8-3.1c0.1,0,0.1-0.1,0.1-0.2c0.9,0.6,1.5,1.4,1.9,2.4c0.4,1.1-0.1,4-0.3,5.1
		c-0.2,0.3-3,4-11.1,4.6c-0.3,0-0.4,0.2-0.4,0.5c0,0.2,0.2,0.4,0.5,0.4c0,0,0,0,0,0c7.3-0.5,10.5-3.4,11.5-4.6
		c0.5,0.7,1.6,2.4,1.4,4.7c-0.3,3.2-1.4,4.9-1.4,4.9c0,0,0,0.1,0,0.1c0,0,0,0,0,0c0,0-1.1,3.3-10.5,3.6c-0.2,0-0.4,0.2-0.4,0.5
		c0,0.2,0.2,0.4,0.5,0.4c0,0,0,0,0,0c7.4-0.2,10-2.3,10.9-3.5C103.1,180,103.4,181.3,103.3,183.2z"/>
	<path d="M85.3,168.1c-0.2-0.1-0.5-0.1-0.6,0.1c-0.1,0.2-0.1,0.5,0.1,0.6c0,0,1.5,1,0.7,3.1c-0.1,0.2,0,0.5,0.3,0.6
		c0.1,0,0.1,0,0.2,0c0.2,0,0.4-0.1,0.4-0.3C87.2,170.1,86,168.6,85.3,168.1z"/>
	<path d="M85,176.3c-0.2-0.1-0.5-0.1-0.6,0.1c-0.1,0.2-0.1,0.5,0.1,0.6c0,0,1.5,1,0.7,3.1c-0.1,0.2,0,0.5,0.3,0.6c0.1,0,0.1,0,0.2,0
		c0.2,0,0.4-0.1,0.4-0.3C86.9,178.2,85.7,176.7,85,176.3z"/>
	<path d="M84.7,184.4c-0.2-0.1-0.5-0.1-0.6,0.1c-0.1,0.2-0.1,0.5,0.1,0.6c0,0,1.5,1,0.7,3.1c-0.1,0.2,0,0.5,0.3,0.6
		c0.1,0,0.1,0,0.2,0c0.2,0,0.4-0.1,0.4-0.3C86.6,186.4,85.4,184.9,84.7,184.4z"/>
	<g>
		<path class="st0" d="M233.9,119.7c-2.4-2.8-7.1-2.7-11.7-0.3c-4.2-25.3-25.6-44.6-51.5-44.6c-26.3,0-46.4,18.4-52.8,45.2
			c-5.3-4-10.7-3.5-13.5,0.2c-2.8,3.7-0.8,10.2,4.6,14.3c3.3,2.6,7.1,3.7,10.2,3.3c3.4,20.2,17.9,36.6,36.8,42.2l0.2,9.1
			c0,0.4,0,0.9,0.1,1.3c-2.9,1-5.7,2.3-8.3,3.9c3.9,8.7,12.5,14.7,22.6,14.7c10.3,0,19.1-6.4,22.9-15.4c-2.6-1.5-5.3-2.7-8.3-3.7
			c0-0.3,0-0.6,0-0.9l-0.2-8.9c18.8-5.4,33.2-21.4,37.1-41.2c2.5-0.6,5.1-1.9,7.5-4C234.9,130.1,236.9,123.2,233.9,119.7z"/>
		<g>
			<path class="st1" d="M142.4,68.8c0.9-2.1-2.1-16.3-7.5-13.4C127.5,59.4,142.4,68.8,142.4,68.8z"/>
			<path class="st1" d="M141.6,68.4c-0.3-0.3-13.4-8.3-14-2C127,73.4,141.6,68.4,141.6,68.4z"/>
			<path class="st1" d="M200.3,65.3c-16.9-9.8-30.3-8.9-39.1-7.8c-13.1,1.6-17.5,8.1-18.4,11.2c-0.1,0.3-0.1,0.6-0.2,0.8
				c-2.7,0.6-45.4,10.8-25.7,52.4c0,0,6.6-32.2,29.5-41.3c14.7,17.8,39.2,17,39.2,17l-1.8-8.2c0,0,8.2,8.9,19.6,16.7
				c13,8.8,18.1,12.2,18.1,12.2s6.9-7.1,6.9-17.3C228.4,91.5,216.9,75,200.3,65.3z"/>
		</g>
		<g>
			<path d="M152.6,118.1c-2.6,0.2-4.5,3-4.3,6.3c0.2,3.3,2.5,5.8,5.2,5.7c2.6-0.2,4.5-3,4.3-6.3C157.5,120.5,155.2,118,152.6,118.1z
				"/>
			<path d="M186.1,118.1c-2.6-0.2-4.9,2.3-5.2,5.7c-0.2,3.3,1.7,6.2,4.3,6.3c2.6,0.2,4.9-2.3,5.2-5.7
				C190.7,121.2,188.7,118.3,186.1,118.1z"/>
			<path d="M169.4,135.8C169.4,135.8,169.4,135.8,169.4,135.8c-3.5,0-6.3,2.4-6.3,5.3c0,0.3,0.2,0.5,0.5,0.5c0.3,0,0.5-0.2,0.5-0.5
				c0-2.3,2.4-4.3,5.3-4.3h0c1.4,0,2.8,0.5,3.8,1.3c1,0.8,1.5,1.9,1.5,3c0,0.3,0.2,0.5,0.5,0.5c0.3,0,0.5-0.2,0.5-0.5
				c0-1.4-0.7-2.8-1.9-3.8C172.6,136.4,171,135.8,169.4,135.8z"/>
			<path d="M157.5,101.7c-0.1-0.3-0.4-0.4-0.6-0.4c-9.5,2.5-12,9.3-12.1,9.6c-0.1,0.3,0,0.6,0.3,0.7c0.1,0,0.1,0,0.2,0
				c0.2,0,0.4-0.1,0.5-0.3c0-0.1,2.4-6.7,11.4-9C157.4,102.3,157.5,102,157.5,101.7z"/>
			<path d="M193.9,109.8c-3.1-6.1-9.7-8.4-10-8.5c-0.3-0.1-0.6,0.1-0.7,0.3c-0.1,0.3,0.1,0.6,0.3,0.7c0.1,0,6.5,2.2,9.4,7.9
				c0.1,0.2,0.2,0.3,0.4,0.3c0.1,0,0.2,0,0.3-0.1C193.9,110.4,194,110.1,193.9,109.8z"/>
		</g>
		<g>
			<path class="st2" d="M143.2,143.4c0,0,24.8,21,52,0.7c0,0-5.4,5.8-11,12.7c-4.4,5.4-8.3,12.4-14.5,12.4
				c-5.7,0-10.1-7.2-14.8-12.7C148.9,149.4,143.2,143.4,143.2,143.4z"/>
			<path d="M199.7,145.8c-0.1,0-5.3-2.3-6.6-5.5c-0.1-0.3-0.4-0.4-0.7-0.3c-0.3,0.1-0.4,0.4-0.3,0.7c0.5,1.2,1.4,2.3,2.5,3.2
				c-13.8,10.1-26.9,9.4-35.4,7c-8.1-2.3-13.9-6.5-15.3-7.6c1.3-1.5,2.2-3,2.3-3.2c0.1-0.2,0.1-0.6-0.2-0.7
				c-0.3-0.1-0.6-0.1-0.7,0.2c0,0.1-2.9,5-6.2,6c-0.3,0.1-0.4,0.4-0.4,0.6c0.1,0.2,0.3,0.4,0.5,0.4c0,0,0.1,0,0.1,0
				c1.4-0.4,2.7-1.4,3.8-2.5c1.3,1.3,6.2,6.6,11.4,12.7c0.9,1,1.7,2.1,2.6,3.2c3.8,4.8,7.7,9.7,12.6,9.7c0,0,0,0,0,0
				c5.3,0,9-4.8,12.5-9.5c0.8-1,1.6-2.1,2.4-3.1c5.3-6.5,10.4-12,10.9-12.6c1.8,1.4,3.7,2.2,3.8,2.2c0.1,0,0.1,0,0.2,0
				c0.2,0,0.4-0.1,0.5-0.3C200.1,146.3,200,146,199.7,145.8z M183.8,156.5c-0.8,1-1.6,2.1-2.4,3.1c-3.5,4.7-6.9,9.1-11.7,9.1
				c0,0,0,0,0,0c-4.4,0-8.2-4.7-11.8-9.3c-0.8-1.1-1.7-2.2-2.6-3.2c-3.2-3.7-6.2-7.2-8.4-9.6c2.8,1.7,7,3.9,12,5.3
				c8.1,2.3,20.2,3.1,33-4.9C189.8,149.4,186.8,152.8,183.8,156.5z"/>
		</g>
		<path d="M234.7,119c-1.4-1.6-3.5-2.5-6-2.5c-1.7,0-3.6,0.5-5.4,1.2c2-2.5,6.2-8.6,6.1-16.8c0-5-3-11.7-8.1-18.4
			c-5.4-7.1-12.7-13.6-20.6-18.1c-10-5.8-19.9-8.6-30.3-8.6c-3.7,0-7,0.4-9.4,0.7c-5.9,0.7-10.7,2.5-14.3,5.3
			c-1.8,1.4-3,2.9-3.8,4.1c-0.6-3.1-1.8-7.8-3.8-10.2c-0.9-1.1-2-1.6-3.1-1.6c-0.6,0-1.2,0.2-1.8,0.5c-1.7,0.9-2.2,2.2-2.3,3.1
			c-0.2,2.2,1.7,4.8,3.8,7c-1.5-0.6-3.1-1.1-4.5-1.3c-3.3-0.3-4.2,1.5-4.4,2.6c-0.2,1.1-0.1,2.1,0.5,2.8c0.7,0.9,1.9,1.5,3.6,1.6
			c2,0.2,4.5-0.1,6.4-0.5c-1.8,0.6-4.1,1.5-6.5,2.7c-5.7,2.8-13.3,7.8-17.4,16.1c-4,8.1-4,17.6,0.1,28.4c-1.2-0.3-2.4-0.6-3.5-0.6v1
			l0-1h0c-2.9,0-5.3,1.1-6.7,3c-3.2,4.2-1,11.3,4.8,15.8c2.9,2.3,6.4,3.6,9.6,3.6c0.1,0,0.2,0,0.4,0c3.7,19.9,18,36,36.6,41.9
			l0.2,8.3c0,0.2,0,0.4,0,0.6c-2.7,1-5.4,2.3-7.8,3.8c-0.4,0.3-0.6,0.8-0.4,1.3c4.2,9.3,13.4,15.4,23.5,15.4
			c10.4,0,19.8-6.3,23.8-16.1c0.2-0.5,0-1-0.4-1.3c-2.4-1.4-5-2.6-7.7-3.5c0-0.1,0-0.1,0-0.2v0l-0.2-8.1
			c18.5-5.7,32.8-21.5,36.9-41.1c2.5-0.7,5.1-2.1,7.4-4.1c2.8-2.5,4.8-5.5,5.7-8.6C236.8,123.9,236.4,121,234.7,119z M161.2,57.5
			c2.7-0.3,5.8-0.7,9.3-0.7c8,0,18.1,1.6,29.8,8.5c16.6,9.7,28.1,26.1,28.1,35.6c0,10.2-6.9,17.3-6.9,17.3s-5.1-3.3-18.1-12.2
			c-11.4-7.7-19.6-16.7-19.6-16.7l1.8,8.2c0,0-0.2,0-0.5,0c-3.6,0-25.7-0.7-39.1-17.5c-3.4-4.2-4.2-8.1-3.3-11.5
			C143.6,65.7,148,59.2,161.2,57.5z M134.8,55.4c0.4-0.2,0.9-0.3,1.3-0.3c3.7,0,5.5,8.7,6.1,12.3c-0.2,0.4-0.3,0.7-0.3,0.9
			c-0.7-0.6-2-1.7-2.9-2.2C135.3,62.9,130.5,57.6,134.8,55.4z M131.3,69.4c-2.1-0.2-3.6-1.1-3.2-3.2c0.3-1.6,1.6-2,3.3-1.8
			c2.2,0.2,5.1,1.5,7,2.5c0.6,0.5,1.2,1,1.7,1.4C138.6,68.7,134.3,69.7,131.3,69.4z M141.5,69.8c-0.5,3.5,0.8,7.3,3.7,11
			c0.1,0.1,0.2,0.2,0.2,0.3c-22.1,9.6-28.5,40.9-28.5,40.9C98.5,83.1,134.4,71.7,141.5,69.8z M117.9,137.9c-2.8,0-6.1-1.1-9-3.4
			c-5.4-4.2-7.4-10.6-4.6-14.3c1.3-1.7,3.5-2.6,5.9-2.6c1.3,0,2.6,0.3,4,0.7c0.5,1.3,1.1,2.7,1.8,4.1l1.3,2.8c0,0-0.1,2-0.1,3.3
			c0,3.2,0.3,6.3,0.8,9.4C118,137.9,117.9,137.9,117.9,137.9z M193.3,193.7c-3.8,9.1-12.6,15.4-22.9,15.4h0
			c-10,0-18.7-6.1-22.6-14.7c2.6-1.6,5.4-2.9,8.3-3.9c0-0.4-0.1-0.9-0.1-1.3l-0.2-8c4.7,1.4,9.6,2.2,14.7,2.2c5,0,9.7-0.7,14.3-2.1
			l0.2,7.9c0,0.3,0,0.6,0,0.9C188,191,190.8,192.2,193.3,193.7z M170.6,182.2C170.6,182.2,170.6,182.2,170.6,182.2
			c-28.9,0-52.4-23.9-52.4-53.6c0-3,0-5.8,0.5-8.6c-0.2,0,2.7-9.6,5.8-15.8c4-7.9,11-17.7,21.7-22.3c13.6,15.9,34.7,16.7,38.9,16.7
			c0.3,0,0.5,0,0.5,0l1.2,0l-0.3-1.2l-1-4.6c3.3,3.3,9.6,9,17.2,14.2c12.8,8.7,18,12.1,18.1,12.2l0.7,0.5l0.4-0.4
			c0.5,2.9,0.9,6.3,0.9,9.3C222.9,158.2,199.5,182.2,170.6,182.2z M229.4,134.9c-2,1.8-4.3,3-6.4,3.7c0.6-3.3,0.9-6.6,0.9-10.1
			c0-3-0.5-6.5-1-9.5c2-0.9,3.9-1.5,5.7-1.5c2.1,0,4,0.7,5.2,2.1C236.9,123.2,234.9,130.1,229.4,134.9z"/>
	</g>
</g>
</svg>
