<?xml version="1.0" encoding="utf-8"?>
<!-- Generator: Adobe Illustrator 22.1.0, SVG Export Plug-In . SVG Version: 6.00 Build 0)  -->
<svg version="1.1" id="Слой_4" xmlns="http://www.w3.org/2000/svg" xmlns:xlink="http://www.w3.org/1999/xlink" x="0px" y="0px"
	 viewBox="0 0 512 512" style="enable-background:new 0 0 512 512;" xml:space="preserve">
<style type="text/css">
	.st0{fill:#857154;}
	.st1{fill:#FDCD95;}
	.st2{fill:#FDCD95;stroke:#000000;stroke-width:3;stroke-linecap:round;stroke-linejoin:round;stroke-miterlimit:10;}
	.st3{fill:none;stroke:#1D1D1B;stroke-width:3;stroke-linecap:round;stroke-linejoin:round;stroke-miterlimit:10;}
	.st4{fill:none;stroke:#000000;stroke-width:3;stroke-linecap:round;stroke-linejoin:round;stroke-miterlimit:10;}
	.st5{fill:#B5D758;stroke:#000000;stroke-width:3;stroke-linecap:round;stroke-linejoin:round;stroke-miterlimit:10;}
	.st6{fill:#FFFFFF;}
</style>
<g>
	<polyline points="211,188 229.2,181.4 229.2,203.3 211,188 	"/>
	<polygon points="287.7,183.8 305.3,188.3 290.6,203.3 287.1,192.4 	"/>
	<path class="st0" d="M286.9,181.4v5.3l14.5,3.4l17.7-2.4l13.7-7.6l13-15.7c0,0,10.6-16.3,10.5-32.6c-0.1-16.2-1.1-27.2-1.1-27.2
		s-4.1-25.6-8.5-31.2c-4.4-5.6-8.1-20.9-13.2-23.8c-5.1-2.9-9.8-16.4-19.1-19.9L300,21.1L288,17.3l-15.4-1.1l-3,2l-9.3-3.3l-8-1
		l-12,2.2l-4.6,2.3l-7.5-0.2l-17.2,5l-10.7,7l-14.3,15l-11,20.3c0,0-4.7,12.7-5.4,15.6c-0.8,2.9-5,31.3-4.6,37.4s4.2,28.8,6.5,34.2
		s9.5,17.8,10.8,19.5c1.4,1.6,11.5,12.9,20.4,14.4s12.5,2.8,17.5,3c5,0.2,9.1-1.9,9.1-1.9l8.3-16.8l27.1-0.8c0,0,12.3,3.5,13.3,3.8
		c1.1,0.3,9,3.5,9,3.5V181.4z"/>
	<path class="st1" d="M288.8,217.5l-12.6,4.9l-16,2.3c0,0-18.2-0.7-23.4-3.6s-7.6-4.6-7.6-4.6l1.2-34.5c0,0-20.9-11.1-27.8-23.3
		c-6.9-12.2-10.5-22.7-10.5-22.7l-2.3-23.3l6.4-6.9l5.1-9.3l4.6,3.2l5.1,0.6l7.5-9.3l6-13.3l2.3,5.3l5,3.2l3.9-3.4l6.5-13.5l0.3,7.2
		l3.2,3.1l5.6-0.5l5.4-5.5l4.7,3.1l4.3,3.4l5.3,0.7l5.1-4.4l4.7-7.1l2.3,6.8l4.9,9.5l2.7,4h2.9l5.5-4.2l3,9.2l3.5,4.5l6.4-0.9
		l2.2,7.9l2.8,4.4l5.5-0.6l2.8-3.5l0.6,16.2l-6.1,24.5l-10.9,17L291.9,179l-6.6,3.1L288.8,217.5z"/>
	<path class="st2" d="M325.3,106.2c0.9-0.3,1.8-0.4,2.7-0.3c5.5,0.6,9.1,8.5,8.1,17.7c-1.1,9.1-6.4,16-11.9,15.4
		c-0.4-0.1-0.9-0.1-1.3-0.3"/>
	<path class="st3" d="M189.7,111.2c0,0.4,0,0.8,0,1.4"/>
	<path class="st4" d="M194.3,142.9c3.5,9.4,8.9,17.8,15.7,24.7c5.6,5.7,12.1,10.4,19.2,13.9c8.7,4.2,18.4,6.5,28.7,6.5
		c10.3,0,20-2.3,28.7-6.5c7.4-3.6,14.1-8.5,19.8-14.4c7.5-7.9,13.3-17.5,16.6-28.3c2.1-6.8,3.2-14,3.2-21.5c0-3.7-0.3-7.4-0.8-11"/>
	<path class="st4" d="M229.2,181.4L229.2,181.4v6.4v2v26.7c26.8,19.9,59.6,1,59.6,1"/>
	<polyline class="st4" points="288.8,217.5 286.9,186.7 286.6,181.4 286.6,181.4 	"/>
	<path class="st2" d="M194.3,142.9c-0.8,0.6-1.7,1.1-2.7,1.3c-5.4,1.2-11.4-5.2-13.3-14.2c-1.9-9,0.9-17.2,6.3-18.4
		c1.7-0.4,3.4,0,5,0.9c0,1.5,0,3.5,0,4.6C189.7,126.3,191.3,134.9,194.3,142.9z"/>
	<path class="st3" d="M189.8,112.7c-0.1,0-0.1-0.1-0.2-0.1"/>
	<path class="st4" d="M229.2,187.8c-6.3,2.1-12.8,2.7-19.3,1.6c-31.5-5.1-50.9-47.4-43.3-94.5c7.5-46.3,38.2-80.1,69.1-76.4"/>
	<path class="st4" d="M267.8,17.8C300,9.5,336.9,39.2,351,85.3c14.3,46.9-0.6,93-33.2,102.9c-10,3-20.6,2.3-30.8-1.5"/>
	<path class="st3" d="M235.7,18.4c4.7-2.8,10.4-4.5,16.6-4.5c5.7,0,11,1.4,15.5,3.9"/>
	<path class="st4" d="M181.4,70.6c0,0-1.4,66.6,16.7,29.5c0,0,2-3.6,4.4-7.9c3.2-5.8,7.2-12.9,8.4-14.5"/>
	<path class="st4" d="M325.3,106.2c0,0-8.6,15.6-13.2-8.2c0,0-8.9,7.8-12.1-11.7"/>
	<path class="st4" d="M303.5,70.6c0,0-4.6,32.4-16.9,12.8c0,0-6.2-11.4-6.2-17.8c0,0-6.1,29.5-22.5,6.8c0,0-17,19.6-15.6-5
		c0,0-9.6,34.4-17.8,10.3c0,0-12.5,36.6-23.2,16.7"/>
	<path class="st4" d="M317,42.8c0,0,16,24.6,17.8,46.6"/>
	<path class="st4" d="M211,45.3c0,0-14.5,12.1-16.7,29.5"/>
	<path class="st2" d="M340.1,327.7c0,0,56.7,58,73.7,27.8c2.9-5.2,3.5-11.5,1.8-17.3c-0.4-1.4-0.9-3-1.4-4.7
		c-4.9-15.6-15.8-44-35.5-64.6l-21.6-4.4l-6,23.8L336,322.8L340.1,327.7z"/>
	<g>
		<path class="st2" d="M105.4,472.3c0,0-9,6.5-10-0.5c-0.6-4,4.9-10.2,9.8-14c3.7-2.9,6.9-6.2,9.7-9.9c5.5-7.4,16.8-17.2,16.8-17.2
			c-1.7-49.3,26-112.3,26-112.3l23.3,5l8.7,3c0,0-24.2,70.7-27.3,79c-2.8,7.4-12.3,39.3-4.3,47.7c8.4,8.7,25,29.6,7.3,24.8
			s-17.7-9.2-27,9.2c-9.3,18.3-20,10.3-18.3,2"/>
		<path class="st2" d="M116.4,458.6c0,0-29.7,26.4-6,24.3"/>
		<path class="st2" d="M123.4,463.9c0,0-24.3,29-6.2,26.4c4.7-0.7,13.2-10.7,16.1-14.4"/>
	</g>
	<path class="st5" d="M215.9,189.3c0,0-26-14.4-54.7,57.7c-4.8,12-8.4,24.5-11,37.2l-6.8,34.2c-0.6,3.1,0.6,6.3,3.1,8.3
		c5.2,3.9,16,8.5,36.1,3.3l-18.3,137c0,0,110,45.3,196-9l-36-181.3c0,0,10.3,39.7,12.7,41c2.3,1.3,23.7-30.1,64.1-26.4
		c0,0-25.1-77.6-91.9-101c-3.8-1.3-8.1-0.6-11.3,1.7C283.6,202.4,241.2,228,215.9,189.3z"/>
	<g>
		<path class="st4" d="M235.7,314.4h-23.8c-3.7,0-6.8-3-6.8-6.8v-27.6c0-3.7,3-6.8,6.8-6.8h23.8c3.7,0,6.8,3,6.8,6.8v27.6
			C242.5,311.4,239.4,314.4,235.7,314.4z"/>
		<path class="st4" d="M206.3,276.2l13.3,13.5c2.2,2.3,5.9,2.2,8-0.2l12.6-14.3"/>
	</g>
	<line class="st4" x1="182.6" y1="330" x2="191.3" y2="280.7"/>
	<path class="st2" d="M304.9,322.8c0,0-16.5,40.3,0,35.8c0,0,2.3,0.3,9.4-10c1.8-2.5,3.1-5.3,4.1-8.3c0.9-2.5,3.5-6.1,11.1-7.9
		c3.7-0.9,7.2-2.3,10.3-4.4c3-2,5.9-4.8,6.4-8c1.3-7,6-15.5,8.5-17.3s10-12.8,4.3-20.3s-41.3-37.5-46.5-9.8c0,0-12.3,6.3-9.5,15.5
		c0,0-9.2,7.5-5.3,14C297.6,302.3,285.2,307.5,304.9,322.8z"/>
	<path class="st4" d="M305.4,301.3c0,0-5.6-0.7-7.8,1"/>
	<line class="st4" x1="310.5" y1="287.7" x2="303.2" y2="288.2"/>
	<path class="st4" d="M318.7,274.3c-1.3-0.6-4.7-2.4-6.3-1.5"/>
	<path class="st4" d="M304.9,322.8c0,0,23.7,12.3,23.2,1.3c-0.1-1.8-0.8-3.6-1.9-5c-1.1-1.4-2.8-3.5-4.9-5.6c-2.5-2.5-5.6-5-8.8-6.2
		"/>
	<path class="st4" d="M318.7,294.8c0,0,40.2,25.8,2.6,18.7"/>
	<path class="st4" d="M327.4,278.5c0,0,38.1,27.2,0.7,22.6"/>
	<path class="st4" d="M332.9,282.8c0,0,29.4,8.3,10.3-13.9"/>
	<path class="st4" d="M341.9,316.3c0,0,0.8-7,9.3-17.5"/>
	<path class="st4" d="M376.3,304.6c0,0,20.9,9.5,37.4,27.1"/>
	<path class="st4" d="M233,162c0,0,26.3-24,52.7-2"/>
	<path class="st4" d="M250,134.3c0,0,9.3-5,17.7,0"/>
	<line class="st4" x1="264.9" y1="104.3" x2="285.7" y2="92.3"/>
	<line class="st4" x1="246" y1="104.3" x2="225.7" y2="95.3"/>
	<path class="st4" d="M250,171.7c0,0,11.7-6,21,0"/>
	<ellipse cx="234.1" cy="120.3" rx="7.5" ry="11.8"/>
	<ellipse class="st6" cx="234.1" cy="117" rx="3.1" ry="4.9"/>
	<path class="st4" d="M220,114c0,0,12-10,24.7-1.9"/>
	<ellipse cx="281.5" cy="119" rx="7.5" ry="11.8"/>
	<ellipse class="st6" cx="281.5" cy="115.7" rx="3.1" ry="4.9"/>
	<path class="st4" d="M295.7,112.7c0,0-12-10-24.7-1.9"/>
</g>
</svg>
