<?xml version="1.0" encoding="utf-8"?>
<!-- Generator: Adobe Illustrator 22.1.0, SVG Export Plug-In . SVG Version: 6.00 Build 0)  -->
<svg version="1.1" id="Слой_3" xmlns="http://www.w3.org/2000/svg" xmlns:xlink="http://www.w3.org/1999/xlink" x="0px" y="0px"
	 viewBox="0 0 512 512" style="enable-background:new 0 0 512 512;" xml:space="preserve">
<style type="text/css">
	.st0{fill:#FDCD95;stroke:#000000;stroke-width:3;stroke-linecap:round;stroke-linejoin:round;stroke-miterlimit:10;}
	.st1{fill:#857154;stroke:#000000;stroke-width:3;stroke-linecap:round;stroke-linejoin:round;stroke-miterlimit:10;}
	.st2{fill:none;stroke:#000000;stroke-width:3;stroke-linecap:round;stroke-linejoin:round;stroke-miterlimit:10;}
	.st3{fill:#270600;stroke:#000000;stroke-width:2.3442;stroke-miterlimit:10;}
	.st4{fill:#FDCD95;}
	.st5{fill:#B5D758;stroke:#000000;stroke-width:3;stroke-linecap:round;stroke-linejoin:round;stroke-miterlimit:10;}
	.st6{fill:none;stroke:#000000;stroke-linecap:round;stroke-linejoin:round;stroke-miterlimit:10;}
</style>
<g>
	
		<ellipse transform="matrix(2.939905e-02 -0.9996 0.9996 2.939905e-02 161.5319 399.441)" class="st0" cx="286.4" cy="116.5" rx="69.9" ry="69.2"/>
	<path class="st1" d="M269.5,25.9c0,0,24.5-26,53.5,5.5l-8.5-7.8c17.2,2.2,30,12.3,39.2,23.4c12.9,15.6,19.9,35.3,20.8,55.5
		c2.2,48.4-16.1,74.8-36.4,87.4c-21.5,13.3-85.5,9-85.5,9c-41.3-19-56-46.3-60.4-68.8c-3.6-18.5-0.4-37.7,8.3-54.4
		c39.8-75.7,79.1-56.9,79.1-56.9"/>
	<path d="M223.6,170.1c0,0,16.6,1.2,20.7,8.2c4.2,7-5,23-5,23s-9.4,7.8-9.3,6.9c0.1-0.9-6.2-19.3-6.3-21.3S223.6,170.1,223.6,170.1z
		"/>
	
		<ellipse transform="matrix(0.3107 -0.9505 0.9505 0.3107 109.5767 431.3396)" class="st0" cx="352.2" cy="140.1" rx="15.5" ry="6.5"/>
	<polygon class="st0" points="243.5,172.8 231.5,213.2 262.3,232.9 276.8,192.9 254.1,184.6 254.1,173.3 245.3,166.7 	"/>
	<path class="st2" d="M342.2,48.9c0,0,18.3,12.3,20,53.3"/>
	<ellipse class="st0" cx="218.5" cy="110.4" rx="11" ry="16.9"/>
	<path class="st2" d="M221.2,54.9c0,0-22.6,42.9,2.8,36.8c7-1.7,13.1-6,17.3-11.8l6.7-11"/>
	<path class="st2" d="M342.2,109.6c0,0-1.8,22.5,10,19.8"/>
	<path class="st0" d="M354.8,124.6c-4.7,35-34.9,61.4-70.6,60.3c-38.2-1.1-68.2-33.3-67.1-71.9c0.2-7.9,1.2-13.8,3.8-20.8
		c0.6-0.1,8.4-4.8,14.7-9.4c3.3-2.4,6.2-5.4,8.6-8.7L248,69l-4.4,10.6c-0.9,2.1,1.1,4.3,3.3,3.6c3.9-1.2,9.2-4.1,12.8-11
		c0,0,4.8,19.1,16.2-5.9c0,0,3,26.2,17.5,4.8c0,0,9.2,21.5,22.7,4.2c0,0-1.4,35.8,22.1,9c-0.4,0.7-19.1,35,3.9,23.8
		C342,108.2,347.5,118.8,354.8,124.6z"/>
	<path class="st2" d="M295.8,116.8c0,0,8.6,14.3,25.9,6.8"/>
	<path class="st2" d="M248.2,106.4c0,0,9.3,14.5,29.8,7.2"/>
	<path class="st2" d="M245,95.4c0,0,17-8.4,31.8-1.9"/>
	<path class="st2" d="M304.4,98.7c0,0,19.3,1,26.2,19.6"/>
	<path class="st2" d="M274.3,126.4c0,0,11.6-5.1,17.8,4.6"/>
	<path class="st3" d="M284,168.2c-4,10.4-10.9,14.8-17.1,15.1c-10.7,0.6-6.6-12.2-2.7-22.6c4-10.4,11.6-17.2,17.1-15.1
		C286.8,147.7,288,157.8,284,168.2z"/>
	<g>
		<path class="st0" d="M158.9,488.3c-6.7,18.3-14.7-11-14.7-32.7c-0.1-21.7-3.5-38.3-3.5-38.3c-11.2-42.7,10.2-114.3,10.2-114.3
			l30.2,8.2l11,4c0,0-24.8,66.5-26.3,72s-5.5,34.8,2,43c7.5,8.2,29.3,23.7,24.3,25.7s-15.2,2.3-15.2,2.3s15.7,12.6,13,21.6
			c-2.7,9-20-15.8-20.2-16.3"/>
		<path class="st0" d="M154,466.3c0,0,6,34.9,13.6,29.3c1.4-1.1,1.3-1.5,1.8-4.7v-11.4"/>
		<path class="st0" d="M161.9,466.3c0,0,12.7,30.7,18.8,23.5c5-5.8-10-24.8-10-24.8"/>
	</g>
	<path d="M298.9,198.2c0,0,25.3,1,33.6,11.6c8.3,10.6-6.3,12.2-7,12.5s-35.3,4.8-35.3,4.8s-11.3-8-11.1-9.7
		c0.1-1.7,5.4-10.8,6.2-11.7s9.6-10.5,9.6-10.5L298.9,198.2z"/>
	<path class="st4" d="M288.4,176.5c-0.7,1.8-4.1,8.5-6.6,6.8c-0.2-1.1-0.9-2-1.9-2.6c-2.1-2-6.8-0.9-6.9,2.3l-0.1,1.7
		c0,1,0.4,1.9,1.1,2.5c0.5,5,1.9,9.7,4.2,14.1c-0.7,1.4-1.4,2.8-2.1,4.2c-0.2,0.5,0.6,0.8,0.9,0.4c0.7-1,1.4-2.1,2.1-3.1
		c0.7,1.1,1.4,2.2,2.2,3.3c1.5,2,5.3,3.1,6.9,0.4c2.3-3.8,8.9-12.2,5.4-16.3c0.6-3.8,1.4-7.6,2.4-11.3
		C297.2,174.3,290,172.2,288.4,176.5z"/>
	<path class="st5" d="M230,178.8c0.1-3.7-2.6-6.8-6.2-7.4c-12.8-2-42.6,2-66.2,71c0,0-24.5,62-14.5,69.5s38,12.5,38,12.5
		s-14.5,86-13,96.5s73,62.5,148,55.5c0,0,9.8-157.1,4.1-167.6c0,0,17.9,1.1,24.4-16.4s6.6-88.5-21-82.5c0,0-29.6,15.3-58.4,11.1
		C244.5,217.9,229.5,199.6,230,178.8L230,178.8z"/>
	<path class="st2" d="M181,323.9c0,0,28.5-84.2,39.5-97.5"/>
	<g>
		<path class="st0" d="M321.1,262.2c12.2,12.3,14.3,19.4,14.8,27.2c0.6,9.5-6.3,17.6-15.7,19c-43.7,6.5-68.7-86.2-69.1-126.4
			c-0.5-43.8,8.8,5,8.8,5s3.3-27.8,7.3-31.8c4-4,5.9,25.3,5.9,25.3"/>
		<path class="st0" d="M290.2,209.8c0,0,37.3,40.1,33.1,71.7"/>
		<path class="st0" d="M286.4,212.9c0,0,9.6-15.2,17.9-18c8.1-2.8,4.2-11.3-10.9-6.8"/>
		<path class="st0" d="M293.4,188.2c0,0,12.8-30.8,5.8-29.7c-1,0.1-1.8,0.8-2.3,1.6c-2.1,3.5-9.1,15.3-11,20"/>
		<path class="st0" d="M285,184.6c0.5-3.3,0.9-68.1-12.1-4.2"/>
	</g>
	<path class="st2" d="M240.2,281.7l-20.1-5.3c-3.4-0.9-5.4-4.4-4.5-7.8l6.1-23.3c0.9-3.4,4.4-5.4,7.8-4.5l20.1,5.3
		c3.4,0.9,5.4,4.4,4.5,7.8l-6.1,23.3C247.1,280.6,243.6,282.6,240.2,281.7z"/>
	<path class="st2" d="M224.5,241.6l8.8,16.8c0.8,1.6,2.8,2.2,4.5,1.4l16.4-8.7"/>
	<path class="st6" d="M270.5,129.7c0,0-10.4,10.5-10.4,21"/>
	<path class="st6" d="M293.6,136c0,0,3.8,13.3,0,20.3"/>
</g>
</svg>
