<?xml version="1.0" encoding="utf-8"?>
<!-- Generator: Adobe Illustrator 22.1.0, SVG Export Plug-In . SVG Version: 6.00 Build 0)  -->
<svg version="1.1" id="Слой_3" xmlns="http://www.w3.org/2000/svg" xmlns:xlink="http://www.w3.org/1999/xlink" x="0px" y="0px"
	 viewBox="0 0 512 512" style="enable-background:new 0 0 512 512;" xml:space="preserve">
<style type="text/css">
	.st0{fill:#857154;}
	.st1{fill:#FDCD95;}
	.st2{fill:#FDCD95;stroke:#000000;stroke-width:3;stroke-linecap:round;stroke-linejoin:round;stroke-miterlimit:10;}
	.st3{fill:none;stroke:#1D1D1B;stroke-width:3;stroke-linecap:round;stroke-linejoin:round;stroke-miterlimit:10;}
	.st4{fill:none;stroke:#000000;stroke-width:3;stroke-linecap:round;stroke-linejoin:round;stroke-miterlimit:10;}
	.st5{fill:none;stroke:#000000;stroke-width:2;stroke-linecap:round;stroke-linejoin:round;stroke-miterlimit:10;}
	.st6{fill:none;stroke:#000000;stroke-width:4;stroke-linecap:round;stroke-linejoin:round;stroke-miterlimit:10;}
	.st7{fill:#B5D758;stroke:#000000;stroke-width:3;stroke-linecap:round;stroke-linejoin:round;stroke-miterlimit:10;}
	.st8{fill:none;stroke:#000000;stroke-width:3;stroke-miterlimit:10;}
	.st9{fill:#FFFFFF;}
</style>
<g>
	<path class="st0" d="M293.3,185.4v5.3l14.5,3.4l17.7-2.4l13.7-7.6l13-15.7c0,0,10.6-16.3,10.5-32.6c-0.1-16.2-1.1-27.2-1.1-27.2
		s-4.1-25.6-8.5-31.2c-4.4-5.6-8.1-20.9-13.2-23.8s-9.8-16.4-19.1-19.9l-14.5-8.7l-11.9-3.8L279,20.2l-3,2l-9.3-3.3l-8-1l-12,2.2
		l-4.6,2.3l-7.5-0.2l-17.2,5l-10.7,7l-14.3,15l-11,20.3c0,0-4.7,12.7-5.4,15.6c-0.8,2.9-5,31.3-4.6,37.4c0.4,6.1,4.2,28.8,6.5,34.2
		c2.3,5.4,9.5,17.8,10.8,19.5c1.4,1.6,11.5,12.9,20.4,14.4c8.9,1.6,12.5,2.8,17.5,3c5,0.2,8.3,3.7,8.3,3.7l9.1-22.5l27.1-0.8
		c0,0,12.3,3.5,13.3,3.8c1.1,0.3,9,3.5,9,3.5V185.4z"/>
	<path class="st1" d="M295.2,221.5l-12.6,4.9l-16,2.3c0,0-18.2-0.7-23.4-3.6s-7.6-4.6-7.6-4.6l1.2-34.5c0,0-20.9-11.1-27.8-23.3
		c-6.9-12.2-10.5-22.7-10.5-22.7l-2.3-23.3l6.4-6.9l5.1-9.3l4.6,3.2l5.1,0.6l7.5-9.3l6-13.3l2.3,5.3l5,3.2l3.9-3.4l6.5-13.5l0.3,7.2
		l3.2,3.1l5.6-0.5l5.4-5.5l4.7,3.1l4.3,3.4l5.3,0.7l5.1-4.4l4.7-7.1l2.3,6.8l4.9,9.5l2.7,4h2.9l5.5-4.2l3,9.2l3.5,4.5l6.4-0.9
		l2.2,7.9l2.8,4.4l5.5-0.6l2.8-3.5l0.6,16.2l-6.1,24.5l-10.9,17L298.3,183l-6.6,3.1L295.2,221.5z"/>
	<path class="st2" d="M331.7,110.2c0.9-0.3,1.8-0.4,2.7-0.3c5.5,0.6,9.1,8.5,8.1,17.7c-1.1,9.1-6.4,16-11.9,15.4
		c-0.4-0.1-0.9-0.1-1.3-0.3"/>
	<path class="st3" d="M196.1,115.2c0,0.4,0,0.8,0,1.4"/>
	<path class="st4" d="M200.7,146.9c3.5,9.4,8.9,17.8,15.7,24.7c5.6,5.7,12.1,10.4,19.2,13.9c8.7,4.2,18.4,6.5,28.7,6.5
		c10.3,0,20-2.3,28.7-6.5c7.4-3.6,14.1-8.5,19.8-14.4c7.5-7.9,13.3-17.5,16.6-28.3c2.1-6.8,3.2-14,3.2-21.5c0-3.7-0.3-7.4-0.8-11"/>
	<path class="st4" d="M235.6,185.4L235.6,185.4v6.4v2v26.7c26.8,19.9,59.6,1,59.6,1"/>
	<polyline class="st4" points="295.2,221.5 293.3,190.7 293,185.4 293,185.4 	"/>
	<path class="st2" d="M200.7,146.9c-0.8,0.6-1.7,1.1-2.7,1.3c-5.4,1.2-11.4-5.2-13.3-14.2c-1.9-9,0.9-17.2,6.3-18.4
		c1.7-0.4,3.4,0,5,0.9c0,1.5,0,3.5,0,4.6C196.1,130.3,197.7,138.9,200.7,146.9z"/>
	<path class="st3" d="M196.2,116.7c-0.1,0-0.1-0.1-0.2-0.1"/>
	<path class="st4" d="M234.8,197.4c-6.3,2.1-12-2.9-18.5-4c-31.5-5.1-50.9-47.4-43.3-94.5c7.5-46.3,38.2-80.1,69.1-76.4"/>
	<path class="st4" d="M274.2,21.8c32.2-8.3,69.1,21.4,83.1,67.5c14.3,46.9-0.6,93-33.2,102.9c-10,3-20.6,2.3-30.8-1.5"/>
	<path class="st3" d="M242.1,22.4c4.7-2.8,10.4-4.5,16.6-4.5c5.7,0,11,1.4,15.5,3.9"/>
	<path class="st4" d="M187.8,74.6c0,0-1.4,66.6,16.7,29.5c0,0,2-3.6,4.4-7.9c3.2-5.8,7.2-12.9,8.4-14.5"/>
	<path class="st4" d="M331.7,110.2c0,0-8.6,15.6-13.2-8.2c0,0-8.9,7.8-12.1-11.7"/>
	<path class="st4" d="M309.9,74.6c0,0-4.6,32.4-16.9,12.8c0,0-6.2-11.4-6.2-17.8c0,0-6.1,29.5-22.5,6.8c0,0-17,19.6-15.6-5
		c0,0-9.6,34.4-17.8,10.3c0,0-12.5,36.6-23.2,16.7"/>
	<path class="st4" d="M323.4,46.8c0,0,16,24.6,17.8,46.6"/>
	<path class="st4" d="M217.4,49.3c0,0-14.5,12.1-16.7,29.5"/>
	<path class="st4" d="M249.3,167.3c0,0,15.3-28.3,37.7-13.7"/>
	<path class="st5" d="M293.7,147.3c0,0,2.3,6.8,2.3,11.1"/>
	<path class="st5" d="M241.7,165c0,0,0,6.3,2.7,8.3"/>
	<path class="st4" d="M252.3,140.3c0,0,7.9-9.3,15.8-2.3"/>
	<path class="st6" d="M268.2,108c0,0,9.5-0.7,14.7-7c4.9-6,11.7-4.9,13.2-3.3"/>
	<path class="st6" d="M225.3,96.1c0,0,7.2-1.1,13.5,4.8c3.9,3.7,9.3,6.5,13.5,7.5"/>
	<path class="st2" d="M115.7,424.7c0,0-1.4,18.1,12.7,17.2c0.6,0,1.2-0.1,1.9-0.2c0,0,10.4,27,20.8-8.7c0,0,7,1,5.7-24.7
		c-1.3-25.7,9.7-58.7,11.7-66.7c2.9-11.9,10-38,10-38l-6.7-11l-11,2l-9.7-2c0,0-25.3,59.3-21,92.3c0,0-17,32.7-19.3,35
		c-2.3,2.3-1.7,9.7,5.3,13"/>
	<path class="st2" d="M408.4,408.7c0,0,2.2,18-11.9,17.8c-0.6,0-1.2-0.1-1.9-0.1c0,0-9.2,27.4-21.1-7.7c0,0-6.9,1.3-6.8-24.4
		c0.2-25.7-12.3-58.2-14.6-66.1c-3.4-11.8-11.7-37.5-11.7-37.5l6.2-11.3l11.1,1.5l9.6-2.4c0,0,28,58.1,25.1,91.3
		c0,0,18.4,31.9,20.9,34.1c2.4,2.2,2.1,9.6-4.7,13.2"/>
	<path class="st7" d="M219.2,182.4c-15-8.8-40.9-13.6-56.5,41.6c0,0-28.3,66.7-14,75c14.3,8.3,30,15.3,30,15.3L157,454
		c0,0-13.3,18.3,26.3,25s93.3,12.7,128,7.3C346,481,365,475,366.3,467c1.3-8-29.7-161.7-29.7-161.7s38-7.7,41-20
		c2.9-11.9-31.6-108.4-63.4-108.7c-2,0-4,0.6-5.6,1.8l0,0c-9.6,7.1-18.2,15.5-25.2,25.3c-8.8,12.3-26.1,26-49.2-7
		C230.3,191,225.3,186,219.2,182.4z"/>
	<g>
		<path class="st8" d="M229,301.1h-23.8c-3.7,0-6.8-3-6.8-6.8v-27.6c0-3.7,3-6.8,6.8-6.8H229c3.7,0,6.8,3,6.8,6.8v27.6
			C235.8,298.1,232.7,301.1,229,301.1z"/>
		<path class="st8" d="M199.6,262.9l13.3,13.5c2.2,2.3,5.9,2.2,8-0.2l12.6-14.3"/>
	</g>
	<ellipse cx="233.6" cy="122.5" rx="6.8" ry="10.5"/>
	<ellipse class="st9" cx="233.2" cy="120.5" rx="2.3" ry="3.5"/>
	<path class="st4" d="M225.3,108.4c0,0,7.7,5.3,19,8"/>
	
		<ellipse transform="matrix(0.9979 -6.476792e-02 6.476792e-02 0.9979 -7.2728 18.6557)" cx="284.1" cy="121.5" rx="6.8" ry="10.5"/>
	<ellipse class="st9" cx="284.4" cy="119.5" rx="2.3" ry="3.5"/>
	<path class="st4" d="M292.3,107.4c0,0-7.7,5.3-19,8"/>
	<line class="st4" x1="178.7" y1="314.3" x2="184" y2="276"/>
	<line class="st4" x1="336.7" y1="305.3" x2="330" y2="276"/>
</g>
</svg>
