<?xml version="1.0" encoding="utf-8"?>
<!-- Generator: Adobe Illustrator 22.1.0, SVG Export Plug-In . SVG Version: 6.00 Build 0)  -->
<svg version="1.1" id="Слой_3" xmlns="http://www.w3.org/2000/svg" xmlns:xlink="http://www.w3.org/1999/xlink" x="0px" y="0px"
	 viewBox="0 0 512 512" style="enable-background:new 0 0 512 512;" xml:space="preserve">
<style type="text/css">
	.st0{fill:#857154;}
	.st1{fill:#FDCD95;}
	.st2{fill:#FDCD95;stroke:#000000;stroke-width:3;stroke-linecap:round;stroke-linejoin:round;stroke-miterlimit:10;}
	.st3{fill:none;stroke:#1D1D1B;stroke-width:3;stroke-linecap:round;stroke-linejoin:round;stroke-miterlimit:10;}
	.st4{fill:none;stroke:#000000;stroke-width:3;stroke-linecap:round;stroke-linejoin:round;stroke-miterlimit:10;}
	.st5{fill:#FFFFFF;stroke:#000000;stroke-width:2.4511;stroke-linecap:round;stroke-linejoin:round;stroke-miterlimit:10;}
	.st6{fill:#A80206;}
	.st7{fill:#FFFFFF;}
	.st8{fill:#B5D758;stroke:#000000;stroke-width:3;stroke-linecap:round;stroke-linejoin:round;stroke-miterlimit:10;}
	.st9{fill:none;stroke:#000000;stroke-width:3;stroke-miterlimit:10;}
	.st10{fill:#FFAFB9;}
	.st11{fill:none;stroke:#000000;stroke-width:2.8168;stroke-linecap:round;stroke-linejoin:round;stroke-miterlimit:10;}
</style>
<g>
	<path d="M202.8,219.5c-2,0.5-38-21.8-38-21.8s11.7-5.5,38-2.3c12.3,1.5,3.1,20,3.1,20L202.8,219.5z"/>
	<path d="M256.9,192.1c0,0,20.4,2.4,33,3.3c12.6,0.9-4.2,12.9-4.2,12.9S263.3,222,262.4,222s-11.6-8.7-10.4-11.7
		S256.9,192.1,256.9,192.1z"/>
	<path class="st0" d="M260.5,183.4v5.3l14.5,3.4l17.7-2.4l13.7-7.6l13-15.7c0,0,10.6-16.3,10.5-32.6c-0.1-16.2-1.1-27.2-1.1-27.2
		s-4.1-25.6-8.5-31.2c-4.4-5.6-8.1-20.9-13.2-23.8c-5.1-2.9-9.8-16.4-19.1-19.9L273.5,23l-11.9-3.8l-15.4-1.1l-3,2l-9.3-3.3l-8-1
		l-12,2.2l-4.6,2.3l-7.5-0.2l-17.2,5l-10.7,7l-14.3,15l-11,20.3c0,0-4.7,12.7-5.4,15.6c-0.8,2.9-5,31.3-4.6,37.4s4.2,28.8,6.5,34.2
		c2.3,5.4,9.5,17.8,10.8,19.5c1.4,1.6,11.5,12.9,20.4,14.4c8.9,1.6,12.5,2.8,17.5,3c5,0.2,9.1-1.9,9.1-1.9l8.3-16.8l27.1-0.8
		c0,0,12.3,3.5,13.3,3.8c1.1,0.3,9,3.5,9,3.5V183.4z"/>
	<path class="st1" d="M262.4,219.5l-12.6,4.9l-16,2.3c0,0-18.2-0.7-23.4-3.6c-5.2-2.9-7.6-4.6-7.6-4.6l1.2-34.5
		c0,0-20.9-11.1-27.8-23.3c-6.9-12.2-10.5-22.7-10.5-22.7l-2.3-23.3l6.4-6.9l5.1-9.3l4.6,3.2l5.1,0.6l7.5-9.3l6-13.3l2.3,5.3l5,3.2
		l3.9-3.4l6.5-13.5l0.3,7.2l3.2,3.1l5.6-0.5l5.4-5.5l4.7,3.1l4.3,3.4l5.3,0.7l5.1-4.4l4.7-7.1l2.3,6.8l4.9,9.5l2.7,4h2.9l5.5-4.2
		l3,9.2l3.5,4.5l6.4-0.9l2.2,7.9l2.8,4.4l5.5-0.6l2.8-3.5l0.6,16.2l-6.1,24.5l-10.9,17l-17.1,14.9l-6.6,3.1L262.4,219.5z"/>
	<path class="st2" d="M298.9,108.2c0.9-0.3,1.8-0.4,2.7-0.3c5.5,0.6,9.1,8.5,8.1,17.7c-1.1,9.1-6.4,16-11.9,15.4
		c-0.4-0.1-0.9-0.1-1.3-0.3"/>
	<path class="st3" d="M163.3,113.2c0,0.4,0,0.8,0,1.4"/>
	<path class="st4" d="M167.9,144.8c3.5,9.4,8.9,17.8,15.7,24.7c5.6,5.7,12.1,10.4,19.2,13.9c8.7,4.2,18.4,6.5,28.7,6.5
		s20-2.3,28.7-6.5c7.4-3.6,14.1-8.5,19.8-14.4c7.5-7.9,13.3-17.5,16.6-28.3c2.1-6.8,3.2-14,3.2-21.5c0-3.7-0.3-7.4-0.8-11"/>
	<path class="st4" d="M202.8,183.4L202.8,183.4v6.4v2v26.7c26.8,19.9,59.6,1,59.6,1"/>
	<polyline class="st4" points="262.4,219.5 260.5,188.7 260.2,183.4 260.2,183.4 	"/>
	<path class="st2" d="M167.9,144.8c-0.8,0.6-1.7,1.1-2.7,1.3c-5.4,1.2-11.4-5.2-13.3-14.2c-1.9-9,0.9-17.2,6.3-18.4
		c1.7-0.4,3.4,0,5,0.9c0,1.5,0,3.5,0,4.6C163.3,128.2,164.9,136.9,167.9,144.8z"/>
	<path class="st3" d="M163.4,114.6c-0.1,0-0.1-0.1-0.2-0.1"/>
	<path class="st4" d="M202.8,189.7c-6.3,2.1-12.8,2.7-19.3,1.6c-31.5-5.1-50.9-47.4-43.3-94.5c7.5-46.3,38.2-80.1,69.1-76.4"/>
	<path class="st4" d="M241.4,19.8c32.2-8.3,69.1,21.4,83.1,67.5c14.3,46.9-0.6,93-33.2,102.9c-10,3-20.6,2.3-30.8-1.5"/>
	<path class="st3" d="M209.3,20.4c4.7-2.8,10.4-4.5,16.6-4.5c5.7,0,11,1.4,15.5,3.9"/>
	<path class="st4" d="M155,72.5c0,0-1.4,66.6,16.7,29.5c0,0,2-3.6,4.4-7.9c3.2-5.8,7.2-12.9,8.4-14.5"/>
	<path class="st4" d="M298.9,108.2c0,0-8.6,15.6-13.2-8.2c0,0-8.9,7.8-12.1-11.7"/>
	<path class="st4" d="M277.1,72.5c0,0-4.6,32.4-16.9,12.8c0,0-6.2-11.4-6.2-17.8c0,0-6.1,29.5-22.5,6.8c0,0-17,19.6-15.6-5
		c0,0-9.6,34.4-17.8,10.3c0,0-12.5,36.6-23.2,16.7"/>
	<path class="st4" d="M290.6,44.8c0,0,16,24.6,17.8,46.6"/>
	<path class="st4" d="M184.6,47.3c0,0-14.5,12.1-16.7,29.5"/>
	<g>
		<path class="st5" d="M364.9,16.8c-49.1,0-89,23.3-89,52.1c0,24,27.6,44.2,65.1,50.2c-1,10.7-3.8,25.9-11.9,31.8
			c0,0,33.8-9.2,43-30.1c45.7-2.2,81.7-24.6,81.7-52C453.9,40.1,414,16.8,364.9,16.8z"/>
		<g>
			<path class="st6" d="M362.4,82.8l8.9-26.7c4-14.7-1-33.2-8.9-33.2h0c-7.9,0-12.9,18.4-8.9,33.2L362.4,82.8z"/>
			<circle class="st6" cx="362.3" cy="98.5" r="7.1"/>
		</g>
	</g>
	<path class="st4" d="M220.7,138.7c0,0,6.9-7.5,13.8,0"/>
	<ellipse cx="204.7" cy="119.7" rx="6.4" ry="12.3"/>
	<ellipse class="st7" cx="203.9" cy="115.7" rx="2.3" ry="4.5"/>
	<path class="st4" d="M193,114.4c0,0,11.5-13.9,22.2,0"/>
	<ellipse cx="251.5" cy="119.7" rx="6.4" ry="12.3"/>
	<ellipse class="st7" cx="251.5" cy="114.4" rx="2.3" ry="4.5"/>
	<path class="st4" d="M239.8,114.4c0,0,11.5-13.9,22.2,0"/>
	<g>
		<path class="st2" d="M68.2,470.3c0,0-9,6.5-10-0.5c-0.6-4,4.9-10.2,9.8-14c3.7-2.9,6.9-6.2,9.7-9.9c5.5-7.4,16.8-17.2,16.8-17.2
			c-1.7-49.3,26-112.3,26-112.3l23.3,5l8.7,3c0,0-24.2,70.7-27.3,79c-2.8,7.4-12.3,39.3-4.3,47.7c8.4,8.7,25,29.6,7.3,24.8
			c-17.7-4.8-17.7-9.2-27,9.2c-9.3,18.3-20,10.3-18.3,2"/>
		<path class="st2" d="M79.2,456.6c0,0-29.7,26.4-6,24.3"/>
		<path class="st2" d="M86.2,462c0,0-24.3,29-6.2,26.4c4.7-0.7,13.2-10.7,16.1-14.4"/>
	</g>
	<g>
		<path class="st2" d="M401.9,467.9c0,0,7.5,5.7,9.9-1c1.7-4.6-4-10.5-8.9-14.4c-3.7-2.9-6.9-6.2-9.7-9.9
			c-5.5-7.4-16.8-17.2-16.8-17.2c1.7-49.3-26-112.3-26-112.3l-23.3,5l-8.7,3c0,0,24.2,70.7,27.3,79c2.8,7.4,12.3,39.3,4.3,47.7
			c-8.4,8.7-25,29.6-7.3,24.8c17.7-4.8,17.7-9.2,27,9.2c9.3,18.3,20,10.3,18.3,2"/>
		<path class="st2" d="M391.8,453.4c0,0,28.7,35.7,4.4,25"/>
		<path class="st2" d="M384.8,458.7c0,0,25.1,35.6,5.4,27.6c-4.4-1.8-11.7-11.4-14.5-15.2"/>
	</g>
	<path class="st8" d="M183.8,201.6c0,0-30-18-46,24s-34.7,92.7-18.7,99.3c16,6.7,26,7.3,26,7.3l-16.3,125.4c-0.2,1.6,0.6,3.1,2,3.8
		c15.4,7.6,105.1,47.5,206.3-5.9c0,0-34-172.7-34-176.7s13.3,49.3,13.3,49.3s43.3-4,46.7-12.7c0,0-14.3-112.4-73.3-120.2
		c-3.8-0.5-7.7,1-10.3,3.8C269.2,210,236.4,235.8,183.8,201.6"/>
	<g>
		<path class="st9" d="M199.1,313.3h-23.8c-3.7,0-6.8-3-6.8-6.8V279c0-3.7,3-6.8,6.8-6.8h23.8c3.7,0,6.8,3,6.8,6.8v27.6
			C205.9,310.3,202.8,313.3,199.1,313.3z"/>
		<path class="st9" d="M169.7,275.1l13.3,13.5c2.2,2.3,5.9,2.2,8-0.2l12.6-14.3"/>
	</g>
	<line class="st4" x1="145.2" y1="332.3" x2="150.8" y2="288.6"/>
	<path class="st4" d="M183.9,96.6c0,0,15.1-14.7,36.8,0"/>
	<path class="st4" d="M274,96.6c0,0-15.1-14.7-36.8,0"/>
	<path d="M212.5,158l13.4-1l16.3,1l3,4.3l-2,9.7c0,0-15.7,1.7-17.3,1.8c-1.6,0.1-10.4-1.8-10.4-1.8L212.5,158z"/>
	<path class="st10" d="M213.5,168.9c0,0,17.1-3.3,28.5,1.5c0,0-11.4,19.5-26.7,1.8L213.5,168.9z"/>
	<path class="st7" d="M213.6,155.3l12.3-1.4l15,1.4l3.3,0.5l1,4.5c0,0-22,5.2-32.7-1.6L213.6,155.3z"/>
	<path class="st11" d="M244.2,156.4l-12.7-2.2c-2.4-0.4-4.8-0.4-7.2-0.1l-10.6,1.6c-0.8,2-1.2,4.2-1.2,6.6c0,9.5,7.3,17.2,16.3,17.2
		c9,0,16.3-7.7,16.3-17.2C245.2,160.2,244.8,158.2,244.2,156.4z"/>
</g>
</svg>
