<?xml version="1.0" encoding="utf-8"?>
<!-- Generator: Adobe Illustrator 22.1.0, SVG Export Plug-In . SVG Version: 6.00 Build 0)  -->
<svg version="1.1" id="Слой_3" xmlns="http://www.w3.org/2000/svg" xmlns:xlink="http://www.w3.org/1999/xlink" x="0px" y="0px"
	 viewBox="0 0 512 512" style="enable-background:new 0 0 512 512;" xml:space="preserve">
<style type="text/css">
	.st0{fill:#FDCD95;stroke:#000000;stroke-width:3;stroke-linecap:round;stroke-linejoin:round;stroke-miterlimit:10;}
	.st1{fill:#662227;stroke:#000000;stroke-width:3;stroke-linecap:round;stroke-linejoin:round;stroke-miterlimit:10;}
	.st2{fill:none;stroke:#000000;stroke-width:3;stroke-linecap:round;stroke-linejoin:round;stroke-miterlimit:10;}
	.st3{fill:none;stroke:#000000;stroke-width:2;stroke-linecap:round;stroke-linejoin:round;stroke-miterlimit:10;}
	.st4{fill:#816164;stroke:#000000;stroke-width:3;stroke-linecap:round;stroke-linejoin:round;stroke-miterlimit:10;}
	.st5{fill:#8A242E;stroke:#000000;stroke-width:3;stroke-linecap:round;stroke-linejoin:round;stroke-miterlimit:10;}
	.st6{fill:#FFFFFF;}
	.st7{fill:#FFAFB9;}
</style>
<g>
	<path class="st0" d="M241.5,179.3c0,0,2,16.3-3.3,23.3c-3.7,4.9-20.3,11.3-20.3,11.3l-13.8,13.8l49.7,18.5l28.9-2.8
		c0,0,13.8-7.8,13.8-8.8s0-17.5,0-17.5s-18.2-7.5-20.1-28.3v-14l-8.7,4.8l-11.7,1.5L241.5,179.3z"/>
	<path class="st1" d="M223.1,159.6c0,0-11-8.3-17-5c-6,3.3-9.9-6.5-11.1-10.3c-0.8-2.6-6.2-6.2-9.9-9.7c-2.4-2.3-3.9-10.6-3.7-14
		c0.4-5.6-0.6-13.5-3-17.7c-1.6-2.8-3.7-14,1.7-18c5.3-4,9.3-17.7,9-22.3c-0.3-4.7,4-14.3,15.2-14c7.5,0.2,19.8-10,21.8-15.7
		s22.8-22,33.7-4c0,0,19-3.7,29.3,8.7c10.3,12.3,20.7,11.3,20.7,11.3s13.7,3.7,10,18.8s1.7,19.9,5.3,22.4c3.7,2.4,7.7,13.4,4.7,19.8
		c-3,6.3-7,20.7-7,23.7s-0.5,15-7.8,18.7c-7.2,3.7-12.8,7.9-15.6,12c-2.1,3-16,4.7-17,2c-1-2.7-11,3.3-11,3.3s-4,5.7-6,6.3
		s-18.7,1.7-20.3,0c-1.7-1.7-14.3-6-14.7-7C230.1,167.9,223.1,159.6,223.1,159.6z"/>
	<path class="st0" d="M218.3,78.3c5.8-1,16.4-5.2,20.1-9.7c0.4-0.4,0.7-0.9,1.1-1.4c6.7-8.3,11.3-9.3,14.3-11c2-1.1,6.8-3.8,8.9-7.3
		c1-1.7,0-3.6,0.7-5.7l-1.7,7c34.7-7,16.2,33.7,26.5,37.7c10.3,4,15,12.4,15,12.4l-4.2,4.8c3-3.5,8.4-8.3,12.6-4.2
		c6,5.7,7.5,28.8-13.4,37.3c-5.3,28.5-22.3,49.4-42.5,49.4c-20.7,0-38.1-22.1-42.9-51.8c-16.7-4.8-22.2-24.5-15.3-32.8
		c5.7-6.9,12.1-2.9,15.3-0.1c1.5-9.1,4.1-17.5,7.7-24.7"/>
	<path class="st2" d="M298.6,67.6c0,0,1.6-10.3-6.4-12.7c-8-2.3-10-6.6-10.7-9.3c-0.8-3-5.9-11.3-17.1-9"/>
	<path class="st3" d="M201.1,107.7c0,0,6.4,9.1,7.8,14.1"/>
	<path class="st3" d="M199.6,115.2c0,0,4.6-1.5,6.3,0"/>
	<path class="st3" d="M308.8,110.9c0,0-6.4,9.1-7.8,14.1"/>
	<polygon class="st4" points="176.7,423.6 173.5,513.3 326.4,526.2 318.5,428.7 	"/>
	<path class="st3" d="M310.3,118.4c0,0-4.6-1.5-6.3,0"/>
	<path class="st2" d="M259.9,28.9c0,0,2,3.2,3.2,7c0.7,2.3,1.1,4.9,0.5,7.2"/>
	<path class="st2" d="M221.6,57.8c0,0,6.5-10.3,13.6-11.5c7.1-1.2,13-3.7,14.2-5.6c2.1-3.4,8.1-8.9,11.2-8.4"/>
	<path class="st0" d="M167.5,189.1c0,0,0.1-11-8.6-13.4c-9.9-2.7,2.9,17.8,2.9,17.8L167.5,189.1z"/>
	<path class="st0" d="M313.7,196.2c0,0-3.3-20.4,6-18.1c0,0,2.8,17.3,1,20.8S313.7,196.2,313.7,196.2z"/>
	<path class="st5" d="M218.3,212.3l-41.8,0.2l-18.5,18c0,0-49,158.5,16.5,102l-3,107c0,0,73,26.5,153,4V318c0,0,29.3,44.5,43.7,20.4
		c3.4-5.7,4.2-12.4,2.8-18.8c-4.1-18-16.7-64.2-40.9-88L293.5,215C293.5,215,255.3,257.8,218.3,212.3z"/>
	<path class="st2" d="M158.9,231.7c0,0,11.1,9.3,19.1,9.3c0,0,10.5,65-3.5,91.5"/>
	<path class="st2" d="M331.5,233c0,0-8.5,14.8-14.2,14.8c-4.8,0,4.3,63.3,7.3,70.3"/>
	<path class="st0" d="M158.9,229v-34.2c0-1.5,0.6-2.9,1.7-4c5.6-5.5,23.4-21.7,24.2-6.1c0,0,9.5-0.5,6,6.5c0,0,10.3,0.8,5.8,9
		c0,0,4.5,1.8,4,7s-7.3,8-7.3,11.8s-9,23.8-15.3,22S158.9,235.3,158.9,229z"/>
	<line class="st2" x1="173.5" y1="193.5" x2="184.7" y2="184.8"/>
	<line class="st2" x1="181.8" y1="199" x2="190.7" y2="191.3"/>
	<line class="st0" x1="189" y1="205.8" x2="196.5" y2="200.3"/>
	<path class="st0" d="M317.5,245.3c0,0-13.5-7.3-16.3-14.8s-19.5-14.8-12.8-18c0,0-2.8-10,5.5-8c0,0-8.3-7,0.5-8.3
		c0,0-8.8-6.5,10.5-5s22,7,22.8,14.5s2.4,29.4,2.4,29.4S323.7,249.2,317.5,245.3z"/>
	<path class="st2" d="M308.5,201.8c0,0-8.8-6-14-5.5"/>
	<path class="st2" d="M305.2,208.7c0,0-5.8-3.7-11.3-4.2"/>
	<polyline points="233.7,158.5 277.6,157.8 270.3,169.3 255,169.3 238.8,166.3 234.1,159.4 	"/>
	<path class="st2" d="M301.5,214c0,0-6.5-2.3-13-1.5"/>
	<path class="st3" d="M248,107.7c0,0,3.3,21.7-1.5,28.9c-0.7,1.1-0.6,2.5,0.4,3.3c1.4,1.1,4,2.2,9,1.7"/>
	<path class="st3" d="M260.7,133.3c0,0,3.5,5,1.3,8.4"/>
	<path class="st2" d="M217,98.3c0,0,10.5-14.5,24.5-1.5"/>
	<ellipse cx="230.1" cy="116.5" rx="6.4" ry="10"/>
	<circle class="st6" cx="230.1" cy="114.5" r="2.9"/>
	<path class="st2" d="M219.7,113.7c0,0,6.8-13.2,19.2-3.2"/>
	<path class="st2" d="M287.3,98.3c0,0-10.5-14.5-24.5-1.5"/>
	<ellipse cx="274.1" cy="116.5" rx="6.4" ry="10"/>
	<circle class="st6" cx="274.1" cy="114.5" r="2.9"/>
	<path class="st7" d="M239.8,167.2c0,0,17.9-2.9,32.7,0C272.5,167.2,256.2,184.8,239.8,167.2z"/>
	<path class="st6" d="M234.1,159.4c0,0,18.5,7.2,42.9,0c0,0,3.7-7.2-2-6.3c-5.7,0.9-40,0.6-42,1.8S234.1,159.4,234.1,159.4z"/>
	<path class="st2" d="M284.6,113.7c0,0-6.8-13.2-19.2-3.2"/>
	<path class="st2" d="M278.3,154.2c0,6.9-10.6,22-23.3,20.7c-12.1-1.3-22-13.1-22-20c0-0.5,0-0.9,0.2-1.3c7.9,0.8,29.6,2.6,44.9-1.1
		C278.2,152.9,278.3,153.5,278.3,154.2z"/>
</g>
</svg>
