<?xml version="1.0" encoding="utf-8"?>
<!-- Generator: Adobe Illustrator 22.1.0, SVG Export Plug-In . SVG Version: 6.00 Build 0)  -->
<svg version="1.1" id="Слой_5" xmlns="http://www.w3.org/2000/svg" xmlns:xlink="http://www.w3.org/1999/xlink" x="0px" y="0px"
	 viewBox="0 0 512 512" style="enable-background:new 0 0 512 512;" xml:space="preserve">
<style type="text/css">
	.st0{fill:none;stroke:#000000;stroke-width:3;stroke-linecap:round;stroke-linejoin:round;stroke-miterlimit:10;}
	.st1{fill:#FDCD95;stroke:#000000;stroke-width:1.5;stroke-linecap:round;stroke-linejoin:round;stroke-miterlimit:10;}
	.st2{fill:#634940;stroke:#000000;stroke-width:1.5;stroke-linecap:round;stroke-linejoin:round;stroke-miterlimit:10;}
	.st3{fill:#EB8C30;stroke:#000000;stroke-width:1.5;stroke-linecap:round;stroke-linejoin:round;stroke-miterlimit:10;}
	.st4{fill:#4D7450;stroke:#000000;stroke-width:1.5;stroke-linecap:round;stroke-linejoin:round;stroke-miterlimit:10;}
	.st5{fill:none;stroke:#000000;stroke-width:1.5;stroke-linecap:round;stroke-linejoin:round;stroke-miterlimit:10;}
	.st6{fill:#FDC663;stroke:#000000;stroke-width:1.5;stroke-linecap:round;stroke-linejoin:round;stroke-miterlimit:10;}
	.st7{fill:#FFFFFF;}
	.st8{fill:#45415E;stroke:#000000;stroke-width:1.5;stroke-linecap:round;stroke-linejoin:round;stroke-miterlimit:10;}
	.st9{fill:#FFD551;stroke:#000000;stroke-width:1.5;stroke-linecap:round;stroke-linejoin:round;stroke-miterlimit:10;}
	.st10{fill:#857154;stroke:#000000;stroke-width:1.5;stroke-linecap:round;stroke-linejoin:round;stroke-miterlimit:10;}
	.st11{fill:#FFFCCB;stroke:#000000;stroke-width:1.5;stroke-linecap:round;stroke-linejoin:round;stroke-miterlimit:10;}
	.st12{fill:#472B25;stroke:#000000;stroke-width:1.5;stroke-linecap:round;stroke-linejoin:round;stroke-miterlimit:10;}
	.st13{fill:#816164;stroke:#000000;stroke-width:1.5;stroke-linecap:round;stroke-linejoin:round;stroke-miterlimit:10;}
	.st14{fill:#EECE3C;stroke:#000000;stroke-width:1.5;stroke-linecap:round;stroke-linejoin:round;stroke-miterlimit:10;}
	.st15{fill:#97B043;stroke:#000000;stroke-width:1.5;stroke-linecap:round;stroke-linejoin:round;stroke-miterlimit:10;}
	.st16{fill:#DFD977;stroke:#000000;stroke-width:1.5;stroke-linecap:round;stroke-linejoin:round;stroke-miterlimit:10;}
</style>
<line class="st0" x1="7.3" y1="499.2" x2="504.7" y2="499.2"/>
<path class="st1" d="M445.2,294.7c-0.2,0.9,1.1,11.7,1.1,11.7s-8.1,7.7-17.5,0.6l0.4-10.7L445.2,294.7z"/>
<path class="st2" d="M464.9,484.6c0,0,20.4,11.7,13.6,13.6c-6.8,1.9-17.6-1.5-22.8-1.1c-5.2,0.4-9.1,1.9-9.1-11.4
	S464.9,484.6,464.9,484.6z"/>
<path class="st2" d="M433.2,487.3c0,0-1,12-6,11c-5-1.1-12.3-1.2-20.1,0.4c-7.8,1.6-9.3-9.6,12.5-15.1L433.2,487.3z"/>
<path class="st1" d="M482.6,369.9l11.5,11.7c0,0,1.6,2.2-5.7-0.3c0,0,7.9,7,5.4,6.6c-2.5-0.5-7.2-4.3-7.5-4.8
	c-0.3-0.5,4.8,10.7,2.4,8.5c-2.4-2.2-6.2-6.5-6.2-6.5s0.8,11.5-1.4,6.9c-2.2-4.6-3.4-7.9-3.4-7.9s-4.1,2.7-5.8,1.4s1.8-2.4,2.6-3.9
	c1.1-1.9,1-10.1,1-10.1L482.6,369.9z"/>
<path class="st1" d="M394.8,387.4l-11.5,11.7c0,0-1.6,2.2,5.7-0.3c0,0-7.9,7-5.4,6.6s7.2-4.3,7.5-4.8c0.3-0.5-4.8,10.7-2.4,8.5
	s6.2-6.5,6.2-6.5s-0.8,11.5,1.4,6.9c2.2-4.6,3.4-7.9,3.4-7.9s4.1,2.7,5.8,1.4s-1.8-2.4-2.6-3.9c-1.1-1.9-1-10.1-1-10.1L394.8,387.4z
	"/>
<path class="st3" d="M461.6,372.5l7.5,113.4c0,0-11.6,7.9-24.2,0.4l-3.6-83l-7.6,84.1c0,0-11.9,3.7-22.1-3.6l8.9-108.9L461.6,372.5z
	"/>
<path class="st4" d="M447.6,304.7c0,0,16.6,4,25,29.8s12.1,36.6,12.1,36.6s-6.9,4.6-10.2,2.7l-13.3-30.3l3.8,42
	c0,0-35.7,4.9-48.5-0.5l1-47.7c0,0-7.8,55.6-15.8,53.2c-4.4-1.3-3.1-0.5-7.2-3.2c-1.1-0.7,9.3-45.4,13.2-62.1
	c1.2-5.1,3.8-9.9,7.7-13.5c3.8-3.6,7.4-6.4,12.9-5.8C428.4,305.7,438.1,316.5,447.6,304.7z"/>
<path class="st5" d="M477.2,348.5c0,0-6.6-1.4-11.6,4.8"/>
<path class="st5" d="M480.1,357.2c0,0-9,0.1-11,4.2"/>
<line class="st5" x1="460.9" y1="331.8" x2="461.3" y2="343.5"/>
<path class="st5" d="M461.8,349.1c0,0-27.4,14.9-43.8,0.7"/>
<path class="st5" d="M461.1,338.2c0,0-23.9,13.1-43.2,2.6"/>
<path class="st6" d="M433.8,226.9c0,0,2.5-9,5.8-12s17-13.2,29.8,6.7s14.8,43.5,9.6,56c-5.3,12.5-11.5,25.3-11.5,30.2
	s-8.4-1.7-11.5-7.1c-3.1-5.4-1.6-16.9-1.6-16.9l1.1-19.7l-4.9-20.3L433.8,226.9z"/>
<ellipse transform="matrix(0.9955 -9.457791e-02 9.457791e-02 0.9955 -24.0949 40.0007)" class="st1" cx="409.9" cy="274.2" rx="3.4" ry="7.7"/>
<ellipse transform="matrix(0.169 -0.9856 0.9856 0.169 116.6322 682.3801)" class="st1" cx="463" cy="272" rx="7.9" ry="6.2"/>
<path class="st4" d="M457.2,229.9c0,0-2.3-16.3-16.9-6.5l7.6,7.4L457.2,229.9z"/>
<path class="st1" d="M409.5,269.6c3,18.6,12.9,33,27.9,31.6c14.7-1.4,25.5-16.4,26-34.7c-2.6-1.8-6.1-5.2-6.9-10
	c0,0-21.1,9.7-30.1,6.2c0,0,3.7-3,4.2-4.7c0.5-1.7-10,2.3-14.8-2.9l-3,18.3C412.7,273.4,411.3,272,409.5,269.6z"/>
<path class="st6" d="M409.5,269.6c1.8,2.4,3.2,3.8,3.2,3.8l3-18.3c4.8,5.2,15.3,1.2,14.8,2.9c-0.5,1.7-4.2,4.7-4.2,4.7
	c9,3.5,30.1-6.2,30.1-6.2c0.9,4.8,4.4,8.2,6.9,10c1.6,1.2,2.9,1.7,2.9,1.7l4-11.8c1.9-5.6,1.9-11.8-0.3-17.4
	c-5.9-14.7-21-11.9-21-11.9c-28.3-16-41.7,9.7-41.7,9.7C399.6,251.9,405.4,263.8,409.5,269.6z"/>
<path class="st5" d="M455.6,246.3c0,0,0.4,8.5,0.8,10.2"/>
<path class="st5" d="M438.5,246c0,0-5,11.7-9,11.5"/>
<path class="st5" d="M426.7,241.5c0,0-2.8,10.3-11,13.6"/>
<path class="st5" d="M445.2,230.1c0,0-38.4-10.8-36.7,28.8"/>
<path class="st5" d="M454.4,233.5c0,0,14.3,3.5,11.8,34.8"/>
<ellipse transform="matrix(0.9955 -9.457791e-02 9.457791e-02 0.9955 -23.6471 43.5033)" cx="447.1" cy="271.2" rx="2.8" ry="4.9"/>
<g>
	<path d="M454.5,268.4c-1.4,0.5-2.8,0.7-4.4,0.6c-0.7,0-1.5-0.1-2.2-0.4c-0.7-0.4-1.3-0.9-1.6-1.7c0,0,0-0.1,0-0.1c0,0,0,0,0,0l0,0
		c0.8,0.1,1.4,0.2,2.1,0.4c0.6,0.1,1.2,0.5,1.9,0.6c1.3,0.3,2.7,0.5,4.1,0.4l0,0C454.6,268.2,454.6,268.2,454.5,268.4
		C454.6,268.3,454.6,268.3,454.5,268.4z"/>
</g>
<path class="st5" d="M444.3,265.5c0,0,6.4-3.9,9.6,1"/>
<ellipse transform="matrix(0.9955 -9.457791e-02 9.457791e-02 0.9955 -23.8853 41.3942)" cx="424.7" cy="272.7" rx="2.8" ry="4.9"/>
<g>
	<path d="M416.9,271.1c1.4-0.2,2.8-0.6,4-1.2c0.6-0.3,1.1-0.7,1.7-1c0.6-0.3,1.2-0.5,2-0.8l0,0c0,0,0.1,0,0.1,0.1c0,0,0,0,0,0
		c-0.2,0.8-0.7,1.5-1.3,1.9c-0.6,0.5-1.4,0.7-2.1,0.8c-1.5,0.4-2.9,0.5-4.4,0.2C416.9,271.3,416.9,271.2,416.9,271.1
		C416.9,271.1,416.9,271.1,416.9,271.1L416.9,271.1z"/>
</g>
<circle class="st7" cx="424.7" cy="272.1" r="1.1"/>
<circle class="st7" cx="446.7" cy="270" r="1.1"/>
<path class="st5" d="M426.4,266.5c0,0-7-2.7-9.2,2.8"/>
<path class="st5" d="M438.6,278.8c0,0-4.3-1.8-6.2,0.6"/>
<path class="st5" d="M444.4,286c0,0-9.2,14.5-16.7,0.4"/>
<path class="st5" d="M398.5,366c0,0,6.7-2.5,13.1,3.7"/>
<path class="st5" d="M400.4,357.2c0,0,6.7-2.2,13,4.2"/>
<path class="st1" d="M146.4,198.8c1.8,3.4,16.5,17.8,31.4,15.7s-2.9-31.1-2.9-31.1l-15.5-13.9l-13.6,4.7L146.4,198.8z"/>
<path d="M226.5,214.6l3.8,0.8l-0.7,5.7c0,0-7.3,1-8,1.3s-4.1-4.3-4.1-4.3l6.8-3.5H226.5z"/>
<path class="st2" d="M133.6,461.7c0,0,20.4,33.5,9.8,35.1c-10.5,1.6-32.2,6.2-32.2-5.8s6.1-29.2,6.1-29.2H133.6z"/>
<path class="st2" d="M72.4,463c1,0.5,1.7,1.3,2,2.4c1.8,6.2,7.5,27.9-2.8,29c-9.1,1-33.8,3.8-43.5-0.4c-3.4-1.4-3.1-6.3,0.4-7.4
	c3.3-1,8.7-3,17.5-6.7c10.3-4.4,13.2-12.2,13.8-17.6c0.3-2.7,3.2-4.3,5.7-3L72.4,463z"/>
<path class="st8" d="M137.5,264.7l1.3,199.3c0,0-8,7-25.3,0l-15-160l-21,166.4c0,0-13.7,4.5-23.7-4.5l5.7-200L137.5,264.7z"/>
<g>
	<path class="st1" d="M33,190.3c0,0-3.8,90.3-4.5,92.8s-4.5,30.5,8,36c0,0,2.5,0.9,4.5-0.2c1.2-0.7,1.7-2.1,1.3-3.4
		c-1.4-4.8-5.2-19.7,0.5-21.5c0,0,8.7,11.1,6.9,2.1c-0.1-0.6-5.3-12.3-5-19.3s4.3-52,4.3-52l2.4-33.3L33,190.3z"/>
	<path class="st5" d="M31.7,305.2c0,0,2.1,10.5,6.1,14.2"/>
	<path class="st5" d="M34.8,304.2c0,0,2.7,11.6,6.2,14.7"/>
</g>
<path class="st9" d="M118.7,117.7c0,0,26.9,4.9,30.4,11.9c3.5,7,19.5,59.1,19.5,59.1s-9.9,11.9-28.9,4.8l1,75.9
	c0,0-40,25.7-85.7,2.4l-2.2-78c0,0-15.5-0.2-20.7-3.3c0,0,2.7-57.3,21.2-64.4s27.8-9.7,27.8-9.7L118.7,117.7z"/>
<path class="st1" d="M114.5,98l-1.6,21.6c0,0-9.6,6.5-14.9,14.7c0,0-2-5.9-13.4-16.2l2-20.1c0,0,8,5.1,11.5,5.3S114.5,99.2,114.5,98
	z"/>
<path class="st10" d="M131.6,72.3l-64.3-1.4c0,0-10.5-38.8,19-54c14.8-7.6,27.1-3.6,34.8,2.7c7.5,6,12.2,14.9,13.5,24.5
	C135.9,53.7,136.6,67.3,131.6,72.3z"/>
<path class="st1" d="M75.8,46.5c1.9-6.5,6-11.3,14.6-6c8.8,5.4,15.5,0.7,18.7-0.9c1.8-0.9,3.8-1.9,5.8-1.6
	c12.5,1.5,10.7,13.9,10.7,13.9c2,5.3,2,9.7,2,16.1c0,0.3,0,0.6,0,0.9c2.4-2.1,6.8-5,8.3,1.5c1.9,8.4-5.7,14.2-9.7,10
	c-3.8,15.3-14.4,26.3-26.9,26.3c-12.7,0-23.5-11.4-27.1-27.1v0c-6.8,1.7-8-7.6-6.5-11.6c1-2.6,3.3-1.9,5.3-0.7
	c0.1-7.9,2-15.3,5.1-21.4c0,0,0,0,0,0"/>
<path class="st10" d="M70.1,79.5l3.2-2.5c0-0.1,0,0,0,0l0,0c0,0.2,0.7,1.2,4.9,6.2c4.5,5.3,12.7,3.8,16,2.9c0.8-0.2,1.7-0.1,2.4,0.5
	c1.1,0.8,2.9,2,5,2.1c2.3,0.2,4.5-1,5.8-1.9c0.8-0.5,1.8-0.6,2.6-0.2c7.9,3.7,14.6-7.9,14.6-7.9l3.5,2c-0.7,14.4-14.1,29.3-28,29.3
	c-14.2,0-27.3-14.3-29.8-28.8C70.2,80.6,70.2,80,70.1,79.5z"/>
<path class="st1" d="M94,90.6c1.6,0,5.7,3.3,10.1,1.6c2.3-0.9,4.4-0.6,5.9-0.2c0,0.2,0.1,0.3,0.1,0.5c0,3-3.5,8.7-8.6,8.7
	c-5.1,0-9.2-5.5-9.2-8.5C92.2,91.5,92.9,90.9,94,90.6L94,90.6"/>
<path class="st10" d="M110.1,57.2l3.4-5.1c0,0,12.9,4.1,8.5,10.9C122,62.9,114.8,57.7,110.1,57.2z"/>
<path class="st10" d="M92.2,56.6l-3.4-5.1c0,0-12.9,4.1-8.5,10.9C80.4,62.3,87.5,57.1,92.2,56.6z"/>
<circle class="st5" cx="114.9" cy="71.1" r="7"/>
<circle class="st5" cx="88.1" cy="70.7" r="7"/>
<circle cx="115.1" cy="70.4" r="3.5"/>
<circle class="st7" cx="115.1" cy="70.4" r="0.9"/>
<path class="st5" d="M119.1,68.6c0,0-3.1-3.8-7.8,0"/>
<circle cx="88.2" cy="70.7" r="3.5"/>
<path class="st5" d="M84.3,68.9c0,0,3.1-3.8,7.8,0"/>
<circle class="st7" cx="88.2" cy="70.4" r="0.9"/>
<path class="st5" d="M105.1,62.9c0,0-3.3,15.2-0.3,18.6s-4.5,4-6.1,1.9"/>
<path class="st5" d="M107.9,69.3c0,0-5.4-4.2-12.8,0"/>
<path class="st5" d="M106.8,94.3c0,0-4.4,6-11,0"/>
<path class="st11" d="M114,114.4l12.5,4.4c0,0-9.5,16.6-8.5,20.1c0,0-6.7-4.3-17.6-7.8L114,114.4z"/>
<path class="st11" d="M84.2,111.4l-11.6,5.9c0,0,6.4,15.1,8.4,22.2c0,0,8-8,14.9-7.9L84.2,111.4z"/>
<line class="st5" x1="136.1" y1="155.3" x2="139.7" y2="193.4"/>
<line class="st5" x1="55.5" y1="153" x2="52.8" y2="193.7"/>
<path class="st12" d="M332.4,271l-1,10.2c0,0-7.1-5.4-6.9-8.1l-1.4,4.7c0,0-7.1-5.4-8.4-15.5c0,0-2.9,4.2-2.8,6.2
	c0,0-13.5-51.3,35.1-53.9c0,0,3.7-2.1,5.2-3.7c0.3-0.3,0.8-0.2,1,0.2c0.4,1.2,1.2,2.9,2.3,3.7c1.8,1.3,15.6-2,26.2,21.1
	c0,0,9.3,20.6-1.4,35.7l-3.4-5.4c0,0-1.8,9.3-2.9,10.6l-2.2-3.4l-3.9,7.1l-3.3-6.6l-8,0.8l-10.1,2.3l-9.6-2.8L332.4,271z"/>
<path class="st13" d="M321.1,479.9c0,0-18.3,7.8-17.3,13.5s9,4,21.8,4.8s18-2.5,14-15.5S321.1,479.9,321.1,479.9z"/>
<path class="st14" d="M317.1,494.1c0,0,3.7-1.9,4-3.1c0.3-1.2-5.7-8.4-5.7-8.4l-5,2.9L317.1,494.1z"/>
<path class="st13" d="M373.8,480.6c0,0,18.3,7.8,17.3,13.5s-9,4-21.8,4.8s-18-2.5-14-15.5S373.8,480.6,373.8,480.6z"/>
<path class="st14" d="M377.8,494.8c0,0-3.7-1.9-4-3.1c-0.3-1.2,5.7-8.4,5.7-8.4l5,2.9L377.8,494.8z"/>
<path class="st1" d="M375.6,341.9c0,0,0.5,17,3.8,31.3s5.5,17.3,1.5,17.8s-12.8,6.5,0,6.5c0,0-6.7,14.3,2.1,4.5c0,0,3.6-3,2.9,1.5
	s-0.3,15,2.8,7.5l1.4-7c0,0,1.6,10.4,5,10.2c0.8,0,1.3-0.8,1.3-1.5v-2.7c0,0,2.5-1,0-10.3s-3-4.8-3.8-17.5s-6.8-42.3-6.8-42.3
	L375.6,341.9z"/>
<path class="st1" d="M314.6,321.2c0,0-9,3.8-19-8.4s-12-9.3-9.5-15.5s-2-15.4-8.3-16.1c-6.3-0.6-5.1,8.9-5.1,8.9s-2.9,17.6,6.3,18
	c0,0,19,39.2,28.3,34.2s13.5-9.5,13.5-9.5L314.6,321.2z"/>
<path class="st14" d="M325.1,373.4l-7,109c0,0,7.8,7.5,24.5,1.5l4-83l6.3,82c0,0,9.8,4.8,22.8-3.5l-5.5-106l-21.3-6L325.1,373.4z"/>
<line class="st5" x1="394.5" y1="402.4" x2="396.4" y2="409.9"/>
<path class="st1" d="M341.5,276.6c-0.2,0.7,0,23.5,0,23.5l11.9-0.8v-23.3L341.5,276.6z"/>
<path class="st13" d="M340.5,292.2c0,0-9.8-0.3-13.8,2.9c-4,3.2-19,24-19,24s6.8,17.8,6,21.5l9.1-5.5v41c0,0,12.2,9.5,50.4,1.5
	v-30.5c0,0,10.8,1.1,16-4.3c4.7-4.9-9.9-35.9-19-46.5c-1.5-1.7-3.6-2.8-5.9-2.9l-11-0.5C353.3,293,349.2,302.4,340.5,292.2z"/>
<line class="st5" x1="322.9" y1="323.4" x2="322.7" y2="335.1"/>
<line class="st5" x1="371.9" y1="323.4" x2="373.1" y2="347.1"/>
<ellipse class="st1" cx="374.8" cy="255.8" rx="3.7" ry="5.9"/>
<ellipse class="st1" cx="322.3" cy="256.9" rx="3.7" ry="5.9"/>
<path class="st1" d="M375.7,255.3c0,14.3-11.6,30.3-26,30.3c-14.3,0-27-16.1-27-30.5c0-1.1,0.1-2.3,0.2-3.3c0.5-3.5,1.9-6.5,3.9-9
	c2.5,2.4,4.7,4.6,4.7,4.6s0.1-8.5-0.6-11.9c0.2-0.1,6.2,8.7,6.2,8.7s4.7-3.8,4.7-6.2c0,0,3.7,6.4,5.3,6.3c1.3-0.1,3-6.9,2.9-10.7
	c0.1,0,2.2,10.2,3.8,11.7c1.5,1.5,5.9-5.5,8-9.6c0.7,0.2,4,7.8,4.2,8.4c0.1,0.5,2.4-1.2,4.2-3.2c2.1,2.2,3.7,4.8,4.6,8
	C375.4,250.9,375.7,253,375.7,255.3z"/>
<ellipse cx="338.1" cy="254.9" rx="2.4" ry="4.9"/>
<circle class="st7" cx="337.3" cy="253" r="1.5"/>
<path class="st5" d="M333.2,251.8c0,0,4.1-3.2,8.3-0.6"/>
<ellipse cx="358.7" cy="254.8" rx="2.4" ry="4.9"/>
<circle class="st7" cx="358" cy="253" r="1.5"/>
<path class="st5" d="M363.6,251.7c0,0-4.1-3.2-8.3-0.6"/>
<path class="st5" d="M345.3,261.3c0,0,2.9-2.2,5.9,0"/>
<path class="st5" d="M339.6,270.2c0,0,10.3,10.7,17.6-0.6"/>
<path class="st5" d="M330.1,248.5c0,0,6.2-5.8,13.2-2.1"/>
<path class="st5" d="M353.3,246c0,0,6.3-3.3,12.2,0.8"/>
<g>
	<path class="st1" d="M261.6,259.7c0,0-8.2,15.1-7,22c0.2,1.4,2,2.1,3.1,1.1l2.3-2c0,0-1.2,28,2.7,20.8l3.5-13.7
		c0,0,2.3,28.5,5.2,14l1.5-13.8c0,0,4,25.2,5.2,12.5c1.2-12.7,0-13.3,0-13.3s3.5,15,4.7,9.7c1.2-5.3-3.8-35-9.3-38.7
		C267.8,254.6,261.6,259.7,261.6,259.7z"/>
	<path class="st15" d="M223.6,183.1c0,0,33,58.5,36.5,80c0,0,12.5-0.7,15-3.3c2.5-2.7-28.2-121.5-50.7-123.5L223.6,183.1z"/>
	<path class="st16" d="M172.6,461.5c0,0-2.5,17-18,24.8s7,15.5,12.3,12.3c2.8-1.7,16.9-9.4,21.6-10.9s8.8-5.8,1.6-26.1
		C182.9,441.2,172.6,461.5,172.6,461.5z"/>
	<path class="st16" d="M212.3,460.2l-2,19.9c-0.4,4.1,2.2,8,6.2,8.7c0.4,0.1,0.9,0.1,1.3,0.1c4.5,0,10,3,14.8,6s28.2,6.3,28.7-1.8
		s-12.9-10.5-19.1-17.6c-6.2-7.1-9.7-9.1-11.2-20.6S212.3,460.2,212.3,460.2z"/>
	<path class="st2" d="M159.5,256.7c0,0-10,12-4.8,49.3c5.2,37.3,12.8,156.8,12.8,156.8s10.3,11.8,25,0l5.2-143.6L210,462.6
		c0,0,10.1,10,24.4-1.3c0,0,17.7-191.8,0-205.6s-47.1-12.4-47.1-12.4L159.5,256.7z"/>
	<path class="st6" d="M194.1,24.5c0,0-23.3-14.5-37.5,9.5c0,0-5.8,12.8-5.5,21s-3.8,20.3-5,23s-6.5,15.3-2.5,21s4.8,10,3,15.5
		s0,12,4.5,12.8s4,6.8,4.8,9.8s10.8,6,10.8,6h33.3l20.3,3.3c0,0,15.8-8.3,16.8-19.8s2.3-22.5,6.3-28.3s2-18.3-2-25.8
		s-4.5-23.1-5.3-26.5C235,42.5,227.6,13,194.1,24.5z"/>
	<ellipse class="st1" cx="165.4" cy="80.2" rx="3.4" ry="8.5"/>
	<path class="st15" d="M235.9,146.2c-2-3.8-6.8-8.5-10.9-11.1c-1.7-1-3.6-1.6-5.6-1.5l-32,0.5c0,0-27.5-4.3-34.8,10.3
		c-7.3,14.6-14.8,60.7-15.3,64.7c-0.4,3-1.8,55.2-1.8,55.2s5.8,3.7,14.3-1.2c0,0,1.5-42.2,10.7-72.5c0,0,5.8,15.5,6.5,21.8
		c0.7,6.3-21.9,80.1-21.9,80.1s52.3,23.9,102.5-2.1c0,0-24.6-70.5-19.6-83.1c1.6-4.1,2.8-7.4,3.6-9.9"/>
	<path class="st5" d="M162.2,169.6c0,0-4.7,12.8-1.8,21"/>
	<path class="st5" d="M232.3,169.6c0,0,2,17.6-0.9,27.7"/>
	<path class="st5" d="M136.1,254.4c0,0,5.1,4,14.1-1.3"/>
	<path class="st5" d="M256.6,250c0,0,9.1,4,15.9-2.9"/>
	<path class="st16" d="M187.7,131.3c0,0-11.4,2.9-9.7,9.2c0.6,2.2,2.5,3.7,4.7,4.1l2.5,0.5c0,0-5.2,14.7,9.7,10.5
		c0,0,10.2,9.5,13.5-4.2c0,0,14.8-2,5.2-13c0,0,6.5-7.8-2.8-8.5l-21.4,2.3L187.7,131.3z"/>
	<ellipse class="st1" cx="223.8" cy="80.4" rx="3.4" ry="8.5"/>
	<path class="st1" d="M185.2,109.5c0,0,3.2,18.7-1.4,22.8c0,0,9.2,24.5,18.2,13.9c8.8-10.4,8.8-16.3,8.8-16.3s-6.1-5.2-2.7-22
		L185.2,109.5z"/>
	<g>
		<path class="st1" d="M136.6,267.1c-1.1,4.3-3.1,13.6-2.9,22c0.1,2.5,0.5,4.9,1.4,7.2c1.1,2.8,3,5.3,5.2,1c0,0,4.8,16.5,6.8,4.4
			c0,0,10.3,13.6,5.5-14.4c0,0,7,18.8,7.4,9.2c0.1-2-0.3-4-0.9-5.9c-1.4-4.4-4-13.5-0.1-11.1c0,0,4.4,3.9,5,0.5
			c0.6-3-13.7-12.8-16.9-14.9c-0.4-0.3-1.2,0.1-1.7,0.1l-5.7,0.3C138.2,265.4,137,265.6,136.6,267.1z"/>
		<path class="st5" d="M141.1,287.7c0,0-0.6,4-0.8,9.6"/>
		<line class="st5" x1="145.8" y1="289" x2="147.1" y2="301.7"/>
	</g>
	<path class="st1" d="M223.6,75.5c0,22.2-12.9,40.3-28.8,40.3c-15.9,0-28.8-18-28.8-40.3c0-6.3,1-12.2,2.9-17.5v0h0
		c2.7-2.3,6.3-4.5,11.4-6.2c6.6-2.3,10.7-5.3,13.2-8.4c-2.3,3.7,18.8,16.9,24.1,19.4c2.4,1.2,4.3,3.5,5.5,5.7
		C223.4,70.7,223.6,73.1,223.6,75.5z"/>
	<path class="st5" d="M194.1,24.5c0,0,6.6,10.3-0.6,18.9"/>
	<path class="st5" d="M162.1,67.1c0,0,3.1-9.4,9.1-10.9"/>
	<path class="st5" d="M173.1,61.7c0,0,9-5.4,14.3-1"/>
	<path class="st5" d="M196.8,59.7c0,0,6.5-2.5,14.6,3.3"/>
	<ellipse cx="180.7" cy="74.7" rx="3.1" ry="5.5"/>
	<circle class="st7" cx="180.8" cy="73.9" r="0.8"/>
	<path class="st5" d="M174.9,71.6c0,0,4.9-4.8,10.8-0.7"/>
	<ellipse cx="205" cy="74.9" rx="3.1" ry="5.5"/>
	<circle class="st7" cx="204.8" cy="74.2" r="0.8"/>
	<path class="st5" d="M210.7,71.8c0,0-4.9-4.8-10.8-0.7"/>
	<path class="st5" d="M190.9,64.8c0,0,2.3,16.4-0.8,20.3c0,0,1,3.4,6.7,0.8"/>
	<path class="st5" d="M185.2,95.1c0,0,10.5,15.7,21.1,0"/>
	<path class="st5" d="M200.6,302.5c0,0-2.5,5.2-2.9,16.7"/>
	<g>
		<path class="st1" d="M228,214.8c0,0,6.4,3.3-1.6,5.8s-12.8,6.3-0.8,6.6c0,0-17.2,7.1-1.2,8.1c0,0-13.5,8.8,3.6,7
			c0,0-12.5,9.5,6.4,5.9c0,0,10.9-1,7.6-7.5c0,0,3.8-6.1-2.1-6.9c0,0,4.9-7.5-1.4-8.9C238.5,224.9,243,212.7,228,214.8z"/>
		<line class="st1" x1="234" y1="227.2" x2="225.6" y2="227.2"/>
		<line class="st1" x1="234" y1="234.2" x2="224.4" y2="235.3"/>
		<line class="st1" x1="236.4" y1="240.2" x2="228" y2="242.3"/>
	</g>
</g>
<path d="M440.1,196.6l16.2-35l-11.8-0.1l0.5-72.5c0-3.5-2.2-6.4-5-6.4c-2.8,0-5,2.8-5.1,6.3l-0.5,72.5l-10.1-0.1L440.1,196.6z"/>
</svg>
