<?xml version="1.0" encoding="utf-8"?>
<!-- Generator: Adobe Illustrator 23.1.0, SVG Export Plug-In . SVG Version: 6.00 Build 0)  -->
<svg version="1.1" id="Слой_1" xmlns="http://www.w3.org/2000/svg" xmlns:xlink="http://www.w3.org/1999/xlink" x="0px" y="0px"
	 viewBox="0 0 283.5 283.5" style="enable-background:new 0 0 283.5 283.5;" xml:space="preserve">
<style type="text/css">
	.st0{fill:none;}
	.st1{fill:#231F20;}
	.st2{fill:#5E4030;}
	.st3{fill:#AE8D75;}
	.st4{fill:#FBC595;}
	.st5{fill:#8FB4DF;}
	.st6{fill:#F48026;}
	.st7{fill:#FFDC4D;}
	.st8{fill:none;stroke:#DFEF11;stroke-width:3;stroke-miterlimit:10;}
</style>
<g>
	<path class="st0" d="M92.9,51.9c0,0,3-0.7,7-0.4c4.4,0.2,11.7,3.5,15.7,8.4c8.3,10.2,9.8,20.3,5.1,27.4c-2.6,3.9-11.4,9.5-20.3,9.9
		c-7.4,0.3-2.5,0.8-9.4-0.3c-11.5-1.7-30.2-8.1-18.6-31.1C81.7,47.4,92.9,51.9,92.9,51.9z"/>
	<ellipse class="st0" cx="85.4" cy="246.4" rx="4.4" ry="7.9"/>
	<path class="st0" d="M87.8,239.9l0.7-11.7l-6,0.1l0.7,11.5c-1.1,1.4-1.7,3.5-1.7,4.9c0,2.3,1.6,4.2,4,4.2c2.3,0,4-2.2,4-4.4
		C89.2,243,88.7,241.2,87.8,239.9z"/>
	<ellipse class="st0" cx="105.1" cy="246.4" rx="4.4" ry="7.9"/>
	<path class="st0" d="M107.5,239.9l0.7-11.7l-6,0.1l0.7,11.5c-1.1,1.4-1.7,3.5-1.7,4.9c0,2.3,1.6,4.2,4,4.2c2.3,0,4-2.2,4-4.4
		C109,243,108.4,241.2,107.5,239.9z"/>
	<path class="st0" d="M91.4,234.4l-11.1-0.1c0,0-6.3-40.5-4.6-57.5c0.5-4.5,19.1,0.4,19.1,0.4L91.4,234.4z"/>
	<path class="st0" d="M100,234.4l11-0.1c0,0,4.8-39.8,3.1-56.9c-0.5-4.5-18.3,0.1-18.3,0.1L100,234.4z"/>
	<path class="st0" d="M57.1,163.7c0.2-0.3,2.6-3.2,3-3.2c2.4-10.9,11.2-41.3,11.2-41.3l7.2,5.1l-14.3,37.4c0.7,1.6,0.1,9,1.8,9.9
		c0.2,0.1-2.5,2.2-3.4-3.4c-0.3,0-3.6,8.5-3.6,8.5c-1.1,1.6-1.9,1.2-1.5-0.5l2.2-6.4l-3.4,7.6c-0.6,1.1-1.5,0.8-1.4-0.4l2.8-8.1
		l-0.1,0.1l-2.9,5.8c-0.6,1.5-2,1.5-1-1.4l2.2-5.3l-2.8,4.1c-0.2,0.3-0.6,0.6-0.9,0.4C51.9,172.2,51,172,57.1,163.7z"/>
	<path class="st0" d="M133.3,162.9c-0.2-0.3-2.6-3.2-3-3.2c-2.4-10.9-11.2-41.3-11.2-41.3l-7.2,5.1l14.3,37.4
		c-0.7,1.6-0.1,9-1.8,9.9c-0.2,0.1,2.5,2.2,3.4-3.4c0.3,0,3.6,8.5,3.6,8.5c1.1,1.6,1.9,1.2,1.5-0.5l-2.2-6.4l3.4,7.6
		c0.6,1.1,1.5,0.8,1.4-0.4l-2.8-8.1l0.1,0.1l2.9,5.8c0.6,1.5,2,1.5,1-1.4l-2.2-5.3l2.8,4.1c0.2,0.3,0.6,0.6,0.9,0.4
		S139.4,171.2,133.3,162.9z"/>
	<path class="st0" d="M123.3,119.8c0,0-5.9-10.8-10.7-15.4c-4-3.9-9.3-6.5-14-7c-6.4-0.4-8.7,0.6-10.3,1
		c-11.8,3-20.7,21.7-20.7,21.7l9.5,6.2l-6.8,55.9c0,0,13.2,2.8,25.9,2.4c18.2-0.5,23.6-3,23.6-3l-5.8-55.1L123.3,119.8z"/>
	<circle class="st0" cx="75.5" cy="80.7" r="1.4"/>
	<circle class="st0" cx="116.8" cy="80.7" r="1.4"/>
	<path class="st0" d="M118.2,71.8c-1-0.3-2.1,0.5-2.9,1.9c-0.9-10-9.1-17.8-19.1-17.8c-10.2,0-18.9,7.3-19.5,17.6
		c-0.8-1.2-1.8-1.9-2.7-1.6c-1.2,0.4-1.6,2.3-0.9,4.3c0.7,2,2.2,3.2,3.3,2.8c0.3-0.1,0.5-0.3,0.6-0.5c1.5,7.6,7.3,14,14.5,16
		c0,1.5,0.1,3.1,0.1,3.1c-1,0.4-2.5,0.6-3.8,1.1c1.4,3.1,4.9,5,8.4,5c3.6,0,6.7-1.5,8-4.7c-0.9-0.5-2.4-0.9-3.4-1.3
		c0-0.1,0.1-1.7,0.2-3.3c7.3-2,13-8.2,14.1-16c0.2,0.2,0.4,0.4,0.6,0.5c1.2,0.4,2.7-0.9,3.3-2.8C119.8,74.2,119.4,72.3,118.2,71.8z"
		/>
	<path class="st0" d="M92.6,51.8c0,0-4.7-3.2-12.1,2.7c-7.8,6.2-9.9,16.1-9.9,16.1s7,0.6,14.1-6.5C89.2,59.4,92.6,51.8,92.6,51.8z"
		/>
	<path class="st0" d="M95.8,61.6c10,6.4,21.9,9.4,21.9,9.4s3.7-9.5-8.6-17.3c-11-6.9-19.3-1.9-17.8,2.7
		C92.3,59.5,93.8,60.3,95.8,61.6z"/>
	<g>
		<path d="M94,80.5c0.2,0,0.4-0.2,0.4-0.4c0-0.7,0.8-1.3,1.7-1.3s1.7,0.6,1.7,1.3c0,0.2,0.2,0.4,0.4,0.4c0.2,0,0.4-0.2,0.4-0.4
			c0-1.2-1.1-2.1-2.6-2.1c-1.4,0-2.6,1-2.6,2.1C93.6,80.3,93.8,80.5,94,80.5z"/>
		<path d="M101.3,85.4c-1.2,1.7-3.1,2.7-5.2,2.7c-2,0-4-1-5.2-2.7c-0.1-0.2-0.4-0.2-0.6-0.1c-0.2,0.1-0.2,0.4-0.1,0.6
			c1.3,1.9,3.5,3,5.8,3s4.5-1.1,5.8-3c0.1-0.2,0.1-0.4-0.1-0.6C101.7,85.2,101.4,85.3,101.3,85.4z"/>
		<path d="M87.1,69.6c0.1,0,0.3-0.1,0.4-0.2c0.3-0.6,1-1,1.8-1.2c0.8-0.2,1.6-0.1,2.1,0.3c0.2,0.1,0.4,0.1,0.6-0.1
			c0.1-0.2,0.1-0.4-0.1-0.6c-0.7-0.5-1.8-0.6-2.8-0.4c-1,0.2-1.8,0.8-2.3,1.6c-0.1,0.2,0,0.4,0.2,0.5C87,69.5,87.1,69.6,87.1,69.6z"
			/>
		<path d="M100.9,68.4c0.6-0.4,1.4-0.4,2.1-0.2c0.8,0.2,1.4,0.7,1.7,1.3c0.1,0.1,0.2,0.2,0.4,0.2c0.1,0,0.1,0,0.2,0
			c0.2-0.1,0.3-0.4,0.2-0.5c-0.4-0.8-1.2-1.4-2.2-1.7c-1-0.3-2-0.1-2.8,0.3c-0.2,0.1-0.2,0.4-0.1,0.6
			C100.5,68.4,100.7,68.5,100.9,68.4z"/>
		<path d="M92,73.8c0-0.4,0.2-1-0.3-1.9c-0.2-0.3-1-0.7-1.3-0.7c-0.7,0-1.4,0.4-1.8,0.7c-1.2,0.7-2.2-0.2-2.5-0.4
			c0,0.3,0.1,0.6,0.2,0.9c0.1,0.3,0.4,0.6,0.8,0.7c0.4,0.2,0.8,0.2,1.1,0.1c0.2-0.1,0.5-0.1,0.7-0.2c0,0.2-0.1,0.4-0.1,0.6
			c0,1.2,0.7,2.1,1.7,2.1S92,74.9,92,73.8z"/>
		<path d="M103.7,72c-0.5-0.3-1.1-0.7-1.8-0.7c-0.4,0-1.1,0.3-1.3,0.7c-0.5,0.9-0.3,1.4-0.3,1.9c0.1,1.1,0.7,2,1.6,2
			s1.7-0.9,1.7-2.1c0-0.2,0-0.4-0.1-0.6c0.2,0.1,0.4,0.2,0.7,0.2c0.3,0.1,0.7,0.1,1.1-0.1c0.4-0.2,0.6-0.4,0.8-0.7
			c0.1-0.3,0.2-0.6,0.2-0.9C105.9,71.8,104.8,72.7,103.7,72z"/>
	</g>
	<path class="st1" d="M133.9,162.4c-0.1-0.2-0.8-1-1.5-1.8c-0.7-0.8-1.2-1.3-1.5-1.5c-1.9-8.7-7.6-28.7-10-37.2l2.6-1.9
		c0.2-0.1,0.2-0.3,0.1-0.5c-0.2-0.4-6-10.9-10.7-15.5c-2.5-2.5-5.7-4.4-9-5.7c-0.7-0.3-1.6-0.6-2.4-0.9c-0.1,0-0.2-0.1-0.3-0.1v0
		c8.9-0.7,17.2-6.3,19.7-10c4.8-7.2,3.1-17.1-4.4-26.8c-1.4-2.4-3.6-4.9-7.4-7.3c-7-4.4-13.3-4.1-16.4-1.8c0,0,0-0.1,0-0.1
		c-0.2-0.1-5-3.3-12.5,2.7c-4.4,3.5-7,8.2-8.5,11.6c-0.8,1.9-2,5.3-2.3,6.4c-1.6,5.3-1.4,9.9,0.6,13.6c3.8,7.4,13.5,10.3,20.9,11.4
		c0.1,0,0.1,0,0.2,0c-0.9,0.2-1.6,0.4-2.2,0.5c-0.2,0.1-0.5,0.1-0.7,0.2c-11.8,3-20.6,21.2-21,21.9c-0.1,0.2,0,0.4,0.1,0.5l2.3,1.5
		c-2.2,7.8-8.3,29-10.3,38c-0.3,0.2-0.7,0.7-1.5,1.5c-0.7,0.8-1.4,1.6-1.5,1.8c-5.1,6.9-5.4,8.3-5.3,9c0.1,0.5,0.5,0.7,0.6,0.8
		c0.2,0.1,0.5,0.2,0.7,0.2c0.2,0,0.3,0,0.4-0.1c-0.4,1.3-0.4,2.2,0,2.7c0.2,0.3,0.6,0.5,0.9,0.5c0.2,0,0.3,0,0.5-0.1l-0.1,0.4
		c0,0.1,0,0.1,0,0.2c-0.1,0.6,0.1,1.2,0.4,1.5c0.2,0.3,0.6,0.4,1,0.4c0.6,0,1.1-0.4,1.5-1c0,0,0,0.1,0.1,0.1
		c0.2,0.3,0.5,0.4,0.9,0.4c0.6,0,1.2-0.5,1.8-1.4c0,0,0.1-0.1,0.1-0.2c0.9-2.3,1.9-4.8,2.6-6.5c0.7,1.9,1.8,2.4,2.6,2.4
		c0.8,0,1.7-0.5,1.8-1.1c0.1-0.4-0.1-0.8-0.4-0.9c0,0-0.4-0.2-0.6-1.8c-0.2-1.1-0.3-2.6-0.3-3.8c-0.1-1.7-0.2-2.8-0.4-3.5l10.6-27.8
		l-5.9,48.4c0,0.2,0.1,0.4,0.3,0.4c0,0,1.9,0.4,4.8,0.8c-0.1,18.9,4.8,50.5,4.9,50.9c0,0.2,0.2,0.3,0.4,0.3l2.1,0l0.2,2.7
		c-0.7,0.1-1.2,0.7-1.2,1.4c0,0.6,0.4,1.1,1,1.3c-1,1.5-1.7,3.7-1.7,6.3c0,4.7,2.1,8.3,4.8,8.3s4.8-3.7,4.8-8.3
		c0-2.6-0.6-4.8-1.6-6.3c0.5-0.2,0.8-0.7,0.8-1.3c0-0.7-0.5-1.2-1.1-1.3l0.2-2.7l2.9,0c0,0,0,0,0,0c0.2,0,0.4-0.2,0.4-0.4l3-49.3
		c0.4,0,0.8,0,1.2,0l3.7,49.3c0,0.2,0.2,0.4,0.4,0.4c0,0,0,0,0,0l2,0l0.2,2.6c-0.7,0.1-1.2,0.7-1.2,1.4c0,0.6,0.4,1.1,1,1.3
		c-1,1.5-1.7,3.7-1.7,6.3c0,4.7,2.1,8.3,4.8,8.3c2.7,0,4.8-3.7,4.8-8.3c0-2.6-0.7-4.8-1.7-6.4c0.5-0.2,0.9-0.7,0.9-1.3
		c0-0.7-0.5-1.2-1.1-1.3l0.2-2.7l2.9,0c0.2,0,0.4-0.2,0.4-0.4c0-0.4,3.8-32.1,3.4-50.9c3.6-0.7,5-1.3,5.1-1.3
		c0.2-0.1,0.3-0.2,0.2-0.4l-4.9-46.8l9.9,26c-0.2,0.7-0.3,1.9-0.4,3.5c-0.1,1.3-0.1,2.7-0.3,3.8c-0.3,1.6-0.6,1.8-0.6,1.8
		c-0.3,0.2-0.5,0.6-0.4,0.9c0.1,0.6,1,1.1,1.8,1.1c0.9,0,1.9-0.5,2.6-2.4c0.7,1.6,1.7,4.1,2.6,6.5c0,0.1,0,0.1,0.1,0.2
		c0.6,0.9,1.2,1.4,1.8,1.4c0.4,0,0.7-0.2,0.9-0.4c0,0,0-0.1,0.1-0.1c0.4,0.6,0.9,1,1.5,1c0.4,0,0.7-0.2,1-0.4
		c0.3-0.4,0.5-0.9,0.4-1.5c0-0.1,0-0.1,0-0.2l-0.1-0.4c0.2,0.1,0.3,0.1,0.5,0.1c0.4,0,0.7-0.2,0.9-0.5c0.4-0.5,0.4-1.4,0-2.7
		c0.1,0.1,0.3,0.1,0.4,0.1c0.2,0,0.5-0.1,0.7-0.2c0.1-0.1,0.5-0.3,0.6-0.8C139.3,170.7,139.1,169.4,133.9,162.4z M96.2,95.1
		c-10.6,0-19.5-9.7-19.5-20.6c0-1.8,0.3-3.4,0.7-5c2.3-1,4.9-2.5,7.6-5.2c2.4-2.4,4.4-5.6,5.8-8.2c0,0.1,0,0.2,0,0.3
		c1,3.1,2.4,4,4.3,5.1l0.5,0.3c7.1,4.5,15.1,7.4,19.2,8.6c0.4,1.6,0.7,3.2,0.7,5C115.5,86.3,106.9,95.1,96.2,95.1z M118.1,64.2
		c5.3,8.4,6.3,16.7,2.2,22.8c-2.4,3.7-10.7,8.9-19,9.6c0-0.4,0-0.9,0.1-1.4c6.6-1.8,11.8-7,13.8-13.6c0.3,0.5,0.9,0.8,1.5,0.8
		c1,0,1.8-0.8,1.8-1.8c0-0.7-0.5-1.4-1.1-1.7c0.8-0.5,1.6-1.5,2.1-2.8c0.8-2.2,0.2-4.3-1.2-4.8c-0.8-0.3-1.7,0.1-2.4,0.8
		c-0.1-0.5-0.2-1-0.3-1.4c1.2,0.3,1.9,0.5,1.9,0.5c0,0,0.1,0,0.1,0c0.2,0,0.3-0.1,0.4-0.3C118.1,71,119.1,68.1,118.1,64.2z
		 M116.1,73.3c0.5-0.7,1.1-1.1,1.7-1.1c0.1,0,0.2,0,0.3,0.1c0.9,0.3,1.3,2,0.7,3.8c-0.6,1.7-1.8,2.8-2.8,2.6c0.1-1,0.3-2,0.3-3.1
		C116.3,74.7,116.2,74,116.1,73.3z M116.8,79.7c0.6,0,1,0.5,1,1c0,0.6-0.5,1-1,1c-0.6,0-1-0.5-1-1C115.8,80.1,116.2,79.7,116.8,79.7
		z M93.2,52.3c1.3-1,3.2-1.6,5.5-1.6c2.9,0,6.4,1,10.2,3.3c10.7,6.8,9.1,14.7,8.5,16.5c-2.1-0.6-12.5-3.5-21.4-9.2l-0.5-0.3
		c-1.7-1.1-3-1.9-3.9-4.7C91.2,54.8,91.8,53.4,93.2,52.3z M80.8,54.8c3.5-2.8,6.3-3.5,8.3-3.5c1.5,0,2.5,0.4,3,0.6
		c-0.1,0.1-0.2,0.3-0.3,0.6c-0.5,0.6-0.9,1.3-1,2c0,0,0,0,0-0.1c-1.4,2.6-3.7,6.5-6.4,9.3c-5.8,5.9-11.7,6.4-13.3,6.4
		C71.2,70,74.1,60.1,80.8,54.8z M91.1,96.4c-7.3-1.1-16.7-3.9-20.3-11c-2-3.9-2-8.8,0-14.5c0.1,0,0.2,0,0.4,0c0.9,0,2.9-0.1,5.4-1
		c-0.2,0.7-0.3,1.4-0.4,2.1c-0.7-0.6-1.5-0.8-2.2-0.6c-0.7,0.2-1.2,0.9-1.4,1.8c-0.2,0.9-0.1,1.9,0.2,2.9c0.4,1.3,1.2,2.3,2.1,2.8
		c-0.6,0.3-1.1,0.9-1.1,1.7c0,1,0.8,1.8,1.8,1.8c0.7,0,1.3-0.4,1.6-1c1,2.9,2.6,5.7,4.8,8c2.7,2.8,5.9,4.8,9.3,5.7
		c0,0.5,0,0.9,0,1.3C91.2,96.4,91.2,96.4,91.1,96.4z M76.3,78.5c-0.9,0.3-2.2-0.9-2.8-2.6c-0.3-0.9-0.4-1.8-0.2-2.5
		c0.1-0.7,0.5-1.1,0.9-1.3c0.1,0,0.2-0.1,0.3-0.1c0.5,0,1,0.4,1.5,0.9c0,0.5-0.1,1-0.1,1.5C75.9,75.9,76,77.2,76.3,78.5z M76.5,80.7
		c0,0.6-0.5,1-1,1c-0.6,0-1-0.5-1-1c0-0.6,0.5-1,1-1C76,79.7,76.5,80.1,76.5,80.7z M90.1,98.4c0.6-0.2,1.2-0.3,1.7-0.5
		c0.2-0.1,0.3-0.2,0.3-0.4c0,0,0-1.7-0.1-2.1c1.4,0.3,2.8,0.5,4.2,0.5c1.5,0,3-0.2,4.4-0.5c0,0.4,0,0.7,0,1c0,0.1-0.1,1.3-0.1,1.3
		c0,0.2,0.1,0.4,0.3,0.4c0.2,0.1,0.4,0.1,0.6,0.2c0.8,0.2,1.7,0.5,2.4,0.9c-1.3,2.7-3.9,4.1-7.5,4.1c-3.3,0-6.5-1.8-7.9-4.4
		C89,98.7,89.6,98.6,90.1,98.4z M64.3,161.6c0.7,1.6,0.1,9,1.8,9.9c0.1,0-0.4,0.5-1,0.5c-0.8,0-1.9-0.7-2.4-3.9
		c-0.3,0-3.6,8.5-3.6,8.5c-0.5,0.7-0.9,1-1.2,1c-0.4,0-0.6-0.5-0.4-1.5l2.2-6.4l-3.4,7.6c-0.3,0.5-0.6,0.7-0.8,0.7
		c-0.4,0-0.6-0.4-0.5-1.1l2.8-8.1l-0.1,0.1l-2.9,5.8c-0.3,0.6-0.7,1-1,1c-0.4,0-0.6-0.7-0.1-2.4l2.2-5.3l-2.8,4.1
		c-0.2,0.2-0.4,0.4-0.6,0.4c-0.1,0-0.2,0-0.3-0.1c-0.3-0.2-1.2-0.4,4.9-8.7c0.2-0.3,2.6-3.2,3-3.2c1.9-8.7,7.9-29.9,10.3-38.1
		l6.3,4.1l-0.5,4L64.3,161.6z M83.2,234.7l4.5,0l-0.2,2.6c0,0,0,0,0,0h-4.2L83.2,234.7z M87.5,240.2c0.8,1.2,1.3,2.8,1.3,4.2
		c0,1.9-1.4,4-3.6,4c-2,0-3.6-1.6-3.6-3.8c0-1,0.4-2.5,1.1-3.8c0.1-0.2,0.3-0.4,0.4-0.6H87.5z M85.4,253.9c-2.1,0-3.8-3.2-3.9-7.1
		c0.7,1.4,2.1,2.4,3.8,2.4c2,0,3.5-1.4,4.1-3.1c0,0.1,0,0.2,0,0.3C89.4,250.5,87.6,253.9,85.4,253.9z M88.6,238.8
		c0,0.3-0.3,0.6-0.6,0.6h-5.1l-0.3,0v0c-0.3-0.1-0.5-0.3-0.5-0.6c0-0.3,0.3-0.6,0.6-0.6H88C88.3,238.2,88.6,238.5,88.6,238.8z
		 M91,234l-10.4-0.1c-0.5-3.5-4.8-32.5-4.8-50.3c4.5,0.7,11.3,1.5,18,1.5c0,0,0.1,0,0.1,0L91,234z M109.1,246.4c0,4.1-1.8,7.5-4,7.5
		c-2.1,0-3.8-3.2-3.9-7.1c0.7,1.4,2.1,2.4,3.8,2.4c2,0,3.5-1.4,4.1-3.1C109.1,246.2,109.1,246.3,109.1,246.4z M108.6,244.4
		c0,1.9-1.4,4-3.6,4c-2,0-3.6-1.6-3.6-3.8c0-1.1,0.5-2.8,1.3-4.1c0.1-0.1,0.2-0.2,0.3-0.4h4.2C108,241.3,108.6,243,108.6,244.4z
		 M108.3,238.8c0,0.3-0.3,0.6-0.6,0.6h0c0,0,0,0,0,0c0,0,0,0,0,0h-5.2c-0.3,0-0.6-0.3-0.6-0.6c0-0.3,0.3-0.6,0.6-0.6h5.2
		C108,238.2,108.3,238.4,108.3,238.8z M102.9,234.8l4.5,0l-0.1,2.6h-4.2L102.9,234.8z M110.7,233.9l-10.3,0.1l-3.6-48.9
		c8.2-0.3,13.7-0.9,17.3-1.5C114.5,201.3,111.1,230.4,110.7,233.9z M119.4,181.5c-1.3,0.5-7.4,2.3-23.2,2.8
		c-11.3,0.3-23.2-1.9-25.4-2.3l6.7-55.4c0.1-0.6,0.9-6.6,1.6-10.5c0-0.2-0.1-0.4-0.3-0.5c-0.2,0-0.4,0.1-0.5,0.3
		c-0.6,3.3-1.2,7.9-1.5,9.8l-8.6-5.7c1.2-2.4,9.2-17.6,19.5-20.9c1.5,3,5,5,8.7,5c3.9,0,6.9-1.7,8.2-4.7c2.8,1.3,5.6,3.1,7.8,5.3
		c4.2,4.1,9.4,13.2,10.4,15l-8.6,6.3c-0.3-1.9-1.1-6.3-1.9-9.9c0-0.2-0.3-0.4-0.5-0.3c-0.2,0-0.4,0.3-0.3,0.5c0.8,3.5,1.7,8,2,9.9
		c0.1,0.6,0.3,2.6,0.3,2.6L119.4,181.5z M138.2,171.6c-0.1,0.1-0.2,0.1-0.3,0.1c-0.2,0-0.5-0.2-0.6-0.4l-2.8-4.1l2.2,5.3
		c0.6,1.7,0.4,2.4-0.1,2.4c-0.3,0-0.7-0.4-1-1l-2.9-5.8l-0.1-0.1l2.8,8.1c0.1,0.7-0.2,1.1-0.5,1.1c-0.3,0-0.6-0.2-0.8-0.7l-3.4-7.6
		l2.2,6.4c0.2,0.9,0,1.5-0.4,1.5c-0.3,0-0.7-0.3-1.2-1c0,0-3.3-8.5-3.6-8.5c-0.5,3.2-1.6,3.9-2.4,3.9c-0.6,0-1.1-0.4-1-0.5
		c1.8-0.9,1.1-8.2,1.8-9.9L115,131.7l-0.5-4.9l5.8-4.3c2.5,8.7,8.2,28.7,10,37.1c0.4,0.1,2.8,3,3,3.2
		C139.4,171.2,138.5,171.4,138.2,171.6z"/>
</g>
<g>
	<g>
		<path class="st2" d="M188.1,235.4c-2.3-0.7-5.5,3.1-7.2,8.4c-1.7,5.4-1.7,9.8,0.6,10.5c2.3,0.7,7.7-4.7,9.4-10
			C192.5,238.9,190.3,236.1,188.1,235.4z"/>
		<path class="st2" d="M206.3,243.8c-1.7-5.4-4.9-9.2-7.2-8.4c-2.3,0.7-4.4,3.5-2.8,8.9c1.7,5.4,7.1,10.8,9.4,10
			C208,253.6,207.9,249.2,206.3,243.8z"/>
	</g>
	<path class="st3" d="M206.3,239.4l-25.3,0.1c0,0-4.8-47.4-6.2-59.6c-1.9-17.6,2.1-34,2.1-34l32.4,0.4c0,0,3.9,13.7,1.9,35.9
		C210.2,194.3,206.3,239.4,206.3,239.4z"/>
	<path class="st4" d="M166.1,166.6c0-0.8-2.6-5.6-2.5-5.8c0.1-0.3,1.2-5.8,1.2-5.8l-5.8-0.1l-0.3,5.6l-4.9,7.9l-1.4,5.2
		c0,0,1,0.5,1.5-0.1c0.4-0.5,1.1-2.9,1.5-4.5l0,0l-0.6,6.7c0,0,1.1,0.5,1.7-0.7c0.6-1,1.2-3.8,1.3-5.6l0.1,0l-0.3,7.7
		c0,0,1.1,0.5,1.7-0.7c0.7-1.2,1.1-4.9,1.2-6.5l0.1,0l0,7c0,0,0.9,0.3,1.6-0.7c0.7-1,0.9-6.4,1-5.9l0.8-1.9c0,1,0,2.2,0.2,2.6
		c0.8,2.2,2.4,1.4,2.4,1.4S165.9,169.8,166.1,166.6z"/>
	<path class="st4" d="M218.3,168c0-0.7,2.7-5.1,2.7-5.3c-0.1-0.3-0.9-5.5-0.9-5.5l5.5,0.2v5.3l4.3,7.7l1.1,5c0,0-0.9,0.4-1.4-0.2
		c-0.4-0.5-0.9-2.8-1.2-4.3l0,0l0.2,6.4c0,0-1.1,0.4-1.6-0.7c-0.5-1-0.9-3.7-0.9-5.4h-0.1l-0.1,7.3c0,0-1.1,0.4-1.6-0.7
		c-0.6-1.1-0.8-4.7-0.8-6.2h-0.1l-0.4,6.7c0,0-0.8,0.3-1.5-0.7c-0.7-1-0.5-6.1-0.6-5.7l-0.7-1.8c-0.1,1-0.1,2.1-0.3,2.5
		c-0.9,2.1-2.3,1.2-2.3,1.2S218.3,171,218.3,168z"/>
	<path class="st5" d="M227,160.7l-1-40.4c0.7-12.8-3.2-21.5-5.8-23c-6.1-3.7-17-6.7-25.7-6.8c-9.7-0.2-21.6,2.9-24.3,3.7
		c-5,1.5-9.2,12.8-9.6,25.5l-5.4,41.1l10.6,1l6.4-27.4c0,0,2.3,12.9,5.3,13.1c8.7,0.6,27.4,0.8,31.3,0c1.8-0.4,3.6-5.4,3.6-5.4
		l3.3,19.4L227,160.7z"/>
	<path class="st4" d="M187.8,86.5v6.2c0,3.6,3.1,6.6,6.9,6.6c3.8,0,6.9-2.9,6.9-6.6v-6.2H187.8z"/>
	<ellipse transform="matrix(0.5 -0.866 0.866 0.5 45.3021 219.2601)" class="st4" cx="212.5" cy="70.4" rx="3.6" ry="1.9"/>
	<ellipse transform="matrix(0.866 -0.5 0.5 0.866 -11.662 97.2716)" class="st4" cx="175.7" cy="70.4" rx="1.9" ry="3.6"/>
	<path class="st4" d="M211.4,67.8c0,4.6-0.8,11.2-2.6,13.5c-3.5,4.4-11.3,8.1-14.8,7.9c-3.3-0.2-11-3.3-14.3-7.9
		c-2.4-3.3-2.7-10.6-2.7-15.1c0-10.8,7.6-16.6,17.6-16.6S211.4,57,211.4,67.8z"/>
	<g>
		<path d="M192.6,75.9c0.1,0.2,0.4,0.5,1,0.5h1.7c0.2,0,0.4-0.2,0.4-0.4c0-0.2-0.2-0.4-0.4-0.4h-1.7c-0.3,0-0.4-0.1-0.4-0.1
			c-0.1-0.1-0.2-0.5,0.5-2c0.9-1.9,0.4-3.2,0.4-3.3c-0.1-0.2-0.3-0.3-0.5-0.2c-0.2,0.1-0.3,0.3-0.2,0.5c0,0,0.4,1.1-0.4,2.7
			C192.4,74.5,192.3,75.3,192.6,75.9z"/>
		<path d="M197.6,80c-3.5,2.8-6.7,0.1-6.8,0c-0.2-0.1-0.4-0.1-0.5,0c-0.1,0.2-0.1,0.4,0,0.5c0,0,1.7,1.4,4,1.4
			c1.2,0,2.5-0.4,3.8-1.4c0.2-0.1,0.2-0.4,0.1-0.5C198,79.9,197.7,79.9,197.6,80z"/>
		<path d="M184,65.7c0,0,2.8-1.7,6.1,0c0.1,0,0.1,0,0.2,0c0.1,0,0.3-0.1,0.3-0.2c0.1-0.2,0-0.4-0.2-0.5c-3.7-1.9-6.7-0.1-6.8,0
			c-0.2,0.1-0.2,0.3-0.1,0.5C183.6,65.8,183.8,65.8,184,65.7z"/>
		<path d="M198.2,65.7c0,0,2.8-1.7,6.1,0c0.1,0,0.1,0,0.2,0c0.1,0,0.3-0.1,0.3-0.2c0.1-0.2,0-0.4-0.2-0.5c-3.7-1.9-6.7-0.1-6.8,0
			c-0.2,0.1-0.2,0.3-0.1,0.5C197.8,65.8,198.1,65.8,198.2,65.7z"/>
		<path d="M206.3,66.6h-9.5c-0.2,0-0.4,0.2-0.4,0.4v1.3c0,0.2,0,0.3,0,0.5c-2-0.9-3.9-0.4-4.8,0c0-0.2,0-0.3,0-0.5V67
			c0-0.2-0.2-0.4-0.4-0.4h-9.5c-0.2,0-0.4,0.2-0.4,0.4v1.3c0,3.1,2.3,5.7,5.1,5.7c2.4,0,4.4-1.8,5-4.3c0.2-0.1,2.7-1.3,5,0
			c0,0,0,0,0.1,0c0.6,2.5,2.6,4.3,4.9,4.3c2.8,0,5.1-2.5,5.1-5.7V67C206.7,66.8,206.6,66.6,206.3,66.6z M191,68.3
			c0,2.7-1.9,4.9-4.3,4.9c-2.4,0-4.3-2.2-4.3-4.9v-0.9h8.7V68.3z M206,68.3c0,2.7-1.9,4.9-4.3,4.9c-2.4,0-4.3-2.2-4.3-4.9v-0.9h8.7
			V68.3z"/>
		<path d="M187.6,70.9c0.6,0,1.1-0.6,1.1-1.3c0-0.7-0.5-1.3-1.1-1.3c-0.6,0-1.1,0.6-1.1,1.3C186.5,70.3,187,70.9,187.6,70.9z"/>
		<path d="M201.9,70.9c0.6,0,1.1-0.6,1.1-1.3c0-0.7-0.5-1.3-1.1-1.3s-1.1,0.6-1.1,1.3C200.8,70.3,201.3,70.9,201.9,70.9z"/>
	</g>
	<path d="M191.6,110.1C191.6,110.1,191.6,110.1,191.6,110.1c-0.4,0-0.7-0.2-1-0.4s-0.4-0.6-0.4-1c0-0.4,0.2-0.7,0.4-1
		c0.3-0.3,0.6-0.4,1-0.4c0.4,0,0.7,0.2,1,0.4c0.3,0.3,0.4,0.6,0.4,1c0,0.4-0.2,0.7-0.4,1C192.4,109.9,192,110.1,191.6,110.1z
		 M191.6,108c-0.2,0-0.3,0.1-0.5,0.2c-0.1,0.1-0.2,0.3-0.2,0.5c0,0.2,0.1,0.3,0.2,0.5c0.1,0.1,0.3,0.2,0.5,0.2
		c0.2,0,0.3-0.1,0.5-0.2c0.1-0.1,0.2-0.3,0.2-0.5c0-0.2-0.1-0.3-0.2-0.5C192,108.1,191.8,108,191.6,108
		C191.7,108,191.7,108,191.6,108z"/>
	<path d="M191.6,118.3C191.6,118.3,191.6,118.3,191.6,118.3c-0.4,0-0.7-0.2-1-0.4c-0.3-0.3-0.4-0.6-0.4-1c0-0.4,0.2-0.7,0.4-1
		c0.3-0.3,0.6-0.4,1-0.4c0.4,0,0.7,0.2,1,0.4c0.3,0.3,0.4,0.6,0.4,1l-0.4,0l0.4,0c0,0.4-0.2,0.7-0.4,1
		C192.3,118.2,192,118.3,191.6,118.3z M191.6,116.2c-0.2,0-0.3,0.1-0.5,0.2c-0.1,0.1-0.2,0.3-0.2,0.5c0,0.2,0.1,0.3,0.2,0.5
		c0.1,0.1,0.3,0.2,0.5,0.2c0.2,0,0.3-0.1,0.5-0.2c0.1-0.1,0.2-0.3,0.2-0.5c0-0.2-0.1-0.3-0.2-0.5
		C191.9,116.3,191.8,116.3,191.6,116.2C191.6,116.2,191.6,116.2,191.6,116.2z"/>
	<path d="M191.6,126.5C191.6,126.5,191.5,126.5,191.6,126.5c-0.4,0-0.7-0.2-1-0.4c-0.3-0.3-0.4-0.6-0.4-1c0-0.4,0.2-0.7,0.4-1
		c0.3-0.3,0.6-0.4,1-0.4c0,0,0,0,0,0c0.4,0,0.7,0.2,1,0.4c0.3,0.3,0.4,0.6,0.4,1C193,125.9,192.3,126.5,191.6,126.5z M191.6,124.5
		c-0.2,0-0.3,0.1-0.5,0.2c-0.1,0.1-0.2,0.3-0.2,0.5c0,0.2,0.1,0.3,0.2,0.5c0.1,0.1,0.3,0.2,0.5,0.2c0,0,0,0,0,0
		c0.4,0,0.6-0.3,0.6-0.6c0-0.2-0.1-0.3-0.2-0.5C191.9,124.5,191.7,124.5,191.6,124.5C191.6,124.5,191.6,124.5,191.6,124.5z"/>
	<path d="M191.5,134.7C191.5,134.7,191.5,134.7,191.5,134.7c-0.4,0-0.7-0.2-1-0.4c-0.3-0.3-0.4-0.6-0.4-1c0-0.4,0.2-0.7,0.4-1
		c0.3-0.3,0.6-0.4,1-0.4c0,0,0,0,0,0c0.4,0,0.7,0.2,1,0.4c0.3,0.3,0.4,0.6,0.4,1c0,0.4-0.2,0.7-0.4,1
		C192.2,134.6,191.9,134.7,191.5,134.7z M191.5,132.7c-0.2,0-0.3,0.1-0.5,0.2c-0.1,0.1-0.2,0.3-0.2,0.5c0,0.2,0.1,0.3,0.2,0.5
		c0.1,0.1,0.3,0.2,0.5,0.2c0.2,0,0.3-0.1,0.5-0.2c0.1-0.1,0.2-0.3,0.2-0.5c0-0.2-0.1-0.3-0.2-0.5
		C191.8,132.8,191.7,132.7,191.5,132.7C191.5,132.7,191.5,132.7,191.5,132.7z"/>
	<path d="M191.5,143C191.5,143,191.5,143,191.5,143c-0.4,0-0.7-0.2-1-0.4c-0.3-0.3-0.4-0.6-0.4-1c0-0.4,0.2-0.7,0.4-1
		c0.3-0.3,0.6-0.4,1-0.4c0,0,0,0,0,0c0.4,0,0.7,0.2,1,0.4c0.3,0.3,0.4,0.6,0.4,1s-0.2,0.7-0.4,1C192.2,142.8,191.8,143,191.5,143z
		 M191.5,140.9c-0.2,0-0.3,0.1-0.5,0.2c-0.1,0.1-0.2,0.3-0.2,0.5c0,0.2,0.1,0.3,0.2,0.5c0.1,0.1,0.3,0.2,0.5,0.2
		c0.2,0,0.3-0.1,0.5-0.2c0.1-0.1,0.2-0.3,0.2-0.5c0-0.2-0.1-0.3-0.2-0.5C191.8,141,191.6,140.9,191.5,140.9
		C191.5,140.9,191.5,140.9,191.5,140.9z"/>
	<path class="st6" d="M175.3,67c-0.1-0.4-4.6-17.9,6.8-17.6c0,0,0.4-2.2,6-2.8c8.6-1,24,0.4,25.6,9.4c1.5,8.6-2.6,12.7-2.7,12.3
		c-0.1-0.4-1.8-10-10.4-11.1c-6.2-0.7-10.3,1.9-14,1.2c-3-0.6-4.8-3.9-4.8-3.9s0.1,3.7-1.3,7.1c-1.5,3.5-3.6,6.7-3.6,6.7L175.3,67z"
		/>
	<path class="st7" d="M197.8,152.3h-7.5c-0.2,0-0.3-0.1-0.3-0.3v-4.3c0-0.2,0.1-0.3,0.3-0.3h7.5c0.2,0,0.3,0.1,0.3,0.3v4.3
		C198.1,152.1,198,152.3,197.8,152.3z"/>
	<path class="st1" d="M230.6,170.2c0-0.1,0-0.1-0.1-0.2l-4.2-7.5v-0.9l0.6,0c0.4,0,0.7-0.4,0.7-0.8l-1-40.4
		c0.7-12.6-3.1-21.9-6.1-23.7c-4.5-2.7-11.5-5-18.3-6.1v-3.9c2.6-1.4,5.2-3.3,6.7-5.3c1.1-1.4,1.9-4.3,2.3-7.5
		c0.1,0,0.2,0.1,0.3,0.1c1.1,0,2.5-1,3.4-2.6c0.7-1.3,1-2.6,0.7-3.5c-0.2-0.5-0.4-0.8-0.8-1c-0.5-0.3-1.2-0.1-1.9,0.2
		c1.2-1.9,2.6-5.6,1.5-11.2C212.8,46.7,197.4,45,188,46c-4.8,0.5-6,2.1-6.4,2.8c-2.7,0-4.7,0.9-6.1,2.7c-3.5,4.7-1.4,13.7-1.1,15.1
		c-0.4-0.1-0.8-0.1-1.1,0.1c-0.4,0.2-0.7,0.5-0.8,1c-0.3,0.9,0,2.3,0.7,3.5c0.9,1.6,2.3,2.6,3.4,2.6c0.1,0,0.2,0,0.3-0.1
		c0.4,3,1.1,5.8,2.4,7.5c1.7,2.3,4.6,4.3,7.4,5.8l0.3,0.2v2.9c-2.1,0.2-4.2,0.6-6.2,0.9c0,0,0,0,0,0c-0.2,0-0.4,0.1-0.5,0.1
		c0,0,0,0,0,0c-4.7,0.8-8.6,1.9-10.3,2.4c-5.3,1.6-9.7,12.9-10.2,26.1l-5.4,41.1c0,0.2,0,0.4,0.2,0.6c0.1,0.2,0.3,0.3,0.5,0.3
		l1.9,0.2l-3.9,6.3c0,0.1-0.1,0.1-0.1,0.2l-1.4,5.2c-0.1,0.3,0.1,0.7,0.4,0.9c0.1,0,0.6,0.3,1.1,0.3c0.4,0,0.7-0.1,1-0.3l-0.1,1.4
		c0,0.3,0.2,0.7,0.5,0.8c0.1,0,0.4,0.2,0.8,0.2c0.6,0,1.2-0.2,1.6-0.7l0,1.2c0,0.3,0.2,0.6,0.5,0.7c0.1,0,0.4,0.2,0.8,0.2
		c0.7,0,1.3-0.3,1.7-0.9c0,0.3,0.2,0.6,0.5,0.7c0.1,0,0.3,0.1,0.6,0.1c0.4,0,1.2-0.1,1.9-1c0.5-0.7,0.7-2.2,0.9-4.7
		c0.7,1.2,1.6,1.4,2.1,1.4c0.5,0,0.9-0.2,1-0.2c0.3-0.2,0.5-0.5,0.4-0.8c0,0-0.6-2.8-0.4-5.9c0-0.6-0.4-1.6-1.7-4.2l0.6,0.1
		c0,0,0,0,0.1,0c0.4,0,0.7-0.2,0.8-0.6l5.6-24c0.2,1,0.5,2,0.8,3.1c1.1,3.7,2.1,5.5,2.9,6.3c-0.9,4.6-3.4,18.2-1.8,32.6
		c1.3,12.1,6.1,59.1,6.2,59.6c0,0.4,0.4,0.7,0.8,0.7h0l0.4,0c-0.5,1-0.9,2.1-1.3,3.3c-2,6.3-1.6,10.6,1.1,11.5
		c0.2,0.1,0.4,0.1,0.7,0.1c3,0,8.1-5.6,9.7-10.6c0.5-1.6,0.6-3,0.6-4.3l2.9,0c-0.1,1.2,0,2.6,0.6,4.3c1.6,5.1,6.6,10.6,9.7,10.6
		c0.2,0,0.5,0,0.7-0.1c2.7-0.8,3.1-5.1,1.1-11.5c-0.4-1.2-0.9-2.3-1.4-3.4l0.6,0c0.4,0,0.7-0.3,0.8-0.7c0-0.5,4-45.3,5-57.2
		c1.6-18.7-0.9-31.5-1.7-35.1c0.6-0.7,1.2-1.6,1.6-2.4l2.9,16.9c0.1,0.4,0.4,0.6,0.8,0.6c0,0,0,0,0.1,0l4.4-0.3
		c0,0.2,0.1,0.5,0.1,0.6c-0.1,0.3-0.5,0.9-0.8,1.4c-1.4,2.4-1.9,3.4-1.9,4c0,2.9-0.7,5.5-0.7,5.5c-0.1,0.3,0.1,0.7,0.3,0.9
		c0.1,0,0.5,0.3,1.1,0.3c0.5,0,1.3-0.2,1.9-1.1c0.1,2.3,0.2,3.7,0.7,4.4c0.6,1,1.4,1.1,1.9,1.1c0.3,0,0.5-0.1,0.5-0.1
		c0.3-0.1,0.4-0.3,0.5-0.5c0.4,0.6,1,0.9,1.7,0.9c0.4,0,0.6-0.1,0.7-0.1c0.3-0.1,0.5-0.4,0.5-0.7l0-1.1c0.4,0.4,0.9,0.7,1.5,0.7
		c0.4,0,0.6-0.1,0.7-0.1c0.3-0.1,0.5-0.4,0.5-0.8l0-1.3c0.3,0.2,0.6,0.3,1,0.3c0.5,0,0.9-0.2,1-0.2c0.3-0.2,0.5-0.5,0.4-0.9
		L230.6,170.2z M207.4,92.3c-0.4,1.3-1.3,4.4-2.6,6.9c-3.1,5.9-5.1,6.5-5.4,6.6c-1.9-0.8-3.3-4.2-4-6c3.9-0.4,6.9-3.5,6.9-7.3v-1.4
		C204,91.6,205.7,91.9,207.4,92.3z M194.7,99.2c-3.8,0-6.9-2.9-6.9-6.6v-5.1c2.3,1,4.6,1.7,6.1,1.8c0.1,0,0.2,0,0.3,0
		c1.7,0,4.1-0.8,6.6-1.9l0.8-0.4c0,0,0,0,0.1,0v5.6C201.6,96.3,198.5,99.2,194.7,99.2z M214.5,67.4c0.2,0.1,0.3,0.3,0.4,0.5
		c0.2,0.7,0,1.9-0.6,2.9c-0.9,1.5-2.1,2.3-2.8,2.1c0.1-1.3,0.2-2.6,0.3-3.9C212.6,67.8,213.8,67.1,214.5,67.4z M173.9,70.9
		c-0.6-1.1-0.8-2.2-0.6-2.9c0.1-0.3,0.2-0.5,0.4-0.5c0.1,0,0.2-0.1,0.3-0.1c0.7,0,1.6,0.7,2.4,1.8c0.1,1.3,0.1,2.6,0.3,3.9
		C176.1,73.2,174.8,72.4,173.9,70.9z M176.6,67.6l-1.3-0.9c-0.3-1.1-2.5-10.1,0.9-14.6c1.3-1.6,3.1-2.5,5.7-2.4h0
		c0.2,0,0.3-0.1,0.4-0.3c0,0,0.5-1.9,5.8-2.5c9.1-1,24.1,0.5,25.6,9.1c1.2,6.8-1.1,10.6-2.1,11.6c-0.8-3.2-3.4-9.9-10.8-10.8
		c-3.5-0.4-6.2,0.2-8.7,0.7c-2.1,0.4-3.9,0.8-5.5,0.5c-2.9-0.6-4.6-3.6-4.6-3.7c-0.1-0.2-0.3-0.2-0.4-0.2c-0.2,0-0.3,0.2-0.3,0.4
		c0,0,0.1,3.7-1.3,6.9C178.8,64.1,177.2,66.6,176.6,67.6z M179.9,80.9c-1.9-2.7-2.5-8.1-2.6-12.9c0.6-0.9,2.2-3.5,3.5-6.4
		c1-2.2,1.2-4.6,1.3-6c0.8,1.1,2.3,2.6,4.4,3c1.8,0.4,3.7,0,5.9-0.5c2.4-0.5,5.1-1.1,8.4-0.7c7.2,0.8,9.5,7.7,10.2,10.6
		c0,0,0,0,0,0.1c-0.1,4.9-0.9,10.7-2.5,12.7c-3.3,4.1-10.7,7.8-14.3,7.8c-0.1,0-0.2,0-0.3,0C190.9,88.4,183.3,85.6,179.9,80.9z
		 M181.1,91.7c1.9-0.3,3.9-0.6,5.9-0.8v1.8c0,3.8,3,6.8,6.8,7.2c-1,2-2.7,5.2-3.9,5.6c-0.2,0.1-0.3,0-0.3,0
		c-5.1-2.7-8.1-11.7-8.7-13.7C180.9,91.8,181.1,91.8,181.1,91.7C181.1,91.7,181.1,91.7,181.1,91.7z M166.1,166.6
		c-0.2,3.2,0.4,6.1,0.4,6.1s-0.3,0.1-0.6,0.1c-0.5,0-1.2-0.3-1.7-1.6c-0.1-0.4-0.2-1.6-0.2-2.6l-0.8,1.9c0,0,0,0,0,0
		c-0.1,0-0.2,5-0.9,5.9c-0.5,0.6-0.9,0.7-1.3,0.7c-0.2,0-0.4-0.1-0.4-0.1l0-7.1l-0.1,0c-0.1,1.5-0.5,5.3-1.2,6.5
		c-0.4,0.6-0.8,0.8-1.2,0.8c-0.3,0-0.5-0.1-0.5-0.1l0.3-7.7l-0.1,0c-0.1,1.8-0.7,4.6-1.3,5.6c-0.4,0.6-0.8,0.8-1.2,0.8
		c-0.3,0-0.5-0.1-0.5-0.1l0.6-6.7l0,0c-0.4,1.6-1.1,3.9-1.5,4.5c-0.2,0.2-0.5,0.3-0.7,0.3c-0.4,0-0.8-0.2-0.8-0.2l1.4-5.2l4.2-6.6
		l6.4,0.6C165,163.9,166.1,166.1,166.1,166.6z M173,138.2c-1-11.8-1.6-25.4-1.3-27.1c0,0,0.1-0.1,0.1-0.1c0.2-0.2,0.4-0.5-1.8-3.9
		c-0.1-0.2-0.4-0.2-0.5-0.1c-0.2,0.1-0.2,0.4-0.1,0.5c0.7,1.1,1.5,2.5,1.7,3.1c-0.2,0.3-0.4,1.7,0.1,12.1c0.2,4.2,0.5,8.5,0.8,12.5
		l-6.2,26.6l-10.6-1l5.4-41.1c0.4-12.6,4.6-23.9,9.6-25.5c1.4-0.4,5.2-1.4,9.9-2.3c0.6,1.9,3.6,11.3,9.1,14.3c0.3,0.2,0.6,0.2,0.9,0
		c1.3-0.5,2.9-3.2,3.9-5.2l-0.4,45.9h-2.4c-0.6,0-1.2,0.4-1.5,0.9c-4.6-0.1-9.2-0.2-12.4-0.4C175.5,147.3,173.9,142,173,138.2z
		 M196.9,147.8c0.5,0,0.9,0.4,0.9,0.9v2.6c0,0.5-0.4,0.9-0.9,0.9h-5.7c-0.5,0-0.9-0.4-0.9-0.9v-2.6c0-0.2,0.1-0.4,0.2-0.6
		c0,0,0,0,0,0c0.2-0.2,0.4-0.2,0.6-0.2H196.9z M189.6,148.7v2.2c-7.8-0.2-13.2-0.8-13.3-0.8c-0.1,0-0.1,0-0.2,0.1
		c0.1-0.8,0.3-1.6,0.4-2.2c0.3,0.2,0.6,0.3,0.9,0.3C180.5,148.4,185,148.6,189.6,148.7z M176,150.7c0.1,0.1,0.1,0.1,0.2,0.1
		c0.1,0,1.9,0.2,4.8,0.4c0,1.6-0.7,3.2-1.8,4.2c-1.1,1-2.5,1.4-4.1,1.2c0,0,0,0-0.1,0C175.4,154.4,175.7,152.4,176,150.7z
		 M190.8,244.3c-1.6,5-6.5,10.1-8.9,10.1c-0.2,0-0.3,0-0.5-0.1c-2.3-0.7-2.3-5.1-0.6-10.5c0.4-1.3,0.9-2.5,1.5-3.6l9,0
		C191.4,241.4,191.3,242.7,190.8,244.3z M206.3,243.8c1.7,5.4,1.7,9.8-0.6,10.5c-0.1,0-0.3,0.1-0.5,0.1c-2.5,0-7.4-5-8.9-10.1
		c-0.5-1.6-0.6-2.9-0.5-4l9,0C205.3,241.3,205.8,242.5,206.3,243.8z M211.2,157.3c0.6,6.1,1,14.6,0.1,24.9c-1.1,12.1-5,57.2-5,57.2
		l-12.6,0c0-0.2-0.3-75.2-0.3-75.2c0.1,0,0.3,0,0.4,0c1,0,2-0.1,2.6-0.3c0.2-0.1,0.3-0.3,0.2-0.5c-0.1-0.2-0.3-0.3-0.5-0.2
		c-1.6,0.5-6.3,0-6.4,0c-0.2,0-0.4,0.1-0.4,0.3c0,0.2,0.1,0.4,0.3,0.4c0.1,0,1.4,0.2,2.9,0.2c0,0,0.2,75,0.2,75.2l-11.9,0
		c0,0-4.8-47.4-6.2-59.6c-0.9-8.3-0.5-16.4,0.2-22.5c0,0,0,0,0.1,0c0.2,0,0.5,0,0.7,0c1.5,0,2.9-0.5,4-1.5c1.2-1.1,2-2.9,2-4.7
		c2.2,0.1,4.8,0.3,7.9,0.3c0.2,0.7,0.8,1.2,1.6,1.2h5.7c0.8,0,1.4-0.5,1.6-1.2c1.8,0,3.7-0.1,5.7-0.2c0.1,1.7,0.8,3.4,2.1,4.5
		c1.1,1,2.5,1.5,4.2,1.5C210.7,157.4,210.9,157.4,211.2,157.3C211.2,157.3,211.2,157.3,211.2,157.3z M198.6,150.8v-2.1
		c3.7,0,8.4-0.1,10.3-0.5c0.3-0.1,0.6-0.2,0.9-0.4c0.1,0.6,0.3,1.4,0.5,2.4c0,0,0,0,0,0C206.2,150.6,202.3,150.8,198.6,150.8z
		 M211.1,156.6C211.1,156.6,211.1,156.6,211.1,156.6c-1.7,0.1-3.2-0.3-4.3-1.2c-1.1-1-1.8-2.4-1.9-4c1.7-0.1,3.5-0.2,5.3-0.4
		c0,0,0.1,0,0.1,0C210.6,152.4,210.9,154.3,211.1,156.6z M215.6,161.5l-3.1-17.9c0.1-0.1,0.1-0.1,0.1-0.2c0.7-7.7,1.4-15.2,1.9-20.7
		c0.8-9.5,0.7-11,0.5-11.4c0.2-0.5,1.1-1.7,1.8-2.7c0.1-0.2,0.1-0.4-0.1-0.5c-0.2-0.1-0.4-0.1-0.5,0.1c-2.3,3.1-2.1,3.3-1.9,3.6
		c0,0,0.1,0.1,0.1,0.1c0.2,1.7-0.8,14.2-2.5,31.1c-0.6,1.4-1.9,4.3-3.3,4.6c-1.6,0.3-5.5,0.5-10.3,0.5c-0.3-0.6-0.8-1-1.5-1h-2.5
		l0.4-46.3c0.8,2,2.3,5.2,4.3,6c0,0,0.1,0,0.2,0c0.8,0,3-1.2,6.1-7c1.4-2.6,2.3-5.8,2.7-7.1c4.6,1.2,9,2.9,12.1,4.8
		c2.6,1.5,6.5,10.2,5.8,23l1,40.4L215.6,161.5z M230.3,175.5c-0.3,0-0.5-0.1-0.7-0.3c-0.4-0.5-0.9-2.8-1.2-4.3l0,0l0.2,6.4
		c0,0-0.2,0.1-0.4,0.1c-0.4,0-0.9-0.1-1.2-0.8c-0.5-1-0.9-3.7-0.9-5.4h-0.1l-0.1,7.3c0,0-0.2,0.1-0.4,0.1c-0.4,0-0.9-0.1-1.2-0.8
		c-0.6-1.1-0.8-4.7-0.8-6.2h-0.1l-0.4,6.7c0,0-0.1,0-0.3,0c-0.3,0-0.8-0.1-1.2-0.8c-0.6-0.9-0.5-5.7-0.6-5.7c0,0,0,0,0,0l-0.7-1.8
		c-0.1,1-0.1,2.1-0.3,2.5c-0.5,1.2-1.2,1.4-1.6,1.4c-0.4,0-0.7-0.2-0.7-0.2s0.7-2.7,0.7-5.7c0-0.7,2.7-5.1,2.7-5.3
		c0-0.1-0.1-0.4-0.1-0.7l4.8-0.3v1l4.3,7.7l1.1,5C231,175.3,230.6,175.5,230.3,175.5z"/>
</g>
<circle class="st8" cx="135.4" cy="31.3" r="11.9"/>
<circle class="st8" cx="148.8" cy="31.3" r="11.9"/>
</svg>
