<?xml version="1.0" encoding="utf-8"?>
<!-- Generator: Adobe Illustrator 23.1.0, SVG Export Plug-In . SVG Version: 6.00 Build 0)  -->
<svg version="1.1" id="Слой_1" xmlns="http://www.w3.org/2000/svg" xmlns:xlink="http://www.w3.org/1999/xlink" x="0px" y="0px"
	 viewBox="0 0 283.5 283.5" style="enable-background:new 0 0 283.5 283.5;" xml:space="preserve">
<style type="text/css">
	.st0{fill:#FFDC4D;}
	.st1{fill:#F071A7;}
	.st2{fill:#FBC595;}
	.st3{fill:#F7F2A2;}
	.st4{fill:#E8B3D2;}
	.st5{fill:#231F20;}
	.st6{fill:none;stroke:#DFEF11;stroke-width:3;stroke-miterlimit:10;}
	.st7{fill:none;}
</style>
<g>
	<path class="st0" d="M85.6,53.7c0,0,3-0.7,7-0.4c4.4,0.2,11.7,3.5,15.7,8.4c8.3,10.2,9.8,20.3,5.1,27.4c-2.6,3.9-11.4,9.5-20.3,9.9
		c-7.4,0.3-2.5,0.8-9.4-0.3c-11.5-1.7-30.2-8.1-18.6-31.1C74.4,49.2,85.6,53.7,85.6,53.7z"/>
	<ellipse class="st1" cx="78.1" cy="248.2" rx="4.4" ry="7.9"/>
	<path class="st2" d="M80.4,241.7l0.7-11.7l-6,0.1l0.7,11.5c-1.1,1.4-1.7,3.5-1.7,4.9c0,2.3,1.6,4.2,4,4.2c2.3,0,4-2.2,4-4.4
		C81.9,244.8,81.3,243,80.4,241.7z"/>
	<path class="st1" d="M81.3,241.6h-6.6c-0.2,0-0.3-0.1-0.3-0.3v-1.4c0-0.2,0.1-0.3,0.3-0.3h6.6c0.2,0,0.3,0.1,0.3,0.3v1.4
		C81.6,241.5,81.5,241.6,81.3,241.6z"/>
	<ellipse class="st1" cx="97.8" cy="248.2" rx="4.4" ry="7.9"/>
	<path class="st2" d="M100.1,241.7l0.7-11.7l-6,0.1l0.7,11.5c-1.1,1.4-1.7,3.5-1.7,4.9c0,2.3,1.6,4.2,4,4.2c2.3,0,4-2.2,4-4.4
		C101.6,244.8,101.1,243,100.1,241.7z"/>
	<path class="st3" d="M84,236.2l-11.1-0.1c0,0-6.3-40.5-4.6-57.5c0.5-4.5,19.1,0.4,19.1,0.4L84,236.2z"/>
	<path class="st3" d="M92.7,236.2l11-0.1c0,0,4.8-39.8,3.1-56.9c-0.5-4.5-18.3,0.1-18.3,0.1L92.7,236.2z"/>
	<path class="st2" d="M49.8,165.5c0.2-0.3,2.6-3.2,3-3.2C55.1,151.4,64,121,64,121l7.2,5.1L57,163.4c0.7,1.6,0.1,9,1.8,9.9
		c0.2,0.1-2.5,2.2-3.4-3.4c-0.3,0-3.6,8.5-3.6,8.5c-1.1,1.6-1.9,1.2-1.5-0.5l2.2-6.4L49,179c-0.6,1.1-1.5,0.8-1.4-0.4l2.8-8.1
		l-0.1,0.1l-2.9,5.8c-0.6,1.5-2,1.5-1-1.4l2.2-5.3l-2.8,4.1c-0.2,0.3-0.6,0.6-0.9,0.4C44.5,174,43.7,173.8,49.8,165.5z"/>
	<path class="st2" d="M125.9,164.7c-0.2-0.3-2.6-3.2-3-3.2c-2.4-10.9-11.2-41.3-11.2-41.3l-7.2,5.1l14.3,37.4
		c-0.7,1.6-0.1,9-1.8,9.9c-0.2,0.1,2.5,2.2,3.4-3.4c0.3,0,3.6,8.5,3.6,8.5c1.1,1.6,1.9,1.2,1.5-0.5l-2.2-6.4l3.4,7.6
		c0.6,1.1,1.5,0.8,1.4-0.4l-2.8-8.1l0.1,0.1l2.9,5.8c0.6,1.5,2,1.5,1-1.4l-2.2-5.3l2.8,4.1c0.2,0.3,0.6,0.6,0.9,0.4
		C131.1,173.2,132,173,125.9,164.7z"/>
	<path class="st4" d="M116,121.6c0,0-5.9-10.8-10.7-15.4c-4-3.9-9.3-6.5-14-7c-6.4-0.4-8.7,0.6-10.3,1c-11.8,3-20.7,21.7-20.7,21.7
		l9.5,6.2L63,184.1c0,0,13.2,2.8,25.9,2.4c18.2-0.5,23.6-3,23.6-3l-5.8-55.1L116,121.6z"/>
	<circle class="st1" cx="68.1" cy="82.5" r="1.4"/>
	<circle class="st1" cx="109.4" cy="82.5" r="1.4"/>
	<path class="st2" d="M110.9,73.7c-1-0.3-2.1,0.5-2.9,1.9c-0.9-10-9.1-17.8-19.1-17.8C78.7,57.7,70,65,69.4,75.2
		c-0.8-1.2-1.8-1.9-2.7-1.6c-1.2,0.4-1.6,2.3-0.9,4.3c0.7,2,2.2,3.2,3.3,2.8c0.3-0.1,0.5-0.3,0.6-0.5c1.5,7.6,7.3,14,14.5,16
		c0,1.5,0.1,3.1,0.1,3.1c-1,0.4-2.5,0.6-3.8,1.1c1.4,3.1,4.9,5,8.4,5c3.6,0,6.7-1.5,8-4.7c-0.9-0.5-2.4-0.9-3.4-1.3
		c0-0.1,0.1-1.7,0.2-3.3c7.3-2,13-8.2,14.1-16c0.2,0.2,0.4,0.4,0.6,0.5c1.2,0.4,2.7-0.9,3.3-2.8C112.5,76,112.1,74.1,110.9,73.7z"/>
	<path class="st0" d="M85.2,53.6c0,0-4.7-3.2-12.1,2.7c-7.8,6.2-9.9,16.1-9.9,16.1s7,0.6,14.1-6.5C81.9,61.2,85.2,53.6,85.2,53.6z"
		/>
	<path class="st0" d="M88.5,63.4c10,6.4,21.9,9.4,21.9,9.4s3.7-9.5-8.6-17.3c-11-6.9-19.3-1.9-17.8,2.7
		C84.9,61.3,86.4,62.1,88.5,63.4z"/>
	<g>
		<path d="M86.6,82.3c0.2,0,0.4-0.2,0.4-0.4c0-0.7,0.8-1.3,1.7-1.3s1.7,0.6,1.7,1.3c0,0.2,0.2,0.4,0.4,0.4c0.2,0,0.4-0.2,0.4-0.4
			c0-1.2-1.1-2.1-2.6-2.1c-1.4,0-2.6,1-2.6,2.1C86.2,82.1,86.4,82.3,86.6,82.3z"/>
		<path d="M94,87.3c-1.2,1.7-3.1,2.7-5.2,2.7c-2,0-4-1-5.2-2.7c-0.1-0.2-0.4-0.2-0.6-0.1c-0.2,0.1-0.2,0.4-0.1,0.6
			c1.3,1.9,3.5,3,5.8,3s4.5-1.1,5.8-3c0.1-0.2,0.1-0.4-0.1-0.6C94.3,87,94.1,87.1,94,87.3z"/>
		<path d="M79.8,71.4c0.1,0,0.3-0.1,0.4-0.2c0.3-0.6,1-1,1.8-1.2c0.8-0.2,1.6-0.1,2.1,0.3c0.2,0.1,0.4,0.1,0.6-0.1
			c0.1-0.2,0.1-0.4-0.1-0.6c-0.7-0.5-1.8-0.6-2.8-0.4c-1,0.2-1.8,0.8-2.3,1.6c-0.1,0.2,0,0.4,0.2,0.5C79.6,71.3,79.7,71.4,79.8,71.4
			z"/>
		<path d="M93.6,70.2c0.6-0.4,1.4-0.4,2.1-0.2c0.8,0.2,1.4,0.7,1.7,1.3c0.1,0.1,0.2,0.2,0.4,0.2c0.1,0,0.1,0,0.2,0
			c0.2-0.1,0.3-0.4,0.2-0.5c-0.4-0.8-1.2-1.4-2.2-1.7c-1-0.3-2-0.1-2.8,0.3c-0.2,0.1-0.2,0.4-0.1,0.6C93.1,70.3,93.4,70.3,93.6,70.2
			z"/>
		<path d="M84.7,75.6c0-0.4,0.2-1-0.3-1.9c-0.2-0.3-1-0.7-1.3-0.7c-0.7,0-1.4,0.4-1.8,0.7c-1.2,0.7-2.2-0.2-2.5-0.4
			c0,0.3,0.1,0.6,0.2,0.9c0.1,0.3,0.4,0.6,0.8,0.7c0.4,0.2,0.8,0.2,1.1,0.1c0.2-0.1,0.5-0.1,0.7-0.2c0,0.2-0.1,0.4-0.1,0.6
			c0,1.2,0.7,2.1,1.7,2.1S84.6,76.7,84.7,75.6z"/>
		<path d="M96.3,73.8c-0.5-0.3-1.1-0.7-1.8-0.7c-0.4,0-1.1,0.3-1.3,0.7c-0.5,0.9-0.3,1.4-0.3,1.9c0.1,1.1,0.7,2,1.6,2
			s1.7-0.9,1.7-2.1c0-0.2,0-0.4-0.1-0.6c0.2,0.1,0.4,0.2,0.7,0.2c0.3,0.1,0.7,0.1,1.1-0.1c0.4-0.2,0.6-0.4,0.8-0.7
			c0.1-0.3,0.2-0.6,0.2-0.9C98.6,73.6,97.5,74.5,96.3,73.8z"/>
	</g>
	<path class="st1" d="M101,241.6h-6.6c-0.2,0-0.3-0.1-0.3-0.3v-1.4c0-0.2,0.1-0.3,0.3-0.3h6.6c0.2,0,0.3,0.1,0.3,0.3v1.4
		C101.3,241.5,101.2,241.6,101,241.6z"/>
	<path class="st5" d="M126.6,164.2c-0.1-0.2-0.8-1-1.5-1.8c-0.7-0.8-1.2-1.3-1.5-1.5c-1.9-8.7-7.6-28.7-10-37.2l2.6-1.9
		c0.2-0.1,0.2-0.3,0.1-0.5c-0.2-0.4-6-10.9-10.7-15.5c-2.5-2.5-5.7-4.4-9-5.7c-0.7-0.3-1.6-0.6-2.4-0.9c-0.1,0-0.2-0.1-0.3-0.1v0
		c8.9-0.7,17.2-6.3,19.7-10c4.8-7.2,3.1-17.1-4.4-26.8c-1.4-2.4-3.6-4.9-7.4-7.3c-7-4.4-13.3-4.1-16.4-1.8c0,0,0-0.1,0-0.1
		c-0.2-0.1-5-3.3-12.5,2.7c-4.4,3.5-7,8.2-8.5,11.6c-0.8,1.9-2,5.3-2.3,6.4c-1.6,5.3-1.4,9.9,0.6,13.6C66.5,95,76.2,97.9,83.6,99
		c0.1,0,0.1,0,0.2,0c-0.9,0.2-1.6,0.4-2.2,0.5c-0.2,0.1-0.5,0.1-0.7,0.2c-11.8,3-20.6,21.2-21,21.9c-0.1,0.2,0,0.4,0.1,0.5l2.3,1.5
		c-2.2,7.8-8.3,29-10.3,38c-0.3,0.2-0.7,0.7-1.5,1.5c-0.7,0.8-1.4,1.6-1.5,1.8c-5.1,6.9-5.4,8.3-5.3,9c0.1,0.5,0.5,0.7,0.6,0.8
		c0.2,0.1,0.5,0.2,0.7,0.2c0.2,0,0.3,0,0.4-0.1c-0.4,1.3-0.4,2.2,0,2.7c0.2,0.3,0.6,0.5,0.9,0.5c0.2,0,0.3,0,0.5-0.1l-0.1,0.4
		c0,0.1,0,0.1,0,0.2c-0.1,0.6,0.1,1.2,0.4,1.5c0.2,0.3,0.6,0.4,1,0.4c0.6,0,1.1-0.4,1.5-1c0,0,0,0.1,0.1,0.1
		c0.2,0.3,0.5,0.4,0.9,0.4c0.6,0,1.2-0.5,1.8-1.4c0,0,0.1-0.1,0.1-0.2c0.9-2.3,1.9-4.8,2.6-6.5c0.7,1.9,1.8,2.4,2.6,2.4
		c0.8,0,1.7-0.5,1.8-1.1c0.1-0.4-0.1-0.8-0.4-0.9c0,0-0.4-0.2-0.6-1.8c-0.2-1.1-0.3-2.6-0.3-3.8c-0.1-1.7-0.2-2.8-0.4-3.5l10.6-27.8
		L62.6,184c0,0.2,0.1,0.4,0.3,0.4c0,0,1.9,0.4,4.8,0.8c-0.1,18.9,4.8,50.5,4.9,50.9c0,0.2,0.2,0.3,0.4,0.3l2.1,0l0.2,2.7
		c-0.7,0.1-1.2,0.7-1.2,1.4c0,0.6,0.4,1.1,1,1.3c-1,1.5-1.7,3.7-1.7,6.3c0,4.7,2.1,8.3,4.8,8.3c2.7,0,4.8-3.7,4.8-8.3
		c0-2.6-0.6-4.8-1.6-6.3c0.5-0.2,0.8-0.7,0.8-1.3c0-0.7-0.5-1.2-1.1-1.3l0.2-2.7l2.9,0c0,0,0,0,0,0c0.2,0,0.4-0.2,0.4-0.4l3-49.3
		c0.4,0,0.8,0,1.2,0l3.7,49.3c0,0.2,0.2,0.4,0.4,0.4c0,0,0,0,0,0l2,0l0.2,2.6c-0.7,0.1-1.2,0.7-1.2,1.4c0,0.6,0.4,1.1,1,1.3
		c-1,1.5-1.7,3.7-1.7,6.3c0,4.7,2.1,8.3,4.8,8.3s4.8-3.7,4.8-8.3c0-2.6-0.7-4.8-1.7-6.4c0.5-0.2,0.9-0.7,0.9-1.3
		c0-0.7-0.5-1.2-1.1-1.3l0.2-2.7l2.9,0c0.2,0,0.4-0.2,0.4-0.4c0-0.4,3.8-32.1,3.4-50.9c3.6-0.7,5-1.3,5.1-1.3
		c0.2-0.1,0.3-0.2,0.2-0.4l-4.9-46.8l9.9,26c-0.2,0.7-0.3,1.9-0.4,3.5c-0.1,1.3-0.1,2.7-0.3,3.8c-0.3,1.6-0.6,1.8-0.6,1.8
		c-0.3,0.2-0.5,0.6-0.4,0.9c0.1,0.6,1,1.1,1.8,1.1c0.9,0,1.9-0.5,2.6-2.4c0.7,1.6,1.7,4.1,2.6,6.5c0,0.1,0,0.1,0.1,0.2
		c0.6,0.9,1.2,1.4,1.8,1.4c0.4,0,0.7-0.2,0.9-0.4c0,0,0-0.1,0.1-0.1c0.4,0.6,0.9,1,1.5,1c0.4,0,0.7-0.2,1-0.4
		c0.3-0.4,0.5-0.9,0.4-1.5c0-0.1,0-0.1,0-0.2l-0.1-0.4c0.2,0.1,0.3,0.1,0.5,0.1c0.4,0,0.7-0.2,0.9-0.5c0.4-0.5,0.4-1.4,0-2.7
		c0.1,0.1,0.3,0.1,0.4,0.1c0.2,0,0.5-0.1,0.7-0.2c0.1-0.1,0.5-0.3,0.6-0.8C132,172.5,131.7,171.2,126.6,164.2z M88.9,96.9
		c-10.6,0-19.5-9.7-19.5-20.6c0-1.8,0.3-3.4,0.7-5c2.3-1,4.9-2.5,7.6-5.2c2.4-2.4,4.4-5.6,5.8-8.2c0,0.1,0,0.2,0,0.3
		c1,3.1,2.4,4,4.3,5.1l0.5,0.3c7.1,4.5,15.1,7.4,19.2,8.6c0.4,1.6,0.7,3.2,0.7,5C108.1,88.1,99.5,96.9,88.9,96.9z M110.8,66
		c5.3,8.4,6.3,16.7,2.2,22.8c-2.4,3.7-10.7,8.9-19,9.6c0-0.4,0-0.9,0.1-1.4c6.6-1.8,11.8-7,13.8-13.6c0.3,0.5,0.9,0.8,1.5,0.8
		c1,0,1.8-0.8,1.8-1.8c0-0.7-0.5-1.4-1.1-1.7c0.8-0.5,1.6-1.5,2.1-2.8c0.8-2.2,0.2-4.3-1.2-4.8c-0.8-0.3-1.7,0.1-2.4,0.8
		c-0.1-0.5-0.2-1-0.3-1.4c1.2,0.3,1.9,0.5,1.9,0.5c0,0,0.1,0,0.1,0c0.2,0,0.3-0.1,0.4-0.3C110.7,72.8,111.8,69.9,110.8,66z
		 M108.8,75.1c0.5-0.7,1.1-1.1,1.7-1.1c0.1,0,0.2,0,0.3,0.1c0.9,0.3,1.3,2,0.7,3.8c-0.6,1.7-1.8,2.8-2.8,2.6c0.1-1,0.3-2,0.3-3.1
		C108.9,76.5,108.9,75.8,108.8,75.1z M109.4,81.5c0.6,0,1,0.5,1,1c0,0.6-0.5,1-1,1c-0.6,0-1-0.5-1-1
		C108.4,81.9,108.9,81.5,109.4,81.5z M85.8,54.1c1.3-1,3.2-1.6,5.5-1.6c2.9,0,6.4,1,10.2,3.3c10.7,6.8,9.1,14.7,8.5,16.5
		c-2.1-0.6-12.5-3.5-21.4-9.2l-0.5-0.3c-1.7-1.1-3-1.9-3.9-4.7C83.8,56.6,84.4,55.2,85.8,54.1z M73.4,56.6c3.5-2.8,6.3-3.5,8.3-3.5
		c1.5,0,2.5,0.4,3,0.6c-0.1,0.1-0.2,0.3-0.3,0.6c-0.5,0.6-0.9,1.3-1,2c0,0,0,0,0-0.1c-1.4,2.6-3.7,6.5-6.4,9.3
		c-5.8,5.9-11.7,6.4-13.3,6.4C63.8,71.8,66.8,61.9,73.4,56.6z M83.8,98.2c-7.3-1.1-16.7-3.9-20.3-11c-2-3.9-2-8.8,0-14.5
		c0.1,0,0.2,0,0.4,0c0.9,0,2.9-0.1,5.4-1c-0.2,0.7-0.3,1.4-0.4,2.1c-0.7-0.6-1.5-0.8-2.2-0.6c-0.7,0.2-1.2,0.9-1.4,1.8
		C64.9,76,65,77,65.4,78.1c0.4,1.3,1.2,2.3,2.1,2.8c-0.6,0.3-1.1,0.9-1.1,1.7c0,1,0.8,1.8,1.8,1.8c0.7,0,1.3-0.4,1.6-1
		c1,2.9,2.6,5.7,4.8,8c2.7,2.8,5.9,4.8,9.3,5.7c0,0.5,0,0.9,0,1.3C83.8,98.3,83.8,98.2,83.8,98.2z M68.9,80.3
		c-0.9,0.3-2.2-0.9-2.8-2.6c-0.3-0.9-0.4-1.8-0.2-2.5c0.1-0.7,0.5-1.1,0.9-1.3c0.1,0,0.2-0.1,0.3-0.1c0.5,0,1,0.4,1.5,0.9
		c0,0.5-0.1,1-0.1,1.5C68.5,77.7,68.7,79,68.9,80.3z M69.1,82.5c0,0.6-0.5,1-1,1c-0.6,0-1-0.5-1-1c0-0.6,0.5-1,1-1
		C68.7,81.5,69.1,81.9,69.1,82.5z M82.8,100.2c0.6-0.2,1.2-0.3,1.7-0.5c0.2-0.1,0.3-0.2,0.3-0.4c0,0,0-1.7-0.1-2.1
		c1.4,0.3,2.8,0.5,4.2,0.5c1.5,0,3-0.2,4.4-0.5c0,0.4,0,0.7,0,1c0,0.1-0.1,1.3-0.1,1.3c0,0.2,0.1,0.4,0.3,0.4
		c0.2,0.1,0.4,0.1,0.6,0.2c0.8,0.2,1.7,0.5,2.4,0.9c-1.3,2.7-3.9,4.1-7.5,4.1c-3.3,0-6.5-1.8-7.9-4.4
		C81.6,100.5,82.2,100.4,82.8,100.2z M57,163.4c0.7,1.6,0.1,9,1.8,9.9c0.1,0-0.4,0.5-1,0.5c-0.8,0-1.9-0.7-2.4-3.9
		c-0.3,0-3.6,8.5-3.6,8.5c-0.5,0.7-0.9,1-1.2,1c-0.4,0-0.6-0.5-0.4-1.5l2.2-6.4L49,179c-0.3,0.5-0.6,0.7-0.8,0.7
		c-0.4,0-0.6-0.4-0.5-1.1l2.8-8.1l-0.1,0.1l-2.9,5.8c-0.3,0.6-0.7,1-1,1c-0.4,0-0.6-0.7-0.1-2.4l2.2-5.3l-2.8,4.1
		c-0.2,0.2-0.4,0.4-0.6,0.4c-0.1,0-0.2,0-0.3-0.1c-0.3-0.2-1.2-0.4,4.9-8.7c0.2-0.3,2.6-3.2,3-3.2c1.9-8.7,7.9-29.9,10.3-38.1
		l6.3,4.1l-0.5,4L57,163.4z M75.8,236.5l4.5,0l-0.2,2.6c0,0,0,0,0,0H76L75.8,236.5z M80.1,242c0.8,1.2,1.3,2.8,1.3,4.2
		c0,1.9-1.4,4-3.6,4c-2,0-3.6-1.6-3.6-3.8c0-1,0.4-2.5,1.1-3.8c0.1-0.2,0.3-0.4,0.4-0.6H80.1z M78.1,255.7c-2.1,0-3.8-3.2-3.9-7.1
		c0.7,1.4,2.1,2.4,3.8,2.4c2,0,3.5-1.4,4.1-3.1c0,0.1,0,0.2,0,0.3C82,252.3,80.2,255.7,78.1,255.7z M81.2,240.6
		c0,0.3-0.3,0.6-0.6,0.6h-5.1l-0.3,0v0c-0.3-0.1-0.5-0.3-0.5-0.6c0-0.3,0.3-0.6,0.6-0.6h5.2C80.9,240,81.2,240.3,81.2,240.6z
		 M83.7,235.8l-10.4-0.1c-0.5-3.5-4.8-32.5-4.8-50.3c4.5,0.7,11.3,1.5,18,1.5c0,0,0.1,0,0.1,0L83.7,235.8z M101.7,248.2
		c0,4.1-1.8,7.5-4,7.5c-2.1,0-3.8-3.2-3.9-7.1c0.7,1.4,2.1,2.4,3.8,2.4c2,0,3.5-1.4,4.1-3.1C101.7,248,101.7,248.1,101.7,248.2z
		 M101.2,246.2c0,1.9-1.4,4-3.6,4c-2,0-3.6-1.6-3.6-3.8c0-1.1,0.5-2.8,1.3-4.1c0.1-0.1,0.2-0.2,0.3-0.4h4.2
		C100.6,243.1,101.2,244.9,101.2,246.2z M101,240.6c0,0.3-0.3,0.6-0.6,0.6h0c0,0,0,0,0,0c0,0,0,0,0,0h-5.2c-0.3,0-0.6-0.3-0.6-0.6
		c0-0.3,0.3-0.6,0.6-0.6h5.2C100.7,240,101,240.2,101,240.6z M95.5,236.6l4.5,0l-0.1,2.6h-4.2L95.5,236.6z M103.3,235.7l-10.3,0.1
		l-3.6-48.9c8.2-0.3,13.7-0.9,17.3-1.5C107.1,203.1,103.8,232.2,103.3,235.7z M112,183.3c-1.3,0.5-7.4,2.3-23.2,2.8
		c-11.3,0.3-23.2-1.9-25.4-2.3l6.7-55.4c0.1-0.6,0.9-6.6,1.6-10.5c0-0.2-0.1-0.4-0.3-0.5c-0.2,0-0.4,0.1-0.5,0.3
		c-0.6,3.3-1.2,7.9-1.5,9.8l-8.6-5.7c1.2-2.4,9.2-17.6,19.5-20.9c1.5,3,5,5,8.7,5c3.9,0,6.9-1.7,8.2-4.7c2.8,1.3,5.6,3.1,7.8,5.3
		c4.2,4.1,9.4,13.2,10.4,15l-8.6,6.3c-0.3-1.9-1.1-6.3-1.9-9.9c0-0.2-0.3-0.4-0.5-0.3c-0.2,0-0.4,0.3-0.3,0.5c0.8,3.5,1.7,8,2,9.9
		c0.1,0.6,0.3,2.6,0.3,2.6L112,183.3z M130.8,173.4c-0.1,0.1-0.2,0.1-0.3,0.1c-0.2,0-0.5-0.2-0.6-0.4l-2.8-4.1l2.2,5.3
		c0.6,1.7,0.4,2.4-0.1,2.4c-0.3,0-0.7-0.4-1-1l-2.9-5.8l-0.1-0.1l2.8,8.1c0.1,0.7-0.2,1.1-0.5,1.1c-0.3,0-0.6-0.2-0.8-0.7l-3.4-7.6
		l2.2,6.4c0.2,0.9,0,1.5-0.4,1.5c-0.3,0-0.7-0.3-1.2-1c0,0-3.3-8.5-3.6-8.5c-0.5,3.2-1.6,3.9-2.4,3.9c-0.6,0-1.1-0.4-1-0.5
		c1.8-0.9,1.1-8.2,1.8-9.9l-11.1-29.1l-0.5-4.9l5.8-4.3c2.5,8.7,8.2,28.7,10,37.1c0.4,0.1,2.8,3,3,3.2
		C132,173,131.2,173.2,130.8,173.4z"/>
</g>
<circle class="st6" cx="135.4" cy="31.3" r="11.9"/>
<circle class="st6" cx="148.8" cy="31.3" r="11.9"/>
<g>
	<path class="st7" d="M228.8,163.5l-1-40.4c0.7-12.8-3.2-21.5-5.8-23c-6.1-3.7-17-6.7-25.7-6.8c-9.7-0.2-21.6,2.9-24.3,3.7
		c-5,1.5-9.2,12.8-9.6,25.5l-5.4,41.1l10.6,1l6.4-27.4c0,0,2.3,12.9,5.3,13.1c8.7,0.6,27.4,0.8,31.3,0c1.8-0.4,3.6-5.4,3.6-5.4
		l3.3,19.4L228.8,163.5z"/>
	<path class="st7" d="M189.6,89.3v6.2c0,3.6,3.1,6.6,6.9,6.6s6.9-2.9,6.9-6.6v-6.2H189.6z"/>
	<path class="st7" d="M213.2,70.6c0,4.6-0.8,11.2-2.6,13.5c-3.5,4.4-11.3,8.1-14.8,7.9c-3.3-0.2-11-3.3-14.3-7.9
		c-2.4-3.3-2.7-10.6-2.7-15.1c0-10.8,7.6-16.6,17.6-16.6S213.2,59.8,213.2,70.6z"/>
	<g>
		<path d="M194.5,78.7c0.1,0.2,0.4,0.5,1,0.5h1.7c0.2,0,0.4-0.2,0.4-0.4c0-0.2-0.2-0.4-0.4-0.4h-1.7c-0.3,0-0.4-0.1-0.4-0.1
			c-0.1-0.1-0.2-0.5,0.5-2c0.9-1.9,0.4-3.2,0.4-3.3c-0.1-0.2-0.3-0.3-0.5-0.2c-0.2,0.1-0.3,0.3-0.2,0.5c0,0,0.4,1.1-0.4,2.7
			C194.2,77.3,194.1,78.1,194.5,78.7z"/>
		<path d="M199.4,82.8c-3.5,2.8-6.7,0.1-6.8,0c-0.2-0.1-0.4-0.1-0.5,0c-0.1,0.2-0.1,0.4,0,0.5c0,0,1.7,1.4,4,1.4
			c1.2,0,2.5-0.4,3.8-1.4c0.2-0.1,0.2-0.4,0.1-0.5C199.8,82.7,199.5,82.7,199.4,82.8z"/>
		<path d="M185.8,68.5c0,0,2.8-1.7,6.1,0c0.1,0,0.1,0,0.2,0c0.1,0,0.3-0.1,0.3-0.2c0.1-0.2,0-0.4-0.2-0.5c-3.7-1.9-6.7-0.1-6.8,0
			c-0.2,0.1-0.2,0.3-0.1,0.5C185.4,68.6,185.6,68.6,185.8,68.5z"/>
		<path d="M200.1,68.5c0,0,2.8-1.7,6.1,0c0.1,0,0.1,0,0.2,0c0.1,0,0.3-0.1,0.3-0.2c0.1-0.2,0-0.4-0.2-0.5c-3.7-1.9-6.7-0.1-6.8,0
			c-0.2,0.1-0.2,0.3-0.1,0.5C199.6,68.6,199.9,68.6,200.1,68.5z"/>
		<path d="M208.1,69.4h-9.5c-0.2,0-0.4,0.2-0.4,0.4v1.3c0,0.2,0,0.3,0,0.5c-2-0.9-3.9-0.4-4.8,0c0-0.2,0-0.3,0-0.5v-1.3
			c0-0.2-0.2-0.4-0.4-0.4h-9.5c-0.2,0-0.4,0.2-0.4,0.4v1.3c0,3.1,2.3,5.7,5.1,5.7c2.4,0,4.4-1.8,5-4.3c0.2-0.1,2.7-1.3,5,0
			c0,0,0,0,0.1,0c0.6,2.5,2.6,4.3,4.9,4.3c2.8,0,5.1-2.5,5.1-5.7v-1.3C208.5,69.6,208.4,69.4,208.1,69.4z M192.8,71.1
			c0,2.7-1.9,4.9-4.3,4.9c-2.4,0-4.3-2.2-4.3-4.9v-0.9h8.7V71.1z M207.8,71.1c0,2.7-1.9,4.9-4.3,4.9c-2.4,0-4.3-2.2-4.3-4.9v-0.9
			h8.7V71.1z"/>
		<path d="M189.4,73.7c0.6,0,1.1-0.6,1.1-1.3c0-0.7-0.5-1.3-1.1-1.3c-0.6,0-1.1,0.6-1.1,1.3C188.3,73.1,188.8,73.7,189.4,73.7z"/>
		<path d="M203.7,73.7c0.6,0,1.1-0.6,1.1-1.3c0-0.7-0.5-1.3-1.1-1.3s-1.1,0.6-1.1,1.3C202.6,73.1,203.1,73.7,203.7,73.7z"/>
	</g>
	<path d="M193.5,112.9C193.5,112.9,193.4,112.9,193.5,112.9c-0.4,0-0.7-0.2-1-0.4c-0.3-0.3-0.4-0.6-0.4-1c0-0.4,0.2-0.7,0.4-1
		c0.3-0.3,0.6-0.4,1-0.4c0.4,0,0.7,0.2,1,0.4c0.3,0.3,0.4,0.6,0.4,1c0,0.4-0.2,0.7-0.4,1C194.2,112.8,193.8,112.9,193.5,112.9z
		 M193.5,110.8c-0.2,0-0.3,0.1-0.5,0.2c-0.1,0.1-0.2,0.3-0.2,0.5c0,0.2,0.1,0.3,0.2,0.5c0.1,0.1,0.3,0.2,0.5,0.2
		c0.2,0,0.3-0.1,0.5-0.2c0.1-0.1,0.2-0.3,0.2-0.5c0-0.2-0.1-0.3-0.2-0.5C193.8,110.9,193.6,110.8,193.5,110.8
		C193.5,110.8,193.5,110.8,193.5,110.8z"/>
	<path d="M193.4,121.1C193.4,121.1,193.4,121.1,193.4,121.1c-0.4,0-0.7-0.2-1-0.4c-0.3-0.3-0.4-0.6-0.4-1c0-0.4,0.2-0.7,0.4-1
		c0.3-0.3,0.6-0.4,1-0.4c0.4,0,0.7,0.2,1,0.4c0.3,0.3,0.4,0.6,0.4,1l-0.4,0l0.4,0c0,0.4-0.2,0.7-0.4,1
		C194.1,121,193.8,121.1,193.4,121.1z M193.4,119.1c-0.2,0-0.3,0.1-0.5,0.2c-0.1,0.1-0.2,0.3-0.2,0.5c0,0.2,0.1,0.3,0.2,0.5
		c0.1,0.1,0.3,0.2,0.5,0.2c0.2,0,0.3-0.1,0.5-0.2c0.1-0.1,0.2-0.3,0.2-0.5s-0.1-0.3-0.2-0.5C193.7,119.1,193.6,119.1,193.4,119.1
		C193.4,119.1,193.4,119.1,193.4,119.1z"/>
	<path d="M193.4,129.3C193.4,129.3,193.4,129.3,193.4,129.3c-0.4,0-0.7-0.2-1-0.4c-0.3-0.3-0.4-0.6-0.4-1c0-0.4,0.2-0.7,0.4-1
		c0.3-0.3,0.6-0.4,1-0.4c0,0,0,0,0,0c0.4,0,0.7,0.2,1,0.4c0.3,0.3,0.4,0.6,0.4,1C194.8,128.7,194.1,129.3,193.4,129.3z M193.4,127.3
		c-0.2,0-0.3,0.1-0.5,0.2c-0.1,0.1-0.2,0.3-0.2,0.5c0,0.2,0.1,0.3,0.2,0.5c0.1,0.1,0.3,0.2,0.5,0.2c0,0,0,0,0,0
		c0.4,0,0.6-0.3,0.6-0.6c0-0.2-0.1-0.3-0.2-0.5C193.7,127.3,193.5,127.3,193.4,127.3C193.4,127.3,193.4,127.3,193.4,127.3z"/>
	<path d="M193.3,137.5C193.3,137.5,193.3,137.5,193.3,137.5c-0.4,0-0.7-0.2-1-0.4c-0.3-0.3-0.4-0.6-0.4-1c0-0.4,0.2-0.7,0.4-1
		c0.3-0.3,0.6-0.4,1-0.4c0,0,0,0,0,0c0.4,0,0.7,0.2,1,0.4c0.3,0.3,0.4,0.6,0.4,1s-0.2,0.7-0.4,1C194,137.4,193.7,137.5,193.3,137.5z
		 M193.3,135.5c-0.2,0-0.3,0.1-0.5,0.2c-0.1,0.1-0.2,0.3-0.2,0.5c0,0.2,0.1,0.3,0.2,0.5c0.1,0.1,0.3,0.2,0.5,0.2
		c0.2,0,0.3-0.1,0.5-0.2c0.1-0.1,0.2-0.3,0.2-0.5c0-0.2-0.1-0.3-0.2-0.5C193.6,135.6,193.5,135.5,193.3,135.5
		C193.3,135.5,193.3,135.5,193.3,135.5z"/>
	<path d="M193.3,145.8C193.3,145.8,193.3,145.8,193.3,145.8c-0.4,0-0.7-0.2-1-0.4c-0.3-0.3-0.4-0.6-0.4-1c0-0.4,0.2-0.7,0.4-1
		c0.3-0.3,0.6-0.4,1-0.4c0,0,0,0,0,0c0.4,0,0.7,0.2,1,0.4c0.3,0.3,0.4,0.6,0.4,1c0,0.4-0.2,0.7-0.4,1
		C194,145.6,193.6,145.8,193.3,145.8z M193.3,143.7c-0.2,0-0.3,0.1-0.5,0.2c-0.1,0.1-0.2,0.3-0.2,0.5c0,0.2,0.1,0.3,0.2,0.5
		c0.1,0.1,0.3,0.2,0.5,0.2c0.2,0,0.3-0.1,0.5-0.2c0.1-0.1,0.2-0.3,0.2-0.5c0-0.2-0.1-0.3-0.2-0.5
		C193.6,143.8,193.4,143.7,193.3,143.7C193.3,143.7,193.3,143.7,193.3,143.7z"/>
	<path class="st7" d="M177.1,69.8c-0.1-0.4-4.6-17.9,6.8-17.6c0,0,0.4-2.2,6-2.8c8.6-1,24,0.4,25.6,9.4c1.5,8.6-2.6,12.7-2.7,12.3
		c-0.1-0.4-1.8-10-10.4-11.1c-6.2-0.7-10.3,1.9-14,1.2c-3-0.6-4.8-3.9-4.8-3.9s0.1,3.7-1.3,7.1c-1.5,3.5-3.6,6.7-3.6,6.7L177.1,69.8
		z"/>
	<path class="st5" d="M232.4,173c0-0.1,0-0.1-0.1-0.2l-4.2-7.5v-0.9l0.6,0c0.4,0,0.7-0.4,0.7-0.8l-1-40.4
		c0.7-12.6-3.1-21.9-6.1-23.7c-4.5-2.7-11.5-5-18.3-6.1v-3.9c2.6-1.4,5.2-3.3,6.7-5.3c1.1-1.4,1.9-4.3,2.3-7.5
		c0.1,0,0.2,0.1,0.3,0.1c1.1,0,2.5-1,3.4-2.6c0.7-1.3,1-2.6,0.7-3.5c-0.2-0.5-0.4-0.8-0.8-1c-0.5-0.3-1.2-0.1-1.9,0.2
		c1.2-1.9,2.6-5.6,1.5-11.2c-1.7-9.1-17.1-10.8-26.5-9.7c-4.8,0.5-6,2.1-6.4,2.8c-2.7,0-4.7,0.9-6.1,2.7c-3.5,4.7-1.4,13.7-1.1,15.1
		c-0.4-0.1-0.8-0.1-1.1,0.1c-0.4,0.2-0.7,0.5-0.8,1c-0.3,0.9,0,2.3,0.7,3.5c0.9,1.6,2.3,2.6,3.4,2.6c0.1,0,0.2,0,0.3-0.1
		c0.4,3,1.1,5.8,2.4,7.5c1.7,2.3,4.6,4.3,7.4,5.8l0.3,0.2v2.9c-2.1,0.2-4.2,0.6-6.2,0.9c0,0,0,0,0,0c-0.2,0-0.4,0.1-0.5,0.1
		c0,0,0,0,0,0c-4.7,0.8-8.6,1.9-10.3,2.4c-5.3,1.6-9.7,12.9-10.2,26.1l-5.4,41.1c0,0.2,0,0.4,0.2,0.6c0.1,0.2,0.3,0.3,0.5,0.3
		l1.9,0.2l-3.9,6.3c0,0.1-0.1,0.1-0.1,0.2l-1.4,5.2c-0.1,0.3,0.1,0.7,0.4,0.9c0.1,0,0.6,0.3,1.1,0.3c0.4,0,0.7-0.1,1-0.3l-0.1,1.4
		c0,0.3,0.2,0.7,0.5,0.8c0.1,0,0.4,0.2,0.8,0.2c0.6,0,1.2-0.2,1.6-0.7l0,1.2c0,0.3,0.2,0.6,0.5,0.7c0.1,0,0.4,0.2,0.8,0.2
		c0.7,0,1.3-0.3,1.7-0.9c0,0.3,0.2,0.6,0.5,0.7c0.1,0,0.3,0.1,0.6,0.1c0.4,0,1.2-0.1,1.9-1c0.5-0.7,0.7-2.2,0.9-4.7
		c0.7,1.2,1.6,1.4,2.1,1.4c0.5,0,0.9-0.2,1-0.2c0.3-0.2,0.5-0.5,0.4-0.8c0,0-0.6-2.8-0.4-5.9c0-0.6-0.4-1.6-1.7-4.2l0.6,0.1
		c0,0,0,0,0.1,0c0.4,0,0.7-0.2,0.8-0.6l5.6-24c0.2,1,0.5,2,0.8,3.1c1.1,3.7,2.1,5.5,2.9,6.3c-0.9,4.6-3.4,18.2-1.8,32.6
		c1.3,12.1,6.1,59.1,6.2,59.6c0,0.4,0.4,0.7,0.8,0.7h0l0.4,0c-0.5,1-0.9,2.1-1.3,3.3c-2,6.3-1.6,10.6,1.1,11.5
		c0.2,0.1,0.4,0.1,0.7,0.1c3,0,8.1-5.6,9.7-10.6c0.5-1.6,0.6-3,0.6-4.3l2.9,0c-0.1,1.2,0,2.6,0.6,4.3c1.6,5.1,6.6,10.6,9.7,10.6
		c0.2,0,0.5,0,0.7-0.1c2.7-0.8,3.1-5.1,1.1-11.5c-0.4-1.2-0.9-2.3-1.4-3.4l0.6,0c0.4,0,0.7-0.3,0.8-0.7c0-0.5,4-45.3,5-57.2
		c1.6-18.7-0.9-31.5-1.7-35.1c0.6-0.7,1.2-1.6,1.6-2.4l2.9,16.9c0.1,0.4,0.4,0.6,0.8,0.6c0,0,0,0,0.1,0l4.4-0.3
		c0,0.2,0.1,0.5,0.1,0.6c-0.1,0.3-0.5,0.9-0.8,1.4c-1.4,2.4-1.9,3.4-1.9,4c0,2.9-0.7,5.5-0.7,5.5c-0.1,0.3,0.1,0.7,0.3,0.9
		c0.1,0,0.5,0.3,1.1,0.3c0.5,0,1.3-0.2,1.9-1.1c0.1,2.3,0.2,3.7,0.7,4.4c0.6,1,1.4,1.1,1.9,1.1c0.3,0,0.5-0.1,0.5-0.1
		c0.3-0.1,0.4-0.3,0.5-0.5c0.4,0.6,1,0.9,1.7,0.9c0.4,0,0.6-0.1,0.7-0.1c0.3-0.1,0.5-0.4,0.5-0.7l0-1.1c0.4,0.4,0.9,0.7,1.5,0.7
		c0.4,0,0.6-0.1,0.7-0.1c0.3-0.1,0.5-0.4,0.5-0.8l0-1.3c0.3,0.2,0.6,0.3,1,0.3c0.5,0,0.9-0.2,1-0.2c0.3-0.2,0.5-0.5,0.4-0.9
		L232.4,173z M209.2,95.1c-0.4,1.3-1.3,4.4-2.6,6.9c-3.1,5.9-5.1,6.5-5.4,6.6c-1.9-0.8-3.3-4.2-4-6c3.9-0.4,6.9-3.5,6.9-7.3v-1.4
		C205.8,94.4,207.5,94.7,209.2,95.1z M196.5,102c-3.8,0-6.9-2.9-6.9-6.6v-5.1c2.3,1,4.6,1.7,6.1,1.8c0.1,0,0.2,0,0.3,0
		c1.7,0,4.1-0.8,6.6-1.9l0.8-0.4c0,0,0,0,0.1,0v5.6C203.4,99.1,200.3,102,196.5,102z M216.3,70.2c0.2,0.1,0.3,0.3,0.4,0.5
		c0.2,0.7,0,1.9-0.6,2.9c-0.9,1.5-2.1,2.3-2.8,2.1c0.1-1.3,0.2-2.6,0.3-3.9C214.4,70.6,215.6,69.9,216.3,70.2z M175.7,73.7
		c-0.6-1.1-0.8-2.2-0.6-2.9c0.1-0.3,0.2-0.5,0.4-0.5c0.1,0,0.2-0.1,0.3-0.1c0.7,0,1.6,0.7,2.4,1.8c0.1,1.3,0.1,2.6,0.3,3.9
		C177.9,76,176.6,75.3,175.7,73.7z M178.4,70.4l-1.3-0.9c-0.3-1.1-2.5-10.1,0.9-14.6c1.3-1.6,3.1-2.5,5.7-2.4h0
		c0.2,0,0.3-0.1,0.4-0.3c0,0,0.5-1.9,5.8-2.5c9.1-1,24.1,0.5,25.6,9.1c1.2,6.8-1.1,10.6-2.1,11.6c-0.8-3.2-3.4-9.9-10.8-10.8
		c-3.5-0.4-6.2,0.2-8.7,0.7c-2.1,0.4-3.9,0.8-5.5,0.5c-2.9-0.6-4.6-3.6-4.6-3.7c-0.1-0.2-0.3-0.2-0.4-0.2c-0.2,0-0.3,0.2-0.3,0.4
		c0,0,0.1,3.7-1.3,6.9C180.6,66.9,179,69.5,178.4,70.4z M181.7,83.7c-1.9-2.7-2.5-8.1-2.6-12.9c0.6-0.9,2.2-3.5,3.5-6.4
		c1-2.2,1.2-4.6,1.3-6c0.8,1.1,2.3,2.6,4.4,3c1.8,0.4,3.7,0,5.9-0.5c2.4-0.5,5.1-1.1,8.4-0.7c7.2,0.8,9.5,7.7,10.2,10.6
		c0,0,0,0,0,0.1c-0.1,4.9-0.9,10.7-2.5,12.7c-3.3,4.1-10.7,7.8-14.3,7.8c-0.1,0-0.2,0-0.3,0C192.7,91.2,185.1,88.4,181.7,83.7z
		 M182.9,94.5c1.9-0.3,3.9-0.6,5.9-0.8v1.8c0,3.8,3,6.8,6.8,7.2c-1,2-2.7,5.2-3.9,5.6c-0.2,0.1-0.3,0-0.3,0
		c-5.1-2.7-8.1-11.7-8.7-13.7C182.7,94.6,182.9,94.6,182.9,94.5C182.9,94.5,182.9,94.5,182.9,94.5z M167.9,169.4
		c-0.2,3.2,0.4,6.1,0.4,6.1s-0.3,0.1-0.6,0.1c-0.5,0-1.2-0.3-1.7-1.6c-0.1-0.4-0.2-1.6-0.2-2.6l-0.8,1.9c0,0,0,0,0,0
		c-0.1,0-0.2,5-0.9,5.9c-0.5,0.6-0.9,0.7-1.3,0.7c-0.2,0-0.4-0.1-0.4-0.1l0-7.1l-0.1,0c-0.1,1.5-0.5,5.3-1.2,6.5
		c-0.4,0.6-0.8,0.8-1.2,0.8c-0.3,0-0.5-0.1-0.5-0.1l0.3-7.7l-0.1,0c-0.1,1.8-0.7,4.6-1.3,5.6c-0.4,0.6-0.8,0.8-1.2,0.8
		c-0.3,0-0.5-0.1-0.5-0.1l0.6-6.7l0,0c-0.4,1.6-1.1,3.9-1.5,4.5c-0.2,0.2-0.5,0.3-0.7,0.3c-0.4,0-0.8-0.2-0.8-0.2l1.4-5.2l4.2-6.6
		l6.4,0.6C166.8,166.7,167.9,168.9,167.9,169.4z M174.8,141c-1-11.8-1.6-25.4-1.3-27.1c0,0,0.1-0.1,0.1-0.1c0.2-0.2,0.4-0.5-1.8-3.9
		c-0.1-0.2-0.4-0.2-0.5-0.1c-0.2,0.1-0.2,0.4-0.1,0.5c0.7,1.1,1.5,2.5,1.7,3.1c-0.2,0.3-0.4,1.7,0.1,12.1c0.2,4.2,0.5,8.5,0.8,12.5
		l-6.2,26.6l-10.6-1l5.4-41.1c0.4-12.6,4.6-23.9,9.6-25.5c1.4-0.4,5.2-1.4,9.9-2.3c0.6,1.9,3.6,11.3,9.1,14.3c0.3,0.2,0.6,0.2,0.9,0
		c1.3-0.5,2.9-3.2,3.9-5.2l-0.4,45.9h-2.4c-0.6,0-1.2,0.4-1.5,0.9c-4.6-0.1-9.2-0.2-12.4-0.4C177.4,150.1,175.7,144.8,174.8,141z
		 M198.7,150.6c0.5,0,0.9,0.4,0.9,0.9v2.6c0,0.5-0.4,0.9-0.9,0.9h-5.7c-0.5,0-0.9-0.4-0.9-0.9v-2.6c0-0.2,0.1-0.4,0.2-0.6
		c0,0,0,0,0,0c0.2-0.2,0.4-0.2,0.6-0.2H198.7z M191.4,151.5v2.2c-7.8-0.2-13.2-0.8-13.3-0.8c-0.1,0-0.1,0-0.2,0.1
		c0.1-0.8,0.3-1.6,0.4-2.2c0.3,0.2,0.6,0.3,0.9,0.3C182.3,151.2,186.8,151.4,191.4,151.5z M177.8,153.5c0.1,0.1,0.1,0.1,0.2,0.1
		c0.1,0,1.9,0.2,4.8,0.4c0,1.6-0.7,3.2-1.8,4.2c-1.1,1-2.5,1.4-4.1,1.2c0,0,0,0-0.1,0C177.2,157.2,177.5,155.2,177.8,153.5z
		 M192.6,247.1c-1.6,5-6.5,10.1-8.9,10.1c-0.2,0-0.3,0-0.5-0.1c-2.3-0.7-2.3-5.1-0.6-10.5c0.4-1.3,0.9-2.5,1.5-3.6l9,0
		C193.2,244.2,193.1,245.5,192.6,247.1z M208.1,246.6c1.7,5.4,1.7,9.8-0.6,10.5c-0.1,0-0.3,0.1-0.5,0.1c-2.5,0-7.4-5.1-8.9-10.1
		c-0.5-1.6-0.6-2.9-0.5-4l9,0C207.1,244.1,207.6,245.3,208.1,246.6z M213,160.1c0.6,6.1,1,14.6,0.1,24.9c-1.1,12.1-5,57.2-5,57.2
		l-12.6,0c0-0.2-0.3-75.2-0.3-75.2c0.1,0,0.3,0,0.4,0c1,0,2-0.1,2.6-0.3c0.2-0.1,0.3-0.3,0.2-0.5c-0.1-0.2-0.3-0.3-0.5-0.2
		c-1.6,0.5-6.3,0-6.4,0c-0.2,0-0.4,0.1-0.4,0.3c0,0.2,0.1,0.4,0.3,0.4c0.1,0,1.4,0.2,2.9,0.2c0,0,0.2,75,0.2,75.2l-11.9,0
		c0,0-4.8-47.4-6.2-59.6c-0.9-8.3-0.5-16.4,0.2-22.5c0,0,0,0,0.1,0c0.2,0,0.5,0,0.7,0c1.5,0,2.9-0.5,4-1.5c1.2-1.1,2-2.9,2-4.7
		c2.2,0.1,4.8,0.3,7.9,0.3c0.2,0.7,0.8,1.2,1.6,1.2h5.7c0.8,0,1.4-0.5,1.6-1.2c1.8,0,3.7-0.1,5.7-0.2c0.1,1.7,0.8,3.4,2.1,4.5
		c1.1,1,2.5,1.5,4.2,1.5C212.5,160.2,212.7,160.2,213,160.1C213,160.1,213,160.1,213,160.1z M200.4,153.7v-2.1
		c3.7,0,8.4-0.1,10.3-0.5c0.3-0.1,0.6-0.2,0.9-0.4c0.1,0.6,0.3,1.4,0.5,2.4c0,0,0,0,0,0C208,153.4,204.1,153.6,200.4,153.7z
		 M212.9,159.4C212.9,159.4,212.9,159.4,212.9,159.4c-1.7,0.1-3.2-0.3-4.3-1.2c-1.1-1-1.8-2.4-1.9-4c1.7-0.1,3.5-0.2,5.3-0.4
		c0,0,0.1,0,0.1,0C212.4,155.2,212.7,157.1,212.9,159.4z M217.4,164.3l-3.1-17.9c0.1-0.1,0.1-0.1,0.1-0.2c0.7-7.7,1.4-15.2,1.9-20.7
		c0.8-9.5,0.7-11,0.5-11.4c0.2-0.5,1.1-1.7,1.8-2.7c0.1-0.2,0.1-0.4-0.1-0.5c-0.2-0.1-0.4-0.1-0.5,0.1c-2.3,3.1-2.1,3.3-1.9,3.6
		c0,0,0.1,0.1,0.1,0.1c0.2,1.7-0.8,14.2-2.5,31.1c-0.6,1.4-1.9,4.3-3.3,4.6c-1.6,0.3-5.5,0.5-10.3,0.5c-0.3-0.6-0.8-1-1.5-1h-2.5
		l0.4-46.3c0.8,2,2.3,5.2,4.3,6c0,0,0.1,0,0.2,0c0.8,0,3-1.2,6.1-7c1.4-2.6,2.3-5.8,2.7-7.1c4.6,1.2,9,2.9,12.1,4.8
		c2.6,1.5,6.5,10.2,5.8,23l1,40.4L217.4,164.3z M232.1,178.3c-0.3,0-0.5-0.1-0.7-0.3c-0.4-0.5-0.9-2.8-1.2-4.3l0,0l0.2,6.4
		c0,0-0.2,0.1-0.4,0.1c-0.4,0-0.9-0.1-1.2-0.8c-0.5-1-0.9-3.7-0.9-5.4h-0.1l-0.1,7.3c0,0-0.2,0.1-0.4,0.1c-0.4,0-0.9-0.1-1.2-0.8
		c-0.6-1.1-0.8-4.7-0.8-6.2h-0.1l-0.4,6.7c0,0-0.1,0-0.3,0c-0.3,0-0.8-0.1-1.2-0.8c-0.6-0.9-0.5-5.7-0.6-5.7c0,0,0,0,0,0l-0.7-1.8
		c-0.1,1-0.1,2.1-0.3,2.5c-0.5,1.2-1.2,1.4-1.6,1.4c-0.4,0-0.7-0.2-0.7-0.2s0.7-2.7,0.7-5.7c0-0.7,2.7-5.1,2.7-5.3
		c0-0.1-0.1-0.4-0.1-0.7l4.8-0.3v1l4.3,7.7l1.1,5C232.8,178.1,232.4,178.3,232.1,178.3z"/>
</g>
</svg>
