<?xml version="1.0" encoding="utf-8"?>
<!-- Generator: Adobe Illustrator 23.1.0, SVG Export Plug-In . SVG Version: 6.00 Build 0)  -->
<svg version="1.1" id="Слой_1" xmlns="http://www.w3.org/2000/svg" xmlns:xlink="http://www.w3.org/1999/xlink" x="0px" y="0px"
	 viewBox="0 0 283.5 283.5" style="enable-background:new 0 0 283.5 283.5;" xml:space="preserve">
<style type="text/css">
	.st0{fill:#AE8E4E;}
	.st1{fill:#FBC595;}
	.st2{fill:#0D2849;}
	.st3{fill:#C1DCF2;}
	.st4{fill:#70C49F;}
	.st5{fill:#B2B2B2;}
	.st6{fill:#E7B257;}
	.st7{fill:#D7D7D7;}
	.st8{fill:#231F20;}
</style>
<g>
	<g>
		<path class="st0" d="M128.8,254.3l-6.4,1l-3.3-1.2c0,0-14.7,11.3-12.5,17.8c2.2,6.6,16.5,1,26.2-9.4c0,0,3.2-4.8-0.5-9.5
			C131.5,252.2,128.8,254.3,128.8,254.3z"/>
		<path class="st0" d="M162,253.6c0,0-4.5,1.7-6.1,1.5c-5.1-0.7-6.2-2.1-6.2-2.1s0,0.1-0.5,1c-3.7,6.5,0.7,9.9,0.7,9.9
			c10.7,9.4,25.5,13.4,27,6.6C178.4,263.6,162,253.6,162,253.6z"/>
	</g>
	<g>
		<path class="st1" d="M119.3,250.3l-0.4,4.1c0,0,3.5,1.7,8,0.4c4.4-1.3,4.9-1.8,4.9-1.8l-0.3-2.6
			C131.5,250.4,126.9,251.3,119.3,250.3z"/>
		<path class="st1" d="M149.6,250.6l-0.2,2.9c0,0,7.6,3.1,12.3,0.2v-3.4C161.7,250.3,157.7,251.6,149.6,250.6z"/>
	</g>
	<path class="st2" d="M112.8,148c0,0,0,100.6,0.6,100.6c0.6,0,11.2,2.9,23.2,0.6l4.4-68.5l2,0.2l1.8,68.2c0,0,9.4,2.9,23.2-0.2
		l1.7-100.8H112.8z"/>
	<g>
		<path class="st1" d="M189.7,166.3l-3.3-12.3l0.1-8.4l-8.1-0.9c0,0,1.1,8.9,1.2,9.4c0.1,0.3-4.4,6.5-4.5,7.6
			c-0.3,4.4-1.7,8.3-1.7,8.3s1.6,1.1,3.2-1.8c0.3-0.5,0.4-3.1,0.6-4.5l0.6,4.5c0.2-0.7-0.9,6.3-0.1,7.8c0.9,1.5,1.4,0.4,1.4,0.4
			l1.5-9.7l0.7-0.1c-0.2,2.1-0.8,8.2-0.1,9.9c0.7,1.7,1.7,1.4,1.7,1.4l1.3-11.2l0.6,0c-0.1,2.5-0.3,6.6,0.3,8.1
			c0.7,1.7,1.7,0.9,1.7,0.9l0.3-9.2l0.6-0.2c0.3,2.3,0.2,5.9,0.7,6.8c0.6,1,1.7,0.8,1.7,0.8L189.7,166.3z"/>
		<path class="st1" d="M103.5,154.8c0.1-0.5,0.9-9.6,0.9-9.6l-8.3,1.2l0.4,8.6l-2.9,12.7l-0.2,7.8c0,0,1.1,0.2,1.7-0.9
			c0.5-0.9,0.3-4.6,0.5-6.9l0.7,0.2l0.6,9.4c0,0,1,0.8,1.7-0.9c0.6-1.5,0.2-5.8,0-8.3l0.6-0.1l1.8,11.4c0,0,1.1,0.3,1.7-1.5
			c0.7-1.8-0.2-8-0.5-10.2l0.8,0l1.8,9.9c0,0,0.6,1.2,1.5-0.4c0.8-1.6-0.6-8.7-0.4-8l0.5-4.7c0.3,1.4,0.5,4,0.8,4.5
			c1.7,3,3.3,1.8,3.3,1.8s-1.5-4-2-8.5C108.2,161.3,103.4,155.1,103.5,154.8z"/>
	</g>
	<g>
		<polygon class="st3" points="94,153.5 107.7,154.8 108.2,145.4 94.8,143.8 		"/>
		<polygon class="st3" points="187.6,142.3 174.7,145.4 175.9,154.8 188.6,152.2 		"/>
	</g>
	<path class="st4" d="M187.8,143.6c0,0-3-50.9-15.5-75.7c-4.9-9.9-20.4-14-31.3-13.1c-10.4,0.9-25.9,3.4-30.9,17.8
		c-12.7,37.3-15.5,73-15.5,73l13.9,1.4l7.4-53.1l-3,48.1c0,0,17.4,2.2,29.3,2.2c15.8,0,27.4-2.2,27.4-2.2l-1.9-47.8l6.9,53.5
		L187.8,143.6z"/>
	<g>
		<path class="st5" d="M132.6,8.4c-1.3-0.3-4.7-0.8-6.1-0.8c-8.9,0-15.5,7.9-15.2,15.9c0.1,4.1,1.5,10.4,3,12.4
			c11.3,14.8,12.2-5.7,12.2-12.7C126.5,16.5,139.5,10.1,132.6,8.4z"/>
		<path class="st5" d="M162.5,7.6c-1.4,0-4.6,0.5-5.9,0.8c-6.7,1.7,5.9,8.1,5.9,14.8c0,7,0.8,27.5,11.8,12.7c1.5-2,2.8-8.3,3-12.4
			C177.6,15.5,171.2,7.6,162.5,7.6z"/>
	</g>
	<path class="st1" d="M173.8,35.9c-1.3-0.7-3.2,0-4.7,1.4c0.2-1.2,0.3-2.5,0.5-3.8C171,18.8,159,5.7,144.5,5.7
		c-14.6,0-25.4,11-25.7,25.9c0,2,0,3.9,0.1,5.7c-1.6-1.6-3.5-2.2-4.8-1.5c-1.9,1-2.1,4.3-0.4,7.4c1.7,3.1,4.6,4.8,6.6,3.9
		c0.1,0,0.1-0.1,0.2-0.1c4.1,15.4,14.9,21.8,23.5,21.8c9.3,0,18.7-6.3,23.2-21.9c0.2,0.1,0.3,0.3,0.5,0.4c1.9,1,4.8-0.8,6.6-3.9
		C175.9,40.2,175.8,36.9,173.8,35.9z"/>
	<path d="M191,77.4c0-0.1,0-0.2,0-0.2S191,77.3,191,77.4s0,0.2,0,0.2S191,77.5,191,77.4z"/>
	<path class="st0" d="M112.9,141.4l-0.4,7.9c0,0,18.2,1.8,28.5,1.8c13.6,0,28.7-1.8,28.7-1.8l-0.2-8.1c0,0-10.7,1.7-23.9,2
		C131.7,143.6,112.9,141.4,112.9,141.4z"/>
	<path class="st6" d="M148.7,151.9h-14.8c-0.2,0-0.4-0.2-0.4-0.4v-8.7c0-0.2,0.2-0.4,0.4-0.4h14.8c0.2,0,0.4,0.2,0.4,0.4v8.7
		C149,151.8,148.9,151.9,148.7,151.9z"/>
	<path d="M142.8,181c-2.8,0-5.2-0.6-5.4-0.6c-0.3-0.1-0.5-0.4-0.4-0.7c0.1-0.3,0.4-0.5,0.7-0.4c0.1,0,5.3,1.3,9.3,0
		c0.3-0.1,0.6,0.1,0.7,0.3c0.1,0.3-0.1,0.6-0.3,0.7C145.8,180.9,144.2,181,142.8,181z"/>
	<path d="M114.5,165.1c-0.5,0-1,0-1.5-0.1c-0.3,0-0.5-0.3-0.5-0.6c0-0.3,0.3-0.5,0.6-0.5c2.4,0.3,4.4-0.2,6-1.5
		c4.1-3.4,4.4-10.9,4.4-11c0-0.3,0.3-0.5,0.6-0.5c0.3,0,0.5,0.3,0.5,0.6c0,0.3-0.4,8.1-4.8,11.8
		C118.3,164.4,116.5,165.1,114.5,165.1z"/>
	<path d="M168,165.6c-2,0-3.8-0.6-5.4-1.9c-4.8-3.8-5.5-12-5.6-12.4c0-0.3,0.2-0.6,0.5-0.6c0.3,0,0.6,0.2,0.6,0.5
		c0,0.1,0.7,8.1,5.1,11.6c1.7,1.3,3.7,1.9,6,1.5c0.3,0,0.6,0.2,0.6,0.5c0,0.3-0.2,0.6-0.5,0.6C169,165.6,168.5,165.6,168,165.6z"/>
	<path class="st7" d="M152.6,52.8c1,0,1.4-1.1,0.8-1.8c-1.8-2.1-5-3.4-8.7-3.4s-6.8,1.4-8.7,3.4c-0.6,0.7-0.1,1.8,0.8,1.8H152.6z"/>
	<g>
		<g>
			<path class="st7" d="M139.4,30.1c0.1,1-2.2,0.6-4.9,1s-5,1.5-5.1,0.5c-0.1-1,2-2.1,4.8-2.5S139.3,29.1,139.4,30.1z"/>
			<path d="M135.6,29.3c2-0.1,3.5,0.1,3.5,0.7c0.1,0.7-2.1,0.5-4.8,0.9c-1.8,0.3-3.4,0.8-4.3,0.8c-0.4,0-0.6,0-0.7-0.3
				c-0.1-0.7,2-1.6,4.7-2C134.6,29.4,135.1,29.4,135.6,29.3 M135.5,28.2L135.5,28.2c-0.5,0-1.1,0.1-1.6,0.2c-1.4,0.2-2.7,0.6-3.6,1
				c-1.4,0.6-2.1,1.4-1.9,2.3c0,0.2,0.3,1.3,1.8,1.2c0.5,0,1.1-0.2,1.9-0.4c0.7-0.2,1.5-0.3,2.4-0.5c0.9-0.1,1.7-0.2,2.4-0.3
				c1.5-0.1,2.4-0.2,3-0.8c0.2-0.3,0.3-0.7,0.3-1.1C140,28.6,138.4,28,135.5,28.2L135.5,28.2z"/>
		</g>
		<g>
			<path class="st7" d="M158.4,32.1c-0.2,1-2.2-0.3-4.9-0.9c-2.7-0.7-5.1-0.5-4.9-1.5c0.2-1,2.6-1.2,5.3-0.6
				C156.6,29.8,158.6,31.2,158.4,32.1z"/>
			<path d="M150.7,29.1c0.9,0,2,0.1,3.2,0.4c2.6,0.6,4.5,1.7,4.4,2.4c0,0.2-0.2,0.2-0.4,0.2c-0.7,0-2.3-0.7-4.2-1.2
				c-2.6-0.6-4.8-0.6-4.7-1.3C149,29.3,149.7,29.1,150.7,29.1 M150.7,28L150.7,28c-1.7,0-2.6,0.5-2.8,1.4c-0.1,0.4,0,0.8,0.2,1.1
				c0.5,0.7,1.4,0.9,2.9,1.1c0.7,0.1,1.5,0.3,2.4,0.5c0.8,0.2,1.6,0.5,2.3,0.7c0.9,0.3,1.6,0.5,2.2,0.5c0.9,0,1.3-0.6,1.5-1.1
				c0.2-0.9-0.4-1.7-1.7-2.5c-0.9-0.5-2.1-0.9-3.5-1.3C152.9,28.2,151.7,28,150.7,28L150.7,28z"/>
		</g>
		<g>
			<path class="st8" d="M137.1,34.6C137.1,34.6,137,34.6,137.1,34.6c-0.2,0-3.8,0.2-6.1,1.6c-0.3,0.2-0.3,0.5-0.2,0.8
				c0.1,0.2,0.3,0.3,0.5,0.3c0.1,0,0.2,0,0.3-0.1c0.5-0.3,1.1-0.6,1.7-0.8c0,0,0,0.1,0,0.1c0,1.1,0.9,1.9,1.9,1.9
				c1.1,0,1.9-0.9,1.9-1.9c0-0.3-0.1-0.5-0.2-0.7c0.1,0,0.1,0,0.1,0c0.3,0,0.5-0.3,0.5-0.6C137.6,34.9,137.4,34.6,137.1,34.6z"/>
			<path class="st8" d="M156.8,35.8c-0.1-0.1-3.5-1.4-6.2-1.1c-0.3,0-0.5,0.3-0.5,0.6c0,0.3,0.3,0.5,0.6,0.5c0.2,0,0.3,0,0.5,0
				c-0.1,0.2-0.2,0.5-0.2,0.7c0,1.1,0.9,1.9,1.9,1.9s1.9-0.9,1.9-1.9c0,0,0-0.1,0-0.1c0.8,0.2,1.4,0.5,1.4,0.5c0.1,0,0.1,0,0.2,0
				c0.2,0,0.4-0.1,0.5-0.3C157.2,36.2,157,35.9,156.8,35.8z"/>
		</g>
		<g>
			<path class="st8" d="M144.5,45.6c-1.9,0-3.7-0.3-4.3-1.3c-0.4-0.7-0.2-1.5,0.7-2.5c3.2-3.8-0.4-7-0.6-7.2c-0.2-0.2-0.2-0.5,0-0.7
				c0.2-0.2,0.5-0.2,0.7,0c0,0,4.6,4,0.7,8.6c-0.3,0.3-0.8,1-0.6,1.3c0.5,1,4.6,0.8,7.2,0.4c0.3,0,0.6,0.2,0.6,0.4
				c0,0.3-0.2,0.5-0.4,0.6C147.9,45.3,146.3,45.6,144.5,45.6z"/>
			<g>
				<path class="st8" d="M148.9,21.1h-8.8c-0.3,0-0.6,0.2-0.6,0.6c0,0.3,0.2,0.6,0.6,0.6h8.8c0.3,0,0.6-0.2,0.6-0.6
					C149.4,21.3,149.2,21.1,148.9,21.1z"/>
				<path class="st8" d="M147.4,23.5h-5.8c-0.3,0-0.6,0.2-0.6,0.6c0,0.3,0.2,0.6,0.6,0.6h5.8c0.3,0,0.6-0.2,0.6-0.6
					C147.9,23.7,147.7,23.5,147.4,23.5z"/>
			</g>
			<path class="st8" d="M147,64h-5c-0.3,0-0.6-0.2-0.6-0.6c0-0.3,0.2-0.6,0.6-0.6h5c0.3,0,0.6,0.2,0.6,0.6
				C147.6,63.7,147.3,64,147,64z"/>
			<path d="M154,50.2c-2.1-2.4-5.7-3.8-9.5-3.8c-3.8,0-7.4,1.4-9.5,3.8c-0.6,0.7-0.7,1.6-0.4,2.4c0.4,0.8,1.1,1.3,2,1.3h1.1
				c1.5,2.3,3.8,3.5,6.5,3.5c0.2,0,0.4,0,0.6,0c2.6-0.2,5-1.6,5.9-3.5h1.5c0.9,0,1.6-0.5,2-1.3C154.7,51.8,154.6,50.9,154,50.2z
				 M144.8,56.3c-2.3,0.2-4.3-0.7-5.7-2.4h10.4C148.6,55.2,146.8,56.2,144.8,56.3z M152.4,52.8h-15.7c-1,0-1.4-1.1-0.8-1.8
				c1.8-2.1,5-3.4,8.7-3.4s6.8,1.4,8.7,3.4C153.8,51.7,153.3,52.8,152.4,52.8z"/>
		</g>
	</g>
	<g>
		<path d="M140.4,82.4c0.8,0,1.4-0.6,1.4-1.4c0-0.8-0.6-1.4-1.4-1.4c-0.8,0-1.4,0.6-1.4,1.4C139,81.8,139.6,82.4,140.4,82.4z"/>
		<path d="M140.3,94.3c0.8,0,1.4-0.6,1.4-1.4c0-0.8-0.6-1.4-1.4-1.4c-0.8,0-1.4,0.6-1.4,1.4C138.9,93.6,139.5,94.3,140.3,94.3z"/>
		<path d="M140.2,106.1c0.8,0,1.4-0.6,1.4-1.4c0-0.8-0.6-1.4-1.4-1.4c-0.8,0-1.4,0.6-1.4,1.4C138.8,105.5,139.4,106.1,140.2,106.1z"
			/>
		<path d="M140.1,118c0.8,0,1.4-0.6,1.4-1.4c0-0.8-0.6-1.4-1.4-1.4c-0.8,0-1.4,0.6-1.4,1.4C138.7,117.4,139.3,118,140.1,118z"/>
		<path d="M140,129.9c0.8,0,1.4-0.6,1.4-1.4c0-0.8-0.6-1.4-1.4-1.4c-0.8,0-1.4,0.6-1.4,1.4S139.3,129.8,140,129.9z"/>
		<path d="M115.8,257.9C115.8,257.9,115.8,257.9,115.8,257.9c-0.3,0-0.6,0.2-0.6,0.5c0,0.3,0.2,0.6,0.5,0.6c1.7,0,2.6,1.1,2.6,1.1
			c0.1,0.1,0.3,0.2,0.4,0.2c0.1,0,0.2,0,0.3-0.1c0.2-0.2,0.3-0.5,0.1-0.8C119.3,259.4,118.1,257.9,115.8,257.9z"/>
		<path d="M114.1,260c-0.3,0-0.6,0.2-0.6,0.5c0,0.3,0.2,0.6,0.5,0.6c1.7,0,2.6,1.1,2.6,1.1c0.1,0.1,0.3,0.2,0.4,0.2
			c0.1,0,0.2,0,0.3-0.1c0.2-0.2,0.3-0.5,0.1-0.8C117.5,261.5,116.4,260,114.1,260z"/>
		<path d="M185.7,148.6c-0.8,0-1.4,0.6-1.4,1.4s0.6,1.4,1.4,1.4c0.8,0,1.4-0.6,1.4-1.4S186.5,148.6,185.7,148.6z"/>
		<path d="M96.8,152c0.8,0,1.4-0.6,1.4-1.4s-0.6-1.4-1.4-1.4c-0.8,0-1.4,0.6-1.4,1.4S96,152,96.8,152z"/>
		<path d="M190.7,166.3c0-0.1,0-0.1,0-0.2l-3.2-12.1l0-0.9l1.2-0.3c0.3-0.1,0.5-0.3,0.4-0.6l-0.7-7.7c0.3-0.2,0.6-0.6,0.5-1
			c-0.1-2.1-3.2-51.4-15.6-76.2c-2-4-5.6-7.1-9.9-9.3c1.8-2.8,3.2-6,4.4-9.7c0.3,0.1,0.7,0.2,1,0.2c2.2,0,4.8-1.9,6.3-4.7
			c1.2-2.2,1.6-4.7,1.1-6.5c-0.2-0.5-0.4-0.9-0.7-1.3c1.5-2.6,2.7-8.4,2.8-12.5c0.2-4.5-1.6-8.9-4.8-12.3c-3-3.1-6.9-4.8-11.1-4.8
			c-1.5,0-4.9,0.5-6.2,0.8c-0.1,0-0.2,0-0.3,0.1c-3.6-1.8-7.6-2.8-11.6-2.8c-4.2,0-8.3,0.9-11.9,2.6c-1.5-0.3-4.6-0.8-6.1-0.8
			c-4.4,0-8.5,1.8-11.6,5c-3.2,3.3-4.9,7.7-4.8,12.1c0.1,3.7,1.2,9,2.6,11.9c-0.5,0.5-0.9,1.1-1.1,1.8c-0.6,1.8-0.2,4.3,1.1,6.5
			c1.5,2.8,4.1,4.7,6.3,4.7c0.2,0,0.4,0,0.6-0.1c1.1,3.6,2.5,6.6,4,9c-6.4,2.6-11.9,7.1-14.5,14.8c-12.6,37-15.5,72.9-15.5,73.2
			c0,0.4,0.2,0.7,0.4,0.9l-0.5,7.1c0,0.3,0.2,0.6,0.5,0.6l1.4,0.1l0,0.7l-2.9,12.6c0,0.1,0,0.1,0,0.2l-0.2,7.8c0,0.5,0.4,0.9,0.8,1
			c0.1,0,0.3,0,0.6,0c0.8-0.1,1.4-0.5,1.9-1.1l0.1,1.9c0,0.3,0.2,0.5,0.4,0.7c0.1,0.1,0.6,0.5,1.4,0.4c0.6-0.1,1.3-0.4,1.8-1.7
			l0.4,2.8c0.1,0.4,0.3,0.7,0.7,0.8c0.1,0,0.3,0.1,0.7,0c0.6-0.1,1.6-0.4,2.3-2.1c0.1-0.2,0.1-0.4,0.2-0.6l0,0.2
			c0,0.1,0.1,0.2,0.1,0.3c0.3,0.5,0.8,1,1.6,0.9c1-0.1,1.4-1.1,1.6-1.4c0.6-1.1,0.4-3.6-0.1-7c1,1.2,2.1,1.4,2.8,1.3
			c0.6-0.1,1-0.3,1.1-0.4c0.4-0.3,0.5-0.7,0.3-1.2c0,0-1.5-3.9-2-8.2c-0.1-0.8-1-2.1-3.4-5.6c-0.4-0.5-0.8-1.2-1.1-1.6l2.8,0.3
			c0,0,0,0,0.1,0c0.1,0,0.3,0,0.4-0.1c0.1-0.1,0.2-0.2,0.2-0.4l0.4-6.9c0.5,0,1-0.4,1.1-0.9l3.3-23.8l-1.1,17.8c0,0.1,0,0.2-0.1,0.3
			l-0.4,7.9c0,0.3,0.1,0.6,0.3,0.8c0,6.4,0,27.5,0.1,48.3c0,14.6,0.1,26.2,0.2,34.6c0,5,0.1,8.8,0.1,11.4c0,1.4,0.1,2.5,0.1,3.2
			c0,1.2,0.1,2.1,1.1,2.2c0.1,0,0.3,0.1,0.6,0.1c0.9,0.2,2.6,0.5,4.9,0.8l-0.3,3.2c-1.8,1.4-14.7,11.8-12.5,18.3
			c0.5,1.6,1.8,2.7,3.6,3c0.5,0.1,1.1,0.2,1.7,0.2c5.9,0,15-5.1,21.8-12.5c0,0,0,0,0.1-0.1c0-0.1,3.4-5.2-0.5-10.1
			c-0.1-0.2-0.2-0.9-0.3-1.8c-0.1,0-0.1,0-0.2,0c1.6-0.2,3.2-0.4,4.7-0.7c0.5-0.1,0.9-0.5,0.9-1l4.3-66.5l1.8,66.3
			c0,0.5,0.3,0.9,0.8,1c0.1,0,1.7,0.5,4.5,0.9c-0.1,1.4-0.2,2.4-0.4,2.7c-3.9,6.8,0.8,10.6,0.8,10.6c7,6.1,15.9,10.2,21.8,10.2
			c1.1,0,2.1-0.1,2.9-0.4c1.7-0.6,2.9-1.7,3.2-3.4c1.5-6.7-12.7-15.9-14.9-17.3l-0.2-2.4c2-0.2,4-0.6,6-1c0.5-0.1,0.9-0.6,0.9-1.1
			l1.6-99.1c0,0,0,0,0,0c0.1-0.1,0.1-0.3,0.1-0.5l-0.2-8.1c0-0.1,0-0.3-0.1-0.4l-0.9-21.6l3.7,28.6c0,0.3,0.2,0.6,0.5,0.8
			c0.2,0.1,0.4,0.2,0.6,0.2c0,0,0,0,0,0l0.7,6.1c0,0.2,0.1,0.3,0.2,0.4c0.1,0.1,0.2,0.1,0.3,0.1c0,0,0.1,0,0.1,0l2-0.4
			c-0.2,0.4-0.5,0.8-0.7,1.1c-2.3,3.4-3.1,4.8-3.1,5.5c-0.3,4.3-1.6,8-1.6,8.1c-0.1,0.4,0,0.9,0.4,1.1c0.1,0.1,0.5,0.3,1.1,0.4
			c0.7,0.1,1.7-0.2,2.7-1.4c-0.3,3.3-0.4,5.7,0.2,6.8c0.2,0.3,0.7,1.2,1.6,1.3c0.8,0.1,1.3-0.5,1.6-1c0-0.1,0.1-0.2,0.1-0.3l0-0.2
			c0,0.2,0.1,0.4,0.2,0.6c0.7,1.6,1.7,1.9,2.3,2c0.3,0,0.6,0,0.6-0.1c0.4-0.1,0.6-0.4,0.7-0.8l0.3-2.7c0.5,1.3,1.3,1.6,1.9,1.6
			c0.7,0.1,1.2-0.3,1.3-0.4c0.2-0.2,0.3-0.4,0.3-0.7l0.1-1.9c0.5,0.6,1.1,0.9,1.9,1c0.3,0,0.6,0,0.6,0c0.5-0.1,0.8-0.5,0.8-1
			L190.7,166.3z M174.2,43.3c-1.4,2.5-3.6,4.1-5.4,4.1c-0.2,0-0.5,0-0.7-0.1c1-3.3,1.7-6.9,2.2-10.9c0.8-0.5,1.6-0.8,2.3-0.8
			c0.4,0,0.8,0.1,1.2,0.3C175.8,36.9,175.9,40.2,174.2,43.3z M162.5,7.6c8.7,0,15.1,7.9,14.8,15.9c-0.1,3.8-1.2,9.2-2.5,11.7
			c-0.1-0.1-0.3-0.2-0.4-0.3c-0.5-0.3-1.1-0.4-1.7-0.4c-0.7,0-1.4,0.2-2.1,0.5c0.1-0.5,0.1-0.9,0.2-1.4c0.7-7.3-1.8-14.7-6.8-20.3
			c-1.9-2.1-4-3.8-6.3-5.2C159,7.9,161.4,7.6,162.5,7.6z M111.3,23.5c-0.3-8,6.3-15.9,15.2-15.9c1,0,3,0.2,4.5,0.5
			c-2,1.1-3.9,2.6-5.5,4.2c-4.9,4.9-7.7,11.8-7.8,19.3c0,1.2,0,2.4,0,3.5c-0.8-0.4-1.6-0.7-2.4-0.7h0c-0.6,0-1.1,0.1-1.6,0.3
			C112.4,32.1,111.4,27.1,111.3,23.5z M119,47.3c-1.8,0-4-1.6-5.4-4.1c-1.7-3.1-1.5-6.4,0.4-7.4c0.4-0.2,0.8-0.3,1.2-0.3
			c0.8,0,1.6,0.3,2.5,0.9c0.2,4.1,0.8,7.7,1.6,10.8C119.2,47.3,119.1,47.3,119,47.3z M118.7,31.6c0.3-14.9,11.1-25.9,25.7-25.9
			c14.6,0,26.6,13,25.1,27.8c-0.9,9.5-3.1,16.8-6.2,22.3c-0.1,0.1-0.6,1.2-1.2,2.1c-0.5,0.7-1,1.4-1.1,1.5c-4.8,6.5-11,9.3-17.3,9.3
			c-6,0-13.2-3.1-18.3-10.3c-0.1-0.2-1.4-2.1-1.6-2.4C120.7,50.1,118.5,42.1,118.7,31.6z M157.6,64.7l-3.3,10
			c-0.2,0.7-0.8,1.1-1.5,1.1c-0.3,0-0.6-0.1-0.8-0.2l-7.8-5.9l0,0C149.2,69.7,153.8,68,157.6,64.7z M143.2,70l-8.4,5.6
			c-0.2,0.2-0.5,0.2-0.8,0.2c-0.6,0-1.1-0.4-1.3-1l-3.2-10.7c4,3.4,8.9,5.4,13.7,5.6L143.2,70z M147.1,143c0.8,0,1.4,0.6,1.4,1.4
			v5.7c0,0.8-0.6,1.4-1.4,1.4h-11.9c-0.8,0-1.4-0.6-1.4-1.4v-5.7c0-0.8,0.6-1.4,1.4-1.4H147.1z M108.4,162.4c0.5,4.5,2,8.5,2,8.5
			s-0.2,0.2-0.6,0.2c-0.6,0.1-1.6-0.2-2.7-2c-0.3-0.5-0.5-3.1-0.8-4.5l-0.5,4.7c0,0,0,0,0,0c-0.1,0,1.2,6.6,0.4,8.1
			c-0.3,0.6-0.6,0.8-0.8,0.8c-0.4,0-0.6-0.4-0.6-0.4l-1.8-9.9l-0.8,0c0.2,2.2,1.1,8.4,0.5,10.2c-0.4,1.2-1.1,1.4-1.4,1.5
			c-0.2,0-0.3,0-0.3,0L99.1,168l-0.6,0.1c0.2,2.5,0.6,6.8,0,8.3c-0.3,0.8-0.7,1.1-1,1.1c-0.4,0-0.6-0.2-0.6-0.2l-0.6-9.4l-0.7-0.2
			c-0.2,2.3,0,6.1-0.5,6.9c-0.4,0.6-0.9,0.8-1.3,0.9c-0.2,0-0.4,0-0.4,0l0.2-7.8l2.9-12.7l0-0.7l7.1,0.7
			C104.1,156,108.3,161.4,108.4,162.4z M107.2,154.2L94.6,153l0.5-6.4l12.4,1.2L107.2,154.2z M108.6,146.9l-13.9-1.4
			c0,0,2.8-35.7,15.5-73c2.6-7.5,8-11.8,14.1-14.2c1.1,1.6,2.3,3,3.4,4.1c0.2,0.2,0.4,0.4,0.6,0.6c-0.1,0.2-0.1,0.5,0,0.7l3.4,11.4
			c0,0,0,0,0,0c0.4,1,1.3,1.7,2.4,1.7c0.5,0,0.9-0.1,1.4-0.4l7.8-5.2l-0.5,70.6h-7.5c-0.5,0-1.1,0.2-1.5,0.5
			c0.1-0.2,0.3-0.3,0.5-0.5c-10.9-0.5-21.1-1.7-21.2-1.7c0,0,0,0,0,0l2.9-46.4L108.6,146.9z M112.6,149.3l0.4-7.9
			c0,0,9.6,1.1,20.2,1.6c-0.3,0.4-0.4,0.9-0.4,1.4v5.7c0,0.3,0.1,0.5,0.1,0.8C123.2,150.4,112.6,149.3,112.6,149.3z M132.2,262.2
			c-7.1,7.7-17.2,13-22.5,11.9c-1.4-0.3-2.3-1.1-2.7-2.3c-0.1-0.2-0.1-0.3-0.1-0.5c0.7,0.4,1.7,0.8,3.2,0.9c0.2,0,0.3,0,0.5,0
			c4.1,0,11.2-2.5,22.8-13.4C133.2,260.6,132.4,261.9,132.2,262.2z M133.4,257.3c-12.1,11.7-19.2,14-23.1,13.8
			c-2.4-0.1-3.3-1.1-3.4-1.2c0.5-4.5,6.8-10.5,10.2-13.5c0,0,0,0,0,0c0,0.3,0.2,0.6,0.5,0.6c1.7,0,2.6,1.1,2.6,1.1
			c0.1,0.1,0.3,0.2,0.4,0.2c0.1,0,0.2,0,0.3-0.1c0.2-0.2,0.3-0.5,0.1-0.8c0-0.1-1.2-1.5-3.4-1.6c0.6-0.5,1-0.9,1.3-1.1
			c0.6,0.4,1.8,0.9,4,0.9c2.1,0,5-0.5,9-2C132.8,254.9,133.2,256.1,133.4,257.3z M119.6,253.9l0.3-3.1c2,0.2,4.3,0.4,6.9,0.4
			c1.5,0,3-0.1,4.5-0.2c0,0.7,0.1,1.3,0.2,1.7C123.4,255.7,120.3,254.3,119.6,253.9z M176.3,270.3c-0.3,1.3-1.1,2.1-2.5,2.6
			c-5.1,1.7-15.7-2.6-23.6-9.5c0,0-1.8-1.4-1.9-4.1c9.3,7.2,16.9,11.1,22.7,11.5c0.4,0,0.8,0,1.1,0c2.2,0,3.6-0.6,4.4-1.1
			C176.4,269.9,176.3,270.1,176.3,270.3z M163.3,255.1C163.3,255.1,163.3,255.1,163.3,255.1c-2.3,0.5-3.1,2.2-3.1,2.2
			c-0.1,0.3,0,0.6,0.3,0.7c0.1,0,0.2,0.1,0.2,0.1c0.2,0,0.4-0.1,0.5-0.3c0-0.1,0.7-1.3,2.3-1.7c0.3-0.1,0.5-0.4,0.4-0.7c0,0,0,0,0,0
			c0.5,0.4,1.1,0.8,1.7,1.2c0,0-0.1,0-0.1,0c-2.2,0.5-3,2.2-3.1,2.2c-0.1,0.3,0,0.6,0.3,0.7c0.1,0,0.2,0.1,0.2,0.1
			c0.2,0,0.4-0.1,0.5-0.3c0,0,0.6-1.3,2.3-1.6c0.3-0.1,0.5-0.4,0.4-0.7c0,0,0,0,0-0.1c0.6,0.4,1.1,0.9,1.7,1.3c-0.1,0-0.2,0-0.3,0
			c-2.2,0.5-3,2.2-3.1,2.2c-0.1,0.3,0,0.6,0.3,0.7c0.1,0,0.2,0.1,0.2,0.1c0.2,0,0.4-0.1,0.5-0.3c0,0,0.6-1.3,2.3-1.6
			c0.3-0.1,0.5-0.4,0.4-0.7c0,0,0-0.1-0.1-0.1c3.7,3,7.3,6.7,8.1,9.8c-0.7,0.6-7,5.8-28-10.6c0.1-1.1,0.5-2.3,1.3-3.7
			c0-0.1,0.1-0.1,0.1-0.2c1.1,0.5,3.9,1.5,7,1.5c1.7,0,3.5-0.3,5.3-1.2C162.4,254.5,162.8,254.8,163.3,255.1z M149.9,252.8
			c0.1-0.5,0.1-1.1,0.2-1.7c1.5,0.2,3.3,0.3,5.4,0.3c1.9,0,3.8-0.1,5.7-0.3l0.1,2.2C156.8,255.6,151.2,253.4,149.9,252.8z
			 M168.1,248.8c-4.8,1.1-9.1,1.4-12.6,1.4c-6.6,0-10.6-1.3-10.6-1.3l-1.8-68.2l-2-0.2l-4.4,68.5c-3.5,0.7-6.8,0.9-9.8,0.9
			c-7.5,0-13-1.5-13.4-1.5c-0.5,0-0.5-82.9-0.6-98.2c2.1,0.2,12,1.2,20.8,1.6c0.4,0.4,1,0.6,1.6,0.6h11.9c0.6,0,1.1-0.2,1.5-0.5
			c10.2-0.4,19.6-1.5,21.1-1.7L168.1,248.8z M169.8,149.3c0,0-9.6,1.2-20.3,1.6c0.1-0.3,0.1-0.5,0.1-0.8v-5.7c0-0.5-0.1-0.9-0.4-1.3
			c11-0.5,19.5-1.8,20.3-1.9l0,0.3c0,0,0,0,0.1,0L169.8,149.3z M174.6,147.6l-6.9-53.5l1.9,46c0,0,0,0-0.1,0
			c-0.1,0-9.6,1.5-21.6,1.9c-0.2-0.1-0.5-0.1-0.7-0.1h-3.4l0.5-70.7l7.1,5.4c0,0,0,0,0.1,0c0.4,0.3,0.9,0.4,1.4,0.4
			c1.2,0,2.2-0.8,2.6-1.9l3.6-11c0.1-0.2,0.1-0.4,0-0.6c0.7-0.7,1.3-1.4,2-2.1c0.6-0.8,1.2-1.6,1.8-2.4c4.2,2.1,7.6,5.1,9.5,8.9
			c12.4,24.9,15.5,75.7,15.5,75.7L174.6,147.6z M176.3,154.2l-0.7-5.7l11.7-3.6l0.6,6.9L176.3,154.2z M189.8,174
			c-0.4,0-0.9-0.2-1.3-0.8c-0.5-0.8-0.4-4.5-0.7-6.8l-0.6,0.2l-0.3,9.2c0,0-0.3,0.2-0.6,0.2c-0.3,0-0.7-0.3-1-1.1
			c-0.6-1.5-0.4-5.6-0.3-8.1l-0.6,0L183,178c0,0-0.1,0-0.3,0c-0.4,0-1-0.3-1.4-1.4c-0.7-1.7,0-7.8,0.1-9.9l-0.7,0.1l-1.5,9.7
			c0,0-0.2,0.5-0.6,0.4c-0.2,0-0.5-0.2-0.8-0.8c-0.8-1.4,0.2-7.9,0.1-7.9c0,0,0,0,0,0l-0.6-4.5c-0.2,1.4-0.3,3.9-0.6,4.5
			c-1,1.8-1.9,2.1-2.5,2c-0.4,0-0.6-0.2-0.6-0.2s1.4-3.9,1.7-8.3c0.1-0.9,3.3-5.4,4.2-7l7.2-1.5l0,0.8l3.3,12.3l0.4,7.6
			C190.1,174,190,174,189.8,174z"/>
	</g>
</g>
</svg>
