<?xml version="1.0" encoding="utf-8"?>
<!-- Generator: Adobe Illustrator 22.1.0, SVG Export Plug-In . SVG Version: 6.00 Build 0)  -->
<svg version="1.1" id="Слой_4" xmlns="http://www.w3.org/2000/svg" xmlns:xlink="http://www.w3.org/1999/xlink" x="0px" y="0px"
	 viewBox="0 0 512 512" style="enable-background:new 0 0 512 512;" xml:space="preserve">
<style type="text/css">
	.st0{fill:#FDCD95;stroke:#000000;stroke-width:1.5;stroke-linecap:round;stroke-linejoin:round;stroke-miterlimit:10;}
	.st1{fill:#634940;stroke:#000000;stroke-width:2;stroke-linecap:round;stroke-linejoin:round;stroke-miterlimit:10;}
	.st2{fill:#EB8C30;stroke:#000000;stroke-width:2;stroke-linecap:round;stroke-linejoin:round;stroke-miterlimit:10;}
	.st3{fill:#4D7450;stroke:#000000;stroke-width:2;stroke-linecap:round;stroke-linejoin:round;stroke-miterlimit:10;}
	.st4{fill:none;stroke:#000000;stroke-width:2;stroke-linecap:round;stroke-linejoin:round;stroke-miterlimit:10;}
	.st5{fill:#45415E;stroke:#000000;stroke-width:2;stroke-linecap:round;stroke-linejoin:round;stroke-miterlimit:10;}
	.st6{fill:#FFD551;stroke:#000000;stroke-width:2;stroke-linecap:round;stroke-linejoin:round;stroke-miterlimit:10;}
	.st7{fill:#FDCD95;stroke:#000000;stroke-width:2;stroke-linecap:round;stroke-linejoin:round;stroke-miterlimit:10;}
	.st8{fill:#857154;stroke:#000000;stroke-width:2;stroke-linecap:round;stroke-linejoin:round;stroke-miterlimit:10;}
	.st9{fill:#857154;stroke:#000000;stroke-linecap:round;stroke-linejoin:round;stroke-miterlimit:10;}
	.st10{fill:#FDCD95;stroke:#000000;stroke-linecap:round;stroke-linejoin:round;stroke-miterlimit:10;}
	.st11{fill:none;stroke:#000000;stroke-linecap:round;stroke-linejoin:round;stroke-miterlimit:10;}
	.st12{fill:#FFFFFF;}
	.st13{fill:#FFFCCB;stroke:#000000;stroke-width:2;stroke-linecap:round;stroke-linejoin:round;stroke-miterlimit:10;}
	.st14{fill:#FDC663;stroke:#000000;stroke-width:1.5;stroke-linecap:round;stroke-linejoin:round;stroke-miterlimit:10;}
	.st15{fill:#4D7450;stroke:#000000;stroke-width:1.5;stroke-linecap:round;stroke-linejoin:round;stroke-miterlimit:10;}
	.st16{fill:none;stroke:#000000;stroke-width:1.5;stroke-linecap:round;stroke-linejoin:round;stroke-miterlimit:10;}
	.st17{fill:none;stroke:#000000;stroke-width:3;stroke-linecap:round;stroke-linejoin:round;stroke-miterlimit:10;}
	.st18{fill:#FDCD95;stroke:#000000;stroke-width:1.4447;stroke-linecap:round;stroke-linejoin:round;stroke-miterlimit:10;}
	.st19{fill:#97B043;stroke:#000000;stroke-width:1.4447;stroke-linecap:round;stroke-linejoin:round;stroke-miterlimit:10;}
	.st20{fill:#DFD977;stroke:#000000;stroke-width:1.4447;stroke-linecap:round;stroke-linejoin:round;stroke-miterlimit:10;}
	.st21{fill:#634940;stroke:#000000;stroke-width:1.4447;stroke-linecap:round;stroke-linejoin:round;stroke-miterlimit:10;}
	.st22{fill:#FDC663;stroke:#000000;stroke-width:1.4447;stroke-linecap:round;stroke-linejoin:round;stroke-miterlimit:10;}
	.st23{fill:none;stroke:#000000;stroke-width:1.4447;stroke-linecap:round;stroke-linejoin:round;stroke-miterlimit:10;}
</style>
<g>
	<polygon class="st0" points="356.5,234.1 321.9,208.6 329.9,180.8 357.3,192.1 360.7,222.9 	"/>
	<path class="st1" d="M86.6,479.4c0,0-18.8,14.3-11.8,15.3s17.3-3.8,22.5-4s9.3,0.8,7.5-12.5S86.6,479.4,86.6,479.4z"/>
	<path class="st1" d="M121.1,476.4c0,0-2.3,10,3,10.3c5.3,0.3,12.5,1.8,19.8,4.8s11.8-5.8-8.3-15H121.1z"/>
	<path class="st0" d="M67.5,364.7l-11.3,11.9c0,0-1.6,2.3,5.7-0.4c0,0-7.8,7.2-5.3,6.7s7.1-4.4,7.4-4.9c0.3-0.5-4.6,10.8-2.2,8.5
		s6.1-6.6,6.1-6.6s-0.6,11.5,1.5,6.9c2.1-4.6,3.3-8,3.3-8s4.1,2.7,5.9,1.3c1.7-1.3-1.8-2.4-2.7-3.8c-1.1-1.9-1.2-10.1-1.2-10.1
		L67.5,364.7z"/>
	<path class="st2" d="M88.5,366.9l-5.6,113.5c0,0,11.8,7.8,24.3,0l2.3-83l9,84c0,0,12,3.5,22-4l-10.8-108.8L88.5,366.9z"/>
	<path class="st0" d="M167.3,312.9c0,0,8.3-7.3,8.6-11.3S179,288,179,288h7.1l3,8.1c0,0-1,8.9-4.1,11.5s-11.5,12.8-11.5,12.8l-4.6-2
		L167.3,312.9z"/>
	<path class="st0" d="M201.9,189.2c0,0-10.5,23.3-14.8,58.5c0,0-1.3,9.5-4.3,15.3c-2.6,5.1-7.6,25.3-5.2,32.3c0.3,1,1.7,0.9,2-0.1
		l3.6-12.2c0,0-2.5,29,1.5,19.3c4.5-11.1,5-16.8,5-16.8s1.3,30.9,4.2,16.9c3.1-15.1,1.9-18.9,1.9-18.9s4.8,26.3,6,13.8
		c1.2-13-0.8-21.5,0-21.8c0.6-0.2,2.9,2.6,4,3.9c0.4,0.5,1.2,0.8,1.8,0.6c1.6-0.5,3.5-3.2-2-15.5c-0.7-1.7-1.7-3.3-2.6-4.8
		c-1.4-2.2-3.2-6.9-0.2-14.2c4.3-10.3,21.5-53.8,21.5-53.8L201.9,189.2z"/>
	<path class="st3" d="M101.4,298.9c0,0-16.5,4.3-24.5,30.3s-11.5,36.8-11.5,36.8s7,4.5,10.3,2.5l12.8-30.5l-3.1,42
		c0,0,35.8,4.3,48.4-1.3l-1.8-47.7c0,0,12.5,21.3,29,5.8l16.2-16.8c0,0-8.4-3.8-8.9-10.3l-19,13.3c0,0-19.3-25.3-30.3-24
		C118.9,298.9,111.9,312.9,101.4,298.9z"/>
	<path class="st4" d="M72.5,343.2c0,0,6.6-1.5,11.7,4.6"/>
	<path class="st4" d="M69.8,351.9c0,0,9-0.1,11,4"/>
	<line class="st4" x1="88.5" y1="326.3" x2="88.4" y2="337.9"/>
	<path class="st4" d="M88,343.6c0,0,27.7,14.5,43.8,0"/>
	<path class="st4" d="M88.5,332.7c0,0,24.1,12.7,43.3,1.9"/>
	<path class="st4" d="M158.3,316.6c0,0,0.8,7.9,10.4,12.1"/>
	<path class="st4" d="M153.6,319.8c0,0,2.1,11,11.7,12.3"/>
	<path class="st1" d="M232.8,462.8c0,0-20,28.7-9.7,30c10.3,1.3,31.7,5.3,31.7-5c0-10.3-6-25-6-25H232.8z"/>
	<path class="st1" d="M309.2,462.8c0,0,20,28.7,9.7,30c-10.3,1.3-31.7,5.3-31.7-5c0-10.3,6-25,6-25H309.2z"/>
	<path class="st5" d="M229.2,267.8l-1.3,199.3c0,0,8,7,25.3,0l15-160l22,160.3c0,0,12.7,5.3,22.7-3.7l-5.7-194.7L229.2,267.8z"/>
	<path class="st6" d="M248,120.8c0,0-26.9,4.9-30.4,11.9c-3.5,7-19.5,59.1-19.5,59.1s9.9,11.9,28.9,4.8l-1,75.9
		c0,0,40,25.7,85.7,2.4l2.2-69.3c0,0,8.1,5.4,13.2,2.2c0,0,15.8-77.2-13.7-78.7c-19.8-1-27.8-9.7-27.8-9.7L248,120.8z"/>
	<path class="st7" d="M252.2,101.1l1.6,21.6c0,0,9.6,6.5,14.9,14.8c0,0,2-5.9,13.4-16.3l-2-20.1c0,0-8,5.1-11.5,5.3
		S252.2,102.3,252.2,101.1z"/>
	<path class="st8" d="M235.1,75.4l64.3-1.4c0,0,10.5-38.8-19-54c-14.8-7.6-27.1-3.6-34.8,2.7c-7.5,6-12.2,14.9-13.5,24.5
		C230.8,56.8,230,70.4,235.1,75.4z"/>
	<path class="st7" d="M290.9,49.6c-1.9-6.5-6-11.3-14.6-6c-8.8,5.4-15.5,0.7-18.7-0.9c-1.8-0.9-3.8-1.9-5.8-1.6
		C239.3,42.6,241.1,55,241.1,55c-2,5.3-2,9.7-2,16.1c0,0.3,0,0.6,0,0.9c-2.3-2.1-6.8-5-8.3,1.5c-1.9,8.4,5.7,14.2,9.7,10
		c3.8,15.3,14.4,26.3,26.9,26.3c12.7,0,23.5-11.4,27.1-27.1v0c6.8,1.7,8-7.6,6.5-11.6c-1-2.6-3.4-1.9-5.3-0.7
		c-0.1-7.9-1.9-15.3-5.1-21.4c0,0,0,0,0,0"/>
	<path class="st9" d="M296.5,82.6l-3.2-2.5c0-0.1,0,0,0,0l0,0c0,0.2-0.7,1.2-4.9,6.2c-4.5,5.3-12.7,3.8-16,2.9
		c-0.8-0.2-1.7,0-2.4,0.5c-1.1,0.8-2.9,2-5,2.1c-2.3,0.2-4.5-1-5.8-1.9c-0.8-0.5-1.8-0.6-2.6-0.2c-7.9,3.7-14.6-7.9-14.6-7.9l-3.5,2
		c0.7,14.4,14.1,29.3,28,29.3c14.2,0,27.3-14.3,29.8-28.8C296.4,83.7,296.5,83.1,296.5,82.6z"/>
	<path class="st10" d="M272.7,93.7c-1.6,0-5.7,3.3-10.1,1.6c-2.3-0.9-4.4-0.6-5.9-0.2c0,0.2-0.1,0.3-0.1,0.5c0,3,3.5,8.7,8.6,8.7
		c5.1,0,9.2-5.5,9.2-8.5C274.5,94.6,273.8,94,272.7,93.7L272.7,93.7"/>
	<path class="st9" d="M256.6,60.3l-3.4-5.1c0,0-12.9,4.1-8.5,10.9C244.7,66,251.8,60.8,256.6,60.3z"/>
	<path class="st9" d="M274.5,59.7l3.4-5.1c0,0,12.9,4.1,8.5,10.9C286.3,65.4,279.2,60.2,274.5,59.7z"/>
	<circle class="st11" cx="251.7" cy="74.2" r="7"/>
	<circle class="st11" cx="278.6" cy="73.8" r="7"/>
	<circle cx="251.6" cy="73.5" r="3.5"/>
	<circle class="st12" cx="251.6" cy="73.5" r="0.9"/>
	<path class="st11" d="M247.6,71.7c0,0,3.1-3.8,7.8,0"/>
	<circle cx="278.5" cy="73.8" r="3.5"/>
	<path class="st11" d="M282.4,72c0,0-3.1-3.8-7.8,0"/>
	<circle class="st12" cx="278.5" cy="73.5" r="0.9"/>
	<path class="st11" d="M261.6,66c0,0,3.3,15.2,0.3,18.6s4.5,4,6.1,1.9"/>
	<path class="st11" d="M258.8,72.3c0,0,5.4-4.2,12.8,0"/>
	<path class="st11" d="M259.8,97.4c0,0,4.4,6,11,0"/>
	<path class="st13" d="M252.7,117.5l-12.5,4.4c0,0,9.5,16.6,8.5,20.1c0,0,6.7-4.3,17.6-7.8L252.7,117.5z"/>
	<path class="st13" d="M282.5,114.5l11.6,5.9c0,0-6.4,15.1-8.4,22.3c0,0-8-8-14.9-7.9L282.5,114.5z"/>
	<line class="st4" x1="230.6" y1="158.4" x2="227" y2="196.5"/>
	<line class="st4" x1="311.2" y1="156.1" x2="313.8" y2="205.4"/>
	<path d="M100,185.9l-24.2-30.1l11.4-2.9L69.4,82.6c-0.9-3.4,0.6-6.7,3.3-7.4c2.7-0.7,5.6,1.5,6.4,4.9L97,150.4l9.8-2.5L100,185.9z"
		/>
	<path class="st14" d="M107.2,221.2c0,0-3.3-8.7-6.9-11.4c-3.6-2.7-18.2-11.5-29,9.5S60.7,264,67.1,276c6.4,12,13.8,24.1,14.3,29
		c0.5,4.9,8.2-2.5,10.8-8.2c2.6-5.6,0-17,0-17l-3-19.5l3-20.7L107.2,221.2z"/>
	<ellipse class="st0" cx="135.4" cy="266" rx="3.4" ry="7.7"/>
	<path class="st0" d="M102.2,289.7c0.3,0.9,0,11.7,0,11.7s8.8,6.9,17.4-1.1l-1.4-10.6H102.2z"/>
	<ellipse transform="matrix(0.9652 -0.2615 0.2615 0.9652 -67.4308 30.8905)" class="st0" cx="82.4" cy="268.9" rx="6.2" ry="7.9"/>
	<path class="st15" d="M84.1,226.4c0,0,0.7-16.4,16.2-8.1l-6.9,8.1H84.1z"/>
	<path class="st0" d="M135.4,261.4c-1.2,18.8-9.7,34.1-24.8,34.1c-14.7,0-27-13.9-29.2-32c2.4-2.1,5.5-5.7,6-10.6
		c0,0,21.9,7.6,30.6,3.3c0,0-4-2.7-4.6-4.3s10.2,1.3,14.5-4.3l4.8,17.9C132.6,265.4,133.9,264,135.4,261.4z"/>
	<path class="st14" d="M135.4,261.4c-1.5,2.6-2.8,4.1-2.8,4.1l-4.8-17.9c-4.3,5.6-15.2,2.7-14.5,4.3s4.6,4.3,4.6,4.3
		c-8.6,4.3-30.6-3.3-30.6-3.3c-0.4,4.9-3.6,8.5-6,10.6c-1.5,1.3-2.7,2-2.7,2l-5.1-11.4c-2.5-5.4-3-11.6-1.3-17.3
		c4.5-15.2,19.8-13.8,19.8-13.8c26.7-18.6,42.4,5.8,42.4,5.8C143.6,242.8,139,255.2,135.4,261.4z"/>
	<path class="st16" d="M87.2,242.5c0,0,0.4,8.5,0.1,10.3"/>
	<path class="st16" d="M104.3,240.7c0,0,6.1,11.2,10.1,10.6"/>
	<path class="st16" d="M115.6,235c0,0,3.8,10,12.2,12.5"/>
	<path class="st16" d="M96.1,225.5c0,0,37.2-14.4,39.3,25.2"/>
	<path class="st16" d="M87.2,229.7c0,0-13.9,4.8-8.5,35.7"/>
	<ellipse cx="98.1" cy="266.6" rx="2.8" ry="4.9"/>
	<g>
		<path d="M90.5,264.3c1.4-0.1,2.8-0.4,4.1-0.8c0.6-0.2,1.2-0.6,1.8-0.8c0.6-0.2,1.2-0.4,2-0.6l0,0c0,0,0.1,0,0.1,0.1c0,0,0,0,0,0
			c-0.3,0.8-0.8,1.4-1.5,1.8c-0.7,0.4-1.4,0.5-2.2,0.6c-1.5,0.2-3,0.2-4.4-0.2C90.4,264.4,90.4,264.4,90.5,264.3
			C90.4,264.3,90.4,264.3,90.5,264.3L90.5,264.3z"/>
	</g>
	<path class="st16" d="M100.3,260.6c0,0-6.7-3.3-9.5,1.9"/>
	<ellipse cx="120.5" cy="265.9" rx="2.8" ry="4.9"/>
	<g>
		<path d="M128.2,263.7c-1.4,0.4-2.9,0.4-4.4,0.2c-0.7-0.1-1.5-0.2-2.2-0.6c-0.6-0.4-1.2-1-1.5-1.8c0,0,0-0.1,0.1-0.1c0,0,0,0,0,0
			l0,0c0.8,0.1,1.4,0.4,2,0.6c0.6,0.2,1.2,0.6,1.8,0.8c1.3,0.5,2.7,0.7,4.1,0.8l0,0C128.2,263.6,128.2,263.6,128.2,263.7
			C128.2,263.7,128.2,263.7,128.2,263.7z"/>
	</g>
	<circle class="st12" cx="120.5" cy="265.3" r="1.1"/>
	<circle class="st12" cx="98.4" cy="265.3" r="1.1"/>
	<path class="st16" d="M118.3,259.9c0,0,6.7-3.3,9.5,1.9"/>
	<path class="st16" d="M107.3,273.3c0,0,4.2-2.2,6.2,0"/>
	<path class="st16" d="M102.2,281c0,0,10.5,13.5,16.6-1.2"/>
	<line class="st17" x1="52.5" y1="496.2" x2="459.5" y2="496.2"/>
	<g>
		<path class="st18" d="M434.4,265.4c0,0-7.9,14.5-6.8,21.2c0.2,1.4,1.9,2,3,1.1l2.2-1.9c0,0-1.1,27,2.6,20.1l3.4-13.2
			c0,0,2.2,27.4,5,13.5l1.4-13.3c0,0,3.9,24.2,5,12c1.1-12.2,0-12.8,0-12.8s3.4,14.4,4.5,9.3c1.1-5.1-3.7-33.7-9-37.2
			C440.3,260.6,434.4,265.4,434.4,265.4z"/>
		<path class="st19" d="M397.8,191.7c0,0,31.8,56.3,35.2,77.1c0,0,12-0.7,14.4-3.2c2.4-2.6-27.2-117.1-48.9-119L397.8,191.7z"/>
		<path class="st20" d="M348.6,459.8c0,0-2.4,16.4-17.3,23.8c-14.9,7.5,6.7,14.9,11.8,11.8c2.7-1.7,16.3-9.1,20.8-10.5
			c4.6-1.4,8.5-5.6,1.6-25.1C358.6,440.3,348.6,459.8,348.6,459.8z"/>
		<path class="st20" d="M386.9,458.6l-2,19.2c-0.4,3.9,2.1,7.7,6,8.4c0.4,0.1,0.8,0.1,1.3,0.1c4.3,0,9.6,2.9,14.2,5.8
			c4.6,2.9,27.2,6,27.7-1.7c0.5-7.7-12.4-10.2-18.4-17s-9.3-8.8-10.8-19.8S386.9,458.6,386.9,458.6z"/>
		<path class="st21" d="M336,262.5c0,0-9.6,11.5-4.7,47.5s12.4,151.1,12.4,151.1s10,11.4,24.1,0l5-138.3l11.8,138.1
			c0,0,9.7,9.6,23.5-1.3c0,0,17.1-184.7,0-198c-17.1-13.3-45.3-12-45.3-12L336,262.5z"/>
		<path class="st22" d="M369.3,38.9c0,0-22.4-14-36.1,9.1c0,0-5.5,12.3-5.3,20.2s-3.6,19.5-4.8,22.2c-1.2,2.6-6.3,14.7-2.4,20.2
			c3.9,5.5,4.6,9.6,2.9,14.9c-1.7,5.3,0,11.6,4.3,12.3c4.3,0.7,3.9,6.5,4.6,9.4c0.7,2.9,10.4,5.8,10.4,5.8h32l19.5,3.1
			c0,0,15.2-7.9,16.1-19c1-11.1,2.2-21.7,6-27.2c3.9-5.5,1.9-17.6-1.9-24.8s-4.3-22.2-5.1-25.5C408.7,56.2,401.6,27.8,369.3,38.9z"
			/>
		<ellipse class="st18" cx="341.7" cy="92.6" rx="3.3" ry="8.2"/>
		<path class="st19" d="M409.6,156.2c-1.9-3.7-6.6-8.2-10.5-10.7c-1.6-1-3.5-1.5-5.4-1.5l-30.8,0.5c0,0-26.5-4.1-33.6,9.9
			c-7.1,14-14.3,58.4-14.8,62.3c-0.4,2.9-1.8,53.1-1.8,53.1s5.6,3.5,13.8-1.1c0,0,1.4-40.6,10.3-69.8c0,0,5.6,14.9,6.3,21
			c0.6,6.1-21.1,77.1-21.1,77.1s50.4,23,98.7-2c0,0-23.6-67.9-18.8-80.1c1.6-4,2.7-7.1,3.5-9.6"/>
		<path class="st23" d="M338.6,178.7c0,0-4.5,12.4-1.8,20.2"/>
		<path class="st23" d="M406.1,178.7c0,0,1.9,17-0.9,26.7"/>
		<path class="st23" d="M313.5,260.4c0,0,5,3.9,13.6-1.3"/>
		<path class="st23" d="M429.5,256.1c0,0,8.8,3.8,15.3-2.8"/>
		<path class="st20" d="M363.1,141.8c0,0-11,2.8-9.3,8.8c0.6,2.1,2.4,3.6,4.5,4l2.4,0.5c0,0-5,14.1,9.3,10.1c0,0,9.8,9.1,13-4
			c0,0,14.3-1.9,5-12.5c0,0,6.3-7.5-2.6-8.2l-20.6,2.2L363.1,141.8z"/>
		<ellipse class="st18" cx="397.9" cy="92.8" rx="3.3" ry="8.2"/>
		<path class="st18" d="M360.7,120.8c0,0,3,18-1.4,22c0,0,8.8,23.6,17.5,13.4c8.5-10,8.5-15.7,8.5-15.7s-5.9-5-2.6-21.2L360.7,120.8
			z"/>
		<g>
			<path class="st18" d="M314,272.6c-1,4.2-3,13.1-2.8,21.2c0.1,2.4,0.5,4.8,1.4,7c1.1,2.7,2.9,5.1,5,1c0,0,4.6,15.9,6.5,4.2
				c0,0,9.9,13.1,5.3-13.8c0,0,6.8,18.1,7.1,8.8c0.1-1.9-0.3-3.9-0.9-5.7c-1.4-4.2-3.9-13-0.1-10.7c0,0,4.2,3.7,4.8,0.5
				c0.5-2.9-13.2-12.3-16.3-14.4c-0.4-0.3-1.2,0.1-1.6,0.1l-5.5,0.3C315.5,271,314.3,271.2,314,272.6z"/>
			<path class="st23" d="M318.3,292.4c0,0-0.6,3.9-0.7,9.3"/>
			<line class="st23" x1="322.8" y1="293.6" x2="324" y2="305.9"/>
		</g>
		<path class="st18" d="M397.7,88c0,21.4-12.4,38.8-27.7,38.8c-15.3,0-27.7-17.4-27.7-38.8c0-6,1-11.8,2.8-16.9v0h0
			c2.6-2.2,6.1-4.3,11-6c6.4-2.2,10.3-5.1,12.7-8.1c-2.2,3.5,18.1,16.2,23.2,18.6c2.4,1.1,4.1,3.4,5.3,5.5
			C397.6,83.4,397.7,85.7,397.7,88z"/>
		<path class="st23" d="M369.3,38.9c0,0,6.3,9.9-0.6,18.2"/>
		<path class="st23" d="M338.5,79.9c0,0,3-9,8.8-10.5"/>
		<path class="st23" d="M349.1,74.7c0,0,8.7-5.2,13.7-1"/>
		<path class="st23" d="M372,72.8c0,0,6.3-2.4,14,3.1"/>
		<ellipse cx="356.4" cy="87.2" rx="3" ry="5.3"/>
		<circle class="st12" cx="356.5" cy="86.5" r="0.8"/>
		<path class="st23" d="M350.8,84.2c0,0,4.7-4.6,10.4-0.6"/>
		<ellipse cx="379.8" cy="87.5" rx="3" ry="5.3"/>
		<circle class="st12" cx="379.7" cy="86.8" r="0.8"/>
		<path class="st23" d="M385.4,84.5c0,0-4.7-4.6-10.4-0.6"/>
		<path class="st23" d="M366.3,77.7c0,0,2.2,15.8-0.7,19.6c0,0,1,3.3,6.4,0.7"/>
		<path class="st23" d="M360.7,107c0,0,10.2,15.1,20.3,0"/>
		<path class="st23" d="M375.6,306.6c0,0-2.4,5-2.8,16.1"/>
		<g>
			<path class="st18" d="M402,222.2c0,0,6.1,3.1-1.6,5.5s-12.3,6-0.7,6.4c0,0-16.6,6.9-1.2,7.8c0,0-13,8.4,3.5,6.7
				c0,0-12,9.1,6.1,5.7c0,0,10.5-1,7.3-7.2c0,0,3.6-5.9-2-6.6c0,0,4.7-7.2-1.3-8.5C412.1,232,416.4,220.2,402,222.2z"/>
			<line class="st18" x1="407.8" y1="234.1" x2="399.7" y2="234.1"/>
			<line class="st18" x1="407.8" y1="240.9" x2="398.5" y2="242"/>
			<line class="st18" x1="410" y1="246.7" x2="402" y2="248.7"/>
		</g>
	</g>
</g>
</svg>
