<?xml version="1.0" encoding="utf-8"?>
<!-- Generator: Adobe Illustrator 22.1.0, SVG Export Plug-In . SVG Version: 6.00 Build 0)  -->
<svg version="1.1" id="Слой_5" xmlns="http://www.w3.org/2000/svg" xmlns:xlink="http://www.w3.org/1999/xlink" x="0px" y="0px"
	 viewBox="0 0 512 512" style="enable-background:new 0 0 512 512;" xml:space="preserve">
<style type="text/css">
	.st0{fill:#FDCD95;stroke:#000000;stroke-width:1.5;stroke-linecap:round;stroke-linejoin:round;stroke-miterlimit:10;}
	.st1{fill:none;stroke:#000000;stroke-width:3;stroke-linecap:round;stroke-linejoin:round;stroke-miterlimit:10;}
	.st2{fill:#634940;stroke:#000000;stroke-width:1.6358;stroke-linecap:round;stroke-linejoin:round;stroke-miterlimit:10;}
	.st3{fill:#634940;stroke:#000000;stroke-width:1.5;stroke-linecap:round;stroke-linejoin:round;stroke-miterlimit:10;}
	.st4{fill:#45415E;stroke:#000000;stroke-width:1.5;stroke-linecap:round;stroke-linejoin:round;stroke-miterlimit:10;}
	.st5{fill:none;stroke:#000000;stroke-width:1.5;stroke-linecap:round;stroke-linejoin:round;stroke-miterlimit:10;}
	.st6{fill:#FFD551;stroke:#000000;stroke-width:1.5;stroke-linecap:round;stroke-linejoin:round;stroke-miterlimit:10;}
	.st7{fill:#857154;stroke:#000000;stroke-width:1.5;stroke-linecap:round;stroke-linejoin:round;stroke-miterlimit:10;}
	.st8{fill:#FFFFFF;}
	.st9{fill:#FFFCCB;stroke:#000000;stroke-width:1.5;stroke-linecap:round;stroke-linejoin:round;stroke-miterlimit:10;}
	.st10{fill:#472B25;stroke:#000000;stroke-width:1.5;stroke-linecap:round;stroke-linejoin:round;stroke-miterlimit:10;}
	.st11{fill:#816164;stroke:#000000;stroke-width:1.5;stroke-linecap:round;stroke-linejoin:round;stroke-miterlimit:10;}
	.st12{fill:#EECE3C;stroke:#000000;stroke-width:1.5;stroke-linecap:round;stroke-linejoin:round;stroke-miterlimit:10;}
	.st13{fill:#97B043;stroke:#000000;stroke-width:1.5;stroke-linecap:round;stroke-linejoin:round;stroke-miterlimit:10;}
	.st14{fill:#DFD977;stroke:#000000;stroke-width:1.5;stroke-linecap:round;stroke-linejoin:round;stroke-miterlimit:10;}
	.st15{fill:#FDC663;stroke:#000000;stroke-width:1.5;stroke-linecap:round;stroke-linejoin:round;stroke-miterlimit:10;}
</style>
<g>
	<path class="st0" d="M191.7,198.8c1.8,3.4,16.5,17.8,31.4,15.7s-2.9-31.1-2.9-31.1l-15.5-13.9l-13.6,4.7L191.7,198.8z"/>
	<line class="st1" x1="52.5" y1="499.2" x2="459.5" y2="499.2"/>
	<path d="M271.8,214.6l3.8,0.8L275,221c0,0-7.3,1-8,1.3s-4.1-4.3-4.1-4.3l6.8-3.5H271.8z"/>
	<path class="st2" d="M178.9,461.7c0,0,20.4,33.5,9.8,35.1s-32.2,6.2-32.2-5.8s6.1-29.2,6.1-29.2H178.9z"/>
	<path class="st3" d="M117.6,463c1,0.5,1.7,1.3,2,2.4c1.8,6.2,7.5,27.9-2.8,29c-9.1,1-33.8,3.8-43.5-0.4c-3.4-1.4-3.1-6.3,0.4-7.4
		c3.3-1,8.7-3,17.5-6.7c10.3-4.4,13.2-12.2,13.8-17.6c0.3-2.7,3.2-4.3,5.7-3L117.6,463z"/>
	<path class="st4" d="M182.8,264.7l1.3,199.3c0,0-8,7-25.3,0l-15-160l-21,166.4c0,0-13.7,4.5-23.7-4.5l5.7-200L182.8,264.7z"/>
	<g>
		<path class="st0" d="M78.2,190.3c0,0-3.8,90.3-4.5,92.8s-4.5,30.5,8,36c0,0,2.5,0.9,4.5-0.2c1.2-0.7,1.7-2.1,1.3-3.4
			c-1.4-4.8-5.2-19.7,0.5-21.5c0,0,8.7,11.1,6.9,2.1c-0.1-0.6-5.3-12.3-5-19.3s4.3-52,4.3-52l2.4-33.3L78.2,190.3z"/>
		<path class="st5" d="M77,305.2c0,0,2.1,10.5,6.1,14.2"/>
		<path class="st5" d="M80,304.2c0,0,2.7,11.6,6.2,14.7"/>
	</g>
	<path class="st6" d="M164,117.7c0,0,26.9,4.9,30.4,11.9c3.5,7,19.5,59.1,19.5,59.1s-9.9,11.9-28.9,4.8l1,75.9c0,0-40,25.7-85.7,2.4
		l-2.2-78c0,0-15.5-0.2-20.7-3.3c0,0,2.7-57.3,21.2-64.4s27.8-9.7,27.8-9.7L164,117.7z"/>
	<path class="st0" d="M159.7,98l-1.6,21.6c0,0-9.6,6.5-14.9,14.7c0,0-2-5.9-13.4-16.2l2-20.1c0,0,8,5.1,11.5,5.3
		S159.7,99.2,159.7,98z"/>
	<path class="st7" d="M176.9,72.3l-64.2-1.4c0,0-10.5-38.8,19-54c14.8-7.6,27.1-3.6,34.8,2.7c7.5,6,12.2,14.9,13.5,24.5
		C181.2,53.7,181.9,67.3,176.9,72.3z"/>
	<path class="st0" d="M121,46.5c1.9-6.5,6-11.3,14.6-6c8.8,5.4,15.5,0.7,18.7-0.9c1.8-0.9,3.8-1.9,5.8-1.6
		c12.5,1.5,10.7,13.9,10.7,13.9c2,5.3,2,9.7,2,16.1c0,0.3,0,0.6,0,0.9c2.3-2.1,6.8-5,8.3,1.5c1.9,8.4-5.7,14.2-9.7,10
		c-3.8,15.3-14.4,26.3-26.9,26.3c-12.7,0-23.5-11.4-27.1-27.1v0c-6.8,1.7-8-7.6-6.5-11.6c1-2.6,3.3-1.9,5.3-0.7
		c0.1-7.9,2-15.3,5.1-21.4c0,0,0,0,0,0"/>
	<path class="st7" d="M115.4,79.5l3.2-2.5c0-0.1,0,0,0,0l0,0c0,0.2,0.7,1.2,4.9,6.2c4.5,5.3,12.7,3.8,16,2.9
		c0.8-0.2,1.7-0.1,2.4,0.5c1.1,0.8,2.9,2,4.9,2.1c2.3,0.2,4.5-1,5.8-1.9c0.8-0.5,1.8-0.6,2.6-0.2c7.9,3.7,14.6-7.9,14.6-7.9l3.5,2
		c-0.7,14.4-14.1,29.3-28,29.3c-14.2,0-27.2-14.3-29.7-28.8C115.5,80.6,115.4,80,115.4,79.5z"/>
	<path class="st0" d="M139.3,90.6c1.6,0,5.7,3.3,10.1,1.6c2.3-0.9,4.4-0.6,6-0.2c0,0.2,0,0.3,0,0.5c0,3-3.5,8.7-8.6,8.7
		c-5.1,0-9.2-5.5-9.2-8.5C137.5,91.5,138.2,90.9,139.3,90.6L139.3,90.6"/>
	<path class="st7" d="M155.4,57.2l3.4-5.1c0,0,12.9,4.1,8.5,10.9C167.2,62.9,160.1,57.7,155.4,57.2z"/>
	<path class="st7" d="M137.5,56.6l-3.4-5.1c0,0-12.9,4.1-8.5,10.9C125.6,62.3,132.7,57.1,137.5,56.6z"/>
	<circle class="st5" cx="160.2" cy="71.1" r="7"/>
	<circle class="st5" cx="133.4" cy="70.7" r="7"/>
	<circle cx="160.4" cy="70.4" r="3.5"/>
	<circle class="st8" cx="160.4" cy="70.4" r="0.9"/>
	<path class="st5" d="M164.4,68.6c0,0-3.1-3.8-7.8,0"/>
	<circle cx="133.5" cy="70.7" r="3.5"/>
	<path class="st5" d="M129.5,68.9c0,0,3.1-3.8,7.8,0"/>
	<circle class="st8" cx="133.5" cy="70.4" r="0.9"/>
	<path class="st5" d="M150.4,62.9c0,0-3.3,15.2-0.3,18.6s-4.5,4-6.1,1.9"/>
	<path class="st5" d="M153.2,69.3c0,0-5.4-4.2-12.8,0"/>
	<path class="st5" d="M152.1,94.3c0,0-4.4,6-11,0"/>
	<path class="st9" d="M159.3,114.4l12.5,4.4c0,0-9.5,16.6-8.5,20.1c0,0-6.7-4.3-17.6-7.8L159.3,114.4z"/>
	<path class="st9" d="M129.5,111.4l-11.6,5.9c0,0,6.4,15.1,8.4,22.2c0,0,8-8,14.9-7.9L129.5,111.4z"/>
	<line class="st5" x1="181.4" y1="155.3" x2="185" y2="193.4"/>
	<line class="st5" x1="100.8" y1="153" x2="98.1" y2="193.7"/>
	<path class="st10" d="M377.6,271l-1,10.2c0,0-7.1-5.4-6.9-8.1l-1.4,4.7c0,0-7.1-5.4-8.4-15.5c0,0-2.9,4.2-2.8,6.2
		c0,0-13.5-51.3,35.1-53.9c0,0,3.7-2.1,5.2-3.7c0.3-0.3,0.8-0.2,1,0.2c0.4,1.2,1.2,2.9,2.3,3.7c1.8,1.3,15.6-2,26.2,21.1
		c0,0,9.3,20.6-1.4,35.7l-3.4-5.4c0,0-1.8,9.3-2.9,10.6l-2.2-3.4l-3.9,7.1l-3.3-6.6l-8,0.8l-10.1,2.3l-9.6-2.8L377.6,271z"/>
	<path class="st11" d="M366.4,479.9c0,0-18.3,7.8-17.3,13.5s9,4,21.8,4.8s18-2.5,14-15.5S366.4,479.9,366.4,479.9z"/>
	<path class="st12" d="M362.4,494.1c0,0,3.7-1.9,4-3.1c0.3-1.2-5.7-8.4-5.7-8.4l-5,2.9L362.4,494.1z"/>
	<path class="st11" d="M419.1,480.6c0,0,18.3,7.8,17.3,13.5s-9,4-21.8,4.8s-18-2.5-14-15.5S419.1,480.6,419.1,480.6z"/>
	<path class="st12" d="M423.1,494.8c0,0-3.7-1.9-4-3.1c-0.3-1.2,5.7-8.4,5.7-8.4l5,2.9L423.1,494.8z"/>
	<path class="st0" d="M420.9,341.9c0,0,0.5,17,3.8,31.3s5.5,17.3,1.5,17.8s-12.8,6.5,0,6.5c0,0-6.7,14.3,2.1,4.5c0,0,3.6-3,2.9,1.5
		s-0.3,15,2.8,7.5l1.4-7c0,0,1.6,10.4,5,10.2c0.8,0,1.3-0.8,1.3-1.5v-2.7c0,0,2.5-1,0-10.3s-3-4.8-3.8-17.5s-6.8-42.3-6.8-42.3
		L420.9,341.9z"/>
	<path class="st0" d="M359.9,321.2c0,0-9,3.8-19-8.4s-12-9.3-9.5-15.5s-2-15.4-8.3-16.1c-6.3-0.6-5.1,8.9-5.1,8.9s-2.9,17.6,6.3,18
		c0,0,19,39.2,28.3,34.2s13.5-9.5,13.5-9.5L359.9,321.2z"/>
	<path class="st12" d="M370.4,373.4l-7,109c0,0,7.8,7.5,24.5,1.5l4-83l6.3,82c0,0,9.8,4.8,22.8-3.5l-5.5-106l-21.3-6L370.4,373.4z"
		/>
	<line class="st5" x1="439.8" y1="402.4" x2="441.7" y2="409.9"/>
	<path class="st0" d="M386.7,276.6c-0.2,0.7,0,23.5,0,23.5l11.9-0.8v-23.3L386.7,276.6z"/>
	<path class="st11" d="M385.7,292.2c0,0-9.8-0.3-13.8,2.9c-4,3.2-19,24-19,24s6.8,17.8,6,21.5l9.1-5.5v41c0,0,12.2,9.5,50.4,1.5
		v-30.5c0,0,10.8,1.1,16-4.3c4.7-4.9-9.9-35.9-19-46.5c-1.5-1.7-3.6-2.8-5.9-2.9l-11-0.5C398.6,293,394.5,302.4,385.7,292.2z"/>
	<line class="st5" x1="368.2" y1="323.4" x2="368" y2="335.1"/>
	<line class="st5" x1="417.2" y1="323.4" x2="418.4" y2="347.1"/>
	<ellipse class="st0" cx="420.1" cy="255.8" rx="3.7" ry="5.9"/>
	<ellipse class="st0" cx="367.6" cy="256.9" rx="3.7" ry="5.9"/>
	<path class="st0" d="M421,255.3c0,14.3-11.6,30.3-26,30.3c-14.3,0-27-16.1-27-30.5c0-1.1,0.1-2.3,0.2-3.3c0.5-3.5,1.9-6.5,3.9-9
		c2.5,2.4,4.7,4.6,4.7,4.6s0.1-8.5-0.6-11.9c0.2-0.1,6.2,8.7,6.2,8.7s4.7-3.8,4.7-6.2c0,0,3.7,6.4,5.3,6.3c1.3-0.1,3-6.9,2.9-10.7
		c0.1,0,2.2,10.2,3.8,11.7c1.5,1.5,5.9-5.5,8-9.6c0.7,0.2,4,7.8,4.2,8.4c0.1,0.5,2.4-1.2,4.2-3.2c2.1,2.2,3.7,4.8,4.6,8
		C420.7,250.9,421,253,421,255.3z"/>
	<ellipse cx="383.4" cy="254.9" rx="2.4" ry="4.9"/>
	<circle class="st8" cx="382.6" cy="253" r="1.5"/>
	<path class="st5" d="M378.5,251.8c0,0,4.1-3.2,8.3-0.6"/>
	<ellipse cx="403.9" cy="254.8" rx="2.4" ry="4.9"/>
	<circle class="st8" cx="403.2" cy="253" r="1.5"/>
	<path class="st5" d="M408.9,251.7c0,0-4.1-3.2-8.3-0.6"/>
	<path class="st5" d="M390.6,261.3c0,0,2.9-2.2,5.9,0"/>
	<path class="st5" d="M384.9,270.2c0,0,10.3,10.7,17.6-0.6"/>
	<path class="st5" d="M375.4,248.5c0,0,6.2-5.8,13.2-2.1"/>
	<path class="st5" d="M398.6,246c0,0,6.3-3.3,12.2,0.8"/>
	<g>
		<path class="st0" d="M306.9,259.7c0,0-8.2,15.1-7,22c0.2,1.4,2,2.1,3.1,1.1l2.3-2c0,0-1.2,28,2.7,20.8l3.5-13.7
			c0,0,2.3,28.5,5.2,14l1.5-13.8c0,0,4,25.2,5.2,12.5c1.2-12.7,0-13.3,0-13.3s3.5,15,4.7,9.7c1.2-5.3-3.8-35-9.3-38.7
			C313.1,254.6,306.9,259.7,306.9,259.7z"/>
		<path class="st13" d="M268.9,183.1c0,0,33,58.5,36.5,80c0,0,12.5-0.7,15-3.3c2.5-2.7-28.3-121.5-50.8-123.5L268.9,183.1z"/>
		<path class="st14" d="M217.8,461.5c0,0-2.5,17-18,24.8s7,15.5,12.3,12.3c2.8-1.7,16.9-9.4,21.6-10.9s8.8-5.8,1.6-26.1
			C228.2,441.2,217.8,461.5,217.8,461.5z"/>
		<path class="st14" d="M257.6,460.2l-2,19.9c-0.4,4.1,2.2,8,6.2,8.7c0.4,0.1,0.9,0.1,1.3,0.1c4.5,0,10,3,14.8,6s28.3,6.3,28.8-1.8
			s-12.9-10.5-19.1-17.6c-6.2-7.1-9.7-9.1-11.2-20.6S257.6,460.2,257.6,460.2z"/>
		<path class="st3" d="M204.8,256.7c0,0-10,12-4.8,49.3c5.2,37.3,12.8,156.8,12.8,156.8s10.3,11.8,25,0l5.2-143.6l12.3,143.4
			c0,0,10.1,10,24.4-1.3c0,0,17.7-191.8,0-205.6s-47.1-12.4-47.1-12.4L204.8,256.7z"/>
		<path class="st15" d="M239.3,24.5c0,0-23.3-14.5-37.5,9.5c0,0-5.8,12.8-5.5,21s-3.8,20.3-5,23s-6.5,15.3-2.5,21s4.8,10,3,15.5
			s0,12,4.5,12.8s4,6.8,4.8,9.8s10.8,6,10.8,6h33.3l20.3,3.3c0,0,15.8-8.3,16.8-19.8s2.3-22.5,6.3-28.3s2-18.3-2-25.8
			s-4.5-23.1-5.3-26.5C280.3,42.5,272.8,13,239.3,24.5z"/>
		<ellipse class="st0" cx="210.7" cy="80.2" rx="3.4" ry="8.5"/>
		<path class="st13" d="M281.1,146.2c-2-3.8-6.8-8.5-10.9-11.1c-1.7-1-3.6-1.6-5.6-1.5l-32,0.5c0,0-27.5-4.3-34.8,10.3
			c-7.3,14.6-14.8,60.7-15.3,64.7c-0.4,3-1.8,55.2-1.8,55.2s5.8,3.7,14.3-1.2c0,0,1.5-42.2,10.7-72.5c0,0,5.8,15.5,6.5,21.8
			c0.7,6.3-22,80.1-22,80.1s52.3,23.9,102.5-2.1c0,0-24.5-70.5-19.5-83.1c1.6-4.1,2.8-7.4,3.6-9.9"/>
		<path class="st5" d="M207.4,169.6c0,0-4.7,12.8-1.8,21"/>
		<path class="st5" d="M277.6,169.6c0,0,2,17.6-0.9,27.7"/>
		<path class="st5" d="M181.4,254.4c0,0,5.1,4,14.1-1.3"/>
		<path class="st5" d="M301.9,250c0,0,9.1,4,15.9-2.9"/>
		<path class="st14" d="M232.9,131.3c0,0-11.4,2.9-9.7,9.2c0.6,2.2,2.5,3.7,4.7,4.1l2.5,0.5c0,0-5.2,14.7,9.7,10.5
			c0,0,10.2,9.5,13.5-4.2c0,0,14.8-2,5.2-13c0,0,6.5-7.8-2.8-8.5l-21.4,2.3L232.9,131.3z"/>
		<ellipse class="st0" cx="269" cy="80.4" rx="3.4" ry="8.5"/>
		<path class="st0" d="M230.4,109.5c0,0,3.2,18.7-1.4,22.8c0,0,9.2,24.5,18.2,13.9C256,135.8,256,130,256,130s-6.1-5.2-2.7-22
			L230.4,109.5z"/>
		<g>
			<path class="st0" d="M181.9,267.1c-1.1,4.3-3.1,13.6-2.9,22c0.1,2.5,0.5,4.9,1.4,7.2c1.1,2.8,3,5.3,5.2,1c0,0,4.8,16.5,6.8,4.4
				c0,0,10.3,13.6,5.5-14.4c0,0,7,18.8,7.4,9.2c0.1-2-0.3-4-0.9-5.9c-1.4-4.4-4-13.5-0.1-11.1c0,0,4.4,3.9,5,0.5
				c0.6-3-13.7-12.8-16.9-14.9c-0.4-0.3-1.2,0.1-1.7,0.1l-5.7,0.3C183.5,265.4,182.3,265.6,181.9,267.1z"/>
			<path class="st5" d="M186.3,287.7c0,0-0.6,4-0.8,9.6"/>
			<line class="st5" x1="191.1" y1="289" x2="192.3" y2="301.7"/>
		</g>
		<path class="st0" d="M268.8,75.5c0,22.2-12.9,40.3-28.8,40.3c-15.9,0-28.8-18-28.8-40.3c0-6.3,1-12.2,2.9-17.5v0h0
			c2.7-2.3,6.3-4.5,11.4-6.2c6.6-2.3,10.7-5.3,13.2-8.4c-2.3,3.7,18.8,16.9,24.1,19.4c2.4,1.2,4.3,3.5,5.5,5.7
			C268.7,70.7,268.8,73.1,268.8,75.5z"/>
		<path class="st5" d="M239.3,24.5c0,0,6.6,10.3-0.6,18.9"/>
		<path class="st5" d="M207.3,67.1c0,0,3.1-9.4,9.1-10.9"/>
		<path class="st5" d="M218.3,61.7c0,0,9-5.4,14.3-1"/>
		<path class="st5" d="M242.1,59.7c0,0,6.5-2.5,14.6,3.3"/>
		<ellipse cx="225.9" cy="74.7" rx="3.1" ry="5.5"/>
		<circle class="st8" cx="226.1" cy="73.9" r="0.8"/>
		<path class="st5" d="M220.2,71.6c0,0,4.9-4.8,10.8-0.7"/>
		<ellipse cx="250.3" cy="74.9" rx="3.1" ry="5.5"/>
		<circle class="st8" cx="250.1" cy="74.2" r="0.8"/>
		<path class="st5" d="M256,71.8c0,0-4.9-4.8-10.8-0.7"/>
		<path class="st5" d="M236.2,64.8c0,0,2.3,16.4-0.8,20.3c0,0,1,3.4,6.7,0.8"/>
		<path class="st5" d="M230.4,95.1c0,0,10.5,15.7,21.1,0"/>
		<path class="st5" d="M245.9,302.5c0,0-2.5,5.2-2.9,16.7"/>
		<g>
			<path class="st0" d="M273.3,214.8c0,0,6.4,3.3-1.6,5.8s-12.8,6.3-0.8,6.6c0,0-17.2,7.1-1.2,8.1c0,0-13.5,8.8,3.6,7
				c0,0-12.5,9.5,6.4,5.9c0,0,10.9-1,7.6-7.5c0,0,3.8-6.1-2.1-6.9c0,0,4.9-7.5-1.4-8.9C283.8,224.9,288.3,212.7,273.3,214.8z"/>
			<line class="st0" x1="279.3" y1="227.2" x2="270.9" y2="227.2"/>
			<line class="st0" x1="279.3" y1="234.2" x2="269.6" y2="235.3"/>
			<line class="st0" x1="281.6" y1="240.2" x2="273.3" y2="242.3"/>
		</g>
	</g>
	<path d="M403.3,201.6l2.1-38.6l10.4,5.4l33.5-64.3c1.6-3.1,4.9-4.6,7.4-3.3c2.5,1.3,3.1,4.9,1.5,8l-33.5,64.3l9,4.7L403.3,201.6z"
		/>
</g>
</svg>
