<?xml version="1.0" encoding="utf-8"?>
<!-- Generator: Adobe Illustrator 22.1.0, SVG Export Plug-In . SVG Version: 6.00 Build 0)  -->
<svg version="1.1" id="Слой_5" xmlns="http://www.w3.org/2000/svg" xmlns:xlink="http://www.w3.org/1999/xlink" x="0px" y="0px"
	 viewBox="0 0 512 512" style="enable-background:new 0 0 512 512;" xml:space="preserve">
<style type="text/css">
	.st0{fill:none;stroke:#000000;stroke-width:3;stroke-linecap:round;stroke-linejoin:round;stroke-miterlimit:10;}
	.st1{fill:#FDCD95;stroke:#000000;stroke-width:1.3815;stroke-linecap:round;stroke-linejoin:round;stroke-miterlimit:10;}
	.st2{fill:#634940;stroke:#000000;stroke-width:1.5065;stroke-linecap:round;stroke-linejoin:round;stroke-miterlimit:10;}
	.st3{fill:#634940;stroke:#000000;stroke-width:1.3815;stroke-linecap:round;stroke-linejoin:round;stroke-miterlimit:10;}
	.st4{fill:#45415E;stroke:#000000;stroke-width:1.3815;stroke-linecap:round;stroke-linejoin:round;stroke-miterlimit:10;}
	.st5{fill:none;stroke:#000000;stroke-width:1.3815;stroke-linecap:round;stroke-linejoin:round;stroke-miterlimit:10;}
	.st6{fill:#FFD551;stroke:#000000;stroke-width:1.3815;stroke-linecap:round;stroke-linejoin:round;stroke-miterlimit:10;}
	.st7{fill:#857154;stroke:#000000;stroke-width:1.3815;stroke-linecap:round;stroke-linejoin:round;stroke-miterlimit:10;}
	.st8{fill:#FFFFFF;}
	.st9{fill:#FFFCCB;stroke:#000000;stroke-width:1.3815;stroke-linecap:round;stroke-linejoin:round;stroke-miterlimit:10;}
	.st10{fill:#472B25;stroke:#000000;stroke-width:1.3815;stroke-linecap:round;stroke-linejoin:round;stroke-miterlimit:10;}
	.st11{fill:#816164;stroke:#000000;stroke-width:1.3815;stroke-linecap:round;stroke-linejoin:round;stroke-miterlimit:10;}
	.st12{fill:#EECE3C;stroke:#000000;stroke-width:1.3815;stroke-linecap:round;stroke-linejoin:round;stroke-miterlimit:10;}
	.st13{fill:#F9D1AA;stroke:#000000;stroke-width:1.3815;stroke-linecap:round;stroke-linejoin:round;stroke-miterlimit:10;}
	.st14{fill:#97B043;stroke:#000000;stroke-width:1.3815;stroke-linecap:round;stroke-linejoin:round;stroke-miterlimit:10;}
	.st15{fill:#DFD977;stroke:#000000;stroke-width:1.3815;stroke-linecap:round;stroke-linejoin:round;stroke-miterlimit:10;}
	.st16{fill:#FDC663;stroke:#000000;stroke-width:1.3815;stroke-linecap:round;stroke-linejoin:round;stroke-miterlimit:10;}
	.st17{fill:#B784AC;stroke:#000000;stroke-width:1.3815;stroke-linecap:round;stroke-linejoin:round;stroke-miterlimit:10;}
	.st18{fill:#F9D1AA;stroke:#000000;stroke-linecap:round;stroke-linejoin:round;stroke-miterlimit:10;}
	.st19{fill:#FFEB88;stroke:#000000;stroke-width:2;stroke-linecap:round;stroke-linejoin:round;stroke-miterlimit:10;}
	.st20{fill:#F9D1AA;stroke:#000000;stroke-width:2.0411;stroke-miterlimit:10;}
	.st21{fill:#969B96;stroke:#000000;stroke-width:2;stroke-linecap:round;stroke-linejoin:round;stroke-miterlimit:10;}
	.st22{fill:none;stroke:#000000;stroke-linecap:round;stroke-linejoin:round;stroke-miterlimit:10;}
	.st23{fill:none;stroke:#000000;stroke-width:2;stroke-linecap:round;stroke-linejoin:round;stroke-miterlimit:10;}
	.st24{fill:none;stroke:#000000;stroke-width:9;stroke-linecap:round;stroke-linejoin:round;stroke-miterlimit:10;}
</style>
<g>
	<line class="st0" x1="4.9" y1="480.8" x2="507.1" y2="480.8"/>
	<path class="st1" d="M391.3,202.5c-1.7,3.1-15.2,16.4-28.9,14.5c-13.7-1.9,2.7-28.6,2.7-28.6l14.3-12.8l12.5,4.4L391.3,202.5z"/>
	<path d="M317.5,217l-3.5,0.7l0.6,5.2c0,0,6.7,0.9,7.4,1.2s3.8-3.9,3.8-3.9l-6.3-3.2H317.5z"/>
	<path class="st2" d="M403.1,444.6c0,0-18.7,30.9-9.1,32.3c9.7,1.4,29.7,5.7,29.7-5.4c0-11.1-5.6-26.9-5.6-26.9H403.1z"/>
	<path class="st3" d="M459.5,445.8c-0.9,0.5-1.5,1.2-1.8,2.2c-1.7,5.7-6.9,25.7,2.6,26.8c8.4,0.9,31.1,3.5,40.1-0.3
		c3.1-1.3,2.9-5.8-0.3-6.8c-3-0.9-8.1-2.7-16.1-6.2c-9.5-4.1-12.1-11.2-12.7-16.2c-0.3-2.5-3-4-5.2-2.8L459.5,445.8z"/>
	<path class="st4" d="M399.5,263.2l-1.2,183.6c0,0,7.4,6.4,23.3,0l13.8-147.3l19.3,153.3c0,0,12.6,4.1,21.8-4.1l-5.2-184.2
		L399.5,263.2z"/>
	<g>
		<path class="st1" d="M495.8,194.7c0,0,3.5,83.1,4.1,85.4c0.7,2.3,4.1,28.1-7.4,33.2c0,0-2.3,0.8-4.1-0.2c-1.1-0.6-1.6-1.9-1.2-3.1
			c1.3-4.4,4.8-18.2-0.4-19.8c0,0-8,10.2-6.3,2c0.1-0.6,4.8-11.3,4.6-17.7c-0.2-6.4-3.9-47.9-3.9-47.9l-2.2-30.6L495.8,194.7z"/>
		<path class="st5" d="M497,300.5c0,0-1.9,9.6-5.6,13.1"/>
		<path class="st5" d="M494.2,299.6c0,0-2.5,10.7-5.7,13.5"/>
	</g>
	<path class="st6" d="M416.8,127.8c0,0-24.8,4.5-28,10.9c-3.2,6.4-18,54.5-18,54.5s9.1,10.9,26.6,4.4l-0.9,69.9
		c0,0,36.9,23.7,78.9,2.2l2-71.8c0,0,14.3-0.2,19-3.1c0,0-2.5-52.8-19.5-59.3c-17-6.5-25.6-8.9-25.6-8.9L416.8,127.8z"/>
	<path class="st1" d="M420.7,109.7l1.5,19.9c0,0,8.9,6,13.7,13.6c0,0,1.8-5.4,12.3-15l-1.8-18.5c0,0-7.4,4.7-10.6,4.8
		C432.6,114.6,420.7,110.7,420.7,109.7z"/>
	<path class="st7" d="M405,86l59.2-1.3c0,0,9.7-35.7-17.5-49.7c-13.6-7-24.9-3.3-32.1,2.4c-6.9,5.6-11.2,13.7-12.4,22.6
		C401,68.9,400.3,81.4,405,86z"/>
	<path class="st1" d="M456.4,62.3c-1.8-6-5.5-10.4-13.5-5.5c-8.1,4.9-14.3,0.7-17.2-0.8c-1.7-0.8-3.5-1.7-5.4-1.5
		c-11.5,1.4-9.8,12.8-9.8,12.8c-1.9,4.9-1.8,8.9-1.8,14.8c0,0.3,0,0.6,0,0.8c-2.2-1.9-6.3-4.6-7.6,1.4c-1.7,7.8,5.2,13.1,9,9.2
		c3.5,14.1,13.3,24.2,24.8,24.2c11.7,0,21.6-10.5,24.9-24.9v0c6.3,1.6,7.4-7,6-10.6c-0.9-2.4-3.1-1.7-4.9-0.6
		c-0.1-7.3-1.8-14.1-4.7-19.7c0,0,0,0,0,0"/>
	<path class="st7" d="M461.6,92.6l-2.9-2.3c0-0.1,0,0,0,0l0,0c0,0.2-0.6,1.1-4.5,5.7c-4.1,4.9-11.7,3.5-14.7,2.7
		c-0.8-0.2-1.6,0-2.2,0.4c-1,0.8-2.7,1.8-4.6,1.9c-2.1,0.1-4.1-0.9-5.4-1.7c-0.7-0.5-1.6-0.6-2.4-0.2c-7.3,3.4-13.4-7.2-13.4-7.2
		l-3.2,1.8c0.7,13.3,13,27,25.8,27c13.1,0,25.1-13.1,27.4-26.5C461.5,93.6,461.5,93.1,461.6,92.6z"/>
	<path class="st1" d="M439.6,102.8c-1.4,0-5.2,3.1-9.3,1.5c-2.1-0.8-4.1-0.6-5.5-0.1c0,0.1,0,0.3,0,0.5c0,2.8,3.2,8,7.9,8
		c4.7,0,8.5-5.1,8.5-7.9C441.2,103.7,440.6,103.1,439.6,102.8L439.6,102.8"/>
	<path class="st7" d="M424.8,72.1l-3.1-4.7c0,0-11.9,3.8-7.8,10C413.8,77.4,420.4,72.5,424.8,72.1z"/>
	<path class="st7" d="M441.2,71.5l3.1-4.7c0,0,11.9,3.8,7.8,10C452.2,76.8,445.6,72,441.2,71.5z"/>
	<circle class="st5" cx="420.3" cy="84.9" r="6.5"/>
	<circle class="st5" cx="445" cy="84.5" r="6.5"/>
	<circle cx="420.1" cy="84.2" r="3.2"/>
	<circle class="st8" cx="420.1" cy="84.2" r="0.8"/>
	<path class="st5" d="M416.5,82.6c0,0,2.9-3.5,7.1,0"/>
	<circle cx="444.9" cy="84.5" r="3.2"/>
	<path class="st5" d="M448.6,82.8c0,0-2.9-3.5-7.1,0"/>
	<circle class="st8" cx="444.9" cy="84.2" r="0.8"/>
	<path class="st5" d="M429.4,77.4c0,0,3,14,0.3,17.2c-2.7,3.2,4.2,3.7,5.6,1.7"/>
	<path class="st5" d="M426.8,83.2c0,0,5-3.9,11.7,0"/>
	<path class="st5" d="M427.8,106.2c0,0,4,5.5,10.1,0"/>
	<path class="st9" d="M421.2,124.8l-11.5,4c0,0,8.7,15.3,7.8,18.5c0,0,6.2-4,16.2-7.2L421.2,124.8z"/>
	<path class="st9" d="M448.6,122l10.7,5.4c0,0-5.9,13.9-7.7,20.5c0,0-7.4-7.4-13.7-7.3L448.6,122z"/>
	<line class="st5" x1="400.8" y1="162.5" x2="397.5" y2="197.5"/>
	<line class="st5" x1="475" y1="160.3" x2="477.5" y2="197.8"/>
	<path class="st10" d="M220.1,269l1,9.4c0,0,6.5-4.9,6.4-7.5l1.3,4.3c0,0,6.5-4.9,7.7-14.2c0,0,2.7,3.9,2.5,5.7
		c0,0,12.4-47.2-32.4-49.6c0,0-3.4-1.9-4.8-3.4c-0.3-0.3-0.8-0.2-0.9,0.2c-0.4,1.1-1.1,2.7-2.1,3.4c-1.7,1.2-14.3-1.8-24.1,19.4
		c0,0-8.6,19,1.3,32.8l3.1-4.9c0,0,1.7,8.6,2.7,9.8l2.1-3.1l3.6,6.5l3-6l7.4,0.8l9.3,2.1l8.8-2.5L220.1,269z"/>
	<path class="st11" d="M230.4,461.4c0,0,16.8,7.1,15.9,12.4c-0.9,5.3-8.3,3.7-20,4.4s-16.6-2.3-12.9-14.3
		C217,451.9,230.4,461.4,230.4,461.4z"/>
	<path class="st12" d="M234.1,474.4c0,0-3.4-1.8-3.7-2.8s5.2-7.7,5.2-7.7l4.6,2.7L234.1,474.4z"/>
	<path class="st11" d="M181.9,462c0,0-16.8,7.1-15.9,12.4c0.9,5.3,8.3,3.7,20,4.4c11.7,0.7,16.6-2.3,12.9-14.3
		C195.3,452.6,181.9,462,181.9,462z"/>
	<path class="st12" d="M178.2,475.1c0,0,3.4-1.8,3.7-2.8s-5.2-7.7-5.2-7.7l-4.6,2.7L178.2,475.1z"/>
	<path class="st1" d="M180.2,334.3c0,0-0.5,15.7-3.5,28.8c-3,13.1-5.1,15.9-1.4,16.3c3.7,0.5,11.7,6,0,6c0,0,6.1,13.1-2,4.1
		c0,0-3.3-2.8-2.6,1.4c0.7,4.1,0.2,13.8-2.5,6.9l-1.3-6.4c0,0-1.5,9.6-4.6,9.4c-0.7,0-1.2-0.7-1.2-1.4v-2.5c0,0-2.3-0.9,0-9.4
		c2.3-8.5,2.8-4.4,3.5-16.1c0.7-11.7,6.2-38.9,6.2-38.9L180.2,334.3z"/>
	<path class="st1" d="M236.4,315.2c0,0,8.3,3.5,17.5-7.7s11.1-8.6,8.7-14.3c-2.3-5.7,1.8-14.2,7.6-14.8c5.8-0.6,4.7,8.2,4.7,8.2
		s2.7,16.2-5.8,16.6c0,0-17.5,36.1-26,31.5c-8.5-4.6-12.4-8.7-12.4-8.7L236.4,315.2z"/>
	<path class="st12" d="M226.7,363.3l6.4,100.4c0,0-7.1,6.9-22.6,1.4l-3.7-76.4l-5.8,75.5c0,0-9,4.4-21-3.2l5.1-97.6l19.6-5.5
		L226.7,363.3z"/>
	<line class="st5" x1="162.8" y1="390" x2="161.1" y2="396.9"/>
	<path class="st1" d="M211.7,274.2c0.2,0.6,0,21.6,0,21.6l-10.9-0.7v-21.4L211.7,274.2z"/>
	<path class="st11" d="M212.6,288.5c0,0,9.1-0.3,12.7,2.7s17.5,22.1,17.5,22.1s-6.2,16.3-5.5,19.8L229,328v37.8
		c0,0-11.2,8.7-46.5,1.4v-28.1c0,0-9.9,1-14.7-4c-4.3-4.5,9.1-33,17.5-42.8c1.4-1.6,3.3-2.5,5.4-2.6l10.1-0.5
		C200.7,289.2,204.6,297.9,212.6,288.5z"/>
	<line class="st5" x1="228.8" y1="317.2" x2="229" y2="328"/>
	<line class="st5" x1="183.7" y1="317.2" x2="182.5" y2="339.1"/>
	<ellipse class="st1" cx="180.9" cy="255" rx="3.4" ry="5.5"/>
	<ellipse class="st1" cx="229.3" cy="256" rx="3.4" ry="5.5"/>
	<path class="st13" d="M180.1,254.6c0,13.2,10.7,27.9,23.9,27.9c13.2,0,24.9-14.9,24.9-28.1c0-1.1-0.1-2.1-0.2-3
		c-0.5-3.2-1.7-6-3.6-8.3c-2.3,2.2-4.4,4.2-4.4,4.2s-0.1-7.8,0.6-10.9c-0.2-0.1-5.7,8.1-5.7,8.1s-4.3-3.5-4.4-5.7
		c0,0-3.4,5.9-4.9,5.8c-1.2-0.1-2.7-6.3-2.7-9.9c-0.1,0-2.1,9.4-3.5,10.7c-1.4,1.3-5.4-5.1-7.4-8.9c-0.6,0.2-3.7,7.2-3.8,7.8
		c-0.1,0.5-2.2-1.1-3.9-2.9c-2,2-3.4,4.4-4.3,7.3C180.4,250.5,180.1,252.5,180.1,254.6z"/>
	<ellipse cx="214.8" cy="254.1" rx="2.2" ry="4.5"/>
	<circle class="st8" cx="215.5" cy="252.4" r="1.4"/>
	<path class="st5" d="M219.3,251.3c0,0-3.8-3-7.6-0.5"/>
	<ellipse cx="195.8" cy="254" rx="2.2" ry="4.5"/>
	<circle class="st8" cx="196.5" cy="252.4" r="1.4"/>
	<path class="st5" d="M191.3,251.2c0,0,3.8-3,7.6-0.5"/>
	<path class="st5" d="M208.1,260.1c0,0-2.7-2.1-5.4,0"/>
	<path class="st5" d="M213.4,268.2c0,0-9.5,9.8-16.2-0.5"/>
	<path class="st5" d="M222.1,248.3c0,0-5.7-5.3-12.2-1.9"/>
	<path class="st5" d="M200.7,246c0,0-5.8-3.1-11.2,0.8"/>
	<path class="st1" d="M285.2,258.6c0,0,7.5,13.9,6.5,20.3c-0.2,1.3-1.8,1.9-2.8,1l-2.1-1.8c0,0,1.1,25.8-2.5,19.2l-3.2-12.6
		c0,0-2.1,26.2-4.8,12.9l-1.4-12.7c0,0-3.7,23.2-4.8,11.5c-1.1-11.7,0-12.3,0-12.3s-3.2,13.8-4.3,8.9c-1.1-4.9,3.5-32.2,8.6-35.6
		C279.5,253.9,285.2,258.6,285.2,258.6z"/>
	<path class="st14" d="M320.2,188.1c0,0-30.4,53.9-33.6,73.7c0,0-11.5-0.6-13.8-3.1c-2.3-2.4,26-111.9,46.7-113.8L320.2,188.1z"/>
	<path class="st15" d="M367.2,444.4c0,0,2.3,15.7,16.6,22.8s-6.4,14.3-11.3,11.3c-2.6-1.6-15.5-8.7-19.9-10.1
		c-4.4-1.4-8.1-5.3-1.5-24C357.7,425.7,367.2,444.4,367.2,444.4z"/>
	<path class="st15" d="M330.6,443.2l1.9,18.3c0.4,3.7-2,7.3-5.7,8.1c-0.4,0.1-0.8,0.1-1.2,0.1c-4.1,0-9.2,2.8-13.6,5.5
		c-4.4,2.8-26,5.8-26.5-1.6s11.9-9.7,17.6-16.3s8.9-8.4,10.3-19C314.7,427.8,330.6,443.2,330.6,443.2z"/>
	<path class="st3" d="M379.3,255.8c0,0,9.2,11,4.5,45.4s-11.8,144.4-11.8,144.4s-9.5,10.9-23,0l-4.8-132.2l-11.3,132.1
		c0,0-9.3,9.2-22.5-1.2c0,0-16.3-176.6,0-189.3c16.3-12.7,43.3-11.5,43.3-11.5L379.3,255.8z"/>
	<path class="st16" d="M347.4,41.9c0,0,21.4-13.4,34.5,8.7c0,0,5.3,11.7,5.1,19.3c-0.2,7.6,3.5,18.6,4.6,21.2s6,14,2.3,19.3
		c-3.7,5.3-4.4,9.2-2.8,14.3c1.6,5.1,0,11.1-4.1,11.7c-4.1,0.7-3.7,6.2-4.4,9s-9.9,5.5-9.9,5.5h-30.6l-18.6,3
		c0,0-14.5-7.6-15.4-18.2c-0.9-10.6-2.1-20.7-5.8-26c-3.7-5.3-1.8-16.8,1.8-23.7s4.1-21.3,4.8-24.4
		C309.7,58.5,316.6,31.3,347.4,41.9z"/>
	<ellipse class="st1" cx="373.8" cy="93.3" rx="3.1" ry="7.8"/>
	<path class="st14" d="M308.9,154.1c1.9-3.5,6.3-7.9,10.1-10.2c1.5-0.9,3.3-1.4,5.1-1.4l29.5,0.5c0,0,25.3-4,32.1,9.5
		c6.8,13.4,13.6,55.9,14.1,59.6c0.3,2.8,1.7,50.8,1.7,50.8s-5.4,3.4-13.2-1.1c0,0-1.4-38.8-9.8-66.8c0,0-5.4,14.3-6,20.1
		c-0.6,5.8,20.2,73.7,20.2,73.7s-48.2,22-94.4-1.9c0,0,22.6-64.9,18-76.6c-1.5-3.8-2.6-6.8-3.3-9.1"/>
	<path class="st5" d="M376.8,175.6c0,0,4.3,11.8,1.7,19.3"/>
	<path class="st5" d="M312.2,175.6c0,0-1.8,16.2,0.8,25.6"/>
	<path class="st5" d="M400.8,253.7c0,0-4.7,3.7-13-1.2"/>
	<path class="st5" d="M289.8,249.7c0,0-8.4,3.7-14.7-2.6"/>
	<path class="st15" d="M353.3,140.3c0,0,10.5,2.7,8.9,8.5c-0.6,2-2.3,3.4-4.3,3.8l-2.3,0.5c0,0,4.8,13.5-8.9,9.7
		c0,0-9.4,8.7-12.4-3.8c0,0-13.7-1.8-4.8-12c0,0-6-7.2,2.5-7.8l19.7,2.1L353.3,140.3z"/>
	<ellipse class="st1" cx="320.1" cy="93.5" rx="3.1" ry="7.8"/>
	<path class="st1" d="M355.6,120.2c0,0-2.9,17.2,1.3,21c0,0-8.5,22.6-16.7,12.8c-8.1-9.6-8.1-15-8.1-15s5.6-4.8,2.5-20.3
		L355.6,120.2z"/>
	<g>
		<path class="st1" d="M400.3,265.4c1,4,2.9,12.5,2.7,20.3c-0.1,2.3-0.4,4.5-1.3,6.6c-1.1,2.5-2.8,4.9-4.8,0.9c0,0-4.4,15.2-6.2,4
			c0,0-9.4,12.5-5.1-13.2c0,0-6.5,17.3-6.8,8.5c-0.1-1.9,0.2-3.7,0.8-5.5c1.3-4.1,3.7-12.4,0.1-10.2c0,0-4,3.6-4.6,0.5
			c-0.5-2.8,12.6-11.8,15.6-13.8c0.4-0.2,1.1,0.1,1.6,0.1l5.2,0.3C398.9,263.8,400,264,400.3,265.4z"/>
		<path class="st5" d="M396.2,284.4c0,0,0.6,3.7,0.7,8.9"/>
		<line class="st5" x1="391.9" y1="285.5" x2="390.7" y2="297.3"/>
	</g>
	<path class="st1" d="M320.3,88.9c0,20.5,11.9,37.1,26.5,37.1c14.6,0,26.5-16.6,26.5-37.1c0-5.8-0.9-11.3-2.6-16.1v0h0
		c-2.4-2.1-5.8-4.1-10.5-5.7c-6.1-2.1-9.8-4.9-12.1-7.7c2.1,3.4-17.4,15.5-22.2,17.8c-2.2,1.1-3.9,3.2-5.1,5.2
		C320.4,84.5,320.3,86.7,320.3,88.9z"/>
	<path class="st5" d="M347.4,41.9c0,0-6.1,9.5,0.5,17.4"/>
	<path class="st5" d="M376.9,81.2c0,0-2.9-8.6-8.4-10"/>
	<path class="st5" d="M366.8,76.2c0,0-8.3-4.9-13.1-0.9"/>
	<path class="st5" d="M344.9,74.4c0,0-6-2.3-13.4,3"/>
	<ellipse cx="359.8" cy="88.2" rx="2.8" ry="5"/>
	<circle class="st8" cx="359.6" cy="87.5" r="0.8"/>
	<path class="st5" d="M365.1,85.3c0,0-4.5-4.4-9.9-0.6"/>
	<ellipse cx="337.4" cy="88.4" rx="2.8" ry="5"/>
	<circle class="st8" cx="337.5" cy="87.8" r="0.8"/>
	<path class="st5" d="M332.1,85.6c0,0,4.5-4.4,9.9-0.6"/>
	<path class="st5" d="M350.3,79.1c0,0-2.1,15.1,0.7,18.7c0,0-0.9,3.1-6.1,0.7"/>
	<path class="st5" d="M357.5,109.5c0,0-9.7,14.4-19.4,0"/>
	<path class="st5" d="M341.4,298c0,0,2.3,4.8,2.7,15.4"/>
	<g>
		<path class="st1" d="M316.2,217.2c0,0-5.9,3,1.5,5.3c7.4,2.3,11.7,5.8,0.7,6.1c0,0,15.9,6.6,1.1,7.5c0,0,12.4,8.1-3.3,6.4
			c0,0,11.5,8.7-5.9,5.4c0,0-10-0.9-7-6.9c0,0-3.5-5.6,2-6.3c0,0-4.5-6.9,1.3-8.2C306.5,226.6,302.4,215.3,316.2,217.2z"/>
		<line class="st1" x1="310.7" y1="228.6" x2="318.4" y2="228.6"/>
		<line class="st1" x1="310.7" y1="235.1" x2="319.5" y2="236.1"/>
		<line class="st1" x1="308.5" y1="240.6" x2="316.2" y2="242.6"/>
	</g>
	<g>
		<path class="st3" d="M45.9,467.5c0,0-25.8,6.1-17.8,10.6c8,4.5,27,1.5,33.7,0.6c6.7-0.8,17.6-4.5,8.8-17.1
			C65.2,454,45.9,467.5,45.9,467.5z"/>
		<path class="st3" d="M112.7,467.5c0,0,25.8,6.1,17.8,10.6c-8,4.5-27,1.5-33.7,0.6c-6.7-0.8-17.6-4.5-8.8-17.1
			C93.4,454,112.7,467.5,112.7,467.5z"/>
		<path class="st13" d="M56.1,399c0,0,6.3,54.3,4.7,57.6c-1.4,2.9-11.8,8.7-14.8,10.9c-0.6,0.4-1.2,3-1.3,4.3
			c-0.2,2.6,0.9,4.1,11.5,2.1c4.3-0.8,8.4-2.7,11.6-5.7c2.1-2,3.9-4.4,3.8-6.9c-0.3-6,0-56.7,0-56.7L56.1,399z"/>
		<path class="st13" d="M102.5,399c0,0-6.3,54.3-4.7,57.6c1.4,2.9,11.8,8.7,14.8,10.9c0.6,0.4,1.2,3,1.3,4.3
			c0.2,2.6-0.9,4.1-11.5,2.1c-4.3-0.8-8.4-2.7-11.6-5.7c-2.1-2-3.9-4.4-3.8-6.9c0.3-6,0-56.7,0-56.7L102.5,399z"/>
		<path class="st13" d="M32.1,297.6L30,315.1c-0.1,0.7,0.1,1.5,0.5,2.1c0.7,1.1,1.9,2.6,3.4,2.4c0,0,2.1,6,8.9,3s0-11,0-11
			l-4.9-15.5L32.1,297.6z"/>
		<path class="st13" d="M128.3,294.6l2.1,17.5c0.1,0.7-0.1,1.5-0.5,2.1c-0.7,1.1-1.9,2.6-3.4,2.4c0,0-2.1,6-8.9,3s0-11,0-11
			l4.9-15.5L128.3,294.6z"/>
		<path class="st17" d="M47.1,289.3c0,0-12,11.3-6.7,38.7c5.3,27.3,9,73,9,73s16.8,19.6,62.4,4.9c0,0,20.9-93.3,4.3-114.4
			s-46-5.5-46-5.5L47.1,289.3z"/>
		<ellipse class="st18" cx="51.4" cy="159.3" rx="4.6" ry="7"/>
		<path class="st19" d="M76.8,194c0,0-14.3-0.4-20.8,10.8s-28.5,89-28.5,89s-2.3,9.9,11.3,11.1c0,0,4.3-11.3,5.7-11.1
			c1.3,0.2,32.7,24.8,74.7,0c0,0,2,5.9,2.3,7.5c0.3,1.7,10-2.7,10.3-7.5c0.3-4.8-18.7-80.8-24.5-89C101.4,196.6,94.8,192.5,76.8,194
			z"/>
		<path class="st20" d="M74.2,183.3v17.7c0,0,5.8,8.7,16.3,0l-1.1-17.7H74.2z"/>
		<ellipse class="st18" cx="111.9" cy="158.6" rx="4.6" ry="7"/>
		<ellipse class="st21" cx="78.5" cy="96.4" rx="22.5" ry="17.7"/>
		<ellipse class="st20" cx="81.8" cy="156.9" rx="29.8" ry="32.1"/>
		<path class="st21" d="M88.3,122.4c0,0-17.1,31.2-35.9,27.5c-6.4-1.3-13-7.3-14.6-13.7c-2.3-9.7,1.4-36.3,41.6-37.3
			c9.5-0.2,18.9,2.5,26.4,8.4c5.9,4.6,11.3,11.6,12.5,21.8c2.8,24-11.2,23.3-20.3,14.8S88.3,122.4,88.3,122.4z"/>
		<path class="st22" d="M65.1,149.6c0,0,3.8-4.3,9.8-2"/>
		<path class="st22" d="M87.3,145.8c0,0,6.2-3.2,10.8,1.1"/>
		<ellipse cx="70.7" cy="156" rx="3" ry="4.9"/>
		<circle class="st8" cx="70.7" cy="153.7" r="1"/>
		<g>
			<path d="M72.4,152c-0.8,0-1.4,0-2,0.2c-0.6,0.2-1.1,0.4-1.6,0.7c-0.7,0.4-1.6,0.6-2.5,0.5c-0.9-0.1-1.7-0.6-2-1.4
				c0.8,0.1,1.4,0,2-0.2c0.6-0.2,1-0.4,1.6-0.7c0.7-0.4,1.6-0.6,2.5-0.5C71.2,150.8,72,151.2,72.4,152z"/>
		</g>
		<ellipse cx="92.3" cy="156" rx="3" ry="4.9"/>
		<circle class="st8" cx="92.3" cy="153.7" r="1"/>
		<g>
			<path d="M90.6,152c0.4-0.8,1.2-1.2,2-1.4c0.9-0.1,1.8,0.1,2.5,0.5c0.6,0.3,1,0.5,1.6,0.7c0.6,0.2,1.2,0.3,2,0.2
				c-0.3,0.8-1.2,1.2-2,1.4c-0.9,0.1-1.8-0.1-2.5-0.5c-0.5-0.3-1-0.5-1.6-0.7C92,152,91.4,151.9,90.6,152z"/>
		</g>
		<circle class="st22" cx="70" cy="156" r="6.6"/>
		<circle class="st22" cx="93" cy="155.3" r="6.6"/>
		<path class="st22" d="M79.9,151.2c0,0,1,10.2-1.6,14.3c-0.2,0.3-0.3,0.8-0.1,1.1c0.4,0.9,1.7,2.3,6.1,1.5"/>
		<path class="st22" d="M76.7,155c0,0,5.1-2.4,9.7,0"/>
		<path class="st22" d="M74.7,166.5c0,0-1.4,5.7-4.6,8.4"/>
		<path class="st22" d="M87.4,167.2c0,0,2.5,6.1,6.4,7.1"/>
		<path class="st23" d="M74.2,176.8c0,0,6.5,9.6,14.2-0.4"/>
		<path class="st23" d="M59.4,220.3c0,0-7,11.7-5.7,15.7S56,242,56,246.6c0,5.8-13.2,44.8-13.2,44.8l1.7,2.3"/>
		<path class="st23" d="M103.5,221.3c0,0,7,11.7,5.7,15.7s-2.2,6.1-2.2,10.7c0,5.8,13.2,44.8,13.2,44.8l-1.7,2.3"/>
		<path class="st5" d="M65.8,196.3c0,0,13.8,31.5,34,1.1"/>
	</g>
	<path class="st24" d="M158.4,159.4c0,0,28.1,2.5,43.6,38.5"/>
	<path d="M133.4,154.9l18.2,19.6c1.6,1.7,4.5,1.1,5.2-1.2l7.9-25.6c0.7-2.3-1.3-4.4-3.6-3.9l-26.1,6
		C132.6,150.3,131.8,153.1,133.4,154.9z"/>
</g>
</svg>
