<?xml version="1.0" encoding="utf-8"?>
<!-- Generator: Adobe Illustrator 22.1.0, SVG Export Plug-In . SVG Version: 6.00 Build 0)  -->
<svg version="1.1" id="Слой_4" xmlns="http://www.w3.org/2000/svg" xmlns:xlink="http://www.w3.org/1999/xlink" x="0px" y="0px"
	 viewBox="0 0 512 512" style="enable-background:new 0 0 512 512;" xml:space="preserve">
<style type="text/css">
	.st0{fill:#816164;stroke:#000000;stroke-width:1.5;stroke-linecap:round;stroke-linejoin:round;stroke-miterlimit:10;}
	.st1{fill:#EECE3C;stroke:#000000;stroke-width:1.5;stroke-linecap:round;stroke-linejoin:round;stroke-miterlimit:10;}
	.st2{fill:#FDCD95;stroke:#000000;stroke-width:1.5;stroke-linecap:round;stroke-linejoin:round;stroke-miterlimit:10;}
	.st3{fill:none;stroke:#000000;stroke-width:1.5;stroke-linecap:round;stroke-linejoin:round;stroke-miterlimit:10;}
	.st4{fill:#472B25;stroke:#000000;stroke-width:1.5;stroke-linecap:round;stroke-linejoin:round;stroke-miterlimit:10;}
	.st5{fill:#FFFFFF;}
	.st6{fill:#97B043;stroke:#000000;stroke-width:1.5;stroke-linecap:round;stroke-linejoin:round;stroke-miterlimit:10;}
	.st7{fill:#DFD977;stroke:#000000;stroke-width:1.5;stroke-linecap:round;stroke-linejoin:round;stroke-miterlimit:10;}
	.st8{fill:#634940;stroke:#000000;stroke-width:1.5;stroke-linecap:round;stroke-linejoin:round;stroke-miterlimit:10;}
	.st9{fill:#FDC663;stroke:#000000;stroke-width:1.5;stroke-linecap:round;stroke-linejoin:round;stroke-miterlimit:10;}
	.st10{fill:none;stroke:#000000;stroke-width:3;stroke-linecap:round;stroke-linejoin:round;stroke-miterlimit:10;}
</style>
<path class="st0" d="M355.2,476.2c0,0-18.3,7.8-17.3,13.5s9,4,21.8,4.8s18-2.5,14-15.5S355.2,476.2,355.2,476.2z"/>
<path class="st1" d="M351.2,490.4c0,0,3.7-1.9,4-3.1c0.3-1.2-5.7-8.4-5.7-8.4l-5,2.9L351.2,490.4z"/>
<path class="st0" d="M407.9,474.9c0,0,18.3,7.8,17.3,13.5s-9,4-21.8,4.8s-18-2.5-14-15.5S407.9,474.9,407.9,474.9z"/>
<path class="st1" d="M411.9,489.1c0,0-3.7-1.9-4-3.1c-0.3-1.2,5.7-8.4,5.7-8.4l5,2.9L411.9,489.1z"/>
<path class="st2" d="M409.7,336.2c0,0,0.5,17,3.8,31.3s5.5,17.3,1.5,17.8s-12.8,6.5,0,6.5c0,0-6.7,14.3,2.1,4.5c0,0,3.6-3,2.9,1.5
	s-0.3,15,2.8,7.5l1.4-7c0,0,1.6,10.4,5,10.2c0.8,0,1.3-0.8,1.3-1.5v-2.7c0,0,2.5-1,0-10.3s-3-4.8-3.8-17.5s-6.8-42.3-6.8-42.3
	L409.7,336.2z"/>
<path class="st2" d="M348.7,315.5c0,0-9,3.8-19-8.4s-12-9.3-9.5-15.5c2.5-6.2-2-15.4-8.3-16.1c-6.3-0.6-5.1,8.9-5.1,8.9
	s-2.9,17.6,6.3,18c0,0,19,39.2,28.3,34.2s13.5-9.5,13.5-9.5L348.7,315.5z"/>
<path class="st2" d="M295.7,256c0,0-8.2,15.1-7,22c0.2,1.4,2,2.1,3.1,1.1l2.3-2c0,0-1.2,28,2.7,20.8l3.5-13.7c0,0,2.3,28.5,5.2,14
	l1.5-13.8c0,0,4,25.2,5.2,12.5c1.2-12.7,0-13.3,0-13.3s3.5,15,4.7,9.7c1.2-5.3-3.8-35-9.3-38.7S295.7,256,295.7,256z"/>
<path class="st1" d="M359.2,367.7l-7,109c0,0,7.8,7.5,24.5,1.5l4-83l6.3,82c0,0,9.8,4.8,22.8-3.5l-5.5-106l-21.3-6L359.2,367.7z"/>
<line class="st3" x1="428.6" y1="396.7" x2="430.5" y2="404.2"/>
<path d="M167.8,132.9l-37.1-10.6l7.6-9L83,66.4c-2.7-2.3-3.4-5.8-1.6-8s5.4-2,8.1,0.3l55.2,47l6.6-7.7L167.8,132.9z"/>
<path class="st2" d="M375.5,270.9c-0.2,0.7,0,23.5,0,23.5l11.9-0.8v-23.3L375.5,270.9z"/>
<path class="st4" d="M366.4,265.4l-1,10.2c0,0-7.1-5.4-6.9-8.1l-1.4,4.7c0,0-7.1-5.4-8.4-15.5c0,0-2.9,4.2-2.8,6.2
	c0,0-13.5-51.3,35.1-53.9c0,0,3.7-2.1,5.2-3.7c0.3-0.3,0.8-0.2,1,0.2c0.4,1.2,1.2,2.9,2.3,3.7c1.8,1.3,15.6-2,26.2,21.1
	c0,0,9.3,20.6-1.4,35.7l-3.4-5.4c0,0-1.8,9.3-2.9,10.6l-2.2-3.4l-3.9,7.1l-3.3-6.6l-8,0.8l-10.1,2.3l-9.6-2.8L366.4,265.4z"/>
<path class="st0" d="M374.5,286.6c0,0-9.8-0.3-13.8,2.9c-4,3.2-19,24-19,24s6.8,17.8,6,21.5l9.1-5.5v41c0,0,12.2,9.5,50.4,1.5v-30.5
	c0,0,10.8,1.1,16-4.3c4.7-4.9-9.9-35.9-19-46.5c-1.5-1.7-3.6-2.8-5.9-2.9l-11-0.5C387.4,287.3,383.3,296.7,374.5,286.6z"/>
<line class="st3" x1="357" y1="317.7" x2="356.8" y2="329.5"/>
<line class="st3" x1="406" y1="317.7" x2="407.2" y2="341.5"/>
<ellipse transform="matrix(0.9628 -0.2703 0.2703 0.9628 -54.8338 105.9456)" class="st2" cx="357.3" cy="252.1" rx="3.7" ry="5.9"/>
<ellipse class="st2" cx="408.9" cy="250.2" rx="3.7" ry="5.9"/>
<path class="st2" d="M409.8,249.7c0,14.3-11.6,30.3-26,30.3c-14.3,0-27-16.1-27-30.5c0-1.1,0.1-2.3,0.2-3.3c0.5-3.5,1.9-6.5,3.9-9
	c2.5,2.4,4.7,4.6,4.7,4.6s0.1-8.5-0.6-11.9c0.2-0.1,6.2,8.7,6.2,8.7s4.7-3.8,4.7-6.2c0,0,3.7,6.4,5.3,6.3c1.3-0.1,3-6.9,2.9-10.7
	c0.1,0,2.2,10.2,3.8,11.7c1.5,1.5,5.9-5.5,8-9.6c0.7,0.2,4,7.8,4.2,8.4c0.1,0.5,2.4-1.2,4.2-3.2c2.1,2.2,3.7,4.8,4.6,8
	C409.5,245.3,409.8,247.4,409.8,249.7z"/>
<ellipse cx="372.2" cy="249.2" rx="2.4" ry="4.9"/>
<circle class="st5" cx="371.4" cy="247.3" r="1.5"/>
<path class="st3" d="M367.3,246.1c0,0,4.1-3.2,8.3-0.6"/>
<ellipse cx="392.7" cy="249.1" rx="2.4" ry="4.9"/>
<circle class="st5" cx="392" cy="247.3" r="1.5"/>
<path class="st3" d="M397.7,246c0,0-4.1-3.2-8.3-0.6"/>
<path class="st3" d="M379.4,255.7c0,0,2.9-2.2,5.9,0"/>
<path class="st3" d="M373.7,264.5c0,0,10.3,10.7,17.6-0.6"/>
<path class="st3" d="M364.2,242.8c0,0,6.2-5.8,13.2-2.1"/>
<path class="st3" d="M387.4,240.3c0,0,6.3-3.3,12.2,0.8"/>
<path class="st6" d="M257.7,179.5c0,0,33,58.5,36.5,80c0,0,12.5-0.7,15-3.3c2.5-2.7-28.3-121.5-50.8-123.5L257.7,179.5z"/>
<path class="st7" d="M206.6,457.8c0,0-2.5,17-18,24.8s7,15.5,12.3,12.3c2.8-1.7,16.9-9.4,21.6-10.9s8.8-5.8,1.6-26.1
	C217,437.5,206.6,457.8,206.6,457.8z"/>
<path class="st7" d="M246.4,456.5l-2,19.9c-0.4,4.1,2.2,8,6.2,8.7c0.4,0.1,0.9,0.1,1.3,0.1c4.5,0,10,3,14.8,6s28.3,6.3,28.8-1.8
	s-12.9-10.5-19.1-17.6s-9.7-9.1-11.2-20.6S246.4,456.5,246.4,456.5z"/>
<path class="st8" d="M193.5,253c0,0-10,12-4.8,49.3c5.2,37.3,12.8,156.8,12.8,156.8s10.3,11.8,25,0l5.2-143.6L244,459
	c0,0,10.1,10,24.4-1.3c0,0,17.7-191.8,0-205.6c-17.7-13.8-47.1-12.4-47.1-12.4L193.5,253z"/>
<path class="st9" d="M228.1,20.8c0,0-23.3-14.5-37.5,9.5c0,0-5.8,12.7-5.5,21s-3.8,20.3-5,23s-6.5,15.3-2.5,21s4.8,10,3,15.5
	s0,12,4.5,12.8s4,6.8,4.8,9.8s10.8,6,10.8,6h33.3l20.3,3.3c0,0,15.8-8.3,16.8-19.8s2.3-22.5,6.3-28.3s2-18.3-2-25.8
	s-4.5-23.1-5.3-26.5C269.1,38.8,261.6,9.3,228.1,20.8z"/>
<ellipse class="st2" cx="199.5" cy="76.6" rx="3.4" ry="8.5"/>
<path class="st6" d="M269.9,142.5c-2-3.8-6.8-8.5-10.9-11.1c-1.7-1-3.6-1.6-5.6-1.5l-32,0.5c0,0-27.5-4.3-34.8,10.3
	c-7.3,14.6-14.8,60.6-15.3,64.7c-0.4,3-1.8,55.2-1.8,55.2s5.8,3.7,14.3-1.2c0,0,1.5-42.2,10.7-72.5c0,0,5.8,15.5,6.5,21.8
	c0.7,6.3-21.9,80.1-21.9,80.1s52.3,23.9,102.5-2.1c0,0-24.6-70.5-19.6-83.1c1.6-4.1,2.8-7.4,3.6-9.9"/>
<path class="st3" d="M196.2,166c0,0-4.7,12.8-1.8,21"/>
<path class="st3" d="M266.4,166c0,0,2,17.6-0.9,27.7"/>
<path class="st3" d="M170.2,250.8c0,0,5.1,4,14.1-1.3"/>
<path class="st3" d="M290.7,246.3c0,0,9.1,4,15.9-2.9"/>
<path class="st7" d="M221.7,127.6c0,0-11.4,2.9-9.7,9.2c0.6,2.2,2.5,3.7,4.7,4.1l2.5,0.5c0,0-5.2,14.7,9.7,10.5
	c0,0,10.2,9.5,13.5-4.2c0,0,14.8-2,5.2-13c0,0,6.5-7.8-2.8-8.5l-21.4,2.3L221.7,127.6z"/>
<ellipse class="st2" cx="257.8" cy="76.8" rx="3.4" ry="8.5"/>
<path class="st2" d="M219.2,105.8c0,0,3.2,18.7-1.4,22.8c0,0,9.2,24.5,18.2,13.9c8.8-10.4,8.8-16.3,8.8-16.3s-6.1-5.2-2.7-22
	L219.2,105.8z"/>
<g>
	<path class="st2" d="M170.7,263.4c-1.1,4.3-3.1,13.6-2.9,22c0.1,2.5,0.5,4.9,1.4,7.2c1.1,2.8,3,5.3,5.2,1c0,0,4.8,16.5,6.8,4.4
		c0,0,10.3,13.6,5.5-14.4c0,0,7,18.8,7.4,9.2c0.1-2-0.3-4-0.9-5.9c-1.4-4.4-4-13.5-0.1-11.1c0,0,4.4,3.9,5,0.5
		c0.6-3-13.7-12.8-16.9-14.9c-0.4-0.3-1.2,0.1-1.7,0.1l-5.7,0.3C172.3,261.7,171.1,261.9,170.7,263.4z"/>
	<path class="st3" d="M175.1,284c0,0-0.6,4-0.8,9.6"/>
	<line class="st3" x1="179.9" y1="285.3" x2="181.1" y2="298"/>
</g>
<path class="st2" d="M257.6,71.8c0,22.2-12.9,40.3-28.8,40.3c-15.9,0-28.8-18-28.8-40.3c0-6.3,1-12.2,2.9-17.5v0h0
	c2.7-2.3,6.3-4.5,11.4-6.2c6.6-2.3,10.7-5.3,13.2-8.4c-2.3,3.7,18.8,16.9,24.1,19.4c2.4,1.2,4.3,3.5,5.5,5.7
	C257.5,67,257.6,69.4,257.6,71.8z"/>
<path class="st3" d="M228.1,20.8c0,0,6.6,10.3-0.6,18.9"/>
<path class="st3" d="M196.1,63.4c0,0,3.1-9.4,9.1-10.9"/>
<path class="st3" d="M207.1,58c0,0,9-5.4,14.3-1"/>
<path class="st3" d="M230.9,56c0,0,6.5-2.5,14.6,3.3"/>
<ellipse cx="214.7" cy="71" rx="3.1" ry="5.5"/>
<circle class="st5" cx="214.9" cy="70.3" r="0.8"/>
<path class="st3" d="M209,67.9c0,0,4.9-4.8,10.8-0.7"/>
<ellipse cx="239" cy="71.3" rx="3.1" ry="5.5"/>
<circle class="st5" cx="238.9" cy="70.5" r="0.8"/>
<path class="st3" d="M244.8,68.2c0,0-4.9-4.8-10.8-0.7"/>
<path class="st3" d="M225,61.1c0,0,2.3,16.4-0.8,20.3c0,0,1,3.4,6.7,0.8"/>
<path class="st3" d="M219.2,91.5c0,0,10.5,15.7,21.1,0"/>
<path class="st3" d="M234.7,298.8c0,0-2.5,5.2-2.9,16.7"/>
<line class="st10" x1="66.4" y1="495.6" x2="473.3" y2="495.6"/>
</svg>
