<?xml version="1.0" encoding="utf-8"?>
<!-- Generator: Adobe Illustrator 22.1.0, SVG Export Plug-In . SVG Version: 6.00 Build 0)  -->
<svg version="1.1" id="Слой_3" xmlns="http://www.w3.org/2000/svg" xmlns:xlink="http://www.w3.org/1999/xlink" x="0px" y="0px"
	 viewBox="0 0 512 512" style="enable-background:new 0 0 512 512;" xml:space="preserve">
<style type="text/css">
	.st0{fill:#FDCD95;stroke:#000000;stroke-width:3;stroke-linecap:round;stroke-linejoin:round;stroke-miterlimit:10;}
	.st1{fill:#662227;stroke:#000000;stroke-width:3;stroke-linecap:round;stroke-linejoin:round;stroke-miterlimit:10;}
	.st2{fill:none;stroke:#000000;stroke-width:3;stroke-linecap:round;stroke-linejoin:round;stroke-miterlimit:10;}
	.st3{fill:none;stroke:#000000;stroke-width:2;stroke-linecap:round;stroke-linejoin:round;stroke-miterlimit:10;}
	.st4{fill:#FFFFFF;}
	.st5{fill:#816164;stroke:#000000;stroke-width:3;stroke-linecap:round;stroke-linejoin:round;stroke-miterlimit:10;}
	.st6{fill:#8A242E;stroke:#000000;stroke-width:3;stroke-linecap:round;stroke-linejoin:round;stroke-miterlimit:10;}
</style>
<g>
	<path class="st0" d="M255.5,172.3c0,0,2,16.3-3.3,23.3c-3.7,4.9-20.3,11.3-20.3,11.3l-13.8,13.8l49.7,18.5l28.9-2.8
		c0,0,13.8-7.8,13.8-8.8s0-17.5,0-17.5s-18.2-7.5-20.1-28.3v-14l-8.7,4.8l-11.7,1.5L255.5,172.3z"/>
	<path class="st1" d="M237.2,152.6c0,0-11-8.3-17-5s-9.9-6.5-11.1-10.3c-0.8-2.6-6.2-6.2-9.9-9.7c-2.4-2.3-3.9-10.6-3.7-14
		c0.4-5.6-0.6-13.5-3-17.7c-1.6-2.8-3.7-14,1.7-18c5.3-4,9.3-17.7,9-22.3c-0.3-4.7,4-14.3,15.2-14c7.5,0.2,19.8-10,21.8-15.7
		s22.8-22,33.7-4c0,0,19-3.7,29.3,8.7C313.5,43,323.8,42,323.8,42s13.7,3.7,10,18.8s1.7,19.9,5.3,22.4c3.7,2.4,7.7,13.4,4.7,19.8
		c-3,6.3-7,20.7-7,23.7s-0.5,15-7.8,18.7c-7.2,3.7-12.8,7.9-15.6,12c-2.1,3-16,4.7-17,2c-1-2.7-11,3.3-11,3.3s-4,5.7-6,6.3
		c-2,0.7-18.7,1.7-20.3,0c-1.7-1.7-14.3-6-14.7-7C244.2,161,237.2,152.6,237.2,152.6z"/>
	<path class="st0" d="M232.3,71.3c5.8-1,16.4-5.2,20.1-9.7c0.4-0.4,0.7-0.9,1.1-1.4c6.7-8.3,11.3-9.3,14.3-11c2-1.1,6.8-3.8,8.9-7.3
		c1-1.7,0-3.6,0.7-5.7l-1.7,7c34.7-7,16.2,33.7,26.5,37.7c10.3,4,15,12.4,15,12.4l-4.2,4.8c3-3.5,8.4-8.3,12.6-4.2
		c6,5.7,7.5,28.8-13.4,37.3c-5.3,28.5-22.3,49.4-42.5,49.4c-20.7,0-38.1-22.1-42.9-51.8c-16.7-4.8-22.2-24.4-15.3-32.8
		c5.7-6.9,12.1-2.9,15.3-0.1c1.5-9.1,4.1-17.5,7.7-24.7"/>
	<path class="st2" d="M312.6,60.6c0,0,1.6-10.3-6.4-12.7c-8-2.3-10-6.6-10.7-9.3c-0.8-3-5.9-11.3-17.1-9"/>
	<path class="st2" d="M235,92.3c0,0,9.2-4.7,20.5-3.7"/>
	<path class="st2" d="M274.7,88.5c0,0,15.6-0.2,20.9,4.8"/>
	<path class="st3" d="M257.5,95.8c0,0,5.7,20.6,2.2,32.7c-0.6,2.1,0.3,4.3,2.3,5.2c2.1,0.9,5.2,1.5,9.4,0.1"/>
	<path class="st3" d="M274.7,122.8c0,0,3,4.4,2.5,8.3"/>
	<circle cx="244.3" cy="112.2" r="6.4"/>
	<circle class="st4" cx="244.6" cy="112.2" r="1.8"/>
	<path class="st2" d="M234.1,110.3c0,0,9.1-8.5,19.4-1.4"/>
	<circle cx="290.3" cy="111" r="6.4"/>
	<path class="st2" d="M300.6,109.1c0,0-9.1-8.5-19.4-1.4"/>
	<circle class="st4" cx="290.3" cy="111.2" r="1.8"/>
	<path class="st3" d="M215.2,100.7c0,0,6.4,9.1,7.8,14.1"/>
	<path class="st3" d="M213.7,108.2c0,0,4.6-1.5,6.3,0"/>
	<path class="st3" d="M322.8,103.9c0,0-6.4,9.1-7.8,14.1"/>
	<path class="st3" d="M324.3,111.4c0,0-4.6-1.5-6.3,0"/>
	<path class="st2" d="M273.9,22c0,0,2,3.2,3.2,7c0.7,2.3,1.1,4.9,0.5,7.2"/>
	<path class="st2" d="M235.7,50.8c0,0,6.5-10.3,13.6-11.5c7.1-1.2,13-3.7,14.2-5.6c2.1-3.4,8.1-8.9,11.2-8.4"/>
	<path class="st5" d="M186,414.5l0.5,74.5c0,0,94,21.5,146.5-1v-71.5L186,414.5z"/>
	<path class="st0" d="M377,460l4,34.5h25.5c0,0-6.5-37-10.5-42.5S377,460,377,460z"/>
	<path class="st6" d="M221.5,202c0,0-91,23-104,47c-11.2,20.7-23.9,61.1,9.1,70.2c9.5,2.6,19.6,1.7,28.7-2.2l33.8-14.4l-6.5,122.9
		c0,0,52.5,34.5,153.5,4v-81l39.5,116c0,0,16,7.5,26-3.5c0,0-28.5-191.5-38-212s-37.5-43-63-47C300.6,202,274,250.5,221.5,202z"/>
	<path class="st0" d="M138.3,270.5c0,0-4.5,4.8-3,16.8c1.3,10.4,6.9,25.4,37,17.8l-29-34L138.3,270.5z"/>
	<path class="st0" d="M191,298.8c0,0-8.3,23-30.3,3.3c0,0-44-31.8-19.8-47.8c0,0,5.8-5.3,6.3-11.5c0.4-4.4,3.5-10.8,9-12
		c4.4-1,7.5-8.3,9-9.8s1.5-4.5,7.5-4.5c4.3,0,8.8-2.8,11-5.8s8.5-7.8,12-6c0,0,4,1.3,11-4.3c0,0,18.5-9.5,23.8,8.8s-5.3,23-5.3,23
		l0.9,5.6c0.7,4,3.2,7.4,6.8,9.2c5.6,2.7,13.1,6.5,13.5,7c0.5,0.7,15,5.1,17.8,7.7c4.2,4.1,6.5,23-10.9,28.3c0,0-8.1,5-13.9-4.8
		c0,0-9.5,23.5-25.3,0.5c0,0-5.8,18-22.8,9.5L191,298.8z"/>
	<path class="st2" d="M240,256.8c0,0-7.5,16.3-0.5,28.5"/>
	<path class="st2" d="M182.5,251c0,0,31.8,19,31.8,34.8"/>
	<path class="st2" d="M163.3,273.8c0,0,18.3,19.3,28.3,21.5"/>
	<path class="st2" d="M189,212.8c0,0,1.8,11.8,9.4,15.5s34.1,21.5,34.1,28.5"/>
	<path class="st2" d="M257.1,288.6c0,0,1.5-14.3-3.6-17.6c0,0,7.8-3.7,12.2,8.8"/>
	<path class="st2" d="M208.3,224.8c0,0,5.8-13.5,4.8-16c0,0-14.6,4-5.5,17.5c0,0,5,8,17.8,6"/>
	<line class="st2" x1="340" y1="264.5" x2="336" y2="348.5"/>
	<path class="st2" d="M254,150.4c0,0,14.1,27,30.1-2.5"/>
</g>
</svg>
