<?xml version="1.0" encoding="utf-8"?>
<!-- Generator: Adobe Illustrator 23.1.0, SVG Export Plug-In . SVG Version: 6.00 Build 0)  -->
<svg version="1.1" id="Слой_1" xmlns="http://www.w3.org/2000/svg" xmlns:xlink="http://www.w3.org/1999/xlink" x="0px" y="0px"
	 viewBox="0 0 283.5 283.5" style="enable-background:new 0 0 283.5 283.5;" xml:space="preserve">
<style type="text/css">
	.st0{fill:#FBC595;}
	.st1{fill:#FFFFFF;}
	.st2{fill:#8FB4DF;}
	.st3{fill:#FFDC4D;}
	.st4{fill:#F48026;}
	.st5{fill:#231F20;}
</style>
<g>
	<path class="st0" d="M74.2,188.7c0.3-0.4,1.4,3,1.9,2.9c0.9-0.3,1.5-4.1,2.2-4.7C79,186.3,91,154.6,91.6,154l-5.4-2.8L75.7,184
		c0,0-1.9,1.3-1.8,1.7c0.1,0.2-3.1,1.5-2.9,1.6c0.2,0.2,0.7,0.4,0.6,0.7C71.3,189.6,72.9,190.1,74.2,188.7z"/>
	<path class="st0" d="M114,154.8c0,0,8.8,18.2,10.8,18.7c1.2,0.3,12.3-3.4,10.6-4.8l-0.2-3.6l-9.2,2.7l-8.3-17.3L114,154.8z"/>
	<path class="st1" d="M256.1,68c-0.8-0.4-2.1,0.4-3,1.8c0-0.3,0-0.6,0-0.8c0,0,0,0,0,0c0.1,0.4,4-3.5,2.5-11.6
		c-1.5-8.4-15.9-9.7-24-8.8c-5.3,0.6-5.7,2.6-5.7,2.6c-10.7-0.2-6.5,16.1-6.4,16.5l1.6,1.2c0,0,0.1-0.1,0.1-0.2c0,0.3,0,0.7,0,1
		c-0.9-1.4-2.2-2.2-3-1.8c-0.9,0.4-0.9,2.1,0,3.8s2.4,2.6,3.3,2.1c0,0,0,0,0.1,0c0.3,2.8,1,5.6,2.2,7.3c1.7,2.4,4.6,4.4,7.4,5.7v5
		c0,3.4,2.9,6.1,6.5,6.1c3.6,0,6.5-2.8,6.5-6.1v-5.5c2.5-1.4,5-3.2,6.5-5.2c1-1.3,1.7-4.2,2.1-7.2c0,0,0,0,0.1,0
		c0.9,0.4,2.4-0.5,3.3-2.1C257,70.1,257,68.5,256.1,68z"/>
	<path class="st1" d="M191.9,75.4c-0.8-0.3-1.8,0.4-2.4,1.5c-0.8-8.5-7.7-15.1-16.2-15.1c-8.7,0-16,6.2-16.6,14.9
		c-0.6-1-1.6-1.6-2.3-1.3c-1,0.3-1.3,2-0.8,3.6c0.6,1.7,1.8,2.7,2.8,2.4c0.2-0.1,0.4-0.2,0.5-0.4c1.3,6.4,6.1,11.8,12.2,13.6
		c0,1.5,0.1,3.7,0.1,3.8c-0.9,0.3-2.2,0.6-3.4,1c1.2,2.8,4.4,4.5,7.6,4.5c3.2,0,6-1.4,7.2-4.2c-0.8-0.5-2.1-0.8-3-1.1
		c0-0.1,0.1-2.5,0.2-4.1c6-1.8,10.6-7,11.6-13.4c0.1,0.2,0.3,0.3,0.5,0.3c1,0.3,2.3-0.7,2.8-2.4C193.3,77.4,192.9,75.8,191.9,75.4z"
		/>
	<path class="st1" d="M170.4,58.5c0,0,2.6-0.6,5.9-0.4c3.7,0.2,10,3,13.3,7.1c7.1,8.6,8.3,17.2,4.3,23.2c-2.2,3.3-9.7,8.1-17.2,8.4
		c-6.2,0.3-2.1,0.7-8-0.2c-9.8-1.5-25.6-6.8-15.8-26.3C160.9,54.7,170.4,58.5,170.4,58.5z"/>
	<path class="st1" d="M135.7,160c0.2-0.3,2.3-2.8,2.7-2.9c2.1-9.8,12.5-37.2,12.5-37.2l6,1.7l-14.8,36.6c0.6,1.4,0,8,1.6,8.8
		c0.2,0.1-2.2,2-3-3.1c-0.3,0-3.3,7.6-3.3,7.6c-0.9,1.4-1.7,1-1.4-0.4l1.9-5.8l-3.1,6.9c-0.6,1-1.4,0.7-1.2-0.3l2.5-7.3l0,0
		l-2.6,5.2c-0.6,1.3-1.8,1.4-0.9-1.2l1.9-4.7l-2.5,3.7c-0.2,0.3-0.5,0.5-0.8,0.3C131.1,167.6,130.3,167.4,135.7,160z"/>
	<ellipse class="st1" cx="164.2" cy="236.1" rx="3.9" ry="7.1"/>
	<path class="st1" d="M166.3,230.3l0.6-10.5l-5.4,0.1l0.6,10.3c-1,1.2-1.6,3.1-1.6,4.4c0,2,1.5,3.7,3.6,3.7c2.1,0,3.6-1.9,3.6-4
		C167.6,233.1,167.1,231.5,166.3,230.3z"/>
	<path class="st1" d="M167.2,230.2H161c-0.1,0-0.1-0.1-0.1-0.1v-1.6c0-0.1,0.1-0.1,0.1-0.1h6.3c0.1,0,0.1,0.1,0.1,0.1v1.6
		C167.3,230.2,167.3,230.2,167.2,230.2z"/>
	<ellipse class="st1" cx="181.8" cy="236.1" rx="3.9" ry="7.1"/>
	<path class="st1" d="M184,230.3l0.6-10.5l-5.4,0.1l0.6,10.3c-1,1.2-1.6,3.1-1.6,4.4c0,2,1.5,3.7,3.6,3.7c2.1,0,3.6-1.9,3.6-4
		C185.3,233.1,184.8,231.5,184,230.3z"/>
	<path class="st1" d="M184.9,230.2h-6.3c-0.1,0-0.1-0.1-0.1-0.1v-1.6c0-0.1,0.1-0.1,0.1-0.1h6.3c0.1,0,0.1,0.1,0.1,0.1v1.6
		C185,230.2,185,230.2,184.9,230.2z"/>
	<path class="st1" d="M203.3,160.1c-0.1-0.2-0.2-0.4-0.3-0.6c-0.4-0.6-2-1.9-2.1-2.5c-1.4-9.9-7.5-37.7-7.5-37.7l-6.8,4.1l10.5,34.3
		c-0.7,1.4-0.6,8-2.2,8.7c-0.2,0.1,2.1,2.1,3.2-2.9c-0.3,1.2,1.7,3.6,2.9,3.6c0.9,0,1.7-0.4,2.3-1c0.8-0.7,1.4-1.7,1.3-2.8
		C204.4,162.5,203.8,161.2,203.3,160.1z"/>
	<path class="st1" d="M189.6,124.8l8.3-6.1c0,0-5.6-9.9-9.8-14.1c-3.6-3.5-8.3-5.8-12.6-6.3c-5.8-0.4-7.8,0.5-9.2,0.9
		c-10.6,2.7-18.9,19.8-18.9,19.8l8.6,5.7l-6.2,52.5c0,0,2.1,0.4,5.3,0.9c0,17.8,4.4,47.2,4.4,47.2l10,0.1l2.7-46c0.3,0,0.6,0,1,0
		c0.3,0,0.6,0,0.9,0l3.3,46.1l9.9-0.1c0,0,3.5-29.9,3.1-47.6c3-0.6,4.1-1.1,4.1-1.1L189.6,124.8z"/>
	<circle class="st1" cx="154.8" cy="83.3" r="1.3"/>
	<circle class="st1" cx="191.8" cy="83.3" r="1.3"/>
	<path class="st1" d="M170.2,58.4c0,0-4-2.7-10.2,2.3c-6.7,5.3-8.4,13.7-8.4,13.7s6,0.5,12-5.6C167.3,64.9,170.2,58.4,170.2,58.4z"
		/>
	<path class="st1" d="M172.9,66.7c8.5,5.5,18.5,8,18.5,8s3.1-8.1-7.3-14.7c-9.3-5.9-16.4-1.6-15.1,2.3
		C169.9,65,171.2,65.6,172.9,66.7z"/>
	<g>
		<path d="M171,82.8c0.2,0,0.4-0.2,0.4-0.4c0-0.6,0.7-1.1,1.5-1.1s1.5,0.5,1.5,1.1c0,0.2,0.2,0.4,0.4,0.4c0.2,0,0.4-0.2,0.4-0.4
			c0-1-1-1.8-2.2-1.8c-1.2,0-2.2,0.8-2.2,1.8C170.6,82.6,170.8,82.8,171,82.8z"/>
		<path d="M177.2,87c-1,1.4-2.6,2.3-4.4,2.3c-1.7,0-3.4-0.8-4.4-2.3c-0.1-0.2-0.3-0.2-0.5-0.1c-0.2,0.1-0.2,0.3-0.1,0.5
			c1.1,1.6,3,2.6,5,2.6s3.8-1,5-2.6c0.1-0.2,0.1-0.4-0.1-0.5C177.5,86.8,177.3,86.8,177.2,87z"/>
		<path d="M165,73.5c0.1,0,0.1,0,0.2,0c0.1,0,0.2-0.1,0.3-0.2c0.3-0.5,0.8-0.9,1.5-1c0.7-0.2,1.3-0.1,1.8,0.2
			c0.2,0.1,0.4,0.1,0.5-0.1c0.1-0.2,0.1-0.4-0.1-0.5c-0.6-0.4-1.5-0.5-2.4-0.3c-0.9,0.2-1.6,0.7-1.9,1.4
			C164.7,73.1,164.8,73.4,165,73.5z"/>
		<path d="M176.9,72.5c0.5-0.3,1.1-0.4,1.8-0.2c0.7,0.2,1.2,0.6,1.5,1.1c0.1,0.1,0.2,0.2,0.3,0.2c0.1,0,0.1,0,0.2,0
			c0.2-0.1,0.2-0.3,0.1-0.5c-0.4-0.7-1.1-1.2-1.9-1.4c-0.9-0.2-1.7-0.1-2.4,0.3c-0.2,0.1-0.2,0.3-0.1,0.5
			C176.5,72.6,176.7,72.6,176.9,72.5z"/>
		<path d="M169.2,77.1c0-0.4,0.1-0.9-0.3-1.6c-0.2-0.3-0.8-0.6-1.1-0.6c-0.6,0-1.2,0.3-1.5,0.6c-1,0.6-1.9-0.1-2.1-0.3
			c0,0.3,0.1,0.5,0.2,0.8c0.1,0.2,0.3,0.5,0.6,0.6c0.3,0.1,0.7,0.1,0.9,0.1c0.2,0,0.4-0.1,0.6-0.2c0,0.2-0.1,0.3-0.1,0.5
			c0,1,0.6,1.8,1.4,1.8S169.2,78,169.2,77.1z"/>
		<path d="M179.3,75.6c-0.4-0.2-0.9-0.6-1.5-0.6c-0.3,0-0.9,0.3-1.1,0.6c-0.4,0.7-0.3,1.2-0.3,1.6c0,0.9,0.6,1.7,1.4,1.7
			s1.4-0.8,1.4-1.8c0-0.2,0-0.4-0.1-0.5c0.2,0.1,0.3,0.1,0.6,0.2c0.3,0.1,0.6,0.1,0.9-0.1c0.3-0.1,0.5-0.4,0.6-0.6
			c0.1-0.2,0.2-0.5,0.2-0.8C181.2,75.4,180.3,76.2,179.3,75.6z"/>
	</g>
	<g>
		<path class="st1" d="M211,161c0-0.7-2.4-5.2-2.3-5.4c0.1-0.3,1.2-5.4,1.2-5.4l-5.5-0.1l-0.3,5.2l-4.6,7.4l-1.3,4.9
			c0,0,0.9,0.5,1.4-0.1c0.4-0.5,1-2.7,1.4-4.2l0,0l-0.6,6.3c0,0,1,0.4,1.6-0.6c0.5-0.9,1.1-3.6,1.2-5.2l0.1,0l-0.2,7.2
			c0,0,1,0.4,1.6-0.6c0.6-1.1,1-4.6,1.1-6.1l0.1,0l0,6.6c0,0,0.8,0.3,1.5-0.6c0.7-0.9,0.8-6,0.9-5.5l0.8-1.8c0,1,0,2.1,0.2,2.4
			c0.8,2.1,2.2,1.3,2.2,1.3S210.8,164,211,161z"/>
		<path class="st1" d="M268.5,163.7l-4-7.2v-5l-5.2-0.2c0,0,0.7,4.9,0.8,5.2c0.1,0.2-2.5,4.3-2.5,5c0,2.8-0.7,5.4-0.7,5.4
			s1.3,0.8,2.2-1.2c0.1-0.3,0.2-1.4,0.3-2.3l0.6,1.7c0.1-0.4,0,4.4,0.6,5.3c0.6,0.9,1.4,0.7,1.4,0.7l0.3-6.3h0.1
			c0,1.4,0.2,4.7,0.7,5.8c0.5,1,1.5,0.7,1.5,0.7l0.1-6.8h0.1c0,1.6,0.4,4.1,0.9,5c0.5,1,1.5,0.7,1.5,0.7l-0.2-6l0,0
			c0.3,1.4,0.8,3.5,1.1,4c0.4,0.6,1.3,0.2,1.3,0.2L268.5,163.7z"/>
	</g>
	<path class="st1" d="M267.1,117.7c0.7-12-3-20.1-5.4-21.6c-5.7-3.4-15.9-6.2-24-6.4c-9.1-0.2-20.2,2.7-22.8,3.5
		c-4.7,1.4-8.6,12-9,23.8l-5.1,38.5l9.9,0.9l6-25.6c0,0,1.8,10.1,4.2,12c-0.8,3.8-3.2,16.9-1.7,30.6c1.3,11.4,5.8,55.8,5.8,55.8
		l1.6,0c-0.7,1.2-1.3,2.5-1.7,4c-1.6,5-1.6,9.1,0.5,9.8c2.1,0.7,7.2-4.4,8.8-9.4c0.6-1.8,0.7-3.3,0.5-4.5l4.2,0
		c-0.2,1.2-0.1,2.7,0.5,4.5c1.6,5,6.6,10.1,8.8,9.4c2.1-0.7,2.1-4.8,0.5-9.8c-0.5-1.5-1.1-2.9-1.8-4.1l1.8,0c0,0,3.7-42.2,4.7-53.6
		c1.6-18.1-1-30.2-1.6-33c1.4-1.3,2.6-4.6,2.6-4.6l3.1,18.2l10.6-0.7L267.1,117.7z"/>
	<g>
		<path d="M228,66.6c0.1-0.1,2.6-1.6,5.7,0c0.1,0,0.1,0,0.2,0c0.1,0,0.3-0.1,0.3-0.2c0.1-0.2,0-0.4-0.2-0.5c-3.4-1.8-6.3-0.1-6.4,0
			c-0.2,0.1-0.2,0.3-0.1,0.5C227.6,66.6,227.9,66.7,228,66.6z"/>
		<path d="M241.4,66.6c0.1-0.1,2.6-1.6,5.7,0c0.1,0,0.1,0,0.2,0c0.1,0,0.3-0.1,0.3-0.2c0.1-0.2,0-0.4-0.2-0.5
			c-3.4-1.8-6.3-0.1-6.4,0c-0.2,0.1-0.2,0.3-0.1,0.5C241,66.6,241.2,66.7,241.4,66.6z"/>
		<path d="M236.2,76.1c0.1,0.2,0.4,0.5,1,0.5h1.6c0.2,0,0.4-0.2,0.4-0.4c0-0.2-0.2-0.4-0.4-0.4h-1.6c-0.3,0-0.3-0.1-0.4-0.1
			c-0.1-0.1-0.2-0.5,0.4-1.9c0.8-1.8,0.4-3,0.4-3.1c-0.1-0.2-0.3-0.3-0.5-0.2c-0.2,0.1-0.3,0.3-0.2,0.5c0,0,0.3,1-0.4,2.5
			C236,74.8,235.8,75.6,236.2,76.1z"/>
		<path d="M240.8,80c-3.2,2.6-6.3,0.1-6.4,0c-0.2-0.1-0.4-0.1-0.5,0c-0.1,0.2-0.1,0.4,0,0.5c0,0,1.6,1.3,3.8,1.3
			c1.1,0,2.3-0.3,3.6-1.3c0.2-0.1,0.2-0.4,0.1-0.5C241.1,79.9,240.9,79.8,240.8,80z"/>
		<path d="M249,67.4h-8.8c-0.2,0-0.4,0.2-0.4,0.4V69c0,0.1,0,0.3,0,0.4c-1.8-0.8-3.6-0.3-4.5,0c0-0.1,0-0.3,0-0.4v-1.2
			c0-0.2-0.2-0.4-0.4-0.4h-8.8c-0.2,0-0.4,0.2-0.4,0.4V69c0,2.9,2.1,5.3,4.8,5.3c2.2,0,4.1-1.7,4.6-4c0.4-0.2,2.6-1.1,4.7,0
			c0,0,0,0,0.1,0c0.5,2.3,2.4,4,4.6,4c2.6,0,4.8-2.4,4.8-5.3v-1.2C249.3,67.6,249.2,67.4,249,67.4z M234.6,69c0,2.5-1.8,4.6-4.1,4.6
			c-2.2,0-4.1-2.1-4.1-4.6v-0.8h8.1V69z M248.6,69c0,2.5-1.8,4.6-4.1,4.6c-2.2,0-4.1-2.1-4.1-4.6v-0.8h8.1V69z"/>
		<path d="M231.4,71.4c0.6,0,1-0.5,1-1.2c0-0.7-0.5-1.2-1-1.2c-0.6,0-1,0.5-1,1.2C230.4,70.9,230.9,71.4,231.4,71.4z"/>
		<path d="M244.8,71.4c0.6,0,1-0.5,1-1.2c0-0.7-0.5-1.2-1-1.2c-0.6,0-1,0.5-1,1.2C243.8,70.9,244.2,71.4,244.8,71.4z"/>
	</g>
	<path class="st1" d="M240.4,147.4H234c-0.1,0-0.3-0.1-0.3-0.3v-3.5c0-0.1,0.1-0.3,0.3-0.3h6.4c0.1,0,0.3,0.1,0.3,0.3v3.5
		C240.7,147.3,240.6,147.4,240.4,147.4z"/>
	<g>
		<path d="M137.7,171.1c-0.1,0.2-0.1,0.3-0.1,0.3c-0.4,0.6-0.8,0.9-1,0.9c-0.3,0-0.5-0.5-0.3-1.3l0.2-0.6c-0.1-0.1-0.2-0.2-0.3-0.3
			c0-0.1-0.1-0.1-0.1-0.2l-1,2.1c-0.2,0.4-0.5,0.6-0.8,0.6c-0.3,0-0.6-0.3-0.5-0.9l2.5-7.3l0,0l-2.6,5.2c-0.2,0.6-0.6,0.9-0.9,0.9
			c-0.4,0-0.6-0.6-0.1-2.1l1.9-4.7l-2.5,3.7c-0.1,0.2-0.4,0.4-0.6,0.4c-0.1,0-0.2,0-0.2-0.1c-0.2-0.2-0.8-0.3,2-4.4c0,0-0.1,0-0.1,0
			c-0.1,0.1-0.1,0.1-0.2,0.2c-0.1,0.1-0.1,0.1-0.2,0.2c-0.3,0.3-0.5,0.6-0.9,0.8c-0.1,0.1-0.2,0.1-0.4,0.1c-1.2,1.9-1.2,2.5-1.1,2.9
			c0.1,0.5,0.4,0.6,0.5,0.7c0.2,0.1,0.4,0.2,0.6,0.2c0.1,0,0.3,0,0.4-0.1c-0.4,1.1-0.4,1.9,0,2.4c0.2,0.3,0.5,0.4,0.8,0.4
			c0.2,0,0.3,0,0.5-0.1l-0.1,0.3c0,0,0,0.1,0,0.1c-0.1,0.6,0.1,1,0.3,1.4c0.2,0.3,0.5,0.4,0.9,0.4c0.5,0,1-0.3,1.3-0.9
			c0,0,0,0.1,0.1,0.1c0.2,0.3,0.5,0.4,0.8,0.4c0.6,0,1.1-0.4,1.6-1.2c0,0,0.1-0.1,0.1-0.1c0.1-0.2,0.1-0.4,0.2-0.6
			c-0.1,0.1-0.3,0.1-0.5,0.1C137.9,171.2,137.8,171.2,137.7,171.1z"/>
		<path d="M194.6,121.8l3.5-2.6c0.3-0.2,0.4-0.6,0.2-0.9c-0.2-0.4-5.4-9.8-9.7-13.9c-2.4-2.4-5.4-4.2-8.5-5.3
			c-0.6-0.3-1.3-0.5-2-0.7c-0.1,0-0.2,0-0.2-0.1c0-0.2,0-0.5,0-0.8c7.5-0.8,14.5-5.5,16.6-8.6c2.1-3.2,2.8-7,2.1-11.1
			c-0.7-3.9-2.7-8.1-5.8-12.1c-1.2-2-3.1-4.1-6.3-6.1c-3.1-2-6.3-3-9.2-3c-1.9,0-3.7,0.5-5,1.3c-0.4-0.2-1.5-0.8-3.2-0.8
			c-2.5,0-5.1,1.1-7.7,3.1c-6.8,5.4-8.6,13.7-8.7,14c0,0.1,0,0.2,0,0.3c-0.1,0-0.1-0.1-0.2-0.1c-1.8,5.1-1.7,9.5,0.1,13.1
			c3.3,6.4,11.6,8.9,18,9.9c0.1,0,0.1,0,0.2,0c0,0.3,0,0.6,0,0.8c-0.9,0.2-1.6,0.4-2.2,0.5c-0.2,0.1-0.4,0.1-0.6,0.2
			c-10.8,2.8-18.7,19.1-19.1,19.8c-0.2,0.3,0,0.7,0.3,0.9l2.4,1.6c-2.2,5.8-10,26.8-11.9,35.6c-0.3,0.2-0.7,0.6-1.3,1.4
			c-0.6,0.7-1.2,1.4-1.3,1.6c-0.2,0.3-0.5,0.6-0.7,0.9c0.1,0,0.2,0.1,0.2,0.1c0.1,0.1,0.3,0.2,0.3,0.3c0.2-0.3,0.4-0.6,0.7-0.9
			c0.2-0.3,2.3-2.8,2.7-2.9c1.8-8.3,9.6-29.5,11.9-35.6l5.1,3.3l-0.1,0.8l-13.1,32.5c0.6,1.4,0,8,1.6,8.8c0.1,0-0.3,0.4-0.9,0.4
			c-0.7,0-1.7-0.6-2.1-3.5c-0.1,0-0.7,0.6-0.9,1c0.3,0.2,0.9,0.2,0.9,0.6c0,0.3,0,0.7,0,1c0.6,1.3,1.4,1.6,2.1,1.6
			c0.7,0,1.5-0.4,1.6-1c0.1-0.3-0.1-0.7-0.4-0.8c0,0-0.3-0.2-0.6-1.6c-0.2-1-0.2-2.3-0.3-3.4c-0.1-1.5-0.1-2.5-0.3-3.2l12-29.8
			l-5.8,48.7c0,0.4,0.2,0.7,0.6,0.8c0,0,1.9,0.4,4.7,0.8c0.1,17.8,4.3,46.4,4.4,46.7c0.1,0.4,0.4,0.6,0.7,0.6l1.5,0l0.1,1.8
			c-0.6,0.2-1.1,0.8-1.1,1.5c0,0.6,0.3,1,0.7,1.3c-0.8,1.4-1.3,3.3-1.3,5.5c0,4.4,2,7.8,4.6,7.8c2.6,0,4.6-3.4,4.6-7.8
			c0-2.2-0.5-4.1-1.3-5.5c0.4-0.3,0.6-0.8,0.6-1.3c0-0.7-0.4-1.2-0.9-1.5l0.1-1.8l2.3,0h0c0.4,0,0.7-0.3,0.7-0.7l2.6-45.4
			c0.1,0,0.2,0,0.3,0c0.1,0,0.1,0,0.2,0l3.2,45.4c0,0.4,0.3,0.7,0.7,0.7h0l1.5,0l0.1,1.7c-0.6,0.2-1.1,0.8-1.1,1.5
			c0,0.5,0.3,1,0.7,1.3c-0.8,1.4-1.3,3.3-1.3,5.5c0,4.4,2,7.8,4.6,7.8s4.6-3.4,4.6-7.8c0-2.2-0.5-4.1-1.3-5.5
			c0.4-0.3,0.6-0.8,0.6-1.3c0-0.7-0.4-1.2-0.9-1.5l0.1-1.8l2.2,0c0.4,0,0.7-0.3,0.7-0.6c0-0.3,3.4-29.4,3.1-47c2.5-0.5,3.5-1,3.6-1
			c0.3-0.1,0.5-0.4,0.4-0.7l-3.2-33.2l4.4,14.4c-0.2,0.6-0.4,1.7-0.5,3.2c-0.1,1.1-0.3,2.4-0.5,3.4c-0.3,1.4-0.7,1.5-0.7,1.6
			c-0.3,0.1-0.5,0.5-0.4,0.8c0.1,0.5,0.9,1,1.7,1c0.7,0,1.6-0.4,2.3-1.8c0.1,0.1,0.1,0.1,0.1,0.2c0-0.4,0.1-0.7,0.2-1
			c-0.3-0.5-0.4-1-0.3-1.5c-0.6,2.7-1.6,3.3-2.3,3.3c-0.6,0-1-0.4-0.9-0.5c1.6-0.7,1.5-7.3,2.2-8.7l-5.5-18l-1.4-14.7l3.8-2.8
			c1.4,6.7,4.9,23.2,6.5,32.2c0-0.1,0.1-0.1,0.1-0.2c0-0.1,0-0.2,0.1-0.4c0.1-0.3,0.2-0.6,0.3-0.9
			C199.3,143.6,195.9,127.9,194.6,121.8z M192.4,69.6c-0.1-0.3-0.1-0.6-0.2-1c4.8,7.4,5.3,14.5,1.8,19.7c-2.1,3.1-8.9,7.5-16,8.3
			c0-0.5,0.1-1.1,0.1-1.6c5.9-1.8,10.5-6.8,11.8-13c0.1,0,0.2,0,0.2,0c-0.3,0.3-0.4,0.7-0.4,1.1c0,0.9,0.7,1.6,1.6,1.6
			c0.9,0,1.6-0.7,1.6-1.6c0-0.8-0.5-1.4-1.3-1.6c0.7-0.5,1.3-1.4,1.7-2.4c0.7-2.1,0.2-4-1.2-4.5C192.4,74.1,192.9,72.2,192.4,69.6z
			 M189.9,75c0.1,0,0.2,0.1,0.3,0.1c-0.1,0.1-0.2,0.1-0.3,0.2C190,75.1,189.9,75,189.9,75z M190.4,83.2c0-0.5,0.4-0.9,0.9-0.9
			c0.5,0,0.9,0.4,0.9,0.9c0,0.5-0.4,0.9-0.9,0.9C190.8,84.1,190.4,83.7,190.4,83.2z M192.7,79c-0.5,1.4-1.5,2.4-2.4,2.4
			c-0.1,0-0.1,0-0.2,0c0.2-1,0.2-1.9,0.2-2.9c0-0.8-0.1-1.6-0.2-2.4c0.4-0.4,0.9-0.7,1.3-0.7c0,0,0,0,0,0c0,0,0.1,0,0.1,0
			c0.1,0,0.3,0,0.4,0.1C192.9,75.7,193.3,77.4,192.7,79z M175.4,57.1c2.5,0,5.5,0.8,8.8,2.9c10.3,6.5,7.4,14.5,7.3,14.6c0,0,0,0,0,0
			c-0.5-0.1-10.2-2.6-18.5-7.9c-1.7-1.1-3-1.7-3.9-4.4C168.2,59.8,170.9,57.1,175.4,57.1z M159.9,60.7c3-2.4,5.5-3,7.3-3
			c1.2,0,2.1,0.3,2.6,0.5c-0.3,0.3-0.6,0.5-0.8,0.9c-0.7,1-0.9,2-0.7,3.1c-1.2,2.1-2.9,4.7-4.8,6.6c-5.1,5.2-10.2,5.6-11.6,5.6
			c-0.2,0-0.4,0-0.4,0S153.3,65.9,159.9,60.7z M153.6,79c-0.6-1.7-0.2-3.3,0.8-3.6c0.1,0,0.3-0.1,0.4-0.1c0.4,0,0.9,0.2,1.3,0.6
			c-0.1,0.6-0.1,1.2-0.1,1.8c0,1.2,0.1,2.5,0.4,3.7c-0.1,0-0.2,0-0.3,0C155.1,81.4,154.1,80.5,153.6,79z M155.7,83.2
			c0,0.5-0.4,0.9-0.9,0.9s-0.9-0.4-0.9-0.9c0-0.5,0.4-0.9,0.9-0.9S155.7,82.7,155.7,83.2z M154.9,74.6c0.4-0.1,0.9-0.2,1.4-0.4
			c-0.1,0.3-0.1,0.6-0.2,0.9C155.8,74.8,155.3,74.7,154.9,74.6z M168.8,96.5c-9-1.4-22.9-5.9-17.7-21.6c0.1,0.1,0.2,0.1,0.3,0.1
			c0,0,0.2,0,0.4,0c0.4,0,1.1,0,2-0.2c-0.6,0.3-1,0.9-1.2,1.7c-0.2,0.8-0.1,1.8,0.2,2.7c0.4,1,1,1.9,1.7,2.4
			c-0.8,0.1-1.5,0.8-1.5,1.6c0,0.9,0.7,1.6,1.6,1.6c0.9,0,1.6-0.7,1.6-1.6c0-0.4-0.2-0.8-0.4-1.1c0,0,0.1,0,0.1,0
			c0.2,0,0.3,0,0.5-0.1c0.8,3,2.3,5.9,4.5,8.2c2.2,2.4,4.9,4,7.8,4.8C168.8,95.6,168.9,96.1,168.8,96.5
			C168.9,96.5,168.9,96.5,168.8,96.5z M156.7,77.7c0-1.3,0.2-2.6,0.5-3.8c2.1-0.8,4.5-2.2,6.9-4.7c1.8-1.8,3.4-4.2,4.6-6.2
			c0.9,2.3,2.1,3.1,3.6,4c0.1,0.1,0.3,0.2,0.4,0.3c6.2,3.9,13.2,6.4,16.6,7.4c0.3,1.2,0.4,2.5,0.4,3.8c0,9.2-7.3,16.6-16.3,16.6
			C164.2,95.1,156.7,86.9,156.7,77.7z M167.9,99.1c0.4-0.1,0.8-0.2,1.2-0.3c0.1,0,0.1,0,0.2,0c0,0,0,0,0,0c0,0,0.1,0,0.1,0
			c0.2-0.1,0.3-0.2,0.2-0.4c0-0.1,0-1.5-0.1-3c1.2,0.3,2.4,0.4,3.7,0.4c1.4,0,2.8-0.2,4.1-0.5c-0.1,1.6-0.2,3.1-0.2,3.2
			c0,0.2,0.1,0.3,0.3,0.4c0.1,0,0.2,0.1,0.3,0.1c0,0,0,0,0,0.1c0.7,0.2,1.4,0.4,2.1,0.7c0.1,0,0.2,0.1,0.3,0.1
			c-1.1,2.4-3.5,3.7-6.7,3.7c-3,0-5.8-1.6-7.1-3.9C166.9,99.4,167.4,99.2,167.9,99.1z M168.1,236.1c0,3.9-1.8,7.1-3.9,7.1
			c-2.1,0-3.7-2.9-3.9-6.6c0.7,1.4,2.1,2.3,3.8,2.3c1.9,0,3.4-1.3,4-3.1C168.1,236,168.1,236,168.1,236.1z M167.6,234.3
			c0,2-1.5,4-3.6,4c-2.1,0-3.6-1.7-3.6-3.7c0-1,0.4-2.5,1.1-3.6c0.1,0,0.1,0,0.2,0h4.7c0.1,0,0.1,0,0.2,0
			C167.2,232,167.6,233.3,167.6,234.3z M167.3,229.3c0,0.5-0.4,0.9-0.9,0.9h-4.7c-0.5,0-0.9-0.4-0.9-0.9c0-0.5,0.4-0.9,0.9-0.9h4.7
			C166.9,228.4,167.3,228.8,167.3,229.3z M161.8,226l4.7,0l-0.1,1.6h-4.5L161.8,226z M169.5,225.4l-10-0.1c0,0-4.3-28.6-4.4-46.5
			c4.1,0.6,9.9,1.3,15.8,1.3c0.4,0,0.8,0,1.1,0L169.5,225.4z M185.8,236.1c0,3.9-1.8,7.1-3.9,7.1c-2.1,0-3.7-2.9-3.9-6.6
			c0.7,1.4,2.1,2.3,3.8,2.3c1.9,0,3.4-1.3,4-3.1C185.8,236,185.8,236,185.8,236.1z M185.3,234.3c0,2-1.5,4-3.6,4
			c-2.1,0-3.6-1.7-3.6-3.7c0-1,0.4-2.5,1.1-3.6c0.1,0,0.1,0,0.2,0h4.7c0.1,0,0.1,0,0.2,0C184.9,232,185.3,233.3,185.3,234.3z
			 M185,229.3c0,0.5-0.4,0.9-0.9,0.9h-4.7c-0.5,0-0.9-0.4-0.9-0.9c0-0.5,0.4-0.9,0.9-0.9h4.7C184.6,228.4,185,228.8,185,229.3z
			 M179.5,226.1l4.7,0l-0.1,1.7h-4.5L179.5,226.1z M187.2,225.3l-9.9,0.1L174,180c7.9-0.3,13.1-0.9,16.2-1.5
			C190.5,196.2,187.2,225.3,187.2,225.3z M190,124.3c-0.3-1.5-1-5.8-1.7-9.2c0-0.2-0.2-0.3-0.4-0.3c-0.2,0-0.3,0.2-0.3,0.4
			c0.9,4.1,1.8,9.6,1.8,9.7c0,0,0,0,0,0l4.9,51.7c0,0-4.8,2.2-21.2,2.6c-0.7,0-1.4,0-2.1,0c-10.7,0-21.1-2.2-21.1-2.2l6.3-52.4
			c0,0,0.1-0.1,0.1-0.2c0-0.1,0.8-5.8,1.4-9.6c0-0.2-0.1-0.4-0.3-0.4c-0.2,0-0.4,0.1-0.4,0.3c-0.5,3.2-1.2,7.8-1.4,9.2l-7.9-5.2
			c0,0,7.7-16,17.9-19.2c1.3,2.7,4.5,4.5,7.8,4.5c3.5,0,6.2-1.5,7.4-4.2c2.6,1.1,5.2,2.7,7.3,4.8c4.3,4.1,9.6,13.8,9.6,13.8
			L190,124.3z"/>
		<path d="M201.5,156.9c0-0.2-0.1-0.5-0.1-0.7c-0.3,0.1-0.5,0-0.7-0.1c0.1,0.3,0.1,0.7,0.2,1c0,0.3,0.5,0.8,1,1.3
			c0.2-0.2,0.4-0.3,0.6-0.4C202.1,157.5,201.6,157.1,201.5,156.9z"/>
	</g>
	<g>
		<path d="M234.8,108.1C234.8,108.1,234.8,108.1,234.8,108.1c0.7,0,1.3-0.6,1.3-1.3c0-0.4-0.1-0.7-0.4-0.9c-0.2-0.3-0.6-0.4-0.9-0.4
			c0,0,0,0,0,0c-0.7,0-1.3,0.6-1.3,1.3c0,0.4,0.1,0.7,0.4,0.9C234.2,108,234.5,108.1,234.8,108.1z M234.8,106.2
			C234.8,106.2,234.8,106.2,234.8,106.2c0.2,0,0.3,0.1,0.4,0.2c0.1,0.1,0.2,0.3,0.2,0.4c0,0.3-0.3,0.6-0.6,0.6c0,0,0,0,0,0
			c-0.2,0-0.3-0.1-0.4-0.2c-0.1-0.1-0.2-0.3-0.2-0.4C234.2,106.4,234.5,106.2,234.8,106.2z"/>
		<path d="M234.8,115.8C234.8,115.8,234.8,115.8,234.8,115.8c0.4,0,0.7-0.1,0.9-0.4c0.3-0.2,0.4-0.6,0.4-0.9c0-0.4-0.1-0.7-0.4-0.9
			c-0.2-0.3-0.6-0.4-0.9-0.4c0,0,0,0,0,0c-0.4,0-0.7,0.1-0.9,0.4c-0.3,0.2-0.4,0.6-0.4,0.9c0,0.4,0.1,0.7,0.4,0.9
			C234.2,115.7,234.5,115.8,234.8,115.8z M234.4,114c0.1-0.1,0.3-0.2,0.4-0.2c0,0,0,0,0,0c0.2,0,0.3,0.1,0.4,0.2
			c0.1,0.1,0.2,0.3,0.2,0.4c0,0.2-0.1,0.3-0.2,0.4c-0.1,0.1-0.3,0.2-0.4,0.2c-0.2,0-0.3-0.1-0.4-0.2c-0.1-0.1-0.2-0.3-0.2-0.4
			C234.2,114.3,234.3,114.2,234.4,114z"/>
		<path d="M234.8,123.5C234.8,123.5,234.8,123.5,234.8,123.5c0.4,0,0.7-0.1,0.9-0.4c0.3-0.2,0.4-0.6,0.4-0.9c0-0.4-0.1-0.7-0.4-0.9
			c-0.2-0.3-0.6-0.4-0.9-0.4c-0.3,0-0.7,0.1-0.9,0.4c-0.3,0.2-0.4,0.6-0.4,0.9c0,0.4,0.1,0.7,0.4,0.9
			C234.2,123.3,234.5,123.5,234.8,123.5z M234.4,121.7c0.1-0.1,0.3-0.2,0.4-0.2c0,0,0,0,0,0c0.2,0,0.3,0.1,0.4,0.2
			c0.1,0.1,0.2,0.3,0.2,0.4c0,0.2-0.1,0.3-0.2,0.4c-0.1,0.1-0.3,0.2-0.4,0.2c-0.2,0-0.3-0.1-0.4-0.2c-0.1-0.1-0.2-0.3-0.2-0.4
			C234.2,122,234.3,121.8,234.4,121.7z"/>
		<path d="M234.8,131.2C234.8,131.2,234.8,131.2,234.8,131.2c0.4,0,0.7-0.1,0.9-0.4c0.3-0.2,0.4-0.6,0.4-0.9c0-0.4-0.1-0.7-0.4-0.9
			c-0.2-0.3-0.6-0.4-0.9-0.4c-0.3,0-0.7,0.1-0.9,0.4c-0.3,0.2-0.4,0.6-0.4,0.9c0,0.4,0.1,0.7,0.4,0.9
			C234.2,131,234.5,131.2,234.8,131.2z M234.4,129.4c0.1-0.1,0.3-0.2,0.4-0.2c0,0,0,0,0,0c0.2,0,0.3,0.1,0.4,0.2
			c0.1,0.1,0.2,0.3,0.2,0.4c0,0.2-0.1,0.3-0.2,0.4c-0.1,0.1-0.3,0.2-0.4,0.2c0,0,0,0,0,0c-0.2,0-0.3-0.1-0.4-0.2
			c-0.1-0.1-0.2-0.3-0.2-0.4C234.2,129.7,234.3,129.5,234.4,129.4z"/>
		<path d="M234.8,138.9C234.8,138.9,234.8,138.9,234.8,138.9c0.7,0,1.3-0.6,1.3-1.3c0-0.4-0.1-0.7-0.4-0.9c-0.2-0.3-0.6-0.4-0.9-0.4
			c0,0,0,0,0,0c-0.7,0-1.3,0.6-1.3,1.3c0,0.4,0.1,0.7,0.4,0.9C234.2,138.7,234.5,138.9,234.8,138.9z M234.8,136.9
			C234.8,136.9,234.8,136.9,234.8,136.9c0.2,0,0.3,0.1,0.4,0.2c0.1,0.1,0.2,0.3,0.2,0.4c0,0.3-0.3,0.6-0.6,0.6c0,0,0,0,0,0
			c-0.2,0-0.3-0.1-0.4-0.2c-0.1-0.1-0.2-0.3-0.2-0.4C234.2,137.2,234.5,136.9,234.8,136.9z"/>
		<path d="M270.2,168.3l-1-4.7c0-0.1,0-0.1-0.1-0.2l-3.9-7l2.8-0.2c0.4,0,0.7-0.4,0.7-0.7l-0.9-37.8c0.6-11.8-2.9-20.5-5.7-22.2
			c-4.3-2.6-11-4.8-17.4-5.8c0,0.1,0.1,0.2,0.1,0.3c0,0.1,0,0.3-0.1,0.4v-3.5c2.6-1.4,5.1-3.3,6.7-5.3c1.1-1.4,1.7-4.1,2.1-6.8
			c1.1,0,2.5-1.1,3.3-2.6c0.7-1.3,0.9-2.6,0.6-3.6c-0.2-0.5-0.5-0.9-0.9-1.2c-0.2-0.1-0.5-0.2-0.8-0.2c-0.1,0-0.2,0-0.3,0
			c0.9-1.9,1.8-5.1,1-9.9c-0.6-3.4-3.1-6-7.5-7.7c-3.3-1.3-7.7-2-12.4-2c-1.6,0-3.3,0.1-4.8,0.3c-4.1,0.5-5.5,1.8-6,2.6
			c-2.5,0.1-4.4,1-5.7,2.8c-2.9,4.1-1.6,11.4-1.1,13.8c-0.3,0-0.5,0.1-0.7,0.2c-0.4,0.2-0.8,0.6-0.9,1.2c-0.3,1-0.1,2.3,0.6,3.6
			c0.9,1.5,2.2,2.6,3.3,2.6c0.4,2.7,1.1,5.2,2.2,6.8c1.8,2.5,4.8,4.5,7.7,5.9v1.9c-7.1,0.7-13.9,2.5-16.3,3.2
			c-5,1.5-9.1,12.1-9.5,24.5l-5.1,38.4c0,0.2,0,0.4,0.2,0.5c0.1,0.2,0.3,0.3,0.5,0.3l1.8,0.2l-3.7,5.9c0,0.1-0.1,0.1-0.1,0.2
			l-1.3,4.9c-0.1,0.3,0.1,0.7,0.4,0.8c0.1,0,0.5,0.3,1.1,0.3c0.4,0,0.7-0.1,0.9-0.3l-0.1,1.3c0,0.3,0.2,0.6,0.4,0.7
			c0.1,0,0.4,0.1,0.8,0.1c0.6,0,1.1-0.2,1.5-0.7l0,1.1c0,0.3,0.2,0.6,0.4,0.7c0.1,0,0.4,0.1,0.8,0.1c0.7,0,1.2-0.3,1.6-0.8
			c0,0.3,0.2,0.5,0.5,0.6c0.1,0,0.3,0.1,0.6,0.1c0.4,0,1.1-0.1,1.8-1c0.5-0.6,0.7-2.1,0.9-4.4c0.6,1.1,1.5,1.3,2,1.3
			c0.5,0,0.9-0.2,0.9-0.2c0.3-0.2,0.4-0.5,0.4-0.8c0,0-0.5-2.7-0.4-5.5c0-0.5-0.4-1.5-1.6-3.9l0.6,0.1c0,0,0,0,0.1,0
			c0.3,0,0.6-0.2,0.7-0.6l5.2-22.5c0.2,0.9,0.5,1.9,0.8,2.9c1,3.4,1.9,5.1,2.7,6c-0.9,4.3-3.1,17.1-1.7,30.5
			c1.2,11.3,5.7,55.3,5.8,55.8c0,0.4,0.3,0.6,0.7,0.6h0l0.4,0c-0.5,0.9-0.9,2-1.2,3.1c-0.8,2.6-1.2,5-1.2,6.8
			c0.1,2.7,1.2,3.6,2.2,3.9c0.2,0.1,0.4,0.1,0.6,0.1c2.8,0,7.6-5.2,9.1-10c0.4-1.4,0.6-2.8,0.6-4l2.6,0c-0.1,1.2,0.1,2.5,0.6,4
			c1.5,4.7,6.2,10,9.1,10c0.2,0,0.4,0,0.6-0.1c2.5-0.8,2.9-4.8,1-10.7c-0.4-1.1-0.8-2.2-1.3-3.2l0.6,0c0.4,0,0.7-0.3,0.7-0.7
			c0-0.4,3.7-42.4,4.7-53.6c1.5-17.4-0.8-29.3-1.6-32.8c0.6-0.6,1.1-1.5,1.5-2.3l2.7,15.8c0.1,0.3,0.4,0.6,0.7,0.6c0,0,0,0,0,0
			l1.7-0.1c-0.2,0.3-0.4,0.7-0.6,1c-1.3,2.3-1.7,3.2-1.7,3.7c0,2.7-0.6,5.2-0.7,5.2c-0.1,0.3,0.1,0.6,0.3,0.8c0.1,0,0.5,0.3,1,0.3
			c0.4,0,1.2-0.2,1.8-1c0.1,2.1,0.2,3.5,0.6,4.1c0.6,0.9,1.4,1,1.7,1c0.3,0,0.4-0.1,0.5-0.1c0.2-0.1,0.4-0.3,0.5-0.5
			c0.4,0.5,0.9,0.8,1.6,0.8c0.3,0,0.6-0.1,0.6-0.1c0.3-0.1,0.5-0.4,0.5-0.7l0-1c0.4,0.4,0.9,0.6,1.4,0.6c0.3,0,0.6-0.1,0.6-0.1
			c0.3-0.1,0.5-0.4,0.5-0.7l0-1.2c0.3,0.2,0.6,0.3,0.9,0.3c0.5,0,0.9-0.2,0.9-0.2C270.1,168.9,270.2,168.6,270.2,168.3z M250.1,91.6
			c-0.2,0.8-1.1,4.1-2.6,6.8c-3.1,5.6-5.1,6.1-5.4,6.1c0,0,0,0,0,0c-2-0.7-3.4-4-4-5.7l0-0.5c0,0,0-0.1,0-0.1c3.6-0.2,6.5-3,6.5-6.5
			v-1.4C246.4,90.7,248.3,91.1,250.1,91.6z M237.8,97.6c-3.4,0-6.1-2.6-6.1-5.8v-4c2,0.9,4,1.4,5.3,1.5c0.1,0,0.2,0,0.3,0
			c1.7,0,4.1-0.8,6.6-2v4.5C243.9,95,241.1,97.6,237.8,97.6z M255.6,67.9c0.2,0,0.3,0,0.5,0.1c0.9,0.4,0.9,2.1,0,3.8
			c-0.7,1.3-1.8,2.1-2.6,2.2c0.2-1.7,0.3-3.3,0.3-4.6c0.1-0.1,0.3-0.3,0.5-0.5c0.1-0.1,0.4-0.4,0.6-0.9
			C255.2,68,255.4,67.9,255.6,67.9z M218.4,71.8c-0.9-1.6-0.9-3.3,0-3.8c0.1-0.1,0.3-0.1,0.5-0.1c0,0,0.1,0,0.1,0c0,0.1,0,0.1,0,0.1
			c0,0.1,0.1,0.3,0.2,0.3l1.4,1.1c0,1.5,0.1,3,0.3,4.5C220.1,73.9,219.1,73,218.4,71.8z M221.2,68.9l-1.5-1.2
			c-0.1-0.4-4.3-16.5,6.1-16.5c0.1,0,0.2,0,0.2,0c0,0,0.4-2,5.7-2.6c1.4-0.2,3-0.3,4.7-0.3c8,0,18,2.1,19.2,9
			c1.2,6.7-1.3,10.5-2.2,11.4c-0.1,0-0.2,0-0.3,0c0,0,0,0.1,0,0.1c-0.2-0.8-1.9-9.4-9.7-10.3c-0.7-0.1-1.4-0.1-2.1-0.1
			c-4,0-7,1.3-9.7,1.3c-0.5,0-0.9,0-1.4-0.1c-2.8-0.6-4.5-3.6-4.5-3.6s0.1,3.5-1.2,6.6C223.3,65.8,221.4,68.7,221.2,68.9
			C221.2,69,221.2,69,221.2,68.9z M223.9,81.1c-1.8-2.5-2.3-7.4-2.5-11.5c0.2,0,0.3-0.1,0.4-0.3c0.1-0.1,2-3.1,3.4-6.4
			c0.7-1.7,1-3.5,1.2-4.8c0.8,0.9,2.1,1.9,3.7,2.2c0.5,0.1,1,0.1,1.5,0.1c1.3,0,2.6-0.3,4-0.6c1.6-0.4,3.5-0.8,5.6-0.8
			c0.7,0,1.3,0,2,0.1c6.4,0.8,8.5,7,9.1,9.6c0,0.1,0,0.2,0.1,0.2c0.1,0.3,0.4,0.5,0.7,0.5c-0.1,4.2-0.9,9.5-2.4,11.4
			c-3.1,4-10.1,7.4-13.4,7.4c-0.1,0-0.2,0-0.2,0C234,88.4,226.9,85.5,223.9,81.1z M230.9,90.1v1.7c0,3.5,2.9,6.3,6.5,6.5
			c0,0,0,0.1,0,0.1l0,0.4c-0.8,1.7-2.9,5.5-4.2,5.5c-0.1,0-0.2,0-0.3-0.1c-5.5-2.9-8.4-13-8.4-13s0.1,0,0.4-0.1
			c-0.2,0-0.3,0-0.4-0.1C226.5,90.7,228.7,90.3,230.9,90.1z M239.9,143.7c0.2,0,0.5,0.2,0.5,0.5v2.4c0,0.2-0.2,0.5-0.5,0.5h-5.3
			c-0.2,0-0.5-0.2-0.5-0.5v-2.4c0-0.2,0.2-0.5,0.5-0.5H239.9z M211,161c-0.2,3,0.4,5.7,0.4,5.7s-0.2,0.1-0.6,0.1
			c-0.5,0-1.2-0.3-1.6-1.5c-0.1-0.4-0.1-1.5-0.2-2.4l-0.8,1.8c0,0,0,0,0,0c-0.1,0-0.2,4.7-0.9,5.6c-0.4,0.6-0.9,0.7-1.2,0.7
			c-0.2,0-0.3-0.1-0.3-0.1l0-6.6l-0.1,0c-0.1,1.4-0.5,5-1.1,6.1c-0.3,0.6-0.8,0.7-1.1,0.7c-0.3,0-0.5-0.1-0.5-0.1l0.2-7.2l-0.1,0
			c-0.1,1.7-0.7,4.3-1.2,5.2c-0.3,0.6-0.8,0.7-1.1,0.7c-0.3,0-0.5-0.1-0.5-0.1l0.6-6.3l0,0c-0.4,1.5-1,3.7-1.4,4.2
			c-0.2,0.2-0.4,0.3-0.7,0.3c-0.4,0-0.7-0.2-0.7-0.2l1.3-4.9l3.9-6.2l5.9,0.5C210,158.5,211,160.5,211,161z M217.3,133.5
			c0.1-0.1,0.1-0.2,0.1-0.3c-1.2-11.5-1.5-22.6-1.2-24.1c0.1,0,0.1-0.1,0.1-0.1c0.2-0.2,0.4-0.4-1.7-3.7c-0.1-0.2-0.3-0.2-0.5-0.1
			c-0.2,0.1-0.2,0.3-0.1,0.5c0.7,1.1,1.4,2.3,1.6,2.8c-0.2,0.2-0.4,1.2-0.2,8.1c0.2,4.7,0.5,10,1,15l-5.8,24.8l-9.9-0.9l5.1-38.5
			c0.4-11.8,4.3-22.4,9-23.8c1.3-0.4,4.6-1.3,8.8-2.1c0,0.1,0,0.2,0,0.2c0.1,0.4,3,10.4,8.8,13.4c0.2,0.1,0.4,0.2,0.6,0.2
			c0.7,0,1.7-0.4,3.6-3.5c0.2-0.4,0.4-0.7,0.6-1.1l-0.7,42.6h-2.1c-0.4,0-0.8,0.2-1,0.5c-4.5-0.1-8.9-0.2-12-0.4
			C219.7,142.9,218.1,137.1,217.3,133.5z M233.4,144.2v2c-7.5-0.2-12.7-0.7-12.8-0.7c-0.1,0-0.1,0-0.2,0c0.1-0.8,0.3-1.4,0.4-2
			c0.3,0.2,0.6,0.2,0.8,0.3C224.6,144,228.9,144.1,233.4,144.2z M220.3,146.1c0.1,0.1,0.1,0.1,0.2,0.1c0.1,0,1.7,0.2,4.5,0.4
			c0,1.5-0.6,3-1.7,3.9c-1,0.9-2.3,1.3-3.8,1.2c0,0,0,0-0.1,0C219.7,149.5,220,147.7,220.3,146.1z M234.2,233.7
			c-1.5,4.7-6,9.5-8.4,9.5c-0.2,0-0.3,0-0.4-0.1c-2.1-0.7-2.1-4.8-0.5-9.8c0.4-1.2,0.8-2.3,1.4-3.3l8.5,0
			C234.8,231,234.6,232.2,234.2,233.7z M248.6,233.2c1.6,5,1.6,9.1-0.5,9.8c-0.1,0-0.3,0.1-0.4,0.1c-2.3,0-6.9-4.7-8.4-9.5
			c-0.5-1.5-0.6-2.7-0.5-3.8l8.5,0C247.7,230.9,248.2,232,248.6,233.2z M253.3,175.6c-1,11.3-4.7,53.6-4.7,53.6l-11.9,0l-0.2-70.3
			c0.1,0,0.2,0,0.4,0c1,0,1.9-0.1,2.4-0.3c0.2-0.1,0.3-0.3,0.2-0.5c-0.1-0.2-0.3-0.3-0.5-0.2c-1.5,0.5-5.9,0-6,0
			c-0.2,0-0.4,0.1-0.4,0.3c0,0.2,0.1,0.4,0.3,0.4c0.1,0,1.3,0.2,2.8,0.2l0.2,70.4l-11.1,0c0,0-4.5-44.4-5.8-55.8
			c-0.9-7.8-0.5-15.3,0.2-21.1c0,0,0,0,0.1,0c0.2,0,0.4,0,0.6,0c1.4,0,2.7-0.5,3.7-1.4c1.2-1.1,1.9-2.7,1.9-4.4
			c2.1,0.1,4.7,0.3,7.7,0.3c0.2,0.5,0.6,0.8,1.1,0.8h5.3c0.5,0,0.9-0.3,1.1-0.8c1.8,0,3.7-0.1,5.7-0.2c0.1,1.6,0.8,3.2,1.9,4.2
			c1,0.9,2.3,1.4,3.7,1.4c0.2,0,0.4,0,0.6,0c0.2,0,0.3-0.1,0.3-0.3C253.8,157.8,254.2,165.8,253.3,175.6z M241.1,146.3v-2
			c3.5,0,8.2-0.1,10-0.5c0.3-0.1,0.6-0.2,0.8-0.4c0.1,0.6,0.3,1.3,0.4,2.2c0,0,0,0,0,0C248.4,146,244.6,146.2,241.1,146.3z
			 M253.2,151.8c-0.1-0.1-0.2-0.2-0.4-0.2c-1.5,0.1-2.8-0.3-3.8-1.2c-1-0.9-1.6-2.3-1.7-3.7c1.6-0.1,3.3-0.2,5-0.4c0,0,0.1,0,0.1,0
			C252.7,147.8,252.9,149.6,253.2,151.8z M257.4,156.2l-3-17.3c0,0,0,0,0-0.1c2.9-12.2,3.1-28.1,2.3-29.7c0.2-0.5,1-1.6,1.7-2.5
			c0.1-0.2,0.1-0.4-0.1-0.5c-0.2-0.1-0.4-0.1-0.5,0.1c-2.2,2.9-2,3.1-1.9,3.3c0,0,0.1,0.1,0.1,0.1c0.4,1.7,0.5,16.7-2.5,29
			c0,0.1,0,0.3,0.1,0.4c-0.6,1.4-1.8,3.8-3,4c-1.5,0.3-5.4,0.4-10,0.5c-0.2-0.3-0.6-0.6-1-0.6h-2.5l0.6-42.3
			c0.8,1.8,2.1,3.9,3.8,4.5c0.1,0,0.2,0,0.3,0c0.4,0,2.6-0.3,6-6.5c1.5-2.8,2.5-6.2,2.7-7c4.2,1.1,8,2.7,10.8,4.3
			c2.4,1.4,6.1,9.6,5.4,21.6l0.9,37.8L257.4,156.2z M268.8,168.6c-0.2,0-0.5-0.1-0.7-0.3c-0.4-0.5-0.8-2.6-1.1-4l0,0l0.2,6
			c0,0-0.2,0.1-0.4,0.1c-0.3,0-0.8-0.1-1.1-0.7c-0.4-0.9-0.9-3.4-0.9-5h-0.1l-0.1,6.8c0,0-0.2,0.1-0.4,0.1c-0.3,0-0.8-0.1-1.1-0.7
			c-0.5-1.1-0.7-4.4-0.7-5.8h-0.1l-0.3,6.3c0,0-0.1,0-0.3,0c-0.3,0-0.7-0.1-1.1-0.7c-0.6-0.9-0.5-5.3-0.6-5.3c0,0,0,0,0,0l-0.6-1.7
			c-0.1,0.9-0.1,2-0.3,2.3c-0.5,1.1-1.1,1.3-1.5,1.3c-0.4,0-0.6-0.2-0.6-0.2s0.7-2.5,0.7-5.4c0-0.6,2-3.9,2.4-4.8l4.4-0.3v0.1l4,7.2
			l1,4.7C269.5,168.4,269.2,168.6,268.8,168.6z"/>
	</g>
	<g>
		<path class="st2" d="M93.1,231.7c-2.2,3.5-2.7,8.4-0.5,10c2,1.5,4.5,1,5.5-0.2c1.4-1.7,1.2-6.2-0.4-9.3
			C96.8,230.2,94.3,229.8,93.1,231.7z"/>
		<path class="st2" d="M111.3,232c-1.2-1.9-3.7-1.4-4.7,0.4c-1.5,3.1-1.8,7.6-0.4,9.3c1,1.2,3.5,1.7,5.5,0.2
			C114,240.4,113.6,235.5,111.3,232z"/>
	</g>
	<g>
		<path class="st0" d="M91.6,195.7c0,0,0,14.8,0.5,22.8c0.5,8.3,1.3,13.1,1.3,13.1c-0.3,0.2-4.1,5.8,1.9,6c4.9,0.1,2.2-5.8,1.8-6
			l2.8-35.6L91.6,195.7z"/>
		<path class="st0" d="M111,231.9c0,0,0.7-4.8,1.3-13.1c0.5-8,0.5-22.8,0.5-22.8l-7.7,0.1l2.2,35.7c-0.4,0.2-3.1,6.1,1.8,6
			C115.1,237.8,111.3,232.1,111,231.9z"/>
	</g>
	<g>
		<path class="st2" d="M97.2,229.8h-3.8c-0.2,0-0.4,0.2-0.4,0.4v0l-2.4,0.7c-0.2,0-0.2,0.2-0.2,0.4l0.2,0.6c0,0.2,0.2,0.2,0.4,0.2
			l2.3-0.7c0.1,0,0.1,0,0.2,0h3.8c0.2,0,0.4-0.2,0.4-0.4v-0.9C97.6,230,97.4,229.8,97.2,229.8z"/>
		<path class="st2" d="M113.8,231.3l-2.4-0.7v0c0-0.2-0.2-0.4-0.4-0.4h-3.8c-0.2,0-0.4,0.2-0.4,0.4v0.9c0,0.2,0.2,0.4,0.4,0.4h3.8
			c0.1,0,0.1,0,0.2,0l2.3,0.7c0.2,0,0.3,0,0.4-0.2l0.2-0.6C114,231.5,113.9,231.3,113.8,231.3z"/>
	</g>
	<path class="st3" d="M112.6,169.8c0,0,1-3.9,3.5-10.2c1.8-4.5,5.7-10.3,5.7-10.3c-20.1-16.8-39.3-0.6-39.3-0.6
		c2.7,2.2,9.5,21.1,9.5,21.1s-1.5,2.9-3.2,7.5c-2.7,7.4-6.5,20.9-6.5,20.9s21.5,5.4,40-1c0,0-4.5-13.7-5.8-18
		C115.1,174.3,112.6,169.8,112.6,169.8z"/>
	<path class="st4" d="M113.8,113.1c0,0,10.8,12,6.6,20.6c-1.5,3.1-7.7,6.2-13,6.6c-5.4,0.5-8.6,0.4-13.6-0.5
		c-5.1-0.9-16.4-4.2-7.5-21C89.6,112.6,113.8,113.1,113.8,113.1z"/>
	<path class="st0" d="M118.5,123.1c-0.4-0.6-1.3-0.7-2.2-0.5c-1-7-6.9-12.5-14.1-12.5c-7.2,0-13.2,5.4-14.1,12.5
		c-0.9-0.2-1.7-0.1-2.2,0.5c-0.7,0.9-0.2,2.4,1.1,3.4c0.4,0.3,0.8,0.5,1.1,0.6c1,5.7,5.2,10.2,10.6,11.6c0,1.3,0.1,3,0.1,3.1
		c-0.8,0.3-1.9,0.5-3,0.8c1.1,2.3,3.8,3.8,6.6,3.8c2.8,0,5.2-1.1,6.2-3.6c-0.7-0.4-1.8-0.7-2.6-1c0-0.1,0.1-2,0.2-3.4
		c5.2-1.5,9.2-6,10.1-11.5c0.4-0.1,0.8-0.3,1.1-0.6C118.7,125.5,119.2,124,118.5,123.1z"/>
	<path class="st4" d="M118.4,110.6l-4.9-5.3l-2.6,5c-0.4-0.3-0.8-0.5-1.2-0.8c-6.8-4.3-13.5-1.8-15.3,1c0-0.4,0.1-0.6,0.1-0.6
		s-0.2,0-0.7,0.2l-1.1-5.5l-6.6,4.5l4.9,3.1c-0.8,0.8-1.7,1.9-2.7,3.3c-2.1,2.9-3.4,7-3.4,7s4.6-0.1,6.9-3.1c1.3-1.7,2-4.6,2.4-6.7
		c0.4,1,1.4,2.1,2.9,2.5c6.9,1.7,20,7.3,20,7.3s1.3-5-3.4-9.9L118.4,110.6z"/>
	<path class="st0" d="M132.1,164.5c0,0,0.2-3,1.7-3.5c1.5-0.5,3.3-0.2,2.9,0.3s-2.9,1.2-2.9,1.2L132.1,164.5z"/>
	<path class="st0" d="M138.2,171.5l-1.4-0.8c-0.4-0.2-0.5-0.6-0.3-1l0,0c0.2-0.3,0.7-0.5,1-0.3l1.4,0.8c0.4,0.2,0.5,0.6,0.3,1l0,0
		C139,171.6,138.5,171.7,138.2,171.5z"/>
	<path class="st0" d="M140.1,170.3l-3.3-0.9c-0.1,0-0.1-0.1-0.1-0.1l0.3-1.2c0-0.1,0.1-0.1,0.1-0.1l3.3,0.9c0.1,0,0.1,0.1,0.1,0.1
		l-0.3,1.2C140.2,170.3,140.2,170.3,140.1,170.3z"/>
	<path class="st0" d="M140.7,169l-3.3-0.9c-0.1,0-0.1-0.1-0.1-0.1l0.3-1.2c0-0.1,0.1-0.1,0.1-0.1l3.3,0.9c0.1,0,0.1,0.1,0.1,0.1
		l-0.3,1.2C140.8,169,140.8,169.1,140.7,169z"/>
	<path class="st0" d="M140.5,167l-2.1-0.3c-0.4-0.1-0.7-0.4-0.6-0.8l0,0c0-0.4,0.4-0.7,0.8-0.6l2.1,0.3c0.4,0.1,0.7,0.4,0.6,0.8l0,0
		C141.3,166.8,140.9,167.1,140.5,167z"/>
	<path class="st1" d="M78.5,188c0,0-3.2-3.2-4.4-3.8c-0.3-0.1-1.1-1.2-1.4-1.2c-2.6-4.9-8.5-25.1-8.5-25.1l-4.5,4.2l9.3,23.1
		c-0.1,0.7-0.4,2.3-0.4,3.6c0,1.2-0.7,2.9-0.5,3c1.7,1.1,1.7-0.9,2.4-3c0.3-0.1,0.5,0.3,0.7,0.5l3.1,4.5c0.2,0.4,0.6,0.4,0.9,0.2
		c0.3-0.2,0.4-0.5,0.2-0.8l-2.2-3.8l0.2-0.1l2.9,3.5c0.2,0.2,0.5,0.3,0.8,0.1c0.2-0.2,0.3-0.5,0.1-0.8l-2.5-4l0.1-0.1l2.8,3.4
		c0.2,0.2,0.6,0.2,0.8,0c0.2-0.2,0.2-0.6,0-0.8l-2.2-3.3h-0.1l2,1.5c0.2,0.2,0.6,0.1,0.8-0.1C78.8,188.5,78.7,188.1,78.5,188z"/>
	<path class="st1" d="M69.3,156.9c0,0-8-13.7-16.2-15.5c-0.4-0.2-0.9-0.4-1.4-0.5c0-0.1,0-0.2,0-0.3v-1.7c5.1-1.5,9-5.7,10-11.1
		c0.7-0.1,1.5-0.5,2.2-1.1c1.5-1.3,2-3.1,1.2-4.1c-0.7-0.8-2.1-0.7-3.3,0c0-0.1,0-0.3-0.1-0.4c0,0,0,0,0,0s1.9-1.9,1.9-4.7
		c0-2.6-3.1-7-7.7-9.6c-4.6-2.6-8.3-2.4-10.7-2.1c-3.6,0.4-4.8,2.2-5,3c0,0.1,0,0.1,0,0.2c-0.7,0.2-11.8,2.8-7.4,13.3
		c-1.2-0.5-2.5-0.4-3.1,0.4c-0.8,1-0.2,2.7,1.3,3.9c0.8,0.6,1.8,0.9,2.6,0.9c0.9,5.5,4.9,9.9,10.1,11.4v1.7c0,0.1,0,0.2,0,0.4
		c-0.6,0.2-1.1,0.4-1.7,0.7c-8.1,1.3-17.3,15.8-17.3,15.8l4.7,2.6c-1.7,7.6-4.4,19.9-5.1,25.9c-0.3,0.1-1.5,2.7-1.7,2.9
		c-0.8,1.1-1.9,4.2-1.9,4.2c-0.1,0.3,0,0.6,0.3,0.7c0.3,0.1,0.6,0,0.7-0.3l1.3-2.5l0.1,0l-0.8,3.9c-0.1,0.3,0.1,0.6,0.4,0.7
		c0.3,0.1,0.6-0.1,0.7-0.4l1.1-3.7l0.1,0l-0.1,4.7c0,0.3,0.2,0.6,0.5,0.6c0.3,0,0.6-0.2,0.6-0.5l0.5-4.6l0.2,0l0.6,3.9
		c0,0.3,0.3,0.5,0.6,0.5c0.3,0,0.6-0.3,0.6-0.7l-0.3-4c0.1-0.3,0.1-0.7,0.3-0.8c1.6,1.4,2.5,1,2.8,0.7c0.1-0.1,0.1-0.2,0-0.3
		c-0.6-0.4-1.4-0.7-2-1.7c-0.7-1.1-0.8-3-1.3-3.5l6-23.4l0,0l-2.4,22.6c0,0,0.9,0.2,2.7,0.5c-0.1,3.9-0.1,10.8,0.1,18
		c0.3,11.5,1.7,23.3,1.7,23.3l2.4-0.1l0.3,3c-0.3,0.2-0.4,0.6-0.6,1c0,0,0,0,0,0c-0.1,0.1-0.2,0.3-0.2,0.4l-1.7,6.5
		c-0.4,2.1,0.6,3.2,1.6,3.9c2.2,1.4,4.6,0.3,5.3-0.3c1-0.8,1.6-2.1,1.1-3.8l-1.6-6.2c0-0.1-0.1-0.3-0.1-0.4c0,0,0,0,0.1-0.1
		c-0.2-0.4-0.4-0.9-0.8-1.1l0.3-2.9l2.8-0.1l2.5-30.5l0.8-0.1l2.5,30.5h2.3l0.4,3.3c-0.3,0.2-0.4,0.7-0.6,1.1c0,0,0,0,0,0
		c-0.1,0.1-0.1,0.3-0.2,0.4l-1.6,6.5c-0.4,2.1,0.5,3.2,1.6,3.8c2.2,1.4,4.5,0.3,5.3-0.3c1-0.8,1.6-2.1,1.1-3.8l-1.6-6.2
		c0-0.2-0.1-0.3-0.1-0.4c0,0,0,0,0.1,0c-0.2-0.4-0.3-0.8-0.7-1l0.3-3.4h2.8c0,0.4,0.9-12.5,1.2-18c0.3-5.2,0.4-17.6,0.4-23.3
		c1.6-0.2,2.5-0.4,2.5-0.4l-2.4-23.7L69.3,156.9z M33.6,122.8c-0.1-0.1-0.2-0.1-0.2-0.2c0.2-0.9,0.8-2.6,1.7-4.4
		C34.4,119.6,33.9,121.1,33.6,122.8z M35.2,118c1.2-2.3,3.1-4.7,6-5.9C38.7,113.4,36.6,115.5,35.2,118z"/>
	<path class="st1" d="M40.2,108.9c0-0.1-0.6-4.4-2.1-3.6C36.4,106.2,40.2,108.9,40.2,108.9z"/>
	<path class="st1" d="M39.7,108.5c-0.1-0.1-3.3-1.6-3.4-0.2C36.1,110,39.7,108.5,39.7,108.5z"/>
	<path class="st0" d="M73.2,189.6l-1.6,1.6c0,0-0.1,0-0.2,0l-1-1c0,0,0-0.1,0-0.2l1.6-1.6c0,0,0.1,0,0.2,0l1,1
		C73.2,189.5,73.2,189.6,73.2,189.6z"/>
	<path class="st0" d="M73.9,191l-1.6,1.6c0,0-0.1,0-0.2,0l-1-1c0,0,0-0.1,0-0.2l1.6-1.6c0,0,0.1,0,0.2,0l1,1
		C74,190.9,74,191,73.9,191z"/>
	<path class="st0" d="M75.3,191.6l-1.1,2c0,0.1-0.1,0.1-0.1,0l-1.2-0.7c-0.1,0-0.1-0.1,0-0.1l1.1-2c0-0.1,0.1-0.1,0.1,0l1.2,0.7
		C75.3,191.4,75.3,191.5,75.3,191.6z"/>
	<path class="st0" d="M75,184.2c-0.6-0.2-1.3-0.3-2-0.5c-1-0.2-1.9,0.5-2.1,1.5c-0.2,1.1-0.3,2.4,0.1,2.3c0.6-0.1,1-1,1.3-2
		c0.3-1,1.1-0.5,1.5-0.7S75,184.2,75,184.2z"/>
	<path d="M97.9,82.1l-1.5,4.4L73.8,54.9l-1.8,1.3l22.6,31.6c-1.9,0-5.2,0-5,0.1c0.3,0.1,14,10.5,14,10.5L97.9,82.1z M96,87.7
		L96,87.7L96,87.7L96,87.7z"/>
	<g>
		<path d="M99.1,124.6c-0.1-0.9-0.7-1.6-1.4-1.5c-0.7,0.1-1.2,0.8-1.2,1.7c0.1,0.9,0.7,1.6,1.4,1.5S99.1,125.5,99.1,124.6z"/>
		<path d="M106.9,123.1c-0.7-0.1-1.4,0.6-1.4,1.5c-0.1,0.9,0.5,1.7,1.2,1.7c0.7,0.1,1.4-0.6,1.4-1.5
			C108.1,123.9,107.6,123.1,106.9,123.1z"/>
		<path d="M100.7,129.7c0.2,0,0.4-0.2,0.4-0.4c0-0.5,0.6-0.9,1.2-0.9s1.2,0.4,1.2,0.9c0,0.2,0.2,0.4,0.4,0.4c0.2,0,0.4-0.2,0.4-0.4
			c0-0.9-0.9-1.7-2-1.7c-1.1,0-2,0.7-2,1.7C100.3,129.5,100.5,129.7,100.7,129.7z"/>
		<path d="M106.1,132.7c-0.9,1.2-2.3,2-3.8,2c-1.5,0-2.9-0.7-3.8-2c-0.1-0.2-0.3-0.2-0.5-0.1c-0.2,0.1-0.2,0.3-0.1,0.5
			c1,1.4,2.6,2.3,4.4,2.3c1.7,0,3.4-0.8,4.4-2.3c0.1-0.2,0.1-0.4-0.1-0.5C106.4,132.5,106.2,132.5,106.1,132.7z"/>
		<path d="M98.5,120.9c0.2,0.1,0.4,0.1,0.5-0.1c0.1-0.2,0.1-0.4-0.1-0.5c-0.5-0.4-1.3-0.6-2.1-0.5c-0.8,0.1-1.4,0.5-1.8,1.1
			c-0.1,0.2-0.1,0.4,0.1,0.5c0.1,0,0.1,0.1,0.2,0.1c0.1,0,0.2-0.1,0.3-0.2c0.3-0.4,0.8-0.7,1.3-0.8
			C97.6,120.5,98.2,120.6,98.5,120.9z"/>
		<path d="M109.5,121.2c-0.3-0.6-0.9-1.1-1.7-1.3c-0.8-0.2-1.5-0.1-2.1,0.3c-0.2,0.1-0.2,0.3-0.1,0.5c0.1,0.2,0.3,0.2,0.5,0.1
			c0.4-0.3,1-0.3,1.5-0.2c0.6,0.1,1,0.5,1.3,0.9c0.1,0.1,0.2,0.2,0.3,0.2c0.1,0,0.1,0,0.2,0C109.5,121.6,109.6,121.4,109.5,121.2z"
			/>
	</g>
	<g>
		<path d="M44.7,124.2c-0.1-0.9-0.7-1.6-1.4-1.5c-0.7,0.1-1.2,0.8-1.2,1.7c0.1,0.9,0.7,1.6,1.4,1.5
			C44.3,125.9,44.8,125.1,44.7,124.2z"/>
		<path d="M52.5,122.6c-0.7-0.1-1.4,0.6-1.4,1.5c-0.1,0.9,0.5,1.7,1.2,1.7c0.7,0.1,1.4-0.6,1.4-1.5
			C53.8,123.5,53.2,122.7,52.5,122.6z"/>
		<path d="M46.3,129.2c0.2,0,0.4-0.2,0.4-0.4c0-0.5,0.6-0.9,1.2-0.9c0.7,0,1.2,0.4,1.2,0.9c0,0.2,0.2,0.4,0.4,0.4
			c0.2,0,0.4-0.2,0.4-0.4c0-0.9-0.9-1.7-2-1.7c-1.1,0-2,0.7-2,1.7C46,129.1,46.1,129.2,46.3,129.2z"/>
		<path d="M51.7,132.2c-0.9,1.2-2.3,2-3.8,2c-1.5,0-2.9-0.7-3.8-2c-0.1-0.2-0.3-0.2-0.5-0.1c-0.2,0.1-0.2,0.3-0.1,0.5
			c1,1.4,2.6,2.3,4.4,2.3c1.7,0,3.4-0.8,4.4-2.3c0.1-0.2,0.1-0.4-0.1-0.5C52,132,51.8,132.1,51.7,132.2z"/>
		<path d="M44.2,120.5c0.2,0.1,0.4,0.1,0.5-0.1c0.1-0.2,0.1-0.4-0.1-0.5c-0.5-0.4-1.3-0.6-2.1-0.5c-0.8,0.1-1.4,0.5-1.8,1.1
			c-0.1,0.2-0.1,0.4,0.1,0.5c0.1,0,0.1,0.1,0.2,0.1c0.1,0,0.2-0.1,0.3-0.2c0.3-0.4,0.8-0.7,1.3-0.8
			C43.2,120.1,43.8,120.2,44.2,120.5z"/>
		<path d="M55.1,120.8c-0.3-0.6-0.9-1.1-1.7-1.3c-0.8-0.2-1.5-0.1-2.1,0.3c-0.2,0.1-0.2,0.3-0.1,0.5c0.1,0.2,0.3,0.2,0.5,0.1
			c0.4-0.3,1-0.3,1.5-0.2c0.6,0.1,1,0.5,1.3,0.9c0.1,0.1,0.2,0.2,0.3,0.2c0.1,0,0.1,0,0.2,0C55.1,121.1,55.2,120.9,55.1,120.8z"/>
	</g>
	<path d="M94,109.8C94,109.7,94,109.7,94,109.8c0,0,0,0.1-0.1,0.1C94,109.8,94,109.8,94,109.8z"/>
	<g>
		<path class="st5" d="M39.4,233.3c-0.1,0.1-0.1,0.4,0,0.5c0.1,0.1,0.2,0.1,0.2,0.1c0.1,0,0.2,0,0.3-0.1c0.1-0.1,0.3-0.2,0.6-0.2
			c0.2,0,0.5,0.1,0.6,0.2c0.1,0.1,0.4,0.1,0.5,0c0.1-0.1,0.1-0.4,0-0.5c-0.3-0.3-0.7-0.4-1.1-0.4C40,232.8,39.7,233,39.4,233.3z"/>
		<path class="st5" d="M40.5,234.9c-0.4,0-0.8,0.2-1.1,0.5c-0.1,0.1-0.1,0.4,0,0.5c0.1,0.1,0.2,0.1,0.2,0.1c0.1,0,0.2,0,0.3-0.1
			c0.1-0.1,0.3-0.2,0.6-0.2c0.2,0,0.5,0.1,0.6,0.2c0.1,0.1,0.4,0.1,0.5,0c0.1-0.1,0.1-0.4,0-0.5C41.3,235,40.9,234.9,40.5,234.9z"/>
		<path class="st5" d="M54.2,233.5c-0.1,0.1-0.1,0.4,0,0.5c0.1,0.1,0.2,0.1,0.2,0.1c0.1,0,0.2,0,0.3-0.1c0.1-0.1,0.3-0.2,0.6-0.2
			c0.2,0,0.4,0.1,0.6,0.2c0.1,0.1,0.4,0.1,0.5,0c0.1-0.1,0.1-0.4,0-0.5c-0.3-0.3-0.7-0.4-1.1-0.4C54.8,233.1,54.4,233.2,54.2,233.5z
			"/>
		<path class="st5" d="M55.2,235.1c-0.4,0-0.8,0.2-1.1,0.5c-0.1,0.2-0.1,0.4,0,0.5c0.1,0.1,0.2,0.1,0.2,0.1c0.1,0,0.2,0,0.3-0.1
			c0.1-0.1,0.3-0.2,0.6-0.2c0.2,0,0.4,0.1,0.6,0.2c0.1,0.1,0.4,0.1,0.5,0c0.1-0.1,0.1-0.4,0-0.5C56.1,235.2,55.6,235.1,55.2,235.1z"
			/>
		<path class="st5" d="M132.9,171.2c0,0,0-0.1-0.1-0.1c-2.7,1.3-6.8,2.5-7.9,2.5c-0.1,0-0.2,0-0.2,0c-1.3-0.3-5.3-8-8.1-13.4
			c0-0.1,0.1-0.2,0.1-0.3c0.7-1.8,1.8-3.8,2.8-5.5l6.5,13.5l5.1-1.5c0-0.4,0.4-0.8,0.8-0.9c0.1,0,0.2,0,0.3-0.1c0,0,0,0,0-0.1
			l-5.8,1.7l-6.4-13.3c1.3-2.2,2.4-3.9,2.5-3.9c0.2-0.3,0.2-0.7-0.1-1c-4.9-4.1-10.1-6.5-15.5-7.4c0-0.1,0-0.1,0-0.2
			c0.3,0,0.5,0,0.8-0.1c5.7-0.5,12-3.8,13.6-7c3.4-7-2.5-16-5.4-19.7c-0.3-0.5-0.7-1-1.1-1.5l4-1.6c0.2-0.1,0.4-0.3,0.4-0.5
			c0.1-0.2,0-0.5-0.2-0.6l-4.9-5.3c-0.1-0.1-0.3-0.2-0.5-0.2c0,0-0.1,0-0.1,0c-0.2,0-0.4,0.2-0.5,0.4l-2.2,4.3
			c-0.2-0.1-0.4-0.2-0.5-0.4c-2.5-1.6-5.3-2.4-8-2.4c-3.7,0-6.4,1.5-7.8,2.9l0,0c0.1-0.1,0.1-0.1,0.2-0.2c0,0,0,0,0,0c0,0,0,0,0,0
			c0,0-0.1,0-0.1,0l-1-4.7c0-0.2-0.2-0.4-0.4-0.5c-0.1,0-0.2-0.1-0.3-0.1c-0.1,0-0.3,0-0.4,0.1l-6.6,4.5c-0.2,0.1-0.3,0.4-0.3,0.6
			c0,0.2,0.1,0.5,0.3,0.6l4.1,2.6c-0.7,0.7-1.4,1.6-2.2,2.7c-1,1.4-1.8,3-2.4,4.4c-3,6.1-3.7,11.1-1.9,14.7
			c1.6,3.3,5.1,5.4,10.4,6.4c1.6,0.3,3.1,0.5,4.4,0.6c0,0,0,0.1,0,0.1c-0.1,0-0.3,0.1-0.4,0.1c-9.1,1.4-15.3,6.6-15.6,6.8
			c-0.2,0.1-0.3,0.3-0.3,0.6c0,0.2,0.1,0.4,0.3,0.6c0.6,0.5,1.5,2.1,2.6,4.2l-9.6,30c-0.3-0.1-0.7-0.2-1.2-0.3c0.1,0,0.2,0,0.2,0
			c0,0,0,0,0,0c-0.3-0.3-0.6-0.7-1-0.8c-2.1-4.1-6.1-17.3-7.7-22.5l4.1-2.4c0.2-0.1,0.3-0.3,0.3-0.4c0-0.2,0-0.4-0.1-0.5
			c-0.4-0.6-8.4-14.3-16.9-15.9c-0.3-0.1-0.6-0.2-0.9-0.3v-0.8c5.1-1.6,9.1-5.8,10.3-11.1c0.7-0.2,1.4-0.6,2.1-1.2
			c0.8-0.7,1.4-1.6,1.7-2.5c0.3-1,0.1-2-0.4-2.6c-0.5-0.5-1.2-0.8-2-0.8c-0.1,0-0.3,0-0.4,0c0.5-0.9,1.1-2.2,1.1-3.8
			c0-3.1-3.6-7.7-8-10.2c-2.8-1.6-5.6-2.4-8.5-2.4c-1,0-1.9,0.1-2.6,0.2c-2.3,0.3-3.8,1.1-4.7,2c-0.2-0.8-0.5-1.6-0.9-2
			c-0.4-0.5-0.9-0.6-1.2-0.6c-0.2,0-0.5,0.1-0.7,0.2c-0.7,0.4-0.8,0.9-0.9,1.2c0,0.4,0.1,0.8,0.4,1.2c-0.1,0-0.1,0-0.2,0
			c-1.1,0-1.5,0.6-1.6,1.2c-0.1,0.5,0.1,0.9,0.3,1.1c0.2,0.2,0.4,0.3,0.6,0.4c-1.7,0.9-3.5,2.3-4.5,4.4c-1,2.1-1.1,4.5-0.2,7.2
			c-0.1,0-0.2,0-0.3,0h0c-0.9,0-1.7,0.3-2.2,1c-1,1.3-0.4,3.5,1.4,4.9c0.8,0.6,1.6,0.9,2.5,1c1.2,5.4,5.2,9.8,10.4,11.3v0.9
			c-0.5,0.2-0.9,0.3-1.3,0.5c-8.3,1.3-17.4,15.5-17.8,16.1c-0.1,0.2-0.1,0.4-0.1,0.6c0,0.2,0.2,0.4,0.4,0.5l4.3,2.3
			c-1.7,7.5-4.3,19.3-5,25.2c-0.3,0.3-0.6,0.9-1.3,2.3c-0.1,0.2-0.3,0.5-0.3,0.6c-0.8,1.2-1.9,4.2-2,4.3c-0.1,0.3-0.1,0.7,0,1
			c0.1,0.3,0.4,0.6,0.7,0.7c0.1,0.1,0.3,0.1,0.5,0.1c0.2,0,0.3,0,0.5-0.1l-0.1,0.3c-0.1,0.3,0,0.7,0.2,0.9c0.2,0.3,0.5,0.5,0.8,0.6
			c0.1,0,0.2,0,0.3,0c0.4,0,0.8-0.2,1-0.5l0,0.3c0,0.3,0.1,0.6,0.3,0.9c0.2,0.3,0.5,0.4,0.9,0.4c0,0,0.1,0,0.1,0
			c0.7,0,1.2-0.5,1.3-1.2l0-0.2c0.2,0.4,0.6,0.7,1.2,0.7c0,0,0,0,0,0c0.4,0,0.7-0.2,1-0.4c0.2-0.3,0.4-0.6,0.3-1l-0.3-3.5
			c0.6,0.3,1.1,0.5,1.6,0.5c0.7,0,1.1-0.3,1.3-0.5c0.3-0.3,0.3-0.6,0.3-0.8c0-0.2-0.1-0.4-0.4-0.6c-0.1-0.1-0.2-0.1-0.3-0.2
			c-0.5-0.3-1-0.6-1.5-1.3c-0.3-0.5-0.5-1.2-0.6-1.8c-0.1-0.6-0.3-1-0.5-1.4l3.6-13.9L30.9,185c0,0.4,0.2,0.7,0.5,0.8
			c0.1,0,0.8,0.2,2.2,0.4c-0.1,4-0.1,10.6,0.1,17.4c0.3,11.4,1.7,23.3,1.7,23.4c0,0.4,0.4,0.6,0.7,0.6c0,0,0,0,0,0l1.7,0l0.2,1.9
			c-0.2,0.2-0.3,0.5-0.4,0.7c0,0.1-0.1,0.2-0.1,0.3c0,0,0,0.1,0,0.1c-0.1,0.1-0.1,0.3-0.2,0.4c0,0,0,0,0,0l-1.7,6.5c0,0,0,0,0,0
			c-0.4,2,0.3,3.6,1.9,4.6c0.8,0.5,1.7,0.8,2.7,0.8c1.6,0,2.9-0.7,3.5-1.2c1.4-1.1,1.8-2.7,1.3-4.6l-1.6-6.2c0-0.1,0-0.1-0.1-0.2
			c0-0.1,0-0.3,0-0.4c-0.2-0.4-0.4-0.8-0.7-1.2l0.2-1.9l2.2-0.1c0.4,0,0.7-0.3,0.7-0.7l2.2-27l2.2,27c0,0.4,0.3,0.7,0.7,0.7h1.7
			l0.3,2.3c-0.2,0.2-0.3,0.5-0.4,0.7c0,0.1-0.1,0.2-0.1,0.3c0,0.1-0.1,0.2-0.1,0.2c0,0.1-0.1,0.2-0.1,0.3c0,0,0,0,0,0l-1.6,6.5
			c0,0,0,0,0,0c-0.4,2,0.3,3.5,1.9,4.6c0.8,0.5,1.7,0.8,2.7,0.8c1.6,0,2.9-0.7,3.4-1.2c1.4-1.1,1.8-2.7,1.3-4.5l-1.6-6.1
			c0-0.1,0-0.2-0.1-0.3c0-0.1,0-0.2,0-0.3c-0.1-0.4-0.3-0.8-0.6-1.1l0.2-2.3h2c0,0,0.1,0,0.1,0c0.2,0,0.7-0.1,0.7-0.8
			c0-0.1,0-0.2,0-0.4c0-0.4,0.1-0.9,0.1-1.5c0.1-1.3,0.2-3,0.3-4.9c0.3-4,0.5-8.4,0.7-11c0.3-5,0.4-16.7,0.4-22.7
			c1.2-0.2,1.9-0.3,1.9-0.3c0.4-0.1,0.6-0.4,0.6-0.8l-1.1-11.1l4.6,11.4c-0.2,0.9-0.4,2.3-0.4,3.5c0,0.6-0.2,1.4-0.4,2
			c-0.2,0.8-0.3,1.3,0.2,1.6c0.4,0.3,0.8,0.4,1.2,0.4c0.9,0,1.3-0.6,1.6-1.5c0,0,0.1,0.1,0.1,0.1c0.1,0.1,0.2,0.2,0.3,0.2
			c0,0.4,0.1,0.8,0.4,1.1c0.3,0.3,0.7,0.4,1.1,0.4c0,0,0.1,0,0.1,0c0.1,0.3,0.3,0.6,0.7,0.8c0.1,0.1,0.3,0.1,0.4,0.2
			c0.2,0.4,0.7,0.7,1.1,0.7c0.2,0,0.5-0.1,0.7-0.2c0.3-0.2,0.5-0.4,0.6-0.8c0,0,0-0.1,0-0.1c0.2,0.1,0.3,0.1,0.5,0.1
			c0.3,0,0.5-0.1,0.7-0.2c0.3-0.2,0.5-0.5,0.5-0.8c0-0.1,0-0.2,0-0.3h0c0.3,0,0.6-0.1,0.9-0.4c0.2-0.2,0.4-0.6,0.4-0.9
			c0-0.3-0.1-0.6-0.3-0.8l-0.4-0.5c0.3,0,0.7-0.2,0.9-0.5c0.2-0.3,0.3-0.6,0.2-0.9c0-0.3-0.2-0.6-0.4-0.8c0,0-0.1-0.1-0.1-0.1
			c0.5-0.6,1.6-3.6,7.1-17.6c0.9-2.3,1.8-4.7,2.7-6.9c1,2.4,1.9,4.8,2.6,6.9c-0.4,0.8-1.7,3.5-3.1,7.3c-2.7,7.3-6.5,20.8-6.5,20.9
			c-0.1,0.2,0,0.4,0.1,0.6c0.1,0.2,0.3,0.3,0.4,0.3c0.1,0,3.5,0.9,8.7,1.5c0,5,0.2,13.1,0.5,18.2c0.3,5,0.7,8.8,1,11
			c0.1,0,0,0.2,0,0.1l-1.7,0.5c-0.7,0.2-1.1,1-0.9,1.7c0.2,0.6,0.7,1,1.3,1c0.1,0,0.3,0,0.4-0.1l0.2-0.1c-1.7,3.5-1.9,7.8,0.4,9.6
			c0.9,0.7,2,1.1,3.2,1.1c1.3,0,2.6-0.5,3.3-1.4c1.7-2,1.3-6.9-0.2-10c0,0-0.4-0.1-0.4-0.1c0,0,0.1-0.1,0.1-0.1
			c0.1-0.2,0.2-0.5,0.2-0.7v-0.4c0-0.4-0.2-0.7-0.4-1c-0.1-0.1,0-0.2,0.1-0.2l2.2-28.2c0.5,0,1.1,0,1.7,0c0.9,0,1.8,0,2.7,0
			l1.8,28.8c0,0,0,0.1,0,0.1c-0.2,0.2-0.4,0.6-0.4,0.9v0.4c0,0.2,0.1,0.4,0.1,0.6c-0.1,0.1-0.1,0.2-0.2,0.4c-1.5,3.1-2,8.1-0.3,10.1
			c0.7,0.9,2,1.4,3.3,1.4c1.1,0,2.2-0.4,3.2-1.1c2.4-1.8,2.1-6.1,0.4-9.6l0.2,0.1c0.1,0,0.3,0.1,0.4,0.1c0.6,0,1.1-0.4,1.3-1
			c0.2-0.7-0.2-1.5-0.9-1.7l-1.7-0.5c0,0.1-0.1-0.1,0-0.1c0.3-2.2,0.7-6,1-11c0.3-5.3,0.5-13.8,0.5-18.8c3.3-0.5,6.3-1.3,9.2-2.3
			c0.4-0.1,0.6-0.5,0.4-0.9c0-0.1-4.5-13.8-5.8-18c-1.4-4.3-3.4-8.3-3.9-9.3c0.3-0.9,1.2-4,2.9-8.6c0.5,1,1.1,2.1,1.7,3.2
			c5,9.5,6.1,9.8,6.6,9.9c0.1,0,0.2,0,0.4,0c1.1,0,5.4-1.2,8.4-2.7C133.2,171.5,134.2,170.4,132.9,171.2z M87.9,124.6
			c0-0.7,0.1-1.4,0.1-2c1.4-0.5,3-1.3,4.1-2.7c1.1-1.3,1.7-3.4,2.2-5.3c0.6,0.6,1.4,1.1,2.3,1.3c6.3,1.5,18,6.5,19.7,7.2
			c0.1,0.5,0.1,1,0.1,1.6c0,8-6.4,14.5-14.3,14.5C94.3,139.1,87.9,132.6,87.9,124.6z M87.3,126.7c-0.1-0.1-0.2-0.2-0.4-0.2
			c-1.3-1-1.8-2.5-1.1-3.3c0.4-0.1,0.9-0.1,1.4-0.3c-0.1,0.6-0.1,1.2-0.1,1.8C87.2,125.3,87.3,126,87.3,126.7z M120.5,133.7
			c-1.5,3.1-7.7,6.2-13,6.6c-0.2,0-0.4,0-0.7,0.1c0-0.4,0-0.9,0.1-1.4c5.1-1.7,9-6.1,10.1-11.5c0.3-0.1,0.6-0.3,0.9-0.6
			c1.6-1.2,2.1-3.2,1.2-4.4c-0.3-0.4-0.8-0.7-1.4-0.8c0.1-0.8,0.1-2.2-0.3-3.8c0,0,0,0,0,0C120.1,122.2,123,128.6,120.5,133.7z
			 M117.6,122.7c0,0,0-0.1,0-0.1c0.4,0.1,0.7,0.3,0.9,0.5c0.7,0.9,0.2,2.4-1.1,3.4c-0.1,0.1-0.2,0.2-0.4,0.2
			c0.1-0.7,0.1-1.4,0.1-2.1c0-0.5,0-1-0.1-1.5c0,0,0,0,0.1,0C117.4,123,117.5,122.9,117.6,122.7z M113.5,105.3l4.9,5.3l-4.2,1.7
			c-0.8-0.9-1.8-1.7-2.9-2.6L113.5,105.3z M102.1,107.3c2.3,0,5,0.6,7.6,2.3c2.5,1.6,4.2,3.3,5.3,4.9c0,0,0,0.1,0,0.1
			c0.1,0.1,0.2,0.3,0.3,0.4c2.5,4.1,1.6,7.5,1.6,7.5s-13-5.6-20-7.3c-1.7-0.4-2.9-1.9-3-3.1C93.7,110,97.3,107.3,102.1,107.3z
			 M86,109.1l6.6-4.5l1,4.8c-0.7,0.3-1.9,0.9-3.4,2.4L86,109.1z M85.8,119.6c0.1-0.3,0.3-0.6,0.4-0.8c0-0.1,0.1-0.1,0.1-0.2
			c0,0,0,0,0-0.1c0.5-1,1.1-2.1,1.8-3.1c2.8-3.9,4.8-5.1,5.7-5.4c-0.5,0.7-0.7,1.4-0.6,2.1c0,0.6,0.3,1.2,0.6,1.7
			c-0.4,2-1.1,4.2-2.2,5.6c-2.3,2.9-6.9,3.1-6.9,3.1S85.1,121.2,85.8,119.6z M93.8,139.8c-4.7-0.8-14.4-3.6-9.5-16.7
			c0.1,0.1,0.3,0.1,0.4,0.1c0,0,0,0,0,0c0,0,0.1,0,0.3,0c-0.5,1.2,0.1,2.8,1.5,3.8c0.3,0.2,0.6,0.4,0.9,0.6
			c1.1,5.6,5.2,10.1,10.6,11.6c0,0.4,0,0.8,0,1.2C96.8,140.3,95.4,140.1,93.8,139.8z M97.8,142.1c0.2,0,0.4-0.1,0.6-0.1
			c0,0,0,0,0-0.1c0.2,0,0.3-0.1,0.5-0.1c0-0.1,0-1.2-0.1-2.4c1.1,0.3,2.3,0.4,3.4,0.4c1.4,0,2.7-0.2,3.9-0.5
			c-0.1,1.2-0.1,2.6-0.1,2.6c0.8,0.2,1.9,0.5,2.6,1c-1,2.4-3.4,3.6-6.2,3.6c-2.7,0-5.5-1.5-6.6-3.8
			C96.5,142.4,97.2,142.2,97.8,142.1z M75,184.2C75,184.2,75,184.2,75,184.2c-0.1,0.1-0.7,0.4-1.2,0.6c-0.2,0.1-0.3,0.1-0.5,0.1
			c0,0,0,0,0,0c-0.4,0-0.8,0-1,0.6c-0.3,1-0.6,1.9-1.3,2c0,0,0,0,0,0c-0.3,0-0.2-1.2,0-2.3c0.1-0.9,0.9-1.5,1.8-1.5
			c0.1,0,0.2,0,0.3,0C73.7,183.9,74.4,184,75,184.2z M69.3,156.9l-7,4l-0.8-7.6c0,0,0-0.1,0-0.1c-1-4.9-2.9-8.4-5.6-10.7
			C63,146.2,69.3,156.9,69.3,156.9z M63.8,122c0.6,0,1.1,0.2,1.4,0.6c0.8,1,0.3,2.8-1.2,4.1c-0.5,0.4-1,0.7-1.4,0.9
			c0.1-0.9,0.2-1.7,0.2-2.6c0-0.9-0.1-1.7-0.2-2.5c0.1-0.1,0.1-0.2,0.2-0.3C63.1,122.1,63.5,122,63.8,122z M40.3,108.8
			c0.2-0.8,1.4-2.6,5-3c0.7-0.1,1.6-0.2,2.5-0.2c2.2,0,4.9,0.4,8.1,2.3c4.5,2.6,7.7,7,7.7,9.6c0,2.8-1.9,4.7-1.9,4.7
			s-1.4-0.9-4.9-3.3c-3.1-2.1-5.3-4.5-5.3-4.5l0.5,2.2c0,0,0,0-0.1,0c-1,0-7-0.2-10.7-4.7C40.3,110.8,40.1,109.7,40.3,108.8z
			 M38.1,105.3c0.1-0.1,0.2-0.1,0.3-0.1c0.8,0,1.3,1.5,1.5,2.6c0,0,0,0.1,0,0.1c-0.3-0.2-0.9-0.4-1.6-0.6
			C37.7,106.5,37.3,105.7,38.1,105.3z M36.3,108.3c0-0.4,0.4-0.6,0.8-0.6c0.9,0,2.1,0.5,2.5,0.7c0,0,0,0,0,0c-0.5,0.1-1.2,0.3-2,0.7
			c0,0,0.1-0.1,0.1-0.1c-0.2,0-0.3,0-0.5,0C36.7,109.1,36.2,108.9,36.3,108.3z M31.1,126.6c-1.5-1.1-2-2.9-1.3-3.9
			c0.4-0.5,0.9-0.7,1.6-0.7c0.2,0,0.4,0,0.6,0.1c0.2,0.5,0.4,0.9,0.6,1.4c0,0.1,0.1,0.2,0.2,0.2c0,0.4-0.1,0.8-0.1,1.2
			c0,0.8,0.1,1.7,0.2,2.5C32.3,127.3,31.7,127,31.1,126.6z M39.5,109.3c-0.1,0.8,0.1,1.9,1.1,3.1c-5.7,2.8-7.4,10.8-7.4,10.8
			C28.6,113.4,36.8,110.1,39.5,109.3z M33.5,125c0-0.4,0-0.7,0-1.1c0.2-0.1,0.4-0.3,0.4-0.5c0-0.1,1.7-7.9,7.2-10.4
			c3.9,4.2,9.6,4.4,10.8,4.4c0.1,0,0.2,0,0.2,0c0.2,0,0.4-0.1,0.5-0.3c0.1-0.1,0.2-0.3,0.1-0.5c1,0.9,2.2,1.9,3.7,2.9
			c3.5,2.4,4.9,3.3,4.9,3.3c0.1,0.1,0.3,0.1,0.4,0.1c0,0,0.1,0,0.1,0c0.1,0.7,0.2,1.4,0.2,2.1c0,8-6.4,14.5-14.3,14.5
			C39.9,139.4,33.5,133,33.5,125z M43.9,141.3c0.2-0.1,0.3-0.2,0.2-0.4c0-0.1,0-0.2,0-0.3v-0.9c1.2,0.3,2.4,0.4,3.6,0.4
			c1.2,0,2.4-0.2,3.6-0.4v0.9c0,0.1,0,0.1,0,0.2l0,0.1c0,0.2,0.1,0.3,0.3,0.4c0.7,0.2,1.3,0.5,1.9,0.8c-1.1,2.2-3.3,3.6-5.8,3.6
			c-2.4,0-4.6-1.4-5.7-3.5C42.6,141.8,43.3,141.5,43.9,141.3z M24.9,157.5c0,0,7.6-11.9,15-15.1c-0.4,0.3-0.9,0.7-1.3,1.1
			c-2.3,2.4-3.8,5.7-4.4,9.7c0,0,0,0,0,0l-0.9,8.8L24.9,157.5z M27.9,185.8c0.5,0.5,0.6,2.4,1.3,3.5c0.6,1,1.4,1.3,2,1.7
			c0.1,0.1,0.1,0.2,0,0.3c-0.2,0.2-0.4,0.3-0.8,0.3c-0.5,0-1.1-0.2-2-1c-0.3,0-0.3,0.5-0.3,0.8l0.3,4c0,0.4-0.3,0.7-0.6,0.7
			c0,0,0,0,0,0c-0.3,0-0.5-0.2-0.6-0.5l-0.6-3.9l-0.2,0l-0.5,4.6c0,0.3-0.3,0.5-0.6,0.5c0,0,0,0,0,0c-0.3,0-0.5-0.3-0.5-0.6l0.1-4.7
			l-0.1,0l-1.1,3.7c-0.1,0.3-0.3,0.4-0.5,0.4c0,0-0.1,0-0.1,0c-0.3-0.1-0.5-0.4-0.4-0.7l0.8-3.9l-0.1,0l-1.3,2.5
			c-0.1,0.2-0.3,0.4-0.5,0.4c-0.1,0-0.1,0-0.2,0c-0.3-0.1-0.4-0.4-0.3-0.7c0,0,1.2-3.1,1.9-4.2c0.2-0.2,1.4-2.8,1.7-2.9
			c0.7-5.8,3.2-17.5,4.9-25.1l3.8,2.1l-0.4,4.2L27.9,185.8z M43.4,241.3c-0.5,0.4-1.6,1-3,1c-0.7,0-1.5-0.2-2.3-0.7
			c-0.8-0.5-1.6-1.4-1.7-2.8c0.9,1,2.4,1.7,4.1,1.7c0,0,0,0,0.1,0c1.8,0,3.3-0.9,4.1-1.9C44.7,239.8,44.1,240.7,43.4,241.3z
			 M44.5,237.4c0,0-0.1,0.1-0.1,0.1c-0.4,1.1-1.9,2.2-3.8,2.2c0,0,0,0,0,0c-1.7,0-3.3-0.8-3.9-2c0-0.1-0.1-0.1-0.1-0.1l1.6-6.2
			c0.7,0.6,1.6,1,2.5,1c0.9,0,1.7-0.3,2.4-0.9L44.5,237.4z M42.8,230.8c-0.6,0.6-1.3,1-2.2,1c-0.9,0-1.7-0.4-2.2-1
			c0.2-0.4,0.2-0.8,0.6-1l-0.2-2.2l3.6-0.1l-0.2,2.2C42.4,229.9,42.6,230.3,42.8,230.8z M58.1,241.4c-0.5,0.4-1.6,1-3,1
			c-0.7,0-1.5-0.2-2.3-0.7c-0.8-0.5-1.6-1.3-1.6-2.7c0.9,1,2.4,1.6,4,1.6c1.8,0,3.3-0.9,4.1-1.9C59.3,239.9,58.8,240.8,58.1,241.4z
			 M57.6,231.8l1.5,5.8c0,0-0.1,0.1-0.1,0.1c-0.4,1.1-1.9,2.2-3.8,2.2c-1.7,0-3.3-0.8-3.9-1.9c0,0-0.1-0.1-0.1-0.1l1.6-6.2
			c0.7,0.6,1.5,0.9,2.4,0.9C56.1,232.7,57,232.4,57.6,231.8z M53.4,227.3H57l-0.2,2.7c0.4,0.2,0.5,0.6,0.7,1c-0.5,0.6-1.3,1-2.2,1
			c-0.9,0-1.7-0.4-2.2-1c0.2-0.4,0.3-0.8,0.6-1.1L53.4,227.3z M61,208.7c-0.3,5.4-1.2,18-1.2,18c0,0,0,0,0,0H51l-2.5-30.4H50
			c0.2,0,0.4-0.2,0.4-0.4s-0.2-0.4-0.4-0.4h-3.9c-0.2,0-0.4,0.2-0.4,0.4s0.2,0.4,0.4,0.4h1.5l-2.5,30.4l-8.9,0.2
			c0,0-1.4-11.8-1.7-23.3c-0.1-3.5-0.1-6.9-0.1-9.9c0,0,0,0,0,0c3.2,0,5.7-2.8,5.7-6.2c0-0.2,0-0.4,0-0.6c2.2,0.1,4.9,0.2,8.1,0.2
			c2.7,0,5.1-0.1,7.3-0.3c0,0.2,0,0.4,0,0.6c0,3.4,2.7,6.2,6,6.2h0C61.3,199.2,61.2,205.4,61,208.7z M34.3,192.9
			c0-2.6,0-4.9,0.1-6.6c1.2,0.2,2.9,0.3,4.9,0.5c0,0.2,0,0.4,0,0.7C39.4,190.4,37.1,192.9,34.3,192.9
			C34.3,192.9,34.3,192.9,34.3,192.9z M61.4,192.9C61.4,192.9,61.4,192.9,61.4,192.9c-2.9,0-5.3-2.5-5.3-5.5c0-0.2,0-0.4,0.1-0.7
			c2.2-0.2,3.9-0.4,5.3-0.6C61.4,188,61.4,190.3,61.4,192.9z M64,185c0,0-6.4,1.4-15.8,1.4c-11.3,0-16.5-1.3-16.5-1.3l3.3-31.7
			c0.8-4.9,3-8.9,6.3-11c1.2,2.5,3.7,4.1,6.4,4.1c2.8,0,5.4-1.7,6.5-4.2c3.3,2.1,5.5,6,6.6,11.2L64,185z M71,190.8
			C70.9,190.8,70.9,190.8,71,190.8c-0.4-0.3-0.4-0.9,0-1.2l0.6-0.6c0.2-0.2,0.4-0.2,0.6-0.2c0.2,0,0.4,0.1,0.6,0.2
			c0.1,0.1,0.2,0.3,0.2,0.4c-0.4,0-0.8,0.2-1.1,0.4l-0.6,0.6C71.1,190.6,71,190.7,71,190.8z M72.5,191.8c-0.1,0.2-0.2,0.4-0.2,0.6
			c0,0,0,0,0,0c-0.2,0-0.4-0.1-0.6-0.2c-0.3-0.3-0.3-0.8,0-1.1l0.6-0.6c0.2-0.2,0.4-0.2,0.6-0.2c0.2,0,0.4,0.1,0.6,0.2
			c0,0,0,0,0.1,0.1c-0.2,0.1-0.5,0.3-0.6,0.6L72.5,191.8z M73.8,193.3c-0.1,0-0.3,0-0.4-0.1c-0.4-0.2-0.5-0.7-0.3-1.1l0.4-0.8
			c0.1-0.3,0.4-0.4,0.7-0.4c0.1,0,0.3,0,0.4,0.1c0.4,0.2,0.5,0.7,0.3,1.1l-0.4,0.8C74.3,193.2,74.1,193.3,73.8,193.3z M74.9,193.8
			c-0.1,0.1-0.2,0.1-0.3,0.1c-0.1,0-0.1,0-0.2,0c0.3-0.1,0.5-0.3,0.7-0.6l0-0.1C75.2,193.5,75.1,193.7,74.9,193.8z M78.6,188.7
			c-0.1,0.1-0.3,0.2-0.4,0.2c-0.1,0-0.2,0-0.3-0.1l-1.8-1.3l2.1,3.1c0.2,0.2,0.2,0.6,0,0.8c-0.1,0.1-0.2,0.2-0.4,0.2
			c-0.1,0-0.3-0.1-0.4-0.2l-2.8-3.4l-0.1,0.1l2.5,4c0.2,0.2,0.1,0.6-0.1,0.8c-0.1,0.1-0.2,0.1-0.3,0.1c-0.2,0-0.3-0.1-0.5-0.2
			l-0.3-0.4c0.3-0.7,0-1.5-0.6-1.9c-0.2-0.1-0.5-0.2-0.8-0.2c0,0,0,0,0,0c-0.1-0.1-0.2-0.3-0.3-0.4c-0.1-0.1-0.2-0.2-0.3-0.3
			c0-0.4-0.1-0.8-0.4-1.1c-0.3-0.3-0.7-0.4-1.1-0.4c-0.4,0-0.8,0.2-1.1,0.4l-0.3,0.3c-0.1-0.1-0.2-0.2-0.3-0.2c0,0-0.1,0-0.1,0
			c-0.5,1.7-0.7,3.3-1.6,3.3c-0.2,0-0.5-0.1-0.8-0.3c-0.1-0.1,0.5-1.8,0.5-3c0-1.3,0.3-2.9,0.4-3.6l-5.6-13.9l-1-9.5l2.5-1.4
			c1.6,5.5,5.7,18.9,7.8,22.8c0,0,0,0,0,0c0,0,0.1,0,0.1,0c0,0-0.1,0-0.1,0c-1.2,0-2.3,0.9-2.5,2.1c-0.3,2-0.2,2.5,0.1,2.9
			c0.2,0.2,0.4,0.3,0.6,0.3c0.1,0,0.1,0,0.2,0c1-0.2,1.5-1.4,1.8-2.5c0-0.1,0-0.1,0-0.1c0.1,0,0.2,0,0.2,0h0h0c0.2,0,0.6,0,0.9-0.2
			l1-0.6c1.4,1.1,3.3,3,3.3,3C78.7,188.1,78.8,188.5,78.6,188.7z M78.4,186.8c-0.7-0.7-1.7-1.7-2.7-2.4c0-0.1,0-0.2,0-0.3
			c0-0.1,0-0.1,0-0.2l9.5-29.5c1,2.2,2.1,4.8,3.2,7.4C84.7,171.1,79.1,185.5,78.4,186.8z M91.3,232c-0.1,0-0.1,0-0.2,0
			c-0.3,0-0.5-0.2-0.6-0.4c-0.1-0.3,0.1-0.7,0.4-0.8l1.4-0.4c0,0,0,0,0,0v0.4c0,0.3,0.1,0.6,0.3,0.8L91.3,232z M98.8,236
			c0-0.1,0-0.2,0-0.3c0.4,2.3,0.2,4.6-0.8,5.7c-0.6,0.7-1.6,1.1-2.8,1.1c-0.9,0-1.9-0.3-2.7-0.9c-1.4-1-1.7-3.3-1.2-5.7
			c0.3,1,1.2,2.2,4,2.2c0,0,0.1,0,0.1,0C97.9,238.2,98.6,236.8,98.8,236z M95.4,237.5c0,0-0.1,0-0.1,0c-4.7-0.1-3.4-3.6-2.4-5.2
			c0,0,0.2-0.2,0.1-0.2c0,0,0,0,0,0c0.2,0.1,0.4,0.2,0.6,0.2H97c0.2,0,0.4,0,0.5-0.1C98.2,233.6,99.3,237.5,95.4,237.5z M93,230.9
			v-0.4c0-0.3,0.3-0.6,0.6-0.6H97c0.3,0,0.6,0.3,0.6,0.6v0.4c0,0.3-0.3,0.6-0.6,0.6h-3.3C93.3,231.5,93,231.2,93,230.9z M99.5,201
			l-2.2,28.1c-0.1,0-0.2,0-0.3,0h-3.3c-0.2,0-0.4,0-0.5,0.1c-0.3-2.2-0.6-5.8-1-10.7c-0.3-5.1-0.5-13-0.5-18.1
			c2.4,0.3,5.1,0.5,8,0.6C99.6,201,99.6,201,99.5,201z M106.9,232.5c0.2,0.1,0.3,0.1,0.5,0.1h3.3c0.2,0,0.8,0.1,0.8,0.1
			c0.9,1.6,2.3,5.1-2.4,5.2c0,0-0.1,0-0.1,0C105.1,237.9,106.2,234,106.9,232.5z M106.8,231.2v-0.4c0-0.3,0.3-0.6,0.6-0.6h3.3
			c0.3,0,0.6,0.3,0.6,0.6v0.4c0,0.3-0.3,0.6-0.6,0.6h-3.3C107.1,231.8,106.8,231.6,106.8,231.2z M113,236.4c0.5,2.4,0.1,4.6-1.2,5.7
			c-0.9,0.7-1.8,0.9-2.7,0.9c-1.2,0-2.2-0.5-2.8-1.1c-0.9-1.1-1.1-3.4-0.8-5.7c0,0.1,0,0.2,0,0.3c0.2,0.8,0.9,2.2,3.4,2.2
			c0,0,0.1,0,0.1,0C111.9,238.5,112.8,237.3,113,236.4z M112.1,231.2c0,0,0-0.4,0-0.5l1.4,0.4c0.3,0.1,0.5,0.5,0.4,0.8
			c-0.1,0.3-0.3,0.4-0.6,0.4c-0.1,0-0.1,0-0.2,0c-0.4-0.1-0.9-0.3-1.3-0.4C112,231.8,112.1,231.5,112.1,231.2z M112.2,218.8
			c-0.3,4.8-0.7,8.5-1,10.7c-0.2-0.1-0.3-0.1-0.5-0.1h-3.3c-0.1,0-0.2,0-0.3,0l-1.8-28.5c2.6-0.1,5-0.3,7.4-0.7
			C112.7,205.2,112.6,213.5,112.2,218.8z M116.6,179.2c1.3,4.2,5.8,18,5.8,18c-5.8,2-11.8,2.8-17.5,3c0,0,0,0,0,0
			c-0.2-0.1-0.4,0-0.4,0c-0.9,0-1.8,0-2.7,0c-10.9,0-19.5-2.1-19.5-2.1s3.8-13.5,6.5-20.9c1.4-3.7,2.6-6.3,3-7.2c0,0,0,0,0,0
			c0.1,0,3.8,1.3,9.9,1.3c3.1,0,6.7-0.3,10.8-1.3c0,0,0.1,0,0.1,0C113.3,171.2,115.3,175.1,116.6,179.2z M116.1,159.6
			c-2.1,5.2-3.1,8.8-3.4,9.8c-0.1,0-0.1,0-0.2,0c-12,2.8-20.2,0-20.3,0c-0.1,0-0.2,0-0.2,0c-0.9-2.5-6.9-18.7-9.4-20.7
			c0,0,5-4.2,12.6-6.1c0,0.1,0,0.2,0.1,0.3c1.1,2.5,4.1,4.3,7.2,4.3c3.3,0,5.8-1.5,6.9-4c0.1-0.2,0.1-0.3,0-0.5
			c4,1.1,8.2,3.1,12.5,6.7C121.8,149.3,117.9,155,116.1,159.6z"/>
		<path class="st5" d="M95.2,209.1c0.6,0,1.1-0.2,1.4-0.5c0.2-0.1,0.2-0.3,0.1-0.5c-0.1-0.2-0.3-0.2-0.5-0.1c0,0-0.9,0.7-1.8,0
			c-0.2-0.1-0.4-0.1-0.5,0.1c-0.1,0.2-0.1,0.4,0.1,0.5C94.3,209,94.8,209.1,95.2,209.1z"/>
		<path class="st5" d="M109.2,209.4c0.4,0,0.9-0.1,1.3-0.5c0.2-0.1,0.2-0.3,0.1-0.5c-0.1-0.2-0.3-0.2-0.5-0.1c-0.8,0.7-1.7,0-1.8,0
			c-0.2-0.1-0.4-0.1-0.5,0.1c-0.1,0.2-0.1,0.4,0.1,0.5C108.1,209.2,108.6,209.4,109.2,209.4z"/>
		<path class="st5" d="M137.4,160.8c-0.2-0.5-0.9-0.8-2-0.8h0c-0.4,0-1.1,0-1.8,0.3c-1.9,0.6-2.2,3.8-2.2,4.1c0,0.3,0.2,0.6,0.5,0.7
			c0.1,0,0.2,0.1,0.3,0.1c0.2,0,0.4-0.1,0.5-0.3l1.5-1.8c0.9-0.3,2.5-0.8,3-1.3C137.4,161.5,137.5,161.2,137.4,160.8z M136.6,161.3
			c-0.5,0.5-2.9,1.2-2.9,1.2l-1.7,2c0,0,0.2-3,1.7-3.5c0.5-0.2,1.1-0.2,1.6-0.2C136.3,160.8,136.9,161,136.6,161.3z"/>
		<path class="st5" d="M140.8,164.9l-2.1-0.3c-0.1,0-0.1,0-0.2,0c-0.7,0-1.3,0.5-1.4,1.3c0,0.3,0,0.5,0.1,0.8
			c-0.1,0.2-0.3,0.3-0.3,0.6c0,0.2-0.1,0.3,0,0.5c-0.3,0.2-0.5,0.4-0.5,0.8c0,0.2-0.1,0.3,0,0.5c-0.1,0.1-0.3,0.2-0.4,0.4
			c-0.2,0.3-0.2,0.7-0.1,1.1c0.1,0.4,0.3,0.7,0.7,0.9l1.4,0.8c0.2,0.1,0.5,0.2,0.7,0.2c0.5,0,1-0.3,1.3-0.7c0.1-0.2,0.2-0.5,0.2-0.7
			c0.5-0.1,1-0.5,1.1-1c0-0.1,0.1-0.3,0-0.4c-0.1,0-0.1,0-0.2,0c0,0,0.6-0.5,0.7-0.9c0.1-0.3,0.1-0.6,0-0.9c0,0,0-0.2-0.1-0.4
			c0.2-0.2,0.4-0.5,0.4-0.8C142.1,165.7,141.6,165,140.8,164.9z M139.2,171.2c-0.1,0.2-0.4,0.4-0.6,0.4c-0.1,0-0.3,0-0.4-0.1
			l-1.4-0.8c-0.4-0.2-0.5-0.6-0.3-1c0,0,0,0,0,0c0.2,0.3,0.5,0.5,0.8,0.6l2,0.6C139.3,171,139.3,171.1,139.2,171.2z M140.4,169.7
			c-0.1,0.3-0.4,0.5-0.7,0.5c-0.1,0-0.1,0-0.2,0l-2.1-0.6c-0.4-0.1-0.6-0.5-0.5-0.9c0-0.1,0.1-0.2,0.1-0.2c0.2,0.3,0.4,0.5,0.8,0.5
			l2.1,0.6C140,169.6,140.2,169.6,140.4,169.7C140.4,169.6,140.4,169.6,140.4,169.7C140.4,169.6,140.4,169.6,140.4,169.7z
			 M141,168.4L141,168.4c-0.1,0.3-0.4,0.5-0.7,0.5c-0.1,0-0.1,0-0.2,0l-2.1-0.6c-0.4-0.1-0.6-0.5-0.5-0.9c0-0.1,0.1-0.1,0.1-0.2
			c0.2,0.1,0.4,0.2,0.7,0.3l2.1,0.3c0.1,0,0.1,0,0.2,0c0.1,0,0.2,0,0.4-0.1c0,0-0.1,0-0.1,0C141,167.9,141.1,168.2,141,168.4z
			 M141.3,166.4c0,0.4-0.4,0.6-0.7,0.6c0,0-0.1,0-0.1,0l-2.1-0.3c-0.4-0.1-0.7-0.4-0.6-0.8c0-0.4,0.4-0.6,0.7-0.6c0,0,0.1,0,0.1,0
			l2.1,0.3C141.1,165.7,141.4,166,141.3,166.4z"/>
	</g>
</g>
</svg>
