<?xml version="1.0" encoding="utf-8"?>
<!-- Generator: Adobe Illustrator 23.1.0, SVG Export Plug-In . SVG Version: 6.00 Build 0)  -->
<svg version="1.1" id="Слой_1" xmlns="http://www.w3.org/2000/svg" xmlns:xlink="http://www.w3.org/1999/xlink" x="0px" y="0px"
	 viewBox="0 0 283.5 283.5" style="enable-background:new 0 0 283.5 283.5;" xml:space="preserve">
<style type="text/css">
	.st0{fill:#FFFFFF;}
	.st1{fill:#B46D29;}
	.st2{fill:#FBC595;}
	.st3{fill:#8FB4DF;}
	.st4{fill:#8EC757;}
	.st5{fill:#FFDC4D;}
	.st6{fill:none;}
</style>
<g>
	<path class="st0" d="M254.1,66.8c-0.8-0.4-2.1,0.4-3,1.7c0-0.3,0-0.6,0-0.8c0,0,0,0,0,0c0.1,0.4,3.9-3.4,2.5-11.3
		c-1.5-8.2-15.5-9.5-23.3-8.6c-5.1,0.6-5.5,2.6-5.5,2.6c-10.4-0.2-6.3,15.7-6.2,16.1l1.5,1.2c0,0,0-0.1,0.1-0.2c0,0.3,0,0.6,0,1
		c-0.9-1.4-2.1-2.1-2.9-1.7c-0.9,0.4-0.9,2.1,0,3.7s2.3,2.5,3.2,2.1c0,0,0,0,0.1,0c0.3,2.8,1,5.5,2.1,7.1c1.7,2.3,4.5,4.3,7.3,5.5
		V90c0,3.3,2.8,6,6.3,6c3.5,0,6.3-2.7,6.3-6v-5.4c2.4-1.3,4.8-3.1,6.3-5c1-1.3,1.7-4.1,2-7.1c0,0,0,0,0.1,0c0.9,0.4,2.3-0.5,3.2-2.1
		S254.9,67.3,254.1,66.8z"/>
	<path class="st0" d="M191.5,74.1c-0.8-0.3-1.8,0.4-2.4,1.5c-0.8-8.2-7.5-14.7-15.8-14.7c-8.4,0-15.6,6-16.1,14.5
		c-0.6-1-1.5-1.5-2.3-1.3c-1,0.3-1.3,1.9-0.8,3.5c0.6,1.6,1.8,2.7,2.8,2.3c0.2-0.1,0.4-0.2,0.5-0.4c1.2,6.2,6,11.5,11.9,13.2
		c0,1.5,0.1,3.6,0.1,3.7c-0.9,0.3-2.2,0.5-3.3,1c1.2,2.7,4.3,4.4,7.4,4.4c3.2,0,5.8-1.3,7-4.1c-0.8-0.5-2.1-0.8-3-1.1
		c0-0.1,0.1-2.4,0.2-4c5.9-1.7,10.3-6.8,11.3-13.1c0.1,0.1,0.3,0.3,0.5,0.3c1,0.3,2.2-0.7,2.8-2.3C192.8,76,192.5,74.4,191.5,74.1z"
		/>
	<path class="st0" d="M170.6,57.6c0,0,2.5-0.6,5.8-0.4c3.6,0.2,9.7,2.9,13,6.9c6.9,8.4,8.1,16.7,4.2,22.6c-2.1,3.2-9.4,7.9-16.7,8.2
		c-6.1,0.3-2,0.6-7.8-0.2c-9.5-1.4-24.9-6.7-15.4-25.7C161.3,53.9,170.6,57.6,170.6,57.6z"/>
	<g>
		<path class="st1" d="M108.2,226.2c0.4-2.2,3.9-2.2,4.6,0l1.6,6.4c0.4,2.1-0.5,3.1-1.6,3.8c-2.1,1.4-4.5,0.3-5.2-0.3
			c-1-0.8-1.5-2.1-1.1-3.7L108.2,226.2z"/>
	</g>
	<g>
		<path class="st2" d="M109,224.6l-0.5-5.3l4.1,0.1l-0.6,5.3c0.3,0.2,0.4,0.6,0.6,1c-0.5,0.6-1.3,1-2.2,1c-0.9,0-1.6-0.4-2.2-1
			C108.5,225.3,108.7,224.8,109,224.6z"/>
	</g>
	<g>
		<path class="st1" d="M98.1,226.2c-0.4-2.2-3.9-2.2-4.6,0l-1.6,6.4c-0.4,2.1,0.5,3.1,1.6,3.8c2.1,1.4,4.5,0.3,5.2-0.3
			c1-0.8,1.5-2.1,1.1-3.7L98.1,226.2z"/>
	</g>
	<path class="st0" d="M61,113c-0.5-0.7-1.1-1.5-1.8-2.3l4.8-1.9l-4.8-5.1l-2.5,4.9c0,0,0,0,0,0c-0.4-0.3-0.7-0.5-1.2-0.8
		c-6.7-4.2-13.2-1.7-14.9,1c0-0.4,0.1-0.6,0.1-0.6s-0.2,0-0.7,0.2L39,103l-6.5,4.4l4.7,3c-0.8,0.8-1.6,1.8-2.6,3.2
		c-1,1.5-1.9,3.2-2.5,4.6c-7.3,15,3.2,18.1,8,19c4.9,0.9,8,1,13.3,0.5c5.2-0.4,11.2-3.4,12.7-6.4C69.2,124.9,63.7,116.5,61,113z
		 M39.9,113c0.2-0.8,0.3-1.5,0.5-2.2c0.2,0.7,0.7,1.3,1.4,1.8C41.1,112.7,40.5,112.8,39.9,113z"/>
	<path class="st2" d="M115.2,156.5c2.9,4.4,6.4,10.6,8.1,13.8c0.6,1.1,1.9,1.4,3,0.8l8.5-5.1l0.5-3.8l-8.7,3.8l-6.6-13.6
		L115.2,156.5z"/>
	<path class="st2" d="M75.1,183.7c0.3-0.4,1.4,3,1.8,2.8c0.9-0.3,2-5.4,2.7-6c0.7-0.6,12.6-30.8,12.6-30.8l-6.3-1.5l-8.6,29.5
		c0,0-2.6,2.5-2.5,3c0.1,0.2-3,1.4-2.8,1.6c0.2,0.2,0.7,0.4,0.6,0.7C72.3,184.5,73.9,185,75.1,183.7z"/>
	<g>
		<path class="st2" d="M97.3,224.6l0.5-5.3l-4.1,0.1l0.6,5.3c-0.3,0.2-0.4,0.6-0.6,1c0.5,0.6,1.3,1,2.2,1c0.9,0,1.6-0.4,2.2-1
			C97.9,225.3,97.7,224.9,97.3,224.6z"/>
	</g>
	<path class="st3" d="M89.9,178.4c0,0-0.3,10.1,0,20.6c0.3,11.3,1.7,22.9,1.7,22.9l8.7-0.2l2.5-29.8l0.8-0.1l2.5,29.9h8.7
		c0,0.3,0.8-12.2,1.2-17.6c0.4-6.7,0.4-25.7,0.4-25.7L89.9,178.4z"/>
	<path class="st4" d="M125,154.6c0,0-8.5-15-16.7-16.4c-1.5-0.7-3.2-1.1-5.2-1.1l0,0c-2,0-3.7,0.4-5.3,1.2c-7.9-0.4-17,18.3-17,18.3
		l8.6,3.5l-2.2,21c0,0,5.1,1.2,16.2,1.2c9.2,0,15.5-1.3,15.5-1.3l-2.2-21.6L125,154.6z"/>
	<path class="st2" d="M120.1,119.3c-0.7-0.8-2-0.7-3.3,0c-1.1-6.7-6.9-11.8-13.8-11.8c-7,0-12.8,5.2-13.8,12c-1.4-0.9-3-1-3.7,0
		c-0.8,1-0.2,2.7,1.2,3.8c0.8,0.6,1.8,0.9,2.6,0.9c0.9,5.4,4.8,9.7,9.9,11.2v1.6c0,0.1,0,0.2,0,0.4c-0.8,0.3-1.5,0.6-2.2,1.1
		c1,2.3,3.4,4,6,4c2.8,0,5.1-1.7,6.1-4.2c-0.7-0.4-1.4-0.7-2.2-1c0-0.1,0-0.2,0-0.3v-1.6c5-1.5,8.8-5.6,9.8-10.8
		c0.7-0.1,1.5-0.5,2.2-1.1C120.4,122,121,120.2,120.1,119.3z"/>
	<g>
		<path d="M99.7,120.4c-0.1-0.9-0.7-1.5-1.4-1.5c-0.7,0-1.2,0.8-1.2,1.7c0.1,0.9,0.7,1.5,1.4,1.5S99.8,121.2,99.7,120.4z"/>
		<path d="M107.3,118.9c-0.7,0-1.3,0.6-1.4,1.5c-0.1,0.9,0.5,1.6,1.2,1.7c0.7,0,1.3-0.6,1.4-1.5C108.5,119.7,108,118.9,107.3,118.9z
			"/>
		<path d="M101.3,125.3c0.2,0,0.4-0.2,0.4-0.4c0-0.5,0.5-0.9,1.2-0.9s1.2,0.4,1.2,0.9c0,0.2,0.2,0.4,0.4,0.4s0.4-0.2,0.4-0.4
			c0-0.9-0.9-1.6-1.9-1.6c-1.1,0-1.9,0.7-1.9,1.6C100.9,125.1,101.1,125.3,101.3,125.3z"/>
		<path d="M106.5,128.2c-0.9,1.2-2.2,1.9-3.7,1.9c-1.5,0-2.8-0.7-3.7-1.9c-0.1-0.2-0.3-0.2-0.5-0.1c-0.2,0.1-0.2,0.3-0.1,0.5
			c1,1.4,2.6,2.2,4.3,2.2c1.7,0,3.3-0.8,4.3-2.2c0.1-0.2,0.1-0.4-0.1-0.5C106.9,128,106.6,128,106.5,128.2z"/>
		<path d="M99.2,116.8c0.2,0.1,0.4,0.1,0.5-0.1c0.1-0.2,0.1-0.4-0.1-0.5c-0.5-0.4-1.3-0.6-2-0.5c-0.8,0.1-1.4,0.5-1.8,1
			c-0.1,0.2-0.1,0.4,0.1,0.5c0.1,0,0.1,0.1,0.2,0.1c0.1,0,0.2-0.1,0.3-0.2c0.3-0.4,0.8-0.7,1.3-0.7
			C98.3,116.3,98.8,116.5,99.2,116.8z"/>
		<path d="M109.8,117c-0.3-0.6-0.9-1-1.7-1.2c-0.7-0.2-1.5-0.1-2,0.3c-0.2,0.1-0.2,0.3-0.1,0.5c0.1,0.2,0.3,0.2,0.5,0.1
			c0.4-0.2,1-0.3,1.5-0.2c0.5,0.1,1,0.5,1.2,0.9c0.1,0.1,0.2,0.2,0.3,0.2c0.1,0,0.1,0,0.2,0C109.9,117.4,109.9,117.2,109.8,117z"/>
	</g>
	<g>
		<path class="st5" d="M95.6,105.8c0-0.1-0.6-4.3-2-3.5C91.8,103.2,95.6,105.8,95.6,105.8z"/>
		<path class="st5" d="M95.1,105.5c-0.1-0.1-3.2-1.5-3.3-0.2C91.6,106.9,95.1,105.5,95.1,105.5z"/>
		<path class="st5" d="M111.1,104.9c-4.5-2.6-8.1-2.4-10.5-2.1c-3.5,0.4-4.7,2.2-4.9,3c0,0.1,0,0.1,0,0.2
			c-0.7,0.2-12.1,2.9-6.9,13.8c0,0,1.8-8.5,7.9-10.9c3.9,4.7,10.5,4.5,10.5,4.5l-0.5-2.2c0,0,2.2,2.4,5.2,4.4
			c3.5,2.3,4.8,3.2,4.8,3.2s1.9-1.9,1.8-4.6C118.6,111.8,115.5,107.5,111.1,104.9z"/>
	</g>
	<path class="st0" d="M136.8,156.5c0.2-0.3,2.3-2.8,2.6-2.8c2.1-9.5,12.2-36.3,12.2-36.3l5.9,1.6l-14.4,35.6c0.6,1.4,0,7.8,1.6,8.6
		c0.2,0.1-2.2,1.9-2.9-3c-0.3,0-3.2,7.4-3.2,7.4c-0.9,1.4-1.6,1-1.3-0.4l1.9-5.6l-3,6.7c-0.5,1-1.3,0.7-1.2-0.3l2.4-7.1l0,0l-2.5,5
		c-0.6,1.3-1.8,1.3-0.9-1.2l1.9-4.6l-2.5,3.6c-0.2,0.3-0.5,0.5-0.8,0.3C132.2,163.8,131.5,163.7,136.8,156.5z"/>
	<path class="st2" d="M132.5,161.2c0,0,0.1-2.8,1.6-3.3c1.4-0.4,3.1-0.1,2.7,0.3c-0.4,0.4-2.7,1.1-2.7,1.1L132.5,161.2z"/>
	<path class="st2" d="M139.9,167.2l-2.4-0.9c0,0-0.1-0.1-0.1-0.1l0.4-1.1c0,0,0.1-0.1,0.1-0.1l2.4,0.9c0,0,0.1,0.1,0.1,0.1l-0.4,1.1
		C140,167.2,139.9,167.2,139.9,167.2z"/>
	<path class="st2" d="M140.9,165.7l-3-0.4c0,0-0.1-0.1-0.1-0.1l0.1-1.1c0,0,0.1-0.1,0.1-0.1l3,0.4c0,0,0.1,0.1,0.1,0.1l-0.1,1.1
		C141,165.6,140.9,165.7,140.9,165.7z"/>
	<path class="st2" d="M141.2,164.4l-3-0.4c0,0-0.1-0.1-0.1-0.1l0.1-1.1c0,0,0.1-0.1,0.1-0.1l3,0.4c0,0,0.1,0.1,0.1,0.1l-0.1,1.1
		C141.3,164.4,141.3,164.4,141.2,164.4z"/>
	<path class="st2" d="M141.3,162.6l-3.1,0.1c-0.1,0-0.1,0-0.1-0.1l0-1.1c0-0.1,0-0.1,0.1-0.1l3.1-0.1c0.1,0,0.1,0,0.1,0.1
		L141.3,162.6C141.4,162.6,141.4,162.6,141.3,162.6z"/>
	<path class="st0" d="M79.3,183c0,0-3.1-3.2-4.3-3.7c-0.3-0.1-1-1.6-1.3-1.5c-3.3-5.2-9.6-31.8-9.6-31.8l-4.2,7.5l9.9,24.5
		c-0.1,0.7-0.3,4.4-0.3,5.7c0,1.2-0.7,2.8-0.5,2.9c1.7,1.1,1.7-0.9,2.4-2.9c0.2-0.1,0.5,0.3,0.7,0.5l3,4.4c0.2,0.4,0.6,0.4,0.8,0.2
		c0.3-0.1,0.3-0.5,0.2-0.7l-2.2-3.7l0.1-0.1l2.8,3.5c0.2,0.2,0.5,0.3,0.8,0.1c0.2-0.2,0.3-0.5,0.1-0.8l-2.4-3.9l0.1-0.1l2.8,3.3
		c0.2,0.2,0.6,0.2,0.8,0c0.2-0.2,0.2-0.6,0-0.8l-2.1-3.2h-0.1l2,1.4c0.2,0.2,0.6,0.1,0.8-0.1C79.6,183.5,79.6,183.1,79.3,183z"/>
	<path class="st2" d="M74.1,184.6l-1.6,1.6c0,0-0.1,0-0.2,0l-1-1c0,0,0-0.1,0-0.2l1.6-1.6c0,0,0.1,0,0.2,0l1,1
		C74.1,184.5,74.1,184.6,74.1,184.6z"/>
	<path class="st2" d="M74.9,186l-1.6,1.6c0,0-0.1,0-0.2,0l-1-1c0,0,0-0.1,0-0.2l1.6-1.6c0,0,0.1,0,0.2,0l1,1
		C74.9,185.8,74.9,185.9,74.9,186z"/>
	<path class="st2" d="M76.2,186.5l-1.1,1.9c0,0.1-0.1,0.1-0.1,0l-1.2-0.7c-0.1,0-0.1-0.1,0-0.1l1.1-1.9c0-0.1,0.1-0.1,0.1,0l1.2,0.7
		C76.2,186.4,76.2,186.4,76.2,186.5z"/>
	<path class="st2" d="M76.3,179c-0.6-0.2-1.3-0.3-1.9-0.4c-1-0.2-1.9,0.5-2,1.5c-0.2,1.1-0.3,2.4,0.1,2.3c0.6-0.1,1-1,1.2-2
		s1-0.5,1.5-0.7C75.6,179.4,76.3,179,76.3,179z"/>
	<g>
		<path class="st0" d="M59.2,226l-1.9-0.6l0,0c0-0.1-0.1-0.3-0.2-0.4c0.2-2,0.6-5.7,1-10.9c0.5-7.7,0.5-22.1,0.5-22.1L51,192l2.1,33
			c-0.2,0-0.4,0.2-0.4,0.4l0,0.9c0,0.2,0.2,0.3,0.4,0.4c-0.2,0.2-0.3,0.4-0.4,0.6c-1.5,3-1.8,7.4-0.3,9c1,1.1,3.4,1.7,5.4,0.2
			c2.1-1.6,1.7-6.3-0.5-9.7c-0.1-0.1,0.2-0.1,0.1-0.2l1.6,0.5c0.3,0.1,0.7-0.1,0.8-0.4C59.7,226.5,59.5,226.1,59.2,226z"/>
		<path class="st0" d="M37,192.2c0,0,0,14.5,0.5,22.3c0.4,5.3,0.8,8.6,1,10.7c-0.1,0.1-0.2,0.2-0.2,0.3l-0.1-0.1l-2.1,0.6
			c-0.3,0.1-0.5,0.7-0.4,1c0.1,0.3,0.5,0.5,0.8,0.4l2-0.6c-0.1,0.1-0.1,0.1-0.2,0.2c-2.3,3.4-2.7,8.2-0.5,9.8
			c2.1,1.5,4.6,0.9,5.6-0.2c1.5-1.7,1.2-6.1-0.4-9.1c-0.1-0.2-0.3-0.4-0.4-0.6c0.2,0,0.4-0.2,0.4-0.3l0.1-0.9c0-0.2-0.2-0.6-0.4-0.6
			l1.9-32.6L37,192.2z"/>
	</g>
	<path class="st0" d="M58.3,166.5c0,0,1-3.7,3.4-9.9c1.7-4.4,5.6-10,5.6-10c-19.6-16.2-38.2-0.6-38.2-0.6c1.9,1.5,9.3,20.4,9.3,20.4
		s-1.5,2.8-3.1,7.3C32.7,180.9,29,194,29,194s21,5.2,38.9-0.9c0,0-4.3-13.3-5.6-17.4C60.7,170.9,58.3,166.5,58.3,166.5z"/>
	<path class="st0" d="M64.1,121.3c-0.4-0.5-1.2-0.7-2-0.5c-0.9-6.8-6.7-12.1-13.7-12.1c-7,0-12.8,5.3-13.7,12.1
		c-0.9-0.3-1.8-0.2-2.3,0.4c-0.7,0.8-0.2,2.3,1.1,3.3c0.4,0.3,0.9,0.5,1.3,0.6c0.9,5.4,4.9,9.7,10.1,11.1c0,1.2,0.1,3,0.1,3.1
		c-0.8,0.3-1.9,0.5-2.9,0.8c1,2.3,3.7,3.7,6.4,3.7c2.7,0,5.1-1.1,6.1-3.5c-0.7-0.4-1.8-0.7-2.6-0.9c0-0.1,0.1-1.9,0.2-3.3
		c5.1-1.4,9.1-5.8,9.9-11.1c0.3-0.1,0.7-0.3,1-0.6C64.3,123.6,64.7,122.1,64.1,121.3z"/>
	<g>
		<path d="M45.7,121.9c0-0.9-0.6-1.5-1.3-1.5c-0.7,0-1.2,0.8-1.2,1.6c0,0.9,0.6,1.5,1.3,1.5C45.3,123.5,45.8,122.7,45.7,121.9z"/>
		<path d="M52.9,120.5c-0.7-0.1-1.3,0.6-1.4,1.5c-0.1,0.9,0.4,1.6,1.1,1.7c0.7,0.1,1.3-0.6,1.4-1.5
			C54.1,121.4,53.6,120.6,52.9,120.5z"/>
		<path d="M47,126.9c0.2,0,0.4-0.2,0.4-0.3c0-0.5,0.6-0.9,1.2-0.9c0.7,0,1.2,0.4,1.2,0.9c0,0.2,0.2,0.4,0.3,0.4
			c0.2,0,0.4-0.2,0.4-0.3c0-0.9-0.8-1.6-1.9-1.6c-1,0-1.9,0.7-1.9,1.6C46.6,126.7,46.8,126.9,47,126.9z"/>
		<path d="M52.1,129.8c-0.9,1.2-2.3,1.8-3.7,1.8c-1.4,0-2.8-0.8-3.6-2c-0.1-0.2-0.3-0.2-0.5-0.1c-0.2,0.1-0.2,0.3-0.1,0.5
			c1,1.4,2.5,2.2,4.2,2.3c1.7,0,3.3-0.7,4.3-2.1c0.1-0.2,0.1-0.4-0.1-0.5C52.5,129.7,52.2,129.7,52.1,129.8z"/>
		<path d="M45.4,118.9c0.2,0.1,0.4,0.1,0.5-0.1c0.1-0.2,0.1-0.4-0.1-0.5c-0.5-0.4-1.3-0.5-2-0.3c-0.7,0.2-1.4,0.6-1.7,1.1
			c-0.1,0.2,0,0.4,0.1,0.5c0.1,0,0.1,0,0.2,0c0.1,0,0.2-0.1,0.3-0.2c0.2-0.4,0.7-0.7,1.2-0.8C44.5,118.6,45.1,118.7,45.4,118.9z"/>
		<path d="M55.2,119.5c-0.3-0.6-0.9-1-1.6-1.2c-0.7-0.2-1.5-0.1-2,0.2c-0.2,0.1-0.2,0.3-0.1,0.5c0.1,0.2,0.3,0.2,0.5,0.1
			c0.4-0.2,1-0.3,1.5-0.1c0.5,0.2,1,0.5,1.2,0.9c0.1,0.1,0.2,0.2,0.3,0.2c0.1,0,0.1,0,0.2,0C55.2,119.8,55.3,119.6,55.2,119.5z"/>
	</g>
	<path class="st0" d="M23.3,187.7c0,0,1.1-3,1.9-4.1c0.2-0.2,1.3-2.7,1.6-2.8c1-8.7,4.3-33.4,4.3-33.4l4.6,10.3l-5.6,23
		c0.5,0.5,0.6,2.4,1.2,3.4c0.6,1,1.4,1.3,2,1.7c0.1,0.1,0.1,0.2,0,0.3c-0.3,0.3-1.1,0.7-2.7-0.6c-0.3,0-0.3,0.5-0.3,0.7l0.3,3.9
		c0,0.4-0.3,0.6-0.6,0.6c-0.3,0-0.5-0.2-0.6-0.5l-0.6-3.8l-0.2,0l-0.5,4.5c0,0.3-0.3,0.5-0.6,0.5c-0.3,0-0.5-0.3-0.5-0.6l0.1-4.6
		l-0.1,0l-1.1,3.6c-0.1,0.3-0.4,0.5-0.6,0.4c-0.3-0.1-0.5-0.4-0.4-0.6l0.8-3.8l-0.1,0l-1.2,2.4c-0.1,0.3-0.4,0.4-0.7,0.3
		S23.2,188,23.3,187.7z"/>
	<ellipse class="st0" cx="164.5" cy="230.6" rx="3.8" ry="6.9"/>
	<path class="st0" d="M166.5,224.9l0.6-10.3l-5.3,0.1l0.6,10c-0.9,1.2-1.5,3.1-1.5,4.3c0,2,1.4,3.6,3.5,3.6c2,0,3.5-1.9,3.5-3.9
		C167.8,227.7,167.3,226.1,166.5,224.9z"/>
	<path class="st0" d="M167.5,224.9h-6.1c-0.1,0-0.1-0.1-0.1-0.1v-1.5c0-0.1,0.1-0.1,0.1-0.1h6.1c0.1,0,0.1,0.1,0.1,0.1v1.5
		C167.6,224.8,167.5,224.9,167.5,224.9z"/>
	<ellipse class="st0" cx="181.7" cy="230.6" rx="3.8" ry="6.9"/>
	<path class="st0" d="M183.8,224.9l0.6-10.3l-5.3,0.1l0.6,10c-0.9,1.2-1.5,3.1-1.5,4.3c0,2,1.4,3.6,3.5,3.6c2,0,3.5-1.9,3.5-3.9
		C185.1,227.7,184.6,226.1,183.8,224.9z"/>
	<path class="st0" d="M184.7,224.9h-6.1c-0.1,0-0.1-0.1-0.1-0.1v-1.5c0-0.1,0.1-0.1,0.1-0.1h6.1c0.1,0,0.1,0.1,0.1,0.1l0,1.5
		C184.8,224.8,184.8,224.9,184.7,224.9z"/>
	<path class="st0" d="M169.7,220.1l-9.7-0.1c0,0-5.5-36.8-4-52.2c0.4-4.1,16.7,0.4,16.7,0.4L169.7,220.1z"/>
	<path class="st0" d="M177.3,220.1l9.6-0.1c0,0,4.2-36.2,2.7-51.7c-0.4-4.1-16,0-16,0L177.3,220.1z"/>
	<path class="st0" d="M202.6,156.6c-0.1-0.2-0.2-0.4-0.3-0.6c-0.4-0.6-2-1.9-2.1-2.5c-1.4-9.6-7.3-36.7-7.3-36.7l-6.6,4l10.2,33.5
		c-0.7,1.4-0.6,7.8-2.2,8.5c-0.2,0.1,2,2.1,3.1-2.8c-0.3,1.2,1.6,3.5,2.8,3.5c0.8,0,1.6-0.4,2.3-0.9c0.8-0.7,1.4-1.7,1.3-2.7
		C203.7,158.8,203.1,157.6,202.6,156.6z"/>
	<path class="st0" d="M197.4,116.2c0,0-5.5-9.7-9.6-13.7c-3.5-3.4-8.1-5.6-12.2-6.1c-5.6-0.4-7.6,0.5-9,0.9
		c-10.3,2.6-18.4,19.3-18.4,19.3l8.4,5.5l-6,51.1c0,0,11.6,2.4,22.6,2.1c15.9-0.5,20.6-2.6,20.6-2.6l-4.6-50.6L197.4,116.2z"/>
	<circle class="st0" cx="155.3" cy="81.7" r="1.2"/>
	<circle class="st0" cx="191.4" cy="81.7" r="1.2"/>
	<path class="st0" d="M170.3,57.5c0,0-3.9-2.6-10,2.2c-6.5,5.1-8.2,13.3-8.2,13.3s5.8,0.5,11.7-5.4
		C167.5,63.8,170.3,57.5,170.3,57.5z"/>
	<path class="st0" d="M173,65.6c8.3,5.3,18.1,7.8,18.1,7.8s3.1-7.9-7.1-14.3c-9.1-5.7-16-1.6-14.7,2.2
		C170.1,63.9,171.3,64.5,173,65.6z"/>
	<g>
		<path d="M171.1,81.2c0.2,0,0.4-0.2,0.4-0.4c0-0.6,0.6-1.1,1.4-1.1s1.4,0.5,1.4,1.1c0,0.2,0.2,0.4,0.4,0.4c0.2,0,0.4-0.2,0.4-0.4
			c0-1-1-1.8-2.1-1.8c-1.2,0-2.1,0.8-2.1,1.8C170.8,81.1,170.9,81.2,171.1,81.2z"/>
		<path d="M177.2,85.3c-1,1.4-2.6,2.2-4.3,2.2c-1.7,0-3.3-0.8-4.3-2.2c-0.1-0.2-0.3-0.2-0.5-0.1c-0.2,0.1-0.2,0.3-0.1,0.5
			c1.1,1.6,2.9,2.5,4.8,2.5c1.9,0,3.7-0.9,4.8-2.5c0.1-0.2,0.1-0.4-0.1-0.5C177.5,85.1,177.3,85.1,177.2,85.3z"/>
		<path d="M165.3,72.2c0.1,0,0.1,0,0.2,0c0.1,0,0.2-0.1,0.3-0.2c0.3-0.5,0.8-0.8,1.4-1c0.6-0.2,1.3-0.1,1.7,0.2
			c0.2,0.1,0.4,0.1,0.5-0.1c0.1-0.2,0.1-0.4-0.1-0.5c-0.6-0.4-1.5-0.5-2.3-0.3c-0.8,0.2-1.5,0.7-1.9,1.3
			C165,71.8,165.1,72.1,165.3,72.2z"/>
		<path d="M176.9,71.2c0.5-0.3,1.1-0.4,1.7-0.2c0.6,0.2,1.2,0.6,1.4,1c0.1,0.1,0.2,0.2,0.3,0.2c0.1,0,0.1,0,0.2,0
			c0.2-0.1,0.2-0.3,0.1-0.5c-0.4-0.7-1-1.2-1.9-1.4c-0.8-0.2-1.7-0.1-2.3,0.3c-0.2,0.1-0.2,0.3-0.1,0.5
			C176.5,71.3,176.7,71.3,176.9,71.2z"/>
		<path d="M169.4,75.7c0-0.4,0.1-0.8-0.3-1.5c-0.2-0.3-0.8-0.5-1.1-0.5c-0.6,0-1.1,0.3-1.5,0.6c-1,0.6-1.9-0.1-2.1-0.3
			c0,0.3,0.1,0.5,0.2,0.7c0.1,0.2,0.3,0.5,0.6,0.6c0.3,0.1,0.6,0.1,0.9,0.1c0.2,0,0.4-0.1,0.5-0.2c0,0.2-0.1,0.3-0.1,0.5
			c0,1,0.6,1.7,1.4,1.7S169.4,76.6,169.4,75.7z"/>
		<path d="M179.2,74.2c-0.4-0.2-0.9-0.5-1.5-0.6c-0.3,0-0.9,0.3-1.1,0.5c-0.4,0.7-0.3,1.2-0.3,1.5c0,0.9,0.6,1.7,1.3,1.7
			s1.4-0.8,1.4-1.7c0-0.2,0-0.4-0.1-0.5c0.2,0.1,0.3,0.1,0.5,0.2c0.3,0.1,0.6,0.1,0.9-0.1c0.3-0.1,0.5-0.4,0.6-0.6
			c0.1-0.2,0.2-0.5,0.2-0.7C181.1,74.1,180.2,74.8,179.2,74.2z"/>
	</g>
	<g>
		<path class="st0" d="M210.1,157.4c0-0.7-2.4-5.1-2.3-5.3c0.1-0.3,1.1-5.3,1.1-5.3l-5.3-0.1l-0.3,5.1l-4.5,7.2l-1.3,4.8
			c0,0,0.9,0.5,1.4-0.1c0.4-0.5,1-2.6,1.4-4.1l0,0l-0.5,6.1c0,0,1,0.4,1.6-0.6c0.5-0.9,1.1-3.5,1.2-5.1l0.1,0l-0.2,7
			c0,0,1,0.4,1.6-0.6c0.6-1.1,1-4.5,1.1-5.9l0.1,0l0,6.4c0,0,0.8,0.3,1.5-0.6c0.7-0.9,0.8-5.9,0.9-5.4l0.7-1.7c0,0.9,0,2,0.2,2.4
			c0.8,2,2.1,1.3,2.1,1.3S209.9,160.3,210.1,157.4z"/>
		<path class="st0" d="M266.1,160.1l-3.9-7v-4.9l-5.1-0.2c0,0,0.7,4.8,0.8,5.1c0.1,0.2-2.4,4.2-2.4,4.9c0,2.8-0.7,5.2-0.7,5.2
			s1.3,0.8,2.1-1.1c0.1-0.3,0.2-1.4,0.3-2.2l0.6,1.7c0.1-0.4,0,4.3,0.6,5.2c0.6,0.9,1.4,0.7,1.4,0.7l0.3-6.1h0.1
			c0,1.3,0.2,4.6,0.7,5.6c0.5,1,1.5,0.7,1.5,0.7l0.1-6.6h0.1c0,1.5,0.4,4,0.9,4.9c0.5,1,1.5,0.7,1.5,0.7l-0.2-5.8l0,0
			c0.3,1.4,0.7,3.4,1.1,3.9c0.4,0.6,1.3,0.2,1.3,0.2L266.1,160.1z"/>
	</g>
	<path class="st0" d="M264.7,115.2c0.6-11.7-2.9-19.6-5.3-21c-5.6-3.3-15.5-6.1-23.4-6.2c-8.9-0.2-19.7,2.6-22.2,3.4
		c-4.6,1.4-8.4,11.7-8.8,23.2l-4.9,37.5l9.7,0.9l5.8-25c0,0,1.8,9.8,4.1,11.7c-0.8,3.7-3.2,16.4-1.7,29.9
		c1.2,11.1,5.6,54.4,5.6,54.4l1.6,0c-0.7,1.1-1.2,2.5-1.7,3.9c-1.5,4.9-1.6,8.9,0.5,9.6c2.1,0.7,7-4.2,8.6-9.1
		c0.5-1.8,0.6-3.2,0.5-4.4l4.1,0c-0.2,1.2-0.1,2.6,0.5,4.4c1.5,4.9,6.5,9.8,8.6,9.1c2.1-0.7,2.1-4.7,0.5-9.6c-0.5-1.5-1.1-2.8-1.7-4
		l1.7,0c0,0,3.6-41.2,4.6-52.2c1.5-17.6-0.9-29.4-1.6-32.1c1.4-1.2,2.5-4.5,2.5-4.5l3,17.7l10.3-0.7L264.7,115.2z"/>
	<g>
		<path d="M226.7,65.4c0.1-0.1,2.6-1.5,5.5,0c0.1,0,0.1,0,0.2,0c0.1,0,0.3-0.1,0.3-0.2c0.1-0.2,0-0.4-0.2-0.5
			c-3.4-1.7-6.1-0.1-6.2,0c-0.2,0.1-0.2,0.3-0.1,0.5C226.3,65.5,226.5,65.5,226.7,65.4z"/>
		<path d="M239.7,65.4c0.1-0.1,2.6-1.5,5.5,0c0.1,0,0.1,0,0.2,0c0.1,0,0.3-0.1,0.3-0.2c0.1-0.2,0-0.4-0.2-0.5
			c-3.4-1.7-6.1-0.1-6.2,0c-0.2,0.1-0.2,0.3-0.1,0.5C239.3,65.5,239.6,65.5,239.7,65.4z"/>
		<path d="M234.6,74.7c0.1,0.2,0.4,0.4,0.9,0.4h1.6c0.2,0,0.4-0.2,0.4-0.4c0-0.2-0.2-0.4-0.4-0.4h-1.6c-0.3,0-0.3-0.1-0.4-0.1
			c-0.1-0.1-0.2-0.5,0.4-1.8c0.8-1.8,0.4-2.9,0.4-3c-0.1-0.2-0.3-0.3-0.5-0.2c-0.2,0.1-0.3,0.3-0.2,0.5c0,0,0.3,1-0.3,2.5
			C234.4,73.4,234.3,74.2,234.6,74.7z"/>
		<path d="M239.1,78.5c-3.2,2.5-6.1,0.1-6.2,0c-0.1-0.1-0.4-0.1-0.5,0c-0.1,0.1-0.1,0.4,0,0.5c0,0,1.6,1.3,3.7,1.3
			c1.1,0,2.2-0.3,3.5-1.3c0.2-0.1,0.2-0.3,0.1-0.5C239.5,78.4,239.3,78.3,239.1,78.5z"/>
		<path d="M247.1,66.3h-8.6c-0.2,0-0.4,0.2-0.4,0.4v1.2c0,0.1,0,0.3,0,0.4c-1.8-0.8-3.5-0.3-4.3,0c0-0.1,0-0.3,0-0.4v-1.2
			c0-0.2-0.2-0.4-0.4-0.4h-8.6c-0.2,0-0.4,0.2-0.4,0.4v1.2c0,2.8,2.1,5.2,4.7,5.2c2.2,0,4-1.7,4.5-3.9c0.3-0.2,2.5-1.1,4.5,0
			c0,0,0,0,0.1,0c0.5,2.2,2.3,3.9,4.5,3.9c2.6,0,4.7-2.3,4.7-5.2v-1.2C247.5,66.4,247.3,66.3,247.1,66.3z M233.1,67.8
			c0,2.5-1.8,4.5-4,4.5c-2.2,0-4-2-4-4.5V67h7.9V67.8z M246.8,67.8c0,2.5-1.8,4.5-4,4.5c-2.2,0-4-2-4-4.5V67h7.9V67.8z"/>
		<path d="M230,70.1c0.6,0,1-0.5,1-1.2c0-0.6-0.5-1.2-1-1.2c-0.6,0-1,0.5-1,1.2C229,69.6,229.5,70.1,230,70.1z"/>
		<path d="M243.1,70.1c0.6,0,1-0.5,1-1.2c0-0.6-0.5-1.2-1-1.2c-0.6,0-1,0.5-1,1.2C242,69.6,242.5,70.1,243.1,70.1z"/>
	</g>
	<path class="st0" d="M238.8,144.2h-6.2c-0.1,0-0.3-0.1-0.3-0.3v-3.4c0-0.1,0.1-0.3,0.3-0.3h6.2c0.1,0,0.3,0.1,0.3,0.3v3.4
		C239.1,144.1,238.9,144.2,238.8,144.2z"/>
	<path d="M98.5,80.9l-1.4,4.3l-22.2-31l-1.7,1.2l22.2,31c-1.9,0-5,0-4.9,0.1c0.3,0.1,13.7,10.3,13.7,10.3L98.5,80.9z M96.7,86.4
		L96.7,86.4L96.7,86.4L96.7,86.4z"/>
	<path class="st6" d="M33.7,120.7c-0.6,0-1.1,0.2-1.4,0.6c-0.7,0.8-0.2,2.3,1.1,3.3c0.7,0.5,1.4,0.8,2.1,0.8c0.6,0,1.1-0.2,1.4-0.6
		c0.7-0.8,0.2-2.3-1.1-3.3C35.1,120.9,34.4,120.7,33.7,120.7z"/>
	<g>
		<path d="M137.5,157.8c-0.2-0.5-0.9-0.8-1.9-0.8c-0.4,0-1,0-1.7,0.2c-1.8,0.6-2.1,3.6-2.1,3.9c0,0.3,0.2,0.6,0.4,0.7
			c0.1,0,0.2,0,0.3,0c0.2,0,0.4-0.1,0.5-0.2l1.4-1.7c0.8-0.3,2.3-0.8,2.8-1.3C137.6,158.4,137.6,158.1,137.5,157.8z M136.8,158.2
			c-0.4,0.4-2.7,1.1-2.7,1.1l-1.6,1.9c0,0,0.1-2.8,1.6-3.3c0.5-0.1,1-0.2,1.5-0.2C136.4,157.7,137.1,157.9,136.8,158.2z"/>
		<path d="M133.2,166.9l-6.9,4.2c-0.3,0.2-0.7,0.3-1.1,0.3c-0.7,0-1.5-0.4-1.9-1.1c-1.3-2.4-3.6-6.5-5.9-10.2l0-0.4l4.8-2.7l4.3,8.9
			l5.3-2.3c0-0.1,0-0.1,0-0.2c0-0.2,0.1-0.5,0.2-0.6l-5.1,2.2l-4-8.3l2.5-1.4c0.2-0.1,0.3-0.2,0.3-0.4c0.1-0.2,0-0.4-0.1-0.5
			c-0.4-0.6-8-13.8-16.1-16.3c-0.4-0.2-0.7-0.4-1.1-0.6c-0.1,0-0.2-0.1-0.3-0.1c-0.1-0.1-0.3-0.1-0.4-0.2c-0.2-0.1-0.4-0.2-0.6-0.2
			v-1.1c5-1.5,8.9-5.7,10.1-10.9c0.7-0.2,1.4-0.6,2-1.2c0.8-0.7,1.4-1.6,1.7-2.5c0.3-1,0.1-1.9-0.4-2.5c-0.4-0.5-1.1-0.8-1.9-0.8
			c-0.3,0-0.6,0-0.9,0.1c0.5-0.9,1.2-2.2,1.2-3.8c0-2.6-3.1-7.1-7.7-9.7c-4.3-2.5-7.8-2.5-10.7-2.1c-2.5,0.3-3.8,1.2-4.5,2
			c-0.2-0.8-0.5-1.8-1-2.4c-0.4-0.5-0.9-0.6-1.2-0.6c-0.2,0-0.4,0.1-0.7,0.2c-0.7,0.3-0.8,0.9-0.8,1.2c0,0.4,0.1,0.8,0.4,1.2
			c-0.1,0-0.1,0-0.2,0c-1,0-1.5,0.6-1.5,1.2c-0.1,0.5,0.1,0.9,0.3,1.1c0.2,0.2,0.3,0.3,0.6,0.4c-1.6,0.9-3.4,2.2-4.4,4.3
			c-1,2-1.1,4.4-0.2,7.1c-0.1,0-0.2,0-0.3,0h0c-0.9,0-1.7,0.3-2.1,1c-1,1.3-0.4,3.4,1.4,4.8c0.7,0.6,1.6,0.9,2.4,1
			c1.1,5.3,5.1,9.6,10.1,11.1v1.1c0,0,0,0.1,0,0.1c-0.6,0.2-1.2,0.5-1.7,0.8c-8,0.7-16.5,17.7-16.9,18.4c-0.1,0.2-0.1,0.4,0,0.6
			c0.1,0.2,0.2,0.3,0.4,0.4l1.9,0.8l-5.7,19.5c-0.3,0.3-0.5,0.5-0.8,0.8c-0.3-0.1-0.6-0.1-0.9-0.2c-0.3-0.4-0.5-0.7-0.8-0.9
			c-2.4-4.2-6.6-20-8.4-27.4c1-1.6,1.8-2.8,1.8-2.8c0.1-0.2,0.1-0.4-0.1-0.5c-4.3-3.5-8.5-5.5-12.4-6.5c0,0,0,0.1,0,0.1
			c-0.1-0.1-0.1-0.2-0.2-0.2c-0.6-0.4-1.4-0.6-2.2-0.8c0-0.1,0-0.2,0-0.2c0.2,0,0.5,0,0.7-0.1c5.5-0.5,11.7-3.7,13.2-6.8
			c3.3-6.8-2.5-15.6-5.3-19.1c-0.3-0.5-0.6-0.9-1-1.4l3.9-1.5c0.2-0.1,0.4-0.3,0.4-0.5c0.1-0.2,0-0.5-0.2-0.6l-4.8-5.1
			c-0.1-0.1-0.3-0.2-0.5-0.2c0,0-0.1,0-0.1,0c-0.2,0-0.4,0.2-0.5,0.4l-2.1,4.2c-0.2-0.1-0.3-0.2-0.5-0.4c-2.4-1.5-5.1-2.3-7.8-2.3
			c-3.5,0-6,1.3-7.4,2.6c0,0-0.1,0-0.1,0c0,0,0,0,0,0c0,0-0.1,0-0.1,0l-0.9-4.6c0-0.2-0.2-0.4-0.4-0.5c-0.1,0-0.2-0.1-0.3-0.1
			c-0.1,0-0.3,0-0.4,0.1l-6.5,4.4c-0.2,0.1-0.3,0.4-0.3,0.6c0,0.2,0.1,0.5,0.3,0.6l4,2.6c-0.7,0.7-1.3,1.5-2.1,2.6
			c-1,1.4-1.9,3.2-2.5,4.6c-2.8,5.8-3.4,10.4-1.7,13.9c1.6,3.2,5,5.3,10.2,6.2c1.6,0.3,3,0.5,4.3,0.6c0,0,0,0.1,0,0.1
			c-0.2,0.1-0.5,0.1-0.7,0.2c-0.5,0.1-1.1,0.3-1.7,0.5c-0.2,0.1-0.3,0.2-0.4,0.3c-0.3,0.1-0.5,0.1-0.8,0.2
			c-7.1,1.9-11.8,5.8-11.9,5.9c-0.1,0.1-0.1,0.2-0.1,0.3c0,0.1,0.1,0.2,0.1,0.3c0.4,0.3,0.9,1.2,1.6,2.6c-0.1,0.2-0.1,0.4-0.1,0.5
			c0,0.2-3.2,22.2-4.2,31c-0.2,0.3-0.6,0.9-1.2,2.2c-0.1,0.2-0.3,0.5-0.3,0.6c-0.8,1.1-1.9,4.1-1.9,4.2c-0.1,0.3-0.1,0.6,0,0.9
			c0.1,0.3,0.4,0.5,0.7,0.7c0.1,0.1,0.3,0.1,0.4,0.1c0.2,0,0.3,0,0.4-0.1l-0.1,0.3c-0.1,0.3,0,0.6,0.2,0.9c0.2,0.3,0.5,0.5,0.8,0.6
			c0.1,0,0.2,0,0.3,0c0.4,0,0.7-0.2,1-0.5l0,0.3c0,0.3,0.1,0.6,0.3,0.9c0.2,0.2,0.5,0.4,0.9,0.4c0,0,0.1,0,0.1,0
			c0.6,0,1.2-0.5,1.2-1.1l0-0.2c0.1,0.2,0.3,0.4,0.5,0.5c-0.5,1.6-0.8,2.7-0.8,2.7c0,0.1,0,0.2,0,0.3c0,0.1,0.1,0.1,0.2,0.2
			c0.1,0,3,0.7,7.7,1.3c0,4.7,0.2,13.5,0.5,18.9c0.3,4.9,0.7,8.2,1,10.3l-1.7,0.5c-0.3,0.1-0.6,0.3-0.8,0.6c-0.2,0.3-0.2,0.7-0.1,1
			c0.2,0.5,0.7,0.9,1.3,0.9c0.1,0,0.3,0,0.4-0.1l0.2-0.1c-1.6,3.4-1.8,7.6,0.4,9.3c0.9,0.7,1.9,1,3,1c1.3,0,2.5-0.5,3.2-1.3
			c1.5-1.9,1.2-6.1,0-9.1c-0.1-0.2-0.3-0.6-0.3-0.7c0-0.1-0.1-0.1-0.1-0.2c0.2-0.2,0.3-0.5,0.3-0.8v-0.4c0-0.3-0.1-0.7-0.4-0.9
			l1.8-28.3c0.9,0,1.8,0,2.7,0c0.8,0,1.7,0,2.6,0l1.8,28.4c-0.2,0.2-0.4,0.5-0.4,0.9v0.4c0,0.3,0.1,0.6,0.3,0.8
			c-0.1,0.1-0.3,0.4-0.3,0.5c-1.3,3-1.7,7.5-0.1,9.5c0.7,0.8,1.9,1.3,3.2,1.3c1.1,0,2.1-0.4,3-1c2.2-1.7,2-5.9,0.4-9.3l0.2,0.1
			c0.1,0,0.3,0.1,0.4,0.1c0.6,0,1.1-0.4,1.3-0.9c0.1-0.3,0.1-0.7-0.1-1c-0.2-0.3-0.4-0.5-0.8-0.6l-1.7-0.5c0.3-2.1,0.6-5.8,1-10.7
			c0.3-5.3,0.5-13.7,0.5-18.5c3-0.5,5.9-1.2,8.8-2.2c0.2-0.1,0.3-0.3,0.2-0.4c0-0.1-4.4-13.3-5.6-17.4c-1.4-4.3-3.5-8.3-3.9-9.1
			c0.2-0.6,1-3.4,2.6-7.7l7.8,19.3c-0.1,1.1-0.3,4.5-0.3,5.6c0,0.6-0.2,1.4-0.4,1.9c-0.2,0.8-0.3,1.3,0.2,1.6
			c0.4,0.3,0.8,0.4,1.2,0.4c0.8,0,1.3-0.6,1.6-1.4c0,0,0,0.1,0.1,0.1c0.1,0.1,0.2,0.2,0.3,0.2c0,0,0,0,0,0c0,0.4,0.2,0.8,0.4,1.1
			c0.3,0.3,0.7,0.4,1.1,0.4c0,0,0.1,0,0.1,0c0.1,0.3,0.3,0.6,0.6,0.8c0.1,0.1,0.3,0.1,0.4,0.2c0.2,0.4,0.6,0.6,1.1,0.6
			c0.2,0,0.5-0.1,0.7-0.2c0.3-0.2,0.5-0.4,0.6-0.8c0,0,0-0.1,0-0.1c0.2,0.1,0.3,0.1,0.5,0.1c0.3,0,0.5-0.1,0.7-0.2
			c0.3-0.2,0.5-0.5,0.5-0.8c0-0.1,0-0.2,0-0.3h0c0.3,0,0.6-0.1,0.9-0.4c0.2-0.2,0.4-0.5,0.4-0.9c0-0.3-0.1-0.6-0.3-0.8l-0.4-0.5
			c0.3,0,0.7-0.2,0.9-0.5c0.2-0.3,0.3-0.6,0.2-0.9c0-0.3-0.2-0.6-0.4-0.8c0,0-0.1-0.1-0.2-0.2c0.2-0.6,0.4-1,0.5-1.2
			c0.2-0.2,0.6-0.7,6.7-15.9c0.6-1.4,1.1-2.8,1.6-4.1l-2,19.8c0,0.4,0.2,0.7,0.5,0.8c0.1,0,0.8,0.2,2.1,0.4
			c-0.1,3.9-0.1,10.4,0.1,17c0.3,11.2,1.7,22.8,1.7,22.9c0,0.4,0.3,0.6,0.7,0.6c0,0,0,0,0,0l1.7,0l0.2,1.9c-0.2,0.2-0.3,0.5-0.4,0.7
			c0,0.1-0.1,0.2-0.1,0.3c0,0,0,0.1,0,0.1c-0.1,0.1-0.1,0.3-0.2,0.4c0,0,0,0,0,0l-1.6,6.4c0,0,0,0,0,0c-0.4,2,0.3,3.5,1.9,4.5
			c0.8,0.5,1.7,0.8,2.7,0.8c1.6,0,2.9-0.7,3.4-1.1c1.3-1.1,1.8-2.7,1.3-4.5l-1.6-6.1c0-0.1,0-0.1-0.1-0.2c0-0.1,0-0.3,0-0.4
			c-0.2-0.4-0.4-0.8-0.7-1.1l0.2-1.9l2.1-0.1c0.4,0,0.7-0.3,0.7-0.6l2.2-26.4l2.2,26.4c0,0.4,0.3,0.6,0.7,0.6h2l0.2,1.9
			c-0.3,0.3-0.5,0.7-0.7,1.1c0,0.1-0.1,0.3,0,0.4c0,0.1,0,0.1-0.1,0.2l-1.6,6.1c-0.5,1.8,0,3.4,1.3,4.5c0.5,0.4,1.8,1.1,3.4,1.1
			c1,0,1.9-0.3,2.7-0.8c1.6-1,2.2-2.5,1.9-4.5c0,0,0,0,0,0l-1.6-6.4c0,0,0,0,0,0c0-0.2-0.1-0.3-0.2-0.4c0,0,0-0.1,0-0.1
			c0-0.1-0.1-0.2-0.1-0.3c-0.1-0.2-0.2-0.4-0.4-0.7l0.2-2.1h1.7c0,0,0.1,0,0.1,0c0.2,0,0.7-0.1,0.7-0.8c0-0.1,0-0.2,0-0.4
			c0-0.3,0.1-0.9,0.1-1.5c0.1-1.2,0.2-2.9,0.3-4.8c0.3-3.9,0.5-8.2,0.7-10.8c0.3-4.9,0.4-16.4,0.4-22.3c1.2-0.2,1.9-0.3,1.9-0.3
			c0.4-0.1,0.6-0.4,0.6-0.8l-1.9-19.1c2,3.3,3.9,6.8,5.1,8.9c0.5,0.9,1.4,1.5,2.5,1.5c0.5,0,1-0.1,1.5-0.4l7-4.3
			C133.5,167.3,133.3,167.1,133.2,166.9z M125,154.6l-7.6,4.2l-0.9-9.2c0,0,0,0,0-0.1c-0.9-4.3-2.5-7.6-4.7-9.9
			C118.7,143.7,125,154.6,125,154.6z M118.7,118.7c0.6,0,1.1,0.2,1.4,0.6c0.8,0.9,0.3,2.7-1.2,4c-0.5,0.4-0.9,0.7-1.4,0.9
			c0.1-0.8,0.2-1.7,0.2-2.6c0-0.9-0.1-1.8-0.2-2.6c-0.1,0.1-0.3,0.1-0.4,0.2c0-0.1,0.2-0.2,0.3-0.4c0,0.1,0,0.2,0,0.2
			C117.8,118.8,118.2,118.7,118.7,118.7z M96,105.9c0.2-0.8,1.5-2.3,4.6-2.7c2.7-0.3,6.1-0.4,10.2,2c4.4,2.5,7.3,6.7,7.3,9.1
			c0,2-1.1,3.6-1.6,4.1c-0.5-0.4-2-1.3-4.6-3c-3-2-5.2-4.3-5.2-4.3c-0.1-0.1-0.2-0.1-0.3-0.1c-0.1,0-0.1,0-0.2,0
			c-0.1,0.1-0.2,0.2-0.2,0.4l0.4,1.7c-1.5-0.1-6.7-0.5-9.9-4.5C96,107.7,95.8,106.7,96,105.9z M93.5,102.3c0.1-0.1,0.2-0.1,0.3-0.1
			c0.8,0,1.3,1.6,1.5,2.7c-0.3-0.2-0.9-0.5-1.6-0.6C93.1,103.5,92.7,102.7,93.5,102.3z M91.7,105.3c0-0.4,0.4-0.6,0.8-0.6
			c0.9,0,2.1,0.5,2.4,0.7c-0.4,0.1-1,0.3-1.6,0.5c-0.2,0-0.5,0.1-0.7,0.1C92.1,106.1,91.7,105.9,91.7,105.3z M86.6,123.2
			c-1.4-1.1-2-2.8-1.2-3.8c0.4-0.5,0.9-0.7,1.6-0.7c0.2,0,0.4,0,0.5,0.1c0.2,0.5,0.4,0.9,0.6,1.4c0,0.1,0.1,0.2,0.2,0.2
			c0,0.4-0.1,0.8-0.1,1.2c0,0.8,0.1,1.6,0.2,2.4C87.8,123.9,87.2,123.6,86.6,123.2z M95.3,106.1c-0.1,0.7,0.1,1.7,1,2.9
			c0,0,0,0,0,0.1c-5.8,2.6-7.6,10.8-7.6,10.8C83.9,109.8,93.2,106.7,95.3,106.1z M89,121.6c0-0.4,0-0.7,0-1.1
			c0.2-0.1,0.4-0.3,0.4-0.5c0-0.1,1.8-8.1,7.4-10.4c4,4.3,10.1,4.2,10.4,4.1c0.1,0,0.2-0.1,0.3-0.1c0.1-0.1,0.1-0.2,0.1-0.3l-0.2-1
			c0.9,0.9,2.5,2.3,4.4,3.6c3.4,2.3,4.8,3.2,4.8,3.2c0.1,0,0.1,0.1,0.2,0.1c0,0,0,0,0,0c0.1,0.8,0.2,1.6,0.2,2.4
			c0,7.8-6.3,14.2-14,14.2S89,129.4,89,121.6z M99.2,137.6c0.2-0.1,0.3-0.2,0.2-0.4c0-0.1,0-0.2,0-0.3v-0.9c1.1,0.3,2.3,0.4,3.5,0.4
			c1.2,0,2.4-0.2,3.5-0.4v0.9c0,0.1,0,0.1,0,0.2l0,0.1c0,0.2,0.1,0.3,0.2,0.4c0.2,0.1,0.5,0.2,0.7,0.2c0.1,0.1,0.3,0.1,0.4,0.2
			c0.3,0.1,0.5,0.2,0.8,0.4c0,0,0,0,0,0c-1,2.2-3.2,3.6-5.7,3.6c-2.3,0-4.5-1.3-5.6-3.4C97.9,138.1,98.6,137.8,99.2,137.6z
			 M74.3,178.6c0.6,0.1,1.3,0.3,1.9,0.4c0,0-0.7,0.4-1.2,0.6c-0.2,0.1-0.3,0.1-0.5,0.1c0,0,0,0,0,0c-0.4,0-0.8,0-0.9,0.6
			c-0.3,1-0.6,1.8-1.2,2c0,0,0,0,0,0c-0.3,0-0.2-1.2,0-2.3c0.1-0.9,0.9-1.5,1.7-1.5C74.1,178.6,74.2,178.6,74.3,178.6z M62.9,121.2
			c0.2-0.1,0.3-0.2,0.4-0.4c0,0,0-0.1,0-0.1c0.4,0.1,0.7,0.2,0.9,0.5c0.7,0.8,0.2,2.3-1.1,3.3c-0.1,0.1-0.2,0.1-0.2,0.1
			c0.1-0.6,0.2-1.3,0.2-1.9C63.1,122.2,63,121.7,62.9,121.2z M63.5,125c0.9-0.7,1.5-1.6,1.6-2.5c0.1-0.6-0.1-1.2-0.4-1.7
			c-0.3-0.4-0.8-0.6-1.3-0.7c0.1-0.8,0.1-2.1-0.3-3.7c2.6,4.1,5.4,10.3,3,15.2c-1.5,3-7.5,6-12.7,6.4c-0.2,0-0.4,0-0.6,0
			c0-0.4,0-0.8,0.1-1.3c5.1-1.6,8.9-5.9,9.9-11.3C63,125.3,63.3,125.2,63.5,125z M59.2,104l4.8,5.1l-4.1,1.6
			c-0.8-0.8-1.7-1.7-2.8-2.5L59.2,104z M41.4,108.2c1.4-1.3,3.9-2.4,6.9-2.4c2.3,0,4.8,0.6,7.4,2.2c0.2,0.1,1.4,1,1.5,1.1
			c0.8,0.6,1.5,1.2,2.1,1.8l0.5,0.6c2.7,3.1,3.1,6.2,3,7.8c0,0.2-0.1,1.1-0.3,1.1c-0.1,0-0.2,0-0.3-0.1c-0.4-0.1-0.9-0.4-1-0.5
			c-3.6-1.5-12.6-5.2-17.9-6.4c-1-0.2-1.7-0.8-2.2-1.5c0.4-1.9,0.5-3.4,0.5-3.6C41.4,108.4,41.4,108.3,41.4,108.2z M32.5,107.6
			l6.5-4.4l0.9,4.6c-0.7,0.2-1.8,0.9-3.3,2.4L32.5,107.6z M32.1,118.4c0.2-0.5,0.4-0.9,0.7-1.4c0,0,0-0.1,0-0.1c0.5-1,1.1-2.1,1.8-3
			c0.4-0.6,0.9-1.2,1.4-1.8c0.2-0.2,0.4-0.5,0.6-0.7c0.1-0.1,1.4-1.4,2.1-1.9c0.2-0.2,0.5-0.3,0.8-0.5c0.2-0.1,0.5-0.3,0.8-0.3
			c0.1,0,0.2,0,0.3,0.1c0.1,0.1,0.1,0.3,0.1,0.4c0,0.1,0,0.1,0,0.2c0,0.2-0.1,0.3-0.1,0.5c0,0.2,0,0.4-0.1,0.6
			c-0.1,0.4-0.2,0.8-0.2,1.2c-0.2,0.8-0.4,1.7-0.7,2.5c-0.2,0.7-0.5,1.5-0.8,2.2c-0.2,0.5-0.5,1-0.8,1.5c-1,1.2-2.3,1.9-3.6,2.3
			c-0.6,0.2-1.4,0.3-2.3,0.5c-0.5,0.1-0.9,0.1-0.9,0.1S31.6,119.7,32.1,118.4z M34.1,124.8c-0.2-0.1-0.4-0.2-0.6-0.3
			c-1.2-0.9-1.7-2.4-1.1-3.2c0.4-0.1,1-0.2,1.6-0.3c-0.1,0.6-0.2,1.2-0.2,1.8C33.8,123.4,34,124.1,34.1,124.8z M40.1,137.4
			c-4.5-0.8-14-3.6-9.2-16.3c0.1,0.1,0.2,0.2,0.3,0.2c0,0,0,0,0,0c0,0,0.1,0,0.3,0c-0.1,0.4-0.2,0.7-0.2,1.2
			c0.1,0.9,0.7,1.9,1.6,2.5c0.3,0.3,0.7,0.4,1.1,0.6c1.1,5.3,5,9.6,10.1,11.2c0,0.5,0,0.9,0,1.3C43,137.9,41.7,137.7,40.1,137.4z
			 M34.5,122.7c0-0.7,0.1-1.4,0.2-2c1.3-0.5,2.8-1.2,3.8-2.5c1-1.3,1.7-3.3,2.1-5.2c0.6,0.6,1.3,1.1,2.3,1.3
			c5,1.2,13.2,4.5,17.1,6.1c0.2,0.1,2,0.8,2.1,0.9c0.1,0.5,0.1,1,0.1,1.5c0,0.6-0.1,1.2-0.1,1.8c0,0.2-0.3,1.7-0.4,1.9
			c-0.2,0.9-0.5,1.7-0.9,2.5c-2.2,4.7-7,7.9-12.5,7.9C40.8,136.7,34.5,130.4,34.5,122.7z M45,139.3c0-0.1,0-1.3-0.1-2.4
			c1.1,0.3,2.3,0.5,3.5,0.5c1.3,0,2.5-0.2,3.7-0.5c-0.1,1.2-0.1,2.5-0.1,2.5c0.8,0.2,1.9,0.5,2.6,0.9c-1,2.4-3.3,3.5-6.1,3.5
			c-2.7,0-5.3-1.4-6.4-3.7C43.2,139.8,44.2,139.6,45,139.3z M28.9,186.3l-0.2,0l-0.5,4.5c0,0.3-0.3,0.5-0.5,0.5c0,0,0,0,0,0
			c-0.3,0-0.5-0.3-0.5-0.6l0.1-4.6l-0.1,0l-1.1,3.6c-0.1,0.2-0.3,0.4-0.5,0.4c0,0-0.1,0-0.1,0c-0.3-0.1-0.5-0.4-0.4-0.6l0.8-3.8
			l-0.1,0l-1.2,2.4c-0.1,0.2-0.3,0.3-0.5,0.3c-0.1,0-0.1,0-0.2,0c-0.3-0.1-0.4-0.4-0.3-0.7c0,0,1.1-3,1.9-4.1
			c0.2-0.2,1.3-2.7,1.6-2.8c0.9-8.1,3.8-27.8,4.2-30.8c0,0,0,0,0-0.1c1.2,2.4,2.6,5.7,3.9,8.9l-4.8,21.9c0.5,0.5,0.6,2.4,1.2,3.4
			c0.6,1,1.4,1.3,2,1.7c0.1,0.1,0.1,0.2,0,0.3c-0.1,0.2-0.4,0.3-0.8,0.3c-0.4,0-1.1-0.2-1.9-1c-0.3,0-0.3,0.5-0.3,0.7l0.3,3.9
			c0,0.4-0.3,0.6-0.6,0.6h0c-0.3,0-0.5-0.2-0.5-0.5L28.9,186.3z M35.4,160c1,2.5,2,4.9,2.6,6.5c-0.3,0.6-1.6,3.3-3,7.1
			c-1,2.7-2.2,6.3-3.2,9.7c-0.2-0.4-0.3-0.9-0.4-1.4c-0.1-0.5-0.3-1-0.5-1.4L35.4,160z M36.9,227.2c-0.1,0-0.1,0-0.2,0
			c-0.3,0-0.5-0.2-0.6-0.4c-0.1-0.3,0.1-0.7,0.4-0.8l1.3-0.4c0,0,0,0,0,0v0.4c0,0.2,0.1,0.5,0.2,0.7c0,0-0.1,0.1-0.1,0.1L36.9,227.2
			z M44.1,231.3c0.3,2.1,0,4-0.8,5c-0.5,0.6-1.5,1.1-2.6,1.1c-0.8,0-1.8-0.3-2.6-0.9c-1.3-1-1.6-3.1-1.1-5.5c0.3,1,1.2,2.1,3.8,2.1
			c0,0,0.1,0,0.1,0C43.1,233.2,43.8,232.1,44.1,231.3z M40.9,232.5c0,0-0.1,0-0.1,0c-4.6-0.1-3.3-3.5-2.4-5l0.5-0.1
			c0.1,0,0.2,0.1,0.3,0.1h3.2c0.2,0,0.3,0,0.5-0.1C43.7,228.7,44.8,232.5,40.9,232.5z M38.6,225.5c0,0,0-0.1,0-0.1
			c0.2-0.6,1.2-0.5,1.7-0.5c0.7,0,1.4,0,2.2,0.1c0.3,0,0.6,0.3,0.6,0.6v0.4c0,0.3-0.3,0.6-0.6,0.6c0,0-3.1,0-3.4-0.1
			C38.7,226.3,38.4,225.9,38.6,225.5z M42.7,224.3c-0.1,0-0.2,0-0.3,0h-3.2c-0.2,0-0.4,0-0.5,0.1c-0.3-2.1-0.6-5.2-0.9-9.9
			c-0.4-5.4-0.5-14-0.5-18.8c2.1,0.3,4.6,0.5,7.3,0.6L42.7,224.3z M52.8,227.3c0.2,0.1,0.3,0.1,0.5,0.1h3.2c0.1,0,0.2,0,0.3-0.1
			l0.5,0.1c0.9,1.5,2.3,5-2.4,5c0,0-0.1,0-0.1,0C51,232.5,52.1,228.7,52.8,227.3z M52.7,226.1v-0.4c0-0.3,0.3-0.6,0.6-0.6
			c0,0,3.6,0,3.7,0c0,0,0.1,0.1,0.2,0.4c0,0.4-0.1,1-0.1,1c0,0.1-0.1,0.2-0.2,0.2c-0.3,0.1-1.1,0-1.1,0h-2.5
			C52.9,226.7,52.7,226.4,52.7,226.1z M58.8,231.1c0.4,2.3,0.2,4.5-1.1,5.5c-0.8,0.6-1.8,0.9-2.6,0.9c-1.1,0-2.1-0.5-2.6-1.1
			c-0.8-1-1-2.9-0.8-5c0.3,0.8,1.1,1.9,3.2,1.9c0,0,0.1,0,0.1,0C57.6,233.2,58.5,232,58.8,231.1z M57.8,225.6l1.3,0.4
			c0.3,0.1,0.5,0.4,0.4,0.8c-0.1,0.3-0.3,0.4-0.6,0.4c-0.1,0-0.1,0-0.2,0l-1.1-0.3c0,0-0.1-0.1-0.1-0.1c0.1-0.2,0.2-0.4,0.2-0.7
			L57.8,225.6C57.8,225.6,57.8,225.6,57.8,225.6z M58,214.1c-0.3,4.7-0.7,8.2-0.9,10.4c-0.2-0.1-0.3-0.1-0.5-0.1h-3.2
			c-0.1,0-0.2,0-0.3,0l-1.8-28c2.4-0.1,4.8-0.3,7.2-0.7C58.4,200.5,58.3,208.8,58,214.1z M61.9,175.8c1.2,3.7,4.9,15,5.5,17.1
			c-11,3.7-23.2,3.1-30.9,2.1c0,0,0,0,0,0c0,0,0,0,0,0c-3.6-0.5-6.2-1-7.1-1.2c0.1-0.4,0.4-1.3,0.7-2.4c0.3,0,0.7-0.2,0.9-0.4
			c0.2-0.3,0.4-0.6,0.3-1l-0.3-3.4c0.5,0.3,1,0.5,1.5,0.5c0.6,0,1.1-0.3,1.3-0.5c0.3-0.3,0.3-0.6,0.3-0.7c0-0.1-0.1-0.4-0.4-0.6
			c-0.1-0.1-0.2-0.1-0.3-0.2c-0.4-0.2-0.8-0.5-1.1-0.9c1.1-3.5,2.3-7.3,3.4-10.2c1.3-3.6,2.6-6.2,2.9-6.9c0.9,0.3,4.3,1.2,9.3,1.2
			c2.9,0,6.4-0.3,10.2-1.2C58.6,167.9,60.6,171.7,61.9,175.8z M58,166.2c-11,2.5-18.6,0.3-19.4,0c-0.9-2.3-6.8-17.4-9-20.1
			c1.1-0.9,5.4-3.9,11.3-5.5c0.2-0.1,0.4-0.1,0.6-0.1c1.1,2.4,4,4,7,4c3.2,0,5.6-1.4,6.7-3.9c3.7,1,7.6,2.9,11.6,6.1
			c-0.8,1.2-3.9,5.9-5.4,9.8C59.3,161.8,58.3,165.3,58,166.2z M72.2,185.4c-0.1,0.1-0.2,0.2-0.2,0.3c0,0,0,0,0,0
			c-0.2-0.2-0.3-0.5-0.2-0.8l0,0c0,0,0-0.1,0-0.1c0-0.1,0.1-0.2,0.2-0.3l0.6-0.6c0.2-0.2,0.4-0.2,0.6-0.2c0.2,0,0.4,0.1,0.6,0.2v0
			c0.1,0.1,0.2,0.3,0.2,0.4c-0.4,0-0.8,0.2-1.1,0.4L72.2,185.4z M73.4,186.7c-0.1,0.2-0.2,0.4-0.2,0.6c0,0,0,0,0,0
			c-0.2,0-0.4-0.1-0.6-0.2c-0.3-0.3-0.3-0.8,0-1.1l0.6-0.6c0.2-0.2,0.4-0.2,0.6-0.2c0.2,0,0.4,0.1,0.6,0.2c0,0,0,0,0,0.1
			c-0.2,0.1-0.4,0.3-0.6,0.6L73.4,186.7z M74.7,188.2c-0.1,0-0.3,0-0.4-0.1c-0.4-0.2-0.5-0.7-0.3-1.1l0.4-0.7
			c0.1-0.3,0.4-0.4,0.7-0.4c0.1,0,0.3,0,0.4,0.1c0.4,0.2,0.5,0.7,0.3,1.1l-0.4,0.7C75.3,188.1,75,188.2,74.7,188.2z M75.8,188.7
			c-0.1,0.1-0.2,0.1-0.3,0.1c-0.1,0-0.1,0-0.2,0c0.3-0.1,0.5-0.3,0.7-0.6l0-0.1C76.1,188.3,76,188.6,75.8,188.7z M79.4,183.7
			c-0.1,0.1-0.3,0.2-0.4,0.2c-0.1,0-0.2,0-0.3-0.1l-1.8-1.3l2,3.1c0.2,0.2,0.2,0.6,0,0.8c-0.1,0.1-0.2,0.2-0.4,0.2
			c-0.1,0-0.3-0.1-0.4-0.2l-2.8-3.3l-0.1,0.1l2.4,3.9c0.2,0.2,0.1,0.6-0.1,0.8c-0.1,0.1-0.2,0.1-0.3,0.1c-0.2,0-0.3-0.1-0.4-0.2
			l-0.3-0.4c0.3-0.7,0-1.5-0.6-1.9c-0.2-0.1-0.5-0.2-0.7-0.2c0,0,0,0,0,0c-0.1-0.1-0.1-0.3-0.3-0.4c-0.1-0.1-0.2-0.2-0.3-0.2
			c0-0.4-0.1-0.8-0.4-1.1c-0.3-0.3-0.7-0.4-1.1-0.4c-0.4,0-0.8,0.2-1.1,0.4l-0.3,0.3c-0.1-0.1-0.2-0.2-0.3-0.2c0,0-0.1,0-0.1,0
			c-0.5,1.6-0.6,3.2-1.6,3.2c-0.2,0-0.5-0.1-0.8-0.3c-0.1-0.1,0.5-1.7,0.5-2.9c0-1.2,0.2-5,0.3-5.7l-8.1-20.2c0.1-0.3,0.2-0.7,0.4-1
			c0.8-2.1,2.1-4.4,3.2-6.2c2,7.8,6.1,23.3,8.5,27.2c0,0,0,0,0,0c0,0,0.1,0.1,0.2,0.2c-1.2,0-2.2,0.9-2.4,2.1
			c-0.3,1.9-0.2,2.5,0.1,2.8c0.2,0.2,0.4,0.3,0.6,0.3c0.1,0,0.1,0,0.2,0c1-0.2,1.4-1.3,1.8-2.5c0-0.1,0-0.1,0-0.1c0.1,0,0.2,0,0.2,0
			h0h0c0.2,0,0.5,0,0.9-0.2l0.6-0.3c1.4,1.1,3.2,3,3.2,3C79.6,183.1,79.6,183.5,79.4,183.7z M79.7,180.5c-0.2,0.2-0.4,0.6-0.6,1.2
			c-0.6-0.6-1.5-1.5-2.4-2.1c0.2-0.1,0.3-0.4,0.3-0.6c0-0.2-0.1-0.4-0.3-0.5c0.4-0.4,0.6-0.6,0.6-0.6l5.7-19.6l5.1,2
			C84.6,169,80.1,180.2,79.7,180.5z M80.8,156.5c0,0,7.4-14.9,14.6-17.6c-0.4,0.4-0.9,0.7-1.3,1.2c-2.2,2.3-3.7,5.6-4.3,9.6
			c0,0,0,0,0,0l-1,10L80.8,156.5z M98.7,236c-0.5,0.4-1.6,1-2.9,1c-0.7,0-1.5-0.2-2.3-0.7c-0.8-0.5-1.6-1.3-1.6-2.7
			c0.9,1,2.4,1.6,4,1.7c0,0,0,0,0,0c1.8,0,3.3-0.8,4-1.8C99.9,234.6,99.4,235.4,98.7,236z M99.7,232.3c0,0-0.1,0.1-0.1,0.1
			c-0.4,1.1-1.9,2.2-3.8,2.2c0,0,0,0,0,0c-1.7,0-3.3-0.8-3.8-1.9c0,0-0.1-0.1-0.1-0.1l1.5-6.1c0.7,0.6,1.5,0.9,2.5,0.9
			c0.9,0,1.7-0.3,2.3-0.8L99.7,232.3z M98.1,225.7c-0.5,0.6-1.3,1-2.2,1c-0.9,0-1.7-0.4-2.2-1c0.2-0.4,0.2-0.8,0.6-1l-0.2-2.2
			l3.5-0.1l-0.2,2.2C97.7,224.9,97.9,225.3,98.1,225.7z M109,224.6l-0.2-2.2h3.5l-0.2,2.4c0.3,0.2,0.4,0.6,0.6,1
			c-0.5,0.6-1.3,1-2.2,1c-0.9,0-1.6-0.4-2.2-1C108.5,225.3,108.7,224.8,109,224.6z M112.9,236.4c-0.8,0.5-1.5,0.7-2.3,0.7
			c-1.3,0-2.5-0.6-2.9-1c-0.7-0.6-1.2-1.5-1.2-2.6c0.8,1,2.3,1.8,4,1.8c0,0,0,0,0,0c1.6,0,3.1-0.7,4-1.7
			C114.5,235,113.7,235.8,112.9,236.4z M112.9,226.5l1.5,6.1c0,0-0.1,0.1-0.1,0.1c-0.6,1.1-2.1,1.9-3.8,1.9c0,0,0,0,0,0
			c-1.9,0-3.4-1.1-3.8-2.2c0,0,0-0.1-0.1-0.1l1.5-5.7c0.7,0.5,1.5,0.8,2.3,0.8C111.4,227.4,112.2,227.1,112.9,226.5z M116,204.1
			c-0.3,5.3-1.1,17.6-1.2,17.6c0,0,0,0,0,0h-8.7l-2.5-29.8h1.5c0.2,0,0.4-0.2,0.4-0.4c0-0.2-0.2-0.4-0.4-0.4h-3.8
			c-0.2,0-0.4,0.2-0.4,0.4c0,0.2,0.2,0.4,0.4,0.4h1.5l-2.5,29.8l-8.7,0.2c0,0-1.4-11.6-1.7-22.9c-0.1-3.4-0.1-6.8-0.1-9.7
			c0,0,0,0,0,0c3.1,0,5.6-2.7,5.6-6.1c0-0.2,0-0.4,0-0.6c2.2,0.1,4.8,0.2,8,0.2c2.6,0,5-0.1,7.1-0.3c0,0.2,0,0.4,0,0.6
			c0,3.3,2.6,6.1,5.9,6.1h0C116.3,194.8,116.2,200.9,116,204.1z M89.8,188.6c0-2.5,0-4.8,0.1-6.5c1.2,0.2,2.8,0.3,4.8,0.5
			c0,0.2,0,0.4,0,0.6C94.7,186.2,92.5,188.6,89.8,188.6C89.8,188.6,89.8,188.6,89.8,188.6z M116.3,188.6
			C116.3,188.6,116.3,188.6,116.3,188.6c-2.9,0-5.2-2.5-5.2-5.4c0-0.2,0-0.4,0.1-0.7c2.1-0.2,3.9-0.4,5.2-0.6
			C116.4,183.8,116.3,186.1,116.3,188.6z M103.4,182.2c-11.1,0-16.2-1.2-16.2-1.2l3.2-31.2c0.8-4.9,3-8.8,6.3-10.9
			c1.2,2.3,3.6,3.8,6.2,3.8c2.7,0,5.1-1.5,6.3-3.9c3.3,2.1,5.5,5.9,6.5,11.1l3.1,31.1C118.8,180.9,112.6,182.2,103.4,182.2z"/>
		<path d="M142.1,161.9c0-0.7-0.6-1.3-1.4-1.3l0,0l-1.9,0.1c-0.8,0-1.3,0.7-1.3,1.4c0,0.3,0.1,0.5,0.2,0.7c-0.1,0.2-0.2,0.3-0.2,0.5
			c0,0.2,0,0.3,0,0.5c-0.2,0.2-0.3,0.5-0.4,0.8c0,0.1,0,0.3,0,0.4c-0.1,0.1-0.2,0.3-0.3,0.4c-0.3,0.7,0.1,1.5,0.8,1.8l1.4,0.5
			c0.2,0.1,0.3,0.1,0.5,0.1c0.6,0,1.1-0.4,1.3-0.9c0.1-0.2,0.1-0.5,0.1-0.7c0.5-0.2,0.8-0.6,0.9-1.1c0-0.2,0-0.3,0-0.5
			c0.2-0.2,0.3-0.5,0.4-0.8c0-0.4-0.1-0.7-0.3-1C142,162.6,142.1,162.3,142.1,161.9z M140.2,166.6c-0.1,0.3-0.4,0.4-0.6,0.4
			c-0.1,0-0.2,0-0.2,0l-1.4-0.5c-0.3-0.1-0.5-0.5-0.4-0.8c0.2,0.2,0.5,0.3,0.8,0.4l1.9,0.2C140.2,166.4,140.2,166.5,140.2,166.6z
			 M140.4,165.6C140.4,165.6,140.4,165.6,140.4,165.6l-2-0.2c-0.4,0-0.6-0.4-0.6-0.7c0-0.1,0-0.1,0.1-0.2c0.2,0.2,0.5,0.3,0.8,0.4
			l1.9,0.2c0.1,0,0.1,0,0.2,0c0.1,0,0.2,0,0.3,0C141,165.3,140.7,165.6,140.4,165.6z M141.4,163.8c0,0.3-0.3,0.6-0.7,0.6
			c0,0-0.1,0-0.1,0l-1.9-0.2c-0.4,0-0.6-0.4-0.6-0.7c0,0,0-0.1,0-0.1c0.2,0.1,0.4,0.1,0.6,0.1l0,0l1.9-0.1c0.2,0,0.3,0,0.4-0.1
			C141.4,163.4,141.4,163.6,141.4,163.8z M140.8,162.6l-1.9,0.1c0,0,0,0,0,0c-0.4,0-0.6-0.3-0.7-0.6c0-0.4,0.3-0.7,0.6-0.7l1.9-0.1
			c0,0,0,0,0,0c0.4,0,0.6,0.3,0.7,0.6C141.4,162.3,141.1,162.6,140.8,162.6z"/>
		<path d="M55,205c0.4,0,0.8-0.1,1.2-0.4c0.2-0.1,0.2-0.3,0.1-0.5c-0.1-0.2-0.3-0.2-0.5-0.1c-0.8,0.6-1.7,0-1.7,0
			c-0.2-0.1-0.4-0.1-0.5,0.1c-0.1,0.2-0.1,0.4,0.1,0.5C54,204.7,54.5,205,55,205z"/>
		<path d="M40.7,205.4c0.6,0,1.1-0.2,1.3-0.4c0.2-0.1,0.2-0.3,0.1-0.5c-0.1-0.2-0.3-0.2-0.5-0.1c0,0-0.9,0.7-1.7,0
			c-0.2-0.1-0.4-0.1-0.5,0.1c-0.1,0.2-0.1,0.4,0.1,0.5C39.8,205.3,40.3,205.4,40.7,205.4z"/>
		<path d="M109.4,228.6c0.1,0.1,0.4,0.1,0.5,0c0.1-0.1,0.3-0.2,0.6-0.2c0.2,0,0.4,0.1,0.6,0.2c0.1,0.1,0.2,0.1,0.3,0.1
			c0.1,0,0.2,0,0.2-0.1c0.1-0.1,0.2-0.3,0-0.5c-0.2-0.3-0.6-0.5-1.1-0.5c-0.4,0-0.8,0.1-1.1,0.4
			C109.3,228.3,109.3,228.5,109.4,228.6z"/>
		<path d="M110.5,229.8c-0.4,0-0.8,0.1-1.1,0.4c-0.1,0.1-0.1,0.4,0,0.5c0.1,0.1,0.4,0.1,0.5,0c0.1-0.1,0.3-0.2,0.6-0.2
			c0.2,0,0.4,0.1,0.6,0.2c0.1,0.1,0.2,0.1,0.3,0.1c0.1,0,0.2,0,0.2-0.1c0.1-0.1,0.2-0.3,0-0.5C111.3,229.9,111,229.8,110.5,229.8z"
			/>
		<path d="M94.8,228.2c-0.1,0.1-0.1,0.4,0,0.5c0.1,0.1,0.1,0.1,0.2,0.1c0.1,0,0.2,0,0.3-0.1c0.1-0.1,0.3-0.2,0.6-0.2
			c0.2,0,0.4,0.1,0.6,0.2c0.1,0.1,0.4,0.1,0.5,0c0.1-0.1,0.1-0.4,0-0.5c-0.3-0.3-0.7-0.4-1.1-0.4C95.4,227.8,95,227.9,94.8,228.2z"
			/>
		<path d="M95.8,229.8c-0.4,0-0.8,0.2-1.1,0.5c-0.1,0.1-0.1,0.4,0,0.5c0.1,0.1,0.1,0.1,0.2,0.1c0.1,0,0.2,0,0.3-0.1
			c0.1-0.1,0.3-0.2,0.6-0.2c0.2,0,0.4,0.1,0.6,0.2c0.1,0.1,0.4,0.1,0.5,0c0.1-0.1,0.1-0.4,0-0.5C96.7,229.9,96.3,229.7,95.8,229.8z"
			/>
	</g>
	<g>
		<path d="M138.7,167.3c-0.1,0.2-0.1,0.3-0.1,0.3c-0.4,0.6-0.8,0.9-1,0.9c-0.3,0-0.5-0.5-0.3-1.3l0.2-0.5c-0.1-0.1-0.2-0.2-0.2-0.3
			c0-0.1-0.1-0.1-0.1-0.2l-0.9,2.1c-0.2,0.4-0.5,0.6-0.7,0.6c-0.3,0-0.5-0.3-0.5-0.9l2.4-7.1l0,0l-2.5,5c-0.2,0.5-0.6,0.9-0.9,0.9
			c-0.4,0-0.6-0.6-0.1-2.1l1.9-4.6l-2.5,3.6c-0.1,0.2-0.3,0.4-0.6,0.4c-0.1,0-0.2,0-0.2-0.1c-0.2-0.1-0.8-0.3,1.9-4.2
			c0,0-0.1,0-0.1,0c-0.1,0.1-0.1,0.1-0.2,0.2c-0.1,0.1-0.1,0.1-0.2,0.2c-0.3,0.3-0.5,0.5-0.8,0.8c-0.1,0.1-0.2,0.1-0.4,0.1
			c-1.1,1.8-1.2,2.4-1.1,2.9c0.1,0.4,0.4,0.6,0.5,0.7c0.2,0.1,0.4,0.2,0.6,0.2c0.1,0,0.3,0,0.4-0.1c-0.4,1.1-0.4,1.9,0,2.4
			c0.2,0.3,0.5,0.4,0.8,0.4c0.1,0,0.3,0,0.4-0.1l-0.1,0.3c0,0,0,0.1,0,0.1c-0.1,0.5,0.1,1,0.3,1.3c0.2,0.2,0.5,0.4,0.8,0.4
			c0.5,0,0.9-0.3,1.3-0.8c0,0,0,0.1,0.1,0.1c0.2,0.2,0.5,0.4,0.8,0.4c0.5,0,1.1-0.4,1.6-1.2c0,0,0-0.1,0.1-0.1
			c0.1-0.2,0.1-0.4,0.2-0.6c-0.1,0.1-0.3,0.1-0.5,0.1C138.9,167.4,138.8,167.3,138.7,167.3z"/>
		<path d="M194.1,119.2l3.4-2.5c0.3-0.2,0.4-0.6,0.2-0.9c-0.2-0.4-5.3-9.5-9.5-13.6c-2.4-2.3-5.3-4.1-8.3-5.2
			c-0.6-0.3-1.3-0.5-1.9-0.7c-0.1,0-0.1,0-0.2-0.1c0-0.2,0-0.5,0-0.8c7.3-0.7,14.1-5.3,16.2-8.4c2-3.1,2.7-6.8,2-10.8
			c-0.7-3.8-2.6-7.9-5.7-11.8c-1.1-1.9-3-4-6.1-6c-3-1.9-6.1-2.9-8.9-2.9c-1.9,0-3.6,0.5-4.8,1.3c-0.4-0.2-1.5-0.7-3.1-0.7
			c-2.4,0-4.9,1-7.5,3.1c-6.6,5.2-8.4,13.3-8.5,13.7c0,0.1,0,0.2,0,0.3c-0.1,0-0.1-0.1-0.2-0.1c-1.7,5-1.7,9.2,0.1,12.7
			c3.2,6.2,11.3,8.7,17.6,9.6c0.1,0,0.1,0,0.2,0c0,0.3,0,0.6,0,0.8c-0.9,0.2-1.6,0.4-2.1,0.5c-0.2,0.1-0.4,0.1-0.6,0.2
			c-10.5,2.7-18.3,18.6-18.6,19.3c-0.2,0.3,0,0.7,0.2,0.9l2.3,1.5c-2.1,5.7-9.7,26.2-11.6,34.6c-0.3,0.2-0.6,0.6-1.3,1.3
			c-0.6,0.7-1.2,1.4-1.3,1.5c-0.2,0.3-0.4,0.6-0.6,0.9c0.1,0,0.2,0.1,0.2,0.1c0.1,0.1,0.2,0.2,0.3,0.3c0.2-0.3,0.4-0.6,0.6-0.9
			c0.2-0.3,2.3-2.8,2.6-2.8c1.8-8.1,9.4-28.8,11.6-34.7l5,3.3l-0.1,0.7l-12.8,31.7c0.6,1.4,0,7.8,1.6,8.6c0.1,0-0.3,0.4-0.9,0.4
			c-0.7,0-1.6-0.6-2.1-3.4c-0.1,0-0.2,0.3-0.4,0.7c0.3,0.2,0.4,0.5,0.5,0.8c0,0.3,0,0.7,0,1c0.6,1.2,1.4,1.6,2.1,1.6
			c0.7,0,1.4-0.4,1.6-0.9c0.1-0.3-0.1-0.7-0.4-0.8c0,0-0.3-0.2-0.6-1.6c-0.2-1-0.2-2.2-0.3-3.3c-0.1-1.5-0.1-2.4-0.3-3.1l11.7-29
			l-5.7,47.5c0,0.4,0.2,0.7,0.6,0.8c0,0,1.8,0.4,4.6,0.8c0.1,17.3,4.2,45.2,4.3,45.5c0.1,0.3,0.3,0.6,0.7,0.6l1.5,0l0.1,1.7
			c-0.6,0.2-1,0.8-1,1.5c0,0.5,0.3,1,0.7,1.3c-0.8,1.4-1.3,3.2-1.3,5.3c0,4.3,2,7.6,4.5,7.6c2.5,0,4.5-3.3,4.5-7.6
			c0-2.1-0.5-4-1.3-5.4c0.4-0.3,0.6-0.7,0.6-1.2c0-0.6-0.4-1.2-0.9-1.4l0.1-1.7l2.2,0h0c0.4,0,0.7-0.3,0.7-0.7l2.5-44.2
			c0.1,0,0.2,0,0.3,0c0.1,0,0.1,0,0.2,0l3.2,44.2c0,0.4,0.3,0.7,0.7,0.7h0l1.5,0l0.1,1.7c-0.6,0.2-1,0.8-1,1.5c0,0.5,0.3,1,0.7,1.3
			c-0.8,1.4-1.3,3.2-1.3,5.3c0,4.3,2,7.6,4.5,7.6c2.5,0,4.5-3.3,4.5-7.6c0-2.1-0.5-4-1.3-5.4c0.4-0.3,0.6-0.7,0.6-1.2
			c0-0.6-0.4-1.2-0.9-1.4l0.1-1.8l2.2,0c0.4,0,0.7-0.3,0.7-0.6c0-0.3,3.3-28.6,3-45.8c2.5-0.5,3.5-0.9,3.5-1
			c0.3-0.1,0.4-0.4,0.4-0.7l-3.1-32.4l4.3,14c-0.2,0.6-0.4,1.6-0.5,3.1c-0.1,1.1-0.3,2.3-0.5,3.3c-0.3,1.4-0.6,1.5-0.7,1.5
			c-0.3,0.1-0.5,0.5-0.4,0.8c0.1,0.5,0.9,1,1.6,1c0.7,0,1.5-0.3,2.2-1.7c0,0.1,0.1,0.1,0.1,0.2c0-0.4,0.1-0.7,0.2-1
			c-0.3-0.5-0.4-1-0.3-1.4c-0.6,2.6-1.5,3.3-2.2,3.3c-0.6,0-1-0.4-0.9-0.5c1.6-0.7,1.5-7.1,2.2-8.5l-5.4-17.5l-1.4-14.3l3.7-2.7
			c1.4,6.5,4.8,22.6,6.3,31.3c0-0.1,0.1-0.1,0.1-0.2c0-0.1,0-0.2,0.1-0.4c0.1-0.3,0.2-0.6,0.3-0.9
			C198.7,140.5,195.4,125.2,194.1,119.2z M192,68.4c-0.1-0.3-0.1-0.6-0.2-1c4.6,7.2,5.1,14.1,1.8,19.2c-2,3-8.6,7.3-15.5,8.1
			c0-0.5,0.1-1,0.1-1.5c5.7-1.7,10.2-6.6,11.5-12.6c0.1,0,0.1,0,0.2,0c-0.3,0.3-0.4,0.6-0.4,1.1c0,0.9,0.7,1.6,1.6,1.6
			c0.9,0,1.6-0.7,1.6-1.6c0-0.8-0.5-1.4-1.2-1.5c0.7-0.5,1.3-1.3,1.7-2.4c0.7-2,0.2-3.9-1.2-4.4C191.9,72.8,192.5,70.9,192,68.4z
			 M189.6,73.6c0.1,0,0.2,0.1,0.3,0.1c-0.1,0.1-0.2,0.1-0.3,0.2C189.6,73.8,189.6,73.7,189.6,73.6z M190.1,81.7
			c0-0.5,0.4-0.9,0.9-0.9c0.5,0,0.9,0.4,0.9,0.9c0,0.5-0.4,0.9-0.9,0.9C190.5,82.5,190.1,82.2,190.1,81.7z M192.3,77.5
			c-0.5,1.4-1.5,2.4-2.4,2.4c-0.1,0-0.1,0-0.2,0c0.2-0.9,0.2-1.9,0.2-2.9c0-0.8-0.1-1.6-0.2-2.3c0.4-0.4,0.8-0.7,1.3-0.7
			c0,0,0,0,0,0c0,0,0.1,0,0.1,0c0.1,0,0.2,0,0.4,0.1C192.5,74.4,192.8,75.9,192.3,77.5z M175.4,56.2c2.4,0,5.3,0.8,8.6,2.8
			c10.1,6.3,7.2,14.1,7.1,14.3c0,0,0,0,0,0c-0.4-0.1-9.9-2.6-18.1-7.7c-1.7-1.1-2.9-1.7-3.8-4.3C168.4,58.8,171,56.2,175.4,56.2z
			 M160.3,59.7c2.9-2.3,5.4-2.9,7.1-2.9c1.2,0,2.1,0.3,2.5,0.5c-0.3,0.3-0.6,0.5-0.8,0.8c-0.7,0.9-0.9,2-0.7,3
			c-1.2,2-2.8,4.6-4.6,6.4c-5,5-9.9,5.4-11.3,5.4c-0.2,0-0.4,0-0.4,0S153.9,64.8,160.3,59.7z M154.2,77.5c-0.6-1.6-0.2-3.2,0.8-3.5
			c0.1,0,0.3-0.1,0.4-0.1c0.4,0,0.8,0.2,1.2,0.6c-0.1,0.6-0.1,1.2-0.1,1.7c0,1.2,0.1,2.4,0.4,3.6c-0.1,0-0.2,0-0.3,0
			C155.7,79.9,154.7,79,154.2,77.5z M156.2,81.7c0,0.5-0.4,0.9-0.9,0.9s-0.9-0.4-0.9-0.9c0-0.5,0.4-0.9,0.9-0.9
			S156.2,81.2,156.2,81.7z M155.5,73.3c0.4-0.1,0.9-0.2,1.4-0.4c-0.1,0.3-0.1,0.6-0.2,0.8C156.3,73.5,155.9,73.3,155.5,73.3z
			 M169,94.6c-8.7-1.3-22.4-5.8-17.3-21.1c0.1,0.1,0.2,0.1,0.3,0.1c0,0,0.2,0,0.4,0c0.4,0,1.1,0,1.9-0.2c-0.6,0.3-1,0.9-1.1,1.7
			c-0.2,0.8-0.1,1.7,0.2,2.6c0.3,1,0.9,1.8,1.6,2.3c-0.8,0.1-1.4,0.7-1.4,1.6c0,0.9,0.7,1.6,1.6,1.6c0.9,0,1.6-0.7,1.6-1.6
			c0-0.4-0.2-0.8-0.4-1.1c0,0,0.1,0,0.1,0c0.2,0,0.3,0,0.4-0.1c0.8,2.9,2.3,5.7,4.4,8c2.2,2.3,4.8,3.9,7.6,4.7
			C169.1,93.7,169.1,94.2,169,94.6C169.1,94.6,169.1,94.6,169,94.6z M157.2,76.3c0-1.3,0.2-2.5,0.4-3.7c2-0.8,4.3-2.2,6.7-4.5
			c1.8-1.8,3.3-4.1,4.4-6c0.9,2.2,2.1,3,3.5,3.9c0.1,0.1,0.3,0.2,0.4,0.2c6,3.8,12.8,6.2,16.2,7.2c0.3,1.2,0.4,2.4,0.4,3.7
			c0,8.9-7.1,16.2-15.9,16.2C164.6,93.2,157.2,85.2,157.2,76.3z M168.1,97.1c0.4-0.1,0.8-0.2,1.2-0.3c0.1,0,0.1,0,0.2,0c0,0,0,0,0,0
			c0,0,0.1,0,0.1,0c0.1-0.1,0.2-0.2,0.2-0.4c0-0.1,0-1.4-0.1-2.9c1.2,0.3,2.4,0.4,3.6,0.4c1.4,0,2.7-0.2,4-0.5
			c-0.1,1.5-0.2,3-0.2,3.1c0,0.2,0.1,0.3,0.2,0.4c0.1,0,0.2,0.1,0.3,0.1c0,0,0,0,0,0c0.7,0.2,1.4,0.4,2.1,0.7c0.1,0,0.2,0.1,0.2,0.1
			c-1.1,2.3-3.4,3.6-6.5,3.6c-2.9,0-5.7-1.6-6.9-3.8C167.1,97.4,167.6,97.3,168.1,97.1z M168.3,230.6c0,3.8-1.7,6.9-3.8,6.9
			c-2,0-3.6-2.8-3.8-6.4c0.7,1.4,2.1,2.3,3.7,2.3c1.8,0,3.3-1.3,3.9-3.1C168.3,230.5,168.3,230.5,168.3,230.6z M167.8,228.9
			c0,2-1.4,3.9-3.5,3.9c-2,0-3.5-1.7-3.5-3.6c0-1,0.4-2.4,1-3.5c0.1,0,0.1,0,0.2,0h4.6c0.1,0,0.1,0,0.2,0
			C167.5,226.6,167.8,227.9,167.8,228.9z M167.6,224c0,0.5-0.4,0.9-0.9,0.9h-4.6c-0.5,0-0.9-0.4-0.9-0.9c0-0.5,0.4-0.9,0.9-0.9h4.6
			C167.2,223.1,167.6,223.5,167.6,224z M162.2,220.8l4.6,0l-0.1,1.6h-4.4L162.2,220.8z M169.7,220.1l-9.7-0.1c0,0-4.2-27.9-4.3-45.3
			c4,0.6,9.7,1.2,15.4,1.2c0.4,0,0.7,0,1.1,0L169.7,220.1z M185.5,230.6c0,3.8-1.7,6.9-3.8,6.9c-2,0-3.6-2.8-3.8-6.4
			c0.7,1.4,2.1,2.3,3.7,2.3c1.8,0,3.3-1.3,3.9-3.1C185.5,230.5,185.5,230.5,185.5,230.6z M185.1,228.9c0,2-1.4,3.9-3.5,3.9
			c-2,0-3.5-1.7-3.5-3.6c0-1,0.4-2.4,1-3.5c0.1,0,0.1,0,0.2,0h4.6c0.1,0,0.1,0,0.2,0C184.7,226.6,185.1,227.9,185.1,228.9z
			 M184.8,224c0,0.5-0.4,0.9-0.9,0.9h-4.6c-0.5,0-0.9-0.4-0.9-0.9c0-0.5,0.4-0.9,0.9-0.9h4.6C184.4,223.1,184.8,223.5,184.8,224z
			 M179.4,220.8l4.6,0l-0.1,1.6h-4.4L179.4,220.8z M186.9,220.1l-9.6,0.1l-3.2-44.2c7.7-0.3,12.7-0.9,15.8-1.5
			C190.2,191.7,186.9,220.1,186.9,220.1z M189.7,121.6c-0.2-1.5-1-5.6-1.7-8.9c0-0.2-0.2-0.3-0.4-0.3c-0.2,0-0.3,0.2-0.3,0.4
			c0.9,4,1.8,9.4,1.8,9.4c0,0,0,0,0,0l4.8,50.4c0,0-4.7,2.1-20.6,2.6c-0.7,0-1.4,0-2.1,0c-10.4,0-20.5-2.1-20.5-2.1l6.1-51.1
			c0,0,0.1-0.1,0.1-0.2c0-0.1,0.8-5.7,1.4-9.3c0-0.2-0.1-0.4-0.3-0.4c-0.2,0-0.4,0.1-0.4,0.3c-0.5,3.1-1.2,7.6-1.4,9l-7.7-5
			c0,0,7.5-15.6,17.4-18.7c1.3,2.6,4.4,4.4,7.6,4.4c3.4,0,6-1.5,7.2-4.1c2.5,1.1,5,2.7,7.1,4.7c4.1,4,9.3,13.4,9.3,13.4L189.7,121.6
			z"/>
		<path d="M200.9,153.4c0-0.2-0.1-0.5-0.1-0.7c-0.3,0.1-0.5,0-0.7-0.1c0.1,0.3,0.1,0.7,0.1,1c0,0.3,0.5,0.8,0.9,1.2
			c0.2-0.2,0.4-0.3,0.6-0.4C201.4,154.1,201,153.6,200.9,153.4z"/>
	</g>
	<g>
		<path d="M233.3,105.9C233.3,105.9,233.3,105.9,233.3,105.9c0.7,0,1.3-0.6,1.3-1.3c0-0.3-0.1-0.7-0.4-0.9c-0.2-0.2-0.6-0.4-0.9-0.4
			c0,0,0,0,0,0c-0.7,0-1.3,0.6-1.3,1.3c0,0.3,0.1,0.7,0.4,0.9C232.7,105.8,233,105.9,233.3,105.9z M233.4,104
			C233.4,104,233.4,104,233.4,104c0.2,0,0.3,0.1,0.4,0.2c0.1,0.1,0.2,0.3,0.2,0.4c0,0.3-0.3,0.6-0.6,0.6c0,0,0,0,0,0
			c-0.2,0-0.3-0.1-0.4-0.2c-0.1-0.1-0.2-0.3-0.2-0.4C232.8,104.3,233,104,233.4,104z"/>
		<path d="M233.3,113.4C233.3,113.4,233.3,113.4,233.3,113.4c0.3,0,0.7-0.1,0.9-0.4c0.2-0.2,0.4-0.6,0.4-0.9c0-0.3-0.1-0.7-0.4-0.9
			c-0.2-0.2-0.6-0.4-0.9-0.4c0,0,0,0,0,0c-0.3,0-0.7,0.1-0.9,0.4c-0.2,0.2-0.4,0.6-0.4,0.9c0,0.3,0.1,0.7,0.4,0.9
			C232.7,113.2,233,113.4,233.3,113.4z M232.9,111.7c0.1-0.1,0.3-0.2,0.4-0.2c0,0,0,0,0,0c0.2,0,0.3,0.1,0.4,0.2
			c0.1,0.1,0.2,0.3,0.2,0.4c0,0.2-0.1,0.3-0.2,0.4c-0.1,0.1-0.3,0.2-0.4,0.2c-0.2,0-0.3-0.1-0.4-0.2c-0.1-0.1-0.2-0.3-0.2-0.4
			C232.8,111.9,232.8,111.8,232.9,111.7z"/>
		<path d="M233.3,120.9C233.3,120.9,233.3,120.9,233.3,120.9c0.3,0,0.7-0.1,0.9-0.4c0.2-0.2,0.4-0.6,0.4-0.9c0-0.3-0.1-0.7-0.4-0.9
			c-0.2-0.2-0.6-0.4-0.9-0.4c-0.3,0-0.7,0.1-0.9,0.4c-0.2,0.2-0.4,0.6-0.4,0.9c0,0.3,0.1,0.7,0.4,0.9
			C232.7,120.7,233,120.9,233.3,120.9z M232.9,119.2c0.1-0.1,0.3-0.2,0.4-0.2c0,0,0,0,0,0c0.2,0,0.3,0.1,0.4,0.2
			c0.1,0.1,0.2,0.3,0.2,0.4c0,0.2-0.1,0.3-0.2,0.4c-0.1,0.1-0.3,0.2-0.4,0.2c-0.2,0-0.3-0.1-0.4-0.2c-0.1-0.1-0.2-0.3-0.2-0.4
			C232.8,119.4,232.8,119.3,232.9,119.2z"/>
		<path d="M233.3,128.4C233.3,128.4,233.3,128.4,233.3,128.4c0.3,0,0.7-0.1,0.9-0.4c0.2-0.2,0.4-0.6,0.4-0.9c0-0.3-0.1-0.7-0.4-0.9
			c-0.2-0.2-0.6-0.4-0.9-0.4c-0.3,0-0.7,0.1-0.9,0.4c-0.2,0.2-0.4,0.6-0.4,0.9c0,0.3,0.1,0.7,0.4,0.9
			C232.7,128.2,233,128.4,233.3,128.4z M232.9,126.7c0.1-0.1,0.3-0.2,0.4-0.2c0,0,0,0,0,0c0.2,0,0.3,0.1,0.4,0.2
			c0.1,0.1,0.2,0.3,0.2,0.4c0,0.2-0.1,0.3-0.2,0.4c-0.1,0.1-0.3,0.2-0.4,0.2c0,0,0,0,0,0c-0.2,0-0.3-0.1-0.4-0.2
			c-0.1-0.1-0.2-0.3-0.2-0.4C232.8,126.9,232.8,126.8,232.9,126.7z"/>
		<path d="M233.3,135.9C233.3,135.9,233.3,135.9,233.3,135.9c0.7,0,1.3-0.6,1.3-1.3c0-0.3-0.1-0.7-0.4-0.9c-0.2-0.2-0.6-0.4-0.9-0.4
			c0,0,0,0,0,0c-0.7,0-1.3,0.6-1.3,1.3c0,0.3,0.1,0.7,0.4,0.9C232.7,135.7,233,135.9,233.3,135.9z M233.4,134
			C233.4,134,233.4,134,233.4,134c0.2,0,0.3,0.1,0.4,0.2c0.1,0.1,0.2,0.3,0.2,0.4c0,0.3-0.3,0.6-0.6,0.6c0,0,0,0,0,0
			c-0.2,0-0.3-0.1-0.4-0.2c-0.1-0.1-0.2-0.3-0.2-0.4C232.8,134.2,233,134,233.4,134z"/>
		<path d="M267.8,164.5l-1-4.6c0-0.1,0-0.1-0.1-0.2l-3.8-6.8l2.7-0.2c0.4,0,0.7-0.3,0.7-0.7l-0.9-36.8c0.6-11.5-2.8-20-5.6-21.6
			c-4.2-2.5-10.7-4.6-17-5.7c0,0.1,0,0.2,0,0.3c0,0.1,0,0.2-0.1,0.4v-3.4c2.5-1.4,5-3.2,6.5-5.2c1.1-1.4,1.7-4,2-6.6
			c1.1,0,2.4-1.1,3.3-2.6c0.7-1.2,0.9-2.6,0.6-3.5c-0.2-0.5-0.5-0.9-0.9-1.1c-0.2-0.1-0.5-0.2-0.8-0.2c-0.1,0-0.2,0-0.3,0
			c0.9-1.8,1.8-5,1-9.6c-0.6-3.3-3.1-5.8-7.3-7.5c-3.2-1.2-7.5-1.9-12.1-1.9c-1.6,0-3.2,0.1-4.7,0.3c-4,0.5-5.4,1.8-5.9,2.6
			c-2.4,0.1-4.3,1-5.6,2.7c-2.9,4-1.6,11.1-1.1,13.5c-0.3,0-0.5,0.1-0.7,0.2c-0.4,0.2-0.8,0.6-0.9,1.1c-0.3,0.9-0.1,2.3,0.6,3.5
			c0.8,1.5,2.1,2.5,3.2,2.6c0.4,2.7,1,5.1,2.1,6.6c1.7,2.4,4.6,4.4,7.5,5.7v1.8c-6.9,0.7-13.6,2.4-15.8,3.1
			c-4.9,1.5-8.9,11.7-9.3,23.8l-4.9,37.4c0,0.2,0,0.4,0.1,0.5c0.1,0.1,0.3,0.2,0.5,0.3l1.7,0.2l-3.6,5.8c0,0.1-0.1,0.1-0.1,0.2
			l-1.3,4.8c-0.1,0.3,0.1,0.7,0.3,0.8c0.1,0,0.5,0.3,1,0.3c0.3,0,0.7-0.1,0.9-0.3l-0.1,1.3c0,0.3,0.1,0.6,0.4,0.7
			c0.1,0,0.4,0.1,0.7,0.1c0.6,0,1.1-0.2,1.4-0.6l0,1.1c0,0.3,0.2,0.6,0.4,0.7c0.1,0,0.4,0.1,0.7,0.1c0.6,0,1.2-0.3,1.6-0.8
			c0,0.3,0.2,0.5,0.4,0.6c0.1,0,0.3,0.1,0.6,0.1c0.4,0,1.1-0.1,1.7-0.9c0.4-0.6,0.7-2,0.9-4.3c0.6,1.1,1.4,1.2,1.9,1.2
			c0.5,0,0.8-0.2,0.9-0.2c0.3-0.1,0.4-0.5,0.4-0.8c0,0-0.5-2.6-0.4-5.4c0-0.5-0.4-1.5-1.5-3.8l0.5,0c0,0,0,0,0.1,0
			c0.3,0,0.6-0.2,0.7-0.5l5.1-21.9c0.2,0.9,0.5,1.9,0.7,2.9c1,3.3,1.9,5,2.6,5.8c-0.9,4.2-3,16.7-1.6,29.7c1.2,11,5.6,53.9,5.6,54.4
			c0,0.4,0.3,0.6,0.7,0.6h0l0.4,0c-0.4,0.9-0.9,1.9-1.2,3c-0.8,2.6-1.2,4.9-1.1,6.6c0.1,2.7,1.2,3.6,2.1,3.8
			c0.2,0.1,0.4,0.1,0.6,0.1c2.8,0,7.4-5.1,8.8-9.7c0.4-1.4,0.6-2.7,0.6-3.9l2.5,0c-0.1,1.1,0.1,2.4,0.5,3.9c1.4,4.6,6.1,9.7,8.8,9.7
			c0.2,0,0.4,0,0.6-0.1c2.4-0.8,2.8-4.7,1-10.5c-0.3-1.1-0.8-2.1-1.2-3.1l0.6,0c0.4,0,0.7-0.3,0.7-0.6c0-0.4,3.6-41.3,4.6-52.2
			c1.5-16.9-0.8-28.6-1.5-32c0.6-0.6,1.1-1.4,1.5-2.2l2.6,15.4c0.1,0.3,0.4,0.6,0.7,0.6c0,0,0,0,0,0l1.7-0.1c-0.2,0.3-0.4,0.7-0.5,1
			c-1.2,2.2-1.7,3.1-1.7,3.6c0,2.6-0.6,5-0.6,5.1c-0.1,0.3,0,0.6,0.3,0.8c0.1,0,0.4,0.3,1,0.3c0.4,0,1.1-0.1,1.8-1
			c0.1,2.1,0.2,3.4,0.6,4c0.6,0.9,1.3,1,1.7,1c0.2,0,0.4-0.1,0.5-0.1c0.2-0.1,0.4-0.3,0.5-0.5c0.4,0.5,0.9,0.8,1.5,0.8
			c0.3,0,0.6-0.1,0.6-0.1c0.3-0.1,0.5-0.4,0.5-0.6l0-1c0.4,0.4,0.8,0.6,1.4,0.6c0.3,0,0.6-0.1,0.6-0.1c0.3-0.1,0.5-0.4,0.5-0.7
			l0-1.1c0.3,0.2,0.6,0.3,0.9,0.3c0.5,0,0.8-0.2,0.9-0.2C267.7,165.2,267.8,164.8,267.8,164.5z M248.2,89.8c-0.2,0.7-1.1,4-2.5,6.6
			c-3,5.5-4.9,6-5.2,6c0,0,0,0,0,0c-1.9-0.7-3.3-3.9-3.9-5.5l0-0.5c0,0,0-0.1,0-0.1c3.5-0.2,6.3-2.9,6.3-6.3v-1.3
			C244.6,89,246.5,89.4,248.2,89.8z M236.2,95.6c-3.3,0-5.9-2.5-5.9-5.6v-3.9c2,0.9,3.9,1.4,5.2,1.4c0.1,0,0.2,0,0.3,0
			c1.6,0,4-0.8,6.4-2V90C242.1,93.1,239.5,95.6,236.2,95.6z M253.6,66.7c0.2,0,0.3,0,0.5,0.1c0.9,0.4,0.9,2.1,0,3.7
			c-0.7,1.2-1.7,2.1-2.5,2.2c0.2-1.6,0.3-3.2,0.3-4.4c0.1-0.1,0.3-0.3,0.4-0.5c0.1-0.1,0.3-0.4,0.6-0.9
			C253.1,66.8,253.4,66.7,253.6,66.7z M217.3,70.5c-0.9-1.6-0.9-3.2,0-3.7c0.1-0.1,0.3-0.1,0.5-0.1c0,0,0.1,0,0.1,0
			c0,0.1,0,0.1,0,0.1c0,0.1,0.1,0.2,0.2,0.3l1.4,1.1c0,1.5,0.1,3,0.3,4.4C219,72.6,218,71.7,217.3,70.5z M220,67.7l-1.5-1.1
			c-0.1-0.3-4.2-16.1,6-16.1c0.1,0,0.1,0,0.2,0c0,0,0.4-2,5.5-2.6c1.4-0.2,2.9-0.3,4.6-0.3c7.8,0,17.5,2.1,18.7,8.8
			c1.2,6.5-1.2,10.2-2.1,11.1c-0.1,0-0.2,0-0.3,0c0,0,0,0.1,0,0.1c-0.2-0.8-1.8-9.1-9.5-10c-0.7-0.1-1.4-0.1-2-0.1
			c-3.9,0-6.8,1.3-9.4,1.3c-0.5,0-0.9,0-1.3-0.1c-2.8-0.6-4.3-3.5-4.3-3.5s0.1,3.4-1.2,6.5C222.1,64.7,220.3,67.5,220,67.7
			C220.1,67.8,220,67.8,220,67.7z M222.6,79.6c-1.7-2.4-2.3-7.2-2.4-11.2c0.2,0,0.3-0.1,0.4-0.3c0.1-0.1,2-3,3.3-6.2
			c0.7-1.7,1-3.4,1.1-4.7c0.8,0.9,2,1.9,3.6,2.2c0.5,0.1,0.9,0.1,1.5,0.1c1.3,0,2.6-0.3,3.9-0.6c1.6-0.3,3.4-0.7,5.5-0.7
			c0.7,0,1.3,0,2,0.1c6.2,0.7,8.3,6.8,8.9,9.4c0,0.1,0,0.2,0.1,0.2c0.1,0.3,0.3,0.5,0.6,0.5c-0.1,4.1-0.8,9.2-2.3,11.1
			c-3,3.9-9.8,7.2-13.1,7.2c-0.1,0-0.2,0-0.2,0C232.5,86.7,225.6,83.8,222.6,79.6z M229.5,88.3V90c0,3.4,2.8,6.1,6.3,6.3
			c0,0,0,0.1,0,0.1l0,0.4c-0.8,1.7-2.8,5.4-4.1,5.4c-0.1,0-0.2,0-0.3-0.1c-5.4-2.8-8.2-12.7-8.2-12.7s0.1,0,0.4-0.1
			c-0.1,0-0.3,0-0.4-0.1C225.2,88.9,227.3,88.6,229.5,88.3z M238.3,140.6c0.2,0,0.4,0.2,0.4,0.4v2.4c0,0.2-0.2,0.4-0.4,0.4h-5.2
			c-0.2,0-0.4-0.2-0.4-0.4V141c0-0.2,0.2-0.4,0.4-0.4H238.3z M210.1,157.4c-0.2,2.9,0.4,5.5,0.4,5.5s-0.2,0.1-0.6,0.1
			c-0.5,0-1.1-0.2-1.6-1.4c-0.1-0.4-0.1-1.5-0.2-2.4l-0.7,1.7c0,0,0,0,0,0c-0.1,0-0.2,4.6-0.9,5.4c-0.4,0.6-0.9,0.7-1.2,0.7
			c-0.2,0-0.3,0-0.3,0l0-6.4l-0.1,0c-0.1,1.4-0.4,4.8-1.1,5.9c-0.3,0.6-0.8,0.7-1.1,0.7c-0.3,0-0.5-0.1-0.5-0.1l0.2-7l-0.1,0
			c-0.1,1.6-0.7,4.2-1.2,5.1c-0.3,0.6-0.8,0.7-1.1,0.7c-0.3,0-0.5-0.1-0.5-0.1l0.5-6.1l0,0c-0.4,1.4-1,3.6-1.4,4.1
			c-0.2,0.2-0.4,0.3-0.7,0.3c-0.4,0-0.7-0.2-0.7-0.2l1.3-4.8l3.8-6.1l5.8,0.5C209.1,155,210.1,156.9,210.1,157.4z M216.2,130.6
			c0.1-0.1,0.1-0.2,0.1-0.3c-1.2-11.2-1.4-22.1-1.1-23.5c0.1,0,0.1-0.1,0.1-0.1c0.2-0.2,0.3-0.4-1.6-3.6c-0.1-0.2-0.3-0.2-0.5-0.1
			c-0.2,0.1-0.2,0.3-0.1,0.5c0.7,1,1.4,2.3,1.6,2.8c-0.2,0.2-0.4,1.2-0.2,7.9c0.2,4.5,0.5,9.8,1,14.6l-5.6,24.1l-9.7-0.9l4.9-37.5
			c0.4-11.5,4.2-21.8,8.8-23.2c1.2-0.4,4.5-1.3,8.6-2c0,0.1,0,0.2,0,0.2c0.1,0.4,3,10.2,8.6,13.1c0.2,0.1,0.4,0.2,0.6,0.2
			c0.7,0,1.7-0.4,3.5-3.4c0.2-0.4,0.4-0.7,0.6-1.1l-0.6,41.5h-2.1c-0.4,0-0.7,0.2-0.9,0.5c-4.4-0.1-8.7-0.2-11.6-0.4
			C218.6,139.8,217,134.1,216.2,130.6z M231.9,141.1v2c-7.3-0.2-12.4-0.7-12.5-0.7c-0.1,0-0.1,0-0.2,0c0.1-0.8,0.3-1.4,0.4-2
			c0.3,0.2,0.6,0.2,0.8,0.3C223.4,140.9,227.6,141,231.9,141.1z M219.2,142.9c0.1,0,0.1,0.1,0.2,0.1c0,0,1.7,0.2,4.4,0.4
			c0,1.5-0.6,2.9-1.6,3.8c-1,0.9-2.2,1.3-3.7,1.1c0,0,0,0-0.1,0C218.6,146.3,218.9,144.4,219.2,142.9z M232.7,228.2
			c-1.4,4.6-5.9,9.2-8.1,9.2c-0.1,0-0.3,0-0.4-0.1c-2.1-0.7-2.1-4.7-0.5-9.6c0.4-1.2,0.8-2.3,1.3-3.2l8.3,0
			C233.3,225.6,233.1,226.8,232.7,228.2z M246.7,227.8c1.5,4.9,1.6,8.9-0.5,9.6c-0.1,0-0.3,0.1-0.4,0.1c-2.3,0-6.7-4.6-8.1-9.2
			c-0.4-1.4-0.6-2.6-0.5-3.7l8.3,0C245.9,225.5,246.4,226.6,246.7,227.8z M251.3,171.6c-1,11-4.6,52.2-4.6,52.2l-11.6,0l-0.2-68.5
			c0.1,0,0.2,0,0.4,0c0.9,0,1.8-0.1,2.4-0.3c0.2-0.1,0.3-0.3,0.2-0.4c-0.1-0.2-0.3-0.3-0.4-0.2c-1.5,0.5-5.8,0-5.8,0
			c-0.2,0-0.4,0.1-0.4,0.3c0,0.2,0.1,0.4,0.3,0.4c0.1,0,1.3,0.2,2.7,0.2l0.2,68.5l-10.8,0c0,0-4.4-43.2-5.6-54.4
			c-0.8-7.6-0.4-14.9,0.2-20.5c0,0,0,0,0.1,0c0.2,0,0.4,0,0.6,0c1.4,0,2.6-0.5,3.6-1.3c1.1-1,1.8-2.6,1.9-4.3c2,0.1,4.6,0.3,7.5,0.3
			c0.2,0.4,0.6,0.8,1.1,0.8h5.2c0.5,0,0.9-0.3,1.1-0.8c1.8,0,3.6-0.1,5.5-0.2c0.1,1.6,0.8,3.1,1.8,4.1c1,0.9,2.2,1.3,3.6,1.3
			c0.2,0,0.4,0,0.6,0c0.2,0,0.3-0.1,0.3-0.3C251.8,154.3,252.2,162.1,251.3,171.6z M239.4,143.1v-1.9c3.4,0,8-0.1,9.7-0.5
			c0.3-0.1,0.5-0.2,0.8-0.4c0.1,0.6,0.3,1.3,0.4,2.2c0,0,0,0,0,0C246.6,142.8,242.9,143,239.4,143.1z M251.2,148.5
			c-0.1-0.1-0.2-0.2-0.3-0.2c-1.5,0.1-2.7-0.3-3.7-1.1c-1-0.9-1.6-2.2-1.6-3.6c1.6-0.1,3.2-0.2,4.8-0.4c0,0,0.1,0,0.1,0
			C250.7,144.5,251,146.3,251.2,148.5z M255.3,152.7l-2.9-16.9c0,0,0,0,0-0.1c2.8-11.9,3-27.4,2.3-28.9c0.2-0.4,1-1.5,1.7-2.4
			c0.1-0.2,0.1-0.4-0.1-0.5c-0.2-0.1-0.4-0.1-0.5,0.1c-2.1,2.8-2,3-1.8,3.2c0,0,0.1,0.1,0.1,0.1c0.4,1.7,0.4,16.3-2.4,28.3
			c0,0.1,0,0.3,0.1,0.4c-0.6,1.4-1.7,3.7-2.9,3.9c-1.5,0.3-5.2,0.4-9.7,0.5c-0.2-0.3-0.6-0.5-1-0.5h-2.4l0.6-41.2
			c0.8,1.7,2,3.8,3.7,4.4c0.1,0,0.2,0,0.3,0c0.4,0,2.5-0.3,5.9-6.3c1.5-2.7,2.4-6,2.6-6.8c4.1,1.1,7.8,2.6,10.6,4.2
			c2.3,1.4,5.9,9.3,5.3,21l0.9,36.8L255.3,152.7z M266.5,164.8c-0.2,0-0.5-0.1-0.7-0.3c-0.4-0.5-0.8-2.5-1.1-3.9l0,0l0.2,5.8
			c0,0-0.2,0.1-0.4,0.1c-0.3,0-0.8-0.1-1.1-0.7c-0.4-0.9-0.8-3.3-0.9-4.9h-0.1l-0.1,6.6c0,0-0.2,0.1-0.4,0.1c-0.3,0-0.8-0.1-1.1-0.7
			c-0.5-1-0.7-4.3-0.7-5.6h-0.1l-0.3,6.1c0,0-0.1,0-0.2,0c-0.3,0-0.7-0.1-1.1-0.7c-0.6-0.9-0.5-5.2-0.5-5.2c0,0,0,0,0,0l-0.6-1.7
			c-0.1,0.9-0.1,1.9-0.3,2.2c-0.5,1.1-1.1,1.3-1.5,1.3c-0.4,0-0.6-0.1-0.6-0.1s0.7-2.5,0.7-5.2c0-0.6,1.9-3.8,2.3-4.6l4.3-0.3v0.1
			l3.9,7l1,4.6C267.1,164.7,266.8,164.8,266.5,164.8z"/>
	</g>
</g>
</svg>
