<?xml version="1.0" encoding="utf-8"?>
<!-- Generator: Adobe Illustrator 23.1.0, SVG Export Plug-In . SVG Version: 6.00 Build 0)  -->
<svg version="1.1" id="Слой_1" xmlns="http://www.w3.org/2000/svg" xmlns:xlink="http://www.w3.org/1999/xlink" x="0px" y="0px"
	 viewBox="0 0 283.5 283.5" style="enable-background:new 0 0 283.5 283.5;" xml:space="preserve">
<style type="text/css">
	.st0{fill:#B2B2B2;}
	.st1{fill:#177B3F;}
	.st2{fill:#FBC595;}
	.st3{fill:#C66BA4;}
	.st4{fill:none;stroke:#000000;stroke-width:1.9725;stroke-linecap:round;stroke-linejoin:round;stroke-miterlimit:10;}
	.st5{fill:#EF4E6D;}
</style>
<g>
	<path class="st0" d="M182.4,53.3c0,14.6-14.1,26.3-31.5,26.3s-31.7-10.5-31.5-26.3c0.2-14.6,14.1-26.8,31.5-26.8
		S182.4,38.7,182.4,53.3z"/>
	<path class="st1" d="M141,258.3c0,6.6-2.1,12-5.1,12c-3.1,0-6.8-6.1-6-12.7c1-9.1,3.6-11.8,5.8-12C137.9,245.3,141,251.6,141,258.3
		z"/>
	<path class="st2" d="M126.3,215.2c0,0,2.4,18.7,6.5,30.4c0,0-2,10.8-1.4,13.4c0.9,3.6,8.2,4.8,8.4-1.9c0.1-3.3-1.9-11.3-1.9-11.3
		s5.7-22.6,6-29.9L126.3,215.2z"/>
	<path class="st1" d="M171.2,258.1c0,6.6-2.4,12.4-5.8,12.5c-2.6,0.1-6.2-4.5-5.7-13c0.5-9.1,3.6-11.8,5.8-12
		S171.2,251.4,171.2,258.1z"/>
	<path class="st2" d="M156.1,215.2c0,0,2.4,18.7,6.5,30.4c0,0-2,10.8-1.4,13.4c0.9,3.6,8.2,4.8,8.4-1.9c0.1-3.3-1.9-11.3-1.9-11.3
		s5.7-22.6,6-29.9L156.1,215.2z"/>
	<path class="st3" d="M195.4,155.1l-14.1,4.1l2.1,56.6c0,0-7.9,2.4-32.6,3.1c-17.2,0.5-35-2.7-35-2.7l3.1-57.3l-14.1-2.7
		c0,0,4.6-44.1,21.3-68.3c6-8.8,13.3-13.9,23-14.8c10.1-0.9,19.2,3.1,25.2,11.5C191.1,107.9,195.4,155.1,195.4,155.1z"/>
	<path class="st4" d="M114.8,174.7"/>
	<path class="st2" d="M105.1,170.5c0.6-1.8,1.7-3.3,2.4-5c0.6-1.5,1.3-7.4,1.3-7.4l6,1c0,0-1.4,4.5-1.5,5.1c-0.1,1,0.3,2.1,0.8,2.9
		c2.8,4.2,1.5,6.8,3.3,9.8c1.6,2.7,0.5,3.9-1.2,1.7c-1-1.3-1.8-3.5-2.5-5c-1.3,3.7-1.1,10.6-1.2,11.7c-0.4,2.4-1.8,2.1-2,0l0.2-8.7
		l-1.3,10.6c-0.3,1.6-1.6,1.6-1.8,0.1l0.3-11l0,0.1l-1.4,8.1c-0.2,2-1.9,2.6-1.8-1.3l0.6-7.3l-1.9,6.1c-0.1,0.5-0.5,0.9-1,0.8
		C101.9,182.8,100.8,182.9,105.1,170.5z"/>
	<path class="st2" d="M194.5,170.4c-0.4-1.8-1.3-3.5-1.9-5.2c-0.5-1.6-0.4-8-0.4-8l-6.3,1.7c0,0,1,3.8,1,4.4c0,1-0.5,2.1-1.1,2.8
		c-3.1,3.9-2.1,6.6-4.2,9.4c-1.8,2.5-0.8,3.8,1,1.8c1.2-1.2,2.1-3.3,3-4.7c0.9,3.8,0,10.7,0.1,11.8c0.1,2.5,1.6,2.3,2,0.2l0.6-8.7
		l0.2,10.7c0.2,1.6,1.4,1.7,1.8,0.3l0.8-11l0,0.1l0.5,8.2c0,2.1,1.6,2.8,1.9-1.1l0.1-7.3l1.3,6.3c0.1,0.5,0.4,0.9,0.9,0.9
		C196.5,182.9,197.6,183.1,194.5,170.4z"/>
	<circle class="st5" cx="124.9" cy="62.3" r="1.8"/>
	<circle class="st5" cx="177" cy="61.6" r="1.8"/>
	<path class="st2" d="M180,52.1c-0.8-0.8-2.6-1.2-4-0.1c-1.8-12.1-12.3-22.7-24.7-22.7c-12.9,0-24,10.8-25.1,23.6
		c-1.6-1-3.3-1.1-4.3-0.1c-1.2,1.2-0.7,3.7,1.1,5.6c1.1,1.1,2,2,3.2,2.1c1.8,8.7,8.3,16.3,16.4,19.5c0.7,4.9,3.6,12.5,8.7,12.5
		c5.9,0,7.8-7.6,8.5-12.4c8.4-3.3,14.9-11.1,16.1-20.5c0.8-0.3,1.9-1.1,2.6-1.8C180.5,55.9,181.1,53.2,180,52.1z"/>
	<g>
		<path d="M148.3,62c0-0.9,1-1.7,2.2-1.7c1.2,0,2.2,0.8,2.2,1.7c0,0.3,0.2,0.5,0.5,0.5s0.5-0.2,0.5-0.5c0-1.5-1.5-2.7-3.3-2.7
			s-3.3,1.2-3.3,2.7c0,0.3,0.2,0.5,0.5,0.5C148,62.6,148.3,62.3,148.3,62z"/>
		<path d="M138.9,47c0.1,0,0.2,0,0.3-0.1c1.5-1.2,3.1-1.6,4.9-1.4c0.3,0,0.5-0.2,0.6-0.4c0-0.3-0.2-0.5-0.4-0.6
			c-2-0.3-3.9,0.3-5.6,1.6c-0.2,0.2-0.3,0.5-0.1,0.7C138.5,46.9,138.7,47,138.9,47z"/>
		<path d="M156.9,45.5c1.8-0.2,3.4,0.2,4.9,1.4c0.1,0.1,0.2,0.1,0.3,0.1c0.2,0,0.3-0.1,0.4-0.2c0.2-0.2,0.1-0.5-0.1-0.7
			c-1.7-1.3-3.6-1.9-5.6-1.6c-0.3,0-0.5,0.3-0.4,0.6C156.4,45.3,156.6,45.5,156.9,45.5z"/>
		<path d="M149.1,40.3c0.9-0.4,1.8-0.3,2.8,0.1c0.1,0,0.1,0,0.2,0c0.2,0,0.4-0.1,0.5-0.3c0.1-0.3,0-0.6-0.3-0.7
			c-1.2-0.5-2.4-0.5-3.6-0.1c-0.3,0.1-0.4,0.4-0.3,0.7C148.5,40.3,148.8,40.4,149.1,40.3z"/>
		<path d="M156.8,66.7c-0.2-0.2-0.5-0.2-0.7,0.1c-0.2,0.2-0.2,0.5,0.1,0.7c0.5,0.4,0.9,0.9,1.1,1.4c0,0,0,0,0,0
			c-1.5,2.1-4,3.4-6.6,3.4c-2.6,0-5.1-1.3-6.6-3.4c-0.1-0.1-0.1-0.1-0.2-0.2c0.3-0.4,0.6-0.8,1-1.2c0.2-0.2,0.2-0.5,0-0.7
			c-0.2-0.2-0.5-0.2-0.7,0c-1.2,1.1-1.9,2.4-2,4c0,0.3,0.2,0.5,0.5,0.5c0,0,0,0,0,0c0.3,0,0.5-0.2,0.5-0.5c0-0.4,0.1-0.7,0.2-1.1
			c1.7,2.3,4.4,3.6,7.3,3.6c2.7,0,5.3-1.2,7-3.3c0.1,0.2,0.1,0.5,0.1,0.7c0,0.3,0.2,0.5,0.5,0.5c0,0,0,0,0.1,0
			c0.3,0,0.5-0.3,0.5-0.6C158.7,69,158,67.7,156.8,66.7z"/>
		<path d="M143.5,55.4c1.2-0.1,2.1-1.4,2-2.8c-0.1-1-0.7-1.8-1.4-2.2c-0.2-0.2-0.5-0.2-1-0.2c-2.7,0.3-4.4,3.1-4.4,3.1l2.4-0.1
			C141.3,54.6,142.3,55.5,143.5,55.4z"/>
		<path d="M158.2,55.4c1.2,0.1,2.2-0.9,2.4-2.2l2.4,0.1c0,0-1.6-2.8-4.4-3.1c-0.5-0.1-0.9,0-1,0.2c-0.8,0.4-1.3,1.2-1.4,2.2
			C156.1,54,157,55.3,158.2,55.4z"/>
		<path d="M166.3,48.6h-13c-0.3,0-0.5,0.2-0.5,0.5c0,1.1,0.1,2.1,0.2,3.1c-1.7-0.7-3.9-0.3-5,0c0.1-1.1,0.2-2.3,0.2-3.1
			c0-0.3-0.2-0.5-0.5-0.5h-13c-0.3,0-0.5,0.2-0.5,0.5c0,3.7,0.8,6.2,2.3,7.8c1.1,1.1,2.5,1.6,4.2,1.6c0,0,0.1,0,0.1,0h0.6
			c0,0,0,0,0,0c4.2-0.1,5.8-2.5,6.3-5.1c0.6-0.2,3.5-1,5.3,0c0.1,0,0.1,0.1,0.2,0.1c0.4,1.5,1,2.6,1.8,3.5c1.1,1.1,2.5,1.6,4.2,1.6
			c0,0,0.1,0,0.1,0h0.6c0,0,0,0,0,0c6.7-0.1,6.7-6.3,6.7-9.4C166.8,48.8,166.6,48.6,166.3,48.6z M141.5,57.4h-0.6
			c-1.5,0-2.8-0.4-3.7-1.3c-1.3-1.3-1.9-3.4-2-6.5h11.9C147.1,53.4,146.5,57.3,141.5,57.4z M160.1,57.4h-0.6c-1.5,0-2.8-0.4-3.7-1.3
			c-1.3-1.3-1.9-3.4-2-6.5h11.9C165.7,53.4,165.1,57.3,160.1,57.4z"/>
	</g>
	<path class="st0" d="M166.1,25.4c0,7.6-30.1,7.6-30.1,0s6.7-14.1,15.1-14.1C159.4,11.3,166.1,17.8,166.1,25.4z"/>
	<path class="st0" d="M182.5,51.3c0,0,0-4.4-1.1-9.5c-0.9-4.5-8.3-19-27.1-19.6c-5.6-0.2-5.2,3.4-3.5,6.9
		C160.3,48.8,182.5,51.3,182.5,51.3z"/>
	<path class="st0" d="M153.8,22.3c0,0-10.1-3.1-20.7,4.2c-11.3,7.8-14.5,25.2-14.5,25.2s9.4,1.5,22.6-10.1
		C152.1,31.9,153.8,22.3,153.8,22.3z"/>
	<path d="M195.5,170.1c-0.3-1.1-0.7-2.2-1.1-3.2c-0.3-0.7-0.6-1.4-0.8-2.1c-0.3-1-0.4-5.2-0.3-7.6c0,0,0,0,0-0.1
		c0-0.1,0-0.2-0.1-0.4l2.4-0.7c0.5-0.1,0.8-0.6,0.7-1.1c0-0.1-1.1-12-4.3-26.6c-2.9-13.5-8.2-32.2-17-44.4c-2.1-3-4.7-5.4-7.5-7.3
		c9.4-4.8,15.7-13.5,15.7-23.4c0-0.4,0-0.9,0-1.3c0.1-0.2,0.2-0.4,0.2-0.6c0-0.2,0-4.6-1.1-9.7c-0.5-2.2-2.5-7.2-7.1-11.8
		c-1.9-1.9-4.7-4.1-8.3-5.7c-0.3-3.5-1.9-6.8-4.6-9.3c-3.1-2.9-7.1-4.5-11.4-4.5c-4.3,0-8.3,1.6-11.4,4.5c-2.7,2.5-4.3,5.8-4.6,9.3
		c-0.9,0.5-1.7,1-2.6,1.6c-11.6,7.9-14.8,25.1-14.9,25.8c0,0.3,0,0.6,0.2,0.8c0.2,0.2,0.4,0.4,0.7,0.4c0,0,0,0,0,0
		c0,0.2,0,0.4,0,0.6c-0.1,6.8,2.4,13,7.2,17.8c2.5,2.6,5.7,4.7,9.2,6.2c-3.4,2.5-6.6,5.8-9.5,9.9c-8.7,12.6-14.1,30.6-17,43.6
		c-3.2,14-4.4,25.1-4.4,25.2c-0.1,0.5,0.3,1,0.8,1.1l3.2,0.6c0,0.1,0,0.1,0,0.1c-0.2,2.2-0.8,6.1-1.2,7.1c-0.3,0.7-0.6,1.3-1,2
		c-0.5,1-1,2-1.4,3.1c-3.6,10.4-3.5,12.1-3,13c0.3,0.6,0.8,0.7,1,0.7c0.2,0,0.3,0.1,0.5,0.1c0.4,0,0.7-0.1,1-0.3
		c0,1.5,0.3,2.6,0.8,3.1c0.3,0.3,0.7,0.5,1.1,0.5c0.4,0,0.7-0.1,1-0.4l0,0.5c0,0.1,0,0.1,0,0.2c0.3,1.4,1.2,2,1.9,2
		c0.7,0,1.6-0.5,1.9-1.9c0.3,0.3,0.7,0.4,1.1,0.4c0.4,0,1.7-0.2,2.1-2.6c0-0.3,0.1-0.9,0.1-1.9c0-1.7,0.1-4.4,0.5-6.8
		c0.4,0.9,0.8,1.7,1.4,2.4c0.5,0.6,0.9,1,1.4,1.3l-1.9,35.6c0,0.5,0.3,1,0.8,1.1c0.1,0,4.1,0.7,10.1,1.4c0.9,5.9,3,18.3,6,27
		c-0.1,0.4-0.2,1.3-0.4,2.3c-1.1,2-2,5-2.5,9.5c-0.6,5,1.3,9.5,3.3,11.9c1.2,1.3,2.5,2,3.7,2c3.6,0,6.2-5.3,6.2-13
		c0-4-1.1-8-2.6-10.7c-0.2-0.8-0.3-1.5-0.4-1.9c0.5-2.2,4.2-17,5.5-25.7c0.9,0,1.8,0,2.7,0c1.2,0,2.4,0,3.6,0c1.7,0,3.4-0.1,4.9-0.2
		c1,6.2,3,17.7,5.8,25.8c-0.1,0.4-0.2,1-0.3,1.9c-1.2,1.9-2.3,5-2.6,10c-0.3,5.3,0.9,10,3.3,12.5c1,1.1,2.2,1.7,3.3,1.7
		c0.1,0,0.1,0,0.2,0c4.5-0.2,6.8-7,6.8-13.6c0-4.1-1.3-8.3-3.1-11c-0.1-0.6-0.3-1.1-0.3-1.4c0.6-2.3,4.7-18.9,5.7-27.3
		c6.4-0.8,8.9-1.5,9.1-1.6c0.4-0.1,0.7-0.6,0.7-1l-1.4-37.3c0.1-0.1,0.3-0.2,0.4-0.4c0.6-0.6,1.1-1.4,1.6-2.3
		c0.1,2.4-0.1,5.1-0.2,6.8c-0.1,1-0.1,1.6-0.1,1.9c0.1,2.1,1.1,2.8,1.9,2.8c0.3,0,0.6-0.1,1-0.3c0.2,1.5,1.1,2,1.9,2
		c0.7,0,1.5-0.5,1.9-1.8c0-0.1,0-0.1,0-0.2l0-0.5c0.3,0.3,0.7,0.5,1.1,0.5c0.8,0,1.8-0.6,2.1-3.4c0.3,0.3,0.7,0.4,1.1,0.4
		c0.1,0,0.2,0,0.3,0c0.2,0,0.7-0.1,1.1-0.6C197.8,182.5,198.1,180.9,195.5,170.1z M151.2,81.3c-13.6,0-25-12.4-25-26.3
		c0-1.2,0.1-2.3,0.2-3.4c4-1.3,9.3-3.9,15.3-9.2c4.3-3.8,7.2-7.6,9.2-10.8c5.1,9.2,12.9,14.3,18.8,17c1.9,0.9,3.8,1.6,5.4,2.1
		c0.4,1.8,0.6,3.6,0.6,5.5C175.8,70,164.8,81.3,151.2,81.3z M159.9,80.7c-0.7,4.8-2.8,11.8-8.4,11.8c-4.9,0-7.8-6.8-8.6-11.7
		c2.7,1,5.5,1.5,8.3,1.5C154.2,82.3,157.2,81.7,159.9,80.7z M125.3,52.6c-0.1,0.8-0.1,1.6-0.1,2.3c0,1.5,0.1,3.1,0.4,4.6
		c-0.1,0-0.3-0.1-0.4-0.1c-0.5-0.3-1.1-0.7-1.6-1.2c-1.9-1.9-2.5-4.3-1.3-5.4c0.2-0.2,0.4-0.3,0.6-0.4c0.3,0,0.5-0.1,0.8-0.2
		c0,0,0.1,0,0.1,0C124.2,52.3,124.8,52.4,125.3,52.6z M124.7,52.1c0.2-0.1,0.4-0.1,0.6-0.2c0,0.1,0,0.2,0,0.3
		C125.1,52.2,124.9,52.1,124.7,52.1z M124.8,60.5c0.4,0,0.7,0.1,1,0.3c0.2,0.8,0.4,1.5,0.6,2.3c-0.3,0.6-0.8,1-1.5,1
		c0,0-0.1,0-0.1,0c-0.9,0-1.7-0.7-1.8-1.7c-0.1-1,0.7-1.8,1.7-1.9C124.8,60.5,124.8,60.5,124.8,60.5z M169.3,74.6
		c2.8-2.9,5-6.5,6.2-10.5c0.3,0.2,0.7,0.3,1.1,0.3c0.1,0,0.1,0,0.2,0c1.5,0,2.7-1.2,2.8-2.7c0-0.8-0.2-1.5-0.7-2.1
		c-0.2-0.3-0.5-0.5-0.8-0.6c0.2-0.2,0.5-0.4,0.7-0.6c1-1,1.8-2.3,2.1-3.5c0.3-1.1,0.1-2.2-0.4-3c0.8,0.2,1.4,0.2,1.6,0.3
		c0,0.3,0,0.6,0,0.9C182.3,62,177.2,69.8,169.3,74.6z M176.5,52.1c0.5-0.2,1.1-0.3,1.5-0.3c0.6,0,1.1,0.2,1.5,0.6
		c1.1,1.1,0.5,3.6-1.3,5.4c-0.4,0.4-0.8,0.7-1.3,1c0,0,0,0,0,0c-0.1,0-0.2,0-0.2,0c0.1-0.9,0.1-1.8,0.1-2.6
		C176.8,54.8,176.7,53.4,176.5,52.1z M176.3,51.2c0-0.1,0-0.1,0-0.2c0.1,0,0.2,0.1,0.3,0.1C176.5,51.1,176.4,51.1,176.3,51.2z
		 M176.5,59.9c0.1,0,0.2,0,0.4,0c0,0,0.1,0,0.1,0c1,0.1,1.7,0.9,1.7,1.9c-0.1,1-0.9,1.7-1.8,1.7c0,0-0.1,0-0.1,0
		c-0.3,0-0.6-0.1-0.9-0.3C176.2,62,176.4,61,176.5,59.9z M181.4,41.8c1.1,5.1,1.1,9.5,1.1,9.5s-21.2-2.5-31-20.8
		c2.6-4.6,3.2-7.8,3.2-8.1c0-0.1,0-0.1,0-0.2C173.3,23,180.5,37.3,181.4,41.8z M151,11.3c7.6,0,13.9,5.5,14.9,12.3
		c-3.2-1.3-7-2.3-11.6-2.4c-0.3,0-0.2,0.1-0.3,0.1c-0.1,0-2.3-0.7-5.7-0.7c-3.1,0-7.5,0.6-12.2,2.9C137.2,16.7,143.4,11.3,151,11.3z
		 M122,40.8c0.3-0.5,0.6-1,0.9-1.4c0.1-0.2,0.2-0.4,0.3-0.7c-0.3,0.5-0.7,1-1,1.4c2.3-4.9,5.7-10.2,10.7-13.6
		c5.8-4,11.4-4.9,15.4-4.9c3.3,0,5.4,0.6,5.4,0.6s-1.7,9.6-12.7,19.3c-10.4,9.2-18.5,10.1-21.4,10.1c-0.8,0-1.2-0.1-1.2-0.1
		S119.4,46.6,122,40.8z M119.4,53.3c0-0.2,0-0.4,0-0.5c0.1,0,0.2,0,0.3,0c0.4,0,0.9,0,1.4-0.1c-1,1.6-0.3,4.3,1.8,6.3
		c0.3,0.3,0.5,0.5,0.8,0.7c-1,0.5-1.7,1.5-1.7,2.7c0.1,1.5,1.3,2.7,2.8,2.7c0.1,0,0.1,0,0.2,0c0.7,0,1.3-0.3,1.8-0.8
		c1.3,3.6,3.3,6.9,6,9.7c0.9,0.9,1.8,1.8,2.8,2.6C125.9,72.5,119.2,64.1,119.4,53.3z M116.1,178.6c-1-1.3-1.8-3.5-2.5-5
		c-1.3,3.7-1.1,10.6-1.2,11.7c-0.2,1.2-0.6,1.7-1,1.7c-0.5,0-0.9-0.6-1-1.7l0.2-8.7l-1.3,10.6c-0.2,0.8-0.6,1.2-0.9,1.2
		c-0.4,0-0.7-0.4-0.9-1.1l0.3-11l0,0.1l-1.4,8.1c-0.1,1-0.5,1.6-0.9,1.6c-0.5,0-0.9-0.8-0.8-2.9l0.6-7.3l-1.9,6.1
		c-0.1,0.4-0.4,0.8-0.8,0.8c-0.1,0-0.1,0-0.2,0c-0.5-0.1-1.6,0,2.7-12.4c0.6-1.8,1.7-3.3,2.4-5c0.6-1.5,1.3-7.4,1.3-7.4l2.9,0.5
		l3.1,0.6c-0.2,0.6-1.4,4.5-1.5,5.1c-0.1,1,0.3,2.1,0.8,2.9c2.8,4.2,1.5,6.8,3.3,9.8c1,1.7,0.9,2.8,0.3,2.8
		C117.3,179.7,116.7,179.4,116.1,178.6z M115.8,159.4C115.8,159.4,115.8,159.3,115.8,159.4l2.1,0.4l-0.7,12.7
		c-0.3-1.7-0.6-3.6-2.2-6c-0.5-0.7-0.7-1.6-0.6-2.2C114.4,164,115.1,161.5,115.8,159.4z M141,258.3c0,6.6-2.1,12-5.1,12
		c-3.1,0-6.8-6.1-6-12.7c0.2-1.7,0.4-3.2,0.7-4.4c-0.3,2.5-0.5,4.9-0.2,6.1c0.5,2.1,2.8,3.7,5.3,3.7c2.3,0,5.1-1.5,5.2-5.8
		c0-0.8-0.1-1.7-0.2-2.8C140.9,255.5,141,256.9,141,258.3z M137.9,245.7c0,0,2,8,1.9,11.3c-0.1,3.5-2.1,4.8-4.1,4.8
		c-1.9,0-3.8-1.2-4.3-2.9c-0.6-2.5,1.4-13.4,1.4-13.4c-3-8.5-5.1-20.8-6-26.8c4.8,0.5,10.6,1,16.7,1.2
		C142,229.3,137.9,245.7,137.9,245.7z M171.2,258.1c0,6.6-2.4,12.4-5.8,12.5c0,0-0.1,0-0.1,0c-2.6,0-6.1-4.6-5.6-13.1
		c0.1-2.5,0.5-4.5,0.9-6.1c-0.4,3-0.7,6.3-0.4,7.7c0.5,2.1,2.8,3.7,5.3,3.7c2.3,0,5.1-1.5,5.2-5.8c0-1.5-0.3-3.8-0.7-5.9
		C170.7,253.2,171.2,255.6,171.2,258.1z M167.8,245.7c0,0,2,8,1.9,11.3c-0.1,3.5-2.1,4.8-4.1,4.8c-1.9,0-3.8-1.2-4.3-2.9
		c-0.6-2.5,1.4-13.4,1.4-13.4c-2.8-8.1-4.9-19.5-5.9-25.8c7.2-0.3,12.7-0.8,16.7-1.2C172.3,227.5,167.8,245.7,167.8,245.7z
		 M183.4,215.9c0,0-7.9,2.4-32.6,3.1c-1.2,0-2.4,0-3.6,0c-16,0-31.4-2.8-31.4-2.8l1.9-35.5c0.5,0,0.9-0.3,1.2-0.7
		c0.5-0.8,0.2-2.1-0.7-3.6c-0.1-0.2-0.2-0.3-0.3-0.5l0.8-15.5c0-0.1,0.1-0.1,0.1-0.2c4.2-35.9,10.5-54.3,10.6-54.4
		c0.1-0.3,0-0.6-0.3-0.7c-0.3-0.1-0.6,0-0.7,0.3c-0.1,0.2-6.3,18.2-10.5,53.4l-2.7-0.5c-0.1-0.1-0.2-0.1-0.4-0.1l-3.1-0.5l-7-1.4
		c0,0,4.6-44.1,21.3-68.3c2.9-4.2,6.1-7.6,9.7-10.1c0.3,0.1,0.7,0.3,1,0.4c0.5,0.2,1.5,0.3,1.8,0.5c1,0.6,2,1.1,3.1,1.6
		c0.2,1.2,0.4,2.2,0.5,2.6c0.6,2.5,3.2,10.6,9.2,10.6c2.7,0,6.3-1.4,8.4-8.1c0.6-1.8,0.9-3.7,1.1-5.1c1.8-0.8,3.5-1.7,5-2.8
		c0.2-0.1,0.4-0.2,0.6-0.3c2.9,1.9,5.6,4.3,7.8,7.4c16.8,23.3,21.1,70.5,21.1,70.5l-7,2.1l-2.7,0.7c-0.1,0-0.2,0.1-0.3,0.1l-3.1,0.9
		c-2.3-35.3-7.5-53.6-7.6-53.8c-0.1-0.3-0.4-0.4-0.6-0.4c-0.3,0.1-0.4,0.4-0.4,0.6c0.1,0.2,5.3,18.7,7.6,54.6l0.5,13.1
		c-0.2,0.6-0.5,1.3-1,1.9c-1.1,1.5-1.4,2.7-1,3.6c0.3,0.5,0.8,0.8,1.3,0.8c0.3,0,0.5-0.1,0.8-0.2L183.4,215.9z M182.4,160l2.6-0.8
		c0.5,1.7,1,3.7,1,4.1c0,0.6-0.3,1.5-0.8,2.1c-1.3,1.6-2,3.1-2.4,4.4l-0.3-9.5c0,0,0,0,0-0.1C182.4,160.2,182.4,160.1,182.4,160z
		 M196,183c0,0-0.1,0-0.1,0c-0.4,0-0.7-0.4-0.8-0.9l-1.3-6.3l-0.1,7.3c-0.1,2-0.6,2.8-1.1,2.8c-0.4,0-0.8-0.7-0.8-1.7l-0.5-8.2
		l0-0.1l-0.8,11c-0.2,0.7-0.6,1-0.9,1c-0.4,0-0.8-0.4-0.9-1.3l-0.2-10.7l-0.6,8.7c-0.2,1-0.7,1.6-1.1,1.6c-0.4,0-0.8-0.6-0.9-1.8
		c-0.1-1.1,0.8-8-0.1-11.8c-0.9,1.4-1.9,3.5-3,4.7c-0.6,0.7-1.2,1-1.5,1c-0.7,0-0.7-1.1,0.5-2.8c2.1-2.8,1.1-5.6,4.2-9.4
		c0.6-0.7,1.1-1.8,1.1-2.8c0-0.6-0.9-3.9-1-4.4l2.7-0.8l3.7-1c0,0-0.1,6.4,0.4,8c0.5,1.8,1.4,3.4,1.9,5.2
		C197.6,183.1,196.5,182.9,196,183z"/>
</g>
</svg>
