<?xml version="1.0" encoding="utf-8"?>
<!-- Generator: Adobe Illustrator 22.1.0, SVG Export Plug-In . SVG Version: 6.00 Build 0)  -->
<svg version="1.1" id="Слой_4" xmlns="http://www.w3.org/2000/svg" xmlns:xlink="http://www.w3.org/1999/xlink" x="0px" y="0px"
	 viewBox="0 0 512 512" style="enable-background:new 0 0 512 512;" xml:space="preserve">
<style type="text/css">
	.st0{fill:#DFD977;stroke:#000000;stroke-width:2;stroke-linecap:round;stroke-linejoin:round;stroke-miterlimit:10;}
	.st1{fill:#634940;stroke:#000000;stroke-width:2;stroke-linecap:round;stroke-linejoin:round;stroke-miterlimit:10;}
	.st2{fill:#FDCD95;stroke:#000000;stroke-width:2;stroke-linecap:round;stroke-linejoin:round;stroke-miterlimit:10;}
	.st3{fill:none;stroke:#000000;stroke-width:2;stroke-linecap:round;stroke-linejoin:round;stroke-miterlimit:10;}
	.st4{fill:#FDC663;stroke:#000000;stroke-width:1.8703;stroke-linecap:round;stroke-linejoin:round;stroke-miterlimit:10;}
	.st5{fill:#FDCD95;stroke:#000000;stroke-width:1.8703;stroke-linecap:round;stroke-linejoin:round;stroke-miterlimit:10;}
	.st6{fill:#97B043;stroke:#000000;stroke-width:2;stroke-linecap:round;stroke-linejoin:round;stroke-miterlimit:10;}
	.st7{fill:none;stroke:#000000;stroke-width:1.8703;stroke-linecap:round;stroke-linejoin:round;stroke-miterlimit:10;}
	.st8{fill:#FFFFFF;}
	.st9{fill:none;stroke:#D16B8C;stroke-width:5;stroke-linecap:round;stroke-linejoin:round;stroke-miterlimit:10;}
</style>
<g>
	<path class="st0" d="M199.7,457.8c0,0-2.5,17-18,24.8s7,15.5,12.3,12.3c2.8-1.7,16.9-9.4,21.6-10.9s8.8-5.8,1.6-26.1
		C210,437.5,199.7,457.8,199.7,457.8z"/>
	<path class="st0" d="M239.4,456.5l-2,19.9c-0.4,4.1,2.2,8,6.2,8.7c0.4,0.1,0.9,0.1,1.3,0.1c4.5,0,10,3,14.7,6
		c4.8,3,28.3,6.3,28.8-1.8s-12.9-10.5-19.1-17.6s-9.7-9.1-11.2-20.6S239.4,456.5,239.4,456.5z"/>
	<path class="st1" d="M186.6,253c0,0-10,12-4.8,49.3s12.8,156.8,12.8,156.8s10.3,11.8,25,0l5.2-143.6L237.1,459
		c0,0,10.1,10,24.4-1.3c0,0,17.7-191.8,0-205.6c-17.7-13.8-47.1-12.4-47.1-12.4L186.6,253z"/>
	<g>
		<path class="st2" d="M164.1,257.4c0,0-3.6,16.8-3.2,28.3c0.1,2.4,0.5,4.7,1.4,6.9c1.1,2.8,3,5.3,5.2,1c0,0,4.8,16.5,6.8,4.4
			c0,0,10.3,13.6,5.5-14.4c0,0,7,18.8,7.4,9.2c0.1-2-0.3-4-0.9-5.9c-1.4-4.4-4-13.5-0.1-11.1c0,0,4.4,3.9,5,0.5
			s-17.4-19.5-17.4-19.5L164.1,257.4z"/>
		<path class="st3" d="M168.2,284c0,0-0.6,4-0.8,9.6"/>
		<line class="st3" x1="172.9" y1="285.3" x2="174.2" y2="298"/>
	</g>
	<g>
		<path class="st2" d="M281.3,257.4c0,0,3.6,16.8,3.2,28.3c-0.1,2.4-0.5,4.7-1.4,6.9c-1.1,2.8-3,5.3-5.2,1c0,0-4.8,16.5-6.8,4.4
			c0,0-10.3,13.6-5.5-14.4c0,0-7,18.8-7.4,9.2c-0.1-2,0.3-4,0.9-5.9c1.4-4.4,4-13.5,0.1-11.1c0,0-4.4,3.9-5,0.5s17.4-19.5,17.4-19.5
			L281.3,257.4z"/>
		<path class="st3" d="M277.1,284c0,0,0.6,4,0.8,9.6"/>
		<line class="st3" x1="272.4" y1="285.3" x2="271.1" y2="298"/>
	</g>
	<path class="st4" d="M221.2,20.8c0,0-23.3-14.5-37.5,9.5c0,0-5.8,12.7-5.5,21s-3.8,20.3-5,23s-6.5,15.3-2.5,21s4.8,10,3,15.5
		s0,12,4.5,12.8s4,6.8,4.8,9.8s10.8,6,10.8,6h33.3l20.3,3.3c0,0,15.7-8.3,16.7-19.8s2.3-22.5,6.3-28.3s2-18.3-2-25.8
		s-4.5-23.1-5.3-26.5C262.1,38.8,254.7,9.3,221.2,20.8z"/>
	<ellipse class="st5" cx="192.6" cy="76.6" rx="3.4" ry="8.5"/>
	<path class="st6" d="M214.4,130.5c0,0-27.5-4.3-34.8,10.3c-7.3,14.6-14.8,60.6-15.3,64.7c-0.4,3-1.8,55.2-1.8,55.2
		s5.8,3.7,14.3-1.2c0,0,1.5-42.2,10.7-72.5c0,0,5.8,15.5,6.5,21.8c0.7,6.3-10.5,46-10.5,46s33.2,25.7,83.3-0.3
		c0,0-16.8-38.2-11.8-50.8c5-12.7,5.5-17.2,5.5-17.2s12,57.8,7.3,72c0,0,3.8,7,15.5,3.7c0,0,3.5-68.3,0-83s-2.8-41.2-34.2-49.3
		L214.4,130.5z"/>
	<path class="st3" d="M189.3,166c0,0-4.7,12.8-1.8,21"/>
	<path class="st3" d="M259.4,166c0,0,3.9,10.4,1,20.5"/>
	<path class="st3" d="M163.2,250.8c0,0,5.1,4,14.1-1.3"/>
	<path class="st3" d="M268.8,247.3c0,0,6.8,6.2,15,1.2"/>
	<path class="st0" d="M214.8,127.6c0,0-11.4,2.9-9.7,9.2c0.6,2.2,2.5,3.7,4.7,4.1l2.5,0.5c0,0-5.2,14.7,9.7,10.5
		c0,0,10.2,9.5,13.5-4.2c0,0,14.8-2,5.2-13c0,0,6.5-7.8-2.8-8.5l-21.4,2.3L214.8,127.6z"/>
	<ellipse class="st5" cx="250.9" cy="76.8" rx="3.4" ry="8.5"/>
	<path class="st2" d="M212.3,105.8c0,0,3.2,18.7-1.4,22.8c0,0,9.2,24.5,18.2,13.9c8.8-10.4,8.8-16.3,8.8-16.3s-6.1-5.2-2.7-22
		L212.3,105.8z"/>
	<path class="st5" d="M250.7,71.8c0,22.2-12.9,40.3-28.8,40.3c-15.9,0-28.8-18-28.8-40.3c0-6.3,1-12.2,2.9-17.5v0h0
		c2.7-2.3,6.3-4.5,11.4-6.2c6.6-2.3,10.7-5.3,13.2-8.4c-2.3,3.7,18.8,16.9,24.1,19.4c2.4,1.2,4.3,3.5,5.5,5.7
		C250.5,67,250.7,69.4,250.7,71.8z"/>
	<path class="st7" d="M221.2,20.8c0,0,6.6,10.3-0.6,18.9"/>
	<path class="st7" d="M189.2,63.4c0,0,3.1-9.4,9.1-10.9"/>
	<path class="st7" d="M200.2,58c0,0,9-5.4,14.3-1"/>
	<path class="st7" d="M223.9,56c0,0,6.5-2.5,14.6,3.3"/>
	<ellipse cx="207.8" cy="71" rx="3.1" ry="5.5"/>
	<circle class="st8" cx="207.9" cy="70.3" r="0.8"/>
	<path class="st3" d="M202,67.9c0,0,4.9-4.8,10.8-0.7"/>
	<ellipse cx="232.1" cy="71.3" rx="3.1" ry="5.5"/>
	<circle class="st8" cx="231.9" cy="70.5" r="0.8"/>
	<path class="st3" d="M237.9,68.2c0,0-4.9-4.8-10.8-0.7"/>
	<path class="st3" d="M218,61.1c0,0,2.3,16.4-0.8,20.3c0,0,1,3.4,6.7,0.8"/>
	<path class="st3" d="M212.3,91.5c0,0,10.5,15.7,21.1,0"/>
	<path class="st3" d="M230.7,291.5c0,0-5.4,12.5-5.9,24"/>
	<circle class="st9" cx="318.8" cy="64.8" r="32.3"/>
	<line class="st9" x1="318.8" y1="97.1" x2="318.8" y2="152"/>
	<line class="st9" x1="291.4" y1="109.5" x2="346.3" y2="109.5"/>
</g>
</svg>
