<?xml version="1.0" encoding="utf-8"?>
<!-- Generator: Adobe Illustrator 22.1.0, SVG Export Plug-In . SVG Version: 6.00 Build 0)  -->
<svg version="1.1" id="Слой_4" xmlns="http://www.w3.org/2000/svg" xmlns:xlink="http://www.w3.org/1999/xlink" x="0px" y="0px"
	 viewBox="0 0 512 512" style="enable-background:new 0 0 512 512;" xml:space="preserve">
<style type="text/css">
	.st0{fill:none;stroke:#000000;stroke-width:3;stroke-linecap:round;stroke-linejoin:round;stroke-miterlimit:10;}
	.st1{fill:#F9D1AA;stroke:#000000;stroke-width:1.5;stroke-linecap:round;stroke-linejoin:round;stroke-miterlimit:10;}
	.st2{fill:#8E8E8E;stroke:#000000;stroke-width:1.5;stroke-linecap:round;stroke-linejoin:round;stroke-miterlimit:10;}
	.st3{fill:none;stroke:#000000;stroke-linecap:round;stroke-linejoin:round;stroke-miterlimit:10;}
	.st4{fill:#8E8E8E;stroke:#000000;stroke-linecap:round;stroke-linejoin:round;stroke-miterlimit:10;}
	.st5{fill:#634940;stroke:#000000;stroke-width:1.5;stroke-linecap:round;stroke-linejoin:round;stroke-miterlimit:10;}
	.st6{fill:#FFFFFF;}
	.st7{fill:none;stroke:#000000;stroke-width:2;stroke-linecap:round;stroke-linejoin:round;stroke-miterlimit:10;}
	.st8{fill:#773F2D;stroke:#000000;stroke-width:1.5;stroke-linecap:round;stroke-linejoin:round;stroke-miterlimit:10;}
	.st9{fill:none;stroke:#000000;stroke-width:1.5;stroke-linecap:round;stroke-linejoin:round;stroke-miterlimit:10;}
	.st10{fill:#ED805A;stroke:#000000;stroke-width:1.5;stroke-linecap:round;stroke-linejoin:round;stroke-miterlimit:10;}
	.st11{fill:#FDCD95;stroke:#000000;stroke-width:1.5;stroke-linecap:round;stroke-linejoin:round;stroke-miterlimit:10;}
	.st12{fill:#45415E;stroke:#000000;stroke-width:1.5;stroke-linecap:round;stroke-linejoin:round;stroke-miterlimit:10;}
	.st13{fill:#FFD551;stroke:#000000;stroke-width:1.5;stroke-linecap:round;stroke-linejoin:round;stroke-miterlimit:10;}
	.st14{fill:#857154;stroke:#000000;stroke-width:1.5;stroke-linecap:round;stroke-linejoin:round;stroke-miterlimit:10;}
	.st15{fill:#FFFCCB;stroke:#000000;stroke-width:1.5;stroke-linecap:round;stroke-linejoin:round;stroke-miterlimit:10;}
	.st16{fill:#EB8C30;stroke:#000000;stroke-width:1.5;stroke-linecap:round;stroke-linejoin:round;stroke-miterlimit:10;}
	.st17{fill:#4D7450;stroke:#000000;stroke-width:1.5;stroke-linecap:round;stroke-linejoin:round;stroke-miterlimit:10;}
	.st18{fill:#FDC663;stroke:#000000;stroke-width:1.5;stroke-linecap:round;stroke-linejoin:round;stroke-miterlimit:10;}
	.st19{fill:#97B043;stroke:#000000;stroke-width:1.5;stroke-linecap:round;stroke-linejoin:round;stroke-miterlimit:10;}
	.st20{fill:#DFD977;stroke:#000000;stroke-width:1.5;stroke-linecap:round;stroke-linejoin:round;stroke-miterlimit:10;}
	.st21{fill:none;stroke:#000000;stroke-width:9;stroke-linecap:round;stroke-linejoin:round;stroke-miterlimit:10;}
</style>
<line class="st0" x1="497.2" y1="464.9" x2="5" y2="464.9"/>
<path d="M431.3,149.8c0,0,3.5-2,11.8-1.2c8.3,0.8,1,10.5,1,10.5l-10.3-3.7L431.3,149.8"/>
<ellipse transform="matrix(0.9814 -0.192 0.192 0.9814 -14.5216 81.485)" class="st1" cx="413.1" cy="115.7" rx="2.4" ry="6.1"/>
<ellipse transform="matrix(0.4189 -0.908 0.908 0.4189 168.7755 492.2677)" class="st1" cx="469" cy="114.3" rx="6.1" ry="3.1"/>
<path class="st2" d="M423.1,84.5c0,0-15.1,5.4-14.4,18.3c0,0,0.3,4.9,6.2,6c0,0,1.7-10.8,4.3-14.7C421.8,90.3,423.1,84.5,423.1,84.5
	z"/>
<path class="st1" d="M440.8,141.1l2.3,14.9c0,0,15.6,2.7,21.7-11.3c0,0-5.1-3.6-5.6-15.3C459.2,129.5,450.2,139.7,440.8,141.1z"/>
<path d="M399.9,292.5c-3.4-13.5-11.2-20-19.2-19.2c-9,0.9-14.9,12-14.1,28.2V460c0,1.5,1.3,2.8,2.8,2.8c1.5,0,2.8-1.3,2.8-2.8V296
	c0-0.2,0-0.5-0.1-0.7c1-8.4,4.7-14.6,9.7-15.1c5.3-0.5,10.4,5.4,13,14.2c0.5,1.9,2.2,2.8,3.7,2c0,0,0,0,0,0
	C399.7,295.7,400.3,294,399.9,292.5z"/>
<path class="st1" d="M469.4,105.5c0,19.4-14.7,38.3-29.5,38.3s-26.8-15.7-26.8-35.2s13.5-33.2,28.3-33.2S469.4,86.1,469.4,105.5z"/>
<path class="st2" d="M471.7,104.6c-0.1,1-0.7,1.9-1.5,2.5c-2.3,1.7-7,5.4-7.8,8.2c-1,3.7-6.7-16.7,4.5-25.3
	C466.9,89.9,473.2,92.9,471.7,104.6z"/>
<path class="st3" d="M418.5,104c0,0,17.8,3.3,14.8-1.2C430.4,98.3,419.2,103.4,418.5,104z"/>
<path class="st4" d="M433.3,102.8c-2.9-4.5-15.5,0.6-14.8,1.2C418.5,104,436.3,107.2,433.3,102.8"/>
<path class="st4" d="M440.7,102.8c2.9-4.5,15.5,0.6,14.8,1.2C455.5,104,437.8,107.2,440.7,102.8"/>
<path class="st3" d="M436.3,107.1c0,0,0.1,7.9-1.6,10.4c-1.3,1.9-7.8,6.2,1.7,7"/>
<path class="st5" d="M415.9,439c0,0-15.6,14.4-21.2,16.5s-14.8,8.7,1.4,8.3c16.2-0.3,17.3-1.5,23.2,0c5.8,1.5,12.4,0.9,12.5-12.4
	c0.1-13.4-4.8-15.3-4.8-15.3L415.9,439z"/>
<path class="st5" d="M467.3,441.7c0,0-12.5,19.5-7.5,21.3c5,1.8,31.8,4.7,32.3-2.1s-14.8-22.7-14.8-22.7L467.3,441.7z"/>
<ellipse cx="424.6" cy="114.3" rx="2.3" ry="3.8"/>
<circle class="st6" cx="424.6" cy="113.3" r="1"/>
<path class="st7" d="M420,111.4c0,0,3.8-2,6.8-0.3"/>
<ellipse cx="448.1" cy="114.8" rx="2.3" ry="3.8"/>
<circle class="st6" cx="448.1" cy="113.8" r="1"/>
<path class="st7" d="M452.7,111.9c0,0-3.8-2-6.8-0.3"/>
<path class="st8" d="M412.1,275.7v165.9c0,0,14,6.1,19.3,0l15.7-136.4l16,139.1c0,0,14,3.4,20.7-2.7c0,0,3-135.9-4-165.2
	C479.8,276.4,411.4,282.9,412.1,275.7z"/>
<path class="st2" d="M423.6,130.2c0,0,9.4-10.5,23.5,0H423.6z"/>
<path class="st9" d="M430.9,133.5c0,0,5.3,5,12.2,0"/>
<path class="st10" d="M433.8,149.5c0,0-15.4,0-17.4,12.7c-2,12.7-12.2,59.3-14.7,62.8c-1.4,2-22.7,41.3-22.7,41.3s7,9.5,12.3,8.2
	l19.7-25.3l-2.3,30c0,0,33,17.9,72,2.6l10.3-25.4v30.7c0,1.3,0.5,2.5,1.5,3.4c2.4,2,7.3,4.9,11.8,0c6.3-6.9,8.8-84.4-9.7-112.9
	c0,0-18.7-35.6-31.7-34.6C463,142.9,450.6,165.2,433.8,149.5z"/>
<line class="st9" x1="416.8" y1="179.9" x2="411.1" y2="249.2"/>
<path class="st9" d="M469,186.5c0,0,16.7,32.7,19.1,42c2.3,9.3,3,27.8,3,27.8"/>
<path class="st1" d="M382.4,266.4c0,0-12.8,12.2-15.2,15.5c-1.5,2.1,0,6,3,5.5c0,0,2.3,3.5,5.2,1.8c0,0,6,5.2,10.3-3
	s3.7-16.2,3.7-16.2L382.4,266.4z"/>
<line class="st9" x1="372.3" y1="283" x2="370.3" y2="287.4"/>
<line class="st9" x1="377.3" y1="285.2" x2="375.4" y2="289.2"/>
<path class="st1" d="M503.4,291.4c0,0-1.9,32.3-13.4,28.3c0,0-6.4,4.2-5.7-0.8c0,0-7.6,3.7-4.3-0.8c3.2-4.5,16-15.7,5.9-16.3
	c0,0-7.9,2.7-1.5-4.2c6.4-6.8,7.2-8.3,7.2-8.3S495.8,295.4,503.4,291.4z"/>
<path class="st9" d="M496.8,309.4c0,0-3.5,7.8-6.7,10.3"/>
<path class="st9" d="M491.3,311.7c0,0-2.8,4.5-7,7.2"/>
<path class="st11" d="M254.1,305.7c0,0-7.2-6.3-7.5-9.8c-0.3-3.5-2.7-11.9-2.7-11.9h-6.2L235,291c0,0,0.9,7.8,3.6,10
	c2.7,2.3,10,11.1,10,11.1l4-1.7L254.1,305.7z"/>
<polygon class="st11" points="88.7,236.9 119,214.6 112,190.3 88,200.2 85.1,227.1 "/>
<path class="st11" d="M223.8,197.6c0,0,9.2,20.3,12.9,51.1c0,0,1.1,8.3,3.7,13.3c2.3,4.4,6.6,22.1,4.5,28.2
	c-0.3,0.8-1.5,0.8-1.8-0.1l-3.2-10.6c0,0,2.2,25.3-1.3,16.8c-4-9.7-4.3-14.6-4.3-14.6s-1.1,27-3.6,14.7c-2.7-13.2-1.6-16.5-1.6-16.5
	s-4.2,22.9-5.2,12c-1.1-11.3,0.7-18.8,0-19c-0.5-0.2-2.6,2.3-3.5,3.4c-0.4,0.5-1,0.7-1.6,0.5c-1.4-0.4-3-2.8,1.7-13.5
	c0.6-1.5,1.5-2.9,2.3-4.2c1.2-1.9,2.8-6,0.2-12.4c-3.7-9-18.8-47-18.8-47L223.8,197.6z"/>
<path class="st5" d="M196.8,436.6c0,0,17.5,25,8.4,26.2s-27.7,4.7-27.7-4.4c0-9,5.2-21.8,5.2-21.8H196.8z"/>
<path class="st5" d="M130,436.6c0,0-17.5,25-8.4,26.2s27.7,4.7,27.7-4.4c0-9-5.2-21.8-5.2-21.8H130z"/>
<path class="st12" d="M200,266.3l1.2,174.1c0,0-7,6.1-22.1,0l-13.1-139.7l-19.2,140c0,0-11.1,4.7-19.8-3.2l5-170.1L200,266.3z"/>
<path class="st13" d="M183.6,137.9c0,0,23.5,4.3,26.5,10.4s17,51.7,17,51.7s-8.6,10.4-25.2,4.1l0.9,66.3c0,0-35,22.5-74.9,2.1
	l-1.9-60.6c0,0-7.1,4.7-11.6,1.9c0,0-13.8-67.4,12-68.7c17.3-0.9,24.3-8.5,24.3-8.5L183.6,137.9z"/>
<path class="st11" d="M179.9,120.7l-1.4,18.9c0,0-8.4,5.7-13,12.9c0,0-1.7-5.1-11.7-14.2l1.7-17.6c0,0,7,4.5,10,4.6
	C168.6,125.4,179.9,121.7,179.9,120.7z"/>
<path class="st14" d="M194.8,98.2L138.7,97c0,0-9.2-33.9,16.6-47.2c12.9-6.7,23.6-3.1,30.4,2.3c6.6,5.3,10.7,13,11.8,21.4
	C198.6,82,199.2,93.8,194.8,98.2z"/>
<path class="st11" d="M146,75.7c1.7-5.7,5.2-9.8,12.8-5.2c7.7,4.7,13.6,0.6,16.3-0.8c1.6-0.8,3.3-1.6,5.1-1.4
	c10.9,1.3,9.3,12.1,9.3,12.1c1.8,4.6,1.7,8.4,1.7,14c0,0.3,0,0.5,0,0.8c2.1-1.8,6-4.4,7.2,1.3c1.6,7.4-5,12.4-8.5,8.7
	c-3.3,13.3-12.6,22.9-23.5,22.9c-11.1,0-20.5-10-23.7-23.7v0c-5.9,1.5-7-6.6-5.7-10.1c0.9-2.3,2.9-1.6,4.6-0.6
	c0.1-6.9,1.7-13.4,4.4-18.7c0,0,0,0,0,0"/>
<path class="st14" d="M141.1,104.5l2.8-2.2c0-0.1,0,0,0,0l0,0c0,0.2,0.6,1,4.3,5.4c3.9,4.7,11.1,3.3,14,2.6c0.7-0.2,1.5,0,2.1,0.4
	c1,0.7,2.6,1.7,4.3,1.8c2,0.1,3.9-0.9,5.1-1.7c0.7-0.5,1.5-0.6,2.3-0.2c6.9,3.2,12.7-6.9,12.7-6.9l3,1.7
	c-0.6,12.6-12.4,25.6-24.4,25.6c-12.4,0-23.8-12.4-26-25.1C141.2,105.5,141.2,105,141.1,104.5z"/>
<path class="st11" d="M162,114.2c1.4,0,5,2.9,8.8,1.4c2-0.8,3.9-0.6,5.2-0.1c0,0.1,0,0.3,0,0.5c0,2.6-3.1,7.6-7.5,7.6
	c-4.5,0-8.1-4.8-8.1-7.5C160.4,115,161,114.5,162,114.2L162,114.2"/>
<path class="st14" d="M176,85l2.9-4.5c0,0,11.2,3.6,7.4,9.5C186.4,90,180.2,85.4,176,85z"/>
<path class="st14" d="M160.4,84.5l-2.9-4.5c0,0-11.2,3.6-7.4,9.5C150,89.5,156.3,84.9,160.4,84.5z"/>
<circle class="st9" cx="180.3" cy="97.2" r="6.1"/>
<circle class="st9" cx="156.8" cy="96.8" r="6.1"/>
<circle cx="180.4" cy="96.6" r="3.1"/>
<circle class="st6" cx="180.4" cy="96.6" r="0.8"/>
<path class="st9" d="M183.9,95c0,0-2.7-3.3-6.8,0"/>
<circle cx="156.9" cy="96.8" r="3.1"/>
<path class="st9" d="M153.5,95.2c0,0,2.7-3.3,6.8,0"/>
<circle class="st6" cx="156.9" cy="96.6" r="0.8"/>
<path class="st9" d="M171.7,90c0,0-2.9,13.3-0.3,16.3s-4,3.5-5.3,1.6"/>
<path class="st9" d="M174.1,95.6c0,0-4.8-3.7-11.1,0"/>
<path class="st9" d="M173.2,117.4c0,0-3.8,5.2-9.6,0"/>
<path class="st15" d="M179.4,135l10.9,3.8c0,0-8.3,14.5-7.4,17.6c0,0-5.9-3.8-15.4-6.8L179.4,135z"/>
<path class="st15" d="M153.4,132.4l-10.2,5.1c0,0,5.6,13.2,7.3,19.4c0,0,7-7,13-6.9L153.4,132.4z"/>
<line class="st9" x1="198.8" y1="170.8" x2="201.9" y2="204"/>
<line class="st9" x1="128.4" y1="168.7" x2="126" y2="211.8"/>
<path class="st5" d="M324.8,451.8c0,0,18.3,9.3,12.5,11.3c-5.9,2-15.4-0.5-20,0.1c-4.6,0.6-7.8,2.1-8.4-9.6
	C308.4,441.9,324.8,451.8,324.8,451.8z"/>
<path class="st5" d="M294.3,450.5c0,0,1.5,15-3,14.2s-11-0.9-17.7,0.2c-6.8,1.2-5.8-7.2,11.5-14.5H294.3z"/>
<path class="st11" d="M341.3,351l9.9,10.4c0,0,1.4,2-5-0.4c0,0,6.8,6.3,4.6,5.8c-2.2-0.4-6.2-3.9-6.5-4.3c-0.3-0.4,4.1,9.4,2,7.4
	c-2.1-2-5.3-5.8-5.3-5.8s0.5,10.1-1.3,6s-2.8-7-2.8-7s-3.6,2.3-5.1,1.2c-1.5-1.2,1.6-2.1,2.3-3.4c1-1.6,1-8.8,1-8.8L341.3,351z"/>
<path class="st16" d="M322.9,352.9l4.9,99.2c0,0-10.3,6.8-21.2,0l-2-72.5l-7.9,73.4c0,0-10.5,3.1-19.2-3.5l9.4-95L322.9,352.9z"/>
<path class="st17" d="M311.6,293.5c0,0,14.4,3.7,21.4,26.4c7,22.7,10,32.1,10,32.1s-6.1,3.9-9,2.2L323,327.6l2.7,36.7
	c0,0-31.2,3.8-42.3-1.2l1.6-41.7c0,0-10.9,18.6-25.3,5l-14.1-14.6c0,0,7.4-3.3,7.8-9l16.6,11.6c0,0,16.8-22.1,26.4-21
	C296.3,293.5,302.5,305.7,311.6,293.5z"/>
<path class="st9" d="M336.8,332.2c0,0-5.8-1.3-10.2,4"/>
<path class="st9" d="M339.2,339.8c0,0-7.8,0-9.6,3.5"/>
<line class="st9" x1="322.9" y1="317.4" x2="323" y2="327.6"/>
<path class="st9" d="M323.4,332.5c0,0-24.2,12.7-38.3,0"/>
<path class="st9" d="M322.9,323c0,0-21.1,11.1-37.8,1.6"/>
<path class="st9" d="M261.9,308.9c0,0-0.7,6.9-9.1,10.5"/>
<path class="st9" d="M266,311.7c0,0-1.8,9.6-10.2,10.8"/>
<path class="st18" d="M306.5,225.6c0,0,2.9-7.6,6-9.9c3.1-2.3,15.9-10.1,25.4,8.3c9.5,18.4,9.3,39.1,3.7,49.5
	c-5.6,10.4-12.1,21.1-12.5,25.3c-0.4,4.3-7.2-2.2-9.4-7.2c-2.3-4.9,0-14.8,0-14.8l2.6-17l-2.6-18.1L306.5,225.6z"/>
<ellipse class="st11" cx="281.9" cy="264.7" rx="3" ry="6.7"/>
<path class="st11" d="M310.9,285.4c-0.2,0.8,0,10.3,0,10.3s-7.7,6-15.2-1l1.2-9.3H310.9z"/>
<ellipse transform="matrix(0.2615 -0.9652 0.9652 0.2615 -15.5335 514.1675)" class="st11" cx="328.2" cy="267.2" rx="6.9" ry="5.4"/>
<path class="st17" d="M326.7,230.1c0,0-0.6-14.3-14.1-7.1l6,7.1H326.7z"/>
<path class="st11" d="M281.9,260.7c1.1,16.5,8.5,29.8,21.6,29.8c12.9,0,23.6-12.1,25.5-28c-2.1-1.8-4.8-5-5.2-9.3
	c0,0-19.1,6.7-26.7,2.9c0,0,3.5-2.3,4.1-3.8s-8.9,1.2-12.7-3.8l-4.2,15.7C284.4,264.2,283.2,263,281.9,260.7z"/>
<path class="st18" d="M281.9,260.7c1.3,2.3,2.5,3.5,2.5,3.5l4.2-15.7c3.8,4.9,13.2,2.3,12.7,3.8s-4.1,3.8-4.1,3.8
	c7.5,3.8,26.7-2.9,26.7-2.9c0.4,4.3,3.1,7.5,5.2,9.3c1.3,1.1,2.3,1.8,2.3,1.8l4.5-9.9c2.1-4.8,2.6-10.1,1.2-15.1
	c-3.9-13.3-17.3-12.1-17.3-12.1c-23.3-16.2-37,5-37,5C274.7,244.5,278.8,255.3,281.9,260.7z"/>
<path class="st9" d="M324,244.2c0,0-0.4,7.4-0.1,9"/>
<path class="st9" d="M309.1,242.6c0,0-5.3,9.8-8.8,9.2"/>
<path class="st9" d="M299.2,237.7c0,0-3.3,8.7-10.7,10.9"/>
<path class="st9" d="M316.2,229.3c0,0-32.5-12.6-34.3,22"/>
<path class="st9" d="M324,233c0,0,12.1,4.2,7.4,31.2"/>
<ellipse cx="314.5" cy="265.2" rx="2.5" ry="4.3"/>
<g>
	<path d="M321.2,263.4c-1.2,0.3-2.5,0.4-3.9,0.2c-0.7-0.1-1.4-0.1-1.9-0.5c-0.6-0.4-1.1-0.9-1.3-1.6c0,0,0-0.1,0.1-0.1c0,0,0,0,0,0
		l0,0c0.7,0.1,1.3,0.3,1.8,0.4c0.5,0.1,1,0.5,1.6,0.7c1.1,0.4,2.3,0.7,3.5,0.8l0,0C321.2,263.2,321.2,263.3,321.2,263.4
		C321.2,263.3,321.2,263.4,321.2,263.4z"/>
</g>
<path class="st9" d="M312.5,260c0,0,5.9-2.9,8.3,1.7"/>
<ellipse cx="294.9" cy="264.6" rx="2.5" ry="4.3"/>
<g>
	<path d="M288.2,262.6c1.2-0.1,2.4-0.4,3.5-0.8c0.6-0.2,1-0.6,1.6-0.7c0.6-0.2,1.1-0.3,1.8-0.4l0,0c0,0,0.1,0,0.1,0.1c0,0,0,0,0,0
		c-0.2,0.7-0.7,1.3-1.3,1.6c-0.6,0.4-1.3,0.5-1.9,0.5c-1.3,0.2-2.6,0.1-3.9-0.2C288.2,262.8,288.2,262.7,288.2,262.6
		C288.2,262.7,288.2,262.6,288.2,262.6L288.2,262.6z"/>
</g>
<circle class="st6" cx="294.9" cy="264.2" r="1"/>
<circle class="st6" cx="314.2" cy="264.2" r="1"/>
<path class="st9" d="M296.9,259.4c0,0-5.9-2.9-8.3,1.7"/>
<path class="st9" d="M306.4,271.2c0,0-3.6-2-5.4,0"/>
<path class="st9" d="M310.9,277.8c0,0-9.2,11.8-14.5-1"/>
<g>
	<path class="st11" d="M20.7,264.2c0,0,6.9,12.7,5.9,18.5c-0.2,1.2-1.7,1.7-2.6,0.9l-1.9-1.7c0,0,1,23.6-2.2,17.5L16.9,288
		c0,0-2,24-4.3,11.8l-1.3-11.6c0,0-3.4,21.2-4.3,10.5c-1-10.7,0-11.2,0-11.2S4,300.1,3,295.6s3.2-29.4,7.9-32.5
		S20.7,264.2,20.7,264.2z"/>
	<path class="st19" d="M52.7,199.8c0,0-27.8,49.2-30.7,67.3c0,0-10.5-0.6-12.6-2.8s23.8-102.3,42.7-103.9L52.7,199.8z"/>
	<path class="st20" d="M95.7,434c0,0,2.1,14.3,15.1,20.8c13,6.5-5.9,13-10.3,10.3c-2.4-1.5-14.2-8-18.2-9.2c-4-1.3-7.4-4.9-1.4-21.9
		C87,417,95.7,434,95.7,434z"/>
	<path class="st20" d="M62.2,433l1.7,16.7c0.4,3.4-1.9,6.7-5.2,7.4c-0.4,0.1-0.7,0.1-1.1,0.1c-3.8,0-8.4,2.5-12.4,5
		s-23.8,5.3-24.2-1.5s10.8-8.9,16-14.8c5.2-6,8.1-7.7,9.4-17.3C47.7,418.9,62.2,433,62.2,433z"/>
	<path class="st5" d="M106.7,261.7c0,0,8.4,10.1,4.1,41.5c-4.3,31.4-10.8,132-10.8,132s-8.7,10-21,0l-4.4-120.8L64.2,435
		c0,0-8.5,8.4-20.5-1.1c0,0-14.9-161.4,0-173c14.9-11.6,39.6-10.5,39.6-10.5L106.7,261.7z"/>
	<path class="st18" d="M77.6,66.3c0,0,19.6-12.2,31.6,8c0,0,4.8,10.7,4.6,17.7c-0.2,6.9,3.2,17,4.2,19.4c1.1,2.3,5.5,12.8,2.1,17.7
		c-3.4,4.8-4,8.4-2.5,13c1.5,4.6,0,10.1-3.8,10.7c-3.8,0.6-3.4,5.7-4,8.2c-0.6,2.5-9,5-9,5h-28l-17,2.7c0,0-13.3-6.9-14.1-16.6
		c-0.8-9.7-1.9-18.9-5.3-23.8c-3.4-4.8-1.7-15.4,1.7-21.7s3.7-19.4,4.4-22.3C43.1,81.5,49.4,56.7,77.6,66.3z"/>
	<ellipse class="st11" cx="101.7" cy="113.3" rx="2.8" ry="7.2"/>
	<path class="st19" d="M42.4,168.8c1.7-3.2,5.7-7.2,9.2-9.3c1.4-0.9,3-1.3,4.7-1.3l26.9,0.5c0,0,23.1-3.6,29.3,8.6
		c6.2,12.3,12.5,51,12.9,54.5c0.3,2.5,1.5,46.4,1.5,46.4s-4.9,3.1-12.1-1c0,0-1.3-35.5-9-61c0,0-4.9,13-5.5,18.4
		c-0.6,5.3,18.5,67.4,18.5,67.4s-44,20.1-86.2-1.8c0,0,20.7-59.3,16.4-70c-1.4-3.5-2.3-6.2-3-8.3"/>
	<path class="st9" d="M104.4,188.5c0,0,4,10.8,1.5,17.7"/>
	<path class="st9" d="M45.4,188.5c0,0-1.6,14.8,0.8,23.3"/>
	<path class="st9" d="M126.4,259.8c0,0-4.3,3.4-11.9-1.1"/>
	<path class="st9" d="M25,256.1c0,0-7.7,3.4-13.4-2.4"/>
	<path class="st20" d="M83,156.2c0,0,9.6,2.4,8.1,7.7c-0.5,1.8-2.1,3.1-4,3.5l-2.1,0.4c0,0,4.3,12.3-8.1,8.8c0,0-8.6,8-11.4-3.5
		c0,0-12.5-1.7-4.3-10.9c0,0-5.5-6.6,2.3-7.2l18,2L83,156.2z"/>
	<ellipse class="st11" cx="52.6" cy="113.4" rx="2.8" ry="7.2"/>
	<path class="st11" d="M85.1,137.9c0,0-2.7,15.7,1.2,19.2c0,0-7.7,20.6-15.3,11.7c-7.4-8.8-7.4-13.7-7.4-13.7s5.1-4.3,2.2-18.5
		L85.1,137.9z"/>
	<g>
		<path class="st11" d="M125.9,270.5c0.9,3.6,2.6,11.4,2.4,18.5c-0.1,2.1-0.4,4.2-1.2,6.1c-1,2.3-2.5,4.5-4.4,0.8
			c0,0-4,13.9-5.7,3.7c0,0-8.6,11.5-4.6-12.1c0,0-5.9,15.8-6.2,7.7c-0.1-1.7,0.2-3.4,0.7-5c1.2-3.7,3.4-11.4,0.1-9.3
			c0,0-3.7,3.3-4.2,0.4c-0.5-2.5,11.6-10.8,14.2-12.6c0.3-0.2,1,0,1.4,0l4.8,0.3C124.6,269.1,125.6,269.2,125.9,270.5z"/>
		<path class="st9" d="M122.2,287.8c0,0,0.5,3.4,0.6,8.1"/>
		<line class="st9" x1="118.2" y1="288.9" x2="117.1" y2="299.6"/>
	</g>
	<path class="st11" d="M52.7,109.2c0,18.7,10.8,33.9,24.2,33.9c13.4,0,24.2-15.2,24.2-33.9c0-5.3-0.9-10.3-2.4-14.7v0h0
		c-2.2-1.9-5.3-3.8-9.6-5.2c-5.6-1.9-9-4.5-11.1-7c1.9,3.1-15.9,14.2-20.3,16.3c-2.1,1-3.6,2.9-4.7,4.8
		C52.9,105.2,52.7,107.2,52.7,109.2z"/>
	<path class="st9" d="M77.6,66.3c0,0-5.5,8.6,0.5,15.9"/>
	<path class="st9" d="M104.5,102.2c0,0-2.6-7.9-7.7-9.2"/>
	<path class="st9" d="M95.2,97.6c0,0-7.6-4.5-12-0.9"/>
	<path class="st9" d="M75.3,96c0,0-5.5-2.1-12.3,2.7"/>
	<ellipse cx="88.9" cy="108.6" rx="2.6" ry="4.6"/>
	<circle class="st6" cx="88.7" cy="108" r="0.7"/>
	<path class="st9" d="M93.7,106c0,0-4.1-4-9-0.6"/>
	<ellipse cx="68.4" cy="108.8" rx="2.6" ry="4.6"/>
	<circle class="st6" cx="68.5" cy="108.2" r="0.7"/>
	<path class="st9" d="M63.5,106.2c0,0,4.1-4,9-0.6"/>
	<path class="st9" d="M80.2,100.3c0,0-2,13.8,0.6,17.1c0,0-0.8,2.9-5.6,0.6"/>
	<path class="st9" d="M85.1,125.8c0,0-8.9,13.2-17.7,0"/>
	<path class="st9" d="M72,300.2c0,0,2.1,4.4,2.5,14.1"/>
	<g>
		<path class="st11" d="M49,226.5c0,0-5.4,2.7,1.4,4.8s10.7,5.3,0.6,5.6c0,0,14.5,6,1,6.8c0,0,11.4,7.4-3,5.9c0,0,10.5,8-5.4,4.9
			c0,0-9.2-0.8-6.4-6.3c0,0-3.2-5.2,1.8-5.8c0,0-4.1-6.3,1.2-7.5C40.2,235,36.4,224.7,49,226.5z"/>
		<line class="st11" x1="44" y1="236.9" x2="51" y2="236.9"/>
		<line class="st11" x1="44" y1="242.8" x2="52.1" y2="243.7"/>
		<line class="st11" x1="42" y1="247.8" x2="49" y2="249.6"/>
	</g>
</g>
<g>
	<path class="st21" d="M348.2,147.6c0,0-26.8,8.6-34,47.2"/>
	<path d="M371.6,137.6l-13.4,23.2c-1.2,2-4.1,2-5.3,0l-13.3-23.2c-1.2-2,0.3-4.6,2.7-4.6l26.8,0.1
		C371.3,133,372.8,135.6,371.6,137.6z"/>
</g>
</svg>
