<?xml version="1.0" encoding="utf-8"?>
<!-- Generator: Adobe Illustrator 22.1.0, SVG Export Plug-In . SVG Version: 6.00 Build 0)  -->
<svg version="1.1" id="Слой_3" xmlns="http://www.w3.org/2000/svg" xmlns:xlink="http://www.w3.org/1999/xlink" x="0px" y="0px"
	 viewBox="0 0 512 512" style="enable-background:new 0 0 512 512;" xml:space="preserve">
<style type="text/css">
	.st0{fill:#634940;stroke:#000000;stroke-width:2;stroke-linecap:round;stroke-linejoin:round;stroke-miterlimit:10;}
	.st1{fill:#FDCD95;stroke:#000000;stroke-width:1.5;stroke-linecap:round;stroke-linejoin:round;stroke-miterlimit:10;}
	.st2{fill:#EB8C30;stroke:#000000;stroke-width:2;stroke-linecap:round;stroke-linejoin:round;stroke-miterlimit:10;}
	.st3{fill:#4D7450;stroke:#000000;stroke-width:2;stroke-linecap:round;stroke-linejoin:round;stroke-miterlimit:10;}
	.st4{fill:none;stroke:#000000;stroke-width:2;stroke-linecap:round;stroke-linejoin:round;stroke-miterlimit:10;}
	.st5{fill:#45415E;stroke:#000000;stroke-width:2;stroke-linecap:round;stroke-linejoin:round;stroke-miterlimit:10;}
	.st6{fill:#FDCD95;stroke:#000000;stroke-width:2;stroke-linecap:round;stroke-linejoin:round;stroke-miterlimit:10;}
	.st7{fill:#FFD551;stroke:#000000;stroke-width:2;stroke-linecap:round;stroke-linejoin:round;stroke-miterlimit:10;}
	.st8{fill:#857154;stroke:#000000;stroke-width:2;stroke-linecap:round;stroke-linejoin:round;stroke-miterlimit:10;}
	.st9{fill:#857154;stroke:#000000;stroke-linecap:round;stroke-linejoin:round;stroke-miterlimit:10;}
	.st10{fill:#FDCD95;stroke:#000000;stroke-linecap:round;stroke-linejoin:round;stroke-miterlimit:10;}
	.st11{fill:none;stroke:#000000;stroke-linecap:round;stroke-linejoin:round;stroke-miterlimit:10;}
	.st12{fill:#FFFFFF;}
	.st13{fill:#FFFCCB;stroke:#000000;stroke-width:2;stroke-linecap:round;stroke-linejoin:round;stroke-miterlimit:10;}
	.st14{fill:#FDC663;stroke:#000000;stroke-width:1.5;stroke-linecap:round;stroke-linejoin:round;stroke-miterlimit:10;}
	.st15{fill:#4D7450;stroke:#000000;stroke-width:1.5;stroke-linecap:round;stroke-linejoin:round;stroke-miterlimit:10;}
	.st16{fill:none;stroke:#000000;stroke-width:1.5;stroke-linecap:round;stroke-linejoin:round;stroke-miterlimit:10;}
	.st17{fill:none;stroke:#000000;stroke-width:3;stroke-linecap:round;stroke-linejoin:round;stroke-miterlimit:10;}
</style>
<path class="st0" d="M99.4,479.2c0,0-18.8,14.3-11.8,15.3s17.3-3.8,22.5-4s9.3,0.8,7.5-12.5S99.4,479.2,99.4,479.2z"/>
<path class="st0" d="M133.9,476.2c0,0-2.3,10,3,10.3s12.5,1.8,19.8,4.8s11.8-5.8-8.3-15H133.9z"/>
<path class="st1" d="M80.3,364.5l-11.3,11.9c0,0-1.6,2.3,5.7-0.4c0,0-7.8,7.2-5.3,6.7s7.1-4.4,7.4-4.9s-4.6,10.8-2.2,8.5
	s6.1-6.6,6.1-6.6s-0.6,11.5,1.5,6.9c2.1-4.6,3.3-8,3.3-8s4.1,2.7,5.9,1.3c1.7-1.3-1.8-2.4-2.7-3.8c-1.1-1.9-1.2-10.1-1.2-10.1
	L80.3,364.5z"/>
<path class="st2" d="M101.3,366.7l-5.6,113.5c0,0,11.8,7.8,24.3,0l2.3-83l9,84c0,0,12,3.5,22-4l-10.8-108.8L101.3,366.7z"/>
<path class="st1" d="M180.1,312.6c0,0,8.3-7.3,8.6-11.3s3.1-13.6,3.1-13.6h7.1l3,8.1c0,0-1,8.9-4.1,11.5s-11.5,12.8-11.5,12.8
	l-4.6-2L180.1,312.6z"/>
<path class="st1" d="M214.7,189c0,0-10.5,23.3-14.8,58.5c0,0-1.3,9.5-4.3,15.3c-2.6,5.1-7.6,25.3-5.2,32.3c0.3,1,1.7,0.9,2-0.1
	l3.6-12.2c0,0-2.5,29,1.5,19.3c4.5-11.1,5-16.8,5-16.8s1.3,30.9,4.2,16.9c3.1-15.1,1.9-18.9,1.9-18.9s4.8,26.3,6,13.8
	c1.2-13-0.8-21.5,0-21.8c0.6-0.2,2.9,2.6,4,3.9c0.4,0.5,1.2,0.8,1.8,0.6c1.6-0.5,3.5-3.2-2-15.5c-0.7-1.7-1.7-3.3-2.6-4.8
	c-1.4-2.2-3.2-6.9-0.2-14.2c4.3-10.3,21.5-53.8,21.5-53.8L214.7,189z"/>
<path class="st3" d="M114.2,298.7c0,0-16.5,4.3-24.5,30.3s-11.5,36.8-11.5,36.8s7,4.5,10.3,2.5l12.8-30.5l-3.1,42
	c0,0,35.8,4.3,48.4-1.3l-1.8-47.7c0,0,12.5,21.3,29,5.8l16.2-16.8c0,0-8.4-3.8-8.9-10.3l-19,13.3c0,0-19.3-25.3-30.3-24
	C131.7,298.7,124.7,312.7,114.2,298.7z"/>
<path class="st4" d="M85.4,343c0,0,6.6-1.5,11.7,4.6"/>
<path class="st4" d="M82.6,351.7c0,0,9-0.1,11,4"/>
<line class="st4" x1="101.3" y1="326.1" x2="101.2" y2="337.7"/>
<path class="st4" d="M100.8,343.3c0,0,27.7,14.5,43.8,0"/>
<path class="st4" d="M101.3,332.5c0,0,24.1,12.7,43.3,1.9"/>
<path class="st4" d="M171.1,316.3c0,0,0.8,7.9,10.4,12.1"/>
<path class="st4" d="M166.4,319.6c0,0,2.1,11,11.7,12.3"/>
<path class="st0" d="M245.7,462.5c0,0-20,28.7-9.7,30c10.3,1.3,31.7,5.3,31.7-5c0-10.3-6-25-6-25H245.7z"/>
<path class="st0" d="M307.1,462.4c-1,0.5-1.7,1.3-2,2.4c-1.8,6.2-7.5,27.9,2.8,29c9.1,1,33.8,3.8,43.5-0.4c3.4-1.4,3.1-6.3-0.4-7.4
	c-3.3-1-8.7-3-17.5-6.7c-10.3-4.4-13.2-12.2-13.8-17.6c-0.3-2.7-3.2-4.3-5.7-3L307.1,462.4z"/>
<path class="st5" d="M242,267.5l-1.3,199.3c0,0,8,7,25.3,0l15-160l22,160.3c0,0,12.7,5.3,22.7-3.7L320,268.8L242,267.5z"/>
<g>
	<path class="st6" d="M346.5,193.2c0,0,3.8,90.3,4.5,92.8s4.5,30.5-8,36c0,0-2.5,0.9-4.5-0.2c-1.2-0.7-1.7-2.1-1.3-3.4
		c1.4-4.8,5.2-19.7-0.5-21.5c0,0-8.7,11.1-6.9,2.1c0.1-0.6,5.3-12.3,5-19.3s-4.3-52-4.3-52l-2.4-33.3L346.5,193.2z"/>
	<path class="st4" d="M347.8,308c0,0-2.1,10.5-6.1,14.2"/>
	<path class="st4" d="M344.8,307c0,0-2.7,11.6-6.2,14.7"/>
</g>
<path class="st7" d="M260.8,120.5c0,0-26.9,4.9-30.4,11.9c-3.5,7-19.5,59.1-19.5,59.1s9.9,11.9,28.9,4.8l-1,75.9
	c0,0,40,25.7,85.7,2.4l2.2-78c0,0,15.5-0.2,20.7-3.3c0,0-2.7-57.3-21.2-64.4c-18.5-7.1-27.8-9.7-27.8-9.7L260.8,120.5z"/>
<path class="st6" d="M265,100.9l1.6,21.6c0,0,9.6,6.5,14.9,14.7c0,0,2-5.9,13.4-16.2l-2-20.1c0,0-8,5.1-11.5,5.3S265,102,265,100.9z
	"/>
<path class="st8" d="M247.9,75.1l64.3-1.4c0,0,10.5-38.8-19-54c-14.8-7.6-27.1-3.6-34.8,2.7c-7.5,6-12.2,14.9-13.5,24.5
	C243.6,56.5,242.9,70.1,247.9,75.1z"/>
<path class="st6" d="M303.7,49.4c-1.9-6.5-6-11.3-14.6-6c-8.8,5.4-15.5,0.7-18.7-0.9c-1.8-0.9-3.8-1.9-5.8-1.6
	c-12.5,1.5-10.7,13.9-10.7,13.9c-2,5.3-2,9.7-2,16.1c0,0.3,0,0.6,0,0.9c-2.4-2.1-6.8-5-8.3,1.5c-1.9,8.4,5.7,14.2,9.7,10
	c3.8,15.3,14.4,26.3,26.9,26.3c12.7,0,23.5-11.4,27.1-27.1v0c6.8,1.7,8-7.6,6.5-11.6c-1-2.6-3.3-1.9-5.3-0.7
	c-0.1-7.9-1.9-15.3-5.1-21.4c0,0,0,0,0,0"/>
<path class="st9" d="M309.4,82.3l-3.2-2.5c0-0.1,0,0,0,0l0,0c0,0.2-0.7,1.2-4.9,6.2c-4.5,5.3-12.7,3.8-16,2.9
	c-0.8-0.2-1.7,0-2.4,0.5c-1.1,0.8-2.9,2-5,2.1c-2.3,0.2-4.5-1-5.8-1.9c-0.8-0.5-1.8-0.6-2.6-0.2c-7.9,3.7-14.6-7.9-14.6-7.9l-3.5,2
	c0.7,14.4,14.1,29.3,28,29.3c14.2,0,27.3-14.3,29.8-28.8C309.3,83.4,309.3,82.9,309.4,82.3z"/>
<path class="st10" d="M285.5,93.4c-1.6,0-5.7,3.3-10.1,1.6c-2.3-0.9-4.4-0.6-6-0.2c0,0.2,0,0.3,0,0.5c0,3,3.5,8.7,8.6,8.7
	c5.1,0,9.2-5.5,9.2-8.5C287.3,94.4,286.6,93.7,285.5,93.4L285.5,93.4"/>
<path class="st9" d="M269.4,60l-3.4-5.1c0,0-12.9,4.1-8.5,10.9C257.5,65.8,264.7,60.5,269.4,60z"/>
<path class="st9" d="M287.3,59.4l3.4-5.1c0,0,12.9,4.1,8.5,10.9C299.2,65.2,292,59.9,287.3,59.4z"/>
<circle class="st11" cx="264.6" cy="73.9" r="7"/>
<circle class="st11" cx="291.4" cy="73.5" r="7"/>
<circle cx="264.4" cy="73.2" r="3.5"/>
<circle class="st12" cx="264.4" cy="73.2" r="0.9"/>
<path class="st11" d="M260.4,71.5c0,0,3.1-3.8,7.8,0"/>
<circle cx="291.3" cy="73.5" r="3.5"/>
<path class="st11" d="M295.3,71.7c0,0-3.1-3.8-7.8,0"/>
<circle class="st12" cx="291.3" cy="73.2" r="0.9"/>
<path class="st11" d="M274.4,65.8c0,0,3.3,15.2,0.3,18.6s4.5,4,6.1,1.9"/>
<path class="st11" d="M271.6,72.1c0,0,5.4-4.2,12.8,0"/>
<path class="st11" d="M272.7,97.1c0,0,4.4,6,11,0"/>
<path class="st13" d="M265.5,117.3l-12.5,4.4c0,0,9.5,16.6,8.5,20.1c0,0,6.7-4.3,17.6-7.8L265.5,117.3z"/>
<path class="st13" d="M295.3,114.3l11.6,5.9c0,0-6.4,15.1-8.4,22.2c0,0-8-8-14.9-7.9L295.3,114.3z"/>
<line class="st4" x1="243.4" y1="158.2" x2="239.8" y2="196.3"/>
<line class="st4" x1="324" y1="155.8" x2="326.7" y2="196.5"/>
<path d="M343.9,131.8l22.2-31.6l6,10.1l62.5-36.7c3-1.8,6.6-1.3,8,1.1c1.4,2.4,0.1,5.8-3,7.6L377.2,119l5.1,8.7L343.9,131.8z"/>
<path class="st14" d="M120,220.9c0,0-3.3-8.7-6.9-11.4c-3.6-2.7-18.2-11.5-29,9.5s-10.6,44.7-4.2,56.7s13.8,24.1,14.3,29
	c0.5,4.9,8.2-2.5,10.8-8.2c2.6-5.6,0-17,0-17l-3-19.5l3-20.7L120,220.9z"/>
<ellipse class="st1" cx="148.2" cy="265.8" rx="3.4" ry="7.7"/>
<path class="st1" d="M115.1,289.5c0.3,0.9,0,11.7,0,11.7s8.8,6.9,17.4-1.1l-1.4-10.6H115.1z"/>
<ellipse transform="matrix(0.9652 -0.2615 0.2615 0.9652 -66.9212 34.2332)" class="st1" cx="95.2" cy="268.6" rx="6.2" ry="7.9"/>
<path class="st15" d="M97,226.1c0,0,0.7-16.4,16.2-8.1l-6.9,8.1H97z"/>
<path class="st1" d="M148.2,261.1c-1.2,18.8-9.7,34.1-24.8,34.1c-14.7,0-27-13.9-29.2-32c2.4-2.1,5.5-5.7,6-10.6
	c0,0,21.9,7.6,30.6,3.3c0,0-4-2.7-4.6-4.3c-0.7-1.7,10.2,1.3,14.5-4.3l4.8,17.9C145.4,265.2,146.7,263.7,148.2,261.1z"/>
<path class="st14" d="M148.2,261.1c-1.5,2.6-2.8,4.1-2.8,4.1l-4.8-17.9c-4.3,5.6-15.2,2.7-14.5,4.3c0.7,1.7,4.6,4.3,4.6,4.3
	c-8.6,4.3-30.6-3.3-30.6-3.3c-0.4,4.9-3.6,8.5-6,10.6c-1.5,1.3-2.7,2-2.7,2l-5.1-11.4c-2.5-5.4-3-11.6-1.3-17.3
	c4.5-15.2,19.8-13.8,19.8-13.8c26.7-18.6,42.4,5.8,42.4,5.8C156.4,242.6,151.8,255,148.2,261.1z"/>
<path class="st16" d="M100.1,242.3c0,0,0.4,8.5,0.1,10.3"/>
<path class="st16" d="M117.1,240.4c0,0,6.1,11.2,10.1,10.6"/>
<path class="st16" d="M128.4,234.8c0,0,3.8,10,12.2,12.5"/>
<path class="st16" d="M108.9,225.2c0,0,37.2-14.4,39.3,25.2"/>
<path class="st16" d="M100.1,229.5c0,0-13.9,4.8-8.5,35.7"/>
<ellipse cx="110.9" cy="266.3" rx="2.8" ry="4.9"/>
<g>
	<path d="M103.3,264c1.4-0.1,2.8-0.4,4.1-0.8c0.6-0.2,1.2-0.6,1.8-0.8c0.6-0.2,1.2-0.4,2-0.6l0,0c0,0,0.1,0,0.1,0.1c0,0,0,0,0,0
		c-0.3,0.8-0.8,1.4-1.5,1.8c-0.7,0.4-1.4,0.5-2.2,0.6c-1.5,0.2-3,0.2-4.4-0.2C103.2,264.2,103.2,264.1,103.3,264
		C103.2,264,103.2,264,103.3,264L103.3,264z"/>
</g>
<path class="st16" d="M113.2,260.3c0,0-6.7-3.3-9.5,1.9"/>
<ellipse cx="133.3" cy="265.7" rx="2.8" ry="4.9"/>
<g>
	<path d="M141,263.5c-1.4,0.4-2.9,0.4-4.4,0.2c-0.7-0.1-1.5-0.2-2.2-0.6c-0.6-0.4-1.2-1-1.5-1.8c0,0,0-0.1,0.1-0.1c0,0,0,0,0,0l0,0
		c0.8,0.1,1.4,0.4,2,0.6c0.6,0.2,1.2,0.6,1.8,0.8c1.3,0.5,2.7,0.7,4.1,0.8l0,0C141,263.4,141,263.4,141,263.5
		C141,263.5,141,263.5,141,263.5z"/>
</g>
<circle class="st12" cx="133.3" cy="265.1" r="1.1"/>
<circle class="st12" cx="111.3" cy="265.1" r="1.1"/>
<path class="st16" d="M131.1,259.6c0,0,6.7-3.3,9.5,1.9"/>
<path class="st16" d="M120.1,273.1c0,0,4.2-2.2,6.2,0"/>
<path class="st16" d="M115.1,280.7c0,0,10.5,13.5,16.6-1.2"/>
<line class="st17" x1="38.1" y1="494.6" x2="445.1" y2="494.6"/>
</svg>
