<?xml version="1.0" encoding="utf-8"?>
<!-- Generator: Adobe Illustrator 22.1.0, SVG Export Plug-In . SVG Version: 6.00 Build 0)  -->
<svg version="1.1" id="Слой_4" xmlns="http://www.w3.org/2000/svg" xmlns:xlink="http://www.w3.org/1999/xlink" x="0px" y="0px"
	 viewBox="0 0 512 512" style="enable-background:new 0 0 512 512;" xml:space="preserve">
<style type="text/css">
	.st0{fill:#857154;}
	.st1{fill:#FDCD95;}
	.st2{fill:#FDCD95;stroke:#000000;stroke-width:3;stroke-linecap:round;stroke-linejoin:round;stroke-miterlimit:10;}
	.st3{fill:none;stroke:#1D1D1B;stroke-width:3;stroke-linecap:round;stroke-linejoin:round;stroke-miterlimit:10;}
	.st4{fill:none;stroke:#000000;stroke-width:3;stroke-linecap:round;stroke-linejoin:round;stroke-miterlimit:10;}
	.st5{fill:#F6F6F6;}
	.st6{fill:#B5D758;stroke:#000000;stroke-width:3;stroke-linecap:round;stroke-linejoin:round;stroke-miterlimit:10;}
</style>
<g>
	<path d="M199.3,193.9c0,0,18.3-6.7,36.3-3.2l0.3,22.5c0,0-31.7-11.4-31.4-12.2S199.3,193.9,199.3,193.9z"/>
	<path d="M293.3,185.3c0,0,30.8,10.9,39.2,16.9l-8.9,12l-24.2,9l-5.4-6.2l0-5.2L293.3,185.3z"/>
	<path class="st0" d="M293.3,185.4v5.3l14.5,3.4l17.7-2.4l13.7-7.6l13-15.7c0,0,10.6-16.3,10.5-32.6c-0.1-16.2-1.1-27.2-1.1-27.2
		s-4.1-25.6-8.5-31.2c-4.4-5.6-8.1-20.9-13.2-23.8s-9.8-16.4-19.1-19.9l-14.5-8.7l-11.9-3.8L279,20.2l-3,2l-9.3-3.3l-8-1l-12,2.2
		l-4.6,2.3l-7.5-0.2l-17.2,5l-10.7,7l-14.3,15l-11,20.3c0,0-4.7,12.7-5.4,15.6c-0.8,2.9-5,31.3-4.6,37.4c0.4,6.1,4.2,28.8,6.5,34.2
		c2.3,5.4,9.5,17.8,10.8,19.5c1.4,1.6,11.5,12.9,20.4,14.4c8.9,1.6,12.5,2.8,17.5,3c5,0.2,9.1-1.9,9.1-1.9l8.3-16.8l27.1-0.8
		c0,0,12.3,3.5,13.3,3.8c1.1,0.3,9,3.5,9,3.5V185.4z"/>
	<path class="st1" d="M295.2,221.5l-12.6,4.9l-16,2.3c0,0-18.2-0.7-23.4-3.6s-7.6-4.6-7.6-4.6l1.2-34.5c0,0-20.9-11.1-27.8-23.3
		c-6.9-12.2-10.5-22.7-10.5-22.7l-2.3-23.3l6.4-6.9l5.1-9.3l4.6,3.2l5.1,0.6l7.5-9.3l6-13.3l2.3,5.3l5,3.2l3.9-3.4l6.5-13.5l0.3,7.2
		l3.2,3.1l5.6-0.5l5.4-5.5l4.7,3.1l4.3,3.4l5.3,0.7l5.1-4.4l4.7-7.1l2.3,6.8l4.9,9.5l2.7,4h2.9l5.5-4.2l3,9.2l3.5,4.5l6.4-0.9
		l2.2,7.9l2.8,4.4l5.5-0.6l2.8-3.5l0.6,16.2l-6.1,24.5l-10.9,17L298.3,183l-6.6,3.1L295.2,221.5z"/>
	<path class="st2" d="M331.7,110.2c0.9-0.3,1.8-0.4,2.7-0.3c5.5,0.6,9.1,8.5,8.1,17.7c-1.1,9.1-6.4,16-11.9,15.4
		c-0.4-0.1-0.9-0.1-1.3-0.3"/>
	<path class="st3" d="M196.1,115.2c0,0.4,0,0.8,0,1.4"/>
	<path class="st4" d="M200.7,146.9c3.5,9.4,8.9,17.8,15.7,24.7c5.6,5.7,12.1,10.4,19.2,13.9c8.7,4.2,18.4,6.5,28.7,6.5
		c10.3,0,20-2.3,28.7-6.5c7.4-3.6,14.1-8.5,19.8-14.4c7.5-7.9,13.3-17.5,16.6-28.3c2.1-6.8,3.2-14,3.2-21.5c0-3.7-0.3-7.4-0.8-11"/>
	<path class="st4" d="M235.6,185.4L235.6,185.4v6.4v2v26.7c26.8,19.9,59.6,1,59.6,1"/>
	<polyline class="st4" points="295.2,221.5 293.3,190.7 293,185.4 293,185.4 	"/>
	<path class="st2" d="M200.7,146.9c-0.8,0.6-1.7,1.1-2.7,1.3c-5.4,1.2-11.4-5.2-13.3-14.2c-1.9-9,0.9-17.2,6.3-18.4
		c1.7-0.4,3.4,0,5,0.9c0,1.5,0,3.5,0,4.6C196.1,130.3,197.7,138.9,200.7,146.9z"/>
	<path class="st3" d="M196.2,116.7c-0.1,0-0.1-0.1-0.2-0.1"/>
	<path class="st4" d="M235.6,191.8c-6.3,2.1-12.8,2.7-19.3,1.6c-31.5-5.1-50.9-47.4-43.3-94.5c7.5-46.3,38.2-80.1,69.1-76.4"/>
	<path class="st4" d="M274.2,21.8c32.2-8.3,69.1,21.4,83.1,67.5c14.3,46.9-0.6,93-33.2,102.9c-10,3-20.6,2.3-30.8-1.5"/>
	<path class="st3" d="M242.1,22.4c4.7-2.8,10.4-4.5,16.6-4.5c5.7,0,11,1.4,15.5,3.9"/>
	<path class="st4" d="M187.8,74.6c0,0-1.4,66.6,16.7,29.5c0,0,2-3.6,4.4-7.9c3.2-5.8,7.2-12.9,8.4-14.5"/>
	<path class="st4" d="M331.7,110.2c0,0-8.6,15.6-13.2-8.2c0,0-8.9,7.8-12.1-11.7"/>
	<path class="st4" d="M309.9,74.6c0,0-4.6,32.4-16.9,12.8c0,0-6.2-11.4-6.2-17.8c0,0-6.1,29.5-22.5,6.8c0,0-17,19.6-15.6-5
		c0,0-9.6,34.4-17.8,10.3c0,0-12.5,36.6-23.2,16.7"/>
	<path class="st4" d="M323.4,46.8c0,0,16,24.6,17.8,46.6"/>
	<path class="st4" d="M217.4,49.3c0,0-14.5,12.1-16.7,29.5"/>
	<ellipse cx="239.9" cy="120" rx="6.8" ry="11.9"/>
	<circle class="st5" cx="240.1" cy="116.6" r="3.8"/>
	<ellipse cx="287.6" cy="118.7" rx="6.8" ry="11.9"/>
	<path class="st4" d="M225.4,118.7c0-1.6,12.8-17.9,25.6-4.9"/>
	<circle class="st5" cx="287.6" cy="116.6" r="3.8"/>
	<path class="st4" d="M301.6,117.3c0-1.6-12.8-17.9-25.6-4.9"/>
	<path class="st4" d="M222.5,108c0,0,11.9-9.2,24.2-7.3"/>
	<path class="st4" d="M277.4,98.9c0,0,15.5-3.3,24.2,8.5"/>
	<path class="st4" d="M257.7,137.6c0,0,8.8-7.5,16.5,0"/>
	<path class="st4" d="M243.9,156.8c0,0,20.1,39,45.6,0"/>
	<path class="st2" d="M355.6,316c0,0,20,113.5,41,141.5c0,0,18.5-2.5,21-7s-22-125.5-31-141s-27.5-3.5-27.5-3.5L355.6,316z"/>
	<path class="st2" d="M135.8,262l-35.1,48.3c-3.4,4.7-6.2,9.9-8.1,15.4c-3.9,11.4-5.2,27,19.2,22.4c8.5-1.6,16.5-5,23.6-9.8
		l44.8-30.3l6-28.7c0,0-20.7-7.7-21-9.3c-0.3-1.7-15.7-8-15.7-8H135.8z"/>
	<path class="st6" d="M331.5,269.5c0,0,47.4,186.9,41.9,195.4s-213.7,19.1-219-8l23.5-158c0,0-39-20.8-52-32.6
		c-2.6-2.4-2.9-6.4-0.7-9.1c9.2-11.6,35.9-44.1,59.3-58.1c10.5-6.2,23.8-5.7,33.2,2.1c0.4,0.3,0.7,0.6,1,0.9
		c3.7,3.3,34.9,34.2,97.7,3.3c0,0,36.9-17.5,57.5,39.5c19.4,53.9,31.7,74.8,13,79.4c-2.5,0.6-4.9,1.3-7.3,2.2
		c-8.5,3.2-28.4,9.2-31.2-2.5C344.9,308.9,331.5,269.5,331.5,269.5z"/>
	<path class="st2" d="M221.8,311c0,0-31-3.7-35.7,15c0,0,0,5.2,16,3c22.1-3,21,1.4,26.7,0c8.4-2.1,15.7-6.7,9-26.7
		c-6.7-20-13-33-7.3-40.3c5.7-7.3,17-11.3,18-18.3s0.3-17-15.3-18c0,0-15.7-2.7-13.7,16.3c0,0-16-17.7-34.2,0.7
		c0,0-18.8-6.7-20.8,4.7c0,0-25-11.3-19.3,26c5.7,37.3,11.3,39.7,14.7,23.7c0,0,11.3,28.7,18-3.7c0,0,6.3,22.3,16,19
		C203.4,309,214.1,306.7,221.8,311z"/>
	<path class="st4" d="M201.8,255c0,0-5.3,17.5,1.6,34.6c1.4,3.4,2.4,6.9,2.7,10.5c0.3,3.3,0.2,6.9-1.4,9.2"/>
	<path class="st4" d="M215.4,288c0,0,6-15.7,10.3-23.7c4.3-8,16.9-12.7,17.6-13.4"/>
	<line class="st4" x1="178.8" y1="260" x2="177.8" y2="293.4"/>
	<line class="st4" x1="160.8" y1="255" x2="159.8" y2="297"/>
	<path class="st4" d="M118.7,311.3c0,0,18.1-17.6,30.2-18"/>
</g>
</svg>
