<?xml version="1.0" encoding="utf-8"?>
<!-- Generator: Adobe Illustrator 22.1.0, SVG Export Plug-In . SVG Version: 6.00 Build 0)  -->
<svg version="1.1" id="Слой_5" xmlns="http://www.w3.org/2000/svg" xmlns:xlink="http://www.w3.org/1999/xlink" x="0px" y="0px"
	 viewBox="0 0 512 512" style="enable-background:new 0 0 512 512;" xml:space="preserve">
<style type="text/css">
	.st0{fill:#FDCD95;stroke:#000000;stroke-width:3;stroke-linecap:round;stroke-linejoin:round;stroke-miterlimit:10;}
	.st1{fill:#816164;stroke:#000000;stroke-width:3.1589;stroke-linecap:round;stroke-linejoin:round;stroke-miterlimit:10;}
	.st2{fill:#8A242E;stroke:#000000;stroke-width:3;stroke-linecap:round;stroke-linejoin:round;stroke-miterlimit:10;}
	.st3{fill:none;stroke:#000000;stroke-width:3;stroke-linecap:round;stroke-linejoin:round;stroke-miterlimit:10;}
	.st4{fill:#662227;stroke:#000000;stroke-width:3;stroke-linecap:round;stroke-linejoin:round;stroke-miterlimit:10;}
	.st5{fill:none;stroke:#000000;stroke-width:2;stroke-linecap:round;stroke-linejoin:round;stroke-miterlimit:10;}
	.st6{fill:#FFAFB9;}
	.st7{fill:#FFFFFF;}
</style>
<g>
	<path class="st0" d="M164.8,458.7l-2.8,34.6l-25.5,0.9c0,0,5.2-37.2,9-42.8C149.3,445.7,164.8,458.7,164.8,458.7z"/>
	<path class="st1" d="M172,409.9l0.5,82.6c0,0,94,23.8,146.5-1.1v-79.3L172,409.9z"/>
	<path class="st2" d="M217,200.9c0,0-61-3.5-70,50.5s-11,215-11,215s30,6,34,0l0.5-7.5c0,0,94.5,25.5,151.5-8.5v-68
		c0,0,32,34,48.5,15.5s-3.5-197-76.5-197S217,200.9,217,200.9z"/>
	<path class="st3" d="M361.5,355.9c0,0-15.5-41.5-39-51c0,0-1,29-22,33.5c0,0,8.2,31.4,25.6,48"/>
	<line class="st3" x1="326" y1="267.9" x2="328" y2="304.9"/>
	<line class="st3" x1="162.5" y1="255.4" x2="170.5" y2="458.9"/>
	<path class="st0" d="M241.6,167.7c0,0,8.5,19.7-24.5,33.2c0,0,49.8,52.5,74.5,0c0,0-16.4-5.4-15.2-37.7L241.6,167.7z"/>
	<path class="st4" d="M223.2,148.1c0,0-11-8.3-17-5c-6,3.3-9.9-6.5-11.1-10.3c-0.8-2.6-6.2-6.2-9.9-9.7c-2.4-2.3-3.9-10.6-3.7-14
		c0.4-5.6-0.6-13.5-3-17.7c-1.6-2.8-3.7-14,1.7-18c5.3-4,9.3-17.7,9-22.3c-0.3-4.7,4-14.3,15.2-14c7.5,0.2,19.8-10,21.8-15.7
		s22.8-22,33.7-4c0,0,19-3.7,29.3,8.7s20.7,11.3,20.7,11.3s13.7,3.7,10,18.8c-3.7,15.2,1.7,19.9,5.3,22.4s7.7,13.4,4.7,19.8
		c-3,6.3-7,20.7-7,23.7s-0.5,15-7.8,18.7s-12.8,7.9-15.6,12c-2.1,3-16,4.7-17,2s-11,3.3-11,3.3s-4,5.7-6,6.3c-2,0.7-18.7,1.7-20.3,0
		c-1.7-1.7-14.3-6-14.7-7S223.2,148.1,223.2,148.1z"/>
	<path class="st0" d="M218.4,66.7c5.8-1,16.4-5.2,20.1-9.7c0.4-0.4,0.7-0.9,1.1-1.4c6.7-8.3,11.3-9.3,14.3-11c2-1.1,6.8-3.8,8.9-7.3
		c1-1.7,0-3.6,0.7-5.7l-1.7,7c34.7-7,16.2,33.7,26.5,37.7c10.3,4,15,12.4,15,12.4l-4.2,4.8c3-3.5,8.4-8.3,12.6-4.2
		c6,5.7,7.5,28.8-13.4,37.3c-5.3,28.5-22.3,49.4-42.5,49.4c-20.7,0-38.1-22.1-42.9-51.8c-16.7-4.8-22.2-24.4-15.3-32.8
		c5.7-6.9,12.1-2.9,15.3,0c1.5-9.1,4.1-17.5,7.7-24.7"/>
	<path class="st3" d="M298.6,56.1c0,0,1.6-10.3-6.4-12.7c-8-2.3-10-6.6-10.7-9.3c-0.8-3-5.9-11.3-17.1-9"/>
	<path class="st5" d="M243.6,91.2c0,0,5.7,20.6,2.2,32.7c-0.6,2.1,0.3,4.3,2.3,5.2c2.1,0.9,5.2,1.5,9.4,0.1"/>
	<path class="st5" d="M260.7,118.2c0,0,3,4.4,2.5,8.3"/>
	<path class="st5" d="M201.2,96.1c0,0,6.4,9.1,7.8,14.1"/>
	<path class="st5" d="M199.7,103.6c0,0,4.6-1.5,6.3,0"/>
	<path class="st5" d="M308.8,99.4c0,0-6.4,9.1-7.8,14.1"/>
	<path class="st5" d="M310.3,106.9c0,0-4.6-1.5-6.3,0"/>
	<path class="st3" d="M259.9,17.4c0,0,2,3.2,3.2,7c0.7,2.3,1.1,4.9,0.5,7.2"/>
	<path class="st3" d="M221.7,46.2c0,0,6.5-10.3,13.6-11.5c7.1-1.2,13-3.7,14.2-5.6c2.1-3.4,8.1-8.9,11.2-8.4"/>
	<polygon points="240.3,148.5 271.6,146.5 265,156.6 255,156.6 244.4,155 	"/>
	<path class="st6" d="M244.4,155c0,0,14.7-2.2,22.4,0c0,0-9.3,9.7-20.1,2.2C236,149.7,244.4,155,244.4,155z"/>
	<path class="st7" d="M240.3,148.5c0,0,15,5.5,30.9-0.9c0,0,1.3-4.7-1.3-4.1c-2.6,0.6-28.1,2.8-30.6,0.5
		C236.8,141.7,240.3,148.5,240.3,148.5z"/>
	<path class="st0" d="M306,336.6c0,0-4.9-4.6-26.9-8.1c0,0-6.5-1.8-6.3-5.3c0,0-7,1.5-4.8-6c0,0-5.9-1.5-0.4-10.3
		c0,0-11.8-15.5,4.9-16.3c0,0-37-33.3-15-28.3s65,42.5,65,42.5S317.9,333.7,306,336.6z"/>
	<line class="st3" x1="274" y1="314.7" x2="272.8" y2="323.2"/>
	<line class="st3" x1="271.3" y1="306.4" x2="268" y2="317.2"/>
	<line class="st3" x1="269.7" y1="297.7" x2="267.6" y2="306.9"/>
	<path class="st3" d="M272,142.9c-11.9,3.8-25.5,2.2-32.7,0.9c0,0.1,0,0.1,0,0.2c0,6.1,6.8,16.4,16.5,16.4c9.7,0,16.2-11,16.2-17.1
		C272,143.2,272,143.1,272,142.9z"/>
	<path class="st3" d="M263.5,83.4c0,0,12.3,0,20.8,7.5"/>
	<path class="st3" d="M219.5,90.9c0,0,11.1-5.5,19.8-5.3"/>
	<ellipse cx="230.4" cy="107.1" rx="5.1" ry="7.1"/>
	<circle class="st7" cx="230.4" cy="107.1" r="2.6"/>
	<path class="st3" d="M220.7,105.3c0,0,8.6-9.7,18.7-0.8"/>
	<ellipse cx="276.7" cy="107.1" rx="5.1" ry="7.1"/>
	<circle class="st7" cx="276.7" cy="107.1" r="2.6"/>
	<path class="st3" d="M286.5,105.3c0,0-8.6-9.7-18.7-0.8"/>
</g>
</svg>
