<?xml version="1.0" encoding="utf-8"?>
<!-- Generator: Adobe Illustrator 22.1.0, SVG Export Plug-In . SVG Version: 6.00 Build 0)  -->
<svg version="1.1" id="Слой_8" xmlns="http://www.w3.org/2000/svg" xmlns:xlink="http://www.w3.org/1999/xlink" x="0px" y="0px"
	 viewBox="0 0 512 512" style="enable-background:new 0 0 512 512;" xml:space="preserve">
<style type="text/css">
	.st0{fill:#B5D758;stroke:#000000;stroke-width:3;stroke-linecap:round;stroke-linejoin:round;stroke-miterlimit:10;}
	.st1{fill:none;stroke:#000000;stroke-width:3;stroke-linecap:round;stroke-linejoin:round;stroke-miterlimit:10;}
	.st2{fill:#FFEC63;stroke:#000000;stroke-width:2;stroke-linecap:round;stroke-linejoin:round;stroke-miterlimit:10;}
	.st3{fill:#FFEC63;stroke:#000000;stroke-width:3;stroke-linecap:round;stroke-linejoin:round;stroke-miterlimit:10;}
	.st4{fill:#FFF1AB;stroke:#000000;stroke-width:2;stroke-linecap:round;stroke-linejoin:round;stroke-miterlimit:10;}
	.st5{fill:#FFFFFF;stroke:#000000;stroke-width:3;stroke-linecap:round;stroke-linejoin:round;stroke-miterlimit:10;}
	.st6{fill:#E08871;stroke:#000000;stroke-width:3;stroke-linecap:round;stroke-linejoin:round;stroke-miterlimit:10;}
</style>
<path class="st0" d="M402.2,95.6c0.8-0.5,23.4-23.9,33.3-29.1c0,0,20.8,20.8,4.8,65.4h-17.5l-17.7-16.4L402.2,95.6z"/>
<path class="st1" d="M435.4,71c0,0-6.4,28.9-11.2,40.9"/>
<path class="st0" d="M368.6,130.2c0,0-16.1-33-6.6-69.1c0,0,52.2,2,54.2,61L368.6,130.2z"/>
<path class="st1" d="M366.7,66.6c0,0,25.9,31.1,27,50.4"/>
<path class="st2" d="M479.3,188.5c0,33.1-33,59.7-66.1,62.2c-34.6,2.7-61-3.1-61-36.2s22-106.3,53.8-106.3S479.3,155.4,479.3,188.5z
	"/>
<path class="st3" d="M355.4,123.3C318.5,102,276.9,102.4,253,122c-9.6-4.3-20.6-1.6-25.4,6.7s-1.7,19.2,6.9,25.3
	c-5,30.5,15.5,66.8,52.4,88.1c44.4,25.6,95.7,19.8,114.7-13S399.8,148.9,355.4,123.3z"/>
<ellipse transform="matrix(0.2414 -0.9704 0.9704 0.2414 122.952 511.6799)" class="st4" cx="388.8" cy="177.2" rx="71" ry="43.7"/>
<path class="st5" d="M392.8,167l21.1-26.5c3.9-4.9,1.7-12.2-4.2-14.2l-5.8-1.9c-6-2-12.1,2.5-11.9,8.8L392.8,167z"/>
<path class="st5" d="M384.1,188.4l2.3,33.8c0.4,6.3-5.5,11.1-11.5,9.3l-5.9-1.7c-6-1.7-8.5-9-4.8-14L384.1,188.4z"/>
<path class="st5" d="M389.8,186.8l23.8,16.5c5.2,3.6,5.2,11.2,0.1,14.8l-2.2,1.6c-5.1,3.6-12.3,1.1-14-5L389.8,186.8z"/>
<path class="st5" d="M380.4,183.4l-27.4,9.4c-5.9,2-8.1,9.4-4.1,14.3l1.7,2.1c4,4.9,11.6,4.4,14.8-1L380.4,183.4z"/>
<path class="st5" d="M384.8,171.9l-21-19.9c-4.6-4.3-3.5-11.9,2.2-14.7l2.4-1.2c5.6-2.8,12.3,0.8,13.1,7L384.8,171.9z"/>
<path class="st5" d="M393.6,176.6l28.5-5.2c6.2-1.1,9.4-8.1,6.2-13.5l-1.4-2.4c-3.2-5.4-10.8-6-14.8-1.2L393.6,176.6z"/>
<path class="st5" d="M395.8,181.9l18.4,14.5c4.1,3.2,10,1.4,11.7-3.5l0.6-1.9c1.6-4.9-2.1-9.9-7.3-9.8L395.8,181.9z"/>
<path class="st5" d="M380.8,176.9l-22,8c-4.8,1.8-10-1.8-10-7v-2c0-5.2,5.1-8.7,10-7L380.8,176.9z"/>
<circle cx="459.6" cy="176.9" r="5.5"/>
<circle cx="457.5" cy="192" r="5.5"/>
<circle cx="425.2" cy="236.9" r="5.5"/>
<circle cx="257" cy="192" r="5.5"/>
<circle cx="268" cy="202.9" r="5.5"/>
<circle cx="271.3" cy="186.5" r="5.5"/>
<g>
	<path class="st6" d="M33.8,271.5c0,0,36.1,78.8,138.3,78.8c102.2,0,140.5-79.9,140.5-79.9s-45.4,21.6-140.5,18.7
		S33.8,271.5,33.8,271.5z"/>
	<path class="st6" d="M306.3,273c0,0-14.7,7.1-31.8,11.3c-10.4,2.6-25.5,5.2-47.4,6.9c-22,1.8-35.7,3.5-44.3,5
		c-14,2.4-14.3,4.1-14.3,4.1s-6-1.3-15.1-3c-7.1-1.3-16.1-2.9-25.7-4.1c-11.8-1.6-24.4-2.8-35.4-2.7c-11.9,0.1-22.7-3-31.5-6.9
		c-13.7-6-25.9-10.9-27-11.9c0,0,0.1,0,0.1,0c0.1,0,0.2,0.1,0.3,0.1c0,0,0,0,0.1,0c3.2,0.9,18.3,3.5,29.9,0.6
		c10.3-2.6,31.2-22.1,70.5-30.5c6.5-1.4,13.2,0,18.5,4c5,3.7,11.1,5.9,17.8,5.9c6.7,0,12.9-2.2,17.9-6c5.2-3.9,11.8-5.4,18.2-4.1
		C250.3,250.4,278.6,272.7,306.3,273C306.3,273,306.3,273,306.3,273z"/>
	<path class="st1" d="M168.5,300.2c0,0,27.9-5.8,40.4-18.5"/>
	<path class="st1" d="M155.7,298.1c0,0-23.7-8.3-22.7-20.9"/>
	<path class="st1" d="M195.4,293.2c0,0,35.4-2.2,42.6-11.5"/>
	<path class="st1" d="M147.4,296.4c0,0-44.2-4.2-46.5-19.2"/>
</g>
</svg>
