<?xml version="1.0" encoding="utf-8"?>
<!-- Generator: Adobe Illustrator 22.1.0, SVG Export Plug-In . SVG Version: 6.00 Build 0)  -->
<svg version="1.1" id="Слой_8" xmlns="http://www.w3.org/2000/svg" xmlns:xlink="http://www.w3.org/1999/xlink" x="0px" y="0px"
	 viewBox="0 0 512 512" style="enable-background:new 0 0 512 512;" xml:space="preserve">
<style type="text/css">
	.st0{fill:#F6F6F6;stroke:#000000;stroke-width:4;stroke-linecap:round;stroke-linejoin:round;stroke-miterlimit:10;}
	.st1{fill:none;stroke:#000000;stroke-width:4.1379;stroke-linecap:round;stroke-linejoin:round;stroke-miterlimit:10;}
	.st2{fill:#C6C6C6;stroke:#000000;stroke-width:4;stroke-linecap:round;stroke-linejoin:round;stroke-miterlimit:10;}
	.st3{fill:#B8EBFF;stroke:#000000;stroke-width:4;stroke-linecap:round;stroke-linejoin:round;stroke-miterlimit:10;}
	.st4{opacity:0.43;fill:#FFFFFF;}
	.st5{opacity:0.29;}
	.st6{fill:#FFFFFF;stroke:#000000;stroke-width:1.2454;stroke-linecap:round;stroke-linejoin:round;stroke-miterlimit:10;}
	.st7{fill:#E08871;stroke:#000000;stroke-width:3;stroke-linecap:round;stroke-linejoin:round;stroke-miterlimit:10;}
	.st8{fill:none;stroke:#000000;stroke-width:3;stroke-linecap:round;stroke-linejoin:round;stroke-miterlimit:10;}
</style>
<g>
	<ellipse class="st0" cx="394.7" cy="135.4" rx="38.3" ry="13.3"/>
	<path class="st1" d="M435,154.6c0-0.3,0-0.6-0.1-0.9"/>
	<path class="st1" d="M354.2,153.6c-0.1,0.4-0.1,0.7-0.1,1.1"/>
	<path class="st2" d="M435,154.6c0,3.3-3.7,6.4-9.8,8.7c-7.4,2.8-18.4,4.6-30.6,4.6c-12.3,0-23.3-1.8-30.7-4.6c0,0,0,0,0,0
		c-6.1-2.3-9.8-5.4-9.8-8.7l0.1-1.1l0,0l2.2-18.1c0,7.3,17.2,13.3,38.3,13.3c21.2,0,38.3-6,38.3-13.3l1.9,18.2l0,0.1L435,154.6z"/>
	<path class="st2" d="M435,154.6l0,17.3c0,1.1-0.4,2.1-1.1,3.1c-4.3,5.8-20.3,10.2-39.3,10.2c-20.9,0-38.1-5.2-40.3-11.9
		c-0.1-0.5-0.2-0.9-0.2-1.4l0-17.3c0,3.3,3.7,6.3,9.8,8.7c0,0,0,0,0,0c7.4,2.8,18.4,4.6,30.7,4.6c12.3,0,23.2-1.8,30.6-4.6
		C431.3,161,435,158,435,154.6z"/>
	<path class="st3" d="M406.2,340.1h-29.6c-32.7,0-57.4-26.1-51.6-54.5l18.8-92.1c1.5-7.6,5.2-14.4,10.4-20.1
		c2.1,6.7,19.3,11.9,40.3,11.9c19.1,0,35-4.3,39.3-10.2c4.7,5.7,8,12.4,9.2,19.8l15.1,92.2C462.7,315.1,438.2,340.1,406.2,340.1z"/>
	<path class="st4" d="M335.9,232.3c0,0,57.5,29.7,112.8-2.9c0,0,21.1,80.3,0,91.5c0,0-21.6,24.5-54.1,19.1c0,0-40.7,2.5-46.8-7.7
		c0,0-13.9-8.3-17.9-17.8c-4-9.4-4.8-28.8,0.5-54.7C335.5,234.1,335.9,232.3,335.9,232.3z"/>
	<g class="st5">
		<g>
			<path d="M370.3,137.3c4,0,4-6.2,0-6.2C366.3,131,366.3,137.3,370.3,137.3L370.3,137.3z"/>
		</g>
	</g>
	<g class="st5">
		<g>
			<path d="M374.4,142.7c0.1,0,0.3,0,0.4,0c1.6,0,3.2-1.4,3.1-3.1c-0.1-1.7-1.4-3.1-3.1-3.1c-0.1,0-0.3,0-0.4,0
				c-1.6,0-3.2,1.4-3.1,3.1C371.4,141.2,372.7,142.7,374.4,142.7L374.4,142.7z"/>
		</g>
	</g>
	<g class="st5">
		<g>
			<path d="M391,145.1c0.1,0,0.3,0,0.4,0c1.6,0,3.2-1.4,3.1-3.1c-0.1-1.7-1.4-3.1-3.1-3.1c-0.1,0-0.3,0-0.4,0
				c-1.6,0-3.2,1.4-3.1,3.1C388,143.7,389.3,145.1,391,145.1L391,145.1z"/>
		</g>
	</g>
	<g class="st5">
		<g>
			<path d="M384,132.3c4,0,4-6.2,0-6.2C380,126.1,379.9,132.3,384,132.3L384,132.3z"/>
		</g>
	</g>
	<g class="st5">
		<g>
			<path d="M397.2,133.9c0.1,0,0.3,0,0.4,0c1.6,0,3.2-1.4,3.1-3.1c-0.1-1.7-1.4-3.1-3.1-3.1c-0.1,0-0.3,0-0.4,0
				c-1.6,0-3.2,1.4-3.1,3.1C394.2,132.5,395.5,133.9,397.2,133.9L397.2,133.9z"/>
		</g>
	</g>
	<g class="st5">
		<g>
			<path d="M401,142.7c0.1,0,0.3,0,0.4,0c1.6,0,3.2-1.4,3.1-3.1c-0.1-1.7-1.4-3.1-3.1-3.1c-0.1,0-0.3,0-0.4,0
				c-1.6,0-3.2,1.4-3.1,3.1C397.9,141.2,399.2,142.7,401,142.7L401,142.7z"/>
		</g>
	</g>
	<g class="st5">
		<g>
			<path d="M418.1,139.7c0.1-0.1,0.3-0.3,0.4-0.4c1.2-1.2,1.2-3.3,0-4.4c-1.2-1.1-3.2-1.2-4.4,0c-0.1,0.1-0.3,0.3-0.4,0.4
				c-1.2,1.2-1.2,3.3,0,4.4C415,140.8,416.9,140.9,418.1,139.7L418.1,139.7z"/>
		</g>
	</g>
	<g class="st5">
		<g>
			<path d="M410.1,132.7c0.3,0,0.6,0,0.8,0c1.6,0,3.2-1.4,3.1-3.1c-0.1-1.7-1.4-3.1-3.1-3.1c-0.3,0-0.6,0-0.8,0
				c-1.6,0-3.2,1.4-3.1,3.1C407.1,131.3,408.4,132.7,410.1,132.7L410.1,132.7z"/>
		</g>
	</g>
	<g class="st5">
		<g>
			<path d="M426.7,137.3c4,0,4-6.2,0-6.2C422.7,131,422.7,137.3,426.7,137.3L426.7,137.3z"/>
		</g>
	</g>
	<g class="st5">
		<g>
			<path d="M385.2,138.5c4,0,4-6.2,0-6.2C381.2,132.3,381.2,138.5,385.2,138.5L385.2,138.5z"/>
		</g>
	</g>
	<path class="st6" d="M471.6,311l-6.6,9.1l-9.5,5l2.7,9.1l-9.3,8.7c0,0,30.7-0.5,33.2-2.1c2.5-1.6,15.4-3.3,15.4-3.3l-7.5-10.6
		l-11.2-9.8l2.5-6.2H471.6z"/>
	<path class="st6" d="M439,327l-6.6,9.1l-9.5,5l2.7,9.1l-9.3,8.7c0,0,30.7-0.5,33.2-2.1c2.5-1.6,15.4-3.3,15.4-3.3l-7.5-10.6
		l-11.2-9.8l2.5-6.2H439z"/>
	<g>
		<path class="st7" d="M23.8,239.4c0,0,36.1,78.8,138.3,78.8c102.2,0,140.5-79.9,140.5-79.9s-45.4,21.6-140.5,18.7
			C67.1,254.1,23.8,239.4,23.8,239.4z"/>
		<path class="st7" d="M296.3,240.9c0,0-14.7,7.1-31.8,11.3c-10.4,2.6-25.5,5.2-47.4,6.9c-22,1.8-35.7,3.5-44.3,5
			c-14,2.4-14.3,4.1-14.3,4.1s-6-1.3-15.1-3c-7.1-1.3-16.1-2.9-25.7-4.1c-11.8-1.6-24.4-2.8-35.4-2.7c-11.9,0.1-22.7-3-31.5-6.9
			c-13.7-6-25.9-10.9-27-11.9c0,0,0.1,0,0.1,0c0.1,0,0.2,0.1,0.3,0.1c0,0,0,0,0.1,0c3.2,0.9,18.3,3.5,29.9,0.6
			c10.3-2.6,31.2-22.1,70.5-30.5c6.5-1.4,13.2,0,18.5,4c5,3.7,11.1,5.9,17.8,5.9c6.7,0,12.9-2.2,17.9-6c5.2-3.9,11.8-5.4,18.2-4.1
			C240.3,218.3,268.6,240.6,296.3,240.9C296.3,240.9,296.3,240.9,296.3,240.9z"/>
		<path class="st8" d="M158.4,268.1c0,0,27.9-5.8,40.4-18.5"/>
		<path class="st8" d="M145.6,265.9c0,0-23.7-8.3-22.7-20.9"/>
		<path class="st8" d="M185.4,261c0,0,35.4-2.2,42.6-11.5"/>
		<path class="st8" d="M137.4,264.2c0,0-44.2-4.2-46.5-19.2"/>
	</g>
</g>
</svg>
