<?xml version="1.0" encoding="utf-8"?>
<!-- Generator: Adobe Illustrator 22.1.0, SVG Export Plug-In . SVG Version: 6.00 Build 0)  -->
<svg version="1.1" id="Слой_5" xmlns="http://www.w3.org/2000/svg" xmlns:xlink="http://www.w3.org/1999/xlink" x="0px" y="0px"
	 viewBox="0 0 512 512" style="enable-background:new 0 0 512 512;" xml:space="preserve">
<style type="text/css">
	.st0{fill:#EDEDED;stroke:#000000;stroke-width:3.3116;stroke-linecap:round;stroke-linejoin:round;stroke-miterlimit:10;}
	.st1{fill:#FFD25B;stroke:#000000;stroke-width:3.3116;stroke-linecap:round;stroke-linejoin:round;stroke-miterlimit:10;}
	.st2{fill:#AAD3E5;stroke:#000000;stroke-width:3.3116;stroke-linecap:round;stroke-linejoin:round;stroke-miterlimit:10;}
	.st3{fill:#FFFFFF;stroke:#000000;stroke-width:3;stroke-linecap:round;stroke-linejoin:round;stroke-miterlimit:10;}
	.st4{fill:#F1B0B5;stroke:#000000;stroke-width:3;stroke-linecap:round;stroke-linejoin:round;stroke-miterlimit:10;}
	.st5{fill:#F1B0B5;stroke:#000000;stroke-width:3.3116;stroke-linecap:round;stroke-linejoin:round;stroke-miterlimit:10;}
	.st6{fill:#CDE080;stroke:#000000;stroke-width:3.3116;stroke-linecap:round;stroke-linejoin:round;stroke-miterlimit:10;}
	.st7{fill:none;stroke:#000000;stroke-width:3.3116;stroke-linecap:round;stroke-linejoin:round;stroke-miterlimit:10;}
	.st8{fill:#795B4C;stroke:#000000;stroke-width:3.3116;stroke-linecap:round;stroke-linejoin:round;stroke-miterlimit:10;}
	.st9{fill:none;stroke:#000000;stroke-width:3;stroke-linecap:round;stroke-linejoin:round;stroke-miterlimit:10;}
	.st10{fill:#2E7553;stroke:#000000;stroke-width:3.3116;stroke-linecap:round;stroke-linejoin:round;stroke-miterlimit:10;}
	.st11{fill:#EB8C30;}
	.st12{fill:#FFFFFF;}
	.st13{fill:#E08871;stroke:#000000;stroke-width:3;stroke-linecap:round;stroke-linejoin:round;stroke-miterlimit:10;}
</style>
<g>
	<g>
		<path class="st0" d="M308.3,281.1l1.9,0.7c1,0.4,2.2-0.2,2.6-1.2l33.2-91.1c0.4-1-0.2-2.2-1.2-2.6l-1.9-0.7
			c-1-0.4-2.2,0.2-2.6,1.2l-33.2,91.1C306.8,279.6,307.3,280.7,308.3,281.1z"/>
		<path class="st1" d="M364.2,76.2c-25.9,1.3-45.8,23.3-44.6,49.2c0.8,16.8,10.4,31.1,24.1,38.7l-8.7,30c0,0,5.5,5.7,9.2,3.7
			l15.8-28.2c2.9,0.4,5.8,0.5,8.8,0.4c25.9-1.3,45.8-23.3,44.6-49.2S390.1,74.9,364.2,76.2z"/>
	</g>
	<g>
		<path class="st2" d="M366.8,249.6c0.6-0.2,3.2-15.8,10.5-16.9c0,0,6.3,0.7,5.6,5.9c-0.7,4.5,4.8,3,5.9,4.2
			c1.1,1.2,0.2,3.2,0.7,5.5c0.4,2,4.3,7.4,1.7,10.1c-0.9,0.8-2.1,1.1-3.3,0.8l-21-5.3V249.6z"/>
		<path class="st2" d="M313.7,270.6c-0.5,0.3-14.3-7.4-19.7-2.3c0,0-3.4,5.3,1.1,8c3.9,2.3-0.6,5.6-0.4,7.3s2.3,2.2,3.9,4
			c1.3,1.5,3.1,8,6.9,7.6c1.2-0.1,2.2-1,2.7-2.1l9-19.7L313.7,270.6z"/>
		
			<ellipse transform="matrix(0.9472 -0.3207 0.3207 0.9472 -65.7445 122.9325)" class="st2" cx="340.3" cy="261.1" rx="30.6" ry="24.9"/>
	</g>
	<g>
		<g>
			<polygon class="st3" points="401.1,183 400.7,217.3 371.4,210.4 371.4,179 			"/>
			<polygon class="st3" points="424.3,175 424.3,204 400.7,217.3 401.1,183 			"/>
			<polygon class="st3" points="424.3,175 401.1,183 371.4,179 393.5,168.2 			"/>
		</g>
		<g>
			<polygon class="st3" points="418.1,204.6 417.7,238.9 388.4,232.1 388.4,200.7 			"/>
			<polygon class="st3" points="441.4,196.6 441.4,225.6 417.7,238.9 418.1,204.6 			"/>
			<polygon class="st3" points="441.4,196.6 418.1,204.6 388.4,200.7 410.5,189.9 			"/>
		</g>
	</g>
	<g>
		<path class="st4" d="M409.3,257.3c0.7-0.5-0.7-21,8.3-24.6c0,0,8.2-1.1,8.8,5.8c0.5,5.9,7,2.4,8.8,3.6s1.2,4,2.5,6.8
			c1.1,2.4,7.7,8.2,5.1,12.3c-0.8,1.3-2.4,2-3.9,2l-28.3-0.5L409.3,257.3z"/>
		<path class="st4" d="M348.2,300c-0.6,0.6-20.3-5.1-25.8,2.9c0,0-2.8,7.8,3.8,9.8c5.7,1.8,0.9,7.3,1.7,9.3c0.8,2,3.6,2.1,6.1,3.9
			c2.1,1.5,6.3,9.3,11,7.6c1.5-0.5,2.5-1.9,2.8-3.4l5.5-27.7L348.2,300z"/>
		
			<ellipse transform="matrix(0.8483 -0.5295 0.5295 0.8483 -90.6597 243.2224)" class="st4" cx="379.1" cy="279.8" rx="39.9" ry="32.4"/>
	</g>
	<path class="st1" d="M235.1,218.2c0,0,52.2,99.5,58.9,56.8c6.4-40.7,0.3-73,0.3-73l-29.6,7.4L235.1,218.2z"/>
	<path class="st1" d="M218,205.9l14.7,23.3c0,0,39.2,2,70.2-29.4l-6.1-30l-80.6,27.3L218,205.9z"/>
	<path class="st5" d="M259.4,115.2C259.4,115.2,259.4,115.2,259.4,115.2c-1.6-4.7-4-9-7.4-12.8c-15.9-18-46.3-17.2-67.8,1.9
		c-21.5,19-26.1,49.1-10.2,67.1c3.8,4.3,8.5,7.6,13.7,9.7c2.9,6,8.2,13.5,16.8,15c0,0,2.3,7.6,3.2,15.9c1,8.3,7-1.8,14.8-5.2
		s12.6,15.6,17.5,13.1c5-2.5-3.7-12.6,1.7-14.8c5.5-2.2,9-0.4,7.7-9.6c-1.4-9.2-10.9-28.1,3.1-31.3c13.9-3.2,19.2-6.5,19.1-19.8
		C271.6,131.1,267.7,118,259.4,115.2z"/>
	<path class="st6" d="M311,154C311,154,311,154,311,154c2-6.4,2.4-13.4,1-20.4c-4.6-22.5-26.6-37.1-49.1-32.5s-37.1,26.6-32.5,49.1
		c1.4,6.9,4.4,13.1,8.6,18.2c-2,7.6-4.9,23.5,3.2,29c10.7,7.4,14.2,6.4,17.3,13.5c3.1,7.1,8.8,0.3,6.5-10.6
		c-2.2-11,2.6-16.4,5.7-8.5c3.1,7.9,6.7,24,11,18c4.4-6-3.3-19.9,4.2-17.8c7.5,2.2,11.9-1.3,16.7-3.4c4.8-2.1,4.3-9.6,7.7-11.3
		c3.4-1.7,5.6,0.1,6.1-8.1C317.9,160.9,310.3,156.7,311,154z"/>
	<path class="st6" d="M309.6,154.9C309.6,154.9,309.6,154.9,309.6,154.9c2-6.4,2.4-13.4,1-20.4c-4.6-22.5-26.6-37.1-49.1-32.5
		c-22.5,4.6-37.1,26.6-32.5,49.1c1.4,6.9,4.4,13.1,8.6,18.2c-2,7.6-4.9,23.5,3.2,29c10.7,7.4,14.2,6.4,17.3,13.5
		c3.1,7.1,8.8,0.3,6.5-10.6c-2.2-11,2.6-16.4,5.7-8.5c3.1,7.9,6.7,24,11,18c4.4-6-3.3-19.9,4.2-17.8c7.5,2.2,11.9-1.3,16.7-3.4
		c4.8-2.1,4.3-9.6,7.7-11.3c3.4-1.7,5.6,0.1,6.1-8.1C316.5,161.8,308.9,157.6,309.6,154.9z"/>
	
		<rect x="255.7" y="235.5" transform="matrix(0.9254 -0.3791 0.3791 0.9254 -72.3579 116.1397)" class="st7" width="6.2" height="12.7"/>
	
		<rect x="274.2" y="250.2" transform="matrix(0.9254 -0.3791 0.3791 0.9254 -76.5366 124.2272)" class="st7" width="6.2" height="12.7"/>
	<polyline class="st7" points="266.3,268.4 270.3,266.7 265.5,255 259.8,257.3 261.8,262.3 	"/>
	
		<rect x="271.3" y="229.4" transform="matrix(0.9254 -0.3791 0.3791 0.9254 -68.8765 121.5859)" class="st7" width="6.2" height="12.7"/>
	
		<rect x="284.6" y="223.3" transform="matrix(0.9254 -0.3791 0.3791 0.9254 -65.5887 126.2034)" class="st7" width="6.2" height="12.7"/>
	
		<rect x="287.3" y="243.9" transform="matrix(0.9254 -0.3791 0.3791 0.9254 -73.1659 128.7537)" class="st7" width="6.2" height="12.7"/>
	<path class="st8" d="M407.1,318.5l20.4-12.9c0,0,5.8,10,17.2,4.8c0,0,8.8,6.5,18-0.4l23.1,38.5l-44.3,28.1L407.1,318.5z"/>
	
		<rect x="424.5" y="323.4" transform="matrix(0.5522 0.8337 -0.8337 0.5522 471.4205 -210.8412)" class="st9" width="14.9" height="20"/>
	
		<rect x="438.6" y="348.8" transform="matrix(0.5522 0.8337 -0.8337 0.5522 498.8842 -211.1997)" class="st9" width="14.9" height="20"/>
	
		<rect x="460.1" y="335.3" transform="matrix(0.5522 0.8337 -0.8337 0.5522 497.2756 -235.1965)" class="st9" width="14.9" height="20"/>
	<polyline class="st9" points="459.4,311.6 465.3,320.5 448.6,331.5 440.4,319.1 450,312.8 	"/>
	<polygon class="st10" points="452.8,376.2 419.4,395.3 405.6,403.3 386,414.5 372.2,422.4 352.5,433.7 348.8,435.8 339.6,419.8 
		310.9,369.7 342.3,351.7 356.2,343.7 375.8,332.5 389.6,324.6 409.2,313.3 414.9,310.1 416.3,312.7 422.4,323.2 425.5,328.8 
		433,341.7 440,353.9 447.4,366.8 449.9,371.2 	"/>
	<polygon class="st11" points="356.1,345.6 352.6,431.4 348.9,433.5 339.6,418.1 342.3,353.2 	"/>
	<polygon class="st11" points="389.5,326.4 386.1,412.5 372.3,420.1 375.7,334 	"/>
	<polygon class="st11" points="422.3,324.1 419.5,393 405.7,400.6 409.2,314.6 414.8,311.6 416.3,314 	"/>
	<circle class="st12" cx="188.3" cy="129.5" r="10.2"/>
	<circle class="st12" cx="182.4" cy="154.8" r="10.2"/>
	<circle class="st12" cx="212.2" cy="172.8" r="7.9"/>
	<circle class="st12" cx="202.8" cy="147.6" r="4.7"/>
	<circle class="st12" cx="220.1" cy="98.2" r="4.7"/>
	<circle class="st12" cx="230.7" cy="109.1" r="7.9"/>
	<circle class="st12" cx="290.4" cy="123.8" r="7.9"/>
	<circle class="st12" cx="251.9" cy="177.7" r="7.9"/>
	<circle class="st12" cx="244.4" cy="123.8" r="7.9"/>
	<circle class="st12" cx="288.9" cy="169.8" r="5.6"/>
	<circle class="st12" cx="244.4" cy="150.7" r="5.6"/>
	<g>
		<path class="st13" d="M33.2,295.1c0,0,31.8,69.3,121.6,69.3c89.9,0,123.6-70.3,123.6-70.3s-39.9,19-123.5,16.4
			C71.3,308,33.2,295.1,33.2,295.1z"/>
		<path class="st13" d="M272.8,296.4c0,0-12.9,6.3-28,9.9c-9.2,2.3-22.4,4.5-41.7,6c-19.3,1.6-31.4,3.1-39,4.4
			c-12.3,2.1-12.6,3.6-12.6,3.6s-5.2-1.2-13.3-2.7c-6.2-1.2-14.2-2.5-22.6-3.6c-10.3-1.4-21.4-2.4-31.1-2.4
			c-10.5,0.1-19.9-2.6-27.7-6.1c-12-5.2-22.8-9.6-23.7-10.5c0,0,0.1,0,0.1,0c0.1,0,0.2,0.1,0.3,0.1c0,0,0,0,0.1,0
			c2.8,0.8,16.1,3.1,26.3,0.6c9-2.3,27.5-19.4,62-26.8c5.7-1.2,11.6,0,16.3,3.5c4.4,3.2,9.8,5.1,15.6,5.1c5.9,0,11.4-2,15.8-5.3
			c4.6-3.4,10.4-4.8,16-3.6C223.6,276.5,248.4,296.1,272.8,296.4C272.8,296.4,272.8,296.4,272.8,296.4z"/>
		<path class="st9" d="M151.6,320.3c0,0,24.6-5.1,35.6-16.3"/>
		<path class="st9" d="M140.4,318.4c0,0-20.8-7.3-20-18.4"/>
		<path class="st9" d="M175.3,314.1c0,0,31.1-1.9,37.5-10.1"/>
		<path class="st9" d="M133.1,316.9c0,0-38.9-3.7-40.9-16.9"/>
	</g>
</g>
</svg>
