<?xml version="1.0" encoding="utf-8"?>
<!-- Generator: Adobe Illustrator 22.1.0, SVG Export Plug-In . SVG Version: 6.00 Build 0)  -->
<svg version="1.1" id="Слой_6" xmlns="http://www.w3.org/2000/svg" xmlns:xlink="http://www.w3.org/1999/xlink" x="0px" y="0px"
	 viewBox="0 0 512 512" style="enable-background:new 0 0 512 512;" xml:space="preserve">
<style type="text/css">
	.st0{fill:#FDCD95;}
	.st1{fill:#FDCD95;stroke:#000000;stroke-width:3;stroke-linecap:round;stroke-linejoin:round;stroke-miterlimit:10;}
	.st2{fill:#857154;}
	.st3{fill:none;stroke:#1D1D1B;stroke-width:3;stroke-linecap:round;stroke-linejoin:round;stroke-miterlimit:10;}
	.st4{fill:none;stroke:#000000;stroke-width:3;stroke-linecap:round;stroke-linejoin:round;stroke-miterlimit:10;}
	.st5{fill:#FFFFFF;}
	.st6{fill:#FFAFB9;}
	.st7{fill:#FDCD95;stroke:#000000;stroke-width:3;stroke-miterlimit:10;}
	.st8{fill:#9D9D9C;stroke:#000000;stroke-width:2;stroke-linecap:round;stroke-linejoin:round;stroke-miterlimit:10;}
	.st9{fill:#B5D758;stroke:#000000;stroke-width:3;stroke-linecap:round;stroke-linejoin:round;stroke-miterlimit:10;}
	.st10{fill:none;stroke:#000000;stroke-width:3;stroke-miterlimit:10;}
	.st11{fill:#4D7450;stroke:#000000;stroke-width:3;stroke-linecap:round;stroke-linejoin:round;stroke-miterlimit:10;}
	.st12{fill:none;stroke:#000000;stroke-linecap:round;stroke-linejoin:round;stroke-miterlimit:10;}
	.st13{fill:#857253;stroke:#000000;stroke-width:3;stroke-linecap:round;stroke-linejoin:round;stroke-miterlimit:10;}
	.st14{fill:#878787;stroke:#000000;stroke-width:3;stroke-linecap:round;stroke-linejoin:round;stroke-miterlimit:10;}
	.st15{fill:#C6C6C6;stroke:#000000;stroke-width:2.5662;stroke-linecap:round;stroke-linejoin:round;stroke-miterlimit:10;}
	.st16{fill:none;stroke:#000000;stroke-width:2;stroke-linecap:round;stroke-linejoin:round;stroke-miterlimit:10;}
	.st17{fill:#685943;stroke:#000000;stroke-width:3;stroke-linecap:round;stroke-linejoin:round;stroke-miterlimit:10;}
</style>
<g>
	<g>
		<path class="st0" d="M160,236c2.5-1.3,5-2.7,7.5-4c1.1-0.6,1.6-2.3,0.9-3.4c-0.6-0.9-1.2-1.7-1.7-2.6c-1.8-2.7-6.1-0.2-4.3,2.5
			c0.6,0.9,1.2,1.7,1.7,2.6c0.3-1.1,0.6-2.3,0.9-3.4c-2.5,1.3-5,2.7-7.5,4C154.6,233.2,157.1,237.6,160,236L160,236z"/>
	</g>
</g>
<polyline points="237.3,225.7 255.6,219.2 255.6,241.1 237.3,225.7 "/>
<polygon points="314.1,221.5 331.7,226.1 316.9,241.1 313.4,230.2 "/>
<path class="st1" d="M257.7,216.2l-1.9,39.1l41.7,5.3l9.6-5.5l2.9-49l-26,10.5c0,0-20-3-21.5-3S257.7,216.2,257.7,216.2z"/>
<path class="st2" d="M313.3,219.2v5.3l14.5,3.4l17.7-2.4l13.7-7.6l13-15.7c0,0,10.6-16.3,10.5-32.6c-0.1-16.2-1.1-27.2-1.1-27.2
	s-4.1-25.6-8.5-31.2c-4.4-5.6-8.1-20.9-13.2-23.8s-9.8-16.4-19.1-19.9l-14.5-8.7l-11.9-3.8L299,54l-3,2l-9.3-3.3l-8-1l-12,2.2
	l-4.6,2.3l-7.5-0.2l-17.2,5l-10.7,7l-14.3,15l-11,20.3c0,0-4.7,12.7-5.4,15.6c-0.8,2.9-5,31.3-4.6,37.4c0.4,6.1,4.2,28.8,6.5,34.2
	c2.3,5.4,9.5,17.8,10.8,19.5c1.4,1.6,11.5,12.9,20.4,14.4c8.9,1.6,12.5,2.8,17.5,3s9.1-1.9,9.1-1.9l8.3-16.8l27.1-0.8
	c0,0,12.3,3.5,13.3,3.8c1.1,0.3,9,3.5,9,3.5V219.2z"/>
<path class="st0" d="M315.2,255.3l-12.6,4.9l-16,2.3c0,0-18.2-0.7-23.4-3.6c-5.2-2.9-7.6-4.6-7.6-4.6l1.2-34.5
	c0,0-20.9-11.1-27.8-23.3c-6.9-12.2-10.5-22.7-10.5-22.7l-2.3-23.3l6.4-6.9l5.1-9.3l4.6,3.2l5.1,0.6l7.5-9.3l6-13.3l2.3,5.3l5,3.2
	l3.9-3.4l6.5-13.5l0.3,7.2l3.2,3.1l5.6-0.5l5.4-5.5l4.7,3.1l4.3,3.4l5.3,0.7l5.1-4.4l4.7-7.1l2.3,6.8l4.9,9.5l2.7,4h2.9l5.5-4.2
	l3,9.2l3.5,4.5l6.4-0.9l2.2,7.9l2.8,4.4l5.5-0.6l2.8-3.5l0.6,16.2l-6.1,24.5l-10.9,17l-17.1,14.9l-6.6,3.1L315.2,255.3z"/>
<path class="st1" d="M351.7,144c0.9-0.3,1.8-0.4,2.7-0.3c5.5,0.6,9.1,8.5,8.1,17.7c-1.1,9.1-6.4,16-11.9,15.4
	c-0.4-0.1-0.9-0.1-1.3-0.3"/>
<path class="st3" d="M216,149c0,0.4,0,0.8,0,1.4"/>
<path class="st4" d="M220.6,180.7c3.5,9.4,8.9,17.8,15.7,24.7c5.6,5.7,12.1,10.4,19.2,13.9c8.7,4.2,18.4,6.5,28.7,6.5
	c10.3,0,20-2.3,28.7-6.5c7.4-3.6,14.1-8.5,19.8-14.4c7.5-7.9,13.3-17.5,16.6-28.3c2.1-6.8,3.2-14,3.2-21.5c0-3.7-0.3-7.4-0.8-11"/>
<path class="st4" d="M255.6,219.2L255.6,219.2v6.4v2v26.7c26.8,19.9,59.6,1,59.6,1"/>
<polyline class="st4" points="315.2,255.3 313.3,224.5 312.9,219.2 312.9,219.2 "/>
<path class="st1" d="M220.6,180.7c-0.8,0.6-1.7,1.1-2.7,1.3c-5.4,1.2-11.4-5.2-13.3-14.2c-1.9-9,0.9-17.2,6.3-18.4
	c1.7-0.4,3.4,0,5,0.9c0,1.5,0,3.5,0,4.6C216,164,217.6,172.7,220.6,180.7z"/>
<path class="st3" d="M216.1,150.4c-0.1,0-0.1-0.1-0.2-0.1"/>
<path class="st4" d="M255.6,225.5c-6.3,2.1-12.8,2.7-19.3,1.6c-31.5-5.1-50.9-47.4-43.3-94.5c7.5-46.3,38.2-80.1,69.1-76.4"/>
<path class="st4" d="M294.2,55.6c32.2-8.3,69.1,21.4,83.1,67.5c14.3,46.9-0.6,93-33.2,102.9c-10,3-20.6,2.3-30.8-1.5"/>
<path class="st3" d="M262,56.2c4.7-2.8,10.4-4.5,16.6-4.5c5.7,0,11,1.4,15.5,3.9"/>
<path class="st4" d="M207.8,108.4c0,0-1.4,66.6,16.7,29.5c0,0,2-3.6,4.4-7.9c3.2-5.8,7.2-12.9,8.4-14.5"/>
<path class="st4" d="M351.7,144c0,0-8.6,15.6-13.2-8.2c0,0-8.9,7.8-12.1-11.7"/>
<path class="st4" d="M329.8,108.4c0,0-4.6,32.4-16.9,12.8c0,0-6.2-11.4-6.2-17.8c0,0-6.1,29.5-22.5,6.8c0,0-17,19.6-15.6-5
	c0,0-9.6,34.4-17.8,10.3c0,0-12.5,36.6-23.2,16.7"/>
<path class="st4" d="M343.4,80.6c0,0,16,24.6,17.8,46.6"/>
<path class="st4" d="M237.3,83.1c0,0-14.5,12.1-16.7,29.5"/>
<ellipse cx="252" cy="147.9" rx="5.7" ry="11.8"/>
<circle class="st5" cx="253" cy="144.3" r="2.5"/>
<path class="st4" d="M238.3,140.4c0,0,15.7-9.5,24.3,0"/>
<ellipse transform="matrix(7.635283e-02 -0.9971 0.9971 7.635283e-02 128.0952 438.3929)" cx="300.7" cy="150.1" rx="11.8" ry="5.7"/>
<circle class="st5" cx="302.4" cy="146.5" r="2.5"/>
<path class="st4" d="M314.9,143.6c0,0-14.9-10.7-24.3-1.9"/>
<path class="st4" d="M264.8,166.1c0,0,8.2-7,18,0"/>
<polygon points="252,185.9 272.8,185.9 293.8,185.9 299.3,185.9 291.2,198.5 283.8,202.6 271.2,200.8 259.2,198.3 252,189.1 "/>
<path class="st4" d="M241.3,129.4c0,0,10.3-12.2,23.5-0.8"/>
<path class="st5" d="M252,187.2c0,0,34.3,6.6,47.1,0l0.9-4.3l-21.1-0.7l-25.8-0.5h-2.5L252,187.2z"/>
<path class="st6" d="M255.5,194.2c0,0,28-1.8,33.3,4.7l-1.7,4.2l-8,2.9h-9.4l-7.9-4.8L255.5,194.2z"/>
<polygon class="st7" points="353.5,354.8 368.5,414.3 395,409.8 398,384.6 384.1,348.9 378.5,336.3 361,339.3 "/>
<path class="st4" d="M288.8,125.9c0,0,18.8-7.3,29.8,10.2"/>
<path class="st8" d="M195.5,206.8l17-2.1l9.4,5.4l4.2,6.5l-6.1,3.9c0,0-9.3-0.9-11.5-4.3s-11.5,0-11.5,0l-4.5-6.1L195.5,206.8z"/>
<path class="st4" d="M250.6,181.7l49.4,0.9c0,0.1,0,0.2,0,0.3c0,8.5-13.4,23.8-25.7,23.8C262.4,206.8,251.3,190.4,250.6,181.7z"/>
<path class="st1" d="M206.5,286.8c0,0-81.9,21.9-87.4-24.1c-1.3-10.7,2.2-21.4,9-29.8c10.2-12.5,30.1-32,54-30.2
	c7.1,0.6,13.5,5.2,15.5,12.1c1.5,5.1,0.7,10.3-8.7,10.8c0,0-10,14.5-11.3-2.5c0,0-7.3,22.5-14,0.8c0,0-1.3,9.8-13.5,18.8
	c0,0-2.5,14-0.3,17.5s48-11.3,48-11.3l7,23.3L206.5,286.8z"/>
<path class="st9" d="M240.1,229.7l-51.1,16c0,0,7.5,43.5,8,48.5l13.5,3l-5.5,76.5l138,18h10.5l-7-37.5c0,0,34.5,4.5,42-10.5
	c7.3-14.6-12.5-107.3-65.4-110c-2.6-0.1-5.2,0.6-7.4,2.1c-9.4,6.3-39.8,22.9-65.4-3.6C247.7,229.6,243.7,228.6,240.1,229.7z"/>
<g>
	<path class="st10" d="M258.3,336.3h-23.8c-3.7,0-6.8-3-6.8-6.8v-27.6c0-3.7,3-6.8,6.8-6.8h23.8c3.7,0,6.8,3,6.8,6.8v27.6
		C265,333.2,262,336.3,258.3,336.3z"/>
	<path class="st10" d="M228.9,298.1l13.3,13.5c2.2,2.3,5.9,2.2,8-0.2l12.6-14.3"/>
</g>
<path class="st4" d="M217,310.5c0,0,1.5-7.2-6.5-13.2"/>
<line class="st4" x1="339.5" y1="297.3" x2="346.5" y2="354.3"/>
<path class="st4" d="M157.8,217.8c0,0,3.9,0.7,6,6"/>
<path class="st4" d="M173.8,210c0,0,6,3.8,4,13"/>
<path class="st4" d="M185.8,206.8c0,0,8.3,10.5,3.3,18.8"/>
<path class="st4" d="M157.8,237.5c0,0,7.9-1.3,10.6-5"/>
<path class="st11" d="M207.5,206.8c0,0-10.5-10.5,4-12.5c0,0,0.5-14.7,9.8-5.5c0,0,12.5-10.3,11,3.5c0,0,18.3,4.3-1,16l-3.8,14.8
	c0,0-9,3.8-9.5-2.3c0,0,7.8-1,7.5-3s-8.5-4.5-9.5-4.8s-1.3-1.3,0.3-3S207.5,206.8,207.5,206.8z"/>
<line class="st12" x1="214.8" y1="196.8" x2="218.8" y2="204.7"/>
<line class="st12" x1="217.8" y1="194" x2="220" y2="200"/>
<line class="st12" x1="228" y1="198.3" x2="224.3" y2="204.7"/>
<line class="st12" x1="232.3" y1="201.5" x2="226.1" y2="206.8"/>
<path class="st13" d="M387,366.1l-220.7-8.6l-99.1,63.8l377.6,25L387,366.1z M331.8,402.6c-1.6,10.7-29.4,19.3-63.3,19.3
	c-31.1,0-57-7.2-62.4-16.6c-8.7-3.9-13.8-8.6-13.8-13.8c0-13.1,33.2-23.7,74.1-23.7c40.9,0,74.1,10.6,74.1,23.7
	C340.5,395.5,337.3,399.3,331.8,402.6z"/>
<path class="st14" d="M340.5,391.5c0,4-3.1,7.8-8.7,11.2c-12.5,7.5-37.1,12.5-65.4,12.5c-24.9,0-46.8-3.9-60.3-9.9
	c-8.7-3.9-13.8-8.6-13.8-13.8c0-13.1,33.2-23.7,74.1-23.7C307.3,367.8,340.5,378.4,340.5,391.5z"/>
<path class="st15" d="M331.8,402.6c-1.6,10.7-29.4,19.3-63.3,19.3c-31.1,0-57-7.2-62.4-16.6c13.5,6,35.4,9.9,60.3,9.9
	C294.7,415.2,319.3,410.1,331.8,402.6z"/>
<path class="st11" d="M263,389.7c0,0-12.3-3.6-11.3-6.6s-4.7-14-13.7-6.4c0,0-16.5-7.7-12.3,6.4c0,0-10.5,12.3,1.9,14
	c0,0,4.4,17,19.1,0l15.3,3L263,389.7z"/>
<path class="st11" d="M277.8,409.2c0,0,10.1-7.8,12-5.3c1.9,2.6,14.1,4.5,13.2-7.3c0,0,15.9-8.8,2.1-13.7c0,0-3.8-15.7-12.4-6.6
	c0,0-16.3-6.4-11.2,15.4L270,402.4L277.8,409.2z"/>
<line class="st16" x1="230.7" y1="393.1" x2="242.3" y2="393.1"/>
<line class="st16" x1="230.7" y1="384.8" x2="240.7" y2="389.4"/>
<line class="st16" x1="302" y1="391.5" x2="290.3" y2="394.9"/>
<line class="st16" x1="296.2" y1="384.8" x2="290.3" y2="391.4"/>
<polygon class="st17" points="444.8,446.2 444.8,460.3 67.2,434.3 67.2,421.2 "/>
<path class="st16" d="M212,382.3c0,0-5.7,2.7-6,9.2"/>
<path class="st16" d="M210.5,393.2c0,0-2.9,5.6,3.3,7.8"/>
<path class="st16" d="M316,382.3c0,0,9.8,5,4.3,10.9"/>
<path class="st16" d="M315,394.9c0,0-0.8,7.2-6.3,9.8"/>
<path class="st16" d="M258.8,377.8c0,0,5.5-1.5,15,1.3"/>
</svg>
