<?xml version="1.0" encoding="utf-8"?>
<!-- Generator: Adobe Illustrator 22.1.0, SVG Export Plug-In . SVG Version: 6.00 Build 0)  -->
<svg version="1.1" id="Слой_4" xmlns="http://www.w3.org/2000/svg" xmlns:xlink="http://www.w3.org/1999/xlink" x="0px" y="0px"
	 viewBox="0 0 512 512" style="enable-background:new 0 0 512 512;" xml:space="preserve">
<style type="text/css">
	.st0{fill:#F6F6F6;stroke:#000000;stroke-width:4;stroke-linecap:round;stroke-linejoin:round;stroke-miterlimit:10;}
	.st1{fill:none;stroke:#000000;stroke-width:4.1379;stroke-linecap:round;stroke-linejoin:round;stroke-miterlimit:10;}
	.st2{fill:#C6C6C6;stroke:#000000;stroke-width:4;stroke-linecap:round;stroke-linejoin:round;stroke-miterlimit:10;}
	.st3{fill:#EDEDED;stroke:#000000;stroke-width:4;stroke-linecap:round;stroke-linejoin:round;stroke-miterlimit:10;}
	.st4{opacity:0.65;fill:#575756;}
	.st5{opacity:0.29;}
	.st6{fill:#E08871;stroke:#000000;stroke-width:3;stroke-linecap:round;stroke-linejoin:round;stroke-miterlimit:10;}
	.st7{fill:none;stroke:#000000;stroke-width:3;stroke-linecap:round;stroke-linejoin:round;stroke-miterlimit:10;}
	.st8{fill:#3C3C3B;stroke:#000000;stroke-width:2;stroke-linecap:round;stroke-linejoin:round;stroke-miterlimit:10;}
	.st9{fill:#8E0616;stroke:#000000;stroke-width:3;stroke-linecap:round;stroke-linejoin:round;stroke-miterlimit:10;}
	.st10{fill:#3C6445;stroke:#000000;stroke-width:3;stroke-linecap:round;stroke-linejoin:round;stroke-miterlimit:10;}
	.st11{opacity:0.5;}
</style>
<g>
	<ellipse class="st0" cx="395.9" cy="145.5" rx="38.3" ry="13.3"/>
	<path class="st1" d="M436.2,164.7c0-0.3,0-0.6-0.1-0.9"/>
	<path class="st1" d="M355.4,163.6c-0.1,0.4-0.1,0.7-0.1,1.1"/>
	<path class="st2" d="M436.2,164.7c0,3.3-3.7,6.4-9.8,8.7c-7.4,2.8-18.4,4.6-30.6,4.6c-12.3,0-23.3-1.8-30.7-4.6c0,0,0,0,0,0
		c-6.1-2.3-9.8-5.4-9.8-8.7l0.1-1.1l0,0l2.2-18.1c0,7.3,17.2,13.3,38.3,13.3c21.2,0,38.3-6,38.3-13.3l1.9,18.2l0,0.1L436.2,164.7z"
		/>
	<path class="st2" d="M436.2,164.7l0,17.3c0,1.1-0.4,2.1-1.1,3.1c-4.3,5.8-20.3,10.2-39.3,10.2c-20.9,0-38.1-5.2-40.3-11.9
		c-0.1-0.5-0.2-0.9-0.2-1.4l0-17.3c0,3.3,3.7,6.3,9.8,8.7c0,0,0,0,0,0c7.4,2.8,18.4,4.6,30.7,4.6c12.3,0,23.2-1.8,30.6-4.6
		C432.5,171,436.2,168,436.2,164.7z"/>
	<path class="st3" d="M407.4,350.1h-29.6c-32.7,0-57.4-26.1-51.6-54.5l18.8-92.1c1.5-7.6,5.2-14.4,10.4-20.1
		c2.1,6.7,19.3,11.9,40.3,11.9c19.1,0,35-4.3,39.3-10.2c4.7,5.7,8,12.4,9.2,19.8l15.1,92.2C463.9,325.1,439.4,350.1,407.4,350.1z"/>
	<path class="st4" d="M337.1,242.4c0,0,57.5,29.7,112.8-2.9c0,0,21.1,80.3,0,91.5c0,0-21.6,24.5-54.1,19.1c0,0-40.7,2.5-46.8-7.7
		c0,0-13.9-8.3-17.9-17.8s-4.8-28.8,0.5-54.7C336.7,244.1,337.1,242.4,337.1,242.4z"/>
	<g class="st5">
		<g>
			<path d="M371.5,147.3c4,0,4-6.2,0-6.2C367.4,141.1,367.4,147.3,371.5,147.3L371.5,147.3z"/>
		</g>
	</g>
	<g class="st5">
		<g>
			<path d="M375.6,152.7c0.1,0,0.3,0,0.4,0c1.6,0,3.2-1.4,3.1-3.1c-0.1-1.7-1.4-3.1-3.1-3.1c-0.1,0-0.3,0-0.4,0
				c-1.6,0-3.2,1.4-3.1,3.1C372.6,151.3,373.9,152.7,375.6,152.7L375.6,152.7z"/>
		</g>
	</g>
	<g class="st5">
		<g>
			<path d="M392.2,155.2c0.1,0,0.3,0,0.4,0c1.6,0,3.2-1.4,3.1-3.1c-0.1-1.7-1.4-3.1-3.1-3.1c-0.1,0-0.3,0-0.4,0
				c-1.6,0-3.2,1.4-3.1,3.1C389.2,153.8,390.5,155.2,392.2,155.2L392.2,155.2z"/>
		</g>
	</g>
	<g class="st5">
		<g>
			<path d="M385.2,142.3c4,0,4-6.2,0-6.2C381.1,136.1,381.1,142.3,385.2,142.3L385.2,142.3z"/>
		</g>
	</g>
	<g class="st5">
		<g>
			<path d="M398.4,144c0.1,0,0.3,0,0.4,0c1.6,0,3.2-1.4,3.1-3.1c-0.1-1.7-1.4-3.1-3.1-3.1c-0.1,0-0.3,0-0.4,0
				c-1.6,0-3.2,1.4-3.1,3.1C395.4,142.6,396.7,144,398.4,144L398.4,144z"/>
		</g>
	</g>
	<g class="st5">
		<g>
			<path d="M402.2,152.7c0.1,0,0.3,0,0.4,0c1.6,0,3.2-1.4,3.1-3.1c-0.1-1.7-1.4-3.1-3.1-3.1c-0.1,0-0.3,0-0.4,0
				c-1.6,0-3.2,1.4-3.1,3.1C399.1,151.3,400.4,152.7,402.2,152.7L402.2,152.7z"/>
		</g>
	</g>
	<g class="st5">
		<g>
			<path d="M419.3,149.7c0.1-0.1,0.3-0.3,0.4-0.4c1.2-1.2,1.2-3.3,0-4.4c-1.2-1.1-3.2-1.2-4.4,0c-0.1,0.1-0.3,0.3-0.4,0.4
				c-1.2,1.2-1.2,3.3,0,4.4C416.2,150.9,418.1,151,419.3,149.7L419.3,149.7z"/>
		</g>
	</g>
	<g class="st5">
		<g>
			<path d="M411.3,142.7c0.3,0,0.6,0,0.8,0c1.6,0,3.2-1.4,3.1-3.1c-0.1-1.7-1.4-3.1-3.1-3.1c-0.3,0-0.6,0-0.8,0
				c-1.6,0-3.2,1.4-3.1,3.1C408.3,141.3,409.6,142.7,411.3,142.7L411.3,142.7z"/>
		</g>
	</g>
	<g class="st5">
		<g>
			<path d="M427.9,147.3c4,0,4-6.2,0-6.2C423.9,141.1,423.9,147.3,427.9,147.3L427.9,147.3z"/>
		</g>
	</g>
	<g class="st5">
		<g>
			<path d="M386.4,148.6c4,0,4-6.2,0-6.2C382.4,142.3,382.4,148.6,386.4,148.6L386.4,148.6z"/>
		</g>
	</g>
	<g>
		<path class="st6" d="M25,230.8c0,0,36.1,78.8,138.3,78.8c102.2,0,140.5-79.9,140.5-79.9s-45.4,21.6-140.5,18.7
			C68.3,245.5,25,230.8,25,230.8z"/>
		<path class="st6" d="M297.5,232.3c0,0-14.7,7.1-31.8,11.3c-10.4,2.6-25.5,5.2-47.4,6.9c-22,1.8-35.7,3.5-44.3,5
			c-14,2.4-14.3,4.1-14.3,4.1s-6-1.3-15.1-3c-7.1-1.3-16.1-2.9-25.7-4.1c-11.8-1.6-24.4-2.8-35.4-2.7c-11.9,0.1-22.7-3-31.5-6.9
			c-13.7-6-25.9-10.9-27-11.9c0,0,0.1,0,0.1,0c0.1,0,0.2,0.1,0.3,0.1c0,0,0,0,0.1,0c3.2,0.9,18.3,3.5,29.9,0.6
			c10.3-2.6,31.2-22.1,70.5-30.5c6.5-1.4,13.2,0,18.5,4c5,3.7,11.1,5.9,17.8,5.9c6.7,0,12.9-2.2,17.9-6c5.2-3.9,11.8-5.4,18.2-4.1
			C241.5,209.7,269.7,232,297.5,232.3C297.5,232.3,297.5,232.3,297.5,232.3z"/>
		<path class="st7" d="M159.6,259.5c0,0,27.9-5.8,40.4-18.5"/>
		<path class="st7" d="M146.8,257.3c0,0-23.7-8.3-22.7-20.9"/>
		<path class="st7" d="M186.6,252.5c0,0,35.4-2.2,42.6-11.5"/>
		<path class="st7" d="M138.6,255.6c0,0-44.2-4.2-46.5-19.2"/>
	</g>
	<g>
		<g>
			<path d="M407.5,377.2c3.2,0,3.2-5,0-5C404.3,372.2,404.3,377.2,407.5,377.2L407.5,377.2z"/>
		</g>
	</g>
	<g>
		<g>
			<path d="M417.8,381.5c3.2,0,3.2-5,0-5C414.6,376.5,414.6,381.5,417.8,381.5L417.8,381.5z"/>
		</g>
	</g>
	<g>
		<g>
			<path d="M424.6,378.1c3.2,0,3.2-5,0-5C421.4,373.1,421.4,378.1,424.6,378.1L424.6,378.1z"/>
		</g>
	</g>
	<g>
		<g>
			<path d="M419.5,367.8c3.2,0,3.2-5,0-5C416.3,362.8,416.3,367.8,419.5,367.8L419.5,367.8z"/>
		</g>
	</g>
	<g>
		<g>
			<path d="M478.5,370.4c3.2,0,3.2-5,0-5C475.3,365.4,475.3,370.4,478.5,370.4L478.5,370.4z"/>
		</g>
	</g>
	<g>
		<g>
			<path d="M475.9,361.8c3.2,0,3.2-5,0-5C472.7,356.8,472.7,361.8,475.9,361.8L475.9,361.8z"/>
		</g>
	</g>
	<g>
		<g>
			<path d="M487,356.7c3.2,0,3.2-5,0-5C483.8,351.7,483.8,356.7,487,356.7L487,356.7z"/>
		</g>
	</g>
	<circle class="st8" cx="461.9" cy="343.1" r="11.5"/>
	<circle class="st8" cx="457" cy="369" r="10.8"/>
	<circle class="st8" cx="435.8" cy="359.2" r="6.5"/>
	<g>
		<path class="st9" d="M406.9,363.9c0,0-43.1,26.8-91.9-29.6c-4.2-4.8-7.3-10.6-8.7-16.8c-1.6-7.1-1.2-14.7,8.8-13.8
			c3.3,0.3,6.5,1.5,9.3,3.3c3.6,2.3,12.4,10.4,15.9,15C346.5,330.2,365.8,365.2,406.9,363.9z"/>
		<path class="st10" d="M280.6,269.7l-5.5,6.5c0,0,22.1,16.8,24,23.6c1.8,6.8-1.5,18.5,7.8,32c0,0-1.4-14.8,0.8-21.5
			c0,0,13.6,10.8,14.7,12.9c1,2.1-6.5-16.5-8-20.1c-1.5-3.6,15.9,1.9,17.8,3.9c1.8,1.9-1.3-12.8-22.8-12.4c-1.9,0-3.7-0.7-5.1-2
			L280.6,269.7z"/>
	</g>
	<g class="st11">
		<g>
			<path d="M450.9,374.6c0,0.1,0,0.2,0,0.3c0,1.6,2.5,1.6,2.5,0c0-0.1,0-0.2,0-0.3C453.4,372.9,450.9,372.9,450.9,374.6L450.9,374.6
				z"/>
		</g>
	</g>
	<g class="st11">
		<g>
			<path d="M455.7,379.1c1.6,0,1.6-2.5,0-2.5C454.1,376.6,454.1,379.1,455.7,379.1L455.7,379.1z"/>
		</g>
	</g>
	<g class="st11">
		<g>
			<path d="M459.7,377.8c0.1,0,0.2,0,0.3,0c1.6,0,1.6-2.5,0-2.5c-0.1,0-0.2,0-0.3,0C458.1,375.3,458.1,377.8,459.7,377.8
				L459.7,377.8z"/>
		</g>
	</g>
	<g class="st11">
		<g>
			<path d="M457.4,374.3c0.1,0,0.2,0,0.3,0c1.6,0,1.6-2.5,0-2.5c-0.1,0-0.2,0-0.3,0C455.8,371.8,455.8,374.3,457.4,374.3
				L457.4,374.3z"/>
		</g>
	</g>
	<g class="st11">
		<g>
			<path d="M463.4,373.8c1.6,0,1.6-2.5,0-2.5C461.8,371.3,461.8,373.8,463.4,373.8L463.4,373.8z"/>
		</g>
	</g>
	<g class="st11">
		<g>
			<path d="M461.9,366.8c1.6,0,1.6-2.5,0-2.5C460.3,364.3,460.3,366.8,461.9,366.8L461.9,366.8z"/>
		</g>
	</g>
	<g class="st11">
		<g>
			<path d="M434.7,361.1c0-0.1,0-0.2,0-0.3c0-1.6-2.5-1.6-2.5,0c0,0.1,0,0.2,0,0.3C432.2,362.7,434.7,362.7,434.7,361.1L434.7,361.1
				z"/>
		</g>
	</g>
	<g class="st11">
		<g>
			<path d="M437.6,364.2c0.1-0.1,0.2-0.2,0.3-0.3c1.1-1.1-0.6-2.9-1.8-1.8c-0.1,0.1-0.2,0.2-0.3,0.3
				C434.7,363.6,436.4,365.3,437.6,364.2L437.6,364.2z"/>
		</g>
	</g>
	<g class="st11">
		<g>
			<path d="M442.4,360.8c0-0.1,0-0.2,0-0.3c0-1.6-2.5-1.6-2.5,0c0,0.1,0,0.2,0,0.3C439.9,362.4,442.4,362.4,442.4,360.8L442.4,360.8
				z"/>
		</g>
	</g>
	<g class="st11">
		<g>
			<path d="M437.7,359.1c1.6,0,1.6-2.5,0-2.5C436.1,356.6,436.1,359.1,437.7,359.1L437.7,359.1z"/>
		</g>
	</g>
	<g class="st11">
		<g>
			<path d="M457.2,350.6c1.6,0,1.6-2.5,0-2.5C455.6,348.1,455.6,350.6,457.2,350.6L457.2,350.6z"/>
		</g>
	</g>
	<g class="st11">
		<g>
			<path d="M460.4,353.6c0.1,0,0.2,0,0.3,0c1.6,0,1.6-2.5,0-2.5c-0.1,0-0.2,0-0.3,0C458.8,351.1,458.8,353.6,460.4,353.6
				L460.4,353.6z"/>
		</g>
	</g>
	<g class="st11">
		<g>
			<path d="M468.2,350.6c0-0.1,0-0.2,0-0.3c0-1.6-2.5-1.6-2.5,0c0,0.1,0,0.2,0,0.3C465.7,352.2,468.2,352.2,468.2,350.6L468.2,350.6
				z"/>
		</g>
	</g>
	<g class="st11">
		<g>
			<path d="M462.7,347.6c1.6,0,1.6-2.5,0-2.5C461.1,345.1,461.1,347.6,462.7,347.6L462.7,347.6z"/>
		</g>
	</g>
	<g class="st11">
		<g>
			<path d="M463.2,350.8c0.1,0,0.2,0,0.3,0c1.6,0,1.6-2.5,0-2.5c-0.1,0-0.2,0-0.3,0C461.6,348.3,461.6,350.8,463.2,350.8
				L463.2,350.8z"/>
		</g>
	</g>
	<g class="st11">
		<g>
			<path d="M469.7,347.8c0.1,0,0.2,0,0.3,0c1.6,0,1.6-2.5,0-2.5c-0.1,0-0.2,0-0.3,0C468.1,345.3,468.1,347.8,469.7,347.8
				L469.7,347.8z"/>
		</g>
	</g>
	<g class="st11">
		<g>
			<path d="M470.7,340.6c0-0.1,0-0.2,0-0.3c0-1.6-2.5-1.6-2.5,0c0,0.1,0,0.2,0,0.3C468.2,342.2,470.7,342.2,470.7,340.6L470.7,340.6
				z"/>
		</g>
	</g>
	<g class="st11">
		<g>
			<path d="M464.8,343.7c0.1,0.1,0.2,0.2,0.3,0.3c1.1,1.1,2.9-0.6,1.8-1.8c-0.1-0.1-0.2-0.2-0.3-0.3
				C465.4,340.8,463.7,342.5,464.8,343.7L464.8,343.7z"/>
		</g>
	</g>
	<g class="st11">
		<g>
			<path d="M454.4,347.4c0.8,0,0.8-1.3,0-1.3C453.6,346.2,453.6,347.4,454.4,347.4L454.4,347.4z"/>
		</g>
	</g>
	<g class="st11">
		<g>
			<path d="M460.3,344.8c0-0.1,0-0.2,0-0.3c0-0.8-1.3-0.8-1.3,0c0,0.1,0,0.2,0,0.3C459.1,345.6,460.3,345.6,460.3,344.8L460.3,344.8
				z"/>
		</g>
	</g>
	<g class="st11">
		<g>
			<path d="M457.7,340.7c0.8,0,0.8-1.3,0-1.3C456.9,339.4,456.9,340.7,457.7,340.7L457.7,340.7z"/>
		</g>
	</g>
	<g class="st11">
		<g>
			<path d="M453.9,341.7c0.8,0,0.8-1.3,0-1.3C453.1,340.4,453.1,341.7,453.9,341.7L453.9,341.7z"/>
		</g>
	</g>
	<g class="st11">
		<g>
			<path d="M448.9,370.9c0.8,0,0.8-1.3,0-1.3C448.1,369.7,448.1,370.9,448.9,370.9L448.9,370.9z"/>
		</g>
	</g>
	<g class="st11">
		<g>
			<path d="M455.2,376.4c0.8,0,0.8-1.3,0-1.3C454.4,375.2,454.4,376.4,455.2,376.4L455.2,376.4z"/>
		</g>
	</g>
	<g class="st11">
		<g>
			<path d="M461.4,371.9c0.8,0,0.8-1.3,0-1.3C460.6,370.7,460.6,371.9,461.4,371.9L461.4,371.9z"/>
		</g>
	</g>
	<g class="st11">
		<g>
			<path d="M459.2,367.4c0.8,0,0.8-1.3,0-1.3C458.4,366.2,458.4,367.4,459.2,367.4L459.2,367.4z"/>
		</g>
	</g>
	<g class="st11">
		<g>
			<path d="M463.7,369.4c0.8,0,0.8-1.3,0-1.3C462.9,368.2,462.9,369.4,463.7,369.4L463.7,369.4z"/>
		</g>
	</g>
	<g class="st11">
		<g>
			<path d="M465.6,370.1c0-0.1,0-0.2,0-0.3c0-0.8-1.3-0.8-1.3,0c0,0.1,0,0.2,0,0.3C464.3,370.9,465.6,370.9,465.6,370.1L465.6,370.1
				z"/>
		</g>
	</g>
	<g class="st11">
		<g>
			<path d="M433.7,358.2c0.8,0,0.8-1.3,0-1.3C432.9,356.9,432.9,358.2,433.7,358.2L433.7,358.2z"/>
		</g>
	</g>
	<g class="st11">
		<g>
			<path d="M433.9,363.7c0.8,0,0.8-1.3,0-1.3C433.1,362.4,433.1,363.7,433.9,363.7L433.9,363.7z"/>
		</g>
	</g>
	<g class="st11">
		<g>
			<path d="M437.9,360.4c0.8,0,0.8-1.3,0-1.3C437.1,359.2,437.1,360.4,437.9,360.4L437.9,360.4z"/>
		</g>
	</g>
	<g class="st11">
		<g>
			<path d="M439.9,360.4c-0.2,0-0.3,0-0.5,0c-0.8,0-0.8,1.3,0,1.3c0.2,0,0.3,0,0.5,0C440.7,361.7,440.7,360.4,439.9,360.4
				L439.9,360.4z"/>
		</g>
	</g>
</g>
</svg>
