<?xml version="1.0" encoding="utf-8"?>
<!-- Generator: Adobe Illustrator 22.1.0, SVG Export Plug-In . SVG Version: 6.00 Build 0)  -->
<svg version="1.1" id="Слой_3" xmlns="http://www.w3.org/2000/svg" xmlns:xlink="http://www.w3.org/1999/xlink" x="0px" y="0px"
	 viewBox="0 0 512 512" style="enable-background:new 0 0 512 512;" xml:space="preserve">
<style type="text/css">
	.st0{fill:#B9D3E5;stroke:#000000;stroke-width:3;stroke-linecap:round;stroke-linejoin:round;stroke-miterlimit:10;}
	.st1{fill:#EDEDED;stroke:#000000;stroke-width:3;stroke-linecap:round;stroke-linejoin:round;stroke-miterlimit:10;}
	.st2{fill:none;stroke:#000000;stroke-width:3;stroke-linecap:round;stroke-linejoin:round;stroke-miterlimit:10;}
	.st3{fill:none;stroke:#000000;stroke-width:7;stroke-linecap:round;stroke-linejoin:round;stroke-miterlimit:10;}
	.st4{fill:none;stroke:#000000;stroke-width:10;stroke-linecap:round;stroke-linejoin:round;stroke-miterlimit:10;}
	.st5{fill:#878787;stroke:#000000;stroke-width:3;stroke-miterlimit:10;}
	.st6{fill:#FDCD95;stroke:#000000;stroke-width:3;stroke-linecap:round;stroke-linejoin:round;stroke-miterlimit:10;}
	.st7{fill:#857154;stroke:#000000;stroke-width:3;stroke-linecap:round;stroke-linejoin:round;stroke-miterlimit:10;}
	.st8{fill:#FFFFFF;}
	.st9{fill:#FFFFFF;stroke:#000000;stroke-width:3;stroke-linecap:round;stroke-linejoin:round;stroke-miterlimit:10;}
	.st10{fill:#575756;stroke:#000000;stroke-width:3;stroke-linecap:round;stroke-linejoin:round;stroke-miterlimit:10;}
</style>
<g>
	<path class="st0" d="M214.9,228.7c0,0-71.8,6.3-77.1,39.4c-5.2,33.1-3.4,200.1,4.1,237.3s5.8,61.1,5.8,61.1l156.2-13l73.1,11.2
		c0,0-3.8-166-2.8-166.7s-4.2-78.9-4.2-108.8c0-29.9-0.5-52-56.6-58.5S214.9,228.7,214.9,228.7z"/>
	<path class="st1" d="M226.4,210.2c0,0-28.8,8.2-39.3,54.8l26.2,9.4l-6.6,11.4c0,0,41.3,7,47.8,65.2s5.4,190.4,5.4,190.4l1.1,5.3
		c0,0-6.3-229.6,23.6-245.4s29.9-15.8,29.9-15.8l-13.6-13.6h33.6c0,0-11.7-56.3-36.5-66.4C273.1,195.3,226.4,210.2,226.4,210.2z"/>
	<line class="st2" x1="183.4" y1="331.9" x2="190.1" y2="529.5"/>
	<line class="st2" x1="328.4" y1="352.5" x2="334.5" y2="528.9"/>
	<path class="st3" d="M197.1,285.8c-11.4-15.1-19.7-18.6-25.8-16.5c-12.1,4.1-15,30.8-15,30.8"/>
	<path class="st4" d="M225.6,201.9c0,0-46.5,8.3-52.8,66.2"/>
	<path class="st4" d="M291.9,198.4c0,0,44.4,7,43.8,108.4"/>
	<path class="st2" d="M156.4,300.1c0,0,12.9,40.8,53.8,26.5"/>
	<path class="st2" d="M197.3,286.8c0,0,12.2,41-29.7,52.1"/>
	<circle class="st5" cx="329.8" cy="331.8" r="21.5"/>
	<circle class="st1" cx="333.1" cy="321.6" r="12.7"/>
	<circle cx="214.7" cy="324.2" r="5.6"/>
	<circle cx="166.2" cy="338.6" r="5.6"/>
	<g>
		<path class="st6" d="M228.1,183.2l3.3,43.3c0,0,19.7,46.2,30.2,62.7c0,0,4.9-44.9,27.7-65.7l-1.4-42.5c0,0-20,12.4-27,12.7
			C253.9,193.9,228.1,185.4,228.1,183.2z"/>
		<path class="st7" d="M193.8,131.6l128.6-2.8c0,0,21-77.6-38-108.1c-29.6-15.3-54.2-7.1-69.7,5.3c-15.1,12.1-24.5,29.9-27,49
			C185.2,94.4,183.8,121.6,193.8,131.6z"/>
		<path class="st6" d="M305.6,80.1c-3.9-13-12-22.5-29.3-12c-17.7,10.7-31.1,1.4-37.4-1.8c-3.6-1.8-7.6-3.7-11.7-3.2
			c-25.1,3-21.4,27.7-21.4,27.8c-4,10.6-4,19.3-4,32.1c0,0.6,0,1.2,0,1.8c-4.7-4.2-13.7-10.1-16.6,3c-3.7,16.9,11.4,28.5,19.5,20
			c7.6,30.6,28.8,52.6,53.8,52.6c25.5,0,47-22.8,54.2-54.2v0c13.6,3.5,16.1-15.2,13.1-23.1c-2-5.2-6.7-3.7-10.6-1.4
			c-0.2-15.9-3.9-30.6-10.2-42.8c0,0,0,0,0,0"/>
		<path class="st7" d="M316.9,146l-6.3-5.1c0-0.1-0.1-0.1-0.1-0.1l0.1,0.1c-0.1,0.4-1.3,2.4-9.8,12.5c-9,10.7-25.5,7.6-32,5.8
			c-1.7-0.5-3.5-0.1-4.8,1c-2.2,1.7-5.9,4-9.9,4.2c-4.5,0.3-8.9-2-11.6-3.8c-1.6-1-3.5-1.3-5.2-0.5c-15.9,7.4-29.2-15.8-29.2-15.8
			l-6.9,4c1.5,28.8,28.3,58.6,56,58.6c28.5,0,54.6-28.5,59.6-57.6C316.7,148.2,316.8,147.1,316.9,146z"/>
		<path class="st6" d="M269.1,168.2c-3.1,0.1-11.4,6.7-20.2,3.2c-4.6-1.8-8.8-1.3-11.9-0.3c-0.1,0.3-0.1,0.7-0.1,1.1
			c0,6.1,7,17.5,17.3,17.5c10.2,0,18.5-11,18.5-17.1C272.7,170.1,271.3,168.9,269.1,168.2L269.1,168.2"/>
		<path class="st7" d="M236.9,101.3l-6.8-10.3c0,0-25.8,8.3-17,21.8C213.1,112.8,227.4,102.3,236.9,101.3z"/>
		<path class="st7" d="M272.7,100.1l6.8-10.3c0,0,25.8,8.3,17,21.8C296.4,111.6,282.2,101.1,272.7,100.1z"/>
		<circle class="st2" cx="227.2" cy="129.2" r="14.1"/>
		<circle class="st2" cx="280.9" cy="128.4" r="14.1"/>
		<circle cx="226.8" cy="127.8" r="7"/>
		<circle class="st8" cx="226.8" cy="127.8" r="1.7"/>
		<path class="st2" d="M218.9,124.2c0,0,6.3-7.6,15.5,0"/>
		<circle cx="280.7" cy="128.4" r="7"/>
		<path class="st2" d="M288.6,124.8c0,0-6.3-7.6-15.5,0"/>
		<circle class="st8" cx="280.7" cy="127.8" r="1.7"/>
		<path class="st2" d="M246.9,112.8c0,0,6.5,30.4,0.7,37.3s9.1,8.1,12.2,3.7"/>
		<path class="st2" d="M241.3,125.5c0,0,10.9-8.5,25.5,0"/>
		<path class="st2" d="M243.4,175.7c0,0,8.8,12,22,0"/>
	</g>
	<path class="st9" d="M222.4,205.4c0,0-7.7,71.5,38.4,101.4c0,0,35.8-22.5,39.3-100.4l-8.6-2.7c0,0-6.1,17.7-23.8,26.3
		c0,0-2.3,42.1-7.2,47.7c0,0-9-32.4-8.9-45.4c0,0-18.3-7.5-23.2-26.4L222.4,205.4z"/>
	<path class="st2" d="M251.8,232.3c0,0-23.1,14.5-20.3,33.6"/>
	<path class="st2" d="M267.9,230c0,0,19.7,18.4,21.4,32.5"/>
	<circle class="st10" cx="260.8" cy="285.8" r="3.5"/>
	<circle class="st10" cx="261" cy="297.2" r="3.5"/>
</g>
</svg>
