<?xml version="1.0" encoding="utf-8"?>
<!-- Generator: Adobe Illustrator 22.1.0, SVG Export Plug-In . SVG Version: 6.00 Build 0)  -->
<svg version="1.1" id="Слой_3" xmlns="http://www.w3.org/2000/svg" xmlns:xlink="http://www.w3.org/1999/xlink" x="0px" y="0px"
	 viewBox="0 0 512 512" style="enable-background:new 0 0 512 512;" xml:space="preserve">
<style type="text/css">
	.st0{fill:#DADADA;stroke:#000000;stroke-width:3;stroke-linecap:round;stroke-linejoin:round;stroke-miterlimit:10;}
	.st1{fill:#9D9D9C;stroke:#000000;stroke-width:3;stroke-linecap:round;stroke-linejoin:round;stroke-miterlimit:10;}
	.st2{fill:#BB616E;stroke:#000000;stroke-width:3;stroke-linecap:round;stroke-linejoin:round;stroke-miterlimit:10;}
	.st3{fill:none;stroke:#000000;stroke-width:3;stroke-linecap:round;stroke-linejoin:round;stroke-miterlimit:10;}
	.st4{fill:#E593A3;stroke:#000000;stroke-width:3;stroke-linecap:round;stroke-linejoin:round;stroke-miterlimit:10;}
	.st5{fill:#FFD46D;stroke:#000000;stroke-width:3;stroke-linecap:round;stroke-linejoin:round;stroke-miterlimit:10;}
	.st6{fill:#F0E3B2;stroke:#000000;stroke-width:3;stroke-linecap:round;stroke-linejoin:round;stroke-miterlimit:10;}
	.st7{fill:#575756;}
	.st8{fill:#706F6F;}
	.st9{fill:#F6F6F6;stroke:#000000;stroke-width:3;stroke-linecap:round;stroke-linejoin:round;stroke-miterlimit:10;}
	.st10{fill:none;stroke:#000000;stroke-width:3.1932;stroke-linecap:round;stroke-linejoin:round;stroke-miterlimit:10;}
	.st11{fill:#EDEDED;stroke:#000000;stroke-width:3;stroke-linecap:round;stroke-linejoin:round;stroke-miterlimit:10;}
	.st12{fill:#B9D3E5;stroke:#000000;stroke-width:3;stroke-linecap:round;stroke-linejoin:round;stroke-miterlimit:10;}
	.st13{fill:#878787;stroke:#000000;stroke-width:3;stroke-linecap:round;stroke-linejoin:round;stroke-miterlimit:10;}
	.st14{fill:#F6F6F6;stroke:#000000;stroke-width:2;stroke-linecap:round;stroke-linejoin:round;stroke-miterlimit:10;}
	.st15{opacity:0.35;}
	.st16{fill:#FFD46D;}
</style>
<g>
	<ellipse class="st0" cx="268.3" cy="64.5" rx="40.8" ry="11.3"/>
	<path class="st1" d="M309.1,64.5V109c0,2.5-3,4.8-8,6.7c-7.4,2.8-19.3,4.5-32.8,4.5c-13.4,0-25.3-1.8-32.7-4.5c-5-1.9-8-4.2-8-6.7
		V64.5c0,6.2,18.2,11.3,40.7,11.3S309.1,70.7,309.1,64.5z"/>
	<path class="st2" d="M341.1,203.2c-67.2,30.9-123.6,6.7-140.4-2.1c1.3-23.1,15.2-42.9,34.9-52.5v-32.9c7.4,2.8,19.3,4.5,32.7,4.5
		c13.4,0,25.3-1.8,32.8-4.5v30.7C324,155.3,340.4,177.3,341.1,203.2z"/>
	<path class="st2" d="M341.1,295.7v5.3c0,14.5-11.8,26.3-26.3,26.3h-51.6l-27.3-9.1c-3.8-4.1-9.7-8.1-17-10.8
		c-6.5-2.5-12.9-3.5-18.2-3.2c-0.1-1-0.2-2.1-0.2-3.2v-8.3C216,301,273,326.6,341.1,295.7z"/>
	<path class="st3" d="M200.8,304.2c0.1,0.8,0.2,1.6,0.4,2.4c2.6,11.8,13.1,20.6,25.6,20.6h13.5h22.9"/>
	<path class="st4" d="M341.1,204.8v90.9c-68.1,30.9-125,5.3-140.5-3v-88c0-1.2,0-2.4,0.1-3.6c16.8,8.8,73.2,33,140.4,2.1
		C341.1,203.7,341.1,204.2,341.1,204.8z"/>
	<path class="st5" d="M144.5,238.8c-12.7,10.4-21,24.6-25.6,34.6l-38.6-26.7c5-10.3,13.5-24.2,26.4-34.1L144.5,238.8z"/>
	<path class="st6" d="M69.1,186.6l37.6,26c-12.9,9.9-21.4,23.8-26.4,34.1L44.6,222c-6.6-4.6-8.2-13.6-3.7-20.2l8-11.5
		C53.4,183.6,62.5,182,69.1,186.6z"/>
	<polygon class="st7" points="62,368.9 62,377.3 264.1,458.8 264.1,450.3 170.9,393.3 97.9,368.9 	"/>
	<polygon class="st8" points="264.1,450.3 264.1,458.8 398.5,376.4 398.5,371.3 355.6,383.3 308.1,404.3 262.1,422.2 262.1,440.8 	
		"/>
	<path class="st6" d="M187.2,286l-8,11.5c-4.6,6.6-13.6,8.2-20.2,3.7l-40.1-27.8c4.7-10,12.9-24.2,25.6-34.6l39,27
		C190.1,270.4,191.8,279.4,187.2,286z"/>
	<polygon class="st0" points="397.1,371.8 264.1,450.3 62,368.9 194.1,304.3 196,304.9 201.2,306.6 235.9,318.2 263.2,327.3 	"/>
	<g>
		
			<ellipse transform="matrix(0.3521 -0.9359 0.9359 0.3521 -267.2107 353.9678)" class="st9" cx="122.1" cy="370" rx="13.8" ry="27.5"/>
		
			<ellipse transform="matrix(0.3521 -0.9359 0.9359 0.3521 -214.1029 380.9435)" class="st9" cx="168.1" cy="345.1" rx="13.8" ry="27.5"/>
		<path class="st9" d="M240.3,327.3c0,0.9-0.1,1.8-0.5,2.7c-2.7,7.1-16.4,8.5-30.6,3.2c-14.2-5.4-23.6-15.4-20.9-22.5
			c1-2.8,3.8-4.7,7.6-5.7c1.5-0.4,3-0.6,4.8-0.7c5.3-0.3,11.7,0.7,18.2,3.2c7.2,2.7,13.2,6.6,17,10.8
			C238.7,321.2,240.3,324.4,240.3,327.3z"/>
	</g>
	
		<ellipse transform="matrix(0.3362 -0.9418 0.9418 0.3362 -251.4697 436.8332)" class="st9" cx="184.2" cy="396.8" rx="13.8" ry="27.5"/>
	
		<ellipse transform="matrix(0.3362 -0.9418 0.9418 0.3362 -199.5674 463.4648)" class="st9" cx="229" cy="373.3" rx="13.8" ry="27.5"/>
	
		<ellipse transform="matrix(0.3362 -0.9418 0.9418 0.3362 -145.1322 489.3924)" class="st9" cx="274.6" cy="347.7" rx="13.8" ry="27.5"/>
	
		<ellipse transform="matrix(0.3521 -0.9359 0.9359 0.3521 -234.471 505.6291)" class="st9" cx="248" cy="422.2" rx="13.8" ry="27.5"/>
	
		<ellipse transform="matrix(0.3521 -0.9359 0.9359 0.3521 -180.5411 529.9581)" class="st9" cx="292.5" cy="395.4" rx="13.8" ry="27.5"/>
	
		<ellipse transform="matrix(0.3521 -0.9359 0.9359 0.3521 -127.4334 556.9338)" class="st9" cx="338.6" cy="370.5" rx="13.8" ry="27.5"/>
	<path class="st6" d="M105.5,100.5c-0.7,0.5-1.5,1-2.2,1.5c-2.7,2-5.3,4.4-7.6,7.3c-3.1,3.9-5.4,8-6.7,12l-26-18.1
		c-5.9-3.9-7.5-11.9-3.8-17.9c2.4-3.9,6.5-6,10.6-5.9c2.3,0,4.7,0.7,6.8,2.1L105.5,100.5z"/>
	<line class="st10" x1="105.6" y1="100.6" x2="105.5" y2="100.5"/>
	<path class="st5" d="M128.6,110.1c-0.1,0-0.3,0-0.4-0.1c-5.5-0.9-12.7,3-17.5,10c-4.8,6.9-5.9,14.8-3.3,19.7c0,0,0,0,0,0.1
		c-6.1,2.9-12,3.1-15.9,0c-4.5-3.6-5.2-10.8-2.6-18.5c1.4-4,3.6-8.1,6.7-12c2.3-2.9,4.9-5.4,7.6-7.3c0.7-0.5,1.5-1,2.2-1.5
		c7.1-4.5,14.5-5.5,19.1-1.8C127.6,101.2,128.9,105.3,128.6,110.1z"/>
	<path class="st11" d="M190,173.8c-2,2.8-9.9,0.8-17.6-4.6c-0.8-0.6-1.6-1.1-2.3-1.7c-3.2,2.6-7.2,3.9-11.3,3.9
		c-3.6,0-7.2-1-10.3-3.2l-41-28.4c-2.6-4.9-1.5-12.8,3.3-19.7c4.9-7,12-10.9,17.5-10l40.8,28.3c6.2,4.3,8.9,11.8,7.4,18.7v0
		c1,0.6,2,1.2,3,1.9C187.2,164.3,192,171,190,173.8z"/>
	<path class="st0" d="M344,343.2c0,0,2.3,8.8,23.8-20.7s36-53.6,42.5-61.3c6.1-7.2,22.6-30,28.1-39s44-75.7,33.5-92.5l-27,29.3
		l-73.3,139.7L344,343.2z"/>
	<path class="st12" d="M183.7,211L183.7,211c-4.5,0-7.8-4.3-6.6-8.7l2-7.2l4.5-15.9l4.5,15.9l2,7.2C191.5,206.7,188.3,211,183.7,211
		L183.7,211z"/>
	<path class="st3" d="M358.3,326.7c0,0,2.6,1.8,2.8,4.6"/>
	<path class="st11" d="M469.9,141.9l-53.9,94.9l-26-12.6l46.1-99c3.3-6.6,10-10.5,16.9-10.5c2.8,0,5.6,0.6,8.3,1.9
		C470.7,121.3,474.5,132.6,469.9,141.9z"/>
	<path class="st13" d="M358.3,326.7c-1.8,2.6-3.4,5-4.8,7c-11.2,16.6-12.8,10.1-3.5-9.5C350,324.2,354.1,322.8,358.3,326.7z"/>
	<path class="st11" d="M416.1,236.8c0,0-2.4,6.1-7.5,14.4c-5.2,8.5-34.5,52.2-50.3,75.5c-4.2-3.9-8.3-2.5-8.3-2.5
		c1.9-4,4.2-8.6,7-13.7c16.5-29.7,33-86.3,33-86.3L416.1,236.8z"/>
	<rect x="414" y="177" transform="matrix(0.904 0.4275 -0.4275 0.904 123.824 -161.0326)" class="st14" width="13" height="36.5"/>
	<circle class="st14" cx="441.8" cy="154.7" r="12.3"/>
	<circle cx="441.8" cy="154.7" r="8.2"/>
	<g class="st15">
		<g>
			<circle class="st16" cx="51.2" cy="214.1" r="4.3"/>
			<circle class="st16" cx="54.2" cy="201.1" r="4.3"/>
			<circle class="st16" cx="67.6" cy="196.9" r="4.3"/>
		</g>
		<g>
			<circle class="st16" cx="69.6" cy="226.3" r="4.3"/>
			<circle class="st16" cx="72.6" cy="213.3" r="4.3"/>
			<circle class="st16" cx="85.9" cy="209.1" r="4.3"/>
		</g>
		<g>
			<circle class="st16" cx="137.2" cy="273.7" r="4.3"/>
			<circle class="st16" cx="140.2" cy="260.7" r="4.3"/>
			<circle class="st16" cx="153.6" cy="256.4" r="4.3"/>
		</g>
		<g>
			<circle class="st16" cx="158.9" cy="288.4" r="4.3"/>
			<circle class="st16" cx="161.9" cy="275.4" r="4.3"/>
			<circle class="st16" cx="175.2" cy="271.1" r="4.3"/>
		</g>
	</g>
</g>
</svg>
