<?xml version="1.0" encoding="utf-8"?>
<!-- Generator: Adobe Illustrator 22.1.0, SVG Export Plug-In . SVG Version: 6.00 Build 0)  -->
<svg version="1.1" id="Слой_3" xmlns="http://www.w3.org/2000/svg" xmlns:xlink="http://www.w3.org/1999/xlink" x="0px" y="0px"
	 viewBox="0 0 512 512" style="enable-background:new 0 0 512 512;" xml:space="preserve">
<style type="text/css">
	.st0{fill:#49332E;stroke:#000000;stroke-width:2.1504;stroke-linecap:round;stroke-linejoin:round;stroke-miterlimit:10;}
	.st1{fill:#49332E;stroke:#000000;stroke-width:2.0574;stroke-linecap:round;stroke-linejoin:round;stroke-miterlimit:10;}
	.st2{fill:#634940;stroke:#000000;stroke-width:2.0574;stroke-linecap:round;stroke-linejoin:round;stroke-miterlimit:10;}
	.st3{fill:#BD6546;stroke:#000000;stroke-width:2;stroke-linecap:round;stroke-linejoin:round;stroke-miterlimit:10;}
	.st4{fill:#FFD25B;stroke:#000000;stroke-width:2;stroke-linecap:round;stroke-linejoin:round;stroke-miterlimit:10;}
	.st5{fill:#662227;stroke:#000000;stroke-width:2;stroke-linecap:round;stroke-linejoin:round;stroke-miterlimit:10;}
	.st6{fill:#87584C;stroke:#000000;stroke-width:2.0574;stroke-linecap:round;stroke-linejoin:round;stroke-miterlimit:10;}
	.st7{fill:none;stroke:#000000;stroke-width:2;stroke-linecap:round;stroke-linejoin:round;stroke-miterlimit:10;}
	.st8{fill:#8A242E;stroke:#000000;stroke-width:2;stroke-linecap:round;stroke-linejoin:round;stroke-miterlimit:10;}
	.st9{fill:#816164;stroke:#000000;stroke-width:2;stroke-linecap:round;stroke-linejoin:round;stroke-miterlimit:10;}
	.st10{fill:#FDCD95;stroke:#000000;stroke-width:2;stroke-linecap:round;stroke-linejoin:round;stroke-miterlimit:10;}
	.st11{fill:#FFFFFF;}
	.st12{fill:#FFFFFF;stroke:#000000;stroke-width:2;stroke-linecap:round;stroke-linejoin:round;stroke-miterlimit:10;}
	.st13{fill:#FCDAB9;stroke:#000000;stroke-width:2;stroke-linecap:round;stroke-linejoin:round;stroke-miterlimit:10;}
	.st14{fill:#FFFFFF;stroke:#000000;stroke-width:3;stroke-linecap:round;stroke-linejoin:round;stroke-miterlimit:10;}
	.st15{fill:#FFAFB9;}
	.st16{fill:#A32105;stroke:#000000;stroke-linecap:round;stroke-linejoin:round;stroke-miterlimit:10;}
	.st17{fill:none;stroke:#000000;stroke-linecap:round;stroke-linejoin:round;stroke-miterlimit:10;}
	.st18{stroke:#000000;stroke-width:2.1504;stroke-linecap:round;stroke-linejoin:round;stroke-miterlimit:10;}
</style>
<path class="st0" d="M54.1,524.5L54.1,524.5c-4.9,0-8.9-4-8.9-8.9l0-82.8c0-4.9,4-8.9,8.9-8.9h0c4.9,0,8.9,4,8.9,8.9l0,82.8
	C63.1,520.4,59,524.5,54.1,524.5z"/>
<polygon class="st1" points="34.7,431.7 199.9,431.7 188.7,383.5 71.3,350.3 56.8,338.7 "/>
<polygon class="st2" points="63.1,350.1 34.7,431.7 8.3,278.6 40.7,241.1 "/>
<path class="st3" d="M401.8,153.5c0,0,28.5,31,44.5,16.3c0,0,8.8-6.8,2.5-13c0,0,4.8-10.3-1.5-11.5c0,0,5.5-16.5-4.5-17.8
	c0,0,7.8-15-6-20.8c0,0,13.8-70-42.8-66c0,0-47.3-1.8-52,29c0,0-3.5,9.5,3,17.5c0,0-5.8,11.4,0,17.9c0,0-7.4,8.3-3.9,13.1
	c0,0-8.1,5.3-4.1,9.8c0,0-8.3,11.5,1.5,16.8c0,0-3.7,12.5,8.8,13c0,0-1.8,14.5,8.5,13.3l19.8,5.5l8.3-5.8h15.8L401.8,153.5z"/>
<path class="st4" d="M404.5,153.5c0,0,9.8,7,13.5,6.7c3.7-0.3,7.5-3.8,26.8,14.7c19.3,18.5,19.3,18.5,19.3,18.5l0,0l8.5,7
	c0,0-8.3,16.7-17.3,19l-17.8-9.8c0,0,0.7,46.5,6.2,53.2c0,0,13.7,28,25.2,33.2l-64.3,7.5l-42.3-6.5c0,0,4.3-40.5,0-53.2
	c-4.3-12.7-14.3-21.5-7-36.8l-15.7,5.5c0,0-12.8-17.2-15.5-26.8c0,0,44.3-27.7,60.8-27.8L404.5,153.5z"/>
<path class="st5" d="M74,187.3c0,0-26.5,4.5-27.8-14.5s-0.8-12.3-3.5-24s1.8-23,11.5-26.3s15.3-15,16.8-23s21.4-36.8,57.6-7.3
	c0,0,16.9,18,3.1,28.3l-26.5,20.2L89.5,150l2,12.2l-6.5,9.6L74.8,183L74,187.3z"/>
<polygon class="st6" points="89.5,350 179.7,297.7 526,291.5 532.8,350 "/>
<path class="st7" d="M137.1,109.5c0,0-0.3-0.8-1-1.9c-6.1-10.5-19.8-13.3-29.9-6.5c-2.8,1.9-6.7,3.9-11.3,4.4
	c-10,1.3-15.8,1.7-16.8,5.4"/>
<path class="st8" d="M94.7,204.7c0,0,18-2.3,28,14.9s33,69.1,57,78.1l9,5.7l-8.3,19.3c0,0-16,4.3-52.3-28.7c0,0-17-36.3-17.7-38
	C109.7,254.3,94.7,204.7,94.7,204.7z"/>
<path class="st9" d="M46.3,360.7c0,0-14.7,60,60.3,67.3v-55.7L46.3,360.7z"/>
<path class="st10" d="M157,326.3c0,0,16,0.7,19.3-14c3.3-14.7,10.7-26.3,14.7-23.7c4,2.7-8,28.3,0,25.7c8-2.7,12.7-19.3,16.7-17.3
	s-6.3,18.7-6.3,18.7s23-16,19.3-2.3c0,0,2.3,9.7-1.3,11c0,0,3.7,10-2.7,10c0,0-2.7,7-10.7,4.3c0,0-40,3-45.3,4.3L157,326.3z"/>
<path class="st8" d="M61,195.3c0,0-35.5,5.7-30.5,36.2S52,344,39.5,364c0,0,15.6,11,50,5.5V350l7.2-0.5c0,0,17.3,5.5,66.8-5
	c0,0-5-16.5-3-21.5l-27.3-4c0,0-3.8-103.4-37.3-118.7L61,195.3z"/>
<path class="st7" d="M83.8,252.5c0,0,21.8,60,30,62.5s19.5,4,19.5,4"/>
<path class="st7" d="M220.7,313.3c0,0-31.4,8.2-10.4,11.2l9.1-0.2"/>
<path class="st7" d="M33.6,249.6c0,0,35.9,92,67.1,100.7"/>
<path class="st10" d="M56.8,196.3c0,0,17.9-6,19.7-36.7c0,0-6.5-10.1-2.2-16.2c1.7-2.4,5-3.3,7.8-2.3c2.1,0.7,4.9,0.6,6-5.3
	c1.8-9.5,13-2.4,15.2-2.8c9.6-1.8,18.4-35.1,30.4-16.4c2.1,3.3,3.2,7.3,3.2,11.2c-0.1,7.5,0.7,21.7,7.2,27c0,0,4,5.5-6.8,7.2
	l-2.8,7.3c0,0-16.3,0.8-13,5c2,2.6,4.1,4.9,5.5,6.4c0.9,1,1.1,2.4,0.4,3.6c-3.9,6.3-17.2,24.7-30.6,5.8c0,0-2.2,8,4,13.2
	C100.8,203.2,106.1,241.5,56.8,196.3z"/>
<path class="st7" d="M204.3,324.5c0,0-6.4,6.7,12.4,9.8"/>
<path class="st7" d="M203.2,329.4c0,0-8.9,1.4,2.8,9.3"/>
<path class="st7" d="M89.5,178.5c0,0,3.9,7.6,7.3,11.5"/>
<path class="st7" d="M83.8,162.8c0,0-3.6-0.5-7.3-3.2"/>
<path class="st7" d="M129.3,159.5c0,0,4.4,3.4,8,2.5"/>
<path class="st7" d="M113.8,136.5c0,0,11-8,19.5-1.3"/>
<ellipse transform="matrix(0.2936 -0.9559 0.9559 0.2936 -51.618 223.2626)" cx="125.3" cy="146.6" rx="6" ry="3.4"/>
<circle class="st11" cx="126.9" cy="145.8" r="1.7"/>
<path class="st7" d="M131.8,143c0,0-4.8-6.6-13.9,2.8"/>
<path d="M357.9,128.1c0,0,9.6,7,26.9-0.1c0,0-3.6,12.3-14.6,8.1l-7.1,0.1L357.9,128.1z"/>
<path class="st12" d="M385.8,154.8c0,0-11.5,1.5-11.7,5.1c-0.3,3.6,4.6,26.4,4.6,26.4l9.2-9.8l4.5,11.7c0,0,22.5-11.5,24-29.5
	C416.3,158.7,399,145.3,385.8,154.8z"/>
<path class="st13" d="M383.5,146.8v11.8c0,0,9.8,14.8,24.5-2.5v-25.8l-18.7,11.3L383.5,146.8z"/>
<path class="st13" d="M416,123.2c-9.3,17.2-27,30.3-38.7,30.3c-16.6,0-30-21.8-30-48.8c0-6.8,0.8-13.2,2.4-19
	c8.8,1.7,24.7,0.8,50.6-13.2c1.6-0.9-0.5,22.8,13.5,31.6c0,0,4.4-4.4,8.5-4.6c2.2-0.1,4.3,1,5.5,4.6
	C430.9,113.5,423.1,123,416,123.2z"/>
<path class="st14" d="M232,43.5c-43.1,0-78,25.2-78,56.3c0,18.2,12,34.3,30.5,44.6c-3.4,5.9-8.4,12.8-14.5,15.2
	c-9.5,3.7,18.9-0.7,33.5-7.4c8.8,2.5,18.4,3.9,28.5,3.9c43.1,0,78-25.2,78-56.3C310,68.7,275.1,43.5,232,43.5z"/>
<g>
	<path class="st7" d="M182.7,97.1c5.8,0.1,5.5,14.1,11.3,14.2c5.8,0.1,6.1-13.9,11.8-13.8c5.8,0.1,5.5,14.1,11.3,14.2
		c5.8,0.1,6.1-13.9,11.8-13.8c5.8,0.1,5.5,14.1,11.3,14.2c5.8,0.1,6.1-13.9,11.9-13.8c5.8,0.1,5.5,14.1,11.3,14.2
		c5.8,0.1,6.1-13.9,11.9-13.8c5.8,0.1,5.5,14.1,11.3,14.2"/>
</g>
<path class="st7" d="M382.8,93c0,0,9.8-1.3,16.3,5.5"/>
<path class="st7" d="M352.3,90.7c0,0,6.8-3.6,13.5,1.2"/>
<path class="st7" d="M372.6,98.5c0,0-2.1,12.5-6.9,16.5c0,0,1.4,3.3,5.3,3.3"/>
<path class="st7" d="M421.6,105.4c0,0-4.3,5.3-3.6,8.9"/>
<path class="st15" d="M361.9,135.3c0,0,6.9-1.4,18.8,0C380.7,135.3,371.1,144.5,361.9,135.3z"/>
<path class="st11" d="M357.9,128.1c0,0,10.4,9.9,26.9-0.1l-0.3-1.4c0,0-17.9,4.1-25.3,0.5L357.9,128.1z"/>
<path class="st7" d="M424.1,108.5c0,0-5.8,0.5-5.6,2.3"/>
<path class="st7" d="M384.5,126.6c-13.5,3.4-22.4,1.5-26.3,0.2c-0.2,0.4-0.3,0.8-0.3,1.3c0,4.3,6,11,13.4,11
	c7.4,0,13.4-6.9,13.4-11.1C384.8,127.5,384.6,127,384.5,126.6z"/>
<ellipse cx="387.8" cy="106.3" rx="3.1" ry="6.1"/>
<path class="st11" d="M389.1,104.5c0,1-0.6,1.8-1.4,1.8c-0.8,0-1.4-0.8-1.4-1.8s0.6-1.8,1.4-1.8
	C388.5,102.8,389.1,103.5,389.1,104.5z"/>
<g>
	<path d="M384.4,100.7c0.2-0.5,0.7-0.6,1.2-0.7c0.5-0.1,1-0.1,1.4-0.1c0.9,0.1,1.8,0.3,2.7,0.6c0.9,0.3,1.7,0.6,2.5,1
		c0.8,0.4,1.6,0.8,2.3,1.3l-0.1,0c0.9,0.5,1.9,1,2.9,1.4c0.5,0.2,1,0.4,1.5,0.6c0.5,0.2,1,0.3,1.6,0.3c-0.5,0.4-1.1,0.5-1.7,0.5
		c-0.6,0-1.2,0-1.8-0.1c-1.2-0.2-2.2-0.5-3.3-0.9l-0.1,0c-0.8-0.4-1.5-0.8-2.3-1.2c-0.4-0.2-0.7-0.4-1.1-0.6
		c-0.4-0.2-0.7-0.4-1.1-0.6c-0.7-0.4-1.5-0.7-2.3-1.1c-0.4-0.2-0.8-0.3-1.2-0.4C385.2,100.6,384.7,100.5,384.4,100.7z"/>
</g>
<ellipse cx="359.2" cy="104.5" rx="3.1" ry="6.1"/>
<ellipse class="st11" cx="359.3" cy="102.8" rx="1.4" ry="1.8"/>
<g>
	<path d="M363.6,100.3c-1.6-0.2-3-0.3-4.3-0.2c-0.7,0.1-1.3,0.1-2,0.3c-0.7,0.1-1.3,0.3-2,0.5l-0.3,0.1c-0.1,0-0.2,0-0.3,0
		c-0.9-0.5-1.7-1-2.5-1.8c1.1,0,2.1,0.1,3,0.3l-0.6,0c0.7-0.4,1.4-0.8,2.2-1c0.8-0.2,1.6-0.3,2.5-0.3c0.8,0,1.6,0.3,2.4,0.6
		C362.4,99.2,363.1,99.7,363.6,100.3z"/>
</g>
<path class="st7" d="M362.3,179.5c0,0-3.2,23.2-7.2,27.3"/>
<path class="st7" d="M430.2,203.2c0.5,0.5,7.3,6.3,7.3,6.3"/>
<path class="st7" d="M386.1,263.1c0,0,9.5,24.1,10.4,30.7"/>
<path class="st7" d="M387.9,177.3c0,0-8.2,39.2-7.9,47.2"/>
<path class="st7" d="M485,238.5c0,0-7.2-2.7-10.7-1.2"/>
<path class="st13" d="M325.3,189.2l-28.8,12.3l20.3-24.2c0,0,26.8-5.2,20-12.8c0,0,6.7-4.6,1.1-7.3c0,0,2.2-5.4-2.1-5.8
	c0,0,20.8-18.9,8-14.4c-12.8,4.5-88.3,63.2-66,82.7c0,0,11.7,12.8,59.7-10.3L325.3,189.2z"/>
<path class="st7" d="M288.8,211c0,0,1.8-4.7,7.8-9.5"/>
<polygon class="st12" points="321.5,224.5 390.8,226.8 380,311.3 312.5,305.3 "/>
<path class="st13" d="M457.7,218.4l16.6,18.9c0,0-54,11-69.7,7.7c-15.7-3.3-27.4-3.7-24.7,2.7c0,0-6.3,1.6-3.1,5.5
	c0,0-4.2,3.7,1.3,5.5c0,0-4.2,3.8,3.3,4.1c0,0,1.4,1.2,14.4-0.9c13-2.1,66.6-3,78.4-6.7c14-4.3,29.3-9.2,19.6-29.3
	c-2.1-4.4-5.1-8.3-8.6-11.7L472,201.5C472,201.5,464.4,216.6,457.7,218.4z"/>
<path class="st5" d="M350.2,236.1c0.6,3.5,2,12,0.3,13.8l3.6,1.9c0,0,5.1-14.2,2.6-15.9c-1.3-0.9-3.7-1.2-5.3-1.3
	C350.7,234.6,350,235.3,350.2,236.1z"/>
<path class="st16" d="M347.3,248.5c0,0-24.3-5.4-19.4,23.8c0.5,3.1,1.7,6.1,3.4,8.8c3.9,6,12.2,14.7,25.3,8.1
	c5.7-2.8,10-7.8,12.4-13.7c3.6-8.8,6.7-22.1-6.9-22.8C362.1,252.7,355.1,246.1,347.3,248.5z"/>
<path class="st17" d="M342.1,251.7c0,0,2-2.6,5.2-3.1"/>
<rect x="34.7" y="431.7" class="st18" width="95.7" height="5.7"/>
<path class="st17" d="M363.7,258.4c0,0,0-4.5-1.6-5.7"/>
<rect x="100.8" y="357" class="st2" width="421" height="191.5"/>
<rect x="89.5" y="350" class="st2" width="443.3" height="24.9"/>
</svg>
