<?xml version="1.0" encoding="utf-8"?>
<!-- Generator: Adobe Illustrator 22.1.0, SVG Export Plug-In . SVG Version: 6.00 Build 0)  -->
<svg version="1.1" id="Слой_6" xmlns="http://www.w3.org/2000/svg" xmlns:xlink="http://www.w3.org/1999/xlink" x="0px" y="0px"
	 viewBox="0 0 512 512" style="enable-background:new 0 0 512 512;" xml:space="preserve">
<style type="text/css">
	.st0{fill:#FFF1AD;stroke:#000000;stroke-width:3;stroke-linecap:round;stroke-linejoin:round;stroke-miterlimit:10;}
	.st1{fill:#F0E3B2;stroke:#000000;stroke-width:3;stroke-linecap:round;stroke-linejoin:round;stroke-miterlimit:10;}
	.st2{fill:none;stroke:#000000;stroke-width:3;stroke-linecap:round;stroke-linejoin:round;stroke-miterlimit:10;}
	.st3{fill:#857154;stroke:#000000;stroke-width:3;stroke-linecap:round;stroke-linejoin:round;stroke-miterlimit:10;}
	.st4{fill:#FDCD95;stroke:#000000;stroke-width:3;stroke-linecap:round;stroke-linejoin:round;stroke-miterlimit:10;}
	.st5{fill:#B5D758;stroke:#000000;stroke-width:3;stroke-linecap:round;stroke-linejoin:round;stroke-miterlimit:10;}
	.st6{fill:#FFD25B;stroke:#000000;stroke-width:3;stroke-linecap:round;stroke-linejoin:round;stroke-miterlimit:10;}
	.st7{fill:#FFFFFF;}
	.st8{fill:#AAD3E5;stroke:#000000;stroke-width:3;stroke-linecap:round;stroke-linejoin:round;stroke-miterlimit:10;}
	.st9{fill:#A5C3CE;stroke:#000000;stroke-width:3;stroke-linecap:round;stroke-linejoin:round;stroke-miterlimit:10;}
	.st10{fill:#C8E2E8;stroke:#000000;stroke-width:3;stroke-linecap:round;stroke-linejoin:round;stroke-miterlimit:10;}
	.st11{fill:#FFFFFF;stroke:#000000;stroke-width:3;stroke-linecap:round;stroke-linejoin:round;stroke-miterlimit:10;}
	.st12{fill:#DADADA;stroke:#000000;stroke-width:3;stroke-linecap:round;stroke-linejoin:round;stroke-miterlimit:10;}
	.st13{fill:#A80206;stroke:#000000;stroke-width:2;stroke-linecap:round;stroke-linejoin:round;stroke-miterlimit:10;}
	.st14{fill:#FFFFFF;stroke:#A80206;stroke-width:3;stroke-miterlimit:10;}
	.st15{fill:#A80206;}
	.st16{fill:none;stroke:#A80206;stroke-width:2;stroke-linecap:round;stroke-linejoin:round;stroke-miterlimit:10;}
	.st17{opacity:0.8;fill:#C8E2E8;stroke:#1D1D1B;stroke-width:0.5;stroke-miterlimit:10;}
</style>
<g>
	<path class="st0" d="M-9,322l393-92.9L612,329l-23,305c0,0-313,36-328,34S0,686,0,686s-37-158-40-159s12-121,12-121.5
		s-1-50.7-1-50.7L-9,322z"/>
	<path class="st1" d="M59.5,221.5c0,0-71-101.5-6-98.5c0,0,155.5-19,199-35.5s69-29,72,7s-3.5,57,17,73.5s64.2,35.7,62.2,45.7
		s-15.3,62.7-112.7,68.7c0,0-184,95.3-211.3,67.3S59.5,221.5,59.5,221.5z"/>
	<path class="st2" d="M102.5,259c0,0-27.9-12.9-43-37.5"/>
	<path class="st3" d="M124.8,104.9c0,0,7-34.8,50.4-30l-9.8,3.2c2.3-0.9,4.5-1.7,6.7-2.4c68.1-19.9,110.8,98.6,110.8,98.6
		c14.1,50.9-60.8,74.4-60.8,74.4c-51.3,26.7-107.3,4-113.3-74.4c-3.8-49,9.9-66.8,21.6-73.2c7-3.9,13.2-3.6,14.4-3.6"/>
	<path class="st2" d="M313,177.5c0,0,12-15.1,14.2-33.5"/>
	<path class="st4" d="M196.3,227.8c0,0,21.2,46,20.4,53s44.3-6,44.3-6l10-24.5l-25.5-43l-18,10.5L200,228l-5.5-1.3L196.3,227.8z"/>
	<path class="st5" d="M189,405.5c-0.5-1.4-54-112.6-14.5-137.4c5.7-3.6,12.7-4.8,19.4-3.6c13.5,2.3,51.7,5.9,76.1-20.5
		c30-32.5,54.5-12.5,101,67l-22,32.5l-76.5,49l-39,8.5L189,405.5z"/>
	<path class="st2" d="M191,318.5c0,0,22,68.5,34,72.5"/>
	<path class="st2" d="M317,270.5c0,0,25,41.5,26.5,51.5"/>
	<path class="st6" d="M531.7,277.7c0,0-194.7-12.3-355.3,127.8S21,548.3,21,548.3h496c0,0,65-64.3,61-75.3s-11-128-16-137
		s-26-58.6-26-58.6L531.7,277.7z"/>
	<path class="st2" d="M531.7,322c0,0-246.7,17-388.7,205"/>
	<ellipse transform="matrix(0.9636 -0.2672 0.2672 0.9636 -32.2101 73.782)" class="st4" cx="255" cy="155.3" rx="7.2" ry="16.4"/>
	<ellipse transform="matrix(0.9224 -0.3861 0.3861 0.9224 -66.301 74.8746)" class="st4" cx="153.2" cy="202.5" rx="7" ry="14.3"/>
	<path class="st4" d="M231.1,232.6c-27,13.8-62.2-1.1-78.7-33.3c-2-3.9-3.6-7.8-4.9-11.8c0.6-0.6,1.1-1.5,1.5-2.9
		c0.9-2.9,0.9-5.9,0.3-8.8l-4.5-20.5c0.2-1.4,0.5-2.8,0.8-4.2c5.1,8.7,15.1,23.3,11.5-1.7l-3.9-16.9c0.3-0.5,0.7-1,1.1-1.6
		c4.8,7.3,15.7,21.5,14.1-1.2c0,0,17.1,6.8,20.4-18.7c0.6,0,1.2-0.1,1.8-0.1c4.2,7.5,16.4,26.1,26.8,5.7c0.8,0.4,1.6,0.8,2.3,1.2
		c1.3,8.4,5.3,23.3,16.8,12.6c0.6,0.6,1.1,1.2,1.7,1.8c0.1,4.1,1.3,10.1,7.9,10.2c1.4,2.2,2.8,4.5,4,7
		C266.5,181.5,258,218.8,231.1,232.6z"/>
	<path class="st2" d="M130.7,164.4c0,0,11.4,28.7,16.8,23"/>
	<line class="st2" x1="144.7" y1="155.3" x2="142.7" y2="146.1"/>
	<path class="st2" d="M142.7,146.1C142.7,146.1,142.7,146.1,142.7,146.1c0.1,0.3,1.2,2.4,2.8,5"/>
	<line class="st2" x1="153.2" y1="132.5" x2="152" y2="127.4"/>
	<path class="st2" d="M152,127.4C152,127.4,152,127.4,152,127.4c0.1,0.2,0.9,1.6,2.2,3.5"/>
	<path class="st2" d="M188.7,111c0.1-0.9,0.2-1.9,0.3-2.9c0,0,0.5,1.1,1.5,2.8"/>
	<path class="st2" d="M217.3,116.6c0.6-1.2,1.2-2.4,1.8-3.9c0,0,0.1,2.1,0.6,5"/>
	<path class="st2" d="M236.4,130.4c0.6-0.6,1.3-1.2,2-2c0,0-0.3,1.6-0.3,3.8"/>
	<path class="st2" d="M206.7,216c0,0,15.7-23.3,36.7-19.7"/>
	<path class="st2" d="M206.7,186.7c0,0,2.9-10.3,12.9-8.3"/>
	<path class="st2" d="M178,151.1c0,0-11.7,18.5-11,25.2"/>
	<path class="st2" d="M200,139c0,0,19.3-3,29,4.3"/>
	<ellipse transform="matrix(0.8425 -0.5387 0.5387 0.8425 -65.0287 125.8913)" cx="182.8" cy="174.1" rx="4.8" ry="9.9"/>
	<ellipse transform="matrix(0.8425 -0.5387 0.5387 0.8425 -65.0287 125.8913)" class="st7" cx="182.8" cy="174.1" rx="2" ry="4.2"/>
	<path class="st2" d="M183.8,161.8c0,0-9.3,2-10,15.7"/>
	<ellipse transform="matrix(0.866 -0.5 0.5 0.866 -48.3924 129.8976)" cx="218.2" cy="155.3" rx="4.8" ry="9.9"/>
	<ellipse transform="matrix(0.886 -0.4638 0.4638 0.886 -47.1161 118.8962)" class="st7" cx="218.2" cy="155.3" rx="2" ry="4.2"/>
	<path class="st2" d="M207.3,147.8c0,0,7.8-5.5,18.3,3.2"/>
	<polygon class="st8" points="127.8,352.9 127.8,459.6 39.1,459.6 39.1,352.7 84.5,352.8 115.1,352.9 	"/>
	<polygon class="st9" points="39.1,352.7 39.1,459.1 15.8,430.8 15.1,338.3 	"/>
	<line class="st2" x1="15.1" y1="338.3" x2="15.1" y2="338.3"/>
	<polygon class="st10" points="127.8,352.9 114.4,353 114.4,353 85.5,353.2 40.5,353.5 39.1,352.7 15.1,338.3 15,338.3 15.1,338.3 
		34.1,337.4 56.4,336.4 70.8,335.8 79.4,335.4 100.5,334.5 124.7,350.8 	"/>
	<path class="st11" d="M80.8,293.3c0,0,18.2-0.9,9.3,17.3c-7.7,15.6-12.1,39-25,35.1c-4.2-1.3-7.4-4.8-8.6-9
		c-4.7-16.9-19.3-73.9,1.3-66.8c20.1,6.8,27.1,6.8,17.2,12.4c-2.1,1.2-4.9,2.6-8.4,4.3C45.8,296.8,80.8,293.3,80.8,293.3z"/>
	<path class="st12" d="M198.8,339.9c-0.1-3.1-0.2-6.3-0.2-9.6c0-27.9,4.2-50.5,9.4-50.5c5.2,0,9.4,22.6,9.4,50.5
		c0,17.3-1.6,32.6-4.1,41.7C208.4,363.6,203.2,351.3,198.8,339.9z"/>
	<ellipse class="st13" cx="208.6" cy="321.8" rx="3.4" ry="17.8"/>
	<g>
		<circle class="st14" cx="408" cy="87.4" r="62.8"/>
		<polygon class="st15" points="459,73.3 422.1,73.3 422.1,36.4 393.9,36.4 393.9,73.3 357,73.3 357,101.5 393.9,101.5 393.9,138.4 
			422.1,138.4 422.1,101.5 459,101.5 		"/>
	</g>
	<line class="st16" x1="196.7" y1="248.2" x2="203" y2="277.3"/>
	<line class="st16" x1="225" y1="261.4" x2="217.4" y2="282.8"/>
	<line class="st16" x1="240.3" y1="280.6" x2="222.5" y2="299.5"/>
	<line class="st16" x1="178.6" y1="277.4" x2="196.3" y2="296.3"/>
	<g>
		<path class="st16" d="M101.6,33.3c5.9,6.8-1.6,13.4,4.4,20.1c5.9,6.7,13.4,0.1,19.4,6.9c5.9,6.8-1.6,13.4,4.4,20.1
			s13.4,0.2,19.4,6.9"/>
	</g>
	<g>
		<path class="st16" d="M99.9,65c4.5,5.1-3,11.7,1.5,16.8c4.5,5.1,12-1.5,16.5,3.6c4.5,5.1-3,11.7,1.5,16.8c4.5,5.1,12-1.5,16.5,3.6
			"/>
	</g>
	<g>
		<path class="st16" d="M136.5,37.8c4.9,5.6-2.6,12.2,2.4,17.8c4.9,5.6,12.5-1,17.4,4.6c4.9,5.6-2.6,12.2,2.4,17.8s12.5-1,17.4,4.6"
			/>
	</g>
	<path class="st17" d="M171.5,195.4l-0.9,6.4c-0.3,1.9,1.6,3.5,3.4,3h0c1.9-0.5,2.6-2.8,1.4-4.3L171.5,195.4z"/>
	<path class="st17" d="M176.2,139.1l1.5,6.2c0.5,1.9,2.7,2.7,4.3,1.6l0,0c1.6-1.2,1.4-3.6-0.2-4.6L176.2,139.1z"/>
	<path class="st17" d="M189.7,137.3l1.5,6.2c0.5,1.9,2.7,2.7,4.3,1.6l0,0c1.6-1.2,1.4-3.6-0.2-4.6L189.7,137.3z"/>
	<path class="st17" d="M182,134.7l0.9,3.7c0.3,1.1,1.6,1.6,2.6,0.9l0,0c0.9-0.7,0.9-2.1-0.1-2.7L182,134.7z"/>
	<path class="st17" d="M180.5,199.1l-0.2,3.8c-0.1,1.2,1.1,2,2.2,1.6l0,0c1.1-0.4,1.4-1.8,0.6-2.6L180.5,199.1z"/>
	<path class="st17" d="M234.5,155l0.5,3.8c0.1,1.2,1.4,1.8,2.4,1.2l0,0c1-0.6,1.1-2,0.2-2.7L234.5,155z"/>
	<path class="st17" d="M234.4,145.7l1.5,6.2c0.5,1.9,2.7,2.7,4.3,1.6l0,0c1.6-1.2,1.4-3.6-0.2-4.6L234.4,145.7z"/>
	<path class="st17" d="M191.3,220.3l-0.4,6.4c-0.1,2,1.8,3.4,3.6,2.7h0c1.8-0.7,2.4-3,1.1-4.4L191.3,220.3z"/>
</g>
</svg>
