<?xml version="1.0" encoding="utf-8"?>
<!-- Generator: Adobe Illustrator 22.1.0, SVG Export Plug-In . SVG Version: 6.00 Build 0)  -->
<svg version="1.1" id="Слой_5" xmlns="http://www.w3.org/2000/svg" xmlns:xlink="http://www.w3.org/1999/xlink" x="0px" y="0px"
	 viewBox="0 0 512 512" style="enable-background:new 0 0 512 512;" xml:space="preserve">
<style type="text/css">
	.st0{fill:#A57840;stroke:#000000;stroke-width:2;stroke-linecap:round;stroke-linejoin:round;stroke-miterlimit:10;}
	.st1{fill:#B9D3E5;stroke:#000000;stroke-width:2.6609;stroke-linecap:round;stroke-linejoin:round;stroke-miterlimit:10;}
	.st2{fill:none;stroke:#000000;stroke-width:2.6609;stroke-linecap:round;stroke-linejoin:round;stroke-miterlimit:10;}
	.st3{fill:#A57840;}
	.st4{fill:#575756;stroke:#000000;stroke-width:2.6609;stroke-linecap:round;stroke-linejoin:round;stroke-miterlimit:10;}
	.st5{fill:#FFFFFF;stroke:#000000;stroke-width:2;stroke-linecap:round;stroke-linejoin:round;stroke-miterlimit:10;}
	.st6{fill:none;stroke:#000000;stroke-width:2;stroke-linecap:round;stroke-linejoin:round;stroke-miterlimit:10;}
	.st7{fill:#FDCD95;stroke:#000000;stroke-width:2;stroke-linecap:round;stroke-linejoin:round;stroke-miterlimit:10;}
	.st8{fill:none;stroke:#000000;stroke-width:2.1056;stroke-linecap:round;stroke-linejoin:round;stroke-miterlimit:10;}
	.st9{fill:#FFFFFF;}
	.st10{fill:none;stroke:#000000;stroke-width:6.2087;stroke-linecap:round;stroke-linejoin:round;stroke-miterlimit:10;}
	.st11{fill:none;stroke:#000000;stroke-width:8.8696;stroke-linecap:round;stroke-linejoin:round;stroke-miterlimit:10;}
	.st12{fill:#FFAFB9;}
	.st13{fill:#878787;stroke:#000000;stroke-width:2.6609;stroke-miterlimit:10;}
	.st14{fill:#EDEDED;stroke:#000000;stroke-width:2.6609;stroke-linecap:round;stroke-linejoin:round;stroke-miterlimit:10;}
	.st15{fill:#A80206;}
</style>
<g>
	<path class="st0" d="M195.4,193.5c0,0,9,17.8-3.5,30.8s-40.3,41-25.3,51.8s20.3,15.5,15.5,27s0.5,11.5,0.5,11.5l20.3-1.3l18.8-9.5
		c0,0,11.3-11.5,11-13s0-24.8,0-24.8l-1.8-25.3c0,0-11.8-26.3-13.8-29.3s-11.8-16.5-12.8-16.8S195.4,193.5,195.4,193.5z"/>
	<path class="st1" d="M216.2,299.3c0,0-63.7,5.6-68.4,35c-4.6,29.3-23.9,176.8-17.3,209.8c6.6,33,26.1,54.9,26.1,54.9l138.6-11.5
		l87.6,13.4c0,0-16.8-146-15.8-146.6c0.9-0.7-9.3-61.2-13.2-101.3c-2.6-26.4-0.5-46.1-50.2-51.9S216.2,299.3,216.2,299.3z"/>
	<line class="st2" x1="188.2" y1="390.8" x2="173" y2="565.5"/>
	<line class="st2" x1="316.9" y1="409.1" x2="332.3" y2="565.5"/>
	<path class="st3" d="M274.7,240.8l-9.1,22.3l1.3,23.2l9.9,16.2l17.8,4c0,0,23.2-15.8,23-18.3c-0.2-2.5-7.7-38-7.2-44.8
		s-6.8-24.3-8.5-25.3s-17,4.7-17.3,5.5S274.7,240.8,274.7,240.8z"/>
	<polygon class="st5" points="199.5,300.4 176.4,337.7 199.5,341.2 200.4,375 252.2,447.4 303.5,372 295.9,342.2 323.4,335.5 
		306.3,298.4 	"/>
	<polygon class="st1" points="231.6,294.2 195.1,301.2 250.9,370.2 309.4,299.7 278.4,286.2 	"/>
	<path class="st6" d="M269.1,348.3l-13.4-22.6c-2.1-3.5-7.1-3.2-8.9,0.4l-11.9,24.4"/>
	<path class="st7" d="M229.9,238.5c0,0,6,48.2-10.5,61.5c0,0,35.6,53,71.8-4c0,0-22.8-9.5-17.3-47.5l-18.6,5.5l-17.4-7L229.9,238.5z
		"/>
	<path class="st0" d="M229.6,95c0,0-36.5,11.5-39,13.5s-37,54-2.8,69l12.3-7.5l2.5-22.5c0,0,2.5-22.3,2.8-23S229.6,95,229.6,95z"/>
	<path class="st7" d="M219.9,102.5c0,0-38,28.5-21,62c0,0-15.5-3.5-14,10.5s5.4,24.5,17.4,26.5c0,0,12.4,59.5,54.7,56.6
		c13-0.9,24.9-7.8,32.5-18.4c7.1-9.8,16.4-23.7,17.3-30.7c1.5-11.5,3.5-42,3.5-42l-8-56l-12-16.5h-58.5h-8.5L219.9,102.5z"/>
	<path class="st6" d="M190.6,173.8c0,0,6.5,5.5,9.5,13.3"/>
	<path class="st6" d="M190.6,182c0,0,3.2-2.3,7,0"/>
	<path d="M232.6,218.2c0,0,14.1,3.6,18.2,3c4.2-0.7,23.9-3,23.9-3s-5.2,11.8-7.8,13.9s-13.3,2.2-13.3,2.2l-11.5-0.9
		C242.2,233.3,232.7,218.9,232.6,218.2z"/>
	<ellipse class="st8" cx="282.7" cy="166" rx="19.5" ry="11.5"/>
	<path class="st0" d="M293.7,140.5c0,0-35.9-1.5-27.9-6c1.8-1,3.9-1.1,5.9-0.6L293.7,140.5z"/>
	<line class="st6" x1="253.1" y1="507.2" x2="250.9" y2="370.2"/>
	<path class="st6" d="M247.6,245.3c0,0,3.6,3.8,12.6,0"/>
	<path class="st0" d="M286.7,99.4c-4,0.3-6.1,4.8-3.7,8c4.6,6.1,10.1,15.5,10.1,25.6c0,17.5-1.9,36.4,7.5,51
		c9.8,15.3,3.1,24.8,1.6,29.3s-6.4,14.5-2.2,20.9c9.4,14.4-4.5,32.9-5.5,38.2c-1.1,5.2-0.4,15.2,2.7,20.5c2.5,4.3,42.1,15,44.8,19.3
		c3.3,5.3,4.3-14.4,0.7-23.8c-2.4-6.3,1.5-17.7,6.5-23.8c5-6.2,6.8-17.7,0-26.2c-4.5-5.6-9.5-19-5-30.5s1.5-24.5-5-30.5
		s-9-16.5-6-28.5s-11.5-37.5-20.9-40.6c-7.9-2.6-19.8-7.2-23.4-8.6C288.1,99.5,287.4,99.4,286.7,99.4L286.7,99.4z"/>
	<path class="st6" d="M245.4,149.8c0,0,8.9,28,2.2,46.5c0,0,4.3,5.5,10.3,1.5"/>
	<path class="st6" d="M262.4,191.5c0,0,2.3,2.8,1.5,5"/>
	<path class="st0" d="M208.1,140.5c0,0,35.9-1.5,27.9-6c-1.8-1-3.9-1.1-5.9-0.6L208.1,140.5z"/>
	<path class="st9" d="M232.6,218.2c0,0,20.1,11.8,41.6,0.8c0,0,1.6-5.5-0.7-4.4c-2.3,1.1-25,7-39.7-1.3l-1.2,0.7L232.6,218.2z"/>
	<ellipse class="st8" cx="224.4" cy="166" rx="19.5" ry="11.5"/>
	<ellipse cx="223.4" cy="166.5" rx="4.7" ry="8.5"/>
	<g>
		<path class="st2" d="M164.4,367.6c0,0,11.5,36.2,47.7,23.5"/>
		<g>
			<path class="st2" d="M200.7,355.8c0,0,10.8,36.4-26.3,46.2"/>
			<path class="st10" d="M200.5,354.9c-10.1-13.4-17.5-16.5-22.8-14.6c-10.8,3.7-13.3,27.4-13.3,27.4"/>
			<path class="st11" d="M225.3,280.5c0,0-40.8,7.4-46.4,58.7"/>
			<g>
				<circle cx="216.2" cy="389" r="5"/>
				<circle cx="173.1" cy="401.7" r="5"/>
			</g>
		</g>
	</g>
	<circle class="st9" cx="223.4" cy="163.9" r="2.1"/>
	<path class="st6" d="M215.3,161.8c0,0,8.1-7.4,15.8-0.5"/>
	<ellipse cx="280.4" cy="166.5" rx="4.7" ry="8.5"/>
	<circle class="st9" cx="280.4" cy="163.9" r="2.1"/>
	<path class="st6" d="M288.4,161.8c0,0-8.1-7.4-15.8-0.5"/>
	<path class="st8" d="M243.8,165c0,0,11.6-6.2,19.4,0"/>
	<path class="st12" d="M240.7,231.5c0,0,14.8-3.7,26.2,0.6C266.9,232.1,254.2,246.8,240.7,231.5z"/>
	<g>
		<path class="st6" d="M274.5,214c0.1,0.4,0.2,0.9,0.2,1.5c0,7.4-8.7,23-20.5,23c-11.9,0-21.5-16.5-21.5-23.9c0-0.7,0.1-1.3,0.2-1.8
			"/>
		<path class="st6" d="M232.8,212.9c7.1,2.9,26.9,9.7,41.7,1.1"/>
	</g>
	<path class="st5" d="M184.8,81.5l0.3,35.2c0,0,58.3-42.8,137.7,1.5l-3.4-36.6C319.4,81.5,256.7,12.5,184.8,81.5z"/>
	<path class="st11" d="M280.5,280c0,0,39.4,6.2,38.8,96.2"/>
	<circle class="st13" cx="314.1" cy="398.3" r="19"/>
	<circle class="st14" cx="317.1" cy="389.3" r="11.3"/>
	<polygon class="st15" points="269.5,71.9 256.7,71.9 256.7,59.1 247,59.1 247,71.9 234.2,71.9 234.2,81.7 247,81.7 247,94.5 
		256.7,94.5 256.7,81.7 269.5,81.7 	"/>
</g>
</svg>
