<?xml version="1.0" encoding="utf-8"?>
<!-- Generator: Adobe Illustrator 23.1.0, SVG Export Plug-In . SVG Version: 6.00 Build 0)  -->
<svg version="1.1" id="Слой_1" xmlns="http://www.w3.org/2000/svg" xmlns:xlink="http://www.w3.org/1999/xlink" x="0px" y="0px"
	 viewBox="0 0 283.5 283.5" style="enable-background:new 0 0 283.5 283.5;" xml:space="preserve">
<style type="text/css">
	.st0{fill:#B3D0ED;}
	.st1{fill:#CE8D65;}
	.st2{fill:#25272A;}
	.st3{fill:#DFDFE1;}
	.st4{fill:#6E7378;}
	.st5{fill:#8C9194;}
	.st6{fill:#DCECF9;}
	.st7{fill:#FAD86B;}
	.st8{fill:#FDEAAF;}
	.st9{fill:#FFFFFF;}
	.st10{fill:#80D2EE;}
	.st11{fill:#C1E6F1;}
	.st12{fill:none;stroke:#231F20;stroke-width:0.5;stroke-miterlimit:10;}
	.st13{fill:#FCCDAD;}
	.st14{fill:#5F1E27;}
	.st15{fill:none;stroke:#231F20;stroke-miterlimit:10;}
	.st16{fill:none;stroke:#231F20;stroke-linecap:round;stroke-linejoin:round;stroke-miterlimit:10;}
	.st17{fill:#231F20;}
</style>
<g>
	<g>
		<path class="st0" d="M164.8,103.4c0,0-8.4-16.8-8.1-18.4c0.3-1.6,0.8-3.8,0.8-3.8l2.1-1.5l1-0.2l2,1.2l2.4-0.1l1.6-0.9l4.1,0.9
			l0.7-0.4l0.3-1.6L170,74l-0.9-1l4.8,0.4c0,0,2.8,0.2,4.4,2.8c1.6,2.6,4.3,7.9,4.3,7.9l-0.3,0.8c0,0-7.1,5-7.5,5.6
			c-0.4,0.6-7,8.7-7,8.7l-2.8,4.4"/>
		<path class="st1" d="M171.4,80.2l0.3-2.1l-2-4.9l-0.5-0.3l-0.1-5c0,0,1.1-0.8,1.3-1.4s1.4-3.1,0.5-4.5c-1-1.4-1.8-2.6-3.8,1
			c0,0-6.8-5.7-9.9-3.8c0,0-1.1,3.5-2.4,5.2c-1.3,1.7-1.3,1.7-1.3,1.7v7.3c0,0,4.4,4.9,7.7,6c3.3,1.1,3.3,1.1,3.3,1.1l1.8-0.8
			l1.9,0.3l2.5,0.5L171.4,80.2z"/>
		<path class="st2" d="M153.4,73.4v-7.3c0,0,3.3-4.5,3.6-6.9c0,0,5.5-1.2,9.9,3.8c0,0,2-3.3,3.6-2.1c0,0-1.8-8.1-9.7-9.2
			c0,0-3.8-0.2-6.6,2.2c0,0-6,3.9-5.6,7c0,0-0.9,3,0,5.1C149.5,68.2,151.5,71.7,153.4,73.4z"/>
	</g>
	<path class="st0" d="M149.2,59.1l-12.1,4.5c0,0,10.1,35.5,11.2,37c1.1,1.5,7.2,9.7,12.9,10.3l3.7-6.5l-7.6-16.7
		c0,0-0.7-5.9,0.2-6.5s-9.7,4.4-9.7,4.4s-2,1-3.2-4.2c-1.1-5.2-3.4-14.2-3.4-14.2s0.1-1.8,1.8-2.5c1.7-0.7,5-1.9,5-1.9L149.2,59.1z"
		/>
	<path class="st0" d="M81.3,155.9l-6,10.6c0,0-3.2-2.3-11.6-20.3s-20.1-42.7-20.1-42.7s-1.5-1.6-0.3-2.8c1.1-1.2,5.8-4,5.8-4
		l7.4-2.7l2.3-0.7c0,0,1.5,2.7,3.3,2.7c1.8,0.1-2.3,1.5-2.3,1.5l-9.5,4c0,0-1,1.8-0.4,3.1c0.6,1.3,4.2,9.8,4.2,9.8l5,11.8
		c0,0,2.1,5.3,3,6c0.9,0.6,4,0.4,4,0.4l1.8-0.6l9.2-0.8l5.8,14.5l2.8,4.9L81.3,155.9z"/>
	<polygon class="st3" points="99,96.6 102.2,103.8 102.9,98.4 102.9,23.9 99,19.9 99.7,25.4 	"/>
	<polygon class="st3" points="179.5,77.1 179.5,22.8 176.7,23.5 177.3,25.4 177.3,75 	"/>
	<path class="st3" d="M183.2,84.2l0.4-9.6l1.9-1.3h4.7l22.4,3.5l37.6,6.1l-0.4,4.8l-18.4-2.9l-0.3,6.9l-4.5-1v-7.2L192,77.1
		c0,0-2.4-0.2-2.8,0.6c-0.4,0.8-1.4,4.2-0.9,5.1c0.5,0.9-2,0.3-2.2,0.7S183.2,84.2,183.2,84.2z"/>
	<path class="st3" d="M131.8,116.8l-4-18l-1.1-5.6c0,0,0.1-1.4,0.7-1.9s6.2-2.4,6.2-2.4l1-0.3l-0.4-2.4l-3.6,1.6
		c0,0-5.6,1.6-5.8,2.3c-0.1,0.6-1.4,1.8-1.2,2.5c0.2,0.7,1.9,11,2.4,13.5s2.3,9.3,2.3,9.3s0.2,2.3,1.6,2.2
		C131.5,117.2,131.8,116.8,131.8,116.8z"/>
	<path class="st3" d="M140.9,113.6l6.6-2.7c0,0,7,3.9,8.1,4.3c1.1,0.4,23.6,5.8,23.6,5.8l41.1,9.7l31,7.3l-1.6,3.3l-32.1-7.8v10.3
		l-3.6-0.6v-11l-38.9-9.8v12.8l-3.6-0.4v-13L140.9,113.6z"/>
	<polygon class="st3" points="110.7,123.7 124.5,125.5 171.6,134.9 250.4,150.8 249.7,156.6 132,132.3 112.2,128.2 109.7,124.6 	"/>
	<path class="st3" d="M54.8,177.2l60.1,17.3v18.4l5.4,1.3v-18.1l63.3,17.4v14.2v1.3l6,1.4v-15.2l60.8,16.8l-0.7-6.6L81.9,180.9
		c0,0-15.1-4.4-16-7.6l-3.9,1.4L54.8,177.2z"/>
	<polygon class="st3" points="93.5,207.9 246.8,243.7 230.2,251.8 211.7,242.3 93.5,214.7 	"/>
	<polygon class="st0" points="32.8,158.2 53.8,152.5 52.4,149.8 32.8,154.7 	"/>
	<path class="st0" d="M126.7,93.2l8.8-1.9c0,0,3.8,15.4,11.9,19.7l-15.7,5.9L126.7,93.2z"/>
	<path class="st0" d="M65.8,173.3c-3.9-1.1-12.1-20.8-12.1-20.8l-21,5.7l-1.6,27.4c0,0,4.3-1.3,9.9-3c0,0,0,0,0.1-0.1
		c0.3-0.1,0.6-0.3,0.9-0.4c0-0.1,0.1-0.2,0.2-0.2c0.3-0.1,0.6-0.2,0.9-0.2c0.1-0.1,0.3-0.1,0.4-0.2c1.6-0.7,3.1-1.7,4.8-2.1
		c0.2,0,0.3,0,0.4,0.1c0.2-0.1,0.5-0.2,0.8-0.3c0.1,0,0.2,0,0.2,0c0.4-0.2,0.9-0.4,1.3-0.6c0.1,0,0.2,0,0.3,0
		c0.3-0.1,0.6-0.3,0.9-0.3c0.2,0,0.3,0,0.4,0.1c0.3-0.1,0.6-0.2,0.8-0.3c0,0,0.1-0.1,0.1-0.1c0.1-0.4,0.7-0.3,0.7,0
		c0.2-0.1,0.5,0,0.5,0.2C62,175.9,67.5,173.7,65.8,173.3z"/>
	<polygon class="st4" points="32.8,222.6 93.5,192.7 93.5,243.3 24.2,248.1 	"/>
	<polygon class="st4" points="127,137.2 135.8,133.2 153,136.7 153,143.9 	"/>
	<path class="st4" d="M152.9,129.7v-5l-9,4.2l0.8,0.1c0,0,0,0.1,0.1,0.1c2.3,0.5,4.6,1,6.9,1.5c0.1,0,0.3,0,0.4,0l0,0
		c0,0.1,0.7,0.2,0.8,0c0-0.3,0-0.6,0.1-0.9C153,129.8,153,129.7,152.9,129.7z"/>
	<polygon class="st5" points="31.6,192.1 49.9,184.9 63.3,183.5 92.6,192.7 31.6,223.8 	"/>
	<polygon class="st5" points="112.2,128.2 135.8,133.2 127,137.2 119.3,135.9 	"/>
	<polygon class="st5" points="121.6,124.6 131.9,121.2 144.6,121.9 152.9,124.8 143.9,128.9 	"/>
	<path class="st6" d="M75.4,166.5l6-10.6l25.3-20.1l15,0.9l131.1,30.8l1.5,41.9l-4.4,4.1L81.8,170.2
		C81.8,170.2,74.3,168.4,75.4,166.5z"/>
	<g>
		<g>
			<path class="st6" d="M89.2,153.6c2.3-0.9,4.6-1.8,7-2.7c0.6-0.2,1.1-0.6,1.5-1.1c0.3-0.5,0.4-1.3,0.3-1.9
				c-0.2-0.6-0.6-1.2-1.1-1.5c-0.6-0.3-1.3-0.5-1.9-0.3c-2.3,0.9-4.6,1.8-7,2.7c-0.6,0.2-1.1,0.6-1.5,1.1c-0.3,0.5-0.4,1.3-0.3,1.9
				c0.2,0.6,0.6,1.2,1.1,1.5C87.8,153.6,88.6,153.8,89.2,153.6L89.2,153.6z"/>
		</g>
	</g>
	<g>
		<g>
			<path class="st6" d="M92.6,151.5c3.7-2.1,7.2-4.5,10.6-7c0.5-0.4,1-0.8,1.1-1.5c0.2-0.6,0.1-1.4-0.3-1.9c-0.7-1-2.3-1.7-3.4-0.9
				c-3.4,2.6-6.9,4.9-10.6,7c-1.1,0.7-1.6,2.3-0.9,3.4C90,151.7,91.4,152.2,92.6,151.5L92.6,151.5z"/>
		</g>
	</g>
	<g>
		<g>
			<path class="st6" d="M102,137.6c-0.2,0.2-0.5,0.4-0.7,0.5c-0.2,0.2-0.2,0.2,0,0c-0.1,0.1-0.2,0.2-0.4,0.3
				c-0.5,0.4-0.9,0.7-1.4,1.1c-0.9,0.7-1.8,1.4-2.7,2.1c-1.9,1.4-3.7,2.8-5.6,4.2c-1.1,0.8-1.7,2.2-0.9,3.4c0.7,1,2.3,1.7,3.4,0.9
				c4-2.9,7.9-5.9,11.8-8.9c0.5-0.4,0.7-1.2,0.7-1.8c0-0.6-0.3-1.3-0.7-1.8C104.5,136.6,103.1,136.8,102,137.6L102,137.6z"/>
		</g>
	</g>
	<g>
		<g>
			<path class="st6" d="M104.2,136.7c-0.7,0.6-1.3,1.2-1.8,2c-0.7,0.9-1.3,1.7-1.8,2.7c-0.3,0.6-0.4,1.3-0.3,1.9
				c0.2,0.6,0.6,1.2,1.1,1.5c0.6,0.3,1.3,0.5,1.9,0.3c0.6-0.2,1.2-0.6,1.5-1.1c0.4-0.7,0.9-1.4,1.4-2.1c-0.1,0.2-0.3,0.3-0.4,0.5
				c0.6-0.7,1.2-1.4,1.9-2c0.5-0.4,0.7-1.2,0.7-1.8c0-0.6-0.3-1.3-0.7-1.8c-0.5-0.4-1.1-0.8-1.8-0.7
				C105.3,136,104.8,136.2,104.2,136.7L104.2,136.7z"/>
		</g>
	</g>
	<g>
		<g>
			<path class="st6" d="M90.9,152.4c1.6,0.4,3.3,0.8,4.9,1.2c0.6,0.2,1.4,0.1,1.9-0.3c0.5-0.3,1-0.9,1.1-1.5
				c0.1-0.6,0.1-1.4-0.3-1.9c-0.3-0.5-0.9-1-1.5-1.1c-1.6-0.4-3.3-0.8-4.9-1.2c-0.6-0.2-1.4-0.1-1.9,0.3c-0.5,0.3-1,0.9-1.1,1.5
				c-0.1,0.6-0.1,1.4,0.3,1.9C89.8,151.8,90.3,152.3,90.9,152.4L90.9,152.4z"/>
		</g>
	</g>
	<path class="st6" d="M161.2,110.9c0,0,10.6-27.6,28.3-28.5l60.2,13.3v30.5v6.6L161.2,110.9z"/>
	<path class="st3" d="M65,173.9c-0.1,0.1-0.2,0.2-0.3,0.3c-0.2,0.1-0.4,0.1-0.6,0.2c-0.1,0-0.2,0-0.2,0c-1.6,0.6-3.1,1.2-4.7,1.8
		c-1,0.3-1.9,0.6-2.9,0.8c-0.4,0.1-0.8,0.1-1.2,0.2c0,0-0.3,0.1-0.3,0.1c0,0.1,0,0.1,0,0.2c-0.1,0.1,0.2,0.2,0.3,0.2
		c0,0,0.1,0,0.1,0c0,0,0.1,0.1,0.2,0.1c0.2,0,0.4,0.1,0.5,0.1c0,0,0.1,0,0.2,0c0.7,0.2,1.5,0.3,2.2,0.4c0.3,0,1.2-0.1,0.5-0.3
		c-0.7-0.1-1.3-0.3-2-0.4c0.2,0,0.3-0.1,0.2-0.2c0.1,0,0.1,0,0.2,0c0.1,0,0.1,0,0.2,0c0.2,0,0.3,0,0.5-0.1c0.4-0.1,0.7-0.2,1.1-0.3
		c0.2-0.1,0.2-0.1,0-0.2c0.1,0,0.2-0.1,0.3-0.1c0,0,0,0,0,0c0.8-0.2,1.6-0.4,2.5-0.7c0.1,0,0.1-0.1,0.1-0.1c0.1,0,0.2-0.1,0.3-0.1
		c0.9-0.3,1.9-0.7,2.7-1.2c0.1,0,0.2-0.1,0.3-0.2c0.4-0.1,0.7-0.2,0.7-0.6C66.1,173.7,65.2,173.7,65,173.9z"/>
	<path class="st7" d="M144.9,123.8c-0.1-0.1-0.3-0.1-0.4-0.1c-0.1,0-0.2,0-0.3,0c0.1-0.1,0.1-0.2,0.1-0.3c0,0,0,0,0,0
		c0.2-0.2,0.5-0.5,0.5-0.7c0-0.1-0.2-0.1-0.4-0.1c0-0.1,0-0.2,0-0.4c0-0.1-0.2-0.1-0.3-0.1c-0.3-0.1-1-0.1-1.1,0.1c0,0,0,0.1,0,0.1
		c0,0,0,0-0.1,0c-0.2,0-0.3,0-0.5,0c0,0-0.1,0-0.2,0c-0.1-0.1-0.4-0.1-0.6-0.1c0,0,0-0.1,0-0.1c-0.1-0.2-0.9-0.3-1.1-0.1
		c0-0.1,0-0.1,0-0.2c0-0.2-1-0.3-1.2-0.1c0,0,0,0,0-0.1c-0.1-0.2-1.1-0.3-1.2,0c-0.2,0-0.5,0-0.7,0c-0.2-0.1-0.7-0.1-1,0
		c-0.2-0.1-0.5-0.1-0.7,0c-0.1,0-0.2-0.1-0.4-0.1c0-0.1,0-0.2,0-0.3c0-0.2-1.1-0.2-1.1,0c0,0,0,0,0,0c-0.2,0-0.5,0.1-0.5,0.2
		c0,0.1-0.1,0.3-0.1,0.4c-0.2,0-0.4,0-0.5,0c-0.1,0-0.3,0-0.3,0c-0.4,0.5-0.5,1.1-0.3,1.7c0,0.1,0.1,0.1,0.3,0.1c0,0.1,0,0.2,0,0.3
		c0,0.1,0.1,0.1,0.3,0.1c-0.1,0-0.1,0.1,0,0.1c0,0,0.1,0,0.1,0.1c0,0-0.1,0,0,0c1.7,0.9,4.2,1.2,6.2,0.7c0,0,0.1,0,0.1,0
		c0.1,0,0.3,0,0.5,0c0.4,0,0.8,0.1,1.1,0.1c0.2,0,1-0.2,0.4-0.3c-0.2,0-0.3,0-0.5-0.1c0,0,0,0,0,0c0.1,0,0.1,0,0.2,0
		c0.1,0,0.2,0,0.3,0c0.2,0.1,0.4,0.1,0.5,0.1c0.3,0,0.5,0,0.8-0.1c0.3,0,0.5-0.1,0.5-0.2c0,0,0,0,0,0c0.1,0,0.1,0,0.2,0
		c0.2,0,0.4,0,0.5-0.1c0.2,0.1,0.4,0.1,0.7,0.1C144.6,124.5,144.7,124.1,144.9,123.8z"/>
	<path class="st8" d="M144.7,120.8c0-0.1-0.1-0.1-0.3-0.2c0,0-0.1-0.1-0.3-0.1c-1.1-0.2-2.2-0.4-3.3-0.6c-0.1,0-0.6,0-0.9,0.1
		c-0.1,0-0.1,0-0.2,0c-0.2,0-0.6,0-0.9,0.1c-1.9-0.1-3.8,0-5.7,0.4c-0.4,0.1-0.4,0.2-0.2,0.2c0,0,0,0,0,0c-0.5,0.1,0.1,0.3,0.3,0.3
		c0.1,0,0.1,0,0.2,0c-0.3,0-0.5,0.1-0.3,0.2c0.7,0.2,1.3,0.4,2,0.7c0.1,0,0.3,0,0.5,0c0.6,0.2,1.2,0.4,1.8,0.4
		c0.6,0.4,1.1,0.4,1.8,0.2c0.1,0,0.2-0.1,0.2-0.2c0-0.1,0-0.1,0-0.2c1.5,0.1,2.9-0.1,4.3-0.8c0.1,0,0.1-0.1,0.1-0.1
		c0.1,0,0.1,0,0.2-0.1c0.2,0,0.4-0.1,0.5-0.2c0,0,0,0,0,0C144.6,121,144.7,120.9,144.7,120.8C144.7,120.8,144.7,120.8,144.7,120.8z"
		/>
	<path class="st8" d="M143.1,127.1c0.1-0.3,0.1-0.6,0-1c0,0,0,0,0,0c0-0.1,0-0.3,0-0.4c0-0.1-0.1-0.1-0.1-0.1c0,0,0-0.1-0.1-0.1
		c-0.1-0.3-1.3-0.3-1.3,0c0,0,0,0.1,0,0.1c-0.6-0.2-1.2-0.2-1.8-0.2c-1,0-2.1,0-3.1,0c-0.2,0-0.5,0-0.7,0c-0.2,0-0.5,0.1-0.5,0.2
		c-0.1,0-0.1,0-0.2,0c-0.1,0-0.3-0.1-0.5,0c-0.3-0.1-0.9,0-0.9,0.1c0,0,0,0.1,0,0.1c-0.1,0-0.3,0.1-0.2,0.1c0,0.4,0,0.7,0,1.1
		c0,0.1,0.1,0.1,0.3,0.1c0,0,0,0.1,0.1,0.1c0.2,0.1,0.3,0.1,0.5,0.2c0.1,0,0.2,0,0.3,0c0.1,0,0.1,0,0.2,0c0,0,0,0.1,0,0.1
		c0,0.2,1,0.2,1.1,0c0,0,0,0,0,0c0,0,0,0,0,0c0,0.1,0.3,0.2,0.6,0.2c0,0.1,0.4,0.2,0.7,0.2c0.3,0.2,0.6,0.3,1,0.3
		c0.8,0.1,1.6,0.1,2.5,0.2c0,0,0,0.1,0.1,0.1c0,0.1,0.1,0.1,0.3,0.1c0.1,0.1,0.2,0.1,0.4,0.2c0.2,0.2,1.3,0.2,1.3-0.1
		c0-0.1,0-0.1,0-0.2c0,0,0,0,0,0c0-0.1,0-0.2,0-0.3c0,0,0-0.1-0.1-0.1c0-0.1,0-0.3-0.1-0.4c0,0,0-0.1-0.1-0.1c0-0.1,0-0.3,0-0.4
		C143,127.1,143.1,127.1,143.1,127.1z"/>
	<path class="st8" d="M49.1,193.8c-0.1-0.1-0.1-0.2-0.2-0.2c0.1-0.1-0.2-0.2-0.3-0.2c-0.6-0.1-1.2-0.2-1.8-0.2
		c-1.8-0.4-3.7-0.2-5.5,0.5c-0.1,0.1-0.1,0.1,0,0.2c-0.2,0-0.6,0-0.5,0.1c0.1,0.2,0.1,0.3,0.2,0.4c0,0,0,0,0,0c0,0,0,0,0.1,0
		c0.2,0.2,0.4,0.3,0.8,0.3c1.2,0.5,2.5,0.6,3.8,0.4c0.6,0.3,1.5,0.5,1.7-0.1c0,0,0,0,0-0.1c0.4,0,0.8,0,1.1-0.3
		C49,194.6,49.4,194.4,49.1,193.8z"/>
	<path class="st8" d="M48.4,201.6c0-0.9,0-1.8,0-2.7c0,0,0,0,0,0c0-0.1,0-0.3,0-0.4c0-0.2-1.2-0.3-1.3,0c-0.2,0-0.3,0-0.5,0
		c-0.4,0-0.8,0.1-1.2,0.1c-0.8-0.1-1.5-0.1-2.3-0.1c-0.1,0-0.3,0-0.4,0c0,0-0.1-0.1-0.2-0.1c-0.2,0-0.4,0-0.5,0c0,0-0.1,0-0.1,0.1
		c-0.1,0.1,0,0.1,0,0.1c-0.2,0-0.4,0.1-0.4,0.1c0.1,0.1,0.1,0.2,0.2,0.2c-0.1,0.1-0.1,0.3-0.1,0.4c0,0.1,0.1,0.1,0.3,0.1
		c-0.6,0.8-0.2,3-0.1,3.7c-0.2,0-0.4,0.1-0.1,0.1c0.1,0,0.2,0,0.3,0.1c0,0,0,0,0,0.1c-0.1,0-0.1,0-0.2,0.1c-0.3,0.2,0.5,0.2,0.6,0.2
		c0.1,0,0.1,0,0.2,0c0.1,0,0.1,0.1,0.2,0.1c0.1,0.1,1.1,0,1-0.1c0.2,0,0.5,0.1,0.7,0.1c0.1,0,0.6,0,0.8-0.1c0,0,0.1,0,0.1,0
		c0,0,0.2,0,0.4,0c0.5,0.2,1,0.2,1.5,0.1c0.5-0.1,1.2-0.6,0.9-1c0,0,0,0,0,0c0-0.3,0-0.7,0-1c0,0,0.1-0.1,0.1-0.1
		C48.3,201.7,48.3,201.7,48.4,201.6C48.4,201.6,48.4,201.6,48.4,201.6z"/>
	<path class="st7" d="M49.2,195.3c0.1-0.3-1-0.1-1.1-0.1c-0.3,0.1-0.6,0.3-0.7,0.5c-0.3-0.1-0.9,0-1,0.1c-0.2-0.1-0.7-0.1-0.9,0
		c-0.3-0.2-1.2-0.1-1.2,0.1c-0.1-0.1-0.2-0.1-0.3-0.1c0,0,0,0,0,0c0.1-0.1-0.3-0.1-0.3-0.1c-0.3,0-0.6,0.1-0.9,0
		c-0.2-0.1-0.5-0.2-0.7-0.3c0,0,0,0,0-0.1c0-0.2-0.9-0.2-0.9,0c0,0.1,0,0.2,0,0.3c0,0,0,0,0,0c0,0.1,0,0.2,0,0.2
		c-0.1,0-0.1,0.1-0.2,0.1c0,0.5-0.1,1-0.1,1.5c0,0.1,0.3,0.2,0.6,0.1c0.1,0.5,0.9,0.5,1.6,0.5c0.3,0.1,0.5,0.1,0.8,0.1
		c0.2,0,0.7,0,1,0c0.2,0,0.5,0,0.7,0c0.2,0,0.4,0,0.6,0c0.2,0,0.3,0.1,0.5,0.1c0.1,0,0.5,0.1,0.7,0c0.3,0.1,0.5,0.1,0.8,0.1
		c0.4,0,0.8-0.1,0.9-0.5c0.1-0.3,0-0.5-0.1-0.7C49,196.4,49.1,195.8,49.2,195.3z"/>
	<path class="st9" d="M65.5,200.4c0.1-0.3,0.1-0.6-0.2-0.9c0.1-0.3,0.2-0.6,0.2-0.9c1.5-1,2.9-2.2,4.2-3.4c0,0-0.3-0.1-0.4,0
		c-0.1,0-0.1,0.1-0.2,0.1c0.1-0.1,0.3-0.3,0.5-0.4c0,0-0.1-0.1-0.2-0.1c0-0.1,0-0.2,0.1-0.2c0-0.1-0.5-0.1-0.5,0
		c-1.1,0.6-2.2,1.4-3.3,2.2c-0.8,0.6-1.7,1.2-2.6,1.8c-0.4,0.1-0.8,0-1,0.3c-0.1,0-0.1,0.2-0.1,0.2c-0.2,0.1-0.4,0.1-0.6,0.2
		c-0.2,0.1-0.2,0.1-0.1,0.2c-2.4,1.2-4.6,2.6-6.7,4.3c-0.2,0-0.4,0-0.5,0.1c-0.6,0.5-1.2,1.1-1.8,1.6c-0.6,0.2-1.1,0.6-1.6,1
		c-0.5,0.4-1.5,1.1-1.6,1.8c-0.2,0-0.3,0-0.3,0.1c0,0-0.1,0.1-0.1,0.1c0,0-0.1,0-0.1,0c-0.1,0.1-0.2,0.3-0.4,0.4c0,0,0,0,0.1,0.1
		c0,0,0,0,0.1,0c-0.1,0.1-0.2,0.2-0.4,0.3c0,0,0,0.1,0.1,0.1l-0.5,0.5c0,0,0,0,0.1,0.1c-0.4,0.2-0.8,0.5-1.2,0.7
		c-0.2,0.1,0.6,0.2,0.8,0.1c0.2-0.1,0.5-0.3,0.7-0.4c-0.2,0.1-0.4,0.3-0.5,0.4c0,0-0.1,0-0.1,0c-0.1,0-0.1,0.1-0.2,0.1
		c0,0-0.1,0.1-0.1,0.1c0,0.1,0,0.1,0,0.2c-0.1,0.1-0.2,0.3-0.3,0.4c0,0.1,0,0.1,0.1,0.2c0.3,0.2,0.7,0.2,1.1,0.2c0.1,0,0.2,0,0.3,0
		c0.2,0,0.3,0,0.4-0.1c0.9-0.2,1.8-0.5,2.6-0.9c0.5-0.2,1.2-0.6,1.8-0.9c0.1,0,0.3,0,0.4,0c0.3-0.2,0.6-0.4,0.9-0.6c0,0,0,0,0.1-0.1
		c0.3-0.2,0.7-0.3,1-0.6c0.4-0.3,1.2-0.7,1.4-1.2c1.3-0.9,2.6-1.8,3.9-2.9c1.1-0.5,2-1.3,2.8-2.2c0.2,0,0.5-0.1,0.7-0.1
		c0.4-0.2,0.6-0.5,0.6-0.9c0.1-0.1,0.2-0.2,0.3-0.4c0.1-0.1,0.2-0.2,0.3-0.4c0.1,0,0.1,0,0.1-0.1c0,0,0,0,0,0c0.1,0,0.1-0.1,0.2-0.1
		C65.7,200.5,65.6,200.4,65.5,200.4z"/>
	<path class="st3" d="M68.6,194.5c-0.1,0.1-0.2,0.3-0.3,0.4c-0.3,0-0.5,0.1-0.5,0.2c0,0,0,0.1,0,0.1c-0.2,0-0.5,0.1-0.5,0.2
		c0,0,0,0.1,0,0.1c-0.2,0-0.3,0-0.4,0.1c-0.3,0-0.6,0.1-0.6,0.2c0,0.1,0.1,0.3,0.1,0.4c-0.1,0-0.2,0-0.1,0.1c0,0.1,0.1,0.2,0.1,0.3
		c-0.2,0-0.3,0-0.4,0.1c0,0,0,0,0,0c0,0-0.1,0-0.1,0c-0.1,0.2-0.1,0.2,0,0.4c0.1,0.2,0.2,0.4,0.3,0.6c0.1,0.2,1,0.2,1,0
		c0,0,0-0.1,0-0.1c0.3,0,0.7-0.1,0.7-0.2c0-0.2-0.1-0.3-0.1-0.5c0.2,0,0.3-0.1,0.3-0.1c0.3,0,0.5-0.1,0.5-0.2c0-0.1,0-0.3,0-0.4
		c0.2,0,0.4-0.1,0.4-0.2c0-0.1,0-0.1,0-0.2c0.1,0,0.2-0.1,0.3-0.2c0.1-0.3,0.4-0.6,0.4-1C69.7,194.3,68.7,194.4,68.6,194.5z"/>
	<path class="st3" d="M50.8,211.1c-0.6-0.4-1.1-0.8-1.6-1.2c-0.3-0.3-0.5-0.6-0.8-0.9c-0.1-0.1-0.6-0.1-0.6,0c0,0.1,0,0.2,0.1,0.2
		c-0.3,0-0.6,0.1-0.5,0.2c0,0.1,0.1,0.2,0.1,0.3c-0.2,0-0.4,0.1-0.4,0.2c0,0.4,0,0.7,0.1,1c0,0-0.1,0.1-0.1,0.1
		c-0.4,1,2,0.8,2.4,0.8c0.1,0,0.6,0,0.6-0.2c0,0,0,0,0-0.1c0.2,0,0.3,0,0.5,0c0.1,0,0.4-0.1,0.2-0.2c0,0-0.1,0-0.1-0.1
		C50.7,211.3,51,211.3,50.8,211.1z"/>
	<path class="st10" d="M63,184.7c-0.1,0-0.1-0.1-0.2-0.1c0-0.1,0-0.1,0-0.2c0.1-0.4,0.2-0.8,0.2-1.2c0.1,0,0.1-0.1,0.1-0.1
		c0,0,0-0.1,0-0.1c0-0.1-0.1-0.1-0.2-0.1c0-0.1,0-0.2,0-0.2c0-0.1-0.5-0.1-0.6,0c-0.1,0.1-0.1,0.2-0.2,0.3c-0.4,0.1-0.9,0.3-1.3,0.4
		c0,0,0,0-0.1,0c-0.1,0-0.2,0-0.3,0.1c-0.2,0-0.4,0-0.6,0.1c0,0,0,0,0,0c-0.2,0-0.5,0-0.7,0.1c-0.3-0.1-1.1-0.1-1.2,0.1
		c-1,0.1-2,0.1-3,0.1c-0.1-0.2-0.7-0.2-1-0.1c-0.1,0-0.2,0-0.3,0c-0.5-0.1-1-0.1-1.5-0.2c-0.1-0.1-0.3-0.1-0.4-0.2
		c0,0-0.1,0-0.1-0.1c-0.1-0.2-0.2-0.4-0.3-0.6c0-0.1-0.5-0.1-0.5,0c0,0.1,0,0.3,0.1,0.4c-0.1,0-0.1,0-0.2-0.1c0,0,0,0,0-0.1
		c0-0.1-0.5-0.1-0.6,0c-0.3,0.8-0.7,2.7,0.3,3.1c0,0,0,0,0.1,0c0.2,0.3,0.6,0.5,1.1,0.6c0.2,0,0.4,0,0.6,0c0.1,0.2,0.9,0.2,1.1,0.1
		c1.2,0.1,2.4,0.1,3.5,0.1c0.1,0,0.2,0,0.3,0c1.2,0,2.4-0.1,3.5-0.2c0,0,0.1,0,0.1,0c0.2,0,0.3,0,0.5,0c0.1,0,0.3,0,0.6-0.1
		c0.1,0,0.1,0,0.2,0c0.2,0,0.6,0,0.6-0.1c0.1-0.2,0.1-0.4,0.1-0.6c0-0.2,0.1-0.2,0-0.4C62.9,185.1,63,185,63,184.7
		C63,184.8,63,184.7,63,184.7z"/>
	<path class="st11" d="M62.8,181.7C62.9,181.6,62.9,181.6,62.8,181.7c-0.5-0.5-1-0.8-1.6-1c-0.3-0.1-0.7-0.1-1,0
		c-0.4-0.2-0.9-0.3-1.3-0.3c-0.3,0-0.7,0-1,0c-1.3-0.6-2.9-0.6-4.2,0c0,0,0,0-0.1,0.1c0,0,0,0.1,0,0.1h0c0,0,0,0,0.1,0
		c-0.6,0-1.2,0-1.8,0.1c0,0-0.2,0.1-0.2,0.1c0,0,0,0,0,0.1c0,0,0,0,0,0c-0.2,0-0.4,0-0.5,0.1c0,0-0.1-0.1-0.1-0.1
		c-0.1-0.1-0.6-0.2-0.7,0c0,0.1-0.1,0.3-0.1,0.4c0,0,0,0,0,0.1c-0.1,0.4-0.1,0.3,0.1,0.7c0.1,0.1,0.4,0.1,0.6,0.1
		c0.1,0,0.2,0,0.3,0.1c0.4,0.4,1,0.5,1.5,0.7c1,0.2,2,0.3,3,0.2c0.2,0,0.4-0.1,0.4-0.1c0.6,0.1,1.2,0.1,1.8,0c0,0,0,0,0,0
		c0.3,0.1,0.7,0.1,1.1,0c0.2,0,0.4,0,0.6,0c0.6-0.1,1.7-0.2,2.1-0.7C62.3,182.2,62.6,182,62.8,181.7
		C62.9,181.7,62.9,181.7,62.8,181.7z M55.7,180.4c-0.3,0-0.5,0-0.7,0c-0.2,0-0.4,0-0.5,0c0.5-0.1,0.9-0.2,1.4-0.2
		c0.2,0,0.4,0.1,0.6,0.1C56.2,180.4,56,180.4,55.7,180.4z"/>
	<path class="st11" d="M61.8,189.3c0.1-0.7,0.1-1.4,0.3-2c0.1-0.2-0.6-0.2-0.7-0.2c-1,0-1.9,0.1-2.9,0.1c-0.2,0-0.4-0.1-0.4-0.1
		c-1,0-2,0-3,0.1c-0.4,0-0.8,0-1.2,0c-0.2,0-0.3,0-0.5-0.1c0,0,0,0,0,0c-0.1-0.1-0.5-0.2-0.8-0.1c-0.1,0-0.7,0-0.5,0.1
		c0,0,0,0,0.1,0c0,0,0,0,0,0c-0.1,0-0.2,0.1-0.2,0.1c-0.3,1.2-0.3,2.5-0.4,3.8c-0.1,1.2-0.3,2.6,0.1,3.8c0,0.1,0.1,0.1,0.2,0.1
		c0,0.1,0,0.2,0,0.4c-0.2,0-0.3,0-0.3,0.1c0.2,0.4,0.3,0.9,0.5,1.4c0,0,0,0,0.1,0.1c0.1,0.1,0.3,0.2,0.6,0.2c0.6,0.3,1.3,0.3,2,0.1
		c0.1,0,0.2,0,0.3,0c0.5,0,1,0.1,1.5,0c0.6,0,1.3,0,1.9,0c0.2,0.1,0.8,0.1,1.1,0c0.2,0,0.3,0,0.5,0c0.4,0.2,1.1,0.2,1.5,0
		c0.3,0,0.5-0.1,0.5-0.2c0,0,0-0.1,0-0.1c0,0,0,0,0-0.1c0-0.1,0-0.3-0.1-0.4c0-0.2,0-0.4,0-0.6c0-0.2,0-0.4,0-0.6c0-0.1,0-0.3,0-0.4
		c0-0.5,0-1.1,0-1.6c0,0,0,0,0-0.1c0,0,0,0,0-0.1c0,0,0-0.1-0.1-0.1c0-1.2,0.1-2.4,0.3-3.6C61.9,189.3,61.9,189.3,61.8,189.3z"/>
	<path class="st12" d="M52.6,205.6"/>
	<g>
		<path class="st0" d="M123.7,140.8c-0.2-0.4-0.3-0.7-0.6-1.1c-0.1-0.1-0.2-0.1-0.3-0.2c-0.2-0.3-0.4-0.6-0.7-0.8
			c-0.2-0.2-0.4-0.3-0.6-0.3c-0.5-0.5-1.1-1-1.7-1.4c0-0.2,0-0.4-0.1-0.5c-1.1-1.6-2.7-3-4-4.5c-1.4-1.6-2.7-3.3-4.1-4.9
			c-0.2-0.3-0.5-0.3-0.8-0.3c-0.1-0.2-0.3-0.4-0.5-0.6c-0.4-0.8-0.7-1.5-1.1-2.3c0,0,0-0.1,0-0.1c-0.2-2.1-1-4.3-1.8-6.3
			c-0.1-0.4-0.4-0.6-0.7-0.7c-1.9-6.3-4.2-12.6-6.6-18.7c-0.2-0.4-0.6-0.7-0.9-0.7c0,0,0,0,0-0.1c-0.3-0.4-0.6-0.7-0.9-1
			c0,0,0,0,0,0c0,0,0,0,0,0c-0.1,0-0.1-0.1-0.2-0.1c-0.3-0.2-0.7-0.3-1.1-0.4c-0.4-0.1-0.9,0.1-1.1,0.4c-1.2-0.3-2.3-0.4-2.9-0.4
			c-0.6,0-0.9,0.5-1,0.9c0,0,0,0,0,0c-0.4,0-0.8,0.2-1,0.6c-0.2,0.4-0.1,1,0.3,1.2c0,0,0,0,0,0.1c-0.1,0.1-0.3,0.3-0.3,0.5
			c-0.9,4-1.6,8.9-0.7,13c0.1,2.2,0.5,4.3,1.1,6.3c0,0.1,0,0.1,0.1,0.2c0,0.5,0,0.9,0.1,1.4c0,0.2,0.1,0.3,0.2,0.4
			c0,1.5,0.3,3,0.6,4.4c-0.7-1.3-1.6-2.6-2.4-3.9c-1.2-2.1-2.6-4.1-4-6c-0.3-0.4-0.6-0.8-0.9-1.2c-0.1-0.1-0.2-0.3-0.3-0.4
			c-0.1-0.1-0.1-0.1-0.2-0.2c-0.1-0.2-0.3-0.3-0.4-0.5c-1.1-1.3-2.3-2.6-3.6-3.6c-0.1-0.1-0.2-0.1-0.2-0.1c-0.6-0.6-1.2-1.2-1.8-1.8
			c-1.3-1.3-2.6-2.6-3.9-3.8c-0.2-0.7-0.4-1.4-0.6-2.1c-0.1-0.4-0.4-0.6-0.8-0.7c-0.1-0.6-1.2-1-1.8-0.5c-0.3,0.2-0.6,0.5-0.9,0.7
			c-0.4-0.2-0.9-0.2-1.2,0.2c-4.2,4.3-4.1,10.9-2.3,16.6c0,0.4,0.1,0.8,0.1,1.1c0.1,1.9,0.4,3.7,0.7,5.6c-0.3,4.6,0.4,9.6,1.9,14.1
			c-0.1,0.8,0,1.6,0.2,2.5c-0.2,2.5,0.8,5.6,2.5,7c0.5,1.1,1.2,2.1,1.9,3c0.2,0.3,0.6,0.4,0.9,0.4c1.5,1.2,3.2,2.3,5,3.2
			c0.6,0.5,1.2,0.9,1.9,1.3c0,0.3,0.1,0.5,0.3,0.8c0.6,0.8,1.7,1.3,2.5,1.9c1.1,0.7,2.1,1.6,3.3,2c0.8,0.3,1.4-0.5,1.3-1.2
			c0.6-0.1,1.1-0.4,1.5-0.9c0.8,0,1.5-0.7,1.1-1.6c-0.5-1.2-2-2.2-2.9-3.1c-0.7-0.6-1.3-1.2-2-1.7c-0.4-0.5-0.8-1-1.3-1.5
			c0.4,0,0.7-0.1,1-0.4c0.2-0.2,0.4-0.5,0.6-0.7c0.1,0,0.2-0.1,0.3-0.1c2-1.3,3.9-2.7,5.4-4.6c1.9-1.2,3.7-2.5,5.5-3.8
			c0.8-0.6,1.4-1.2,1.9-1.8l2.5-1.9c0,0,0,0,0.1-0.1c1.2-0.6,2.3-1.3,3.4-2c1.1,1.8,2.9,3.3,4.5,4.7c0.8,0.7,1.7,1.3,2.6,2
			c0.2,0.2,0.4,0.4,0.6,0.6c0.2,0.3,0.3,0.7,0.5,1c0.2,0.3,0.5,0.5,0.9,0.5c0.2,0.1,0.4,0.1,0.6,0c0.3-0.1,0.7-0.2,1-0.3
			c0.5,0.1,0.9-0.1,1.2-0.4c0.6-0.2,1.2-0.4,1.7-0.8c0.7,0.1,1.3,0,2-0.2c0.3,0.1,0.7,0.1,1-0.1
			C123.5,141.9,123.9,141.3,123.7,140.8z M83.3,147.6c-0.1-0.1-0.1-0.1-0.2-0.2c-0.9-1.2-2-2.4-2.9-3.6c-0.6-0.9-1.2-1.9-1.8-2.9
			c-0.4-2.2-0.8-4.3-1.1-6.5c-0.1-0.9-0.2-1.8-0.2-2.7c0.4,1.2,1,2.3,1.6,3.4c1.3,4,3.1,7.9,4.9,11.7
			C83.5,147.1,83.4,147.3,83.3,147.6z"/>
		<path class="st13" d="M133.7,154c0.2,0.1,0.5-0.1,0.5-0.4c0-0.1-0.1-0.2-0.1-0.3c0-0.1,0-0.1,0-0.2c-0.1-1.3-0.7-2.4-1.6-3.3
			c0,0,0,0,0,0c-0.8-1.1-1.7-2.1-2.8-3c-0.2-0.2-0.4-0.5-0.6-0.7c-1.1-1.3-2.2-2.5-3.5-3.5c0-0.2-0.1-0.5-0.3-0.6
			c0-0.3-0.3-0.5-0.5-0.5c-0.4-0.1-0.8,0-1,0.4c0,0-0.1,0-0.1,0.1c-1,0.4-2,0.8-3,1.3c-0.2,0.1-0.3,0.1-0.5,0.2
			c-0.7-0.1-1.3,0.2-2,0.4c-0.7,0.2-1.4,0.5-1.9,1c-0.2,0.2,0,0.5,0.2,0.5c-0.2,0.4-0.1,0.9,0.2,1.1c-0.1,0.5,0.1,1,0.3,1.4
			c0,0,0,0.1,0,0.1c0.1,0.5,0.3,0.9,0.5,1.4c0,0.2,0.2,0.2,0.4,0.2c-0.1,0.2-0.1,0.4-0.1,0.6c0,0.3,0.2,0.6,0.5,0.7
			c0.2,0.8,0.3,1.7,0.5,2.5c0.2,1,2.1,0.8,2-0.3c-0.1-1-0.2-1.9-0.3-2.9c0.1,0,0.2,0,0.3-0.1c0.3-0.3,0.4-0.7,0.5-1.1
			c0.1,0,0.2,0,0.3,0c1.1,1.3,2.2,2.7,3.5,3.7c1,1.2,2,2.5,3,3.7c0.2,0.3,0.5,0.4,0.8,0.4c0.1,0.1,0.1,0.3,0.2,0.4
			c0.1,0.3,0.7,0.2,0.6-0.2c0-0.2,0-0.3-0.1-0.5c0.1-0.1,0.2-0.1,0.2-0.2c0.1,0,0.1,0.1,0.2,0.1c0.6,0.3,1.2,0.6,1.9,0.7
			c0.1,0.3,0.3,0.5,0.6,0.3c0.3-0.2,0.4-0.5,0.4-0.9c0-0.1,0-0.1,0-0.2c0.2-0.2,0.3-0.3,0.3-0.5c0.2,0.3,0.4,0.6,0.6,0.8
			c0.2,0.2,0.4,0.2,0.6,0c0.1,0.2,0.4,0,0.4-0.2C134.4,155.6,134.1,154.8,133.7,154z"/>
		<path class="st13" d="M106.3,168.3c-0.6-0.7-1.2-1.4-1.9-1.9c-1-1.1-2.3-1.9-3.6-2.3c-1.2-1-2.5-1.9-3.7-2.8
			c-0.1-0.1-0.2-0.1-0.3-0.1c0,0-0.1-0.1-0.1-0.1c-0.1-0.2-0.2-0.4-0.3-0.6c0.2-0.2,0.3-0.4,0.2-0.7c-0.2-0.3-0.4-0.5-0.6-0.7
			c0.1,0,0.1,0,0.2,0c0.7,0,1.4,0,2.2,0c0.5,0,1.1,0,1.6-0.2c0.2,0,0.5,0,0.7-0.1c0.1-0.1,0.2-0.2,0.1-0.3c-0.4-0.5-1.1-0.6-1.7-0.6
			c-0.4,0-0.9,0-1.3,0c-0.1-0.2-0.3-0.3-0.5-0.3c-1,0-1.9,0-2.9,0c-0.1,0-0.3,0-0.4,0.1c-0.5-0.2-0.9-0.3-1.4-0.4
			c-0.6-0.1-1.1,0.7-0.6,1.1c-0.7,0.3-1.2,1-1.9,1.4c-0.1,0-0.2,0.1-0.2,0.1c-0.2,0.1-0.4,0.2-0.6,0.2c-0.9,0.1-0.9,1.3,0,1.3
			c0,0,0,0,0,0c2.4,4.8,7,8.1,12.4,8.9c0.1,0,0.3,0,0.4-0.1c0.5,0.1,0.9-0.4,0.8-0.8c0.6,0.2,1.2,0.4,1.8,0.7c0.2,0.1,0.3,0,0.5,0
			c0.1,0,0.2,0,0.2,0.1c0.6,0.2,1-0.5,0.8-0.9C106.4,168.9,106.6,168.6,106.3,168.3z"/>
		<path class="st13" d="M93.9,84.7c-0.7-0.9-1.6-2-2.9-1.9c-0.8,0-1.4,0.4-1.7,1c0,0,0,0,0-0.1c0.3-0.2,0.5-0.5,0.2-0.9
			c-0.4-0.5-0.8-1.1-1.2-1.6c0-0.1,0-0.1,0.1-0.1c0.4-0.2,0.4-0.9,0-1.1c-0.5-0.2-1-0.5-1.5-0.6c0-0.2-0.2-0.5-0.5-0.5
			c-0.4-0.1-0.8-0.1-1.2-0.2c-0.3-0.2-0.6-0.4-0.9-0.6c-0.9-0.6-1.7-1.4-2.2-2.4c0-0.1,0-0.2,0-0.2c0-0.1,0-0.2,0-0.3
			c0-0.1-0.1-0.2-0.2-0.2C81.6,75,81.2,75,81,75.3c-0.2,0.3-0.4,0.6-0.6,0.9c-0.4,0.2-0.8,0.5-1.2,0.8c-1.5,0.1-2.9,0.3-4.4,0.4
			c-0.1,0-0.2,0-0.3,0.1c-0.4-0.4-1.3-0.1-1.1,0.6c0,0.1,0,0.2,0.1,0.3c0,0.1,0,0.3-0.1,0.4c0,0-0.1,0.1-0.1,0.2
			c-1.1,1.8-2.9,2.9-4.1,4.5c-1.1,1.5-1.1,3.5-1.7,5.1c-0.3,0.5-0.6,1-0.9,1.5c0,0,0,0.1,0,0.1c-0.4,0-0.9-0.1-1.3-0.1
			c-0.3,0-0.6,0.2-0.7,0.5c-0.3,0.1-0.5,0.4-0.5,0.7c0.1,0.4,0.2,0.8,0.4,1.2c0,0,0,0,0,0.1c0.5,2.4,2,4.3,4.1,5.5
			c0.5,0.8,1.3,0.7,2.1,0.5c0.2,0.1,0.5,0.1,0.7,0c0.1,0.1,0.2,0.2,0.3,0.3c0.7,0.7,1.5,1.5,2.4,1.9c0,0,0,0,0,0
			c-0.3,0.1-0.5,0.3-0.3,0.7c0.8,1.4,1.7,2.7,2.8,3.9c0.7,0.7,1.5,1.6,2.5,2c1.1,1,2.2,2,3.3,3c0.1,0.1,0.2,0.2,0.3,0.3
			c0,0.1,0,0.3,0.1,0.4c0.2,0.1,0.3,0.3,0.5,0.4c0,0,0,0,0,0c0,0,0,0,0,0c1.2,1,2.1,2.4,3.1,3.6c0.7,0.8,1.4,1.6,2.1,2.5
			c0.8,1.5,1.5,3.2,2.4,4.7c0.1,0.1,0.3,0.1,0.3-0.1c0-0.3-0.1-0.7-0.1-1c0.2,0,0.5-0.1,0.4-0.4c-0.3-2.5-1-5-1.8-7.5
			c-0.1-1-0.2-2-0.3-3.1c0.3-0.4,0.3-1.1,0.3-1.6c0-1.6-0.1-3.1-0.1-4.6c0,0,0-0.1,0-0.1c0.2-1.4,0.5-2.9,0.6-4.3
			c0-0.1,0-0.2-0.1-0.3c0,0,0-0.1,0-0.1c0.1-0.1,0.2-0.2,0.1-0.3c0,0,0-0.1-0.1-0.1c-0.1-0.2-0.4-0.2-0.5,0c0,0,0,0.1-0.1,0.1
			c0.2-0.6,0.4-1.2,0.6-1.8c0.7-1.5,1.1-3,1.4-4.7c0.1-0.1,0.2-0.1,0.3-0.2c0.4-0.3,0.7-0.7,0.9-1.1c0.9-0.5,1.6-1.2,2-2.1
			C95.4,87.3,94.8,85.9,93.9,84.7z"/>
		<path class="st9" d="M85.5,86.1c-0.9-0.4-1.9-0.5-2.8-0.5c-0.3,0-0.5,0.2-0.6,0.4c0,0,0,0-0.1,0c-0.1,0-0.3,0.2-0.2,0.3
			c0.3,0.6,1.1,1,1.7,1.2c0.6,0.2,1.7,0.4,2.3,0C86.5,87,86.1,86.3,85.5,86.1z"/>
		<path class="st9" d="M75.7,87.7c-0.1-0.2-0.4-0.3-0.7-0.3c-1.4,0.3-3.4,1.3-3.8,2.8c0,0.1,0,0.2,0,0.3c-0.2,0.1-0.3,0.2-0.5,0.4
			c-0.1,0.2,0,0.4,0.2,0.4c0.4,0,0.9-0.1,1.3-0.3c1.5-0.3,2.8-1.3,3.7-2.6C76.2,88.1,76,87.8,75.7,87.7z"/>
		<path class="st14" d="M73.6,82.1c-0.2,0.1-0.3,0.1-0.4,0.2c-0.1,0-0.2,0-0.3,0c-0.5,0.3-1,0.9-1.3,1.4c0,0,0,0,0,0.1
			c-0.1,0.1-0.2,0.2-0.2,0.3c-0.3,0.4-0.6,0.9-0.8,1.4c-0.1,0.1-0.2,0.2-0.2,0.4c-0.1,0.3-0.3,0.6-0.4,0.9c-0.1,0.2,0.3,0.4,0.4,0.2
			c0.1-0.1,0.1-0.2,0.2-0.3c0.1,0,0.1,0,0.2-0.1c0.3-0.4,0.6-0.9,1-1.3c0,0,0,0,0,0c0.3-0.1,1.4-0.8,1.2-1.3c0,0,0.1,0,0.1-0.1
			c0.2-0.2,0.5-0.4,0.6-0.7c0-0.1,0.1-0.1,0.1-0.2c0.1-0.1,0.1-0.2,0.1-0.2C74.3,82.7,74.1,82,73.6,82.1z"/>
		<path class="st14" d="M94,79.4c0,0,0.9-6.2-3.4-6.2c0-0.3-0.1-0.7-0.3-0.9c0-1.8-0.4-5.6-5-4.4c-0.1,0-0.1,0-0.2,0.1c0,0,0,0,0,0
			c0,0,0,0,0,0s-4.7-8.1-10.9-1.5c0,0-4.4-5.5-7.6,2.2c0,0-8.9-1.5-5.9,9.2c0,0-5.6,0.4-5.4,2.3s-2.1,4.2,2,8c1.1,1,1.7,1.6,2,2
			c-0.1,0-0.1,0.1-0.2,0.1c-0.1-0.1-0.3-0.2-0.3-0.2l-0.2,1.6l0.5,2.1l1.1,0.7c0.2,0.2,0.5,0.3,0.7,0.5c0,0,0,0,0,0l0.8,0.5l2.8,0.4
			l1.1,0l-1.7-4.2l0.5-1.8l2-0.6l1.4-2.2c0,0,0.4-1.9,0.2-2.8c0.1-0.1,0.2-0.2,0.2-0.3c0.1,0,0.1-0.1,0.2-0.1
			c0.3-0.2,0.3-0.4,0.2-0.6c0.4-0.3,2.1-1.7,2.3-2c0.3-0.3,2.6-2.7,2.1-4.1c0,0,1.9,0,2.8,0c0.9,0,3.1-0.8,3.7-0.9
			c0.6-0.1,1.8-2.1,1.8-2.1s1.4,2.6,1.8,3s2.2,2.2,4.5,2.2c0,0,1.4,3.9,1.9,3.9c0.4,0,4.3-0.4,5.1,4.3c0,0,2-0.5,2.2-2
			C97.3,84.1,99.4,81.8,94,79.4z"/>
		<path class="st14" d="M86.3,81.8c-0.3-0.1-0.6-0.3-0.9-0.4c-0.2-0.3-0.5-0.5-0.8-0.6c-0.1-0.1-0.2-0.1-0.4-0.1c0,0-0.1,0-0.1-0.1
			c0-0.1-0.1-0.2-0.2-0.3c-0.4-0.2-0.7-0.4-1.1-0.6c-0.3-0.1-0.6,0-0.7,0.1c0,0-0.1,0-0.1,0c-0.3-0.1-0.6,0.1-0.7,0.3
			c-0.3-0.1-0.5,0.4-0.3,0.6c0,0.2,0.1,0.3,0.3,0.4c0.1,0,0.2,0.1,0.3,0.1c0,0.1,0.1,0.2,0.2,0.2c0.8,0.4,1.5,0.7,2.4,0.8
			c0.1,0,0.1,0,0.2,0.1c0.1,0,0.1,0,0.2,0c0,0,0.1,0.1,0.1,0.1c0.2,0.2,0.5,0.2,0.8,0.1c0.1,0.1,0.3,0.1,0.4,0.2
			C86.7,83.1,87.1,82.1,86.3,81.8z"/>
	</g>
	<line class="st15" x1="99.7" y1="25.4" x2="99" y2="96.6"/>
	<line class="st15" x1="102.9" y1="25.4" x2="102.9" y2="105.4"/>
	<path class="st16" d="M251.6,213.3c0,0-156.7-39-166.5-41.5c-0.4-0.1-0.7-0.2-1-0.3c-6.4-1.9-11.6-6.6-14.4-12.6l-26.8-57.1
		L39,114.4c-0.6,2.1-0.6,4.3,0,6.4c1,3.4,3,9.1,6.4,15.6c3.7,7.1,11.5,22.2,16.2,31.2c2.4,4.5,6.2,8.1,10.9,10.2
		c0.6,0.3,1.3,0.6,2,0.9c7.4,3.3,179.6,47.8,179.6,47.8"/>
	<polyline class="st16" points="32.8,222.6 93.5,192.7 93.5,242.3 	"/>
	<path class="st16" d="M63.3,183.5c7.9,2.6,19.2,5.6,30.2,9.2"/>
	<path class="st16" d="M31.2,192.2c6.5-2.4,12.1-4.8,18.7-7.3"/>
	<line class="st16" x1="31.2" y1="185.6" x2="65.8" y2="173.3"/>
	<line class="st16" x1="32.8" y1="158.2" x2="53.8" y2="152.5"/>
	<line class="st16" x1="32.8" y1="154.7" x2="52.4" y2="149.8"/>
	<line class="st16" x1="177.3" y1="75" x2="177.3" y2="25"/>
	<line class="st16" x1="179.5" y1="25" x2="179.5" y2="77.7"/>
	<path class="st16" d="M42.9,101.8c0,0-0.6-4,15.9-8.6"/>
	<path class="st16" d="M249.7,132.8c0,0-76.6-18.1-88.5-21.9c-4.3-1.4-7.6-3.9-9.9-6.5c-2.9-3.1-4.9-7-6-11.1l-8.3-29.7l12.1-4.5"/>
	<path class="st16" d="M257.5,139.5l-98.6-23.2c-2.7-0.6-5.3-1.7-7.7-3.1c-1-0.6-2-1.3-3.1-2.1c-0.1-0.1-0.3-0.2-0.4-0.3
		c-0.3-0.2-0.5-0.4-0.8-0.6c-5.7-4.7-9.7-11.2-11.4-18.4l-1.3-5.7l-0.1-0.3l-3.3-14.2c-0.3-1.2,0.1-2.5,1-3.3l5.1-4.7"/>
	<path class="st16" d="M134.4,86.4c0.2,0.6-10.5,1.9-10.5,6.1c0,5.5,4.9,23.8,4.9,23.8s0.3,2.2,5.4,0c5.2-2.2,13.6-5.6,13.6-5.6"/>
	<path class="st16" d="M134.7,88.5l-5.9,1.9c-1.5,0.5-2.4,2.1-1.9,3.6c0,0,0,0,0,0.1c0.1,0.2,0.1,0.4,0.1,0.6
		c0.1,0.4,0.1,0.7,0.2,1.1c1.3,6.1,4.6,21,4.6,21"/>
	<line class="st16" x1="135.5" y1="91.2" x2="126.8" y2="93.6"/>
	<line class="st16" x1="53.8" y1="177.6" x2="254.1" y2="233"/>
	<line class="st16" x1="93.5" y1="207.9" x2="252.7" y2="245.1"/>
	<line class="st16" x1="93.5" y1="214.7" x2="252.4" y2="251.8"/>
	<line class="st16" x1="114.9" y1="194.5" x2="114.9" y2="212.9"/>
	<line class="st16" x1="120.3" y1="196.1" x2="120.3" y2="214.2"/>
	<line class="st16" x1="183.6" y1="213.5" x2="183.6" y2="229"/>
	<line class="st16" x1="189.6" y1="215.1" x2="189.6" y2="230.4"/>
	<line class="st16" x1="140.3" y1="113.8" x2="254.1" y2="142.4"/>
	<path class="st16" d="M112.2,128.2c0,0,2.7,0.4,5.3,1.1c2.6,0.6,2.9,0.6,2.9,0.6h-0.3l130.3,26.8"/>
	<path class="st16" d="M110.1,123.9c0,0,2.8-0.6,6.7,0c3.6,0.6,133.7,26.8,133.7,26.8"/>
	<line class="st16" x1="119.3" y1="135.9" x2="252.7" y2="167.5"/>
	<path class="st16" d="M161.2,110.9c0,0,13.9-32.1,32.8-27.6c18.9,4.4,55.7,12.4,55.7,12.4"/>
	<path class="st16" d="M183.6,84.2v-8c0-1.7,1.4-3.1,3.1-3.1c1.5,0,3.8,0.1,7.3,0.7c10,1.5,55.7,9.5,55.7,9.5"/>
	<path class="st16" d="M188.3,82.5v-2.4c0-0.6,0.1-1.2,0.4-1.7c0.4-0.8,1.1-1.3,2-1.3l1.9,0.2c0.3,0,0.6,0.1,0.9,0.1l33,6.3l23.2,4"
		/>
	<polyline class="st16" points="226.5,90.3 226.5,83.7 231.1,84.6 231,91.6 	"/>
	<line class="st16" x1="171.6" y1="121.9" x2="171.6" y2="134.9"/>
	<line class="st16" x1="175.2" y1="122.5" x2="175.2" y2="135.3"/>
	<line class="st16" x1="214" y1="132.3" x2="214" y2="143.3"/>
	<line class="st16" x1="217.6" y1="133.5" x2="217.6" y2="143.8"/>
	<path class="st16" d="M148,62.8l-5,1.9c-1.2,0.5-1.9,1.7-1.6,3l3.8,16.4c0.3,1.2,1.5,1.8,2.6,1.3l9.5-4.3"/>
	<path class="st16" d="M64.2,95.9l-12.4,4.4c-1.8,0.6-2.7,2.6-1.9,4.4l11.1,26c0.7,1.7,2.7,2.6,4.5,2l2.3-0.8"/>
	<line class="st16" x1="126.3" y1="137.5" x2="136.5" y2="133.2"/>
	<polyline class="st16" points="143.5,129.1 152.9,124.8 153,131.2 	"/>
	<line class="st16" x1="153" y1="143.9" x2="153" y2="136.7"/>
	<line class="st16" x1="121" y1="124.8" x2="131.9" y2="121.2"/>
	<line class="st16" x1="144.6" y1="121.9" x2="152.7" y2="124.6"/>
	<path class="st16" d="M144.6,121c0,0.8-2.5,1.5-5.9,1.5s-6.2-0.7-6.2-1.5s2.8-1.5,6.2-1.5S144.6,120.2,144.6,121z"/>
	<ellipse class="st16" cx="56.5" cy="181.7" rx="6.5" ry="1.7"/>
	<ellipse class="st16" cx="45" cy="194.1" rx="4.4" ry="1.4"/>
	<path class="st16" d="M49.1,194.6c0,0,0.3,3.2-0.5,3.5c-0.7,0.3-4.3,0.1-6.4,0.1c-0.8,0-1.4-0.7-1.4-1.5v-1.9"/>
	<path class="st16" d="M49.9,182l0.2,2.7c0,1,0.8,1.8,1.8,1.9c3.4,0.3,10.6,0.5,10.9-0.4c0.4-1,0.2-4.2,0.2-4.2"/>
	<path class="st16" d="M61.9,196.4v1.1h-9.1c-0.7,0-1.3-0.6-1.3-1.3V187"/>
	<line class="st16" x1="61.9" y1="187" x2="61.9" y2="197.2"/>
	<path class="st16" d="M41.5,198.2v4.8c0,0.6,0.5,1.1,1.1,1.1h4.9c0.5,0,0.9-0.4,1-0.9l0-4.9"/>
	<path class="st16" d="M64.2,198.1c0,0,5-5,5.6-3.8c0.7,1.5-4.6,4.6-4.6,4.6l0.2,0.3c0.5,0.9,0.2,1.7-0.6,2.4
		c-3.8,3.3-14.7,12.2-17.5,10.2c-3-2.1,10.2-10.5,14.1-12.9c0.7-0.4,1.5-0.7,2.3-0.8L64.2,198.1z"/>
	<path class="st16" d="M75.4,166.5c0,0,3.6-8.4,6-10.6"/>
	<path class="st16" d="M86.6,150.8c0,0,18.7-15.6,20-14.9"/>
	<path class="st16" d="M132.4,121.6l0,2.2c0,0.8,0.7,1.4,1.4,1.4l0,0l3.8,0.3c0.4,0,0.8,0,1.2,0l4.4-0.2c0.7,0,1.3-0.6,1.3-1.3l0-2"
		/>
	<path class="st16" d="M134.4,127.5"/>
	<path class="st16" d="M134.4,124.9"/>
	<path class="st16" d="M134.4,127.5"/>
	<line class="st16" x1="133.7" y1="125.1" x2="133.7" y2="127.1"/>
	<line class="st16" x1="143.2" y1="125.4" x2="143.2" y2="129.1"/>
	<line class="st15" x1="49.6" y1="209.4" x2="63.8" y2="199.1"/>
	<line class="st16" x1="63.3" y1="198.4" x2="64.9" y2="200.1"/>
	<line class="st16" x1="48.7" y1="208.4" x2="50.8" y2="210.7"/>
	<line class="st16" x1="51.3" y1="206.7" x2="53.5" y2="208.8"/>
	<line class="st16" x1="54.6" y1="204.6" x2="56" y2="206"/>
	<line class="st16" x1="58" y1="202.4" x2="59.1" y2="203.6"/>
	<line class="st16" x1="60.9" y1="200.3" x2="62.1" y2="201.4"/>
	<path class="st16" d="M76.3,119.6c0,0,0.8,15.9,2.3,20.7c1.5,4.7,14,17.2,14,17.2l-4.3,3.2l-12.4-8.4c-1.9-1.4-5.4-5.4-5.7-7.8
		c-1.2-7.8-3.9-26-4.3-34c-0.5-10.3,7.1-10.2,7.1-10.2s0.4,1,1.1,2.2c0.7,1.2,1.7,2.6,2.9,3.4c2.4,1.7,9.7,9.2,12.4,13.6
		s3.2,6.7,3.2,6.7"/>
	<path class="st16" d="M98.5,116c0,0,3.9,14.4,6.7,17.9c2.8,3.5,10.7,10.8,10.7,10.8l8.7-3.7c0,0-14-13.1-15.3-17.6
		c-1.3-4.5-8.9-25.7-10.2-26.8c-1.3-1.1-8.3,0-8.3,0l6,9.8l-5,4.5l3.2,1.9l-2.3,13.4"/>
	<path class="st16" d="M90.7,97.7c0,0-1.3,8.9-1.3,11.5c0,2.6,3.2,17,3.2,17l7.8,13.6"/>
	<polyline class="st16" points="92.6,126.2 81.9,118.8 80.8,112.4 74.2,113.2 72.7,100.6 	"/>
	<path class="st16" d="M88.3,160.6c0,0,5.2,7.1,9,8.8c3.8,1.7,7.2,0.9,7.2,0.9s-6.7-2.4-7.2-3"/>
	<path class="st16" d="M92.6,157.4c0,0,6.5-0.2,8.4,0.9c1.9,1.1-3.8,0.6-4.7,1c-0.7,0.3,2.4,3.4,6.6,5.5c1.3,0.7,2.4,1.6,3.2,2.9
		c0.5,0.8,0.7,1.4-0.4,0.9c-2.4-1-8.5-4-8.5-4l7,3.3c0.9,0.4,1.6,1.2,1.8,2.2l-0.6-0.1l-1.7-0.1"/>
	<path class="st16" d="M115.8,144.7c0,0,2.2,7.2,3.1,8.8c0.9,1.7,1.5,0.7,1.8-0.6s-0.3-2.9,0.2-3.8c0.5-0.9,7.4,9.2,9,8.3
		c0.7-0.4-4.2-7.9-5.4-8.6"/>
	<path class="st16" d="M129.5,155.9l1.1,0.7c0.5,0.5,1.2,0.9,1.9,1.1l0,0c0,0,0.7,0.2,0.6-1.2c-0.1-1.3-6.4-9-6.4-9"/>
	<path class="st16" d="M128.2,147.2l6.2,7.7c0,0,1.4,2.7,0,2.4c-1.4-0.2-1.6-1.3-1.6-1.3"/>
	<path class="st16" d="M124.5,141l8.8,9.7c0.8,0.8,1.2,1.9,1.2,3.1v0.4"/>
	<path class="st16" d="M65.8,95.9c0,0-9.4,0.3-6.8-5.6c0,0-10.7-11.2,1.3-12.5c0,0-3.5-10,5.5-9.4c0.2,0,0.4,0,0.6,0.1
		c0,0,2.2-7.5,7.6-2.2c0,0,5.9-7.4,10.9,1.5c0,0,5.2-2.4,5.7,5.1c0,0,4.1,0.1,3.3,6.4c0,0,7.6,3.2,0.9,8.6"/>
	<path class="st16" d="M64.7,89.9c0,0,3.8,0.8,3.5-5.8c0,0,5.2-2.7,5.2-6.8c0,0,6.7,1.1,8.3-3c0,0,1.5,5.5,6.4,5.2
		c0,0,0.6,3.8,2.2,4"/>
	<path class="st16" d="M67.9,90.2c0,0-6-2.2-2.7,4.1c3.3,6.2,6.5,4.1,6.5,4.1s7.1,8.2,11.7,6.9c4.5-1.3,6.8-5.5,8-12.7
		c0,0,4.8-2.9,2.8-7.1s-4.8-2.2-4.7-0.8"/>
	<path class="st16" d="M69.3,88.4c0,0,3.3-9,4.9-5.4L69.3,88.4z"/>
	<path class="st16" d="M87.4,83c0,0-4-5-6.2-2.6C79.7,82,87.4,83,87.4,83z"/>
	<path class="st16" d="M75.8,83.6c0,0,3.6,4.2,3.4,9.1"/>
	<path class="st16" d="M78.5,93.7c0,0,1.5,1.6,3.6,0"/>
	<path class="st16" d="M82.5,91.7c0,0,1.6,0.4,1.2,1.5"/>
	<path class="st16" d="M81.8,86c0,0,2.5-2.1,4.7,0.7"/>
	<path class="st16" d="M70.9,91c0,0,0.8-4.3,4.9-3.4"/>
	<circle class="st17" cx="73.4" cy="89.1" r="1.2"/>
	<circle class="st17" cx="84.1" cy="86.4" r="1.1"/>
	<path class="st16" d="M79.2,99.3c0,0,2.8-2.6,6-1.6"/>
	<path class="st16" d="M66.1,92.1c0,0,3,1.3,4.1,3.4"/>
	<line class="st16" x1="67.1" y1="93.7" x2="69.2" y2="94.1"/>
	<path class="st16" d="M91.6,84.9c0,0-0.3,1.3-0.3,2.7c0,0.6,0.1,1.2,0.3,1.7"/>
	<line class="st16" x1="92.9" y1="86.5" x2="91.3" y2="87.7"/>
	<path class="st16" d="M82.1,100.9L82.1,100.9c0.6-0.4,1.2-0.6,1.9-0.6h0.3"/>
	<path class="st16" d="M105.4,169.7"/>
	<path class="st16" d="M77.1,131.2c0,0,5.7,17.5,9.5,19.6"/>
	<path class="st16" d="M170.5,61c1.1,0-6.4-14-15.5-7.6c0,0-14.1,7.5-1.6,20c0,0-0.7-6.8,0.2-7.7c0.9-0.9,3.3-4.3,3.4-6.5
		c0,0,5.5-1,9.9,3.8"/>
	<path class="st16" d="M167,63.1c0,0,2.5-4.8,3.8-1c0.4,1.3,0.2,2.7-0.2,3.9c-0.4,1-0.9,2.1-1.5,1.9c0,0,0.9,7-1.6,10.2
		c-1.5,2-2.1,3.6-6.9,1.2c-4.8-2.4-7.3-7-7.3-7"/>
	<path class="st16" d="M164.9,103.8c0,0-6.3-12.9-7.6-16.1c-0.7-1.5-1.8-6.7,3.3-8.2"/>
	<path class="st16" d="M182.8,84.7c0,0-2.6-6.1-5-9.1c-2.4-3-8.3-2.6-8.3-2.6s2.1,4,2.2,5.1c0.1,1.1-0.4,2.5-0.4,2.5"/>
	<polyline class="st16" points="166.5,79.7 171.1,80.7 176.7,88.9 	"/>
	<line class="st16" x1="164.9" y1="89.4" x2="168.9" y2="96.9"/>
	<polyline class="st16" points="162.2,80.2 162.2,84.7 168.5,84.2 169.5,87.6 175.8,88.5 	"/>
	<polyline class="st16" points="176.1,88 176.1,81.6 173.9,79.5 174.6,77.8 169.6,73.3 	"/>
	<path class="st16" d="M153.3,68.3c0,0,0.8-2.1,2.7-2.2"/>
	<path class="st16" d="M159.5,64.2c0,0,2.1-3.1,5.7-1.4"/>
	<path class="st16" d="M157.9,68c0,0,0.5,0.2,0.9,2.5c0.5,2.4,0.5,4,0.5,4s1.7,0,2.1-0.9"/>
	<path class="st16" d="M162,72c0,0,1.1,0.6,0.7,1.1"/>
	<path class="st16" d="M161.1,76.5c0,0,3.2,0.3,3.9-1.5"/>
	<path class="st16" d="M161,68.3c0,0,0.5-0.4,1.4-0.3c1.2,0.1,2.5-1.3,2.5-1.3"/>
	<path class="st16" d="M154.2,71.4c0,0,1.8,0.4,2.5-0.3s1.2-0.8,1.2-0.8"/>
	<path class="st16" d="M168.9,65.2c0,0,0.1-0.6,0.2-1.3c0.1-0.5,0.2-1,0.4-1.2"/>
	<line class="st16" x1="170.2" y1="63.6" x2="169.1" y2="63.9"/>
	<path class="st16" d="M162.6,77.7c0,0,1.9,0.5,2.5-0.5"/>
	<rect x="248.2" y="18.8" class="st9" width="16.5" height="249.1"/>
	<rect x="21.2" y="19.3" class="st9" width="12" height="236.1"/>
	<rect x="29.2" y="243.8" class="st9" width="222.5" height="11.5"/>
</g>
</svg>
