<?xml version="1.0" encoding="utf-8"?>
<!-- Generator: Adobe Illustrator 22.1.0, SVG Export Plug-In . SVG Version: 6.00 Build 0)  -->
<svg version="1.1" id="Слой_3" xmlns="http://www.w3.org/2000/svg" xmlns:xlink="http://www.w3.org/1999/xlink" x="0px" y="0px"
	 viewBox="0 0 512 512" style="enable-background:new 0 0 512 512;" xml:space="preserve">
<style type="text/css">
	.st0{fill:#FDCD95;stroke:#000000;stroke-width:3;stroke-linecap:round;stroke-linejoin:round;stroke-miterlimit:10;}
	.st1{fill:#857154;}
	.st2{fill:#FDCD95;}
	.st3{fill:none;stroke:#1D1D1B;stroke-width:3;stroke-linecap:round;stroke-linejoin:round;stroke-miterlimit:10;}
	.st4{fill:none;stroke:#000000;stroke-width:3;stroke-linecap:round;stroke-linejoin:round;stroke-miterlimit:10;}
	.st5{fill:#B5D758;stroke:#000000;stroke-width:3;stroke-linecap:round;stroke-linejoin:round;stroke-miterlimit:10;}
	.st6{fill:none;stroke:#000000;stroke-width:3;stroke-miterlimit:10;}
	.st7{fill:#FFFFFF;}
	.st8{fill:#EDEDED;stroke:#000000;stroke-linecap:round;stroke-linejoin:round;stroke-miterlimit:10;}
	.st9{fill:#B2B2B2;stroke:#000000;stroke-linecap:round;stroke-linejoin:round;stroke-miterlimit:10;}
	.st10{fill:#FFFFFF;stroke:#000000;stroke-width:0.8378;stroke-linecap:round;stroke-linejoin:round;stroke-miterlimit:10;}
	.st11{fill:#B2B2B2;stroke:#000000;stroke-width:0.8378;stroke-linecap:round;stroke-linejoin:round;stroke-miterlimit:10;}
	.st12{fill:none;stroke:#000000;stroke-width:2;stroke-linecap:round;stroke-linejoin:round;stroke-miterlimit:10;}
</style>
<g>
	<g>
		<path class="st0" d="M403.2,457.8c0,0,6.9,5.2,9.1-0.9c1.5-4.2-3.7-9.6-8.2-13.2c-3.3-2.6-6.3-5.7-8.9-9.1
			c-5.1-6.8-15.4-15.8-15.4-15.8c1.5-45.2-23.8-102.9-23.8-102.9l-21.4,4.6l-7.9,2.7c0,0,22.2,64.8,25,72.4c2.5,6.8,11.3,36,4,43.7
			c-7.7,8-22.9,27.1-6.7,22.7c16.2-4.4,16.2-8.4,24.7,8.4c8.5,16.8,18.3,9.5,16.8,1.9"/>
		<path class="st0" d="M393.9,444.5c0,0,26.3,32.7,4,22.9"/>
		<path class="st0" d="M387.5,449.4c0,0,23,32.6,5,25.3c-4-1.6-10.7-10.5-13.3-13.9"/>
	</g>
	<path d="M223.3,199.5l-12.8-0.1c0,0,1.2,11.4,0,12.8c-1.2,1.4,2.5,17.6,3.5,17.9c1.1,0.3,19.4,2.7,19.7,0.6
		c0.3-2.1,1.8-13.4,1.5-16.5c-0.3-3.1-0.3-8.2-3.7-10.5C228.1,201.4,223.3,199.5,223.3,199.5"/>
	<path d="M269.1,203.4l18.3-7.8l12.5,13.1c0,0,1.2,21.7-4.6,21.4c-5.8-0.3-27.5,4.3-27.8,2.4S269.1,203.4,269.1,203.4z"/>
	<path class="st1" d="M275.2,195.7v4.9l13.3,3.2l16.2-2.2l12.5-7l11.9-14.3c0,0,9.7-15,9.6-29.8c-0.1-14.9-1-24.9-1-24.9
		s-3.7-23.5-7.8-28.6c-4.1-5.1-7.4-19.1-12.1-21.8c-4.7-2.7-8.9-15-17.5-18.2l-13.3-8l-10.9-3.5l-14.1-1l-2.8,1.8l-8.5-3l-7.3-0.9
		l-11,2.1l-4.2,2.1l-6.9-0.1l-15.7,4.6l-9.8,6.4L182.7,71l-10.1,18.6c0,0-4.3,11.6-5,14.3c-0.7,2.7-4.6,28.7-4.2,34.3
		c0.3,5.6,3.9,26.3,6,31.3c2.1,4.9,8.7,16.3,9.9,17.8c1.2,1.5,10.5,11.8,18.7,13.2c8.1,1.4,11.5,2.6,16,2.7c4.6,0.2,8.3-1.8,8.3-1.8
		l7.6-15.4l24.9-0.8c0,0,11.2,3.2,12.2,3.5c1,0.2,8.2,3.2,8.2,3.2V195.7z"/>
	<path class="st2" d="M276.9,228.7l-11.5,4.5l-14.7,2.1c0,0-16.7-0.6-21.4-3.3c-4.7-2.7-7-4.2-7-4.2l1.1-31.6
		c0,0-19.2-10.1-25.4-21.3c-6.3-11.2-9.7-20.8-9.7-20.8l-2.1-21.4l5.8-6.3l4.7-8.5l4.2,2.9l4.6,0.5l6.9-8.5l5.5-12.2l2.1,4.9
		l4.6,2.9l3.6-3.1l6-12.4l0.2,6.6l3,2.9l5.1-0.4l5-5l4.3,2.8l3.9,3.1l4.8,0.6l4.7-4l4.3-6.5l2.1,6.2l4.5,8.7l2.5,3.6h2.7l5-3.9
		l2.7,8.5l3.2,4.1l5.8-0.8l2,7.2l2.5,4.1l5.1-0.5l2.5-3.2l0.5,14.9l-5.6,22.5l-10,15.6l-15.6,13.7l-6,2.8L276.9,228.7z"/>
	<path class="st0" d="M310.3,126.8c0.8-0.3,1.7-0.4,2.5-0.3c5,0.6,8.3,7.8,7.4,16.2c-1,8.4-5.8,14.7-10.9,14.1
		c-0.4,0-0.8-0.1-1.2-0.3"/>
	<path class="st3" d="M186.1,131.4c0,0.3,0,0.8,0,1.2"/>
	<path class="st4" d="M190.3,160.4c3.2,8.6,8.2,16.3,14.4,22.6c5.1,5.2,11,9.5,17.6,12.7c8,3.8,16.9,6,26.3,6s18.3-2.1,26.3-6
		c6.8-3.3,12.9-7.8,18.1-13.2c6.9-7.2,12.1-16.1,15.2-25.9c1.9-6.2,2.9-12.8,2.9-19.7c0-3.4-0.3-6.8-0.8-10.1"/>
	<path class="st4" d="M222.3,195.7L222.3,195.7v5.8v1.9v24.5c24.5,18.3,54.6,0.9,54.6,0.9"/>
	<polyline class="st4" points="276.9,228.7 275.2,200.5 274.9,195.7 274.9,195.7 	"/>
	<path class="st0" d="M190.3,160.4c-0.7,0.6-1.6,1-2.5,1.2c-5,1.1-10.4-4.7-12.2-13c-1.8-8.2,0.8-15.8,5.8-16.8
		c1.5-0.3,3.1,0,4.6,0.8c0,1.4,0,3.2,0,4.2C186.1,145.1,187.6,153.1,190.3,160.4z"/>
	<path class="st5" d="M218.8,207.5c-1.6-1.8-3.7-3-6.1-3.2c-12.6-1.5-52.2-2.6-63.7,38.2c-13.7,48.7-14.5,65.8-14.5,65.8l41,5.1
		L152.5,457c0,0,96.6,47,189.7,0l-19.7-119.7c0,0,28.2,4.3,38.5-14.5c7.6-14-8.3-70.3-27.6-100.3c-7.5-11.6-20.4-18.7-34.2-18.8
		l-11.4-0.1c-2.8,0-5.4,1.2-7.2,3.3C272.7,216.4,247.6,240.4,218.8,207.5z"/>
	<g>
		<path class="st6" d="M219.8,325.4h-20.7c-3.7,0-6.8-3-6.8-6.8v-24.1c0-3.7,3-6.8,6.8-6.8h20.7c3.7,0,6.8,3,6.8,6.8v24.1
			C226.5,322.3,223.5,325.4,219.8,325.4z"/>
		<path class="st6" d="M193.4,290.4l12.2,12.3c2,2.1,5.4,2,7.3-0.2l11.5-13.1"/>
	</g>
	<path class="st3" d="M186.2,132.7c-0.1,0-0.1-0.1-0.2-0.1"/>
	<path class="st4" d="M222.3,201.5c-5.8,1.9-11.8,2.5-17.7,1.5c-28.9-4.6-46.6-43.4-39.7-86.6c6.8-42.4,35-73.3,63.3-70"/>
	<line class="st4" x1="314.3" y1="286" x2="322.9" y2="339"/>
	<line class="st4" x1="175.6" y1="313.4" x2="179.3" y2="284.3"/>
	<path class="st4" d="M257.7,45.8c29.5-7.6,63.3,19.6,76.1,61.8c13.1,43-0.6,85.2-30.5,94.3c-9.2,2.8-17.4,1.9-26.8-1.7"/>
	<path class="st3" d="M228.2,46.4c4.3-2.6,9.6-4.1,15.2-4.1c5.2,0,10.1,1.3,14.2,3.5"/>
	<path class="st4" d="M178.5,94.1c0,0-1.3,61,15.3,27.1c0,0,1.8-3.3,4-7.3c2.9-5.3,6.6-11.8,7.7-13.3"/>
	<path class="st4" d="M310.3,126.8c0,0-7.8,14.3-12.1-7.5c0,0-8.2,7.2-11.1-10.8"/>
	<path class="st4" d="M290.4,94.1c0,0-4.2,29.7-15.5,11.7c0,0-5.7-10.4-5.7-16.3c0,0-5.6,27.1-20.6,6.2c0,0-15.6,17.9-14.3-4.6
		c0,0-8.8,31.5-16.3,9.4c0,0-11.5,33.5-21.2,15.3"/>
	<path class="st4" d="M302.7,68.7c0,0,14.7,22.5,16.3,42.7"/>
	<path class="st4" d="M272.8,172.1c0,0-20.8,17.1-48.2,0"/>
	<path class="st4" d="M241.1,152.3c0,0,7.1-5.5,14.2,0"/>
	<path class="st4" d="M289.5,121.3c0,0-10.6-12.3-29.2-7.7"/>
	<path class="st4" d="M205.6,122.5c0,0,10.8-12.1,29.3-7.3"/>
	<path class="st0" d="M136.9,308.9c0,0-16.3,53.6,35.7,47.5c52-6,67.2-10.5,67.2-10.5s32.4,2.6,35.3-0.5c2.9-3.1-0.9-6.2-6.6-9.4
		c0,0,11,0.9,9.9-3.7c-1.2-4.6-8.5-5.8-8.5-5.8s18.2-5.2,2.4-9c0,0-11-3.6,6.5-5.9c17.6-2.2,25.1-5.2,20.7-8
		c-4.4-2.9-44.3,2.8-44.3,2.8s3.6-11.4,3.2-15c-0.5-3.7-2.8-13.3-7.2-4.5c-4.4,8.8-15.6,33.2-22.2,34.4c-6.6,1.2-59,3-59,3l2.8-10.9
		l-6.2-1.1L136.9,308.9z"/>
	<ellipse cx="226.2" cy="134.3" rx="6.9" ry="11.1"/>
	<circle class="st7" cx="226.2" cy="134.3" r="3.3"/>
	<path class="st4" d="M236.5,128.6c0,0-7.8-13.5-24.6,1.3"/>
	<ellipse cx="271.8" cy="134.3" rx="6.9" ry="11.1"/>
	<circle class="st7" cx="271.8" cy="134.3" r="3.3"/>
	<path class="st4" d="M261.5,128.6c0,0,7.8-13.5,24.6,1.3"/>
	<g>
		<g>
			<path class="st8" d="M317.8,310.8l-50.6-56.3c-1.3-1.6-1.6-3.7-1.2-5.5c0.3-1.3,1.1-2.6,2.3-3.5c1.2-0.9,2.6-1.4,3.9-1.4
				c1.9,0,3.8,0.8,5,2.5l38.6,52v0L317.8,310.8z"/>
		</g>
		<path class="st9" d="M318.6,316l-53.1-58.5c-2-2.5-1.6-6.1,0.6-8.6c-0.5,1.8-0.1,3.9,1.2,5.5l50.6,56.3L318.6,316z"/>
		
			<ellipse transform="matrix(0.786 -0.6183 0.6183 0.786 -101.3851 230.1011)" class="st10" cx="281.6" cy="261.5" rx="3.7" ry="5.5"/>
		<ellipse transform="matrix(0.786 -0.6183 0.6183 0.786 -101.3851 230.1011)" cx="281.6" cy="261.5" rx="2.4" ry="3.6"/>
		<path class="st11" d="M297.7,280.9L297.7,280.9c-1.1,0.9-2.8,0.8-3.8-0.3l-8.3-10c-0.9-1.1-0.8-2.8,0.3-3.8l0,0
			c1.1-0.9,2.8-0.8,3.8,0.3l8.3,10C299,278.2,298.8,279.9,297.7,280.9z"/>
	</g>
	<path class="st4" d="M170,324.3c0,0-7.3,0.3-12.2,2.3"/>
	<path class="st12" d="M271.8,166.9c0,0-0.2,4.4,5.8,8.2"/>
	<path class="st12" d="M225.2,166.4c0,0,0.2,4.4-5.8,8.2"/>
</g>
</svg>
