<?xml version="1.0" encoding="utf-8"?>
<!-- Generator: Adobe Illustrator 22.1.0, SVG Export Plug-In . SVG Version: 6.00 Build 0)  -->
<svg version="1.1" id="Слой_4" xmlns="http://www.w3.org/2000/svg" xmlns:xlink="http://www.w3.org/1999/xlink" x="0px" y="0px"
	 viewBox="0 0 512 512" style="enable-background:new 0 0 512 512;" xml:space="preserve">
<style type="text/css">
	.st0{fill:#FFD46D;stroke:#000000;stroke-width:2;stroke-linecap:round;stroke-linejoin:round;stroke-miterlimit:10;}
	.st1{fill:#FCD3AC;stroke:#000000;stroke-width:2;stroke-linecap:round;stroke-linejoin:round;stroke-miterlimit:10;}
	.st2{fill:#C5DFED;stroke:#000000;stroke-width:2;stroke-linecap:round;stroke-linejoin:round;stroke-miterlimit:10;}
	.st3{fill:#472B25;stroke:#000000;stroke-width:2;stroke-linecap:round;stroke-linejoin:round;stroke-miterlimit:10;}
	.st4{fill:#FCD3AC;stroke:#000000;stroke-miterlimit:10;}
	.st5{fill:#FCD3AC;stroke:#000000;stroke-width:2;stroke-miterlimit:10;}
	.st6{fill:none;stroke:#000000;stroke-width:2;stroke-linecap:round;stroke-linejoin:round;stroke-miterlimit:10;}
	.st7{fill:#FFFFFF;}
	.st8{fill:none;stroke:#000000;stroke-linecap:round;stroke-linejoin:round;stroke-miterlimit:10;}
	.st9{fill:#DADADA;stroke:#000000;stroke-linecap:round;stroke-linejoin:round;stroke-miterlimit:10;}
	.st10{fill:#9D9D9C;stroke:#000000;stroke-linecap:round;stroke-linejoin:round;stroke-miterlimit:10;}
	.st11{fill:#BB616E;stroke:#000000;stroke-linecap:round;stroke-linejoin:round;stroke-miterlimit:10;}
	.st12{fill:#E593A3;stroke:#000000;stroke-linecap:round;stroke-linejoin:round;stroke-miterlimit:10;}
	.st13{fill:#FFD46D;stroke:#000000;stroke-linecap:round;stroke-linejoin:round;stroke-miterlimit:10;}
	.st14{fill:#BB616E;stroke:#000000;stroke-width:0.5;stroke-linecap:round;stroke-linejoin:round;stroke-miterlimit:10;}
	.st15{fill:#FCD588;stroke:#000000;stroke-linecap:round;stroke-linejoin:round;stroke-miterlimit:10;}
	.st16{fill:#FCD3AC;stroke:#000000;stroke-linecap:round;stroke-linejoin:round;stroke-miterlimit:10;}
</style>
<path class="st0" d="M278.2,469.7c0,0-10.3,10-3.3,13.3s25,2.5,25.6-3.9s-10-11.5-10-11.5L278.2,469.7z"/>
<path class="st1" d="M278.3,457l-2.5,14.8c0,0,9.8,7.9,19.5-1.5l-4.4-14.3L278.3,457z"/>
<path class="st0" d="M229.9,470.6c0,0,10.3,10,3.3,13.3s-25,2.5-25.6-3.9s10-11.5,10-11.5L229.9,470.6z"/>
<path class="st1" d="M229.8,457.8l2.5,14.8c0,0-9.8,7.9-19.5-1.5l4.4-14.3L229.8,457.8z"/>
<path class="st2" d="M215.8,246.8l-2.5,212.7c0,0,12,8,19.5,0l20-185l22,184.5c0,0,16,7,20.5-3l-5.5-212.5L215.8,246.8z"/>
<path class="st2" d="M251.4,106.7c0,0-36.1,6.9-42.6,15.3c-6.6,8.4-28.5,66.5-28.5,66.5s5.5,11.6,22.9,9l11.8-31.3l-2.1,85
	c0,0,37.9,18.4,81.1,0l-2-92c0,0,13.3,20.1,16.3,32.9c0,0,15,3.8,23.5-7.8c0,0-25.6-62.8-38.2-66.4l-41.3-11.3"/>
<path class="st3" d="M241.3,82.6c0,0-4.9,12.8-7.2,16.8c-2.4,4-3.3,12.5-1.3,14.9s13.8-6.8,13.8-6.8l4.2-15.9l-5.5-7.1L241.3,82.6z"
	/>
<path class="st3" d="M235.9,65.8c0,0-12,4.8-9.9-15.8c1.2-11.9,9.9-20.1,20.4-22.8c13.3-3.5,26.9,3.9,32.1,16.6
	c3.2,7.8,4.4,17.6-4.5,24.4l-6.3-6.9l-10.4,1l-9.9-1L235.9,65.8z"/>
<ellipse class="st4" cx="234.1" cy="71.9" rx="2.6" ry="4.9"/>
<ellipse class="st4" cx="275.6" cy="70.7" rx="2.6" ry="4.9"/>
<path class="st1" d="M245.4,88.2c0,0,1.6,16.5-1.5,19.3l9.6,28.3l10.9-25.7c0,0-3.8-9.4-2.4-19.9C261.8,90.1,245.6,89.7,245.4,88.2z
	"/>
<path class="st5" d="M275.6,66.1c0,14.4-8.9,29-19.9,29c-11,0-21.6-15.6-21.6-30c0-0.4,0-0.7,0-1.1c2.5-1.6,6-4.1,10.7-8.4
	c4.9-4.4,9.6-7.3,13.4-9.3c6.8,1.6,13.3,8.7,16.6,12.8C275.3,61.3,275.6,63.6,275.6,66.1z"/>
<path class="st6" d="M228.8,66.4c0,0,1.4,0.1,5.3-2.3"/>
<path class="st6" d="M241.7,60.6c0,0,5.5-5.1,8.9-1.3"/>
<path class="st6" d="M269,60c0,0-5.5-5.1-8.9-1.3"/>
<ellipse cx="247.6" cy="67.1" rx="2.2" ry="4.1"/>
<path class="st6" d="M224.5,255.4c0,0-0.7,11.6-8.9,17.1"/>
<path class="st6" d="M279.2,256.2c0,0,4.8,13,11.3,16.3"/>
<circle class="st7" cx="247.6" cy="66.4" r="1"/>
<g>
	<path d="M249.4,64c-0.3-0.3-0.7-0.3-1-0.3c-0.3,0-0.6,0.1-0.9,0.2c-0.6,0.2-1.2,0.4-1.9,0.7c-0.7,0.3-1.6,0.5-2.4,0.4
		c-0.4,0-0.9-0.1-1.3-0.2c-0.4-0.2-0.8-0.4-1-0.8c0.4,0,0.8-0.1,1.1-0.2c0.3-0.1,0.7-0.2,1-0.4l1.9-0.8c0.7-0.3,1.6-0.5,2.5-0.4
		c0.5,0.1,0.9,0.2,1.3,0.5C249.1,63.1,249.4,63.6,249.4,64z"/>
</g>
<ellipse cx="264" cy="67.3" rx="2.2" ry="4.1"/>
<circle class="st7" cx="264" cy="66.6" r="1"/>
<g>
	<path d="M262.3,64.3c-0.1-0.5,0.2-0.9,0.6-1.2c0.4-0.3,0.9-0.4,1.3-0.5c0.9-0.1,1.8,0.1,2.5,0.4l1.9,0.8c0.3,0.1,0.6,0.3,1,0.4
		c0.3,0.1,0.7,0.2,1.1,0.2c-0.2,0.4-0.6,0.6-1,0.8c-0.4,0.1-0.9,0.2-1.3,0.2c-0.9,0-1.7-0.2-2.4-0.4c-0.7-0.3-1.3-0.5-1.9-0.7
		c-0.3-0.1-0.6-0.2-0.9-0.2C263,64,262.6,64,262.3,64.3z"/>
</g>
<path class="st8" d="M253.1,74c0,0,3.4-1.9,5.6,0"/>
<path class="st8" d="M248.6,81.6c0,0,8,9.2,14.4-0.4"/>
<g>
	<ellipse class="st9" cx="231.5" cy="154.9" rx="3.4" ry="0.9"/>
	<path class="st10" d="M234.9,154.9v3.7c0,0.2-0.2,0.4-0.7,0.6c-0.6,0.2-1.6,0.4-2.7,0.4s-2.1-0.1-2.7-0.4c-0.4-0.2-0.7-0.3-0.7-0.6
		v-3.7c0,0.5,1.5,0.9,3.4,0.9S234.9,155.4,234.9,154.9z"/>
	<path class="st11" d="M237.5,166.4c-5.6,2.6-10.2,0.6-11.6-0.2c0.1-1.9,1.3-3.5,2.9-4.3v-2.7c0.6,0.2,1.6,0.4,2.7,0.4
		s2.1-0.1,2.7-0.4v2.5C236.1,162.4,237.5,164.3,237.5,166.4z"/>
	<path class="st11" d="M237.5,174.1v0.4c0,1.2-1,2.2-2.2,2.2h-4.3l-2.3-0.8c-0.3-0.3-0.8-0.7-1.4-0.9c-0.5-0.2-1.1-0.3-1.5-0.3
		c0-0.1,0-0.2,0-0.3v-0.7C227.2,174.5,231.9,176.6,237.5,174.1z"/>
	<path class="st12" d="M237.5,166.5v7.5c-5.6,2.6-10.3,0.4-11.6-0.2v-7.3c0-0.1,0-0.2,0-0.3c1.4,0.7,6.1,2.7,11.6,0.2
		C237.5,166.5,237.5,166.5,237.5,166.5z"/>
</g>
<ellipse class="st9" cx="280.7" cy="154.9" rx="3.4" ry="0.9"/>
<path class="st10" d="M284,154.9v3.7c0,0.2-0.2,0.4-0.7,0.6c-0.6,0.2-1.6,0.4-2.7,0.4c-1.1,0-2.1-0.1-2.7-0.4
	c-0.4-0.2-0.7-0.3-0.7-0.6v-3.7c0,0.5,1.5,0.9,3.4,0.9S284,155.4,284,154.9z"/>
<path class="st13" d="M286.7,166.4c-5.6,2.6-10.2,0.6-11.6-0.2c0.1-1.9,1.3-3.5,2.9-4.3v-2.7c0.6,0.2,1.6,0.4,2.7,0.4
	c1.1,0,2.1-0.1,2.7-0.4v2.5C285.3,162.4,286.6,164.3,286.7,166.4z"/>
<path class="st14" d="M286.7,174.1v0.4c0,1.2-1,2.2-2.2,2.2h-4.3l-2.3-0.8c-0.3-0.3-0.8-0.7-1.4-0.9c-0.5-0.2-1.1-0.3-1.5-0.3
	c0-0.1,0-0.2,0-0.3v-0.7C276.3,174.5,281,176.6,286.7,174.1z"/>
<path class="st15" d="M286.7,166.5v7.5c-5.6,2.6-10.3,0.4-11.6-0.2v-7.3c0-0.1,0-0.2,0-0.3c1.4,0.7,6.1,2.7,11.6,0.2
	C286.7,166.5,286.7,166.5,286.7,166.5z"/>
<path class="st10" d="M261.8,164.9c0,0.4-0.2,0.8-0.5,1.1c-0.1,0.1-0.1,0.1-0.2,0.2h0c-0.2-0.2-0.5-0.2-0.8-0.2h-5.1
	c-0.3,0-0.6,0.1-0.8,0.2h0c-0.4-0.3-0.6-0.8-0.6-1.3c0-0.9,0.7-1.6,1.6-1.6h4.8C261.1,163.3,261.8,164,261.8,164.9z"/>
<path class="st1" d="M185.6,194.3c0,0-8,23.5,13.2,13.7c16.1-7.4,26.1-16.3,29.3-17.7c4.2-1.9,3.9-11.3,9.4-12l-13.1,2.9l-17.2,5.3
	C207.3,186.5,203.5,201.9,185.6,194.3z"/>
<path class="st11" d="M261.8,167.3v6.1c0,0.8-0.6,1.4-1.4,1.4h-5.1c-0.8,0-1.4-0.7-1.4-1.4v-6.1c0-0.5,0.2-0.9,0.6-1.2h0
	c0.2-0.2,0.5-0.2,0.8-0.2h5.1c0.3,0,0.6,0.1,0.8,0.2h0C261.6,166.4,261.8,166.8,261.8,167.3z"/>
<path class="st1" d="M326.4,189.4c0,0,9.2,23.1-12.5,14.4c-16.4-6.6-24.2-11.7-27-13.8c-0.7-0.5-1.3-1.3-1.5-2.2
	c-0.5-2.1-1.7-8.3-8.1-8.9l9.7-0.5l17.4,4.5C304.3,182.8,308.9,197.9,326.4,189.4z"/>
<rect x="218.6" y="173.8" class="st10" width="75.2" height="6.2"/>
<ellipse class="st16" cx="290.8" cy="167.8" rx="1.8" ry="4.8"/>
<ellipse transform="matrix(0.7071 -0.7071 0.7071 0.7071 -40.4157 257.6228)" class="st16" cx="290.8" cy="177.6" rx="1.8" ry="4.8"/>
<ellipse transform="matrix(0.7895 -0.6138 0.6138 0.7895 -49.9264 214.4562)" class="st16" cx="287.7" cy="180" rx="1.8" ry="4.8"/>
<ellipse transform="matrix(0.4533 -0.8913 0.8913 0.4533 8.4017 356.2587)" class="st16" cx="294.6" cy="171.3" rx="1.8" ry="4.8"/>
<ellipse transform="matrix(0.4533 -0.8913 0.8913 0.4533 4.4613 357.6225)" class="st16" cx="293.8" cy="175.2" rx="1.8" ry="4.8"/>
<path class="st13" d="M250.9,164.7v7.3c0,1-0.8,1.8-1.8,1.8H243c-1,0-1.8-0.8-1.8-1.8v-7.3c0-0.6,0.3-1.1,0.8-1.4h0
	c0.3-0.2,0.6-0.3,1-0.3h6.2c0.4,0,0.7,0.1,1,0.3h0C250.6,163.6,250.9,164.1,250.9,164.7z"/>
<path class="st9" d="M250.9,161.7c0,0.5-0.2,1-0.6,1.4c-0.1,0.1-0.1,0.1-0.2,0.2h0c-0.3-0.2-0.6-0.3-1-0.3H243c-0.4,0-0.7,0.1-1,0.3
	h0c-0.5-0.4-0.8-0.9-0.8-1.6c0-1.1,0.9-1.9,1.9-1.9h5.8C250,159.8,250.9,160.7,250.9,161.7z"/>
<ellipse class="st16" cx="221.3" cy="171.4" rx="1.8" ry="4.8"/>
<ellipse transform="matrix(0.7071 -0.7071 0.7071 0.7071 -63.3273 209.5905)" class="st16" cx="221.3" cy="181.2" rx="4.8" ry="1.8"/>
<ellipse transform="matrix(0.6138 -0.7895 0.7895 0.6138 -58.3047 248.1215)" class="st16" cx="224.4" cy="183.7" rx="4.8" ry="1.8"/>
<ellipse transform="matrix(0.8913 -0.4533 0.4533 0.8913 -55.6691 117.592)" class="st16" cx="217.5" cy="174.9" rx="4.8" ry="1.8"/>
<ellipse transform="matrix(0.8913 -0.4533 0.4533 0.8913 -57.3414 118.4044)" class="st16" cx="218.3" cy="178.8" rx="4.8" ry="1.8"/>
</svg>
