<?xml version="1.0" encoding="utf-8"?>
<!-- Generator: Adobe Illustrator 23.1.0, SVG Export Plug-In . SVG Version: 6.00 Build 0)  -->
<svg version="1.1" id="Слой_1" xmlns="http://www.w3.org/2000/svg" xmlns:xlink="http://www.w3.org/1999/xlink" x="0px" y="0px"
	 viewBox="0 0 283.5 283.5" style="enable-background:new 0 0 283.5 283.5;" xml:space="preserve">
<style type="text/css">
	.st0{fill:#F48026;}
	.st1{fill:#8FB4DF;}
	.st2{opacity:0.78;}
	.st3{fill:#FFDEA8;}
	.st4{fill:none;}
	.st5{fill:#FFDC4D;}
	.st6{fill:#C9EAF7;}
</style>
<g>
	<g>
		<path class="st0" d="M100.6,218.2c0,0,0.1,11.7-0.4,15.6c-0.4,3.5-1.2,14.5-1.2,14.5l81.8-0.8c0,0-1.8-23.6-3.5-30.9L100.6,218.2z
			"/>
	</g>
	<path class="st1" d="M111.6,110.7c0,0-12.3-6.8-18.4,17.8s-7.7,32.3-7.7,32.3l18.4,9.2l-6.8,63.3l85.1-1.2l-6.8-61.2
		c0,0,16.9-13.5,19.4-16.3c0,0-12.3-40.6-19.4-43.3c-9.6-3.8-16.3,14.1-22.4,16.3c-6.1,2.2-26.4,2.5-30.7-1.5
		C118.1,122.1,111.6,110.7,111.6,110.7z"/>
	<g class="st2">
	</g>
	<ellipse transform="matrix(0.6784 -0.7347 0.7347 0.6784 -34.168 105.665)" class="st3" cx="103.6" cy="91.9" rx="5.9" ry="8.9"/>
	<ellipse class="st3" cx="141.6" cy="131.8" rx="10.6" ry="9.7"/>
	
		<ellipse transform="matrix(0.7999 -0.6002 0.6002 0.7999 -19.1007 126.2984)" class="st3" cx="179.8" cy="91.8" rx="8.9" ry="5.9"/>
	<ellipse class="st3" cx="141.9" cy="95" rx="39.3" ry="38.9"/>
	
		<ellipse transform="matrix(0.9969 -7.848542e-02 7.848542e-02 0.9969 -6.8071 10.4075)" class="st4" cx="129" cy="91.8" rx="3.6" ry="4.4"/>
	<g>
		<path d="M136.4,110.4c0,2.2,2.2,4.1,5,4.1c2.7,0,5-1.8,5-4.1c0-0.3-0.3-0.6-0.6-0.6s-0.6,0.3-0.6,0.6c0,1.6-1.7,2.8-3.7,2.8
			c-2.1,0-3.7-1.3-3.7-2.8c0-0.3-0.3-0.6-0.6-0.6C136.7,109.8,136.4,110.1,136.4,110.4z"/>
		<path d="M141.2,119.2c-3.3,0.1-6.5,1.8-8.3,4.6c-0.2,0.3-0.1,0.7,0.2,0.9c0.1,0.1,0.2,0.1,0.3,0.1c0.2,0,0.4-0.1,0.5-0.3
			c1.7-2.4,4.4-4,7.4-4.1s5.8,1.3,7.6,3.6c0.2,0.3,0.6,0.3,0.9,0.1c0.3-0.2,0.3-0.6,0.1-0.9C147.8,120.6,144.6,119.1,141.2,119.2z"
			/>
		<path d="M135.2,98.6c-0.2-0.2-0.6-0.3-0.9,0c-0.5,0.5-1.5,0.9-2.6,1.2c-1.1,0.2-2.2,0.2-2.9,0c-0.3-0.1-0.7,0.1-0.8,0.4
			c-0.1,0.3,0.1,0.7,0.4,0.8c0.5,0.2,1.1,0.3,1.8,0.3c0.6,0,1.2-0.1,1.8-0.2c1.3-0.3,2.5-0.8,3.2-1.5
			C135.4,99.2,135.4,98.8,135.2,98.6z"/>
		<path d="M154,100.2c-0.7,0.2-1.8,0.1-2.9-0.2c-1.1-0.3-2-0.9-2.5-1.4c-0.2-0.3-0.6-0.3-0.9,0c-0.3,0.2-0.3,0.6,0,0.9
			c0.7,0.7,1.8,1.4,3.1,1.8c0.8,0.3,1.6,0.4,2.4,0.4c0.4,0,0.8,0,1.2-0.1c0.3-0.1,0.5-0.4,0.4-0.7
			C154.7,100.3,154.4,100.1,154,100.2z"/>
		<path d="M137,89.7c0.3-0.2,0.3-0.6,0.1-0.9s-0.6-0.3-0.9-0.1c-1.2,0.9-3.2,1.7-5.5,2.2s-4.5,0.5-5.9,0.2c-0.3-0.1-0.7,0.1-0.7,0.4
			c-0.1,0.3,0.1,0.7,0.4,0.7c0.7,0.2,1.6,0.3,2.5,0.3c1.2,0,2.6-0.1,3.9-0.4C133.5,91.5,135.7,90.7,137,89.7z"/>
		<path d="M157.9,91c-1.4,0.4-3.6,0.3-5.9-0.2c-2.3-0.5-4.3-1.3-5.5-2.2c-0.3-0.2-0.7-0.2-0.9,0.1c-0.2,0.3-0.2,0.7,0.1,0.9
			c1.3,1,3.5,1.9,6,2.4c1.4,0.3,2.7,0.4,3.9,0.4c0.9,0,1.8-0.1,2.5-0.3c0.3-0.1,0.5-0.4,0.4-0.7C158.6,91.1,158.2,90.9,157.9,91z"/>
	</g>
	<g>
		<path class="st5" d="M119.7,49.4c-0.2-0.2-8-5.9-9.1-2.4C109.3,51.2,119.7,49.4,119.7,49.4z"/>
		<path class="st5" d="M165.1,50.5c-12.7-7.1-24-7.7-30.6-6.9c-9.4,1.1-12.8,5.4-13.6,7.7l-0.5-1.3c0.3,0.3,0.5,0.5,0.5,0.5
			c0.1-0.3,0.8-11.8-3.6-10.6c-4.2,1.1,0.7,7.3,2.8,9.7c-1.9,0.5-26.4,7.7-21.6,34.1c0.4,2,5.5,0.6,5.5,0.6s17.2-11.1,21.2-21.2
			l-0.5-1.5C134.9,72.8,156.9,87.1,163,91c0.4,0.3,1-0.2,0.7-0.7l-12.1-23.6c0,0,11.8,20,20.3,25.6c9.7,6.4,10.1,4,10.1,4
			s3.7-11.3,3.7-18.7C185.6,70.6,177.5,57.5,165.1,50.5z"/>
	</g>
	<g>
		<g>
			<path class="st6" d="M125.6,110.9c-3.5,4.6-1.2,8,0.5,6.4c0.8-0.7,0.1-2-0.4-3.2C125.1,112.7,125.6,110.9,125.6,110.9z"/>
			<path class="st6" d="M132.2,104.3c-3.5,4.6-1.2,8,0.5,6.4c0.8-0.7,0.1-2-0.4-3.2C131.7,106.1,132.2,104.3,132.2,104.3z"/>
			<path class="st6" d="M156.9,109.6c0,0,0.4,1.8-0.2,3.2c-0.5,1.2-1.3,2.4-0.6,3.2C157.7,117.6,160.1,114.3,156.9,109.6z"/>
			<path class="st6" d="M150,107c-0.5,1.2-1.3,2.4-0.6,3.2c1.6,1.7,4.1-1.7,0.8-6.4C150.3,103.9,150.7,105.6,150,107z"/>
		</g>
		<g>
			<path d="M126.2,113.9c-0.5-1.2-0.1-2.8-0.1-2.8l0.9-3.2l-2,2.6c-2.2,2.8-2.2,5.2-1.6,6.6c0.4,0.8,1,1.2,1.7,1.2
				c0.5,0,0.9-0.2,1.4-0.6c1-0.9,0.4-2.3-0.1-3.4C126.4,114.2,126.3,114.1,126.2,113.9z M126.1,117.3c-0.3,0.3-0.6,0.4-0.9,0.4
				c-1.4,0-2.5-3,0.4-6.8c0,0-0.5,1.7,0.1,3.2C126.2,115.3,126.9,116.6,126.1,117.3z"/>
			<path d="M132.9,107.3c-0.5-1.2-0.1-2.8-0.1-2.8l0.9-3.1l-2,2.6c-2.2,2.8-2.2,5.2-1.6,6.6c0.4,0.8,1,1.2,1.7,1.2
				c0.5,0,0.9-0.2,1.4-0.6c1-0.9,0.4-2.3-0.1-3.4C133,107.6,132.9,107.5,132.9,107.3z M132.7,110.7c-0.3,0.3-0.6,0.4-0.9,0.4
				c-1.4,0-2.5-3,0.4-6.8c0,0-0.5,1.7,0.1,3.2C132.8,108.7,133.5,110,132.7,110.7z"/>
			<path d="M157.4,109.2l-1.9-2.7l0.8,3.2c0,0,0.4,1.6-0.2,2.8c-0.1,0.2-0.2,0.3-0.2,0.5c-0.5,1.1-1.2,2.4-0.2,3.4
				c0.4,0.4,0.8,0.6,1.3,0.6c0.7,0,1.3-0.4,1.7-1.1C159.3,114.6,159.4,112.1,157.4,109.2z M156.9,116.4c-0.3,0-0.6-0.2-0.9-0.4
				c-0.8-0.8,0-2,0.6-3.2c0.7-1.4,0.2-3.2,0.2-3.2C159.5,113.4,158.3,116.4,156.9,116.4z"/>
			<path d="M148.9,100.8l0.8,3.2c0,0,0.4,1.6-0.2,2.8c-0.1,0.2-0.2,0.3-0.2,0.5c-0.5,1.1-1.2,2.4-0.2,3.4c0.4,0.4,0.8,0.6,1.3,0.6
				c0.7,0,1.3-0.4,1.7-1.1c0.7-1.3,0.7-3.7-1.3-6.6L148.9,100.8z M150.3,110.7c-0.3,0-0.6-0.2-0.9-0.4c-0.8-0.8,0-2,0.6-3.2
				c0.7-1.4,0.2-3.2,0.2-3.2C152.9,107.8,151.7,110.7,150.3,110.7z"/>
		</g>
	</g>
	<path class="st3" d="M103.3,170.3l-13.1-6.6l-2.6,35.2c0,2.5,1.5,4.8,3.9,5.6c5.6,2,19.4,8.8,39.1,8.2c9.5-0.3,14.8-2.2,14.8-2.2
		s13.8-5.4,16.6-9.5c4-5.8,3.7-8.3,2.2-7.1s-8.5,5.7-13.1,7.2l2-2c0,0,7.7-5.2,8.3-8.9s-0.6-2.8-2.8-0.9c-5.6,4.8-6.5,7.1-16.6,8.3
		c0,0,1.8-6.1,0.3-8s-2.8-0.6-3.1,1.8c-0.3,2.5-4,7.1-4.6,8.3s-1.7,3.8-1.7,3.8l-31.8-7.8L103.3,170.3z"/>
	<path class="st3" d="M129.3,207.9c0.9,1.9,2.9,3.3,5,3.6c0.4,0.1,1.7,0.9-6.8,1.8H122c0,0,0.2,2.2,2.2,3.4c0.7,0.5,3.2,0.8,3.2,0.8
		s-0.2,2.5,4,2.9c0,0,0,3.1,3.7,2.9c0,0,0.2,1.4,2.6,1.7c5.2,0.6,10.3-3.8,19.8-11.2c0,0,20.9-5.7,30.9-13.4
		c1.5-1.1,2.3-2.9,2.2-4.7c-0.2-6.1-0.8-21.2-2.5-34.4l-11.8,9.7l1.8,21.8l-23.8,13.4c0,0-13.3,4.3-23.8,0.5
		C129.7,206.3,129,207.1,129.3,207.9z"/>
	<path d="M178.1,112.8c2.2-4.3,3.6-9.1,4-14.2c0.7-0.4,1.4-0.8,2.1-1.3c2.6-2,4.3-4.8,4.6-7.4c0.2-1.7-0.2-3.2-1.2-4.3
		c-0.4-0.5-0.9-0.9-1.5-1.2c0.4-2.3,0.7-4.7,0.7-6.8c0-7.7-8.8-21.1-21.2-28.1c-10.8-6.1-20.4-7.4-26.6-7.4c-1.7,0-3.3,0.1-4.8,0.3
		c-5.8,0.7-9.8,2.7-12.1,4.9c0-0.8-0.1-1.7-0.2-2.5c-0.2-1.6-0.5-3.3-1.4-4.6s-2-1.5-2.7-1.5c-0.3,0-0.6,0-0.9,0.1
		c-1.6,0.4-2.2,1.5-2.4,2.2c-0.3,1.2,0.1,2.6,0.6,3.7c0.1,0.3,0.3,0.6,0.5,0.8c-0.7-0.3-1.4-0.6-2.1-0.7c-0.4-0.1-0.7-0.1-1.1-0.1
		c-1.4,0-2.5,0.7-2.9,2s0,2.1,0.3,2.7c0.6,0.8,1.4,1.2,2.3,1.4c0.4,0.1,0.9,0.2,1.4,0.2c-2.1,1.1-4.5,2.5-6.8,4.5
		c-5.8,4.9-12.1,13.8-9.5,28.5c0,0.1,0.1,0.2,0.1,0.3c-0.3,0.2-0.7,0.4-1,0.7c-1.1,1.1-1.6,2.5-1.6,4.2c0,2.6,1.5,5.6,3.9,7.9
		c0.9,0.9,2,1.6,3.1,2.2c0.4,3.8,1.3,7.4,2.7,10.8c-0.2,0.1-0.3,0.1-0.5,0.2c-5,2.2-8.8,8.3-11.3,18.3c-6.1,24.3-7.7,32.2-7.7,32.3
		c-0.1,0.3,0.1,0.5,0.3,0.7l3.8,1.9l0,0L86.4,199c0,0,0,0,0,0.1c0,3.1,1.9,5.8,4.7,6.8c0.8,0.3,1.7,0.6,2.8,1.1
		c1.5,0.6,3.2,1.3,5.2,2l-2.6,24.5c0,0.2,0,0.3,0.2,0.5c0.1,0.1,0.3,0.2,0.5,0.2l0,0h2.6l-1.5,14.3l1.2,0.1l1.5-14.4l77.7-1.1
		c0.8,7.5,1.3,14.6,1.3,14.7l1.2-0.1c0-0.5-0.6-7.3-1.3-14.7h2.3c0.2,0,0.3-0.1,0.5-0.2c0.1-0.1,0.2-0.3,0.2-0.5l-2.8-25.3
		c3.4-1.6,6.5-3.4,9.1-5.3c1.8-1.3,2.8-3.5,2.7-5.7c-0.2-5.9-0.8-21.2-2.6-34.6c0-0.2-0.1-0.3-0.2-0.5c2.9-2.4,5.4-4.6,6.2-5.5
		c0.1-0.2,0.2-0.4,0.1-0.6C195,153,185.3,121.3,178.1,112.8z M186.8,86.3c2,2.5,0.6,7-3.3,10c-0.1,0.1-0.2,0.1-0.3,0.2
		c0.3-0.8,1.8-5.6,2.8-10.8C186.3,85.9,186.6,86,186.8,86.3z M134.5,43.5c1.4-0.2,2.9-0.3,4.6-0.3c6.7,0,15.9,1.6,26,7.2
		c12.5,7,20.6,20.2,20.6,27c0,7.4-3.7,18.7-3.7,18.7s-0.1,0.4-0.9,0.4c-1.1,0-3.7-0.8-9.2-4.4c-8.5-5.6-20.3-25.6-20.3-25.6
		l12.1,23.6c0.2,0.4-0.1,0.8-0.5,0.8c-0.1,0-0.2,0-0.3-0.1c-6.4-4.1-30.3-19.6-39.7-31c-2.5-3-3.2-5.9-2.4-8.3
		C121.3,49.4,124.6,44.7,134.5,43.5z M117.3,39.9c0.2-0.1,0.4-0.1,0.6-0.1c1.3,0,2,1.2,2.3,2.3c0.5,1.5,0.7,3,0.7,4.6
		c0,0.5,0,0.9,0,1.4l-0.9,0.2c-0.3-0.6-1.5-1.2-1.8-1.4c-0.2-0.1-0.4-0.2-0.5-0.3c-0.3-0.5-0.8-1.1-0.9-1.3c-0.4-0.7-0.8-1.5-1-2.3
		C115.4,41.6,115.7,40.3,117.3,39.9z M110.6,47c0.3-0.8,0.9-1.2,1.7-1.2c1.9,0,4.9,1.8,6.4,2.8c-0.7,0.2-1.7,0.6-2.8,1.1
		c-0.2,0-0.5,0-0.7,0C112.6,49.8,109.9,49.3,110.6,47z M120.2,49.6L120.2,49.6c-0.3,0.7-0.6,1.2-0.7,1.7c-0.6,2.1-0.6,5.4,2.7,9.4
		c0.8,1,1.7,1.9,2.7,2.9c-4.4,10-20.9,20.6-20.9,20.6s-1.7,0.5-3.3,0.5c-1.1,0-2.1-0.2-2.3-1.1C93.5,56.3,120.2,49.6,120.2,49.6z
		 M101.4,95c0,0.9,0.1,1.7,0.1,2.6c-0.7-0.4-1.5-1-2.1-1.6c-3.5-3.4-4.5-8-2.3-10.3c0.2-0.2,0.5-0.4,0.8-0.5
		c0.5,0.4,1.3,0.7,2.7,0.7c0.7,0,1.3-0.1,1.9-0.2C101.9,88.8,101.4,91.8,101.4,95z M103.9,85.6c0.2,0,0.3-0.1,0.4-0.1h0.2l0.2-0.1
		c0.7-0.4,16.4-10.7,21.2-20.7C136.6,75.4,156,88,162.2,92c0.3,0.2,0.6,0.3,0.9,0.3c0.6,0,1.2-0.3,1.5-0.8s0.3-1.2,0.1-1.7l-3.1-6.1
		c3.2,4,6.6,7.7,9.6,9.7c4.7,3.1,7.9,4.6,9.8,4.6c-1.5,20.1-18.4,36-39.1,36c-21.7,0-39.3-17.4-39.3-38.9
		C102.6,91.7,103.1,88.6,103.9,85.6z M151.8,133.9c-1.1,4.3-5.2,7.6-10.3,7.6s-9.3-3.3-10.3-7.7c3.4,0.9,6.9,1.5,10.6,1.5
		C145.3,135.2,148.7,134.7,151.8,133.9z M91.5,204.5c-2.4-0.8-3.9-3.1-3.9-5.6c0,0,2.2-29,2.6-35l13,6.5l-0.1,0.9c0,0,0.1,0,0.1-0.1
		v0.1l-2,23.7c-2.8,0.2-3.8,2.9-3.9,3c-0.1,0.3,0.1,0.7,0.4,0.8c0.1,0,0.1,0,0.2,0c0.3,0,0.5-0.2,0.6-0.4c0-0.1,0.8-2.2,3.1-2.2
		c0.1,0,0.2-0.1,0.3-0.1l31.1,7.7c0,0,1.1-2.6,1.7-3.8c0.6-1.2,4.3-5.8,4.6-8.3c0.2-1.6,0.8-2.7,1.7-2.7c0.4,0,0.9,0.3,1.4,0.9
		c1.5,1.8-0.3,8-0.3,8c10.1-1.2,10.9-3.5,16.6-8.3c1.1-0.9,1.9-1.6,2.4-1.6s0.7,0.7,0.3,2.5c-0.6,3.7-8.3,8.9-8.3,8.9l-2,2
		c4.6-1.5,11.5-6,13.1-7.2c0.3-0.2,0.5-0.3,0.7-0.3c0.8,0,0.5,2.2-2.2,6.4l-8.8,5c-0.9,0.3-6.7,2-13.3,2c-3.6,0-6.9-0.5-9.6-1.5
		c-0.2-0.1-0.5-0.1-0.8-0.1c-0.7,0-1.4,0.4-1.8,1c-0.4,0.6-0.5,1.4-0.2,2.1c0.6,1.3,1.7,2.5,3,3.3c-0.9,0.1-2.1,0.3-3.6,0.5h-5.5
		c-0.3,0-0.5,0.1-0.7,0.3C106.6,211.1,96.2,206.2,91.5,204.5z M181.6,231.5l-83.8,1.2l2.5-23.5c5.2,1.8,11.9,3.6,19.9,4.4l-0.7,0.5
		l-1,0.8c-0.7,0.6-1.3,1.2-1.9,1.9s-1.1,1.4-1.6,2.1c-0.4,0.8-0.8,1.6-1,2.4c0.3-0.8,0.7-1.6,1.2-2.3s1.1-1.3,1.8-1.9
		c0.6-0.6,1.3-1.1,2-1.6l1.1-0.7l0.9-0.5c0.2,0.7,0.6,1.5,1.4,2.3c-0.4,0.7-0.7,1.4-0.9,2.2c-0.2,0.8-0.4,1.6-0.5,2.4
		c-0.2,1.6-0.2,3.2,0.1,4.7c-0.1-1.6,0.1-3.1,0.5-4.6c0.2-0.7,0.4-1.5,0.8-2.2c0.3-0.6,0.6-1.2,1-1.7c0.1,0.1,0.1,0.1,0.2,0.2
		c0.6,0.4,1.9,0.7,2.8,0.8c0.4,1.1,1.5,2.4,4,2.9c0.4,1.4,1.6,2.9,4,3.1c0.5,0.7,1.5,1.5,3.3,1.7c0.4,0,0.7,0.1,1.1,0.1
		c4.8,0,9.4-3.6,17-9.5c0.2-0.1,0.4-0.3,0.6-0.5c0.6,0.2,1.3,0.6,1.9,1c0.6,0.4,1.2,0.8,1.7,1.4c0.5,0.5,1,1.1,1.3,1.8
		c0.4,0.6,0.6,1.4,0.7,2.1c0-0.8-0.1-1.5-0.4-2.2c-0.3-0.7-0.6-1.4-1.1-2s-1-1.2-1.6-1.7c-0.4-0.4-0.9-0.7-1.4-1
		c0.3-0.2,0.6-0.4,0.9-0.7c0.5-0.1,1.8-0.5,3.5-1c0.4,0.3,0.9,0.6,1.3,0.9c0.4,0.3,0.9,0.7,1.3,1.1c0.4,0.4,0.7,0.9,1,1.3
		c0.3,0.5,0.5,1,0.6,1.6c0-0.6-0.1-1.2-0.4-1.7c-0.2-0.6-0.5-1.1-0.8-1.6s-0.7-1-1.1-1.4c-0.2-0.2-0.4-0.4-0.7-0.6
		c4.2-1.3,10.3-3.5,16.1-6.2L181.6,231.5z M190.7,195.7c0.1,1.8-0.8,3.6-2.2,4.7c-10,7.6-30.9,13.4-30.9,13.4
		c-8.9,6.9-14,11.3-18.9,11.3c-0.3,0-0.6,0-1-0.1c-0.9-0.1-1.4-0.3-1.8-0.6c1.8-0.6,5.9-2,7.7-3.3c0.3-0.2,0.3-0.6,0.1-0.9
		c-0.2-0.3-0.6-0.3-0.9-0.1c-1.8,1.3-6.3,2.8-7.8,3.3l0,0c-0.1,0-0.2,0-0.3,0c-2,0-2.8-1-3.2-1.9c1.7-0.4,6-1.4,8.3-3
		c0.3-0.2,0.3-0.6,0.1-0.9c-0.2-0.3-0.6-0.3-0.9-0.1c-2.2,1.6-6.8,2.6-8.1,2.9c-2.3-0.3-3.2-1.3-3.5-2.1c1.4-0.2,4.4-0.9,7.9-2.4
		c0.3-0.1,0.5-0.5,0.3-0.8c-0.1-0.3-0.5-0.5-0.8-0.3c-4.6,1.9-8.4,2.4-8.4,2.4c-0.1,0-0.2,0.1-0.2,0.1c-0.8-0.1-1.7-0.3-2.1-0.6
		c-2-1.2-2.2-3.4-2.2-3.4h5.5c8.5-0.9,7.2-1.8,6.8-1.8c-2.1-0.3-4.2-1.7-5-3.6c-0.3-0.7,0.2-1.3,0.9-1.3c0.1,0,0.2,0,0.3,0.1
		c3.2,1.2,6.7,1.6,10,1.6c7.4,0,13.8-2.1,13.8-2.1l23-12.9l0,0c1,0,3.5,0.5,4.1,1.9c0.1,0.3,0.3,0.4,0.6,0.4c0.1,0,0.1,0,0.2,0
		c0.3-0.1,0.5-0.5,0.4-0.8c-0.7-1.9-3.2-2.5-4.5-2.6l-1.7-20.3c-0.1-0.2-0.2-0.4-0.3-0.5h0.1l0,0c1.3-1.1,7.1-5.7,12-9.8
		C189.9,174.7,190.5,189.7,190.7,195.7z M176,169.8l-4.4-26l-1.2,0.2l4.6,27v0.3h0.1l1.8,20.8l-12,6.8c1.1-2.1,2-4.3,1.4-5.5
		c-0.3-0.5-0.8-0.9-1.4-0.9c-0.5,0-0.9,0.2-1.4,0.6c-0.7,0.5-2.3,1.6-4.3,2.8c1.7-1.7,3.2-3.6,3.5-5.3c0.3-1.8,0.2-2.8-0.3-3.4
		c-0.3-0.4-0.8-0.6-1.2-0.6c-0.9,0-1.8,0.7-3.2,1.9c-0.9,0.8-1.7,1.5-2.4,2.1c-1,0.9-1.9,1.7-2.8,2.4c0,0,0-0.1,0.1-0.1
		c0.2-0.7,0.3-1.3,0.4-2c0.2-1.3,0.2-2.7-0.1-4c0,1.3-0.2,2.6-0.5,3.9c-0.2,0.6-0.4,1.2-0.7,1.8s-0.6,1.1-1,1.6l0,0l0,0
		c-0.7,0.4-1.5,0.7-2.4,1c0.2-1.1,0.4-2.3,0.5-3.4c0.1-1.4,0.2-2.7,0.2-4.1c0.1-2.7,0-5.5-0.2-8.2c0,2.7-0.2,5.4-0.4,8.1
		c-0.3,2.7-0.7,5.4-1.5,7.9l0,0l0,0l0,0c-1,0.3-2.1,0.5-3.5,0.7c0.5-2.3,1-5.7-0.4-7.3c-0.7-0.9-1.5-1.3-2.4-1.3
		c-1.5,0-2.6,1.4-2.9,3.8c-0.2,1.3-1.7,3.7-2.9,5.4c-1.4-1.2-2.7-2.5-3.8-3.9c-1.2-1.6-2.3-3.4-3.3-5.2c-0.9-1.9-1.8-3.8-2.4-5.7
		c-0.7-2-1.3-4-1.7-6c0.3,2.1,0.8,4.1,1.4,6.1s1.3,4,2.2,5.9s1.9,3.8,3.1,5.5c1.1,1.6,2.4,3.1,3.9,4.4c-0.4,0.6-0.8,1.2-0.9,1.5
		c-0.1,0.2-0.2,0.5-0.3,0.7c-1-0.2-2-0.5-3-0.9c-1-0.5-2-1.1-3-1.7c-1-0.6-1.9-1.3-2.8-2.1c-0.9-0.7-1.8-1.5-2.6-2.3
		c0.7,0.9,1.5,1.7,2.4,2.6c0.8,0.8,1.7,1.6,2.6,2.3s1.9,1.4,2.9,2c0.9,0.5,1.9,0.9,2.9,1.2c-0.2,0.4-0.4,0.8-0.5,1.2l-29.8-7.3
		l2.1-24.5v-0.1v-0.1v-0.1l0,0l4-27.7l-1.2-0.2l-3.9,26.8l-17.3-8.6c0.4-2,2.3-10.7,7.6-31.8c2.4-9.4,6-15.5,10.6-17.5
		c0.2-0.1,0.3-0.1,0.5-0.2c4.7,10.6,13.9,18.9,25.2,22.3c0.9,5.2,5.7,9.3,11.6,9.3c5.8,0,10.6-4,11.6-9.1
		c10.5-3,19.3-10.2,24.4-19.6c5.6,7.1,13.6,30.5,16.7,40.6C191.5,157.3,179.2,167.2,176,169.8z"/>
</g>
</svg>
