<?xml version="1.0" encoding="utf-8"?>
<!-- Generator: Adobe Illustrator 22.1.0, SVG Export Plug-In . SVG Version: 6.00 Build 0)  -->
<svg version="1.1" id="Слой_3" xmlns="http://www.w3.org/2000/svg" xmlns:xlink="http://www.w3.org/1999/xlink" x="0px" y="0px"
	 viewBox="0 0 512 512" style="enable-background:new 0 0 512 512;" xml:space="preserve">
<style type="text/css">
	.st0{fill:#B5D758;}
	.st1{fill:#B2B2B2;}
	.st2{fill:#F0E3B2;stroke:#000000;stroke-width:2;stroke-linecap:round;stroke-linejoin:round;stroke-miterlimit:10;}
	.st3{fill:#A80206;stroke:#000000;stroke-width:2;stroke-linecap:round;stroke-linejoin:round;stroke-miterlimit:10;}
	.st4{fill:#B9D3E5;stroke:#000000;stroke-width:2;stroke-linecap:round;stroke-linejoin:round;stroke-miterlimit:10;}
	.st5{fill:#FFFFFF;}
	.st6{fill:none;}
	.st7{fill:#DADADA;stroke:#000000;stroke-width:2;stroke-linecap:round;stroke-linejoin:round;stroke-miterlimit:10;}
	.st8{fill:#FFFFFF;stroke:#A80206;stroke-width:2;stroke-miterlimit:10;}
	.st9{fill:#A80206;}
	.st10{fill:none;stroke:#000000;stroke-width:2;stroke-linecap:round;stroke-linejoin:round;stroke-miterlimit:10;}
	.st11{fill:#60060C;}
	.st12{fill:#575756;stroke:#000000;stroke-width:3;stroke-miterlimit:10;}
	.st13{fill:#EDEDED;stroke:#000000;stroke-width:3;stroke-miterlimit:10;}
	.st14{fill:#575756;stroke:#000000;stroke-width:0.6694;stroke-miterlimit:10;}
	.st15{fill:#315164;stroke:#000000;stroke-miterlimit:10;}
	.st16{fill:#9D9D9C;stroke:#000000;stroke-width:3;stroke-miterlimit:10;}
	.st17{fill:#3C3C3B;stroke:#000000;stroke-width:0.6694;stroke-miterlimit:10;}
	.st18{fill:#3C3C3B;stroke:#000000;stroke-width:0.4826;stroke-miterlimit:10;}
	.st19{fill:#B9D3E5;stroke:#000000;stroke-width:1.8736;stroke-linecap:round;stroke-linejoin:round;stroke-miterlimit:10;}
	.st20{fill:#A80206;stroke:#000000;stroke-linecap:round;stroke-linejoin:round;stroke-miterlimit:10;}
	.st21{fill:#706F6F;stroke:#000000;stroke-width:2;stroke-linecap:round;stroke-linejoin:round;stroke-miterlimit:10;}
	.st22{fill:#B9D3E5;stroke:#000000;stroke-linecap:round;stroke-linejoin:round;stroke-miterlimit:10;}
	.st23{fill:#A80206;stroke:#000000;stroke-width:0.75;stroke-linecap:round;stroke-linejoin:round;stroke-miterlimit:10;}
	.st24{fill:#A80206;stroke:#000000;stroke-width:0.75;stroke-miterlimit:10;}
	.st25{fill:#FFD46D;stroke:#000000;stroke-miterlimit:10;}
	.st26{fill:#706F6F;stroke:#000000;stroke-miterlimit:10;}
	.st27{fill:#3C3C3B;stroke:#000000;stroke-linecap:round;stroke-linejoin:round;stroke-miterlimit:10;}
	.st28{fill:#FFFFFF;stroke:#A80206;stroke-width:3;stroke-miterlimit:10;}
</style>
<g>
	<path class="st0" d="M173.8,138.1c0-27-23.9-49-53.4-49c-5.5,0-10.8,0.8-15.8,2.2c-9.5-13.4-26-22.3-44.8-22.3
		c-23.9,0-44.1,14.4-50.9,34.2C-11,110.4-25,128.1-25,148.8c0,16,8.4,30.2,21.3,39.1c-0.7,1.4-1.3,2.9-1.8,4.4
		c-19.8,7.2-33.9,24.8-33.9,45.5c0,27,23.9,49,53.4,49c22.2,0,41.3-12.4,49.3-30.2c9.7,11.8,25.2,19.5,42.6,19.5
		c29.5,0,53.4-21.9,53.4-49c0-17.6-10.2-33.1-25.5-41.7C156.9,179.9,173.8,160.8,173.8,138.1z M79,169.1c-0.5-0.4-1-0.7-1.5-1.1
		c0.1-0.1,0.1-0.3,0.2-0.4C78.2,168.1,78.6,168.6,79,169.1z M86.7,176.1c1.8,1.3,3.7,2.6,5.7,3.7c-0.8,0.2-1.5,0.4-2.3,0.6
		C89.1,178.9,88,177.5,86.7,176.1z"/>
	<path class="st0" d="M431.6,210.3c-15.3,8.6-25.5,24.1-25.5,41.7c0,27,23.9,49,53.4,49c17.4,0,32.9-7.6,42.6-19.5
		c8,17.7,27.1,30.2,49.3,30.2c29.5,0,53.4-21.9,53.4-49c0-20.7-14-38.4-33.9-45.5c-0.5-1.5-1.1-3-1.8-4.4
		c12.9-8.9,21.3-23.1,21.3-39.1c0-20.7-14-38.4-33.9-45.5c-6.8-19.8-27.1-34.2-50.9-34.2c-18.8,0-35.2,8.9-44.8,22.3
		c-5-1.4-10.3-2.2-15.8-2.2c-29.5,0-53.4,21.9-53.4,49C391.8,185.7,408.7,204.8,431.6,210.3z M487.9,192.5c0.1,0.1,0.1,0.3,0.2,0.4
		c-0.5,0.3-1,0.7-1.5,1.1C487,193.5,487.4,193,487.9,192.5z M475.4,205.3c-0.7-0.2-1.5-0.4-2.3-0.6c2-1.1,3.9-2.4,5.7-3.7
		C477.6,202.4,476.5,203.8,475.4,205.3z"/>
	<rect y="279.3" class="st1" width="512" height="35.7"/>
	<rect x="145.7" y="111.7" class="st2" width="214.7" height="116.9"/>
	<rect x="144.3" y="99.8" class="st3" width="216" height="10.2"/>
	<g>
		<path class="st4" d="M182,127.1v39.7h-12c-2.9,0-5.3-2.4-5.3-5.3v-29c0-3,2.4-5.3,5.3-5.3H182z"/>
		<rect x="182" y="127.1" class="st4" width="18.7" height="39.7"/>
		<path class="st4" d="M217,132.4v29c0,3-2.4,5.3-5.3,5.3h-11v-39.7h11C214.6,127.1,217,129.4,217,132.4z"/>
		<g>
			<path class="st5" d="M182.5,142.2v20.6l-7.3,3.9h-4.7c-2.9,0-5.3-2.4-5.3-5.3v-9.9L182.5,142.2z"/>
			<polygon class="st5" points="201.2,132.1 201.2,152.7 182.5,162.8 182.5,142.2 			"/>
			<path class="st5" d="M217.5,132.4v11.5l-16.3,8.8v-20.6l9.3-5h1.7C215.1,127.1,217.5,129.4,217.5,132.4z"/>
			<polyline class="st6" points="165.2,151.5 182.5,142.2 201.2,132.1 210.4,127.1 			"/>
			<polyline class="st6" points="175.2,166.7 182.5,162.8 201.2,152.7 217.5,143.9 			"/>
		</g>
	</g>
	<g>
		<path class="st4" d="M182,179.6v39.7h-12c-2.9,0-5.3-2.4-5.3-5.3v-29c0-3,2.4-5.3,5.3-5.3H182z"/>
		<rect x="182" y="179.6" class="st4" width="18.7" height="39.7"/>
		<path class="st4" d="M217,184.9v29c0,3-2.4,5.3-5.3,5.3h-11v-39.7h11C214.6,179.6,217,182,217,184.9z"/>
		<g>
			<path class="st5" d="M182.5,194.7v20.6l-7.3,3.9h-4.7c-2.9,0-5.3-2.4-5.3-5.3v-9.9L182.5,194.7z"/>
			<polygon class="st5" points="201.2,184.6 201.2,205.2 182.5,215.3 182.5,194.7 			"/>
			<path class="st5" d="M217.5,184.9v11.5l-16.3,8.8v-20.6l9.3-5h1.7C215.1,179.6,217.5,182,217.5,184.9z"/>
			<polyline class="st6" points="165.2,204.1 182.5,194.7 201.2,184.6 210.4,179.6 			"/>
			<polyline class="st6" points="175.2,219.3 182.5,215.3 201.2,205.2 217.5,196.4 			"/>
		</g>
	</g>
	<g>
		<path class="st4" d="M245.8,127.1v39.7h-12c-2.9,0-5.3-2.4-5.3-5.3v-29c0-3,2.4-5.3,5.3-5.3H245.8z"/>
		<rect x="245.8" y="127.1" class="st4" width="18.7" height="39.7"/>
		<path class="st4" d="M280.8,132.4v29c0,3-2.4,5.3-5.3,5.3h-11v-39.7h11C278.5,127.1,280.8,129.4,280.8,132.4z"/>
		<g>
			<path class="st5" d="M246.3,142.2v20.6l-7.3,3.9h-4.7c-2.9,0-5.3-2.4-5.3-5.3v-9.9L246.3,142.2z"/>
			<polygon class="st5" points="265,132.1 265,152.7 246.3,162.8 246.3,142.2 			"/>
			<path class="st5" d="M281.3,132.4v11.5l-16.3,8.8v-20.6l9.3-5h1.7C279,127.1,281.3,129.4,281.3,132.4z"/>
			<polyline class="st6" points="229,151.5 246.3,142.2 265,132.1 274.3,127.1 			"/>
			<polyline class="st6" points="239,166.7 246.3,162.8 265,152.7 281.3,143.9 			"/>
		</g>
	</g>
	<g>
		<path class="st4" d="M309.7,127.1v39.7h-12c-2.9,0-5.3-2.4-5.3-5.3v-29c0-3,2.4-5.3,5.3-5.3H309.7z"/>
		<rect x="309.7" y="127.1" class="st4" width="18.7" height="39.7"/>
		<path class="st4" d="M344.7,132.4v29c0,3-2.4,5.3-5.3,5.3h-11v-39.7h11C342.3,127.1,344.7,129.4,344.7,132.4z"/>
		<g>
			<path class="st5" d="M310.2,142.2v20.6l-7.3,3.9h-4.7c-2.9,0-5.3-2.4-5.3-5.3v-9.9L310.2,142.2z"/>
			<polygon class="st5" points="328.8,132.1 328.8,152.7 310.2,162.8 310.2,142.2 			"/>
			<path class="st5" d="M345.2,132.4v11.5l-16.3,8.8v-20.6l9.3-5h1.7C342.8,127.1,345.2,129.4,345.2,132.4z"/>
			<polyline class="st6" points="292.8,151.5 310.2,142.2 328.8,132.1 338.1,127.1 			"/>
			<polyline class="st6" points="302.9,166.7 310.2,162.8 328.8,152.7 345.2,143.9 			"/>
		</g>
	</g>
	<g>
		<path class="st4" d="M309.7,179.6v39.7h-12c-2.9,0-5.3-2.4-5.3-5.3v-29c0-3,2.4-5.3,5.3-5.3H309.7z"/>
		<rect x="309.7" y="179.6" class="st4" width="18.7" height="39.7"/>
		<path class="st4" d="M344.7,184.9v29c0,3-2.4,5.3-5.3,5.3h-11v-39.7h11C342.3,179.6,344.7,182,344.7,184.9z"/>
		<g>
			<path class="st5" d="M310.2,194.7v20.6l-7.3,3.9h-4.7c-2.9,0-5.3-2.4-5.3-5.3v-9.9L310.2,194.7z"/>
			<polygon class="st5" points="328.8,184.6 328.8,205.2 310.2,215.3 310.2,194.7 			"/>
			<path class="st5" d="M345.2,184.9v11.5l-16.3,8.8v-20.6l9.3-5h1.7C342.8,179.6,345.2,182,345.2,184.9z"/>
			<polyline class="st6" points="292.8,204.1 310.2,194.7 328.8,184.6 338.1,179.6 			"/>
			<polyline class="st6" points="302.9,219.3 310.2,215.3 328.8,205.2 345.2,196.4 			"/>
		</g>
	</g>
	<rect x="145.7" y="228.5" class="st7" width="214.7" height="8.5"/>
	<rect x="145.7" y="237" class="st4" width="164" height="50.9"/>
	<rect x="309.7" y="237" class="st4" width="50.7" height="50.9"/>
	<circle class="st8" cx="252.3" cy="202.2" r="18.4"/>
	<polygon class="st9" points="265.7,199.1 256,199.1 256,189.5 248.6,189.5 248.6,199.1 239,199.1 239,206.5 248.6,206.5 
		248.6,216.2 256,216.2 256,206.5 265.7,206.5 	"/>
	<line class="st10" x1="200.7" y1="237" x2="200.7" y2="287.9"/>
	<g>
		<rect x="11" y="125.7" class="st3" width="134" height="10.3"/>
		<rect x="11" y="136" class="st2" width="134" height="151"/>
		<g>
			<path class="st4" d="M36.7,145.1v39.7h-12c-2.9,0-5.3-2.4-5.3-5.3v-29c0-3,2.4-5.3,5.3-5.3H36.7z"/>
			<rect x="36.7" y="145.1" class="st4" width="18.7" height="39.7"/>
			<path class="st4" d="M71.7,150.4v29c0,3-2.4,5.3-5.3,5.3h-11v-39.7h11C69.3,145.1,71.7,147.4,71.7,150.4z"/>
			<g>
				<path class="st5" d="M37.2,160.2v20.6l-7.3,3.9h-4.7c-2.9,0-5.3-2.4-5.3-5.3v-9.9L37.2,160.2z"/>
				<polygon class="st5" points="55.8,150.1 55.8,170.7 37.2,180.8 37.2,160.2 				"/>
				<path class="st5" d="M72.2,150.4v11.5l-16.3,8.8v-20.6l9.3-5h1.7C69.8,145.1,72.2,147.4,72.2,150.4z"/>
				<polyline class="st6" points="19.8,169.5 37.2,160.2 55.8,150.1 65.1,145.1 				"/>
				<polyline class="st6" points="29.9,184.7 37.2,180.8 55.8,170.7 72.2,161.9 				"/>
			</g>
		</g>
		<g>
			<path class="st4" d="M36,192.4v39.7H24c-2.9,0-5.3-2.4-5.3-5.3v-29c0-3,2.4-5.3,5.3-5.3H36z"/>
			<rect x="36" y="192.4" class="st4" width="18.7" height="39.7"/>
			<path class="st4" d="M71,197.7v29c0,3-2.4,5.3-5.3,5.3h-11v-39.7h11C68.6,192.4,71,194.8,71,197.7z"/>
			<g>
				<path class="st5" d="M36.5,207.5v20.6l-7.3,3.9h-4.7c-2.9,0-5.3-2.4-5.3-5.3v-9.9L36.5,207.5z"/>
				<polygon class="st5" points="55.2,197.4 55.2,218 36.5,228.1 36.5,207.5 				"/>
				<path class="st5" d="M71.5,197.7v11.5L55.2,218v-20.6l9.3-5h1.7C69.1,192.4,71.5,194.8,71.5,197.7z"/>
				<polyline class="st6" points="19.2,216.9 36.5,207.5 55.2,197.4 64.4,192.4 				"/>
				<polyline class="st6" points="29.2,232.1 36.5,228.1 55.2,218 71.5,209.2 				"/>
			</g>
		</g>
		<g>
			<path class="st4" d="M36,242.7v39.7H24c-2.9,0-5.3-2.4-5.3-5.3v-29c0-3,2.4-5.3,5.3-5.3H36z"/>
			<rect x="36" y="242.7" class="st4" width="18.7" height="39.7"/>
			<path class="st4" d="M71,248.1v29c0,3-2.4,5.3-5.3,5.3h-11v-39.7h11C68.6,242.7,71,245.1,71,248.1z"/>
			<g>
				<path class="st5" d="M36.5,257.8v20.6l-7.3,3.9h-4.7c-2.9,0-5.3-2.4-5.3-5.3v-9.9L36.5,257.8z"/>
				<polygon class="st5" points="55.2,247.7 55.2,268.4 36.5,278.5 36.5,257.8 				"/>
				<path class="st5" d="M71.5,248.1v11.5l-16.3,8.8v-20.6l9.3-5h1.7C69.1,242.7,71.5,245.1,71.5,248.1z"/>
				<polyline class="st6" points="19.2,267.2 36.5,257.8 55.2,247.7 64.5,242.7 				"/>
				<polyline class="st6" points="29.2,282.4 36.5,278.5 55.2,268.4 71.5,259.5 				"/>
			</g>
		</g>
		<g>
			<path class="st4" d="M99.8,145.1v39.7h-12c-2.9,0-5.3-2.4-5.3-5.3v-29c0-3,2.4-5.3,5.3-5.3H99.8z"/>
			<rect x="99.8" y="145.1" class="st4" width="18.7" height="39.7"/>
			<path class="st4" d="M134.8,150.4v29c0,3-2.4,5.3-5.3,5.3h-11v-39.7h11C132.4,145.1,134.8,147.4,134.8,150.4z"/>
			<g>
				<path class="st5" d="M100.3,160.2v20.6l-7.3,3.9h-4.7c-2.9,0-5.3-2.4-5.3-5.3v-9.9L100.3,160.2z"/>
				<polygon class="st5" points="119,150.1 119,170.7 100.3,180.8 100.3,160.2 				"/>
				<path class="st5" d="M135.3,150.4v11.5l-16.3,8.8v-20.6l9.3-5h1.7C132.9,145.1,135.3,147.4,135.3,150.4z"/>
				<polyline class="st6" points="83,169.5 100.3,160.2 119,150.1 128.2,145.1 				"/>
				<polyline class="st6" points="93,184.7 100.3,180.8 119,170.7 135.3,161.9 				"/>
			</g>
		</g>
		<g>
			<path class="st4" d="M99.2,192.4v39.7h-12c-2.9,0-5.3-2.4-5.3-5.3v-29c0-3,2.4-5.3,5.3-5.3H99.2z"/>
			<rect x="99.2" y="192.4" class="st4" width="18.7" height="39.7"/>
			<path class="st4" d="M134.2,197.7v29c0,3-2.4,5.3-5.3,5.3h-11v-39.7h11C131.8,192.4,134.2,194.8,134.2,197.7z"/>
			<g>
				<path class="st5" d="M99.7,207.5v20.6l-7.3,3.9h-4.7c-2.9,0-5.3-2.4-5.3-5.3v-9.9L99.7,207.5z"/>
				<polygon class="st5" points="118.3,197.4 118.3,218 99.7,228.1 99.7,207.5 				"/>
				<path class="st5" d="M134.7,197.7v11.5l-16.3,8.8v-20.6l9.3-5h1.7C132.3,192.4,134.7,194.8,134.7,197.7z"/>
				<polyline class="st6" points="82.3,216.9 99.7,207.5 118.3,197.4 127.6,192.4 				"/>
				<polyline class="st6" points="92.3,232.1 99.7,228.1 118.3,218 134.6,209.2 				"/>
			</g>
		</g>
		<g>
			<path class="st4" d="M99.2,242.7v39.7h-12c-2.9,0-5.3-2.4-5.3-5.3v-29c0-3,2.4-5.3,5.3-5.3H99.2z"/>
			<rect x="99.2" y="242.7" class="st4" width="18.7" height="39.7"/>
			<path class="st4" d="M134.2,248.1v29c0,3-2.4,5.3-5.3,5.3h-11v-39.7h11C131.8,242.7,134.2,245.1,134.2,248.1z"/>
			<g>
				<path class="st5" d="M99.7,257.8v20.6l-7.3,3.9h-4.7c-2.9,0-5.3-2.4-5.3-5.3v-9.9L99.7,257.8z"/>
				<polygon class="st5" points="118.3,247.7 118.3,268.4 99.7,278.5 99.7,257.8 				"/>
				<path class="st5" d="M134.7,248.1v11.5l-16.3,8.8v-20.6l9.3-5h1.7C132.3,242.7,134.7,245.1,134.7,248.1z"/>
				<polyline class="st6" points="82.3,267.2 99.7,257.8 118.3,247.7 127.6,242.7 				"/>
				<polyline class="st6" points="92.4,282.4 99.7,278.5 118.3,268.4 134.7,259.5 				"/>
			</g>
		</g>
	</g>
	<g>
		<rect x="360.3" y="125.5" class="st3" width="134" height="10.3"/>
		<rect x="360.3" y="135.9" class="st2" width="134" height="151"/>
		<g>
			<path class="st4" d="M386,144.9v39.7h-12c-2.9,0-5.3-2.4-5.3-5.3v-29c0-3,2.4-5.3,5.3-5.3H386z"/>
			<rect x="386" y="144.9" class="st4" width="18.7" height="39.7"/>
			<path class="st4" d="M421,150.3v29c0,3-2.4,5.3-5.3,5.3h-11v-39.7h11C418.6,144.9,421,147.3,421,150.3z"/>
			<g>
				<path class="st5" d="M386.5,160v20.6l-7.3,3.9h-4.7c-2.9,0-5.3-2.4-5.3-5.3v-9.9L386.5,160z"/>
				<polygon class="st5" points="405.2,149.9 405.2,170.6 386.5,180.7 386.5,160 				"/>
				<path class="st5" d="M421.5,150.3v11.5l-16.3,8.8v-20.6l9.3-5h1.7C419.1,144.9,421.5,147.3,421.5,150.3z"/>
				<polyline class="st6" points="369.2,169.4 386.5,160 405.2,149.9 414.4,144.9 				"/>
				<polyline class="st6" points="379.2,184.6 386.5,180.7 405.2,170.6 421.5,161.7 				"/>
			</g>
		</g>
		<g>
			<path class="st4" d="M385.4,192.3v39.7h-12c-2.9,0-5.3-2.4-5.3-5.3v-29c0-3,2.4-5.3,5.3-5.3H385.4z"/>
			<rect x="385.4" y="192.3" class="st4" width="18.7" height="39.7"/>
			<path class="st4" d="M420.4,197.6v29c0,3-2.4,5.3-5.3,5.3h-11v-39.7h11C418,192.3,420.4,194.7,420.4,197.6z"/>
			<g>
				<path class="st5" d="M385.9,207.4V228l-7.3,3.9h-4.7c-2.9,0-5.3-2.4-5.3-5.3v-9.9L385.9,207.4z"/>
				<polygon class="st5" points="404.5,197.3 404.5,217.9 385.9,228 385.9,207.4 				"/>
				<path class="st5" d="M420.9,197.6v11.5l-16.3,8.8v-20.6l9.3-5h1.7C418.5,192.3,420.9,194.7,420.9,197.6z"/>
				<polyline class="st6" points="368.5,216.7 385.9,207.4 404.5,197.3 413.8,192.3 				"/>
				<polyline class="st6" points="378.6,231.9 385.9,228 404.5,217.9 420.9,209.1 				"/>
			</g>
		</g>
		<g>
			<path class="st4" d="M385.4,242.6v39.7h-12c-2.9,0-5.3-2.4-5.3-5.3v-29c0-3,2.4-5.3,5.3-5.3H385.4z"/>
			<rect x="385.4" y="242.6" class="st4" width="18.7" height="39.7"/>
			<path class="st4" d="M420.4,247.9v29c0,3-2.4,5.3-5.3,5.3h-11v-39.7h11C418,242.6,420.4,245,420.4,247.9z"/>
			<g>
				<path class="st5" d="M385.9,257.7v20.6l-7.3,3.9h-4.7c-2.9,0-5.3-2.4-5.3-5.3v-9.9L385.9,257.7z"/>
				<polygon class="st5" points="404.5,247.6 404.5,268.2 385.9,278.3 385.9,257.7 				"/>
				<path class="st5" d="M420.9,247.9v11.5l-16.3,8.8v-20.6l9.3-5h1.7C418.5,242.6,420.9,245,420.9,247.9z"/>
				<polyline class="st6" points="368.5,267.1 385.9,257.7 404.5,247.6 413.8,242.6 				"/>
				<polyline class="st6" points="378.6,282.3 385.9,278.3 404.5,268.2 420.9,259.4 				"/>
			</g>
		</g>
		<g>
			<path class="st4" d="M449.2,144.9v39.7h-12c-2.9,0-5.3-2.4-5.3-5.3v-29c0-3,2.4-5.3,5.3-5.3H449.2z"/>
			<rect x="449.2" y="144.9" class="st4" width="18.7" height="39.7"/>
			<path class="st4" d="M484.2,150.3v29c0,3-2.4,5.3-5.3,5.3h-11v-39.7h11C481.8,144.9,484.2,147.3,484.2,150.3z"/>
			<g>
				<path class="st5" d="M449.7,160v20.6l-7.3,3.9h-4.7c-2.9,0-5.3-2.4-5.3-5.3v-9.9L449.7,160z"/>
				<polygon class="st5" points="468.3,149.9 468.3,170.6 449.7,180.7 449.7,160 				"/>
				<path class="st5" d="M484.7,150.3v11.5l-16.3,8.8v-20.6l9.3-5h1.7C482.3,144.9,484.7,147.3,484.7,150.3z"/>
				<polyline class="st6" points="432.3,169.4 449.6,160 468.3,149.9 477.6,144.9 				"/>
				<polyline class="st6" points="442.4,184.6 449.6,180.7 468.3,170.6 484.6,161.7 				"/>
			</g>
		</g>
		<g>
			<path class="st4" d="M448.5,192.3v39.7h-12c-2.9,0-5.3-2.4-5.3-5.3v-29c0-3,2.4-5.3,5.3-5.3H448.5z"/>
			<rect x="448.5" y="192.3" class="st4" width="18.7" height="39.7"/>
			<path class="st4" d="M483.5,197.6v29c0,3-2.4,5.3-5.3,5.3h-11v-39.7h11C481.1,192.3,483.5,194.7,483.5,197.6z"/>
			<g>
				<path class="st5" d="M449,207.4V228l-7.3,3.9H437c-2.9,0-5.3-2.4-5.3-5.3v-9.9L449,207.4z"/>
				<polygon class="st5" points="467.7,197.3 467.7,217.9 449,228 449,207.4 				"/>
				<path class="st5" d="M484,197.6v11.5l-16.3,8.8v-20.6l9.3-5h1.7C481.6,192.3,484,194.7,484,197.6z"/>
				<polyline class="st6" points="431.7,216.7 449,207.4 467.7,197.3 476.9,192.3 				"/>
				<polyline class="st6" points="441.7,231.9 449,228 467.7,217.9 484,209.1 				"/>
			</g>
		</g>
		<g>
			<path class="st4" d="M448.5,242.6v39.7h-12c-2.9,0-5.3-2.4-5.3-5.3v-29c0-3,2.4-5.3,5.3-5.3H448.5z"/>
			<rect x="448.5" y="242.6" class="st4" width="18.7" height="39.7"/>
			<path class="st4" d="M483.5,247.9v29c0,3-2.4,5.3-5.3,5.3h-11v-39.7h11C481.1,242.6,483.5,245,483.5,247.9z"/>
			<g>
				<path class="st5" d="M449,257.7v20.6l-7.3,3.9H437c-2.9,0-5.3-2.4-5.3-5.3v-9.9L449,257.7z"/>
				<polygon class="st5" points="467.7,247.6 467.7,268.2 449,278.3 449,257.7 				"/>
				<path class="st5" d="M484,247.9v11.5l-16.3,8.8v-20.6l9.3-5h1.7C481.6,242.6,484,245,484,247.9z"/>
				<polyline class="st6" points="431.7,267.1 449,257.7 467.7,247.6 476.9,242.6 				"/>
				<polyline class="st6" points="441.7,282.3 449,278.3 467.7,268.2 484,259.4 				"/>
			</g>
		</g>
	</g>
	<g>
		<polygon class="st11" points="70.3,368.2 217.7,396.3 219,370.6 135.7,350.7 78,348.7 70.3,362 		"/>
		<ellipse class="st12" cx="332.8" cy="388.3" rx="15.5" ry="17.7"/>
		<g>
			<path class="st13" d="M356.4,370L356.4,370c-0.4,4-2.2,8-3.8,10.9c-1,1.9-2.6,3.4-4.5,4.4c-0.6,0.3-1.2,0.6-1.9,0.8
				c-0.6,0.2-1.2,0.4-1.9,0.6c-2,0.6-4.5,1.5-7.5,2.7c-0.1,0-0.1,0.1-0.2,0.1c-3.7,1.5-8.3,3.4-13.6,5.9c-1.2,0.6-2.5,1.1-3.7,1.6
				c-16.8,6.8-31.3,5-31.3,5l-21.7-3.7h0l-0.3,0l-9.1-1.5l-26.9-4.6l-8.2-1.4L218,390l-5.2-0.9l-5.2-0.9L73.7,365.4l-3.4-0.6
				l-2.5-0.4l-21.1-3.6l-1.8-0.3l-0.3,0c0,0,0,0-0.1,0c-1.3-0.2-2.5-0.6-3.6-1.2c-1.3-0.6-2.4-1.5-3.3-2.4c-2.5-2.5-4-6-3.8-9.7
				c0-0.3,0-0.6,0-0.9l4.6-46.5l0.1-1.4l3.4-34.3c0.6-6.3,5.5-11.4,11.8-12.2l137-18.9l62.7,15c6.5-0.3,11.9,9.8,14.2,14.9
				c0,0.1,0.1,0.1,0.1,0.2c0.7,1.6,1.1,2.6,1.1,2.6l4.3,4.1l38.3,36.7l3.4,3.2l0.6,0.5l28.3,27.1l1.3,1.3c2.6,2.5,4,6.1,3.8,9.7
				c0,0.3,0,0.6,0,1c0.1,3.4,1.1,7.6,5,11.5c1.2,1.2,2,2.7,2.4,4.2v0C356.5,366.7,356.5,368.3,356.4,370z"/>
		</g>
		<path class="st14" d="M252.1,374.1c0,0-10-21.7-29.2-10.2c-7.5,4.5-12.7,12.2-14.6,20.8c-1.6,7.2-2.7,16.7,0,23.9l9.3-6.5
			L252.1,374.1z"/>
		<path class="st14" d="M45,357.7l-0.4,2.7l-0.9,5.9l-0.7,4.3c0,0,0.2,2.9-2.2,4.3c-0.9,0.5-2.1,0.9-3.8,0.8
			c-3.1-0.2-2.5-6.1-1.2-12.2c0.5-2.3,1.2-4.7,1.8-6.7c1.1-3.5,2-6.1,2-6.1l3.1,4.1L45,357.7z"/>
		<path class="st15" d="M45.9,348.7l-1.1,1.8l-0.7,10l-0.5,6.2l3.5-6.3l-3.5-1.3l2.4-0.5c0.5-2.3-6.9-0.9-8.8-1.7
			c-2.3-2.5-3.3-6-3.2-9.7C40.2,347.6,45.9,348.7,45.9,348.7z"/>
		<circle class="st16" cx="238.7" cy="397.9" r="27.3"/>
		<circle class="st17" cx="238.7" cy="397.9" r="18.3"/>
		
			<ellipse transform="matrix(0.9981 -6.186553e-02 6.186553e-02 0.9981 -22.6674 4.2261)" class="st16" cx="56.9" cy="368.2" rx="17" ry="22.8"/>
		
			<ellipse transform="matrix(0.9981 -6.186553e-02 6.186553e-02 0.9981 -22.6674 4.2261)" class="st18" cx="56.9" cy="368.2" rx="11.4" ry="15.3"/>
		<path class="st19" d="M145.7,309.8l-34.9,0.8c-4.5,0.1-8.1-3.4-7.4-7.3l3.3-20.4c0.5-3,3.3-5.4,6.8-5.6l34.9-2.5
			c4.7-0.3,8.4,3.2,7.8,7.2l-3.3,22.1C152.5,307.3,149.4,309.7,145.7,309.8z"/>
		<path class="st20" d="M58.3,270.9l-9,1.2c-1.2,0.2-2.2-1-2.3-2.4l-0.1-7.4c0-1.1,0.6-2,1.5-2.2l8.9-1.8c1.2-0.2,2.3,0.9,2.4,2.4
			l0.2,8C59.9,269.8,59.2,270.8,58.3,270.9z"/>
		<path class="st15" d="M76.4,268.7l-9,1.2c-1.2,0.2-2.2-1-2.3-2.4l-0.1-7.4c0-1.1,0.6-2,1.5-2.2l8.9-1.8c1.2-0.2,2.3,0.9,2.4,2.4
			l0.2,8C78,267.6,77.4,268.6,76.4,268.7z"/>
		<path class="st20" d="M135.7,262.2l-9,1.2c-1.2,0.2-2.2-1-2.3-2.4l-0.1-7.4c0-1.1,0.6-2,1.5-2.2l8.9-1.8c1.2-0.2,2.3,0.9,2.4,2.4
			l0.2,8C137.3,261.1,136.7,262,135.7,262.2z"/>
		<path class="st15" d="M153.8,259.9l-9,1.2c-1.2,0.2-2.2-1-2.3-2.4l-0.1-7.4c0-1.1,0.6-2,1.5-2.2l8.9-1.8c1.2-0.2,2.3,0.9,2.4,2.4
			l0.2,8C155.4,258.9,154.8,259.8,153.8,259.9z"/>
		<path class="st4" d="M220.8,312.5l-46.5-2.3c-2.1-0.1-3.7-1.5-3.6-3.2l1.6-31.3c0.1-1.7,1.8-2.9,3.9-2.8l25.3,1.3
			c1.4,0.1,2.6,0.7,3.2,1.7l19.7,32.4C225.6,310.3,223.6,312.7,220.8,312.5z"/>
		<path class="st21" d="M315.2,310.3c-17.9,2.3-44.1,5.6-56.2,7.3c-19.3,2.6-33.6-18.2-45-42.9c-6-13.1,28.1-13.3,53.5-11.8
			c0,0.1,0.1,0.1,0.1,0.2c0.7,1.6,1.1,2.6,1.1,2.6l4.3,4.1l38.3,36.7l3.4,3.2L315.2,310.3z"/>
		<path class="st22" d="M311.3,306.5c-14.7,1.4-30.3,2.9-38.8,3.7c-19.2,1.9-33.6-13.4-45-31.5c-5.4-8.6,21.6-9.7,45.5-9
			L311.3,306.5z"/>
		<path class="st23" d="M55,298.3l8,33.3l212,14.4c0,0-3.6-7.2-10-9.5C258,334,69,323,69,323l-9.3-24.7H55z"/>
		<polygon class="st24" points="50.2,331.8 46.3,331.8 40.2,298.3 43.7,298.3 		"/>
		<polygon class="st24" points="55.8,331.8 51.7,331.8 44.7,298.3 48.8,298.3 		"/>
		<polygon class="st24" points="61.8,331.8 57.2,331.8 49.8,298.3 54.2,298.3 		"/>
		<path class="st25" d="M278.6,352.5l3,22c0,0,29.1,1.2,41.5-3.9c0,0-4.1-21.5-14.3-21.3C298.7,349.6,278.6,352.5,278.6,352.5z"/>
		<path class="st25" d="M251.2,339l-5.5-0.2c-1.3,0-2.1-1.5-1.4-2.7l2.9-4.7l2.9-4.7c0.7-1.1,2.4-1.1,3,0.1l2.6,4.8l2.6,4.8
			c0.6,1.2-0.2,2.6-1.6,2.6L251.2,339z"/>
		<path class="st26" d="M326.9,354.2c-1.3,0.4-2.2,1.7-2.2,3.1c0.2,3.4,0.6,9.3,1.8,9.9c1.3,0.7,13.7-2.3,19.2-3.8
			c1.5-0.4,2.5-1.8,2.3-3.4c-0.5-3.6-1.3-9.6-1.7-10.6C345.8,348.4,332.3,352.5,326.9,354.2z"/>
		<path class="st27" d="M254,374.6c0,0,14.5,10.7,12.3,23.7c0,0,31.9,5.1,40.2,1.8c9.2-3.6,34.3-13.5,40.8-14.1s10.8-16.4,8.8-20.8
			s-4-5.4-4-5.4s3.8,11.3-13.4,12.6c0,0-15.1,2.1-16.5-3.8C322.3,368.6,263.5,379.3,254,374.6z"/>
		<path class="st20" d="M348.7,348.5c0,0.3,0,0.6,0,1c-4.7,1.9-18.2,6.9-27.3,6.4c-1.9-0.1-3.7-0.8-5.1-2.2
			c-1.6-1.6-5.1-3.8-11.2-2.5c-0.3,0.1-0.6,0.1-0.9,0.2c-2.9,0.3-17.9,1.6-25.2,1.8c-0.8-1.9-1.9-3.8-3.4-5.7
			c8.3-0.1,56.5-1.2,68-10l1.3,1.3C347.5,341.3,348.8,344.8,348.7,348.5z"/>
		<polygon class="st9" points="301.2,316.5 302.7,316 306.1,314.9 313.6,320.8 317.1,319.5 322.4,324.9 319.5,325.9 328.1,334.5 
			323.2,337.2 315.3,328.7 311.1,331 303.8,324.1 308.8,322.4 		"/>
		<polygon class="st15" points="72.3,353.2 74.2,357 207.7,375.2 209.3,370.7 		"/>
		<path class="st15" d="M252.7,247.1l-1.2,1.4l-24.7-1.7l-12.7-0.9l-23.1-1.6l-1.2-4.9c-0.5-2-0.2-4,0.9-5.7l1-1.5
			c0.9-1.3,2.2-2.3,3.8-2.6l8.8-1.8c0.8-0.2,1.7-0.2,2.5,0l41.6,7c2,0.3,3.7,1.6,4.7,3.3l0.6,1.2C255.1,241.8,254.7,245,252.7,247.1
			z"/>
		<path class="st20" d="M223.9,258.4h-2.2c-2.2,0-4.1-1.4-4.8-3.5l-2.8-9l12.7,0.9l1.8,4.9C229.8,254.9,227.3,258.4,223.9,258.4z"/>
		<path class="st23" d="M243.8,259.7h-2.2c-2.2,0-4.1-1.4-4.8-3.5l-2.8-9l12.7,0.9l1.8,4.9C249.7,256.3,247.3,259.7,243.8,259.7z"/>
		<path class="st23" d="M257.5,249.6c0,0,4.7,5.8,6.7,8.9c-0.7,0.8-1.2,0.8-2.4,0.8H260c-1.8,0-3.4-1.2-3.9-2.9l-2.3-7.1
			L257.5,249.6"/>
	</g>
	<circle class="st28" cx="421.5" cy="59.5" r="51"/>
	<polygon class="st9" points="462.9,48 433,48 433,18.1 410.1,18.1 410.1,48 380.1,48 380.1,70.9 410.1,70.9 410.1,100.9 433,100.9 
		433,70.9 462.9,70.9 	"/>
</g>
</svg>
