<?xml version="1.0" encoding="utf-8"?>
<!-- Generator: Adobe Illustrator 22.1.0, SVG Export Plug-In . SVG Version: 6.00 Build 0)  -->
<svg version="1.1" id="Слой_7" xmlns="http://www.w3.org/2000/svg" xmlns:xlink="http://www.w3.org/1999/xlink" x="0px" y="0px"
	 viewBox="0 0 512 512" style="enable-background:new 0 0 512 512;" xml:space="preserve">
<style type="text/css">
	.st0{fill:#B9D3E5;stroke:#000000;stroke-width:3;stroke-linecap:round;stroke-linejoin:round;stroke-miterlimit:10;}
	.st1{fill:#472B25;stroke:#000000;stroke-width:3;stroke-linecap:round;stroke-linejoin:round;stroke-miterlimit:10;}
	.st2{fill:#FDCD95;stroke:#000000;stroke-width:3;stroke-linecap:round;stroke-linejoin:round;stroke-miterlimit:10;}
	.st3{fill:#EDEDED;stroke:#000000;stroke-width:3;stroke-linecap:round;stroke-linejoin:round;stroke-miterlimit:10;}
	.st4{fill:none;stroke:#000000;stroke-width:3;stroke-linecap:round;stroke-linejoin:round;stroke-miterlimit:10;}
	.st5{fill:#FFFFFF;}
	.st6{fill:#FFFFFF;stroke:#000000;stroke-width:3;stroke-linecap:round;stroke-linejoin:round;stroke-miterlimit:10;}
	.st7{fill:none;stroke:#000000;stroke-width:8;stroke-linecap:round;stroke-linejoin:round;stroke-miterlimit:10;}
	.st8{fill:none;stroke:#000000;stroke-width:2;stroke-linecap:round;stroke-linejoin:round;stroke-miterlimit:10;}
	.st9{fill:#878787;stroke:#000000;stroke-width:3;stroke-miterlimit:10;}
	.st10{fill:#EDEDED;stroke:#000000;stroke-width:1.7732;stroke-linecap:round;stroke-linejoin:round;stroke-miterlimit:10;}
	.st11{fill:#575756;stroke:#000000;stroke-width:0.4845;stroke-linecap:round;stroke-linejoin:round;stroke-miterlimit:10;}
	.st12{fill:#857154;}
	.st13{fill:#FDCD95;}
	.st14{fill:none;stroke:#1D1D1B;stroke-width:3;stroke-linecap:round;stroke-linejoin:round;stroke-miterlimit:10;}
	.st15{fill:#F6F6F6;}
	.st16{fill:#B5D758;stroke:#000000;stroke-width:3;stroke-linecap:round;stroke-linejoin:round;stroke-miterlimit:10;}
	.st17{fill:none;stroke:#000000;stroke-width:3;stroke-miterlimit:10;}
	.st18{fill:#4D7450;}
</style>
<g>
	<path class="st0" d="M332.5,222.9c0,0-68.5,6-73.5,37.6s6.7,185.1,13.9,220.5c7.1,35.5,16.1,62.3,16.1,62.3l128.5-10.7l47.5-2.1
		c0,0-3.5-170.6-2.5-171.3c1-0.7,18-50.2,18-78.7s-0.5-49.6-54-55.8S332.5,222.9,332.5,222.9z"/>
	<ellipse class="st1" cx="370.3" cy="109.1" rx="76.3" ry="90.1"/>
	<ellipse class="st2" cx="424.6" cy="114" rx="8.2" ry="14.2"/>
	<ellipse transform="matrix(0.9875 -0.1575 0.1575 0.9875 -15.4 52.0348)" class="st2" cx="320.6" cy="123.2" rx="8.2" ry="14.2"/>
	<path class="st3" d="M343.5,205.2c0,0-27.5,7.8-37.5,52.3l25,9l-6.3,10.8c0,0,39.4,6.7,45.6,62.2c6.2,55.5,5.1,181.6,5.1,181.6H389
		c0,0-18.5-213.9,10-229c28.5-15.1,28.5-15.1,28.5-15.1l-13-13h32c0,0-11.2-53.7-34.8-63.3C388,191,343.5,205.2,343.5,205.2z"/>
	<path class="st2" d="M345.5,167.7l2.9,57l17.6,45.6l14.3,7c0,0,17-18,17-19.8c0-1.9,7-34.4,6.7-34.6c-0.3-0.2-2-22.2-2-22.2l-3-38
		l-24.2,7.7h-23.4L345.5,167.7z"/>
	<path class="st2" d="M370.3,187.5c-28.3,0-51.3-30.2-51.3-67.5c0-4.5,0.3-8.9,1-13.1c14.3-5.8,52.7-22.2,63-33.9
		c6.7-7.6,13.5-25.5,13.5-25.5s2,9.1,5.7,19.7c0,0,0,0,0,0c3.7,10.8,9.2,23.2,16.1,29.3v0c2.1,7.3,3.2,15.2,3.2,23.5
		C421.6,157.3,398.6,187.5,370.3,187.5z"/>
	<path class="st4" d="M353,148.7c0,0,20,28,39.7,0"/>
	<path class="st4" d="M363.7,130.3c0,0,8.7-2.3,13.3,0"/>
	<path class="st4" d="M379.3,98.3c0,0,21.9-4.9,28,4.5"/>
	<path class="st4" d="M335.8,101.7c0,0,14.7-9.2,26.5-1.8"/>
	<ellipse cx="350.9" cy="116.3" rx="5.4" ry="9.7"/>
	<circle class="st5" cx="348.4" cy="119.3" r="2.9"/>
	<path class="st4" d="M340,110.8c0,0,10-7,20.3-1.3"/>
	<ellipse cx="390.2" cy="116.3" rx="5.4" ry="9.7"/>
	<circle class="st5" cx="387.8" cy="119.3" r="2.9"/>
	<path class="st4" d="M379.3,110.8c0,0,10-7,20.3-1.3"/>
	<path class="st6" d="M339.7,200.7c0,0-7.3,68.2,36.7,96.8c0,0,34.2-21.5,37.5-95.7l-8.2-2.6c0,0-5.8,16.9-22.7,25
		c0,0-2.2,40.2-6.8,45.5c0,0-8.6-30.9-8.5-43.3c0,0-17.5-7.2-22.2-25.2L339.7,200.7z"/>
	<path class="st4" d="M367.7,226.3c0,0-22,13.8-19.3,32"/>
	<path class="st4" d="M383,224.2c0,0,18.7,17.6,20.5,31"/>
	<line class="st4" x1="284.6" y1="347.5" x2="295" y2="515.5"/>
	<path class="st2" d="M344.4,379.4c0,0-20-8.5-20-23c0-19.8-7.7-22.2-12.5-12.8c-1.6,3.2-2.2,6.8-1.8,10.4l1.3,11.2
		c0,0-35.5,0-26.3,12c0,0-10.5,6.8-1.5,10.5c0,0-10.7,7.8,2.3,11.5c0,0-14.8,14.3,25.5,17.3c0,0,22.8,0.3,43.8-11.5l-1.5-22
		l-4.8-4.8L344.4,379.4z"/>
	<path class="st0" d="M471.9,330.3c-0.3,2-0.8,4.2-1.5,6.8c-1.5,5.5-3.6,11.4-6.2,17.8c0,0,0,0,0,0c-0.6,1.4-1.2,2.8-1.8,4.3
		c0,0,0,0,0,0c-2.5,6-6,12.4-9.3,17.9c-5.6,9.4-14.6,16.3-25.1,19.4l-7.3,2.2c-3.8,1.1-7.8,2-11.7,2.7c-18.5,3-73.7,11.7-69.8,10
		c2.3-1,2.4-10.1,1.8-19.1c-0.7-10.6,6.4-20.2,16.7-22.7c22.2-5.5,62.2-14.4,63.9-16.4c0.3-0.4,11.4-15.1,20.3-22.5
		c9.8-8.2,12.2-9.1,20.6-11.5"/>
	<path class="st4" d="M300.4,379.4c0,0-11.8,2.3-15.3-2.3"/>
	<path class="st4" d="M297.6,389.4c0,0-10.7,0.8-14-1.8"/>
	<path class="st4" d="M300.4,399.6c-1.5-0.3-10.8,1-14.5-0.5"/>
	<line class="st4" x1="320.9" y1="363.6" x2="311.4" y2="365.1"/>
	<path class="st7" d="M315.5,277.3c-10.9-14.4-18.8-17.7-24.6-15.7c-11.6,3.9-14.3,29.4-14.3,29.4"/>
	<path class="st7" d="M342.7,197.3c0,0-44.3,8-50.3,63.2"/>
	<path class="st7" d="M404,194c0,0,44.3,6.7,43.7,103.4"/>
	<path class="st8" d="M276.7,291c0,0,12.3,38.9,51.3,25.2"/>
	<path class="st8" d="M315.7,278.3c0,0,11.7,39.1-28.3,49.7"/>
	<circle class="st9" cx="442.1" cy="321.2" r="20.5"/>
	<circle class="st10" cx="445.3" cy="311.5" r="12.1"/>
	<circle class="st11" cx="376.3" cy="277.3" r="3.3"/>
	<circle class="st11" cx="376.4" cy="288.2" r="3.3"/>
	<circle cx="332.3" cy="314" r="5.3"/>
	<circle cx="286.1" cy="327.7" r="5.3"/>
	<path d="M158.1,295.6c0,0,16.7,1.9,26.9,2.7s-3.5,10.5-3.5,10.5s-18.2,11.1-19,11.1s-9.4-7.1-8.5-9.5
		C155.1,307.9,158.1,295.6,158.1,295.6z"/>
	<path d="M114,317.8c-1.6,0.4-30.9-17.8-30.9-17.8s9.5-4.5,30.9-1.9c10,1.2,2.5,16.3,2.5,16.3L114,317.8z"/>
	<path class="st12" d="M161.8,292.1v4.3l11.8,2.8l14.4-2l11.2-6.2l10.6-12.8c0,0,8.6-13.3,8.6-26.5c-0.1-13.2-0.9-22.1-0.9-22.1
		s-3.3-20.9-6.9-25.5c-3.6-4.6-6.6-17-10.7-19.4c-4.2-2.4-7.9-13.4-15.5-16.2l-11.9-7.1l-9.7-3.1l-12.6-0.9l-2.5,1.6l-7.6-2.7
		l-6.5-0.8l-9.8,1.8l-3.7,1.8l-6.1-0.1l-14,4.1l-8.7,5.7l-11.7,12.2l-9,16.5c0,0-3.8,10.3-4.4,12.7c-0.6,2.4-4.1,25.5-3.8,30.5
		c0.3,5,3.4,23.4,5.3,27.8c1.8,4.4,7.7,14.5,8.8,15.9c1.1,1.3,9.4,10.5,16.6,11.8c7.2,1.3,10.2,2.3,14.3,2.4
		c4.1,0.2,7.4-1.6,7.4-1.6l6.7-13.7l22.1-0.7c0,0,10,2.9,10.9,3.1c0.9,0.2,7.3,2.8,7.3,2.8V292.1z"/>
	<path class="st13" d="M163.3,321.5l-10.3,4l-13,1.9c0,0-14.9-0.6-19.1-2.9c-4.2-2.4-6.2-3.7-6.2-3.7l1-28.1c0,0-17-9-22.6-19
		c-5.6-9.9-8.6-18.5-8.6-18.5l-1.9-19l5.2-5.6l4.2-7.6l3.7,2.6l4.1,0.5l6.1-7.6l4.9-10.9l1.9,4.3l4.1,2.6l3.2-2.7l5.3-11l0.2,5.9
		l2.6,2.5l4.5-0.4l4.4-4.5l3.9,2.5l3.5,2.7l4.3,0.5l4.2-3.6l3.9-5.7l1.8,5.5l4,7.7l2.2,3.2h2.4l4.5-3.4l2.4,7.5l2.9,3.6l5.2-0.8
		l1.8,6.4l2.3,3.6l4.5-0.5l2.2-2.9l0.5,13.2l-5,20l-8.9,13.9l-13.9,12.2l-5.4,2.5L163.3,321.5z"/>
	<path class="st2" d="M193.1,230.8c0.7-0.2,1.5-0.3,2.2-0.2c4.5,0.5,7.4,7,6.6,14.4c-0.9,7.4-5.2,13-9.7,12.5
		c-0.4,0-0.7-0.1-1.1-0.2"/>
	<path class="st14" d="M82.5,234.9c0,0.3,0,0.7,0,1.1"/>
	<path class="st4" d="M86.3,260.7c2.9,7.6,7.3,14.5,12.8,20.1c4.5,4.6,9.8,8.5,15.7,11.3c7.1,3.4,15,5.3,23.4,5.3s16.3-1.9,23.4-5.3
		c6-2.9,11.5-6.9,16.1-11.8c6.1-6.4,10.8-14.3,13.5-23.1c1.7-5.5,2.6-11.4,2.6-17.5c0-3.1-0.2-6-0.7-9"/>
	<path class="st4" d="M114.7,292.1L114.7,292.1v5.2v1.7v21.8c21.8,16.2,48.6,0.8,48.6,0.8"/>
	<polyline class="st4" points="163.3,321.5 161.8,296.4 161.5,292.1 161.5,292.1 	"/>
	<path class="st2" d="M86.3,260.7c-0.7,0.5-1.4,0.9-2.2,1.1c-4.4,0.9-9.3-4.2-10.8-11.5c-1.6-7.3,0.7-14,5.1-15
		c1.4-0.3,2.7,0,4.1,0.7c0,1.3,0,2.8,0,3.8C82.5,247.1,83.9,254.2,86.3,260.7z"/>
	<path class="st14" d="M82.6,236.1c0,0-0.1-0.1-0.1-0.1"/>
	<path class="st4" d="M114.7,297.3c-5.1,1.7-10.5,2.2-15.8,1.3c-25.7-4.1-41.5-38.6-35.3-77.1c6.1-37.8,31.1-65.3,56.3-62.3"/>
	<path class="st4" d="M146.2,158.7c26.3-6.8,56.3,17.5,67.7,55c11.6,38.2-0.5,75.8-27.1,83.9c-8.2,2.5-16.8,1.9-25.1-1.2"/>
	<path class="st14" d="M120,159.3c3.8-2.3,8.5-3.7,13.6-3.7c4.7,0,9,1.2,12.6,3.2"/>
	<path class="st4" d="M75.8,201.8c0,0-1.2,54.2,13.6,24.1c0,0,1.6-2.9,3.6-6.5c2.6-4.7,5.9-10.5,6.9-11.8"/>
	<path class="st4" d="M193.1,230.8c0,0-7,12.7-10.8-6.7c0,0-7.3,6.4-9.9-9.6"/>
	<path class="st4" d="M175.3,201.8c0,0-3.8,26.4-13.8,10.4c0,0-5.1-9.3-5.1-14.5c0,0-5,24.1-18.3,5.5c0,0-13.9,16-12.7-4.1
		c0,0-7.8,28-14.5,8.4c0,0-10.2,29.8-18.9,13.6"/>
	<path class="st4" d="M186.3,179.1c0,0,13.1,20,14.5,38"/>
	<path class="st4" d="M99.9,181.2c0,0-11.8,9.9-13.6,24.1"/>
	<ellipse cx="118.2" cy="238.8" rx="5.6" ry="9.7"/>
	<circle class="st15" cx="118.4" cy="236" r="3.1"/>
	<ellipse cx="157.1" cy="237.7" rx="5.6" ry="9.7"/>
	<path class="st4" d="M106.4,237.7c0-1.3,10.4-14.6,20.9-4"/>
	<circle class="st15" cx="157.1" cy="236" r="3.1"/>
	<path class="st4" d="M168.5,236.6c0-1.3-10.4-14.6-20.9-4"/>
	<path class="st4" d="M104,229c0,0,9.7-7.5,19.7-6"/>
	<path class="st4" d="M148.8,221.6c0,0,12.7-2.7,19.7,6.9"/>
	<path class="st4" d="M132.7,253.1c0,0,7.2-6.1,13.5,0"/>
	<path class="st4" d="M121.5,268.8c0,0,16.4,31.8,37.2,0"/>
	<g>
		<path class="st2" d="M4.3,522.3c0,0-7.3,5.3-8.1-0.4c-0.5-3.3,4-8.3,8-11.4c3-2.3,5.6-5,7.9-8.1c4.5-6,13.7-14,13.7-14
			c-1.4-40.2,21.2-91.6,21.2-91.6l19,4.1l7.1,2.4c0,0-19.8,57.6-22.3,64.4c-2.3,6.1-10,32-3.5,38.8c6.8,7.1,20.4,24.2,6,20.2
			s-14.4-7.5-22,7.5c-7.6,14.9-16.3,8.4-14.9,1.7"/>
		<path class="st2" d="M13.2,511.1c0,0-24.2,21.5-4.9,19.8"/>
	</g>
	<g>
		<path class="st2" d="M276.3,520.3c0,0,6.1,4.6,8.1-0.8c1.4-3.7-3.3-8.6-7.3-11.7c-3-2.3-5.6-5-7.9-8.1c-4.5-6-13.7-14-13.7-14
			c1.4-40.2-21.2-91.6-21.2-91.6l-19,4.1l-7.1,2.4c0,0,19.8,57.6,22.3,64.4c2.3,6.1,10,32,3.5,38.8c-6.8,7.1-20.4,24.2-6,20.2
			c14.4-3.9,14.4-7.5,22,7.5s16.3,8.4,14.9,1.7"/>
		<path class="st2" d="M268,508.5c0,0,23.4,29.1,3.6,20.4"/>
		<path class="st2" d="M262.3,512.8c0,0,20.5,29,4.4,22.5c-3.6-1.4-9.5-9.3-11.8-12.4"/>
	</g>
	<path class="st16" d="M98.5,303.3c0,0-24.4-14.7-37.5,19.6s-28.3,75.5-15.2,81s21.2,6,21.2,6L53.7,512c-0.2,1.3,0.5,2.5,1.6,3.1
		c12.5,6.2,85.6,38.7,168.2-4.8c0,0-27.7-140.7-27.7-144c0-3.3,10.9,40.2,10.9,40.2s35.3-3.3,38-10.3c0,0-11.6-91.6-59.7-98
		c-3.1-0.4-6.2,0.8-8.4,3.1C168.1,310.1,141.4,331.1,98.5,303.3"/>
	<g>
		<path class="st17" d="M109.7,394.3H92.8c-3.7,0-6.8-3-6.8-6.8v-20c0-3.7,3-6.8,6.8-6.8h16.9c3.7,0,6.8,3,6.8,6.8v20
			C116.5,391.3,113.5,394.3,109.7,394.3z"/>
		<path class="st17" d="M87,363.2l10.9,11c1.8,1.8,4.8,1.8,6.5-0.2l10.3-11.7"/>
	</g>
	<line class="st4" x1="67" y1="409.8" x2="71.7" y2="374.2"/>
	<polygon class="st18" points="280.6,25.4 227.8,115.6 183.7,74.5 171.4,95.8 233.4,157.6 296.8,45.9 	"/>
</g>
</svg>
