<?xml version="1.0" encoding="utf-8"?>
<!-- Generator: Adobe Illustrator 22.1.0, SVG Export Plug-In . SVG Version: 6.00 Build 0)  -->
<svg version="1.1" id="Слой_6" xmlns="http://www.w3.org/2000/svg" xmlns:xlink="http://www.w3.org/1999/xlink" x="0px" y="0px"
	 viewBox="0 0 512 512" style="enable-background:new 0 0 512 512;" xml:space="preserve">
<style type="text/css">
	.st0{fill:#857154;}
	.st1{fill:#FDCD95;}
	.st2{fill:#FDCD95;stroke:#000000;stroke-width:3;stroke-linecap:round;stroke-linejoin:round;stroke-miterlimit:10;}
	.st3{fill:none;stroke:#1D1D1B;stroke-width:3;stroke-linecap:round;stroke-linejoin:round;stroke-miterlimit:10;}
	.st4{fill:none;stroke:#000000;stroke-width:3;stroke-linecap:round;stroke-linejoin:round;stroke-miterlimit:10;}
	.st5{fill:#FFFFFF;}
	.st6{fill:#B5D758;stroke:#000000;stroke-width:3;stroke-linecap:round;stroke-linejoin:round;stroke-miterlimit:10;}
	.st7{fill:none;stroke:#000000;stroke-width:3;stroke-miterlimit:10;}
	.st8{fill:#B9D3E5;stroke:#000000;stroke-width:2;stroke-linecap:round;stroke-linejoin:round;stroke-miterlimit:10;}
	.st9{opacity:0.64;fill:#00123F;}
	.st10{fill:none;stroke:#000000;stroke-width:2;stroke-linecap:round;stroke-linejoin:round;stroke-miterlimit:10;}
	.st11{fill:#C6C6C6;stroke:#000000;stroke-linecap:round;stroke-linejoin:round;stroke-miterlimit:10;}
	.st12{fill:none;stroke:#000000;stroke-linecap:round;stroke-linejoin:round;stroke-miterlimit:10;}
	.st13{fill:#B2B2B2;stroke:#000000;stroke-width:0.75;stroke-linecap:round;stroke-linejoin:round;stroke-miterlimit:10;}
	.st14{fill:none;stroke:#000000;stroke-width:0.75;stroke-linecap:round;stroke-linejoin:round;stroke-miterlimit:10;}
	.st15{fill:#878787;stroke:#000000;stroke-width:2.528;stroke-linecap:round;stroke-linejoin:round;stroke-miterlimit:10;}
	.st16{fill:none;}
</style>
<g>
	<path d="M170.8,193.9c0,0,13.5-6.7,26.8-3.2l0.2,22.5c0,0-23.4-11.4-23.1-12.2C174.9,200.2,170.8,193.9,170.8,193.9z"/>
	<path d="M248,184.5c0,0,26.9,10.9,34.3,16.9l-7.8,12l-21.1,9l-4.7-6.2l0-5.2L248,184.5z"/>
	<path class="st0" d="M248.3,185.4v5.3l14.5,3.4l17.7-2.4l13.7-7.6l13-15.7c0,0,10.6-16.3,10.5-32.6c-0.1-16.2-1.1-27.2-1.1-27.2
		s-4.1-25.6-8.5-31.2c-4.4-5.6-8.1-20.9-13.2-23.8s-9.8-16.4-19.1-19.9l-14.5-8.7l-11.9-3.8L234,20.2l-3,2l-9.3-3.3l-8-1l-12,2.2
		l-4.6,2.3l-7.5-0.2l-17.2,5l-10.7,7l-14.3,15l-11,20.3c0,0-4.7,12.7-5.4,15.6c-0.8,2.9-5,31.3-4.6,37.4c0.4,6.1,4.2,28.8,6.5,34.2
		c2.3,5.4,9.5,17.8,10.8,19.5c1.4,1.6,11.5,12.9,20.4,14.4c8.9,1.6,12.5,2.8,17.5,3c5,0.2,9.1-1.9,9.1-1.9l8.3-16.8l27.1-0.8
		c0,0,12.3,3.5,13.3,3.8c1.1,0.3,9,3.5,9,3.5V185.4z"/>
	<path class="st1" d="M250.2,221.5l-12.6,4.9l-16,2.3c0,0-18.2-0.7-23.4-3.6s-7.6-4.6-7.6-4.6l1.2-34.5c0,0-20.9-11.1-27.8-23.3
		c-6.9-12.2-10.5-22.7-10.5-22.7l-2.3-23.3l6.4-6.9l5.1-9.3l4.6,3.2l5.1,0.6l7.5-9.3l6-13.3l2.3,5.3l5,3.2l3.9-3.4l6.5-13.5l0.3,7.2
		l3.2,3.1l5.6-0.5l5.4-5.5l4.7,3.1l4.3,3.4l5.3,0.7l5.1-4.4l4.7-7.1l2.3,6.8l4.9,9.5l2.7,4h2.9l5.5-4.2l3,9.2l3.5,4.5l6.4-0.9
		l2.2,7.9l2.8,4.4l5.5-0.6l2.8-3.5l0.6,16.2l-6.1,24.5l-10.9,17L253.3,183l-6.6,3.1L250.2,221.5z"/>
	<path class="st2" d="M286.7,110.2c0.9-0.3,1.8-0.4,2.7-0.3c5.5,0.6,9.1,8.5,8.1,17.7c-1.1,9.1-6.4,16-11.9,15.4
		c-0.4-0.1-0.9-0.1-1.3-0.3"/>
	<path class="st3" d="M151.1,115.2c0,0.4,0,0.8,0,1.4"/>
	<path class="st4" d="M155.7,146.9c3.5,9.4,8.9,17.8,15.7,24.7c5.6,5.7,12.1,10.4,19.2,13.9c8.7,4.2,18.4,6.5,28.7,6.5
		s20-2.3,28.7-6.5c7.4-3.6,14.1-8.5,19.8-14.4c7.5-7.9,13.3-17.5,16.6-28.3c2.1-6.8,3.2-14,3.2-21.5c0-3.7-0.3-7.4-0.8-11"/>
	<path class="st4" d="M190.6,185.4L190.6,185.4v6.4v2v26.7c26.8,19.9,59.6,1,59.6,1"/>
	<polyline class="st4" points="250.2,221.5 248.3,190.7 248,185.4 248,185.4 	"/>
	<path class="st2" d="M155.7,146.9c-0.8,0.6-1.7,1.1-2.7,1.3c-5.4,1.2-11.4-5.2-13.3-14.2c-1.9-9,0.9-17.2,6.3-18.4
		c1.7-0.4,3.4,0,5,0.9c0,1.5,0,3.5,0,4.6C151.1,130.3,152.7,138.9,155.7,146.9z"/>
	<path class="st3" d="M151.2,116.7c-0.1,0-0.1-0.1-0.2-0.1"/>
	<path class="st4" d="M190.6,191.8c-6.3,2.1-12.8,2.7-19.3,1.6c-31.5-5.1-50.9-47.4-43.3-94.5c7.5-46.3,38.2-80.1,69.1-76.4"/>
	<path class="st4" d="M229.2,21.8c32.2-8.3,69.1,21.4,83.1,67.5c14.3,46.9-0.6,93-33.2,102.9c-10,3-20.6,2.3-30.8-1.5"/>
	<path class="st3" d="M197.1,22.4c4.7-2.8,10.4-4.5,16.6-4.5c5.7,0,11,1.4,15.5,3.9"/>
	<path class="st4" d="M142.8,74.6c0,0-1.4,66.6,16.7,29.5c0,0,2-3.6,4.4-7.9c3.2-5.8,7.2-12.9,8.4-14.5"/>
	<path class="st4" d="M286.7,110.2c0,0-8.6,15.6-13.2-8.2c0,0-8.9,7.8-12.1-11.7"/>
	<path class="st4" d="M264.9,74.6c0,0-4.6,32.4-16.9,12.8c0,0-6.2-11.4-6.2-17.8c0,0-6.1,29.5-22.5,6.8c0,0-17,19.6-15.6-5
		c0,0-9.6,34.4-17.8,10.3c0,0-12.5,36.6-23.2,16.7"/>
	<path class="st4" d="M278.4,46.8c0,0,16,24.6,17.8,46.6"/>
	<path class="st4" d="M172.4,49.3c0,0-14.5,12.1-16.7,29.5"/>
	<path d="M326,268l9.5,3.5l-7.5,28.1l-27,17.8c0,0-22.5-6.3-21-10.3s23-23.6,23-23.6L326,268z"/>
	<path class="st3" d="M181.5,108.3c0,0,10.8-11,23.8-7"/>
	<path class="st3" d="M257.6,107.3c0,0-10.8-11-23.8-7"/>
	<path class="st4" d="M212.5,139.8c0,0,7.6-9.5,16.8,0"/>
	<path class="st4" d="M202.8,163c0,0,19.8,10.5,38.3-2"/>
	<path class="st4" d="M241,157c0,0,0.8,4.6,3,7.1"/>
	<path class="st4" d="M202.8,157c0,0-0.3,6.3-2,8.8"/>
	<ellipse cx="196.9" cy="123.4" rx="6.9" ry="10.6"/>
	<circle class="st5" cx="197.4" cy="121.7" r="3.4"/>
	<path class="st4" d="M183.5,119.8c0,0,11.8-12.5,23-4.8"/>
	<ellipse cx="243.9" cy="121.9" rx="6.9" ry="10.6"/>
	<g>
		<path class="st2" d="M46.7,478.7c0,0-9,6.5-10-0.5c-0.6-4,4.9-10.2,9.8-14c3.7-2.9,6.9-6.2,9.7-9.9C61.7,446.8,73,437,73,437
			c-1.7-49.3,26-112.3,26-112.3l23.3,5l8.7,3c0,0-24.2,70.7-27.3,79c-2.8,7.4-12.3,39.3-4.3,47.7c8.4,8.7,25,29.6,7.3,24.8
			s-17.7-9.2-27,9.2s-20,10.3-18.3,2"/>
		<path class="st2" d="M57.7,465c0,0-29.7,26.4-6,24.3"/>
		<path class="st2" d="M64.7,470.3c0,0-24.3,29-6.2,26.4c4.7-0.7,13.2-10.7,16.1-14.4"/>
	</g>
	<g>
		<path class="st2" d="M388.5,471.1c0,0,9,6.5,10-0.5c0.6-4-4.9-10.2-9.8-14c-3.7-2.9-6.9-6.2-9.7-9.9c-5.5-7.4-16.8-17.2-16.8-17.2
			c1.7-49.3-38.6-166.9-38.6-166.9l-21,10.5l-11,10c0,0,36.9,112.9,40,121.1c2.8,7.4,12.3,39.3,4.3,47.7c-8.4,8.7-25,29.6-7.3,24.8
			c17.7-4.8,17.7-9.2,27,9.2c9.3,18.3,20,10.3,18.3,2"/>
		<path class="st2" d="M377.5,457.5c0,0,29.7,26.4,6,24.3"/>
		<path class="st2" d="M370.5,462.8c0,0,24.3,29,6.2,26.4c-4.7-0.7-13.2-10.7-16.1-14.4"/>
	</g>
	<circle class="st5" cx="243.4" cy="120.2" r="3.4"/>
	<path class="st4" d="M257.3,118.3c0,0-11.8-12.5-23-4.8"/>
	<path class="st6" d="M182,195c0,0-42.5-2.5-57.5,33S87,324.5,87,324.5s16.5,15,47.5,17l-19,135c0,0,112,53,210-10l-27-162.5
		c0,0,12.5-26.5,37-32.5l-9.5-4l9.5-5.5c0,0-8-12-12-10.5c0,0,10.5-9.5-7-24.5s-25-30-46.5-32C270,195,224,253.5,182,195z"/>
	<line class="st4" x1="134.5" y1="341.5" x2="143" y2="283"/>
	<line class="st4" x1="291.5" y1="278.5" x2="298.5" y2="304"/>
	<path class="st4" d="M323.5,251.5c0,0-11.5,3.1-17,10.5"/>
	<path class="st4" d="M326,267.5c0,0-13,6.5-17,11"/>
	<g>
		<path class="st7" d="M188.2,324.7h-23.8c-3.7,0-6.8-3-6.8-6.8v-27.6c0-3.7,3-6.8,6.8-6.8h23.8c3.7,0,6.8,3,6.8,6.8v27.6
			C195,321.6,191.9,324.7,188.2,324.7z"/>
		<path class="st7" d="M158.9,286.5l13.3,13.5c2.2,2.3,5.9,2.2,8-0.2l12.6-14.3"/>
	</g>
	<g>
		<g>
			<path class="st8" d="M392.4,263.5l-36.6,38.7c-1.7,1.8-4,2.7-6.3,2.5c-1.9-0.1-3.8-0.8-5.2-2.2c-1.5-1.4-2.3-3.2-2.5-5.1v0
				c-0.2-2.3,0.5-4.6,2.2-6.4l2.5-2.7c0,0,0,0,0,0l6.3-6.6l29.3-30.9C384.7,255.3,390.2,261.2,392.4,263.5z"/>
			<path class="st9" d="M375.9,280.6L355.6,302c-1.7,1.8-4,2.6-6.3,2.5c-1.9-0.1-3.8-0.8-5.2-2.2c-1.5-1.4-2.3-3.2-2.5-5.1v0
				c-0.2-2.3,0.5-4.6,2.2-6.4l2.5-2.7c0,0,0,0,0,0l6.3-6.6l12.9-13.6L375.9,280.6z"/>
			<path class="st8" d="M404.1,251.1l-3.9,4.1c-5.8-2.5-10.9-6.4-13.2-8.4c-0.2-0.2-0.5-0.4-0.8-0.6l6.3-6.7L404.1,251.1z"/>
			<line class="st10" x1="400.2" y1="255.3" x2="392.4" y2="263.5"/>
			<line class="st10" x1="386.3" y1="246.3" x2="382" y2="250.8"/>
			<path class="st11" d="M349.5,304.7l-2.3,2.5c-1.3,1.4-3.1,1.9-4.9,1.6c-1-0.2-1.9-0.6-2.7-1.4c-0.7-0.7-1.2-1.6-1.5-2.5
				c-0.5-1.7,0-3.7,1.3-5l2.3-2.5c0.2,1.9,1,3.7,2.5,5.1C345.7,303.9,347.6,304.7,349.5,304.7z"/>
			<line class="st12" x1="341.7" y1="297.4" x2="341.7" y2="297.4"/>
			<path class="st13" d="M342.3,308.8l-3.9,3.9c-1.1,1.1-2.9,1.1-4,0c-1.1-1.1-1.1-2.9,0-4l3.8-3.8c0.2,0.9,0.7,1.8,1.5,2.5
				C340.4,308.1,341.3,308.6,342.3,308.8z"/>
			<line class="st14" x1="334.4" y1="312.7" x2="325.2" y2="321.1"/>
			<path class="st14" d="M352.7,281.7c0,0,0,7.1,6,9.1"/>
			<path class="st14" d="M346.5,288.3c0,0-0.2,3.5,3,6.4"/>
			<path class="st14" d="M369.5,265.8c0,0,2.1,4.6,6.7,7.3"/>
			<path class="st15" d="M413.5,250.8c0,1-0.4,2.1-1.2,2.9c-1.6,1.6-4.1,1.6-5.7,0l-16.8-16.8c-0.8-0.8-1.2-1.8-1.2-2.8
				c0-1,0.4-2.1,1.2-2.8c1.6-1.6,4.1-1.6,5.7,0l16.8,16.8C413.1,248.7,413.5,249.8,413.5,250.8z"/>
			
				<rect x="402.3" y="228.9" transform="matrix(0.7068 -0.7074 0.7074 0.7068 -45.8138 358.9347)" class="st8" width="15.5" height="11.8"/>
			<ellipse transform="matrix(0.6803 -0.733 0.733 0.6803 -34.2104 378.109)" cx="416.3" cy="228.3" rx="3" ry="12.7"/>
			<line class="st16" x1="375.9" y1="280.6" x2="365.4" y2="267.9"/>
		</g>
		<path class="st2" d="M518.7,236.6c0,0-51.3,17.4-61.3,33.3c-10,16-45.9,43.4-76.9,7.8l12.9-13.3c0,0-0.3-0.3-0.9-1
			c-2.2-2.3-7.7-8.2-10.4-12.7c-2-3.3-2.5-5.8,0.8-5.7c1.3,0,2.5,0.5,3.5,1.2c0.3,0.2,0.5,0.4,0.8,0.6c2.3,2,7.3,6,13.2,8.4
			c6.3,2.7,13.6,3.5,19.5-1.8c0,0,11.3-12.2,8-18.5c-3-5.7-24.4-18-15.5-19.8c2.1-0.4,4.2,0,6,1c3.4,1.9,9.9,5.6,13.4,8.2
			c5,3.6,11.7,7.3,19.7,2.9c8-4.3,60.7-27,60.7-27L518.7,236.6z"/>
		<path class="st4" d="M422.3,269.5c0,0-25.2,0.6-29-5"/>
		<path class="st4" d="M422.3,277c0,0-17.7,8.3-33.4-6.9"/>
		<path class="st4" d="M420.3,285c0,0-25,5.7-35.1-10"/>
	</g>
</g>
</svg>
