<?xml version="1.0" encoding="utf-8"?>
<!-- Generator: Adobe Illustrator 23.1.0, SVG Export Plug-In . SVG Version: 6.00 Build 0)  -->
<svg version="1.1" id="Слой_1" xmlns="http://www.w3.org/2000/svg" xmlns:xlink="http://www.w3.org/1999/xlink" x="0px" y="0px"
	 viewBox="0 0 283.5 283.5" style="enable-background:new 0 0 283.5 283.5;" xml:space="preserve">
<style type="text/css">
	.st0{fill:#B96B17;}
	.st1{fill:#7096CE;}
	.st2{fill:#375AA4;}
	.st3{fill:#FBEA3F;}
	.st4{fill:#98C346;}
	.st5{fill:#FFE2AF;}
	.st6{fill:#FFD200;}
	.st7{fill:#FFDE40;}
	.st8{fill:#FFFFFF;}
	.st9{fill:none;}
	.st10{fill:#659F33;}
	.st11{fill:#EE7B14;}
	.st12{fill:#CB68A1;}
	.st13{fill:#12100B;}
</style>
<path class="st0" d="M93,229.2l-15.4-2.6l-3.4-0.1c0,0-2.5,4.8-1.6,5.6c0.8,0.7,7.4,0.7,11.2,0.8c5.8,0.1,7.8-1.1,7.8-1.1
	C93.7,230.8,93.8,229.3,93,229.2z"/>
<path class="st0" d="M101.2,221.7l-13.1-2l-3.2-0.1c0,0-2.4,4.3-1.5,5c0.7,0.6,6.9,0.7,10.5,0.7c5.5,0.1,6.4-1.2,6.4-1.2
	C102.2,223.2,101.9,221.8,101.2,221.7z"/>
<path class="st1" d="M120.8,131.6l0.7-28.9l29.6,0.8l-0.7,28.9L120.8,131.6z"/>
<path class="st1" d="M147.3,98.7l-21.4-0.5l-4.1,4.4l29.4,0.8L147.3,98.7z"/>
<path class="st2" d="M121.6,102.6l29.6,0.8l-0.2,6.6l-29.6-0.8L121.6,102.6z"/>
<path class="st3" d="M133.6,102.9l5.6,0.1l-0.7,28.9l-5.6-0.1L133.6,102.9z"/>
<path class="st4" d="M94.5,132.3l5.1-6l1,0.9c2.3-2.2,4.1-4,4.1-4s-6.3-18.5-12.6-22.6c-0.8-1.1-1.4-1.8-1.9-2.1
	c-0.5-0.3-1.2-0.6-1.8-0.8v0.3l0.9,1.4c1.6,2.4,0.6,3.8-2.2,3.1c-3.5-0.8-8.4-5.1-8.8-5.4c-11.8,8.6-15.6,65.6-15.6,65.6
	c12.7,5.9,37.2,3.9,37.2,3.9c0.7-11.3,0.7-20.9,0.3-28.9C98.2,135.7,94.5,132.3,94.5,132.3z"/>
<g>
	<path class="st5" d="M73.3,176.6c0,0-5.5,26.5,0.8,49.9l2.8-0.1c0,0,0.1-9.2,0.9-20.5c0.8-11.1,5-28.6,5-28.6L73.3,176.6z"/>
	<path class="st5" d="M84.9,219.6l2.8-0.1c0,0,0.1-9.2,0.9-20.5c0.8-11.1,6.4-25.9,6.4-25.9l-10.1-0.1
		C84.9,173.1,78.5,196.2,84.9,219.6z"/>
	<path class="st5" d="M104.5,123.8l-3.4,3.2l3.5,3.5l16.3-3l0.2-3.7l-14.3,2.7L104.5,123.8z"/>
	<path class="st5" d="M80.7,90.8l-1,4.1l-1.4,2c0,0,5.1,4.5,8.8,5.4c2.9,0.7,3.9-0.7,2.2-3.1l-0.9-1.4c0,0,0.1-1.7,0.5-3.4
		c0.1,0,0.1,0,0.1,0c11,2.3,21.9-4.5,24.4-15.3c0.1,0,0.2-0.1,0.2-0.1c2-0.8,3.2-2.5,2.6-3.7c-0.3-0.8-1.2-1.2-2.3-1.2
		c-0.1-9.4-6.9-17.9-16.6-19.9c-11.3-2.3-22.3,4.8-24.6,15.9C71.1,78.3,74.4,86.2,80.7,90.8z"/>
	<path class="st5" d="M143,123.4c-0.7-0.2-6.7,1.7-6.7,1.7l-0.1-0.3c0,0,2.8-1.3,3.5-2c0.8-0.8,1.3-1.5,0.7-1.9
		c-0.5-0.4-1.8,0.8-4.1,1.6c-1.9,0.7-3.6,0.8-3.6,0.8c0.7-3.4,0.7-4.8-0.1-4.8c-0.7,0-0.7,2.7-2.8,4.3c-0.9,0.7-1.7,2.4-2.1,3.3
		l-0.4,0.2l-23,4.4l-4.9-4.4l-5.1,6c0,0,4.4,4.1,6.2,5.8c1.8,1.7,20.4-3.9,27.1-7.6c0,0,2.1,1.5,3.7,1.6c7.1,0.5,9.8-0.3,9.8-0.9
		c-0.1-1-4.2-0.7-4.2-0.7v-0.3c0,0,7-0.9,5.8-2.6c-0.4-0.6-6.1,0.6-6.1,0.6l-0.1-0.6c0,0,4.9-1.9,5.5-2.1
		C143.7,124.9,144,123.7,143,123.4L143,123.4z"/>
	<path class="st5" d="M206.5,177.3l-9,0.5c0,0,3.5,17,4,27.8c0.4,8.7,0.4,16,0.4,18.7l-0.4,1.2l-13.7,1.9c-0.7,0.1-0.6,1.3,1.2,2.3
		c0,0,1.7,1,6.8,1.1c3.4,0.1,9.3,0.2,9.9-0.4c0.8-0.7-1.2-4.7-1.3-4.9h0C211.1,203.1,206.5,177.3,206.5,177.3z"/>
	<path class="st5" d="M196.2,223.3c0.7-0.7-1.2-4.7-1.2-4.9h0c4.7-20.2,1.2-38.2,1.2-38.2s-8.8-1.5-8.3,0.5
		c5.4,25.1,4.7,33.7,4.7,36.4l-0.3,1.2l-12.7,1.9c-0.6,0.1-0.6,1.3,1.2,2.3c0,0,1.5,1,6.4,1.1C190.1,223.7,195.6,223.9,196.2,223.3z
		"/>
	<path class="st5" d="M204.3,112.3c-2.5,0.7-8.3,12.6-11.4,19.5c-0.2,0.9-0.7,1.8-1.3,2.5c0.1,0,0.2,0,0.2-0.1
		c-0.7,1.5-1.1,2.5-1.1,2.5l-19.8,5.4c0,0-1.6-2.3-3.5-2.3c-0.1,0-0.2,0-0.2,0c1.8-0.9,2.6-1.9,2.6-1.9c1.5-0.1,7.3-0.8,12.7-1.8
		c-0.2-0.4-0.2-1,0.1-1.4c0.1-0.2,0.3-0.4,0.4-0.7c-0.1,0.4,0-0.1,0-0.2c0-0.1,0.1-0.2,0.1-0.3c0.2-0.5,0.2-1.1,0.3-1.6
		c0.1-0.8,0.2-1.7,0.4-2.5l-15,4.1c0,0-1.6-2.3-3.5-2.3c-2.6,0-4.1-1.8-4.1-1.8s-0.6,0.5-0.3,1.4c0.6,1.8,2.6,2.3,2.6,2.3
		s0.7,0.4-2.7,0.7c-5.3,0.5-5.9-2.2-6.1-0.8c-0.2,1.5,2,2.4,2,2.4s-1.9-0.7-1.6,0.4c0.3,0.9,2.4,1.5,2.4,1.5
		c-1.5-0.4-2.1-0.2-1.5,0.8c0.5,0.9,1.9,1,1.9,1c-0.6-0.1-1.7,1.2,1.8,1.8c1,0.2,0.9,0.3,3.8-0.2c0.3,0,0.5-0.1,0.8-0.2
		c0.8,0.5,1.5,0.7,1.5,0.7s0.4,0.6-2.9,0.9c-5.3,0.5-5.9-2.2-6.1-0.8c-0.2,1.5,2,2.4,2,2.4s-1.9-0.7-1.6,0.4
		c0.3,0.9,2.4,1.5,2.4,1.5c-1.5-0.4-2.1-0.2-1.5,0.8c0.5,0.9,1.9,1,1.9,1c-0.6-0.1-1.7,1.2,1.8,1.8c1,0.2,0.9,0.3,3.8-0.2
		c4.1-0.6,6.3-3,6.3-3c3-0.1,21.7-3,23.4-4.1c1.7-1.2,12.6-20.9,13.6-24.5C210,114,207.8,111.3,204.3,112.3L204.3,112.3z"/>
	<path class="st5" d="M172.4,90.1c0.1,0,0.1,0,0.2,0c3.5,8.9,12.2,13.3,20.7,11l0.4,1.7l-1.7,3.1c-0.6,1.1-0.1,2.5,1.2,2.8
		c2.3,0.7,5.9,0.7,8.9-4.2c2.2-3.6-0.9-2.9-0.9-2.9l-0.8-4.2c6.9-5.7,9.9-16,6.6-24.9c-3.8-10.4-14.6-15.1-24.1-10.4
		c-8.3,4.1-12.9,13.8-11.5,23.2c-0.9,0.3-1.6,0.9-1.8,1.7C169.2,88.4,170.5,89.8,172.4,90.1z"/>
</g>
<path class="st6" d="M149.5,92.5c-0.5-3.6-9.6,4.3-11.6,6h-0.1c8.6-11.3,7.9-15.6,4.6-14c-4.7,2.3-5.8,12.5-5.9,14h-0.1
	c-0.4-1.5-3.4-12.6-6.7-9.2c-1.7,1.7,3.1,7.7,5.5,10.3l-1.6,3.3l5.6,0.2l-0.6-2.9C142.4,98.7,149.9,95.5,149.5,92.5z"/>
<path class="st7" d="M85.5,44.9c-3.1-0.1-0.1,7.3-0.1,7.3C85.5,52.1,88.3,45,85.5,44.9z"/>
<path class="st7" d="M84.5,51.5c0,0-9.7-2.3-15.2,8.5C64.7,69,66.5,83,79.4,90.9c0,0,3-0.7,4.5-5.3c0.7-2.1,0-5.3,0.2-8.6
	c0,0-3.1-1.9-2.4-5.5c0.7-3.4,6.3-3.1,7.5,3.3c0,0,8-4,13-16.8c0,0,1.4,3.3,7.6,5.1c0,0,2.9,6.1,3.3,6
	C121.5,65.4,107.9,41.4,84.5,51.5z"/>
<path class="st7" d="M85.1,51.1C85,51,82.1,47,81,48.5C79.7,50.3,85.1,51.1,85.1,51.1z"/>
<path class="st8" d="M111.2,84.8c0,0-1.1,1.7-2.5,3.3c-0.7,0.8-2.6,2.4-2.6,2.4s-1.6-1.2-2.9-3.7c-1.1-2.1-0.7-4.9-0.7-4.9
	S106,85,111.2,84.8z"/>
<path class="st9" d="M204.5,225.6c0,0,2.1,4.2,1.3,4.9c-0.7,0.6-6.5,0.5-9.9,0.4c-5.2-0.1-6.8-1.1-6.8-1.1c-1.8-1-1.9-2.2-1.2-2.3
	l13.7-1.9L204.5,225.6L204.5,225.6z"/>
<path class="st10" d="M206.4,229.8c0-1.2-1-3.1-1-3.1c-2.8,3.3-5.3,4.5-8.8,3.6c-3.5-0.9-5-3.8-5-3.8s-3.4,0.3-4.1,0.8
	c-0.7,0.4-0.5,1.9,2.2,3c2.4,1,10.5,1.1,13.3,0.9C205.4,231.2,206.4,231,206.4,229.8z"/>
<path class="st10" d="M193.5,224c2.6-0.1,3.1-0.1,3.1-1.3c0-1.2-0.8-2.9-0.8-2.9c-2.5,3.3-4.9,4.3-8.2,3.5c-3.2-0.9-4.8-3.8-4.8-3.8
	s-3,0.2-3.7,0.6c-0.7,0.4-0.6,1.8,1.8,3.1C183.3,224.4,187.8,224.1,193.5,224z"/>
<path class="st9" d="M195,218.4c0,0,2,4.2,1.2,4.9c-0.6,0.6-6.1,0.5-9.2,0.4c-4.8-0.1-6.4-1.1-6.4-1.1c-1.7-1-1.8-2.2-1.2-2.3
	l12.7-1.9L195,218.4L195,218.4z"/>
<path class="st8" d="M174.3,94.2l3,3.5c0,0,1.7-0.8,3.3-2.6c1.7-1.9,1.7-4.7,1.7-4.7S179.4,93.8,174.3,94.2z"/>
<path class="st11" d="M79.7,166.7c-7.8-0.6-14-2.7-14-2.7l-0.6,18.1c0,0,4.8,2.7,14.4,2.4c9.7-0.3,11-1.5,11-1.5l0.2-1.2
	c2.8,0.6,4-0.3,4-0.3l1.4-14.6C96.1,166.9,85.6,167.2,79.7,166.7z"/>
<path class="st11" d="M213.3,68.4c-2-3.3-4.4-6.4-8.1-8.4c2.4-1.4,5.1-2.8,5.2-2.8c0.3,0-7.8-5-7.8-5l-2.4,5.9
	c-2.7-0.6-5.8-0.9-9.6-0.6c-2.2,0.2-4.1,0.5-5.9,1l2.9-7.2l-8.1,0.1c0,0,1.6,6.6,2.1,8.2c-7.7,3.3-9.6,9.2-9.6,9.2s3.7,8.1,24,13.5
	c0,0,2-4.6,5-3.3c2.2,0.9,2,5.4,0.5,6.8c-1.4,1.3-1.4,1.6-1.4,1.6s-1,14.5,1.4,15.8c5.5,3.1,13.2,0.4,16.3-1.4
	C221.1,100,221,81.2,213.3,68.4z"/>
<path class="st12" d="M210.8,104.9c0,0-0.1-0.1-0.1-0.1c-1.9,0.6-4.2,0.3-6.2-0.3c-0.7-0.1-1.4-0.3-2-0.6c0,0,0,0.1,0,0.1
	c-0.8,2.6-2.6,4.3-5.1,5.1c-2.1,0.8-5.4,0.9-6-1.9c0-0.1,0-0.2,0-0.3c-0.2,0.3-0.3,0.6-0.5,1c-1.8,4.1-4.4,11.5-6.8,21.5l-2.1,8.1
	c0,0,0.1-0.1,0.3-0.1c-0.1,0.5-0.2,1.1-0.3,1.7l8.7-2.4c0,0,0.4-1,1.1-2.5c-0.1,0-0.3,0.1-0.4,0.1c3.7-7.7,10.7-21.4,12.9-22
	c3.5-0.9,5.7,1.7,4.7,5.3c-1,3.6-11.9,23.4-13.6,24.5c-1,0.7-8.2,2-14.4,3c-2,12.5-3.4,27.5-3.1,44.5c0,0,20.5,6.1,44.8-0.7
	C222.6,188.9,223.7,120.8,210.8,104.9z"/>
<path class="st13" d="M109.6,71.9c-0.7-0.2-1.4,0.5-1.7,1.6c-0.3,1.1,0,2.1,0.7,2.2c0.7,0.2,1.4-0.5,1.7-1.6
	C110.5,73.1,110.2,72.1,109.6,71.9z"/>
<path class="st13" d="M109.2,68.4c0.1,0.1,0.3,0,0.4-0.1c0.1-0.1,0-0.3-0.1-0.4c-0.8-0.4-1.8-0.4-2.8-0.1s-1.8,1-2.1,1.8
	c-0.1,0.1,0,0.3,0.2,0.4c0,0,0.1,0,0.1,0c0.1,0,0.2-0.1,0.2-0.2c0.3-0.7,1-1.2,1.8-1.5C107.7,68.1,108.6,68.1,109.2,68.4z"/>
<path class="st13" d="M167.1,135.3c0.2,0,0.2-0.2,0.2-0.3c0-0.2-0.2-0.2-0.3-0.2c-2.1,0.5-2.8-0.1-2.8-0.1c-0.1-0.1-0.3-0.1-0.4,0
	c-0.1,0.1-0.1,0.3,0,0.4c0.1,0.1,0.5,0.5,1.7,0.5C165.8,135.5,166.4,135.5,167.1,135.3z"/>
<path class="st13" d="M164.5,137.6c-0.1,0.1,0,0.3,0.2,0.4c0,0,0.1,0,0.1,0c0.1,0,0.2-0.1,0.2-0.2c0.8-1.8,3.1-2,3.1-2
	c0.2,0,0.3-0.2,0.2-0.3c0-0.2-0.2-0.3-0.3-0.2C168,135.3,165.4,135.5,164.5,137.6L164.5,137.6z"/>
<path class="st13" d="M151.3,103.1l-3.8-4.6c-0.1-0.1-0.1-0.1-0.2-0.1l-3.7-0.1c3.3-1.6,6.5-3.7,6.2-5.8c-0.1-0.7-0.5-1-0.8-1.1
	c-1.9-0.7-6.9,3.2-9.7,5.6c5.4-7.4,6.3-11.4,5.3-12.6c-0.3-0.3-0.9-0.8-2.3-0.1c-4.1,2-5.5,9.7-5.9,12.9c-0.8-2.6-2.6-8.1-4.9-8.7
	c-0.7-0.2-1.3,0-1.9,0.6c-1.5,1.5,1.5,6,4,9l-7.7-0.2c-0.1,0-0.2,0-0.2,0.1l-4.1,4.4c-0.1,0-0.2,0.1-0.2,0.2
	c-0.1,0.1-0.1,0.1-0.1,0.2l-0.5,20.8l-14.1,2.8l-1.9-2.4c0.2-0.2,0.4-0.4,0.4-0.4c0.2-0.2,0.2-0.4,0.1-0.5c0-0.1-2-5.8-4.8-11.5
	c-2.8-5.9-5.5-9.7-8-11.3c-0.8-1.2-1.5-1.8-2-2.2c-0.5-0.3-1-0.5-1.6-0.8c0-0.5,0.1-1.3,0.3-2.1c1.3,0.2,2.7,0.4,4,0.4
	c4.7,0,9.4-1.6,13.1-4.5c0.1,0,0.1-0.1,0.2-0.2c0,0,0.1,0,0.1-0.1c0.1-0.1,1.9-1.6,2.6-2.5c1.4-1.6,2.5-3.3,2.5-3.3
	c0.1-0.1,0.1-0.2,0-0.3c0.9-1.6,1.6-3.4,2.1-5.2c1.4-0.6,2.4-1.5,2.8-2.6c0.3-0.6,0.3-1.3,0-1.8c-0.4-0.8-1.2-1.3-2.2-1.5
	c-0.1-1.5-0.3-3.1-0.7-4.5c1.9-1.1,2.6-3.4,1.9-6.3c-1.3-5.8-8.4-14.1-20-14.1c-3.1,0-6.3,0.6-9.5,1.8c0.5-1.2,1.2-3.7,0.7-5
	c-0.2-0.6-0.7-0.9-1.4-0.9c0,0-0.1,0-0.1,0c-0.8,0-1.2,0.4-1.4,0.7c-0.6,0.9-0.2,2.5,0.2,3.8c-1-1.1-1.8-1.6-2.5-1.6
	c-0.5,0-0.8,0.2-1.1,0.6c-0.4,0.6-0.4,1.1-0.2,1.4c0.3,0.8,1.4,1.2,2.5,1.6c-0.2,0-0.3,0-0.5,0c-3.3,0-9.5,1.2-13.5,9
	c-2.4,4.8-3,10.5-1.6,15.8c1.6,6.1,5.7,11.3,11.8,15L79,91h0.2c0,0,0.3,0,0.7-0.2c0.1,0,0.1,0.1,0.2,0.1l-0.9,3.7l-1.4,1.9
	c0,0-0.1,0.1-0.1,0.2c-4.6,3.7-8.5,14.8-11.7,33c-2.8,16.3-3.9,32.7-3.9,32.8c0,0.2,0.1,0.4,0.3,0.5c0.9,0.4,1.9,0.8,3,1.2
	l-0.6,17.5v0.3l0.3,0.2c0.1,0.1,2.1,1.3,6.4,2c-0.3,2.4-0.6,5.2-0.8,8.4c-0.5,8.7-0.5,21.7,2.8,33.9c-0.2,0.5-0.6,1.3-1,2.2
	c-0.8,2.1-0.9,3.2-0.4,3.7c0.8,0.7,4.4,0.8,11.5,0.9h0.1h0.4c5.4,0,7.4-1,7.7-1.1c1.8-0.9,2.3-2.1,2.1-2.8c-0.1-0.5-0.4-0.8-0.9-0.9
	L77.6,226c0,0-0.1,0-0.1,0h-0.2c0-1.8,0.2-10.1,0.9-20c0.5-6.5,2.1-15.2,3.4-21.3c0.2,0,0.4,0,0.5,0c-0.1,0.9-0.2,1.8-0.3,2.8
	c-0.7,7.9-0.9,19.9,2.3,32.1c-0.2,0.4-0.6,1.2-1,2.1c-0.8,1.9-0.9,2.9-0.3,3.4c0.6,0.5,3.2,0.8,10.8,0.8h0.1h0.3
	c4.6,0,6-0.9,6.4-1.2c1.8-0.9,1.8-2.1,1.7-2.4c-0.1-0.5-0.5-1-1-1.1l-13-2c0-1.8,0.2-10.1,0.9-20c0.4-5.3,1.9-11.6,3.3-16.6h0
	c1.6,0,2.4-0.5,2.5-0.6l0.2-0.2l0-0.2l1.1-14.3c2.2-0.1,3.6-0.2,3.6-0.2c0.3,0,0.5-0.2,0.5-0.5c0.6-10.2,0.8-19.7,0.4-28.2
	c0.4,0.1,0.8,0.2,1.4,0.2c4.6,0,16.9-3.5,23.8-6.6l3.6,0.1c0.6,0.3,1.3,0.5,1.9,0.5c1.5,0.1,3,0.2,4.3,0.2s3.3-0.1,4.6-0.4l10,0.3
	c0.2,0,0.3-0.1,0.3-0.3l0.7-22.1c0.1-0.1,0.1-0.1,0.1-0.2l0.2-6.6c0-0.1,0-0.2-0.1-0.2C151.4,103.1,151.3,103.1,151.3,103.1
	L151.3,103.1z M147.1,98.9l3.4,4.1l-11.1-0.3l-0.5-2.4c1-0.4,2.3-0.9,3.5-1.5L147.1,98.9z M133.5,118.4l0.4-15.2l5.1,0.1l-0.5,17.7
	c0,0,0,0,0,0c-0.6,0.3-1.4,0.7-2.3,1c-1.1,0.4-2.1,0.6-2.8,0.7C134.1,119.7,133.8,118.8,133.5,118.4z M134.1,102.6l1.2-2.5
	c0.5,0.5,0.8,0.9,0.9,1c0.1,0.1,0.1,0.1,0.2,0.1h0.1c0.1,0,0.8-0.3,1.9-0.7l0.5,2.2L134.1,102.6z M129.9,89.4
	c0.4-0.4,0.7-0.5,1.1-0.5c0.1,0,0.2,0,0.3,0c2.2,0.6,4.3,7.3,4.9,9.8c0,0.1,0.2,0.2,0.3,0.2s0.2-0.1,0.2-0.2s0.9-11.5,5.8-13.9
	c0.5-0.2,1.3-0.5,1.7-0.1c0.7,0.9,0.1,4.8-6.8,14c-0.1,0.1-0.1,0.3,0,0.4c0.1,0.1,0.3,0.1,0.4,0c2.4-2.2,9.1-7.8,11-7.1
	c0.2,0.1,0.4,0.2,0.5,0.6c0.5,3.1-8.9,6.8-12.7,8C133.1,97,128.5,90.8,129.9,89.4z M125.9,98.4l8.1,0.2c0.3,0.4,0.6,0.7,0.8,1
	l-1.4,3l-11.1-0.3L125.9,98.4z M121.9,102.8l11.4,0.3l-0.2,6.1l-11.4-0.3L121.9,102.8z M121.6,109.5l11.5,0.3l-0.2,8.3
	c-0.1,0-0.2,0-0.2,0h0c-0.7,0-0.9,0.7-1.2,1.5c-0.3,0.9-0.8,2.1-1.9,3c-0.9,0.7-1.7,2.2-2.2,3.4l-0.1,0.1l-6.1,1.2L121.6,109.5z
	 M106.5,126.9l14.3-2.8l-0.1,3.1l-16.1,3.1l-3.3-3c1.3-1.2,2.4-2.3,3.1-3L106.5,126.9z M104.7,123.1c0,0-1.7,1.7-3.8,3.8l-0.8-0.7
	c0.7-0.8,1.2-1.3,1.2-1.4c0.1-0.2,0.2-0.4,0.1-0.6c0,0-1-2.2-2.5-5.1c-0.3-1.7-0.6-3.3-1-4.8c-1.4-6.2-3.1-10.3-4.5-12.9
	C99.2,106.9,104.7,123.1,104.7,123.1z M88.7,138.1c-15.8-30.2-11.2-35.6-4.6-35.6c7,0,16.7,22,16.7,22S89.3,138.1,88.7,138.1z
	 M90.2,98.4c1.6,1,5.3,6.4,7.7,19.1c-0.8-1.4-1.6-2.9-2.5-4.4c-3.2-5.3-6.1-8.8-8.6-10.3h0c0.5,0.1,1,0.2,1.4,0.2
	c1.3,0,1.9-0.6,2.1-1c0.3-0.5,0.4-1.5-0.7-3.1L89,97.8C89.4,98,89.9,98.2,90.2,98.4z M106.4,90.3c-0.5-0.4-1.7-1.5-2.7-3.4
	c-0.8-1.5-0.8-3.4-0.7-4.3c1,0.8,3.8,2.7,7.8,2.7h0C109.7,87.1,108.2,88.8,106.4,90.3z M114,74.2c1.1,0.1,1.9,0.5,2.3,1.2
	c0.5,1.2-0.6,2.9-2.6,3.7c-0.1,0-0.2,0.1-0.2,0.1c-0.5,2-1.2,3.8-2.2,5.4c-4.8,0.2-8.1-2.8-8.2-2.8c-0.1-0.1-0.2-0.1-0.3-0.1
	c-0.1,0-0.2,0.1-0.2,0.2c0,0.1-0.4,3,0.7,5.1c1,1.9,2.2,3.1,2.7,3.5C102.5,93.4,98,95,93.3,95c-1.4,0-2.8-0.2-4.3-0.4
	c-3.2-0.7-6-2-8.4-3.8c1.1-0.5,2.5-1.8,3.5-4.7c0.5-1.4,0.5-3.1,0.5-5.1c0-1,0-2.1,0.1-3.2c0.6,0.4,1.5,0.7,2.6,0.8h0
	c0.2,0,0.2-0.1,0.3-0.2c0-0.2-0.1-0.3-0.2-0.3c-2-0.1-3.1-1.3-3.1-1.3c-0.1-0.1-0.1-0.1-0.2-0.1c-0.8-0.7-2.5-2.5-2-5
	c0.2-1.1,1.2-1.8,2.5-1.8c1.6,0,3.7,1.2,4.4,4.7l0.2,0.7l0.6-0.3c0.1,0,2.1-1.1,4.7-3.8c2.3-2.3,5.4-6.3,8-12.4
	c0.9,1.2,3,3.4,7.3,4.8c0.2,0.5,0.8,1.6,1.3,2.8c0.4,0.9,0.8,1.6,1.1,2.1c0.5,0.9,0.8,1.2,1.2,1.2C113.7,71,113.9,72.6,114,74.2z
	 M85.4,45.2L85.4,45.2c2.3,0.1,0.5,4.9,0.2,5.6c-0.1-0.1-0.2-0.2-0.3-0.4C84.7,49.1,83.2,45.2,85.4,45.2z M81,48.5
	c0.2-0.2,0.4-0.4,0.7-0.4c1.1,0,2.5,1.8,3.1,2.6c0.1,0.2,0.1,0.3,0.2,0.4C84.3,51,79.8,50.2,81,48.5z M79.3,90.5
	c-12.9-8-14.5-21.2-10-30.1c3.9-7.6,9.8-8.7,13-8.7c1.4,0,2.2,0.2,2.2,0.2c4.1-1.8,7.9-2.5,11.3-2.5c16,0,23.7,16.5,17.6,19.5
	c0,0,0,0,0,0c-0.5,0-3.2-5.9-3.2-5.9c-4.7-1.4-6.8-3.8-7.5-4.9c0.7-2.4-0.5-4.8-0.5-4.9c-0.1-0.1-0.2-0.2-0.4-0.1
	c-0.1,0.1-0.2,0.2-0.1,0.4c0,0,1.2,2.6,0.4,4.9v0c-0.1,0.2-0.1,0.3-0.2,0.4v0c-5,11.7-12.3,15.7-12.3,15.7c-0.7-3.6-3-5.1-4.9-5.1
	c-1.5,0-2.7,0.8-3,2.3c-0.7,3.6,2.6,5.9,2.6,5.9c-0.3,3.3,0,6.4-0.6,8.5C82,90.4,79.3,90.5,79.3,90.5z M79.7,95l0.9-3.6
	c2.4,1.8,5.2,3,8.2,3.6c-0.3,1.5-0.4,2.9-0.4,2.9l0.9,1.4c1.4,2,0.9,3.3-0.9,3.3c-0.4,0-0.8-0.1-1.3-0.2c-3.7-0.9-8.8-5.4-8.8-5.4
	L79.7,95z M77.6,226.6l15.4,2.6c0.8,0.1,0.7,1.5-1.5,2.6c0,0-1.8,1.1-7.4,1.1c-0.1,0-0.2,0-0.4,0c-3.8,0-10.5-0.1-11.2-0.8
	c-0.9-0.8,1.6-5.6,1.6-5.6L77.6,226.6z M77.8,206c-0.7,10-0.9,18.2-0.9,20l-2.7-0.1c-0.1,0-0.2,0-0.3,0.1
	c-4.1-15.5-3.1-32.1-1.9-41.6c1.7,0.3,3.7,0.5,6.1,0.5c0.5,0,0.9,0,1.4,0c0.6,0,1.2,0,1.7-0.1C79.9,190.9,78.3,199.5,77.8,206z
	 M79.5,184.3c-0.5,0-0.9,0-1.3,0c-8.7,0-12.7-2.5-12.7-2.5l0.6-17.4c7.4,2.4,17.1,2.9,24.4,2.9c0.7,0,1.5,0,2.1,0l-2,15.6
	C90.5,183,89.1,184,79.5,184.3z M101.2,221.7c0.7,0.1,1,1.5-1,2.5c0,0-0.8,1.2-6,1.2c-0.1,0-0.2,0-0.3,0c-3.6,0-9.8-0.1-10.5-0.7
	c-0.8-0.7,1.5-5,1.5-5l3.2,0.1L101.2,221.7z M88.6,199.1c-0.7,9.9-0.9,18.2-0.9,20l-2.8-0.1c-0.1,0-0.1,0-0.2,0
	c-3.4-12.9-3-25.6-1.9-34.4c6.6-0.4,7.9-1.2,8.1-1.2l0.2-0.1l0-0.2l0.1-0.6c0.3,0,0.5,0.1,0.8,0.1C90.5,187.5,89,193.7,88.6,199.1z
	 M94.7,181.5c0,0-0.7,0.5-2.2,0.5c-0.4,0-0.8,0-1.3-0.1l1.8-14.5c1,0,1.9,0,2.8-0.1L94.7,181.5z M99.9,166.6c0,0-3.9,0.3-9.5,0.3
	c-8.3,0-20.1-0.7-27.7-4.2c0,0,3.7-55.7,15.2-65.3c0.2,0.2,3.5,3,6.7,4.6c-0.2,0-0.3,0-0.5,0c-2.7,0-4.6,0.9-5.6,2.6
	c-2.9,4.7,0.3,15.8,9.8,33.7c0.1,0.2,0.3,0.3,0.5,0.3c0.3,0,0.6,0,5.9-6.1c0,0,0,0.1-0.1,0.1c0,0,0,0,0,0c2.4,2.2,4.9,4.6,5.7,5.4
	C100.6,146,100.6,155.5,99.9,166.6z M127.1,131.5c0.2-0.1,0.5-0.2,0.7-0.4c0.2,0.1,0.4,0.2,0.7,0.4L127.1,131.5z M135.7,132.3
	c-1.2,0-2.6-0.1-4.2-0.2c-1.6-0.1-3.7-1.6-3.7-1.6c-0.6,0.3-1.2,0.6-1.9,0.9h-0.2c0,0.1-0.1,0.1-0.1,0.2c-6.7,3-18.9,6.4-23.3,6.4
	c-0.8,0-1.3-0.1-1.6-0.3c-0.9-0.8-3.4-3.2-5.8-5.4c0.2-0.2,0.3-0.4,0.5-0.6c1.6-1.9,3.2-3.7,4.3-5.1l4.7,4.2l23.1-4.5l0.4-0.2
	c0.4-1,1.2-2.7,2.1-3.3c2.1-1.6,2-4.3,2.8-4.3c0.7,0,0.8,1.5,0.1,4.8c0,0,1.7-0.1,3.6-0.8c1.9-0.7,3.1-1.7,3.8-1.7
	c0.1,0,0.2,0,0.2,0.1c0.5,0.4,0,1.1-0.7,1.9c-0.7,0.7-3.5,2-3.5,2l0.1,0.3c0,0,5.5-1.7,6.6-1.7h0.2c1,0.3,0.7,1.5-0.8,2
	c-0.6,0.3-5.5,2.1-5.5,2.1l0.1,0.6c0,0,3.6-0.8,5.2-0.8c0.4,0,0.7,0.1,0.8,0.2c1.3,1.8-5.8,2.6-5.8,2.6v0.3c0,0,0.6-0.1,1.4-0.1
	c1.2,0,2.8,0.1,2.8,0.7C141.3,131.7,139.7,132.3,135.7,132.3z M150.1,132.1l-8.7-0.2c0,0,0.1-0.1,0.1-0.1c0.2-0.2,0.2-0.5,0.2-0.6
	c0-0.5-0.5-0.9-1.3-1.1c1.3-0.4,2.5-0.9,2.8-1.6c0.2-0.4,0.1-0.8-0.2-1.2c-0.2-0.3-0.5-0.4-1.2-0.4c-0.7,0-1.8,0.1-2.7,0.3
	c1.3-0.5,2.8-1.1,3.1-1.2c1.1-0.4,1.7-1.2,1.7-2c0-0.5-0.4-0.9-0.9-1.1c-0.1,0-0.2,0-0.3,0c-0.5,0-1.9,0.3-3.3,0.7
	c0.2-0.2,0.4-0.3,0.5-0.4c0.6-0.7,1.2-1.3,1.1-1.9c0-0.2-0.1-0.5-0.4-0.7c-0.2-0.1-0.4-0.2-0.6-0.2c-0.3,0-0.7,0.2-1.2,0.4l0.3-10.8
	l11.3,0.3L150.1,132.1z M150.7,109.7l-11.3-0.3l0.2-6.1l11.3,0.3c0,0.1-0.1,0.1-0.2,0.2h0.2L150.7,109.7z"/>
<path class="st13" d="M222.1,152.8c-0.8-11.1-1.9-20.6-3.5-28.2c-1.9-9.5-4.3-16.2-7.2-19.9c2.8-0.5,5.3-1.5,6.8-2.5
	c0.7-0.4,1.2-1.3,1.6-2.7c0.8-3.1,0.8-8.5,0-14c-0.7-4.6-2.4-11.4-6-17.5c-1.8-3-4-5.9-7.4-8.1c2.1-1.2,3.9-2.2,4.3-2.3
	c0.2,0,0.4-0.2,0.4-0.4c0.1-0.4-0.2-0.6-0.5-0.8c-0.2-0.2-0.5-0.3-0.9-0.6c-0.6-0.4-1.5-1-2.7-1.7c-1.9-1.2-3.9-2.4-3.9-2.5
	c-0.1-0.1-0.2-0.1-0.3-0.1c-0.1,0-0.1,0-0.2,0c-0.2,0.1-0.3,0.2-0.3,0.3l-2.2,5.5c-1.8-0.4-3.8-0.6-6.1-0.6c-1,0-2.1,0-3.1,0.1
	c-1.8,0.2-3.5,0.4-5,0.8l2.5-6.2c0.1-0.2,0.1-0.4-0.1-0.5c-0.1-0.2-0.3-0.2-0.5-0.2l-8.1,0.1c-0.2,0-0.3,0.1-0.4,0.2
	c-0.1,0.1-0.1,0.3-0.1,0.5c0,0,0.5,2.1,1.1,4.2c0.5,1.8,0.8,2.9,1,3.6c-2.6,1.2-4.4,2.6-5.8,3.9c-2.8,2.7-3.7,5.3-3.7,5.4
	s0,0.3,0,0.4c0,0.1,0.4,0.9,1.5,2.1c-0.1,0.1-0.2,0.3-0.2,0.4c-2,4.1-2.8,8.9-2.2,13.4c-0.9,0.4-1.6,1.1-1.8,1.9
	c-0.2,0.7,0,1.3,0.4,1.9c0.6,0.9,1.6,1.5,2.8,1.8c0.5,1.2,1.1,2.4,1.8,3.5c0,0,0.7,1,1.5,2c0.8,1,1.7,1.9,1.8,1.9c0,0,1,0.8,1.6,1.2
	c2.9,2.1,6.4,3.2,9.9,3.2c1.4,0,2.7-0.2,4-0.5l0.2,1l-0.7,1.3c-0.7,1-1.3,2.2-1.9,3.5c-1,2.2-4,9.5-6.9,21.6l-14.6,4
	c-0.4-0.5-1.9-2.3-3.6-2.3c-2.5,0-3.8-1.7-3.9-1.7c0-0.1-0.1-0.1-0.2-0.1c-0.1,0-0.2,0-0.2,0.1c0,0-0.8,0.6-0.4,1.7
	c0.5,1.4,1.7,2.1,2.3,2.4c-0.3,0.1-1,0.2-2.2,0.3c-3.1,0.3-4.6-0.5-5.3-1c-0.3-0.2-0.5-0.3-0.8-0.2c-0.2,0.1-0.3,0.4-0.3,0.6
	c-0.1,0.8,0.4,1.5,1,1.9c-0.2,0-0.3,0.1-0.5,0.2c-0.1,0.1-0.3,0.4-0.2,0.8c0.1,0.5,0.6,0.8,1.1,1.1c-0.1,0.1-0.2,0.1-0.3,0.2
	c-0.2,0.3-0.2,0.6,0.1,1.1c0.3,0.5,0.9,0.8,1.4,1c-0.1,0.1-0.2,0.2-0.2,0.4c-0.1,0.4,0.2,1.2,2.7,1.6c0.1,0,0.2,0,0.3,0
	c0.3,0.1,0.5,0.1,0.9,0.1c0.5,0,1.2-0.1,2.8-0.3c0.1,0,0.2-0.1,0.4-0.1c0.3,0.2,0.5,0.3,0.8,0.5c-0.4,0.1-1,0.2-1.8,0.3
	c-0.4,0-0.8,0.1-1.2,0.1c-2.2,0-3.3-0.6-3.8-1c-0.3-0.2-0.5-0.3-0.7-0.3c-0.4,0-0.7,0.3-0.7,0.9c-0.1,0.8,0.3,1.4,0.7,1.9
	c-0.1,0.1-0.2,0.1-0.2,0.2c-0.1,0.2-0.3,0.5-0.1,0.9c0.1,0.4,0.4,0.8,0.8,1.1c0,0-0.1,0.1-0.1,0.1c-0.2,0.3-0.2,0.8,0.2,1.3
	c0.3,0.5,0.8,0.8,1.2,1c0,0.1,0,0.2-0.1,0.2c-0.1,0.6,0.4,1.5,2.9,1.9c0.1,0,0.2,0,0.3,0c0.3,0.1,0.6,0.1,0.9,0.1
	c0.5,0,1.2-0.1,2.8-0.3c3.7-0.6,5.9-2.5,6.5-3c1.3-0.1,4.5-0.5,8.1-1.1c-2.2,14.1-3.2,28.8-3,43.9c0,0.2,0.2,0.4,0.4,0.5
	c0.1,0,4.6,1.4,11.9,2.1c2.6,14.8,2.5,21.3,2.4,24.1c0,0.3,0,0.5,0,0.7l-0.2,0.8l-12.3,1.8c-0.4,0.1-0.7,0.4-0.8,0.8
	c-0.1,0.6,0.3,1.7,1.8,2.5c0.2,0.1,1.9,1.1,6.6,1.2h0.1c1.1,0,2.5,0.1,3.9,0.1c4.6,0,5.3-0.3,5.6-0.6c0.5-0.5,0.5-1.4-0.2-3.2
	c-0.3-0.9-0.7-1.7-0.8-2.1c2.3-10,2.6-19.3,2.4-25.7h0.8h0.8c0.7,4.4,1.2,9.2,1.4,13c0.4,8.5,0.4,15.8,0.4,18.6l-0.2,0.8l-13.3,1.8
	c-0.5,0.1-0.8,0.4-0.8,0.8c-0.1,0.7,0.3,1.7,1.9,2.5c0.2,0.1,2,1.1,7.1,1.2h0.1c1.2,0,2.7,0.1,4.2,0.1c4.9,0,5.7-0.3,6-0.6
	c0.5-0.5,0.5-1.4-0.2-3.2c-0.3-0.9-0.7-1.7-0.9-2.1c3.4-11.7,3.7-24.2,3.4-32.6c0-0.3,0-0.6,0-0.8c4.9-0.5,9.6-1.4,14.2-2.7
	c0.2-0.1,0.4-0.3,0.4-0.5C223.2,188.8,223.4,171.7,222.1,152.8L222.1,152.8z M202.7,52.1c0,0,8.1,5,7.8,5s-9.1,5-9.1,5l-2.2-1.4
	L202.7,52.1z M179.6,51.4l8.1-0.1l-2.7,6.6c-1.3,0.3-2.5,0.8-3.5,1.2C180.9,56.9,179.6,51.4,179.6,51.4z M172.1,68.8
	c0,0,3.3-10.1,18.6-11.3c1.1-0.1,2.1-0.1,3.1-0.1c2.2,0,4.2,0.2,6,0.6l-1.1,2.6c-0.1,0.2,0,0.5,0.2,0.7l2.2,1.4
	c0.1,0.1,0.2,0.1,0.3,0.1c0.1,0,0.2,0,0.3-0.1c1.2-0.7,2.7-1.5,4.1-2.3c3.3,2,5.6,4.9,7.5,8.1c7.6,12.8,7.8,31.7,4.7,33.4
	c-2.1,1.2-6.2,2.8-10.4,2.8c-2.1,0-4.1-0.4-6-1.4c-2.4-1.3-1.4-15.8-1.4-15.8s0-0.3,1.4-1.6c1.5-1.5,1.7-5.9-0.5-6.8
	c-0.4-0.2-0.7-0.2-1-0.2c-2.4,0-4,3.5-4,3.5C175.9,76.9,172.1,68.8,172.1,68.8z M174.9,94.4c3.6-0.5,6.1-2.4,7.1-3.3
	c-0.1,0.9-0.5,2.5-1.6,3.8c-1.2,1.4-2.5,2.2-3,2.5C177.2,97.1,176,96.1,174.9,94.4z M188.8,101.8c-4,0-7.9-1.5-11-4.1
	c0.6-0.4,1.8-1.1,3-2.5c1.7-2,1.8-4.7,1.8-4.8c0-0.1-0.1-0.2-0.2-0.2c-0.1,0-0.2,0-0.3,0.1c0,0-2.8,3.2-7.6,3.7
	c-0.8-1.2-1.4-2.4-1.9-3.7c-0.1,0-0.1,0-0.2,0c-1.9-0.4-3.2-1.8-2.9-3.1c0.2-0.8,0.9-1.4,1.8-1.7c-0.7-4.8,0.2-9.6,2.3-13.8
	c0.7,0.7,1.5,1.5,2.6,2.4c3.2,2.5,9.2,6.1,19.8,8.9c0.1,0,0.1,0,0.2,0c0.2,0,0.4-0.1,0.5-0.3c0,0,1.5-3.2,3.5-3.2
	c0.3,0,0.5,0.1,0.8,0.2c0.8,0.4,1.2,1.4,1.2,1.9c0.3,1.5-0.2,3.2-0.9,4c-0.6,0.6-1,1-1.2,1.3c-0.1,0-0.1,0.1-0.1,0.1
	c0,0-1.5,2-2.7,1.9c-0.5,0-0.9-0.4-1.3-1c-0.1-0.1-0.2-0.2-0.4-0.1c-0.1,0.1-0.2,0.2-0.1,0.4c0.5,0.8,1,1.2,1.7,1.3h0.2
	c0.9,0,1.8-0.8,2.4-1.4c-0.1,1.1-0.2,4-0.2,6.9c0,1.2,0.1,2.3,0.1,3.2c-1,0.8-2.1,1.4-3.2,2C194,101.2,191.4,101.8,188.8,101.8
	L188.8,101.8z M191.9,106l0.9-1.7l0.8-1.4l-0.2-1.2c1.1-0.3,2.2-0.7,3.3-1.3c1.1-0.5,2.1-1.2,3-1.8c0.3,3.8,1.1,4.7,1.7,5
	c0.4,0.2,0.8,0.4,1.2,0.6c-0.1,0-0.2-0.1-0.3-0.1c-0.1,0.2-0.2,0.4-0.3,0.5c-2.2,3.6-4.8,4.5-6.8,4.5c-0.8,0-1.5-0.1-2.1-0.3
	C191.9,108.5,191.3,107.1,191.9,106z M160.1,140.8c-0.1,0-0.2,0-0.3-0.1c-1.8-0.3-2.3-0.8-2.2-1c0-0.2,0.2-0.3,0.3-0.3h0
	c0,0,0.4,0,0.9,0c1,0,2.4-0.1,3.1-0.5c0.1-0.1,0.2-0.2,0.1-0.4c-0.1-0.1-0.2-0.2-0.4-0.1c-0.8,0.5-3,0.5-3.7,0.4
	c-0.4-0.1-1.3-0.3-1.7-0.9c-0.2-0.3-0.2-0.5-0.2-0.5c0,0,0.2-0.2,1.3,0.1c0,0,0.1,0,0.1,0h0h0c0.1,0,0.7,0.1,1.6,0.1
	c0.8,0,1.8-0.1,2.8-0.4c0.2,0,0.2-0.2,0.2-0.3c0-0.2-0.2-0.2-0.3-0.2c-1.8,0.6-3.9,0.3-4.1,0.2c0,0,0,0-0.1,0
	c-0.8-0.2-2-0.8-2.1-1.4c0-0.1-0.1-0.2,0-0.2c0.2-0.2,0.8-0.1,1.3,0.1c0.1,0,0.1,0.1,0.1,0.1c0.3,0.1,1.4,0.3,2.5,0.3
	c0.9,0,1.8-0.1,2.4-0.4c0.1-0.1,0.2-0.2,0.1-0.4c-0.1-0.1-0.2-0.2-0.4-0.1c-1.2,0.6-4.1,0.2-4.5,0.1c0,0,0,0,0,0l0,0
	c0,0-2-0.8-1.8-2.1c0-0.1,0-0.1,0-0.1c0.1,0,0.2,0.1,0.2,0.1c0.7,0.5,2.3,1.4,5.6,1.1c2.7-0.3,2.9-0.5,3-0.8c0-0.2-0.1-0.3-0.2-0.4
	c0,0,0,0-0.1,0c0,0-1.8-0.5-2.4-2.1c-0.1-0.4,0-0.7,0.1-0.9c0.5,0.5,1.9,1.6,4.1,1.7c1.7,0,3.2,2.2,3.2,2.2c0.1,0.1,0.2,0.1,0.3,0.1
	l14.5-3.9c-0.5,1.9-0.9,3.9-1.3,6c-5.2,0.9-10.5,1.6-12.2,1.7c-0.1,0-0.2,0-0.2,0.1c0,0-0.7,0.8-2,1.5c0.2,0,0.4,0.1,0.6,0.2
	c-0.2-0.1-0.5-0.1-0.8-0.2c-2.4,0-3.6-1.6-3.7-1.6c-0.1-0.1-0.3-0.2-0.4-0.2c-0.1,0-0.2,0-0.3,0.1c-0.4,0.3-1,1.1-0.5,2
	c0.2,0.4,0.5,0.8,0.8,1.1C161,141,160.8,140.9,160.1,140.8L160.1,140.8z M182,136.4c0,0.1-0.1,0.2-0.1,0.3c-0.1,0.6-0.2,1.2-0.4,1.8
	l-10.4,2.8c-0.5-0.5-1.5-1.7-2.8-2.1c0.9-0.5,1.5-1.1,1.6-1.3C171.6,138,176.8,137.3,182,136.4z M171.9,146.3c0,0-2.2,2.4-6.3,3
	c-1.5,0.2-2.2,0.3-2.7,0.3c-0.4,0-0.7-0.1-1.1-0.2c-2.4-0.4-2.7-1.1-2.4-1.5c0.6,0.1,1.6,0.3,2.8,0.3c0.5,0,0.9,0,1.4-0.1
	c0.2,0,0.2-0.2,0.2-0.3c0-0.2-0.2-0.2-0.3-0.2c-2.2,0.3-4.4-0.3-4.4-0.3c-0.1,0-0.1,0-0.2,0c-0.3-0.2-0.6-0.4-0.8-0.7
	c-0.3-0.5-0.3-0.8,0-0.9c0.7,0.3,2.3,0.8,4.7,0.8c0.3,0,0.5,0,0.8,0c0.2,0,0.3-0.1,0.2-0.3c0-0.2-0.1-0.3-0.3-0.2
	c-3.5,0.2-5.6-0.9-5.6-0.9c-0.1,0-0.1,0-0.2,0c-0.3-0.2-0.6-0.5-0.6-0.8c-0.1-0.4,0.1-0.6,0.4-0.6c0.5,0.2,2.3,0.9,4.2,0.9
	c0.5,0,1.1-0.1,1.6-0.2c0.2,0,0.2-0.2,0.2-0.3c0-0.2-0.2-0.2-0.3-0.2c-2.5,0.7-5.6-0.7-5.6-0.8c0,0,0,0,0,0
	c-0.5-0.4-0.8-0.9-0.8-1.6c0-0.3,0.1-0.4,0.2-0.4c0.4,0,1.4,1.3,4.6,1.3c0.4,0,0.8,0,1.3-0.1c3.4-0.3,2.9-0.9,2.9-0.9
	s-2.1-0.6-2.8-2.1c-0.4-0.8,0.3-1.4,0.3-1.4s1.4,1.8,4.1,1.8c1.8,0,3.5,2.3,3.5,2.3l19.5-5.3c0,0.1,0.1,0.1,0.1,0.2
	c0.4,0.2,0.7,0.6,0.7,0.8c0,0.2,0.1,0.3,0.3,0.3s0.3-0.1,0.3-0.3c0-0.6-0.8-1.2-1-1.3c0,0,0,0-0.1,0c1.1-2.5,10.2-23.2,13.5-24.2
	c0.5-0.1,0.9-0.2,1.4-0.2c2.7,0,4.2,2.4,3.3,5.5c-1,3.6-11.9,23.4-13.6,24.5C193.7,143.3,174.9,146.1,171.9,146.3z M195.7,220.3
	c0.5,1.2,0.8,2.7,0.5,3c-0.4,0.4-2.8,0.5-5.3,0.5c-1.4,0-2.8,0-3.9-0.1c-4.8-0.1-6.4-1.1-6.4-1.1c-1.7-1-1.8-2.2-1.2-2.3l3.3-0.5
	c1.1,1.4,2.8,3.1,4.8,3.6C190.6,224.3,193.2,223.2,195.7,220.3z M195,218.4c0,0.1,0.2,0.6,0.5,1.3c-2.4,3-4.9,4-7.8,3.2
	c-1.7-0.5-3.2-2-4.3-3.2l8.7-1.3l0.3-1.2c0-2.2,0.5-8.5-2.4-24.8c2.2,0.2,4.6,0.3,7.2,0.4C197.6,199.6,197.2,208.7,195,218.4z
	 M205.9,230.5c-0.4,0.4-3,0.5-5.7,0.5c-1.5,0-3,0-4.3-0.1c-5.2-0.1-6.8-1.1-6.8-1.1c-1.8-1-1.9-2.2-1.2-2.3l3.6-0.5
	c1.2,1.4,3,3.1,5.1,3.6c3.3,0.8,6.1-0.2,8.8-3.2C205.8,228.7,206.3,230.1,205.9,230.5z M204.6,225.6c0,0.1,0.3,0.6,0.6,1.3
	c-2.6,3-5.3,4-8.4,3.2c-1.8-0.5-3.5-2-4.6-3.2l9.4-1.3l0.4-1.2c0-2.7,0.1-10-0.4-18.7c-0.2-3.9-0.8-8.6-1.4-13
	c2.6,0,5.3-0.2,7.8-0.4C208.4,201.6,208,214,204.6,225.6z M222.6,188.9c-8.7,2.4-16.9,3.2-23.9,3.2c-3.4,0-6.4-0.2-9.2-0.5
	c0,0-0.1,0-0.1-0.1v0.1c-7.2-0.7-11.7-2-11.7-2c-0.3-16.8,1-31.6,3-44c1.1-0.2,2.3-0.4,3.4-0.5c4.7-0.8,10.4-1.8,11.4-2.5
	c1.3-0.9,5.8-9,7.2-11.5c2.9-5.2,6.1-11.3,6.6-13.3c0.5-1.8,0.3-3.5-0.6-4.7c-0.8-1-1.9-1.5-3.2-1.5c-0.5,0-1,0.1-1.5,0.2
	c-0.6,0.2-2.4,0.7-8.5,12.8c-2.6,5.2-4.9,10.5-5.4,11.6l-8.2,2.2c2.8-14.7,6.5-25.3,8.8-30.6c0.1-0.2,0.2-0.4,0.3-0.6
	c0,0.2,0.1,0.4,0.2,0.6c0.3,0.7,0.9,1.2,1.6,1.5c0.8,0.2,1.5,0.3,2.2,0.3c2,0,4.8-0.8,7.3-4.8c0.2-0.2,0.3-0.5,0.4-0.7
	c1.4,0.5,3.1,0.8,4.8,0.8c1.1,0,2.1-0.1,3.1-0.3c0,0,0.1,0.1,0.1,0.1C223.7,120.8,222.6,188.9,222.6,188.9z"/>
<path class="st13" d="M175.4,81.3c-0.6,0-1.1,0.9-1,1.9c0.1,1,0.6,1.8,1.2,1.8c0.6,0,1.1-0.9,1-1.9S176,81.3,175.4,81.3z"/>
<path class="st13" d="M177,78.7c-0.8-0.5-1.8-0.7-2.5-0.5c-0.2,0-0.2,0.2-0.2,0.3c0,0.2,0.2,0.2,0.3,0.2c0.7-0.2,1.5,0,2.1,0.4
	c0.7,0.4,1.2,1.1,1.3,1.7c0,0.1,0.2,0.2,0.3,0.2h0.1c0.2,0,0.2-0.2,0.2-0.3C178.4,80,177.8,79.2,177,78.7z"/>
</svg>
