<?xml version="1.0" encoding="utf-8"?>
<!-- Generator: Adobe Illustrator 23.1.0, SVG Export Plug-In . SVG Version: 6.00 Build 0)  -->
<svg version="1.1" id="Слой_1" xmlns="http://www.w3.org/2000/svg" xmlns:xlink="http://www.w3.org/1999/xlink" x="0px" y="0px"
	 viewBox="0 0 283.5 283.5" style="enable-background:new 0 0 283.5 283.5;" xml:space="preserve">
<style type="text/css">
	.st0{fill:#1F3F80;}
	.st1{fill:#7096CE;}
	.st2{fill:#375AA4;}
	.st3{fill:#FBEA3F;}
	.st4{fill:none;}
	.st5{fill:#FFD100;}
	.st6{fill:#1D1D1B;}
</style>
<g>
	<polygon class="st0" points="218.3,107 137.3,133.5 68.3,109.3 67.7,166.9 137.1,194.8 137.1,194.6 218.3,163.8 	"/>
	<polygon class="st1" points="146.2,74.3 67.8,97.1 137,123.1 218.5,97.3 	"/>
	<polygon class="st2" points="137.4,123.3 137.4,123.2 67.9,97.1 68.1,116.4 137.3,141.8 137.3,142 218.1,115.2 218.3,97.9 	"/>
	<polygon class="st3" points="184,108.6 138,94.3 173.2,112.1 	"/>
	<polygon class="st3" points="96,107.9 115,101.8 108.6,112.4 	"/>
	<path class="st3" d="M137.3,83.1c0,0-5.6-13.3-16.8-14.9c-12.3-1.8-12.1,5.5-12.1,5.5s-3.4,15.9-2.6,20.6c0.5,3.3,2.1,5,7.5,6
		c7.2,1.3,26.8-5.1,26.8-5.1L137.3,83.1z"/>
	<path class="st4" d="M137.3,83.1c0,0-5.6-13.3-16.8-14.9c-12.3-1.8-12.1,5.5-12.1,5.5s-3.4,15.9-2.6,20.6c0.5,3.3,2.1,5,7.5,6
		c7.2,1.3,26.8-5.1,26.8-5.1L137.3,83.1z"/>
	<g>
		<polygon class="st3" points="95.8,178.2 108.6,183.3 108.6,112.4 96,107.9 		"/>
		<path class="st3" d="M99.8,104.1c-0.2-0.1-0.3-0.1-0.3-0.1S99.6,104,99.8,104.1z"/>
		<path class="st3" d="M178.2,108c0.7-2.2,3.9-8.2,4.7-9.6c0.3-0.5,0.6-1.1,0.6-1.7c5.3-1,8.4-2.5,8.4-2.5
			c-9.8-13.9-7.9-27.3-7.9-27.3c-5.8,4.7-6.2,1.3-13.2,3.6c-10,3.5-14.9,9.3-16.9,12.5c-1.4-1.8-4.9-3.9-9.5-3
			c-1.3,0.2-1.9,0.4-4.1,0.8c-1.3,0.3-2.4,1-3.2,1.9c-0.9-2-6.5-13.1-16.6-14.6c-12.3-1.8-12.1,5.5-12.1,5.5s-3.4,15.9-2.6,20.6
			c0.3,2.1,1.1,3.6,3.1,4.7c-0.7,0.6-1.4,1.1-2,1.6c-4.2,3.7-6.3,3.8-7.1,3.6c0.6,0.3,2.4,1.3,6,4.7c8.9,8.2,10,16.2,10,16.2
			c13.7-2.3,17.8-16.7,18.8-19.9c0.9-3.2,5.4-4.8,6.2-6.7c0.4-0.9,0.1-1.4-0.3-1.8c1,0.3,2.2,0.3,3.5,0.5c1.4,0.2,3.1,0.2,4.6,0.1
			c3.2,4,19.8,14.7,24.6,16.7l0.1,66.9l10.6-4.1v-68.1l-6.7,2.2C177.7,109.8,178,108.8,178.2,108z M138.6,95.6
			C138.6,95.6,138.6,95.6,138.6,95.6c0.1,0,0.1,0,0.1,0.1C138.7,95.6,138.6,95.6,138.6,95.6z"/>
	</g>
	<g>
		<path class="st5" d="M165.1,101.9c-5-1.9-10.7,0.1-16.2-4.5c0,0,2.2,5.8,11.4,12.8c9.2,7.1,13.7,4.7,14.5,3.5
			S174.7,105.4,165.1,101.9z"/>
		<path class="st5" d="M136.7,94.6c0.3,0.2,0.6,0.3,0.9,0.5C138.5,95.7,138.1,95.3,136.7,94.6z"/>
		<path class="st5" d="M105.4,94c0,0,0.4,4,3,4.7c1.2,0.3,3.3-4.9,15.2-6.3c6.2-0.7,10.8,1,13,2.1c-4.6-2.8-13.6-5.8-22.8-5.8
			C104.1,88.8,105.4,94,105.4,94z"/>
	</g>
	<path class="st6" d="M218.8,97.9L218.8,97.9c0-0.1,0-0.2,0-0.2l0,0c0-0.1,0-0.1,0-0.2c0-0.2-0.2-0.5-0.4-0.5l-29.9-9.5
		c-2.2-4.7-3.3-9-3.7-12.1c-0.7-4.8-0.3-8-0.3-8.3c0,0,0-0.1,0-0.1c0-0.3-0.2-0.6-0.6-0.6l0,0c-0.1,0-0.3,0.1-0.3,0.1
		c-2.9,2.4-4.4,2.6-6,2.6c-0.2,0-0.4,0-0.6,0c-0.2,0-0.5,0-0.7,0c-1.4,0-3.1,0.1-5.6,1c-6.1,2.1-10.2,5.1-12.9,7.6l-11.2-3.6
		c-0.1,0-0.1,0-0.2,0s-0.1,0-0.2,0l-11.5,3.3c-0.3-0.5-0.7-1-1.1-1.5c-3.7-4.7-8.2-7.6-12.9-8.3c-1.3-0.2-2.6-0.3-3.7-0.3
		c-3.3,0-5.8,0.8-7.3,2.4c-1.6,1.6-1.7,3.4-1.7,3.8c-0.2,0.7-1.4,6.7-2.2,12.2l-37.5,11l0,0c-0.1,0-0.1,0-0.2,0.1
		c-0.2,0.1-0.2,0.3-0.2,0.5v19c0,0-0.1,0-0.1,0l-0.5,50.6c0,0.2,0.1,0.4,0.3,0.5l28,11.3c0,0,0,0,0.1,0l2.4,1l38.8,15.6
		c0.1,0,0.1,0.1,0.2,0.1c0.1,0,0.2,0,0.3-0.1c0.1,0,0.1-0.1,0.1-0.1c0,0,0-0.1-0.1-0.1l81-30.7c0.2-0.1,0.3-0.3,0.3-0.5
		c0,0,0-57.1-0.1-57.1L218.8,97.9z M217.9,97.4l-34.2,10.8c0,0,0.1,0.1,0.1,0.1l-4.5-1.4c1.1-2.6,3.5-7,4.2-8.2
		c0.3-0.5,0.5-1,0.6-1.5c5-1,7.9-2.4,8.1-2.5c0.1-0.1,0.2-0.2,0.3-0.4c0-0.2,0-0.3-0.1-0.5c-1.4-1.9-2.5-3.9-3.4-5.8L217.9,97.4z
		 M175.3,110.3c-0.6-1.8-2.7-6.3-9.9-8.9c-2-0.7-4-0.9-6-1.1c-3.1-0.3-6.2-0.5-9.3-2.7c1.2-0.2,2.4-0.6,3.3-1.3c1,0,2,0.1,2.9,0.2
		c1,0.1,2,0.3,3,0.6c0.5,0.1,1,0.3,1.4,0.4c0.5,0.2,1,0.3,1.4,0.5c1,0.3,1.9,0.8,2.8,1.3c-0.9-0.5-1.8-1-2.7-1.4
		c-0.5-0.2-0.9-0.4-1.4-0.6c-0.5-0.2-1-0.4-1.4-0.5c-1-0.3-2-0.6-3-0.8c-0.7-0.2-1.5-0.3-2.2-0.3c0.2-0.3,0.4-1,0.6-2.4
		c4.4-0.4,11.9-1,17.8-1c3.9,0,7.1,0.3,8.2,1c3.6,2.5,3.1,3.9,2.3,5.3c-0.9,1.4-4,7.4-4.7,9.6c-0.5,1.8-1.4,4.6-2.8,5.8
		C175.8,112.9,175.7,111.7,175.3,110.3z M127.7,119.2c2.9-3.1,5.5-7.5,7.4-13.8l0-0.1c0.5-1.7,2.2-3,3.7-4.1
		c1.1-0.9,2.1-1.6,2.5-2.5c0.2-0.5,0.3-0.9,0.2-1.3c0.4,0.1,0.9,0.1,1.3,0.1c0.4,0,0.7,0.1,1.1,0.1c0,0,0.1,0,0.1,0l6.1,3.1
		c1.6,2.4,4.6,5.9,9.8,9.9c1.9,1.5,3.7,2.5,5.2,3.3l-28,8.8l0,0L127.7,119.2z M95.8,178.2L96,108l12.5,4.5c0,0,0.1,0,0.1,0v70.8
		l-10.4-4.1L95.8,178.2z M146.7,97.3c-0.9,0-1.8-0.1-2.7-0.2c-3.2-0.4-5.5,0-7-4.2c-0.6-1.6-1.3-4.9-1.2-7c0.1-2.5,2-4.6,4.5-5.1
		c2.2-0.5,2.8-0.6,4.1-0.8c0.7-0.1,1.4-0.2,2.1-0.2c4.7,0,7.9,3,8.1,4.6c0.2,1.8-0.1,10.2-1.1,11.1
		C151.9,96.8,149.3,97.3,146.7,97.3z M148.5,97.8c0.1,0.3,0.5,1,1.1,2.1l-4.1-2c0.4,0,0.8,0,1.2,0C147.3,97.9,147.9,97.8,148.5,97.8
		z M137.5,95c0.1,0.1,0.2,0.2,0.3,0.4c-0.2,0-0.5,0-0.7,0c-0.8,0-1.6,0-2.3,0.1c-1.5,0.2-3,0.5-4.5,1c-1.4,0.5-2.8,1.2-4.1,2
		c-1.3,0.8-2.5,1.8-3.5,2.9c1.1-1,2.3-2,3.6-2.7c1.3-0.7,2.7-1.4,4.1-1.8c1.4-0.4,2.9-0.7,4.4-0.8c0.7-0.1,1.5-0.1,2.2,0
		c0.5,0,1,0.1,1.6,0.2c0.4,0.3,0.8,0.5,1.2,0.7c-0.4,0.1-0.8,0.3-1.2,0.5c-0.6,0.3-1.2,0.6-1.7,0.9c-1.1,0.7-2.1,1.5-3,2.5
		c-0.9,1-1.6,2.1-2.2,3.2c-0.5,1.2-0.9,2.4-1.2,3.7c0.3-1.3,0.7-2.5,1.3-3.6c0.6-1.1,1.4-2.1,2.3-3s1.9-1.6,3-2.2
		c0.6-0.3,1.1-0.6,1.7-0.8c0.6-0.2,1.2-0.4,1.8-0.5h0h0c0.1,0,0.2-0.1,0.2-0.2h0c0.1,0.3,0.1,0.7-0.2,1.2c-0.9,1.8-5.3,3.5-6.2,6.7
		c-0.9,3.2-5.1,17.6-18.8,19.9c0,0-1.1-8-10-16.2c-3.6-3.3-5.4-4.4-6-4.7c-0.3-0.1-0.4-0.1-0.4-0.1s0.1,0,0.4,0.1
		c0.1,0,0.3,0.1,0.5,0.1c1,0,3.1-0.6,6.6-3.6c3.7-3.3,10.6-7.9,19.4-7.9C129.8,92.6,133.5,93.3,137.5,95z M127.3,119.7l9.4,3.6
		c0,0.1,0,0.1,0,0.1v10.2l0,8.2l-27.5-10.1v-18.6c5.3,6.4,6.1,11.9,6.2,12c0,0.2,0.1,0.3,0.2,0.4c0.1,0.1,0.2,0.1,0.3,0.1
		c0,0,0.1,0,0.1,0C119.4,125,123.6,123.4,127.3,119.7z M108.6,112.4L108.6,112.4C108.6,112.5,108.6,112.4,108.6,112.4L108.6,112.4z
		 M105.5,109.2c0.9,0.8,1.6,1.6,2.4,2.4l-10.9-3.9l4.9-1.6C102.7,106.8,103.9,107.8,105.5,109.2z M109.2,183.3v-51l27.5,10.1
		l-0.2,52.2l-27.4-11C109.1,183.5,109.2,183.4,109.2,183.3z M137.3,123.4l28.7-9c2.3,1,4.1,1.3,5.3,1.3c0.6,0,1-0.1,1.5-0.2l0,14.7
		l-35.5,11.7C137.3,141.9,137.3,123.4,137.3,123.4z M171.2,115.1c-2.4,0-5.9-1.1-10.9-4.9c-8-6.2-10.7-11.3-11.3-12.5
		c0.1,0,0.1,0,0.2,0c5.4,4.2,10.9,2.4,15.9,4.2c9.6,3.6,10.5,10.6,9.7,11.9C174.4,114.3,173.3,115.1,171.2,115.1z M178.8,108.1
		c0.1-0.2,0.2-0.5,0.3-0.8l4,1.3l-5,1.6C178.3,109.5,178.6,108.8,178.8,108.1z M170.8,70.5c2.5-0.9,4.1-1,5.4-1c0.5,0,0.9,0,1.4,0
		c1.8,0,3.3-0.2,6.4-2.7c0,0-1.9,13.5,7.9,27.3c0,0-2.8,1.4-7.8,2.4c-0.1-1.2-0.9-2.4-3.1-3.9c-1.1-0.8-3.9-1.2-8.5-1.2
		c-5.8,0-13.3,0.6-17.7,1c0,0,0-0.1,0-0.1c0.4-0.3,0.9-0.6,1.4-0.8c0.3-0.2,0.6-0.3,0.8-0.4l0.9-0.4c1.2-0.5,2.4-0.8,3.6-1
		c0.6-0.1,1.2-0.2,1.9-0.2c0.6,0,1.3,0,1.9,0.1c1.3,0.1,2.5,0.4,3.7,0.7c-1.2-0.4-2.4-0.8-3.7-1c-0.6-0.1-1.3-0.1-1.9-0.2
		c-0.6,0-1.3,0-1.9,0.1c-1.3,0.1-2.5,0.4-3.7,0.8l-0.9,0.3c-0.3,0.1-0.6,0.2-0.9,0.4c-0.3,0.2-0.6,0.3-1,0.5c0-0.2,0.1-0.5,0.1-0.7
		c0.1-0.1,0.2-0.3,0.3-0.4c0.1-0.2,0.2-0.3,0.3-0.5l0.4-0.4c0.1-0.1,0.3-0.3,0.4-0.4s0.3-0.3,0.5-0.4c0.2-0.1,0.3-0.2,0.5-0.4
		c0.3-0.2,0.7-0.5,1-0.7c0.3-0.2,0.7-0.4,1.1-0.6c0.4-0.2,0.7-0.3,1.1-0.5l1.2-0.4c0.2-0.1,0.4-0.1,0.6-0.2l0.6-0.2
		c0.8-0.2,1.6-0.3,2.4-0.5c0.4-0.1,0.8-0.1,1.2-0.2c0.4-0.1,0.8-0.1,1.2-0.2c0.8-0.1,1.6-0.1,2.5-0.1h2.5l-2.5-0.1
		c-0.8,0-1.7,0-2.5,0c-0.4,0-0.8,0.1-1.2,0.1c-0.4,0.1-0.8,0.1-1.2,0.1c-0.8,0.1-1.7,0.2-2.5,0.4l-0.6,0.1c-0.2,0.1-0.4,0.1-0.6,0.2
		l-1.2,0.4c-0.4,0.2-0.8,0.3-1.2,0.5c-0.4,0.2-0.7,0.4-1.1,0.6s-0.7,0.4-1.1,0.6c-0.2,0.1-0.3,0.2-0.5,0.4c-0.2,0.1-0.3,0.2-0.5,0.4
		c-0.2,0.1-0.3,0.3-0.5,0.4l-0.4,0.4c0-0.6,0.1-1.2,0.1-1.8c0.3-0.5,0.7-0.9,1.1-1.3l0.3-0.3l0.3-0.3c0.2-0.2,0.5-0.4,0.7-0.6
		c1-0.8,2-1.5,3.1-2.1c0.6-0.3,1.1-0.6,1.7-0.8c0.6-0.3,1.2-0.5,1.7-0.7c0.3-0.1,0.6-0.2,0.9-0.3l0.9-0.3c0.6-0.2,1.2-0.3,1.8-0.5
		c-0.6,0.1-1.2,0.2-1.9,0.3l-0.9,0.2c-0.3,0.1-0.6,0.2-0.9,0.2c-0.6,0.2-1.2,0.4-1.8,0.6c-0.6,0.2-1.2,0.5-1.8,0.7
		c-1.2,0.6-2.2,1.2-3.3,2c-0.3,0.2-0.5,0.4-0.7,0.6l-0.4,0.3l-0.3,0.3c-0.2,0.2-0.4,0.4-0.6,0.6c0-0.8,0-1.4-0.1-1.8
		c-0.1-0.6-0.4-1.2-0.9-1.8C156.4,79.2,161.3,73.8,170.8,70.5z M146.2,74.6l11,3.5c-0.5,0.5-0.9,0.9-1.3,1.3c-0.9,1-1.6,1.9-2.1,2.7
		c-1.5-1.5-4.1-2.8-7.3-2.8c-0.7,0-1.5,0.1-2.2,0.2c-1.3,0.2-1.9,0.4-4.1,0.8c-1.2,0.2-2.2,0.8-3,1.5c-0.5-0.9-1.2-2.3-2.3-3.9
		L146.2,74.6z M108.4,73.6c0,0-0.2-5.8,8.4-5.8c1.1,0,2.3,0.1,3.6,0.3c9.4,1.4,14.9,11,16.3,14c-0.6,0.6-1,1.4-1.3,2.2
		c-0.2-0.3-0.4-0.6-0.6-0.9c-0.5-0.6-0.9-1.1-1.5-1.6c-1.1-1-2.3-1.8-3.7-2.3c-1.4-0.5-2.8-0.7-4.3-0.6c-1.4,0.1-2.8,0.4-4.1,0.9
		c1.3-0.5,2.8-0.7,4.2-0.7c1.4,0,2.8,0.2,4.1,0.8c1.3,0.5,2.4,1.4,3.4,2.3c0.5,0.5,0.9,1,1.3,1.6c0.4,0.5,0.7,1.1,1,1.7
		c0,0.1,0,0.2,0,0.3c0,0.5,0,1.1,0.1,1.7c-0.3-0.2-0.7-0.4-1-0.6c-0.6-0.3-1.2-0.6-1.7-0.9c-1.2-0.6-2.4-1-3.7-1.2
		c-0.6-0.1-1.3-0.2-2-0.2c-0.7,0-1.3,0.1-2,0.2c-1.3,0.2-2.5,0.8-3.5,1.6c1.1-0.7,2.3-1.2,3.6-1.4c0.6-0.1,1.3-0.1,1.9-0.1
		c0.6,0.1,1.3,0.1,1.9,0.3c1.2,0.3,2.4,0.8,3.6,1.4c1.1,0.6,2.2,1.3,3.2,2.1l0,0c0.2,1.7,0.7,3.4,1,4.4c0.2,0.4,0.3,0.8,0.5,1.2
		c-0.5-0.2-0.9-0.3-1.3-0.5c-5.5-2.8-14.1-5.6-21.8-5.6c-3.3,0-5.9,0.9-7.7,2.8c-0.2,0.2-0.3,0.3-0.5,0.5
		C106,85.1,108.4,73.6,108.4,73.6z M113.9,88.8c6.1,0,12.8,1.8,18.1,3.9c-1.9-0.4-3.7-0.6-5.6-0.6c-7.9,0-14.2,3.6-18,6.6
		c-1.6-1-2.3-2.4-2.6-4.4c-0.1-0.5-0.1-1.1-0.1-1.8C106.9,90.5,109.3,88.8,113.9,88.8z M105.6,86.4c-0.4,3.2-0.6,6.2-0.4,7.9
		c0.3,2,1,3.2,2.1,4.2c0.2,0.2,0.4,0.3,0.6,0.4c-0.5,0.4-1,0.8-1.4,1.2c-3.5,3.1-5.4,3.5-6.2,3.5c-0.1,0-0.2,0-0.3,0
		c-0.2-0.1-0.4-0.1-0.5-0.2c0,0,0,0-0.1,0c-0.2,0-0.4,0.1-0.5,0.4c-0.1,0.2,0,0.5,0.2,0.6c0.1,0,0.2,0.1,0.5,0.2
		c0.3,0.1,0.8,0.4,1.6,1l-5.1,1.6l-28-10.1L105.6,86.4z M68.3,97.3l27.2,10.3c-0.1,0.1-0.1,0.2-0.1,0.3l-0.1,18.7l-27.1-10V97.3z
		 M68.2,117.2l27.2,10L95.2,178l-27.5-11.1L68.2,117.2z M137.1,194.6C137.1,194.6,137.1,194.5,137.1,194.6L137.1,194.6L137.1,194.6
		l0.1-52.1h0c0.1,0,0.1,0,0.2,0l35.3-11.7l0.1,50c0,0.1,0,0.2,0.1,0.3L137.1,194.6z M184,176.7l-10.6,4.1l-0.1-65.4
		c0.5-0.2,0.9-0.3,1.2-0.6c0,0,0.1,0,0.1,0c1.4-0.3,2.4-1.9,3.3-3.9l6.2-2L184,176.7z M218.3,163.8l-33.7,12.8v-49.7l33.7-11.2l0,0
		V163.8z M218.1,115.2l-33.6,11.1v-17.7v0c0-0.1,0-0.1,0-0.1l33.8-10.6L218.1,115.2z"/>
</g>
</svg>
