<?xml version="1.0" encoding="utf-8"?>
<!-- Generator: Adobe Illustrator 22.1.0, SVG Export Plug-In . SVG Version: 6.00 Build 0)  -->
<svg version="1.1" id="Слой_3" xmlns="http://www.w3.org/2000/svg" xmlns:xlink="http://www.w3.org/1999/xlink" x="0px" y="0px"
	 viewBox="0 0 512 512" style="enable-background:new 0 0 512 512;" xml:space="preserve">
<style type="text/css">
	.st0{fill:#857253;stroke:#000000;stroke-width:3;stroke-linecap:round;stroke-linejoin:round;stroke-miterlimit:10;}
	.st1{fill:#4D7450;stroke:#000000;stroke-width:3;stroke-linecap:round;stroke-linejoin:round;stroke-miterlimit:10;}
</style>
<g>
	<path d="M425.2,431.4c0,0-41.9,6.3-62,17.1c-20,10.8,1.8-22,1.8-22l22.3-8.5l26.3,5.8L425.2,431.4z"/>
	<path d="M286.2,167.7c0.8-0.8,18.7,11.7,19.7-11.6s-18.2-21.3-18.2-21.3l-4.3,16.5L286.2,167.7z"/>
	<path d="M166.7,144.3c0,0,11,25,20.3,23.3s14.8-21,14.8-21s-7.8-6.8-9-7s-13,1.5-13,1.5L166.7,144.3z"/>
	<path d="M93.4,338.3c0,0,4,16.2,19,21.7c15,5.5,21.3-18.2,21-19.7s-8.8-14.5-9.8-15s-13.5-2.3-13.8,0S93.4,338.3,93.4,338.3z"/>
	<path class="st0" d="M203.2,437.3c1.3,3.3,11.7,37,11.7,37l82.7,1.7l10.3-41.7L203.2,437.3z"/>
	<path d="M93.4,381.9c0,0,1.5,24.9,19.3,27.7s7.5-27.9,7.5-27.9l-15.5-2.3L93.4,381.9z"/>
	<path class="st1" d="M118.8,389c0,0-18.9,29.8-33.5,38.6c-2.1,1.3-2.3,4.3-0.3,5.8c2.3,1.7,4.2,3.8,3.1,5.9c-2.3,4.7,6.7,6,8.7,5.7
		s27.3,25,72.7,6c0,0,19.7-5.7,64.7,2.7c45,8.3,51.3,8.7,68.7-3.3c17.3-12,20-12,31.7-3s16.7,7.7,31.7-4
		c14.6-11.4,24.1-23.7,49.8-12.6c2.2,0.9,4.5,1.4,6.9,1.1c6.4-0.8,13.5-6.3-18.4-36.8c-44-42-69.7-15-69.7-15l-54.3,2.7
		c0,0-29.7-3.7-37.3-3.7s-76.3-3.7-76.3-3.7l-43.7,8.3L118.8,389z"/>
	<path d="M374.3,280.5c0,0-0.6,9.3-17.3,5.1s-24.3-18.8-24.3-19.5s6.3-2.8,7.8-2.5S374.3,280.5,374.3,280.5z"/>
	<path d="M141.8,219.8c0,0,7.3,11,18.6,14s8.8-19.5,8.3-20.5s-10.3-4.8-10.3-4.8l-10.3,5L141.8,219.8z"/>
	<path class="st1" d="M121.5,339l-27,42.7c0,0,10.8,28.7,55.4,18.8c7.1-1.6,14-4.1,20.3-7.6c8.1-4.4,26.7-10.9,48.1,5.8
		c3.9,3,8.4,5.2,13.3,6.1c6.5,1.1,15.4,0.5,24.5-6.7c0,0,8.7,6.7,14,2.3c0,0,9,9.3,18.3,4.8c0,0,10.3,3.9,18.3,1.2s8.7,3,16.3,4.6
		c7.7,1.7,8.3-6,19.3-5s14,4,24-3.7c10-7.7,10-4.7,18.7-5.7c8.7-1,3.7-7.7,13.7-10.7s16,1.3,14.3-6.3c-1.7-7.7-60.7-59.3-60.7-59.3
		l-178,9l-33,5.7L121.5,339z"/>
	<path class="st1" d="M157.2,272.7c0,0-84.3,75.3-57.3,66.3l9-3.3c0,0-3,8.7,5,5.7c0,0,5.6,25,28,9.3c0,0,5.3,19,22.7,3
		c0,0,3.7,9.7,13.3-0.3c0,0,6,6,10,0.3c0,0,8.3,9.7,20.3-1c0,0,5-1.3,6.3,2.3c1.3,3.7,10.7-10.7,19.7-14.7s11.3-1,15.7-7
		c4.3-6,8.3-6.3,13.3-4.7c5,1.7,25-16.3,56,3.3c0,0,9.3,8.7,15,1.3c0,0,7.3,14,16-2c0,0,11.3,10,27.3-17.3l0,0
		c1.6-2.8,1.4-6.4-0.6-9c-8.6-11.4-31.4-41.4-34.1-42.7c-3.3-1.7-44-12.7-44-12.7s-69.7-1-77.3,2c-7.7,3-26.7,10-36,12.7
		C176.2,267,157.2,272.7,157.2,272.7z"/>
	<path class="st1" d="M170.8,210.3c0,0-55.7,74-36.3,67.7c0,0,13.3-5.6,11,0.4c-2.3,5.9,1.6,6.9,5.1,5.9s5.2,7.3,11.5,3.7
		s6.3-3.7,6.3-3.7s-0.7,12.5,15,4.6c0,0,5,11.4,12-3.6s10.7-8.7,10.7-5.3s4.3,11.3,15.7-2c11.3-13.3,26,14,36.3,12
		c10.3-2,14.3-2,15.3,5.7c1,7.7,11-2.7,11-2.7s10.3,6.4,18.9,1.7c6-3.2,12.3-5.7,19-6.8c0.5-0.1,0.9-0.1,1.4-0.2
		c13-2,2.3-15.7,22-13.7c19.7,2,27.3,6,27.3,6l-78-83.3l-25,1.7c0,0-36.7,1.7-44,1.3c-7.3-0.3-43.7,5.7-43.7,5.7L170.8,210.3z"/>
	<path class="st1" d="M195.5,150.7c0,0-54.7,59.7-53.7,67c1,7.3,6.3,1.3,9.7,1.3c0,0-3.3,11.3,14.7,2.3c0,0,2,11.7,17,5.4
		c0,0,18.7,26,33-5.3c0,0,4.3,4,8.7-2.3c0,0,7.7,4,13.4-5c0,0,5.6,21.3,19.6,9.7c0,0,6.7,11.3,21.3-2.7c14.7-14,25-16.3,37.3-13.7
		c12.3,2.7,22.3-6.7,22.3-6.7s-47.7-27.3-52.3-39.3s-30.3-14-30.3-14s-29-4.7-30.7-5C223.8,142,195.5,150.7,195.5,150.7z"/>
	<path class="st1" d="M236.5,36c0,0-32.7,89.3-68.7,108c0,0,11.3,0.7,21.3,8.7s25.3,4.7,30,0c4.7-4.7,10.7-2.3,13.3,4.8
		c2.7,7.2,18.7,14.5,26,9.2c7.3-5.3,11.4,1.3,14,4.7c4.9,6.3,18,11.1,20-12.7c2-23.4,6-12.7,7.3-9.3c1.3,3.3,6.7,11.3,8.7,3.3
		s-43.3-49.3-52-67.3S236.5,36,236.5,36z"/>
</g>
</svg>
