<?xml version="1.0" encoding="utf-8"?>
<!-- Generator: Adobe Illustrator 22.1.0, SVG Export Plug-In . SVG Version: 6.00 Build 0)  -->
<svg version="1.1" id="Слой_4" xmlns="http://www.w3.org/2000/svg" xmlns:xlink="http://www.w3.org/1999/xlink" x="0px" y="0px"
	 viewBox="0 0 512 512" style="enable-background:new 0 0 512 512;" xml:space="preserve">
<style type="text/css">
	.st0{fill:#BB616E;stroke:#000000;stroke-width:3;stroke-linecap:round;stroke-linejoin:round;stroke-miterlimit:10;}
	.st1{fill:none;stroke:#000000;stroke-width:3;stroke-linecap:round;stroke-linejoin:round;stroke-miterlimit:10;}
	.st2{fill:#F2DE29;stroke:#000000;stroke-width:3;stroke-linecap:round;stroke-linejoin:round;stroke-miterlimit:10;}
	.st3{fill:#AAD3E5;stroke:#000000;stroke-width:3;stroke-linecap:round;stroke-linejoin:round;stroke-miterlimit:10;}
	.st4{fill:#426A81;stroke:#000000;stroke-width:3;stroke-linecap:round;stroke-linejoin:round;stroke-miterlimit:10;}
	.st5{fill:none;stroke:#1D1D1B;stroke-width:4;stroke-miterlimit:10;}
	.st6{fill:#857154;}
	.st7{fill:#FDCD95;}
	.st8{fill:#FDCD95;stroke:#000000;stroke-width:2.5968;stroke-linecap:round;stroke-linejoin:round;stroke-miterlimit:10;}
	.st9{fill:none;stroke:#1D1D1B;stroke-width:2.5968;stroke-linecap:round;stroke-linejoin:round;stroke-miterlimit:10;}
	.st10{fill:none;stroke:#000000;stroke-width:2.5968;stroke-linecap:round;stroke-linejoin:round;stroke-miterlimit:10;}
	.st11{fill:none;stroke:#000000;stroke-width:2.333;stroke-linecap:round;stroke-linejoin:round;stroke-miterlimit:10;}
	.st12{fill:#17333D;}
	.st13{fill:#FDCD95;stroke:#000000;stroke-width:3;stroke-linecap:round;stroke-linejoin:round;stroke-miterlimit:10;}
	.st14{fill:#B5D758;stroke:#000000;stroke-width:3;stroke-linecap:round;stroke-linejoin:round;stroke-miterlimit:10;}
	.st15{fill:none;stroke:#000000;stroke-width:3;stroke-miterlimit:10;}
	.st16{fill:#FFFFFF;}
</style>
<g>
	<path class="st0" d="M93.3,69.7c0-24.8-17.8-44.9-39.9-44.9c-22,0-39.9,20.1-39.9,44.9c0,22.9,15.2,41.7,34.8,44.5
		c-0.6,0.5-1,1.1-1.1,1.9l-1.5,7c-0.5,2.1,1.2,4.1,3.3,4.1h10.5c2.3,0,4-2.3,3.2-4.5l-2.9-8.7C78.8,110.6,93.3,92,93.3,69.7z"/>
	<g>
		<path class="st1" d="M54.6,126.9c1,26.5-13,27-12,53.4c1,26.5,15,26,15.9,52.4c1,26.5-13,27-12,53.5"/>
	</g>
	<path class="st2" d="M208.9,58.4c0-24.8-17.8-44.9-39.9-44.9c-22,0-39.9,20.1-39.9,44.9c0,22.9,15.2,41.7,34.8,44.5
		c-0.6,0.5-1,1.1-1.1,1.9l-1.5,7c-0.5,2.1,1.2,4.1,3.3,4.1h10.5c2.3,0,4-2.3,3.2-4.5l-2.9-8.7C194.4,99.3,208.9,80.7,208.9,58.4z"/>
	<path class="st3" d="M334.4,84.1c0-24.8-17.8-44.9-39.9-44.9c-22,0-39.9,20.1-39.9,44.9c0,22.9,15.2,41.7,34.8,44.5
		c-0.6,0.5-1,1.1-1.1,1.9l-1.5,7c-0.5,2.1,1.2,4.1,3.3,4.1h10.5c2.3,0,4-2.3,3.2-4.5l-2.9-8.7C319.9,125,334.4,106.5,334.4,84.1z"/>
	<g>
		<path class="st1" d="M295.7,141.4c1,26.5-13,27-12,53.4c1,26.5,15,26,15.9,52.4s-13,27-12,53.5"/>
	</g>
	<path class="st0" d="M435.9,119C435.9,94.2,418,74,396,74c-22,0-39.9,20.1-39.9,44.9c0,22.9,15.2,41.7,34.8,44.5
		c-0.6,0.5-1,1.1-1.1,1.9l-1.5,7c-0.5,2.1,1.2,4.1,3.3,4.1h10.5c2.3,0,4-2.3,3.2-4.5l-2.9-8.7C421.4,159.9,435.9,141.3,435.9,119z"
		/>
	<g>
		<path class="st1" d="M397.2,176.2c1,26.5-13,27-12,53.4c1,26.5,15,26,15.9,52.4s-13,27-12,53.5"/>
	</g>
	<path class="st4" d="M521.5,53.3c0-24.8-17.8-44.9-39.9-44.9c-22,0-39.9,20.1-39.9,44.9c0,22.9,15.2,41.7,34.8,44.5
		c-0.6,0.5-1,1.1-1.1,1.9l-1.5,7c-0.5,2.1,1.2,4.1,3.3,4.1h10.5c2.3,0,4-2.3,3.2-4.5l-2.9-8.7C507,94.2,521.5,75.7,521.5,53.3z"/>
	<g>
		<path class="st1" d="M482.8,110.6c1,26.5-13,27-12,53.4c1,26.5,15,26,15.9,52.4c1,26.5-13,27-12,53.5"/>
	</g>
	<path class="st2" d="M438.9,123.5l-14.1,56.9l-29.8-48.1C409.4,129.7,424,126.8,438.9,123.5z"/>
	<path class="st0" d="M496.7,107.8L486,165.4l-32.5-46.3C467.7,115.7,482.1,112,496.7,107.8z"/>
	<path class="st2" d="M80.1,127L44,173.1L36.5,117C50.6,120.6,65.2,123.9,80.1,127z"/>
	<path class="st4" d="M139,134.8L107.3,184l-12.5-55.2C109.2,131.1,123.9,133.1,139,134.8z"/>
	<path class="st4" d="M311.2,143.9l31.3,49.5l13-55.1C341.1,140.4,326.3,142.3,311.2,143.9z"/>
	<path class="st5" d="M0,107c0,0,268,85,512-6"/>
	<polygon points="189.2,238.5 179.9,242.8 181.7,249 187.5,252 190.7,247.8 	"/>
	<polygon points="235.7,227.5 246.2,228.9 244.8,237.2 241,241 236.9,234.3 	"/>
	<path class="st6" d="M185.8,224l3.7,15.2l-11,3.2l-17.1-1.1l-15.4-3.9l-14.2-11.1c0,0-11.8-13.4-15.6-26.9
		c-3.8-13.5-5.6-22.9-5.6-22.9s-2.7-22.3-0.4-28c2.3-5.7,1.7-19.3,5.3-22.9c3.6-3.6,4.2-16,11.1-21.1l10-10.7l9-6l12.5-4.6l3,0.9
		l6.9-4.9l6.4-2.7l10.6-1l4.4,0.8l6.2-1.9l15.5,0l10.6,3.3l15.5,9.1l14,14.2c0,0,6.9,9.4,8.2,11.7s11.6,24.9,12.8,30
		c1.1,5.2,3.4,24.9,2.8,30c-0.6,5-2.2,17.2-3,18.9c-0.7,1.7-5.8,17.4-12.8,20.8c-7,3.4-13.5,7.9-17.6,9.3c-4.1,1.4-7.6,1.4-7.6,1.4
		l-9.8-19.5l-22.8,5.8c0,0-9.4,5.8-10.2,6.3c-0.8,0.5-6.6,5-6.6,5L185.8,224z"/>
	<path class="st7" d="M192.8,254.5l14.1,0.4l13.4-1.8c0,0,14.5-4.8,18-8.4c3.5-3.6,2.7-1.4,2.7-1.4l-10.4-31
		c0,0,17.7-15.7,20.3-27.5s3-21.3,3-21.3l-3.7-19.9l-6.8-4.3l-6.3-6.5l-2.9,3.7l-3.9,1.7l-8.2-6l-8-9.7l-0.6,4.9l-3.2,3.8l-4.6-1.1
		l-7.8-10.5l1.5,6.1l-1.8,3.3l-4.6,0.9l-7.1-2.5l-1.6,1l-2.8,5.6l-4.1,1.8l-4.6,0.1l-6.2-3.9l-2.4-2.9l-0.8,10l-1.7,6.2l-0.5,3
		l-3.6,2l-5.2-2.3l0.2,6.3l-3.6,6.2l-3.9,0.2l0.2,6.9l-2.4,4.3l-1.9,1.8l2.2,9.6l10.8,19l12.8,11.7l17.3,8.5l1.8,0.3L192.8,254.5z"
		/>
	<path class="st8" d="M141.1,174.9c-0.8,0-2.5-0.7-3.2-0.4c-4.4,1.8-4.1,6.5-1.1,13.9c3.1,7.3,9.1,11.8,13.5,10
		c0.4-0.2,0.2,0.3,0.5,0.1"/>
	<path class="st9" d="M249.9,142.4c0.1,0.3,0.2,0.7,0.4,1.1"/>
	<path class="st10" d="M253.9,171.2c-0.7,8.1-3.1,15.8-7,22.8c-3.2,5.7-7.3,10.8-12.3,15.2c-6,5.3-13.3,9.3-21.5,11.7
		c-8.2,2.4-16.5,2.8-24.4,1.5c-6.7-1.1-13.2-3.3-19-6.7c-7.7-4.4-14.5-10.6-19.5-18.2c-3.2-4.8-5.7-10.1-7.3-15.9
		c-0.8-2.9-1.3-3.7-1.7-6.6"/>
	<path class="st11" d="M230.6,212.3L230.6,212.3l1.4,5l0.5,1.6l6,20.9c-14.6,21.1-42.3,13-42.3,13"/>
	<polyline class="st10" points="192.8,254.5 187,228.4 186,224 186,223.9 	"/>
	<path class="st8" d="M254,171.3c0.8,0.3,1.7,0.5,2.6,0.4c4.8-0.3,8.2-7,7.7-15c-0.5-7.9-4.9-14.1-9.6-13.8
		c-1.5,0.1-3.3-0.6-4.4,0.6c0.4,1.3,1.3,4.3,1.6,5.2C253.9,156.4,254.6,164,254,171.3z"/>
	<path class="st9" d="M250.1,143.6c0,0,0.1-0.1,0.1-0.1"/>
	<path class="st10" d="M234.2,223c5.7,0.2,12.8-3.6,18-6c25-11.7,30.6-56.3,13.1-93.7c-17.3-36.8-50.9-57.5-75.8-47.1"/>
	<path class="st10" d="M162.6,83.3c-28.8,0.8-52.4,34.3-53,76c-0.6,42.5,22.6,77.5,51.8,81.9c7.7,1.2,20.5,3.6,28.1-2.1"/>
	<path class="st9" d="M189.5,76.2c-4.6-1.2-9.8-1.3-14.9,0.2c-4.8,1.4-8.9,3.8-12,6.9"/>
	<path class="st10" d="M247.1,106.6c0,0,17.1,55-6.9,28.6c0,0-2.5-2.5-5.5-5.6c-4.1-4-9.1-9-10.5-10"/>
	<path class="st10" d="M135.8,170.6c0,0,10.9,11,9.1-10c0,0,9.3,4.4,7.3-12.7"/>
	<path class="st10" d="M145.5,135.8c0,0,11.6,25.8,17.1,6.6c0,0,2.5-11,0.9-16.3c0,0,12.2,23.1,20.3,0.3c0,0,18.9,12.2,11.8-7.9
		c0,0,16.2,26.3,17.3,4.3c0,0,19.2,27.5,23.3,8.4"/>
	<path class="st10" d="M127.6,115.9c0,0-7.5,24.3-3.7,43"/>
	<path class="st10" d="M216.4,92.6c0,0,14.9,6.6,20.9,20.6"/>
	<path class="st12" d="M208.2,202l0.5,0c0,0,0,0,0,0C208.6,202,208.4,202,208.2,202z"/>
	<path class="st0" d="M88,461.3l-9.3-6.8c0,0,8-21.8,28.3-22.8s35,7.3,38.8,14.6s2.8,9.6,6.3,14.9s10.8,21.3,12.5,29l-13.8,5.8
		c0,0-4.8-8-5.3-17s-2.5-14.5-5.5-17.5s-6.8-9.3-6.5-13.8s-27-14.8-34.8-1.4S88,461.3,88,461.3z"/>
	<path class="st13" d="M267.7,225.5c0,0,48.3-30,56.8-42s9-20.2,8.5-29.1s3.8-26.6,5.8-19.6c2,7,3.5,17.2,13,6.2
		s17.8-19.8,15.5-12.5s-6.5,12.5-6.5,12.5s23.8-9.5,20.5-3.1c-3.3,6.4-14,10.7-14,10.7s16.8-6.1,17.5-2.4s-12.3,10.4-12.3,10.4
		s18.3,1,8,6.3s-16,5.3-16,5.3s-16,9.7-18.3,11.2s-25.7,56.8-66.7,66.6L267.7,225.5z"/>
	<path class="st13" d="M135,340.1c0,0-18,26.4-21,76.4c0,0-2.5,7.8-6.5,11.5s-9,11.5-3,17.3c0,0,0.5,8,7,6.5c0,0,4,6.3,9,2.8
		c0,0,12.1,5.3,8.7-7c-3.4-12.3,1.3-10.5,5.8-10.5s9.3,4.3,9.3,0.3s-10.3-6.5-10-12.5s3.7-34.5,18.2-47.5c14.5-13,7.8-22,7.8-22
		l-12.5-15.2H135z"/>
	<path class="st14" d="M181.3,242.5c0,0-31.9,4.8-49.8,75.2c-0.2,0.7-0.4,1.4-0.6,2.1c-1.5,5.2-8.7,35.2,21.5,32.9l-13.8,100
		c0,0,101,36,159-2.3c0,0-30.7-166-25-177c5.7-11,14.7-17.3,14.7-17.3s-12.7-19.7-8.7-39L244,229.7
		C244,229.7,227.3,265.2,181.3,242.5z"/>
	<g>
		<path class="st15" d="M195.3,340.1h-19.5c-3.7,0-6.8-3-6.8-6.8v-22.8c0-3.7,3-6.8,6.8-6.8h19.5c3.7,0,6.8,3,6.8,6.8v22.8
			C202,337.1,199,340.1,195.3,340.1z"/>
		<path class="st15" d="M170.1,306.4l11.8,11.9c2,2,5.2,1.9,7.1-0.2l11.1-12.7"/>
	</g>
	<line class="st1" x1="161.3" y1="305.4" x2="152.5" y2="352.6"/>
	<path class="st1" d="M262.7,296c0,0,5.2-15.1,10-22.7"/>
	<path class="st1" d="M161.9,158.3c0,0,10.3-14,24-10.3"/>
	<path class="st1" d="M209.5,141c0,0,10.6-8.8,24.9,0"/>
	<path class="st1" d="M202.1,177.8c0,0,6.3-4.7,13.3-4"/>
	<path class="st1" d="M190.7,202c0,0,28,15,42.7-16.5"/>
	<ellipse transform="matrix(0.9555 -0.2951 0.2951 0.9555 -41.4627 61.1113)" cx="181.7" cy="167.9" rx="5.8" ry="8.9"/>
	<ellipse transform="matrix(0.9628 -0.2702 0.2702 0.9628 -33.7267 65.7854)" cx="222.1" cy="155.4" rx="5.8" ry="8.9"/>
	
		<ellipse transform="matrix(0.9555 -0.2951 0.2951 0.9555 -40.5371 61.2443)" class="st16" cx="182.6" cy="164.9" rx="2.5" ry="3.9"/>
	<ellipse transform="matrix(0.9555 -0.2951 0.2951 0.9555 -35.1161 72.9146)" class="st16" cx="224" cy="152.8" rx="2.5" ry="3.9"/>
	<path class="st1" d="M185.9,157.3c0,0-10.7,1.9-15,10.6"/>
	<path class="st1" d="M212.8,148.7c0,0,10-4.2,18.4,0.8"/>
	<path class="st1" d="M107,436.8c0,0-3.3,5.2-2.5,8.5"/>
	<path class="st1" d="M110.8,441c0,0-2,8,0.8,10.8"/>
	<path class="st1" d="M117.5,441c0,0-0.5,12.5,3,13.5"/>
</g>
</svg>
