<svg enable-background="new 0 0 297.64 297.64" viewBox="0 0 297.64 297.64" xmlns="http://www.w3.org/2000/svg"><g clip-rule="evenodd" fill-rule="evenodd"><path d="m222.09 134.25c1.02-.76-1.14-.92-1.12-.93-27.08-52.59-121.51-41.51-140.28-.37.38.1.18.53-.37.74-.4-.98-1.05.28-1.12.28-5.58 0-9.86 13.33-9.86 27.72 0 13.9 4.26 25.09 9.58 25.86.43.31 2.09-.1 2.56.14 1.66.71-2.96 3.72-.24 3.48 0 0 .37 4.47 4.74 5.58 16.32 4.17 69.32 12.86 126.33-1.4 4.84-1.21 6.05-9.12 6.79-9.12 6.35.07 12.34-12.35 12.28-26.51-.05-12.79-3.77-23.5-9.29-25.47zm-127.26-5.02c11.07-15.91 30.81-22.3 54.98-23.16 23.63-.84 42.88 3.72 58.7 22.79-32.84-10.33-75.91-9.03-113.68.37z" fill="#5cc5c3"/><path d="m216.54 186.51s.01 0 0 0c.01 0 .01 0 0 0z" fill="#5cc5c3"/><path d="m79.48 139.65c3.65 0 6.6 9.46 6.6 21.12 0 11.65-2.96 21.12-6.6 21.12-3.65 0-6.6-9.46-6.6-21.12s2.96-21.12 6.6-21.12z" fill="#337672"/><path d="m166.48 147.93c11.27-.27 20.41 2.54 20.41 6.27s-9.15 6.99-20.41 7.27c-11.27.27-20.41-2.54-20.41-6.27 0-3.74 9.14-6.99 20.41-7.27z" fill="#b4443f"/><g fill="#010101"><path d="m50.33 116.15 19.34 8.83c.13.06.28.09.41.09.38 0 .74-.22.91-.58.23-.5.01-1.1-.5-1.33l-19.34-8.83c-.5-.23-1.1-.01-1.33.5-.22.5 0 1.09.51 1.32z"/><path d="m219.33 117.45c.11.46.52.77.97.77.08 0 .15-.01.23-.03l20.71-4.83c.54-.12.87-.66.75-1.2s-.67-.87-1.2-.75l-20.71 4.83c-.54.13-.87.67-.75 1.21z"/><path d="m84.68 106.81c.19.31.52.48.85.48.18 0 .36-.05.52-.15.47-.29.62-.9.33-1.38l-9.88-16.12c-.29-.47-.9-.62-1.38-.33-.47.29-.62.9-.33 1.38z"/><path d="m207.24 103.44c.15.08.3.11.46.11.36 0 .71-.2.89-.54l8.66-16.81c.25-.49.06-1.09-.43-1.35s-1.09-.06-1.35.43l-8.66 16.81c-.26.5-.07 1.1.43 1.35z"/><path d="m62.19 178.62c-.19-.52-.76-.79-1.28-.59l-17.75 6.52c-.52.19-.78.76-.59 1.28.15.4.53.66.94.66.11 0 .23-.02.34-.06l17.75-6.52c.51-.2.78-.78.59-1.29z"/><path d="m251.4 179.52-18.41-4.33c-.54-.12-1.08.21-1.2.74-.13.54.21 1.08.74 1.2l18.41 4.33c.08.02.15.03.23.03.45 0 .86-.31.97-.77.13-.54-.2-1.08-.74-1.2z"/><path d="m68.27 190.53-13.48 13.27c-.39.39-.4 1.02-.01 1.42.2.2.45.3.71.3.25 0 .51-.1.7-.29l13.47-13.27c.39-.39.4-1.02.01-1.42-.38-.39-1.01-.4-1.4-.01z"/><path d="m225.54 187.72c-.4-.39-1.03-.38-1.42.01s-.38 1.03.01 1.42l13.47 13.27c.2.19.45.29.7.29.26 0 .52-.1.71-.3.39-.39.38-1.03-.01-1.42z"/><path d="m55.42 191.27 9.99-5.42c.49-.26.67-.87.4-1.36-.26-.49-.87-.67-1.36-.4l-9.99 5.42c-.49.26-.67.87-.4 1.36.18.33.52.52.88.52.17 0 .33-.03.48-.12z"/><path d="m240.68 187.32-9.76-5.81c-.47-.28-1.09-.13-1.37.35-.28.47-.13 1.09.35 1.37l9.76 5.81c.16.1.34.14.51.14.34 0 .67-.17.86-.49.28-.47.13-1.09-.35-1.37z"/><path d="m46.65 154.57 11.34.66h.06c.53 0 .97-.41 1-.94.03-.55-.39-1.02-.94-1.06l-11.34-.66c-.55-.02-1.02.39-1.06.94s.38 1.03.94 1.06z"/><path d="m234.47 149.69c-.55.08-.92.59-.84 1.14.08.49.5.85.99.85.05 0 .1 0 .15-.01l11.23-1.72c.55-.08.92-.59.84-1.14s-.58-.92-1.14-.84z"/><path d="m75.47 113.61c.19.19.45.28.7.28.26 0 .52-.1.72-.3.38-.4.38-1.03-.02-1.41l-8.16-7.91c-.4-.38-1.03-.38-1.41.02s-.38 1.03.02 1.41z"/><path d="m215.28 109c.2.25.49.38.79.38.22 0 .43-.07.62-.21l8.92-7.04c.43-.34.51-.97.17-1.4s-.97-.51-1.4-.17l-8.92 7.04c-.45.34-.52.96-.18 1.4z"/><path d="m247.62 105.92c1.53-.41 2.51-1.78 2.41-3.22.15-.17.21-.39.15-.61l-2.49-9.3c1.95.36 3.73.94 3.96 1.3.16.3.51.45.85.36.04-.01.09-.03.13-.05.37-.18.53-.61.35-.95-.63-1.25-4.14-1.92-5.62-2.15-.02-.01-.04 0-.07 0l-.85-3.17c2.62.67 5.23 1.69 5.54 2.44.15.35.57.52.96.37.38-.15.57-.57.42-.92-.83-1.97-6.61-3.3-7.77-3.55-.25-.05-.52.02-.71.21-.18.18-.26.43-.19.67l3.44 12.83c-.64-.25-1.36-.32-2.09-.12-1.72.46-2.76 2.15-2.33 3.77.44 1.61 2.19 2.56 3.91 2.09z"/><path d="m100.73 91.63c1.53-.41 2.51-1.78 2.41-3.22.15-.17.21-.39.15-.61l-2.49-9.3c1.95.36 3.73.94 3.96 1.3.15.3.51.45.85.36.04-.01.09-.03.13-.05.37-.18.53-.6.35-.95-.63-1.25-4.14-1.92-5.62-2.15-.02 0-.04 0-.07 0l-.85-3.17c2.62.67 5.23 1.69 5.54 2.44.15.35.57.52.96.37.38-.15.57-.56.42-.92-.83-1.97-6.62-3.3-7.77-3.55-.26-.05-.52.02-.71.21-.18.18-.26.43-.19.67l3.44 12.83c-.63-.25-1.36-.31-2.09-.12-1.72.46-2.76 2.15-2.33 3.77.44 1.61 2.19 2.56 3.91 2.09z"/><path d="m173.31 96.75c2.13.65 4.29-.13 5.2-1.77.3-.08.53-.27.62-.56l3.63-11.87c2.09 1.79 3.82 3.69 3.84 4.25-.03.44.3.85.77 1 .06.02.13.03.2.04.57.07 1.07-.28 1.1-.78.14-1.8-3.61-5.05-5.22-6.36-.03-.02-.05-.03-.09-.05l1.24-4.05c2.68 2.61 5.09 5.58 4.92 6.62-.07.49.32.97.89 1.09.57.11 1.09-.21 1.17-.7.41-2.73-5.6-8.32-6.81-9.42-.27-.24-.65-.35-1-.28-.35.06-.62.28-.71.59l-5.01 16.39c-.59-.72-1.41-1.32-2.42-1.63-2.4-.73-4.85.35-5.49 2.42-.66 2.07.77 4.34 3.17 5.07z"/><path d="m55.94 94.21c-1.99 1.13-2.84 3.36-1.89 4.99.94 1.62 3.32 2.02 5.31.89 1.76-1 2.63-2.88 2.15-4.42.13-.24.16-.51.03-.73l-9.5-16.58s-1.93.42-1.78.66l8.28 14.56c-.85-.04-1.75.15-2.6.63z"/><path d="m251.13 130.06c-1.12-1.99-3.36-2.84-4.99-1.9-1.62.94-2.02 3.32-.9 5.31 1 1.77 2.87 2.64 4.41 2.16.24.13.51.16.73.03l16.6-9.46s-.42-1.93-.65-1.79l-14.58 8.25c.05-.85-.14-1.75-.62-2.6z"/><path d="m141.05 64.73c-.78-.02-1.61.17-2.38.63-1.81 1.08-2.55 3.17-1.65 4.65.91 1.48 3.11 1.79 4.93.71 1.14-.68 1.81-1.75 2.01-2.81.32-1.69-.46-2.55-.46-2.55l-7.93-13.15c4.32-.65 8.04-2.21 11.31-4.43l4.6 12.94c-.76-.18-1.61-.15-2.46.15-1.99.7-3.12 2.6-2.53 4.24.6 1.63 2.7 2.37 4.69 1.67 1.27-.45 2.24-1.37 2.54-2.43.49-1.76-.1-2.93-.1-2.93s-4.94-13.47-5.8-15.81c-.03-.08-.1-.15-.18-.17-.08-.03-.18-.01-.25.04-3.68 2.47-9.42 4.56-14.11 5.34-.09.01-.17.07-.21.15s-.04.18.01.26c1.27 2.13 7.97 13.5 7.97 13.5z"/><path d="m269.87 160.53c-2.12-2.51-4.16-6.55-5.18-9.98-.03-.09-.09-.16-.18-.19s-.18-.01-.26.05c-1.64 1.35-8.97 7.41-8.97 7.41-.06-.59-.28-1.2-.69-1.74-.97-1.26-2.55-1.6-3.55-.75-.99.84-1 2.55-.03 3.82.61.79 1.45 1.19 2.24 1.23 1.26.06 1.81-.62 1.81-.62l8.79-7.42c.9 3.21 2.39 5.87 4.33 8.11l-8.96 4.87c.05-.6-.05-1.24-.35-1.85-.71-1.44-2.2-2.09-3.33-1.47-1.13.63-1.46 2.3-.75 3.74.45.92 1.22 1.56 2.01 1.67 1.33.19 2.12-.39 2.12-.39s9.07-5.05 10.87-6.05c.08-.04.13-.12.14-.2.02-.09 0-.18-.06-.24z"/><path d="m43.39 143.86c-.1-1.58-.93-2.37-.93-2.37s-7.81-9.5-9.26-11.28c-.06-.07-.14-.11-.23-.1-.09 0-.17.04-.22.12-2.31 3.06-6.38 6.39-9.97 8.37-.08.04-.13.12-.14.21s.03.18.1.24c1.75 1.48 10.37 8.78 10.37 8.78-.65.21-1.27.6-1.77 1.2-1.18 1.41-1.18 3.33-.02 4.29 1.17.96 3.07.58 4.25-.83.74-.88.99-1.96.85-2.89-.22-1.48-1.11-1.97-1.11-1.97l-10.28-8.51c3.36-1.78 5.96-4.12 8.01-6.88l7.49 9.3c-.67.07-1.36.34-1.97.83-1.43 1.15-1.82 3.03-.86 4.2s2.89 1.17 4.33.02c.89-.74 1.42-1.77 1.36-2.73z"/><path d="m83.62 141.9c-1.2-2.32-2.82-3.33-4.26-3.33s-3.06 1.01-4.26 3.33c-1.83 3.53-3.15 10.62-3.15 18.8s1.32 15.28 3.15 18.8c1.2 2.32 2.82 3.33 4.26 3.33s3.06-1.01 4.26-3.33c1.83-3.53 3.15-10.62 3.15-18.8s-1.33-15.28-3.15-18.8zm-4.26 38.93c-2.99 0-5.41-9.02-5.41-20.13s2.42-20.13 5.41-20.13 5.41 9.02 5.41 20.13-2.43 20.13-5.41 20.13z"/><path d="m215.69 184.71c.13-.06.26-.12.41-.15-.02 0-.04 0-.05.01-.13.04-.25.09-.36.14z"/><path d="m216.11 184.56c-.01 0-.01 0-.01.01.08-.02.17-.04.26-.04-.38.03-.69.1-.94.19l.63-.14z"/><path d="m227.25 181.42c2.98-4.88 4.96-12.78 4.92-21.71s-2.07-16.85-5.1-21.79c-1.5-2.45-3.28-4.18-5.19-5.12-14.03-26.59-44.6-37.25-74.19-35.89-29.74 1.37-58.3 14.91-68.02 35.95-1.86.33-3.66 1.53-5.22 3.62-3.42 4.57-5.87 13.76-5.87 24.36 0 10.61 2.45 19.79 5.87 24.36 1.62 2.17 3.51 3.4 5.45 3.66.06.97.19 2.49.37 3 .01.02.02.02.03.03.69 2.88 2.92 5.26 5.97 6.01.01 0 .02.01.03.01 16.54 3.79 67.56 13.02 124.99-1.34h.01c4.3-1.09 7.26-4.96 7.27-9.32.06 0 .11.02.17.02 3.14.02 6.17-2.03 8.51-5.85zm-7.8-48.9c-3.07-1.43-6.32-2.73-9.73-3.91-14-18.69-38.81-24.68-61.33-23.88-22.87.82-42.66 8.29-54.38 23.5-4.03 1.16-7.95 2.44-11.72 3.85 20.36-39.22 109.35-49.41 137.16.44zm-27.75 55.64c-1.27-2.99-2.66-5.91-4.15-8.78 2.1-4.27 4.16-8.9 6.1-13.56 2.73 4.3 5.34 8.84 7.71 13.58-1.73 3.72-3.41 6.81-4.95 8.77-.02.03-.03.06-.05.09-1.57.24-3.13.49-4.7.71.13-.24.16-.53.04-.81zm-48.26 4.2c-1.33 0-2.66.01-3.98-.01.04-.22.03-.45-.09-.67-1.76-3.23-3.62-6.37-5.54-9.4 2.72-4.35 5.4-8.97 7.97-13.64 2.67 3.72 5.23 7.63 7.58 11.71-1.88 3.69-3.83 7.44-5.87 11.24-.13.25-.15.52-.07.77zm-21.56-1.29c-1.72-3.22-3.73-6.32-5.89-9.31 2.47-3.61 4.87-7.43 7.17-11.32 2.83 3.74 5.62 7.7 8.3 11.86-2.14 3.37-4.3 6.56-6.45 9.46-.04.05-.05.11-.08.16-.99-.05-1.98-.12-2.97-.18.05-.22.03-.46-.08-.67zm95.03-57c-.15 1-1.11 4.61-2.6 9.53-3.05-3.89-6.07-7.25-8.72-9.98.62-1.86 1.05-3.18 1.26-3.86 3.53 1.14 6.9 2.42 10.09 3.83-.04.16-.05.32-.03.48zm-50.43 27.4c-11.27.28-20.41-2.54-20.41-6.27 0-3.74 9.15-6.99 20.41-7.27 11.27-.27 20.41 2.54 20.41 6.28s-9.14 6.99-20.41 7.26zm8.9 1.66c-2.07 4.84-4.38 9.93-6.95 15.12-2.77-4.83-5.81-9.48-8.98-13.87.18-.37.35-.74.52-1.1 2.07.18 4.28.26 6.57.2 3.03-.07 5.9-.36 8.51-.82.1.16.22.31.33.47zm-82.61-4.65c.73.78 1.47 1.57 2.26 2.4-.77 1.31-1.55 2.55-2.32 3.76.07-1.24.11-2.51.11-3.8-.01-.8-.02-1.59-.05-2.36zm3.69 3.89c.18.18.35.36.52.55 1.99 2.07 4.1 4.28 6.24 6.61-2.04 3.21-4.21 6.53-6.52 9.92-1.78-2.31-3.47-4.33-5.09-6.2.29-1.4.53-2.88.71-4.41 1.37-1.97 2.75-4.15 4.14-6.47zm1.97-.83c-.31-.32-.61-.64-.91-.96 2.27-3.91 4.5-8.09 6.58-12.16 2.31 2.34 4.74 4.91 7.26 7.71-2.13 3.68-4.46 7.57-7.02 11.65-2.04-2.19-4.03-4.28-5.91-6.24zm31.4-38.09c2.94-.31 5.89-.55 8.85-.75.06.15.15.29.28.4.07.06 1.47 1.2 3.77 3.27-1.23 2.93-3.08 7.21-5.41 12.29-3.73-3.73-7.11-6.86-9.84-9.28 1.53-3.36 2.29-5.26 2.32-5.33.08-.21.08-.41.03-.6zm16.53-1.12c3.18-.1 6.35-.13 9.51-.1.06.17.15.33.3.46.07.06 1.59 1.31 4.07 3.57-1.1 2.53-2.62 5.95-4.47 9.96-4.2-4.37-7.9-7.9-10.65-10.39.76-1.83 1.18-2.89 1.21-2.96.07-.17.07-.36.03-.54zm40.28 10.3c-1.12 3.59-2.66 8.29-4.65 13.75-3.36-4.09-6.64-7.77-9.65-10.97 2.71-6.5 4.37-10.78 4.79-11.87.43.05.85.1 1.28.16.05.1.11.2.19.28.09.08 3.27 3.17 8.04 8.65zm-5.1-8.53c2.45.34 4.88.72 7.26 1.16-.17.62-.65 2.4-1.47 5.12-2.5-2.83-4.51-4.96-5.79-6.28zm-1.41 23.19c-3.39-.87-7.64-1.38-12.29-1.37 1.35-3.08 2.58-5.94 3.65-8.48 2.72 2.9 5.65 6.22 8.64 9.85zm-9.3-13.46c-3.17-3.29-5.97-6-8.19-8.07.75-1.73 1.23-2.86 1.4-3.28 3.72.18 7.4.46 11.03.84-.59 1.51-2.03 5.2-4.24 10.51zm-.84 2.01c-1.25 2.97-2.71 6.38-4.35 10.12-.34.01-.68.03-1.02.04-2.53-2.96-5.02-5.72-7.37-8.22 1.85-4 3.39-7.46 4.54-10.09 2.25 2.12 5.06 4.87 8.2 8.15zm-7.84 10.35c-3.68.35-7.02 1.01-9.76 1.88 1.42-2.92 2.75-5.73 3.96-8.33 1.87 2 3.81 4.16 5.8 6.45zm-1.07-21.86c-.94-.85-1.71-1.53-2.31-2.05 1.05.03 2.1.06 3.14.1-.2.48-.48 1.13-.83 1.95zm-6.21 13.85c-1.55 3.33-3.3 7.03-5.2 10.9-.65.28-1.23.58-1.76.89-3.12-3.56-6.19-6.84-9.08-9.78 2.32-5.03 4.19-9.32 5.48-12.38 2.77 2.53 6.43 6.04 10.56 10.37zm-11.32-13.76c-.88-.78-1.6-1.41-2.15-1.88.99-.05 1.98-.1 2.97-.14-.14.34-.42 1.03-.82 2.02zm-7.12 16.17c-1.65 3.55-3.51 7.42-5.54 11.45-3.3-3.64-6.55-6.95-9.6-9.9 2.22-4.3 3.99-7.97 5.33-10.85 2.75 2.44 6.11 5.58 9.81 9.3zm-10.51-12.6c-1.86-1.62-3.29-2.81-4.2-3.55 2.02-.28 4.04-.54 6.07-.77-.26.65-.88 2.13-1.87 4.32zm-.87 1.9c-1.3 2.82-3.06 6.48-5.27 10.79-3.08-2.91-5.91-5.43-8.33-7.49 2.01-4.37 3.26-7.27 3.3-7.36s.05-.19.06-.29c1.44-.25 2.89-.49 4.35-.71.06.12.15.24.27.33.08.06 2.22 1.74 5.62 4.73zm-15.19 1.97c-2.33-1.94-4.16-3.38-5.32-4.26 2.62-.6 5.28-1.15 7.97-1.65-.49 1.11-1.41 3.2-2.65 5.91zm.72 3.22c2.42 2.07 5.21 4.56 8.25 7.45-1.85 3.55-3.99 7.51-6.43 11.79-2.55-2.82-5.02-5.41-7.35-7.77 2.09-4.17 3.98-8.14 5.53-11.47zm2.17 22.62c2.99 3.38 6.06 7.07 9.1 11.01-2.28 3.89-4.66 7.72-7.12 11.34-2.86-3.8-5.95-7.4-9-10.75 2.55-4.05 4.89-7.93 7.02-11.6zm1.05-1.82c2.47-4.32 4.64-8.31 6.53-11.91 3.06 2.97 6.31 6.3 9.6 9.96-2.17 4.23-4.51 8.6-6.99 12.92-3.07-3.93-6.15-7.6-9.14-10.97zm17.54-.34c3.08 3.51 6.18 7.29 9.16 11.31-2.54 4.64-5.18 9.24-7.87 13.58-2.71-4.17-5.53-8.13-8.38-11.87 2.51-4.35 4.89-8.75 7.09-13.02zm.98-1.91c2.05-4.05 3.94-7.94 5.61-11.53 2.67 2.73 5.48 5.76 8.33 9.01-1.48 1.27-2.2 2.7-2.2 4.08 0 .98.36 1.96 1.07 2.88-1.17 2.27-2.36 4.55-3.6 6.85-3-4.01-6.11-7.79-9.21-11.29zm14.32 5.88c.21.15.42.3.65.44 1.91 1.18 4.85 2.15 8.44 2.77.46.62.93 1.23 1.39 1.86-2.08 4.37-4.3 8.93-6.67 13.63-2.37-4.01-4.94-7.86-7.6-11.52 1.31-2.39 2.56-4.79 3.79-7.18zm31.36 2.54c3.26-.78 5.94-1.83 7.72-3.02.87-.58 1.55-1.21 2.06-1.86 1.54 2.13 3.07 4.32 4.57 6.61-1.89 4.58-3.89 9.16-5.94 13.41-2.7-4.99-5.66-9.77-8.76-14.28.11-.29.23-.57.35-.86zm10.77-6.88c.08-.32.12-.64.12-.96 0-1.69-1.03-3.41-3.23-4.76-.58-.36-1.26-.69-2.02-1.01-.06-.08-.13-.16-.19-.24 1.98-5.38 3.55-10.08 4.72-13.78 3.06 3.6 6.64 8.05 10.42 13.22-1.59 4.35-3.39 9.11-5.34 13.92-1.47-2.21-2.97-4.33-4.48-6.39zm14.54-21.02c-.97 2.91-2.31 6.8-3.9 11.22-3.86-5.21-7.48-9.66-10.54-13.21 1.11-3.61 1.74-5.93 1.89-6.52 1.58.31 3.14.64 4.69.99.05.22.15.42.34.57.08.07 3.19 2.57 7.52 6.95zm-4.02-6.58c1.92.49 3.82 1.02 5.66 1.58-.18.55-.49 1.53-.94 2.88-1.88-1.89-3.51-3.39-4.72-4.46zm.71 22.02c2.72 3.81 5.52 7.97 8.28 12.44-1.87 5.25-3.88 10.5-5.87 15.04-2.42-4.72-5.07-9.23-7.83-13.5 1.97-4.8 3.8-9.58 5.42-13.98zm.83-2.27c1.63-4.48 3.01-8.47 4.05-11.56 2.68 2.81 5.71 6.24 8.72 10.19-1.26 4.08-2.79 8.82-4.47 13.67-2.78-4.44-5.58-8.55-8.3-12.3zm-103.5-20.01c11.55-13.33 30.02-19.82 51.13-20.58 20.93-.75 43.95 4.42 57.81 20.75-31.22-9.75-73.99-9.51-108.94-.17zm1.23 1.84c.01-.02 0-.05 0-.07 1.15-.3 2.3-.59 3.46-.88.1.07 2.79 2.03 6.97 5.53-1.51 3.26-3.37 7.18-5.44 11.32-3.09-3.06-5.88-5.67-8.21-7.76 2.4-5.28 3.17-7.98 3.22-8.14zm-4.79 6.75c-2.16-1.9-3.8-3.26-4.74-4.02 2.37-.78 4.79-1.51 7.25-2.2-.4 1.16-1.17 3.23-2.51 6.22zm-.87 1.9c-.74 1.58-1.64 3.39-2.67 5.38-.92-2.75-2.03-5.04-3.28-6.71-.94-1.26-1.97-2.2-3.05-2.82.96-.35 1.94-.69 2.91-1.02.04.04.06.09.11.13.08.06 2.35 1.83 5.98 5.04zm1.56 1.39c2.34 2.11 5.1 4.71 8.15 7.74-2.05 4.05-4.28 8.23-6.53 12.14-1.23-1.3-2.4-2.54-3.49-3.74-.28-3.41-.81-6.58-1.54-9.4 1.35-2.53 2.48-4.78 3.41-6.74zm-3.4 36.48c1.43 1.68 2.91 3.48 4.46 5.52-1.6 2.32-3.25 4.68-4.97 7.06-.01.02-.02.04-.03.06-1.9-.31-3.8-.61-5.66-.95.73-.57 1.44-1.29 2.1-2.17 1.64-2.21 3.07-5.51 4.1-9.52zm5.73 7.21c1.53 2.08 3.12 4.4 4.78 7.01-2.99-.37-5.95-.76-8.87-1.21 1.4-1.96 2.77-3.89 4.09-5.8zm1.19-1.75c2.35-3.44 4.56-6.81 6.64-10.07 3.04 3.36 6.09 6.95 8.91 10.74-2.05 2.93-4.14 5.71-6.25 8.24-.12.14-.18.31-.2.48-1.1-.12-2.18-.25-3.27-.38.03-.23 0-.47-.13-.68-2-3.17-3.89-5.9-5.7-8.33zm16.8 2.37c1.86 2.62 3.59 5.32 5.11 8.11-3.56-.24-7.1-.52-10.6-.86 1.85-2.27 3.69-4.7 5.49-7.25zm17.85.67c1.65 2.65 3.26 5.36 4.8 8.15-3.4-.05-6.78-.15-10.14-.3 1.78-2.45 3.57-5.08 5.34-7.85zm17.93-1.74c1.74 3.15 3.34 6.39 4.77 9.72-3.33.12-6.65.18-9.96.2 1.79-3.34 3.53-6.66 5.19-9.92zm1.09-2.13c2.42-4.77 4.7-9.42 6.82-13.86 3.16 4.43 6.17 9.1 8.88 13.97-1.84 3.64-3.8 7.32-5.89 11-.09.15-.11.31-.12.48-1.3.07-2.6.15-3.9.2-.01-.06-.01-.12-.04-.18-1.69-4-3.64-7.87-5.75-11.61zm16.86 2.23c1.5 2.81 2.9 5.68 4.16 8.59-3.04.26-6.09.47-9.13.65 1.74-3.09 3.4-6.18 4.97-9.24zm1.1-2.17c2.62-5.23 4.98-10.36 7.1-15.26 3.06 4.53 5.97 9.32 8.6 14.31-2.11 4.22-4.25 8.03-6.35 11.12-1.39.14-2.79.3-4.18.42-1.54-3.62-3.28-7.15-5.17-10.59zm16.83 1.23c1.21 2.41 2.36 4.86 3.41 7.35.04.1.11.19.18.27-2.83.39-5.66.73-8.51 1.05 1.64-2.54 3.29-5.47 4.92-8.67zm16.05.14c.8 1.67 1.57 3.36 2.3 5.08 0 .01.01.02.02.03-1.9.35-3.8.7-5.71 1.02 1.11-1.68 2.25-3.77 3.39-6.13zm1.1-2.34c2.11-4.63 4.19-9.99 6.04-15.15 2.03 3.39 4.03 6.95 5.95 10.65-1.91 4.77-3.84 8.77-5.49 10.91 0 0 0 .01-.01.02-1.13.23-2.26.47-3.39.68.01-.16 0-.32-.06-.47-.95-2.25-1.97-4.47-3.04-6.64zm6.9-17.58c.49-1.41.97-2.79 1.42-4.12 1.24-3.66 2.3-6.99 3.17-9.78 2.18 2.98 4.31 6.22 6.28 9.67-1.35 4.88-3.04 10.11-4.82 14.82-1.96-3.68-3.99-7.22-6.05-10.59zm12.23-1.72c.82 1.55 1.59 3.14 2.32 4.77-.28 6.76-1.67 12.71-4.13 16.37-1.01-2.18-2.06-4.33-3.13-6.42 1.82-4.65 3.54-9.85 4.94-14.72zm.78-2.77c.38-1.39.71-2.72 1.02-3.99.3 2.34.49 4.68.56 6.97-.52-1.01-1.04-2-1.58-2.98zm.07-9.08c-.37 2-.88 4.25-1.49 6.63-1.99-3.33-4.12-6.46-6.28-9.32.52-1.72.94-3.13 1.24-4.17 1.15-3.98 1.66-5.9 1.82-6.91 2.15 4 3.73 8.72 4.77 13.63-.02.05-.05.09-.06.14zm-152.98 12.59c0-14.39 4.53-26.08 10.11-26.08s10.11 11.69 10.11 26.08-4.53 26.08-10.11 26.08-10.11-11.69-10.11-26.08zm145.97 27.68h-.01s-.03-.02-.08-.07c-.48 2.94-2.66 5.42-5.67 6.18-57.01 14.26-107.64 5.1-124.06 1.33-2.47-.61-4.24-2.65-4.6-5.04h-.01l.32-1.94c40.27 7.62 88.66 7.45 132.61-2.14-.01-.01-.01-.02-.02-.03l1.49-.29c.01 0 .14 1.08.03 2zm.65-3.98-1.76.33c.05-.04.1-.08.16-.11-.06.03-.11.07-.16.11l-.44.08c.11-.08.25-.16.41-.22-.84.19-1.69.34-2.53.52 1.27-2.07 2.6-4.83 3.9-7.97.88 1.76 1.75 3.55 2.59 5.37.05.1.11.18.18.26-.72.71-1.5 1.27-2.35 1.63zm2.87.57c2.29-1.85 4.12-4.97 5.3-9.02.91-3.15 1.45-6.87 1.63-10.85.12-.24.14-.52.04-.79.32-9.84-1.59-21.19-5.86-29.77 5.09 2.73 8.92 12.91 8.97 25.04.06 13.18-4.35 23.99-10.08 25.39z"/></g></g></svg>