<?xml version="1.0" encoding="utf-8"?>
<!-- Generator: Adobe Illustrator 22.1.0, SVG Export Plug-In . SVG Version: 6.00 Build 0)  -->
<svg version="1.1" id="Слой_7" xmlns="http://www.w3.org/2000/svg" xmlns:xlink="http://www.w3.org/1999/xlink" x="0px" y="0px"
	 viewBox="0 0 512 512" style="enable-background:new 0 0 512 512;" xml:space="preserve">
<style type="text/css">
	.st0{fill:#857154;}
	.st1{fill:#FDCD95;}
	.st2{fill:#FDCD95;stroke:#000000;stroke-width:3;stroke-linecap:round;stroke-linejoin:round;stroke-miterlimit:10;}
	.st3{fill:none;stroke:#1D1D1B;stroke-width:3;stroke-linecap:round;stroke-linejoin:round;stroke-miterlimit:10;}
	.st4{fill:none;stroke:#000000;stroke-width:3;stroke-linecap:round;stroke-linejoin:round;stroke-miterlimit:10;}
	.st5{fill:#4D7450;}
	.st6{fill:#B5D758;stroke:#000000;stroke-width:3;stroke-linecap:round;stroke-linejoin:round;stroke-miterlimit:10;}
	.st7{fill:none;stroke:#000000;stroke-width:3;stroke-miterlimit:10;}
	.st8{fill:#FFFFFF;}
	.st9{fill:none;stroke:#000000;stroke-width:2.5726;stroke-linecap:round;stroke-linejoin:round;stroke-miterlimit:10;}
	.st10{fill:#FFAFB9;}
	.st11{fill:#D3A746;}
	.st12{fill:#F2DE29;stroke:#000000;stroke-width:3;stroke-linecap:round;stroke-linejoin:round;stroke-miterlimit:10;}
	.st13{fill:#F1B0B5;stroke:#000000;stroke-width:3;stroke-linecap:round;stroke-linejoin:round;stroke-miterlimit:10;}
	.st14{fill:none;stroke:#000000;stroke-width:2;stroke-linecap:round;stroke-linejoin:round;stroke-miterlimit:10;}
	.st15{fill:#CDE080;stroke:#000000;stroke-width:2;stroke-linecap:round;stroke-linejoin:round;stroke-miterlimit:10;}
	.st16{fill:#F1B0B5;stroke:#000000;stroke-width:2;stroke-linecap:round;stroke-linejoin:round;stroke-miterlimit:10;}
	.st17{fill:#315164;stroke:#000000;stroke-width:2;stroke-linecap:round;stroke-linejoin:round;stroke-miterlimit:10;}
	.st18{fill:#F2DE29;stroke:#000000;stroke-width:2;stroke-linecap:round;stroke-linejoin:round;stroke-miterlimit:10;}
	.st19{fill:#FFFFFF;stroke:#000000;stroke-width:2;stroke-linecap:round;stroke-linejoin:round;stroke-miterlimit:10;}
	.st20{fill:#A80206;stroke:#000000;stroke-linecap:round;stroke-linejoin:round;stroke-miterlimit:10;}
	.st21{fill:#F2877B;}
	.st22{fill:#A80206;stroke:#000000;stroke-width:2;stroke-linecap:round;stroke-linejoin:round;stroke-miterlimit:10;}
	.st23{fill:none;stroke:#000000;stroke-linecap:round;stroke-linejoin:round;stroke-miterlimit:10;}
</style>
<g>
	<path d="M223.7,219.5c-2,0.5-38-21.8-38-21.8s11.7-5.5,38-2.3c12.3,1.5,3.1,20,3.1,20L223.7,219.5z"/>
	<path d="M277.7,192.1c0,0,20.4,2.4,33,3.3c12.6,0.9-4.2,12.9-4.2,12.9S284.2,222,283.3,222c-0.9,0-11.6-8.7-10.4-11.7
		S277.7,192.1,277.7,192.1z"/>
	<path class="st0" d="M281.4,183.4v5.3l14.5,3.4l17.7-2.4l13.7-7.6l13-15.7c0,0,10.6-16.3,10.5-32.6c-0.1-16.2-1.1-27.2-1.1-27.2
		s-4.1-25.6-8.5-31.2c-4.4-5.6-8.1-20.9-13.2-23.8s-9.8-16.4-19.1-19.9L294.4,23l-11.9-3.8l-15.4-1.1l-3,2l-9.3-3.3l-8-1l-12,2.2
		l-4.6,2.3l-7.5-0.2l-17.2,5l-10.7,7l-14.3,15l-11,20.3c0,0-4.7,12.7-5.4,15.6s-5,31.3-4.6,37.4c0.4,6.1,4.2,28.8,6.5,34.2
		c2.3,5.4,9.5,17.8,10.8,19.5c1.4,1.6,11.5,12.9,20.4,14.4c8.9,1.6,12.5,2.8,17.5,3c5,0.2,9.1-1.9,9.1-1.9l8.3-16.8l27.1-0.8
		c0,0,12.3,3.5,13.3,3.8c1.1,0.3,9,3.5,9,3.5V183.4z"/>
	<path class="st1" d="M283.3,219.5l-12.6,4.9l-16,2.3c0,0-18.2-0.7-23.4-3.6c-5.2-2.9-7.6-4.6-7.6-4.6l1.2-34.5
		c0,0-20.9-11.1-27.8-23.3c-6.9-12.2-10.5-22.7-10.5-22.7l-2.3-23.3l6.4-6.9l5.1-9.3l4.6,3.2l5.1,0.6l7.5-9.3l6-13.3l2.3,5.3l5,3.2
		l3.9-3.4l6.5-13.5l0.3,7.2l3.2,3.1l5.6-0.5l5.4-5.5l4.7,3.1l4.3,3.4l5.3,0.7l5.1-4.4l4.7-7.1l2.3,6.8l4.9,9.5l2.7,4h2.9l5.5-4.2
		l3,9.2l3.5,4.5l6.4-0.9l2.2,7.9l2.8,4.4l5.5-0.6l2.8-3.5l0.6,16.2l-6.1,24.5l-10.9,17l-17.1,14.9l-6.6,3.1L283.3,219.5z"/>
	<path class="st2" d="M319.8,108.2c0.9-0.3,1.8-0.4,2.7-0.3c5.5,0.6,9.1,8.5,8.1,17.7c-1.1,9.1-6.4,16-11.9,15.4
		c-0.4-0.1-0.9-0.1-1.3-0.3"/>
	<path class="st3" d="M184.1,113.2c0,0.4,0,0.8,0,1.4"/>
	<path class="st4" d="M188.7,144.8c3.5,9.4,8.9,17.8,15.7,24.7c5.6,5.7,12.1,10.4,19.2,13.9c8.7,4.2,18.4,6.5,28.7,6.5
		c10.3,0,20-2.3,28.7-6.5c7.4-3.6,14.1-8.5,19.8-14.4c7.5-7.9,13.3-17.5,16.6-28.3c2.1-6.8,3.2-14,3.2-21.5c0-3.7-0.3-7.4-0.8-11"/>
	<path class="st4" d="M223.7,183.4L223.7,183.4v6.4v2v26.7c26.8,19.9,59.6,1,59.6,1"/>
	<polyline class="st4" points="283.3,219.5 281.4,188.7 281.1,183.4 281.1,183.4 	"/>
	<path class="st2" d="M188.7,144.8c-0.8,0.6-1.7,1.1-2.7,1.3c-5.4,1.2-11.4-5.2-13.3-14.2c-1.9-9,0.9-17.2,6.3-18.4
		c1.7-0.4,3.4,0,5,0.9c0,1.5,0,3.5,0,4.6C184.1,128.2,185.8,136.9,188.7,144.8z"/>
	<path class="st3" d="M184.3,114.6c-0.1,0-0.1-0.1-0.2-0.1"/>
	<path class="st4" d="M223.7,189.7c-6.3,2.1-12.8,2.7-19.3,1.6c-31.5-5.1-50.9-47.4-43.3-94.5c7.5-46.3,38.2-80.1,69.1-76.4"/>
	<path class="st4" d="M262.3,19.8c32.2-8.3,69.1,21.4,83.1,67.5c14.3,46.9-0.6,93-33.2,102.9c-10,3-20.6,2.3-30.8-1.5"/>
	<path class="st3" d="M230.1,20.4c4.7-2.8,10.4-4.5,16.6-4.5c5.7,0,11,1.4,15.5,3.9"/>
	<path class="st4" d="M175.9,72.5c0,0-1.4,66.6,16.7,29.5c0,0,2-3.6,4.4-7.9c3.2-5.8,7.2-12.9,8.4-14.5"/>
	<path class="st4" d="M319.8,108.2c0,0-8.6,15.6-13.2-8.2c0,0-8.9,7.8-12.1-11.7"/>
	<path class="st4" d="M298,72.5c0,0-4.6,32.4-16.9,12.8c0,0-6.2-11.4-6.2-17.8c0,0-6.1,29.5-22.5,6.8c0,0-17,19.6-15.6-5
		c0,0-9.6,34.4-17.8,10.3c0,0-12.5,36.6-23.2,16.7"/>
	<path class="st4" d="M311.5,44.8c0,0,16,24.6,17.8,46.6"/>
	<path class="st4" d="M205.4,47.3c0,0-14.5,12.1-16.7,29.5"/>
	<g>
		<path class="st5" d="M355.7,154.2l11.7-35.1c5.2-19.4-1.3-43.6-11.7-43.6h0c-10.4,0-16.9,24.2-11.7,43.6L355.7,154.2z"/>
		<circle class="st5" cx="355.7" cy="174.8" r="9.3"/>
	</g>
	<g>
		<path class="st5" d="M390.6,154.2l11.7-35.1c5.2-19.4-1.3-43.6-11.7-43.6h0c-10.4,0-16.9,24.2-11.7,43.6L390.6,154.2z"/>
		<circle class="st5" cx="390.6" cy="174.8" r="9.3"/>
	</g>
	<g>
		<path class="st2" d="M89,470.3c0,0-9,6.5-10-0.5c-0.6-4,4.9-10.2,9.8-14c3.7-2.9,6.9-6.2,9.7-9.9c5.5-7.4,16.8-17.2,16.8-17.2
			c-1.7-49.3,26-112.3,26-112.3l23.3,5l8.7,3c0,0-24.2,70.7-27.3,79c-2.8,7.4-12.3,39.3-4.3,47.7c8.4,8.7,25,29.6,7.3,24.8
			c-17.7-4.8-17.7-9.2-27,9.2c-9.3,18.3-20,10.3-18.3,2"/>
		<path class="st2" d="M100,456.6c0,0-29.7,26.4-6,24.3"/>
		<path class="st2" d="M107,462c0,0-24.3,29-6.2,26.4c4.7-0.7,13.2-10.7,16.1-14.4"/>
	</g>
	<g>
		<path class="st2" d="M422.8,467.9c0,0,7.5,5.7,9.9-1c1.7-4.6-4-10.5-8.9-14.4c-3.7-2.9-6.9-6.2-9.7-9.9
			c-5.5-7.4-16.8-17.2-16.8-17.2c1.7-49.3-26-112.3-26-112.3l-23.3,5l-8.7,3c0,0,24.2,70.7,27.3,79c2.8,7.4,12.3,39.3,4.3,47.7
			c-8.4,8.7-25,29.6-7.3,24.8c17.7-4.8,17.7-9.2,27,9.2c9.3,18.3,20,10.3,18.3,2"/>
		<path class="st2" d="M412.6,453.4c0,0,28.7,35.7,4.4,25"/>
		<path class="st2" d="M405.6,458.7c0,0,25.1,35.6,5.4,27.6c-4.4-1.8-11.7-11.4-14.5-15.2"/>
	</g>
	<path class="st6" d="M204.7,201.6c0,0-30-18-46,24S124,318.3,140,325c16,6.7,26,7.3,26,7.3l-16.3,125.4c-0.2,1.6,0.6,3.1,2,3.8
		c15.4,7.6,105.1,47.5,206.3-5.9c0,0-34-172.7-34-176.7s13.3,49.3,13.3,49.3s43.3-4,46.7-12.7c0,0-14.3-112.4-73.3-120.2
		c-3.8-0.5-7.7,1-10.3,3.8C290,210,257.3,235.8,204.7,201.6"/>
	<g>
		<path class="st7" d="M220,313.3h-23.8c-3.7,0-6.8-3-6.8-6.8V279c0-3.7,3-6.8,6.8-6.8H220c3.7,0,6.8,3,6.8,6.8v27.6
			C226.7,310.3,223.7,313.3,220,313.3z"/>
		<path class="st7" d="M190.6,275.1l13.3,13.5c2.2,2.3,5.9,2.2,8-0.2l12.6-14.3"/>
	</g>
	<line class="st4" x1="166" y1="332.3" x2="171.7" y2="288.6"/>
	<ellipse cx="226.2" cy="112.5" rx="6.9" ry="11.1"/>
	<circle class="st8" cx="229.1" cy="118" r="3.1"/>
	<path class="st9" d="M215.3,107.7c0,0,9.4-13.2,21.4-1"/>
	<path class="st4" d="M208.1,98.4c0,0,15.5-15.1,31.1-4.9"/>
	<ellipse cx="270" cy="111.9" rx="6.9" ry="11.1"/>
	<circle class="st8" cx="273.4" cy="118" r="3.1"/>
	<path class="st9" d="M280.9,107.1c0,0-9.4-13.2-21.4-1"/>
	<path d="M229.6,150.1l14.7-1.9l19.6,0.9l6.3,0.9c0,0-2.6,17.5-5.7,21.2c-3.2,3.7-5.9,5.4-6.4,5.9s-10,0.8-11.2,0s-12-4.8-12-4.8
		l-5.5-18.8L229.6,150.1z"/>
	<path class="st4" d="M292,99c0,0-10.9-13.7-30.2-8.6"/>
	<path class="st8" d="M229.6,148.6c0,0,10.8,14.4,40.6,2.4l-14.9-6.5L229.6,148.6z"/>
	<path class="st10" d="M234.9,171.4c0,0,19.7-9,29.1,0.9l-5.8,7.2l-8.3,3.5l-8.7-3.7L234.9,171.4z"/>
	<path class="st4" d="M239.9,130.8c0,0,10.1-8.8,20.3,0"/>
	<path class="st4" d="M270.3,150.1L270.3,150.1c-14-9.8-31.3-5.3-40.6-1.5c-0.2,1-0.3,2.2-0.3,3.4c0,12.6,9.2,31,20.5,31
		c11.3,0,20.5-19.4,20.5-32C270.3,150.7,270.3,150.4,270.3,150.1"/>
	<polygon class="st11" points="275.5,353 342,314.5 412.9,351.7 346,390.8 	"/>
	<polygon class="st12" points="275.5,353 206,360 275.5,318.5 342,314.5 	"/>
	<polygon class="st13" points="344.8,472.5 276.2,430.7 275.5,353 345,390.8 	"/>
	<polygon class="st6" points="346.2,472.5 414.7,430.7 415.5,353 346,390.8 	"/>
	<line class="st4" x1="342" y1="314.5" x2="415.5" y2="353"/>
	<line class="st4" x1="342" y1="314.5" x2="345" y2="389"/>
	<g>
		<ellipse class="st14" cx="344.3" cy="370.7" rx="27" ry="9.1"/>
		<ellipse class="st14" cx="343.9" cy="360.8" rx="27" ry="9.1"/>
		
			<ellipse transform="matrix(4.302895e-02 -0.9991 0.9991 4.302895e-02 -20.1898 681.0084)" class="st14" cx="345.4" cy="351" rx="9.1" ry="27"/>
		
			<ellipse transform="matrix(0.1417 -0.9899 0.9899 0.1417 -39.553 634.8276)" class="st14" cx="346.3" cy="340.2" rx="9.1" ry="27"/>
		
			<ellipse transform="matrix(0.1417 -0.9899 0.9899 0.1417 -27.1659 626.6954)" class="st14" cx="347.8" cy="329" rx="9.1" ry="27"/>
		
			<ellipse transform="matrix(0.1805 -0.9836 0.9836 0.1805 -24.6989 605.0703)" class="st14" cx="350.8" cy="317.4" rx="9.1" ry="27"/>
	</g>
	<path class="st15" d="M320.8,215.3c0,0,29-8.7,33.7,32.1l0.3,8.4l19.6-6.4C374.5,249.3,364.8,198.5,320.8,215.3z"/>
	<path class="st16" d="M384,253.3c1.5-0.2,22.4-21.3,47.7-9c0,0-31.1-31.9-56.7-0.8L384,253.3z"/>
	<path class="st17" d="M397.5,273.1c0,0,28.2-16.2,44.9,4c0,0-4.4-37.3-50.8-22.3L397.5,273.1z"/>
	<polygon class="st18" points="348,264.6 329.2,254.5 337.8,267.9 314.6,261.8 329.2,270.7 308.8,271.5 328.7,278.7 305.4,286.3 
		330,285.5 310.5,302 336,296.4 314.3,321.9 349.6,304 339.4,328.9 355.9,313 359.3,334.1 371.3,312.8 382.3,338.9 384.2,314.4 
		397.9,330.1 390.7,308 411.2,320.9 395.5,300.2 416.7,303.8 401.5,290.9 418.9,288 392,281.3 360.7,297.3 347.2,287.5 	"/>
	<circle class="st19" cx="370.6" cy="272.4" r="29.8"/>
	<circle class="st20" cx="368.7" cy="273" r="7.9"/>
	<circle class="st21" cx="352.7" cy="267.4" r="7.9"/>
	<circle class="st21" cx="385.4" cy="283.1" r="7.9"/>
	<circle class="st22" cx="318.3" cy="217.7" r="7.9"/>
	<circle class="st22" cx="434.6" cy="245.1" r="7.9"/>
	<circle class="st22" cx="444.2" cy="282.6" r="7.9"/>
	
		<ellipse transform="matrix(0.9512 -0.3084 0.3084 0.9512 -61.0482 125.246)" class="st23" cx="365.6" cy="255.7" rx="7.3" ry="5.8"/>
	<g>
		
			<ellipse transform="matrix(0.8728 -0.4881 0.4881 0.8728 -78.3038 210.9926)" class="st23" cx="365.6" cy="255.7" rx="7.3" ry="5.8"/>
		<ellipse transform="matrix(0.8728 -0.4881 0.4881 0.8728 -78.3038 210.9926)" cx="365.6" cy="255.7" rx="4.3" ry="3.4"/>
	</g>
	<g>
		
			<ellipse transform="matrix(5.333649e-02 -0.9986 0.9986 5.333649e-02 98.5686 638.7643)" class="st23" cx="386.2" cy="267.4" rx="7.3" ry="5.8"/>
		
			<ellipse transform="matrix(5.333649e-02 -0.9986 0.9986 5.333649e-02 98.5686 638.7643)" cx="386.2" cy="267.4" rx="4.3" ry="3.4"/>
	</g>
	<path class="st4" d="M354.2,273.1c0,0,0.8,30.8,26.9,12.6"/>
	<path class="st23" d="M361.5,247.9c0,0,10.3-3,13.5,3.2"/>
	<path class="st23" d="M384.3,255.7c0,0,7.4-0.4,10.8,9.9"/>
</g>
</svg>
