<?xml version="1.0" encoding="utf-8"?>
<!-- Generator: Adobe Illustrator 22.1.0, SVG Export Plug-In . SVG Version: 6.00 Build 0)  -->
<svg version="1.1" xmlns="http://www.w3.org/2000/svg" xmlns:xlink="http://www.w3.org/1999/xlink" x="0px" y="0px"
	 viewBox="0 0 283.5 283.5" style="enable-background:new 0 0 283.5 283.5;" xml:space="preserve">
<style type="text/css">
	.st0{fill:#E7E6E8;stroke:#000000;stroke-miterlimit:10;}
	.st1{fill:none;stroke:#000000;stroke-miterlimit:10;}
	.st2{fill:none;stroke:#000000;stroke-width:0.75;stroke-miterlimit:10;}
	.st3{fill:#78797D;}
	.st4{fill:#C6C6C6;stroke:#000000;stroke-miterlimit:10;}
	.st5{fill:#C6C6C6;stroke:#000000;stroke-width:1.0303;stroke-miterlimit:10;}
	.st6{fill:#FDDC65;stroke:#000000;stroke-width:0.2767;stroke-miterlimit:10;}
	.st7{fill:#C6C6C6;stroke:#000000;stroke-width:0.2767;stroke-linecap:round;stroke-linejoin:round;stroke-miterlimit:10;}
	.st8{fill:#FFFFFF;stroke:#000000;stroke-width:0.2519;stroke-linecap:round;stroke-linejoin:round;stroke-miterlimit:10;}
	.st9{fill:none;stroke:#000000;stroke-width:0.2519;stroke-linecap:round;stroke-linejoin:round;stroke-miterlimit:10;}
	.st10{fill:none;stroke:#000000;stroke-width:0.2023;stroke-linecap:round;stroke-linejoin:round;stroke-miterlimit:10;}
	.st11{fill:none;stroke:#000000;stroke-width:1.1066;stroke-linecap:round;stroke-linejoin:round;stroke-miterlimit:10;}
	.st12{fill:#98999C;stroke:#000000;stroke-width:1.3071;stroke-linecap:round;stroke-linejoin:round;stroke-miterlimit:10;}
</style>
<g id="Слой_1">
</g>
<g id="Слой_3">
	
		<rect x="46.7" y="72.6" transform="matrix(0.9493 -0.3144 0.3144 0.9493 -29.5583 39.2875)" class="st0" width="120.7" height="77.3"/>
	<line class="st1" x1="44.2" y1="113.5" x2="159.4" y2="77.3"/>
	<line class="st1" x1="46.6" y1="120.8" x2="162" y2="85.3"/>
	<line class="st1" x1="49.5" y1="130.4" x2="164.9" y2="94.9"/>
	<line class="st1" x1="52.5" y1="140.1" x2="167.9" y2="104.6"/>
	<line class="st1" x1="56.1" y1="149.5" x2="171.5" y2="114"/>
	<g>
		<path d="M82.4,152.5c0-0.2,0-0.3,0-0.5c0-0.2,0-0.4-0.1-0.6c0-0.2-0.1-0.5-0.2-0.8c-0.1-0.3-0.1-0.7-0.2-1
			c-0.1-0.3-0.1-0.6-0.2-0.9c-0.1-0.3-0.1-0.5-0.2-0.8c-0.1-0.2-0.1-0.4-0.2-0.5l3.8-1.2l1.7,5.3l0.7-0.2l0.6,2l-0.8,0.2l-0.4-1.3
			l-4.2,1.3l0.4,1.3l-0.8,0.2l-0.6-2l0.5-0.2C82.3,152.8,82.3,152.7,82.4,152.5z M82.6,149.1c0.1,0.4,0.2,0.8,0.3,1.2
			c0.1,0.3,0.1,0.6,0.2,0.8c0,0.2,0.1,0.4,0.1,0.6c0,0.2,0,0.3,0,0.5l0,0.5l2.8-0.9l-1.5-4.6l-2.2,0.7
			C82.4,148.3,82.5,148.7,82.6,149.1z"/>
		<path d="M91.5,149.5c0,0.3,0,0.6-0.2,0.9c-0.1,0.3-0.3,0.5-0.5,0.7c-0.2,0.2-0.5,0.3-0.8,0.4s-0.6,0.1-0.9,0.1
			c-0.3,0-0.5-0.1-0.8-0.3c-0.2-0.1-0.5-0.3-0.6-0.6c-0.2-0.3-0.3-0.6-0.5-0.9c-0.1-0.4-0.2-0.7-0.2-1c0-0.3,0.1-0.6,0.2-0.9
			c0.1-0.3,0.3-0.5,0.5-0.7c0.2-0.2,0.5-0.3,0.8-0.4s0.6-0.1,0.9-0.1c0.3,0,0.6,0.1,0.8,0.3c0.2,0.1,0.4,0.3,0.6,0.6
			c0.2,0.3,0.3,0.6,0.5,0.9C91.5,148.8,91.5,149.1,91.5,149.5z M90.3,148c-0.1-0.2-0.3-0.3-0.4-0.5c-0.2-0.1-0.3-0.2-0.5-0.2
			c-0.2,0-0.4,0-0.6,0.1c-0.2,0.1-0.4,0.2-0.5,0.3c-0.1,0.1-0.2,0.3-0.3,0.5c-0.1,0.2-0.1,0.4-0.1,0.6c0,0.2,0.1,0.5,0.1,0.7
			c0.1,0.2,0.2,0.5,0.3,0.6c0.1,0.2,0.3,0.3,0.4,0.5c0.2,0.1,0.3,0.2,0.5,0.2c0.2,0,0.4,0,0.6-0.1c0.2-0.1,0.4-0.2,0.5-0.3
			c0.1-0.1,0.2-0.3,0.3-0.5c0.1-0.2,0.1-0.4,0.1-0.6c0-0.2-0.1-0.5-0.1-0.7C90.5,148.4,90.4,148.2,90.3,148z"/>
		<path d="M98.1,147.4c0,0.1,0,0.3,0,0.4c0,0.1-0.1,0.3-0.1,0.4c-0.1,0.1-0.1,0.3-0.2,0.4c-0.1,0.1-0.2,0.3-0.4,0.4
			c-0.2,0.1-0.4,0.2-0.6,0.3c-0.1,0-0.3,0.1-0.4,0.1c-0.2,0-0.3,0-0.5,0c-0.2,0-0.3-0.1-0.5-0.2c-0.2-0.1-0.3-0.2-0.5-0.3
			c-0.1-0.1-0.3-0.3-0.4-0.5c-0.1-0.2-0.2-0.5-0.3-0.8c-0.1-0.4-0.2-0.7-0.2-1c0-0.3,0.1-0.6,0.2-0.9c0.1-0.3,0.3-0.5,0.5-0.7
			c0.2-0.2,0.4-0.3,0.7-0.4c0.2-0.1,0.4-0.1,0.6-0.1s0.4,0,0.5,0c0.2,0,0.3,0.1,0.4,0.2c0.1,0.1,0.2,0.2,0.3,0.3
			c0.1,0.1,0.2,0.2,0.2,0.3c0.1,0.1,0.1,0.2,0.2,0.3l-0.7,0.2c-0.1-0.3-0.3-0.5-0.5-0.6s-0.5-0.1-0.8,0c-0.2,0.1-0.4,0.2-0.5,0.3
			c-0.1,0.1-0.2,0.3-0.3,0.5c-0.1,0.2-0.1,0.4-0.1,0.6s0.1,0.5,0.2,0.7c0.1,0.3,0.2,0.5,0.3,0.7c0.1,0.2,0.2,0.3,0.4,0.4
			c0.1,0.1,0.3,0.2,0.5,0.2c0.2,0,0.3,0,0.5-0.1c0.1,0,0.2-0.1,0.4-0.2c0.1-0.1,0.2-0.2,0.2-0.3c0.1-0.1,0.1-0.3,0.1-0.4
			c0-0.2,0-0.3,0-0.5L98,147C98.1,147.1,98.1,147.2,98.1,147.4z"/>
		<path d="M99.2,148.4l-1.4-4.4l3.6-1.1l1.4,4.4l-0.8,0.2l-1.2-3.8l-2.1,0.7l1.2,3.8L99.2,148.4z"/>
		<path d="M104.5,145.2c0,0.4,0.1,0.7,0,1c0,0.3-0.1,0.5-0.3,0.6c-0.1,0.1-0.3,0.2-0.5,0.3c-0.1,0-0.1,0-0.2,0c-0.1,0-0.1,0-0.2,0
			l-0.2-0.7c0.1,0,0.2,0,0.3,0c0.1,0,0.1,0,0.2-0.1c0,0,0.1-0.1,0.1-0.2c0-0.1,0-0.2,0.1-0.3c0-0.1,0-0.3,0-0.4
			c0-0.2-0.1-0.4-0.1-0.6c-0.1-0.2-0.1-0.5-0.2-0.8l-0.5-1.6l3.2-1l1.4,4.4l-0.8,0.2l-1.2-3.8l-1.7,0.5l0.3,1.1
			C104.3,144.3,104.4,144.8,104.5,145.2z"/>
		<path d="M107.5,141.5c0-0.2,0.1-0.4,0.2-0.6c0.1-0.2,0.3-0.3,0.5-0.4c0.2-0.1,0.4-0.2,0.7-0.3c0.2-0.1,0.4-0.1,0.6-0.1
			c0.2,0,0.4,0,0.6,0c0.2,0,0.4,0.1,0.5,0.3c0.1,0.1,0.3,0.3,0.3,0.5l0.8,2.6c0,0.1,0.1,0.1,0.1,0.2c0,0,0.1,0,0.2,0
			c0,0,0.1,0,0.1-0.1c0,0,0.1,0,0.1-0.1l0.2,0.5c-0.1,0-0.1,0.1-0.2,0.1c-0.1,0-0.1,0.1-0.2,0.1c-0.1,0-0.2,0.1-0.3,0.1
			c-0.1,0-0.2,0-0.3,0c-0.1,0-0.1-0.1-0.2-0.2c-0.1-0.1-0.1-0.2-0.2-0.3c-0.1,0.1-0.1,0.3-0.2,0.4c-0.1,0.1-0.2,0.2-0.3,0.3
			c-0.1,0.1-0.2,0.2-0.4,0.3c-0.1,0.1-0.3,0.2-0.5,0.2c-0.2,0.1-0.3,0.1-0.5,0.1c-0.2,0-0.4,0-0.5-0.1c-0.2-0.1-0.3-0.2-0.4-0.3
			c-0.1-0.1-0.2-0.3-0.3-0.5c-0.1-0.2-0.1-0.4-0.1-0.6c0-0.2,0.1-0.4,0.2-0.5c0.1-0.2,0.2-0.3,0.3-0.4c0.1-0.1,0.3-0.2,0.4-0.3
			l1.2-0.5c0.1,0,0.2-0.1,0.2-0.2c0-0.1,0-0.2,0-0.4c-0.1-0.3-0.2-0.4-0.4-0.5c-0.2-0.1-0.5,0-0.8,0.1c-0.3,0.1-0.6,0.3-0.7,0.4
			c-0.1,0.2-0.1,0.4-0.1,0.7l-0.7,0.2C107.5,142,107.4,141.8,107.5,141.5z M110.4,142.4c-0.1,0.1-0.2,0.1-0.3,0.2
			c-0.1,0.1-0.2,0.1-0.3,0.2l-0.3,0.2c-0.1,0.1-0.2,0.1-0.4,0.2c-0.1,0.1-0.2,0.2-0.3,0.2c-0.1,0.1-0.1,0.2-0.1,0.3
			c0,0.1,0,0.2,0,0.3c0,0.1,0.1,0.2,0.2,0.3c0.1,0.1,0.1,0.1,0.2,0.2c0.1,0,0.2,0.1,0.3,0.1c0.1,0,0.2,0,0.3-0.1
			c0.1,0,0.2-0.1,0.2-0.1c0.1,0,0.2-0.1,0.3-0.2c0.1-0.1,0.2-0.1,0.3-0.2c0.1-0.1,0.1-0.2,0.2-0.3c0-0.1,0.1-0.2,0.1-0.3
			c0-0.1,0-0.2,0-0.4l-0.2-0.7C110.5,142.3,110.4,142.4,110.4,142.4z"/>
		<path d="M115.2,138.4l0.2,0.7l-1.5,0.5l1.2,3.8l-0.8,0.2l-1.2-3.8l-1.5,0.5l-0.2-0.7L115.2,138.4z"/>
		<path d="M117.7,141.3l1.1-4.1l0.9-0.3l1.4,4.4l-0.8,0.2l-1.1-3.4l0,0l-1.1,4.1l-0.9,0.3l-1.4-4.4l0.8-0.2L117.7,141.3L117.7,141.3
			z"/>
		<path d="M123.6,136.7l-0.3-0.9l0.9-0.3l0.3,0.9L123.6,136.7z M124.7,140.2l-0.3-0.9l0.9-0.3l0.3,0.9L124.7,140.2z"/>
		<path d="M140.1,130.5l-0.7,0.2c-0.1-0.2-0.3-0.4-0.4-0.5c-0.3-0.2-0.6-0.2-0.9-0.1c-0.4,0.1-0.7,0.4-0.8,0.9
			c-0.1,0.5-0.1,1.1,0.1,1.8c0.1-0.3,0.2-0.6,0.5-0.8c0.2-0.2,0.4-0.3,0.7-0.4c0.5-0.2,1-0.1,1.5,0.1c0.5,0.2,0.8,0.6,1,1.2
			c0.2,0.5,0.2,1.1-0.1,1.6c-0.2,0.5-0.6,0.9-1.3,1.1c-0.5,0.2-1.1,0.1-1.6-0.2c-0.5-0.3-1-0.9-1.3-1.9c-0.2-0.7-0.4-1.4-0.3-1.9
			c0-1.1,0.5-1.8,1.4-2.1c0.7-0.2,1.2-0.2,1.5,0.1C139.8,129.8,140,130.1,140.1,130.5z M140.3,133.2c-0.1-0.3-0.3-0.6-0.5-0.8
			c-0.3-0.2-0.6-0.3-1.1-0.1c-0.3,0.1-0.6,0.3-0.7,0.6c-0.2,0.3-0.2,0.6-0.1,1.1c0.1,0.4,0.3,0.7,0.6,0.8c0.3,0.2,0.6,0.2,1,0.1
			c0.4-0.1,0.6-0.4,0.7-0.7C140.4,133.9,140.4,133.5,140.3,133.2z"/>
		<path d="M141.5,132.8l0.8-0.2c0.2,0.4,0.3,0.6,0.5,0.8c0.3,0.2,0.7,0.3,1.2,0.1c0.4-0.1,0.7-0.3,0.8-0.6c0.2-0.3,0.2-0.6,0.1-0.9
			c-0.1-0.4-0.3-0.7-0.6-0.7c-0.3-0.1-0.7-0.1-1.1,0.1l-0.2,0c0,0-0.1,0-0.1,0.1l-0.2-0.6c0.1,0,0.1,0,0.2,0l0.2-0.1
			c0.3-0.1,0.5-0.2,0.6-0.4c0.3-0.3,0.3-0.6,0.2-1c-0.1-0.3-0.3-0.5-0.5-0.6c-0.3-0.1-0.5-0.1-0.8,0c-0.5,0.2-0.8,0.4-0.9,0.8
			c0,0.2,0,0.5,0.1,0.8l-0.7,0.2c-0.1-0.4-0.2-0.8-0.1-1.2c0.1-0.6,0.6-1.1,1.3-1.3c0.6-0.2,1.1-0.2,1.5,0c0.4,0.2,0.7,0.5,0.9,1
			c0.1,0.4,0.1,0.7,0,1c-0.1,0.2-0.2,0.3-0.4,0.5c0.3,0,0.6,0.1,0.9,0.3c0.2,0.2,0.4,0.5,0.5,0.8c0.2,0.6,0.1,1.1-0.1,1.6
			c-0.3,0.5-0.7,0.8-1.4,1c-0.7,0.2-1.3,0.2-1.7-0.1C142,133.8,141.7,133.4,141.5,132.8z"/>
		<path d="M148.8,127.9c-0.2,0.6-0.3,1.1-0.4,1.7c-0.1,0.6-0.1,1.1-0.1,1.6c0,0.3,0,0.8,0.1,1.4l-0.8,0.3c-0.2-1.2-0.1-2.4,0.2-3.8
			c0.2-0.8,0.4-1.5,0.6-2.1l-3.3,1l-0.2-0.7l4.1-1.3l0.2,0.6C149.1,126.9,148.9,127.3,148.8,127.9z"/>
		<path d="M153.4,126.8l1.2,3.8l-0.8,0.2l-1.4-4.4l2.7-0.9l0.2,0.7L153.4,126.8z"/>
		<path d="M156.7,125.7c0-0.1,0-0.2,0.1-0.3c0-0.1,0.1-0.2,0.2-0.3c0.1-0.1,0.2-0.2,0.3-0.3c0.1-0.1,0.3-0.2,0.5-0.2
			c0.2-0.1,0.5-0.1,0.7-0.1c0.2,0,0.5,0.1,0.7,0.2c0.2,0.1,0.4,0.3,0.6,0.6c0.2,0.2,0.3,0.5,0.5,0.9c0.1,0.5,0.2,0.8,0.2,1.2
			c0,0.4,0,0.6-0.1,0.9c-0.1,0.3-0.3,0.5-0.5,0.6c-0.2,0.2-0.5,0.3-0.8,0.4c-0.1,0-0.3,0.1-0.4,0.1c-0.1,0-0.3,0-0.4,0
			c-0.1,0-0.2-0.1-0.3-0.1c-0.1-0.1-0.2-0.1-0.2-0.2l0,0l0.7,2.2l-0.8,0.2l-2-6.1l0.8-0.2L156.7,125.7L156.7,125.7z M157.5,128
			c0.1,0.2,0.2,0.3,0.4,0.5c0.1,0.1,0.3,0.2,0.5,0.2c0.2,0,0.4,0,0.6,0c0.2-0.1,0.4-0.2,0.5-0.3c0.1-0.1,0.2-0.3,0.3-0.5
			c0.1-0.2,0.1-0.4,0-0.6c0-0.2-0.1-0.4-0.1-0.7c-0.1-0.3-0.2-0.5-0.3-0.7c-0.1-0.2-0.2-0.3-0.4-0.5c-0.1-0.1-0.3-0.2-0.5-0.2
			c-0.2,0-0.4,0-0.6,0c-0.2,0.1-0.4,0.2-0.5,0.3c-0.1,0.1-0.2,0.3-0.3,0.5c-0.1,0.2-0.1,0.4,0,0.6c0,0.2,0.1,0.5,0.2,0.7
			C157.3,127.6,157.3,127.8,157.5,128z"/>
		<path d="M163.7,124.8l-0.6-1.8l0.8-0.2l1.4,4.4l-0.8,0.2l-0.6-2l-2.1,0.7l0.6,2l-0.8,0.2l-1.4-4.4l0.8-0.2l0.6,1.8L163.7,124.8z"
			/>
	</g>
	
		<rect x="128.2" y="66.2" transform="matrix(0.954 -0.2998 0.2998 0.954 -15.4354 45.518)" class="st2" width="24.7" height="13.7"/>
	<g>
		<path d="M50.8,92.8l1.1-0.4l-1.7,3.3l3.8,2.7l-1,0.3l-3.1-2.3l-0.7,1.3l0.7,2.1l-0.8,0.3l-2-6l0.8-0.3l1,2.9L50.8,92.8z"/>
		<path d="M57.8,95.8c0,0.3,0,0.6-0.1,0.9c-0.1,0.3-0.3,0.5-0.5,0.7c-0.2,0.2-0.5,0.3-0.8,0.4s-0.6,0.2-0.9,0.1s-0.6-0.1-0.8-0.3
			c-0.2-0.1-0.5-0.3-0.6-0.6c-0.2-0.3-0.3-0.6-0.5-0.9c-0.1-0.4-0.2-0.7-0.2-1c0-0.3,0-0.6,0.2-0.9c0.1-0.3,0.3-0.5,0.5-0.7
			c0.2-0.2,0.5-0.3,0.8-0.4s0.6-0.2,0.9-0.1c0.3,0,0.6,0.1,0.8,0.3c0.2,0.1,0.5,0.3,0.6,0.6c0.2,0.3,0.3,0.6,0.5,0.9
			C57.7,95.2,57.8,95.5,57.8,95.8z M56.5,94.4c-0.1-0.2-0.3-0.3-0.4-0.4c-0.2-0.1-0.3-0.2-0.5-0.2c-0.2,0-0.4,0-0.6,0.1
			s-0.4,0.2-0.5,0.3c-0.1,0.1-0.2,0.3-0.3,0.5c-0.1,0.2-0.1,0.4-0.1,0.6c0,0.2,0.1,0.5,0.1,0.7c0.1,0.2,0.2,0.5,0.3,0.6
			c0.1,0.2,0.3,0.3,0.4,0.5c0.2,0.1,0.3,0.2,0.5,0.2c0.2,0,0.4,0,0.6-0.1s0.4-0.2,0.5-0.3c0.1-0.1,0.2-0.3,0.3-0.5
			C57,96.2,57,96,57,95.7c0-0.2-0.1-0.5-0.1-0.7C56.7,94.8,56.6,94.6,56.5,94.4z"/>
		<path d="M61,95.2l0-4l1-0.3l1.5,4.4l-0.7,0.2L61.6,92l0,0l0,3.9l-0.7,0.2L58.5,93l0,0l1.2,3.5L59,96.8l-1.5-4.4l1.1-0.4L61,95.2
			L61,95.2z"/>
		<path d="M65.7,93.6l0-4l0.8-0.3l-0.1,5.1c0,0.3,0,0.5,0,0.7c0,0.2,0,0.4-0.1,0.5c0,0.1-0.1,0.3-0.1,0.4c0,0.1-0.1,0.2-0.2,0.3
			c-0.1,0.1-0.2,0.1-0.3,0.2c-0.1,0.1-0.2,0.1-0.3,0.1c-0.1,0-0.2,0.1-0.3,0.1c-0.1,0-0.1,0-0.2,0L64.7,96c0.1,0,0.1,0,0.2,0
			c0.1,0,0.2,0,0.3-0.1c0.1,0,0.2-0.1,0.3-0.2c0.1-0.1,0.1-0.2,0.1-0.4l0-0.7l-3.1-4l0.8-0.3L65.7,93.6L65.7,93.6z"/>
		<path d="M70.4,90l-0.6-1.8l0.8-0.3l1.5,4.4l-0.8,0.3l-0.7-2l-2,0.7l0.7,2l-0.8,0.3L67,89.2l0.8-0.3l0.6,1.8L70.4,90z"/>
		<path d="M71.9,88.2c0-0.2,0.1-0.4,0.2-0.6c0.1-0.2,0.3-0.3,0.5-0.4c0.2-0.1,0.4-0.2,0.7-0.3c0.2-0.1,0.4-0.1,0.6-0.1
			c0.2,0,0.4,0,0.6,0c0.2,0,0.4,0.1,0.5,0.3c0.2,0.1,0.3,0.3,0.3,0.5l0.9,2.5c0,0.1,0.1,0.1,0.1,0.2c0.1,0,0.1,0,0.2,0
			c0,0,0.1,0,0.1-0.1c0,0,0.1,0,0.1-0.1l0.2,0.5c-0.1,0-0.1,0.1-0.2,0.1c-0.1,0-0.1,0.1-0.2,0.1c-0.1,0-0.2,0.1-0.3,0.1
			c-0.1,0-0.2,0-0.3,0c-0.1,0-0.1-0.1-0.2-0.1c-0.1-0.1-0.1-0.2-0.2-0.3c-0.1,0.1-0.1,0.3-0.2,0.4c-0.1,0.1-0.2,0.2-0.3,0.3
			c-0.1,0.1-0.2,0.2-0.4,0.3c-0.1,0.1-0.3,0.2-0.5,0.2c-0.2,0.1-0.3,0.1-0.5,0.1c-0.2,0-0.4,0-0.5-0.1c-0.2-0.1-0.3-0.2-0.4-0.3
			c-0.1-0.1-0.2-0.3-0.3-0.5c-0.1-0.2-0.1-0.4-0.1-0.6c0-0.2,0.1-0.4,0.2-0.5c0.1-0.2,0.2-0.3,0.3-0.4c0.1-0.1,0.3-0.2,0.4-0.3
			l1.2-0.6c0.1,0,0.2-0.1,0.2-0.2c0-0.1,0-0.2,0-0.4c-0.1-0.3-0.2-0.4-0.5-0.5c-0.2-0.1-0.5,0-0.8,0.1c-0.3,0.1-0.6,0.3-0.7,0.5
			c-0.1,0.2-0.1,0.4-0.1,0.7L72,89C71.9,88.7,71.8,88.5,71.9,88.2z M74.8,89.1c-0.1,0.1-0.2,0.1-0.3,0.2c-0.1,0.1-0.2,0.1-0.3,0.2
			l-0.3,0.2c-0.1,0.1-0.2,0.1-0.3,0.2c-0.1,0.1-0.2,0.2-0.2,0.2c-0.1,0.1-0.1,0.2-0.1,0.3c0,0.1,0,0.2,0,0.3c0,0.1,0.1,0.2,0.2,0.3
			c0.1,0.1,0.2,0.1,0.2,0.2c0.1,0,0.2,0.1,0.3,0.1c0.1,0,0.2,0,0.3-0.1c0.1,0,0.2-0.1,0.2-0.1c0.1-0.1,0.2-0.1,0.3-0.2
			c0.1-0.1,0.2-0.2,0.3-0.2c0.1-0.1,0.1-0.2,0.2-0.3c0-0.1,0.1-0.2,0.1-0.3c0-0.1,0-0.2,0-0.4L75,88.9C74.9,89,74.8,89,74.8,89.1z"
			/>
		<path d="M78.2,88.8c0.1,0.4,0.1,0.7,0,1c0,0.3-0.1,0.5-0.3,0.6c-0.1,0.1-0.3,0.2-0.5,0.3c-0.1,0-0.1,0-0.2,0c-0.1,0-0.1,0-0.2,0
			L76.8,90c0.1,0,0.2,0,0.3,0c0.1,0,0.1,0,0.2-0.1c0,0,0.1-0.1,0.1-0.2c0-0.1,0-0.2,0.1-0.3c0-0.1,0-0.3,0-0.4
			c0-0.2-0.1-0.4-0.1-0.6c-0.1-0.2-0.1-0.5-0.2-0.8l-0.5-1.6l3.2-1.1l1.5,4.4l-0.8,0.3l-1.3-3.7l-1.7,0.6l0.3,1.1
			C78,88,78.1,88.4,78.2,88.8z"/>
		<path d="M83.2,85.5c0.2-0.1,0.5-0.1,0.7-0.1c0.2,0,0.4,0,0.6,0.1c0.2,0.1,0.3,0.2,0.4,0.3c0.1,0.1,0.2,0.3,0.3,0.5
			c0.1,0.2,0.1,0.4,0.1,0.6c0,0.2-0.1,0.4-0.2,0.5c-0.1,0.2-0.2,0.3-0.4,0.4c-0.2,0.1-0.4,0.2-0.6,0.3l-2,0.7l-1.5-4.4l0.8-0.3
			l0.6,1.7L83.2,85.5z M84.1,87.6c0.1-0.1,0.2-0.1,0.2-0.2c0.1-0.1,0.1-0.2,0.1-0.3c0-0.1,0-0.2-0.1-0.4c0-0.1-0.1-0.2-0.2-0.3
			c-0.1-0.1-0.2-0.1-0.3-0.2c-0.1,0-0.2,0-0.4,0c-0.1,0-0.3,0-0.4,0.1l-1,0.3l0.5,1.5l1.1-0.4C83.9,87.7,84,87.6,84.1,87.6z"/>
		<path d="M88.1,84l-0.6-1.8l0.8-0.3l1.5,4.4L89,86.6l-0.7-2l-2,0.7l0.7,2l-0.8,0.3l-1.5-4.4l0.8-0.3l0.6,1.8L88.1,84z"/>
		<path d="M89,80.9l-0.3-0.9l0.8-0.3l0.3,0.9L89,80.9z M90.7,86.1l-1.5-4.4l0.8-0.3l1.5,4.4L90.7,86.1z"/>
		<path d="M51.5,107.5l-1.5-4.4l3.6-1.2l1.5,4.4l-0.8,0.3l-1.3-3.7l-2,0.7l1.3,3.7L51.5,107.5z"/>
		<path d="M59.3,103.5c0,0.3,0,0.6-0.1,0.9c-0.1,0.3-0.3,0.5-0.5,0.7c-0.2,0.2-0.5,0.3-0.8,0.4c-0.3,0.1-0.6,0.2-0.9,0.1
			s-0.6-0.1-0.8-0.3c-0.2-0.1-0.5-0.3-0.6-0.6c-0.2-0.3-0.4-0.6-0.5-0.9c-0.1-0.4-0.2-0.7-0.2-1c0-0.3,0-0.6,0.2-0.9
			c0.1-0.3,0.3-0.5,0.5-0.7c0.2-0.2,0.5-0.3,0.8-0.4c0.3-0.1,0.6-0.2,0.9-0.1c0.3,0,0.6,0.1,0.8,0.3c0.2,0.1,0.5,0.3,0.6,0.6
			c0.2,0.3,0.3,0.6,0.5,0.9C59.2,102.8,59.3,103.1,59.3,103.5z M58,102.1c-0.1-0.2-0.3-0.3-0.4-0.4c-0.2-0.1-0.3-0.2-0.5-0.2
			c-0.2,0-0.4,0-0.6,0.1s-0.4,0.2-0.5,0.3c-0.1,0.1-0.2,0.3-0.3,0.5c-0.1,0.2-0.1,0.4-0.1,0.6c0,0.2,0.1,0.5,0.1,0.7
			c0.1,0.2,0.2,0.5,0.3,0.6c0.1,0.2,0.3,0.3,0.4,0.5c0.2,0.1,0.3,0.2,0.5,0.2c0.2,0,0.4,0,0.6-0.1s0.4-0.2,0.5-0.3
			c0.1-0.1,0.2-0.3,0.3-0.5c0.1-0.2,0.1-0.4,0.1-0.6c0-0.2-0.1-0.5-0.1-0.7C58.3,102.5,58.2,102.2,58,102.1z"/>
		<path d="M63.5,102.1c0,0.1,0,0.3,0,0.4c0,0.1-0.1,0.3-0.1,0.4c-0.1,0.1-0.1,0.3-0.2,0.4c-0.1,0.1-0.2,0.3-0.4,0.4
			c-0.2,0.1-0.4,0.2-0.6,0.3c-0.1,0-0.3,0.1-0.4,0.1c-0.2,0-0.3,0-0.5,0c-0.2,0-0.3-0.1-0.5-0.2c-0.2-0.1-0.3-0.2-0.5-0.3
			c-0.1-0.1-0.3-0.3-0.4-0.5c-0.1-0.2-0.2-0.5-0.3-0.8c-0.1-0.4-0.2-0.7-0.2-1s0.1-0.6,0.2-0.9c0.1-0.3,0.3-0.5,0.4-0.7
			c0.2-0.2,0.4-0.3,0.7-0.4c0.2-0.1,0.4-0.1,0.6-0.1c0.2,0,0.4,0,0.5,0c0.2,0,0.3,0.1,0.4,0.2c0.1,0.1,0.2,0.2,0.3,0.3
			c0.1,0.1,0.2,0.2,0.3,0.3c0.1,0.1,0.1,0.2,0.2,0.3l-0.7,0.2c-0.1-0.3-0.3-0.5-0.5-0.6c-0.2-0.1-0.5-0.1-0.8,0
			c-0.2,0.1-0.4,0.2-0.5,0.3c-0.1,0.1-0.2,0.3-0.3,0.5c-0.1,0.2-0.1,0.4,0,0.6c0,0.2,0.1,0.5,0.2,0.7c0.1,0.3,0.2,0.5,0.3,0.7
			c0.1,0.2,0.3,0.3,0.4,0.4c0.1,0.1,0.3,0.2,0.5,0.2c0.2,0,0.3,0,0.5-0.1c0.1,0,0.2-0.1,0.4-0.2c0.1-0.1,0.2-0.2,0.2-0.3
			c0.1-0.1,0.1-0.3,0.1-0.4c0-0.2,0-0.3,0-0.5l0.7-0.2C63.5,101.8,63.5,101.9,63.5,102.1z"/>
		<path d="M65.3,101.3c0.1,0.4,0.1,0.7,0,1c0,0.3-0.1,0.5-0.3,0.6c-0.1,0.1-0.3,0.3-0.5,0.3c-0.1,0-0.1,0-0.2,0c-0.1,0-0.1,0-0.2,0
			l-0.2-0.7c0.1,0,0.2,0,0.3,0c0.1,0,0.1,0,0.2-0.1c0,0,0.1-0.1,0.1-0.2c0-0.1,0-0.2,0.1-0.3c0-0.1,0-0.3,0-0.4
			c0-0.2-0.1-0.4-0.1-0.6c-0.1-0.2-0.1-0.5-0.2-0.8l-0.5-1.6l3.2-1.1l1.5,4.4l-0.8,0.3l-1.3-3.7l-1.7,0.6l0.3,1.1
			C65.1,100.5,65.2,100.9,65.3,101.3z"/>
		<path d="M70.5,100.1l0-4l0.8-0.3l-0.1,5.1c0,0.3,0,0.5,0,0.7c0,0.2,0,0.4-0.1,0.5c0,0.1-0.1,0.3-0.1,0.4c0,0.1-0.1,0.2-0.2,0.3
			c-0.1,0.1-0.2,0.1-0.3,0.2c-0.1,0.1-0.2,0.1-0.3,0.1c-0.1,0-0.2,0.1-0.3,0.1c-0.1,0-0.1,0-0.2,0l-0.2-0.7c0.1,0,0.1,0,0.2,0
			c0.1,0,0.2,0,0.3-0.1c0.1,0,0.2-0.1,0.3-0.2c0.1-0.1,0.1-0.2,0.1-0.4l0-0.7l-3.1-4l0.8-0.3L70.5,100.1L70.5,100.1z"/>
		<path d="M72.8,96.1l1.3,3.7l-0.8,0.3l-1.5-4.4l2.7-0.9l0.2,0.7L72.8,96.1z"/>
		<path d="M77,97.7l1-4.1l0.9-0.3l1.5,4.4L79.6,98l-1.1-3.4l0,0l-1,4.1L76.5,99l-1.5-4.4l0.8-0.3L77,97.7L77,97.7z"/>
	</g>
	<path class="st3" d="M145.9,70.8l-3.3-1.9l-3.3-1.9c-0.3-0.2-1,0-1.1,0.4l-1.5,3.5l-1.5,3.5c-0.2,0.4,0.3,0.6,0.8,0.4l1.1-0.4
		l1.2,3.6c0.3,0.8,1.2,1.3,2,1l4.4-1.5c0.8-0.3,1.3-1.2,1-2l-1.2-3.6l1.1-0.4C146,71.5,146.2,71,145.9,70.8z"/>
	<line class="st1" x1="59.5" y1="116.8" x2="69.3" y2="145.5"/>
	<line class="st1" x1="78" y1="110.8" x2="87.7" y2="139.5"/>
	<line class="st1" x1="96.4" y1="104.9" x2="106.2" y2="133.5"/>
	<line class="st1" x1="115.2" y1="99.7" x2="124.9" y2="128.3"/>
	<line class="st1" x1="131.1" y1="86.2" x2="143.6" y2="123.1"/>
</g>
<g id="Слой_4">
	<path class="st0" d="M187.1,95.5l-14.6,16.9l-3.2,3.7l-5.1,6l-3.2,3.8l-37.4,43.4l0.7,0.6l0.4,0.3l49.4,37.3c0.1,0,0.1,0.1,0.2,0.1
		c0.1,0.1,0.2,0.1,0.3,0.1h0c0,0,0.1,0,0.1,0c0,0,0.1,0,0.1,0c0,0,0,0,0,0c0.1,0,0.1,0,0.2,0c0.2-0.1,0.4-0.2,0.5-0.3l41.2-50.3
		l3.1-3.8l5-6.1l3.1-3.8l18.8-23"/>
	<polyline class="st4" points="187.1,95.5 187.1,77.2 246.3,98.8 246.7,120.3 	"/>
	<path class="st5" d="M224.8,147.1l-5,6.1l-3.1,3.8l-41.2,50.3c-0.2,0.2-0.5,0.3-0.7,0.4c0,0,0,0,0,0c0,0,0,0-0.1,0
		c-0.1,0-0.3,0-0.5,0c0,0-0.1,0-0.1,0"/>
	<path class="st6" d="M189.8,113.2l1-1.6c1.3,0.1,2.7-0.6,3.5-1.8c1.2-1.8,0.6-4.2-1.2-5.4c-1.8-1.2-4.2-0.6-5.4,1.2
		c-0.8,1.2-0.8,2.7-0.2,3.9l-1,1.6"/>
	<path class="st7" d="M188.8,115.1c0.4,0.1,0.6,0.1,0.7,0c0.1-0.1-0.1-0.4-0.3-0.6c0.4,0.1,0.6,0.1,0.7,0c0.1-0.1-0.1-0.4-0.3-0.6
		c0.4,0.1,0.6,0.1,0.7,0c0.2-0.3-0.7-1.1-1.9-1.9c-1.2-0.8-2.3-1.2-2.5-0.9c-0.1,0.1,0.1,0.4,0.3,0.6c-0.4-0.1-0.6-0.1-0.7,0
		c-0.1,0.1,0.1,0.4,0.3,0.6c-0.4-0.1-0.6-0.1-0.7,0c-0.1,0.1,0.1,0.4,0.3,0.6c-0.4-0.1-0.6-0.1-0.7,0c-0.2,0.3,0.7,1.1,1.9,1.9
		c1.2,0.8,2.3,1.2,2.5,0.9C189.2,115.6,189,115.4,188.8,115.1z"/>
	<circle class="st8" cx="190" cy="109.4" r="0.9"/>
	<line class="st9" x1="190" y1="109.4" x2="188.4" y2="112"/>
	<line class="st10" x1="188.2" y1="101" x2="189.5" y2="103.7"/>
	<line class="st10" x1="198.4" y1="107.3" x2="195.4" y2="107.3"/>
	<line class="st10" x1="197.6" y1="104.2" x2="194.9" y2="105.6"/>
	<line class="st10" x1="191.6" y1="100.3" x2="191.5" y2="103.3"/>
	<line class="st10" x1="194.8" y1="101.2" x2="193.3" y2="103.8"/>
	<line class="st11" x1="204" y1="110.3" x2="230.1" y2="123.1"/>
	<line class="st11" x1="136.4" y1="154.5" x2="188.7" y2="191.2"/>
	<line class="st11" x1="200.6" y1="115.9" x2="226.7" y2="128.7"/>
	<polygon class="st12" points="228.3,142.3 225.3,146.2 168.9,117.1 172,113.3 	"/>
	<polygon class="st12" points="219.8,153.1 216.7,156.9 160.9,125.9 164.2,122.1 	"/>
	<g>
		<path d="M153.8,141.3c0.1-0.1,0.3-0.2,0.4-0.3c0.1-0.1,0.3-0.3,0.5-0.4c0.2-0.2,0.4-0.4,0.6-0.6c0.2-0.3,0.4-0.5,0.7-0.8
			c0.2-0.3,0.4-0.5,0.6-0.7c0.2-0.2,0.3-0.4,0.5-0.6c0.1-0.2,0.2-0.3,0.3-0.5l3.3,2.3l-3.2,4.6l0.6,0.4l-1.2,1.7l-0.7-0.5l0.8-1.1
			l-3.6-2.5l-0.8,1.1l-0.7-0.5l1.2-1.7l0.5,0.3C153.5,141.4,153.7,141.3,153.8,141.3z M156.7,139.4c-0.3,0.3-0.5,0.6-0.8,0.9
			c-0.2,0.2-0.4,0.5-0.6,0.6c-0.2,0.2-0.3,0.3-0.4,0.4c-0.1,0.1-0.3,0.2-0.4,0.3l-0.4,0.3l2.4,1.7l2.8-4l-1.9-1.3
			C157.2,138.7,157,139.1,156.7,139.4z"/>
		<path d="M161.7,146.7c-0.3,0.2-0.5,0.3-0.8,0.4c-0.3,0.1-0.6,0.1-0.8,0c-0.3-0.1-0.6-0.2-0.8-0.4c-0.3-0.2-0.5-0.4-0.6-0.7
			s-0.2-0.5-0.3-0.8c0-0.3,0-0.6,0.1-0.9c0.1-0.3,0.2-0.6,0.5-0.9c0.2-0.3,0.5-0.6,0.7-0.7c0.3-0.2,0.5-0.3,0.8-0.4s0.6-0.1,0.8,0
			c0.3,0.1,0.6,0.2,0.8,0.4c0.3,0.2,0.5,0.4,0.6,0.7c0.2,0.2,0.2,0.5,0.3,0.8c0,0.3,0,0.6-0.1,0.9c-0.1,0.3-0.2,0.6-0.5,0.9
			C162.2,146.2,162,146.5,161.7,146.7z M162.1,144.8c0.1-0.2,0.1-0.4,0.1-0.6c0-0.2-0.1-0.4-0.1-0.5c-0.1-0.2-0.2-0.3-0.4-0.4
			c-0.2-0.1-0.4-0.2-0.6-0.2c-0.2,0-0.4,0-0.6,0.1c-0.2,0.1-0.4,0.2-0.5,0.3c-0.2,0.1-0.3,0.3-0.5,0.5c-0.1,0.2-0.3,0.4-0.3,0.6
			c-0.1,0.2-0.1,0.4-0.1,0.6c0,0.2,0.1,0.4,0.1,0.5s0.2,0.3,0.4,0.4c0.2,0.1,0.4,0.2,0.6,0.2c0.2,0,0.4,0,0.6-0.1
			c0.2-0.1,0.4-0.2,0.5-0.3c0.2-0.1,0.3-0.3,0.5-0.5C161.9,145.2,162.1,145,162.1,144.8z"/>
		<path d="M150.8,151.2c-0.1,0.1-0.2,0.2-0.4,0.2s-0.3,0.1-0.4,0.2c-0.1,0-0.3,0.1-0.5,0.1c-0.2,0-0.4,0-0.5-0.1
			c-0.2-0.1-0.4-0.2-0.6-0.3c-0.1-0.1-0.2-0.2-0.3-0.3c-0.1-0.1-0.2-0.3-0.3-0.4c-0.1-0.1-0.1-0.3-0.2-0.5c0-0.2,0-0.4,0-0.6
			c0-0.2,0.1-0.4,0.2-0.7c0.1-0.2,0.2-0.5,0.4-0.7c0.2-0.3,0.5-0.6,0.7-0.8s0.5-0.3,0.8-0.4c0.3-0.1,0.5-0.1,0.8,0
			c0.3,0,0.5,0.1,0.7,0.3c0.2,0.1,0.4,0.3,0.5,0.4c0.1,0.2,0.2,0.3,0.3,0.4c0.1,0.1,0.1,0.3,0.1,0.4c0,0.1,0,0.3,0,0.4
			c0,0.1-0.1,0.3-0.1,0.4c0,0.1-0.1,0.2-0.2,0.3l-0.6-0.4c0.2-0.3,0.2-0.6,0.2-0.8c0-0.2-0.2-0.5-0.5-0.6c-0.2-0.1-0.4-0.2-0.5-0.2
			c-0.2,0-0.4,0-0.5,0.1c-0.2,0.1-0.4,0.2-0.5,0.3c-0.2,0.2-0.3,0.3-0.5,0.6c-0.2,0.3-0.3,0.5-0.4,0.7c-0.1,0.2-0.1,0.4-0.1,0.6
			c0,0.2,0,0.3,0.1,0.5c0.1,0.1,0.2,0.3,0.4,0.4c0.1,0.1,0.2,0.1,0.4,0.2c0.1,0,0.3,0,0.4,0c0.1,0,0.3-0.1,0.4-0.1
			c0.1-0.1,0.3-0.2,0.4-0.3l0.6,0.4C151,151,150.9,151.1,150.8,151.2z"/>
		<path d="M150.7,152.6l2.7-3.8l3.1,2.1l-2.7,3.8l-0.7-0.5l2.3-3.2l-1.8-1.2l-2.3,3.2L150.7,152.6z"/>
		<path d="M156.3,154.9c-0.3,0.3-0.5,0.5-0.8,0.6c-0.2,0.1-0.4,0.2-0.6,0.2c-0.2,0-0.4-0.1-0.6-0.2c-0.1,0-0.1-0.1-0.1-0.1
			c0-0.1-0.1-0.1-0.1-0.1l0.4-0.6c0.1,0.1,0.1,0.2,0.2,0.2c0.1,0,0.1,0.1,0.2,0.1c0.1,0,0.1,0,0.2,0c0.1,0,0.2-0.1,0.3-0.1
			c0.1-0.1,0.2-0.2,0.3-0.3c0.1-0.1,0.3-0.3,0.4-0.5c0.2-0.2,0.3-0.4,0.5-0.7l1-1.4l2.7,1.9l-2.7,3.8l-0.7-0.5l2.3-3.2l-1.5-1
			l-0.7,0.9C156.9,154.2,156.6,154.6,156.3,154.9z"/>
		<path d="M161,155c0.2-0.1,0.4-0.2,0.6-0.2c0.2,0,0.4,0,0.6,0.1s0.4,0.2,0.7,0.4c0.2,0.1,0.4,0.3,0.5,0.4c0.1,0.2,0.3,0.3,0.3,0.5
			c0.1,0.2,0.1,0.4,0.1,0.6c0,0.2-0.1,0.4-0.2,0.6l-1.5,2.2c0,0.1-0.1,0.1-0.1,0.2c0,0.1,0,0.1,0.1,0.2c0,0,0.1,0,0.1,0.1
			c0,0,0.1,0,0.1,0.1l-0.3,0.5c-0.1,0-0.1,0-0.2-0.1c-0.1,0-0.1-0.1-0.2-0.1c-0.1-0.1-0.2-0.2-0.3-0.2c-0.1-0.1-0.1-0.2-0.1-0.2
			c0-0.1,0-0.2,0-0.3c0-0.1,0.1-0.2,0.1-0.3c-0.1,0-0.3,0-0.4,0.1c-0.1,0-0.3,0-0.4,0c-0.1,0-0.3-0.1-0.5-0.1
			c-0.2-0.1-0.3-0.2-0.5-0.3c-0.1-0.1-0.3-0.2-0.4-0.4c-0.1-0.1-0.2-0.3-0.2-0.5c0-0.2,0-0.3,0-0.5c0-0.2,0.1-0.4,0.2-0.5
			c0.1-0.2,0.3-0.3,0.5-0.4c0.2-0.1,0.3-0.2,0.5-0.2c0.2,0,0.3,0,0.5,0c0.2,0,0.3,0.1,0.5,0.2l1.2,0.6c0.1,0.1,0.2,0.1,0.3,0.1
			c0.1,0,0.2-0.1,0.3-0.3c0.2-0.2,0.2-0.4,0.1-0.7c-0.1-0.2-0.3-0.4-0.5-0.6c-0.3-0.2-0.5-0.3-0.8-0.3c-0.2,0-0.4,0.1-0.6,0.4
			l-0.6-0.4C160.6,155.3,160.8,155.1,161,155z M162,157.8c-0.1,0-0.2-0.1-0.3-0.1c-0.1,0-0.2-0.1-0.3-0.2l-0.3-0.2
			c-0.1-0.1-0.3-0.1-0.4-0.2c-0.1,0-0.2-0.1-0.3-0.1c-0.1,0-0.2,0-0.3,0.1c-0.1,0-0.2,0.1-0.2,0.2c-0.1,0.1-0.1,0.2-0.2,0.3
			c0,0.1,0,0.2,0,0.3c0,0.1,0.1,0.2,0.1,0.3c0.1,0.1,0.2,0.2,0.3,0.2c0.1,0,0.1,0.1,0.2,0.1c0.1,0,0.2,0.1,0.3,0.1
			c0.1,0,0.2,0,0.3,0.1c0.1,0,0.2,0,0.3,0c0.1,0,0.2-0.1,0.3-0.1c0.1-0.1,0.2-0.1,0.3-0.3l0.4-0.6
			C162.2,157.9,162.1,157.9,162,157.8z"/>
		<path d="M168.1,159.2l-0.4,0.6l-1.3-0.9l-2.3,3.2l-0.7-0.5l2.3-3.2l-1.3-0.9l0.4-0.6L168.1,159.2z"/>
		<path d="M167.3,162.9l3.9-1.6l0.7,0.5l-2.7,3.8l-0.7-0.5l2-2.9l0,0l-3.9,1.6l-0.7-0.5l2.7-3.8l0.7,0.5L167.3,162.9L167.3,162.9z"
			/>
		<path d="M172.3,167.7l0.5-0.8l0.7,0.5l-0.5,0.8L172.3,167.7z M174.3,164.8l0.5-0.8l0.7,0.5l-0.5,0.8L174.3,164.8z"/>
		<path d="M183.6,169.3c0.2,0,0.6-0.1,0.9-0.5l0.5,0.3l-3.5,5l-0.7-0.5l2.5-3.6l-1.2-0.8l0.3-0.5C183,169.1,183.4,169.3,183.6,169.3
			z"/>
		<path d="M184.6,175.6c0.1,0.2,0.3,0.3,0.5,0.5c0.4,0.3,0.7,0.3,1.1,0.2c0.4-0.1,0.6-0.3,0.8-0.6c0.2-0.4,0.3-0.7,0.3-1
			c-0.1-0.3-0.3-0.6-0.6-0.8c-0.2-0.2-0.4-0.2-0.7-0.3c-0.2,0-0.4,0-0.6,0.1l-0.5-0.4l2.3-2.5l2.6,1.8l-0.4,0.6l-2.2-1.5l-1.2,1.3
			c0.2,0,0.3,0,0.5,0c0.2,0.1,0.5,0.2,0.7,0.3c0.5,0.3,0.8,0.7,0.9,1.3c0.1,0.5,0,1-0.3,1.5c-0.3,0.5-0.8,0.8-1.3,1
			c-0.5,0.2-1.2,0-1.8-0.4c-0.4-0.3-0.7-0.7-0.8-1.1c-0.2-0.4-0.1-0.9,0.2-1.4l0.7,0.5C184.5,174.9,184.5,175.3,184.6,175.6z"/>
		<path d="M192.4,176.5c-0.5,0.2-1.1,0.5-1.6,0.8c-0.5,0.3-0.9,0.6-1.3,0.9c-0.2,0.2-0.6,0.5-1.1,0.9l-0.7-0.5
			c0.8-0.9,1.9-1.6,3.1-2.1c0.7-0.3,1.4-0.6,2-0.7l-2.8-2l0.4-0.6l3.5,2.5l-0.4,0.6C193.4,176.1,193,176.3,192.4,176.5z"/>
	</g>
	<path class="st4" d="M123.8,169.5c-0.5-0.4-0.6-0.2-1.2-0.1l-25.3,1.4c-0.5,0-0.7,0.6-0.3,0.9l41,35.8c0.4,0.4,1,0.6,1.5,0.6
		l34.7-0.4c0,0,0,0,0.1,0l0.3,0h0h0.2c0,0,0,0,0,0"/>
</g>
</svg>
