<?xml version="1.0" encoding="utf-8"?>
<!-- Generator: Adobe Illustrator 22.1.0, SVG Export Plug-In . SVG Version: 6.00 Build 0)  -->
<svg version="1.1" xmlns="http://www.w3.org/2000/svg" xmlns:xlink="http://www.w3.org/1999/xlink" x="0px" y="0px"
	 viewBox="0 0 283.5 283.5" style="enable-background:new 0 0 283.5 283.5;" xml:space="preserve">
<style type="text/css">
	.st0{fill:#82368C;}
	.st1{fill:#020303;}
	.st2{fill:#3AAA35;}
	.st3{fill:#E10814;}
	.st4{fill:#EC6508;}
	.st5{fill:#446AB2;}
	.st6{fill:#AAC814;}
	.st7{fill:#6EC6D9;}
	.st8{fill:#B94693;}
	.st9{fill:#FFED00;stroke:#010202;stroke-width:0.75;stroke-miterlimit:10;}
	.st10{fill:#BE1622;stroke:#010202;stroke-width:0.75;stroke-miterlimit:10;}
	.st11{fill:#12100B;stroke:#010202;stroke-width:0.75;stroke-miterlimit:10;}
	.st12{fill:#725017;stroke:#010202;stroke-width:0.5;stroke-miterlimit:10;}
	.st13{fill:#FBCB9C;stroke:#010202;stroke-width:0.5;stroke-miterlimit:10;}
	.st14{fill:#6ABEA2;stroke:#010202;stroke-width:0.5;stroke-miterlimit:10;}
	.st15{fill:#EF7B15;stroke:#010202;stroke-width:0.5;stroke-miterlimit:10;}
	.st16{fill:#12100B;stroke:#010202;stroke-width:0.5;stroke-miterlimit:10;}
	.st17{stroke:#010202;stroke-width:0.5;stroke-miterlimit:10;}
</style>
<g id="Слой_1">
</g>
<g id="Слой_3">
</g>
<g id="Слой_4">
	<g>
		<g>
			<path class="st0" d="M267.9,218.3c1.2,21.6-15.4,40.4-36.9,41.5c-21.4,1.2-40-15.4-41.1-37.3c-1.2-21.9,15.4-40.4,36.9-41.5
				C248.2,179.9,266.7,196.7,267.9,218.3z"/>
			<path class="st1" d="M188.6,222.6c1.2,22.5,20.2,39.9,42.5,38.7s39.3-20.4,38.1-43.1c-1.2-22.5-20.2-39.9-42.5-38.7
				C204.4,180.7,187.4,200.1,188.6,222.6z M250.6,251.1c-5.6,4-12.3,6.7-19.6,7.1c-20.6,1.1-38-14.9-39.1-35.7
				c-0.5-8.4,1.9-16.2,6.1-22.9c-0.1,1.3-0.1,2.8,0,4.1c0.5,8.4,4.2,17.2,10.8,25.2C219.6,242.4,235.7,250.8,250.6,251.1
				L250.6,251.1z M259.9,241.1C259.9,241.3,259.9,241.3,259.9,241.1c-1.6,2.7-3.4,4.7-5.4,6.7l-0.4,0c-15,1.2-31.8-7.1-43-20.9
				c-8.3-10.3-11.7-21.7-9.2-31.3c12.8-5.4,28.4,1,39.2,9.3C254.7,215.6,262.1,229.8,259.9,241.1z M226.9,182.7
				c20.6-1.1,38,14.9,39.1,35.7c0.3,5.8-0.7,11.2-2.8,16.3c-1-10.9-8.6-23-20.5-32.4c-10.1-7.8-24.4-14.1-37.4-11.3
				C211.4,186.4,218.7,183.2,226.9,182.7z"/>
		</g>
		<g>
			<path class="st2" d="M179.6,260c-12.5,0.6-23.2-9-23.7-21.4c-0.6-12.3,9.1-22.9,21.6-23.5c12.6-0.6,23.2,9,23.7,21.4
				C201.8,248.8,192.1,259.4,179.6,260z"/>
			<path class="st1" d="M177.5,214.4c-12.9,0.6-23.1,11.5-22.5,24.3c0.6,12.8,11.6,22.7,24.6,22.1c12.9-0.6,23.1-11.5,22.5-24.3
				C201.5,223.6,190.4,213.8,177.5,214.4z M160.9,249.9c-2.3-3.2-3.8-7.1-4-11.3c-0.6-11.8,8.7-21.8,20.7-22.3
				c4.8-0.2,9.3,1.2,13.1,3.6c-0.7-0.1-1.6,0-2.3,0c-4.8,0.2-9.9,2.3-14.5,6.1C166,232.1,161.1,241.3,160.9,249.9L160.9,249.9z
				 M166.6,255.3C166.4,255.3,166.4,255.3,166.6,255.3c-1.5-0.9-2.7-2-3.9-3.2l0-0.2c-0.7-8.6,4.2-18.2,12.2-24.7
				c6-4.7,12.5-6.6,18-5.2c3.1,7.4-0.7,16.3-5.5,22.5C181.2,252.4,173,256.6,166.6,255.3z M200.3,236.5c0.6,11.8-8.7,21.8-20.7,22.3
				c-3.3,0.2-6.4-0.4-9.3-1.7c6.3-0.5,13.2-4.8,18.7-11.6c4.5-5.8,8.2-14,6.7-21.4C198.2,227.6,200.1,231.9,200.3,236.5z"/>
		</g>
	</g>
	<g>
		<path class="st3" d="M91.9,247.2H25.1c-4.7,0-8.5-3.8-8.5-8.5v0c0-4.7,3.8-8.5,8.5-8.5h66.8c4.7,0,8.5,3.8,8.5,8.5v0
			C100.4,243.4,96.5,247.2,91.9,247.2z"/>
		<path class="st4" d="M86.4,229H30.5c-4.7,0-8.5-3.8-8.5-8.5v0c0-4.7,3.8-8.5,8.5-8.5h55.9c4.7,0,8.5,3.8,8.5,8.5v0
			C95,225.1,91.1,229,86.4,229z"/>
		<path class="st5" d="M78,210.7h-39c-4.7,0-8.5-3.8-8.5-8.5v0c0-4.7,3.8-8.5,8.5-8.5h39c4.7,0,8.5,3.8,8.5,8.5v0
			C86.5,206.9,82.7,210.7,78,210.7z"/>
		<path class="st6" d="M72.1,192.9H44.8c-4.7,0-8.5-3.8-8.5-8.5v0c0-4.7,3.8-8.5,8.5-8.5h27.2c4.7,0,8.5,3.8,8.5,8.5v0
			C80.6,189,76.8,192.9,72.1,192.9z"/>
		<path class="st7" d="M65.6,149.7c0,7-7.5,15.6-7.5,15.6s-6.8-8.4-6.8-15.4c0-7,3.1-9.8,6.8-9.8S65.6,142.7,65.6,149.7z"/>
		<path class="st8" d="M67,175.4H49.9c-4.7,0-8.5-3.8-8.5-8.5v0c0-4.7,3.8-8.5,8.5-8.5H67c4.7,0,8.5,3.8,8.5,8.5v0
			C75.5,171.6,71.7,175.4,67,175.4z"/>
		<path d="M94.1,228.1c1.9-2,3.2-4.7,3.2-7.6c0-6-4.9-10.9-10.9-10.9h-0.5c1.8-1.9,2.9-4.5,2.9-7.4c0-5.2-3.7-9.6-8.7-10.6
			c1.7-1.9,2.8-4.5,2.8-7.2c0-4.9-3.3-9-7.7-10.4c1.6-1.9,2.6-4.4,2.6-7.1c0-6-4.9-10.9-10.9-10.9h-0.4c0.8-2.1,1.4-4.2,1.4-6.3
			c0-8.8-5.3-11.9-9.9-11.9c-4.4,0-9.2,3.2-9.2,12.2c0,2,0.5,4.1,1.2,6.1h-0.2c-6,0-10.9,4.9-10.9,10.9c0,2.7,1,5.2,2.6,7.1
			c-4.5,1.4-7.7,5.5-7.7,10.4c0,2.8,1.1,5.3,2.8,7.2c-4.9,1-8.7,5.4-8.7,10.6c0,2.8,1.1,5.4,2.9,7.4h-0.5c-6,0-10.9,4.9-10.9,10.9
			c0,3,1.2,5.7,3.2,7.6c-4.9,1.1-8.6,5.4-8.6,10.6c0,6,4.9,10.9,10.9,10.9h66.8c6,0,10.9-4.9,10.9-10.9
			C102.7,233.5,99,229.1,94.1,228.1z M51.3,149.9c0-7,3.1-9.8,6.8-9.8c3.8,0,7.5,2.6,7.5,9.6c0,2.1-0.7,4.2-1.6,6.3H52.6
			C51.8,154,51.3,151.9,51.3,149.9z M41.4,166.9c0-4.7,3.8-8.5,8.5-8.5H67c4.7,0,8.5,3.8,8.5,8.5s-3.8,8.5-8.5,8.5H49.9
			C45.2,175.4,41.4,171.6,41.4,166.9z M36.3,184.3c0-4.4,3.3-8,7.5-8.5c1.7,1.2,3.8,1.9,6.1,1.9H67c2.3,0,4.4-0.7,6.1-1.9
			c4.2,0.5,7.5,4.1,7.5,8.5c0,4.7-3.8,8.5-8.5,8.5H44.8C40.1,192.9,36.3,189,36.3,184.3z M30.4,202.2c0-4.7,3.8-8.5,8.5-8.5h0.1
			c-0.2-0.1-0.3-0.3-0.5-0.5c1.8,1.3,3.9,2,6.3,2h27.2c2,0,3.9-0.6,5.6-1.6H78c4.7,0,8.5,3.8,8.5,8.5s-3.8,8.5-8.5,8.5h-39
			C34.2,210.7,30.4,206.9,30.4,202.2z M22,220.4c0-4.7,3.8-8.5,8.5-8.5h3.6c1.5,0.7,3.1,1.2,4.9,1.2h39c1.8,0,3.4-0.4,4.9-1.2h3.6
			c4.7,0,8.5,3.8,8.5,8.5c0,4.7-3.8,8.5-8.5,8.5H30.5C25.8,229,22,225.1,22,220.4z M91.9,247.2H25.1c-4.7,0-8.5-3.8-8.5-8.5
			c0-4.7,3.8-8.5,8.5-8.5h0.6c1.5,0.7,3.1,1.2,4.9,1.2h55.9c1.8,0,3.4-0.4,4.9-1.2h0.6c4.7,0,8.5,3.8,8.5,8.5
			C100.4,243.4,96.5,247.2,91.9,247.2z"/>
	</g>
	<g>
		<g>
			<rect x="185.7" y="79.3" class="st9" width="54" height="41"/>
			<path class="st9" d="M239.7,79.3l-7.2-7.6h-38.7l-8.1,7.6C185.7,78.9,239.7,79.3,239.7,79.3z"/>
		</g>
		<g>
			<rect x="193.4" y="48.6" class="st10" width="38.5" height="28.2"/>
			<path class="st10" d="M232.1,48.6l-5.1-5.2h-27.6l-5.8,5.2C193.6,48.3,232.1,48.6,232.1,48.6z"/>
		</g>
		<path class="st11" d="M240.2,79.3c0-0.1,0-0.2-0.1-0.3l-7.2-7.6c-0.1-0.1-0.2-0.1-0.3-0.1h-0.2V48.6c0,0,0,0,0,0
			c0-0.1,0-0.2-0.1-0.3l0,0l-5.1-5.2c-0.1-0.1-0.2-0.1-0.3-0.1h-27.6c-0.1,0-0.2,0-0.3,0.1l-5.8,5.2c0,0,0,0,0,0c0,0,0,0,0,0
			c-0.1,0.1-0.1,0.2-0.1,0.3v23.3l-7.5,7c0,0,0,0,0,0c0,0,0,0,0,0c-0.1,0.1-0.1,0.2-0.1,0.3v41c0,0.3,0.2,0.5,0.5,0.5h54
			c0.3,0,0.5-0.2,0.5-0.5L240.2,79.3C240.2,79.3,240.2,79.3,240.2,79.3z M199.4,43.8h27.2l4.2,4.3c-2.8,0-10.4-0.1-18.1-0.1
			c-4.1,0-7.3,0-9.9,0c-4.5,0-6.9,0-8.2,0.1L199.4,43.8z M193.9,49h37.6v27.2h-37.6V49z M192.9,73.2v3.6c0,0.3,0.2,0.5,0.5,0.5h38.5
			c0.3,0,0.5-0.2,0.5-0.5v-4.6l6.3,6.7c-3.4,0-14.7-0.1-25.8-0.2c-5.5,0-9.9,0-13.4,0c-7.4,0-10.8,0-12.5,0.1L192.9,73.2z
			 M239.3,119.9h-53.1V79.8h53.1V119.9z"/>
	</g>
	<g>
		<g>
			<path class="st12" d="M123.2,189.6c-1.3,5.4,0.3,11.6,3.8,12.7c3.2,1,6.1-0.8,6.8-2.7c1-2.8-1.3-8.2-4.6-11.5
				C127.3,186.2,123.9,186.7,123.2,189.6z"/>
			<path class="st12" d="M146.2,182.1c-2.4-1.8-5.3-0.2-5.6,2.6c-0.5,4.6,1.1,10.3,3.7,11.8c1.7,1,5.1,0.6,7-2.2
				C153.2,191.3,150.5,185.4,146.2,182.1z"/>
		</g>
		<g>
			<path class="st13" d="M105.6,145.3c0,0,6.6,18.5,10.7,28.2c4.3,10.1,7.3,15.8,7.3,15.8c-0.3,0.4-2.6,9.1,5,6.6
				c6.2-2.1,0.2-8.2-0.4-8.3L116,141.9L105.6,145.3z"/>
			<path class="st13" d="M141.5,165.2c-2.9-10.2-9.4-28.7-9.4-28.7l-9.6,3.5l18.6,43.6c-0.4,0.4-1.2,9,4.9,6.7
				c7.5-2.8,0.2-8.2-0.3-8.3C145.7,182.1,144.4,175.7,141.5,165.2z"/>
		</g>
		<g>
			<path class="st12" d="M126.9,185.3l-3.8,1.3c-0.6,0.2-0.9,0.8-0.9,1.4l-2.1,1.5c-0.4,0.3-0.5,0.8-0.2,1.2
				c0.3,0.4,0.8,0.4,1.2,0.2l2.1-1.5c0.3,0.1,0.6,0.1,0.9,0l3.8-1.3c0.7-0.3,1.1-1,0.8-1.7l-0.1-0.2
				C128.4,185.4,127.7,185,126.9,185.3z"/>
			<path class="st12" d="M148.5,180l-3,0c-0.3-0.4-0.9-0.4-1.4-0.2l-3.6,1.3c-0.7,0.2-1,1-0.8,1.6l0.1,0.3c0.2,0.7,1,1,1.6,0.8
				l3.6-1.3c0.4-0.1,0.6-0.4,0.8-0.7l2.8-0.1c0.5,0,0.8-0.5,0.8-0.9C149.3,180.4,148.9,180,148.5,180z"/>
		</g>
		<path class="st14" d="M120.3,103.8c0,0-0.2-10.7,0-16.7c0.2-5.1,2.5-12.9,2.5-12.9c-32.5-12-49.3,16.6-49.3,16.6
			c4.4,1.5,21.2,22.1,21.2,22.1s-0.6,4.3-0.7,10.7c-0.1,10.4,1.1,29,1.1,29s29.3-2.8,49.5-18.8c0,0-11.6-15.2-15.2-19.9
			C125.4,108.4,120.3,103.8,120.3,103.8z"/>
		<path class="st15" d="M96.9,32.6c0,0,18.8,10.3,17.4,22.7c-0.5,4.5-6.9,11.1-13.3,14c-6.6,3-10.5,4.2-17.3,5.3
			c-6.8,1.1-22.4,2-18.7-22.9C66.4,42.6,96.9,32.6,96.9,32.6z"/>
		<path class="st13" d="M107.1,42.9c-0.7-0.5-1.7-0.3-2.7,0.2C100,34.8,90.1,30.7,81,34c-9.1,3.2-14.3,12.6-12.5,21.8
			c-1,0.2-1.8,0.7-2.1,1.5c-0.5,1.4,0.8,3.1,2.8,3.7c0.4,0.1,0.8,0.2,1.2,0.2c3.7,7,11.3,11,19,10.2c0.6,1.5,1.3,3.5,1.4,3.5
			c-0.9,0.7-2.2,1.4-3.3,2.4c2.4,2.5,6.4,3.1,9.9,1.9c3.5-1.2,6-3.7,6.2-7.2c-1.1-0.2-2.6-0.1-3.7,0c0-0.1-0.7-2.3-1.2-4
			c6-4.3,9.2-11.8,7.8-19.3c0.3-0.3,0.6-0.6,0.9-1C108.4,45.8,108.3,43.7,107.1,42.9z"/>
		<g>
			<path class="st16" d="M83.5,52.2c-0.5-1.1-1.6-1.7-2.4-1.3c-0.9,0.4-1.2,1.6-0.7,2.7s1.6,1.7,2.4,1.3
				C83.7,54.5,84,53.3,83.5,52.2z"/>
			<path class="st16" d="M92,47.1c-0.9,0.3-1.4,1.4-1.1,2.5c0.3,1.1,1.3,1.9,2.2,1.6c0.9-0.3,1.4-1.4,1.1-2.5
				C93.9,47.5,92.9,46.8,92,47.1z"/>
			<path class="st16" d="M87.3,57.9c0.2-0.1,0.4-0.4,0.3-0.6c-0.2-0.6,0.3-1.4,1.1-1.7c0.8-0.3,1.7,0,1.9,0.6
				c0.1,0.2,0.4,0.4,0.6,0.3c0.2-0.1,0.4-0.4,0.3-0.6c-0.4-1.1-1.8-1.7-3.2-1.2c-1.3,0.5-2.1,1.8-1.7,2.9
				C86.8,57.9,87.1,58,87.3,57.9z"/>
			<path class="st16" d="M95.4,59.2c-0.6,1.9-2,3.4-3.9,4.1s-3.9,0.4-5.6-0.8c-0.2-0.2-0.5-0.1-0.7,0.1c-0.2,0.2-0.1,0.5,0.1,0.7
				c1.9,1.3,4.3,1.6,6.4,0.9c2.1-0.8,3.8-2.5,4.4-4.7c0.1-0.3-0.1-0.5-0.3-0.6C95.8,58.8,95.5,59,95.4,59.2z"/>
			<path class="st16" d="M81.9,48.9c0.3,0.1,0.5-0.1,0.6-0.3c0.1-0.3-0.1-0.5-0.3-0.6c-0.9-0.2-1.9,0-2.7,0.5
				c-0.9,0.6-1.5,1.4-1.6,2.3c0,0.3,0.1,0.5,0.4,0.6c0.1,0,0.2,0,0.2,0c0.2-0.1,0.3-0.2,0.3-0.4c0.1-0.6,0.6-1.2,1.2-1.6
				C80.5,48.9,81.3,48.7,81.9,48.9z"/>
			<path class="st16" d="M94.5,44.9c-0.7-0.6-1.6-0.9-2.7-0.8c-1,0.1-1.9,0.5-2.5,1.2c-0.2,0.2-0.1,0.5,0.1,0.7
				c0.2,0.2,0.5,0.1,0.7-0.1c0.4-0.5,1.1-0.8,1.8-0.9c0.8-0.1,1.5,0.2,2,0.6c0.1,0.1,0.3,0.2,0.5,0.1c0.1,0,0.1-0.1,0.2-0.1
				C94.7,45.4,94.7,45.1,94.5,44.9z"/>
		</g>
		<path class="st15" d="M60.4,39.8l6.3-8.5l4,6.7c0.3,0.8-1.1,3.6-2.8,3.6L60.4,39.8z"/>
		<path class="st15" d="M93,23l8.5,4.4l-5.7,4.9c-0.7,0.4-3.8-1.1-3.8-1.9L93,23z"/>
		<path class="st15" d="M71.3,37.1c0,0-2.8,0.9-5.4,9.7c-1.3,4.5-1.2,10.2-1.2,10.2s5.7-2.2,7.3-6.9C73.5,45.6,71.3,37.1,71.3,37.1z
			"/>
		<path class="st15" d="M76.7,42.6c9.4-1,28.2,0.3,28.2,0.3s-0.8-9.8-14.7-13C77.8,27.1,69.8,36.3,71.5,40
			C72.2,41.5,74.3,42.8,76.7,42.6z"/>
		<path class="st13" d="M144.5,118.3c0,0-3-3.3-4.5-4.4c-0.3-0.2-3.1-2.9-3.6-2.9c-3.2-7.9-14.9-31.5-14.9-31.5s-0.9,4.2-1.2,7.5
			c0,0.5,0,7.7,0,7.7l12.5,19.1c-0.4,0.9-0.2,2.1-0.6,3.8c-0.3,1.6-1.1,2.4-1.7,3.2c-0.1,0.2-0.1,0.3,0.1,0.4
			c0.6,0.3,1.8,0.4,3.2-2.2c0.4-0.1,0.6,0.5,0.8,0.8l1.6,5.3c0.2,0.5,0.7,0.7,1.1,0.5c0.4-0.1,0.6-0.6,0.4-1l-1.2-5.3l0.2-0.1
			l2.9,5.6c0.2,0.4,0.6,0.5,1,0.4c0.4-0.2,0.5-0.6,0.4-1l-2.4-5.9l0.1-0.1l3.3,4.2c0.2,0.3,0.7,0.4,1,0.2c0.3-0.2,0.4-0.7,0.2-1
			l-2.9-4.5l0.1-0.1l2.8,2.5c0.3,0.3,0.8,0.3,1.1,0C144.7,119.1,144.8,118.6,144.5,118.3z"/>
		<path class="st13" d="M85.6,139.4c0,0,0.1-4.5,0.6-6.3c0.1-0.4,0.5-4.2,0.8-4.5c-3.8-11.1-9.1-34.4-9.1-34.4l9.7,10.7l4.1,23.5
			c0.9,0.5,1.5,1.4,2.9,2.5c1.3,1,2.4,1.1,3.4,1.3c0.2,0.1,0.2,0.2,0.1,0.4c-0.3,0.6-1.1,1.5-3.9,0.4c-0.3,0.2-0.1,0.8-0.1,1.1
			l2.2,5c0.2,0.5-0.1,1-0.5,1.1c-0.4,0.1-0.8-0.1-1-0.4l-2.6-4.8l-0.3,0.1l1.4,6.1c0.1,0.4-0.1,0.8-0.5,0.9
			c-0.4,0.1-0.8-0.1-0.9-0.5l-2.1-6.1l-0.2,0l0.3,5.3c0,0.4-0.3,0.8-0.7,0.8c-0.4,0-0.8-0.3-0.8-0.7l-0.7-5.3l-0.2,0l-0.5,3.7
			c0,0.4-0.4,0.7-0.8,0.7C85.9,140.2,85.6,139.8,85.6,139.4z"/>
		<g>
			<path class="st17" d="M115.3,158.9c0.7-0.3,1.3-0.8,1.5-1.2c0.1-0.2,0.1-0.5-0.1-0.7c-0.2-0.1-0.5-0.1-0.7,0.1
				c0,0-0.8,1.3-2.2,0.8c-0.2-0.1-0.5,0-0.6,0.3c-0.1,0.2,0,0.5,0.3,0.6C114.2,159.1,114.8,159,115.3,158.9z"/>
			<path class="st17" d="M133,153.1c0.5-0.2,1-0.5,1.4-1.1c0.1-0.2,0.1-0.5-0.1-0.7c-0.2-0.1-0.5-0.1-0.7,0.1
				c-0.8,1.2-2.2,0.8-2.2,0.8c-0.3-0.1-0.5,0.1-0.6,0.3c-0.1,0.3,0.1,0.5,0.3,0.6C131.5,153.3,132.3,153.4,133,153.1z"/>
			<path class="st17" d="M145.2,117.7c-0.1-0.1-3.1-3.4-4.7-4.5c-0.1-0.1-0.4-0.3-0.7-0.6c-1.5-1.3-2.2-1.9-2.7-2.2
				c-3.1-7.5-13.4-28-15-31.4c0.6-2.6,1.2-4.7,1.2-4.7c0.1-0.2-0.1-0.5-0.3-0.6c-7.3-2.7-13.9-3.3-19.5-2.8c0,0,0,0,0,0
				c-0.9-0.1-2-0.1-3-0.1c0-0.1-0.1-0.2-0.1-0.3c0.3-0.1,0.6-0.3,0.9-0.4c6.9-3.1,13.3-10,13.9-14.8c1.2-10.3-10.3-18.9-15.5-22.2
				c-0.6-0.5-1.2-0.9-2-1.3l4.3-3.7c0.2-0.2,0.4-0.5,0.3-0.8c0-0.3-0.2-0.6-0.5-0.7l-8.5-4.4c-0.2-0.1-0.5-0.1-0.8-0.1
				c0,0-0.1,0-0.1,0.1c-0.3,0.1-0.5,0.4-0.5,0.7l-0.8,6.3c-0.3-0.1-0.5-0.2-0.8-0.2c-3.8-0.9-7.6-0.7-11,0.5
				c-4.4,1.6-7.1,4.4-8.3,6.7c0,0-0.1,0-0.1,0c0,0,0,0,0,0c0,0-0.1,0-0.1,0.1l-3.3-5.5c-0.2-0.3-0.5-0.4-0.8-0.5
				c-0.1,0-0.2,0-0.4,0.1c-0.2,0.1-0.3,0.2-0.4,0.3l-6.3,8.5c-0.2,0.3-0.2,0.6-0.1,0.9c0.1,0.3,0.4,0.5,0.7,0.6l6.3,1.5
				c-0.5,1.2-1,2.6-1.5,4.4c-0.7,2.3-1,5-1.1,7c-1,8.7,0.4,15,4.1,18.7c3.5,3.4,8.8,4.5,15.9,3.4c2.2-0.4,4-0.8,5.7-1.2
				c0,0,0,0.1,0.1,0.1c-0.3,0.2-0.5,0.4-0.8,0.6c-0.6,0.4-1.3,0.9-1.9,1.4c-0.1,0.1-0.2,0.3-0.2,0.5c-0.3,0.2-0.6,0.4-0.9,0.6
				c-8.2,5.6-12.5,12.9-12.6,12.9c-0.1,0.1-0.1,0.3,0,0.4c0,0.1,0.2,0.2,0.3,0.3c0.7,0.2,1.9,1.1,3.2,2.3c0.3,1.3,5.7,24.2,9.3,35.1
				c-0.2,0.5-0.3,1.5-0.6,3.4c0,0.4-0.1,0.8-0.1,0.9c-0.5,1.9-0.6,6.3-0.6,6.5c0,0.4,0.1,0.9,0.5,1.2c0.3,0.3,0.7,0.5,1.2,0.5
				c0.2,0,0.4,0,0.6-0.1c0.2-0.1,0.4-0.2,0.6-0.4l0.1,0.5c0.1,0.9,1,1.6,1.9,1.5c0.1,0,0.3,0,0.4-0.1c0.5-0.2,0.9-0.6,1.1-1.1
				l0.2,0.5c0.1,0.4,0.4,0.8,0.8,1c0.4,0.2,0.9,0.3,1.3,0.2c0,0,0.1,0,0.1,0c0.4-0.1,0.7-0.4,0.9-0.7c0.3,5.7,0.6,10.1,0.6,10.2
				c0,0.1,0.1,0.2,0.2,0.3c0.1,0.1,0.2,0.1,0.4,0.1c0.1,0,4.7-0.5,11.4-2c2.3,6.2,6.1,16.5,8.8,22.9c2.7,6.3,4.9,10.8,6.1,13.4
				l-1.9,1.4c-0.4,0.3-0.6,0.7-0.7,1.2c-0.1,0.5,0,0.9,0.3,1.3c0.5,0.6,1.3,0.9,2,0.6c0.2-0.1,0.3-0.1,0.5-0.2l0.3-0.3
				c-0.6,5.1,1,10.7,4.7,11.9c1.5,0.5,3,0.4,4.4-0.1c1.7-0.6,3-1.8,3.5-3.2c1.3-3.3-1.5-9.3-4.8-12.5c-0.1-0.1-0.3-0.2-0.4-0.3
				c0-0.3,0-0.6-0.1-0.8l-0.2-0.6c-0.1-0.4-0.4-0.7-0.8-0.9l-9.9-37.1c0.7-0.2,1.4-0.5,2.1-0.7c1.1-0.4,2.2-0.8,3.3-1.2l15.2,35.7
				c-0.2,0.4-0.2,0.9-0.1,1.3l0.2,0.6c0.1,0.3,0.3,0.5,0.5,0.7c-0.1,0.2-0.1,0.3-0.1,0.5c-0.5,4.6,1.1,10.9,4.1,12.7
				c1.3,0.7,3.1,0.8,4.8,0.3c1.4-0.5,2.6-1.4,3.5-2.7c2.2-3.2-0.1-8.6-3.8-12.2l0.4,0c0.2,0,0.3,0,0.5-0.1c0.7-0.3,1.2-1,1.2-1.8
				c0-0.5-0.2-0.9-0.6-1.2c-0.4-0.3-0.8-0.5-1.3-0.5l-2.4,0.1c-0.6-2.8-1.8-7.7-3.6-14.3c-2-7-5.7-17.9-7.8-24.1
				c3.6-1.9,7.1-4.2,10.4-6.8c0.2-0.2,0.2-0.5,0.1-0.7c-0.1-0.1-3-3.9-6.4-8.3c0-0.1,0-0.1,0-0.1l0.2,0.3c0.4,0.8,1.3,1.1,2.1,0.9
				c0.1,0,0.1,0,0.2-0.1c0.8-0.4,1.2-1.4,0.8-2.2l-0.2-0.5c0.4,0.3,1,0.4,1.5,0.2c0.1,0,0.3-0.1,0.4-0.2c0.4-0.3,0.6-0.6,0.7-1.1
				c0.1-0.4,0-0.9-0.3-1.3l-0.3-0.4c0.2,0,0.4,0,0.6-0.1c0.2-0.1,0.4-0.2,0.6-0.4c0.3-0.3,0.5-0.7,0.5-1.2
				C145.6,118.5,145.5,118,145.2,117.7z M114.3,55.3c-0.5,4.5-6.9,11.1-13.3,14c-0.3,0.1-0.5,0.2-0.8,0.4c-0.2-0.6-0.3-1.2-0.5-1.8
				c5.6-4.4,8.6-11.6,7.5-18.8c0.3-0.3,0.7-0.6,0.9-1c1.5-2.3,1.3-4.9-0.4-6c-0.6-0.4-1.3-0.5-2.1-0.4c-0.3-1.1-0.8-2.8-2.1-4.7
				c0,0,0,0,0,0C108.7,41.1,115.1,47.8,114.3,55.3z M105.4,43.6C105.5,43.6,105.5,43.6,105.4,43.6c0.3-0.3,0.4-0.5,0.4-0.8
				c0,0,0-0.1,0-0.1c0.5-0.1,1,0,1.4,0.2c1.2,0.8,1.3,2.9,0.1,4.7c-0.1,0.2-0.2,0.3-0.4,0.4c-0.2-0.9-0.4-1.7-0.7-2.6
				C106,44.8,105.7,44.2,105.4,43.6z M93,23l8.5,4.4l-4.6,3.9c-1.4-0.7-2.9-1.4-4.8-1.9L93,23z M79.7,30.4c2.9-1,6.5-1.4,10.5-0.5
				c13.8,3.1,14.7,13,14.7,13s-18.8-1.3-28.2-0.3c-2.3,0.2-4.5-1.1-5.1-2.6C70.4,37.5,73.6,32.5,79.7,30.4z M60.4,39.8l6.3-8.5
				l3.3,5.5c-0.8,0.6-1.9,1.9-3.1,4.5L60.4,39.8z M64.7,54.7c0.1-0.6,0.1-1.1,0.1-1.7c0,0,0,0,0,0c0.1-1.9,0.4-4.2,1-6.2
				c1.8-6.2,3.7-8.5,4.7-9.3c-0.3,1.1-0.3,2.1,0.1,2.9c0.3,0.6,0.9,1.2,1.5,1.8c0.3,2.7,0.5,5.8-0.2,8c-1.6,4.6-7.3,6.9-7.3,6.9
				S64.7,56.1,64.7,54.7z M69.8,61.1c-0.2,0-0.4,0-0.6-0.1c-2-0.7-3.3-2.3-2.8-3.7c0,0,0,0,0,0c0.5-0.3,1-0.6,1.7-1l0.1,0.1
				c0.2,0.7,0.3,1.5,0.6,2.2C69,59.5,69.4,60.3,69.8,61.1z M83.7,74.7c-6.1,1-19.5,1.7-19.1-16.7c0.2,0,0.3,0,0.5,0c0,0,0,0,0,0
				c0,0,0.1-0.1,0.3-0.1c0,1.7,1.4,3.4,3.6,4.1c0.5,0.2,0.9,0.2,1.4,0.2c3.8,6.5,10.9,10.2,18.3,9.8c0.2,0.6,0.4,1.1,0.6,1.5
				C87.5,73.9,85.8,74.3,83.7,74.7z M69.6,58.3c-0.3-0.9-0.5-1.7-0.7-2.6c1.6-1.2,3.2-2.9,4-5.2c0.7-2.2,0.7-5.1,0.4-7.6
				c1,0.5,2.2,0.8,3.5,0.7c8.6-0.9,25.3,0.1,27.7,0.3c0.3,0.6,0.6,1.2,0.8,1.9c3.5,10-1.6,20.9-11.5,24.4
				C84,73.6,73.1,68.3,69.6,58.3z M90.8,74.9c0-0.1-0.6-1.6-1.1-3c1.5-0.2,3-0.4,4.5-1c1.7-0.6,3.2-1.5,4.7-2.5c0.5,1.6,1,3.3,1,3.4
				c1.1,0,2.7-0.2,3.7,0c-0.2,3.5-2.7,6-6.2,7.2c-3.4,1.2-7.5,0.6-9.9-1.9C88.6,76.3,89.9,75.6,90.8,74.9z M74.3,90.5
				c1.1-1.6,5.1-7.5,12-12.2c0.2-0.1,0.4-0.2,0.5-0.3c2.5,2.6,7,3.4,10.8,2.1c4.1-1.5,6.6-4.4,6.8-8.1c0,0,0-0.1,0-0.1
				c5.2-0.4,11.2,0.2,17.8,2.6c-0.5,1.7-2.2,8.1-2.4,12.6c-0.2,5.4-0.1,14.8,0,16.4c-12.6,8-23.3,8.7-24.9,8.8
				c-0.6-0.8-3.4-4.1-6.7-7.9c0,0,0-0.1-0.1-0.1l-0.4-0.5c0,0,0,0,0,0C82.9,98.3,77.1,92,74.3,90.5z M120.7,97l11,17.1
				c-0.1,0.5-0.2,1-0.2,1.5c-0.6-0.8-1.2-1.5-1.6-2.1c-3.7-4.9-8.2-9.1-9.1-10C120.8,102.8,120.7,100.2,120.7,97z M94.3,113
				c-0.1,0.9-0.6,5-0.6,10.6c0,1.6,0,3.4,0,5.3c-0.4-0.4-0.8-0.7-1.2-1l-3.8-21.5C90.8,108.8,92.7,111.1,94.3,113z M93,142.1
				C92.9,142.1,92.9,142.1,93,142.1c-0.4,0.1-0.9-0.1-1-0.5l-2.1-6.1l-0.2,0l0.3,5.3c0,0.4-0.2,0.7-0.5,0.8c-0.1,0-0.1,0-0.2,0
				c-0.4,0-0.8-0.3-0.8-0.7l-0.7-5.3l-0.2,0l-0.5,3.7c0,0.3-0.2,0.6-0.5,0.7c-0.1,0-0.2,0-0.3,0c-0.4,0-0.7-0.4-0.7-0.8
				c0,0,0.1-4.5,0.6-6.3c0.1-0.4,0.5-4.2,0.8-4.5c-3.5-10.2-8.2-30.5-9-33.9c0,0,0,0,0,0c0,0,0,0,0,0c2.8,2.7,6.3,6.5,9.6,10.3
				l4.1,23.4c0.9,0.5,1.5,1.4,2.9,2.5c1.3,1,2.4,1.1,3.4,1.3c0.2,0.1,0.2,0.2,0.1,0.4c-0.1,0.3-0.4,0.6-0.9,0.8
				c-0.6,0.2-1.5,0.2-3-0.4c-0.3,0.2-0.1,0.8-0.1,1.1l2.2,5c0.2,0.5-0.1,1-0.5,1.1l0,0c-0.4,0.1-0.8-0.1-1-0.4l-2.6-4.8l-0.3,0.1
				l1.4,6.1C93.5,141.6,93.3,142,93,142.1z M121.2,190.9c-0.1,0-0.1,0.1-0.2,0.1c-0.3,0.1-0.7,0-0.9-0.3c-0.3-0.4-0.2-0.9,0.2-1.2
				l1.5-1.2c0,0,0,0,0,0l0.2,0.6c0.1,0.3,0.3,0.6,0.6,0.8c0,0.1,0,0.1,0,0.2L121.2,190.9z M132.3,192.5c0-0.1-0.1-0.3-0.1-0.4
				c1.5,2.7,2.3,5.7,1.6,7.5c-0.4,1.1-1.5,2.1-3,2.6c-1.1,0.4-2.4,0.5-3.8,0c-2.1-0.7-3.5-3.3-4-6.5c0.8,1.1,2.5,2.2,5.9,1
				c0.1,0,0.1,0,0.2-0.1C132.1,195.7,132.4,193.7,132.3,192.5z M128.8,195.9c0,0-0.1,0-0.1,0c-6.3,2.1-5.8-3.7-5.2-5.8
				c0.3,0,0.5,0.1,0.8,0l4.1-1.5c0.2-0.1,0.4-0.2,0.6-0.4C130.6,189.8,133.7,194.2,128.8,195.9z M122.8,188.7l-0.2-0.6
				c-0.2-0.4,0.1-0.9,0.5-1.1l4.1-1.5c0.4-0.2,0.9,0.1,1.1,0.5l0.2,0.6c0.2,0.4-0.1,0.9-0.5,1.1l-4.1,1.5
				C123.5,189.3,123,189.1,122.8,188.7z M127.4,184.6c-0.1,0-0.3,0-0.4,0.1l-4.1,1.5c-0.2,0.1-0.4,0.2-0.6,0.4c0,0,0,0,0,0
				c-1.3-2.6-3.4-7-5.9-13c-2.7-6.4-6.5-16.6-8.8-22.8c3-0.7,6.4-1.6,10.1-2.8L127.4,184.6z M140.8,184.5c0.2,0,0.5,0,0.7-0.1
				l4.1-1.5c0.2-0.1,0.3-0.2,0.4-0.3l0,0l0.5,0c1.9,1.5,5.3,5.4-0.7,7.6c0,0-0.1,0-0.1,0.1C140.9,192.1,140.6,186.8,140.8,184.5z
				 M140.1,183l-0.2-0.6c-0.2-0.4,0.1-0.9,0.5-1.1l4.1-1.5c0.4-0.2,0.9,0.1,1.1,0.5l0.2,0.6c0.2,0.4-0.1,0.9-0.5,1.1l-4.1,1.5
				C140.8,183.7,140.3,183.5,140.1,183z M150.2,186.7c1.6,2.8,2.2,5.7,1,7.6c-0.8,1.2-1.9,2-3,2.4c-1.5,0.5-3,0.4-4-0.2
				c-1.7-1-2.9-3.8-3.5-6.9c0.1,0.1,0.1,0.3,0.2,0.4c0.6,0.9,2.2,2.3,5.2,1.3c0.1,0,0.1,0,0.2-0.1
				C149.7,189.9,150.3,188.1,150.2,186.7z M146.5,180.1l1.9-0.1c0.5,0,0.8,0.3,0.9,0.8c0,0.4-0.2,0.7-0.6,0.8c-0.1,0-0.2,0-0.2,0
				l-1.3,0.1c0,0,0,0,0,0c0,0,0,0,0,0l-0.3,0c-0.1,0-0.1-0.1-0.2-0.1c0.1-0.3,0.1-0.6,0-0.9L146.5,180.1
				C146.6,180.1,146.5,180.1,146.5,180.1z M141.5,165.2c1.8,6.2,2.9,11,3.5,13.8c-0.2,0-0.5,0-0.7,0.1l-4.1,1.5
				c-0.1,0-0.2,0.1-0.3,0.2l-15-35.3c3-1.2,6-2.6,9-4.1C135.9,147.5,139.5,158.2,141.5,165.2z M95.6,152c-0.1-1.4-0.3-5.7-0.6-10.8
				c0.4,0.1,0.7,0.2,1.1,0c0,0,0,0,0,0c0.5-0.2,0.8-0.5,1-1c0.2-0.4,0.2-0.9,0-1.4l-2-4.4c0.9,0.2,1.6,0.2,2.3-0.1
				c0.8-0.3,1.2-0.9,1.4-1.3c0.2-0.5,0.1-0.8,0-1.1c-0.1-0.2-0.3-0.5-0.8-0.6c-0.2,0-0.3-0.1-0.5-0.1c-0.8-0.2-1.6-0.3-2.5-1
				c-0.2-0.2-0.3-0.3-0.5-0.4c0-2.2-0.1-4.3,0-6.1c0.1-5.3,0.5-9.1,0.6-10.3c1.3-0.1,6.1-0.5,12.5-2.7c3.7-1.3,8-3.3,12.6-6.2
				c1.1,1,5.3,5.1,8.9,9.7c0.5,0.7,1.3,1.7,2.2,2.9c0,0.2,0,0.3-0.1,0.6c-0.2,1.1-0.7,1.8-1.2,2.4c-0.1,0.1-0.2,0.3-0.3,0.4
				c-0.3,0.4-0.3,0.8-0.2,1c0.1,0.2,0.2,0.6,0.7,0.8c0.4,0.2,1.1,0.3,1.8,0.1c0.6-0.2,1.3-0.7,1.8-1.5l1.4,4.6
				c0.1,0.5,0.5,0.9,0.9,1.1c0.4,0.2,1,0.3,1.4,0.1c0.3-0.1,0.5-0.3,0.6-0.5c2.6,3.4,5,6.5,5.8,7.5C125.6,148,99.5,151.5,95.6,152z
				 M144.4,119.4c-0.1,0.1-0.2,0.1-0.3,0.2c-0.3,0.1-0.6,0-0.8-0.2l-2.8-2.5l-0.1,0.1l2.9,4.5c0.2,0.3,0.1,0.8-0.2,1
				c-0.1,0-0.1,0.1-0.2,0.1c-0.3,0.1-0.7,0-0.9-0.3l-3.3-4.2l-0.1,0.1l2.4,5.9c0.2,0.4,0,0.8-0.4,1c0,0,0,0-0.1,0
				c-0.4,0.1-0.8,0-0.9-0.4l-2.9-5.6l-0.2,0.1l1.2,5.3c0.1,0.4-0.1,0.8-0.4,1c0,0,0,0,0,0c-0.4,0.1-0.9,0-1.1-0.5l-1.6-5.3
				c-0.2-0.3-0.4-0.9-0.8-0.8c-0.8,1.4-1.5,2.1-2.1,2.3c-0.5,0.2-0.9,0.1-1.1,0c-0.2-0.1-0.3-0.2-0.1-0.4c0.6-0.8,1.4-1.6,1.7-3.2
				c0.3-1.7,0.2-2.8,0.6-3.8l-12-18.7c0-2.8,0-5.8,0.1-8.1c0.1-2,0.5-4.4,0.9-6.6c0.8,1.5,11.6,22.9,14.6,30.5
				c0.5,0,3.2,2.6,3.6,2.9c1.5,1.1,4.5,4.4,4.5,4.4C144.8,118.6,144.7,119.1,144.4,119.4z"/>
		</g>
	</g>
</g>
</svg>
