<?xml version="1.0" encoding="utf-8"?>
<!-- Generator: Adobe Illustrator 22.1.0, SVG Export Plug-In . SVG Version: 6.00 Build 0)  -->
<svg version="1.1" xmlns="http://www.w3.org/2000/svg" xmlns:xlink="http://www.w3.org/1999/xlink" x="0px" y="0px"
	 viewBox="0 0 283.5 283.5" style="enable-background:new 0 0 283.5 283.5;" xml:space="preserve">
<style type="text/css">
	.st0{fill:#BA8578;stroke:#000000;stroke-miterlimit:10;}
	.st1{fill:#FDEBE1;stroke:#000000;stroke-width:0.5;stroke-miterlimit:10;}
	.st2{fill:#F0A69A;stroke:#000000;stroke-width:0.5;stroke-miterlimit:10;}
	.st3{fill:#FFD26B;}
	.st4{fill:#F0D192;stroke:#000000;stroke-width:0.5;stroke-miterlimit:10;}
	.st5{fill:#E29378;stroke:#000000;stroke-width:0.5;stroke-miterlimit:10;}
	.st6{fill:#ACDDF2;stroke:#000000;stroke-width:0.5;stroke-miterlimit:10;}
	.st7{fill:#F5E9C3;stroke:#000000;stroke-width:0.5;stroke-miterlimit:10;}
	.st8{fill:none;stroke:#000000;stroke-width:0.5;stroke-miterlimit:10;}
	.st9{fill:#FBE8AC;stroke:#000000;stroke-width:0.5;stroke-miterlimit:10;}
	.st10{fill:#F3B3A5;stroke:#000000;stroke-width:0.5;stroke-miterlimit:10;}
	.st11{fill:#B7E0EB;stroke:#000000;stroke-width:0.5;stroke-miterlimit:10;}
	.st12{fill:#ADCEEA;stroke:#000000;stroke-width:0.5;stroke-miterlimit:10;}
	.st13{fill:#E7E6E8;stroke:#000000;stroke-width:0.637;stroke-miterlimit:10;}
	.st14{fill:#BC765B;stroke:#000000;stroke-miterlimit:10;}
	.st15{fill:#E7E6E8;stroke:#000000;stroke-width:0.5;stroke-miterlimit:10;}
	.st16{fill:none;stroke:#000000;stroke-width:0.9009;stroke-miterlimit:10;}
	.st17{fill:#BD212E;stroke:#000000;stroke-width:0.5;stroke-miterlimit:10;}
	.st18{fill:#688954;stroke:#000000;stroke-width:0.5;stroke-miterlimit:10;}
	.st19{fill:#BDBF6F;stroke:#000000;stroke-width:0.5;stroke-miterlimit:10;}
	.st20{fill:none;stroke:#000000;stroke-width:0.5;stroke-linecap:round;stroke-linejoin:round;stroke-miterlimit:10;}
	.st21{fill:#F0BA70;stroke:#000000;stroke-width:0.5;stroke-linecap:round;stroke-linejoin:round;stroke-miterlimit:10;}
	.st22{fill:#D2DB59;stroke:#000000;stroke-width:0.5;stroke-miterlimit:10;}
	.st23{fill:#FFD269;}
	.st24{fill:none;stroke:#000000;stroke-width:0.25;stroke-linecap:round;stroke-linejoin:round;stroke-miterlimit:10;}
	.st25{fill:none;stroke:#000000;stroke-width:0.1975;stroke-linecap:round;stroke-linejoin:round;stroke-miterlimit:10;}
	.st26{fill:#798C54;stroke:#000000;stroke-width:0.5;stroke-miterlimit:10;}
	.st27{fill:none;stroke:#000000;stroke-width:0.75;stroke-linecap:round;stroke-linejoin:round;stroke-miterlimit:10;}
	.st28{fill:#ABB57C;stroke:#000000;stroke-width:0.5;stroke-linecap:round;stroke-linejoin:round;stroke-miterlimit:10;}
	.st29{fill:#F9C098;}
	.st30{fill:#BD212E;}
	.st31{fill:#662327;}
	.st32{fill:#C3D9F1;}
	.st33{fill:#352723;}
	.st34{fill:#FFFFFF;}
	.st35{fill:none;stroke:#000000;stroke-linecap:round;stroke-linejoin:round;stroke-miterlimit:10;}
	.st36{fill:none;stroke:#000000;stroke-width:1.2179;stroke-linecap:round;stroke-linejoin:round;stroke-miterlimit:10;}
	.st37{fill:none;stroke:#4E4E51;stroke-width:2;stroke-linecap:round;stroke-linejoin:round;stroke-miterlimit:10;}
	.st38{fill:#E7E6E8;stroke:#000000;stroke-width:0.5;stroke-linecap:round;stroke-linejoin:round;stroke-miterlimit:10;}
	.st39{fill:#4E4E51;stroke:#000000;stroke-linecap:round;stroke-linejoin:round;stroke-miterlimit:10;}
	.st40{fill:none;stroke:#000000;stroke-width:0.808;stroke-linecap:round;stroke-linejoin:round;stroke-miterlimit:10;}
	.st41{fill:none;stroke:#000000;stroke-width:0.5387;stroke-linecap:round;stroke-linejoin:round;stroke-miterlimit:10;}
	.st42{fill:#F0D192;stroke:#000000;stroke-width:0.712;stroke-miterlimit:10;}
	.st43{fill:#E29378;stroke:#000000;stroke-width:0.712;stroke-miterlimit:10;}
	.st44{fill:#ACDDF2;stroke:#000000;stroke-width:0.712;stroke-miterlimit:10;}
	.st45{fill:#FBE8AC;stroke:#000000;stroke-width:0.712;stroke-miterlimit:10;}
	.st46{fill:none;stroke:#000000;stroke-width:0.6805;stroke-miterlimit:10;}
	.st47{fill:#698954;stroke:#000000;stroke-width:0.5;stroke-miterlimit:10;}
	.st48{fill:#EDCB94;stroke:#000000;stroke-width:0.5;stroke-miterlimit:10;}
	.st49{fill:#E59E67;stroke:#000000;stroke-width:0.5;stroke-linecap:round;stroke-linejoin:round;stroke-miterlimit:10;}
	.st50{fill:none;stroke:#4E4E51;stroke-linecap:round;stroke-linejoin:round;stroke-miterlimit:10;}
</style>
<g id="Слой_1">
</g>
<g id="Слой_3">
	<polygon class="st0" points="283.5,169.8 283.5,220.3 0,219.8 0,169.3 	"/>
	<rect y="85" class="st0" width="283.5" height="14.3"/>
	<polygon class="st1" points="173.8,77.7 171,84.4 160.9,84.4 158.1,77.7 	"/>
	<path class="st2" d="M175.6,76.1c0,0.4-0.2,0.8-0.5,1.1c-0.3,0.3-0.7,0.5-1.1,0.5h-16.6c-0.9,0-1.6-0.7-1.6-1.6
		c0-0.4,0.2-0.8,0.5-1.1c0.3-0.3,0.7-0.5,1.1-0.5h16.6C174.9,74.5,175.6,75.2,175.6,76.1z"/>
	<path class="st3" d="M168.7,79.5c-0.3,0-0.6,0.1-0.8,0.3c-0.3-0.9-1.1-1.5-2.1-1.5c-0.9,0-1.7,0.5-2,1.3c-0.2-0.1-0.3-0.1-0.5-0.1
		c-0.7,0-1.3,0.6-1.3,1.3s0.6,1.3,1.3,1.3c0.3,0,0.5-0.1,0.8-0.2c0.4,0.6,1.1,0.9,1.8,0.9c0.8,0,1.5-0.4,1.9-1.1
		c0.2,0.3,0.6,0.4,0.9,0.4c0.7,0,1.3-0.6,1.3-1.3S169.4,79.5,168.7,79.5z"/>
	<polygon class="st1" points="173.7,67.2 170.9,73.9 160.9,73.9 158.1,67.2 	"/>
	<path class="st2" d="M175.6,65.6c0,0.4-0.2,0.8-0.5,1.1c-0.3,0.3-0.7,0.5-1.1,0.5h-16.6c-0.9,0-1.6-0.7-1.6-1.6
		c0-0.4,0.2-0.8,0.5-1.1c0.3-0.3,0.7-0.5,1.1-0.5H174C174.9,64,175.6,64.7,175.6,65.6z"/>
	<path class="st3" d="M168.6,69c-0.3,0-0.6,0.1-0.8,0.3c-0.3-0.9-1.1-1.5-2.1-1.5c-0.9,0-1.7,0.5-2,1.3c-0.2-0.1-0.3-0.1-0.5-0.1
		c-0.7,0-1.3,0.6-1.3,1.3s0.6,1.3,1.3,1.3c0.3,0,0.5-0.1,0.8-0.2c0.4,0.6,1.1,0.9,1.8,0.9c0.8,0,1.5-0.4,1.9-1.1
		c0.2,0.3,0.6,0.4,0.9,0.4c0.7,0,1.3-0.6,1.3-1.3S169.4,69,168.6,69z"/>
	<polygon class="st1" points="197.8,77.7 195,84.4 184.9,84.4 182.1,77.7 	"/>
	<path class="st2" d="M199.6,76.2c0,0.4-0.2,0.8-0.5,1.1c-0.3,0.3-0.7,0.5-1.1,0.5h-16.6c-0.9,0-1.6-0.7-1.6-1.6
		c0-0.4,0.2-0.8,0.5-1.1c0.3-0.3,0.7-0.5,1.1-0.5h16.6C198.9,74.6,199.6,75.3,199.6,76.2z"/>
	<path class="st3" d="M192.7,79.6c-0.3,0-0.6,0.1-0.8,0.3c-0.3-0.9-1.1-1.5-2.1-1.5c-0.9,0-1.7,0.5-2,1.3c-0.2-0.1-0.3-0.1-0.5-0.1
		c-0.7,0-1.3,0.6-1.3,1.3s0.6,1.3,1.3,1.3c0.3,0,0.5-0.1,0.8-0.2c0.4,0.6,1.1,0.9,1.8,0.9c0.8,0,1.5-0.4,1.9-1.1
		c0.2,0.3,0.6,0.4,0.9,0.4c0.7,0,1.3-0.6,1.3-1.3S193.4,79.6,192.7,79.6z"/>
	<polygon class="st1" points="197.7,67.2 194.9,73.9 184.9,73.9 182.1,67.2 	"/>
	<path class="st2" d="M199.6,65.7c0,0.4-0.2,0.8-0.5,1.1c-0.3,0.3-0.7,0.5-1.1,0.5h-16.6c-0.9,0-1.6-0.7-1.6-1.6
		c0-0.4,0.2-0.8,0.5-1.1c0.3-0.3,0.7-0.5,1.1-0.5H198C198.9,64.1,199.6,64.8,199.6,65.7z"/>
	<path class="st3" d="M192.6,69.1c-0.3,0-0.6,0.1-0.8,0.3c-0.3-0.9-1.1-1.5-2.1-1.5c-0.9,0-1.7,0.5-2,1.3c-0.2-0.1-0.3-0.1-0.5-0.1
		c-0.7,0-1.3,0.6-1.3,1.3s0.6,1.3,1.3,1.3c0.3,0,0.5-0.1,0.8-0.2c0.4,0.6,1.1,0.9,1.8,0.9c0.8,0,1.5-0.4,1.9-1.1
		c0.2,0.3,0.6,0.4,0.9,0.4c0.7,0,1.3-0.6,1.3-1.3S193.4,69.1,192.6,69.1z"/>
	<polygon class="st1" points="221.8,77.6 219,84.3 208.9,84.3 206.1,77.6 	"/>
	<path class="st2" d="M223.6,76.1c0,0.4-0.2,0.8-0.5,1.1c-0.3,0.3-0.7,0.5-1.1,0.5h-16.6c-0.9,0-1.6-0.7-1.6-1.6
		c0-0.4,0.2-0.8,0.5-1.1c0.3-0.3,0.7-0.5,1.1-0.5h16.6C222.9,74.5,223.6,75.2,223.6,76.1z"/>
	<path class="st3" d="M216.7,79.5c-0.3,0-0.6,0.1-0.8,0.3c-0.3-0.9-1.1-1.5-2.1-1.5c-0.9,0-1.7,0.5-2,1.3c-0.2-0.1-0.3-0.1-0.5-0.1
		c-0.7,0-1.3,0.6-1.3,1.3s0.6,1.3,1.3,1.3c0.3,0,0.5-0.1,0.8-0.2c0.4,0.6,1.1,0.9,1.8,0.9c0.8,0,1.5-0.4,1.9-1.1
		c0.2,0.3,0.6,0.4,0.9,0.4c0.7,0,1.3-0.6,1.3-1.3S217.4,79.5,216.7,79.5z"/>
	<polygon class="st1" points="221.7,67.1 218.9,73.8 208.9,73.8 206.1,67.1 	"/>
	<path class="st2" d="M223.6,65.6c0,0.4-0.2,0.8-0.5,1.1c-0.3,0.3-0.7,0.5-1.1,0.5h-16.6c-0.9,0-1.6-0.7-1.6-1.6
		c0-0.4,0.2-0.8,0.5-1.1c0.3-0.3,0.7-0.5,1.1-0.5H222C222.9,64,223.6,64.7,223.6,65.6z"/>
	<path class="st3" d="M216.6,69c-0.3,0-0.6,0.1-0.8,0.3c-0.3-0.9-1.1-1.5-2.1-1.5c-0.9,0-1.7,0.5-2,1.3c-0.2-0.1-0.3-0.1-0.5-0.1
		c-0.7,0-1.3,0.6-1.3,1.3s0.6,1.3,1.3,1.3c0.3,0,0.5-0.1,0.8-0.2c0.4,0.6,1.1,0.9,1.8,0.9c0.8,0,1.5-0.4,1.9-1.1
		c0.2,0.3,0.6,0.4,0.9,0.4c0.7,0,1.3-0.6,1.3-1.3S217.4,69,216.6,69z"/>
	<path class="st4" d="M111.9,85.1h-9.2c-1.7,0-3.1-1.4-3.1-3.1V62.2c0-1.7,1.4-3.1,3.1-3.1h9.2c1.7,0,3.1,1.4,3.1,3.1v19.7
		C115,83.7,113.6,85.1,111.9,85.1z"/>
	<path class="st5" d="M110.2,68.5h-5.7c-1.7,0-3.1-1.4-3.1-3.1v0c0-1.7,1.4-3.1,3.1-3.1h5.7c1.7,0,3.1,1.4,3.1,3.1v0
		C113.3,67.1,111.9,68.5,110.2,68.5z"/>
	<path class="st4" d="M131.1,85.1h-9.2c-1.7,0-3.1-1.4-3.1-3.1V62.2c0-1.7,1.4-3.1,3.1-3.1h9.2c1.7,0,3.1,1.4,3.1,3.1v19.7
		C134.2,83.7,132.8,85.1,131.1,85.1z"/>
	<path class="st5" d="M129.4,68.5h-5.7c-1.7,0-3.1-1.4-3.1-3.1v0c0-1.7,1.4-3.1,3.1-3.1h5.7c1.7,0,3.1,1.4,3.1,3.1v0
		C132.5,67.1,131.1,68.5,129.4,68.5z"/>
	<path class="st4" d="M150.3,85h-9.2c-1.7,0-3.1-1.4-3.1-3.1V62.2c0-1.7,1.4-3.1,3.1-3.1h9.2c1.7,0,3.1,1.4,3.1,3.1v19.7
		C153.4,83.6,152,85,150.3,85z"/>
	<path class="st5" d="M148.5,68.4h-5.7c-1.7,0-3.1-1.4-3.1-3.1l0,0c0-1.7,1.4-3.1,3.1-3.1h5.7c1.7,0,3.1,1.4,3.1,3.1l0,0
		C151.7,67,150.3,68.4,148.5,68.4z"/>
	<path class="st6" d="M33.9,66.4v8.1H20.4c-0.2,0-0.4,0-0.6,0v-8c0.2,0,0.4,0,0.6,0H33.9z"/>
	<path class="st7" d="M33.9,62.9v3.4H20.4c-0.2,0-0.4,0-0.6,0v-3.5c0-2.7,1.5-5.1,3.8-6.2c1-0.5,2-0.8,3.2-0.8
		c1.3,0,2.5,0.3,3.5,0.9c0.5,0.3,1,0.7,1.5,1.1C33.1,59.3,33.9,61,33.9,62.9z"/>
	<path class="st7" d="M20.4,74.5h13.4v8.4c0,0.9-0.7,1.6-1.6,1.6H21.5c-0.9,0-1.6-0.7-1.6-1.6v-8.4C20,74.5,20.2,74.5,20.4,74.5z"/>
	<path class="st7" d="M30.3,54.6v2.3c-1-0.6-2.2-0.9-3.5-0.9c-1.1,0-2.2,0.3-3.2,0.8v-2.1c0.1,0,0.2,0,0.4,0h6
		C30.1,54.6,30.2,54.6,30.3,54.6z"/>
	<line class="st8" x1="30.3" y1="54.6" x2="30.3" y2="54.5"/>
	<line class="st8" x1="23.7" y1="54.6" x2="23.7" y2="54.5"/>
	<path class="st6" d="M31.7,52.3v0.6c0,0.8-0.6,1.5-1.3,1.7c-0.1,0-0.2,0-0.4,0h-6c-0.1,0-0.2,0-0.4,0c-0.8-0.2-1.3-0.9-1.3-1.7
		v-0.6c0-0.9,0.8-1.7,1.7-1.7h6C30.9,50.6,31.7,51.4,31.7,52.3z"/>
	<path class="st6" d="M16.8,66.5v8.1H3.3c-0.2,0-0.4,0-0.6,0v-8c0.2,0,0.4,0,0.6,0H16.8z"/>
	<path class="st7" d="M16.8,63v3.4H3.3c-0.2,0-0.4,0-0.6,0V63c0-2.7,1.5-5.1,3.8-6.2c1-0.5,2-0.8,3.2-0.8c1.3,0,2.5,0.3,3.5,0.9
		c0.5,0.3,1,0.7,1.5,1.1C16,59.3,16.8,61.1,16.8,63z"/>
	<path class="st7" d="M3.3,74.6h13.4V83c0,0.9-0.7,1.6-1.6,1.6H4.4c-0.9,0-1.6-0.7-1.6-1.6v-8.4C3,74.6,3.1,74.6,3.3,74.6z"/>
	<path class="st7" d="M13.2,54.7v2.3c-1-0.6-2.2-0.9-3.5-0.9c-1.1,0-2.2,0.3-3.2,0.8v-2.1c0.1,0,0.2,0,0.4,0h6
		C13,54.7,13.1,54.7,13.2,54.7z"/>
	<line class="st8" x1="13.2" y1="54.7" x2="13.2" y2="54.6"/>
	<line class="st8" x1="6.6" y1="54.7" x2="6.6" y2="54.6"/>
	<path class="st6" d="M14.6,52.4V53c0,0.8-0.6,1.5-1.3,1.7c-0.1,0-0.2,0-0.4,0h-6c-0.1,0-0.2,0-0.4,0c-0.8-0.2-1.3-0.9-1.3-1.7v-0.6
		c0-0.9,0.8-1.7,1.7-1.7h6C13.8,50.7,14.6,51.5,14.6,52.4z"/>
	<path class="st6" d="M51.9,66.4v8.1H38.4c-0.2,0-0.4,0-0.6,0v-8c0.2,0,0.4,0,0.6,0H51.9z"/>
	<path class="st7" d="M51.9,62.9v3.4H38.4c-0.2,0-0.4,0-0.6,0v-3.5c0-2.7,1.5-5.1,3.8-6.2c1-0.5,2-0.8,3.2-0.8
		c1.3,0,2.5,0.3,3.5,0.9c0.5,0.3,1,0.7,1.5,1.1C51.1,59.3,51.9,61,51.9,62.9z"/>
	<path class="st7" d="M38.4,74.5h13.4v8.4c0,0.9-0.7,1.6-1.6,1.6H39.5c-0.9,0-1.6-0.7-1.6-1.6v-8.4C38,74.5,38.2,74.5,38.4,74.5z"/>
	<path class="st7" d="M48.3,54.6v2.3c-1-0.6-2.2-0.9-3.5-0.9c-1.1,0-2.2,0.3-3.2,0.8v-2.1c0.1,0,0.2,0,0.4,0h6
		C48.1,54.6,48.2,54.6,48.3,54.6z"/>
	<line class="st8" x1="48.3" y1="54.6" x2="48.3" y2="54.5"/>
	<line class="st8" x1="41.7" y1="54.6" x2="41.7" y2="54.5"/>
	<path class="st6" d="M49.7,52.3v0.6c0,0.8-0.6,1.5-1.3,1.7c-0.1,0-0.2,0-0.4,0h-6c-0.1,0-0.2,0-0.4,0c-0.8-0.2-1.3-0.9-1.3-1.7
		v-0.6c0-0.9,0.8-1.7,1.7-1.7h6C48.9,50.6,49.7,51.4,49.7,52.3z"/>
	<path class="st6" d="M70.1,66.4v8.1H56.7c-0.2,0-0.4,0-0.6,0v-8c0.2,0,0.4,0,0.6,0H70.1z"/>
	<path class="st7" d="M70.1,63v3.4H56.7c-0.2,0-0.4,0-0.6,0V63c0-2.7,1.5-5.1,3.8-6.2c1-0.5,2-0.8,3.2-0.8c1.3,0,2.5,0.3,3.5,0.9
		c0.5,0.3,1,0.7,1.5,1.1C69.3,59.3,70.1,61.1,70.1,63z"/>
	<path class="st9" d="M56.7,74.6h13.4v8.4c0,0.9-0.7,1.6-1.6,1.6H57.7c-0.9,0-1.6-0.7-1.6-1.6v-8.4C56.3,74.6,56.5,74.6,56.7,74.6z"
		/>
	<path class="st7" d="M66.6,54.6v2.3c-1-0.6-2.2-0.9-3.5-0.9c-1.1,0-2.2,0.3-3.2,0.8v-2.1c0.1,0,0.2,0,0.4,0h6
		C66.3,54.7,66.5,54.7,66.6,54.6z"/>
	<line class="st8" x1="66.6" y1="54.6" x2="66.6" y2="54.6"/>
	<line class="st8" x1="59.9" y1="54.6" x2="59.9" y2="54.6"/>
	<path class="st6" d="M67.9,52.4V53c0,0.8-0.6,1.5-1.3,1.7c-0.1,0-0.2,0-0.4,0h-6c-0.1,0-0.2,0-0.4,0c-0.8-0.2-1.3-0.9-1.3-1.7v-0.6
		c0-0.9,0.8-1.7,1.7-1.7h6C67.2,50.7,67.9,51.4,67.9,52.4z"/>
	<path class="st10" d="M245.5,73.9v8.4c0,1.1-0.9,2-2,2h-10.3c-1.1,0-2-0.9-2-2v-8.4c0-0.8,0.5-1.5,1.1-1.8c0.3-0.1,0.5-0.2,0.8-0.2
		h10.3c0.3,0,0.6,0.1,0.8,0.2C245,72.5,245.5,73.1,245.5,73.9z"/>
	<path class="st11" d="M232.4,70.6c0,0.1,0,0.2,0,0.3v1.3c0.3-0.1,0.5-0.2,0.8-0.2h10.3c0.3,0,0.6,0.1,0.8,0.2v-1.3
		c0-0.1,0-0.2,0-0.2"/>
	<path class="st12" d="M245.2,69v0.5c0,0.5-0.4,1-0.9,1.1c-0.1,0-0.2,0-0.3,0h-11.3c-0.1,0-0.2,0-0.3,0c-0.5-0.1-0.8-0.6-0.8-1.1V69
		c0-0.6,0.5-1.2,1.2-1.2H244C244.7,67.8,245.2,68.4,245.2,69z"/>
	<path class="st10" d="M245.5,56.8v8.4c0,1.1-0.9,2-2,2h-10.3c-1.1,0-2-0.9-2-2v-8.4c0-0.8,0.5-1.5,1.1-1.8c0.3-0.1,0.5-0.2,0.8-0.2
		h10.3c0.3,0,0.6,0.1,0.8,0.2C245,55.3,245.5,56,245.5,56.8z"/>
	<path class="st11" d="M232.4,53.4c0,0.1,0,0.2,0,0.3V55c0.3-0.1,0.5-0.2,0.8-0.2h10.3c0.3,0,0.6,0.1,0.8,0.2v-1.3
		c0-0.1,0-0.2,0-0.2"/>
	<path class="st12" d="M245.2,51.9v0.5c0,0.5-0.4,1-0.9,1.1c-0.1,0-0.2,0-0.3,0h-11.3c-0.1,0-0.2,0-0.3,0c-0.5-0.1-0.8-0.6-0.8-1.1
		v-0.5c0-0.6,0.5-1.2,1.2-1.2H244C244.7,50.7,245.2,51.2,245.2,51.9z"/>
	<path class="st10" d="M263.3,74.1v8.4c0,1.1-0.9,2-2,2H251c-1.1,0-2-0.9-2-2v-8.4c0-0.8,0.5-1.5,1.1-1.8c0.3-0.1,0.5-0.2,0.8-0.2
		h10.3c0.3,0,0.6,0.1,0.8,0.2C262.9,72.7,263.3,73.3,263.3,74.1z"/>
	<path class="st11" d="M250.3,70.8c0,0.1,0,0.2,0,0.3v1.3c0.3-0.1,0.5-0.2,0.8-0.2h10.3c0.3,0,0.6,0.1,0.8,0.2V71c0-0.1,0-0.2,0-0.2
		"/>
	<path class="st12" d="M263,69.2v0.5c0,0.5-0.4,1-0.9,1.1c-0.1,0-0.2,0-0.3,0h-11.3c-0.1,0-0.2,0-0.3,0c-0.5-0.1-0.8-0.6-0.8-1.1
		v-0.5c0-0.6,0.5-1.2,1.2-1.2h11.3C262.5,68,263,68.6,263,69.2z"/>
	<path class="st10" d="M263.3,57v8.4c0,1.1-0.9,2-2,2H251c-1.1,0-2-0.9-2-2V57c0-0.8,0.5-1.5,1.1-1.8c0.3-0.1,0.5-0.2,0.8-0.2h10.3
		c0.3,0,0.6,0.1,0.8,0.2C262.9,55.5,263.3,56.2,263.3,57z"/>
	<path class="st11" d="M250.3,53.6c0,0.1,0,0.2,0,0.3v1.3c0.3-0.1,0.5-0.2,0.8-0.2h10.3c0.3,0,0.6,0.1,0.8,0.2v-1.3
		c0-0.1,0-0.2,0-0.2"/>
	<path class="st12" d="M263,52.1v0.5c0,0.5-0.4,1-0.9,1.1c-0.1,0-0.2,0-0.3,0h-11.3c-0.1,0-0.2,0-0.3,0c-0.5-0.1-0.8-0.6-0.8-1.1
		v-0.5c0-0.6,0.5-1.2,1.2-1.2h11.3C262.5,50.9,263,51.4,263,52.1z"/>
	<path class="st10" d="M279.8,74.1v8.4c0,1.1-0.9,2-2,2h-10.3c-1.1,0-2-0.9-2-2v-8.4c0-0.8,0.5-1.5,1.1-1.8c0.3-0.1,0.5-0.2,0.8-0.2
		h10.3c0.3,0,0.6,0.1,0.8,0.2C279.4,72.7,279.8,73.3,279.8,74.1z"/>
	<path class="st11" d="M266.8,70.8c0,0.1,0,0.2,0,0.3v1.3c0.3-0.1,0.5-0.2,0.8-0.2h10.3c0.3,0,0.6,0.1,0.8,0.2V71c0-0.1,0-0.2,0-0.2
		"/>
	<path class="st12" d="M279.5,69.2v0.5c0,0.5-0.4,1-0.9,1.1c-0.1,0-0.2,0-0.3,0h-11.3c-0.1,0-0.2,0-0.3,0c-0.5-0.1-0.8-0.6-0.8-1.1
		v-0.5c0-0.6,0.5-1.2,1.2-1.2h11.3C279,68,279.5,68.6,279.5,69.2z"/>
	<path class="st10" d="M279.8,57v8.4c0,1.1-0.9,2-2,2h-10.3c-1.1,0-2-0.9-2-2V57c0-0.8,0.5-1.5,1.1-1.8c0.3-0.1,0.5-0.2,0.8-0.2
		h10.3c0.3,0,0.6,0.1,0.8,0.2C279.4,55.5,279.8,56.2,279.8,57z"/>
	<path class="st11" d="M266.8,53.6c0,0.1,0,0.2,0,0.3v1.3c0.3-0.1,0.5-0.2,0.8-0.2h10.3c0.3,0,0.6,0.1,0.8,0.2v-1.3
		c0-0.1,0-0.2,0-0.2"/>
	<path class="st12" d="M279.5,52.1v0.5c0,0.5-0.4,1-0.9,1.1c-0.1,0-0.2,0-0.3,0h-11.3c-0.1,0-0.2,0-0.3,0c-0.5-0.1-0.8-0.6-0.8-1.1
		v-0.5c0-0.6,0.5-1.2,1.2-1.2h11.3C279,50.9,279.5,51.4,279.5,52.1z"/>
	<polygon class="st13" points="283.5,131.8 283.5,185.3 283.5,186.5 283.5,165.2 0,165.2 0,186.6 0,186.4 0,132.8 	"/>
	<polygon class="st14" points="283.5,164.6 283.5,169.4 0,169.1 0,164.3 	"/>
	<rect x="24" y="99.3" class="st15" width="3.6" height="33.5"/>
	<rect x="250.6" y="99.3" class="st15" width="3.6" height="33.5"/>
</g>
<g id="Слой_4">
	<line class="st16" x1="140.7" y1="132.8" x2="150.7" y2="165"/>
	<line class="st16" x1="202.7" y1="132.8" x2="221.2" y2="165"/>
	<line class="st16" x1="53.5" y1="132.8" x2="29.8" y2="165"/>
	<line class="st16" x1="255.8" y1="132.8" x2="282.7" y2="165"/>
</g>
<g id="Слой_5">
	<circle class="st17" cx="13.8" cy="138.4" r="6.3"/>
	<path class="st18" d="M9.5,130.5c0,0,3,0.1,3.7,1.4c0,0,1.9-2.5,3.3-2.6c0,0-1.1,1.2-1.3,1.9c0,0,2.9,0.4,3.6,1.2
		c0,0-3.1-0.2-3.6,0.7c0,0,0.6,1,0.7,1.8c0,0-1.5-0.6-1.9-1c0,0-0.9,0.7-2,0.9c0,0,0.6-0.7,0.3-1.3C12.3,133.4,9.7,131.1,9.5,130.5z
		"/>
	<circle class="st17" cx="25.9" cy="138.7" r="6.3"/>
	<path class="st18" d="M21.5,130.8c0,0,3,0.1,3.7,1.4c0,0,1.9-2.5,3.3-2.6c0,0-1.1,1.2-1.3,1.9c0,0,2.9,0.4,3.6,1.2
		c0,0-3.1-0.2-3.6,0.7c0,0,0.6,1,0.7,1.8c0,0-1.5-0.6-1.9-1c0,0-0.9,0.7-2,0.9c0,0,0.6-0.7,0.3-1.3
		C24.3,133.7,21.7,131.4,21.5,130.8z"/>
	<circle class="st17" cx="12.6" cy="148.8" r="6.3"/>
	<path class="st18" d="M8.3,140.9c0,0,3,0.1,3.7,1.4c0,0,1.9-2.5,3.3-2.6c0,0-1.1,1.2-1.3,1.9c0,0,2.9,0.4,3.6,1.2
		c0,0-3.1-0.2-3.6,0.7c0,0,0.6,1,0.7,1.8c0,0-1.5-0.6-1.9-1c0,0-0.9,0.7-2,0.9c0,0,0.6-0.7,0.3-1.3C11.1,143.8,8.5,141.5,8.3,140.9z
		"/>
	<circle class="st17" cx="27.1" cy="149.3" r="6.3"/>
	<path class="st18" d="M22.7,141.4c0,0,3,0.1,3.7,1.4c0,0,1.9-2.5,3.3-2.6c0,0-1.1,1.2-1.3,1.9c0,0,2.9,0.4,3.6,1.2
		c0,0-3.1-0.2-3.6,0.7c0,0,0.6,1,0.7,1.8c0,0-1.5-0.6-1.9-1c0,0-0.9,0.7-2,0.9c0,0,0.6-0.7,0.3-1.3
		C25.6,144.3,22.9,142.1,22.7,141.4z"/>
	<circle class="st17" cx="10.4" cy="156.6" r="6.3"/>
	<path class="st18" d="M6.1,148.8c0,0,3,0.1,3.7,1.4c0,0,1.9-2.5,3.3-2.6c0,0-1.1,1.2-1.3,1.9c0,0,2.9,0.4,3.6,1.2
		c0,0-3.1-0.2-3.6,0.7c0,0,0.6,1,0.7,1.8c0,0-1.5-0.6-1.9-1c0,0-0.9,0.7-2,0.9c0,0,0.6-0.7,0.3-1.3C8.9,151.7,6.3,149.4,6.1,148.8z"
		/>
	<circle class="st17" cx="24.9" cy="157.2" r="6.3"/>
	<path class="st18" d="M20.5,149.3c0,0,3,0.1,3.7,1.4c0,0,1.9-2.5,3.3-2.6c0,0-1.1,1.2-1.3,1.9c0,0,2.9,0.4,3.6,1.2
		c0,0-3.1-0.2-3.6,0.7c0,0,0.6,1,0.7,1.8c0,0-1.5-0.6-1.9-1c0,0-0.9,0.7-2,0.9c0,0,0.6-0.7,0.3-1.3
		C23.4,152.2,20.7,149.9,20.5,149.3z"/>
	<circle class="st17" cx="39.3" cy="138.4" r="6.3"/>
	<path class="st18" d="M35,130.5c0,0,3,0.1,3.7,1.4c0,0,1.9-2.5,3.3-2.6c0,0-1.1,1.2-1.3,1.9c0,0,2.9,0.4,3.6,1.2
		c0,0-3.1-0.2-3.6,0.7c0,0,0.6,1,0.7,1.8c0,0-1.5-0.6-1.9-1c0,0-0.9,0.7-2,0.9c0,0,0.6-0.7,0.3-1.3C37.8,133.4,35.1,131.1,35,130.5z
		"/>
	<g>
		<path class="st19" d="M126.2,135.4c-0.4,0-0.7,0-1,0.1c0-0.2,0.1-0.4,0.1-0.7c0-2.1-1.7-3.9-3.9-3.9c-0.7,0-1.3,0.2-1.9,0.5
			c-0.7-0.4-1.5-0.6-2.4-0.6c-2.7,0-4.9,2.2-4.9,4.9c0,0.3,0,0.6,0.1,1c-1.6,1.1-2.6,2.9-2.6,4.9c0,2.9,2,5.2,4.7,5.8
			c0.5,2.7,2.9,4.8,5.8,4.8c3.3,0,5.9-2.7,5.9-5.9c0-0.3,0-0.7-0.1-1c0,0,0.1,0,0.1,0c2.7,0,4.9-2.2,4.9-4.9
			C131.1,137.6,128.9,135.4,126.2,135.4z"/>
		<path class="st19" d="M117.4,147.6c0,0,1.4,1.8,4.6-1.5"/>
		<path class="st19" d="M115.8,141.5c0,0,0.7,2.8,3.3,2"/>
		<path class="st19" d="M125.1,139.3c0,0,3.1,2,0,4.4"/>
		<path class="st19" d="M117.4,138.3c0,0,2.1-2.3,3,1"/>
		<path class="st19" d="M112.8,142.6c0,0,0.3-4,3-6"/>
		<path class="st19" d="M119.7,133.8c0,0,1.6-0.3,2.3,2.8"/>
		<path class="st19" d="M118.4,140.6c0,0,1,3.3,4.3,0.9"/>
		<path class="st19" d="M114.9,135.2c0,0,0.8-1.7,3.5,0"/>
		<path class="st19" d="M114.9,145.2c0,0,3.4,1.5,6.8-0.5"/>
	</g>
	<path class="st19" d="M114.5,146.3c-0.4,0-0.7,0-1,0.1c0-0.2,0.1-0.4,0.1-0.7c0-2.1-1.7-3.9-3.9-3.9c-0.7,0-1.3,0.2-1.9,0.5
		c-0.7-0.4-1.5-0.6-2.4-0.6c-2.7,0-4.9,2.2-4.9,4.9c0,0.3,0,0.6,0.1,1c-1.6,1.1-2.6,2.9-2.6,4.9c0,2.9,2,5.2,4.7,5.8
		c0.5,2.7,2.9,4.8,5.8,4.8c3.3,0,5.9-2.7,5.9-5.9c0-0.3,0-0.7-0.1-1c0,0,0.1,0,0.1,0c2.7,0,4.9-2.2,4.9-4.9
		C119.4,148.5,117.2,146.3,114.5,146.3z"/>
	<path class="st20" d="M105.7,158.5c0,0,1.4,1.8,4.6-1.5"/>
	<path class="st20" d="M104.1,152.4c0,0,0.7,2.8,3.3,2"/>
	<path class="st20" d="M113.4,150.2c0,0,3.1,2,0,4.4"/>
	<path class="st20" d="M105.7,149.2c0,0,2.1-2.3,3,1"/>
	<path class="st20" d="M101.1,153.5c0,0,0.3-4,3-6"/>
	<path class="st20" d="M108,144.7c0,0,1.6-0.3,2.3,2.8"/>
	<path class="st20" d="M106.7,151.5c0,0,1,3.3,4.3,0.9"/>
	<path class="st20" d="M103.2,146.1c0,0,0.8-1.7,3.5,0"/>
	<path class="st20" d="M103.2,156.1c0,0,3.4,1.5,6.8-0.5"/>
	<g>
		<path class="st19" d="M139.1,144.8c-0.4,0-0.8,0-1.1,0.1c0-0.2,0.1-0.5,0.1-0.7c0-2.4-1.9-4.3-4.3-4.3c-0.7,0-1.4,0.2-2.1,0.5
			c-0.8-0.4-1.7-0.7-2.6-0.7c-3,0-5.4,2.4-5.4,5.4c0,0.4,0,0.7,0.1,1.1c-1.7,1.2-2.8,3.2-2.8,5.4c0,3.2,2.2,5.8,5.2,6.4
			c0.6,3,3.2,5.3,6.4,5.3c3.6,0,6.6-2.9,6.6-6.6c0-0.4,0-0.8-0.1-1.1c0,0,0.1,0,0.1,0c3,0,5.4-2.4,5.4-5.4
			C144.5,147.2,142.1,144.8,139.1,144.8z"/>
		<path class="st19" d="M129.4,158.2c0,0,1.5,1.9,5.1-1.7"/>
		<path class="st19" d="M127.6,151.5c0,0,0.7,3.1,3.7,2.2"/>
		<path class="st19" d="M137.9,149.1c0,0,3.4,2.2,0,4.8"/>
		<path class="st19" d="M129.4,148c0,0,2.4-2.5,3.3,1.1"/>
		<path class="st19" d="M124.3,152.7c0,0,0.3-4.5,3.3-6.7"/>
		<path class="st19" d="M131.9,143c0,0,1.7-0.3,2.5,3"/>
		<path class="st19" d="M130.4,150.6c0,0,1.1,3.7,4.7,1"/>
		<path class="st19" d="M126.6,144.5c0,0,0.9-1.9,3.9,0"/>
		<path class="st19" d="M126.6,155.6c0,0,3.8,1.7,7.4-0.6"/>
	</g>
	<path class="st21" d="M54.6,137.6L54.6,137.6c2.1,1.1,1.3,5.8-1.4,8.3h0l-5.5,5.1c-0.2,0.2-0.5,0-0.5-0.3l1.3-7.4v0
		C49,139.6,52.4,136.4,54.6,137.6L54.6,137.6z"/>
	<path class="st20" d="M48.4,143.3c0,0,1.4,0.3,2.2,1.2"/>
	<path class="st20" d="M49.7,141.8c0,0,2.3,0,2.7,1.5"/>
	<path class="st20" d="M51.8,147.1c0,0-0.6-1.1-2-1"/>
	<path class="st20" d="M55.1,143.1c0,0-0.8-2.5-3.1-2.2"/>
	<path class="st20" d="M53.1,145.8c0,0-0.1-0.5-1.2-0.8"/>
	<path class="st20" d="M47.7,147.4c0,0,1.3,0,1.5,1"/>
	<path class="st22" d="M54.6,137.6c-0.3-0.1-0.5-0.4-0.6-0.7c-0.1-0.4-0.3-1-0.8-1.9c0,0,0.8,0.3,1,0.7c0.2,0.4,1.2-3.3,0.9-4.6
		c0,0,0.8,1.6,0.5,2.7c0,0,0,0.1,0,0.1c0,0,2-1.9,2.2-3.8c0,0-0.1,2.6-1.3,4.4c0,0,1.9-0.3,2.6-1.2c0,0-0.5,0.7-1.3,1.6
		c-0.2,0.3-0.5,0.5-0.7,0.7l-0.2,0.2c0,0,1,0,2,0.7c0,0-0.2,0-0.5,0c-0.7,0-1.4,0.2-2,0.6l0,0c0,0,1.8,0.8,2.5,1.6
		c0,0-3.2-0.8-3.4,0C55.4,138.5,55,137.8,54.6,137.6z"/>
	<path class="st21" d="M64.6,148.9L64.6,148.9c2.1,1.1,1.3,5.8-1.4,8.3h0l-5.5,5.1c-0.2,0.2-0.5,0-0.5-0.3l1.3-7.4v0
		C59,150.9,62.4,147.8,64.6,148.9L64.6,148.9z"/>
	<path class="st20" d="M58.4,154.6c0,0,1.4,0.3,2.2,1.2"/>
	<path class="st20" d="M59.7,153.2c0,0,2.3,0,2.7,1.5"/>
	<path class="st20" d="M61.8,158.5c0,0-0.6-1.1-2-1"/>
	<path class="st20" d="M65.1,154.4c0,0-0.8-2.5-3.1-2.2"/>
	<path class="st20" d="M63.1,157.2c0,0-0.1-0.5-1.2-0.8"/>
	<path class="st20" d="M57.7,158.7c0,0,1.3,0,1.5,1"/>
	<path class="st19" d="M64.6,148.9c-0.3-0.1-0.5-0.4-0.6-0.7c-0.1-0.4-0.3-1-0.8-1.9c0,0,0.8,0.3,1,0.7s1.2-3.3,0.9-4.6
		c0,0,0.8,1.6,0.5,2.7c0,0,0,0.1,0,0.1c0,0,2-1.9,2.2-3.8c0,0-0.1,2.6-1.3,4.4c0,0,1.9-0.3,2.6-1.2c0,0-0.5,0.7-1.3,1.6
		c-0.2,0.3-0.5,0.5-0.7,0.7l-0.2,0.2c0,0,1,0,2,0.7c0,0-0.2,0-0.5,0c-0.7,0-1.4,0.2-2,0.6l0,0c0,0,1.8,0.8,2.5,1.6
		c0,0-3.2-0.8-3.4,0C65.4,149.9,65,149.1,64.6,148.9z"/>
	<path class="st21" d="M48.1,150.6L48.1,150.6c2.1,1.1,1.3,5.8-1.4,8.3h0l-5.5,5.1c-0.2,0.2-0.5,0-0.5-0.3l1.3-7.4v0
		C42.6,152.6,46,149.5,48.1,150.6L48.1,150.6z"/>
	<path class="st20" d="M41.9,156.3c0,0,1.4,0.3,2.2,1.2"/>
	<path class="st20" d="M43.3,154.9c0,0,2.3,0,2.7,1.5"/>
	<path class="st20" d="M45.3,160.2c0,0-0.6-1.1-2-1"/>
	<path class="st20" d="M48.6,156.1c0,0-0.8-2.5-3.1-2.2"/>
	<path class="st20" d="M46.7,158.9c0,0-0.1-0.5-1.2-0.8"/>
	<path class="st20" d="M41.2,160.4c0,0,1.3,0,1.5,1"/>
	<path class="st19" d="M48.1,150.6c-0.3-0.1-0.5-0.4-0.6-0.7c-0.1-0.4-0.3-1-0.8-1.9c0,0,0.8,0.3,1,0.7c0.2,0.4,1.2-3.3,0.9-4.6
		c0,0,0.8,1.6,0.5,2.7c0,0,0,0.1,0,0.1c0,0,2-1.9,2.2-3.8c0,0-0.1,2.6-1.3,4.4c0,0,1.9-0.3,2.6-1.2c0,0-0.5,0.7-1.3,1.6
		c-0.2,0.3-0.5,0.5-0.7,0.7l-0.2,0.2c0,0,1,0,2,0.7c0,0-0.2,0-0.5,0c-0.7,0-1.4,0.2-2,0.6l0,0c0,0,1.8,0.8,2.5,1.6
		c0,0-3.2-0.8-3.4,0C49,151.6,48.6,150.8,48.1,150.6z"/>
	<path class="st21" d="M56.6,149.9L56.6,149.9c2.1,1.1,1.3,5.8-1.4,8.3h0l-5.5,5.1c-0.2,0.2-0.5,0-0.5-0.3l1.3-7.4l0,0
		C51.1,151.9,54.5,148.7,56.6,149.9L56.6,149.9z"/>
	<path class="st20" d="M50.4,155.6c0,0,1.4,0.3,2.2,1.2"/>
	<path class="st20" d="M51.8,154.1c0,0,2.3,0,2.7,1.5"/>
	<path class="st20" d="M53.8,159.4c0,0-0.6-1.1-2-1"/>
	<path class="st20" d="M57.1,155.4c0,0-0.8-2.5-3.1-2.2"/>
	<path class="st20" d="M55.2,158.2c0,0-0.1-0.5-1.2-0.8"/>
	<path class="st20" d="M49.7,159.7c0,0,1.3,0,1.5,1"/>
	<path class="st19" d="M56.6,149.9c-0.3-0.1-0.5-0.4-0.6-0.7c-0.1-0.4-0.3-1-0.8-1.9c0,0,0.8,0.3,1,0.7c0.2,0.4,1.2-3.3,0.9-4.6
		c0,0,0.8,1.6,0.5,2.7c0,0,0,0.1,0,0.1c0,0,2-1.9,2.2-3.8c0,0-0.1,2.6-1.3,4.4c0,0,1.9-0.3,2.6-1.2c0,0-0.5,0.7-1.3,1.6
		c-0.2,0.3-0.5,0.5-0.7,0.7l-0.2,0.2c0,0,1,0,2,0.7c0,0-0.2,0-0.5,0c-0.7,0-1.4,0.2-2,0.6l0,0c0,0,1.8,0.8,2.5,1.6
		c0,0-3.2-0.8-3.4,0C57.5,150.8,57.1,150.1,56.6,149.9z"/>
	<path class="st23" d="M159.3,144l-0.3,0.7l-0.8,0.7l-1.6,1l-1,0.4l-0.8,0.2l-1.5,0.2l-1.5-0.1l-1.7-0.4l-1.4-0.5l-1.3-1.3
		c0,0-0.8-1.4-0.9-1.8c-0.1-0.3-0.3-1.5-0.3-1.5l-0.1-2.2c0,0,0.3-2.8,0.4-3s0.5-2.1,0.5-2.1l0.9-2.6l1.5-0.3l0.7,0.7l3,1.6
		c0,0,4,1.9,4.9,1.7l0.9,0l0.9-0.2l0.7-0.2c0,0,0.5,0.1,0.6,0.3s0.2,0.5,0.1,0.8c-0.1,0.3-0.3,0.7-0.5,0.9s-0.5,0.6-0.5,0.6l0.7-0.4
		c0,0,0.3,0.3,0.3,0.4c0,0.1,0.1,1,0.1,1l-0.4,1.3l-0.4,0.7l-0.8,1l-1,0.7c0,0-1.7,1.1-1.9,1.1s0.9,0,0.9,0l0.9-0.2l0.2,0.2
		L159.3,144z"/>
	<path class="st20" d="M147.8,131.8l-0.6,1.8c0,0-5.1,13.9,6.1,13.5c2.1-0.1,4.1-0.9,5.6-2.4c0.3-0.3,0.4-0.7,0.4-0.8l-0.7-0.5
		c0,0-8.9,2.1-9.6-7.6l-0.3-2.6L147.8,131.8z"/>
	<path class="st20" d="M156.4,143.7c1.2-0.1,4.1-2.1,4.8-4.2c0.5-1.7-0.3-2.1-0.3-2.1c-9.8,4.8-11.3-4.4-11.3-4.4l-0.9,0.3"/>
	<line class="st24" x1="150" y1="132.3" x2="149.6" y2="133"/>
	<path class="st20" d="M147.8,131.8l1.5-0.3l0.7,0.7c0,0,7.3,4.3,9.6,3.1c1.7-0.9,2.3,1.2,0.3,2.5"/>
	<path class="st23" d="M171.4,143.5l-0.3,0.7l-0.8,0.7l-1.6,1l-1,0.4l-0.8,0.2l-1.5,0.2l-1.5-0.1l-1.7-0.4l-1.4-0.5l-1.3-1.3
		c0,0-0.8-1.4-0.9-1.8s-0.3-1.5-0.3-1.5l-0.1-2.2c0,0,0.3-2.8,0.4-3c0-0.2,0.5-2.1,0.5-2.1l0.9-2.6l1.5-0.3l0.7,0.7l3,1.6
		c0,0,4,1.9,4.9,1.7l0.9,0l0.9-0.2l0.7-0.2c0,0,0.5,0.1,0.6,0.3c0.1,0.2,0.2,0.5,0.1,0.8c-0.1,0.3-0.3,0.7-0.5,0.9
		c-0.2,0.2-0.5,0.6-0.5,0.6l0.7-0.4c0,0,0.3,0.3,0.3,0.4c0,0.1,0.1,1,0.1,1l-0.4,1.3l-0.4,0.7l-0.8,1l-1,0.7c0,0-1.7,1.1-1.9,1.1
		c-0.2,0,0.9,0,0.9,0l0.9-0.2l0.2,0.2L171.4,143.5z"/>
	<path class="st20" d="M160,131.4l-0.6,1.8c0,0-5.1,13.9,6.1,13.5c2.1-0.1,4.1-0.9,5.6-2.4c0.3-0.3,0.4-0.7,0.4-0.8l-0.7-0.5
		c0,0-8.9,2.1-9.6-7.6l-0.3-2.6L160,131.4z"/>
	<path class="st20" d="M168.6,143.2c1.2-0.1,4.1-2.1,4.8-4.2c0.5-1.7-0.3-2.1-0.3-2.1c-9.8,4.8-11.3-4.4-11.3-4.4l-0.9,0.3"/>
	<line class="st20" x1="162.2" y1="131.8" x2="161.7" y2="132.5"/>
	<path class="st20" d="M160,131.4l1.5-0.3l0.7,0.7c0,0,7.3,4.3,9.6,3.1c1.7-0.9,2.3,1.2,0.3,2.5"/>
	<path class="st23" d="M182.5,142.9l-0.3,0.7l-0.8,0.7l-1.6,1l-1,0.4l-0.8,0.2l-1.5,0.2l-1.5-0.1l-1.7-0.4l-1.4-0.5l-1.3-1.3
		c0,0-0.8-1.4-0.9-1.8c-0.1-0.3-0.3-1.5-0.3-1.5l-0.1-2.2c0,0,0.3-2.8,0.4-3c0-0.2,0.5-2.1,0.5-2.1l0.9-2.6l1.5-0.3l0.7,0.7l3,1.6
		c0,0,4,1.9,4.9,1.7l0.9,0l0.9-0.2l0.7-0.2c0,0,0.5,0.1,0.6,0.3s0.2,0.5,0.1,0.8c-0.1,0.3-0.3,0.7-0.5,0.9c-0.2,0.2-0.5,0.6-0.5,0.6
		l0.7-0.4c0,0,0.3,0.3,0.3,0.4c0,0.1,0.1,1,0.1,1l-0.4,1.3l-0.4,0.7l-0.8,1l-1,0.7c0,0-1.7,1.1-1.9,1.1s0.9,0,0.9,0l0.9-0.2l0.2,0.2
		L182.5,142.9z"/>
	<path class="st20" d="M171.1,130.8l-0.6,1.8c0,0-5.1,13.9,6.1,13.5c2.1-0.1,4.1-0.9,5.6-2.4c0.3-0.3,0.4-0.7,0.4-0.8l-0.7-0.5
		c0,0-8.9,2.1-9.6-7.6l-0.3-2.6L171.1,130.8z"/>
	<path class="st20" d="M179.7,142.6c1.2-0.1,4.1-2.1,4.8-4.2c0.5-1.7-0.3-2.1-0.3-2.1c-9.8,4.8-11.3-4.4-11.3-4.4l-0.9,0.3"/>
	<line class="st20" x1="173.3" y1="131.2" x2="172.8" y2="131.9"/>
	<path class="st20" d="M171.1,130.8l1.5-0.3l0.7,0.7c0,0,7.3,4.3,9.6,3.1c1.7-0.9,2.3,1.2,0.3,2.5"/>
	<path class="st23" d="M193.6,142.9l-0.3,0.7l-0.8,0.7l-1.6,1l-1,0.4l-0.8,0.2l-1.5,0.2l-1.5-0.1l-1.7-0.4l-1.4-0.5l-1.3-1.3
		c0,0-0.8-1.4-0.9-1.8c-0.1-0.3-0.3-1.5-0.3-1.5l-0.1-2.2c0,0,0.3-2.8,0.4-3c0-0.2,0.5-2.1,0.5-2.1l0.9-2.6l1.5-0.3l0.7,0.7l3,1.6
		c0,0,4,1.9,4.9,1.7l0.9,0l0.9-0.2l0.7-0.2c0,0,0.5,0.1,0.6,0.3s0.2,0.5,0.1,0.8c-0.1,0.3-0.3,0.7-0.5,0.9c-0.2,0.2-0.5,0.6-0.5,0.6
		l0.7-0.4c0,0,0.3,0.3,0.3,0.4c0,0.1,0.1,1,0.1,1l-0.4,1.3l-0.4,0.7l-0.8,1l-1,0.7c0,0-1.7,1.1-1.9,1.1s0.9,0,0.9,0l0.9-0.2l0.2,0.2
		L193.6,142.9z"/>
	<path class="st20" d="M182.2,130.8l-0.6,1.8c0,0-5.1,13.9,6.1,13.5c2.1-0.1,4.1-0.9,5.6-2.4c0.3-0.3,0.4-0.7,0.4-0.8l-0.7-0.5
		c0,0-8.9,2.1-9.6-7.6l-0.3-2.6L182.2,130.8z"/>
	<path class="st20" d="M190.8,142.6c1.2-0.1,4.1-2.1,4.8-4.2c0.5-1.7-0.3-2.1-0.3-2.1c-9.8,4.8-11.3-4.4-11.3-4.4l-0.9,0.3"/>
	<line class="st20" x1="184.4" y1="131.2" x2="183.9" y2="131.9"/>
	<path class="st20" d="M182.2,130.8l1.5-0.3l0.7,0.7c0,0,7.3,4.3,9.6,3.1c1.7-0.9,2.3,1.2,0.3,2.5"/>
	<path class="st23" d="M202.5,142.5l-0.3,0.7l-0.8,0.7l-1.6,1l-1,0.4l-0.8,0.2l-1.5,0.2l-1.5-0.1l-1.7-0.4l-1.4-0.5l-1.3-1.3
		c0,0-0.8-1.4-0.9-1.8c-0.1-0.3-0.3-1.5-0.3-1.5l-0.1-2.2c0,0,0.3-2.8,0.4-3s0.5-2.1,0.5-2.1l0.9-2.6l1.5-0.3l0.7,0.7l3,1.6
		c0,0,4,1.9,4.9,1.7l0.9,0l0.9-0.2l0.7-0.2c0,0,0.5,0.1,0.6,0.3c0.1,0.2,0.2,0.5,0.1,0.8c-0.1,0.3-0.3,0.7-0.5,0.9s-0.5,0.6-0.5,0.6
		l0.7-0.4c0,0,0.3,0.3,0.3,0.4c0,0.1,0.1,1,0.1,1l-0.4,1.3l-0.4,0.7l-0.8,1l-1,0.7c0,0-1.7,1.1-1.9,1.1s0.9,0,0.9,0l0.9-0.2l0.2,0.2
		L202.5,142.5z"/>
	<path class="st20" d="M191.1,130.4l-0.6,1.8c0,0-5.1,13.9,6.1,13.5c2.1-0.1,4.1-0.9,5.6-2.4c0.3-0.3,0.4-0.7,0.4-0.8l-0.7-0.5
		c0,0-8.9,2.1-9.6-7.6l-0.3-2.6L191.1,130.4z"/>
	<path class="st20" d="M199.7,142.2c1.2-0.1,4.1-2.1,4.8-4.2c0.5-1.7-0.3-2.1-0.3-2.1c-9.8,4.8-11.3-4.4-11.3-4.4l-0.9,0.3"/>
	<line class="st20" x1="193.3" y1="130.9" x2="192.8" y2="131.5"/>
	<path class="st20" d="M191.1,130.4l1.5-0.3l0.7,0.7c0,0,7.3,4.3,9.6,3.1c1.7-0.9,2.3,1.2,0.3,2.5"/>
	<path class="st23" d="M161.6,155.3l-0.3,0.7l-0.8,0.8l-1.6,1l-1,0.4l-0.9,0.2l-1.5,0.2l-1.6-0.1l-1.8-0.4l-1.4-0.5l-1.3-1.4
		c0,0-0.8-1.5-0.9-1.8c-0.1-0.4-0.4-1.5-0.4-1.5l-0.1-2.2c0,0,0.4-2.9,0.4-3.1c0-0.2,0.5-2.1,0.5-2.1l0.9-2.7l1.5-0.3l0.7,0.7
		l3.1,1.7c0,0,4.1,2,5,1.7l1,0l0.9-0.2l0.7-0.2c0,0,0.6,0.1,0.7,0.3s0.2,0.5,0.1,0.8c-0.1,0.3-0.3,0.7-0.5,0.9
		c-0.2,0.2-0.5,0.6-0.5,0.6l0.7-0.4c0,0,0.3,0.3,0.3,0.5c0,0.1,0.1,1,0.1,1l-0.4,1.4l-0.5,0.7l-0.9,1.1l-1,0.7c0,0-1.7,1.2-1.9,1.2
		c-0.2,0,0.9,0,0.9,0l0.9-0.2l0.2,0.2L161.6,155.3z"/>
	<path class="st20" d="M149.8,142.8l-0.6,1.8c0,0-5.3,14.3,6.3,13.9c2.1-0.1,4.2-0.9,5.7-2.5c0.3-0.3,0.4-0.7,0.4-0.9l-0.7-0.5
		c0,0-9.2,2.2-9.9-7.8l-0.3-2.7L149.8,142.8z"/>
	<path class="st20" d="M158.7,155c1.2-0.1,4.3-2.1,4.9-4.3c0.5-1.7-0.3-2.2-0.3-2.2c-10.1,5-11.7-4.6-11.7-4.6l-0.9,0.3"/>
	<line class="st24" x1="152.1" y1="143.3" x2="151.7" y2="144"/>
	<path class="st20" d="M149.8,142.8l1.5-0.3l0.8,0.8c0,0,7.5,4.4,9.9,3.2c1.7-0.9,2.3,1.2,0.3,2.6"/>
	<path class="st23" d="M174.2,154.8l-0.3,0.7l-0.8,0.8l-1.6,1l-1,0.4l-0.9,0.2l-1.5,0.2l-1.6-0.1l-1.8-0.4l-1.4-0.5l-1.3-1.4
		c0,0-0.8-1.5-0.9-1.8s-0.4-1.5-0.4-1.5l-0.1-2.2c0,0,0.4-2.9,0.4-3.1c0-0.2,0.5-2.1,0.5-2.1l0.9-2.7l1.5-0.3l0.7,0.7l3.1,1.7
		c0,0,4.1,2,5,1.7l1,0l0.9-0.2l0.7-0.2c0,0,0.6,0.1,0.7,0.3s0.2,0.5,0.1,0.8s-0.3,0.7-0.5,0.9c-0.2,0.2-0.5,0.6-0.5,0.6l0.7-0.4
		c0,0,0.3,0.3,0.3,0.5c0,0.1,0.1,1,0.1,1l-0.4,1.4l-0.5,0.7l-0.9,1.1l-1,0.7c0,0-1.7,1.2-1.9,1.2s0.9,0,0.9,0l0.9-0.2l0.2,0.2
		L174.2,154.8z"/>
	<path class="st20" d="M162.4,142.3l-0.6,1.8c0,0-5.3,14.3,6.3,13.9c2.1-0.1,4.2-0.9,5.7-2.5c0.3-0.3,0.4-0.7,0.4-0.9l-0.7-0.5
		c0,0-9.2,2.2-9.9-7.8l-0.3-2.7L162.4,142.3z"/>
	<path class="st20" d="M171.2,154.5c1.2-0.1,4.3-2.1,4.9-4.3c0.5-1.7-0.3-2.2-0.3-2.2c-10.1,5-11.7-4.6-11.7-4.6l-0.9,0.3"/>
	<line class="st20" x1="164.7" y1="142.8" x2="164.2" y2="143.5"/>
	<path class="st23" d="M173.5,161.1l-0.3,0.7l-0.8,0.7l-1.6,1l-1,0.4l-0.8,0.2l-1.5,0.2l-1.5-0.1l-1.7-0.4l-1.4-0.5l-1.3-1.3
		c0,0-0.8-1.4-0.9-1.8s-0.3-1.5-0.3-1.5l-0.1-2.2c0,0,0.3-2.8,0.4-3c0-0.2,0.5-2.1,0.5-2.1l0.9-2.6l1.5-0.3l0.7,0.7l3,1.6
		c0,0,4,1.9,4.9,1.7l0.9,0l0.9-0.2l0.7-0.2c0,0,0.5,0.1,0.6,0.3c0.1,0.2,0.2,0.5,0.1,0.8c-0.1,0.3-0.3,0.7-0.5,0.9s-0.5,0.6-0.5,0.6
		l0.7-0.4c0,0,0.3,0.3,0.3,0.4c0,0.1,0.1,1,0.1,1l-0.4,1.3l-0.4,0.7l-0.8,1l-1,0.7c0,0-1.7,1.1-1.9,1.1c-0.2,0,0.9,0,0.9,0l0.9-0.2
		l0.2,0.2L173.5,161.1z"/>
	<path class="st20" d="M162.1,149l-0.6,1.8c0,0-5.1,13.9,6.1,13.5c2.1-0.1,4.1-0.9,5.6-2.4c0.3-0.3,0.4-0.7,0.4-0.8l-0.7-0.5
		c0,0-8.9,2.1-9.6-7.6l-0.3-2.6L162.1,149z"/>
	<path class="st20" d="M170.7,160.8c1.2-0.1,4.1-2.1,4.8-4.2c0.5-1.7-0.3-2.1-0.3-2.1c-9.8,4.8-11.3-4.4-11.3-4.4l-0.9,0.3"/>
	<line class="st20" x1="164.3" y1="149.4" x2="163.8" y2="150.1"/>
	<path class="st20" d="M162.1,149l1.5-0.3l0.7,0.7c0,0,7.3,4.3,9.6,3.1c1.7-0.9,2.3,1.2,0.3,2.5"/>
	<path class="st20" d="M162.4,142.3l1.5-0.3l0.8,0.8c0,0,7.5,4.4,9.9,3.2c1.7-0.9,2.3,1.2,0.3,2.6"/>
	<path class="st23" d="M185.6,154.2l-0.3,0.7l-0.8,0.8l-1.6,1l-1,0.4l-0.9,0.2l-1.5,0.2l-1.6-0.1l-1.8-0.4l-1.4-0.5l-1.3-1.4
		c0,0-0.8-1.5-0.9-1.8c-0.1-0.4-0.4-1.5-0.4-1.5l-0.1-2.2c0,0,0.4-2.9,0.4-3.1s0.5-2.1,0.5-2.1l0.9-2.7l1.5-0.3l0.7,0.7l3.1,1.7
		c0,0,4.1,2,5,1.7l1,0l0.9-0.2l0.7-0.2c0,0,0.6,0.1,0.7,0.3s0.2,0.5,0.1,0.8c-0.1,0.3-0.3,0.7-0.5,0.9c-0.2,0.2-0.5,0.6-0.5,0.6
		l0.7-0.4c0,0,0.3,0.3,0.3,0.5c0,0.1,0.1,1,0.1,1l-0.4,1.4l-0.5,0.7l-0.9,1.1l-1,0.7c0,0-1.7,1.2-1.9,1.2c-0.2,0,0.9,0,0.9,0
		l0.9-0.2l0.2,0.2L185.6,154.2z"/>
	<path class="st20" d="M173.8,141.7l-0.6,1.8c0,0-5.3,14.3,6.3,13.9c2.1-0.1,4.2-0.9,5.7-2.5c0.3-0.3,0.4-0.7,0.4-0.9l-0.7-0.5
		c0,0-9.2,2.2-9.9-7.8l-0.3-2.7L173.8,141.7z"/>
	<path class="st20" d="M182.7,153.9c1.2-0.1,4.3-2.1,4.9-4.3c0.5-1.7-0.3-2.2-0.3-2.2c-10.1,5-11.7-4.6-11.7-4.6l-0.9,0.3"/>
	<line class="st20" x1="176.1" y1="142.2" x2="175.6" y2="142.9"/>
	<path class="st20" d="M173.8,141.7l1.5-0.3l0.8,0.8c0,0,7.5,4.4,9.9,3.2c1.7-0.9,2.3,1.2,0.3,2.6"/>
	<path class="st23" d="M197.1,154.2l-0.3,0.7l-0.8,0.8l-1.6,1l-1,0.4l-0.9,0.2l-1.5,0.2l-1.6-0.1l-1.8-0.4l-1.4-0.5l-1.3-1.4
		c0,0-0.8-1.5-0.9-1.8s-0.4-1.5-0.4-1.5l-0.1-2.2c0,0,0.4-2.9,0.4-3.1s0.5-2.1,0.5-2.1l0.9-2.7l1.5-0.3l0.7,0.7l3.1,1.7
		c0,0,4.1,2,5,1.7l1,0l0.9-0.2l0.7-0.2c0,0,0.6,0.1,0.7,0.3s0.2,0.5,0.1,0.8s-0.3,0.7-0.5,0.9c-0.2,0.2-0.5,0.6-0.5,0.6l0.7-0.4
		c0,0,0.3,0.3,0.3,0.5c0,0.1,0.1,1,0.1,1l-0.4,1.4l-0.5,0.7l-0.9,1.1l-1,0.7c0,0-1.7,1.2-1.9,1.2s0.9,0,0.9,0l0.9-0.2l0.2,0.2
		L197.1,154.2z"/>
	<path class="st20" d="M185.3,141.7l-0.6,1.8c0,0-5.3,14.3,6.3,13.9c2.1-0.1,4.2-0.9,5.7-2.5c0.3-0.3,0.4-0.7,0.4-0.9l-0.7-0.5
		c0,0-9.2,2.2-9.9-7.8l-0.3-2.7L185.3,141.7z"/>
	<path class="st20" d="M194.1,153.9c1.2-0.1,4.3-2.1,4.9-4.3c0.5-1.7-0.3-2.2-0.3-2.2c-10.1,5-11.7-4.6-11.7-4.6l-0.9,0.3"/>
	<line class="st20" x1="187.6" y1="142.2" x2="187.1" y2="142.9"/>
	<path class="st20" d="M185.3,141.7l1.5-0.3l0.8,0.8c0,0,7.5,4.4,9.9,3.2c1.7-0.9,2.3,1.2,0.3,2.6"/>
	<path class="st23" d="M206.2,153.8l-0.3,0.7l-0.8,0.8l-1.6,1l-1,0.4l-0.9,0.2l-1.5,0.2l-1.6-0.1l-1.8-0.4l-1.4-0.5l-1.3-1.4
		c0,0-0.8-1.5-0.9-1.8c-0.1-0.4-0.4-1.5-0.4-1.5l-0.1-2.2c0,0,0.4-2.9,0.4-3.1c0-0.2,0.5-2.1,0.5-2.1l0.9-2.7l1.5-0.3l0.7,0.7
		l3.1,1.7c0,0,4.1,2,5,1.7l1,0l0.9-0.2l0.7-0.2c0,0,0.6,0.1,0.7,0.3s0.2,0.5,0.1,0.8s-0.3,0.7-0.5,0.9c-0.2,0.2-0.5,0.6-0.5,0.6
		l0.7-0.4c0,0,0.3,0.3,0.3,0.5c0,0.1,0.1,1,0.1,1l-0.4,1.4l-0.5,0.7l-0.9,1.1l-1,0.7c0,0-1.7,1.2-1.9,1.2s0.9,0,0.9,0l0.9-0.2
		l0.2,0.2L206.2,153.8z"/>
	<path class="st20" d="M194.4,141.4l-0.6,1.8c0,0-5.3,14.3,6.3,13.9c2.1-0.1,4.2-0.9,5.7-2.5c0.3-0.3,0.4-0.7,0.4-0.9l-0.7-0.5
		c0,0-9.2,2.2-9.9-7.8l-0.3-2.7L194.4,141.4z"/>
	<path class="st20" d="M203.3,153.5c1.2-0.1,4.3-2.1,4.9-4.3c0.5-1.7-0.3-2.2-0.3-2.2c-10.1,5-11.7-4.6-11.7-4.6l-0.9,0.3"/>
	<line class="st20" x1="196.7" y1="141.8" x2="196.2" y2="142.5"/>
	<path class="st20" d="M194.4,141.4l1.5-0.3l0.8,0.8c0,0,7.5,4.4,9.9,3.2c1.7-0.9,2.3,1.2,0.3,2.6"/>
	<path class="st23" d="M188.8,160.5l-0.3,0.7l-0.8,0.8l-1.6,1l-1,0.4l-0.9,0.2l-1.5,0.2l-1.6-0.1l-1.8-0.4l-1.4-0.5l-1.3-1.4
		c0,0-0.8-1.5-0.9-1.8s-0.4-1.5-0.4-1.5l-0.1-2.2c0,0,0.4-2.9,0.4-3.1s0.5-2.1,0.5-2.1l0.9-2.7l1.5-0.3l0.7,0.7l3.1,1.7
		c0,0,4.1,2,5,1.7l1,0l0.9-0.2l0.7-0.2c0,0,0.6,0.1,0.7,0.3s0.2,0.5,0.1,0.8c-0.1,0.3-0.3,0.7-0.5,0.9c-0.2,0.2-0.5,0.6-0.5,0.6
		l0.7-0.4c0,0,0.3,0.3,0.3,0.5c0,0.1,0.1,1,0.1,1l-0.4,1.4l-0.5,0.7l-0.9,1.1l-1,0.7c0,0-1.7,1.2-1.9,1.2c-0.2,0,0.9,0,0.9,0
		l0.9-0.2l0.2,0.2L188.8,160.5z"/>
	<path class="st20" d="M177,148l-0.6,1.8c0,0-5.3,14.3,6.3,13.9c2.1-0.1,4.2-0.9,5.7-2.5c0.3-0.3,0.4-0.7,0.4-0.9l-0.7-0.5
		c0,0-9.2,2.2-9.9-7.8l-0.3-2.7L177,148z"/>
	<path class="st20" d="M185.8,160.2c1.2-0.1,4.3-2.1,4.9-4.3c0.5-1.7-0.3-2.2-0.3-2.2c-10.1,5-11.7-4.6-11.7-4.6l-0.9,0.3"/>
	<line class="st20" x1="179.3" y1="148.4" x2="178.8" y2="149.1"/>
	<path class="st20" d="M177,148l1.5-0.3l0.8,0.8c0,0,7.5,4.4,9.9,3.2c1.7-0.9,2.3,1.2,0.3,2.6"/>
	<path class="st23" d="M200.2,160.5l-0.3,0.7l-0.8,0.8l-1.6,1l-1,0.4l-0.9,0.2l-1.5,0.2l-1.6-0.1l-1.8-0.4l-1.4-0.5l-1.3-1.4
		c0,0-0.8-1.5-0.9-1.8s-0.4-1.5-0.4-1.5l-0.1-2.2c0,0,0.4-2.9,0.4-3.1s0.5-2.1,0.5-2.1l0.9-2.7l1.5-0.3l0.7,0.7l3.1,1.7
		c0,0,4.1,2,5,1.7l1,0l0.9-0.2l0.7-0.2c0,0,0.6,0.1,0.7,0.3s0.2,0.5,0.1,0.8c-0.1,0.3-0.3,0.7-0.5,0.9c-0.2,0.2-0.5,0.6-0.5,0.6
		l0.7-0.4c0,0,0.3,0.3,0.3,0.5c0,0.1,0.1,1,0.1,1l-0.4,1.4l-0.5,0.7l-0.9,1.1l-1,0.7c0,0-1.7,1.2-1.9,1.2c-0.2,0,0.9,0,0.9,0
		l0.9-0.2l0.2,0.2L200.2,160.5z"/>
	<path class="st20" d="M188.4,148l-0.6,1.8c0,0-5.3,14.3,6.3,13.9c2.1-0.1,4.2-0.9,5.7-2.5c0.3-0.3,0.4-0.7,0.4-0.9l-0.7-0.5
		c0,0-9.2,2.2-9.9-7.8l-0.3-2.7L188.4,148z"/>
	<path class="st20" d="M197.3,160.2c1.2-0.1,4.3-2.1,4.9-4.3c0.5-1.7-0.3-2.2-0.3-2.2c-10.1,5-11.7-4.6-11.7-4.6l-0.9,0.3"/>
	<line class="st20" x1="190.7" y1="148.4" x2="190.2" y2="149.1"/>
	<path class="st20" d="M188.4,148l1.5-0.3l0.8,0.8c0,0,7.5,4.4,9.9,3.2c1.7-0.9,2.3,1.2,0.3,2.6"/>
	<path class="st23" d="M209.4,160.1l-0.3,0.7l-0.8,0.8l-1.6,1l-1,0.4l-0.9,0.2l-1.5,0.2l-1.6-0.1l-1.8-0.4l-1.4-0.5l-1.3-1.4
		c0,0-0.8-1.5-0.9-1.8c-0.1-0.4-0.4-1.5-0.4-1.5l-0.1-2.2c0,0,0.4-2.9,0.4-3.1c0-0.2,0.5-2.1,0.5-2.1l0.9-2.7l1.5-0.3l0.7,0.7
		l3.1,1.7c0,0,4.1,2,5,1.7l1,0l0.9-0.2l0.7-0.2c0,0,0.6,0.1,0.7,0.3s0.2,0.5,0.1,0.8c-0.1,0.3-0.3,0.7-0.5,0.9
		c-0.2,0.2-0.5,0.6-0.5,0.6l0.7-0.4c0,0,0.3,0.3,0.3,0.5c0,0.1,0.1,1,0.1,1l-0.4,1.4l-0.5,0.7l-0.9,1.1l-1,0.7c0,0-1.7,1.2-1.9,1.2
		c-0.2,0,0.9,0,0.9,0l0.9-0.2l0.2,0.2L209.4,160.1z"/>
	<path class="st20" d="M197.6,147.6l-0.6,1.8c0,0-5.3,14.3,6.3,13.9c2.1-0.1,4.2-0.9,5.7-2.5c0.3-0.3,0.4-0.7,0.4-0.9l-0.7-0.5
		c0,0-9.2,2.2-9.9-7.8l-0.3-2.7L197.6,147.6z"/>
	<path class="st20" d="M206.4,159.8c1.2-0.1,4.3-2.1,4.9-4.3c0.5-1.7-0.3-2.2-0.3-2.2c-10.1,5-11.7-4.6-11.7-4.6l-0.9,0.3"/>
	<line class="st25" x1="199.9" y1="148" x2="199.4" y2="148.8"/>
	<path class="st20" d="M197.6,147.6l1.5-0.3l0.8,0.8c0,0,7.5,4.4,9.9,3.2c1.7-0.9,2.3,1.2,0.3,2.6"/>
	<circle class="st26" cx="219.2" cy="139.3" r="7.8"/>
	<path class="st27" d="M219.2,134.6c0,0-1.5-5.2-0.7-7.9"/>
	<path class="st28" d="M218.2,129.7c0,0,0.6-1.9,4.9-2.6C223.2,127.2,220.2,132.6,218.2,129.7z"/>
	<path class="st20" d="M216.8,134.6c0,0,3.7,1.2,6.3-0.2"/>
	<circle class="st26" cx="234.4" cy="139.3" r="7.8"/>
	<path class="st27" d="M234.4,134.6c0,0-1.5-5.2-0.7-7.9"/>
	<path class="st28" d="M233.5,129.7c0,0,0.6-1.9,4.9-2.6C238.4,127.2,235.4,132.6,233.5,129.7z"/>
	<path class="st20" d="M232.1,134.6c0,0,3.7,1.2,6.3-0.2"/>
	<circle class="st26" cx="250.2" cy="139.6" r="7.8"/>
	<path class="st27" d="M250.2,135c0,0-1.5-5.2-0.7-7.9"/>
	<path class="st28" d="M249.3,130.1c0,0,0.6-1.9,4.9-2.6C254.2,127.5,251.2,133,249.3,130.1z"/>
	<path class="st20" d="M247.9,135c0,0,3.7,1.2,6.3-0.2"/>
	<circle class="st26" cx="224.7" cy="151.3" r="7.8"/>
	<path class="st27" d="M224.7,146.7c0,0-1.5-5.2-0.7-7.9"/>
	<path class="st28" d="M223.7,141.8c0,0,0.6-1.9,4.9-2.6C228.7,139.3,225.7,144.7,223.7,141.8z"/>
	<path class="st20" d="M222.3,146.7c0,0,3.7,1.2,6.3-0.2"/>
	<circle class="st26" cx="239.9" cy="151.3" r="7.8"/>
	<path class="st27" d="M239.9,146.7c0,0-1.5-5.2-0.7-7.9"/>
	<path class="st28" d="M239,141.8c0,0,0.6-1.9,4.9-2.6C243.9,139.3,240.9,144.7,239,141.8z"/>
	<path class="st20" d="M237.6,146.7c0,0,3.7,1.2,6.3-0.2"/>
	<circle class="st26" cx="255.7" cy="151.7" r="7.8"/>
	<path class="st27" d="M255.7,147.1c0,0-1.5-5.2-0.7-7.9"/>
	<path class="st28" d="M254.8,142.2c0,0,0.6-1.9,4.9-2.6C259.7,139.6,256.7,145.1,254.8,142.2z"/>
	<path class="st20" d="M253.4,147.1c0,0,3.7,1.2,6.3-0.2"/>
	<circle class="st26" cx="234.4" cy="156" r="7.8"/>
	<path class="st27" d="M234.4,151.4c0,0-1.5-5.2-0.7-7.9"/>
	<path class="st28" d="M233.5,146.5c0,0,0.6-1.9,4.9-2.6C238.4,143.9,235.4,149.4,233.5,146.5z"/>
	<path class="st20" d="M232.1,151.4c0,0,3.7,1.2,6.3-0.2"/>
	<circle class="st26" cx="249.7" cy="156" r="7.8"/>
	<path class="st27" d="M249.7,151.4c0,0-1.5-5.2-0.7-7.9"/>
	<path class="st28" d="M248.7,146.5c0,0,0.6-1.9,4.9-2.6C253.6,143.9,250.6,149.4,248.7,146.5z"/>
	<path class="st20" d="M247.3,151.4c0,0,3.7,1.2,6.3-0.2"/>
	<circle class="st26" cx="265.5" cy="156.4" r="7.8"/>
	<path class="st27" d="M265.5,151.8c0,0-1.5-5.2-0.7-7.9"/>
	<path class="st28" d="M264.5,146.8c0,0,0.6-1.9,4.9-2.6C269.4,144.3,266.4,149.7,264.5,146.8z"/>
	<path class="st20" d="M263.1,151.8c0,0,3.7,1.2,6.3-0.2"/>
</g>
<g id="Слой_8">
	<polygon class="st29" points="120.1,149.5 123.4,149.8 124,148.9 127.4,150 129.9,150.6 130.7,149.7 130.7,147.1 129,146 
		125.4,144.8 121,143.5 119.8,145.1 117.6,147.4 116.6,148 118.4,148.9 	"/>
	<polygon class="st30" points="116.6,148 119.8,145.1 121,142.8 118.8,138.1 111.1,125.7 105.1,117.5 101,112.5 95.7,107.4 
		92.2,105.7 90.4,106.1 88.5,107.2 85.5,108.2 81.1,108.9 75.1,108.5 72.1,107.1 70.6,106 69.1,105.7 66.6,106.5 64.9,108.1 
		62,113.5 59,121 54.9,133.4 54,140.7 55,143.8 56.8,145.4 61.5,146.5 77.9,149.5 81.8,149.9 83.8,148.6 84.8,147.1 83.9,146.1 
		73.6,140 69.4,137.8 67.3,136.5 67.9,133.9 70.6,125.3 70.7,126.6 69.7,137.2 68.5,150 68.5,156 71.7,156.6 81.6,156.6 88.2,156.8 
		94.1,156.8 96.8,156.1 97.6,155.5 97.8,153.3 98,145.4 97.5,135.9 96.6,127.3 97.5,127.8 101,131.9 109.6,141.7 115.3,147.9 	"/>
	<polygon class="st29" points="82.3,149.7 85.9,151.2 90.4,152.5 92.2,152.9 94,152.8 95.3,152.1 96,151.3 95.8,150 94.6,148.9 
		92.2,147.8 90.2,147.3 91.4,146.5 92.9,144.9 91.4,144.9 84.8,145.7 83.9,146.1 84.8,147.1 84.4,148.2 83.2,149.3 	"/>
	<path class="st31" d="M70.6,94.6l-3.4,0h-4.9l-2.2-0.8c0,0-3.1-1.9-3.4-3.1S56,87.6,56,87.6l0.3-1.9l0.5-2.7l-0.2-4.5l-0.5-2.7
		l0.1-3.2l1.2-3.8l1.9-3l2.1-2l2-1.4l1.8-0.2l1.8,0.2l0.9-0.8l3-2l2.6-0.6l3.3,0.4l3.9,1.7l2.9,1.7l2.7,3.6l2.5,4.9l2.4,4.6l1.8,3.5
		l-0.3,5.1c0,0-0.6,1.5-1.3,2.2s-2.4,1.6-2.4,1.6l-1,0.9l-0.3-2.3l0.9-2.5l0.3-4.1l-2.8-1.6l-2.3-1.5L76.8,71l-5,1.7l-4.8,7
		l-2.5,4.1l2.8,2.6l2.4,4.6L70.6,94.6z"/>
	<polygon class="st29" points="87,107.4 85.5,108.2 81.5,108.9 76.9,108.9 73.4,108.2 73.4,107.4 74.6,105.1 75.1,101.8 74.9,97.9 
		71.4,94.7 67.5,89.9 66.6,90.1 64.4,89.5 62.6,87.6 62.1,85.8 62.5,84.6 62,81.5 62.9,79.9 65.6,78 68.5,75.7 70.6,73.1 71.1,71.6 
		70.8,68.1 71.8,68 77.4,68.7 79.2,69.8 81.5,72.7 82.9,75.2 84.8,77.1 86,78.1 87.5,77.9 88.5,78.9 88.7,81.5 88.4,84.6 87.5,86.6 
		87.5,88.5 87,92.9 85.4,97 85.6,99.5 86.4,106 	"/>
	<path class="st32" d="M89.2,226.4l4.2-2l2.4-1.4l0.5-11.7l0.5-55.2l-12.5,0.7L68.5,156l-8.8,38.6l-6,27l-0.8,4c0,0,0.4,1.3,1,1.5
		c0.6,0.2,3.9,1.2,3.9,1.2l3.7,1.1c0,0,1.8,0.1,2.2-0.7s8.3-20.8,8.3-20.8l5.3-16.3l5-11.8l0.6,0.1l1.5,25.7l1.2,18.7l0.7,1.5
		l0.9,0.8L89.2,226.4z"/>
	<polygon class="st33" points="87.1,226.6 88.8,229.1 90.5,230.1 94.8,229.5 97.6,229.4 103.3,229.5 107.7,229.5 109.5,228.7 
		109.7,227.7 108.3,226 106.2,225.2 95.8,223 93.4,224.4 89.8,225.8 	"/>
	<polygon class="st33" points="62.8,230.1 61,233.3 59.5,234.5 56.7,235.1 53.7,234.8 51.3,234.6 46.4,235.1 40,235.5 38.2,234.9 
		37,233.9 37.9,231.9 40.5,230.4 45.1,228.8 50.8,227.3 52.9,226.7 57,228.3 61.4,229.4 	"/>
	<path class="st34" d="M80.7,80.2c-0.3,0-0.6,0.2-0.7,0.4c-0.5,0-0.9,0.1-1.1,0.4c-0.1,0.1-0.1,0.2,0,0.3c0.4,0.5,1.3,0.5,1.9,0.5
		c0.4,0,0.7-0.2,0.8-0.6C81.7,80.7,81.3,80.2,80.7,80.2z"/>
	<path class="st34" d="M83.7,79.7c-0.5-0.1-1-0.3-1.4,0c-0.3,0.2-0.5,0.6-0.2,0.9c0,0,0,0,0,0c-0.1,0.1-0.2,0.2-0.3,0.4
		c-0.1,0.1-0.1,0.3,0,0.5c0,0.1,0.1,0.1,0.1,0.2c0.6,0.4,1.6-0.5,2-0.8C84.4,80.5,84.2,79.8,83.7,79.7z"/>
	<path class="st34" d="M72.4,83.1c-0.9-0.1-1.8,0.1-2.7,0.4c-0.4,0.1-0.5,0.6-0.4,0.9c-0.1,0-0.3,0.1-0.4,0.1
		c-0.2,0.1-0.3,0.4-0.1,0.5c1.1,1,3.1,0.1,4.1-0.7C73.3,83.9,73,83.2,72.4,83.1z"/>
</g>
<g id="Слой_7">
	<path class="st35" d="M91,169.3c0,0-2.9,2.1-6.1,6.6c-2.7,3.8-5.7,9.2-8.1,17.4c-4.3,14.7-10.6,29.9-12.7,35
		c-0.4,1-1.5,1.5-2.6,1.2l-7.2-2.2c-1-0.3-1.6-1.3-1.4-2.3l15.3-69c0,0,20.3,1.8,29,0c0,0-0.7,57-1.4,66c-0.1,0.6-0.4,1.2-1,1.5
		c-1.3,0.8-4.1,2.4-6.3,3c-1.7,0.5-3.1-1-3.1-2.8l-2.8-44.5"/>
	<path class="st35" d="M53.4,226.7c0,0-18.3,3.6-16.4,7.1s12.5,0.3,15.5,0.8s8.3,2.2,10.4-5.1"/>
	<path class="st35" d="M87.1,226.6c0,0,1,4,5.7,3.4s2.6-0.6,4.8-0.6c1.9,0,14.7,1.7,11.6-2.5c-0.6-0.8-1.5-1.3-2.5-1.6l-11-2.4"/>
	<line class="st35" x1="70.9" y1="124.8" x2="69.4" y2="137.2"/>
	<line class="st35" x1="68.7" y1="148.2" x2="68.3" y2="156"/>
	<path class="st35" d="M96.3,122.1c0,0,3.1,29,1,33.9"/>
	<path class="st35" d="M72.1,119.9c-0.3,0.4-6,20.1-6,20.1"/>
	<path class="st35" d="M96.7,127l17.8,20.4c0.7,0.8,2,0.9,2.8,0.2c1.5-1.3,3.4-3.4,3.6-4.8c0.2-2.2-23-40-30.2-36.9
		c-0.8,0.4-1.5,1-2.3,1.4c-3.4,1.3-11.5,3.7-17.1-0.6c0,0-5.1-5.5-10.6,9.5s-11,28.3-2.1,29.9c7.5,1.4,18.7,3.4,21.9,4
		c0.6,0.1,1.3,0,1.9-0.3c1-0.5,2.4-1.4,2.5-2.4c0.1-1.6-17.1-10.6-17.1-10.6"/>
	<path class="st35" d="M75,98.3c0,0,0.7,6.6-1.7,9.1"/>
	<path class="st35" d="M85.4,96.9c0,0,0.8,9.1,2.1,10.5"/>
	<path class="st35" d="M64.4,83.1c-0.5,0-4.3,3-0.6,5.6c3.4,2.4,3.8,1.2,3.8,1.2s12.3,18.1,18.1,6.7c0,0,2.1-6,1.9-9.8
		c0,0,3.8-10.4-1.5-8.8"/>
	<path class="st35" d="M63.8,85.8c0,0,1.9,0.6,2.7,1.4"/>
	<line class="st35" x1="64.4" y1="87.1" x2="65.6" y2="86.6"/>
	<path class="st35" d="M87,80.5c0,0-1.4,2.7-1.5,3.7"/>
	<line class="st35" x1="87.8" y1="82" x2="86.3" y2="82.7"/>
	<path class="st35" d="M66.4,81c0,0,2.2-2.6,5.3-2.1"/>
	<path class="st35" d="M77.9,77.1c0,0,2-1.3,5.1-0.3"/>
	<path class="st35" d="M74.2,79.9c0,0,3.2,4.8,1.2,7.4c0,0,1.6,0.7,2.9-0.3"/>
	<path class="st35" d="M75.4,92.3c0,0,5.4,3.4,7.6-2"/>
	<path class="st20" d="M78.5,96.1c0,0,2.5,0.9,3.9-0.8"/>
	<path class="st35" d="M78.8,81c-0.3,0,2.9-2.5,5.4-1.1"/>
	<path class="st35" d="M68.5,84.6c0,0,1.7-2.6,4.6-1.2"/>
	<circle cx="70.8" cy="84.2" r="1.1"/>
	<circle cx="81.8" cy="80.8" r="1.1"/>
	<path class="st35" d="M62.5,84.6c0,0-1.1-3.3,0-4.4c1.1-1.1,9-5.4,8.6-9.1s-3.5-10.6-8.4-8.1s-7.6,9.4-6.4,14.1s0.1,8.3-0.3,9.4
		c-0.4,1.1,0.7,8.1,7.2,8l8.1,0.2"/>
	<path class="st35" d="M87.5,89.5c0,0,5.9-2.3,5.3-7.5s-1.4-5.3-3-8s-5-10.7-6.9-11.5C80.8,61.6,72.7,55,66.6,63"/>
	<path class="st35" d="M70.8,68.1c0,0,7-1.1,9.3,2.7s3.9,6.4,6.2,6.6"/>
	<path class="st35" d="M121,143.5c0,0,6.3,1.9,8.7,2.8c1.5,0.5,1.3,2.3,1,3.5c-0.2,0.7-0.9,1-1.6,0.8c-1.6-0.5-4.4-1.7-5.8-0.8
		c-1.5,0.9-6.3-1.5-6.3-1.5"/>
	<path class="st27" d="M82.1,150c0,0,7.4,2.6,11.1,2.9c1,0.1,2-0.3,2.5-1.2c0.6-0.8,0.6-2.1-1.8-3.2c-2.7-1.3-6.4-1.6-6.4-1.6"/>
	<path class="st27" d="M84.3,145.8c0,0,8.2-1.2,8.7-0.8s-2.8,2.3-2.8,2.3"/>
	<line class="st20" x1="94.7" y1="152.1" x2="89.6" y2="150.8"/>
	<line class="st20" x1="95.7" y1="150.8" x2="90.4" y2="149.3"/>
	<path class="st20" d="M67.3,63.9c0,0-4.5,2.5-4.9,3.7c-0.1,0.4,0.3,0.6,0.8,0.6c1.4,0.1,2.8-0.8,3.3-2.1L67.3,63.9z"/>
	<path class="st20" d="M69.1,66.1c0,0-5,4.1-4.3,5.4c0.7,1.3,2.6-0.1,3.2-1.2c0.5-1,1.1-4.4,1.1-4.4"/>
	<path class="st20" d="M67.8,63.3c0,0,3.5-2.7,5.3-2C75,62,67.8,63.3,67.8,63.3z"/>
	<path class="st8" d="M69.5,65.7c0,0,3.9-1.9,5.1-0.8c1.3,1.1-5.1,1.1-5.1,1.1"/>
</g>
<g id="Слой_10">
	<g>
		<line class="st36" x1="151.2" y1="202.3" x2="138.9" y2="224.5"/>
		<line class="st36" x1="172.2" y1="200.2" x2="158.1" y2="224.5"/>
		<polygon class="st37" points="215.4,196 150.2,202.4 135.3,159.7 215.4,159.7 		"/>
		
			<rect x="131.9" y="150.3" transform="matrix(0.9427 -0.3336 0.3336 0.9427 -45.9703 53.7421)" class="st38" width="3.1" height="20.8"/>
		<line class="st36" x1="138.9" y1="224.5" x2="208.4" y2="224.5"/>
		<line class="st36" x1="144.2" y1="215.3" x2="200.8" y2="216"/>
		<line class="st36" x1="208.4" y1="224.5" x2="200.8" y2="216"/>
		<circle class="st39" cx="143" cy="231.5" r="6.6"/>
		<circle class="st39" cx="203.8" cy="231.6" r="6.6"/>
		<circle class="st26" cx="175.3" cy="189.8" r="8.4"/>
		<path class="st40" d="M175.3,184.8c0,0-1.6-5.6-0.8-8.5"/>
		<path class="st28" d="M174.3,179.5c0,0,0.6-2,5.3-2.7C179.6,176.7,176.4,182.6,174.3,179.5z"/>
		<path class="st41" d="M172.8,184.8c0,0,4,1.2,6.8-0.2"/>
		<path class="st42" d="M208.4,191.9h-10.4c-1.7,0-3.1-1.4-3.1-3.1v-21.7c0-1.7,1.4-3.1,3.1-3.1h10.4c1.7,0,3.1,1.4,3.1,3.1v21.7
			C211.6,190.5,210.2,191.9,208.4,191.9z"/>
		<path class="st43" d="M206.6,174.1h-6.7c-1.7,0-3.1-1.4-3.1-3.1v-0.5c0-1.7,1.4-3.1,3.1-3.1h6.7c1.7,0,3.1,1.4,3.1,3.1v0.5
			C209.7,172.7,208.3,174.1,206.6,174.1z"/>
		<circle class="st26" cx="189.3" cy="187.5" r="8.4"/>
		<path class="st40" d="M189.3,184.6c0,0-1.6-5.6-0.8-8.5"/>
		<path class="st28" d="M188.3,179.3c0,0,0.6-2,5.3-2.7C193.6,176.5,190.3,182.4,188.3,179.3z"/>
		<path class="st41" d="M186.7,184.6c0,0,4,1.2,6.8-0.2"/>
		<g>
			<path class="st44" d="M164.9,178.5v8.7h-14.5c-0.2,0-0.4,0-0.6,0v-8.7c0.2,0,0.4,0,0.6,0H164.9z"/>
			<path class="st45" d="M164.9,174.8v3.7h-14.5c-0.2,0-0.4,0-0.6,0v-3.7c0-2.9,1.7-5.5,4.1-6.7c1-0.5,2.2-0.8,3.4-0.8
				c1.4,0,2.6,0.4,3.7,1c0.6,0.3,1.1,0.7,1.6,1.2C164,170.8,164.9,172.7,164.9,174.8z"/>
			<path class="st45" d="M150.4,187.2h14.5v9c0,1-0.8,1.7-1.7,1.7h-11.6c-1,0-1.7-0.8-1.7-1.7v-9.1
				C150,187.2,150.2,187.2,150.4,187.2z"/>
			<path class="st45" d="M161,165.7v2.5c-1.1-0.6-2.4-1-3.7-1c-1.2,0-2.4,0.3-3.4,0.8v-2.3c0.1,0,0.2,0,0.4,0h6.4
				C160.8,165.8,160.9,165.8,161,165.7z"/>
			<line class="st46" x1="161" y1="165.7" x2="161" y2="165.7"/>
			<line class="st46" x1="153.9" y1="165.7" x2="153.9" y2="165.7"/>
			<path class="st44" d="M162.5,163.3v0.7c0,0.9-0.6,1.6-1.4,1.8c-0.1,0-0.2,0-0.4,0h-6.4c-0.1,0-0.3,0-0.4,0
				c-0.8-0.2-1.4-0.9-1.4-1.8v-0.7c0-1,0.8-1.8,1.8-1.8h6.4C161.7,161.5,162.5,162.3,162.5,163.3z"/>
		</g>
		<circle class="st17" cx="166.7" cy="180.6" r="6.8"/>
		<path class="st47" d="M162,172.1c0,0,3.2,0.1,4,1.5c0,0,2-2.7,3.6-2.8c0,0-1.2,1.3-1.4,2c0,0,3.1,0.4,3.8,1.3c0,0-3.3-0.2-3.9,0.8
			c0,0,0.7,1.1,0.7,1.9c0,0-1.6-0.6-2-1c0,0-1,0.7-2.2,1c0,0,0.6-0.8,0.4-1.4C165,175.3,162.2,172.8,162,172.1z"/>
		<circle class="st17" cx="162" cy="191.9" r="6.8"/>
		<path class="st18" d="M157.3,183.4c0,0,3.2,0.1,4,1.5c0,0,2-2.7,3.6-2.8c0,0-1.2,1.3-1.4,2c0,0,3.1,0.4,3.8,1.3
			c0,0-3.3-0.2-3.9,0.8c0,0,0.7,1.1,0.7,1.9c0,0-1.6-0.6-2-1c0,0-1,0.7-2.2,1c0,0,0.6-0.8,0.4-1.4
			C160.4,186.6,157.5,184.1,157.3,183.4z"/>
		<g>
			
				<ellipse transform="matrix(0.7844 -0.6202 0.6202 0.7844 -64.913 149.6418)" class="st48" cx="182.8" cy="168.2" rx="13" ry="6.9"/>
			<path class="st49" d="M176.5,169.1c0,0,4.8,4.4,6.2,5.6C182.6,174.7,182.6,167.9,176.5,169.1z"/>
			<path class="st49" d="M180.1,165.6c0,0,4.8,4.4,6.2,5.6C186.3,171.2,186.3,164.3,180.1,165.6z"/>
			<path class="st49" d="M184.3,162.5c0,0,4.8,4.4,6.2,5.6C190.4,168.1,190.4,161.2,184.3,162.5z"/>
		</g>
		<line class="st50" x1="140.9" y1="175.1" x2="215.4" y2="170.6"/>
		<line class="st50" x1="144.5" y1="183.8" x2="214.5" y2="178.4"/>
		<line class="st50" x1="146.8" y1="194.3" x2="215.4" y2="187.5"/>
		<line class="st50" x1="139" y1="167.8" x2="215.4" y2="164.3"/>
	</g>
</g>
</svg>
