<?xml version="1.0" encoding="utf-8"?>
<!-- Generator: Adobe Illustrator 22.1.0, SVG Export Plug-In . SVG Version: 6.00 Build 0)  -->
<svg version="1.1" xmlns="http://www.w3.org/2000/svg" xmlns:xlink="http://www.w3.org/1999/xlink" x="0px" y="0px"
	 viewBox="0 0 283.5 283.5" style="enable-background:new 0 0 283.5 283.5;" xml:space="preserve">
<style type="text/css">
	.st0{fill:#E7E6E8;}
	.st1{fill:#BBA9CD;}
	.st2{fill:#E8D4E7;}
	.st3{fill:#A08EAD;}
	.st4{fill:#DAD0E8;}
	.st5{fill:#F2E2E9;}
	.st6{fill:#AA878F;}
	.st7{fill:#6B4F57;}
	.st8{fill:#675C4A;}
	.st9{fill:#5F4A50;}
	.st10{fill:none;stroke:#000000;stroke-width:0.75;stroke-linecap:round;stroke-linejoin:round;stroke-miterlimit:10;}
	.st11{fill:#D1C6A3;}
	.st12{fill:#D8C1B2;}
	.st13{fill:#F8F0CB;}
	.st14{fill:#EAE2A5;}
	.st15{fill:#E0D6BD;}
	.st16{fill:#847679;}
	.st17{fill:none;stroke:#887277;stroke-width:0.5;stroke-miterlimit:10;}
	.st18{fill:#D3C696;}
	.st19{fill:none;}
	.st20{fill:#87795F;}
	.st21{fill:none;stroke:#000000;stroke-width:0.75;stroke-miterlimit:10;}
	.st22{fill:#C6C6C6;stroke:#000000;stroke-miterlimit:10;}
	.st23{fill:#575756;}
	.st24{fill:none;stroke:#232323;stroke-width:0.1971;stroke-miterlimit:10;}
	.st25{fill:none;stroke:#232323;stroke-width:0.1797;stroke-miterlimit:10;}
	.st26{fill:#DADADA;stroke:#3C3C3B;stroke-width:0.75;stroke-miterlimit:10;}
	.st27{fill:none;stroke:#000000;stroke-width:0.9744;stroke-miterlimit:10;}
	.st28{fill:none;stroke:#232323;stroke-width:0.25;stroke-miterlimit:10;}
</style>
<g id="Слой_1">
</g>
<g id="Слой_8">
	<path class="st0" d="M207.4,128.3C207.4,128.3,207.4,128.3,207.4,128.3l-9.9,18.6l-1,1.8l-0.9,1.7l-9.9,18.7l-3.4,2.6l-22,17.1
		L128.2,214l-17-3.5c0,0-3.2-0.9-6.9-1.9c-2.2-0.6-4.5-1.3-6.3-1.9l0,0c-1.8-0.6-3.1-1.1-3.5-1.4c0,0,0.1-0.1,0.2-0.2
		c2-1.2,11.2-10.5,21.5-23.3c0.1-0.2,0.3-0.3,0.4-0.5l9,2.4l10.5-13.4l-8.2-1.7c15.1-17,29.8-34.7,31-40.2H207.4z"/>
	<path class="st1" d="M136,170.2l-10.5,13.4l-9-2.4c3.7-4,7.5-8.3,11.3-12.7L136,170.2z"/>
	<path class="st2" d="M192.3,135.3l3.4-6.6c-8.3,0-19.2-0.1-27-0.2h-0.2l-4.2,5.3l-9.6-0.5l-27,35.2l-11.4,12.7l-0.4,0.5l9.1,2.4
		l1.8,0.5c0.1,0,0.1,0,0.1,0l14.7,3.8l1.9,0l16.8,0.4l12.3,0.3c0,0,6.9-10,11.7-16.5c2-2.7,3.6-4.9,4.3-5.5
		c0.9-0.9,4.4-7.9,8.1-15.8v0c0.1-0.1,0.1-0.2,0.2-0.4c0-0.1,0.1-0.2,0.1-0.2l0.1-0.2c2.4-5.1,4.8-10.4,6.7-14.5L192.3,135.3z
		 M125.5,183.6l-9-2.4c3.7-4,7.5-8.3,11.3-12.7l8.2,1.7L125.5,183.6z"/>
	<path class="st3" d="M207.4,128.3C207.4,128.3,207.4,128.3,207.4,128.3c-0.2,0.3-1.5,3.4-3.5,7.6l-11.6-0.6l3.4-6.6h0
		C201.8,128.7,206.5,128.6,207.4,128.3z"/>
	<path class="st4" d="M104.3,208.5l-9.9-3.4c0.7,0.4,20.9-21.2,21.7-23.5c0.3-1,9.4,1.9,9.4,1.9L104.3,208.5z"/>
	<path class="st5" d="M172.5,162.8l-9.3-4c0,0-8.3-4.4-4.6-8.6c0,0,0.5-3.6,0.5-5.4c0-1.7,4.2-5.4,7.7-3.2c3.5,2.2,4.4,1.8,4.4,1.8
		l5.1,2.2l3.5,4c0,0-2.5,2.8-4.2,4.3C173.8,155.5,172.5,162.8,172.5,162.8z"/>
	<path class="st6" d="M196.7,152.5l-8.4,19.8l-3.3,0.5l-4.4-1.9l-1.3-2.6l-2.4,1.1l-2-3.1l-2.5-3.5c0,0,0.4-8.4,7.3-13.2l-3.5-4
		l-2.6-1.1l-1.8-0.8l-1.9-0.5l-3.1-1.6c0,0-8.2-4.2-8.3,8.5c0,0-2.1,4.9,3.5,8.1l1.2,0.5l-3.5,0.5l-4.4-5.7c0,0-1.4-12.4,6-14.3
		c0,0,5.8-4.1,11.5-0.3c0,0,8.8,4.4,9.1,5.5s8.3,1.7,8.3,1.7l4.9,0.5l1.9,2.5L196.7,152.5z"/>
	<path class="st5" d="M174.6,143.1l0.4-1l2.8,2.4l2.6,1.1l-0.4-1.4c0,0-4.1-4-5.4-4.4c-1.2-0.3-1.2,1.2-1.2,1.2L174.6,143.1z"/>
	<polygon class="st5" points="176.7,159.7 178,159.2 179.2,156.3 178.3,155.9 177.5,157.8 	"/>
	<polygon class="st7" points="197,150.9 190.7,148.3 189.2,149.3 186.9,147.5 185.2,149.5 182.7,145.6 181.1,144.2 190.6,143.9 
		198.5,147.3 	"/>
	<path class="st3" d="M168.5,128.5l-4.2,5.3l-9.6-0.5l4-5C158.8,128.3,162.8,128.4,168.5,128.5z"/>
	<g>
		<polygon class="st8" points="141.4,169.1 137.6,176.7 129.6,172.6 134.3,165.5 		"/>
	</g>
	<g>
		<path class="st9" d="M200.2,134.9l0-0.9l1.7,0.1l0-0.9c-0.2,0.2-0.5,0.4-0.8,0.3c-0.4,0-0.7-0.1-0.8-0.4c-0.2-0.2-0.3-0.6-0.2-1.2
			l0-0.8c0-0.4,0.1-0.7,0.1-0.9c0-0.2,0.1-0.3,0.3-0.5c0.1-0.1,0.3-0.3,0.5-0.3c0.2-0.1,0.5-0.1,0.8-0.1c0.4,0,0.7,0.1,0.9,0.2
			c0.3,0.1,0.4,0.3,0.5,0.6c0.1,0.3,0.1,0.6,0.1,1.1l0,0.3l-1.4-0.1l0-0.3c0-0.4,0-0.6,0-0.8s-0.1-0.2-0.2-0.2c-0.1,0-0.1,0-0.2,0.1
			c0,0-0.1,0.1-0.1,0.1c0,0,0,0.3,0,0.6l-0.1,1.1c0,0.2,0,0.3,0,0.4c0,0.1,0.1,0.1,0.2,0.1c0.1,0,0.1,0,0.2-0.1s0.1-0.1,0.1-0.1
			c0,0,0-0.1,0-0.3l1.4,0.1l-0.2,2.8L200.2,134.9z"/>
		<path class="st9" d="M196,132.9l0.1-1.8c0-0.4,0.1-0.7,0.1-0.9c0.1-0.2,0.2-0.4,0.3-0.5c0.1-0.2,0.3-0.3,0.5-0.3
			c0.2-0.1,0.4-0.1,0.7-0.1c0.3,0,0.6,0.1,0.8,0.2s0.4,0.2,0.5,0.4c0.1,0.2,0.2,0.3,0.3,0.5c0,0.2,0.1,0.5,0,0.9l-0.1,1.9
			c0,0.5-0.1,0.9-0.2,1.1c-0.1,0.2-0.3,0.4-0.5,0.6c-0.3,0.1-0.6,0.2-1,0.2c-0.3,0-0.6-0.1-0.8-0.2c-0.2-0.1-0.4-0.3-0.5-0.4
			c-0.1-0.2-0.2-0.3-0.2-0.5S196,133.3,196,132.9z M197.4,133.4c0,0.3,0,0.5,0,0.6c0,0.1,0.1,0.1,0.2,0.1c0.1,0,0.2,0,0.2-0.1
			c0-0.1,0.1-0.3,0.1-0.5l0.1-2.7c0-0.3,0-0.5,0-0.6c0-0.1-0.1-0.1-0.2-0.1c-0.1,0-0.2,0-0.2,0.1c0,0.1-0.1,0.2-0.1,0.5L197.4,133.4
			z"/>
	</g>
	<g>
		<path class="st9" d="M161.9,133.6l0.1-0.7l1.4,0.2l0.1-0.8c-0.2,0.2-0.4,0.3-0.7,0.2c-0.3,0-0.5-0.1-0.7-0.3
			c-0.1-0.2-0.2-0.5-0.1-1l0.1-0.6c0-0.3,0.1-0.5,0.1-0.7s0.1-0.3,0.2-0.4c0.1-0.1,0.3-0.2,0.4-0.2c0.2,0,0.4-0.1,0.7,0
			c0.3,0,0.5,0.1,0.7,0.2c0.2,0.1,0.3,0.3,0.4,0.5c0.1,0.2,0.1,0.5,0,0.9l0,0.2l-1.1-0.1l0-0.3c0-0.3,0-0.5,0-0.6
			c0-0.1-0.1-0.2-0.2-0.2c-0.1,0-0.1,0-0.1,0c0,0-0.1,0.1-0.1,0.1c0,0,0,0.2-0.1,0.5l-0.1,0.9c0,0.2,0,0.3,0,0.3
			c0,0.1,0.1,0.1,0.2,0.1c0.1,0,0.1,0,0.1,0c0,0,0.1-0.1,0.1-0.1c0,0,0-0.1,0-0.2l1.1,0.1l-0.3,2.2L161.9,133.6z"/>
		<path class="st9" d="M158.6,131.7l0.2-1.5c0-0.3,0.1-0.6,0.1-0.7c0.1-0.1,0.1-0.3,0.3-0.4c0.1-0.1,0.3-0.2,0.4-0.2
			c0.2,0,0.4,0,0.6,0c0.3,0,0.5,0.1,0.7,0.2c0.2,0.1,0.3,0.2,0.4,0.3c0.1,0.1,0.1,0.3,0.2,0.4c0,0.1,0,0.4,0,0.7l-0.2,1.5
			c0,0.4-0.1,0.7-0.2,0.9c-0.1,0.2-0.3,0.3-0.5,0.4c-0.2,0.1-0.5,0.1-0.8,0.1c-0.2,0-0.5-0.1-0.6-0.2c-0.2-0.1-0.3-0.2-0.4-0.4
			c-0.1-0.1-0.1-0.3-0.1-0.4C158.6,132.3,158.6,132,158.6,131.7z M159.7,132.2c0,0.2,0,0.4,0,0.4c0,0.1,0.1,0.1,0.1,0.1
			c0.1,0,0.1,0,0.2-0.1c0-0.1,0.1-0.2,0.1-0.4l0.2-2.2c0-0.3,0-0.4,0-0.5c0-0.1-0.1-0.1-0.2-0.1c-0.1,0-0.1,0-0.2,0.1
			c0,0.1-0.1,0.2-0.1,0.4L159.7,132.2z"/>
	</g>
</g>
<g id="Слой_11">
	<path class="st10" d="M191.5,164.7l15.8-36.4h-48.5c0,0-55.7,72.3-64.5,76.8l16.8,5.3"/>
</g>
<g id="_x31_00">
	<path class="st0" d="M176.8,170.8c-0.4,0.2-0.9,0.4-1.3,0.5C176.1,171.1,176.5,170.9,176.8,170.8z"/>
	<path class="st0" d="M191.6,165.1c-0.3,0.1-0.7,0.3-1.2,0.5c7.1-3.2,13-6.7,17-9.3C202.7,159.3,196,163.4,191.6,165.1z"/>
	<path class="st0" d="M207.5,195.9c-2.5,1.1-8.2,3.7-15.4,7.2l11.3,8.3c12.9-6.5,29.6-15.3,41-23.3c-14.5,10.5-37.7,21.7-52.5,29.3
		c1.6-0.9,3.2-1.8,4.7-2.5l-10.8-8.5c-3.9,2-8,4.3-12.1,6.6l10.9,8.6c-11.3,7-20.5,15.5-25.8,20.9c0,0-0.1,0-0.1,0.1
		c-3.1,3.2-4.8,5.2-4.8,5.2l-0.4-0.3l-12.7-8.7l-25.3-17.4l-7.4-5.1c2.3-8.1,13.5-16.9,26.2-24.6c0.3-0.2,0.5-0.3,0.8-0.5
		c2.1-1.2,4.2-2.5,6.3-3.6l7.4,5.8c1.3-0.8,2.7-1.6,4-2.4c0,0,3.3-1.5,8.5-3.8l-7.7-6c1.8-0.9,3.5-1.7,5.2-2.5l8.2,6
		c9.2-4.2,21.4-9.8,31.8-15l1.4-2.1h2.8c9.1-4.7,16.2-8.8,17.8-11l-8-4l44.5,21.5l-9.5-3.8c0,0-17.3,16.6-36,24.1
		C210.9,194.8,208.4,195.5,207.5,195.9z"/>
	<path class="st11" d="M220.8,156.6c-1.5,2.2-8.7,6.3-17.8,11h-2.8l-1.4,2.1c-10.5,5.2-22.6,10.9-31.8,15l-8.2-6
		c4.7-2.2,8.9-4.1,12.2-5.5c0.8-0.3,1.5-0.7,2.3-1c0.2-0.1,0.3-0.1,0.5-0.2c0.1,0,0.3-0.1,0.4-0.2c0.4-0.1,0.7-0.3,1.1-0.4
		c0.1,0,0.2-0.1,0.3-0.1c0.4-0.2,0.9-0.4,1.3-0.5c0.3-0.1,0.5-0.2,0.7-0.3c0.1,0,0.2-0.1,0.2-0.1c0.1,0,0.1-0.1,0.2-0.1
		c4.4-1.4,8.5-3,12.3-4.8c0.5-0.2,0.9-0.3,1.2-0.5c4.5-1.6,11.1-5.7,15.8-8.8c0.2-0.1,0.4-0.2,0.5-0.4c2.4-1.5,4-2.7,4.6-3.1
		c0.2-0.1,0.3-0.2,0.3-0.2L220.8,156.6z"/>
	<path class="st12" d="M161.3,187.3c-5.2,2.3-8.5,3.8-8.5,3.8c-1.3,0.8-2.7,1.5-4,2.4l-7.4-5.8c4.1-2.3,8.3-4.4,12.2-6.4
		L161.3,187.3z"/>
	<path class="st13" d="M162.3,177.2c-1.1,0.5-2.3,1-3.4,1.6l8.2,6c-2.1,0.9-4,1.8-5.7,2.5l-7.7-6c-3.9,1.9-8.1,4.1-12.2,6.4l7.4,5.8
		c-15.3,9.5-29.4,23.8-33.4,28c-0.7,0.8-0.3-0.2-0.3-0.2l-7-4.8c3.7-8.5,14-17,26.2-24.6c0.3-0.2,0.5-0.3,0.8-0.5
		c5.9-3.6,12.3-7,18.5-10c5.6-2.8,11.1-5.3,16.2-7.5c-0.4,0.2-0.8,0.3-1.2,0.5c-1.4,0.6-3,1.3-4.7,2.1
		C163.4,176.6,162.8,176.9,162.3,177.2z"/>
	<path class="st14" d="M178,170.3c5.6-2.3,10-3.9,12.3-4.8C186.5,167.3,182.4,168.9,178,170.3z"/>
	<path class="st14" d="M200.2,167.6h2.8c-1.4,0.7-2.8,1.4-4.2,2.1L200.2,167.6z"/>
	<path class="st14" d="M212.5,152.8c-0.6,0.4-2.2,1.6-4.6,3.1C210.2,154.4,211.9,153.2,212.5,152.8z"/>
	<path class="st11" d="M257.3,174.1c-1.2,4.1-5.9,8.8-12.4,13.6c-0.2,0.1-0.4,0.3-0.6,0.4c-11.4,8-28.1,16.8-41,23.3l-11.3-8.3
		c7.2-3.6,12.9-6.2,15.4-7.2c0.9-0.4,3.4-1.1,4.3-1.5c18.7-7.5,36-24.1,36-24.1L257.3,174.1z"/>
	<path class="st12" d="M196.6,214.8c-1.5,0.8-3.1,1.6-4.7,2.5c0,0-0.1,0-0.1,0.1c-2.5,1.3-4.9,2.7-7.2,4.1l-10.9-8.6
		c4.1-2.4,8.2-4.6,12.1-6.6L196.6,214.8z"/>
	<path class="st13" d="M191.8,217.4c-2.3,1.3-4.6,2.8-7,4.4c-10.3,6.9-20.1,15.3-26,20.7c0,0-0.1,0-0.1,0.1
		c-2.7,2.5-4.6,4.3-5.3,4.9c-0.2,0.2-0.3,0.3-0.3,0.3l-12.8-8.5c0.1-0.2,0.2-0.4,0.4-0.5c6.3-8.9,19.7-18.2,32.9-25.8l10.9,8.6
		C186.8,220.1,189.3,218.7,191.8,217.4z"/>
	<path class="st13" d="M203.4,211.4c-2.4,1.2-4.7,2.4-6.8,3.4l-10.8-8.5c2.2-1.1,4.3-2.2,6.3-3.2L203.4,211.4z"/>
	<path class="st14" d="M257.3,174.1c-0.2,3.6-5.2,8.4-12.4,13.6C251.4,182.9,256.1,178.2,257.3,174.1z"/>
	<path class="st15" d="M216.8,175.8c0,0,4.8,3.5,7.7,3.7c2.9,0.1,0.9,3.7,0.9,3.7l-2.1,6.6c0,0-3.5,4.1-3.6,4.5s-2.1,0.6-2.1,0.6
		l0.4-4.3c0,0,1-3.5-1.2-4.6c-2.3-1.1-4.2-2-4.2-2s1.4-5.1,1.4-5.3s1.3-3.6,1.3-3.6L216.8,175.8z"/>
	<path class="st13" d="M198.6,181.9l-1.4-4.5c0,0,2-1.6,2.6-2.6s1.8-3.1,1.8-3.1l5-2.6l3.3,2.7c0,0,1.6,1.7,2-0.1s1.5-2,2.3-0.8
		s3.8,6.3,4.1,8.6s0.6,7.9-5.4,7.5S198.6,181.9,198.6,181.9z"/>
	<path class="st8" d="M217.7,175.5l-0.8,0.3l0,0l-2.1-3.8c0,0-2-2.5-2.6,0.1c-0.6,2.6-2,0.6-2,0.6h-3.9l0.4-1.9l-2.4-0.6l-1.9,3.1
		l-1.6,1.9l-1.7,0.5l-0.2,0.1v5.1l1.8,0.9l-0.3,1l0,0l1.8,0.8l0.5,0.2c0,0-4.4,0.5-5-0.8c-0.6-1.3-1.7-5.5-1.7-5.5l-1.4-2.5l1.5-2.6
		l2.3-0.7l0.7-2l1.4-2.1h5.1l2-0.6h4.4l2.1,2.6l3.3,3.9L217.7,175.5z"/>
	<polygon class="st8" points="207.8,161.6 240.2,180.7 244.3,177.4 211.9,158.2 	"/>
	<path class="st8" d="M224.4,179.9c0,0-6.8,6.6-6.8,12.4c0,5.8-2,6.9-2,6.9l11.5-4.3l12.1-9l-4.3-3.9c-1.6-1.4-3.4-2.4-5.4-3
		l-6.7-0.3L224.4,179.9z"/>
	<g>
		<path class="st16" d="M150.8,232l7.5,7.1l-1.8,1.9l-4-3.8c-0.6-0.5-0.9-0.9-1.1-0.9c-0.1-0.1-0.3-0.1-0.5,0
			c-0.2,0.1-0.5,0.3-0.9,0.7l-0.2,0.2l-0.9-0.8c0.7-1.1,0.9-2.1,0.8-3.2L150.8,232z"/>
		<path class="st16" d="M158.6,228.9l2.5,2.4c0.6,0.5,0.9,1,1.1,1.3c0.2,0.3,0.3,0.7,0.4,1.1c0,0.4,0,0.8-0.2,1.2
			c-0.2,0.4-0.4,0.7-0.7,1.1c-0.4,0.4-0.8,0.8-1.2,1c-0.4,0.2-0.8,0.3-1.2,0.2c-0.4,0-0.7-0.1-1-0.3c-0.3-0.2-0.7-0.5-1.3-1
			l-2.6-2.5c-0.7-0.7-1.1-1.2-1.4-1.6c-0.2-0.4-0.3-0.9-0.2-1.5c0.1-0.5,0.4-1.1,0.9-1.6c0.4-0.4,0.8-0.7,1.3-0.9
			c0.4-0.2,0.9-0.3,1.2-0.2c0.4,0,0.7,0.1,1,0.3S158,228.4,158.6,228.9z M156.2,230.2c-0.4-0.4-0.7-0.6-0.8-0.6
			c-0.1-0.1-0.3,0-0.4,0.1c-0.1,0.1-0.2,0.3-0.1,0.4s0.3,0.4,0.7,0.8l3.6,3.5c0.4,0.4,0.7,0.6,0.8,0.7c0.1,0,0.3,0,0.4-0.1
			c0.1-0.1,0.2-0.3,0.1-0.4c-0.1-0.1-0.3-0.4-0.6-0.7L156.2,230.2z"/>
		<path class="st16" d="M163.7,223.5l2.5,2.4c0.6,0.5,0.9,1,1.1,1.3c0.2,0.3,0.3,0.7,0.4,1.1c0,0.4,0,0.8-0.2,1.2
			c-0.2,0.4-0.4,0.7-0.7,1.1c-0.4,0.4-0.8,0.8-1.2,1s-0.8,0.3-1.2,0.2c-0.4,0-0.7-0.1-1-0.3c-0.3-0.2-0.7-0.5-1.3-1l-2.6-2.5
			c-0.7-0.6-1.1-1.2-1.4-1.6c-0.2-0.4-0.3-0.9-0.2-1.5c0.1-0.5,0.4-1.1,0.9-1.6c0.4-0.4,0.8-0.7,1.3-0.9c0.4-0.2,0.9-0.3,1.2-0.2
			c0.4,0,0.7,0.1,1,0.3C162.7,222.6,163.2,222.9,163.7,223.5z M161.3,224.8c-0.4-0.4-0.7-0.6-0.8-0.6c-0.1-0.1-0.3,0-0.4,0.1
			c-0.1,0.1-0.2,0.3-0.1,0.4c0.1,0.1,0.3,0.4,0.7,0.8l3.6,3.5c0.4,0.4,0.7,0.6,0.8,0.7c0.1,0,0.3,0,0.4-0.1c0.1-0.1,0.2-0.3,0.1-0.4
			c-0.1-0.1-0.3-0.4-0.6-0.7L161.3,224.8z"/>
	</g>
	
		<rect x="139.2" y="226.1" transform="matrix(0.649 -0.7608 0.7608 0.649 -124.5039 189.0068)" class="st17" width="6.7" height="6.7"/>
	<path class="st18" d="M160.9,177.7"/>
	<g>
		<path class="st0" d="M225.8,172.3l2.7-3.7l0.9,0.7l-1.4,2c-0.2,0.3-0.3,0.5-0.4,0.5s0,0.1,0,0.2c0,0.1,0.2,0.2,0.4,0.3l0.1,0.1
			l-0.3,0.4c-0.5-0.2-1-0.3-1.5-0.1L225.8,172.3z"/>
		<path class="st0" d="M223.2,168.5l0.9-1.2c0.2-0.3,0.4-0.5,0.5-0.6c0.1-0.1,0.3-0.2,0.5-0.2c0.2,0,0.4,0,0.5,0
			c0.2,0,0.3,0.1,0.5,0.3c0.2,0.2,0.4,0.3,0.5,0.5s0.2,0.3,0.2,0.5c0,0.2,0,0.3-0.1,0.5c0,0.1-0.2,0.4-0.4,0.6l-0.9,1.3
			c-0.2,0.3-0.5,0.6-0.6,0.7c-0.2,0.1-0.4,0.2-0.6,0.2c-0.2,0-0.5-0.1-0.7-0.3c-0.2-0.1-0.4-0.3-0.5-0.5c-0.1-0.2-0.2-0.4-0.2-0.5
			c0-0.2,0-0.3,0.1-0.5C222.9,169,223,168.8,223.2,168.5z M223.9,169.5c-0.1,0.2-0.2,0.3-0.2,0.4c0,0.1,0,0.1,0.1,0.2
			c0.1,0,0.1,0.1,0.2,0c0.1,0,0.2-0.2,0.3-0.3l1.3-1.8c0.2-0.2,0.2-0.4,0.3-0.4c0-0.1,0-0.1-0.1-0.2c-0.1,0-0.1-0.1-0.2,0
			c-0.1,0-0.2,0.1-0.3,0.3L223.9,169.5z"/>
		<path class="st0" d="M219.7,166.1l0.9-1.2c0.2-0.3,0.4-0.5,0.5-0.6c0.1-0.1,0.3-0.2,0.5-0.2c0.2,0,0.4,0,0.5,0
			c0.2,0,0.3,0.1,0.5,0.3c0.2,0.2,0.4,0.3,0.5,0.5s0.2,0.3,0.2,0.5c0,0.2,0,0.3-0.1,0.5c0,0.1-0.2,0.4-0.4,0.6l-0.9,1.3
			c-0.2,0.3-0.5,0.6-0.6,0.7c-0.2,0.1-0.4,0.2-0.6,0.2c-0.2,0-0.5-0.1-0.7-0.3c-0.2-0.1-0.4-0.3-0.5-0.5c-0.1-0.2-0.2-0.4-0.2-0.5
			c0-0.2,0-0.3,0.1-0.5C219.4,166.5,219.5,166.3,219.7,166.1z M220.4,167c-0.1,0.2-0.2,0.3-0.2,0.4s0,0.1,0.1,0.2
			c0.1,0,0.1,0.1,0.2,0c0.1,0,0.2-0.2,0.3-0.3l1.3-1.8c0.2-0.2,0.2-0.4,0.3-0.4c0-0.1,0-0.1-0.1-0.2s-0.1-0.1-0.2,0
			c-0.1,0-0.2,0.1-0.3,0.3L220.4,167z"/>
	</g>
	<polyline class="st19" points="184.5,221.6 184.8,221.8 185.8,222.6 	"/>
	<polyline class="st19" points="153.6,181.3 153.6,181.2 153.1,180.9 	"/>
	<polygon class="st20" points="170.4,187.9 163.6,192.3 157.2,186.5 164.5,182.4 	"/>
</g>
<g id="Слой_4">
	<path class="st21" d="M108.1,216.3l45.3,31.2c0,0,17.1-22.3,64.3-43.4c0,0,33.7-15.8,39.7-30l-44.8-21.3c0,0-18.5,13-32.4,16.7
		C166.3,173.2,109,202.7,108.1,216.3z"/>
</g>
<g id="Слой_5">
	<circle class="st22" cx="138.9" cy="105.4" r="23.3"/>
	<g>
		<path class="st23" d="M138.6,112.4c0.2-1.9,0.4-3.7,0.5-5.3c0.3-3.7-0.2-6-1.4-7.5c-1.3-1.6-3.1-1.8-4.5-0.7
			c-0.5,0.4-1.2,1.1-1.6,2.1l0.5-1.6l0.9,2.1c0.5,1.1,0.5,1.8,0,2.2c-0.4,0.4-1,0.4-1.5,0.2c-1.5-2.2-0.5-4.6,1.4-6.2
			c2.5-2,4.7-1.6,6.3,0.4c1.4,1.7,1.6,3.7,1.1,9.1c-0.1,1.1-0.3,2.8-0.5,4.5l-0.6-0.2l7.2-5.9l1.3,1.6l-8,6.5L138.6,112.4z"/>
	</g>
	<g>
		<path class="st23" d="M125.1,97.2c0,0.1,0,0.2,0.1,0.3c0,0.1,0,0.2,0.1,0.3c0,0.1,0.1,0.2,0.1,0.4c0,0.1,0.1,0.3,0.2,0.5
			c0.1,0.2,0.1,0.4,0.2,0.7c0.1,0.3,0.2,0.6,0.3,1c0,0.1,0.1,0.3,0.1,0.4c0,0.1,0,0.3,0,0.4c0,0.1,0,0.2-0.1,0.3
			c0,0.1-0.1,0.2-0.2,0.2c-0.2,0.1-0.4,0.2-0.6,0.1c-0.2-0.1-0.4-0.2-0.7-0.4l-0.1-0.8c0,0,0,0.1,0.1,0.1c0,0,0.1,0.1,0.1,0.1
			c0.1,0.1,0.1,0.2,0.2,0.3c0.1,0.1,0.2,0.2,0.3,0.2c0.1,0.1,0.2,0.1,0.3,0.1c0.1,0,0.2,0,0.2-0.1c0.1-0.1,0.1-0.1,0.1-0.3
			c0-0.1,0-0.3,0-0.4l-2.4-1.3c0,0-0.1,0-0.2-0.1c-0.1,0-0.1-0.1-0.2-0.1c-0.1,0-0.2,0-0.2-0.1c-0.1,0-0.1,0-0.2,0l0,0l0.8-0.6
			l2.1,1.1c-0.1-0.2-0.2-0.4-0.2-0.6c-0.1-0.2-0.2-0.4-0.2-0.6s-0.2-0.4-0.2-0.5c-0.1-0.2-0.1-0.3-0.1-0.4L125.1,97.2z"/>
		<path class="st23" d="M127.5,97.8l-0.3-2.2l0.5-0.4l0,0c0,0,0,0.1-0.1,0.1c0,0.1,0,0.1,0,0.3c0,0.1,0,0.3,0,0.5
			c0,0.2,0,0.5,0.1,0.9l1.8,1c0,0,0.1,0,0.1,0.1c0.1,0,0.1,0,0.2,0.1c0.1,0,0.1,0,0.2,0c0.1,0,0.1,0,0.1,0l0,0c0,0-0.1,0.1-0.1,0.1
			c-0.1,0.1-0.1,0.1-0.2,0.2c-0.1,0-0.1,0.1-0.2,0.1c-0.1,0-0.1,0.1-0.2,0.1c-0.1,0-0.1,0-0.2,0c-0.1,0-0.1,0-0.2-0.1l-1.2-0.7
			c0,0,0,0.1,0,0.1c0,0,0,0.1,0,0.1l0.9,1.1l-0.7,0.5l-1.9-2.5c0,0-0.1-0.1-0.1-0.1c-0.1,0-0.1-0.1-0.2-0.1c-0.1,0-0.1-0.1-0.2-0.1
			c-0.1,0-0.1,0-0.2,0l0,0l0.9-0.7L127.5,97.8z"/>
		<path class="st23" d="M129,94.1c0.2-0.1,0.3-0.2,0.5-0.3c0.2-0.1,0.3-0.1,0.5-0.1c0.1,0,0.3,0,0.4,0.1c0.1,0.1,0.2,0.1,0.3,0.3
			c0.1,0.1,0.2,0.3,0.2,0.4c0,0.2,0,0.3,0,0.5c0,0.2-0.1,0.3-0.2,0.5c-0.1,0.2-0.2,0.3-0.3,0.4l1,1.3l-0.7,0.5l-1.9-2.5
			c0,0-0.1-0.1-0.1-0.1c-0.1,0-0.1-0.1-0.2-0.1s-0.1-0.1-0.2-0.1c-0.1,0-0.1,0-0.2,0l0,0L129,94.1z M130.1,94.6
			c-0.1-0.2-0.3-0.3-0.4-0.3c-0.2,0-0.3,0-0.4,0.1l0.9,1.2c0.1,0,0.1-0.1,0.1-0.2c0-0.1,0-0.2,0-0.3c0-0.1,0-0.2-0.1-0.3
			C130.2,94.7,130.1,94.6,130.1,94.6z"/>
		<path class="st23" d="M133.9,95.2c-0.2-0.1-0.4-0.3-0.6-0.4c-0.2-0.1-0.4-0.3-0.6-0.4l-0.6,0.5l0.4,1.5l-0.4,0.3l0,0
			c0,0,0-0.1,0-0.1c0,0,0-0.1,0-0.2c0-0.1,0-0.3-0.1-0.4c0-0.2-0.1-0.4-0.2-0.8c-0.1-0.3-0.2-0.7-0.3-1.2c-0.1-0.5-0.3-1-0.4-1.7
			c0.5,0.4,1,0.8,1.5,1.1c0.5,0.4,1,0.7,1.5,1.1c0,0,0.1,0,0.1,0.1c0,0,0.1,0,0.1,0.1c0,0,0.1,0,0.1,0.1c0,0,0.1,0,0.1,0l0,0
			L133.9,95.2z M132,94.4l0.4-0.3c-0.2-0.2-0.5-0.4-0.7-0.5L132,94.4z"/>
		<path class="st23" d="M132.1,90.1c0,0,0.1,0,0.1,0c0,0,0.1,0,0.1,0c0,0,0.1,0,0.1,0.1c0,0,0.1,0.1,0.1,0.1c0,0,0.1,0.1,0.1,0.1
			c0,0,0,0.1,0,0.1c0,0,0,0.1,0,0.1c0,0,0,0.1-0.1,0.1c0,0-0.1,0-0.1,0c0,0-0.1,0-0.1,0c0,0-0.1,0-0.1-0.1c0,0-0.1-0.1-0.1-0.1
			c0,0-0.1-0.1-0.1-0.1c0,0,0-0.1,0-0.1c0,0,0-0.1,0-0.1C132,90.2,132.1,90.2,132.1,90.1z M132.6,89.7c0,0,0.1,0,0.1,0
			c0,0,0.1,0,0.1,0s0.1,0,0.1,0.1c0,0,0.1,0.1,0.1,0.1c0,0,0.1,0.1,0.1,0.1c0,0,0,0.1,0,0.1c0,0,0,0.1,0,0.1c0,0,0,0.1-0.1,0.1
			c0,0-0.1,0-0.1,0c0,0-0.1,0-0.1,0c0,0-0.1,0-0.1-0.1s-0.1-0.1-0.1-0.1c0,0-0.1-0.1-0.1-0.1c0,0,0-0.1,0-0.1c0,0,0-0.1,0-0.1
			C132.6,89.8,132.6,89.8,132.6,89.7z M135.9,93.6l-0.7,0.5l-1.9-2.5c0,0-0.1-0.1-0.1-0.1c-0.1,0-0.1-0.1-0.2-0.1
			c-0.1,0-0.1-0.1-0.2-0.1c-0.1,0-0.1,0-0.2,0l0,0l0.9-0.7L135.9,93.6z"/>
		<path class="st23" d="M136.6,90.5l-0.5,0.4l1.2,1.5l-0.7,0.5l-1.9-2.5c0,0-0.1-0.1-0.1-0.1c-0.1,0-0.1-0.1-0.2-0.1
			c-0.1,0-0.1-0.1-0.2-0.1c-0.1,0-0.1,0-0.2,0l0,0l0.9-0.7l1,1.2l0.5-0.4l-1-1.2l0.7-0.5l2.1,2.6c0,0,0.1,0.1,0.1,0.1
			c0,0,0.1,0.1,0.1,0.1c0,0,0.1,0.1,0.1,0.1c0,0,0.1,0,0.1,0l0,0l-0.8,0.6L136.6,90.5z"/>
		<path class="st23" d="M140.7,89.8c-0.2-0.1-0.4-0.3-0.6-0.4c-0.2-0.1-0.4-0.3-0.6-0.4l-0.6,0.5l0.4,1.5l-0.4,0.3l0,0
			c0,0,0-0.1,0-0.1c0,0,0-0.1,0-0.2c0-0.1,0-0.3-0.1-0.4c0-0.2-0.1-0.4-0.2-0.8c-0.1-0.3-0.2-0.7-0.3-1.2c-0.1-0.5-0.3-1-0.4-1.7
			c0.5,0.4,1,0.8,1.5,1.1c0.5,0.4,1,0.7,1.5,1.1c0,0,0.1,0,0.1,0.1c0,0,0.1,0,0.1,0.1c0,0,0.1,0,0.1,0.1c0,0,0.1,0,0.1,0l0,0
			L140.7,89.8z M138.8,89.1l0.4-0.3c-0.2-0.2-0.5-0.4-0.7-0.5L138.8,89.1z"/>
	</g>
	<g>
		<path class="st23" d="M137.7,118.8c-0.1-0.2-0.2-0.3-0.2-0.4c-0.1-0.1-0.1-0.2-0.2-0.2c-0.1,0-0.2-0.1-0.3-0.1c-0.1,0-0.3,0-0.6,0
			l0.1,4.5l-1.1,0l-0.1-4c0-0.1,0-0.1,0-0.2c0-0.1-0.1-0.2-0.1-0.3c0-0.1-0.1-0.2-0.1-0.2c0-0.1-0.1-0.1-0.2-0.1l0-0.1l3.3-0.1
			L137.7,118.8z"/>
		<path class="st23" d="M140.1,117.2c0.2-0.1,0.5-0.1,0.7-0.1c0.2,0,0.4,0,0.6,0.1c0.2,0.1,0.3,0.2,0.5,0.3c0.1,0.1,0.2,0.3,0.3,0.5
			s0.1,0.4,0,0.6c0,0.2-0.1,0.4-0.2,0.6c-0.1,0.2-0.3,0.3-0.4,0.5c-0.2,0.1-0.4,0.2-0.6,0.3l0.5,2l-1.1,0.3l-1-3.9
			c0-0.1,0-0.1-0.1-0.2c0-0.1-0.1-0.2-0.1-0.2c-0.1-0.1-0.1-0.1-0.2-0.2c-0.1-0.1-0.1-0.1-0.2-0.1l0-0.1L140.1,117.2z M141.1,118.3
			c-0.1-0.3-0.2-0.4-0.4-0.6c-0.2-0.1-0.3-0.1-0.5-0.1l0.5,1.9c0.1,0,0.2-0.1,0.2-0.2s0.1-0.2,0.2-0.3c0-0.1,0.1-0.2,0.1-0.4
			C141.2,118.5,141.1,118.4,141.1,118.3z"/>
		<path class="st23" d="M143,117.2c0,0-0.1-0.1-0.1-0.2c-0.1-0.1-0.1-0.1-0.2-0.2c-0.1-0.1-0.1-0.1-0.2-0.1c-0.1,0-0.1-0.1-0.2-0.1
			l0-0.1l1.3-0.7l1.3,2.4l0.4-3.5l2.1,3.9c0,0,0.1,0.1,0.1,0.1s0.1,0.1,0.1,0.1c0,0,0.1,0.1,0.1,0.1c0,0,0.1,0.1,0.1,0.1l0,0
			l-1.1,0.6l-1.3-2.4l-0.4,3.4L143,117.2z"/>
		<path class="st23" d="M146.9,114.9c0,0-0.1-0.1-0.2-0.1c-0.1,0-0.2-0.1-0.2-0.1c-0.1,0-0.2-0.1-0.3-0.1c-0.1,0-0.2,0-0.2,0l0-0.1
			l1-1c0.1-0.1,0.3-0.2,0.5-0.3c0.2-0.1,0.3-0.1,0.5-0.2c0.2,0,0.3,0,0.4,0c0.1,0,0.2,0.1,0.3,0.2c0,0.1,0.1,0.1,0.1,0.2
			c0,0.1,0.1,0.2,0.1,0.2c0,0.1,0,0.2,0,0.3c0,0.1,0,0.2-0.1,0.4c0.3-0.2,0.6-0.3,0.8-0.3c0.3,0,0.5,0.1,0.8,0.4
			c0.1,0.2,0.2,0.3,0.3,0.6c0.1,0.2,0.1,0.5,0,0.8c-0.1,0.3-0.2,0.6-0.4,1c-0.2,0.3-0.5,0.7-0.8,1L146.9,114.9z M150.1,116.7
			c0-0.1,0.1-0.3,0.1-0.4c0-0.1,0-0.3,0-0.4c0-0.1-0.1-0.3-0.1-0.4c-0.1-0.1-0.1-0.2-0.2-0.3c-0.1-0.2-0.3-0.3-0.5-0.3
			c-0.2-0.1-0.4-0.1-0.7,0c0-0.1,0-0.1,0-0.2c0-0.1,0-0.2-0.1-0.3c0-0.1-0.1-0.2-0.1-0.2c-0.1-0.1-0.1-0.2-0.2-0.2
			c-0.1-0.1-0.1-0.1-0.2-0.2c-0.1,0-0.1-0.1-0.2-0.1c-0.1,0-0.2,0-0.2,0c-0.1,0-0.1,0.1-0.2,0.1L150.1,116.7z"/>
		<path class="st23" d="M152.1,111.1l-0.5,0.7l2.1,1.4l-0.6,0.9l-3.4-2.2c0,0-0.1-0.1-0.2-0.1c-0.1,0-0.2-0.1-0.3-0.1
			c-0.1,0-0.2,0-0.3,0c-0.1,0-0.2,0-0.2,0l-0.1,0l0.8-1.3l1.7,1.1l0.5-0.7l-1.7-1.1l0.6-0.9l3.6,2.3c0,0,0.1,0.1,0.2,0.1
			c0.1,0,0.1,0.1,0.2,0.1c0.1,0,0.1,0,0.2,0c0.1,0,0.1,0,0.1,0l0,0l-0.7,1.1L152.1,111.1z"/>
		<path class="st23" d="M149.8,106.7c0-0.1,0.1-0.1,0.1-0.1c0.1,0,0.1,0,0.2-0.1c0.1,0,0.1,0,0.2,0c0.1,0,0.1,0,0.2,0
			c0.1,0,0.1,0.1,0.2,0.1c0.1,0,0.1,0.1,0.1,0.1c0,0,0.1,0.1,0.1,0.2c0,0.1,0,0.1,0,0.2c0,0.1-0.1,0.1-0.1,0.1c-0.1,0-0.1,0-0.2,0.1
			c-0.1,0-0.1,0-0.2,0c-0.1,0-0.1,0-0.2,0c-0.1,0-0.1-0.1-0.2-0.1c-0.1,0-0.1-0.1-0.1-0.1c0,0-0.1-0.1-0.1-0.2
			C149.8,106.8,149.8,106.8,149.8,106.7z M156.1,108.6l-0.4,1l-3.8-1.5c0,0-0.1,0-0.2,0c-0.1,0-0.2,0-0.3,0s-0.2,0-0.3,0
			c-0.1,0-0.1,0-0.2,0.1l-0.1,0l0.5-1.4L156.1,108.6z"/>
	</g>
	<path class="st24" d="M134.6,85.6c7.1-1.5,14.9,1,19.6,7.2c6.6,8.6,5.1,20.9-3.5,27.5c-8.6,6.6-20.9,5.1-27.5-3.5
		c-4.8-6.2-5.3-14.3-2-20.8"/>
	<path class="st24" d="M141,83.6c5.6,0.6,11,3.4,14.7,8.2c7.2,9.4,5.5,22.8-3.8,30c-9.4,7.2-22.8,5.5-30-3.8
		c-3.7-4.8-5.1-10.7-4.2-16.3"/>
	<circle class="st22" cx="81.9" cy="159.2" r="21.3"/>
	<g>
		<path class="st23" d="M69.3,152.7c0,0.1,0,0.2,0.1,0.2c0,0.1,0,0.2,0.1,0.3c0,0.1,0.1,0.2,0.1,0.3c0,0.1,0.1,0.3,0.1,0.4
			c0.1,0.2,0.1,0.4,0.2,0.6c0.1,0.2,0.2,0.5,0.3,0.9c0,0.1,0.1,0.2,0.1,0.4c0,0.1,0,0.2,0,0.3c0,0.1,0,0.2-0.1,0.3
			c0,0.1-0.1,0.2-0.2,0.2c-0.2,0.1-0.4,0.2-0.6,0.1c-0.2-0.1-0.4-0.2-0.6-0.4l-0.1-0.7c0,0,0,0.1,0.1,0.1c0,0,0.1,0.1,0.1,0.1
			c0.1,0.1,0.1,0.2,0.2,0.2c0.1,0.1,0.2,0.1,0.2,0.2c0.1,0.1,0.2,0.1,0.2,0.1c0.1,0,0.2,0,0.2,0c0.1-0.1,0.1-0.1,0.1-0.2
			c0-0.1,0-0.2,0-0.4l-2.2-1.2c0,0-0.1,0-0.1-0.1s-0.1-0.1-0.2-0.1c-0.1,0-0.1,0-0.2,0c-0.1,0-0.1,0-0.2,0l0,0l0.8-0.6l1.9,1
			c-0.1-0.2-0.1-0.4-0.2-0.5c-0.1-0.2-0.2-0.4-0.2-0.5c-0.1-0.2-0.1-0.3-0.2-0.5c-0.1-0.1-0.1-0.3-0.1-0.4L69.3,152.7z"/>
		<path class="st23" d="M71.5,153.2l-0.3-2l0.5-0.4l0,0c0,0,0,0.1,0,0.1c0,0,0,0.1,0,0.2c0,0.1,0,0.3,0,0.5c0,0.2,0,0.5,0,0.8
			l1.6,0.9c0,0,0.1,0,0.1,0.1c0,0,0.1,0,0.1,0.1c0,0,0.1,0,0.1,0c0,0,0.1,0,0.1,0l0,0c0,0-0.1,0.1-0.1,0.1s-0.1,0.1-0.2,0.2
			c0,0-0.1,0.1-0.2,0.1c-0.1,0-0.1,0.1-0.2,0.1c-0.1,0-0.1,0-0.2,0c-0.1,0-0.1,0-0.2-0.1l-1.1-0.6c0,0,0,0.1,0,0.1c0,0,0,0.1,0,0.1
			l0.8,1L72,155l-1.8-2.3c0,0-0.1-0.1-0.1-0.1c0,0-0.1-0.1-0.2-0.1c-0.1,0-0.1-0.1-0.2-0.1c-0.1,0-0.1,0-0.1,0l0,0l0.8-0.7
			L71.5,153.2z"/>
		<path class="st23" d="M72.9,149.9c0.1-0.1,0.3-0.2,0.4-0.2c0.1-0.1,0.3-0.1,0.4-0.1c0.1,0,0.3,0,0.4,0.1c0.1,0,0.2,0.1,0.3,0.2
			s0.2,0.2,0.2,0.4c0,0.1,0,0.3,0,0.4c0,0.1-0.1,0.3-0.2,0.4c-0.1,0.1-0.2,0.3-0.3,0.4l0.9,1.2l-0.6,0.5l-1.8-2.3
			c0,0-0.1-0.1-0.1-0.1c0,0-0.1-0.1-0.2-0.1c-0.1,0-0.1-0.1-0.2-0.1c-0.1,0-0.1,0-0.1,0l0,0L72.9,149.9z M73.8,150.3
			c-0.1-0.2-0.3-0.2-0.4-0.3c-0.1,0-0.3,0-0.4,0.1l0.9,1.1c0.1,0,0.1-0.1,0.1-0.2c0-0.1,0-0.2,0-0.2c0-0.1,0-0.2-0.1-0.3
			C74,150.4,73.9,150.3,73.8,150.3z"/>
		<path class="st23" d="M77.4,150.8c-0.2-0.1-0.4-0.3-0.5-0.4s-0.4-0.3-0.5-0.4l-0.5,0.4l0.4,1.3l-0.4,0.3l0,0c0,0,0,0,0-0.1
			c0,0,0-0.1,0-0.2c0-0.1,0-0.2-0.1-0.4c0-0.2-0.1-0.4-0.2-0.7c-0.1-0.3-0.2-0.6-0.3-1.1c-0.1-0.4-0.2-0.9-0.4-1.5
			c0.4,0.3,0.9,0.7,1.3,1c0.4,0.3,0.9,0.7,1.4,1c0,0,0.1,0,0.1,0.1c0,0,0.1,0,0.1,0.1c0,0,0.1,0,0.1,0c0,0,0.1,0,0.1,0l0,0
			L77.4,150.8z M75.6,150.2l0.4-0.3c-0.2-0.2-0.4-0.3-0.6-0.5L75.6,150.2z"/>
		<path class="st23" d="M75.7,146.2c0,0,0.1,0,0.1,0c0,0,0.1,0,0.1,0c0,0,0.1,0,0.1,0.1c0,0,0.1,0.1,0.1,0.1c0,0,0,0.1,0.1,0.1
			c0,0,0,0.1,0,0.1c0,0,0,0.1,0,0.1c0,0,0,0.1-0.1,0.1c0,0-0.1,0-0.1,0c0,0-0.1,0-0.1,0c0,0-0.1,0-0.1-0.1c0,0-0.1-0.1-0.1-0.1
			c0,0,0-0.1-0.1-0.1c0,0,0-0.1,0-0.1c0,0,0-0.1,0-0.1C75.6,146.3,75.7,146.3,75.7,146.2z M76.2,145.9c0,0,0.1,0,0.1,0
			c0,0,0.1,0,0.1,0c0,0,0.1,0,0.1,0.1c0,0,0.1,0.1,0.1,0.1c0,0,0,0.1,0.1,0.1c0,0,0,0.1,0,0.1c0,0,0,0.1,0,0.1c0,0,0,0.1-0.1,0.1
			c0,0-0.1,0-0.1,0c0,0-0.1,0-0.1,0c0,0-0.1,0-0.1-0.1c0,0-0.1-0.1-0.1-0.1c0,0,0-0.1-0.1-0.1c0,0,0-0.1,0-0.1c0,0,0-0.1,0-0.1
			C76.1,145.9,76.2,145.9,76.2,145.9z M79.2,149.4l-0.6,0.5l-1.8-2.3c0,0-0.1-0.1-0.1-0.1c0,0-0.1-0.1-0.2-0.1s-0.1-0.1-0.2-0.1
			c-0.1,0-0.1,0-0.1,0l0,0l0.8-0.7L79.2,149.4z"/>
		<path class="st23" d="M79.8,146.6l-0.5,0.4l1.1,1.4l-0.6,0.5l-1.8-2.3c0,0-0.1-0.1-0.1-0.1c0,0-0.1-0.1-0.2-0.1
			c-0.1,0-0.1-0.1-0.2-0.1c-0.1,0-0.1,0-0.1,0l0,0l0.8-0.7l0.9,1.1l0.5-0.4l-0.9-1.1l0.6-0.5l1.9,2.4c0,0,0,0.1,0.1,0.1
			c0,0,0.1,0.1,0.1,0.1c0,0,0.1,0,0.1,0.1c0,0,0.1,0,0.1,0l0,0l-0.7,0.6L79.8,146.6z"/>
		<path class="st23" d="M83.6,146c-0.2-0.1-0.4-0.3-0.5-0.4c-0.2-0.1-0.4-0.3-0.5-0.4l-0.5,0.4l0.4,1.3l-0.4,0.3l0,0c0,0,0,0,0-0.1
			c0,0,0-0.1,0-0.2c0-0.1,0-0.2-0.1-0.4c0-0.2-0.1-0.4-0.2-0.7c-0.1-0.3-0.2-0.6-0.3-1.1c-0.1-0.4-0.2-0.9-0.4-1.5
			c0.4,0.3,0.9,0.7,1.3,1c0.4,0.3,0.9,0.7,1.4,1c0,0,0.1,0,0.1,0.1c0,0,0.1,0,0.1,0.1c0,0,0.1,0,0.1,0c0,0,0.1,0,0.1,0l0,0L83.6,146
			z M81.9,145.3l0.4-0.3c-0.2-0.2-0.4-0.3-0.6-0.5L81.9,145.3z"/>
	</g>
	<g>
		<path class="st23" d="M77.6,152.7l0.4,0l2,2.6l4.2,5.2c1,1.2,2.1,2.5,3.1,3.7l-1.5,1.3c-1-1.3-2-2.6-3-3.8l-5.3-6.4l-2.2,2.2
			l-0.6-0.7L77.6,152.7z M89.4,161.4l0.5,0.6l-6.6,5.4l-0.5-0.6l2.2-2.5l1.4-1.2L89.4,161.4z"/>
	</g>
	<g>
		<path class="st23" d="M81.2,172.5c-0.1-0.2-0.2-0.3-0.2-0.4c-0.1-0.1-0.1-0.2-0.2-0.2c-0.1,0-0.2-0.1-0.3-0.1c-0.1,0-0.3,0-0.5,0
			L80,176l-1,0l-0.1-3.7c0,0,0-0.1,0-0.2c0-0.1,0-0.2-0.1-0.2c0-0.1-0.1-0.2-0.1-0.2c0-0.1-0.1-0.1-0.1-0.1l0-0.1l3-0.1L81.2,172.5z
			"/>
		<path class="st23" d="M83.3,171c0.2,0,0.4-0.1,0.6-0.1c0.2,0,0.4,0,0.5,0.1c0.2,0.1,0.3,0.1,0.4,0.3c0.1,0.1,0.2,0.3,0.2,0.5
			s0.1,0.4,0,0.6c0,0.2-0.1,0.4-0.2,0.5c-0.1,0.2-0.2,0.3-0.4,0.4c-0.2,0.1-0.4,0.2-0.6,0.3l0.5,1.9l-1,0.2l-0.9-3.6
			c0,0,0-0.1-0.1-0.2c0-0.1-0.1-0.1-0.1-0.2c-0.1-0.1-0.1-0.1-0.2-0.2c-0.1-0.1-0.1-0.1-0.2-0.1l0-0.1L83.3,171z M84.2,172
			c-0.1-0.2-0.2-0.4-0.3-0.5c-0.2-0.1-0.3-0.1-0.5-0.1l0.4,1.7c0.1,0,0.2-0.1,0.2-0.2c0.1-0.1,0.1-0.2,0.1-0.3c0-0.1,0-0.2,0.1-0.4
			C84.3,172.2,84.2,172.1,84.2,172z"/>
		<path class="st23" d="M85.9,171.1c0,0-0.1-0.1-0.1-0.2c-0.1-0.1-0.1-0.1-0.2-0.2c-0.1-0.1-0.1-0.1-0.2-0.1s-0.1-0.1-0.2-0.1l0-0.1
			l1.2-0.6l1.2,2.2l0.4-3.2l1.9,3.6c0,0,0.1,0.1,0.1,0.1c0,0,0.1,0.1,0.1,0.1c0,0,0.1,0.1,0.1,0.1c0,0,0.1,0.1,0.1,0.1l0,0l-1,0.6
			l-1.2-2.2l-0.4,3.1L85.9,171.1z"/>
		<path class="st23" d="M89.4,169c0,0-0.1-0.1-0.1-0.1c-0.1,0-0.1-0.1-0.2-0.1c-0.1,0-0.2-0.1-0.2-0.1c-0.1,0-0.1,0-0.2,0l0,0
			l0.9-0.9c0.1-0.1,0.3-0.2,0.4-0.3c0.1-0.1,0.3-0.1,0.4-0.1c0.1,0,0.3,0,0.4,0c0.1,0,0.2,0.1,0.3,0.2c0,0,0.1,0.1,0.1,0.2
			c0,0.1,0.1,0.1,0.1,0.2c0,0.1,0,0.2,0,0.3c0,0.1,0,0.2-0.1,0.3c0.3-0.2,0.5-0.3,0.8-0.3c0.2,0,0.5,0.1,0.7,0.4
			c0.1,0.1,0.2,0.3,0.3,0.5c0.1,0.2,0,0.5,0,0.7c-0.1,0.3-0.2,0.6-0.4,0.9c-0.2,0.3-0.4,0.6-0.8,0.9L89.4,169z M92.3,170.7
			c0-0.1,0.1-0.2,0.1-0.4c0-0.1,0-0.2,0-0.4c0-0.1-0.1-0.2-0.1-0.3c-0.1-0.1-0.1-0.2-0.2-0.3c-0.1-0.1-0.3-0.2-0.5-0.3
			c-0.2-0.1-0.4-0.1-0.6,0c0-0.1,0-0.1,0-0.2c0-0.1,0-0.2-0.1-0.2c0-0.1-0.1-0.2-0.1-0.2c0-0.1-0.1-0.1-0.2-0.2
			c-0.1-0.1-0.1-0.1-0.2-0.2c-0.1,0-0.1-0.1-0.2-0.1c-0.1,0-0.1,0-0.2,0c-0.1,0-0.1,0-0.2,0.1L92.3,170.7z"/>
		<path class="st23" d="M94.2,165.7l-0.4,0.7l1.9,1.3l-0.6,0.8l-3.1-2c0,0-0.1-0.1-0.2-0.1c-0.1,0-0.2,0-0.2-0.1c-0.1,0-0.2,0-0.2,0
			c-0.1,0-0.1,0-0.2,0l-0.1,0l0.8-1.1l1.5,1l0.4-0.7l-1.5-1l0.6-0.8l3.3,2.2c0,0,0.1,0.1,0.1,0.1s0.1,0,0.2,0.1c0.1,0,0.1,0,0.2,0
			c0,0,0.1,0,0.1,0l0,0l-0.6,1L94.2,165.7z"/>
		<path class="st23" d="M96.6,161.8C96.6,161.8,96.6,161.8,96.6,161.8l1,1.4c0.1,0.2,0.2,0.4,0.2,0.5s0,0.3-0.1,0.5
			c0,0.1-0.1,0.2-0.1,0.3c0,0.1-0.1,0.1-0.1,0.2l0,0c0,0,0-0.1-0.1-0.2c0-0.1-0.1-0.1-0.1-0.2c0-0.1-0.1-0.1-0.1-0.2
			c0-0.1-0.1-0.1-0.1-0.2l-1-1.3c-0.2,0.2-0.4,0.3-0.6,0.3c-0.2,0-0.5,0-0.7,0c-0.2-0.1-0.3-0.2-0.5-0.3c-0.1-0.1-0.2-0.3-0.3-0.5
			c-0.1-0.2-0.1-0.4-0.1-0.6c0-0.2,0-0.4,0.1-0.6l0.4-1.3l0.1,0c0,0.1,0,0.1,0.1,0.2c0,0.1,0.1,0.1,0.2,0.2c0.1,0.1,0.1,0.1,0.2,0.1
			c0.1,0,0.1,0.1,0.2,0.1l3.5,1.2l-0.3,0.9L96.6,161.8z M95,161.9c0.1,0,0.3,0.1,0.4,0.1c0.1,0,0.3,0,0.4,0c0.1,0,0.3,0,0.4-0.1
			c0.1,0,0.2-0.1,0.2-0.2l-2.1-0.7c0,0.1,0,0.2,0,0.3c0,0.1,0.1,0.2,0.1,0.3c0.1,0.1,0.1,0.2,0.2,0.2S94.9,161.9,95,161.9z"/>
	</g>
	<path class="st25" d="M78.3,142.2c6.5-1.4,13.6,0.9,17.9,6.5c6,7.8,4.6,19-3.2,25.1c-7.8,6-19,4.6-25.1-3.2c-4.4-5.6-4.8-13-1.8-19
		"/>
	<path class="st25" d="M84.2,140.4c5.1,0.5,10,3.1,13.4,7.5c6.6,8.5,5,20.8-3.5,27.4s-20.8,5-27.4-3.5c-3.4-4.4-4.6-9.8-3.9-14.8"/>
	<circle class="st22" cx="81" cy="99.8" r="35.2"/>
	<polygon class="st26" points="76.4,64.7 48.4,86.1 52.9,121 85.4,134.6 113.5,113.2 109,78.3 	"/>
	<g>
		<path class="st23" d="M76.7,103.2c0.8-1.4,1.7-2.5,2.9-3.5c3.2-2.6,6.9-2.6,9.6,0.6c2.6,3.2,2.1,7.2-1.4,10
			c-2.5,2.1-5,2.2-7.4,0.3c-0.2-0.7,0-1.4,0.6-1.8c0.7-0.6,1.4-0.5,2.8,0.5l2,1.4l-1.6,0c1.2-0.3,2-0.8,2.7-1.4c2.5-2,2.5-4.6,0.5-7
			c-2-2.5-4.7-2.6-7.1-0.6c-0.7,0.6-1.4,1.3-2.1,2.1l-0.8,0.4l-5.7-8l8-6.6l1.6,2l-7.5,6.2l-0.2-1.7l4.6,6.5l-1.1,0.9L76.7,103.2z"
			/>
	</g>
	<g>
		<path class="st23" d="M64.7,92.7c0,0.1,0.1,0.2,0.1,0.3s0.1,0.2,0.1,0.4c0,0.1,0.1,0.3,0.1,0.4c0.1,0.2,0.1,0.4,0.2,0.6
			c0.1,0.2,0.2,0.5,0.3,0.9c0.1,0.3,0.3,0.7,0.4,1.2c0.1,0.2,0.1,0.3,0.1,0.5c0,0.2,0,0.3,0,0.5c0,0.2,0,0.3-0.1,0.4
			c0,0.1-0.1,0.2-0.2,0.3c-0.2,0.2-0.5,0.2-0.8,0.2c-0.3-0.1-0.6-0.2-0.8-0.5l-0.1-1c0,0,0.1,0.1,0.1,0.2c0,0.1,0.1,0.1,0.1,0.2
			c0.1,0.1,0.2,0.2,0.3,0.3c0.1,0.1,0.2,0.2,0.3,0.3c0.1,0.1,0.2,0.1,0.3,0.1c0.1,0,0.2,0,0.3-0.1c0.1-0.1,0.1-0.2,0.2-0.3
			c0-0.2,0-0.3,0-0.6l-3-1.7c0,0-0.1-0.1-0.2-0.1c-0.1,0-0.2-0.1-0.3-0.1s-0.2-0.1-0.3-0.1c-0.1,0-0.2,0-0.2,0l0-0.1l1-0.8l2.6,1.4
			c-0.1-0.3-0.2-0.5-0.3-0.8c-0.1-0.3-0.2-0.5-0.3-0.7c-0.1-0.2-0.2-0.5-0.3-0.7c-0.1-0.2-0.1-0.4-0.2-0.5L64.7,92.7z"/>
		<path class="st23" d="M67.8,93.4l-0.4-2.8l0.7-0.5l0,0c0,0,0,0.1-0.1,0.2c0,0.1,0,0.2-0.1,0.3c0,0.2,0,0.4,0,0.7
			c0,0.3,0,0.7,0.1,1.2l2.3,1.2c0.1,0,0.1,0.1,0.2,0.1c0.1,0,0.1,0.1,0.2,0.1c0.1,0,0.1,0,0.2,0c0.1,0,0.1,0,0.2,0l0,0
			c0,0-0.1,0.1-0.2,0.2s-0.2,0.1-0.2,0.2c-0.1,0.1-0.1,0.1-0.2,0.1c-0.1,0-0.2,0.1-0.2,0.1c-0.1,0-0.2,0-0.3,0c-0.1,0-0.2,0-0.3-0.1
			l-1.6-0.8c0,0,0,0.1,0,0.1c0,0,0,0.1,0,0.1l1.1,1.5L68.5,96L66,92.9c0,0-0.1-0.1-0.2-0.1c-0.1-0.1-0.1-0.1-0.2-0.1
			c-0.1,0-0.2-0.1-0.2-0.1c-0.1,0-0.1,0-0.2,0l0-0.1l1.2-0.9L67.8,93.4z"/>
		<path class="st23" d="M69.7,88.8c0.2-0.1,0.4-0.3,0.6-0.3c0.2-0.1,0.4-0.1,0.6-0.1c0.2,0,0.4,0,0.5,0.1s0.3,0.2,0.4,0.3
			c0.1,0.2,0.2,0.3,0.3,0.5c0,0.2,0,0.4,0,0.6c0,0.2-0.1,0.4-0.2,0.6c-0.1,0.2-0.3,0.4-0.4,0.5l1.3,1.6l-0.9,0.7l-2.5-3.1
			c0,0-0.1-0.1-0.1-0.1c-0.1-0.1-0.1-0.1-0.2-0.1s-0.2-0.1-0.2-0.1c-0.1,0-0.1,0-0.2,0l0-0.1L69.7,88.8z M71.1,89.4
			c-0.2-0.2-0.3-0.3-0.5-0.4c-0.2,0-0.4,0-0.5,0.1l1.2,1.5c0.1-0.1,0.1-0.1,0.2-0.2s0-0.2,0-0.3c0-0.1,0-0.2-0.1-0.4
			C71.2,89.6,71.1,89.5,71.1,89.4z"/>
		<path class="st23" d="M75.9,90.2c-0.3-0.2-0.5-0.4-0.8-0.5c-0.2-0.2-0.5-0.4-0.7-0.6l-0.7,0.6l0.5,1.8l-0.5,0.4l0,0
			c0,0,0-0.1,0-0.1c0-0.1,0-0.1,0-0.3c0-0.1-0.1-0.3-0.1-0.6s-0.1-0.6-0.2-1c-0.1-0.4-0.2-0.9-0.4-1.5c-0.1-0.6-0.3-1.3-0.5-2.1
			c0.6,0.5,1.2,1,1.9,1.4s1.3,0.9,1.9,1.3c0,0,0.1,0.1,0.2,0.1c0.1,0,0.1,0.1,0.2,0.1c0.1,0,0.1,0,0.2,0.1c0.1,0,0.1,0,0.2,0l0,0
			L75.9,90.2z M73.6,89.2l0.5-0.4c-0.3-0.2-0.6-0.4-0.9-0.7L73.6,89.2z"/>
		<path class="st23" d="M73.6,83.8c0,0,0.1-0.1,0.2-0.1c0.1,0,0.1,0,0.2,0c0.1,0,0.1,0.1,0.2,0.1c0.1,0,0.1,0.1,0.1,0.1
			c0,0,0.1,0.1,0.1,0.2c0,0.1,0,0.1,0.1,0.2c0,0.1,0,0.1,0,0.2c0,0.1,0,0.1-0.1,0.1c-0.1,0-0.1,0.1-0.2,0.1c-0.1,0-0.1,0-0.2,0
			c-0.1,0-0.1-0.1-0.2-0.1c-0.1,0-0.1-0.1-0.1-0.1c0,0-0.1-0.1-0.1-0.2c0-0.1-0.1-0.1-0.1-0.2c0-0.1,0-0.1,0-0.2
			C73.6,83.9,73.6,83.8,73.6,83.8z M74.3,83.2c0,0,0.1-0.1,0.2-0.1c0.1,0,0.1,0,0.2,0c0.1,0,0.1,0.1,0.2,0.1c0.1,0,0.1,0.1,0.1,0.1
			c0,0,0.1,0.1,0.1,0.2c0,0.1,0,0.1,0.1,0.2c0,0.1,0,0.1,0,0.2c0,0.1,0,0.1-0.1,0.1c-0.1,0-0.1,0.1-0.2,0.1s-0.1,0-0.2,0
			c-0.1,0-0.1-0.1-0.2-0.1c-0.1,0-0.1-0.1-0.1-0.1c0,0-0.1-0.1-0.1-0.2c0-0.1,0-0.1-0.1-0.2c0-0.1,0-0.1,0-0.2
			C74.2,83.3,74.3,83.3,74.3,83.2z M78.5,88.2l-0.9,0.7l-2.5-3.1c0,0-0.1-0.1-0.1-0.1c-0.1-0.1-0.1-0.1-0.2-0.1
			c-0.1,0-0.2-0.1-0.2-0.1c-0.1,0-0.1,0-0.2,0l0-0.1l1.2-0.9L78.5,88.2z"/>
		<path class="st23" d="M79.4,84.3l-0.7,0.5l1.5,2l-0.9,0.7l-2.5-3.1c0,0-0.1-0.1-0.2-0.1c-0.1-0.1-0.1-0.1-0.2-0.1
			c-0.1,0-0.2-0.1-0.2-0.1c-0.1,0-0.1,0-0.2,0l0-0.1l1.2-0.9l1.2,1.6l0.7-0.5l-1.2-1.6l0.9-0.7l2.6,3.3c0,0,0.1,0.1,0.1,0.1
			c0,0,0.1,0.1,0.1,0.1c0,0,0.1,0.1,0.1,0.1c0,0,0.1,0,0.1,0l0,0l-1,0.8L79.4,84.3z"/>
		<path class="st23" d="M84.6,83.4c-0.3-0.2-0.5-0.4-0.8-0.5c-0.2-0.2-0.5-0.4-0.7-0.6l-0.7,0.6l0.5,1.8l-0.5,0.4l0,0
			c0,0,0-0.1,0-0.1c0-0.1,0-0.1,0-0.3c0-0.1-0.1-0.3-0.1-0.6c0-0.2-0.1-0.6-0.2-1c-0.1-0.4-0.2-0.9-0.4-1.5
			c-0.1-0.6-0.3-1.3-0.5-2.1c0.6,0.5,1.2,1,1.9,1.4c0.6,0.5,1.3,0.9,1.9,1.3c0,0,0.1,0.1,0.2,0.1c0.1,0,0.1,0.1,0.2,0.1
			s0.1,0,0.2,0.1c0.1,0,0.1,0,0.2,0l0,0L84.6,83.4z M82.2,82.4l0.5-0.4c-0.3-0.2-0.6-0.4-0.9-0.7L82.2,82.4z"/>
	</g>
	<g>
		<path class="st23" d="M80.8,120.2c-0.1-0.2-0.2-0.4-0.3-0.5c-0.1-0.1-0.2-0.2-0.3-0.3c-0.1-0.1-0.3-0.1-0.4-0.1
			c-0.2,0-0.4,0-0.7,0l0.2,5.8l-1.4,0l-0.2-5.1c0-0.1,0-0.2,0-0.3s-0.1-0.2-0.1-0.3c0-0.1-0.1-0.2-0.2-0.3c-0.1-0.1-0.1-0.1-0.2-0.2
			l0-0.1l4.2-0.1L80.8,120.2z"/>
		<path class="st23" d="M83.9,118.1c0.3-0.1,0.6-0.1,0.9-0.1s0.5,0,0.8,0.1c0.2,0.1,0.4,0.2,0.6,0.4c0.2,0.2,0.3,0.4,0.3,0.6
			c0.1,0.3,0.1,0.5,0,0.8c0,0.3-0.1,0.5-0.3,0.7c-0.1,0.2-0.3,0.4-0.6,0.6c-0.2,0.2-0.5,0.3-0.8,0.4l0.7,2.6l-1.3,0.4l-1.3-5
			c0-0.1-0.1-0.1-0.1-0.2c-0.1-0.1-0.1-0.2-0.2-0.3c-0.1-0.1-0.1-0.2-0.2-0.3s-0.2-0.1-0.2-0.1l0-0.1L83.9,118.1z M85.2,119.5
			c-0.1-0.3-0.2-0.6-0.5-0.7c-0.2-0.1-0.4-0.2-0.7-0.1l0.6,2.4c0.1,0,0.2-0.1,0.3-0.2s0.1-0.2,0.2-0.4c0-0.2,0.1-0.3,0.1-0.5
			C85.2,119.8,85.2,119.6,85.2,119.5z"/>
		<path class="st23" d="M87.6,118.1c0-0.1-0.1-0.1-0.2-0.2c-0.1-0.1-0.2-0.2-0.3-0.2c-0.1-0.1-0.2-0.1-0.3-0.2s-0.2-0.1-0.3-0.1
			l0-0.1l1.7-0.9l1.7,3l0.4-4.4l2.7,4.9c0,0.1,0.1,0.1,0.1,0.2c0,0.1,0.1,0.1,0.2,0.2c0.1,0.1,0.1,0.1,0.2,0.1
			c0.1,0,0.1,0.1,0.2,0.1l0,0l-1.4,0.8l-1.7-3.1l-0.5,4.3L87.6,118.1z"/>
		<path class="st23" d="M92.5,115.1c0,0-0.1-0.1-0.2-0.2c-0.1-0.1-0.2-0.1-0.3-0.2c-0.1,0-0.2-0.1-0.3-0.1c-0.1,0-0.2,0-0.3,0
			l-0.1-0.1l1.3-1.2c0.2-0.2,0.4-0.3,0.6-0.4c0.2-0.1,0.4-0.2,0.6-0.2c0.2,0,0.4,0,0.5,0s0.3,0.1,0.4,0.3c0.1,0.1,0.1,0.1,0.2,0.2
			c0.1,0.1,0.1,0.2,0.1,0.3c0,0.1,0.1,0.2,0,0.4c0,0.1,0,0.3-0.1,0.4c0.4-0.3,0.7-0.4,1.1-0.4s0.7,0.2,1,0.5
			c0.2,0.2,0.3,0.4,0.4,0.7c0.1,0.3,0.1,0.6,0,1c-0.1,0.4-0.2,0.8-0.5,1.2c-0.2,0.4-0.6,0.9-1.1,1.3L92.5,115.1z M96.6,117.4
			c0-0.2,0.1-0.3,0.1-0.5s0-0.3-0.1-0.5c0-0.2-0.1-0.3-0.2-0.5c-0.1-0.2-0.2-0.3-0.3-0.4c-0.2-0.2-0.4-0.3-0.6-0.4
			c-0.3-0.1-0.5-0.1-0.8,0c0-0.1,0-0.2,0-0.3c0-0.1-0.1-0.2-0.1-0.3c0-0.1-0.1-0.2-0.2-0.3c-0.1-0.1-0.1-0.2-0.2-0.3
			c-0.1-0.1-0.2-0.2-0.3-0.2c-0.1-0.1-0.2-0.1-0.3-0.1c-0.1,0-0.2,0-0.3,0s-0.2,0.1-0.3,0.1L96.6,117.4z"/>
		<path class="st23" d="M97.8,108.8c-0.2,0-0.3,0-0.4,0s-0.2,0-0.3,0.1c-0.1,0.1-0.2,0.2-0.3,0.3c-0.1,0.1-0.2,0.3-0.4,0.6l1.7,1.1
			l0.8-1.2l0.3,0.5l-0.7,1l2.2,1.5l0.2-0.3c0.1-0.2,0.2-0.4,0.2-0.6c0-0.2,0.1-0.5,0.1-0.8l0.6,0.9l-1.5,2.3l-4.3-2.8
			c-0.1,0-0.1-0.1-0.2-0.1c-0.1,0-0.2-0.1-0.3-0.1c-0.1,0-0.2,0-0.3,0s-0.2,0-0.3,0.1l-0.1,0l2.2-3.3L97.8,108.8z"/>
		<path class="st23" d="M101.4,105.3l-0.4,1.1l3,1.1l-0.5,1.3l-4.8-1.7c-0.1,0-0.1,0-0.3,0c-0.1,0-0.2,0-0.3,0c-0.1,0-0.2,0-0.3,0
			s-0.2,0.1-0.2,0.1l-0.1,0l0.6-1.8l2.4,0.8l0.4-1.1l-2.4-0.8l0.5-1.3l5.1,1.8c0.1,0,0.1,0,0.2,0.1c0.1,0,0.2,0,0.2,0
			c0.1,0,0.1,0,0.2,0c0.1,0,0.1,0,0.2,0l0,0l-0.5,1.5L101.4,105.3z"/>
		<path class="st23" d="M101.8,100.2c0-0.3,0.1-0.6,0.2-0.9c0.1-0.3,0.2-0.5,0.3-0.7c0.1-0.2,0.3-0.4,0.5-0.5
			c0.2-0.1,0.5-0.1,0.8-0.1c0.2,0,0.5,0.1,0.7,0.3c0.2,0.2,0.5,0.4,0.7,0.6c0.2,0.3,0.3,0.5,0.5,0.8c0.1,0.3,0.2,0.6,0.1,0.8
			l-0.1,1.4l-5.1-0.4c-0.1,0-0.2,0-0.3,0s-0.2,0-0.3,0.1c-0.1,0-0.2,0.1-0.3,0.1s-0.2,0.1-0.2,0.2l-0.1,0l0.2-1.9L101.8,100.2z
			 M105.1,100.5c0-0.1,0-0.3-0.1-0.4s-0.2-0.3-0.4-0.4c-0.2-0.1-0.3-0.2-0.5-0.3c-0.2-0.1-0.4-0.1-0.5-0.1c-0.3,0-0.6,0-0.8,0.2
			c-0.2,0.2-0.3,0.4-0.4,0.8L105.1,100.5z"/>
	</g>
	<ellipse transform="matrix(0.7909 -0.612 0.612 0.7909 -44.2515 70.3467)" class="st27" cx="80.8" cy="99.9" rx="35.5" ry="35"/>
	<path class="st28" d="M76.8,78.1c9.1-1.9,18.9,1.3,24.9,9.1c8.4,10.9,6.4,26.5-4.5,34.9s-26.5,6.4-34.9-4.5
		c-6.1-7.8-6.7-18.1-2.6-26.4"/>
	<path class="st28" d="M85,75.5c7.1,0.7,13.9,4.3,18.6,10.4c9.2,11.9,7,28.9-4.9,38.1s-28.9,7-38.1-4.9c-4.7-6.1-6.4-13.6-5.4-20.6"
		/>
	<circle class="st22" cx="103.5" cy="67.1" r="35.2"/>
	<polygon class="st26" points="98.9,32 70.9,53.4 75.4,88.3 107.9,101.9 135.9,80.5 131.4,45.6 	"/>
	<g>
		<path class="st23" d="M99.2,70.5c0.8-1.4,1.7-2.5,2.9-3.5c3.2-2.6,6.9-2.6,9.6,0.6c2.6,3.2,2.1,7.2-1.4,10c-2.5,2.1-5,2.2-7.4,0.3
			c-0.2-0.7,0-1.4,0.6-1.8c0.7-0.6,1.4-0.5,2.8,0.5l2,1.4l-1.6,0c1.2-0.3,2-0.8,2.7-1.4c2.5-2,2.5-4.6,0.5-7c-2-2.5-4.7-2.6-7.1-0.6
			c-0.7,0.6-1.4,1.3-2.1,2.1l-0.8,0.4l-5.7-8l8-6.6l1.6,2l-7.5,6.2L96,63.6l4.6,6.5l-1.1,0.9L99.2,70.5z"/>
	</g>
	<g>
		<path class="st23" d="M87.2,60c0,0.1,0.1,0.2,0.1,0.3s0.1,0.2,0.1,0.4c0,0.1,0.1,0.3,0.1,0.4c0.1,0.2,0.1,0.4,0.2,0.6
			c0.1,0.2,0.2,0.5,0.3,0.9c0.1,0.3,0.3,0.7,0.4,1.2c0.1,0.2,0.1,0.3,0.1,0.5c0,0.2,0,0.3,0,0.5c0,0.2,0,0.3-0.1,0.4
			c0,0.1-0.1,0.2-0.2,0.3c-0.2,0.2-0.5,0.2-0.8,0.2c-0.3-0.1-0.6-0.2-0.8-0.5l-0.1-1c0,0,0.1,0.1,0.1,0.2c0,0.1,0.1,0.1,0.1,0.2
			c0.1,0.1,0.2,0.2,0.3,0.3c0.1,0.1,0.2,0.2,0.3,0.3c0.1,0.1,0.2,0.1,0.3,0.1c0.1,0,0.2,0,0.3-0.1c0.1-0.1,0.1-0.2,0.2-0.3
			c0-0.2,0-0.3,0-0.6l-3-1.7c0,0-0.1-0.1-0.2-0.1c-0.1,0-0.2-0.1-0.3-0.1s-0.2-0.1-0.3-0.1c-0.1,0-0.2,0-0.2,0l0-0.1l1-0.8l2.6,1.4
			c-0.1-0.3-0.2-0.5-0.3-0.8c-0.1-0.3-0.2-0.5-0.3-0.7c-0.1-0.2-0.2-0.5-0.3-0.7c-0.1-0.2-0.1-0.4-0.2-0.5L87.2,60z"/>
		<path class="st23" d="M90.3,60.7l-0.4-2.8l0.7-0.5l0,0c0,0,0,0.1-0.1,0.2c0,0.1,0,0.2-0.1,0.3c0,0.2,0,0.4,0,0.7
			c0,0.3,0,0.7,0.1,1.2l2.3,1.2c0.1,0,0.1,0.1,0.2,0.1c0.1,0,0.1,0.1,0.2,0.1c0.1,0,0.1,0,0.2,0c0.1,0,0.1,0,0.2,0l0,0
			c0,0-0.1,0.1-0.2,0.2s-0.2,0.1-0.2,0.2c-0.1,0.1-0.1,0.1-0.2,0.1c-0.1,0-0.2,0.1-0.2,0.1c-0.1,0-0.2,0-0.3,0c-0.1,0-0.2,0-0.3-0.1
			L90.6,61c0,0,0,0.1,0,0.1c0,0,0,0.1,0,0.1l1.1,1.5l-0.9,0.7l-2.5-3.1c0,0-0.1-0.1-0.2-0.1c-0.1-0.1-0.1-0.1-0.2-0.1
			c-0.1,0-0.2-0.1-0.2-0.1c-0.1,0-0.1,0-0.2,0l0-0.1l1.2-0.9L90.3,60.7z"/>
		<path class="st23" d="M92.2,56.1c0.2-0.1,0.4-0.3,0.6-0.3c0.2-0.1,0.4-0.1,0.6-0.1c0.2,0,0.4,0,0.5,0.1s0.3,0.2,0.4,0.3
			c0.1,0.2,0.2,0.3,0.3,0.5c0,0.2,0,0.4,0,0.6c0,0.2-0.1,0.4-0.2,0.6c-0.1,0.2-0.3,0.4-0.4,0.5l1.3,1.6l-0.9,0.7l-2.5-3.1
			c0,0-0.1-0.1-0.1-0.1c-0.1-0.1-0.1-0.1-0.2-0.1s-0.2-0.1-0.2-0.1c-0.1,0-0.1,0-0.2,0l0-0.1L92.2,56.1z M93.5,56.7
			c-0.2-0.2-0.3-0.3-0.5-0.4c-0.2,0-0.4,0-0.5,0.1l1.2,1.5c0.1-0.1,0.1-0.1,0.2-0.2s0-0.2,0-0.3c0-0.1,0-0.2-0.1-0.4
			C93.7,56.9,93.6,56.8,93.5,56.7z"/>
		<path class="st23" d="M98.4,57.5c-0.3-0.2-0.5-0.4-0.8-0.5c-0.2-0.2-0.5-0.4-0.7-0.6L96.2,57l0.5,1.8l-0.5,0.4l0,0
			c0,0,0-0.1,0-0.1c0-0.1,0-0.1,0-0.3c0-0.1-0.1-0.3-0.1-0.6s-0.1-0.6-0.2-1c-0.1-0.4-0.2-0.9-0.4-1.5c-0.1-0.6-0.3-1.3-0.5-2.1
			c0.6,0.5,1.2,1,1.9,1.4s1.3,0.9,1.9,1.3c0,0,0.1,0.1,0.2,0.1c0.1,0,0.1,0.1,0.2,0.1c0.1,0,0.1,0,0.2,0.1c0.1,0,0.1,0,0.2,0l0,0
			L98.4,57.5z M96,56.5l0.5-0.4c-0.3-0.2-0.6-0.4-0.9-0.7L96,56.5z"/>
		<path class="st23" d="M96.1,51.1c0,0,0.1-0.1,0.2-0.1c0.1,0,0.1,0,0.2,0c0.1,0,0.1,0.1,0.2,0.1c0.1,0,0.1,0.1,0.1,0.1
			c0,0,0.1,0.1,0.1,0.2c0,0.1,0,0.1,0.1,0.2c0,0.1,0,0.1,0,0.2c0,0.1,0,0.1-0.1,0.1c-0.1,0-0.1,0.1-0.2,0.1c-0.1,0-0.1,0-0.2,0
			c-0.1,0-0.1-0.1-0.2-0.1c-0.1,0-0.1-0.1-0.1-0.1c0,0-0.1-0.1-0.1-0.2c0-0.1-0.1-0.1-0.1-0.2c0-0.1,0-0.1,0-0.2
			C96,51.2,96.1,51.1,96.1,51.1z M96.8,50.5c0,0,0.1-0.1,0.2-0.1c0.1,0,0.1,0,0.2,0c0.1,0,0.1,0.1,0.2,0.1c0.1,0,0.1,0.1,0.1,0.1
			c0,0,0.1,0.1,0.1,0.2c0,0.1,0,0.1,0.1,0.2c0,0.1,0,0.1,0,0.2c0,0.1,0,0.1-0.1,0.1c-0.1,0-0.1,0.1-0.2,0.1s-0.1,0-0.2,0
			c-0.1,0-0.1-0.1-0.2-0.1c-0.1,0-0.1-0.1-0.1-0.1c0,0-0.1-0.1-0.1-0.2c0-0.1,0-0.1-0.1-0.2c0-0.1,0-0.1,0-0.2
			C96.7,50.6,96.7,50.6,96.8,50.5z M101,55.5l-0.9,0.7L97.6,53c0,0-0.1-0.1-0.1-0.1c-0.1-0.1-0.1-0.1-0.2-0.1
			c-0.1,0-0.2-0.1-0.2-0.1c-0.1,0-0.1,0-0.2,0l0-0.1l1.2-0.9L101,55.5z"/>
		<path class="st23" d="M101.9,51.6l-0.7,0.5l1.5,2l-0.9,0.7l-2.5-3.1c0,0-0.1-0.1-0.2-0.1c-0.1-0.1-0.1-0.1-0.2-0.1
			c-0.1,0-0.2-0.1-0.2-0.1c-0.1,0-0.1,0-0.2,0l0-0.1l1.2-0.9l1.2,1.6l0.7-0.5l-1.2-1.6l0.9-0.7l2.6,3.3c0,0,0.1,0.1,0.1,0.1
			c0,0,0.1,0.1,0.1,0.1c0,0,0.1,0.1,0.1,0.1c0,0,0.1,0,0.1,0l0,0l-1,0.8L101.9,51.6z"/>
		<path class="st23" d="M107,50.7c-0.3-0.2-0.5-0.4-0.8-0.5c-0.2-0.2-0.5-0.4-0.7-0.6l-0.7,0.6l0.5,1.8l-0.5,0.4l0,0
			c0,0,0-0.1,0-0.1c0-0.1,0-0.1,0-0.3c0-0.1-0.1-0.3-0.1-0.6c0-0.2-0.1-0.6-0.2-1c-0.1-0.4-0.2-0.9-0.4-1.5
			c-0.1-0.6-0.3-1.3-0.5-2.1c0.6,0.5,1.2,1,1.9,1.4c0.6,0.5,1.3,0.9,1.9,1.3c0,0,0.1,0.1,0.2,0.1c0.1,0,0.1,0.1,0.2,0.1
			s0.1,0,0.2,0.1c0.1,0,0.1,0,0.2,0l0,0L107,50.7z M104.7,49.7l0.5-0.4c-0.3-0.2-0.6-0.4-0.9-0.7L104.7,49.7z"/>
	</g>
	<g>
		<path class="st23" d="M103.3,87.5c-0.1-0.2-0.2-0.4-0.3-0.5c-0.1-0.1-0.2-0.2-0.3-0.3c-0.1-0.1-0.3-0.1-0.4-0.1
			c-0.2,0-0.4,0-0.7,0l0.2,5.8l-1.4,0l-0.2-5.1c0-0.1,0-0.2,0-0.3s-0.1-0.2-0.1-0.3c0-0.1-0.1-0.2-0.2-0.3c-0.1-0.1-0.1-0.1-0.2-0.2
			l0-0.1l4.2-0.1L103.3,87.5z"/>
		<path class="st23" d="M106.3,85.4c0.3-0.1,0.6-0.1,0.9-0.1s0.5,0,0.8,0.1c0.2,0.1,0.4,0.2,0.6,0.4c0.2,0.2,0.3,0.4,0.3,0.6
			c0.1,0.3,0.1,0.5,0,0.8c0,0.3-0.1,0.5-0.3,0.7c-0.1,0.2-0.3,0.4-0.6,0.6c-0.2,0.2-0.5,0.3-0.8,0.4l0.7,2.6l-1.3,0.4l-1.3-5
			c0-0.1-0.1-0.1-0.1-0.2c-0.1-0.1-0.1-0.2-0.2-0.3c-0.1-0.1-0.1-0.2-0.2-0.3s-0.2-0.1-0.2-0.1l0-0.1L106.3,85.4z M107.6,86.8
			c-0.1-0.3-0.2-0.6-0.5-0.7c-0.2-0.1-0.4-0.2-0.7-0.1l0.6,2.4c0.1,0,0.2-0.1,0.3-0.2s0.1-0.2,0.2-0.4c0-0.2,0.1-0.3,0.1-0.5
			C107.7,87.1,107.7,86.9,107.6,86.8z"/>
		<path class="st23" d="M110.1,85.4c0-0.1-0.1-0.1-0.2-0.2c-0.1-0.1-0.2-0.2-0.3-0.2c-0.1-0.1-0.2-0.1-0.3-0.2s-0.2-0.1-0.3-0.1
			l0-0.1l1.7-0.9l1.7,3l0.4-4.4l2.7,4.9c0,0.1,0.1,0.1,0.1,0.2c0,0.1,0.1,0.1,0.2,0.2c0.1,0.1,0.1,0.1,0.2,0.1
			c0.1,0,0.1,0.1,0.2,0.1l0,0l-1.4,0.8l-1.7-3.1l-0.5,4.3L110.1,85.4z"/>
		<path class="st23" d="M115,82.4c0,0-0.1-0.1-0.2-0.2c-0.1-0.1-0.2-0.1-0.3-0.2c-0.1,0-0.2-0.1-0.3-0.1c-0.1,0-0.2,0-0.3,0
			l-0.1-0.1l1.3-1.2c0.2-0.2,0.4-0.3,0.6-0.4c0.2-0.1,0.4-0.2,0.6-0.2c0.2,0,0.4,0,0.5,0s0.3,0.1,0.4,0.3c0.1,0.1,0.1,0.1,0.2,0.2
			c0.1,0.1,0.1,0.2,0.1,0.3c0,0.1,0.1,0.2,0,0.4c0,0.1,0,0.3-0.1,0.4c0.4-0.3,0.7-0.4,1.1-0.4s0.7,0.2,1,0.5
			c0.2,0.2,0.3,0.4,0.4,0.7c0.1,0.3,0.1,0.6,0,1c-0.1,0.4-0.2,0.8-0.5,1.2c-0.2,0.4-0.6,0.9-1.1,1.3L115,82.4z M119.1,84.7
			c0-0.2,0.1-0.3,0.1-0.5s0-0.3-0.1-0.5c0-0.2-0.1-0.3-0.2-0.5c-0.1-0.2-0.2-0.3-0.3-0.4c-0.2-0.2-0.4-0.3-0.6-0.4
			c-0.3-0.1-0.5-0.1-0.8,0c0-0.1,0-0.2,0-0.3c0-0.1-0.1-0.2-0.1-0.3c0-0.1-0.1-0.2-0.2-0.3c-0.1-0.1-0.1-0.2-0.2-0.3
			c-0.1-0.1-0.2-0.2-0.3-0.2c-0.1-0.1-0.2-0.1-0.3-0.1c-0.1,0-0.2,0-0.3,0s-0.2,0.1-0.3,0.1L119.1,84.7z"/>
		<path class="st23" d="M120.3,76.1c-0.2,0-0.3,0-0.4,0s-0.2,0-0.3,0.1c-0.1,0.1-0.2,0.2-0.3,0.3c-0.1,0.1-0.2,0.3-0.4,0.6l1.7,1.1
			l0.8-1.2l0.3,0.5l-0.7,1l2.2,1.5l0.2-0.3c0.1-0.2,0.2-0.4,0.2-0.6c0-0.2,0.1-0.5,0.1-0.8l0.6,0.9l-1.5,2.3l-4.3-2.8
			c-0.1,0-0.1-0.1-0.2-0.1c-0.1,0-0.2-0.1-0.3-0.1c-0.1,0-0.2,0-0.3,0s-0.2,0-0.3,0.1l-0.1,0l2.2-3.3L120.3,76.1z"/>
		<path class="st23" d="M123.9,72.6l-0.4,1.1l3,1.1L126,76l-4.8-1.7c-0.1,0-0.1,0-0.3,0c-0.1,0-0.2,0-0.3,0c-0.1,0-0.2,0-0.3,0
			s-0.2,0.1-0.2,0.1l-0.1,0l0.6-1.8l2.4,0.8l0.4-1.1l-2.4-0.8l0.5-1.3l5.1,1.8c0.1,0,0.1,0,0.2,0.1c0.1,0,0.2,0,0.2,0
			c0.1,0,0.1,0,0.2,0c0.1,0,0.1,0,0.2,0l0,0l-0.5,1.5L123.9,72.6z"/>
		<path class="st23" d="M124.3,67.5c0-0.3,0.1-0.6,0.2-0.9c0.1-0.3,0.2-0.5,0.3-0.7c0.1-0.2,0.3-0.4,0.5-0.5
			c0.2-0.1,0.5-0.1,0.8-0.1c0.2,0,0.5,0.1,0.7,0.3c0.2,0.2,0.5,0.4,0.7,0.6c0.2,0.3,0.3,0.5,0.5,0.8c0.1,0.3,0.2,0.6,0.1,0.8
			l-0.1,1.4l-5.1-0.4c-0.1,0-0.2,0-0.3,0s-0.2,0-0.3,0.1c-0.1,0-0.2,0.1-0.3,0.1s-0.2,0.1-0.2,0.2l-0.1,0l0.2-1.9L124.3,67.5z
			 M127.5,67.8c0-0.1,0-0.3-0.1-0.4s-0.2-0.3-0.4-0.4c-0.2-0.1-0.3-0.2-0.5-0.3c-0.2-0.1-0.4-0.1-0.5-0.1c-0.3,0-0.6,0-0.8,0.2
			c-0.2,0.2-0.3,0.4-0.4,0.8L127.5,67.8z"/>
	</g>
	<ellipse transform="matrix(0.7909 -0.612 0.612 0.7909 -19.5487 77.2556)" class="st27" cx="103.3" cy="67.2" rx="35.5" ry="35"/>
	<path class="st28" d="M99.3,45.4c9.1-1.9,18.9,1.3,24.9,9.1c8.4,10.9,6.4,26.5-4.5,34.9s-26.5,6.4-34.9-4.5
		c-6.1-7.8-6.7-18.1-2.6-26.4"/>
	<path class="st28" d="M107.5,42.8c7.1,0.7,13.9,4.3,18.6,10.4c9.2,11.9,7,28.9-4.9,38.1s-28.9,7-38.1-4.9
		c-4.7-6.1-6.4-13.6-5.4-20.6"/>
</g>
</svg>
