<?xml version="1.0" encoding="utf-8"?>
<!-- Generator: Adobe Illustrator 22.1.0, SVG Export Plug-In . SVG Version: 6.00 Build 0)  -->
<svg version="1.1" id="Слой_4" xmlns="http://www.w3.org/2000/svg" xmlns:xlink="http://www.w3.org/1999/xlink" x="0px" y="0px"
	 viewBox="0 0 512 512" style="enable-background:new 0 0 512 512;" xml:space="preserve">
<style type="text/css">
	.st0{fill:#CDEDF9;stroke:#000000;stroke-width:2.0143;stroke-linecap:round;stroke-linejoin:round;stroke-miterlimit:10;}
	.st1{fill:#FFF5AE;}
	.st2{fill:#A4BC3C;stroke:#000000;stroke-width:2;stroke-linecap:round;stroke-linejoin:round;stroke-miterlimit:10;}
	.st3{fill:#B5D544;stroke:#000000;stroke-width:2;stroke-linecap:round;stroke-linejoin:round;stroke-miterlimit:10;}
	.st4{fill:#ECFF9C;stroke:#000000;stroke-width:2;stroke-linecap:round;stroke-linejoin:round;stroke-miterlimit:10;}
	.st5{fill:none;stroke:#000000;stroke-width:2;stroke-linecap:round;stroke-linejoin:round;stroke-miterlimit:10;}
	.st6{fill:#DADADA;stroke:#000000;stroke-width:2;stroke-linecap:round;stroke-linejoin:round;stroke-miterlimit:10;}
	.st7{fill:#AAD3E5;stroke:#000000;stroke-width:2.0143;stroke-linecap:round;stroke-linejoin:round;stroke-miterlimit:10;}
	.st8{fill:#8FB4C1;stroke:#000000;stroke-width:2.0143;stroke-linecap:round;stroke-linejoin:round;stroke-miterlimit:10;}
	.st9{fill:#EDEDED;stroke:#000000;stroke-width:2.0477;stroke-linecap:round;stroke-linejoin:round;stroke-miterlimit:10;}
	.st10{fill:none;stroke:#000000;stroke-width:2.1261;stroke-linecap:round;stroke-linejoin:round;stroke-miterlimit:10;}
	.st11{fill:none;stroke:#000000;stroke-width:2.3408;stroke-linecap:round;stroke-linejoin:round;stroke-miterlimit:10;}
	.st12{fill:#FCEA10;stroke:#000000;stroke-width:2;stroke-linecap:round;stroke-linejoin:round;stroke-miterlimit:10;}
	.st13{fill:#C6C6C6;stroke:#000000;stroke-width:2;stroke-linecap:round;stroke-linejoin:round;stroke-miterlimit:10;}
	.st14{fill:#A76258;stroke:#000000;stroke-width:2;stroke-linecap:round;stroke-linejoin:round;stroke-miterlimit:10;}
	.st15{fill:none;stroke:#000000;stroke-width:4;stroke-linecap:round;stroke-linejoin:round;stroke-miterlimit:10;}
	.st16{fill:none;stroke:#000000;stroke-width:3;stroke-linecap:round;stroke-linejoin:round;stroke-miterlimit:10;}
	.st17{fill:#E94E1B;stroke:#000000;stroke-width:2;stroke-linecap:round;stroke-linejoin:round;stroke-miterlimit:10;}
	.st18{fill:none;stroke:#000000;stroke-miterlimit:10;}
	.st19{fill:#706F6F;stroke:#000000;stroke-width:2;stroke-linecap:round;stroke-linejoin:round;stroke-miterlimit:10;}
	.st20{fill:#878787;stroke:#000000;stroke-width:2;stroke-linecap:round;stroke-linejoin:round;stroke-miterlimit:10;}
	.st21{fill:none;stroke:#000000;stroke-width:1.3298;stroke-linecap:round;stroke-linejoin:round;stroke-miterlimit:10;}
	.st22{fill:#878787;stroke:#000000;stroke-width:1.3298;stroke-linecap:round;stroke-linejoin:round;stroke-miterlimit:10;}
	.st23{fill:#E6332A;stroke:#000000;stroke-width:1.3298;stroke-linecap:round;stroke-linejoin:round;stroke-miterlimit:10;}
	.st24{fill:#95C11F;stroke:#000000;stroke-width:2;stroke-linecap:round;stroke-linejoin:round;stroke-miterlimit:10;}
	.st25{fill:none;stroke:#000000;stroke-width:1.3138;stroke-linecap:round;stroke-linejoin:round;stroke-miterlimit:10;}
	.st26{fill:#FFEC3B;stroke:#000000;stroke-miterlimit:10;}
	.st27{fill:#C6C6C6;stroke:#000000;stroke-miterlimit:10;}
	.st28{fill:#C6C6C6;stroke:#000000;stroke-width:0.75;stroke-miterlimit:10;}
	.st29{fill:none;stroke:#000000;stroke-width:0.75;stroke-linecap:round;stroke-linejoin:round;stroke-miterlimit:10;}
	.st30{fill:none;stroke:#000000;stroke-width:2.0477;stroke-linecap:round;stroke-linejoin:round;stroke-miterlimit:10;}
	.st31{fill:#B2B2B2;stroke:#000000;stroke-linecap:round;stroke-linejoin:round;stroke-miterlimit:10;}
	.st32{fill:#EDEDED;stroke:#000000;stroke-linecap:round;stroke-linejoin:round;stroke-miterlimit:10;}
</style>
<path class="st0" d="M-97,456.5C-88,445,97.3,327.7,97.3,327.7L505,318c0,0,64,35,49,80s-21,163-28,166s-240.3,9-271.7,3
	s-276.1-18-274.7-22c1.4-4-68.6-71.2-69.6-74.6C-91,467-97,456.5-97,456.5z"/>
<rect x="-11" y="-6.3" class="st1" width="549.8" height="324.3"/>
<path class="st2" d="M-43,280.1l64,11.2l-0.1,117.8L-43,396c0,0-44.7-26.6-44.7-32.8S-43,280.1-43,280.1z"/>
<path class="st3" d="M166.5,99.3v83h78.8v-83H166.5z M231.3,166h-47.8v-50.3h47.8V166z"/>
<path class="st3" d="M87.7,99.3v83h78.8v-83H87.7z M153.5,166h-47.8v-50.3h47.8V166z"/>
<rect x="183.5" y="115.7" class="st4" width="47.8" height="50.3"/>
<rect x="105.7" y="115.7" class="st4" width="47.8" height="50.3"/>
<line class="st5" x1="96.3" y1="171.7" x2="158.3" y2="171.7"/>
<line class="st5" x1="178.3" y1="171.7" x2="240.3" y2="171.7"/>
<polygon class="st3" points="87.7,182.3 23,182.3 23,70.7 87.7,99.3 "/>
<polygon class="st2" points="23,182.3 -20.4,169.7 -17.3,94 23,70.7 "/>
<polygon class="st4" points="30.3,86.6 29.3,157.7 56.8,161.2 56.8,96.5 "/>
<polygon class="st4" points="61.3,98.8 60.6,161.4 83.9,164.7 83.4,106.1 "/>
<line class="st5" x1="26.2" y1="168.5" x2="59.3" y2="170.8"/>
<line class="st5" x1="66.5" y1="171.3" x2="84.8" y2="172.6"/>
<polygon class="st2" points="263.3,115.7 263.3,178 245.3,182.3 245.3,99.3 "/>
<path class="st3" d="M345,99.3v83h78.8v-83H345z M406.8,166H359v-50.3h47.8V166z"/>
<rect x="359" y="115.7" class="st4" width="47.8" height="50.3"/>
<line class="st5" x1="412" y1="171.7" x2="350" y2="171.7"/>
<rect x="260.3" y="261.5" class="st6" width="91" height="92.5"/>
<rect x="177.7" y="261.5" class="st3" width="82.7" height="92.5"/>
<rect x="101.5" y="261.5" class="st3" width="76.2" height="92.5"/>
<rect x="351.3" y="261.5" class="st3" width="72.5" height="92.5"/>
<rect x="423.8" y="98.8" class="st7" width="88.2" height="255.3"/>
<polygon class="st8" points="423.8,182.3 423.8,261.5 381,248.5 381,182.3 "/>
<path class="st9" d="M283.3,149.7c-2.1,0-3.8,1.7-3.8,3.8s1.7,3.8,3.8,3.8c2.1,0,3.8-1.7,3.8-3.8S285.5,149.7,283.3,149.7z
	 M297.8,149.7c-2.1,0-3.8,1.7-3.8,3.8s1.7,3.8,3.8,3.8s3.8-1.7,3.8-3.8S299.9,149.7,297.8,149.7z M311.8,149.2
	c-2.1,0-3.8,1.7-3.8,3.8s1.7,3.8,3.8,3.8s3.8-1.7,3.8-3.8S313.9,149.2,311.8,149.2z M263.3,143.3h78L327,160.5h-63.7"/>
<polyline class="st9" points="263.3,160.5 249.8,143.3 263.3,143.3 "/>
<rect x="275.2" y="99.3" class="st6" width="44.2" height="44"/>
<polygon class="st2" points="345,99.3 345,182.3 327,178 327,160.5 341.3,143.3 327,143.3 327,115.7 "/>
<line class="st10" x1="345" y1="99.3" x2="318.3" y2="99.3"/>
<line class="st11" x1="277.2" y1="99.3" x2="244.7" y2="99.3"/>
<line class="st5" x1="245.3" y1="99.3" x2="244.5" y2="99.3"/>
<line class="st5" x1="277.2" y1="99.3" x2="275.2" y2="99.3"/>
<path class="st12" d="M287.2,153.5c0,2.1-1.7,3.8-3.8,3.8c-2.1,0-3.8-1.7-3.8-3.8s1.7-3.8,3.8-3.8
	C285.5,149.7,287.2,151.4,287.2,153.5z"/>
<path class="st12" d="M301.7,153.5c0,2.1-1.7,3.8-3.8,3.8s-3.8-1.7-3.8-3.8s1.7-3.8,3.8-3.8S301.7,151.4,301.7,153.5z"/>
<path class="st12" d="M315.7,153c0,2.1-1.7,3.8-3.8,3.8s-3.8-1.7-3.8-3.8s1.7-3.8,3.8-3.8S315.7,150.9,315.7,153z"/>
<line class="st5" x1="423.8" y1="256" x2="522.6" y2="256"/>
<path class="st13" d="M344.7,248.8l-51.3,0.4v1.9c0,1.3-0.5,2.6-1.3,3.5c3.2,0.5,5.2,1.3,5.2,2.1c0,1.6-6.9,2.8-15.5,2.8
	s-15.5-1.3-15.5-2.8c0-0.8,1.6-1.4,4.2-1.9c-0.9-1-1.5-2.3-1.5-3.7v-1.7l-8.5,0.1v12.1h91L344.7,248.8z M323.8,257
	c-8.6,0-15.5-1.3-15.5-2.8c0-1.6,6.9-2.8,15.5-2.8s15.5,1.3,15.5,2.8C339.3,255.7,332.4,257,323.8,257z"/>
<polygon class="st14" points="211.9,249.8 260.3,249.4 260.3,261.5 101.5,261.5 89.7,250.7 114.3,250.5 134.4,250.3 140.7,250.3 
	190.5,249.9 "/>
<path class="st14" d="M297.3,256.6c0,1.6-6.9,2.8-15.5,2.8s-15.5-1.3-15.5-2.8c0-0.8,1.6-1.4,4.2-1.9c-0.9-1-1.5-2.3-1.5-3.7v-1.7
	l24.5-0.2v1.9c0,1.3-0.5,2.6-1.3,3.5C295.2,255,297.3,255.8,297.3,256.6z"/>
<path class="st14" d="M339.3,254.2c0,1.6-6.9,2.8-15.5,2.8s-15.5-1.3-15.5-2.8c0-1.6,6.9-2.8,15.5-2.8S339.3,252.6,339.3,254.2z"/>
<polygon class="st14" points="423.8,261.5 351.3,261.5 344.7,248.8 381,248.5 "/>
<line class="st15" x1="187.7" y1="257" x2="245.3" y2="257"/>
<rect x="107" y="268.3" class="st4" width="65" height="9"/>
<line class="st16" x1="168.7" y1="289.3" x2="168.7" y2="335.4"/>
<rect x="116.7" y="280.1" class="st4" width="45.5" height="55.3"/>
<rect x="197.5" y="280.8" class="st4" width="45.5" height="55.3"/>
<rect x="187.7" y="268" transform="matrix(-1 -4.488733e-11 4.488733e-11 -1 440.3333 545)" class="st4" width="65" height="9"/>
<line class="st16" x1="191" y1="289" x2="191" y2="335"/>
<path class="st13" d="M339.3,254.2c0,1.6-6.9,2.8-15.5,2.8s-15.5-1.3-15.5-2.8c0-1.6,6.9-2.8,15.5-2.8S339.3,252.6,339.3,254.2z"/>
<path class="st17" d="M297.3,256.6c0,1.6-6.9,2.8-15.5,2.8s-15.5-1.3-15.5-2.8c0-0.8,1.6-1.4,4.2-1.9c2.8-0.6,6.9-0.9,11.3-0.9
	c4,0,7.5,0.3,10.3,0.7C295.2,255,297.3,255.8,297.3,256.6z"/>
<rect x="359.7" y="268.3" class="st4" width="58.3" height="9"/>
<rect x="359.7" y="288.7" class="st4" width="58.3" height="9"/>
<rect x="359.7" y="309" class="st4" width="58.3" height="9"/>
<rect x="359.7" y="329.3" class="st4" width="58.3" height="9"/>
<line class="st18" x1="207.3" y1="191" x2="207.3" y2="196.1"/>
<rect x="268" y="297.7" class="st19" width="76.7" height="6"/>
<path class="st5" d="M268,309v37.3h76.7V309H268z M331.5,342.3h-50.4v-32h50.4V342.3z"/>
<rect x="281.1" y="310.3" class="st7" width="50.4" height="32"/>
<rect x="264.8" y="303.7" class="st20" width="83.2" height="5.3"/>
<rect x="260.3" y="287.7" class="st21" width="91" height="3.7"/>
<path class="st22" d="M317.6,283.3h-20.5c-1.6,0-2.9-1.3-2.9-2.9v-5c0-1.6,1.3-2.9,2.9-2.9h20.5c1.6,0,2.9,1.3,2.9,2.9v5
	C320.5,282,319.2,283.3,317.6,283.3z"/>
<circle class="st23" cx="278" cy="279.5" r="5.5"/>
<circle class="st23" cx="332.9" cy="278.7" r="5.5"/>
<polygon class="st8" points="459,149.2 448.2,149.2 444.8,115.7 461.9,115.7 "/>
<line class="st18" x1="228" y1="191" x2="228" y2="196.1"/>
<path class="st24" d="M293.4,238.8V251c0,1.3-0.5,2.6-1.3,3.5c-1,1.1-2.4,1.7-3.9,1.7h-14c-1.5,0-2.8-0.6-3.7-1.5
	c-0.9-1-1.5-2.3-1.5-3.7v-12.3c0-2,1.2-3.8,2.8-4.7c0.7-0.4,1.5-0.6,2.4-0.6h14c0.9,0,1.7,0.2,2.4,0.6
	C292.2,235,293.4,236.7,293.4,238.8z"/>
<path class="st25" d="M294.7,233.5c0,0.2-1.6,0.4-4.1,0.6c-2.4,0.1-5.8,0.2-9.4,0.2s-7-0.1-9.4-0.2c-2.5-0.1-4.1-0.4-4.1-0.6
	c0-0.4,5.8-0.8,13-0.8h1.3C289,232.7,294.7,233.1,294.7,233.5z"/>
<path d="M282.2,230.8c0,0.7-0.1,1.4-0.3,1.8c-0.2,0.5-0.4,0.8-0.6,0.8c-0.3,0-0.5-0.3-0.7-0.8c-0.2-0.5-0.3-1.1-0.3-1.8
	c0-1.5,0.4-2.6,0.9-2.6S282.2,229.4,282.2,230.8z"/>
<path class="st26" d="M213,245c0,1.7-0.4,3.3-1.2,4.8c-1.9,3.7-6,6.2-10.7,6.2c-4.6,0-8.7-2.5-10.6-6.1c-0.8-1.5-1.3-3.2-1.3-4.9
	c0-1.4,0.3-2.8,0.8-4h22.1C212.7,242.2,213,243.6,213,245z"/>
<polygon class="st27" points="176,258.5 106,258.5 114.2,250.5 176,250.5 "/>
<line class="st18" x1="217.6" y1="191" x2="217.6" y2="194.7"/>
<path class="st27" d="M143.9,233.9v0.6c0,1.8-1.4,3.3-3.2,3.4c-0.1,0-0.1,0-0.2,0h-5.9c-1.9,0-3.4-1.5-3.4-3.4v-0.6
	c0-1.9,1.5-3.4,3.4-3.4h5.9C142.4,230.5,143.9,232,143.9,233.9z"/>
<path class="st28" d="M199.5,220.3c0,3.9-1.4,7-3.1,7s-3.1-3.1-3.1-7c0-3.5,1.1-6.3,2.5-6.9l-1.9-16.1c0-0.1,0-0.2,0-0.3
	c0-1.3,1-2.3,2.4-2.3c1.4,0,2.5,1.2,2.3,2.6l-1.9,16C198.3,213.7,199.5,216.7,199.5,220.3z"/>
<path class="st28" d="M241,219.8c0,3.9-1.4,7-3.1,7s-3.1-3.1-3.1-7c0-3.5,1.1-6.3,2.5-6.9l-1.9-16.1c0-0.1,0-0.2,0-0.3
	c0-1.3,1-2.4,2.4-2.4c1.4,0,2.5,1.2,2.3,2.6l-1.9,16C239.8,213.3,241,216.2,241,219.8z"/>
<path class="st28" d="M231,219.9c0,1-0.1,2-0.3,2.9c-0.1,0.7-0.3,1.3-0.5,1.9c-0.4,0.9-0.8,1.5-1.3,1.9c-0.3,0.2-0.6,0.3-0.9,0.3
	c-0.3,0-0.6-0.1-0.9-0.3c-0.6-0.4-1.2-1.3-1.5-2.5c-0.2-0.5-0.3-1-0.4-1.6c-0.1-0.8-0.2-1.7-0.2-2.6c0-0.2,0-0.3,0-0.4
	c0-0.7,0.1-1.5,0.2-2.1v0c0.4-2.2,1.3-3.9,2.3-4.3l-1.9-16.1c0-0.1,0-0.2,0-0.3c0-1.3,1-2.4,2.4-2.4c1.4,0,2.5,1.2,2.3,2.6l-1.9,16
	c1.1,0.3,2,2,2.5,4.3c0.1,0.7,0.2,1.4,0.2,2.2C231,219.6,231,219.8,231,219.9z"/>
<path class="st28" d="M220.7,219.1c0,3.9-1.4,3-3.1,3s-3.1,0.8-3.1-3c0-3.5,1.1-6.3,2.5-6.9l-1.9-16.1c0-0.1,0-0.2,0-0.3
	c0-1.3,1-2.3,2.4-2.3c1.4,0,2.5,1.2,2.3,2.6l-1.9,16C219.5,212.6,220.7,215.6,220.7,219.1z"/>
<path class="st28" d="M212,216.1v4.7c0,1.3-1,2.3-2.3,2.3H205c-1.3,0-2.3-1-2.3-2.3v-4.7c0-1.3,1-2.3,2.3-2.3h1.9l-1.9-16.1
	c-0.2-1.4,0.9-2.6,2.3-2.6c1.4,0,2.5,1.2,2.3,2.6l-1.9,16.1h1.9C210.9,213.8,212,214.9,212,216.1z"/>
<line class="st18" x1="205.3" y1="218.3" x2="205.3" y2="223.1"/>
<line class="st27" x1="207.3" y1="218.3" x2="207.3" y2="223.1"/>
<line class="st18" x1="209.3" y1="218.2" x2="209.3" y2="223"/>
<line class="st29" x1="225.1" y1="217.4" x2="225.1" y2="217.4"/>
<polygon class="st3" points="101.5,261.5 101.5,354 21,409.5 21,291.3 "/>
<polygon class="st14" points="101.5,261.5 21,291.3 -29,280.8 89.7,250.7 "/>
<line class="st5" x1="83.3" y1="366.5" x2="530" y2="366.5"/>
<line class="st30" x1="187.7" y1="191" x2="248" y2="191"/>
<line class="st5" x1="48.8" y1="392.5" x2="545" y2="392.5"/>
<line class="st5" x1="-29" y1="418.5" x2="554" y2="418.5"/>
<polyline class="st27" points="140.7,237.8 140.7,254.5 134.4,254.5 134.4,237.9 "/>
<line class="st5" x1="-54.7" y1="470.4" x2="526" y2="470.4"/>
<line class="st5" x1="177.7" y1="354" x2="21" y2="527"/>
<line class="st5" x1="261.5" y1="354" x2="149.8" y2="558.9"/>
<line class="st5" x1="351.3" y1="354" x2="284.7" y2="577.7"/>
<line class="st5" x1="423.8" y1="353.8" x2="414.2" y2="587"/>
<polyline class="st5" points="-29,280.8 -43,396 21,409.5 "/>
<polygon class="st4" points="28,329.3 28,392.5 61.3,370.5 61.3,313.5 "/>
<line class="st16" x1="58.7" y1="245.8" x2="58.7" y2="228.1"/>
<line class="st16" x1="63.9" y1="221" x2="63.9" y2="242.9"/>
<line class="st16" x1="68.9" y1="240" x2="68.9" y2="222.8"/>
<line class="st16" x1="72.8" y1="239.2" x2="72.8" y2="219.2"/>
<polygon class="st4" points="68.9,310.7 69.8,363.2 100,343.7 100,296 "/>
<polygon class="st4" points="30.5,297.3 30.5,317 97.3,283.3 97.3,269.3 "/>
<polygon class="st31" points="63.9,269.3 56,266.8 53.5,250.5 63.9,241 "/>
<polygon class="st32" points="73.8,265.8 63.9,269.6 63.9,241 73.8,239 "/>
<line class="st16" x1="89.7" y1="183.7" x2="89.7" y2="250.7"/>
<ellipse class="st27" cx="144.1" cy="244.8" rx="1.9" ry="3.8"/>
<line class="st18" x1="237.9" y1="190.5" x2="237.8" y2="194.2"/>
<line class="st18" x1="196.4" y1="191" x2="196.4" y2="194.7"/>
</svg>
