<?xml version="1.0" encoding="utf-8"?>
<!-- Generator: Adobe Illustrator 22.1.0, SVG Export Plug-In . SVG Version: 6.00 Build 0)  -->
<svg version="1.1" xmlns="http://www.w3.org/2000/svg" xmlns:xlink="http://www.w3.org/1999/xlink" x="0px" y="0px"
	 viewBox="0 0 283.5 283.5" style="enable-background:new 0 0 283.5 283.5;" xml:space="preserve">
<style type="text/css">
	.st0{fill:#878787;}
	.st1{fill:none;stroke:#000000;stroke-width:0.7704;stroke-linecap:round;stroke-linejoin:round;stroke-miterlimit:10;}
	.st2{fill:none;stroke:#000000;stroke-linecap:round;stroke-linejoin:round;stroke-miterlimit:10;}
	.st3{fill:#A56B4E;stroke:#000000;stroke-miterlimit:10;}
	.st4{fill:#BB7A52;stroke:#000000;stroke-miterlimit:10;}
	.st5{fill:#92624E;stroke:#000000;stroke-width:1.1444;stroke-miterlimit:10;}
	.st6{fill:#706F6F;stroke:#000000;stroke-linecap:round;stroke-linejoin:round;stroke-miterlimit:10;}
	.st7{fill:#575756;stroke:#000000;stroke-width:0.6875;stroke-linecap:round;stroke-linejoin:round;stroke-miterlimit:10;}
	.st8{fill:#706F6F;stroke:#000000;stroke-width:0.749;stroke-linecap:round;stroke-linejoin:round;stroke-miterlimit:10;}
	.st9{fill:#9D9D9C;stroke:#000000;stroke-width:0.9606;stroke-linecap:round;stroke-linejoin:round;stroke-miterlimit:10;}
	.st10{fill:none;stroke:#D7E8F9;stroke-linecap:round;stroke-linejoin:round;stroke-miterlimit:10;}
	
		.st11{display:none;fill:#DADADA;stroke:#000000;stroke-width:0.9273;stroke-linecap:round;stroke-linejoin:round;stroke-miterlimit:10;}
	.st12{fill:#F0BF61;}
	.st13{fill:#706F6F;stroke:#000000;stroke-width:0.75;stroke-miterlimit:10;}
	.st14{fill:#3C3C3B;stroke:#000000;stroke-width:0.75;stroke-linecap:round;stroke-linejoin:round;stroke-miterlimit:10;}
	.st15{fill:#B2B2B2;stroke:#000000;stroke-width:0.75;stroke-linecap:round;stroke-linejoin:round;stroke-miterlimit:10;}
	.st16{fill:none;stroke:#000000;stroke-width:0.75;stroke-linecap:round;stroke-linejoin:round;stroke-miterlimit:10;}
	.st17{fill:#F9ECB7;stroke:#000000;stroke-width:0.75;stroke-linecap:round;stroke-linejoin:round;stroke-miterlimit:10;}
	.st18{fill:#FCF1CF;stroke:#000000;stroke-width:0.75;stroke-linecap:round;stroke-linejoin:round;stroke-miterlimit:10;}
	.st19{fill:#E5B969;stroke:#000000;stroke-width:0.75;stroke-linecap:round;stroke-linejoin:round;stroke-miterlimit:10;}
	.st20{fill:#B3B992;stroke:#000000;stroke-width:0.75;stroke-linecap:round;stroke-linejoin:round;stroke-miterlimit:10;}
	.st21{fill:#FAEAA7;stroke:#000000;stroke-width:0.75;stroke-linecap:round;stroke-linejoin:round;stroke-miterlimit:10;}
	.st22{fill:#EDEDED;}
	.st23{fill:#706F6F;stroke:#000000;stroke-miterlimit:10;}
	.st24{fill:#3C3C3B;stroke:#000000;stroke-linecap:round;stroke-linejoin:round;stroke-miterlimit:10;}
	.st25{fill:#B2B2B2;stroke:#000000;stroke-linecap:round;stroke-linejoin:round;stroke-miterlimit:10;}
	.st26{fill:#FCD4B6;}
	.st27{fill:#662127;}
	.st28{fill:#706F6F;}
	.st29{fill:#D7E8F9;}
	.st30{fill:#BD222E;}
	.st31{opacity:0.5;fill:#6D1513;}
	.st32{fill:#FFFFFF;}
</style>
<g id="Слой_1">
</g>
<g id="Слой_6">
	<g>
		<path class="st0" d="M73.2,165.3l-8.4-48.5l-3.4-15.9v-4.7l4.6-4.3l3.8-1.6l13.9-2.1l26.9,1.5l22,1.7c0,0,3.3,2.2,3.9,4.5
			c0.6,2.3,0.8,8.9,0.8,8.9l5.8,38.5l7.2,21.6L73.2,165.3z"/>
		<path class="st1" d="M111.5,90c0,0-54.8-8-50,11.2s11.7,64.2,11.7,64.2"/>
		<path class="st2" d="M127.6,91.9c0,0,10.5-3.6,9.7,11.1"/>
		<path class="st2" d="M142.9,142.4c0,0,6.4,21.4,7.5,22.6"/>
	</g>
</g>
<g id="Слой_3">
	<rect x="-0.1" y="198.5" class="st3" width="283.5" height="5.4"/>
	<rect x="-0.1" y="165.5" class="st4" width="283.5" height="32.3"/>
	<polygon class="st5" points="283.5,176.9 283.5,286.9 0.2,286.9 0.2,193.6 1.1,193.6 1.1,200.4 270.8,200.4 270.8,193.6 279,193.6 
		279,176.9 	"/>
</g>
<g id="Слой_4">
	<polyline class="st6" points="221.7,168.9 217.1,168 180.5,175.1 217.1,186.6 261.6,176.7 	"/>
	<polygon class="st7" points="216.6,188.5 180.5,176.5 180.1,175 216.7,186.6 	"/>
	<polygon class="st8" points="216.7,188.5 260.9,178.3 261.6,176.7 216.9,186.6 	"/>
	<g id="Слой_7">
		<path class="st9" d="M261.6,176.7l-44.5,9.5l13.4-47.9c0.6-2.1,2.5-3.6,4.7-3.7l31.9-1.4c2.3-0.1,4,2,3.5,4.2L261.6,176.7z"/>
		<line class="st10" x1="193.4" y1="148.5" x2="209.3" y2="151.6"/>
		<line class="st10" x1="201.3" y1="139.3" x2="211.3" y2="145.6"/>
		<line class="st10" x1="212.8" y1="130.1" x2="216.7" y2="144.1"/>
	</g>
	
		<ellipse transform="matrix(0.2274 -0.9738 0.9738 0.2274 46.8764 369.7155)" class="st11" cx="256.4" cy="155.3" rx="5.9" ry="5.1"/>
</g>
<g id="Слой_11">
	<g>
		<path class="st12" d="M46.5,160c-0.1,0.1-1.8,2.2-1.8,2.2l0.5,1.8l2.4,1.4c0,0,5.2,1.5,5.4,1.6s9.4,0,9.4,0s3.9-1.8,4-1.9
			c0.1-0.1,1.5-1.4,1.5-1.4l0-1.5c0,0-1.6-2.5-2.5-2.6c-1-0.1-3.4-1-3.4-1l-7.9-0.5L46.5,160z"/>
		<g>
			<path class="st13" d="M59.2,181.1L59.2,181.1c0.7,0.1,1.4-0.3,1.5-1l5.5-28.1c0.1-0.7-0.3-1.4-1-1.5h0c-0.7-0.1-1.4,0.3-1.5,1
				l-5.5,28.1C58,180.3,58.5,181,59.2,181.1z"/>
			<polygon class="st14" points="66.5,143.2 66.8,145.6 65.3,145.4 			"/>
			<path class="st15" d="M66.8,145.6l0.2,2l0.1,1.1c0.2,1.5-0.7,3.1-1.6,2.9l-0.7-0.1l-0.7-0.1c-0.9-0.2-1.1-2-0.4-3.3l0.6-1l1-1.7
				L66.8,145.6z"/>
			<line class="st16" x1="60.6" y1="166" x2="63.5" y2="166.6"/>
			<line class="st16" x1="60.9" y1="164.5" x2="63.8" y2="165.1"/>
		</g>
		<g>
			<path class="st17" d="M56.2,171.4l-4.6,1.2c-0.9,0.2-1.8-0.3-2-1.2l-7.2-27.1c-0.2-0.9,0.3-1.8,1.2-2l4.6-1.2
				c0.9-0.2,1.8,0.3,2,1.2l7.2,27.1C57.6,170.3,57.1,171.1,56.2,171.4z"/>
			<line class="st16" x1="47.7" y1="144.1" x2="50.1" y2="143.6"/>
			<line class="st16" x1="48.4" y1="146.3" x2="50.9" y2="145.8"/>
			<line class="st16" x1="49.2" y1="148.6" x2="51.6" y2="148.1"/>
			<line class="st16" x1="49.7" y1="150.9" x2="52.1" y2="150.4"/>
			<line class="st16" x1="50.2" y1="153.4" x2="52.6" y2="152.9"/>
			<line class="st16" x1="50.6" y1="155.6" x2="53" y2="155.1"/>
			<line class="st16" x1="51.1" y1="157.8" x2="53.5" y2="157.3"/>
			<line class="st16" x1="51.7" y1="160.2" x2="54.2" y2="159.7"/>
			<line class="st16" x1="52.9" y1="162.5" x2="55.4" y2="162"/>
			<line class="st16" x1="53.4" y1="164.7" x2="55.8" y2="164.2"/>
		</g>
		<g>
			<path class="st18" d="M60.5,154.4l-4.1,0c-0.6,0-1-0.5-1-1.2l0,0c0-0.6,0.5-1.2,1-1.2l4.1,0c0.6,0,1,0.5,1,1.2v0
				C61.5,153.9,61,154.4,60.5,154.4z"/>
			<polygon class="st19" points="60.4,171.2 55.6,171.1 56,153.9 60.8,153.9 			"/>
			<path class="st20" d="M60.8,152l-4.7-0.2l0.9-4.5c0.1-0.4,0.6-0.8,1.1-0.7l0.8,0c0.5,0,1,0.4,1,0.8L60.8,152z"/>
		</g>
		<path class="st21" d="M68.1,163.1l-3.9,28.2c-1.5,0.8-4,1.4-6.7,1.4c-0.2,0-0.3,0-0.5,0s-0.3,0-0.5,0c-2.9,0-5.5-0.6-7-1.5
			l-4.9-28.1h0c0.5,2.3,5.5,4.1,11.7,4.1S67.6,165.4,68.1,163.1L68.1,163.1z"/>
		<path class="st16" d="M54.7,158.2c0.5,0,0.5,0,0.9,0"/>
		<path class="st16" d="M46.4,160.4c-1.2,0.7-1.7,1.4-1.7,2.3c0,0.1,0,0.3,0,0.4c0,0.1,0.1,0.3,0.2,0.4c0,0.1,0.1,0.1,0.1,0.2
			c0.1,0.1,0.1,0.2,0.2,0.3c0.1,0.1,0.1,0.2,0.2,0.3c0.2,0.2,0.3,0.3,0.5,0.5c0.1,0.1,0.3,0.2,0.4,0.3c0.1,0.1,0.3,0.2,0.4,0.3
			c0,0,0.1,0.1,0.1,0.1c0.2,0.1,0.3,0.2,0.5,0.3c0,0,0.1,0,0.1,0c0.2,0.1,0.4,0.2,0.6,0.3c0,0,0,0,0.1,0c0.2,0.1,0.3,0.1,0.5,0.2
			c0.2,0.1,0.4,0.1,0.7,0.2c0.2,0.1,0.4,0.1,0.7,0.2c0,0,0.1,0,0.2,0c0,0,0.1,0,0.1,0c0.3,0.1,0.6,0.1,0.9,0.2
			c0.4,0.1,0.7,0.1,1.1,0.2c0.4,0.1,0.7,0.1,1.1,0.1c0,0,0,0,0,0c0.3,0,0.7,0.1,1,0.1c0.1,0,0.2,0,0.3,0c0.3,0,0.6,0,0.9,0
			c0,0,0.1,0,0.1,0c0.2,0,0.5,0,0.7,0c0.1,0,0.3,0,0.4,0c0.4,0,0.9,0,1.3,0c0.4,0,0.9-0.1,1.3-0.1c0.2,0,0.4,0,0.6-0.1
			c0.2,0,0.4,0,0.5-0.1c0,0,0.1,0,0.1,0c0.2,0,0.3,0,0.4-0.1c0.2,0,0.5-0.1,0.7-0.1c0.1,0,0.1,0,0.2,0c0,0,0,0,0,0
			c0.2,0,0.4-0.1,0.6-0.1c0.1,0,0.1,0,0.2-0.1c0,0,0.1,0,0.1,0v0c0,0,0.1,0,0.1,0c0.1,0,0.2-0.1,0.3-0.1c0.3-0.1,0.7-0.2,1-0.3
			c0.3-0.1,0.7-0.3,1-0.4c0.1,0,0.1-0.1,0.2-0.1c0.2-0.1,0.4-0.2,0.6-0.3c0,0,0.1,0,0.1-0.1c0.1-0.1,0.3-0.1,0.4-0.2
			c0.1-0.1,0.3-0.2,0.4-0.3c0.1-0.1,0.2-0.2,0.3-0.3s0.2-0.2,0.3-0.3c0.1-0.2,0.3-0.3,0.4-0.5c0.1-0.2,0.2-0.4,0.3-0.6
			c0-0.1,0-0.3,0-0.4c0-1.3-1-2.3-3.2-3.1"/>
		<path class="st16" d="M61.9,158.7c-0.5-0.1-0.4-0.1-0.9-0.2"/>
	</g>
</g>
<g id="Слой_8">
	<polygon class="st22" points="138.3,184.8 163.4,195.5 179.6,183.9 158.1,174.9 142.3,182.4 	"/>
	<g>
		<path class="st23" d="M139.2,190.7L139.2,190.7c0.4,0.6,1.2,0.8,1.8,0.4l24.3-15.3c0.6-0.4,0.8-1.2,0.4-1.8l0,0
			c-0.4-0.6-1.2-0.8-1.8-0.4l-24.3,15.3C139,189.3,138.8,190.1,139.2,190.7z"/>
		<polygon class="st24" points="171.8,170.1 170.3,171.9 169.4,170.7 		"/>
		<path class="st25" d="M170.3,171.9l-1.3,1.5l-0.7,0.9c-1,1.1-2.7,1.6-3.2,0.8l-0.4-0.6l-0.4-0.6c-0.5-0.8,0.7-2.2,2.1-2.5l1.1-0.3
			l1.9-0.5L170.3,171.9z"/>
		<line class="st2" x1="151.2" y1="181.4" x2="152.7" y2="183.9"/>
		<line class="st2" x1="152.4" y1="180.5" x2="154" y2="183"/>
	</g>
	<path class="st26" d="M127.2,184.8l4.1,0l7.6-0.4l2.8-1.2h2.9l3.5,1.2l5.9,2.1l0.5-0.3l0.2-1.4l1.6,0.8l0.5-0.8l0-0.9l0.5-2.4
		c0,0-0.7-3-2.2-4.1c-1.5-1.2-3.7-2.4-4.5-2.7s-3.4-0.9-3.4-0.9l-3,0.6l-13.6,4.5L127.2,184.8z"/>
	<path class="st26" d="M151.6,95.6h-4.7l-3.7-6.7l-0.6-2.8l0.6-2.4l-4-3.5l0.7-2.9l1.7,0.8l2.6,1.4l0-1.7l-3-10.1
		c0,0-0.4-1.4,0.9-1.1c1.2,0.3,1.5,1.4,1.5,1.4l-2-5.4c0,0,0.5-1,1.1-0.8c0.6,0.2,3.3,2.7,3.3,2.7l3.9,6.2l0.5,3L151.6,95.6z"/>
	<path class="st27" d="M111.1,84.9l-2.4-0.4l-3.9-1L103,83l-2.2-2.3l-1.2-3.6l0.9-3.7l0-2.1l-2.1-2.5l-2.2-2.6l-0.5-3.1l1.1-3.9
		l1.9-3.1l3-2.4l3.8-2.8l2-3.4l1.8-3.6l3.8-3.8L118,38l4.8-0.7l4.8,0.9c0,0,4,2,4.8,3.1s1.2,1.7,1.2,1.7l0.4-0.5l2.3,0.2l2.2,1.3
		l0.7,1.8l1,5.9l0.9,3.5l2.1,2.5l1.5,4l-0.2,0.6l-1.2-0.6l-1.6,0.8l0.7,2l1,2.3l-1.3-0.4l-0.7,0.4l0.4,1l-3.2-0.7v-3.7l-2.7-6.1
		l-12.3,0.1l-12.4,8.9L111.1,84.9z"/>
	<path class="st26" d="M125.3,98.5l1-5.6l3.7-3.6l3.4-5.7l3.5-11.7l0.5-2.4l0.8-1.1l0.4-3.7c0,0,0.6-4.8-1.6-7.4
		c-2.2-2.6-1.4-4.9-4.8-5.6l-1.6,1.7l-2.3,1.9l-2.3,0.4l-4.6,0.2l-3,1.5l-3.2,2.1l-2.1,0.6l-3.1,0.4l-1-0.6c0,0-1.8,0.6-2.2,1.1
		c-0.4,0.5-1.4,2.5-1.4,2.5s-0.2,2.5,0.2,3.7c0.4,1.2,1.4,3.4,1.4,3.4l1.7,2.7l-0.1,3.1l1.3,5.3l1.9,3.5l-0.3,3.5l-0.8,4.4l-2.6,4
		l2.8,2l7.2,4.9l3.1-2L125.3,98.5z"/>
	<polygon class="st28" points="138.4,83 142,70.4 141.2,67.6 138.9,67 137.4,69.5 134,82.5 135.4,83 138,83.5 	"/>
	<path class="st29" d="M126.2,186.5l-14.8-4.1l-4.6-1l-11.1-2.5c0,0-2.7-1.4-3.5-2.5c-0.8-1.1-5.1-6.5-7.8-26.7
		c-2.7-20.2-1.8-23-1.8-23l0.4-12.5l2.3-5.1l3.7-3.9l6.9-4.3l4.5-1.7l7.8-1.8l10,6.9l7.8-5.2l7.5,3.1l13.1,4.7l0.4-11.3l5.4,0.4
		l4.4,13.9l-1.2-0.3c0,0,5.7,27.5,5.7,28.8c0,1.2-0.6,6.6-2.2,7.7s-5.1,1.7-5.1,1.7l-3.5-1.7l-2.1-1.3l-6.7-2.8l4.3,23.1h-39.6
		l0.3,0.5l0.4,1.4l9.4,4.5l14.2,7.3L126.2,186.5z"/>
	<polygon class="st30" points="128.9,165 117.7,165 117.3,157.8 116.8,135.4 116.4,118.3 112.4,112.1 118.1,104.9 123.7,111.8 
		120.6,118.2 129.3,164.2 	"/>
	<path class="st31" d="M119.1,84.5l0.8,1.6l2.6,1.5c0,0,1.6-0.1,1.8,0s3.1-1.3,3.1-1.3l0.8-1.5l-1.8-1.3l-3.5-0.1l-3.3,0.6
		L119.1,84.5z"/>
	<path class="st32" d="M133.3,70.3c0.1-0.4-0.2-0.8-0.5-1.2c-0.2-0.4-0.5-0.7-0.8-0.9c-0.1,0-0.1-0.1-0.2,0
		c-0.1-0.1-0.1-0.2-0.2-0.3c0,0,0,0,0,0c-0.1-0.1-0.2-0.2-0.4-0.1c0,0,0,0,0,0c0,0,0,0,0,0c-0.1,0-0.2,0.1-0.2,0.3
		c0,0.1,0,0.1,0,0.2c-0.2,1,0.3,2.4,0.9,3.1c0.2,0.2,0.7,0.1,0.7-0.1c0.1-0.1,0.2-0.3,0.1-0.4c0,0,0,0,0,0c0,0,0,0,0,0
		C133,70.8,133.2,70.7,133.3,70.3z"/>
	<path class="st32" d="M135.2,71c-0.2-0.5-0.4-1-0.8-1.3c-0.3-0.2-0.9,0-0.9,0.4c0,0.4,0.2,0.7,0.4,1c-0.4,0.2-0.8,0.4-1.1,0.7
		c-0.3,0-0.4,0.4-0.1,0.5c0.5,0.2,0.9,0.3,1.4,0.2c0.5-0.1,1-0.4,1.3-0.7C135.9,71.5,135.6,71.1,135.2,71z"/>
	<path class="st32" d="M120.1,68.3c0.8-0.5,0.8-1.6-0.2-1.9c-0.5-0.2-1.2,0.3-0.9,0.9c-0.1,0-0.2,0-0.2,0c0,0,0,0,0,0
		c-0.5-0.2-1-0.4-1.6-0.5c-0.5-0.1-0.9,0.5-0.7,0.9c-0.1,0-0.3,0-0.4,0.1c-0.2,0.1-0.3,0.2-0.1,0.4c0.4,0.5,1.1,0.6,1.7,0.8
		c0.7,0.2,1.5,0.4,2.2,0.7c0.6,0.2,1.1-0.4,0.7-1C120.4,68.6,120.2,68.5,120.1,68.3z"/>
	<path class="st32" d="M124.5,67.3c0-0.3-0.2-0.5-0.4-0.6c-0.6-0.2-1.3-0.2-1.9,0c-0.2,0.1-0.4,0.4-0.3,0.7c0,0.1,0.1,0.2,0.2,0.3
		c0.2,0.2,0.4,0.2,0.7,0.2c-0.1,0.1-0.2,0.2-0.3,0.3c-0.3,0.3-0.7,0.6-1,0.9c-0.2,0.2,0,0.6,0.3,0.5c0,0,0,0,0,0
		c0,0.1,0.1,0.2,0.2,0.2c0.6,0,1.2-0.2,1.7-0.6c0.5-0.4,1-1,1-1.6C124.6,67.4,124.6,67.3,124.5,67.3z"/>
</g>
<g id="Слой_5">
	<polygon class="st2" points="126.2,186.5 111.4,182.4 117.3,171.4 130.6,178.9 	"/>
	<path class="st2" d="M116.4,171.4c0,0-8.5-3.9-11.5-5.5"/>
	<line class="st2" x1="100.4" y1="126.6" x2="107" y2="166.9"/>
	<path class="st2" d="M111.4,182.4c0,0-4.8-0.9-15.7-3.5s-14-48-13-62.6c0.6-8.9,9.4-14.1,16.2-16.8c4.3-1.7,9-1.8,9.2-1.8
		c0.6,0,10.3,6.8,10.3,6.8l7.4-5.9l6.8,3.3l-7.9,10.5l-6.6-7.6"/>
	<polyline class="st2" points="118.1,104.8 111.4,113 99.3,99.3 	"/>
	<polyline class="st2" points="112.4,112.1 116.4,118.2 120.3,118.2 123.7,112.1 	"/>
	<line class="st2" x1="116.4" y1="118.2" x2="117.2" y2="165"/>
	<path class="st2" d="M120.3,118.2c-0.2,0.6,9.1,46.8,9.1,46.8"/>
	<path class="st2" d="M139,120.6c0,0,4.1,40.3,7.8,44.8"/>
	<path class="st2" d="M132.7,101.9c0.6,0.6,11.7,3.5,13.8,5"/>
	<polygon class="st2" points="146.5,96 152.3,96 156.7,109.8 147.6,110.8 146.5,110.9 	"/>
	<path class="st2" d="M147,111.3c0,0-3.2,34,5.5,36.1c7.7,1.8,9.1-5.8,8.6-9.8c-0.6-4.1-5.2-27-5.2-27"/>
	<line class="st2" x1="142.1" y1="141.7" x2="150.4" y2="146"/>
	<path class="st2" d="M127.2,184.8c0,0,10.4,0.4,13.9-1.4s11.2,3.3,12.8,3.1s0.8-4.7-3.8-6.5c-3.3-1.3-3.3-1.3-3.3-1.3"/>
	<path class="st2" d="M130.4,178.8c0,0,14.7-5.1,16.3-5.1c1.7-0.1,12.2,2.5,10.5,10.3"/>
	<path class="st2" d="M149.3,175.7c0,0,6.5,3.6,7.4,7.7s-2,1.5-2,1.5"/>
	<line class="st16" x1="142.7" y1="186.5" x2="137.3" y2="184.4"/>
	<polyline class="st16" points="146.1,188.1 163.4,195.5 179.6,183.9 	"/>
	<line class="st16" x1="163.4" y1="177.3" x2="179.6" y2="183.9"/>
	<path class="st2" d="M110.3,60.6c0,0,3-0.3,4.9-1c1.8-0.7,4.4-3.6,6.2-3.6c1.8,0,5.3-0.1,6.9-0.7c2-0.7,10.5-10,2.4-15.5
		c-7.3-4.9-17.2-2.2-21.7,5.1c-0.6,1.1-1.1,2.2-1.5,3.4c-0.3,1-1.5,3.3-5.6,5.5c-5.5,3-7.2,10.7-5.2,12.9s4.6,5,3.7,7.6
		c-0.9,2.6,0,8.1,3.3,8.9c3.3,0.7,6.6,1.7,6.6,1.7"/>
	<path class="st2" d="M110.5,83c0,0,3.7,7.8-2.3,14.3"/>
	<line class="st2" x1="125.9" y1="93.3" x2="125.3" y2="99.1"/>
	<path class="st2" d="M107.6,63.7c0,0,2.8,3.7,2.7,5.2"/>
	<line class="st2" x1="107" y1="66.2" x2="109.3" y2="66.2"/>
	<path class="st2" d="M117.2,63.7c0,0,4.6-3.3,8.2-1.5"/>
	<path class="st2" d="M132.7,63.2c0,0,4.7,1.9,4.4,3.8"/>
	<path class="st2" d="M132.1,51.8c0,0,0.7-0.1,2.8,2.1c2,2.2,5.9,11.2,2.5,16.1"/>
	<path class="st2" d="M134,42.6c0,0,4-0.6,5,2.4c1,3,1,10,2.7,11.3c1.7,1.3,3.6,4.5,2.7,6.2"/>
	<path class="st2" d="M146.9,95.6l-4-7.1c-0.4-0.7-0.5-1.6-0.3-2.4l1.6-6.9c0.1-0.5,0.1-1,0-1.5L141.4,67c0,0,0.4-1.9,2.8,1.8
		c2.4,3.7,3.3,6.3,3.3,6.3"/>
	<path class="st2" d="M144.1,68.8c0,0-1.7-4-2.4-5.5c-0.3-0.6,0-1.3,0.6-1.4c0.5-0.1,1.2,0.1,2.1,0.9c2.3,2,5.3,7.9,5.8,9.4
		c0.6,1.5,1.4,23.4,1.4,23.4"/>
	<polyline class="st2" points="134,82.5 138.3,83.6 142,69.5 	"/>
	<path class="st2" d="M137.4,69.5c0,0-3.4,20.5-12.5,24.1c-2.4,0.9-5.1,0.3-7-1.3c-3.4-3-10.3-10-9.1-18.6c0.2-1.2-5.4-6.6-2.9-11.2
		c2.7-4.9,4.7-1.1,4.7-1.1"/>
	<line class="st2" x1="139.2" y1="80.1" x2="143.2" y2="83.6"/>
	<line class="st2" x1="140.2" y1="77.1" x2="144" y2="79.4"/>
	<path class="st2" d="M116.2,67.5c0,0,6.2-2,8.2-0.5"/>
	<path class="st2" d="M131.3,67.6c0,0,3.7,1.3,4.2,3.7"/>
	<path class="st2" d="M129.4,68c0,0-3.4,6.3-2.2,10.1c0.1,0.2,0,0.4-0.2,0.5c-0.9,0.3-2.6,0.6-3.9-0.8"/>
	<path class="st2" d="M118.9,84.2c0,0,6.1-1.9,9.2,0.9c0,0-1.9,4-5.6,2.6C118.9,86.3,118.9,84.2,118.9,84.2z"/>
	<ellipse cx="121.4" cy="68.4" rx="1.6" ry="2.1"/>
	<ellipse transform="matrix(0.1525 -0.9883 0.9883 0.1525 42.8406 191.3539)" cx="133" cy="70.7" rx="2.1" ry="1.6"/>
	<path class="st16" d="M133.7,43.8c0,0-7.3-1.9-6.8,0.4C127.4,46.5,133.7,43.8,133.7,43.8z"/>
	<path class="st16" d="M133.6,47.7c0,0-5.4-1.4-6.4,1.8S133.6,47.7,133.6,47.7z"/>
	<path class="st16" d="M134,44.1c0,0,6.9,2.7,4,3.5C136,48.2,134,44.1,134,44.1z"/>
	<path class="st16" d="M134,47.3c0,0,6.9,2.3,4.3,5.2C136.8,54.1,134,47.3,134,47.3z"/>
	<path class="st2" d="M167.5,192.6c1,0.5,1.6,1.2,1.4,1.9c-0.2,0.9-1.7,1.3-3.3,1c-0.5-0.1-1-0.3-1.4-0.5"/>
	<path class="st2" d="M172.2,189.9c1,0.5,1.6,1.2,1.4,1.9c-0.2,0.9-1.7,1.3-3.3,1c-0.5-0.1-1-0.3-1.4-0.5"/>
	<path class="st2" d="M176.3,187c1,0.5,1.6,1.2,1.4,1.9c-0.2,0.9-1.7,1.3-3.3,1c-0.5-0.1-1-0.3-1.4-0.5"/>
	<path class="st2" d="M180,183.9c1,0.5,1.6,1.2,1.4,1.9c-0.2,0.9-1.7,1.3-3.3,1c-0.5-0.1-1-0.3-1.4-0.5"/>
	<line class="st2" x1="138.6" y1="67" x2="141.2" y2="67.6"/>
	<polyline class="st16" points="155.1,176.5 158.1,174.9 160.1,175.7 	"/>
</g>
</svg>
