<?xml version="1.0" encoding="utf-8"?>
<!-- Generator: Adobe Illustrator 22.1.0, SVG Export Plug-In . SVG Version: 6.00 Build 0)  -->
<svg version="1.1" xmlns="http://www.w3.org/2000/svg" xmlns:xlink="http://www.w3.org/1999/xlink" x="0px" y="0px"
	 viewBox="0 0 283.5 283.5" style="enable-background:new 0 0 283.5 283.5;" xml:space="preserve">
<style type="text/css">
	.st0{fill:#798C54;}
	.st1{fill:#BC765B;}
	.st2{fill:#ACB57C;}
	.st3{fill:none;stroke:#000000;stroke-miterlimit:10;}
	.st4{fill:#EDCB94;stroke:#000000;stroke-miterlimit:10;}
	.st5{fill:#E59F67;stroke:#000000;stroke-linecap:round;stroke-linejoin:round;stroke-miterlimit:10;}
	.st6{fill:#E29277;}
	.st7{fill:none;stroke:#000000;stroke-linecap:round;stroke-linejoin:round;stroke-miterlimit:10;}
	.st8{fill:#FFD26B;}
	.st9{fill:#FFDB97;}
	.st10{fill:none;stroke:#000000;stroke-width:0.75;stroke-linecap:round;stroke-linejoin:round;stroke-miterlimit:10;}
	.st11{fill:#FEDB97;stroke:#000000;stroke-width:0.25;stroke-linecap:round;stroke-linejoin:round;stroke-miterlimit:10;}
	.st12{fill:#FDEBE1;}
	.st13{fill:#ADCEEA;}
	.st14{fill:#FDEBE1;stroke:#000000;stroke-miterlimit:10;}
	.st15{fill:#F1A69A;}
	.st16{fill:#C3D9F1;}
</style>
<g id="Слой_1">
</g>
<g id="Слой_3">
	<path class="st0" d="M154,203.9l2.4,13.8l2.3,4.6l7.9,8.2l5.6,3l3.2,0.7l3.4,3.4l3.9,2.7l5.2-0.3l5.9-3.1l2.2,0.7l3.6-0.4l4.7-2.5
		l5.3-5.1l4.7-6.3l4.2-7.1l2.2-4.8l1.8-7.6c0,0,1.4-11.6,0.8-13.2s-2.4-7.1-2.4-7.1l-2.9-4.2l-6.2-4.4l-3.9-1.1l-5.6-0.5l-4.4,0.5
		l-7,0.4l-5.6-0.9l-5.2-2.2l-6.3-1L168,171l-5.2,2.9c0,0-3.2,3.6-3.4,3.9c-0.2,0.3-2.6,5.1-2.7,5.5c-0.1,0.3-1.3,4.4-1.3,4.4l-1,6.1
		l-0.4,6.9V203.9z"/>
	<path class="st1" d="M186.9,181.3l-4.2-14.8l0.6-1.4l1.5-0.6c0,0,3.7-0.4,3.9,0s1.1,1.3,1.1,1.3l-0.8,15.5H186.9z"/>
	<path class="st2" d="M189.9,171.4l5.7,1.5l5.2-1.5l4.2-3.4l2.6-4.3c0,0,1.9-5.5,2-5.9c0.1-0.4,1-8.3,1-8.3l-1.6,0.9l-6.6,3l-7,3.3
		l-2.7,3.7l-2.3,7.5L189.9,171.4z"/>
	<path class="st3" d="M172.2,229.3c0,0,7.6,16.2,19.3,9.4c1.4-0.8,2.9-2,4.5-3.7"/>
	<path class="st3" d="M189.4,174.1c2.3,0.3,6,0.4,10.8-0.5c9.4-1.7,18.8,3.4,21.8,12.4c2,5.9,2.1,14.5-1.7,26.6
		c0,0-13.8,29.8-26.5,24.3"/>
	<path class="st3" d="M175.8,234.8c0,0-17.6-4-20.8-22.5c-3.1-18-0.2-51.4,29.4-39.7"/>
	<path class="st3" d="M180.7,178.2c0,0,4.3,5.3,16.7,3.2"/>
	<line class="st3" x1="182.7" y1="166.5" x2="186.9" y2="181.3"/>
	<line class="st3" x1="189.8" y1="166.5" x2="189" y2="181.3"/>
	<path class="st3" d="M189.8,171.3c0,0,1.2-13,6.6-15.4s13.5-5.7,14.1-6.5S209.8,178.7,189.8,171.3z"/>
	<ellipse class="st3" cx="186.3" cy="165.8" rx="3.6" ry="1.3"/>
	<path class="st3" d="M189.9,171c0,0,8.3-4.2,11.5-9.2"/>
	<g>
		<path class="st4" d="M204.6,137.9c-26.6,15.3-54.8,16.4-62.9,2.3c-6.5-11.2,1.8-28.7,18.9-43.1c5.6,6.8,14,17.1,17.2,21
			c0-0.1,2.9-19.7-11-25.8c2.6-1.9,5.4-3.7,8.4-5.4c0.9-0.5,1.7-1,2.6-1.4c5.5,6.7,15.2,18.6,18.7,22.9c0-0.2,3-20.6-12-26.2
			c4-1.8,8-3.3,11.9-4.4c5.6,6.8,13.8,16.8,16.9,20.7c0-0.1,2.2-15.2-6.6-23c14.6-2.2,26.6,0.8,31.5,9.2
			C246.2,98.6,231.2,122.5,204.6,137.9z"/>
		<path class="st5" d="M177.8,118.1c-3.2-3.9-11.6-14.2-17.2-21c1.9-1.6,4-3.2,6.2-4.8C180.7,98.4,177.8,118,177.8,118.1z"/>
		<path class="st5" d="M196.5,108.4c-3.5-4.3-13.2-16.2-18.7-22.9c2.2-1.2,4.5-2.3,6.7-3.3C199.4,87.8,196.5,108.2,196.5,108.4z"/>
		<path class="st5" d="M213.2,98.4c-3.1-3.9-11.3-13.8-16.9-20.7c3.5-1,6.9-1.8,10.2-2.3C215.4,83.2,213.2,98.3,213.2,98.4z"/>
	</g>
	<g>
		<g>
			<path class="st6" d="M75.9,263.8l-1.4-4.6c0,0,2.2-0.4,3.1-1.2c1-0.8,2.2-2,2.7-3.2c0.5-1.1,1-2.9,1.1-3.8
				c0.1-0.9-0.4-5.6-0.4-6.2c0-0.7,0.3-5.7,0.7-7.2c0.4-1.5,1.4-4.1,1.8-4.7c0.4-0.6,2.9-3.9,2.9-3.9l1.9-1.6c0,0,4.6-3.7,6.1-4.7
				c1.5-1.1,2.7-4,2.9-4.6s0.8-3.6,0.8-3.6l-1.5-3.3l3.6-2.2c0,0,1.5-0.7,1.4-1.4c-0.1-0.7-1.2-1.6-1.2-1.6l-1.7-0.8l-1.1,0.6
				l-2.4,4.5c0,0-2.3-0.6-3.2-0.5s-5.9,1.9-6.8,2.5c-0.9,0.6-7.7,6.5-7.7,6.5l-4.3,5.4l-3.8,6.4l-2.4,5.9c0,0-1.5,3.4-1.4,5
				s0.4,8.8,1.6,11.4s3.5,5.6,5,6.1l0.1,1.2l-1.1,2.2l0.1,1.5l1.1,0.7l1.8-0.1l1.1,0L75.9,263.8z"/>
			<path class="st7" d="M81.4,248.7c0,0-3-15.3,8-22c1-0.6,3.1-2.1,4-3c3.6-3.4,7.4-10.7,2.2-13.3c-9.9-5-31.6,19.3-29.5,36.3
				c2.1,16.9,11.3,12.9,13.7,9.3C82,252.5,81.4,248.7,81.4,248.7z"/>
			<path class="st7" d="M72.7,259.3l-1.4,3.9c-0.3,0.7,0.3,1.5,1.1,1.5l2.3-0.1c0.8,0,1.3-0.8,1-1.5l-1.4-3.9"/>
			<path class="st7" d="M95.2,209.7l2.4-3.9c0.4-0.6,1.1-0.8,1.7-0.4l1.6,0.9c0.8,0.5,0.9,1.7,0,2.2l-4.4,2.7"/>
			<path class="st7" d="M71,227.7c0,0,4.1-1.8,9.2,0.8"/>
			<path class="st7" d="M67.1,236.5c0,0,4-2.7,9.7-0.8"/>
			<path class="st7" d="M65.9,246.1c0,0,3.1-2.6,9.2-1"/>
			<path class="st7" d="M77.5,218.8c0,0,4.5-0.4,7.4,1.7"/>
		</g>
		<g>
			<path class="st6" d="M71.9,217.4l0.2-4c0,0,1.8,0.3,2.8,0c1-0.3,2.3-1,3-1.7c0.7-0.7,1.6-2,1.9-2.6c0.3-0.7,1.3-4.4,1.4-4.9
				c0.2-0.5,1.8-4.4,2.6-5.4s2.2-2.8,2.7-3.2s3.4-2.2,3.4-2.2l1.9-0.7c0,0,4.6-1.6,6-2s3.2-2.3,3.6-2.7c0.4-0.4,1.6-2.5,1.6-2.5
				l-0.2-3l3.5-0.7c0,0,1.4-0.1,1.5-0.7c0.1-0.6-0.5-1.5-0.5-1.5l-1.1-1.1l-1,0.2l-3.1,2.8c0,0-1.6-1.1-2.3-1.3s-5.1-0.2-5.9,0
				c-0.9,0.2-7.8,2.9-7.8,2.9l-4.9,3l-4.7,3.9l-3.5,3.9c0,0-2.1,2.2-2.5,3.5c-0.3,1.3-2.2,6.9-2,9.3c0.2,2.4,1.1,5.3,2.2,6.1l-0.3,1
				l-1.5,1.4l-0.4,1.2l0.7,0.9l1.4,0.4l0.9,0.3L71.9,217.4z"/>
			<path class="st7" d="M80.3,207.2c0,0,2-12.7,12.3-14.8c1-0.2,3-0.8,3.9-1.2c3.7-1.6,8.8-6.2,5.4-9.7c-6.3-6.7-30,6.1-33.1,19.9
				c-3.1,13.7,5.2,13.2,8,11.1S80.3,207.2,80.3,207.2z"/>
			<path class="st7" d="M70.6,213l-2.1,2.7c-0.4,0.5-0.2,1.3,0.4,1.5l1.8,0.6c0.6,0.2,1.2-0.2,1.2-0.9l0-3.4"/>
			<path class="st7" d="M102,180.8l3-2.3c0.4-0.3,1.1-0.3,1.4,0.1l1,1.2c0.5,0.6,0.2,1.6-0.6,1.7l-4.2,0.9"/>
			<path class="st7" d="M78.2,188c0,0,3.7-0.3,6.9,3.2"/>
			<path class="st7" d="M72.7,193.7c0,0,3.8-1,7.8,2.1"/>
			<path class="st7" d="M69,200.8c0,0,3.2-1.1,7.4,1.8"/>
			<path class="st7" d="M85.7,183c0,0,3.6,1,5.3,3.4"/>
		</g>
		<g>
			<path class="st6" d="M123.3,173.1l1.5,4.2c0,0-2,0.5-2.8,1.2c-0.9,0.7-2,2-2.4,3c-0.4,1-0.8,2.7-0.9,3.5s0.5,5.1,0.6,5.7
				s-0.1,5.3-0.4,6.7c-0.3,1.4-1.2,3.8-1.5,4.4s-2.6,3.7-2.6,3.7l-1.7,1.5c0,0-4.1,3.5-5.4,4.6c-1.3,1-2.3,3.7-2.5,4.3
				c-0.2,0.6-0.6,3.3-0.6,3.3l1.5,3l-3.3,2.2c0,0-1.4,0.7-1.3,1.3c0.2,0.7,1.1,1.4,1.1,1.4l1.6,0.7l1-0.6l2.1-4.3c0,0,2.2,0.5,3,0.4
				c0.8-0.1,5.3-1.9,6.2-2.5s6.9-6.3,6.9-6.3l3.8-5.1l3.3-6l2-5.5c0,0,1.3-3.2,1.1-4.7s-0.6-8.1-1.8-10.5c-1.2-2.4-3.4-5.1-4.8-5.4
				l-0.1-1.1l1-2.1l-0.1-1.4l-1.1-0.6l-1.6,0.1l-1,0.1L123.3,173.1z"/>
			<path class="st7" d="M118.8,187.2c0,0,3.3,14-6.6,20.5c-0.9,0.6-2.8,2.1-3.6,2.9c-3.2,3.2-6.5,10.1-1.6,12.3
				c9.3,4.3,28.5-18.9,26-34.4s-10.8-11.5-12.9-8.2C118.1,183.7,118.8,187.2,118.8,187.2z"/>
			<path class="st7" d="M126.4,177.1l1.1-3.6c0.2-0.7-0.3-1.4-1.1-1.3l-2.2,0.2c-0.7,0-1.1,0.8-0.9,1.4l1.4,3.5"/>
			<path class="st7" d="M107.3,223.6l-2.1,3.7c-0.3,0.5-1,0.7-1.6,0.5l-1.5-0.8c-0.8-0.4-0.9-1.5-0.1-2l4-2.6"/>
			<path class="st7" d="M129,206.2c0,0-3.7,1.8-8.5-0.5"/>
			<path class="st7" d="M132.3,198c0,0-3.6,2.6-8.9,1.1"/>
			<path class="st7" d="M133.1,189.1c0,0-2.8,2.5-8.4,1.2"/>
			<path class="st7" d="M123.3,214.6c0,0-4.1,0.5-6.9-1.3"/>
		</g>
	</g>
	<g>
		<path class="st8" d="M109.8,164l-49.5-3.2c0,0-7.9-10.5-7.8-11.4c0.1-0.9-3.3-11.2-2-14.4l5.6,1l14.6,1.6l41.9,4.7v5l-3-0.1
			c0,0-2.8,0.7-2.8,1s-0.8,1.9-0.6,2.4c0.2,0.5,0.5,1.9,0.9,2.2c0.4,0.3,1.4,0.8,1.4,0.8l2.4-0.3v4.8l-1.4-0.4l-1.7,0.2
			c0,0-1.2,0.8-1.2,1.4c0,0.6,0.1,1.8,0.1,1.8l0.7,0.9l2.2,0.2V164z"/>
		<path class="st9" d="M111.4,142.2L50.6,135c0,0-0.9-2.3-0.7-3.4c0.2-1.1,1.7-3,1.7-3l0.2-0.6c1.5-2.6,3.5-4.9,6-6.6l0.7-0.2
			l2.9-1.8l2,0.5l48,21.6V142.2z"/>
		<path class="st10" d="M113,142.3l-61.3-6.8c-1.1-0.1-1.8-1-1.8-2.1c0.1-4.4,6.6-12.3,12.2-14L113,142.3z"/>
		<path class="st10" d="M112.7,142.3v5c0,0-6.7-1.3-6.4,3.4c0.3,4,4.7,2.6,4.7,2.6v4.8c0,0-4.1-2.2-4.4,1.7
			c-0.2,3.1,3.1,2.3,3.1,2.3v1.8l-49.5-3.2c0,0-10.9-11.2-9.7-25.3"/>
		<circle class="st11" cx="64.5" cy="153.7" r="5.6"/>
		<circle class="st11" cx="83.1" cy="154.6" r="4.6"/>
		<circle class="st11" cx="68.6" cy="141.8" r="2.8"/>
		<circle class="st11" cx="56.5" cy="142.2" r="2.8"/>
		<circle class="st11" cx="98.6" cy="153.8" r="2.8"/>
		<circle class="st11" cx="105.5" cy="144.6" r="2.1"/>
		<circle class="st11" cx="91.2" cy="142.5" r="2.1"/>
	</g>
	<g>
		<path class="st12" d="M127,50.5l-7.2-9.1c0,0-2.3-3.9-2.3-4.1c0-0.2,1.3-2.3,1.3-2.3l4.2,1l3.2-0.4l3.7-2.3l2-0.5l3,1l2.4,1.7
			l1.3,0.7l1.3-0.3l2,0.8v1.5l-6,11l-9.2,2.1L127,50.5z"/>
		<path class="st12" d="M128.3,80.9l-6,10.1l-0.9,2.6l0.4,1.9l1,0.6c0,0,1.4,0,1.6,0s3.3-1.1,3.3-1.1l2.1,0.5l4.5,1.7l2.4,0.2
			l2.3-0.5l1.6-1.8l0.7-1.1l1.7-0.9l2.4-0.6l1.4-0.5l0.5-1.3l-0.5-2.1l-7.4-8.2l-2.2,1l-3.8,0.6l-2.8-0.2L128.3,80.9z"/>
		<polygon class="st13" points="107.4,105 109.5,126.2 110.3,128.4 112,128.4 114.4,127.4 115.8,124.9 115.9,122.6 117,124.4 
			119.2,126.9 122.2,126.9 125.6,125.8 128.6,122.7 129.8,121 129.9,119.2 131.3,117.5 132.6,115.1 133.5,114.3 136.7,114.2 
			139.1,113.6 140.1,113 140.4,111.3 139.6,109.8 116.7,97 		"/>
		<polygon class="st13" points="76,65.6 85.9,57.9 85.3,54.8 83.3,41 83.4,39.2 82.7,39.3 81,39.7 79.1,39.7 77.2,40.4 76.4,41.8 
			73.6,38.6 72.5,38.4 70.7,38.1 67.7,34.8 65.8,34.5 63.7,35.3 62.5,38.2 61.7,45.6 60.3,45.3 59.2,45.2 59.2,46.4 59.9,48.6 
			59.9,50.9 59.1,51.3 57.1,51.7 54.5,51.5 52.5,52.5 52.3,54.1 53.4,55.4 58.4,57.9 		"/>
		<ellipse class="st14" cx="133.3" cy="65.6" rx="13.6" ry="16.4"/>
		<circle class="st15" cx="138.9" cy="56.6" r="3"/>
		<circle class="st15" cx="125.1" cy="42.3" r="2.6"/>
		<circle class="st15" cx="138.2" cy="85.8" r="2.6"/>
		<circle class="st15" cx="136.5" cy="94.4" r="1.9"/>
		<circle class="st15" cx="131.6" cy="35.9" r="2.6"/>
		<circle class="st15" cx="132.6" cy="45" r="1.8"/>
		<circle class="st15" cx="131.7" cy="64.6" r="1.8"/>
		<circle class="st15" cx="127.5" cy="90.9" r="2.6"/>
		<path class="st7" d="M107.3,104.4c0,0,1.8,22,2.6,23.4c0.8,1.3,6.6,1.2,5.9-5.2"/>
		<path class="st7" d="M113.7,117.9c0,0,3.3,7.8,4.7,8.2c1.3,0.3,2.6,1.2,4.7,0.7c2.1-0.5,2.7-0.7,4.8-3.2s4.2-3.3-3.2-11.5"/>
		<path class="st7" d="M116.7,97l23.3,13.5c0,0,1.8,2.2-1.7,3.3s-5.5-0.3-5.8,1.2c-0.3,1.5-2.5,4.1-2.7,4.2"/>
		<path class="st7" d="M76.5,65.6c0,0-21.9-9.1-23.3-10.7c-1.8-2.2,0.7-3.8,3.3-3.3c2.7,0.5,3.3-0.3,3.8-1.3
			c0.9-1.7-2.8-5.9,0.2-5.1c3,0.8,10.6,9.6,10.6,9.6"/>
		<path class="st7" d="M62.1,46c0,0,0.3-10,2.4-11c2.2-1,3.7-0.8,4.8,1.2c1.2,2,2.3,2.3,4,2.2c1.7-0.2,6.2,7.2,6.9,11.5"/>
		<path class="st7" d="M76.8,41.2c0,0,1.3-1.8,3.4-1.5c2.1,0.3,3.9-1.7,3.5,0.7c-0.3,2.3,2.5,17,2.5,17"/>
		<path class="st7" d="M135.9,49.2c0,0,3.3-5.8,5.6-9.1c2.3-3.3-0.8-4.7-2.1-4c-1.3,0.7-2.2-1-5.1-2.7c-2.9-1.7-5.6,0.5-6.6,1.4
			s-4.7,1.9-7,0.4s-3.8,1.7-3,3.3c0.8,1.7,9.6,12.3,9.6,12.3"/>
		<path class="st7" d="M128.6,81c0,0-9.4,12.2-6.8,14.5c2.6,2.3,5.2-2,8.1,0c2.8,2,9.3,3,10.7,0s1.8-1.8,6.4-3.5
			c3-1.1-7.8-11.6-7.8-11.6"/>
		<circle class="st15" cx="126.7" cy="57.9" r="4.3"/>
		<circle class="st15" cx="125.6" cy="72" r="3"/>
		<circle class="st15" cx="139.2" cy="70.7" r="4.3"/>
		<g>
			<polygon class="st16" points="76.9,65.3 76.9,83.1 80.7,88 80.7,62.4 			"/>
			<path class="st16" d="M100.6,63.1v44.7c1.5-0.1,3-0.6,4.3-1.6V68.7L100.6,63.1z"/>
			<polygon class="st16" points="82.9,60.7 82.9,90.8 86.4,95.3 86.4,57.9 			"/>
			<path class="st16" d="M97.7,59.4c-0.9-1.1-2-2-3.2-2.5v48.7c1.1,1.1,2.5,1.8,4,2.1V60.3L97.7,59.4z"/>
			<path class="st16" d="M88.5,56.8v41.3l3.8,4.9V56.3C91.1,56.2,89.8,56.3,88.5,56.8z"/>
			<path class="st16" d="M118.2,85.7l-4.9-6.3v20.4l3.5-2.7C120.3,94.3,120.9,89.2,118.2,85.7z"/>
			<polygon class="st16" points="107.1,71.4 106.7,105.6 111.1,101.4 111.1,76.6 			"/>
			<path class="st16" d="M74.7,67.1c-3.5,2.7-4.2,7.8-1.4,11.3l1.5,1.9L74.7,67.1L74.7,67.1z"/>
		</g>
		<path class="st3" d="M117.9,96.1l-12.1,10.2c-3.2,2.7-8,2.3-10.7-0.9L72.8,79c-2.7-3.2-2.3-8,0.9-10.7l12.1-10.2
			c3.2-2.7,8-2.3,10.7,0.9l22.3,26.4C121.5,88.6,121.1,93.4,117.9,96.1z"/>
	</g>
</g>
</svg>
