<?xml version="1.0" encoding="utf-8"?>
<!-- Generator: Adobe Illustrator 23.1.0, SVG Export Plug-In . SVG Version: 6.00 Build 0)  -->
<svg version="1.1" id="Слой_1" xmlns="http://www.w3.org/2000/svg" xmlns:xlink="http://www.w3.org/1999/xlink" x="0px" y="0px"
	 viewBox="0 0 283.5 283.5" style="enable-background:new 0 0 283.5 283.5;" xml:space="preserve">
<style type="text/css">
	.st0{fill:#E1F2FA;}
	.st1{fill:#1D1D1B;}
	.st2{fill:#FDE1C3;}
	.st3{fill:#32A572;}
	.st4{fill:none;stroke:#32A572;stroke-linecap:round;stroke-linejoin:round;stroke-miterlimit:10;}
	.st5{fill:#FFFFFF;}
	.st6{opacity:0.47;fill:#ADDDF8;}
	.st7{fill:#BCBCBC;}
	.st8{fill:#D3D2D2;}
	.st9{fill:none;stroke:#739A90;stroke-width:0.75;stroke-linecap:round;stroke-linejoin:round;stroke-miterlimit:10;}
</style>
<path class="st0" d="M104.9,81.4c-0.7-3.4-3.7-5.9-7.3-5.9c-3.5,0-6.4,2.4-7.2,5.7c-0.3,0-0.5-0.1-0.8-0.1c-3.3,0-5.9,2.7-5.9,5.9
	c0,3.3,2.7,5.9,5.9,5.9c2.3,0,4.2-1.3,5.2-3.1c0.9,0.3,1.8,0.5,2.8,0.5c0.3,0,0.5-0.1,0.7-0.1c1,1,2.4,1.6,3.9,1.6
	c3.1,0,5.6-2.5,5.6-5.6C107.9,84.1,106.7,82.3,104.9,81.4z"/>
<path class="st1" d="M89.6,93.4c-3.5,0-6.4-2.9-6.4-6.4s2.9-6.4,6.4-6.4c0.2,0,0.3,0,0.5,0c1-3.3,4-5.7,7.5-5.7c3.6,0,6.8,2.5,7.7,6
	c1.9,1.1,3,3.1,3,5.2c0,3.3-2.7,6.1-6.1,6.1c-1.5,0-2.9-0.6-4.1-1.6l0,0c-1,0.1-2.1,0-3.2-0.4C93.9,92.3,91.8,93.4,89.6,93.4z
	 M89.6,81.5c-3,0-5.5,2.5-5.5,5.5s2.5,5.5,5.5,5.5c2,0,3.9-1.1,4.8-2.9l0.2-0.3l0.4,0.1c1,0.4,2.1,0.6,3.1,0.5l0.5-0.1l0.1,0.1
	c1,0.9,2.3,1.5,3.6,1.5c2.9,0,5.2-2.3,5.2-5.2c0-1.9-1.1-3.6-2.8-4.6l-0.2-0.1l0-0.2c-0.7-3.2-3.6-5.5-6.9-5.5c-3.2,0-6,2.2-6.8,5.4
	l-0.1,0.4l-0.5-0.1C90,81.6,89.8,81.5,89.6,81.5z"/>
<path class="st0" d="M111.7,103.4c2.6-2.3,3.3-6.1,1.5-9.2c-1.7-3.1-5.3-4.4-8.5-3.5c-0.1-0.2-0.2-0.5-0.3-0.7
	c-1.6-2.9-5.3-3.9-8.1-2.2c-2.9,1.6-3.9,5.3-2.2,8.1c1.1,2,3.2,3,5.3,3c0.1,0.9,0.4,1.8,0.9,2.7c0.1,0.2,0.3,0.4,0.4,0.6
	c-0.4,1.4-0.2,2.9,0.5,4.2c1.5,2.7,5,3.6,7.7,2.1C110.8,107.4,111.8,105.4,111.7,103.4z"/>
<path class="st1" d="M106.1,109.6c-2.1,0-4.2-1.1-5.3-3.1c-0.7-1.3-1-2.8-0.6-4.3l0,0c-0.1-0.1-0.2-0.3-0.3-0.5
	c-0.4-0.8-0.7-1.6-0.9-2.5c-2.2-0.1-4.2-1.3-5.3-3.2c-1.7-3.1-0.7-7,2.4-8.7c1.5-0.8,3.2-1.1,4.8-0.6c1.6,0.5,3,1.5,3.9,3
	c0.1,0.1,0.1,0.3,0.2,0.4c3.4-0.8,6.9,0.7,8.6,3.8c1.8,3.1,1.2,7.2-1.5,9.6c0,2.2-1.2,4.2-3,5.2
	C108.2,109.4,107.2,109.6,106.1,109.6z M99.7,98.4l0.1,0.4c0.1,0.9,0.4,1.8,0.8,2.5c0.1,0.1,0.2,0.2,0.3,0.4l0.3,0.4l0,0.2
	c-0.3,1.3-0.2,2.7,0.5,3.9c1.4,2.5,4.6,3.4,7.1,2c1.7-0.9,2.7-2.7,2.6-4.7l0-0.2l0.1-0.1c2.4-2.2,3-5.8,1.4-8.7
	c-1.6-2.8-4.9-4.2-8-3.3l-0.4,0.1l-0.2-0.5c-0.1-0.2-0.1-0.3-0.2-0.5c-1.5-2.6-4.9-3.6-7.5-2.1c-2.6,1.5-3.6,4.9-2.1,7.5
	c1,1.7,2.8,2.8,4.9,2.8L99.7,98.4z"/>
<path class="st2" d="M98.8,93.8c0,0,8.7-8.3,10.4-8.5c2-0.3,3,1.3,2.3,2.9s-8.8,9.4-8.8,9.4L98.8,93.8z"/>
<path class="st1" d="M102.7,98c-0.1,0-0.2,0-0.3-0.1l-3.9-3.7c-0.1-0.1-0.1-0.2-0.1-0.3c0-0.1,0-0.2,0.1-0.3
	c1.5-1.4,8.9-8.4,10.6-8.6c1.1-0.2,2,0.2,2.6,0.9c0.5,0.7,0.6,1.7,0.2,2.6c-0.7,1.6-8.1,8.7-8.9,9.5C102.9,97.9,102.8,98,102.7,98z
	 M99.4,93.8l3.3,3.1c3.2-3.1,7.9-7.9,8.4-8.9c0.3-0.6,0.3-1.3-0.1-1.7c-0.4-0.5-1-0.7-1.8-0.6C108.1,85.9,102.8,90.6,99.4,93.8z"/>
<path class="st2" d="M103.7,99.1c0,0,10.1-9.9,11.2-10.8c1.7-1.3,4.8,0.4,3.5,3.2c-1.3,2.7-10.5,12-10.5,12L103.7,99.1z"/>
<path class="st1" d="M107.9,103.9c-0.2,0-0.2,0-0.3-0.1l-4.2-4.3c-0.2-0.2-0.2-0.4,0-0.6c0.4-0.4,10.1-10,11.3-10.9
	c1-0.7,2.5-0.7,3.5,0.1c0.8,0.7,1.4,1.9,0.6,3.6c-1.3,2.8-10.2,11.7-10.6,12.1C108.1,103.8,108,103.9,107.9,103.9z M104.3,99.1
	l3.6,3.7c1.6-1.6,9-9.2,10.1-11.5c0.7-1.4-0.1-2.2-0.4-2.5c-0.6-0.5-1.6-0.7-2.4-0.1C114.3,89.3,107.9,95.6,104.3,99.1z"/>
<path class="st2" d="M110.3,103.7c0,0,6.8-8.1,7.9-8.4c1.3-0.3,2.9,0.9,2,3c-0.9,2.2-6.2,8.7-6.2,8.7L110.3,103.7z"/>
<path class="st1" d="M114.1,107.5c-0.1,0-0.2,0-0.3-0.1l-3.7-3.3c-0.2-0.2-0.2-0.4,0-0.6c1.6-1.9,7-8.2,8.2-8.5
	c0.8-0.2,1.7,0.1,2.3,0.7c0.4,0.4,0.9,1.4,0.3,2.9c-0.9,2.2-6,8.5-6.3,8.8C114.4,107.4,114.2,107.5,114.1,107.5
	C114.1,107.5,114.1,107.5,114.1,107.5z M110.9,103.7l3.1,2.7c1.1-1.4,5.1-6.4,5.9-8.2c0.3-0.8,0.3-1.5-0.1-2
	c-0.3-0.4-0.9-0.6-1.4-0.5C117.7,96,114.1,99.9,110.9,103.7z"/>
<polygon class="st3" points="153.9,92.5 151.1,93.5 147,91.5 157.9,106.3 155.3,88.2 "/>
<path class="st4" d="M120.4,69.8c0.7-0.3,24.5,0.9,32.5,24.2"/>
<polygon class="st3" points="146,188 147.4,190.6 146.1,195 159,181.9 141.5,187.3 "/>
<path class="st4" d="M128.9,224.7c-0.4-0.7-3-24.3,18.7-35.9"/>
<circle class="st0" cx="71.2" cy="82.1" r="5.7"/>
<path class="st1" d="M71.2,88.3c-3.4,0-6.2-2.8-6.2-6.2c0-3.4,2.8-6.2,6.2-6.2c3.4,0,6.2,2.8,6.2,6.2C77.3,85.5,74.6,88.3,71.2,88.3
	z M71.2,76.8c-2.9,0-5.3,2.4-5.3,5.3c0,2.9,2.4,5.3,5.3,5.3c2.9,0,5.3-2.4,5.3-5.3C76.5,79.2,74.1,76.8,71.2,76.8z"/>
<circle class="st0" cx="140.2" cy="122.2" r="5.7"/>
<path class="st1" d="M140.2,128.3c-3.4,0-6.2-2.8-6.2-6.2c0-3.4,2.8-6.2,6.2-6.2s6.2,2.8,6.2,6.2
	C146.3,125.6,143.6,128.3,140.2,128.3z M140.2,116.9c-2.9,0-5.3,2.4-5.3,5.3c0,2.9,2.4,5.3,5.3,5.3s5.3-2.4,5.3-5.3
	C145.5,119.2,143.1,116.9,140.2,116.9z"/>
<path class="st0" d="M133.3,109.5c0-2.3-1.8-4.1-4.1-4.1c-0.8,0-1.6,0.3-2.3,0.7c-0.5-2.7-2.8-4.8-5.6-4.8c-1.7,0-3.3,0.8-4.3,2
	c-0.8-1.7-2.5-2.9-4.6-2.9c-2.8,0-5.1,2.3-5.1,5.1c0,2.6,2,4.7,4.5,5c-0.1,0.4-0.1,0.8-0.1,1.3c0,3.2,2.6,5.7,5.7,5.7
	c0.7,0,1.4-0.2,2.1-0.4c0.7,0.9,1.7,1.5,2.8,1.8c0.8,1.7,2.6,3,4.6,3c2.8,0,5.1-2.3,5.1-5.1c0-1.3-0.5-2.5-1.3-3.4
	C132.2,112.7,133.3,111.3,133.3,109.5z"/>
<path class="st1" d="M127,122.3c-2.1,0-4-1.2-4.9-3c-1-0.3-2-0.9-2.7-1.6c-0.6,0.2-1.3,0.3-2,0.3c-3.4,0-6.2-2.8-6.2-6.2
	c0-0.3,0-0.6,0.1-0.9c-2.5-0.5-4.4-2.8-4.4-5.4c0-3,2.5-5.5,5.5-5.5c1.9,0,3.6,1,4.6,2.6c1.1-1.1,2.7-1.7,4.2-1.7
	c2.8,0,5.2,1.9,5.9,4.6c0.6-0.3,1.3-0.4,2-0.4c2.5,0,4.5,2,4.5,4.5c0,1.7-0.9,3.2-2.4,4c0.7,0.9,1.1,2.1,1.1,3.3
	C132.5,119.8,130,122.3,127,122.3z M119.7,116.6l0.2,0.2c0.7,0.8,1.6,1.4,2.6,1.6l0.2,0l0.1,0.2c0.8,1.6,2.4,2.7,4.2,2.7
	c2.6,0,4.7-2.1,4.7-4.7c0-1.1-0.4-2.3-1.2-3.1l-0.4-0.5l0.6-0.2c1.4-0.6,2.4-1.9,2.4-3.4c0-2-1.6-3.7-3.7-3.7c-0.7,0-1.4,0.2-2,0.6
	l-0.6,0.4l-0.1-0.7c-0.4-2.6-2.6-4.4-5.2-4.4c-1.5,0-3,0.7-4,1.8l-0.4,0.5l-0.3-0.6c-0.8-1.6-2.4-2.6-4.2-2.6
	c-2.6,0-4.7,2.1-4.7,4.7c0,2.3,1.8,4.3,4.1,4.6l0.5,0.1l-0.1,0.5c-0.1,0.4-0.1,0.8-0.1,1.2c0,2.9,2.4,5.3,5.3,5.3
	c0.6,0,1.3-0.1,1.9-0.4L119.7,116.6z"/>
<circle class="st0" cx="128.3" cy="93" r="5.7"/>
<path class="st1" d="M128.3,99.1c-3.4,0-6.2-2.8-6.2-6.2s2.8-6.2,6.2-6.2c3.4,0,6.2,2.8,6.2,6.2S131.7,99.1,128.3,99.1z M128.3,87.7
	c-2.9,0-5.3,2.4-5.3,5.3c0,2.9,2.4,5.3,5.3,5.3c2.9,0,5.3-2.4,5.3-5.3C133.6,90,131.2,87.7,128.3,87.7z"/>
<circle class="st0" cx="146.1" cy="206.9" r="5.9"/>
<path class="st1" d="M146.1,213.2c-3.5,0-6.3-2.8-6.3-6.3c0-3.5,2.8-6.3,6.3-6.3s6.3,2.8,6.3,6.3
	C152.5,210.4,149.6,213.2,146.1,213.2z M146.1,201.4c-3,0-5.4,2.4-5.4,5.4c0,3,2.4,5.4,5.4,5.4s5.4-2.4,5.4-5.4
	C151.6,203.9,149.1,201.4,146.1,201.4z"/>
<circle class="st0" cx="218.6" cy="177.2" r="6.8"/>
<path class="st1" d="M218.6,184.5c-4,0-7.2-3.3-7.2-7.2c0-4,3.3-7.2,7.2-7.2c4,0,7.2,3.3,7.2,7.2
	C225.8,181.2,222.6,184.5,218.6,184.5z M218.6,170.9c-3.5,0-6.4,2.9-6.4,6.4c0,3.5,2.9,6.4,6.4,6.4c3.5,0,6.4-2.9,6.4-6.4
	C225,173.7,222.1,170.9,218.6,170.9z"/>
<circle class="st0" cx="229.3" cy="165" r="2.9"/>
<path class="st1" d="M229.3,168.3c-1.8,0-3.3-1.5-3.3-3.3c0-1.8,1.5-3.3,3.3-3.3c1.8,0,3.3,1.5,3.3,3.3
	C232.6,166.9,231.1,168.3,229.3,168.3z M229.3,162.6c-1.4,0-2.5,1.1-2.5,2.5c0,1.4,1.1,2.5,2.5,2.5s2.5-1.1,2.5-2.5
	C231.8,163.7,230.7,162.6,229.3,162.6z"/>
<circle class="st0" cx="150.1" cy="201.2" r="3.9"/>
<path class="st1" d="M150.1,205.5c-2.4,0-4.3-1.9-4.3-4.3c0-2.4,1.9-4.3,4.3-4.3c2.4,0,4.3,1.9,4.3,4.3
	C154.5,203.6,152.5,205.5,150.1,205.5z M150.1,197.8c-1.9,0-3.5,1.6-3.5,3.5c0,1.9,1.6,3.5,3.5,3.5s3.5-1.6,3.5-3.5
	C153.6,199.3,152.1,197.8,150.1,197.8z"/>
<circle class="st0" cx="147" cy="229.8" r="3.9"/>
<path class="st1" d="M147,234.1c-2.4,0-4.3-1.9-4.3-4.3c0-2.4,1.9-4.3,4.3-4.3c2.4,0,4.3,1.9,4.3,4.3
	C151.3,232.2,149.4,234.1,147,234.1z M147,226.3c-1.9,0-3.5,1.6-3.5,3.5c0,1.9,1.6,3.5,3.5,3.5c1.9,0,3.5-1.6,3.5-3.5
	C150.4,227.9,148.9,226.3,147,226.3z"/>
<path class="st0" d="M163.2,224.8c0.1-0.3,0.1-0.7,0.1-1.1c0-2-1.1-3.8-2.8-4.7c1.8-0.5,3.1-2.2,3.1-4.1c0-2.4-1.9-4.3-4.3-4.3
	c-2.1,0-3.9,1.6-4.3,3.6c-1.7,0.4-3,1.9-3,3.8c0,1.2,0.5,2.2,1.4,3c-0.5,0.8-0.8,1.8-0.8,2.8c0,2.7,2,4.9,4.5,5.3
	c-0.1,0.4-0.2,0.9-0.2,1.4c0,3.1,2.5,5.6,5.6,5.6s5.6-2.5,5.6-5.6C168.2,227.5,166,225.1,163.2,224.8z"/>
<path class="st1" d="M162.5,236.4c-3.3,0-6.1-2.7-6.1-6.1c0-0.3,0-0.7,0.1-1c-2.6-0.6-4.4-2.9-4.4-5.6c0-0.9,0.2-1.9,0.7-2.7
	c-0.8-0.8-1.3-1.9-1.3-3c0-1.9,1.2-3.5,3-4.1c0.5-2.1,2.4-3.7,4.6-3.7c2.6,0,4.8,2.1,4.8,4.8c0,1.8-1,3.4-2.6,4.2
	c1.4,1.1,2.3,2.8,2.3,4.6c0,0.2,0,0.5,0,0.7c2.8,0.5,4.9,3,4.9,5.9C168.6,233.7,165.9,236.4,162.5,236.4z M159.2,211
	c-1.9,0-3.5,1.4-3.8,3.2l0,0.3l-0.3,0.1c-1.5,0.4-2.6,1.8-2.6,3.3c0,1,0.5,2,1.2,2.6l0.3,0.2l-0.2,0.3c-0.5,0.8-0.7,1.7-0.7,2.6
	c0,2.4,1.7,4.5,4.2,4.8l0.5,0.1l-0.1,0.5c-0.1,0.5-0.2,0.9-0.2,1.3c0,2.9,2.3,5.2,5.2,5.2c2.9,0,5.2-2.3,5.2-5.2
	c0-2.6-2-4.8-4.6-5.1l-0.5-0.1l0.1-0.5c0.1-0.3,0.1-0.7,0.1-1c0-1.8-1-3.4-2.6-4.3l-0.9-0.5l1-0.3c1.7-0.5,2.8-2,2.8-3.7
	C163.1,212.8,161.4,211,159.2,211z"/>
<path class="st0" d="M234.9,200.9c0-3.6-2.9-6.6-6.6-6.6c-0.2,0-0.3,0-0.5,0c-0.7-1.6-2.3-2.8-4.2-2.8c-2.5,0-4.6,2.1-4.6,4.6
	c0,1.1,0.4,2.1,1,2.9c-1.7,1-2.8,2.8-2.8,4.9c0,2.7,1.9,4.9,4.3,5.6c-0.1,0.4-0.2,0.8-0.2,1.2c0,2.8,2.3,5,5,5c2.8,0,5-2.3,5-5
	c0-1.4-0.6-2.7-1.5-3.6C232.9,206.4,234.9,203.9,234.9,200.9z"/>
<path class="st1" d="M226.6,216.2c-3,0-5.5-2.5-5.5-5.5c0-0.3,0-0.6,0.1-0.9c-2.5-0.8-4.3-3.2-4.3-5.9c0-2,1-3.8,2.6-5
	c-0.6-0.8-0.9-1.8-0.9-2.8c0-2.8,2.3-5,5-5c1.9,0,3.6,1.1,4.5,2.8c0.1,0,0.1,0,0.2,0c3.9,0,7,3.1,7,7c0,2.9-1.8,5.5-4.5,6.5
	c0.8,1,1.2,2.1,1.2,3.4C232.1,213.8,229.6,216.2,226.6,216.2z M223.7,192c-2.3,0-4.2,1.9-4.2,4.2c0,0.9,0.3,1.8,0.9,2.6l0.3,0.4
	l-0.4,0.3c-1.6,1-2.6,2.7-2.6,4.5c0,2.4,1.7,4.5,4,5.2l0.4,0.1l-0.1,0.4c-0.1,0.4-0.1,0.8-0.1,1.1c0,2.5,2.1,4.6,4.6,4.6
	c2.5,0,4.6-2.1,4.6-4.6c0-1.2-0.5-2.4-1.4-3.3l-0.5-0.5l0.7-0.2c2.6-0.7,4.5-3.2,4.5-5.9c0-3.4-2.7-6.1-6.1-6.1c-0.1,0-0.1,0-0.2,0
	c-0.1,0-0.1,0-0.2,0l-0.3,0l-0.1-0.3C226.9,193,225.4,192,223.7,192z"/>
<circle class="st0" cx="130.6" cy="87.1" r="4.4"/>
<path class="st1" d="M130.6,92c-2.7,0-4.9-2.2-4.9-4.9s2.2-4.9,4.9-4.9c2.7,0,4.9,2.2,4.9,4.9S133.3,92,130.6,92z M130.6,83.1
	c-2.2,0-4,1.8-4,4c0,2.2,1.8,4,4,4c2.2,0,4-1.8,4-4C134.6,84.9,132.8,83.1,130.6,83.1z"/>
<path class="st5" d="M108.1,130.1c-0.5,0-1,0.1-1.5,0.2c-0.8-1.1-2.1-1.8-3.5-1.8c-1.3,0-2.5,0.6-3.3,1.5c-0.4-0.1-0.8-0.2-1.3-0.2
	c-2.4,0-4.4,1.8-4.8,4.1c-0.8-0.7-1.9-1.1-3-1.1c-2.7,0-4.9,2.2-4.9,4.9c0,2.7,2.2,4.9,4.9,4.9c0.9,0,1.7-0.3,2.4-0.7
	c0.7,1.8,2.5,3,4.5,3c1.7,0,3.1-0.8,4-2.1c0.8,0.6,1.8,1,2.9,1c2.5,0,4.5-1.9,4.8-4.3c2-0.6,3.5-2.4,3.5-4.7
	C113,132.2,110.8,130.1,108.1,130.1z"/>
<path class="st1" d="M97.8,145.4c-2,0-3.8-1.1-4.7-2.9c-0.7,0.3-1.5,0.5-2.2,0.5c-2.9,0-5.3-2.4-5.3-5.3c0-2.9,2.4-5.3,5.3-5.3
	c1,0,1.9,0.3,2.7,0.8c0.7-2.2,2.7-3.8,5.1-3.8c0.4,0,0.7,0,1.1,0.1c0.9-0.9,2.1-1.4,3.4-1.4c1.4,0,2.7,0.6,3.7,1.7
	c3.5-0.9,6.6,1.8,6.6,5.1c0,2.2-1.4,4.2-3.6,5c-0.4,2.5-2.6,4.4-5.2,4.4c-1,0-2-0.3-2.8-0.8C100.8,144.7,99.3,145.4,97.8,145.4z
	 M93.5,141.3l0.2,0.5c0.7,1.7,2.3,2.8,4.1,2.8c1.4,0,2.8-0.7,3.6-1.9l0.3-0.4l0.4,0.3c0.8,0.6,1.7,0.9,2.7,0.9
	c2.2,0,4.1-1.7,4.4-3.9l0-0.3l0.3-0.1c1.9-0.5,3.2-2.3,3.2-4.2c0-2.4-2-4.4-4.4-4.4c-0.4,0-0.9,0.1-1.3,0.2l-0.3,0.1l-0.2-0.2
	c-0.8-1-1.9-1.6-3.2-1.6c-1.1,0-2.2,0.5-3,1.3l-0.2,0.2l-0.3-0.1c-0.4-0.1-0.8-0.2-1.1-0.2c-2.2,0-4,1.6-4.4,3.7l-0.1,0.7l-0.6-0.5
	c-0.8-0.6-1.7-1-2.7-1c-2.4,0-4.4,2-4.4,4.4s2,4.4,4.4,4.4c0.8,0,1.5-0.2,2.2-0.6L93.5,141.3z"/>
<circle class="st0" cx="54.6" cy="92" r="3"/>
<path class="st1" d="M54.6,95.4c-1.9,0-3.5-1.6-3.5-3.5c0-1.9,1.6-3.5,3.5-3.5c1.9,0,3.5,1.6,3.5,3.5C58.1,93.9,56.5,95.4,54.6,95.4
	z M54.6,89.4c-1.4,0-2.6,1.2-2.6,2.6c0,1.4,1.2,2.6,2.6,2.6s2.6-1.2,2.6-2.6C57.2,90.6,56,89.4,54.6,89.4z"/>
<circle class="st0" cx="138.3" cy="98.7" r="3"/>
<path class="st1" d="M138.3,102.2c-1.9,0-3.5-1.6-3.5-3.5c0-1.9,1.6-3.5,3.5-3.5c1.9,0,3.5,1.6,3.5,3.5
	C141.8,100.6,140.2,102.2,138.3,102.2z M138.3,96.1c-1.4,0-2.6,1.2-2.6,2.6c0,1.4,1.2,2.6,2.6,2.6c1.4,0,2.6-1.2,2.6-2.6
	C140.9,97.3,139.7,96.1,138.3,96.1z"/>
<circle class="st0" cx="146.6" cy="110.5" r="2.3"/>
<path class="st1" d="M146.6,113.2c-1.5,0-2.7-1.2-2.7-2.7s1.2-2.7,2.7-2.7s2.7,1.2,2.7,2.7S148.1,113.2,146.6,113.2z M146.6,108.6
	c-1,0-1.8,0.8-1.8,1.8c0,1,0.8,1.8,1.8,1.8s1.8-0.8,1.8-1.8C148.5,109.5,147.7,108.6,146.6,108.6z"/>
<circle class="st0" cx="54.4" cy="123.4" r="3"/>
<path class="st1" d="M54.4,126.8c-1.9,0-3.5-1.6-3.5-3.5s1.6-3.5,3.5-3.5c1.9,0,3.5,1.6,3.5,3.5S56.3,126.8,54.4,126.8z M54.4,120.8
	c-1.4,0-2.6,1.2-2.6,2.6c0,1.4,1.2,2.6,2.6,2.6s2.6-1.2,2.6-2.6C57,121.9,55.8,120.8,54.4,120.8z"/>
<circle class="st0" cx="75.5" cy="76.7" r="4"/>
<path class="st1" d="M75.5,81.2c-2.4,0-4.4-2-4.4-4.4s2-4.4,4.4-4.4s4.4,2,4.4,4.4S77.9,81.2,75.5,81.2z M75.5,73.2
	c-2,0-3.6,1.6-3.6,3.6s1.6,3.6,3.6,3.6s3.6-1.6,3.6-3.6S77.5,73.2,75.5,73.2z"/>
<path class="st1" d="M85.1,127.2c-3.2,0-5.8-2.6-5.8-5.8c0,0,0,0,0,0c-2.5-0.3-4.5-2.4-4.5-5c0-2.8,2.3-5.1,5.1-5.1
	c2.5,0,4.6,1.9,5,4.3c0.7-0.1,1.5,0.1,2.2,0.3c1-0.8,2.2-1.2,3.5-1.2c3.2,0,5.8,2.6,5.8,5.8s-2.6,5.8-5.8,5.8
	c-0.6,0-1.3-0.1-1.9-0.3C87.6,126.8,86.4,127.2,85.1,127.2z M79.8,112.1c-2.3,0-4.2,1.9-4.2,4.2c0,2.3,1.9,4.2,4.2,4.2l0.5,0
	l-0.1,0.6c0,0.1,0,0.1,0,0.2c0,2.7,2.2,5,5,5c1.1,0,2.2-0.4,3.1-1.2l0.2-0.2l0.2,0.1c0.6,0.2,1.2,0.4,1.8,0.4c2.7,0,5-2.2,5-5
	s-2.2-5-5-5c-1.1,0-2.2,0.4-3.1,1.2l-0.2,0.2l-0.2-0.1c-0.7-0.3-1.5-0.4-2.3-0.3l-0.6,0.1l0-0.5C83.9,113.9,82,112.1,79.8,112.1z"/>
<path class="st2" d="M65.6,145.2l-10.7-11l11.7-11c0,0-1.4-7,0.7-11.1c2.2-4.1-3.1-13.8,2.7-16c1.6-0.6,19.1,17.5,19,17.6l1.4-1.4
	c0,0-15.6-15-17.7-18.7c-1.1-2,1.4-4.6,4.6-2.2c1.5,1.1,18.3,16.9,18.3,16.9l1-0.9c0,0-15.6-15.9-16.4-17.4c-1-2,1.3-4.4,5.2-1.2
	c2.7,2.3,15.9,14.4,15.9,14.4l0.9-0.7c0,0-6.3-6.8-10.4-11.2c-2.1-2.4-3.9-4.6-1.9-6.1c1.8-1.3,4.8,1.6,4.8,1.6s27,24.9,27.6,32.2
	l1.6,2.9l15.6,15l-12.8,12.8l-14.5-13.6c0,0-8.2,0-14.1,0s-11.7,0.6-13.6,1.1c-2.6,0.6-4.3-0.6-3.7-1.9c0.6-1.3,1.2-2.5,1.2-2.5
	s-3,0.3-3.6-0.1C78,132,65.6,145.2,65.6,145.2z"/>
<path class="st1" d="M126.9,150c-0.1,0-0.2,0-0.3-0.1l-14.4-13.5H98.3c-6,0-11.8,0.6-13.5,1.1c-1.7,0.4-3.3,0.1-4-0.8
	c-0.4-0.5-0.5-1.2-0.2-1.8l0.9-1.8c-0.9,0.1-2.3,0.1-2.9-0.2c-1.2,0.7-8.3,8-12.6,12.6c-0.1,0.1-0.2,0.1-0.3,0.1
	c-0.1,0-0.2,0-0.3-0.1l-10.7-11c-0.1-0.1-0.1-0.2-0.1-0.3c0-0.1,0.1-0.2,0.1-0.3l11.5-10.8c-0.2-1.3-1.2-7.3,0.8-11.2
	c0.8-1.5,0.5-3.9,0.2-6.5c-0.5-3.9-1-8.3,2.8-9.7c0.4-0.2,1-0.1,4,2.4c2.5,2.1,12.9,12.2,15.2,15l0.8-0.8
	c-2.3-2.2-15.5-15-17.5-18.5c-0.6-1-0.4-2.3,0.6-3.1c0.9-0.8,2.7-1.2,4.7,0.4c1.4,1.1,15.8,14.5,18.1,16.6l0.4-0.3
	c-2.6-2.7-15.4-15.7-16.2-17.2c-0.5-1.1-0.3-2.2,0.5-2.9c0.5-0.4,2.2-1.4,5.3,1.2c2.5,2.1,13.7,12.4,15.6,14.2l0.2-0.2
	c-1.3-1.4-6.6-7.1-10.1-10.9c-1.6-1.8-3-3.5-2.9-5c0.1-0.7,0.4-1.2,1.1-1.7c2-1.5,5.2,1.5,5.3,1.6c1.1,1,26.9,24.9,27.7,32.3
	l1.5,2.7l15.6,15c0.1,0.1,0.1,0.2,0.1,0.3c0,0.1,0,0.2-0.1,0.3l-12.8,12.8C127.1,149.9,127,150,126.9,150z M98.3,135.5h14.1
	c0.1,0,0.2,0,0.3,0.1l14.2,13.3l12.2-12.2l-15.3-14.7c0,0-0.1-0.1-0.1-0.1l-1.6-2.9c0-0.1,0-0.1-0.1-0.2c-0.6-7-27.2-31.6-27.5-31.9
	c-0.8-0.7-3-2.4-4.2-1.6c-0.4,0.3-0.7,0.7-0.7,1.1c-0.1,1.2,1.3,2.9,2.6,4.4c4,4.4,10.3,11.2,10.4,11.2c0.1,0.1,0.1,0.2,0.1,0.3
	s-0.1,0.2-0.2,0.3l-0.9,0.7c-0.2,0.1-0.4,0.1-0.6,0c-0.1-0.1-13.2-12.2-15.8-14.4c-2.1-1.7-3.5-1.7-4.2-1.2
	c-0.5,0.4-0.6,1.1-0.3,1.8c0.6,1.1,10.1,11,16.4,17.3c0.1,0.1,0.1,0.2,0.1,0.3c0,0.1-0.1,0.2-0.2,0.3l-1,0.9c-0.2,0.1-0.4,0.1-0.6,0
	c-0.2-0.2-16.8-15.7-18.3-16.8c-1.6-1.2-2.9-1-3.6-0.4c-0.6,0.5-0.8,1.3-0.4,2c2.1,3.7,17.5,18.5,17.7,18.7c0.1,0.1,0.1,0.2,0.1,0.3
	c0,0.1,0,0.2-0.1,0.3l-1.4,1.4c-0.1,0.1-0.3,0.2-0.5,0.1c-0.1,0-0.1-0.1-0.2-0.2c-1-1.2-16.8-17.3-18.6-17.4
	c-3.1,1.2-2.7,4.9-2.2,8.8c0.3,2.7,0.6,5.2-0.3,7c-2.1,3.9-0.7,10.7-0.7,10.8c0,0.1,0,0.3-0.1,0.4l-11.4,10.7l10,10.4
	c12.3-13.1,12.9-12.7,13.2-12.5c0.3,0.2,2,0.2,3.3,0.1c0.2,0,0.3,0.1,0.4,0.2c0.1,0.1,0.1,0.3,0,0.4l-1.2,2.5
	c-0.1,0.3-0.1,0.6,0.1,0.8c0.4,0.5,1.6,0.9,3.1,0.5C86.4,136.1,92.2,135.5,98.3,135.5z"/>
<path class="st1" d="M120.1,125.5c-0.1,0-0.2,0-0.3-0.1c-0.2-0.2-0.2-0.4,0-0.6c0,0,2.2-2.3,2.3-5.2c0-0.2,0.2-0.4,0.5-0.4
	c0.2,0,0.4,0.2,0.4,0.5c-0.2,3.2-2.5,5.7-2.6,5.8C120.3,125.5,120.2,125.5,120.1,125.5z"/>
<path class="st1" d="M82.4,133c-0.1,0-0.2,0-0.3-0.1c-0.2-0.1-0.2-0.4-0.1-0.6c0.1-0.1,1.7-2.1,5.7-3c2.7-0.6,4.2-1.3,4.7-2
	c0.2-0.3,0.2-0.6,0.1-1c-0.4-1.2-8.2-8.7-13-13.1c-0.2-0.2-0.2-0.4,0-0.6c0.2-0.2,0.4-0.2,0.6,0c1.3,1.2,12.6,11.7,13.2,13.4
	c0.2,0.6,0.2,1.2-0.1,1.7c-0.6,1-2.2,1.8-5.2,2.5c-3.7,0.8-5.2,2.7-5.2,2.7C82.6,133,82.5,133,82.4,133z"/>
<path class="st2" d="M179,255.3c-0.6-0.4-14.9-3.5-14.9-3.5l3.2-14.7c0,0-6.3-7.1-5.8-12.8c0.4-5.6-0.4-12.3-2.6-14.5
	c-2.2-2.2,0-4.8,1.7-3.7s3.2,1.1,5.8,5.4c0,0,3.7-24,5.6-27.5c1.1-1.9,3.7-0.4,3.7,1.5s-1.3,19.7-1.3,19.7s1.1,1.1,1.7-0.2
	c0.6-1.3,3.5-24.4,5.4-26.2c1.8-1.6,4.5-2,3.7,5.4c-0.9,8-2.8,20.5-1.5,21c1.3,0.4,1.1,2.5,2.6-2.8c0.9-3,3.2-14.7,4.8-14.3
	c1.5,0.4,3.7-0.3,1.5,8.7c-2.2,8.9-1.9,13.4-1.9,13.4s3.2-10.2,5.4-9.1c2.2,1.1-3.2,21.2-4.3,26c-1.2,5.1-7.6,11.9-9.3,13.2
	L179,255.3z"/>
<path class="st1" d="M179,255.7c-0.1,0-0.2,0-0.2-0.1c-0.7-0.3-9.4-2.3-14.8-3.4c-0.1,0-0.2-0.1-0.3-0.2c-0.1-0.1-0.1-0.2-0.1-0.3
	l3.2-14.5c-1-1.1-6.2-7.6-5.8-12.9c0.4-5.3-0.4-12.1-2.5-14.2c-1.4-1.4-1.2-2.9-0.5-3.8c0.7-0.9,1.8-1.1,2.8-0.5
	c0.3,0.2,0.7,0.4,1,0.6c1.3,0.6,2.6,1.3,4.3,4c0.8-4.9,3.8-23.4,5.5-26.5c0.5-0.9,1.4-1.3,2.3-1c1.2,0.3,2.1,1.5,2.1,2.7
	c0,1.8-1.1,17.3-1.3,19.5c0.1,0.1,0.3,0.2,0.5,0.2c0.1,0,0.3-0.2,0.4-0.4c0.2-0.4,0.7-3.8,1.3-7.1c1.6-9.8,3-18.1,4.3-19.2
	c1.1-1,2.2-1.3,3.1-0.9c1.3,0.7,1.7,2.9,1.3,6.7c-0.2,1.8-0.5,3.9-0.7,6c-0.7,5.5-1.7,13.7-1,14.5c0.3,0.1,0.6,0.4,0.8,0.5
	c0,0,0.1,0,0.1,0.1c0.3-0.5,0.8-2.4,1.1-3.2c0.2-0.7,0.5-1.7,0.8-3c1.4-5.8,2.7-10.7,3.9-11.5c0.3-0.1,0.5-0.1,0.6-0.1
	c0.2,0,0.3,0.1,0.5,0.1c0.6,0.1,1.3,0.3,1.8,1c0.8,1.2,0.6,3.7-0.5,8.1c-1.2,4.7-1.6,8.2-1.8,10.4c1-2.6,2.5-6,4-6.6
	c0.4-0.2,0.7-0.1,1.1,0c1.6,0.8,0.7,6.8-3.3,23.1c-0.3,1.4-0.6,2.6-0.8,3.3c-1.2,5.1-7.4,11.8-9.3,13.3l-3.4,14.8
	c0,0.1-0.1,0.3-0.3,0.3C179.1,255.7,179,255.7,179,255.7z M164.6,251.5c3.4,0.7,11.8,2.5,14.1,3.2l3.4-14.5c0-0.1,0.1-0.2,0.2-0.2
	c1.5-1.1,8-7.9,9.1-12.9c0.2-0.8,0.5-1.9,0.8-3.3c3.5-14.2,4.7-21.6,3.7-22.1c-0.1,0-0.2-0.1-0.3,0c-1.4,0.6-3.5,5.7-4.5,8.8
	c-0.1,0.2-0.3,0.3-0.5,0.3c-0.2,0-0.4-0.2-0.4-0.4c0-0.2-0.2-4.7,2-13.5c1-4,1.2-6.4,0.6-7.4c-0.3-0.4-0.6-0.5-1.2-0.6
	c-0.2,0-0.4-0.1-0.5-0.1c-0.9,0.4-2.7,7.8-3.5,10.9c-0.3,1.3-0.6,2.4-0.8,3.1c-0.9,3.2-1.2,3.7-1.7,3.9c-0.4,0.1-0.7-0.1-0.9-0.4
	c-0.2-0.2-0.3-0.3-0.6-0.4c-1.2-0.4-0.9-4,0.5-15.4c0.3-2.1,0.5-4.2,0.7-6c0.5-4.6-0.4-5.6-0.8-5.8c-0.5-0.3-1.3,0-2.1,0.7
	c-1.2,1-2.9,12.1-4,18.7c-0.7,4.5-1.1,6.8-1.3,7.3c-0.3,0.6-0.7,0.8-1,0.9c-0.7,0.1-1.3-0.5-1.4-0.5c-0.1-0.1-0.1-0.2-0.1-0.3
	c0-0.2,1.3-17.7,1.3-19.7c0-1-0.8-1.7-1.5-1.9c-0.3-0.1-1-0.1-1.4,0.6c-1.9,3.4-5.5,27.1-5.6,27.3c0,0.2-0.2,0.3-0.3,0.4
	c-0.2,0-0.4,0-0.5-0.2c-2-3.3-3.3-4-4.6-4.7c-0.4-0.2-0.7-0.4-1.1-0.6c-0.6-0.4-1.3-0.1-1.6,0.3c-0.5,0.6-0.6,1.6,0.4,2.7
	c2.4,2.4,3.2,9.2,2.7,14.8c-0.4,5.4,5.7,12.4,5.7,12.4c0.1,0.1,0.1,0.2,0.1,0.4L164.6,251.5z"/>
<path class="st1" d="M168.8,219c-0.2,0-0.4-0.1-0.4-0.3c0,0-0.9-4.1-2.3-6.8c-0.1-0.2,0-0.5,0.2-0.6c0.2-0.1,0.5,0,0.6,0.2
	c1.5,2.8,2.4,6.9,2.4,7C169.3,218.7,169.1,218.9,168.8,219C168.9,219,168.8,219,168.8,219z"/>
<path class="st1" d="M177,230.2c-0.2,0-0.4-0.2-0.4-0.4c0-6.6-6.2-9.1-6.2-9.1c-0.2-0.1-0.3-0.3-0.2-0.6c0.1-0.2,0.3-0.3,0.6-0.2
	c0.1,0,6.8,2.8,6.8,9.9C177.5,230,177.3,230.2,177,230.2z"/>
<path class="st1" d="M180.3,229.1c0,0-0.1,0-0.1,0c-0.2-0.1-0.4-0.3-0.3-0.5c1.1-4,5.2-6.4,5.4-6.5c0.2-0.1,0.5,0,0.6,0.2
	c0.1,0.2,0,0.5-0.2,0.6c0,0-4,2.3-5,6C180.6,229,180.5,229.1,180.3,229.1z"/>
<path class="st2" d="M250.8,211.6l-4.1,16.7l-14.9-4.8c0,0-5,6.5-9.7,7.6s-11.1,0.5-14.5,1.5c-5.8,1.7-7.4,4.8-8,2.8
	c-0.6-1.9-0.2-5,4.1-6.9c4.3-1.9,5.8-4.1,4.5-5.4s-15.8-4.2-22.9-5.8c-7.8-1.7-6.8-2.8-6.1-4.8c0.6-1.7,16.2,1.1,20.8,2.2v-1.7
	c0,0-21-5.6-25.1-6.7s-2.8-4.5,1.9-4.8c2.8-0.1,4.3-0.4,4.3-0.4s-2.2-3.5,1.9-3.9c3.5-0.4,17.3,2.6,21.8,3.2
	c4.5,0.6,0.9-2.3-2.8-4.3c-8.9-4.8-13.1-5.8-11-8.4c2.2-2.8,30.9,11.5,34.4,15.1c3.5,3.7,7.4,5,7.4,5L250.8,211.6z"/>
<path class="st1" d="M200.2,236.5c-0.1,0-0.2,0-0.3-0.1c-0.4-0.2-0.6-0.6-0.7-0.9c-0.8-2.3,0-5.5,4.3-7.5c2.7-1.2,4.5-2.7,4.7-3.8
	c0.1-0.3,0-0.6-0.3-0.9c-1-1-12.2-3.4-18.8-4.9c-1.4-0.3-2.7-0.6-3.9-0.9c-4.9-1.1-6.2-1.9-6.7-2.8c-0.4-0.7-0.1-1.5,0.2-2.2
	l0.1-0.3c0.9-2.3,17.5,1.1,20.7,1.8v-0.9c-2.7-0.7-21-5.6-24.8-6.6c-1.9-0.5-2.9-1.5-2.8-2.8c0.1-1.3,1.7-2.7,4.8-2.8
	c1.8-0.1,3-0.2,3.7-0.3c-0.3-0.6-0.6-1.6-0.1-2.5c0.4-0.8,1.3-1.3,2.7-1.5c2.5-0.3,10,1.1,15.9,2.2c2.5,0.5,4.7,0.9,6,1.1
	c1.4,0.2,1.6,0,1.7,0c0-0.4-1.7-1.9-4.7-3.5c-2-1.1-3.8-2-5.3-2.7c-3.9-2-6.1-3-6.4-4.5c-0.1-0.6,0-1.2,0.6-1.9
	c0.2-0.3,0.7-0.5,1.3-0.5c0.1,0,0.1,0,0.2,0c6,0,30.3,12.2,33.6,15.6c3.3,3.6,7.1,4.8,7.2,4.9l17.9,3.9c0.1,0,0.2,0.1,0.3,0.2
	c0.1,0.1,0.1,0.2,0.1,0.3l-4.1,16.7c0,0.1-0.1,0.2-0.2,0.3c-0.1,0.1-0.2,0.1-0.3,0l-14.6-4.7c-1,1.2-5.4,6.5-9.8,7.5
	c-2.4,0.5-5.2,0.7-7.8,0.8c-2.6,0.1-5,0.2-6.6,0.7c-2.7,0.8-4.5,1.9-5.6,2.6C201.2,236.1,200.6,236.5,200.2,236.5z M181.5,212.3
	c-1,0-1.7,0.1-1.9,0.3l-0.1,0.3c-0.3,0.7-0.4,1.1-0.2,1.5c0.4,0.8,2.4,1.5,6.1,2.4c1.1,0.3,2.5,0.5,3.9,0.9
	c10.2,2.2,18.2,4,19.3,5.1c0.5,0.5,0.7,1.1,0.5,1.7c-0.3,1.5-2.1,3-5.2,4.4c-4.8,2.2-4.2,5.4-3.9,6.4c0.1,0.3,0.2,0.3,0.2,0.3
	c0.2,0,0.9-0.4,1.4-0.7c1.2-0.7,3-1.9,5.8-2.7c1.8-0.5,4.2-0.6,6.8-0.8c2.6-0.1,5.3-0.2,7.7-0.8c4.5-1,9.4-7.3,9.5-7.4
	c0.1-0.1,0.3-0.2,0.5-0.1l14.5,4.6l3.9-15.8l-17.5-3.8c-0.2-0.1-4.1-1.4-7.6-5.1c-3-3.1-27.2-15.4-32.9-15.4c-0.1,0-0.1,0-0.2,0
	c-0.5,0-0.6,0.2-0.7,0.2c-0.5,0.6-0.4,0.9-0.4,1.1c0.2,1,2.5,2.2,5.9,3.9c1.6,0.8,3.3,1.7,5.4,2.7c1.3,0.7,5.6,3.1,5.1,4.6
	c-0.3,0.8-1.5,0.7-2.6,0.6c-1.4-0.2-3.5-0.6-6.1-1.1c-5.6-1-13.3-2.4-15.7-2.2c-1.1,0.1-1.7,0.4-2,1c-0.4,0.9,0.4,2.2,0.4,2.3
	c0.1,0.1,0.1,0.3,0,0.4c-0.1,0.1-0.2,0.2-0.3,0.3c-0.1,0-1.6,0.3-4.4,0.4c-2.5,0.1-3.9,1.1-4,2.1c-0.1,0.8,0.7,1.5,2.1,1.8
	c4.1,1.1,25.1,6.7,25.1,6.7c0.2,0.1,0.3,0.2,0.3,0.4v1.7c0,0.1-0.1,0.3-0.2,0.3c-0.1,0.1-0.2,0.1-0.4,0.1
	C194.8,213.9,185.5,212.3,181.5,212.3z"/>
<path class="st1" d="M202.3,206.4c0,0-0.1,0-0.1,0c-0.1,0-10.7-3.7-21.1-5c-0.2,0-0.4-0.2-0.4-0.5c0-0.2,0.3-0.4,0.5-0.4
	c10.5,1.3,21.2,5,21.3,5c0.2,0.1,0.3,0.3,0.3,0.6C202.7,206.3,202.5,206.4,202.3,206.4z"/>
<path class="st0" d="M71.5,105.4c-0.3,0-0.5,0.1-0.8,0.1c0.2-0.7,0.4-1.4,0.4-2.1c0-3.4-2.8-6.2-6.2-6.2c-3.4,0-6.2,2.8-6.2,6.2
	c0,0.1,0,0.1,0,0.2c-3.1,0.3-5.4,2.8-5.4,5.8c0,2.1,1.2,3.9,2.9,4.9c0,0.3-0.1,0.6-0.1,0.9c0,2.8,2.1,5.2,4.9,5.7
	c-0.5,0.7-0.8,1.6-0.8,2.5c0,2.5,2.1,4.5,4.8,4.5c2.6,0,4.8-2,4.8-4.5c0-0.5-0.1-0.9-0.2-1.3c0.6,0.1,1.2,0.2,1.9,0.2
	c4.7,0,8.4-3.8,8.4-8.4C79.9,109.2,76.1,105.4,71.5,105.4z"/>
<path class="st1" d="M65,128.3c-2.9,0-5.2-2.2-5.2-5c0-0.8,0.2-1.5,0.6-2.2c-2.7-0.8-4.7-3.2-4.7-6c0-0.2,0-0.5,0.1-0.7
	c-1.8-1.2-2.9-3.1-2.9-5.2c0-3,2.3-5.6,5.4-6.1c0.1-3.5,3-6.4,6.6-6.4c3.6,0,6.6,3,6.6,6.6c0,0.5-0.1,1.1-0.2,1.6c0.1,0,0.1,0,0.2,0
	c4.9,0,8.9,4,8.9,8.9c0,4.9-4,8.9-8.9,8.9c-0.4,0-0.8,0-1.3-0.1c0,0.3,0.1,0.5,0.1,0.8C70.3,126.1,67.9,128.3,65,128.3z M64.9,97.6
	c-3.2,0-5.7,2.6-5.7,5.7c0,0.1,0,0.1,0,0.2l0,0.4l-0.4,0c-2.9,0.3-5,2.6-5,5.3c0,1.9,1,3.6,2.7,4.6l0.3,0.2l0,0.3
	c-0.1,0.3-0.1,0.6-0.1,0.8c0,2.5,1.9,4.8,4.6,5.3l0.7,0.1l-0.4,0.5c-0.5,0.7-0.7,1.5-0.7,2.3c0,2.3,2,4.1,4.4,4.1s4.4-1.8,4.4-4.1
	c0-0.4-0.1-0.8-0.2-1.2l-0.2-0.7l0.7,0.2c0.6,0.1,1.2,0.2,1.8,0.2c4.4,0,8-3.6,8-8c0-4.4-3.6-8-8-8c-0.2,0-0.3,0-0.5,0
	c-0.1,0-0.2,0-0.3,0L70,106l0.2-0.7c0.2-0.6,0.4-1.3,0.4-2C70.6,100.2,68,97.6,64.9,97.6z"/>
<path class="st5" d="M197.3,226.5c0-2.9-2.3-5.2-5.2-5.2c-2.9,0-5.2,2.3-5.2,5.2c0,0.8,0.2,1.5,0.5,2.2c-0.9-0.7-1.9-1.1-3.1-1.1
	c-2.3,0-4.2,1.5-4.9,3.6c-0.8-0.4-1.6-0.7-2.6-0.7c-2.9,0-5.2,2.3-5.2,5.2c0,2.9,2.3,5.2,5.2,5.2c0.5,0,0.9-0.1,1.3-0.2
	c0.9,1.5,2.5,2.5,4.4,2.5c2.9,0,5.2-2.3,5.2-5.2c0-0.1,0-0.1,0-0.2c0.8,0.5,1.7,0.7,2.6,0.7c2.9,0,5.2-2.3,5.2-5.2
	c0-0.9-0.3-1.8-0.7-2.5C196.3,229.9,197.3,228.3,197.3,226.5z"/>
<path class="st1" d="M182.6,243.6c-1.9,0-3.6-0.9-4.6-2.4c-0.4,0.1-0.8,0.1-1.2,0.1c-3.1,0-5.6-2.5-5.6-5.6s2.5-5.6,5.6-5.6
	c0.8,0,1.6,0.2,2.3,0.5c0.9-2.1,2.9-3.4,5.1-3.4c0.8,0,1.6,0.2,2.3,0.5c-0.1-0.4-0.1-0.8-0.1-1.2c0-3.1,2.5-5.6,5.6-5.6
	s5.6,2.5,5.6,5.6c0,1.8-0.8,3.5-2.3,4.5c0.4,0.8,0.6,1.6,0.6,2.4c0,3.1-2.5,5.6-5.6,5.6c-0.8,0-1.5-0.2-2.2-0.5
	C187.9,241.4,185.5,243.6,182.6,243.6z M178.4,240.2l0.2,0.3c0.9,1.4,2.4,2.3,4.1,2.3c2.6,0,4.8-2.1,4.8-4.8c0-0.1,0-0.1,0-0.1
	l0-0.8l0.7,0.4c0.8,0.4,1.6,0.7,2.4,0.7c2.6,0,4.8-2.1,4.8-4.8c0-0.8-0.2-1.6-0.6-2.3l-0.2-0.4l0.3-0.2c1.4-0.9,2.2-2.4,2.2-4
	c0-2.6-2.1-4.8-4.8-4.8s-4.8,2.1-4.8,4.8c0,0.7,0.2,1.4,0.5,2l0.7,1.6l-1.4-1.1c-0.8-0.6-1.8-1-2.8-1c-2.1,0-3.9,1.3-4.5,3.3
	l-0.2,0.5l-0.5-0.3c-0.8-0.4-1.5-0.7-2.4-0.7c-2.6,0-4.8,2.1-4.8,4.8c0,2.6,2.1,4.8,4.8,4.8c0.4,0,0.8-0.1,1.2-0.2L178.4,240.2z"/>
<path class="st6" d="M195.3,170.7l-18.4,43.9c0,0,10.4,2.5,25.3,1.9s16.6-1.1,16.6-1.1l-17.3-44.6H195.3z"/>
<path class="st5" d="M196.9,173.6c-0.8,3.4-1.7,6.6-2.8,9.9c-1.1,3.3-2.2,6.5-3.6,9.6c0.7-3.4,1.7-6.6,2.8-9.9
	C194.4,180,195.5,176.8,196.9,173.6z"/>
<path class="st5" d="M198.9,173.2c0.3,5.1,0.3,10.3,0.3,15.4c-0.1,5.1-0.2,10.3-0.6,15.4c-0.3-5.1-0.3-10.3-0.3-15.4
	C198.4,183.4,198.5,178.3,198.9,173.2z"/>
<path class="st5" d="M187.8,198.5c-0.6,2.9-1.4,5.6-2.3,8.4c-0.9,2.7-1.9,5.5-3.1,8.1c0.6-2.9,1.4-5.6,2.3-8.4
	C185.6,203.9,186.5,201.2,187.8,198.5z"/>
<path class="st5" d="M207.2,196.8c1.2,3,2.2,6,3.2,9.1c0.9,3.1,1.7,6.2,2.3,9.4c-1.2-3-2.2-6-3.2-9.1
	C208.6,203.1,207.8,200,207.2,196.8z"/>
<path class="st5" d="M202.3,194.2c0.9,3.5,1.6,7.1,2.1,10.7c0.6,3.6,1.1,7.2,1.3,10.8c-0.9-3.5-1.6-7.1-2.1-10.7
	C203.1,201.5,202.6,197.9,202.3,194.2z"/>
<path class="st5" d="M194.9,193.4c-0.2,3.9-0.7,7.7-1.2,11.5c-0.6,3.8-1.2,7.6-2.1,11.4c0.2-3.9,0.7-7.7,1.2-11.5
	C193.4,200.9,194,197.1,194.9,193.4z"/>
<path class="st5" d="M201.1,173.8c1.1,3,2,6.1,2.8,9.1c0.8,3.1,1.5,6.2,1.9,9.3c-1.1-3-2-6.1-2.8-9.1
	C202.2,180.1,201.5,177,201.1,173.8z"/>
<path class="st7" d="M202.5,170.2c-2.7,1.4-6.3,1.6-8.8-0.1l0-6.7c-0.1-2-3-3.1-5-3l-7.6,1.2c-1.9,0.2-4.2,1.6-5.2,3.2
	c-1.3,2.1-2.6,6.6-2.6,6.6s-2,1.9-8.7,1.7c-6.1-0.2-6.5-1.3-6.5-1.3c-3.7-25.7,3.3-33.8,3.3-33.8l16.7-1.8c-5.3,7-4.7,13.7-2.8,16.2
	c1.9,2.5,18.6-2.7,26,2.6C203.4,156.4,202.7,166.5,202.5,170.2z"/>
<path class="st1" d="M165.7,173.5c-0.3,0-0.7,0-1,0c-5.8-0.2-6.8-1.2-6.9-1.6c-3.8-25.6,3.1-33.9,3.4-34.2l0.1-0.1l0.2,0l17.7-1.9
	l-0.6,0.8c-5.1,6.6-4.7,13.2-2.8,15.7c0.6,0.8,4,0.6,7.6,0.3c6.1-0.5,13.7-1,18.3,2.2c1.9,1.4,1.7,8.2,1.4,14.5l-0.1,1.5l-0.2,0.1
	c-2.6,1.3-6.5,1.8-9.2-0.2l-0.2-0.1l0-7c0-0.5-0.3-1-0.8-1.4c-0.9-0.8-2.5-1.3-3.8-1.1l-7.5,1.2c-1.8,0.2-4,1.5-4.9,3
	c-1.2,2-2.5,6.4-2.6,6.5l0,0.1l-0.1,0.1C173.6,171.7,171.7,173.5,165.7,173.5z M158.6,171.6c0.2,0.2,1.3,0.9,6.1,1
	c5.7,0.2,7.8-1.2,8.3-1.5c0.2-0.8,1.4-4.6,2.6-6.5c1-1.7,3.5-3.2,5.5-3.4l7.5-1.2c1.6-0.1,3.4,0.4,4.5,1.3c0.7,0.6,1,1.3,1.1,2
	l0,6.5c2.4,1.5,5.6,1.2,7.9,0.1l0-0.9c0.2-3.7,0.7-12.5-1-13.7c-4.3-3-12.1-2.5-17.7-2c-4.3,0.3-7.4,0.6-8.3-0.7
	c-2-2.7-2.5-9.3,2.2-16l-15.5,1.7C160.9,139.5,155.2,148.2,158.6,171.6z"/>
<path class="st8" d="M159.8,141.7c0,0,10.7-3.4,27.7-1.4s8.6-5.2,3.5-6.6C183.5,131.5,161.2,131,159.8,141.7z"/>
<path class="st1" d="M159.3,142.3l0.1-0.7c0.3-2.4,1.7-4.5,4.1-6c7.1-4.7,21.8-4,27.6-2.4c2.7,0.8,7.4,3.6,7,5.8
	c-0.4,1.9-3.8,2.4-10.6,1.6c-16.7-1.9-27.4,1.4-27.5,1.4L159.3,142.3z M180,132.8c-5.8,0-12.1,0.9-16.1,3.5
	c-1.9,1.3-3.2,2.9-3.6,4.8c2.6-0.7,12.7-2.9,27.2-1.3c8.6,1,9.6-0.5,9.6-0.9c0.3-1.3-3.2-3.9-6.3-4.8
	C188.4,133.3,184.3,132.8,180,132.8z"/>
<path class="st6" d="M90.7,67.7l-17.4,52.4c0,0,10.2,2.3,24.6,0.9s16.1-2,16.1-2L95.6,67.4L90.7,67.7z"/>
<path class="st5" d="M90.9,73.6c-0.6,3.8-1.4,7.5-2.3,11.1c-0.9,3.7-1.9,7.3-3.1,10.9c0.6-3.8,1.4-7.5,2.3-11.1
	C88.8,80.9,89.7,77.2,90.9,73.6z"/>
<path class="st5" d="M92.8,73.1c0.5,5.7,0.7,11.4,1,17.1c0.1,5.7,0.3,11.4,0.1,17.2c-0.5-5.7-0.7-11.4-1-17.1
	C92.8,84.5,92.6,78.8,92.8,73.1z"/>
<path class="st5" d="M83.2,101.8c-0.4,3.2-1.1,6.3-1.9,9.4c-0.8,3.1-1.6,6.2-2.7,9.2c0.4-3.2,1.1-6.3,1.9-9.4
	C81.3,107.9,82.1,104.8,83.2,101.8z"/>
<path class="st5" d="M101.9,98.9c1.3,3.3,2.4,6.7,3.5,10c1,3.4,2,6.8,2.7,10.3c-1.4-3.3-2.5-6.7-3.5-10
	C103.6,105.8,102.6,102.4,101.9,98.9z"/>
<path class="st5" d="M97.1,96.3c1,3.9,1.8,7.9,2.6,11.8c0.7,4,1.3,8,1.7,12c-1-3.9-1.8-7.9-2.6-11.8
	C98.1,104.3,97.5,100.3,97.1,96.3z"/>
<path class="st5" d="M89.9,95.7c0,4.3-0.3,8.6-0.6,12.8c-0.4,4.3-0.8,8.5-1.5,12.7c0-4.3,0.3-8.6,0.6-12.8
	C88.7,104.2,89.2,100,89.9,95.7z"/>
<path class="st5" d="M95,73.6c1.2,3.3,2.2,6.7,3.1,10.1c0.9,3.4,1.7,6.8,2.3,10.3c-1.2-3.3-2.2-6.7-3.1-10.1
	C96.3,80.5,95.5,77.1,95,73.6z"/>
<path class="st7" d="M96.9,67.5c-2.7,1.4-6.3,1.6-8.8-0.1l0-6.7c-0.1-2-3-3.1-5-3l-7.6,1.2c-1.9,0.2-4.2,1.6-5.2,3.2
	c-1.3,2.1-2.6,6.6-2.6,6.6s-2,1.9-8.7,1.7c-6.1-0.2-6.5-1.3-6.5-1.3C48.9,43.4,56,35.2,56,35.2l16.7-1.8c-5.3,7-4.7,13.7-2.8,16.2
	c1.9,2.5,18.6-2.7,26,2.6C97.9,53.8,97.1,63.8,96.9,67.5z"/>
<path class="st1" d="M60.2,70.8c-0.3,0-0.7,0-1,0c-5.8-0.2-6.8-1.2-6.9-1.6c-3.8-25.6,3.1-33.9,3.4-34.2l0.1-0.1l0.2,0l17.7-1.9
	L73,33.7c-5.1,6.6-4.7,13.2-2.8,15.7c0.6,0.8,4,0.6,7.6,0.3c6.1-0.5,13.7-1,18.3,2.2c1.9,1.4,1.7,8.2,1.4,14.5l-0.1,1.5l-0.2,0.1
	c-2.6,1.3-6.5,1.8-9.2-0.2l-0.2-0.1l0-7c0-0.5-0.3-1-0.8-1.4c-0.9-0.8-2.5-1.3-3.8-1.1l-7.5,1.2c-1.8,0.2-4,1.5-4.9,3
	c-1.2,2-2.5,6.4-2.6,6.5l0,0.1l-0.1,0.1C68,69,66.1,70.8,60.2,70.8z M53.1,68.9c0.2,0.2,1.3,0.9,6.1,1c5.7,0.2,7.8-1.2,8.3-1.5
	c0.2-0.8,1.4-4.6,2.6-6.5c1-1.7,3.5-3.2,5.5-3.4l7.5-1.2c1.6-0.1,3.4,0.4,4.5,1.3c0.7,0.6,1,1.3,1.1,2l0,6.5
	c2.4,1.5,5.6,1.2,7.9,0.1l0-0.9c0.2-3.7,0.7-12.5-1-13.7c-4.3-3-12.1-2.5-17.7-2c-4.3,0.3-7.4,0.6-8.3-0.7c-2-2.7-2.5-9.3,2.2-16
	l-15.5,1.7C55.4,36.8,49.7,45.5,53.1,68.9z"/>
<path class="st8" d="M54.2,39c0,0,10.7-3.4,27.7-1.4c17,1.9,8.6-5.2,3.5-6.6C77.9,28.8,55.7,28.3,54.2,39z"/>
<path class="st1" d="M53.7,39.6l0.1-0.7c0.3-2.4,1.7-4.5,4.1-6c7.1-4.7,21.8-4,27.6-2.4c2.7,0.8,7.4,3.6,7,5.8
	c-0.4,1.9-3.8,2.4-10.6,1.6c-16.7-1.9-27.4,1.4-27.5,1.4L53.7,39.6z M74.4,30.1c-5.8,0-12.1,0.9-16.1,3.5c-1.9,1.3-3.2,2.9-3.6,4.8
	c2.6-0.7,12.7-2.9,27.2-1.3c8.6,1,9.6-0.5,9.6-0.9c0.3-1.3-3.2-3.9-6.3-4.8C82.8,30.6,78.8,30.1,74.4,30.1z"/>
<line class="st9" x1="29.2" y1="262.9" x2="264.9" y2="22.4"/>
<path class="st2" d="M73.4,126.5c0,0,2.3,4.8,5.5,5.9"/>
<path class="st1" d="M78.8,132.9c0,0-0.1,0-0.1,0c-3.3-1.2-5.6-5.9-5.7-6.1c-0.1-0.2,0-0.5,0.2-0.6c0.2-0.1,0.5,0,0.6,0.2
	c0,0,2.3,4.6,5.2,5.7c0.2,0.1,0.3,0.3,0.3,0.6C79.2,132.7,79,132.9,78.8,132.9z"/>
</svg>
