<?xml version="1.0" encoding="utf-8"?>
<!-- Generator: Adobe Illustrator 23.1.0, SVG Export Plug-In . SVG Version: 6.00 Build 0)  -->
<svg version="1.1" id="Слой_1" xmlns="http://www.w3.org/2000/svg" xmlns:xlink="http://www.w3.org/1999/xlink" x="0px" y="0px"
	 viewBox="0 0 283.5 283.5" style="enable-background:new 0 0 283.5 283.5;" xml:space="preserve">
<style type="text/css">
	.st0{fill-rule:evenodd;clip-rule:evenodd;fill:none;}
	.st1{fill:#FDE2C4;}
	.st2{fill:#FFFFFF;}
	.st3{fill:#6E325E;}
	.st4{fill:#32A572;}
	.st5{fill:#F5C57F;}
	.st6{fill:#77C8DC;}
	.st7{fill:#B1D7CD;}
	.st8{fill:#1D1D1B;}
	.st9{fill:#8FCED9;}
	.st10{fill:#BCBCBC;}
	.st11{fill:#D3D2D2;}
	.st12{fill:#21376D;}
	.st13{fill:#D1112E;}
	.st14{fill:#106D9A;}
</style>
<g>
	<path class="st0" d="M119.5,141.3c0,0-9.2,8.4-12.9,7.5c-3.7-1-2-1.9-2-1.9"/>
	<path class="st1" d="M171.8,157.5c0,0-3.5,16.1-6.5,17.8c-2.9,1.7-6.3,1.7-11.8-7.2c-5.5-8.9-15.1-27.4-16.5-30.4
		c0,0-4-0.9-6.2-3.1c-1.6-1.6-2.6-5.4-6.3-8.5c-5.4-4.5-6.9-6-6.2-6.6c1.8-1.5,10.3,4.6,10.3,4.6l0.8-0.8c0,0-6.8-7.5-8-8.5
		c-1.2-0.9-0.8-2.9,1.2-2c2,0.9,9.2,5.8,10.8,8.3l0.8-0.6c0,0-6.5-8.8-5.4-9.8c2-2,9.7,7.5,12.5,12.6c0,0,0.6-1.5,1-2.8
		c2.4-7.4,5.8-6.9,5.6-5.8c-0.4,2.1-1.3,4.8-1.8,6.7c-0.4,1.5,0.4,3.8,0.2,6.8c-0.3,3.1-2,6.3-2,6.3l16.8,26.8l0.8-7.2L171.8,157.5z
		"/>
	<path d="M162.8,165.7c-0.3,0-0.5-0.2-0.5-0.5c0-1-1.2-3-1.7-3.6c-0.1-0.2-0.1-0.5,0.1-0.6c0.2-0.1,0.5-0.1,0.6,0.1
		c0.2,0.3,1.9,2.7,1.9,4.2C163.3,165.5,163.1,165.7,162.8,165.7z"/>
	<path class="st2" d="M141.1,110.7c-1.5-1.5-3.4-3.1-3.8-5.4c-0.4-2.5-0.9-6.5-4.2-6.8c-3.2-0.3-4.8,3.4-4.8,6.1c0,0.1,0,0.2,0,0.3
		c-2.9,0.6-4.8,2.9-4.4,5.3c0.2,1.1,0.8,2,1.7,2.6c-0.8,1-1.2,2.1-1,3.3c0.4,2.5,3.1,4.1,6.1,3.7c0.2,0.2,0.5,0.5,0.8,0.6
		c1.7,1,4,0.3,5.5-1.4c1.9,0.8,4.3-0.2,5.6-2.3C144,114,142.8,112.3,141.1,110.7z"/>
	<polygon class="st1" points="212.6,231 210.4,261 199,261 197.5,231.9 	"/>
	<polygon class="st1" points="185.4,230 183.2,261 172.3,261 170.7,230.9 	"/>
	<path class="st3" d="M170.2,200.9c0,0-1.9,12.9-3.8,31.3c0,0,22,3.2,57.4,0.8c0,0-1.7-22.2-4.1-32.3
		C219.6,200.7,182.1,203.3,170.2,200.9z"/>
	<path class="st4" d="M192.1,106.7c0.5,0,13.8,0.6,21.4,12.5c7.5,11.8,10.1,30.6,10.8,35.8l-4.8-0.6c0,0,5.5,38.3,5.2,56.9
		c0,0-37.7,5.4-59.4-0.9c0,0,2.5-41.7,4.3-52.9c0,0-3.2-1.1-10-3.1c0,0,4.8-35.2,22.1-43.7C187.3,108,192.1,106.7,192.1,106.7z"/>
	<path class="st5" d="M130.5,92.1c-1-1.5-2.7-2.2-4.4-2.3c1.9-2,2.7-5.4,1.7-8.7c-1.4-4.6-5.6-7.5-9.4-6.4
		c-3.9,1.1-5.9,5.8-4.5,10.4c0.4,1.5,1.2,2.7,2.1,3.8c-1.9,2-2.2,5-0.6,7.3c1.2,1.7,3.2,2.5,5.2,2.2c0.1,0.2,0.2,0.4,0.3,0.5
		c1.8,2.5,5.5,3,8.1,1.1C131.6,98.2,132.3,94.6,130.5,92.1z"/>
	<path class="st1" d="M185,94.4c4.5,5.5,10,14.8,10,14.8s-0.6,5-2.4,7.2c-7.9,10-14.6,4.9-14.1,3.4c0,0,4-7.9-6.8-15.1L185,94.4z"/>
	<path class="st0" d="M138.7,112.7c9.8,7.3,22.7,8.5,37.1-1.3c15.4-10.6,20.1-31.1,10.1-46.4c-10.1-15.3-30.9-19.3-46.6-9
		c-15.6,10.3-20.1,31.1-10.1,46.4c1.1,1.7,2.3,3.3,3.6,4.8c-1.3,1.6-1.7,3.6-0.8,5C133.2,114.1,136.2,114.2,138.7,112.7z"/>
	<path class="st1" d="M138.7,112.7c9.8,7.3,22.7,8.5,37.1-1.3c15.4-10.6,20.1-31.1,10.1-46.4c-10.1-15.3-30.9-19.3-46.6-9
		c-15.6,10.3-17.9,29.3-10.1,46.4c0.8,1.9,2.3,3.3,3.6,4.8c-1.3,1.6-1.7,3.6-0.8,5C133.2,114.1,136.2,114.2,138.7,112.7z"/>
	<path class="st0" d="M146.1,101.9l-5.1,2.6c0,0-4.7-5.2-2-6.6C143.1,95.7,146.1,101.9,146.1,101.9z"/>
	<path class="st0" d="M141.7,103.7c1,0.1,2-0.5,2.1-1.4c0.1-0.9-0.6-1.7-1.7-1.9c-1-0.1-2,0.5-2.1,1.4
		C139.9,102.8,140.6,103.6,141.7,103.7z"/>
	<g>
		<path d="M148.5,96.3c-1.8-2.2-5.1-2.5-7-1.3c-1.8,1.1-2.2,3.1-1.1,5.5c0.1,0.2,0.2,0.3,0.4,0.3c0.1,0,0.1,0,0.2,0
			c0.2-0.1,0.3-0.4,0.2-0.6c-0.9-1.9-0.6-3.4,0.8-4.3c1.6-1,4.3-0.8,5.8,1.1c0.2,0.2,0.4,0.2,0.6,0.1
			C148.7,96.8,148.7,96.5,148.5,96.3z"/>
		<path d="M142.4,89.4c0.2-0.2,0.1-0.5,0-0.7c0,0-3.7-3.2-9.3,1.5c-0.2,0.2-0.2,0.5-0.1,0.6c0.1,0.1,0.2,0.2,0.4,0.2
			c0.1,0,0.2,0,0.3-0.1c4.9-4.1,7.9-1.6,8.1-1.5C142,89.6,142.3,89.6,142.4,89.4z"/>
		<path d="M150.7,108.6c-0.1-0.2-0.4-0.4-0.6-0.3c-0.2,0.1-0.4,0.4-0.3,0.6c0,0.1,2.3,6.3-1.2,8.2c-0.2,0.1-0.3,0.4-0.2,0.6
			c0.1,0.2,0.2,0.2,0.4,0.2c0.1,0,0.1,0,0.2-0.1C153.3,115.7,150.8,108.9,150.7,108.6z"/>
	</g>
	<path class="st2" d="M182.3,100.5c0-2.7-2.3-4.8-5.1-4.8c-2.4,0-4.4,1.6-4.9,3.7c-0.8-1.6-2.5-2.7-4.6-2.7c-2.8,0-5.1,2.2-5.1,4.8
		c0,1.4,0.7,2.7,1.7,3.6c-1.1,1.2-1.7,2.7-1.7,4.4c0,3.8,3.2,6.8,7.1,6.8c0.4,0,0.8-0.1,1.1-0.1c0.9,1.4,2.4,2.4,4.3,2.4
		c2.7,0,5-2.1,5-4.7c0-1-0.3-1.9-0.9-2.7c1.6-0.8,2.7-2.4,2.7-4.2c0-1.2-0.5-2.2-1.2-3C181.8,103,182.3,101.8,182.3,100.5z"/>
	<path class="st1" d="M204.5,151.9l12,2.2c0,0-1.8,18.9-6.5,19.5s-19.5-11.5-32.1-25.1c-7.8-8.4-9.5-11.1-9.5-11.1s-0.9,0-3.7-2.3
		c-2.8-2.3-9-7.7-10-10.1c-0.6-1.5,0.1-3,1.1-2.2c4,3.5,6,4.2,6,4.2h-0.2c0,0-4.9-6.6-5.2-9.5c-0.1-1.4,1.1-1.7,1.8-1.2
		s7.1,7.7,7.1,7.7s-4.3-9.1-5.2-11.4c-0.6-1.5,1.7-2.6,2.5-1.2c1.8,3.4,6.2,10.8,6.2,10.8l0.2-0.3c0,0-3.8-10.5-2.6-11.4
		c1.2-0.9,2.8,0.6,3.4,2.5s3.8,10.3,5.5,10.8c1.7,0.5,1.1,0.3,1.1,0.3s1.2-6.6,3.1-6.9c0,0,1.8-0.8,1.8,0.3c0,1.1-1.7,7.5-1.7,9.1
		c0,6.6-3.1,8.5-3.1,8.5s12,10.2,15.5,12.9c3.1,2.4,11.8,8.5,11.8,8.5L204.5,151.9z"/>
	<path class="st5" d="M201.9,69.8c0-3.5-1.9-6.6-4.6-8.1c0.4-0.9,0.7-2,0.7-3.1c0-4.3-3.7-7.7-8.4-7.7c0.3-1,0.5-2.1,0.5-3.2
		c0-5.6-4.5-10.1-10.1-10.1c-2.8,0-5.4,1.2-7.2,3c-0.3-1.6-0.9-3.2-1.9-4.6c-3.6-4.9-10.7-5.8-15.8-2c-0.7,0.5-1.3,1.1-1.8,1.7
		c0-0.1-0.1-0.1-0.1-0.2c-4.1-5.5-13.5-5.5-21.1,0.1c-3.9,2.8-6.5,6.6-7.6,10.3c-4.2,0.3-7.5,3.8-7.5,8c0,4.5,3.6,8.1,8.1,8.1
		c2.4,0,4.5-1,6-2.7c1.5,0.4,3.1,0.6,4.7,0.5c0.3,1.6,0.9,3.1,2,4.5c0.2,0.2,0.3,0.4,0.5,0.6c-0.3,0.2-0.5,0.3-0.8,0.5
		c-4.3,3.1-5.2,9.1-2.1,13.3c3.1,4.2,9,5.1,13.3,2c0.3-0.3,0.6-0.6,0.9-0.8c0.1,0.2,0.2,0.3,0.3,0.5c3.1,4.2,13.2,8.7,18-2.1
		c0.2-2.4,1.5-6.5,4.2-7.1c3.6-0.8,7.3,2.1,3.9,10.5c-0.4,0.7-0.6,1.5-0.6,2.3c0,3,2.7,5.4,5.9,5.4c-0.1,0.4-0.2,0.8-0.2,1.3
		c0,3,2.7,5.4,6,5.4c3.3,0,6-2.4,6-5.4c0-0.7-0.2-1.4-0.4-2c0.1,0,0.2,0,0.3,0c4.8,0,8.6-3.4,8.6-7.6c0-1.8-0.7-3.4-1.9-4.7
		C201,74.5,201.9,72.3,201.9,69.8z"/>
	<path class="st5" d="M141.7,58.9c-0.5-0.1-1-0.1-1.4-0.1c-1-4.9-5-8.3-9.2-7.5c-3,0.6-5.5,2.8-6.4,5.8c-2.9-2.8-6.9-3.6-9.8-1.6
		c-3,2-4.6,5.9-3.3,9.6c-4.3,1.7-7,5.7-5.9,9.4c1,3.3,4.2,5.8,8,5.7c0.6,4.1,3.9,7.7,8.6,8.5c5.8,1,11.9-2.2,14-7.2
		c0.7-1.6,1-3,1.2-4.3c0,0,0.1,0,0.1,0c4.7,0.9,9.8-1.6,10.7-6.6C149.1,65.5,146.4,59.7,141.7,58.9z"/>
	<path class="st6" d="M116.7,133.2c-3.1-0.8,1.8-6.1,1.8-6.1S119.8,134,116.7,133.2z"/>
	<path class="st6" d="M107.7,123c1.7-3.3,8.3-3.1,8.3-3.1s-3.2,1.9-5.7,5.8C109.5,127,106.4,125.5,107.7,123z"/>
	<path class="st6" d="M107.8,109.8c4-1.6,9.6,4.1,9.6,4.1s-4.1-0.8-6.4-0.4c-0.9,0.1-2.3,0.6-3.1,0.7
		C105.6,114.6,103.8,111.4,107.8,109.8z"/>
	<path class="st6" d="M157.2,141.8c-2.7-1.9,3.8-5.1,3.8-5.1S159.8,143.6,157.2,141.8z"/>
	<path class="st6" d="M150.8,134.4c-1.6-2.9,6.3-3.9,6.3-3.9S152.5,137.3,150.8,134.4z"/>
	<path class="st6" d="M166.6,146.8c-3.3-0.2,0.1-7.4,0.1-7.4S169.9,147,166.6,146.8z"/>
	<g>
		<path d="M220,154.9l4.8,0.6l-0.1-0.6c-0.6-5.5-3.3-24.2-10.8-36c-6.1-9.5-16-11.9-20-12.5c-1.4-2.2-3.5-5.6-5.7-8.6
			c0.3-0.6,0.5-1.2,0.8-1.7c2.6-0.8,4.5-3,4.5-5.6c0-0.5-0.1-1-0.2-1.5c4.9-0.2,8.8-3.7,8.8-8.1c0-1.7-0.6-3.3-1.8-4.7
			c1.4-1.8,2.2-4,2.2-6.3c0-3.4-1.7-6.6-4.5-8.3c0.4-0.9,0.6-1.9,0.6-2.9c0-4.3-3.6-7.9-8.2-8.2c0.3-0.9,0.4-1.9,0.4-2.8
			c0-5.9-4.8-10.6-10.6-10.6c-2.6,0-5,0.9-6.9,2.6c-0.3-1.5-0.9-2.8-1.8-4c-3.7-5.1-11.1-6-16.4-2.1c-0.5,0.4-1,0.8-1.5,1.3
			c-4.3-5.5-13.9-5.4-21.6,0.2c-3.7,2.7-6.4,6.4-7.7,10.2c-4.3,0.5-7.6,4.1-7.6,8.4c0,0.1,0,0.3,0,0.4c-0.7,0.2-1.3,0.4-1.9,0.8
			c-3.2,2.1-4.7,6.1-3.6,9.7c-4.4,1.9-6.9,6-5.8,9.8c1.1,3.5,4.3,5.9,8,6c-0.3,1.5-0.2,3.1,0.3,4.7c0.4,1.3,1,2.5,1.9,3.6
			c-1.8,2.2-2,5.3-0.4,7.5c1.2,1.7,3.2,2.6,5.3,2.4c0.1,0.1,0.1,0.2,0.2,0.3c1,1.3,2.4,2.2,4.1,2.4c0.3,0,0.6,0.1,0.9,0.1
			c1,0,1.9-0.2,2.8-0.7c0.1,0.2,0.2,0.4,0.2,0.6c-0.3,1-0.5,1.9-0.5,2.7c-2.9,0.7-4.8,3.2-4.4,5.8c0.2,1,0.7,1.9,1.5,2.7
			c-0.1,0.2-0.2,0.4-0.3,0.6c-0.7-0.4-1.3-0.8-1.7-1c-1.2-0.6-2-0.2-2.4,0.4c-0.4,0.7-0.2,1.8,0.7,2.4c0.9,0.7,5.2,5.4,7.6,8.1
			l-0.2,0.2c-2-1.4-8.6-5.9-10.5-4.4c-0.2,0.2-0.3,0.4-0.3,0.7c0,1,1.3,2.3,6.5,6.6c2.3,1.9,3.5,4,4.5,5.8c0.6,1.1,1.1,2,1.8,2.7
			c1.9,1.9,5.3,2.9,6.1,3.1c1.6,3.5,10.9,21.4,16.4,30.3c4,6.4,6.9,8.3,9.4,8.3c1.1,0,2.1-0.4,3.1-1c0.6-0.4,1.3-1.4,1.9-2.7
			c-1.4,16.1-2.6,37-2.6,37.3l0,0.4l0.4,0.1c1,0.3,2,0.6,3.1,0.8c-0.7,5.4-1.5,12.4-2.4,20.5l0,0.4l0.4,0.1c0.1,0,1.5,0.2,4.1,0.5
			l1.5,27.9h0.9l-1.5-27.8c3.1,0.3,7.6,0.6,13.3,0.9l-1.9,27h0.9l1.9-26.9c3.4,0.1,7.3,0.2,11.6,0.2l1.5,26.7h0.9l-1.5-26.7
			c4.3,0,8.9-0.1,13.9-0.3l-2,27h0.9l2-27c3.5-0.1,7.1-0.3,10.9-0.6l0.5,0l0-0.5c0-0.2-0.9-10.9-2.2-20.8c1.7-0.2,2.6-0.3,2.7-0.3
			l0.4-0.1l0-0.4C225.4,194.1,220.7,159.9,220,154.9z M121.8,114.5c-0.5-0.4-0.6-0.9-0.4-1.2c0.2-0.3,0.6-0.3,1.2,0
			c0.4,0.2,1,0.5,1.8,1c-0.2,0.6-0.2,1.3-0.1,1.9c0.1,0.3,0.1,0.6,0.3,0.9C123.2,115.9,122.2,114.8,121.8,114.5z M213.1,119.4
			c7.2,11.2,9.9,29,10.6,35l-3.8-0.5c0,0,0,0-0.1-0.1l-20.3-3.3l2.3-20.5c0-0.3-0.2-0.5-0.4-0.5c-0.3-0.1-0.5,0.2-0.5,0.4l-2.3,20.9
			c0,0.2,0.1,0.5,0.4,0.5l5.1,0.8l-0.6,3.2c-2-1.4-8.6-6-11.2-8c-3.1-2.4-12.9-10.7-15.1-12.5c0.9-0.8,2.8-3.2,2.8-8.5
			c0-0.7,0.3-2.3,0.7-4c0.7,0.3,1.5,0.4,2.4,0.4c2.8,0,6.4-1.6,10-6.2c1.8-2.3,2.4-7.2,2.4-7.4c0-0.1,0-0.2-0.1-0.3
			c0,0-0.3-0.6-0.9-1.5C198.7,108.2,207.5,110.7,213.1,119.4z M146.6,124.2c-0.1-1.1-0.2-2,0-2.6c0.2-0.6,0.3-1.2,0.5-1.8
			c0.2-0.7,0.4-1.4,0.6-2.1c2.5,0.8,5.1,1.2,7.8,1.2c0.3,0,0.6,0,0.9,0c0.8,2.1,2.5,4.9,3.7,6.7c-1-0.6-2.3-1.6-3.9-3.1
			c-0.5-0.4-1-0.5-1.4-0.2c-0.7,0.5-0.8,1.7-0.4,2.8c1,2.4,6.7,7.4,9.6,9.9c-3.4,9.7-4.6,18.5-4.7,19.2l-0.1,0.4l0.4,0.1
			c0.6,0.2,1.1,0.3,1.7,0.5l-0.5,4.6l-15.9-25.4c0.4-0.8,1.7-3.5,1.9-6.2C146.9,126.7,146.7,125.4,146.6,124.2z M160.1,154.1
			c0.3-1.8,1.6-9.7,4.6-18.3c1.9,1.6,3,2,3.4,2.1c0.3,0.4,1.2,1.7,3.5,4.3c-0.3,2.2-2,12.2-2.3,14.6
			C168.1,156.5,165.1,155.5,160.1,154.1z M168.8,137.2c-0.1-0.1-0.2-0.2-0.4-0.2c0,0-0.9-0.1-3.4-2.2c-2.1-1.7-8.9-7.5-9.9-10
			c-0.4-0.9-0.1-1.6,0.1-1.7c0,0,0,0,0.1,0c0.1,0,0.1,0,0.2,0.1c3.1,2.7,5,3.8,5.8,4.1c0.1,0.1,0.2,0.2,0.4,0.2h0.1
			c0.2,0,0.4-0.2,0.5-0.4c0-0.2-0.1-0.4-0.3-0.5c0,0,0,0-0.1,0c-0.7-0.9-3.5-4.9-4.6-7.7c-0.1-0.3-0.2-0.6-0.3-0.9
			c0-0.2-0.1-0.4-0.1-0.5c0-0.3,0-0.6,0.3-0.8c0.2-0.1,0.6-0.1,0.9,0c0.1,0.1,0.5,0.5,1.1,1.1c0.3,0.2,0.5,0.5,0.8,0.8
			c1.4,1.5,3.3,3.7,5.1,5.7c0.1,0.2,0.4,0.2,0.6,0.1c0.2-0.1,0.3-0.4,0.1-0.6c0-0.1-1.4-2.9-2.7-5.8c0,0,0,0,0,0
			c-0.1-0.3-0.3-0.6-0.4-0.8c-0.9-2-1.8-3.8-2.1-4.7c-0.2-0.5,0.1-0.9,0.5-1.1c0.3-0.1,0.9-0.2,1.1,0.3c0.7,1.3,1.7,3.1,2.7,4.9
			c0.2,0.3,0.3,0.5,0.5,0.8c1.5,2.7,2.9,5.1,3,5.1c0.1,0.1,0.2,0.2,0.4,0.2c0.2,0,0.3-0.1,0.4-0.3l0.1-0.3c0.1-0.1,0.1-0.2,0-0.4
			c-1.7-4.7-3.3-10.2-2.8-10.8c0.2-0.2,0.5-0.2,0.8-0.1c0.7,0.2,1.5,1.2,1.9,2.4c0,0.1,3.7,10.5,5.9,11.1c0.5,0.1,0.8,0.2,1,0.3
			c0,0,0.1,0,0.1,0.1c0.3,0.1,0.6-0.1,0.7-0.3c0-0.2,0.1-0.3,0-0.4c0.5-2.5,1.6-6,2.7-6.2c0.5-0.2,1.1-0.3,1.2-0.1
			c0,0.4-0.4,2.1-0.7,3.7c-0.5,2.2-1,4.5-1,5.4c0,6.2-2.8,8-2.9,8.1c-0.1,0.1-0.2,0.2-0.2,0.4c0,0.1,0.1,0.3,0.2,0.4
			c0.1,0.1,12,10.2,15.5,12.9c3.1,2.4,11.8,8.4,11.9,8.5c0,0,0,0,0,0c2.7,1.9,5.7,4.4,5.8,5c0,0.3,0.2,0.5,0.5,0.5
			c0.3,0,0.5-0.2,0.5-0.5c0-1.3-4-4.2-5.9-5.6l0.6-3.6l11.1,2c-0.6,5.4-2.6,18.2-6,18.7c-0.1,0-0.2,0-0.3,0
			c-4.5,0-18.4-11-31.4-24.9C170.6,140,168.8,137.3,168.8,137.2z M161,118.4c0.4-0.1,0.7-0.1,1.1-0.2c0.5,1.1,1,2.1,1.4,3
			C162.7,120.3,161.8,119.3,161,118.4z M164.7,104.7c-1-0.8-1.5-2-1.5-3.2c0-2.4,2.1-4.4,4.6-4.4c1.8,0,3.4,1,4.1,2.5
			c0.1,0.2,0.3,0.3,0.5,0.3c0.2,0,0.3-0.2,0.4-0.3c0.5-2,2.3-3.3,4.5-3.3c2.5,0,4.6,2,4.6,4.4c0,1.1-0.5,2.2-1.3,3
			c-0.2,0.2-0.2,0.4,0,0.6c0.7,0.8,1.1,1.7,1.1,2.7c0,1.6-1,3.1-2.5,3.8c-0.1,0.1-0.2,0.2-0.2,0.3c0,0.1,0,0.3,0.1,0.4
			c0.5,0.7,0.8,1.6,0.8,2.4c0,2.4-2,4.3-4.5,4.3c-1.4,0-2.8-0.7-3.6-1.8c0,0.1,0.1,0.2,0.1,0.3c0,0.1,0,0.3,0,0.4
			c-0.7-1.5-1.3-3.1-1.6-4.3c-0.5-1.5-1.5-2.6-2.5-3c-0.6-0.2-1.1-0.1-1.6,0.3c-0.6,0.5-0.4,2.3,0.1,4.6c-1.8-1.1-2.9-3-2.9-5.2
			c0-1.5,0.6-2.9,1.6-4.1c0.1-0.1,0.1-0.2,0.1-0.3C164.9,104.9,164.8,104.7,164.7,104.7z M177.4,118.6c-0.8,1.6-1.3,3.7-1.5,4.8
			c-0.2-0.1-0.4-0.1-0.6-0.2c-0.7-0.2-2-2.6-3.1-5.2c0.9,0.6,2,1,3.1,1C176,119,176.7,118.8,177.4,118.6z M165.8,116.1
			c-0.6-1-1.1-2-1.7-2.9c0.3,0.4,0.6,0.9,0.9,1.3c0.2,0.3,0.4,0.6,0.5,0.9c0.3,0.2,0.6,0.3,0.9,0.5c0,0,0,0,0,0
			C166.2,115.9,166,116,165.8,116.1z M166.7,116.7c0.2,0.7,0.4,1.4,0.6,2.1c-0.3-0.6-0.7-1.2-1.1-1.9
			C166.4,116.9,166.5,116.8,166.7,116.7z M194.5,109.3c-0.1,0.8-0.8,4.9-2.3,6.8c-5.4,6.8-9.8,6.1-11.5,5.4c0-0.1,0-0.2,0.1-0.3
			c0.4-2,0.7-3.3,0.7-3.9c0-0.4-0.1-0.7-0.4-0.8c-0.3-0.2-0.8-0.2-1.2-0.1c0.5-0.8,0.7-1.6,0.7-2.6c0-0.9-0.2-1.8-0.7-2.5
			c1.6-0.9,2.5-2.6,2.5-4.4c0-0.2,0-0.5-0.1-0.7c2.1-2.3,3.8-4.8,5.2-7.4C190.9,103.3,194,108.4,194.5,109.3z M124.4,46.3
			c0.2,0,0.4-0.1,0.4-0.3c1.1-3.8,3.8-7.4,7.4-10.1c7.4-5.4,16.6-5.5,20.5-0.1c0,0,0.1,0.1,0.1,0.1c0.1,0.1,0.2,0.2,0.4,0.2
			c0.1,0,0.3,0,0.4-0.2c0.5-0.6,1.1-1.1,1.8-1.6c4.9-3.6,11.7-2.8,15.2,1.9c1,1.3,1.6,2.8,1.8,4.4c0,0.2,0.1,0.3,0.3,0.4
			c0.2,0.1,0.3,0,0.5-0.1C175,39,177.4,38,180,38c5.3,0,9.7,4.3,9.7,9.7c0,1-0.2,2.1-0.5,3.1c0,0.1,0,0.3,0.1,0.4
			c0.1,0.1,0.2,0.2,0.4,0.2c4.4,0,7.9,3.3,7.9,7.3c0,1-0.2,2-0.7,2.9c-0.1,0.2,0,0.5,0.2,0.6c2.7,1.5,4.4,4.5,4.4,7.7
			c0,2.2-0.8,4.4-2.3,6c-0.2,0.2-0.2,0.4,0,0.6c1.2,1.3,1.8,2.8,1.8,4.4c0,3.9-3.7,7.1-8.3,7.1h0c-0.1,0-0.1,0-0.2,0
			c-0.2,0-0.3,0.1-0.4,0.2c-0.1,0.1-0.1,0.3,0,0.4c0.3,0.6,0.4,1.2,0.4,1.8c0,2.7-2.5,5-5.5,5c-3,0-5.5-2.2-5.5-5
			c0-0.3,0.1-0.7,0.2-1.1c0-0.1,0-0.3-0.1-0.4c-0.1-0.1-0.2-0.2-0.4-0.2c-3,0-5.5-2.2-5.5-5c0-0.7,0.2-1.4,0.5-2.1
			c2.4-5.9,1.2-8.7,0.2-9.8c-0.8-1-2-1.5-3.4-1.5c-0.4,0-0.8,0-1.2,0.1c-3.1,0.7-4.3,5.1-4.5,7.5c-1.7,3.8-4.3,6-7.5,6.3
			c-3.9,0.4-7.9-1.9-9.7-4.4c-0.1-0.1-0.1-0.2-0.1-0.2c0-0.1-0.1-0.2-0.1-0.3c-0.1-0.1-0.2-0.2-0.3-0.2c-0.1,0-0.3,0-0.4,0.1
			l-0.2,0.2c-0.2,0.2-0.4,0.4-0.7,0.6c-3.4,2.5-8,2.3-11.1-0.3c0.2-0.8,0.4-1.5,0.6-2.2c4.7,0.7,9.9-1.7,10.9-7.1
			c0.9-5-1.7-11.3-6.8-12.2c0,0,0,0,0,0c-0.4-0.1-0.8-0.1-1.2-0.1c-1.2-5-5.4-8.3-9.6-7.5c-3,0.6-5.4,2.7-6.5,5.4
			c-2.2-1.8-4.8-2.6-7.1-2.3c0-0.1,0-0.2,0-0.2C117.4,49.9,120.5,46.5,124.4,46.3z M113.6,79.7L113.6,79.7c-3.5,0.1-6.6-2.1-7.5-5.4
			c-1-3.4,1.4-7.2,5.6-8.8c0.2-0.1,0.4-0.3,0.3-0.6c-1.2-3.4,0.1-7.1,3.1-9.1c2.7-1.8,6.5-1.1,9.3,1.6c0.1,0.1,0.3,0.2,0.4,0.1
			c0.2,0,0.3-0.2,0.3-0.3c0.8-2.8,3.2-4.9,6-5.4c3.8-0.7,7.7,2.5,8.6,7.1c0,0.2,0.2,0.4,0.4,0.4c0.4,0,0.9,0,1.4,0.1
			c4.6,0.8,6.9,6.5,6.1,11.1c-0.9,4.9-5.9,7.1-10.2,6.3c0,0-0.1,0-0.1,0c-0.1,0-0.2,0-0.4,0.1c-0.1,0.1-0.2,0.2-0.2,0.3
			c-0.2,1.4-0.6,2.7-1.2,4.2c-1.9,4.8-8,7.9-13.4,6.9c-4.3-0.8-7.6-4-8.2-8.1C114,79.9,113.8,79.7,113.6,79.7z M124.6,100.8
			c-1.4-0.2-2.6-0.9-3.4-2c-0.1-0.1-0.1-0.2-0.2-0.3l-0.1-0.2c-0.1-0.1-0.2-0.2-0.4-0.2c0,0,0,0-0.1,0c-1.9,0.2-3.7-0.5-4.8-2
			c-1.4-2-1.2-4.8,0.6-6.7c0.2-0.2,0.2-0.4,0-0.6c-0.9-1.1-1.6-2.3-2-3.6c-0.2-0.8-0.3-1.5-0.4-2.3c1.4,3.2,4.4,5.6,8.2,6.3
			c0.8,0.1,1.5,0.2,2.3,0.2c0.1,0,0.3,0,0.4,0c0.5,3.6,1.5,7.3,3,11C126.8,100.7,125.7,101,124.6,100.8z M125.7,89.2
			c4.7-0.5,9.1-3.4,10.8-7.6c0.1-0.3,0.2-0.5,0.3-0.8c3.4,2.6,8.3,2.8,12,0.1c0.2-0.1,0.4-0.3,0.6-0.5c0,0,0,0,0,0
			c1.9,2.6,6.3,5.2,10.5,4.8c2.5-0.3,5.9-1.7,8.3-6.9c0,0,0-0.1,0-0.1c0.2-2.3,1.4-6.2,3.8-6.7c1.5-0.3,2.8,0,3.7,1.1
			c0.8,1,1.9,3.4-0.4,8.8c-0.4,0.8-0.6,1.6-0.6,2.5c0,3.1,2.6,5.6,5.8,5.9c0,0.3-0.1,0.6-0.1,0.8c0,3.3,2.9,5.9,6.4,5.9
			c0.3,0,0.6,0,0.9-0.1c-1.4,3.1-3.3,6.1-5.6,8.8c-0.2-0.4-0.4-0.8-0.7-1.2c0.8-0.9,1.3-2.1,1.3-3.4c0-2.9-2.5-5.3-5.5-5.3
			c-2.2,0-4.1,1.2-5,3.1c-1-1.4-2.7-2.2-4.4-2.2c-3.1,0-5.5,2.4-5.5,5.3c0,1.3,0.6,2.7,1.5,3.6c-1,1.3-1.5,2.8-1.5,4.3
			c0,0.4,0,0.7,0.1,1.1c-0.5-0.3-1.2-0.3-1.7-0.1c-0.8,0.4-1.4,1.2-1,2.3c0.4,0.8,1.1,2.6,2,4.5c-0.5,0.1-1,0.2-1.5,0.3
			c-0.8-0.9-1.5-1.6-1.8-1.7c-0.6-0.3-1.3-0.4-1.8,0c-0.5,0.3-0.8,0.9-0.7,1.7c0,0.1,0,0.3,0.1,0.4c-6.1,0.1-11.8-1.7-17.1-5.6
			c-0.1-0.1-0.2-0.1-0.3-0.1c-0.1,0-0.2,0-0.2,0.1c-2.3,1.4-5,1.3-6.1-0.3c-0.8-1.2-0.5-3,0.8-4.5c0.1-0.2,0.1-0.4,0-0.6
			c-0.2-0.3-0.5-0.6-0.7-0.8c-1.1-1.2-2.1-2.4-2.8-3.8C127.6,97.8,126.4,93.5,125.7,89.2z M143.8,116.3c-0.7,1-1.3,2.3-1.9,4.1
			c-0.2,0.6-0.5,1.3-0.7,1.9c-0.5-0.8-1.1-1.7-1.7-2.7c1.3-0.4,2.6-1.3,3.4-2.7c0.2-0.3,0.3-0.6,0.4-0.8
			C143.4,116.1,143.6,116.2,143.8,116.3z M125.1,116.1c-0.2-1,0.2-2.1,0.9-3c0.1-0.1,0.1-0.2,0.1-0.3c0-0.1-0.1-0.2-0.2-0.3
			c-0.8-0.6-1.4-1.4-1.5-2.3c-0.3-2.2,1.4-4.3,4.1-4.8c0.2,0,0.4-0.2,0.4-0.5l0-0.3c0-0.5,0.1-1,0.2-1.5c0.7,1.4,1.7,2.6,2.7,3.7
			c0.2,0.2,0.3,0.4,0.5,0.5c-1.3,1.8-1.5,3.8-0.6,5.3c1.3,2,4.3,2.3,7,0.8c1.2,0.9,2.5,1.7,3.8,2.4c-0.1,0.2-0.2,0.5-0.4,0.8
			c-1.1,1.9-3.3,2.9-5,2.1c-0.2-0.1-0.4,0-0.5,0.1c-1.1,1.3-2.6,1.9-4,1.7c0,0,0,0,0,0c-0.1-0.1-0.2-0.2-0.2-0.3c0,0.1,0,0.2-0.4,0
			c-0.1,0-0.1-0.1-0.2-0.1c0.1,0.1,0.2,0.2,0.3,0.3c-0.1-0.1-0.2-0.1-0.4-0.2c-0.2-0.1-0.4-0.3-0.7-0.6c-0.1-0.1-0.2-0.1-0.3-0.1
			c0,0,0,0-0.1,0C127.9,119.7,125.4,118.3,125.1,116.1z M126.7,119.6c1.1,0.6,2.4,0.9,3.8,0.7c0.2,0.2,0.5,0.4,0.7,0.6
			c0.4,0.3,0.9,0.4,1.4,0.5c-0.4,0.2-0.7,0.4-1.1,0.6c-0.6,0.4-1.2,0.8-1.7,1.2c0,0,0,0,0,0C129.7,122.9,128.3,121.3,126.7,119.6z
			 M165.1,174.9c-2.6,1.5-5.8,1.7-11.2-7.1c-5.6-9.1-15.1-27.5-16.4-30.4c-0.1-0.1-0.2-0.2-0.3-0.3c0,0-3.9-0.9-5.9-3
			c-0.6-0.6-1.1-1.4-1.6-2.5c-1-1.8-2.3-4-4.7-6c-2.2-1.8-6.3-5.2-6.1-5.9c0.1-0.1,0.3-0.2,0.6-0.2c1.8,0,6.1,2.6,9.1,4.8
			c-0.3,0.3-0.5,0.6-0.7,0.9c3-1.8,5.7-3.8,8.9-4.9c-0.2,0-0.3,0-0.5,0c0.4-0.2,0.7-0.5,1-0.9c0.5,0.2,0.9,0.2,1.4,0.2
			c0.9,1.3,1.7,2.5,2.3,3.6c-3.5,4.2-3.3,6.6-3.3,7.5c0,0.1,0,0.2,0,0.2c-0.1,0.2,0.1,0.5,0.3,0.6c0,0,0.1,0,0.1,0
			c0.2,0,0.4-0.1,0.4-0.3c0.1-0.2,0-0.3,0-0.6c-0.1-0.8-0.2-3,3.3-7.1c0,0,0,0,0-0.1c0,0,0,0,0.1-0.1c0-0.1,0.6-1.6,1-2.8
			c0.6-1.9,1.2-3.1,1.8-4c0.7,0.3,1.4,0.6,2.1,0.8c-0.2,0.7-0.4,1.4-0.6,2.1c-0.2,0.6-0.4,1.2-0.5,1.8c-0.2,0.8-0.1,1.8,0,3
			c0.1,1.1,0.3,2.4,0.1,3.9c-0.3,3-1.9,6.1-1.9,6.1c-0.1,0.1-0.1,0.3,0,0.5l16.8,26.8c0.1,0.2,0.3,0.3,0.5,0.2
			c0.2,0,0.3-0.2,0.4-0.4l0.6-5.8c3.8,1.2,6.2,1.9,7,2.2c-0.4,2.8-0.9,7.2-1.4,12.3C166.8,172.5,165.9,174.4,165.1,174.9z
			 M223.2,232.5c-14.7,1-27.1,1-36.5,0.7c0-0.1,0.1-0.1,0.1-0.2l0.2-11.1c0-0.2-0.1-0.3-0.3-0.4c0.2,0,0.4,0,0.6,0
			c1.1,0,2.3-0.1,3.4-0.3c0.3,0,0.5-0.3,0.4-0.6c0-0.3-0.3-0.5-0.6-0.4c-3.4,0.6-7.6-0.1-7.6-0.1c-0.3,0-0.5,0.1-0.6,0.4
			c0,0.3,0.1,0.5,0.4,0.6c0.1,0,1.6,0.3,3.5,0.3c-0.2,0.1-0.3,0.2-0.3,0.4l-0.2,11.1c0,0.1,0,0.1,0.1,0.2c-10.6-0.4-17.3-1.2-19-1.4
			c0.8-7.9,1.7-14.8,2.3-20c7.3,1.5,15.8,2.1,23.9,2.1c11.7,0,22.5-1.1,28-1.7C222.3,220.9,223.1,230.4,223.2,232.5z M224.2,210.9
			c-4,0.5-38.2,4.9-58.4-0.9c0.2-4.2,2.5-42,4.3-52.5l0.1-0.4l0,0c0.3-1.9,1.7-10.8,2.2-14c1.3,1.5,3,3.4,5.2,5.7
			c11.7,12.6,26.7,25.2,32.1,25.2c0.1,0,0.3,0,0.4,0c4.7-0.6,6.5-16.8,6.8-19.7l2.1,0.3C219.5,158.1,224.4,193.2,224.2,210.9z"/>
		<path d="M132,129.6l-0.2,0c-0.3,0-0.5,0.2-0.5,0.5s0.2,0.5,0.5,0.5l0.2,0c0.7,0,2.8-0.1,4.2,1.4c0.1,0.1,0.2,0.1,0.3,0.1
			c0.1,0,0.2,0,0.3-0.1c0.2-0.2,0.2-0.5,0-0.7C135.2,129.5,132.8,129.6,132,129.6z"/>
		<path d="M118.6,126.7c-0.2-0.1-0.3,0-0.5,0.1c-0.4,0.4-3.4,3.7-2.9,5.7c0.1,0.4,0.4,0.9,1.3,1.2c0,0,0,0,0,0
			c0.2,0.1,0.4,0.1,0.6,0.1c0.6,0,0.9-0.2,1.2-0.5c1.5-1.4,0.7-5.7,0.6-6.2C118.9,126.8,118.7,126.7,118.6,126.7z M117.7,132.6
			c-0.1,0.1-0.4,0.3-0.9,0.2h0c-0.5-0.1-0.6-0.4-0.7-0.5c-0.3-0.9,0.9-2.7,2-4.1C118.4,129.8,118.4,131.9,117.7,132.6z"/>
		<path d="M116.4,119.8c0-0.2-0.2-0.3-0.4-0.3c-0.3,0-7-0.2-8.7,3.3c-0.8,1.6,0,3,1,3.5c0.4,0.2,0.8,0.3,1.1,0.3
			c0.5,0,1-0.2,1.3-0.7c2.4-3.8,5.5-5.7,5.5-5.7C116.4,120.2,116.5,120,116.4,119.8z M109.9,125.5c-0.2,0.3-0.8,0.2-1.2,0
			c-0.6-0.4-1.2-1.2-0.6-2.3c1-2.1,4.4-2.6,6.4-2.8C113.2,121.4,111.4,123.1,109.9,125.5z"/>
		<path d="M108,114.7c0.4-0.1,0.9-0.2,1.4-0.3c0.6-0.2,1.2-0.3,1.7-0.4c2.2-0.3,6.2,0.4,6.2,0.4c0.2,0,0.4-0.1,0.5-0.2
			c0.1-0.2,0.1-0.4-0.1-0.5c-0.2-0.2-5.9-5.9-10.1-4.2c-2.3,0.9-2.9,2.4-2.6,3.5c0.3,1.1,1.4,1.8,2.5,1.8
			C107.8,114.7,107.9,114.7,108,114.7z M106,112.7c-0.2-0.9,0.5-1.8,2-2.4c0.4-0.2,0.9-0.2,1.3-0.2c2.4,0,5.2,2,6.7,3.3
			c-1.4-0.2-3.5-0.4-5-0.2c-0.5,0.1-1.2,0.2-1.8,0.4c-0.5,0.1-1,0.3-1.3,0.3C106.9,114,106.2,113.3,106,112.7z"/>
		<path d="M156,140.6c0,0.4,0.1,1,0.8,1.5c0.4,0.3,0.8,0.4,1.2,0.4c0.3,0,0.5-0.1,0.6-0.1c1.9-0.8,2.6-5.1,2.7-5.6
			c0-0.2,0-0.3-0.2-0.4c-0.1-0.1-0.3-0.1-0.5,0C160.3,136.5,156.2,138.6,156,140.6z M160.3,137.6c-0.4,1.6-1.1,3.6-2,4
			c-0.2,0.1-0.5,0.1-0.9-0.2c-0.4-0.3-0.5-0.6-0.4-0.7C157,139.7,158.8,138.4,160.3,137.6z"/>
		<path d="M151.8,135.6C151.9,135.6,151.9,135.6,151.8,135.6c2.3,0,5.3-4.3,5.6-4.8c0.1-0.1,0.1-0.3,0-0.5c-0.1-0.2-0.3-0.2-0.5-0.2
			c-0.6,0.1-5.7,0.8-6.7,2.8c-0.3,0.5-0.2,1.2,0.1,1.7C150.9,135.4,151.4,135.5,151.8,135.6z M151.2,133.3c0.5-1,2.9-1.8,4.9-2.1
			c-1.2,1.6-3.1,3.5-4.1,3.5c0,0,0,0,0,0c-0.2,0-0.4-0.1-0.6-0.5C151,133.7,151.1,133.4,151.2,133.3z"/>
		<path d="M166.7,139c-0.2,0-0.3,0.1-0.4,0.3c-0.2,0.5-2.4,5.2-1.2,7.2c0.3,0.5,0.8,0.8,1.5,0.9c0,0,0.1,0,0.1,0
			c0.8,0,1.2-0.4,1.4-0.7c1.3-1.8-0.8-6.8-1-7.3C167,139.1,166.9,139,166.7,139z M167.4,146.1c-0.1,0.1-0.3,0.3-0.8,0.3
			c-0.5,0-0.7-0.3-0.8-0.4c-0.6-1,0.1-3.4,0.8-5.3C167.4,142.6,168,145.2,167.4,146.1z"/>
	</g>
	<path class="st2" d="M37.2,180.5c0,0,1.8,42.5,58.8,31.4c46.7-9.1,39.5-48.9,39.5-48.9L37.2,180.5z"/>
	<path class="st2" d="M38.3,182.9c-1.5-1.7-1.1-4.3,0.7-5.6c6.7-4.8,21-13.5,28.6-18.1c0.8-0.5,1.6-1,2.5-1.5
		C80.2,152,98.2,146,103.6,147c9.7,1.7,24.3,5.3,30,11.6c8.5,9.4-3.6,26.5-22.9,35C91.8,201.9,56.3,202.6,38.3,182.9z"/>
	<path class="st7" d="M112,182.5c-1.3,0.8-2.7,1.5-4.2,2.2c-4.8,2.1-11.4,3.8-18.7,4.5c-11.1,1.1-23.7-0.2-33.9-5.8
		c-1.3-0.7-0.7-2.8,0.5-3.6c3.7-2.6,33.4-20.1,41.6-24.9c1.4-0.8,3-1.1,4.6-0.9c5.1,0.8,16.5,3.1,20.7,8.1
		C127.4,167.7,121.9,176.8,112,182.5z"/>
	<path class="st8" d="M82,190c-10.2,0-19.6-2.1-27-6.2c-0.6-0.3-0.9-0.9-1-1.6c-0.1-1,0.5-2.2,1.4-2.8c3.9-2.8,37.7-22.7,41.6-25
		c1.5-0.9,3.2-1.2,4.9-0.9c6,1,16.8,3.3,21,8.2c1.6,1.9,2.2,4.2,1.8,6.7c-0.8,5-5.6,10.5-12.4,14.5h0c-1.5,0.9-2.9,1.6-4.3,2.2
		c-5.1,2.2-11.8,3.9-18.8,4.6C86.8,189.9,84.3,190,82,190z M100.8,154.3c-1.1,0-2.3,0.3-3.3,0.9c-3.8,2.3-37.6,22.1-41.5,24.9
		c-0.6,0.4-1,1.3-1,2c0,0.4,0.2,0.7,0.5,0.8c9,5,20.9,7,33.7,5.8c6.9-0.7,13.5-2.3,18.5-4.5c1.3-0.6,2.7-1.3,4.2-2.1
		c6.6-3.9,11.1-9.2,11.9-13.9c0.4-2.3-0.1-4.3-1.5-6c-4.1-4.8-15.6-7.1-20.4-7.9C101.4,154.4,101.1,154.3,100.8,154.3z"/>
	<path class="st9" d="M115.7,174c-0.7-2.5-4-3.7-7.4-2.7c-2.1,0.6-3.8,2-4.5,3.5c-0.6-0.1-1.2-0.2-1.8-0.2c-2.2,0-4.1,0.9-5.3,2.3
		c-1.2-1-2.8-1.6-4.5-1.6c-3.7,0-6.6,2.6-6.7,5.8c-3.2-0.6-6.1,1.1-6.3,4.9c-0.1,2.2,1.7,3.7,1.7,3.7s12.5,0.1,23.6-3.7
		c9.5-3.2,15.2-9.6,15.2-9.6s-0.9-1.3-1.5-1.6C117.5,174.4,116.6,174.2,115.7,174z"/>
	<path class="st9" d="M106.9,176.6l-3-17.2c0,0-2.5,0.8-4.9-0.2l-3.1,19.7l-0.2,1.6"/>
	<g>
		<path class="st2" d="M90.6,186.3c-0.1-1.1,0.5-2.3,1.4-3c0.9-0.7,2.2-1,3.2-0.7c-1.1,0.1-2.1,0.4-2.9,1.1
			C91.5,184.3,90.9,185.2,90.6,186.3z"/>
	</g>
	<g>
		<path class="st2" d="M81.7,187c-0.2-1.1,0.3-2.3,1.1-3.1c0.8-0.8,2-1.2,3.1-1c-1.1,0.2-2,0.6-2.8,1.4
			C82.4,184.9,81.9,185.9,81.7,187z"/>
	</g>
	<g>
		<path class="st2" d="M88,179.7c0.2-1.1,1.1-2,2.1-2.5c1.1-0.4,2.3-0.4,3.3,0.2c-1.1-0.2-2.1-0.2-3.1,0.2
			C89.4,178.1,88.6,178.8,88,179.7z"/>
	</g>
	<g>
		<path class="st2" d="M103.9,180.9c0.2-1.1,1.1-2,2.1-2.5c1.1-0.4,2.3-0.4,3.3,0.2c-1.1-0.2-2.1-0.2-3.1,0.2
			C105.3,179.2,104.5,179.9,103.9,180.9z"/>
	</g>
	<g>
		<path class="st2" d="M108.2,173.6c0.7-0.8,1.9-1.3,3.1-1.1c1.1,0.1,2.2,0.8,2.8,1.8c-0.8-0.7-1.8-1.2-2.8-1.3
			C110.2,172.9,109.2,173.1,108.2,173.6z"/>
	</g>
	<path class="st10" d="M104.6,158.9c-2.1,1-4.9,1.2-6.8-0.1l-0.1-3.7c-0.1-1.6-2.3-2.4-3.9-2.3l-5.6,0.5c-1.4,0.1-3,0.5-3.7,1.7
		c-1,1.6-2,6.3-2,6.3s-1.2,1.7-6.4,1.2c-4.4-0.4-5.4-1.9-5.4-1.9c-2.3-18.9,3.1-25.7,3.1-25.7l11.8-0.7c-4.1,5.4-2.2,10-0.7,11.9
		c1.5,1.9,14.9-1.4,18.6,1.8C105,149.1,104.8,156,104.6,158.9z"/>
	<path class="st11" d="M72.5,137.5c0,0,14.5-1.8,27.7,0.1c13.2,1.9,7.8-5.5,0.9-7.4C95.2,128.7,75.3,126.6,72.5,137.5z"/>
	<ellipse class="st12" cx="87.4" cy="130.6" rx="2.6" ry="1.5"/>
	<ellipse class="st13" cx="82.5" cy="134" rx="2.6" ry="1.5"/>
	<path class="st14" d="M119.6,175.5c-0.4-0.4-0.8-1-1.2-1.2c-0.7-0.4-1.5-0.6-2.3-0.8c-1-2.5-4.4-3.8-7.9-2.8
		c-0.6,0.2-1.1,0.4-1.7,0.7l-2.1-12.1l0-0.1c0-0.1-0.1-0.2-0.2-0.3c-0.1-0.1-0.3-0.1-0.4-0.1c0,0-1.2,0.4-2.7,0.3c0,0,0,0,0,0
		c-0.6,0-1.2-0.2-1.9-0.4c-0.1,0-0.2,0-0.2,0c-0.1,0-0.1,0-0.1,0c-0.1,0.1-0.2,0.2-0.2,0.3l-0.1,0.4l-2.6,16.2c-1.1-0.6-2.4-1-3.8-1
		c-3.7,0-6.8,2.5-7.2,5.7c-1.7-0.2-3.2,0.2-4.3,1.1c-1.2,1-1.9,2.4-2,4.2c-0.1,1.3,0.5,2.4,1,3.2c0.4,0,0.8,0,1.2,0h0.1
		c-0.4-0.4-1.4-1.6-1.3-3.1c0.1-1.5,0.7-2.8,1.7-3.6c0.8-0.6,1.8-1,3-1c0.4,0,0.7,0,1.1,0.1c0,0,0,0,0.1,0c0.6,0.1,1.1,0.5,1.4,1
		c0.1,0.1,0.2,0.2,0.4,0.2c0.1,0,0.1,0,0.2-0.1c0.2-0.1,0.3-0.4,0.2-0.6c-0.4-0.7-1-1.2-1.7-1.4c0.3-2.8,3-4.9,6.2-4.9
		c1.3,0,2.5,0.4,3.6,1.1l-0.6,3.6c0,0,0,0.1,0,0.1c-0.6-0.2-1.2-0.3-1.8-0.3c-2.8,0-5.1,2.1-5.1,4.6c-1.9,0.1-3.2,0.6-4,1.6
		c-0.7,1-0.6,2.1-0.6,2.6c0,0.2,0.1,0.3,0.1,0.4h0c0.3-0.1,0.6-0.1,0.8,0c0-0.1,0-0.3,0-0.4c0-0.1,0.1-0.1,0.1-0.2h-0.1
		c-0.1-0.4-0.1-1.2,0.4-1.8c0.6-0.8,1.8-1.3,3.7-1.3c0,0,0.1,0,0.1,0c0.1,0,0.3-0.1,0.4-0.1c0.1-0.1,0.1-0.2,0.1-0.4l0-0.1
		c0-0.1,0-0.1,0-0.2c0-2.1,1.9-3.8,4.2-3.8c0.7,0,1.3,0.1,1.9,0.4c0.1,0.1,0.3,0.1,0.4,0c0.1-0.1,0.2-0.2,0.2-0.3
		c0.3-1.9,2.1-3.3,4.2-3.3c1.1,0,1.8,0.2,2.4,0.6c-1.6,1.5-2.5,3.8-2.2,5.9c0,0.2,0.2,0.4,0.5,0.4h0.1c0.2,0,0.4-0.3,0.4-0.5
		c-0.3-1.9,0.5-4,2-5.3c0.1-0.1,0.1-0.1,0.1-0.2c0.1,0,0.2,0,0.2-0.1c0.6-0.8,2-1.3,3.8-1.3c1.1,0,2.2,0.4,3,1.1
		c-0.4,0.8-0.6,1.8-0.3,2.7c0.1,0.2,0.2,0.3,0.4,0.3c0,0,0.1,0,0.1,0c0.2-0.1,0.4-0.3,0.3-0.6c-0.2-0.8,0-1.6,0.4-2.3
		c1.5-1.2,3.7-1.2,5.3-0.2c0,0,0.1,0,0.1,0.1c0.2-0.1,0.4-0.3,0.6-0.4c0,0,0,0,0.1,0c0.1-0.1,0.1-0.1,0.2-0.1
		c-0.1-0.1-0.1-0.1-0.2-0.1c-0.9-0.7-2-1-3.2-1c-1.1,0-2.1,0.3-3,0.9c-0.1,0-0.1,0-0.2,0.1c-1-0.8-2.2-1.3-3.5-1.3h0l-0.7-4
		c0.5-0.3,1.1-0.6,1.7-0.8c3.1-0.9,6.2,0.2,6.8,2.4c0.1,0.2,0.2,0.3,0.4,0.3c0.9,0.1,1.6,0.4,2.3,0.7c0.2,0.1,0.7,0.6,1,1.1
		c0,0,0.1,0.1,0.1,0.1c0,0,0-0.1,0.1-0.1c0.2-0.2,0.4-0.4,0.6-0.6C119.7,175.6,119.6,175.6,119.6,175.5z M99.9,160L99.9,160l-0.6,17
		c-1.2,0.2-2.2,0.7-3,1.5l3-18.6v-0.1C99.6,159.9,99.8,160,99.9,160C99.9,160,99.9,160,99.9,160z M100.3,177l0.6-16.9
		c0.1,0,0.2,0,0.3,0c0.2,0,0.4,0,0.5,0l1.1,17.4C102,177.1,101.3,177,100.3,177z M103.7,177.5l-1.1-17.4c0.4-0.1,0.7-0.1,0.9-0.1
		l2.9,16.6C105.4,176.7,104.4,177,103.7,177.5z"/>
	<path class="st14" d="M80.8,189.1c-0.1,0-0.3,0-0.5,0.1c-0.2,0-0.3,0.1-0.5,0.1c-0.1-0.1-0.1-0.1-0.2-0.2
		C80,189.1,80.4,189.1,80.8,189.1z"/>
	<g>
		<path class="st8" d="M134,158.5c-5.6-6.2-19.5-9.8-30.2-11.7c-0.4-0.1-0.8-0.1-1.3-0.1c-2.6-1.1-6.8-0.8-10.6-0.6
			c-2.8,0.1-6,0.3-6.5-0.3c-0.8-1-2.7-4.3-0.9-8.5c4.8-0.1,10.4,0.1,15.8,0.9c1.5,0.2,2.8,0.3,3.9,0.3c3.5,0,4.5-1.1,4.7-2.1
			c0.5-2.2-3.2-5.4-7.5-6.5c-4.9-1.3-17.3-2.7-24.4,1.5c-2.4,1.4-3.9,3.3-4.6,5.7c-1.1,2.5-2.4,7.2-2.4,14.7c0,1.8,0.1,3.8,0.3,5.9
			c0,0-0.1,0-0.1,0.1c-0.9,0.5-1.7,1-2.5,1.5l-0.6,0.4c-7.5,4.6-21.5,13-28,17.7c-1,0.7-1.7,1.8-1.8,3c-0.1,0.1-0.2,0.2-0.2,0.4
			c0,0.1,0.8,15.3,13.3,25.2c7.2,5.7,16.7,8.5,28.4,8.5c5.5,0,11.4-0.6,17.8-1.8c35-6.8,40-31,40.3-42.8c0-0.2,0.1-0.3,0.1-0.5
			C137.4,164.9,136.5,161.3,134,158.5z M87.4,129.6c1.2,0,2.2,0.6,2.2,1.1c0,0.5-0.9,1.1-2.2,1.1c-1.3,0-2.2-0.6-2.2-1.1
			C85.2,130.1,86.1,129.6,87.4,129.6z M77.3,132.1c2-1.2,4.6-1.9,7.3-2.3c-0.2,0.3-0.3,0.6-0.3,0.9c0,1.1,1.3,2,3.1,2
			c1.7,0,3.1-0.9,3.1-2c0-0.5-0.2-0.9-0.6-1.2c4.5,0,8.8,0.6,11.1,1.3c4,1.1,7.1,3.9,6.8,5.4c-0.1,0.5-0.9,2-7.5,1
			c-4.6-0.7-9.4-0.9-13.7-0.9c-6.4,0-11.6,0.5-13.5,0.7C73.8,134.9,75.2,133.3,77.3,132.1z M72.8,137.9c1.1-0.1,5.2-0.6,10.6-0.7
			c-1.3,3.6-0.5,6.9,1.1,9c0.8,1,3.1,0.9,7.3,0.7c4.2-0.2,9.4-0.5,11.4,1.2c0.5,0.4,1.3,2.4,1,10.4c-0.9,0.4-2,0.7-3.1,0.7
			c0,0,0,0,0,0c-0.7,0-1.5-0.1-2.1-0.4c-0.2-0.1-0.4-0.2-0.6-0.3l-0.1-3.5c0-0.6-0.3-1.2-0.9-1.6c-0.8-0.7-2.3-1.2-3.5-1.1l-5.6,0.5
			c-1.4,0.1-3.2,0.5-4.1,1.9c-0.9,1.5-1.8,5.5-2,6.3c-0.3,0.3-1.7,1.4-5.9,1c-3.5-0.3-4.7-1.4-5-1.7
			C69.8,148.5,71.5,141.4,72.8,137.9z M119.6,175.5c-0.2,0.2-0.4,0.5-0.6,0.7c-0.5,0.5-1,1.1-1.6,1.6c-0.2,0.2-0.5,0.4-0.7,0.6
			c-2.6,2.3-5.8,4.4-9.3,5.9c-5,2.2-11.3,3.7-18.3,4.4c-1.5,0.1-4.9,0.4-5.4,0.3c-1,0-1.9,0-2.9,0h-0.1c-0.1,0-1.1,0.1-1.2,0
			c-9.1-0.3-17.5-2.4-24.2-6.1c-0.3-0.2-0.5-0.4-0.5-0.8c0-0.7,0.4-1.5,1-2c3.9-2.8,36.7-22.1,41.3-24.8l0.1,3.7l0.2,0.1
			c0.3,0.2,0.6,0.4,0.9,0.5c0.3,0.1,0.6,0.2,0.9,0.3c0.2,0.1,0.4,0.1,0.6,0.1c0.3,0.1,0.6,0.1,0.9,0.1c0.1,0,0.2,0,0.3,0
			c1.1,0,2.3-0.3,3.2-0.7c0.1,0,0.3-0.1,0.4-0.2l0.2-0.1l0-0.3c0.1-1.4,0.1-2.7,0.1-3.8c5.1,1,13.6,3.3,17,7.3
			c1.3,1.6,1.8,3.7,1.2,6.2C122.8,170.9,121.5,173.3,119.6,175.5z M96,211.5c-19.8,3.8-35.1,1.7-45.4-6.5
			c-8.8-6.9-11.6-16.5-12.5-21.4c10.8,11.7,27.7,16.1,43.6,16.1c11,0,21.6-2.1,29.2-5.5c11.5-5.1,20.8-13.3,24.3-21.4
			C134.1,185.1,127.3,205.4,96,211.5z M135.6,168.8c-1.9,8.9-12,18.8-25,24.5c-18.6,8.2-54,9-71.9-10.5c-0.6-0.7-0.9-1.5-0.8-2.5
			c0.1-1,0.6-1.9,1.5-2.5c6.5-4.7,20.5-13.1,28-17.7l0.6-0.4c0.7-0.4,1.5-0.9,2.2-1.3c0.1,0.7,0.1,1.4,0.2,2.1l0.1,0.2
			c0.1,0.2,1.2,1.7,5.7,2.2c0.7,0.1,1.3,0.1,1.8,0.1c3.8,0,4.9-1.3,5-1.5l0.1-0.2c0,0,1-4.6,1.9-6.1c0.7-1.1,2.2-1.4,3.4-1.5
			l5.6-0.5c1-0.1,2.2,0.3,2.8,0.8c0.1,0.1,0.2,0.2,0.3,0.3c-3.9,2.3-37.6,22.1-41.6,25c-0.9,0.6-1.4,1.8-1.4,2.8
			c0,0.7,0.4,1.3,1,1.6c7.4,4.1,16.8,6.2,27,6.2c2.4,0,4.8-0.1,7.3-0.4c7-0.7,13.4-2.3,18.5-4.5c8.5-3.7,15.1-10.3,16.5-16.5
			c0.6-2.8,0.2-5.2-1.4-7c-3.4-4.1-11.5-6.4-17.7-7.6c0-3.3-0.4-5.4-1.1-6.3c8.7,1.6,23.6,5.1,29.2,11.3
			C135.6,161.7,136.4,165,135.6,168.8z"/>
		<path class="st8" d="M82.5,132c-1.7,0-3.1,0.9-3.1,2c0,1.1,1.4,2,3.1,2s3.1-0.9,3.1-2C85.6,132.8,84.3,132,82.5,132z M82.5,135
			c-1.3,0-2.2-0.6-2.2-1.1s0.9-1.1,2.2-1.1s2.2,0.6,2.2,1.1S83.8,135,82.5,135z"/>
	</g>
</g>
</svg>
