<?xml version="1.0" encoding="utf-8"?>
<!-- Generator: Adobe Illustrator 23.1.0, SVG Export Plug-In . SVG Version: 6.00 Build 0)  -->
<svg version="1.1" id="Слой_1" xmlns="http://www.w3.org/2000/svg" xmlns:xlink="http://www.w3.org/1999/xlink" x="0px" y="0px"
	 viewBox="0 0 283.5 283.5" style="enable-background:new 0 0 283.5 283.5;" xml:space="preserve">
<style type="text/css">
	.st0{fill:#8E2424;}
	.st1{fill:#FFFFFF;}
	.st2{fill:#32A572;}
	.st3{fill:#1D1D1B;}
	.st4{fill:#CC6258;}
	.st5{fill:#D29666;}
	.st6{fill:#1DAD88;}
</style>
<g>
	<path class="st0" d="M155.3,86.9c0,0-20.1,25.1-44.6,25.1S62.2,84.1,62.2,84.1s22.5-19.3,47-19.3S155.3,86.9,155.3,86.9z"/>
	<path d="M110.7,112.5c-24.4,0-48.6-27.8-48.8-28c-0.2-0.2-0.1-0.5,0-0.6c0.2-0.2,22.9-19.4,47.3-19.4c24.4,0,46.2,22,46.4,22.2
		c0.2,0.2,0.2,0.4,0,0.6C155.4,87.4,135.1,112.5,110.7,112.5z M62.8,84.2c2.8,3.1,25.3,27.4,47.9,27.4c22.6,0,41.7-21.8,44-24.6
		c-2.6-2.5-23-21.7-45.5-21.7C86.7,65.3,65.7,81.8,62.8,84.2z"/>
	<path class="st1" d="M75.6,85.1c1.2-0.3,2.6-0.1,3.7,0.5c1.3,0.7,1.7,2.7,2.7,3.3c0,0,6.3,3.7,6.9,5.1c0,0,5,2.1,5.6,3.3
		c0,0,5.1,1.6,6.3,2.7c0,0,6.3,0,7.9,1c0,0,7.3-1,8.9-0.3c0,0,7.6-2.7,8.9-2.3c0,0,4.3-3.7,6.4-3.9c0,0,5.4-4.6,6.6-4.6
		c1.1,0,6.1-2.3,6.1-2.3l6.1,0.6c0,0-6.6,11.7-14.7,17.6c-8.2,5.9-17.2,12.3-35,8.3c-6.9-1.6-13.4-4.7-19.2-8.8
		c-4-2.8-10.7-7-12.2-11.7c-0.2-0.5-0.3-1-0.3-1.6c0-0.5,0.2-1,0.4-1.5c0.8-2,1.9-4.1,3.8-5.2C74.8,85.4,75.2,85.2,75.6,85.1z"/>
	<polygon class="st2" points="194.6,62.3 179.1,57.7 182.1,60.8 155.8,60.8 158.7,57.7 143.2,62.3 158.7,66.6 155.7,63.7 
		182.2,63.7 179.1,66.6 	"/>
	<g>
		<path class="st2" d="M230.6,50.2c-1.1-0.5-2.2-0.9-3.3-1.2l3.1-2.8l-15.8,3l14.7,5.7l-2.3-3.8c1,0.3,1.9,0.6,2.8,1.1
			c5.8,2.9,9.4,8.6,9.4,15c0,5.2-2.3,10-6.4,13.2c-0.4,0.4-0.5,1-0.2,1.4c0.2,0.3,0.5,0.4,0.8,0.4c0.2,0,0.4-0.1,0.6-0.2
			c4.6-3.6,7.2-9,7.2-14.8C241.1,59.9,237.1,53.4,230.6,50.2z"/>
		<path class="st2" d="M217.8,83.2L217.8,83.2c-7.1-1.9-12.3-8.4-12.3-16.1c0-5.5,2.7-10.6,7.2-13.8c0.5-0.3,0.6-1,0.3-1.4
			c-0.3-0.5-1-0.6-1.4-0.3c-5,3.5-8.1,9.3-8.1,15.5c0,8.7,5.9,16,13.9,18.2l-2.9,3.4l16-4.9l-15.7-4.5L217.8,83.2z"/>
	</g>
	<path class="st1" d="M88.9,69.1c0,0,7,10.5,10,11.7c4.3,1.7,10.3,0.6,11.2,0c0,0,6.4,2.1,10.9-0.6c2.9-1.7,8-11.7,8-11.7
		S112.9,60.2,88.9,69.1z"/>
	<path class="st3" d="M104.3,82.1c-1.8,0-3.8-0.2-5.6-0.9c-3.1-1.2-9.9-11.5-10.2-11.9c-0.1-0.1-0.1-0.2-0.1-0.4
		c0-0.1,0.1-0.2,0.3-0.3c23.9-8.8,40.2-0.6,40.4-0.6c0.2,0.1,0.3,0.4,0.2,0.6c-0.2,0.4-5.2,10.1-8.2,11.9c-4.2,2.5-10,1-11,0.7
		C109.3,81.6,106.9,82.1,104.3,82.1z M89.5,69.3c2.1,3.2,7.2,10.2,9.5,11.1c4.1,1.7,10,0.6,10.8,0c0.1-0.1,0.2-0.1,0.4-0.1
		c0.1,0,6.3,2,10.5-0.5c2.4-1.4,6.7-9.3,7.6-11.2C125.8,67.5,110.8,61.6,89.5,69.3z"/>
	<path class="st1" d="M82.3,73.1l3.2,6.1c0.9,1.8,3,2.6,4.9,2l5.6-1.8l-3.4-11.2L82.3,73.1z"/>
	<path class="st1" d="M136.5,73.2l-3.2,6.1c-0.9,1.8-3,2.6-4.9,2l-5.6-1.8l3.4-11.2L136.5,73.2z"/>
	<path class="st1" d="M146.4,78.8l-2.3,3.7c-0.9,1.8-3,2.6-4.9,2l-6.4-3.8l3.3-9L146.4,78.8z"/>
	<path class="st1" d="M72.1,78.2l1.9,2.3c0.9,1.8,3.4,4,5.3,3.4l6.4-3.8l-3.3-9L72.1,78.2z"/>
	<path class="st1" d="M72.6,87.2c0.1-0.2,0.2-0.3,0.4-0.5c2.1-2.1,5.3,2.8,6.3,4.1c0,0,2.9,1.5,3.7,2.1c0.8,0.6,2.7,2.7,2.7,2.7
		s3.5,1.5,4.6,2.1c0.9,0.5,3.1,2.7,3.1,2.7s3.1,0.7,4.1,1.1c0.9,0.3,3.4,1.9,3.4,1.9s3.3,0,4.4,0.1c1,0.1,4.1,0.9,4.1,0.9
		s3.4-0.5,4.4-0.6c1.1-0.1,4.4-0.1,4.4-0.1s3.8-1.4,5-1.7c1.2-0.3,4.6-1,4.6-1s3.7-2.6,4.7-3.1c1.6-0.9,4.1-1.9,4.1-1.9
		s2.3-1.7,3.3-2.4c0.6-0.4,2.1-1,2.7-1.4c1-0.7,3.9-3,3.9-3l-0.6,4.5c0,0-13.5,13.7-19.3,16.3c-5.8,2.6-22.1,4.5-34.1-0.9
		c-5.4-2.4-10.2-6.6-14.5-10.5c-1.8-1.6-4-2.9-5.4-5c-0.7-1.1-0.7-2.4-0.7-3.6C72.1,89.1,72.1,88,72.6,87.2z"/>
	<path class="st4" d="M162.4,85.4c0,0-6.3-2.5-11.4-6.6c-8.3-6.7-18.2-16.4-21.7-18.3c-5.7-3.1-9.4-2-16,1.4
		c-2.3,1.2-4.4,1.1-6.2,0.4c-3.1-1.1-5.8-3.7-8.6-3.5C88,59.3,82.6,67.9,71.4,75.1c-9.1,5.8-12.7,6.5-13.7,6.6c-0.1,0-0.2,0-0.3,0
		c0,0,4.8,7.9,12.4,18c10.7,14.2,25.2,24.1,48.2,20.9c15.2-2.1,25.4-13.5,32.9-22.8c5.3-6.6,10.1-11.4,10.9-12.2
		C162,85.5,162.2,85.5,162.4,85.4z M148.9,89.1c-12,7.4-15.4,20.6-38.9,20.6c-25.5,0-31.8-18.8-43.4-25.6c5.5,0,13-2.1,21.3-10.4
		c7.8-7.8,14-4.9,14-4.9s7.1,4.2,13.4,0.8c2.3-1.2,4.9-1.6,7.3-0.8c2.6,0.9,6.5,1.8,9.6,4.9c9.9,9.9,16.8,12.5,22.1,12.8
		C152.8,87,151,87.8,148.9,89.1z"/>
	<path class="st5" d="M124.4,88.9H94.6c0,0-1.3-1.3-2.9-2.7c-1-0.9-1.3-2.4-0.8-3.7c1-2.3,3-5.4,5.5-5.4l24.7,0.2
		c2.6,0,4.4,3,5.4,5.2c0.6,1.3,0.4,2.9-0.4,4L124.4,88.9z"/>
	<path class="st6" d="M200.5,84.3l-76.2,1.3c-0.1-1.4-1.3-2.5-2.7-2.5H97c-1.5,0-2.7,1.2-2.7,2.7v4.6c0,1.5,1.2,2.7,2.7,2.7h24.6
		c1.4,0,2.6-1.1,2.7-2.5l76.2,1.8c2.3,0.1,4.2-1.8,4.2-4.1v0C204.7,86.1,202.8,84.2,200.5,84.3z"/>
	<path class="st3" d="M203.8,85.2c-0.9-0.9-2-1.3-3.3-1.3l-39.2,0.7c-2-0.9-6.4-3-10.1-6.1c-3.5-2.8-7.3-6.2-10.7-9.2
		c-4.8-4.3-9-8-11.1-9.1c-5.7-3.2-9.5-2.2-16.4,1.4c-1.9,1-3.8,1.1-5.9,0.4c-1.1-0.4-2.2-1-3.3-1.6c-1.9-1-3.6-2.1-5.5-1.9
		c-6.9,0.4-11.8,4.4-17.4,9c-2.9,2.4-6,5-9.7,7.4c-8.9,5.7-12.5,6.4-13.4,6.5c0,0,0,0,0,0c-0.1,0-0.2,0-0.4,0c-0.1,0-0.1,0-0.2,0
		c0,0,0,0,0,0c-0.1,0-0.1,0.1-0.2,0.2c0,0,0,0,0,0c0,0,0,0,0,0c0,0,0,0,0,0c0,0.1,0,0.1,0,0.2c0,0,0,0.1,0,0.1c0,0,0,0,0,0.1
		c0,0.1,4.9,8.1,12.5,18.1c11.1,14.6,24,21.7,40.1,21.7c2.8,0,5.6-0.2,8.5-0.6c14.5-2,24.5-12.2,33.2-23c1.9-2.3,3.7-4.4,5.3-6.2
		l43.9,1c1.2,0,2.4-0.4,3.3-1.3c0.9-0.9,1.3-2,1.3-3.2C205.1,87.1,204.7,86,203.8,85.2z M71.7,75.4c3.8-2.4,7-5.1,9.8-7.4
		c5.7-4.7,10.2-8.4,16.9-8.8c1.7-0.1,3.3,0.8,5.1,1.8c1.1,0.6,2.2,1.2,3.4,1.7c2.3,0.8,4.4,0.7,6.6-0.4c6.4-3.3,10-4.5,15.6-1.4
		c2,1.1,6.1,4.8,10.9,9c3.4,3,7.3,6.4,10.7,9.2c3,2.4,6.4,4.3,8.7,5.4l-10.8,0.2c-4.3-1.6-9.4-4.9-16-11.4c-2.8-2.8-6.4-3.9-8.9-4.8
		l-0.8-0.3c-0.9-0.3-1.8-0.4-2.8-0.4c-1.6,0-3.3,0.4-4.9,1.3c-6.1,3.3-12.9-0.7-13-0.8c-0.3-0.1-6.6-2.9-14.5,4.9
		c-4.7,4.7-9.1,7.3-13,8.8c0,0-0.1,0-0.1,0c0,0,0,0,0,0C67,84.9,61.2,83,58.8,81.9C60.7,81.5,64.5,80,71.7,75.4z M127,82.4
		c-0.2-0.4-0.4-0.8-0.6-1.3l1.9,0.6c0.5,0.1,0.9,0.2,1.4,0.2c1,0,2-0.4,2.8-1c0,0,0.1,0.1,0.1,0.1l6.5,3.8c0,0,0,0,0,0l-11.9,0.2
		C127.4,84.2,127.3,83.3,127,82.4z M143.2,91.5c-0.2,0.2-0.4,0.3-0.5,0.4c-0.2,0.1-0.6,0.3-1,0.5c0,0,0,0-0.1,0l-3.9-1c0,0,0,0,0,0
		L143.2,91.5z M144.9,91.5c-1.1,0.9-2.2,1.8-3.2,2.8c0.1-0.4,0.2-0.8,0.2-1c0.5-0.2,1-0.5,1.3-0.7c0.3-0.2,0.9-0.6,1.4-1.1
		L144.9,91.5z M134.2,101.2c-1.9,1.6-4,3.1-6.5,4.3c0.4-1.3,0.7-3.5,0.7-4.2c0.7-0.5,3.6-2.5,4.5-3c0.5-0.3,1.2-0.6,1.9-0.9
		c-0.1,1.3-0.4,2.8-0.7,3.3C134,100.9,134.1,101.1,134.2,101.2z M118.9,104.1c0.8-0.3,3.8-1.3,4.7-1.6c0.9-0.3,3-0.7,4-0.9
		c-0.2,1.3-0.5,3.6-0.9,4.3c0,0.1,0,0.1,0,0.2c-2.4,1.1-5.2,2-8.4,2.5L118.9,104.1z M118,101.1c3-1.1,7.1-2.3,8.1-2.2l1.3,1.9
		c-1,0.2-3.1,0.6-4,0.9c-1,0.3-3.6,1.2-4.6,1.6L118,101.1z M126.9,98.6c1.3-1.1,4.2-3.3,5.8-3.5l1.9,1.5c-0.7,0.3-1.4,0.6-2,1
		c-0.9,0.5-3.4,2.3-4.4,2.9L126.9,98.6z M133.5,94.6c1.2-1,2.4-1.9,3.4-2.6c0,0,0.1,0.1,0.1,0.1l3.6,0.9c-0.2,0.1-0.4,0.2-0.5,0.3
		c-1,0.7-2.9,2.1-3.3,2.4c-0.2,0.1-0.6,0.3-1.2,0.5L133.5,94.6z M135.8,97c0.8-0.3,1.3-0.5,1.3-0.5c0,0,0.1,0,0.1-0.1
		c0,0,2.3-1.7,3.3-2.4c0.1-0.1,0.3-0.2,0.5-0.3c-0.1,0.5-0.3,1.1-0.6,1.8c0,0,0,0,0,0c-0.4,0.3-0.7,0.7-1.1,1
		c-1.4,1.3-2.7,2.6-4.2,3.9C135.5,99.4,135.7,97.7,135.8,97z M132.6,94.2c-2.1,0.3-5.6,3.1-6.4,3.8c-1.7-0.2-7.2,1.8-8.7,2.3
		c-1.8-0.6-7.6,0.1-8.8,0.3c-1.7-0.9-6.7-1-7.8-1c-1.3-1.1-5.2-2.4-6.2-2.7c-0.8-1.2-4.5-2.8-5.5-3.3c-0.9-1.5-5.5-4.3-7-5.2
		c-0.4-0.2-0.7-0.7-1-1.3c-0.4-0.7-0.9-1.6-1.7-2c-1.2-0.7-2.7-0.9-4-0.6c-0.5,0.1-0.9,0.3-1.3,0.5c-1,0.5-1.7,1.3-2.4,2.3
		c-1.2-1.1-2.5-2.2-3.8-3.1c2.2-0.1,4.7-0.6,7.3-1.6c1,0.9,2.2,1.6,3.3,1.6c0.3,0,0.6,0,0.8-0.1l6.4-3.8c0,0,0,0,0,0
		c0.9,0.8,2,1.3,3.2,1.3c0.5,0,0.9-0.1,1.4-0.2l0.5-0.2c-0.2,0.3-0.3,0.7-0.5,1c-0.7,1.5-0.3,3.1,0.9,4.2c1,0.9,1.9,1.8,2.4,2.3v1.5
		c0,1.7,1.4,3.1,3.1,3.1h24.6c1.5,0,2.7-1,3.1-2.5l11.6,0.3C134.9,92.4,133.4,93.6,132.6,94.2z M101.4,104c0.9,0,3.1,0,4,0.1
		c0.8,0.1,2.9,0.6,3.8,0.8l-0.1,4.3c-2.9-0.1-5.5-0.3-7.9-0.8L101.4,104z M101.2,100.5c1.9,0,5.8,0.2,7,0.9l0.7,2.5
		c-1-0.2-2.7-0.6-3.5-0.7c-0.9-0.1-3.2-0.1-4.1-0.1L101.2,100.5z M109.2,101.4c2.8-0.4,6.8-0.7,8-0.3l0.7,2.2c-1,0-3,0.1-3.9,0.1
		c-0.9,0.1-3.2,0.4-4.1,0.5L109.2,101.4z M110,104.9c0.9-0.1,3.2-0.5,4-0.5c0.9-0.1,2.9-0.1,3.9-0.1l-0.6,4.5
		c-2.2,0.3-4.6,0.5-7.3,0.5c0,0-0.1,0-0.1,0L110,104.9z M79.5,91.4c0.8,0.4,2.6,1.4,3.3,1.9c0.6,0.5,2.1,2.1,2.5,2.5
		c-0.1,1.1,0,3.4,0.4,5.2c-2.4-1.9-4.6-4-6.6-6.1c0.1-0.1,0.1-0.2,0.1-0.3C78.9,93.3,79.3,92,79.5,91.4z M74.8,85.9
		c0.3-0.1,0.5-0.2,0.8-0.3c1.1-0.3,2.4-0.1,3.4,0.5c0.6,0.3,1,1,1.4,1.7c0.3,0.4,0.5,0.8,0.8,1.2l-1.9,1.3c-0.1-0.1-0.1-0.2-0.2-0.3
		C78.1,88.5,76.5,86.4,74.8,85.9z M78.8,90.8c-0.2,0.5-0.7,1.7-0.6,3.1c-0.4-0.5-0.9-0.9-1.3-1.4c-1.4-1.5-2.8-3-4.2-4.3
		c0.1-0.3,0.1-0.6,0.3-0.9c0,0,0,0,0,0c0.1-0.1,0.2-0.3,0.3-0.4c0.3-0.3,0.5-0.4,0.9-0.4c0,0,0,0,0.1,0c1.4,0.1,3.3,2.5,4.3,3.8
		C78.6,90.6,78.7,90.7,78.8,90.8z M85.7,94.9c-0.6-0.7-1.8-1.9-2.4-2.3c-0.6-0.5-2.2-1.4-3.1-1.8l1.9-1.3c2.5,1.5,5.2,3.3,6.1,4.3
		C87.4,93.9,86.2,94.3,85.7,94.9z M86.1,96.3c1,0.4,3.2,1.4,4,1.9c0.5,0.3,1.7,1.4,2.4,2c0,0.1,0,0.1,0,0.2c0,0.2,0,3.4,0.7,5.3
		c-2.3-1.1-4.4-2.4-6.3-3.8C86.3,100.6,86.1,97.8,86.1,96.3z M92.9,99.4c-0.8-0.7-1.8-1.6-2.4-2c-0.9-0.5-3.2-1.6-4.2-2
		c0.4-0.4,1.6-0.8,2.5-0.9c1.9,0.8,4.5,2.2,5.1,2.9L92.9,99.4z M94.7,97.9c1.5,0.5,4.7,1.6,5.7,2.4l0.2,2.4
		c-0.8-0.5-2.2-1.2-2.8-1.5c-0.9-0.4-3.5-1-4.1-1.1c0,0-0.1-0.1-0.1-0.1L94.7,97.9z M93.4,100.9c0,0,3.1,0.7,4.1,1.1
		c0.7,0.3,2.5,1.3,3.1,1.7l-0.3,4.4c-2.2-0.5-4.3-1.2-6.2-2c0-0.1,0-0.2,0-0.3C93.5,104.7,93.4,102.1,93.4,100.9
		C93.3,100.9,93.3,100.9,93.4,100.9z M85.2,79.9l-6.1,3.6c-0.9,0.3-2-0.2-2.9-1c2.5-1.1,5.2-2.6,8-4.9l0.4,0.8L85.2,79.9z M85,76.9
		c1.1-0.9,2.2-1.9,3.3-3c1.6-1.6,3.1-2.7,4.5-3.5l2.1,6.7c-1.1,0.5-2,1.5-2.8,2.7c0,0-0.1,0-0.1,0.1c-0.1,0.1-0.1,0.2-0.1,0.3
		c0,0-0.1,0.1-0.1,0.1l-1.4,0.5c-1.7,0.5-3.5-0.2-4.4-1.8L85.4,78L85,76.9z M93.9,87.6c-0.5-0.5-1.1-1.1-1.9-1.7
		c-0.9-0.8-1.2-2.1-0.6-3.2c0.3-0.6,0.6-1.2,1-1.9l2.7,2.5c-0.7,0.6-1.2,1.4-1.2,2.4V87.6z M92.9,80.1c0.9-1.3,2.1-2.4,3.4-2.5
		l3.1,5H97c-0.4,0-0.9,0.1-1.2,0.2L92.9,80.1z M97.3,77.6l5.1,0l1.7,5h-3.7L97.3,77.6z M103.3,77.6l5,0l0.2,5H105L103.3,77.6z
		 M96.5,76.7c-0.3,0-0.6,0.1-0.8,0.1L93.6,70c4.8-2.4,8.1-0.9,8.2-0.9c0.2,0.1,3.6,2.1,7.8,2.2c0,0,0,0,0,0v5.5L96.5,76.7z
		 M114,77.7l-1.5,4.9h-3.1l-0.2-5L114,77.7z M122.9,77.4c-0.5-0.3-1.1-0.4-1.7-0.4l-10.7-0.1v-5.5c0,0,0,0,0,0
		c1.7-0.1,3.5-0.5,5.2-1.4c2.3-1.2,4.8-1.5,7-0.8l0.8,0.3c0.5,0.2,1.1,0.4,1.8,0.6L122.9,77.4z M126,70.3c2,0.8,4.2,1.8,6,3.7
		c0.7,0.7,1.3,1.3,2,1.9l-1.2,3.2l0,0.1c-0.8,1.6-2.7,2.3-4.4,1.8l-2.8-0.9c-0.6-0.9-1.2-1.6-2-2.2L126,70.3z M114.9,77.7l5.6,0
		l-2.3,4.9h-4.8L114.9,77.7z M121.5,77.8c1.3,0.1,2.5,1.2,3.4,2.5L123,83c-0.4-0.2-0.9-0.3-1.4-0.3h-2.5L121.5,77.8z M125.3,81.1
		c0.3,0.6,0.6,1.2,0.9,1.7c0.3,0.8,0.4,1.6,0.2,2.4l-1.7,0c-0.1-0.7-0.5-1.3-1-1.7L125.3,81.1z M133.3,80.5l0.4-1.1l1.4-2.6
		c3,2.7,5.7,4.7,8.2,6.2c-0.9,1.1-2.5,1.6-3.8,1.1L133.3,80.5z M143.9,83.4c0.9,0.5,1.8,1,2.6,1.4l-4.7,0.1
		C142.7,84.6,143.4,84.1,143.9,83.4z M150.6,97.5c-8.5,10.6-18.4,20.7-32.6,22.7c-19.8,2.7-35-3.8-47.8-20.7
		c-5.7-7.6-9.9-14-11.6-16.6c1.5,0.7,4.3,1.6,7.8,1.7c3.5,2.1,6.5,5.3,9.8,8.8c7.3,7.8,15.7,16.6,32.9,16.9c0.1,0.1,0.2,0.2,0.3,0.2
		c0,0,0,0,0,0c0.1,0,0.2-0.1,0.3-0.2c0.1,0,0.2,0,0.3,0c16.6,0,23.3-6.6,29.9-13c2-1.9,4-3.8,6.3-5.6l9.2,0.2
		C153.9,93.5,152.3,95.4,150.6,97.5z M203.2,90.9c-0.7,0.7-1.7,1.1-2.7,1.1l-44.2-1c0,0-0.1,0-0.1,0c0,0,0,0,0,0l-10.7-0.3
		c-0.2-0.1-1-0.2-1.2,0l-6.4-0.2c0-0.1-0.3-0.1-0.4,0l-13.2-0.3c-0.2,0-0.4,0.2-0.4,0.4c-0.1,1.2-1.1,2.1-2.3,2.1H97
		c-1.3,0-2.3-1-2.3-2.3v-4.6c0-1.3,1-2.3,2.3-2.3h2.9c0.1,0,0.1,0.1,0.2,0.1c0.1,0,0.2,0,0.2-0.1c0,0,0,0,0,0h4.1
		c0.1,0,0.1,0.1,0.2,0.1c0,0,0.1,0,0.1,0c0,0,0,0,0.1,0h3.9c0.1,0,0.1,0.1,0.2,0.1c0,0,0,0,0,0c0.1,0,0.1,0,0.2-0.1h9.1c0,0,0,0,0,0
		c0.1,0,0.1,0,0.2,0c0.1,0,0.2,0,0.2-0.1h3c0.5,0,0.9,0.2,1.3,0.4c0,0,0,0,0,0c0,0,0,0,0,0c0.5,0.4,0.9,1,1,1.7
		c0,0.2,0.2,0.4,0.4,0.4c0,0,0,0,0,0l76.2-1.3c0,0,0,0,0.1,0c1,0,1.9,0.4,2.6,1.1c0.7,0.7,1.1,1.6,1.1,2.6
		C204.3,89.3,203.9,90.2,203.2,90.9z"/>
</g>
<g>
	<g>
		<polygon class="st2" points="239.3,176.7 223.7,172.1 226.7,175.2 200.4,175.2 203.3,172.1 187.8,176.7 203.3,181 200.3,178.1 
			226.8,178.1 223.7,181 		"/>
		<polygon class="st2" points="174.8,201.6 179.4,186.1 176.3,189 176.3,162.7 179.4,165.7 174.8,150.1 170.5,165.7 173.4,162.6 
			173.4,189.1 170.5,186.1 		"/>
	</g>
	<g>
		<path class="st0" d="M157,175.1c0,0-20.1,25.1-44.6,25.1s-48.5-27.9-48.5-27.9s22.5-19.3,47-19.3S157,175.1,157,175.1z"/>
		<path d="M112.4,200.6c-24.4,0-48.6-27.8-48.8-28c-0.2-0.2-0.1-0.5,0-0.6c0.2-0.2,22.9-19.4,47.3-19.4c24.4,0,46.2,22,46.4,22.2
			c0.2,0.2,0.2,0.4,0,0.6C157.2,175.6,136.9,200.6,112.4,200.6z M64.5,172.4c2.8,3.1,25.3,27.4,47.9,27.4c22.6,0,41.7-21.8,44-24.6
			c-2.6-2.5-23-21.7-45.5-21.7C88.4,153.4,67.4,170,64.5,172.4z"/>
		<path class="st1" d="M79.1,173.7c2.3,0.5,4.1,2.8,6.2,4c0,0,6.3,3.6,6.9,5c0,0,5,2,5.6,3.1c0,0,5.2,1.4,6.3,2.6
			c0,0,6.3-0.2,7.9,0.8c0,0,7.3-1.2,8.9-0.5c0,0,7.5-2.9,8.8-2.5c0,0,2.5-2.1,3.4-2.7c0.7-0.4,3-1.4,3-1.4s1.8-1.7,2.5-2.1
			c0.6-0.4,2.6-1.1,2.6-1.1s2.6-3.3,3.9-4.3c1.3-0.9,1.5-0.3,3,0.1c1.5,0.4,3,3.5,2.9,5.1c-0.1,2.1-1.2,3.5-2.4,5.3
			c-2,3.1-5.4,6-8.3,8.3c-8.1,6.1-17,12.7-34.9,9.2c-7.2-1.4-14-4.6-20-8.7c-2.4-1.6-11.6-7.4-12.2-10.1c-0.2-0.8,0-1.6,0.2-2.3
			c0.5-2.1,0.7-6.5,3.1-7.4C77.5,173.6,78.3,173.6,79.1,173.7z"/>
		<polyline class="st1" points="104.2,188.4 104.5,191.8 104.3,196.7 		"/>
		<path class="st3" d="M121.3,197.4C121.3,197.4,121.3,197.4,121.3,197.4c-0.3,0-0.5-0.2-0.4-0.5l0.6-5.2l-1-2.9
			c-0.1-0.2,0-0.5,0.3-0.5c0.2-0.1,0.5,0,0.5,0.3l1,3c0,0.1,0,0.1,0,0.2l-0.6,5.3C121.7,197.2,121.5,197.4,121.3,197.4z"/>
		<line class="st1" x1="112.9" y1="159.4" x2="112.9" y2="168.9"/>
		<path class="st1" d="M138.9,159.7l-0.4,1.2l-7.2-3.4c0.3-0.6,0.5-1,0.5-1s-16-8.3-40,0.6c0,0,0.2,0.3,0.5,0.7l-6.3,3l-0.6-1.7
			L75,166.3l2.3,3.7c0.9,1.8,3,2.6,4.9,2l6.4-3.8l-0.7-1.9l0.5,1c0.9,1.8,3,2.6,4.9,2l5.6-1.8l-0.4-1.4c1.3,1.4,2.4,2.5,3.3,2.8
			c4.3,1.7,10.3,0.6,11.2,0c0,0,6.4,2.1,10.9-0.6c0.7-0.4,1.5-1.3,2.4-2.4l-0.5,1.7l5.6,1.8c1.9,0.6,4-0.2,4.9-2l0.1-0.1l-0.5,1.4
			l6.4,3.8c1.9,0.6,4-0.2,4.9-2l2.3-3.7L138.9,159.7z"/>
		<path class="st4" d="M60.1,170.3c0,0,4.7,3.4,14.2,15.7c8.6,11.2,21.6,25.9,47.2,22.9c19.2-2.3,24.6-16.3,32.9-26
			c5.9-7,11.3-11.1,11.3-11.1s-6-1.3-13.8,3.7c-11.9,7.6-10.9,20.6-38.9,20.9c-16,0.2-28.4-11.8-35.6-19.7c-3.7-4.1-6.7-7-6.7-7
			S64.1,168.9,60.1,170.3z"/>
		<path class="st4" d="M60.3,169.7c0,0,14.2,6,30.6-8c8.4-7.1,14-4.9,14-4.9s7.1,4.2,13.4,0.8c2.3-1.2,4.9-1.6,7.3-0.8
			c2.6,0.9,6.2,2.1,9.6,4.9c17.7,14.9,20.7,14.2,30.4,10.2c0,0-6.6-0.8-11.8-5c-8.3-6.7-18.2-16.4-21.7-18.3c-5.7-3.1-9.4-2-16,1.4
			c-2.3,1.2-4.4,1.1-6.2,0.4c-3.1-1.1-5.8-3.7-8.6-3.5c-10.3,0.6-15.7,9.2-26.9,16.3S60.3,169.7,60.3,169.7z"/>
		<path class="st6" d="M151.2,237l-17.3-31.2l-12.1-20.4c2.9-1-8.7,0.9-5.4,1l10.9,22.1l16.8,32.9c1.6,2.8,2.6,5,3.7,6.5
			c2.5,3.4,9-0.2,7.4-3.4C154.1,242.6,152.8,239.8,151.2,237z"/>
		<path class="st6" d="M124.4,181.7l-5.7-12.3c-1.7,0.7-3.7-0.5-5.5-0.6c-1.1,0.3-2.2,0.6-3.3,0.6c-1.9,0.4-3.9,0.4-6,0
			c-0.1,0-0.1,0-0.1-0.1c0,0.1,0,0.2,0.1,0.3l8.2,16.9c0.8,1.7,3.1,2.9,4.9,2.1l5.6-2.4C124.4,185.4,125.2,183.4,124.4,181.7z"/>
		<path class="st5" d="M126.1,176.6l-5.2-7.6c-1.1,0.5-2.6,0.5-3.5,0.5c-2.3-0.1-4.2,0-6.4,0.3c-1.3,0.2-2.5,0.3-3.8,0.1l6.1,13.3
			c0.8,1.7,2.9,2.6,4.7,1.9l6.1-2.3C124.3,182.2,126.9,178.3,126.1,176.6z"/>
		<path class="st5" d="M125.5,175.3l-3.4-6.6c0-0.1-0.1-0.1-0.1-0.2c-0.2,0.1-0.4,0.2-0.7,0.3c-1.3,0.8-3.1,0.8-4.6,0.4
			c-0.3,0-0.5,0-0.8-0.1c-1.8-0.3-3-0.2-4.8,0.2c-0.1,0-0.2,0-0.3,0l4.9,9.3c0.8,1.7,2.9,2.6,4.7,1.9l3.3-1.3
			C125.5,178.6,126.3,177.1,125.5,175.3z"/>
		<line class="st5" x1="117.3" y1="180.5" x2="116.6" y2="185.3"/>
		<line class="st5" x1="114.6" y1="176.5" x2="113.8" y2="184"/>
		<line class="st5" x1="112.2" y1="172.2" x2="111.5" y2="179.3"/>
		<polygon class="st3" points="111.9,179.4 111.1,179.3 111.8,172.1 112.6,172.2 		"/>
		<line class="st5" x1="120.5" y1="180.5" x2="119.6" y2="184.6"/>
		
			<rect x="117.9" y="182.1" transform="matrix(0.2029 -0.9792 0.9792 0.2029 -83.0335 263.0652)" class="st3" width="4.2" height="0.9"/>
		<line class="st5" x1="123.2" y1="179.7" x2="122.3" y2="183.3"/>
		
			<rect x="120.9" y="181.1" transform="matrix(0.2343 -0.9722 0.9722 0.2343 -82.4653 258.3645)" class="st3" width="3.7" height="0.9"/>
		<line class="st5" x1="109" y1="169.9" x2="109" y2="173.7"/>
		<rect x="108.6" y="169.9" class="st3" width="0.9" height="3.9"/>
		<path class="st3" d="M165.7,171.5c-0.1,0-6.6-0.8-11.6-4.9c-3.5-2.8-7.3-6.2-10.7-9.2c-4.8-4.3-9-8-11.1-9.1
			c-5.7-3.2-9.5-2.2-16.4,1.4c-1.9,1-3.8,1.1-5.9,0.4c-1.1-0.4-2.2-1-3.3-1.6c-1.9-1-3.6-2-5.5-1.9c-6.9,0.4-11.8,4.4-17.4,9
			c-2.9,2.4-6,5-9.7,7.4c-10.6,6.8-13.7,6.5-13.7,6.5c-0.2,0-0.4,0.1-0.5,0.3c0,0.1,0,0.2,0,0.3c-0.1,0.1-0.2,0.2-0.2,0.3
			c0,0.2,0,0.3,0.2,0.4c0,0,4.8,3.5,14.1,15.7c9.5,12.3,21,23.5,40.7,23.5c2.2,0,4.5-0.1,6.8-0.4c1.9-0.2,3.6-0.6,5.2-1l0.2,0.4
			l16.8,33c0.5,1,1,1.9,1.5,2.7c0.9,1.6,1.5,2.9,2.3,3.8c0.8,1.1,2,1.5,3.2,1.5c1.1,0,2.2-0.3,3.1-0.9c1.9-1.2,2.6-2.9,1.8-4.4
			c-0.3-0.6-0.6-1.3-1-2c-0.9-1.7-1.8-3.7-2.9-5.6l-17.3-31.2l-0.1-0.2c7-3.9,11.3-9.8,15.5-15.7c1.7-2.3,3.3-4.5,5-6.6
			c5-5.9,9.6-9.8,10.9-10.8c0.1,0,0.1-0.1,0.2-0.1c0.2-0.1,0.3-0.3,0.3-0.5C166,171.6,165.9,171.5,165.7,171.5z M121.4,208.5
			c-23.6,2.8-36.4-9.3-46.8-22.7c-7.5-9.8-12.1-14-13.7-15.3c0,0,0.1,0,0.1,0c1.7,0.5,5.5,1.3,10.5,0.7c1.2,1.2,3.2,3.2,5.4,5.7
			c4.5,4.9,18,19.9,35.6,19.9c0.1,0,0.2,0,0.3,0c2.9,0,5.5-0.2,7.8-0.5l5.6,11.3C124.8,208,123.2,208.3,121.4,208.5z M143,183.1
			c-1.4,1.6-2.8,3.2-4.4,4.7c0.4-1.3,0.5-3.5,0.6-3.8c0,0,0-0.1,0-0.1c0.4-0.3,0.8-0.6,1.1-0.9c0.7-0.7,1.5-1.2,2.2-1.7
			c0.5-0.3,1.1-0.7,1.6-1.1l0.3,0.1c0,0.3-0.1,0.8-0.3,1.5C143.7,182.3,143.3,182.7,143,183.1z M96.3,187.9
			c-0.8-0.7-1.8-1.6-2.4-1.9c-0.9-0.5-3.2-1.5-4.2-1.9c0.4-0.4,1.6-0.8,2.5-1c1.9,0.8,4.5,2,5.2,2.7L96.3,187.9z M98.1,186.4
			c1.5,0.4,4.7,1.5,5.7,2.3l0.2,2.4c-0.8-0.5-2.2-1.2-2.8-1.4c-0.9-0.3-3.5-0.9-4.1-1c0,0-0.1-0.1-0.1-0.1L98.1,186.4z M89,183.6
			c-0.6-0.7-1.8-1.9-2.5-2.3c-1.3-0.7-3.3-1.8-3.8-2.1c-1.1-0.6-2.4-2-3.2-3.2c-0.5-0.7-1.1-1.5-1.7-2c0.1,0,0.2,0,0.3,0
			c0.3,0,0.5,0,0.8,0.1c1.3,0.3,2.6,1.3,3.7,2.2c0.8,0.6,1.5,1.3,2.4,1.7c2.1,1.2,5.3,3.2,6.4,4.3C90.7,182.6,89.6,183,89,183.6z
			 M78.9,176.6c0.4,0.6,1.9,2.7,3.6,3.5c0.4,0.2,2.4,1.3,3.7,2c0.6,0.3,1.9,1.8,2.5,2.4c0,0.5,0,1.3,0,2.2c-5.2-4-9.1-8.2-11.1-10.4
			c-0.5-0.5-1-1.1-1.4-1.6c0.1-0.1,0.3-0.2,0.5-0.3c0,0,0,0,0,0C77.3,174.5,78.1,175.3,78.9,176.6z M89.6,187.4
			c-0.1-0.9-0.1-1.8-0.1-2.5c1,0.4,3.2,1.3,4,1.8c0.5,0.3,1.7,1.3,2.4,2c0,0.1,0,0.1,0,0.2c0,0.1,0,1.3,0.2,2.6
			C93.8,190.3,91.6,188.9,89.6,187.4z M97,192c-0.1-0.9-0.2-1.9-0.2-2.5c0,0,0,0,0,0c0,0,3.1,0.7,4.1,1c0.7,0.3,2.5,1.3,3.2,1.6
			l-0.1,2.6C101.5,194,99.2,193.1,97,192z M104.9,192.2c0.9,0,3.1,0,4,0c0.8,0.1,2.9,0.5,3.8,0.7l0,3c0,0,0,0-0.1,0
			c-2.7,0-5.3-0.4-7.8-1L104.9,192.2z M104.7,188.8c1.9,0,5.8,0.1,7.1,0.7l0.8,2.5c-1-0.2-2.7-0.5-3.5-0.6c-0.9-0.1-3.2-0.1-4.1,0
			L104.7,188.8z M117.5,191.5c-0.9,0.1-3.2,0.5-4.1,0.6l-0.8-2.6c0.8-0.1,1.6-0.2,2.5-0.3c0.2,0,0.4,0.1,0.6,0.1
			c0.4,0,0.9-0.1,1.3-0.2c0,0,0.1,0,0.1,0l1.2,2.4C118,191.4,117.7,191.5,117.5,191.5z M118.8,192.2l1.6,3.2
			c-2.1,0.2-4.3,0.4-6.9,0.4l0-2.9c0.9-0.1,3.2-0.5,4-0.6C117.9,192.3,118.3,192.3,118.8,192.2z M112.8,183.3
			c0.7,1.5,2.2,2.4,3.8,2.4c0.5,0,0.9-0.1,1.4-0.3l6.1-2.3c0.1,0,0.1-0.1,0.2-0.1c0,0.4,0,0.7-0.2,1.1c-0.3,0.8-0.9,1.4-1.7,1.7
			l-5.6,2.4c-0.6,0-1.1,0.1-1.7,0.2c-1.2-0.2-2.3-1.1-2.7-2.1l-7.8-16.3c0.7,0.1,1.5,0.2,2.2,0.2L112.8,183.3z M107.8,170.2
			c1,0,2-0.1,2.9-0.3l3.6,6.7l-0.7,6.1L107.8,170.2z M114.2,183.8l0.7-5.8l0.4,0.8c0.3,0.8,0.9,1.4,1.6,1.8l-0.6,4.2
			C115.5,184.7,114.8,184.4,114.2,183.8z M117.1,184.8l0.6-3.9c0.5,0.2,0.9,0.3,1.4,0.3c0.5,0,0.9-0.1,1.4-0.3l3.3-1.3
			c0.8-0.3,1.4-0.7,1.8-1.3c-0.4,1.5-1.5,3.3-2,4l-5.9,2.3C117.5,184.7,117.3,184.8,117.1,184.8z M118,188.6l4.2-1.8l2.1,3.5
			c-1.1,0.4-2.1,0.8-2.3,0.9c-0.3,0-1.5,0.1-2.6,0.1L118,188.6z M123.9,188.1c2.6-0.9,5-1.6,5.6-1.5l1.3,1.9c-1,0.2-3.1,0.7-4,1
			c-0.4,0.1-1.1,0.4-1.8,0.6L123.9,188.1z M143,180c-0.3,0.2-0.6,0.4-1,0.7c-0.8,0.5-1.6,1.1-2.4,1.8c-0.4,0.4-0.7,0.6-1.1,0.9
			l-1.7-1.3c0.6-0.5,1.6-1.5,2.1-1.7c0.4-0.2,1.3-0.6,2-0.9L143,180z M141.8,178.8c0.7-0.8,2.5-3.1,3.6-3.8c0.8-0.5,1-0.4,1.6-0.2
			c0.1,0.1,0.3,0.1,0.5,0.2c-0.9,0.7-1.6,1.7-2.2,2.6c-0.1,0.2-0.3,0.4-0.4,0.6c-0.3,0.5-0.7,0.8-1.1,1.2L141.8,178.8z M137.8,183.9
			c-0.4,0.2-0.8,0.5-1.2,0.7c-0.4,0.2-0.8,0.5-1.2,0.7c-0.9,0.6-1.8,1.3-2.7,2c-0.3,0.3-0.7,0.5-1,0.8l-1.3-1.8
			c0.7-0.6,2.4-1.9,3-2.4c0.5-0.3,1.9-0.9,2.7-1.2L137.8,183.9z M127.1,190.2c0.9-0.3,2.9-0.8,3.9-1c-0.1,1.1-0.4,3-0.7,3.9
			c-0.9,0.4-1.9,0.7-2.9,1l-2-3.3C126.1,190.5,126.7,190.3,127.1,190.2z M131.9,188.9c0.4-0.3,0.8-0.6,1.3-1
			c0.9-0.7,1.7-1.4,2.6-1.9c0.4-0.2,0.8-0.5,1.2-0.7c0.4-0.2,0.9-0.5,1.3-0.7c-0.1,1.3-0.4,3.1-0.7,3.6c-0.1,0.2-0.1,0.4,0.1,0.5
			c-1.7,1.5-3.8,2.9-6.3,4C131.7,191.4,131.9,189.5,131.9,188.9z M144.9,179.6L144.9,179.6c0.2-0.3,0.5-0.6,0.7-1
			c0.1-0.2,0.3-0.4,0.4-0.6c0.7-1.1,1.4-2.2,2.5-2.7c0.3,0.3,0.7,0.7,1,1.2c-1.7,1.3-3.1,2.7-4.4,4.1c0-0.3,0-0.5,0-0.5
			C145.2,179.8,145.1,179.7,144.9,179.6z M150.3,176c-0.3-0.8-0.6-1.3-1-1.5c-0.2-0.1-0.4-0.1-0.6-0.1c-0.1,0-0.2-0.1-0.3-0.1
			c-0.4-0.1-0.7-0.2-1-0.3c-0.8-0.3-1.3-0.4-2.4,0.3c-1.3,0.9-3.5,3.7-4,4.3c-0.5,0.2-2,0.8-2.5,1.1c-0.7,0.4-2.2,1.8-2.5,2.1
			c-0.4,0.2-2.3,1-3,1.4c-0.8,0.5-2.7,2.1-3.3,2.6c-1.2-0.1-4,0.8-6.2,1.6l-0.5-0.8c0.9-0.4,1.6-1.2,2-2.1c0.3-0.8,0.3-1.7,0.1-2.5
			c0.9-1.5,2.2-4,1.5-5.6l-0.3-0.4c-0.1-0.3-0.1-0.6-0.3-0.8l-3.1-5.9c0.4-0.2,0.8-0.4,1.2-0.6c0.4-0.2,0.8-0.6,1.2-1
			c0,0.2,0.1,0.3,0.3,0.4l5.6,1.8c0.5,0.1,0.9,0.2,1.4,0.2c1,0,2-0.4,2.8-1c0,0,0.1,0.1,0.1,0.1l6.5,3.8c0.5,0.1,0.9,0.2,1.4,0.2
			c1.5,0,2.8-0.7,3.7-1.9c2.3,1.5,4.3,2.4,6.1,3c-0.5,0.3-1,0.5-1.5,0.9C151.1,175.4,150.7,175.7,150.3,176z M142.3,172.2l-6.1-3.6
			l0.4-1.1l1.5-2.9c3.2,2.6,5.9,4.7,8.2,6.2C145.4,172.1,143.7,172.7,142.3,172.2z M135.7,167.2c-0.8,1.6-2.7,2.3-4.4,1.8l-5.2-1.7
			l2.7-8.9c1.9,0.8,4,1.9,6.1,3.6c0.8,0.7,1.7,1.4,2.4,2L135.7,167.2z M125.7,165.7c-0.8,1-1.6,1.9-2.2,2.2c-3.7,2.2-8.9,1-10.2,0.6
			v-9.1c0,0,0,0,0,0c1.7-0.1,3.5-0.5,5.2-1.4c2.3-1.2,4.8-1.5,7-0.8c0.7,0.2,1.6,0.5,2.5,0.9L125.7,165.7z M122,169.5l3.1,5.9
			c0.3,0.7,0.4,1.3,0.1,1.9c-0.3,0.6-0.9,1.2-1.7,1.5c0,0,0,0,0,0l-3.3,1.3c-1.6,0.6-3.4-0.2-4.1-1.7l-4.6-8.7
			c0.6-0.1,1.2-0.3,1.5-0.4C113.9,169.6,118.2,170.7,122,169.5z M112.5,159.4v9.2c-1.3,0.6-6.7,1.4-10.6-0.1
			c-0.8-0.3-1.9-1.4-3.1-2.7l-2.3-7.3c5-2.4,8.1-1.2,8.1-1.2C104.9,157.4,108.3,159.3,112.5,159.4
			C112.5,159.4,112.5,159.4,112.5,159.4z M98.4,167.2l-5.2,1.7c-1.7,0.6-3.5-0.2-4.4-1.8l-0.5-1l-0.5-1.4c1.1-0.8,2.3-1.7,3.4-2.6
			c1.7-1.4,3.2-2.4,4.6-3.2L98.4,167.2z M88.1,168l-6.1,3.6c-1.7,0.5-3.5-0.2-4.4-1.7c2.9-0.9,6-2.4,9.2-4.6l0.6,1.2L88.1,168z
			 M80.9,172.6c0.5,0,1-0.1,1.5-0.2l6.4-3.8c0,0,0,0,0,0c0.9,0.9,2,1.3,3.2,1.3c0.5,0,0.9-0.1,1.4-0.2l5.6-1.8
			c0.2-0.1,0.2-0.2,0.3-0.3c0.9,0.9,1.7,1.5,2.3,1.8c0.6,0.2,1.3,0.4,1.9,0.6l8.1,16.8c0.3,0.8,1,1.4,1.8,1.9
			c-0.6,0.1-1,0.2-1.3,0.2c-1.7-0.9-6.7-0.8-7.8-0.8c-1.3-1.1-5.3-2.2-6.2-2.5c-0.9-1.1-4.5-2.7-5.6-3.1c-0.9-1.5-6-4.4-7-5
			c-0.8-0.4-1.5-1-2.2-1.6c-1.3-1-2.6-2.1-4.1-2.4c-0.9-0.2-1.8-0.1-2.7,0.3c0,0,0,0,0,0c-0.3,0-0.6,0.2-0.9,0.5
			c-1.1-1.2-2.1-2.2-2.9-3c1.3-0.2,2.7-0.5,4.2-0.9l0.1,0.1C77.7,171.7,79.2,172.6,80.9,172.6z M150.8,237.3
			C150.8,237.3,150.8,237.3,150.8,237.3c1.1,1.9,2.1,3.9,2.9,5.6c0.4,0.7,0.7,1.4,1,2c0.6,1.2-0.3,2.6-1.5,3.3
			c-1.6,1-3.9,1.2-5.1-0.4c-0.7-0.9-1.3-2.2-2.2-3.7c-0.4-0.8-0.9-1.7-1.5-2.7l-16.7-32.9l-8-16.2c1.1-0.1,2.3-0.1,2.3-0.1
			c0,0,0.1,0,0.1,0c0,0,1.3-0.5,2.5-1l8.9,14.9L150.8,237.3z M154.1,182.6c-1.8,2.1-3.4,4.3-5.1,6.6c-4.2,5.8-8.4,11.6-15.3,15.4
			l-5.8-9.8c8.2-2.4,12-6.8,15.7-11.1c0.1-0.1,0.2-0.3,0.4-0.4c0,0,0,0,0,0c0.1,0,0.1,0,0.2,0c0.2,0,0.3-0.1,0.4-0.3
			c0.1-0.3,0.2-0.5,0.3-0.8c2-2.3,4.2-4.6,7.2-6.5c0.8-0.5,1.5-0.9,2.3-1.3c0.8,0.2,1.6,0.2,2.3,0.2c2.1,0,4.1-0.6,6.5-1.5
			C161,175.2,157.7,178.4,154.1,182.6z M135.5,161.4c-3.6-3-7.6-4.3-9.7-5c-0.9-0.3-1.8-0.4-2.8-0.4c-1.6,0-3.3,0.4-4.9,1.3
			c-6.1,3.3-12.9-0.7-13.1-0.8c-0.2-0.1-6-2.3-14.5,4.9c-11.9,10.1-22.7,9.6-27.5,8.7c0.2,0,0.3-0.1,0.5-0.1
			c-0.4-0.1-0.9-0.1-1.3-0.2c2-0.6,5.7-2.2,12.2-6.3c3.8-2.4,7-5.1,9.8-7.4c5.7-4.7,10.2-8.4,16.9-8.8c1.6-0.1,3.3,0.8,5.1,1.8
			c1.1,0.6,2.2,1.2,3.4,1.7c2.3,0.8,4.4,0.7,6.6-0.4c6.4-3.3,10-4.5,15.6-1.4c2,1.1,6.1,4.8,10.9,9c3.4,3,7.3,6.4,10.7,9.2
			c3.8,3.1,8.3,4.4,10.5,4.8C155.9,175.4,152.5,175.7,135.5,161.4z"/>
	</g>
</g>
</svg>
