<?xml version="1.0" encoding="utf-8"?>
<!-- Generator: Adobe Illustrator 23.1.0, SVG Export Plug-In . SVG Version: 6.00 Build 0)  -->
<svg version="1.1" id="Слой_1" xmlns="http://www.w3.org/2000/svg" xmlns:xlink="http://www.w3.org/1999/xlink" x="0px" y="0px"
	 viewBox="0 0 283.5 283.5" style="enable-background:new 0 0 283.5 283.5;" xml:space="preserve">
<style type="text/css">
	.st0{fill:#06656E;}
	.st1{fill:#FDE2C4;}
	.st2{fill:#168699;}
	.st3{fill:#F5C57F;}
	.st4{fill-rule:evenodd;clip-rule:evenodd;fill:#F5C57F;}
	.st5{fill:#FFFFFF;}
	.st6{fill:#22A1AE;}
	.st7{clip-path:url(#SVGID_2_);fill:none;stroke:#06656E;stroke-linecap:round;stroke-linejoin:round;stroke-miterlimit:10;}
	.st8{fill-rule:evenodd;clip-rule:evenodd;}
</style>
<g>
	<path class="st0" d="M161.3,126.8c0,0,10.4,8.2,14.2,17.6c3.7,9.4,14.7,30.8,20.4,38.5c0,0-8.9,21.6-27.8,24.8
		C168,207.7,169.8,141.2,161.3,126.8z"/>
	<path class="st1" d="M199.5,252.5c-1-1-3.6,0.4-3.6,0.4s-4.5-1.1-9.3-2.6c-5-1.6-9.6-2-9.6-2c-2.6-13.7-8.6-52.9-10.5-65.7
		l-12.1,11.6c4.7,14.5,12.1,40.3,17.8,55.7c-0.7,1.5-1.8,3.8-1,5.8c1,2.3,11.2,0.4,15.9,0.4c2.6,0,3.8,0.3,6.6,0.5
		c3.2,0.3,3.4-1.3,3.4-1.3S201.2,254.1,199.5,252.5z"/>
	<path class="st1" d="M168,114.4c0,0-4.7-8.9-19.4-9.9c-4.2-0.5-2.8-3.8-2.1-8.1l-11.9-0.5c0,0,4.2,5.9-1,7.9
		c-1.1,0.4-11,0.7-13.9,3c0,0-30.5,24.3-29.1,27.8c1.5,3.5,8.7,1.2,11.4,0.2c1.8-0.6,11.1-6.6,16.6-9.9c0.4,20.5,2.5,51.3,2.8,54
		c1.5,16.2,10.3,60,11.2,64l-14.2,7.5c0,0-3.1-0.2-3.9,0.9c-1.9,2.7,0.8,4.2,0.8,4.2s0.2,2,2.4,2.2c0,0,0.5,2.4,3.6,2.1
		c0,0,3,2.3,5.2,0.1c2.1-2.1,1.9-2.9,1.9-2.9s3.8-4.8,6.6-5.6c6.5-1.8,4.3-4.1,3.5-6.7l-3.7-62.3l0.6-12.9c6.2,0.7,13.7,0.2,21.3-4
		l6.9-31.8c0,0,16.1,13.3,19.5,9.2C188.9,136.2,168,114.4,168,114.4z"/>
	<path class="st2" d="M143.4,122.8c-3.2-0.5-8.9-2-11.4,6c-2.8,8.9-4.7,32.3-6.2,40.2c-1.5,7.9-8.2,16.9-8.4,30.8
		c0,0,9.5-9,21.9-3.5c16.6,7.5,15.1,27.3,29.1,35.8c0,0,1.4-18.1,4.5-24.8c3.7-8.2,4.7-53.9-4.7-66.1
		C168,141.2,158.8,125.3,143.4,122.8z"/>
	<path class="st3" d="M109,78.7c-2.4,0.3-4.6-2.4-5.1-3.7c-2-5.6-1.5-8.7,1.1-11.3c-2.1-2.5-1.7-6.6,1-9.4c1.5-1.6,3.4-2.5,5.2-2.7
		c0.1-1.8,0.9-3.6,2.3-5.1c1.7-1.8,3.9-2.7,6-2.7c0.4-0.8,0.9-1.5,1.5-2.2c2.1-2.2,4.9-3.1,7.3-2.6c0.9-1.5,2.3-2.8,4.2-3.6
		c4-1.7,8.3-0.6,9.8,2.6c0.7-0.7,1.5-1.3,2.5-1.7c3.6-1.6,7.7-0.3,9.2,3c0.1,0.3,0.2,0.6,0.3,0.9c3.7-1.6,8,0,9.6,3.6
		c0.6,1.3,0.7,2.7,0.5,4c3.3-0.7,6.7,0.9,8.1,4c0.6,1.5,0.7,3,0.4,4.5c1.9,0.6,3.6,1.9,4.5,3.9c1.1,2.6,0.6,5.5-1.2,7.5
		c0.7,0.6,1.2,1.4,1.6,2.2c1.5,3.4,0,7.3-3.3,9.1c-0.6,1.5-1.6,2.9-3.1,3.8c-0.1,2.9-3.3,5.6-6.8,5.8c-4.3,0.2-4.7-5-6.4-7.7
		c-1.6-2.5-2.7-0.8,1.8-2.8c0.1,0,0.1-0.1,0.2-0.1c-0.4-2.9,1.1-5.9,3.8-7.4c0.3-0.8,0.8-1.6,1.4-2.3c-0.7-0.6-1.2-1.4-1.6-2.2
		c-0.6-1.5-0.7-3-0.4-4.5c-1.9-0.6-3.6-1.9-4.5-3.9c-0.6-1.3-0.7-2.7-0.5-4c-3.3,0.7-6.7-0.9-8.1-4c-0.2-0.5-0.4-1.1-0.5-1.6
		c-3.6,1.4-7.6,0.1-8.9-3.1c0,0,0,0,0-0.1c-0.8,0.9-1.9,1.7-3.1,2.2c-1.9,0.8-3.9,1-5.6,0.6c-0.4,0.9-1,1.8-1.7,2.5
		c-1.7,1.8-3.9,2.7-6,2.7c-0.4,0.8-0.9,1.5-1.5,2.2c-1.5,1.6-3.4,2.5-5.2,2.7c-0.1,1.8-0.9,3.6-2.3,5.1c0,0,0,0-0.1,0.1
		c1.6,1,3,2.6,3.8,4.5c1,2.2,0.9,3.9,0.1,5.4c2.7,0.3,4.9,1.6,6,3.9c0,0.1,0.1,0.1,0.1,0.2c2.4,0.4,4.4,1.6,5.2,3.6
		c1.6,3.5-1.9,6.1-6.4,8.1c-4.5,2-8.6,2.1-10.2-0.5c-0.3-0.5-0.5-1.1-0.5-1.8c-2,0-3.6-0.6-4.5-2.1C108.1,82.8,108,80.8,109,78.7z"
		/>
	<path class="st1" d="M106.9,71.8c1.3-1.3,4.1-0.6,6.3,1.6c2.2,2.2,2.9,4.9,1.6,6.2c-1.3,1.3-4.1,0.6-6.3-1.6
		C106.4,75.8,105.7,73,106.9,71.8z"/>
	<path class="st1" d="M172.8,71.7c1.3,1.2,0.7,4.1-1.5,6.3c-2.1,2.2-4.9,3-6.2,1.7c-1.3-1.2-0.7-4.1,1.5-6.3
		C168.6,71.2,171.4,70.5,172.8,71.7z"/>
	<path class="st1" d="M140.5,49.4c15.7,0,28.4,10.9,28.4,24.3c0,13.4-12.7,24.3-28.4,24.3C124.8,97.9,112,87,112,73.6
		C112,60.2,124.8,49.4,140.5,49.4z"/>
	<path class="st4" d="M126.9,64.2c-0.2,0.3-0.4,0.7-0.7,1c-1.2,1.4-3.2,1.8-5.1,1.3c0,1.5-0.5,3-1.5,4.1c-2.4,2.7-6.8,2.5-9.8-0.5
		c-3-3-3.4-7.7-1-10.4c1.5-1.7,3.7-2.2,5.9-1.7c0.1-1.3,0.5-2.4,1.3-3.3c1-1.2,2.6-1.7,4.2-1.5c0.3-0.8,0.7-1.6,1.2-2.3
		c1.2-1.3,4-2.5,6.5-2.1"/>
	<path class="st4" d="M149,46.3c2.3-1.1,4.8-0.9,6.3,0.9c0.8,0.9,1.2,2,1.2,3.3c2.1-0.5,4.2,0,5.7,1.7c1.1,1.3,1.6,3,1.5,4.8
		c0.7,0.9,1.1,2,1.1,3.2c2.1-0.5,4.2,0,5.7,1.7c2.3,2.7,1.9,7.4-1,10.4c-2.9,3-7.1,3.3-9.4,0.5c-1-1.1-1.5-2.6-1.5-4.1
		c-1.9,0.5-3.7,0.1-4.9-1.3c-0.4-0.5-0.7-1.1-0.9-1.7"/>
	<path d="M139.1,82.2c0.1,0,0.1,0,0.2,0c0.2,0,0.4-0.1,0.5-0.3c0.1-0.3,0-0.5-0.3-0.7c-0.8-0.4-1.3-1-1.3-1.9c0-0.8,0.3-1.5,0.9-1.8
		c0.6-0.3,1.3-0.2,2.1,0.3c0.2,0.2,0.5,0.1,0.7-0.1c0.2-0.2,0.1-0.5-0.1-0.7c-1.5-1-2.6-0.7-3.2-0.4c-0.9,0.5-1.5,1.6-1.4,2.7
		C137.3,80.7,138,81.7,139.1,82.2z"/>
	<path d="M144.1,86.6c-0.3,0-0.5,0.2-0.5,0.5c-0.1,2.4-1.9,3.4-3.5,3.4c-1.9,0.1-4.1-1.1-4.5-3.5c0-0.3-0.3-0.5-0.6-0.4
		c-0.3,0-0.5,0.3-0.4,0.6c0.4,2.8,3,4.3,5.3,4.3c0.1,0,0.2,0,0.2,0c1.9-0.1,4.3-1.3,4.4-4.4C144.6,86.9,144.4,86.7,144.1,86.6z"/>
	<path d="M128.2,72.1c-0.1,0-0.2,0-0.3-0.1c-0.2-0.2-0.2-0.5,0-0.7c1.4-1.4,2.8-2.2,4.7-2.5c0.3,0,0.5,0.1,0.6,0.4
		c0,0.3-0.1,0.5-0.4,0.6c-1.6,0.2-2.9,0.9-4.1,2.2C128.4,72,128.3,72.1,128.2,72.1z"/>
	<path class="st5" d="M128.4,79.4c-0.4-0.6-0.7-1.5-0.7-2.5c0-1.9,1.1-3.3,2.4-3.3c1.3,0,2.2,1.6,2.2,3.4c0,1-0.4,1.9-0.9,2.5
		c-0.8-0.1-1.7-0.2-2.8-0.2C128.5,79.4,128.5,79.4,128.4,79.4z"/>
	<path class="st5" d="M146.4,79.5c-0.3-0.6-0.5-1.5-0.5-2.4c0.1-2,1.1-3.6,2.4-3.6c1.3,0,2.3,1.7,2.2,3.7c0,0.8-0.2,1.5-0.5,2.1
		c-0.6-0.1-1.2-0.1-1.9,0C147.5,79.4,146.9,79.4,146.4,79.5z"/>
	<path d="M130.1,73.1C130.1,73.1,130,73.1,130.1,73.1c-0.6,0-1.2,0.2-1.7,0.7c-0.7,0.7-1.2,1.9-1.2,3.1c0,0.8,0.1,1.6,0.4,2.2
		c-0.2,0.1-0.4,0.1-0.7,0.2c-0.3,0.1-0.4,0.4-0.3,0.6c0.1,0.3,0.4,0.4,0.6,0.3c0.5-0.2,1.1-0.3,1.6-0.3c0.8,0,1.5,0,2.2,0.1
		c0.3,0.1,0.6,0.1,0.9,0.2c0.1,0,0.1,0,0.2,0c0.2,0,0.4-0.1,0.5-0.3c0.1-0.3,0-0.5-0.3-0.6c0,0,0,0-0.1,0c0.4-0.6,0.6-1.4,0.6-2.2
		C132.8,74.9,131.6,73.2,130.1,73.1z M128.6,78.9c-0.3-0.5-0.5-1.3-0.5-2c0-1,0.4-1.9,0.9-2.4c0.2-0.2,0.5-0.4,0.9-0.4
		c1,0,1.8,1.4,1.7,2.9c0,0.3-0.1,0.5-0.1,0.7c-0.2-0.4-0.8-0.7-1.4-0.8c-0.9,0-1.6,0.5-1.6,1.2c0,0.3,0.1,0.5,0.3,0.7
		C128.8,78.9,128.7,78.9,128.6,78.9z"/>
	<path d="M150.8,79.2c-0.1,0-0.1,0-0.2,0c0.2-0.6,0.4-1.2,0.4-1.8c0-1.4-0.4-2.7-1.1-3.4c-0.5-0.5-1-0.7-1.6-0.8
		c-1.5,0-2.9,1.7-2.9,4c0,0.7,0.1,1.5,0.4,2.1c-0.1,0-0.1,0-0.2,0.1c-0.3,0.1-0.4,0.4-0.3,0.6c0.1,0.2,0.3,0.3,0.5,0.3
		c0.1,0,0.1,0,0.2,0c0.3-0.1,0.7-0.2,1-0.3c0.4-0.1,0.8-0.1,1.3-0.2c0.3,0,0.6,0,0.9,0c0.5,0.1,1,0.1,1.5,0.3
		c0.3,0.1,0.5-0.1,0.6-0.3C151.2,79.6,151.1,79.3,150.8,79.2z M149.9,77.9c-0.2-0.4-0.8-0.7-1.5-0.7c-0.9,0-1.7,0.5-1.7,1.1
		c0,0.2,0.1,0.4,0.3,0.6c-0.1,0-0.1,0-0.2,0c0,0-0.1,0-0.1,0c-0.2-0.5-0.3-1.2-0.3-1.8c0.1-1.7,0.9-3.1,1.9-3.1c0,0,0,0,0,0
		c0.4,0,0.7,0.2,0.9,0.4c0.6,0.6,0.9,1.6,0.8,2.7C150,77.5,150,77.7,149.9,77.9z"/>
	<path d="M151.8,72c-0.1,0-0.3-0.1-0.4-0.2c-1.1-1.2-2.4-1.8-4.1-2.1c-0.3,0-0.5-0.3-0.4-0.6c0-0.3,0.3-0.5,0.6-0.4
		c1.9,0.3,3.4,1,4.7,2.4c0.2,0.2,0.2,0.5,0,0.7C152,71.9,151.9,72,151.8,72z"/>
	<path class="st3" d="M128.5,53.9c-0.6-1.1-1-2.3-1-3.7c0-4.4,3.9-8,8.7-8c3.5,0,6.6,2,7.9,4.8c1.1-0.5,2.3-0.8,3.6-0.8
		c4.6,0,8.4,3.6,8.4,8c0,0.6-0.1,1.2-0.2,1.8c2.1,2.4,2.4,5.5,0.7,7.7c-1.5,1.8-4.1,2.4-6.7,1.8c-0.1,0.4-0.3,0.7-0.5,1.1
		c-1.7,2.3-6,2.1-9.5-0.4c-1.7-1.2-2.9-2.7-3.5-4.3c-0.8,0.7-1.8,1.3-2.9,1.8c-4,1.7-8.2,0.8-9.4-2C123,59.1,124.9,55.7,128.5,53.9z
		"/>
	<path class="st1" d="M91,135.1c-0.5,5.5,27.1,11.1,30,11.8c0,0,2,3.1,3.8,5c1.1,1.1,6.8,7.1,7.9,6.3c1.2-0.8-3.6-6-3.6-6
		s8.9,6.5,9.3,4.8c0.3-1.3-1-2.3-2.3-3.3c-1.7-1.3-4-3.6-4-3.6s8.9,4.5,9.6,2.8c0.4-1-0.5-1.8-4.1-3.5c-2-0.9-4-2.6-4-2.6
		s8.6,2.5,8.4,0.8c-0.1-1.2-1.6-2-5.5-3.1c-2.8-0.9-6.2-2.6-6.2-2.6s6.2-4.1,4.3-5.5c-0.4-0.3-0.6-0.4-1-0.2
		c-1.1,0.4-3.7,2.9-6.3,3.2c-1.9,0.2-4.6,1-4.6,1c-7.6-2.2-17.9-10.7-19.7-11.1"/>
	<path class="st6" d="M146.7,122.6c0.7,0.2,6.7,2.2,4.5,10.2s-4.7,11.2-2.2,21.6c0,0,1.5-4.5,6-4.7c4.5-0.2,16.6-3,15.4-11.4
		c0,0-3.2-14.4-17.1-18.6C148.1,118.1,146.7,122.6,146.7,122.6z"/>
	<path class="st1" d="M148.3,116.6c0,0-1.6-0.5-7.3,0.9c-3,0.7-4.9-0.5-5,0.6c-0.1,2.6,7.3,2.5,7.3,2.5L148.3,116.6z"/>
	<path class="st1" d="M170.9,138.2c-3.5-2-17-12.7-17-12.7c0.3,0-3.2,4.7-6.6,6.3c-3.1,1.5-3.2-0.7-3.2-0.7s-0.9,0.5-2.3,0
		c-0.9-0.4-1.4-1.8-1.4-1.8s-1.2,0.5-2.2-0.5c-0.4-0.4-0.6-1.7-0.6-1.7s-1.6,0.1-1.2-2.3c0.9-4.8,9.4-8,12.9-8.4
		c5.5-0.7,22.9,11.5,26.9,16L170.9,138.2z"/>
	<g>
		<defs>
			<path id="SVGID_1_" d="M124.3,176.6c-2.5,6.3-5.6,10.8-6.2,21.7c0,0,9.1-8.2,21.4-2.6c16.5,7.5,14.6,27.3,28.4,35.8
				c0,0,1-11.8,2.5-18.1c1.1-4.8,4.4-17.1,4.4-17.1s-17.4-18.1-30.9-21.9C131.8,171,124.5,176.1,124.3,176.6z"/>
		</defs>
		<clipPath id="SVGID_2_">
			<use xlink:href="#SVGID_1_"  style="overflow:visible;"/>
		</clipPath>
		<path class="st7" d="M121.1,183.4c2.5-3.1,13.3-5,23.1-0.6c16.4,7.5,21.6,26.4,28.1,26.7"/>
		<path class="st7" d="M119.1,189.6c2.7-3,11.4-5.8,21.3-1.5c15.3,6.7,25.5,28.3,29.9,28.3"/>
	</g>
	<path class="st8" d="M126.6,128c0.8,0,1.5-0.7,1.5-1.5s-0.7-1.5-1.5-1.5c-0.8,0-1.5,0.7-1.5,1.5S125.7,128,126.6,128z M126.6,126
		c0.3,0,0.5,0.2,0.5,0.5s-0.2,0.5-0.5,0.5c-0.3,0-0.5-0.2-0.5-0.5S126.3,126,126.6,126z"/>
	<path class="st8" d="M199.9,252.1c-1.1-1.1-3.3-0.1-4,0.3c-0.9-0.2-4.9-1.2-9.1-2.6c-3.7-1.2-7.8-1.9-9.3-2
		c-1.4-7.4-3.7-21.6-5.8-35.3c0.5-2,1-3.8,1.6-5.1c0.1-0.2,0.2-0.5,0.3-0.7c15.3-5.9,22.7-23.4,22.8-23.6c0.1-0.2,0-0.3-0.1-0.5
		c-5.5-7.4-16.4-28.5-20.3-38.4c-0.4-0.9-0.8-1.8-1.2-2.6c3.8,2.1,7.5,3.3,9.1,1.4c5.6-6.6-14-27.5-15.4-28.9
		c-0.5-0.9-5.5-9.2-19.7-10.1c-1-0.1-1.7-0.4-2.1-0.9c-0.7-0.9-0.3-2.7,0.1-4.8c0-0.2,0.1-0.4,0.1-0.5c6.6-1.3,12.4-4.5,16.4-8.9
		c0.4,0.1,0.8,0.1,1.3,0.1c3.6-0.2,6.9-3,7.2-6c1.4-0.9,2.4-2.2,3-3.7c3.5-2,4.9-6.1,3.4-9.7c-0.3-0.8-0.8-1.4-1.4-2
		c1.7-2.2,2.1-5.2,1-7.7c-0.8-1.9-2.4-3.3-4.3-4c0.3-1.5,0.1-3-0.5-4.3c-1.4-3-4.6-4.8-7.9-4.4c0.1-1.2-0.1-2.5-0.6-3.6
		c-1.6-3.6-5.9-5.3-9.7-4c-0.1-0.2-0.1-0.3-0.2-0.5c-1.5-3.5-5.9-4.9-9.8-3.2c-0.8,0.4-1.5,0.8-2.2,1.4c-1.8-2.9-6.2-3.9-10.1-2.2
		c-1.8,0.8-3.2,2-4.2,3.5c-2.6-0.4-5.4,0.6-7.4,2.8c-0.6,0.6-1.1,1.3-1.5,2c-2.2,0.1-4.4,1.1-6.1,2.8c-1.4,1.4-2.2,3.2-2.4,5
		c-1.9,0.3-3.7,1.3-5.1,2.8c-2.8,2.9-3.3,7-1.3,9.7c-2.6,2.8-2.8,6.2-0.9,11.5c0.5,1.4,2.5,3.8,4.8,4.1c-0.7,1.9-0.7,3.8,0.2,5.2
		c0.9,1.5,2.4,2.3,4.5,2.4c0.1,0.6,0.2,1.2,0.5,1.6c0.9,1.5,2.5,2.3,4.7,2.3c0.4,0,0.8,0,1.3-0.1c4.2,3.8,9.7,6.4,15.9,7.4
		c0.4,1,0.7,2.2,0.4,3.2c-0.3,0.9-1,1.6-2.2,2.1c-0.2,0.1-1.4,0.2-2.5,0.3c-3.5,0.4-9.3,1-11.5,2.7c-5.1,4.1-30.8,24.8-29.2,28.4
		c0,0.1,0.1,0.2,0.2,0.3c0,0-0.1,0.1-0.1,0.1c-0.3,3.6,9.1,7.5,28.7,11.9c0.8,15.6,1.8,30.2,1.9,31.8c0,0.5,0.1,1,0.2,1.6
		c-2.2,5.4-4.3,11.6-4.4,19.4c0,0.2,0.1,0.4,0.3,0.5c0.2,0.1,0.4,0,0.5-0.1c0,0,2.3-2.1,5.9-3.6c2.7,16,6.5,35.8,8.5,45.8l0,0.1
		l-13.8,7.2c-0.8,0-3.4,0-4.2,1.1c-0.7,1-0.9,1.9-0.7,2.8c0.2,1,1,1.7,1.4,2c0.2,0.8,0.8,2,2.5,2.3c0.3,0.7,1.2,2.3,3.9,2.2
		c0.7,0.5,1.9,1,3.1,1c0.9,0,1.8-0.3,2.7-1.1c1.7-1.6,2-2.6,2-3.1c0.6-0.8,3.9-4.6,6.2-5.3c2.6-0.7,4-1.5,4.6-2.6
		c0.6-1.1,0.1-2.3-0.3-3.5c-0.1-0.4-0.3-0.8-0.4-1.1l-2.9-48.7c0.9,0.3,1.8,0.6,2.7,1c8.7,3.9,12.5,11.5,16,18.8
		c2.6,5.3,5.3,10.8,10,14.8c2.3,7.2,4.5,14,6.6,19.6c-0.7,1.6-1.8,3.9-0.9,6c0.5,1.1,2.1,1.4,4.6,1.4c1.7,0,3.8-0.2,6.2-0.4
		c2.1-0.2,4.1-0.3,5.5-0.3c1.8,0,2.9,0.2,4.3,0.3c0.6,0.1,1.3,0.1,2.2,0.2c2.8,0.3,3.6-0.8,3.9-1.4c0.8-0.3,2.6-1,2.9-2.2
		C200.5,253.2,200.5,252.7,199.9,252.1z M175,144.6c3.5,8.8,14.3,30.2,20.3,38.4c-0.9,2.1-8,16.9-21.4,22.5
		c3.1-11.4,3.5-48.6-4-62.3c0.7-1.2,1-2.5,0.9-3.9c0.7,0.5,1.4,0.9,2.2,1.4C173.7,141.9,174.5,143.2,175,144.6z M104.4,74.8
		c-1.9-5.2-1.6-8.2,0.9-10.8c0.2-0.2,0.2-0.5,0-0.7c-2-2.3-1.5-6.1,1-8.8c1.4-1.4,3.1-2.3,4.9-2.5c0.2,0,0.4-0.2,0.4-0.5
		c0.1-1.7,0.9-3.4,2.2-4.8c1.5-1.6,3.6-2.5,5.6-2.5c0,0,0.1,0,0.1,0c0.2,0,0.4-0.1,0.4-0.3c0.4-0.7,0.8-1.4,1.4-2
		c1.9-2,4.5-2.9,6.8-2.4c0.2,0,0.4,0,0.5-0.2c0.9-1.4,2.3-2.6,3.9-3.4c3.7-1.6,7.8-0.6,9.2,2.3c0.1,0.1,0.2,0.3,0.4,0.3
		c0.2,0,0.3,0,0.4-0.1c0.7-0.7,1.5-1.2,2.4-1.6c3.4-1.5,7.2-0.3,8.5,2.7c0.1,0.3,0.2,0.6,0.3,0.8c0,0.1,0.1,0.3,0.3,0.3
		c0.1,0.1,0.3,0.1,0.4,0c3.5-1.4,7.5,0,8.9,3.3c0.5,1.2,0.7,2.5,0.4,3.7c0,0.2,0,0.3,0.1,0.4c0.1,0.1,0.3,0.2,0.4,0.1
		c3.2-0.6,6.3,0.9,7.5,3.7c0.6,1.3,0.7,2.7,0.3,4.1c-0.1,0.3,0.1,0.5,0.3,0.6c1.9,0.5,3.4,1.9,4.2,3.6c1,2.3,0.6,5-1.2,7
		c-0.2,0.2-0.2,0.5,0,0.7c0.6,0.6,1.1,1.3,1.5,2.1c1.4,3.1,0.1,6.8-3.1,8.5c-0.1,0.1-0.2,0.2-0.2,0.3c-0.5,1.4-1.6,2.7-2.9,3.5
		c-0.1,0.1-0.2,0.2-0.2,0.4c-0.1,2.7-3.1,5.1-6.3,5.3c-0.2,0-0.3,0-0.4,0c1.9-2.2,3.3-4.8,4.2-7.5c1.1-0.4,2.3-1.1,3.4-2.2
		c1.5-1.5,2.3-3.3,2.3-4.9c0-0.8-0.3-1.6-0.8-2.1c-0.6-0.5-1.3-0.7-2.2-0.7c1.6-2.5,0.9-2-1.2,0.7c-0.1,0.2-0.3,0.3-0.4,0.4
		c0-0.1,0-0.2,0-0.3c-0.1,0.2-0.2,0.4-0.4,0.6c-0.2,0.2-0.4,0.4-0.6,0.6c0,0,0,0,0,0c-2.7,2.2-6.1,2.2-8.2-0.2
		c-0.9-1.1-1.4-2.5-1.4-3.9c0-0.1,0-0.2-0.1-0.2c-0.1-0.1-0.2-0.1-0.3-0.1c-1.8,0.5-3.5,0.1-4.6-1.3c-0.2-0.3-0.4-0.6-0.6-1
		c1.5-0.3,2.8-1,3.7-2.1c1.8-2.2,1.6-5.5-0.5-8.1c0.1-0.6,0.2-1.1,0.2-1.7c0-4.7-4-8.4-8.9-8.4c-1.2,0-2.3,0.2-3.4,0.6
		c-1.6-2.8-4.7-4.6-8.2-4.6c-5,0-9.2,3.8-9.2,8.4c0,1.2,0.3,2.4,0.8,3.4c-3.6,2-5.3,5.5-4.2,8.2c0.5,1.2,1.5,2,2.7,2.5
		c-0.1,0.2-0.2,0.4-0.4,0.6c-1.2,1.3-3,1.7-4.8,1.3c-0.1,0-0.2,0-0.3,0.1c-0.1,0.1-0.1,0.1-0.1,0.2c0,1.5-0.5,2.9-1.5,3.9
		c-2.3,2.6-6.5,2.3-9.3-0.6c-0.5-0.5-3-2.2-0.5,0.4c0.2,0.2,0.4,0.4,0.7,0.6c-1.4-0.5-2.8-0.4-3.6,0.5c-0.5,0.5-0.8,1.2-0.8,2.1
		c0,1.5,0.8,3.2,2.2,4.7C106.3,77.7,104.8,75.8,104.4,74.8z M169.4,72.6c0.1-0.1,0.2-0.1,0.2-0.2c0.2-0.2,0.3-0.4,0.5-0.6
		c0.4-0.1,0.7-0.2,1-0.2c0.5,0,1,0.1,1.3,0.5c0.4,0.4,0.5,1,0.5,1.4c0,1.3-0.7,2.9-2,4.2c-0.7,0.7-1.5,1.3-2.3,1.7
		c0.5-1.8,0.8-3.7,0.8-5.7C169.4,73.3,169.4,73,169.4,72.6z M128.9,53.7c-0.6-1.1-0.9-2.2-0.9-3.4c0-4.1,3.7-7.5,8.2-7.5
		c3.3,0,6.2,1.8,7.5,4.5c0.1,0.2,0.4,0.3,0.7,0.2c1.1-0.5,2.2-0.7,3.4-0.7c4.3,0,7.9,3.3,7.9,7.5c0,0.6-0.1,1.1-0.2,1.7
		c0,0.2,0,0.3,0.1,0.4c2,2.3,2.2,5.2,0.6,7c-1.3,1.6-3.7,2.2-6.2,1.6c-0.3-0.1-0.5,0.1-0.6,0.3c-0.1,0.3-0.3,0.6-0.5,0.9
		c-1.5,2.1-5.5,1.9-8.8-0.5c-1.5-1.1-2.7-2.6-3.3-4.1c-0.1-0.1-0.2-0.3-0.3-0.3c0,0-0.1,0-0.1,0c-0.1,0-0.2,0-0.3,0.1
		c-0.8,0.7-1.7,1.3-2.7,1.7c-3.7,1.6-7.7,0.8-8.8-1.7c-1-2.3,0.8-5.5,4.1-7.2c0.1-0.1,0.2-0.2,0.3-0.3C129,53.9,129,53.8,128.9,53.7
		z M106.8,73.5c0-0.6,0.2-1,0.5-1.4c0.9-0.8,2.6-0.6,4.3,0.6c0,0.3-0.1,0.6-0.1,0.9c0,2.1,0.3,4.1,0.9,6c-1.1-0.2-2.4-0.9-3.5-2
		C107.6,76.3,106.8,74.8,106.8,73.5z M114.3,87.9c-0.3-0.4-0.4-0.9-0.4-1.6c0-0.1-0.1-0.3-0.1-0.4c-0.1-0.1-0.2-0.1-0.4-0.1h0
		c-1.9,0.1-3.3-0.6-4.1-1.9c-0.8-1.3-0.7-3,0-4.6c1.1,0.8,2.3,1.3,3.4,1.4c1.2,3.3,3.1,6.4,5.7,9C116.5,89.7,115.1,89.1,114.3,87.9z
		 M112.5,73.6c0-0.4,0-0.9,0.1-1.3c2.6,1,5.4,0.5,7.2-1.5c1-1.1,1.5-2.5,1.6-3.9c1.9,0.4,3.8-0.1,5.1-1.5c0.2-0.2,0.4-0.5,0.5-0.8
		c1.9,0.6,4.4,0.5,6.7-0.5c0.9-0.4,1.7-0.9,2.5-1.4c0.7,1.4,1.9,2.8,3.4,3.9c1.9,1.4,4.1,2.1,6,2.1c1.7,0,3.3-0.6,4.1-1.8
		c0.2-0.2,0.3-0.5,0.5-0.8c0.8,0.1,1.6,0.2,2.3,0.1c0.2,0.5,0.4,0.9,0.8,1.3c1.2,1.4,3,1.9,4.9,1.5c0.1,1.5,0.6,2.9,1.5,3.9
		c2.1,2.5,5.8,2.7,8.7,0.6c0,0,0,0.1,0,0.1c0,13.1-12.5,23.8-27.9,23.8C125.1,97.4,112.5,86.7,112.5,73.6z M91.8,136.2
		C91.8,136.2,91.8,136.2,91.8,136.2c-0.1-0.1-0.2-0.3-0.2-0.5c-0.1-0.2-0.1-0.4-0.1-0.6c0-0.2-0.1-0.3-0.2-0.4c-0.2-1,0.1-2,1-2.5
		c3.5-4.6,15.7-15.4,28-25.2c2-1.6,7.6-2.2,11-2.5c1.6-0.2,2.4-0.3,2.8-0.4c1.5-0.6,2.4-1.5,2.7-2.7c0.3-1.1,0.1-2.3-0.2-3.3
		c1.3,0.2,2.7,0.3,4,0.3c1.8,0,3.6-0.2,5.3-0.5c0,0.1,0,0.1,0,0.2c-0.5,2.3-0.9,4.3,0.1,5.5c0.5,0.7,1.4,1.2,2.8,1.3
		c14.2,1,18.9,9.6,19,9.7c0,0,0,0.1,0.1,0.1c5.7,6,19.6,22.6,15.4,27.6c-1.5,1.8-6.5-0.6-11.4-3.8c0-0.1-2.3-1.7-5.1-3.8
		c-4.5-3.4-10.5-8.1-12-9.3c0.4-0.6,0.6-1.4,0.3-2.2c-0.1-0.3-0.4-0.4-0.7-0.2c-0.3,0.1-0.4,0.4-0.2,0.7c0.3,0.6-0.3,1.4-0.7,1.9
		c-0.1,0.2-0.2,0.3-0.3,0.5c0,0.1,0,0.1,0,0.2c-1,1.4-3.5,4.1-5.8,5.2c-1,0.5-1.7,0.6-2.1,0.4c-0.2-0.1-0.3-0.3-0.3-0.4
		c1.1-0.8,2.3-2.6,2.4-2.9c0.1-0.2,0.1-0.5-0.2-0.7c-0.2-0.1-0.5-0.1-0.7,0.2c-0.5,0.9-1.7,2.4-2.4,2.7c0,0,0,0,0,0c0,0,0,0,0,0
		c0,0-0.7,0.4-1.8-0.1c-0.4-0.2-0.8-0.8-1-1.2c0.7-0.6,2.4-2.4,2.8-3.4c0.1-0.3,0-0.5-0.3-0.7c-0.2-0.1-0.5,0-0.7,0.3
		c-0.4,0.8-2.1,2.5-2.8,3.2c-0.2,0.1-1,0.3-1.6-0.4c-0.2-0.2-0.4-0.9-0.4-1.3c0.1-0.8,1.5-2.3,2.4-3c0.2-0.2,0.2-0.5,0.1-0.7
		c-0.2-0.2-0.5-0.2-0.7-0.1c-0.2,0.2-2,1.8-2.6,3.2c-0.1,0-0.1,0-0.2-0.1c-0.2-0.3-0.3-0.8-0.1-1.5c0.9-4.6,9.4-7.7,12.5-8
		c0.1,0,0.3,0,0.4,0c5.5,0,22,11.3,26.1,15.9c0.2,0.2,0.5,0.2,0.7,0c0.2-0.2,0.2-0.5,0-0.7c-2.2-2.5-8.5-7.3-14.6-11l0.2-2.8
		c0-0.3-0.2-0.5-0.5-0.5c-0.3,0-0.5,0.2-0.5,0.5l-0.2,2.3c-4.8-2.8-9.3-4.9-11.8-4.6c-0.3,0-0.6,0.1-0.9,0.2c0,0,0,0,0,0
		c-0.2-0.1-1.9-0.5-7.6,0.9c-1.3,0.3-2.5,0.2-3.3,0.2c-0.8-0.1-1.3-0.1-1.7,0.2c-0.2,0.2-0.3,0.4-0.3,0.7c0,0.5,0.2,1,0.5,1.4
		c0.6,0.6,1.6,1,2.7,1.2c-0.5,0.5-1,1-1.4,1.5c-2.3,0.6-4.5,2.3-5.8,6.5c-0.7,2.3-1.4,5.6-2,9.3c-0.8,0.4-1.6,0.8-2.4,0.8
		c-1.7,0.1-4,0.8-4.6,1c-0.9-0.3-1.8-0.6-2.8-1.1c-0.2-4.8-0.4-9.6-0.4-13.9l0.2-4.2c0-0.3-0.2-0.5-0.5-0.5c-0.3,0-0.5,0.2-0.5,0.5
		l-0.2,4c-1.9,1.1-4.2,2.6-6.5,4c-1.6,1-3.1,1.9-4.5,2.8c-2.4-1.6-3.7-2.4-4.3-2.6c-0.3-0.1-0.5,0.1-0.6,0.4
		c-0.1,0.3,0.1,0.5,0.4,0.6c0.5,0.1,2.4,1.3,4.3,2.7c3.3,2.2,7.9,5.3,12.2,7.2c0.2,0.1,0.4,0.3,0.6,0.4c0,0,0-0.1,0-0.1
		c0.9,0.4,1.8,0.7,2.6,0.9c0.1,0,0.2,0,0.3,0c0,0,2.7-0.9,4.5-1c1.9-0.2,3.7-1.4,5-2.3c0.6-0.4,1.1-0.7,1.4-0.9
		c0.2-0.1,0.2-0.1,0.6,0.2c0.2,0.1,0.2,0.3,0.2,0.4c0,1.1-2.6,3.2-4.4,4.4c-0.2,0.1-0.2,0.3-0.2,0.4c0,0.2,0.1,0.3,0.3,0.4
		c0.1,0.1,3.5,1.7,6.3,2.6c3.8,1.2,5,1.8,5.2,2.6c-0.5,0.4-4.1-0.2-7.9-1.3c-0.2-0.1-0.5,0-0.6,0.2c-0.1,0.2-0.1,0.5,0.1,0.6
		c0.1,0.1,2.1,1.8,4.1,2.7c3.6,1.6,4.1,2.3,3.9,2.8c-0.5,0.5-4.7-0.9-8.9-3.1c-0.2-0.1-0.5,0-0.6,0.1c-0.1,0.2-0.1,0.5,0,0.6
		c0.1,0.1,2.3,2.4,4,3.7c1.2,0.9,2.3,1.7,2.2,2.7c0,0,0,0,0,0c-1,0-5.1-2.5-8.5-5c-0.2-0.2-0.5-0.1-0.7,0.1c-0.2,0.2-0.2,0.5,0,0.7
		c2.1,2.3,3.8,4.7,3.8,5.2c-0.3,0.1-1.6-0.4-6.9-5.8l-0.4-0.4c-1.8-1.8-3.7-4.8-3.7-4.9c-0.1-0.1-0.2-0.2-0.3-0.2
		c-0.3-0.1-0.7-0.2-1.3-0.3C99,141.5,93.1,138.2,91.8,136.2z M152.1,128.7c0.9-0.9,1.6-1.8,2-2.4c1.4,1.1,10.1,8,10.1,8
		c1.1,0.9,3.2,2.5,5.6,4.2c0.2,1.9-0.3,3.6-1.5,5.1c-3.3,4.1-10.9,5.4-13.5,5.5c-3.2,0.2-4.9,2.3-5.8,3.7
		c-1.5-7.3-0.3-10.9,1.2-15.7c0.4-1.3,0.9-2.7,1.3-4.2C152.1,131.3,152.2,129.9,152.1,128.7z M136.7,118.7c-0.2-0.2-0.3-0.4-0.3-0.6
		c0,0,0.1,0,0.3,0c0.2,0,0.5,0,0.7,0c0.9,0.1,2.1,0.2,3.6-0.2c1.5-0.4,2.8-0.6,3.7-0.7c-1.7,0.6-3.5,1.5-5,2.6
		C138.5,119.6,137.3,119.3,136.7,118.7z M118.8,138.3c-3.7-1.8-7.6-4.4-10.6-6.4c1.3-0.8,2.7-1.7,4.2-2.6c2.1-1.3,4.2-2.6,6-3.7
		C118.5,129.6,118.6,133.9,118.8,138.3z M120.2,147.2c0.2,0,0.3,0.1,0.4,0.1c0.4,0.7,2.1,3.2,3.8,4.9l0.4,0.4
		c0.9,0.9,1.7,1.7,2.4,2.4c0,0.3-0.1,0.6-0.1,0.9c-0.7,5.5-1.3,10.2-1.8,13c-0.5,2.8-1.7,5.7-3.1,9.1c-0.1,0.1-0.1,0.3-0.2,0.4
		C121.9,175.9,120.9,162.1,120.2,147.2z M138.2,244.6c0.1,0.4,0.3,0.9,0.4,1.3c0.4,1,0.7,1.9,0.3,2.7c-0.4,0.8-1.7,1.5-4,2.1
		c-2.9,0.8-6.7,5.5-6.8,5.7c-0.1,0.1-0.1,0.2-0.1,0.4c0,0,0,0.7-1.7,2.5c-1.6,1.6-3.7,0.5-4.4,0c0-0.1,0-0.1-0.1-0.2
		c0,0-1-0.7-0.2-2.2c0.1,0,0.3,0,0.5-0.1c0.1,0,0.2,0,0.3,0c0.3,0.1,0.6,0.2,0.8,0.6c0.3,0.5,0.6,0.8,1,0.8c0,0,0.1,0,0.1,0
		c0.5,0,0.8-0.3,0.8-0.3c0.2-0.2,0.1-0.5-0.1-0.7c-0.2-0.2-0.6-0.2-0.8,0c0,0-0.2-0.1-0.3-0.3c-0.1-0.2-0.2-0.3-0.3-0.4
		c0.3-0.1,0.6-0.3,1-0.6c0.2-0.2,0.2-0.5,0-0.7c-0.2-0.2-0.5-0.2-0.7,0c-0.6,0.5-1.1,0.6-1.5,0.7c-0.5-0.1-0.9-0.1-0.9-0.1
		c-0.2,0-0.3,0.1-0.4,0.3c-0.2,0.1-0.4,0.2-0.5,0.4c-0.6,1.1-0.5,2-0.2,2.6c-1.9-0.2-2.3-1.6-2.3-1.7c0,0,0,0,0-0.1
		c-0.1-0.5-0.2-1.1,0-1.3c0,0,0,0,0.1,0c2,0,2.8-1.4,3-2.1c0.1-0.3-0.1-0.5-0.4-0.6c-0.3-0.1-0.5,0.1-0.6,0.4c0,0.1-0.4,1.3-2,1.3
		c-0.5,0-0.8,0.2-0.9,0.4c-0.3,0.4-0.3,0.9-0.3,1.3c-1.1-0.4-1.3-1.4-1.3-1.6c0,0,0-0.1,0-0.1c0,0,0-0.1,0-0.1c0-0.2,0-0.9,0.4-1.3
		c0.2-0.1,0.4-0.2,0.7-0.2c1.8,0.2,2.6-0.8,2.6-0.9c0.2-0.2,0.1-0.5-0.1-0.7c-0.2-0.2-0.5-0.1-0.7,0.1c0,0-0.5,0.6-1.7,0.5
		c-0.7-0.1-1.2,0.2-1.5,0.4c-0.4,0.3-0.5,0.8-0.6,1.2c-0.2-0.2-0.4-0.5-0.5-0.9c-0.1-0.3-0.1-0.6,0-0.9c0,0,0,0,0.1,0
		c0.5-0.5,0.6-0.4,1-0.3c0.4,0.1,1.1,0.3,2-0.2c0.2-0.1,0.3-0.4,0.2-0.7c-0.1-0.2-0.4-0.3-0.7-0.2c-0.6,0.3-0.9,0.2-1.3,0.2
		c-0.1,0-0.2,0-0.4-0.1c0.7-0.3,2.1-0.4,3-0.4c0.1,0,0.2,0,0.3-0.1l14.2-7.5c0.2-0.1,0.3-0.3,0.3-0.5l-0.1-0.5c-2-10-5.9-30-8.6-46
		c2.9-1,6.6-1.6,10.7-0.6L138.2,244.6z M155.9,215.1c-3.7-7.5-7.5-15.2-16.5-19.2c-3-1.3-5.8-1.8-8.3-1.8c-6.4,0-11.3,3.2-13.2,4.7
		c0.4-8.2,3-14.6,5.3-20.3c1.3-3.3,2.6-6.4,3.1-9.3c0.5-2.8,1.1-7.6,1.8-13.1c0-0.1,0-0.1,0-0.2c2.3,2.1,3.6,2.9,4.3,2.9
		c0.2,0,0.4-0.1,0.6-0.2c0.2-0.1,0.3-0.3,0.4-0.7c0.1-0.7-0.6-1.9-1.5-3.1c2.5,1.7,5.4,3.3,6.4,2.9c0.3-0.1,0.5-0.3,0.5-0.6
		c0.4-1.6-1.1-2.8-2.5-3.8c-0.6-0.4-1.2-1-1.8-1.5c2.4,1.1,5.7,2.3,7,1.9c0.4-0.1,0.5-0.4,0.6-0.6c0.6-1.5-0.9-2.5-4.4-4.1
		c-0.6-0.3-1.3-0.7-1.9-1.1c2.5,0.6,5.5,1.1,6.3,0.4c0.2-0.2,0.3-0.5,0.3-0.8c-0.2-1.6-1.9-2.3-5.8-3.6c-1.9-0.6-4.2-1.6-5.4-2.2
		c1.4-1,4.1-3.1,4.1-4.7c0-0.5-0.2-0.9-0.6-1.2c-0.4-0.3-0.8-0.6-1.5-0.3c-0.4,0.2-0.9,0.5-1.6,1c-0.3,0.2-0.7,0.4-1,0.7
		c0.6-3.3,1.2-6.3,1.8-8.3c0.9-3,2.4-4.6,3.9-5.4c-0.2,0.4-0.3,0.8-0.4,1.3c-0.2,1-0.1,1.8,0.4,2.3c0.3,0.3,0.6,0.4,0.8,0.5
		c0.1,0.5,0.3,1.2,0.7,1.6c0.8,0.8,1.7,0.8,2.3,0.7c0.2,0.5,0.7,1.3,1.5,1.6c0.9,0.4,1.6,0.3,2.1,0.2c0.1,0.3,0.3,0.6,0.7,0.8
		c0.7,0.4,1.7,0.3,3.1-0.3c1.2-0.6,2.5-1.6,3.6-2.7c0,0.9-0.2,1.8-0.5,3c-0.4,1.5-0.9,2.9-1.3,4.2c-1.7,5.3-3,9.1-0.9,17.7
		c0.1,0.2,0.2,0.4,0.5,0.4h0c0.2,0,0.4-0.1,0.5-0.3c0,0,1.4-4.2,5.5-4.4c2.7-0.2,10.6-1.5,14.2-5.9c0-0.1,0.1-0.1,0.1-0.2
		c7.6,14.9,6.4,55.6,3.1,63c-2.7,6-4.1,20.5-4.4,24.2C162,227.4,159,221.4,155.9,215.1z M199.4,253.3c-0.1,0.6-1.6,1.3-2.5,1.5
		c-0.2,0.1-0.3,0.2-0.3,0.4c-0.1,0.4-0.8,1.1-2.9,0.9c-0.8-0.1-1.5-0.2-2.2-0.2c-1.5-0.2-2.6-0.3-4.4-0.3c-1.5,0-3.5,0.1-5.6,0.3
		c-3.7,0.3-9.3,0.8-9.8-0.5c-0.7-1.7,0.3-3.9,1-5.3c0.1-0.1,0.1-0.3,0-0.4c-1.9-5.2-4-11.6-6.2-18.3c0.5,0.4,1,0.8,1.6,1.1
		c0.1,0,0.2,0.1,0.3,0.1c0.1,0,0.2,0,0.2-0.1c0.2-0.1,0.3-0.2,0.3-0.4c0-0.1,0.7-9.3,2.2-16.9c2.1,13.1,4.2,26.3,5.5,33.1
		c0,0.2,0.1,0.3,0.3,0.4c0.1,0,0.1,0,0.2,0c0.1,0,4.6,0.5,9.5,2c4.8,1.5,9.3,2.6,9.4,2.6c0.1,0,0.2,0,0.4,0c0.7-0.4,2.4-1.1,3-0.5
		C199.5,253.1,199.5,253.3,199.4,253.3z"/>
	<path class="st8" d="M131.1,203.7c-0.5,0.5-1.6,0.8-2.6,0.6c-0.6-0.1-1-0.5-1.3-1c-0.1-0.3-0.4-0.4-0.6-0.3
		c-0.3,0.1-0.4,0.4-0.3,0.6c0.3,0.8,1,1.4,2,1.6c0.3,0.1,0.5,0.1,0.8,0.1c1,0,2.1-0.3,2.7-0.9c0.2-0.2,0.2-0.5,0-0.7
		C131.6,203.5,131.3,203.5,131.1,203.7z"/>
</g>
</svg>
