<?xml version="1.0" encoding="utf-8"?>
<!-- Generator: Adobe Illustrator 22.1.0, SVG Export Plug-In . SVG Version: 6.00 Build 0)  -->
<svg version="1.1" id="Слой_8" xmlns="http://www.w3.org/2000/svg" xmlns:xlink="http://www.w3.org/1999/xlink" x="0px" y="0px"
	 viewBox="0 0 512 512" style="enable-background:new 0 0 512 512;" xml:space="preserve">
<style type="text/css">
	.st0{fill:#B9D3E5;stroke:#000000;stroke-width:4;stroke-linecap:round;stroke-linejoin:round;stroke-miterlimit:10;}
	.st1{fill:#7F9DAD;stroke:#000000;stroke-width:4;stroke-linecap:round;stroke-linejoin:round;stroke-miterlimit:10;}
	.st2{fill:#FFFFFF;}
	.st3{fill:#816164;stroke:#000000;stroke-width:2.9306;stroke-linecap:round;stroke-linejoin:round;stroke-miterlimit:10;}
	.st4{fill:#FDCD95;stroke:#000000;stroke-width:3.0553;stroke-linecap:round;stroke-linejoin:round;stroke-miterlimit:10;}
	.st5{fill:none;stroke:#000000;stroke-width:3;stroke-linecap:round;stroke-linejoin:round;stroke-miterlimit:10;}
	.st6{fill:#8A242E;stroke:#000000;stroke-width:3;stroke-linecap:round;stroke-linejoin:round;stroke-miterlimit:10;}
	.st7{fill:#C9A255;stroke:#000000;stroke-width:3;stroke-linecap:round;stroke-linejoin:round;stroke-miterlimit:10;}
	.st8{fill:#DADADA;stroke:#000000;stroke-width:3;stroke-linecap:round;stroke-linejoin:round;stroke-miterlimit:10;}
	.st9{fill:#FFD46D;stroke:#000000;stroke-width:3;stroke-linecap:round;stroke-linejoin:round;stroke-miterlimit:10;}
	.st10{fill:#E5BB65;stroke:#000000;stroke-width:3;stroke-linecap:round;stroke-linejoin:round;stroke-miterlimit:10;}
	.st11{fill:#EDEDED;stroke:#000000;stroke-width:3;stroke-linecap:round;stroke-linejoin:round;stroke-miterlimit:10;}
	.st12{fill:#C6C6C6;stroke:#000000;stroke-width:3;stroke-linecap:round;stroke-linejoin:round;stroke-miterlimit:10;}
	.st13{fill:#D1E7F2;stroke:#000000;stroke-width:3;stroke-linecap:round;stroke-linejoin:round;stroke-miterlimit:10;}
	.st14{fill:#B9D3E5;stroke:#000000;stroke-width:3;stroke-linecap:round;stroke-linejoin:round;stroke-miterlimit:10;}
	.st15{fill:#E6F6FC;stroke:#000000;stroke-width:3;stroke-linecap:round;stroke-linejoin:round;stroke-miterlimit:10;}
	.st16{fill:#FFFFFF;stroke:#000000;stroke-width:3;stroke-linecap:round;stroke-linejoin:round;stroke-miterlimit:10;}
	.st17{fill:#662227;stroke:#000000;stroke-width:3.0553;stroke-linecap:round;stroke-linejoin:round;stroke-miterlimit:10;}
	.st18{fill:none;stroke:#000000;stroke-width:3.0553;stroke-linecap:round;stroke-linejoin:round;stroke-miterlimit:10;}
	.st19{fill:none;stroke:#000000;stroke-width:2;stroke-linecap:round;stroke-linejoin:round;stroke-miterlimit:10;}
	.st20{fill:#F1C465;stroke:#000000;stroke-width:2;stroke-linecap:round;stroke-linejoin:round;stroke-miterlimit:10;}
</style>
<g>
	<path class="st0" d="M140,165.3c0,70.5-25,127.8-56.2,129.9c-0.6,0-1.2,0.1-1.8,0.1c-32,0-58-58.2-58-130s26-130,58-130
		c2.9,0,5.8,0.5,8.6,1.4C118.5,46,140,100,140,165.3z"/>
	<path class="st1" d="M150.3,166.7c0,71.8-26,130-58,130c-2.9,0-5.8-0.5-8.6-1.4c31.2-2.1,56.2-59.5,56.2-129.9
		C140,100,118.5,46,90.6,36.7c0.6,0,1.2-0.1,1.8-0.1C124.4,36.7,150.3,94.9,150.3,166.7z"/>
	<polygon class="st2" points="24,159.5 133.8,100.9 118.5,58.4 29.1,106.2 	"/>
	<polygon class="st2" points="140,166.8 31,225.1 24.4,177.9 136.4,118.1 	"/>
	<polygon class="st2" points="140.1,187.8 35.3,243.8 55.4,283.7 130.2,243.7 	"/>
	<path class="st3" d="M468.4,415.9c3.3,3.4,13,27.2,8.9,96.1c-4.1,68.9-83.8,33-83.8,33s-2.7-47.9,0-59.9c2.7-12,0-34.2,0-34.2
		l51-27.4L468.4,415.9z"/>
	<path class="st4" d="M333.2,261.7L314.3,229c0,0-5.3-10.3,0-11.2c0,0-1.8-11.3,3-14c0,0-0.4-9.1,8-10.3c2.3-0.3,4.1,2,3.2,4.2
		c-0.2,0.5-0.4,1-0.7,1.6c-3.2,6.7,3.5,20.9,5.3,13.7c0.3-1.1,0.1-15.8,4.4-17.2c1.4-0.5,2.8,0.7,2.9,2.2c0,1.8-0.2,5.1-1.4,10.2
		c-2,8.3,3.2,15.5,4.3,17.2c1.2,1.7,2.1,5.8,1.5,7.8c-1.1,3.6-4.8,9.7-2.3,15.2s4.3,7.7,4.3,7.7L333.2,261.7z"/>
	<path class="st5" d="M320.7,213.3c0,0-2.5-5.5-3.3-9.5"/>
	<path class="st5" d="M317.3,222.7c0,0-2.7-2.5-3-4.8"/>
	<path class="st4" d="M404.3,196.8c0,0,2.8,27.4-3.4,42.5s0.1,10.4,0.1,10.4l24.5-7.6l9.5-4.8c0,0-10.1-48.6-2.9-61.4
		c7.2-12.8-14,17.4-14,17.4L404.3,196.8z"/>
	<path class="st6" d="M404.3,227.7c0,0-31.3-6.7-32.3,13s0,27.3,0,27.3l-29.5-19.7c0,0-7.1,14.2-14.4,8.5l40.6,49.5l-8.3,41.3
		c0,0,67.3,111.7,70,123c0,0,37.3-2.3,47-36.3L467,268c0,0,17.3-45.7-31.7-45.3C435.3,222.7,424,242,404.3,227.7z"/>
	<path class="st5" d="M436,267.7c0,0-17.3,31.7-33.7,22.9C386,281.7,372,268,372,268"/>
	<path class="st5" d="M467,268c0,0-27.7,88.8-61.5,73.8c-2.5-1.1-4.8-2.8-6.7-4.8l-14.2-14.5l-15.8-16.2"/>
	<line class="st5" x1="379.6" y1="380" x2="384.5" y2="322.5"/>
	<rect x="36.2" y="489.8" class="st7" width="386.4" height="64.6"/>
	<g>
		<path d="M105.2,320.8c0,0,11-6.2,20.7,0l-0.7,6.4l-11.2,1.1l-8.8-2.7V320.8z"/>
		<path class="st8" d="M248.4,311.5v8.3c0,0,7.5,3.5,13.5,0v-8.3l-3.3-6.3h-7.5L248.4,311.5z"/>
		<polygon class="st9" points="435.9,484 21.4,481 193.9,324.5 353.4,324 361.7,340.2 410.9,435.5 		"/>
		<polygon class="st10" points="435.9,484 435.9,498.5 21.4,498.5 21.4,481 		"/>
		<path class="st8" d="M186.1,373h-12.4c-8.7,0-15.4-6.5-14.1-13.6l3.6-19.1H195l5.1,18.3C202.1,365.9,195.3,373,186.1,373z"/>
		<path class="st11" d="M190,348.5c0,0,51.4-36.5,58.4-37c0,0,12,3.5,13.5,0s-0.5-22.9-25.5-5s-52,33.8-52,33.8L190,348.5z"/>
		<circle class="st11" cx="179.9" cy="340.3" r="20.5"/>
		<path class="st8" d="M163.7,327.3c0,0-18.3-32.2,47.9-53.1c4.7-1.5,8.7,3.7,6,7.8c-4,6.1-10.5,14-20.4,21.7
			C197.2,303.7,201.8,334.4,163.7,327.3z"/>
		<path class="st8" d="M336.6,408.8l-3.7,0l-16.1-11.2c-3.6-2.7-7.9-4.1-12.3-4.1h-69.4c-4.2,0-8.3,1.3-11.8,3.7l-13.1,10.2
			l-9.6-0.1c-8.6-0.1-12.7-10.6-6.4-16.5l42.5-39.7c1.8-1.7,4.1-2.6,6.5-2.6h65.2c3.1,0,6.1,1.5,7.8,4.1l28.3,41.3
			C348.9,400.3,344.3,408.9,336.6,408.8z"/>
		<path class="st12" d="M332.9,408.8l-122.7-1.4l13.1-10.2c3.5-2.4,7.6-3.7,11.8-3.7h69.4c4.4,0,8.8,1.4,12.3,4.1L332.9,408.8z"/>
		<path class="st13" d="M87.2,343.5l32.7-16.3c0,0,24.8,0.5,25.8,9.5s3.8,64.4,3.8,64.4l-26.5,23.4l-17.3-3.5c0,0-12.3-37.8-13-37.8
			s-3.8-30.8-3.8-30.8L87.2,343.5z"/>
		<path class="st14" d="M121.5,424.5l-28-4c-2.8-0.4-4.9-2.7-5.2-5.5l-6-62.9c0-5.6,4.5-10.1,10.1-10.1l23.4,7.5
			c3.3,1.1,5.5,4.1,5.6,7.5l1.2,66.4C122.6,424,122.1,424.5,121.5,424.5z"/>
		<line class="st5" x1="143.1" y1="339" x2="125.9" y2="350.5"/>
		<polyline class="st5" points="146.7,352 129.6,363.3 131.1,402 148.7,388.5 		"/>
		<path class="st15" d="M115.8,328.4L115.8,328.4c-1.9,0-3.4-1.6-3.4-3.4v-11c0-1.9,1.6-3.4,3.4-3.4h0c1.9,0,3.4,1.6,3.4,3.4v11
			C119.3,326.8,117.7,328.4,115.8,328.4z"/>
		<path class="st15" d="M128.6,329.2c0,6.1-5.8,11-13.1,11c-5,0-9.4-2.4-11.6-5.9c-0.9-1.5-1.5-3.3-1.5-5.1c0-2.7,1.1-5.1,3-7
			c2.5,0.8,6.2,1.4,10.2,1.4c3.9,0,7.5-0.5,10-1.3c1,1.1,1.8,2.3,2.3,3.6C128.4,327,128.6,328.1,128.6,329.2z"/>
		<path class="st16" d="M112.4,312c0,0,6.3,3.8,20.8-1.5C133.1,310.5,112.4,302.5,112.4,312z"/>
	</g>
	<path class="st17" d="M384.6,183.9c0,0-28.7,23.7-35.9,7.1c-7.2-16.6-8.9-16.6-14.3-22.3s-1.7-21.3,0.6-25
		c2.4-3.7,3.8-19.7,2.4-28.8c-0.7-4.6,3.8-13.2,11.5-17.9c7.6-4.7,8-13.8,8.2-18.8c0.3-5,6.2-26,34-20.8c0,0,13.2-17.3,47.1-4.3
		c8.6,3.3,15.8,9.6,20.1,17.8c3.8,7.3,9.1,16.2,13.8,19.8c8.6,6.7,17.1,17.7,13.1,30s-4.8,18.9-4.2,23.5c0.7,4.5,10.5,21.3-0.4,25
		s-14.9,3.7-16.7,7.8c-1.8,4.1-11.6,20.2-21.4,13c-9.8-7.2-18-3.3-18-3.3l-17.3,8.3l-15.2-6.5L384.6,183.9z"/>
	<path class="st4" d="M449.9,128.4c-1,0.7-11.8-2.3-15.8-8.8c-4-6.5-0.1-11.1-4.3-15.9s-11.7-1.5-28.6-11.4
		c-16.8-10-11.4-21.2-11.4-21.2l-0.7,5.7c0,0-1.4,11.8-10.9,17.6c-9.1,5.6-10.5,3.3-13.7,8.9l1.4-2.1c0,0,0,0,0,0
		c-5,9.8-6.8,23.6-6.1,39.2c1.6,31.8,19.8,61.6,43.4,62.1c22.1,0.6,40.9-21.1,43.8-49.3l-1.9,1c13.6-6,20.2-26.3,11.4-27.9
		c-8.8-1.6-13.4,12.7-13.4,12.7"/>
	<path class="st18" d="M381.9,175.4c0,0,16.6,15.4,24.6-3.7"/>
	<path class="st18" d="M380.2,117.5c0,0,12.5,17.5,1.6,39.7c0,0,3.9,5.6,9.6,2.9"/>
	<path class="st18" d="M395.9,116c0,0,9-3.6,20.6,2.7"/>
	<path class="st18" d="M360.4,121.5c0,0,6.5-6.8,13.9-4.1"/>
	<path class="st18" d="M389.8,71.2c-1-11.4,1.3-13.9,1.3-13.9"/>
	<path class="st18" d="M450.8,100.4c0,0-2.5-10.2-10-11.7c-7.5-1.6-16.2-5.6-17.9-10.3s-21.9-22.8-33.7-1.6"/>
	<path class="st18" d="M357.3,93.9c0,0,3.9,0.8,7.4-6.1c3.5-7,1-17.1,11.1-17.6c10-0.5,14-2.7,14-2.7"/>
	<g>
		<ellipse transform="matrix(0.9976 -6.869477e-02 6.869477e-02 0.9976 -8.6813 25.9117)" cx="372.4" cy="139.2" rx="5" ry="8.6"/>
		<circle class="st2" cx="372" cy="136.9" r="2.1"/>
		<path class="st5" d="M362.6,135c0,0,6.4-8.1,15-3.2"/>
	</g>
	<g>
		<ellipse cx="407.1" cy="136.4" rx="5" ry="8.6"/>
		<circle class="st2" cx="407.3" cy="134.1" r="2.1"/>
		<path class="st5" d="M416.5,131.6c0,0-6.9-7.6-15.2-2.2"/>
	</g>
	<path class="st19" d="M452.7,131c0,0-3.5,8-3.8,12.7"/>
	<path class="st19" d="M455.5,135.5c0,0-5.3,2.1-5.6,3"/>
	<path class="st20" d="M329.5,192.7c0,0,3.5-42.8,8.3-42.2c5.4,0.7,21.6,5.4,13.2,5.3c-6.2,0-6.2,0.8-6.2,0.8s11,5.8,7.4,5.6
		c-5.4-0.3-8.9-0.5-8.9-0.5s6,3,6.5,4.5s-6.7,0.3-7.3,1.2s6.7,3.8,6,5.3s-7.5,0.3-7.3,1.2c0.3,0.8,7.3,4.5,5.5,5.2
		c-1.8,0.7-8.4-0.1-7.2,1.2c1.2,1.3,7.1,3.7,5,4.3c-1.5,0.4-6.5-0.1-6.8,1.2c-0.7,2.9,5.8,4.7,4.7,5.5c-1.2,0.8-6.5,5.3-6.5,5.3
		s-1.8,14.9-2.7,16.3c-1.2,1.9-1.6,3.3-4.4-0.9c-4-5.8,0.6-17.5,0.6-17.5L329.5,192.7z"/>
	<path class="st19" d="M350.8,170.6c0,0,3.8,0.2,7.6-4.6"/>
	<path class="st19" d="M351.7,177.1c0,0,4.9,1,10.2-4.4"/>
	<path class="st19" d="M350.9,184.2c0,0,6,1.6,11.8-4.4"/>
</g>
</svg>
