<?xml version="1.0" encoding="utf-8"?>
<!-- Generator: Adobe Illustrator 23.1.0, SVG Export Plug-In . SVG Version: 6.00 Build 0)  -->
<svg version="1.1" xmlns="http://www.w3.org/2000/svg" xmlns:xlink="http://www.w3.org/1999/xlink" x="0px" y="0px"
	 viewBox="0 0 283.5 283.5" style="enable-background:new 0 0 283.5 283.5;" xml:space="preserve">
<style type="text/css">
	.st0{fill:#98999C;stroke:#000000;stroke-miterlimit:10;}
	.st1{fill:#E7E6E8;stroke:#000000;stroke-width:0.75;stroke-miterlimit:10;}
	.st2{fill:#C3D9F1;stroke:#000000;stroke-width:0.75;stroke-linecap:round;stroke-linejoin:round;stroke-miterlimit:10;}
	.st3{fill:#ACCFEF;stroke:#000000;stroke-linecap:round;stroke-linejoin:round;stroke-miterlimit:10;}
	.st4{stroke:#C3D9F1;stroke-width:0.2941;stroke-linecap:round;stroke-linejoin:round;stroke-miterlimit:10;}
	.st5{fill:none;stroke:#000000;stroke-linecap:round;stroke-linejoin:round;stroke-miterlimit:10;}
	.st6{fill:none;stroke:#000000;stroke-width:0.75;stroke-linecap:round;stroke-linejoin:round;stroke-miterlimit:10;}
	.st7{fill:#98999C;stroke:#000000;stroke-width:0.75;stroke-miterlimit:10;}
	.st8{fill:#626465;stroke:#000000;stroke-width:0.75;stroke-linecap:round;stroke-linejoin:round;stroke-miterlimit:10;}
	.st9{fill:#626465;stroke:#000000;stroke-linecap:round;stroke-linejoin:round;stroke-miterlimit:10;}
	.st10{fill:#98999C;stroke:#000000;stroke-width:0.7587;stroke-miterlimit:10;}
	.st11{fill:#BCBDC1;stroke:#000000;stroke-miterlimit:10;}
	.st12{fill:#E7E6E8;stroke:#000000;stroke-miterlimit:10;}
	.st13{fill:#98999C;stroke:#000000;stroke-width:0.25;stroke-miterlimit:10;}
	.st14{fill:#BD212E;}
	.st15{fill:#FCD4B6;}
	.st16{fill:#662327;}
	.st17{fill:#FFFFFF;}
	.st18{fill:#C3D9F1;}
	.st19{fill:#FFEEB6;}
</style>
<g id="Слой_1">
</g>
<g id="Слой_3">
	<circle class="st0" cx="209.6" cy="100.4" r="9.8"/>
	<circle class="st1" cx="209.6" cy="100.4" r="5.7"/>
	<circle cx="236.8" cy="116.3" r="6.1"/>
	<path class="st2" d="M219.4,118.8h-14.5c-2.3,0-4.4,1.4-5.3,3.5c-1.4,3.4-2.8,9-1.2,15.1c2.7,10.2-1.2,19.5-3.5,20.8
		c-1.6,0.9,8.8,3.4,13.5,4.7c1.4,0.4,2.9-0.1,3.8-1.2c2.4-2.9,7.4-9,5.5-18.2"/>
	<ellipse class="st3" cx="220.7" cy="132.3" rx="5.7" ry="13.5"/>
	<ellipse class="st4" cx="221.7" cy="132.3" rx="1.7" ry="4"/>
	<polyline class="st5" points="197.7,132.6 189.1,132.6 189.1,100.4 209.6,100.4 	"/>
	<polyline class="st5" points="236.8,122.4 236.8,133.2 222.3,133.2 	"/>
	<path class="st1" d="M81.2,257.3c0,0.3,0,0.5-0.1,0.8H50.7l1.7-7.3h28.3L81.2,257.3z"/>
	<polygon class="st1" points="79.2,225.1 58.5,225.1 59.8,219.4 78.8,219.4 	"/>
	<line class="st6" x1="70.1" y1="214.9" x2="67.7" y2="214.9"/>
	<polygon class="st7" points="80.8,250.8 52.5,250.8 58.5,225.1 79.2,225.1 	"/>
	<path class="st8" d="M81.2,258.1c-0.4,2.1-2.2,3.7-4.3,3.7H51.6c-0.8,0-1.4-0.7-1.3-1.5l0.5-2.2H81.2z"/>
	<path class="st9" d="M70.1,214.9h5.4c1.8,0,3.2,1.4,3.3,3.1l0.1,1.4h-19l0.5-1.9c0.3-1.5,1.7-2.6,3.2-2.6h4.2"/>
	<path class="st1" d="M72.1,197.4c0,1.5-1,2.7-2.4,3.1c-0.3,0.1-0.5,0.1-0.8,0.1c-0.3,0-0.6,0-0.8-0.1c-1.4-0.4-2.4-1.6-2.4-3.1
		c0-1.8,1.4-3.2,3.2-3.2C70.7,194.2,72.1,195.6,72.1,197.4z"/>
	<path class="st10" d="M70.1,201.5v13c0,0.4-0.4,0.8-0.8,0.8h-0.8c-0.4,0-0.8-0.4-0.8-0.8v-13c0-0.5,0.4-0.9,0.9-0.8
		c0.2,0,0.4,0,0.6,0C69.7,200.6,70.1,201,70.1,201.5z"/>
	<path class="st11" d="M102.5,179.9H75.4c-3.6,0-6.5-2.9-6.5-6.5v-27.1c0-3.6,2.9-6.5,6.5-6.5h27.1c3.6,0,6.5,2.9,6.5,6.5v27.1
		C109,177,106.1,179.9,102.5,179.9z"/>
	<path class="st12" d="M164.4,189.5h8c1.3,0,2.5-0.5,3.4-1.4c0.9-0.9,1.4-2.1,1.4-3.4c0-2.6-2.2-4.8-4.8-4.8H91.3
		c-1.3,0-2.5,0.5-3.4,1.4c-0.9,0.9-1.4,2.1-1.4,3.4c0,2.6,2.2,4.8,4.8,4.8h7.3"/>
	<path class="st0" d="M142.3,233.3l-4.4-11.7c-0.2-0.6,0.1-1.3,0.7-1.4c1-0.1,2.1-0.4,3.1-0.9c1.7-0.8,3.2-2.2,4.4-3.9l18.3-25.7
		H98.5l13.1,22.7c0,0,0,0,0,0c0.4,0.7,0.5,1.5,0.2,2.3l-6.6,19"/>
	<path class="st12" d="M141.1,242.7h-34.1c-2.6,0-4.8-2.2-4.8-4.8l0,0c0-2.6,2.2-4.8,4.8-4.8h34.1c2.6,0,4.8,2.2,4.8,4.8l0,0
		C146,240.6,143.8,242.7,141.1,242.7z"/>
	<path class="st1" d="M120.8,179.9L120.8,179.9c-1.1,0.3-2.2-0.3-2.5-1.4l-14-51.8c-0.3-1.1,0.3-2.2,1.4-2.5h0
		c1.1-0.3,2.2,0.3,2.5,1.4l14,51.8C122.5,178.5,121.9,179.6,120.8,179.9z"/>
	<path class="st13" d="M73.6,145.6L73.6,145.6c-0.6-0.6-0.6-1.6,0-2.2l0,0c0.6-0.6,1.6-0.6,2.2,0h0c0.6,0.6,0.6,1.6,0,2.2h0
		C75.2,146.2,74.2,146.2,73.6,145.6z"/>
	<path class="st0" d="M107.2,139.7h-36c-1.5,0-2.4-1.7-1.5-2.9l4.5-6.3c1-1.4,2.6-2.2,4.3-2.2h21.1c1.7,0,3.3,0.9,4.3,2.3l4.6,6.7
		C109.1,138.4,108.4,139.7,107.2,139.7z"/>
</g>
<g id="Слой_5">
	<path class="st14" d="M177.2,165.6l-17.1-9.9l-8.3-5.4l-4.5,3.8l-9.6,12.8l-4.5,6.4l-4.4,4.4l-2.3,0.9c0,0-2.8,0.8-3.6-0.9
		c-0.8-1.7-2.3-8.3-2.3-8.3l-1-15.5l-0.4-21.9l1.1-24.6l2.5-18.6c0,0,2.1-4.5,2.9-5.2c0.9-0.7,3.7-1.9,4.9-1.7
		c1.2,0.3,4.9,1.7,6.3,2.8c1.4,1.1,4.2,3.4,4.2,3.4s2.4,3.5,2.9,5.2s2.4,9.5,3.3,12.6c0.9,3.1,1.4,7.8,1.4,8.4c0,0.6,1,8.5,1,8.5
		s0.8,4.8,1.4,6.4s1.1,4,2,4.7c0.9,0.7,7.6,6.9,7.6,6.9l19.3,15c0,0,1.5,0.2,1.7,1.3s-1.4,3-1.7,4
		C179.8,162.2,177.2,165.6,177.2,165.6z"/>
	<path class="st15" d="M162.7,179.4l1.9-4.7c0,0,3.3-7.7,3.2-9.4c0-1.7-0.3-5.2-0.3-5.2l-4.9-2.8l-11-6.4l-3.3,2.3l-4.2,5.1
		l-3.5,4.3l-5,7.3l-4.3,6.3l-4.4,2.8l-0.5,0.5H162.7z"/>
	<polygon class="st15" points="196.1,171.5 189.5,170.4 181.8,167.4 177.8,165.1 182,158.4 186.9,160.3 193.8,162.9 196.1,165 
		196.9,166.9 197.8,168.2 198.2,169.3 197.2,170.4 195.5,170.6 196.2,171.1 	"/>
	<path class="st16" d="M157,50l1.1-2.4c0,0,0.4-2.2,0.3-2.4s-1.4-1.6-1.4-1.6l-2.1-1.5l-0.6-1.1l-0.1-2.7l-0.8-2.2l-3.4-1.5
		l-1.7-0.5l-1.9-1.8l-1.7-0.6l-4.1,0.1l-2.5-0.1l-3.3,0.7l-1.6,1.7l-2.4,2.7l-0.6,2.3l-0.7,1.4l-0.7,1.2l-2.4,1.6l-2.2,1.9l-1.7,2.9
		l-1,3v2l2,3.6l-0.2,2.2l-2.2,3.4l-0.7,1.8l0.5,1.8l2.8,1.7l0.7,0.7l0.1,1.5l-0.7,1.2l-0.4,1.9l0.9,1.5l1.6,1.2l2.4,0.7l1.2-0.7
		l0.4-1.7l-0.4-1.7l1.6-1.4l2-1.8l0.1-1.7l-0.8-2.5l0.5-2.1l7.5-7.9c0,0,8.3-8.1,8.1-8.3c-0.2-0.3,3.2,2.2,3.2,2.2l3.6,3.3L157,50z"
		/>
	<path class="st15" d="M138.9,85.4l0.6-3l2.2-3l2-1.7l2.4,1.4l2.2,0.6c0,0,0.7,0.7,1.4-0.3c0.7-1,2-3,2-3l0.9-1.7l-0.5-0.7l-2.1-1.1
		l-1.1-0.9h1.6c0,0,3-0.2,3.2-0.6c0.2-0.4,0.5-1.9,0.5-1.9l0-2.4l2.6-0.7l1.2-0.9c0,0-0.8-1.6-1.1-1.9s-1.3-1.8-1.4-2.7
		c-0.1-0.9-0.2-4.5,0.1-5.5s1.1-3.8,1.1-3.8s0.2-1-0.3-1.9s-6.1-10.6-6.1-10.6l-0.7,1.1l-0.9,1.2l-3.2,0.8l-4.4,1.2
		c0,0-0.6,0.6-0.6,1.1c0.1,0.5,0.6,2.3,0.6,2.3s0.4,0.8,0,1.8c-0.4,0.9-2.2,3.1-2.2,3.1l-2.4,2.1l-0.1,0.6l-1.5,0
		c0,0-2.3,0.4-2.5,0.6c-0.2,0.2-1.1,0.9-1.1,2.5c0.1,1.5-0.1,1.9,0.4,2.7c0.5,0.8,1.8,1.8,1.8,1.8l-0.8,1.3l-0.3,0.8l0.4,1.8
		l0.6,1.2l-0.1,1.7l-1.3,1.4l-2.3,1.8l0.4,1.7l-0.4,1.7l-0.6,0.7l0.1,1.7l-0.7,3.8l-0.5,0.8l2.5-0.1l3.4,1.1l2.6,1.3l1.3,1.1
		l1.1,0.9V85.4z"/>
	<polygon class="st16" points="144.7,56.2 147.6,55.5 149.7,54.3 151.7,52.8 151.3,52.3 150.5,52.3 148.8,53 146.1,54.8 	"/>
	<path class="st17" d="M152.1,57.5c-0.3-0.7-1.3-0.4-1.4,0.3c-0.1,0.5,0,1-0.2,1.5c-0.1,0.2-0.2,0.3-0.3,0.5c-0.1,0-0.3,0-0.4,0
		c0-0.1,0-0.2,0.1-0.4c0.1,0,0.2-0.1,0.3-0.1c0.3-0.1,0.5-0.4,0.4-0.7c-0.2-0.5-0.7-0.8-1.3-0.6c-0.2,0.1-0.4,0.3-0.5,0.5
		c-0.4,0.2-0.8,0.4-1.2,0.6c-0.1,0.1-0.2,0.1-0.4,0.1c-0.1,0-0.2,0-0.2,0c-0.4,0-0.7,0.2-0.8,0.5c-0.1,0.1-0.2,0.1-0.3,0.2
		c0,0,0,0,0,0c-0.2,0.1-0.2,0.3,0,0.5c0,0,0,0,0.1,0.1c0,0,0,0,0,0c0,0,0.1,0.1,0.1,0.1c1.3,0.5,3.2,0.9,4.5,0.5
		c0.2,0,0.3-0.1,0.4-0.3c0.4-0.2,0.7-0.6,0.9-1C152.2,59.1,152.4,58.2,152.1,57.5z"/>
	<path class="st18" d="M170.1,229.5l-2.2,0.2l-4.2-1.6l-3.8-2l-2.3-1.1l0.4-2.8l14.1-32.1c0,0,2.7-0.5,3.3-1
		c0.6-0.5,2.2-2.4,2.2-4.2c0-1.9-1.1-3.9-2.1-4.6c-1.4-1.1-12.3-0.9-12.3-0.9l2.4-6l2.1-6.1l0.8-4.2l-0.5-2.3l1.1,0.5l7.3,3.7
		l4.9,2.3l7.9,3.3l5.8,1l1.1-0.1l-0.6-1l2.2-0.8l0.7,0.9l0.2,6.4l-0.8,3.6l-3.5,6.7l-7.7,13.1l-8.4,15.9L170.1,229.5z"/>
	<path class="st19" d="M168.4,229.7l-0.3,3.1l-0.3,2.6l1.3,1.5l5.2,4l2.4,1.6c0,0,0.8,0.7,0.9,1.3c0.1,0.7-0.2,1.9-0.2,1.9l-1.2,0.3
		l-3.7,0.3c0,0-6.5-0.5-6.6-0.8c-0.1-0.3-4.4-2.2-4.4-2.2l-2.8-3.5l-3-5.8c0,0-0.1-2.9,0-3c0.1-0.1,2.3-4,2.3-4l0.8-1.3
		c0,0,3,1.6,3.1,1.7c0.1,0,5.8,1.8,5.8,1.8L168.4,229.7z"/>
</g>
<g id="Слой_4">
	<path class="st5" d="M151.6,130.9c0,0-2.7-11.4-2.9-15.9c-0.2-4.5-4-23.5-7.6-26.7c-4.4-3.9-12.7-10.8-17.6-1.7
		c-4.8,9.2-7.6,88.5,0.6,92.5c0,0,1.8,1.5,6.4-2.7c4.1-3.6,13.1-20.3,18.9-24.2c0.8-0.5,1.6-1.4,2.2-1.4"/>
	<path class="st5" d="M165.9,159.1c0,0-16-5.1-16.5-6.3"/>
	<path class="st5" d="M130.6,106.1c0,0,1.2,33.9,23.1,46l22.7,13.1c0.5,0.3,1.1,0.1,1.4-0.3l4.2-6.4c0.2-0.4,0.2-0.9-0.2-1.1
		c-4.1-3.1-27.2-20.3-29.2-24.1c-2.2-4.1-6.2-21.6-6.8-23"/>
	<path class="st5" d="M162.5,179.9c0,0,6.6-14.5,5.3-18.7"/>
	<path class="st5" d="M165.2,179.9c0,0,4-4.2,4.9-6.5"/>
	<path class="st5" d="M169,179.9c0,0,3.9-2.7,4.3-3.9"/>
	<path class="st5" d="M173.2,180c0,0,3.1-1.4,3.9-4.4"/>
	<path class="st5" d="M177.2,182.6c0,0,3.5-3.5,7.1-3.9"/>
	<path class="st5" d="M172.4,189.5c0,0-15.1,31.7-14.8,34.7c0.3,2.4,8.4,4.7,11.4,5.4c0.7,0.2,1.3-0.1,1.7-0.7
		c3.8-6.6,25.9-45.1,27.1-48.3c1.3-3.6,1.3-9.2,0.3-10.9"/>
	<path class="st5" d="M168.4,229.7c0,0-0.8,4.1-0.7,5.4c0.2,1.3,6.7,6,8.2,6.8c1.3,0.6,3.8,3.9-0.7,4.4c-4.1,0.4-13.3-1-15.5-4.7
		c-2.2-3.7-5.1-7.7-4.2-10.2c0.9-2.4,3-5.3,3-5.3"/>
	<path class="st5" d="M177.8,165.6c0,0,14.9,7.3,18.8,5.8c0,0-1.1-0.9-2.7-2c-1.4-0.9-5.7-3.2-7.6-3.8"/>
	<path class="st5" d="M187.2,162.5c0,0,10.2,4.4,10.9,6s-2.2,1.9-2.8,1.9"/>
	<path class="st5" d="M182.4,158.8c0,0,10,3.1,11.9,4.4c1.9,1.3,3,4.5,3,4.5"/>
	<path class="st5" d="M143.4,78.1c0,0-5.6,3.9-4.3,8.1"/>
	<path class="st5" d="M133.3,62.3c0,0-1.5,1.2-0.7,2.8c0.8,1.7,1.2,2.8,0.2,4c-1,1.2-3.8,2-3.1,3.2c0.7,1.2,0.5,4.3-2.4,3.3
		c-2.9-0.9-4.7-3.2-3.3-5.1c1.4-1.9,0.9-3.1-1.6-4.1s-2.4-3.3,0-6.1s1.2-5.7-0.4-7.1c-1.6-1.4,1.3-9,4.5-10.3c3.2-1.3,3.3-3,3.4-4.5
		c0.2-1.5,4.3-7.1,8.5-6.9c4.3,0.2,6.5-0.7,8.4,0.8c1.9,1.5,5.9,7.2,0.9,9.2c-5.1,2-7.6,0.8-7.1,3.4c0.5,2.6,1.3,2,0.1,4.5
		c-1.1,2.5-4.5,3.3-4.3,4.7"/>
	<path class="st5" d="M137.8,55.2c0,0-6-3.2-6.5,2.2s5.8,5.7,5.8,5.7"/>
	<path class="st5" d="M134.5,56.4c0,0,2.2,1.8,2.3,3.2"/>
	<line class="st5" x1="134" y1="58" x2="135.7" y2="58"/>
	<path class="st5" d="M150.2,38.8c0,0,5.7,9.6,6.4,11.2c0.7,1.6-0.8,4.8-1.2,5.8c-0.4,0.9-0.4,5.8,0.9,7.3c0.5,0.6,1,1,1.3,1.3
		c0.5,0.4,0.5,1.1,0,1.5c-0.7,0.5-1.8,1.1-3.4,1.3c0,0,0.3,3.6-0.5,4.3s-4.7,0.6-4.7,0.6c0.2,0.3,2,1.7,3.2,2
		c0.5,0.2,0.7,0.7,0.4,1.1c-0.9,1.5-2.8,4.2-2.8,4.2c-3,1.9-10.2-5.1-10.2-5.1"/>
	<path class="st5" d="M151.6,65c0,0-1.3,1.3-0.3,2.3"/>
	<path class="st6" d="M144.3,56.4c0,0,4.2-4.3,6.7-4.2C153.4,52.3,148.8,55.4,144.3,56.4z"/>
	<path class="st5" d="M145.6,60c0,0,4.6-3.7,6.4-2.8"/>
	<path class="st5" d="M156.7,50.5c0,0,3.4-5.2,0.7-6.7c-2.7-1.5-3.4-2.4-3.2-4.5c0.3-2.7-2.7-4.5-5.9-5.3"/>
	<ellipse cx="150" cy="59" rx="1.1" ry="1.8"/>
	<path class="st6" d="M148.4,34c0,0-9.4-0.5-8.4,1.5C141,37.4,148.4,34,148.4,34z"/>
	<path class="st6" d="M149.6,37.2c0,0-0.1,0-0.3,0c-1.5,0.1-8.4,0.6-8.7,2.2c-0.3,1.4,2.3,1.7,3.6,1.2
		C145.1,40.3,149.5,37.2,149.6,37.2"/>
	<path class="st5" d="M129.1,75.8c0,0,0.8,4.5-1.3,6.6"/>
</g>
</svg>
