<?xml version="1.0" encoding="utf-8"?>
<!-- Generator: Adobe Illustrator 23.1.0, SVG Export Plug-In . SVG Version: 6.00 Build 0)  -->
<svg version="1.1" id="Слой_5" xmlns="http://www.w3.org/2000/svg" xmlns:xlink="http://www.w3.org/1999/xlink" x="0px" y="0px"
	 viewBox="0 0 512 512" style="enable-background:new 0 0 512 512;" xml:space="preserve">
<style type="text/css">
	.st0{fill:#32A572;}
	.st1{fill:#FDE2C4;}
	.st2{fill:#F5C57E;}
	.st3{fill-rule:evenodd;clip-rule:evenodd;fill:none;}
	.st4{fill:#FFFFFF;}
	.st5{fill:#ADDBEA;}
	.st6{fill:#1D1D1B;}
	.st7{fill:#77C8DC;}
	.st8{fill:#F5C57F;}
	.st9{fill:#F5C57D;}
	.st10{fill:#8FCED9;}
	.st11{fill:#8ECDD8;}
	.st12{fill:none;stroke:#231F20;stroke-width:0.75;stroke-miterlimit:10;}
</style>
<path class="st0" d="M172.4,351.5c0,0-16-0.3-23.6-2.5c0,0,4.3-46.4,6-58.9c2.5-18.6,6-27.7,6-27.7s-3.7-4.5-11.2-10.1
	c0,0,14.7-41.3,34.3-50.6c8.6-4.1,13.2-6.8,13.2-6.8c0.4,0,20.9-1.5,31.1,34.5c4.2,14.9,5.8,60.5,5.8,60.5"/>
<path class="st1" d="M112.5,203.3c0,0,16.2,59.1,19.2,61.7c3,2.5,20.4-2.3,24.6-4C160.5,259.1,112.5,203.3,112.5,203.3z"/>
<path class="st2" d="M170.2,118c1-2.3,0.8-4.8-0.4-6.9c3.8,0.9,8.2-0.5,11.5-4c4.6-4.9,5.1-12,1.1-15.8c-4-3.9-11-3-15.6,1.9
	c-1.5,1.5-2.4,3.3-3.1,5.1c-3.7-0.9-7.5,0.8-9.1,4.3c-1.2,2.6-0.7,5.6,1,7.8c-0.1,0.2-0.3,0.5-0.4,0.8c-1.8,4,0.2,8.7,4.3,10.6
	C163.7,123.6,168.4,121.9,170.2,118z"/>
<path class="st1" d="M207.3,184.1c0.4,9.9-0.5,22.7-0.5,22.7s-6.2,4.5-9.9,5.5c-17,4.5-17.2-5.4-15.4-6.5c0,0,3-1.4,4.3-8.6
	c0.6-3.3,0.4-7.5-1.4-12.8L207.3,184.1z"/>
<path class="st3" d="M149.4,141.9c-1.9,17,5.6,33.3,27.2,43.7c23.3,11.2,51,2.5,62.2-20.4c11.2-22.8,1.6-50.8-21.5-62.3
	c-23.1-11.6-51-2.5-62.2,20.4c-1.3,2.5-2.3,5.1-3.2,7.7c-2.9-0.5-5.5,0.5-6.5,2.6C144,136.2,145.8,139.9,149.4,141.9z"/>
<path class="st1" d="M149.4,141.9c-1.9,17,5.6,33.3,27.2,43.7c23.3,11.2,51,2.5,62.2-20.4c11.2-22.8,1.6-50.8-21.5-62.3
	c-23.1-11.6-47.2-1-62.2,20.4c-1.6,2.3-2.3,5.1-3.2,7.7c-2.9-0.5-5.5,0.5-6.5,2.6C144,136.2,145.8,139.9,149.4,141.9z"/>
<path class="st4" d="M169.4,133c0.1-1.3,0.5-2.8,1.4-4.1c2-3,5.3-4.2,7.4-2.8c2.1,1.4,2.2,5,0.2,8c-0.8,1.2-1.7,2-2.8,2.6
	c-0.9-0.7-2-1.4-3.1-2.1C171.4,133.9,170.4,133.4,169.4,133z"/>
<g>
	<path d="M171.3,146.7c-3.1-0.9-8,1.3-10.2,5.8c-0.3,0.5-0.5,1.1-0.6,1.7c-0.1,0-0.3,0.1-0.4,0.2c0,0.1-4.4,5.3-9,2.4
		c-0.3-0.2-0.8-0.1-1,0.2c-0.2,0.4-0.1,0.8,0.2,1c1.2,0.8,2.5,1.1,3.7,1.1c2.4,0,4.7-1.3,6.1-2.7c-0.2,4,1.7,8.8,7.6,13
		c0.1,0.1,0.3,0.1,0.4,0.1c0.2,0,0.5-0.1,0.6-0.3c0.2-0.3,0.2-0.8-0.2-1.1c-7.3-5.2-8-11.2-6.1-15.1c1.9-4.1,6.2-5.7,8.5-5
		c0.4,0.1,0.8-0.1,0.9-0.5C171.9,147.2,171.7,146.8,171.3,146.7z"/>
	<path d="M180.5,114.8c-0.3-0.2-0.8-0.1-1,0.2c-0.2,0.3-0.1,0.8,0.2,1c7.2,4.8,5.2,9.8,5.1,10c-0.2,0.4,0,0.8,0.4,1
		c0.1,0,0.2,0.1,0.3,0.1c0.3,0,0.6-0.2,0.7-0.4C186.1,126.7,188.8,120.4,180.5,114.8z"/>
	<path d="M178.7,125.4c-2.4-1.7-6.2-0.3-8.4,3c-0.8,1.1-1.2,2.4-1.5,3.6c-0.1,0-0.3-0.1-0.4-0.1c-0.4-0.1-0.8,0.2-0.9,0.6
		c-0.1,0.4,0.2,0.8,0.6,0.9c2.1,0.5,6.4,3.9,8.3,6.2c0.1,0.2,0.4,0.3,0.6,0.3c0.2,0,0.3-0.1,0.5-0.2c0.3-0.3,0.4-0.7,0.1-1.1
		c-0.3-0.4-0.8-0.9-1.3-1.4c1.1-0.7,2.1-1.6,2.9-2.8c1.3-1.9,1.8-4.2,1.5-6.1C180.2,127.1,179.6,126.1,178.7,125.4z M177.8,133.6
		c-0.6,0.9-1.3,1.6-2.1,2.1c-0.9-0.6-1.8-1.3-2.8-1.8c-0.9-0.5-1.8-1-2.7-1.4c0.1-0.4,0.2-0.7,0.3-1.1c0.2,0.4,0.4,0.7,0.7,1
		c1.1,0.8,2.8,0.3,3.7-1.1c0.9-1.3,0.7-3-0.4-3.8c-0.3-0.2-0.6-0.3-1-0.3c1.5-1,3.2-1.3,4.3-0.5c0.6,0.4,1,1.1,1.2,2
		C179.3,130.2,178.8,132,177.8,133.6z"/>
</g>
<path class="st5" d="M108.5,138.5l-25.3,58.6c0,0,7.5,13.7,23.9,17.2l41.5-46.8C148.6,167.5,120.7,159.5,108.5,138.5z"/>
<path class="st6" d="M149.2,167.1c-0.8,0.3-1.7,0.5-2.6,0.6c0.2,0.1,0.4,0.2,0.6,0.2l-12.1,13.7c0.6,0.1,1.1,0.3,1.4,0.6l12.6-14.2
	c0.2-0.2,0.2-0.5,0.2-0.7C149.3,167.2,149.2,167.2,149.2,167.1z"/>
<path class="st7" d="M249.3,407.7c-4-3.9,9.1-9,9.1-9S253.1,411.5,249.3,407.7z"/>
<path class="st8" d="M272.9,128.9c-2.2-3-5.8-5.8-9.3-6.4c4.5-21.9-18.7-21.9-18.7-21.9s3.7-7.6,1.1-12.8
	c-5.4-10.9-15.7-14.5-26.9-11.1c-1.9-3.8-5.8-6.4-10.3-6.4c-6.4,0-11.6,5.2-11.6,11.7c0,5.8,4.1,10.5,9.5,11.5
	c0.4,1.6,0.9,3.2,1.3,4.8c0.7,2.9,0.6,6.4-1.5,8.5c-3.2,3-7.8,1.2-11.2,4.3c-2.2,2-3.7,4.9-4.2,7.9c-0.5,2.9-0.1,6.1,1.7,8.4
	c0.7,0.9,7.2,5.4,8.1,3.5c-1.2,2.3-1.1,5.1-0.1,7.5c0.9,2.4,2.6,4.5,4.4,6.3c0.8,0.9,1.7,1.7,2.7,2.3c4.7,2.6,6.9-1.3,11.4-1
	c3.1,0.2,6,3.3,5.4,6.6c-0.5,3-4,4.7-5.9,6.6c-1.4,1.3-2.1,3.1-2.7,4.9c-0.5,1.7-0.9,3.5-0.4,5.1c0.5,1.7,2.4,3,4,2.4
	c-4.2,0.9-7.1,5.7-6,9.9c1.1,4.2,6,6.9,10.1,5.5c0.6-0.2,1.3-0.5,2-0.4c0.5,0.1,0.9,0.4,1.3,0.7c6.4,4.8,14.7-2.3,15.7-9
	c3,0.6,6,1.2,9.1,1.4c0.2,0,0.3,0,0.5,0c3.9,0.1,8.3-1.1,10.1-4.6c0.6-1.2,0.8-2.7,0.9-4c0-2-0.7-4.5-2.6-4.9
	c8.9,2,10.4-14.9,1.4-17C274.1,147,277.2,134.8,272.9,128.9z"/>
<path class="st2" d="M210.5,106.1c-0.5,0.1-1.1,0.1-1.7,0.1c-1.1,5.7-5.7,9.7-10.5,8.9c-3.4-0.6-6.4-3.1-7.5-6.6
	c-3.3,3.3-7.9,4.3-11.3,2.1c-3.5-2.3-5.4-6.8-4-11.2c-5-1.9-8.2-6.5-7-10.9c1.1-3.9,4.7-6.9,9.1-6.8c0.6-4.8,4.4-9,9.7-10.1
	c6.6-1.3,13.8,2.4,16.2,8.1c0.8,1.9,1.2,3.5,1.5,5c0,0,0.1,0,0.1,0c5.4-1.1,11.3,1.7,12.5,7.6C218.9,98.3,216,105,210.5,106.1z"/>
<g>
	<polyline class="st1" points="357.4,474 372.5,414.2 349.8,411.5 344.6,456.4 342.4,474.2 	"/>
	<path class="st0" d="M353.2,474.2l2.4-56.5c0,0-9-1.9-14.9-5.3c0,0,1.7-44,23.9-58.9c7.9-5.3,13.2-6.7,13.2-6.7
		c-1.2,0.6,31.3-2.8,42.8,36.9c9.5,32.9,7.9,78.5,7.1,91.2"/>
	<path class="st1" d="M372.9,334.3c2,6,4.4,12,5.8,15.5c1,2.4,1,5.1,0,7.6c-0.8,2.1-2.2,4.4-4.4,5.6c-6.1,3.5-9.7,2-11.9-0.1
		c-0.8-0.7-1-1.8-0.9-2.9c0.1-0.7,0-2-0.3-4.2c-0.5-3.2-4.8-7.6-7.8-12.1L372.9,334.3z"/>
	<path class="st9" d="M299.1,310.7c-0.9-2.3-2.8-3.9-5-4.6c3.2-2.1,5.3-6.3,5.2-11.1c-0.2-6.7-4.7-12-10.1-11.9
		c-5.4,0.2-9.6,5.7-9.4,12.5c0.1,2.1,0.6,4.1,1.4,5.8c-3.1,2-4.6,6-3.3,9.5c1,2.7,3.4,4.4,6.1,4.8c0.1,0.3,0.1,0.6,0.2,0.8
		c1.5,4,6.1,6,10.2,4.4C298.5,319.3,300.6,314.7,299.1,310.7z"/>
	<path class="st1" d="M381.2,294.9c-7.9-24.1-33.7-36.8-57.6-28.4c-23.9,8.4-33.2,33.1-28.9,58.9c0.5,2.8,1.9,5.3,3.1,7.7
		c-2.3,1.7-3.5,4.3-2.8,6.5c0.9,2.9,4.7,4.2,8.5,3c1.3,1.7,2.8,3.3,4.3,4.8c-1.7,3.5-5.9,4.5-4.7,5.7c1.9,1.9,9.7,1.1,9.7,1.1
		s2.2,9.4,4.8,7.6c1.5-1.1,1.1-3.8,3.1-6.4c8.7,3.1,19.2,3,31.5-1.6C376,345,389.1,319,381.2,294.9z"/>
	<polyline class="st1" points="404.1,474.6 411.7,452.8 415.2,417.2 399.2,415.3 397.2,451.7 390.3,474.6 	"/>
	<path class="st3" d="M303.6,342.6c10.3,13.3,26.7,19.4,48.7,11.2c23.7-8.8,36.8-34.8,28.9-58.9c-7.9-24.1-33.7-36.8-57.6-28.4
		c-23.9,8.4-36.8,34.8-28.9,58.9c0.9,2.7,1.9,5.3,3.1,7.7c-2.3,1.7-3.5,4.3-2.8,6.5C296,342.5,299.7,343.8,303.6,342.6z"/>
	<path class="st8" d="M399.7,305.1c1.9-2.9,2.8-6.5,2.2-9.9c-0.5-2.6-2-5.3-4.5-6.1c-0.6-0.2-1.3-0.4-1.4-1
		c-0.1-0.3,0.1-0.6,0.2-0.9c2.5-5.6,0-14.7-7.2-14.9c4.6-7-1.5-20.7-9.4-22.5c-3.5-0.8-7.6-1-10.6,0.9c-11.1-19.9-24.5-4.7-24.5-4.7
		s-2.9-7.2-8.2-9.4c-12.8-5.4-29.8,3.9-35.1,17.7c-1.6,4.3-4.7,11.8-1.9,15.5c1.9,2.4,11.4-1.6,13.8,0.2c2.4,1.8,4.7,4.5,4.5,7.5
		c-0.3,4.5-4.9,6.3-5.2,11c-0.2,3.1,0.6,6.3,2.1,9c1.5,2.6,3.9,4.8,6.8,5.3c1.2,0.2,8.7-0.8,8.2-2.9c0.6,2.6,2.6,4.7,4.9,5.9
		c2.3,1.2,4.8,1.6,7.3,1.9c1.1,0.1,2.3,0.2,3.4-0.1c5.1-1.2,5-4.9,7.6-8.5c2.3-3.3,6.5-4.3,8.2-1.4c1.6,2.6,0.6,9.1,0,11.8
		c-2.3,10.5,8,10.5,8.8,9c-2.4,3.6-1.3,9.2,2.2,11.7c4,2.8,11.7,1.3,12.2-4.4c3.9,0.4,7.7-2.6,9.4-5.9c0.5-0.9,2-10.7,0.6-10.1
		C396.5,308.8,398.3,307.1,399.7,305.1z"/>
	<path class="st4" d="M311.8,326.2c-1.2-0.4-2.5-1.2-3.5-2.5c-2.3-2.7-2.7-6.3-0.9-7.9c1.8-1.7,5.2-0.8,7.5,1.9
		c0.9,1,1.5,2.2,1.8,3.4c-0.9,0.7-1.8,1.5-2.7,2.5C313.2,324.4,312.4,325.3,311.8,326.2z"/>
	<g>
		<path d="M337.8,345.2c-0.2-0.4-0.7-0.5-1-0.3c-7.4,4.3-14,4.9-18.4,1.7c-3.7-2.7-5.6-7.8-4.7-12.9c0.8-4.6,3.8-7.9,8-9
			c0.4-0.1,0.6-0.5,0.5-0.9c-0.1-0.4-0.5-0.6-0.9-0.5c-4.8,1.2-8.2,5-9.1,10.2c-1,5.6,1.1,11.4,5.3,14.4c1.5,1.1,4,2.3,7.6,2.3
			c3.2,0,7.3-1,12.4-3.9C337.8,346,338,345.6,337.8,345.2z"/>
		<path d="M313.4,309.8c0.1,0.2,0.4,0.3,0.6,0.3c0.2,0,0.3-0.1,0.5-0.2c0.3-0.3,0.4-0.7,0.1-1.1c0-0.1-4.4-5.3-12.8-0.2
			c-0.4,0.2-0.5,0.7-0.3,1c0.2,0.4,0.7,0.5,1,0.3C309.8,305.5,313.3,309.6,313.4,309.8z"/>
		<path d="M319.6,321.2c0.4-0.2,0.5-0.6,0.4-1c-0.2-0.4-0.6-0.5-1-0.4c-0.5,0.2-1,0.5-1.6,0.9c-0.4-1.2-1-2.4-1.9-3.5
			c-1.5-1.8-3.5-2.9-5.4-3c-1.3-0.1-2.4,0.3-3.2,1c-2.1,1.9-1.8,6,0.8,9c0.9,1,1.9,1.8,3,2.3c-0.1,0.1-0.2,0.2-0.2,0.4
			c-0.2,0.4,0,0.8,0.3,1c0.1,0.1,0.2,0.1,0.3,0.1c0.3,0,0.5-0.2,0.7-0.4C312.8,325.7,317,322.4,319.6,321.2z M307.9,316.4
			c0.6-0.5,1.3-0.7,1.9-0.7c0.1,0,0.2,0,0.2,0c1.5,0.1,3.1,1,4.4,2.5c0.7,0.8,1.2,1.7,1.5,2.6c-0.8,0.7-1.6,1.4-2.4,2.2
			c-0.2,0.2-0.3,0.4-0.5,0.6c-0.1-0.4-0.2-0.7-0.4-1c-0.7-0.8-1.9-0.9-2.7-0.2c-0.4,0.3-0.5,0.8-0.6,1.2c-0.1-0.1-0.3-0.3-0.4-0.4
			C306.8,320.9,306.4,317.7,307.9,316.4z"/>
	</g>
	<path class="st7" d="M312.8,379.3c-3.6-1.4,3.4-8.4,3.4-8.4S316.3,380.6,312.8,379.3z"/>
	<path class="st7" d="M307.2,406.9c-4.4-0.6,1.7-10.2,1.7-10.2S311.4,407.5,307.2,406.9z"/>
	<path class="st7" d="M272.8,416.1c-3.5-1.8,4.2-8,4.2-8S276.1,417.8,272.8,416.1z"/>
	<path class="st7" d="M275.9,360.4c-1.6-3.6,8.2-3.5,8.2-3.5S277.5,363.8,275.9,360.4z"/>
	<path class="st7" d="M281.3,383.6c-2.7-2.8,6.5-6.2,6.5-6.2S284,386.2,281.3,383.6z"/>
	<g>
		<path d="M312.5,364.9c-0.4-0.2-0.8-0.1-1,0.3l-26.9,47.9c-0.2,0.4-0.1,0.8,0.3,1c0.1,0.1,0.2,0.1,0.4,0.1c0.3,0,0.5-0.1,0.6-0.4
			l26.9-47.9C313,365.6,312.8,365.1,312.5,364.9z"/>
		<path d="M308.1,361.2c-0.3-0.3-0.8-0.2-1.1,0.1l-38.8,46.1c-0.3,0.3-0.2,0.8,0.1,1.1c0.1,0.1,0.3,0.2,0.5,0.2
			c0.2,0,0.4-0.1,0.6-0.3l38.8-46.1C308.5,362,308.4,361.5,308.1,361.2z"/>
		<path d="M303.4,359.5c-0.3-0.3-0.7-0.4-1-0.1l-39.2,31.7c-0.3,0.3-0.4,0.7-0.1,1.1c0.1,0.2,0.4,0.3,0.6,0.3c0.2,0,0.3-0.1,0.5-0.2
			l39.2-31.7C303.6,360.3,303.6,359.8,303.4,359.5z"/>
		<path d="M275.3,370.5c0.1,0.2,0.4,0.4,0.6,0.4c0.1,0,0.3,0,0.4-0.1l22.8-13.6c0.4-0.2,0.5-0.7,0.3-1c-0.2-0.4-0.7-0.5-1-0.3
			l-22.8,13.6C275.2,369.7,275.1,370.1,275.3,370.5z"/>
		<path d="M270.2,377.3c-0.2-0.4-0.7-0.5-1-0.2c-10.5,6.8-26.5,17.1-28.1,17.6c-0.4,0.1-0.6,0.4-0.6,0.7c0,0.4,0.3,0.8,0.7,0.8
			c1.1,0,16.2-9.7,28.8-17.9C270.3,378.1,270.4,377.6,270.2,377.3z"/>
		<path d="M316.9,370.9c0-0.3-0.2-0.6-0.5-0.7c-0.3-0.1-0.6,0-0.8,0.2c-0.9,0.9-5.1,5.3-4.6,8c0.1,0.5,0.5,1.2,1.5,1.6
			c0.3,0.1,0.6,0.2,0.9,0.2c0.4,0,0.9-0.1,1.2-0.4C316.9,378.2,316.9,372.1,316.9,370.9z M313.8,378.5c-0.2,0.1-0.4,0.2-0.7,0.1
			c-0.4-0.2-0.5-0.4-0.5-0.5c-0.2-1.1,1.3-3.3,2.8-5.2C315.2,375.3,314.7,377.9,313.8,378.5z"/>
		<path d="M309,395.9c-0.3-0.1-0.6,0.1-0.8,0.3c-0.5,0.7-4.4,7.1-3.1,10c0.2,0.5,0.8,1.2,2,1.4c0,0,0,0,0,0c0.1,0,0.3,0,0.4,0
			c0.7,0,1.3-0.3,1.8-0.8c2.1-2.3,0.5-9.5,0.3-10.3C309.5,396.2,309.3,396,309,395.9z M308.2,405.8c-0.1,0.2-0.4,0.4-0.9,0.3
			c-0.5-0.1-0.7-0.3-0.8-0.5c-0.6-1.3,0.7-4.4,2-6.8C308.9,401.5,309.1,404.8,308.2,405.8z"/>
		<path d="M276.6,407.5c-1,0.8-5.7,4.7-5.4,7.5c0.1,0.5,0.3,1.3,1.3,1.8c0.4,0.2,0.7,0.3,1.1,0.3c0.4,0,0.7-0.1,1-0.3
			c2.4-1.3,3.1-7.4,3.2-8.6c0-0.3-0.1-0.6-0.4-0.7C277.1,407.3,276.8,407.4,276.6,407.5z M273.9,415.5c-0.2,0.1-0.4,0.2-0.7,0
			c-0.4-0.2-0.5-0.4-0.5-0.6c-0.1-1.1,1.6-3.2,3.4-4.8C275.6,412.4,274.8,414.9,273.9,415.5z"/>
		<path d="M276.9,362c0.1,0,0.3,0,0.4,0c2.7,0,6.6-3.9,7.4-4.7c0.2-0.2,0.3-0.5,0.2-0.8c-0.1-0.3-0.4-0.5-0.7-0.5
			c-1.2,0-7.4,0.1-8.8,2.4c-0.3,0.5-0.5,1.2-0.1,2.2C275.6,361.4,276.2,361.9,276.9,362z M276.6,359.3c0.6-0.9,3.2-1.4,5.6-1.6
			c-1.8,1.6-4,3-5.1,2.9c-0.2,0-0.4-0.1-0.6-0.5C276.4,359.6,276.5,359.4,276.6,359.3z"/>
		<path d="M287.6,376.6c-1.1,0.4-6.9,2.7-7.4,5.4c-0.1,0.5-0.1,1.3,0.7,2.1c0.5,0.5,1,0.7,1.6,0.7c0.1,0,0.3,0,0.4,0
			c2.7-0.5,5.2-6,5.7-7.1c0.1-0.3,0.1-0.6-0.1-0.8C288.2,376.6,287.9,376.5,287.6,376.6z M282.6,383.3c-0.2,0-0.4,0-0.7-0.3
			c-0.3-0.3-0.3-0.5-0.3-0.7c0.2-1.1,2.5-2.5,4.7-3.5C285.2,380.9,283.6,383.1,282.6,383.3z"/>
		<path d="M258,398c-1,0.4-9.5,3.9-10.2,7.6c-0.1,0.7-0.1,1.7,0.9,2.7c0.6,0.6,1.3,0.9,2,0.9c0.2,0,0.4,0,0.6-0.1
			c3.7-0.8,7.2-9.1,7.6-10.1c0.1-0.3,0.1-0.6-0.2-0.8C258.6,398,258.3,397.9,258,398z M251.1,407.6c-0.3,0.1-0.7,0.1-1.3-0.4
			c-0.6-0.5-0.6-1-0.5-1.3c0.4-1.9,4.3-4.2,7.6-5.7C255.3,403.4,252.9,407.3,251.1,407.6z"/>
	</g>
	<path class="st2" d="M323.6,276.2c-0.3,0.5-0.7,0.9-1.1,1.3c3.3,5.3,2.8,11.7-1.3,14.3c-3,1.9-6.9,1.8-10.2-0.2
		c-0.1,4.9-2.7,8.9-6.8,9.4c-4.2,0.6-8.8-1.8-10.8-6.3c-5,1.9-10.6,0.4-12.8-4c-2-3.9-1.4-8.7,1.8-11.7c-3-4.3-3.2-10.3,0-14.8
		c3.9-5.6,11.8-7.5,17.6-4.5c1.9,1,3.4,2,4.7,3c0,0,0-0.1,0.1-0.1c3.2-4.6,9.5-6.4,14.5-2.4C324.2,264.1,326.8,271.6,323.6,276.2z"
		/>
	<path d="M421.2,383.5c-6.4-22.3-20.9-35.4-40.9-37.2l-2.2-0.2c-1-2.4-2.1-5.4-3.2-8.6c1.3-1.8,2.5-3.6,3.6-5.6
		c0.9-0.1,1.8-0.4,2.6-0.8c2.1-1,3.4-2.7,3.8-4.7h0.1c3.9,0,7.6-3.1,9.4-6.3c0.3-0.6,1.7-7.6,1.1-10.2c1.9-1,3.6-2.6,4.9-4.5
		c0,0,0,0,0,0c2.1-3.1,3-7,2.3-10.5c-0.5-2.6-2-5.7-5.1-6.7c-0.2-0.1-0.8-0.3-0.8-0.4c0-0.1,0.1-0.3,0.2-0.5
		c1.6-3.6,1.3-8.4-0.8-11.8c-1.4-2.2-3.4-3.7-5.8-4.1c1.6-3.3,1.5-7.8-0.3-12.3c-2.1-5.4-6-9.4-10.2-10.3c-3-0.7-7.2-1.1-10.5,0.6
		c-3.6-6.1-7.7-9.4-12.3-9.9c-5.7-0.6-10.4,3.2-12.2,4.9c-1-2.1-3.8-7-8.1-8.8c-5.6-2.4-12.4-2.1-19,0.7
		c-7.8,3.4-14.2,9.9-17.1,17.5l-0.2,0.6c-0.5,1.2-0.9,2.6-1.4,4c-6.1-2.3-13.4-0.2-17.3,5.3c-3.1,4.4-3.2,10.4-0.3,15.1
		c-2.9,3-3.6,7.7-1.7,11.8c-0.5,1.5-0.8,3.2-0.7,5c0.1,1.9,0.5,3.8,1.2,5.5c-3.1,2.3-4.4,6.5-3.1,10.1c1,2.7,3.3,4.6,6.1,5.2
		c0,0.2,0.1,0.3,0.1,0.4c0.8,2.1,2.3,3.8,4.4,4.7c1.1,0.5,2.3,0.8,3.5,0.8c0.7,0,1.4-0.1,2.1-0.3c0.1,1.2,0.3,2.3,0.5,3.5
		c0.4,2.4,1.5,4.5,2.5,6.6c0.1,0.3,0.3,0.5,0.4,0.8c-2.3,2-3.3,4.6-2.5,6.9c1,3.1,4.9,4.7,9,3.6c1.1,1.4,2.4,2.8,3.7,4.1
		c-0.8,1.3-2,2.2-3,3c-1,0.8-1.7,1.3-1.8,2.1c0,0.3,0,0.7,0.4,1.1c1.8,1.8,7.6,1.5,9.7,1.4c0.5,2,2,6.8,4.1,7.6
		c0.2,0.1,0.4,0.1,0.7,0.1c0.4,0,0.8-0.1,1.1-0.4c1-0.7,1.3-1.8,1.7-3c0.3-1,0.6-2,1.3-3.1c9.3,3.1,19.8,2.5,31.4-1.8
		c2.1-0.8,4.1-1.7,6-2.8c1,1.5,1.8,2.8,2,4c-18.8,16.8-20.6,55-20.6,56.7l0,0.5l0.4,0.2c2.5,1.4,5.5,2.6,8.1,3.4l-4.6,39.8
		l-2.2,17.7l1.5,0.2l2.2-17.7l4.6-39.6c2.2,0.7,4,1.1,4.9,1.3l-2.4,55.8l1.5,0.1l2.4-56.5c0.1-0.1,0.1-0.2,0.1-0.4l0.4-44.5
		c0-0.4-0.3-0.8-0.7-0.8c0,0,0,0,0,0c-0.4,0-0.7,0.3-0.7,0.7l-0.4,44c-2.2-0.5-8.8-2.2-13.6-4.8c0.3-4.4,2.8-38.6,19.4-54.4
		c0.1,1.3,0.1,2,0.1,2.4c-0.2,1.4,0.2,2.6,1.1,3.5c1.3,1.2,3.1,2.4,5.8,2.4c1.9,0,4.2-0.6,7-2.2c2-1.1,3.6-3.2,4.7-6
		c1-2.6,1-5.5,0-8.1c-0.2-0.5-0.4-1.1-0.7-1.7c20,1.2,34.6,14,41,36.2c2.8,9.7,4.6,20.5,5.8,31.2c-5.1,0.8-9.9,1-14.2,0.8l-10.8-1.3
		c-4.6-0.9-7.9-2-9-2.4l-0.4-43.7c0-0.4-0.3-0.7-0.7-0.7c0,0,0,0,0,0c-0.4,0-0.7,0.3-0.7,0.8l0.4,44.2c0,0.3,0.2,0.6,0.5,0.7
		c0.1,0,3,1.2,7.9,2.3l-2,35.7l-6.9,22.9l1.4,0.4l6.9-23.1l2-35.6l0.5,0.1c3.1,0.6,6.9,1.1,11,1.3l3,0.4l-3.4,34.7l-7.7,21.7
		l1.4,0.5l7.7-21.9l3.5-35.4c3.1-0.1,6.4-0.3,9.8-0.9c2.9,27.7,1.4,54.3,1.1,58.3l1.5,0.1C428.7,469.4,431.5,419,421.2,383.5z
		 M301.8,255.1l0.2-0.6c2.7-7.2,8.8-13.4,16.3-16.6c6.2-2.7,12.6-2.9,17.8-0.7c5,2.1,7.8,9,7.8,9c0.1,0.2,0.3,0.4,0.6,0.5
		c0.3,0.1,0.5,0,0.7-0.2c0.1-0.1,5.3-5.9,11.7-5.2c4.3,0.5,8.2,3.8,11.6,9.8c0.1,0.2,0.3,0.3,0.5,0.4c0.2,0.1,0.4,0,0.6-0.1
		c2.9-1.9,7-1.5,10-0.8c3.6,0.8,7.2,4.5,9.1,9.4c1.8,4.6,1.8,9.1-0.1,12c-0.1,0.2-0.2,0.5,0,0.8c0.1,0.2,0.4,0.4,0.6,0.4
		c3.1,0.1,4.9,2,5.8,3.5c1.8,3,2.1,7.2,0.7,10.4c-0.2,0.3-0.4,0.8-0.3,1.3c0.2,1,1.2,1.3,1.9,1.6c2.3,0.8,3.6,3.4,4,5.5
		c0.6,3.1-0.2,6.5-2.1,9.4c-1.3,2-3.1,3.5-5.1,4.4c0,0,0,0,0,0c-0.4,0.2-0.5,0.6-0.4,1c0.1,0.2,0.3,0.4,0.5,0.4c0.3,1.5-0.6,8.2-1,9
		c-1.7,3-5.2,5.9-8.7,5.5c-0.2,0-0.4,0-0.6,0.2c-0.2,0.1-0.3,0.3-0.3,0.5c-0.2,2.4-1.7,3.6-3,4.2c-0.3,0.2-0.7,0.2-1,0.3
		c0-0.1,0.1-0.1,0.1-0.2c-0.2,0.2-0.4,0.2-0.6,0.3c-2.2,0.6-4.7,0.3-6.4-0.9c-1.5-1-2.6-2.9-3-4.9c-0.4-2,0-4.1,0.9-5.6
		c0-0.1,0.1-0.1,0.1-0.2c0.2-0.4,0.1-0.8-0.3-1c-0.3-0.2-0.8-0.1-1,0.2c0,0,0,0,0,0.1c-0.4,0.4-2.7,0.7-4.8-0.4
		c-1.8-0.9-3.7-3.1-2.6-8c0.2-0.9,1.9-9-0.1-12.3c-0.8-1.3-2-2-3.5-2c-2.1-0.1-4.5,1.3-6,3.4c-0.8,1.1-1.3,2.3-1.8,3.3
		c-1.2,2.4-2,4.2-5.3,5c-1,0.2-2.1,0.2-3.2,0.1c-2.2-0.2-4.8-0.6-7-1.8c-2.3-1.2-4-3.2-4.5-5.4c0,0,0,0,0,0
		c-0.1-0.4-0.5-0.7-0.9-0.5c-0.4,0.1-0.6,0.5-0.5,0.9c0,0-0.1,0.1-0.1,0.2c-1.1,1.2-6.4,1.9-7.2,1.8c-3.2-0.6-5.3-3.4-6.3-4.9
		c-0.7-1.1-1.1-2.4-1.5-3.6c2.7,0.7,5.5,0.3,7.8-1.1c4.3-2.7,5.1-9.1,1.9-14.8c0.3-0.3,0.5-0.6,0.8-0.9h0c3.6-5.1,0.4-13.1-4.6-17
		c-2.4-1.9-5.2-2.6-8-2.2c-2.7,0.4-5.3,1.9-7.2,4.3c-1.2-0.9-2.6-1.8-4.1-2.6C300.8,257.6,301.3,256.2,301.8,255.1z M282.9,279.5
		c0.3-0.3,0.3-0.7,0.1-1c-2.9-4.2-2.9-9.8-0.1-13.9c3.6-5.2,11.1-7.1,16.7-4.3c1.7,0.9,3.2,1.8,4.5,2.9c0.2,0.1,0.4,0.2,0.6,0.1
		c0.2,0,0.4-0.2,0.5-0.4c1.6-2.3,4-3.8,6.6-4.2c2.4-0.4,4.8,0.3,6.9,1.9c4.5,3.6,7.4,10.6,4.3,15c-0.3,0.4-0.7,0.8-1,1.1
		c-0.3,0.2-0.3,0.6-0.1,0.9c3.1,5,2.6,10.9-1.1,13.2c-2.8,1.7-6.4,1.7-9.4-0.2c-0.2-0.1-0.5-0.2-0.8,0c-0.2,0.1-0.4,0.4-0.4,0.7
		c-0.1,4.7-2.5,8.2-6.1,8.7c-4.1,0.6-8.2-1.8-10.1-5.8c-0.1-0.3-0.4-0.4-0.7-0.4c-0.1,0-0.2,0-0.3,0.1c-4.8,1.9-9.9,0.3-11.9-3.6
		C279.3,286.6,280,282.1,282.9,279.5z M293.3,320.5c-1.6,0.5-3.3,0.4-4.9-0.3c-1.7-0.8-2.9-2.1-3.6-3.8c-0.1-0.2-0.1-0.3-0.1-0.5
		l-0.1-0.3c-0.1-0.3-0.3-0.5-0.6-0.6c-2.6-0.4-4.6-2-5.5-4.3c-1.2-3.1,0.1-6.8,3-8.6c0.3-0.2,0.4-0.6,0.3-1
		c-0.8-1.8-1.3-3.6-1.3-5.5c0-1.1,0.1-2.1,0.3-3.1c2.6,3.4,7.5,4.6,12.2,3.1c0.5,0.9,1.1,1.8,1.8,2.5
		C293,304.9,292.5,312.5,293.3,320.5z M352,353.1c-11.5,4.3-21.9,4.8-30.9,1.6c-0.3-0.1-0.6,0-0.8,0.3c-1.1,1.4-1.5,2.9-1.9,4
		c-0.3,1-0.5,1.8-1.1,2.2c-0.2,0.1-0.3,0.1-0.4,0.1c-1.2-0.5-2.6-4.5-3.3-7.2c-0.1-0.3-0.4-0.6-0.7-0.6c0,0,0,0-0.1,0
		c-2.8,0.3-7.7,0.3-9-0.9c0.2-0.2,0.7-0.6,1.1-0.9c1.2-0.9,2.7-2.1,3.7-4c0.1-0.3,0.1-0.7-0.2-0.9c-1.5-1.5-3-3-4.3-4.7
		c-0.2-0.2-0.5-0.3-0.8-0.3c-3.5,1.1-6.8,0-7.6-2.5c-0.6-1.8,0.4-4.1,2.5-5.6c0.3-0.2,0.4-0.6,0.2-0.9c-0.2-0.5-0.4-0.9-0.7-1.4
		c-1-2-2-4-2.3-6.1c-1.6-9.4-1.3-18.2,0.6-26c2,1.6,4.4,2.5,6.9,2.5c0.5,0,0.9,0,1.4-0.1c4-0.5,6.9-4.1,7.4-8.9
		c0.1,0.1,0.3,0.1,0.4,0.1c0.4,1.8,1,3.5,1.9,5c1.9,3.1,4.5,5.1,7.3,5.7c1,0.2,6.1-0.4,8.2-1.8c0.9,1.9,2.5,3.6,4.7,4.8
		c2.5,1.3,5.2,1.7,7.6,2c1.1,0.1,2.4,0.2,3.7-0.1c3.9-0.9,5.1-3.3,6.3-5.8c0.5-1,1-2,1.7-3.1c1.2-1.7,3.1-2.9,4.7-2.8
		c0.7,0,1.7,0.3,2.3,1.3c1.4,2.3,0.6,8.3-0.1,11.2c-1.5,7.2,2.5,9.5,4.4,10.1c1.2,0.4,2.5,0.6,3.7,0.4c-0.5,1.5-0.6,3.2-0.3,5
		c0.5,2.5,1.8,4.6,3.7,5.9c1.4,0.9,3.2,1.4,5,1.5c-0.7,1.3-1.5,2.5-2.4,3.7c-0.1-0.3-1.2,1.2-1.1,1.4c-3.8,5-8.5,9.3-14.2,12.5
		c0,0-0.8,0.6-2,1.1C355.4,351.8,353.2,352.7,352,353.1z M378.1,357c-1,2.5-2.4,4.3-4.1,5.3c-4.6,2.6-8.3,2.7-11,0
		c-0.5-0.5-0.8-1.3-0.7-2.2c0.1-0.9,0-2.3-0.3-4.4c-0.2-1.4-1.1-3-2.2-4.6c5.5-3.1,10.2-7.2,13.9-12c1.6,4.5,3.3,8.6,4.2,11
		C379,352.3,379,354.8,378.1,357z"/>
</g>
<path class="st10" d="M83.2,197.1l7.5-16c0,0,2.7-1.2,27.1-7.2c21.6-5.3,31.1-7.6,31.1-7.6l-41.8,48
	C107.1,214.3,90.9,211.9,83.2,197.1z"/>
<ellipse transform="matrix(0.568 -0.823 0.823 0.568 -129.0924 166.7297)" class="st11" cx="94.3" cy="206.3" rx="2.5" ry="14.4"/>
<path class="st1" d="M183,245.5l9,13.6c0,0-14.9,15.5-20.1,16.2c-5.6,0.8-20.9-17-43.3-42.7c-12.3-14.1-17-20.1-17-20.1
	s-2.1,0.6-6.1-3.7c-4-4.3-10.1-14-13.2-19.4c-1.4-2.3,0.9-4.8,2.2-3.3c5.7,6.6,8.8,8,8.8,8l-0.2,0c0,0-6.5-11.8-6.4-16.6
	c0.1-2.3,2.1-2.5,3.2-1.6s9.7,14,9.7,14s-5-15.7-6-19.6c-0.7-2.6,3.3-3.8,4.2-1.5c2.3,5.9,7.6,18.8,7.6,18.8l0.3-0.5
	c0,0-4-17.8-1.8-19c2.2-1.2,4.3,1.6,4.9,4.7c0.6,3.1,4,17.5,6.6,18.6c2.6,1.1,1.7,0.7,1.7,0.7s3.4-10.5,6.4-10.6
	c0,0,3.1-0.9,2.9,0.9s-4.4,11.8-4.6,14.4c-0.8,10.1-6.7,13.1-6.7,13.1s19.3,19.2,24.4,24.4c4.5,4.6,22.1,21.3,22.1,21.3L183,245.5z"
	/>
<path class="st0" d="M177.9,245.3c0,0,20.4,30.5,21.1,30.2c0.4-0.1,9-15.5,14.4-29.2c5.3-13.4,5.6-27-2-29.6
	C197.9,211.9,177.9,245.3,177.9,245.3z"/>
<ellipse transform="matrix(0.568 -0.823 0.823 0.568 -69.8992 172.2184)" class="st5" cx="129.1" cy="152.7" rx="4.7" ry="25"/>
<path class="st6" d="M273.5,128.4c-2.3-3.2-5.8-5.7-9-6.6c1.1-6.2,0.1-11.2-2.9-15c-4.6-5.7-12.6-6.8-15.5-7
	c0.9-2.4,2.8-8.1,0.7-12.5c-5.3-10.7-15.4-15-27.2-11.7c-2.2-3.9-6.2-6.3-10.7-6.3c-3.7,0-7,1.7-9.3,4.3c-3.4-2.5-8-3.6-12.3-2.8
	c-5.3,1-9.3,5-10.2,10.1c-4.3,0.2-8,3.1-9.2,7.3c-0.3,1-0.3,2-0.2,3c-0.5,0.4-0.9,0.8-1.4,1.3c-1.3,1.4-2.3,3-3,4.8
	c-3.9-0.6-7.7,1.3-9.3,4.9c-1.2,2.7-0.9,5.7,0.7,8.2c-0.1,0.1-0.1,0.3-0.2,0.4c-1.5,3.3-0.6,6.9,1.8,9.5c-0.6,0.8-1.3,1.6-1.9,2.5
	c-1.4,2-2.1,4.3-2.8,6.5c-0.1,0.3-0.2,0.6-0.3,0.8c-3-0.3-5.6,0.9-6.7,3.1c-1.5,3,0.3,6.9,3.9,9.1c-2,18.8,7.8,34.5,27.6,44
	c2.8,1.3,5.6,2.3,8.5,3.1c0.5,2.8,0.6,5.3,0.2,7.7c-0.3,1.6-0.7,2.8-1,3.9c-0.1,0.1-0.2,0.1-0.3,0.2c-12.6,6-23,24.5-29,37.5
	c-2-1.9-3.7-3.6-4.7-4.6c-4.5-4.6-20.3-20.3-23.8-23.8c1.8-1.3,5.6-5,6.3-13.1c0.1-1.4,1.6-5.4,2.7-8.7c1.1-3,1.8-4.9,1.9-5.7
	c0.1-0.5-0.1-0.9-0.3-1.2l11.6-13.3c0,0,0,0,0.1,0c1.4,0,1.8-0.6,2-0.9c2.4-3.5-10.9-14.1-18.2-19.1c-7.2-4.9-21.1-13.2-24-10.4
	c0,0-0.1,0.1-0.1,0.1c0,0-0.1,0.1-0.1,0.1c0,0,0,0,0,0.1c0,0,0,0,0,0.1l-25.3,58.6c0,0,0,0,0,0c0,0.1,0,0.3,0,0.4
	c-0.3,0.1-0.5,0.2-0.7,0.5c-0.7,0.9,0.2,2.4,2.6,4.8c2,2,4.9,4.2,8.2,6.4c1.8,1.2,9.7,6.4,13.2,6.4c0.6,0,1.1-0.2,1.3-0.6
	c0.1-0.1,0.1-0.3,0.2-0.5c0,0.2,0.1,0.3,0.1,0.5c0.1,0,0.1,0,0.2-0.1l1.7-1.9c0.9,0.4,1.5,0.5,1.9,0.5c0.6,0.8,2.2,2.7,5.1,6.2
	c5.1,17.9,12.8,44.2,14.9,46c0.7,0.6,2.1,0.9,3.8,0.9c5.4,0,14.4-2.4,19-3.9c1.6,1.7,3.1,3.2,4.5,4.6c-1.3,4.5-3,12.1-4.5,22.9
	c-1.7,12.4-5.9,58.5-6,58.9c0,0.4,0.2,0.7,0.5,0.8c7.6,2.2,23.1,2.5,23.8,2.5h0c0.4,0,0.7-0.3,0.7-0.7c0-0.4-0.3-0.8-0.7-0.8
	c-0.2,0-15.2-0.3-22.8-2.3c0.5-5.6,4.4-46.7,5.9-58.2c1.4-10.1,3-17.4,4.2-21.9c5.3,5.1,9.2,7.9,11.7,7.9c0.1,0,0.3,0,0.4,0
	c3.9-0.5,12.4-8.3,17.1-13c8.2,11.9,9.5,13.2,10.1,13.2c0.1,0,0.1,0,0.2-0.1c1.1-0.4,10.3-18,14.9-29.6c4.1-10.3,5-20.2,2.5-25.9
	c-1.1-2.4-2.7-4-4.9-4.7c-14.1-4.9-33.7,27.5-34.5,28.9c-0.1,0.2-0.1,0.6,0,0.8c0.6,0.8,1.1,1.6,1.6,2.4l-7.5,6.6
	c-1.1-1.1-3.9-3.7-7.3-6.9c4.5-16.5,13-34.2,13.1-34.4c0.2-0.4,0-0.8-0.4-1c-0.4-0.2-0.8,0-1,0.3c-0.1,0.2-8.4,17.5-13,33.9
	c-2.4-2.3-5-4.8-7.3-7c5.7-12.3,15.5-29.9,27.1-36.4c-0.9,1.4-1.7,1.9-1.8,1.9c-1,0.7-1.5,2.8-0.6,4.9c0.7,1.5,2.7,4.2,8.7,4.2
	c2.1,0,4.7-0.3,7.9-1.2c3.8-1,9.9-5.5,10.2-5.6c0.2-0.1,0.3-0.3,0.3-0.6c0-0.1,0.2-3.3,0.4-7.8c6.4,3.9,14.3,12.3,19.5,30.6
	c4.2,14.7,5.7,59.9,5.7,60.3c0,0.4,0.3,0.7,0.8,0.7c0.4,0,0.7-0.4,0.7-0.8c-0.1-1.9-1.6-45.8-5.8-60.7c-5.5-19.4-14-28-20.9-31.9
	c0.1-2.3,0.1-4.8,0.1-7.3c3.1-0.7,6.2-1.7,9.1-3.1c0.1,0,0.1,0.1,0.2,0.1c2.1,1.2,4.6,1.4,6.7,0.8l0.3-0.1c0.5-0.2,0.9-0.3,1.3-0.2
	c0.2,0.1,0.5,0.3,0.8,0.5l0.2,0.1c1.5,1.1,3.2,1.7,5,1.7c1.2,0,2.5-0.3,3.7-0.8c3.8-1.7,7.1-5.6,8-9.6c2.7,0.6,5.6,1.1,8.4,1.2h0.5
	c5.1,0.1,9.2-1.8,10.8-5c0.6-1.2,0.9-2.6,0.9-4.4c0-1.4-0.2-2.9-1-4.1c2.7-0.4,4.8-2.6,5.6-6.1c1-4.3-0.4-9.4-4.1-11.6
	c4.7-1.5,8.2-4.7,9.9-9.2C276.1,136.1,275.8,131.5,273.5,128.4z M135.3,180.8c-0.8-0.1-1.8,0.1-2,0.2c-3,0.1-5.8,7.5-6.8,10.3
	c-0.3-0.1-0.6-0.2-0.9-0.4c-1.7-0.7-4.6-10.5-5.9-16.7c13.8-3.4,22.3-5.4,26.4-6.4c0.2,0,0.3,0.1,0.5,0.1L135.3,180.8z M109.5,138.7
	c0.1,0,0.2-0.1,0.4-0.1c2.4,0,10.3,3.1,21.4,10.8c12.9,8.9,18.5,15.9,17.8,17c-0.2,0.3-1.9,0.6-7-1.7c-4.3-1.9-9.7-5.1-15.2-8.8
	c-11.8-8.1-17.5-14.7-17.8-16.6C109.2,139.1,109.3,138.9,109.5,138.7z M108.2,141c2.5,4.7,12,12.1,17.9,16.2c5.5,3.8,11,7,15.4,9
	c0.7,0.3,1.2,0.5,1.8,0.7c-4.7,1.1-12.5,3-24,5.8c-0.5-2.5-1.8-4.6-3.4-5.3c-0.9-0.4-1.8-0.4-2.7,0.1c-1,0.6-1.2,3.4-0.8,6.9
	c-0.6,0.2-1.2,0.3-1.8,0.5c-1-2.3-1.8-4.5-2.4-6.2c-0.6-1.6-2.3-2-3.6-1.6c-1.3,0.4-2.5,1.7-2,3.5c0.3,1.2,0.9,3.4,1.7,5.9
	c-1,0.2-1.9,0.5-2.8,0.7c-0.7-0.9-1.2-1.6-1.4-1.8c-0.9-0.7-2.1-0.8-3-0.4c-0.9,0.4-1.5,1.4-1.5,2.6c0,0.3,0,0.7,0.1,1.1
	c0,0,0,0,0,0c-2.3,0.6-3.6,1-4.4,1.3L108.2,141z M113.7,182.1c-0.7-1.8-1.6-3.8-2.4-5.8c0.4-0.1,0.9-0.2,1.4-0.3
	C113,177.9,113.3,180,113.7,182.1z M104.9,177.9c0.7,2.4,1.6,5,2.3,7.2c-1.5-2.2-3.2-4.7-4.6-6.6C103.3,178.3,104,178.1,104.9,177.9
	z M105.8,214c-1.2,0-5.6-1.7-12.3-6.2c-6.7-4.6-9.9-8-10.3-9.1h0c1.2,0,5.6,1.7,12.3,6.2C102.2,209.5,105.4,212.9,105.8,214
	L105.8,214z M107.1,213.2c-1.6-3.2-9-8.3-10.7-9.5c-3.2-2.2-6.5-4.1-9-5.2c-1.3-0.6-2.3-0.9-3.1-1.1c-0.1-0.1-0.1-0.2-0.2-0.3
	l7.2-15.4c0.5-0.2,1.7-0.6,4.8-1.4c0-0.1,0-0.3,0-0.4c0.7,3.6,3,8.5,4.6,11.7c-1.4-1.2-3.3-3-5.7-5.8c-0.7-0.8-1.8-1-2.7-0.3
	c-1.1,0.8-1.7,2.7-0.7,4.5c2.8,4.7,9.1,14.9,13.3,19.6c1.2,1.3,2.2,2.1,3.1,2.7L107.1,213.2z M132.2,264.4
	c-1.6-1.4-7.8-22.2-13.5-42c2.4,2.9,5.5,6.5,9.4,10.9l1.8,2c4.1,4.8,8,9.2,11.5,13.2c-0.3,0.2-0.5,0.5-0.4,0.9
	c0.2,0.8,0.7,3.2-0.1,4.4c-0.2,0.3-0.1,0.8,0.2,1.1c0.1,0.1,0.3,0.1,0.4,0.1c0.2,0,0.4-0.1,0.6-0.3c1-1.4,0.8-3.5,0.6-4.7
	c3.8,4.3,7.2,8.1,10.4,11.4C146.3,263.4,134.3,266.1,132.2,264.4z M178.8,245.3c2.3-3.8,20.3-32.1,32.5-27.9c1.8,0.6,3.1,2,4,4
	c2.4,5.3,1.4,14.7-2.5,24.7c-4.8,12.2-12,25.3-13.8,28.3c-2.3-2.8-18.9-27.2-18.9-27.2C179.6,246.5,179.2,245.9,178.8,245.3z
	 M162.6,248.3C162.6,248.3,162.6,248.3,162.6,248.3C162.6,248.3,162.6,248.3,162.6,248.3c4.5,4.3,8.3,7.9,8.4,8c0.3,0.3,0.7,0.3,1,0
	l7.8-6.9c3.4,5,6.1,9.1,8.4,12.4c-5.2,5-13.2,12.3-16.5,12.8c-0.1,0-0.2,0-0.3,0c-2.3,0-6.6-3.4-12.3-9.1c0-0.1-0.1-0.1-0.1-0.2
	c0,0,0,0.1,0,0.1c-7.4-7.4-17.1-18.6-28.1-31.2l-1.8-2c-12.1-13.9-17-20-17-20.1c-0.1-0.2-0.4-0.3-0.6-0.3h-0.2c0,0-1.9,0.3-5.4-3.4
	c-3.8-4.2-10-13.9-13.2-19.3c-0.6-1.1-0.2-2.1,0.3-2.5c0.4-0.2,0.6-0.1,0.7,0.1c4.4,5.1,7.3,7.2,8.4,7.9c0.1,0.2,0.3,0.3,0.5,0.3
	l0.3,0c0.4,0,0.7-0.2,0.8-0.5c0.1-0.4-0.1-0.7-0.4-0.9c0,0,0,0-0.1-0.1c-1-1.9-6.2-11.7-6.1-15.9c0-0.5,0.1-1,0.6-1.3
	c0.4-0.2,1-0.1,1.4,0.2c0.7,0.6,5.5,7.5,9.6,13.8c0.2,0.3,0.6,0.4,0.9,0.2c0.4-0.2,0.5-0.5,0.4-0.9c0-0.1-2.1-6.6-3.8-12.2
	c-0.1-0.5-0.3-1-0.4-1.4c-0.8-2.5-1.4-4.7-1.7-5.9c-0.2-0.9,0.4-1.5,1-1.7c0.5-0.2,1.4-0.2,1.8,0.7c0.6,1.6,1.5,3.7,2.4,6
	c0.2,0.5,0.4,0.9,0.6,1.4c2.2,5.6,4.7,11.3,4.7,11.4c0.1,0.2,0.4,0.4,0.6,0.5c0.3,0,0.5-0.1,0.7-0.3l0.3-0.5
	c0.1-0.2,0.2-0.4,0.1-0.6c-0.9-3.9-1.6-8.1-2.1-11.5c-0.1-0.5-0.1-1-0.1-1.5c-0.3-2.7-0.3-4.7,0.1-5.2c0.4-0.2,0.9-0.3,1.3-0.1
	c1.1,0.5,2.1,2.3,2.5,4.3c0,0,0.1,0.6,0.3,1.5c1,4.3,3.9,16.5,6.7,17.7c0.8,0.3,1.3,0.5,1.5,0.6c0,0.1,0.1,0.1,0.1,0.1
	c0.4,0.2,1,0,1.1-0.4c0.1-0.3,0.2-0.5,0-0.6c1.3-4,3.9-9.5,5.7-9.5c0.9-0.2,1.8-0.2,2,0.1c-0.1,0.7-1,3.1-1.8,5.3
	c-1.3,3.7-2.7,7.5-2.8,9.1c-0.8,9.5-6.1,12.4-6.3,12.4c-0.2,0.1-0.4,0.3-0.4,0.6c-0.1,0.2,0,0.5,0.2,0.7
	c0.2,0.2,19.3,19.3,24.4,24.4C151.2,237.4,157.3,243.3,162.6,248.3z M169.3,88.8c1-3.7,4.4-6.3,8.2-6.3h0.1c0.4,0,0.7-0.3,0.7-0.7
	c0.6-4.7,4.3-8.5,9.1-9.4c6.2-1.2,13.1,2.2,15.4,7.7c0.7,1.7,1.2,3.3,1.4,4.8c0,0.2,0.2,0.4,0.4,0.5c0.1,0.1,0.4,0.2,0.6,0.1
	c4.9-0.9,10.5,1.4,11.6,7c1,5.3-1.5,11.8-6.7,12.8c-0.5,0.1-1,0.1-1.6,0.2c-0.3,0-0.6,0.2-0.7,0.6c-1,5.3-5.3,9-9.6,8.2
	c-3.2-0.6-5.9-3-6.9-6.1c-0.1-0.3-0.3-0.5-0.5-0.5c-0.1,0-0.1,0-0.2,0c-0.2,0-0.4,0.1-0.5,0.2c-3.1,3.1-7.4,4-10.4,2
	c-1.9-1.2-3.3-3.2-3.8-5.3c0,0,0,0,0,0c-0.1-0.1-0.1-0.3-0.1-0.4c-0.3-1.5-0.3-3.1,0.2-4.6c0.1-0.4-0.1-0.8-0.4-1
	C171.1,96.9,168.2,92.7,169.3,88.8z M155.9,111.5c0.1-0.2,0.1-0.3,0.2-0.4l0.1-0.2c0.2-0.3,0.1-0.6,0-0.8c-1.6-2.1-1.9-4.8-0.9-7.1
	c1.1-2.5,3.7-4.1,6.5-4.1c0.6,0,1.2,0.1,1.8,0.2c0.4,0.1,0.7-0.1,0.9-0.5c0.6-1.8,1.6-3.5,2.9-4.9c0.2-0.2,0.4-0.4,0.7-0.6
	c0.9,2.8,3.3,5.4,6.7,6.8c-0.4,1.3-0.4,2.7-0.2,4c-6.2,3.6-12.1,8.7-17.2,15.2C155.4,117,154.8,114.1,155.9,111.5z M206.1,206.4
	c-1.2,0.9-6.3,4.4-9.4,5.2c-11.2,3-14.1-0.6-14.9-2.2c-0.7-1.5-0.2-2.8-0.1-2.9c0.1-0.1,3.3-1.7,4.7-9.2c0.4-2.3,0.4-4.8,0-7.5
	c3.8,0.9,7.7,1.4,11.5,1.4c3,0,5.9-0.3,8.8-0.9C206.6,197.6,206.2,204.7,206.1,206.4z M176.9,184.9c-19.3-9.3-28.8-24.6-26.7-42.9
	c0-0.3-0.1-0.6-0.4-0.8c-3.2-1.8-4.9-5.1-3.7-7.4c0.7-1.4,2.4-2.3,4.4-2.3c0.4,0,0.9,0,1.3,0.1c0.4,0.1,0.7-0.2,0.8-0.5
	c0.1-0.5,0.3-1,0.5-1.4c0.7-2.1,1.3-4.3,2.6-6.1c5.6-7.9,12.1-14,19.1-18.2c0.7,2.3,2.2,4.4,4.3,5.8c3.3,2.1,7.9,1.5,11.4-1.4
	c0.5,1.2,1.3,2.2,2.2,3.1c-1.2,1.8-2,3.8-2.4,5.9c-0.6,3.5,0.1,6.7,1.9,9c0.6,0.8,4.9,3.9,7.5,4.3c-0.6,2-0.4,4.3,0.4,6.6
	c1,2.7,2.9,4.8,4.5,6.6c0.8,0.8,1.7,1.8,2.9,2.4c3.1,1.8,5.3,0.9,7.3,0.1c1.4-0.5,2.7-1,4.4-0.9c1.4,0.1,2.8,0.9,3.7,2.1
	c0.9,1.1,1.2,2.4,1,3.6c-0.3,1.8-2.1,3.2-3.7,4.5c-0.7,0.6-1.4,1.1-1.9,1.7c-0.4,0.4-0.7,0.8-1,1.2c-0.1,0-0.2,0-0.3,0.1
	c-3.3,2.5-6.9,2.9-6.9,2.9c-0.4,0-0.7,0.4-0.7,0.8c0.1,0.4,0.4,0.7,0.7,0.7c0,0,0.1,0,0.1,0c0.1,0,2.7-0.3,5.7-1.9
	c-0.2,0.5-0.4,1.1-0.6,1.5c-0.5,1.6-1,3.7-0.4,5.6c0.4,1,1.1,1.9,2,2.5c-1.1,0.7-2.1,1.8-2.9,3c-1.3,2.1-1.6,4.6-1.1,6.8
	c0.4,1.6,1.4,3,2.7,4.1C203.9,191.1,189.9,191.1,176.9,184.9z M273.1,139.7c-1.8,4.6-5.8,7.8-11.1,8.8c-0.4,0.1-0.6,0.4-0.6,0.7
	c0,0.4,0.2,0.7,0.6,0.8c4.5,1,6.2,6.3,5.3,10.7c-0.7,2.9-2.7,5.7-6.3,4.9c-0.4-0.1-0.8,0.2-0.9,0.6c-0.1,0.4,0.2,0.8,0.6,0.9
	c1.5,0.3,2.1,2.3,2,4.2c0,1.5-0.3,2.7-0.8,3.7c-2,4.1-7.7,4.3-9.4,4.2H252c-3-0.1-6-0.8-9-1.4c-0.2,0-0.4,0-0.6,0.1
	c-0.1,0.1-0.3,0.3-0.3,0.5c-0.5,3.8-3.6,7.7-7.2,9.2c-1.9,0.8-4.6,1.3-7.3-0.7l-0.1-0.1c-0.4-0.3-0.8-0.6-1.4-0.8
	c-0.2,0-0.4-0.1-0.5-0.1c-0.5,0-1,0.2-1.5,0.3l-0.3,0.1c-1.8,0.6-3.8,0.3-5.6-0.7c-0.1,0-0.1-0.1-0.2-0.2c-0.1-0.2-0.2-0.3-0.3-0.5
	c-0.1,0.1-0.1,0.1-0.2,0.1c-1.4-1-2.4-2.3-2.8-3.8c-0.5-1.8-0.1-3.8,0.9-5.6c1-1.6,2.4-2.8,4.1-3.3c0.2,0,0.4-0.1,0.5-0.2
	c0.4-0.1,0.6-0.5,0.5-0.9c-0.1-0.4-0.5-0.6-0.9-0.5c-0.1,0.1-0.3,0.1-0.4,0.1c-0.4,0.1-0.9-0.1-1.1-0.2c-0.7-0.3-1.3-1-1.6-1.8
	c-0.5-1.5,0-3.3,0.4-4.7c0.5-1.4,1.2-3.3,2.5-4.6c0.5-0.5,1.1-1,1.8-1.5c1.8-1.4,3.9-3,4.3-5.4c0.3-1.7-0.2-3.4-1.3-4.8
	c-1.2-1.6-3-2.6-4.8-2.7c-2-0.2-3.6,0.5-5,1.1c-2,0.8-3.6,1.4-6.1,0c-1-0.5-1.8-1.4-2.5-2.1c-1.6-1.7-3.3-3.7-4.2-6.1
	c-1-2.4-0.9-5,0.1-6.9c0.2-0.4,0.1-0.8-0.3-1c-0.4-0.2-0.8-0.1-1,0.3c-0.1,0.1-0.1,0.1-0.3,0.1c-1.3,0-5.8-2.7-6.6-3.7
	c-2.1-2.7-1.9-6-1.6-7.8c0.3-1.8,1-3.6,2.1-5.1c1.3,0.9,2.7,1.6,4.3,1.9c0.5,0.1,1,0.1,1.5,0.1c4.4,0,8.5-3.7,9.7-9
	c0.4,0,0.8-0.1,1.2-0.2c6.1-1.2,9-8.6,7.9-14.6c-1.2-6.3-7.2-9-12.7-8.3c-0.3-1.4-0.7-2.9-1.4-4.4c-0.8-1.9-2-3.5-3.5-4.8
	c2-2.3,4.8-3.8,8.1-3.8c4.1,0,7.8,2.3,9.6,6c0.2,0.3,0.5,0.5,0.9,0.4c11.3-3.4,21,0.6,26,10.7c2.4,4.9-1.1,12.1-1.1,12.2
	c-0.1,0.2-0.1,0.5,0,0.7c0.1,0.2,0.4,0.4,0.7,0.4c0.1,0,10.3,0.1,15.5,6.5c2.9,3.5,3.7,8.4,2.4,14.5c0,0.2,0,0.4,0.1,0.6
	c0.1,0.2,0.3,0.3,0.5,0.3c3.5,0.6,7,3.5,8.8,6.1C274.3,131.9,274.5,136.1,273.1,139.7z"/>
<line class="st12" x1="20" y1="504" x2="500.5" y2="23.5"/>
</svg>
