<?xml version="1.0" encoding="utf-8"?>
<!-- Generator: Adobe Illustrator 22.1.0, SVG Export Plug-In . SVG Version: 6.00 Build 0)  -->
<svg version="1.1" id="Слой_4" xmlns="http://www.w3.org/2000/svg" xmlns:xlink="http://www.w3.org/1999/xlink" x="0px" y="0px"
	 viewBox="0 0 512 512" style="enable-background:new 0 0 512 512;" xml:space="preserve">
<style type="text/css">
	.st0{fill:#D1E7F2;stroke:#000000;stroke-width:1.5;stroke-linecap:round;stroke-linejoin:round;stroke-miterlimit:10;}
	.st1{fill:none;stroke:#000000;stroke-width:1.5;stroke-linecap:round;stroke-linejoin:round;stroke-miterlimit:10;}
	.st2{fill:#FDCD95;stroke:#000000;stroke-width:1.9846;stroke-linecap:round;stroke-linejoin:round;stroke-miterlimit:10;}
	.st3{fill:none;stroke:#000000;stroke-width:2;stroke-linecap:round;stroke-linejoin:round;stroke-miterlimit:10;}
	.st4{fill:#FBFF7E;stroke:#000000;stroke-width:1.5;stroke-linecap:round;stroke-linejoin:round;stroke-miterlimit:10;}
	.st5{fill:#C8E2E8;stroke:#000000;stroke-width:0.5283;stroke-miterlimit:10;}
	.st6{fill:#C8E2E8;stroke:#000000;stroke-width:0.6278;stroke-miterlimit:10;}
	.st7{fill:#C8E2E8;stroke:#000000;stroke-width:0.924;stroke-miterlimit:10;}
	.st8{fill:#662227;stroke:#000000;stroke-width:1.9846;stroke-linecap:round;stroke-linejoin:round;stroke-miterlimit:10;}
	.st9{fill:none;stroke:#000000;stroke-width:1.9846;stroke-linecap:round;stroke-linejoin:round;stroke-miterlimit:10;}
	.st10{fill:none;stroke:#000000;stroke-width:1.3231;stroke-linecap:round;stroke-linejoin:round;stroke-miterlimit:10;}
	.st11{fill:#FFFFFF;}
	.st12{fill:#FFAFB9;}
</style>
<path class="st0" d="M177.2,460.1c0,0-28.7-1-42.3,1.7c-10.5,2-26.2,12.5-15.2,13.5s25.8-3.2,31.8,4.7c6,7.8,21.3,6.3,34.3,1.7
	c13-4.7,14.8-1.4,16.6-0.3c2.8,1.7,14.8,5.3,15.6-4.3c0.8-9.7,10-6.8,15.7-9.5c5.8-2.7,7.3-13.7-19.1-17.2S177.2,460.1,177.2,460.1z
	"/>
<path class="st1" d="M179.6,464.8c0,0-28.2,1.7-22.8,7c5.3,5.3,15.3,1.3,21,1.6c5.7,0.3,18.8,4.8,22.3-1.1s-1.2-6.8,6.5-7.5
	s-0.4-6.4-1.9-7.1s-19,2.4-19,2.4L179.6,464.8z"/>
<path class="st0" d="M314.2,452c5,2.6,10.7,3.6,16.3,2.9c11.5-1.3,30.2-3.1,41.3-2.1c12.9,1.1,33.1,11.8,20,14.4
	c-13.1,2.6-31.6-0.6-37.8,9.6c-6.3,10.2-24.9,10.3-41.2,6.3c-16.3-4-18,0.1-20,1.7c-3.1,2.4-17.1,8.3-19.4-3.3
	c-2.2-11.6-12.9-7-20.2-9.5S242.6,456.5,274,449C293.7,444.2,307,448.3,314.2,452z"/>
<path class="st1" d="M313.6,459.3c2.9,1.8,6.3,2.7,9.8,2.7c9.3-0.1,27.6,0.4,23.3,5.7c-5.8,7.1-18.3,3.5-25.1,4.5
	c-6.8,1-22.1,8.1-27.1,1.5c-5-6.6,0.5-8.4-8.8-8.2c-9.3,0.2-0.4-7.8,1.4-8.8c1.2-0.7,12.8-0.1,19.1,0.3
	C308.8,457.1,311.3,457.9,313.6,459.3L313.6,459.3z"/>
<path d="M273.1,396c0,0,23,10.3,38.7-2.7c0.4-0.3,0.3-0.9-0.1-1.2l-8.1-5.7c-0.1-0.1-0.2-0.1-0.3-0.1c-2.1-0.3-23-3.4-24.1-3.5
	c-1.1-0.1-11.9,1.9-13.3,2.1c-0.1,0-0.2,0-0.2,0.1c-0.7,0.4-4.6,2.8-4.2,4.2C262,390.6,273.1,396,273.1,396z"/>
<path d="M161.2,412c0,0-6.6,9.6,1.3,11.7s30.5-3.6,38.4-4.6s-4.6-5.6-4.6-5.6s-28.7-1.8-29-1.9C166.9,411.6,161.2,412,161.2,412z"/>
<path class="st2" d="M200.1,406.5c5-0.8,5,24.4,0,29.2c-4.8,4.5-16,13.5-25,14.5s-8.3,3.7-7.3,4.2s-3.1,3.7,3.6,4
	c0,0-2.7,3.8,2.3,3.8c0,0-2.3,3.8,2.3,4.1c0,0-4.5,9.1,8.9,1.9c13.4-7.2,18.4-11,25.8-12c7.3-1,11.8-4.7,8.2-11.2
	c-3.7-6.5-5.7-13.3-2-23.5c3.7-10.2,7.3-21.6,7.3-22s17-4.5,18.5-6s5.8-3,5.8-3s10,3.3,9.7,9.4c-0.2,4.5,0.4,23.4,2.4,27.9
	s5.6,19.4,5.4,22.1c-0.2,2.7-2.7,15.3-2.5,17.2c0.2,2.4,2.8,11.2,10.2,3c0,0,2.3,5,5,0.5c0,0,3.6,3.4,5.4-0.8c0,0,4.9,3.4,4.3-2.1
	c0,0,6,4.2,4.3-3.7c-1.7-7.8-7.3-14.8-7.8-16c-0.5-1.2-2.2-7.7-2-10.8c0.2-3.2,3.3-7.8-3.7-15.7c0,0-7-32.3-2-45.3l-44,0.9
	c0,0-10.7,5.6-12.8,9.1c-2.2,3.5-24.2,5-24.5,5.5C195.6,392.1,200.1,406.5,200.1,406.5z"/>
<path class="st3" d="M211.3,186.8C211.3,186.8,211.3,186.8,211.3,186.8"/>
<path class="st3" d="M213.3,185.5C213.3,185.5,213.3,185.5,213.3,185.5"/>
<path class="st3" d="M198.2,208.8C198.2,208.8,198.2,208.8,198.2,208.8"/>
<path class="st3" d="M194.3,205.8C194.2,205.8,194.2,205.8,194.3,205.8"/>
<path class="st3" d="M211.3,186.8C211.3,186.8,211.3,186.8,211.3,186.8"/>
<path class="st3" d="M213.3,185.5C213.3,185.5,213.3,185.5,213.3,185.5"/>
<path class="st4" d="M185.9,261.7c-1.8,8.4-1.5,20.1-2.4,24.7c-1.5,7.3-13.2,61.9-15.1,72.5c-2.3,13-9.3,55.8-8.8,58
	s40.8,0.2,42.1,1.5c0.7,0.8-0.6,3-0.6,3s34,9.7,42.8,2c10.1-9,16-36.3,29-34.5s29.5,5.1,38.5,3c0,0,2.5,3-5.5-12.8
	s-15.3-29.8-17.5-42.5c-1.6-9.1-10.5-44-18.5-56.3c-5-7.7-7.7-14.7-9.5-19.7c-2.3-5.7-3.8-43.2-3.8-43.2V183
	c-21.5,11.3-43.5,5.3-51.8,4s-11.3,2.5-22.3,10.3c-3.6,2.5-5.8,5.1-7,7.3c-1.9,3.5-2.4,7.4,0.7,9.3c2.1,1.3,2.2,6.2,2.5,8
	c0.5,3.3,4.4,2.2,8.7,9.1C191.7,237.5,185.9,261.7,185.9,261.7"/>
<path class="st2" d="M271.1,152.8c-3.3-4-6.2-3.8-18.2-8.3s-11-20.6-11-20.6l-7,3l-4.8,4.2l-0.1-0.3l-8.1-3.9c0,0,1.5,12.9-8.3,16.9
	s-27.8,6.8-32.8,21s-6.8,29.8-8.8,35.3s-20.3,34.8-8.8,41.8s29.3,16.7,32,20c2.7,3.2,14.5,16.4,29,18.6c1,0.2,2-0.2,2.6-0.9
	c0.8-0.9,1-2.5-1.6-5c0,0,14.5,1.5,2.1-7.8c0,0,14.9-0.8-6.4-8.8c-21.3-8-5.4-13.1-3.1-14.5c4.1-2.6,7.9-9.9,0.1-9
	c-9.5,1.1-13.8,16.3-23.3,9.3c-6.7-4.9-12.2-14.4-15-19.6c-1-1.9-1.6-4-1.8-6.1c-0.2-2-0.8-4.5-2.7-4.3c-3.3,0.3-0.3-11.3,7.8-15.5
	c0,0-3.3-8,4.3-4.5c0,0,10-6.8,13.8-6.8s9.5,0.5,9.5,0.5s0.2-0.3,0.6-0.7c-3.5,4.1-3.5,16.2-3.5,16.2c-3.8,5.2-16.1-5.1-20-8.5
	c-1-0.9-2.3-1.4-3.5-1.3c-4.9,0.4,4.3,8.1,10,12.6c-2.9-1.9-6.9-4.1-11.3-5c-7.5-1.6,0.3,8.1-1.6,6.9c-1.9-1.2-5.5-1.5-1.6,3.8
	c3.9,5.3,27.5,13.1,31,13.6s15,9.3,42.5,17.8s29.7-9,30.3-29.3C284,193.5,274.4,156.8,271.1,152.8z M194.3,205.8
	c2.1,1.4,3.5,2.6,3.9,3C197.8,208.4,196.2,207.3,194.3,205.8z M211.3,186.8c0.6-0.7,1.3-1.1,2-1.2
	C212.5,185.8,211.8,186.3,211.3,186.8z M255,217c-2.2-0.6-28.7-1.5-34.4-2.9c-5.6-1.4-4.9-28.1-4.9-28.1c-0.9-0.4-1.7-0.6-2.4-0.4
	c0.7-0.2,1.6-0.1,2.4,0.4c0.5,0.3,0.1,2.1,0.6,2.9c3.1,4.8,30.2-0.4,38.7-4.5C258.3,196.6,256.9,217.5,255,217z"/>
<line class="st3" x1="200.7" y1="169" x2="201.2" y2="187"/>
<path class="st3" d="M266.6,224.3c0,0-4.9-5.5-11.5-7.3"/>
<path class="st3" d="M196.9,215.1c0,0-10.7-3.5-15-7.5"/>
<path class="st3" d="M208.5,265.7c0,0,11,7.6,16.9,8.8"/>
<path class="st3" d="M209.9,259.5c0,0,11,5.9,17.6,7.3"/>
<path class="st3" d="M206.6,332.6c0,0-6.5,25.7-6.5,32.5c0,6.8,5.4,52,1.7,56.3"/>
<path class="st3" d="M244.2,315.5c0.2,0.5,5.3,12,5.7,22c0.3,8.4,1.7,27.7,14.4,43.1c2.4,3,4.7,5.3,8,7.9"/>
<path class="st3" d="M306.8,381.5c0,0-21.9-6.9-39.4,2.6"/>
<path class="st3" d="M203.5,405.5c0,0,15.3,19.7,34.3,8.7c5.1-3,9-7.6,11.4-12.9c2.9-6.3,8.7-16.9,15.9-19.7"/>
<path class="st3" d="M161.5,405.6c0,0,14.5-8.6,40.9,7.4"/>
<path class="st3" d="M192.6,198.4c0,0,7.7,1.2,14.3,0.9"/>
<path class="st3" d="M217,200c0,0,17.8,4.5,39.7-4"/>
<line class="st3" x1="253.6" y1="166" x2="255.1" y2="184.4"/>
<path class="st5" d="M265,177.8l-2.4,6.6c-0.7,1.8,0.7,3.8,2.7,3.7l0.5,0c2-0.1,3.2-2.2,2.3-3.9L265,177.8z"/>
<path class="st5" d="M178.4,268.7l-5.4,4.4c-1.5,1.2-1.3,3.6,0.5,4.5l0.4,0.2c1.7,0.9,3.8-0.2,4-2.2L178.4,268.7z"/>
<path class="st5" d="M241.7,233.4l-2.4,6.6c-0.7,1.8,0.7,3.8,2.7,3.7l0.5,0c2-0.1,3.2-2.2,2.3-3.9L241.7,233.4z"/>
<path class="st5" d="M182.9,170.7l-2.4,6.6c-0.7,1.8,0.7,3.8,2.7,3.7l0.5,0c2-0.1,3.2-2.2,2.3-3.9L182.9,170.7z"/>
<path class="st5" d="M198,256.5l-2.4,6.6c-0.7,1.8,0.7,3.8,2.7,3.7l0.5,0c2-0.1,3.2-2.2,2.3-3.9L198,256.5z"/>
<path class="st6" d="M277.4,213.4l-4.8,9.9c-0.9,1.9,0.2,4.1,2.3,4.4l0.5,0.1c2,0.3,3.8-1.4,3.5-3.4L277.4,213.4z"/>
<path class="st6" d="M271.2,241.8l-3.8,10.3c-0.7,1.9,0.6,4,2.7,4.1l0.5,0c2.1,0.1,3.7-1.8,3.2-3.8L271.2,241.8z"/>
<path class="st7" d="M294.6,305.3l0,16.2c0,3,2.9,5.2,5.8,4.4l0.7-0.2c2.9-0.9,4.2-4.3,2.5-6.8L294.6,305.3z"/>
<path class="st7" d="M288.7,266.7l0,16.2c0,3,2.9,5.2,5.8,4.4l0.7-0.2c2.9-0.9,4.2-4.3,2.5-6.8L288.7,266.7z"/>
<path class="st7" d="M145.2,425.7l-4.7,15.5c-0.9,2.9,1.3,5.8,4.3,5.8h0.7c3,0,5.2-2.9,4.3-5.8L145.2,425.7z"/>
<path class="st7" d="M169.4,234.3l-9,13.4c-1.7,2.5-0.5,6,2.4,6.8l0.7,0.2c2.9,0.9,5.8-1.3,5.9-4.3L169.4,234.3z"/>
<path class="st7" d="M170.2,305.3l-9,13.4c-1.7,2.5-0.5,6,2.4,6.8l0.7,0.2c2.9,0.9,5.8-1.3,5.9-4.3L170.2,305.3z"/>
<path class="st8" d="M209.8,115.4c0,0-7.3-5.5-11.2-3.3c-4,2.2-6.6-4.3-7.4-6.8c-0.5-1.7-4.1-4.1-6.5-6.4c-1.6-1.5-2.6-7-2.4-9.3
	c0.3-3.7-0.4-8.9-2-11.7c-1.1-1.9-2.4-9.3,1.1-11.9c3.5-2.6,6.2-11.7,6-14.8c-0.2-3.1,2.6-9.5,10.1-9.3c4.9,0.1,13.1-6.6,14.4-10.4
	S226.8,17,234.1,29c0,0,12.5-2.4,19.4,5.7s13.7,7.5,13.7,7.5s9,2.4,6.6,12.5s1.1,13.2,3.5,14.8c2.4,1.6,5.1,8.9,3.1,13.1
	s-4.6,13.7-4.6,15.7c0,2-0.4,9.9-5.1,12.3c-4.8,2.4-8.5,5.2-10.3,7.9c-1.4,2-10.6,3.1-11.2,1.3s-7.3,2.2-7.3,2.2s-2.6,3.7-4,4.2
	c-1.3,0.4-12.3,1.1-13.5,0c-1.1-1.1-9.5-4-9.7-4.6C214.4,120.9,209.8,115.4,209.8,115.4z"/>
<path class="st2" d="M206.6,61.6c3.8-0.7,10.9-3.4,13.3-6.4c0.2-0.3,0.5-0.6,0.8-0.9c4.4-5.5,7.5-6.2,9.5-7.3
	c1.3-0.7,4.5-2.5,5.9-4.8c0.7-1.1,0-2.4,0.5-3.8l-1.1,4.6c23-4.6,10.7,22.3,17.5,24.9c6.8,2.6,9.9,8.2,9.9,8.2l-2.7,3.2
	c2-2.3,5.5-5.5,8.4-2.8c3.9,3.7,5,19.1-8.8,24.7c-3.5,18.9-14.8,32.7-28.1,32.7c-13.7,0-25.2-14.6-28.4-34.3
	c-11.1-3.1-14.7-16.2-10.1-21.7c3.8-4.6,8-1.9,10.1,0c1-6,2.7-11.6,5.1-16.3"/>
<path class="st9" d="M259.7,54.5c0,0,1-6.8-4.2-8.4c-5.3-1.5-6.6-4.3-7.1-6.2c-0.5-2-3.9-7.5-11.3-6"/>
<path class="st9" d="M208.3,75.5c0,0,6.1-3.1,13.6-2.4"/>
<path class="st9" d="M234.6,73c0,0,10.3-0.1,13.8,3.2"/>
<path class="st10" d="M223.2,77.8c0,0,3.8,13.6,1.4,21.6c-0.4,1.4,0.2,2.9,1.5,3.5c1.4,0.6,3.4,1,6.2,0"/>
<path class="st10" d="M234.6,95.7c0,0,2,2.9,1.7,5.5"/>
<circle cx="214.5" cy="88.6" r="4.2"/>
<circle class="st11" cx="214.7" cy="87.4" r="1.2"/>
<path class="st9" d="M207.7,87.4c0,0,6-5.6,12.8-0.9"/>
<circle cx="244.9" cy="87.8" r="4.2"/>
<path class="st9" d="M251.7,86.6c0,0-6-5.6-12.8-0.9"/>
<circle class="st11" cx="244.9" cy="86.8" r="1.2"/>
<path class="st10" d="M195.2,81c0,0,4.3,6,5.2,9.3"/>
<polygon points="219.7,113.7 241.5,113.1 239.2,118.3 230.1,120.6 222.8,119.6 "/>
<path class="st10" d="M194.3,86c0,0,3-1,4.2,0"/>
<path class="st10" d="M266.4,83.2c0,0-4.3,6-5.2,9.3"/>
<path class="st11" d="M219.7,113.7c0,0,8.9,5.8,21.7,0c0,0,1.4-3.1-0.2-2.6c-1.6,0.4-14.9,2.7-21.4,0.6L219.7,113.7z"/>
<path class="st12" d="M221.9,118.3c0,0,9.1-2,17.3,0c0,0-7,9.9-14.6,3.2L221.9,118.3z"/>
<path class="st10" d="M267.4,88.2c0,0-3-1-4.2,0"/>
<path class="st10" d="M241.2,111.1c-7.3,2.3-16.6,1.3-21.4,0.6c0,0.1,0,0.2,0,0.3c0,4,4.4,11.8,10.3,11.8c6.3,0,11.5-7.3,11.5-11.2
	C241.5,112,241.4,111.5,241.2,111.1z"/>
<path class="st9" d="M234.1,29c0,0,1.3,2.1,2.1,4.7c0.5,1.5,0.7,3.2,0.4,4.7"/>
<path class="st9" d="M208.8,48c0,0,4.3-6.8,9-7.6c4.7-0.8,8.6-2.4,9.4-3.7c1.4-2.3,5.3-5.9,7.4-5.6"/>
</svg>
