<?xml version="1.0" encoding="utf-8"?>
<!-- Generator: Adobe Illustrator 22.1.0, SVG Export Plug-In . SVG Version: 6.00 Build 0)  -->
<svg version="1.1" id="Слой_7" xmlns="http://www.w3.org/2000/svg" xmlns:xlink="http://www.w3.org/1999/xlink" x="0px" y="0px"
	 viewBox="0 0 512 512" style="enable-background:new 0 0 512 512;" xml:space="preserve">
<style type="text/css">
	.st0{fill:#816164;stroke:#000000;stroke-width:3;stroke-linecap:round;stroke-linejoin:round;stroke-miterlimit:10;}
	.st1{fill:#C9A255;stroke:#000000;stroke-width:3;stroke-linecap:round;stroke-linejoin:round;stroke-miterlimit:10;}
	.st2{fill:#DADADA;stroke:#000000;stroke-width:3;stroke-linecap:round;stroke-linejoin:round;stroke-miterlimit:10;}
	.st3{fill:#FFD46D;stroke:#000000;stroke-width:3;stroke-linecap:round;stroke-linejoin:round;stroke-miterlimit:10;}
	.st4{fill:#E5BB65;stroke:#000000;stroke-width:3;stroke-linecap:round;stroke-linejoin:round;stroke-miterlimit:10;}
	.st5{fill:#EDEDED;stroke:#000000;stroke-width:3;stroke-linecap:round;stroke-linejoin:round;stroke-miterlimit:10;}
	.st6{fill:#C6C6C6;stroke:#000000;stroke-width:3;stroke-linecap:round;stroke-linejoin:round;stroke-miterlimit:10;}
	.st7{fill:#D1E7F2;stroke:#000000;stroke-width:3;stroke-linecap:round;stroke-linejoin:round;stroke-miterlimit:10;}
	.st8{fill:#B9D3E5;stroke:#000000;stroke-width:3;stroke-linecap:round;stroke-linejoin:round;stroke-miterlimit:10;}
	.st9{fill:none;stroke:#000000;stroke-width:3;stroke-linecap:round;stroke-linejoin:round;stroke-miterlimit:10;}
	.st10{fill:#E6F6FC;stroke:#000000;stroke-width:3;stroke-linecap:round;stroke-linejoin:round;stroke-miterlimit:10;}
	.st11{fill:#FFFFFF;stroke:#000000;stroke-width:3;stroke-linecap:round;stroke-linejoin:round;stroke-miterlimit:10;}
	.st12{fill:#FDCD95;stroke:#000000;stroke-width:3;stroke-linecap:round;stroke-linejoin:round;stroke-miterlimit:10;}
	.st13{fill:#662227;stroke:#000000;stroke-width:3;stroke-linecap:round;stroke-linejoin:round;stroke-miterlimit:10;}
	.st14{fill:#FFFFFF;}
	.st15{fill:#FFFFFF;stroke:#000000;stroke-width:0.7589;stroke-miterlimit:10;}
	.st16{fill:none;stroke:#000000;stroke-width:3.0357;stroke-linecap:round;stroke-linejoin:round;stroke-miterlimit:10;}
	.st17{fill:#8A242E;stroke:#000000;stroke-width:3;stroke-linecap:round;stroke-linejoin:round;stroke-miterlimit:10;}
	.st18{fill:none;stroke:#315164;stroke-width:3;stroke-linecap:round;stroke-linejoin:round;stroke-miterlimit:10;}
</style>
<g>
	<path class="st0" d="M472.1,415.9c3.4,3.4,22.2,27.2,17.9,96.1s-96.4,33-96.4,33s-2.8-47.9,0-59.9c2.8-12,0-34.2,0-34.2l53.4-27.4
		L472.1,415.9z"/>
	<rect x="36.2" y="489.8" class="st1" width="386.4" height="64.6"/>
	<path d="M105.2,320.8c0,0,11-6.2,20.7,0l-0.7,6.4l-11.2,1.1l-8.8-2.7V320.8z"/>
	<path class="st2" d="M248.4,311.5v8.3c0,0,7.5,3.5,13.5,0v-8.3l-3.3-6.3h-7.5L248.4,311.5z"/>
	<polygon class="st3" points="435.9,484 21.4,481 193.9,324.5 353.4,324 361.7,340.2 410.9,435.5 	"/>
	<polygon class="st4" points="435.9,484 435.9,498.5 21.4,498.5 21.4,481 	"/>
	<path class="st2" d="M186.1,373h-12.4c-8.7,0-15.4-6.5-14.1-13.6l3.6-19.1H195l5.1,18.3C202.1,365.9,195.3,373,186.1,373z"/>
	<path class="st5" d="M190,348.5c0,0,51.4-36.5,58.4-37c0,0,12,3.5,13.5,0s-0.5-22.9-25.5-5s-52,33.8-52,33.8L190,348.5z"/>
	<circle class="st5" cx="179.9" cy="340.3" r="20.5"/>
	<path class="st2" d="M163.7,327.3c0,0-18.3-32.2,47.9-53.1c4.7-1.5,8.7,3.7,6,7.8c-4,6.1-10.5,14-20.4,21.7
		C197.2,303.7,201.8,334.4,163.7,327.3z"/>
	<path class="st2" d="M336.6,408.8l-3.7,0l-16.1-11.2c-3.6-2.7-7.9-4.1-12.3-4.1h-69.4c-4.2,0-8.3,1.3-11.8,3.7l-13.1,10.2l-9.6-0.1
		c-8.6-0.1-12.7-10.6-6.4-16.5l42.5-39.7c1.8-1.7,4.1-2.6,6.5-2.6h65.2c3.1,0,6.1,1.5,7.8,4.1l28.3,41.3
		C348.9,400.3,344.3,408.9,336.6,408.8z"/>
	<path class="st6" d="M332.9,408.8l-122.7-1.4l13.1-10.2c3.5-2.4,7.6-3.7,11.8-3.7h69.4c4.4,0,8.8,1.4,12.3,4.1L332.9,408.8z"/>
	<path class="st7" d="M87.2,343.5l32.7-16.3c0,0,24.8,0.5,25.8,9.5s3.8,64.4,3.8,64.4l-26.5,23.4l-17.3-3.5c0,0-12.3-37.8-13-37.8
		s-3.8-30.8-3.8-30.8L87.2,343.5z"/>
	<path class="st8" d="M121.5,424.5l-28-4c-2.8-0.4-4.9-2.7-5.2-5.5l-6-62.9c0-5.6,4.5-10.1,10.1-10.1l23.4,7.5
		c3.3,1.1,5.5,4.1,5.6,7.5l1.2,66.4C122.6,424,122.1,424.5,121.5,424.5z"/>
	<line class="st9" x1="143.1" y1="339" x2="125.9" y2="350.5"/>
	<polyline class="st9" points="146.7,352 129.6,363.3 131.1,402 148.7,388.5 	"/>
	<path class="st10" d="M115.8,328.4L115.8,328.4c-1.9,0-3.4-1.6-3.4-3.4v-11c0-1.9,1.6-3.4,3.4-3.4h0c1.9,0,3.4,1.6,3.4,3.4v11
		C119.3,326.8,117.7,328.4,115.8,328.4z"/>
	<path class="st10" d="M128.6,329.2c0,6.1-5.8,11-13.1,11c-5,0-9.4-2.4-11.6-5.9c-0.9-1.5-1.5-3.3-1.5-5.1c0-2.7,1.1-5.1,3-7
		c2.5,0.8,6.2,1.4,10.2,1.4c3.9,0,7.5-0.5,10-1.3c1,1.1,1.8,2.3,2.3,3.6C128.4,327,128.6,328.1,128.6,329.2z"/>
	<path class="st11" d="M112.4,312c0,0,6.3,3.8,20.8-1.5C133.1,310.5,112.4,302.5,112.4,312z"/>
	<path class="st12" d="M387.3,211.7c0,0,11.5,27.5,9.7,45.1s3.4,10.8,3.4,10.8l23-15.5l8.3-7.9c0,0-25.6-47.2-22.2-62.7
		c3.4-15.5-9.1,22.4-9.1,22.4L387.3,211.7z"/>
	<path class="st13" d="M354.8,202.6c0,0-24.7,9.7-35.6-6.5c-10.9-16.2-5.9-9.7-12.7-14.8c-6.9-5-6.9-17.2-5-21.6
		c1.8-4.4-1.8-16.3-6.1-18.8s-2.9-17.3,4.3-23.8c7.2-6.5,5.8-16.2,5-21.6c-0.7-5.4,1.4-28.8,32.1-28.8c0,0,10.6-21,49.2-13.9
		c9.8,1.8,18.7,7.1,24.9,15c5.5,7,12.9,15.4,18.6,18.4c10.5,5.4,21.6,15.5,19.8,29.4c-1.8,13.9-1.4,21.1,0.2,25.8
		c1.6,4.7,15.3,20.6,4.5,26.7c-10.8,6.1-15.1,6.9-16.2,11.5s-8.3,23.8-20.2,18c-11.9-5.8-19.8,0-19.8,0l-16.8,12.2l-17.4-4
		L354.8,202.6z"/>
	<path class="st12" d="M413.1,126.6c-0.8,1.1-13,1.3-19.1-4.1c-6.1-5.4-3.6-11.5-9.4-15.1s-12.6,2.2-33.2-2.9
		c-20.6-5-18.4-18.4-18.4-18.4l1.1,6.1c0,0,2.2,12.7-5.8,21.6c-7.7,8.7-9.9,6.7-11.4,13.5l0.8-2.6c0,0,0,0,0,0
		c-2.2,11.7,0.3,26.5,6,42.5c11.5,32.5,39.8,57.6,64.4,50.8c23.1-6.3,35.8-34.6,29.9-64.7l-1.7,1.6c12.2-10.5,12.7-33.5,3.1-32.5
		c-9.6,1.1-9.9,17.3-9.9,17.3"/>
	<path class="st9" d="M337.5,137c0,0,18.4,14.2,14.1,40.6c0,0,5.8,4.6,10.8,0"/>
	<path class="st9" d="M353.4,130.6c0,0,8.2-6.5,22.1-3.7"/>
	<path class="st9" d="M318.2,147.4c0,0,4.6-9,13.1-8.6"/>
	<path class="st9" d="M333,86.1c-4.6-11.5,3.8-19.4,3.8-19.4"/>
	<path class="st9" d="M405.3,97.3c0,0-5.8-9.7-14.1-9c-8.3,0.7-18.6-0.7-21.7-5c-3.2-4.3-29.8-16.8-35.4,8.9"/>
	<path class="st9" d="M306.5,119.7c0,0,4.3-0.4,5.8-8.7s-4.3-18,6-21.6c10.2-3.6,13.7-7.2,13.7-7.2"/>
	<ellipse transform="matrix(0.9354 -0.3537 0.3537 0.9354 -35.5388 129.3759)" cx="336.2" cy="161.9" rx="5.4" ry="9.3"/>
	<circle class="st14" cx="333.4" cy="159.7" r="2.3"/>
	<path class="st9" d="M324.8,160.6c0,0,4.1-10.4,14.5-8"/>
	<ellipse transform="matrix(0.9575 -0.2886 0.2886 0.9575 -26.9904 113.4477)" cx="371.3" cy="148.3" rx="5.4" ry="9.3"/>
	<circle class="st14" cx="369.1" cy="146" r="2.3"/>
	<path class="st9" d="M379.5,140.3c0,0-9.6-5.7-16.4,2.4"/>
	<path class="st9" d="M416.8,128.4c0,0-1.1,9.4,0,14.3"/>
	<path class="st9" d="M421.2,132.1c0,0-4.8,3.8-4.8,4.9"/>
	<g>
		<g>
			<path class="st14" d="M347.8,185.6c0,0,30.7-0.2,47.8-14.9c0,0,1.3,9-7.5,16.5c-8.8,7.6-33.8,6.2-33.8,6.2L347.8,185.6z"/>
			<path class="st15" d="M354.3,193.5c0,0,31.6,2.6,41.9-16.4c0,0,0.4,36.1-29,23.9L354.3,193.5z"/>
		</g>
		<path class="st16" d="M347.8,185.6c0,0,22.9,2.8,47.8-14.9c0,0,6.7,35.5-22.8,32.9c-0.7-0.1-1.4-0.2-2.1-0.4
			C367,202.3,356.7,198.7,347.8,185.6z"/>
	</g>
	<path class="st17" d="M390.7,224c0,0,10.3,18.7,31-5.3c0,0,33.3,24.3,54,131.7l11.4,70.4c0.9,5.3-0.2,10.9-3.2,15.4
		c-8,12.2-26.9,34.1-57.6,28.2l-22.7-44.7c0,0,4.7-10.7-10-23.3l-13.7-22c0,0-3.1-41.1-10.9-64.1c-3-8.9-13.2-13.1-21.7-9.3
		c-20.4,9.2-66.3,26.6-71.4-1.3c-0.8-4.6-0.3-9.4,1.4-13.8l14.3-38.2c0,0,16,8.7,30.7,4l-4.7,18C317.7,269.7,381,215.7,390.7,224z"
		/>
	<line class="st9" x1="309" y1="287.7" x2="317.7" y2="269.7"/>
	<path class="st9" d="M411,265c1.3,3.3,18,89.3,16,93.3s-33.3,38-33.3,38"/>
	<path class="st9" d="M442.3,281.7c0,0,20.4,78.5,10.7,91.3c-10.7,14-48.7,41.4-48.7,41.4"/>
	<path class="st12" d="M396.4,398.9c0,0-27.4-15.9-32.1-8.6c0,0-1.7,1.3,12.7,12.3c0,0-39,11.7-28.7,13.7c10.3,2,28.7-1.9,28.7-1.9
		S336,438,352.7,434c16.7-4,32-19,27.7-12.7c-4,5.8-27.3,27.3-17.3,24.2c2-0.6,3.9-1.7,5.4-3.1c6.1-5.3,24.8-21.6,21.2-15.7
		c-4.3,7-17.3,23.3-6.3,17.7c0,0,11.9-7.1,20.9-27.2C404.3,417.1,404.8,403.3,396.4,398.9z"/>
	<path class="st12" d="M352.7,196.7l-23.7,4.7V201c0-0.2,0-0.3,0-0.5c0-1.9-0.2-3.8-0.6-5.7c-0.7-3.5-2-7-4-10
		c0-0.1-0.1-0.1-0.1-0.2c-3.3-5.3-8.3,1-8.3,1c-4.7-6-9.3,0.6-9.3,0.6c-5.7-3-8.3,5.3-8.3,5.3c-0.5,0-1,0-1.5,0
		c-6.5,0.6-8,6.1-7.3,13.3c0.2,1.8,0.5,3.7,0.9,5.6c1,5.2,2.7,10.7,4.2,15.7c4.6,15,0,22.7,0,22.7c15.2,8.4,26.4,3,26.4,3
		c-0.5-2.9,7.5-9.5,9.3-12.4c3.3-5.2,10-21,9-27.7C338.3,205.3,352.7,196.7,352.7,196.7z M302.8,201.6c0.2,0.6,0.4,1.1,0.5,1.8
		c0.5,1.6,0.6,2.9,0.5,3.8 M296,203.4c0.7,0.8,1.3,1.6,1.7,2.3c0.5,1,1.2,1.9,1.9,2.6"/>
	<path class="st9" d="M296.8,191.7c0,0,3.6,2.8,6,9.9c0.2,0.6,0.4,1.1,0.5,1.8c0.5,1.6,0.6,2.9,0.5,3.8c-0.2,2.8-2.4,2.7-4.2,1.1
		c-0.8-0.6-1.4-1.5-1.9-2.6c-0.4-0.8-1-1.5-1.7-2.3c-2.5-2.7-6.3-5.2-6.3-5.2"/>
	<path class="st9" d="M303.8,204.8c0,0,15.8,12.5,9.1-3.5c-6.2-15-6.3-15-6.3-15"/>
	<path class="st9" d="M315.2,205.5c0.2,0.7,8.9,5.9,7-2.9c-0.7-3.3-2.6-8.6-6.3-16.9"/>
	<path class="st9" d="M329,201.3c0,0,0.5,7.8-5.5,2"/>
	<path class="st9" d="M327.3,212.3c0,0-4.5,16.3-12.8,16.7"/>
	<path class="st9" d="M313.5,215.3c0,0,8.9,3.6,9.1,7.6"/>
	<path class="st2" d="M296,203.4l-6.5,1.7l-6.8,1.8c-1.5,0.4-2.4,1.9-2,3.4l0,0.1c0.4,1.5,1.9,2.4,3.4,2l6.3-1.6l9.3-2.4L296,203.4z
		"/>
	<path class="st2" d="M329.2,195.2l26-6l-0.2-0.8c-0.4-1.9,0.7-3.8,2.6-4.2l19.8-4.6c1.9-0.4,3.8,0.7,4.2,2.6l1.7,7.1
		c0.4,1.9-0.7,3.8-2.6,4.2l-19.8,4.6c-1.9,0.4-3.8-0.7-4.2-2.6l-0.2-0.8l-26.8,6.2L329.2,195.2z"/>
	<line class="st18" x1="249.5" y1="326.1" x2="247.7" y2="336.4"/>
	<line class="st18" x1="251.9" y1="345.3" x2="250" y2="355.7"/>
	<line class="st18" x1="260" y1="351.9" x2="261" y2="362.3"/>
	<line class="st18" x1="256.3" y1="378.3" x2="256.3" y2="388.8"/>
	<line class="st18" x1="251" y1="393.9" x2="251" y2="404.4"/>
	<line class="st18" x1="263.3" y1="392.7" x2="263.3" y2="403.2"/>
	<line class="st18" x1="273.5" y1="363.1" x2="277.7" y2="372.6"/>
	<line class="st18" x1="266.8" y1="343.7" x2="271" y2="353.3"/>
	<line class="st18" x1="265.6" y1="370.7" x2="267.4" y2="383.3"/>
	<line class="st18" x1="281.5" y1="355" x2="287.8" y2="363.4"/>
	<line class="st18" x1="241.3" y1="354.8" x2="235.7" y2="363.6"/>
	<line class="st18" x1="288" y1="374.3" x2="294" y2="382.9"/>
	<line class="st18" x1="279.9" y1="381.5" x2="284.7" y2="390.9"/>
	<line class="st18" x1="273.3" y1="392.3" x2="276.2" y2="402.4"/>
	<line class="st18" x1="256.9" y1="328.8" x2="257.8" y2="339.2"/>
	<line class="st18" x1="261.6" y1="324.4" x2="265.8" y2="334"/>
	<line class="st18" x1="243.8" y1="383.2" x2="242" y2="393.6"/>
	<line class="st18" x1="249.5" y1="362.7" x2="247.7" y2="373"/>
	<line class="st18" x1="239" y1="372.4" x2="234.1" y2="381.6"/>
</g>
</svg>
