<?xml version="1.0" encoding="utf-8"?>
<!-- Generator: Adobe Illustrator 23.1.0, SVG Export Plug-In . SVG Version: 6.00 Build 0)  -->
<svg version="1.1" id="Слой_1" xmlns="http://www.w3.org/2000/svg" xmlns:xlink="http://www.w3.org/1999/xlink" x="0px" y="0px"
	 viewBox="0 0 283.5 283.5" style="enable-background:new 0 0 283.5 283.5;" xml:space="preserve">
<style type="text/css">
	.st0{fill:#9BB0B5;}
	.st1{fill:#F5C57F;}
	.st2{fill:#FFFFFF;}
	.st3{fill:#FDE2C4;}
	.st4{fill:#FDE2C6;}
	.st5{fill:none;stroke:#000000;stroke-width:0.5;stroke-linecap:round;stroke-linejoin:round;stroke-miterlimit:10;}
	.st6{fill:#B2C2C5;}
	.st7{fill:#77C8DC;}
	.st8{fill:#7E8E90;}
</style>
<g>
	<path class="st0" d="M145.3,49.9c0.1,0.2-34.2,20.8-34.5,20.3c-0.9-1.5-0.9-2.6-1.2-4.3c-0.6-3.7,0.8-8.6,2.8-12.3
		c1.3-2.5,7.2-6.5,7.7-6.8c7.4-4.2,16.3-4.4,21.8-0.2C143.1,47.7,144.4,48.5,145.3,49.9z"/>
	<path class="st1" d="M148.5,105.9c0,0.5,0.1,1,0.2,1.5c1,3.8,4.7,6.7,8.6,6.8c0.2,0,1.7,1.8,2.1,2.1c1.2,0.7,2.4,0.8,3.7,0.6
		c1.6-0.2,3.7-0.7,4.8-1.9c4-4.3-0.2-11.3-1.3-15.9c-0.6-2.5-0.6-5.2-0.1-7.7c0.2-0.9,0.5-1.9,0.1-2.8c-0.3-0.7-0.8-1.2-1.3-1.7
		c-1.3-1.2-2.9-2.5-4.7-2.3c-2.5,0.3-4.5,3.2-6.8,2.3c-2.5-1-7.5,2.9-4.3,4.6c-1.6-0.8-3.1,4.3-3.2,5.4c-0.3,2.5,0.9,5.2,3.3,6.3
		C148.8,103.8,148.5,104.8,148.5,105.9z"/>
	<path class="st1" d="M181.1,70.7c1.2,0.3,2.4,0.8,3.6,0.9c1.2,0.1,2.3-0.2,3.5-0.3c4.1-0.3,8.2,2.4,9.7,6.2c3,1,5.6,3.4,6.6,6.4
		c0.2,0.7,0.4,1.3,0.8,1.9c0.4,0.5,1,0.9,1.5,1.3c2.6,2.2,3.5,6.1,2.1,9.2c-0.6-0.9-1.2-1.7-1.7-2.6c1.6,2.5,0.8,7.9-0.6,10.4
		c-0.6,1-1.2-0.2-1.8-1.1c-0.3,1.8-1.5,3.4-3.2,4c-0.6,2-2.1,3.8-3.9,4.8c-0.4,0.2-0.9,0.4-1.3,0.2c-0.4-0.1-0.6-0.5-0.9-0.9
		c-3.2-5.5-5.8-11.4-7.6-17.5c-0.5-1.7-1-3.5-2-5c-1.4-2-3.6-3.3-5.8-4.6c-2.5-1.5-10.2-5.1-9.4-8.9C171.7,71.6,178.1,70,181.1,70.7
		z"/>
	<path class="st2" d="M155,106.3c-1.1,0-2.1,0.5-2.8,1.3c-0.1,0-0.1,0-0.2,0c0.3-0.6,0.5-1.3,0.5-2.1c0-2.4-1.8-4.5-4-4.8
		c0.1-0.4,0.2-0.8,0.2-1.2c0,0,0,0,0-0.1c1.1-0.6,1.9-1.8,1.9-3.2c0-2-1.6-3.6-3.6-3.6c-1.7,0-3.1,1.2-3.5,2.7c-1.7,0.5-3,2.2-3,4.1
		c0,2,1.4,3.7,3.2,4.2c-0.2,0.5-0.3,1.1-0.3,1.7c0,2.7,2.1,4.8,4.6,4.8c0.2,0,0.3,0,0.5-0.1c0,0.2-0.1,0.4-0.1,0.7
		c0,1.9,1.5,3.4,3.3,3.4c0.9,0,1.7-0.4,2.3-1c0.3,0.1,0.7,0.2,1,0.2c2,0,3.6-1.6,3.6-3.6C158.6,107.9,157,106.3,155,106.3z"/>
	<path class="st2" d="M176.2,240c0-3.7-6.6-7-12.6-7c-4.7,0-7.7,2-8.8,4.7c-2.7-0.3-5.6-0.5-8.4-0.5c-9.8,0-17.2,3.8-14.5,8.5
		c1.3,2.2,3.7,2.2,7.4,1.7c-0.6,0.7-0.9,1.4-0.7,2.1c0.5,1.8,4.1,2.5,8.1,1.5c0.4-0.1,0.9-0.2,1.3-0.4c0.6,1.8,4.1,2.4,8,1.4
		c2.2-0.5,4-1.5,5.2-2.5c0.9,1.1,2.6,1.7,4.3,1.2c2.2-0.6,3.6-2.5,3.2-4.3C173.1,245.6,176.2,243,176.2,240z"/>
	<path class="st2" d="M150.8,247.8c-0.6,1.5-2,2.6-3.6,2.9"/>
	<path d="M147.2,251c-0.2,0-0.4-0.1-0.4-0.3c0-0.2,0.1-0.4,0.3-0.5c1.4-0.3,2.7-1.3,3.3-2.6c0.1-0.2,0.3-0.3,0.5-0.2
		c0.2,0.1,0.3,0.3,0.2,0.5C150.5,249.5,149,250.7,147.2,251C147.3,251,147.2,251,147.2,251z"/>
	<path class="st2" d="M200.7,240.5c0-1.4-2.5-2.5-5.6-2.5s-5.6,1.1-5.6,2.5c0,0.1,0,0.2,0.1,0.2c-2.2,0.4-3.8,1.3-3.8,2.3
		c0,1.4,2.9,2.5,6.6,2.5s6.6-1.1,6.6-2.5c0-0.2-0.1-0.4-0.2-0.6C199.8,242,200.7,241.3,200.7,240.5z"/>
	<path class="st2" d="M234.1,235.4c-1.9-0.4-4.1-0.5-6.2-0.4c0-0.1,0.1-0.2,0.1-0.3c0-1.4-2.9-2.5-6.6-2.5c-3.1,0-5.6,0.8-6.3,1.9
		c-3,0.4-6,1.5-7.4,2.8c-0.8,0.7-1,1.3-0.7,1.8c-2.3,0.4-3.9,1.3-3.9,2.3c0,1.4,2.9,2.5,6.6,2.5c0.3,0,0.6,0,0.8,0
		c0.7,0.6,2.1,1.2,4.1,1.5c5.6,0.9,15.9,0.2,19.4-1.3c2-0.8,1.8-2,0.2-3c1.1-0.2,2.1-0.6,2.9-1C239.5,238.2,238.2,236.3,234.1,235.4
		z"/>
	<path class="st2" d="M228.7,234.9c-1.2,0.2-4,0.8-3.6,2.2"/>
	<path class="st2" d="M230.9,240.7c1.1,0.4,2.9,0.2,4.1-0.3"/>
	<path class="st2" d="M226.1,249.5c-0.1,0-0.1,0-0.2,0c-0.8-0.8-2.3-1.3-4-1.3c-2.1,0-3.9,0.8-4.4,1.9c-0.1,0-0.1,0-0.2,0
		c-2.5,0-4.6,1.1-4.6,2.5c0,1.4,2.1,2.5,4.6,2.5c0.7,0,1.4-0.1,2-0.3c0.6,0.2,1.3,0.3,2,0.3c1.4,0,2.6-0.3,3.1-0.8
		c0.5,0.1,1,0.2,1.6,0.2c2.5,0,4.6-1.1,4.6-2.5C230.7,250.6,228.7,249.5,226.1,249.5z"/>
	<path class="st2" d="M224.5,251.2c-0.3-0.8,0.8-1.5,1.7-1.5"/>
	<path class="st3" d="M214.1,106.2c2.3-7.1-0.9-12.1-3-16.6c-3.3-6.9-6.3-15-6.3-15s0.4-3.7,0.6-8.4c0.4-7.1,0.4-7.7-0.2-7.8
		c-1.3-0.2-0.9,3.3-1.8,6.6c-0.2,0-1.4,0-1.7,0c-0.1-3.5,0-8.1-1.1-8c-1,0.1-1,4.3-0.6,8.2c-0.3,0.1-1.2,0.3-1.6,0.4
		c-0.2-2.4-2.4-9.5-3.1-9.5c-2.2,0,0.7,7,1.3,9.9c-0.2,0.1-1,0.5-1.1,0.5c-2.1-2.9-3.7-7.1-4.9-6.7c-1.4,0.5,1.2,4.8,3,8.4
		c0,0.1,1.2,2.2,1.5,2.7c-2-0.7-6.5-2.3-7.1-1.7c-1,1,6.3,4.8,9.4,5.6c0.1,0,3.8,5,3.8,5s7.3,18.2,6.2,21.5
		c-1,2.8-8.9,21.5-8.9,21.5s-4-1.9-7.5-0.6l-1.3-8.4c0,0-2.9,3.5-9.8,2.3l1.3,6.9c0,0-7.9-1.7-17.3,12.9c-4.4,6.8-10.1,16.6-7.8,17
		c2.1,0.4,8.9-7,8.9-7l4.6-3.8c0,0,2.3,37.4,3.8,45.5s2.4,15.9,2.4,15.9s1.5,35.1,1.6,35.3c0,0-4.5,2.3-6.1,2.7
		c-1.3,0.4-5.4,1.7-5.4,1.7s-3.4-0.5-4,0.1c-1.3,1.4,0.4,2,0.4,2s-0.2,1.2,1.4,1.6c0,0,0.4,1.5,2.5,1.7c0,0,2,1.5,3.6,0.4
		c1.5-1,1.4-1.2,1.4-1.2s6.8-3.8,8.7-3.8c4.6,0,2.8-3.9,1.7-5.5c0,0,3.7-27.5,2.8-40.8c-0.3-5.5-0.9-6.9-1-7.9l9.3-0.8
		c0,0,3.1,16.5,3.9,22c1.1,7.2,2.9,29.1,2.9,29.1l0.1,0c0,0,0,0.1,0,0.1l-13.5,5.7c0,0-3.4-1.4-3.8-0.9c-1.9,2.1,0.9,2.9,0.9,2.9
		s-0.1,0.9,1.5,1.3c0,0,0.4,1.5,2.5,1.7c0,0,1.7,1.1,3.3,0.1c1.5-1,1.7-0.9,1.7-0.9s7.7-3.6,9.6-3.9c4.7-0.6,2.8-4.3,1.7-6.1
		c0,0,1.6-31.9,1.4-40.1c-0.3-9-2.3-15.1-2.3-15.1l1-26.3c0,0-2.9-16.3,0-24.4C206.3,126.3,212.5,111.2,214.1,106.2z"/>
	<path d="M158.1,155.8c-1,0-1.8-0.4-2.5-1.2c-0.8-0.9-1.1-1.9-1-3c0.4-3.1,4.6-6.3,8.6-9.4c1.6-1.2,3-2.3,4.3-3.4
		c3.3-2.9,4.4-9.1,4.5-9.2c0-0.2,0.2-0.3,0.3-0.3c0.1,0,0.6-0.1,1.2,0.3c0.4,0.3,0.7,0.8,0.8,1.5c0.2,1.3-0.1,3.6-0.3,4.7
		c1.3-0.3,4.3-1.1,7.1-2.2c0.3-0.1,0.6-0.2,0.8-0.4c1.5-0.6,2.4-1,2.9-0.7c0.2,0.1,0.3,0.2,0.4,0.4c0.5,2-2.9,3.7-5.1,4.6
		c1.5,0.2,3.8,0.6,6.1,0.7c0.5,0,0.9,0.5,0.9,1.2c0,0.7-0.4,1.4-1.7,1.6c-1.8,0.3-4.1,0.1-5.7-0.1c0.7,0.4,1.6,0.9,2.5,1.2
		c2.6,0.8,3.5,1.3,3.8,1.9c0.1,0.3,0.1,0.5,0,0.8c-0.3,0.7-1.7,0.8-3.7,0.2c-1.1-0.3-2.2-0.6-3.1-0.8c1.4,1.3,3.4,3.2,3.6,4
		c0.2,0.6,0,1.1-0.5,1.3c-0.6,0.3-1.8,0.1-3.2-1.5c-0.8-0.9-2.3-1.7-2.7-1.8c-0.7,0-4.4,0-6.9-0.7c-1.1,1.6-6.8,9.9-11.2,10.2
		C158.3,155.8,158.2,155.8,158.1,155.8z M172.8,130.1c-0.3,1.4-1.6,6.6-4.7,9.3c-1.3,1.1-2.8,2.3-4.4,3.5c-3.9,3-8,6-8.3,8.8
		c-0.1,0.8,0.2,1.6,0.8,2.4c0.6,0.7,1.2,1,2,0.9c4.3-0.2,10.6-10,10.7-10.1c0.1-0.2,0.3-0.2,0.5-0.2c2.6,0.8,7,0.7,7.1,0.7
		c0.1,0,0.1,0,0.2,0c0.1,0,2,0.9,3.1,2.1c1.1,1.3,1.9,1.4,2.1,1.3c0.1-0.1,0.1-0.3,0.1-0.4c-0.2-0.6-2.4-2.8-4.6-4.7
		c-0.1-0.1-0.2-0.3-0.1-0.5s0.3-0.3,0.5-0.2c0,0,2.6,0.6,4.8,1.2c1.9,0.6,2.6,0.3,2.7,0.3c0-0.1,0-0.1,0-0.1
		c-0.2-0.5-2.4-1.2-3.3-1.5c-2.4-0.7-4.1-2.3-4.2-2.4c-0.1-0.1-0.2-0.3-0.1-0.5c0.1-0.2,0.3-0.3,0.5-0.2c0,0,4.4,0.9,7.2,0.4
		c0.6-0.1,1-0.3,1-0.7c0-0.2-0.1-0.5-0.2-0.5c-3.7-0.2-7.6-0.9-7.6-0.9c-0.2,0-0.3-0.2-0.3-0.4c0-0.2,0.1-0.4,0.3-0.4
		c2.6-0.9,6.2-2.8,6-4.1l0,0c-0.4,0-1.5,0.5-2.1,0.8c-0.3,0.1-0.6,0.3-0.9,0.4c-3.6,1.5-7.7,2.4-7.8,2.4c-0.1,0-0.3,0-0.4-0.1
		c-0.1-0.1-0.1-0.2-0.1-0.4c0,0,0.6-3.5,0.4-5.1c-0.1-0.5-0.2-0.8-0.4-1C173,130.2,172.9,130.1,172.8,130.1z"/>
	<path class="st4" d="M151,105.6c0.8-1.4,3.3-1.5,5.6-0.3c2.3,1.2,3.6,3.3,2.9,4.7c-0.8,1.4-3.3,1.5-5.6,0.3
		C151.5,109.1,150.2,107,151,105.6z"/>
	<path class="st4" d="M205.7,89.2c1.4,0.7,1.5,3.2,0.3,5.5c-1.2,2.3-3.4,3.7-4.8,3c-1.4-0.7-1.5-3.2-0.3-5.5
		C202.2,89.8,204.3,88.5,205.7,89.2z"/>
	<path class="st3" d="M173.4,78.9c13.1-3.9,26.3,1.8,29.6,12.8c3.3,11-4.6,23-17.7,27c-13.1,3.9-26.3-1.8-29.6-12.8
		C152.4,94.9,160.3,82.8,173.4,78.9z"/>
	<path d="M180,106.3C180,106.3,180,106.3,180,106.3c0.3,0,0.4-0.2,0.5-0.4c0-0.2-0.1-0.4-0.4-0.5c-0.7-0.1-1.3-0.5-1.6-1.2
		c-0.2-0.6-0.1-1.3,0.3-1.7c0.4-0.4,1.1-0.5,1.9-0.3c0.2,0.1,0.5-0.1,0.5-0.3c0.1-0.2-0.1-0.5-0.3-0.5c-1.5-0.5-2.4,0.1-2.7,0.5
		c-0.6,0.6-0.8,1.7-0.5,2.6C178.1,105.5,178.9,106.2,180,106.3z"/>
	<path d="M187.4,97.4c-1.4,0.2-2.8,1.3-2.8,3c0,0.2,0.2,0.4,0.4,0.4c0.2,0,0.4-0.2,0.4-0.4c0-1.2,1.1-2,2.1-2.1
		c0.8-0.1,1.8,0.1,2.2,1.2c0.1,0.2,0.3,0.3,0.5,0.3c0,0,0,0,0,0c0.2-0.1,0.3-0.3,0.3-0.5C190.1,97.9,188.9,97.2,187.4,97.4z"/>
	<path d="M170.8,101.6c-1.4,0.1-2.9,1.1-3.1,2.7c0,0.2,0.2,0.4,0.4,0.4c0,0,0,0,0,0c0.2,0,0.4-0.2,0.4-0.4c0.1-1.2,1.2-1.9,2.3-2
		c0.9,0,1.8,0.3,2.1,1.4c0,0.2,0.3,0.4,0.5,0.3c0.2,0,0.4-0.3,0.3-0.5C173.4,102.3,172.3,101.5,170.8,101.6z"/>
	<path d="M186.8,108.2c-0.2,0-0.4,0.2-0.4,0.5c0.2,1.8-0.9,3.3-2.9,4.1c-1.8,0.7-4.3,0.6-5.5-0.9c-0.1-0.2-0.4-0.2-0.6-0.1
		c-0.2,0.1-0.2,0.4-0.1,0.6c0.9,1.2,2.4,1.7,3.9,1.7c0.9,0,1.8-0.2,2.6-0.5c2.3-0.9,3.6-2.8,3.4-5
		C187.3,108.4,187.1,108.2,186.8,108.2z"/>
	<path d="M168.1,100.5c0.2,0,0.3-0.1,0.4-0.2c0.7-1.3,1.6-2.2,2.9-2.8c0.2-0.1,0.3-0.3,0.2-0.6c-0.1-0.2-0.3-0.3-0.6-0.2
		c-1.4,0.7-2.5,1.7-3.3,3.2c-0.1,0.2,0,0.5,0.2,0.6C167.9,100.4,168,100.5,168.1,100.5z"/>
	<path d="M184.4,94.6c1.5-0.2,2.7,0.1,3.9,0.9c0.1,0,0.1,0.1,0.2,0.1c0.1,0,0.3-0.1,0.4-0.2c0.1-0.2,0.1-0.5-0.1-0.6
		c-1.4-0.8-2.8-1.1-4.4-1c-0.2,0-0.4,0.2-0.4,0.5C184,94.4,184.2,94.6,184.4,94.6z"/>
	<path d="M188.5,88.3C188.4,88.3,188.4,88.3,188.5,88.3c-0.3,0-0.4-0.2-0.4-0.5c0.1-0.7-0.6-1.3-1.3-1.9l-0.2-0.1
		c-0.5-0.5-1.1-1.3-1.2-2.1c0-0.4,0.1-0.8,0.4-1.1c0.5-0.5,1.2-0.7,2.3-0.4c-0.3-0.8-1.3-1.4-2.3-2c-1.8-1-2.7-2.4-2.4-3.6
		c0-0.1,0.2-0.3,0.3-0.3l2.3-0.5c0.2,0,0.4,0.1,0.5,0.3c0,0.2-0.1,0.4-0.3,0.5l-2,0.4c-0.1,1.2,1.5,2.2,2,2.5
		c1.1,0.6,2.8,1.6,2.8,3.3c0,0.1-0.1,0.3-0.2,0.3c-0.1,0.1-0.3,0.1-0.4,0c-1-0.4-1.7-0.4-2-0.1c-0.1,0.1-0.2,0.3-0.2,0.5
		c0,0.5,0.4,1.1,0.9,1.5l0.2,0.1c0.8,0.7,1.7,1.5,1.6,2.7C188.9,88.2,188.7,88.3,188.5,88.3z"/>
	<path class="st5" d="M68.7,28.8"/>
	<path d="M169.6,84.5c-1.4,0-2.7-0.8-3.4-2c-0.1-0.2,0-0.5,0.2-0.6c0.2-0.1,0.5,0,0.6,0.2c0.5,1,1.5,1.6,2.6,1.6c0,0,0,0,0,0
		c1.1,0,2.1-0.7,2.6-1.7c0.1-0.2,0.4-0.3,0.6-0.2c0.2,0.1,0.3,0.4,0.2,0.6C172.4,83.7,171,84.5,169.6,84.5
		C169.6,84.5,169.6,84.5,169.6,84.5z"/>
	<path class="st6" d="M145,52c-1.3,3.4-6.8,8.6-14.2,12.9c-6.6,3.9-13.1,6.1-17,6.1c-1.7,0-2.8-0.4-3.3-1.3c-0.6-1-0.2-2.5,0.9-4.2
		c2.1-3.3,7-7.5,13.3-11.2c6.7-3.9,13.2-6.2,17-6.1c1.6,0,2.8,0.4,3.3,1.3C145.4,50.2,145.3,51,145,52z"/>
	<path d="M121.7,246.2c-0.1,0-0.2,0-0.2,0l0,0c-0.7-0.1-1.2-0.4-1.5-0.9c-1.4-2.4,1.4-8.8,1.7-9.5c0.1-0.2,0.2-0.2,0.4-0.2
		c0,0,0,0,0,0c0.2,0,0.3,0.1,0.4,0.3c0.3,0.7,2.8,7.3,1,9.6C123.1,245.8,122.6,246.2,121.7,246.2z M121.5,245.4c0.6,0,1-0.1,1.2-0.5
		c1-1.4,0-5.5-0.8-7.8c-0.9,2.3-2.2,6.3-1.3,7.8C120.8,245.2,121.1,245.3,121.5,245.4L121.5,245.4z"/>
	<path class="st7" d="M106.3,89.6c3.8,0.2,1.2-10.3,1.2-10.3S101.3,89.3,106.3,89.6z"/>
	<path class="st7" d="M132.6,88.9c0,0,0.4,10.6,3.8,8.4C140.2,94.9,132.6,88.9,132.6,88.9z"/>
	<path class="st7" d="M153.9,137c3.8-2.4-3.8-8.4-3.8-8.4S150.5,139.1,153.9,137z"/>
	<path class="st7" d="M165.6,119.9c0,0,0.9,8.6,3.5,6.7C172.1,124.4,165.6,119.9,165.6,119.9z"/>
	<path class="st7" d="M130.2,138.5c4.1-1.7-2.2-9-2.2-9S126.5,140,130.2,138.5z"/>
	<path class="st7" d="M129.9,174.8c4.4-0.5-1.3-9.8-1.3-9.8S126.1,175.2,129.9,174.8z"/>
	<path class="st7" d="M113.2,213.6c4.4,0.4,0.6-9.9,0.6-9.9S109.5,213.3,113.2,213.6z"/>
	<path class="st7" d="M230.2,124.9c2.7-2.5-5.7-5.7-5.7-5.7S227.9,127,230.2,124.9z"/>
	<path class="st7" d="M217,135.1c2.7-2.5-5.7-5.7-5.7-5.7S214.8,137.3,217,135.1z"/>
	<path class="st7" d="M142.3,64.6c0,0,3.5,7.9,5.7,5.7C150.7,67.9,142.3,64.6,142.3,64.6z"/>
	<path class="st7" d="M234.7,163.3c3.6-2.6-6-7.9-6-7.9S231.6,165.5,234.7,163.3z"/>
	<path class="st7" d="M144.8,216.2c4.4-1-2.4-9.6-2.4-9.6S141.1,217,144.8,216.2z"/>
	<path class="st7" d="M156,186.6c4.2-1.5-3.5-9.3-3.5-9.3S152.4,187.8,156,186.6z"/>
	<path class="st7" d="M105.6,150.6c4.5-0.3,0.7-9.2,0.7-9.2S101.5,150.9,105.6,150.6z"/>
	<path class="st7" d="M163.8,53c0,0,6.1,7.3,8,3.9C173.4,53.8,163.8,53,163.8,53z"/>
	<path class="st7" d="M121.4,245.8c4.5,0.3,0.5-9.9,0.5-9.9S117.7,245.5,121.4,245.8z"/>
	<path class="st7" d="M228.3,216.5c0,0,3.9,9.7,6.7,7.2C238.4,220.8,228.3,216.5,228.3,216.5z"/>
	<path class="st7" d="M215.5,190.2c0,0,2.4,8.3,4.9,6.5C223.4,194.5,215.5,190.2,215.5,190.2z"/>
	<path d="M229.3,125.7c-0.1,0-0.2,0-0.3,0c-2.3-0.5-4.7-5.7-4.9-6.3c-0.1-0.2,0-0.3,0.1-0.5c0.1-0.1,0.3-0.2,0.5-0.1
		c0.6,0.2,6,2.4,6.5,4.7c0.1,0.4,0.1,1.1-0.6,1.7l-0.3-0.3l0.3,0.3C230.1,125.5,229.7,125.7,229.3,125.7z M225.3,120
		c0.9,1.8,2.6,4.6,3.9,4.9c0.3,0.1,0.5,0,0.7-0.2l0,0c0.4-0.4,0.4-0.7,0.4-0.9C230,122.3,227.1,120.8,225.3,120z"/>
	<path d="M216.2,135.9c-0.1,0-0.2,0-0.3,0c-2.3-0.5-4.7-5.7-4.9-6.3c-0.1-0.2,0-0.3,0.1-0.5c0.1-0.1,0.3-0.2,0.5-0.1
		c0.6,0.2,6,2.4,6.5,4.7c0.1,0.4,0.1,1.1-0.6,1.7l-0.3-0.3l0.3,0.3C217,135.7,216.6,135.9,216.2,135.9z M212.1,130.2
		c0.9,1.8,2.6,4.6,3.9,4.9c0.3,0.1,0.5,0,0.7-0.2l0,0c0.4-0.4,0.4-0.7,0.4-0.9C216.8,132.5,214,131,212.1,130.2z"/>
	<path d="M233.8,164.1c-0.2,0-0.4,0-0.6-0.1c-2.6-0.9-4.6-7.6-4.9-8.4c0-0.2,0-0.3,0.1-0.4c0.1-0.1,0.3-0.1,0.5,0
		c0.7,0.4,6.8,3.8,7,6.7c0,0.5-0.1,1.3-1,1.9C234.6,163.9,234.2,164.1,233.8,164.1z M229.4,156.4c0.8,2.3,2.4,6.2,4,6.8
		c0.3,0.1,0.7,0.1,1-0.2c0,0,0,0,0,0c0.5-0.3,0.7-0.7,0.6-1.2C235,160.1,231.5,157.6,229.4,156.4z"/>
	<path class="st3" d="M172.5,129.7c0,0,1.3-0.2,1.5,1.5c0.2,1.7-0.4,5.2-0.4,5.2s4.1-0.9,7.7-2.4c1.4-0.6,3.4-1.6,3.5-0.9
		c0.6,2.3-6.3,4.7-6.3,4.7s3.9,0.7,7.6,0.9c0.6,0,1.1,1.7-0.8,2c-2.9,0.5-7.3-0.4-7.3-0.4s1.8,1.6,4.1,2.3c3.1,1,3.8,1.5,3.5,2.2
		c-0.2,0.4-1.4,0.5-3.2,0c-2.2-0.6-4.7-1.2-4.7-1.2s4.4,3.9,4.7,4.9c0.3,1.1-1.1,1.6-2.9-0.5c-1-1.1-2.9-2-2.9-2s-4.5,0.1-7.2-0.7
		c0,0-9.2,14.2-13.4,9.2c-4-4.8,6.2-10.3,11.9-15.2C171.3,136,172.5,129.7,172.5,129.7z"/>
	<path class="st2" d="M196.8,166.8c0-3.2-2.9-5.7-6.5-5.7c-0.7,0-1.4,0.1-2.1,0.3c0-0.2,0.1-0.4,0.1-0.6c0-3.2-2.9-5.7-6.5-5.7
		c-0.6,0-1.1,0.1-1.6,0.2c-1.2-1.3-3-2.2-5.1-2.2c-3,0-5.5,1.8-6.2,4.2c-0.4-0.1-0.8-0.1-1.3-0.1c-3.6,0-6.5,2.6-6.5,5.7
		c0,2.1,1.2,3.8,3.1,4.9c-0.3,0.3-0.5,0.7-0.7,1.1c-1.3,2.9,0,6.3,2.9,7.6c2.8,1.3,6.1,0.1,7.5-2.7c1.1,0.2,2.3,0,3.3-0.5
		c0.5,0.5,1.1,0.9,1.7,1.2c0.5,0.2,1.1,0.4,1.7,0.4c0,0.1,0,0.3,0,0.4c0,3.2,2.9,5.7,6.5,5.7s6.5-2.6,6.5-5.7c0-1.1-0.4-2.2-1-3.1
		C195,171.4,196.8,169.3,196.8,166.8z"/>
	<path class="st2" d="M213,163.2c-0.6-1.1-1.7-1.8-2.9-2.1c0.5-1.3,0.5-2.8-0.2-4c-1.4-2.4-4.8-3-7.6-1.3c-0.5,0.3-0.9,0.6-1.3,1
		c-1.2-0.8-2.7-1.2-4.4-1c-3.3,0.4-5.6,2.9-5.3,5.6c0.2,2,1.9,3.6,4.2,4.1c-0.5,1.3-0.4,2.7,0.2,3.9c1.4,2.4,4.8,3,7.6,1.3
		c0.2-0.1,0.4-0.2,0.5-0.4c1.7,1.2,4.2,1.3,6.5,0.1C213.2,168.8,214.4,165.5,213,163.2z"/>
	<path class="st2" d="M210.2,161c-0.9,0-1.7,0.8-1.8,1.6"/>
	<path d="M208.4,163.1C208.4,163.1,208.3,163.1,208.4,163.1c-0.3,0-0.4-0.2-0.4-0.5c0.1-1.1,1.1-2,2.2-2c0,0,0,0,0,0
		c0.2,0,0.4,0.2,0.4,0.4c0,0.2-0.2,0.4-0.4,0.4c-0.7,0-1.3,0.6-1.4,1.3C208.8,162.9,208.6,163.1,208.4,163.1z"/>
	<path class="st2" d="M187.9,161.4c-1.1,0.6-1.9,1.8-1.9,3.1"/>
	<path class="st2" d="M163.9,167.8c0.5-0.3,1-0.7,1.6-0.8c0.6-0.2,1.2-0.2,1.7,0.1"/>
	<path d="M163.9,168.2c-0.1,0-0.3-0.1-0.3-0.2c-0.1-0.2-0.1-0.5,0.1-0.6c0.5-0.3,1-0.7,1.7-0.9c0.7-0.2,1.5-0.2,2.1,0.2
		c0.2,0.1,0.3,0.4,0.1,0.6c-0.1,0.2-0.4,0.3-0.6,0.1c-0.4-0.2-0.9-0.3-1.4-0.1c-0.5,0.2-1,0.5-1.5,0.8
		C164.1,168.2,164,168.2,163.9,168.2z"/>
	<path class="st2" d="M184.8,191.7c0-3-2.7-5.4-6.1-5.4c-0.4,0-0.9,0-1.3,0.1c-0.5-2.6-3.1-4.5-6.2-4.5c-3.5,0-6.3,2.4-6.3,5.4
		c0,0.5,0.1,1,0.3,1.5c0,0-0.1,0-0.1,0c-3.5,0-6.3,2.4-6.3,5.4c0,3,2.8,5.4,6.3,5.4c1.2,0,2.3-0.3,3.2-0.8c0.1,2.9,2.8,5.2,6.1,5.2
		c2.5,0,4.7-1.4,5.6-3.3c2.3-0.8,3.9-2.7,3.9-5c0-0.3,0-0.6-0.1-1C184.4,193.9,184.8,192.8,184.8,191.7z"/>
	<path class="st2" d="M169,197.3c-0.2,0.8-0.7,1.5-1.4,1.9"/>
	<path class="st2" d="M164.9,188.8c0.9,0.2,1.6,1,1.6,1.9"/>
	<path class="st2" d="M175.7,191.8c0-0.9,0.4-1.7,1.1-2.3c0.7-0.6,1.5-0.9,2.4-1c0.9-0.1,1.9,0,2.5,0.6"/>
	<path class="st2" d="M168.7,157c-0.2,0.7-0.2,1.5,0.2,2.2s1,1.1,1.8,1.2"/>
	<path class="st8" d="M118.4,48c-1.4,1-2.7,2.1-3.9,3.4c-2.4-4.1-9.4-14-20.6-14c-13.2,0-22.9,8.5-23.9,20.9
		c-0.8,10.9,0.2,39.1,0.3,42.4h-5C65.2,96.3,64.2,69,65.1,58C66.2,43,78.2,32.4,94,32.4C107.1,32.4,115.1,42.7,118.4,48z"/>
	<line class="st7" x1="111.3" y1="89.2" x2="116" y2="135.9"/>
	<line class="st7" x1="116.6" y1="74.4" x2="128" y2="124.8"/>
	<line class="st7" x1="127.4" y1="95" x2="153.1" y2="158.8"/>
	<line class="st7" x1="133.3" y1="59.7" x2="141.1" y2="69.4"/>
	<path d="M231.6,115.8c-0.1,0-0.1,0-0.2-0.1l-9.7-5.8c-0.2-0.1-0.3-0.4-0.1-0.6c0.1-0.2,0.4-0.3,0.6-0.1l9.7,5.8
		c0.2,0.1,0.3,0.4,0.1,0.6C231.8,115.7,231.7,115.8,231.6,115.8z"/>
	<path d="M228.2,133c-0.1,0-0.2,0-0.3-0.1l-14.2-12c-0.2-0.1-0.2-0.4-0.1-0.6c0.2-0.2,0.4-0.2,0.6,0l14.2,12
		c0.2,0.1,0.2,0.4,0.1,0.6C228.4,133,228.3,133,228.2,133z"/>
	<path d="M216,144.1c-0.1,0-0.2,0-0.3-0.1l-6.4-7.2c-0.2-0.2-0.1-0.4,0-0.6c0.2-0.2,0.4-0.1,0.6,0l6.4,7.2c0.2,0.2,0.1,0.4,0,0.6
		C216.2,144.1,216.1,144.1,216,144.1z"/>
	<path d="M238.2,153.3c-0.1,0-0.2,0-0.3-0.1l-9.5-9.5c-0.2-0.2-0.2-0.4,0-0.6s0.4-0.2,0.6,0l9.5,9.5c0.2,0.2,0.2,0.4,0,0.6
		C238.4,153.3,238.3,153.3,238.2,153.3z"/>
	<path d="M226.8,170.3c-0.1,0-0.2-0.1-0.3-0.2l-16.7-20.3c-0.1-0.2-0.1-0.4,0.1-0.6c0.2-0.1,0.4-0.1,0.6,0.1l16.7,20.3
		c0.1,0.2,0.1,0.4-0.1,0.6C227,170.3,226.9,170.3,226.8,170.3z"/>
	<path d="M216.2,224.6c-0.1,0-0.2-0.1-0.3-0.2l-5.6-7.2c-0.1-0.2-0.1-0.4,0.1-0.6c0.2-0.1,0.4-0.1,0.6,0.1l5.6,7.2
		c0.1,0.2,0.1,0.4-0.1,0.6C216.4,224.6,216.3,224.6,216.2,224.6z"/>
	<path d="M220.4,207.6c-0.1,0-0.2,0-0.3-0.1l-8.4-9.7c-0.2-0.2-0.1-0.4,0-0.6c0.2-0.1,0.4-0.1,0.6,0l8.4,9.7c0.2,0.2,0.1,0.4,0,0.6
		C220.6,207.6,220.5,207.6,220.4,207.6z"/>
	<path d="M241.8,209.3c-0.1,0-0.2,0-0.3-0.1c-0.2-0.2-21.4-23.4-22.5-24.5c-0.2-0.2-0.2-0.4,0-0.6s0.4-0.2,0.6,0
		c1.1,1.1,21.7,23.6,22.6,24.5c0.2,0.2,0.1,0.4,0,0.6C242.1,209.2,242,209.3,241.8,209.3z"/>
	<path d="M236.1,222.1c-0.5-2.8-6.9-5.6-7.6-6c-0.2-0.1-0.3,0-0.5,0.1c-0.1,0.1-0.2,0.3-0.1,0.5c0.3,0.7,3,7.2,5.7,7.8
		c0.2,0,0.3,0.1,0.4,0.1c0.5,0,0.9-0.2,1.3-0.5C236.1,223.4,236.2,222.6,236.1,222.1z M234.8,223.4c-0.3,0.3-0.6,0.4-1,0.3
		c-1.7-0.4-3.7-4.1-4.7-6.4c2.2,1.1,5.9,3.1,6.2,4.9C235.4,222.7,235.2,223.1,234.8,223.4z"/>
	<path d="M215.7,189.8c-0.2-0.1-0.3-0.1-0.5,0c-0.1,0.1-0.2,0.3-0.1,0.4c0.2,0.6,1.8,6.2,4,6.9c0.2,0.1,0.4,0.1,0.5,0.1
		c0.3,0,0.7-0.1,1-0.3c0.7-0.5,0.9-1.2,0.8-1.6C221.3,193,216.3,190.1,215.7,189.8z M220.1,196.3c-0.3,0.2-0.5,0.2-0.8,0.1
		c-1.3-0.4-2.5-3.4-3.2-5.4c1.7,1.1,4.3,3,4.4,4.3C220.6,195.7,220.6,196,220.1,196.3z"/>
	<path d="M107.6,78.9c-0.2,0-0.3,0-0.4,0.2c-0.4,0.7-4.3,7-2.9,9.7c0.4,0.7,1.1,1.1,2,1.2c0.1,0,0.1,0,0.2,0c0.6,0,1.1-0.2,1.5-0.7
		c1.9-2.2,0.2-9.3,0-10.1C107.9,79,107.8,78.9,107.6,78.9z M107.3,88.8c-0.2,0.3-0.6,0.4-1,0.4c-0.7,0-1.1-0.3-1.4-0.7
		c-0.9-1.7,1.1-5.8,2.4-8C107.9,82.9,108.5,87.4,107.3,88.8z"/>
	<path d="M135.5,98c0.3,0,0.7-0.1,1.1-0.4c0.8-0.5,1.2-1.2,1.2-2c0.2-3-4.8-6.9-5-7.1c-0.1-0.1-0.3-0.1-0.4,0
		c-0.1,0.1-0.2,0.2-0.2,0.4c0,0.8,0.4,7.7,2.6,8.9C135,97.9,135.2,98,135.5,98z M133.1,89.8c1.6,1.4,4.1,4,4,5.8
		c0,0.6-0.3,1-0.9,1.3c-0.5,0.3-0.8,0.2-1,0.1C134,96.4,133.3,92.6,133.1,89.8z"/>
	<path d="M155.4,135.3c0.2-3-4.8-6.9-5-7.1c-0.1-0.1-0.3-0.1-0.4,0c-0.1,0.1-0.2,0.2-0.2,0.4c0,0.8,0.4,7.7,2.6,8.9
		c0.2,0.1,0.4,0.2,0.7,0.2c0.3,0,0.7-0.1,1.1-0.4C155,136.8,155.4,136.1,155.4,135.3z M153.7,136.6c-0.5,0.3-0.8,0.2-1,0.1
		c-1.2-0.6-1.9-4.5-2.1-7.3c1.6,1.4,4.1,4,4,5.8C154.6,135.8,154.3,136.3,153.7,136.6z"/>
	<path d="M165.9,119.6c-0.1-0.1-0.3-0.1-0.5,0c-0.1,0.1-0.2,0.2-0.2,0.4c0.1,0.6,0.7,6.3,2.6,7.2c0.2,0.1,0.3,0.1,0.6,0.1
		c0.3,0,0.6-0.1,1-0.4c0.6-0.5,0.9-1.1,0.9-1.8C170.3,122.7,166.3,119.9,165.9,119.6z M168.9,126.2c-0.4,0.3-0.6,0.2-0.7,0.2
		c-1-0.4-1.7-3.3-2-5.6c1.3,1.1,3.3,2.9,3.4,4.3C169.5,125.6,169.3,125.9,168.9,126.2z"/>
	<path d="M129.5,139.1c0.2,0,0.5-0.1,0.8-0.2c0.9-0.3,1.4-0.9,1.6-1.7c0.7-2.9-3.5-7.7-3.6-7.9c-0.1-0.1-0.3-0.2-0.4-0.1
		c-0.2,0-0.3,0.2-0.3,0.3c-0.1,0.8-1.1,7.7,0.9,9.3C128.7,138.9,129.1,139.1,129.5,139.1z M128.3,130.6c1.3,1.7,3.3,4.7,2.8,6.4
		c-0.1,0.5-0.5,0.9-1.1,1.2c-0.6,0.2-0.8,0.1-1,0C127.9,137.2,128,133.4,128.3,130.6z"/>
	<path d="M128.9,164.8c-0.1-0.1-0.3-0.2-0.4-0.2c-0.2,0-0.3,0.2-0.3,0.3c-0.2,0.8-1.7,7.6,0.1,9.7c0.4,0.4,0.9,0.6,1.4,0.6
		c0.1,0,0.2,0,0.3,0c1.1-0.1,1.6-0.7,1.8-1.2C133,171.4,129.3,165.4,128.9,164.8z M131,173.7c-0.2,0.4-0.6,0.6-1.1,0.7
		c-0.4,0-0.7-0.1-1-0.3c-1.1-1.3-0.6-5.5-0.1-7.9C129.9,168.3,131.7,172.1,131,173.7z"/>
	<path d="M113.9,203.4c-0.2,0-0.3,0.1-0.4,0.2c-0.3,0.7-3.2,7.1-1.8,9.5c0.3,0.6,0.8,0.9,1.5,0.9c0.1,0,0.2,0,0.3,0
		c0.9,0,1.4-0.4,1.7-0.8c1.7-2.3-0.6-8.9-0.9-9.6C114.2,203.5,114.1,203.4,113.9,203.4z M114.5,212.8c-0.3,0.4-0.7,0.5-1.2,0.5
		c-0.4,0-0.7-0.2-0.9-0.5c-0.9-1.5,0.5-5.5,1.4-7.8C114.6,207.3,115.6,211.4,114.5,212.8z"/>
	<path d="M146.9,71.1c0.1,0,0.2,0,0.3,0c0.4,0,0.8-0.2,1.1-0.5c0.7-0.6,0.7-1.3,0.6-1.7c-0.5-2.4-5.9-4.5-6.5-4.7
		c-0.2-0.1-0.3,0-0.5,0.1c-0.1,0.1-0.1,0.3-0.1,0.5C142.2,65.4,144.6,70.7,146.9,71.1z M148.1,69.1c0,0.2,0.1,0.5-0.4,0.9
		c-0.2,0.2-0.5,0.3-0.7,0.2c-1.3-0.3-3-3.1-3.9-4.9C145,66.3,147.9,67.8,148.1,69.1z"/>
	<path d="M142.3,206.2c-0.2,0-0.3,0.2-0.3,0.4c-0.1,0.8-0.9,7.7,1.2,9.6c0.4,0.3,0.8,0.5,1.2,0.5c0.2,0,0.3,0,0.5-0.1
		c1.1-0.2,1.5-0.9,1.6-1.3c1-2.7-3.3-8.3-3.8-8.9C142.6,206.2,142.5,206.2,142.3,206.2z M145.8,215c-0.2,0.4-0.5,0.7-1,0.8
		c-0.4,0.1-0.7,0-1-0.2c-1.3-1.1-1.2-5.4-1-7.8C144.2,209.7,146.4,213.3,145.8,215z"/>
	<path d="M152.4,176.9c-0.2,0.1-0.3,0.2-0.3,0.4c0,0.8,0,7.8,2.2,9.4c0.3,0.2,0.7,0.4,1.1,0.4c0.2,0,0.5,0,0.7-0.1h0
		c1-0.4,1.4-1,1.5-1.5c0.7-2.8-4.2-7.9-4.8-8.4C152.7,176.9,152.5,176.9,152.4,176.9z M156.8,185.3c-0.1,0.4-0.4,0.7-0.9,0.9
		c-0.4,0.1-0.7,0.1-1-0.1c-1.4-1-1.8-5.2-1.9-7.7C154.6,180.2,157.2,183.6,156.8,185.3z"/>
	<path d="M106.3,141c-0.1,0-0.3,0.1-0.4,0.2c-0.4,0.7-3.4,6.9-2,9.1c0.2,0.3,0.7,0.7,1.5,0.7c0.1,0,0.1,0,0.2,0
		c0.9-0.1,1.6-0.4,2.1-1.1c1.6-2.5-0.8-8.4-0.9-8.6C106.6,141.1,106.5,141,106.3,141z M106.9,149.5c-0.3,0.5-0.7,0.7-1.4,0.8
		c-0.6,0-0.8-0.2-0.9-0.4c-0.8-1.2,0.5-4.8,1.7-7.4C107,144.5,107.9,147.9,106.9,149.5z"/>
	<path d="M163.8,52.6c-0.2,0-0.3,0.1-0.4,0.2c-0.1,0.2-0.1,0.3,0.1,0.5c0.4,0.5,4.2,4.9,6.9,4.9c0.1,0,0.2,0,0.2,0
		c0.7-0.1,1.2-0.5,1.6-1.1c0.3-0.6,0.3-1.1,0-1.6C171,53.3,164.5,52.6,163.8,52.6z M171.4,56.7c-0.2,0.4-0.5,0.7-0.9,0.7
		c-1.6,0.2-4.2-2.2-5.6-3.8c2.3,0.3,5.9,1,6.6,2.3C171.6,56.1,171.6,56.3,171.4,56.7z"/>
	<path d="M111.3,88.8c-0.2,0-0.4,0.2-0.4,0.5l4.7,46.8c0,0.2,0.2,0.4,0.4,0.4c0,0,0,0,0,0c0.2,0,0.4-0.2,0.4-0.5l-4.7-46.8
		C111.7,88.9,111.5,88.7,111.3,88.8z"/>
	<path d="M126.1,78.5c0,0,0.1,0,0.1,0c0.2-0.1,0.3-0.3,0.3-0.5l-4.2-12.8c-0.1-0.2-0.3-0.3-0.5-0.3c-0.2,0.1-0.3,0.3-0.3,0.5
		l4.2,12.8C125.7,78.3,125.9,78.5,126.1,78.5z"/>
	<path d="M128,125.2C128,125.2,128.1,125.2,128,125.2c0.3-0.1,0.5-0.3,0.4-0.5L117,74.3c-0.1-0.2-0.3-0.4-0.5-0.3
		c-0.2,0.1-0.4,0.3-0.3,0.5l11.4,50.4C127.6,125.1,127.8,125.2,128,125.2z"/>
	<path d="M127.3,94.6c-0.2,0.1-0.3,0.3-0.2,0.5l25.6,63.7c0.1,0.2,0.2,0.3,0.4,0.3c0.1,0,0.1,0,0.2,0c0.2-0.1,0.3-0.3,0.2-0.5
		l-25.6-63.7C127.7,94.6,127.5,94.5,127.3,94.6z"/>
	<path d="M137.7,81.6c0.1,0.1,0.2,0.2,0.4,0.2c0.1,0,0.1,0,0.2-0.1c0.2-0.1,0.3-0.4,0.1-0.6l-11.1-18.4c-0.1-0.2-0.4-0.3-0.6-0.1
		c-0.2,0.1-0.3,0.4-0.1,0.6L137.7,81.6z"/>
	<path d="M140.8,69.7c0.1,0.1,0.2,0.2,0.3,0.2c0.1,0,0.2,0,0.3-0.1c0.2-0.1,0.2-0.4,0.1-0.6l-7.8-9.7c-0.1-0.2-0.4-0.2-0.6-0.1
		c-0.2,0.1-0.2,0.4-0.1,0.6L140.8,69.7z"/>
	<path d="M152.5,66.6c0.1,0.1,0.2,0.1,0.3,0.1c0.1,0,0.2,0,0.3-0.1c0.2-0.2,0.1-0.4,0-0.6l-12.2-11.4c-0.2-0.2-0.4-0.1-0.6,0
		c-0.2,0.2-0.1,0.4,0,0.6L152.5,66.6z"/>
	<path d="M163.1,63.1c0.1,0,0.2,0.1,0.2,0.1c0.1,0,0.3-0.1,0.3-0.2c0.1-0.2,0.1-0.5-0.1-0.6l-15.3-10c-0.2-0.1-0.5-0.1-0.6,0.1
		c-0.1,0.2-0.1,0.5,0.1,0.6L163.1,63.1z"/>
	<path d="M142,174.5c0.2-0.1,0.4-0.3,0.3-0.5c-6.7-28.1-7.5-28.3-7.8-28.4c-0.2-0.1-0.5,0-0.5,0.3c-0.1,0.2,0,0.4,0.1,0.5
		c0.8,1.2,4.8,17.3,7.4,27.9C141.6,174.4,141.7,174.5,142,174.5C142,174.5,142,174.5,142,174.5z"/>
	<path d="M119,159.7c-0.2,0-0.4,0.2-0.4,0.5l7,54.6c0,0.2,0.2,0.4,0.4,0.4c0,0,0,0,0.1,0c0.2,0,0.4-0.2,0.4-0.5l-7-54.6
		C119.5,159.9,119.3,159.7,119,159.7z"/>
	<path d="M132.1,219.9c-0.2,0.1-0.3,0.3-0.3,0.5c0.2,0.6,0.9,9.3,1.4,14.9c0,0.2,0.2,0.4,0.4,0.4c0,0,0,0,0,0c0.2,0,0.4-0.2,0.4-0.4
		c-0.1-1.5-1.1-14.3-1.4-15.1C132.5,219.9,132.3,219.8,132.1,219.9z"/>
	<path d="M144.9,190.1c-0.2,0.1-0.4,0.3-0.3,0.5l10.9,38.1c0.1,0.2,0.2,0.3,0.4,0.3c0,0,0.1,0,0.1,0c0.2-0.1,0.4-0.3,0.3-0.5
		l-10.9-38.1C145.3,190.2,145.1,190,144.9,190.1z"/>
	<path d="M163.7,214.5c-0.1-0.2-0.3-0.3-0.6-0.2c-0.2,0.1-0.3,0.3-0.2,0.6l5.6,12c0.1,0.2,0.2,0.2,0.4,0.2c0.1,0,0.1,0,0.2,0
		c0.2-0.1,0.3-0.3,0.2-0.6L163.7,214.5z"/>
	<path d="M155.1,121.9c-0.1-0.2-0.4-0.2-0.6-0.1c-0.2,0.1-0.2,0.4-0.1,0.6l7.2,10.2c0.1,0.1,0.2,0.2,0.3,0.2c0.1,0,0.2,0,0.2-0.1
		c0.2-0.1,0.2-0.4,0.1-0.6L155.1,121.9z"/>
	<path class="st0" d="M64,71h-7.8c-0.5,0-1-0.4-1-1v-1.3c0-0.5,0.5-1,1-1H64c0.6,0,1,0.5,1,1V70C65,70.6,64.5,71,64,71z"/>
	<path class="st0" d="M64,85.2h-7.8c-0.5,0-1-0.5-1-1v-1.3c0-0.5,0.5-1,1-1H64c0.6,0,1,0.4,1,1v1.3C65,84.8,64.5,85.2,64,85.2z"/>
	<path d="M64.6,85.4c0.2-0.1,0.5-0.2,0.6-0.4C65.1,85.2,64.9,85.4,64.6,85.4z"/>
	<path class="st2" d="M215,177.8c0-4.4-4-8-8.9-8c-0.9,0-1.7,0.2-2.5,0.4c-1.5-2.2-4-3.6-6.9-3.6c-4.6,0-8.2,3.6-8.2,8
		c0,0.3,0.1,0.7,0.1,1c-1.2-0.5-2.5-0.7-3.9-0.7c-4.9,0-8.9,3.2-8.9,7.2c0,3,2.3,5.6,5.5,6.6c-0.5,0.9-0.8,1.9-0.8,2.9
		c0,3.7,3.2,6.6,7.2,6.6c1.9,0,3.7-0.7,5-1.9c1,0.5,2.1,0.8,3.4,0.8c2.6,0,4.9-1.3,6.1-3.2c0.3,0,0.5,0.1,0.8,0.1c4,0,7.2-3,7.2-6.6
		c0-0.8-0.2-1.6-0.5-2.3C212.8,183.9,215,181.1,215,177.8z"/>
	<path class="st1" d="M180.4,72.9c-2.1,0.2-4.3-0.2-6.4,0.3c-1.3,0.3-2.6,0.9-3.9,1.4c-1.4,0.6-2.8,1.2-4,2.1
		c-1.2,0.9-2.2,2.1-3.2,3.2c-1.4,1.6-2.7,3.3-4.3,4.8c-1.1,1-3.9,3-3.6,4.7c0.1,0.7,1.3,1.1,1.6,0.4c-0.6,0.5-2,2.4-1.7,3.1
		c0.3,0.7,2.5-0.3,2.7-1.1c-0.5,0.5-0.8,1.1-0.8,1.8c3.1,0.7,6.1-1.1,8.8-2.8c-1.5,1.9-3,3.9-4.4,5.8c1.4,0.5,2.8-0.5,4-1.5
		c1.2-1,2.3-1.9,3.5-2.9c-1,1.4-1.9,2.8-2.9,4.1c1.9-0.7,3.6-1.8,4.9-3.3c-0.7,1-1.1,2.1-1.4,3.3c3.3-1.7,6.2-4.2,8.3-7.4
		c-0.6,2.5-1.5,5.1-2.4,7.5c1.5-0.2,2.5-1.7,3.2-3.1c1.2-2.1,2.4-4.3,3.5-6.4c0,1.9,0.1,3.7,0.1,5.6c0,0.2,0,0.5,0.2,0.6
		c0.1,0.1,0.3,0.2,0.5,0.2c1.1-0.1,1.8-1.2,2.3-2.1c0.9-1.8,1.8-3.5,2.8-5.3c0.2,1,0.4,2,0.3,3c0.9-0.4,1.5-1.3,1.6-2.3
		c0,1.4,0.2,2.8,0.5,4.1c0.9-0.3,1.6-1.3,1.6-2.3c0.5,2,0.6,4.2,0.4,6.2c0.2,0.3,0.8,0,1-0.3c1-1.4,1.9-2.8,2.5-4.4
		c0.1,1.7,0.2,3.5,0.3,5.2c0,0.2,0,0.3,0.1,0.5c0.4,0.5,1.2-0.1,1.4-0.7c0.5-1,0.9-2,1.4-3c0.1,1.5,0,3.1-0.4,4.6
		c1.7-0.3,2.8-2,3.3-3.6c0.7-2.2,0.5-5.1-0.1-7.4C201.8,85.7,195.4,71.3,180.4,72.9z"/>
	<path d="M208.7,185.6c-1.2,0-2.4-0.6-3-1.6c-0.1-0.2-0.1-0.5,0.1-0.6c0.2-0.1,0.5-0.1,0.6,0.1c0.6,1,1.9,1.5,3,1.1
		c0.2-0.1,0.5,0,0.5,0.3c0.1,0.2,0,0.5-0.3,0.5C209.4,185.6,209.1,185.6,208.7,185.6z"/>
	<path class="st1" d="M153.6,89c0,0,5.1-3.5,7.6-0.5s1.8,6,1.8,6l-1.6,1.9l0.5,4.2c0,0-1.3,0.1-2.2-0.6c-0.9-0.7,1.6,1.2,1.1,4.1
		c0,0-1.9-0.1-2.7-1.1s-0.9-1.3-0.9-1.3s0.1,2.4-0.4,2.8s-1.2,0.4-1.2,0.4s-1.3-2.7-2.4-6C152.1,95.5,153.6,89,153.6,89z"/>
	<path class="st2" d="M179.4,72.6c-1.2-1.6-3.7-1.9-6.3-0.9c0-2-2.6-3.8-5.9-4c-2.2-0.1-4.2,0.5-5.3,1.5c-0.6-0.1-1.2-0.2-1.8-0.2
		c-3.7-0.2-6.8,1.2-7.3,3.2c-0.4,0.1-0.8,0.2-1.2,0.4c-3.2,1.2-5.3,3.7-4.6,5.6c0.2,0.6,0.7,1,1.2,1.3c-1.1,0.6-2.3,1.4-3.4,2.3
		c-4.1,3.5-6,8-4.2,10.1c1.8,2,6.5,0.9,10.6-2.7c0.8-0.7,1.5-1.4,2.1-2.1c1.4,0.4,3.2,0.3,5.1-0.4c3-1.1,5.1-5.2,5.4-5.2
		c-0.9,1.7-1,3.4-0.1,4.7c1.5,2.1,5.4,1.9,8.7-0.4c1.9-1.3,3.1-3.1,3.5-4.7c0.1-0.1,0.3-0.2,0.4-0.3
		C179.5,78.3,180.9,74.7,179.4,72.6z"/>
	<path d="M145.3,49.3C145.3,49.3,145.3,49.3,145.3,49.3C145.3,49.3,145.3,49.3,145.3,49.3c-0.8-1-1.7-1.8-2.6-2.5
		c-0.2-0.2-0.5-0.3-0.7-0.5c-5.5-4.3-14.6-4.2-22.2,0.1c-0.1,0.1-0.6,0.4-1.3,0.9C114.7,41.5,106.8,32,94,32
		c-15.8,0-28.2,10.9-29.3,26c-0.2,2.5-0.3,5.8-0.3,9.4c-0.2-0.1-0.4-0.1-0.6-0.1h-6.8c-1.2,0-2.2,0.9-2.2,2.1s1,2.1,2.2,2.1h6.8
		c0.2,0,0.4-0.1,0.6-0.1c0,3.4,0,6.9,0.1,10.3c-0.2-0.1-0.5-0.1-0.7-0.1h-6.8c-1.2,0-2.2,0.9-2.2,2.1c0,1.2,1,2.1,2.2,2.1h6.8
		c0.3,0,0.5-0.1,0.8-0.2c0.2,7.5,0.4,13.8,0.5,15.2l0,0.4h5.8l0-0.4c-0.2-5.3-1.1-32-0.3-42.3C71.4,46,80.8,37.8,93.9,37.8
		c10.5,0,17.3,9.1,20,13.4c-0.8,0.8-1.5,1.6-1.9,2.3c-2.2,4.2-3.4,9.1-2.8,12.6l0.1,0.6c0.2,1.1,0.3,2.1,0.8,3.1
		c0,0.1,0,0.2,0.1,0.3c0,0.1,0.1,0.1,0.1,0.1c0.1,0.1,0.1,0.2,0.2,0.3c0.1,0.1,0.2,0.2,0.3,0.2c0.7,0.6,1.7,0.8,3.1,0.8
		c4.1,0,10.7-2.4,17.2-6.2c7.3-4.2,13-9.5,14.4-13.1c0,0,0,0,0,0C145.8,51,145.8,50.1,145.3,49.3z M63.7,84.8h-6.8
		c-0.7,0-1.3-0.6-1.3-1.3c0-0.7,0.6-1.3,1.3-1.3h6.8c0.7,0,1.3,0.6,1.3,1.3C65,84.2,64.4,84.8,63.7,84.8z M63.7,70.6h-6.8
		c-0.7,0-1.3-0.6-1.3-1.3c0-0.7,0.6-1.3,1.3-1.3h6.8c0.2,0,0.4,0.1,0.6,0.2c0,0,0,0.1,0,0.1c0,0,0.1,0,0.1,0c0.4,0.2,0.6,0.6,0.6,1
		C65,70,64.4,70.6,63.7,70.6z M93.9,36.9c-13.5,0-23.3,8.6-24.3,21.3c-0.7,10,0,34.1,0.3,42h-4.2c-0.1-2-0.3-8.1-0.5-15.3
		c0.3-0.4,0.6-0.8,0.6-1.4c0-0.6-0.2-1.1-0.6-1.5c-0.1-3.7-0.1-7.5-0.1-11.2c0.5-0.4,0.8-0.9,0.8-1.5c0-0.6-0.3-1.2-0.7-1.5
		c0-3.8,0.1-7.3,0.3-9.8C66.6,43.4,78.6,32.8,94,32.8c12.4,0,20.2,9.3,23.8,15.1c-0.4,0.3-0.8,0.6-1.2,1c-0.7,0.5-1.4,1.1-2.1,1.7
		C111.7,46.1,104.8,36.9,93.9,36.9z M110.2,67c0-0.2-0.1-0.3-0.1-0.5l-0.1-0.6c-0.5-3.3,0.6-8,2.7-12c1.2-2.3,6.9-6.3,7.5-6.7
		c3.7-2.1,7.8-3.2,11.6-3.2c3.7,0,7.1,1,9.7,3c0.2,0.2,0.5,0.4,0.7,0.5c0.2,0.1,0.3,0.3,0.5,0.4c-0.3,0-0.7-0.1-1-0.1
		c0,0-0.1,0-0.1,0c-4.1,0-10.6,2.4-17.1,6.2c-6.2,3.6-11.2,7.9-13.4,11.4C110.6,66,110.4,66.5,110.2,67z M144.6,51.9
		c-1.3,3.5-6.9,8.6-14,12.7c-6.4,3.8-12.8,6.1-16.8,6.1c-1.6,0-2.6-0.4-3-1.1c-0.5-0.8-0.2-2.1,0.9-3.7c2.2-3.3,7.2-7.6,13.2-11.1
		c6.4-3.7,12.8-6.1,16.7-6.1c0,0,0.1,0,0.1,0c1.1,0,2.5,0.2,3,1.1C144.9,50.3,144.9,51,144.6,51.9z"/>
	<path d="M197.3,71c-0.2,0-0.4,0.2-0.4,0.4c0,0.2,0.2,0.4,0.4,0.4c0.1,0,1.7,0,1.9,1.3c0,0.2,0.2,0.4,0.4,0.4c0,0,0,0,0.1,0
		c0.2,0,0.4-0.2,0.4-0.5C199.8,71.4,198.2,71,197.3,71z"/>
	<path d="M202.6,68.6c0.2-0.2,0.2-0.4,0-0.6c-0.2-0.2-0.4-0.2-0.6,0c-0.1,0.1-2,1.9-1.6,4.4c0,0.2,0.2,0.3,0.4,0.3c0,0,0,0,0.1,0
		c0.2,0,0.4-0.3,0.3-0.5C200.9,70.2,202.6,68.6,202.6,68.6z"/>
	<path d="M238.6,237.8c-0.2-1.2-1.8-2.3-4.4-2.8c-1.6-0.4-3.5-0.5-5.4-0.5c0,0-0.1,0-0.1,0c0,0-0.1,0-0.1,0c0,0-0.1,0-0.1,0
		c-0.2-1.8-3.7-2.7-7-2.7c-3,0-5.6,0.8-6.6,1.9c-3.1,0.5-6,1.6-7.5,2.9c-0.8,0.7-1,1.3-1,1.8c-1.1,0.2-2,0.6-2.7,1
		c0.3-5.8,1.5-31.7,1.3-39c-0.1-2.2-0.3-4.2-0.5-6c3.4-0.7,6-3.5,6-6.9c0-0.7-0.1-1.4-0.4-2.1c3.2-1.4,5.2-4.3,5.2-7.5
		c0-3.1-1.8-5.8-4.6-7.2c2.8-1.8,4-5.2,2.6-7.7c-0.6-1-1.5-1.8-2.7-2.1c0.4-1.4,0.3-2.8-0.4-3.9c-1.3-2.2-4.3-3-7-2
		c-0.7-5.3-1.4-14.8,0.5-20.3c1.4-3.8,3.4-9.1,5.4-14.2c2.3-5.8,4.4-11.4,5.3-14c2.1-6.5-0.3-11.3-2.4-15.6
		c-0.2-0.5-0.5-0.9-0.7-1.3c-3.1-6.4-5.9-14-6.2-14.9c0.1-0.6,0.4-4.1,0.6-8.3c0.5-7.5,0.5-8-0.6-8.2c-0.3-0.1-0.5,0-0.7,0.2
		c-0.6,0.5-0.7,1.6-0.9,3.3c-0.1,1-0.2,2.1-0.5,3.2c-0.1,0-0.1-0.1-0.2-0.1c-0.2,0-0.5,0.1-0.7,0.1l0-0.8c-0.1-3.9-0.2-6.2-0.9-7
		c-0.2-0.2-0.4-0.2-0.6-0.2c-0.5,0.1-1.7,0.2-1,8.4c-0.2,0-0.4,0.1-0.6,0.2c-0.1,0-0.2,0-0.2,0.1c-0.4-2.3-2.2-9.4-3.5-9.4
		c-0.4,0-0.7,0.2-0.9,0.4c-0.8,1-0.1,3.5,0.9,7c0.3,1,0.6,1.9,0.7,2.6c-0.1,0.1-0.2,0.1-0.3,0.1c-0.1,0.1-0.2,0.1-0.2,0.1
		c-0.7-1-1.3-2.1-1.9-3c-1.3-2.3-2.3-3.9-3.3-3.5c-0.3,0.1-0.5,0.3-0.6,0.6c-0.4,1,0.6,3.1,2.4,6.4c0.3,0.6,0.7,1.3,1,1.9
		c0.1,0.2,0.3,0.7,1,1.8c-4.3-1.5-6-1.8-6.5-1.2c-0.2,0.2-0.3,0.5-0.2,0.8c0.1,0.3,0.5,0.8,1,1.2c-0.1,0-0.1,0-0.2,0
		c-0.4,0-0.8,0.1-1.3,0.1c-0.8,0.1-1.5,0.2-2.2,0.1c-0.7-0.1-1.5-0.3-2.2-0.5c-0.5-0.1-0.9-0.3-1.4-0.4c-1.3-0.3-3.4-0.2-5.3,0.4
		c-0.8,0-1.6,0.2-2.5,0.4c-0.4-2-3-3.7-6.3-3.9c-2.1-0.1-4.2,0.4-5.4,1.5c-0.6-0.1-1.2-0.2-1.7-0.2c-3.8-0.2-7,1.2-7.6,3.3
		c-0.3,0.1-0.7,0.2-1,0.3c-3.5,1.3-5.6,4-4.8,6.2c0.2,0.4,0.4,0.8,0.8,1.1c-1,0.6-2,1.3-2.9,2.1c-2,1.7-3.6,3.8-4.4,5.7
		c-0.9,2.1-0.8,3.8,0.2,4.9c0.7,0.8,1.7,1.2,2.9,1.2c0.4,0,0.8,0,1.2-0.1c-0.6,0.5-1.1,1.2-1.4,2c-1.8,0.7-3.1,2.5-3.1,4.5
		c0,2,1.2,3.8,3.1,4.5c-0.1,0.5-0.2,1-0.2,1.5c0,2.9,2.3,5.2,5.1,5.2h0c0,0.1,0,0.1,0,0.2c0,2.1,1.7,3.9,3.7,3.9
		c0.9,0,1.8-0.3,2.5-1c1,0.4,2,0.7,3.1,0.7c0.1,0.1,0.5,0.5,0.7,0.7c0.6,0.7,1,1.1,1.3,1.3c1,0.6,2,0.7,2.9,0.7c0.4,0,0.7,0,1.1-0.1
		c0.4,0,0.8-0.1,1.3-0.2c0.6,0.3,1.1,0.6,1.7,0.9c3.3,1.5,7,2.3,10.9,2.3c1,0,2-0.1,3-0.2l0.5,2.6c-2.1-0.1-9.1,0.6-17.2,13.2
		c-2.7,4.2-5.6,9.1-7.2,12.6c-0.8,1-1.3,2-1.4,3c-0.1,1.1,0.2,2.1,1,3c0.7,0.8,1.5,1.2,2.5,1.2c0.1,0,0.1,0,0.2,0
		c4-0.2,9.2-7.3,10.8-9.7c0.1,2.2,0.3,5.3,0.6,8.7c-0.5,0.5-0.9,1.1-1.2,1.8c-0.1,0-0.1,0.1-0.2,0.1c-0.3,0-0.6-0.1-0.9-0.1
		c-3.8,0-6.9,2.8-6.9,6.2c0,2,1.1,3.8,2.9,5c-0.2,0.3-0.3,0.6-0.5,0.8c-1.4,3.1,0,6.7,3.1,8.1c1.8,0.8,3.7,0.7,5.3-0.2
		c0.2,1.8,0.3,3.4,0.5,4.9c-0.2,0-0.5-0.1-0.7-0.1c-3.7,0-6.7,2.6-6.7,5.8c0,0.4,0,0.7,0.1,1.1c-3.5,0.2-6.3,2.7-6.3,5.8
		c0,3.2,3,5.8,6.7,5.8c0.9,0,1.7-0.2,2.5-0.5c0.1,0,0.1,0,0.2,0c0.1,0,0.1,0,0.2-0.1c0,0,0,0,0,0c0.5,2.8,3.2,4.9,6.4,4.9
		c0.3,0,0.5,0,0.8-0.1c0.9,20.8,1.4,32.4,1.5,34.5c0,0-0.1,0.1-0.2,0.1c-1.1-3.6-7.4-6.3-12.9-6.3c-4.4,0-7.7,1.7-9.1,4.6
		c-2.7-0.3-5.5-0.5-8.1-0.5c-7.2,0-13.2,2-15,5.1c-0.7,1.3-0.7,2.7,0.1,4c1.3,2.3,3.9,2.4,6.9,2.1c-0.3,0.6-0.4,1.1-0.2,1.6
		c0.5,2.1,4.3,2.9,8.6,1.8c0.3-0.1,0.6-0.2,0.9-0.3c0.7,1.2,2.4,1.8,4.7,1.8c1.1,0,2.4-0.2,3.6-0.5c2-0.5,3.8-1.3,5-2.4
		c1.1,1.1,2.8,1.5,4.5,1.1c0.8-0.2,1.5-0.6,2.1-1.1c0.7,0.1,1.4,0.1,2.1-0.4c0.9-0.6,1.3-1,1.5-1.3c2-1.1,6.9-3.6,8.3-3.6
		c1.6,0,2.7-0.5,3.1-1.4c0.8-1.6-0.6-4-1-4.7c0.3-2.3,3.6-27.9,2.8-40.7c1,0.4,2.1,0.7,3.2,0.7c1.9,0,3.6-0.6,5-1.8
		c0.2,0.1,0.5,0.1,0.7,0.2c0.9,5,2,11.2,2.4,14.1c0.8,5.8,2.2,21.2,2.7,26.9c-1-0.3-2.2-0.5-3.6-0.5c-3.3,0-6,1.2-6.1,2.8
		c-2.4,0.5-3.8,1.4-3.8,2.6c0,0.9,0.8,1.6,2,2.1l-1.4,0.6c-3.5-1.4-3.9-0.9-4.1-0.8c-0.6,0.7-0.9,1.4-0.7,2c0.2,0.7,0.8,1.1,1.3,1.3
		c0.1,0.1,0.2,0.2,0.3,0.2c0,0,0,0,0,0c0.1,0.4,0.5,0.9,1.5,1.2c0.2,0.5,0.9,1.6,2.7,1.8c0.3,0.2,1,0.6,2,0.6c0.5,0,1.1-0.1,1.7-0.5
		c1-0.7,1.4-0.8,1.5-0.9c0.1,0,0.1,0,0.2,0c2.6-1.2,8-3.6,9.5-3.8c1.6-0.2,2.7-0.8,3.2-1.8c0.3-0.5,0.3-1.2,0.1-1.9
		c1.3,0.5,3,0.7,4.6,0.7c0.2,0,0.5,0,0.7,0l0,0c0.9,0.7,2.3,1.2,4.1,1.5c1.7,0.3,3.9,0.4,6.2,0.4c5.2,0,10.9-0.6,13.4-1.7
		c1.1-0.4,1.6-1,1.7-1.7c0-0.5-0.2-1-0.7-1.5c0.9-0.2,1.6-0.5,2.1-0.8C238.5,239.2,238.7,238.4,238.6,237.8z M209.5,157.3
		c0.6,1.1,0.7,2.3,0.2,3.6c0,0.1,0,0.2,0,0.3c0.1,0.1,0.2,0.2,0.3,0.2c1.2,0.3,2.1,0.9,2.7,1.9c1.3,2.2,0.1,5.2-2.5,6.7
		c-0.1,0-0.2,0.1-0.2,0.1c-1.2-0.5-2.5-0.7-3.8-0.7c-0.7,0-1.5,0.1-2.3,0.3c-1.6-2.2-4.2-3.5-7.1-3.5c-0.3,0-0.7,0.1-1,0.1
		c0-0.2,0.1-0.4,0.1-0.6c0-0.1,0-0.2,0-0.3c-0.1-0.1-0.2-0.2-0.3-0.2c-2.1-0.5-3.6-1.9-3.8-3.7c-0.3-2.5,1.9-4.8,4.9-5.2
		c0.3,0,0.5,0,0.8,0c1.2,0,2.3,0.3,3.3,0.9c0.2,0.1,0.4,0.1,0.5,0c0.4-0.4,0.8-0.7,1.2-0.9C205.1,154.6,208.3,155.2,209.5,157.3z
		 M200.7,57.4c0.6,0.3,0.7,4.2,0.7,6.4l0,0.9c-0.3,0-0.7,0.1-1,0.2C200,59.8,200.4,57.6,200.7,57.4z M195.1,56.7
		c0,0,0.1-0.1,0.1-0.1c0.7,0.7,2.4,6.3,2.8,8.8c-0.4,0.1-0.7,0.2-1.1,0.3c-0.2-0.8-0.5-1.7-0.8-2.8
		C195.5,60.8,194.5,57.4,195.1,56.7z M179.5,71c0.6,0,1.1,0.1,1.5,0.2c0.5,0.1,0.9,0.2,1.3,0.4c0.8,0.2,1.6,0.5,2.4,0.6
		c0.8,0.1,1.6,0,2.3-0.1c0.4-0.1,0.8-0.1,1.2-0.1c0.5,0,0.9,0,1.3,0c1.7,1.1,4.2,2.3,6,3c0.8,0.9,1.5,1.8,1.9,2.9
		c0.1,0.1,0.2,0.2,0.3,0.3c0.7,0.2,1.3,0.6,2,0.9c0.3,0.5,0.7,0.9,0.9,1.3c0.8,2,2,5.2,3.2,8.6c-0.4,0.2-0.9,0.4-1.3,0.7
		c-0.1-1.6-0.3-3.1-0.5-3.9c-0.1-0.2-0.3-0.4-0.5-0.3c-0.2,0.1-0.4,0.3-0.3,0.5c0.3,1.3,1,4.6,0.1,7.2c-0.5,1.5-1.3,2.6-2.4,3.1
		c0.3-1.3,0.3-2.7,0.2-4c0-0.2-0.2-0.4-0.3-0.4c-0.2,0-0.4,0.1-0.5,0.2l-1.4,3c-0.2,0.4-0.6,0.7-0.7,0.7c0-0.1,0-0.2-0.1-0.3
		l-0.3-5.2c0-0.2-0.2-0.4-0.4-0.4c-0.2,0-0.4,0.1-0.5,0.3c-0.6,1.6-1.4,3-2.5,4.3c-0.1,0.1-0.2,0.2-0.2,0.2c0.2-2,0-4-0.4-6
		c-0.1-0.2-0.3-0.4-0.5-0.3c-0.2,0-0.4,0.2-0.4,0.5c0,0.6-0.3,1.3-0.9,1.6c-0.2-1.2-0.4-2.3-0.4-3.5c0-0.2-0.2-0.4-0.4-0.4h0
		c-0.2,0-0.4,0.2-0.4,0.4c0,0.6-0.3,1.2-0.8,1.6c0-0.8-0.1-1.6-0.3-2.4c0-0.2-0.2-0.3-0.4-0.3c-0.2,0-0.3,0.1-0.4,0.2l-2.8,5.3
		c-0.5,0.9-1.1,1.9-2,1.9c-0.1,0-0.2,0-0.2,0c-0.1-0.1-0.1-0.3-0.1-0.3l-0.1-5.6c0-0.2-0.1-0.4-0.3-0.4c-0.2-0.1-0.4,0-0.5,0.2
		l-3.5,6.4c-0.6,1-1.2,2.1-2.2,2.6c0.8-2.2,1.5-4.5,2.1-6.7c0.1-0.2-0.1-0.4-0.2-0.5s-0.4,0-0.5,0.2c-1.8,2.8-4.3,5.2-7.3,6.8
		c0.3-0.8,0.6-1.5,1.1-2.2c0.1-0.2,0.1-0.4-0.1-0.6c-0.2-0.1-0.4-0.1-0.6,0.1c-1,1.1-2.1,2-3.4,2.7l2-3c0.1-0.2,0.1-0.4-0.1-0.5
		c-0.2-0.2-0.4-0.2-0.6,0l-3.5,2.8c-0.9,0.8-2,1.5-3,1.5l4-5.2c0.1-0.2,0.1-0.4,0-0.5c-0.2-0.2-0.4-0.2-0.5-0.1
		c-2.6,1.7-5.4,3.3-8.1,2.9c0-0.2,0.1-0.5,0.2-0.7c0.3-0.2,0.5-0.5,0.5-0.7c0.1-0.2,0-0.4-0.2-0.5c-0.2-0.1-0.4-0.1-0.5,0.1
		c-0.2,0.2-0.3,0.4-0.5,0.6c-0.2,0.1-0.4,0.3-0.7,0.4c-0.5,0.2-0.8,0.2-0.9,0.2c-0.1-0.3,0.6-1.6,1.3-2.3c0.2-0.1,0.4-0.3,0.5-0.5
		c0.1-0.2,0-0.4-0.2-0.5c-0.2-0.1-0.4-0.1-0.5,0c-0.1,0.1-0.2,0.1-0.3,0.3c0,0-0.1,0-0.1,0c-0.2,0-0.5-0.2-0.6-0.4
		c-0.1-0.6,0.3-1.2,0.8-1.8c0.8-0.1,1.5-0.3,2.3-0.6c1.7-0.7,3.1-2.2,4.1-3.4c-0.1,1,0.1,2,0.7,2.7c0.8,1.1,2.3,1.7,4.1,1.6
		c1.7-0.1,3.6-0.8,5.2-2c1.8-1.3,3.1-3,3.7-4.8l0,0c0.1-0.1,0.2-0.1,0.3-0.2c1.7-1.2,2.9-2.7,3.5-4.3c0.6-1.7,0.6-3.2-0.3-4.4
		c-0.4-0.6-1-1-1.6-1.2C178.6,71,179.1,71,179.5,71z M197.6,76c0.3,0.4,0.7,0.9,1.1,1.4c-0.2-0.1-0.3-0.2-0.4-0.2
		C198.1,76.8,197.8,76.4,197.6,76z M205.5,103.2l-0.3-0.4c-0.1-0.1-0.3-0.2-0.4-0.2c-0.2,0-0.3,0.2-0.3,0.3
		c-0.2,1.6-1.4,3.1-2.9,3.7c-0.1,0.1-0.2,0.2-0.3,0.3c-0.5,1.7-1.7,3.2-3.1,4.2c3.6-3.9,5.8-8.7,6-13.6c0.7-0.5,1.4-1.2,1.9-2
		c0.7,2.7,1.1,4.9,0.8,5.8c-0.2,0.4-0.5,1.3-1,2.4C205.7,103.6,205.6,103.4,205.5,103.2z M205.5,104.7c-2.3,5.5-6.5,15.7-7.4,17.8
		c-1.1-0.4-4.1-1.4-6.9-0.6l-0.7-4.8c2.3-1.2,4.4-2.7,6.2-4.4c0,0,0.1,0,0.1,0c0.4,0,0.9-0.2,1.1-0.3c1.9-1,3.4-2.8,4.1-4.9
		c1.4-0.6,2.5-1.9,3-3.3C205.2,104.3,205.4,104.5,205.5,104.7z M205.7,94.5c-0.4,0.8-1,1.5-1.5,2c0-1.6-0.3-3.3-0.8-4.9
		c-0.1-0.4-0.3-0.9-0.4-1.3c0.4-0.4,0.8-0.6,1.2-0.7C204.7,91.2,205.3,92.9,205.7,94.5C205.7,94.4,205.7,94.5,205.7,94.5z M161,96.3
		l-0.2,0.2c-0.1,0.1-0.1,0.2-0.1,0.4c0,0.1,0.1,0.2,0.3,0.3c0,0,0,0,0.1,0c0,0.3,0.1,0.6,0.1,0.8c0.1,0.6,0.2,1.1,0.2,1.7
		c-0.7,0-1.2-0.2-1.5-0.5c-0.1-0.2-0.4-0.2-0.6-0.1c-0.2,0.1-0.2,0.4-0.1,0.6c0.8,1.2,0.9,2.1,1,3.6c-1.2-0.1-1.9-0.9-2.9-2.3
		c-0.1-0.1-0.3-0.2-0.5-0.2c-0.2,0.1-0.3,0.2-0.3,0.4l0,0.2c0,1.4-0.2,2.7-0.9,2.9c-0.9-0.2-2-0.3-2.9-0.1c-0.5-1.9-1.9-3.4-3.8-3.9
		c0-0.2,0.1-0.4,0.1-0.7c1.2-0.7,1.9-2,1.9-3.4c0-1.7-1-3.1-2.5-3.8c0.2-0.4,0.4-0.6,0.7-0.7c0.1,0,0.1-0.1,0.2-0.1
		c0.1,0,0.1,0,0.2,0.1c0.2,0.1,0.5,0,0.6-0.2c0.1-0.2,0.1-0.5-0.2-0.6c-0.1-0.1-0.2-0.1-0.3-0.2c0.7-0.4,1.3-0.9,1.9-1.5
		c0.7-0.6,1.3-1.2,1.9-2c0.5,0.1,1.1,0.2,1.7,0.1c-0.4,0.6-0.6,1.2-0.5,1.9c0.1,0.5,0.5,0.9,0.9,1c-0.6,0.8-1.3,2-1,2.7
		c0.1,0.2,0.3,0.6,1,0.5c0.3,0,0.6-0.1,1-0.3c0,0.1,0,0.3,0,0.4c0,0.2,0.1,0.4,0.3,0.4c2.5,0.6,4.8-0.3,7.1-1.7l-2.2,2.9
		c-0.1-0.1-0.2-0.1-0.3-0.1c-0.2,0-0.4,0.2-0.4,0.4C160.9,96,160.9,96.1,161,96.3z M155.1,105c0,0-0.1,0.1-0.1,0.1
		c0,0.1,0,0.2,0.1,0.3c0.4,0.9,0.6,1.8,1,2.7c0.1,0.3,1.1,2.6,1.4,2.5c-1,0.1-2.2-0.1-3.4-0.7c-1.4-0.7-2.5-1.8-2.8-2.9
		c-0.2-0.5-0.1-0.9,0.1-1.3c0.3-0.6,1.1-0.9,2.1-0.9c0.3,0,1-0.1,1.6-0.2c0,0,0,0.1,0,0.1C155,104.9,155,105,155.1,105z M140.9,91.6
		c-0.7-0.9-0.8-2.3,0-4c0.8-1.9,2.3-3.8,4.2-5.4c0.9-0.7,1.8-1.4,2.7-1.9c0.1,0,0.2,0,0.2,0c1-0.5,2.3-0.2,3,0.6
		c0.1,0.1,0.2,0.1,0.3,0.1c0,0,0.1,0,0.1,0c0.1,0,0.3-0.1,0.3-0.3c0.4-0.9,1.3-1.6,2.2-1.6c1-0.1,1.9,0.4,2.4,1.3
		c0.2,0.3,0.4,0.5,0.7,0.4c0.2,0,0.4-0.2,0.4-0.4c0.1-0.2,0-0.5-0.2-0.6c-0.1-0.1-0.2-0.1-0.3-0.1c-0.7-1-1.9-1.6-3.1-1.5
		c-1.1,0.1-2.1,0.7-2.7,1.6c-0.8-0.6-1.7-0.8-2.7-0.7c0,0-0.1-0.1-0.1-0.1c-0.5-0.3-0.9-0.6-1.1-1.1c-0.6-1.6,1.4-4,4.3-5.1
		c0.4-0.1,0.8-0.3,1.1-0.4c0.2-0.1,0.3-0.2,0.3-0.3c0.4-1.7,3.1-2.9,6.3-2.9c0.2,0,0.4,0,0.6,0c0.4,0,0.8,0.1,1.2,0.1
		c-0.6,1-0.9,2.2-0.8,3.2c0,0.2,0.2,0.4,0.4,0.4c0.2,0,0.4-0.2,0.4-0.4c0-1,0.4-2.2,1-3.2c0,0,0,0,0,0c1.1-1,3-1.5,5-1.4
		c3.1,0.2,5.6,1.8,5.5,3.6c0,0.1,0.1,0.3,0.2,0.4c0.1,0.1,0.3,0.1,0.4,0c2.5-1,4.8-0.7,5.8,0.8c0.7,0.9,0.7,2.2,0.2,3.6
		c-0.6,1.5-1.7,2.9-3.2,3.9c-0.1,0.1-0.2,0.1-0.2,0.1l-0.2,0.1c-0.1,0.1-0.2,0.2-0.2,0.3c-0.5,1.6-1.7,3.3-3.4,4.5
		c-1.5,1.1-3.2,1.7-4.8,1.8c-1.5,0.1-2.7-0.4-3.3-1.3c-0.8-1.1-0.7-2.6,0.2-4.2c0.1-0.1,0.1-0.3,0-0.4c-0.1-0.1-0.2-0.2-0.4-0.2
		c-0.3,0-0.4,0.2-0.9,0.8c-0.8,1.2-2.5,3.6-4.7,4.4c-0.4,0.2-0.9,0.3-1.3,0.4c-1.3,0.3-2.5,0.3-3.5,0.1c-0.2-0.1-0.3,0-0.4,0.1
		s-0.2,0.2-0.3,0.3c-0.6,0.7-1.2,1.2-1.7,1.7c-0.6,0.5-1.3,1-1.9,1.4v0c-0.2,0.2-0.5,0.3-0.7,0.4c-1.1,0.7-2.3,1.2-3.4,1.5
		C143.1,92.6,141.6,92.4,140.9,91.6z M147.8,91.9c-0.1,0.1-0.2,0.3-0.2,0.4c-0.2,0-0.4-0.1-0.6-0.1
		C147.3,92.2,147.5,92.1,147.8,91.9z M154.2,113C154.2,113,154.2,113,154.2,113C154.2,113,154.2,113,154.2,113c-0.1,0-0.1,0-0.2,0
		c-0.1,0-0.3,0-0.4,0.1c-0.5,0.6-1.3,0.9-2,0.9c-1.6,0-2.9-1.4-2.9-3c0-0.2,0-0.4,0.1-0.6c0-0.1,0-0.3-0.1-0.4
		c-0.1-0.1-0.2-0.1-0.3-0.1c0,0,0,0,0,0l-0.2,0c-0.1,0-0.2,0-0.3,0c-2.3,0-4.2-2-4.2-4.4c0-0.5,0.1-1.1,0.3-1.6c0-0.1,0-0.2,0-0.3
		c-0.1-0.1-0.2-0.2-0.3-0.2c-1.7-0.4-2.9-2-2.9-3.8c0-1.7,1.1-3.3,2.7-3.7c0.1,0,0.2-0.2,0.3-0.3c0.4-1.4,1.6-2.4,3.1-2.4
		c1.8,0,3.2,1.4,3.2,3.2c0,1.2-0.6,2.2-1.7,2.8c-0.1,0.1-0.2,0.3-0.2,0.4c0,0.3-0.1,0.7-0.2,1.1c0,0.1,0,0.2,0.1,0.3
		c0.1,0.1,0.2,0.2,0.3,0.2c1.8,0.2,3.1,1.6,3.5,3.3c-0.6,0.2-1.1,0.5-1.3,0.9c-0.3,0.6-0.4,1.2-0.1,1.9c0.4,1.3,1.6,2.5,3.2,3.4
		c1.2,0.6,2.3,0.9,3.4,0.9c0.3,0,0.5,0,0.7-0.1c-0.6,1-1.6,1.6-2.8,1.6C154.7,113.1,154.5,113.1,154.2,113z M163,116.4
		c-1.5,0.2-2.5,0-3.4-0.6c-0.2-0.1-0.7-0.7-1.1-1.1c-0.8-0.9-0.9-1-1.2-1c-0.3,0-0.6-0.1-0.8-0.1c0.8-0.3,1.5-0.9,1.9-1.7
		c1.3,1.7,3,3.2,4.9,4.4C163.2,116.4,163.1,116.4,163,116.4z M166.8,117.4c-0.7-0.3-1.3-0.6-1.9-1c0,0,0,0-0.1-0.1
		c-0.1-0.1-0.2-0.1-0.2-0.1c0,0-0.1,0-0.1-0.1c0,0,0,0,0,0c-1.7-1-3.3-2.3-4.7-3.8c-0.9-1-1.8-2.2-2.4-3.5c-0.3-0.6-0.6-1.3-0.9-1.9
		c-0.2-0.6-0.4-1.3-0.7-1.8c1.2-0.3,1.5-1.6,1.6-2.8c0.8,1,1.7,1.8,3.3,1.7c0.2,0,0.4-0.2,0.4-0.4l0-0.3c-0.1-1.1-0.1-2-0.5-2.9
		c0.5,0.1,1,0.1,1.3,0.1c0.2,0,0.4-0.2,0.4-0.4c0-0.8-0.2-1.5-0.3-2.2c0-0.2,0-0.4-0.1-0.6c1.2,0,2.4-0.8,3.4-1.7l1.2-1l-1.2,1.7
		c-0.1,0.1-0.1,0.3,0,0.5c0.1,0.2,0.3,0.2,0.5,0.1c1.2-0.4,2.3-1,3.3-1.8c-0.1,0.4-0.3,0.8-0.3,1.3c0,0.2,0,0.3,0.2,0.4
		c0.1,0.1,0.3,0.1,0.4,0c2.7-1.4,5.2-3.3,7.1-5.7c-0.5,1.8-1.1,3.6-1.8,5.3c-0.1,0.1,0,0.3,0.1,0.4c0.1,0.1,0.3,0.2,0.4,0.2
		c1.6-0.3,2.7-1.8,3.5-3.3l2.8-5l0.1,4c0,0.2,0,0.6,0.3,0.9c0.2,0.2,0.5,0.3,0.8,0.3c1.3-0.1,2.1-1.2,2.7-2.4l2.2-4.2
		c0.1,0.6,0.1,1.2,0.1,1.8c0,0.2,0.1,0.3,0.2,0.4c0.1,0.1,0.3,0.1,0.4,0c0.4-0.2,0.8-0.5,1.1-0.9c0.1,0.8,0.2,1.6,0.4,2.3
		c0,0.1,0.1,0.2,0.2,0.3c0.1,0.1,0.2,0.1,0.3,0c0.5-0.2,1-0.5,1.3-1c0.2,1.5,0.2,3,0.1,4.5c0,0.1,0,0.2,0.1,0.3
		c0.1,0.2,0.4,0.3,0.6,0.3c0.4,0,0.8-0.3,1.1-0.6c0.7-0.9,1.4-1.9,1.9-3l0.2,3.5c0,0.2,0,0.4,0.2,0.7c0.2,0.3,0.5,0.4,0.8,0.4
		c0.6-0.1,1.2-0.6,1.4-1.1l0.6-1.3c-0.1,0.9-0.2,1.8-0.4,2.7c0,0.1,0,0.3,0.1,0.4c0.1,0.1,0.2,0.2,0.4,0.1c1.6-0.3,2.9-1.8,3.6-3.9
		c0.2-0.6,0.3-1.1,0.4-1.7c0,0.1,0.1,0.1,0.1,0.2c3.2,10.7-4.6,22.6-17.4,26.5C179.2,120.1,172.6,119.9,166.8,117.4z M164,136.4
		c9.1-14.1,16.8-12.8,16.9-12.8c0.1,0,0.3,0,0.4-0.1c0.1-0.1,0.2-0.2,0.1-0.4l-0.6-3.1c1.5-0.2,3-0.5,4.5-1c1.5-0.4,2.9-1,4.3-1.7
		l0.8,5c0,0.1,0.1,0.2,0.2,0.3c0.1,0.1,0.2,0.1,0.4,0c3.3-1.2,7.1,0.6,7.2,0.6c0.1,0,0.2,0.1,0.3,0c0.1,0,0.2-0.1,0.2-0.2
		c0.3-0.8,7.9-18.8,8.9-21.5c0.4-1.2-0.1-4-1-7.2c-0.1-0.4-0.3-0.9-0.4-1.3c-0.4-1.2-0.8-2.5-1.2-3.7c-0.1-0.3-0.2-0.6-0.3-0.8
		c-1.5-4.2-2.9-7.9-3.3-8.8c0,0,0-0.1-0.1-0.1c-3.8-5.1-3.8-5.1-4-5.2c-3.2-0.9-9.1-4.1-9.2-4.9c0.5-0.2,2.7,0.4,6.7,1.7
		c0.2,0.1,0.4,0,0.5-0.1c0.1-0.1,0.1-0.3,0-0.5l-0.2-0.3c-0.3-0.5-1.1-2-1.2-2.2c0-0.1,0-0.1-0.1-0.1c-0.3-0.6-0.7-1.3-1-2
		c-1.2-2.2-2.6-5-2.3-5.7c0-0.1,0-0.1,0.1-0.1c0.4-0.1,1.6,1.9,2.3,3.2c0.6,1,1.2,2.1,1.9,3.1c-0.3,0.2-0.5,0.3-0.5,0.3
		c-0.2,0.1-0.3,0.4-0.1,0.6c0.1,0.1,0.2,0.2,0.4,0.2c0.1,0,0.1,0,0.2-0.1c0,0,2.8-1.6,7.4-2.1c0.2,0,0.4,0,0.5,0c0.5,0,0.7,0,0.9,0
		c0.2,0,0.3-0.2,0.4-0.3c0.3-1.3,0.5-2.5,0.6-3.6c0.1-1.2,0.3-2.5,0.6-2.7l0.1,0c0.2,0.3,0.1,3-0.2,7.3c-0.2,4.1-0.6,7.6-0.6,8.2
		c-0.3,0.4-1.1,1.2-1.9,1.2c-0.2,0-0.4,0.2-0.4,0.4c0,0.2,0.2,0.4,0.4,0.4c0.9,0,1.7-0.6,2.1-1.1c0.8,2.1,3.3,8.7,6,14.4
		c0.2,0.4,0.5,0.9,0.7,1.4c2.1,4.1,4.4,8.7,2.3,14.9c-0.9,2.7-3,8.2-5.3,14c-2,5.1-4.1,10.5-5.5,14.3c-2.1,5.9-1.2,15.7-0.6,20.9
		c-0.1,0.1-0.2,0.1-0.4,0.2c-0.4,0.2-0.7,0.5-1.1,0.8c-1.3-0.7-2.8-1-4.4-0.8c-3.2,0.4-5.6,2.7-5.7,5.3c-0.2,0-0.4-0.1-0.6-0.1
		c-0.5,0-1.1,0.1-1.6,0.2c0,0,0-0.1,0-0.1c0-3.4-3.1-6.2-6.9-6.2c-0.5,0-0.9,0.1-1.5,0.2c-1.3-1.4-3.2-2.1-5.2-2.1
		c-1.7,0-3.3,0.6-4.5,1.5c-0.2-3.4-0.4-6.3-0.6-8.5c2.5,0.6,5.9,0.6,6.5,0.6c0.4,0.2,1.9,0.9,2.7,1.8c1.4,1.6,2.6,1.8,3.2,1.5
		c0.5-0.3,0.7-0.8,0.5-1.4c-0.2-0.8-2.2-2.7-3.6-4c0.9,0.2,2.1,0.5,3.1,0.8c2,0.6,3.4,0.5,3.7-0.2c0.1-0.3,0.1-0.6,0-0.8
		c-0.3-0.6-1.2-1.1-3.8-1.9c-1-0.3-1.9-0.8-2.5-1.2c1.6,0.2,3.9,0.4,5.7,0.2c1.3-0.2,1.8-1,1.7-1.7c0-0.6-0.4-1.1-0.9-1.2
		c-2.3-0.1-4.6-0.5-6.1-0.7c2.2-0.9,5.6-2.7,5.1-4.7c-0.1-0.2-0.2-0.3-0.4-0.4c-0.5-0.3-1.5,0.1-2.9,0.7c-0.3,0.1-0.6,0.3-0.9,0.4
		c-2.8,1.1-5.8,1.9-7,2.2c0.2-1.1,0.5-3.4,0.3-4.7c-0.1-0.7-0.4-1.2-0.8-1.5c-0.5-0.4-1.1-0.3-1.2-0.3c-0.2,0-0.3,0.2-0.3,0.4
		c0,0.1-1.2,6.2-4.5,9.2c-1.3,1.1-2.7,2.2-4.3,3.4c-1.8,1.4-3.7,2.8-5.2,4.2C159.4,143.9,161.3,140.6,164,136.4z M169.5,144.7
		c-0.2-0.1-0.4,0-0.5,0.2c-0.1,0.1-6.4,9.8-10.7,10.1c-0.8,0.1-1.5-0.3-2-0.9c-0.6-0.8-0.9-1.5-0.8-2.4c0.3-2.8,4.4-5.8,8.3-8.8
		c1.5-1.2,3.1-2.3,4.4-3.5c3.1-2.7,4.4-7.8,4.7-9.3c0.1,0,0.2,0.1,0.3,0.1c0.2,0.2,0.4,0.5,0.4,1c0.2,1.6-0.4,5.1-0.4,5.1
		c0,0.1,0,0.3,0.1,0.4s0.2,0.1,0.4,0.1c0,0,4.1-1,7.8-2.4c0.3-0.1,0.6-0.2,0.9-0.4c0.7-0.3,1.8-0.8,2.1-0.8c0.2,1.3-3.4,3.2-6,4.1
		c-0.2,0.1-0.3,0.2-0.3,0.4c0,0.2,0.2,0.4,0.3,0.4c0.1,0,3.9,0.7,7.6,0.9c0.1,0,0.2,0.2,0.2,0.5c-0.1,0.3-0.4,0.6-1,0.7
		c-2.7,0.4-7.1-0.4-7.2-0.4c-0.2,0-0.4,0.1-0.5,0.2c-0.1,0.2,0,0.4,0.1,0.5c0.1,0.1,1.9,1.6,4.2,2.4c0.9,0.3,3.1,1,3.3,1.5
		c0,0,0,0.1,0,0.1c-0.1,0.1-0.8,0.3-2.7-0.3c-2.1-0.7-4.7-1.2-4.8-1.2c-0.2-0.1-0.4,0.1-0.5,0.2c-0.1,0.2-0.1,0.4,0.1,0.5
		c2.1,1.9,4.4,4.1,4.6,4.7c0,0.1,0.1,0.3-0.1,0.4c-0.2,0.1-1.1,0-2.1-1.3c-1-1.2-3-2.1-3.1-2.1c-0.1,0-0.1,0-0.2,0
		C176.5,145.4,172.1,145.5,169.5,144.7z M166.4,176.1c-2.7-1.2-3.9-4.4-2.7-7c0.2-0.3,0.4-0.7,0.6-1.1c0.1-0.1,0.1-0.2,0.1-0.3
		c0-0.1-0.1-0.2-0.2-0.3c-1.8-1-2.9-2.7-2.9-4.5c0-2.9,2.7-5.3,6.1-5.3c0.2,0,0.4,0,0.6,0.1c-0.1,0.6,0.1,1.3,0.4,1.8
		c0.4,0.8,1.2,1.3,2.1,1.5c0,0,0.1,0,0.1,0c0.2,0,0.4-0.1,0.4-0.3c0-0.2-0.1-0.4-0.3-0.5c-0.6-0.1-1.2-0.5-1.5-1
		c-0.2-0.4-0.3-0.9-0.3-1.4c0.1-0.1,0.1-0.1,0.2-0.2c0.7-2.3,3.1-3.9,5.9-3.9c1.9,0,3.6,0.7,4.8,2c0.1,0.1,0.3,0.2,0.4,0.1
		c0.6-0.1,1-0.2,1.5-0.2c3.4,0,6.1,2.4,6.1,5.3c0,0.1,0,0.2,0,0.3c0,0,0,0,0,0c-1.3,0.6-2.2,2-2.1,3.5c0,0.2,0.2,0.4,0.4,0.4
		c0,0,0,0,0,0c0.2,0,0.4-0.2,0.4-0.4c0-1.1,0.6-2.2,1.6-2.7c0.1,0,0.1,0,0.2,0c0.7-0.2,1.4-0.3,2-0.3c0.2,0,0.4,0,0.6,0.1
		c0.3,2,1.8,3.6,4,4.3c-0.1,0.2-0.1,0.4-0.1,0.6c-3.9,0.8-6.8,4.2-6.8,8.2c0,0.1,0,0.3,0,0.4c-1.1-0.4-2.2-0.5-3.4-0.5
		c-1.4,0-2.7,0.3-3.8,0.7c0,0,0,0,0,0c0-0.1,0-0.1,0-0.2c0-0.2-0.1-0.4-0.4-0.4c-0.6-0.1-1.1-0.2-1.5-0.4c-0.6-0.3-1.1-0.7-1.6-1.1
		c-0.1-0.1-0.2-0.1-0.3-0.1c-0.1,0-0.1,0-0.2,0c-1,0.5-2,0.6-3,0.5c-0.2,0-0.4,0.1-0.4,0.2C172.1,176.1,169,177.2,166.4,176.1z
		 M175.5,182.9c-0.8-0.6-1.7-1-2.7-1.2c-0.2-1.7-0.3-3.5-0.5-5.6c0.7-0.5,1.3-1.2,1.8-2c1,0.1,2-0.1,3-0.5c0.5,0.5,1.1,0.8,1.7,1.1
		c0.4,0.2,0.9,0.3,1.4,0.4v0c0,0.1,0,0.1,0,0.2c-2.8,1.3-4.6,3.8-4.6,6.6C175.4,182.4,175.4,182.6,175.5,182.9z M174.3,203.6
		c-3,0-5.5-2-5.6-4.7c0.4-0.4,0.7-0.9,0.8-1.5c0.1-0.2-0.1-0.4-0.3-0.5c-0.2,0-0.4,0.1-0.5,0.3c-0.1,0.5-0.4,1-0.8,1.3
		c-0.9,0.4-1.9,0.7-2.9,0.7c-3.3,0-5.9-2.2-5.9-5c0-2.7,2.6-4.9,5.9-5c0.6,0.2,1.1,0.8,1.1,1.4c0,0.2,0.2,0.4,0.4,0.4c0,0,0,0,0,0
		c0.2,0,0.4-0.2,0.4-0.4c0-0.9-0.6-1.8-1.4-2.1c-0.2-0.5-0.2-0.9-0.2-1.3c0-2.7,2.6-5,5.9-5c1.9,0,3.6,0.8,4.7,2
		c0.6,1.5,1.7,2.8,3.2,3.7c-1,0.2-1.9,0.5-2.5,1.1c-0.8,0.7-1.3,1.7-1.2,2.6c0,0.2,0.2,0.4,0.4,0.4c0,0,0,0,0,0
		c0.2,0,0.4-0.2,0.4-0.4c0-0.7,0.3-1.4,0.9-2c0.5-0.5,1.3-0.8,2.2-0.9c0.3,0,0.9-0.1,1.5,0.1c-0.4,0.9-0.6,1.7-0.6,2.6
		c0,2.3,1.2,4.3,3,5.6c-0.5,1.4-1.7,2.5-3.3,3.1c-0.1,0-0.2,0.1-0.2,0.2C178.7,202.4,176.6,203.6,174.3,203.6z M165.4,250.3
		c-1.5,0.4-3.1-0.1-3.9-1.1c-0.1-0.1-0.2-0.1-0.3-0.2c-0.1,0-0.2,0-0.3,0.1c-1.2,1.1-3,1.9-5,2.4c-3.9,1-7.1,0.2-7.5-1.2
		c0-0.1-0.1-0.2-0.2-0.2c-0.1,0-0.1,0-0.2,0c0,0-0.1,0-0.1,0c-0.4,0.1-0.8,0.3-1.2,0.4c-4.1,1-7.2,0.2-7.6-1.2
		c-0.2-0.6,0.2-1.3,0.6-1.7c0.1-0.1,0.1-0.3,0-0.5s-0.3-0.2-0.4-0.2c-3.8,0.5-5.9,0.4-7-1.5c-0.6-1.1-0.7-2.2-0.1-3.2
		c1.6-2.7,7.4-4.6,14.3-4.6c2.7,0,5.6,0.2,8.4,0.5c0.2,0,0.4-0.1,0.4-0.3c1.1-2.8,4.3-4.4,8.4-4.4c5.7,0,11.3,2.8,12.1,5.8
		c-1.4,0.7-3.8,1.8-4.8,2.1c-1.2,0.3-4.7,1.5-5.3,1.6c-1.4-0.2-3.7-0.4-4.2,0.2c-0.5,0.5-0.7,1.1-0.6,1.6c0.1,0.5,0.6,0.8,0.9,1
		c0,0.5,0.4,1.3,1.5,1.7c0.2,0.5,0.9,1.6,2.7,1.8c0.1,0.1,0.5,0.3,0.9,0.4C166.3,250,165.8,250.2,165.4,250.3z M180.8,238.7
		c0,0.1,0,0.2,0.1,0.3c0.9,1.3,1.6,3,1.1,4c-0.3,0.6-1.1,0.9-2.4,0.9c-1.9,0-8.2,3.4-8.9,3.8c-0.1,0.1-0.2,0.2-0.2,0.3
		c-0.1,0.1-0.3,0.4-1.2,1c-1.1,0.7-2.5,0-3-0.3c0,0,0-0.1,0-0.1c-0.1-0.1-0.6-0.5-0.2-1.2c0.1,0,0.2,0,0.3,0c0.1,0,0.2,0,0.2,0
		c0.2,0.1,0.4,0.2,0.5,0.4c0.2,0.4,0.5,0.6,0.8,0.6c0.1,0,0.1,0,0.2,0c0.3,0,0.4-0.1,0.5-0.1c0.2-0.1,0.2-0.4,0.1-0.6
		c-0.1-0.2-0.4-0.2-0.6-0.1c-0.1,0-0.1-0.1-0.3-0.2c0,0-0.1-0.1-0.1-0.1c0.2-0.1,0.3-0.1,0.5-0.2c0.2-0.1,0.3-0.4,0.1-0.6
		c-0.1-0.2-0.4-0.3-0.6-0.1c-0.4,0.2-0.7,0.2-1,0.2c-0.3-0.1-0.6-0.2-0.6-0.2c-0.1,0-0.2,0-0.3,0.1c-0.1,0-0.3,0.1-0.4,0.2
		c-0.4,0.5-0.4,1-0.3,1.4c-1.1-0.4-1.4-1.2-1.4-1.2c0,0,0,0,0,0c-0.1-0.2-0.1-0.5-0.1-0.6c1.8,0.3,2.2-0.5,2.2-0.6
		c0.1-0.2,0-0.5-0.2-0.6c-0.2-0.1-0.5,0-0.5,0.2c0,0-0.2,0.4-1.4,0.2c-0.4-0.1-0.7,0.1-0.8,0.2c-0.1,0.2-0.2,0.4-0.2,0.6
		c-0.5-0.3-0.5-0.8-0.5-0.9c0,0,0,0,0,0c0,0,0,0,0,0c-0.1-0.3,0-0.8,0-0.8c0,0,0.1,0,0.2,0.1c1.2,0.6,2.2,0.1,2.2,0.1
		c0.2-0.1,0.3-0.4,0.2-0.6c-0.1-0.2-0.4-0.3-0.6-0.2c0,0-0.7,0.3-1.5-0.1c-0.5-0.3-0.9-0.1-1,0c-0.2,0.2-0.3,0.4-0.3,0.7
		c0,0,0-0.1-0.1-0.1c-0.1-0.3,0.2-0.6,0.4-0.8c0.3-0.2,2-0.2,3.6,0c0.1,0,0.1,0,0.2,0c0,0,4.1-1.3,5.4-1.7c1.6-0.5,5.9-2.6,6.1-2.7
		c0.2-0.1,0.3-0.2,0.2-0.4c0-0.5-1-22.7-1.5-34.8c1.9-0.4,3.5-1.6,4.3-3.2c1.6-0.6,2.8-1.7,3.4-3
		C184.4,211.2,180.9,238.4,180.8,238.7z M194.1,196.4c-0.3,0-0.6-0.1-0.9-0.2c0,0,0,0,0,0.1c-0.1-0.1-0.3-0.1-0.4-0.2
		c-0.2-0.1-0.3-0.1-0.5,0.1c-1.3,1.1-2.9,1.7-4.7,1.7c-3.7,0-6.8-2.8-6.8-6.2c0-0.7,0.2-1.4,0.5-2.2c0.1,0.1,0.3,0.1,0.5,0
		c0.2-0.1,0.2-0.4,0-0.6c-0.1-0.1-0.2-0.1-0.3-0.2c0,0,0-0.1,0-0.1c0-0.1-0.1-0.2-0.3-0.2c-3.1-1.1-5.2-3.5-5.2-6.3
		c0-3.7,3.8-6.8,8.5-6.8c1.3,0,2.5,0.2,3.7,0.7c0.1,0.1,0.3,0,0.4-0.1c0.1-0.1,0.2-0.2,0.2-0.4l0-0.2c0-0.2-0.1-0.5-0.1-0.7
		c0-4.2,3.5-7.6,7.8-7.6c2.6,0,5.1,1.3,6.5,3.4c0.1,0.1,0.3,0.2,0.5,0.2c0.9-0.2,1.7-0.4,2.4-0.4c4.7,0,8.5,3.4,8.5,7.6
		c0,3-2,5.7-5,6.9c-0.1,0-0.2,0.1-0.2,0.2c0,0.1,0,0.2,0,0.3c0.3,0.7,0.4,1.4,0.4,2.2c0,3.4-3,6.2-6.8,6.2c-0.2,0-0.3,0-0.5,0
		l-0.2,0c-0.2,0-0.3,0.1-0.4,0.2c-1.2,1.9-3.4,3-5.8,3c-0.6,0-1.3-0.1-1.9-0.3C194.2,196.5,194.2,196.4,194.1,196.4z M186,243
		c0-0.6,1.1-1.4,3.5-1.9c0.1,0,0.2-0.1,0.3-0.2c0.1-0.1,0.1-0.2,0.1-0.3c0,0,0-0.1,0-0.1c0-1,2.1-2.1,5.2-2.1c1.5,0,2.7,0.3,3.6,0.6
		c0,0.5,0.1,0.9,0.1,1.1l-10.4,4.4C186.9,244.2,186,243.6,186,243z M183.1,246.5c-0.4,0.2-0.6,0.6-0.7,0.9c-0.3-0.2-0.5-0.4-0.6-0.7
		c-0.1-0.3,0.1-0.7,0.5-1.2c0.5,0,2,0.5,3.3,1c0,0,0.1,0,0.1,0c-0.1,0-0.8,0.4-1.6,0C183.7,246.3,183.3,246.4,183.1,246.5z
		 M204,244.7c-0.3,0.7-1.2,1.1-2.5,1.3c-1.8,0.2-8.8,3.5-9.6,3.9c-0.2,0-0.7,0.3-1.8,1c-1,0.7-2.1,0.3-2.6,0
		c-0.1-0.1-0.6-0.5-0.2-1.1c0.1,0,0.2,0,0.3,0c0.5,0.1,1.2,0.2,1.9-0.3c0.2-0.1,0.3-0.4,0.1-0.6c-0.1-0.2-0.4-0.3-0.6-0.1
		c-0.5,0.3-1,0.2-1.4,0.2c-0.4-0.1-0.8-0.1-1,0.2c-0.4,0.5-0.4,1-0.3,1.4c-1.2-0.4-1.5-1.2-1.5-1.3c0,0,0,0,0,0
		c-0.1-0.2-0.1-0.5-0.1-0.6c1.6,0.3,2.8-0.1,2.8-0.1c0.2-0.1,0.3-0.3,0.3-0.5c-0.1-0.2-0.3-0.3-0.5-0.3c0,0-1.1,0.3-2.4,0.1
		c-0.4-0.1-0.7,0.1-0.8,0.2c-0.2,0.2-0.2,0.4-0.2,0.6c-0.5-0.3-0.5-0.6-0.5-0.6c0-0.2-0.1-0.3-0.2-0.4c0.1-0.3,0.2-0.5,0.3-0.6
		c0.1,0,0.1,0,0.3,0.1c1.3,0.7,2.5,0,2.5,0c0.2-0.1,0.3-0.4,0.1-0.6c-0.1-0.1-0.2-0.2-0.3-0.2l13.3-5.7c0.2-0.1,0.3-0.3,0.3-0.5
		c0-0.1,0-0.2-0.1-0.3c0,0,0,0,0,0c-0.2-2.6-1.9-22.1-2.9-28.9c-0.4-2.9-1.5-8.7-2.3-13.7c0.6,0.1,1.1,0.2,1.7,0.2
		c2.6,0,4.9-1.2,6.3-3.2c0.2,0,0.4,0,0.5,0c0.3,0,0.5,0,0.8-0.1c0.2,1.8,0.4,3.8,0.5,5.9c0.3,8-1.3,39.7-1.4,40c0,0.1,0,0.2,0.1,0.2
		C204.1,242.4,204.5,243.8,204,244.7z M236.7,239.3c-0.5,0.3-1.1,0.5-1.8,0.7c0,0-0.1,0-0.1,0c-0.1,0-0.2,0.1-0.3,0.1
		c-0.2,0-0.4,0.1-0.6,0.1c-0.1,0-0.1,0.1-0.2,0.1c-0.9,0.2-2,0.2-2.7,0c-0.2-0.1-0.5,0-0.5,0.2c-0.1,0.2,0,0.5,0.3,0.5
		c0.5,0.2,1,0.3,1.6,0.3c0.5,0,1.1-0.1,1.6-0.2c0.6,0.4,0.9,0.8,0.9,1.1c0,0.3-0.4,0.7-1.2,1c-3.5,1.5-13.7,2.1-19.2,1.2
		c-2.3-0.4-3.4-1-3.9-1.4c-0.1-0.1-0.2-0.1-0.3-0.1c0,0,0,0,0,0l-0.2,0c-0.2,0-0.4,0-0.6,0c-2.1,0-3.8-0.4-4.9-0.9
		c-0.2-0.6-0.5-1.2-0.9-1.8c0.5-0.5,1.6-1,3.3-1.3c0.1,0,0.2-0.1,0.3-0.2c0.1-0.1,0.1-0.2,0-0.4c-0.2-0.5,0.3-1,0.6-1.3
		c1.4-1.2,4.3-2.3,7.2-2.7c0.1,0,0.2-0.1,0.3-0.2c0.6-0.8,2.8-1.7,6-1.7c3.5,0,6.1,1.1,6.1,2.1c-1,0.3-2.2,0.7-2.7,1.4
		c-0.2,0.3-0.3,0.7-0.2,1.1c0,0.2,0.2,0.3,0.4,0.3c0,0,0.1,0,0.1,0c0.2-0.1,0.4-0.3,0.3-0.5c0-0.1,0-0.3,0.1-0.4
		c0.3-0.5,1.5-1,3-1.2c1.9-0.1,3.8,0.1,5.4,0.4c2.7,0.6,3.7,1.5,3.8,2.2C237.9,238.5,237.1,239.1,236.7,239.3z"/>
	<path d="M226.1,249.1C226.1,249.1,226.1,249.1,226.1,249.1c-1-0.8-2.5-1.3-4.2-1.3c-2.1,0-4,0.7-4.7,1.9c-2.8,0-4.9,1.3-4.9,2.9
		c0,1.6,2.2,2.9,5,2.9c0.7,0,1.4-0.1,2-0.3c0.6,0.2,1.3,0.3,2,0.3c1.3,0,2.6-0.3,3.2-0.8c0.5,0.1,1,0.1,1.5,0.1c2.8,0,5-1.3,5-2.9
		S228.9,249.1,226.1,249.1z M226.1,254.1c-0.5,0-0.9-0.1-1.5-0.2c-0.1,0-0.3,0-0.4,0.1c-0.4,0.3-1.4,0.7-2.9,0.7
		c-0.7,0-1.4-0.1-1.9-0.3c0,0-0.1,0-0.1,0c0,0-0.1,0-0.1,0c-0.6,0.2-1.3,0.3-1.9,0.3c-2.3,0-4.2-1-4.2-2.1s1.9-2.1,4.2-2.1v-0.4
		l0.2,0.4c0.1,0,0.3-0.1,0.4-0.2c0.4-0.8,1.9-1.6,4.1-1.6c1.3,0,2.4,0.3,3.2,0.8c-0.4,0.2-0.7,0.4-1,0.7c-0.2,0.3-0.3,0.7-0.1,1.1
		c0.1,0.2,0.2,0.3,0.4,0.3c0,0,0.1,0,0.1,0c0.2-0.1,0.3-0.3,0.2-0.5c0-0.1-0.1-0.2,0.1-0.4c0.2-0.3,0.8-0.6,1.2-0.6
		c0.1,0,0.2-0.1,0.3-0.2c2.1,0.1,3.9,1,3.9,2.1C230.3,253.1,228.4,254.1,226.1,254.1z"/>
	<path d="M194.6,137.2c0.7,0,1.3-0.6,1.3-1.3s-0.6-1.3-1.3-1.3c-0.7,0-1.3,0.6-1.3,1.3S193.9,137.2,194.6,137.2z M194.6,135.5
		c0.2,0,0.4,0.2,0.4,0.4s-0.2,0.4-0.4,0.4c-0.2,0-0.4-0.2-0.4-0.4S194.4,135.5,194.6,135.5z"/>
	<path d="M166.4,74.6C166.4,74.6,166.4,74.6,166.4,74.6c0.3,0,0.4-0.3,0.4-0.5c-0.2-1,0.8-2,1.8-2.2c0.9-0.2,2.1,0,3.4,0.7
		c0.2,0.1,0.5,0,0.6-0.2c0.1-0.2,0-0.5-0.2-0.6c-1.5-0.8-2.8-1-3.9-0.8c-1.4,0.3-2.7,1.7-2.5,3.2C166,74.4,166.2,74.6,166.4,74.6z"
		/>
	<path d="M145.2,88c-0.2-0.7,0.1-1.5,0.7-1.8c0.6-0.4,1.4-0.3,2,0.1c0.2,0.2,0.4,0.1,0.6-0.1c0.1-0.2,0.1-0.4-0.1-0.6
		c-0.8-0.7-2.1-0.8-3-0.2c-0.9,0.6-1.3,1.8-1,2.8c0.1,0.2,0.2,0.3,0.4,0.3c0,0,0.1,0,0.1,0C145.1,88.5,145.3,88.3,145.2,88z"/>
	<path d="M154.8,73.1c-1-0.1-2,0.6-2.2,1.6c-0.1,0.2,0.1,0.4,0.3,0.5c0.2,0.1,0.4-0.1,0.5-0.3c0.1-0.6,0.7-1,1.3-0.9
		c0.6,0.1,1.1,0.6,1.1,1.2c0,0.2,0.2,0.4,0.4,0.4c0,0,0,0,0,0c0.2,0,0.4-0.2,0.4-0.4C156.6,74.2,155.8,73.2,154.8,73.1z"/>
	<path d="M157,86.7c-1.1,0.6-2.2,1-3.3,0.5c-0.3-0.1-0.7-0.2-1.1-0.1c0.1-0.1,0.2-0.2,0.3-0.3s0.3-0.2,0.4-0.1
		c1,0.3,2.3,0.3,3.5-0.1C156.9,86.7,157,86.7,157,86.7z"/>
</g>
</svg>
