<?xml version="1.0" encoding="utf-8"?>
<!-- Generator: Adobe Illustrator 23.1.0, SVG Export Plug-In . SVG Version: 6.00 Build 0)  -->
<svg version="1.1" id="Слой_5" xmlns="http://www.w3.org/2000/svg" xmlns:xlink="http://www.w3.org/1999/xlink" x="0px" y="0px"
	 viewBox="0 0 512 512" style="enable-background:new 0 0 512 512;" xml:space="preserve">
<style type="text/css">
	.st0{fill:#F9E3B2;}
	.st1{fill:#FFFFFF;}
	.st2{fill:#B1D7CD;}
	.st3{fill:#55A3B5;}
	.st4{fill:#BCBCBC;}
	.st5{fill:#FDE1C3;}
	.st6{fill:#1D1D1B;}
</style>
<path class="st0" d="M470,329.3l-0.2,106.9c0,18.6-7.4,33.7-16.5,33.7H53.5c-9.1,0-16.5-15.1-16.5-33.7l1.6-288.6L470,329.3z"/>
<path class="st1" d="M156.7,383.8c0,0,4,8.5,17.2,16.8c7.3,4.6,19.5,7.3,19.5,7.3s-0.8,17.6,26.3,19.1c22.1,1.2,29.8,0.8,49.6-22.9
	s51.2-59.6,54.2-65.3c3.1-5.7,5.3-19.1,0-26.7c-5.3-7.6-21.4-30.2-21.4-30.2L156.7,383.8z"/>
<path class="st1" d="M279.6,332.7c-25.3,33.4-87.4,76.7-118,55.4c-25.2-17.7-16.9-60.3,5.3-95.8c14-22.3,32.8-41.6,50.8-46.2
	c6.5-1.7,22.1,2.8,39.7,11.1c17.6,8.3,33.2,20.8,36.6,27.3C299.3,294.8,297.2,309.5,279.6,332.7z"/>
<path class="st1" d="M229.6,162.8c0,0-13.4-4.6-14.5,35.1c-0.9,32.1,1.5,46.2,9.9,56.1c8.4,9.9,67.2,37,67.2,37s11.1,3.1,27.5-9.9
	c16.4-13,23.7-21.4,27.9-50s7.3-39.3,0.8-45.8C339.9,176.9,229.6,162.8,229.6,162.8z"/>
<path class="st2" d="M248.7,336.5c-2.3,3.1-4.9,6-7.8,8.7c-19.7,18.7-51.3,29.5-64.7,21c-11.8-7.5-5.4-39.3,8.7-63
	c1.8-3.1,3.8-6,5.8-8.7c17.9-23.9,37-35.5,61.1-20.9C276.4,288.7,266.6,312.6,248.7,336.5z"/>
<path class="st3" d="M240.8,345.2c-19.7,18.7-51.3,29.5-64.7,21c-11.8-7.5-5.4-39.3,8.7-63c13.4-16.8,42.1-22.5,57-10.6
	C255.2,303.2,254.3,325.3,240.8,345.2z"/>
<path class="st1" d="M315.5,218.1l-79-29.4c-12.6-4.3-18.8-11.8-14.5-24.4c0,0,54.6-13.1,67.2-8.8l40.8,15.7
	c19.1,8.4,27.9,19.5,16.5,32.9C346.5,204.1,333.1,225,315.5,218.1z"/>
<ellipse transform="matrix(0.1101 -0.9939 0.9939 0.1101 78.4232 441.8076)" class="st4" cx="285.9" cy="177.1" rx="9.5" ry="16.7"/>
<ellipse transform="matrix(0.2175 -0.9761 0.9761 0.2175 51.5868 416.431)" class="st4" cx="285.5" cy="176" rx="5" ry="8.6"/>
<path class="st5" d="M155.8,93.7l-12.7,27.5l72.3,16.8c0,0,3.8,23.2,8.7,27c6.6,5.1,10.2,17.8,14.3,14.8c4.1-3.1-2-12.7-3.6-15.8
	c-1.5-3.1-0.5-8.1,3.6-7.6c4.1,0.5,34.1,21.4,40.7,20.4c6.6-1,5.6-3.1,5.6-3.1s6.2,1.9,8.1,0c3.7-3.6-1.7-7-1.7-7s5-0.4,3.2-5.2
	c-1.6-4.4-15.4-13.5-29.1-21.9l-0.4-0.4c0,0,6.9-0.8,26,6.5c2.1,0.8,4.9-2.7,1.1-5.3c-6.5-4.6-20-12.2-32.1-16.4
	c-24.1-8.4-39.3-7.3-39.3-7.3L155.8,93.7z"/>
<g>
	<path class="st6" d="M175.7,366.9c3.2,2,7.5,3,12.4,3c15.6,0,37.7-9.4,53.2-24.1c3-2.8,5.7-5.8,7.9-8.8h0
		c14.2-18.9,19.8-33.2,17.6-44.9c-1.5-7.6-6.4-14-14.7-19.1c-21.6-13.2-41.4-6.5-62.1,21.1c-2.1,2.8-4.1,5.7-5.8,8.8
		C170,326.7,163.4,359.1,175.7,366.9z M240.3,344.7c-0.4,0.4-0.9,0.8-1.3,1.2c-0.8,0.8-1.7,1.5-2.5,2.3c-0.4,0.3-0.8,0.7-1.3,1
		c-0.9,0.7-1.8,1.5-2.8,2.2c-0.4,0.3-0.8,0.6-1.2,0.8c-1,0.7-2,1.5-3.1,2.1c-0.4,0.2-0.7,0.5-1.1,0.7c-1.1,0.7-2.2,1.4-3.3,2
		c-0.4,0.2-0.7,0.4-1.1,0.6c-1.1,0.6-2.2,1.3-3.4,1.9c-0.5,0.2-0.9,0.4-1.4,0.7c-1,0.5-2.1,1-3.1,1.5c-0.1,0.1-0.2,0.1-0.4,0.2
		c-0.2-0.1-0.4-0.2-0.6-0.2c-0.7,0.2-18.3,4.6-28.5-13c-8.5-14.5,1-32.8,11.6-39.4c7.1-4.5,17.1-5.5,23.7-2.4
		c4.3,2,6.9,5.6,7.5,10.3c1.1,8.5-5.3,16.3-12.1,19c-3.8,1.5-7.1,1.1-8.7-1.2c-1.5-2.1-1.8-4.2-1-6.1c1.6-4,7.5-6.7,10.1-7.2
		c0.4-0.1,0.6-0.4,0.6-0.8s-0.3-0.7-0.6-0.8c-0.5-0.1-13.4-2.3-20.3,4.4c-3.6,3.5-4.9,8.7-3.9,15.6c1.2,7.6,7.7,12.8,17.5,13.9
		c10.6,1.1,23.7-3,32.6-12.5C241.7,342.5,241,343.6,240.3,344.7z M191.3,294.9c13.7-18.2,26.5-27.1,39.8-27.1
		c6.6,0,13.3,2.2,20.2,6.4c7.9,4.8,12.6,10.9,14,18.1c2.1,11.1-3.5,25.4-17.3,43.7h0c-0.9,1.2-1.9,2.4-3,3.6
		c1.3-2.3,2.3-4.6,3.3-6.9c0.5-1.1,1-2.1,1.4-3.3c0.1-0.2,0.1-0.4,0-0.6c4.9-15.1,2.5-29-7.5-36.9c-13.2-10.5-37.7-7.4-52.7,5.4
		C190.1,296.6,190.7,295.7,191.3,294.9z M185.5,303.7c8.5-10.6,23-16.6,36.2-16.6c7.5,0,14.5,1.9,19.7,6.1c10.2,8.1,12,23,5.7,38.8
		c-7.4,15.1-24.2,21.8-37.1,20.4c-9.1-1-15.1-5.7-16.2-12.6c-1-6.3,0.2-11.1,3.4-14.2c4.3-4.1,11.3-4.5,15.5-4.3
		c-3,1.3-6.5,3.7-7.8,7c-1,2.5-0.6,5,1.2,7.6c2,2.9,6,3.5,10.5,1.7c7.4-2.9,14.3-11.4,13.1-20.6c-0.7-5.3-3.6-9.2-8.4-11.5
		c-7.2-3.4-17.5-2.3-25.2,2.5c-12.5,7.9-20.3,27.4-12.1,41.5c7.1,12.2,17.8,14.3,24.4,14.3c0.6,0,1.2,0,1.7-0.1
		c-0.5,0.2-1,0.3-1.4,0.5c-0.9,0.3-1.8,0.7-2.8,1c-0.6,0.2-1.1,0.3-1.7,0.5c-0.9,0.3-1.8,0.6-2.7,0.8c-0.5,0.1-1.1,0.2-1.6,0.4
		c-0.9,0.2-1.8,0.4-2.7,0.6c-0.5,0.1-1,0.2-1.5,0.2c-0.9,0.1-1.7,0.3-2.6,0.4c-0.5,0.1-0.9,0.1-1.3,0.1c-0.9,0.1-1.7,0.2-2.6,0.2
		c-0.4,0-0.7,0-1.1,0c-0.9,0-1.7,0-2.6-0.1c-0.2,0-0.3-0.1-0.5-0.1c-1-0.1-1.9-0.2-2.8-0.4c-0.1,0-0.1,0-0.2-0.1
		c-2-0.5-3.9-1.2-5.4-2.1c-0.7-0.4-1.4-1-1.9-1.6C166,354.5,172.8,325,185.5,303.7z"/>
	<path class="st6" d="M352.1,190.5c-0.1-0.3-0.1-0.7-0.2-1c-1.6-7-8.9-13.4-21.7-19l-40.9-15.7c-0.1,0-0.2,0-0.2-0.1
		c-4.5-3.7-11.7-8.5-21.9-14.8c3.4,0.3,10.7,1.6,23.1,6.4c1.3,0.5,2.9-0.2,3.6-1.6c0.7-1.3,0.6-3.4-1.8-5.1
		c-5.9-4.2-19.4-12-32.3-16.5c-22.6-7.9-37.7-7.4-39.5-7.3L156,93l-0.7-0.2l-13.4,29l72.7,16.9c0.5,3.1,3.3,18.7,7.2,25
		c0,0-0.1,0-0.1,0c-0.3,0.1-0.5,0.2-0.5,0.5c-0.4,1.2-0.7,2.4-0.9,3.5c-2.9,4.9-5.5,13.9-6,30.3c-0.7,23.5,0.5,37.4,4.4,47.2
		c-0.4,0.1-0.8,0.1-1.2,0.2c-16.5,4.2-35.6,21.6-51.2,46.5c-19.7,31.5-30.2,72.6-9.8,93c-0.1-0.1-0.3-0.1-0.4-0.2
		c1,1.9,5.6,9.3,17.2,16.7c6.5,4.1,16.6,6.6,19.1,7.2c0.2,3.3,2.5,17.9,27,19.2c3.8,0.2,7.1,0.4,10.2,0.4c15.2,0,23.5-3.8,40.1-23.5
		c5.8-6.9,12.5-14.8,19.2-22.7c16.9-19.9,32.9-38.6,35.1-42.8c3.4-6.4,5.3-19.8,0-27.5c-3.3-4.7-10.8-15.2-15.9-22.5
		c3.5-1.6,7.5-3.9,12-7.4c16.3-12.9,23.9-21.6,28.1-50.5c0.7-4.5,1.3-8.5,1.9-12.2C352.4,204.6,353.7,196.2,352.1,190.5z
		 M216.1,137.8l-0.1-0.5l-71.9-16.7l12-26l64.1,22.7l0.2,0c0.2,0,15.4-1,39,7.2c11.3,3.9,24.9,11.4,31.9,16.3c1.4,1,1.9,2.1,1.3,3.1
		c-0.4,0.7-1.2,1.1-1.8,0.9c-19-7.2-26-6.6-26.3-6.5l-1.6,0.2l1.6,1.6c6.7,4.1,27,16.5,28.8,21.5c0.4,1.2,0.5,2.2,0,2.9
		c-0.6,0.9-1.7,1.2-2.3,1.3c-12.9-10.9-28.8-17.8-28.9-17.8c-0.4-0.2-0.8,0-1,0.4c-0.2,0.4,0,0.8,0.4,1c0.2,0.1,14.9,6.5,27.4,16.6
		l-0.4,0l1.9,1.2c0.7,0.4,2.4,1.9,2.6,3.5c0.1,0.8-0.3,1.6-1.1,2.3c-1.2,1.1-5,0.5-7.2-0.1c-8.5-8.6-26.8-17-27.6-17.3
		c-0.4-0.2-0.8,0-1,0.4s0,0.8,0.4,1c0.2,0.1,18.8,8.6,27.1,17c0,0,0,0.1-0.1,0.2c-0.2,0.3-1.2,1.2-4.9,1.8c-0.2,0-0.5,0-0.7,0
		c0-0.1,0-0.1-0.1-0.2c-0.5,0-0.9-0.1-1.4-0.2c-0.1,0-0.2-0.1-0.3-0.2c0,0.1,0.1,0.2,0.1,0.3c-5.4-1.5-16.2-7.9-24.5-12.8
		c-7.6-4.5-12-7.1-13.6-7.3c-1.7-0.2-3.1,0.4-4,1.7c-0.7,1-1,2.4-1,3.7c0,0,0,0,0,0c0,0,0,0,0,0c0,1.1,0.2,2.3,0.7,3.3
		c0.2,0.4,0.5,0.9,0.8,1.5c1.9,3.6,6,11,3,13.3c-0.5,0.3-0.8,0.3-1,0.3c-1.4-0.3-3.2-3-5-5.9c-2-3.2-4.3-6.8-7.3-9.1
		c-0.3-0.2-0.6-0.6-0.9-0.9c0-0.1-0.1-0.2-0.1-0.2c0,0,0,0,0,0C220.1,158.4,217,143.6,216.1,137.8z M294.2,175.2
		c-0.2-0.4-0.5-0.8-0.8-1.1c1.1-1.1,1.6-2.2,1.4-3.5c0,0,0,0,0,0c2.7,1.2,4.9,2.9,6.1,4.8c0.9,1.5,1.2,3,0.7,4.4
		c-1.4,4.7-9.6,7.4-18.3,5.9c-5.6-1-10.3-3.5-12.2-6.7c-0.9-1.4-1.1-2.8-0.8-4.1c2.8,1.3,5.2,2.3,6.9,2.6c1.2,1.9,3.6,3.4,6.6,4.2
		c1.3,0.3,2.6,0.5,3.8,0.5c3.5,0,6.3-1.3,7-3.6C294.9,177.4,294.7,176.3,294.2,175.2z M279.2,177.4c3.4-0.5,5.4-1.4,6-2.6
		c0-0.1,0.1-0.1,0.1-0.2c1.6,0.4,4.7,1,6.7,0.3c0.3,0.3,0.6,0.7,0.8,1c0.4,0.7,0.5,1.4,0.3,2.1c-0.7,2.2-4.8,3.1-8.9,2.1
		C282.1,179.5,280.3,178.5,279.2,177.4z M242.5,159.1c-2.7,0.5-5.3,1.1-7.7,1.6c0-1,0.3-1.9,0.8-2.5c0.6-0.9,1.5-1.2,2.6-1.1
		C238.8,157.1,240.4,157.9,242.5,159.1z M221.8,168.1c0.6-1,1.3-1.8,1.9-2.4c2.7,2.1,4.9,5.6,6.8,8.6c2.2,3.5,4,6.2,6,6.6
		c0.2,0,0.3,0,0.5,0c0.6,0,1.2-0.2,1.7-0.6c4.1-3.1-0.2-11-2.5-15.2c-0.3-0.6-0.6-1.1-0.8-1.5c-0.2-0.4-0.4-0.9-0.5-1.4
		c2.9-0.6,6.2-1.3,9.7-2c2,1.1,4.3,2.5,6.6,3.9c6.8,4,12.8,7.5,17.7,10c-0.6,1.8-0.2,3.8,0.9,5.6c2.2,3.6,7.2,6.3,13.3,7.4
		c1.8,0.3,3.5,0.4,5.1,0.4c7.4,0,13.5-2.9,14.9-7.4c0.6-1.8,0.3-3.8-0.9-5.6c-1.5-2.5-4.4-4.5-8.1-5.9c-0.4-0.7-0.9-1.2-1.3-1.7
		c0.7-0.3,1.6-0.8,2.1-1.6c0.7-1.1,0.8-2.5,0.1-4.2c-0.4-1-1.2-2.2-2.6-3.6l37.4,14.3c10.8,4.7,17.5,10,20,15.6
		c-0.1,0.2-0.1,0.3-0.3,0.5c0.5,0.9,0.9,1.8,1.2,2.9c0.6,4.1-1,8.4-4.8,12.9c-0.1,0.2-13.3,20.3-30.1,13.7c0,0,0,0,0,0l-79-29.4
		C224.9,184,220,177.4,221.8,168.1z M215.9,197.9c0.4-12.8,2-20.9,4-26c0.1,8,5.6,13.9,16.3,17.5l79,29.4c2.5,1,5,1.4,7.3,1.4
		c0.4,1.6,1.5,9.5-2.4,32.9c-4.5,26.8-22.3,36.4-22.5,36.5c-0.3,0.2-0.4,0.6-0.3,0.9c-0.1,0-0.2,0-0.4,0c-0.4-2.2-1.1-4.4-2.1-6.4
		c-3.3-6.5-18.9-19.2-36.9-27.7c-15.9-7.5-29.8-11.7-37.4-11.5C216.4,235.4,215.2,221.6,215.9,197.9z M167.6,292.6
		c15.4-24.6,34.2-41.8,50.3-45.9c0.9-0.2,1.9-0.3,3.1-0.3c7.4,0,21,4.2,36.1,11.3c17.7,8.4,33,20.7,36.2,27
		c5.8,11.5,1.2,27-14.3,47.4c-19.6,25.9-65.2,60.7-97.8,60.7c-7.2,0-13.7-1.7-19.2-5.5C136.4,369.4,147,325.6,167.6,292.6z
		 M322.9,312.5c5.2,7.4,2.8,20.6,0,25.9c-2.1,4-18.8,23.6-34.9,42.5c-6.7,7.9-13.4,15.8-19.2,22.7c-19.5,23.2-26.7,23.9-49,22.6
		c-23.2-1.3-25.4-14.3-25.6-17.5c0.1,0,0.1,0,0.2,0c1.3,0.1,2.7,0.1,4.1,0.1c17.2,0,47.6-6.8,81.7-45.5c0.3-0.3,0.2-0.8-0.1-1.1
		c-0.3-0.3-0.8-0.3-1.1,0.1c-36.6,41.5-68.7,45.9-84.6,44.8c-0.6,0-0.9-0.1-1.1,0c-1.1-0.3-12.4-2.9-19.1-7.1
		c-6.8-4.3-11.1-8.6-13.7-11.8c0.2,0.2,0.4,0.3,0.6,0.5c5.8,4,12.6,5.8,20.2,5.8c32.1,0,76.6-32.1,98.8-61.3
		c12.6-16.6,18.2-30.1,16.9-41.1c2.5-0.2,5.7-0.8,9.7-2.3C311.9,297,319.5,307.7,322.9,312.5z M348.7,218.8
		c-0.6,3.7-1.2,7.7-1.9,12.2c-4.2,28.5-11.2,36.6-27.6,49.5c-8.2,6.5-15,8.9-19.7,9.7c4.2-2.7,18.2-13.4,22.1-36.8
		c3.8-22.6,2.9-30.9,2.4-33.2c13.5-1,23-15.5,23-15.6c2-2.3,3.4-4.6,4.2-6.9C351.2,202.7,350.1,209.5,348.7,218.8z"/>
</g>
</svg>
