<?xml version="1.0" encoding="utf-8"?>
<!-- Generator: Adobe Illustrator 22.1.0, SVG Export Plug-In . SVG Version: 6.00 Build 0)  -->
<svg version="1.1" id="Слой_4" xmlns="http://www.w3.org/2000/svg" xmlns:xlink="http://www.w3.org/1999/xlink" x="0px" y="0px"
	 viewBox="0 0 512 512" style="enable-background:new 0 0 512 512;" xml:space="preserve">
<style type="text/css">
	.st0{fill:#816164;stroke:#000000;stroke-width:2.8779;stroke-linecap:round;stroke-linejoin:round;stroke-miterlimit:10;}
	.st1{fill:#C9A255;stroke:#000000;stroke-width:2.8779;stroke-linecap:round;stroke-linejoin:round;stroke-miterlimit:10;}
	.st2{fill:#DADADA;stroke:#000000;stroke-width:2.8779;stroke-linecap:round;stroke-linejoin:round;stroke-miterlimit:10;}
	.st3{fill:#FFD46D;stroke:#000000;stroke-width:2.8779;stroke-linecap:round;stroke-linejoin:round;stroke-miterlimit:10;}
	.st4{fill:#E5BB65;stroke:#000000;stroke-width:2.8779;stroke-linecap:round;stroke-linejoin:round;stroke-miterlimit:10;}
	.st5{fill:#EDEDED;stroke:#000000;stroke-width:2.8779;stroke-linecap:round;stroke-linejoin:round;stroke-miterlimit:10;}
	.st6{fill:#C6C6C6;stroke:#000000;stroke-width:2.8779;stroke-linecap:round;stroke-linejoin:round;stroke-miterlimit:10;}
	.st7{fill:#D1E7F2;stroke:#000000;stroke-width:2.8779;stroke-linecap:round;stroke-linejoin:round;stroke-miterlimit:10;}
	.st8{fill:#B9D3E5;stroke:#000000;stroke-width:2.8779;stroke-linecap:round;stroke-linejoin:round;stroke-miterlimit:10;}
	.st9{fill:none;stroke:#000000;stroke-width:2.8779;stroke-linecap:round;stroke-linejoin:round;stroke-miterlimit:10;}
	.st10{fill:#E6F6FC;stroke:#000000;stroke-width:2.8779;stroke-linecap:round;stroke-linejoin:round;stroke-miterlimit:10;}
	.st11{fill:#FFFFFF;stroke:#000000;stroke-width:2.8779;stroke-linecap:round;stroke-linejoin:round;stroke-miterlimit:10;}
	.st12{fill:#FDCD95;stroke:#000000;stroke-width:2.8779;stroke-linecap:round;stroke-linejoin:round;stroke-miterlimit:10;}
	.st13{fill:#662227;stroke:#000000;stroke-width:2.8779;stroke-linecap:round;stroke-linejoin:round;stroke-miterlimit:10;}
	.st14{fill:#D1E7F2;}
	.st15{fill:none;stroke:#000000;stroke-width:1.8964;stroke-linecap:round;stroke-linejoin:round;stroke-miterlimit:10;}
	.st16{fill:#8A242E;stroke:#000000;stroke-width:2.8779;stroke-linecap:round;stroke-linejoin:round;stroke-miterlimit:10;}
	.st17{fill:none;stroke:#000000;stroke-width:1.9186;stroke-linecap:round;stroke-linejoin:round;stroke-miterlimit:10;}
	.st18{fill:#FFAFB9;stroke:#000000;stroke-width:1.9186;stroke-linecap:round;stroke-linejoin:round;stroke-miterlimit:10;}
	.st19{fill:#FFFFFF;}
	.st20{fill:none;stroke:#000000;stroke-width:4.7965;stroke-linecap:round;stroke-linejoin:round;stroke-miterlimit:10;}
</style>
<g>
	<path class="st0" d="M474.3,396.8c3.3,3.3,21.3,26.1,17.2,92.2s-93.6,33.6-93.6,33.6s-1.5-47.9,1.2-59.4c2.7-11.5,0-32.8,0-32.8
		l51.2-26.2L474.3,396.8z"/>
	<rect x="24.4" y="467.1" class="st1" width="370.7" height="62"/>
	<path d="M90.6,305c0,0,10.6-5.9,19.8,0l-0.6,6.2l-10.7,1.1l-8.5-2.6V305z"/>
	<path class="st2" d="M227.9,296.1v7.9c0,0,7.2,3.4,13,0v-7.9l-3.1-6h-7.2L227.9,296.1z"/>
	<polygon class="st3" points="407.8,461.6 10.2,458.7 175.6,308.6 328.7,308.1 336.7,323.7 383.8,415.1 	"/>
	<polygon class="st4" points="407.8,461.6 407.8,475.5 10.2,475.5 10.2,458.7 	"/>
	<path class="st2" d="M168.2,355.1h-11.9c-8.4,0-14.8-6.2-13.5-13.1l3.4-18.3h30.5l4.9,17.5C183.6,348.3,177,355.1,168.2,355.1z"/>
	<path class="st5" d="M171.9,331.6c0,0,49.3-35,56-35.5c0,0,11.5,3.4,13,0c1.4-3.4-0.5-22-24.5-4.8s-49.9,32.4-49.9,32.4
		L171.9,331.6z"/>
	<circle class="st5" cx="162.3" cy="323.7" r="19.7"/>
	<path class="st2" d="M146.8,311.3c0,0-17.5-30.9,46-50.9c4.5-1.4,8.3,3.6,5.7,7.5c-3.9,5.9-10.1,13.4-19.6,20.8
		C178.8,288.6,183.3,318,146.8,311.3z"/>
	<path class="st2" d="M312.5,389.4l-3.5,0l-15.4-10.7c-3.4-2.6-7.6-3.9-11.8-3.9h-66.6c-4,0-8,1.2-11.3,3.6l-12.6,9.7l-9.2-0.1
		c-8.2-0.1-12.1-10.2-6.1-15.8l40.7-38.1c1.7-1.6,3.9-2.5,6.2-2.5h62.6c3,0,5.8,1.5,7.5,4l27.2,39.6
		C324.3,381.2,319.9,389.5,312.5,389.4z"/>
	<path class="st6" d="M309,389.4l-117.7-1.3l12.6-9.7c3.3-2.3,7.3-3.6,11.3-3.6h66.6c4.3,0,8.4,1.4,11.8,3.9L309,389.4z"/>
	<path class="st7" d="M73.3,326.8l31.4-15.6c0,0,23.7,0.5,24.7,9.1c1,8.6,3.6,61.8,3.6,61.8l-25.4,22.4L91,401.1
		c0,0-11.8-36.2-12.5-36.2c-0.7,0-3.6-29.5-3.6-29.5L73.3,326.8z"/>
	<path class="st8" d="M106.2,404.5l-26.8-3.8c-2.7-0.4-4.7-2.5-5-5.2l-5.7-60.4c0-5.4,4.3-9.7,9.7-9.7l22.4,7.2
		c3.1,1,5.3,3.9,5.4,7.2l1.1,63.7C107.3,404,106.8,404.5,106.2,404.5z"/>
	<line class="st9" x1="127" y1="322.5" x2="110.4" y2="333.5"/>
	<polyline class="st9" points="130.4,334.9 114,345.7 115.5,382.9 132.3,370 	"/>
	<path class="st10" d="M100.8,312.3L100.8,312.3c-1.8,0-3.3-1.5-3.3-3.3v-10.5c0-1.8,1.5-3.3,3.3-3.3h0c1.8,0,3.3,1.5,3.3,3.3V309
		C104.1,310.8,102.6,312.3,100.8,312.3z"/>
	<path class="st10" d="M113.1,313.1c0,5.8-5.6,10.6-12.5,10.6c-4.8,0-9-2.3-11.1-5.7c-0.9-1.5-1.4-3.1-1.4-4.9
		c0-2.6,1.1-4.9,2.8-6.7c2.4,0.8,5.9,1.3,9.8,1.3c3.8,0,7.2-0.5,9.6-1.3c1,1,1.7,2.2,2.2,3.5C112.9,310.9,113.1,312,113.1,313.1z"/>
	<path class="st11" d="M97.5,296.6c0,0,6,3.6,19.9-1.4C117.4,295.1,97.5,287.5,97.5,296.6z"/>
	<path class="st12" d="M402.4,200.3c0,0,11,26.4,9.3,43.3c-1.7,16.9,3.2,10.3,3.2,10.3l22.1-14.9l8-7.6c0,0-24.6-45.3-21.3-60.2
		c3.3-14.9-8.7,21.4-8.7,21.4L402.4,200.3z"/>
	<path class="st13" d="M375.1,189.5c0,0-24.7,6-33-10.9s-4.3-10-10.1-15.7c-5.8-5.7-4.2-17.2-1.9-21.2c2.3-3.9,0.4-15.7-3.3-18.7
		s-0.5-16.8,7.3-22c7.7-5.2,7.6-14.7,7.7-19.9c0-5.2,5.2-27.2,34.3-23.2c0,0,12.9-18.5,48.6-6.7c9.1,3,16.8,9.3,21.6,17.6
		c4.3,7.4,10.2,16.3,15.2,19.9c9.2,6.5,18.5,17.6,15,30.5c-3.6,13-4.1,19.9-3.2,24.5c0.9,4.7,11.8,21.6,0.7,25.9
		c-11.1,4.4-15.3,4.5-16.9,8.8c-1.6,4.3-11.1,21.5-21.6,14.5c-10.5-7.1-18.8-2.6-18.8-2.6l-17.6,9.4l-16-6.1L375.1,189.5z"/>
	<path class="st9" d="M369.8,75.8C367,64.3,376,57.9,376,57.9"/>
	<path class="st9" d="M437,96.1c0,0-4.2-10-12.2-10.4c-8-0.4-17.5-3.1-20-7.7s-26.1-19.9-34.8,3.8"/>
	<path class="st9" d="M340.2,104.3c0,0,4.2,0.2,6.6-7.5s-1.7-17.7,8.5-19.8c10.2-2.1,13.9-5,13.9-5"/>
	<path class="st14" d="M318.1,341.9c0,0,14.3-14.6,35.5-1.3l-7.2,8.8l-15.9,1.7c0,0-7.5-4.1-8.6-4.6
		C320.7,346.1,318.1,341.9,318.1,341.9z"/>
	<path class="st7" d="M353.6,341.3c0,0-1.6,5.3-2,9.1c-1,11-2,30.8-2,31.2c0,0.5-4.6,4-4.6,4l-17.3,1.1l-2.7-9l-5.7-31.1l-1.2-4.1
		C341.4,352.8,353.6,341.3,353.6,341.3z"/>
	<path class="st12" d="M362.5,404.7c0,0-30.3,7.6-39.7-10.9c-1.3-2.5-1.9-5.3-1.9-8.2l0,0c0,0-7.5-5.4-1.3-8.8c0,0-5.8-7.4,1.1-6.1
		c6.4,1.2,18.9,13.6,26.8,5c1.2-1.3,1.9-3,1.9-4.8c0.1-2.5,0.8-6.3,3.8-4.5c4.5,2.6,5.4,7.5,5.4,7.5l3.7,13.7l4.2,16L362.5,404.7z"
		/>
	<path class="st9" d="M341.1,384.3c0,0-16.9-1.6-21.4-7.5"/>
	<path class="st9" d="M340.5,394.4c-1-0.3-8.6,1-19.5-8.8"/>
	<path class="st15" d="M353.6,340.6c-3.2-3.1-10-5.7-16.9-5.7c-7.7,0-15.8,3.3-18.6,7"/>
	<path class="st16" d="M410,224.5c0,0-30.8-3.7-32.8,14.9s-11.5,137.5-11.5,137.5h-6.1c0,0-1.6,28.1,2.3,31.3
		c3.8,3.2,14.7,4.5,22.4,3.2l25.4,50.2c0,0,63.5,17.4,86.6-10.5c0,0,13.8-244.7-55.9-228.6C440.4,222.5,422.1,253.9,410,224.5z"/>
	<line class="st9" x1="386.2" y1="259.8" x2="372.1" y2="375.6"/>
	<path class="st9" d="M438.6,275.1c0,3.2,5.1,86.3-7,91.5c-12.2,5.1-35.4,9.7-65.9,10.2"/>
	<path class="st9" d="M468.4,319.4c0,0,8.9,73.3-38.1,82.7c-47,9.4-46,9.3-46,9.3"/>
	<path class="st12" d="M379.1,75.3c0,0-16.3,3.2-21.7,18.2s-2.6,37.1-3.5,40.3c-1.3,4.2-22.1,32,8,49.9c0,0,11.8,9,14.1,12.5
		c1.9,3,15.6,16.4,34.6,8.8c5.2-2.1,9.7-5.4,13.4-9.6l7.7-8.8c0,0,25.3-9.3,18.2-40c0,0,22.7-15.3,9-25.9c0,0-5.8-6.7-17.6,8
		c0,0,3.5-11.5-7-15.3c-10.6-3.8-14.4-9.9-15.7-16.3c-1.3-6.4-22.1-14.7-26.2-15C388.1,81.7,379.1,75.3,379.1,75.3z"/>
	<path class="st9" d="M391.6,107.9c0,0,15.7-7.7,22.4,0"/>
	<path class="st9" d="M355.5,111.3c0,0,8.8-6.8,17.6-1.2"/>
	<path class="st9" d="M380.7,115.9c0,0,3.8,24.9-4.5,34.5c0,0-4.2,4.5,9.3,6.7"/>
	<path class="st17" d="M399.9,145.3c0,0,10.2-6.1,24.3,0"/>
	<path class="st17" d="M350.6,142.6c0,0,12.6-3.4,20.3,2.7"/>
	<path class="st17" d="M370.8,168.8c0,0,0.5,7.8-0.8,10.4"/>
	<path class="st17" d="M399.9,168c0,0-2.6,5.8,0.6,10.6"/>
	<path class="st18" d="M371.8,174c0,0,15-12.6,27.2-0.7C399,173.3,389.2,192.3,371.8,174z"/>
	<line class="st9" x1="373.1" y1="174" x2="399" y2="173.3"/>
	<ellipse cx="367.7" cy="130.9" rx="5.4" ry="9.7"/>
	<circle class="st19" cx="367.6" cy="128.6" r="2.4"/>
	<path class="st9" d="M358.5,124.5c0,0,6.9-6.7,17.1-0.6"/>
	<ellipse cx="406.9" cy="130.9" rx="5.4" ry="9.7"/>
	<circle class="st19" cx="406.9" cy="128.6" r="2.4"/>
	<path class="st9" d="M416.1,124.5c0,0-6.9-6.7-17.1-0.6"/>
	<path class="st17" d="M453.3,124.5c0,0-4.2,6.1-4.2,10.6"/>
	<path class="st17" d="M456.8,128.6c0,0-6.2,0.3-6.8,2.3"/>
	<path d="M321.8,359c0,0,8-2.6,10.9,1.5c2.9,4,9.4,3.2,11,0c1.7-3.2,7.5-5.5,7.4-4.8c-0.1,0.7-3.5,20-3.5,20s-8.8,5.7-11.2,2.3
		c-2.4-3.4-12.6-6.1-12.6-6.1l-2.1-11.4V359z"/>
	<g>
		<path class="st20" d="M294.5,188.6c0,0-27.7,5.1-27.7,39.2"/>
		<path class="st20" d="M256.7,216.1c1.1,1.6,10.1,18.6,10.1,18.6l13.3-18.6"/>
		<path class="st20" d="M314.3,189.7c0,0,27.7,5.1,27.7,39.2"/>
		<path class="st20" d="M352.1,217.2c-1.1,1.6-10.1,18.6-10.1,18.6l-13.3-18.6"/>
		<path class="st20" d="M275,259.3c0,0,16.4,22.9,47.2,8.5"/>
		<path class="st20" d="M316,281.9c1-1.6,12.6-17.1,12.6-17.1l-22.5-4.2"/>
	</g>
</g>
</svg>
