<?xml version="1.0" encoding="utf-8"?>
<!-- Generator: Adobe Illustrator 22.1.0, SVG Export Plug-In . SVG Version: 6.00 Build 0)  -->
<svg version="1.1" id="Слой_7" xmlns="http://www.w3.org/2000/svg" xmlns:xlink="http://www.w3.org/1999/xlink" x="0px" y="0px"
	 viewBox="0 0 512 512" style="enable-background:new 0 0 512 512;" xml:space="preserve">
<style type="text/css">
	.st0{fill:#FDCD95;stroke:#000000;stroke-width:3.1698;stroke-linecap:round;stroke-linejoin:round;stroke-miterlimit:10;}
	.st1{fill:#816164;stroke:#000000;stroke-width:3;stroke-linecap:round;stroke-linejoin:round;stroke-miterlimit:10;}
	.st2{fill:#662227;stroke:#000000;stroke-width:3;stroke-linecap:round;stroke-linejoin:round;stroke-miterlimit:10;}
	.st3{fill:#FFD46D;stroke:#000000;stroke-width:3;stroke-linecap:round;stroke-linejoin:round;stroke-miterlimit:10;}
	.st4{fill:#FDCD95;stroke:#000000;stroke-width:3;stroke-linecap:round;stroke-linejoin:round;stroke-miterlimit:10;}
	.st5{fill:#8A242E;stroke:#000000;stroke-width:3;stroke-linecap:round;stroke-linejoin:round;stroke-miterlimit:10;}
	.st6{fill:none;stroke:#000000;stroke-width:3;stroke-linecap:round;stroke-linejoin:round;stroke-miterlimit:10;}
	.st7{fill:none;stroke:#000000;stroke-width:3.1698;stroke-linecap:round;stroke-linejoin:round;stroke-miterlimit:10;}
	.st8{fill:#C8E2E8;stroke:#000000;stroke-width:0.5283;stroke-miterlimit:10;}
	.st9{fill:#C8E2E8;stroke:#000000;stroke-width:0.6278;stroke-miterlimit:10;}
	.st10{fill:#C8E2E8;stroke:#000000;stroke-width:0.7277;stroke-miterlimit:10;}
	.st11{fill:#C8E2E8;stroke:#000000;stroke-width:0.924;stroke-miterlimit:10;}
	.st12{fill:none;stroke:#000000;stroke-width:2.1132;stroke-linecap:round;stroke-linejoin:round;stroke-miterlimit:10;}
	.st13{fill:#C9A255;stroke:#000000;stroke-width:3;stroke-linecap:round;stroke-linejoin:round;stroke-miterlimit:10;}
	.st14{fill:#DADADA;stroke:#000000;stroke-width:3;stroke-linecap:round;stroke-linejoin:round;stroke-miterlimit:10;}
	.st15{fill:#E5BB65;stroke:#000000;stroke-width:3;stroke-linecap:round;stroke-linejoin:round;stroke-miterlimit:10;}
	.st16{fill:#EDEDED;stroke:#000000;stroke-width:3;stroke-linecap:round;stroke-linejoin:round;stroke-miterlimit:10;}
	.st17{fill:#C6C6C6;stroke:#000000;stroke-width:3;stroke-linecap:round;stroke-linejoin:round;stroke-miterlimit:10;}
	.st18{fill:#D1E7F2;stroke:#000000;stroke-width:3.1698;stroke-linecap:round;stroke-linejoin:round;stroke-miterlimit:10;}
	.st19{fill:#B9D3E5;stroke:#000000;stroke-width:3;stroke-linecap:round;stroke-linejoin:round;stroke-miterlimit:10;}
	.st20{fill:#E6F6FC;stroke:#000000;stroke-width:3;stroke-linecap:round;stroke-linejoin:round;stroke-miterlimit:10;}
	.st21{fill:#FFFFFF;stroke:#000000;stroke-width:3;stroke-linecap:round;stroke-linejoin:round;stroke-miterlimit:10;}
	.st22{fill:none;stroke:#315164;stroke-width:3.1698;stroke-linecap:round;stroke-linejoin:round;stroke-miterlimit:10;}
</style>
<path class="st0" d="M262.4,218c0,0-9,0.9-6.5,4.6c2.5,3.7,22.9,19.5,33.3,22.4c10.4,2.8,23.4,20.5,23.4,20.5l2.3-25l-36.1-11
	L262.4,218z"/>
<path class="st1" d="M484.2,403.2c3.6,3.6,23.5,28.7,19,101.5s-101.8,34.9-101.8,34.9s-2.9-50.6,0-63.2c2.9-12.6,0-36.1,0-36.1
	l56.4-28.9L484.2,403.2z"/>
<path class="st2" d="M393.3,174.9c0,0,12.7-2.8,16.2-13.7c3.5-10.9,4.6-8.5,6.3-13c1.8-4.6,4.6-16.9-6.3-23.6
	c-5.9-3.6-6.7-12-3.9-21.1s-8.1-20.6-20-22.3c-12-1.8-21.3-12-26.8-19.2c-7.4-9.7-43-13.7-58.5,0.7C289,73,262.3,71,258.9,96.7
	c-3.4,25.7,14,32.8,18.6,34.9c4.6,2.1,18.3-2.8,18.3-2.8l15.8-6.7l18,5.6l18-2.1l21.8,5.6l9.2,8.5l-2.5,10.6L393.3,174.9z"/>
<polygon class="st3" points="446,476.3 8,473.2 190.3,307.8 358.8,307.3 367.7,324.4 419.6,425.1 "/>
<path class="st4" d="M383.4,148.1c0,0,16.6,30.8,37,37.7l-13.1,23.9l-23.8,2.8c0,0,3.2-17.6-9.9-26.4l9.2-15.8L383.4,148.1z"/>
<path class="st0" d="M311.6,250.9c0,0-61.4-28.8-52.2-35.5c1-0.8,2.5-0.7,3.6-0.1l6.5,3.9c0,0-12.3-21.5-4.8-17.2
	c0.9,0.5,1.6,1.1,2.3,1.9l8.9,8.6c0,0-11.1-25-0.9-18.1c9.7,6.5,18.8,22.4,21.3,23.6c0,0,1.2-6.9-0.5-12.7
	c-1.8-5.8-3.9-19.7,0.9-16.6c4.8,3.2,8.1,16.9,9.5,23.8c1.4,6.9,10.2,25.7,16.7,28C329.4,242.8,311.6,250.9,311.6,250.9z"/>
<path class="st5" d="M315.8,249.9c0,0-6.3,8.5-13.4,8.5s49.7,77.6,74.3,50.1L315.8,249.9z"/>
<path class="st5" d="M383.7,206.3l-16.2,60.5l-47.2-31.3c0,0-2.1,12.3-11.3,13c-9.2,0.7,51.4,59.9,66.2,63.4l6.3,39.6l42.3,81
	c0,0,37.3,12.5,82.4-15c0,0-7-126.6-37-192.3c-8.6-18.8-24.6-33.2-44-40.2l-9.8-3.5C415.5,181.6,414.7,209.1,383.7,206.3z"/>
<path class="st6" d="M407.3,249.9c0,0-9.4,47.9-39.7,16.9"/>
<path class="st6" d="M443.7,245c0,0-4.2,99.3-68.3,66.9"/>
<path class="st4" d="M286.6,125c0,0,27.1,30.6,26.4,49.7c0,0,4.2,1.8,9.2-2.1c0,0,39.7,33.6,61.4,8.1c5.4-6.3,7.9-14.7,7.4-23
	c-0.5-9.1-3-21.9-11.7-28.5c0,0,2.8-18.5-6.9-19.9c-5.6-0.8-9.8,5-7.8,10.2c0.2,0.4,0.3,0.8,0.6,1.3c0,0-1.4,1.4-10.9-5.1
	c-2.9-1.9-6.5-2.4-9.7-1.1c-2.9,1.1-6.6,2.8-10.7,5.1c-8.8,4.9-14.1-8.5-17.3-8.8C313.3,110.6,302.4,108.5,286.6,125z"/>
<path class="st6" d="M303.1,142.1c0,0,3.5-14.1,19-12.7"/>
<path class="st6" d="M315.5,155.5c0,0,8.5-1.4,16.2-10.6"/>
<path class="st6" d="M349.6,187.9c0,0,5.3-2.2,5.7-13.1"/>
<line class="st7" x1="286.6" y1="230.7" x2="269.5" y2="219.2"/>
<path class="st7" d="M291.4,223.5c0,0-14.1-7.5-15.5-10.9"/>
<path class="st8" d="M353.1,134.7l3.6,6c1,1.7,3.4,1.8,4.6,0.2l0.3-0.4c1.2-1.6,0.3-3.8-1.6-4.3L353.1,134.7z"/>
<path class="st8" d="M375.6,145.3l3.6,6c1,1.7,3.4,1.8,4.6,0.2l0.3-0.4c1.2-1.6,0.3-3.8-1.6-4.3L375.6,145.3z"/>
<path class="st8" d="M317.1,203.5l-4.7,5.2c-1.3,1.5-0.7,3.8,1.2,4.4l0.4,0.2c1.9,0.6,3.8-0.8,3.6-2.8L317.1,203.5z"/>
<path class="st8" d="M292.4,236.9l-2.2,6.7c-0.6,1.9,0.9,3.7,2.8,3.6l0.5,0c2-0.2,3.1-2.3,2.2-4L292.4,236.9z"/>
<path class="st8" d="M260.2,221.1l-5.6,4.2c-1.6,1.2-1.4,3.6,0.3,4.6l0.4,0.2c1.7,1,3.8-0.1,4.1-2L260.2,221.1z"/>
<path class="st8" d="M283.3,211.5l-5.6,4.2c-1.6,1.2-1.4,3.6,0.3,4.6l0.4,0.2c1.7,1,3.8-0.1,4.1-2L283.3,211.5z"/>
<path class="st9" d="M334.7,196.8l-4.8,9.9c-0.9,1.9,0.2,4.1,2.3,4.4l0.5,0.1c2,0.3,3.8-1.4,3.5-3.4L334.7,196.8z"/>
<path class="st9" d="M343.9,224.5l-4.8,9.9c-0.9,1.9,0.2,4.1,2.3,4.4l0.5,0.1c2,0.3,3.8-1.4,3.5-3.4L343.9,224.5z"/>
<path class="st9" d="M368,205l0.8,11c0.2,2.1,2.3,3.4,4.2,2.6l0.4-0.2c1.9-0.7,2.6-3.1,1.3-4.8L368,205z"/>
<path class="st9" d="M329.5,182.7l-5.4,9.6c-1,1.8,0,4.1,2,4.5l0.5,0.1c2,0.4,3.9-1.2,3.7-3.2L329.5,182.7z"/>
<path class="st9" d="M368,157.8l5.2,9.7c1,1.8,3.4,2.2,4.9,0.7l0.3-0.3c1.5-1.5,1.1-3.9-0.7-4.9L368,157.8z"/>
<path class="st9" d="M366.7,186.7l5.2,9.7c1,1.8,3.4,2.2,4.9,0.7l0.3-0.3c1.5-1.5,1.1-3.9-0.7-4.9L366.7,186.7z"/>
<path class="st10" d="M293.8,268.6l-6.2,11.1c-1.2,2.1,0,4.7,2.3,5.2l0.5,0.1c2.3,0.5,4.5-1.4,4.3-3.8L293.8,268.6z"/>
<path class="st11" d="M306.3,282.1l-3.1,15.9c-0.6,3,1.9,5.7,4.9,5.4l0.7-0.1c3-0.3,4.9-3.4,3.7-6.2L306.3,282.1z"/>
<path class="st11" d="M278.7,280.9l-9,13.4c-1.7,2.5-0.5,6,2.4,6.8l0.7,0.2c2.9,0.9,5.8-1.3,5.9-4.3L278.7,280.9z"/>
<path class="st9" d="M250.8,259.2l-8,7.5c-1.5,1.4-1.2,3.9,0.6,4.9l0.4,0.2c1.8,1,4.1,0,4.5-2L250.8,259.2z"/>
<path class="st12" d="M370,115.8c0,0-0.2,4.4,2.1,9.2"/>
<path class="st12" d="M374,115.8c0,0-3.7,2-3.5,4.6"/>
<rect x="23.6" y="482.4" class="st13" width="408.3" height="68.2"/>
<path d="M96.6,303.9c0,0,11.6-6.5,21.8,0l-0.7,6.8l-11.8,1.2l-9.3-2.9V303.9z"/>
<path class="st14" d="M247.9,294.1v8.7c0,0,7.9,3.7,14.3,0v-8.7l-3.4-6.6h-7.9L247.9,294.1z"/>
<polygon class="st15" points="446,476.3 446,491.7 8,491.7 8,473.2 "/>
<path class="st14" d="M182.1,359.1H169c-9.2,0-16.3-6.8-14.9-14.4l3.8-20.2h33.6l5.4,19.3C199,351.6,191.8,359.1,182.1,359.1z"/>
<path class="st16" d="M186.2,333.2c0,0,54.3-38.6,61.7-39.1c0,0,12.7,3.7,14.3,0c1.6-3.7-0.5-24.2-26.9-5.3
	c-26.4,19-54.9,35.7-54.9,35.7L186.2,333.2z"/>
<circle class="st16" cx="175.5" cy="324.5" r="21.7"/>
<path class="st14" d="M158.5,310.8c0,0-19.3-34,50.6-56.1c4.9-1.6,9.2,3.9,6.3,8.3c-4.3,6.4-11.1,14.7-21.6,22.9
	C193.8,285.8,198.7,318.2,158.5,310.8z"/>
<path class="st14" d="M341.1,396.9l-3.9,0l-17-11.8c-3.8-2.8-8.3-4.3-13-4.3h-73.4c-4.5,0-8.8,1.4-12.5,3.9l-13.9,10.7l-10.2-0.1
	c-9.1-0.1-13.4-11.2-6.8-17.4l44.9-42c1.9-1.7,4.3-2.7,6.9-2.7h68.9c3.3,0,6.4,1.6,8.3,4.4l29.9,43.6
	C354.1,387.9,349.2,397,341.1,396.9z"/>
<path class="st17" d="M337.2,396.8l-129.7-1.4l13.9-10.7c3.7-2.6,8-3.9,12.5-3.9h73.4c4.7,0,9.3,1.5,13,4.3L337.2,396.8z"/>
<path class="st18" d="M77.5,327.9l34.6-17.2c0,0,26.2,0.5,27.2,10s4,68,4,68l-28,24.7L97,409.8c0,0-12.9-39.9-13.7-39.9
	c-0.8,0-4-32.5-4-32.5L77.5,327.9z"/>
<path class="st19" d="M113.8,413.5l-29.5-4.2c-2.9-0.4-5.2-2.8-5.5-5.8L72.5,337c0-5.9,4.8-10.7,10.7-10.7l24.7,7.9
	c3.5,1.1,5.8,4.3,5.9,7.9l1.2,70.1C115,412.9,114.5,413.5,113.8,413.5z"/>
<line class="st6" x1="136.7" y1="323.1" x2="118.4" y2="335.3"/>
<polyline class="st6" points="140.5,336.9 122.4,348.8 124,389.7 142.6,375.4 "/>
<path class="st20" d="M108,311.9h-0.4c-1.9,0-3.4-1.6-3.4-3.4v-12c0-1.9,1.6-3.4,3.4-3.4h0.4c1.9,0,3.4,1.6,3.4,3.4v12
	C111.5,310.4,109.9,311.9,108,311.9z"/>
<path class="st20" d="M121.3,312.8c0,6.4-6.2,11.6-13.8,11.6c-5.3,0-9.9-2.5-12.2-6.2c-1-1.6-1.6-3.4-1.6-5.4c0-2.8,1.2-5.4,3.1-7.4
	c2.7,0.9,6.5,1.5,10.8,1.5c4.2,0,7.9-0.5,10.6-1.4c1.1,1.1,1.9,2.4,2.4,3.8C121.1,310.4,121.3,311.6,121.3,312.8z"/>
<path class="st21" d="M104.2,294.6c0,0,6.6,4,21.9-1.6C126.1,293,104.2,284.6,104.2,294.6z"/>
<g>
	<line class="st22" x1="248.4" y1="313.2" x2="245.4" y2="323.8"/>
	<line class="st22" x1="248.9" y1="333.6" x2="246" y2="344.3"/>
	<line class="st22" x1="256.9" y1="341.4" x2="256.9" y2="352.4"/>
	<line class="st22" x1="250.3" y1="368.7" x2="249.3" y2="379.8"/>
	<line class="st22" x1="243.1" y1="384.6" x2="242.1" y2="395.7"/>
	<line class="st22" x1="256.2" y1="384.6" x2="255.2" y2="395.6"/>
	<line class="st22" x1="269.9" y1="354.4" x2="273.3" y2="364.9"/>
	<line class="st22" x1="264.8" y1="333.4" x2="268.3" y2="343.9"/>
	<line class="st22" x1="260.9" y1="361.7" x2="261.5" y2="375.1"/>
	<line class="st22" x1="279.1" y1="346.8" x2="284.9" y2="356.2"/>
	<line class="st22" x1="236.9" y1="342.5" x2="230.1" y2="351.2"/>
	<line class="st22" x1="284.1" y1="367.8" x2="289.5" y2="377.4"/>
	<line class="st22" x1="274.8" y1="374.5" x2="278.9" y2="384.8"/>
	<line class="st22" x1="266.8" y1="385.2" x2="268.8" y2="396.1"/>
	<line class="st22" x1="255.9" y1="316.7" x2="255.8" y2="327.8"/>
	<line class="st22" x1="261.3" y1="312.6" x2="264.7" y2="323.1"/>
	<line class="st22" x1="236.6" y1="372.7" x2="233.7" y2="383.4"/>
	<line class="st22" x1="244.7" y1="351.6" x2="241.8" y2="362.3"/>
	<line class="st22" x1="232.7" y1="360.8" x2="226.6" y2="370"/>
</g>
</svg>
