<?xml version="1.0" encoding="utf-8"?>
<!-- Generator: Adobe Illustrator 22.1.0, SVG Export Plug-In . SVG Version: 6.00 Build 0)  -->
<svg version="1.1" id="Слой_7" xmlns="http://www.w3.org/2000/svg" xmlns:xlink="http://www.w3.org/1999/xlink" x="0px" y="0px"
	 viewBox="0 0 512 512" style="enable-background:new 0 0 512 512;" xml:space="preserve">
<style type="text/css">
	.st0{fill:#816164;stroke:#000000;stroke-width:3;stroke-linecap:round;stroke-linejoin:round;stroke-miterlimit:10;}
	.st1{fill:#C9A255;stroke:#000000;stroke-width:3;stroke-linecap:round;stroke-linejoin:round;stroke-miterlimit:10;}
	.st2{fill:#DADADA;stroke:#000000;stroke-width:3;stroke-linecap:round;stroke-linejoin:round;stroke-miterlimit:10;}
	.st3{fill:#FFD46D;stroke:#000000;stroke-width:3;stroke-linecap:round;stroke-linejoin:round;stroke-miterlimit:10;}
	.st4{fill:#E5BB65;stroke:#000000;stroke-width:3;stroke-linecap:round;stroke-linejoin:round;stroke-miterlimit:10;}
	.st5{fill:#EDEDED;stroke:#000000;stroke-width:3;stroke-linecap:round;stroke-linejoin:round;stroke-miterlimit:10;}
	.st6{fill:#C6C6C6;stroke:#000000;stroke-width:3;stroke-linecap:round;stroke-linejoin:round;stroke-miterlimit:10;}
	.st7{fill:#D1E7F2;stroke:#000000;stroke-width:3;stroke-linecap:round;stroke-linejoin:round;stroke-miterlimit:10;}
	.st8{fill:#B9D3E5;stroke:#000000;stroke-width:3;stroke-linecap:round;stroke-linejoin:round;stroke-miterlimit:10;}
	.st9{fill:none;stroke:#000000;stroke-width:3;stroke-linecap:round;stroke-linejoin:round;stroke-miterlimit:10;}
	.st10{fill:#E6F6FC;stroke:#000000;stroke-width:3;stroke-linecap:round;stroke-linejoin:round;stroke-miterlimit:10;}
	.st11{fill:#FFFFFF;stroke:#000000;stroke-width:3;stroke-linecap:round;stroke-linejoin:round;stroke-miterlimit:10;}
	.st12{fill:#FDCD95;stroke:#000000;stroke-width:3.2004;stroke-linecap:round;stroke-linejoin:round;stroke-miterlimit:10;}
	.st13{fill:#FDCD95;stroke:#000000;stroke-width:3.0553;stroke-linecap:round;stroke-linejoin:round;stroke-miterlimit:10;}
	.st14{fill:#8A242E;stroke:#000000;stroke-width:3;stroke-linecap:round;stroke-linejoin:round;stroke-miterlimit:10;}
	.st15{fill:#662227;stroke:#000000;stroke-width:3.0553;stroke-linecap:round;stroke-linejoin:round;stroke-miterlimit:10;}
	.st16{fill:none;stroke:#000000;stroke-width:3.0553;stroke-linecap:round;stroke-linejoin:round;stroke-miterlimit:10;}
	.st17{fill:#FFFFFF;}
	.st18{fill:none;stroke:#000000;stroke-width:2;stroke-linecap:round;stroke-linejoin:round;stroke-miterlimit:10;}
	.st19{fill:#FDCD95;stroke:#000000;stroke-width:3;stroke-linecap:round;stroke-linejoin:round;stroke-miterlimit:10;}
	.st20{fill:#FFFFFF;stroke:#000000;stroke-linecap:round;stroke-linejoin:round;stroke-miterlimit:10;}
	.st21{fill:#FFFFFF;stroke:#000000;stroke-width:0.52;stroke-linecap:round;stroke-linejoin:round;stroke-miterlimit:10;}
	.st22{fill:#FFFFFF;stroke:#000000;stroke-width:0.72;stroke-linecap:round;stroke-linejoin:round;stroke-miterlimit:10;}
	.st23{fill:none;stroke:#315164;stroke-width:3;stroke-linecap:round;stroke-linejoin:round;stroke-miterlimit:10;}
</style>
<g>
	<g>
		<path class="st0" d="M472.1,415.9c3.4,3.4,22.2,27.2,17.9,96.1s-96.4,33-96.4,33s-2.8-47.9,0-59.9c2.8-12,0-34.2,0-34.2l53.4-27.4
			L472.1,415.9z"/>
		<rect x="36.2" y="489.8" class="st1" width="386.4" height="64.6"/>
		<g>
			<path d="M105.2,320.8c0,0,11-6.2,20.7,0l-0.7,6.4l-11.2,1.1l-8.8-2.7V320.8z"/>
			<path class="st2" d="M248.4,311.5v8.3c0,0,7.5,3.5,13.5,0v-8.3l-3.3-6.3h-7.5L248.4,311.5z"/>
			<polygon class="st3" points="435.9,484 21.4,481 193.9,324.5 353.4,324 361.7,340.2 410.9,435.5 			"/>
			<polygon class="st4" points="435.9,484 435.9,498.5 21.4,498.5 21.4,481 			"/>
			<path class="st2" d="M186.1,373h-12.4c-8.7,0-15.4-6.5-14.1-13.6l3.6-19.1H195l5.1,18.3C202.1,365.9,195.3,373,186.1,373z"/>
			<path class="st5" d="M190,348.5c0,0,51.4-36.5,58.4-37c0,0,12,3.5,13.5,0s-0.5-22.9-25.5-5s-52,33.8-52,33.8L190,348.5z"/>
			<circle class="st5" cx="179.9" cy="340.3" r="20.5"/>
			<path class="st2" d="M163.7,327.3c0,0-18.3-32.2,47.9-53.1c4.7-1.5,8.7,3.7,6,7.8c-4,6.1-10.5,14-20.4,21.7
				C197.2,303.7,201.8,334.4,163.7,327.3z"/>
			<path class="st2" d="M336.6,408.8l-3.7,0l-16.1-11.2c-3.6-2.7-7.9-4.1-12.3-4.1h-69.4c-4.2,0-8.3,1.3-11.8,3.7l-13.1,10.2
				l-9.6-0.1c-8.6-0.1-12.7-10.6-6.4-16.5l42.5-39.7c1.8-1.7,4.1-2.6,6.5-2.6h65.2c3.1,0,6.1,1.5,7.8,4.1l28.3,41.3
				C348.9,400.3,344.3,408.9,336.6,408.8z"/>
			<path class="st6" d="M332.9,408.8l-122.7-1.4l13.1-10.2c3.5-2.4,7.6-3.7,11.8-3.7h69.4c4.4,0,8.8,1.4,12.3,4.1L332.9,408.8z"/>
			<path class="st7" d="M87.2,343.5l32.7-16.3c0,0,24.8,0.5,25.8,9.5s3.8,64.4,3.8,64.4l-26.5,23.4l-17.3-3.5c0,0-12.3-37.8-13-37.8
				s-3.8-30.8-3.8-30.8L87.2,343.5z"/>
			<path class="st8" d="M121.5,424.5l-28-4c-2.8-0.4-4.9-2.7-5.2-5.5l-6-62.9c0-5.6,4.5-10.1,10.1-10.1l23.4,7.5
				c3.3,1.1,5.5,4.1,5.6,7.5l1.2,66.4C122.6,424,122.1,424.5,121.5,424.5z"/>
			<line class="st9" x1="143.1" y1="339" x2="125.9" y2="350.5"/>
			<polyline class="st9" points="146.7,352 129.6,363.3 131.1,402 148.7,388.5 			"/>
			<path class="st10" d="M115.8,328.4L115.8,328.4c-1.9,0-3.4-1.6-3.4-3.4v-11c0-1.9,1.6-3.4,3.4-3.4h0c1.9,0,3.4,1.6,3.4,3.4v11
				C119.3,326.8,117.7,328.4,115.8,328.4z"/>
			<path class="st10" d="M128.6,329.2c0,6.1-5.8,11-13.1,11c-5,0-9.4-2.4-11.6-5.9c-0.9-1.5-1.5-3.3-1.5-5.1c0-2.7,1.1-5.1,3-7
				c2.5,0.8,6.2,1.4,10.2,1.4c3.9,0,7.5-0.5,10-1.3c1,1.1,1.8,2.3,2.3,3.6C128.4,327,128.6,328.1,128.6,329.2z"/>
			<path class="st11" d="M112.4,312c0,0,6.3,3.8,20.8-1.5C133.1,310.5,112.4,302.5,112.4,312z"/>
		</g>
		<path class="st12" d="M346.9,335.5c0,0-32.4,16.6-52.6,10.3c-20.2-6.3-2.4,6.1-2.4,6.1l20.1,7.7c0,0,16.7,2.3,18.2,2
			c1.5-0.3,16.7-2.3,16.7-2.3v-15V335.5z"/>
		<path class="st13" d="M381.5,189.7c0,0,10.6,25.4,9,41.7s3.1,10,3.1,10l21.3-14.3l7.7-7.3c0,0-23.7-43.7-20.5-58
			c3.2-14.3-8.4,20.7-8.4,20.7L381.5,189.7z"/>
		<path class="st14" d="M346.9,356.9c0,0-4.7-13.8-14.4-16.6V332h10.3l-1.3-8.3c0,0,9.3-0.7,10.3-3.7s25.5-96.3,41.8-87.3l-4.1,36.3
			l-8,30.3l-18.5,49.3L346.9,356.9z"/>
		<path class="st14" d="M417.4,207.5c0,0-4,12-29,25c0,0-24,63-18.5,101.5c0,0-17.5,15.5-28.5,14l-3.5,7l-8,2.3c0,0,7,16.7,5,20.2
			s6.5-3,6.5-3l4.5,7l2-4l7.5,2.9c1.9,0.7,4,0.5,5.8-0.5l15.2-8.9l50,93.5c0,0,38.4,6.2,58.9-32.3c1.1-2,1.4-4.3,0.9-6.5
			c-4.6-23.2-32.2-161.2-46.3-188.2C425.6,210.4,417.4,207.5,417.4,207.5z"/>
		<path class="st9" d="M417.4,243c0,0-15.5,70-47.5,91"/>
		<path class="st15" d="M351.5,181.3c0,0-22.8,9-32.9-6c-10.1-15-5.4-9-11.8-13.7c-6.3-4.7-6.3-15.9-4.7-19.9
			c1.7-4.1-1.7-15.1-5.7-17.4c-4-2.3-2.7-16,4-22s5.3-15,4.7-20c-0.7-5,1.3-26.7,29.7-26.7c0,0,9.8-19.4,45.5-12.8
			c9.1,1.7,17.3,6.6,23,13.9c5.1,6.5,11.9,14.2,17.2,17c9.7,5,20,14.3,18.3,27.2c-1.7,12.8-1.3,19.5,0.2,23.8
			c1.5,4.3,14.2,19,4.2,24.7c-10,5.7-14,6.3-15,10.7s-7.7,22-18.7,16.7c-11-5.3-18.3,0-18.3,0L375.7,188l-16.1-3.7L351.5,181.3z"/>
		<path class="st9" d="M439.4,264c0,0-7.5,77.5-63,107"/>
		<path class="st13" d="M405.4,111c-0.7,1-12,1.2-17.7-3.8c-5.7-5-3.3-10.6-8.7-14c-5.3-3.3-11.7,2-30.7-2.7s-17-17-17-17l1,5.7
			c0,0,2,11.7-5.3,20c-7.1,8-9.1,6.2-10.6,12.4l0.7-2.4c0,0,0,0,0,0c-2,10.8,0.3,24.5,5.5,39.3c10.7,30,36.8,53.2,59.5,47
			c21.4-5.9,33.1-32,27.7-59.8l-1.6,1.5c11.3-9.7,11.7-31,2.9-30s-9.1,16-9.1,16"/>
		<path class="st16" d="M353.9,175.7c0,0,20.3,10,22.5-10.7"/>
		<path class="st16" d="M335.5,120.7c0,0,17,13.2,13,37.6c0,0,5.3,4.2,10,0"/>
		<path class="st16" d="M350.2,114.7c0,0,7.6-6,20.4-3.4"/>
		<path class="st16" d="M317.7,130.3c0,0,4.2-8.4,12.1-8"/>
		<path class="st16" d="M331.4,73.6c-4.3-10.6,3.5-17.9,3.5-17.9"/>
		<path class="st16" d="M398.2,84c0,0-5.3-9-13-8.3c-7.7,0.7-17.2-0.7-20.1-4.7c-2.9-4-27.5-15.5-32.7,8.2"/>
		<path class="st16" d="M306.9,104.7c0,0,4-0.3,5.3-8c1.3-7.7-3.9-16.7,5.5-20c9.5-3.3,12.6-6.6,12.6-6.6"/>
		<g>
			<ellipse transform="matrix(0.9354 -0.3537 0.3537 0.9354 -29.2124 127.537)" cx="334.4" cy="143.7" rx="5" ry="8.6"/>
			<circle class="st17" cx="333.3" cy="141.6" r="2.1"/>
			<path class="st9" d="M323.8,142.5c0,0,3.8-9.6,13.4-7.4"/>
		</g>
		<g>
			<ellipse transform="matrix(0.9575 -0.2886 0.2886 0.9575 -22.2196 111.4131)" cx="366.7" cy="131.1" rx="5" ry="8.6"/>
			<circle class="st17" cx="366.3" cy="128.7" r="2.1"/>
			<path class="st9" d="M374.4,123.7c0,0-8.8-5.3-15.2,2.3"/>
		</g>
		<path class="st18" d="M408.9,112.7c0,0-1,8.7,0,13.3"/>
		<path class="st18" d="M412.9,116.2c0,0-4.5,3.5-4.4,4.5"/>
		<path class="st19" d="M335.1,373.4c0,0-27.9,3-34.2,5c-6.3,2-32,14-48.7,3.3c-16.7-10.7-33-24.7-22.3-26.3c0,0-2.7-9.7,5.3-8
			c0,0-1.3-8.3,6.3-5.3c0,0,0.7-6.7,7-3c6.3,3.7,23.3,19,29,10.3c0,0-8.2-25.7,3.2-21c0,0,3.4,20,15.4,24.7s35.1,6.1,35.1,6.1
			L335.1,373.4z"/>
		<path class="st9" d="M229.9,355.3c0,0,18.3,18,32,18.3"/>
		<path class="st9" d="M235.2,347.3c0,0,18.3,16.7,30,20"/>
		<path class="st9" d="M241.5,342c0,0,19.3,16.3,28.7,18.3"/>
	</g>
	<path class="st20" d="M232.7,367.7c0,0-5.6-7.7,4.2-10.1c0,0-4.5-7.1,4.1-8.4c0,0-1.1-12.8,6.6-11c7.7,1.8,4.8,9.9,4.8,9.9
		s3.8-3.5,6.6-3c3.7,0.8,4.4,4.4,0.9,9.5c0,0,6.7,10.3-3.8,9.6c0,0-1.7,12.8-12.7,6.9C243.4,371,233.6,378.7,232.7,367.7z"/>
	<path class="st20" d="M281.8,361.5c0,0-4.8-8.2,5.2-9.7c0,0-3.8-7.5,4.9-8c0,0,0.1-12.8,7.6-10.3s3.8,10.3,3.8,10.3
		s4.1-3.2,6.8-2.3c3.6,1.1,4,4.8,0,9.5c0,0,5.7,10.8-4.7,9.2c0,0-2.9,12.6-13.3,5.7C292.2,365.8,281.7,372.5,281.8,361.5z"/>
	<path class="st21" d="M209.6,397.5c0,0-2.5-4.3,2.7-5c0,0-2-3.9,2.5-4.2c0,0,0.1-6.7,4-5.4s2,5.4,2,5.4s2.1-1.6,3.6-1.2
		c1.9,0.6,2.1,2.5,0,4.9c0,0,2.9,5.6-2.4,4.8c0,0-1.5,6.6-6.9,3C215,399.8,209.5,403.3,209.6,397.5z"/>
	<path class="st21" d="M269.6,334.9c0,0-2.5-4.3,2.7-5c0,0-2-3.9,2.5-4.2c0,0,0.1-6.7,4-5.4c3.9,1.3,2,5.4,2,5.4s2.1-1.6,3.6-1.2
		c1.9,0.6,2.1,2.5,0,4.9c0,0,2.9,5.6-2.4,4.8c0,0-1.5,6.6-6.9,3C275,337.2,269.5,340.6,269.6,334.9z"/>
	<path class="st22" d="M294.3,392.1c0,0,2.3-6.5,7.7-1.6c0,0,2.4-5.6,6.7-1c0,0,7.2-5.8,9.2-0.5c2.1,5.3-3.9,6.9-3.9,6.9
		s3.7,0.8,4.4,2.7c1.1,2.5-0.8,4.4-5.3,4.4c0,0-3.4,8.1-7.2,1.6c0,0-8.3,4.2-9.3-4.7C296.6,399.8,288.1,397.1,294.3,392.1z"/>
	<path class="st22" d="M258.2,398c0,0-3.5-5.9,3.7-7c0,0-2.7-5.4,3.5-5.8c0,0,0.1-9.2,5.5-7.4c5.4,1.8,2.8,7.4,2.8,7.4
		s3-2.3,4.9-1.7c2.6,0.8,2.9,3.5,0,6.8c0,0,4.1,7.8-3.4,6.6c0,0-2.1,9.1-9.6,4.1C265.6,401.1,258.1,405.9,258.2,398z"/>
	<line class="st23" x1="249.5" y1="326.1" x2="247.7" y2="336.4"/>
	<line class="st23" x1="258.3" y1="358.2" x2="256.5" y2="368.5"/>
	<line class="st23" x1="261.5" y1="363" x2="259.6" y2="373.3"/>
	<line class="st23" x1="247" y1="388.3" x2="247" y2="398.7"/>
	<line class="st23" x1="288.4" y1="377.5" x2="292.6" y2="387.1"/>
	<line class="st23" x1="275.4" y1="363.3" x2="279.6" y2="372.9"/>
	<line class="st23" x1="280.6" y1="390.5" x2="282.4" y2="403.2"/>
	<line class="st23" x1="302.2" y1="375.5" x2="308.5" y2="383.9"/>
	<line class="st23" x1="226.8" y1="371.5" x2="221.2" y2="380.3"/>
	<line class="st23" x1="215.4" y1="378.2" x2="209" y2="386.5"/>
	<line class="st23" x1="256.9" y1="328.8" x2="257.8" y2="339.2"/>
	<line class="st23" x1="261.6" y1="324.4" x2="265.8" y2="334"/>
	<line class="st23" x1="236.6" y1="392.4" x2="234.8" y2="402.7"/>
	<line class="st23" x1="241.5" y1="375.9" x2="239.7" y2="386.2"/>
	<line class="st23" x1="231.7" y1="378.4" x2="229.9" y2="388.7"/>
</g>
</svg>
