<?xml version="1.0" encoding="utf-8"?>
<!-- Generator: Adobe Illustrator 22.1.0, SVG Export Plug-In . SVG Version: 6.00 Build 0)  -->
<svg version="1.1" id="Слой_8" xmlns="http://www.w3.org/2000/svg" xmlns:xlink="http://www.w3.org/1999/xlink" x="0px" y="0px"
	 viewBox="0 0 512 512" style="enable-background:new 0 0 512 512;" xml:space="preserve">
<style type="text/css">
	.st0{fill:none;stroke:#000000;stroke-width:2;stroke-linecap:round;stroke-linejoin:round;stroke-miterlimit:10;}
	.st1{fill:none;stroke:#000000;stroke-width:3;stroke-miterlimit:10;}
	.st2{fill:#DADADA;stroke:#000000;stroke-width:5;stroke-linecap:round;stroke-linejoin:round;stroke-miterlimit:10;}
	.st3{fill:#FFFFFF;stroke:#000000;stroke-width:3;stroke-miterlimit:10;}
	.st4{fill:#F6F6F6;stroke:#000000;stroke-width:4;stroke-linecap:round;stroke-linejoin:round;stroke-miterlimit:10;}
	.st5{fill:none;stroke:#000000;stroke-width:3;stroke-linecap:round;stroke-linejoin:round;stroke-miterlimit:10;}
	.st6{fill:#D1E7F2;stroke:#000000;stroke-width:3;stroke-miterlimit:10;}
	.st7{fill:none;stroke:#000000;stroke-width:6;stroke-linecap:round;stroke-linejoin:round;stroke-miterlimit:10;}
	.st8{fill:#D1E7F2;stroke:#000000;stroke-miterlimit:10;}
	.st9{fill:#D1E7F2;stroke:#000000;stroke-width:0.9069;stroke-miterlimit:10;}
	.st10{fill:#D1E7F2;stroke:#000000;stroke-width:0.75;stroke-linecap:round;stroke-linejoin:round;stroke-miterlimit:10;}
	.st11{fill:#FDCD95;stroke:#000000;stroke-width:2;stroke-linecap:round;stroke-linejoin:round;stroke-miterlimit:10;}
	.st12{fill:#662227;stroke:#000000;stroke-width:1.5029;stroke-linecap:round;stroke-linejoin:round;stroke-miterlimit:10;}
	.st13{fill:#FDCD95;stroke:#000000;stroke-width:1.5029;stroke-linecap:round;stroke-linejoin:round;stroke-miterlimit:10;}
	.st14{fill:none;stroke:#000000;stroke-width:1.5029;stroke-linecap:round;stroke-linejoin:round;stroke-miterlimit:10;}
	.st15{fill:none;stroke:#000000;stroke-width:1.0019;stroke-linecap:round;stroke-linejoin:round;stroke-miterlimit:10;}
	.st16{fill:#FFFFFF;}
	.st17{fill:#FCE790;stroke:#000000;stroke-miterlimit:10;}
	.st18{fill:#FFF1AB;stroke:#000000;stroke-miterlimit:10;}
	.st19{fill:#DADADA;stroke:#000000;stroke-width:3;stroke-miterlimit:10;}
	.st20{fill:none;stroke:#000000;stroke-miterlimit:10;}
	.st21{fill:#C6C6C6;stroke:#000000;stroke-width:3;stroke-miterlimit:10;}
	.st22{fill:#FFFFFF;stroke:#000000;stroke-width:0.75;stroke-linecap:round;stroke-linejoin:round;stroke-miterlimit:10;}
	.st23{fill:none;stroke:#315164;stroke-width:2;stroke-linecap:round;stroke-linejoin:round;stroke-miterlimit:10;}
</style>
<line class="st0" x1="211.7" y1="-45.1" x2="213.6" y2="297.9"/>
<line class="st0" x1="264.1" y1="-33.4" x2="266" y2="313"/>
<line class="st0" x1="118.7" y1="-8.4" x2="120.5" y2="310.9"/>
<line class="st0" x1="316.4" y1="-36.6" x2="318.3" y2="315.9"/>
<polyline class="st1" points="-20,378 148,301 467,307.2 "/>
<line class="st0" x1="363.5" y1="102.8" x2="170.2" y2="108.6"/>
<line class="st0" x1="352.4" y1="155.7" x2="159.1" y2="161.5"/>
<line class="st0" x1="347" y1="227.4" x2="153.6" y2="233.2"/>
<path class="st2" d="M426.6,354.6l-350.1,305l-188.7-176.2c-9.9-9.2-7.8-25.4,4.1-31.8l255.2-138c12.8-6.9,27.7-8.4,41.6-4.1
	l226.1,10.9C432.3,321.4,439.8,343.1,426.6,354.6z"/>
<rect x="233.6" y="5.9" transform="matrix(0.9946 0.1039 -0.1039 0.9946 3.3594 -39.9143)" class="st3" width="302.6" height="12.8"/>
<path class="st4" d="M317.5,425.1L131.1,571.7l-101-75.2c-15.7-11.7-16.1-35-0.7-45.8l107.6-76.1c10.2-7.2,23-9.9,35.6-7.3
	L309.4,395C323.7,397.9,328.6,416.4,317.5,425.1z"/>
<ellipse class="st5" cx="139.7" cy="492.6" rx="24.7" ry="6.6"/>
<ellipse cx="139.7" cy="495.9" rx="12.3" ry="3.3"/>
<path class="st6" d="M334.6,22.8c0,0-12.8,488.9,18.8,482.9c0,0,14.3-17.1,31.5-17.1s36,2.6,53.9-5.1c17.9-7.7,25.6-10.3,41-6.8
	s40.2,2.6,41.9-9.4c1.7-12,5.1-421.4,5.1-421.4s-20.2,5.5-38.2-5.5s-23.3,0.7-33.3-3.7s-21.3-5-28-2.7c-6.7,2.3-12.3-1-17.7-4
	c-5.3-3-11.7-5.3-21.7-4s-18.7-0.1-23.3-3.2C360,19.7,338.8,16.9,334.6,22.8z"/>
<line class="st5" x1="384.9" y1="47" x2="400" y2="405"/>
<line class="st5" x1="406" y1="64" x2="406" y2="121.1"/>
<line class="st5" x1="429.4" y1="64" x2="441" y2="392"/>
<line class="st0" x1="-42.4" y1="127.2" x2="160.1" y2="108.2"/>
<line class="st0" x1="-39.5" y1="202.8" x2="159.1" y2="158.8"/>
<line class="st5" x1="479" y1="72" x2="499" y2="369"/>
<path class="st5" d="M111.3,147.3c0,0,2.3-1.7,7.3-2.3"/>
<line class="st7" x1="174.6" y1="-9.9" x2="176.3" y2="300"/>
<path class="st5" d="M205.7,90c0,0,15,1,17.7,4"/>
<path class="st5" d="M265.3,145.3c0,0,8-0.7,11.7,0.8"/>
<path class="st5" d="M122,460.3c0,0,6.3-1.3,9,0"/>
<line class="st0" x1="25.2" y1="-10.9" x2="27.2" y2="354.4"/>
<line class="st0" x1="76.2" y1="-11.8" x2="78" y2="331.3"/>
<path class="st8" d="M231,439.8c0,0-12.9-2.5-23.3,3.2s-3.7-4.3-7.7-6.3s-20.2,2.3-25.6,6.5c-5.4,4.2-37.1,27.5-20.7,30.9
	s36-1.1,39.7,1.9c3.7,3.1,1.3,4.2,2,7.4c0.7,3.3,20.3-3.7,15.8,3.9c-2.1,3.6,12.7,0.1,19.9-1.7c2.4-0.6,4.7-1.8,6.6-3.4l16.4-14.2
	L237,448L231,439.8z"/>
<path class="st9" d="M173.1,385c0,0-13.1-0.2-22.7,5.8s-4.2-3-8.3-4.1s-19.8,4.6-24.6,8.8c-4.9,4.2-33.6,27.6-17,28
	c16.6,0.5,35.6-5.9,39.5-3.9s1.8,3.2,2.8,5.8c1,2.6,15-4.8,16.8-2.3c1.8,2.5-1.3,7.1,3.2,5.9c4.5-1.2,6.6,0.2,9.2,1.8
	c1.3,0.8,5-1,8.5-3c4.1-2.5,6.9-6.6,7.7-11.3l3.8-21.5c0.8-4.5-4.9-7.5-9.7-5.2h0c-1.3,0.7-2.9,0.5-4-0.4L173.1,385z"/>
<path class="st10" d="M259,505.7c0,0,2,23.7,5.7,16.6c3.7-7.1,1.3-15.3,5.7-14.3c4.3,1-3.6,16,5,10s1.1-17.5,6.5-18.8
	c5.4-1.2,5.4,6.4,7.8,2.7c2.3-3.6,3.3-16.6,0-17.3c-3.3-0.7-10.7,3.8-10.7,3.8l-7.7,7.5L259,505.7z"/>
<path class="st11" d="M185,155.7c0,0-6.3,21.7-32,4.7L118.7,145c0,0,11.3-11,15.7-14.3c4.3-3.3,22.3-16.7,22.3-16.7s5-7.7,4.7-9.3
	c-0.3-1.7,9.3-5,9.3-5s3.7-10.3,0-11.3c-3.7-1-12,1.7-12,1.7s-11,15.7-13.7,17.3c-2.7,1.7-55.7,23.7-55.7,35.3
	c0,11.3,31.3,26.7,52.9,37.9c1.5,0.8,2.7,1.9,3.5,3.3c4.1,6.8,15.4,29.7,13.2,72.1c-2.7,51.7-6,103.3-6,103.3l3.7,81.3
	c0,0-8.4,7.5-25.6,8.3c-1.6,0.1-3.2,0.7-4.2,1.9c-1,1.1-1.5,2.6,0.5,4.1c0,0-6.3,3-5.3,5.3c1,2.3,3,10.7,19.3,6
	c0,0,14.7-7.7,19.3-8.3c4.7-0.7,17.3-3,15.3-10.7c-2-7.7-8.7-12-5.3-23c3.3-11,3-33.3,0.3-38.7c-2.7-5.3,15.7-70.7,15.7-70.7
	l14,42.3c0,0-0.3,20,5,30.3C211,398,218,417,218,417s-0.7,7.7,3.7,10.3c0,0-3.3,15.3,0,18C225,448,233,455,236,461.7
	c3,6.7,13.7,16,17.7,14c4-2,22.3-14.3,9.3-17c0,0-15.3-21.3-20-25.3S233,402,233,402l-17.3-133l6-41.3c0,0,7.7-38.3,23-45.3
	c11-5,37.8-15.1,49.3-28.4c5.9-6.8,3.9-17.4-4.1-21.6c-15.5-8.3-46.2-24.8-48.2-27.3c-2.7-3.3-15.3-20.3-23.3-18.7
	c-8,1.7-12.7,3.7-12.7,3.7l1,8.3c0,0,9,1,12,1.7s4,5.3,4,7s2.7,7.3,10.7,10.3s32,28,32,28s-30.5,19.8-50.5,18.9
	c-4.1-0.2-7.6-3.1-8.6-7l-0.6-2.5l-11.3,2.3L185,155.7z"/>
<g>
	<path class="st12" d="M177.3,147.1c0,0-5.5-4.2-8.5-2.5c-3,1.7-5-3.3-5.6-5.2c-0.4-1.3-3.1-3.1-4.9-4.8c-1.2-1.2-2-5.3-1.8-7
		c0.2-2.8-0.3-6.8-1.5-8.9c-0.8-1.4-1.8-7,0.8-9s4.7-8.9,4.5-11.2c-0.2-2.3,2-7.2,7.6-7c3.7,0.1,9.9-5,10.9-7.8
		c1-2.8,11.4-11,16.9-2c0,0,9.5-1.8,14.7,4.3c5.2,6.2,10.4,5.7,10.4,5.7s6.8,1.8,5,9.4s0.8,10,2.7,11.2c1.8,1.2,3.8,6.7,2.3,9.9
		s-3.5,10.4-3.5,11.9s-0.3,7.5-3.9,9.4c-3.6,1.8-6.4,4-7.8,6c-1,1.5-8,2.3-8.5,1s-5.5,1.7-5.5,1.7s-2,2.8-3,3.2
		c-1,0.3-9.4,0.8-10.2,0c-0.8-0.8-7.2-3-7.3-3.5C180.8,151.3,177.3,147.1,177.3,147.1z"/>
	<path class="st13" d="M174.9,106.3c2.9-0.5,8.2-2.6,10.1-4.9c0.2-0.2,0.4-0.5,0.6-0.7c3.3-4.2,5.7-4.7,7.2-5.5
		c1-0.6,3.4-1.9,4.5-3.7c0.5-0.9,0-1.8,0.4-2.9l-0.8,3.5c17.4-3.5,8.1,16.9,13.3,18.9c5.2,2,7.5,6.2,7.5,6.2l-2.1,2.4
		c1.5-1.8,4.2-4.2,6.3-2.1c3,2.8,3.8,14.4-6.7,18.7c-2.7,14.3-11.2,24.7-21.3,24.7c-10.4,0-19.1-11.1-21.5-26
		c-8.4-2.4-11.1-12.2-7.7-16.4c2.9-3.5,6.1-1.5,7.7,0c0.7-4.6,2.1-8.7,3.9-12.4"/>
	<path class="st14" d="M215.1,101c0,0,0.8-5.2-3.2-6.3s-5-3.3-5.4-4.7c-0.4-1.5-3-5.7-8.6-4.5"/>
	<path class="st14" d="M176.2,116.9c0,0,4.6-2.3,10.3-1.8"/>
	<path class="st14" d="M196.1,115c0,0,7.8-0.1,10.5,2.4"/>
	<path class="st15" d="M187.5,118.6c0,0,2.9,10.3,1.1,16.4c-0.3,1,0.2,2.2,1.2,2.6c1,0.5,2.6,0.7,4.7,0"/>
	<path class="st15" d="M196.1,132.1c0,0,1.5,2.2,1.3,4.2"/>
	<circle cx="180.9" cy="126.8" r="3.2"/>
	<circle class="st16" cx="181" cy="126.8" r="0.9"/>
	<path class="st14" d="M175.7,125.9c0,0,4.6-4.3,9.7-0.7"/>
	<circle cx="203.9" cy="126.2" r="3.2"/>
	<path class="st14" d="M209,125.3c0,0-4.6-4.3-9.7-0.7"/>
	<circle class="st16" cx="203.9" cy="126.3" r="0.9"/>
	<path class="st15" d="M166.3,121.1c0,0,3.2,4.6,3.9,7.1"/>
	<path class="st15" d="M165.5,124.8c0,0,2.3-0.7,3.1,0"/>
	<path class="st15" d="M220.2,122.7c0,0-3.2,4.6-3.9,7.1"/>
	<path class="st15" d="M220.9,126.5c0,0-2.3-0.7-3.1,0"/>
	<path class="st14" d="M195.7,81.6c0,0,1,1.6,1.6,3.5c0.4,1.2,0.5,2.4,0.3,3.6"/>
	<path class="st14" d="M176.5,96.1c0,0,3.3-5.2,6.8-5.8c3.5-0.6,6.5-1.8,7.1-2.8c1-1.7,4-4.5,5.6-4.2"/>
	<path class="st14" d="M185.7,146c0,0,7.1,13.5,15.1-1.3"/>
</g>
<line class="st5" x1="127.3" y1="455" x2="131" y2="455"/>
<polygon class="st17" points="261.3,497.3 262.8,507 264.7,508 281.9,490.7 281.9,481.5 271.6,483.4 262.5,491 "/>
<polygon class="st17" points="239.3,495.9 264.7,499.2 264.7,508 239.3,505.3 "/>
<polyline class="st18" points="239.3,495.9 263.3,477.7 281.9,481.5 264.7,499.2 "/>
<path class="st19" d="M14.2,44.3c0,0,65.5-17,89.2-12c0,0,14.3-1.5,9.2-10c-1.9-3.2-5.4-5.1-9.2-5.4C88.2,15.8,43.5,20.8,14.2,34
	V44.3z"/>
<polyline class="st20" points="264.7,508 281.9,490.7 281.9,481.5 "/>
<path class="st21" d="M8,8.5v63C8,76.2,4.2,80-0.5,80S-9,76.2-9,71.5v-63C-9,3.8-5.2,0-0.5,0c2.3,0,4.5,1,6,2.5C7,4,8,6.2,8,8.5z"/>
<path class="st21" d="M20.3,32.1v19.1c0,4.7-3.8,8.5-8.5,8.5c-1.4,0-2.7-0.3-3.8-0.9V24.5c1.2-0.6,2.5-0.9,3.8-0.9
	c2.3,0,4.5,0.9,6,2.5C19.4,27.7,20.3,29.8,20.3,32.1z"/>
<path class="st21" d="M138,57.1l-21.7,12.5c-5.7,3.3-13.1,1.3-16.4-4.4l-2.7-4.7c-6.7-11.7-2.7-26.7,9-33.5l0,0
	c11.7-6.7,26.7-2.7,33.5,9l2.7,4.7C145.7,46.4,143.7,53.8,138,57.1z"/>
<path class="st10" d="M53.7,465.7c0,0,24.7-12.2,29-4.9c4.3,7.3,4.3,9.8,12,13.2c7.7,3.4,12.3,3.4,15.7,8.8s3.2,10.3-1.4,12
	c-4.6,1.7-15.6,2.7-20.3,7.7c-4.7,5-17.6,7.3-24,3.7c-6.4-3.7-38.2-29.8-38.6-33.5C25.9,468.9,53.7,465.7,53.7,465.7z"/>
<line class="st0" x1="-30.5" y1="305" x2="158.3" y2="229.2"/>
<path class="st22" d="M137.2,245.5c0,0-8.1-11.2,6.1-14.7c0,0-6.5-10.3,5.9-12.2c0,0-1.5-18.6,9.6-16s6.9,14.4,6.9,14.4
	s5.5-5.1,9.6-4.3c5.4,1.1,6.4,6.4,1.3,13.7c0,0,9.7,14.9-5.5,13.9c0,0-2.5,18.6-18.5,10C152.7,250.3,138.4,261.4,137.2,245.5z"/>
<path class="st22" d="M142,301.9c0,0-8.1-11.2,6.1-14.7c0,0-6.5-10.3,5.9-12.2c0,0-1.5-18.6,9.6-16c11.2,2.6,6.9,14.4,6.9,14.4
	s5.5-5.1,9.6-4.3c5.4,1.1,6.4,6.4,1.3,13.7c0,0,9.7,14.9-5.5,13.9c0,0-2.5,18.6-18.5,10C157.5,306.7,143.2,317.8,142,301.9z"/>
<path class="st22" d="M206.2,274.5c0,0-13.6-2.3-5.9-14.8c0,0-11.9-2.8-4.3-12.9c0,0-14.1-12.2-4.3-18.1s15,5.4,15,5.4
	s0.4-7.5,3.8-9.8c4.6-3,9.1,0.1,10.5,8.9c0,0,17.3,3.9,5.8,13.8c0,0,11.3,15-6.2,20.1C220.7,267.1,218.3,285,206.2,274.5z"/>
<path class="st22" d="M225.7,378.4c0,0-13.6-2.3-5.9-14.8c0,0-11.9-2.8-4.3-12.9c0,0-14.1-12.2-4.3-18.1c9.8-6,15,5.4,15,5.4
	s0.4-7.5,3.8-9.8c4.6-3,9.1,0.1,10.5,8.9c0,0,17.3,3.9,5.8,13.8c0,0,11.3,15-6.2,20.1C240.2,371,237.8,388.9,225.7,378.4z"/>
<path class="st22" d="M181.8,336.9c0,0-13.6-2.3-5.9-14.8c0,0-11.9-2.8-4.3-12.9c0,0-14.1-12.2-4.3-18.1s15,5.4,15,5.4
	s0.4-7.5,3.8-9.8c4.6-3,9.1,0.1,10.5,8.9c0,0,17.3,3.9,5.8,13.8c0,0,11.3,15-6.2,20.1C196.3,329.5,193.9,347.4,181.8,336.9z"/>
<path class="st22" d="M209.3,329.4c0,0-13.6-2.3-5.9-14.8c0,0-11.9-2.8-4.3-12.9c0,0-14.1-12.2-4.3-18.1s15,5.4,15,5.4
	s0.4-7.5,3.8-9.8c4.6-3,9.1,0.1,10.5,8.9c0,0,17.3,3.9,5.8,13.8c0,0,11.3,15-6.2,20.1C223.8,322,221.4,339.9,209.3,329.4z"/>
<path class="st22" d="M287.9,172.4c0,0-1.4,9.5-10.2,4.4c0,0-1.7,8.3-8.8,3.2c0,0-8.2,10-12.5,3.3c-4.3-6.7,3.5-10.5,3.5-10.5
	s-5.2-0.1-6.8-2.5c-2.1-3.2-0.1-6.3,6-7.5c0,0,2.4-12.1,9.4-4.3c0,0,10.2-8.1,14,3.9C282.5,162.5,295,163.9,287.9,172.4z"/>
<path class="st22" d="M190.6,89.6c0,0-1.4,9.5-10.2,4.4c0,0-1.7,8.3-8.8,3.2c0,0-8.2,10-12.5,3.3c-4.3-6.7,3.5-10.5,3.5-10.5
	s-5.2-0.1-6.8-2.5c-2.1-3.2-0.1-6.3,6-7.5c0,0,2.4-12.1,9.4-4.3c0,0,10.2-8.1,14,3.9C185.2,79.8,197.6,81.1,190.6,89.6z"/>
<path class="st22" d="M223.6,91.9c0,0-0.8,5.7-6.1,2.6c0,0-1,4.9-5.3,1.9c0,0-4.9,6-7.5,2c-2.6-4,2.1-6.3,2.1-6.3s-3.1-0.1-4.1-1.5
	c-1.3-1.9-0.1-3.8,3.6-4.5c0,0,1.4-7.2,5.6-2.5c0,0,6.1-4.8,8.4,2.4C220.3,86,227.8,86.8,223.6,91.9z"/>
<path class="st22" d="M239.2,108.9c0,0-0.8,5.7-6.1,2.6c0,0-1,4.9-5.3,1.9c0,0-4.9,6-7.5,2c-2.6-4,2.1-6.3,2.1-6.3s-3.1-0.1-4.1-1.5
	c-1.3-1.9-0.1-3.8,3.6-4.5c0,0,1.4-7.2,5.6-2.5c0,0,6.1-4.8,8.4,2.4C236,102.9,243.5,103.8,239.2,108.9z"/>
<path class="st22" d="M242.6,195.9c0,0-0.8,5.7-6.1,2.6c0,0-1,4.9-5.3,1.9c0,0-4.9,6-7.5,2c-2.6-4,2.1-6.3,2.1-6.3s-3.1-0.1-4.1-1.5
	c-1.3-1.9-0.1-3.8,3.6-4.5c0,0,1.4-7.2,5.6-2.5c0,0,6.1-4.8,8.4,2.4C239.3,189.9,246.8,190.8,242.6,195.9z"/>
<path class="st22" d="M195.9,64.2c0,0-0.8,5.7-6.1,2.6c0,0-1,4.9-5.3,1.9c0,0-4.9,6-7.5,2c-2.6-4,2.1-6.3,2.1-6.3S176,64.4,175,63
	c-1.3-1.9-0.1-3.8,3.6-4.5c0,0,1.4-7.2,5.6-2.5c0,0,6.1-4.8,8.4,2.4C192.6,58.3,200.1,59.1,195.9,64.2z"/>
<path class="st22" d="M226,54.6c0,0-0.7,4.9-5.3,2.3c0,0-0.9,4.3-4.6,1.7c0,0-4.3,5.2-6.5,1.7c-2.2-3.5,1.8-5.5,1.8-5.5
	s-2.7-0.1-3.5-1.3c-1.1-1.6-0.1-3.3,3.1-3.9c0,0,1.2-6.3,4.9-2.2c0,0,5.3-4.2,7.3,2C223.2,49.4,229.7,50.1,226,54.6z"/>
<path class="st22" d="M141,118.5c0,0-0.8,5.7-6.1,2.6c0,0-1,4.9-5.3,1.9c0,0-4.9,6-7.5,2c-2.6-4,2.1-6.3,2.1-6.3s-3.1-0.1-4.1-1.5
	c-1.3-1.9-0.1-3.8,3.6-4.5c0,0,1.4-7.2,5.6-2.5c0,0,6.1-4.8,8.4,2.4C137.7,112.5,145.2,113.3,141,118.5z"/>
<path class="st22" d="M113.8,159.9c0,0-0.8,5.7-6.1,2.6c0,0-1,4.9-5.3,1.9c0,0-4.9,6-7.5,2c-2.6-4,2.1-6.3,2.1-6.3s-3.1-0.1-4.1-1.5
	c-1.3-1.9-0.1-3.8,3.6-4.5c0,0,1.4-7.2,5.6-2.5c0,0,6.1-4.8,8.4,2.4C110.6,154,118.1,154.8,113.8,159.9z"/>
<path class="st22" d="M232.2,404.6c0,0-1.6,11.3-12.1,5.2c0,0-2.1,9.9-10.5,3.8c0,0-9.8,11.9-14.9,3.9s4.2-12.5,4.2-12.5
	s-6.2-0.1-8.1-2.9c-2.6-3.8-0.1-7.5,7.1-8.9c0,0,2.8-14.4,11.2-5.1c0,0,12.2-9.6,16.7,4.7C225.8,392.8,240.7,394.4,232.2,404.6z"/>
<path class="st22" d="M150.3,332.7c0,0-1.2,8.5-9.1,3.9c0,0-1.6,7.4-7.9,2.9c0,0-7.3,8.9-11.2,2.9c-3.9-6,3.1-9.4,3.1-9.4
	s-4.7-0.1-6.1-2.2c-1.9-2.8-0.1-5.6,5.3-6.7c0,0,2.1-10.8,8.4-3.8c0,0,9.1-7.2,12.5,3.5C145.5,323.9,156.6,325.1,150.3,332.7z"/>
<path class="st22" d="M203.6,280.7c0,0-1.2,8.5-9.1,3.9c0,0-1.6,7.4-7.9,2.9c0,0-7.3,8.9-11.2,2.9c-3.9-6,3.1-9.4,3.1-9.4
	s-4.7-0.1-6.1-2.2c-1.9-2.8-0.1-5.6,5.3-6.7c0,0,2.1-10.8,8.4-3.8c0,0,9.1-7.2,12.5,3.5C198.8,271.8,209.9,273,203.6,280.7z"/>
<path class="st22" d="M104.3,442.7c0,0-1.2,8.5-9.1,3.9c0,0-1.6,7.4-7.9,2.9c0,0-7.3,8.9-11.2,2.9c-3.9-6,3.1-9.4,3.1-9.4
	s-4.7-0.1-6.1-2.2c-1.9-2.8-0.1-5.6,5.3-6.7c0,0,2.1-10.8,8.4-3.8c0,0,9.1-7.2,12.5,3.5C99.5,433.9,110.6,435.1,104.3,442.7z"/>
<path class="st22" d="M123.9,441.3c0,0-1.2,8.5-9.1,3.9c0,0-1.6,7.4-7.9,2.9c0,0-7.3,8.9-11.2,2.9c-3.9-6,3.1-9.4,3.1-9.4
	s-4.7-0.1-6.1-2.2c-1.9-2.8-0.1-5.6,5.3-6.7c0,0,2.1-10.8,8.4-3.8c0,0,9.1-7.2,12.5,3.5C119.1,432.4,130.3,433.6,123.9,441.3z"/>
<path class="st22" d="M80.1,470.5c0,0-0.8,10.6-11.5,4.1c0,0-1.3,9.2-10.1,2.9c0,0-8.7,10.6-14.3,2.7c-5.6-7.9,3.2-11.6,3.2-11.6
	s-6.1-0.6-8.2-3.4c-2.8-3.8-0.6-7.1,6.4-7.9c0,0,1.8-13.5,10.7-4c0,0,11.3-8.3,16.7,5.6C73,458.9,87.7,461.5,80.1,470.5z"/>
<path class="st22" d="M272.1,432c0,0-13.6-2.3-5.9-14.8c0,0-11.9-2.8-4.3-12.9c0,0-14.1-12.2-4.3-18.1c9.8-6,15,5.4,15,5.4
	s0.4-7.5,3.8-9.8c4.6-3,9.1,0.1,10.5,8.9c0,0,17.3,3.9,5.8,13.8c0,0,11.3,15-6.2,20.1C286.6,424.5,284.2,442.5,272.1,432z"/>
<path class="st22" d="M144.2,390.2c0,0-10.1-1.7-4.4-10.9c0,0-8.8-2.1-3.2-9.5c0,0-10.4-9-3.2-13.4c7.2-4.4,11.1,4,11.1,4
	s0.3-5.6,2.8-7.2c3.4-2.2,6.7,0.1,7.8,6.6c0,0,12.8,2.8,4.3,10.2c0,0,8.3,11.1-4.6,14.9C154.9,384.7,153.1,397.9,144.2,390.2z"/>
<path class="st22" d="M170.7,426.7c0,0-5.4-0.9-2.3-5.8c0,0-4.7-1.1-1.7-5.1c0,0-5.6-4.8-1.7-7.2c3.9-2.4,5.9,2.1,5.9,2.1
	s0.1-3,1.5-3.9c1.8-1.2,3.6,0,4.2,3.5c0,0,6.8,1.5,2.3,5.4c0,0,4.4,5.9-2.4,7.9C176.4,423.7,175.5,430.8,170.7,426.7z"/>
<path class="st22" d="M259,489.7c0,0-5.4-0.9-2.3-5.8c0,0-4.7-1.1-1.7-5.1c0,0-5.6-4.8-1.7-7.2c3.9-2.4,5.9,2.1,5.9,2.1
	s0.1-3,1.5-3.9c1.8-1.2,3.6,0,4.2,3.5c0,0,6.8,1.5,2.3,5.4c0,0,4.4,5.9-2.4,7.9C264.7,486.8,263.8,493.9,259,489.7z"/>
<path class="st22" d="M281.9,469.3c0,0-5.4-0.9-2.3-5.8c0,0-4.7-1.1-1.7-5.1c0,0-5.6-4.8-1.7-7.2s5.9,2.1,5.9,2.1s0.1-3,1.5-3.9
	c1.8-1.2,3.6,0,4.2,3.5c0,0,6.8,1.5,2.3,5.4c0,0,4.4,5.9-2.4,7.9C287.6,466.4,286.7,473.4,281.9,469.3z"/>
<path class="st22" d="M197.6,215.4c0,0-8.3-1.4-3.6-9c0,0-7.2-1.7-2.6-7.8c0,0-8.6-7.4-2.6-11.1c6-3.6,9.2,3.3,9.2,3.3
	s0.2-4.6,2.3-5.9c2.8-1.8,5.5,0.1,6.4,5.4c0,0,10.5,2.3,3.5,8.4c0,0,6.9,9.2-3.8,12.2C206.4,210.8,205,221.8,197.6,215.4z"/>
<path class="st22" d="M158.1,184.1c0,0-8.3-1.4-3.6-9c0,0-7.2-1.7-2.6-7.8c0,0-8.6-7.4-2.6-11.1c6-3.6,9.2,3.3,9.2,3.3
	s0.2-4.6,2.3-5.9c2.8-1.8,5.5,0.1,6.4,5.4c0,0,10.5,2.3,3.5,8.4c0,0,6.9,9.2-3.8,12.2C166.9,179.6,165.4,190.5,158.1,184.1z"/>
<path class="st22" d="M242.1,168.2c0,0-3.1,7.8-9.6,1.6c0,0-3.2,6.7-8.2,0.9c0,0-9,6.9-11.4,0.3c-2.3-6.6,5.1-8.3,5.1-8.3
	s-4.4-1.2-5.3-3.5c-1.2-3.1,1.2-5.4,6.6-5.1c0,0,4.5-9.8,8.9-1.7c0,0,10.4-4.8,11.2,6.2C239.5,158.6,249.9,162.3,242.1,168.2z"/>
<g>
	<g>
		<path d="M187.2,257.7c3.2,0,3.2-5,0-5C184,252.7,184,257.7,187.2,257.7L187.2,257.7z"/>
	</g>
</g>
<path class="st5" d="M378.4,5.2c1.7-6.9,5.2-11.7,9.3-11.7c4.5,0,8.3,5.7,9.8,13.7c0.4,2.1,0.6,4.4,0.6,6.8c0,2.1-0.2,4.2-0.5,6.1
	c-0.3,2-0.8,4-1.4,5.7c-1.9,5.3-5,8.7-8.5,8.7c-3.3,0-6.3-3.1-8.2-8c-1-2.4-1.6-5.3-2-8.5"/>
<path class="st5" d="M344.9,1.7c1.7-6.9,5.2-11.7,9.3-11.7c4.5,0,8.3,5.7,9.7,13.7c0.4,2.1,0.6,4.4,0.6,6.8c0,2.1-0.2,4.2-0.5,6.1
	c-0.3,1.9-0.7,3.7-1.3,5.3c-1.9,5.5-5,9.1-8.6,9.1c-4.1,0-7.7-4.8-9.3-11.6c-0.4-1.5-0.6-3.2-0.8-4.9"/>
<path class="st5" d="M417.8,9.3c1.8-5.7,5-9.4,8.7-9.4c4,0,7.5,4.6,9.2,11.3c0.7,2.8,1.1,5.9,1.1,9.2c0,1.3-0.1,2.6-0.2,3.8
	c-0.3,3.2-1,6.1-1.9,8.6c-1.9,4.9-4.9,8.1-8.3,8.1c-3,0-5.7-2.5-7.6-6.6c-1.5-3.3-2.5-7.5-2.7-12.2"/>
<path class="st5" d="M453.5,13c1.9-4,4.6-6.6,7.6-6.6c3.4,0,6.4,3.2,8.3,8.2c1.3,3.4,2.1,7.7,2.1,12.3c0,0.3,0,0.5,0,0.8
	c0,2.8-0.4,5.5-1,8c-1.7,6.9-5.2,11.7-9.3,11.7c-4.2,0-7.8-5-9.4-12.2c-0.6-2.5-0.9-5.3-0.9-8.3c0-0.4,0-0.9,0-1.3"/>
<path class="st5" d="M492.8,17.1c1.9-3.6,4.4-5.8,7.2-5.8c3.2,0,6,2.9,7.9,7.4c1.5,3.6,2.4,8.1,2.4,13.1c0,0,0,0,0,0
	c0,5.9-1.3,11.1-3.2,14.9c-1.9,3.5-4.4,5.6-7.1,5.6c-3.9,0-7.3-4.3-9.1-10.7c-0.8-2.9-1.3-6.3-1.3-9.8c0-0.7,0-1.4,0-2.1"/>
<line class="st23" x1="136.2" y1="73.3" x2="148.3" y2="90"/>
<line class="st23" x1="128.5" y1="69.6" x2="132.3" y2="76.5"/>
<line class="st23" x1="136.1" y1="64.8" x2="141.7" y2="70.3"/>
<line class="st23" x1="145.6" y1="115.1" x2="154.4" y2="133.8"/>
<line class="st23" x1="235.1" y1="128.9" x2="241.2" y2="136.3"/>
<line class="st23" x1="129.1" y1="212.6" x2="130.2" y2="222.2"/>
<line class="st23" x1="125.1" y1="185.9" x2="126.2" y2="195.5"/>
<line class="st23" x1="149.3" y1="141.5" x2="155.4" y2="149"/>
<line class="st23" x1="236.1" y1="140.7" x2="242.2" y2="148.2"/>
<line class="st23" x1="248.6" y1="205.2" x2="254.7" y2="212.6"/>
<line class="st23" x1="134.7" y1="146.3" x2="139" y2="166.5"/>
<line class="st23" x1="133.7" y1="184" x2="138" y2="204.1"/>
<line class="st23" x1="182.6" y1="209.2" x2="186.9" y2="229.4"/>
<line class="st23" x1="224.3" y1="204.7" x2="228.6" y2="224.8"/>
<line class="st23" x1="242.7" y1="169.3" x2="252.2" y2="187.5"/>
<line class="st23" x1="130.1" y1="82.5" x2="137.8" y2="101.5"/>
<line class="st23" x1="116.6" y1="75.6" x2="119.7" y2="96"/>
<line class="st23" x1="111.3" y1="111.8" x2="114.5" y2="132.1"/>
<line class="st23" x1="140.8" y1="62.3" x2="156.7" y2="75.5"/>
<line class="st23" x1="203.4" y1="66.8" x2="219.2" y2="80"/>
<line class="st23" x1="246.3" y1="115.1" x2="262.2" y2="128.2"/>
</svg>
