<?xml version="1.0" encoding="utf-8"?>
<!-- Generator: Adobe Illustrator 22.1.0, SVG Export Plug-In . SVG Version: 6.00 Build 0)  -->
<svg version="1.1" xmlns="http://www.w3.org/2000/svg" xmlns:xlink="http://www.w3.org/1999/xlink" x="0px" y="0px"
	 viewBox="0 0 512 512" style="enable-background:new 0 0 512 512;" xml:space="preserve">
<style type="text/css">
	.st0{fill:#FCE0C5;stroke:#000000;stroke-width:2;stroke-linecap:round;stroke-linejoin:round;stroke-miterlimit:10;}
	.st1{fill:none;stroke:#000000;stroke-width:2;stroke-linecap:round;stroke-linejoin:round;stroke-miterlimit:10;}
	.st2{fill:#FFFFFF;stroke:#000000;stroke-width:3;stroke-miterlimit:10;}
	.st3{fill:#315164;stroke:#000000;stroke-width:3;stroke-miterlimit:10;}
</style>
<g id="Слой_3">
</g>
<g id="Слой_4">
	<g>
		<g>
			<path class="st0" d="M271.1,353.7c0,0,10.3-23.5,14.9-30.4s16-35.5,15.5-54.4c-0.6-18.9,1.2-25.6-10.1-29c0,0,5.6-22.5-15.3-21.2
				c0,0,6.3-65.6-6.8-59.3c-13.1,6.3-12.4,84.1-22.1,71.7c-9.7-12.4-9.2-66-22.1-57.9c-12.8,8.1-0.9,54.3,0,63.1
				c0.9,8.8-0.2,38.1-1.1,39.7c-0.9,1.6-2.9,2.9-3.2,9.9c-0.2,7,3.4,27,2.5,35.4c-0.9,8.3-6.3,28.8-6.3,28.8S245,363.2,271.1,353.7z
				"/>
			<path class="st1" d="M259.3,256.7c0,0-1-27.8,16.8-38"/>
			<path class="st1" d="M275,254.8c0,0,8.1-12.2,16.4-14.9"/>
			<path class="st1" d="M249.5,273.7c0,0,11.1,5.2,18.2,0s14.3-23.4,0-18.9c0,0-10.3,2.5-16.8,3.3c-6.5,0.8-8.8,1-15.5,7
				c-6.8,6-11.3,10.9-11.3,10.9"/>
			<path class="st1" d="M243.2,287c0,0,7.9-8.5,12.6-11"/>
			<path class="st1" d="M294.6,258.1c0,0-12.4,13.4-13.5,16.8s-13.7,12.6-14.4,0"/>
			<path class="st1" d="M259.3,252.1c0,0,6.4-9.9,8.9-4.1c0.4,0.8,0.5,1.7,0.5,2.6v3.5"/>
			<path class="st1" d="M260.6,256.7c0,0-1,5.5,7.5,4c3-0.5,7.9-4,7.9-4"/>
			<path class="st1" d="M273.7,266.2c0,0,5.8-4.1,5.8,0s-1.5,13.2-4.5,14.1"/>
		</g>
		<g>
			<path class="st0" d="M84.3,354.8c1.9-0.4,3.5-1.8,4.1-3.7c2.6-8.1,10.1-30.2,14-33.6c4.9-4.2,8.4-12.6,17.4-32.1
				c9.1-19.5,11.9-23.7,19.5-31.7c7.7-8,19.6-42,3.8-31c-13.7,9.5-19.7,29-26.7,27.5c-2.3-0.5-3.4-3.2-2.3-5.3
				c6.1-11.7,30.5-59.8,15.5-55.9c-2.5,0.6-4.5,2.4-5.7,4.6c-6.5,11.8-32.1,57.5-25.4,33.6c7.9-28.2,12.1-68.5,1.7-55.4
				c-13.9,17.4-18.3,73.3-20.2,53c-1.9-20,7.6-62.1-7-46.4c-16.8,18.1-3.5,71.8-26.8,78.1c0,0-10.1-34.5-23.4-33.8
				s-6.7,7.7-5.6,10.5c1.1,2.6,11.9,28.2,11.2,33.5c-0.7,5.2,3.1,16.7,11.5,27.9s8.4,17.4,8.4,17.4L40,347.6
				C40,347.6,43,362.8,84.3,354.8z"/>
			<path class="st1" d="M73.5,320.4c0,0,9.1,6.6,26.9,0"/>
			<path class="st1" d="M56.5,263.2c0,0-8.2-0.6-10.2-6.7"/>
			<path class="st1" d="M67.5,254.8c0,0,7.2,3.3,15.4,10.3c6.2,5.3,13,12.7,17.5,22.3"/>
			<path class="st1" d="M106.5,279.5c0,0-14.5-13.5-22.6-14.4"/>
		</g>
		<path class="st2" d="M472,393.1H337.5c-13.9,0-25.2-11.3-25.2-25.2V233.3c0-13.9,11.3-25.2,25.2-25.2H472
			c13.9,0,25.2,11.3,25.2,25.2v134.5C497.2,381.8,485.9,393.1,472,393.1z"/>
		<circle class="st3" cx="467.4" cy="239.6" r="20.2"/>
		<circle class="st3" cx="348.9" cy="299.6" r="20.2"/>
		<circle class="st3" cx="466.6" cy="298" r="20.2"/>
		<circle class="st3" cx="408.1" cy="300.6" r="20.2"/>
		<circle class="st3" cx="348.9" cy="239.4" r="20.2"/>
		<circle class="st3" cx="348.9" cy="361.8" r="20.2"/>
		<circle class="st3" cx="467.4" cy="361.3" r="20.2"/>
		<polygon points="213.6,261.3 186.6,261.3 186.6,234.3 177.3,234.3 177.3,261.3 150.2,261.3 150.2,270.6 177.3,270.6 177.3,297.7 
			186.6,297.7 186.6,270.6 213.6,270.6 		"/>
		<g>
			<path d="M401.9,120.5c8.5-0.5,20.3-1.6,28.7-1.6c1.6,0,4.8,0.1,4.8,2.4c0,1.2-0.1,2.5-0.8,3.5c-11.2,16.3-16.8,35.6-21.6,54.5
				c-1.1,4.3-1.7,8.7-2.9,12.8c-0.8,2.9-2,4.5-5.2,4.5c-2.8,0-6.1-0.8-6.1-4.1c0-1.1,0.3-2,0.5-2.9c5.7-20.1,10-40,20.5-58.4
				c0.8-1.5,3.5-4.9,3.5-6.4c0-0.7-0.7-0.8-1.3-0.8c-6.5,0-13.3,1.5-20,1.5c-1.2,0-5.1-0.4-5.1-2
				C396.8,121.3,400.4,120.5,401.9,120.5z"/>
		</g>
	</g>
</g>
</svg>
