<?xml version="1.0" encoding="utf-8"?>
<!-- Generator: Adobe Illustrator 22.1.0, SVG Export Plug-In . SVG Version: 6.00 Build 0)  -->
<svg version="1.1" id="Слой_4" xmlns="http://www.w3.org/2000/svg" xmlns:xlink="http://www.w3.org/1999/xlink" x="0px" y="0px"
	 viewBox="0 0 512 512" style="enable-background:new 0 0 512 512;" xml:space="preserve">
<style type="text/css">
	.st0{fill:#FFFFFF;stroke:#000000;stroke-width:3;stroke-miterlimit:10;}
	.st1{fill:#315164;stroke:#000000;stroke-width:3;stroke-miterlimit:10;}
	.st2{fill:#FCE0C5;stroke:#000000;stroke-width:2;stroke-linecap:round;stroke-linejoin:round;stroke-miterlimit:10;}
	.st3{fill:none;stroke:#000000;stroke-width:2;stroke-linecap:round;stroke-linejoin:round;stroke-miterlimit:10;}
</style>
<g>
	<path class="st0" d="M214.8,472.7H76.2c-13.9,0-25.2-11.3-25.2-25.2V308.9c0-13.9,11.3-25.2,25.2-25.2h138.6
		c13.9,0,25.2,11.3,25.2,25.2v138.6C240,461.4,228.7,472.7,214.8,472.7z"/>
	<circle class="st1" cx="209.5" cy="315.6" r="20.6"/>
	<circle class="st1" cx="145.5" cy="378.2" r="20.6"/>
	<circle class="st1" cx="88.4" cy="315.6" r="20.6"/>
	<circle class="st1" cx="88.4" cy="440.8" r="20.6"/>
	<circle class="st1" cx="209.5" cy="440.2" r="20.6"/>
</g>
<g>
	<path class="st0" d="M435.8,472.7H297.2c-13.9,0-25.2-11.3-25.2-25.2V308.9c0-13.9,11.3-25.2,25.2-25.2h138.6
		c13.9,0,25.2,11.3,25.2,25.2v138.6C461,461.4,449.7,472.7,435.8,472.7z"/>
	<circle class="st1" cx="430.5" cy="315.6" r="20.6"/>
	<circle class="st1" cx="366.5" cy="378.2" r="20.6"/>
	<circle class="st1" cx="309.4" cy="315.6" r="20.6"/>
	<circle class="st1" cx="309.4" cy="440.8" r="20.6"/>
	<circle class="st1" cx="430.5" cy="440.2" r="20.6"/>
</g>
<g>
	<path d="M227.9,222.7c-1.1,0-3.5-0.3-3.5-1.9c0-3,10.9-19.6,13.6-21.8c0.8-0.5,1.9-0.8,2.9-0.8c2.3,0,4.8,0.8,4.8,3.5
		c0,1.1-0.3,2.1-0.4,3.3c-3.1,22-5.5,44.1-7.8,66.3c-0.1,1.3-0.3,2.3-1.4,2.9c-0.9,0.4-1.9,0.5-2.9,0.5c-2.8,0-5.9-0.9-5.9-4.3
		c0-1.1,0.3-2.3,0.4-3.4c1.8-13.4,3-26.9,4.9-40.3c0.4-2.5,1-5.4,1.4-8.1c0.1-2-0.8-2.4-1.6-0.6C231.2,220.2,230,222.7,227.9,222.7z
		"/>
	<path d="M288,202.7c5.4,4.5,6.6,9.6,6.8,16.4c0.5,17.4-2,55.9-25.5,55.9c-9.1,0-17-4.3-17.3-14.3c-0.4-12.6,6.5-41.3,12.5-52.3
		c2.9-5.4,7.6-10.6,14.3-10.6C283.8,197.8,284.5,199.9,288,202.7z M275,265.2c8.8-11.4,10.4-33.4,10-47.5
		c-0.1-3.3-1.5-13.9-6.1-13.9c-8.6,0-17.4,48-17.1,57.8c0.1,3.6,1.1,8.8,5.8,8.8C270.5,270.4,273.3,267.5,275,265.2z"/>
</g>
<g>
	<g>
		<path class="st2" d="M142.5,202.8c1.7-0.3,3.1-1.6,3.6-3.2c2.3-7.2,8.9-26.6,12.4-29.6c4.3-3.7,7.4-11.1,15.4-28.3
			c8-17.2,10.4-20.9,17.2-28c6.8-7.1,17.3-37,3.4-27.3c-12.1,8.4-17.3,25.5-23.5,24.3c-2.1-0.4-3-2.8-2.1-4.7
			c5.4-10.3,26.9-52.7,13.6-49.2c-2.2,0.6-4,2.1-5.1,4c-5.7,10.4-28.3,50.6-22.4,29.6c7-24.9,10.7-60.3,1.5-48.9
			c-12.2,15.4-16.1,64.6-17.8,46.7c-1.7-17.6,6.7-54.7-6.1-40.9c-14.8,16-3.1,63.3-23.7,68.8c0,0-8.9-30.4-20.6-29.8
			c-11.7,0.6-5.9,6.8-4.9,9.2c1,2.3,10.4,24.9,9.8,29.5c-0.6,4.6,2.8,14.7,10.1,24.6c7.4,9.8,7.4,15.4,7.4,15.4l-7.4,31.3
			C103.5,196.4,106.1,209.9,142.5,202.8z"/>
		<path class="st3" d="M133,172.5c0,0,8.1,5.8,23.7,0"/>
		<path class="st3" d="M118,122.1c0,0-7.2-0.5-9-5.9"/>
		<path class="st3" d="M127.7,114.7c0,0,6.4,2.9,13.6,9c5.5,4.7,11.4,11.2,15.4,19.6"/>
		<path class="st3" d="M162.1,136.4c0,0-12.8-11.9-19.9-12.7"/>
	</g>
	<g>
		<path class="st2" d="M355.9,202.8c1.7-0.3,3.1-1.6,3.6-3.2c2.3-7.2,8.9-26.6,12.4-29.6c4.3-3.7,7.4-11.1,15.4-28.3
			c8-17.2,10.4-20.9,17.2-28c6.8-7.1,17.3-37,3.4-27.3c-12.1,8.4-17.3,25.5-23.5,24.3c-2.1-0.4-3-2.8-2.1-4.7
			c5.4-10.3,26.9-52.7,13.6-49.2c-2.2,0.6-4,2.1-5.1,4c-5.7,10.4-28.3,50.6-22.4,29.6c7-24.9,10.7-60.3,1.5-48.9
			c-12.2,15.4-16.1,64.6-17.8,46.7c-1.7-17.6,6.7-54.7-6.1-40.9c-14.8,16-3.1,63.3-23.7,68.8c0,0-8.9-30.4-20.6-29.8
			c-11.7,0.6-5.9,6.8-4.9,9.2c1,2.3,10.4,24.9,9.8,29.5s2.8,14.7,10.1,24.6c7.4,9.8,7.4,15.4,7.4,15.4l-7.4,31.3
			C316.9,196.4,319.5,209.9,355.9,202.8z"/>
		<path class="st3" d="M346.4,172.5c0,0,8.1,5.8,23.7,0"/>
		<path class="st3" d="M331.4,122.1c0,0-7.2-0.5-9-5.9"/>
		<path class="st3" d="M341.1,114.7c0,0,6.4,2.9,13.6,9c5.5,4.7,11.4,11.2,15.4,19.6"/>
		<path class="st3" d="M375.5,136.4c0,0-12.8-11.9-19.9-12.7"/>
	</g>
	<polygon points="283.8,119 256.8,119 256.8,92 247.5,92 247.5,119 220.4,119 220.4,128.4 247.5,128.4 247.5,155.4 256.8,155.4 
		256.8,128.4 283.8,128.4 	"/>
</g>
</svg>
