<?xml version="1.0" encoding="utf-8"?>
<!-- Generator: Adobe Illustrator 22.1.0, SVG Export Plug-In . SVG Version: 6.00 Build 0)  -->
<svg version="1.1" id="Слой_3" xmlns="http://www.w3.org/2000/svg" xmlns:xlink="http://www.w3.org/1999/xlink" x="0px" y="0px"
	 viewBox="0 0 512 512" style="enable-background:new 0 0 512 512;" xml:space="preserve">
<style type="text/css">
	.st0{fill:none;stroke:#000000;stroke-width:3;stroke-linecap:round;stroke-linejoin:round;stroke-miterlimit:10;}
	.st1{fill:#F2DE29;stroke:#000000;stroke-width:3;stroke-linecap:round;stroke-linejoin:round;stroke-miterlimit:10;}
</style>
<path class="st0" d="M439,188.1l-2.2,3.8c-13.5,11.8-89.3,20.8-180.8,20.8c-90.9,0-166.4-8.9-180.6-20.6l-2.4-4
	c0-13.6,81.9-24.6,183-24.6S439,174.6,439,188.1z"/>
<path class="st0" d="M73,188.1l2.4,4C73.9,190.8,73,189.5,73,188.1z"/>
<path class="st0" d="M439,188.1c0,1.3-0.7,2.5-2.2,3.8L439,188.1z"/>
<g>
	<path class="st0" d="M366.3,315.3c0.1-0.5,0.2-1.1,0.2-1.6c0-16.9-48.4-30.5-108.1-30.5c-59.7,0-108,13.7-108,30.5
		c0,0.5,0.1,1.1,0.2,1.6"/>
	<path class="st0" d="M436.8,191.9l-70.7,124.2c0,16.8-48.4,30.5-108,30.5c-59.7,0-108.1-13.7-108.1-30.5l-74.5-124
		c14.2,11.7,89.6,20.6,180.6,20.6C347.5,212.7,423.3,203.7,436.8,191.9z"/>
</g>
<circle class="st1" cx="250.3" cy="284.7" r="23.4"/>
<circle class="st1" cx="216.9" cy="282.1" r="23.4"/>
<circle class="st1" cx="291" cy="286" r="23.4"/>
<circle class="st1" cx="314.7" cy="304.6" r="23.4"/>
<circle class="st1" cx="206.7" cy="307.5" r="23.4"/>
<circle class="st1" cx="243.5" cy="313.4" r="23.4"/>
<circle class="st1" cx="280" cy="311.3" r="23.4"/>
</svg>
