<?xml version="1.0" encoding="utf-8"?>
<!-- Generator: Adobe Illustrator 22.1.0, SVG Export Plug-In . SVG Version: 6.00 Build 0)  -->
<svg version="1.1" id="Слой_5" xmlns="http://www.w3.org/2000/svg" xmlns:xlink="http://www.w3.org/1999/xlink" x="0px" y="0px"
	 viewBox="0 0 512 512" style="enable-background:new 0 0 512 512;" xml:space="preserve">
<style type="text/css">
	.st0{fill:#F2DE29;stroke:#000000;stroke-width:3;stroke-linecap:round;stroke-linejoin:round;stroke-miterlimit:10;}
</style>
<g>
	<path d="M153.7,236.2l28.7-25.8l-10.8-4.7l29.1-66.4c1.4-3.2,0.5-6.7-2-7.9s-5.7,0.6-7.2,3.8l-29.1,66.4l-9.3-4.1L153.7,236.2z"/>
	<g>
		<circle class="st0" cx="267.8" cy="274.3" r="23.4"/>
		<circle class="st0" cx="234.4" cy="271.7" r="23.4"/>
		<circle class="st0" cx="308.5" cy="275.7" r="23.4"/>
		<circle class="st0" cx="332.2" cy="294.3" r="23.4"/>
		<circle class="st0" cx="224.2" cy="297.2" r="23.4"/>
		<circle class="st0" cx="261.1" cy="303" r="23.4"/>
		<circle class="st0" cx="297.5" cy="301" r="23.4"/>
	</g>
	<g>
		<circle class="st0" cx="403" cy="270.9" r="23.4"/>
		<circle class="st0" cx="370" cy="264.8" r="23.4"/>
		<circle class="st0" cx="443.3" cy="276.4" r="23.4"/>
		<circle class="st0" cx="465" cy="297.4" r="23.4"/>
		<circle class="st0" cx="357.3" cy="289.1" r="23.4"/>
		<circle class="st0" cx="393.3" cy="298.7" r="23.4"/>
		<circle class="st0" cx="429.7" cy="300.5" r="23.4"/>
	</g>
	<circle class="st0" cx="285.1" cy="215" r="23.4"/>
	<circle class="st0" cx="310.7" cy="288.2" r="23.4"/>
	<circle class="st0" cx="425.7" cy="224" r="23.4"/>
	<circle class="st0" cx="357.5" cy="224.6" r="23.4"/>
	<circle class="st0" cx="260.9" cy="241.5" r="23.4"/>
	<circle class="st0" cx="297.7" cy="247.3" r="23.4"/>
	<circle class="st0" cx="334.1" cy="248" r="23.4"/>
	<circle class="st0" cx="352.5" cy="183.6" r="23.4"/>
	<circle class="st0" cx="361.4" cy="167.8" r="23.4"/>
	<circle class="st0" cx="393.3" cy="200.6" r="23.4"/>
	<circle class="st0" cx="384.7" cy="228.2" r="23.4"/>
	<circle class="st0" cx="416.6" cy="247.3" r="23.4"/>
	<circle class="st0" cx="320.9" cy="211.5" r="23.4"/>
	<circle class="st0" cx="334.1" cy="144.4" r="23.4"/>
	<circle class="st0" cx="308.9" cy="177.2" r="23.4"/>
	<circle class="st0" cx="99.6" cy="313.7" r="38"/>
	<circle class="st0" cx="157.2" cy="341.4" r="38"/>
	<circle class="st0" cx="61.6" cy="353" r="38"/>
</g>
</svg>
