<?xml version="1.0" encoding="utf-8"?>
<!-- Generator: Adobe Illustrator 22.1.0, SVG Export Plug-In . SVG Version: 6.00 Build 0)  -->
<svg version="1.1" xmlns="http://www.w3.org/2000/svg" xmlns:xlink="http://www.w3.org/1999/xlink" x="0px" y="0px"
	 viewBox="0 0 512 512" style="enable-background:new 0 0 512 512;" xml:space="preserve">
<style type="text/css">
	.st0{fill:#FCE0C5;stroke:#000000;stroke-width:2;stroke-linecap:round;stroke-linejoin:round;stroke-miterlimit:10;}
	.st1{fill:none;stroke:#000000;stroke-width:2;stroke-linecap:round;stroke-linejoin:round;stroke-miterlimit:10;}
	.st2{fill:#FFFFFF;stroke:#000000;stroke-width:3;stroke-miterlimit:10;}
	.st3{fill:#315164;stroke:#000000;stroke-width:3;stroke-miterlimit:10;}
</style>
<g id="Слой_4">
</g>
<g id="Слой_5">
	<g>
		<g>
			<path class="st0" d="M81.3,356.3c1.9-0.4,3.5-1.8,4.1-3.7c2.6-8.1,10.1-30.2,14-33.6c4.9-4.2,8.4-12.6,17.4-32.1
				c9.1-19.5,11.9-23.7,19.5-31.7c7.7-8,19.6-42,3.8-31c-13.7,9.5-19.7,29-26.7,27.5c-2.3-0.5-3.4-3.2-2.3-5.3
				c6.1-11.7,30.5-59.8,15.5-55.9c-2.5,0.6-4.5,2.4-5.7,4.6c-6.5,11.8-32.1,57.5-25.4,33.6c7.9-28.2,12.1-68.5,1.7-55.4
				c-13.9,17.4-18.3,73.3-20.2,53c-1.9-20,7.6-62.1-7-46.4c-16.8,18.1-3.5,71.8-26.8,78.1c0,0-10.1-34.5-23.4-33.8
				s-6.7,7.7-5.6,10.5c1.1,2.6,11.9,28.2,11.2,33.5c-0.7,5.2,3.1,16.7,11.5,27.9s8.4,17.4,8.4,17.4L37,349
				C37,349,40,364.3,81.3,356.3z"/>
			<path class="st1" d="M70.5,321.9c0,0,9.1,6.6,26.9,0"/>
			<path class="st1" d="M53.5,264.7c0,0-8.2-0.6-10.2-6.7"/>
			<path class="st1" d="M64.5,256.3c0,0,7.2,3.3,15.4,10.3c6.2,5.3,13,12.7,17.5,22.3"/>
			<path class="st1" d="M103.5,280.9c0,0-14.5-13.5-22.6-14.4"/>
		</g>
		<path class="st2" d="M475,394.5H340.5c-13.9,0-25.2-11.3-25.2-25.2V234.8c0-13.9,11.3-25.2,25.2-25.2H475
			c13.9,0,25.2,11.3,25.2,25.2v134.5C500.2,383.2,488.9,394.5,475,394.5z"/>
		<circle class="st3" cx="470.4" cy="241" r="20.2"/>
		<circle class="st3" cx="351.9" cy="301.1" r="20.2"/>
		<circle class="st3" cx="469.6" cy="299.5" r="20.2"/>
		<circle class="st3" cx="411.1" cy="302.1" r="20.2"/>
		<circle class="st3" cx="411.1" cy="363.3" r="20.2"/>
		<circle class="st3" cx="409.8" cy="242.5" r="20.2"/>
		<circle class="st3" cx="351.9" cy="240.8" r="20.2"/>
		<circle class="st3" cx="351.9" cy="363.3" r="20.2"/>
		<circle class="st3" cx="470.4" cy="362.8" r="20.2"/>
		<polygon points="210.6,262.8 183.6,262.8 183.6,235.8 174.3,235.8 174.3,262.8 147.2,262.8 147.2,272.1 174.3,272.1 174.3,299.1 
			183.6,299.1 183.6,272.1 210.6,272.1 		"/>
		<g>
			<path class="st0" d="M263.5,358.7c0,0,7.3-18.5,11.8-24s18.2-22,16-44.4c-2.2-22.4,3.2-38,5.4-40.9c2.1-2.7,19.2-42.4,7.2-40.3
				c-1.9,0.3-3.6,1.6-4.5,3.3c-5.5,9.9-29.2,51.6-23.8,21.3c6.1-34.2,8.9-56.9-2.9-48.2c-13.9,10.1-17.6,80.5-21.7,44.4
				s-0.3-63.6-11.2-55.3c-14,10.7,1.6,83.4-9.6,56.9c-11.2-26.5-17.4-62.4-23-40.9c-4.5,17.3,10.9,46,11.2,70.6
				c0.3,24.6-1.9,29.1-1.9,29.1s-1.6,0-2.9,18.2c-1.3,18.2-3.2,44.1-3.2,44.1S219.7,365.4,263.5,358.7z"/>
			<path class="st1" d="M250.1,278.8c0,0,7.3-2.9,17.9-6.1s12.1-15.7,2.6-15c-9.6,0.6-23.6,2.9-31.6,10.5
				c-8,7.7-22.4,22.1-22.4,22.1"/>
			<path class="st1" d="M246.7,336.6c0,0,15.8,7,28.6-1.9"/>
			<path class="st1" d="M244.3,291.9c0,0,11-7.8,13-15.7"/>
			<path class="st1" d="M261,258.8c0,0-0.9,9.9,15.9,4"/>
		</g>
		<g>
			<path d="M401,162.5c-7.6,0-11.1-5-11.1-12.2c0-11.2,8.6-32.9,21.8-32.9c7.9,0,10.3,5.4,12.7,5.7c2.6,0.3,5.2,0.4,5.2,3.7
				c0,2-0.5,3.8-0.8,5.7c-2,17-4.5,33.9-7.8,50.6c-1.5,7.7-3.8,15.5-13.1,15.5c-3,0-10-1.5-10-5.5c0-1.8,1.8-2.3,3.1-2.3
				c2.1,0,4.3,0.1,5.4,2.3c2.4-0.5,4-8.2,4.4-10.2c1-4.4,4.4-19.8,5.5-27.2c0.4-1.9-0.6-2.4-2-0.9
				C411.9,157.6,407.1,162.5,401,162.5z M419.2,130.6c0-2.5-2.8-8.7-5.8-8.7c-7.9,0-18.5,35.3-12.3,35.3
				C405.9,157.1,419.2,135.7,419.2,130.6z"/>
		</g>
	</g>
</g>
</svg>
