<?xml version="1.0" encoding="utf-8"?>
<!-- Generator: Adobe Illustrator 22.1.0, SVG Export Plug-In . SVG Version: 6.00 Build 0)  -->
<svg version="1.1" xmlns="http://www.w3.org/2000/svg" xmlns:xlink="http://www.w3.org/1999/xlink" x="0px" y="0px"
	 viewBox="0 0 512 512" style="enable-background:new 0 0 512 512;" xml:space="preserve">
<style type="text/css">
	.st0{fill:#FFFFFF;stroke:#000000;stroke-width:3;stroke-miterlimit:10;}
	.st1{fill:#FCE0C5;stroke:#000000;stroke-width:3;stroke-linecap:round;stroke-linejoin:round;stroke-miterlimit:10;}
	.st2{fill:none;stroke:#000000;stroke-width:3;stroke-linecap:round;stroke-linejoin:round;stroke-miterlimit:10;}
</style>
<g id="Слой_3">
</g>
<g id="Слой_4">
	<g>
		<path class="st0" d="M436.6,418.4H261.9c-13.9,0-25.2-11.3-25.2-25.2V218.4c0-13.9,11.3-25.2,25.2-25.2h174.8
			c13.9,0,25.2,11.3,25.2,25.2v174.8C461.9,407.2,450.6,418.4,436.6,418.4z"/>
		<g>
			<path d="M372.5,99.1c6.2,5.2,7.6,11,7.7,18.8c0.6,19.9-2.3,64.1-29.3,64.1c-10.5,0-19.5-4.9-19.8-16.4
				c-0.4-14.5,7.5-47.3,14.3-60c3.3-6.2,8.7-12.2,16.4-12.2C367.6,93.6,368.4,96,372.5,99.1z M357.5,170.9
				c10-13.1,11.9-38.3,11.5-54.5c-0.1-3.7-1.7-15.9-7-15.9c-9.9,0-19.9,55.1-19.7,66.3c0.1,4.2,1.3,10,6.6,10
				C352.4,176.7,355.5,173.4,357.5,170.9z"/>
		</g>
		<path class="st1" d="M94.9,392.1c0,0,66,35.5,96.5,4.5c0,0-1-67,2.5-73s28.5-57,11.5-81.5c0,0,11-53.5-27-38.5c0,0,0-36.5-38-21.5
			c0,0-15.5-31.3-40-3.6c0,0-34.5-36.4-46,23.1l-2.5,14.5c0,0-4,4.5,0,27.5s-0.5,35.5,0.5,40s38.5,44,44.5,49.5
			S94.9,392.1,94.9,392.1z"/>
		<path class="st2" d="M170.4,330.6c0,0,11.5,3,23.5-7"/>
		<path class="st2" d="M81.9,237.6c0,0,38-2.5,47.5-16c10.4-14.8,6.5-31.2-11.5-28.3s-22.1,6.8-30,8.8c-4.1,1-34.2,3.5-36,14"/>
		<path class="st2" d="M103.8,234.2c0,0,0.8,5.6-0.3,11.2c-0.7,3.4-2,6.9-4.6,9.1"/>
		<path class="st2" d="M104.1,282.6c0,0,11.6-19.7-0.6-37.1"/>
		<path class="st2" d="M125.9,260.1c0,0,30.5,20,25,45.8"/>
		<line class="st2" x1="101.5" y1="197.1" x2="100.4" y2="178.4"/>
		<path class="st2" d="M109.1,232.9c0,0,3.8,15.7,16.8,12.7s14.5-63.5,14.5-63.5"/>
		<path class="st2" d="M132.5,237.6c0,0,7.9,19.5,26.4,6.8c17-11.6,19.5-40.8,19.5-40.8"/>
		<path class="st2" d="M158.1,245.5c0,0,3.5,32.8,41.4,0.1l6-3.5"/>
		<path class="st2" d="M132.9,334.1c0,0-20.5,9.5-36-1"/>
		<path class="st2" d="M96.6,199c0,0,0.7,29.3,38.1,3.3"/>
	</g>
</g>
</svg>
