<?xml version="1.0" encoding="utf-8"?>
<!-- Generator: Adobe Illustrator 22.1.0, SVG Export Plug-In . SVG Version: 6.00 Build 0)  -->
<svg version="1.1" id="Слой_4" xmlns="http://www.w3.org/2000/svg" xmlns:xlink="http://www.w3.org/1999/xlink" x="0px" y="0px"
	 viewBox="0 0 512 512" style="enable-background:new 0 0 512 512;" xml:space="preserve">
<style type="text/css">
	.st0{fill:#FCE0C5;stroke:#000000;stroke-width:3;stroke-linecap:round;stroke-linejoin:round;stroke-miterlimit:10;}
	.st1{fill:none;stroke:#000000;stroke-width:3;stroke-linecap:round;stroke-linejoin:round;stroke-miterlimit:10;}
	.st2{fill:#FFFFFF;stroke:#000000;stroke-width:3;stroke-miterlimit:10;}
	.st3{fill:#315164;stroke:#000000;stroke-width:3;stroke-miterlimit:10;}
</style>
<path class="st0" d="M138.1,378.6c2.8-0.5,5-2.5,5.9-5.2c3.8-11.7,14.4-43.3,20.1-48.2c7-6,12-18,25-46s17-34,28-45.5
	s28.1-60.2,5.5-44.5c-19.7,13.7-28.2,41.6-38.2,39.5c-3.3-0.7-4.9-4.6-3.3-7.6c8.8-16.8,43.7-85.8,22.2-80.1
	c-3.5,0.9-6.5,3.4-8.2,6.6c-9.3,16.9-46,82.4-36.4,48.2c11.3-40.5,17.3-98.2,2.5-79.5c-19.9,25-26.2,105.1-29,76
	c-2.7-28.7,10.8-89-10-66.5c-24.1,26-5,103-38.5,112c0,0-14.5-49.5-33.5-48.5s-9.6,11.1-8,15c1.6,3.7,17,40.5,16,48s4.5,24,16.5,40
	s12,25,12,25l-12,51C74.6,368.2,78.9,390.1,138.1,378.6z"/>
<path class="st1" d="M122.6,329.2c0,0,13.1,9.5,38.6,0"/>
<path class="st1" d="M98.3,247.3c0,0-11.7-0.9-14.7-9.6"/>
<path class="st1" d="M114,235.2c0,0,10.4,4.7,22.1,14.7c8.9,7.6,18.6,18.2,25.1,32"/>
<path class="st1" d="M170,270.5c0,0-20.8-19.3-32.4-20.7"/>
<g>
	<path d="M360.2,97.1c0.9-1.7,24.5-5.1,27.5-5.1c1.4,0,6.4,0.4,6.4,2.3c0,2.1-3.1,3-4.7,3c-2.4,0-17.8,1.6-19.1,2.1
		c-0.9,0.4-5.7,17.5-6.4,19.8c-0.3,0.6-0.6,1.3-0.6,1.8c0,0.3,0.1,0.6,0.4,0.6c2,0,5.5-3,10.2-3c12.8,0,17.2,10.7,17.2,21.9
		c0,14.9-9.1,40.7-26.9,40.7c-7.7,0-13.9-4.4-13.9-12.5c0-6.4,4.6-17.2,12.1-17.2c1.6,0,3.8,0.6,3.8,2.4c0,0.3-10.7,22-2.8,22
		c9.2,0,17.2-30.2,17.2-37.1c0-3.3-0.9-14.5-5.4-14.5c-4,0-13.4,13.1-19.8,13.1c-2.3,0-6-0.9-6-3.7c0-6.8,11.5-33.4,11.5-33.6
		C361.1,98.9,359.6,98.2,360.2,97.1z"/>
</g>
<path class="st2" d="M448.4,420.1H273.6c-13.9,0-25.2-11.3-25.2-25.2V220.1c0-13.9,11.3-25.2,25.2-25.2h174.8
	c13.9,0,25.2,11.3,25.2,25.2v174.8C473.6,408.8,462.3,420.1,448.4,420.1z"/>
<circle class="st3" cx="437.3" cy="232.9" r="24.6"/>
<circle class="st3" cx="361" cy="307.5" r="24.6"/>
<circle class="st3" cx="293" cy="232.9" r="24.6"/>
<circle class="st3" cx="293" cy="382" r="24.6"/>
<circle class="st3" cx="437.3" cy="381.4" r="24.6"/>
</svg>
