<?xml version="1.0" encoding="utf-8"?>
<!-- Generator: Adobe Illustrator 22.1.0, SVG Export Plug-In . SVG Version: 6.00 Build 0)  -->
<svg version="1.1" xmlns="http://www.w3.org/2000/svg" xmlns:xlink="http://www.w3.org/1999/xlink" x="0px" y="0px"
	 viewBox="0 0 512 512" style="enable-background:new 0 0 512 512;" xml:space="preserve">
<style type="text/css">
	.st0{fill:#FCE0C5;stroke:#000000;stroke-width:2;stroke-linecap:round;stroke-linejoin:round;stroke-miterlimit:10;}
	.st1{fill:none;stroke:#000000;stroke-width:2;stroke-linecap:round;stroke-linejoin:round;stroke-miterlimit:10;}
	.st2{fill:#FFFFFF;stroke:#000000;stroke-width:3;stroke-miterlimit:10;}
	.st3{fill:#315164;stroke:#000000;stroke-width:3;stroke-miterlimit:10;}
</style>
<g id="Слой_4">
</g>
<g id="Слой_5">
	<g>
		<path class="st0" d="M84.3,353.3c1.9-0.4,3.5-1.8,4.1-3.7c2.6-8.1,10.1-30.2,14-33.6c4.9-4.2,8.4-12.6,17.4-32.1
			c9.1-19.5,11.9-23.7,19.5-31.7c7.7-8,19.6-42,3.8-31c-13.7,9.5-19.7,29-26.7,27.5c-2.3-0.5-3.4-3.2-2.3-5.3
			c6.1-11.7,30.5-59.8,15.5-55.9c-2.5,0.6-4.5,2.4-5.7,4.6c-6.5,11.8-32.1,57.5-25.4,33.6c7.9-28.2,12.1-68.5,1.7-55.4
			c-13.9,17.4-18.3,73.3-20.2,53c-1.9-20,7.6-62.1-7-46.4C56.4,195,69.7,248.8,46.3,255c0,0-10.1-34.5-23.4-33.8s-6.7,7.7-5.6,10.5
			c1.1,2.6,11.9,28.2,11.2,33.5c-0.7,5.2,3.1,16.7,11.5,27.9s8.4,17.4,8.4,17.4L40,346C40,346,43,361.3,84.3,353.3z"/>
		<path class="st1" d="M73.5,318.8c0,0,9.1,6.6,26.9,0"/>
		<path class="st1" d="M56.5,261.7c0,0-8.2-0.6-10.2-6.7"/>
		<path class="st1" d="M67.5,253.3c0,0,7.2,3.3,15.4,10.3c6.2,5.3,13,12.7,17.5,22.3"/>
		<path class="st1" d="M106.5,277.9c0,0-14.5-13.5-22.6-14.4"/>
	</g>
	<path class="st2" d="M472,391.5H337.5c-13.9,0-25.2-11.3-25.2-25.2V231.8c0-13.9,11.3-25.2,25.2-25.2H472
		c13.9,0,25.2,11.3,25.2,25.2v134.5C497.2,380.2,485.9,391.5,472,391.5z"/>
	<circle class="st3" cx="467.4" cy="238" r="20.2"/>
	<circle class="st3" cx="348.9" cy="298.1" r="20.2"/>
	<circle class="st3" cx="466.6" cy="296.5" r="20.2"/>
	<circle class="st3" cx="408.1" cy="299.1" r="20.2"/>
	<circle class="st3" cx="406.8" cy="239.5" r="20.2"/>
	<circle class="st3" cx="348.9" cy="237.8" r="20.2"/>
	<circle class="st3" cx="348.9" cy="360.3" r="20.2"/>
	<circle class="st3" cx="467.4" cy="359.8" r="20.2"/>
	<polygon points="213.6,259.8 186.6,259.8 186.6,232.7 177.3,232.7 177.3,259.8 150.2,259.8 150.2,269.1 177.3,269.1 177.3,296.1 
		186.6,296.1 186.6,269.1 213.6,269.1 	"/>
	<g>
		<path d="M424.7,172.5c0,12.3-19.5,21.3-29.6,21.3c-7.9,0-15.3-4.1-15.3-13c0-11.1,13.7-21.8,13.7-24c0-1.6-8.4-6.5-8.4-16.7
			c0-11.1,11.9-28.6,24-28.6c2.8,0,8.8,1.8,8.8,5.4c0,1.5-1.8,1.8-2.8,1.8c-1.4,0-2.6,0.3-3.3-0.8c-0.3-0.3-1.2-1.8-1.8-1.8
			c-8,0-15.1,16.4-15.1,24.7c0,2.2,1.5,11,4.3,11c2,0,13.4-9.8,15.2-17.8c1.4-6.4-0.8-8.9-1.8-11.1c-0.7-1.2,2.6-1.5,3.5-1.5
			c3.7,0,8.8,6.1,7.3,14.1c-1.8,10.4-15.7,18.8-15.7,21.2C407.9,158.5,424.7,162.2,424.7,172.5z M414.6,171.7
			c0-4.3-7.6-10.7-11.3-10.7c-3,0-10.8,12.5-11.9,15.3c-0.8,2-1.2,4.3-1.2,6.5c0,3,0.9,6,4.3,6C401.2,188.8,414.6,179.1,414.6,171.7
			z"/>
	</g>
	<g>
		<path class="st0" d="M274.3,350.3c0,0,9.7-24.7,15.7-32.6c6-7.8,11.3-23.8,11.6-33.2c0.3-9.4,1.9-34.1,1.9-34.1
			s1.9-18.2-12.8-19.7c0,0,13.5-61.7-1.7-48.9c-15.2,12.8-18.1,74.6-25.6,52c-6.9-20.7,0.4-71.4-12.1-67.4c-2.4,0.8-3.3,3.2-3.8,5.6
			c-3.8,17.3,1.4,84.1-8.9,62.7c-10.3-21.5-18.8-57.6-25.9-46.9c-2.8,4.2-1.7,10-0.3,14.9c3.2,11.5,10.2,36.6,10.9,42.1
			c0.9,7.2,3.4,31,2.2,34.8c-1.3,3.8-3.8,6-4.1,15c-0.3,9.1-6,61.1-6,61.1S259,372.2,274.3,350.3z"/>
		<path class="st1" d="M262.4,329c0,0,11.1,8.4,24.3-6.1"/>
		<path class="st1" d="M265.2,270.1c0,0,25.5-3.4,21.5-23.2c0,0-1.2-7.7-21.5,7.1c-20.4,14.8-39.1,23.6-39.8,25.5"/>
		<path class="st1" d="M259,288.9c0,0,12.3-16.7,12.3-20.3"/>
		<path class="st1" d="M296.2,250.7c0,0-3.8,5.8-5.6,10c-3.4,7.9-13.2,18.4-17.9,7.9"/>
		<path class="st1" d="M277.3,246.6c0,0,1.4-11.6,13.3-16"/>
		<path class="st1" d="M286.7,246.9c0,0-13.1,13.6-16.7,3.8"/>
	</g>
</g>
</svg>
