<?xml version="1.0" encoding="utf-8"?>
<!-- Generator: Adobe Illustrator 22.1.0, SVG Export Plug-In . SVG Version: 6.00 Build 0)  -->
<svg version="1.1" id="Слой_4" xmlns="http://www.w3.org/2000/svg" xmlns:xlink="http://www.w3.org/1999/xlink" x="0px" y="0px"
	 viewBox="0 0 512 512" style="enable-background:new 0 0 512 512;" xml:space="preserve">
<style type="text/css">
	.st0{fill:#FCE0C5;stroke:#000000;stroke-width:3;stroke-linecap:round;stroke-linejoin:round;stroke-miterlimit:10;}
	.st1{fill:#FFFFFF;stroke:#000000;stroke-width:3;stroke-miterlimit:10;}
	.st2{fill:#315164;stroke:#000000;stroke-width:3;stroke-miterlimit:10;}
	.st3{fill:none;stroke:#000000;stroke-width:3;stroke-linecap:round;stroke-linejoin:round;stroke-miterlimit:10;}
</style>
<path class="st0" d="M79.2,279.9l-1.3-84.7c0,0-3.6-58.6,14.9-54.6c4.1,0.9,7,4.4,7.7,8.5c0.7,4.5,0.8,12-1.7,24.1
	c-4.9,23,5.9,61,5.9,61l-13.5,39L79.2,279.9z"/>
<path class="st1" d="M413.8,413.1H239c-13.9,0-25.2-11.3-25.2-25.2V213.1c0-13.9,11.3-25.2,25.2-25.2h174.8
	c13.9,0,25.2,11.3,25.2,25.2v174.8C439,401.8,427.7,413.1,413.8,413.1z"/>
<circle class="st2" cx="326.4" cy="300.5" r="24.6"/>
<path class="st0" d="M77.2,410.9c0,0,11-47,3.5-67s-13.8-52,2.6-81s19.9-37,19.9-37s6.5-19,16-12s9.5,14.5,9.5,14.5s18-16.5,18.5,8
	s0,22,0,22s14.5-34,24-15.5s20.5,85,4.5,110s-13.5,60.2-13.5,60.2S108.7,440.9,77.2,410.9z"/>
<path class="st3" d="M97.2,282.2c0,0,3.8-3.1,7.7-7.3c4-4.3,8.3-9.7,9.3-14.3c2-9.3,4.3-43.7-11-34.7"/>
<path class="st3" d="M128.7,228.4c0,0,0.4,89.4-17.6,73.9c-2.1-1.8-3.4-4.2-4-6.9c-1.2-5.5-3.4-16.5-2.2-20.5"/>
<path class="st3" d="M147.2,258.4c0,0-4.9,66.1-19.7,45.3c-1.2-1.7-2.1-3.5-2.8-5.4l-1.9-5.1"/>
<path class="st3" d="M168.9,270.2c0,0-5.2,14.5-8,22c-2.9,7.8-12.1,21-18.7,6.3"/>
<path class="st3" d="M94.6,242.5c0,0,2.6,6.3,8.3,6.7"/>
<path class="st3" d="M116.7,278.5c0,0-8.1-0.3-9.6,16.5"/>
<path class="st3" d="M135.1,283.5c0,0-8.6-1.5-7.5,20.2"/>
<path class="st3" d="M154.3,284.9c0,0-9.7-6.7-8.4,18.8"/>
<path class="st3" d="M147.1,388.2c0,0,12.5-7.6,21.8-21.4"/>
<g>
	<path d="M325.9,114.7c-1.3,0-3.9-0.3-3.9-2.1c0-3.4,12.3-22.1,15.4-24.5c0.8-0.6,2.1-0.8,3.2-0.8c2.5,0,5.4,0.8,5.4,3.9
		c0,1.3-0.3,2.4-0.4,3.7c-3.5,24.8-6.2,49.7-8.7,74.7c-0.1,1.4-0.3,2.5-1.6,3.2c-1,0.4-2.1,0.6-3.2,0.6c-3.1,0-6.6-1-6.6-4.8
		c0-1.3,0.3-2.5,0.4-3.8c2-15.1,3.4-30.3,5.5-45.4c0.4-2.8,1.1-6.1,1.6-9.2c0.1-2.3-0.8-2.7-1.8-0.7
		C329.7,111.9,328.3,114.7,325.9,114.7z"/>
</g>
</svg>
