<?xml version="1.0" encoding="utf-8"?>
<!-- Generator: Adobe Illustrator 22.1.0, SVG Export Plug-In . SVG Version: 6.00 Build 0)  -->
<svg version="1.1" id="Слой_3" xmlns="http://www.w3.org/2000/svg" xmlns:xlink="http://www.w3.org/1999/xlink" x="0px" y="0px"
	 viewBox="0 0 512 512" style="enable-background:new 0 0 512 512;" xml:space="preserve">
<style type="text/css">
	.st0{fill:#FCE0C5;stroke:#000000;stroke-width:3;stroke-linecap:round;stroke-linejoin:round;stroke-miterlimit:10;}
	.st1{fill:none;stroke:#000000;stroke-width:3;stroke-linecap:round;stroke-linejoin:round;stroke-miterlimit:10;}
	.st2{fill:#FFFFFF;stroke:#000000;stroke-width:3;stroke-miterlimit:10;}
	.st3{fill:#315164;stroke:#000000;stroke-width:3;stroke-miterlimit:10;}
</style>
<path class="st0" d="M144.3,441.5c0,0,11.5-29,18.5-37.5s28.5-34.5,25-69.5s5-59.5,8.5-64c3.2-4.2,30.1-66.4,11.3-63.1
	c-3,0.5-5.6,2.5-7,5.2c-8.6,15.5-45.7,80.8-37.3,33.4c9.5-53.5,14-89-4.5-75.5c-21.7,15.8-27.5,126-34,69.5
	c-6.5-56.5-0.5-99.5-17.5-86.5c-21.9,16.8,2.5,130.5-15,89s-27.3-97.6-36-64c-7,27,17,72,17.5,110.5s-3,45.5-3,45.5s-2.5,0-4.5,28.5
	s-5,69-5,69S75.8,452,144.3,441.5z"/>
<path class="st1" d="M123.3,316.5c0,0,11.5-4.5,28-9.5s19-24.5,4-23.5s-37,4.5-49.5,16.5c-12.5,12-35,34.5-35,34.5"/>
<path class="st1" d="M118,407c0,0,24.8,11,44.8-3"/>
<path class="st1" d="M114.3,337c0,0,17.2-12.2,20.3-24.6"/>
<path class="st1" d="M140.4,285.2c0,0-1.4,15.5,24.8,6.3"/>
<g>
	<path d="M366.3,161c0.4,0.3,3.9,0,4.7,0c2.5-0.3,2.3,1.1,2.3,3.5c0,2-3.8,2.1-5.2,2.1c-3.1,0-3.5,0.1-3.5,3.4
		c0,4.2-0.4,8.5-0.7,12.7c-0.1,3,0.6,6.1-3.4,6.6c-0.4,0.1-1,0.1-1.4,0.1c-3.4,0-6.6-0.8-6.6-4.8c0-4.7,1.3-9.4,1.3-14.1
		c0-1.4-0.4-2.4-2-2.4c-7.5,0-15.1,2.7-22.6,2.7c-2.7,0-6.3-0.8-6.3-4.2c0-10.2,12.7-44.3,15.6-56.1c0.7-2.4,1.1-4.9,1.7-7.3
		c0.4-1.7,1.4-2.3,3.1-2.3c3.2,0,5.2,1.3,5.2,4.7c0,14.8-9,37.8-12.4,53c-0.3,1.3-0.8,2.4-0.8,3.8c0,1.1,0.6,1.7,1.7,1.7
		c4.5,0,9.7-0.8,13.8-1.4c1.3-0.3,3.2-0.3,3.7-2.8c0.7-3.9,0.8-6.6,1.4-10.4c1.7-14.4,3.8-28.8,6.9-43c0.6-2.5,1.7-5.5,4.8-5.5
		c3,0,4.1,2.7,4.1,5.2c0,5.5-1.6,11.7-2.3,17.2c-1.4,10.9-2.5,21.9-3.7,32.9c0,1.1-0.4,2.3-0.4,3.5
		C365.2,160.3,365.6,160.7,366.3,161z"/>
</g>
<path class="st2" d="M431.7,428.9H257c-13.9,0-25.2-11.3-25.2-25.2V228.9c0-13.9,11.3-25.2,25.2-25.2h174.8
	c13.9,0,25.2,11.3,25.2,25.2v174.8C457,417.6,445.7,428.9,431.7,428.9z"/>
<circle class="st3" cx="420.6" cy="241.7" r="24.6"/>
<circle class="st3" cx="276.3" cy="241.7" r="24.6"/>
<circle class="st3" cx="276.3" cy="390.8" r="24.6"/>
<circle class="st3" cx="420.6" cy="390.2" r="24.6"/>
</svg>
