<?xml version="1.0" encoding="utf-8"?>
<!-- Generator: Adobe Illustrator 22.1.0, SVG Export Plug-In . SVG Version: 6.00 Build 0)  -->
<svg version="1.1" id="Слой_4" xmlns="http://www.w3.org/2000/svg" xmlns:xlink="http://www.w3.org/1999/xlink" x="0px" y="0px"
	 viewBox="0 0 512 512" style="enable-background:new 0 0 512 512;" xml:space="preserve">
<style type="text/css">
	.st0{fill:#FCE0C5;stroke:#000000;stroke-width:2;stroke-linecap:round;stroke-linejoin:round;stroke-miterlimit:10;}
	.st1{fill:none;stroke:#000000;stroke-width:2;stroke-linecap:round;stroke-linejoin:round;stroke-miterlimit:10;}
	.st2{fill:#FFFFFF;stroke:#000000;stroke-width:3;stroke-miterlimit:10;}
	.st3{fill:#315164;stroke:#000000;stroke-width:3;stroke-miterlimit:10;}
</style>
<g>
	<g>
		<path class="st0" d="M84.3,353.4c1.9-0.4,3.5-1.8,4.1-3.7c2.6-8.1,10.1-30.2,14-33.6c4.9-4.2,8.4-12.6,17.4-32.1
			c9.1-19.5,11.9-23.7,19.5-31.7c7.7-8,19.6-42,3.8-31c-13.7,9.5-19.7,29-26.7,27.5c-2.3-0.5-3.4-3.2-2.3-5.3
			c6.1-11.7,30.5-59.8,15.5-55.9c-2.5,0.6-4.5,2.4-5.7,4.6c-6.5,11.8-32.1,57.5-25.4,33.6c7.9-28.2,12.1-68.5,1.7-55.4
			c-13.9,17.4-18.3,73.3-20.2,53c-1.9-20,7.6-62.1-7-46.4c-16.8,18.1-3.5,71.8-26.8,78.1c0,0-10.1-34.5-23.4-33.8
			c-13.2,0.7-6.7,7.7-5.6,10.5c1.1,2.6,11.9,28.2,11.2,33.5c-0.7,5.2,3.1,16.7,11.5,27.9s8.4,17.4,8.4,17.4L40,346.2
			C40,346.2,43,361.5,84.3,353.4z"/>
		<path class="st1" d="M73.5,319c0,0,9.1,6.6,26.9,0"/>
		<path class="st1" d="M56.5,261.8c0,0-8.2-0.6-10.2-6.7"/>
		<path class="st1" d="M67.5,253.4c0,0,7.2,3.3,15.4,10.3c6.2,5.3,13,12.7,17.5,22.3"/>
		<path class="st1" d="M106.5,278.1c0,0-14.5-13.5-22.6-14.4"/>
	</g>
	<path class="st2" d="M472,391.7H337.5c-13.9,0-25.2-11.3-25.2-25.2V231.9c0-13.9,11.3-25.2,25.2-25.2H472
		c13.9,0,25.2,11.3,25.2,25.2v134.5C497.2,380.4,485.9,391.7,472,391.7z"/>
	<circle class="st3" cx="467.4" cy="238.2" r="20.2"/>
	<circle class="st3" cx="348.9" cy="298.2" r="20.2"/>
	<circle class="st3" cx="466.6" cy="296.6" r="20.2"/>
	<circle class="st3" cx="348.9" cy="238" r="20.2"/>
	<circle class="st3" cx="348.9" cy="360.4" r="20.2"/>
	<circle class="st3" cx="467.4" cy="359.9" r="20.2"/>
	<polygon points="213.6,259.9 186.6,259.9 186.6,232.9 177.3,232.9 177.3,259.9 150.2,259.9 150.2,269.2 177.3,269.2 177.3,296.3 
		186.6,296.3 186.6,269.2 213.6,269.2 	"/>
	<g>
		<path class="st0" d="M289,262.8l0.9-55.8c0,0,2.3-38.6-9.8-36c-2.7,0.6-4.6,2.9-5.1,5.6c-0.5,2.9-0.5,7.9,1.1,15.9
			c3.2,15.2-3.9,40.2-3.9,40.2l8.9,25.7L289,262.8z"/>
		<path class="st0" d="M290.4,349.1c0,0-7.3-31-2.3-44.2c4.9-13.2,9.1-34.3-1.7-53.4c-10.8-19.1-13.1-24.4-13.1-24.4
			s-4.3-12.5-10.5-7.9c-6.3,4.6-6.3,9.6-6.3,9.6s-11.9-10.9-12.2,5.3c-0.3,16.1,0,14.5,0,14.5s-9.6-22.4-15.8-10.2
			c-6.3,12.2-13.5,56-3,72.5c10.5,16.5,8.9,39.7,8.9,39.7S269.6,368.9,290.4,349.1z"/>
		<path class="st1" d="M277.2,264.3c0,0-2.5-2-5.1-4.8c-2.6-2.8-5.4-6.4-6.1-9.4c-1.3-6.2-2.9-28.8,7.3-22.9"/>
		<path class="st1" d="M256.4,228.8c0,0-0.3,58.9,11.6,48.7c1.4-1.2,2.2-2.8,2.6-4.5c0.8-3.6,2.2-10.9,1.4-13.5"/>
		<path class="st1" d="M244.2,248.6c0,0,3.2,43.6,13,29.9c0.8-1.1,1.4-2.3,1.8-3.6l1.2-3.4"/>
		<path class="st1" d="M229.9,256.4c0,0,3.4,9.6,5.3,14.5c1.9,5.2,8,13.8,12.3,4.2"/>
		<path class="st1" d="M278.9,238.2c0,0-1.7,4.1-5.5,4.4"/>
		<path class="st1" d="M264.3,261.9c0,0,5.3-0.2,6.3,10.9"/>
		<path class="st1" d="M252.2,265.2c0,0,5.7-1,4.9,13.3"/>
		<path class="st1" d="M239.6,266.1c0,0,6.4-4.4,5.5,12.4"/>
		<path class="st1" d="M244.3,334.2c0,0-8.2-5-14.4-14.1"/>
	</g>
	<g>
		<path d="M417,120.3c3.2,0,9.5,1.7,9.8,5.7c0,1.2-1.3,1.5-2.2,1.5c-4,0-4-3.2-5.9-3.2c-8.8,0-17.4,23.6-17.1,27.6
			c0,0.4,0.2,0.7,0.7,0.7c1.6,0,3.1-0.6,4.8-0.6c9.4,0,17.6,5,18.2,15.3c0.6,12.2-8.2,28.4-21.6,28.4c-10.1,0-15.9-7.1-16.5-16.6
			C386.3,163.8,398.7,120.3,417,120.3z M403.1,190.9c8.1-4,13.3-15.8,12.8-24.8c-0.1-3.5-2.3-9.4-6.7-9.4c-4.8,0-6.1,5.3-8.4,6.4
			c-1.1,0.5-2.2,0.1-2.7,1.5c-0.7,2-1.6,13.1-1.5,15.5c0.1,2.4,2.1,11.1,5.5,11.1C402.5,191.1,402.9,191,403.1,190.9z"/>
	</g>
</g>
</svg>
