<?xml version="1.0" encoding="utf-8"?>
<!-- Generator: Adobe Illustrator 22.1.0, SVG Export Plug-In . SVG Version: 6.00 Build 0)  -->
<svg version="1.1" id="Слой_3" xmlns="http://www.w3.org/2000/svg" xmlns:xlink="http://www.w3.org/1999/xlink" x="0px" y="0px"
	 viewBox="0 0 512 512" style="enable-background:new 0 0 512 512;" xml:space="preserve">
<style type="text/css">
	.st0{fill:#FCE0C5;stroke:#000000;stroke-width:3;stroke-linecap:round;stroke-linejoin:round;stroke-miterlimit:10;}
	.st1{fill:none;stroke:#000000;stroke-width:3;stroke-linecap:round;stroke-linejoin:round;stroke-miterlimit:10;}
	.st2{fill:#F2DE29;stroke:#000000;stroke-width:3;stroke-linecap:round;stroke-linejoin:round;stroke-miterlimit:10;}
</style>
<g>
	<path class="st0" d="M23.6,125.5c13.8,12.2,47,40.4,65.3,44.6c0,0-55.6,44.9-19.2,49.2c0,0,25.6,0,42.7-16c0,0,27.8,21.4,43.8,32.1
		c14.2,9.4,39.2,39.7,68.4,39.3c10.5-0.2,17.2-11.6,12-20.7c-0.1-0.1-0.1-0.3-0.2-0.4c0,0,37.7,17.2,54.5,4.3c0,0,16-15-23.5-23.5
		c0,0,19,2.1,32.3-2.1c10-3.2,11.7-16.6,3-22.4v0c0,0,22.4-11.8-3.2-21.4l-48.1-17.1l-62-24.6L152,119.8c0,0-50.1-45.6-72.2-71.2
		c-4-4.6-12.1-0.7-15.6,4.2L22.2,113C19.4,116.9,20,122.3,23.6,125.5z"/>
	<path class="st1" d="M115,143.5c0,0-11.9,5.2-26,26.6"/>
	<path class="st1" d="M122.9,189.3c0,0-1.6,4.4-10.4,13.8"/>
	<path class="st1" d="M189.1,222.7c0,0,18.8,9.2,22.1,15c0,0,20.5,3.1,25.2,15.7"/>
	<path class="st1" d="M248.1,226.6c0,0,15.9,8.1,20.9,8.1"/>
	<path class="st1" d="M265.9,198.7c0,0,7.1-1.1,9.5,1.2"/>
	<circle class="st2" cx="463.8" cy="406" r="27.8"/>
	<circle class="st2" cx="311.8" cy="281.6" r="27.8"/>
	<circle class="st2" cx="384" cy="337.2" r="27.8"/>
	<circle class="st2" cx="270.7" cy="203.2" r="29.2"/>
	<circle class="st2" cx="174.5" cy="196.3" r="29.2"/>
	<circle class="st2" cx="225" cy="208.7" r="29.2"/>
	<circle class="st2" cx="203.7" cy="161" r="29.2"/>
	<circle class="st2" cx="282.9" cy="419.5" r="27.8"/>
	<circle class="st2" cx="254.8" cy="157.6" r="29.2"/>
	<circle class="st2" cx="367.1" cy="437.7" r="27.8"/>
	<circle class="st2" cx="212.8" cy="123.3" r="29.2"/>
</g>
</svg>
