<?xml version="1.0" encoding="utf-8"?>
<!-- Generator: Adobe Illustrator 22.1.0, SVG Export Plug-In . SVG Version: 6.00 Build 0)  -->
<svg version="1.1" id="Слой_3" xmlns="http://www.w3.org/2000/svg" xmlns:xlink="http://www.w3.org/1999/xlink" x="0px" y="0px"
	 viewBox="0 0 512 512" style="enable-background:new 0 0 512 512;" xml:space="preserve">
<style type="text/css">
	.st0{fill:#FCE0C5;stroke:#000000;stroke-width:3;stroke-linecap:round;stroke-linejoin:round;stroke-miterlimit:10;}
	.st1{fill:none;stroke:#000000;stroke-width:3;stroke-linecap:round;stroke-linejoin:round;stroke-miterlimit:10;}
	.st2{fill:#FFFFFF;stroke:#000000;stroke-width:3;stroke-miterlimit:10;}
	.st3{fill:#315164;stroke:#000000;stroke-width:3;stroke-miterlimit:10;}
</style>
<path class="st0" d="M146.8,417.2c0,0,15.3-34.7,22-44.9s23.7-52.5,22.9-80.5c-0.8-28,1.8-37.9-14.9-42.9c0,0,8.3-33.3-22.7-31.3
	c0,0,9.3-97-10-87.7s-18.3,124.3-32.7,106s-13.7-97.7-32.7-85.7s-1.3,80.3,0,93.3c1.3,13-0.3,56.3-1.7,58.7
	c-1.3,2.3-4.3,4.3-4.7,14.7c-0.3,10.3,5,40,3.7,52.3c-1.3,12.3-9.3,42.7-9.3,42.7S108.1,431.1,146.8,417.2z"/>
<path class="st1" d="M129.3,273.7c0,0-1.5-41.2,24.9-56.2"/>
<path class="st1" d="M152.5,270.8c0,0,12-18,24.3-22"/>
<path class="st1" d="M114.8,298.8c0,0,16.4,7.7,26.9,0c10.4-7.7,21.2-34.7,0-28c0,0-15.2,3.8-24.9,4.9s-13,1.5-23,10.3
	s-16.7,16.2-16.7,16.2"/>
<path class="st1" d="M105.5,318.5c0,0,11.7-12.5,18.7-16.3"/>
<path class="st1" d="M181.5,275.7c0,0-18.3,19.8-20,24.8s-20.3,18.7-21.3,0"/>
<path class="st1" d="M129.3,266.8c0,0,9.4-14.7,13.1-6.1c0.5,1.2,0.8,2.6,0.8,3.9v5.1"/>
<path class="st1" d="M131.2,273.7c0,0-1.5,8.2,11.1,5.9c4.4-0.8,11.6-5.9,11.6-5.9"/>
<path class="st1" d="M150.6,287.7c0,0,8.6-6.1,8.6,0c0,6.1-2.3,19.5-6.7,20.9"/>
<g>
	<path d="M354.7,169c1.9-0.1,6,0.4,5.8,2.9c-0.1,2.3-3.9,3.7-5.8,3.9c-8.9,1.2-18.7,1.9-27.6,1.9c-2.5,0-7.3-0.1-7.3-3.4
		c0-1,0.6-3.1,1.2-3.9c9.2-17,23.2-43.3,28.4-61.3c0.7-3.1,2-12.7-3.5-12.7c-6.7,0-14.5,10.1-16.1,16.2c-0.3,1.5-1,2.2-2.6,2.2
		c-2.2,0-5-2.2-5-4.4c0-9.5,13.7-20.8,24.6-20.8c8.9,0,13.9,5.3,13.9,14c0,13.2-17.7,47.8-24.1,61.1c-0.7,1.5-2,3.4-2,5.1
		c0,0.9,0.4,1,1.3,1C341.9,171.1,348.4,169.5,354.7,169z"/>
</g>
<path class="st2" d="M419.9,416.6H245.2c-13.9,0-25.2-11.3-25.2-25.2V216.6c0-13.9,11.3-25.2,25.2-25.2h174.8
	c13.9,0,25.2,11.3,25.2,25.2v174.8C445.2,405.3,433.9,416.6,419.9,416.6z"/>
<circle class="st3" cx="408.8" cy="229.4" r="24.6"/>
<circle class="st3" cx="258.1" cy="378.6" r="24.6"/>
</svg>
