<?xml version="1.0" encoding="utf-8"?>
<!-- Generator: Adobe Illustrator 22.1.0, SVG Export Plug-In . SVG Version: 6.00 Build 0)  -->
<svg version="1.1" id="Слой_3" xmlns="http://www.w3.org/2000/svg" xmlns:xlink="http://www.w3.org/1999/xlink" x="0px" y="0px"
	 viewBox="0 0 512 512" style="enable-background:new 0 0 512 512;" xml:space="preserve">
<style type="text/css">
	.st0{fill:#FCE0C5;stroke:#000000;stroke-width:3;stroke-linecap:round;stroke-linejoin:round;stroke-miterlimit:10;}
	.st1{fill:none;stroke:#000000;stroke-width:3;stroke-linecap:round;stroke-linejoin:round;stroke-miterlimit:10;}
	.st2{fill:#F2DE29;stroke:#000000;stroke-width:3;stroke-linecap:round;stroke-linejoin:round;stroke-miterlimit:10;}
	.st3{fill:#EDEDED;}
</style>
<g>
	<path class="st0" d="M22.4,123.4c11,9.8,37.6,32.3,52.3,35.6c0,0-44.4,35.9-15.4,39.3c0,0,20.5,0,34.2-12.8c0,0,22.2,17.1,35,25.6
		c11.3,7.6,31.3,31.8,54.7,31.4c8.4-0.1,13.7-9.2,9.6-16.6c-0.1-0.1-0.1-0.2-0.2-0.3c0,0,30.2,13.8,43.6,3.4c0,0,12.8-12-18.8-18.8
		c0,0,15.2,1.7,25.8-1.7c8-2.5,9.4-13.3,2.4-17.9l0,0c0,0,17.9-9.4-2.6-17.1l-38.5-13.7L155,140.2l-29.9-21.4c0,0-29.8-44-57.7-57
		c-4.4-2.1-9.7-0.6-12.5,3.4l-33.7,48.1C19.1,116.5,19.6,120.8,22.4,123.4z"/>
	<path class="st0" d="M101.8,52.5c0,0,48,39,67,49.3c0,0,7.7,16.7,23.8,23.3s26.9,23.6,28.8,25.7c2.5,2.8,31.7,28.6,46.7,23.6
		c0,0,30,35.5,39.3,14.8c0,0,14.7,7.6,15.7-2.1c1-9.7-15.7-28.1-15.7-28.1s26.3,13.1,27.7,5.1c1.3-8-43.8-43-51-51.3
		c-7.1-8.2-23.7-25.3-3-32c18.9-6.1,49.9-20.1,35.5-24.7c-2.6-0.8-5.5-0.9-8.2-0.4c-9.7,1.7-40,6.8-51.9,5.4
		c-14.3-1.7-28.7,5.7-28.7,5.7l-77.3-36C150.5,30.8,120.1,30.8,101.8,52.5z"/>
	<path class="st1" d="M240.9,141.8c0,0,13.6,13.7,20.9,18.7s15,9.7,6.3,14"/>
	<path class="st1" d="M273.5,158.1c0,0,27,28.3,34,31.1"/>
	<line class="st1" x1="289.1" y1="144.8" x2="307.5" y2="159"/>
	<path class="st1" d="M95.5,137.8c0,0-9.5,4.2-20.8,21.2"/>
	<path class="st1" d="M101.8,174.5c0,0-1.3,3.5-8.3,11.1"/>
	<path class="st1" d="M154.8,201.1c0,0,15,7.3,17.7,12c0,0,16.4,2.5,20.2,12.6"/>
	<path class="st1" d="M205.8,205.8c0,0,9.5,2.3,11.6,4.5"/>
	<path class="st1" d="M236.1,189.5c0,0,7.1-1.1,9.5,1.2"/>
	<g>
		<circle class="st2" cx="377.5" cy="330.6" r="23.4"/>
		<circle class="st2" cx="344" cy="328" r="23.4"/>
		<circle class="st2" cx="418.1" cy="331.9" r="23.4"/>
		<circle class="st2" cx="441.9" cy="350.6" r="23.4"/>
		<circle class="st2" cx="333.9" cy="353.4" r="23.4"/>
		<circle class="st2" cx="370.7" cy="359.3" r="23.4"/>
		<circle class="st2" cx="407.1" cy="357.3" r="23.4"/>
	</g>
	<circle class="st2" cx="311.1" cy="330.5" r="23.4"/>
	<circle class="st2" cx="203.1" cy="333.3" r="23.4"/>
	<circle class="st2" cx="239.9" cy="339.2" r="23.4"/>
	<circle class="st2" cx="276.3" cy="337.2" r="23.4"/>
	<path class="st1" d="M492.1,320.9l-2.2,3.8c-13.5,11.8-89.3,20.8-180.8,20.8c-90.9,0-166.4-8.9-180.6-20.6l-2.4-4
		c0-13.6,81.9-24.6,183-24.6S492.1,307.4,492.1,320.9z"/>
	<path class="st1" d="M126.2,320.9l2.4,4C127,323.6,126.2,322.3,126.2,320.9z"/>
	<circle class="st2" cx="246.6" cy="310.5" r="23.4"/>
	<circle class="st2" cx="213.2" cy="307.9" r="23.4"/>
	<circle class="st2" cx="287.3" cy="311.8" r="23.4"/>
	<circle class="st2" cx="304.3" cy="251.1" r="23.4"/>
	<circle class="st2" cx="391" cy="267.4" r="23.4"/>
	<circle class="st2" cx="114.9" cy="425.7" r="23.4"/>
	<circle class="st2" cx="462" cy="454" r="23.4"/>
	<circle class="st2" cx="389.8" cy="395" r="23.4"/>
	<circle class="st2" cx="119.7" cy="246.8" r="23.4"/>
	<circle class="st2" cx="141" cy="139.1" r="23.4"/>
	<circle class="st2" cx="143.6" cy="181.9" r="23.4"/>
	<circle class="st2" cx="182.7" cy="181.9" r="23.4"/>
	<circle class="st2" cx="220.3" cy="181.3" r="23.4"/>
	<circle class="st2" cx="173.5" cy="155.4" r="23.4"/>
	<circle class="st2" cx="233.3" cy="110.1" r="23.4"/>
	<circle class="st2" cx="276.3" cy="139.1" r="23.4"/>
	<circle class="st2" cx="267.4" cy="110.9" r="23.4"/>
	<circle class="st2" cx="141.9" cy="442.8" r="23.4"/>
	<circle class="st2" cx="91.5" cy="449.9" r="23.4"/>
	<path class="st1" d="M492.1,320.9c0,1.3-0.7,2.5-2.2,3.8L492.1,320.9z"/>
	<g>
		<path class="st1" d="M419.4,448.1c0.1-0.5,0.2-1.1,0.2-1.6c0-16.9-48.4-30.5-108-30.5c-59.7,0-108.1,13.7-108.1,30.5
			c0,0.5,0.1,1.1,0.2,1.6"/>
		<path class="st1" d="M490,324.7l-70.7,124.2c0,16.8-48.4,30.5-108,30.5c-59.7,0-108.1-13.7-108.1-30.5l-74.5-124
			c14.2,11.7,89.6,20.6,180.6,20.6C400.6,345.5,476.4,336.5,490,324.7z"/>
	</g>
	<circle class="st2" cx="358.2" cy="415.5" r="23.4"/>
	<circle class="st2" cx="324.8" cy="412.9" r="23.4"/>
	<circle class="st2" cx="398.9" cy="416.8" r="23.4"/>
	<circle class="st2" cx="314.6" cy="438.3" r="23.4"/>
	<circle class="st2" cx="351.4" cy="444.2" r="23.4"/>
	<circle class="st2" cx="387.9" cy="442.2" r="23.4"/>
	<g>
		<circle class="st2" cx="240.3" cy="367" r="23.4"/>
		<circle class="st2" cx="206.9" cy="364.4" r="23.4"/>
		<circle class="st2" cx="280.9" cy="368.4" r="23.4"/>
		<circle class="st2" cx="304.7" cy="387" r="23.4"/>
		<circle class="st2" cx="196.7" cy="389.9" r="23.4"/>
		<circle class="st2" cx="233.5" cy="395.7" r="23.4"/>
		<circle class="st2" cx="269.9" cy="393.7" r="23.4"/>
	</g>
	<circle class="st2" cx="223.1" cy="429.1" r="23.4"/>
	<circle class="st2" cx="263.8" cy="430.4" r="23.4"/>
	<circle class="st2" cx="287.5" cy="449.1" r="23.4"/>
	<path class="st3" d="M128.6,324.9c0,0,41.7,19.5,101.2,18.2c0,0,141.7,8.2,204.9-4.3c0,0,49.3-9.7,55.3-14.1l-68,119.4l-4.6,10.5
		c0,0-10.6,10.9-26.6,14.9c0,0-79.6,21.2-128.9,6.5c0,0-49.2-3.6-58.4-22.8L128.6,324.9z"/>
</g>
</svg>
