<?xml version="1.0" encoding="utf-8"?>
<!-- Generator: Adobe Illustrator 22.1.0, SVG Export Plug-In . SVG Version: 6.00 Build 0)  -->
<svg version="1.1" id="Слой_4" xmlns="http://www.w3.org/2000/svg" xmlns:xlink="http://www.w3.org/1999/xlink" x="0px" y="0px"
	 viewBox="0 0 512 512" style="enable-background:new 0 0 512 512;" xml:space="preserve">
<style type="text/css">
	.st0{fill:#FCE0C5;stroke:#000000;stroke-width:3;stroke-linecap:round;stroke-linejoin:round;stroke-miterlimit:10;}
	.st1{fill:none;stroke:#000000;stroke-width:3;stroke-linecap:round;stroke-linejoin:round;stroke-miterlimit:10;}
	.st2{fill:#FFFFFF;stroke:#000000;stroke-width:3;stroke-miterlimit:10;}
	.st3{fill:#315164;stroke:#000000;stroke-width:3;stroke-miterlimit:10;}
</style>
<path class="st0" d="M161.5,414.3c0,0,15.5-39.5,25-52s18-38,18.5-53s3-54.5,3-54.5s3-29-20.5-31.5c0,0,21.6-98.5-2.7-78
	s-28.8,119-40.8,83c-11-33,0.7-113.9-19.2-107.5c-3.8,1.2-5.3,5.1-6.1,9c-6.1,27.5,2.3,134.2-14.1,100c-16.5-34.4-30-92-41.3-74.9
	c-4.5,6.7-2.7,15.9-0.5,23.7c5.2,18.4,16.2,58.4,17.4,67.2c1.5,11.5,5.5,49.5,3.5,55.5s-6,9.5-6.5,24s-9.5,97.5-9.5,97.5
	S137,449.3,161.5,414.3z"/>
<path class="st1" d="M142.5,380.3c0,0,17.7,13.4,38.8-9.8"/>
<path class="st1" d="M147,286.3c0,0,40.7-5.5,34.3-37c0,0-1.8-12.3-34.3,11.3s-62.3,37.7-63.5,40.7"/>
<path class="st1" d="M137,316.3c0,0,19.6-26.7,19.6-32.3"/>
<path class="st1" d="M196.5,255.3c0,0-6.1,9.3-9,16c-5.5,12.7-21,29.3-28.5,12.7"/>
<path class="st1" d="M166.2,248.8c0,0,2.3-18.5,21.3-25.5"/>
<path class="st1" d="M181.3,249.3c0,0-20.8,21.7-26.6,6"/>
<g>
	<path d="M348.5,104.3c15.5,0,25,8.6,25,24.1c0,18.6-12,39.2-32.6,39.2c-8.9,0-21.3-4-21.3-14.9c0-4,2.7-9.3,7.3-9.3
		c1,0,3.7,0.6,3.7,1.9c0,1-0.7,2.1-0.7,3.3c0,5.8,1,13.6,9.6,13.6c14.1,0,22.5-24.1,22.5-35.5c0-7.5-3-16.9-12-16.9
		c-7.7,0-14.4,6.8-20,6.8c-1.6,0-4.6-3.8-4.6-5.9c0-1.6,26.8-23.1,26.8-25.7c0-1.2-7-0.9-8.1-0.9c-2.1,0-14.6,1.3-14.6-2.2
		c0-2.5,7.7-2.1,9.9-2.1c1.5,0,14.2-0.3,20.7,0c5.9,0.3,5.9,1.2,5.9,3.1c0,3.1-18.5,19.4-18.5,20.9
		C347.5,104.1,348.2,104.3,348.5,104.3z M340.8,161.8c0,0-0.1,0.1-0.1,0H340.8h0.1H340.8z"/>
</g>
<path class="st2" d="M426.4,406.4H251.6c-13.9,0-25.2-11.3-25.2-25.2V206.4c0-13.9,11.3-25.2,25.2-25.2h174.8
	c13.9,0,25.2,11.3,25.2,25.2v174.8C451.6,395.1,440.3,406.4,426.4,406.4z"/>
<circle class="st3" cx="415.3" cy="219.2" r="24.6"/>
<circle class="st3" cx="339" cy="293.8" r="24.6"/>
<circle class="st3" cx="264.6" cy="368.4" r="24.6"/>
</svg>
