<?xml version="1.0" encoding="utf-8"?>
<!-- Generator: Adobe Illustrator 22.1.0, SVG Export Plug-In . SVG Version: 6.00 Build 0)  -->
<svg version="1.1" xmlns="http://www.w3.org/2000/svg" xmlns:xlink="http://www.w3.org/1999/xlink" x="0px" y="0px"
	 viewBox="0 0 283.5 283.5" style="enable-background:new 0 0 283.5 283.5;" xml:space="preserve">
<style type="text/css">
	.st0{fill:#BD222E;}
	.st1{fill:#662227;}
	.st2{fill:#FCD4B6;}
	.st3{opacity:0.6;fill:#ED7B7A;}
	.st4{fill:none;stroke:#000000;stroke-linecap:round;stroke-linejoin:round;stroke-miterlimit:10;}
	.st5{fill:none;stroke:#000000;stroke-width:2;stroke-linecap:round;stroke-linejoin:round;stroke-miterlimit:10;}
	.st6{fill:none;stroke:#000000;stroke-width:1.7344;stroke-linecap:round;stroke-linejoin:round;stroke-miterlimit:10;}
	.st7{fill:none;stroke:#000000;stroke-width:0.75;stroke-linecap:round;stroke-linejoin:round;stroke-miterlimit:10;}
	.st8{fill:none;stroke:#000000;stroke-miterlimit:10;}
	.st9{fill:#98999C;stroke:#000000;stroke-width:0.9622;stroke-miterlimit:10;}
	.st10{fill:#E7E6E8;stroke:#000000;stroke-width:0.9622;stroke-miterlimit:10;}
	.st11{fill:#BD212E;stroke:#000000;stroke-width:0.9622;stroke-miterlimit:10;}
	.st12{fill:#BD212E;stroke:#000000;stroke-width:0.9623;stroke-miterlimit:10;}
	.st13{fill:none;stroke:#000000;stroke-width:0.9622;stroke-miterlimit:10;}
	.st14{fill:none;stroke:#000000;stroke-width:0.5;stroke-miterlimit:10;}
	.st15{fill:none;stroke:#BD212E;stroke-width:0.5;stroke-miterlimit:10;}
	.st16{font-family:'MyriadPro-Regular';}
	.st17{font-size:1.9273px;}
	.st18{fill:#BD212E;}
	.st19{fill:#662327;}
	.st20{fill:#FFFFFF;}
	.st21{fill:none;stroke:#000000;stroke-width:1.0699;stroke-linecap:round;stroke-linejoin:round;stroke-miterlimit:10;}
	.st22{fill:#C3D9F1;}
	.st23{opacity:0.5;fill:#6D1513;}
	.st24{fill:#F8FBFC;stroke:#000000;stroke-width:0.75;stroke-linecap:round;stroke-linejoin:round;stroke-miterlimit:10;}
	.st25{fill:#FFFFFF;stroke:#000000;stroke-miterlimit:10;}
</style>
<g id="Слой_1">
</g>
<g id="Слой_4">
	<g>
		<path class="st0" d="M245.7,167.9h-38.8v-8.2l0.3-18l0.4-17.9c0,0,0.2-7.3,0.4-7.8c0.1-0.5,1.1-2.4,1.1-2.4l1.6-2l3.5-1.1h1.6
			l9.2,5.2l3.3-0.5l0.8,0.8l2.8-1c0,0,2.6-3.2,2.7-3.5c0.1-0.3,1.2-3.5,1.2-3.5l0.7-2.6l2.4-0.7l3.2-1.1l1.6-0.1
			c0,0,1.7,0.4,1.7,0.7c0,0.3,1.1,1.7,1.3,2.1c0.2,0.5,1,2.1,1.1,3.1c0.2,1,0.6,5.3,0.6,5.8c0,0.5-0.3,10.4-0.5,12.7
			c-0.2,2.3,0,1.7-0.2,2.3c-0.2,0.6-0.2,0.3-0.2,0.6c-0.1,0.3-0.1,0.3-0.1,0.3s0.1,5.5-0.4,6.2c-0.5,0.7-0.5,2.9-0.5,2.9l-0.3,0.9
			l-1.4,2l0.3,12L245.7,167.9z"/>
		<path class="st1" d="M232.6,95.6L234,94l1.6-1.3l1.5-2.5l1-2.3l0.4-1.6l0.1-1.5l1.1-2l1.2-2.1c0,0,0.3-1.1,0-2.1s-1.6-3.1-1.6-3.1
			l-1.2-1.3l-1.6-1.1l-1.8-0.9l-0.9-0.8l-0.8-1.3c0,0-0.8-3.2-0.7-3.6c0.1-0.5,0-3.4,0-3.4l-0.7-1.5l-2.2-1.7l-1.4-0.4l-1.1,0
			l-2.4,0.6l-3.3,0.1l-3.3-0.6l-3.4-1l-2-0.2l-1.9,0.3l-2.7,1.5l-2,2.7l-0.4,1l-1.1,0.6l-1.3,0.9l-1.7,2.2l-1.3,3v1.3l0.4,2l0.1,1.7
			l-0.6,1.8l-1.4,2.3l-1,1.9l-0.3,2.4l0.3,1l1.5,0.7l0.8,0.7l0.5,1l0.6,1.8l0.9,1.2l1.1,0.3l0.5-0.4l0.7-1.2l1.3,0.1l1.1,0.5
			l0.3-9.5c0,0,2.5-3.9,2.4-4c-0.1-0.1,1.8-2.4,1.9-2.6s7.3-0.4,7.3-0.4s3.6,1.7,3.6,1.9c0,0.1,4.3,3.8,4.3,3.8l4.7,7.5l0.9,4.5
			L232.6,95.6z"/>
		<path class="st2" d="M228.4,115.3l-3.6,1.5l-3.4,2.1l-2.1-2.1c0,0-3.5-3.7-3.5-4.5c0-0.7-0.3-1.8-0.3-1.8l0.3-0.7l0.8-0.3l0.5,0.1
			l0.8,1v-0.7l0.3-1.4l0.2-0.3l1.3,0l1,0.4l0.1-1l0.4-0.4l1.2,0.2l0.7,0.5l-1.1-3.5l-3.8-1.5l-3.9-2.1l-4.1-4.3l-1-1.5l-0.4,0.2
			l-2.7-1.2l-1.9-1.8l-0.7-2l0.7-1l0.6,0l1.7,0.7l-0.6-1.2l-1.4-1.8l0.3-1.7c0,0-0.4-1.9-0.6-2.8c-0.2-0.9-0.3-2.8-0.3-2.8
			s0.2-1,0.3-1.1s1.6-1.2,1.6-1.2s0.5-0.2,0.8-0.5c0.3-0.4,0.5-0.6,0.6-1.2s0.2-2.8,0.2-2.8l0.8-1.9c0,0,0.9-1.7,1.1-1.8
			s0.5-1.1,0.5-1.1l0.1-1.4l0.3-0.2l2.5-0.4l1.9,0.4l1.3,0.7l0.1,1.1l0.8,2l1.1,1.2l1.2,0.8l1.6,0.1l2-0.1c0,0,1.8,0.7,1.9,0.8
			c0.1,0.2,0.7,1,0.7,1.1s0.8,2.1,1.1,2.4c0.2,0.2,0.7,0.6,0.7,0.6s1.1,0.4,1.3,0.4c0.2,0,1.4,0.2,1.4,0.2l1,0.3l0.8,0.6l0.3,0.9
			l-0.2,1l1-1l1.3-0.1l0.6,0.4l0.7,1l0.5,1.6l0,1l-0.4,1.1l-0.8,1l-1.3,1l0.3,2.2l-0.3,3.1l-1.3,4.4l0,2.1l0.5,3.4l0.6,1.7l0.6,1.1
			l0.8,0.7l0.8,0.4l1,0.1l0.4,0l-0.8,2.6l-1.4,3.7l-1.5,2.2l-2.2,1.6l-1.7,0.3h-0.4L228.4,115.3z"/>
		<path class="st1" d="M207.4,83.8l2-2c0,0,1.6-1.8,1.6-2.3c0-0.5,0-0.6,0-0.6l-0.8-0.1l-1.3,0.8l-1.1,1.4l-0.4,1.8V83.8z"/>
		<polygon class="st1" points="220.5,78.4 218.1,77.9 216,77.2 215.3,76.7 215.3,76.3 216.1,75.9 217.9,75.9 219.1,76.7 220.3,77.6 
					"/>
		<polygon class="st3" points="223.6,99.6 223.6,98.1 222.6,95.6 220.9,94.1 219.8,93.7 218.7,93.7 218.1,94.6 218.1,95.6 
			218.8,96.7 219.8,97.4 220.4,97.6 221.3,99.4 221.7,100.1 222.5,100.4 223.3,100 		"/>
		<path class="st4" d="M203.6,90.3c0,0-2,1.4-3-2.4s-3.4-1.8-3.3-4.2c0.1-2.4,1.6-4.8,2.8-6.8c1.2-2,0.1-3.8-0.2-5.5
			c-0.2-1.6,4.4-12.2,9.6-5.1c0,0,1.1,1.4-0.5,3.3c-1.2,1.3-1.8,3.1-1.7,4.8c0,0,0,0,0,0.1c0.2,2.4-1.9,2.9-2.6,3.3
			c-0.7,0.5-1,2.6-0.1,5.1c0.9,2.6-0.2,3,0,3.7c0.2,0.7,1.6,2.1,1.6,2.1s0.2,0.7,0.7,1.7c1.4,3.1,4.9,9.6,10.5,11.9
			c7.5,3.1,7.6,3.7,12.4-2.1c0,0,2.2-2.7,3.2-6.9c0.5-2,0.8-4.4,0.4-7c0,0,3.6-1.9,2.3-5.1c-1.3-3.2-3.3-2.1-3.8-1.1
			c0,0,1.2-2.3-2.5-2.7c-3.8-0.4-3.1-1.8-4.2-3.9c-1.1-2.1-3.5-1.6-5-1.4c-1.5,0.2-3.9-2.2-4.1-4.5c-0.2-2.3-5.7-2.5-6.4-1"/>
		<path class="st4" d="M209.4,95.3c0,0-4.5-1.2-5.5-3.8c-1.1-2.6,1.2-3.1,2.8-1.4"/>
		<path class="st4" d="M205.4,63.6c0,0,2.4-7.5,10.4-4.7s10.2,0.1,12.1,0.5s4.7,1.6,4.5,5.6s0.3,6.5,3.2,7.7c2.9,1.1,7,5.7,4.8,9
			s-1.9,2.5-2,4.5c-0.1,1.7-2.4,6.5-3.6,7.2c-1.2,0.7-2.8,2.8-2.8,2.8s-0.4,10.7,5,9.4c5.4-1.3,7.6-4.4,10.4,2.1
			c2.9,6.4-0.2,32.5-1,33.5c-0.7,1-3.8,9.7-15.2-4l-10-18.4c0,0,6.8-4,7-3.4s9.7,17.9,11.4,18.5"/>
		<path class="st4" d="M220.7,78.6c0,0-7.6-1.5-5-2.4C219.1,75,220.7,78.6,220.7,78.6z"/>
		<path class="st4" d="M207.4,84c0,0,4-3.8,3.8-4.8C210.9,78.1,207.4,79.8,207.4,84z"/>
		<path class="st4" d="M211.9,81.4c0,0,2.7,1.4,2.4,5s-0.3,3.9-0.3,3.9s2.3,0.7,3,0"/>
		<path class="st4" d="M218.8,87.3c0,0,2.2,0.7,1.9,2.1"/>
		<line class="st5" x1="217.4" y1="82.3" x2="220.9" y2="83.5"/>
		<line class="st6" x1="211.2" y1="85.3" x2="209.4" y2="88.4"/>
		<line class="st4" x1="223.3" y1="84" x2="225.6" y2="85.3"/>
		<line class="st4" x1="223.3" y1="82.8" x2="225.9" y2="82.3"/>
		<path class="st4" d="M233.8,80.9c0,0-1,1.6-0.4,3"/>
		<path class="st4" d="M235.1,82.3c0,0-1.4-0.2-1.7,0.5"/>
		<line class="st7" x1="208.5" y1="89.4" x2="207.8" y2="90.6"/>
		<line class="st7" x1="209.3" y1="90" x2="209.3" y2="92.2"/>
		<path class="st4" d="M220.1,97.5c0,0,0.9,0.9,1.2,2c0.3,0.9,2.6,1.6,2.3-1c-0.3-2.5-1.6-4.3-3.9-4.7
			C217.5,93.3,217.3,96.5,220.1,97.5"/>
		<path class="st4" d="M222,104.3c0,0,0.7,2.7,1,3.3"/>
		<path class="st4" d="M236.9,118.1c0,0,1.5,11,0.3,12.4"/>
		<path class="st4" d="M236.7,105.6c0,0-1,9.3-7.4,10.5"/>
		<path class="st4" d="M206.8,167.9c0,0,0.5-40.8,0.8-49.3c0.3-8.5,7.7-8,7.7-8"/>
		<line class="st4" x1="245.1" y1="143.2" x2="245.7" y2="167.9"/>
		<path class="st4" d="M212.7,126c0,0,3.3-0.7,3.3,4.5c0.1,5.2,0.4,36.4,0.4,36.4"/>
		<path class="st4" d="M221.4,118.7c0,0-7.1-6.3-5.8-8.6c1.2-2.2,3.8,2.5,3.8,2.5"/>
		<path class="st4" d="M228.2,115c0,0,0.9-6.5,0.3-6.7s-2.2,0-2.2,0"/>
		<path class="st4" d="M226.5,111.7c-0.2-0.3-0.2-4.9-1.4-4.9c-1.2,0-1.6,1.1-1.5,2.8"/>
		<path class="st4" d="M223.7,110.1c0,0-0.6-3.5-2.3-3c-1.7,0.5,0.3,3.7,0.3,3.7"/>
		<path class="st4" d="M217.9,110.1c0,0-0.4-3.4,2.8-1.2"/>
		<path class="st4" d="M204.8,91.1c0,0,2.6,0.6,3,1.4"/>
		<path class="st7" d="M206.4,64.5c0,0-5.6,3.3-4.2,4C203.4,69.2,206.4,64.5,206.4,64.5z"/>
		<path class="st7" d="M208.7,65.6c0,0,0,0-0.1,0.1c-0.8,0.7-4.3,3.8-3.8,4.9c0.4,0.9,2-0.1,2.4-0.8
			C207.5,69.2,208.6,65.7,208.7,65.6"/>
		<path class="st7" d="M206.9,64c-0.2-0.4,2.8-3.4,4.5-2.7C212.8,61.8,206.9,64,206.9,64z"/>
		<path class="st7" d="M208.7,65.5c0,0,4.6-2.6,5.7-1.9C215.4,64.2,208.7,65.5,208.7,65.5z"/>
		<path class="st4" d="M222.5,102.2c0,0,2.3,0.4,2.6-1"/>
		<g>
			<line class="st8" x1="185.1" y1="110" x2="201.5" y2="103.2"/>
			<line class="st8" x1="193.1" y1="114" x2="200.8" y2="107.6"/>
			<line class="st8" x1="201.7" y1="117.5" x2="205.8" y2="108.4"/>
			<line class="st8" x1="204.7" y1="100.9" x2="213.4" y2="98.9"/>
			<path class="st8" d="M207.8,105.4c0.9-0.6,5.5-3.2,5.5-3.2"/>
			<line class="st8" x1="213.1" y1="110.7" x2="216.4" y2="104.6"/>
		</g>
	</g>
	<g>
		<path class="st9" d="M102.3,60.9v5.5h-5v-5.5c0-1.4,1.1-2.5,2.5-2.5S102.3,59.5,102.3,60.9z"/>
		<path class="st10" d="M102.3,75.8c0-0.1,0-0.3,0-0.4v-8.9h-1.6v67.6h-1.4V66.4h-2v8.9c0,0.2,0,0.3,0.1,0.5
			c-1.4,0.9-2.3,2.4-2.3,4.1v52c0,2.7,2.2,4.8,4.8,4.8s4.8-2.2,4.8-4.8v-52C104.7,78.1,103.7,76.6,102.3,75.8z"/>
		<rect x="99.4" y="106.4" class="st11" width="1.4" height="6.7"/>
		<polyline class="st12" points="100.7,106.4 100.7,104.8 100.7,103.4 100.7,102 100.7,99.1 99.4,99.1 99.4,102 99.4,103.4 
			99.4,104.8 99.4,106.4 		"/>
		<rect x="99.4" y="93.1" class="st11" width="1.4" height="5.9"/>
		<rect x="99.4" y="87.2" class="st11" width="1.4" height="5.9"/>
		<rect x="99.4" y="81.2" class="st11" width="1.4" height="5.9"/>
		<rect x="99.4" y="66.4" class="st11" width="1.4" height="14.8"/>
		<rect x="99.4" y="113.1" class="st11" width="1.4" height="6.1"/>
		<rect x="99.4" y="119.2" class="st13" width="1.4" height="6.6"/>
		<line class="st14" x1="102.3" y1="81.2" x2="100.7" y2="81.2"/>
		<line class="st14" x1="99.4" y1="81.2" x2="97.3" y2="81.2"/>
		<line class="st14" x1="102.3" y1="87.2" x2="100.7" y2="87.2"/>
		<line class="st14" x1="99.4" y1="87.2" x2="97.3" y2="87.2"/>
		<line class="st14" x1="102.3" y1="93.1" x2="100.7" y2="93.1"/>
		<line class="st14" x1="99.4" y1="93.1" x2="97.3" y2="93.1"/>
		<line class="st14" x1="102.3" y1="99.1" x2="100.7" y2="99.1"/>
		<line class="st14" x1="99.4" y1="99.1" x2="97.3" y2="99.1"/>
		<line class="st15" x1="102.3" y1="106.4" x2="100.7" y2="106.4"/>
		<line class="st15" x1="99.4" y1="106.4" x2="97.3" y2="106.4"/>
		<line class="st14" x1="102.3" y1="113.1" x2="100.7" y2="113.1"/>
		<line class="st14" x1="99.4" y1="113.1" x2="97.3" y2="113.1"/>
		<line class="st14" x1="102.3" y1="119.2" x2="100.7" y2="119.2"/>
		<line class="st14" x1="99.4" y1="119.2" x2="97.3" y2="119.2"/>
		<line class="st14" x1="102.3" y1="125.8" x2="100.7" y2="125.8"/>
		<line class="st14" x1="99.4" y1="125.8" x2="97.3" y2="125.8"/>
		<line class="st14" x1="97.3" y1="132.2" x2="102.3" y2="132.2"/>
		<text transform="matrix(0 1 -1 0 102.3317 80.0178)" class="st16 st17">3 5</text>
		<text transform="matrix(0 1 -1 0 102.3317 91.9832)" class="st16 st17">3 6</text>
		<text transform="matrix(0 1 -1 0 102.3317 105.3132)" class="st18 st16 st17">3 7</text>
		<text transform="matrix(0 1 -1 0 102.3307 118.0027)" class="st16 st17">3 8</text>
		<text transform="matrix(0 1 -1 0 102.3307 130.7698)" class="st16 st17">3 9</text>
		<g>
			<line class="st14" x1="98.4" y1="83.5" x2="101.5" y2="83.5"/>
			<line class="st14" x1="98.4" y1="84.7" x2="101.5" y2="84.7"/>
			<line class="st14" x1="98.4" y1="85.9" x2="101.5" y2="85.9"/>
			<g>
				<line class="st14" x1="98.4" y1="88.6" x2="101.5" y2="88.6"/>
				<line class="st14" x1="98.4" y1="89.8" x2="101.5" y2="89.8"/>
				<line class="st14" x1="98.4" y1="91" x2="101.5" y2="91"/>
			</g>
			<g>
				<line class="st14" x1="98.4" y1="95.1" x2="101.5" y2="95.1"/>
				<line class="st14" x1="98.4" y1="96.3" x2="101.5" y2="96.3"/>
				<line class="st14" x1="98.4" y1="97.5" x2="101.5" y2="97.5"/>
			</g>
			<g>
				<line class="st14" x1="98.4" y1="101.6" x2="101.5" y2="101.6"/>
				<line class="st14" x1="98.4" y1="102.8" x2="101.5" y2="102.8"/>
				<line class="st14" x1="98.4" y1="104" x2="101.5" y2="104"/>
			</g>
			<g>
				<line class="st14" x1="98.4" y1="108" x2="101.5" y2="108"/>
				<line class="st14" x1="98.4" y1="109.2" x2="101.5" y2="109.2"/>
				<line class="st14" x1="98.4" y1="110.4" x2="101.5" y2="110.4"/>
			</g>
			<g>
				<line class="st14" x1="98.4" y1="114.3" x2="101.5" y2="114.3"/>
				<line class="st14" x1="98.4" y1="115.5" x2="101.5" y2="115.5"/>
				<line class="st14" x1="98.4" y1="116.7" x2="101.5" y2="116.7"/>
			</g>
			<g>
				<line class="st14" x1="98.4" y1="120.7" x2="101.5" y2="120.7"/>
				<line class="st14" x1="98.4" y1="121.9" x2="101.5" y2="121.9"/>
				<line class="st14" x1="98.4" y1="123.1" x2="101.5" y2="123.1"/>
			</g>
			<g>
				<line class="st14" x1="98.4" y1="127" x2="101.5" y2="127"/>
				<line class="st14" x1="98.4" y1="128.2" x2="101.5" y2="128.2"/>
				<line class="st14" x1="98.4" y1="129.4" x2="101.5" y2="129.4"/>
			</g>
		</g>
		<line class="st15" x1="100.8" y1="106.4" x2="99.2" y2="106.4"/>
		<path class="st18" d="M93.1,156.2H46.8L46,140l-0.2-8.1l-0.6-15.6l-1.4-0.6l-11.6-5.4l-5.7-3.5c0,0-1.8-1.8-1.9-2.9
			c-0.1-1.2,0.2-3.3,1.1-4.3c0.9-1,2.3-4.6,2.3-4.6l4.4-7.9l5.4-9l2.6-3.6c0,0,0.4-0.1,1.1,0.5s4,5.2,4,5.2s0.8,0.8,0.5,1.3
			s-0.7,1.7-1,2.1c-0.3,0.4-1.4,2.5-1.4,2.5l-1.7,3.7l-2.3,5.9L38.5,99l0.5,0.2l9,1.4l6.9,0.4c0,0,2.4,2.5,3.1,3.1
			c0.7,0.5,3.9,2.3,5.1,2.5s2.7,0.3,3.4,0.2c0.7-0.1,3-0.8,3.8-1.2c0.8-0.4,3.5-2.6,3.5-2.6l1.2-1.3c0,0,5.5,1,6.6,1.4
			c1.1,0.4,2.7,1,3.8,1.7c1,0.7,1.8,1.4,2.3,2c0.5,0.6,1.2,1.7,1.5,2.5s0.9,6.4,1,7.7c0.1,1.3,0.7,9.9,0.7,9.9l1.5,21.6L93.1,156.2z
			"/>
		<path class="st19" d="M44.1,70.5l0.2-0.9v-1.5c0,0-0.5-1.1-0.5-1.2c0-0.1,0.3-1.6,0.3-1.6l0.8-0.7L46,64l1.6-3.1
			c0,0,0.2-1.5,0.2-1.7s0.2-1.7,0.2-1.7l1.6-1.7l2-1.2l5.2-0.9l2.8-0.1h1l1.2-0.6l5-0.7l1-0.3l2.2,0.5l1.7,1l1.7,1.7l1.7,1.4
			l1.2,1.6l0.3,1.3l-0.1,1.1l0.1,0.5l1.4,2.6l1.3,1.5l1,2l0.4,1.8V71l-0.7,1.2l-0.1,0.7l0.5,2.3l0.4,2.2l-0.2,1.7l-0.7,1.5l-1.1,1.1
			L78,82.2l-0.5,0.9L77,84.8l-1.1,0.5L75,85.4l-0.7-0.2l0.1-1.2l-0.3-7.8c0,0-1.2-2.6-1.3-2.7s-3.5-6.2-3.5-6.2l-2-2.1l-6.3-0.7
			l-4.5-0.6l-0.7,0.8l-3.5,1.8l-5.3,4c0,0-1.8,1-2.2,0.8C44.6,71.2,44.1,70.5,44.1,70.5z"/>
		<path class="st2" d="M75.2,101.8l-2.5,2.5l-3.4,1.9l-2.6,0.7l-5.1-0.7l-4.6-2.7l-1.7-2.3l1.3,0c0,0,1.2,0.4,1.5-0.7
			c0.2-1.1,0.3-3.6-0.1-4.8c-0.4-1.2-1.4-2.3-1.4-2.3l-4.2-6.5L51,84.1l-1.2-0.2c0,0-1.4-0.5-1.7-1.1c-0.3-0.6-0.4-2.5-0.4-2.5
			l0.4-0.9L45.9,80l-0.5,0.2l-0.6-0.9l-2.9-3.8l-1.1-1.3L42,73l3.4-3.6l2.6-2.1l2.2-1.5l1.9-0.8l1.7,0l1.3,0l0.4-0.2
			c0,0,0.9-0.2,1.3-0.8c0.3-0.6,0.7-2.1,0.7-2.1s0-1.7,0-1.9s0.3-0.8,0.3-0.8s1.9-0.5,2-0.7c0.1-0.2,1.7-1.3,1.7-1.3l0.7,0.4
			c0,0,1.6,1.6,2.2,1.9c0.5,0.3,2.1,1.2,2.1,1.2s1.5,1.2,1.7,1.8c0.2,0.6,0.3,1.9,0.4,2.2c0.1,0.3,0.3,1.8,0.3,1.8
			c0,0,0.7,0.8,0.7,0.8l2,1.3c0,0,1.1,1.1,1.3,1.7s1.1,2.8,1.1,2.8l0.7,0.9l0.7,0.3l0.8-0.3l0.5,0l1.1,1.3l0.8,1.9
			c0,0,0.3,0.9,0,1.4C78,79,77.5,80,77.5,80l-1.6,1.2l-0.7,0.3l-1.1,4.4l-0.9,2.7l-1.5,2.9L70,93.7l-1,1.4l-0.3,2.5l0.3,2.2l0.9,1.1
			l0.9,0.3l2.6,0.4L75.2,101.8z"/>
		<polygon class="st19" points="52.1,86.4 51,84.1 49.2,83.6 47.8,82 48.1,79.3 47.5,79.3 46.2,79.9 45.4,80 45.8,80.7 45.9,81.5 
			45.8,82.2 45.4,82.7 45.6,83.5 46.2,84.6 46.6,85.1 47.5,85 48.7,85.7 50.2,87.4 51,87.4 52.2,86.9 		"/>
		<polygon class="st19" points="53.2,73 55.3,72.3 58.6,70.5 59.3,69.6 58.6,68.3 56.6,68 56.1,68.8 54.7,70.1 54.2,70.9 		"/>
		<polygon class="st19" points="70,72.1 68.8,70.5 67,68.9 65.8,68.1 64.6,68.5 64.4,69.6 65.4,70.5 67,71.3 68.9,71.9 		"/>
		<path class="st20" d="M56.5,75c-0.5,0-0.8,0.3-0.9,0.6c-0.5,0-0.9,0.5-0.5,1c1.1,1.2,3.3,2.1,4.6,0.7C61.4,75.5,57.5,75,56.5,75z"
			/>
		<path class="st20" d="M70.4,74.6c-1.1-0.4-2.3-0.3-3.3,0.1c-0.1,0.1-0.2,0.1-0.3,0.2c-0.5,0-0.9,0.5-0.6,0.9
			c0.5,0.9,1.5,1.4,2.5,1.6c0.9,0.1,2.6,0,3.2-0.9C72.5,75.6,71.2,74.9,70.4,74.6z"/>
		<path class="st21" d="M57.7,94.6c0,0,1.3,5.2,0,6.2c-1.3,1-19.3-0.9-19.2-1.7"/>
		<path class="st4" d="M37.1,104c0,0,3.7-14.8,8.2-21.2l0.3-0.6c0.3-0.4,0.3-1,0-1.4c-1.1-1.8-4.2-6.6-5.4-6.2
			c-1.4,0.4-15.9,25.8-15.9,28.3c0,2.4,0.2,5,20.4,13.4c1.6,0.7,3.1,1.8,4.1,3.2c0.2,0.3,0.4,0.7,0.6,1"/>
		<path class="st21" d="M69.2,94.6c0,0-1.6,5.3,1,6.5c2.6,1.1,18.7,0.1,19.7,10.9s3.1,44.2,3.1,44.2"/>
		<path class="st21" d="M82.4,120.5c0,0,0.1,25.4,1,35.7"/>
		<path class="st21" d="M80,123.3c0,0,2.5,6.5,2.5,7.2"/>
		<line class="st21" x1="45.2" y1="116.3" x2="46.8" y2="156.2"/>
		<path class="st21" d="M54.9,101c0,0,9.4,12.6,20.2,0.8"/>
		<path class="st4" d="M45.4,82.8c0,0,0.4,2.2,1.4,2.1c1-0.1,2.6,1.3,2.8,1.8c0.3,0.5,1.4,1.3,2.7,0"/>
		<path class="st4" d="M74.3,85.1c0,0,1.6,1,2.5,0c0.9-1,0.4-2.8,1.5-3s3-2.5,2.7-4.9s-1.5-4.6-0.5-5.5s0-4.9-1.2-6.3
			c-1.2-1.3-3.2-3.4-2.7-5.7c0.5-2.3-6.7-7.7-8.8-7.3c-1.8,0.3-7,0.4-7,1.4s-0.6,3.9,4.9,6.7c3.4,1.7,2.4,4.8,2.9,6.2
			c0.3,0.9,3.6,1.8,3.9,3.7c0.3,1.5,1,2.8,1.8,3.6c0.3,0.3,0.8,0.4,1.1,0.1c0.5-0.3,1.3-0.3,2.4,2.1c1.7,3.9-2.8,5.3-2.8,5.3
			c-1.4,7.1-3.1,9.7-3.9,10.7c-0.5,0.6-1.3,1.4-1.8,2C60.7,106.3,51.1,84,51,84.1c-4.9-0.4-2.8-4.7-2.8-4.7"/>
		<path class="st4" d="M55.8,64.6c0,0,0.9-0.4,1.4-2.3c0.5-1.9-0.5-3.2,1.1-3.6c1.6-0.4,3-1.6,3-1.6"/>
		<path class="st4" d="M61,53.7c0,0-13.6-1.2-13.2,5.9c0,0-1,4.4-2.5,4.8c-1.5,0.4-1.8,2.7-1,3.5c0.8,0.8,0,2.1,0,2.1"/>
		<path class="st4" d="M59.3,73c0,0,3.6,1.5,3.2,5.2c-0.4,3.6-1.2,5.3-1.2,5.3s0.9,0.6,2.3,0.6"/>
		<path class="st4" d="M65.6,82.5c0,0,1,0.5,0.5,1.5"/>
		<path class="st4" d="M58.9,89.6c0,0,4.6-2.9,9.5,0.2"/>
		<path class="st4" d="M61.1,92c0,0,2.6-1.8,4.7-0.1"/>
		<path class="st4" d="M70.2,72.3c0,0-7.4-1.6-5.5-3.7C66.3,66.9,70.2,72.3,70.2,72.3z"/>
		<path class="st4" d="M48.9,79.9c0,0,1.8,0.9,2,1.6"/>
		<line class="st4" x1="48.9" y1="81.5" x2="50.2" y2="80.7"/>
		<path class="st21" d="M75.9,76.2c-0.4,0.2-1.2,2.8-0.8,3.2"/>
		<line class="st21" x1="76.4" y1="77.4" x2="75.3" y2="77.8"/>
		<path class="st4" d="M53,73.2c0.5,0,5.5-2.4,6-3.1c0.9-1-0.8-3-2.6-1.7"/>
		<line class="st4" x1="53" y1="73.2" x2="54.4" y2="70.6"/>
		<path class="st4" d="M40.9,74.3c0.1-0.4,5.2-5.7,8.2-7.9c2.8-2,5.3-1.4,5.3-1.4"/>
		<path class="st4" d="M46,71c0,0,5.5-4.7,7.6-5.6c2.1-0.9,2.5-0.9,2.1,0c-0.1,0.2-0.3,0.4-0.5,0.6c-1.8,1.6-6.6,4.3-7.7,5.7"/>
		<path class="st4" d="M45.4,80.2c0,0,3.6-1.5,4.8-2.1c1.1-0.6,5.5-2.9,5.5-4.2c0-1.3-1.9,0.4-3.3,0.8c-1.5,0.4-2.7-0.3-1.3-1.7
			c1-1,3.4-2.8,4.5-3.5c0.5-0.4,0.9-0.9,1-1.5c0.2-0.8-0.3-1.4-3.7,1.2l-4,3.2"/>
		<path class="st21" d="M54.4,66.5c0,0,2.9-1.6,1.5,0.8"/>
		<path class="st7" d="M60.9,54.6c0,0-7.4-0.1-5.7,0.8S60.9,54.6,60.9,54.6z"/>
		<path class="st7" d="M61,55.9c0,0-4.5,0.2-4.8,1.3C55.8,58.2,61,55.9,61,55.9z"/>
		<path class="st7" d="M60.9,54.6c0,0,8.2-1.5,6.3,0C65.3,56.1,60.9,54.6,60.9,54.6z"/>
		<path class="st7" d="M61,55.9c0,0,8.3,1,5.3,1.5C63.3,57.9,61,55.9,61,55.9z"/>
		<path class="st4" d="M66.3,75.5c0,0,2.8-3.6,5.8,0.4"/>
		<path class="st4" d="M55.2,76.2c0,0,2-3.2,5.2,0.1"/>
		<circle cx="57.6" cy="76.3" r="1.5"/>
		<circle cx="69.1" cy="75.5" r="1.5"/>
	</g>
	<g>
		<polygon class="st22" points="174.1,253.1 139.2,253.1 139.2,230.4 160.2,231.7 172.5,231.7 		"/>
		<path class="st18" d="M174.1,231l-4.2,0.6l-4.8,0.1l-13.5-0.5l-13-0.8l-0.9-0.8h-0.5h-1.6l-2.4-0.4l-3.8-1.2l-0.8-23.5l-0.5-13.6
			l-0.8-15.4l-0.5-7.6l0.2-5.2c0,0,0.9-4.2,1.7-5.2c0.7-1,2-2.1,2-2.1l3.1-0.9l1.7,0.2c0,0,5.2,6.5,5.9,7.1s2.7,2.3,2.7,2.3l3.5,0.9
			l2.7-0.6l2.6-1.6l2.3-2.8l2.3-3.8l1.2-4.3l1-0.3l2.3-0.7h3.1l1.6,0.6l1.9,1.5l1.5,2.3l1.2,3.7l1.6,8.1l1.7,9.3l1.6,12.8l0.3,7.2
			l-0.3,4.2l-0.4,1.7l-1,2.3l-1.3,1l-0.9,0.1l1.3,18.9L174.1,231z"/>
		<polygon class="st2" points="139,241.7 137.5,238 136.7,234.7 136.1,237.2 134.7,242.6 134.1,244.4 133.6,244.4 133.2,243.1 
			133.6,234.9 132.6,238.9 131.4,242.1 130.6,243.2 130.1,243.2 130,241.7 131.2,235.1 130.1,237.6 129.2,239.2 128.6,239.1 
			128.2,238.5 130,228.6 133.8,229.3 136.8,229.6 137.8,229.6 138.2,230.3 139.2,230.4 		"/>
		<polygon class="st2" points="151.7,187.8 155.9,185 160.5,182 160,179.9 159,175.5 157.2,171 156.4,170.4 155.8,170.9 155.8,174 
			155.8,176.8 155.6,177.4 155.1,177.6 152.8,175.1 147.7,169.9 146,168.9 145.5,168.8 145.1,169.4 145.1,171 144.1,170 
			143.4,169.5 142.7,169.6 143,170.8 143.9,172.7 143.3,172.3 142.3,172 141.6,172.3 141.9,173.2 147.9,181.2 148.5,182.1 
			148.4,182.8 147.8,182.7 142.9,179 141.3,178.2 140.9,178.3 141.5,179.5 149.8,186.4 		"/>
		<path class="st19" d="M158.5,152l1.3-0.6l2-0.5l1.9-0.3l0.6-0.7l0.3-1.6l-0.1-1.8l0.4-1l0.7-0.9l0.6-0.8v-1l-0.3-3l-1.7-2.7
			l-1.4-2.9l-0.4-2.4l-0.9-2l-1.1-1.2l-1.6-1.1l-1-0.4l-2.4-1l-1.2-1.2l-1.3-3l-1.2-1.7l-2.2-1.8l-1.9-0.2l-3.3,0.2l-4.6,0.5l-2,0.5
			l-1.8,0.8l-1.5,1.2l-1.3,2l-0.8,3.1l-1.6-0.2l-1.1,0.2l-1.5,1l-2.5,3.3l-1.4,3.2c0,0-0.1,2.1,0,2.4c0.1,0.3,0.9,1.7,0.9,1.7
			l0.8,1.1l0.6,2.1l-0.4,1.6l-1,1.6l0,1.9l0.5,1.2l1.7,1.7l0.7,1.2l-0.1,1.8l-0.4,1.1l0.5,1.8l1.1,1.1l0.6-0.4l1.4-0.9l0.8-0.3
			l1.4-0.2l1.8,0l0.6,0.2l-1.2-1.9l-2.4-5.4l-1.6-3.7l1-5.2l8.2-5.2l2.9,0.1l8.1-1.4l0.9,0.8c0.3,0.2,0.5,0.5,0.8,0.8l0.8,2.3l1,1.9
			l1.3,1.2l1.8,0.7l0.4-0.1l1.2,5.7l-0.3,4.7L158.5,152z"/>
		<path class="st2" d="M149.4,164.7l2.7-1.5l3.7-4.2l1.8-3.2l0.9-3.9l0.2-1.9l1-0.6l1.3-1.8l0.4-2.1l-0.3-3l-1-2.7l-0.6-0.3
			l-0.9-0.3l-1.8,1.7l0.5-1.2l-1.8-0.7l-2.3-2.1l-0.5-2.2l-0.8-2l-1.1-0.7h-1.3l-1.6,0.4l-2.8,0.2l-2-1.1l-1.9-2.4l-1.3-1l-2.4,0.4
			l-3.2,0.4l-0.4,0l-0.5,1.7l-2,3.8l-1.4,3.2l0.1,2.1l0.3,2.7l0,1.3c0,0,3.3,7.7,3.9,8.8s3.1,5.2,3.4,5.3c0.3,0.1,2.2,2.5,2.5,2.8
			c0.3,0.3,2.9,2.6,2.9,2.6s2.9,1.4,3.8,1.6S149.4,164.7,149.4,164.7z"/>
		<polygon class="st19" points="133.8,146 134.7,145.5 136.1,144.1 137.1,142.6 137.4,141.5 136.7,141 135.8,141 134.9,142.4 
			133.9,145.5 		"/>
		<polygon class="st19" points="148.3,140.3 145.8,140.3 142.2,139.9 141.3,139.3 141.4,138.6 141.9,138.2 142.6,138.2 144.4,138.3 
			146.3,138.8 148.7,140.1 		"/>
		<polygon class="st23" points="143.5,158.6 146.1,157.7 150.2,156.5 149.5,155.7 146.8,155.4 145.1,155.9 144,156.5 		"/>
		<path class="st20" d="M150.9,143.4c-0.1-0.2-0.3-0.4-0.6-0.5c-0.9-0.2-1.7-0.5-2.6-0.6c-0.5-0.1-1,0-1.2,0.4c-0.2,0-0.4,0-0.6,0.1
			c0,0,0,0,0,0c-0.2,0.1-0.3,0.2-0.4,0.4c-0.3,0.3-0.4,0.7,0,0.9c0.1,0.1,0.1,0.1,0.2,0.2c0,0,0,0,0,0c0.6,0.5,1.2,0.7,2,0.7
			c0.2,0,0.5,0,0.8,0c0.6,0,1.3,0,1.9-0.2C151.4,144.8,151.4,143.9,150.9,143.4z"/>
		<path class="st20" d="M138.9,145.8c-0.5-0.3-1.2-0.2-1.5,0.3c-0.1,0.2-0.1,0.4-0.1,0.5c-0.1,0-0.2,0-0.3,0
			c-0.7,0.1-1.1,0.8-0.9,1.4c-0.1,0.1-0.2,0.1-0.3,0.2c-0.1,0.1-0.1,0.1-0.2,0.2c-0.1,0.1-0.2,0.3-0.2,0.5c0,0.3,0.3,0.6,0.6,0.6
			c0.1,0,0.1,0,0.2,0c0.1,0,0.2,0,0.3,0c0,0,0,0,0.1,0c0.4-0.1,0.8-0.2,1.1-0.4c0,0,0,0,0,0C139,148.9,140.5,146.6,138.9,145.8z"/>
		<path class="st4" d="M135.4,154.7c0,0-10.2-3.1-8.5,15.8c1.5,17.6,2.3,52.3,2.4,57.1c0,0.3,0.2,0.6,0.5,0.7c1.6,0.5,6.2,1.8,8,1.3
			"/>
		<path class="st4" d="M132.2,173.2c0,0,3.8,0,3.8,5.1s1.2,51.5,2.1,51.9c0.9,0.5,32.8,2.4,35.9,0.8c0,0-1.3-23.1-1.8-25.2"/>
		<path class="st4" d="M158.7,152c0,0,9.8-5.7,12.4,7.1s12.4,58.3-4.4,43.9c-16.8-14.3-15.6-14.9-15.6-14.9l9.4-6l8,8.5"/>
		<line class="st4" x1="163.7" y1="174.5" x2="165.3" y2="187.1"/>
		<line class="st4" x1="139.2" y1="253.1" x2="139.2" y2="230.4"/>
		<path class="st4" d="M152.6,234.6c0,0,5.2,5.4,5.5,18.1"/>
		<line class="st4" x1="172.5" y1="231.7" x2="174.1" y2="253.1"/>
		<path class="st4" d="M130,228.3c0,0-1.8,9.1-1.5,10.5c0.3,1.4,2.5-2.5,2.8-3.9c0,0-2.3,9-0.9,8.4s2.9-7.1,3.2-8.4
			c0,0-1.1,8.8,0,9.5c1.1,0.7,2.9-9.5,2.9-9.5s2.1,6.7,2.7,7.7"/>
		<path class="st4" d="M151.7,187.8c0,0-11-8.2-10.8-9.5c0.2-1.3,6.9,5.1,7.5,4.4c0.6-0.8-7.2-9.6-6.8-10.3c0.4-0.8,2,0.1,2.5,0.6"
			/>
		<path class="st4" d="M150,180.8c0,0-10.6-12.6-6.3-11.3c0,0,7.8,8.6,8.6,9.5"/>
		<path class="st4" d="M160.5,182.1c0,0-1.4-5.7-1.4-6c0-0.3-3.3-9.4-3.4-4.1c-0.1,5.4,0.8,7.5-2.9,3.5c-3.7-4.1-8.8-10-7.7-4.4"/>
		<path class="st4" d="M130.6,143.9c0,0,6.4,19.2,16.6,21.1c1.5,0.3,3.1-0.1,4.3-1.1c2.5-1.9,6.6-6.1,7.2-13.8c0,0,3-1,2.7-5.7
			c-0.3-4.4-2.1-7.1-4.6-3.2"/>
		<path class="st4" d="M149,140.3c0,0-8.9,0.4-7.7-1.5C142.5,136.9,149,140.3,149,140.3z"/>
		<path class="st4" d="M133.7,146.5c0,0,5.2-4.3,3.2-5.4S133.7,146.5,133.7,146.5"/>
		<path class="st4" d="M139.5,142.8c0,0,2.6,1.2,2.8,4c0.2,2.8-0.5,5-0.8,5.3c-0.2,0.2,1.3,1.5,2.5,0.8"/>
		<path class="st4" d="M146.8,149.7c0,0,1.5,0.7,0.7,1.9"/>
		<path class="st4" d="M143.3,158.8c0,0,4.3-2,6.9-2.3c0.2,0,0.3-0.4,0.1-0.5C148.4,155.3,144.1,154.2,143.3,158.8z"/>
		<path class="st7" d="M146.1,160.7c0,0,1.2-1.8,3.6-1.3"/>
		<path class="st4" d="M145.5,144.1v-0.8c0-0.3,0.2-0.6,0.5-0.6c1-0.2,3.3-0.4,5.1,0.9"/>
		<path class="st4" d="M139.7,146.5l-1-0.7c-0.2-0.3-0.4-0.2-0.7,0c-0.8,0.6-2.2,1.8-2.2,3.2"/>
		<path class="st4" d="M129.3,156.5c0,0-2.3-1.6-1.4-4s-1.6-3.9-2.2-4.6c-0.6-0.7-1.3-2.9,0-4.4c1.3-1.5,0.9-3.6-0.7-5.4
			c-1.6-1.8-1-4.9,0-6.5c1-1.5,5-9.4,9.2-2.7c0,0-1.7,4.1-3.2,6.9s-0.5,3.4-0.4,5.6c0.2,2.2-0.6,3-0.7,3.9c-0.1,0.9,3,3,2.9,4.2
			s-1.8,3.9-0.4,4.2c1.6,0.4,1.8,0.6,1.8,0.6"/>
		<path class="st4" d="M163.4,150.8c0,0,1.2-0.1,1-1.9c-0.2-1.8,0.2-3.4,1.1-4.2c0.9-0.8,0.8-4.2-1.1-6.9s-2.1-4.7-2.3-6.3
			c-0.2-1.6-2.5-3.9-5-4.5c-2.5-0.6-3.9-3.1-4.1-4.4c-0.2-1.2-2.4-4.8-7-4.3c-4.6,0.5-12.9-0.4-13.9,8.3"/>
		<path class="st4" d="M134.2,129c0,0,2.9-0.1,4.4-0.6c1.4-0.5,2.3,0,3.2,1.3s2,3.3,5.1,3c3.1-0.3,4-1.1,5.1,0
			c1.1,1.2,0.8,6.4,5.9,7.1"/>
		<path class="st4" d="M159.3,141.5c0,0-0.9,1.5-0.6,3"/>
		<line class="st4" x1="160.1" y1="143" x2="158.7" y2="143.6"/>
		<ellipse transform="matrix(0.866 -0.5 0.5 0.866 -55.4452 88.5917)" cx="137.6" cy="147.8" rx="1" ry="1.3"/>
		<ellipse transform="matrix(0.8892 -0.4575 0.4575 0.8892 -49.4332 83.2886)" cx="147.3" cy="143.7" rx="1" ry="1.3"/>
		<path class="st7" d="M132.8,127.1c0,0-5.1,1.7-4.1,2.5C129.6,130.5,132.8,127.1,132.8,127.1z"/>
		<path class="st7" d="M133.4,128.2c0,0,0,0-0.1,0.1c-0.7,0.5-3.7,3.1-3.3,3.9c0.3,0.8,1.6,0,2-0.6
			C132.3,131.1,133.4,128.2,133.4,128.2"/>
		<path class="st7" d="M132.6,127.3c-0.1-0.3,2.3-2.8,3.7-2.3C137.5,125.5,132.6,127.3,132.6,127.3z"/>
		<path class="st7" d="M133.7,128c0,0,4.1-1.7,4.8-1.1C139.3,127.5,133.7,128,133.7,128z"/>
		<path class="st24" d="M121.7,176.6c-0.3,0-0.6,0-0.9,0.1c0-0.1,0.1-0.3,0.1-0.4c0-1.2-1-2.1-2.3-2.1c-0.4,0-0.8,0.1-1.2,0.3
			c-0.6-0.5-1.3-0.7-2.2-0.7c-1.8,0-3.3,1.4-3.3,3.1c0,0.7,0.3,1.3,0.7,1.8c-1.1,0.5-1.8,1.5-1.8,2.7c0,1.6,1.5,3,3.3,3
			c0.7,0,1.3-0.2,1.8-0.5c0.2,1.3,1.3,2.2,2.8,2.2c1.5,0,2.8-1.1,2.8-2.6c0-0.4-0.1-0.7-0.2-1c0.2,0,0.4,0.1,0.6,0.1
			c1.8,0,3.3-1.3,3.3-3C124.9,177.9,123.5,176.6,121.7,176.6z"/>
		<path class="st24" d="M135.2,164.7c-0.2,0-0.4,0-0.6,0.1c0-0.1,0-0.2,0-0.3c0-0.7-0.7-1.3-1.5-1.3c-0.3,0-0.5,0.1-0.8,0.2
			c-0.4-0.3-0.9-0.5-1.4-0.5c-1.2,0-2.2,0.9-2.2,2c0,0.4,0.2,0.9,0.4,1.2c-0.7,0.3-1.2,1-1.2,1.7c0,1.1,0.9,1.9,2.1,1.9
			c0.4,0,0.8-0.1,1.2-0.3c0.1,0.8,0.9,1.4,1.8,1.4c1,0,1.8-0.7,1.8-1.6c0-0.2,0-0.4-0.1-0.6c0.1,0,0.2,0,0.4,0
			c1.2,0,2.1-0.9,2.1-1.9C137.3,165.6,136.3,164.7,135.2,164.7z"/>
		<path class="st4" d="M134.6,160.1c0,0,3,0,4.7-1.2"/>
		<path class="st4" d="M136.1,163.3c0,0,4.7-3.2,4.8-3.2"/>
		<path class="st4" d="M142,165.6c0,0-0.7-3.1-0.2-4.5"/>
		<path class="st25" d="M37.3,118.2"/>
	</g>
</g>
</svg>
