<?xml version="1.0" encoding="utf-8"?>
<!-- Generator: Adobe Illustrator 22.1.0, SVG Export Plug-In . SVG Version: 6.00 Build 0)  -->
<svg version="1.1" xmlns="http://www.w3.org/2000/svg" xmlns:xlink="http://www.w3.org/1999/xlink" x="0px" y="0px"
	 viewBox="0 0 283.5 283.5" style="enable-background:new 0 0 283.5 283.5;" xml:space="preserve">
<style type="text/css">
	.st0{fill:#FDEBE1;}
	.st1{fill:#E7E6E8;stroke:#000000;stroke-linecap:round;stroke-linejoin:round;stroke-miterlimit:10;}
	.st2{fill:#2B2B2B;stroke:#000000;stroke-width:0.9034;stroke-linecap:round;stroke-linejoin:round;stroke-miterlimit:10;}
	.st3{fill:#98999C;stroke:#000000;stroke-width:0.9109;stroke-linecap:round;stroke-linejoin:round;stroke-miterlimit:10;}
	.st4{fill:none;stroke:#000000;stroke-width:0.9109;stroke-linecap:round;stroke-linejoin:round;stroke-miterlimit:10;}
	.st5{font-family:'Helvetica-Regular';}
	.st6{font-size:4.517px;}
	.st7{fill:#BD222E;}
	.st8{fill:#2F5E97;}
	.st9{fill:none;stroke:#000000;stroke-linecap:round;stroke-linejoin:round;stroke-miterlimit:10;}
	.st10{fill:#FCD4B6;}
	.st11{fill:#FFFFFF;}
	.st12{fill:#E7E6E8;stroke:#000000;stroke-width:0.75;stroke-miterlimit:10;}
	.st13{fill:#98999C;stroke:#000000;stroke-width:0.75;stroke-miterlimit:10;}
</style>
<g id="Слой_1">
</g>
<g id="Слой_7">
	<rect class="st0" width="283.5" height="283.5"/>
</g>
<g id="Слой_4">
	<g>
		<path class="st1" d="M109.1,142.6h-8.7c-3.9,0-7.1-3.2-7.1-7.1V40.4c0-3.9,3.2-7.1,7.1-7.1h8.7c3.9,0,7.1,3.2,7.1,7.1v95.2
			C116.1,139.4,112.9,142.6,109.1,142.6z"/>
		<path class="st2" d="M105.6,48c2.8-0.5,4.8-3.1,4.3-6.1c-0.4-2.3-2.3-4.2-4.6-4.4c-3.2-0.4-5.9,2.1-5.9,5.3c0,2.6,1.9,4.8,4.4,5.2
			"/>
		<path class="st3" d="M105.6,48v86.7h-1.8V48c0.3,0.1,0.6,0.1,0.9,0.1C105,48.1,105.3,48.1,105.6,48z"/>
		<line class="st4" x1="97.8" y1="127.6" x2="111" y2="127.6"/>
		<line class="st4" x1="97.8" y1="111.7" x2="111" y2="111.7"/>
		<line class="st4" x1="97.8" y1="95.8" x2="111" y2="95.8"/>
		<line class="st4" x1="97.8" y1="79.8" x2="111" y2="79.8"/>
		<line class="st4" x1="97.8" y1="63.9" x2="111" y2="63.9"/>
		<text transform="matrix(1 0 0 1 106.4067 62.5149)" class="st5 st6">180</text>
		<text transform="matrix(1 0 0 1 106.4067 78.115)" class="st5 st6">160</text>
		<text transform="matrix(1 0 0 1 106.4067 93.9246)" class="st5 st6">140</text>
		<text transform="matrix(1 0 0 1 106.4067 110.073)" class="st5 st6">120</text>
		<text transform="matrix(1 0 0 1 106.4067 126.2214)" class="st5 st6">100</text>
		<path class="st7" d="M130.3,72l-2.3-6.2l-2.3-6.2l-2.3,6.2l-2.3,6.2h3.3v59.8c0,0.7,0.6,1.3,1.3,1.3l0,0c0.7,0,1.3-0.6,1.3-1.3V72
			H130.3z"/>
	</g>
	<g>
		<path class="st1" d="M231.4,237h-8.7c-3.9,0-7.1-3.2-7.1-7.1v-95.2c0-3.9,3.2-7.1,7.1-7.1h8.7c3.9,0,7.1,3.2,7.1,7.1v95.2
			C238.5,233.8,235.3,237,231.4,237z"/>
		<path class="st2" d="M228,142.4c2.5-0.4,4.4-2.6,4.4-5.2c0-2.9-2.4-5.3-5.3-5.3c-2.9,0-5.3,2.4-5.3,5.3c0,2.6,1.9,4.8,4.4,5.2"/>
		<path class="st3" d="M228,142.4v86.7h-1.8v-86.7c0.3,0.1,0.6,0.1,0.9,0.1C227.4,142.5,227.7,142.5,228,142.4z"/>
		<line class="st4" x1="220.2" y1="222" x2="233.4" y2="222"/>
		<line class="st4" x1="220.2" y1="206.1" x2="233.4" y2="206.1"/>
		<line class="st4" x1="220.2" y1="190.2" x2="233.4" y2="190.2"/>
		<line class="st4" x1="220.2" y1="174.2" x2="233.4" y2="174.2"/>
		<line class="st4" x1="220.2" y1="158.3" x2="233.4" y2="158.3"/>
		<text transform="matrix(1 0 0 1 228.7684 156.903)" class="st5 st6">180</text>
		<text transform="matrix(1 0 0 1 228.7684 172.5031)" class="st5 st6">160</text>
		<text transform="matrix(1 0 0 1 228.7684 188.3126)" class="st5 st6">140</text>
		<text transform="matrix(1 0 0 1 228.7684 204.4611)" class="st5 st6">120</text>
		<text transform="matrix(1 0 0 1 228.7684 220.6095)" class="st5 st6">100</text>
		<path class="st8" d="M243.4,215.2l2.3,6.2l2.3,6.2l2.3-6.2l2.3-6.2h-3.3v-59.8c0-0.7-0.6-1.3-1.3-1.3l0,0c-0.7,0-1.3,0.6-1.3,1.3
			v59.8H243.4z"/>
	</g>
</g>
<g id="Слой_5">
	<line class="st9" x1="263.6" y1="14.4" x2="15.9" y2="262.2"/>
</g>
<g id="Слой_6">
	<g>
		<path class="st10" d="M64.4,186.8"/>
		<polygon class="st10" points="64.4,186.8 48.5,186.8 44,123.9 50.3,124.3 58.2,124.3 62.1,124.3 62.1,127.6 		"/>
		<path class="st10" d="M62.5,97.5l1.6-7l0.3-8l-1.2-9.6l-3.5-7.1h-5.5l-3.4,0.7l-3.4,1.6L44,72l-1.8,4.4c0,0-1.1,5-1.1,6.1
			s0.5,10,0.5,10l0.7,5h2.8l9-0.6h5.5L62.5,97.5z"/>
		<path class="st10" d="M90.8,82.5h-8.3c0,0-4.4-2.1-5.1-2.7c-0.7-0.6-4.2-4-5.4-6.1c-1.2-2.1-4.1-10.3-4.1-10.3s1.5-0.9,2.2-1.9
			c0.7-1,2-2.2,1.9-5.2c-0.1-3-0.3-9.7-0.3-9.7s-0.1-1-0.5-3.9c-0.5-2.9-0.5-9.4-0.5-9.4l-2.8-3.2l-2.1-3.8v-4H67l2.7,1.3l2.3,2.1
			h18.8V82.5z"/>
		<path class="st11" d="M64.4,186.8l-2.3-62.6l1.8-1.3l0.5-3.9l-1.1-19.4l-0.9-2.2l1.6-7l0.2-8.8l-1-8.7l-3.5-7.1l3.5-0.6l4.7-1.9
			l2.1,6.4c0,0,2.7,6.7,4.3,7.7c1.7,1,8.5,6,16.5,5v84.2L64.4,186.8z"/>
		<path class="st9" d="M72,25.8c0,0-5.8-6.5-6.3-1.5c-0.2,2.1,0.6,4.1,1.9,5.7l3.1,3.5c0,0-1.1,6.5,2,14.7c2.2,5.7,6.4,12.2,14.5,18
			"/>
		<path class="st9" d="M42.5,97.5c0,0-7.4-32.6,13.5-31.5c0,0,7.2,0.4,11.9-2.6c2.4-1.5,4.2-3.9,4.1-7.6
			c-0.3-11.1-0.3-11.1-0.3-11.1"/>
		<path class="st9" d="M82.5,82.5c0,0-10.6-2.2-14.6-19.1"/>
		<path class="st9" d="M59.8,65.9c8.5,17.4,2.7,31.6,2.7,31.6s-0.8-3.3-1.9-5.3"/>
		<line class="st9" x1="44" y1="123.9" x2="48.5" y2="186.8"/>
		<line class="st9" x1="62.1" y1="124.3" x2="64.4" y2="186.8"/>
		<path class="st12" d="M64.4,119.1c0,0.7,0,1.4,0,2.1c-0.2,2.7-0.5,2.7-10.9,3.1c-8.9,0.3-11-0.5-11.7-3.8
			c-0.4-1.7-0.3-4.4-0.6-8.8C40.3,99,39.7,97.3,44,97.5c3.5,0.1,12.8-1.1,17.2-0.3c1.2,0.2,2.1,1.3,2.2,2.5L64.4,119.1z"/>
		<path class="st9" d="M33.7,129.2c0,0,3.9-5.3,8.1-8.7"/>
		
			<ellipse transform="matrix(0.4445 -0.8958 0.8958 0.4445 -103.7252 102.3521)" class="st13" cx="30.7" cy="134.8" rx="6.5" ry="3.7"/>
	</g>
	<path class="st10" d="M178.6,275.6"/>
	<polygon class="st10" points="186.6,270.1 170.7,270.1 166.2,207.2 172.5,207.6 180.3,207.6 184.3,207.5 184.3,210.9 	"/>
	<path class="st10" d="M184.7,180.8l1.6-7l0.3-8l-1.2-9.6l-3.5-7.1h-5.5l-3.4,0.7l-3.4,1.6l-3.4,3.8l-1.8,4.4c0,0-1.1,5-1.1,6.1
		c0,1.2,0.5,10,0.5,10l0.7,5h2.8l9-0.6h5.5L184.7,180.8z"/>
	<path class="st10" d="M213,165.8h-8.3c0,0-4.4-2.1-5.1-2.7c-0.7-0.6-4.2-4-5.4-6.1c-1.2-2.1-4.1-10.3-4.1-10.3s1.5-0.9,2.2-1.9
		c0.7-1,2-2.2,1.9-5.2c-0.1-3-0.3-9.7-0.3-9.7s-0.1-1-0.5-3.9c-0.5-2.9-0.5-9.4-0.5-9.4l-2.8-3.2l-2.1-3.8v-4h1.2l2.7,1.3l2.3,2.1
		H213V165.8z"/>
	<path class="st11" d="M186.6,270.1l-2.3-62.6l1.8-1.3l0.5-3.9l-1.1-19.4l-0.9-2.2l1.6-7l0.2-8.8l-1-8.7l-3.5-7.1l3.5-0.6l4.7-1.9
		l2.1,6.4c0,0,2.7,6.7,4.3,7.7c1.7,1,8.5,6,16.5,5v84.2L186.6,270.1z"/>
	<path class="st9" d="M194.2,109c0,0-5.8-6.5-6.3-1.5c-0.2,2.1,0.6,4.1,1.9,5.7l3.1,3.5c0,0-1.1,6.5,2,14.7
		c2.2,5.7,6.4,12.2,14.5,18"/>
	<path class="st9" d="M164.7,180.8c0,0-7.4-32.6,13.5-31.5c0,0,7.2,0.4,11.9-2.6c2.4-1.5,4.2-3.9,4.1-7.6
		c-0.3-11.1-0.3-11.1-0.3-11.1"/>
	<path class="st9" d="M204.7,165.8c0,0-10.6-2.2-14.6-19.1"/>
	<path class="st9" d="M181.9,149.1c8.5,17.4,2.7,31.6,2.7,31.6s-0.8-3.3-1.9-5.3"/>
	<line class="st9" x1="166.2" y1="207.2" x2="170.7" y2="270.1"/>
	<line class="st9" x1="184.3" y1="207.5" x2="186.6" y2="270.1"/>
	<path class="st12" d="M186.6,202.4c0,0.7,0,1.4,0,2.1c-0.2,2.7-0.5,2.7-10.9,3.1c-8.9,0.3-11-0.5-11.7-3.8
		c-0.4-1.7-0.3-4.4-0.6-8.8c-0.8-12.7-1.5-14.4,2.8-14.2c3.5,0.1,12.8-1.1,17.2-0.3c1.2,0.2,2.1,1.3,2.2,2.5L186.6,202.4z"/>
	<path class="st9" d="M155.6,212.1c0,0,3.9-5.3,8.1-8.7"/>
	
		<ellipse transform="matrix(0.4445 -0.8958 0.8958 0.4445 -110.3014 257.6069)" class="st13" cx="152.6" cy="217.7" rx="6.5" ry="3.7"/>
</g>
</svg>
