<?xml version="1.0" encoding="utf-8"?>
<!-- Generator: Adobe Illustrator 22.1.0, SVG Export Plug-In . SVG Version: 6.00 Build 0)  -->
<svg version="1.1" xmlns="http://www.w3.org/2000/svg" xmlns:xlink="http://www.w3.org/1999/xlink" x="0px" y="0px"
	 viewBox="0 0 283.5 283.5" style="enable-background:new 0 0 283.5 283.5;" xml:space="preserve">
<style type="text/css">
	.st0{fill:#BD212E;}
	.st1{fill:#C3D9F1;}
	.st2{fill:#352723;}
	.st3{fill:#FCD4B6;}
	.st4{fill:#FFFFFF;}
	.st5{fill:#662327;}
	.st6{fill:#BA896B;}
	.st7{fill:#462A12;}
	.st8{fill:#FBBB11;}
	.st9{fill:#F28A19;}
	.st10{fill:#A33960;}
	.st11{opacity:0.5;fill:#FFFFFF;}
	.st12{fill:#F9C098;}
	.st13{fill:#F9B44E;}
	.st14{fill:#519132;}
	.st15{fill:#FEF1EE;}
	.st16{fill:#434344;}
	.st17{fill:#4E4E51;}
	.st18{fill:#98999C;stroke:#000000;stroke-linecap:round;stroke-linejoin:round;stroke-miterlimit:10;}
	.st19{fill:#78797D;stroke:#000000;stroke-linecap:round;stroke-linejoin:round;stroke-miterlimit:10;}
	.st20{fill:none;stroke:#000000;stroke-linecap:round;stroke-linejoin:round;stroke-miterlimit:10;}
	.st21{fill:none;stroke:#000000;stroke-width:0.75;stroke-linecap:round;stroke-linejoin:round;stroke-miterlimit:10;}
	.st22{fill:none;stroke:#000000;stroke-width:1.123;stroke-linecap:round;stroke-linejoin:round;stroke-miterlimit:10;}
	.st23{fill:none;stroke:#000000;stroke-width:2;stroke-linecap:round;stroke-linejoin:round;}
	.st24{fill:none;stroke:#000000;stroke-width:2;stroke-linecap:round;stroke-linejoin:round;stroke-dasharray:9.8925,9.8925;}
</style>
<g id="Слой_1">
</g>
<g id="Слой_11">
	<g>
		<path class="st0" d="M40.4,164.9l-10.8-2.2l1.2-4L19,159.3l-0.3-4.7l1.2-17.2l0.6-19.8l0.1-3.2l4.1-11.6l4.2-8.9l3.4-4l2.5-1.8
			l2.8,0.3c0,0,2.7,2.1,3.1,2.6c0.4,0.5,2.6,3.9,2.8,4.4c0.2,0.5,2,6.4,2.1,7.1s0.5,4.8,0.5,5.7c0,0.9-0.3,8-0.3,8l1.2,15.3l1,13.5
			l1,13.2l-8.4,0.1L40.4,164.9z"/>
		<polygon class="st1" points="45.6,237.1 43.4,238.5 32.7,238 25.9,236.9 25.6,231 25.3,224.7 24.7,211.8 23.3,191.7 23.3,177.4 
			22.2,169.7 20.1,159.3 30.4,158.5 30.8,158.8 29.3,162.4 31,163.4 39.9,165.3 40.7,164.4 40.7,158.5 47.1,158.5 47.9,158.9 
			48.5,162 48.1,167.3 46.5,177.3 45.1,185.9 45.1,200.4 45.3,209.5 45.3,216.6 45.8,231.8 45.7,235.4 		"/>
		<path class="st2" d="M44.4,238.5l-0.1,3l-1.3,1.5l-5.7,0.7H12.6c0,0-3.4-1.9-3.6-2.4c-0.3-0.4-0.6-2.9-0.6-2.9l1.1-1.7l2.3-0.4
			h6.2l7.5,0.5l1.6,0.6l5.6,0.7l7.4,0.3l4.2-0.5V238.5z"/>
		<path class="st3" d="M39.8,89.3l-0.1-10.9l-1.1-4.3l1.6-1.9c0,0,0.3-4.8,0-5c-0.3-0.1-1.9-0.1-2.9,0.5c-1,0.7,0-3.1,0-3.1
			s-0.1-2.6-1-3.3s-5-3.7-5-3.7l-2.6-4.1l-0.5-1.8l-6.1-2.5l-0.7,2.7l-1.1,4c0,0-0.2,1.8,0,2.5c0.2,0.7,1.3,2.9,1.4,4
			s-0.4,3.4-1,4.1c-0.6,0.7-2.9,2.8-2.9,2.8l-0.1,2.1l2,3.2l3.8,6l0.8,1.5l4.4,1.5l2.6,0l0.5,2.1l0.3,3.3l-0.8,1.6l2.3-2.1l2.2-1.1
			l1.3,0.6l2.2,1.1l0.3,0.3L39.8,89.3z"/>
		<path class="st3" d="M29.3,162.9c0,0-2.4,5.5-2.5,5.6c-0.1,0.2-0.9,2.5-0.9,2.5l0.8,0.9l2.6-2.2l0.1,3.9l-0.1,4.6l0.1,1.9l1.3,0.2
			l2.7-2l4.4-6.4l2.2-6.7l-8.7-1.8L29.3,162.9z"/>
		<path class="st4" d="M25.6,64.8c-0.3,0-0.5,0.2-0.5,0.5c-0.1-0.3-0.2-0.6-0.5-0.9c-0.2-0.1-0.5-0.2-0.7-0.1c0,0,0,0,0,0
			c-0.1-0.1-0.4,0-0.4,0.1c-0.3,0.5,0,1.1,0.2,1.6c0.3,0.6,0.6,1.2,1,1.7c0.3,0.4,1,0.4,1.2,0c0,0.1,0.2,0.3,0.3,0.3
			c0.9,0,1.7-0.6,1.7-1.6C27.6,65.3,26.6,64.8,25.6,64.8z M25.9,67.4c-0.1,0-0.1,0.1-0.2,0.1c0,0,0-0.1,0-0.1
			c-0.2-0.5-0.3-0.9-0.5-1.4c0.2,0.1,0.4,0.2,0.7,0.2c0.2,0,0.4,0.3,0.4,0.4C26.3,66.9,26.1,67.3,25.9,67.4z"/>
		<path class="st5" d="M38.5,74.1l1.3,3l1.7,1.2l2.2-1.1l2.1-2.1l2.4-3.6c0,0,0.7-3.7,0.4-3.8c-0.3-0.1-1.7-3.5-1.7-3.5l-2.6-6.6
			l-0.3-3.2l0.7-3.8l-2.1-3.3l-4.2-3.7l-2.8-2.7L32.1,40h-3.4l-3.9,2l-2.4,2.7l-0.4,2.6l-0.2,1.3c0,0-0.3,0.6,0.8,0.8
			c1.2,0.2,2.2,0.9,2.2,0.9l2.8,1c0,0,1.2,0.2,1.2,0.5s0,1.4,0,1.4l0.3,1.7l1.3,1.7l3.9,3.2l2.4,2l0.9,2.4l-0.4,2.3l-0.2,1.1
			l1.6-0.5l1.3-0.1l0.8,0.6l0.2,2.4l-0.5,1.8l-0.9,1.4L38,73.6L38.5,74.1z"/>
	</g>
</g>
<g id="Слой_13">
	<path class="st6" d="M257.8,116.2l-1.1-4.5l0.5-5.3l1.7-7.3l0.9-1l1.7-1.6c0,0,1.2-3,0-4.1c-1.2-1.1-2.2-1.6-2.2-1.6l-1.1,1l-0.5-1
		l-2.3,0.2l0.5-1.7l-2.7-2.5l-6.4-2.6l-4.7-1.7l-1.1,2.7l-0.8,2.8l0.3,1.6l0.3,2.7c0,0-1.4,2.8-1.4,3.3c0,0.5,0.9,2.1,0.9,2.1l5,5.5
		c0,0,4.2,5.2,3.9,5.7c-0.2,0.5,1.9,2.9,1.9,2.9l0.8,3.5l-0.6,1.5l1.8-1.5l2.9,0.1L257.8,116.2z"/>
	<path class="st6" d="M244.5,176l-3.4,4.9l0.3,1.2l2.2-1.1l1.1-0.9v3.8l1.2,5.1l1.4,2.1c0,0,2.2-0.3,1.9-0.6s1.1-4.6,1.1-4.6l1-4.6
		l0.5-3.3l-2.6-1l-2.8-1l-1.7-0.4L244.5,176z"/>
	<polygon class="st6" points="256.3,227.6 253.8,240.2 252.4,240.2 248.1,237.4 246.2,227.3 249.1,227.3 	"/>
	<path class="st7" d="M264.6,117.6c0,0,2-0.8,2.5-2.3c0.5-1.5,0.6-2.8,0.6-2.8l2.1-0.7l1.7-1.7l0.3-3.1l-2.7-4.5l-0.6-0.8l2-2.6
		c0,0,1.5-3.9,1.3-4.5c-0.2-0.6-1.7-3.4-1.7-3.4l-2.2-1.9l0.6-3.6l-0.8-4.2l-2.3-2l-2.7-0.6h-4h-0.5l0.5-1.4l-0.4-2.4l-2.4-2.2
		l-3.5-1.1l-4.9,0.7l-2.2,1.1l-3.1,3.2l-1.1,2.6l0.7,2.4l2.6,1.6l2.8,1.3L252,86l3,2.2l1.1,1.4v1.3l0.9,0.4l0.8-0.6v1.7l1.5-1.7
		l1.1,0.6l1.5,1.7v2.2l-0.8,2.3l-1.3,0.6l-1.4,0.4l0.5,0.6l-1.3,5.6l-0.7,4.7l0,3.6l1.9,3.5l2.3,1.2l2.6,0.2L264.6,117.6z"/>
	<polygon class="st8" points="252.7,178 244.8,175.6 245.2,172.3 244.3,173 235.7,172.3 237.5,168.6 238.4,163.8 240.3,149.7 
		240.9,145.3 239.7,145.1 237,144.3 236.1,142.3 236.5,139.1 238.5,135.4 245.3,124.8 250.7,117.3 253.7,115.3 257,115.5 
		259.6,117.7 262,120.8 262.3,122.7 262.5,133.3 262.5,148 262.4,161.9 262.3,174 261.1,173.9 254.1,173.1 253.1,173.2 	"/>
	<polygon class="st9" points="263,226.9 260.2,227.6 247.4,227.6 238.3,226.9 237.4,221.5 237.7,192.3 238.4,172.7 245.2,172.3 
		244.8,175.6 241.9,179.7 241.1,182.1 242.1,182.1 244.8,179.7 244.7,182.5 244.7,185.3 246.4,189.8 247.4,191.6 248.7,191.1 
		249.9,187.8 251.4,181.7 251.9,178 252.7,178 253.1,173.4 255.4,173.2 261.1,173.9 262.3,174 261.3,185.5 262,197.4 262.7,215.2 	
		"/>
	<path class="st10" d="M253.8,241.1l-4.8-2.7l-7.2-2.6c0,0-3.8,0.2-4.2,0.3c-0.4,0.1-3.2,2.3-3.2,2.3l0,2.2l1,2.1l3,0.3H249l3.3-0.3
		l1.1-0.6L253.8,241.1z"/>
	<path class="st4" d="M247.5,94.1c-0.8-0.6-1.7-1.2-2.6-1.8c-0.1-0.1-0.2-0.1-0.3-0.1c-0.1-0.3-0.2-0.5-0.4-0.8
		c-0.2-0.2-0.5-0.1-0.6,0.1c-0.4,0.9,0.3,2,0.9,2.6c0.7,0.7,1.7,1.1,2.6,1.1C247.8,95.2,248.1,94.5,247.5,94.1z"/>
	<polygon class="st11" points="241.9,90.3 243.5,96.1 249.3,96.5 250.3,93 250.6,91.1 	"/>
</g>
<g id="Слой_12">
	<path class="st12" d="M159.3,121l-0.3-4.2l-0.2-6.9l1.7-3.7c0,0,0.8-3,0-3.9c-0.8-1-3-1.5-3-1.5h-2.1l-10.6-5.5l-0.8-0.9l-2.4,2.9
		l-0.4,1.8l0.7,1.9l0.5,1.7l-2.4,5l1.6,0.9l4,0.9l4-0.2l1,5.6c0,0,0.6,3.2,0.6,3.6c0,0.4,0.9,4.5,0.9,4.5l1.8-1l2.4-1l2,0.3
		L159.3,121z"/>
	<path class="st12" d="M121.2,153l-1-3.4l0.1-3.6l-1.4,0.6l-4.2,0.6l-1.5,0.4l0.4,1.1l2.4,0.4l-0.3,0.9l-2.4,2.8
		c0,0-0.6,6.3-0.6,6.7c0,0.4,0.2,2.8,0.2,2.8l0.4,1l1.1-1.1l1.2-3.4l1-3.1l1.3-0.5l2-0.4l1.3-0.9L121.2,153z"/>
	<polygon class="st13" points="160.9,117.2 161.9,116.3 163.8,111.1 165.5,104.4 166.3,100.5 166.1,94.9 164.3,91.2 160.9,88.8 
		156.1,87.8 147.8,88.7 143.7,89.6 140.8,88.4 140.1,87.8 140.1,89.3 141.2,91.3 144.4,94.8 148.6,96.9 155.5,100.7 157.6,100.7 
		160.3,101.5 161,103.2 160.5,106.6 159.3,109 158.9,111.3 159,116 159.7,117.5 	"/>
	<path class="st14" d="M164.5,152.2h-25.2l-13.5-0.1l-3.3,2.5l-1.8-2.5l-0.4-6l2.5-0.2l12.1-1.1l7.2-0.6l2.4-2.6l2.8-6.1l3-8.3
		l2-4.1l3.5-1.7l3.6,0.3l1.8,2.5c0,0,1.5,3.5,2,6.1c0.4,2.6,1.1,8.9,1.1,8.9l0.2,8.7L164.5,152.2z"/>
	<polygon class="st2" points="125.8,166.2 117.7,165.9 109.9,167.4 104.5,170.6 102,174.6 101.2,178.2 101.3,186.9 101.3,210.3 
		101.2,219.4 104.5,220.5 109.3,221.4 113.3,220.6 110.4,214.3 108.6,203.5 109.3,192.1 112.5,183.2 115.8,177.5 119.5,172.6 
		123.5,169 126.1,166.7 	"/>
	<path class="st15" d="M101.2,219.4c0,0-7.7,5.1-8.1,5.4c-0.4,0.4-2.3,2-2.3,2v2.4l3.3,1l8.9,0.6h11.3l4.6-1.2l-3-4.5l-2.6-4.4
		c0,0-2.4,0.4-2.8,0.8c-0.4,0.3-4.7-0.6-5.3-0.8S101.2,219.4,101.2,219.4z"/>
	<path class="st16" d="M163.8,160.6"/>
	<path class="st17" d="M163.1,160.6l2.1-5.6l0.3-2.9l-7,0.1l-25,0.2l-7.8-0.4c0,0-2.9,0.8-3.3,2.5c-0.4,1.8-0.1,4.7,0.4,6
		c0.5,1.3,3.2,6.2,3.2,6.2l5.5-3.4c0,0,6.7-3,6.7-2.8s7.3-1.5,7.3-1.5l6.7-0.5l5,0.5c0,0,4.1,1.1,4.5,1.1S163.1,160.6,163.1,160.6z"
		/>
	<path class="st4" d="M147.7,104.7c-0.3-0.4-0.7-0.7-1.1-0.9c-0.4-0.4-0.8-0.6-1.3-0.8c-0.3-0.2-0.5-0.4-0.8-0.5
		c-0.2-0.1-0.4-0.1-0.6-0.1c0,0,0,0,0,0c-0.1-0.3-0.6-0.2-0.6,0.1c0,0.2,0,0.5,0.1,0.7c0,0.1,0,0.2,0.1,0.2c0.4,1.2,1.7,2.2,2.8,2.5
		c0.3,0.1,0.7-0.1,0.8-0.4C147.6,105.4,148,105.1,147.7,104.7z"/>
</g>
<g id="маски">
	<polygon class="st1" points="152.3,119.2 147.1,119.8 142.9,118.2 141.1,114.6 140.8,109.5 140.2,108.1 142.3,108.8 145.7,109.5 
		150,109.5 150.2,111.8 151.4,117.2 	"/>
	<path class="st1" d="M254.7,108.1l-0.8-2.7l0.6-5.7l0.5-2.2l-1,0.3l-5.2,0.3l-7.8-1.3l-2.2-0.6l-0.4,2l1.7,4.4l2.7,4.2
		c0,0,1.8,2.1,2.4,2.5c0.6,0.4,2.8,1.1,2.8,1.1l2.6-0.2l3.1-1.4L254.7,108.1z"/>
	<path class="st1" d="M33.9,82.8c0,0-1.1-4.5-1.2-4.7c0-0.2-0.7-6.9-0.7-6.9l-2.9,0.5l-5.8-0.8l-5.6-1.3l-0.1,1l0.1,2.1l2.2,3.5
		l2.5,3.4l1.6,2.5l2.2,1.1l2.6,0.8h2.6L33.9,82.8z"/>
</g>
<g id="Слой_3">
	<path class="st18" d="M172.6,164.5c12.5,7.4,20.9,21,20.9,36.6c0,23.5-19,42.5-42.5,42.5c-23.5,0-42.5-19-42.5-42.5
		c0-23.5,19-42.5,42.5-42.5c4.4,0,8.7,0.7,12.7,1.9"/>
	<circle class="st19" cx="151.1" cy="201.2" r="15.5"/>
	<path class="st19" d="M195.1,126l-1.5,5.7c-0.2,1-1.2,1.5-2.2,1.3l-9.8-2.6l-9,34.1c-2.8-1.6-5.7-3-8.8-3.9c0,0,8.6-34,8.7-34.4
		l1.5-5.7c0.3-1,1.3-1.5,2.2-1.3l17.6,4.6C194.8,124,195.4,125,195.1,126z"/>
	<path class="st20" d="M165.6,152.1c0,0-22.3,1.1-36.3,0c-14-1.1-3.1,14.6-3.1,14.6"/>
	<path class="st20" d="M155.8,100.8c0,0-16.4-6.6-15.7-13c0,0,2.6,2.6,5.2,1.6c2.6-1,24.7-7,20.6,13.3c0,0-3.6,13.9-4.6,14.6
		s-2.3-0.6-2.3-0.6l-0.2-6.9C158.8,109.8,165.4,99.3,155.8,100.8z"/>
	<path class="st20" d="M152.7,119.1c0,0,6.8-5.2,5.7-9"/>
	<path class="st20" d="M143.6,94.6c0,0-2.4,3.2-2.3,4.1s1.6,3.6,1.2,4.8c-0.4,1.1-2.3,4.2-2.3,4.2s3.6,2.9,9.9,1.9
		c0,0,3.5-7.8,6.4-8.8"/>
	<path class="st20" d="M159,103.5c0,0-2.8,1.6-2.6,3.6"/>
	<line class="st20" x1="159.4" y1="105.1" x2="157.6" y2="105.1"/>
	<path class="st20" d="M143.6,101.8c0,0,3.2,0.3,4.3,3.6"/>
	<path class="st20" d="M144.1,98.3c0,0,3.6,0.3,4.5,2.6"/>
	<path class="st20" d="M152.7,119.1c-10.5,2.6-11.8-3.2-11.7-4.8c0-0.5,0-1.2-0.2-2.1c-0.3-2-0.8-4.6-0.8-4.6"/>
	<path class="st20" d="M150,109.5c0,0,0.9,9.5,2.7,9.5"/>
	<path class="st20" d="M146.4,113.7c0,0-4.8-0.5-5.7-2.4"/>
	<path class="st20" d="M146.4,116.3c0,0-5.3-0.3-5.4-2"/>
	<path class="st20" d="M122.1,153.7c-2.7-0.9-1.8-7.7-1.8-7.7s18.7-1.7,21.8-2c2.4-0.2,6.5-11.7,8.2-17c0.7-2.2,2.2-4.2,4.3-5.4
		c11.6-6.4,9.8,29.8,9.8,29.8"/>
	<path class="st20" d="M144.5,152.4c0,0,7.9-1,8.8-4.8c1-3.8,1-8.4,1-8.4"/>
	<path class="st20" d="M159.4,117.5c0,0-0.2,3,0,4.1"/>
	<path class="st20" d="M151.6,119.5c0,0,0.4,1.9,0.6,3.5"/>
	<path class="st20" d="M119.7,146.6c0,0-5.2,0.2-6.4,1s1.6,2,2.8,1.6"/>
	<path class="st20" d="M119.7,146.6c0,0-6.2,4-6.6,7.1c-0.4,3.1-1.1,8,0,9.5c1.1,1.5,2.7-6.8,3.3-7.6c0.6-0.8,3.2-0.3,4.6-1.8"/>
	<path class="st20" d="M125.8,166.2c0,0-24.9-3.9-24.6,13.4c0.3,17.3,0,39.7,0,39.7s7.9,3.1,11.3,1.7"/>
	<line class="st20" x1="120.8" y1="231" x2="88.3" y2="231"/>
	<path class="st20" d="M101.2,219.4c0,0-3.2,1.7-6,3.8c-4,2.9-7.3,6.5-0.1,7c12.2,0.9,23.2,1.3,23.9-1.2"/>
	<path class="st20" d="M98.4,227.9c0,0-0.6-4.4-2.6-5.2"/>
	<path class="st20" d="M102.4,226c0,0-1-4.6-3.5-5.3"/>
	<ellipse cx="144.9" cy="104" rx="0.8" ry="1.4"/>
</g>
<g id="Слой_5">
	<path class="st20" d="M37.1,66.6c0,0,1.7-3.9-2.1-6.2s-6.7-5.1-6.4-7.5s-7.2-2.6-7-4.3s1.1-7.8,8.2-8.6c5.7-0.7,8.7,4.5,10.3,5.2
		c1.1,0.5,5.4,4.2,4.2,7.9c-1.1,3.7,1.1,6.7,2.1,9.7c1.1,3.4,3.6,6,1.3,9.7c-1.2,2.1-3.2,4-4.8,5.3c-1.1,0.9-2.7,0.5-3.2-0.8l-1.3-3
		"/>
	<path class="st20" d="M35.7,67.8"/>
	<path class="st20" d="M36.3,68.4c0,0,4.7-3.7,4.5,0.9c-0.2,4.7-2.9,4.3-3.5,4.1c-0.6-0.2,2.1,4.4-0.6,6.8
		c-2.6,2.4-5.3,5.9-12.5,1.8c0,0-6.1-9.5-6.4-10.4s0-2.2,0-2.2s11.5,3.9,15.3,1.1c0,0,1.3-3.8,3.4-3.7"/>
	<path class="st20" d="M33.9,82.4c0,0-2.1-6.1-1.8-11.2"/>
	<path class="st20" d="M18.8,73.3c0,0,4.7,1.6,8.3,1.6"/>
	<path class="st20" d="M21.3,77.5c0,0,5.2,0.7,6.8,0.5"/>
	<path class="st20" d="M22.3,49.5c0,0-2.9,6.4-2.1,9.1s2.6,5.2,1,7.4c-1.5,2.2-3.5,3.6-3.5,3.6"/>
	<path class="st20" d="M23.5,59.6c0,0,2.7,0.4,5.2,3"/>
	<path class="st20" d="M23.5,64.3c0,0,3-0.1,4.7,2.1"/>
	<ellipse cx="25.6" cy="66.4" rx="0.8" ry="1.9"/>
	<path class="st20" d="M31.6,90.5c1.1-1.9-0.4-6.5-0.4-6.5"/>
	<path class="st20" d="M39.7,76.7c0,0-0.1,10.5,0.1,12.5"/>
	<path class="st20" d="M30.3,158.8l-11.6,0.5c0,0,2.2-39,1.8-41.8c-0.5-2.9,9.5-36.8,18.7-28.1c7.4,6.9,7.1,18.8,6.7,23.3
		c-0.1,1.5-0.1,2.9,0,4.4l3.2,41l-7.5,0.3"/>
	<path class="st20" d="M31.2,107.3c0,0,0.5,44.7,0,49c-0.5,4.3-2,6.4-2,6.4l11.2,2.5c0,0,2.2-39.3,0.4-47.7"/>
	<path class="st20" d="M20.1,159.3l2.6,13.3l3.2,64.6c0,0,18.5,3,19.7,0c1.1-3-1.7-41.6,0-53.9s4.4-21.5,1.9-25"/>
	<path class="st20" d="M25.6,236.8c0,0-14.3-1.3-16.3,0.5c-1.1,1-2.1,4.5,2.8,5.8c4,1.1,23.2,0.4,30,0.1c1.3-0.1,2.4-1.1,2.4-2.5
		v-2.3"/>
	<path class="st20" d="M30.2,162.9c0,0-2.2,17.8,0,17.6s8.6-7.7,9.7-15.2"/>
	<path class="st20" d="M29.6,162.9c0,0-4.8,8.8-3.5,8.8s3.5-2.3,3.5-2.3"/>
	<path class="st21" d="M38.8,69.4c0,0-0.6,0.2-1.2,0.5c-0.5,0.3-1,0.6-1,0.9"/>
	<line class="st21" x1="38.8" y1="71.2" x2="37.6" y2="70"/>
	<path class="st21" d="M24.7,42.5c0,0,7.3,4.2,5.1,4.4S24.7,42.5,24.7,42.5z"/>
	<path class="st21" d="M28.1,40.4c0,0,6.9,2.7,6,4.3C33.3,46.4,28.1,40.4,28.1,40.4z"/>
	<path class="st21" d="M29.6,178.3c0,0,1.5-6.1,1.7-7.5"/>
	<path class="st21" d="M30,180.4c0,0,2.7-5.8,3.2-8.4"/>
	<path class="st21" d="M32.8,178.3c0,0,2.5-5.1,2.6-6"/>
</g>
<g id="Слой_6">
	<path class="st20" d="M255.9,90.5c0,0,1.3-3.7-9.7-6.6s-0.9-11,0.9-11.4c1.6-0.4,13.8-2.5,11.4,6.6c0,0,13.1-3.7,9.3,10
		c0,0,8.2,4.5,0.6,12.4c0,0,8,9-0.8,10.9c0,0,0,7.3-6.9,4.8c-6.5-2.4-3.6-11.6-2.9-13.6c0.1-0.3,0.2-0.6,0.2-0.9l0.8-3.7"/>
	<path class="st20" d="M253.6,173.2l8.7,0.8c0,0,0.4-48.8,0-51.3c-0.5-3-6.6-12.8-13.1-3.6c-4.9,7-9.9,15-11.8,18.1
		c-0.7,1.2-1.2,2.6-1.3,4c-0.1,1.8,0.4,3.8,3,3.9l1.3,0c0.4,0,0.7,0.3,0.7,0.7c-0.3,3.2-2.7,19.5-3.5,22.4c-0.8,3.1-1.5,4.3-1.5,4.3
		l8.7,0.5"/>
	<path class="st20" d="M257.2,105.9c0,0-8.1,8.8-14,1.6c-2.7-3.3-3.9-5.9-4.3-7.9c-0.6-2.3-0.1-3.5-0.1-3.5s10.5,3.4,16.1,1.3
		c0,0-2.1,7.9-0.4,10.2"/>
	<path class="st20" d="M245.6,101.5c0,0-5.9-0.6-6.7-1.9"/>
	<path class="st20" d="M245.6,104.5c0,0-4.4,0.5-5.2-1.3"/>
	<path class="st20" d="M254.3,97.5c0,0,2-6.8,3.5-6.8"/>
	<path class="st20" d="M257.8,92.8c0,0,0.6-2.7,2.5-1.5c1.9,1.2,2.8,6.7-1.9,7.2"/>
	<path class="st20" d="M259.8,93.4c0,0-2.1,2-2,2.2"/>
	<line class="st20" x1="259.8" y1="94.9" x2="258.8" y2="94.7"/>
	<path class="st20" d="M243,86.4c0.4,0.1,5.2,1.3,5.5,2.4"/>
	<path class="st20" d="M242.2,83c0,0-1.7,3.1-1.9,4.5c-0.2,1.4,0.6,2.6,0.5,4.7s-1.4,4-1.4,4"/>
	<polygon class="st20" points="241.9,90.2 243.4,96.1 249.5,96.5 250.6,91.3 	"/>
	<line class="st20" x1="257.2" y1="90.9" x2="250.6" y2="91.3"/>
	<path class="st20" d="M243.6,91.3c0,0,2.9,1,4.3,3.4"/>
	<ellipse cx="245.4" cy="93.3" rx="0.9" ry="1.6"/>
	<path class="st20" d="M250.3,110.3c0,0,2.8,4.3,1,6.5"/>
	<path class="st20" d="M238.4,172.7c0,0-2.3,54-0.1,54.2c0.7,0.1,3.5,0.3,6.9,0.4c7.3,0.3,17.7,0.5,17.7-0.4
		c0.1-1.4-1.3-35.9-1.6-39.6c-0.3-3.6,0.9-11.1,0.9-13.3"/>
	<line class="st20" x1="248.1" y1="237.4" x2="246.2" y2="227.3"/>
	<path class="st20" d="M253.8,240.6c0-0.4,2.1-13.1,2.1-13.1"/>
	<path class="st20" d="M253.8,241.1c0,0-9-5.9-14.9-5.2c-5.9,0.7-4.6,6.2-3.4,6.9c1,0.6,12.6,0.2,16.7,0.1c0.8,0,1.5-0.7,1.5-1.6
		V241.1z"/>
	<polyline class="st20" points="250.2,127.9 244.8,175.6 252.7,178 256.5,142.4 	"/>
	<path class="st20" d="M251.9,178c0,0-1.8,12.8-3.9,13.2c-2.1,0.4-3.7-7.6-3.2-9.4c0.5-1.9,1.3-5.8,1.3-5.8"/>
	<path class="st20" d="M244.8,175.6c0,0-5.1,6.9-3.4,6.5c1.7-0.4,3.4-2,3.4-2"/>
	<line class="st21" x1="245.6" y1="188.2" x2="246.4" y2="183.6"/>
	<path class="st21" d="M247.4,191.1c0,0,0.4-5.7,0.4-6.6"/>
	<line class="st21" x1="249.3" y1="189.3" x2="249.3" y2="184.6"/>
</g>
<g id="Слой_4">
	<line class="st22" x1="60.7" y1="153" x2="95.2" y2="153"/>
	<polyline class="st22" points="63.6,156.1 59.8,153 63,149.7 	"/>
	<polyline class="st22" points="93,155.8 96.4,153 93.2,149.7 	"/>
	<line class="st22" x1="195" y1="153" x2="229.6" y2="153"/>
	<polyline class="st22" points="197.9,156.1 194.1,153 197.3,149.7 	"/>
	<polyline class="st22" points="227.3,155.8 230.7,153 227.5,149.7 	"/>
	<g>
		<path d="M202.9,140.2c0.2-0.1,0.4-0.5,0.6-1h0.7v7h-0.9v-4.9h-1.6v-0.7C202.2,140.5,202.7,140.4,202.9,140.2z"/>
		<path d="M207.5,146.7c0.1-0.2,0.1-0.3,0.1-0.4v-0.1c0,0,0,0,0-0.1H207v-1.1h1v1c0,0.4-0.1,0.7-0.2,1c-0.2,0.3-0.4,0.5-0.8,0.5
			v-0.5C207.2,147.1,207.4,147,207.5,146.7z"/>
		<path d="M210.9,145.4c0.2,0.1,0.5,0.1,0.7,0.1c0.5,0,0.9-0.2,1.1-0.5c0.3-0.3,0.4-0.7,0.4-1.1c0-0.5-0.1-0.9-0.4-1.1
			c-0.3-0.3-0.7-0.4-1.1-0.4c-0.3,0-0.6,0.1-0.8,0.2c-0.2,0.1-0.4,0.3-0.5,0.5l-0.8,0l0.5-3.8h3.6v0.8h-3l-0.3,1.9
			c0.2-0.1,0.3-0.2,0.5-0.3c0.3-0.1,0.6-0.2,0.9-0.2c0.6,0,1.2,0.2,1.6,0.6c0.4,0.4,0.7,0.9,0.7,1.6c0,0.7-0.2,1.3-0.6,1.7
			c-0.4,0.5-1.1,0.8-2,0.8c-0.6,0-1.1-0.2-1.5-0.5c-0.4-0.3-0.7-0.8-0.7-1.5h0.9C210.2,144.9,210.5,145.2,210.9,145.4z"/>
		<path d="M220.7,145.2l1.4-4.3h1.2v5.2h-0.8v-4.2h0l-1.4,4.2h-0.9l-1.4-4.2h0v4.2H218v-5.2h1.3L220.7,145.2L220.7,145.2z"/>
	</g>
	<g>
		<path d="M68.5,140.2c0.2-0.1,0.4-0.5,0.6-1h0.7v7h-0.9v-4.9h-1.6v-0.7C67.8,140.5,68.2,140.4,68.5,140.2z"/>
		<path d="M73,146.7c0.1-0.2,0.1-0.3,0.1-0.4v-0.1c0,0,0,0,0-0.1h-0.5v-1.1h1v1c0,0.4-0.1,0.7-0.2,1c-0.2,0.3-0.4,0.5-0.8,0.5v-0.5
			C72.8,147.1,72.9,147,73,146.7z"/>
		<path d="M76.4,145.4c0.2,0.1,0.5,0.1,0.7,0.1c0.5,0,0.9-0.2,1.1-0.5c0.3-0.3,0.4-0.7,0.4-1.1c0-0.5-0.1-0.9-0.4-1.1
			c-0.3-0.3-0.7-0.4-1.1-0.4c-0.3,0-0.6,0.1-0.8,0.2c-0.2,0.1-0.4,0.3-0.5,0.5l-0.8,0l0.5-3.8h3.6v0.8h-3l-0.3,1.9
			c0.2-0.1,0.3-0.2,0.5-0.3c0.3-0.1,0.6-0.2,0.9-0.2c0.6,0,1.2,0.2,1.6,0.6c0.4,0.4,0.7,0.9,0.7,1.6c0,0.7-0.2,1.3-0.6,1.7
			c-0.4,0.5-1.1,0.8-2,0.8c-0.6,0-1.1-0.2-1.5-0.5c-0.4-0.3-0.7-0.8-0.7-1.5h0.9C75.8,144.9,76,145.2,76.4,145.4z"/>
		<path d="M86.2,145.2l1.4-4.3h1.2v5.2H88v-4.2h0l-1.4,4.2h-0.9l-1.4-4.2h0v4.2h-0.8v-5.2h1.3L86.2,145.2L86.2,145.2z"/>
	</g>
</g>
<g id="Слой_7">
	<g>
		<g>
			<line class="st23" x1="11.8" y1="245.7" x2="16.8" y2="245.7"/>
			<line class="st24" x1="26.7" y1="245.7" x2="259.2" y2="245.7"/>
			<line class="st23" x1="264.2" y1="245.7" x2="269.2" y2="245.7"/>
		</g>
	</g>
</g>
</svg>
