<?xml version="1.0" encoding="utf-8"?>
<!-- Generator: Adobe Illustrator 23.1.0, SVG Export Plug-In . SVG Version: 6.00 Build 0)  -->
<svg version="1.1" id="Слой_1" xmlns="http://www.w3.org/2000/svg" xmlns:xlink="http://www.w3.org/1999/xlink" x="0px" y="0px"
	 viewBox="0 0 283.5 283.5" style="enable-background:new 0 0 283.5 283.5;" xml:space="preserve">
<style type="text/css">
	.st0{fill:#BC2739;stroke:#231F20;stroke-width:0.75;stroke-miterlimit:10;}
	.st1{fill:#808184;}
	.st2{fill:#BC2739;stroke:#231F20;stroke-width:0.5;stroke-miterlimit:10;}
	.st3{fill:#F26E2C;stroke:#231F20;stroke-width:0.5;stroke-miterlimit:10;}
	.st4{fill:#BC2839;stroke:#BC2839;stroke-linecap:round;stroke-linejoin:round;stroke-miterlimit:10;}
</style>
<g>
	<g>
		<path class="st0" d="M144.5,108.4c0,0,2.5-12.6,0-18.1c-0.3-0.7-0.8-1.2-1.4-1.7c-1.8-1.3-5.8-4.7-0.8-4.6c6.2,0.1,4.3,0,4.3,0
			h0.1c0,0-1.9,0.1,4.3,0c5-0.1,0.9,3.3-0.8,4.6c-0.6,0.4-1.1,1-1.4,1.7c-2.6,5.5,0,18.1,0,18.1H144.5z"/>
		<path class="st0" d="M158.9,109.9c0,0,4.2-8.3,3.5-12.7c-0.1-0.5-0.3-1-0.7-1.5c-1-1.3-3.1-4.4,0.3-3.4c4.3,1.3,3,0.8,3,0.8l0,0
			c0,0-1.3-0.3,3,0.8c3.5,0.9,0,2.5-1.5,3.1c-0.5,0.2-1,0.5-1.3,0.9c-2.9,3.4-3.6,12.6-3.6,12.6L158.9,109.9z"/>
		<path class="st0" d="M116.5,118.3c0,0-7.3-14.6-13.5-18.9c-0.8-0.5-1.6-0.8-2.4-0.9c-2.4-0.4-8.2-1.5-4.1-4.4
			c5.1-3.5,3.5-2.5,3.5-2.5l0,0c0,0-1.5,1.2,3.5-2.5c4-3,3.3,2.9,2.8,5.3c-0.2,0.8-0.2,1.7,0.1,2.6c2,7.2,13.4,18.9,13.4,18.9
			L116.5,118.3z"/>
		<path class="st0" d="M161.4,201.7c0,0,2.7,16.1,7.4,22c0.6,0.7,1.3,1.3,2,1.6c2.2,1,7.4,3.9,2.6,5.4c-5.9,1.9-4.1,1.4-4.1,1.4
			l-0.1,0c0,0,1.7-0.7-4.1,1.4c-4.7,1.7-2.3-3.7-1.1-5.9c0.4-0.7,0.6-1.6,0.7-2.5c0.2-7.5-7.3-22-7.3-22L161.4,201.7z"/>
		<path class="st0" d="M180.5,189.7c0,0,9.3,13.4,16.1,16.8c0.8,0.4,1.7,0.6,2.5,0.6c2.4,0,8.4,0.4,4.7,3.8c-4.6,4.2-3.1,3-3.1,3
			l0,0c0,0,1.3-1.4-3.1,3c-3.6,3.5-3.6-2.4-3.5-4.9c0-0.8-0.1-1.7-0.5-2.6c-3-6.9-16-16.8-16-16.8L180.5,189.7z"/>
		<path class="st0" d="M116.3,191.7c0,0-13,9.9-16.1,16.7c-0.4,0.8-0.5,1.7-0.5,2.6c0.1,2.4,0,8.4-3.6,4.8c-4.4-4.4-3.1-3-3.1-3l0,0
			c0,0,1.4,1.2-3.1-3c-3.7-3.4,2.3-3.7,4.7-3.7c0.8,0,1.7-0.2,2.5-0.6c6.8-3.3,16.2-16.7,16.2-16.7L116.3,191.7z"/>
		<path class="st0" d="M186.1,129.4c0,0,15-6.6,19.5-12.5c0.6-0.7,0.9-1.6,1.1-2.4c0.5-2.4,2-8.1,4.6-3.9c3.2,5.3,2.3,3.6,2.3,3.6
			l0,0c0,0-1.1-1.5,2.3,3.6c2.8,4.2-3.1,3.1-5.4,2.5c-0.8-0.2-1.7-0.2-2.6,0c-7.3,1.6-19.6,12.5-19.6,12.5L186.1,129.4z"/>
		<path class="st0" d="M169.4,115.8c0,0,10.2-13.7,11.2-21.5c0.1-1,0-1.9-0.3-2.7c-0.8-2.4-2.4-8.4,2.2-5.9c5.7,3.1,4,2.1,4,2.1
			l0.1,0c0,0-1.8-0.8,4,2.1c4.7,2.4-1.2,4.4-3.6,5.1c-0.8,0.2-1.7,0.7-2.4,1.3c-5.8,5.3-11.3,21.4-11.3,21.4L169.4,115.8z"/>
		<path class="st0" d="M104.9,134.4c0,0-8.8-9.3-14.8-10.4c-0.7-0.1-1.5,0-2.2,0.2c-2.1,0.7-7.2,2-4.2-2c3.6-5,2.5-3.5,2.5-3.5l0,0
			c0,0-1,1.6,2.5-3.5c2.8-4.1,3.3,1.1,3.3,3.3c0,0.7,0.2,1.5,0.6,2.1c3,5.3,14.7,10.4,14.7,10.4L104.9,134.4z"/>
		<path class="st0" d="M132.2,110.7c0,0-5.2-7.7-5-12.1c0-0.5,0.2-1.1,0.5-1.5c0.8-1.4,2.6-4.8-0.8-3.3c-4.1,1.8-2.9,1.2-2.9,1.2
			l0,0c0,0,1.3-0.5-2.9,1.2c-3.4,1.4,0.3,2.5,1.8,2.9c0.5,0.1,1,0.4,1.4,0.7c3.3,3,5.1,12.1,5.1,12.1L132.2,110.7z"/>
		<path class="st0" d="M113.1,121.8c0,0-7.5-5.6-8.8-9.8c-0.2-0.5-0.2-1.1-0.1-1.6c0.3-1.6,0.9-5.4-1.8-2.9
			c-3.3,3.1-2.3,2.1-2.3,2.1l0,0c0,0,1.1-0.9-2.3,2.1c-2.7,2.4,1.1,2.3,2.7,2.1c0.5,0,1.1,0,1.6,0.2c4.1,1.7,8.8,9.7,8.8,9.7
			L113.1,121.8z"/>
		<path class="st0" d="M194.1,143.8c0,0,8-4.8,12.4-4.4c0.5,0.1,1.1,0.3,1.5,0.6c1.3,0.9,4.6,2.8,3.4-0.6c-1.6-4.2-1.1-3-1.1-3l0,0
			c0,0,0.4,1.3-1.1-3c-1.2-3.4-2.5,0.2-3,1.7c-0.2,0.5-0.4,1-0.8,1.4c-3.1,3.1-12.4,4.4-12.4,4.4L194.1,143.8z"/>
		<path class="st0" d="M189.9,177.6c0,0,8.9,2.8,11.5,6.4c0.3,0.4,0.5,1,0.6,1.5c0.2,1.6,0.9,5.3,2.7,2.1c2.1-4,1.5-2.7,1.5-2.7l0,0
			c0,0-0.7,1.2,1.5-2.7c1.8-3.2-1.8-1.8-3.2-1.1c-0.5,0.2-1,0.4-1.6,0.3c-4.4-0.3-11.5-6.4-11.5-6.4L189.9,177.6z"/>
		<path class="st0" d="M104.2,175.7c0,0-12.4,3.1-16.3,7.8c-0.5,0.6-0.8,1.3-0.9,2c-0.4,2.1-1.7,7.3-3.8,2.7
			c-2.6-5.6-1.9-3.9-1.9-3.9l0-0.1c0,0,0.9,1.7-1.9-3.9c-2.2-4.5,2.6-2.3,4.5-1.3c0.7,0.3,1.4,0.6,2.1,0.6
			c6.1-0.1,16.3-7.7,16.3-7.7L104.2,175.7z"/>
		<path class="st0" d="M134.9,201.8c0,0-5.5,11.6-4.3,17.5c0.1,0.7,0.5,1.4,1,2c1.4,1.7,4.5,6-0.3,4.7c-6-1.6-4.2-1-4.2-1l-0.1,0
			c0,0,1.8,0.4-4.2-1c-4.9-1.1-0.1-3.5,1.9-4.3c0.7-0.3,1.3-0.7,1.8-1.3c3.8-4.7,4.4-17.5,4.4-17.5L134.9,201.8z"/>
		<path class="st0" d="M99,156.7c0,0-11.5,2.1-16.5-0.3c-0.6-0.3-1.1-0.8-1.5-1.3c-1.2-1.6-4.2-5.4-4.2-0.8c0,5.7-0.1,3.9-0.1,3.9
			l0,0.1c0,0,0.1-1.7-0.1,3.9c-0.1,4.6,3,0.9,4.2-0.7c0.4-0.5,0.9-1,1.6-1.3c5.1-2.3,16.5,0.2,16.5,0.2L99,156.7z"/>
		<path class="st0" d="M195.1,155.2c0,0,9.4-2.2,13.6-0.5c0.5,0.2,1,0.6,1.3,1c1,1.3,3.7,4.2,3.5,0.5c-0.3-4.6-0.1-3.2-0.1-3.2l0,0
			c0,0,0,1.4-0.1-3.2c-0.1-3.7-2.5-0.6-3.5,0.7c-0.3,0.5-0.7,0.9-1.2,1.1c-4.1,2.1-13.6,0.6-13.6,0.6L195.1,155.2z"/>
		<path class="st0" d="M146.3,204.6c0,0,2,9.1,0.3,13.1c-0.2,0.5-0.6,0.9-1,1.3c-1.2,1-4.1,3.5-0.5,3.4c4.5-0.2,3.1-0.1,3.1-0.1l0,0
			c0,0-1.4,0,3.1-0.1c3.6,0,0.6-2.4-0.7-3.4c-0.4-0.3-0.8-0.7-1.1-1.2c-2-4-0.3-13.1-0.3-13.1L146.3,204.6z"/>
		<path class="st0" d="M121.7,197.3c0,0-2.4,9-5.9,11.7c-0.4,0.3-0.9,0.5-1.5,0.6c-1.6,0.3-5.3,1.2-2,2.8c4.1,2,2.8,1.4,2.8,1.4l0,0
			c0,0-1.2-0.7,2.8,1.4c3.2,1.7,1.7-1.9,1-3.3c-0.2-0.5-0.4-1-0.4-1.6c0.1-4.4,5.8-11.8,5.8-11.8L121.7,197.3z"/>
		<path class="st0" d="M167.9,199.2c0,0,5.8,7.2,6.1,11.7c0,0.5-0.1,1.1-0.4,1.6c-0.7,1.4-2.2,5,1,3.3c4-2.1,2.8-1.5,2.8-1.5l0,0
			c0,0-1.2,0.6,2.8-1.5c3.2-1.6-0.5-2.5-2.1-2.7c-0.5-0.1-1.1-0.3-1.5-0.6c-3.5-2.7-6.1-11.6-6.1-11.6L167.9,199.2z"/>
		<circle class="st1" cx="147.2" cy="156.2" r="48.7"/>
		<circle class="st2" cx="163.1" cy="134.4" r="6.9"/>
		
			<ellipse transform="matrix(0.9049 -0.4257 0.4257 0.9049 -50.5179 75.3044)" class="st2" cx="143.2" cy="150.7" rx="3.3" ry="3.9"/>
		<circle class="st3" cx="181.3" cy="148.7" r="6.5"/>
		<ellipse class="st2" cx="152.6" cy="163.1" rx="2.7" ry="3.3"/>
		<circle class="st2" cx="127.7" cy="142.3" r="5.7"/>
		<circle class="st3" cx="143.7" cy="122.5" r="4.1"/>
		<ellipse class="st2" cx="172.6" cy="178" rx="4.9" ry="5.4"/>
		<ellipse class="st2" cx="184.5" cy="165.7" rx="3.2" ry="3.8"/>
		<circle class="st3" cx="119.5" cy="171.6" r="6.4"/>
		<circle class="st2" cx="137.5" cy="187.8" r="2.6"/>
		<circle class="st3" cx="114" cy="129.2" r="2.6"/>
		<ellipse class="st2" cx="109.6" cy="154.3" rx="4.4" ry="5.7"/>
		<ellipse class="st2" cx="161.5" cy="118.3" rx="3.6" ry="4.3"/>
		<circle class="st3" cx="152.6" cy="193" r="4.1"/>
	</g>
	<polygon class="st4" points="89.5,89.6 87.4,79.8 82.6,84.1 66.5,66.3 60.8,71.4 76.9,89.2 72.6,93.1 82.1,96.2 91.5,99.3 	"/>
</g>
</svg>
