<?xml version="1.0" encoding="utf-8"?>
<!-- Generator: Adobe Illustrator 22.1.0, SVG Export Plug-In . SVG Version: 6.00 Build 0)  -->
<svg version="1.1" xmlns="http://www.w3.org/2000/svg" xmlns:xlink="http://www.w3.org/1999/xlink" x="0px" y="0px"
	 viewBox="0 0 283.5 283.5" style="enable-background:new 0 0 283.5 283.5;" xml:space="preserve">
<style type="text/css">
	.st0{fill:#BD222E;}
	.st1{fill:#662227;}
	.st2{fill:#FCD4B6;}
	.st3{opacity:0.6;fill:#ED7B7A;}
	.st4{fill:none;stroke:#000000;stroke-linecap:round;stroke-linejoin:round;stroke-miterlimit:10;}
	.st5{fill:none;stroke:#000000;stroke-width:2;stroke-linecap:round;stroke-linejoin:round;stroke-miterlimit:10;}
	.st6{fill:none;stroke:#000000;stroke-width:1.7344;stroke-linecap:round;stroke-linejoin:round;stroke-miterlimit:10;}
	.st7{fill:none;stroke:#000000;stroke-width:0.75;stroke-linecap:round;stroke-linejoin:round;stroke-miterlimit:10;}
	.st8{fill:none;stroke:#000000;stroke-miterlimit:10;}
</style>
<g id="Слой_1">
</g>
<g id="Слой_5">
	<path class="st0" d="M190.5,259.4h-83.3v-17.5l0.7-38.6l0.9-38.4c0,0,0.5-15.6,0.9-16.7c0.3-1.1,2.3-5.2,2.3-5.2l3.5-4.3l7.5-2.4
		h3.5l19.9,11.2l7.2-1.1l1.8,1.7l6-2.1c0,0,5.5-6.8,5.8-7.4c0.3-0.6,2.6-7.5,2.6-7.5l1.4-5.5l5.2-1.5l7-2.4l3.4-0.3
		c0,0,3.7,0.9,3.7,1.4s2.3,3.6,2.8,4.6c0.5,1,2,4.5,2.4,6.6c0.4,2,1.3,11.4,1.3,12.6s-0.6,22.3-1,27.2s0.1,3.7-0.4,4.9
		c-0.5,1.2-0.4,0.6-0.5,1.2s-0.1,0.6-0.1,0.6s0.1,11.8-0.9,13.3s-1,6.1-1,6.1l-0.8,2l-3.1,4.4l0.6,25.7L190.5,259.4z"/>
	<path class="st1" d="M162.3,104.1l3.1-3.4l3.4-2.8l3.2-5.3l2.1-5l0.9-3.4l0.2-3.2l2.4-4.3l2.7-4.6c0,0,0.7-2.5,0-4.5
		c-0.7-2.1-3.5-6.6-3.5-6.6l-2.7-2.7l-3.3-2.4l-3.8-1.9l-2-1.7l-1.7-2.8c0,0-1.8-6.8-1.5-7.8c0.3-1,0-7.3,0-7.3l-1.4-3.3l-4.8-3.7
		l-3.1-1l-2.3,0.1l-5.1,1.2l-7.1,0.3l-7.1-1.3l-7.3-2.2l-4.3-0.5l-4.1,0.6l-5.7,3.2l-4.4,5.8l-0.8,2.2l-2.5,1.2l-2.8,1.9l-3.7,4.8
		l-2.8,6.4v2.8l0.9,4.3l0.3,3.5l-1.2,3.8l-3.1,4.9l-2.2,4l-0.7,5.1L87,81l3.2,1.6l1.8,1.6l1.2,2.2l1.3,3.8l2,2.7l2.4,0.7l1-0.8
		l1.5-2.5l2.8,0.3l2.3,1.2l0.6-20.4c0,0,5.4-8.3,5.2-8.6c-0.2-0.3,3.9-5.2,4.1-5.7s15.7-0.9,15.7-0.9s7.8,3.8,7.8,4
		c0.1,0.3,9.3,8.2,9.3,8.2l10,16.1l1.8,9.7L162.3,104.1z"/>
	<path class="st2" d="M153.4,146.4l-7.6,3.2l-7.3,4.6l-4.5-4.4c0,0-7.5-8-7.6-9.6c-0.1-1.6-0.7-3.9-0.7-3.9l0.7-1.5l1.7-0.7l1.1,0.1
		l1.8,2.1v-1.5l0.7-2.9l0.5-0.7l2.9,0l2,1l0.2-2.2l0.9-1l2.6,0.4l1.4,1l-2.5-7.5l-8.1-3.2l-8.3-4.5l-8.8-9.3l-2.2-3.3l-0.8,0.4
		l-5.8-2.7l-4.2-3.8l-1.6-4.3l1.5-2l1.4,0l3.7,1.5l-1.3-2.5l-3-4l0.7-3.6c0,0-0.8-4.1-1.2-5.9c-0.4-1.9-0.7-6-0.7-6s0.5-2.2,0.6-2.3
		c0.1-0.2,3.4-2.5,3.4-2.5s1.1-0.4,1.6-1.2c0.6-0.8,1.1-1.3,1.2-2.7c0.1-1.4,0.4-6.1,0.4-6.1l1.6-4c0,0,2-3.7,2.4-3.8
		s1.1-2.3,1.1-2.3l0.1-3l0.7-0.5l5.4-0.9l4.1,0.9l2.7,1.4l0.3,2.4l1.7,4.3l2.3,2.7l2.6,1.7l3.3,0.3l4.2-0.2c0,0,3.8,1.5,4.1,1.8
		s1.4,2.1,1.5,2.4c0.1,0.2,1.8,4.6,2.3,5.1c0.5,0.5,1.6,1.3,1.6,1.3s2.3,0.8,2.8,0.9c0.5,0.1,3.1,0.5,3.1,0.5l2.1,0.6l1.7,1.4
		l0.6,1.9l-0.3,2.1l2.2-2.2l2.9-0.2l1.4,0.9l1.5,2.1l1.2,3.4l-0.1,2.2l-0.9,2.3l-1.7,2.2l-2.8,2.3l0.7,4.8l-0.6,6.6l-2.8,9.4l0,4.6
		l1.1,7.3l1.3,3.6l1.4,2.3l1.6,1.6l1.6,0.8l2.2,0.2l0.9-0.1l-1.8,5.6l-3,7.9l-3.1,4.8l-4.7,3.5l-3.7,0.7h-1L153.4,146.4z"/>
	<path class="st1" d="M108.3,78.9l4.3-4.2c0,0,3.4-3.9,3.5-4.9c0.1-1,0-1.4,0-1.4l-1.8-0.3l-2.9,1.8l-2.3,3l-0.9,3.9V78.9z"/>
	<polygon class="st1" points="136.3,67.3 131.2,66.2 126.8,64.7 125.3,63.6 125.3,62.8 126.9,61.9 130.8,61.9 133.5,63.5 136,65.6 	
		"/>
	<polygon class="st3" points="143,112.7 143,109.5 141,104.1 137.4,101 134.9,100.2 132.5,100.2 131.3,102 131.2,104.1 132.8,106.6 
		134.9,107.9 136.2,108.4 138.3,112.3 139.1,113.8 140.7,114.5 142.4,113.7 	"/>
</g>
<g id="Слой_3">
	<path class="st4" d="M100.1,92.8c0,0-4.4,3-6.5-5.1s-7.4-3.9-7.2-8.9c0.2-5.1,3.3-10.3,6-14.5S92.6,56,92,52.5
		c-0.5-3.5,9.5-26.3,20.7-10.9c0,0,2.5,2.9-1.2,7c-2.5,2.8-3.8,6.6-3.6,10.4c0,0.1,0,0.1,0,0.2c0.4,5.3-4,6.1-5.6,7.2
		c-1.6,1.1-2.1,5.5-0.2,10.9c1.9,5.5-0.5,6.5,0,7.9s3.5,4.6,3.5,4.6s0.5,1.4,1.5,3.6c3,6.7,10.4,20.6,22.5,25.6
		c16.1,6.7,16.3,7.9,26.6-4.6c0,0,4.7-5.7,7-14.9c1.1-4.3,1.6-9.5,0.9-15.1c0,0,7.7-4,4.9-10.9s-7.2-4.6-8.2-2.3
		c0,0,2.6-4.9-5.4-5.8c-8.1-0.9-6.7-3.9-9.1-8.4s-7.5-3.3-10.7-3c-3.2,0.4-8.4-4.7-8.8-9.6c-0.4-4.9-12.2-5.4-13.8-2.1"/>
	<path class="st4" d="M112.7,103.4c0,0-9.6-2.5-11.9-8.1s2.6-6.7,5.9-3"/>
	<path class="st4" d="M104.1,35.6c0,0,5.3-16.1,22.4-10.2s21.9,0.2,25.9,1.1c4,0.9,10,3.3,9.6,12.1c-0.4,8.8,0.7,14,6.8,16.5
		c6.1,2.5,15.1,12.3,10.3,19.3s-4,5.5-4.2,9.6c-0.1,3.7-5.1,14-7.7,15.4c-2.6,1.4-6,6-6,6s-0.8,23,10.7,20.1
		c11.6-2.9,16.3-9.4,22.4,4.5s-0.5,69.7-2.1,71.8c-1.6,2.1-8.2,20.8-32.6-8.6l-21.4-39.4c0,0,14.6-8.6,14.9-7.4s20.8,38.4,24.5,39.8
		"/>
	<path class="st4" d="M136.9,67.6c0,0-16.4-3.3-10.7-5.3C133.3,59.9,136.9,67.6,136.9,67.6z"/>
	<path class="st4" d="M108.3,79.2c0,0,8.6-8.1,8.1-10.3C115.9,66.6,108.3,70.2,108.3,79.2z"/>
	<path class="st4" d="M118,73.7c0,0,5.8,3,5.1,10.7s-0.7,8.4-0.7,8.4s4.9,1.4,6.5,0"/>
	<path class="st4" d="M132.8,86.3c0,0,4.7,1.4,4,4.6"/>
	<line class="st5" x1="129.7" y1="75.7" x2="137.4" y2="78.2"/>
	<line class="st6" x1="116.4" y1="82" x2="112.7" y2="88.6"/>
	<line class="st4" x1="142.4" y1="79.2" x2="147.4" y2="82"/>
	<line class="st4" x1="142.4" y1="76.7" x2="148.1" y2="75.7"/>
	<path class="st4" d="M164.9,72.7c0,0-2.1,3.5-0.9,6.5"/>
	<path class="st4" d="M167.9,75.7c0,0-3.1-0.4-3.6,1.1"/>
	<line class="st7" x1="110.8" y1="90.9" x2="109.2" y2="93.5"/>
	<line class="st7" x1="112.4" y1="92.2" x2="112.4" y2="96.8"/>
	<path class="st4" d="M135.6,108.2c0,0,1.9,2,2.6,4.2c0.6,1.9,5.6,3.3,4.9-2.1c-0.7-5.4-3.4-9.3-8.3-10.2
		C130,99.3,129.6,106.1,135.6,108.2"/>
	<path class="st4" d="M139.6,122.9c0,0,1.6,5.9,2.1,7.1"/>
	<path class="st4" d="M171.7,152.6c0,0,3.2,23.6,0.7,26.5"/>
	<path class="st4" d="M171.1,125.7c0,0-2.1,20-15.9,22.5"/>
	<path class="st4" d="M107.1,259.4c0,0,1.1-87.6,1.8-105.8s16.5-17.1,16.5-17.1"/>
	<line class="st4" x1="189.3" y1="206.4" x2="190.5" y2="259.4"/>
	<path class="st4" d="M119.7,169.4c0,0,7-1.4,7.2,9.7s0.9,78.2,0.9,78.2"/>
	<path class="st4" d="M138.4,153.8c0,0-15.1-13.5-12.4-18.4c2.6-4.7,8.3,5.3,8.3,5.3"/>
	<path class="st4" d="M152.9,145.8c0,0,2-14,0.6-14.4s-4.7,0-4.7,0"/>
	<path class="st4" d="M149.4,138.7c-0.5-0.7-0.5-10.6-3.1-10.6s-3.4,2.5-3.3,6"/>
	<path class="st4" d="M143.4,135.4c0,0-1.2-7.5-4.9-6.5c-3.7,1.1,0.6,8,0.6,8"/>
	<path class="st4" d="M130.9,135.4c0,0-1-7.4,6-2.5"/>
	<path class="st4" d="M102.7,94.5c0,0,5.6,1.4,6.5,3"/>
	<path class="st7" d="M106.1,37.3c0,0-11.9,7-9.1,8.6C99.8,47.5,106.1,37.3,106.1,37.3z"/>
	<path class="st7" d="M111,39.8c0,0-0.1,0.1-0.3,0.2c-1.7,1.4-9.3,8.2-8.3,10.4c0.9,1.9,4.2-0.1,5.3-1.8c0.8-1.2,3.2-8.8,3.2-8.8"/>
	<path class="st7" d="M107.2,36.4c-0.4-0.8,6-7.3,9.7-5.9C119.9,31.7,107.2,36.4,107.2,36.4z"/>
	<path class="st7" d="M111,39.5c0,0,10-5.6,12.2-4.2S111,39.5,111,39.5z"/>
	<path class="st4" d="M140.7,118.3c0,0,5,0.9,5.5-2.3"/>
</g>
<g id="Слой_4">
	<g>
		<line class="st8" x1="60.4" y1="135.1" x2="95.5" y2="120.5"/>
		<line class="st8" x1="77.6" y1="143.7" x2="94.1" y2="129.9"/>
		<line class="st8" x1="96" y1="151.1" x2="104.8" y2="131.7"/>
		<line class="st8" x1="102.5" y1="115.5" x2="121.3" y2="111.3"/>
		<path class="st8" d="M109.2,125.2c1.9-1.3,11.9-6.8,11.9-6.8"/>
		<line class="st8" x1="120.6" y1="136.7" x2="127.6" y2="123.5"/>
	</g>
</g>
</svg>
