<?xml version="1.0" encoding="utf-8"?>
<!-- Generator: Adobe Illustrator 23.1.0, SVG Export Plug-In . SVG Version: 6.00 Build 0)  -->
<svg version="1.1" id="Слой_1" xmlns="http://www.w3.org/2000/svg" xmlns:xlink="http://www.w3.org/1999/xlink" x="0px" y="0px"
	 viewBox="0 0 283.5 283.5" style="enable-background:new 0 0 283.5 283.5;" xml:space="preserve">
<style type="text/css">
	.st0{fill:#231F20;}
	.st1{fill:#477DBF;}
	.st2{fill:#529342;}
	.st3{fill:#FAB991;}
	.st4{fill:#690A14;}
	.st5{fill:#FFFFFF;}
	.st6{fill:#FAAF55;}
	.st7{fill:none;stroke:#231F20;stroke-linecap:round;stroke-linejoin:round;stroke-miterlimit:10;}
	.st8{fill:none;stroke:#231F20;stroke-width:1.0738;stroke-linecap:round;stroke-linejoin:round;stroke-miterlimit:10;}
	.st9{fill:none;stroke:#231F20;stroke-width:0.5369;stroke-linecap:round;stroke-linejoin:round;stroke-miterlimit:10;}
	.st10{fill:none;stroke:#231F20;stroke-width:0.8053;stroke-linecap:round;stroke-linejoin:round;stroke-miterlimit:10;}
	.st11{fill:#B3D0ED;}
	.st12{fill:#BC2639;}
	.st13{fill:#FCCDAD;}
	.st14{fill:#5F1F27;}
</style>
<g>
	<g>
		<g>
			<path class="st0" d="M122,39.4h14.3l0.4-1.6c0.5-1.8,1.7-4.1,3.2-5.1c1.2-0.8,2.8-1.2,4.5-0.3c3.3,1.8,4.3,6.3,2,9.3
				c-0.2,0.3-0.5,0.6-0.8,0.9c-3.6,3.5-9.7,10.7-9.8,12.7c-0.1,2.1,0.2,10.6,0.2,10.6h12.9v-2.4c0-4.1,1.6-8.1,4.5-11.1
				c0.6-0.6,1.3-1.3,2.1-1.9c4.8-4.1,10.1-13.2,3.4-22.8c0,0-7.1-11.7-21.9-7.5C136.8,20.3,124.8,22.7,122,39.4z"/>
			<circle class="st0" cx="142.4" cy="79.4" r="7.2"/>
		</g>
		<g>
			<path class="st1" d="M110.2,237.1c0-9.7-1.2-19.7-2.7-29.1c-0.1-0.5-0.3-0.9-0.7-1.1c-0.3-2.8-0.6-5.5-0.9-8.3
				c0.5-0.9,0.3-2.1-0.9-2.9c-0.1-0.1-0.3-0.2-0.4-0.3c-0.8-0.6-2.1-0.4-2.8,0.3c-0.6,0.3-1.1,0.9-1.1,1.8c-0.2-0.3-0.5-0.5-0.8-0.6
				c0.1-0.9,0.1-1.8,0.2-2.7c0.2-2.3-2.6-3.2-4.3-2.3c-0.7-0.2-1.6-0.2-2.3,0.2c-1.1-0.5-2.4-0.4-3.3,0.6c-0.2-1.7-1.9-2.6-3.4-2.3
				c0.1-0.4,0.2-0.8,0.3-1.3c0.8-2.9-3.6-4.6-5-2c-0.8,1.4-1.5,2.9-2.2,4.3c-1.3-0.9-3.9-0.3-4.2,1.8c-0.1,0.5-0.1,1-0.2,1.5
				c-0.4-0.2-0.9-0.3-1.3-0.2c-0.1-0.7-0.3-1.5-0.4-2.2c-0.4-1.7-2.1-2.2-3.5-1.7c-1.1-0.8-2.8-0.8-3.8,0c-0.8,0.3-1.5,1-1.6,2.1
				c-0.7,7.2-0.9,14.4-1.2,21.6c-0.3,7.1-1.2,14.5-0.8,21.6c0.1,3.2,4.4,3.2,5.2,0.5c0.7,0.9,2,1.4,3.1,1.1c0,0.7,0.1,1.3,0.1,2
				c0.1,1.8,1.7,2.7,3.2,2.5c1.4,0.3,3-0.3,3.4-1.8c0.9,0.4,1.9,0.4,2.7,0.1c0.5,0.2,1,0.3,1.5,0.2c0,0.2,0,0.5,0.1,0.7
				c0.4,3.4,5.6,3.6,5.6,0c0-2.3,0-4.7,0-7.1c0.1,0.7,0.1,1.3,0.2,2c0.3,2.8,4.1,3.4,5.3,1.5c0.6,1.8,3.2,2.1,4.6,1.1
				c0.5,1.1,1.5,1.6,2.5,1.6c0.1,0.4,0.1,0.8,0.2,1.3c0.3,2.4,3.2,3.1,4.7,2c0.1,0.1,0.3,0.2,0.4,0.3c0.1,0.8,0.3,1.5,0.4,2.3
				c0.6,2.7,5.5,2.2,5.2-0.7C110.9,242.8,110.6,239.9,110.2,237.1z"/>
			<path class="st2" d="M130.7,171.3c-0.1,0-0.1,0-0.2,0c-0.4-0.6-0.9-1.2-1.5-1.6c-0.7-1.2-1.8-2.3-2.7-3.2
				c-0.6-0.6-1.3-1.3-2.1-1.9c-1-1.1-2.2-2.2-3.4-2.7c-0.7-0.8-1.4-1.6-2.2-2.2c-0.5-0.7-1.3-1.4-1.9-1.9c-0.7-0.7-1.4-1.3-2.2-1.9
				c0-0.1-0.1-0.2-0.1-0.3c-0.5-4.7-0.4-9.3-0.5-14c0-0.5-0.2-0.8-0.5-1c-0.1-1.5-0.2-2.9-0.5-4.4c0.6-1,0.8-2.6,0.4-3.9
				c0.1-0.8,0.1-1.6,0-2.4c-0.2-1.5-0.3-2.9-1.2-3.7c0-2.9-0.8-5.7-3.1-7.5c-0.9-0.7-2.6-0.3-2.7,0.9c-0.3,0.2-0.5,0.4-0.6,0.8
				c-0.1,0-0.2,0.1-0.3,0.1c-2.5,1.8-4.6,3.9-5.9,6.8c-0.1,0.1-0.1,0.3-0.1,0.4c-0.7,1-1.2,2-1.6,3.2c-0.8-1.4-1.7-2.8-2.6-4.2
				c-0.5-0.8-1.3-0.9-1.9-0.7c0.2-0.5,0.1-1.1-0.3-1.7c0,0,0,0,0,0c-1.5-2.6-4.1-4.9-6.2-7c-1-1-1.9-1.9-3-2.5
				c-0.1-0.2-0.3-0.3-0.5-0.5c0,0,0,0,0-0.1c-0.2-0.4-0.7-0.6-1.2-0.7c-2-0.8-4.7-0.5-6.5,0.3c0,0,0,0,0,0c-0.8,0.1-1.6,0.3-2.3,0.7
				c0,0,0,0,0,0c-0.5-0.1-1,0-1.4,0.4c-3.2,2.9-5.7,8.8-5,13.4c-0.4,1.3-0.7,2.7-0.8,4.1c0,0.2,0,0.4,0.1,0.6
				c-1,3.5-1.4,7.3-1.7,10.9c-0.4,4-0.8,8.6-0.2,12.7c-1,5.5-1.2,11.4-0.6,17c-0.6,3.1-0.8,6.3-0.7,9.5c-0.5,1.2-0.8,3.1-0.5,4.7
				c0,0.1,0,0.3,0,0.4c0,1,0.2,2.1,0.6,3c0.2,0.4,0.4,0.8,0.8,1c0.2,0.3,0.5,0.6,0.9,0.8c0.8,0.5,1.8,0.6,2.7,0.7c1,0.5,2,0.8,3.1,1
				c1.2,0.2,2.5,0.4,3.7,0c3.1,0.7,6.3,1.1,9.4,1.2c0.1,0.1,0.2,0.2,0.4,0.3c0.7,0.3,1.2,0.4,2,0.5c0.6,0,1.2,0,1.9-0.1
				c4,0.9,9.2,1,13.3-0.2c0.4,0.1,0.7,0.2,1.1,0.2c0.4,0,0.7,0,1.1-0.1c0.9,0.5,2.2,0.1,2.7-1.1c0.1-0.3,0.2-0.6,0.1-0.9
				c0-0.3-0.1-0.6-0.2-0.8c0.2-0.4,0.2-0.8,0.2-1.2c0.1-1.2-0.2-2.4-0.5-3.6c0.2-1.4,0.3-2.9,0.5-4.3c0.1-1.6,0.3-3.1-0.2-4.5
				c0.4-2.2,0.2-4.5,0.2-6.7c0-1.6,0-3.2-0.1-4.7c0.1-0.7,0.2-1.3,0.3-2c0.2,0.4,0.4,0.7,0.7,1.1c0.9,1.3,2.1,2.8,3.7,3.2
				c0.2,0,0.4,0,0.6,0c0.5,0.6,1.2,1.1,2,1.5c0.1,0.1,0.2,0.2,0.3,0.3c0.3,0.3,0.7,0.4,1.1,0.3c0.3,0.1,0.7,0.3,1,0.4
				c0.8,0.9,1.9,1.6,2.8,2.2c0.8,0.5,1.7,1.1,2.7,1.5c0.4,0.4,0.9,0.8,1.4,1.1c0.4,0.4,0.9,0.8,1.3,1c0.1,0.2,0.2,0.4,0.3,0.6
				c0.2,0.3,0.4,0.5,0.7,0.6c0.1,0.1,0.2,0.1,0.2,0.1c0.4,0.2,1,0.1,1.3-0.2c0.2-0.2,0.3-0.4,0.4-0.5c0.2-0.1,0.5-0.2,0.7-0.4
				c0.5-0.3,0.8-0.8,0.9-1.3c0.1-0.1,0.2-0.3,0.2-0.3c0.1-0.2,0.3-0.3,0.4-0.5c0.2-0.3,0.4-0.6,0.5-0.9c0.2-0.5,0.4-1,0.5-1.5
				c0.2-0.1,0.3-0.3,0.5-0.5c0.8-0.1,1.6-0.7,1.6-1.6C132.3,172.1,131.6,171.3,130.7,171.3z M92.2,127.4c0,0.3,0,0.6,0.2,1
				c0.2,0.4,0.4,0.8,0.6,1.1c-0.6-0.6-1.2-1.2-1.9-1.8C91.5,127.7,91.9,127.6,92.2,127.4z"/>
			<path class="st3" d="M109,105.6c0-0.8-1.1-0.9-1.4-0.2c-0.1,0.2-0.1,0.3-0.2,0.5c-0.1,0.1-0.1,0.1-0.2,0.2c-0.4,1-0.7,2.1-1,3.1
				c-0.5,0.2-0.9,0.6-1.2,1.1c1.4-3.6,2.1-8.7,1.6-13.2c0.8-1.1,1.2-2.8,1.2-4.4c0,0,0-0.1,0-0.1c0.1-0.8-0.1-1.9-0.4-2.7
				c-0.1-0.2-0.2-0.4-0.3-0.5c0-0.1,0-0.1-0.1-0.2c-0.1-0.3-0.6-0.5-0.8-0.3c-0.2-0.1-0.5-0.1-0.8-0.1c0,0,0-0.1-0.1-0.1
				c-0.6-1.2-1.7-2.4-2.9-3c-0.3-0.4-0.7-0.6-1.1-0.8c0,0-0.1,0-0.1,0c-0.1-0.1-0.3-0.3-0.4-0.4c-0.8-0.8-1.7-1.4-2.4-1.9
				C98,82.3,96.9,81,96,80.4c-0.1-0.2-0.2-0.3-0.3-0.4c-0.7-0.7-2.1-0.2-2.1,0.8c0,0.1,0,0.2,0,0.4c-0.2,0.2-0.3,0.3-0.5,0.5
				c-0.8,0.2-1.5,0.8-2.1,1.1c-1,0.6-2.1,1.1-3.1,1.7c-0.3,0.2-0.6,0.4-0.7,0.7c-1.1,0.6-2.3,1.6-3.3,2.7c-0.4,0.2-0.8,0.5-1.1,0.8
				c-0.5,0.4-0.9,0.8-1.3,1.2c-0.1,0.1-0.2,0.1-0.3,0.2c-0.5,0.3-0.8,0.6-1,1.1c-1.5,1.2-2.8,2.5-4,4.1c-0.1,0.1-0.2,0.3-0.2,0.4
				c-0.5-0.5-1.1-0.9-1.8-1.1c-1-0.3-2.3-0.2-2.9,0.8c-0.1,0.1-0.1,0.2-0.1,0.3c0,0-0.1,0-0.1,0.1c-0.6,0.4-0.7,1.2-0.4,1.9
				c0,0,0,0,0,0.1c-0.1,0.4-0.1,0.7-0.1,1.1c0,1.3,0.4,2.6,1,3.7c0.4,0.7,1,0.9,1.6,0.9c0.5,0.6,1,1,1.7,1.3c0.6,0.2,1.2,0.1,1.7,0
				c0.2,0.2,0.3,0.4,0.5,0.6c0.1,1.3,0.7,2.4,1.7,3.3c0.1,0.1,0.3,0.2,0.5,0.3c0.1,0.1,0.1,0.1,0.2,0.2c0.1,0.1,0.1,0.3,0.2,0.4
				c0.7,0.9,1.4,1.8,2.2,2.6c0.1,0.1,0.2,0.2,0.4,0.2c2.1,2.5,4.2,5.1,6.9,6.6c0.1,0.1,0.2,0.1,0.3,0.1c0.1,0.6,0.3,1.2,0.5,1.7
				c0.2,0.4,0.3,0.8,0.5,1.2c0,0.4,0,0.7,0.1,1c0,0,0,0.1-0.1,0.1c-0.5,1.4-1,2.8-1.1,4.2c0,0.1-0.1,0.2-0.1,0.3
				c-0.3,0.2-0.6,0.6-0.6,1c0,0.2,0.1,0.3,0.2,0.4c-0.1,0.3,0.1,0.7,0.4,0.7c0,0,0,0.1,0.1,0.1c0.3,0.2,0.6,0.4,1,0.4
				c1.1,0.6,2.4,1,3.7,0.8c0.4,0.3,0.9,0.4,1.4,0.4c0.1,0.2,0.4,0.2,0.6,0.1c0.3-0.1,0.5-0.1,0.7-0.3c0.2-0.2,0.4-0.5,0.5-0.7
				c0-0.1,0-0.1,0.1-0.2c0.1-0.1,0.1-0.1,0.2-0.2c0.8-1.2,1.5-2.6,2.2-3.9c0-0.1,0.1-0.1,0.1-0.2c0.8-0.4,1.8-0.9,2.2-1.8
				c0,0,0,0,0,0c0.2-0.1,0.4-0.2,0.6-0.3c0.6-0.3,1.4-0.7,1.6-1.3c0.1-0.3,0.1-0.6,0-0.8c1.4-1.2,2.7-2.6,3.5-4.4
				c0.3-0.2,0.5-0.5,0.5-0.8c0.3-1.9,0.3-3.8,0-5.7c0-0.3-0.3-0.5-0.6-0.6c0.3-0.9,0.6-1.7,0.7-2.6c0.2-0.1,0.4-0.2,0.5-0.5
				C109.1,106.5,109.1,106.1,109,105.6z"/>
			<path class="st3" d="M146.1,187.6c0.8,0.7,1.7,1.3,2.6,1.7c0.8,0.3,1.8-0.5,1.1-1.3c-0.6-0.5-1.2-1-1.9-1.3
				c-0.8-0.7-1.8-1.3-2.7-1.9c-0.2-0.1-0.3-0.1-0.5-0.1c-0.3-0.2-0.6-0.4-0.8-0.6c0-0.3-0.2-0.6-0.5-0.8c-0.9-0.7-1.9-1.5-2.9-2.2
				c-0.7-0.5-1.4-0.9-2.2-1.3c0-0.1,0.1-0.2,0.1-0.4c0-0.3,0.1-0.7,0.1-1c0.2-0.1,0.3-0.3,0.3-0.5c0.2,0,0.5,0,0.7,0
				c0.4,0,0.7-0.1,0.9-0.3c0.1,0,0.1,0,0.2,0.1c0.9,0.2,1.8,0.3,2.7,0.2c1.2-0.3,0.9-1.7,0-2c-0.6-0.2-1.3-0.2-2-0.2
				c-0.2,0-0.5,0.1-0.8,0.1c-0.2-0.2-0.5-0.4-1-0.4c-1.3-0.1-2.7-0.1-4,0c-0.4-0.2-0.7-0.3-1.1-0.4c-0.7-0.3-1.6-0.8-2.4-0.5
				c-0.3,0.1-0.5,0.3-0.6,0.6c-0.1,0-0.2,0.1-0.2,0.1c-0.4,0.3-0.6,0.7-0.9,1.1c-1.1,1-2.2,2.2-2.7,3.5c-0.1,0-0.1,0.1-0.2,0.1
				c-0.3,0.3-0.4,0.8-0.2,1.1c0.1,0.1,0.1,0.2,0.2,0.3c0.2,2.2,2.3,4.6,3.7,6.2c0.5,1.2,1.4,2.3,1.9,3.3c0.9,1.7,1.6,3.6,3.2,4.8
				c0.4,0.3,0.9-0.1,0.9-0.5c0.1-1.9-1.2-3.7-2-5.4c-0.4-0.9-0.8-1.8-1.2-2.7c0-0.1,0.1-0.1,0.1-0.2c0.1,0.1,0.3,0.2,0.4,0.3
				c1.7,1.4,3.4,2.9,5.1,4.4c1.8,1.6,3.4,3.2,5.4,4.4c0.4,0.3,1.1-0.2,0.8-0.7c-1.2-2-3-3.5-4.6-5.1c-0.4-0.4-0.8-0.8-1.2-1.3
				c0.2-0.1,0.4-0.3,0.6-0.5c0.1-0.1,0.1-0.3,0.2-0.5c0.4,0.3,0.7,0.5,1.1,0.8c0.8,0.9,2,1.6,2.9,2.3c1.3,1,2.5,1.9,3.9,2.7
				c0.6,0.3,1.5-0.4,1.1-1c-1-1.4-2.1-2.5-3.3-3.7c-0.2-0.2-0.5-0.5-0.7-0.7c0-0.1,0-0.1-0.1-0.2c0,0,0,0,0.1,0
				C145.5,188.1,145.9,187.9,146.1,187.6z"/>
			<path class="st4" d="M100.5,108.8c-0.4-0.2-0.9-0.2-1.3,0c-0.2-0.1-0.5-0.1-0.7,0c-0.9,0.3-1.9,0.7-2.8,1.1
				c-0.6,0.2-1.3,0.5-1.8,0.9c-0.5,0.3-0.9,0.6-1.2,1c0,0,0,0,0,0c-0.5,0.3-1,0.6-1.4,1c-0.3,0.3-0.1,0.7,0.3,0.7
				c0.6,0,1.2-0.1,1.9-0.3c0.8,0.3,1.8,0.1,2.6,0c1-0.2,2.2-0.6,3-1.4c0.5-0.2,0.8-0.7,1-1.3c0.4-0.3,0.7-0.7,0.7-1.2
				C100.8,109.1,100.7,108.9,100.5,108.8z"/>
			<path class="st5" d="M104.8,95.5c-0.3-0.4-0.7-0.5-1.2-0.7c-0.5-0.2-0.9-0.4-1.4-0.6c-0.1-0.2-0.3-0.4-0.6-0.4
				c-0.8,0.1-1.5,0.4-2.2,0.8c-0.7,0.3-1.4,0.7-1.8,1.2c-0.2,0.3,0.2,0.6,0.4,0.5c0.1,0,0.2-0.1,0.3-0.1c1.8,0.3,3.8,0.3,5.6,0.2
				c0.2,0,0.4-0.1,0.5-0.3C104.8,96.2,105,95.8,104.8,95.5z M100.3,95.5c0.5-0.2,1.1-0.3,1.6-0.6c0.1,0,0.1-0.1,0.2-0.1
				c0.3,0.2,0.5,0.4,0.8,0.6C102,95.4,101.2,95.4,100.3,95.5z"/>
			<path class="st5" d="M91.6,96.2c-0.1-1.1-1.3-1.8-2.4-1.5c-0.3,0.1-0.2,0.5,0.1,0.5c0.5,0,0.8,0.3,1.1,0.8c-1-0.1-2-0.1-3,0
				c0.4-0.1,0.8-0.3,1.1-0.5c0.4-0.3,0.2-0.8-0.3-0.9c-1-0.1-2.3,0.6-3.2,1.1c-1,0.5-2.2,1.1-3,2c-0.1,0.2,0,0.5,0.2,0.4
				c0.1,0,0.2-0.1,0.3-0.1c0,0,0,0,0,0c2.7-0.4,5.2-0.7,7.9-0.8c0.2,0,0.3-0.1,0.4-0.1c0.2,0.2,0.7,0.1,0.7-0.3c0,0,0-0.1,0-0.1
				C91.5,96.5,91.6,96.4,91.6,96.2z"/>
			<path class="st6" d="M106.3,85.8c1.1-1.5,0.7-3.4,0.5-5.2c-0.2-1.5-0.4-3.3-1.2-4.6c0-0.4-0.2-0.7-0.4-1.1
				c-0.1-0.3-0.4-0.5-0.6-0.8c-0.4-1.5-1.5-3-2.6-3.9c-2.2-1.9-4.9-2.4-7.7-2.5c-0.3,0-0.6,0.2-0.7,0.4c-0.1,0-0.1-0.1-0.2-0.1
				c-0.2-0.6-0.8-1-1.4-1.3c-0.4-0.2-1.1-0.3-1.5-0.1c-1.7-0.6-3.9-0.6-5.4-0.1c-2.2,0.7-4.8,1.6-6.9,2.8c-0.3-0.1-0.7-0.1-1,0
				c-1,0.4-1.9,1.1-2.7,1.7c-0.4,0.3-0.7,0.8-0.6,1.3c-1.5,1-2.8,2.2-3.6,3.6c-3.3,3-5.5,7.1-5.9,11.9c-0.1,0.5,0.1,0.9,0.5,1.2
				c-0.5,1.5,0,3.5,1,4.8c0.1,0.4,0.2,0.8,0.4,1.3c0.1,0.3,0.3,0.5,0.5,0.6c-0.1,0.2-0.1,0.4-0.1,0.6c-0.1,0.6,0.4,1.1,0.9,1.4
				c0.1,0.2,0.2,0.5,0.3,0.7c0,0-0.1,0.1-0.1,0.1c-1.8,2.8-2.5,7-2,10.3c0.1,0.4,0.4,0.7,0.7,0.9c0.1,0.3,0.2,0.5,0.4,0.7
				c0.1,0.1,0.1,0.1,0.2,0.2c0.1,0.2,0.2,0.3,0.3,0.5c0.3,0.4,0.7,0.8,1.2,1.2c0.4,0.5,0.9,1,1.4,1.4c0.3,0.2,0.6,0.4,1,0.4
				c0.1,0.1,0.3,0.2,0.4,0.3c0.4,0.1,0.6,0.2,1,0.2c0.4,0,0.8-0.2,1.2-0.4c0.6-0.2,1.2-0.5,1.6-1c0.1,0,0.1-0.1,0.2-0.1
				c0.1,0,0.1,0.1,0.2,0.1c0.1,0,0.2-0.1,0.2-0.1c1.3-0.3,2.4,0,3.6,0c0.2,0,0.4,0,0.6,0c0.5-0.2,1.1-0.3,1.6-0.2
				c0.1,0,0.2,0.1,0.4,0.1c0.1-0.2,0.1-0.4,0.1-0.6c0,0,0-0.1,0-0.1c-0.1-0.3-0.4-0.6-0.8-0.7c-0.2,0-0.4,0-0.6,0
				c-0.1-0.5-0.4-0.9-0.8-1.1c-0.1-0.3-0.2-0.6-0.4-0.9c-0.3-0.4-0.7-0.8-1.1-1.2c-0.2-0.4-0.4-0.8-0.7-1.2
				c-0.2-0.4-0.4-0.8-0.7-1.1c-0.1-0.2-0.1-0.3-0.2-0.5c-0.1-0.1-0.2-0.3-0.3-0.4c-0.3-0.2-0.3-0.2-0.2-0.2
				c-0.3-0.4-0.9-0.5-1.3-0.2c-0.1,0-0.2,0-0.3,0c-0.5-0.2-1.1-0.5-1.5-0.8c-0.5-0.4-1-0.8-1.5-1.2c-0.4-1.1-1.2-2-1.5-3.1
				c0-0.2-0.1-0.4-0.1-0.5c0.4-0.6,0.2-1.2-0.1-1.8c0-0.3,0-0.6,0-0.8c0.1-0.2,0.2-0.4,0.3-0.6c0.1-0.1,0.2-0.2,0.2-0.4
				c0.2-0.4,0.3-0.8,0.5-1.3c0,0,0,0,0,0c0,0,0.1-0.1,0.1-0.1c0.3-0.1,0.6-0.3,0.8-0.5c0,0,0,0,0,0c0.2,0,0.4,0.1,0.6,0.1
				c0,0,0,0,0,0c0.2,0,0.4-0.1,0.6-0.2c0,0,0,0,0.1,0c0,0.1,0.1,0.2,0.2,0.2c0.4,0.2,0.7,0.4,1.1,0.6c0,0,0.1,0,0.1,0.1
				c0,0.2,0.2,0.4,0.4,0.6c0.3,0.6,1.2,0.6,1.6,0c0.2-0.3,0.2-0.6,0.2-0.9c0,0,0,0,0,0c0.4-0.6,0.8-1.2,1.3-1.7
				c0.9-0.6,1.7-1.2,2.5-2c0.8-0.7,2-1.6,2.2-2.7c2.3-1.3,4.6-2.8,6.7-4.5c1-0.2,2-0.6,2.8-1.2c0.3-0.2,0.5-0.5,0.4-0.8
				c0-0.1,0-0.1-0.1-0.2c0.8-0.7,1.6-1.4,2.2-2.3c0.1,0.1,0.1,0.2,0.3,0.3c0.1,0.1,0.3,0.2,0.4,0.3c0.4,0.4,0.9,0.8,1.4,1.1
				c0.5,0.3,0.9,0.8,1.5,1c0.7,0.8,1.6,1.5,2.5,2.1c0.4,0.6,0.8,1.1,1.4,1.4c0,0,0.1,0,0.1,0c0.1,0.2,0.2,0.4,0.3,0.6
				c0.4,0.7,1,1.3,1.7,1.8c0,0.1,0,0.2,0,0.3c0.1,0,0.2,0.1,0.3,0.1c0.3,0.4,0.5,0.8,0.8,1.2c0,0,0.1,0,0.1,0c0.4,0,1-0.3,1.1-0.8
				c0.1-0.5,0.1-0.9,0-1.3C106.7,86.6,106.6,86.1,106.3,85.8z"/>
			<path class="st6" d="M104.1,88.9c-2.3-2.1-5.5,1.7-7.8,2.3c-0.4,0.1-0.3,0.5,0,0.7c1.1,0.4,2,0.1,2.9-0.4
				c0.6-0.3,1.2-0.7,1.8-1.1c0.9-0.5,1.6-0.4,2.6-0.4C104.2,90,104.6,89.3,104.1,88.9z"/>
			<path class="st6" d="M91.4,91.1c-1.6-5.4-8.7-1.3-11.1,1.2c-0.4,0.4,0.1,0.9,0.5,0.7c2.3-1.1,7.6-5.4,9.3-1.5
				C90.5,92.1,91.6,91.9,91.4,91.1z"/>
		</g>
		<path class="st7" d="M105.5,135.7c1.2,29.4,0.7,60.2,0.7,60.2c-10.8,3.4-37.4-1.6-40.9-2.6c-3-0.9-2.5-6.8-2.3-8.5
			c0-0.4,0.1-0.7,0.1-1.1l1.5-36.7c0,0,1.9-22.7,5-29.2c3.1-6.5,13.5-4.3,13.5-4.3c-2.7-1.6-6.9-8.9-6.9-8.9c-6.5,0.6-6.8-8.2-5-9.9
			s4.9,1.3,4.9,1.3s1.3-5.1,13.3-12.2c9-5.3,8.1-13.4,3.4-16.6c-1.6-1-3.6-1.6-5.8-1.2c-7.9,1.2-13.6,5.6-18.6,12.3
			c-2.2,2.9-3.6,6.3-3.8,10c-0.1,3.1,0.6,6.8,3.5,10.2c0.3,0.4,1.7,1.7,2.1,2"/>
		<path class="st8" d="M71.8,114.7c0,0-11.7-3.8-3.7-16.3"/>
		<path class="st8" d="M94.6,79.2c0,0,11.1,8.1,11.4,10.6c0,0,5-23-12.6-22.2"/>
		<path class="st9" d="M94.4,68.4c0,0-10.2,1-10.3,4.5c0,0.8,1.4,0.6,2.1,0.3C87.8,72.6,91.7,69.8,94.4,68.4z"/>
		<path class="st9" d="M95.7,71.6c0,0-12.4,5.3-9.9,6.2C88.6,78.8,95.8,71.5,95.7,71.6z"/>
		<path class="st10" d="M71.8,96.6c0,0,1.7,0,4.7,4.2"/>
		<path class="st10" d="M71.8,99.4c0.9,0,2.4-0.8,2.4-0.8"/>
		<path class="st10" d="M105.4,88.4c0,0,3.9,13.1-1.3,23.2"/>
		<path class="st10" d="M106.6,88.4c0,0,3.4,2.7,0.3,9.2"/>
		<path class="st7" d="M69.6,126.4c0,0,2.3,34.4,2.5,35.2c0.5,1.7,1.2,5.6,5,7.6c2.5,1.3,5.6,0.7,7.5-1.4c2.3-2.6,5.4-8,8.8-19
			l5-17.1c0,0-8.5,0.2-10.5-3.7l-11.1,23.9"/>
		<line class="st8" x1="79.5" y1="126.4" x2="82.1" y2="140.3"/>
		<path class="st7" d="M106.2,164.3c1.8,5.2,2.5,5,3.4,5.6c1.6,1.1,2.8,1.9,5.4,3.5c9.9,6.4,11.1,7.7,11.1,7.7l6.4-8.5l-17.9-17.4"
			/>
		<path class="st7" d="M108,118.3c0,0,2.7-0.9,4.2,6.1c1.4,7.2,1.6,32.6,2.7,34.8"/>
		<line class="st7" x1="64.5" y1="192.9" x2="62.8" y2="234.4"/>
		<path class="st7" d="M94.9,203.6c0,0-6.1,1.1-6.7,4.2c-0.6,3.1-2.2,26.5-2.2,26.5"/>
		<path class="st7" d="M105.8,196.4c0,0,4.1,30.6,3.9,38.6"/>
		<path class="st9" d="M94.6,68.2c0,0,9.2,3.2,7.9,5c-0.6,0.8-7.7-5.4-7.9-4.7"/>
		<path class="st8" d="M88.5,129c0,0,1.4-3.6,1.6-4.7s0.2-3.6-0.7-4.7c-1.3-1.7-6.3-6.1-6.3-6.1s1.7-1,3.9,0.8
			c2.3,1.8,8.1,4.4,12.3,1.7c4.3-2.7,6.6-6.8,7.6-8.7s1-2.4,1.7-2.7c0.5-0.2,0.9,0.4,0.1,4.3c0,0.2-0.1,0.4-0.2,0.5l-5.1,8"/>
		<path class="st8" d="M108.4,113.8l0.2,1.6c0.1,0.6,0,1.3-0.3,1.9l0,0c-0.8,1.6-1.9,3.1-3.3,4.3l-3.1,2.8c-1.6,1.4-2.4,2.9-3.5,4.7
			l-1.3,2.7"/>
		<path class="st8" d="M104.1,120.4l3.3-4.6c0.8-1.1,1.3-2.5,1.3-3.9l-0.2-2.4"/>
		<path class="st8" d="M81.8,97.6c0,0,6.8-7,9.9-1.4"/>
		<path class="st8" d="M97.4,95.9c0,0,2.7-2.8,4.3-2.3c1.6,0.5,2.1,1.5,2.7,1.7"/>
		<ellipse class="st0" cx="89.1" cy="95.7" rx="1.5" ry="1.7"/>
		<ellipse class="st0" cx="101.7" cy="95.2" rx="1.2" ry="1.4"/>
		<path class="st10" d="M94.7,105.7c0,0,1-0.8,1.8-0.8c1.1,0,2,0.6,3.1-0.1c1-0.7,1-1.8,0.5-2.5c-1-1.3-2.6-2.8-3.7-4.4
			c-1.1-1.6-0.6-6.6-0.6-6.6"/>
		<path class="st9" d="M93.1,103.7c0,0-0.7,1.9,0.3,2.4"/>
		<path class="st8" d="M80.4,93.3c0,0,7.4-5.5,10.2-2"/>
		<path class="st8" d="M96.2,92.2c0,0,2,0.4,3.2-0.5c1.2-0.9,3-2.6,4.7-1.9"/>
		<path class="st10" d="M90.4,113.5c0,0,6.7-6.6,10.8-4.5c0,0-0.3,2.3-3.4,3.4S90.4,113.5,90.4,113.5"/>
		<path class="st8" d="M126.5,180.6c0,0,7.1,12.8,10.1,15.4c3,2.6-2.9-8.6-3-9c-0.1-0.3,9.8,8.4,12.1,9.3c2.2,0.9-5.5-7.8-7.9-10
			c0,0,10.3,7.5,11.8,7.5c1.4,0-4.4-6.5-9.5-9.5c0,0,8.3,5.1,9.7,4.9c2.4-0.4-11.4-8.8-11.7-10.2c-0.2-1.1,4.8-1,5.3-1.5
			c0,0,2.2-1.1-0.8-1.8c-2.5-0.7-10.4-0.5-11-2"/>
		<path class="st9" d="M95.7,71.3c0,0,8.2,7.1,7.6,5C102.7,73.9,95.5,71.2,95.7,71.3z"/>
		<g>
			<path class="st11" d="M224.1,242.9c-0.8-6.1-1.8-12.2-3-18.2c-0.9-9.7-2.3-19.4-3.8-28.9c-0.4-5.1-1-10.3-1.6-15.3
				c-0.2-1.4-1.4-2.1-2.5-2.1c-1.4-2-5.1-1.8-5.1,0.9c-1.5-0.1-3,0.7-2.8,2.6c0,0.2,0,0.5,0.1,0.7c-2,0.4-4,0.6-6,0.7
				c-0.1-0.4-0.2-0.8-0.3-1.2c-0.7-3.2-5.8-2-5.4,1.2c-0.2,0-0.5,0-0.7,0c-1.2-0.1-2,0.8-2.3,1.7c-1.3-0.8-2.3-1.7-2.9-3.2
				c-0.6-1.5-2.4-2.2-3.8-1.8c-0.4-0.5-0.9-0.8-1.5-1c-0.2-1.4-1.7-2.1-3-1.9c-0.4,0-0.7,0-1,0.2c-0.3-0.2-0.6-0.3-1-0.4
				c-1.4-1.2-3.9-0.7-4.1,1.6c-0.1,2.7-0.3,5.6-0.1,8.3c-0.5,4.3-0.8,8.7-1.2,13c-0.5,5.8-1.5,12-1.5,17.9c-0.8,5-1.4,10.1-2.1,15.1
				c-0.1,0.6,0,1.1,0.2,1.6c0,0.3,0,0.6,0,0.8c-0.1,2.6,3.3,3.1,4.7,1.4c-0.2,2.8-0.4,5.5-0.5,8.3c-0.1,2.8,3.6,3.2,5.1,1.3
				c0.2-0.3,0.4-0.5,0.7-0.8c1.1-1.2,0.8-2.5,0-3.2c0.2-2.7,0.5-5.4,0.7-8.1c0,0.1,0.1,0.1,0.1,0.2c0,0.7,0,1.5,0,2.2
				c-0.1,1.8,1.5,2.7,3.1,2.5c-0.3,2-0.5,3.9-0.8,5.9c-0.4,2.8,4.6,3.4,5.2,0.7c0.1-0.7,0.2-1.3,0.4-2c1.2,0.2,2.4-0.3,2.6-1.7
				c1.9-11.9,2.8-24.1,4.3-36.1c0.1-0.7-0.2-1.2-0.6-1.5c0.1-0.8,0.3-1.7,0.4-2.5c0.3,1.3,0.7,2.6,1.1,3.9c0.7,5.7,1.6,11.4,2.6,17
				c1.1,6.5,1.6,14.3,6.4,19.2c0.5,0.5,1.2,0.7,1.9,0.7c0.1,0.7,0.3,1.3,0.4,2c0.3,1.4,1.4,2,2.6,2c1.4,1.9,5.6,1.1,5.2-1.7
				c-0.1-0.6-0.2-1.2-0.3-1.8c0.1-0.3,0.2-0.7,0.2-1.1c-0.1-1.1-0.2-2.1-0.4-3.2c0.3,0,0.7,0,1-0.1c1,0.3,2.2,0.1,3-0.6
				c0.3,1.8,0.6,3.5,1,5.3C219.4,246.3,224.5,245.8,224.1,242.9z"/>
			<path class="st12" d="M241.5,158.5c-1.5-1.4-3.2-2.7-4.9-4c-0.1-0.1-0.1-0.1-0.2-0.2c-1.1-1.2-2.2-2.3-3.3-3.5
				c-2.4-4.3-4.6-8.7-6.4-13.3c-0.5-2.1-0.8-4.2-1-6.5c0-0.7-0.4-1.1-0.9-1.3c-0.7-4.6-1.5-9.2-2.7-13.6c0-0.8,0-1.7,0-2.5
				c0-0.6-0.3-1-0.6-1.2c-0.9-4.7-3.3-9.1-7.2-11.8c-0.5-0.3-1-0.3-1.4-0.1c-0.7-0.3-1.5-0.6-2.4-0.8c-0.9-0.2-1.9,0.4-2.3,1.2
				c-0.2,0-0.5-0.1-0.7-0.1c-0.9-1-3.1-0.1-2.6,1.4c0,0.1,0.1,0.1,0.1,0.2c0,0.1-0.1,0.1-0.1,0.1c-2.9,5.4-6.3,10.4-10.4,15
				c-0.8,0-1.6-0.1-2.3-0.3c-2.4-0.6-4.5-1.6-6.4-3c-0.2-0.3-0.5-0.5-0.8-0.6c-0.3-0.3-0.6-0.5-0.9-0.8c-1.4-1.5-2.9-3.1-4.3-4.6
				c-0.2-0.8-0.4-1.6-0.7-2.3c-0.3-0.8-1.1-1.2-1.8-1.2c-0.9-0.8-2.1-0.4-3.2,0.1c-0.5-0.1-1.1-0.1-1.5,0.3
				c-0.1,0.1-0.2,0.2-0.3,0.3c-0.1,0-0.3,0.1-0.4,0.1c0,0-0.1,0-0.1,0c-0.2,0.1-0.3,0.2-0.5,0.3c-0.3,0.2-0.6,0.3-0.8,0.5
				c-0.3,0.2-0.3,0.6-0.1,0.8c-1.1,0.8-1.8,1.9-1.5,3.1c-0.7,1.6-1.2,3.3-1.4,5c0,0.1,0.1,0.1,0.1,0.2c0,0.9-0.2,1.7-0.4,2.5
				c0,0.1-0.1,0.2-0.2,0.2c0,2.7-0.1,5.3-0.2,8c-0.2,1.2-0.3,2.5-0.4,3.7c-1,4-1.9,7.9-2.7,11.9c-3.7,6.3-7.1,12.8-10.1,19.3
				c-0.3,0.7-0.1,1.3,0.4,1.7c0,0.3,0,0.6,0.2,0.9c0.2,0.4,0.5,0.7,0.7,1.1c0,1.6,1.1,2.9,2.9,3.1c0.3,0.9,1.7,1.5,2.5,0.6
				c1.1-1.1,2.2-2.4,3.3-3.7c0.3,0,0.7-0.1,0.9-0.4c2.4-2.5,4.4-5.6,6.1-8.9c1.5-2.2,2.8-4.4,4-6.7c0.1,2,0.2,3.9,0.3,5.9
				c-0.3,3-0.7,6-1,9.1c0,0.4,0.1,0.7,0.2,0.9c-0.4,3.9-0.8,7.9-1.1,11.8c-0.1,0.8,0.6,1.4,1.3,1.6c0.1,0,0.2,0,0.2,0.1
				c3.2,3.1,7.7,5.1,12.3,5.8c2.6,1.1,5.4,1.7,8.3,1.8c5,0.7,10.7,0.9,14.9-2.3c0.1,0,0.2,0.1,0.4,0.1c1.9,0,3.6-1.2,4.8-2.7
				c0.5-0.6,1-1.3,1.3-2.1c0-0.1,0.1-0.1,0.1-0.2c0.5-0.3,0.8-0.7,0.8-1.4c0-0.3,0-0.6,0-0.9c0.1-0.2,0.3-0.5,0.3-0.8
				c0.1-1.6,0.1-3.1-0.1-4.6c0,0,0,0,0,0c1-5,1-11.2-0.6-16.1c0-1.7-0.1-3.4-0.2-5c2.5,4.6,6.2,9.1,10.4,12.3c0,0.1,0,0.1,0.1,0.2
				c0.7,1.3,1.7,2.6,3.1,3.3c0.3,0.3,0.6,0.6,0.8,1c1,1.1,2.5,0.2,2.7-0.9c1.5-0.7,2.7-2.1,3.7-3.5c0.8,0.9,2.3,0.5,2.9-0.4
				C241.6,161.4,242.7,159.7,241.5,158.5z"/>
			<path class="st13" d="M209.7,94.9c0-0.4,0-0.7,0-1.1c0-0.1,0-0.1,0-0.2h0c0-0.1,0-0.2,0-0.3c-0.1-0.4-0.3-0.6-0.6-0.8
				c-0.1-0.2-0.2-0.4-0.4-0.5c-0.3-0.9-0.7-1.8-1.4-2.5c-0.3-0.3-0.6-0.4-1-0.3c-0.3-0.3-0.7-0.5-1.1-0.5c0.1-1.1,0.2-2.1,0.2-3.2
				c0-1.3-1.8-2.1-2.7-1.2c-0.3,0.1-0.5,0.2-0.7,0.4c-0.1,0.1-0.1,0.1-0.2,0.2c-0.2-0.2-0.4-0.5-0.6-0.7c-0.1-0.1-0.3-0.2-0.5-0.3
				c-0.2-0.6-0.5-1-1-1.2c0-1.5,0.1-3,0.1-4.5c0-2-2.8-2-3.2-0.2c-0.1,0-0.2,0-0.3,0c-0.1-0.1-0.1-0.2-0.2-0.3
				c-0.4-0.8-1.2-0.9-1.9-0.7c0-1.1,0.1-2.2,0.2-3.2c0.1-1.2-1.5-1.9-2.5-1.4c-0.4,0.2-0.7,0.5-1,0.7c-0.2,0-0.4-0.1-0.6-0.1
				c-1.2-0.1-2.4-0.1-3.6,0c-0.5,0.1-0.8,0.5-0.8,0.9c-0.2,0.2-0.4,0.5-0.7,0.7c-1.4,0.1-2.7,0.8-3.7,2.4c-1-0.3-2.1,0.3-2.2,1.4
				c-0.1,0.5-0.2,1-0.3,1.6c-0.2,0.1-0.4,0.2-0.6,0.3c-1.5,1.2-1.8,2.8-1.7,4.5c-0.3,0.2-0.5,0.6-0.4,1.1c0.1,0.5,0.3,1,0.4,1.4
				c-0.2,0.7-0.3,1.4-0.4,2.1c-0.1,0.3-0.1,0.6,0,0.9c0,0.6,0.1,1.2,0.2,1.9c-1,0-1.9,1-1.7,2c0,0.2,0.1,0.4,0.1,0.6
				c-1,0.2-1.8,1.2-1.2,2.3c0.2,0.3,0.3,0.7,0.5,1c0.5,3.7,2.4,7.7,5.1,10c0.2,0.2,0.4,0.2,0.6,0.3c1.6,2.3,3.5,4.3,5.8,6.1
				c0,0,0,0,0,0c0.1,0.1,0.2,0.2,0.3,0.2c0,0,0,0,0,0c0.9,0.4,1.8,0.8,2.6,1.2c0.4,0.2,0.9,0.5,1.3,0.7c0.3,0.2,0.7,0.2,1,0.2
				c0.1,0,0.2,0.1,0.3,0.1c0.2,0.4,0.6,0.6,1.2,0.4c3.8-1,7.8-4.8,9.5-8.9c1.5-1.7,1.9-4.2,2.3-6.5c0.3-0.6,0.5-1.2,0.7-1.7
				c0.1,0,0.1,0,0.2,0c0.4,0.7,1.1,1.2,1.9,1.2c0.7,0,1.4-0.4,1.6-1.1c0.1-0.3,0.1-0.5,0-0.8c0.4-0.7,0.7-1.5,0.8-2.4
				c0.1-0.2,0.2-0.3,0.2-0.5C209.7,96.2,209.7,95.6,209.7,94.9z"/>
			<path class="st13" d="M251.8,175.7c0,0,0-0.1-0.1-0.1c0,0,0,0,0,0c0,0,0,0,0,0c-0.6-1.4-1.3-2.9-2-4.3c-0.1-0.2-0.3-0.3-0.4-0.3
				c-0.1-0.2-0.2-0.3-0.3-0.5c0-0.1,0-0.1-0.1-0.2c-0.3-0.5-0.6-1-1-1.6c-0.3-1.4-0.9-2.6-1.8-3.7c0.3,0.1,0.7,0.2,1,0.3
				c0.2,0.1,0.3,0,0.5,0c0.9,0.3,1.8,0.7,2.7,1.2c0.7,0.4,1.6-0.6,1-1.2c-0.5-0.5-1.1-1-1.6-1.5c-0.2-0.3-0.5-0.5-0.8-0.8
				c-0.2-0.2-0.5-0.2-0.7-0.2c-0.6-0.4-1.3-0.8-2-1.1c-0.4-0.2-0.8-0.4-1.2-0.6c0,0,0,0,0,0c-0.8-0.7-1.8-1.2-2.9-1.2
				c-1,0-2.2,0.3-2.8,1c-0.2,0.2-0.3,0.4-0.3,0.6c-2.6,1.3-5.2,3.2-6.3,5.8c-0.2,0.4-0.1,0.9,0.1,1.2c0,0,0,0,0,0
				c-0.7,0.7-0.6,1.5,0,1.9c0,1.1,0.1,2.2,0.4,3.3c-0.1,0.3-0.1,0.7-0.1,1.1c0.1,0.4,0.1,0.7,0.2,1c0.3,1.2,2.2,0.9,2.2-0.3
				c0-0.2,0-0.3,0-0.5c0.1-0.2,0.1-0.4,0-0.6c0-0.2-0.1-0.4-0.1-0.6c0,0,0,0,0,0c0.5-1.2,1.1-2.4,1.8-3.5c0.2-0.3,0.3-0.5,0.5-0.7
				c0.1,0.4,0.4,0.9,0.6,1.2c0.1,0.2,0.3,0.5,0.5,0.7c0.1,0.2,0.2,0.4,0.2,0.6c0.4,1.3,0.6,2.6,1.5,3.5c0.1,0.8,0.3,1.5,0.4,2.3
				c0.1,0.4,0.5,0.5,0.8,0.4c0,0,0.1,0.1,0.2,0.1c0.2,0.4,0.4,0.8,0.6,1.1c0.2,0.4,0.8,0.1,0.7-0.3c-0.1-0.4-0.2-0.9-0.3-1.3
				c0,0,0-0.1,0-0.1c0-0.3-0.1-0.7-0.2-1c0.1-1-0.1-2-0.3-2.9c-0.2-1-0.4-2-0.8-2.9c0.1,0,0.3,0.1,0.4,0.1c0,0,0,0,0,0
				c0.8,1.2,1.5,2.4,2.4,3.6c0.1,0.3,0.2,0.6,0.4,0.9c0.1,0.2,0.3,0.3,0.5,0.4c0.2,0.4,0.4,0.9,0.6,1.3c0.1,0.3,0.4,0.3,0.6,0.2
				c0.3,0.6,0.6,1.2,1.1,1.7c0.1,0.1,0.4,0,0.4-0.1c0-1.2-0.5-2.3-0.9-3.4c-0.3-1.2-0.6-2.3-1-3.4c-0.4-1.2-0.7-2.4-1.1-3.6
				c0,0,0.1,0,0.1-0.1c0.4,0.5,0.9,1,1.3,1.5c0.8,1.7,1.8,3.3,3,4.8c0.1,0.1,0.3,0.2,0.4,0.3c0.1,0.4,0.2,0.8,0.3,1.1
				c0.1,0.3,0.3,0.4,0.6,0.4c0.1,0.5,1.2,0.5,1.1-0.3c0,0,0-0.1,0-0.1C251.7,176.2,251.9,176,251.8,175.7z"/>
			<path class="st13" d="M164.4,176.1c0-0.1-0.1-0.2-0.1-0.3c-0.4-1.1-0.8-2.3-1.4-3.4c0-0.1-0.1-0.1-0.2-0.2
				c-0.2-0.4-0.5-0.9-0.8-1.3c-0.1-0.2-0.1-0.5-0.1-0.8c-0.1-0.1-0.2-0.3-0.3-0.4c-0.2-0.3-0.6-0.8-0.6-1.2
				c-1.2-0.1-2.5-0.4-3.7-0.2c-0.6-0.5-1.3-1-2-1.5c-0.5-0.8-1.1-1.7-1.6-2.5c0.1-0.2,0.2-0.3,0.3-0.5c0.2-0.3,0.1-0.6-0.2-0.8
				c0.1-0.5-0.5-0.8-0.9-0.6c-0.7,0.3-1.4,0.7-2,1c-0.7,0.2-1.5,0.7-1.9,0.9c-0.2,0.1-0.3,0.2-0.3,0.3c-0.4,0.2-0.9,0.4-1.3,0.7
				c-0.1,0-0.1,0.1-0.1,0.2c-1.5,0.4-2.9,0.9-4.3,1.7c-0.6,0.4-0.2,1.2,0.5,1c0.4-0.1,0.8-0.3,1.2-0.4c0,0,0,0,0,0
				c0.2,0,0.3,0,0.5,0c0.1,0,0-0.1,0-0.1c-0.1,0-0.1,0-0.2,0c0.4-0.2,0.8-0.3,1.2-0.5c0.7-0.2,1.3-0.3,1.4-0.3
				c0.4-0.1,0.7-0.1,1.1-0.2c0.3,0,0.6,0,0.9,0c0.3,0,0.6,0,0.9,0c0,0.3,0,0.6,0,0.9c0,0.4,0,0.8,0,1.2c0,0.3,0,0.6,0,0.9
				c-0.5,1.1-1,2.1-1.5,3.2c-1,1.5-2.2,2.8-2.8,4.5c0,0.1,0,0.2,0,0.2c0,0-0.1,0.1-0.1,0.1c-0.2,0.3,0.2,0.5,0.4,0.4
				c1.7-0.9,3-2.5,4.2-3.9c0.7-0.8,1.5-1.7,2.2-2.7c-0.3,1.2-0.6,2.4-0.9,3.6c-0.6,2.3-1.4,4.5-1.6,6.9c0,0.3,0.4,0.4,0.5,0.1
				c0,0,0-0.1,0.1-0.1c0,0,0,0,0.1,0c1.8-2.6,3.4-5.4,5-8.2c-0.1,0.7-0.1,1.5-0.2,2.2c-0.2,2.5-0.6,5.1-0.4,7.7
				c0,0.3,0.4,0.4,0.5,0.1c0,0,0-0.1,0-0.1c0.1,0,0.1,0,0.1-0.1c1.4-3,2.6-6.2,3.6-9.5c0.1,0.1,0.2,0.1,0.4,0.2
				c1,0.7,1.7,1.6,2.3,2.7c0.1,0.2,0.2,0.3,0.4,0.3c0.1,0.2,0.1,0.3,0.2,0.5c0.3,0.7,1.5,0.2,1.2-0.5c0-0.1-0.1-0.2-0.1-0.3
				c0.1-0.1,0.1-0.2,0.1-0.3C164.3,176.7,164.5,176.4,164.4,176.1z"/>
			<path class="st5" d="M198.3,92.5c-0.7-1-2.8-1.7-3.9-1.1c-0.1-0.2-0.3-0.4-0.6-0.3c-0.8,0.2-1.5,0.6-2.2,1.1
				c-0.5,0.3-1.2,0.8-1.2,1.5c0,0.3,0.4,0.3,0.5,0.1c0.1-0.1,0.2-0.2,0.3-0.2c0,0.1,0,0.1,0.1,0.2c0.9,0.1,1.8-0.1,2.7-0.1
				c1.1,0,2.2,0.1,3.3,0.4c0.5,0.1,0.8-0.2,0.8-0.6C198.3,93.1,198.5,92.8,198.3,92.5z M192.7,92.5c0.4-0.2,0.9-0.4,1.4-0.6
				c0,0,0,0.1,0.1,0.1c0.3,0.2,0.7,0.3,1.1,0.3C194.4,92.3,193.5,92.4,192.7,92.5z"/>
			<path class="st5" d="M184,93.6c-1.2-1-3-0.7-4.3,0c-0.3,0.1-0.1,0.5,0.2,0.5c0.6-0.1,1.3-0.1,1.9,0c0.1,0,0.1,0,0.2,0
				c-1.2,0.1-2.4,0.4-3.5,1c0.3-0.3,0.7-0.6,0.9-1c0.2-0.4-0.2-0.8-0.6-0.7c-0.6,0.2-1.1,0.8-1.4,1.4c-0.3,0.5-0.5,0.9-0.6,1.4
				c0,0-0.1,0-0.1,0.1c-0.2,0.1-0.1,0.3,0,0.4c0,0,0,0,0,0.1c0,0.3,0.4,0.5,0.5,0.2c0-0.1,0.1-0.2,0.2-0.3c1.9-0.8,3.8-1.2,5.9-1.3
				c0.5,0,0.7-0.5,0.6-0.9C184.1,94.2,184.3,93.9,184,93.6z"/>
			<path class="st14" d="M198.7,86.3c-0.2-0.1-0.4-0.2-0.5-0.3c-0.1-0.2-0.2-0.3-0.5-0.3c0,0,0,0,0,0c-0.3-0.2-0.7-0.3-1-0.5
				c-0.1-0.1-0.1-0.1-0.2-0.2c-0.2,0-0.3-0.1-0.5-0.1c-0.1,0-0.2-0.1-0.4-0.1c-0.1,0-0.2,0-0.3,0.1c-0.4-0.1-0.7-0.1-1.1-0.2
				c-0.8,0-1.4,0.2-2.1,0.5c-0.1,0-0.1,0.1-0.1,0.2c-0.3,0.1-0.6,0.1-0.8,0.2c-0.1,0-0.2,0.1-0.2,0.2c-0.4,0.2-0.8,0.5-1.2,0.9
				c-0.3,0.3-0.2,0.8,0.1,1c0,0,0,0.1,0,0.1c0.1,0.3,0.4,0.4,0.7,0.4c0.3,0.2,0.7,0.3,0.9,0c0.1-0.1,0.2-0.3,0.1-0.4
				c0.5-0.2,1-0.4,1.6-0.6c0.2-0.1,0.4-0.1,0.6-0.2c1.1,0.1,2.2,0.2,3.3,0.4c0.2,0,0.3-0.1,0.4-0.2c0.1,0,0.2,0,0.3,0
				c0.1,0,0.3,0.1,0.4,0.1C198.8,87.5,199.3,86.7,198.7,86.3z"/>
			<path class="st14" d="M211.6,87c-0.1-0.5-0.5-0.7-0.9-0.6c-0.2-0.5-0.5-1-0.9-1.4c-0.2-0.3-0.4-0.7-0.6-1c0-0.8,0-1.6-0.1-2.3
				c0.1-0.2,0.2-0.4,0.2-0.6c0-1,0-2,0-3c0-0.4-0.2-0.7-0.4-0.9c0-0.3,0-0.6-0.1-0.9c0-0.3-0.1-0.5-0.3-0.7c-0.1-0.5-0.2-1-0.3-1.5
				c-0.1-0.7-0.8-1-1.5-1c-1.5-2.2-3.7-3.1-6.3-3.6c-0.9-1-1.7-2-2.5-3.1c-0.2-0.3-0.5-0.5-0.8-0.5c-0.2-0.2-0.4-0.3-0.6-0.5
				c-2.1-1.6-4.9-2-7.1-0.9c0,0,0,0,0,0c-0.2,0-0.4,0-0.5,0.1c-0.3,0-0.7,0.1-1,0.1c-0.3,0-0.6,0.2-0.7,0.4c-0.5,0.1-0.9,0.4-1,0.9
				c-1.3,0.7-2.4,1.8-3.4,3.1c-0.1,0.2-0.2,0.3-0.2,0.5c-0.7-0.2-1.5-0.3-2.3-0.2c-1-0.3-2.2-0.1-3.1,0.5c-1.2,0.8-2,2-2.4,3.4
				c0,0,0,0.1,0,0.1c-0.1,0.1-0.1,0.1-0.2,0.2c-1.9,2.1-4.2,4.1-5.9,6.4c-0.1,0.1-0.2,0.3-0.3,0.4c-0.6-0.2-1.3,0.1-1.6,0.8
				c-0.8,2-0.6,4.7,0.4,6.8c0.3,1.6,0.7,3.2,1.1,4.7c-0.3,0.9-0.5,1.8-0.7,2.8c-0.3,0.6-0.4,1.2-0.2,1.9c0,0,0,0.1,0,0.1
				c0,0.2,0,0.5,0,0.7c0,0.2,0.1,0.4,0.1,0.6c0,0.9,0.3,1.8,0.9,2.3c0.4,0.6,1.1,0.9,1.8,1.2c0.4,0.1,0.8,0.2,1.2,0.2
				c0.3,0.4,0.7,0.7,1.2,0.9c0.7,0.3,1.7,0.6,2.4,0.1c0,0,0.1-0.1,0.1-0.1c0.5,0,1-0.4,0.7-1c-0.1-0.1-0.1-0.2-0.2-0.3
				c0.1-0.3,0-0.7-0.3-1c-0.1-0.1-0.2-0.1-0.3-0.2c-0.6-1.2-1.2-2.4-1.8-3.6c0-0.3-0.1-0.6-0.2-0.9c1.6-1.4,2.9-3.3,3.4-5.4
				c0.1,0.1,0.2,0.2,0.3,0.2c0,0,0,0,0,0c-0.3,0.2,0.1,0.6,0.4,0.5c0.1,0,0.1,0,0.2-0.1c0.1,0.1,0.3,0.1,0.5,0.1
				c1.3-0.3,2.7-0.7,3.9-1.3c0.8-0.4,1.5-1,1.4-1.9c0-0.4-0.3-0.7-0.7-0.6c-0.7,0-1.3,0.1-1.9,0.2c-0.2,0-0.4,0.2-0.4,0.3
				c-0.4,0.1-0.7,0.3-1.1,0.4c-0.8,0.3-1.6,0.7-2.4,1.2c0.1-0.9,0.1-1.8,0-2.7c-0.1-0.4-0.4-0.7-0.8-0.8c0-0.6,0.1-1.1,0.1-1.7
				c0.3-0.7,0.6-1.3,1-1.9c0.6-0.4,1.3-0.9,1.9-1.4c0.3-0.2,0.6-0.4,0.9-0.7c1.2-0.4,2.3-1.1,3.1-2c0.3,0,0.7-0.1,0.9-0.3
				c0.5-0.5,0.7-1.2,0.8-1.8c0.1-0.3,0.1-0.6,0.1-0.9c0-0.1,0-0.1,0-0.2c0,0,0,0,0,0c0,0,0-0.1,0-0.1c0.2-0.4,0.4-0.8,0.6-1.1
				c0.2-0.5,0.4-1,0.4-1.5c0.3-0.2,0.6-0.3,0.8-0.5c0.3-0.1,0.5-0.1,0.8-0.1c0.8,0.1,1.7,0.1,2.6,0.1c0.2,0,0.3,0,0.4-0.1
				c0.3,0,0.5,0.1,0.8,0.1c0.9,0.5,1.6,1.1,2.3,1.8c0,0.1,0,0.2,0.1,0.3c0.3,0.9,0.6,1.8,0.9,2.7c0.1,1.5,0.8,2.8,2,3.9
				c0.1,0.1,0.2,0.1,0.3,0.2c0.1,0.2,0.2,0.4,0.4,0.6c0.3,0.2,0.6,0.5,0.8,0.7c0.2,0.2,0.5,0.3,0.7,0.3c0.8,0.5,1.5,1,2.2,1.6
				c0.6,0.5,1.1,1,1.7,1.6c0.1,0.3,0.1,0.7,0.2,1c0,0.1,0.1,0.2,0.1,0.3c0.1,0.5,0.2,1,0.4,1.3c0.1,0.1,0.2,0.2,0.3,0.2c0,0,0,0,0,0
				c0,0,0,0.1,0,0.1c0,0,0,0,0.1,0c0.2,0.3,0.5,0.6,0.8,0.8c0.1,0,0.1,0.1,0.2,0.1c0,0.1-0.1,0.2-0.1,0.3c-0.1,0.3,0.2,0.4,0.4,0.4
				c0,0,0,0.1,0,0.1c0,0.4,0.6,0.5,0.7,0.1c0.1-0.2,0.2-0.5,0.4-0.9c0.4-0.3,0.8-0.4,1.3-0.4c0.4,0.4,0.8,0.8,1.2,0.9
				c0.1,0.2,0.1,0.4,0.2,0.6c0.2,1.1,0.5,2.2,0.8,3.3c0,0.6,0,1.3,0.1,1.9c0,0.5,0.8,0.5,0.8,0c0-0.2,0-0.4,0-0.7
				c0.3-0.1,0.5-0.3,0.4-0.6c-0.1-0.5-0.2-1-0.3-1.5c0.2-0.1,0.4-0.4,0.3-0.7c-0.1-0.3-0.2-0.6-0.3-0.9c0.1-0.1,0.1-0.3,0.1-0.5
				c0-0.1,0-0.2-0.1-0.3c0.3,0,0.5-0.2,0.5-0.5c0-0.1,0-0.1,0-0.2h0c0,0,0-0.1,0-0.1c0-0.2,0-0.4,0-0.6c0.2-0.1,0.4-0.2,0.4-0.6
				C211.8,88.4,211.7,87.7,211.6,87z"/>
		</g>
		<path class="st7" d="M176.8,104.9c0,0-1.4-0.9-6.7-2.5s-2.2-8.9-2.1-9.8c0.1-0.9-3.9-9.1-1-11.3c1.6-1.2,3.3-2.8,4.5-4
			c1.1-1.1,2-2.5,2.6-3.9c3.3-7.9,11.3-3,11.7-1.1c0.1,0.7,0.1,1.4-0.3,2.2c-1.5,3.2,1.5,3.3-7.1,7.8c0,0-3.4,1.9-1.8,6.1
			c1.6,4.2-3.9,9-3.9,9s-2.3,1.5-0.5,3.2C174,102.1,176.8,104.9,176.8,104.9z"/>
		<path class="st7" d="M182.4,69.1c0,0,2.8-5,9-5.3c3.6-0.2,6.9,1.7,8.8,4.8c0.4,0.7,1.5,1.3,2.1,1.3c1.8,0.1,6,2.6,7,7.1
			c1,4.9-1.2,5.3,1.5,8.8s0,5.3,0,5.8c0,0.1,0.1,0.5,0.2,0.9c0.5,1.9,0.5,4-1,5.2l0,0"/>
		<path class="st7" d="M185.9,73c0,0,6.2-1.5,7.5,1.2s1.9,7.7,5.2,8.6s4.3,3.7,4.3,5s2.8,3.3,2.8,3.3"/>
		<path class="st7" d="M204.4,94.2c0,0,2.7-6.9,3.9-4.1c1.3,2.8,2.5,7.2,0.8,9.5s-2,2.5-3.8,1.3c-0.6-0.9-1.9,8.4-7.1,13.5
			c-2.5,2.5-4.7,6-13,0c-1.6-1.2-3.1-2.5-4.4-4.1c-2.4-2.9-5.9-8.1-7.3-13.8"/>
		<path class="st7" d="M176.9,90.1c-1-0.3,5.6-4.1,5.9-1.4c0.3,2.4-6.4,3.4-6.4,3.4l0.4-1.7"/>
		<path class="st7" d="M199.6,87.6c0,0-6-0.9-7.7,0.3c-1.7,1.2-2.9-0.1-2-1.4c1-1.3,3-2.3,5.8-1.7c1,0.2,1.9,0.8,2.6,1.5L199.6,87.6
			"/>
		<path class="st7" d="M182.9,89c0,0,2.7,0.6,3,3.3c0.4,2.7-0.1,7.8-0.7,8.6c-0.6,0.8-0.8,2,0.4,2.4c1.3,0.3,3.4,0.2,4.4-0.6"/>
		<path class="st7" d="M190.7,100.3c1,0.7,1.7,0.8,1.7,1.8c0,0.4-0.8,0.9-0.8,0.9"/>
		<path class="st7" d="M190.7,93.4c0,0,2.1-5.5,7.9-0.4"/>
		<path class="st7" d="M176.9,96.5c0-0.8,2.5-5.1,7.1-2.6"/>
		<circle class="st0" cx="194.3" cy="92.4" r="1.5"/>
		<circle class="st0" cx="180.1" cy="94.8" r="1.6"/>
		<path class="st7" d="M206.9,93.9c0,0-1,1.2-1.2,2.5c-0.1,0.6,0,1.1,0.3,1.6"/>
		<path class="st7" d="M207.6,95.6c-1.9,0.5-1.9,1.3-1.9,1.3"/>
		<path class="st7" d="M176.8,104.9c0,0-6.6-2-8.2,4.7c-1.6,6.7-3.1,26.6-4.2,29c-1,2.4-11.3,23.3-11.3,23.3s2.4,7.7,7.1,6.2
			c0,0,7.4-6.7,10.2-12.2s3.7-7.9,4-8.8"/>
		<path class="st7" d="M175.3,132.2l-1.8,35.3l-1,9.9c0,0,19.1,14,36.4,6.2c0.8-0.4,2.5-1,3.3-1.2c1.8-0.5,4.7-2.4,5.4-6.6
			c1-5.9-1.1-27.3-1.1-27.3"/>
		<path class="st7" d="M209.7,127.6c0,0,4.4,18.2,9.3,25.2c4.9,7,13.1,14.5,13.1,14.5s6.8-8,10.7-7.7c0,0-11.9-9.4-14.6-17.6"/>
		<path class="st7" d="M209.1,99.6c0,0,10.7-0.8,13.3,15.2c2.5,16,4.9,25,5.9,27.8"/>
		<line class="st7" x1="173.6" y1="178.4" x2="168.6" y2="234.4"/>
		<path class="st7" d="M186.9,191.8c0,0,4.8,1.3,5.9,4.1c1.2,2.9,6.4,38.4,6.4,38.4"/>
		<path class="st7" d="M215.7,180c0,0,2,14.6,2.5,19.3c0.4,4.7,4.6,35,4.6,35"/>
		<path class="st7" d="M181.7,69.5c0,0-6.3,3.7-4.8,4.6C178.4,74.9,181.7,69.5,181.7,69.5z"/>
		<path class="st7" d="M184,70.2c0,0-0.1,0-0.2,0.1c-0.9,0.8-4.9,4.4-4.4,5.5c0.5,1,2.2-0.1,2.8-0.9C182.6,74.3,183.9,70.3,184,70.2
			"/>
		<path class="st7" d="M183.5,69.5c-0.2-0.4,3.2-3.8,5.1-3.1C190.2,67,183.5,69.5,183.5,69.5z"/>
		<path class="st7" d="M184.9,70.5c0,0,5.6-2.4,6.6-1.5C192.7,69.9,184.9,70.5,184.9,70.5z"/>
		<path class="st7" d="M186.8,110.7c0,0,4.3-6.4,11.2-4.3"/>
		<path class="st7" d="M153,162.1l-10,5.2c0,0-2.2,1.6,0.4,1.2c2.3-0.4,5.7-2,6.7-1.1c1,1-4.2,9.7-4.2,9.7s-1,2.6,1.6,0.6
			s5.2-6.5,5.2-6.5s-3.8,11.1-2.7,11.7c1.1,0.5,5-7.2,5.9-10.3c0,0-2.1,12.1-0.9,12c1.9-0.2,3.6-10.1,4.1-10.1
			c1.6-0.2,3.4,3.1,3.8,3.8c0.6,1.1,1.6-0.3,1.2-2.4c-0.3-2.1-3.5-7.2-3.5-7.2"/>
		<path class="st7" d="M232,167.4l0.7,7.3c0.1,0.7,0.4,1.3,1,1.7c0.5,0.3,1,0.4,1.3-0.6c0.6-2,1.9-5.7,2.5-5.5
			c0.6,0.2,4.5,11.7,5.3,10.2c0.7-1.4-0.5-9-1.4-10.3c0,0,6.1,10.1,5.7,9.3c-0.3-0.8,0.8,1.4,0.8-0.8c0-2.2-3.7-10.1-3.7-10.1
			c0.9,0.3,4.5,6.2,6.2,8c1.2,1.3,1.3,0.2,1-1.5c-0.3-1.8-4.9-9.9-5.5-10.2c0.7,0.2,5.6,2.4,5.7,1.7c0-0.1,0.2-1-1.5-2.4
			c-1.7-1.4-7.4-4.4-7.4-4.4"/>
		<path class="st7" d="M237.9,166.2c0,0,3-2.6,5.5-2.2"/>
		<path class="st7" d="M239.9,167.4c0,0,1.6-1.3,2.7-1.2"/>
		<path class="st7" d="M153.4,167.4c0,0,2.9,2.7,3.9,2.8"/>
		<path class="st7" d="M152.1,168.4c0,0,3.3,3.4,5.2,3.2"/>
		<line class="st7" x1="194" y1="201.3" x2="191.2" y2="234.4"/>
	</g>
	<rect x="47.2" y="232.5" class="st5" width="195.4" height="19.8"/>
</g>
</svg>
