<?xml version="1.0" encoding="utf-8"?>
<!-- Generator: Adobe Illustrator 22.1.0, SVG Export Plug-In . SVG Version: 6.00 Build 0)  -->
<svg version="1.1" xmlns="http://www.w3.org/2000/svg" xmlns:xlink="http://www.w3.org/1999/xlink" x="0px" y="0px"
	 viewBox="0 0 283.5 283.5" style="enable-background:new 0 0 283.5 283.5;" xml:space="preserve">
<style type="text/css">
	.st0{fill:#575756;stroke:#000000;stroke-miterlimit:10;}
	.st1{fill:#C3D9F1;stroke:#000000;stroke-width:0.8672;stroke-miterlimit:10;}
	.st2{fill:#9D9D9C;stroke:#000000;stroke-width:0.6132;stroke-miterlimit:10;}
	.st3{fill:#3C3C3B;stroke:#000000;stroke-width:0.6132;stroke-miterlimit:10;}
	.st4{fill:#3C3C3B;stroke:#000000;stroke-width:0.6282;stroke-miterlimit:10;}
	.st5{opacity:0.2;fill:#FFFFFF;}
	.st6{fill:none;stroke:#000000;stroke-width:2.414;stroke-linecap:round;stroke-linejoin:round;stroke-miterlimit:10;}
	.st7{fill:none;stroke:#000000;stroke-width:2.1609;stroke-linecap:round;stroke-linejoin:round;stroke-miterlimit:10;}
	.st8{fill:none;stroke:#000000;stroke-width:1.6163;stroke-linecap:round;stroke-linejoin:round;stroke-miterlimit:10;}
	.st9{fill:none;stroke:#000000;stroke-width:2.4461;stroke-linecap:round;stroke-linejoin:round;stroke-miterlimit:10;}
	.st10{fill:none;stroke:#000000;stroke-width:2.1897;stroke-linecap:round;stroke-linejoin:round;stroke-miterlimit:10;}
	.st11{fill:none;stroke:#000000;stroke-width:1.6378;stroke-linecap:round;stroke-linejoin:round;stroke-miterlimit:10;}
</style>
<g id="Слой_1">
</g>
<g id="Слой_4">
	<g>
		<path class="st0" d="M189.5,193.1l-54.6,19c-5.6,1.9-11.6-0.6-14.2-5.7c-0.2-0.5-0.5-0.9-0.6-1.4l-6.7-19.2l-2.3-6.5l-7.2-20.8
			L83.5,99.4c-2.1-6.1,1.1-12.7,7.1-14.8l54.6-19c2.2-0.8,4.4-0.8,6.5-0.3c3.7,0.9,7,3.6,8.3,7.5l2.3,6.7l2.2,6.4l7.3,20.8
			l24.9,71.6C198.8,184.4,195.6,191,189.5,193.1z"/>
		<path class="st1" d="M184.1,185.5l-49.6,17.3c-4.6,1.6-9.7-0.8-11.3-5.5l-32.7-93.8c-1.6-4.6,0.8-9.7,5.5-11.3L145.6,75
			c4.6-1.6,9.7,0.8,11.3,5.5l32.7,93.8C191.2,178.9,188.7,183.9,184.1,185.5z"/>
		<circle class="st2" cx="158.3" cy="191.4" r="7.4"/>
		<circle class="st3" cx="134.5" cy="73.8" r="2.5"/>
		<path class="st4" d="M128.7,77.9l-21.2,7.4c-1,0.4-2.2-0.2-2.5-1.2v0c-0.4-1,0.2-2.2,1.2-2.5l21.2-7.4c1-0.4,2.2,0.2,2.5,1.2l0,0
			C130.3,76.4,129.8,77.6,128.7,77.9z"/>
		<path class="st5" d="M158.2,86.7l-2.9,5.7l-37.6,73.9l-2.9,5.7l-6.1-17.7l2.9-5.7v0l33.5-66l4.3-6.9c3.2,0.8,5.6,1.9,6.8,5.3
			L158.2,86.7z"/>
		<polygon class="st5" points="167.4,112.2 164.6,117.8 128.2,191.8 125.3,197.8 124.8,198.8 118.7,181 118.7,181 122,174.4 
			158.6,100 161.4,94.3 		"/>
		<g>
			<path class="st6" d="M66.5,53.8c0,0-26.1,20.8-28.1,49.6"/>
			<path class="st7" d="M74.5,62.8c0,0-23.3,18.6-25.2,44.4"/>
			<path class="st8" d="M81.3,75.2c0,0-17.4,13.9-18.8,33.2"/>
		</g>
		<g>
			<path class="st9" d="M245,186.8c0,0-11.6,31.7-38.7,42.9"/>
			<path class="st10" d="M233.8,182c0,0-10.4,28.4-34.6,38.4"/>
			<path class="st11" d="M219.7,179.4c0,0-7.8,21.2-25.9,28.7"/>
		</g>
	</g>
</g>
</svg>
