<?xml version="1.0" encoding="utf-8"?>
<!-- Generator: Adobe Illustrator 22.1.0, SVG Export Plug-In . SVG Version: 6.00 Build 0)  -->
<svg version="1.1" xmlns="http://www.w3.org/2000/svg" xmlns:xlink="http://www.w3.org/1999/xlink" x="0px" y="0px"
	 viewBox="0 0 283.5 283.5" style="enable-background:new 0 0 283.5 283.5;" xml:space="preserve">
<style type="text/css">
	.st0{fill:#FCD4B6;}
	.st1{fill:#662327;}
	.st2{fill:#BD222E;}
	.st3{fill:#C3D9F1;}
	.st4{fill:#352723;}
	.st5{fill:#FFFFFF;}
	.st6{fill:none;stroke:#000000;stroke-linecap:round;stroke-linejoin:round;stroke-miterlimit:10;}
	.st7{fill:none;stroke:#000000;stroke-width:0.75;stroke-linecap:round;stroke-linejoin:round;stroke-miterlimit:10;}
	.st8{fill:#D7E8F9;}
	.st9{fill:#8FD0E4;}
	.st10{fill:#FCD4B8;}
	.st11{fill:#FBBB15;}
	.st12{fill:#98999C;stroke:#000000;stroke-linecap:round;stroke-linejoin:round;stroke-miterlimit:10;}
	.st13{fill:#FBBB15;stroke:#000000;stroke-linecap:round;stroke-linejoin:round;stroke-miterlimit:10;}
	.st14{fill:none;stroke:#000000;stroke-width:2;stroke-linecap:round;stroke-linejoin:round;}
	.st15{fill:none;stroke:#000000;stroke-width:2;stroke-linecap:round;stroke-linejoin:round;stroke-dasharray:10.2741,10.2741;}
	.st16{fill:#E41B20;stroke:#000000;stroke-width:0.75;stroke-miterlimit:10;}
	.st17{fill:none;stroke:#000000;stroke-width:3;stroke-linecap:round;stroke-linejoin:round;stroke-miterlimit:10;}
	.st18{fill:none;stroke:#E41B20;stroke-width:0.3313;stroke-miterlimit:10;}
</style>
<g id="Слой_1">
</g>
<g id="Слой_8">
	<g>
		<path class="st0" d="M172.9,92.7c0,0,0.3-3.3,0.5-3.5c0.1-0.2-2.5-3.6-2.5-3.6l-1.4-5.1l-3-1.4l-1.1-4.1l1.7-2.3l0.7-1.2
			c0,0,1.3-0.8,1.5-0.9s2.3-2.4,2.3-2.4l0.8-2.4l2.2-0.9c0,0,2.6-2.7,2.8-3c0.2-0.3,1.5-2.3,1.5-2.3l0.8-0.6l2.2,1.8l1.4,1.8
			l0.2,1.8l1.1,2.6l2.6,2.9h1.7l2.2,0.7l0.5,3l-0.7,3.5l-0.8,1.2l-2.6,0.9v2.2l-4.8,7.2l1.1,4.3L184,93l-8.4,0.4l-2.7-0.3
			L172.9,92.7z"/>
		<polygon class="st0" points="156.5,154.7 156.8,159.8 161.5,160.2 161.5,155.1 		"/>
		<polygon class="st0" points="158,165.4 159.5,169.7 163,175.3 162.9,170.1 162.7,165.5 		"/>
		<polygon class="st0" points="192.4,153.5 192.6,159 197.3,158.2 197.5,154.2 197.3,152.8 		"/>
		<polygon class="st0" points="192.5,164.8 197.8,163.4 197.8,164.8 196.4,168.7 193.6,172.5 192.6,173.9 192.6,168.3 		"/>
		<path class="st1" d="M172.8,88.6l-2.8-5.3l-0.8-2.9l-3-1.7l-0.8-3.5l1.1-2.5l1.2-1.4l2.1-1.2l2-3.1l0.2-1.7l3.7-1.3l1.8-2.8l2-2.7
			l1.3,0.7l2.3,3.2l0.6,2.2l1.3,2.7l2.4,2.3h2.2l0.9,0.6l0.9,2.6l-0.5,3.6l-0.9,1.6l-2,0.8l-0.9,1.9l-2.5,5l-1.9,2.2l0.8,2.5
			l1.1-1.4l1.5-1.6l3.6-1.7l2.1-2.4l0.7-4.3l0.3-2.6l1.2-1.3l0.9-2.3l-0.5-3.2l-1.4-3.1l-0.3-2l0.5-1.9l0.3-3.9c0,0-1.6-2.1-1.7-2.2
			c-0.1-0.2-3.8-3.2-3.8-3.2l-2-1l-3,0.1l-3.4,0.4l-3.2-0.9l-2.7-0.7l-3.1,0.4l-3.3,2.2l-3.7,5.5l-1.3,3.6l-0.2,1.4l1.3,2.1
			l-0.4,2.2l-1,1.4l-2.7,2.8l-0.6,2.8l0.8,2.6l2.1,4.1l1.8,2.4l2.8,1.9l3.9,1.7l3.4,1.8l0.2-1L172.8,88.6z"/>
		<path class="st2" d="M192.2,157.5l-30.2,0.8l-0.5-3.1l-9-0.9l-0.5-7.6l0.8-17.6l0.8-24.6l0.4-5.2c0,0,2-5.7,2.5-5.8
			c0.5-0.1,4.4-2.7,4.4-2.7l3.5,0.4l6.5,1.5l8.3,1l6-1l3.2-1.5l2.9-0.9l3.6,0.7l1.5,1.8l1,3.6l0.7,15.8l0.6,15.3l1,24.5l-0.7,1
			l-4,0.3l-3,0.4V157.5z"/>
		<polygon class="st3" points="161.5,157.9 161.5,160.2 163.9,160.8 184.4,160.2 192.6,159 192.2,157.5 		"/>
		<path class="st3" d="M195.1,231.3l-2.6,1.1c0,0-6.2,1-6.4,1c-0.2,0-4.3,0-4.3,0l-1.1-0.8l-0.7,1.2l-1.5,0.8c0,0-4,0.3-4.2,0.2
			c-0.3-0.1-5.8-2.4-5.8-2.4l-2-1.7l-0.4-5.3l-1-17.4l-1.5-26.8l-0.9-15.7h13.2l9.4-0.5l6.6-0.8l0.5,1.5l0.4,16.8l1.1,26.4l0.8,17.9
			L195.1,231.3z"/>
		<path class="st4" d="M167.6,232.1l-4.1,2.1l-6.4,3l-0.9,1l0.5,1.8l1.4,1.2h6.3l12.8-1.1l2.6-0.4l1.1-2l-0.3-3.8l-2,0.9
			c0,0-2.6,0.9-2.8,0.7s-6.2-2-6.2-2L167.6,232.1z"/>
		<polygon class="st4" points="181.8,234.1 181.8,236.4 182.3,238.8 185.1,239.9 190.6,240.1 203.2,240.1 205.6,239.6 206.8,238.4 
			206.6,237.1 202.6,235.6 195.9,232.8 194.2,231.6 192.1,232.7 186.8,233.3 182.2,233.5 		"/>
		<path class="st5" d="M173,73c0,0-0.1-0.1-0.1-0.2c0.2-0.9-1.1-1.2-1.4-0.4c-0.5,0.1-0.8,0.6-0.3,1c0.2,0.1,0.5,0.3,0.7,0.5
			C172.6,74.3,173.6,73.7,173,73z"/>
		<path class="st5" d="M174.9,72c-0.2-0.4-0.6-0.4-0.9-0.2c-0.1,0-0.1,0-0.2,0.1c-0.3,0.2-0.3,0.5-0.4,0.9c-0.1,0.3-0.2,0.6-0.1,1
			c0.1,0.2,0.3,0.3,0.5,0.3C174.8,74.2,175.3,72.9,174.9,72z"/>
		<path class="st5" d="M183.2,71.6c-0.4-0.4-1.3-0.3-1.3,0.4c0,0.3-0.1,0.8-0.2,1.1c0,0,0,0,0,0c0,0,0,0,0,0c0-0.1-0.1-0.2-0.2-0.2
			c0-0.2,0-0.4,0-0.6c-0.1-0.7-0.9-0.8-1.2-0.4c-0.2,0-0.5,0.2-0.4,0.5c0,0.1,0.1,0.2,0.1,0.3c0.1,0.3,0.3,0.7,0.6,0.9c0,0,0,0,0,0
			c0,0,0.1,0.1,0.1,0.1c0.2,0.1,0.6,0.1,0.8,0c0,0,0,0,0,0c0,0,0,0,0,0c0.3,0.4,0.9,0.2,1.2,0c0.4-0.3,0.7-0.7,0.9-1.2
			C183.8,71.9,183.5,71.7,183.2,71.6z"/>
		<path class="st3" d="M171.5,76.6l0.4,3.9l0.1,3.7l-1.1,1.4l1.3,1.9l1.9,1.8c0,0,3,1.6,4.2,1.1s3.4-1.4,3.4-1.4l1.7-1.4l1.9-3.1
			l-0.8-2.2l-0.5-5.8l-3.7,0.9l-3.3,0.5l-4.1-1.3H171.5z"/>
	</g>
</g>
<g id="Слой_7">
	<path class="st6" d="M162.7,165.8l3.6,64.4c0,0.7,0.4,1.3,0.9,1.6c0.1,0.1,0.3,0.2,0.5,0.3c2.8,1.8,9.2,5.2,13.2,1.1
		c0,0-3.9-59.4-2.6-62.8"/>
	<path class="st6" d="M180.5,233.8c0,0,0.6,4.9-0.5,5.7c-1,0.7-16,1.4-20.7,1.6c-1.2,0.1-2.3-0.5-2.9-1.5c-0.5-0.9-0.5-2,1.4-2.7
		c3.8-1.5,9.8-4.7,9.8-4.7"/>
	<path class="st6" d="M192.1,164.8l2.7,63.5c0,0.8,0.2,1.6,0.3,2.4c0.1,0.6-0.5,1.6-5,2.1c-2.3,0.3-4.6,0.8-5.9,0.9
		c-2.4,0.3-3.4-0.6-3.4-0.6"/>
	<path class="st6" d="M152,154.2l1.7-52.5c0.1-2.8,1-5.6,2.8-7.8c1.9-2.2,4.8-4.1,8.8-2.6c8,3,17.5,2.9,20.3,1.1
		c2.8-1.8,5.9-2.7,8.6-1.7c0.8,0.3,3.5,0.5,3.7,12.4s1.8,49.5,1.8,49.5"/>
	<path class="st6" d="M158.4,165.5c0,0,1.1,4.2,1.2,5c0.2,0.8,3.3,4.8,3.3,4.8"/>
	<path class="st6" d="M197.8,163.4c0,0,0.3,3.1-1.3,5.3s-3.9,5.3-3.9,5.3"/>
	<path class="st6" d="M167.4,72.4c0,0-0.1-1.3,1.2-1.8c1.3-0.5,2.4-0.9,2.9-2.7s0.3-3.1,2.8-3.6c2.5-0.5,3.4-4.4,4.3-4.9
		s2.3-5.8,0-6.4s-6.3-3.7-11,0c-4.5,3.6-6.6,10.9-6,11.8c1.4,2,1.8,3.9-0.9,6c-2.7,2-2.9,5.3-1.8,7.3s2.8,7.3,6.9,8.8
		c4.1,1.4,6.9,3.4,6.9,3.4"/>
	<path class="st6" d="M183.4,90.6c0,0,2.2-3.2,4-3.8s4.2-2,4.7-4.3c0.5-2.3-0.1-5.7,0.9-6.3c1-0.7,2.3-2.8,1.5-5.7
		c-0.8-2.8-2.6-4.7-2-5.8c0.6-1.2,0.8-4.7,0.4-6c-0.4-1.5-6-6.9-8.8-6.4c-2.8,0.6-5.7,0.7-5.7,0.7"/>
	<path class="st6" d="M180,58.8c0.5,0.5,3.5,3.4,3.5,5.4s1.9,3.8,2.8,4.7c0.9,0.8,1,1.5,1,1.5"/>
	<path class="st6" d="M186.7,71.3c3-3.8,5.5-0.4,4.5,4.1s-3.8,3.4-3.8,3.4s0.4,0.3-0.8,3.3c-0.8,2-2.7,4.6-4,6.3
		c-0.8,1.1-2,1.9-3.4,2c-4.7,0.7-6.8-2.9-7.9-4.4c-0.1-0.2-0.2-0.3-0.3-0.5c-1-1.9-1.7-5.1-1.7-5.1s-1.2,0-2.6-1.3
		c-1.9-1.7-1.9-4.9,0-6.4c1.8-1.5,2.6,1.4,2.6,1.4s0.7,1.1,2.2,2.1c2.6,1.8,7.8,3.3,15.9-1.8"/>
	<path class="st6" d="M176.9,71.8c0,0,1.4,4.8,1.2,6"/>
	<path class="st6" d="M171.5,76.6c0,0,1.1,6.9,0,8.6"/>
	<path class="st6" d="M184,76.6c0,0-0.2,5.4,0.9,7.2"/>
	<path class="st6" d="M174.5,80.4c0,0,4.1,1.7,6.8,0"/>
	<path class="st6" d="M175.5,83.8c0,0,3.3,0.9,5.3,0"/>
	<path class="st6" d="M176.5,87.3c0,0,2.5,0.8,3.8,0"/>
	<path class="st6" d="M173.3,88.6c0,0,0.4,3.2-0.3,4.1"/>
	<path class="st6" d="M182.8,88.1c0,0,0.3,4.1,1.2,4.6"/>
	<path class="st6" d="M170.8,70.1c0,0,2.6-1.7,4.3-1.7"/>
	<path class="st6" d="M180,67.7c0,0,3.6,0.7,4.5,2"/>
	<path class="st6" d="M171.1,72.5c0,0,1.7-1.4,3.4-0.7"/>
	<path class="st6" d="M180,71.8c0,0,1.8-1.3,3.4,0"/>
	<path class="st7" d="M167.2,74.8c0,0,2.2,1.8,2.1,2.6"/>
	<path class="st7" d="M189.5,72.9c0,0-1.7,2.2-1.6,3.2"/>
	<path class="st6" d="M179.5,54.3c0,0-8.8,0.8-7.5,2C173.3,57.5,179.5,54.3,179.5,54.3z"/>
	<path class="st6" d="M179.5,57c0,0-9.3,1.9-7.8,2.9S179.5,57,179.5,57z"/>
	<path class="st6" d="M180,54.3c0,0,8,1.1,6.5,1.9S180,54.3,180,54.3z"/>
	<path class="st6" d="M180,56c0,0,7.5,2.8,6,3.6s-6-3.2-6-3.2"/>
	<ellipse cx="173.2" cy="73.2" rx="0.9" ry="1.3"/>
	<ellipse cx="181.7" cy="72.7" rx="0.9" ry="1.3"/>
	<path class="st6" d="M152,154.2l8.4,1c1.5,0.2,2.9-1,3-2.5l0.1-1.4l-0.5-43"/>
	<path class="st6" d="M199.8,152.5l-7.4,1c-0.8,0.1-1.4-0.5-1.4-1.3v-1.9l-1.3-41.3"/>
	<line class="st6" x1="161.5" y1="155.6" x2="161.5" y2="160.2"/>
	<line class="st6" x1="192.2" y1="153.7" x2="192.6" y2="159"/>
	<line class="st6" x1="156.8" y1="155.2" x2="156.8" y2="159.8"/>
	<line class="st6" x1="197.3" y1="152.8" x2="197.8" y2="158.2"/>
	<line class="st6" x1="162" y1="158.2" x2="192.4" y2="157.5"/>
	<path class="st6" d="M181.8,233.8c0,0-0.2,4.3,0.7,5.3s3.6,0.9,6.2,1c3.5,0.1,12.8,0,15.3,0c0.5,0,1-0.1,1.4-0.3
		c0.9-0.5,2.1-1.4,0-2.7c-3.1-1.9-10.6-4-10.7-5.4"/>
</g>
<g id="Слой_10">
	<g>
		<path class="st8" d="M101.6,250.8l2.3-1.6l-1.2-3.9l-9.1-5.2l-6.4-2.8l-1.2-5.7l-2-40.1v-6.1l-0.2-18.5l1.3,1.3l3.4-2.1l1-1.7
			l0.4-9.6l-1.1-32.5l5-0.8l20.4-3l7.4-1.1l2.9-2l1.1-2.3l-2.5-4.1l-5.2-0.7l-27-2.8l-4.9-1.1l-4.7-2.4l-2.7-6.8l-3,0.3l-9.5-5.1
			l-2.2-1.1L63.5,89l0.2-4.8l0-13.7l1.3-5.4l1.8-0.4l6.7-1.9l6.3-2.4l2.3-2.5l0.7-0.6L81,52.4l-1.6-4.7l-1.7-1.8l-4-1h-7.4l-6.4,1
			L57.2,48l-3.3,5.9l-2,5.2c0,0,0.4,3.7,0.3,4.1s-1.3,4.4-1.3,4.4l-3.1,13.7v4c0,0,1.2,2.7,2.1,3.4c1,0.8,5,3.1,5,3.1l1.9,1
			l-2.4,0.8l-4.9,2.8l-1.7,2.4l-0.3,6.4l-0.3,23.7l0.8,12.9l0.6,4.5l1,3.3l-0.2,3.1l-2.1,3.7l0.2,5.5l1.7,21.8l3,41.5l1.5,20.9
			c0,0,0.2,2.1,1,2.6c0.8,0.5,4.1,1.6,4.1,1.6l16.8,2.2l12.5,0.4l5.7-0.2c0,0,2.3,0.1,2.5-0.9s0.2-1,0.2-1l2,0.2L101.6,250.8z"/>
		<path class="st9" d="M122.6,108.3l1-7.4l0.8-3.7h0.9l0.1,1.9l1.2,4.3l0.5-0.7l1.4-6.3l2.3-7l1.2-0.1l0.3,1.1l-0.2,1.8l1.6-2.1
			l1-0.6l0.4,0.8l-0.1,1.9l1.4-1.1l0.8,0.3l0.4,1.2c0,0-0.8,4.6-1,5.5s0.5,0.3,0.5,0.3l1.3-0.3v1.3l-1.5,4.6l-3.2,7.2l-2.4,2.8
			l-2.6,1.3l-2.4-0.4l-1-0.3l0.4-2.1l-1.5-2.5l-1.7-1V108.3z"/>
		<polygon class="st9" points="84.7,184.6 86.7,181.9 89.1,176.6 89.3,174.2 87.2,166.8 85.1,168.1 84,168.3 		"/>
		<path class="st9" d="M63.5,89l6.4,4.1l5.9,2.6c0,0,2.7,0.1,3.6-0.8c0.9-0.8,3.1-3.8,3.1-3.8s1.2-2.5,1.3-4.3
			c0.1-1.8-0.1-6.5-0.1-6.5l-0.9-3.5l-2.4-3.2l-1.7,2.4l-3.1,3.4l-2.9,1.6l-3.3,2L65.8,84l-2.1,0.2l-0.2,3.5V89z"/>
		<path class="st10" d="M63.7,84.2l3.1-0.3l4.6-1.7l3.6-2.6l3.6-3.1l1.7-2.7l-0.6-1.4l0.9-4l0.3-3.6l-1.2-4.4L75,62.2l-6.2,1.8
			l-4.4,1.3c0,0-0.7,2.2-0.7,2.6c0,0.3,0.1,7.2,0,7.4c-0.1,0.2-0.2,8-0.2,8L63.7,84.2z"/>
		<path class="st5" d="M74.2,72.8C74,72.7,74,72.5,74,72.4c0.1-0.1,0.1-0.1,0.2-0.2c0.6-0.6,0.1-1.2-0.6-1.3c-0.2,0-0.4,0-0.5,0
			c-0.7,0.3-1.3,1.2-1.8,1.8c-0.1,0.1-0.1,0.3-0.1,0.4c-0.2,0.1-0.4,0.2-0.6,0.3c-0.2,0.2-0.1,0.4,0.1,0.5c0.9,0.4,2.1,0.1,3,0.1
			C74.4,74,74.9,73.2,74.2,72.8z"/>
		<path class="st5" d="M75.1,70.5c0,0.5-0.1,1-0.1,1.5c0,0.5,0,1,0,1.5c0,0.4,0.6,0.5,0.7,0.1c0.2-0.5,0.4-0.9,0.6-1.4
			c0.1-0.5,0.2-1,0.4-1.4C77.2,69.7,75,69.4,75.1,70.5z"/>
		<polygon class="st11" points="50.8,60.2 50.8,62.3 52,63.5 55.2,61.9 61,60.2 69.1,58.7 77.4,57.5 82.1,57.2 82.8,57.2 81.4,53.9 
			77.9,53.9 62.1,55.4 51.3,59.4 		"/>
	</g>
</g>
<g id="Слой_3">
	<path class="st6" d="M82.5,57.5c0,0,0.8,2.3-8.3,5s-10.8,0.3-10.5,8.6s-0.3,9.4,0,13.9l-0.1,1.5c-0.1,1.9-1.1,3.6-2.6,4.7l0,0
		c-1.7,1.2-3.9,1.4-5.9,0.6c-3.2-1.4-7.7-4-7.7-7.8c0-6,4.5-20.5,4.5-20.5"/>
	<path class="st6" d="M82.1,57.2c-5,0.1-23.2,2.4-30,5.9c-0.6,0.3-1.3-0.1-1.3-0.8l0-1.4c0-0.9,0.4-1.5,1-1.8c0.3-0.1,0.6-0.3,1-0.4
		c5.7-2.3,10.6-5,28.5-4.7l1.3,2.2C83,56.6,82.7,57.2,82.1,57.2z"/>
	<path class="st6" d="M81.4,53.9c0,0,0,0-1-3.7s-2.7-4.3-2.7-4.3c-4.3-1.8-13.8-1-17.8,0s-8,13.1-8,13.1"/>
	<path class="st6" d="M79.9,73.4c-0.6-1.3,1-4.9,1.1-6.4s-1.1-6.8-1.1-6.8"/>
	<path class="st6" d="M63.5,89c0,0,10,8.5,15.3,6.3c0.1-0.1,0.8-0.6,1.5-1.3c2.1-2,3.3-4.7,3.5-7.5c0.2-3,0.2-6.8-1-9.6
		c-0.5-1.3-1.3-2.4-2.4-3.2c0,0-6.1,10.3-16.7,10.4"/>
	<path class="st6" d="M78.7,82.2c0,0,4.1-3.1,4.2-4.7"/>
	<path class="st6" d="M80.4,85.2c0,0,3.1-2.3,3.4-4"/>
	<path class="st6" d="M70.4,73.4c0.4,0,3.9-4.4,6.2-3.6"/>
	<path class="st6" d="M69.1,69.3c0,0,5.2-3.6,7.2-3"/>
	<ellipse cx="74.8" cy="71.9" rx="1" ry="2.2"/>
	<path class="st6" d="M78.8,95.3c0,0,1.9,5,2.7,6.8"/>
	<path class="st6" d="M66.3,97.8c0,0,17.2,5.2,19.8,6.7c2.7,1.5,36.3,4.5,36.3,4.5s4.5,2.7,2.8,5.3c-1.7,2.7-3.7,3-3.7,3l-46.2,6.9
		c-1.1,0.2-2.1,0.8-2.7,1.7l-2.3,3.5"/>
	<path class="st6" d="M58.3,92.3c0,0-10.5,1.9-10.8,7.9S46.8,144,49,147.8c2.3,4-2.4,8.7-1.8,13.2c0.7,4.5,6.1,81.5,6.4,86.3
		c0.3,4.7,30.2,6.1,40.1,5.4c0.8-0.1,1.5-0.3,2-0.9c0.2-0.2,0.3-0.4,0.4-0.6c0.6-2.1-1-6.2-15.2-8.4c0,0-4.2-1.2-4.5-4.7
		s-4.2-62.2-1.7-66.8c2.5-4.7,4.5-7.2,4.5-7.2"/>
	<path class="st6" d="M83.9,123c0,0-1.2,113.3,3.9,115c5.5,1.9,13.7,4.6,15.8,9.7c1.9,4.6-7.4,3.2-7.4,3.2"/>
	<path class="st6" d="M88.8,122.2c0,0,2,39.1,0.7,42.1c-0.5,1.1-1.1,1.9-1.7,2.5c-1.1,1.1-4,1.5-4,1.5"/>
	<path class="st6" d="M84,185.4c0,0,6.3-6.9,5.2-12c-1.2-5.2-1.3-6.5-1.3-6.5"/>
	<path class="st6" d="M122.5,109c0,0,1.3-10.4,1.5-11.2c0.2-0.8,1.7-1.8,1.7,1.7s1,4.8,1.3,3.5c0.3-1.2,2.3-12,4.2-13.4
		c0.9-0.7,1.2,0,1.2,0.8c0,0.8-0.2,1.8-0.2,1.8l-2.5,9.8"/>
	<path class="st6" d="M132.6,103c0.1,0,3.8-12.7,2.2-13.4c-1-0.4-2.5,3-2.5,3"/>
	<path class="st6" d="M134.4,105.1c0,0,3.8-10.4,3.2-12.8c-0.6-2.6-2.5,0-2.5,0"/>
	<path class="st6" d="M125.3,114.3c0,0,3.7,3,7-1.3s6.6-13.4,6.4-14.6c-0.2-1.2-2.3,0.6-2.3,0.6"/>
</g>
<g id="Слой_6">
	<path class="st12" d="M114.2,245.3h-5.6c-0.6,0-1-0.5-1-1v-99c0-0.6,0.5-1,1-1h5.6c0.6,0,1,0.5,1,1v99
		C115.2,244.9,114.7,245.3,114.2,245.3z"/>
	<path class="st13" d="M222.8,155.6c-53.5,23.5-107.7,0-107.7,0v-5.2c0,0,54.2,23.5,107.7,0"/>
	<path class="st12" d="M229.5,245.3h-5.6c-0.6,0-1-0.5-1-1v-99c0-0.6,0.5-1,1-1h5.6c0.6,0,1,0.5,1,1v99
		C230.5,244.9,230,245.3,229.5,245.3z"/>
	<g>
		<g>
			<line class="st14" x1="18.6" y1="256" x2="23.6" y2="256"/>
			<line class="st15" x1="33.9" y1="256" x2="254.7" y2="256"/>
			<line class="st14" x1="259.9" y1="256" x2="264.9" y2="256"/>
		</g>
	</g>
	<polygon class="st16" points="235.6,90.7 217.7,90.7 208.8,106.2 217.7,121.7 235.6,121.7 244.5,106.2 	"/>
	<line class="st17" x1="226.7" y1="142.7" x2="226.7" y2="123"/>
	<g>
		<path class="st5" d="M234.7,108.5c-0.5-0.4-1.2-0.3-1.5,0.2l-2.3,2.7V97.2c0-0.6-0.5-1.1-1.1-1.1c0,0,0,0,0,0
			c-0.1,0-0.3,0-0.4,0.1c-0.4,0.2-0.7,0.6-0.7,1v8.5H228V95.4c0-0.3-0.1-0.6-0.3-0.8c-0.2-0.2-0.5-0.3-0.8-0.3
			c-0.5,0-0.9,0.4-1.1,0.8c0,0.1,0,0.2,0,0.3v10.3h-0.6v-8.6c0-0.3-0.1-0.6-0.3-0.8c-0.2-0.2-0.5-0.3-0.8-0.3
			c-0.6,0-1.1,0.5-1.1,1.1v8.6h-0.6v-7c0-0.3-0.1-0.6-0.3-0.8c-0.2-0.2-0.5-0.3-0.8-0.3c-0.1,0-0.3,0-0.4,0.1
			c-0.4,0.2-0.7,0.6-0.7,1V113c0,2.8,2.3,5.1,5.1,5.1h0.8c2.2,0,4.6-1.6,5.3-3.5l3.4-4.6c0.2-0.2,0.2-0.4,0.2-0.7
			C235.1,109,234.9,108.7,234.7,108.5z"/>
		<path class="st18" d="M227.7,113c0,0,0.4-2.4,3.1-1.9"/>
	</g>
</g>
</svg>
