<?xml version="1.0" encoding="utf-8"?>
<!-- Generator: Adobe Illustrator 22.1.0, SVG Export Plug-In . SVG Version: 6.00 Build 0)  -->
<svg version="1.1" xmlns="http://www.w3.org/2000/svg" xmlns:xlink="http://www.w3.org/1999/xlink" x="0px" y="0px"
	 viewBox="0 0 283.5 283.5" style="enable-background:new 0 0 283.5 283.5;" xml:space="preserve">
<style type="text/css">
	.st0{fill:#C3D9F1;}
	.st1{fill:#BD212E;}
	.st2{fill:#FCD4B6;}
	.st3{fill:#662327;}
	.st4{opacity:0.5;fill:#6D1513;}
	.st5{fill:#FFFFFF;}
	.st6{fill:none;stroke:#000000;stroke-linecap:round;stroke-linejoin:round;stroke-miterlimit:10;}
	.st7{fill:none;stroke:#000000;stroke-width:0.75;stroke-linecap:round;stroke-linejoin:round;stroke-miterlimit:10;}
	.st8{fill:#F8FBFC;stroke:#000000;stroke-width:0.75;stroke-linecap:round;stroke-linejoin:round;stroke-miterlimit:10;}
	.st9{fill:#FFFFFF;stroke:#000000;stroke-miterlimit:10;}
</style>
<g id="Слой_1">
</g>
<g id="Слой_5">
	<polygon class="st0" points="183.9,260.3 122.5,260.3 122.5,220.5 159.3,222.7 181,222.7 	"/>
	<path class="st1" d="M183.9,221.5l-7.4,1l-8.5,0.2l-23.7-0.9l-22.8-1.4L120,219h-1h-2.8l-4.2-0.7l-6.7-2.1l-1.3-41.4l-0.9-23.9
		l-1.5-27.2l-1-13.3l0.4-9.2c0,0,1.7-7.3,2.9-9.1c1.3-1.7,3.6-3.7,3.6-3.7l5.4-1.6l2.9,0.3c0,0,9.2,11.4,10.4,12.4
		c1.2,1,4.8,4,4.8,4l6.1,1.7l4.7-1l4.6-2.8l4-4.8l4-6.7l2-7.5l1.8-0.6l4.1-1.3h5.5l2.9,1.1l3.3,2.7l2.6,4.1l2,6.6l2.8,14.2l2.9,16.4
		l2.9,22.5l0.5,12.7l-0.6,7.3l-0.8,3l-1.8,4l-2.3,1.8l-1.5,0.2l2.3,33.3L183.9,221.5z"/>
	<polygon class="st2" points="122.1,240.4 119.5,233.9 118.1,228 117,232.4 114.6,241.9 113.4,245.1 112.6,245 111.9,242.8 
		112.6,228.4 110.8,235.3 108.7,240.9 107.3,242.9 106.4,242.9 106.2,240.4 108.5,228.7 106.5,233 104.9,235.9 103.9,235.8 
		103.2,234.6 106.2,217.3 113,218.5 118.2,219 120,219 120.7,220.2 122.5,220.5 	"/>
	<polygon class="st2" points="144.4,145.5 151.8,140.6 160,135.3 159.1,131.7 157.2,123.8 154.2,116 152.7,115 151.6,115.8 
		151.7,121.3 151.6,126.2 151.3,127.2 150.4,127.5 146.4,123.2 137.4,114 134.4,112.3 133.6,112.2 132.8,113.2 132.8,116 131,114.3 
		129.8,113.3 128.6,113.5 129.2,115.7 130.8,119 129.6,118.3 127.8,117.8 126.8,118.3 127.3,119.9 137.7,133.9 138.8,135.5 
		138.6,136.7 137.5,136.6 128.9,130 126.2,128.6 125.5,128.8 126.6,130.8 141.1,143 	"/>
	<path class="st3" d="M156.4,82.5l2.4-1l3.6-0.8l3.3-0.4l1-1.2l0.5-2.8l-0.2-3.2l0.6-1.8l1.2-1.6l1-1.4v-1.8l-0.6-5.2l-3-4.8
		l-2.4-5.1l-0.7-4.1l-1.6-3.4l-2-2.2l-2.9-2l-1.7-0.7l-4.1-1.8l-2.1-2.1l-2.2-5.2l-2.1-3l-3.8-3.1l-3.4-0.4l-5.8,0.4l-8.2,0.8
		l-3.5,0.9l-3.2,1.5l-2.6,2.1l-2.4,3.5l-1.4,5.5l-2.8-0.3l-1.9,0.4l-2.6,1.7l-4.5,5.8L96,51c0,0-0.1,3.7,0,4.3c0.1,0.5,1.5,3,1.5,3
		l1.5,2l1.1,3.7l-0.7,2.8l-1.7,2.8L97.7,73l0.9,2.1l3,3.1l1.2,2.1l-0.1,3.2l-0.7,1.9l0.8,3.1l2,2l1.1-0.8l2.5-1.7l1.3-0.5l2.5-0.3
		l3.2-0.1l1.1,0.4l-2-3.4l-4.2-9.5l-2.8-6.5l1.8-9.2l14.4-9.1l5.1,0.2l14.3-2.5l1.5,1.3c0.5,0.4,0.9,0.9,1.3,1.3l1.3,4.1l1.7,3.4
		l2.4,2.1l3.1,1.2l0.7-0.3l2.1,10l-0.5,8.4L156.4,82.5z"/>
	<path class="st2" d="M140.4,104.9l4.8-2.6l6.5-7.4l3.1-5.7l1.6-6.9l0.4-3.3l1.7-1l2.2-3.2l0.8-3.8l-0.4-5.2l-1.8-4.8l-1-0.5
		l-1.5-0.5l-3.1,3.1l0.8-2.1l-3.1-1.2l-4.1-3.7l-0.9-3.8l-1.3-3.5l-2-1.2h-2.2l-2.8,0.7l-4.9,0.4l-3.5-2l-3.3-4.2l-2.2-1.8l-4.2,0.8
		l-5.6,0.6l-0.7,0l-0.9,2.9l-3.5,6.7l-2.5,5.7L107,61l0.4,4.8l0,2.2c0,0,5.8,13.5,6.8,15.4c1.1,1.9,5.4,9.1,5.9,9.3
		c0.5,0.2,3.9,4.4,4.4,4.9c0.5,0.6,5.2,4.5,5.2,4.5s5.1,2.5,6.7,2.8C138,105.3,140.4,104.9,140.4,104.9z"/>
	<polygon class="st3" points="113,72 114.6,71.2 117,68.7 118.8,66 119.2,64 118,63.2 116.5,63.2 114.8,65.7 113.2,71.2 	"/>
	<polygon class="st3" points="138.5,62 134.1,62 127.8,61.2 126.1,60.3 126.3,59.1 127.3,58.3 128.5,58.3 131.6,58.5 135,59.3 
		139.2,61.6 	"/>
	<polygon class="st4" points="130,94.3 134.6,92.6 141.8,90.5 140.5,89.1 135.8,88.6 132.8,89.4 130.9,90.5 	"/>
	<path class="st5" d="M143.1,67.5c-0.2-0.4-0.6-0.7-1-0.8c-1.5-0.4-3-0.8-4.6-1.1c-0.8-0.2-1.8,0-2.2,0.8c-0.3,0-0.7,0-1,0.1
		c0,0,0,0-0.1,0c-0.4,0.1-0.6,0.4-0.7,0.7c-0.5,0.4-0.7,1.2-0.1,1.6c0.1,0.1,0.3,0.2,0.4,0.3c0,0,0,0,0,0c1.1,0.8,2.2,1.2,3.5,1.3
		c0.4,0,1,0,1.5,0c1.1,0.1,2.3,0,3.4-0.3C143.9,69.9,143.9,68.2,143.1,67.5z"/>
	<path class="st5" d="M122,71.7c-0.9-0.5-2.1-0.3-2.6,0.6c-0.2,0.3-0.2,0.6-0.1,1c-0.2,0-0.4,0-0.6,0c-1.2,0.2-2,1.3-1.6,2.5
		c-0.2,0.1-0.4,0.2-0.5,0.3c-0.1,0.1-0.2,0.2-0.3,0.4c-0.2,0.2-0.4,0.5-0.3,0.8c0,0.5,0.6,1,1.1,1c0.1,0,0.2,0,0.3,0
		c0.2,0,0.3,0,0.4,0c0,0,0.1,0,0.1,0c0.7-0.1,1.4-0.3,2-0.6c0,0,0,0,0,0C122.2,77.1,124.7,73.1,122,71.7z"/>
</g>
<g id="Слой_3">
	<path class="st6" d="M115.8,87.3c0,0-17.9-5.5-15,27.7c2.7,30.9,4.1,92,4.2,100.5c0,0.6,0.4,1.1,1,1.3c2.8,0.8,10.9,3.1,14,2.2"/>
	<path class="st6" d="M110.2,119.9c0,0,6.8-0.1,6.8,9s2.1,90.5,3.7,91.3c1.6,0.8,57.6,4.2,63.2,1.3c0,0-2.3-40.5-3.1-44.3"/>
	<path class="st6" d="M156.8,82.6c0,0,17.3-10.1,21.8,12.5s21.8,102.5-7.7,77.3s-27.3-26.3-27.3-26.3l16.5-10.6l14.1,14.9"/>
	<line class="st6" x1="165.6" y1="122.1" x2="168.3" y2="144.3"/>
	<line class="st6" x1="122.5" y1="256.8" x2="122.5" y2="220.5"/>
	<path class="st6" d="M143.5,228.4c0,0,9.1,7.8,9.6,26.1"/>
	<line class="st6" x1="181" y1="222.7" x2="183.9" y2="260.3"/>
	<path class="st6" d="M106.3,216.8c0,0-3.2,16-2.7,18.5s4.4-4.4,5-6.9c0,0-4.1,15.8-1.6,14.7c2.5-1.1,5.1-12.6,5.7-14.7
		c0,0-1.9,15.4,0,16.6c1.9,1.2,5.1-16.6,5.1-16.6s3.7,11.9,4.8,13.5"/>
	<path class="st6" d="M144.4,145.5c0,0-19.3-14.5-18.9-16.7c0.4-2.2,12.1,9,13.1,7.7c1.1-1.3-12.6-16.9-11.9-18.2
		c0.7-1.3,3.5,0.1,4.4,1"/>
	<path class="st6" d="M141.5,133.2c0,0-18.7-22.2-11.1-19.9c0,0,13.7,15.1,15.1,16.7"/>
	<path class="st6" d="M160,135.5c0,0-2.4-10-2.4-10.5c0-0.5-5.8-16.6-6-7.2c-0.1,9.4,1.5,13.3-5,6.1c-6.5-7.2-15.5-17.6-13.5-7.7"/>
	<path class="st6" d="M107.4,68.2c0,0,11.2,33.7,29.2,37c2.7,0.5,5.4-0.2,7.6-1.9c4.4-3.3,11.7-10.7,12.6-24.2c0,0,5.3-1.7,4.7-10
		c-0.6-7.7-3.7-12.5-8.1-5.7"/>
	<path class="st6" d="M139.7,61.9c0,0-15.7,0.7-13.5-2.7S139.7,61.9,139.7,61.9z"/>
	<path class="st6" d="M112.8,72.8c0,0,9.1-7.6,5.6-9.4C115,61.5,112.8,72.8,112.8,72.8"/>
	<path class="st6" d="M122.9,66.4c0,0,4.6,2.1,4.9,7c0.3,4.9-0.9,8.8-1.3,9.4c-0.3,0.4,2.3,2.7,4.4,1.4"/>
	<path class="st6" d="M135.8,78.5c0,0,2.7,1.3,1.2,3.4"/>
	<path class="st6" d="M129.7,94.6c0,0,7.6-3.4,12.1-4c0.4-0.1,0.5-0.6,0.1-0.8C138.5,88.4,131.1,86.5,129.7,94.6z"/>
	<path class="st7" d="M134.6,97.9c0,0,2-3.1,6.4-2.3"/>
	<path class="st6" d="M133.6,68.7v-1.4c0-0.5,0.4-1,0.9-1.1c1.8-0.3,5.9-0.7,9,1.5"/>
	<path class="st6" d="M123.3,72.8l-1.7-1.3c-0.4-0.4-0.8-0.3-1.2,0c-1.4,1-3.9,3.2-3.9,5.5"/>
	<path class="st6" d="M105.1,90.5c0,0-4.1-2.8-2.5-7c1.6-4.1-2.8-6.8-3.8-8.1c-1.1-1.2-2.3-5.1,0-7.7s1.6-6.4-1.3-9.5
		c-2.8-3.1-1.7-8.7,0-11.3c1.7-2.7,8.8-16.5,16.2-4.8c0,0-2.9,7.2-5.6,12.1c-2.7,4.9-0.9,5.9-0.7,9.8c0.3,3.9-1.1,5.3-1.2,6.9
		s5.3,5.4,5,7.5c-0.3,2.1-3.2,6.8-0.7,7.4c2.8,0.7,3.1,1.1,3.1,1.1"/>
	<path class="st6" d="M165,80.4c0,0,2.1-0.1,1.7-3.3c-0.4-3.2,0.4-6,2-7.4c1.6-1.5,1.5-7.3-1.9-12.1s-3.7-8.2-4.1-11
		c-0.4-2.8-4.4-6.9-8.8-8c-4.4-1.1-6.9-5.5-7.2-7.7c-0.3-2.1-4.3-8.5-12.3-7.6c-8,0.9-22.6-0.8-24.4,14.5"/>
	<path class="st6" d="M113.6,42.1c0,0,5.2-0.1,7.7-1.1s4,0,5.6,2.3s3.5,5.8,8.9,5.3c5.4-0.5,7-2,9,0.1c2,2.1,1.4,11.3,10.3,12.5"/>
	<path class="st6" d="M157.9,64c0,0-1.6,2.7-1.1,5.3"/>
	<line class="st6" x1="159.2" y1="66.7" x2="156.7" y2="67.8"/>
	<ellipse transform="matrix(0.866 -0.5 0.5 0.866 -21.5234 69.873)" cx="119.6" cy="75.1" rx="1.7" ry="2.3"/>
	<ellipse transform="matrix(0.8892 -0.4575 0.4575 0.8892 -15.9715 70.0387)" cx="136.6" cy="68" rx="1.7" ry="2.3"/>
	<path class="st7" d="M111.1,38.8c0,0-8.9,2.9-7.3,4.4C105.5,44.7,111.1,38.8,111.1,38.8z"/>
	<path class="st7" d="M112.2,40.7c0,0-0.1,0.1-0.2,0.2c-1.2,0.9-6.4,5.4-5.8,6.9c0.6,1.3,2.9,0,3.6-1.1
		C110.4,45.9,112.2,40.8,112.2,40.7"/>
	<path class="st7" d="M110.9,39.1c-0.3-0.5,4.1-4.9,6.6-4C119.5,35.9,110.9,39.1,110.9,39.1z"/>
	<path class="st7" d="M112.7,40.3c0,0,7.1-3,8.5-1.9S112.7,40.3,112.7,40.3z"/>
</g>
<g id="Слой_4">
	<path class="st8" d="M91.6,125.8c-0.6,0-1.1,0.1-1.7,0.2c0.1-0.2,0.1-0.5,0.1-0.8c0-2-1.8-3.7-4-3.7c-0.8,0-1.5,0.2-2.1,0.5
		c-1-0.8-2.4-1.3-3.8-1.3c-3.2,0-5.9,2.4-5.9,5.4c0,1.2,0.4,2.3,1.2,3.2c-1.9,0.8-3.2,2.6-3.2,4.7c0,2.9,2.6,5.2,5.7,5.2
		c1.2,0,2.3-0.3,3.2-0.9c0.3,2.2,2.3,3.9,4.8,3.9c2.7,0,4.9-2,4.9-4.5c0-0.6-0.1-1.2-0.4-1.7c0.3,0.1,0.7,0.1,1,0.1
		c3.2,0,5.7-2.3,5.7-5.2C97.3,128.2,94.8,125.8,91.6,125.8z"/>
	<path class="st8" d="M115.4,104.9c-0.4,0-0.7,0.1-1.1,0.1c0-0.2,0.1-0.3,0.1-0.5c0-1.3-1.2-2.4-2.6-2.4c-0.5,0-0.9,0.1-1.3,0.3
		c-0.7-0.5-1.5-0.8-2.5-0.8c-2.1,0-3.8,1.6-3.8,3.5c0,0.8,0.3,1.5,0.8,2.1c-1.2,0.5-2.1,1.7-2.1,3c0,1.9,1.6,3.4,3.7,3.4
		c0.8,0,1.5-0.2,2.1-0.6c0.2,1.4,1.5,2.5,3.1,2.5c1.7,0,3.2-1.3,3.2-2.9c0-0.4-0.1-0.8-0.2-1.1c0.2,0,0.4,0.1,0.7,0.1
		c2,0,3.7-1.5,3.7-3.4C119,106.4,117.4,104.9,115.4,104.9z"/>
	<path class="st6" d="M114.3,96.7c0,0,5.3-0.1,8.2-2.2"/>
	<path class="st6" d="M117,102.4c0,0,8.3-5.6,8.5-5.7"/>
	<path class="st6" d="M127.3,106.4c0,0-1.2-5.4-0.4-7.9"/>
	<path class="st9" d="M-56.7,23.2"/>
</g>
</svg>
