<?xml version="1.0" encoding="utf-8"?>
<!-- Generator: Adobe Illustrator 22.1.0, SVG Export Plug-In . SVG Version: 6.00 Build 0)  -->
<svg version="1.1" xmlns="http://www.w3.org/2000/svg" xmlns:xlink="http://www.w3.org/1999/xlink" x="0px" y="0px"
	 viewBox="0 0 283.5 283.5" style="enable-background:new 0 0 283.5 283.5;" xml:space="preserve">
<style type="text/css">
	.st0{fill:#98999C;stroke:#000000;stroke-width:0.9622;stroke-miterlimit:10;}
	.st1{fill:#E7E6E8;stroke:#000000;stroke-width:0.9622;stroke-miterlimit:10;}
	.st2{fill:#BD212E;stroke:#000000;stroke-width:0.9622;stroke-miterlimit:10;}
	.st3{fill:#BD212E;stroke:#000000;stroke-width:0.9623;stroke-miterlimit:10;}
	.st4{fill:none;stroke:#000000;stroke-width:0.9622;stroke-miterlimit:10;}
	.st5{fill:none;stroke:#000000;stroke-width:0.5;stroke-miterlimit:10;}
	.st6{fill:none;stroke:#BD212E;stroke-width:0.5;stroke-miterlimit:10;}
	.st7{font-family:'MyriadPro-Regular';}
	.st8{font-size:4px;}
	.st9{fill:#BD212E;}
	.st10{fill:#662327;}
	.st11{fill:#FCD4B6;}
	.st12{fill:#FFFFFF;}
	.st13{fill:none;stroke:#000000;stroke-width:1.0699;stroke-linecap:round;stroke-linejoin:round;stroke-miterlimit:10;}
	.st14{fill:none;stroke:#000000;stroke-linecap:round;stroke-linejoin:round;stroke-miterlimit:10;}
	.st15{fill:none;stroke:#000000;stroke-width:0.75;stroke-linecap:round;stroke-linejoin:round;stroke-miterlimit:10;}
	.st16{fill:none;stroke:#BD212E;stroke-linecap:round;stroke-linejoin:round;stroke-miterlimit:10;}
</style>
<g id="Слой_1">
</g>
<g id="Слой_4">
	<path class="st0" d="M221.8,65.6v11.5h-10.3V65.6c0-2.8,2.3-5.2,5.2-5.2S221.8,62.7,221.8,65.6z"/>
	<path class="st1" d="M221.7,96.4c0-0.3,0.1-0.5,0.1-0.8V77.1h-3.3v140.3h-2.8V77.1h-4.2v18.5c0,0.3,0,0.7,0.1,1
		c-2.9,1.8-4.8,4.9-4.8,8.5v108c0,5.5,4.5,10,10,10s10-4.5,10-10v-108C226.8,101.4,224.7,98.1,221.7,96.4z"/>
	<rect x="215.6" y="160.1" class="st2" width="2.8" height="13.8"/>
	<polyline class="st3" points="218.4,160.1 218.4,156.6 218.4,153.7 218.4,150.9 218.4,144.7 215.6,144.7 215.6,150.9 215.6,153.7 
		215.6,156.6 215.6,160.1 	"/>
	<rect x="215.6" y="132.4" class="st2" width="2.8" height="12.3"/>
	<rect x="215.6" y="120.1" class="st2" width="2.8" height="12.3"/>
	<rect x="215.6" y="107.7" class="st2" width="2.8" height="12.3"/>
	<rect x="215.6" y="77.1" class="st2" width="2.8" height="30.7"/>
	<rect x="215.6" y="173.9" class="st2" width="2.8" height="12.7"/>
	<rect x="215.6" y="186.6" class="st4" width="2.8" height="13.7"/>
	<line class="st5" x1="221.8" y1="107.7" x2="218.4" y2="107.7"/>
	<line class="st5" x1="215.6" y1="107.7" x2="211.4" y2="107.7"/>
	<line class="st5" x1="221.8" y1="120.1" x2="218.4" y2="120.1"/>
	<line class="st5" x1="215.6" y1="120.1" x2="211.4" y2="120.1"/>
	<line class="st5" x1="221.8" y1="132.4" x2="218.4" y2="132.4"/>
	<line class="st5" x1="215.6" y1="132.4" x2="211.4" y2="132.4"/>
	<line class="st5" x1="221.8" y1="144.7" x2="218.4" y2="144.7"/>
	<line class="st5" x1="215.6" y1="144.7" x2="211.4" y2="144.7"/>
	<line class="st6" x1="221.8" y1="160.1" x2="218.4" y2="160.1"/>
	<line class="st6" x1="215.6" y1="160.1" x2="211.4" y2="160.1"/>
	<line class="st5" x1="221.8" y1="173.9" x2="218.4" y2="173.9"/>
	<line class="st5" x1="215.6" y1="173.9" x2="211.4" y2="173.9"/>
	<line class="st5" x1="221.8" y1="186.6" x2="218.4" y2="186.6"/>
	<line class="st5" x1="215.6" y1="186.6" x2="211.4" y2="186.6"/>
	<line class="st5" x1="221.8" y1="200.2" x2="218.4" y2="200.2"/>
	<line class="st5" x1="215.6" y1="200.2" x2="211.4" y2="200.2"/>
	<line class="st5" x1="211.4" y1="213.6" x2="221.8" y2="213.6"/>
	<text transform="matrix(0 1 -1 0 221.7832 105.234)" class="st7 st8">3 5</text>
	<text transform="matrix(0 1 -1 0 221.7832 130.0673)" class="st7 st8">3 6</text>
	<text transform="matrix(0 1 -1 0 221.7832 157.734)" class="st9 st7 st8">3 7</text>
	<text transform="matrix(0 1 -1 0 221.7813 184.0673)" class="st7 st8">3 8</text>
	<text transform="matrix(0 1 -1 0 221.7813 210.5673)" class="st7 st8">3 9</text>
	<g>
		<line class="st5" x1="213.5" y1="112.4" x2="220.1" y2="112.4"/>
		<line class="st5" x1="213.5" y1="114.9" x2="220.1" y2="114.9"/>
		<line class="st5" x1="213.5" y1="117.4" x2="220.1" y2="117.4"/>
		<g>
			<line class="st5" x1="213.5" y1="123.1" x2="220.1" y2="123.1"/>
			<line class="st5" x1="213.5" y1="125.6" x2="220.1" y2="125.6"/>
			<line class="st5" x1="213.5" y1="128.1" x2="220.1" y2="128.1"/>
		</g>
		<g>
			<line class="st5" x1="213.5" y1="136.6" x2="220.1" y2="136.6"/>
			<line class="st5" x1="213.5" y1="139.1" x2="220.1" y2="139.1"/>
			<line class="st5" x1="213.5" y1="141.6" x2="220.1" y2="141.6"/>
		</g>
		<g>
			<line class="st5" x1="213.5" y1="150.1" x2="220.1" y2="150.1"/>
			<line class="st5" x1="213.5" y1="152.6" x2="220.1" y2="152.6"/>
			<line class="st5" x1="213.5" y1="155.1" x2="220.1" y2="155.1"/>
		</g>
		<g>
			<line class="st5" x1="213.5" y1="163.2" x2="220.1" y2="163.2"/>
			<line class="st5" x1="213.5" y1="165.7" x2="220.1" y2="165.7"/>
			<line class="st5" x1="213.5" y1="168.2" x2="220.1" y2="168.2"/>
		</g>
		<g>
			<line class="st5" x1="213.5" y1="176.4" x2="220.1" y2="176.4"/>
			<line class="st5" x1="213.5" y1="178.9" x2="220.1" y2="178.9"/>
			<line class="st5" x1="213.5" y1="181.4" x2="220.1" y2="181.4"/>
		</g>
		<g>
			<line class="st5" x1="213.5" y1="189.6" x2="220.1" y2="189.6"/>
			<line class="st5" x1="213.5" y1="192.1" x2="220.1" y2="192.1"/>
			<line class="st5" x1="213.5" y1="194.6" x2="220.1" y2="194.6"/>
		</g>
		<g>
			<line class="st5" x1="213.5" y1="202.7" x2="220.1" y2="202.7"/>
			<line class="st5" x1="213.5" y1="205.2" x2="220.1" y2="205.2"/>
			<line class="st5" x1="213.5" y1="207.7" x2="220.1" y2="207.7"/>
		</g>
	</g>
	<line class="st6" x1="218.7" y1="160.1" x2="215.3" y2="160.1"/>
</g>
<g id="Слой_7">
	<path class="st9" d="M202.6,263.2h-96.1l-1.6-33.5l-0.4-16.8l-1.3-32.5l-3-1.2l-24.1-11.1L64.4,161c0,0-3.8-3.7-4-6.1
		s0.3-6.8,2.3-8.9c1.9-2.1,4.8-9.5,4.8-9.5l9-16.5l11.2-18.8l5.5-7.4c0,0,0.9-0.3,2.2,1s8.2,10.8,8.2,10.8s1.7,1.6,1.1,2.6
		s-1.4,3.6-2.1,4.3s-3,5.3-3,5.3l-3.5,7.6l-4.8,12.3l-1.9,7l1,0.4l18.8,2.8l14.3,0.9c0,0,5,5.3,6.5,6.3c1.5,1.1,8.2,4.8,10.6,5.2
		c2.5,0.4,5.7,0.6,7.2,0.4c1.5-0.2,6.2-1.6,7.9-2.5c1.6-0.9,7.3-5.3,7.3-5.3l2.6-2.6c0,0,11.4,2,13.8,2.9c2.4,0.9,5.7,2.1,7.8,3.6
		s3.8,2.8,4.8,4.1c1,1.3,2.6,3.6,3.1,5.2c0.5,1.6,1.9,13.4,2.1,16c0.2,2.6,1.5,20.5,1.5,20.5l3.1,44.8L202.6,263.2z"/>
	<path class="st10" d="M101,85.5l0.4-1.9v-3.1c0,0-1.1-2.3-1.1-2.6s0.6-3.4,0.6-3.4l1.6-1.4l2.4-1.2l3.3-6.4c0,0,0.3-3.2,0.3-3.5
		s0.4-3.5,0.4-3.5l3.3-3.6l4.2-2.4l10.8-1.9l5.8-0.1h2.2l2.5-1.2l10.4-1.4l2-0.6l4.5,1.1l3.6,2l3.5,3.5l3.6,2.9l2.5,3.4l0.6,2.7
		l-0.1,2.4l0.2,1.1l2.9,5.3l2.7,3.2l2.1,4.2l0.9,3.6v3.7l-1.4,2.4l-0.1,1.5l1.1,4.8l0.9,4.7l-0.5,3.5l-1.5,3l-2.2,2.4l-2.2,1l-1,1.9
		l-1.1,3.6l-2.3,1l-1.8,0.1l-1.4-0.5l0.1-2.5l-0.6-16.1c0,0-2.5-5.3-2.6-5.6s-7.2-12.9-7.2-12.9l-4.2-4.4l-13-1.4l-9.3-1.3l-1.6,1.6
		l-7.2,3.8l-10.9,8.4c0,0-3.7,2-4.5,1.8S101,85.5,101,85.5z"/>
	<path class="st11" d="M165.4,150.4l-5.2,5.2l-7.1,3.9l-5.4,1.4l-10.7-1.5l-9.5-5.7l-3.5-4.8l2.8-0.1c0,0,2.5,0.8,3-1.4
		c0.5-2.2,0.5-7.5-0.2-10c-0.8-2.5-2.8-4.8-2.8-4.8l-8.8-13.5l-2.8-5.4l-2.4-0.4c0,0-2.9-1-3.5-2.3c-0.6-1.2-0.9-5.3-0.9-5.3
		l0.9-1.9l-4.8,1.4l-1.1,0.5l-1.2-1.9l-6-8l-2.2-2.8l2.3-2.5l7-7.5l5.4-4.4l4.5-3.1l3.9-1.8l3.5,0l2.6,0l0.8-0.5
		c0,0,1.9-0.3,2.6-1.7c0.7-1.3,1.5-4.3,1.5-4.3s0-3.5,0.1-3.9c0-0.4,0.5-1.7,0.5-1.7s4-1,4.1-1.4c0.1-0.4,3.6-2.6,3.6-2.6l1.4,0.8
		c0,0,3.4,3.3,4.5,4c1.1,0.7,4.3,2.5,4.3,2.5s3.1,2.6,3.5,3.7c0.5,1.2,0.7,4,0.8,4.6c0.1,0.6,0.7,3.7,0.7,3.8c0,0.1,1.4,1.7,1.4,1.7
		l4.2,2.7c0,0,2.4,2.3,2.6,3.4c0.3,1.2,2.3,5.7,2.3,5.7l1.4,1.9l1.5,0.6l1.6-0.6l1-0.1l2.2,2.8l1.6,4c0,0,0.6,2,0,2.9
		s-1.7,3.1-1.7,3.1l-3.2,2.5l-1.5,0.6l-2.3,9.1l-1.9,5.7l-3.1,6.1l-3.4,4.5l-2,2.9l-0.7,5.2l0.6,4.5l1.9,2.3l1.9,0.7l5.3,0.9
		L165.4,150.4z"/>
	<polygon class="st10" points="117.5,118.5 115.3,113.6 111.4,112.7 108.6,109.3 109.3,103.8 108,103.8 105.3,104.9 103.6,105.2 
		104.4,106.6 104.7,108.3 104.4,109.7 103.6,110.8 104,112.5 105.2,114.8 106.1,115.7 107.9,115.6 110.5,117.1 113.5,120.5 
		115.2,120.5 117.7,119.4 	"/>
	<polygon class="st10" points="119.7,90.6 124.3,89.1 131,85.5 132.5,83.6 131,80.9 126.8,80.3 125.8,81.9 122.9,84.6 121.9,86.3 	
		"/>
	<polygon class="st10" points="154.8,88.9 152.1,85.5 148.4,82.1 146.1,80.6 143.5,81.3 143.1,83.6 145.2,85.5 148.4,87.1 
		152.3,88.4 	"/>
	<path class="st12" d="M126.7,94.8c-1,0-1.7,0.6-1.9,1.3c-1,0-1.9,1-1,2c2.2,2.6,6.9,4.3,9.6,1.4C136.8,95.9,128.7,94.8,126.7,94.8z
		"/>
	<path class="st12" d="M155.6,94.1c-2.3-0.8-4.7-0.6-6.9,0.3c-0.3,0.1-0.5,0.3-0.6,0.4c-1,0-1.9,1-1.3,2c1.1,1.8,3.2,2.9,5.3,3.2
		c2,0.3,5.4,0,6.5-1.9C159.8,96.1,157.2,94.6,155.6,94.1z"/>
</g>
<g id="Слой_5">
	<path class="st13" d="M129.2,135.4c0,0,2.7,10.7,0,12.8c-2.7,2.1-40.2-1.9-39.9-3.5"/>
	<path class="st14" d="M86.4,155c0,0,7.8-30.8,17.1-44l0.7-1.2c0.5-0.9,0.5-2.1,0-3c-2.4-3.8-8.8-13.7-11.1-13
		c-2.9,0.9-32.9,53.6-32.9,58.7c0,4.9,0.5,10.3,42.4,27.8c3.4,1.4,6.4,3.7,8.5,6.7c0.5,0.7,0.9,1.4,1.3,2.2"/>
	<path class="st13" d="M153,135.4c0,0-3.2,11,2.1,13.4c5.4,2.4,38.8,0.2,40.9,22.7c2.1,22.5,6.5,91.7,6.5,91.7"/>
	<path class="st13" d="M180.3,189.2c0,0,0.3,52.7,2.1,74.1"/>
	<path class="st13" d="M175.4,195c0,0,5.1,13.4,5.2,15"/>
	<line class="st13" x1="103.2" y1="180.5" x2="106.5" y2="263.2"/>
	<path class="st13" d="M123.4,148.8c0,0,19.5,26.2,42,1.6"/>
	<path class="st14" d="M103.6,111c0,0,0.8,4.6,2.9,4.4c2.1-0.3,5.3,2.8,5.9,3.7c0.6,1,2.8,2.7,5.7,0"/>
	<path class="st14" d="M163.6,115.7c0,0,3.3,2,5.2,0c1.9-2,0.7-5.7,3.2-6.3c2.4-0.5,6.2-5.3,5.6-10.2s-3.2-9.5-1.1-11.4
		c2.1-1.9,0-10.2-2.4-13c-2.4-2.8-6.7-7-5.6-11.9S154.8,47,150.4,47.7c-3.8,0.6-14.4,0.8-14.4,2.9s-1.3,8.1,10.2,13.9
		c7,3.6,4.9,10,6,12.9c0.7,1.8,7.4,3.7,8.2,7.7c0.6,3.1,2.1,5.7,3.7,7.4c0.6,0.7,1.6,0.8,2.3,0.3c1-0.7,2.8-0.7,5,4.5
		c3.5,8.1-5.9,11.1-5.9,11.1c-2.9,14.8-6.5,20.1-8.1,22.1c-0.9,1.2-2.8,3-3.7,4.2c-18.3,25.1-38.1-21-38.3-20.9
		c-10.2-0.9-5.8-9.8-5.8-9.8"/>
	<path class="st14" d="M125.3,73.3c0,0,1.8-0.8,2.9-4.8c1.1-4-1.1-6.7,2.3-7.5c3.4-0.8,6.3-3.3,6.3-3.3"/>
	<path class="st14" d="M135.9,50.6c0,0-28.2-2.4-27.3,12.3c0,0-2.1,9.1-5.3,9.9c-3.2,0.8-3.7,5.6-2.1,7.2c1.6,1.6-0.1,4.3-0.1,4.3"
		/>
	<path class="st14" d="M132.4,90.6c0,0,7.5,3.1,6.7,10.7s-2.4,11.1-2.4,11.1s1.9,1.2,4.8,1.3"/>
	<path class="st14" d="M145.6,110.4c0,0,2.1,1,1.1,3.2"/>
	<path class="st14" d="M131.6,125.1c0,0,9.6-6,19.7,0.4"/>
	<path class="st14" d="M136.3,130.1c0,0,5.5-3.8,9.8-0.3"/>
	<path class="st14" d="M155.2,89.1c0,0-15.3-3.3-11.3-7.8C146.9,77.9,155.2,89.1,155.2,89.1z"/>
	<path class="st14" d="M110.8,104.9c0,0,3.7,2,4.2,3.4"/>
	<line class="st14" x1="110.8" y1="108.3" x2="113.5" y2="106.6"/>
	<path class="st13" d="M167,97.2c-0.8,0.4-2.4,5.9-1.6,6.6"/>
	<line class="st13" x1="168" y1="99.8" x2="165.8" y2="100.5"/>
	<path class="st14" d="M119.5,91.1c1.1,0.1,11.3-5.1,12.5-6.3c1.9-2.1-1.6-6.2-5.4-3.6"/>
	<line class="st14" x1="119.5" y1="91.1" x2="122.3" y2="85.7"/>
	<path class="st14" d="M94.2,93.4c0.3-0.8,10.8-11.9,17.1-16.4c5.9-4.2,11-3,11-3"/>
	<path class="st14" d="M104.9,86.4c0,0,11.5-9.7,15.8-11.7s5.2-1.9,4.3,0c-0.2,0.4-0.6,0.7-1.1,1.2c-3.8,3.4-13.6,9-16,11.9"/>
	<path class="st14" d="M103.6,105.7c0,0,7.6-3.1,9.9-4.4c2.4-1.3,11.4-6.1,11.5-8.7c0.1-2.7-3.9,0.8-6.9,1.6s-5.5-0.7-2.7-3.6
		c2.2-2.1,7-5.7,9.3-7.3c1-0.7,1.8-1.8,2.1-3.1c0.4-1.7-0.5-3-7.7,2.4l-8.3,6.6"/>
	<path class="st13" d="M122.3,77.2c0,0,6.1-3.4,3.1,1.6"/>
	<path class="st15" d="M135.8,52.5c0,0-15.3-0.3-11.8,1.6C127.6,56,135.8,52.5,135.8,52.5z"/>
	<path class="st15" d="M135.9,55.1c0,0-9.3,0.4-10,2.6C125.2,60,135.9,55.1,135.9,55.1z"/>
	<path class="st15" d="M135.8,52.5c0,0,17-3.2,13.1,0C145,55.7,135.8,52.5,135.8,52.5z"/>
	<path class="st15" d="M135.9,55.1c0,0,17.2,2.1,11,3.2C140.7,59.4,135.9,55.1,135.9,55.1z"/>
	<path class="st14" d="M146.9,95.9c0,0,5.8-7.5,12,0.9"/>
	<path class="st14" d="M124,97.2c0,0,4.1-6.6,10.8,0.3"/>
	<circle cx="129" cy="97.5" r="3"/>
	<circle cx="152.7" cy="96" r="3"/>
</g>
<g id="Слой_6">
	<g>
		<path class="st16" d="M126.5,15.9c0,0-4.9,1.1-4.3,5.5c0.7,4.4,7.8,8.4,5.3,11c-4.4,4.6-6.1,5.7-2.4,9.1c3.7,3.5,5.2,6.8,1.7,7.6"
			/>
		<path class="st16" d="M134.9,25.8c0,0-3.5,0.8-3,3.8s5.5,5.9,3.7,7.7c-3.1,3.3-4.3,4-1.7,6.4c2.6,2.4,3.6,4.8,1.2,5.3"/>
		<path class="st16" d="M143,15.2c0,0-4.9,1.1-4.3,5.5s7.8,8.4,5.3,11c-4.4,4.6-6.1,5.7-2.4,9.1c3.7,3.5,5.2,6.8,1.7,7.6"/>
	</g>
</g>
</svg>
