<?xml version="1.0" encoding="utf-8"?>
<!-- Generator: Adobe Illustrator 22.1.0, SVG Export Plug-In . SVG Version: 6.00 Build 0)  -->
<svg version="1.1" xmlns="http://www.w3.org/2000/svg" xmlns:xlink="http://www.w3.org/1999/xlink" x="0px" y="0px"
	 viewBox="0 0 283.5 283.5" style="enable-background:new 0 0 283.5 283.5;" xml:space="preserve">
<style type="text/css">
	.st0{fill:#FEE5C6;}
	.st1{fill:#E7B468;}
	.st2{fill:none;stroke:#000000;stroke-width:1.1468;stroke-miterlimit:10;}
	.st3{fill:#BD222E;stroke:#000000;stroke-width:1.1153;stroke-linecap:round;stroke-linejoin:round;stroke-miterlimit:10;}
	.st4{fill:none;stroke:#000000;stroke-width:1.2649;stroke-miterlimit:10;}
	.st5{fill:#BFCAD1;stroke:#000000;stroke-width:1.0265;stroke-miterlimit:10;}
	.st6{fill:#E8F4FD;stroke:#000000;stroke-width:1.0265;stroke-miterlimit:10;}
	.st7{fill:none;stroke:#000000;stroke-width:1.1191;stroke-miterlimit:10;}
	.st8{fill:#F8BA9A;}
	.st9{fill:#3B1213;}
	.st10{fill:#BB6041;}
	.st11{fill:#FEDA93;}
	.st12{fill:#263235;}
	.st13{fill:#C3D9F1;}
	.st14{fill:none;stroke:#000000;stroke-width:0.75;stroke-linecap:round;stroke-linejoin:round;stroke-miterlimit:10;}
	.st15{fill:#FFFFFF;stroke:#000000;stroke-width:0.5;stroke-miterlimit:10;}
	.st16{fill:#519132;}
</style>
<g id="Слой_1">
</g>
<g id="Слой_6">
	<path class="st0" d="M52.7,242.5l0.2-44.7l0.4-57.9h135.2h45.1l0.7,63.8V246l-0.2,6c0,0-1,3.9-2.9,5.4c-2,1.5-3.9,3.1-6.4,3.1
		s-50,0-50,0H66h-7.3c0,0-4.8-5-5.4-6.7C52.9,252,52.7,242.5,52.7,242.5z"/>
	<path class="st1" d="M53.5,244.3l4-5.8l4.5-1.3h17.2l72.4-0.6l66.2,0.1l9-0.1c0,0,3.1,2.3,4.7,3.8c1.6,1.5,2.4,5.7,2.9,6.7
		c0.5,1,0.3,5.7-1.4,7.9c-1.7,2.2-4.6,4.2-4.5,4.2c0,0-4.9,1.4-4.9,1.4h-30.3h-85l-48.9-0.9c0,0-5.3-4.2-6-6.2
		C52.8,251.8,53.5,244.3,53.5,244.3z"/>
	<polygon class="st1" points="201.5,84.6 179.2,58.5 179.2,43 201.5,43 	"/>
	<path class="st2" d="M233.6,139.9c0.4,1.1,0.7,2.4,0.7,3.7v106.3c0,5.8-4.7,10.6-10.6,10.6H63.2c-5.8,0-10.6-4.7-10.6-10.6V143.5
		c0-1.3,0.2-2.5,0.7-3.7"/>
	<polygon class="st3" points="34.7,139.9 248.7,139.9 148.9,23 	"/>
	<path class="st4" d="M234.3,249.9v-1.8c0-6.3-5.1-11.4-11.4-11.4H64.3c-6.3,0-11.4,5.1-11.4,11.4v3.9"/>
	<path class="st5" d="M209.9,227H82.6c-6.2,0-11.2-5-11.2-11.2v-46.1c0-6.2,5-11.2,11.2-11.2h127.4c6.2,0,11.2,5,11.2,11.2v46.1
		C221.1,222,216.1,227,209.9,227z"/>
	<path class="st6" d="M202.1,223.4H90.4c-6.2,0-11.2-5-11.2-11.2v-38.9c0-6.2,5-11.2,11.2-11.2h111.7c6.2,0,11.2,5,11.2,11.2v38.9
		C213.3,218.4,208.3,223.4,202.1,223.4z"/>
	<polygon class="st3" points="132.9,222.4 133.5,206.9 134.8,205.8 137.8,205 135.6,199 131.7,196.9 124.6,191.7 122.1,193.9 
		114.5,191.9 109.1,190.4 104.1,190.8 100.1,192.4 98.3,196.1 94.7,222.7 93.9,223.1 132.9,223.1 	"/>
	<line class="st7" x1="179.2" y1="58.5" x2="179.2" y2="43"/>
	<line class="st7" x1="201.5" y1="84.6" x2="201.5" y2="43"/>
	<path class="st5" d="M204.4,43h-28.7c-2.5,0-4.5-2-4.5-4.5v-2.9c0-2.5,2-4.5,4.5-4.5h28.7c2.5,0,4.5,2,4.5,4.5v2.9
		C208.9,41,206.9,43,204.4,43z"/>
	<path class="st8" d="M142.1,204.3l1-1.8l-0.1-2l-2.1-1.5l-2.9-3.4l-1.7-3.6l-2.1-0.8l-0.3-1.9l0.7-1.3l0.9,1.5l1.2-0.8l2.2-2
		l3.2-2.1l3.5-2.2l1.4-1.2l1.2,1.7l1.4,1.8l2.1,1l1.7,0.4l2,1.2c0,0,1.3-0.1,1.4-0.3s1.4-0.3,1.4-0.3l0.7,0.9l-0.1,1.4l-0.5,0.8
		l-1.5,1.1l-2.1,0.4l-0.1,2.6l-0.8,3.3l-2.8,2.6l-1.7,0.8l0.4,2l1.2,1.3l-1.3,1.9l-0.9,1.3l-2.4,0.1l-2.1-0.9L142.1,204.3z"/>
	<polyline class="st8" points="113.1,186.4 112,179 112.3,177.3 113.8,176 117.3,174.4 120.7,172.6 123.5,170.2 124.2,171.8 
		125.4,173.4 126.7,175.6 129.1,178.6 129.9,180.4 128.9,182.3 128.2,185 125.7,190.4 120.2,194.1 115.1,191.5 113.1,186.4 
		113.1,186.4 	"/>
	<path class="st8" d="M174.6,201.5l4.1-3.7l5.6-5.9v-0.8l-2.4-0.2c0,0-0.6-1.9-0.6-2.2c0-0.3-0.1-4.6-0.1-4.6h1.3l1.5-0.2l1.8-2
		c0,0-0.1-2.4-0.2-2.7c-0.1-0.3-0.8-1.5-0.8-1.5l-2.4,1l-0.6,0.7l-0.1-3.3l-1-4.4l-2-0.9l-2.2-0.2l-4.5,0.7l-2.4-0.7l-2.4-1.1v2.6
		l-0.8,4.2l-0.3,4.6l0.5,2.6l2.1,3.4l2.2,2.1l0.7,1.9v1l-0.7,0.2l-2.1-0.1l1.9,3.7l2.5,4.3L174.6,201.5z"/>
	<path class="st9" d="M128.2,205.1l1.1-4.6l2.5-3.5l2.2,1l1.3-0.1l1.2-5.6l-2.5-1.3l0.1-1.7l0.7-1.1l0.8-3.6l1.5-3.5l-1.4-2.8
		l-1.2-4.9l-2.7-5l-2.8-2l-4.6-2.6l-3.4-0.2l-7.3,3.7l-4.5,5.6l-1.2,6.8l-1.3,3.6l-2.7,2.7c0,0-1.8,1.4-1.6,1.8
		c0.1,0.4-0.7,2.6-0.7,2.6l-0.6,1.8l1.8-0.9l2.4-0.2l0.5,0.1l0,1.9l0.6,2c0,0,0.4,2.6,0.4,2.7c0,0.1,0,2.3,0,2.3s0.2,1.1,0.3,1.3
		c0.1,0.2,1,2.2,1,2.2l0.4,0.4l0.3-1.9l0.7-0.9l2.2-0.5l1.4-1.1c0,0,0.4-2.3,0.4-2.5s0-2.3,0-2.3l0.9-1.3l0.9-0.6l0.5-0.5l-1.8-3.6
		L112,182v-4.3l1.1-1l3.9-1.8l4-2.5l2-1.5l1-0.7l0.8,2.3l1.5,2l2.1,3.1l1.4,2.3l-1.1,2.4l-1,4.1l-1.2,2.9l-1.8,2.1l0.2,1.7
		c0,0,0.2,2.9,0,2.9s-0.5,2.2-0.5,2.2l1.1,3.9c0,0,1.6,2.3,1.9,2.7S128.2,205.1,128.2,205.1z"/>
	<path class="st10" d="M138.9,186.4l-2.4,3l-1.2-0.3l-0.4-3l2-5.2l-1-0.3l-1.9,0.7l-5.5,3.6v-1l1-3.1l1.3-1.3l2.1-0.7l3.6,0.3
		l1.7,0.4l3.5-1.7l3.4-0.3l2.1,0.6l0.9-0.5l2.5-0.1l2.5,0.8c0,0,0.6-0.3,0.7-0.4c0.1-0.1,3.7-1.1,3.7-1.1l3.6,0.4l1.5,2.4
		c0,0-1.9-0.9-2-1c-0.1-0.1-1.7,0-1.7,0l1.4,1.3l0.8,1.5l-1.4-0.6l-3.8-1.5l-1.2,0l-0.2,0.7l1.4,3.1l1.2,3.1l-0.2,0.6l-1.3,0.9
		l-1-1.2l-2.7-0.7c0,0-1.1,0.1-1.1-0.1c0-0.1-2.7-2.6-2.7-2.6l-1.2-2l-0.8,0.7l-3.4,2.6l-3.1,1.5L138.9,186.4z"/>
	<polygon class="st9" points="181.6,178.6 181.6,174.6 180.5,171.3 178.3,170.6 173.3,170.8 171.2,171 167.6,169.7 167.2,168.1 
		167.9,165.3 170.9,163.2 174,162.7 177.8,163.1 181.4,164.3 183.4,165.9 184.7,169.5 185.9,174.6 185.7,177.6 185.3,178.4 
		184.6,177.6 182.5,178.6 181.8,179.7 	"/>
	<polygon class="st11" points="132.9,223.1 133.5,206.9 134.8,205.8 141.1,204.4 142.1,204.3 143.1,205.5 146.4,207.1 148.9,206.4 
		150.9,203.9 152.3,204.3 156.8,207.1 157.3,223.1 	"/>
	<polygon class="st12" points="167.8,223.1 166.3,212.8 164.5,209.7 157.5,214.4 157,207.9 152.3,204.3 150.9,203.9 162.7,194 
		168.8,192.1 173.7,201.5 178.7,197.8 184.3,191.1 189,192.7 190.8,194.6 193.7,203.7 197.8,222.7 198.3,223.4 	"/>
	<polygon class="st13" points="140.4,191.9 140.4,198.3 143.1,200.2 147,200.8 150.9,200.2 151.6,198.3 150.9,191.5 147.8,192.4 
		143.5,192.5 	"/>
	<path class="st13" d="M115.1,180.9l-2,5.5l0.7,2.6l2.5,3.7c0,0,0.8,0.9,2.3,0.8s3.7-0.1,3.7-0.1l2.3-1.6l1.9-2.2l1.7-4.5l-3.3,0.4
		l-4.3-0.9l-3.7-2.1L115.1,180.9z"/>
	<path class="st13" d="M166.1,178.6l0.5,4.2l1.6,3.7l2.3,2.1l2.3,0.8l3.6-0.1l4.1-1.3l-0.8-2.5l-1.2-3.7l0.1-0.9l-0.9-0.7
		c0,0-1,0.3-1.4,0.3c-0.4,0.1-5.2-0.3-5.2-0.3l-3.3-1.2L166.1,178.6z"/>
</g>
<g id="Слой_4">
	<path class="st14" d="M105.5,190.9c0,0-6.8-1.8-7.8,8.6c-1,10.4-3,22.4-3,22.4"/>
	<line class="st14" x1="104.7" y1="206.9" x2="103.4" y2="222.4"/>
	<path class="st14" d="M126.7,207.1c0,0-0.5,4.1,0.7,5.9c1.2,1.8,3,3.9,1.1,9.7"/>
	<path class="st14" d="M131.5,197.2c0,0,4.1,0.7,4.5,2.5c0.4,1.8,1.8,5.2,1.8,5.2"/>
	<path class="st14" d="M171.2,189.3c0,0,1,4.1,1.5,5.3"/>
	<path class="st14" d="M181.1,183.8c0,0-0.1,6.3,0.5,7.1"/>
	<path class="st14" d="M151.2,203.7c0,0,9.6-8,11.6-9.6c2.5-2.1,8.5-2.1,8.5-2.1"/>
	<line class="st14" x1="164.5" y1="209.7" x2="157.5" y2="214.2"/>
	<path class="st14" d="M162.7,205.8c0,0,2.8,3.1,3.7,8.1c0.9,5,1.3,9.3,1.3,9.3"/>
	<path class="st14" d="M181.6,190.9c0,0,7-0.2,9.2,3.7c2.2,3.9,7,27.3,7,27.3"/>
	<line class="st14" x1="186.2" y1="207.1" x2="190.8" y2="222.7"/>
	<path class="st14" d="M168.8,192.1c0,0,4.8,9.8,5.8,9.4c1-0.5,9.3-8.8,9.7-9.5"/>
	<path class="st14" d="M143,200.5c0,0,0.3,2.4-0.3,3.3c-0.6,0.9-8.8,1-9.2,3c-0.3,1.8-0.6,16.2-0.6,16.2"/>
	<path class="st14" d="M149.3,200.8c0,0-0.1,0.4,0.4,1.8c0.6,1.3,6.3,4,7.1,4.6c0.7,0.6,0.5,16,0.5,16"/>
	<path class="st14" d="M141.7,204.3c0,0,5.8,6.5,9.2-0.4"/>
	<line class="st14" x1="167.2" y1="169.5" x2="166.6" y2="173.2"/>
	<line class="st14" x1="166.4" y1="173.4" x2="168.8" y2="173"/>
	<line class="st14" x1="173.3" y1="172.9" x2="177.8" y2="173.9"/>
	<path class="st14" d="M166.4,173.4c-0.1,0.4-0.3,5.1-0.3,5.1"/>
	<path class="st14" d="M181.1,179.8c-6.9,2.1-15-1.3-15-1.3s-0.6,12.8,10.9,10.7l3.5-1.3c0,0-2.9-5.1-1.7-7.7"/>
	<path class="st14" d="M181.6,179.8c0,0,0.3-6.7-1-8.2c-1.3-1.6-7-1-7.9-0.6c-1,0.4-5.4-0.6-5.7-2.6c-0.3-2,2.5-5.6,6.2-5.6
		s10,0.6,11.1,5.1c1.1,4.5,2.4,7.3,1,10.4"/>
	<path class="st14" d="M181.6,179.8c0,0,2.3-3.9,3.6-1.3c1.4,2.7-0.7,5.1-1.8,5.5c-1.1,0.3-2.3,0-2.3,0"/>
	<path class="st14" d="M173.7,175.7c0,0,2.9,0.2,3.6,2"/>
	<path class="st14" d="M166.4,176.3c0,0,1.5-0.7,2.4-0.6"/>
	<path class="st14" d="M170.8,174.9c0,0,1.1,2.2,0.6,3.6"/>
	<path class="st14" d="M136.1,189.5c0,0,1.9-2.8,3.6-3.7c1.7-0.9,11.4-6,7.5-7.7c-3.9-1.6-10.3,0.1-11.7,5.7
		C134.2,189.4,136.1,189.5,136.1,189.5z"/>
	<path class="st14" d="M147,178.1c0,0,6.3-1.9,8.2,2.8c1.9,4.7,1.8,5.2,1.8,5.2"/>
	<path class="st14" d="M137.6,179.7c0,0-5.1-1.3-7.1,0.2c-2,1.5-2.3,5.6-2.3,5.6s7.7-6.1,8.3-4.5"/>
	<path class="st14" d="M153.1,178.4c0,0,7.1-4.5,10.2,1.6c0,0-2.8-2.2-4.3-1.4c0,0,2.2,1.7,2.4,3.2c0,0-5.7-3.7-6.8-2.5"/>
	<path class="st14" d="M134.7,188c0,0-2.6,2.7,1.6,3.9c0,0,2.5,8.8,10.1,9.1c2.7,0.1,5.3-1.1,6.7-3.5c0.9-1.5,1.7-3.5,1.5-6.2
		c0,0,3.9-0.4,4.2-2.8c0.3-2.5-1.9-2.4-3.2-0.8c0,0-1.3-1.9-4-2.1c-2.7-0.2-4.1-4.3-4.1-4.3"/>
	<path class="st14" d="M136.5,189.7c0,0,10.2,7.7,18.8-1.5"/>
	<path class="st14" d="M140.4,198.3c0.2-1.1,0-6.2,0-6.2"/>
	<path class="st14" d="M150.9,192.2c0,0,0.5,6.1,0.8,6.8"/>
	<path class="st14" d="M145.2,188.2c0,0,0.8,2.7,0.3,4.2"/>
	<line class="st14" x1="148.2" y1="186.1" x2="151.7" y2="186.7"/>
	<line class="st14" x1="142.5" y1="186.4" x2="139.7" y2="187.6"/>
	<path class="st14" d="M139.4,189.4c0,0,1.9-1.4,4.3,0"/>
	<path class="st14" d="M148.1,189.3c0,0,3-1.5,4.1,0.2"/>
	<path class="st14" d="M112,179c0,0-0.1,17.9,10,14.5c0,0,1.2-0.5,2.6-1.7c1.5-1.3,2.8-3.5,3.6-6.3"/>
	<path class="st14" d="M127.8,205.5c0.1-0.2-4-5.5-3.2-8.3c0.8-2.8,0.2-5.2,0.6-6"/>
	<path class="st14" d="M127.8,205.5c0,0,0.1-2.4,1.7-5.5c1.6-3.1,2.8-2.9,2.8-4.7c0-2.2,1.5-4.1,1.5-4.1"/>
	<path class="st14" d="M135.1,198.4c0,0,1.2-5.8,0.8-6.2"/>
	<path class="st14" d="M136,179.1c0,0-1.5-8.1-4.7-10.8c-3.3-2.7-7.9-7-12.7-4.2c-4.8,2.8-10,5.9-10.6,13.4c-0.4,4.5-2,6.5-3.2,7.3
		c-1.2,0.9-2.2,2.1-2.8,3.5l-1.2,3.6"/>
	<path class="st14" d="M123.5,170.2c0,0-4.2,3.8-6.5,4.7s-6.1,2.1-6.4,6s0,5.9-2.3,7.9c-2.3,2-3.6,2.6-2.3,5.8
		c0.6,1.4,0.6,2.6,0.5,3.5c-0.2,1.6,0.2,3.3,1,4.7l0.8,1.4c0,0-0.4-2.7,1-3.3c1.4-0.5,3.4-0.6,3.9-3c0.5-2.4-0.5-3.8,0.7-4.6
		c1.2-0.7,1.5-1.1,1.5-1.1"/>
	<path class="st14" d="M123.5,167.5c0,0,0.7,5,1.9,5.9c1.5,1.3,4.6,6.5,4.6,6.5"/>
	<path class="st14" d="M122.2,179.5c0,0,0.1,3.5-0.1,4.5"/>
	<path class="st14" d="M112.5,178.1c0,0,6.6,9.2,15.3,7"/>
	<path class="st14" d="M114.5,181.3c0,0-0.7,3.5-1.4,5.6"/>
	<line class="st14" x1="116.9" y1="176.3" x2="120.2" y2="176.3"/>
	<line class="st14" x1="124.9" y1="176.4" x2="127.8" y2="176.4"/>
	<path class="st14" d="M115.9,179.8c0,0,3-1.7,4.7,0.3"/>
	<path class="st14" d="M124.2,180.2c0,0,2-1.2,4,0"/>
	<circle cx="167.9" cy="176.8" r="0.8"/>
	<circle cx="174.7" cy="176.8" r="0.8"/>
</g>
<g id="Слой_5">
	<g>
		<circle class="st15" cx="211.7" cy="156.8" r="28.3"/>
		<path class="st16" d="M231.9,139.3l-4.2-2.6c-0.9-0.6-2.2-0.3-2.8,0.7l-17.4,28.2l-9.9-10.6c-0.8-0.8-2-0.9-2.9-0.1l-3.5,3.2
			c-0.8,0.8-0.9,2-0.1,2.9l13.8,14.8c0.5,0.5,1.1,0.9,1.8,1.1c1.9,0.8,4.2,0.1,5.4-1.7l20.4-33.1
			C233.1,141.1,232.8,139.9,231.9,139.3z"/>
	</g>
</g>
</svg>
