<?xml version="1.0" encoding="utf-8"?>
<!-- Generator: Adobe Illustrator 22.1.0, SVG Export Plug-In . SVG Version: 6.00 Build 0)  -->
<svg version="1.1" xmlns="http://www.w3.org/2000/svg" xmlns:xlink="http://www.w3.org/1999/xlink" x="0px" y="0px"
	 viewBox="0 0 283.5 283.5" style="enable-background:new 0 0 283.5 283.5;" xml:space="preserve">
<style type="text/css">
	.st0{fill:#BD222E;}
	.st1{fill:#C3D9F1;}
	.st2{fill:#FCD4B6;}
	.st3{fill:#662227;}
	.st4{fill:#FFFFFF;}
	.st5{fill:none;stroke:#000000;stroke-linecap:round;stroke-linejoin:round;stroke-miterlimit:10;}
	.st6{fill:none;stroke:#000000;stroke-width:1.0528;stroke-linecap:round;stroke-linejoin:round;stroke-miterlimit:10;}
	.st7{fill:none;stroke:#000000;stroke-width:0.75;stroke-linecap:round;stroke-linejoin:round;stroke-miterlimit:10;}
	.st8{fill:none;stroke:#000000;stroke-width:0.75;stroke-miterlimit:10;}
	.st9{fill:none;stroke:#BD212E;stroke-linecap:round;stroke-linejoin:round;stroke-miterlimit:10;}
	.st10{fill:#BD212E;}
</style>
<g id="Слой_1">
</g>
<g id="Слой_5">
	<path class="st0" d="M189.7,257.9l-1.9,1.8l-4.9,0.8l-6.6,0.4l-0.3-5.8l-2.6,0.9l-7.8,2l-11.7,1.6l-12.1-0.4l-11.1-1.8l-13.9-4.7
		l-7.8-3.9l1.6-24.5l0.8-22.2l0-17.5l-0.9-15.2c0,0-0.6-8.4-1.5-10.4c-0.9-2.1-1.7-5.9-2-6.7c-0.4-0.7-1.5-3.8-3.4-4.1
		c-1.9-0.4-3.9-1.8-3.9-1.8l-6.7-2.7l-15.1-7.1l-5.2-3.2l-3.9-4.5l-3.2-5.7l0.1-5c0,0,1-4.9,1.6-6.2c0.6-1.3,5.2-8.7,5.2-8.7
		l4.7-6.4l9.4-13l13.2-18.3l6.6-9.2c0,0,3.4,3.8,4.1,4.5c0.6,0.8,7.8,8.8,9.2,8.8l-0.7,1.1l-6.1,8.1l-12.6,20l-8.5,13.9
		c0,0-1.5,0.5-0.5,0.9c1,0.4,2.7,1.4,2.7,1.4l33.4,9.7l-2.7-0.4l1.6,2.2c0,0,6.9,9.2,9.6,10.2c2.7,1,6.3,4.3,8.1,4.4
		c1.8,0.1,4,1.1,4,1.1s9-0.3,10-1.3s6-3.1,7-4c1-0.9,2-2.3,2-2.3s7.1,0.8,8.7,1.3c1.6,0.4,5.2,1.6,6.8,2.8s2.7,3.3,4.3,5.4
		c1.6,2.1,2.4,18.1,2.4,18.1l1.3,40.2l0.4,34.4l-0.2,14.3L189.7,257.9z"/>
	<path class="st1" d="M177.9,280.5h-67.2v-30.6l5.3,2.6c0,0,12.1,5.8,23,6.6s19.2,0.6,25.3-0.7s11.7-3.1,11.7-3.1L177.9,280.5z"/>
	<path class="st2" d="M178.5,279.9l5-5c0,0,3-4,3.4-6.4s1-8.7,1-8.7l-4.2,0.7l-7.3,0L178.5,279.9z"/>
	<polygon class="st3" points="160.3,117.3 166.4,115.9 170.3,114.1 171,113.3 171,111.3 171.7,110.6 177.6,106 181.8,103.6 
		183.8,100.5 184.6,97.5 184.7,93.6 184.2,90.9 183.1,87.7 183,85.3 184.7,82.4 186.8,79.3 188.2,77 188.2,73.9 186.3,69.1 
		184.1,65.8 180.9,61.9 178,57.5 175.6,53.6 173.3,51.4 169.1,49.7 163.9,49.3 162.9,49.3 160.7,47.3 157.1,45 154.6,44.6 
		148.1,45.4 143.3,45.7 142,45.2 133.6,50 123.4,58 124.4,60.9 124.9,62 128.8,62.3 130,67.3 123.4,68.8 122.1,71.7 123.1,82.7 
		122.8,85.9 127.2,98.3 130,106.4 141.7,109.9 150.3,117.3 	"/>
	<path class="st2" d="M166.4,135.6l-3.1,2.6l-4.6,2.7l-7.8,1.4l-4.9-0.5l-8.4-3.5l-6.1-4.8l-7.1-9.1l3.4,0.4l-1.6-2.1l-4-9l-1.7-6.8
		l-1.2-8.5l-0.3-8.2l2.8-2.8c0,0,1-2.2,1-2.4c0-0.2-0.3-5.5-0.3-5.5l-0.6-4.1l-0.2-2.9l0.9-2.3l0.8-1.5l-4,1l-2.2-1l-7.2-7.5
		l-3.8-4.9l1.8-1.1l9-5.6l13-7.4h0.7l-7.5,6.7l9.9-4.8l2.6-0.6l4.1-0.4l0.6,0.4l-1.2,1.4l1.7,0.2l1,0.5v1.1l-1,1.1l1,0.5v1.4
		l-1.1,1.9l-4.1,2.2l-9.6,5.2l-2.8,2.3l1.2,1.7l3.6,0.2l4.1,0.8l2.1,0.6l0.9,0.9l-0.6-1.8l3.6,0.3l2.8-3l3.7-2l5.7-0.2l3-0.2
		l0.7,1.8l1.5,1.3l4.1,1.3l2.3,1.7l1.4,2.6l-0.7,2.4l-1.3,4.5l-1.4,3.1l-0.1,2.9l2.2,3.4l2.7,2.7l0.8,2.9l-0.4,3.3l0.4,3l1.3,1.5
		l1.3-0.9l2.2-0.2l1.7,1l1.2,1.7l-0.5,3.4l-1.2,2L170,106l-4.7,1.6l-1.8,0.3l-0.1,1.4l-1.7,4.4l-4.3,6.4l-0.3,2.3l-1.3,6.6l0.4,5.5
		h3.4h5.7l1.5,0.2L166.4,135.6z"/>
	<polygon class="st3" points="157.5,83.3 154.3,78 151.1,74.9 149.6,74.3 148.5,74.9 148.5,76.6 152.7,80.8 158,84.2 	"/>
	<polygon class="st3" points="126.7,78.8 130,78 136.6,75.9 138.4,74.8 138.4,73.5 135.8,73 133.6,73 128.8,75.9 	"/>
	<path class="st3" d="M119.5,98.3l-0.5-8.6l2.1-1.5l1.8-2.9l-0.6-6.5c0,0-1.1-5.6-0.9-5.8c0.3-0.2,2-4.2,2-4.2l-3.7,0.5l-6.1,9.4
		l1.3,1.2l0.3,1.9l-0.4,1.9l-1.5,2.6l-1.3,3.3v1.6l1.6,2.8l4.1,3.5L119.5,98.3z"/>
	<path class="st4" d="M157.1,94.2c-0.1-0.2-0.3-0.4-0.4-0.6c0.1-0.2,0.1-0.5-0.1-0.7c-1.2-1.4-2.3-2.7-3.5-4.1
		c-0.3-0.3-0.6-0.3-0.9-0.2c0-0.1-0.1-0.1-0.1-0.2c0,0-0.1-0.1-0.1-0.1c0,0,0,0,0,0c-0.3-0.6-0.9-1-1.4-1.5
		c-0.2-0.1-0.3-0.2-0.5-0.2c-0.2-0.2-0.5-0.4-0.7-0.6c-0.3-0.3-0.8-0.2-1.1,0c-0.1-0.1-0.2-0.1-0.3-0.2c-0.1-0.1-0.1-0.1-0.2-0.2
		c-0.2-0.2-0.5-0.1-0.6,0.1c-0.1,0.1-0.1,0.2-0.1,0.4c0,0.1,0.1,0.1,0.1,0.2c0.3,1.6,1.1,3.3,1.7,4.8c0.3,0.8,1.7,0.6,1.5-0.3
		c-0.1-0.3-0.2-0.6-0.3-0.9c0-0.1,0.1-0.2,0.1-0.3c0-0.3,0-0.6-0.1-0.9c0.2,0.2,0.5,0.5,0.7,0.7c0.3,0.3,0.7,0.3,1,0.1
		c0,0.1,0,0.1,0.1,0.2c0.1,0.1,0.2,0.3,0.3,0.4c-0.2,0.1-0.3,0.3-0.4,0.5c-0.5,0.1-1,0.6-0.6,1.1c0.1,0.1,0.1,0.2,0.2,0.3
		c0,0,0,0.1,0.1,0.1c-0.1,0-0.2,0-0.2-0.1c-0.3-0.1-0.5,0.3-0.2,0.4c0.8,0.5,1.5,1,2.4,1.4c0.9,0.4,1.9,0.8,2.8,1.2
		C156.7,95.3,157.4,94.7,157.1,94.2z"/>
	<path class="st4" d="M133.1,84.3c-0.6,0-1.3,0.1-1.9,0.1c-0.2,0-0.4,0-0.6,0c-0.9,0.2-0.8,1.1-0.2,1.4c0,0-0.1,0.1-0.1,0.1
		c-0.4,0.6,0.2,1.2,0.8,1.1c-0.4,0.5-1,0.9-1.6,1.1c-0.1-0.1-0.1-0.2-0.3-0.3c-0.1-0.1-0.3-0.2-0.4-0.3c0.1-0.2,0.1-0.5-0.1-0.7
		c0.1-0.2,0.1-0.4,0-0.5c0.2-0.2,0.3-0.4,0.5-0.6c0.6-0.9-0.9-1.6-1.4-0.8c-0.1,0.1-0.5,0.6-0.3,0.6c-0.4,0-0.7,0.2-0.8,0.5
		c-0.3,0.1-0.6,0.4-0.6,0.7c-0.1,0-0.2,0-0.3,0c-0.5,0-0.6,0.4-0.6,0.7c0,0,0,0,0,0c-0.3,0.1-0.4,0.4-0.1,0.6
		c0.9,0.6,2.4,0.7,3.4,0.9c0.1,0,0.3,0,0.4,0c2.3,0.5,4-1.9,5-3.7C134.3,84.8,133.7,84.2,133.1,84.3z"/>
</g>
<g id="Слой_3">
	<path class="st5" d="M156,134.5c28.3-0.5,29.8,6.8,31.8,13.4c1.9,6.6,4.1,106.8,1.9,110.1c-2.2,3.3-13.5,3-13.5,3s-6.3-83.5-7.1-87
		c-0.8-3.6,3.4-6.7,3.4-6.7"/>
	<path class="st5" d="M175.9,255.2c0,0-32.6,13.5-66.9-6.3c0,0,8.2-93.3-5.2-100.5s-53.5-14.8-32.1-44.2
		c21.8-30,34.9-48.3,34.9-48.3S115,68,119.7,69.4c0,0-23.3,33.4-29.1,45.4c-0.9,1.8-1.3,3.1-1.3,3.7"/>
	<path class="st5" d="M127.2,124.7c0,0,0,0-3.6-1.1c-11-3.4-33.2-8.8-32.6-10"/>
	<path class="st5" d="M166.4,135.6c0,0-19.4,20.7-41.8-10.8"/>
	<path class="st5" d="M157.5,120.5c0,0-2.3,6.7-1.4,14"/>
	<line class="st5" x1="136.1" y1="129.3" x2="138" y2="134.5"/>
	<line class="st5" x1="110.7" y1="249.9" x2="110.7" y2="280.5"/>
	<path class="st5" d="M140.6,263.2c0,0,8.2,5.8,7.4,15.6"/>
	<line class="st5" x1="175.9" y1="256.6" x2="177.9" y2="280.5"/>
	<path class="st5" d="M187.8,259.8l-0.7,7.2c-0.6,5.2-3.8,8.4-7.7,11.9l-1.5,1.6"/>
	<path class="st5" d="M118.9,84.5c0,0-0.2,7.7,0.9,16.7c1.7,13.6,6.5,30.2,19.7,27.5c0,0,9.4-0.3,16.9-7.7c0.8-0.8,1.5-1.6,2.2-2.5
		c2.2-2.8,4-6.3,5.2-10.8c0,0,8.2-0.5,10-6.3s-4-7.1-5-5.3c-1.1,1.9-3.2-2.4-2.4-4.8c0.7-2,0.6-4.7-2.6-7.5c-2.6-2.3-3.5-6.2-2-9.3
		c0,0,0-0.1,0.1-0.1c2.1-4.2,5.5-9.8-2.5-11.9c-8.1-2.1-5.9-10.3-3.6-11.4s15.3-5.3,20.6,4c3.2,5.6,5.3,8.3,6.5,9.5
		c1.2,1.3,2.3,2.8,3.1,4.4c1.4,2.8,2.8,6.7,1,9.1c-3,4-5.6,6.9-3.8,11c1.9,4.1,1.9,11.8-2.1,14.4c-4,2.6-11.5,6.7-10.5,9.1
		c1,2.4-9.8,4.7-11.4,4.7"/>
	<path class="st5" d="M113.9,78.9c0,0,2.2,2.2,0.8,4.8c-1.3,2.6-4.3,6.1-2,9.3c2.3,3.2,6.2,5.3,6.2,5.3"/>
	<path class="st5" d="M119,90.2c0,0,3.7-2.8,4-4.9c0.4-2.8-1.7-9.6-1.1-12.8c0.6-3.2,1.3-3.4,4.5-4.2"/>
	<path class="st5" d="M133.6,63.5c0,0,3.4-0.5,5.2-0.5s2.1-3.5,6.4-4.3c4.3-0.8,8.5-0.5,8.5-0.5"/>
	<path class="st5" d="M162.9,49.4c0,0-3.5-4.2-6.8-4.8c-3.4-0.5-4.4,0.9-8.7,1.2c-4.4,0.3-5.3-0.6-5.3-0.6"/>
	<path class="st5" d="M106.8,55.8c0,0,21.2-13.5,23.9-13.9c2.6-0.4-10.3,8.2-10.3,8.2s13-6.3,15.6-6.9c2.6-0.5,9.7-1.6-1.1,4
		l-11.6,5.4"/>
	<path class="st5" d="M119.7,69.4c0,0,13.6-1.9,15.1-2.6s3.6-2.2-1.9-3.4c-5.4-1.2-10.3-0.4-7.5-3.2s14.3-8.4,15.3-9.1
		c2.4-1.7,1.5-4,0.3-3.5"/>
	<path class="st5" d="M124.4,56.3c0,0,25.2-10.7,15.6-11.8"/>
	<path class="st5" d="M126.4,78.9c0,0,13.1-2.8,12.5-4.8C138.3,72.1,131.9,72.1,126.4,78.9z"/>
	<path class="st5" d="M158,84.1c0,0-12.4-7.2-9.4-9.5C151.7,72.3,158,84.1,158,84.1z"/>
	<path class="st5" d="M139.4,83.3c0,0,0.2,7-1,8.9c-1.1,1.6-2.4,4.1-4,5.7c-0.7,0.8-0.9,2-0.3,2.9c0.9,1.4,2.7,3.2,3.1,3.3"/>
	<path class="st6" d="M143.3,101c0,0,1.2,3-0.6,4.1"/>
	<path class="st5" d="M129.6,112.8c0,0,11-1.2,15.7,4.5"/>
	<path class="st5" d="M132.6,118.2c-0.4,0.5,3.1-0.9,6.4,1.2"/>
	<path class="st5" d="M147.3,85.3c0,0,7.8,2.6,9.8,8.7"/>
	<path class="st5" d="M133.6,84.2c0,0-6.3-1-8.7,3.5"/>
	<ellipse cx="130" cy="86.6" rx="2" ry="2.5"/>
	<ellipse cx="151.1" cy="90.2" rx="2" ry="2.5"/>
	<path class="st7" d="M158.5,50c0,0-10-4.3-9.7-2.1C149.1,50.1,158.5,50,158.5,50z"/>
	<path class="st8" d="M154.6,52.2c0,0-0.1,0-0.2-0.1c-1.5-0.3-8.2-1.7-9-0.3c-0.7,1.3,1.8,2.2,3.1,2.1
		C149.4,53.9,154.5,52.2,154.6,52.2"/>
	<path class="st8" d="M159,50.2c0.4-0.5,7.5,1.6,7.9,4.5C167.2,57.2,159,50.2,159,50.2z"/>
	<path class="st7" d="M154.6,52.2c0,0,10,3.6,7.3,5.7C160.4,58.9,154.6,52.2,154.6,52.2z"/>
	<path class="st5" d="M166.9,102c0,0,2.7-3.6,4.1-3.7"/>
	<line class="st5" x1="171.7" y1="101" x2="168.4" y2="100.1"/>
</g>
<g id="Слой_4">
	<path class="st9" d="M132,58.2c4.6,4.4,4.9,4,11.2,9c2.8,2.2,5.6,4.4,8.4,6.4c26.3,19.2,50.4,28.9,55.8,21.8
		c4.4-5.7-4.3-20.5-20.6-37.1c-6.2-6.4-13.6-13-21.7-19.5c-2.2-1.8-4.5-3.5-6.7-5.2l0,0c-27-20.1-52-30.3-57.6-23.1
		c-3.5,4.6,3.4,19.2,14,31.9"/>
	<path class="st9" d="M85.7,79.8c-1.4-4,2.8-9.5,10.7-15.5c0.2-0.2,0.5-0.4,0.7-0.5"/>
	<path class="st9" d="M110.5,85.9c11.4-0.8,22.3-5.1,38.5-10.7c0.9-0.3,1.7-0.6,2.6-0.9c11.5-4.1,22-8.8,30.6-13.6
		c16.4-9,26.3-18.3,24.3-24.1c-2.6-7.6-24.2-6.9-51,0.7l0,0c-3.4,1-6.8,2-10.3,3.2"/>
	<path class="st9" d="M132,61.2c4.6,4.4,4.9,4,11.2,9c2.8,2.2,5.6,4.4,8.4,6.4c26.3,19.2,50.4,28.9,55.8,21.8
		c4.4-5.7-4.3-20.5-20.6-37.1c-6.2-6.4-13.6-13-21.7-19.5c-2.2-1.8-4.5-3.5-6.7-5.2l0,0c-27-20.1-52-30.3-57.6-23.1
		c-3.5,4.6,3.4,19.2,14,31.9"/>
	<path class="st9" d="M110.5,88.9c11.4-0.8,22.3-5.1,38.5-10.7c0.9-0.3,1.7-0.6,2.6-0.9c11.5-4.1,22-8.8,30.6-13.6
		c16.4-9,26.3-18.3,24.3-24.1c-2.6-7.6-24.2-6.9-51,0.7l0,0c-3.4,1-6.8,2-10.3,3.2"/>
	<polygon class="st10" points="95.7,15.7 97.3,13.8 97.8,16.2 100,17.2 97.9,18.4 97.7,20.9 95.9,19.2 93.6,19.8 94.6,17.5 
		93.3,15.5 	"/>
	<polygon class="st10" points="97.2,24.7 98.2,23.2 98.8,24.9 100.5,25.4 99.1,26.5 99.1,28.3 97.7,27.2 96,27.8 96.5,26.1 
		95.5,24.7 	"/>
	<polygon class="st10" points="194.6,57.7 195.4,56.5 195.8,57.9 197.2,58.3 196.1,59.2 196.1,60.6 194.9,59.8 193.6,60.3 194,58.9 
		193.1,57.7 	"/>
	<polygon class="st10" points="189.9,51.5 190.9,50 191.4,51.8 193.1,52.3 191.7,53.4 191.7,55.2 190.3,54.1 188.6,54.7 189.2,53 
		188.1,51.6 	"/>
	<polygon class="st10" points="193.7,101.1 194.6,99.9 195,101.3 196.4,101.7 195.2,102.6 195.3,104 194.1,103.2 192.7,103.7 
		193.2,102.3 192.3,101.1 	"/>
	<polygon class="st10" points="197.7,92.8 198.5,91.6 198.9,93 200.3,93.4 199.2,94.2 199.2,95.7 198,94.9 196.7,95.4 197.1,94 
		196.2,92.8 	"/>
	<g>
		<polygon class="st10" points="141.3,26.1 142.8,24.3 143.3,26.7 145.5,27.6 143.4,28.8 143.2,31.3 141.5,29.6 139.1,30.2 
			140.1,28 138.9,25.9 		"/>
		<polygon class="st10" points="143.1,34.5 144.1,33 144.7,34.8 146.4,35.3 144.9,36.3 145,38.2 143.5,37.1 141.9,37.7 142.4,36 
			141.3,34.5 		"/>
	</g>
</g>
</svg>
