<?xml version="1.0" encoding="utf-8"?>
<!-- Generator: Adobe Illustrator 22.1.0, SVG Export Plug-In . SVG Version: 6.00 Build 0)  -->
<svg version="1.1" id="Слой_1" xmlns="http://www.w3.org/2000/svg" xmlns:xlink="http://www.w3.org/1999/xlink" x="0px" y="0px"
	 viewBox="0 0 283.5 283.5" style="enable-background:new 0 0 283.5 283.5;" xml:space="preserve">
<style type="text/css">
	.st0{fill:#FFEEB6;}
	.st1{fill:#C3D9F1;}
	.st2{fill:#FFE69D;}
	.st3{fill:#662327;}
	.st4{fill:#FCD4B6;}
	.st5{fill:#E5F2FC;}
	.st6{fill:#FFFFFF;}
	.st7{fill:none;stroke:#000000;stroke-miterlimit:10;}
	.st8{fill:none;stroke:#000000;stroke-linecap:round;stroke-linejoin:round;stroke-miterlimit:10;}
	.st9{fill:none;stroke:#000000;stroke-width:0.75;stroke-linecap:round;stroke-linejoin:round;stroke-miterlimit:10;}
	.st10{fill:none;stroke:#000000;stroke-width:0.6905;stroke-linecap:round;stroke-linejoin:round;stroke-miterlimit:10;}
</style>
<g id="Слой_1_1_">
</g>
<g id="Слой_6">
	<path class="st0" d="M51.8,195l-52.2-30.3v-32.2l38.4-6.7l107.4-18.6l23.8,8.5l16.7,6.9l15.6,6.6l-42.8,18.4l-70,28.3
		c0,0-18.4,6.8-19.3,7.2s-8.7,3.8-9.1,4.7c-0.4,0.9-7.4,7.4-7.4,7.4h-1.1V195z"/>
	<path class="st1" d="M84,152.2l-6.6,2.8l-7.9,2.8l-8.6,2.1l-10.3,0.7l-5.1-2l-2.5-2.3l-1.8-4.1l-1-6.2l-3.4-40l-1.2-2.6l-4.5-7.7
		l-7.2-15.1l-1.2-3.8L21.1,71l1.2-4.4l1.5-2.1l2-1.1l18.6-3.3l34-4.6l0.8-0.1l45-5.4h5.8c0,0,6.4-0.1,9.8,1.4c3.4,1.5,8.1,4.8,9,6.2
		s2.1,3.7,2.4,4.8c0.3,1.1,1.9,11.8,1.9,11.8l2,7.3l3.8,13.4c0,0,4.2,9.6,5.1,11s3.8,6.1,3.8,6.1s1.5,2.5,1.5,3.6
		c0,1.2,0.5,2.2-0.4,3.8c-0.9,1.6-0.9,2-2.4,3s-8,3.3-8,3.3L84,152.2z"/>
	<path class="st2" d="M-0.3,164.7L51.8,195c0,0-5.7,11-6.6,14.8c-0.9,3.7-4,22.6-0.7,30H-0.3V164.7z"/>
	<path class="st1" d="M283.8,162.3l-61.5-25l-31,15.1l-45.5,21.8l-25.5,11.9l-28,12.7c0,0-7.5,4.3-10.7,7.2c-3.1,3-6,4.7-7.1,7.7
		c0,0-2.5,3.9-2.8,4.5s-2.5,5.1-3,7S66.4,235,67,239c0.6,4,216.5,0,216.5,0L283.8,162.3z"/>
</g>
<g id="Слой_7">
	<path class="st3" d="M125.2,93l3.9-2.5l2.6-2.8v-2.1v-1.9l1.2-2.2c0,0,1.7-2.1,1.6-2.9c-0.1-0.8-0.1-3.1-0.2-3.5
		c-0.1-0.4-1.7-3.2-1.7-3.2s-1-4.2-1.1-4.7c0-0.5,0.2-3.4,0.2-3.4s-0.4-4.3-1.4-5.8c-1-1.4-3.7-3.6-3.7-3.6l-2.5-1.5
		c0,0-3.1-2.6-3.6-3.1s-3-3-3-3l-3.1-1.9l-3.3-1.5H107l-5.9,0.9L99,44.9l-0.8,0.8l-2-0.4l-3.5-0.4c0,0-7.4,1.6-9.7,5.4l-2.1,2.6
		l-2.5,4.7c0,0-0.5,2.4-0.5,3.2s-0.1,2.5-0.4,3.4c-0.3,0.9-1.3,3.1-2.2,3.9c-1,0.7-3.3,2.8-3.3,2.8s-1.2,1.4-1.2,2.3
		s0.2,4.5,0.9,5.9c0.6,1.4,1.4,3.7,1.4,3.7s-0.4,1.8-0.8,3.2c-0.4,1.4-0.7,3.2-0.7,3.2s-0.1,6.5,3.4,7.1c3.6,0.7,3.9,0.3,3.9,0.3
		s1.3-0.1,1.9,0.5c0.5,0.6,1,1.7,1.7,1.9c0.7,0.3,3.6,0.6,3.6,0.6l3.2-0.2l0.8-0.3l-0.3-4.2l2.3-13l3.1-6l10.3-9.6l10.8-3.3l1.7,4.3
		l4.7,6.4l2.1,2.6l0.6,3.3l-0.2,8.7L125.2,93z"/>
	<path class="st4" d="M119.3,129.3l0.9-10.5l0.8-9.4l-3.1,0.4l1.8-2.6l3-5.3c0,0,1.1-2.9,1.4-3.9s1-5,1-5s0.3-4.6,0.3-5.6
		s0-14.2,0-14.2l-1.8-2.3l-1.3-2.5l-1-3.8l-1-2.3l-3.5-2.5l-3-1.8l-7-2.5l-0.8-0.2l-2.4,2.7l-2.8,2.2l-2.7,3.2L97,66.5L95.5,71
		l-1.1,1.1l-2.8,1.5l-2.7,2l-0.4,2.6L89,81l-0.3,2.1l-0.5,1.1l-1.4-0.3L84,83.7l-2,0.5c0,0-1.3,1.2-1.2,2c0.1,0.8,1.3,6.1,6.8,8.2
		l1.2,2.4l3.9,6.4l3.1,4l0.9,4.3l1.5,6.9l9.8,5.6l10.8,6.5l0.5-0.3L119.3,129.3z"/>
	<polygon class="st3" points="97.4,79 101.8,78.6 107.1,77.6 109.4,76.9 110,75.2 109,73.7 107.6,73.4 105.2,74.2 99.6,77 97,78.7 	
		"/>
	<polygon class="st3" points="124.7,79 122,76.4 119.8,74.9 118.1,74.2 117.2,74.6 117.5,75.9 119.4,77 123.5,79 	"/>
	<path class="st5" d="M95.8,172.9l74-30l-6.8-10.6l-10.7-15.1l-4.3-4.6l-5.9-2.2l-9.2-1.2l-11.7,0.2l-1.9,20.8l-2.9-1.1l-21.1-12.4
		l-6.9,2.9c0,0-8.3,3.6-9,4.7c-0.8,1.2-1.4,3.7-1.9,5.7c-0.5,2,2,14.3,5.3,19.4c3.3,5.1,4.9,9.9,4.9,9.9L95.8,172.9z"/>
	<path class="st6" d="M120.3,87.3c0.1-0.2,0-0.4-0.3-0.6l0,0c0-0.2-0.1-0.3-0.2-0.4c1-0.3,0.6-1.6-0.4-1.4c-0.4,0.1-0.7,0.2-1.1,0.3
		c-0.2,0-0.3,0.2-0.4,0.3c0,0,0,0-0.1,0s-0.1,0-0.2,0c-0.2-0.1-0.5-0.2-0.8-0.1c-0.1,0-0.2,0.2-0.2,0.3c0.1,0.3,0.2,0.4,0.5,0.6
		c0,0,0,0.1,0.1,0.1l0,0c0.1,0.1,0.1,0.2,0.2,0.3c0.2,0.2,0.4,0.4,0.6,0.6c0.5,0.4,1.1,0.7,1.7,0.9
		C120.3,88.3,120.6,87.6,120.3,87.3z"/>
	<path class="st6" d="M123.2,87.4c-0.5-0.5-1-0.9-1.5-1.3c-0.3-0.3-0.8-0.3-1.1-0.1c-0.3,0.2-0.4,0.7-0.1,1c0.2,0.2,0.4,0.4,0.7,0.6
		c-0.2,0.1-0.5,0.2-0.7,0.3c-0.3,0.2-0.2,0.6,0.2,0.7c0.7,0.2,1.4,0,2.1-0.1C123.4,88.4,123.6,87.7,123.2,87.4z"/>
	<path class="st6" d="M108.4,84.6c-0.3-0.2-0.7-0.4-1-0.6c-0.2-0.2-0.5-0.3-0.9-0.4c-0.7-0.1-1.2,0.9-0.5,1.2
		c0.3,0.1,0.6,0.3,0.8,0.4c-0.2,0.1-0.3,0.3-0.5,0.4c-0.3,0.2-0.5,0.5-0.8,0.8c0-0.2,0-0.5-0.3-0.7v-1.4l0,0
		c0.6-0.4,0.1-1.4-0.7-1.2c-1.5,0.3-3,0.8-4.5,1.2l0,0c-0.1,0-0.1,0-0.2,0.1c-0.3,0.1-0.5,0.4-0.4,0.7c-0.5,0-1.1,0-1.6,0.1
		c-0.3,0-0.2,0.4,0,0.5c2.1,0.9,4.7,1.1,7,1.5c0.2,0,0.4,0,0.5-0.1c0,0.1,0.2,0.2,0.3,0.2c0.5-0.1,1-0.3,1.5-0.6
		c0.5-0.3,0.9-0.6,1.4-0.9C108.8,85.3,108.7,84.8,108.4,84.6z"/>
</g>
<g id="Слой_4">
	<g>
		<line class="st7" x1="-3" y1="239.8" x2="283.8" y2="239.8"/>
		<path class="st8" d="M67.1,239.7c0,0-4.8-28.4,31.3-43.8s124-58.6,124-58.6"/>
		<line class="st8" x1="169.5" y1="115.8" x2="283.8" y2="162.3"/>
		<path class="st8" d="M44.5,239.7c0,0-11.1-43.8,27.4-57.8c38.5-13.9,130.7-52.7,130.7-52.7"/>
		<line class="st8" x1="0.3" y1="164.7" x2="52.8" y2="195"/>
		<line class="st8" x1="0.3" y1="132.4" x2="36.8" y2="125.7"/>
		<path class="st8" d="M84,152.2c0,0-39.6,19.2-42.9-0.5c-2.6-15.1-3.7-34.5-4.2-42.7c-0.1-2.6-0.9-5-2.3-7.2
			c-5.8-9.4-20.9-35.8-8.1-38.6c15.5-3.4,52.6-7.9,52.6-7.9"/>
		<path class="st8" d="M121.6,50.3c0,0,27-5,30.3,14.9c3.3,19.9,7,33.7,13.3,42.6s6.3,14.6-6.3,18"/>
		<path class="st8" d="M29.6,75.2c0,0,23.4,34.1,23.3,39.4c-0.2,5.3,0,22.1,0,22.1"/>
	</g>
</g>
<g id="Слой_5">
	<path class="st8" d="M95.8,107.2c0,0,0.8,4.5,1.6,7.3c0.5,1.8,0.6,3.6,1.1,4.1"/>
	<path class="st8" d="M95.8,172.9c0,0-29.5-43.9-13.8-50.6c15.7-6.7,15.1-6.7,15.1-6.7"/>
	<path class="st8" d="M117.7,109.6c0,0,24.8-2.2,31.1,3.8s21,29.6,21,29.6"/>
	<line class="st8" x1="99.1" y1="142" x2="114.3" y2="164.7"/>
	<path class="st8" d="M90.2,99.3c0,0-7.7,1.4-8.7-1.2s-4.9-0.6-6.5-1.7c-1.4-1-4.3-3.7-3.2-8.9c0.2-1,0.6-1.9,1.1-2.9
		c0.3-0.7,0.5-2-0.6-4.1c-1.8-3.3-2.8-8.8,1.6-11.4s3.9-7.4,4-9.9c0.1-2.1,8-18.9,20.7-13c1.2,0.6,2.4,1.3,3.7,2.3
		c0,0,9.4,4.1,0,10.5c0,0-4,2.8-4.9,6.1s-1.3,6.1-3.3,7.2c-1.6,0.9-6.2,2.7-5.5,6.5s0.3,4.6-1,5.3c0,0-10.2-2.6-5.6,6
		c0,0,2.6,3.8,5.6,4.3c0,0,11.8,25.7,24.9,19c11.1-5.7,12.6-19.1,12.8-23.1c0-0.7,0-1.1,0-1.1v-16"/>
	<path class="st8" d="M98.2,45.7c0,0,13.4-6.5,22.2,4c0,0,3,3.2,6.4,4.8s5.6,6.4,5,9.9s0.5,7.5,1.9,9.3s1.1,5,0,6.8
		c-1.1,1.7-2.5,4.1-1.8,6.2s-6.4,6.4-6.4,6.4"/>
	<path class="st8" d="M106,55.4c0,0,5.7,1.2,8.7,3.2s6.1,2.8,6.6,6s1.9,7,5,8.6s-0.9,8.3-0.9,8.3"/>
	<path class="st8" d="M96.5,79c0,0,15.3-0.4,13.4-4.3S96.5,79,96.5,79z"/>
	<path class="st8" d="M125.3,79.7c0,0-10.2-3.8-8-5.3C119.5,72.9,125.3,79.7,125.3,79.7z"/>
	<path class="st8" d="M116.4,77c0,0-2.6,11.6-0.7,15.1l0.9,1.8c0.1,0.3,0,0.6-0.2,0.7c-1,0.6-3.2,1.6-4.7,0.2"/>
	<path class="st8" d="M108.4,91.9c0,0-1.3,1.9-0.5,3"/>
	<path class="st8" d="M97.5,85.3c0,0,7.4-3,9.3-1.9s2.2,1.9,2.2,1.9"/>
	<path class="st8" d="M116.9,85.3c0,0,2.8-0.6,3.9-0.5s2.9,2.9,2.9,2.9"/>
	<path class="st8" d="M83.8,86c0,0,4.1,1.4,4.6,3.2"/>
	<line class="st8" x1="85.2" y1="89.2" x2="87" y2="87.6"/>
	<path class="st8" d="M104,101.9c0,0,9.9-2.6,14.1,1.5"/>
	<path class="st8" d="M109,105.7c0,0,2.6-1.2,4.3,0.2"/>
	<ellipse cx="105.5" cy="85.3" rx="1.6" ry="2.1"/>
	<ellipse cx="120.6" cy="86.8" rx="1.4" ry="1.9"/>
	<path class="st9" d="M101.9,47.7c0,0-14.7,4.4-10.7,5.1S101.9,47.7,101.9,47.7z"/>
	<path class="st9" d="M106.2,51c0,0-10,3.6-8.7,5.6C99.1,59,106.5,51.4,106.2,51z"/>
	<path class="st10" d="M101.2,47.7c0,0,16.8-2.6,13.1,0.2C110.7,50.7,101.2,47.7,101.2,47.7z"/>
	<path class="st9" d="M105.5,51c3.5-0.3,17.5,2.7,10.9,3.6C110.1,55.5,105.5,51,105.5,51z"/>
	<line class="st8" x1="143.8" y1="129.1" x2="157.9" y2="147.8"/>
	<polyline class="st8" points="136.1,156.8 130.1,147.5 119.2,130.5 95.2,116.7 99.1,132.4 111.8,134.8 111.8,138.5 130.3,147.8 	
		"/>
	<line class="st8" x1="121.1" y1="109.4" x2="119.2" y2="130.5"/>
	<polyline class="st8" points="125.5,109.4 132.1,118.3 128.8,127.5 134.5,130.5 130.1,147.5 	"/>
	<path class="st8" d="M118,109.8c0,0,0.8,5.3,0.7,6.6"/>
</g>
</svg>
