<?xml version="1.0" encoding="utf-8"?>
<!-- Generator: Adobe Illustrator 22.1.0, SVG Export Plug-In . SVG Version: 6.00 Build 0)  -->
<svg version="1.1" xmlns="http://www.w3.org/2000/svg" xmlns:xlink="http://www.w3.org/1999/xlink" x="0px" y="0px"
	 viewBox="0 0 283.5 283.5" style="enable-background:new 0 0 283.5 283.5;" xml:space="preserve">
<style type="text/css">
	.st0{fill:#FCD4B6;}
	.st1{fill:#FFFFFF;}
	.st2{fill:#BD212E;}
	.st3{fill:#662327;}
	.st4{fill:none;stroke:#000000;stroke-linecap:round;stroke-linejoin:round;stroke-miterlimit:10;}
	.st5{fill:#FDDAB4;}
	.st6{fill:#EE77AB;}
	.st7{fill:#809AA3;}
	.st8{fill:#FEE24A;}
	.st9{fill:#F7EB64;}
	.st10{fill:none;stroke:#000000;stroke-width:1.0784;stroke-linecap:round;stroke-linejoin:round;stroke-miterlimit:10;}
	.st11{fill:none;stroke:#000000;stroke-width:1.0387;stroke-linecap:round;stroke-linejoin:round;stroke-miterlimit:10;}
	.st12{fill:none;stroke:#000000;stroke-width:0.7791;stroke-linecap:round;stroke-linejoin:round;stroke-miterlimit:10;}
	.st13{fill:none;stroke:#000000;stroke-width:0.7791;stroke-linecap:round;stroke-miterlimit:10;}
	.st14{fill:none;stroke:#000000;stroke-width:0.7791;stroke-miterlimit:10;}
	.st15{fill:none;stroke:#000000;stroke-width:0.5194;stroke-linecap:round;stroke-linejoin:round;stroke-miterlimit:10;}
	.st16{stroke:#000000;stroke-width:0.7315;stroke-linecap:round;stroke-linejoin:round;stroke-miterlimit:10;}
	.st17{fill:#BD212E;stroke:#000000;stroke-width:0.1157;stroke-miterlimit:10;}
	.st18{fill:#878787;stroke:#000000;stroke-width:0.2768;stroke-miterlimit:10;}
	.st19{fill:#BD212E;stroke:#000000;stroke-width:7.711331e-02;stroke-miterlimit:10;}
	.st20{fill:#EC651F;stroke:#000000;stroke-width:7.711331e-02;stroke-miterlimit:10;}
</style>
<g id="Слой_1">
</g>
<g id="Слой_8">
	<g>
		<path class="st0" d="M76.3,137.6l-1.2-6.7l1.9-5l4.1-0.1c0,0,3.8-1.5,4.3-2.4s1.2-6.1,1.2-6.1l-0.3-5.1l1.4-0.6l-0.6-5.3l0.4-3.6
			l1-0.9l3.7-0.2l1.3-1.4l0.2-1.5l-3.4-5.8l-1.8-7l0.3-5.5l-1-6.8l-2.8-7.2l-9.9,3.6l-4.9,3.7l-1.4,3.3l-1.3,1.2l-2.5,1.1l-2.5,0.9
			l-2.9,2l-2.3,3.4l-0.9,3.6v3l0.2,0.9l-2.1-1.5l-1.6-0.7L51,91.4l-1,1.7l-0.4,3.4v3.2l1.6,2.9l2.8,2l2.9-0.1l0,1.3l0.3,4.3l1.2,4.1
			v2v6.1l-0.9,3.7l-0.7,2.2l-0.8,0.2l2.7,1.5l8.3,3.1l7.4,3.3L76.3,137.6z"/>
		<path class="st1" d="M85.5,90.9c-0.2-0.1-0.3-0.2-0.5-0.3c0.1,0,0.1-0.1,0.2-0.1c0.2-0.7-0.8-1.5-1.3-1.8
			c-0.2-0.1-1.6-0.2-1.5,0.1c0.2,1,0.8,1.8,1.6,2.2c-0.7,0.2-1.4,0.3-2,0.6c-0.2,0.1,0.4,0.2,0.4,0.2c0.1,0,0.2,0,0.3,0
			c-0.5,0.2-1.1,0.4-1.6,0.5c0-1.1,0-2.2,0-3.3c0-0.4-1.5-0.3-1.6,0c-0.2,0.5-0.4,1.1-0.7,1.6c-0.4,0-0.8,0.1-0.9,0.2
			c-0.9,0.7-1.7,1.4-2.6,2.1c-0.1,0.1,0.1,0.2,0.3,0.2c-0.2,0-0.3,0.1-0.5,0.1c-0.3,0.1,0.2,0.2,0.3,0.2c1.8-0.1,3.6-0.5,5.3-0.8
			c0,0,0.1,0,0.1,0c1.7-0.1,3.3-0.6,4.7-1.5c0,0,0,0,0,0C85.7,91.1,85.8,91,85.5,90.9z"/>
		<path class="st2" d="M40.9,241.5l-2.4-35.9l-1-21.6l1.3-17.9l1.9-20l2.2-6.3l3.1-4.4l4.2-3l4.2-2.5l1.5-1c0,0,16.3,5.4,19.6,8.3
			s5.2,5.5,5.2,5.5l5,9c0,0,1.7,5.2,1.8,5.6c0,0.4,0.8,12.3,0.8,12.3l1.7,26.8l1.6,24.5l1.2,20.7H40.9z"/>
		<path class="st3" d="M90.3,74.9c-0.1-1.1-0.8-5.4-0.8-5.4l-2.8-4.3l0.8-2.9L86.7,60l-2.3-3.7l-0.9-0.9c-0.2-0.4-0.3-0.7-0.5-1.1
			c-0.1-0.1-0.4-0.2-0.8-0.2L81.2,53l-2.6-1.2l-3.7-1.4l-2.2-0.1l-2.9,0.2c0,0-7.3-2-8-2.2c-0.7-0.2-5-1-5-1s-6.7,0.7-7.3,0.9
			c-0.6,0.2-4.7,2.9-5.1,3.2s-3.9,5.7-4,5.9c-0.1,0.2-1.9,6-2,7c-0.1,0.9-1.8,8.3-1.8,8.3l-3.5,7.4l-2.7,4c0,0-1.4,4.2-1.3,5.4
			s1.5,7.1,5,9.7c3.4,2.6,3.1,1.6,3.8,3.2c0.7,1.6,2.4,6.6,2.4,6.6l1.5,1.9l4.4,1.1l3.3,1.4l1.3,1.6l1.7,2.3l1.7,0.6h4l-0.1-4.7
			l-1.3-6.5l0.1-2.1c0,0-4.8,0.6-5-1.1c-0.2-1.7-1.6-1.4-2.4-3.4c-0.8-2,0.1-5.1,0.1-5.1l0.8-2.9l1-1.3l2.3,0.2l3.1,1.8L56.5,91
			c0,0,0.1-0.1,0.1-0.1c0.1-0.5,0.1-1,0.1-1.6c0-0.2,0-0.4,0-0.7c0-0.4,0-0.4-0.2-0.7l1.8-3.8l2.2-2.4l2.7-1.6l3.6-1.3
			c0,0,2.6-2.5,3.1-3.7c0.5-1.2,5.3-5,5.3-5l5.9-2.3l4-1.3l1.6,4.3l1.9,4.2l0.2,8.1l1.7-3C90.4,80,90.4,76,90.3,74.9z"/>
		<path class="st3" d="M83.7,81.3c-0.1,0-0.2-0.1-0.2-0.1c0,0,0,0,0,0c0.3-0.2-0.1-0.3-0.3-0.3c-0.3-0.1-0.8-0.1-1.1,0.1
			c-1,0.6-2.1,1.2-3,1.9c-0.2,0-0.3,0-0.4,0.1c-1.5,0.7-2.8,1.5-3.8,2.7c-0.1,0.1,0.3,0.1,0.5,0.1c0.2,0.1,0.8,0.2,0.9,0.1
			c0.7-0.4,1.5-0.9,2.2-1.4c2.1-0.6,4-1.9,5.9-2.9C84.6,81.5,84.1,81.4,83.7,81.3z"/>
	</g>
</g>
<g id="он">
	<path class="st4" d="M46.8,160.6c0,0,4.3,1,6.1,8.9s4.7,73.8,4.7,73.8"/>
	<path class="st4" d="M75,166.6c0,0-5.1,46.6-4,54.5c1.1,7.9,4,23.5,4,23.5"/>
	<path class="st4" d="M41.1,244.6l-3.4-50.7c-0.4-5.9-0.3-11.8,0.2-17.7c0.9-10.2,2.3-26.1,2.8-30.1c0.7-5.5,4.7-10.5,7-12.2
		c2.1-1.6,9.7-4.2,10-8.4c0.3-4.2,1.3-11.1,0.6-12.2"/>
	<path class="st4" d="M76.3,137.6c0,0-1.3-5-1.3-6.1c0.1-1.3,2-5.6,2-5.6"/>
	<path class="st4" d="M55.9,128.8c0,0,18.3,5.7,22.5,10.6c4.2,5,8.9,13.7,9.2,18.2c0.4,4.5,4.5,70.2,4.5,70.2l0.7,17.5"/>
	<path class="st4" d="M86.4,112.2c0,0,0.5,5.9,0.2,7.8c-0.3,1.9-0.8,6-7.8,6c-0.6,0-1.2,0-1.8-0.1c-6.5-1-13.6-7.3-17.1-10.5
		c-3.9-3.5-2.9-10.9-2.9-10.9s-7.4,1.9-7.4-8c0-10.2,7.3-3.7,7.3-3.7"/>
	<path class="st4" d="M52.6,92.9c0,0,4.3,4.3,4.3,7.3"/>
	<line class="st4" x1="52.6" y1="98.3" x2="56.1" y2="97.4"/>
	<path class="st4" d="M72,87.9c0,0,5.8-5,8.6-6.1c2.8-1.1,4.9-1,3.7,0C82.9,82.9,72,87.9,72,87.9z"/>
	<path class="st4" d="M58.2,118.8c0,0,0.3-0.5-1.3-0.7c-1.1-0.1-4.4,0-6-3.1c-0.5-1.1-1.5-2-2.6-2.4c-2-0.7-5.1-1.3-6.3-1.8
		c-1.4-0.6-2.5-4.3-3.2-6.9c-0.4-1.5-1.3-2.8-2.6-3.5c-1.6-1-3.7-2.5-4.5-3.9c-1.1-2.1-4.9-8,0.6-15c5.5-7,6.3-17.1,6.3-17.1
		S41,41.8,63,48.7c0,0,6.1,2.3,8.4,1.8c2.2-0.5,6,0,7.2,1.3c1.1,1.2,3.8,1.1,4.8,2.6c0.6,1,2.1,4.2,3.4,5.7c1.1,1.2,1.6,5.1-1.6,6.4
		s-13.9,3.6-15.2,8.6c-0.7,2.8-2.9,3.9-4.7,4.3c-2.5,0.6-4.8,1.9-6.3,4c-1.7,2.3-3.1,6.2-2,9.5"/>
	<path class="st4" d="M77.4,111.7c0,0,8.6,1.5,10.4-0.2c0,0-1.8-8,0.8-9.7"/>
	<path class="st4" d="M85.6,101.6c0,0,3.4-0.2,5.3,0.2c1.9,0.3,3.6-1.8,2.6-3.5c-1-1.7-4.5-6.5-4.5-10.4s0-11.2-1.2-14.2
		c-1.2-3.1-2.7-7.2-2.7-7.2"/>
	<path class="st4" d="M75.2,92.9c0,0,3.3-3.9,6.3-4.9c1.1-0.4,2.3,0,3,0.9c0.4,0.5,0.9,1.2,1.3,2"/>
	<path class="st4" d="M86.7,65.3c0,0,3.1,3.6,3.3,6c0.2,2.4,0.5,6,0.8,7c0.2,0.7-1.8,5.4-1.8,5.4"/>
	<path class="st4" d="M84.4,99.1c0,0-2,2.1-0.5,3.6"/>
	<ellipse transform="matrix(0.1877 -0.9822 0.9822 0.1877 -22.0222 154.0031)" cx="82.1" cy="90.3" rx="2.8" ry="1.9"/>
	<path class="st4" d="M77,50.8c0,0-5.4,3.2-6.3,3.9c-1,0.8-4.4,5,0,3.4C75,56.6,77,50.8,77,50.8z"/>
	<path class="st4" d="M79.9,52.4c0,0-8.3,10.2-5.3,10C77.6,62.3,80.5,52.6,79.9,52.4z"/>
	<path class="st4" d="M82.4,53.5c0,0-2.1,7.6-2.5,8.9c-0.4,1.1,0.9,3.6,2,1.5C82.9,61.9,82.4,53.5,82.4,53.5z"/>
	<path class="st4" d="M75.2,109.3c0,0-0.8,2.7,0.4,3.9"/>
</g>
<g id="Слой_12">
	<g>
		<path class="st5" d="M221.3,133.1l-4.1-2.2l-3.8-0.1l-4.8,1.2l-2.9,2.8l0.7-4.1l0-5.8c0,0,0.1-3-0.8-3.8c-0.8-0.8-4.9-1.2-4.9-1.2
			l-5.3-2.6c0,0-2.3-1.9-1.9-2.9c0.4-1,0.9-3,0.9-3l-1.9-1.5l-0.3-1.6l0.9-1.1l-1.2-0.8v-0.9l1.5-1.7l0.3-3.3l-0.3-2.5l-2.2-0.1
			c0,0-1.9-0.6-2.4-1.4c-0.5-0.8-0.9-1.9-0.9-1.9l1.5-2.2l2.7-3.6l1.7-2.8l-0.7-4l-1.4-6.8l3.4-6l5.1-7.5l6.4,8.6l8.3,8.2l5.5,17.3
			h0.8l1.9-4.8l1.8-3.7l3.8,0.9l1.5,2.8l-2.8,7l-1.3,1.6l-1.2-0.4l-2.4,0.4l-2,2.7l1.1,3.1l2,0.9l1.2,0l-0.2,1.6l-1.4,3.7l-2.6,3.1
			l-1,2.6l0.6,10.3L221.3,133.1z"/>
		<path class="st1" d="M200.6,86.8c-0.5-0.6-0.9-1.2-1.5-1.6c0,0,0.1,0,0.1-0.1c0.2-0.3,0.3-0.5,0.3-0.8c0.1-0.1,0.2-0.2,0-0.4
			c-0.1-0.1-1.3-0.2-1.3,0.1c0,0.3,0.1,0.6,0.2,0.9c-0.2,0-0.4,0-0.4,0.1c0.2,0.8,0.8,1.4,1.3,2c0.1,0.2,0.6,0.2,0.8,0.1
			C200.2,87,200.7,87,200.6,86.8z"/>
		<path class="st1" d="M208,88.9c-0.4-0.5-0.9-1.1-1.3-1.6c0,0,0.1,0,0.1,0c0.1,0,0.8-0.1,0.6-0.3c-0.5-0.4-0.9-0.9-1.4-1.3
			c-0.2-0.3-0.4-0.6-0.8-0.8c0,0-0.1,0-0.3,0c-0.2-0.3-0.4-0.5-0.7-0.7c0,0,0-0.1,0-0.1c0.1,0,0.2-0.1,0.2-0.2
			c-0.3-0.4-0.6-0.8-0.9-1.2c-0.3-0.3-1.9-0.1-1.7,0.1c0.1,0.2,0.3,0.4,0.4,0.5c-0.3,0-0.5,0.1-0.4,0.2c0.3,0.3,0.5,0.6,0.8,0.9
			c0.1,0.5,0,0.9,0,1.4c-0.1,0-0.2,0.1-0.1,0.2c0,0,0.1,0.1,0.1,0.1c-0.1,0.5-0.2,0.9-0.4,1.3c-0.5,0.1-1,0.2-0.5,0.4
			c0.1,0,0.3,0.1,0.4,0.1c0,0,0,0,0.1,0c0.4,0.1,0.8,0.2,1.2,0.3c-0.4,0-0.9-0.1-1.3-0.1c-0.2,0-0.9,0.1-0.3,0.2
			c1.7,0.3,3.4,0.6,5.2,0.8C206.9,89.2,208.2,89.2,208,88.9z"/>
		<path class="st6" d="M202.6,107.4c-0.1-0.3-0.7-0.2-0.9-0.1c-0.2,0-0.3,0.1-0.4,0.2c-0.3,0-0.6,0-0.7,0.1c-0.1,0-0.2,0-0.3,0
			c-0.1,0-0.3-0.1-0.4-0.1c0,0-0.1,0-0.3,0c-0.1,0-0.2-0.1-0.3-0.1c-0.1,0-0.1-0.1-0.2-0.1c0,0,0,0,0,0c-0.1-0.1-0.2-0.1-0.3-0.2
			c-1.1-0.9-2.4-1.5-3.7-1.8c-0.6-0.5-1.2-0.9-2-0.9c-1,0-1.2,0.6-0.9,1c-0.2,0-0.2,0.1-0.2,0.1c0.7,0.6,1.3,1.1,2,1.7
			c-0.4,0-0.9,0-1,0.1c0,0,0,0,0,0.1c0,0,0,0,0,0c0,0,0,0,0,0c-0.1,0.3-0.2,0.6-0.3,0.8c-0.2,0.1-0.3,0.3-0.3,0.5
			c-0.1,0.1-0.1,0.1-0.2,0.2c0,0,0,0.1,0.1,0.1c0,0.1,0,0.3,0,0.4c0,0.1,0.3,0.2,0.6,0.3c0,0.1,0.1,0.2,0.1,0.3
			c0,0.1,0.1,0.1,0.2,0.1c0.1,0.1,0.1,0.1,0.2,0.2c-0.2,0.1-0.3,0.1-0.2,0.2c1.3,0.6,2.9,1.2,4.3,0.6c0.6-0.3,1-0.7,1.1-1.1
			c0.8-0.1,1.8-0.4,2.2-1.2c0,0,0.1,0,0.1,0c0.6-0.4,1.1-0.7,1.7-1.2c0,0,0,0,0-0.1C202.7,107.5,202.6,107.5,202.6,107.4z
			 M196.2,107.9c-0.1,0-0.3,0-0.4,0c0,0,0,0,0,0c-0.1-0.1-0.6-0.2-1-0.2c0,0,0-0.1,0.1-0.1c0,0,0-0.1-0.1-0.1c0.2,0,0.5,0,0.7-0.1
			c0.1,0,0.3,0.1,0.5,0.1c0.1,0.1,0.3,0.2,0.4,0.3c0,0,0.1,0,0.1,0C196.4,107.8,196.3,107.9,196.2,107.9z"/>
		<path class="st7" d="M230.6,241.5l-2.9-18.1l-1.6-16.8l0.8-25.3l0.2-19.7l-0.2-13.3c0,0-0.8-10.8-3.8-12.7c-3-1.8-3.6-4.5-6-4.6
			s-5.4,0.3-6.6,0.6c-1.1,0.3-4.4,2.5-5,3.3c-0.6,0.9-4.4,7.2-4.4,7.2l-9.4,13.4c0,0-7.9,11.8-7.7,16.1c0.2,4.3-2.7,2.8-1.5,10.7
			c1.2,7.9,0.7,8.7,3.5,14c0,0,0.3,4.8-0.1,7.2c-0.4,2.5-6.2,37.9-6.2,37.9H230.6z"/>
		<path class="st8" d="M220.7,114.7l7.1-0.3l6.8-2.7l6-6.7l5.2-9.3l2.4-7.1l0.4-5.2L246.7,72l-4.2-11.7c0,0-3-5.2-6.2-6.8
			c-3.2-1.6-8.5-3.4-8.5-3.4l-10.4-1.7l-8,0.8l-6.7,2.6c0,0-3.3,1.5-3.2,3c0,1.4-1.1,2.5-1.1,2.5l-3.3,2.9l-3.3,5.6l-0.7,6.8
			l0.5,2.3l2.4-4.4l6.2-9.2c0,0,3.2,5.9,4.8,6.9c1.7,1,9.8,10,9.8,10s3.2,8,4.1,11.9c0.9,3.9,1.4,5.4,1.4,5.4h0.8l1.9-4.8l1.1-2.8
			c0,0,2.9-2.8,4.5,0c1.5,2.8,2.3,4.2,0.5,7c-1.8,2.8-3,4.4-3,4.4s1.6,1.3,1.6,2.7c0,1.4-0.3,2.5-1.1,3.1c-0.8,0.7-1.7,1-1.7,1
			s-0.5,3.2-1.1,4.2s-2.2,3.1-2.2,3.1L220.7,114.7z"/>
		<path class="st8" d="M206.7,79.8c-0.1-0.2-0.3-0.4-0.5-0.7c0.1,0,0.2-0.1,0.2-0.1c-0.3-0.4-0.7-0.7-1-1.1c0.2,0,0.4-0.1,0.3-0.2
			c-1.4-1.6-2.9-3.1-4.4-4.7c-0.1-0.1-0.6-0.2-1-0.1c0,0-0.1-0.1-0.1-0.1c-0.2-0.2-1.3,0-1.2,0.1c0.1,0.1,0.2,0.2,0.3,0.3
			c-0.1,0-0.1,0,0,0.1c0,0.1,0.1,0.1,0.1,0.2c0,0,0,0,0,0c-0.3,0-0.7,0-0.6,0.1c1,1,2.1,2,3.2,2.9c0,0,0,0,0,0c0,0,0,0,0,0
			c0.2,0.1,0.3,0.3,0.5,0.4c1,1.1,2,2.2,3.2,3C205.8,80,206.8,80.1,206.7,79.8z"/>
		<path class="st9" d="M227.6,101.5c0.8-1.7-1.6-2.2-2.8-2.2c-0.8,0-3.6,0.2-2.9,1.5c-0.2,0.2-0.3,0.4-0.4,0.6
			c-0.1,0-0.2,0.1-0.3,0.1c-0.9,0.7-0.7,1.6-0.1,2.3c0,0.2,0.1,0.5,0.2,0.8c0.5,1.3,2,1.7,3.3,1.4c1.2-0.1,2.2-0.8,2.7-1.9
			c0.4-0.9,0.4-1.7,0.1-2.3C227.5,101.7,227.6,101.6,227.6,101.5z"/>
	</g>
</g>
<g id="она">
	<path class="st10" d="M231.5,246.5c0,0-6-32.5-5.3-41.5c0.8-10,1.5-57.2,0.5-60.2c-1.5-4.7-3.4-15.9-14.1-13.9
		c-4,0.7-7.2,3.5-9,7.1c-4.4,9.2-29.3,32.2-18.1,56.5c1,2.2,1.3,4.6,0.9,7l-7.6,46.3"/>
	<path class="st11" d="M198.7,159.9c0,0,1,13.8,2.5,24.6c1.5,10.7-1,60.2-1,60.2"/>
	<path class="st11" d="M218.4,160.7c0,0-1.1,16.3-1.1,20.3s0,63.7,0,63.7"/>
	<path class="st11" d="M221.3,133.1c0,0-3.1-14.4-0.5-18.1"/>
	<path class="st11" d="M194.4,111.3c-2.8,6.9,6.2,8.5,6.2,8.5c1.4,0.2,2.8,0.4,4,0.4c10.9,0.4,16.3-5.5,18.1-7.8
		c2-2.6,2.3-6.2,2.3-6.2"/>
	<path class="st11" d="M205.6,134.8c0.7-2,1.8-11.3-1-14.5"/>
	<path class="st11" d="M220.7,115c0,0,9.7,0.5,15-4.3c5.4-4.8,13.8-19.5,12.8-27.4c-1-8-2.9-25.7-13.9-30.6c-11.1-5-23.9-6.2-33.2,0
		c-9.3,6.2,11.4,23.1,13.5,25.6c2,2.4,5.2,16.9,5.7,17.5c1,1.1,3.1-8.4,4.3-8.7c2.5-0.6,10,2.2,1.1,12.5"/>
	<path class="st11" d="M200.3,61.5c0,0-8.4,12-8.5,13.5c-0.1,1.6,2.1,8.8,2.1,10.2c0,1.4-4.9,7.6-5.7,8.5c-0.8,0.9,1.2,4.3,3.8,4.2
		c2.6-0.1,3.5-1.1,3.5-1.1"/>
	<path class="st12" d="M197.2,93.9c0,0,2.4,2.8,1.1,3.5"/>
	<path class="st12" d="M193.5,97.8c0,0,0.8,4.6,0,5.8c-0.7,1.1-2.5,1.3-0.9,2.7c0.5,0.5,0.7,0.4,1.3,0.8c1.2,0.7,2.8,0.8,4.4,0.6
		c2.4-0.2,6.1-1,6.8-1.3"/>
	<path class="st12" d="M193.1,107.1c0,0-1.5,1.8-0.6,2.7c1,1,3,2.1,5.7,1c2.7-1.1,4.6-3.4,4.6-3.4"/>
	<path class="st11" d="M199.2,56.8c0,0-10.3,7.6-7.4,18.2"/>
	<path class="st11" d="M198.3,84.4l2-2.5c0,0,4.5-0.2,7.6,6.7"/>
	<path class="st11" d="M208.6,81.9c0,0-5-6.6-6.6-8.1c-1.4-1.3-3-1.6-2.9,0C199.2,74.8,208.8,81.5,208.6,81.9z"/>
	<path class="st12" d="M226.3,90.2c0,0-0.9,1.4-1.1,3.1c-0.1,0.6-0.1,1.2,0,1.7"/>
	<path class="st12" d="M225.1,93.9c0,0,1.7-2.4,2.8-1.6"/>
	<circle class="st11" cx="224.3" cy="102.7" r="3.6"/>
	<ellipse transform="matrix(0.9857 -0.1684 0.1684 0.9857 -11.474 35.1239)" cx="201.4" cy="85.2" rx="2.1" ry="3.3"/>
	<path class="st13" d="M193.5,103.6c0,0,4.9,4.1,9.6,3.4"/>
	<path class="st14" d="M200.7,54c-0.1-0.1-0.1-0.3,0.1-0.3c1.8-0.2,8.2-0.6,11.1,3.2c3.5,4.3-3.5,0.9-5,0
		C205.9,56.3,201.9,54.7,200.7,54z"/>
	<path class="st14" d="M199.6,56.3c-0.1-0.1,0-0.2,0.1-0.2c2.1,0.6,10.3,3.3,11.5,6.8c1.4,4-4.9-0.3-6.5-1.9
		C203.3,59.7,200.6,57.2,199.6,56.3z"/>
	<path class="st15" d="M205.3,104.1c0,0-0.5,3.1,0.5,4.3"/>
</g>
<g id="знаки">
	<polygon class="st16" points="153.9,69 145.3,64 145.2,70.4 121.1,70.3 121,77.9 145.1,78 145,83.9 153.7,79 162.4,74.1 	"/>
	<g>
		<path class="st17" d="M141.2,96.9c0,0,0.6-3,0-4.3c-0.1-0.2-0.2-0.3-0.3-0.4c-0.4-0.3-1.4-1.1-0.2-1.1c1.5,0,1,0,1,0h0
			c0,0-0.4,0,1,0c1.2,0,0.2,0.8-0.2,1.1c-0.1,0.1-0.3,0.2-0.3,0.4c-0.6,1.3,0,4.3,0,4.3H141.2z"/>
		<path class="st17" d="M144.6,97.3c0,0,1-2,0.8-3c0-0.1-0.1-0.2-0.2-0.3c-0.2-0.3-0.7-1,0.1-0.8c1,0.3,0.7,0.2,0.7,0.2l0,0
			c0,0-0.3-0.1,0.7,0.2c0.8,0.2,0,0.6-0.3,0.7c-0.1,0-0.2,0.1-0.3,0.2c-0.7,0.8-0.8,3-0.8,3L144.6,97.3z"/>
		<path class="st17" d="M134.6,99.2c0,0-1.7-3.5-3.2-4.5c-0.2-0.1-0.4-0.2-0.6-0.2c-0.6-0.1-1.9-0.4-1-1c1.2-0.8,0.8-0.6,0.8-0.6
			l0,0c0,0-0.3,0.3,0.8-0.6c1-0.7,0.8,0.7,0.7,1.3c0,0.2,0,0.4,0,0.6c0.5,1.7,3.2,4.5,3.2,4.5L134.6,99.2z"/>
		<path class="st17" d="M145.2,119c0,0,0.6,3.8,1.8,5.2c0.1,0.2,0.3,0.3,0.5,0.4c0.5,0.2,1.8,0.9,0.6,1.3c-1.4,0.4-1,0.3-1,0.3l0,0
			c0,0,0.4-0.2-1,0.3c-1.1,0.4-0.5-0.9-0.3-1.4c0.1-0.2,0.2-0.4,0.2-0.6c0-1.8-1.7-5.2-1.7-5.2L145.2,119z"/>
		<path class="st17" d="M149.7,116.1c0,0,2.2,3.2,3.8,4c0.2,0.1,0.4,0.1,0.6,0.1c0.6,0,2,0.1,1.1,0.9c-1.1,1-0.7,0.7-0.7,0.7l0,0
			c0,0,0.3-0.3-0.7,0.7c-0.8,0.8-0.9-0.6-0.8-1.1c0-0.2,0-0.4-0.1-0.6c-0.7-1.6-3.8-4-3.8-4L149.7,116.1z"/>
		<path class="st17" d="M134.5,116.6c0,0-3.1,2.3-3.8,4c-0.1,0.2-0.1,0.4-0.1,0.6c0,0.6,0,2-0.8,1.1c-1-1-0.7-0.7-0.7-0.7l0,0
			c0,0,0.3,0.3-0.7-0.7c-0.9-0.8,0.5-0.9,1.1-0.9c0.2,0,0.4,0,0.6-0.1c1.6-0.8,3.8-3.9,3.8-3.9L134.5,116.6z"/>
		<path class="st17" d="M151.1,101.9c0,0,3.5-1.6,4.6-3c0.1-0.2,0.2-0.4,0.3-0.6c0.1-0.6,0.5-1.9,1.1-0.9c0.8,1.2,0.6,0.9,0.6,0.9
			l0,0c0,0-0.3-0.4,0.5,0.9c0.7,1-0.7,0.7-1.3,0.6c-0.2,0-0.4-0.1-0.6,0c-1.7,0.4-4.6,2.9-4.6,2.9L151.1,101.9z"/>
		<path class="st17" d="M147.1,98.7c0,0,2.4-3.2,2.7-5.1c0-0.2,0-0.4-0.1-0.6c-0.2-0.6-0.6-2,0.5-1.4c1.3,0.7,0.9,0.5,0.9,0.5l0,0
			c0,0-0.4-0.2,0.9,0.5c1.1,0.6-0.3,1-0.9,1.2c-0.2,0.1-0.4,0.2-0.6,0.3c-1.4,1.3-2.7,5.1-2.7,5.1L147.1,98.7z"/>
		<path class="st17" d="M131.9,103c0,0-2.1-2.2-3.5-2.4c-0.2,0-0.4,0-0.5,0c-0.5,0.2-1.7,0.5-1-0.5c0.9-1.2,0.6-0.8,0.6-0.8l0,0
			c0,0-0.2,0.4,0.6-0.8c0.7-1,0.8,0.3,0.8,0.8c0,0.2,0,0.4,0.1,0.5c0.7,1.2,3.5,2.5,3.5,2.5L131.9,103z"/>
		<path class="st17" d="M138.3,97.4c0,0-1.2-1.8-1.2-2.9c0-0.1,0-0.3,0.1-0.4c0.2-0.3,0.6-1.1-0.2-0.8c-1,0.4-0.7,0.3-0.7,0.3l0,0
			c0,0,0.3-0.1-0.7,0.3c-0.8,0.3,0.1,0.6,0.4,0.7c0.1,0,0.2,0.1,0.3,0.2c0.8,0.7,1.2,2.9,1.2,2.9L138.3,97.4z"/>
		<path class="st17" d="M133.8,100.1c0,0-1.8-1.3-2.1-2.3c0-0.1,0-0.3,0-0.4c0.1-0.4,0.2-1.3-0.4-0.7c-0.8,0.7-0.6,0.5-0.6,0.5l0,0
			c0,0,0.2-0.2-0.6,0.5c-0.6,0.6,0.3,0.5,0.6,0.5c0.1,0,0.3,0,0.4,0.1c1,0.4,2.1,2.3,2.1,2.3L133.8,100.1z"/>
		<path class="st17" d="M152.9,105.3c0,0,1.9-1.1,2.9-1c0.1,0,0.2,0.1,0.4,0.1c0.3,0.2,1.1,0.7,0.8-0.1c-0.4-1-0.2-0.7-0.2-0.7l0,0
			c0,0,0.1,0.3-0.2-0.7c-0.3-0.8-0.6,0-0.7,0.4c0,0.1-0.1,0.2-0.2,0.3c-0.7,0.7-2.9,1-2.9,1L152.9,105.3z"/>
		<path class="st17" d="M151.9,113.3c0,0,2.1,0.7,2.7,1.5c0.1,0.1,0.1,0.2,0.1,0.4c0.1,0.4,0.2,1.3,0.6,0.5c0.5-0.9,0.4-0.6,0.4-0.6
			l0,0c0,0-0.2,0.3,0.4-0.6c0.4-0.7-0.4-0.4-0.8-0.3c-0.1,0.1-0.2,0.1-0.4,0.1c-1-0.1-2.7-1.5-2.7-1.5L151.9,113.3z"/>
		<path class="st17" d="M131.7,112.8c0,0-2.9,0.7-3.8,1.9c-0.1,0.1-0.2,0.3-0.2,0.5c-0.1,0.5-0.4,1.7-0.9,0.6
			c-0.6-1.3-0.4-0.9-0.4-0.9l0,0c0,0,0.2,0.4-0.4-0.9c-0.5-1.1,0.6-0.5,1.1-0.3c0.2,0.1,0.3,0.1,0.5,0.1c1.4,0,3.9-1.8,3.9-1.8
			L131.7,112.8z"/>
		<path class="st17" d="M138.9,119c0,0-1.3,2.7-1,4.1c0,0.2,0.1,0.3,0.2,0.5c0.3,0.4,1.1,1.4-0.1,1.1c-1.4-0.4-1-0.2-1-0.2l0,0
			c0,0,0.4,0.1-1-0.2c-1.2-0.3,0-0.8,0.4-1c0.2-0.1,0.3-0.2,0.4-0.3c0.9-1.1,1-4.1,1-4.1L138.9,119z"/>
		<path class="st17" d="M130.5,108.3c0,0-2.7,0.5-3.9-0.1c-0.1-0.1-0.3-0.2-0.4-0.3c-0.3-0.4-1-1.3-1-0.2c0,1.3,0,0.9,0,0.9l0,0
			c0,0,0-0.4,0,0.9c0,1.1,0.7,0.2,1-0.2c0.1-0.1,0.2-0.2,0.4-0.3c1.2-0.5,3.9,0.1,3.9,0.1L130.5,108.3z"/>
		<path class="st17" d="M153.2,108c0,0,2.2-0.5,3.2-0.1c0.1,0.1,0.2,0.1,0.3,0.2c0.2,0.3,0.9,1,0.8,0.1c-0.1-1.1,0-0.8,0-0.8l0,0
			c0,0,0,0.3,0-0.8c0-0.9-0.6-0.1-0.8,0.2c-0.1,0.1-0.2,0.2-0.3,0.3c-1,0.5-3.2,0.1-3.2,0.1L153.2,108z"/>
		<path class="st17" d="M141.6,119.7c0,0,0.5,2.1,0.1,3.1c-0.1,0.1-0.1,0.2-0.2,0.3c-0.3,0.2-1,0.8-0.1,0.8c1.1,0,0.7,0,0.7,0l0,0
			c0,0-0.3,0,0.7,0c0.9,0,0.1-0.6-0.2-0.8c-0.1-0.1-0.2-0.2-0.3-0.3c-0.5-0.9-0.1-3.1-0.1-3.1L141.6,119.7z"/>
		<path class="st17" d="M135.8,117.9c0,0-0.6,2.1-1.4,2.8c-0.1,0.1-0.2,0.1-0.4,0.2c-0.4,0.1-1.3,0.3-0.5,0.7c1,0.5,0.7,0.3,0.7,0.3
			l0,0c0,0-0.3-0.2,0.7,0.3c0.8,0.4,0.4-0.4,0.2-0.8c-0.1-0.1-0.1-0.2-0.1-0.4c0-1,1.4-2.8,1.4-2.8L135.8,117.9z"/>
		<path class="st17" d="M146.7,118.4c0,0,1.4,1.7,1.4,2.8c0,0.1,0,0.3-0.1,0.4c-0.2,0.3-0.5,1.2,0.2,0.8c0.9-0.5,0.7-0.3,0.7-0.3
			l0,0c0,0-0.3,0.1,0.7-0.3c0.8-0.4-0.1-0.6-0.5-0.6c-0.1,0-0.3-0.1-0.4-0.1c-0.8-0.6-1.4-2.7-1.4-2.7L146.7,118.4z"/>
		<circle class="st18" cx="141.9" cy="108.2" r="11.5"/>
		<circle class="st19" cx="145.6" cy="103" r="1.6"/>
		
			<ellipse transform="matrix(0.9049 -0.4257 0.4257 0.9049 -32.1029 70.1532)" class="st19" cx="140.9" cy="106.9" rx="0.8" ry="0.9"/>
		<circle class="st20" cx="149.9" cy="106.4" r="1.5"/>
		<ellipse class="st19" cx="143.1" cy="109.8" rx="0.6" ry="0.8"/>
		<circle class="st19" cx="137.2" cy="104.9" r="1.3"/>
		<circle class="st20" cx="141" cy="100.2" r="1"/>
		<ellipse class="st19" cx="147.8" cy="113.4" rx="1.2" ry="1.3"/>
		<ellipse class="st19" cx="150.7" cy="110.4" rx="0.7" ry="0.9"/>
		<circle class="st20" cx="135.3" cy="111.8" r="1.5"/>
		<circle class="st19" cx="139.6" cy="115.7" r="0.6"/>
		<circle class="st20" cx="134" cy="101.8" r="0.6"/>
		<ellipse class="st19" cx="133" cy="107.8" rx="1" ry="1.3"/>
		<ellipse class="st19" cx="145.2" cy="99.2" rx="0.8" ry="1"/>
		<circle class="st20" cx="143.1" cy="116.9" r="1"/>
	</g>
	<rect x="29.3" y="241.5" class="st1" width="221.8" height="16.1"/>
</g>
</svg>
