<?xml version="1.0" encoding="utf-8"?>
<!-- Generator: Adobe Illustrator 23.1.0, SVG Export Plug-In . SVG Version: 6.00 Build 0)  -->
<svg version="1.1" id="Слой_1" xmlns="http://www.w3.org/2000/svg" xmlns:xlink="http://www.w3.org/1999/xlink" x="0px" y="0px"
	 viewBox="0 0 283.5 283.5" style="enable-background:new 0 0 283.5 283.5;" xml:space="preserve">
<style type="text/css">
	.st0{fill:#7ECDDF;}
	.st1{fill:#DFEFFA;}
	.st2{fill:#BC2739;}
	.st3{fill:#FBC5A3;}
	.st4{fill:none;stroke:#231F20;stroke-linecap:round;stroke-linejoin:round;stroke-miterlimit:10;}
	.st5{fill:none;stroke:#231F20;stroke-width:0.8633;stroke-linecap:round;stroke-linejoin:round;stroke-miterlimit:10;}
	.st6{fill:#8C9194;}
	.st7{fill:none;stroke:#6E7378;stroke-width:0.8633;stroke-linecap:round;stroke-linejoin:round;stroke-miterlimit:10;}
	.st8{fill:none;stroke:#231F20;stroke-width:0.4316;stroke-linecap:round;stroke-linejoin:round;stroke-miterlimit:10;}
	.st9{fill:none;stroke:#231F20;stroke-width:0.5012;stroke-linecap:round;stroke-linejoin:round;stroke-miterlimit:10;}
	.st10{fill:#6E7378;stroke:#231F20;stroke-width:0.4316;stroke-miterlimit:10;}
	.st11{fill:#8C9194;stroke:#231F20;stroke-width:0.6474;stroke-linecap:round;stroke-linejoin:round;stroke-miterlimit:10;}
	.st12{fill:#3F2510;}
	.st13{fill:#FFFFFF;}
	.st14{fill:#72895A;}
	.st15{fill:#FAB055;}
	.st16{fill:#FAB991;}
	.st17{opacity:0.46;fill:#680B14;}
	.st18{fill:#231F20;}
	.st19{fill:none;stroke:#231F20;stroke-width:0.75;stroke-miterlimit:10;}
	.st20{fill:none;stroke:#231F20;stroke-width:0.7597;stroke-miterlimit:10;}
	.st21{fill:none;stroke:#231F20;stroke-width:1.3865;stroke-linecap:round;stroke-linejoin:round;stroke-miterlimit:10;}
	.st22{fill:#BC2739;stroke:#231F20;stroke-width:0.3985;stroke-linecap:round;stroke-linejoin:round;stroke-miterlimit:10;}
	.st23{fill:#BC2739;stroke:#231F20;stroke-width:0.3274;stroke-linecap:round;stroke-linejoin:round;stroke-miterlimit:10;}
</style>
<path class="st0" d="M172.7,111.8c0,0,0.4,1.4,2.5,3.2c2.1,1.8,6.3,5.4,6.3,5.4l5.1-4.3c0,0,2-0.3,2.8-2.1c0.8-1.7,0.6-2.1,0.6-2.1
	l2.4,3.4l2.5,3.3l-1.9,7.9l-6,35.6l-10.5,0.7l-5.9-34.8l-2-7.3L172.7,111.8z"/>
<path class="st1" d="M174.4,150.6l-4-23.1l-1.4-6.2l-0.4-0.7l-5.3,6.7c0,0-0.1,0.4,0.5,0.6c0.7,0.2,2.1,0.6,2.3,1.1s0.2,0.6,0.2,0.6
	l-1.2,1.8l-0.9,1.4c0,0-0.4,0.4,0.7,2C166.1,136.3,174.4,150.6,174.4,150.6z"/>
<path class="st1" d="M188.8,151.6l8.5-16.3c0,0,0.9-1.3,0.7-1.9s-1.7-2.6-1.7-2.6s-0.8-0.4-0.1-1c0.7-0.6,3.1-1.4,3.1-1.4l-1.7-3.2
	l-3.2-4.9l-2,10L188.8,151.6z"/>
<polygon class="st0" points="178.7,175.3 180.1,183 181.8,190.9 182.7,187.3 184.7,174 182.4,177.7 181.8,178.9 178.6,174.5 "/>
<polygon class="st2" points="182,179.5 178.9,175.4 177,164 178,150.6 179.5,128.3 178,124.2 181.5,120.3 185.2,123.8 183.6,128.5 
	186.3,162.6 185,174.6 "/>
<path class="st3" d="M181.5,120.3l6.9-5.1c0,0,1.6-2.4,1.6-3.3c0-0.9,0.1-5.2,0.1-5.2l-2.5,2.1l-5.2,2.7c0,0-2.2,0.5-2.4,0.3
	s-5.2-3.1-5.2-3.1l-2.2-1.7l0.4,2.9c0,0,0.3,3,0.3,3s3.8,3.7,3.8,3.7L181.5,120.3z"/>
<path class="st4" d="M172.9,107.5v3.7c0,1,0.4,2,1.3,2.8l7.3,6.2l6.6-4.9c1.2-0.9,1.9-2.1,1.9-3.5l0.1-5"/>
<path class="st4" d="M168.6,120.6c0,0-10.2,0.4-14.2,7.3c-4,7-14.7,24.7-17.4,26.2c-2.7,1.5-12,1.2-12,1.2"/>
<path class="st4" d="M130.8,165.6c0,0,14.4,0.4,19.9-7.5c5.5-7.9,7.7-11.5,7.7-11.5"/>
<line class="st4" x1="157.2" y1="231" x2="155.9" y2="150.6"/>
<path class="st4" d="M190,112.3l4.9,6.3l-2.7,8.8c-0.2,0.7-1.1,1-1.7,0.5l-9.1-7.6l-7.2,8.3c-0.6,0.6-1.6,0.6-2-0.2l-3.6-7.9l4-8.8"
	/>
<line class="st5" x1="207.5" y1="194.7" x2="208.4" y2="231"/>
<line class="st4" x1="169.8" y1="123.1" x2="181.8" y2="191.8"/>
<polyline class="st5" points="193.7,123.1 187.1,160.7 181.8,191.8 "/>
<path class="st4" d="M168.6,120.6l-5.3,7.1l2.5,1.1c0.6,0.3,0.8,1.1,0.4,1.7l-1.5,1.7c-0.3,0.4-0.4,1-0.1,1.4l10.3,17.6"/>
<polyline class="st4" points="178,124.2 179.5,128.3 183.6,128.3 185.2,123.8 "/>
<line class="st4" x1="177" y1="164" x2="179.5" y2="128.3"/>
<line class="st4" x1="186.5" y1="164.4" x2="183.6" y2="128.3"/>
<polyline class="st5" points="178.9,175.4 182,179.5 184.7,174.6 "/>
<line class="st4" x1="181.8" y1="191.8" x2="183" y2="231"/>
<path class="st6" d="M174.8,141.5c0.1,0,0.1-0.1,0.1-0.2c0-0.6-0.1-1.3-0.1-1.9c0,0,0,0,0,0c-0.1-1.1-0.1-2.3-0.2-3.4
	c0,0,0.1-0.1,0-0.2c0-0.1,0-0.1,0-0.2c0-0.3-0.1-0.6-0.1-0.9c0.1-0.1,0.2-0.1,0.2-0.3c0-0.6-0.2-1.2-0.5-1.7
	c-0.2-0.4-0.4-0.9-0.7-1.3c0,0,0,0,0,0c0,0,0,0,0,0c0,0,0-0.1-0.1-0.1c0,0,0,0,0,0c-0.6-0.9-1.4-1.6-2.4-2.2c0,0,0,0,0,0
	c0.1-0.1,0.1-0.3-0.2-0.3c-0.6-0.1-1.1-0.2-1.7-0.3c-0.1,0-0.3-0.1-0.4-0.1c-0.2-0.1-0.4,0-0.5,0l-0.2-0.1c0,0-0.1,0-0.1,0
	c-0.1,0-0.2,0-0.3,0c-0.2,0-0.5,0-0.7,0c-0.1,0-0.2-0.1-0.3-0.1c0,0,0,0,0,0c-0.8-0.3-1.7,0-2.4,0.3c0,0,0,0,0,0
	c-1,0.1-1.8,0.8-2.6,1.5c0,0,0,0.1-0.1,0.1c-0.1,0.1-0.1,0.1-0.2,0.2c0,0-0.1,0.1-0.1,0.1l-0.3,0.3c-0.1,0.1-0.1,0.1-0.1,0.2
	c-0.2,0.2-0.4,0.5-0.6,0.7c-0.1,0.1-0.2,0.2-0.3,0.3c-0.1,0.1-0.1,0.2-0.1,0.2c-0.1,0.2-0.2,0.4-0.3,0.6c0,0,0,0,0,0
	c-0.2,0.2-0.3,0.4-0.5,0.7c-0.1,0.1,0,0.2,0.1,0.2c-0.1,0.2-0.1,0.4-0.1,0.6c0,0,0,0,0,0c-0.2,0.7-0.5,1.5-0.5,2.2h0
	c0,0.1,0.1,0.1,0.1,0.1c0,0.5,0,1.1,0,1.6c0,0.1,0,0.1,0.1,0.1c0,0.9,0.1,1.7,0.1,2.6c0,0,0,0,0,0c0,0,0,0.1,0,0.1
	c-0.1,0-0.3,0.1-0.3,0.2c-0.2,1.1,0,2.3,0.1,3.5c0,0.1,0.1,0.1,0.1,0.2c0,0,0,0,0,0.1c-0.1,0-0.1,0.1-0.1,0.2c-0.3,2.9-0.1,6,0,8.9
	c0,0-0.1,0.1-0.1,0.1c-0.1,0.5,0,0.9,0.1,1.3c0,0,0,0.1,0,0.1l0,0c0,0.1,0,0.1,0.1,0.2c-0.1,0.1-0.1,0.2,0,0.3
	c0.3,0.4,0.3,0.7,0.6,0.8c0,0,0,0,0,0.1c0,0,0,0,0,0c0,0,0,0,0,0c0,0,0,0,0,0.1c0.2,0.2,1.1,0.2,0.9-0.2c0,0,0,0,0,0
	c0.1-0.1,0.2-0.2,0-0.3c-0.1-0.1-0.1-0.1-0.2-0.1c-0.1-0.2-0.1-0.3-0.2-0.5c0-0.1-0.2-0.2-0.3-0.2c0,0,0-0.1,0-0.1c0,0,0,0,0-0.1
	c-0.1-3.3,0.2-6.7-0.2-10c0.1,0,0.2-0.1,0.2-0.2c0-1-0.1-2-0.2-2.9c0.2,0,0.4-0.1,0.4-0.3c-0.1-1.9-0.3-3.7-0.3-5.6
	c0.1,0,0.1-0.1,0.1-0.2c-0.1-0.9,0.4-1.6,0.8-2.4c0.3-0.6,0.8-1.2,0.8-1.9c0.9-1.2,2-1.7,3.3-2.3c0.3-0.1,0.6-0.1,0.8-0.2
	c0,0,0,0,0.1,0c0.1,0.1,0.3,0.1,0.4,0.1c0.2,0,0.5,0,0.7-0.1c0,0,0,0,0,0c0.6,0,1.2,0.1,1.8,0.3c0.1,0,0.2,0,0.4,0c0,0,0,0,0,0
	c0,0,0.1,0.1,0.2,0.1c0.3,0.1,0.7,0.3,1,0.4c0.2,0.2,0.3,0.3,0.5,0.5c0.1,0.1,0.1,0.1,0.2,0.1c0.1,0.1,0.2,0.1,0.3,0.2
	c0,0.1,0,0.1,0.1,0.2c1.2,1.2,1.8,2.6,1.9,4.3c0,0.1,0.1,0.2,0.2,0.3c0,0.3,0,0.7,0.1,1c0,1,0.1,2,0.1,3c0,0,0,0,0,0
	c-0.1,1.9,0.2,3.8,0.3,5.7c0,0.2,0,0.3,0,0.5c0,0.4,0,0.9,0.1,1.3c0,0,0,0.1,0,0.1c0,0.9-0.2,2,0.1,2.9c0,0.1,0,0.2,0,0.3
	c-0.2,0.9-0.2,1.8-0.1,2.8c0,0,0,0.1,0,0.1c-0.1,0-0.2,0.1-0.2,0.2c0,0.2,0,0.4,0.1,0.6c0,0.4,0,0.9-0.1,1.3c0,0,0,0-0.1,0.1
	c0,0-0.1,0.1,0,0.2c0,0,0,0.1,0.1,0.1c0,0,0,0,0,0c0,0,0,0,0,0c0,0.2,0.6,0.3,0.6,0.1c0,0,0,0,0-0.1c0,0,0-0.1,0.1-0.1
	c0-0.1,0.1-0.3,0.1-0.4c0,0,0-0.1,0-0.1c0.4-0.3,0.6-0.8,0.5-1.4c0-0.1-0.1-0.1-0.1-0.2c0-0.2,0-0.3,0-0.5c0.1-0.4,0.1-0.8,0.1-1.2
	c0.1-0.8,0.1-1.5,0-2.3c0.1-0.6,0.1-1.3,0-2c0,0,0,0,0,0c0,0,0-0.1,0-0.1c0-0.4,0-0.7-0.1-1.1l0-2.3c0,0,0-0.1,0-0.1
	c0-0.1,0-0.2,0-0.2c0,0,0-0.1,0-0.1c0.1-0.7,0.1-1.5,0-2.3c0.1-0.1,0.1-0.1,0.1-0.2C174.8,141.7,174.8,141.6,174.8,141.5z"/>
<path class="st4" d="M190.3,111.8c0,0,4.6,2.5,5.3,10.2c0.7,7.8,0.6,25.7,0.6,25.7"/>
<path class="st5" d="M172.6,111.2c0,0-5.8,3.7-5.5,11.4"/>
<path class="st7" d="M160.9,130.1c0,0,4.8-12.2,8.9-5l3.1,5.1"/>
<path class="st8" d="M160.6,156.2c0,0-1,0.3-0.9-1.8c0-1.7,0-12.7,0-16.9c0-1.6,0.4-3.1,1.2-4.5c0.9-1.5,2.3-3,4.7-3.2
	c4.7-0.4,6.6,2.5,7.3,4.6c0.6,1.8,0.9,19.7,0.8,20.2c-0.1,0.5-0.1,1.6-0.5,1.7"/>
<path class="st9" d="M160.2,157.4c0,0-1.8,0.3-1.7-2.1c0.1-1.9,0-14.1,0-18.7c0-1.8,0.4-3.5,1.4-5c1.1-1.6,2.9-3.3,5.7-3.5
	c5.7-0.4,8.1,2.7,8.9,5.1c0.7,2,0.3,21.5,0.2,22c-0.1,0.5-0.7,1.8-1.1,1.9"/>
<circle class="st10" cx="161.5" cy="157" r="1.3"/>
<circle class="st10" cx="172.4" cy="157.4" r="1.3"/>
<circle class="st11" cx="196.2" cy="150.6" r="2.8"/>
<path class="st12" d="M199.4,85.3l2.4,0.4l-0.1-2.4l-0.9-13.6l-0.9-4.4l-2.9-5l-2.8-2.1l-5.3-1.7l-5.5-0.5l-7.7,0.2l-5.1,0.6
	l-4.2,1.7l-3.1,4.4c0,0-2.6,5.8-2.5,6.4c0.1,0.6-1,6.9-1,6.9l0.6,8.6l0.3,1.9l0.7,0l1-0.3l2.2,0l1.1,0.6l2.4-10.8l10.5-2.8l13.1-0.2
	l3.3,2.6c0,0,2.4,8.6,2.4,8.8c0,0.2,0,2.1,0,2.1L199.4,85.3z"/>
<path class="st3" d="M186.2,97.9l2.7,0.6l3.4-2.2l5.2-3.9l0.8,2.3l1.1-1l2.5-2.9l0.9-3.3l-1.6-1.9l-1.8-0.4l-2-9.7l-1.7-3.9
	l-2.5-2.3l-2.9-0.7l-3.2,1.2l-2.8,0.6l-4,0l-4.8-1.1l-3-0.7c0,0-3.4,0.8-3.8,1.2c-0.4,0.4-2.9,3-2.9,5.7s0,11.1,0,11.1l-3.3-0.3
	l-1.7,1.2c0,0,0.2,6.6,4.2,7.2c4,0.6,3.1,3.8,3.1,3.8l3.7,3.9l11.7-2.6L186.2,97.9z"/>
<path class="st12" d="M186,109.8l4.6-3.2l4.3-6.7l2.6-4l0.7-1.2l-1.2-2.3l-1.4,1.4l-4.4,2.9l-1.3,1.5c0,0-0.4,0.2-1.2,0.3
	s-2.7-0.6-2.7-0.6l-1.5-0.1l-1.5,0.8l-2.9-0.1l-2.3-0.7l-1-0.4l-1.3,0.2l-1.2,0.6l-1.6,0.1l-1.6-1.2l-5.1-4.2l-1.1,1.8
	c0,0,1.2,3,1.7,3.9c0.4,0.9,4.9,7.7,5.6,8.3c0.6,0.6,3.2,2.8,3.9,2.9c0.7,0.1,2,1.2,3.3,1.3s3.9-0.2,3.9-0.2L186,109.8z"/>
<polyline class="st3" points="181.3,106.2 184.3,104.9 187.1,102 186.3,100.4 184.1,99.6 181.8,99.6 179.5,99.8 177.6,99.4 
	174.7,100.6 175.3,101.8 177.2,104.3 179.5,105.9 181.3,106.2 "/>
<polygon class="st12" points="169,84 175.7,81.1 174.1,78.6 172.9,78 169.5,79.5 168.1,81 168.1,82.3 168.6,84.1 "/>
<polygon class="st12" points="193.8,84.1 187.1,81.1 188,78.5 188.6,78 191.1,79.1 193.2,80.6 194.1,81.6 "/>
<path class="st13" d="M188,86.9c-0.1-0.3-0.1-0.7-0.2-1c-0.1-0.3-0.5-0.3-0.7-0.3c0,0-0.1-0.1-0.1-0.1c-0.4-0.4-1.2,0-0.9,0.5
	c0.3,0.4,0.5,0.8,0.8,1.2C187.1,87.7,188.1,87.6,188,86.9z"/>
<path class="st13" d="M191.3,86.2c-0.5-0.1-0.9-0.1-1.4-0.1c-0.7,0-0.8,0.7-0.4,1c-0.1,0.1-0.2,0.2-0.3,0.3
	c-0.1,0.1-0.1,0.2-0.1,0.3c-0.3,0.1-0.5,0.3-0.8,0.4c-0.2,0.1-0.1,0.4,0.1,0.3c0.5-0.1,1-0.1,1.5-0.1c0.5-0.1,0.9-0.2,1.4-0.3
	c0.3-0.1,0.3-0.4,0.2-0.6C192.1,87.1,191.9,86.3,191.3,86.2z"/>
<path class="st13" d="M171.5,87.4c-0.3-0.3-0.6-0.6-0.9-0.9c-0.4-0.4-1,0-1,0.4c-0.1,0-0.3,0-0.4-0.1c-0.2,0-0.5,0.3-0.2,0.4
	c0.3,0.1,0.6,0.3,0.9,0.5c0.3,0.1,0.7,0.2,1,0.4C171.3,88.4,172,87.9,171.5,87.4z"/>
<path class="st13" d="M174.2,86c-0.1,0-0.1,0-0.2-0.1c-0.5,0-1.2-0.1-1.6,0.1c-0.3,0.1-0.4,0.6,0,0.7c0.1,0.1,0.3,0.1,0.4,0.1
	c-0.2,0.2-0.4,0.5-0.6,0.7c-0.1,0.1,0,0.2,0,0.3c0,0.1,0.2,0.2,0.3,0.1c0.3-0.2,0.5-0.4,0.8-0.5c0,0,0,0,0.1,0c0,0,0,0,0.1,0
	c0.4-0.3,0.8-0.5,1.2-0.8C175,86.3,174.5,85.8,174.2,86z"/>
<polygon class="st3" points="211.2,191.8 210.2,193.5 209,194.7 206.1,194.7 204.7,193.6 203.8,192.6 202.2,193.7 199.2,195.6 
	196.6,195.8 195.9,195.1 197.1,193.4 199,191.8 202.4,189.8 204.4,189.8 203.5,189 200.9,188.4 197.6,189.8 195.3,191.2 
	193.4,191.4 192.3,191.3 192.7,190 197.2,185.9 195.2,186.8 192.3,187.4 191.4,187.1 191.8,186.3 193.4,184.6 194.9,183.4 
	193.7,183.3 193.7,182.4 196.7,179.8 199.4,178 200.7,178 202.9,179.2 205.8,181.6 206.7,182.5 207.3,186.9 208.4,189.8 
	210.1,191.5 "/>
<polygon class="st14" points="117.5,224.4 113.7,225.5 105.5,225.5 70.5,223.2 72,212.8 75.5,187.9 74.7,167.6 73.5,162.5 
	68.1,174.8 62.1,177.9 50.8,176.8 52.6,169.8 55.8,159.2 57.8,151.6 62.9,139.1 67.5,133.2 70.5,131.4 81.9,133.2 86.4,136.3 
	101.2,137.3 111.8,144.9 119.2,164 123.2,176.8 121.7,177.9 115.6,171.4 114.7,189 "/>
<path class="st15" d="M81.6,133.2l-2.5,0.9l-5.5-1.7l-5.2-1.8l-4.1-1.6l-4.4-3.7l-2.3-4.3l0.8-9.3l1.8-12.5L64,82.8l3.5-8.1l2.7-4
	l3-1.4l2.6-0.2l1,0.4l0.6-0.7l10.8-1h8.4l8.9,1.3l5.2,1.6l2.5,1.6l2.1,2.6l1,3.1l-0.2,2.7l-0.9,2.2l1.7,4l3.6,8c0,0,0.7,2.7,0.6,4.2
	c-0.1,1.5-0.6,4.7-0.6,4.7s-0.3,5.8-0.2,7.2c0.1,1.3,0.8,6.1,0.8,6.1l0.8,4.7l-0.1,3.4l-1.5,1.7l-1.1,0.9l-2.1-0.4l-3.2,0.3
	l-3.4,0.5l-2.6,1.3l-1.2,0.7l-3.1,0.4h-3.2l-2.7,0.2l-6.6,1.9L81.6,133.2z"/>
<path class="st16" d="M98.2,138l-2,0.1l-5-0.7l-4.8-1.1l-4-2.2c0,0-0.4-0.5-0.4-0.9c0-0.3,0.4-2.1,0.4-2.1l-0.4-2.5l0.8-2.9l0.1-2.2
	l-0.7-2.8l-1.3-3.2l-0.5-3.1v-2.1l1.2-1.6c0,0,2.2-2.1,2-2.4c-0.2-0.2,0-2.7,0-2.7V103l-2.6-6.7l-2.4-6c0,0-0.6-2-0.8-2.2
	c-0.2-0.2,0-2.9,0-2.9l1.2-2.7l3.7-3.4l1.6,1.7l5,3.1l8.5,3.7l3.4,0.4l3.8,0.1l3.9-0.7l2.9-1.6l1.8-1.1l0.6,1.3l1.6,6.1l1.1,7.9v3.4
	l-0.7,2.4l-1.8,3.7l-6.6,10.9l-1.7,1.9l-2.8,1.7l-3.5,1l-1.7,0.5l-0.4,2.1v3.6l0.9,0.7l1.7,0.6l3.3,2.1l4.9,3l3.3,1.4l-0.2-0.6
	l-1.6-5.2l0.5-0.3l1.2,0.9l3.5,6.6l2.6,5.4l8.7,12.2l6.4,12.4c0,0,1.6,4.9,1.6,5.6c0,0.7-0.5,3.5-0.5,3.5l-1.5,2.1l-2.4,1l-2,0.1
	l-2.7-1.9l-2.7-2.5l-1.8-2.1l-7.5-24.9l-1.2-1.1l-3.2-1.1l-5.9-3.5l-4-3.4l-2-2.3l-0.3-1l0.6,0l2,0.7l-0.9-0.3l-0.3-0.8l-0.6-0.3
	l0.2-0.8L98.2,138z"/>
<path class="st16" d="M51.8,176.8l-1.7,2.9l-0.4,2.6l1.1,2.3l1.7,1.2l4.2,1.2l6,0.4h9.6l20-1.1l6.3,2.1l3.6,0.8h5.1l4.2-1l2.7-1.2
	l-0.5-0.5l-4.7,0.1l1.3-1l5.6-3.6l2-2.1l-0.3-0.8v-1.2l-2.1-0.5l-2.3,0.6l1.5-1.9l-0.2-0.7l-1,0.1c0,0-3.4,1.1-3.6,1.2
	s-2.6,0.9-2.6,0.9l-4.2,0.2l-3.2-0.5l1.9-0.8l7.4-3.4l0.8-0.8l-1.2-0.7l-4,0.3l-5.6,0.5l-1.2,0.5l-2.6,2.6l-2.1,0.8l-4.5,0.1
	l-9.9-0.3l-4.6-0.5l-5.2,0.1l-3.5,0.6l-2.9,0.8l-1.9,0.3l-6.9-0.4L51.8,176.8z"/>
<polygon class="st15" points="83.5,92.4 87.4,93.3 91.1,93.3 94.7,92.2 96,90.9 95.7,89.7 93.7,89.1 90.9,90.1 85.4,92.1 "/>
<polygon class="st15" points="113,90.4 107.2,90.9 105.6,90.7 105.7,89.9 107,89.1 109.7,89.3 113,89.8 "/>
<path class="st13" d="M111.1,100c-0.1-0.1-0.2-0.2-0.4-0.2c0-0.1-0.1-0.2-0.1-0.3c-0.2-0.1-0.3-0.3-0.5-0.4c0,0,0,0,0.1,0
	c0.2-0.2,0.2-0.6-0.1-0.8c-0.4-0.3-0.9-0.1-1.4-0.1c-0.3,0-0.5,0.3-0.5,0.6c-0.1,0-0.1,0.1-0.1,0.2c-0.1,0-0.3,0.1-0.2,0.3
	c0.2,0.6,0.9,1,1.4,1.2c0.5,0.2,1.4,0.5,1.9,0.1C111.2,100.4,111.2,100.2,111.1,100z"/>
<path class="st13" d="M113.7,97.9c-0.2-0.5-0.7-0.8-1.3-0.7c-0.3,0-0.6,0.3-0.5,0.6c0,0.3,0.3,0.5,0.6,0.6c0.1,0,0.1,0,0,0
	c0,0.1-0.1,0.1-0.1,0.2c-0.1,0.1-0.2,0.3-0.3,0.4c-0.2,0.3-0.4,0.7-0.5,1c-0.1,0.2,0.1,0.3,0.3,0.3c0.1,0.1,0.2,0.1,0.3,0.1
	c0.9-0.3,1.5-1.1,1.8-2C114.1,98.2,113.9,98,113.7,97.9z"/>
<path class="st13" d="M94.6,99.7c-0.1-0.1-0.3-0.2-0.4-0.2c-0.2,0-0.4,0-0.5,0c-0.3,0-0.6,0.4-0.5,0.7c0,0.1,0,0.1,0.1,0.1
	c0,0.1-0.1,0.2-0.1,0.2c-0.1,0.1-0.2,0.2-0.2,0.3c-0.1,0.7-0.8,1.2-1.4,1.3c0-0.1-0.1-0.3-0.2-0.3c-0.2-0.1-0.4-0.2-0.7-0.2
	c0-0.1-0.1-0.1-0.1-0.2c-0.1-0.1-0.3-0.3-0.4-0.4c0.1,0,0.1-0.1,0.2-0.1c0.2-0.1,0.3-0.4,0.2-0.6c0,0,0-0.1,0-0.1
	c-0.1-0.4-0.5-0.6-0.9-0.5c0,0-0.1,0-0.1,0c-0.3,0-0.5,0.2-0.5,0.5c-0.1,0-0.1,0-0.2,0c-0.4-0.1-0.8,0.4-0.7,0.7c-0.1,0-0.1,0-0.2,0
	c-0.3,0-0.4,0.4-0.2,0.6c0.2,0.1,0.4,0.3,0.6,0.4c0.3,0.2,0.7,0.4,1.1,0.5c0.6,0.2,1.3,0.4,1.9,0.2c0,0,0,0,0.1,0
	c0.4,0.1,0.8,0.2,1.2,0.1c0,0,0.1,0.1,0.2,0c0.6-0.2,1-0.3,1.5-0.8c0.4-0.4,0.8-0.9,1-1.4c0-0.1,0-0.1,0-0.2
	C95.2,100.1,94.9,99.8,94.6,99.7z"/>
<polygon class="st17" points="95.6,118 99.2,118.8 103.2,119.4 105.6,118 107.5,115.4 105.4,115.3 99.9,116.2 96,117.5 "/>
<g>
	<path class="st4" d="M82.4,79.4c0,0-5.5,3.8-4.8,8.3s8.8,17.3,4.8,21.7s-1.2,8.5,0,11.8c0.6,1.7,0.5,3.4,0.2,4.7
		c-0.3,1.5-0.4,3-0.4,4.6c0,2.1-0.7,4.6-4.6,3.1c-6.4-2.4-21.3-4.3-19.9-16.2c1.4-11.9,6.4-61.1,23.3-45.2
		C81,72.2,85,76.9,82.4,79.4z"/>
	<path class="st4" d="M75.2,69.1c0,0,29.8-5.3,38.9,4.3c3.3,3.5,2.6,9-1.3,11.8c-4.7,3.5-14.2,6.1-30.4-5.9"/>
	<path class="st4" d="M115.1,83.3c0,0,3.2,7,3.9,8.4c0.7,1.4,2.6,4.7,1.7,9.8c-1,5.2-0.7,9.9,0.3,14.9c0.9,5,1.9,10.9-3.1,10.7
		c-5-0.2-9.5,1.4-10.5,2.4c-1,1-9.6,1-9.6,1"/>
	<path class="st4" d="M114,85.3c0,0,4.1,15.8,2.7,19.5c-2.6,6.9-7,14-10.2,17.5c-1.7,1.9-4.1,3.1-6.6,3.3
		c-5.1,0.5-13.5-0.9-18.5-13.8"/>
	<path class="st4" d="M103.2,96.9c0,0-0.2,6.9,2,9.1c0.7,0.7,1.1,1.2,1.5,1.6c0.6,0.6,0.3,1.6-0.4,2c-1.3,0.6-2.5,0.8-3.9,0.5"/>
	<path class="st4" d="M98.3,107.7c0,0-0.7,1,0,2.5"/>
	<path class="st4" d="M82.3,98.6c0.3,0,17-2.2,17-2.2l0.6,7c0,0-13.1,2.4-16,2.5"/>
	<path class="st4" d="M99.9,99.4c0,0,4.6-0.5,5.1,0"/>
	<polyline class="st4" points="116.1,94.7 105.6,95.7 105.6,102.4 116.2,101.3 	"/>
	<path class="st4" d="M107.9,98.6c0,0,3.7-2.2,5.9-0.9"/>
	<path class="st4" d="M87.4,101c0,0,2.9-2.7,7.3-1.2"/>
	<path class="st4" d="M83,93.1c0,0,13.2-6.2,13-2.5C95.8,94.2,83,93.1,83,93.1"/>
	<path class="st4" d="M114.4,90.2c0,0-7.2-2.1-8.8-0.2S114.4,90.2,114.4,90.2z"/>
	<path class="st4" d="M94.7,118c0,0,8-3.6,12.9-2.5c0,0-3,3.4-4,3.9C102.7,119.8,95.4,117.9,94.7,118z"/>
	<path class="st4" d="M78.1,70.1c0,0-9.2,4.5-9,7.5C69.4,80.5,78.1,70.1,78.1,70.1z"/>
	<path class="st4" d="M81,72.2c0,0-10.9,7.9-8.1,9.8S81,72.2,81,72.2z"/>
	<path class="st4" d="M78.1,70.1c0,0,13-2.2,12.5,0.8C90.2,73.9,78.1,70.1,78.1,70.1z"/>
	<path class="st4" d="M81,72.2c0,0,17.4,2.7,12.5,6.2C90.7,80.5,81,72.2,81,72.2"/>
	<path class="st4" d="M98.7,125.8c0,0-2.8,4.6,0,6.6"/>
	<path class="st4" d="M81.6,133.2c0,0,4.9,5.4,16.2,4.8"/>
	<path class="st4" d="M70.5,131.4c0,0-8.8,1.6-14.7,27.7l-5,16.3c-0.2,0.6,0.3,1.3,0.9,1.3l10.3,0.1"/>
	<polyline class="st4" points="77.6,153.3 73.5,162.5 67.9,175.2 	"/>
	<path class="st4" d="M74.5,175.2c0,0,0.9-9.6-1-12.7"/>
	<path class="st4" d="M81.6,167.6c0,0,6.8,6.7,14.1,3.8"/>
	<path class="st4" d="M102.1,144.9c0,0.5,4.6,18.9,5.1,24.7"/>
	<path class="st4" d="M105.5,189.6c0,0-1.5,32.7-2.4,35.4"/>
	<path class="st4" d="M75.5,187.9l-5,35.4c0,0,42.4,4.1,47,1.1c0,0-2.6-38.6-3.3-41.5"/>
	<path class="st4" d="M117.8,166.2c0,0-0.1,4.3-6,5.9"/>
	<line class="st4" x1="115.6" y1="170.3" x2="115.4" y2="176.8"/>
	<path class="st4" d="M51.7,176.8c0,0-7.6,9.2,6.5,10.3s33.6-1.4,34.4-0.8s13.8,5.7,22,0.2c0,0-2.7-0.6-7.5,0.3
		c0,0,10.4-4.4,10.3-7.9"/>
	<path class="st4" d="M106.4,184.1c0,0,12.6-5.4,11.1-6.4c-3-2-9.2,3.3-12.3,3"/>
	<path class="st4" d="M62.1,176.9c0,0,6.5-2.9,17.6-0.9c0,0,12.4,1.2,14.7-0.4s3.6-3.8,4.9-3.7c1.3,0.2,6.3-0.4,7.9-0.5
		c1.6-0.1,3.2,0.1,2.6,1c-0.6,0.9-10,4.7-10,4.7s4,1.2,7.9,0s7.6-3,6.9-1.2c-0.8,2-2.3,2.2-2.3,2.2"/>
	<path class="st4" d="M83.6,199.6l11.7,0.6L94.5,211c-0.1,1.1-1,1.9-2,1.8l-6.3-0.3c-1.2,0-2.2-1.1-2.3-2.3L83.6,199.6z"/>
	<path class="st4" d="M115.4,170.9l7.3,7.4c0,0,7.5,9.5,11.5,1.5c4-8-16-33.3-16-33.3l-5.5-11.1c-0.3-0.7-0.8-1.2-1.3-1.7
		c-0.4-0.3-0.8-0.6-1.2-0.5c-0.8,0.3,1.3,4.8,1.6,6c0.2,1.1-8.2-4.5-11-6.3c-0.8-0.5-1.7-0.7-2.6-0.4c-0.9,0.4,0.1,0.7,2.5,3
		c4.4,4.2,7.6,5,7.6,5"/>
	<path class="st4" d="M107.2,142.3c0,0-8-4.5-10.1-7.1c-0.7-0.9-0.2-1.8,0.9-2"/>
	<path class="st4" d="M106.2,144c0,0-8-5.4-9-4.9c-1,0.4,6,8.5,15.4,11.4c0.6,0.2,1,0.6,1.2,1.2c1.3,4.3,6.7,23.3,8.1,25.6"/>
	<circle class="st18" cx="91.7" cy="101" r="2"/>
	<circle class="st18" cx="111.1" cy="98.9" r="1.9"/>
</g>
<path class="st4" d="M99.2,139.8c0,0-4.8-5.4-2.1-4.6"/>
<path class="st4" d="M206.7,182.5c0,0-5.3-5.8-7.7-4.4c-2.3,1.5-5.8,4.1-5.6,4.8c0.2,0.6,2.6,0.4,3.3,0c0.7-0.4,3.4-2,5.1-0.4"/>
<path class="st4" d="M194.9,183.4c0,0-4.6,3.3-3.5,3.9c1.1,0.5,3.5-0.5,4.7-1c1.2-0.4,3.6-2.4,5.3-0.7"/>
<path class="st4" d="M197.2,185.9c0,0-5.7,4.9-5.1,5.2c0.6,0.3,2.3,0.6,4.2-0.5s5.1-3.7,8.4-0.7c0,0-0.9-0.2-2.4,0.1
	c-1.3,0.3-8.4,5-5.9,5.8s6.7-3.2,7.2-3.2c0.5,0,1,0.8,2,1.8s5-0.2,5.6-2.1"/>
<path class="st4" d="M206.7,181.3l0-34.6l13.2,16.8L206.7,182c0,0,0,10.4,5.3,9.8c0,0,29.7-20.4,22.1-34.6c0,0-19.1-34.3-38.4-37.3"
	/>
<polyline class="st4" points="188.8,151.1 198.1,133.4 196.3,129.7 199.4,128.3 194.9,119.3 "/>
<path class="st4" d="M165.7,86.6c0,0-6.1-1.9-4.8,2.6c1.3,4.6,2.4,5.6,4.1,5.5c0,0,9.1,25.7,24.1,12.9c1.9-1.6,3.5-3.6,4.8-5.8
	l4.3-7.1c0,0,4-3,4.5-6c0.3-1.7-1-3.2-2.7-3.4l-1.4-0.1"/>
<path class="st4" d="M165.7,86.6V76.4c0-2.1,0.7-4.3,2.1-5.9c1.4-1.6,3.6-2.9,6.6-1.7c6,2.4,11.1,2,14.3,0.2s7.5,1.4,8.6,6.4
	c1.1,5,2,9.7,2,9.7"/>
<path class="st4" d="M160.7,87c0,0-4.4-29.2,12.2-30.5s27-0.6,28.1,14.8c0.7,9.8,0.8,14.4,0.8,14.4"/>
<path class="st4" d="M168.5,84.1c0,0,6.9-2.8,6.9-3c0.1-0.2-1.2-3-2.6-3c-1.4,0-4.6,2.3-4.8,3C167.9,81.8,168.5,84.1,168.5,84.1z"/>
<path class="st4" d="M193.7,84.1c0,0-6.5-2.5-6.6-3s0.7-2.8,1.4-3c0.7-0.2,5.4,2.4,5.5,3.5C194.3,82.7,193.7,84.1,193.7,84.1z"/>
<path class="st4" d="M178,83.6c0,0,2.2,8.8,0.7,11c-1.8,2.7,2,2.1,3.8,1.9"/>
<path class="st4" d="M198.3,94.7l-1.1-2.3c-0.6,1.1-5.9,4.6-7.8,5.9c-0.5,0.3-1,0.4-1.6,0.2l-1.6-0.6c-0.4-0.2-0.9-0.2-1.3,0
	c-3.1,1.5-6,0.3-7.4-0.3c-0.5-0.2-1.1-0.3-1.6,0l-1.7,0.8c-0.6,0.3-1.3,0.2-1.8-0.2l-6.3-5.1l-1.1,1.7"/>
<path class="st4" d="M174.7,100.6l2-1.1c0.3-0.2,0.6-0.2,0.9-0.1c1.2,0.3,4.2,1,6.4,0.2c0.5-0.2,1-0.1,1.3,0.3l1.8,1.7
	C187.1,101.6,181,112.7,174.7,100.6z"/>
<path class="st4" d="M177.2,102c0,0,3.3,2.2,7.2,0.1"/>
<path class="st4" d="M186,85.6c0.2-0.1,3.3-0.5,5.7,1.4"/>
<path class="st4" d="M169,87c0,0,2.8-2.2,5.7-0.9"/>
<path class="st4" d="M178,86.5c0,0,2.3-0.5,4.9,0.5"/>
<path class="st19" d="M188.7,92.5l-2.6-0.6c-2.2-0.5-3.6-2.8-3.1-5v0c0.5-2.2,2.8-3.6,5-3.1l2.6,0.6c2.2,0.5,3.6,2.8,3.1,5v0
	C193.2,91.6,190.9,93,188.7,92.5z"/>
<path class="st20" d="M175.2,92.2l-2.8,1c-2.2,0.8-4.6-0.4-5.3-2.6v0c-0.8-2.2,0.4-4.6,2.6-5.3l2.8-1c2.2-0.8,4.6,0.4,5.3,2.6v0
	C178.5,89.1,177.4,91.4,175.2,92.2z"/>
<circle class="st18" cx="171.8" cy="87" r="1.6"/>
<circle class="st18" cx="188.6" cy="87" r="1.6"/>
<path class="st4" d="M162.4,87.5c0,0,2.3,2.2,2.5,3.7"/>
<line class="st4" x1="162.4" y1="90.2" x2="164.1" y2="89.4"/>
<path class="st4" d="M200.8,86.7c0,0-2.4,2.5-2.3,4.6"/>
<line class="st4" x1="200.8" y1="89.1" x2="199" y2="89.4"/>
<g>
	<path class="st21" d="M131.7,71c1.8,0.2,3.6,0.3,5.5,0.2c16.8-0.6,30.1-11.9,29.6-25.4c-0.4-13.5-14.4-24-31.2-23.4
		c-16.8,0.6-30.1,11.9-29.6,25.4c0.3,9.4,7.2,17.3,17,21.1"/>
	<path class="st21" d="M123,68.9c0.5,5.5-4.5,10.3-4.5,10.3s9.1-0.9,13.3-8.1"/>
</g>
<g>
	<path class="st22" d="M123.4,57.3l-3.8-13.8v0c-1.7-6.1,0.4-13.8,3.8-13.8h0h0c3.4,0,5.5,7.7,3.8,13.8v0L123.4,57.3z"/>
	<circle class="st23" cx="123.4" cy="60.4" r="1.8"/>
</g>
<g>
	<path class="st22" d="M136.8,57.3L133,43.5v0c-1.7-6.1,0.4-13.8,3.8-13.8h0l0,0c3.4,0,5.5,7.7,3.8,13.8v0L136.8,57.3z"/>
	<circle class="st23" cx="136.8" cy="60.4" r="1.8"/>
</g>
<g>
	<path class="st22" d="M149.3,57.3l-3.8-13.8v0c-1.7-6.1,0.4-13.8,3.8-13.8l0,0h0c3.4,0,5.5,7.7,3.8,13.8l0,0L149.3,57.3z"/>
	<circle class="st23" cx="149.3" cy="60.4" r="1.8"/>
</g>
</svg>
