<?xml version="1.0" encoding="utf-8"?>
<!-- Generator: Adobe Illustrator 22.1.0, SVG Export Plug-In . SVG Version: 6.00 Build 0)  -->
<svg version="1.1" xmlns="http://www.w3.org/2000/svg" xmlns:xlink="http://www.w3.org/1999/xlink" x="0px" y="0px"
	 viewBox="0 0 283.5 283.5" style="enable-background:new 0 0 283.5 283.5;" xml:space="preserve">
<style type="text/css">
	.st0{fill:#BD222E;}
	.st1{fill:#FCD4B6;}
	.st2{opacity:0.67;fill:#FFFFFF;}
	.st3{fill:#662227;}
	.st4{fill:#A48A7B;}
	.st5{fill:none;stroke:#000000;stroke-linecap:round;stroke-linejoin:round;stroke-miterlimit:10;}
	.st6{fill:#BD212E;stroke:#000000;stroke-width:3.391298e-02;stroke-miterlimit:10;}
	.st7{fill:#878787;stroke:#000000;stroke-width:8.115933e-02;stroke-miterlimit:10;}
	.st8{fill:#BD212E;stroke:#000000;stroke-width:2.260865e-02;stroke-miterlimit:10;}
	.st9{fill:#EC651F;stroke:#000000;stroke-width:2.260865e-02;stroke-miterlimit:10;}
	.st10{fill:#BD212E;stroke:#000000;stroke-width:4.393823e-02;stroke-miterlimit:10;}
	.st11{fill:#878787;stroke:#000000;stroke-width:0.1052;stroke-miterlimit:10;}
	.st12{fill:#BD212E;stroke:#000000;stroke-width:2.929215e-02;stroke-miterlimit:10;}
	.st13{fill:#EC651F;stroke:#000000;stroke-width:2.929215e-02;stroke-miterlimit:10;}
	.st14{fill:#BD212E;stroke:#000000;stroke-width:6.632663e-02;stroke-miterlimit:10;}
	.st15{fill:#878787;stroke:#000000;stroke-width:0.1587;stroke-miterlimit:10;}
	.st16{fill:#BD212E;stroke:#000000;stroke-width:4.421775e-02;stroke-miterlimit:10;}
	.st17{fill:#EC651F;stroke:#000000;stroke-width:4.421775e-02;stroke-miterlimit:10;}
	.st18{fill:#BD212E;stroke:#000000;stroke-width:2.139468e-02;stroke-miterlimit:10;}
	.st19{fill:#878787;stroke:#000000;stroke-width:5.120100e-02;stroke-miterlimit:10;}
	.st20{fill:#BD212E;stroke:#000000;stroke-width:1.426312e-02;stroke-miterlimit:10;}
	.st21{fill:#EC651F;stroke:#000000;stroke-width:1.426312e-02;stroke-miterlimit:10;}
</style>
<g id="Слой_1">
</g>
<g id="Слой_5">
	<g>
		<path class="st0" d="M103.2,181.2l-16.8,5.5c0,0-6.6,3.2-7.3,3.9c-0.7,0.7-1.9,3.8-3.1,7.9c-1.1,4.1-7.3,29.4-7.3,29.4l-4.1,23.4
			c0,0-1.8,17.2-1.8,20.2c0,3,0.6,13.5,0.6,13.5h157.4c0,0-0.4-4.8-0.6-5.9c-0.1-1.1-3.7-31.2-3.7-31.2s-2.2-19.6-2.3-21.6
			c-0.1-2-1.2-20.1-2.7-25c-1.4-4.8-3-10.1-7.3-12c-4.4-1.8-22.2-9.6-22.2-9.6l-4.5,5.8l-9.8,8.7l-9.7,4.3l-13.3,0.2l-8.1-2.4
			L103.2,181.2z"/>
		<path class="st1" d="M121.1,221l4.6-8.8l3.6-3.6l5.9-9.9l1.4-2.7l4.2,1.3l8.9,1.4l10.6-1.4l7.5-3.3l7.2-6.1l5.7-6.2l1.4-2
			l-10.3-4.4l-0.9-18.2l4.9-5.6l3.8-7.4l4-9.7l1.8-4.5l1.1,0.7c0,0,1.6,0.1,2.5-0.7c0.9-0.8,2.5-2.6,2.5-2.6l3.9-5.8
			c0,0,1.7-2.7,1.1-5.2s-1.9-5.3-2.7-5.8c-0.8-0.5-3.5-1.2-4.8,0.1c-1.4,1.3-1.1-0.7-1.4-3s-1.3-9.6-1.3-9.6s-1.8-3.6-2.8-4.2
			c-0.9-0.6-6.3-4.6-7.7-9.4c-1.4-4.8-3.2-14.5-3.2-14.5s-2.4-7.5-3-8.3s-3.6-5.5-6.6-5.2c-3,0.3-6.6-1.1-6.6-1.1l-5.1,0l-2.4,1
			l-4.5,3.7l-2.6,4l-1.1,4.3l-3.7,5l-4.2,3.1l-7,3.8c0,0-3.2,2.2-3.1,2.7c0.2,0.6-1.2,4.6-1.3,7.7c-0.1,3.2-0.2,6.2-0.2,6.2
			l-1.3,4.2l-3.8,1.8l-3.1,1.1l-1.9,1.9l-1.5,3.9l-1.3,1.1l-2.2,0l-2.3,1.5l-1.9,2.9l-1.1,3.7l0.4,4.2l2.5,3.5c0,0,4.2,4.5,6.6,5.1
			s3.7,1.8,3.7,1.8l1,6l2.7,5.8l3.5,5.8l1.5,1.7l-2.7,0.8l-2.3,1.7l-3.5,5.2l-4.7,9.6l-3.4,7.4l-2.7,6.8l0.5,4.9l0.9,8.4l-1.2,6.7
			l-1.7,5.8l0.7,1.8l5.8,5.1l7.1,3.1l4.2,1L121.1,221z"/>
		<path class="st2" d="M140.2,113.9c0-0.1-0.1-0.3-0.1-0.4c-0.5-1.2-2-2.2-3.5-2.9c0-0.4-1.2-0.5-1.4-0.5c-0.1,0-0.2-0.1-0.3-0.1
			c-2.2-0.6-11.7-0.8-11.1,3.3c0,0.2,0.1,0.3,0.2,0.5c-1.1,0.1-2.4,0.3-1.7,0.6c0,0,0.1,0,0.1,0c0,0,0,0.1,0,0.1
			c4.8,4.9,14.7,5.4,19.4,0C141.9,114.2,141.1,114,140.2,113.9z M132,111.2c-0.3,0.3-0.5,0.6-0.8,0.9c0,0-0.1,0.1-0.1,0.1
			c0.1-0.1,0.1-0.2,0.2-0.3c0.5-0.3,0-0.6-0.7-0.7C131.1,111.1,131.5,111.1,132,111.2z M135.1,114.7c-1,1.4-3.8,1-6.3,0.2
			c0.6-0.1,1.2-0.3,1.6-0.6c0,0,0.1-0.1,0.1-0.1c0.3,0.1,0.7,0.1,0.8,0.1c0.7,0.1,1.5,0.1,2.1-0.2c0.5-0.3,0.9-0.7,1.3-1.2
			c0,0,0.1,0.1,0.1,0.1C135.8,113.7,135.9,114.2,135.1,114.7z"/>
		<path class="st2" d="M175.4,111.5c-0.1-2-2.7-2.7-4.4-2.7c-1.2,0-2.5,0.1-3.6,0.7c-0.7,0.4-1.1,0.9-1.4,1.5c0,0-0.1,0-0.1,0
			c0.2-0.4,0.5-0.7,0.7-1.1c0.5-0.8-3.7-1.2-4.4-0.4c-0.4,0.5-0.8,1.2-1.2,1.7c-0.8,0.4-1.4,0.9-2,1.8c-0.1,0.2-0.1,0.3,0,0.4
			c-0.3,0.1-1,0.4-0.3,0.7c0.2,0.1,0.3,0.1,0.5,0.2c4.8,4.3,13.9,3,17.7-2C177,111.9,176.3,111.6,175.4,111.5z M162.6,113.6
			c0.3,0,0.5-0.1,0.6-0.1c0.1,0,0.2-0.1,0.2-0.1c0.3,0.2,0.6,0.3,1,0.4c0.7,0.2,1.8,0.3,2.8,0.1c0.2,0.1,0.3,0.1,0.4,0.1
			c0.2,0,0.5,0.1,0.8,0.1C166.5,114.5,164.2,114,162.6,113.6z"/>
		<path class="st3" d="M124.6,97.9l7.3-0.9l6.5-1.6l3.7-1.1l0.7-1.1c0,0-0.2-2-2.3-1.9c-2.1,0-6,0.7-6,0.7l-5.3,2.4l-4.7,2.7V97.9z"
			/>
		<path class="st3" d="M175.2,96.7l-4.2,0.2l-6.5-0.5l-5.1-1.4l-1.6-1.7c0,0,0.2-1.6,0.9-2.1c0.7-0.5,2.2-0.5,2.2-0.5l3.2,0.5
			l4.9,2.1L175.2,96.7z"/>
		<path class="st3" d="M171.8,157.2l5.4-1.1l2.8-0.7l2.1,0.5c0,0,0.9,0.4,1.9-0.5s2.9-3.3,2.9-3.3l1.3-2.9l0.7-1.5l1.9-1.4l3.6-1.1
			l2.2-0.8c0,0,2.2-1.4,2.8-2.7s1.2-1.2,1.1-3.5c-0.2-2.3-0.3-5.9-0.3-5.9s0.9-5.5,1.1-6.3s1.7-6,1.7-6s1.3-3.9,1.6-5.6
			s1.1-9.4,1.1-9.4s0-6.3-0.3-8.1c-0.3-1.7-1-5.1-1.4-6.2s-3.5-7.3-3.5-7.3l-3.4-8.2l-1.4-6.9l-0.2-4.5l-1.8-9.2
			c0,0-1.9-5.4-3.3-7.8s-3.8-5.4-4.6-6.3s-5.6-4.8-6.7-5.5c-1.2-0.7-4.5-2.3-6.2-2.7c-1.6-0.4-4.7-1-5.9-1c-1.2-0.1-4.9-0.4-6.7,0
			c-1.8,0.4-8,2-8.9,2.4c-0.9,0.4-5.2,2.6-5.2,2.6l-1.7,1.1l-3.9-1.2l-5-0.7h-5.9l-6.3,3l-4.5,2.7l-4.6,5.1l-3.6,6.6l-1.9,3.5
			l-3.3,3.8l-4.5,4.1L95.5,68l-3,3.2c0,0-3,5.3-3.3,6.6c-0.3,1.3-0.8,3.4-0.7,5.1s0.4,5.6,2.7,8.3c2.3,2.7,3.6,6.7,3.6,6.7
			s2.4,2.9,1.2,6c-1.2,3.1-2.2,9.3-2.2,9.3l-2.2,7.5c0,0-1.3,4.2-1.3,5s0.3,3.4,0.7,4.4c0.3,1,2.7,5.5,4,6s5.8,2,5.8,2l3.9,1.3
			c0,0,1.2,0.5,1.4,2.2s0.5,3.9,0.5,3.9s-0.8,0.8,0.6,1.8s2.9,1.2,2.9,1.2l2.4-0.2l2-0.3l2.7,0.9l2,1.6l2,0.7c0,0-1.9-2.7-3.2-4.8
			c-1.3-2.1-4-12.9-4-12.9s-4.8-2.2-5.7-2.8s-6.9-4.5-7.5-8.1s-0.1-5.2,0.5-6.3s2.8-4.8,2.8-4.8s1.7-1.2,3-1s2.3,0.3,2.3,0.3
			l0.7-2.5l1.7-3.3l2.9-1.9c0,0,2.9-0.8,3.4-1.3s2.1-2,2.5-2.8s0.8-3.5,0.7-4.7c-0.1-1.2,0.1-5.2,0.1-5.2l1.3-5.5l1.2-2.3l2.8-1.7
			l3.8-2.1l4-2.1l3.8-3l2.1-3.5c0,0,1.3-3.6,1.5-4.1s1.8-3.8,1.8-3.8l3.1-3.2l2.1-1.8l1.9-0.9h3l5.5,0.3l4.8,1.4c0,0,2.4,0.3,3.8,2
			s2.6,4.2,3.4,6.1c0.8,1.9,2.3,10.4,2.3,10.4l1.8,7.8c0,0,1,4,2.9,5.7s2.1,3.2,4.5,4.3c2.4,1.2,2.8,3.2,2.8,3.5
			c0,0.4,1.2,2.2,1.1,3.2c-0.1,0.9,0.2,3.9,0.2,3.9l0.9,5.8l1.2,0.8l2.5-0.7c0,0,1.4-0.4,2.3,0.6s2.9,3.7,2.8,4.7
			c-0.1,1-0.1,4.3-0.5,4.7c-0.4,0.4-1.5,3.5-1.5,3.5l-3.1,3.8l-2.5,2.6l-1.3,1l-2.2-1l-1.8,4.5l-4,9.7l-2.8,5.9l-4.1,5.4l-1.8,1.7
			H171.8z"/>
	</g>
</g>
<g id="Слой_9">
	<g>
		<g>
			<path class="st4" d="M125.3,156.8c-2.2,0.9-4.3,2-6.3,3.3c-1.3,0.9-1.7,2.7-0.5,3.9c1.4,1.4,3.4,1.8,5.2,1.1
				c0.9-0.3,1.6-0.9,2.1-1.7c0.3-0.4,0.4-0.8,0.6-1.2c0.4-1,0.1,0.1-0.8-0.2c-0.4-0.2-0.7-0.4-1.1-0.6c0.1,0.1,0.2,0.1,0.2,0.2
				c1.1,0.8,2.5,1,3.5,0c0.9-0.9,1.1-2.7,0-3.5c-1.7-1.4-3.9-1.3-5.4,0.4c-0.5,0.6-0.9,1.4-1.2,2.2c0,0,0.2-0.2,0.3-0.1
				c-0.2,1.3-0.3,2.6-0.5,3.9c1.6-1.1,3.3-2.1,5.1-2.8c1.2-0.5,2.1-1.7,1.7-3.1C128.1,157.4,126.6,156.3,125.3,156.8L125.3,156.8z"
				/>
		</g>
	</g>
	<g>
		<g>
			<path class="st4" d="M145.3,157.5c0.4-0.2,0.9-0.4,1.3-0.7c1.2-0.6,1.6-2.3,0.9-3.4c-0.8-1.2-2.2-1.5-3.4-0.9
				c-0.4,0.2-0.9,0.4-1.3,0.7c-1.2,0.6-1.6,2.3-0.9,3.4C142.6,157.8,144,158.1,145.3,157.5L145.3,157.5z"/>
		</g>
	</g>
	<g>
		<g>
			<path class="st4" d="M122.3,172.7c-3.5,0.2-6.9,0.8-10.2,1.8c-3.1,1-1.8,5.4,1.3,4.8c3.5-0.7,6.4-0.2,9.8,0.7
				c-0.6-1-1.2-2.1-1.7-3.1c-0.1,0.7-0.2,0.8-0.8,1.1c-2.9,1.5-0.3,5.8,2.5,4.3c1.6-0.9,2.8-2.3,3.1-4.1c0.3-1.3-0.4-2.7-1.7-3.1
				c-4.3-1.2-8.1-1.6-12.5-0.7c0.4,1.6,0.9,3.2,1.3,4.8c2.9-0.9,5.8-1.5,8.8-1.7C125.5,177.5,125.5,172.5,122.3,172.7L122.3,172.7z"
				/>
		</g>
	</g>
</g>
<g id="Слой_3">
	<path class="st5" d="M109.3,110.9c0,0,1.1-5.7,3.6-6.9c2.6-1.2,8-1.4,8.2-9.2c0.2-7.8,0-12.9,6.8-16c6.8-3.1,12.5-7.5,13.2-12.9
		c0.7-5.4,6.1-8.4,7.5-9.7c1.6-1.4,6.8-15.5-6.4-19.5c-12.6-3.8-25.6,1.2-31.9,16.2c-0.7,1.7-1.7,3.3-2.9,4.7
		c-2,2.3-5.1,5.7-8.4,7.7c-3.1,1.9-5.8,4.3-7.7,7.5c-2.6,4.4-4.5,10.6-0.9,17.1c6.8,12.2,5.9,10.6,5.4,14.6
		c-0.5,4-5.4,19.3-5.6,21.2s1.2,9.7,5.9,11.1c4.7,1.4,8.9,2.4,9.7,4c0.7,1.6,0.2,5.6,1.2,6.6c0.9,0.9,2.1,1.6,4.2,1.2
		c2.1-0.5,4-0.9,5.4,0.1c1.4,1,4.1,2.5,4.1,2.5"/>
	<path class="st5" d="M170.7,157.2c0,0,1.3,0.3,5.8-1.1c4.5-1.4,4.7,0,6.1,0s5.2-4.5,5.4-6.8s4-3.8,6.1-4c2.1-0.2,7.1-3.1,5.9-9.4
		c-1.2-6.4,3.8-19.1,3.8-19.1s4.5-18.1-1.4-29c-5.9-10.8-7.1-16.5-7.1-20s-0.2-24.7-19.3-34.1c0,0-15.3-7.3-31.8,3.8"/>
	<path class="st5" d="M149.3,55.5c0,0,9.8-1.2,14.9,1.5c0.5,0.3,6.4,0.9,8.8,16.2c2.4,15.3,5.6,17.9,11.3,21.2c0,0,2.6,3.3,2.6,8.9
		c0,5.6,1.9,7.3,1.9,7.3"/>
	<path class="st5" d="M114.6,114.2c0,0-8.9-9.2-13.2,2.1s12.2,16.9,12.2,16.9s3.5,16.3,8.9,19.6"/>
	<path class="st5" d="M147.1,171.2c0,0,4.7,1.8,11.5-3.1s15.8-14.3,17.9-17.9c2.3-3.8,8.7-20.2,8.7-20.2s1.4,1.9,3.5,0
		c2.1-1.9,8.1-8.5,7.5-13.7c-0.7-6.3-5.4-9.4-10.1-2.8"/>
	<path class="st5" d="M106.1,115.3c0,0,4.2,0.4,6.3,10.7"/>
	<path class="st5" d="M105.4,120c0.8,0,5.7,1.5,5.7,1.5"/>
	<path class="st5" d="M191.3,115.3c0,0-5,5.5-3.6,10.7"/>
	<path class="st5" d="M188,120.7c0,0,1.7-0.9,4.2-0.8"/>
	<path class="st5" d="M175.6,96.9c0,0-9.4-5.3-12.2-6c-3.8-0.9-7.1,0.6-4.7,3.4C161,97.2,175.6,96.9,175.6,96.9z"/>
	<path class="st5" d="M123.8,98c0,0,6.4-5.3,12.6-6.4c6.6-1.2,7.2,0.6,6.3,2.3C141.7,95.7,123.8,98,123.8,98z"/>
	<path class="st5" d="M141.7,100.1c0,0,4.2,3.8,4.7,6.9c0.5,3.1,0.1,10,0,11.9c-0.1,1.8-3.5,8.5-3.5,8.5s-1.7,3.1,3.5,3"/>
	<path class="st5" d="M157.1,125.3c0,0,3,2.8,2.2,5"/>
	<path class="st5" d="M151.3,148.5c0,0,6.9,0.5,13.3-4.4"/>
	<path class="st5" d="M158.4,113.4c0,0,7.1-11,16.8-2.5"/>
	<path class="st5" d="M122.6,113.4c0,0,7.8-11.1,18,0"/>
	<path class="st5" d="M102,210.2c0,0,2.7-8.5,2.8-11.8c0.2-3.3-1.4-12.1-1.4-14.1c0-2,10.4-23.1,10.4-23.1s3.5-6.9,6.2-7.7
		s5.1-1.4,5.1-1.4"/>
	<path class="st5" d="M115.6,167.4l14.9-24.3c0.8-1.3,1.7-2.4,2.7-3.5c3.2-3.4,9.9-10,9.7-4.9"/>
	<path class="st5" d="M125.7,167.4c0-0.6,16-30.6,16-30.6s4.7-9.2,7.4-5.9c0.6,0.7,0.7,1.8,0.3,2.7l-15.8,37.3"/>
	<path class="st5" d="M139.3,176.5l10.5-25.1l3-10.8c0.4-1.3,0.2-2.7-0.7-3.8c-0.9-1.2-2.4-1.8-4.6,1.1"/>
	<path class="st5" d="M121.1,221c0,0,3.8-7.8,4.6-8.8c0.8-0.9,4.4-4.1,5.6-6.1c0.5-0.8,2.7-5.2,5.2-10c3.6-7.2,7.8-15.5,7.8-15.5
		l4-13.2l2.8-13.9c0,0,0.5-6-0.5-4.8"/>
	<path class="st5" d="M170.7,157.2c0,0,0.1,16.2,0.9,18.2c0.8,2,3.2,5.8,3.2,5.8"/>
	<path class="st5" d="M136.5,196.1c0,0,6.7,2.6,13.3,2.7c7.1,0.1,12.5-1.8,16.8-4.1c5.1-2.7,14.2-12.9,15.3-14.9"/>
	<path class="st5" d="M152.2,130.2c0,0,2.4,0.3,3.6,1.6"/>
	<path class="st5" d="M220.7,282.5l-6.5-54.2c0,0,0.1-34.1-8.7-38.2c-8.8-4.1-33.8-14.7-33.8-14.7"/>
	<path class="st5" d="M104.5,181.2c0,0-24.6,5.6-26.5,10.7c-1.9,5-18.4,60.5-14.7,91.6"/>
	<path class="st5" d="M104.4,201.1c0,0-6.1,0.5-5.4,3.4c0.6,2.7,4.1,15,23.6,17.1c0,0,0.1,0,0.1,0c1.8,0.2,3.7-0.6,4.8-2
		c1.2-1.7,1.8-4.3-1.8-7.2"/>
	<line class="st5" x1="104.6" y1="282.5" x2="126.7" y2="220.4"/>
	<line class="st5" x1="71.3" y1="283.5" x2="99" y2="204.4"/>
	<ellipse cx="132" cy="113.2" rx="3.9" ry="4.8"/>
	<ellipse cx="167.2" cy="112.4" rx="3.9" ry="4.8"/>
	<path class="st5" d="M145.2,37.9c0,0-10.2,1-12.2,2.6c-1.7,1.3-1.3,3.6,0.9,3.4C136.1,43.6,145.2,37.9,145.2,37.9z"/>
	<path class="st5" d="M149.5,41.9c0,0-11.8,5.6-12.9,6.4c-0.9,0.7-2.5,3.9,0.2,3.6C139.5,51.7,149.5,41.9,149.5,41.9"/>
	<path class="st5" d="M145.8,37.9c0,0,11.2-2.5,14.7-1.1c1.6,0.6,1.7,1.5,1.4,2.3c-0.4,1.1-1.7,1.7-2.9,1.5L145.8,37.9z"/>
	<path class="st5" d="M149.5,41.9c0,0,10.4,1.4,12.4,3.4c2.1,2,0.1,3.8-3.3,2.7C155.2,46.8,149.5,41.9,149.5,41.9z"/>
	<line class="st5" x1="187.4" y1="235.6" x2="192.2" y2="282.5"/>
</g>
<g id="Слой_7">
	<g>
		<path class="st6" d="M122.9,136.8c0,0,0.2-0.9,0-1.3c0,0-0.1-0.1-0.1-0.1c-0.1-0.1-0.4-0.3-0.1-0.3c0.4,0,0.3,0,0.3,0h0
			c0,0-0.1,0,0.3,0c0.3,0,0.1,0.2-0.1,0.3c0,0-0.1,0.1-0.1,0.1c-0.2,0.4,0,1.3,0,1.3H122.9z"/>
		<path class="st6" d="M123.9,137c0,0,0.3-0.6,0.2-0.9c0,0,0-0.1,0-0.1c-0.1-0.1-0.2-0.3,0-0.2c0.3,0.1,0.2,0.1,0.2,0.1l0,0
			c0,0-0.1,0,0.2,0.1c0.2,0.1,0,0.2-0.1,0.2c0,0-0.1,0-0.1,0.1c-0.2,0.2-0.2,0.9-0.2,0.9L123.9,137z"/>
		<path class="st6" d="M120.9,137.5c0,0-0.5-1-0.9-1.3c-0.1,0-0.1-0.1-0.2-0.1c-0.2,0-0.6-0.1-0.3-0.3c0.4-0.2,0.2-0.2,0.2-0.2l0,0
			c0,0-0.1,0.1,0.2-0.2c0.3-0.2,0.2,0.2,0.2,0.4c0,0.1,0,0.1,0,0.2c0.1,0.5,0.9,1.3,0.9,1.3L120.9,137.5z"/>
		<path class="st6" d="M124.1,143.3c0,0,0.2,1.1,0.5,1.5c0,0.1,0.1,0.1,0.1,0.1c0.2,0.1,0.5,0.3,0.2,0.4c-0.4,0.1-0.3,0.1-0.3,0.1
			l0,0c0,0,0.1,0-0.3,0.1c-0.3,0.1-0.2-0.3-0.1-0.4c0-0.1,0-0.1,0-0.2c0-0.5-0.5-1.5-0.5-1.5L124.1,143.3z"/>
		<path class="st6" d="M125.4,142.5c0,0,0.6,0.9,1.1,1.2c0.1,0,0.1,0,0.2,0c0.2,0,0.6,0,0.3,0.3c-0.3,0.3-0.2,0.2-0.2,0.2l0,0
			c0,0,0.1-0.1-0.2,0.2c-0.2,0.2-0.3-0.2-0.2-0.3c0-0.1,0-0.1,0-0.2c-0.2-0.5-1.1-1.2-1.1-1.2L125.4,142.5z"/>
		<path class="st6" d="M120.9,142.6c0,0-0.9,0.7-1.1,1.2c0,0.1,0,0.1,0,0.2c0,0.2,0,0.6-0.2,0.3c-0.3-0.3-0.2-0.2-0.2-0.2l0,0
			c0,0,0.1,0.1-0.2-0.2c-0.3-0.2,0.2-0.3,0.3-0.3c0.1,0,0.1,0,0.2,0c0.5-0.2,1.1-1.2,1.1-1.2L120.9,142.6z"/>
		<path class="st6" d="M125.8,138.3c0,0,1-0.5,1.4-0.9c0-0.1,0.1-0.1,0.1-0.2c0-0.2,0.1-0.6,0.3-0.3c0.2,0.4,0.2,0.3,0.2,0.3l0,0
			c0,0-0.1-0.1,0.2,0.3c0.2,0.3-0.2,0.2-0.4,0.2c-0.1,0-0.1,0-0.2,0c-0.5,0.1-1.4,0.9-1.4,0.9L125.8,138.3z"/>
		<path class="st6" d="M124.6,137.4c0,0,0.7-1,0.8-1.5c0-0.1,0-0.1,0-0.2c-0.1-0.2-0.2-0.6,0.1-0.4c0.4,0.2,0.3,0.1,0.3,0.1l0,0
			c0,0-0.1-0.1,0.3,0.1c0.3,0.2-0.1,0.3-0.3,0.4c-0.1,0-0.1,0-0.2,0.1c-0.4,0.4-0.8,1.5-0.8,1.5L124.6,137.4z"/>
		<path class="st6" d="M120.1,138.6c0,0-0.6-0.6-1-0.7c-0.1,0-0.1,0-0.2,0c-0.1,0-0.5,0.1-0.3-0.1c0.3-0.3,0.2-0.2,0.2-0.2l0,0
			c0,0-0.1,0.1,0.2-0.2c0.2-0.3,0.2,0.1,0.2,0.2c0,0.1,0,0.1,0,0.1c0.2,0.4,1,0.7,1,0.7L120.1,138.6z"/>
		<path class="st6" d="M122,137c0,0-0.4-0.5-0.3-0.8c0,0,0-0.1,0-0.1c0.1-0.1,0.2-0.3-0.1-0.2c-0.3,0.1-0.2,0.1-0.2,0.1l0,0
			c0,0,0.1,0-0.2,0.1c-0.2,0.1,0,0.2,0.1,0.2c0,0,0.1,0,0.1,0.1c0.2,0.2,0.4,0.8,0.4,0.8L122,137z"/>
		<path class="st6" d="M120.7,137.8c0,0-0.5-0.4-0.6-0.7c0,0,0-0.1,0-0.1c0-0.1,0.1-0.4-0.1-0.2c-0.2,0.2-0.2,0.1-0.2,0.1l0,0
			c0,0,0.1-0.1-0.2,0.1c-0.2,0.2,0.1,0.2,0.2,0.1c0,0,0.1,0,0.1,0c0.3,0.1,0.6,0.7,0.6,0.7L120.7,137.8z"/>
		<path class="st6" d="M126.3,139.3c0,0,0.6-0.3,0.9-0.3c0,0,0.1,0,0.1,0c0.1,0.1,0.3,0.2,0.2,0c-0.1-0.3-0.1-0.2-0.1-0.2l0,0
			c0,0,0,0.1-0.1-0.2c-0.1-0.2-0.2,0-0.2,0.1c0,0,0,0.1-0.1,0.1c-0.2,0.2-0.9,0.3-0.9,0.3L126.3,139.3z"/>
		<path class="st6" d="M126,141.6c0,0,0.6,0.2,0.8,0.4c0,0,0,0.1,0,0.1c0,0.1,0.1,0.4,0.2,0.1c0.1-0.3,0.1-0.2,0.1-0.2l0,0
			c0,0,0,0.1,0.1-0.2c0.1-0.2-0.1-0.1-0.2-0.1c0,0-0.1,0-0.1,0c-0.3,0-0.8-0.4-0.8-0.4L126,141.6z"/>
		<path class="st6" d="M120.1,141.5c0,0-0.9,0.2-1.1,0.5c0,0-0.1,0.1-0.1,0.1c0,0.1-0.1,0.5-0.3,0.2c-0.2-0.4-0.1-0.3-0.1-0.3l0,0
			c0,0,0.1,0.1-0.1-0.3c-0.2-0.3,0.2-0.2,0.3-0.1c0,0,0.1,0,0.1,0c0.4,0,1.1-0.5,1.1-0.5L120.1,141.5z"/>
		<path class="st6" d="M122.2,143.3c0,0-0.4,0.8-0.3,1.2c0,0.1,0,0.1,0.1,0.1c0.1,0.1,0.3,0.4,0,0.3c-0.4-0.1-0.3-0.1-0.3-0.1l0,0
			c0,0,0.1,0-0.3-0.1c-0.3-0.1,0-0.2,0.1-0.3c0,0,0.1,0,0.1-0.1c0.3-0.3,0.3-1.2,0.3-1.2L122.2,143.3z"/>
		<path class="st6" d="M119.7,140.2c0,0-0.8,0.1-1.1,0c0,0-0.1-0.1-0.1-0.1c-0.1-0.1-0.3-0.4-0.3-0.1c0,0.4,0,0.3,0,0.3l0,0
			c0,0,0-0.1,0,0.3c0,0.3,0.2,0.1,0.3,0c0,0,0.1-0.1,0.1-0.1c0.4-0.2,1.1,0,1.1,0L119.7,140.2z"/>
		<path class="st6" d="M126.4,140.1c0,0,0.6-0.2,0.9,0c0,0,0.1,0,0.1,0.1c0.1,0.1,0.3,0.3,0.2,0c0-0.3,0-0.2,0-0.2l0,0
			c0,0,0,0.1,0-0.2c0-0.3-0.2,0-0.2,0.1c0,0-0.1,0.1-0.1,0.1c-0.3,0.1-0.9,0-0.9,0L126.4,140.1z"/>
		<path class="st6" d="M123,143.5c0,0,0.1,0.6,0,0.9c0,0,0,0.1-0.1,0.1c-0.1,0.1-0.3,0.2,0,0.2c0.3,0,0.2,0,0.2,0l0,0
			c0,0-0.1,0,0.2,0c0.3,0,0-0.2,0-0.2c0,0-0.1,0-0.1-0.1c-0.1-0.3,0-0.9,0-0.9L123,143.5z"/>
		<path class="st6" d="M121.3,143c0,0-0.2,0.6-0.4,0.8c0,0-0.1,0-0.1,0c-0.1,0-0.4,0.1-0.1,0.2c0.3,0.1,0.2,0.1,0.2,0.1l0,0
			c0,0-0.1,0,0.2,0.1c0.2,0.1,0.1-0.1,0.1-0.2c0,0,0-0.1,0-0.1c0-0.3,0.4-0.8,0.4-0.8L121.3,143z"/>
		<path class="st6" d="M124.5,143.1c0,0,0.4,0.5,0.4,0.8c0,0,0,0.1,0,0.1c0,0.1-0.1,0.3,0.1,0.2c0.3-0.1,0.2-0.1,0.2-0.1l0,0
			c0,0-0.1,0,0.2-0.1c0.2-0.1,0-0.2-0.1-0.2c0,0-0.1,0-0.1,0c-0.2-0.2-0.4-0.8-0.4-0.8L124.5,143.1z"/>
		<circle class="st7" cx="123.1" cy="140.2" r="3.4"/>
		<circle class="st8" cx="124.2" cy="138.6" r="0.5"/>
		
			<ellipse transform="matrix(0.9049 -0.4257 0.4257 0.9049 -47.8199 65.5724)" class="st8" cx="122.8" cy="139.8" rx="0.2" ry="0.3"/>
		<circle class="st9" cx="125.4" cy="139.6" r="0.4"/>
		<ellipse class="st8" cx="123.4" cy="140.6" rx="0.2" ry="0.2"/>
		<circle class="st8" cx="121.7" cy="139.2" r="0.4"/>
		<circle class="st9" cx="122.8" cy="137.8" r="0.3"/>
		<ellipse class="st8" cx="124.8" cy="141.7" rx="0.3" ry="0.4"/>
		<ellipse class="st8" cx="125.7" cy="140.8" rx="0.2" ry="0.3"/>
		<circle class="st9" cx="121.2" cy="141.2" r="0.4"/>
		<circle class="st8" cx="122.4" cy="142.4" r="0.2"/>
		<circle class="st9" cx="120.8" cy="138.3" r="0.2"/>
		<ellipse class="st8" cx="120.5" cy="140" rx="0.3" ry="0.4"/>
		<ellipse class="st8" cx="124.1" cy="137.5" rx="0.2" ry="0.3"/>
		<circle class="st9" cx="123.4" cy="142.7" r="0.3"/>
	</g>
	<g>
		<path class="st10" d="M113.9,153.4c0,0,0.2-1.1,0-1.6c0-0.1-0.1-0.1-0.1-0.2c-0.2-0.1-0.5-0.4-0.1-0.4c0.6,0,0.4,0,0.4,0h0
			c0,0-0.2,0,0.4,0c0.4,0,0.1,0.3-0.1,0.4c-0.1,0-0.1,0.1-0.1,0.2c-0.2,0.5,0,1.6,0,1.6H113.9z"/>
		<path class="st10" d="M115.2,153.5c0,0,0.4-0.7,0.3-1.1c0,0,0-0.1-0.1-0.1c-0.1-0.1-0.3-0.4,0-0.3c0.4,0.1,0.3,0.1,0.3,0.1l0,0
			c0,0-0.1,0,0.3,0.1c0.3,0.1,0,0.2-0.1,0.3c0,0-0.1,0-0.1,0.1c-0.3,0.3-0.3,1.1-0.3,1.1L115.2,153.5z"/>
		<path class="st10" d="M111.4,154.3c0,0-0.7-1.3-1.2-1.7c-0.1,0-0.1-0.1-0.2-0.1c-0.2,0-0.7-0.1-0.4-0.4c0.5-0.3,0.3-0.2,0.3-0.2
			l0,0c0,0-0.1,0.1,0.3-0.2c0.4-0.3,0.3,0.3,0.3,0.5c0,0.1,0,0.2,0,0.2c0.2,0.7,1.2,1.7,1.2,1.7L111.4,154.3z"/>
		<path class="st10" d="M115.4,161.8c0,0,0.2,1.4,0.7,2c0.1,0.1,0.1,0.1,0.2,0.1c0.2,0.1,0.7,0.3,0.2,0.5c-0.5,0.2-0.4,0.1-0.4,0.1
			l0,0c0,0,0.2-0.1-0.4,0.1c-0.4,0.1-0.2-0.3-0.1-0.5c0-0.1,0.1-0.1,0.1-0.2c0-0.7-0.7-2-0.7-2L115.4,161.8z"/>
		<path class="st10" d="M117.1,160.7c0,0,0.8,1.2,1.4,1.5c0.1,0,0.2,0.1,0.2,0.1c0.2,0,0.8,0,0.4,0.3c-0.4,0.4-0.3,0.3-0.3,0.3l0,0
			c0,0,0.1-0.1-0.3,0.3c-0.3,0.3-0.3-0.2-0.3-0.4c0-0.1,0-0.2,0-0.2c-0.3-0.6-1.4-1.5-1.4-1.5L117.1,160.7z"/>
		<path class="st10" d="M111.4,160.9c0,0-1.2,0.9-1.4,1.5c0,0.1,0,0.2,0,0.2c0,0.2,0,0.8-0.3,0.4c-0.4-0.4-0.3-0.3-0.3-0.3l0,0
			c0,0,0.1,0.1-0.3-0.3c-0.3-0.3,0.2-0.3,0.4-0.3c0.1,0,0.2,0,0.2-0.1c0.6-0.3,1.5-1.5,1.5-1.5L111.4,160.9z"/>
		<path class="st10" d="M117.6,155.3c0,0,1.3-0.6,1.8-1.1c0.1-0.1,0.1-0.1,0.1-0.2c0-0.2,0.2-0.7,0.4-0.3c0.3,0.5,0.2,0.3,0.2,0.3
			l0,0c0,0-0.1-0.1,0.2,0.3c0.2,0.4-0.3,0.3-0.5,0.2c-0.1,0-0.2,0-0.2,0c-0.7,0.1-1.8,1.1-1.8,1.1L117.6,155.3z"/>
		<path class="st10" d="M116.1,154.1c0,0,0.9-1.2,1-1.9c0-0.1,0-0.2,0-0.2c-0.1-0.2-0.2-0.8,0.2-0.5c0.5,0.3,0.4,0.2,0.4,0.2l0,0
			c0,0-0.2-0.1,0.4,0.2c0.4,0.2-0.1,0.4-0.3,0.5c-0.1,0-0.1,0.1-0.2,0.1c-0.5,0.5-1,1.9-1,1.9L116.1,154.1z"/>
		<path class="st10" d="M110.3,155.7c0,0-0.8-0.8-1.3-0.9c-0.1,0-0.1,0-0.2,0c-0.2,0.1-0.6,0.2-0.4-0.2c0.3-0.5,0.2-0.3,0.2-0.3l0,0
			c0,0-0.1,0.1,0.2-0.3c0.3-0.4,0.3,0.1,0.3,0.3c0,0.1,0,0.1,0.1,0.2c0.3,0.5,1.3,0.9,1.3,0.9L110.3,155.7z"/>
		<path class="st10" d="M112.8,153.6c0,0-0.5-0.7-0.4-1.1c0,0,0-0.1,0-0.1c0.1-0.1,0.2-0.4-0.1-0.3c-0.4,0.2-0.3,0.1-0.3,0.1l0,0
			c0,0,0.1,0-0.3,0.1c-0.3,0.1,0,0.2,0.2,0.3c0,0,0.1,0,0.1,0.1c0.3,0.3,0.5,1.1,0.5,1.1L112.8,153.6z"/>
		<path class="st10" d="M111.1,154.6c0,0-0.7-0.5-0.8-0.9c0,0,0-0.1,0-0.1c0-0.1,0.1-0.5-0.2-0.3c-0.3,0.3-0.2,0.2-0.2,0.2l0,0
			c0,0,0.1-0.1-0.2,0.2c-0.2,0.2,0.1,0.2,0.2,0.2c0,0,0.1,0,0.1,0c0.4,0.2,0.8,0.9,0.8,0.9L111.1,154.6z"/>
		<path class="st10" d="M118.3,156.6c0,0,0.7-0.4,1.1-0.4c0,0,0.1,0,0.1,0.1c0.1,0.1,0.4,0.3,0.3-0.1c-0.1-0.4-0.1-0.3-0.1-0.3l0,0
			c0,0,0,0.1-0.1-0.3c-0.1-0.3-0.2,0-0.3,0.2c0,0,0,0.1-0.1,0.1c-0.3,0.3-1.1,0.4-1.1,0.4L118.3,156.6z"/>
		<path class="st10" d="M118,159.6c0,0,0.8,0.3,1,0.6c0,0,0,0.1,0.1,0.1c0,0.1,0.1,0.5,0.2,0.2c0.2-0.4,0.1-0.2,0.1-0.2l0,0
			c0,0-0.1,0.1,0.1-0.2c0.2-0.3-0.2-0.2-0.3-0.1c0,0-0.1,0-0.1,0c-0.4,0-1-0.6-1-0.6L118,159.6z"/>
		<path class="st10" d="M110.3,159.4c0,0-1.1,0.3-1.5,0.7c0,0.1-0.1,0.1-0.1,0.2c0,0.2-0.2,0.7-0.3,0.2c-0.2-0.5-0.2-0.4-0.2-0.4
			l0,0c0,0,0.1,0.1-0.2-0.4c-0.2-0.4,0.2-0.2,0.4-0.1c0.1,0,0.1,0.1,0.2,0.1c0.5,0,1.5-0.7,1.5-0.7L110.3,159.4z"/>
		<path class="st10" d="M113,161.8c0,0-0.5,1-0.4,1.6c0,0.1,0,0.1,0.1,0.2c0.1,0.2,0.4,0.5,0,0.4c-0.5-0.1-0.4-0.1-0.4-0.1l0,0
			c0,0,0.2,0-0.4-0.1c-0.4-0.1,0-0.3,0.2-0.4c0.1,0,0.1-0.1,0.2-0.1c0.3-0.4,0.4-1.6,0.4-1.6L113,161.8z"/>
		<path class="st10" d="M109.8,157.7c0,0-1,0.2-1.5,0c-0.1,0-0.1-0.1-0.1-0.1c-0.1-0.1-0.4-0.5-0.4-0.1c0,0.5,0,0.4,0,0.4l0,0
			c0,0,0-0.2,0,0.4c0,0.4,0.3,0.1,0.4-0.1c0,0,0.1-0.1,0.1-0.1c0.5-0.2,1.5,0,1.5,0L109.8,157.7z"/>
		<path class="st10" d="M118.4,157.6c0,0,0.8-0.2,1.2,0c0,0,0.1,0.1,0.1,0.1c0.1,0.1,0.3,0.4,0.3,0c0-0.4,0-0.3,0-0.3l0,0
			c0,0,0,0.1,0-0.3c0-0.3-0.2-0.1-0.3,0.1c0,0-0.1,0.1-0.1,0.1c-0.4,0.2-1.2,0.1-1.2,0.1L118.4,157.6z"/>
		<path class="st10" d="M114.1,162c0,0,0.2,0.8,0,1.2c0,0-0.1,0.1-0.1,0.1c-0.1,0.1-0.4,0.3,0,0.3c0.4,0,0.3,0,0.3,0l0,0
			c0,0-0.1,0,0.3,0c0.3,0,0.1-0.2-0.1-0.3c0,0-0.1-0.1-0.1-0.1c-0.2-0.4,0-1.2,0-1.2L114.1,162z"/>
		<path class="st10" d="M111.8,161.4c0,0-0.2,0.8-0.5,1.1c0,0-0.1,0-0.1,0.1c-0.1,0-0.5,0.1-0.2,0.2c0.4,0.2,0.3,0.1,0.3,0.1l0,0
			c0,0-0.1-0.1,0.3,0.1c0.3,0.1,0.2-0.2,0.1-0.3c0,0,0-0.1,0-0.1c0-0.4,0.5-1.1,0.5-1.1L111.8,161.4z"/>
		<path class="st10" d="M116,161.6c0,0,0.5,0.7,0.5,1c0,0,0,0.1,0,0.1c-0.1,0.1-0.2,0.4,0.1,0.3c0.4-0.2,0.3-0.1,0.3-0.1l0,0
			c0,0-0.1,0.1,0.3-0.1c0.3-0.1,0-0.2-0.2-0.2c0,0-0.1,0-0.1-0.1c-0.3-0.2-0.5-1-0.5-1L116,161.6z"/>
		<circle class="st11" cx="114.1" cy="157.7" r="4.4"/>
		<circle class="st12" cx="115.6" cy="155.7" r="0.6"/>
		
			<ellipse transform="matrix(0.9049 -0.4257 0.4257 0.9049 -56.0953 63.3897)" class="st12" cx="113.8" cy="157.2" rx="0.3" ry="0.4"/>
		<circle class="st13" cx="117.2" cy="157" r="0.6"/>
		<ellipse class="st12" cx="114.6" cy="158.3" rx="0.2" ry="0.3"/>
		<circle class="st12" cx="112.4" cy="156.4" r="0.5"/>
		<circle class="st13" cx="113.8" cy="154.7" r="0.4"/>
		<ellipse class="st12" cx="116.4" cy="159.7" rx="0.4" ry="0.5"/>
		<ellipse class="st12" cx="117.5" cy="158.5" rx="0.3" ry="0.3"/>
		<circle class="st13" cx="111.6" cy="159.1" r="0.6"/>
		<circle class="st12" cx="113.3" cy="160.5" r="0.2"/>
		<circle class="st13" cx="111.2" cy="155.3" r="0.2"/>
		<ellipse class="st12" cx="110.8" cy="157.5" rx="0.4" ry="0.5"/>
		<ellipse class="st12" cx="115.4" cy="154.3" rx="0.3" ry="0.4"/>
		<circle class="st13" cx="114.6" cy="161" r="0.4"/>
	</g>
	<g>
		<path class="st6" d="M151.5,139.4c0,0,0.2-0.9,0-1.3c0,0-0.1-0.1-0.1-0.1c-0.1-0.1-0.4-0.3-0.1-0.3c0.4,0,0.3,0,0.3,0h0
			c0,0-0.1,0,0.3,0c0.3,0,0.1,0.2-0.1,0.3c0,0-0.1,0.1-0.1,0.1c-0.2,0.4,0,1.3,0,1.3H151.5z"/>
		<path class="st6" d="M152.5,139.5c0,0,0.3-0.6,0.2-0.9c0,0,0-0.1,0-0.1c-0.1-0.1-0.2-0.3,0-0.2c0.3,0.1,0.2,0.1,0.2,0.1l0,0
			c0,0-0.1,0,0.2,0.1c0.2,0.1,0,0.2-0.1,0.2c0,0-0.1,0-0.1,0.1c-0.2,0.2-0.2,0.9-0.2,0.9L152.5,139.5z"/>
		<path class="st6" d="M149.6,140c0,0-0.5-1-0.9-1.3c-0.1,0-0.1-0.1-0.2-0.1c-0.2,0-0.6-0.1-0.3-0.3c0.4-0.2,0.2-0.2,0.2-0.2l0,0
			c0,0-0.1,0.1,0.2-0.2c0.3-0.2,0.2,0.2,0.2,0.4c0,0.1,0,0.1,0,0.2c0.1,0.5,0.9,1.3,0.9,1.3L149.6,140z"/>
		<path class="st6" d="M152.7,145.8c0,0,0.2,1.1,0.5,1.5c0,0.1,0.1,0.1,0.1,0.1c0.2,0.1,0.5,0.3,0.2,0.4c-0.4,0.1-0.3,0.1-0.3,0.1
			l0,0c0,0,0.1,0-0.3,0.1c-0.3,0.1-0.2-0.3-0.1-0.4c0-0.1,0-0.1,0-0.2c0-0.5-0.5-1.5-0.5-1.5L152.7,145.8z"/>
		<path class="st6" d="M154,145c0,0,0.6,0.9,1.1,1.2c0.1,0,0.1,0,0.2,0c0.2,0,0.6,0,0.3,0.3c-0.3,0.3-0.2,0.2-0.2,0.2l0,0
			c0,0,0.1-0.1-0.2,0.2c-0.2,0.2-0.3-0.2-0.2-0.3c0-0.1,0-0.1,0-0.2c-0.2-0.5-1.1-1.2-1.1-1.2L154,145z"/>
		<path class="st6" d="M149.6,145.1c0,0-0.9,0.7-1.1,1.2c0,0.1,0,0.1,0,0.2c0,0.2,0,0.6-0.2,0.3c-0.3-0.3-0.2-0.2-0.2-0.2l0,0
			c0,0,0.1,0.1-0.2-0.2c-0.3-0.2,0.2-0.3,0.3-0.3c0.1,0,0.1,0,0.2,0c0.5-0.2,1.1-1.2,1.1-1.2L149.6,145.1z"/>
		<path class="st6" d="M154.4,140.8c0,0,1-0.5,1.4-0.9c0-0.1,0.1-0.1,0.1-0.2c0-0.2,0.1-0.6,0.3-0.3c0.2,0.4,0.2,0.3,0.2,0.3l0,0
			c0,0-0.1-0.1,0.2,0.3c0.2,0.3-0.2,0.2-0.4,0.2c-0.1,0-0.1,0-0.2,0c-0.5,0.1-1.4,0.9-1.4,0.9L154.4,140.8z"/>
		<path class="st6" d="M153.3,139.9c0,0,0.7-1,0.8-1.5c0-0.1,0-0.1,0-0.2c-0.1-0.2-0.2-0.6,0.1-0.4c0.4,0.2,0.3,0.1,0.3,0.1l0,0
			c0,0-0.1-0.1,0.3,0.1c0.3,0.2-0.1,0.3-0.3,0.4c-0.1,0-0.1,0-0.2,0.1c-0.4,0.4-0.8,1.5-0.8,1.5L153.3,139.9z"/>
		<path class="st6" d="M148.8,141.2c0,0-0.6-0.6-1-0.7c-0.1,0-0.1,0-0.2,0c-0.1,0-0.5,0.1-0.3-0.1c0.3-0.3,0.2-0.2,0.2-0.2l0,0
			c0,0-0.1,0.1,0.2-0.2c0.2-0.3,0.2,0.1,0.2,0.2c0,0.1,0,0.1,0,0.1c0.2,0.4,1,0.7,1,0.7L148.8,141.2z"/>
		<path class="st6" d="M150.7,139.5c0,0-0.4-0.5-0.3-0.8c0,0,0-0.1,0-0.1c0.1-0.1,0.2-0.3-0.1-0.2c-0.3,0.1-0.2,0.1-0.2,0.1l0,0
			c0,0,0.1,0-0.2,0.1c-0.2,0.1,0,0.2,0.1,0.2c0,0,0.1,0,0.1,0.1c0.2,0.2,0.4,0.8,0.4,0.8L150.7,139.5z"/>
		<path class="st6" d="M149.4,140.3c0,0-0.5-0.4-0.6-0.7c0,0,0-0.1,0-0.1c0-0.1,0.1-0.4-0.1-0.2c-0.2,0.2-0.2,0.1-0.2,0.1l0,0
			c0,0,0.1-0.1-0.2,0.1c-0.2,0.2,0.1,0.2,0.2,0.1c0,0,0.1,0,0.1,0c0.3,0.1,0.6,0.7,0.6,0.7L149.4,140.3z"/>
		<path class="st6" d="M155,141.8c0,0,0.6-0.3,0.9-0.3c0,0,0.1,0,0.1,0c0.1,0.1,0.3,0.2,0.2,0c-0.1-0.3-0.1-0.2-0.1-0.2l0,0
			c0,0,0,0.1-0.1-0.2c-0.1-0.2-0.2,0-0.2,0.1c0,0,0,0.1-0.1,0.1c-0.2,0.2-0.9,0.3-0.9,0.3L155,141.8z"/>
		<path class="st6" d="M154.7,144.2c0,0,0.6,0.2,0.8,0.4c0,0,0,0.1,0,0.1c0,0.1,0.1,0.4,0.2,0.1c0.1-0.3,0.1-0.2,0.1-0.2l0,0
			c0,0,0,0.1,0.1-0.2c0.1-0.2-0.1-0.1-0.2-0.1c0,0-0.1,0-0.1,0c-0.3,0-0.8-0.4-0.8-0.4L154.7,144.2z"/>
		<path class="st6" d="M148.7,144c0,0-0.9,0.2-1.1,0.5c0,0-0.1,0.1-0.1,0.1c0,0.1-0.1,0.5-0.3,0.2c-0.2-0.4-0.1-0.3-0.1-0.3l0,0
			c0,0,0.1,0.1-0.1-0.3c-0.2-0.3,0.2-0.2,0.3-0.1c0,0,0.1,0,0.1,0c0.4,0,1.1-0.5,1.1-0.5L148.7,144z"/>
		<path class="st6" d="M150.9,145.8c0,0-0.4,0.8-0.3,1.2c0,0.1,0,0.1,0.1,0.1c0.1,0.1,0.3,0.4,0,0.3c-0.4-0.1-0.3-0.1-0.3-0.1l0,0
			c0,0,0.1,0-0.3-0.1c-0.3-0.1,0-0.2,0.1-0.3c0,0,0.1,0,0.1-0.1c0.3-0.3,0.3-1.2,0.3-1.2L150.9,145.8z"/>
		<path class="st6" d="M148.4,142.7c0,0-0.8,0.1-1.1,0c0,0-0.1-0.1-0.1-0.1c-0.1-0.1-0.3-0.4-0.3-0.1c0,0.4,0,0.3,0,0.3l0,0
			c0,0,0-0.1,0,0.3c0,0.3,0.2,0.1,0.3,0c0,0,0.1-0.1,0.1-0.1c0.4-0.2,1.1,0,1.1,0L148.4,142.7z"/>
		<path class="st6" d="M155,142.6c0,0,0.6-0.2,0.9,0c0,0,0.1,0,0.1,0.1c0.1,0.1,0.3,0.3,0.2,0c0-0.3,0-0.2,0-0.2l0,0
			c0,0,0,0.1,0-0.2c0-0.3-0.2,0-0.2,0.1c0,0-0.1,0.1-0.1,0.1c-0.3,0.1-0.9,0-0.9,0L155,142.6z"/>
		<path class="st6" d="M151.7,146c0,0,0.1,0.6,0,0.9c0,0,0,0.1-0.1,0.1c-0.1,0.1-0.3,0.2,0,0.2c0.3,0,0.2,0,0.2,0l0,0
			c0,0-0.1,0,0.2,0c0.3,0,0-0.2,0-0.2c0,0-0.1,0-0.1-0.1c-0.1-0.3,0-0.9,0-0.9L151.7,146z"/>
		<path class="st6" d="M150,145.5c0,0-0.2,0.6-0.4,0.8c0,0-0.1,0-0.1,0c-0.1,0-0.4,0.1-0.1,0.2c0.3,0.1,0.2,0.1,0.2,0.1l0,0
			c0,0-0.1,0,0.2,0.1c0.2,0.1,0.1-0.1,0.1-0.2c0,0,0-0.1,0-0.1c0-0.3,0.4-0.8,0.4-0.8L150,145.5z"/>
		<path class="st6" d="M153.2,145.7c0,0,0.4,0.5,0.4,0.8c0,0,0,0.1,0,0.1c0,0.1-0.1,0.3,0.1,0.2c0.3-0.1,0.2-0.1,0.2-0.1l0,0
			c0,0-0.1,0,0.2-0.1c0.2-0.1,0-0.2-0.1-0.2c0,0-0.1,0-0.1,0c-0.2-0.2-0.4-0.8-0.4-0.8L153.2,145.7z"/>
		<circle class="st7" cx="151.7" cy="142.7" r="3.4"/>
		<circle class="st8" cx="152.8" cy="141.2" r="0.5"/>
		
			<ellipse transform="matrix(0.9049 -0.4257 0.4257 0.9049 -46.1665 78.0063)" class="st8" cx="151.4" cy="142.3" rx="0.2" ry="0.3"/>
		<circle class="st9" cx="154.1" cy="142.2" r="0.4"/>
		<ellipse class="st8" cx="152.1" cy="143.2" rx="0.2" ry="0.2"/>
		<circle class="st8" cx="150.4" cy="141.7" r="0.4"/>
		<circle class="st9" cx="151.5" cy="140.3" r="0.3"/>
		<ellipse class="st8" cx="153.5" cy="144.2" rx="0.3" ry="0.4"/>
		<ellipse class="st8" cx="154.3" cy="143.3" rx="0.2" ry="0.3"/>
		<circle class="st9" cx="149.8" cy="143.7" r="0.4"/>
		<circle class="st8" cx="151.1" cy="144.9" r="0.2"/>
		<circle class="st9" cx="149.4" cy="140.8" r="0.2"/>
		<ellipse class="st8" cx="149.1" cy="142.5" rx="0.3" ry="0.4"/>
		<ellipse class="st8" cx="152.7" cy="140" rx="0.2" ry="0.3"/>
		<circle class="st9" cx="152.1" cy="145.2" r="0.3"/>
	</g>
	<g>
		<path class="st14" d="M138.7,169.4c0,0,0.3-1.7,0-2.4c0-0.1-0.1-0.2-0.2-0.2c-0.2-0.2-0.8-0.6-0.1-0.6c0.8,0,0.6,0,0.6,0h0
			c0,0-0.3,0,0.6,0c0.7,0,0.1,0.5-0.1,0.6c-0.1,0.1-0.2,0.1-0.2,0.2c-0.3,0.7,0,2.4,0,2.4H138.7z"/>
		<path class="st14" d="M140.7,169.6c0,0,0.6-1.1,0.5-1.7c0-0.1,0-0.1-0.1-0.2c-0.1-0.2-0.4-0.6,0-0.5c0.6,0.2,0.4,0.1,0.4,0.1l0,0
			c0,0-0.2,0,0.4,0.1c0.5,0.1,0,0.3-0.2,0.4c-0.1,0-0.1,0.1-0.2,0.1c-0.4,0.5-0.5,1.7-0.5,1.7L140.7,169.6z"/>
		<path class="st14" d="M134.9,170.8c0,0-1-2-1.8-2.6c-0.1-0.1-0.2-0.1-0.3-0.1c-0.3,0-1.1-0.2-0.6-0.6c0.7-0.5,0.5-0.3,0.5-0.3l0,0
			c0,0-0.2,0.2,0.5-0.3c0.5-0.4,0.4,0.4,0.4,0.7c0,0.1,0,0.2,0,0.4c0.3,1,1.8,2.6,1.8,2.6L134.9,170.8z"/>
		<path class="st14" d="M141,182.1c0,0,0.4,2.2,1,3c0.1,0.1,0.2,0.2,0.3,0.2c0.3,0.1,1,0.5,0.4,0.7c-0.8,0.3-0.6,0.2-0.6,0.2l0,0
			c0,0,0.2-0.1-0.6,0.2c-0.6,0.2-0.3-0.5-0.2-0.8c0.1-0.1,0.1-0.2,0.1-0.3c0-1-1-3-1-3L141,182.1z"/>
		<path class="st14" d="M143.6,180.4c0,0,1.3,1.8,2.2,2.3c0.1,0.1,0.2,0.1,0.3,0.1c0.3,0,1.1,0,0.6,0.5c-0.6,0.6-0.4,0.4-0.4,0.4
			l0,0c0,0,0.2-0.2-0.4,0.4c-0.5,0.5-0.5-0.3-0.5-0.7c0-0.1,0-0.2-0.1-0.3c-0.4-0.9-2.2-2.3-2.2-2.3L143.6,180.4z"/>
		<path class="st14" d="M134.9,180.7c0,0-1.8,1.3-2.2,2.3c-0.1,0.1-0.1,0.2-0.1,0.3c0,0.3,0,1.1-0.5,0.7c-0.6-0.6-0.4-0.4-0.4-0.4
			l0,0c0,0,0.2,0.2-0.4-0.4c-0.5-0.5,0.3-0.5,0.6-0.5c0.1,0,0.2,0,0.3-0.1c0.9-0.4,2.2-2.3,2.2-2.3L134.9,180.7z"/>
		<path class="st14" d="M144.4,172.3c0,0,2-0.9,2.6-1.7c0.1-0.1,0.1-0.2,0.1-0.3c0.1-0.3,0.3-1.1,0.6-0.5c0.4,0.7,0.3,0.5,0.3,0.5
			l0,0c0,0-0.1-0.2,0.3,0.5c0.4,0.6-0.4,0.4-0.7,0.3c-0.1,0-0.2,0-0.4,0c-1,0.2-2.7,1.7-2.7,1.7L144.4,172.3z"/>
		<path class="st14" d="M142.1,170.4c0,0,1.4-1.9,1.5-2.9c0-0.1,0-0.3,0-0.4c-0.1-0.3-0.3-1.1,0.3-0.8c0.8,0.4,0.5,0.3,0.5,0.3l0,0
			c0,0-0.2-0.1,0.5,0.3c0.6,0.3-0.2,0.6-0.5,0.7c-0.1,0-0.2,0.1-0.3,0.2c-0.8,0.7-1.5,2.9-1.5,2.9L142.1,170.4z"/>
		<path class="st14" d="M133.4,172.9c0,0-1.2-1.3-2-1.4c-0.1,0-0.2,0-0.3,0c-0.3,0.1-1,0.3-0.6-0.3c0.5-0.7,0.3-0.5,0.3-0.5l0,0
			c0,0-0.1,0.2,0.3-0.5c0.4-0.6,0.4,0.2,0.5,0.5c0,0.1,0,0.2,0.1,0.3c0.4,0.7,2,1.4,2,1.4L133.4,172.9z"/>
		<path class="st14" d="M137.1,169.7c0,0-0.7-1-0.7-1.6c0-0.1,0-0.1,0.1-0.2c0.1-0.2,0.4-0.6-0.1-0.5c-0.6,0.2-0.4,0.2-0.4,0.2l0,0
			c0,0,0.2-0.1-0.4,0.2c-0.5,0.2,0,0.3,0.2,0.4c0.1,0,0.1,0.1,0.2,0.1c0.4,0.4,0.7,1.6,0.7,1.6L137.1,169.7z"/>
		<path class="st14" d="M134.5,171.2c0,0-1-0.8-1.2-1.3c0-0.1,0-0.1,0-0.2c0-0.2,0.1-0.7-0.2-0.4c-0.4,0.4-0.3,0.3-0.3,0.3l0,0
			c0,0,0.1-0.1-0.3,0.3c-0.4,0.3,0.1,0.3,0.4,0.3c0.1,0,0.1,0,0.2,0c0.6,0.2,1.2,1.3,1.2,1.3L134.5,171.2z"/>
		<path class="st14" d="M145.5,174.2c0,0,1.1-0.6,1.7-0.6c0.1,0,0.1,0,0.2,0.1c0.2,0.1,0.6,0.4,0.5-0.1c-0.2-0.6-0.1-0.4-0.1-0.4
			l0,0c0,0,0.1,0.2-0.1-0.4c-0.2-0.5-0.3,0-0.4,0.2c0,0.1-0.1,0.1-0.1,0.2c-0.4,0.4-1.7,0.6-1.7,0.6L145.5,174.2z"/>
		<path class="st14" d="M144.9,178.8c0,0,1.2,0.4,1.6,0.9c0,0.1,0.1,0.1,0.1,0.2c0,0.2,0.1,0.7,0.4,0.3c0.3-0.5,0.2-0.4,0.2-0.4l0,0
			c0,0-0.1,0.2,0.2-0.4c0.2-0.4-0.2-0.2-0.4-0.2c-0.1,0-0.1,0-0.2,0c-0.6,0-1.6-0.9-1.6-0.9L144.9,178.8z"/>
		<path class="st14" d="M133.3,178.5c0,0-1.7,0.4-2.2,1.1c-0.1,0.1-0.1,0.2-0.1,0.3c-0.1,0.3-0.2,1-0.5,0.4
			c-0.4-0.8-0.3-0.5-0.3-0.5l0,0c0,0,0.1,0.2-0.3-0.5c-0.3-0.6,0.4-0.3,0.6-0.2c0.1,0,0.2,0.1,0.3,0.1c0.8,0,2.2-1,2.2-1
			L133.3,178.5z"/>
		<path class="st14" d="M137.4,182.1c0,0-0.7,1.6-0.6,2.4c0,0.1,0.1,0.2,0.1,0.3c0.2,0.2,0.6,0.8,0,0.6c-0.8-0.2-0.6-0.1-0.6-0.1
			l0,0c0,0,0.2,0.1-0.6-0.1c-0.7-0.2,0-0.5,0.3-0.6c0.1,0,0.2-0.1,0.2-0.2c0.5-0.6,0.6-2.4,0.6-2.4L137.4,182.1z"/>
		<path class="st14" d="M132.6,176c0,0-1.6,0.3-2.2,0c-0.1,0-0.2-0.1-0.2-0.2c-0.2-0.2-0.6-0.7-0.6-0.1c0,0.8,0,0.5,0,0.5l0,0
			c0,0,0-0.2,0,0.5c0,0.6,0.4,0.1,0.6-0.1c0.1-0.1,0.1-0.1,0.2-0.2c0.7-0.3,2.2,0,2.2,0L132.6,176z"/>
		<path class="st14" d="M145.6,175.8c0,0,1.3-0.3,1.8-0.1c0.1,0,0.1,0.1,0.2,0.1c0.1,0.2,0.5,0.6,0.5,0.1c0-0.6,0-0.4,0-0.4l0,0
			c0,0,0,0.2,0-0.4c0-0.5-0.3-0.1-0.5,0.1c0,0.1-0.1,0.1-0.2,0.2c-0.5,0.3-1.8,0.1-1.8,0.1L145.6,175.8z"/>
		<path class="st14" d="M139,182.5c0,0,0.3,1.2,0,1.8c0,0.1-0.1,0.1-0.1,0.2c-0.2,0.1-0.6,0.5-0.1,0.5c0.6,0,0.4,0,0.4,0l0,0
			c0,0-0.2,0,0.4,0c0.5,0,0.1-0.3-0.1-0.5c-0.1,0-0.1-0.1-0.1-0.2c-0.3-0.5,0-1.8,0-1.8L139,182.5z"/>
		<path class="st14" d="M135.6,181.5c0,0-0.3,1.2-0.8,1.6c-0.1,0-0.1,0.1-0.2,0.1c-0.2,0-0.7,0.2-0.3,0.4c0.6,0.3,0.4,0.2,0.4,0.2
			l0,0c0,0-0.2-0.1,0.4,0.2c0.4,0.2,0.2-0.3,0.1-0.4c0-0.1-0.1-0.1-0.1-0.2c0-0.6,0.8-1.6,0.8-1.6L135.6,181.5z"/>
		<path class="st14" d="M141.9,181.7c0,0,0.8,1,0.8,1.6c0,0.1,0,0.1,0,0.2c-0.1,0.2-0.3,0.7,0.1,0.4c0.5-0.3,0.4-0.2,0.4-0.2l0,0
			c0,0-0.2,0.1,0.4-0.2c0.4-0.2-0.1-0.3-0.3-0.4c-0.1,0-0.1,0-0.2-0.1c-0.5-0.4-0.8-1.6-0.8-1.6L141.9,181.7z"/>
		<circle class="st15" cx="139.1" cy="175.9" r="6.6"/>
		<circle class="st16" cx="141.3" cy="172.9" r="0.9"/>
		
			<ellipse transform="matrix(0.9049 -0.4257 0.4257 0.9049 -61.3753 75.6475)" class="st16" cx="138.6" cy="175.1" rx="0.5" ry="0.5"/>
		<circle class="st17" cx="143.7" cy="174.9" r="0.9"/>
		<ellipse class="st16" cx="139.8" cy="176.8" rx="0.4" ry="0.4"/>
		<circle class="st16" cx="136.5" cy="174" r="0.8"/>
		<circle class="st17" cx="138.6" cy="171.3" r="0.6"/>
		<ellipse class="st16" cx="142.5" cy="178.8" rx="0.7" ry="0.7"/>
		<ellipse class="st16" cx="144.2" cy="177.2" rx="0.4" ry="0.5"/>
		<circle class="st17" cx="135.3" cy="178" r="0.9"/>
		<circle class="st16" cx="137.8" cy="180.2" r="0.3"/>
		<circle class="st17" cx="134.6" cy="172.2" r="0.3"/>
		<ellipse class="st16" cx="134" cy="175.6" rx="0.6" ry="0.8"/>
		<ellipse class="st16" cx="141" cy="170.8" rx="0.5" ry="0.6"/>
		<circle class="st17" cx="139.8" cy="180.9" r="0.6"/>
	</g>
	<g>
		<path class="st18" d="M135.4,146.3c0,0,0.1-0.5,0-0.8c0,0,0-0.1-0.1-0.1c-0.1-0.1-0.3-0.2,0-0.2c0.3,0,0.2,0,0.2,0h0
			c0,0-0.1,0,0.2,0c0.2,0,0,0.1,0,0.2c0,0,0,0-0.1,0.1c-0.1,0.2,0,0.8,0,0.8H135.4z"/>
		<path class="st18" d="M136,146.4c0,0,0.2-0.4,0.2-0.6c0,0,0,0,0-0.1c0-0.1-0.1-0.2,0-0.1c0.2,0.1,0.1,0,0.1,0l0,0c0,0-0.1,0,0.1,0
			c0.2,0,0,0.1-0.1,0.1c0,0,0,0-0.1,0c-0.1,0.1-0.2,0.6-0.2,0.6L136,146.4z"/>
		<path class="st18" d="M134.2,146.8c0,0-0.3-0.6-0.6-0.8c0,0-0.1,0-0.1,0c-0.1,0-0.4-0.1-0.2-0.2c0.2-0.2,0.2-0.1,0.2-0.1l0,0
			c0,0-0.1,0.1,0.2-0.1c0.2-0.1,0.1,0.1,0.1,0.2c0,0,0,0.1,0,0.1c0.1,0.3,0.6,0.8,0.6,0.8L134.2,146.8z"/>
		<path class="st18" d="M136.2,150.4c0,0,0.1,0.7,0.3,1c0,0,0.1,0.1,0.1,0.1c0.1,0,0.3,0.2,0.1,0.2c-0.3,0.1-0.2,0.1-0.2,0.1l0,0
			c0,0,0.1,0-0.2,0.1c-0.2,0.1-0.1-0.2,0-0.3c0,0,0-0.1,0-0.1c0-0.3-0.3-1-0.3-1L136.2,150.4z"/>
		<path class="st18" d="M137,149.9c0,0,0.4,0.6,0.7,0.7c0,0,0.1,0,0.1,0c0.1,0,0.4,0,0.2,0.2c-0.2,0.2-0.1,0.1-0.1,0.1l0,0
			c0,0,0.1-0.1-0.1,0.1c-0.2,0.2-0.2-0.1-0.2-0.2c0,0,0-0.1,0-0.1c-0.1-0.3-0.7-0.7-0.7-0.7L137,149.9z"/>
		<path class="st18" d="M134.2,150c0,0-0.6,0.4-0.7,0.7c0,0,0,0.1,0,0.1c0,0.1,0,0.4-0.2,0.2c-0.2-0.2-0.1-0.1-0.1-0.1l0,0
			c0,0,0.1,0.1-0.1-0.1c-0.2-0.1,0.1-0.2,0.2-0.2c0,0,0.1,0,0.1,0c0.3-0.1,0.7-0.7,0.7-0.7L134.2,150z"/>
		<path class="st18" d="M137.2,147.3c0,0,0.7-0.3,0.9-0.5c0,0,0-0.1,0-0.1c0-0.1,0.1-0.4,0.2-0.2c0.1,0.2,0.1,0.2,0.1,0.2l0,0
			c0,0,0-0.1,0.1,0.2c0.1,0.2-0.1,0.1-0.2,0.1c0,0-0.1,0-0.1,0c-0.3,0.1-0.9,0.5-0.9,0.5L137.2,147.3z"/>
		<path class="st18" d="M136.5,146.7c0,0,0.4-0.6,0.5-0.9c0,0,0-0.1,0-0.1c0-0.1-0.1-0.4,0.1-0.3c0.2,0.1,0.2,0.1,0.2,0.1l0,0
			c0,0-0.1,0,0.2,0.1c0.2,0.1-0.1,0.2-0.2,0.2c0,0-0.1,0-0.1,0.1c-0.3,0.2-0.5,0.9-0.5,0.9L136.5,146.7z"/>
		<path class="st18" d="M133.7,147.5c0,0-0.4-0.4-0.6-0.5c0,0-0.1,0-0.1,0c-0.1,0-0.3,0.1-0.2-0.1c0.2-0.2,0.1-0.2,0.1-0.2l0,0
			c0,0,0,0.1,0.1-0.2c0.1-0.2,0.1,0,0.1,0.1c0,0,0,0.1,0,0.1c0.1,0.2,0.6,0.5,0.6,0.5L133.7,147.5z"/>
		<path class="st18" d="M134.9,146.4c0,0-0.2-0.3-0.2-0.5c0,0,0,0,0-0.1c0-0.1,0.1-0.2,0-0.1c-0.2,0.1-0.1,0.1-0.1,0.1l0,0
			c0,0,0.1,0-0.1,0.1c-0.1,0.1,0,0.1,0.1,0.1c0,0,0,0,0.1,0c0.1,0.1,0.2,0.5,0.2,0.5L134.9,146.4z"/>
		<path class="st18" d="M134,146.9c0,0-0.3-0.2-0.4-0.4c0,0,0,0,0-0.1c0-0.1,0-0.2-0.1-0.1c-0.1,0.1-0.1,0.1-0.1,0.1l0,0
			c0,0,0,0-0.1,0.1c-0.1,0.1,0,0.1,0.1,0.1c0,0,0,0,0.1,0C133.7,146.7,133.9,147,134,146.9L134,146.9z"/>
		<path class="st18" d="M137.6,147.9c0,0,0.3-0.2,0.5-0.2c0,0,0,0,0.1,0c0.1,0,0.2,0.1,0.1,0c-0.1-0.2,0-0.1,0-0.1l0,0
			c0,0,0,0.1,0-0.1c-0.1-0.2-0.1,0-0.1,0.1c0,0,0,0,0,0.1c-0.1,0.1-0.5,0.2-0.5,0.2L137.6,147.9z"/>
		<path class="st18" d="M137.4,149.4c0,0,0.4,0.1,0.5,0.3c0,0,0,0,0,0.1c0,0.1,0,0.2,0.1,0.1c0.1-0.2,0.1-0.1,0.1-0.1l0,0
			c0,0,0,0.1,0.1-0.1c0.1-0.1-0.1-0.1-0.1,0c0,0,0,0-0.1,0c-0.2,0-0.5-0.3-0.5-0.3L137.4,149.4z"/>
		<path class="st18" d="M133.7,149.3c0,0-0.5,0.1-0.7,0.3c0,0,0,0.1,0,0.1c0,0.1-0.1,0.3-0.2,0.1c-0.1-0.2-0.1-0.2-0.1-0.2l0,0
			c0,0,0,0.1-0.1-0.2c-0.1-0.2,0.1-0.1,0.2-0.1c0,0,0.1,0,0.1,0c0.3,0,0.7-0.3,0.7-0.3L133.7,149.3z"/>
		<path class="st18" d="M135,150.4c0,0-0.2,0.5-0.2,0.8c0,0,0,0.1,0,0.1c0.1,0.1,0.2,0.3,0,0.2c-0.3-0.1-0.2,0-0.2,0l0,0
			c0,0,0.1,0-0.2,0c-0.2,0,0-0.2,0.1-0.2c0,0,0.1,0,0.1-0.1c0.2-0.2,0.2-0.8,0.2-0.8L135,150.4z"/>
		<path class="st18" d="M133.4,148.5c0,0-0.5,0.1-0.7,0c0,0,0,0-0.1-0.1c-0.1-0.1-0.2-0.2-0.2,0c0,0.2,0,0.2,0,0.2l0,0
			c0,0,0-0.1,0,0.2c0,0.2,0.1,0,0.2,0c0,0,0,0,0.1-0.1c0.2-0.1,0.7,0,0.7,0L133.4,148.5z"/>
		<path class="st18" d="M137.6,148.4c0,0,0.4-0.1,0.6,0c0,0,0,0,0.1,0c0,0.1,0.2,0.2,0.2,0c0-0.2,0-0.1,0-0.1l0,0c0,0,0,0.1,0-0.1
			c0-0.2-0.1,0-0.2,0c0,0,0,0-0.1,0c-0.2,0.1-0.6,0-0.6,0L137.6,148.4z"/>
		<path class="st18" d="M135.5,150.5c0,0,0.1,0.4,0,0.6c0,0,0,0,0,0.1c-0.1,0-0.2,0.2,0,0.1c0.2,0,0.1,0,0.1,0l0,0c0,0-0.1,0,0.1,0
			c0.2,0,0-0.1,0-0.1c0,0,0,0,0-0.1c-0.1-0.2,0-0.6,0-0.6L135.5,150.5z"/>
		<path class="st18" d="M134.4,150.2c0,0-0.1,0.4-0.3,0.5c0,0,0,0-0.1,0c-0.1,0-0.2,0.1-0.1,0.1c0.2,0.1,0.1,0.1,0.1,0.1l0,0
			c0,0-0.1,0,0.1,0.1c0.1,0.1,0.1-0.1,0-0.1c0,0,0,0,0-0.1c0-0.2,0.3-0.5,0.3-0.5L134.4,150.2z"/>
		<path class="st18" d="M136.4,150.3c0,0,0.3,0.3,0.3,0.5c0,0,0,0,0,0.1c0,0.1-0.1,0.2,0,0.1c0.2-0.1,0.1-0.1,0.1-0.1l0,0
			c0,0-0.1,0,0.1-0.1c0.1-0.1,0-0.1-0.1-0.1c0,0,0,0-0.1,0c-0.2-0.1-0.3-0.5-0.3-0.5L136.4,150.3z"/>
		<circle class="st19" cx="135.5" cy="148.4" r="2.1"/>
		<circle class="st20" cx="136.2" cy="147.5" r="0.3"/>
		
			<ellipse transform="matrix(0.9049 -0.4257 0.4257 0.9049 -50.2059 71.7185)" class="st20" cx="135.4" cy="148.2" rx="0.1" ry="0.2"/>
		<circle class="st21" cx="137" cy="148.1" r="0.3"/>
		<ellipse class="st20" cx="135.8" cy="148.7" rx="0.1" ry="0.1"/>
		<circle class="st20" cx="134.7" cy="147.8" r="0.2"/>
		<circle class="st21" cx="135.4" cy="147" r="0.2"/>
		<ellipse class="st20" cx="136.6" cy="149.4" rx="0.2" ry="0.2"/>
		<ellipse class="st20" cx="137.2" cy="148.8" rx="0.1" ry="0.2"/>
		<circle class="st21" cx="134.3" cy="149.1" r="0.3"/>
		<circle class="st20" cx="135.1" cy="149.8" r="0.1"/>
		<circle class="st21" cx="134.1" cy="147.3" r="0.1"/>
		<ellipse class="st20" cx="133.9" cy="148.3" rx="0.2" ry="0.2"/>
		<ellipse class="st20" cx="136.2" cy="146.8" rx="0.2" ry="0.2"/>
		<circle class="st21" cx="135.8" cy="150" r="0.2"/>
	</g>
</g>
</svg>
