<?xml version="1.0" encoding="utf-8"?>
<!-- Generator: Adobe Illustrator 22.1.0, SVG Export Plug-In . SVG Version: 6.00 Build 0)  -->
<svg version="1.1" xmlns="http://www.w3.org/2000/svg" xmlns:xlink="http://www.w3.org/1999/xlink" x="0px" y="0px"
	 viewBox="0 0 283.5 283.5" style="enable-background:new 0 0 283.5 283.5;" xml:space="preserve">
<style type="text/css">
	.st0{fill:#78797D;}
	.st1{fill:#98999C;stroke:#000000;stroke-miterlimit:10;}
	.st2{fill:none;stroke:#000000;stroke-miterlimit:10;}
	.st3{fill:#78797D;stroke:#000000;stroke-miterlimit:10;}
	.st4{fill:#F3A4BC;}
	.st5{fill:none;stroke:#000000;stroke-width:0.75;stroke-miterlimit:10;}
	.st6{fill:#FCD4B6;}
	.st7{fill:none;stroke:#000000;stroke-linecap:round;stroke-linejoin:round;stroke-miterlimit:10;}
	.st8{fill:#C3D9F1;stroke:#000000;stroke-width:0.75;stroke-miterlimit:10;}
	.st9{filter:url(#Adobe_OpacityMaskFilter);}
	.st10{mask:url(#SVGID_1_);}
	.st11{fill:#FFFFFF;}
	.st12{filter:url(#Adobe_OpacityMaskFilter_1_);}
	.st13{mask:url(#SVGID_2_);}
	.st14{opacity:0.79;}
	.st15{filter:url(#Adobe_OpacityMaskFilter_2_);}
	.st16{mask:url(#SVGID_3_);}
	.st17{fill:none;stroke:#000000;stroke-width:1.1267;stroke-linecap:round;stroke-linejoin:round;stroke-miterlimit:10;}
	.st18{fill:#E7E6E8;stroke:#000000;stroke-miterlimit:10;}
	.st19{opacity:0.5;fill:#51AE32;}
	.st20{fill:#78797D;stroke:#000000;stroke-width:0.75;stroke-miterlimit:10;}
	.st21{fill:#98999C;stroke:#000000;stroke-width:0.75;stroke-miterlimit:10;}
</style>
<g id="Слой_1">
</g>
<g id="Слой_3">
	<g>
		<path class="st0" d="M164.2,72l-0.3-14.1c0,0,8.9,1.1,9.8,0s0,14.7,0,14.7l-7.9,0.7L164.2,72"/>
		<path class="st1" d="M266.7,203.9c0,18.3-7.5,34.9-19.5,46.9c-12,12-28.6,19.5-46.9,19.5H72.7c-36.5,0-66.4-29.9-66.4-66.4
			c0-1.5,0.1-2.9,0.1-4.4c0.5-7.7,2.3-15,5.2-21.7c3.4-7.8,8.2-14.9,14.1-20.8c12-12,28.6-19.5,46.9-19.5h127.5
			c30.5,0,56.4,20.8,64.1,49c1.2,4.4,2,8.9,2.2,13.6C266.7,201.3,266.7,202.6,266.7,203.9z"/>
		<path class="st1" d="M222.1,89.1c0,13.8-8.6,25-19.1,25c-8.1,0-15-6.5-17.8-15.8h8.6c5.1,0,9.2-4.1,9.2-9.2c0-2.5-1-4.8-2.7-6.5
			c-1.7-1.7-4-2.7-6.5-2.7h-8.6c2.8-9.2,9.7-15.8,17.8-15.8C213.5,64.1,222.1,75.3,222.1,89.1z"/>
		<path class="st1" d="M180,79.9h13.7c2.5,0,4.8,1,6.5,2.7c1.7,1.7,2.7,4,2.7,6.5c0,5.1-4.1,9.2-9.2,9.2h-36.4
			c-0.7,0-1.3,0.6-1.3,1.3v11.7c0,2-1.6,3.6-3.6,3.6h-8.7c-2,0-3.6-1.6-3.6-3.6V85.7c0-3.2,2.6-5.8,5.8-5.8h12.1"/>
		<g>
			<line class="st2" x1="173.7" y1="72.6" x2="173.7" y2="57.9"/>
			<line class="st2" x1="164.2" y1="72.5" x2="164.2" y2="58.1"/>
		</g>
		<path class="st3" d="M180,79.9h-22.1c0.7-3.3,3.1-6.1,6.3-7.4c1.4-0.6,3-0.9,4.7-0.9c1.7,0,3.3,0.4,4.7,1
			C176.9,74,179.3,76.6,180,79.9z"/>
		<g>
			<path class="st1" d="M160.9,50.9c-0.5-1-1.6-1.7-2.8-1.7h-10.3c-0.9,0-1.7,0.4-2.2,0.9c-0.6,0.6-0.9,1.4-0.9,2.2
				c0,1.7,1.4,3.2,3.2,3.2H158c0.9,0,1.7-0.4,2.2-0.9c0.1-0.1,0.2-0.2,0.3-0.3"/>
			<path class="st1" d="M177,54.3c0.5,1,1.3,1.2,2.5,1.2h10.3c0.9,0,1.7-0.4,2.2-0.9s0.9-1.4,0.9-2.2c0-1.7-1.4-3.2-3.2-3.2h-10.3
				c-0.9,0-1.7,0.4-2.2,0.9c-0.4,0.4-0.6,0.8-0.8,1.3"/>
		</g>
		<path class="st1" d="M169.9,47.5c1.1-0.4,1.9-1.7,1.9-2.6l-0.1-8.1c0-0.7-0.4-1.3-1-1.7c-0.6-0.4-1.5-0.7-2.5-0.7
			c-1.9,0-3.5,1.1-3.4,2.5l0.1,8.1c0,0.7,0.4,1.3,1,1.7c0.4,0.3,1.2,0.7,1.7,0.8"/>
		<path class="st3" d="M177,53.3c0,1.9-1.3,3.6-3.3,4.6c-1.4,0.7-3.1,1.1-4.9,1.1c-1.7,0-3.3-0.4-4.6-1c-2.2-1-3.7-2.8-3.7-4.8
			c0-3.2,3.7-5.7,8.2-5.7C173.3,47.5,177,50.1,177,53.3z"/>
		<path class="st3" d="M264.3,186.4c-0.2,3-0.6,5.9-1.2,8.8c-2.6,13-9.1,24.6-18.2,33.7c-12,12-28.6,19.5-46.9,19.5H70.5
			c-30.5,0-56.4-20.8-64.1-49c0.5-7.7,2.3-15,5.2-21.7c3.4-7.8,8.2-14.9,14.1-20.8c12-12,28.6-19.5,46.9-19.5h127.5
			C230.8,137.5,256.6,158.3,264.3,186.4z"/>
	</g>
</g>
<g id="Слой_11">
	<g>
		<g>
			<path class="st4" d="M127,165.4l3-1.5l10.3-2.5l9.9-1.9l6.4-0.7h3.4l4.7,1.5l0.6,1.6l0,8.3L127,181.8l-5.5,1.7c0,0,0.1-9,0-10.2
				c-0.1-1.2,2.4-8.3,2.4-8.3L127,165.4z"/>
			<path class="st5" d="M127.3,164.6c0,0,38-11.1,37.8-2.7s0,7.1,0,7.1"/>
		</g>
		<path class="st6" d="M24.7,250.4l85.7-31.8l12-1.1l16.5-2l8.3-1.8l11.4-5.7l11.7-7.8l4.8-5.1l2-4.3l-0.6-1.7l-1-0.6l4.4-3.3l1.8-3
			l-0.3-3.2l-2.6-0.5l-2.5-0.5l1.2-3.4l-1.3-1.8l-3.2-0.3l-4.9,1l0.4-2.9l-2-2l-2.5,0.5l-21.1,5.8l-15.9,4.8l-1.9,0.2l-1-0.8
			l-0.3-3.6l3.4-10.6l2.8-6.2l0.8-6.2c0,0-2.2-3.5-3.6-3.7c-1.5-0.2-3.3,0.4-3.3,0.4s-3.8,3.4-4.1,4.7c-0.2,1.2-3.8,8.1-3.8,8.1
			l-5.5,7.9l-1.5-0.3c0,0-1.7-1.5-2.5-3.2c-0.8-1.7-1.7-5.7-1.7-6.5c0-0.8,2.3-8.7,2.7-9.6c0.4-0.9,2.4-5.8,2.4-5.8s0.4-2.6-0.9-3.2
			c-1.4-0.6-2.6-0.5-2.6-0.5l-6.4,6.7l-3.1,5.7l-2.7,2.9l-5.1,5.4c0,0-5,5.9-5.2,7c-0.2,1.1-4.1,13.5-4.1,13.5l-15.7,6.2L0.3,210.4"
			/>
	</g>
</g>
<g id="Слой_10">
	<g>
		<path class="st7" d="M0.3,210.4c0,0,77.9-27,78.9-27.9c0.9-0.8,2.3-10,5-14.5c2.8-4.6,7.1-9.6,10.3-12.3
			c2.2-1.8,10.1-20.1,15-13.6c2.4,3.2-7.2,12.9-4.2,21.6c2.1,6.2,4.5,6.3,4.5,6.3"/>
		<path class="st7" d="M18.1,220c0,0,73.3-25,75-26.7c1.7-1.7-0.5-7.8,11-17.3c11.5-9.5,13.2-17.6,14.7-20.6c2.5-4.8,6-9.7,11.2-4.8
			c1.1,1.1,1.1,5.5-0.1,8.1c-3.3,6.9-10.6,23.5-3.1,21c9.4-3.1,37.8-11.1,39.5-11.1c1.7,0,10,5.9-25,18.7"/>
		<path class="st7" d="M140.2,198.4l30.2-15.7c1.3-0.7,2.6-1.6,3.8-2.6c1.2-1,2-1.9,2.7-3.3c1.4-2.9,0.5-6.2-9.8-2.9"/>
		<path class="st7" d="M142.4,206.3c0,0,32.3-17.8,35-19.2c3.7-1.9,8.4-9.2-1.4-8.7"/>
		<path class="st7" d="M24.7,250.4l84.1-31.4c0.8-0.3,1.7-0.5,2.6-0.6c5.8-0.5,28.6-2.4,34.9-4.5c7.3-2.3,21.3-11.4,24.4-14.2
			c3.1-2.8,9.2-9.3,4.7-11.4"/>
	</g>
</g>
<g id="Слой_4">
	<path class="st8" d="M127.6,159.4L127.6,159.4c-3.7-1.4-4.4-6.2-1.4-8.7h0l6.8-5.6l1.4,8.7l0,0C135,157.7,131.2,160.8,127.6,159.4
		L127.6,159.4z"/>
	<path class="st8" d="M91.4,162.7L91.4,162.7c-3.9-2.6-3.5-8.4,0.7-10.5h0l9.4-4.7l-0.7,10.5v0C100.5,162.7,95.3,165.3,91.4,162.7
		L91.4,162.7z"/>
	<path class="st8" d="M134,139L134,139c-4.9-2.3-5.4-9-1-12l0,0l9.9-6.9l1,12l0,0C144.4,137.4,138.9,141.3,134,139L134,139z"/>
	<path class="st8" d="M158.8,150.5L158.8,150.5c-4.3,1.7-8.9-1.8-8.3-6.5v0l1.5-10.4l8.3,6.5h0C163.9,142.9,163.1,148.7,158.8,150.5
		L158.8,150.5z"/>
	<path class="st8" d="M160.3,226.5L160.3,226.5c-6.1,0.2-10.1-6.2-7.3-11.6v0l6.4-12.1l7.3,11.6l0,0
		C169.9,219.5,166.3,226.2,160.3,226.5L160.3,226.5z"/>
	<path class="st8" d="M146.5,258.4L146.5,258.4c-4.6-0.9-6.5-6.4-3.5-9.9l0,0l6.8-7.9l3.5,9.9l0,0
		C154.8,254.9,151,259.3,146.5,258.4L146.5,258.4z"/>
	<path class="st8" d="M182.4,215.1L182.4,215.1c-4,2.5-9.1-0.3-9.2-5v0l-0.3-10.5l9.2,5l0,0C186.1,206.8,186.3,212.7,182.4,215.1
		L182.4,215.1z"/>
	<path class="st8" d="M200.1,222.5L200.1,222.5c-3.3,3.3-8.9,1.8-10.1-2.7l0,0l-2.7-10.1l10.1,2.7l0,0
		C201.9,213.6,203.4,219.2,200.1,222.5L200.1,222.5z"/>
	<path class="st8" d="M169.4,135.8L169.4,135.8c-4.1,3.3-10.2,1-11-4.2l0,0l-1.8-11.7l11,4.2l0,0C172.5,126,173.5,132.5,169.4,135.8
		L169.4,135.8z"/>
</g>
<g id="Слой_13">
	<g>
		<defs>
			<filter id="Adobe_OpacityMaskFilter" filterUnits="userSpaceOnUse" x="137.5" y="149.6" width="25.6" height="19.4">
				<feFlood  style="flood-color:white;flood-opacity:1" result="back"/>
				<feBlend  in="SourceGraphic" in2="back" mode="normal"/>
			</filter>
		</defs>
		<mask maskUnits="userSpaceOnUse" x="137.5" y="149.6" width="25.6" height="19.4" id="SVGID_1_">
			<g class="st9">
				
					<image style="overflow:visible;" width="124" height="99" xlink:href="916082FE.jpg"  transform="matrix(0.24 0 0 0.24 135.4867 147.443)">
				</image>
			</g>
		</mask>
		<g class="st10">
			<path class="st11" d="M161.6,160.3c-0.3-0.4-0.6-0.7-0.9-0.9c-0.1-1.8-1.4-3.5-3.3-4.2c-0.6-0.2-1.2-0.3-1.8-0.3
				c0.2-2.1-1.1-4.2-3.3-5c-2.6-0.9-5.3,0.3-6.2,2.6c0,0,0,0,0,0c-3.8-0.8-7.5,1-8.4,4.2c-0.9,3.2,1.5,6.4,5.2,7.3
				c3.5,0.8,7-0.7,8.2-3.4c0.4,1.5,1.6,2.7,3.2,3.3c0.1,0,0.2,0.1,0.4,0.1c0.2,1.1,0.7,2.2,1.4,3.2c1.8,2.3,4.5,2.6,6.1,0.7
				S163.4,162.5,161.6,160.3z"/>
		</g>
	</g>
	<g>
		<defs>
			<filter id="Adobe_OpacityMaskFilter_1_" filterUnits="userSpaceOnUse" x="83.3" y="167" width="26.9" height="17.2">
				<feFlood  style="flood-color:white;flood-opacity:1" result="back"/>
				<feBlend  in="SourceGraphic" in2="back" mode="normal"/>
			</filter>
		</defs>
		<mask maskUnits="userSpaceOnUse" x="83.3" y="167" width="26.9" height="17.2" id="SVGID_2_">
			<g class="st12">
				
					<image style="overflow:visible;" width="129" height="89" xlink:href="91608302.jpg"  transform="matrix(0.24 0 0 0.24 81.281 164.9632)">
				</image>
			</g>
		</mask>
		<g class="st13">
			<path class="st11" d="M106.2,171.8c-0.4-0.2-0.8-0.3-1.2-0.4c-1-1.5-2.9-2.4-4.9-2.1c-0.6,0.1-1.2,0.3-1.7,0.6
				c-0.8-2-3-3.2-5.3-2.8c-2.7,0.4-4.6,2.8-4.2,5.3c0,0,0,0,0,0c-3.7,1.1-6.1,4.5-5.4,7.6c0.7,3.2,4.3,4.9,8,3.9
				c3.4-1,5.8-3.9,5.6-6.9c1.1,1.1,2.7,1.7,4.4,1.4c0.1,0,0.2,0,0.4-0.1c0.7,0.9,1.7,1.7,2.8,2.1c2.7,1.1,5.2,0.1,5.7-2.3
				C110.6,175.7,108.8,172.9,106.2,171.8z"/>
		</g>
	</g>
	<g class="st14">
		<defs>
			<filter id="Adobe_OpacityMaskFilter_2_" filterUnits="userSpaceOnUse" x="130.4" y="168.1" width="21.9" height="33.2">
				<feFlood  style="flood-color:white;flood-opacity:1" result="back"/>
				<feBlend  in="SourceGraphic" in2="back" mode="normal"/>
			</filter>
		</defs>
		<mask maskUnits="userSpaceOnUse" x="130.4" y="168.1" width="21.9" height="33.2" id="SVGID_3_">
			<g class="st15">
				
					<image style="overflow:visible;" width="109" height="156" xlink:href="91608305.jpg"  transform="matrix(0.24 0 0 0.24 128.16 166.08)">
				</image>
			</g>
		</mask>
		<g class="st16">
			<path class="st11" d="M147.8,195.6c0.2-0.5,0.3-1.1,0.3-1.6c1.8-1.4,2.6-3.9,2-6.3c-0.2-0.8-0.5-1.4-0.9-2
				c2.3-1.2,3.6-4.1,2.9-6.9c-0.8-3.3-4-5.3-7-4.5c0,0,0,0,0,0c-1.8-4.4-6.3-7-10.1-5.8c-3.9,1.3-5.6,5.9-3.9,10.4
				c1.6,4.1,5.6,6.7,9.2,6c-1.2,1.4-1.7,3.5-1.2,5.6c0,0.2,0.1,0.3,0.1,0.4c-1,1-1.9,2.2-2.3,3.7c-1.1,3.4,0.5,6.4,3.5,6.7
				C143.4,201.6,146.7,199,147.8,195.6z"/>
		</g>
	</g>
</g>
<g id="Слой_15">
	<g>
		<ellipse transform="matrix(0.664 -0.7477 0.7477 0.664 -6.2701 113.5719)" cx="123.2" cy="63.8" rx="7.3" ry="4"/>
		<path class="st7" d="M127.9,59.4l1-12.8l0.2-4.8c0,0,4,6.3,6,8.7c2.3,2.7,1.7,7.3,1.3,8.1s-0.5-4.5-2.4-6.1
			c-1.9-1.6-4.7-4.6-5-5.8"/>
		<g>
			<ellipse transform="matrix(0.7477 -0.664 0.664 0.7477 -45.5959 35.6508)" cx="24.1" cy="77.8" rx="4" ry="7.3"/>
			<path class="st17" d="M18.9,74l-0.5-13.4l-0.2-4.8c0,0-4,6.3-6,8.7c-2.3,2.7-1.7,7.3-1.3,8.1c0.5,0.8,0.5-4.5,2.4-6.1
				c1.9-1.6,4.7-4.6,5-5.8"/>
		</g>
		<ellipse transform="matrix(0.5386 -0.8426 0.8426 0.5386 -28.1571 44.6541)" cx="26.7" cy="48" rx="7.3" ry="4"/>
		<ellipse transform="matrix(0.5 -0.866 0.866 0.5 -12.295 53.3516)" cx="40.1" cy="37.3" rx="7.3" ry="4"/>
		<polyline class="st7" points="44,32.2 38,20.8 34.6,14.8 21.2,25 30.3,42.6 		"/>
		<line class="st7" x1="38" y1="20.8" x2="24.9" y2="30.7"/>
		<ellipse transform="matrix(0.664 -0.7477 0.7477 0.664 10.3121 104.1877)" cx="121.1" cy="40.6" rx="7.3" ry="4"/>
		<path class="st7" d="M125.9,36.4l-6.6-18c0,0,1.1,2.4,6.6,4.1c5.5,1.6,8.1,1.5,9.6,5.4c0,0-2.2-2-4.2-2s-7.6-0.4-9.8-1.7"/>
		<g>
			<g>
				<circle class="st18" cx="77.6" cy="64.9" r="36.1"/>
				<path class="st19" d="M112.8,64.9c0,19.5-15.8,35.3-35.2,35.3V29.7C97.1,29.7,112.8,45.4,112.8,64.9z"/>
				<circle class="st20" cx="77.6" cy="64.9" r="7.4"/>
				<path class="st21" d="M83,28.7H71.9c-0.9,0-1.6-0.7-1.6-1.6v-7.7c0-0.9,0.7-1.6,1.6-1.6H83c0.9,0,1.6,0.7,1.6,1.6v7.7
					C84.6,28,83.9,28.7,83,28.7z"/>
				<path class="st21" d="M58.5,33.9l-5.4,4c-0.7,0.5-1.7,0.4-2.2-0.3l-2.6-3.5c-0.5-0.7-0.4-1.7,0.3-2.2l5.4-4
					c0.7-0.5,1.7-0.4,2.2,0.3l2.6,3.5C59.3,32.4,59.2,33.4,58.5,33.9z"/>
				<path class="st21" d="M100.3,36.6L94.6,33c-0.7-0.5-1-1.5-0.5-2.2l2.3-3.6c0.5-0.7,1.5-1,2.2-0.5l5.7,3.6c0.7,0.5,1,1.5,0.5,2.2
					l-2.3,3.6C102,36.9,101,37.1,100.3,36.6z"/>
				<path class="st21" d="M87.1,109.7H69.8c-2,0-3.6-1.6-3.6-3.6v-1.6c0-2,1.6-3.6,3.6-3.6h17.3c2,0,3.6,1.6,3.6,3.6v1.6
					C90.7,108.1,89.1,109.7,87.1,109.7z"/>
			</g>
			<path d="M77.1,77l-0.9,0.2c-0.2-0.6-0.5-0.8-1.1-0.8c-0.5,0-0.9,0.2-1.1,0.7c-0.2,0.4-0.3,0.9-0.3,1.4c0,0.1,0,0.2,0,0.3
				c0.3-0.6,0.8-0.9,1.5-0.9c0.6,0,1,0.2,1.4,0.5c0.4,0.4,0.6,0.8,0.6,1.4c0,0.6-0.2,1.1-0.6,1.5c-0.4,0.4-0.9,0.6-1.5,0.6
				c-0.8,0-1.4-0.3-1.8-0.8c-0.4-0.5-0.7-1.3-0.7-2.2c0-0.9,0.2-1.7,0.6-2.3c0.4-0.6,1-0.9,1.7-0.9C76.1,75.6,76.8,76,77.1,77z
				 M75.1,81c0.3,0,0.6-0.1,0.8-0.3c0.2-0.2,0.3-0.5,0.3-0.9c0-0.3-0.1-0.5-0.3-0.8c-0.2-0.2-0.5-0.4-0.9-0.4
				c-0.3,0-0.6,0.1-0.8,0.3c-0.2,0.2-0.3,0.5-0.3,0.8c0,0.3,0.1,0.6,0.3,0.8C74.5,80.8,74.8,81,75.1,81z"/>
			<path d="M80.2,81.8c-0.7,0-1.3-0.3-1.7-0.9c-0.4-0.6-0.6-1.3-0.6-2.2c0-1,0.2-1.7,0.6-2.3c0.4-0.6,1-0.9,1.7-0.9
				c0.5,0,0.9,0.1,1.3,0.4c0.4,0.3,0.6,0.6,0.8,1.1c0.2,0.5,0.3,0.9,0.3,1.4c0,0.7-0.1,1.3-0.2,1.7c-0.2,0.5-0.4,0.8-0.8,1.1
				C81.2,81.6,80.8,81.8,80.2,81.8z M80.2,80.9c0.3,0,0.6-0.1,0.7-0.3c0.2-0.2,0.3-0.5,0.4-0.8c0.1-0.3,0.1-0.8,0.1-1.4
				c0-0.5-0.1-1-0.2-1.4c-0.2-0.4-0.5-0.7-1-0.7c-0.8,0-1.2,0.8-1.2,2.3c0,0.7,0.1,1.2,0.3,1.7C79.5,80.7,79.8,80.9,80.2,80.9z"/>
			<path d="M67.4,86.8l0.9,0.1c-0.1,0.6-0.3,1-0.6,1.2s-0.7,0.4-1.2,0.4c-0.6,0-1.1-0.2-1.4-0.7c-0.3-0.4-0.5-1-0.5-1.6
				c0-0.7,0.2-1.2,0.5-1.7c0.4-0.4,0.8-0.7,1.4-0.7c1,0,1.5,0.5,1.7,1.5l-0.9,0.1c-0.1-0.6-0.3-0.8-0.8-0.8c-0.3,0-0.6,0.1-0.7,0.4
				c-0.2,0.3-0.2,0.7-0.2,1.1c0,0.4,0.1,0.8,0.2,1c0.2,0.2,0.4,0.4,0.7,0.4C67,87.6,67.3,87.4,67.4,86.8z"/>
			<path d="M71.9,87l0.9,0.1c-0.1,0.4-0.3,0.7-0.7,1s-0.8,0.4-1.3,0.4c-0.6,0-1.1-0.2-1.5-0.6c-0.4-0.4-0.6-1-0.6-1.7
				c0-0.7,0.2-1.2,0.6-1.7s0.9-0.7,1.5-0.7c0.6,0,1.1,0.2,1.5,0.7s0.5,1,0.5,1.7l0,0.1h-3c0,0.3,0,0.5,0.1,0.7
				c0.1,0.2,0.2,0.3,0.3,0.5c0.2,0.1,0.4,0.2,0.6,0.2C71.4,87.7,71.7,87.5,71.9,87z M71.8,85.7c0-0.3-0.1-0.6-0.3-0.8
				c-0.2-0.2-0.4-0.3-0.7-0.3c-0.3,0-0.5,0.1-0.7,0.3c-0.2,0.2-0.3,0.5-0.3,0.8H71.8z"/>
			<path d="M76.3,85.5l1.5,2.9h-1.1l-1.2-2.1l-0.8,0.8v1.3h-1V84h1v1.3c0,0.3,0,0.5,0,0.8c0.1-0.2,0.3-0.4,0.4-0.5l1.5-1.6h1
				L76.3,85.5z"/>
			<path d="M81.6,84L79.9,89c-0.1,0.3-0.3,0.6-0.4,0.7C79.3,89.9,79,90,78.7,90c-0.1,0-0.3,0-0.6,0v-0.8l0.5,0c0.2,0,0.4,0,0.5-0.1
				c0.1-0.1,0.2-0.2,0.2-0.4c0.1-0.2,0.1-0.3,0.1-0.3c0,0,0-0.1-0.1-0.3L77.8,84h1.1l1.1,2.9l0.9-2.9H81.6z"/>
			<path d="M82.3,88.4V84h1v1.7H85V84h1v4.4h-1v-2h-1.7v2H82.3z"/>
			<path d="M87,87.6l1-3.7h1.6l0.9,3.7H91v1.8h-0.7l-0.1-1h-2.9l-0.1,1h-0.7v-1.8H87z M87.8,87.6h1.8l-0.7-2.9h-0.4L87.8,87.6z"/>
			<g>
				<line class="st17" x1="77.6" y1="31.7" x2="77.6" y2="37.3"/>
				<line class="st17" x1="77.6" y1="93.6" x2="77.6" y2="99.3"/>
			</g>
			<g>
				<line class="st17" x1="43.8" y1="65.5" x2="49.4" y2="65.5"/>
				<line class="st17" x1="105.8" y1="65.5" x2="111.4" y2="65.5"/>
			</g>
		</g>
	</g>
</g>
</svg>
