<?xml version="1.0" encoding="utf-8"?>
<!-- Generator: Adobe Illustrator 22.1.0, SVG Export Plug-In . SVG Version: 6.00 Build 0)  -->
<svg version="1.1" xmlns="http://www.w3.org/2000/svg" xmlns:xlink="http://www.w3.org/1999/xlink" x="0px" y="0px"
	 viewBox="0 0 283.5 283.5" style="enable-background:new 0 0 283.5 283.5;" xml:space="preserve">
<style type="text/css">
	.st0{fill:#BD222E;}
	.st1{fill:#FCD4B6;}
	.st2{fill:#FFFFFF;}
	.st3{fill:#662227;}
	.st4{fill:#C3D9F1;}
	.st5{fill:none;stroke:#000000;stroke-linecap:round;stroke-linejoin:round;stroke-miterlimit:10;}
</style>
<g id="Слой_1">
</g>
<g id="Слой_8">
	<g>
		<path class="st0" d="M66.9,246.4l1.2-42.2l1.9-16c0,0,2.9-10.8,3.7-11.7c0.9-0.9,8.7-5.3,8.7-5.3l12.8-3.9l20.2-4.3
			c0,0,5,5.9,5.5,6.4s8.3,6.3,11.8,7.3c3.4,1,11.4,3.4,19.1,0s16.3-9.1,17.7-10.3s3.5-3.2,3.5-3.2s15.4,1.2,17.8,1.7
			c2.4,0.5,11.8,3.3,14.4,5.7c2.6,2.4,5.3,4.4,6.7,10.7c1.4,6.2,3.5,19.8,3.9,28.4c0.4,8.5,0.7,44.1,0.7,44.1H66.9V246.4z"/>
		<path class="st1" d="M173.1,163.3c0,0-7.5,6.9-9.1,7.4c-1.6,0.5-7.3,4.2-7.3,4.2l-5.7,2.2c0,0-5.8,1.3-6.2,1.3s-4.5,0.4-5.6,0
			s-6.7-1.8-6.7-1.8l-5.1-2.4l-4.9-3.5l-4.1-4l-2.8-3.6l5.6-1.2c0,0,4.2-1.1,4.5-1.8s0.7-3.2,0.7-4c0-0.9-1.8-12.1-1.8-12.1
			s0.4-0.3,2,0.8c1.6,1.1,8.2,2.8,8.2,2.8s4.4,2.1,6.9,1.6c2.5-0.5,8.2-1,8.2-1l7.9-1.7l4.3-2.1l-1.1,1.7l-0.6,4.4c0,0,0,2.7,0,4.1
			s1,4,1.3,4.9s2.5,3,3.6,2.9s5.9,0.4,5.9,0.4L173.1,163.3z"/>
		<path class="st1" d="M172.8,134c0,0,2.8-7.9,3.2-10.5c0.4-2.6,0.9-6,0.9-6s3.5-1.7,3.8-1.9c0.4-0.3,2.6-1.1,2.8-2.2
			c0.2-1.1,1.6-4.6,1.5-6.3c0-1.6,0-4-1-5s-1.1-1.9-2.7-1.7c-1.6,0.2-1.7-1-1.7-1l0.1-5.4c0,0-0.5-2.6-2-3.8s-2.8-1.1-2.6-3.1
			c0.2-2,0.8-8.4,0.8-8.4s-0.3-2.2-1.3-3.3s-4.5-3.8-4.5-3.8s-4.4-2.3-5.2-7s-1.1-8.5-4.8-11.3s-5.2-3.9-7.4-4.4s-5.4-1.3-6.1-1.5
			c-0.7-0.2-4.4-1.8-5-2.3c-0.6-0.5-2.9-2.2-2.9-2.2l-1.4,3.4l-2.4,4.2l-3.2,3l-6.6,4.1l-6.2,3.5c0,0-2.2,2.1-2.7,4.2
			c-0.5,2-1.2,5.7-1.2,5.7s-0.5,2.7-1.3,4.3c-0.8,1.6-2.4,3.8-3.7,5c-1.3,1.1-2.8,2.6-2.8,2.6s-0.2,1.9-0.3,3.6s0.4,4,0,4.4
			c-0.4,0.4-3,3.3-3,3.3l-1.6,4.7l-1.5,1.6c0,0-2.1,1.5-2.6,3c-0.5,1.5-1.6,5.2,0,8.8c1.6,3.6,2,5.7,4.1,6.3
			c2.1,0.6,6.1,0.9,6.1,0.9s5,13,6.7,13.1c1.7,0.1,0-2.8,0-2.8s0.4-9.3-0.2-12s-2.9-13.7-3.9-14.2c-1-0.5,2.9,0.9,4.4,1.8
			s14.6,4.1,18.5,4c3.9-0.1,19.6-0.3,23.5-1.4c3.9-1.1,14.9-4.4,14.9-4.4l2.6-1l-1.4,3.3c0,0-1.8,6-2.1,8.3s-0.7,9.3-0.6,10.5
			c0.1,1.3,0.5,6.2,0.5,6.2l0.4,2.9H172.8z"/>
		<path class="st2" d="M83.4,118.3c-0.3-0.3-0.5-0.6-0.8-0.9c-1-1-2.9,0.4-1.8,1.4l0.9,0.8c0.4,0.4,1.2,0.5,1.6,0.1
			C83.7,119.4,83.8,118.7,83.4,118.3z"/>
		<path class="st2" d="M133.2,93.8c-0.9-2.3-3.3-2.8-5.5-3.2c-2.5-0.4-7.5-1.2-9.8,0.4c-0.6,0.4-1,1-1.1,1.6
			c-0.2-0.1-0.4-0.1-0.7-0.2c-1.5-0.6-2.9,1.6-1.3,2.4c5.5,3,11.7,3.2,17.6,1.3C133.3,95.7,133.5,94.6,133.2,93.8z"/>
		<path class="st2" d="M161.8,90.8c-3.2-0.7-6.5,0.3-8.9,2.5c-0.4,0.4-0.6,0.9-0.5,1.3c-0.3-0.1-0.5-0.2-0.8-0.2
			c-1.4-0.4-2.5,1.3-1.2,2.2c3,2,6.8,2.7,10.3,2.6c2.2-0.1,6.2-0.2,6.9-3C168.3,93.1,164.1,91.2,161.8,90.8z"/>
		<path class="st3" d="M125.7,152.3c0,0-5.9-4.2-7.2-5.5c-1.3-1.3-5.5,0-5.5,0s-3.2-1.1-4.1-2.3c-0.9-1.2-3.8-7.1-3.8-7.1
			s-0.7-3.9-6.8-3.3c-6.2,0.6-7.2-1.6-7.6-3.5s-0.5-2.4-0.5-2.4l0.3-6.9c0,0,0.7-5.5,0.4-7.2c-0.3-1.7-2.1-5.6-3-7.7
			c-0.9-2.1-2.5-9.1-2-10.8s1.9-5.5,3.2-7.4c1.3-1.9,3.8-5.5,4.4-7.6c0.6-2.1,1.5-4-0.2-6.7c-1.7-2.7-1.8-9.6,0.2-12.9
			c2-3.3,4.2-5.6,6.6-7.4c2.4-1.8,8.6-7.1,9.5-8.5s2.4-4.9,3.3-6.2c0.9-1.3,4.5-5.1,5.3-5.7c0.8-0.6,3.3-2.3,5.2-2.6
			c1.9-0.3,7-0.9,8.5-0.8s4,1.1,5.4,1.5c1.4,0.4,2.7-0.5,2.7-0.5s2.7-1.1,4.5-1.1s7.1,0.9,9.3,2c2.2,1.1,10.6,6.3,11.1,7.7
			c0.6,1.4,3.2,5,3.5,5.9s4,5.2,5.5,6.1s5.1,3.6,5.8,4.3c0.7,0.7,3.3,4.1,3.7,4.9c0.5,0.9,2.7,6.3,3.3,7.6s5.1,9.7,5.1,9.7
			s3.9,6.4,4.1,6.9s2.3,2.5,1.1,4.5c-1.2,2-0.2,1.8-0.2,1.8s-1.2,3.3-2.7,5.3s-3.7,5.2-4.4,7.4c-0.7,2.2-1.4,4.3-1.4,6.5
			c0,2.1-0.5,2.9,1,6.2c0,0,0.4,2.1,0.2,3.9s-1.3,5.6-2,6.8c-0.7,1.2-2.6,2.6-3.7,4c-1,1.4-1.9,1.7-1.9,2.9c0,1.2-0.7,4-0.7,4
			s-0.2,0.8-1.6,1.1s-5.8,1.4-5.8,1.4l-1.7,1.2l-1.4,2.2c0,0-2.3,2.4-2.4,2.5c-0.1,0.1-4.2,1.8-4.2,1.8l-3.8,2.3l0.4-4.9
			c0,0,5.3-3.9,6.1-4.4s2.9-2.9,4-4.1c1.1-1.2,3.2-4.7,3.6-6.9s2.3-12.9,2.3-12.9l2-0.8l4.2-3.2c0,0,2.2-2.9,2-5.4
			c-0.1-2.5,0.4-5.6-0.8-6.1s-2.9-2.7-4.1-1.8c-1.3,0.9-0.4-5.8-0.4-5.8s0.5-2.3-1.5-3.6s-2.9-2.9-3-5.1s0.8-6.9,0.8-6.9
			s0.8-2.5-5.9-6.9s-5.4-10.1-5.4-10.1s-0.8-5-2.7-6.3c-1.9-1.3-5.2-5.4-7.1-5.5s-9.9-2.5-9.9-2.5s-6-3-6-4s-1.6,3.2-1.6,3.2
			s-1.4,4.4-3.8,5.6c-2.4,1.3-5.7,4.1-6.6,4.7s-5,2.8-5,2.8l-4.8,3.3L116,68l-2,7.6l-1.9,3l-3.2,3l-1.8,2.2l-0.2,2.9l0.2,4.2
			l-2.2,2.2l-2.4,4l-0.9,3.2l-2.1,0.8c0,0-0.6,1.1-1.1,2.5c-0.5,1.4-1.3,4-0.8,6.1c0.4,2,1,6.3,2.8,7.3c1.8,1,3.1,2.4,4.6,2.4
			s3.5,0.2,3.5,0.2l1.8,4.4l3.4,7l1.5,1.5c0,0,1.3,3.5,2.1,4.5s7.1,6.4,7.1,6.4l1.6,9.6L125.7,152.3z"/>
		<path class="st3" d="M116.3,82.7l11.3-3.9c0,0,4.4-1.1,5.4-2.6s1.1-1.5,1.1-1.5s-0.3-0.6-1.1-1c-0.8-0.3-4.6,1.2-4.6,1.2l-8,3.6
			l-5.1,4.4L116.3,82.7z"/>
		<path class="st3" d="M163.7,81.5L148,77l-2.1-1.7c0,0,0.3-0.8,1.4-1.1c1.1-0.3,2.8-0.4,2.8-0.4s4.7,1,6.3,1.9
			c1.6,0.9,7.3,4.9,7.3,4.9V81.5z"/>
		<path class="st4" d="M111.6,104.5c0,0,2.6,4.7,3,10.8c0.3,6.1,1,13.8,1,13.8l-0.1,2.5l0.3,2.4c0,0,3.9,5.2,5.6,6.8
			s8.6,5.8,10.1,6.3c1.5,0.5,10.1,2.3,12.2,2.3s10.2-1.3,11.7-1.8c1.5-0.6,7.8-3.7,8.3-4s6.4-5,7.3-6.4c0.9-1.4,1.1-1.9,1.1-1.9
			l-1.1-10.4l0.8-11.9l3.3-10.3c0,0-3,0.9-4.1,1.4s-9.6,3.1-9.6,3.1l-8.5,1.7l-12.8,1.3l-11.8-1.3l-13.1-3.4l-4.1-1.8L111.6,104.5z"
			/>
	</g>
</g>
<g id="Слой_3">
	<g>
		<path class="st5" d="M101.7,100.4c0,0,1.3-6.3,4.4-8.2c2.1-1.3,0.2-7.3,1.4-9.3c1.3-2,4.8-3,6.8-8.3s1-11,5.3-13.7
			s14.3-6.5,17.3-13s10-22-13.3-17.5c0,0-8.3,1.9-12.7,12.4c-0.3,0.8-0.7,1.5-1.2,2.1c-1.3,1.6-4.1,4.8-10.2,9
			c-9,6.3-8.3,16-5.8,20.7S89,88.1,87.8,90c-1.1,1.7-4.2,9.5,1.1,18.1c1.3,2.2,2.1,4.6,2,7.2c-0.1,1.8-0.2,4.2-0.6,7.2
			c-1,8.3,0.8,12.3,8,11.5s6,3.3,9.8,9.3s8.5,1.3,10.5,3.5c1.7,1.9,7.2,5.5,7.2,5.5"/>
		<path class="st5" d="M160.9,150.5c0,0,0.9-1.5,5.9-3.3c2.5-0.9,3.9-2.7,4.7-4.4c0.9-1.9,2.8-3.1,4.9-3.3c1.9-0.2,3.9-0.5,4.6-1.1
			c1.5-1.3,0.6-6.4,3.8-8c3.4-1.7,6.3-11.3,4.5-15s-0.5-12,3.5-17.2s6.5-8.8,2-16s-6.5-10-9.3-17.5s-7.8-11.4-10-12.5
			c-2-1.1-6.3-4.3-8.5-9.3s-16.8-18.3-28.9-11.3c0,0-15,2.7-13.4,5.9c1.5,3.2,14.2-5.1,14.2-5.1"/>
		<path class="st5" d="M115.3,83c0,0,20-6,18.8-8.3S120.6,77.3,115.3,83z"/>
		<path class="st5" d="M165.1,81.8c0,0-25.3-5.1-17.8-7.6S165.1,81.8,165.1,81.8z"/>
		<path class="st5" d="M115.4,132.8c-3-2.3-6.6-13.2-6.6-13.2c-6.8,1.3-12.3-5.6-11-13.3c0.6-3.8,2.2-5.7,4.5-5.9
			c1.5-0.1,3.1,0.3,4.4,1c6.4,3.7,34.6,17.3,73.1-0.8c0,0-0.4-4,0-6.5c0.3-2.3-2.5-4.3-3.8-5.3s-0.5-7,0-10s-4.8-6.5-7.3-8
			s-4.3-6-4.5-10.7s-8.1-10.3-11.5-11c-2.9-0.6-11-2.1-13.8-6.4"/>
		<path class="st5" d="M111.1,103.6c4.8,7.9,4.8,22.8,4.4,28c-0.1,1.5,0.5,2.8,1.4,4c2.9,4.2,7.8,9.2,15.3,11.7
			c9,3,22.9,4.2,36.5-7.5c7-6,8.3-22.3,8.3-22.3s5.8-1.6,7.4-6.6s0.6-11.8-4.5-10.4"/>
		<path class="st5" d="M172.1,135.3c0,0-4-19.5,3.1-32.7"/>
		<path class="st5" d="M125.4,116.1c0,0,18.3,6.3,36.6-0.8"/>
		<path class="st5" d="M126.5,125.6c0,0,18.3,6.3,36.6-0.8"/>
		<path class="st5" d="M126.5,137.1c0,0,18.3,6.3,36.6-0.8"/>
		<path class="st5" d="M114.3,93.1c0,0,12.5-9.6,19.4,1.1"/>
		<path class="st5" d="M150.6,95c0,0,8.5-11.9,18,0.5"/>
		<path class="st5" d="M134.7,87.1c0,0,6.7,9.5,5.5,18.3"/>
		<path class="st5" d="M102.6,105.4c0,0,4,2.3,6.4,8"/>
		<path class="st5" d="M101.7,110.9c0,0,2.3-2.9,5.5-0.8"/>
		<path class="st5" d="M180.1,103.6c0,0-3,4-2.6,8.8"/>
		<path class="st5" d="M182.2,107.1c0,0-4.1,0.4-4.3,1.7"/>
		<circle cx="159.7" cy="93.8" r="4"/>
		<circle cx="124.4" cy="93.2" r="4"/>
		<path class="st5" d="M124.6,143.9c0,0,3.5,14,0.8,16.5c-2.7,2.5-44.7,7-51.7,16.2c-7,9.2-7.5,72.8-6.8,77.2"/>
		<path class="st5" d="M161.6,144.8c0,0-3.3,13.2,1.6,16.5c4.9,3.3,37.4-0.7,46.4,14c9,14.7,7.1,78.5,7.1,78.5"/>
		<path class="st5" d="M115.6,163c0,0,21.4,34.2,57.5,0.2"/>
		<path class="st5" d="M140.3,35.9c0,0-14.4,5.2-13.1,8.7S140.3,35.9,140.3,35.9z"/>
		<path class="st5" d="M138.9,31.7c0,0,15.6,1.6,14.3,4.9C152.4,38.8,138.9,31.7,138.9,31.7z"/>
		<path class="st5" d="M140.3,35.9c0,0,20.1,5,15.1,6.7S140.3,35.9,140.3,35.9z"/>
	</g>
</g>
<g id="Слой_4">
	<polygon points="177.8,141.2 191.8,149.5 191.7,139.1 230.6,139.9 230.5,127.6 191.6,126.8 191.5,117.4 177.7,125.2 163.8,132.9 	
		"/>
</g>
</svg>
