<?xml version="1.0" encoding="utf-8"?>
<!-- Generator: Adobe Illustrator 22.1.0, SVG Export Plug-In . SVG Version: 6.00 Build 0)  -->
<svg version="1.1" xmlns="http://www.w3.org/2000/svg" xmlns:xlink="http://www.w3.org/1999/xlink" x="0px" y="0px"
	 viewBox="0 0 283.5 283.5" style="enable-background:new 0 0 283.5 283.5;" xml:space="preserve">
<style type="text/css">
	.st0{fill:none;stroke:#000000;stroke-miterlimit:10;}
	.st1{fill:#98999C;stroke:#000000;stroke-miterlimit:10;}
	.st2{fill:#78797D;stroke:#000000;stroke-miterlimit:10;}
	.st3{fill:#98999C;stroke:#000000;stroke-width:0.7709;stroke-miterlimit:10;}
	.st4{fill:#78797D;stroke:#000000;stroke-width:0.7709;stroke-miterlimit:10;}
	.st5{fill:#D59361;}
	.st6{fill:#2B4B77;}
	.st7{fill:#F9B54E;}
	.st8{fill:#98999C;}
	.st9{fill:#1B3451;}
	.st10{fill:#C1DFF7;}
	.st11{fill:none;stroke:#000000;stroke-width:0.75;stroke-linecap:round;stroke-linejoin:round;stroke-miterlimit:10;}
	.st12{fill:none;stroke:#000000;stroke-width:0.5;stroke-linecap:round;stroke-linejoin:round;stroke-miterlimit:10;}
	.st13{fill:#BA896B;}
	.st14{fill:#2D2C2C;}
	.st15{fill:#352723;}
	.st16{fill:#FCF299;}
	.st17{fill:#FFFFFF;}
	.st18{fill:#F7DDB7;}
	.st19{fill:#482C13;}
	.st20{fill:#BD222E;}
	.st21{fill:#C3D9F1;}
	.st22{fill:#F49719;}
	.st23{fill:#FCD5AD;}
	.st24{fill:#8C9B37;}
	.st25{fill:none;stroke:#000000;stroke-linecap:round;stroke-linejoin:round;stroke-miterlimit:10;}
	.st26{fill:#FCD4B6;}
	.st27{fill:#EE7486;}
	.st28{opacity:0.52;fill:#FFFFFF;}
	.st29{fill:#F9C098;}
	.st30{fill:#462B15;}
	.st31{fill:#90A72D;}
	.st32{fill:#FBBB15;}
	.st33{fill:none;}
	.st34{fill:none;stroke:#E41429;stroke-width:6;stroke-miterlimit:10;}
</style>
<g id="Слой_1">
</g>
<g id="Слой_4">
	<g>
		<line class="st0" x1="0" y1="149.3" x2="283.5" y2="149.3"/>
		<g>
			<path class="st1" d="M38.5,149.1H22.3c-5.1,0-9.3-4.2-9.3-9.3v-36.2c0-5.1,4.2-9.3,9.3-9.3h16.2c5.1,0,9.3,4.2,9.3,9.3v36.2
				C47.8,144.9,43.6,149.1,38.5,149.1z"/>
			<circle class="st2" cx="30.4" cy="139.3" r="9.8"/>
			<circle class="st2" cx="30.4" cy="116" r="6.9"/>
		</g>
		<g>
			<path class="st3" d="M70,148.7h-8.2c-5.1,0-9.3-4.2-9.3-9.3v-23.6c0-5.1,4.2-9.3,9.3-9.3H70c5.1,0,9.3,4.2,9.3,9.3v23.6
				C79.3,144.5,75.2,148.7,70,148.7z"/>
			<circle class="st4" cx="65.9" cy="141.2" r="7.5"/>
			<circle class="st4" cx="65.9" cy="123.2" r="5.3"/>
		</g>
		<g>
			<path class="st1" d="M244.1,148.3h16.2c5.1,0,9.3-4.2,9.3-9.3v-36.2c0-5.1-4.2-9.3-9.3-9.3h-16.2c-5.1,0-9.3,4.2-9.3,9.3V139
				C234.8,144.1,239,148.3,244.1,148.3z"/>
			<circle class="st2" cx="252.2" cy="138.5" r="9.8"/>
			<circle class="st2" cx="252.2" cy="115.2" r="6.9"/>
		</g>
		<g>
			<path class="st3" d="M212.5,148.9h8.2c5.1,0,9.3-4.2,9.3-9.3v-23.6c0-5.1-4.2-9.3-9.3-9.3h-8.2c-5.1,0-9.3,4.2-9.3,9.3v23.6
				C203.3,144.7,207.4,148.9,212.5,148.9z"/>
			<circle class="st4" cx="216.6" cy="141.3" r="7.5"/>
			<circle class="st4" cx="216.6" cy="123.4" r="5.3"/>
		</g>
		<path class="st5" d="M180.7,107.2l0.2-3.9l1.8,2.8l2.2,2.7l2.4,0.4c0,0,0-0.4,0-0.7c0-0.2-6.5-12.3-6.5-12.3l-1.8,1.1l-4.4,1.4
			l1.9,1.8l1.7,3.6l1.3,2.5l0.6,0.8L180.7,107.2z"/>
		<path class="st6" d="M159.8,96.6l-19.7,0.3l-3.9-0.9l-1-16.7l-4.5,2.3c0,0-2.7,1.2-3.4,0.2c-0.7-0.9-0.8-4-0.8-4l3.4-16.9l2.4-3.4
			l3.1-1.4l4.3-0.4l-0.1,7.7l4.4,1.7l4-3.5l4.6-0.6l3.1-5.9l4.7,0.7l1.8,1.1l14.8,29.9l3.8,7.9l0.2,1.5l-1.8,1.1l-4.4,1.4l-1.8-2.5
			l-13-23.8l0.3,3c0,0,0.2,19.3,0.2,19.7C160.2,95.6,159.8,96.6,159.8,96.6z"/>
		<path class="st5" d="M144.3,66.3l2.5-2.3l1.1-2.4l0.7-0.1l3.8-1.4l2.5-2.7l0.8-2.5l-3.2,0.1l0.2-5l0.7-1.6l1.3-0.6l2.4-1.8
			l0.5-1.8l-0.3-1.9l-1.1-0.3l-2,1.8v-2l-1.2-5.3l-1.8-2.5l-1.7-1l-2.7-0.3c0,0-3.9,2.1-4.2,2.4c-0.2,0.3-3.7,3.4-3.7,3.4l-1.2,0.7
			l0.5,1.3l0.5,3.3l1.5,4.8l1.4,2.5l2,2h0.9l-0.4,1.4c0,0-1.8-0.4-1.9-0.3c-0.1,0.1-1.2,0.4-1.2,0.4l-0.9,2.8l-0.4,3.8l-0.1,2.5
			l1.7,0.2l0.9,0.6c0,0,0.9,0.6,1,0.9c0.1,0.3,0.9,1.2,0.9,1.2L144.3,66.3z"/>
		<path class="st7" d="M153.8,43.8l-1.2-7.3l-1.8-2.5l-2.3-1.3h-2.6l-2.6,1.3l-2.8,2.9l-1.9,1.5l-2,1l-2.4,0.7c0,0-4.1,0.4-5-0.4
			c-0.9-0.8-3.6-2.3-3.6-2.3l-2.8-4.1l-0.6-3.5l0.9-2.9l1.8-2.4l1.3-1.1c0,0-0.3,1.2-0.2,1.4s0.6,1.6,0.6,1.6l0.6,0.6l1.1,0.2
			l3.5-1.1l6.3-2.1l5-1l3.4,0.5l1,0.8l0.8,1.6l0.7,0.2l4,1.6l2.7,2.1l1.9,3l-0.1,3l-1.2,6.3l-1,0.2l-1.4,0.9L153.8,43.8z"/>
		<polygon class="st8" points="143.9,54.2 145.2,50.1 146.5,49 148.5,49.1 150.4,50 150.4,51.9 149.2,53.9 147.5,55.1 146.5,55.3 		
			"/>
		<path class="st9" d="M129.2,144.1l-1.5,0.2l-2.1-1.1l-6.9-3.5l0.7-2.7l5.4-12.2L137.2,97l2.9-0.1l5.6,0.2l10.2-0.2l2.9-0.3
			l1.3,12.5l3,31.2c0,0,0.4,0.7-0.4,1.1c-0.8,0.4-3,0.6-3,0.6l-5.6,0.5c0,0-1.1-0.4-1.2-1.1c-0.1-0.6-7.8-25.6-7.8-25.6l-1.1,1.6
			l-7.3,13.5l-5.6,10.1L129.2,144.1z"/>
		<polygon class="st10" points="128.4,148.5 122.5,147.2 120.5,146.9 115.7,146.8 107,145.4 106.4,143.3 107.5,141 112.6,140.3 
			118.8,139.8 122,141.5 128.4,144.5 129.2,144.1 129.2,146.6 		"/>
		<path class="st10" d="M154.4,142.9l-0.5,1.6l0,1.8l0.4,0.9l1.9,0.3l4.7,0.3l3.2,0.2l2.7,0.5l3.3-0.1l3.4-0.6c0,0,0.9-0.5,0.9-0.7
			c0-0.1-0.3-1.2-0.3-1.5c0-0.2-2.4-2-2.4-2.1c0-0.1-2.8-1.3-2.8-1.3s-2.9-0.5-3.2-0.6c-0.3,0-3.1-0.2-3.1-0.2l-2.9,0.6l-5.1,0.6
			L154.4,142.9z"/>
		<g>
			<path class="st11" d="M158.8,97.4c0.3,1,3.6,35.7,4.2,43c0.1,0.8-0.5,1.4-1.2,1.5l-7.2,0.8c-0.6,0.1-1.2-0.3-1.4-0.9
				c-1.6-4.8-8.5-25.5-8.3-25.9"/>
			<path class="st11" d="M137.2,97c-0.1,0.4-15,33.9-18.3,41.2c-0.3,0.8,0,1.7,0.7,2.1l8.1,4.1c0.7,0.4,1.6,0.1,1.9-0.6
				c2.2-4.2,9.6-18.1,15-27.3c2.4-4.2,4.4-7.4,5.3-8.4"/>
			<path class="st11" d="M139.5,55.8c0,0-7.4-0.4-8.6,3.6s-5.8,19.9-4.3,22c1.3,1.8,4.6,0.1,8.5-2c0.6-0.4,1.3-0.7,1.9-1.1
				c5.8-3.8,6.6-5.4,7.9-7.3c0.6-1,0.1-2.4-0.4-3.4c-0.9-1.8-2.9-4-4.5-4.1c-2.5-0.1-6.8,5.8-6.8,5.8"/>
			<path class="st11" d="M152.3,55.1c0,0,8.1-0.6,9.8,1.8c1.4,2.1,15.5,31.3,18.6,37.8c0.4,0.7,0.1,1.6-0.6,2.1
				c-1.9,1.1-5.4,3-6.1,1.5c-0.9-1.8-15.7-28.4-15.9-29"/>
			<path class="st11" d="M159.7,72.4c0,0,1.7,23.8,0.1,24.3s-23.3,1.1-23.6-0.6s-1-16.7-1-16.7s-18.8,19.7-7.6,29.9
				c2.9,2.6,6.8,3.6,10.7,3.1c9.2-1.2,31.8-3.7,36.4,0.5c5.7,5.2,15.3,27.8,27.2,26.9c11.9-0.9,7.3,9.5,7.3,9.5"/>
			<path class="st11" d="M154,43.5c0.2-0.1,0-6.9-3.1-9.6s-6.8-1.4-9.5,2.1s-11.3,7.4-16.9-0.3c-5.6-7.6,1.9-12.5,1.9-12.5
				s-0.8,2.9,1.4,3.7c2.1,0.8,19.1-8.8,20.8-1.2c0,0,10.7,1.9,9.2,10.2s-1.1,5.6-1.1,5.6"/>
			<path class="st11" d="M153.5,44.1c0,0,2.9-4.1,3.6-1.3s-1.1,4.4-1.8,4.6s-2.2,1-2.2,1s-0.4,3.6-2.7,4.3"/>
			<path class="st11" d="M143.4,52.8c-5.1-3.6-5.6-13.4-5.6-13.4"/>
			<path class="st11" d="M140.1,42.3c0,0,2-0.3,3.3-1"/>
			<path class="st11" d="M148,41.2c0,0,1.7,1.4,3.4,1.4"/>
			<path class="st11" d="M147.2,37.8c0,0,2.4-1.5,3.9,0.5"/>
			<path class="st11" d="M140.1,39c0,0,2.2-2.1,3.8-1"/>
			<path class="st11" d="M145.2,41.6c0,0,0.4,2.6,0.2,3.5s-0.5,1.4-0.5,1.4l3.1,0.3"/>
			<path class="st11" d="M143.9,53.8c0,0,1.1-3.8,2-4.5c1-0.7,5.5-0.3,4.3,2.7s-2.9,3.3-3.1,3.5c-0.2,0.3-3.3-1.3-3.3-1.3"/>
			<line class="st11" x1="152.4" y1="50.7" x2="152.1" y2="58.9"/>
			<path class="st11" d="M143.9,66.3c0.4-0.1,3.7-2.1,4-4.6c0,0,5.9,0,7.7-5.9"/>
			<path class="st11" d="M139.4,62.8c0,0,0.1-7.8,1.8-8.6s3.1,0.2,3.1,0.2l-0.9,2.4"/>
			<line class="st11" x1="145.9" y1="55.5" x2="144.9" y2="57.6"/>
			<path class="st11" d="M147.8,55.7c0,0,0.4,1.8,0,2.6s0.7,3.2,0.7,3.2"/>
			<path class="st11" d="M154.4,142.9c0,0-1.6,3.8,0.7,4.4s8.5,0.3,10,0.9s8.4,0.4,9.4-0.8s-4.3-5-6.1-5.4s-5.8-0.5-5.8-0.5"/>
			<path class="st11" d="M129.2,144.5c0,0,0,3.7-0.8,4c-0.8,0.3-6.8-1.9-8.6-1.6s-13.4-1-13.4-2s-0.6-4.2,2.5-4.4s9.9-0.8,9.9-0.8"
				/>
			<path class="st11" d="M175.4,98.8l4.2,7.9c0,0,1,2,1.2-0.2s0-3.2,0-3.2s3.3,5.3,4.5,5.7c0.4,0.1,0.9,0.2,1.3,0.2
				c0.6,0,1-0.6,0.7-1.2c-1.3-2.2-4.3-7.8-6.4-11.8"/>
		</g>
		<path class="st12" d="M146.9,49.2c0,0-1.4,2.2-1.5,3.6"/>
		<path class="st12" d="M148.3,49.2c0,0-1.8,3.1-1.8,3.9"/>
		<path class="st12" d="M149.5,49.9c0,0-1.5,2.9-1.5,3.7"/>
	</g>
</g>
<g id="Слой_14">
	<path class="st13" d="M118.5,179.8c0,0,7.6-2.6,8.3-3.9l-4.2-8.8l-8.8-18.6l1.1-5.8l1.5-6.7c0,0,0.8-2.5,0.4-3.5
		c-0.4-1-1.2-1.8-1.2-1.8s-0.2-0.2-0.7,0.2s-3.7,6.6-3.7,6.6s-0.1,1-0.6,0.5c-0.5-0.5-3.7-9.4-3.7-9.4s-1.2-2.6-1.5-2.5
		s-0.9,1.4-0.9,1.4l-1.3-1.3l-0.4,0.7l1.5,9.2l0.2,2.9c0,0-0.3,0.9-0.6,0.7s-7.1-8.7-7.5-9.1s-1-0.5-1-0.5s0.1,1.4,0.9,2.9
		c0.7,1.5,3.4,6.7,3.4,7c0,0.3,0.6,2.2,0.6,2.2s-0.5,0.9-0.5,0.9s-1.6,0-2.3-0.2s-4.1-1.2-4.3-1.2c-0.2,0-1,0-1,0.3s0.2,1.5,0.8,1.7
		c0.7,0.2,12.7,7.6,12.7,7.6L118.5,179.8z"/>
	<path class="st13" d="M136.4,184.1l3.2-1.7l0.7-1.5v-1.8l-4.7-7.1l-1.2-3l-2.4-1.9l-1.9-4.4l0.7-1.4l2.9,0.5l0.8-4.1l2.6-5.3
		l0.9,2.7l3.9-4.2l1.5,0.8l2.9,3.7l-0.6-5.4l2.3,1.2c0,0,4,2.2,4.1,3.5l-0.3-4.8l5.9,10.2l1.2,1.3l0.7,1.2c0,0,0.6,2.3,0,2.8
		c-0.6,0.5-3.8,4.9-3.8,4.9l-2.4,6.1l-2.7,3.7l0.5,2.2l1,1.7l1.3,0.2l4-2.9l-2.1,2.9l-6.1,3.8c0,0-5.6,0.5-6.7,0.2
		c-1.2-0.4-6.4-3.3-6.4-3.3l-1.2-1L136.4,184.1z"/>
	<path class="st13" d="M170.8,180.1l10.6-16.9c0,0,3.8-5.5,4-5.7c0.2-0.1,11.1-14.3,11.1-14.3l0.7-3.5L195,141l-6.5,6.8
		c0,0,2.1-4.8,2.5-6.4c0.4-1.7,0.8-5.7,0.8-5.7h-0.7l-3.2,6.3l-2.2,5.6l1.6-11.4l-0.8-0.6l-1.8,1.8l-3.5,9.2l-1.2,1.2l-1.7-2.4
		l-1.1-0.5l-0.5,1.2l1.8,9.1l-13.9,21.4L170.8,180.1z"/>
	<path class="st14" d="M133.4,161.3l1.6-6.3l2-2.6l0.9,2.7l3.9-4.2l4.3,3.9l-0.5-4.7l4.3,2.6l2,2.2l-0.3-4.8l6.4,11.2l0.8-0.7
		c0,0,1.6-2.6,1.5-4.1s-1.8-8-1.8-8s-1-3.4-3-4s-3-0.5-3.8-0.4s-3.4-0.8-3.9-0.9s-3.6-1.2-3.6-1.2h-4.6l-4.7,2.2l-3.4,4.6l-0.9,6.9
		l0.8,5.1L133.4,161.3z"/>
	<path class="st15" d="M120.4,283.5l-0.6-16.6l4.3-30.5c0,0,7.2,3.9,13.1,3.9s21.5-1.8,25.8-4.6c0,0,2,12.6,1.4,14.3
		c-0.6,1.6-0.2,34.2-0.2,34.2L120.4,283.5z"/>
	<path class="st16" d="M163.4,234.4c0,0,0.5-3.5,0-6.2s-3.5-26.6-3.5-26.6l6-11.5l5.9-9.5l-8.2-4.8l-6.2,5.6l-2.6,3.4l-4,2.3
		c0,0-4,2.6-4.8,2.1s-4.8-1.5-4.8-1.5L135,184l-2.1-0.8l-5.4-8.7l-0.7,1.3c0,0-7.7,4.1-9.9,4.4l10.3,21.9l-3.9,20.8l-0.2,12.7
		l3.8,2.1c0,0,7,2.4,8.2,2.3c1.2-0.1,6,0.2,7.2,0.3c1.2,0.1,7.8-0.4,9.7-1.2s8.9-2.4,9.1-2.8s2.1-0.7,2.1-0.7L163.4,234.4z"/>
	<path class="st17" d="M142,161.7c-0.1-0.3-0.4-0.5-0.7-0.5c-0.7,0-1.4,0-2.1,0.1c-0.4,0-0.8,0.2-0.8,0.6c-0.1,0.3,0.1,0.6,0.3,0.7
		c0,0-0.1,0-0.1,0.1c-0.1,0-0.1,0.1-0.1,0.2c0-0.1-0.1-0.2-0.2-0.4c-0.2-0.2-0.2-0.4-0.2-0.7c-0.1-0.7-1.1-0.7-1.4-0.3
		c-0.5-0.1-1,0.4-0.6,0.9c0.3,0.4,0.7,0.7,1.1,1c0.4,0.3,0.9,0.2,1.1,0c0,0.2,0.1,0.4,0.2,0.5c0.4,0.4,0.9,0.3,1.3,0.1
		c0.6-0.4,1.2-0.7,1.8-0.9C142.3,162.7,142.3,162.1,142,161.7z"/>
	<path class="st17" d="M152.7,161.8c-0.4-0.1-0.8-0.2-1.2-0.4c-0.4-0.1-0.7,0.1-0.9,0.3c-0.1-0.1-0.3-0.2-0.5-0.2
		c-0.3,0-0.6,0-0.9,0c-0.3,0-0.7,0.2-0.8,0.6c-0.3,0-0.6,0.4-0.3,0.7c0.4,0.4,0.8,0.6,1.3,0.9c0.5,0.3,1.2-0.2,0.9-0.8c0,0,0,0,0,0
		c0.2-0.1,0.4-0.2,0.4-0.4c0.1,0.1,0.1,0.1,0.2,0.1c-0.1,0.1-0.2,0.2-0.3,0.4c-0.2,0.3-0.1,0.7,0.2,1c0.3,0.3,0.8,0.2,1.1,0
		c0.4-0.3,0.8-0.8,1.2-1.2C153.4,162.5,153.1,161.9,152.7,161.8z"/>
</g>
<g id="Слой_9">
	<path class="st11" d="M150.7,180.3c0,0,0.7,5,2.8,4.1s10.2-8.5,10.2-8.5l8.2,4.8c0,0-11,16.9-12,20.9c0,0,1.3,15,3,23.9
		c1.7,8.8,0,10.2,0,10.2s-24.3,10.7-39.8,0c0,0-1.2-7,1-17s3.2-16.5,3.2-16.5s-9.5-21.8-10.3-21.9c-0.8-0.1,9.8-1.9,10.7-5.7
		c0,0,4.4,8.3,5,8.6c0.4,0.2,0.6,0.2,1.1,0.4c0.2,0.1,0.5,0.2,0.8,0.3c2.9,1.2,6.3-1,5.9-4.1c0-0.2,0-0.4-0.1-0.5"/>
	<path class="st11" d="M135,184c0,0,11.5,11.7,22.1-1.6"/>
	<path class="st11" d="M133.6,183.5c0,0,3.3,11.1,14.7,9.9c0,0,8.6-0.8,9.2-11.3"/>
	<path class="st11" d="M118.5,179.8l-12.9-28.8c0,0-14.7-7.8-13.4-9.2c1.3-1.4,6.3,2.3,7.8,0.9c1.5-1.3-5.7-12-4.7-12.8
		c1-0.8,6.2,9,8.5,9.7c2.3,0.7-2.3-14.2-0.7-13.5c1.7,0.7,4.5,12.2,4.5,12.2"/>
	<path class="st11" d="M126.8,175.9c0,0-12.6-26.7-12.9-27.2c-0.3-0.5,2.8-13.2,3-14.7c0.2-1.3-0.5-5.5-3-2
		c-2.5,3.5-2.3,6.8-3.5,5.7c-1.2-1.2-3.6-11.7-5-11.7c-1.3,0-0.8,2.2-0.8,2.2"/>
	<path class="st11" d="M164.7,176.5c0,0,13.9-20.2,13.8-21.5s-2.5-9.8-1.2-10.2c1.3-0.3,2.2,2.5,2.8,2.9c0.7,0.4,2.7-4.1,3.7-7.1
		s3.1-6.3,3.5-4.5c0.1,0.6,0,1.9-0.2,3.5c-0.5,3.5-1.4,8.1-1.4,8.1s5.2-14.5,6.2-12.1c1,2.2-3.1,12.7-3.1,12.7s8.2-10.7,8.6-8.3
		c0.5,3-5.1,9.5-5.1,9.5s0,0,4-1.5s0,3.8,0,3.8s-10.2,5.2-10.8,5.7c-0.7,0.5-14.6,22.6-14.6,22.6"/>
	<path class="st11" d="M133.6,161.8c0,0-4.4-2.2-3.4,1.7s4.2,5.5,4.2,5.5s4.5,13.8,13.1,12.3c2.7-0.4,4.8-2.3,5.9-4.8
		c0.8-1.9,1.9-4.5,2.4-6.1c0.1-0.3,0.2-0.5,0.4-0.8c1.4-1.5,6.7-7.5,0.8-8.4"/>
	<path class="st11" d="M135.9,157.7c0,0,8.5,0,8.9,1.4c0.5,1.4-0.9,8.6-1.4,9.1s1.8,1.6,2.7,1.1"/>
	<path class="st11" d="M141,172c-0.1,0.3,4.5,6.4,9.1,1"/>
	<path class="st11" d="M135.9,161.5c0,0,3.7-1.3,6.4,0.4"/>
	<path class="st11" d="M147.9,161.9c0,0,3.3-1.5,5.1,0"/>
	<path class="st11" d="M147.5,159.1c0,0,3.2-2.2,6.6-0.4"/>
	<path class="st11" d="M133.4,161.3c0-0.3,2.2-8,3.6-8.9l1,3.2c0,0,2.8-4.2,3.7-4.6c1-0.5,4.1,3.8,4.4,4.5c0.3,0.7-0.6-5.4-0.6-5.4
		s5.5,2.7,6.4,4.8l-0.3-4.8c0,0,5.9,9.3,6.4,11.4c1.8-1.5,2.7-4.6,2.3-7.6c-0.5-3-2.8-11.3-8.5-9.7c-0.7,0.2-1.4,0.1-2.1-0.2
		c-3.3-1.6-13.5-5.4-17.6,4.8c0,0-2.8,7.4-0.6,12"/>
	<ellipse cx="138.8" cy="162.7" rx="1.5" ry="1.7"/>
	<ellipse cx="150.8" cy="163.2" rx="1.5" ry="1.7"/>
	<path class="st11" d="M124.2,236.4c0,0-6.8,35-3.3,47.1"/>
	<path class="st11" d="M144.3,249.2c-4,2.8-3.9,16.6-2.6,34.3"/>
	<path class="st11" d="M162.8,235.7c0,0,3.3,13.1,1.5,48.5"/>
	<path class="st11" d="M131.6,163.2c0,0,1.8,1.3,2.6,3"/>
	<line class="st11" x1="131.9" y1="165.2" x2="132.9" y2="164.8"/>
	<path class="st11" d="M158.1,163.2c0,0-2.4,2-2.4,3.7"/>
	<line class="st11" x1="157.6" y1="165.5" x2="156" y2="165.5"/>
</g>
<g id="Слой_15">
	<path class="st18" d="M237.9,145.5c0,0,1.8,0,2.8,0.8c1,0.9,2.9,2.3,2.9,2.3l1.4-0.7l6.8-3.5c0,0,1.5-1.3,1.9-1.9
		c0.4-0.6,1.2-2.4,1.2-2.4l-0.3-0.6l-2.1,0.9l-1.3,1.4l-0.5,0.1l-0.2-1.5l2.2-6l1-4.2l-0.4-1l-1.1,0.4l-0.1-0.6l-0.9,0.1l-4.8,7.8
		l-0.8,0.4c0,0,0.3-2.2,0.3-2.3c0-0.2,0.6-4.9,0.6-4.9l-0.1-1.2l-1.4,1l-3.5,8.4l-1.5,3.2c0,0-0.3-0.7-0.4-0.9
		c-0.1-0.2-0.9-3.6-0.9-3.6l-0.5-0.5l-0.4,4L237.9,145.5z"/>
	<path class="st18" d="M190.3,186.9l-2.7,0.7v0.7l4.1,1.8l6.3,2.2l3.8-0.1c0,0,2.1-0.8,2.3-1c0.2-0.2,2-3.7,2-3.7l1.3-5.9l0.3-4
		l-1.1,0.9l1.6-4.4l1.5-5.7l0.9-4.6l-0.7-3.9l-3.1-6.4l-2.4-0.9l-4.6-0.4l-3.6,1l-3.6,2.9l-3.2,5.6l-0.8,3.4l-0.1,1.9l-1.6-1.5
		l-2.2-1.3l-0.9,0.5l-1.1,1.9l-0.5,2.8v1.6l1,2.4l1.9,1.4l0.8,0.6l0,1.7l1,2.6l1.6,2.5l0.9,1.8l0.5,2.1L190.3,186.9z"/>
	<path class="st18" d="M167.5,251.9l-1.2,5.3l-1.3,3.2l-1.2,1.5l-2.2,1.2l-1.5-0.4c0,0,1.1-2.7,1.1-2.9c0.1-0.3,0.1-1.4,0.1-1.4
		l-2.7,1.8l-6.3,3.2l-2.7-0.4l-0.9-1.2l-0.1-1.6l10.8-10.3l0.8,0.6l3.7,1.1l3.1,0.3L167.5,251.9z"/>
	<path class="st19" d="M187.6,167.1l-1.5-2.3l-1.9-0.2l-1.4,2.8l-0.3,0.6l-2.2-8.6c0,0,1.5-5.7,1.6-5.9s2.6-3.2,2.6-3.2l2.7-0.6
		l1.2,0.1l4.4-3.6l4-1.3c0,0,3.3,0.3,3.7,0.4c0.4,0.1,4.6,2.1,4.6,2.1l4.9,5l1.8,2.9l-1.7-0.8l-5.1-1.7l-2.8-0.5l-4.9,0.5l-2.8,1.6
		l-3,3.6l-2.1,4.4l-0.6,3.4L187.6,167.1z"/>
	<polygon class="st20" points="168.2,251.6 166,251.8 161.3,251.2 159.3,249.9 158.8,248.8 161.5,241.2 167.7,223.6 177.4,198.2 
		181.3,190.3 183.7,188.8 186.4,187.9 187.5,188.3 194,190.9 199.5,192.1 203.6,191.8 205.6,188.8 207.3,182 207.7,177.3 
		222.8,161.5 237.9,145.5 238.9,145.1 241.4,146.8 243.7,149.2 242.4,151.2 223.7,180.9 211.7,200 211.7,236.7 203.5,243.3 
		195.5,247.4 183.1,252.3 180.4,253.1 179.4,253.1 179.8,222.9 175.4,233.5 	"/>
	<path class="st21" d="M180.4,253.1c0,0,18-6.6,23-9.9s8.2-6.6,8.2-6.6s0.6,9.1,0.5,11.6c-0.1,2.5-2.5,35.1-2.5,35.1h-28.4l-0.4-2.6
		L180.4,253.1z"/>
</g>
<g id="Слой_8">
	<path class="st11" d="M181.3,283.5c0,0-1.7-25.3-0.8-30.3c0,0,23.4-7,31.3-16.5c0,0,1.8,13.8-1.4,32.5"/>
	<path class="st11" d="M200.9,251.9"/>
	<path class="st11" d="M201.9,249.3c-0.4,0.6-11.1,4-7,34.1"/>
	<path class="st11" d="M184.9,210.6c-0.1,0.2-1.6,3.9-3.7,9.1c-5,12.2-13.2,32.2-13.2,32.2s-10.6-0.1-9-3.8
		c1.6-3.6,19.2-56.7,23.1-58.6c4.1-2,7.9-2.4,7.9-2.4"/>
	<line class="st11" x1="179.4" y1="252.9" x2="180.3" y2="222"/>
	<path class="st11" d="M211.7,236.7V200l32-50.8c0,0-4.4-5.6-6.1-3.4c-1.7,2.2-31,32.8-31,32.8"/>
	<path class="st11" d="M187,188.1c0,0,14.1,7.2,17.3,2.9c3.2-4.3,3.4-13.6,3.4-13.6"/>
	<path class="st11" d="M238,144.8c0,0-0.4-9.3,0.5-8.6c0.8,0.8,1.2,5.7,1.8,4.8c0.6-0.9,4.9-13.1,6-12.2c1.1,0.9-1.3,8.6-0.3,8
		c1-0.7,5.4-9.2,6.2-8c0.8,1.2-3.8,9-3.8,9"/>
	<path class="st11" d="M250.7,139.6c0.3-0.5,3.7-8.7,3-10.2c-0.7-1.4-1.7,0.5-1.7,0.5"/>
	<path class="st11" d="M243.7,148.6c0.3-0.2,8.2-3.5,9.5-5.2c3.7-4.6,1.1-4.5-0.5-3c-2.8,2.7-2.5,1.3-1.9-0.6"/>
	<path class="st11" d="M188.5,167.1c0,0-4.6-5.4-5.6-0.4c-1,4.8-0.5,6.6,2.6,8.5c0.3,0.2,0.5,0.5,0.5,0.9c0,0.7,0.1,2,1,3.7
		c1.3,2.5,7.2,8.6,11.8,6.3c4.6-2.3,6.8-4.5,8.4-9.3c1.7-4.7,3.7-11.9,2.8-16c-0.9-4.1-3.5-7.5-3.5-7.5"/>
	<path class="st11" d="M182.4,167.8c0,0-3.2-8-1.4-12.6c2.4-5.9,4.7-5.6,7.3-5.3c0,0,12-13.8,23.6,5.5c0,0-12.4-6.9-18.3-0.5
		c-5.9,6.4-5.1,12-5.1,12"/>
	<path class="st11" d="M192.8,165.2c0,0,4.1-2.1,7.4-0.5"/>
	<path class="st11" d="M210,165.3c0,0-5.3-2.5-5.8,0.4s-0.7,5.3,0,7.1c0.7,1.8,0.1,2.6-1.4,1.8"/>
	<path class="st11" d="M192.3,167.8c0,0,3.5-1.4,5.5,0"/>
	<path class="st11" d="M204.9,168.8c0,0,1.8-1.7,3.7,0"/>
	<path class="st11" d="M194,177.3c0.3,1.4,3.1,5,7.2,3.2"/>
	<path class="st11" d="M188.6,182c0.1,0.2,2.2,4.2,1.6,6.2"/>
	<path class="st11" d="M185.6,167.5c0,0,1.9,2,1.9,4"/>
	<line class="st11" x1="184.8" y1="169.5" x2="186.6" y2="169.6"/>
	<path class="st11" d="M158.8,249.9c0,0-8.9,8.6-10.1,10c-0.9,1.1,0.2,5.9,6.4,2.3c6.2-3.5,6.4-4,6.4-4s-0.5,3.2-1.3,4.1
		c-0.8,0.8,3.1,1.2,4.7-1.9c1.7-3.1,2.6-8,2.6-8"/>
	<path class="st11" d="M148.5,261.4c0,0,4.6-3.1,5.3-3.7"/>
	<path class="st11" d="M149.2,262.8c0,0,8.3-4.5,8.7-5.1"/>
</g>
<g id="Слой_16">
	<path class="st22" d="M214.1,212.8c-0.4-1.1,0.3-2.2,1.5-2.4c1-0.1,2.2-0.4,2.9-0.7c1.2-0.7,3.1-2.1,3.7-2.6
		c0.1-0.1,0.3-0.3,0.4-0.4c0.7-1,3.3-5.2,3.8-7.9c0.4-2.7,0.7-7.7,0.7-8.7c0-0.1,0-0.3,0-0.4l-2.3-12.5c0-0.1,0-0.2,0-0.3l0.5-7.6
		c0-0.3,0.2-0.9,0.4-1.1l3.5-8.2c0.1-0.2,0.3-0.4,0.4-0.5l5.9-4.8c0.2-0.1,0.4-0.3,0.6-0.3l2.9-0.9c0.1,0,0.3-0.1,0.4-0.1l6.7,0
		c0.1,0,0.4,0.2,0.6,0.2l3.9,0.7c0.1,0,0.8,0,0.9,0.1l5.9,1.9c0.2,0.1,0.3,0.2,0.5,0.3l4.3,4.8c0.2,0.2,0.6,0.8,0.7,1.1
		c0.6,1.7,3,6.8,3.3,8.6c0.2,1.5,0.4,3,0.4,3.8c0,0.4,0,0.7-0.2,1.1l-1,1.8c-0.1,0.2-0.2,0.4-0.2,0.6l-1.5,9.9c0,0.2,0,0.4,0,0.7
		l2.4,10.6c0,0.1,0,0.2,0,0.3c0,1-0.4,5.4-0.9,7.2c-0.4,1.7-4.5,7.4-7.3,8.8c-0.6,0.3-1.1,0.6-1.7,0.4l-5.2-1.6
		c-0.4-0.1-0.7-0.3-1-0.6l-4.3-5.4c-0.6-0.8-1.7-0.9-2.5-0.3l-3.9,3c0,0-0.1,1.3-0.2,1.3l-3,1.6c-0.2,0.2-0.5,0.3-0.8,0.4
		c-1.8,0.4-8.6,2.1-10,2.9c-1,0.6-3.3,2.2-4.3,2.7c-0.6,0.3-0.6-0.7-1.2-1.1l-1.1-0.9c-0.1-0.1-0.2-0.2-0.3-0.3l-4.1-4.1
		C213.9,213.5,214.2,213,214.1,212.8L214.1,212.8z"/>
	<path class="st23" d="M252.1,215.2l-4.4,4.4l-2.6,2.3h-2.2l-3.1-1.9l-4.9-4.7l1.8-1.4l2.1-1.4l0.5-4.7l0-4.1c0,0-5.5-3.2-5.6-5.4
		c-0.1-2.2-3.7-8-3.7-8l-3.9-1.6l-3-3.2l-1.3-4.6l1.3-1.8l1.4-0.8l3.2,0.8c0,0,2.8-1,2.7-1.7c-0.1-0.6,6.5-4,6.5-4l7.7-5l5.4-6.1
		l2.1,1.2l2.5,3l5.7,12.3l2.5-2.3l2-0.5l2.3,1.3l0.8,3.2v2.8l-0.9,2.3l-3.1,3.2l-4.7,2.1l-0.8,2.3l-1.3,3.5l-6,6.2l-2.2,2.1l0.6,6.4
		l1.1,2.8L252.1,215.2z"/>
	<path class="st24" d="M222.8,284.4l0.5-30.5l-8.3,29.5l-14.9,1l13.1-48l3-10.2l1.7-2.6l4.3-4.5l11.6-4.2h1.2l2.5,2.5
		c0,0,2.8,3.1,4.2,3.8c1.3,0.7,2.9,0.6,2.9,0.6l4.5-3.5l3.1-3.1l3.8,0.9l6.9,3.9l3.4,2.7l1.1,4.2l1.8,13.5l4.8,43.1h-10.3l-3.5-24.5
		l-0.8,2.8l0.3,21.7L222.8,284.4z"/>
	<path class="st17" d="M238.1,182.6C238,182.6,238,182.6,238.1,182.6c0-0.3-0.1-0.6-0.4-0.8c-0.3-0.2-0.6-0.4-0.9-0.6
		c-0.1-0.1-0.1-0.1-0.2-0.1c-0.3-0.2-0.7-0.2-1,0.1c0,0,0-0.1,0-0.1c-0.1-0.3-0.4-0.5-0.7-0.6c-0.1,0-0.2,0-0.4,0
		c-0.3,0-0.7,0.1-0.8,0.4c-0.5-0.1-1,0.5-0.8,0.9c-0.1,0.1-0.1,0.1-0.2,0.2c-0.3,0-0.5,0.1-0.5,0.4c0,0,0,0,0,0.1
		c0,0.2,0.1,0.3,0.2,0.4c0.6,0.3,1.3,0.6,1.9,0.8c0.5,0.2,1.2-0.5,0.7-0.9c0,0,0,0-0.1,0c0.2-0.1,0.3-0.3,0.2-0.6
		c0-0.1-0.1-0.2-0.1-0.2c0.1,0,0.2-0.1,0.3-0.2c0,0.2,0.1,0.5,0.3,0.6c0,0,0,0,0.1,0c-0.1,0.3,0,0.5,0.2,0.7c0,0-0.1,0-0.1,0.1
		c-0.1,0.2,0,0.4,0.1,0.5c0.5,0.3,1.1,0.2,1.7,0.2C238.2,183.7,238.7,183,238.1,182.6z"/>
	<path class="st17" d="M252,183.1c0-0.1,0-0.2,0-0.3c0,0,0,0,0,0c0.5-0.4,0.1-1.4-0.7-1.2c-0.3,0.1-0.6,0.2-0.8,0.5
		c0,0.1-0.1,0.1-0.1,0.2c-0.2,0-0.5,0.1-0.6,0.3c-0.1,0-0.2,0-0.3,0c-0.3,0-0.6,0.4-0.2,0.6c0.6,0.4,1.3,0.6,2,0.8
		C251.9,184.2,252.5,183.5,252,183.1z"/>
	<path class="st17" d="M255.6,182.6c-0.1-0.5-0.6-0.8-1.1-0.8c0,0,0,0-0.1,0c-0.1,0-0.1-0.1-0.2-0.1c0,0,0,0,0,0
		c-0.1-0.3-0.4-0.5-0.7-0.6c-0.2,0-0.3,0-0.5,0c-0.7,0-1.2,0.9-0.5,1.3c0.2,0.1,0.5,0.2,0.7,0.4c0,0.2,0.1,0.3,0.2,0.4
		c-0.1,0.1-0.2,0.1-0.3,0.2c-0.2,0.1-0.2,0.4-0.1,0.5c0,0,0,0.1,0.1,0.1c0.1,0.2,0.5,0.3,0.7,0.1C254.7,184,255.9,183.7,255.6,182.6
		z"/>
</g>
<g id="Слой_6">
	<path class="st25" d="M200.2,284.4l14-52.7c1.2-4.9,4-9.4,8.1-12.4c0.9-0.6,1.8-1.2,2.8-1.7c5.1-2.4,12.9-2.7,13.9-6.1
		c1-3.4,0.5-7.9,0.5-7.9"/>
	<path class="st25" d="M249,204.8c0,0,0,8.5,2.7,9.8c1.7,0.8,6.7,2.5,10.6,4.9c2.3,1.5,4.2,3.2,4.7,5.2c1.4,5.4,7.1,59.6,7.1,59.6"
		/>
	<line class="st25" x1="223.8" y1="241.9" x2="222.8" y2="284.4"/>
	<line class="st25" x1="259.8" y1="240.9" x2="259.8" y2="283.5"/>
	<path class="st25" d="M234.4,214.7l6.9,6.3c1.2,1.1,3,1.1,4.3,0l6.9-6.1"/>
	<line class="st25" x1="223.3" y1="253.9" x2="215.1" y2="283.5"/>
	<line class="st25" x1="259.8" y1="257.6" x2="263.7" y2="283.5"/>
	<path class="st25" d="M220.3,219.9c0,0-6.2-4-7.1-8.9c0,0,14.2,1.6,13.7-20.8"/>
	<path class="st25" d="M257.3,216c0,0,10.7-6.3,8.1-17.8s-2.2-9.3-2.2-9.3"/>
	<path class="st25" d="M224.5,178.3c0-0.3-2.1-30.4,25.5-24.2c0,0,6.2,7.3-9.8,17.4c0,0-12,6.9-12,7.6"/>
	<path class="st25" d="M250,154.1c0,0,15,0.3,16.3,21.6"/>
	<path class="st25" d="M229.9,182.2c0,0-4.4-7.6-7.6-2.1c0,0-2,7.7,7.6,10.2c0,0,4.8,17,16.8,14.5c2.6-0.5,4.9-2,6.7-4
		c2.1-2.4,5.1-6.3,5.9-9.9c0,0,8.9-3.3,8.8-8.8c-0.1-5.5-4-8.8-7.6-2.9c0,0-5.4-11.9-7.5-14.5c-2.4-3-3.1-2.2-3.1-2.2"/>
	<path class="st25" d="M238.9,196.5c0,0,5.5,7.6,10.7,0"/>
	<path class="st25" d="M233.9,176.3c0,0,7.8,0.7,8.2,1.9c0.5,1.2,0,12.5,0,12.5s3.2,1.1,3.7,0"/>
	<path class="st25" d="M247.9,178.3c0,0,6.1-3,9.4-1.1"/>
	<path class="st25" d="M232,181.9c0.3,0,3.5-3.7,6.9,1"/>
	<path class="st25" d="M249,182.9c0,0,4.2-4.1,6.9,0"/>
	<path class="st25" d="M225.8,182.9c0,0,3.3,1.8,3.8,3.3"/>
	<line class="st25" x1="226.3" y1="185.2" x2="227.7" y2="184.5"/>
	<path class="st25" d="M264.8,180.5c0,0-3.7,1.4-4,3.3"/>
	<line class="st25" x1="264.8" y1="182.9" x2="261.5" y2="182.6"/>
	<ellipse cx="235.5" cy="182.5" rx="1.2" ry="2"/>
	<ellipse cx="252.6" cy="182.9" rx="1.2" ry="2"/>
</g>
<g id="Слой_12">
	<g>
		<path class="st26" d="M56.4,168.7l-2.5-2.5l-2.9-3.9l0.3-1.6l0.3-3.7l-2.3-1.5l-5.4-6l-2.7-4l1.4-1.4l-0.3-2l-2.1-2.4l-1.1-2.2
			l0.4-2.3l1.3-1.4l3.1-1l4-1.6l1.7-2.1l0.1-2.8l1.1-3l2.7-2l2.7-1.8l1.4,0l4.1,1.2l1.5,1.4l0.3,3.1v3.1l1.9,2l1.9,1.8l0.5,1.8
			l-0.9,3.2l-0.6,2.7l-0.3,2.8l0.5,0.7l2.1,1.8l1.1,1.7l-0.1,1.4l-1.7,2.2l-7.1,6.1c0,0,0.7,2.4,0.5,2.8s0.4,2.8,0.4,2.8l-1.8,2.3
			L56.4,168.7z"/>
		<path class="st26" d="M10.7,257.7l2.9,0.2l3.2-1.5l3.2-3.8c0,0,2.7-3.1,2.8-3.2c0.1-0.1,1.9-1.2,1.9-1.2l1.7,0.7l1.5,2l1.7,1.7
			l1.2,0.6l0.6-0.6l-0.4-5.2l-0.6-7.8l-9.4-1.8L9.7,251.3l2,0l3-2.2l-1.1,1.8l-2.9,5.2l-0.3,1.1L10.7,257.7z"/>
		<path class="st21" d="M32.3,239.6l-12.3-2l1.1-4.1l4.5-13.2l1.7-5.4l0.7-6.1l1.6-33.2l1.3-1.2c0,0,10.8-3.7,11-3.8
			s3.4-0.7,3.4-0.7l-1.8-1.1l2.4-2.4l4.9-4.3l5.2,6.8l0.7-0.9l5.1-6.3l5.8,5.9v1.1l1,0.4l6,2.3l2,1.5l1.5,2.7L84,191l-1.9,8.3
			l-0.1,6.4l1.7,2l8.1,1.9l5.2,0.4v3.2l-0.6,1.7l-2,1.3l-4.1,1.4l-1.9-2.1l-12.7-14.1l-4.5-5.1v1.4l2.9,41.6l-1.8,0.5l-16.5,3.9
			l-3.5-0.3l-16.5-1.2l1.1-15.4l2-23.2l-0.9,3.4l-4.3,24l-0.6,0.8l2.2,0.2L32.3,239.6z"/>
		<polygon class="st27" points="33.4,283.5 38.2,242.6 55.8,243.8 72.3,240 72.3,258 70.7,274 68.3,284.1 		"/>
		<path class="st7" d="M50.7,157.5l-2.7-0.7l-3.4,0.2l-2,1l-2,2.1l-1.3,0.4c0,0-1.5-0.2-3.2-1c-1.7-0.8-3.5,0-3.5,0l-2.3,0.1
			l-1.6-2.1v-5.7l0.1-2.9l-2.6-2l-2.1-1.6l0.7-2.8l4.3-4.8l3.7-3.4c0,0,0.7-1.7,0.7-2.8c0-1.2-0.6-5.8-0.6-5.8l-0.2-3.1l0.9-1.2
			l4-1.6l3.3-2.5l3-4.1l3.3-4.3l2.6-0.8l5.4-0.2l2.4,0.4l1.5,1.3l0.6,2l1-0.6l1.2-0.2l2.8,0.9l3.8,1.9c0,0,3,2.8,3.1,3
			c0.2,0.2,2.3,2.8,2.3,3s0.2,2.1,0.2,2.1l-0.6,1.6l0.6,3.5l3,4.7l2.5,2.6l0.9,2l-0.4,2.3l1,7.7l-0.7,3.8l-2.3,4.6l-2.6,3.4
			l-1.3,0.8l-3,0.2l-1.4-0.1l-1.7,0.6l-2,1.2L64,160l-1.6-0.9l-1.4-2.8l0.9-0.6l3.7-2.8L69,149l1.1-1.7l-1.7-3l-2.1-1.9v-2.4
			l0.9-3.1l0.8-2.4l-0.4-2.6l-1.3-1.4l-2.1-1.5l-0.8-2.6l0.1-3.7l-1-1.8l-3.1-1.4l-3-0.2l-1.9,1.3l-3.6,2.6l-1,1.5l-0.1,3.8
			l-0.6,1.7l-2.1,1.4l-2.2,0.9l-4.7,2l-1.2,1.8c0,0-0.2,1.9,1.2,3.4c1.4,1.6,2.8,3.5,2.8,3.5l-0.9,1.7l-0.6,0.3l1,2.1l2,3.2l3.4,3.9
			l3.5,2.5l0.1,0.7L50.7,157.5z"/>
		<polygon class="st28" points="57.9,136.2 57.3,141.4 66.3,143 66.3,140.9 66.8,138.8 67,137.5 		"/>
		<polygon class="st28" points="39.6,137.9 52.5,136.3 53.1,136.2 53.5,139.6 53.7,141.7 43.1,143.1 42.4,142.1 39.7,138.8 		"/>
	</g>
</g>
<g id="Слой_13">
	<polygon class="st29" points="125.9,270.7 125.6,277.1 128,273.7 129.8,275.6 133.2,278.5 134.1,277.7 131.6,268.5 126,270 	"/>
	<path class="st29" d="M86.5,266.9l-1.5,0.6h-1.6l-0.9,5.5l0,2.6l0.6,1l0.7,2.4c0,0,1.9-6.9,2-7.3c0.1-0.4,1.2-4.2,1.2-4.2
		L86.5,266.9z"/>
	<path class="st30" d="M104.6,209.6l6.7,0.1l5.5-0.6l1.7-1.1c0,0,0-3.9-0.3-4.2s-1.8-5.7-1.8-5.7l-0.2-2.9L115,193l-1.2-8.7l-2-4.6
		l-4.9-3l-6.8-2.1l-4.6,0.3l-4.1,2.2l-3.5,5.5l-3.9,9.5l-2,8.3v4l0.7,2.2l1.8,1.3l4.2,1.2l8.6,1.2v-1.1l2.6,0.6l4.4-0.3L104.6,209.6
		z"/>
	<path class="st31" d="M87.6,265.4l-1.1,1.4c-0.1,0.1-0.1,0.1-0.2,0.1l-2.8,0.5c-0.1,0-0.1,0-0.2,0l-3.5-1.4
		c-0.1-0.1-0.2-0.2-0.2-0.3l0-6.1c0,0,0,0,0,0L83,222c0-0.1,0,0,0.1-0.3c0.3-0.6,2.5-2,2.9-2.2c0.4-0.2,5.5-2.2,6-2.4
		c0,0,0.1,0,0.1,0l16.3-0.7c0,0,0.1,0,0.1,0l4.1,0.8c0.1,0,0.1,0,0.2,0.1l4,3.4c0,0,0.1,0.1,0.1,0.1l2.3,3.9c0,0,0,0.1,0,0.1
		l4.1,14.7l7.7,28.8c0.1,0.2-0.1,0.4-0.3,0.5l-4.4,1.2c-0.2,0-0.4,0-0.4-0.2l-11.2-28.3c-0.2-0.4-0.7-0.3-0.7,0.1l0.5,20.6
		c0,0.2-0.1,0.3-0.2,0.4l-2.5,1c0,0-0.1,0-0.1,0l-16-0.1l-7-0.2c-0.2,0-0.3,0.1-0.4,0.3l-0.6,1.8C87.7,265.3,87.7,265.3,87.6,265.4z
		"/>
	<path class="st29" d="M108.4,216.4l-3.9,7l-2.9,3.5l-1.3,1.3c0,0-1.2,0.2-2.2-1.1c-1-1.3-6.1-10.1-6.1-10.1l1.7-0.7l2.6-1.4
		c0,0,1.3-4,0.6-5.6c-0.7-1.7-3.4-2.9-3.4-2.9l-3.3-4.9c0,0-1.5-0.2-2.3-0.7c-0.8-0.5-2.8-2.5-2.8-2.5l-0.4-3.3l1.1-1.5h1.3l2.5,2.1
		l1-1.5l1.8-1.8l3.7-2l5-3l0.7-0.9c0,0,2.1,2.5,3.6,3.5c1.5,1,5.9,4.2,5.9,4.2l2-1.5l1.5,0.8c0,0,1.3,1,1.3,2.1
		c0,1.2-0.4,2.5-0.4,2.5l-1.3,1.8l-3.8,1.4l-1.8,0.3l-0.8,2.2l-1,2l-1.9,2.4l-0.8,0.9l0.2,2.7c0,0,0.6,1.6,0.6,2
		c0,0.5,1.4,1.6,1.4,1.6L108.4,216.4z"/>
	<path class="st17" d="M96.2,194.9c-0.2,0-0.3-0.1-0.5-0.1c-0.3-0.1-0.6-0.2-0.9-0.1c0,0,0,0-0.1,0c-0.2-0.2-0.5-0.2-0.7-0.1
		c-0.4,0.1-0.8,0.3-1.3,0.5c-0.3,0.1-0.4,0.4-0.3,0.6c-0.2,0.1-0.3,0.5,0,0.5c0.6,0.1,1.1,0.3,1.7,0.5c0.2,0.1,0.5,0,0.7-0.2
		c0,0,0,0,0.1,0.1c0.6,0.2,1.2,0,1.4-0.6c0.2-0.1,0.3-0.2,0.4-0.3C96.8,195.3,96.5,194.9,96.2,194.9z"/>
	<path class="st17" d="M106.5,194.5c-0.1,0-0.2,0-0.3-0.1c-0.2-0.1-0.5-0.2-0.8-0.2c-0.2-0.2-0.5-0.3-0.8-0.1
		c-0.2,0.1-0.4,0.2-0.7,0.3c-0.3,0.1-0.4,0.4-0.3,0.7c0,0,0,0,0,0c-0.3,0-0.5,0.3-0.2,0.5c0.3,0.2,0.6,0.4,0.9,0.5
		c0.3,0.2,1.1,0,0.9-0.6c0-0.1-0.1-0.2-0.1-0.3c0,0,0.1,0,0.1,0c0.1,0,0.2,0.1,0.3,0.1c0,0,0,0.1,0,0.1c-0.3,0.2-0.2,0.6,0.1,0.6
		c0.4,0,0.7-0.1,0.9-0.4C107.2,195.6,107.4,194.6,106.5,194.5z"/>
	<polygon class="st32" points="119.5,283.5 114.5,262.4 112.6,263.2 106.8,263.6 88.4,262.8 82.4,283.5 	"/>
</g>
<g id="Слой_10">
	<path class="st11" d="M51.5,156.9c0,0,0.8,3.8-0.8,5"/>
	<path class="st11" d="M61.1,156.3c0,0,0,4.5,0.8,5.6"/>
	<path class="st11" d="M61.9,161.9l6.1,6.3l-7.1,6.3l-4.8-5.4l-3,5.4l-9.8-5.2c0,0,6.6-6.6,7.4-7.4l5.4,7.2L61.9,161.9z"/>
	<path class="st11" d="M44.6,170c0,0-14.6,3.5-15,5.7c-0.3,1.9-1.5,29-1.7,36c0,1.1-0.2,2.2-0.6,3.3L20,237.6l12.3,2l2.7-7.6
		l-10.2-0.9"/>
	<path class="st11" d="M38.7,201.5c0,0-4.3,27.8-5.5,30.3"/>
	<polyline class="st11" points="39.8,186.8 35.7,242.4 55.8,243.8 56,169.7 	"/>
	<path class="st11" d="M70.9,186.9c-0.1,0.5-0.1,2.7,0.1,6c0.6,13.9,3.1,46.7,3.1,46.7l-18.4,4.2"/>
	<line class="st11" x1="90.3" y1="217.7" x2="71.2" y2="196.6"/>
	<path class="st11" d="M67.7,168.9l6.6,2.5c1.7,0.7,3.1,2,3.7,3.7l6.2,16.3"/>
	<line class="st11" x1="38.2" y1="242.6" x2="33.3" y2="284.9"/>
	<path class="st11" d="M60.5,252.6c0,0-10.4,13.6-9.4,30.8"/>
	<path class="st11" d="M72.3,240c0,0,1.8,26.7-4.3,44.9"/>
	<path class="st11" d="M21.1,237.8L9.4,251.6c0,0,1.9,0.2,5.9-3.4c1-0.9,2.1-2.1,3.4-3.5"/>
	<path class="st11" d="M30.7,240c0,0,0.6,10.9,0.8,12.7c0.2,1.8-2.8-0.2-5-3.6s-7.3,5.3-9.6,7.4c-2,1.8-6.4,2.2-6.4,0.6
		s4.9-8.8,4.9-8.8"/>
	<path class="st11" d="M11.7,257.9c0,0,7.1-8.2,8.3-10.4"/>
	<path class="st11" d="M51.2,157.6c0,0-6.7-1.2-7.9-0.2s-4.2,4.6-6.7,2.6s-7.1,1.6-7.9-1.9s0.6-6.9,0-9.1s-7.4-2.1-3.4-7.3
		s8.4-5.2,8-11.4c-0.4-6.2-2.6-8.4,1.8-9.6c4.4-1.2,6.8-4.4,8.2-6.8c1.4-2.4,4-5.6,6.2-5.6c2.2,0,9-1,9.4,1.8c0.4,2.8,3,4.5,0,7.4
		c-3,3-6,3.4-8.2,5.9c-2.2,2.5,0.8,5.7-2.6,7.7c-3.4,2-9.4,2.2-9,5.8c0.4,3.6,5.6,5.2,3.1,7.6c-2.5,2.4-7.3,3.4-5.6,5.8
		c1.7,2.4,6.9,0.8,5.6,4.2s-0.1,3.8-0.1,3.8"/>
	<path class="st11" d="M69.7,148c0,0-15,23.3-28.2-2.6"/>
	<path class="st11" d="M50.2,149c0,0,4.7,5.5,10.7,0"/>
	<path class="st11" d="M58.5,132.3c0,0,5.2-2.2,7.8,0.7"/>
	<path class="st11" d="M44.1,133.8c0,0,3.8-2.5,7.8-0.8"/>
	<polyline class="st11" points="39.6,137.9 53.2,136.2 53.7,141.8 43.3,143.1 	"/>
	<path class="st11" d="M53.7,138.7c0,0,2.5-0.7,3.6,0"/>
	<polyline class="st11" points="57.8,136.2 57.3,141.7 66.8,143.1 	"/>
	<line class="st11" x1="57.8" y1="136.2" x2="67" y2="137.8"/>
	<path class="st11" d="M44.6,139.6c0,0,1.1-1.4,4.7-0.6"/>
	<path class="st11" d="M60.4,139.2c0,0,2.4-0.6,4.3,0.9"/>
	<path class="st11" d="M61.1,156.3c0,0,0.3,2.8,3.1,3.7c2.8,0.8,3.5-1.1,4.9-1.4c1.4-0.3,3.9,1,5.8-0.5c2.2-1.8,5.6-8.1,5.9-10.5
		s-1.7-8-0.8-9.8c0.9-1.8-0.8-4.2-2.4-5.5c-1.7-1.3-5.2-7.9-4.1-9.8c1.1-1.9-0.1-3.9-1.3-5s-2.8-3.6-4.9-4.2s-5.3-3.9-7.9-1.6"/>
	<path class="st11" d="M56.7,119.3c0,0,5.8-0.2,6.7,3.2c0.9,3.5-0.5,5,0.8,6.5c1.3,1.4,2.5,1.1,3.5,3.3c1.1,2.2-0.9,4.4-1.1,6.5
		s-1.5,3.3,0.5,4.7c2,1.4,3.6,3.8,2.5,5.5"/>
	<path class="st11" d="M54.6,141.4c0,0.5-1.5,4-1.5,4s1.5,1.7,2.9,1.1"/>
	<path class="st11" d="M89.8,195.6c0,0,1.4-2.8,4.1-4.1c2.7-1.4,7.6-3.5,8-5.1c0.4-1.6,0.8-5.3,0.8-5.3"/>
	<path class="st11" d="M111.7,193.9c0,0-9.4-5.4-9.8-7.5"/>
	<path class="st11" d="M115,193c-0.1-0.4-0.5-11.8-4-14.1c-3.5-2.3-15.8-8.3-21.1,0c-5.3,8.3-10.3,25.6-7,28.3s14.2,2.8,14.2,2.8"/>
	<path class="st11" d="M104.6,209.6c0,0,12.3,0.7,13.5-1.1c1.2-1.8-1.8-10.6-1.8-10.6"/>
	<path class="st11" d="M90.3,196.6c0,0-4-5.9-5.4-1.5c-1.4,4.4,4.9,6.9,5.4,6.5c0,0,8.6,15.7,16.9,4.5l1.9-4.3c0,0,8-1.4,7.1-6.1
		c-0.9-4.7-4.7-1.8-5.1-0.7"/>
	<path class="st11" d="M97.5,192.3c0,0,2.6,2.9,1.8,5.5c-0.8,2.6-0.8,2.6-0.8,2.6s2.8,0.1,3.1,0"/>
	<line class="st11" x1="103.9" y1="190.6" x2="106.7" y2="191.5"/>
	<line class="st11" x1="95.7" y1="192.3" x2="93.6" y2="192.3"/>
	<path class="st11" d="M91.8,195.6c0,0,3.1-2.9,5.2,0"/>
	<path class="st11" d="M103.1,195c0,0,1.3-2.5,4.1,0"/>
	<path class="st11" d="M97,203.7c0,0,2.9,4.9,8.5-0.5"/>
	<path class="st11" d="M97,208.9c0,0,0.7,4.3-0.8,6.2s-9.3,2.3-13.3,6.7c-1.7,1.8-3.4,44-3.4,44s4.8,2.7,6.9,1
		c2.1-1.7,2.7-34,2.7-34"/>
	<path class="st11" d="M114.1,231.1c-0.5,2.2,0.5,31.4,0.5,31.4c-0.2,0.1-0.4,0.3-0.7,0.4c-4.9,1.8-25.4,0.1-25.4,0.1l-6,20.5"/>
	<line class="st11" x1="63.6" y1="203.7" x2="71.2" y2="197.2"/>
	<line class="st11" x1="39" y1="197.4" x2="47.9" y2="204.8"/>
	<path class="st11" d="M104.5,208.8c0,0,0,0,0.3,3.3s3.8,4,6.6,4.6c0.9,0.2,2,0.8,3,1.6c2.6,2.1,4.5,5,5.4,8.2
		c1.7,6.3,5.5,19.9,6.6,25.4c1.5,7.2,5.4,16.9,5.4,16.9l-0.7,0.1l-0.7,0.1l-4.9,1l-10.9-28.6"/>
	<path class="st11" d="M92.1,217.4c0,0,5.1,10.3,7.5,10.8s9-12.1,9-12.1"/>
	<ellipse cx="94.9" cy="195.9" rx="0.8" ry="1.5"/>
	<ellipse cx="105.3" cy="195.6" rx="0.8" ry="1.5"/>
	<line class="st11" x1="119.8" y1="284.9" x2="114.5" y2="262.4"/>
	<path class="st11" d="M83.4,267.4c0,0-1.4,8-0.8,8.5s1.2,2.6,1.2,2.6"/>
	<path class="st11" d="M128,273.7c0,0,4.5,4.9,5.1,4.8c0.7,0,0.9,0,1-0.3s-2.6-9-2.6-9"/>
	<path class="st11" d="M126,270.3c0,0-0.9,7.7-0.4,6.8c0.5-0.9,2.7-3.9,2.7-3.9"/>
	<path class="st11" d="M130,273c0.4,0.5,3.2,5.1,3.2,5.1"/>
	<line class="st11" x1="131.3" y1="272.3" x2="133.7" y2="277.2"/>
	<path class="st11" d="M87,195.9c0,0,2.7,2.8,2.8,3.5"/>
	<line class="st11" x1="87" y1="197.8" x2="88.4" y2="197.8"/>
	<path class="st11" d="M114.1,195.9c0,0-2.4,0.4-2.9,1.9"/>
	<line class="st11" x1="113.5" y1="197.8" x2="111.9" y2="196.9"/>
</g>
<g id="Слой_17">
	<line class="st33" x1="277.3" y1="7.5" x2="257.6" y2="27.2"/>
	<g>
		<line class="st34" x1="252.8" y1="24.1" x2="35" y2="241.9"/>
		<line class="st34" x1="35" y1="24.1" x2="252.8" y2="241.9"/>
	</g>
</g>
</svg>
