<?xml version="1.0" encoding="utf-8"?>
<!-- Generator: Adobe Illustrator 22.1.0, SVG Export Plug-In . SVG Version: 6.00 Build 0)  -->
<svg version="1.1" xmlns="http://www.w3.org/2000/svg" xmlns:xlink="http://www.w3.org/1999/xlink" x="0px" y="0px"
	 viewBox="0 0 283.5 283.5" style="enable-background:new 0 0 283.5 283.5;" xml:space="preserve">
<style type="text/css">
	.st0{fill:#FEECE1;}
	.st1{fill:#81A5C6;}
	.st2{fill:#FCD4B6;}
	.st3{fill:#FFFFFF;}
	.st4{fill:none;stroke:#000000;stroke-miterlimit:10;}
	.st5{fill:#E7E6E8;stroke:#000000;stroke-linecap:round;stroke-linejoin:round;stroke-miterlimit:10;}
	.st6{fill:#81A5C6;stroke:#000000;stroke-miterlimit:10;}
	.st7{fill:#FFFFFF;stroke:#000000;stroke-linecap:round;stroke-linejoin:round;stroke-miterlimit:10;}
	.st8{fill:none;stroke:#000000;stroke-linecap:round;stroke-linejoin:round;stroke-miterlimit:10;}
	.st9{fill:none;stroke:#000000;stroke-width:2;stroke-linecap:round;stroke-linejoin:round;stroke-miterlimit:10;}
	.st10{fill:#78797D;stroke:#000000;stroke-linecap:round;stroke-linejoin:round;stroke-miterlimit:10;}
	.st11{fill:#98999C;stroke:#000000;stroke-linecap:round;stroke-linejoin:round;stroke-miterlimit:10;}
	.st12{fill:#81A5C6;stroke:#000000;stroke-width:0.75;stroke-linecap:round;stroke-linejoin:round;stroke-miterlimit:10;}
	.st13{fill:#FCD4B6;stroke:#000000;stroke-miterlimit:10;}
	.st14{fill:#81A5C6;stroke:#000000;stroke-linecap:round;stroke-linejoin:round;stroke-miterlimit:10;}
	.st15{fill:#3E5A70;}
</style>
<g id="Слой_1">
</g>
<g id="Слой_14">
	<rect x="-0.6" y="-1.2" class="st0" width="284.1" height="284.1"/>
</g>
<g id="Слой_3">
	<g>
		<polygon class="st1" points="15.1,146.1 31.3,143.3 32.4,142.8 33.7,143.3 53.2,142.3 53.2,127.6 31.3,127.6 13.7,125.5 		"/>
		<polygon class="st2" points="54.3,141.7 60,139.7 66.6,141 87.7,146.1 93.2,144.8 107.9,139.9 112.2,137.2 113.9,134.5 111.2,135 
			100.8,137.3 92.3,135.8 81.6,130.8 72.4,127.6 67.2,126.5 63.7,126 53.3,129.3 53.2,142.3 		"/>
		<path class="st3" d="M122.3,111l-4.6,2.7l-34.1,0.6c0,0-13,0.6-15.8-3.3s-1.8-0.4-3.7-7.3c-1.8-6.9,0-33.9,0-33.9l0.5-32.4
			l3.5-5.4l3.4-2.1L76,29h38c0,0,7.7-0.5,9.8,5.1c2.1,5.6,0.8,1.4,0.8,1.4l1,2.5l0.6,5.3c0,0-0.8,14-0.5,14.8s0.2,45.5,0.2,45.5
			s-0.4,3.5-1.3,4.3S122.3,111,122.3,111z"/>
		<path class="st4" d="M124.6,107.9c0.9-1.7,1.4-3.5,1.4-5.5V41c0-6.6-5.4-12-12-12H76c-3,0-5.8,1.1-7.9,3"/>
		<path class="st5" d="M124.6,107.9c-0.4,7.3-6.6,13.1-14,13.1H74c-7.7,0-14-6.3-14-14V44.7c0-5.6,3.3-10.5,8.1-12.7
			c-2.5,2.2-4.1,5.4-4.1,9v61.3c0,6.6,5.4,12,12,12h38C118.6,114.3,122.6,111.7,124.6,107.9z"/>
		<path class="st6" d="M112.7,61.3h-36c-1.5,0-2.7-1.2-2.7-2.7V48.3c0-1.5,1.2-2.7,2.7-2.7h36c1.5,0,2.7,1.2,2.7,2.7v10.3
			C115.3,60.1,114.1,61.3,112.7,61.3z"/>
		<path class="st7" d="M96,114.3h12.5l-6.3,6.9l-3.3,3.7c-1.3,1.5-4.6,1.5-5.9,0l-3.3-3.7l-6.3-6.9H96z"/>
		<path class="st8" d="M53.7,141.7l4.3-1.6c1.4-0.5,2.8-0.6,4.2-0.3l25,6.1c1,0.2,2,0.2,2.9-0.1l18.7-6.3c0.5-0.2,0.9-0.4,1.3-0.7
			c1.6-1.2,5.7-4.5,2.5-4.1c-4,0.5-9.9,2.6-13.5,2.3c-3.6-0.3-9.7-2.6-10.5-3.1c-0.8-0.5-19.2-9.7-27-7.2c-7.8,2.5-8.5,1.9-8.5,1.9"
			/>
		<path class="st8" d="M74.7,128.8c0,0,7.8,5,10.7,6c2.8,1,10.6,2.7,9.8,4.2c-1,1.9-2.1,1.2-12.8,0s-13-0.8-14.5-0.3"/>
		<polyline class="st8" points="32.4,143.3 53.2,142.3 53.2,127.6 31.3,127.6 32.4,142.8 		"/>
		<line class="st8" x1="32.4" y1="142.8" x2="15.1" y2="146.1"/>
		<path class="st8" d="M31.3,127.6c0,0-17.1-2-17.6-2.1"/>
	</g>
</g>
<g id="Слой_4">
	<line class="st9" x1="13.7" y1="253.9" x2="269.1" y2="7"/>
</g>
<g id="Слой_13">
	<g>
		<path class="st10" d="M193.5,240h-48.8c-3.3,0-5.9-2.7-5.9-5.9v-82.5c0-3.3,2.7-5.9,5.9-5.9h48.8c3.3,0,5.9,2.7,5.9,5.9v82.5
			C199.4,237.3,196.8,240,193.5,240z"/>
		<path class="st5" d="M193.5,162.6v63.6v0.5c0,5.5-4.5,10-10,10H153c-5.5,0-10-4.5-10-10v-64.1c0-5.5,4.5-10,10-10h0.8h29.7"/>
		<path class="st7" d="M163.9,135.4c0,0-8-5.7,6.5-5.7c9.4,0,14.5,1,16.4,1.2c0.6,0.1,1.1,0.3,1.4,0.7l5.2,4.7l-3.4,1.2
			c0,0-4.2-3.6-8.1-3.6c-3.8,0-8.8,1.5-8.8,1.5"/>
		<path class="st11" d="M163.9,146.2v-9c0-1.8,1.4-3.2,3.2-3.2h2.7c1.8,0,3.2,1.4,3.2,3.2v9"/>
		<path class="st5" d="M156.6,152.6c-0.1-0.2-0.1-0.4-0.1-0.6v-3.1c0-1.5,1.2-2.7,2.7-2.7h20c1.5,0,2.7,1.2,2.7,2.7v3.1
			c0,0.2,0,0.4-0.1,0.6"/>
		<path class="st7" d="M187.5,232.7h-34.2c-3.3,0-5.9-2.7-5.9-5.9v-68.2c0-3.3,2.7-5.9,5.9-5.9h34.2c3.3,0,5.9,2.7,5.9,5.9v68.2
			C193.5,230,190.8,232.7,187.5,232.7z"/>
		<path class="st8" d="M184.8,228H156c-3.3,0-5.9-2.7-5.9-5.9v-58.8c0-3.3,2.7-5.9,5.9-5.9h28.8c3.3,0,5.9,2.7,5.9,5.9v58.8
			C190.8,225.3,188.1,228,184.8,228z"/>
		<rect x="153.2" y="160.4" class="st12" width="34.3" height="6.6"/>
		<polygon class="st11" points="139,184.5 139,193.2 152.4,202.6 193.4,202.6 199.5,196.8 199.5,189.1 193.2,193.6 153.6,193.6 		
			"/>
		<path class="st2" d="M210.3,129.6"/>
		<path class="st2" d="M217.8,119.4l-13.1-14.1c0,0-3.2-2.3-4.7-1.9c-1.4,0.4-11.9,1.2-11.9,1.2L177,115.7l-10.1,11.6
			c0,0-0.4,1,0,1.7c0.4,0.8,0.9,0.7,1.6,0.7c0.7,0,5.3-3.9,5.3-3.9l4.8-5l0.5,2.7c0,0-0.1,2,0.7,1.9c0.8-0.2,2.7-0.4,2.7-0.4
			l0.8,1.3c0,0,1.4,1.2,1.5,1.3c0.1,0.1,1.2,0.5,1.2,0.5l1.4-0.5c0,0,0.9,0.9,1.4,1.2c0.5,0.3,1.7,0.7,2.1,0.8s4.8-0.8,5.4-1.4
			c0.6-0.6,1.5-1.3,1.5-1.3s0.7,0.8,1.1,1.1c0.4,0.2,9.3,3.1,10.8,1.8l2.7-2.8L217.8,119.4z"/>
		<path class="st13" d="M251.6,197l7.6-9.7l-3.2-2.2c0,0-5.5-4.4-6-5.2c-0.5-0.8-2-4.8-2.9-6.4c-0.9-1.6-5.6-7.5-5.6-7.5l-5.4-8.7
			l-2.2-3.8c0,0-0.4-0.5-1-0.3c-0.5,0.2-1.3,1.4-1.1,2.5c0.1,1.1,2.2,7,3,8.9c0.8,1.9,1.4,3.1,1,3.2s-4.1-1.8-4.5-2.1
			c-0.4-0.2-17.2-12.2-17.2-12.2l-3.2-2.1c0,0-1.5-0.1-1.9,0.4c-0.3,0.5,0,2,0,2l0.4,1.5l-1.8-1.1l-1.3-0.5c0,0-0.5,0.6-0.5,0.8
			c0.1,0.1,6.2,9.7,11.2,13.7s0.3,1.1,0.3,1.1l-2.6-1.5c0,0-10.5-7.5-11.4-7.5s-1.3,0.8-1.3,0.8s1.3,1.5,3.8,3.8
			c2.5,2.3,14.6,12.7,14.6,12.7l-1.7-0.2c0,0-8.2-2.5-8.7-2.6c-0.5-0.1-2.7-0.1-2.5,0.4c0.3,0.5,3.6,3.3,9.2,6.2s17.2,7.9,19.4,8.3
			c2.3,0.4,5.9,1.4,5.9,1.4l2.2,0.5l4.6,3.8l2.3,2.3L251.6,197z"/>
	</g>
</g>
<g id="Слой_11">
	<path class="st8" d="M187.5,114.2l-18.3,15.5c0,0-5.1,0.5-1-4.4c3.5-4.1,14.6-15.9,18.2-19.7c0.7-0.8,1.7-1.2,2.7-1.3
		c3.9-0.4,13-1,14.6,0.2c1.6,1.1,14.3,15.3,14.3,15.3l-7,10c0,0-11.4,0.4-13.3-3"/>
	<path class="st8" d="M178.6,121.8c0,0,0.6,4.7,3.9,3.4c3.3-1.3,8.5-6.8,8.5-6.8"/>
	<path class="st8" d="M195.2,120.9c0,0-7.4,8.1-9.6,7.1c-2.2-1-2.3-1.6-3.2-2.8"/>
	<path class="st8" d="M201,124.1c-0.4,0.5-8.7,8.8-12.9,4.1"/>
	<path class="st8" d="M251.1,197.4c0,0-5.1-5.8-8.9-6.3c-3.8-0.5-14.2-4-19.5-6.6c-5.2-2.6-24.9-12.9-9-8.9l11.2,4"/>
	<path class="st8" d="M259.2,187.4c0,0-9.3-6-10-8.8s-2.9-7.2-6.9-11.5c-4-4.3-6.5-10.5-7.4-12.3c-1-2-4-2.9-2.9,2.6
		c1.1,5.5,4.2,8.7,3.7,10.5c-0.4,1.5-16.3-10.2-21.5-14.1c-1.3-1-2.6-2.3-4.3-2.3c-1.3,0-2.4,1.3-0.4,3.2
		c4.1,3.7,20.4,16.5,20.4,16.5s-22.9-18.8-24.2-17.4c-1.3,1.4,8.5,12.9,20.2,22.7"/>
	<path class="st8" d="M221.2,178.3c0,0-22.7-18.6-18.8-17.9c4,0.6,23.6,16.1,23.6,16.1"/>
	<path class="st14" d="M259.2,187.4l-7.6,9.7c-0.7,0.9-0.7,2.3,0.2,3.1l7,6.7c1,1,2.6,0.8,3.5-0.3l7.9-10.1c0.8-1,0.6-2.4-0.3-3.2
		l-7.3-6.2C261.6,186.2,260,186.3,259.2,187.4z"/>
	<path class="st14" d="M217.9,119.9l-7.6,9.7c-0.7,0.9-0.7,2.3,0.2,3.1l7,6.7c1,1,2.6,0.8,3.5-0.3l7.9-10.1c0.8-1,0.6-2.4-0.3-3.2
		l-7.3-6.2C220.2,118.8,218.7,118.9,217.9,119.9z"/>
</g>
<g id="Слой_12">
	<polygon class="st15" points="103.1,77.4 97.1,77.4 97.1,71.4 93,71.4 93,77.4 87,77.4 87,81.6 93,81.6 93,87.6 97.1,87.6 
		97.1,81.6 103.1,81.6 	"/>
	<polygon class="st15" points="166.1,174.6 161.9,174.6 161.9,170.4 159,170.4 159,174.6 154.8,174.6 154.8,177.5 159,177.5 
		159,181.7 161.9,181.7 161.9,177.5 166.1,177.5 	"/>
</g>
</svg>
