<?xml version="1.0" encoding="utf-8"?>
<!-- Generator: Adobe Illustrator 23.1.0, SVG Export Plug-In . SVG Version: 6.00 Build 0)  -->
<svg version="1.1" id="Слой_1" xmlns="http://www.w3.org/2000/svg" xmlns:xlink="http://www.w3.org/1999/xlink" x="0px" y="0px"
	 viewBox="0 0 283.5 283.5" style="enable-background:new 0 0 283.5 283.5;" xml:space="preserve">
<style type="text/css">
	.st0{fill:#5F1C27;}
	.st1{fill:#FCCDAD;}
	.st2{fill:#BC2839;}
	.st3{fill:#B4D1EC;}
	.st4{fill:#FFFFFF;}
	.st5{fill:none;stroke:#231F20;stroke-linecap:round;stroke-linejoin:round;stroke-miterlimit:10;}
	.st6{fill:none;stroke:#231F20;stroke-width:0.75;stroke-linecap:round;stroke-linejoin:round;stroke-miterlimit:10;}
	.st7{fill:#231F20;}
</style>
<path class="st0" d="M153.5,95l2.3-2.6l1.1-3.2l0.4-1.4l1.1-1.9l-0.1-2.5l-0.4-2.7l0.4-1.4l0.8-3l-0.5-4.1l-1.9-3.6l-2-2l-1.9-1.6
	l-0.6-1.4l0.5-3.7l0.2-2.3l-1.1-1.5l-2.2-0.8l-1.8-0.6l-2.7-0.6l-2.5-1.3l-1.7-1.9l-1.6-0.9l-4.1-1.3l-4.2-0.4L128,49l-1.3,0.9v0.8
	l-1.6-1.6l-3.3-1.5h-2.7h-2.3l-2.7,1.9l-1.9,2.3l-1.1,3.2l-0.5,2.5c0,0-0.2,1.2-0.7,1.7c-0.4,0.5-1.6,1.4-1.6,1.4l-2,1.2l-4.2,2.5
	c0,0-1.5,1.5-1.7,1.8c-0.1,0.3-0.6,2-0.2,3c0.4,1,1.2,2.2,1.3,2.7c0.1,0.5-0.6,1.6-0.6,1.6l-1.4,2.1l-1,3.4l0.6,2.9l1.7,1.5l1.5,1.3
	l0.2,1.3l-0.3,1.9l0.4,1.8l1.6,1.7l2.8,2l1.9,0.8l1.1,0.9l0.9,2.1l0.7,1.3l1.3,0.7l2,0.3l1.7-0.3l1.6-0.3l-0.7-1.1l-1.2-3.1
	l-2.1,0.1l-1.3-0.6l-3.2-2.9c-0.7-0.8-1.9-3-1.9-3s-1.3-4.2-0.7-5s1.4-1.8,1.4-1.8l1.2-0.3l2,0.5l1.3,0.6l1.5-4l3.6-4.2l9.8-6.2
	l1.1-3.8c0,0,3.9,1.4,4.1,1.5c0.2,0.1,0.2,0.1,0.2,0.1l5.4,4l3.8,4.2l4,6.1l2.3,6.3l0.9,6.9l0.6,3.5L153.5,95z"/>
<path class="st1" d="M153.2,123.3l-1.8,2l-4,3.2l-2.3,1.2l-3,1l-2.8,0.4l-4.3-0.4l-3.6-1l-3.7-1.8c0,0-3.5-2.3-3.6-2.4s-4-3.4-4-3.4
	l-0.8-0.8l4.5-1l3.3-2.2l1.9-2.2l0.5-2.4l0.2-2.8l-1.9-1.2l-3.7-3.2l-5-6.7l-2.6-4.8c0,0-0.5-0.1-1.1,0c-0.6,0.1-1.5-0.2-1.5-0.2
	l-2.3-1.5l-3.4-3.9l-0.9-3.6v-2.2c0,0,1.1-2.1,1.5-2.2s1.4,0.1,1.4,0.1l2.9,1.1l-1.7-1.2l1.2-2l0.8-2.7l-0.3-2.9l0.9-1.7l1.5-0.7
	l3-0.7l1.1-0.7l0.9-1.3l0.1-1.5l0.3-1.4l1-1.5l2.5-1.7l1.5-1.6l1.2-2.1h2.8l3.7,0.3c0,0,0.9,0.4,2.4,2.2s2.3,3.4,2.5,4.2
	c0.2,0.7,0.8,3.4,0.8,3.4s0.6,0.8,0.9,1.3c0.3,0.5,1.3,1.5,2.4,1.5s1.5,0,1.9,0.3c0.3,0.3,1.1,1.7,1.1,1.7l0.7,1.8l1.3,1l1.3,0.9
	l1.1-0.9l1.5-1.7l1.8-0.6c0,0,0.5-0.2,1.8,1.3c1.3,1.5,1.4,3.3,1.4,3.3s0.2,2.1-0.1,3.2c-0.3,1.1-1.3,3.2-1.9,3.8
	c-0.6,0.6-3.4,2.6-3.4,2.6l-0.2,3l-0.6,3.5l-1.5,4.7l-2.4,4.9l-2,2.8l-0.5,1.5l-0.2,3.2c0,0,0.2,4.4,0.4,5c0.2,0.6,1.8,3.2,1.8,3.2
	c0.3,0.5,1.9,1.5,2.4,1.8c0.5,0.3,2.6,0.8,2.6,0.8s1.4,0.1,1.9,0.3C153.2,123.3,153.2,123.3,153.2,123.3z"/>
<polygon class="st0" points="141.1,75.7 134.6,77.4 132.6,77.7 130.9,76.4 130.6,75.1 131.1,74.1 133.4,74.1 135.5,73.8 138.9,74.1 
	141.1,75.1 "/>
<polygon class="st0" points="115.4,81.1 120.5,80.2 124.4,79.1 125.4,77.7 123.8,76.4 121.4,76.8 115.4,80.8 "/>
<path class="st1" d="M182.2,172.5l2.8-4.2l4.2-4.2l2.4-1c0,0,1.6,0.3,2.8,1c1.3,0.7,3.5,1.7,3.8,1.8c0.3,0.1,3.6,0.3,3.6,0.3
	l2.2-0.7l1.5-0.4l1.6,0.5l1.3,1.6l1.7,3.2l3.4,4.6l2.4,2.3c0,0,2.9,1.9,4.3,1.8s1.1,1.3,1.1,1.3s-0.5,2.1-0.7,2.3
	c-0.2,0.3,0.2-0.1-0.2,0.3c-0.4,0.4-1.6,1.3-1.6,1.3h-1.7h-3.2l-3.4-1.9l-0.2,1l2.6,9.3c0,0,0.8,3.9,0.9,4.9c0.1,1-0.2,4.4-0.2,4.4
	c-0.6,0.8-1,1-1,1l-1.8-0.5l-0.7,1.2h-1.2l-0.9-0.8l-0.7,0.2l-4.4-4.2h-1l-0.8-0.3l-9-14l-0.9-2.2l-0.3-3.6l-3.1,7.2L182.2,172.5z"
	/>
<path class="st1" d="M78.2,175l2.7,0.5l2.4,0.5c0,0,4.1,0.2,5.7-0.2c1.6-0.4,3.1-1.6,3.1-1.6l2.5-0.9l0.8-1.7c0,0,0.1-1.8,0-2.3
	c-0.1-0.5-0.1-2.2-0.1-2.2l0.4-4.3l-0.7-6.2c0,0-1.2-5.6-3.5-3.8c-2.3,1.8-3.7,3.2-3.7,3.2l-1.1,1.6l-1.7-1.5l-1.9-1.5l-2,0
	l-1.1,0.5l-1.3,2.1l-1.5-0.4l-3.4,0c0,0-1.3,0.4-1.6,1c-0.4,0.6-1,2.9-0.6,3.5c0.4,0.6-1.8,0.5-1.8,0.5l-1.4,1.5l-0.1,1.9
	c0,0,0.9,2.7,2,4.2c1.1,1.5,3.7,4.5,4.1,4.8c0.4,0.4,1.1,1.8,2.4,1.3S78.2,175,78.2,175z"/>
<path class="st2" d="M158,215.6l-2.8,2.8c0,0-2.2,1-3.1,1.2c-0.9,0.2-9.3,1.2-9.3,1.2l-14.7-0.2l-10.9-1.9c0,0-5.8-2.3-6.6-2.9
	c-0.8-0.6-2.8-2.5-2.8-3c0.1-0.6,0-4.3,0-4.3l-0.1-18.6l-0.4-12.8l-1.1,3.2l-2.6,5.7l-6.3,10l-3.3,4c0,0-3.2,3.2-6.7-1.1
	c-3.4-4.3-8.8-19.5-8.6-20.1c0.2-0.6-0.6-3.4-0.6-3.4l0.6-0.2l1.7,0.8l2.8,0l1.7,0l4-0.3l4.5-1.6l1.6-1.5c0,0,0.9-1.1,0.6-2.3
	s-0.3-2.6-0.3-2.6l0.3-5.6l-0.6-4.6l-0.7-2.9l-0.9-1.8h-2.1l0.4-1.2l4.2-11.8c0,0,3.1-8.5,3.5-9.1c0.4-0.7,4.5-7.2,12.1-8.4
	c7.6-1.2,7.6-1.2,7.6-1.2s9,8.4,14,9.1c0,0,8.3,2.4,13.9-1.7l6.1-5.3l4.8-0.3c0,0,6.2,0.6,7.5,1c1.4,0.4,4.2,2.1,4.7,3.1
	c0.5,1,1.1,2.9,1.1,2.9l1.7,13.6l2.9,35l5.7-6.6l6.4,15.5l-9.3,10.6c0,0-7.4,11.1-13,4.9c0,0-4.3-6.5-4.7-8.5
	c-0.3-2,0.2,8.8,0.2,8.8s-1.2,6.4-1.2,7.8S158,215.6,158,215.6z"/>
<path class="st3" d="M161.6,250.2l-3.6-34.6c0,0-2.4,2.6-2.8,2.8c-0.4,0.2-3.4,1.2-4,1.3s-7.4,1-8,1c-0.7,0-12.6,0-13.8-0.1
	s-15.7-1.7-16.9-3.7c0,0-3.7-2.6-3.8-3s-1.6,36.1-1.6,36.1H161.6z"/>
<path class="st4" d="M144.8,81.3c-0.1-0.1-0.1-0.1-0.2-0.2c0.1-0.2,0-0.5-0.3-0.6c-0.7-0.4-2.5-1.1-2.8,0.1
	c-0.1,0.2,0.2,0.4,0.4,0.3c0.1-0.1,0.6,0.2,0.7,0.2c0.2,0.1,0.5,0.2,0.7,0.3c-0.3,0.2-0.5,0.4-0.8,0.6c-0.3,0.2-0.7,0.4-1,0.5
	c-0.1-0.1-0.2-0.2-0.4-0.1c-0.2,0-0.4,0.1-0.6,0.2c-0.1-0.1-0.1-0.1-0.2-0.1c-0.3-0.1-0.6,0-0.9,0.1c-0.1-0.1-0.1-0.2-0.2-0.4
	c0.4-0.8,0.6-1.7-0.2-2c-0.7-0.2-1.2,0.5-1.3,1.1c0,0.2,0,0.5,0,0.7c0,0,0,0,0,0.1c-0.2,0.4-0.5,0.6-0.8,1c0,0,0,0.1,0,0.1
	c-0.5,0.3-1,0.7-1.3,1.1c-0.2,0.4,0.1,0.6,0.5,0.5c0.2,0.1,0.4,0.1,0.7,0.1c2.7,0.3,6.5-0.8,8.2-2.8
	C145.3,81.7,145.1,81.4,144.8,81.3z"/>
<path class="st4" d="M125.3,84.9c-0.2,0-0.4-0.1-0.7-0.1c0,0,0,0,0,0c-0.2-0.3-0.4-0.4-0.8-0.4c-0.4-0.1-1.1,0.1-1,0.6
	c0,0,0,0,0.1-0.1c-0.2,0.4-0.1,1,0.4,1.1c0.1,0,0.2,0,0.3,0.1c-0.5,0.5-1.1,0.9-1.7,1.2c-0.1-0.3-0.5-0.5-0.9-0.3
	c-0.2,0.1-0.3,0.1-0.5,0.2c-0.1,0-0.1,0-0.1-0.1c0.2-0.4,0.4-0.9,0.5-1.4c0.1-0.7-0.9-0.8-1.2-0.4c-0.1,0.1-0.2,0.2-0.2,0.3
	c-0.1,0-0.2,0-0.3,0.1c-0.8,0.4-1.2,1.1-1.4,1.9c0,0,0,0.1,0,0.1c-0.1,0-0.3,0.1-0.4,0.1c-0.2,0.1-0.2,0.3,0,0.4c0,0,0,0,0,0
	c0,0.1,0,0.1,0.1,0.2c2.8,1.5,6.4-0.1,8.2-2.5C126,85.6,125.8,85,125.3,84.9z"/>
<line class="st5" x1="108.7" y1="214" x2="107.1" y2="250.2"/>
<line class="st5" x1="158" y1="215.9" x2="161.6" y2="250.2"/>
<path class="st5" d="M129.5,110.7c0,0,1,9.7-10.3,10.5c0,0-16.3,0.3-20.6,11.5l-7.3,20.6"/>
<path class="st5" d="M144.5,106.9c-0.4,0.5-5,16.9,10.5,16.4c15.5-0.5,16.1,3,17.2,11.4c1.1,8.4,3.5,44.1,3.5,44.1"/>
<path class="st5" d="M119.2,121.2c0,0,18.2,20.6,34,2.1"/>
<path class="st5" d="M156.3,159.2c0,0,2,57.7,18.2,43.4l13.5-14.9l-6.1-16c0,0-12.4,13.9-12.9,17.1"/>
<path class="st5" d="M160.1,189.6c0.3,0.1,5.1,26.7-7.3,29.9s-45.7,2.1-45-8.6s-1.3-57-1.3-57"/>
<path class="st5" d="M83.4,176.1c0,0-5.1-0.5-5.2-1.1c0-0.5,7.4,35.7,17,24c9.5-11.6,12.2-21.8,12.2-21.8"/>
<path class="st5" d="M93.5,174.3c0,0,1.1,8.4,1.1,10.7"/>
<path class="st5" d="M71.7,161.4c0,0-7.8,0.4,0.5,10.4c0,0,6.6,8.5,6,0"/>
<path class="st5" d="M78.2,157.1c0,0-11.5-3.1-4,9.4c0,0,5.1,9.9,8,4.8"/>
<path class="st5" d="M86.7,157.7c0,0-7-7.6-8.3,1.3c-0.4,2.4-0.1,4.9,0.7,7.2c0.9,2.7,2.2,5.1,4.3,5"/>
<path class="st5" d="M92.3,163.8c0,0-7.9,3.4-7-2.4c1-5.7,6.6-9.5,8.2-8.3c1.6,1.3,2.4,9.3,2.1,11.7s0.1-1.1-0.3,2.4
	c-0.3,3.1,2.8,7.1-7.6,8.9c-10.4,1.8-3.2-6.3-0.4-8.3C90.2,165.9,92.3,163.8,92.3,163.8z"/>
<path class="st5" d="M182.2,172.5c0,0,6.5-11.7,11.2-8.9c4.7,2.7,6.8,3.7,10.6,2s4.9,3.1,5.3,3.7c0.4,0.6,5,8.9,9.8,9.6
	c4.7,0.7,0.9,5.9-1.5,5.8c-2.4,0-9.3-1.5-10.5-6.7"/>
<path class="st5" d="M195.7,169.7c0,0,4,2.9,7.6,0.8"/>
<path class="st5" d="M190.7,176c0,0,0,7,0.8,8c0.7,0.8,7,11,9.1,14.3c0.7,1.1,2.3,0.8,2.6-0.4c0.1-0.2,0.1-0.5,0.1-0.9
	c0-2.4-3.7-12-6.9-15c0,0,1.4-2.9,1.2-4.1"/>
<path class="st5" d="M200.9,182.1c0,0,4.4,12.7,4.9,13.5s2.1,4.4,1.9,6.4l0,0.4c-0.1,0.7-0.9,1-1.4,0.5l-3.7-3.9"/>
<path class="st5" d="M205.5,181.5c0,0,6.6,17.9,5.1,21c-1.2,2.5-2.8,0.5-2.8,0.5"/>
<path class="st5" d="M209.9,182.5c0,0,8.3,24.1,0.7,20"/>
<line class="st5" x1="190.7" y1="179.5" x2="187.6" y2="186.1"/>
<path class="st5" d="M112.9,82.3c0,0-5.2-3.6-5.8,2c-0.2,2.3,0.6,4.6,2,6.5c1.8,2.2,4.6,4.9,7,3.9c0,0,14.3,31.1,30.1,10
	c0,0,5.4-9.5,4.4-16.2c0,0,7.6-3.4,5.2-11.4c0,0-3.4-7.8-7.4,1.9"/>
<path class="st5" d="M152,77.3c0,0-1.8,3.5-1.7,5.3"/>
<line class="st5" x1="153.8" y1="79.1" x2="150.6" y2="80.5"/>
<path class="st5" d="M109.6,84.4c0,0,3.3,1.6,5.2,4.3"/>
<line class="st5" x1="110.3" y1="87.8" x2="112.9" y2="86.6"/>
<path class="st5" d="M114.9,81.2c0,0,12.9-1.7,10.1-3.9C122.1,75.1,114.9,81.2,114.9,81.2z"/>
<path class="st5" d="M141.8,75.5c0,0-7.2,2.2-9.1,2.2c-0.5,0-5.2-3.4,1.1-3.5C140,73.9,141.8,75.5,141.8,75.5z"/>
<path class="st5" d="M135.8,84.4c0,0,4.1-9.2,9.8-2.7"/>
<path class="st5" d="M117.5,87.8c0,0,3.5-6.6,8.7-2.4"/>
<path class="st5" d="M125.4,79.4c0,0,5.3,5.7,4.2,12.6l-0.3,1.1c0,0,2,1.8,4.9-0.5"/>
<path class="st5" d="M134.6,88.8c0,0,1.5,1.2,1.6,2.6"/>
<path class="st5" d="M129.8,102.4c0,0,8.6,3,10.9-6.1"/>
<path class="st5" d="M134.2,105.5c0,0,3.8-0.1,5.5-2.6"/>
<path class="st5" d="M150.2,96.2c0,0,3.5-0.3,5.2-3.1s1.4-4.5,1.9-5.2s1-2.6,1-4.4c0-1.8-0.8-2.7,0-4c0.6-1.1,1.7-4.9-0.8-9.3
	c-0.9-1.6-2.3-3-3.9-4c-0.8-0.5-1.7-1.5-1.6-3.2c0.2-3,2.6-5.8-1.6-7.2c-4.2-1.3-7.3-1.4-8.8-3.9c-1.5-2.5-13-5.2-15.4-1.5"/>
<path class="st5" d="M127.3,58.7c0,0,6.3-0.7,8,1.6c1.7,2.3,3.7,5.2,4,8.1c0.3,2.8,4.5,3.2,4.5,3.2s0.9-0.1,1.8,2.5
	c0.9,2.6,3.8,3.2,3.8,3.2"/>
<path class="st5" d="M118.5,98.9c0,0-6.3,2.3-7.5-1.7c-1.2-4-2.3-2.5-4.3-4.1c-2-1.6-4.9-2.7-4.2-5.9c0.7-3.2-0.2-2.7-2.6-4.6
	c-2-1.6-1.6-5.8,0.8-8.5c0.8-0.9,1-2.3,0.4-3.5c-0.8-1.4-1.4-3.4-0.1-5c2.3-2.9,8.3-4.4,9.5-7.1c1.1-2.5,0.1-9.2,8.4-11.2
	c0.3-0.1,3.1,0.2,3.4,0.2c8.2,2.5,7,11.2,1.4,15c0,0-2.7,1.6-2.9,3.5c-0.2,1.9-0.3,3.6-2.4,4.2c-2.1,0.6-5.3,0.8-5.3,3.7
	c0,2.9-0.1,4-0.6,5.3c-0.5,1.3-1.2,1.8-1.2,1.8"/>
<g>
	<path class="st6" d="M126.9,52.5c0,0-7.6-0.4-6.7,1.2S126.9,52.5,126.9,52.5z"/>
	<path class="st6" d="M127.2,54.3c0,0-0.1,0-0.2,0.1c-1.1,0.4-6.4,2.2-6.4,3.5c0,1.2,2.2,0.8,3,0.2
		C124.3,57.6,127.1,54.3,127.2,54.3"/>
	<path class="st6" d="M126.7,52.7c0-0.5,4.5-2.5,6.1-1.1C134.1,52.8,126.7,52.7,126.7,52.7z"/>
	<path class="st6" d="M127.7,54.1c0,0,6.2-0.2,7,1.1C135.4,56.4,127.7,54.1,127.7,54.1z"/>
</g>
<circle class="st7" cx="122.2" cy="86.2" r="2.1"/>
<circle class="st7" cx="140.7" cy="81.9" r="2.1"/>
<g>
	<path class="st7" d="M181.5,105h13.9l0.4-1.5c0.4-1.7,1.6-4,3.1-4.9c1.2-0.8,2.7-1.2,4.3-0.3c3.2,1.8,4.2,6.1,2,9
		c-0.2,0.3-0.5,0.6-0.8,0.8c-3.5,3.4-9.4,10.4-9.6,12.4c-0.1,2,0.2,10.3,0.2,10.3h12.5v-2.3c0-4,1.6-7.9,4.4-10.8
		c0.6-0.6,1.3-1.2,2-1.9c4.6-4,9.8-12.8,3.3-22.2c0,0-6.9-11.3-21.3-7.3C195.9,86.4,184.3,88.7,181.5,105z"/>
	<circle class="st7" cx="201.4" cy="143.9" r="7"/>
</g>
</svg>
