<?xml version="1.0" encoding="utf-8"?>
<!-- Generator: Adobe Illustrator 23.1.0, SVG Export Plug-In . SVG Version: 6.00 Build 0)  -->
<svg version="1.1" id="Слой_1" xmlns="http://www.w3.org/2000/svg" xmlns:xlink="http://www.w3.org/1999/xlink" x="0px" y="0px"
	 viewBox="0 0 283.5 283.5" style="enable-background:new 0 0 283.5 283.5;" xml:space="preserve">
<style type="text/css">
	.st0{fill:#BC2739;}
	.st1{fill:#5F1E27;}
	.st2{fill:#FCCDAD;}
	.st3{fill:#FFFFFF;}
	.st4{fill:none;stroke:#231F20;stroke-linecap:round;stroke-linejoin:round;stroke-miterlimit:10;}
	.st5{fill:#231F20;}
</style>
<path class="st0" d="M205.3,235.2h-97.8V181l-7.6-4.2l-12.6-7.6l-12.8-9.3l-7.2-7.1l-3.4-5.8l-0.4-3.2l1.7-4.2l8.6-13.3l20.6-29
	L96,99l6.8,11.1l-8.2,14.8c0,0-4.9,13.4-4.8,14.3c0.1,0.9,1.7,1.4,1.7,1.4l22.3,4.7l6.6,1.6l6.9,0.8l0.9,0.1l1.7,2.4
	c0,0,4,5.4,5.1,6.1c1.1,0.6,4,2.2,4.9,2.5s8,1.7,10,0.6s8.2-3.1,10.9-5.2c2.7-2.1,7.9-6.8,7.9-6.8l4.9,0.8c0,0,12.1,3.1,14.9,5.2
	c2.7,2.1,5.6,4.4,8.1,7.6s3.4,7,3.7,8.7c0.3,1.8,2.7,31.6,2.7,31.6L205.3,235.2z"/>
<path class="st1" d="M131.3,92.2l-20.5,2.1l-3.1,1.5l0.9-5.1l1.7-4.7l2.5-2.6l2.3-2.5l0.7-2.9l-0.1-2l1-4.5l1.7-1.6l2.9-1.7l4.6-2.3
	L129,63l5.4-2.1l3-0.3l3.1,0.5l1.8-1.2l6.6-3.2l5-0.8l2.9,0.7l2.8,2.4l3.5,3.6l5.1,4.3c0,0,3.2,2.6,4.1,4.1c0.9,1.5,1.8,2.6,2,3.9
	c0.2,1.3-0.6,4.3-0.6,5.5c0,1.1-0.2,1.7,0.9,2.8c1.1,1.1,4.7,4.6,4.7,4.6s3.6,3.8,3.3,5.6c-0.3,1.8-1.5,5.4-1.6,6.7
	c-0.1,1.2-0.4,1.5,0.1,3c0.5,1.6,1.5,4.1,1.5,4.1l-0.2,3.6l-1.2,3l-1.5,1.4l-3.3,1.1l-0.8,2.6l-1.2,3.5l-1.7,3.2l-1.1,1.7l-0.9,0.9
	l-6.1-0.2l-2.1-7.7c0,0,2.6-13.8,2.4-14.5c-0.1-0.7-1.9-8.5-2.4-9.8s-9.7-7.7-9.7-7.7l-6.6-5.4l-9.5,4.3l-1.5,4.2l-3.9,1.6V92.2z"/>
<polygon class="st1" points="130.3,128 127.7,128.1 124.5,126.1 123.1,124.3 119.6,124.1 116.7,124.1 114.8,123 114.3,121.5 
	115.6,117 115.6,114.6 112.9,108.9 117.1,104.7 122.7,101.3 127.5,100 131.3,124.1 "/>
<path class="st2" d="M168.6,147.4l-5.1,4.7l-5,3.6l-6.4,3.3l-5,0.9l-4,0.1l-5.6-2.1c0,0-4.8-3.1-5.9-4.9c-1.1-1.8-3.4-5-3.4-5l8.4-1
	c0,0,2-7.7,0.6-11.5l-2.1-2c0,0-3.8-4.4-4.4-5.3s-4-6.1-4-6.1l-1.7-0.3c0,0-2.4-0.8-3.1-2.8c-0.7-2.1-1.1-6.4-1.1-6.4l2-0.6l1,0.6
	l0.1-1l1.1-0.6l1.8-1.5l-0.4-2.1l-1.5-2.6l1.6-4l-1.2-0.2c0,0-5,2.5-5.4,2.8c-0.4,0.2-3.7,2.1-3.7,2.1l3,2.5l1.2,1.9l-0.5,2.1
	l-1.3-0.5l-1.8-1l-3.7-1l-3.9-1.4l-1.9-0.3l-5.4,1.1l-4.4-7.4l5.2-3.9l7.4-2.9l17.8-1.7l4.3-0.6l9.4-0.2l-9,0.5l0-2.8l0.4-3.4
	l2.4-2.2l4.5-2.6l3.3-1.8l2.2-2.2l1.2-2.5l-0.4-2.2l1.5-0.2l3.3,1.2c0,0,2.4,2.7,4.7,9.3c2.3,6.6,1.5,6.4,3.1,7.1
	c1.5,0.7,4.9,2.7,4.9,2.7l2,1.7l0.5,3.7l0.4,2l1,1.3c0,0,3.8,2.8,3.9,3s2.1-0.7,2.1-0.7l1.7,1.3l0.3,3.1l-0.6,3.5l-1,3.2l-2.3,2.1
	l-2.7,1.1l-1.1,0.7l-0.8,4l-2.5,5.1l-5.8,6.8l1,12.1l3.8,0.4L168.6,147.4z"/>
<path class="st1" d="M160.4,96.8c-0.5-0.1-6.5-0.5-6.5-0.5l-4-0.9l-0.4-1.8l1.2-1.5h2.5l3.5,1.1l3.8,3.2L160.4,96.8z"/>
<path class="st1" d="M132.9,95.8l8,0l2-0.5c0,0,0.3-0.9,0.3-1.4s-1.8-1.1-1.8-1.1L132.9,95.8z"/>
<path class="st3" d="M134.2,103.7c0.8,0,0.9-1.3,0-1.3c-0.5,0-0.9,0.2-1.1,0.5c-0.2,0-0.4,0-0.6,0.1c-0.5,0-0.6,0.5-0.5,0.9
	c-0.2-0.1-0.4-0.3-0.6-0.4c-0.3-0.2-0.9,0.1-0.6,0.5c0.7,1,1.8,1.8,2.7,2.6c0.6,0.5,1.6-0.1,1-0.8c-0.3-0.3-0.5-0.6-0.8-1
	c0.2-0.2,0.3-0.5,0.2-0.8C134,104,134.1,103.9,134.2,103.7z"/>
<path class="st3" d="M139.3,103.8c-0.1-0.2-0.3-0.4-0.6-0.4c-0.8-0.1-1.6-0.3-2.3-0.4c-0.7-0.1-1,1-0.3,1.2c0.3,0.1,0.3,0.5,0,0.5
	c-0.7,0-0.9,0.9-0.4,1.1c-0.2,0.1-0.4,0.1-0.5,0.2c-0.4,0.1-0.3,0.6,0.1,0.6c0,0,0,0,0,0c0,0.1,0.1,0.3,0.2,0.3c1.5,0,3.5-1,4-2.5
	C139.6,104.1,139.5,103.9,139.3,103.8z"/>
<path class="st3" d="M156,105.3c-0.3-0.2-0.6-0.5-0.8-0.7c0.2-0.1,0.4-0.2,0.4-0.5c0-0.3,0-0.5,0-0.8c0-0.1,0-0.1,0-0.2
	c0-0.1,0.1-0.1,0.2-0.1c0.9-0.2,0.6-1.4-0.3-1.2c-0.5,0.1-0.9,0.4-1.1,0.7c-0.5,0-1,0.1-1.4,0.4c-0.3,0-0.6,0.2-0.7,0.6
	c0,0.1,0,0.2,0,0.3c0,0.1,0,0.2,0.1,0.3c-0.3-0.1-0.6-0.1-0.9,0c-0.1,0-0.1,0.1-0.1,0.2c0.3,0.6,1,0.8,1.6,1c0.8,0.3,1.6,0.7,2.5,1
	C155.8,106.5,156.5,105.7,156,105.3z"/>
<path class="st3" d="M160.6,103c-0.5-0.5-1.1-0.9-1.6-1.4c-0.3-0.3-0.8-0.2-1,0.1c-0.5-0.2-1.1,0.1-0.9,0.6c0.2,0.5,0.4,1,0.6,1.5
	c0.1,0.3,0.4,0.5,0.7,0.5c-0.5,0.5-0.9,1-1.3,1.5c-0.2,0.3,0.3,0.6,0.5,0.4c1.1-0.7,2-1.5,3-2.4C160.8,103.6,160.9,103.3,160.6,103z
	"/>
<g>
	<line class="st4" x1="107.5" y1="181" x2="107.5" y2="233.4"/>
	<path class="st4" d="M115.6,185.2c0,0-60.2-29-51.3-44.2c8.9-15.2,30.3-44,30.3-44l8,13.2c0,0-13.8,23.2-13.2,33.5"/>
	<path class="st4" d="M89.8,139.8c0,0,27.2,6.1,31.6,7.4c4.5,1.3,15.2-0.4,15.2-0.4"/>
	<path class="st4" d="M159.7,146.7c2.7,0.3,38.9-0.4,40.9,26.4s4.7,62,4.7,62"/>
	<line class="st4" x1="183.3" y1="185.2" x2="190.6" y2="233.4"/>
	<path class="st4" d="M137.2,135.3c0,0,1.4,7.8-1.5,18.1"/>
	<path class="st4" d="M158.7,134.7c0,0,0.7,15.2,1.6,17.4"/>
	<path class="st4" d="M128.3,147.8c0,0,12.9,27.5,40.4-0.4"/>
	<path class="st4" d="M123.7,112.3c0,0-4.2-2.3-2.6,4.3c1.2,5.4,5.6,5.2,5.6,5.2s16,28.2,28.8,15.5c0,0,11.9-8.2,12.5-19
		c0,0,5-0.6,6.5-4.7c1.6-4,2.3-11.7-1.9-9.5c-4.2,2.2-2.8,1.7-2.8,1.7"/>
	<path class="st4" d="M171.6,107.4c0,0-1.9,4.4-1.9,5.8"/>
	<line class="st4" x1="173.2" y1="110.2" x2="170.2" y2="111.2"/>
	<path class="st4" d="M122.3,115.1c0,0,4.4,3,5,3.7"/>
	<line class="st4" x1="123.4" y1="117.7" x2="125.9" y2="117.7"/>
	<path class="st4" d="M97.5,101.6c0,0,8.4-7,14.5-7.5c6.1-0.5,27.4-2.6,30-2c2.6,0.6-19.4,6.3-21.8,7.2"/>
	<path class="st4" d="M101.7,108.5c0,0,5.8-1.3,8.6-1.2c2.8,0.2,8.4-3.6,11-5.1c2.6-1.6,5.6-2.3,7-3.3c1.4-0.9,3.4-2.6,3.4-2.6"/>
	<path class="st4" d="M108.2,95.1c0,0-0.3-7.8,3.6-11s4.1-4.7,3.8-6.7s0.7-7,4.2-8.7s5.8-2.2,7.5-4.4c1.7-2.2,12.6-7.2,15.7,0
		s5.6,12.4-0.9,15.9c-6.4,3.4-10.6,5.5-9.7,8.9c0.9,3.3-1,3.5-1,3.5"/>
	<path class="st4" d="M108.2,107.7c0.3,0.1,2.4,0.5,5.5,1.5c2.1,0.7,4.1,1.4,4.8,2.1c1.9,1.7,2.4-1.7,1.3-2.7c-1-1-4.2-3-4.2-3"/>
	<path class="st4" d="M112.9,109.3c0,0,3.3,4.6,2.7,7.7c-0.6,3.1-2.7,5.1,0.1,6.7c2.7,1.6,6.3-0.8,7.7,0.9c1.4,1.7,1.6,2.6,3.7,3.3
		c2.2,0.7,3.6,0,3.6,0"/>
	<path class="st4" d="M127.2,99.5c0,0-2.6,3-2.5,5s3.8,4.1,1.2,5.7c-2.8,1.7-3.2,1.5-3.2,1.5"/>
	<path class="st4" d="M143,64.3c0,0-10.3,0-10.6,4.7C132.1,73.6,143,64.3,143,64.3z"/>
	<path class="st4" d="M144.8,68.4c0,0-9.7,5.1-9,8S144.8,68.4,144.8,68.4z"/>
	<path class="st4" d="M146.2,72.7c0,0,4.9-1.7,7.7,5.2s2.6,11.2,4.8,12.3c2.2,1.1,6.5,2.8,7.2,5.7c0.6,3,0,4.8,2.2,5.7
		c2.2,0.9,3.6,3.1,3.6,3.1"/>
	<path class="st4" d="M143,64.1c0,0,5.3-3,8.2-1.9C154.2,63.2,143,64.1,143,64.1z"/>
	<path class="st4" d="M145.2,68.7c0,0,11.5-5.8,10.8-1.4C155.1,71.6,145.2,68.7,145.2,68.7z"/>
	<path class="st4" d="M140.4,61.1c0,0,12.6-9.4,18.3-3s8.4,8,10.1,9.2s6.2,6.1,5.4,9.6s-1.6,4.8,1.4,7.3c3,2.5,5.1,4.8,6.4,8.7
		c1.2,3.9-2.2,6.1-0.9,10.1c1.2,4,1.8,3.3,1.2,7.7c-0.8,6.2-6.2,3-6.6,6.9s-1,3.7-2.5,6.8c-1,2.2-1.6,3.7-4,3.5s-4.6,0-4.6,0"/>
	<path class="st4" d="M143,126.6c0,0,4.2-6.7,12.9-4.8"/>
	<path class="st4" d="M148.4,130.6c0,0,3-3.4,6.2-2.7"/>
	<path class="st4" d="M143,96.8c0,0,3.8,7.9,3.2,11.8c-0.5,2.8-2,5-2.8,5.9c-0.2,0.3-0.1,0.7,0.2,0.8l0,0c1.3,0.4,2.8,0.4,4.1,0
		l1.5,0.3"/>
	<path class="st4" d="M150.7,112.3c0,0,1.8,2,1.4,2.8"/>
	<path class="st4" d="M151.4,103.9c0,0,5.1-5.4,9.3-0.7"/>
	<path class="st4" d="M130.7,103.9c0,0,3.3-3.6,8.9,0"/>
	<path class="st4" d="M131.6,96.3c0,0,11-0.1,11.4-1.2c0.6-2-1.3-2.3-1.3-2.3"/>
	<path class="st4" d="M160.7,96.8c0,0-9-0.6-10-1c-2.8-1-0.8-3.6,1.1-3.7C153.7,92,158.5,92.9,160.7,96.8z"/>
	<ellipse class="st5" cx="135.4" cy="104.6" rx="1.9" ry="2.6"/>
	<ellipse class="st5" cx="156.6" cy="103.9" rx="1.9" ry="2.6"/>
</g>
<g>
	<path class="st5" d="M202.2,115.2h13.7l0.4-1.6c0.4-1.8,1.6-4.1,3.1-5.1c1.2-0.8,2.6-1.2,4.3-0.3c3.2,1.8,4.1,6.3,1.9,9.3
		c-0.2,0.3-0.5,0.6-0.8,0.9c-3.4,3.5-9.3,10.7-9.4,12.8c-0.1,2.1,0.2,10.7,0.2,10.7h12.3v-2.4c0-4.2,1.5-8.2,4.3-11.1
		c0.6-0.6,1.2-1.3,2-1.9c4.6-4.2,9.6-13.2,3.2-23c0,0-6.8-11.7-20.9-7.6C216.4,96,204.9,98.4,202.2,115.2z"/>
	<ellipse class="st5" cx="221.7" cy="155.5" rx="6.9" ry="7.2"/>
</g>
<path class="st5" d="M64.1,48.8l-6.6-1.6l-6.6-1.6l1.6,6.6l1.6,6.6l3.5-3.6l39.6,39.3c0.5,0.5,1.5,0.2,2.3-0.6l0,0
	c0.8-0.8,1-1.8,0.6-2.3L60.6,52.4L64.1,48.8z"/>
<path class="st5" d="M59.6,224.6l-1.6,6.6l-1.6,6.6l6.6-1.6l6.6-1.6l-3.6-3.5l39.3-39.6c0.5-0.5,0.2-1.5-0.6-2.3l0,0
	c-0.8-0.8-1.8-1-2.3-0.6l-39.3,39.6L59.6,224.6z"/>
<path class="st5" d="M227.2,51.1l6.6-1.6l6.6-1.6l-1.6,6.6l-1.6,6.6l-3.5-3.6L194,96.8c-0.5,0.5-1.5,0.2-2.3-0.6l0,0
	c-0.8-0.8-1-1.8-0.6-2.3l39.6-39.3L227.2,51.1z"/>
<path class="st5" d="M231.2,224.6l1.6,6.6l1.6,6.6l-6.6-1.6l-6.6-1.6l3.6-3.5l-39.3-39.6c-0.5-0.5-0.2-1.5,0.6-2.3h0
	c0.8-0.8,1.8-1,2.3-0.6l39.3,39.6L231.2,224.6z"/>
</svg>
