<?xml version="1.0" encoding="utf-8"?>
<!-- Generator: Adobe Illustrator 22.1.0, SVG Export Plug-In . SVG Version: 6.00 Build 0)  -->
<svg version="1.1" id="Слой_7" xmlns="http://www.w3.org/2000/svg" xmlns:xlink="http://www.w3.org/1999/xlink" x="0px" y="0px"
	 viewBox="0 0 512 512" style="enable-background:new 0 0 512 512;" xml:space="preserve">
<style type="text/css">
	.st0{fill:#FFFFFF;stroke:#000000;stroke-width:2.7745;stroke-linecap:round;stroke-linejoin:round;stroke-miterlimit:10;}
	.st1{fill:#FDCD95;stroke:#000000;stroke-width:1.8178;stroke-linecap:round;stroke-linejoin:round;stroke-miterlimit:10;}
	.st2{fill:#662227;stroke:#000000;stroke-width:1.8178;stroke-linecap:round;stroke-linejoin:round;stroke-miterlimit:10;}
	.st3{fill:none;stroke:#000000;stroke-width:1.8178;stroke-linecap:round;stroke-linejoin:round;stroke-miterlimit:10;}
	.st4{fill:none;stroke:#000000;stroke-width:1.2119;stroke-linecap:round;stroke-linejoin:round;stroke-miterlimit:10;}
	.st5{fill:#FFFFFF;}
	.st6{fill:none;stroke:#000000;stroke-width:1.1477;stroke-linecap:round;stroke-linejoin:round;stroke-miterlimit:10;}
	.st7{fill:#816164;stroke:#000000;stroke-width:2;stroke-linecap:round;stroke-linejoin:round;stroke-miterlimit:10;}
	.st8{fill:#8A242E;stroke:#000000;stroke-width:2;stroke-linecap:round;stroke-linejoin:round;stroke-miterlimit:10;}
	.st9{fill:#FDCD95;stroke:#000000;stroke-width:2.0637;stroke-linecap:round;stroke-linejoin:round;stroke-miterlimit:10;}
	.st10{fill:none;stroke:#000000;stroke-width:2;stroke-linecap:round;stroke-linejoin:round;stroke-miterlimit:10;}
	.st11{fill:#45415E;stroke:#000000;stroke-width:2.2402;stroke-linecap:round;stroke-linejoin:round;stroke-miterlimit:10;}
	.st12{fill:#FDCD95;stroke:#000000;stroke-width:2.2402;stroke-linecap:round;stroke-linejoin:round;stroke-miterlimit:10;}
	.st13{fill:none;stroke:#000000;stroke-width:2.2402;stroke-linecap:round;stroke-linejoin:round;stroke-miterlimit:10;}
	.st14{fill:#FFD551;stroke:#000000;stroke-width:2.2402;stroke-linecap:round;stroke-linejoin:round;stroke-miterlimit:10;}
	.st15{fill:#857154;stroke:#000000;stroke-width:2.2402;stroke-linecap:round;stroke-linejoin:round;stroke-miterlimit:10;}
	.st16{fill:#857154;stroke:#000000;stroke-width:1.1201;stroke-linecap:round;stroke-linejoin:round;stroke-miterlimit:10;}
	.st17{fill:#FDCD95;stroke:#000000;stroke-width:1.1201;stroke-linecap:round;stroke-linejoin:round;stroke-miterlimit:10;}
	.st18{fill:none;stroke:#000000;stroke-width:1.1201;stroke-linecap:round;stroke-linejoin:round;stroke-miterlimit:10;}
	.st19{fill:#FFFCCB;stroke:#000000;stroke-width:2.2402;stroke-linecap:round;stroke-linejoin:round;stroke-miterlimit:10;}
	.st20{fill:none;stroke:#000000;stroke-width:2.0194;stroke-linecap:round;stroke-linejoin:round;stroke-miterlimit:10;}
	.st21{fill:#FDCD95;stroke:#000000;stroke-width:1.7215;stroke-linecap:round;stroke-linejoin:round;stroke-miterlimit:10;}
	.st22{fill:#634940;stroke:#000000;stroke-width:1.5423;stroke-linecap:round;stroke-linejoin:round;stroke-miterlimit:10;}
	.st23{fill:none;stroke:#000000;stroke-width:2.0637;stroke-linecap:round;stroke-linejoin:round;stroke-miterlimit:10;}
	.st24{fill:#FDC663;stroke:#000000;stroke-width:1.9299;stroke-linecap:round;stroke-linejoin:round;stroke-miterlimit:10;}
	.st25{fill:#FDCD95;stroke:#000000;stroke-width:1.9299;stroke-linecap:round;stroke-linejoin:round;stroke-miterlimit:10;}
	.st26{fill:#97B043;stroke:#000000;stroke-width:2.0637;stroke-linecap:round;stroke-linejoin:round;stroke-miterlimit:10;}
	.st27{fill:#DFD977;stroke:#000000;stroke-width:2.0637;stroke-linecap:round;stroke-linejoin:round;stroke-miterlimit:10;}
	.st28{fill:none;stroke:#000000;stroke-width:1.9299;stroke-linecap:round;stroke-linejoin:round;stroke-miterlimit:10;}
</style>
<g>
	<path class="st0" d="M502.5,256c0,81.3-39.7,153.4-100.9,197.8c-8.8,6.4-18,12.2-27.6,17.4c-7.3,3.9-14.8,7.5-22.4,10.7
		c-14.9,6.2-30.6,10.9-46.8,14.1c-9.9,1.9-20,3.2-30.3,3.9c-5.4,0.4-10.9,0.5-16.4,0.5c-2.9,0-5.8,0-8.6-0.1
		c-11-0.4-21.9-1.5-32.5-3.3c-8.8-1.5-17.5-3.5-26-5.9c-12.5-3.6-24.6-8.1-36.2-13.5c-6.4-3-12.6-6.2-18.6-9.7
		c-13.3-7.6-25.8-16.5-37.3-26.4C46.6,396.7,13.5,330.2,13.5,256C13.5,121,123,11.6,258,11.6S502.5,121,502.5,256z"/>
	<g>
		<g>
			<g>
				<path class="st1" d="M247.9,177.7c0,0,1.2,9.8-2,14.1c-2.3,3-12.3,6.8-12.3,6.8l-8.3,8.3l30.1,11.2l17.5-1.7
					c0,0,8.3-4.7,8.3-5.3c0-0.6,0-10.6,0-10.6s-11.1-4.5-12.2-17.1v-8.5l-5.3,2.9l-7.1,0.9L247.9,177.7z"/>
				<path class="st2" d="M238.6,176.7c0,0-6.7-5-10.3-3s-6-3.9-6.7-6.3c-0.5-1.6-3.8-3.7-6-5.9c-1.5-1.4-2.4-6.4-2.2-8.5
					c0.3-3.4-0.4-8.2-1.8-10.7c-1-1.7-2.2-8.5,1-10.9c3.2-2.4,5.7-10.7,5.5-13.5c-0.2-2.8,2.4-8.7,9.2-8.5c4.5,0.1,12-6.1,13.2-9.5
					c1.2-3.4,13.8-13.3,20.4-2.4c0,0,11.5-2.2,17.7,5.3c6.3,7.5,12.5,6.9,12.5,6.9s8.3,2.2,6.1,11.4s1,12.1,3.2,13.6
					c2.2,1.5,4.6,8.1,2.8,12c-1.8,3.8-4.2,12.5-4.2,14.3s-0.3,9.1-4.7,11.3c-4.4,2.2-7.7,4.8-9.4,7.3c-1.3,1.8-9.7,2.8-10.3,1.2
					s-6.7,2-6.7,2s-2.4,3.4-3.6,3.8c-1.2,0.4-11.3,1-12.3,0c-1-1-8.7-3.6-8.9-4.2C242.8,181.8,238.6,176.7,238.6,176.7z"/>
				<path class="st1" d="M235.7,127.5c3.5-0.6,9.9-3.1,12.2-5.9c0.2-0.3,0.5-0.6,0.7-0.9c4-5,6.9-5.7,8.7-6.7
					c1.2-0.7,4.1-2.3,5.4-4.4c0.6-1,0-2.2,0.4-3.5l-1,4.2c21-4.2,9.8,20.4,16.1,22.8c6.3,2.4,9.1,7.5,9.1,7.5l-2.5,2.9
					c1.8-2.1,5.1-5,7.7-2.6c3.6,3.4,4.5,17.5-8.1,22.6c-3.2,17.3-13.5,29.9-25.7,29.9c-12.6,0-23.1-13.4-26-31.4
					c-10.1-2.9-13.4-14.8-9.3-19.9c3.4-4.2,7.3-1.8,9.3,0c0.9-5.5,2.5-10.6,4.7-15"/>
				<path class="st3" d="M284.3,121c0,0,1-6.3-3.9-7.7c-4.8-1.4-6.1-4-6.5-5.7c-0.5-1.8-3.6-6.9-10.4-5.5"/>
				<path class="st3" d="M237.3,140.2c0,0,5.6-2.8,12.4-2.2"/>
				<path class="st3" d="M261.3,137.9c0,0,9.4-0.1,12.6,2.9"/>
				<path class="st4" d="M250.9,142.3c0,0,3.5,12.5,1.3,19.8c-0.4,1.3,0.2,2.6,1.4,3.2c1.3,0.6,3.1,0.9,5.7,0"/>
				<path class="st4" d="M261.3,158.7c0,0,1.8,2.7,1.5,5.1"/>
				<circle cx="242.9" cy="152.2" r="3.9"/>
				<circle class="st5" cx="243.1" cy="152.2" r="1.1"/>
				<path class="st3" d="M236.7,151.1c0,0,5.5-5.2,11.7-0.9"/>
				<circle cx="270.8" cy="151.5" r="3.9"/>
				<path class="st3" d="M277,150.4c0,0-5.5-5.2-11.7-0.9"/>
				<circle class="st5" cx="270.8" cy="151.6" r="1.1"/>
				<path class="st4" d="M225.3,145.3c0,0,3.9,5.5,4.7,8.6"/>
				<path class="st4" d="M224.4,149.8c0,0,2.8-0.9,3.8,0"/>
				<path class="st6" d="M290.6,147.7c0,0-3.7,5.2-4.5,8.1"/>
				<path class="st6" d="M291.5,152c0,0-2.6-0.8-3.6,0"/>
				<path class="st3" d="M260.8,97.6c0,0,1.2,1.9,1.9,4.3c0.4,1.4,0.7,3,0.3,4.3"/>
				<path class="st3" d="M237.7,115c0,0,3.9-6.3,8.2-7c4.3-0.7,7.9-2.2,8.6-3.4c1.2-2.1,4.9-5.4,6.8-5.1"/>
				<path class="st3" d="M248.8,175.4c0,0,8.5,16.4,18.2-1.5"/>
			</g>
			<g>
				<path class="st7" d="M304.7,496c-9.9,1.9-20,3.2-30.3,3.9l-13.2-118.5l-11.8,118.9c-11-0.4-21.9-1.5-32.5-3.3l9.8-147.9l0.6-8.4
					l71-2.7l0.5,12.4L304.7,496z"/>
				<path class="st8" d="M134,225c0,0,84.6-36.7,99.4-26.2c14.7,10.5,35,8.2,47.8-0.1c0,0,25.8-0.2,47.8,12.3s83.4,33.4,83.4,33.4
					l-37.1,8.7l-40.5-6.4l-32.3,0.2l2.2,102c0,0-50.7,14.6-87.2-3.8c0,0,1.5-95.3,0.5-100.9c-1-5.6-85.8-4.9-85.8-4.9L134,225z"/>
			</g>
			<path class="st9" d="M401.6,453.9c-8.8,6.4-18,12.2-27.6,17.4c-7.3,3.9-14.8,7.5-22.4,10.7c-2.5-14.9-4.4-33-5.6-45.2
				c-0.8-8.3-1.2-13.9-1.2-13.9s49.2-8.1,56.2,5.9c1,1.9,1.4,4.9,1.6,8.6C402.7,441.9,402.3,447.6,401.6,453.9z"/>
			<polyline class="st10" points="374,471.3 373,438.4 372.7,431.1 			"/>
			<path class="st11" d="M190.9,491.1c-12.5-3.6-24.6-8.1-36.2-13.5l-11.6-84.5l-7,74.8c-13.3-7.6-25.8-16.5-37.3-26.4l0.6-85.3
				l0-7.2l87.4,1.5l0.3,8.6L190.9,491.1z"/>
			<g>
				<path class="st12" d="M73.3,265.6c0,0-4.2,101.1-5,103.9c-0.8,2.8-5,34.2,9,40.3c0,0,2.8,1,5-0.2c1.3-0.7,1.9-2.4,1.5-3.8
					c-1.6-5.4-5.8-22.1,0.5-24.1c0,0,9.7,12.4,7.7,2.4c-0.1-0.7-5.9-13.7-5.6-21.6s4.8-58.2,4.8-58.2l2.7-37.2L73.3,265.6z"/>
				<path class="st13" d="M71.9,394.3c0,0,2.3,11.7,6.8,15.9"/>
				<path class="st13" d="M75.3,393.2c0,0,3,13,6.9,16.4"/>
			</g>
			<g>
				<path class="st12" d="M216.6,265.8c0,0,4.2,101.1,5,103.9c0.8,2.8,5,34.2-9,40.3c0,0-2.8,1-5-0.2c-1.3-0.7-1.9-2.4-1.5-3.8
					c1.6-5.4,5.8-22.1-0.5-24.1c0,0-9.7,12.4-7.7,2.4c0.1-0.7,5.9-13.7,5.6-21.6c-0.3-7.8-4.8-58.2-4.8-58.2l-2.7-37.2L216.6,265.8z
					"/>
				<path class="st13" d="M218,394.4c0,0-2.3,11.7-6.8,15.9"/>
				<path class="st13" d="M214.6,393.3c0,0-3,13-6.9,16.4"/>
			</g>
			<path class="st14" d="M120.5,184.4c0,0-30.1,5.5-34,13.3c-3.9,7.8-21.8,66.2-21.8,66.2s11.1,13.3,32.3,5.3l-1.1,85
				c0,0,44.9,28.8,96,2.7l2.4-87.4c0,0,17.4-0.2,23.1-3.7c0,0-3-64.2-23.7-72.2c-20.7-7.9-31.2-10.9-31.2-10.9L120.5,184.4z"/>
			<path class="st12" d="M125.3,162.4l1.8,24.2c0,0,10.8,7.3,16.7,16.5c0,0,2.2-6.6,15-18.2l-2.2-22.5c0,0-9,5.7-12.9,5.9
				C139.7,168.4,125.3,163.7,125.3,162.4z"/>
			<path class="st15" d="M106.1,133.6l72-1.5c0,0,11.8-43.4-21.3-60.5c-16.5-8.6-30.3-4-39,3c-8.4,6.8-13.7,16.7-15.1,27.4
				C101.2,112.8,100.4,128,106.1,133.6z"/>
			<path class="st12" d="M168.6,104.7c-2.2-7.3-6.7-12.6-16.4-6.7c-9.9,6-17.4,0.8-20.9-1c-2-1-4.3-2.1-6.5-1.8
				c-14,1.7-12,15.5-12,15.5c-2.3,5.9-2.2,10.8-2.2,18c0,0.3,0,0.7,0,1c-2.6-2.4-7.6-5.6-9.3,1.7c-2.1,9.5,6.4,16,10.9,11.2
				c4.2,17.1,16.1,29.4,30.1,29.4c14.2,0,26.3-12.8,30.3-30.3v0c7.6,1.9,9-8.5,7.3-12.9c-1.1-2.9-3.8-2.1-5.9-0.8
				c-0.1-8.9-2.2-17.1-5.7-23.9c0,0,0,0,0,0"/>
			<path class="st16" d="M174.9,141.6l-3.6-2.8c0-0.1,0,0,0,0l0,0c0,0.2-0.7,1.3-5.5,7c-5,6-14.3,4.3-17.9,3.3
				c-0.9-0.3-1.9-0.1-2.7,0.5c-1.2,0.9-3.3,2.2-5.5,2.4c-2.5,0.2-5-1.1-6.5-2.1c-0.9-0.6-2-0.7-2.9-0.3c-8.9,4.2-16.3-8.8-16.3-8.8
				l-3.9,2.2c0.8,16.1,15.8,32.8,31.3,32.8c15.9,0,30.5-16,33.3-32.2C174.8,142.9,174.9,142.3,174.9,141.6z"/>
			<path class="st17" d="M148.2,154.1c-1.7,0-6.4,3.7-11.3,1.8c-2.6-1-5-0.7-6.7-0.2c0,0.2-0.1,0.4-0.1,0.6c0,3.4,3.9,9.8,9.7,9.8
				c5.7,0,10.3-6.2,10.3-9.6C150.2,155.1,149.4,154.4,148.2,154.1L148.2,154.1"/>
			<path class="st16" d="M130.2,116.6l-3.8-5.7c0,0-14.4,4.6-9.5,12.2C116.9,123.1,124.9,117.2,130.2,116.6z"/>
			<path class="st16" d="M150.2,116l3.8-5.7c0,0,14.4,4.6,9.5,12.2C163.5,122.4,155.5,116.5,150.2,116z"/>
			<circle class="st18" cx="124.8" cy="132.2" r="7.9"/>
			<circle class="st18" cx="154.8" cy="131.8" r="7.9"/>
			<circle cx="124.5" cy="131.4" r="3.9"/>
			<circle class="st5" cx="124.5" cy="131.4" r="1"/>
			<path class="st18" d="M120.1,129.4c0,0,3.5-4.3,8.7,0"/>
			<circle cx="154.7" cy="131.8" r="3.9"/>
			<path class="st18" d="M159.1,129.8c0,0-3.5-4.3-8.7,0"/>
			<circle class="st5" cx="154.7" cy="131.4" r="1"/>
			<path class="st18" d="M135.8,123.1c0,0,3.7,17,0.4,20.9s5.1,4.5,6.8,2.1"/>
			<path class="st18" d="M132.6,130.2c0,0,6.1-4.7,14.3,0"/>
			<path class="st18" d="M133.8,158.2c0,0,4.9,6.7,12.3,0"/>
			<path class="st19" d="M125.8,180.8l-14,4.9c0,0,10.6,18.6,9.5,22.5c0,0,7.6-4.8,19.7-8.7L125.8,180.8z"/>
			<path class="st19" d="M159.2,177.4l13,6.6c0,0-7.2,16.9-9.4,24.9c0,0-9-9-16.7-8.8L159.2,177.4z"/>
			<line class="st13" x1="101" y1="226.6" x2="97" y2="269.2"/>
			<line class="st20" x1="191.6" y1="228.5" x2="194.3" y2="269.5"/>
			<path class="st21" d="M331.2,374.2l2.3,19.8h14.6c0,0-3.7-21.2-6-24.4S331.2,374.2,331.2,374.2z"/>
			<g>
				<path class="st22" d="M332.6,317.5c0,0-6.5,5.3-5,28.4c1.5,22.1,13.2,90.4,13.2,90.4s54.3,5.7,69-0.9c0,0,18.3-110.5,0-118.5
					c-18.3-7.9-48.6-7.2-48.6-7.2L332.6,317.5z"/>
				<g>
					<path class="st9" d="M309.4,328.1c0,0-3.7,17.3-3.3,29.2c0.1,2.4,0.5,4.9,1.5,7.1c1.2,2.8,3.1,5.5,5.3,1c0,0,4.9,17,7,4.5
						c0,0,10.6,14.1,5.7-14.8c0,0,7.3,19.4,7.6,9.5c0.1-2.1-0.3-4.2-0.9-6.1c-1.5-4.5-4.2-13.9-0.1-11.5c0,0,4.5,4,5.2,0.5
						c0.6-3.5-17.9-20.1-17.9-20.1L309.4,328.1z"/>
					<path class="st23" d="M313.6,355.6c0,0-0.6,4.1-0.8,9.9"/>
					<line class="st23" x1="318.5" y1="356.9" x2="319.8" y2="370.1"/>
				</g>
				<g>
					<path class="st9" d="M430.3,328.1c0,0,3.7,17.3,3.3,29.2c-0.1,2.4-0.5,4.9-1.5,7.1c-1.2,2.8-3.1,5.5-5.3,1c0,0-4.9,17-7,4.5
						c0,0-10.6,14.1-5.7-14.8c0,0-7.3,19.4-7.6,9.5c-0.1-2.1,0.3-4.2,0.9-6.1c1.5-4.5,4.2-13.9,0.1-11.5c0,0-4.5,4-5.2,0.5
						c-0.6-3.5,17.9-20.1,17.9-20.1L430.3,328.1z"/>
					<path class="st23" d="M426.1,355.6c0,0,0.6,4.1,0.8,9.9"/>
					<line class="st23" x1="421.2" y1="356.9" x2="419.9" y2="370.1"/>
				</g>
				<path class="st24" d="M368.3,84c0,0-24-15-38.7,9.8c0,0-5.9,13.2-5.7,21.7s-3.9,20.9-5.2,23.7c-1.3,2.8-6.7,15.7-2.6,21.7
					s4.9,10.3,3.1,16s0,12.4,4.6,13.2c4.6,0.8,4.1,7,4.9,10.1c0.8,3.1,11.1,6.2,11.1,6.2h34.3l20.9,3.4c0,0,16.3-8.5,17.3-20.4
					c1-11.9,2.3-23.2,6.4-29.1s2.1-18.8-2.1-26.6s-4.6-23.8-5.4-27.3C410.6,102.6,402.9,72.1,368.3,84z"/>
				<ellipse class="st25" cx="338.8" cy="141.5" rx="3.5" ry="8.8"/>
				<path class="st26" d="M361.4,197.1c0,0-28.4-4.4-35.9,10.6c-7.6,15-15.3,62.6-15.8,66.8c-0.4,3.1-1.9,56.9-1.9,56.9
					s6,3.8,14.8-1.2c0,0,1.5-43.5,11-74.8c0,0,6,16,6.7,22.5c0.7,6.5-10.8,47.5-10.8,47.5s34.2,26.5,86-0.3c0,0-17.4-39.4-12.2-52.5
					c5.2-13.1,5.7-17.7,5.7-17.7s12.4,59.7,7.6,74.3c0,0,4,7.2,16,3.8c0,0,3.6-70.5,0-85.6c-3.6-15.1-2.9-42.5-35.3-50.8
					L361.4,197.1z"/>
				<path class="st23" d="M335.4,233.8c0,0-4.9,13.3-1.9,21.7"/>
				<path class="st23" d="M407.8,233.8c0,0,4,10.7,1,21.2"/>
				<path class="st23" d="M308.5,321.3c0,0,5.3,4.1,14.6-1.3"/>
				<path class="st23" d="M417.5,317.7c0,0,7,6.4,15.5,1.2"/>
				<path class="st27" d="M361.7,194.2c0,0-11.8,3-10,9.5c0.6,2.2,2.6,3.8,4.8,4.3l2.5,0.5c0,0-5.3,15.1,10,10.8
					c0,0,10.5,9.8,13.9-4.3c0,0,15.3-2.1,5.3-13.4c0,0,6.7-8.1-2.8-8.8l-22.1,2.4L361.7,194.2z"/>
				<ellipse class="st25" cx="399" cy="141.7" rx="3.5" ry="8.8"/>
				<path class="st9" d="M359.1,171.7c0,0,3.3,19.3-1.5,23.6c0,0,9.5,25.3,18.8,14.4c9.1-10.7,9.1-16.8,9.1-16.8s-6.3-5.3-2.8-22.7
					L359.1,171.7z"/>
				<path class="st25" d="M398.8,136.6c0,22.9-13.3,41.5-29.7,41.5c-16.4,0-29.7-18.6-29.7-41.5c0-6.5,1.1-12.6,3-18.1v0h0
					c2.7-2.4,6.5-4.6,11.7-6.4c6.8-2.4,11-5.5,13.6-8.6c-2.4,3.8,19.4,17.4,24.9,20c2.5,1.2,4.4,3.6,5.7,5.9
					C398.6,131.7,398.8,134.1,398.8,136.6z"/>
				<path class="st28" d="M368.3,84c0,0,6.8,10.6-0.6,19.5"/>
				<path class="st28" d="M335.3,128c0,0,3.2-9.7,9.4-11.2"/>
				<path class="st28" d="M346.7,122.3c0,0,9.3-5.5,14.7-1.1"/>
				<path class="st28" d="M371.2,120.3c0,0,6.7-2.6,15,3.4"/>
				<ellipse cx="354.5" cy="135.8" rx="3.2" ry="5.6"/>
				<circle class="st5" cx="354.7" cy="135" r="0.9"/>
				<path class="st23" d="M348.6,132.6c0,0,5.1-4.9,11.1-0.7"/>
				<ellipse cx="379.6" cy="136.1" rx="3.2" ry="5.6"/>
				<circle class="st5" cx="379.4" cy="135.3" r="0.9"/>
				<path class="st23" d="M385.5,132.8c0,0-5.1-4.9-11.1-0.7"/>
				<path class="st23" d="M365.1,125.6c0,0,2.4,16.9-0.8,21c0,0,1,3.5,6.9,0.8"/>
				<path class="st23" d="M359.1,156.9c0,0,10.9,16.2,21.8,0"/>
			</g>
		</g>
		<g>
			<path class="st1" d="M78.3,219.3c0,0-13.1-0.2-10.6,7.8c0,0-6.7,2.4-1.5,6.5c0,0-8,4.7-0.2,7.8c0,0-7.1,6.7,5.6,6.7
				c0,0,2.7-0.8,1.5-2.8c0,0,9.5,1.7,5.2-6.5c0,0,7.2,2.2,1.1-5.1c0,0,8.6,1.2,4-4.2C79,224,70.8,224.4,78.3,219.3z"/>
			<path class="st1" d="M66.1,241.2c0,0,4.1,3,7.1,3.9"/>
			<path class="st1" d="M66.3,233.5c0,0,6.1,4.5,12.1,5.2"/>
			<path class="st1" d="M67.8,227c0,0,8.2,5.7,11.7,6.6"/>
		</g>
		<g>
			<path class="st1" d="M431.2,237.2c0,0,11.4,3.8,6.8,9.9c0,0,5.1,4.1-0.7,6.1c0,0,5.5,6.5-2.2,6.8c0,0,4.1,8-6.9,4.1
				c0,0-2.1-1.5-0.4-2.9c0,0-8.7-1.4-2.5-7.2c0,0-6.9-0.3,0.6-4.7c0,0-7.8-1.6-2.2-4.9C429.2,241.1,436.2,244,431.2,237.2z"/>
			<path class="st1" d="M435.2,260c0,0-4.5,1.4-7.3,1.2"/>
			<path class="st1" d="M437.3,253.2c0,0-6.7,2-12,0.8"/>
			<path class="st1" d="M438,247.1c0,0-8.8,2.4-12.1,2.1"/>
		</g>
	</g>
</g>
</svg>
