<?xml version="1.0" encoding="utf-8"?>
<!-- Generator: Adobe Illustrator 22.1.0, SVG Export Plug-In . SVG Version: 6.00 Build 0)  -->
<svg version="1.1" id="Слой_3" xmlns="http://www.w3.org/2000/svg" xmlns:xlink="http://www.w3.org/1999/xlink" x="0px" y="0px"
	 viewBox="0 0 512 512" style="enable-background:new 0 0 512 512;" xml:space="preserve">
<style type="text/css">
	.st0{fill:#857154;}
	.st1{fill:#FDCD95;}
	.st2{fill:#FDCD95;stroke:#000000;stroke-width:2.3711;stroke-linecap:round;stroke-linejoin:round;stroke-miterlimit:10;}
	.st3{fill:none;stroke:#1D1D1B;stroke-width:2.3711;stroke-linecap:round;stroke-linejoin:round;stroke-miterlimit:10;}
	.st4{fill:none;stroke:#000000;stroke-width:2.3711;stroke-linecap:round;stroke-linejoin:round;stroke-miterlimit:10;}
	.st5{fill:#F6F6F6;}
	.st6{fill:#FDCD95;stroke:#000000;stroke-width:3;stroke-linecap:round;stroke-linejoin:round;stroke-miterlimit:10;}
	.st7{fill:#B5D758;stroke:#000000;stroke-width:3;stroke-linecap:round;stroke-linejoin:round;stroke-miterlimit:10;}
	.st8{fill:none;stroke:#000000;stroke-width:3;stroke-linecap:round;stroke-linejoin:round;stroke-miterlimit:10;}
	.st9{fill:none;stroke:#000000;stroke-width:3;stroke-miterlimit:10;}
	.st10{fill:#315164;stroke:#000000;stroke-width:3;stroke-miterlimit:10;}
</style>
<g>
	<g>
		<path class="st0" d="M215,223.4v4.2l11.5,2.7l14-1.9l10.8-6l10.3-12.4c0,0,8.4-12.9,8.3-25.7c-0.1-12.8-0.9-21.5-0.9-21.5
			s-3.2-20.3-6.7-24.7c-3.5-4.4-6.4-16.5-10.4-18.8s-7.7-13-15.1-15.7l-11.5-6.9l-9.4-3l-12.2-0.9l-2.4,1.6l-7.3-2.6l-6.3-0.8
			l-9.5,1.8l-3.6,1.8l-5.9-0.1L155,98.4l-8.4,5.6l-11.3,11.9l-8.7,16c0,0-3.7,10-4.3,12.3s-3.9,24.8-3.6,29.6
			c0.3,4.8,3.3,22.7,5.1,27c1.8,4.3,7.5,14.1,8.6,15.4c1.1,1.3,9.1,10.2,16.1,11.4c7,1.2,9.9,2.2,13.8,2.4c3.9,0.2,7.2-1.5,7.2-1.5
			l6.5-13.3l21.5-0.7c0,0,9.7,2.8,10.5,3c0.8,0.2,7.1,2.7,7.1,2.7V223.4z"/>
		<path class="st1" d="M216.5,251.9l-10,3.9l-12.6,1.8c0,0-14.4-0.6-18.5-2.8c-4.1-2.3-6-3.6-6-3.6l0.9-27.3c0,0-16.5-8.7-21.9-18.4
			s-8.3-18-8.3-18l-1.8-18.4l5-5.4l4.1-7.3l3.6,2.5l4,0.5l5.9-7.4l4.8-10.5l1.8,4.2l3.9,2.5l3.1-2.7l5.2-10.7l0.2,5.7l2.6,2.5
			l4.4-0.4l4.3-4.3l3.7,2.4l3.4,2.7l4.2,0.5l4-3.5l3.7-5.6l1.8,5.4l3.9,7.5l2.2,3.1h2.3l4.3-3.3l2.4,7.3l2.8,3.5l5-0.7l1.7,6.2
			l2.2,3.5l4.4-0.5l2.2-2.8l0.5,12.8l-4.8,19.4l-8.6,13.5l-13.5,11.8l-5.2,2.4L216.5,251.9z"/>
		<path class="st2" d="M245.4,164c0.7-0.2,1.4-0.3,2.2-0.2c4.4,0.5,7.2,6.8,6.4,14c-0.8,7.2-5,12.7-9.4,12.2c-0.4,0-0.7-0.1-1-0.2"
			/>
		<path class="st3" d="M138.2,167.9c0,0.3,0,0.7,0,1.1"/>
		<path class="st4" d="M141.8,192.9c2.8,7.4,7,14,12.4,19.5c4.4,4.5,9.5,8.2,15.2,10.9c6.9,3.3,14.6,5.2,22.7,5.2s15.8-1.9,22.7-5.2
			c5.9-2.8,11.1-6.7,15.6-11.4c5.9-6.2,10.5-13.9,13.1-22.4c1.6-5.4,2.5-11.1,2.5-17c0-3-0.2-5.9-0.6-8.7"/>
		<path class="st4" d="M169.4,223.4L169.4,223.4v5v1.6v21.1c21.2,15.8,47.1,0.8,47.1,0.8"/>
		<polyline class="st4" points="216.5,251.9 215,227.6 214.8,223.4 214.8,223.4 		"/>
		<path class="st2" d="M141.8,192.9c-0.6,0.5-1.4,0.9-2.1,1c-4.3,0.9-9-4.1-10.5-11.2c-1.5-7.1,0.7-13.6,5-14.5c1.3-0.3,2.7,0,4,0.7
			c0,1.2,0,2.8,0,3.7C138.2,179.8,139.4,186.6,141.8,192.9z"/>
		<path class="st3" d="M138.3,169.1c0,0-0.1-0.1-0.1-0.1"/>
		<path class="st4" d="M169.4,228.4c-5,1.6-10.1,2.1-15.3,1.3c-24.9-4-40.2-37.5-34.2-74.7c5.9-36.6,30.2-63.3,54.6-60.4"/>
		<path class="st4" d="M199.9,94.1c25.5-6.6,54.6,16.9,65.7,53.4c11.3,37.1-0.5,73.5-26.3,81.3c-7.9,2.4-16.3,1.8-24.3-1.2"/>
		<path class="st3" d="M174.5,94.6c3.7-2.2,8.2-3.6,13.1-3.6c4.5,0,8.7,1.1,12.3,3.1"/>
		<path class="st4" d="M131.6,135.8c0,0-1.1,52.6,13.2,23.3c0,0,1.6-2.8,3.5-6.3c2.5-4.6,5.7-10.2,6.7-11.5"/>
		<path class="st4" d="M245.4,164c0,0-6.8,12.4-10.5-6.5c0,0-7.1,6.2-9.6-9.3"/>
		<path class="st4" d="M228.1,135.8c0,0-3.6,25.6-13.4,10.1c0,0-4.9-9-4.9-14.1c0,0-4.8,23.3-17.8,5.3c0,0-13.5,15.5-12.3-3.9
			c0,0-7.6,27.2-14.1,8.1c0,0-9.9,28.9-18.3,13.2"/>
		<path class="st4" d="M238.8,113.9c0,0,12.7,19.4,14.1,36.9"/>
		<path class="st4" d="M155,115.8c0,0-11.4,9.6-13.2,23.3"/>
		<ellipse cx="172.8" cy="171.7" rx="5.4" ry="9.4"/>
		<circle class="st5" cx="173" cy="169" r="3"/>
		<ellipse cx="210.5" cy="170.6" rx="5.4" ry="9.4"/>
		<path class="st4" d="M161.3,170.6c0-1.3,10.1-14.2,20.3-3.8"/>
		<circle class="st5" cx="210.5" cy="169" r="3"/>
		<path class="st4" d="M221.6,169.5c0-1.3-10.1-14.2-20.3-3.8"/>
		<path class="st4" d="M159,162.3c0,0,9.4-7.2,19.1-5.8"/>
		<path class="st4" d="M202.5,155c0,0,12.3-2.6,19.1,6.7"/>
		<path class="st4" d="M186.8,185.6c0,0,7-5.9,13.1,0"/>
		<path class="st4" d="M175.9,200.8c0,0,15.9,30.8,36.1,0"/>
	</g>
	<path class="st6" d="M337.6,236.9c0,0,13.3-43.7,17.7-38.4c4.5,5.3-8.1,35.4-8.2,36.1C346.9,235.4,337.6,236.9,337.6,236.9z"/>
	<path class="st6" d="M250.3,343.4c0,0,23.2,21.9,34,23.1c10.4,1.2,35.1-36.9,41.9-45.5c2.6-3.3,10.4-17.7,16.4-25.9
		c9.9-13.3,20.9-23.9,23.5-28c3.4-5.3,7-29.9-7.4-18.5c0,0,4.3-12.8-4.2-9.5c0,0,2.7-9.6-3.8-9.9c0,0-6.2,0.8-9.6,2.6
		c-3.3,1.8-20,14.8-16.3,27.6c3.1,10.6-34.8,54.9-40.8,56.6c-0.9,0.3-1.9,0.2-3-0.1c-6-1.5-13.6-10.1-13.6-10.1l-12,19.3
		L250.3,343.4z"/>
	<path class="st6" d="M294.5,327.6c0,0-8.7-9.4-13.3-11.6"/>
	<path class="st6" d="M336.1,246.1c0,0,1.7-0.6,3.9-1.7c5.6-2.8,14.6-8.5,9.8-15"/>
	<path class="st6" d="M354.3,239.6c0,0-14.4,23.4-16,14.1c0,0,0-6.7,1.4-8.6"/>
	<path class="st6" d="M358.8,248.6c0,0-14.6,20.1-15.4,6.7"/>
	<path class="st6" d="M365.4,257.3c0,0-5.9,2.1-7.9,4.9c-2,2.7-8.3,4.8-7.6-2.7"/>
	<path class="st7" d="M167.4,239.6c0,0-40,0-68.6,83.2c-2.1,6.1-3.7,12.5-5.9,18.5c-5.3,14.6-13.4,42.9,9.2,33.9
		c12-4.8,19.3-8.6,23.7-11.5c2.9-1.9,6.6,0.2,6.6,3.6l-2,81.6c-0.2,6.5,4.9,11.8,11.3,12.1c29.9,1.4,107.9,4.5,116.4-0.6
		c10.5-6.2,0-103.7,0-103.7l13,7c0,0-8-45,9-51c0,0-22-75.8-63.5-73.1C216.5,239.6,197.4,276.6,167.4,239.6z"/>
	<line class="st8" x1="134.2" y1="323.8" x2="132.2" y2="357.3"/>
	<g>
		<path class="st9" d="M171.1,354.4h-19.5c-3.7,0-6.8-3-6.8-6.8v-22.8c0-3.7,3-6.8,6.8-6.8h19.5c3.7,0,6.8,3,6.8,6.8v22.8
			C177.8,351.4,174.8,354.4,171.1,354.4z"/>
		<path class="st9" d="M145.9,320.7l11.8,11.9c2,2,5.2,1.9,7.1-0.2l11.1-12.7"/>
	</g>
	<path class="st8" d="M243.9,316.9c0,0,6.4,35.8,14.1,39.8"/>
	<path class="st6" d="M95.5,377c0,0-19.9,43.9,21,40.8c11.2-0.9,21.9-5.2,30.9-12c9.6-7.3,24.7-17.8,36.1-21
		c18-5,26.9-8.2,25.4-14.2c0,0,8.7-11.3-2.8-9.3c0,0,11.7-8.3,1.5-10.6c0,0,3.5-15.9-8-10.1c0,0,14.9-24.9,4.3-23.3
		c-1.8,0.3-3.5,1.2-4.7,2.6c-4.1,4.2-15.3,15.6-18.5,16.5c-4,1-19,8.5-23.5,20.5s-24.8,13.5-24.8,13.5v-11.6l-14.9,9.7
		c-0.8,0.5-1.7,1-2.6,1.4L99.9,376L95.5,377z"/>
	<path class="st8" d="M120.4,377.6c0,0,5.2-7.4,13.9-7.6"/>
	<path class="st8" d="M202.4,354.8c0,0,5-2.9,5.2-4.1"/>
	<path class="st8" d="M194.9,343.8c0,0,3.6-1.4,4.7-3.3"/>
	<path class="st8" d="M201.6,363.3c0,0,4.5-1.8,6-3.2"/>
	<rect x="305.8" y="48.7" class="st10" width="119.3" height="119.3"/>
	<path class="st8" d="M202.4,370.6c0,0,5.7,1.1,6.5,0"/>
</g>
</svg>
