<?xml version="1.0" encoding="utf-8"?>
<!-- Generator: Adobe Illustrator 22.1.0, SVG Export Plug-In . SVG Version: 6.00 Build 0)  -->
<svg version="1.1" id="Слой_3" xmlns="http://www.w3.org/2000/svg" xmlns:xlink="http://www.w3.org/1999/xlink" x="0px" y="0px"
	 viewBox="0 0 512 512" style="enable-background:new 0 0 512 512;" xml:space="preserve">
<style type="text/css">
	.st0{fill:#B5D758;stroke:#000000;stroke-width:3;stroke-linecap:round;stroke-linejoin:round;stroke-miterlimit:10;}
	.st1{fill:#FCE0C5;stroke:#000000;stroke-width:3;stroke-linecap:round;stroke-linejoin:round;stroke-miterlimit:10;}
	.st2{fill:none;stroke:#000000;stroke-width:3;stroke-linecap:round;stroke-linejoin:round;stroke-miterlimit:10;}
	.st3{fill:#315164;stroke:#000000;stroke-width:3;stroke-miterlimit:10;}
</style>
<g>
	<path class="st0" d="M101.4,221.3c-10.5,0.3-19.2,8.2-20.5,18.6l-5.2,42.5L61.2,400.8c-1.3,10.2,5,19.9,14.9,22.9
		c23.5,7.2,69.3,15.9,121.8-2.5c9.4-3.3,15.3-12.6,14.2-22.5l-18.2-160.6c-1.2-10.9-10.7-19.1-21.7-18.8L101.4,221.3z"/>
	<path class="st1" d="M101.6,243.3c0,0-26,9-30.5-23s-8.5-34-9-35.5c-0.4-1.2,5-18.4,7.4-26c0.7-2.2,2.3-4.1,4.4-5.1
		c5.6-2.6,16.4-7.9,18.2-10.5c2.5-3.5,28-18,40-8.5c0,0,27.5-27.9,59-3.2c0,0,22.8-26.4,43.4-16.4c9.2,4.5,14.2,14.7,12.7,24.9
		c-1,6.5-3.5,14.4-9.6,20.7c0,0-9,10.5-12,12.5s-14.5,15-14.5,19.5s-2,20,1.5,27s11.8,38.3,9,45c-2.3,5.6-5.5,15.5-33,11.5
		c0,0-41,9.5-45-8c0,0,0-6.9,5.5-11.4c0,0-15.5-8.6-14.5-18.6C134.6,238.3,116.1,264.3,101.6,243.3z"/>
	<path class="st2" d="M100.6,170.2c0,0-6,66.4,1,73.1"/>
	<line class="st2" x1="137.1" y1="172.8" x2="134.6" y2="238.3"/>
	<path class="st2" d="M188.6,151.8c0,0-10.5,19-7,49.5c0,0,2.8,40.9-3.8,45.9"/>
	<path class="st2" d="M206.6,251.8c0,0-8.8-15.3-35.5-1.6c-2.4,1.2-4.9,2.1-7.4,2.8l-14.6,3.9"/>
	<path class="st2" d="M191.6,155.8c0,0,3,16.5,18.5,17"/>
	<path class="st2" d="M154.8,275.6c0,0,22.8-18.8,27.3,2"/>
	<path class="st2" d="M203.4,199.5c0,0,3.2-6.2,8.1-8.3"/>
	<path class="st2" d="M213.9,177.6c0,0,9-5.4,13.4-5.6"/>
	<path class="st2" d="M197.6,284.3c0,0-61.8,41.2-121-8.9"/>
	<rect x="270.2" y="79.8" class="st3" width="180.8" height="180.8"/>
</g>
</svg>
