<?xml version="1.0" encoding="utf-8"?>
<!-- Generator: Adobe Illustrator 22.1.0, SVG Export Plug-In . SVG Version: 6.00 Build 0)  -->
<svg version="1.1" id="Слой_9" xmlns="http://www.w3.org/2000/svg" xmlns:xlink="http://www.w3.org/1999/xlink" x="0px" y="0px"
	 viewBox="0 0 512 512" style="enable-background:new 0 0 512 512;" xml:space="preserve">
<style type="text/css">
	.st0{fill:#FDCD95;stroke:#000000;stroke-width:3;stroke-linecap:round;stroke-linejoin:round;stroke-miterlimit:10;}
	.st1{fill:#816164;stroke:#000000;stroke-width:3;stroke-linecap:round;stroke-linejoin:round;stroke-miterlimit:10;}
	.st2{fill:#EB8F30;stroke:#000000;stroke-width:3;stroke-linecap:round;stroke-linejoin:round;stroke-miterlimit:10;}
	.st3{fill:#B8E585;stroke:#000000;stroke-width:3;stroke-linecap:round;stroke-linejoin:round;stroke-miterlimit:10;}
	.st4{fill:#FDCD95;stroke:#000000;stroke-width:2;stroke-linecap:round;stroke-linejoin:round;stroke-miterlimit:10;}
	.st5{fill:#315164;stroke:#000000;stroke-width:3;stroke-linecap:round;stroke-linejoin:round;stroke-miterlimit:10;}
	.st6{fill:#FFF35C;stroke:#000000;stroke-width:3;stroke-linecap:round;stroke-linejoin:round;stroke-miterlimit:10;}
	.st7{fill:none;stroke:#000000;stroke-width:3;stroke-linecap:round;stroke-linejoin:round;stroke-miterlimit:10;}
	.st8{fill:none;stroke:#000000;stroke-width:2;stroke-linecap:round;stroke-linejoin:round;stroke-miterlimit:10;}
	.st9{fill:#FFD56E;stroke:#000000;stroke-width:2.776;stroke-linecap:round;stroke-linejoin:round;stroke-miterlimit:10;}
	.st10{fill:#FDCD95;stroke:#000000;stroke-width:2.776;stroke-linecap:round;stroke-linejoin:round;stroke-miterlimit:10;}
	.st11{fill:#4D7450;stroke:#000000;stroke-width:2.776;stroke-linecap:round;stroke-linejoin:round;stroke-miterlimit:10;}
	.st12{fill:none;stroke:#000000;stroke-width:2.776;stroke-linecap:round;stroke-linejoin:round;stroke-miterlimit:10;}
	.st13{fill:#FFFFFF;}
	.st14{fill:#472B25;stroke:#000000;stroke-width:3;stroke-linecap:round;stroke-linejoin:round;stroke-miterlimit:10;}
</style>
<g>
	<path class="st0" d="M360.4,151.8c-0.4,1.3,0,54.6,0,54.6l31.8,2.6v-5.8l-1.8-52.4L360.4,151.8z"/>
	<polygon class="st1" points="335.1,417.7 339.1,495.2 444.3,498.2 432.6,413.5 354,413.5 	"/>
	<path class="st2" d="M106.8,401.2l-19,64.3c0,0,81.8,31,112.8-9.8l-14-57.5L106.8,401.2z"/>
	<path class="st3" d="M360.2,194.8c0,0,12.7,14.8,32-0.3c0,0,53,3.4,52.1,28.5c-0.9,25.1-4.3,84.1-9,88.3s0,112.8,0,112.8
		s-39.7,44.4-104.7,0l-15.4-126l-33.3-17.5l5.1-44C287,236.5,337,194.5,360.2,194.8z"/>
	<path class="st4" d="M185,345.3c0,0,18.6,14.9,34.1,12.9c0,0,0.5-11.5,0.4-12c-0.1-0.5-13.7,0.8-23.4-12l-11.1,8V345.3z"/>
	<rect x="212.6" y="236.5" class="st5" width="147.8" height="167"/>
	<g>
		<path class="st6" d="M165.9,288.4l28.5,31.7l3.9,4.4c0,0,3.5,16.9-18.5,22.6l-18.8-36.8L165.9,288.4"/>
		<path class="st7" d="M178.3,341.7c0,0,12.9,0,16.1-21.6"/>
	</g>
	<path class="st6" d="M136.7,286.7c0,0-20.5,7.2-26.3,22.5c-6.5,17.1-5.8,96.5-5.8,96.5s33.2,17.5,84.6,0c0,0-5-99.6-23.3-117.3
		c-18.3-17.7,0,0,0,0L136.7,286.7z"/>
	<path class="st7" d="M145.4,336.6l-27.7,14c0,0-14.1-30.7-6.6-42.8c3.2-5.2,10.2-4.8,14.5-0.4C133.2,315.1,144,331.8,145.4,336.6z"
		/>
	<path class="st7" d="M115.3,344.7c0,0,16.4-4.1,26.9-14.6"/>
	<path class="st4" d="M121.6,348.6c0,0,11.9,25.9,28.8,34c4.5,2.1,9.5,2.5,14.4,1.4c6.6-1.5,20.3-4.1,28-1.4
		c10.3,3.7,15.3,15.3,29,5c0,0,4.2-2.3,1.7-4.6c0,0,11.4-6.8,3.4-7.3c0,0,9.3-8.3-1.3-7.3c0,0,4.4-8.5-7.9-0.2
		c-0.8,0.5-1.6,0.8-2.5,0.9c-4.1,0.3-14.8,0.4-5.9-5.6c0,0,6.5-5.6-4.8-2.3s-12.6,5.1-18.9,2.1c-6.3-3-25.4-2.5-27-3.5
		s-17.2-21.2-17.2-21.2L121.6,348.6z"/>
	<path class="st8" d="M151.2,361.5c0,0,4.6-1.5,9.9-1.2"/>
	<path class="st8" d="M225.6,368.5c0,0-11,7.4-13,7.8"/>
	<path class="st8" d="M226.8,375.7c0,0-10.9,5-12.6,5.3"/>
	<path class="st8" d="M223.4,383c0,0-5.9,2.9-7.9,3"/>
	<path class="st7" d="M435.3,311.2c-27.4,1.7-33.9-12.7-33.9-12.7l14-39"/>
	<path class="st7" d="M358.6,451.2c0,0,15,4.9,22,45.2"/>
	<ellipse class="st0" cx="212.7" cy="277.2" rx="14.1" ry="5.5"/>
	<ellipse class="st0" cx="213.5" cy="288.8" rx="14.1" ry="5.5"/>
	<ellipse class="st0" cx="213.8" cy="300.1" rx="14.1" ry="5.5"/>
	<ellipse class="st0" cx="215.5" cy="310.9" rx="12.1" ry="4.7"/>
	<path class="st0" d="M278.1,407.2c0,0,36,22.7,69.7,1.3c0,0,72.8-48.6,82.3-97.2c0,0-22.9-1.2-26.4-9.7c0,0-18.3,64.8-67.1,87.5
		c0,0-13.1,4-23,2.5c-23.5-3.5-8,4,2,10.5S278.1,407.2,278.1,407.2z"/>
	<g>
		<path class="st9" d="M141.4,148.2c0,0-5.8-15.3-12.1-20C123,123.6,97.4,108,78.4,145s-18.7,78.5-7.4,99.5s24.3,42.3,25.1,50.9
			c0.9,8.5,14.4-4.4,19-14.4c4.5-9.9,0-29.8,0-29.8l-5.3-34.2l5.3-36.3L141.4,148.2z"/>
		<ellipse class="st10" cx="190.8" cy="226.9" rx="6" ry="13.5"/>
		<path class="st10" d="M132.7,268.5c0.5,1.6,0,20.6,0,20.6s15.5,12.1,30.6-1.9l-2.5-18.7H132.7z"/>
		
			<ellipse transform="matrix(0.9652 -0.2615 0.2615 0.9652 -57.2391 33.636)" class="st10" cx="97.8" cy="231.9" rx="10.9" ry="13.8"/>
		<path class="st11" d="M100.9,157.4c0,0,1.3-28.8,28.4-14.2l-12.1,14.2H100.9z"/>
		<path class="st10" d="M190.8,218.8c-2.1,33.1-17,59.8-43.5,59.8c-25.9,0-47.3-24.4-51.2-56.2c4.2-3.6,9.7-10,10.4-18.6
			c0,0,38.5,13.4,53.6,5.8c0,0-7-4.7-8.2-7.6c-1.2-2.9,17.9,2.3,25.4-7.6l8.4,31.5C185.8,225.9,188.2,223.3,190.8,218.8z"/>
		<path class="st9" d="M190.8,218.8c-2.7,4.5-5,7.1-5,7.1l-8.4-31.5c-7.6,9.9-26.6,4.7-25.4,7.6c1.2,2.9,8.2,7.6,8.2,7.6
			c-15.2,7.6-53.6-5.8-53.6-5.8c-0.7,8.6-6.3,15-10.4,18.6c-2.6,2.3-4.7,3.5-4.7,3.5l-9-20c-4.3-9.5-5.3-20.3-2.3-30.4
			c7.9-26.6,34.7-24.2,34.7-24.2c46.8-32.6,74.4,10.1,74.4,10.1C205.2,186.3,197.1,208,190.8,218.8z"/>
		<path class="st12" d="M106.3,185.7c0,0,0.7,14.9,0.2,18"/>
		<path class="st12" d="M136.3,182.5c0,0,10.7,19.6,17.7,18.6"/>
		<path class="st12" d="M156.1,172.5c0,0,6.6,17.5,21.4,21.9"/>
		<path class="st12" d="M121.9,155.8c0,0,65.2-25.3,68.9,44.3"/>
		<path class="st12" d="M106.3,163.2c0,0-24.4,8.5-14.9,62.7"/>
		<ellipse cx="125.4" cy="227.9" rx="5" ry="8.6"/>
		<g>
			<path d="M112,223.9c1.2-0.1,2.5-0.3,3.7-0.5c1.2-0.3,2.4-0.6,3.5-1c1.1-0.4,2.1-1.1,3.2-1.4c1.1-0.3,2.2-0.7,3.6-0.9l0,0
				c0.1,0,0.2,0,0.2,0.1c0,0,0,0.1,0,0.1c-0.2,0.7-0.6,1.3-1,1.8c-0.4,0.6-1,1-1.5,1.4c-1.1,0.8-2.6,0.9-3.9,1.1
				c-1.3,0.2-2.6,0.3-3.9,0.2c-1.3-0.1-2.6-0.2-3.8-0.6c-0.1,0-0.1-0.1-0.1-0.2C111.9,223.9,111.9,223.9,112,223.9L112,223.9z"/>
		</g>
		<path class="st12" d="M129.3,217.4c0,0-11.8-5.8-16.6,3.4"/>
		<ellipse cx="164.7" cy="226.7" rx="5" ry="8.6"/>
		<g>
			<path d="M178.1,223c-1.2,0.3-2.5,0.5-3.8,0.6c-1.3,0.1-2.6,0-3.9-0.2c-1.3-0.2-2.7-0.3-3.9-1.1c-0.6-0.4-1.1-0.8-1.5-1.4
				c-0.5-0.5-0.8-1.2-1-1.8c0-0.1,0-0.2,0.1-0.2c0,0,0.1,0,0.1,0l0,0c1.5,0.2,2.5,0.6,3.6,0.9c1.1,0.3,2,1.1,3.2,1.4
				c1.1,0.4,2.3,0.7,3.5,1c1.2,0.3,2.4,0.4,3.7,0.5l0,0c0.1,0,0.1,0.1,0.1,0.2C178.2,222.9,178.2,223,178.1,223z"/>
		</g>
		<circle class="st13" cx="164.7" cy="225.7" r="2"/>
		<circle class="st13" cx="126" cy="225.7" r="2"/>
		<path class="st12" d="M160.8,216.2c0,0,11.8-5.8,16.6,3.4"/>
		<path class="st12" d="M141.5,239.8c0,0,7.3-3.9,10.9,0"/>
		<path class="st12" d="M132.7,253.2c0,0,18.5,23.7,29.2-2"/>
	</g>
	<path class="st14" d="M342,135.6l-2.1,20.7c0,0-14.3-10.9-14-16.4l-2.9,9.5c0,0-14.3-10.9-16.9-31.3c0,0-5.8,8.5-5.6,12.4
		c0,0-27.3-103.6,71-108.8c0,0,7.5-4.2,10.4-7.6c0.6-0.7,1.7-0.5,2,0.4c0.8,2.4,2.3,5.8,4.6,7.4c3.6,2.6,31.4-4,52.9,42.6
		c0,0,18.8,41.6-2.9,72l-6.9-10.9c0,0-3.7,18.8-5.8,21.5l-4.5-6.9l-7.9,14.3l-6.6-13.2l-16.2,1.7l-20.3,4.7l-19.4-5.6L342,135.6z"/>
	<ellipse transform="matrix(0.9628 -0.2703 0.2703 0.9628 -17.3556 91.4824)" class="st0" cx="323.5" cy="108.8" rx="7.5" ry="12"/>
	<ellipse class="st0" cx="427.8" cy="104.9" rx="7.5" ry="12"/>
	<path class="st0" d="M429.5,103.9c0,29-23.5,61.2-52.4,61.2c-29,0-54.6-32.6-54.6-61.6c0-2.3,0.2-4.6,0.5-6.7
		c1-7.1,3.8-13.1,7.8-18.1c5,4.8,9.6,9.2,9.6,9.2s0.1-17.1-1.2-24c0.3-0.3,12.5,17.7,12.5,17.7s9.5-7.7,9.6-12.4
		c0,0,7.5,13,10.6,12.7c2.6-0.2,6-13.9,5.9-21.7c0.3,0,4.5,20.6,7.6,23.6c3,2.9,11.9-11.1,16.2-19.4c1.3,0.5,8.1,15.9,8.4,17.1
		c0.2,1.1,4.8-2.5,8.5-6.4c4.3,4.4,7.5,9.8,9.3,16.1C428.9,95,429.5,99.2,429.5,103.9z"/>
	<ellipse cx="353.6" cy="102.9" rx="4.8" ry="9.9"/>
	<circle class="st13" cx="353.6" cy="102.1" r="3"/>
	<path class="st7" d="M343.7,96.7c0,0,8.3-6.6,16.7-1.2"/>
	<ellipse cx="395.1" cy="102.7" rx="4.8" ry="9.9"/>
	<circle class="st13" cx="395.1" cy="101.9" r="3"/>
	<path class="st7" d="M405.1,96.5c0,0-8.3-6.6-16.7-1.2"/>
	<path class="st7" d="M368.1,116c0,0,6-4.5,11.9,0"/>
	<path class="st7" d="M356.6,133.9c0,0,20.9,21.6,35.6-1.2"/>
	<path class="st7" d="M337.5,90.1c0,0,12.4-11.7,26.7-4.2"/>
	<path class="st7" d="M384.3,85c0,0,12.7-6.7,24.6,1.7"/>
</g>
</svg>
