<?xml version="1.0" encoding="utf-8"?>
<!-- Generator: Adobe Illustrator 23.1.0, SVG Export Plug-In . SVG Version: 6.00 Build 0)  -->
<svg version="1.1" id="Слой_1" xmlns="http://www.w3.org/2000/svg" xmlns:xlink="http://www.w3.org/1999/xlink" x="0px" y="0px"
	 viewBox="0 0 283.5 283.5" style="enable-background:new 0 0 283.5 283.5;" xml:space="preserve">
<style type="text/css">
	.st0{clip-path:url(#SVGID_2_);fill:none;stroke:#000000;stroke-linecap:round;stroke-linejoin:round;stroke-miterlimit:10;}
	.st1{clip-path:url(#SVGID_2_);fill-rule:evenodd;clip-rule:evenodd;fill:#08A54F;}
	.st2{clip-path:url(#SVGID_4_);fill:none;stroke:#000000;stroke-linecap:round;stroke-linejoin:round;stroke-miterlimit:10;}
	.st3{clip-path:url(#SVGID_6_);fill:none;stroke:#000000;stroke-linecap:round;stroke-linejoin:round;stroke-miterlimit:10;}
	.st4{clip-path:url(#SVGID_6_);fill-rule:evenodd;clip-rule:evenodd;fill:#FFFFFF;}
	.st5{clip-path:url(#SVGID_6_);fill-rule:evenodd;clip-rule:evenodd;}
	
		.st6{clip-path:url(#SVGID_6_);fill:none;stroke:#000000;stroke-width:0.85;stroke-linecap:round;stroke-linejoin:round;stroke-miterlimit:10;}
	.st7{clip-path:url(#SVGID_8_);fill-rule:evenodd;clip-rule:evenodd;}
	.st8{clip-path:url(#SVGID_8_);fill-rule:evenodd;clip-rule:evenodd;fill:#FFFFFF;}
	.st9{clip-path:url(#SVGID_10_);fill:none;stroke:#000000;stroke-linecap:round;stroke-linejoin:round;stroke-miterlimit:10;}
	.st10{clip-path:url(#SVGID_12_);fill-rule:evenodd;clip-rule:evenodd;}
	.st11{clip-path:url(#SVGID_12_);fill-rule:evenodd;clip-rule:evenodd;fill:#FFFFFF;}
	.st12{clip-path:url(#SVGID_14_);fill:none;stroke:#000000;stroke-linecap:round;stroke-linejoin:round;stroke-miterlimit:10;}
	
		.st13{clip-path:url(#SVGID_14_);fill:none;stroke:#000000;stroke-width:0.85;stroke-linecap:round;stroke-linejoin:round;stroke-miterlimit:10;}
	.st14{clip-path:url(#SVGID_14_);fill-rule:evenodd;clip-rule:evenodd;}
	.st15{clip-path:url(#SVGID_14_);fill-rule:evenodd;clip-rule:evenodd;fill:#FFFFFF;}
	.st16{clip-path:url(#SVGID_14_);fill-rule:evenodd;clip-rule:evenodd;fill:#08A54F;}
</style>
<g>
	<defs>
		<rect id="SVGID_1_" x="22.5" y="22.5" width="239.9" height="239.9"/>
	</defs>
	<clipPath id="SVGID_2_">
		<use xlink:href="#SVGID_1_"  style="overflow:visible;"/>
	</clipPath>
	<path class="st0" d="M183.3,150c-1.1,2.9-3,4.5-4,5.4l0.2,4.5"/>
	<path class="st1" d="M198.6,245.8c0,0-0.2-22.5-0.6-45c-0.5-33.3,0.1-52-7.3-63.7c-4.8-7.5-21.1-11.2-29.8-12.7
		c-3.4,8.9-16.1,11.4-23.9,6.7c-2.8-1.3-5.3-3.6-6.3-6.4c0-0.1-0.1-0.2-0.1-0.3c-8.1,1-21.5,3.5-28.3,9c-13.6,10.9-39.4,50-39.4,50
		c-5.8,11,22.5-1.6,22.5-1.6s11-11.8,21.9-25.4c-1,24.6-2.1,59.1-1.8,87.3c3,3.1,20.9,4.8,28.2,2.8c4.7-1.1,6.5-1.5,14.2-0.7
		c5.7,1.9,13.9,2.2,17.3,0c8.7,1.5,13.5-0.2,15.7-0.9l-1.6-87.1l3.3,88.4L198.6,245.8z"/>
</g>
<g>
	<defs>
		<path id="SVGID_3_" d="M137.6,112.8v11c0,0-24.9,1.5-35.1,9.7c-13.6,10.9-39.4,50-39.4,50c-5.8,11,22.5-1.6,22.5-1.6
			s11-11.8,21.9-25.4c-1,24.6-2.1,59.1-1.8,87.3c3,3.1,20.9,4.8,28.2,2.8c4.7-1.1,6.5-1.5,14.2-0.7c5.7,1.9,13.9,2.2,17.3,0
			c8.7,1.5,13.5-0.2,15.7-0.9l-1.6-87.1l3.3,88.4l15.8-0.5c0,0-0.2-22.5-0.6-45c-0.5-33.3,0.1-52-7.3-63.7
			c-6.6-10.4-35.3-13.5-35.3-13.5l0.5-11.5C150.3,116.7,144.4,116.7,137.6,112.8"/>
	</defs>
	<clipPath id="SVGID_4_">
		<use xlink:href="#SVGID_3_"  style="overflow:visible;"/>
	</clipPath>
	<path class="st2" d="M145.8,107.2c8.9,0,16.2,5.9,16.2,13.2s-7.2,13.2-16.2,13.2s-16.2-5.9-16.2-13.2S136.9,107.2,145.8,107.2z"/>
</g>
<g>
	<defs>
		<rect id="SVGID_5_" x="22.5" y="22.5" width="239.9" height="239.9"/>
	</defs>
	<clipPath id="SVGID_6_">
		<use xlink:href="#SVGID_5_"  style="overflow:visible;"/>
	</clipPath>
	<path class="st3" d="M85.5,181.9c0,0-28.3,12.5-22.5,1.6c0,0,25.8-39,39.4-50c10.3-8.3,35.1-9.7,35.1-9.7v-11
		c6.8,4,12.6,3.9,18.4-0.6l-0.5,11.5c0,0,28.6,3.1,35.3,13.5c7.4,11.7,6.7,30.3,7.3,63.7c0.4,22.4,0.6,45,0.6,45l-15.8,0.5
		l-3.3-88.4l1.7,87.1c-2.2,0.8-7,2.5-15.7,0.9c-3.4,2.2-11.6,1.8-17.3,0c-7.7-0.8-9.5-0.4-14.2,0.7c-7.3,2-25.2,0.3-28.2-2.8
		c-0.3-28.1,0.9-62.7,1.8-87.3C96.5,170.1,85.5,181.9,85.5,181.9z"/>
	<path class="st4" d="M145.3,49c11.4,0,26.1,7.4,28.9,18.2c0.5,2,4,11.4,1.5,21.2c-0.9,3.4-1.5,4.6-2.9,8c-1.5,3.9-3.6,5.9-6.3,9.4
		c-4.7,6.3-13,13.6-20.2,13.9c-6.6,0.2-16-6.2-20.1-12.3c-3.1-4.7-9.8-15.8-11.1-23c-0.6-3.5,2.8-4,2.8-6.9
		C117.9,59,128.8,49,145.3,49"/>
	<path class="st3" d="M145.3,49c11.4,0,26.1,7.4,28.9,18.2c0.5,2,4,11.4,1.5,21.2c-0.9,3.4-1.5,4.6-2.9,8c-1.5,3.9-3.6,5.9-6.3,9.4
		c-4.7,6.3-13,13.6-20.2,13.9c-6.6,0.2-16-6.2-20.1-12.3c-3.1-4.7-9.8-15.8-11.1-23c-0.6-3.5,2.8-4,2.8-6.9
		C117.9,59,128.8,49,145.3,49z"/>
	<polygon class="st5" points="171.2,84.6 171.3,84.6 171.3,84.6 171.3,84.6 171.3,84.6 171.4,84.6 171.4,84.6 171.4,84.6 
		171.4,84.6 171.5,84.6 171.5,84.6 171.5,84.6 171.5,84.6 171.5,84.6 171.6,84.6 171.6,84.6 171.6,84.6 171.6,84.6 171.7,84.6 
		171.7,84.6 171.7,84.6 171.7,84.7 171.7,84.7 171.8,84.7 171.8,84.7 171.8,84.7 171.8,84.7 171.8,84.7 171.9,84.7 171.9,84.7 
		171.9,84.7 171.9,84.8 171.9,84.8 172,84.8 172,84.8 172,84.8 172,84.8 172,84.8 172,84.9 172.1,84.9 172.1,84.9 172.1,84.9 
		172.1,84.9 172.1,84.9 172.1,84.9 172.2,85 172.2,85 172.2,85 172.2,85 172.2,85 172.2,85 172.2,85.1 172.3,85.1 172.3,85.1 
		172.3,85.1 172.3,85.1 172.3,85.2 172.3,85.2 172.3,85.2 172.3,85.2 172.3,85.2 172.4,85.3 172.4,85.3 172.4,85.3 172.4,85.3 
		172.4,85.4 172.4,85.4 172.4,85.4 172.4,85.4 172.4,85.4 172.4,85.5 172.4,85.5 172.4,85.5 172.4,85.5 172.4,85.6 172.5,85.6 
		172.5,85.6 172.5,85.6 172.5,85.7 172.5,85.7 172.5,85.7 172.5,85.7 172.5,85.8 172.5,85.8 172.5,85.8 172.5,85.8 172.5,85.9 
		172.5,85.9 172.5,85.9 172.5,85.9 172.5,86 172.5,86 172.5,86 172.5,86 172.5,86.1 172.5,86.1 172.5,86.1 172.4,86.2 172.4,86.2 
		172.4,86.2 172.4,86.2 172.4,86.3 172.4,86.3 172.4,86.3 172.4,86.3 172.4,86.4 172.4,86.4 172.4,86.4 172.4,86.5 172.4,86.5 
		172.4,86.5 172.4,86.5 172.3,86.6 172.3,86.6 172.3,86.6 172.3,86.7 172.3,86.7 172.3,86.7 172.3,86.8 172.3,86.8 172.2,86.8 
		172.2,86.8 172.2,86.9 172.2,86.9 172.2,86.9 172.2,87 172.2,87 172.1,87 172.1,87.1 172.1,87.1 172.1,87.1 172.1,87.1 172.1,87.2 
		172,87.2 172,87.2 172,87.3 172,87.3 172,87.3 171.9,87.4 171.9,87.4 171.9,87.4 171.9,87.5 171.9,87.5 171.8,87.5 171.8,87.6 
		171.8,87.6 171.8,87.6 171.7,87.7 171.7,87.7 171.7,87.7 171.7,87.8 171.6,87.8 171.6,87.8 171.6,87.9 171.5,87.9 171.5,87.9 
		171.5,88 171.5,88 171.4,88 171.4,88.1 171.4,88.1 171.3,88.1 171.3,88.2 171.3,88.2 171.2,88.2 171.2,88.3 171.2,88.3 171.1,88.3 
		171.1,88.4 171.1,88.4 171,88.4 171,88.5 171,88.5 170.9,88.5 170.9,88.6 170.8,88.6 170.8,88.6 170.8,88.7 170.7,88.7 170.7,88.7 
		170.6,88.8 170.6,88.8 170.6,88.8 170.5,88.9 170.5,88.9 170.4,89 170.4,89 170.3,89 170.3,89.1 170.2,89.1 170.2,89.1 170.2,89.2 
		170.1,89.2 170.1,89.2 170,89.3 170,89.3 169.9,89.3 169.9,89.4 169.8,89.4 169.8,89.5 169.7,89.5 169.7,89.5 169.4,89.5 
		169.5,89.3 169.5,89.2 169.6,89.2 169.6,89.2 169.7,89.1 169.7,89.1 169.8,89 169.8,89 169.9,89 169.9,88.9 169.9,88.9 170,88.9 
		170,88.8 170.1,88.8 170.1,88.8 170.2,88.7 170.2,88.7 170.2,88.6 170.3,88.6 170.3,88.6 170.4,88.5 170.4,88.5 170.4,88.5 
		170.5,88.4 170.5,88.4 170.5,88.4 170.6,88.3 170.6,88.3 170.7,88.3 170.7,88.2 170.7,88.2 170.8,88.2 170.8,88.1 170.8,88.1 
		170.9,88.1 170.9,88 170.9,88 170.9,88 171,87.9 171,87.9 171,87.9 171.1,87.8 171.1,87.8 171.1,87.8 171.1,87.7 171.2,87.7 
		171.2,87.7 171.2,87.6 171.2,87.6 171.3,87.6 171.3,87.5 171.3,87.5 171.3,87.5 171.4,87.4 171.4,87.4 171.4,87.4 171.4,87.3 
		171.5,87.3 171.5,87.3 171.5,87.3 171.5,87.2 171.5,87.2 171.6,87.2 171.6,87.1 171.6,87.1 171.6,87.1 171.6,87 171.6,87 171.7,87 
		171.7,87 171.7,86.9 171.7,86.9 171.7,86.9 171.7,86.8 171.7,86.8 171.8,86.8 171.8,86.8 171.8,86.7 171.8,86.7 171.8,86.7 
		171.8,86.7 171.8,86.6 171.8,86.6 171.8,86.6 171.9,86.6 171.9,86.5 171.9,86.5 171.9,86.5 171.9,86.5 171.9,86.4 171.9,86.4 
		171.9,86.4 171.9,86.4 171.9,86.3 171.9,86.3 171.9,86.3 171.9,86.3 171.9,86.2 171.9,86.2 172,86.2 172,86.2 172,86.1 172,86.1 
		172,86.1 172,86.1 172,86.1 172,86 172,86 172,86 172,86 172,86 172,85.9 172,85.9 172,85.9 172,85.9 172,85.9 172,85.8 172,85.8 
		172,85.8 172,85.8 172,85.8 172,85.8 172,85.7 172,85.7 172,85.7 172,85.7 172,85.7 172,85.7 171.9,85.6 171.9,85.6 171.9,85.6 
		171.9,85.6 171.9,85.6 171.9,85.6 171.9,85.6 171.9,85.5 171.9,85.5 171.9,85.5 171.9,85.5 171.9,85.5 171.9,85.5 171.9,85.5 
		171.9,85.5 171.9,85.4 171.9,85.4 171.9,85.4 171.9,85.4 171.8,85.4 171.8,85.4 171.8,85.4 171.8,85.4 171.8,85.4 171.8,85.4 
		171.8,85.3 171.8,85.3 171.8,85.3 171.8,85.3 171.8,85.3 171.8,85.3 171.7,85.3 171.7,85.3 171.7,85.3 171.7,85.3 171.7,85.3 
		171.7,85.2 171.7,85.2 171.7,85.2 171.7,85.2 171.7,85.2 171.6,85.2 171.6,85.2 171.6,85.2 171.6,85.2 171.6,85.2 171.6,85.2 
		171.6,85.2 171.6,85.2 171.6,85.2 171.6,85.2 171.5,85.2 171.5,85.2 171.5,85.2 171.5,85.1 171.5,85.1 171.5,85.1 171.5,85.1 
		171.5,85.1 171.4,85.1 171.4,85.1 171.4,85.1 171.4,85.1 171.4,85.1 171.4,85.1 171.4,85.1 171.3,85.1 171.3,85.1 171.3,85.1 
		171.3,85.1 171.3,85.1 171.3,85.1 171.3,85.1 171.2,85.1 171.2,85.1 171.2,85.1 171.2,85.1 171.2,85.1 171.2,85.1 171.1,85.1 
		171.1,85.1 171.1,85.1 171.1,85.1 171.1,85.1 171.1,85.1 171,85.1 171,85.1 171,85.1 171,85.1 171,85.2 171,85.2 170.9,85.2 
		170.9,85.2 170.9,85.2 170.9,85.2 170.9,85.2 170.8,85.2 170.8,85.2 170.8,85.2 170.8,85.2 170.8,85.2 170.7,85.2 170.7,85.2 
		170.7,85.2 170.7,85.3 170.7,85.3 170.7,85.3 170.6,85.3 170.6,85.3 170.6,85.3 170.6,85.3 170.6,85.3 170.5,85.3 170.5,85.4 
		170.5,85.4 170.5,85.4 170.5,85.4 170.4,85.4 170.4,85.4 170.4,85.4 170.4,85.4 170.3,85.5 170.3,85.5 170.3,85.5 170.3,85.5 
		170.3,85.5 170.2,85.5 170.2,85.6 170.2,85.6 170.2,85.6 170,85.6 169.8,85.5 169.8,85.5 169.8,85.5 169.7,85.3 169.8,85.1 
		169.8,85.1 169.9,85.1 169.9,85 169.9,85 170,85 170,85 170,85 170,85 170.1,84.9 170.1,84.9 170.1,84.9 170.1,84.9 170.2,84.9 
		170.2,84.9 170.2,84.8 170.2,84.8 170.3,84.8 170.3,84.8 170.3,84.8 170.3,84.8 170.4,84.8 170.4,84.7 170.4,84.7 170.5,84.7 
		170.5,84.7 170.5,84.7 170.5,84.7 170.6,84.7 170.6,84.7 170.6,84.7 170.6,84.7 170.7,84.6 170.7,84.6 170.7,84.6 170.7,84.6 
		170.8,84.6 170.8,84.6 170.8,84.6 170.8,84.6 170.9,84.6 170.9,84.6 170.9,84.6 170.9,84.6 171,84.6 171,84.6 171,84.6 171,84.6 
		171.1,84.6 171.1,84.6 171.1,84.6 171.1,84.6 171.2,84.6 171.2,84.6 171.2,84.6 	"/>
	<polygon class="st5" points="119.4,85.1 119.4,85.1 119.4,85.1 119.4,85.1 119.4,85.1 119.5,85.1 119.5,85.1 119.5,85.1 
		119.5,85.1 119.6,85.1 119.6,85.1 119.6,85.1 119.6,85.1 119.7,85.1 119.7,85.1 119.7,85.1 119.7,85.1 119.8,85.1 119.8,85.2 
		119.8,85.2 119.8,85.2 119.9,85.2 119.9,85.2 119.9,85.2 119.9,85.2 120,85.2 120,85.2 120,85.3 120,85.3 120.1,85.3 120.1,85.3 
		120.1,85.3 120.1,85.3 120.2,85.4 120.2,85.4 120.2,85.4 120.2,85.4 120.3,85.4 120.3,85.4 120.3,85.5 120.3,85.5 120.4,85.5 
		120.4,85.5 120.4,85.5 120.5,85.6 120.5,85.6 120.5,85.6 120.6,85.8 120.5,86 120.5,86 120.5,86 120.3,86.1 120.1,86 120.1,86 
		120.1,86 120,86 120,86 120,86 120,85.9 119.9,85.9 119.9,85.9 119.9,85.9 119.9,85.9 119.9,85.9 119.9,85.9 119.8,85.8 
		119.8,85.8 119.8,85.8 119.8,85.8 119.8,85.8 119.7,85.8 119.7,85.8 119.7,85.8 119.7,85.7 119.7,85.7 119.7,85.7 119.6,85.7 
		119.6,85.7 119.6,85.7 119.6,85.7 119.6,85.7 119.6,85.7 119.5,85.7 119.5,85.7 119.5,85.7 119.5,85.7 119.5,85.7 119.5,85.7 
		119.5,85.6 119.4,85.6 119.4,85.6 119.4,85.6 119.4,85.6 119.4,85.6 119.4,85.6 119.4,85.6 119.4,85.6 119.3,85.6 119.3,85.6 
		119.3,85.6 119.3,85.6 119.3,85.6 119.3,85.6 119.3,85.6 119.3,85.6 119.3,85.6 119.2,85.6 119.2,85.6 119.2,85.6 119.2,85.6 
		119.2,85.6 119.2,85.6 119.2,85.6 119.2,85.6 119.2,85.6 119.2,85.6 119.2,85.6 119.2,85.7 119.2,85.7 119.1,85.7 119.1,85.7 
		119.1,85.7 119.1,85.7 119.1,85.7 119.1,85.7 119.1,85.7 119.1,85.7 119.1,85.7 119.1,85.7 119.1,85.7 119.1,85.7 119.1,85.7 
		119.1,85.7 119.1,85.7 119,85.7 119,85.7 119,85.7 119,85.7 119,85.8 119,85.8 119,85.8 119,85.8 119,85.8 119,85.8 119,85.8 
		119,85.8 119,85.8 119,85.8 119,85.8 119,85.9 119,85.9 119,85.9 119,85.9 118.9,85.9 118.9,85.9 118.9,85.9 118.9,85.9 
		118.9,85.9 118.9,86 118.9,86 118.9,86 118.9,86 118.9,86 118.9,86 118.9,86 118.9,86.1 118.9,86.1 118.9,86.1 118.9,86.1 
		118.9,86.1 118.9,86.1 118.9,86.2 118.9,86.2 118.9,86.2 118.9,86.2 118.9,86.2 118.9,86.2 118.9,86.3 118.9,86.3 118.9,86.3 
		118.9,86.3 118.9,86.3 118.9,86.3 118.9,86.4 118.9,86.4 118.9,86.4 118.9,86.4 118.9,86.4 118.9,86.5 118.9,86.5 118.9,86.5 
		118.9,86.5 118.9,86.5 118.9,86.6 119,86.6 119,86.6 119,86.6 119,86.6 119,86.7 119,86.7 119,86.7 119,86.7 119,86.8 119,86.8 
		119,86.8 119,86.8 119,86.8 119,86.9 119.1,86.9 119.1,86.9 119.1,86.9 119.1,87 119.1,87 119.1,87 119.1,87 119.1,87.1 
		119.1,87.1 119.2,87.1 119.2,87.1 119.2,87.1 119.2,87.2 119.2,87.2 119.2,87.2 119.2,87.2 119.3,87.3 119.3,87.3 119.3,87.3 
		119.3,87.3 119.3,87.4 119.3,87.4 119.4,87.4 119.4,87.4 119.4,87.5 119.4,87.5 119.4,87.5 119.4,87.5 119.5,87.6 119.5,87.6 
		119.5,87.6 119.5,87.6 119.5,87.7 119.6,87.7 119.6,87.7 119.6,87.7 119.6,87.8 119.7,87.8 119.7,87.8 119.7,87.8 119.7,87.9 
		119.8,87.9 119.8,87.9 119.8,87.9 119.8,88 119.9,88 119.9,88 119.9,88 119.9,88.1 120,88.1 120,88.1 120,88.1 120.1,88.2 
		120.1,88.2 120.1,88.2 120.1,88.2 120.2,88.3 120.2,88.3 120.2,88.3 120.3,88.3 120.3,88.3 120.3,88.4 120.4,88.4 120.4,88.4 
		120.4,88.4 120.5,88.5 120.5,88.5 120.5,88.5 120.6,88.5 120.6,88.6 120.7,88.6 120.7,88.6 120.7,88.6 120.8,88.7 120.8,88.7 
		120.8,88.7 120.9,88.7 120.9,88.7 121,88.8 121,88.8 121,88.8 121.1,88.8 121.1,88.9 121.2,88.9 121.2,88.9 121.3,88.9 121.3,88.9 
		121.4,89 121.4,89 121.4,89 121.5,89 121.5,89 121.6,89.1 121.6,89.1 121.7,89.1 121.7,89.1 121.8,89.1 121.8,89.2 121.9,89.2 
		121.9,89.2 122,89.2 122,89.2 122.1,89.4 121.9,89.5 121.9,89.5 121.8,89.5 121.8,89.5 121.7,89.5 121.7,89.5 121.6,89.4 
		121.6,89.4 121.5,89.4 121.5,89.4 121.4,89.4 121.4,89.3 121.3,89.3 121.3,89.3 121.2,89.3 121.2,89.3 121.1,89.2 121.1,89.2 
		121,89.2 121,89.2 120.9,89.2 120.9,89.1 120.8,89.1 120.8,89.1 120.8,89.1 120.7,89 120.7,89 120.6,89 120.6,89 120.5,89 
		120.5,88.9 120.5,88.9 120.4,88.9 120.4,88.9 120.3,88.8 120.3,88.8 120.3,88.8 120.2,88.8 120.2,88.7 120.1,88.7 120.1,88.7 
		120.1,88.7 120,88.7 120,88.6 120,88.6 119.9,88.6 119.9,88.6 119.9,88.5 119.8,88.5 119.8,88.5 119.8,88.5 119.7,88.4 119.7,88.4 
		119.7,88.4 119.6,88.3 119.6,88.3 119.6,88.3 119.5,88.3 119.5,88.2 119.5,88.2 119.5,88.2 119.4,88.2 119.4,88.1 119.4,88.1 
		119.3,88.1 119.3,88.1 119.3,88 119.3,88 119.2,88 119.2,88 119.2,87.9 119.2,87.9 119.1,87.9 119.1,87.8 119.1,87.8 119.1,87.8 
		119.1,87.8 119,87.7 119,87.7 119,87.7 119,87.7 118.9,87.6 118.9,87.6 118.9,87.6 118.9,87.5 118.9,87.5 118.9,87.5 118.8,87.5 
		118.8,87.4 118.8,87.4 118.8,87.4 118.8,87.4 118.7,87.3 118.7,87.3 118.7,87.3 118.7,87.2 118.7,87.2 118.7,87.2 118.7,87.2 
		118.6,87.1 118.6,87.1 118.6,87.1 118.6,87.1 118.6,87 118.6,87 118.6,87 118.6,87 118.5,86.9 118.5,86.9 118.5,86.9 118.5,86.8 
		118.5,86.8 118.5,86.8 118.5,86.8 118.5,86.7 118.5,86.7 118.5,86.7 118.5,86.7 118.5,86.6 118.4,86.6 118.4,86.6 118.4,86.6 
		118.4,86.5 118.4,86.5 118.4,86.5 118.4,86.5 118.4,86.4 118.4,86.4 118.4,86.4 118.4,86.4 118.4,86.3 118.4,86.3 118.4,86.3 
		118.4,86.3 118.4,86.2 118.4,86.2 118.4,86.2 118.4,86.2 118.4,86.1 118.4,86.1 118.4,86.1 118.4,86.1 118.4,86 118.4,86 118.4,86 
		118.4,86 118.4,86 118.4,85.9 118.4,85.9 118.4,85.9 118.4,85.9 118.4,85.8 118.4,85.8 118.4,85.8 118.4,85.8 118.4,85.8 
		118.4,85.7 118.5,85.7 118.5,85.7 118.5,85.7 118.5,85.7 118.5,85.6 118.5,85.6 118.5,85.6 118.5,85.6 118.5,85.6 118.5,85.5 
		118.5,85.5 118.6,85.5 118.6,85.5 118.6,85.5 118.6,85.4 118.6,85.4 118.6,85.4 118.6,85.4 118.6,85.4 118.7,85.4 118.7,85.3 
		118.7,85.3 118.7,85.3 118.7,85.3 118.7,85.3 118.7,85.3 118.8,85.3 118.8,85.2 118.8,85.2 118.8,85.2 118.8,85.2 118.9,85.2 
		118.9,85.2 118.9,85.2 118.9,85.2 118.9,85.1 119,85.1 119,85.1 119,85.1 119,85.1 119,85.1 119.1,85.1 119.1,85.1 119.1,85.1 
		119.1,85.1 119.1,85.1 119.2,85.1 119.2,85.1 119.2,85.1 119.2,85.1 119.3,85.1 119.3,85.1 119.3,85.1 119.3,85.1 	"/>
	<path class="st6" d="M147.6,94.4c3.7-0.5,4.2-2.7,2.3-3.9"/>
	<polygon class="st5" points="140.7,89.9 140.7,89.9 140.7,90 140.7,90 140.7,90 140.7,90.1 140.7,90.1 140.7,90.2 140.7,90.2 
		140.7,90.2 140.7,90.3 140.7,90.3 140.7,90.3 140.7,90.3 140.7,90.4 140.7,90.4 140.7,90.4 140.7,90.5 140.7,90.5 140.7,90.6 
		140.7,90.6 140.7,90.6 140.7,90.7 140.7,90.7 140.7,90.7 140.7,90.8 140.7,90.8 140.7,90.8 140.7,90.8 140.7,90.9 140.7,90.9 
		140.7,90.9 140.7,91 140.7,91 140.6,91 140.6,91.1 140.6,91.1 140.6,91.1 140.6,91.1 140.6,91.2 140.6,91.2 140.6,91.2 140.6,91.3 
		140.6,91.3 140.6,91.3 140.6,91.3 140.6,91.4 140.5,91.4 140.5,91.4 140.5,91.5 140.5,91.5 140.5,91.5 140.5,91.6 140.5,91.6 
		140.5,91.6 140.5,91.6 140.5,91.6 140.4,91.7 140.4,91.7 140.4,91.7 140.4,91.7 140.4,91.8 140.4,91.8 140.4,91.8 140.4,91.8 
		140.4,91.8 140.3,91.9 140.3,91.9 140.3,91.9 140.3,91.9 140.3,92 140.3,92 140.3,92 140.2,92 140.2,92 140.2,92.1 140.2,92.1 
		140.2,92.1 140.2,92.1 140.1,92.2 140.1,92.2 140.1,92.2 140.1,92.2 140.1,92.2 140,92.3 140,92.3 140,92.3 140,92.3 140,92.3 
		140,92.3 139.9,92.4 139.9,92.4 139.9,92.4 139.9,92.4 139.9,92.4 139.8,92.5 139.8,92.5 139.8,92.5 139.8,92.5 139.8,92.5 
		139.7,92.5 139.7,92.6 139.7,92.6 139.7,92.6 139.7,92.6 139.6,92.6 139.6,92.6 139.6,92.7 139.6,92.7 139.6,92.7 139.5,92.7 
		139.5,92.7 139.5,92.7 139.5,92.7 139.5,92.7 139.4,92.8 139.4,92.8 139.4,92.8 139.4,92.8 139.4,92.8 139.3,92.8 139.3,92.8 
		139.3,92.8 139.3,92.9 139.3,92.9 139.2,92.9 139.2,92.9 139.2,92.9 139.2,92.9 139.2,92.9 139.1,92.9 139.1,92.9 139.1,92.9 
		139.1,92.9 139.1,93 139.1,93 139,93 139,93 139,93 139,93 139,93 138.9,93 138.9,93 138.9,93 138.7,93 138.8,92.8 138.8,92.7 
		138.8,92.7 138.8,92.7 138.8,92.7 138.8,92.7 138.8,92.7 138.9,92.7 138.9,92.6 138.9,92.6 138.9,92.6 138.9,92.6 138.9,92.6 
		138.9,92.6 138.9,92.6 139,92.5 139,92.5 139,92.5 139,92.5 139,92.5 139,92.5 139,92.5 139.1,92.4 139.1,92.4 139.1,92.4 
		139.1,92.4 139.1,92.4 139.1,92.3 139.1,92.3 139.1,92.3 139.2,92.3 139.2,92.3 139.2,92.3 139.2,92.3 139.2,92.2 139.2,92.2 
		139.2,92.2 139.2,92.2 139.2,92.2 139.3,92.1 139.3,92.1 139.3,92.1 139.3,92.1 139.3,92.1 139.3,92.1 139.3,92 139.3,92 139.4,92 
		139.4,92 139.4,92 139.4,91.9 139.4,91.9 139.4,91.9 139.4,91.9 139.4,91.8 139.4,91.8 139.5,91.8 139.5,91.8 139.5,91.8 
		139.5,91.8 139.5,91.7 139.5,91.7 139.5,91.7 139.5,91.7 139.5,91.7 139.6,91.6 139.6,91.6 139.6,91.6 139.6,91.6 139.6,91.6 
		139.6,91.5 139.6,91.5 139.6,91.5 139.6,91.5 139.6,91.5 139.7,91.4 139.7,91.4 139.7,91.4 139.7,91.4 139.7,91.4 139.7,91.3 
		139.7,91.3 139.7,91.3 139.8,91.3 139.8,91.2 139.8,91.2 139.8,91.2 139.8,91.2 139.8,91.2 139.8,91.1 139.8,91.1 139.9,91.1 
		139.9,91.1 139.9,91 139.9,91 139.9,91 139.9,91 139.9,90.9 140,90.9 140,90.9 140,90.9 140,90.8 140,90.8 140,90.8 140,90.8 
		140,90.7 140.1,90.7 140.1,90.7 140.1,90.6 140.1,90.6 140.1,90.6 140.1,90.6 140.1,90.5 140.2,90.5 140.2,90.5 140.2,90.4 
		140.2,90.4 140.2,90.4 140.2,90.4 140.2,90.3 140.2,90.3 140.2,90.3 140.3,90.2 140.3,90.2 140.3,90.2 140.3,90.2 140.3,90.1 
		140.3,90.1 140.3,90.1 140.3,90 140.3,90 140.3,90 140.4,89.9 140.4,89.9 140.5,89.8 	"/>
	<polygon class="st5" points="152.6,89.8 152.6,89.8 152.6,89.8 152.7,89.9 152.7,89.9 152.7,89.9 152.7,90 152.7,90 152.7,90 
		152.7,90.1 152.7,90.1 152.7,90.1 152.7,90.2 152.8,90.2 152.8,90.2 152.8,90.3 152.8,90.3 152.8,90.3 152.8,90.4 152.8,90.4 
		152.8,90.4 152.8,90.5 152.9,90.5 152.9,90.5 152.9,90.5 152.9,90.6 152.9,90.6 152.9,90.6 152.9,90.6 152.9,90.6 152.9,90.6 
		152.9,90.6 152.9,90.7 152.9,90.7 152.9,90.7 153,90.7 153,90.7 153,90.8 153,90.8 153,90.8 153,90.8 153,90.8 153,90.8 153,90.8 
		153,90.9 153,90.9 153,90.9 153.1,90.9 153.1,90.9 153.1,90.9 153.1,91 153.1,91 153.1,91 153.1,91 153.1,91 153.1,91 153.1,91 
		153.1,91.1 153.1,91.1 153.1,91.1 153.2,91.1 153.2,91.1 153.2,91.1 153.2,91.2 153.2,91.2 153.2,91.2 153.2,91.2 153.2,91.2 
		153.2,91.2 153.2,91.3 153.2,91.3 153.2,91.3 153.3,91.3 153.3,91.3 153.3,91.3 153.3,91.4 153.3,91.4 153.3,91.4 153.3,91.4 
		153.3,91.4 153.3,91.4 153.3,91.4 153.3,91.5 153.4,91.5 153.4,91.5 153.4,91.5 153.4,91.6 153.4,91.6 153.4,91.6 153.4,91.6 
		153.4,91.6 153.4,91.6 153.5,91.7 153.5,91.7 153.5,91.7 153.5,91.7 153.5,91.7 153.5,91.8 153.5,91.8 153.5,91.8 153.6,91.8 
		153.6,91.8 153.6,91.9 153.6,91.9 153.6,91.9 153.6,91.9 153.7,92 153.7,92 153.7,92 153.7,92 153.7,92 153.8,92.1 153.8,92.1 
		153.8,92.1 153.8,92.1 153.8,92.1 153.8,92.2 153.9,92.2 153.9,92.2 153.9,92.2 153.9,92.3 153.9,92.3 154,92.3 154,92.3 154,92.5 
		153.8,92.6 153.8,92.6 153.8,92.6 153.7,92.6 153.7,92.5 153.7,92.5 153.6,92.5 153.6,92.5 153.6,92.5 153.5,92.5 153.5,92.5 
		153.5,92.4 153.5,92.4 153.4,92.4 153.4,92.4 153.4,92.4 153.3,92.4 153.3,92.4 153.3,92.3 153.3,92.3 153.2,92.3 153.2,92.3 
		153.2,92.3 153.1,92.2 153.1,92.2 153.1,92.2 153.1,92.2 153.1,92.2 153,92.2 153,92.2 153,92.1 153,92.1 152.9,92.1 152.9,92.1 
		152.9,92.1 152.9,92.1 152.9,92 152.8,92 152.8,92 152.8,92 152.8,91.9 152.8,91.9 152.7,91.9 152.7,91.9 152.7,91.9 152.7,91.9 
		152.7,91.8 152.7,91.8 152.6,91.8 152.6,91.8 152.6,91.7 152.6,91.7 152.6,91.7 152.6,91.7 152.5,91.7 152.5,91.6 152.5,91.6 
		152.5,91.6 152.5,91.6 152.5,91.6 152.5,91.5 152.5,91.5 152.4,91.5 152.4,91.5 152.4,91.4 152.4,91.4 152.4,91.4 152.4,91.4 
		152.4,91.4 152.4,91.3 152.4,91.3 152.4,91.3 152.4,91.3 152.4,91.3 152.3,91.2 152.3,91.2 152.3,91.2 152.3,91.2 152.3,91.1 
		152.3,91.1 152.3,91.1 152.3,91.1 152.3,91 152.3,91 152.3,91 152.3,91 152.3,91 152.3,90.9 152.3,90.9 152.3,90.9 152.3,90.9 
		152.3,90.8 152.3,90.8 152.3,90.8 152.3,90.8 152.3,90.7 152.3,90.7 152.2,90.7 152.2,90.7 152.2,90.7 152.2,90.6 152.2,90.6 
		152.2,90.6 152.2,90.5 152.2,90.5 152.2,90.4 152.2,90.4 152.3,90.4 152.3,90.3 152.3,90.3 152.3,90.2 152.3,90.2 152.3,90.2 
		152.3,90.1 152.3,90.1 152.3,90 152.3,90 152.3,90 152.3,90 152.3,89.9 152.3,89.9 152.3,89.8 152.3,89.8 152.3,89.8 152.5,89.6 	
		"/>
	<path class="st3" d="M155.9,100.5c-0.6,5.2-4.5,9.2-9.2,9.2c-4.7,0-8.7-4-9.2-9.2C143.3,101.6,149.5,101.7,155.9,100.5z"/>
</g>
<g>
	<defs>
		<path id="SVGID_7_" d="M131.2,82.4c3.6,0.6,6.9,0.5,10.2,0c-0.1-1.3-0.3-2.7-2-3.2c-0.6-0.2-1.3-0.2-2-0.2
			C134.4,79,130.7,80.3,131.2,82.4"/>
	</defs>
	<clipPath id="SVGID_8_">
		<use xlink:href="#SVGID_7_"  style="overflow:visible;"/>
	</clipPath>
	<path class="st7" d="M136.2,78.7c1.5,0,2.6,1.1,2.6,2.4c0,1.3-1.2,2.4-2.6,2.4c-1.5,0-2.6-1.1-2.6-2.4
		C133.6,79.8,134.8,78.7,136.2,78.7"/>
	<path class="st8" d="M137.6,80c0.3,0,0.5,0.2,0.5,0.5c0,0.3-0.2,0.5-0.5,0.5c-0.3,0-0.5-0.2-0.5-0.5C137.1,80.2,137.3,80,137.6,80"
		/>
</g>
<g>
	<defs>
		<rect id="SVGID_9_" x="22.5" y="22.5" width="239.9" height="239.9"/>
	</defs>
	<clipPath id="SVGID_10_">
		<use xlink:href="#SVGID_9_"  style="overflow:visible;"/>
	</clipPath>
	<path class="st9" d="M131.2,82.4c3.6,0.6,6.9,0.5,10.2,0c-0.1-1.3-0.3-2.7-2-3.2C136.4,78.5,130.6,79.8,131.2,82.4z"/>
</g>
<g>
	<defs>
		<path id="SVGID_11_" d="M153.9,79.3c-1.5,0.4-1.8,2-1.9,3.3c3.1,0.5,6.3,0.6,9.7,0c0.4-2.1-3.1-3.5-5.9-3.5
			C155.1,79,154.4,79.1,153.9,79.3"/>
	</defs>
	<clipPath id="SVGID_12_">
		<use xlink:href="#SVGID_11_"  style="overflow:visible;"/>
	</clipPath>
	<path class="st10" d="M156.5,78.8c1.4,0,2.5,1.1,2.5,2.5c0,1.4-1.1,2.5-2.5,2.5c-1.4,0-2.5-1.1-2.5-2.5
		C154,79.9,155.2,78.8,156.5,78.8"/>
	<path class="st11" d="M157.8,80.1c0.3,0,0.5,0.2,0.5,0.5c0,0.3-0.2,0.5-0.5,0.5c-0.3,0-0.5-0.2-0.5-0.5
		C157.4,80.3,157.6,80.1,157.8,80.1"/>
</g>
<g>
	<defs>
		<rect id="SVGID_13_" x="22.5" y="22.5" width="239.9" height="239.9"/>
	</defs>
	<clipPath id="SVGID_14_">
		<use xlink:href="#SVGID_13_"  style="overflow:visible;"/>
	</clipPath>
	<path class="st12" d="M161.7,82.5c-3.4,0.6-6.6,0.6-9.7,0c0.1-1.3,0.3-2.8,1.9-3.3C156.7,78.5,162.3,79.8,161.7,82.5z"/>
	<path class="st13" d="M145.5,77.2c1.2,7-1.2,12.7-3.4,14.6c0.3,1.6,2.1,2.3,3.6,2.5"/>
	<polygon class="st14" points="139.9,71.9 140,71.9 140,71.9 140.1,71.9 140.1,71.9 140.2,71.9 140.2,71.9 140.2,71.9 140.3,71.9 
		140.3,71.9 140.4,71.9 140.4,71.9 140.5,71.9 140.5,71.9 140.6,71.9 140.6,71.9 140.7,71.9 140.7,71.9 140.8,71.9 140.8,71.9 
		140.9,71.9 140.9,71.9 141,71.9 141,71.9 141.1,71.9 141.1,71.9 141.2,71.9 141.2,71.9 141.3,71.9 141.3,71.9 141.7,72.1 
		141.9,72.3 142.1,72.7 142.1,73.1 142.1,73.1 142,73.5 141.7,73.8 141.4,73.9 141,73.9 141,73.9 140.9,73.9 140.9,73.9 140.8,73.9 
		140.8,73.9 140.8,73.9 140.7,73.9 140.7,73.9 140.6,73.9 140.6,73.9 140.6,73.9 140.5,73.9 140.5,73.9 140.4,73.8 140.4,73.8 
		140.4,73.8 140.3,73.8 140.3,73.8 140.2,73.8 140.2,73.8 140.2,73.8 140.1,73.8 140.1,73.8 140,73.8 140,73.8 139.9,73.8 
		139.9,73.8 139.9,73.8 139.8,73.8 139.8,73.8 139.7,73.8 139.7,73.8 139.7,73.8 139.6,73.8 139.6,73.8 139.5,73.7 139.5,73.7 
		139.4,73.7 139.4,73.7 139.4,73.7 139.3,73.7 139.3,73.7 139.2,73.7 139.2,73.7 139.2,73.7 139.1,73.7 139.1,73.7 139,73.7 
		139,73.7 139,73.7 138.9,73.7 138.9,73.7 138.8,73.7 138.8,73.7 138.7,73.7 138.7,73.7 138.7,73.7 138.6,73.7 138.6,73.7 
		138.5,73.7 138.5,73.7 138.5,73.7 138.4,73.7 138.4,73.7 138.3,73.7 138.3,73.7 138.2,73.7 138.2,73.7 138.2,73.7 138.1,73.8 
		138.1,73.8 138,73.8 138,73.8 138,73.8 137.9,73.8 137.9,73.8 137.8,73.8 137.8,73.8 137.8,73.8 137.7,73.8 137.7,73.8 137.6,73.8 
		137.6,73.8 137.5,73.8 137.5,73.8 137.5,73.8 137.4,73.8 137.4,73.8 137.3,73.8 137.3,73.8 137.3,73.8 137.2,73.8 137.2,73.9 
		137.1,73.9 137.1,73.9 137.1,73.9 137,73.9 137,73.9 136.9,73.9 136.9,73.9 136.8,73.9 136.8,73.9 136.8,73.9 136.7,73.9 
		136.7,73.9 136.6,73.9 136.6,74 136.6,74 136.5,74 136.5,74 136.4,74 136.4,74 136.4,74 136.3,74 136.3,74 136.2,74 136.2,74 
		136.1,74.1 136.1,74.1 136.1,74.1 136,74.1 136,74.1 135.9,74.1 135.9,74.1 135.9,74.1 135.8,74.1 135.8,74.2 135.7,74.2 
		135.7,74.2 135.7,74.2 135.6,74.2 135.6,74.2 135.5,74.2 135.5,74.2 135.5,74.2 135.4,74.3 135.4,74.3 135.3,74.3 135.3,74.3 
		135.3,74.3 135.2,74.3 135.2,74.3 135.1,74.4 135.1,74.4 135.1,74.4 135,74.4 135,74.4 134.9,74.4 134.9,74.4 134.9,74.4 
		134.8,74.5 134.8,74.5 134.7,74.5 134.7,74.5 134.7,74.5 134.6,74.5 134.6,74.6 134.5,74.6 134.5,74.6 134.5,74.6 134.4,74.6 
		134.4,74.6 134.3,74.6 134.3,74.7 134.2,74.7 134.1,74.7 134,74.8 133.9,74.8 133.9,74.9 133.8,74.9 133.7,74.9 133.6,75 133.6,75 
		133.5,75 133.4,75.1 133.3,75.1 133.2,75.2 133.2,75.2 133.1,75.2 133,75.3 132.9,75.3 132.9,75.4 132.8,75.4 132.7,75.5 
		132.6,75.5 132.6,75.5 132.5,75.6 132.4,75.6 132.3,75.7 132.3,75.7 132.2,75.8 132.1,75.8 132,75.9 132,75.9 131.9,76 131.8,76 
		131.7,76.1 131.7,76.1 131.6,76.2 131.5,76.2 131.5,76.3 131.4,76.3 131.3,76.4 131.2,76.4 131.2,76.5 131.1,76.5 131,76.6 
		131,76.6 130.9,76.7 130.8,76.7 130.8,76.7 130.4,76.9 130.1,76.7 130.1,76.7 130,76.3 130.1,76 130.2,75.9 130.3,75.8 130.3,75.8 
		130.4,75.7 130.5,75.7 130.6,75.6 130.6,75.5 130.7,75.5 130.8,75.4 130.8,75.3 130.9,75.3 131,75.2 131.1,75.2 131.1,75.1 
		131.2,75 131.3,75 131.4,74.9 131.4,74.9 131.5,74.8 131.6,74.7 131.7,74.7 131.7,74.6 131.8,74.6 131.9,74.5 132,74.5 132,74.4 
		132.1,74.4 132.2,74.3 132.3,74.3 132.4,74.2 132.4,74.1 132.5,74.1 132.6,74 132.7,74 132.8,73.9 132.8,73.9 132.9,73.8 133,73.8 
		133.1,73.7 133.2,73.7 133.2,73.7 133.3,73.6 133.4,73.6 133.5,73.5 133.6,73.5 133.7,73.4 133.7,73.4 133.8,73.4 133.8,73.3 
		133.9,73.3 133.9,73.3 134,73.3 134,73.3 134,73.2 134.1,73.2 134.1,73.2 134.2,73.2 134.2,73.2 134.3,73.1 134.3,73.1 134.3,73.1 
		134.4,73.1 134.4,73.1 134.5,73 134.5,73 134.6,73 134.6,73 134.6,73 134.7,72.9 134.7,72.9 134.8,72.9 134.8,72.9 134.9,72.9 
		134.9,72.8 135,72.8 135,72.8 135,72.8 135.1,72.8 135.1,72.8 135.2,72.7 135.2,72.7 135.3,72.7 135.3,72.7 135.4,72.7 135.4,72.7 
		135.4,72.6 135.5,72.6 135.5,72.6 135.6,72.6 135.6,72.6 135.7,72.6 135.7,72.6 135.8,72.5 135.8,72.5 135.8,72.5 135.9,72.5 
		135.9,72.5 136,72.5 136,72.4 136.1,72.4 136.1,72.4 136.2,72.4 136.2,72.4 136.3,72.4 136.3,72.4 136.3,72.4 136.4,72.3 
		136.4,72.3 136.5,72.3 136.5,72.3 136.6,72.3 136.6,72.3 136.7,72.3 136.7,72.3 136.8,72.2 136.8,72.2 136.9,72.2 136.9,72.2 
		136.9,72.2 137,72.2 137,72.2 137.1,72.2 137.1,72.2 137.2,72.1 137.2,72.1 137.3,72.1 137.3,72.1 137.4,72.1 137.4,72.1 
		137.5,72.1 137.5,72.1 137.6,72.1 137.6,72.1 137.6,72.1 137.7,72 137.7,72 137.8,72 137.8,72 137.9,72 137.9,72 138,72 138,72 
		138.1,72 138.1,72 138.2,72 138.2,72 138.3,72 138.3,72 138.4,71.9 138.4,71.9 138.5,71.9 138.5,71.9 138.5,71.9 138.6,71.9 
		138.6,71.9 138.7,71.9 138.7,71.9 138.8,71.9 138.8,71.9 138.9,71.9 138.9,71.9 139,71.9 139,71.9 139.1,71.9 139.1,71.9 
		139.2,71.9 139.2,71.9 139.3,71.9 139.3,71.9 139.4,71.9 139.4,71.9 139.5,71.9 139.5,71.9 139.6,71.9 139.6,71.9 139.7,71.9 
		139.7,71.9 139.8,71.9 139.8,71.9 139.9,71.9 	"/>
	<polygon class="st14" points="153.6,72.1 153.6,72.1 153.7,72.1 153.8,72.1 153.9,72.1 154,72.1 154.1,72.1 154.2,72.1 154.3,72.1 
		154.4,72.1 154.5,72.1 154.6,72.1 154.7,72.2 154.8,72.2 154.8,72.2 154.9,72.2 154.9,72.2 155,72.2 155,72.2 155.1,72.2 
		155.1,72.2 155.2,72.2 155.2,72.2 155.2,72.2 155.3,72.2 155.3,72.2 155.4,72.2 155.4,72.2 155.5,72.2 155.5,72.2 155.6,72.3 
		155.6,72.3 155.7,72.3 155.7,72.3 155.8,72.3 155.8,72.3 155.8,72.3 155.9,72.3 155.9,72.3 156,72.3 156,72.3 156.1,72.3 
		156.1,72.3 156.2,72.4 156.2,72.4 156.3,72.4 156.3,72.4 156.3,72.4 156.4,72.4 156.4,72.4 156.5,72.4 156.5,72.4 156.6,72.4 
		156.6,72.5 156.7,72.5 156.7,72.5 156.8,72.5 156.8,72.5 156.8,72.5 156.9,72.5 156.9,72.5 157,72.5 157,72.6 157.1,72.6 
		157.1,72.6 157.2,72.6 157.2,72.6 157.2,72.6 157.3,72.6 157.3,72.6 157.4,72.7 157.4,72.7 157.5,72.7 157.5,72.7 157.6,72.7 
		157.6,72.7 157.6,72.7 157.7,72.8 157.7,72.8 157.8,72.8 157.8,72.8 157.9,72.8 157.9,72.8 158,72.9 158,72.9 158,72.9 158.1,72.9 
		158.1,72.9 158.2,72.9 158.2,73 158.3,73 158.3,73 158.3,73 158.4,73 158.4,73 158.5,73.1 158.5,73.1 158.6,73.1 158.6,73.1 
		158.6,73.1 158.7,73.1 158.7,73.2 158.8,73.2 158.8,73.2 158.9,73.2 158.9,73.2 158.9,73.3 159,73.3 159,73.3 159.1,73.3 
		159.1,73.4 159.1,73.4 159.2,73.4 159.2,73.4 159.3,73.4 159.3,73.5 159.3,73.5 159.4,73.5 159.4,73.5 159.5,73.5 159.5,73.6 
		159.6,73.6 159.6,73.6 159.6,73.6 159.7,73.7 159.7,73.7 159.8,73.7 159.8,73.7 159.8,73.8 159.9,73.8 159.9,73.8 160,73.8 
		160,73.9 160,73.9 160.1,73.9 160.1,73.9 160.2,74 160.2,74 160.2,74 160.3,74 160.3,74.1 160.3,74.1 160.4,74.1 160.4,74.2 
		160.5,74.2 160.5,74.2 160.5,74.2 160.6,74.3 160.6,74.3 160.7,74.3 160.7,74.3 160.7,74.4 160.8,74.4 160.8,74.4 160.8,74.5 
		160.9,74.5 160.9,74.5 161,74.6 161,74.6 161,74.6 161.1,74.6 161.1,74.7 161.1,74.7 161.2,74.7 161.2,74.8 161.3,74.8 161.3,74.8 
		161.3,74.9 161.4,74.9 161.4,74.9 161.4,75 161.5,75 161.5,75 161.5,75.1 161.6,75.1 161.6,75.1 161.6,75.2 161.7,75.2 161.7,75.2 
		161.8,75.3 161.8,75.3 161.8,75.3 161.9,75.4 161.9,75.4 161.9,75.5 162,75.5 162,75.5 162,75.6 162.1,75.6 162.1,75.6 162.1,75.7 
		162.2,75.7 162.2,75.7 162.2,75.8 162.3,75.8 162.3,75.9 162.3,75.9 162.4,75.9 162.4,76 162.4,76 162.4,76 162.6,76.4 162.4,76.7 
		162.4,76.7 162,76.9 161.7,76.7 161.7,76.7 161.6,76.7 161.6,76.6 161.6,76.6 161.5,76.6 161.5,76.5 161.5,76.5 161.4,76.5 
		161.4,76.5 161.4,76.4 161.3,76.4 161.3,76.4 161.3,76.3 161.2,76.3 161.2,76.3 161.2,76.2 161.1,76.2 161.1,76.2 161.1,76.1 
		161,76.1 161,76.1 161,76.1 160.9,76 160.9,76 160.9,76 160.8,76 160.8,75.9 160.8,75.9 160.7,75.9 160.7,75.8 160.7,75.8 
		160.6,75.8 160.6,75.8 160.6,75.7 160.5,75.7 160.5,75.7 160.5,75.7 160.4,75.6 160.4,75.6 160.3,75.6 160.3,75.6 160.3,75.5 
		160.2,75.5 160.2,75.5 160.2,75.5 160.1,75.4 160.1,75.4 160.1,75.4 160,75.4 160,75.4 160,75.3 159.9,75.3 159.9,75.3 159.9,75.3 
		159.8,75.2 159.8,75.2 159.7,75.2 159.7,75.2 159.7,75.2 159.6,75.1 159.6,75.1 159.6,75.1 159.5,75.1 159.5,75.1 159.5,75 
		159.4,75 159.4,75 159.3,75 159.3,75 159.3,74.9 159.2,74.9 159.2,74.9 159.2,74.9 159.1,74.9 159.1,74.9 159.1,74.8 159,74.8 
		159,74.8 158.9,74.8 158.9,74.8 158.9,74.7 158.8,74.7 158.8,74.7 158.8,74.7 158.7,74.7 158.7,74.7 158.6,74.7 158.6,74.6 
		158.6,74.6 158.5,74.6 158.5,74.6 158.5,74.6 158.4,74.6 158.4,74.5 158.3,74.5 158.3,74.5 158.3,74.5 158.2,74.5 158.2,74.5 
		158.2,74.5 158.1,74.5 158.1,74.4 158,74.4 158,74.4 158,74.4 157.9,74.4 157.9,74.4 157.8,74.4 157.8,74.4 157.8,74.3 157.7,74.3 
		157.7,74.3 157.7,74.3 157.6,74.3 157.6,74.3 157.5,74.3 157.5,74.3 157.5,74.3 157.4,74.2 157.4,74.2 157.3,74.2 157.3,74.2 
		157.3,74.2 157.2,74.2 157.2,74.2 157.1,74.2 157.1,74.2 157.1,74.2 157,74.1 157,74.1 157,74.1 156.9,74.1 156.9,74.1 156.8,74.1 
		156.8,74.1 156.8,74.1 156.7,74.1 156.7,74.1 156.6,74.1 156.6,74.1 156.6,74.1 156.5,74.1 156.5,74 156.4,74 156.4,74 156.4,74 
		156.3,74 156.3,74 156.2,74 156.2,74 156.2,74 156.1,74 156.1,74 156,74 156,74 156,74 155.9,74 155.9,74 155.8,74 155.8,74 
		155.8,74 155.7,74 155.7,74 155.6,73.9 155.6,73.9 155.6,73.9 155.5,73.9 155.5,73.9 155.4,73.9 155.4,73.9 155.4,73.9 155.3,73.9 
		155.3,73.9 155.2,73.9 155.2,73.9 155.1,73.9 155.1,73.9 155.1,73.9 155,73.9 155,73.9 154.9,73.9 154.9,73.9 154.9,73.9 
		154.8,73.9 154.8,73.9 154.7,73.9 154.7,73.9 154.6,73.9 154.5,73.9 154.5,73.9 154.4,73.9 154.3,73.9 154.2,73.9 154.1,73.9 
		154,73.9 154,73.9 153.9,73.9 153.8,73.9 153.7,74 153.6,74 153.5,74 153.5,74 153.4,74 153.3,74 153.2,74 153.1,74 153,74 
		152.9,74 152.9,74 152.8,74 152.7,74.1 152.6,74.1 152.5,74.1 152.4,74.1 152.4,74.1 152.3,74.1 152.2,74.1 152.1,74.2 152,74.2 
		151.9,74.2 151.8,74.2 151.8,74.2 151.8,74.2 151.4,74.2 151,74 150.7,73.8 150.6,73.4 150.6,73.4 150.6,73 150.8,72.6 151.1,72.4 
		151.4,72.2 151.5,72.2 151.5,72.2 151.6,72.2 151.7,72.2 151.8,72.2 151.9,72.2 152,72.2 152.1,72.2 152.2,72.2 152.3,72.1 
		152.4,72.1 152.5,72.1 152.6,72.1 152.7,72.1 152.8,72.1 152.9,72.1 153,72.1 153.1,72.1 153.2,72.1 153.3,72.1 153.4,72.1 
		153.5,72.1 	"/>
	<path class="st12" d="M169.5,65c0.1,2.1-0.7,3.7-3,4.2"/>
	<path class="st15" d="M142.4,47.9c0,0,4-2.7,12.6,0c8.6,2.7,8.5,5.9,14.2,8.3c5.7,2.3,7,3,8.6,7.5c1.6,4.5,0.7,4.5,1.7,7.1
		c0.9,2.6,2.2,3.1,1.4,7.9c-0.8,4.8-1,5-2,8.5c-1,3.4,0.1,5.2-3.3,9.3c-1,1.2-1.6,2.1-2,2.9c-1,2-0.9,3.2-3.1,5.8
		c-4.6,5.4-8.4,5.6-8.4,5.6c5.4-5.9,7-9.2,8-19.3c7.5-4.3,3.5-11-0.8-7.7c0.7-2.1,0.6-3.4-0.2-6.4c-0.9-3.6-3.7-3.8-2.7-8.3
		c-7.8,0.3-11.6-2.9-11.4-6.6c-8.3-2.2-13.2-4.5-12.2-9.2L142.4,47.9z"/>
	<path class="st12" d="M142.4,47.9c0,0,4-2.7,12.6,0c8.6,2.7,8.5,5.9,14.2,8.3c5.7,2.3,7,3,8.6,7.5c1.6,4.5,0.7,4.5,1.7,7.1
		c0.9,2.6,2.2,3.1,1.4,7.9c-0.8,4.8-1,5-2,8.5c-1,3.4,0.1,5.2-3.3,9.3c-1,1.2-1.6,2.1-2,2.9c-1,2-0.9,3.2-3.1,5.8
		c-4.6,5.4-8.4,5.6-8.4,5.6c5.4-5.9,7-9.2,8-19.3c7.5-4.3,3.5-11-0.8-7.7c0.7-2.1,0.6-3.4-0.2-6.4c-0.9-3.6-3.7-3.8-2.7-8.3
		c-7.8,0.3-11.6-2.9-11.4-6.6c-8.3-2.2-13.2-4.5-12.2-9.2L142.4,47.9z"/>
	<path class="st15" d="M142.6,47.9l0.2,5.4l-3.1,3.7c1.4,5.1-3.1,8.2-9,11.4c-1.7,0.9-4.7,0.7-5.1,3.3c0,0-2.6-1.4-3.7,0.2
		c-1.2,1.8-0.4,2.9-0.2,4.3c-2.3,2.4-1.8,5.6-0.3,8c-2.6-1.9-3.7-0.6-4.3,0.1c-1.3,1.8,0.6,7,4.8,7.2c-0.2,9.6,3.1,15.5,6.2,18.2
		c-2.3,0.9-7.9-2.4-9-7.7c-0.7-3.2-6.2-3.6-4.7-11.7c0.4-2-2.6-2.5-1.8-6.2c-1.7-5.5-2-10.7,0.4-13.1c-1.2-4,1.7-9.2,9.4-14.6
		C125.4,49.1,136.9,45.2,142.6,47.9"/>
	<path class="st12" d="M142.6,47.9l0.2,5.4l-3.1,3.7c1.4,5.1-3.1,8.2-9,11.4c-1.7,0.9-4.7,0.7-5.1,3.3c0,0-2.6-1.4-3.7,0.2
		c-1.2,1.8-0.4,2.9-0.2,4.3c-2.3,2.4-1.8,5.6-0.3,8c-2.6-1.9-3.7-0.6-4.3,0.1c-1.3,1.8,0.6,7,4.8,7.2c-0.2,9.6,3.1,15.5,6.2,18.2
		c-2.3,0.9-7.9-2.4-9-7.7c-0.7-3.2-6.2-3.6-4.7-11.7c0.4-2-2.6-2.5-1.8-6.2c-1.7-5.5-2-10.7,0.4-13.1c-1.2-4,1.7-9.2,9.4-14.6
		C125.4,49.1,136.9,45.2,142.6,47.9z"/>
	<path class="st12" d="M142.9,49.8c0,0-10.1,5.2-7.2,5.7C138.6,56,142.9,49.8,142.9,49.8z"/>
	<path class="st12" d="M142.9,49.1c-2.1-1-10.2,0.2-8.9,1.6C135.3,52,142.3,49.3,142.9,49.1z"/>
	<path class="st12" d="M142.9,49c0,0,12.7,3.3,12.3,1.7c-0.3-1.2-3.5-2-6.6-2.1C145.6,48.5,142.9,49,142.9,49z"/>
	<path class="st12" d="M142.9,49.8c0,0,10.1,9.4,9.9,6.5S142.9,49.8,142.9,49.8z"/>
	<path class="st12" d="M144.5,112.1c1.5-0.5,2.9-0.5,4.3,0"/>
	<path class="st15" d="M100.3,171.4c0,0,1-6.4,4.2-6.9c5.3-0.8,9.8-0.9,9.8-0.9L100.3,171.4z"/>
	<path class="st12" d="M100.3,171.4c0,0,1-6.4,4.2-6.9c5.3-0.8,9.8-0.9,9.8-0.9L100.3,171.4z"/>
	<line class="st12" x1="119.3" y1="167.2" x2="122.6" y2="165.6"/>
	<path class="st12" d="M100.7,177.6c-0.1,2.3,1.3,4.9,2.7,6"/>
	<path class="st12" d="M104.9,147.2c0.2,3.2,1,5.1,2.4,6.1l0.1,3.1"/>
	<path class="st15" d="M83.5,178.5l15.8-5.6c0,0,1.4-3.2,4.2-4.9c4.5-2.8,28.8-12.5,28.8-12.5c3.9-1.5,5.4,0.9,1,3.6l-10.8,6.5
		c1.4,1.2,1.8,2.6,1.4,4.3c1.3,1.3,1.6,2.5,0.7,4.8c0.9-0.7,1.1,4.2-1.3,5.8c-3.1,2-11.8,5.5-17.2,5c-1.2-0.1-3.2-2.4-3.2-2.4
		l-15.6,6L83.5,178.5z"/>
	<path class="st12" d="M83.5,178.5l15.8-5.6c0,0,1.4-3.2,4.2-4.9c4.5-2.8,28.8-12.5,28.8-12.5c3.9-1.5,5.4,0.9,1,3.6l-10.8,6.5
		c1.4,1.2,1.8,2.6,1.4,4.3c1.3,1.3,1.6,2.5,0.7,4.8c0.9-0.7,1.1,4.2-1.3,5.8c-3.1,2-11.8,5.5-17.2,5c-1.2-0.1-3.2-2.4-3.2-2.4
		l-15.6,6L83.5,178.5z"/>
	<polyline class="st12" points="119.8,172.2 122.2,171.5 123.7,169.8 	"/>
	<polyline class="st12" points="120.7,176.9 123,176.2 124.6,174.6 	"/>
	<path class="st16" d="M94.5,171.7c1.1,5.6,2.8,11.1,4.6,16.7l-28.3,11.4c-12.4,2.6-17-9.3-5.3-17.7L94.5,171.7z"/>
	<path class="st12" d="M94.5,171.7c1.1,5.6,2.8,11.1,4.6,16.7l-28.3,11.4c-12.4,2.6-17-9.3-5.3-17.7L94.5,171.7z"/>
</g>
</svg>
