<?xml version="1.0" encoding="utf-8"?>
<!-- Generator: Adobe Illustrator 23.1.0, SVG Export Plug-In . SVG Version: 6.00 Build 0)  -->
<svg version="1.1" id="Слой_1" xmlns="http://www.w3.org/2000/svg" xmlns:xlink="http://www.w3.org/1999/xlink" x="0px" y="0px"
	 viewBox="0 0 283.5 283.5" style="enable-background:new 0 0 283.5 283.5;" xml:space="preserve">
<style type="text/css">
	.st0{fill:#B46D29;}
	.st1{fill:#FBC595;}
	.st2{fill:#8FB4DF;}
	.st3{fill:#8EC757;}
	.st4{fill:#231F20;}
	.st5{fill:#FFDC4D;}
</style>
<g>
	<path class="st0" d="M123.4,261.1c-1.8-1.2-3.5-3.1-2.8-6.8l2.9-11.5c1.3-3.9,7.5-3.8,8.3,0.1l2.9,10.9c0.8,3-0.2,5.3-1.9,6.7
		C131.5,261.6,127.2,263.6,123.4,261.1z"/>
	<path class="st1" d="M130.2,240.3l1.1-9.8l-7.4,0.2l1.4,9.7c-0.6,0.4-1.1,0.9-1.5,1.6c1,1.1,2.4,1.8,3.9,1.8c1.5,0,2.9-0.7,3.9-1.7
		C131.4,241.2,130.9,240.7,130.2,240.3z"/>
	<path class="st0" d="M149.4,261.3c-1.8-1.2-3.4-3.1-2.8-6.7l2.9-11.4c1.2-3.8,7.4-3.8,8.2,0.1l2.8,10.8c0.8,3-0.2,5.2-1.9,6.7
		C157.3,261.8,153.2,263.8,149.4,261.3z"/>
	<path class="st1" d="M156,240.7l1.1-9.7l-7.3,0.2l1.4,9.6c-0.6,0.4-1.1,0.9-1.4,1.6c1,1.1,2.3,1.7,3.9,1.7c1.5,0,2.9-0.7,3.9-1.7
		C157.2,241.7,156.7,241.1,156,240.7z"/>
	<path class="st2" d="M117.1,157c0,0-0.5,18.2,0,37.1c0.6,20.2,3.1,41.1,3.1,41.1l15.7-0.4l4.4-53.6l1.5-0.1l4.4,53.7h15.6
		c0,0.6,1.5-22,2.1-31.6c0.7-12,0.7-46.2,0.7-46.2L117.1,157z"/>
	<path class="st3" d="M176.6,112.9c0,0-13.1-25.4-27.3-28.3c-2.5-1.1-5.4-1.7-8.6-1.7l0,0c-3.3,0-6.3,0.7-9,1.9
		c-15.2,0.1-29.8,28.5-29.8,28.5l14.4,8.3l-4.1,39.9c0,0,9.2,2.2,29.1,2.2c16.6,0,27.8-2.4,27.8-2.4l-4.2-41.7L176.6,112.9z"/>
	<path class="st4" d="M142.8,122.1v-8.7h-0.5c-0.5,0-1,0.2-1.4,0.5c-0.3,0.3-0.7,0.8-1,1.7l-3.1,6.6h-6.5l2.8-6.2
		c0.1-0.3,0.4-0.8,0.8-1.3c0.4-0.6,0.7-1,0.9-1.1c0.3-0.3,0.8-0.5,1.5-0.8c-0.9-0.2-1.5-0.5-2-0.9c-0.8-0.5-1.4-1.2-1.8-2.1
		c-0.4-0.9-0.7-1.9-0.7-3.1c0-1.4,0.3-2.5,0.9-3.5c0.6-1,1.3-1.6,2.3-2c0.9-0.4,2.3-0.5,4.1-0.5h9.6v21.5H142.8z M142.8,104.9h-2.5
		c-1.1,0-1.8,0.2-2.2,0.6s-0.6,0.9-0.6,1.6c0,0.5,0.1,0.9,0.4,1.2c0.2,0.4,0.6,0.6,0.9,0.7c0.8,0.2,1.3,0.3,1.5,0.3h2.4V104.9z"/>
	<path class="st1" d="M171.1,51.6c-1.2-1.4-3.6-1.2-5.9,0.1c-1.9-12.1-12.3-21.4-24.8-21.4c-12.6,0-23,9.4-24.8,21.7
		c-2.5-1.7-5.4-1.8-6.7-0.1c-1.4,1.8-0.4,4.8,2.2,6.8c1.5,1.1,3.2,1.6,4.6,1.5c1.6,9.7,8.7,17.4,17.8,20.1v3.1c0,0.2,0,0.4,0,0.6
		c-1.4,0.5-2.7,1.1-4,1.9c1.9,4.1,6,7,10.9,7c5,0,9.2-3,11-7.3c-1.2-0.7-2.6-1.3-4-1.7c0-0.1,0-0.3,0-0.4v-3.1
		c8.9-2.6,15.8-10.1,17.6-19.5c1.3-0.2,2.7-0.9,4-2C171.7,56.5,172.6,53.3,171.1,51.6z"/>
	<ellipse transform="matrix(0.9975 -7.075410e-02 7.075410e-02 0.9975 -3.4693 9.5243)" cx="132.7" cy="53.7" rx="2.3" ry="2.9"/>
	<ellipse transform="matrix(7.075410e-02 -0.9975 0.9975 7.075410e-02 84.0924 198.21)" cx="148.4" cy="54" rx="2.9" ry="2.3"/>
	<path d="M142.9,62.4c-0.3,0-0.6-0.3-0.6-0.6c0-0.9-1-1.6-2.2-1.6c-1.2,0-2.2,0.7-2.2,1.6c0,0.3-0.3,0.6-0.6,0.6s-0.6-0.3-0.6-0.6
		c0-1.6,1.5-2.9,3.4-2.9c1.9,0,3.4,1.3,3.4,2.9C143.6,62.1,143.3,62.4,142.9,62.4z"/>
	<path d="M140.3,72.3c-3,0-5.9-1.5-7.7-3.9c-0.2-0.3-0.1-0.7,0.1-0.9c0.3-0.2,0.7-0.1,0.9,0.1c1.5,2.1,4,3.4,6.6,3.4
		c2.6,0,5.1-1.3,6.6-3.4c0.2-0.3,0.6-0.3,0.9-0.1c0.3,0.2,0.3,0.6,0.1,0.9C146.2,70.8,143.3,72.3,140.3,72.3z"/>
	<path d="M128.6,48.5c-0.1,0-0.3,0-0.4-0.1c-0.3-0.2-0.4-0.6-0.2-0.9c0.7-1,1.9-1.7,3.2-1.9c1.4-0.2,2.7,0.1,3.6,0.9
		c0.3,0.2,0.3,0.6,0.1,0.9c-0.2,0.3-0.6,0.3-0.9,0.1c-0.7-0.5-1.6-0.7-2.6-0.6c-1,0.1-1.9,0.6-2.4,1.3
		C129,48.4,128.8,48.5,128.6,48.5z"/>
	<path d="M152.6,48.5c-0.2,0-0.4-0.1-0.6-0.3c-0.4-0.7-1.2-1.3-2.2-1.6c-1-0.3-2-0.1-2.7,0.3c-0.3,0.2-0.7,0.1-0.9-0.2
		c-0.2-0.3-0.1-0.7,0.2-0.9c1-0.6,2.4-0.8,3.7-0.5c1.3,0.3,2.4,1.1,3,2.2c0.2,0.3,0.1,0.7-0.3,0.9C152.8,48.5,152.7,48.5,152.6,48.5
		z"/>
	<g>
		<path class="st5" d="M127.2,27.5c0.3-1.1-1-7.7-3.6-6.3C120.4,22.7,127.2,27.5,127.2,27.5z"/>
		<path class="st5" d="M126.3,26.9c-0.1-0.1-5.8-2.8-6-0.3C120,29.4,126.3,26.9,126.3,26.9z"/>
		<path class="st5" d="M155,25.8c-8.1-4.7-14.6-4.2-18.8-3.7c-6.3,0.8-8.4,3.9-8.8,5.3c0,0.1,0,0.3-0.1,0.4
			c-0.4,0.1-22.1,4.7-12.4,24.9c0,0,3.2-15.3,14.2-19.6c7.1,8.4,18.8,8,18.8,8l-0.9-3.9c0,0,3.9,4.2,9.4,7.9
			c6.2,4.2,8.7,5.8,8.7,5.8s3.3-3.4,3.3-8.2C168.5,38.2,163,30.4,155,25.8z"/>
	</g>
	<g>
		<path class="st1" d="M190.9,167.7c0,0-5.4-8.2-7.2-10c-0.4-0.4-0.9-0.6-1.5-0.7c-1.8-15.3-9.2-42.3-9.2-42.3l-8.3,4.7l11.9,39.6
			c-0.7,1.1-0.8,2.6-1.7,4.8c-0.8,2-2.1,2.9-3,3.8c-0.2,0.2-0.1,0.4,0.1,0.5c0.7,0.5,2.3,1,4.8-2.1c0.5,0,0.6,0.8,0.8,1.2l0.8,7.3
			c0.1,0.7,0.8,1.1,1.3,1c0.5-0.1,0.9-0.6,0.8-1.2l-0.2-7.2l0.3-0.1l2.5,8c0.1,0.5,0.7,0.9,1.2,0.7c0.5-0.1,0.9-0.7,0.7-1.2
			l-1.7-8.3l0.2-0.1l3.2,6.3c0.2,0.5,0.8,0.7,1.3,0.5c0.5-0.2,0.7-0.8,0.5-1.3l-2.7-6.6l0.2-0.1l3.1,4c0.3,0.5,0.9,0.6,1.4,0.3
			C191,168.8,191.2,168.2,190.9,167.7z"/>
		<path class="st1" d="M130.9,125.2C130.8,125.2,130.8,125.2,130.9,125.2L130.9,125.2c-0.5-0.6-1.3-0.6-1.8-0.2l-1.8,1.5l-0.1-0.1
			l2-1.7c0.5-0.4,0.6-1.2,0.2-1.8l-0.2-0.2c0,0,0,0,0,0l0,0c-0.4-0.5-1.2-0.6-1.8-0.2l-1.9,1.6l-0.2-0.3l1.8-1.6
			c0.5-0.4,0.6-1.2,0.2-1.8l-0.2-0.2c-0.4-0.5-1.2-0.6-1.8-0.2l-1.8,1.5l-0.3-0.4l6.2-5.2c1.3-1.4-0.5-3.1-1.8-2.1l-7.4,6.2
			l-3.3,2.5c-1.7,1.3-2.5,3.3-2.4,5.3l-7.6,4.7l6.1-12.3l-8.2-4.7c0,0-7.1,13.4-9.6,21.9c-2.3,8,1,12.8,9.1,7.9
			c5.9-3.6,11.8-9.2,14.5-12c1.4,0.4,3,0.3,4.5-0.4c0.2,0,7.5-6,7.5-6c0.5-0.4,0.6-1.2,0.2-1.8L130.9,125.2z"/>
	</g>
	<g>
		<path class="st4" d="M151.7,246.9c-0.2,0.3-0.2,0.7,0.1,0.9c0.1,0.1,0.3,0.2,0.4,0.2c0.2,0,0.4-0.1,0.5-0.2c0.2-0.2,0.6-0.4,1-0.4
			c0.4,0,0.8,0.1,1,0.3c0.2,0.2,0.6,0.2,0.9,0c0.2-0.2,0.2-0.6,0-0.9c-0.5-0.5-1.2-0.7-1.9-0.7C152.8,246,152.2,246.3,151.7,246.9z"
			/>
		<path class="st4" d="M153.6,249.6c-0.8,0-1.4,0.3-1.9,0.8c-0.2,0.3-0.2,0.7,0.1,0.9c0.1,0.1,0.3,0.2,0.4,0.2
			c0.2,0,0.4-0.1,0.5-0.2c0.2-0.2,0.6-0.4,1-0.4c0.4,0,0.8,0.1,1,0.3c0.2,0.2,0.6,0.2,0.9,0c0.2-0.2,0.2-0.6,0-0.9
			C155.1,249.8,154.4,249.6,153.6,249.6z"/>
		<path class="st4" d="M125.8,246.5c-0.2,0.3-0.2,0.7,0.1,0.9c0.1,0.1,0.3,0.2,0.4,0.2c0.2,0,0.4-0.1,0.5-0.2c0.2-0.2,0.6-0.4,1-0.4
			c0.4,0,0.8,0.1,1,0.3c0.2,0.2,0.6,0.2,0.9,0c0.2-0.2,0.2-0.6,0-0.9c-0.5-0.5-1.2-0.7-2-0.7C126.9,245.6,126.2,245.9,125.8,246.5z"
			/>
		<path class="st4" d="M127.7,249.2c-0.8,0-1.5,0.3-1.9,0.9c-0.2,0.3-0.2,0.7,0.1,0.9c0.1,0.1,0.3,0.2,0.4,0.2
			c0.2,0,0.4-0.1,0.5-0.2c0.2-0.2,0.6-0.4,1-0.4c0.4,0,0.8,0.1,1,0.3c0.2,0.2,0.6,0.2,0.9,0c0.2-0.2,0.2-0.6,0-0.9
			C129.1,249.5,128.4,249.2,127.7,249.2z"/>
		<path class="st4" d="M192,167.1c-0.6-0.9-5.6-8.4-7.3-10.2c-0.3-0.3-0.7-0.6-1.2-0.8c-1.7-13.1-7.5-34.8-9.2-41.1l2.7-1.6
			c0.3-0.2,0.4-0.5,0.2-0.8c-0.6-1.2-12.9-24.5-26.8-28.3c-0.7-0.4-1.5-0.8-2.3-1v-2c9-2.8,16-10.2,18.1-19.5c1.3-0.4,2.5-1,3.7-2
			c3.2-2.8,4.2-6.8,2.2-9c-0.8-0.9-2-1.4-3.5-1.4c-0.3,0-0.5,0-0.8,0.1c0.9-1.6,1.9-3.9,1.9-6.7c0-5.5-6.4-13.5-14.1-18
			c-4.9-2.8-9.8-4.2-15-4.2c-1.8,0-3.4,0.2-4.6,0.3c-4,0.5-6.6,1.8-8.2,3.4c-0.4-1.3-0.9-2.6-1.6-3.5c-0.7-0.9-1.5-1.1-2.1-1.1
			c-0.4,0-0.8,0.1-1.2,0.3c-1.2,0.6-1.5,1.6-1.5,2.1c-0.1,0.7,0.3,1.5,0.7,2.2c-0.1,0-0.3,0-0.4,0c-1.9,0-2.6,1.1-2.7,2.2
			c-0.1,0.9,0.3,1.6,0.6,1.9c0.3,0.3,0.7,0.5,1.1,0.7c-2.9,1.5-6.2,3.9-8,7.6c-1.8,3.7-1.9,8-0.4,12.8c-0.2,0-0.4-0.1-0.5-0.1
			c-1.6,0-3,0.6-3.8,1.7c-0.9,1.2-1.1,2.8-0.6,4.5c0.5,1.5,1.6,3,3,4.1c1.3,1,2.8,1.6,4.3,1.7c2,9.5,9.1,17.1,18.2,19.9v2
			c0,0.1,0,0.1,0,0.2c-0.6,0.2-1.1,0.5-1.6,0.8c-15.2,0.6-29.3,27.5-30,28.8c-0.2,0.3,0,0.7,0.2,0.8l2.2,1.3
			c-0.6,1.2-7.2,13.7-9.7,22.1c-1.2,4.1-1,7.5,0.5,9.5c1,1.3,2.4,2,4.1,2c1.8,0,3.9-0.7,6.3-2.2c3-1.8,6.1-4.2,8.7-6.5l-2.2,21.4
			c0,0.3,0.2,0.6,0.5,0.7c0,0,1.5,0.3,4.3,0.7c-0.1,6.9-0.2,18.9,0.1,31.2c0.6,20,3,40.9,3.1,41.1c0,0.3,0.3,0.6,0.6,0.6h0l3.2-0.1
			l0.6,4.2c-0.5,0.4-0.9,1-1.2,1.6c-0.1,0.2-0.1,0.4-0.1,0.5c0,0,0,0-0.1,0c-0.1,0.2-0.2,0.3-0.3,0.5c0,0,0,0.1,0,0.1l-2.9,11.5
			c0,0,0,0.1,0,0.1c-0.7,3.5,0.5,6.3,3.4,8.1c1.4,0.9,3,1.4,4.8,1.4c2.9,0,5.2-1.3,6.1-2c2.1-1.8,3-4.2,2.5-7c0,0,0,0,0,0
			c0.1-0.2,0-0.4-0.1-0.6c0-0.1,0-0.3-0.1-0.4l-2.9-10.9c0-0.1-0.1-0.2-0.1-0.3c0.1-0.2,0.1-0.5,0-0.8c-0.3-0.7-0.7-1.3-1.3-1.8
			l0.5-4.2l3.8-0.1c0.3,0,0.6-0.3,0.6-0.6l4.4-53.1l0.3,0l4.4,53.1c0,0.3,0.3,0.6,0.6,0.6h3l0.7,5c-0.5,0.4-0.9,1-1.2,1.5
			c-0.1,0.2-0.1,0.4-0.1,0.6c0,0,0,0,0,0c-0.1,0.1-0.2,0.2-0.2,0.4c0,0,0,0.1,0,0.1l-2.9,11.4c0,0,0,0.1,0,0.1
			c-0.6,3.5,0.5,6.2,3.3,8c1.4,0.9,3,1.4,4.7,1.4c2.8,0,5.1-1.3,6-2c2.4-2,3.2-4.8,2.3-8l-2.8-10.8c0-0.1-0.1-0.2-0.2-0.4
			c0-0.2,0-0.4-0.1-0.6c-0.3-0.7-0.7-1.3-1.3-1.8l0.5-4.8h3.7c0,0,0.1,0,0.1,0c0.3,0,0.5,0,0.6-0.7l0,0c0,0,0-0.1,0-0.1
			c0.1-0.6,0.2-1.6,0.3-3.4c0.2-2.2,0.4-5.3,0.6-8.6c0.5-7,1-14.8,1.2-19.4c0.4-5.9,0.5-17.2,0.6-27.2c0,0,0,0,0,0s0,0,0,0
			c0-5.1,0.1-9.8,0.1-13.3c2.5-0.4,3.9-0.7,3.9-0.7c0.3-0.1,0.5-0.4,0.5-0.7l-3.2-31.7l8.8,29.3c-0.3,0.6-0.5,1.3-0.7,2.1
			c-0.2,0.7-0.4,1.5-0.8,2.4c-0.5,1.4-1.4,2.1-2.2,2.8c-0.2,0.2-0.4,0.3-0.5,0.5c-0.5,0.5-0.5,1-0.5,1.3c0,0.3,0.2,0.8,0.8,1.2
			c0.5,0.4,1.2,0.6,1.9,0.6c1.1,0,2.2-0.5,3.3-1.5l0.7,6.4c0.1,1.2,1.1,2.1,2.4,2.1c0.1,0,0.3,0,0.4,0c0.6-0.1,1.1-0.4,1.5-0.9
			c0.2-0.3,0.3-0.6,0.4-0.9l0.1,0.4c0.3,1,1.2,1.7,2.2,1.7c0.2,0,0.4,0,0.6-0.1c0.6-0.2,1.1-0.5,1.4-1c0.3-0.5,0.4-1.1,0.2-1.7
			l-0.1-0.6c0.4,0.4,1,0.6,1.6,0.6c0.3,0,0.6-0.1,0.9-0.2c0.6-0.2,1-0.7,1.2-1.3c0.2-0.6,0.2-1.2,0-1.7l-0.2-0.6
			c0.2,0,0.3,0.1,0.5,0.1c0.4,0,0.8-0.1,1.2-0.3C192.3,169.5,192.6,168.1,192,167.1z M175.7,112.7l-10.4,6l-1.3-13c0,0,0,0,0-0.1
			c-1.6-7.9-4.6-13.8-8.8-17.7C165.4,94.3,174.1,109.6,175.7,112.7z M168.6,50.6c1,0,1.9,0.3,2.5,1c1.5,1.7,0.5,4.9-2.1,7.2
			c-0.8,0.7-1.7,1.2-2.6,1.5c0.3-1.5,0.4-3,0.4-4.6c0-1.5-0.2-3-0.4-4.4c0.1-0.1,0.2-0.3,0.4-0.5C167.5,50.7,168.1,50.6,168.6,50.6z
			 M127.4,27.4c0.4-1.4,2.5-4.5,8.8-5.3c1.3-0.2,2.8-0.3,4.5-0.3c3.8,0,8.7,0.8,14.3,4c8,4.6,13.5,12.4,13.5,16.9
			c0,4.8-3.3,8.2-3.3,8.2s-2.4-1.6-8.7-5.8c-5.5-3.7-9.4-7.9-9.4-7.9l0.9,3.9c0,0-0.1,0-0.2,0c-1.7,0-12.4-0.3-18.8-8.3
			C127.3,30.9,126.9,29,127.4,27.4z M123.5,21.1c0.2-0.1,0.4-0.2,0.6-0.2c1.3,0,2.2,2.4,2.6,4.3l-1.6-0.3c-0.4-0.1-0.8-0.3-1.2-0.4
			C122.8,23.3,122.1,21.9,123.5,21.1z M120.3,26.6c0.1-0.8,0.7-1,1.5-1c1.5,0,3.8,1,4.4,1.3c0,0,0,0,0,0c0,0,0,0.1,0,0.1
			c-0.6,0.2-2.7,1-4.2,1C120.9,27.9,120.2,27.6,120.3,26.6z M111.1,58.7c-2.6-2-3.6-5-2.2-6.8c0.6-0.8,1.7-1.2,2.8-1.2
			c0.3,0,0.7,0.1,1,0.1c0.3,0.8,0.7,1.6,1.1,2.5c0.1,0.2,0.2,0.3,0.4,0.4c-0.1,0.7-0.1,1.4-0.1,2.1c0,1.4,0.1,2.9,0.4,4.2
			C113.3,59.9,112.2,59.5,111.1,58.7z M123.6,29c0.9-0.2,1.7-0.4,2.3-0.6c0,1.4,0.4,3.3,2,5.3c-10,4.9-13,19-13,19
			C107.7,37.7,117.8,31.3,123.6,29z M115.3,55.8c0-0.7,0.1-1.4,0.2-2c0.3-0.2,0.6-0.4,0.7-0.8c0-0.1,3.1-13.9,12.7-18.3
			c6.8,7.3,16.8,7.8,18.8,7.8c0.2,0,0.3,0,0.3,0c0.4,0,0.7-0.2,1-0.5c0.2-0.2,0.3-0.5,0.3-0.8c1.7,1.5,3.9,3.4,6.6,5.1
			c6.2,4.1,8.7,5.8,8.7,5.8c0.2,0.1,0.4,0.2,0.7,0.2c0,0,0.1,0,0.1,0c0.2,1.2,0.3,2.4,0.3,3.6c0,14.1-11.3,25.5-25.1,25.5
			S115.3,69.9,115.3,55.8z M133.7,84.6c0.3-0.1,0.5-0.4,0.4-0.7c0-0.2,0-0.4,0-0.6v-1.7c2,0.5,4.1,0.9,6.3,0.9s4.3-0.4,6.3-0.9v1.7
			c0,0.1,0,0.2,0,0.3l0,0.1c0,0.3,0.2,0.6,0.4,0.6c1.2,0.4,2.3,0.8,3.4,1.4c-1.9,3.9-5.8,6.4-10.2,6.4c-4.2,0-8.1-2.4-10-6.1
			C131.4,85.5,132.5,85,133.7,84.6z M102.7,113.1c1.9-3.6,13.4-23.8,25.7-27.1c-5.7,3.8-9.7,10.5-11.1,19.6l-1.6,15L102.7,113.1z
			 M115.6,122l0,0.4c-1.3,1.3-2.2,3.1-2.2,5l-3.2,2l4.1-8.2L115.6,122z M104.3,145.5c-2.2,1.4-4.1,2-5.6,2c-3.9,0-5.1-4.1-3.4-9.9
			c2.3-8.1,8.8-20.4,9.5-21.8l8.2,4.7l-5.1,10.3c-0.1,0-0.2,0-0.3,0c-0.2,0.1-5.2,3.2-7.2,5.3c-0.2,0.2-0.2,0.6,0,0.9
			c0.1,0.1,0.3,0.2,0.4,0.2c0.2,0,0.3-0.1,0.4-0.2c2-2,7-5.1,7-5.1c0,0,0,0,0,0l6.2-3.8c-0.1-2,0.7-4,2.4-5.3l3.3-2.5l7.4-6.2
			c0.3-0.2,0.5-0.3,0.8-0.3c1.1,0,2,1.2,1,2.4l-6.2,5.2l0.3,0.4l1.8-1.5c0.2-0.2,0.5-0.3,0.8-0.3c0.4,0,0.7,0.2,1,0.4l0.2,0.2
			c0.4,0.5,0.4,1.3-0.2,1.8l-1.8,1.6l0.2,0.3l1.9-1.6c0.2-0.2,0.5-0.3,0.8-0.3c0.4,0,0.7,0.2,1,0.4l0,0c0,0,0,0,0,0l0.2,0.2
			c0.4,0.5,0.3,1.2-0.2,1.7l-2,1.7l0.2,0.3l1.8-1.5c0.2-0.2,0.5-0.3,0.8-0.3c0.4,0,0.7,0.2,1,0.4l0,0c0,0,0,0,0,0l0.2,0.2
			c0.4,0.5,0.4,1.3-0.2,1.8c0,0-7.2,6-7.5,6c-0.9,0.4-1.8,0.6-2.8,0.6c-0.6,0-1.2-0.1-1.8-0.3C116.1,136.3,110.2,141.9,104.3,145.5z
			 M132.7,260.5c-0.8,0.7-2.9,1.8-5.3,1.8c-1.3,0-2.7-0.3-4.1-1.2c-1.5-0.9-2.7-2.4-2.9-4.8c1.6,1.7,4.3,2.9,7.2,2.9
			c0,0,0.1,0,0.1,0c3,0,5.6-1.3,7.1-2.9C134.8,258,134,259.5,132.7,260.5z M134.7,253.8c0,0.1,0,0.3,0.1,0.4
			c-0.8,1.8-3.6,3.7-6.9,3.7c0,0-0.1,0-0.1,0c-3.1,0-6.1-1.5-7.1-3.5c0,0,0,0,0,0c0,0,0,0,0-0.1l2.8-11c1.2,1.1,2.8,1.7,4.4,1.7
			c1.5,0,3-0.6,4.2-1.5L134.7,253.8z M131.7,242c-1,1.1-2.4,1.7-3.9,1.7c-1.6,0-3-0.7-3.9-1.8c0.3-0.7,0.9-1.2,1.5-1.6l-0.7-4.8
			l6.1-0.2l-0.5,4.8C130.9,240.7,131.4,241.2,131.7,242z M158.6,260.8c-0.8,0.7-2.9,1.7-5.2,1.7c-1.3,0-2.7-0.3-4-1.2
			c-1.4-0.9-2.7-2.4-2.8-4.8c1.5,1.7,4.1,2.9,7,2.9c3.2,0,6-1.7,7.3-3.6C160.9,258,160,259.7,158.6,260.8z M160.5,254
			c-0.1,0.1-0.2,0.2-0.3,0.3c-0.7,1.9-3.4,3.9-6.7,3.9c-3,0-5.7-1.4-6.7-3.4c0-0.1-0.1-0.1-0.1-0.1c0,0,0,0,0-0.1l2.8-10.9
			c1.2,1.1,2.7,1.7,4.3,1.7c1.5,0,3-0.6,4.2-1.6L160.5,254z M157.5,242.5c-1,1-2.3,1.7-3.9,1.7c-1.5,0-2.9-0.7-3.9-1.7
			c0.3-0.7,0.8-1.2,1.4-1.6l-0.8-5.5h6.2l-0.6,5.4C156.7,241.1,157.2,241.7,157.5,242.5z M163.2,203.1c-0.6,9.2-1.8,27.6-2,31h-14.4
			l-4.4-52.9h2c0.3,0,0.6-0.3,0.6-0.6c0-0.3-0.3-0.6-0.6-0.6h-6.8c-0.3,0-0.6,0.3-0.6,0.6c0,0.3,0.3,0.6,0.6,0.6h2l-4.4,52.9
			l-14.6,0.4c-0.4-3.5-2.5-22.3-3-40.5c-0.2-6.1-0.2-12.1-0.2-17.5c5.3-0.3,9.5-5,9.5-10.8c0-0.6-0.1-1.2-0.2-1.7
			c4,0.3,8.8,0.4,14.4,0.4c4.8,0,9.2-0.2,13-0.5c-0.1,0.6-0.2,1.1-0.2,1.7c0,2.9,1.1,5.6,3,7.7c1.8,1.9,4.3,3,6.9,3.2
			C163.7,186.4,163.5,197.3,163.2,203.1z M117.5,175.2c0-4.8,0.1-9,0.1-12.1c2.1,0.3,4.7,0.5,7.9,0.8c0.1,0.6,0.2,1.2,0.2,1.8
			C125.7,170.8,122,174.9,117.5,175.2z M163.8,175.3c-2.3-0.2-4.4-1.1-6-2.8c-1.8-1.8-2.7-4.3-2.7-6.8c0-0.6,0.1-1.2,0.2-1.8
			c3.4-0.3,6.3-0.6,8.5-0.9C163.9,166.2,163.9,170.5,163.8,175.3z M168.3,160.9c-2.5,0.5-12.8,2.3-27.1,2.3
			c-16.9,0-26.2-1.6-28.4-2.1l2.3-22.2c1.6-1.5,3.1-2.8,4.2-3.9c0.5,0.1,0.9,0.1,1.4,0.1c1.1,0,2.2-0.3,3.3-0.8l0,0
			c0.6-0.3,2.1-1.5,7.7-6.2c0.5-0.4,0.8-1,0.9-1.7c0.1-0.7-0.1-1.3-0.6-1.8l-0.2-0.2c0,0,0,0,0-0.1c-0.2-0.3-0.5-0.5-0.9-0.7
			c0-0.6-0.2-1.1-0.6-1.5l-0.2-0.2c0,0,0,0,0,0c-0.4-0.4-0.8-0.7-1.3-0.8c0-0.5-0.2-1-0.6-1.4l-0.2-0.2c-0.1-0.1-0.2-0.2-0.3-0.3
			l2.5-2.1c0,0,0.1-0.1,0.1-0.1c0.8-0.9,1-1.9,0.6-2.9c-0.4-1-1.4-1.6-2.5-1.6c-0.6,0-1.1,0.2-1.6,0.5c0,0,0,0,0,0l-7.4,6.2
			l-2.5,1.9l1.6-15.4c1.4-8.8,5.3-15.3,10.9-18.9c2.2,4,6.4,6.6,11,6.6c4.7,0,9-2.7,11.1-6.8c6.6,4.2,9.8,12.1,11.2,19.2
			L168.3,160.9z M190.6,169.1c-0.2,0.1-0.3,0.2-0.5,0.2c-0.3,0-0.7-0.2-0.9-0.5l-3.1-4l-0.2,0.1l2.7,6.6c0.2,0.5,0,1.1-0.5,1.3
			c-0.1,0.1-0.3,0.1-0.4,0.1c-0.4,0-0.8-0.2-0.9-0.6l-3.2-6.3l-0.2,0.1l1.7,8.3c0.1,0.5-0.2,1.1-0.7,1.2c-0.1,0-0.2,0-0.3,0
			c-0.4,0-0.9-0.3-1-0.8l-2.5-8l-0.3,0.1l0.2,7.2c0.1,0.5-0.3,1.1-0.8,1.2c-0.1,0-0.1,0-0.2,0c-0.5,0-1-0.3-1.1-1l-0.8-7.3
			c-0.2-0.4-0.3-1.2-0.8-1.2h0c-1.6,2-2.8,2.5-3.6,2.5c-0.5,0-0.9-0.2-1.1-0.4c-0.2-0.2-0.3-0.3-0.1-0.5c0.9-0.9,2.2-1.8,3-3.8
			c0.8-2.1,1-3.7,1.7-4.8l-10.8-36l-0.3-3.1l7.6-4.4c1.8,6.7,7.6,28.5,9.2,41.4c0.6,0.1,1.1,0.4,1.5,0.7c1.7,1.7,7.2,10,7.2,10
			C191.2,168.2,191,168.8,190.6,169.1z"/>
	</g>
</g>
</svg>
