<?xml version="1.0" encoding="utf-8"?>
<!-- Generator: Adobe Illustrator 23.1.0, SVG Export Plug-In . SVG Version: 6.00 Build 0)  -->
<svg version="1.1" id="Слой_1" xmlns="http://www.w3.org/2000/svg" xmlns:xlink="http://www.w3.org/1999/xlink" x="0px" y="0px"
	 viewBox="0 0 283.5 283.5" style="enable-background:new 0 0 283.5 283.5;" xml:space="preserve">
<style type="text/css">
	.st0{fill:#BC2839;}
	.st1{fill:#FCCDAD;}
	.st2{fill:#5F1C27;}
	.st3{fill:#FFFFFF;}
	.st4{fill:none;stroke:#231F20;stroke-linecap:round;stroke-linejoin:round;stroke-miterlimit:10;}
	.st5{fill:#231F20;}
	.st6{fill:#FFFFFF;stroke:#231F20;stroke-width:0.9462;stroke-linecap:round;stroke-linejoin:round;stroke-miterlimit:10;}
	.st7{fill:#26211B;}
	.st8{fill:#FAB991;}
	.st9{fill:#CBE2F4;}
	.st10{fill:#F9E8C4;}
	.st11{fill:#FAB056;}
	.st12{fill:#758461;}
	.st13{fill:none;stroke:#231F20;stroke-width:1.0703;stroke-linecap:round;stroke-linejoin:round;stroke-miterlimit:10;}
</style>
<path class="st0" d="M221.3,234.3c0,0-2.3,0.7-3.9,0.5s-4.4-0.2-4.4-0.2l-29.2-2.3l-1.1-8.4l-16.9-3.5l-2.5-12.6l0-18.4l-1.2-21.9
	l-0.6-8.6c0,0-0.2-9.1,12.4-8.3l17.1,2.1c0,0,5.1,5,8,4.6s5.2-0.6,5.6-1.5c0.4-0.9,2.6-5.1,2.6-5.1s7.6-2.4,8.9-2.4
	c1.4,0,11.1-0.8,13.2,5.1c2.1,6,1.2,15.1,1.2,15.1l0.2,29.3c0,0-1,17.3-1.2,18.6c-0.2,1.2-1.9,10.2-3.3,12.7
	S223.9,233.8,221.3,234.3z"/>
<path class="st1" d="M183.2,231.1h-3.1l-5.6-0.5l-5.5-1.8c0,0-2.9-1.6-3.6-3.1c-0.7-1.6-0.8-2.7-0.8-2.7l-0.9-1.4l-0.5-1.4l0.6-1
	l-0.6-2.1l-1.2-1.8c0,0-3.9-4.7,0-4.2c0,0,3.9,2,7,5.2c0,0,3.3,4.3,4.6,2.4c0,0,0.9-2,0-3.4c-0.9-1.4-2.1-4.1-2.3-4.3
	c-0.2-0.2-0.5-3.1,1.4-2.2c0,0,1.3,0.5,2.2,2.5c0.9,2,7.6,12.4,7.6,12.4L183.2,231.1z"/>
<path class="st1" d="M179.5,174.8l-5.7-1.7l0.6-2.5l5.4-17.3l4.9-13l1.6-1.7h1.1v1.7l-2,8.4l0,0.9l1,0l1.7,1.5l1,0.1h1.4l1,1.1
	l0.2,2.2l1.7-0.3c0,0,2.4,0.2,2.2,0.6c-0.2,0.4-0.1,1.9-0.1,1.9l-10.7,20.1L179.5,174.8z"/>
<path class="st2" d="M181,132.8l-5.2-3.5l-0.7-3l-0.2-1.7l-0.9-1.1l-2.9-1.9l-1.3-1.9l0.4-1.6l1.9-2.2c0,0,0.8-1,1.3-2.4
	c0.4-1.5,0.5-2.5,0.4-3.1s-0.4-1.6-0.4-1.6s-0.1-1.4,0.4-2.5c0.5-1,2.2-3.9,2.2-3.9s2.2-3.3,2.9-5c0.8-1.6,0.9-2.4,0.9-2.7
	s0-3.4,0.4-4.1c0.3-0.7,1.8-2.8,2.1-3.1c0.3-0.4,3.1-2.6,4.5-3c1.4-0.4,2.4-0.8,4.1-0.4c1.7,0.4,3.8,1.3,4.8,2.1
	c1,0.8,3.1,2.2,3.1,2.2l1.6-1.4l3.7-2.2c0,0,2.9-1.1,3.8-1.1c0.9,0,1.9-0.1,3.2,0.3c1.3,0.4,3.4,1.7,4.3,2.5c0.9,0.8,3.1,3,3.8,4
	s2.2,4.6,2.8,5.1c0.6,0.6,3.1,1.4,3.1,1.4s2.3,0.6,2.7,0.9s1.3,0.9,1.4,2.5c0,1.5-0.7,4.7-0.7,4.7s0.3,1.6,1.6,3.4s3.4,3.1,2.9,5.8
	s-1.4,4.9-1.4,4.9s-1.8,1.5-2.1,3c-0.3,1.5-0.6,2.9-0.2,4.5c0.4,1.6,1.5,3,0.9,4.6s-2.1,3.9-2.1,3.9l-1.4,1.5l-1.6,1.3l-2.1,0.8
	l-2.7,0.4l-4.4,0.2l-2.5,0.4l-1.8,1.1c0,0-1.4,0.5-2,0.5c-0.6,0-1.1,0-1.1,0l3-7.1c0,0,0.8-16.8,0.8-17.6c-0.1-0.7-0.5-7.9-0.8-9.4
	c-0.3-1.5-5.6-5.3-5.6-5.3l-12.7,1.7l-6.5,2.6l-3.9,2.9l-1.6,8.6L181,132.8z"/>
<path class="st1" d="M207.1,150.5c0,0-1.7,3.8-3.2,5.1c-1.5,1.4-4.7,2-4.7,2l-3.7-1l-5.1-6.1l0.1-4.5l-3-2.1l-4.7-7.1l-2-6.8
	l-0.8-6.6l-1.7-2l-1.8-3.6l0.5-2.3c0,0,1.5-1.4,1.7-1.5c0.2-0.1,1.4-0.5,1.4-0.5l0.7-4.4h1.6l3.6-1.6c0,0,1.5-0.6,1.5-1.8
	c0-1.2,0.4-1.5,0.6-1.6c0.2-0.1,3.6-1.2,3.6-1.2l5.5-1.6l3.2-1.4l1.3-2.6c0,0,2.8,0.3,3.1,0.3c0.2,0,6.5,1.5,6.5,1.5l2.6,1.6
	c0,0,1.4,1.2,0.9,3.1s-1.3,3.1-1.3,4.5c0,1.3,0,5,2.6,6.5c2.6,1.5,3,3.2,3.1,3.6c0,0.4-0.4,1-0.5,2.4c-0.1,1.4-0.4,1.8,0.5,2.6
	c0.9,0.8,2.1,1.1,2.1,1.1l2-0.3c0,0,1.2,0.1,1.6,1.3s0.3,1.9,0,3c-0.3,1.1-0.8,2.6-2.1,3.1c-1.3,0.4-6.7,2.5-6.7,2.5
	s-5.3,6.6-6.9,7.4c-1.6,0.8-2.7,2.4-2.7,2.4L207.1,150.5z"/>
<path class="st3" d="M207.2,122.6c0.1-0.3,0-0.6-0.2-0.8c-0.4-0.3-0.8-0.6-1.3-0.9c0,0,0,0,0,0c-0.7-0.6-1.4-1.3-2.1-1.9
	c-0.2-0.3-0.6-0.2-0.8,0c-0.2-0.5-0.9-1-1.3-1.3c-0.2-0.2-0.5-0.1-0.7,0.1c-0.1,0-0.1,0-0.2,0c0-0.1-0.1-0.3-0.1-0.4
	c-0.1-0.3-0.5-0.3-0.7,0c-0.6,1.4,0.5,3.3,1.6,4.2c0.1,0.1,0.3,0.2,0.4,0.2c1.2,1.3,3.4,1.9,5,1.9
	C207.4,123.6,207.6,122.9,207.2,122.6z"/>
<path class="st3" d="M189.9,119.1c-0.1-0.1-0.2-0.2-0.3-0.3c0,0,0,0,0,0c-0.1-0.9-0.8-1.7-1.6-2.3c-0.1-0.2-0.3-0.3-0.4-0.5
	c-0.2-0.2-0.4-0.2-0.7-0.2c-0.1,0-0.2,0-0.4,0.1c-0.1-0.2-0.3-0.4-0.5-0.6c-0.3-0.3-0.6-0.7-1.1-0.8c0,0,0,0-0.1,0
	c-0.1-0.1-0.2-0.2-0.3-0.2c0-0.1,0-0.2-0.1-0.4c0-0.3-0.5-0.3-0.6,0c-0.4,1.2-0.2,2.5,0.3,3.6c0.2,0.5,0.6,1,1.1,1
	c1.1,0.8,2.6,1.2,4,1.4C189.9,120.1,190.2,119.4,189.9,119.1z M186.2,117.6c-0.2-0.1-0.4-0.2-0.6-0.1c0,0-0.1-0.1-0.1-0.3
	c0.1,0.1,0.2,0.1,0.4,0.1c0.3,0,0.5-0.2,0.5-0.5c0,0,0,0,0,0c0.2,0.2,0.3,0.3,0.5,0.5C186.5,117.3,186.3,117.4,186.2,117.6z"/>
<polygon class="st2" points="209,112.9 206,114.3 200.7,114.6 199.5,113.8 200,112.9 201.6,112.5 "/>
<path class="st2" d="M190,113.1l-2-0.7l-4.2-3.5c0,0,1.7-0.5,2-0.9c0.2-0.3,0.7-0.5,0.7-0.5l1.2,1l1.7,1.1l0.7,2.6V113.1z"/>
<path class="st4" d="M180.6,151.2c-1.1,0-20.4-4.2-19.1,8.9s2.2,51.1,2.2,51.1"/>
<path class="st4" d="M183.6,222.6c0,0,1.7-43.4,1.7-45.2s-12-4.4-12-4.4l-6,41.1"/>
<path class="st4" d="M173.9,173c0,0,12.1-43,13.8-33.1l-4.2,18.8"/>
<path class="st4" d="M185.5,149.6c0,0,4-0.8,2.4,4.5c-0.2,0.6-0.3,1.2-0.5,1.9l-0.7,3.5"/>
<path class="st4" d="M188.6,151.2c0,0,2.9-0.6,3.3,2.1c0.4,2.6-2,7.2-2,7.2"/>
<path class="st4" d="M192.4,154.3c0,0,4.6-0.7,2.7,3.7c-1.9,4.4-9.8,18.4-9.8,18.4"/>
<path class="st4" d="M180.7,109.7c0,0-3.3,21.1,4.1,30.6"/>
<line class="st4" x1="190.5" y1="151.2" x2="190.5" y2="146.1"/>
<path class="st4" d="M206.7,143.8l0.4,6.8c0,0,23.1-9.1,23.1,8c0,15,3.4,60-5.4,73c-1.5,2.2-4.1,3.4-6.8,3.2l-34.3-2.5l-1-7.5
	c-0.2-1.2,0.8-2.3,2-2.2c7,0.3,27.4,0.8,28.7-3.6c1.6-5.3-0.7-41.8-0.7-41.8"/>
<path class="st4" d="M196.1,156.7c0,0,8.5,2.9,11-6.2"/>
<path class="st4" d="M187.5,134.8c0,0,4.1-0.1,6.9,5.8"/>
<path class="st4" d="M193.1,115.2c0.4,0.9,0.8,9-2.1,10.3c-2.9,1.3,1.7,4.8,2.4,4.8"/>
<path class="st4" d="M196.1,130.9c0,0,2.8-0.1,2.2-1.6"/>
<path class="st4" d="M200,117.3c0.5,0,6.2,1.7,7.6,5.5"/>
<path class="st4" d="M184.1,113.8c0,0,5,1.8,5.9,5.3"/>
<path class="st4" d="M183.2,231.1c0,0-16.3,1.2-18.6-7.3"/>
<path class="st4" d="M167.7,226c0,0-4.9-3.8-4.4-6.3"/>
<path class="st4" d="M168.2,223.5c0,0-5.2-3.3-4.9-6.3"/>
<path class="st4" d="M168.8,221.2c-0.4-0.7-9.3-6.9-8.3-8.8c1.1-2.2,3.2-1.3,6.3,1.7s6.6,7.1,7.1,3.9c0.6-3.2-3.2-6.7-2.8-8.1
	c0.4-1.4,2.7-1.4,3.9,1.3c1.2,2.8,6.4,11.9,7.7,12.7"/>
<path class="st4" d="M180,113.8c0,0-8,1.6-0.1,9.8"/>
<path class="st4" d="M181.4,133c-0.8-0.3-5.8-2.8-6.2-5.9c-0.4-3.1,0.3-2.7-2.3-4.3c-2.7-1.6-4.2-3.2-1.9-5.5s3.7-6.3,2.7-8
	c-1-1.7,1.2-5.3,4.1-9.2c2.9-3.9,2-5.9,2.3-8.5c0.3-2.7,7.2-11.9,16.1-5.1c8.9,6.8,7.1,13.3,0,15.4s-8.9,2-9,4.2s-4.9,3.2-5.6,3.2
	s-3.1,2.3-3.1,2.3"/>
<path class="st4" d="M183.7,108.9c0,0,6.3,6.1,6.3,3.7c0-3.6-4.1-4.8-4.1-4.8"/>
<path class="st4" d="M210.1,112.6c-0.1-0.1-9.9-0.7-10.5,1c-0.7,1.7,6,1.1,7.6,0.4C208.6,113.4,210.1,112.6,210.1,112.6z"/>
<path class="st4" d="M201.7,97.6c0,0,10.6,0.5,12.5,3.9c1.9,3.3-1.6,5.3-0.7,9.5c0.9,4.3,3.6,4.1,5,6.4c1.4,2.3-0.1,2.8,0,4.8
	c0.1,1.1,0.8,1.9,1.4,2.4c0.5,0.3,1.1,0.4,1.6,0.2c3-1,3.5,1.9,3.5,1.9c1.2,5-5.9,7-8.3,7.5c-0.5,0.1-1,0.4-1.3,0.9
	c-10.9,14.7-20.3,13.3-24.9,11.2c-1.9-0.9-3.6-2.7-3.6-2.7"/>
<path class="st4" d="M198.9,88.6c0,0,8.3-8.3,15.6-2.7c7.3,5.7,5.9,9,8.2,10.5s6.1,0.4,6.6,4.2c0.4,3.9-2.1,4,0.4,7.5
	c2.6,3.5,4.2,4.9,2.9,9.2s-3.3,3-3.3,7.6c0,4.7,2,4.3,0.8,7.5c-1.4,3.7-4.8,6.6-8.2,7.1s-6.6-0.2-8.9,1.2c-2,1.2-3.8,1.1-3.8,1.1"/>
<path class="st4" d="M199.5,90.2c0,0-8.4,1.2-8.5,3.3c-0.1,2.1,8.5-2.7,8.5-2.7"/>
<path class="st4" d="M201.4,92.7c-1.2,0.2-14.7,4.8-9.8,6.1C196.6,100.2,201.4,92.7,201.4,92.7z"/>
<path class="st4" d="M200,89.6c0,0,9.7-5.7,10.7-2C211.6,91.2,200,89.6,200,89.6z"/>
<path class="st4" d="M201.4,92.1c0,0,13.6-3.4,10.5,0.6S201.4,92.1,201.4,92.1z"/>
<ellipse class="st5" cx="186" cy="116.6" rx="1.1" ry="2"/>
<ellipse class="st5" cx="202.5" cy="120.1" rx="1.2" ry="2.2"/>
<path class="st4" d="M222.4,127c0,0-1.7,0.3-3,1.6c-0.4,0.4-0.8,0.9-1,1.6"/>
<path class="st4" d="M222.4,129.3c0,0-1.6-1.7-3-0.8"/>
<path class="st6" d="M171.9,138.2l-11.9-6.7l-5.9-3.3c-10.4,13-27.3,21.5-46.5,21.5c-31.6,0-57.2-23-57.2-51.4
	c0-28.4,25.6-51.4,57.2-51.4c31.6,0,57.2,23,57.2,51.4c0,5.1-0.8,10-2.3,14.6l4.7,12.6L171.9,138.2z"/>
<g>
	<path class="st5" d="M95.6,67.6h7.9l0.2-0.9c0.3-1,0.9-2.4,1.8-2.9c0.7-0.5,1.5-0.7,2.5-0.2c1.8,1.1,2.4,3.6,1.1,5.4
		c-0.1,0.2-0.3,0.3-0.4,0.5c-2,2-5.3,6.2-5.4,7.4c-0.1,1.2,0.1,6.2,0.1,6.2h7.1v-1.4c0-2.4,0.9-4.7,2.5-6.4c0.3-0.4,0.7-0.7,1.1-1.1
		c2.6-2.4,5.5-7.6,1.8-13.3c0,0-3.9-6.8-12.1-4.4C103.8,56.4,97.2,57.8,95.6,67.6z"/>
	<ellipse class="st5" cx="106.9" cy="90.7" rx="4" ry="4.2"/>
</g>
<g>
	<path class="st7" d="M74.4,103.9l-1.6-2.7L71,97.4l-0.8-2.6l-0.8-2.2l0.3-2.5l0.7-2.7l1.3-2.1l1.2-1.2l1.6-1.2l3.5-0.6l1.2-0.6
		l0.8-0.8l2.7-1.1l1.8,0.3c0,0,2.1,1.7,2.2,1.7c0.1,0.1,1.1,1.8,1.1,1.8l0.7,1l2.3,2l1.2,2.2l0.5,3.3L92,93.2c0,0-3.8-0.5-4.1-0.9
		s-5.3-0.5-5.3-0.5l-3.5,3l-2.5,2.9l-0.8,2.9l-1.2,3.4"/>
	<path class="st8" d="M81.2,115.7l0.5-3.1l0.1-5.2l-3-3l-0.8-1.1h-1.3l-2.2-2.1c0,0,0.8-2.8,0.9-3c0.1-0.2,3.8-4,3.8-4l2.7-2.6
		l2.4-3.2l3.1,1.4l2.8,2l1,1.5l0.9-0.7l0.9,0.8l0.8,2.2L93.4,97l-2.3,2.5l-0.3,3.1l-1.4,3.9l-0.9,1.1l0.8,3.1l1.2,3.7l1.4,1.5
		l-1.2,0.8l-4.3,0.2l-5.1-0.5L81.2,115.7z"/>
	<path class="st3" d="M80.8,97.7c-0.3,0.2-0.6,0.3-0.9,0.4c-0.1-0.1-0.2-0.1-0.3-0.1c-0.2,0-0.4,0-0.6,0c-0.3,0-0.4,0.4-0.2,0.6
		c0,0,0.1,0,0.1,0.1c0.3,0.3,0.8,0.4,1.2,0.4c0.6,0,1.1-0.2,1.6-0.5C82.2,98.2,81.4,97.3,80.8,97.7z"/>
	<path class="st3" d="M88.7,96.8c-0.4,0-0.8,0.2-1.2,0.3c-0.2,0-0.4,0.1-0.6,0.1c-0.2,0-0.3,0.1-0.5,0.2c-0.2,0.1-0.3,0.3-0.1,0.5
		c0.2,0.1,0.3,0.3,0.6,0.3c0.3,0.1,0.5,0.1,0.8,0c0.5,0,1.1-0.2,1.4-0.6C89.4,97.2,89.1,96.8,88.7,96.8z"/>
	<path class="st9" d="M76,140.7l-7-4.9l0.3-4.2l2-8.8c0,0,1.5-3.7,1.6-4c0.1-0.2,2.4-3.5,3-3.4c0.5,0.1,1.9,0,1.9,0l4,1.3h5.1
		l3.8-0.2l3.1-2l1.8-0.2l2.3,1.9l0.4,1.7l1.5,5l4.1,26.2l-5.2-0.6c0,0-0.4-0.8-0.6-1.1c-0.1-0.3-2.5-10-2.5-10l-1,0.6l0.8,9.7
		l-0.5,0L91,147l-5-1.6l-5.4-2.4l-1.4-0.8l0.2-3.2l-2.4-2.1l-0.7,2L76,140.7z"/>
	<path class="st10" d="M125.9,114.3l0-5.5l-2-2.3l-2.5-4.2l-1.1-2.6l-2.2-2.7c0,0-0.3-0.6,0.5-0.8c0.8-0.2,2-0.1,2-0.1l2.8-5.7
		l1.4-1.2l0.1,0.9l3.5-0.9l3.2-0.8l2.3,0.6c0,0,1.4,1.4,1.7,2s1.6,4.9,1.6,4.9l0.7-0.7l1.5,0.4l1,1.5c0,0-0.9,2.6-2.9,4.3l-3.5,5.2
		l-1.4,1.4l0.5,4.8l1.1,4l-0.8,0.5l-2.5,0.2l-1.6-0.3l-3.4-1.8L125.9,114.3z"/>
	<path class="st10" d="M115,148.7c0,0-3.9,0.7-5.2,0.4c-0.7-0.2,0-2,0-2l1.1-7.1l0.9-4.8l1.8,0.5c0,0,1.6,0.8,1.8,0.9
		s1.9,0.2,1.9,0.2l-0.7,3.9l-1.1,7.1L115,148.7z"/>
	<path class="st10" d="M141.1,139.3l3.8-2.7l-0.2-3.4l-0.4-2.4l-4.8,1.1c0,0-0.2,0.4-0.2,0.5c0,0.1,0.7,2.8,0.7,2.8
		c0,0,0.5,3.5,0.6,3.5c0,0.1,0.1,0.8,0.1,0.8L141.1,139.3z"/>
	<path class="st11" d="M140.2,95.6l-2.4-0.7l-0.3,0.7l-0.8-1.7l-1.5-4.3l-1.4-0.9l-2.3-0.4l-3.2,0.6l-3.5,0.9l-0.1-0.9l-1.8,2
		l-2.3,5h-1.5l-0.8-0.6l0.3-5.7c0,0,0.9-3.2,1-3.4c0.1-0.1,1.8-2.2,1.8-2.2s1.9-1,2.3-1.1c0.4-0.1,2.8-0.2,3.2-0.1
		c0.3,0,2.2,0.2,2.2,0.2l0.3,0.3l2.5-2.6l0.5-0.1l-0.2,2.5l0.3,0.7l3.2-0.7l-1.1,1.2l0.8,0.5c0,0,1.9,0.3,2.5,0.7
		c0.6,0.4,1.4,0.9,1.7,1.4s0.9,2,0.9,2.6c-0.1,0.7,0,5.1,0,5.1L140.2,95.6z"/>
	<path class="st3" d="M125.6,96.4c-0.2-0.3-0.6-0.3-0.8-0.1c-0.2,0.1-0.4,0.2-0.6,0.4c0,0,0,0,0,0.1c-0.1-0.2-0.2-0.3-0.4-0.3
		c-0.3-0.1-0.5-0.1-0.8-0.1c-0.4,0-0.7,0.5-0.3,0.8c0.2,0.2,0.5,0.2,0.7,0.4c0.2,0.1,0.6,0,0.7-0.2c0,0,0,0,0-0.1
		c0.1,0.1,0.3,0.2,0.5,0.2c0.3,0,0.6-0.1,0.9-0.2C125.7,97.1,125.7,96.7,125.6,96.4z"/>
	<path class="st3" d="M131.7,96.7c-0.3-0.1-0.6-0.2-0.9-0.1c-0.3,0-0.4,0.4-0.2,0.6c0.2,0.2,0.5,0.3,0.8,0.5c0.2,0.1,0.4,0,0.6-0.1
		c0.1-0.1,0.2-0.2,0.2-0.4C132.1,96.9,131.9,96.7,131.7,96.7z"/>
	<path class="st3" d="M133.4,96.4c-0.4,0-0.7,0.2-1,0.5c-0.3,0.3,0,0.8,0.4,0.7c0.4-0.1,0.8-0.1,1-0.5
		C134,96.8,133.8,96.5,133.4,96.4z"/>
	<path class="st12" d="M118.7,148.2l-0.7-12.2l-0.8,0.9l-1.9-0.2l-4.8-2.9l2-9.6l2.7-7.1l3.3-3.6c0,0,1.5-1.1,1.9-0.8
		c0.4,0.2,2.9,0.8,2.9,0.8l2.4,1.8l2.9,1.6l3.5,0.5l2.8-0.6l2.5-2.5l3.4-1.6l2.2,0.5l1.6,2.1l1.6,7.8l0.3,4.2l-0.7,3l-0.8,0.7
		l-5.7,1l1.5,7.7c0,0-6.6,4.2-10.4,5.4c0,0-5.7,2-7.7,2.4L118.7,148.2z"/>
	<path class="st13" d="M119.7,128.8c0,0-0.6,6.5-2.1,7.8c-1.2,1.1-4-0.9-5.4-1.6c-0.8-0.4-1.4-0.7-1.4-0.7s1.8-24.6,11.9-21.2
		c0.7,0.2,1.3,0.6,1.8,1.1c1.5,1.3,5.4,4.3,9.4,2.7c0.8-0.3,1.5-0.9,2.1-1.5c1.4-1.4,5.2-4.6,7.7-1.6c0.6,0.6,0.9,1.4,1.1,2.3
		c0.8,3.4,3.3,15.1-0.3,14.6l-6.7,1.4l-1.2-7.6"/>
	<line class="st4" x1="109.4" y1="149.4" x2="111.7" y2="135.2"/>
	<line class="st4" x1="115.2" y1="149.1" x2="117.2" y2="136.9"/>
	<line class="st4" x1="118.1" y1="135.9" x2="118.6" y2="148.6"/>
	<line class="st4" x1="139.2" y1="131.8" x2="140.8" y2="139.9"/>
	<line class="st4" x1="144.5" y1="130.7" x2="145.3" y2="136.7"/>
	<path class="st4" d="M125.7,115.2c0,0,1.3-5.4-0.1-7.1"/>
	<path class="st4" d="M134,116.6c-0.3-0.6-2.2-6.7-1.4-8.5"/>
	<path class="st4" d="M125.7,103c0,0,1.5,1.8,4.9,0.4"/>
	<path class="st4" d="M127.2,105.8c0,0,1.1,0.8,2.3,0"/>
	<path class="st4" d="M118.6,96.1c0.1-0.4-3-16.7,11-12.7c0,0,2-2.6,2.8-3.1c0,0-0.6,2.8,0,3.3c0,0,2.5-0.6,3.8-0.6
		c0,0-1.7,0.8-1.6,1.3s5,0,5.6,4c0.6,4,0,7.7,0,7.7"/>
	<path class="st4" d="M120.6,95.9c0,0,2.3-6.4,4.1-7V90c0,0,7.1-2.8,9.3-1.1c2.2,1.7,3.1,6.7,3.1,6.7l0,0c0.6-0.5,1.5-0.7,2.2-0.3
		c3.1,1.6-2.3,6.1-2.3,6.1c-4.8,9.2-8.8,8.9-11.7,6.3c-3.1-2.8-4.9-8.2-4.9-8.2c-4.6-4.6,0-3.6,0-3.6"/>
	<path class="st4" d="M122.8,93.1c0,0,2.5-0.9,3.5,0"/>
	<path class="st4" d="M130.2,93.5c0,0,2-1.2,4.2,0"/>
	<path class="st4" d="M130.7,96.6c0.1,0,1.5-1,3.1,0"/>
	<path class="st4" d="M122.5,96.5c0,0,1.7-0.9,2.9-0.1"/>
	<path class="st4" d="M126.8,93.9c0,0,1.4,4.6,0.4,5.5c-1.1,1,2.3,0.7,2.3,0.7"/>
	<circle class="st5" cx="124.1" cy="96.8" r="0.8"/>
	<circle class="st5" cx="132.2" cy="97.1" r="0.8"/>
	<path class="st4" d="M69,136.1c0,0,1.5-23.7,9.8-20.3c0,0,10.2,2.4,13.9-0.6c0,0,4.6-4.3,6.5,4.6c1.9,8.9,4.9,29.4,4.9,29.4"/>
	<line class="st4" x1="77.8" y1="127.2" x2="76" y2="140.7"/>
	<path class="st4" d="M76.8,136.4c0,0,2.4,3.1,4.6,3.4"/>
	<path class="st4" d="M96.2,132.3c0,0,1.1,4.6-2.6,6.1"/>
	<line class="st4" x1="95.4" y1="137.5" x2="98.3" y2="148.6"/>
	<path class="st4" d="M94.6,137.8c0,0,0.2,8.5,1,10.3"/>
	<path class="st4" d="M78.9,138.5c0,0,0.5,3,0.2,3.9"/>
	<path class="st4" d="M81.8,107.3c0,0,0.3,8.4-1.2,8.9"/>
	<path class="st4" d="M88.7,107.3c0,0.1,1,7.6,3,8.1"/>
	<path class="st4" d="M74.6,100.8c0,0,1.4,3,3.3,2.6c0,0,6.3,9.3,11,3.7c0.8-1,1.3-2.1,1.5-3.4c0.3-1.5,0.7-3.6,0.6-4.1
		c-0.1-0.7,3.5-2.3,2.6-4.8c-0.9-2.5-1.9-2.5-2.5-1.4"/>
	<path class="st4" d="M84.9,84.8c0,0,0.4,5-6.1,9.6s-4.1,10.1-4.1,10.1s-11.2-15.4-0.6-21.2c1.8-1,3.8-1.3,5.8-1.2
		C82.2,82.2,84.8,82.9,84.9,84.8z"/>
	<path class="st4" d="M84.5,83.3c0,0,8.4,1.3,8,9"/>
	<path class="st4" d="M84.6,88.4c0,0,5.8,2.7,6.1,4.3"/>
	<path class="st4" d="M79.1,81.8c0,0,4.6-5.5,9,2.4"/>
	<path class="st4" d="M78.9,94.9c0,0,2.3-0.4,2.8,0"/>
	<path class="st4" d="M84.9,94.4c0,0,3.7-0.4,4.8,0"/>
	<path class="st4" d="M83.2,95.6c0,0,0.6,4.6,0.1,5.2c-0.5,0.7,2.3,0.3,2.3,0.3"/>
	<path class="st4" d="M82.9,103.6c0,0,1.7,1.6,4.5,0"/>
	<path class="st4" d="M84.1,105.9c0,0,1.6,0.6,2.4-0.2"/>
	<path class="st4" d="M86.2,97.4c0,0,1.1-1.4,3.1-0.6"/>
	<path class="st4" d="M78.6,98.3c0,0,1.3-1.7,3.2-0.5"/>
	<circle class="st5" cx="80.4" cy="98.3" r="0.9"/>
	<circle class="st5" cx="87.7" cy="97.5" r="0.8"/>
</g>
</svg>
