<?xml version="1.0" encoding="utf-8"?>
<!-- Generator: Adobe Illustrator 22.1.0, SVG Export Plug-In . SVG Version: 6.00 Build 0)  -->
<svg version="1.1" id="Слой_3" xmlns="http://www.w3.org/2000/svg" xmlns:xlink="http://www.w3.org/1999/xlink" x="0px" y="0px"
	 viewBox="0 0 512 512" style="enable-background:new 0 0 512 512;" xml:space="preserve">
<style type="text/css">
	.st0{fill:#FFD56E;stroke:#000000;stroke-width:2;stroke-linecap:round;stroke-linejoin:round;stroke-miterlimit:10;}
	.st1{fill:#FDCD95;stroke:#000000;stroke-width:2;stroke-linecap:round;stroke-linejoin:round;stroke-miterlimit:10;}
	.st2{fill:#816164;stroke:#000000;stroke-width:2;stroke-linecap:round;stroke-linejoin:round;stroke-miterlimit:10;}
	.st3{fill:#EB8F30;stroke:#000000;stroke-width:2;stroke-linecap:round;stroke-linejoin:round;stroke-miterlimit:10;}
	.st4{fill:#B8E585;stroke:#000000;stroke-width:2;stroke-linecap:round;stroke-linejoin:round;stroke-miterlimit:10;}
	.st5{fill:#315164;stroke:#000000;stroke-width:2;stroke-linecap:round;stroke-linejoin:round;stroke-miterlimit:10;}
	.st6{fill:#FFF35C;stroke:#000000;stroke-width:2;stroke-linecap:round;stroke-linejoin:round;stroke-miterlimit:10;}
	.st7{fill:none;stroke:#000000;stroke-width:2;stroke-linecap:round;stroke-linejoin:round;stroke-miterlimit:10;}
	.st8{fill:#FFFFFF;}
	.st9{fill:#472B25;stroke:#000000;stroke-width:2;stroke-linecap:round;stroke-linejoin:round;stroke-miterlimit:10;}
	.st10{fill:#FFFFFF;stroke:#000000;stroke-width:2;stroke-linecap:round;stroke-linejoin:round;stroke-miterlimit:10;}
	.st11{fill:#FCE0C5;stroke:#000000;stroke-width:3;stroke-linecap:round;stroke-linejoin:round;stroke-miterlimit:10;}
	.st12{fill:none;stroke:#000000;stroke-width:3;stroke-linecap:round;stroke-linejoin:round;stroke-miterlimit:10;}
	.st13{fill:#B5D758;stroke:#000000;stroke-width:3;stroke-linecap:round;stroke-linejoin:round;stroke-miterlimit:10;}
</style>
<g>
	<path class="st0" d="M288,132c0,0-44-2.7-39.3,75.3s1,83.3,1,84.7c0,1.3,7.6,32.3,7.6,32.3l48.5-27.3l25.2-13.7
		c0,0,16,13.3,28.7,4.7c12.7-8.7,22.7-34.7,18.3-57s-4.7-49.5-5.7-54.3C371.4,171.7,354,94.3,288,132z"/>
	<path class="st1" d="M125.8,139.2c0.4,1.2,0,49.1,0,49.1l-28.6,2.4v-5.2l1.6-47.2L125.8,139.2z"/>
	<polygon class="st2" points="148.6,378.6 145,448.4 50.2,451.1 60.8,374.8 131.5,374.8 	"/>
	<path class="st3" d="M354,363.8l17.1,57.8c0,0-73.6,27.9-101.5-8.8l12.6-51.7L354,363.8z"/>
	<path class="st4" d="M125.9,177.9c0,0-9.1,3.8-28.8-0.3c0,0-47.7,3.1-46.9,25.6c0.8,22.6,3.8,75.6,8.1,79.5s0,101.5,0,101.5
		s35.8,40,94.2,0l13.8-113.4l30-15.8l-4.6-39.6C191.8,215.5,146.8,177.7,125.9,177.9z"/>
	<path class="st1" d="M287.2,319.4c0,0-16.7,13.4-30.7,11.6c0,0-0.5-10.3-0.4-10.8c0.1-0.4,12.3,0.7,21.1-10.8l10,7.2V319.4z"/>
	
		<rect x="125.8" y="215.5" transform="matrix(-1 -4.490198e-11 4.490198e-11 -1 384.5884 581.3938)" class="st5" width="133" height="150.3"/>
	<g>
		<path class="st6" d="M304.4,268.2l-25.7,28.5l-3.5,3.9c0,0-3.1,15.2,16.6,20.3l16.9-33.1L304.4,268.2"/>
		<path class="st7" d="M293.2,316.2c0,0-11.6,0-14.5-19.4"/>
	</g>
	<path class="st6" d="M327.1,260.7c0,0,18.4,6.4,23.6,20.2c5.8,15.4,5.3,86.8,5.3,86.8s-29.9,15.7-76.1,0l17.3-87.3
		c2.1-10.8,11.3-18.7,22.3-19.4L327.1,260.7z"/>
	<path class="st7" d="M319.3,305.6l24.9,12.6c0,0,12.7-27.6,5.9-38.6c-2.9-4.7-9.2-4.3-13-0.4C330.2,286.2,320.5,301.3,319.3,305.6z
		"/>
	<path class="st7" d="M346.3,312.9c0,0-14.8-3.7-24.2-13.2"/>
	<path class="st1" d="M340.7,316.4c0,0-10.7,23.3-25.9,30.6c-4,1.9-8.6,2.3-12.9,1.3c-5.9-1.4-18.3-3.7-25.2-1.3
		c-9.3,3.3-13.8,13.8-26.1,4.5c0,0-3.8-2.1-1.5-4.1c0,0-10.2-6.1-3-6.5c0,0-8.3-7.4,1.1-6.5c0,0-3.9-7.7,7.1-0.2
		c0.7,0.5,1.5,0.7,2.3,0.8c3.7,0.2,13.3,0.4,5.3-5.1c0,0-5.8-5.1,4.3-2c10.1,3,11.3,4.6,17,1.9c5.6-2.7,22.9-2.2,24.3-3.1
		c1.5-0.9,15.5-19.1,15.5-19.1L340.7,316.4z"/>
	<path class="st7" d="M314,328c0,0-4.1-1.4-8.9-1.1"/>
	<path class="st7" d="M247.1,334.3c0,0,9.9,6.6,11.7,7"/>
	<path class="st7" d="M246,340.8c0,0,9.8,4.5,11.4,4.7"/>
	<path class="st7" d="M249,347.3c0,0,5.3,2.6,7.1,2.7"/>
	<path class="st7" d="M58.3,282.8c24.7,1.5,30.5-11.4,30.5-11.4l-12.6-35.1"/>
	<path class="st7" d="M127.4,408.8c0,0-13.5,4.4-19.8,40.7"/>
	<ellipse class="st1" cx="258.7" cy="252.2" rx="12.7" ry="4.9"/>
	<ellipse class="st1" cx="257.9" cy="262.6" rx="12.7" ry="4.9"/>
	<ellipse class="st1" cx="257.7" cy="272.8" rx="12.7" ry="4.9"/>
	<ellipse class="st1" cx="256.1" cy="282.4" rx="10.9" ry="4.3"/>
	<path class="st1" d="M199.9,369.2c0,0-32.4,20.4-62.7,1.2c0,0-65.5-43.7-74.1-87.5c0,0,20.6-1.1,23.8-8.7c0,0,16.4,58.3,60.3,78.8
		c0,0,11.8,3.6,20.7,2.3c21.1-3.2,7.2,3.6-1.8,9.4C157.1,370.5,199.9,369.2,199.9,369.2z"/>
	
		<ellipse transform="matrix(0.9941 -0.1082 0.1082 0.9941 -20.1143 40.0224)" class="st1" cx="358.9" cy="205.4" rx="5.4" ry="12.1"/>
	<path class="st1" d="M311.9,246.9c0.3,1.4-2.3,18.4-2.3,18.4s12.5,12.5,27.5,1.7L337,250L311.9,246.9z"/>
	<ellipse transform="matrix(0.9313 -0.3643 0.3643 0.9313 -60.8 115.6608)" class="st1" cx="276.2" cy="219" rx="9.8" ry="12.5"/>
	<path class="st1" d="M358.1,198.2c1.3,29.8-9.4,55.2-33.1,57.8c-23.2,2.5-44.7-17.2-51.3-45.3c3.4-3.7,7.7-9.9,7.5-17.7
		c0,0,35.7,8.2,48.5,0c0,0-6.7-3.5-8-6s16.2,0.3,22-9.3l10.5,27.3C354.3,205,356.2,202.5,358.1,198.2z"/>
	<path class="st0" d="M358.1,198.2c-1.9,4.3-3.8,6.9-3.8,6.9l-10.5-27.3c-5.8,9.6-23.4,6.8-22,9.3s8,6,8,6c-12.8,8.3-48.5,0-48.5,0
		c0.2,7.8-4.2,14-7.5,17.7c-2.1,2.3-3.9,3.6-3.9,3.6l-7.3-16c-4.8-8.1-7.2-16.5-5.5-25.8c4.5-24.6,26.4-27.2,26.4-27.2
		c38.7-33.8,67.5,1.8,67.5,1.8C367.8,167.7,362.7,187.9,358.1,198.2z"/>
	<path class="st7" d="M279.3,176.8c0,0,2.1,13.3,2,16.1"/>
	<path class="st7" d="M305.8,171c0,0,11.5,16.5,17.6,14.9"/>
	<path class="st7" d="M322.5,160.2c0,0,7.7,15.1,21.3,17.5"/>
	<path class="st7" d="M290.3,148.6c0,0,55.9-28.9,66,32.9"/>
	<path class="st7" d="M277.1,156.7c0,0-21,9.9-7.2,57.5"/>
	<ellipse transform="matrix(0.9941 -0.1082 0.1082 0.9941 -21.2407 33.7434)" cx="300.4" cy="212.7" rx="4.5" ry="7.8"/>
	<g>
		<path d="M288.1,210.4c1.1-0.2,2.2-0.4,3.3-0.7c1.1-0.3,2.1-0.7,3.1-1.1c1-0.4,1.8-1.2,2.8-1.6c1-0.4,1.9-1,3-1.4l0,0
			c0.1,0,0.1,0,0.1,0.1c0,0,0,0,0,0.1c-0.4,1.2-1.2,2.2-2.1,2.9c-0.9,0.8-2.1,1.1-3.3,1.4c-1.1,0.3-2.3,0.5-3.4,0.6
			c-1.2,0.1-2.3,0.1-3.4,0C288,210.6,288,210.5,288.1,210.4C288,210.4,288,210.4,288.1,210.4L288.1,210.4z"/>
	</g>
	<path class="st7" d="M302.9,202.9c0,0-11.1-4.1-14.5,4.6"/>
	<ellipse transform="matrix(0.9941 -0.1082 0.1082 0.9941 -20.5083 37.5072)" cx="335.5" cy="207.8" rx="4.5" ry="7.8"/>
	<g>
		<path d="M347.2,203.1c-1.1,0.4-2.2,0.6-3.3,0.8c-1.1,0.2-2.3,0.2-3.5,0.1c-1.2-0.1-2.4-0.1-3.5-0.7c-1.1-0.5-2.1-1.3-2.7-2.4
			c0-0.1,0-0.1,0-0.1c0,0,0,0,0.1,0l0,0c1.2,0.2,2.2,0.5,3.3,0.7c1,0.2,2,0.7,3,0.9c1.1,0.2,2.1,0.4,3.2,0.5c1.1,0.1,2.2,0.1,3.3,0
			l0,0c0.1,0,0.1,0,0.1,0.1C347.2,203.1,347.2,203.1,347.2,203.1z"/>
	</g>
	<circle class="st8" cx="335.4" cy="206.9" r="1.8"/>
	<circle class="st8" cx="300.8" cy="210.7" r="1.8"/>
	<path class="st7" d="M331,198.8c0,0,10-6.4,15.2,1.4"/>
	<path class="st7" d="M316.1,221.8c0,0,6.1-4.2,9.8-1.1"/>
	<path class="st7" d="M309.4,234.6c0,0,18.8,19.4,25.9-4.7"/>
	<path class="st9" d="M142.3,124.7l1.9,18.6c0,0,12.9-9.8,12.6-14.8l2.6,8.6c0,0,12.9-9.8,15.3-28.1c0,0,5.2,7.6,5,11.2
		c0,0,24.6-93.2-63.9-98c0,0-6.7-3.8-9.4-6.8c-0.5-0.6-1.5-0.4-1.8,0.3c-0.8,2.2-2.1,5.2-4.1,6.7c-3.3,2.4-28.3-3.6-47.6,38.4
		c0,0-16.9,37.4,2.6,64.8l6.2-9.8c0,0,3.3,16.9,5.2,19.3l4.1-6.2l7.2,12.9l6-11.9l14.6,1.5l18.3,4.2l17.5-5L142.3,124.7z"/>
	<ellipse transform="matrix(0.2703 -0.9628 0.9628 0.2703 19.1928 226.4161)" class="st1" cx="159" cy="100.5" rx="10.8" ry="6.8"/>
	<ellipse class="st1" cx="65.1" cy="97.1" rx="6.8" ry="10.8"/>
	<path class="st1" d="M63.5,96.2c0,26.1,21.1,55.1,47.2,55.1c26.1,0,49.2-29.3,49.2-55.4c0-2.1-0.1-4.1-0.4-6
		c-0.9-6.4-3.4-11.8-7-16.3c-4.5,4.3-8.6,8.3-8.6,8.3s-0.1-15.4,1.1-21.6c-0.3-0.2-11.3,15.9-11.3,15.9s-8.6-6.9-8.6-11.2
		c0,0-6.7,11.7-9.6,11.4c-2.4-0.2-5.4-12.5-5.3-19.5c-0.3,0-4.1,18.5-6.8,21.2c-2.7,2.6-10.7-10-14.6-17.5
		c-1.2,0.4-7.3,14.3-7.6,15.4c-0.2,1-4.3-2.2-7.6-5.8c-3.9,4-6.8,8.8-8.4,14.5C64.1,88.1,63.5,92,63.5,96.2z"/>
	<ellipse cx="131.9" cy="95.3" rx="4.3" ry="8.9"/>
	<circle class="st8" cx="131.9" cy="94.6" r="2.7"/>
	<path class="st7" d="M140.8,89.7c0,0-7.5-5.9-15-1.1"/>
	<ellipse cx="94.5" cy="95.1" rx="4.3" ry="8.9"/>
	<circle class="st8" cx="94.5" cy="94.4" r="2.7"/>
	<path class="st7" d="M85.6,89.6c0,0,7.5-5.9,15-1.1"/>
	<path class="st7" d="M118.8,107.1c0,0-5.4-4.1-10.7,0"/>
	<path class="st7" d="M129.2,123.2c0,0-18.8,19.4-32-1.1"/>
	<path class="st7" d="M146.4,83.7c0,0-11.2-10.5-24.1-3.8"/>
	<path class="st7" d="M104.2,79.2c0,0-11.4-6-22.2,1.5"/>
	<path class="st7" d="M55.3,271.2c0,0,9.5-8.1,30.3-9"/>
	<path class="st10" d="M97.2,174.6c0,0-13.5,9.3-19.1,17.6l36.5-7.3c0,0,30.8,5.9,33.3,5.2c2.2-0.6-10-9.7-21.9-15.4
		C125.9,174.6,111.6,184.2,97.2,174.6z"/>
</g>
<g>
	<path class="st11" d="M313.9,419.9c0,0-2.8,4.1,1.3,13c4.1,8.9,11.8,29.3,13,32.8c1.2,3.6,14.8,9.9,32.2,11.9s48.3,12.2,48.3,12.2
		l13.6,0.8l34.3-47c0,0-37.1-14.6-44.2-25.3c-7.1-10.7-23.7-31.5-28.5-26.1c0,0-16.1-18.8-23.9-6.1c0,0-10-7.8-24.7,6.9
		c0,0-6.9,8.6-31.7-7.8c-4.6-3-9.3-5.8-14.2-8.2c-11.7-5.6-28.5-11.9-19.6,3.8C282.8,403.9,313.9,419.9,313.9,419.9z"/>
	<path class="st12" d="M367.8,393.5c0,0-4.2-5.7-7.9-7.3"/>
	<path class="st12" d="M386,399.5c0,0-0.6-5.4-2.3-7.2"/>
	<path class="st12" d="M335.8,452.4c0,0-7.6-26.5-21.9-32.5"/>
	<path class="st13" d="M406.7,506.8c0,0,10-56.7,57.4-69.8l105.2,66.6l-45.4,55.2L406.7,506.8z"/>
</g>
</svg>
