<?xml version="1.0" encoding="utf-8"?>
<!-- Generator: Adobe Illustrator 23.1.0, SVG Export Plug-In . SVG Version: 6.00 Build 0)  -->
<svg version="1.1" id="Слой_1" xmlns="http://www.w3.org/2000/svg" xmlns:xlink="http://www.w3.org/1999/xlink" x="0px" y="0px"
	 viewBox="0 0 283.5 283.5" style="enable-background:new 0 0 283.5 283.5;" xml:space="preserve">
<style type="text/css">
	.st0{fill:#808184;stroke:#231F20;stroke-width:1.2133;stroke-miterlimit:10;}
	.st1{fill:#D0D2D3;stroke:#231F20;stroke-width:1.2133;stroke-miterlimit:10;}
	.st2{opacity:0.5;fill:#58595B;stroke:#231F20;stroke-width:1.2133;stroke-miterlimit:10;}
	.st3{fill:#231F20;}
	.st4{fill:#BC2939;}
</style>
<circle class="st0" cx="146.2" cy="127.5" r="93.6"/>
<circle class="st1" cx="146.2" cy="127.5" r="77.2"/>
<circle class="st2" cx="146.2" cy="127.5" r="6.7"/>
<g>
	<path class="st3" d="M79.8,134.7c0.3,0,0.7,0,1.2-0.1c0.9-0.1,1.7-0.5,2.4-1.1c0.7-0.7,1.3-1.7,1.5-3h-0.1
		c-0.6,0.8-1.5,1.2-2.7,1.2c-2,0-3.3-1.5-3.3-3.4c0-2.1,1.5-4,3.8-4s3.7,1.9,3.7,4.7c0,2.5-0.8,4.2-1.9,5.3
		c-0.9,0.8-2.1,1.4-3.3,1.5c-0.6,0.1-1,0.1-1.4,0.1V134.7z M80.4,128.2c0,1.4,0.8,2.4,2.2,2.4c1,0,1.8-0.5,2.2-1.2
		c0.1-0.1,0.1-0.3,0.1-0.6c0-1.9-0.7-3.4-2.3-3.4C81.3,125.5,80.4,126.6,80.4,128.2z"/>
</g>
<g>
	<path class="st3" d="M142.4,62.3L142.4,62.3l-2,1.1l-0.3-1.2l2.5-1.3h1.3v11.3h-1.5V62.3z"/>
	<path class="st3" d="M147.9,72.2v-0.9l1.2-1.2c2.9-2.7,4.2-4.2,4.2-5.9c0-1.1-0.6-2.2-2.2-2.2c-1,0-1.9,0.5-2.4,1l-0.5-1.1
		c0.8-0.7,1.9-1.1,3.2-1.1c2.4,0,3.4,1.7,3.4,3.3c0,2.1-1.5,3.8-3.9,6l-0.9,0.8v0h5.1v1.3H147.9z"/>
</g>
<g>
	<path class="st3" d="M181.8,73.3L181.8,73.3l-1.9,1l-0.3-1.1l2.4-1.3h1.3v11h-1.4V73.3z"/>
</g>
<g>
	<path class="st3" d="M198.9,104.2v-0.9l1.2-1.1c2.8-2.7,4.1-4.1,4.1-5.7c0-1.1-0.5-2.1-2.2-2.1c-1,0-1.8,0.5-2.3,0.9l-0.5-1
		c0.8-0.6,1.8-1.1,3.1-1.1c2.4,0,3.4,1.6,3.4,3.2c0,2-1.5,3.7-3.8,5.9L201,103v0h4.9v1.2H198.9z"/>
</g>
<g>
	<path class="st3" d="M207.6,133.9c0.4,0.3,1.4,0.7,2.4,0.7c1.9,0,2.5-1.2,2.5-2.1c0-1.5-1.4-2.2-2.8-2.2h-0.8v-1.1h0.8
		c1.1,0,2.5-0.6,2.5-1.9c0-0.9-0.6-1.7-1.9-1.7c-0.9,0-1.7,0.4-2.2,0.7l-0.4-1.1c0.6-0.4,1.7-0.8,2.9-0.8c2.2,0,3.1,1.3,3.1,2.6
		c0,1.1-0.7,2.1-2,2.6v0c1.4,0.3,2.5,1.3,2.5,2.8c0,1.8-1.4,3.3-4,3.3c-1.2,0-2.3-0.4-2.9-0.7L207.6,133.9z"/>
</g>
<g>
	<path class="st3" d="M206.6,167.9v-3.1h-5.2v-1l5-7.2h1.6v7h1.6v1.2H208v3.1H206.6z M206.6,163.7v-3.8c0-0.6,0-1.2,0.1-1.8h-0.1
		c-0.3,0.7-0.6,1.1-0.9,1.7l-2.8,3.8v0H206.6z"/>
</g>
<g>
	<path class="st3" d="M186.3,181H182l-0.4,2.9c0.3,0,0.5-0.1,0.9-0.1c0.9,0,1.7,0.2,2.4,0.6c0.9,0.5,1.6,1.5,1.6,2.9
		c0,2.2-1.8,3.8-4.2,3.8c-1.2,0-2.3-0.3-2.8-0.7l0.4-1.2c0.5,0.3,1.4,0.6,2.4,0.6c1.4,0,2.7-0.9,2.7-2.4c0-1.5-1-2.5-3.2-2.5
		c-0.6,0-1.1,0.1-1.6,0.1l0.7-5.4h5.4V181z"/>
</g>
<g>
	<path class="st3" d="M150.3,188.1c-0.3,0-0.7,0-1.1,0.1c-2.4,0.4-3.7,2.1-3.9,4h0.1c0.5-0.7,1.5-1.3,2.7-1.3c2,0,3.4,1.4,3.4,3.6
		c0,2.1-1.4,4-3.7,4c-2.4,0-4-1.9-4-4.8c0-2.2,0.8-4,1.9-5.1c0.9-0.9,2.2-1.5,3.6-1.7c0.5-0.1,0.8-0.1,1.1-0.1V188.1z M149.9,194.6
		c0-1.6-0.9-2.6-2.3-2.6c-0.9,0-1.8,0.6-2.2,1.4c-0.1,0.2-0.2,0.4-0.2,0.7c0,1.9,0.9,3.2,2.5,3.2C149,197.3,149.9,196.2,149.9,194.6
		z"/>
</g>
<g>
	<path class="st3" d="M116.9,179.7v1L112,191h-1.6l4.9-10v0h-5.5v-1.3H116.9z"/>
</g>
<g>
	<path class="st3" d="M88.9,163.6c0-1.4,0.8-2.4,2.2-3l0-0.1c-1.2-0.6-1.8-1.6-1.8-2.5c0-1.8,1.5-3,3.5-3c2.2,0,3.3,1.4,3.3,2.8
		c0,1-0.5,2-1.9,2.6v0.1c1.4,0.6,2.3,1.5,2.3,2.9c0,2-1.7,3.3-3.8,3.3C90.3,166.7,88.9,165.3,88.9,163.6z M95,163.6
		c0-1.4-1-2-2.5-2.5c-1.3,0.4-2,1.2-2,2.3c-0.1,1.1,0.8,2.1,2.3,2.1C94.1,165.6,95,164.7,95,163.6z M90.8,157.9
		c0,1.1,0.8,1.7,2.1,2.1c1-0.3,1.7-1,1.7-2c0-0.9-0.5-1.8-1.9-1.8C91.5,156.1,90.8,157,90.8,157.9z"/>
</g>
<g>
	<path class="st3" d="M88.5,93.8L88.5,93.8l-2,1.1l-0.3-1.2l2.5-1.3H90v11.3h-1.5V93.8z"/>
	<path class="st3" d="M101.6,97.8c0,3.8-1.4,5.9-3.9,5.9c-2.2,0-3.7-2.1-3.7-5.8c0-3.8,1.6-5.9,3.9-5.9
		C100.2,92.1,101.6,94.3,101.6,97.8z M95.4,98c0,2.9,0.9,4.6,2.3,4.6c1.6,0,2.3-1.8,2.3-4.7c0-2.8-0.7-4.6-2.3-4.6
		C96.4,93.3,95.4,95,95.4,98z"/>
</g>
<g>
	<path class="st3" d="M108.8,71.9L108.8,71.9l-2,1.1l-0.3-1.2l2.5-1.3h1.3v11.3h-1.5V71.9z"/>
	<path class="st3" d="M117.6,71.9L117.6,71.9l-2,1.1l-0.3-1.2l2.5-1.3h1.3v11.3h-1.5V71.9z"/>
</g>
<g>
	<path class="st4" d="M115.3,108.4h20.5l0.6-2.2c0.7-2.5,2.4-5.8,4.6-7.2c1.7-1.1,3.9-1.7,6.4-0.4c4.7,2.6,6.2,9,2.9,13.2
		c-0.3,0.4-0.7,0.8-1.1,1.2c-5.2,5-13.9,15.3-14.1,18.2c-0.2,3,0.2,15.2,0.2,15.2h18.4v-3.4c0-5.9,2.3-11.6,6.5-15.8
		c0.9-0.9,1.9-1.8,3-2.8c6.8-5.9,14.4-18.8,4.8-32.6c0,0-10.1-16.7-31.4-10.8C136.5,81.1,119.4,84.5,115.3,108.4z"/>
	<circle class="st4" cx="144.5" cy="165.6" r="10.3"/>
</g>
</svg>
