<?xml version="1.0" encoding="utf-8"?>
<!-- Generator: Adobe Illustrator 22.1.0, SVG Export Plug-In . SVG Version: 6.00 Build 0)  -->
<svg version="1.1" id="Слой_4" xmlns="http://www.w3.org/2000/svg" xmlns:xlink="http://www.w3.org/1999/xlink" x="0px" y="0px"
	 viewBox="0 0 512 512" style="enable-background:new 0 0 512 512;" xml:space="preserve">
<style type="text/css">
	.st0{fill:#A80206;}
	.st1{fill:none;stroke:#000000;stroke-width:9.0601;stroke-linecap:round;stroke-linejoin:round;stroke-miterlimit:10;}
	.st2{fill:#FFFFFF;stroke:#A80206;stroke-width:4.0688;stroke-miterlimit:10;}
	.st3{fill:#FDCD95;stroke:#000000;stroke-width:1.3417;stroke-linecap:round;stroke-linejoin:round;stroke-miterlimit:10;}
	.st4{fill:#B9D3E5;stroke:#000000;stroke-width:1.3417;stroke-linecap:round;stroke-linejoin:round;stroke-miterlimit:10;}
	.st5{fill:none;stroke:#000000;stroke-width:1.3417;stroke-linecap:round;stroke-linejoin:round;stroke-miterlimit:10;}
	.st6{fill:#472B25;stroke:#000000;stroke-width:1.3417;stroke-linecap:round;stroke-linejoin:round;stroke-miterlimit:10;}
	.st7{fill:#EDEDED;stroke:#000000;stroke-width:1.3417;stroke-linecap:round;stroke-linejoin:round;stroke-miterlimit:10;}
	.st8{fill:none;stroke:#000000;stroke-width:2.6834;stroke-linecap:round;stroke-linejoin:round;stroke-miterlimit:10;}
	.st9{fill:#FFFFFF;}
	.st10{fill:none;stroke:#000000;stroke-width:5.3667;stroke-linecap:round;stroke-linejoin:round;stroke-miterlimit:10;}
	.st11{fill:#C6C6C6;stroke:#000000;stroke-width:2.6834;stroke-linecap:round;stroke-linejoin:round;stroke-miterlimit:10;}
	.st12{fill:#FFF1AD;stroke:#000000;stroke-width:2.6834;stroke-linecap:round;stroke-linejoin:round;stroke-miterlimit:10;}
	.st13{fill:#F0E3B2;stroke:#000000;stroke-width:2.6834;stroke-linecap:round;stroke-linejoin:round;stroke-miterlimit:10;}
	.st14{fill:none;stroke:#000000;stroke-width:1.2497;stroke-linecap:round;stroke-linejoin:round;stroke-miterlimit:10;}
	.st15{fill:#C8E2E8;stroke:#000000;stroke-width:1.3417;stroke-linecap:round;stroke-linejoin:round;stroke-miterlimit:10;}
	.st16{fill:#857154;stroke:#000000;stroke-width:1.3417;stroke-linecap:round;stroke-linejoin:round;stroke-miterlimit:10;}
	.st17{fill:#FDCD95;stroke:#000000;stroke-width:1.3417;stroke-miterlimit:10;}
</style>
<path class="st0" d="M171.4,402.2l-18.6,50.5l-12.6-15l-73.8,62.2c-3.6,3-8.9,2.6-11.9-0.9c-3-3.5-2.5-8.9,1.1-11.9l73.8-62.2
	L118.4,412L171.4,402.2z"/>
<g>
	<line class="st1" x1="61.6" y1="91.7" x2="61.6" y2="413.3"/>
	<line class="st1" x1="462.9" y1="91.7" x2="462.9" y2="413.3"/>
	<line class="st1" x1="61.6" y1="91.7" x2="275.1" y2="24"/>
	<line class="st1" x1="462.9" y1="91.7" x2="273.8" y2="24"/>
</g>
<g>
	<circle class="st2" cx="417.8" cy="79.2" r="69.1"/>
	<polygon class="st0" points="473.9,63.7 433.3,63.7 433.3,23.1 402.2,23.1 402.2,63.7 361.6,63.7 361.6,94.7 402.2,94.7 
		402.2,135.4 433.3,135.4 433.3,94.7 473.9,94.7 	"/>
</g>
<path class="st3" d="M240.8,237.1c0,0,6.2,16.8,7.5,15.8c1.3-1,0-5.4,0-5.4s10.2,11.2,10.7,7.7c0.5-3.5-4.8-9.7-4.8-9.7
	s10.3,7.8,10.7,4.8s-9.1-7.5-9.1-7.5s12.7,3.8,12,1.8c-0.6-2.1-11.7-5.8-11.7-5.8s5.7-1.2,6.4-3.3c0.7-2.2-19.6,0-19.6,0
	L240.8,237.1z"/>
<path class="st4" d="M181.3,158c0,0-14.6,1.2-20.4,13.4S155.3,302,155.3,302l45.4,5.9l21.6-3.4v-17.7c0-4.9-0.3-9.7-0.9-14.6
	l-5.3-43.2l6.2-0.7l20,11.4l3.4-4.4l-12.1-13.2c0,0-17.3-17.4-17.1-22.7c0.1-3.4-0.1-12.1-2.6-19.9c-2.1-6.3-7-11.2-13.3-13.5
	L181.3,158z"/>
<path class="st5" d="M205.9,106.6c0.6-0.5,1.2-1.1,1.7-1.8c0,0,6.2,11.1,4.5,13.9"/>
<path class="st3" d="M181.1,149.7c0,1.1-1.6,13.1-2.2,15.4c-0.3,1.5,14.3,12.9,14.3,12.9s2.2-2.9,2-6c-0.2-3.1,0-18.6,0-18.6
	L181.1,149.7z"/>
<path class="st6" d="M193.2,156.8c0,0,25.3-4.2,25.9-21c0.7-16.8-8.9-56.6-34.4-47c0,0-19.5-3.5-22.9,35c-0.1,1.1-0.2,2.1-0.4,3.2
	c-1,5.8-3.1,29,23.5,29.8H193.2z"/>
<path class="st3" d="M211,128.7c0,15.1-9.8,31.8-19.2,31.8c-8,0-14.8-9-16.5-21c-3.1-1-9.4-3.9-8.1-9.6c0,0-0.1-1.3,1.3-2.5
	c1.4-1.2,3.4-1.3,5-0.5c0.5,0.2,1,0.4,1.6,0.6c2.3,0.5,5.2-0.4,6.1-6.9c1.6-11.6,1.6-11.6,1.6-11.6s9.4,8.5,10.1-4
	c0,0,7.7,5.9,13,1.8C209,113.3,211,121.6,211,128.7z"/>
<line class="st5" x1="193.2" y1="117.5" x2="186.2" y2="120.6"/>
<line class="st5" x1="205.7" y1="119.1" x2="210.5" y2="122.1"/>
<path class="st5" d="M186.2,126.9c0,0,5-3.5,8.9-2.8"/>
<path class="st5" d="M205.7,123.3c0,0,4.8,1.4,5.2,2.8"/>
<path class="st5" d="M197.2,137.8c0,0,3.4-0.9,5.1,0"/>
<path class="st5" d="M193.2,148.4c0,0,4.9,6.3,9.2,0"/>
<ellipse cx="191.8" cy="129.1" rx="2.1" ry="5"/>
<ellipse cx="207.7" cy="129.1" rx="1.8" ry="5"/>
<polygon class="st7" points="200.5,299 200.5,229.3 208.4,298 210.8,305.2 199.7,306.2 "/>
<path class="st5" d="M163.3,193.5c0,0,1.3,24.2,10.4,28.8c9.1,4.6,35.7,9.1,39.1,8c0,0-4.2-11.5-0.7-15.2c0,0-26.2-4.3-29.9-16.7
	l-2-8.6"/>
<line class="st5" x1="193.2" y1="178.1" x2="198.8" y2="211.5"/>
<path class="st3" d="M212.1,228.1c0,0,5,2.4,16.1-3.6c0,0,12.2-5.2,7-9.5c0,0,6.9-9.8-1.2-6.9c0,0,1.5-9.2-2.9-4.4
	c0,0-1-7.7-4.5-1.4s-8.6,12.9-8.1,9.7c0.3-1.6,2.8-4.5,2.2-5.2c0,0,0-3.6-3.2,0c-3.2,3.6-5.5,8.2-5.5,8.2S209.1,220.1,212.1,228.1z"
	/>
<path class="st5" d="M224.4,215c0,0,6.7-8.4,6.9-11.3"/>
<path class="st5" d="M227.1,217.5c0,0,5.7-6.3,7-9.4"/>
<line class="st5" x1="228.9" y1="220.5" x2="235.3" y2="215"/>
<path class="st8" d="M178.9,156.8c0,0-13.9,3.3-7.9,9.8c6,6.5,17.6,15.4,19,17.6c1.4,2.3,2.1,23,2.1,23"/>
<line class="st8" x1="191.3" y1="228.6" x2="191.3" y2="236.6"/>
<path class="st8" d="M196,161.8c0,0,10.1,8.4,7.9,16.3"/>
<ellipse cx="191.3" cy="242.7" rx="4.4" ry="6.1"/>
<path class="st5" d="M196.8,209.4c0,0,3.6-6.4,3.6-9.5c0.1-3.2-3.7-22.6,3.7-20.6c8.2,2.2,5,19.8,6.8,22.1c1.8,2.3,4.6,8,4.6,8"/>
<circle class="st9" cx="192.2" cy="128.4" r="0.7"/>
<circle class="st9" cx="208.2" cy="128.6" r="0.7"/>
<g>
	<line class="st10" x1="394.4" y1="344.2" x2="395.5" y2="379.4"/>
	<path class="st11" d="M397.3,351.4l-63.2-44.8l13.5-41.1c1.9-5.9,8.4-9,14.2-6.9l38,13.7c4.8,1.7,7.7,6.4,7.3,11.5L397.3,351.4z"/>
	<path class="st12" d="M314.9,366.8l82.4-15.5c0,0,1.3-11.1,1.6-13.8c0.2-2.7,3.1-17.2-2.6-18.7l-49.3-30.6l-29.9-1.2l-54.8,18.7
		l-0.8,21.3l19.6,23.7l16.6,17.9L314.9,366.8z"/>
	<path class="st13" d="M260.2,289.5c0,0-55.5,11.8-58.2,11.3s-22.5-10.3-24.2-0.9c-1.7,9.5,8.3,16.8,8.3,16.8l29.3,22.9l5.2,5.9
		l0.5,16.1l2.5-16.5c0,0-1.4,38.3,12,38.9c13.4,0.6,90.9-11.7,92.2-13.8c1.2-2,7.5-58.9-21.9-66.4c-2.2-0.6-4.4-1.2-6.5-2.2
		l-27.2-12.2L260.2,289.5z"/>
	<path class="st13" d="M322.6,269.5c0,0,7.5-21.2,36.2-7.1c28.7,14.1,30.2,10,24,24.7c-6.2,14.6-12.4,48.1-47.3,24
		s-21.4-21.4-21.4-21.4l6.6-19.7L322.6,269.5z"/>
	<line class="st14" x1="376.2" y1="282.6" x2="367.7" y2="310.1"/>
	<path class="st3" d="M311.2,295.5c0,0-2,14.7-4,15.4c-2,0.7-15.7,7.7-15.7,7.7s-19.2,7.5-10.2,7.7c9.1,0.2,10.4-1,10.4-1
		s6.3,1.1,8.5-1.5c2.2-2.6,20.1,0.8,21.8-9.3c1.7-10.1,1.5-19.5,1.5-19.5L311.2,295.5z"/>
	<line class="st10" x1="156.7" y1="335" x2="157.7" y2="364.8"/>
	<line class="st10" x1="222.8" y1="374.5" x2="223.9" y2="409.6"/>
	<path class="st3" d="M269.7,277.9c0,0-16.9,10.1-20.5,10.2c-3.5,0.1-26.6,11.3-17.9,13l7.7-0.3c0,0,8.9,1.7,11.5-1.7
		c0,0,24.9-3.5,27.2-8.6s1.2-12,1.2-12L269.7,277.9z"/>
	<path class="st15" d="M285.9,250.7c0,0-11.2,12.7-14.5,17.9c-2,3.1-2.7,6.3-4.3,8.2c-1.1,1.2-0.6,3.2,0.9,3.8l7.9,3.3l2,10
		c0,0,28.8,9.1,29.9,10.4c1.1,1.3,1.3-4.4,1.3-4.4s15.7,0.8,16.3-1.2c0.6-2,5.9-36-5.2-41.2l-12.9-11.9L285.9,250.7z"/>
	<path class="st11" d="M229.8,338.7l-2.5,29.3c-0.5,6.1-7.4,9.4-12.4,6L156.7,335c-2.3-1.5-3.7-4.2-3.6-6.9l0.9-26
		c0.2-6.1,6.9-9.7,12.1-6.6l59.7,35.6C228.6,332.7,230.1,335.6,229.8,338.7z"/>
	<path class="st16" d="M292.6,253c0,0-30.3,12.9-34-18c-0.9-7-0.1-14.2,2.1-20.9c3.2-10,10.3-24.3,25.4-25.5c0,0,12-8,23.5-0.1
		c0,0,35.4,20.5,18.6,53.6c-3.8,7.5-10.5,13.3-18.7,15.2C303.9,258.6,297.6,258.3,292.6,253z"/>
	<path class="st17" d="M290.2,248.8l0.4,13.4c0,0,12.7,5.8,17.2-1.9l-0.3-9.1L290.2,248.8z"/>
	<path class="st3" d="M321.6,238.2L321.6,238.2c-3.3,11.3-12.7,19.6-23.9,20c-14.4,0.5-29.2-17.1-29.7-33.3c-0.1-3.7,0.5-7,1.7-9.9
		c1.5,3.5,4.6,4.3,11.1-8.2c0,0,4.4,12.8,15.5,1c0,0,3.9,10.8,11.8,6.1c0,0,2.1,9.8,6.3,7.2c0,0-0.6,7.6,2.2,7.1
		c0,0,3.1-4.6,5.8-4.4c1,0.1,1.9,0.8,2.6,2.5C327.2,231.8,327,235.6,321.6,238.2z"/>
	<path class="st5" d="M321.6,238.2c-1.1,0.5-2.4,1-4,1.4"/>
	<path class="st5" d="M268.3,207.3c0,0,0.1,4.8,1.4,7.8"/>
	<line class="st5" x1="276.4" y1="222.3" x2="283.2" y2="218"/>
	<line class="st5" x1="298.1" y1="217.5" x2="306.6" y2="223.5"/>
	<path class="st5" d="M288,235.3c0,0,3.2-3.2,7.7,0.2"/>
	<path class="st5" d="M297,223.8c0,0,3.4-1.8,7.6,1.9"/>
	<path class="st5" d="M277,226.6c0,0,4.8-4.1,8.1-1.5"/>
	<line class="st5" x1="287.6" y1="244.9" x2="297.1" y2="244.6"/>
	<ellipse transform="matrix(0.9995 -3.280351e-02 3.280351e-02 0.9995 -7.3506 9.387)" cx="282.4" cy="228.7" rx="2.8" ry="4.8"/>
	<ellipse transform="matrix(0.9995 -3.280351e-02 3.280351e-02 0.9995 -7.3289 9.9773)" cx="300.4" cy="228.3" rx="2.8" ry="4.8"/>
	<path class="st5" d="M293.5,263.3c0,0-4.4,25.1-3,34.7"/>
	<line class="st5" x1="289.9" y1="270.2" x2="294.5" y2="270.8"/>
	<line class="st5" x1="288.8" y1="279.1" x2="293.3" y2="279.9"/>
	<line class="st5" x1="287.2" y1="288" x2="292" y2="288.7"/>
	<line class="st5" x1="309.1" y1="276.5" x2="309.1" y2="299.9"/>
	<line class="st5" x1="277.2" y1="271.4" x2="275.9" y2="283.9"/>
	<line class="st8" x1="234.3" y1="344.6" x2="320.7" y2="333.1"/>
	<line class="st8" x1="332" y1="333.9" x2="396.4" y2="322.7"/>
</g>
<circle class="st9" cx="282.4" cy="229.1" r="1"/>
<circle class="st9" cx="300.8" cy="228.6" r="1"/>
</svg>
