<?xml version="1.0" encoding="utf-8"?>
<!-- Generator: Adobe Illustrator 22.1.0, SVG Export Plug-In . SVG Version: 6.00 Build 0)  -->
<svg version="1.1" id="Слой_5" xmlns="http://www.w3.org/2000/svg" xmlns:xlink="http://www.w3.org/1999/xlink" x="0px" y="0px"
	 viewBox="0 0 512 512" style="enable-background:new 0 0 512 512;" xml:space="preserve">
<style type="text/css">
	.st0{fill:#857154;}
	.st1{fill:#FDCD95;}
	.st2{fill:#FDCD95;stroke:#000000;stroke-width:3;stroke-linecap:round;stroke-linejoin:round;stroke-miterlimit:10;}
	.st3{fill:none;stroke:#1D1D1B;stroke-width:3;stroke-linecap:round;stroke-linejoin:round;stroke-miterlimit:10;}
	.st4{fill:none;stroke:#000000;stroke-width:3;stroke-linecap:round;stroke-linejoin:round;stroke-miterlimit:10;}
	.st5{fill:#FFFFFF;}
	.st6{fill:#B5D758;stroke:#000000;stroke-width:3;stroke-linecap:round;stroke-linejoin:round;stroke-miterlimit:10;}
	.st7{fill:none;stroke:#000000;stroke-width:4;stroke-linecap:round;stroke-linejoin:round;stroke-miterlimit:10;}
	.st8{fill:#F2DE29;stroke:#000000;stroke-width:6.0296;stroke-miterlimit:10;}
	.st9{fill:none;stroke:#000000;stroke-width:10;stroke-miterlimit:10;}
</style>
<g>
	<g>
		<polygon points="197.1,233 214.7,236 217.4,251.4 201.2,258.4 		"/>
		<path d="M272.4,342.5c0,0,24.7-12.1,16.3-25.6c-8.3-13.5-16.3-8.2-16.3-8.2s-5.3,7.4-5.8,9.1c-0.6,1.7-4.1,13.9-4.1,13.9
			L272.4,342.5z"/>
		<path d="M70.7,321.8l-11,0.1c0,0-5.3,8,5.5,9.8c10.8,1.7,13.8-8.8,13.8-8.8L70.7,321.8z"/>
		<path class="st0" d="M197.1,227.6v5.3l14.5,3.4l17.7-2.4l13.7-7.6l13-15.7c0,0,10.6-16.3,10.5-32.6c-0.1-16.2-1.1-27.2-1.1-27.2
			s-4.1-25.6-8.5-31.2c-4.4-5.6-8.1-20.9-13.2-23.8S234,79.6,224.7,76l-14.5-8.7l-11.9-3.8l-15.4-1.1l-3,2l-9.3-3.3l-8-1l-12,2.2
			l-4.6,2.3l-7.5-0.2l-17.2,5l-10.7,7l-14.3,15l-11,20.3c0,0-4.7,12.7-5.4,15.6c-0.8,2.9-5,31.3-4.6,37.4c0.4,6.1,4.2,28.8,6.5,34.2
			s9.5,17.8,10.8,19.5s11.5,12.9,20.4,14.4c8.9,1.6,11.2,7,16.2,7.2c5,0.2,9.6-0.5,9.6-0.5l9.1-22.5l27.1-0.8c0,0,12.3,3.5,13.3,3.8
			c1.1,0.3,9,3.5,9,3.5V227.6z"/>
		<path class="st1" d="M199,263.7l-12.6,4.9l-16,2.3c0,0-18.2-0.7-23.4-3.6c-5.2-2.9-7.6-4.6-7.6-4.6l1.2-34.5
			c0,0-20.9-11.1-27.8-23.3s-10.5-22.7-10.5-22.7l-2.3-23.3l6.4-6.9l5.1-9.3l4.6,3.2l5.1,0.6l7.5-9.3l6-13.3l2.3,5.3l5,3.2l3.9-3.4
			l6.5-13.5l0.3,7.2l3.2,3.1l5.6-0.5l5.4-5.5l4.7,3.1l4.3,3.4l5.3,0.7l5.1-4.4l4.7-7.1l2.3,6.8l4.9,9.5l2.7,4h2.9l5.5-4.2l3,9.2
			l3.5,4.5l6.4-0.9l2.2,7.9l2.8,4.4l5.5-0.6l2.8-3.5l0.6,16.2l-6.1,24.5l-10.9,17L202,225.2l-6.6,3.1L199,263.7z"/>
		<path class="st2" d="M235.5,152.4c0.9-0.3,1.8-0.4,2.7-0.3c5.5,0.6,9.1,8.5,8.1,17.7c-1.1,9.1-6.4,16-11.9,15.4
			c-0.4-0.1-0.9-0.1-1.3-0.3"/>
		<path class="st3" d="M99.8,157.4c0,0.4,0,0.8,0,1.4"/>
		<path class="st4" d="M104.5,189.1c3.5,9.4,8.9,17.8,15.7,24.7c5.6,5.7,12.1,10.4,19.2,13.9c8.7,4.2,18.4,6.5,28.7,6.5
			s20-2.3,28.7-6.5c7.4-3.6,14.1-8.5,19.8-14.4c7.5-7.9,13.3-17.5,16.6-28.3c2.1-6.8,3.2-14,3.2-21.5c0-3.7-0.3-7.4-0.8-11"/>
		<path class="st4" d="M139.4,227.6L139.4,227.6v6.4v2v26.7c26.8,19.9,59.6,1,59.6,1"/>
		<polyline class="st4" points="199,263.7 197.1,233 196.8,227.6 196.8,227.6 		"/>
		<path class="st2" d="M104.5,189.1c-0.8,0.6-1.7,1.1-2.7,1.3c-5.4,1.2-11.4-5.2-13.3-14.2c-1.9-9,0.9-17.2,6.3-18.4
			c1.7-0.4,3.4,0,5,0.9c0,1.5,0,3.5,0,4.6C99.8,172.5,101.5,181.1,104.5,189.1z"/>
		<path class="st3" d="M100,158.9c-0.1,0-0.1-0.1-0.2-0.1"/>
		<path class="st4" d="M138.6,239.6c-6.3,2.1-12-2.9-18.5-4c-31.5-5.1-50.9-47.4-43.3-94.5c7.5-46.3,38.2-80.1,69.1-76.4"/>
		<path class="st4" d="M178,64c32.2-8.3,69.1,21.4,83.1,67.5c14.3,46.9-0.6,93-33.2,102.9c-10,3-20.6,2.3-30.8-1.5"/>
		<path class="st3" d="M145.8,64.7c4.7-2.8,10.4-4.5,16.6-4.5c5.7,0,11,1.4,15.5,3.9"/>
		<path class="st4" d="M91.6,116.8c0,0-1.4,66.6,16.7,29.5c0,0,2-3.6,4.4-7.9c3.2-5.8,7.2-12.9,8.4-14.5"/>
		<path class="st4" d="M235.5,152.4c0,0-8.6,15.6-13.2-8.2c0,0-8.9,7.8-12.1-11.7"/>
		<path class="st4" d="M213.7,116.8c0,0-4.6,32.4-16.9,12.8c0,0-6.2-11.4-6.2-17.8c0,0-6.1,29.5-22.5,6.8c0,0-17,19.6-15.6-5
			c0,0-9.6,34.4-17.8,10.3c0,0-12.5,36.6-23.2,16.7"/>
		<path class="st4" d="M227.2,89c0,0,16,24.6,17.8,46.6"/>
		<path class="st4" d="M121.1,91.5c0,0-14.5,12.1-16.7,29.5"/>
		<path class="st4" d="M156.1,182.5c0,0,7.9-9.3,15.8-2.3"/>
		<ellipse cx="137.3" cy="164.7" rx="6.8" ry="10.5"/>
		<ellipse class="st5" cx="137" cy="162.7" rx="2.3" ry="3.5"/>
		<path class="st4" d="M129.1,150.6c0,0,7.7,5.3,19,8"/>
		
			<ellipse transform="matrix(0.9979 -6.476792e-02 6.476792e-02 0.9979 -10.2097 12.5113)" cx="187.9" cy="163.7" rx="6.8" ry="10.5"/>
		<ellipse class="st5" cx="188.2" cy="161.7" rx="2.3" ry="3.5"/>
		<path class="st4" d="M196.1,149.6c0,0-7.7,5.3-19,8"/>
		<path class="st6" d="M138.6,239.6c0,0-52.9-10.7-64.4,36.8s-14.5,45.5-14.5,45.5s29,0,31.5,0c2.5,0,0.5,136,0.5,136
			s76.5,28,154.5,0v-127c0,0,28-21,42.5-14c0,0-16-84.7-77-80.1C211.7,236.8,177.5,276.5,138.6,239.6z"/>
		<path class="st4" d="M147.7,204.9c0,0,17.8-15.3,42.3-1.5"/>
		<line class="st7" x1="138" y1="138.5" x2="153.7" y2="149.3"/>
		<line class="st7" x1="188.2" y1="138.5" x2="175.7" y2="149"/>
		<g>
			<path class="st2" d="M66.7,321.9c0,0-23.5,54,4.5,63.5s51.5-15.5,51.5-15.5l-17.5-33l-14-15L66.7,321.9z"/>
			<path class="st2" d="M90.6,291.8c-0.7,12.8-3.1,86.4,37.6,78.6c0,0,29-0.5,37-42c0,0,14.3-34.9,3.6-32.2c-2,0.5-3.7,2-4.7,3.9
				l-6.4,12.8c0,0-2.3-50-8.3-47.5s-7.3,52-11.8,41.8c0,0-5-54.7-10-40c-4.7,13.7-0.6,52.3-6.3,44.8c-0.9-1.3-1.5-2.8-1.6-4.3
				c-0.9-8.8-5.1-45.6-10.2-35.7c-0.8,1.6-1.1,3.4-1.1,5.1c0.2,9.3,0.6,46.5-5.3,35.8c-0.9-1.7-1.5-3.6-1.7-5.6
				c-0.6-6-2.7-21.6-8.5-19C91.6,288.7,90.7,290.2,90.6,291.8z"/>
			<path class="st4" d="M116,328.4c0,0,15.5-6.8,25.5,0"/>
			<path class="st4" d="M121.2,339.9c0,0,12.3-2.3,15.5,0"/>
			<path class="st4" d="M152.5,319.6c0,0,3.1-2.3,5.3-6.8"/>
			<path class="st4" d="M72.2,353.3c0,0,6.7-7,22.6-10.9"/>
		</g>
		<g>
			<path class="st2" d="M272.4,317c0,0,30.9,55.2,3.9,67.1c-27,12-52.7-10.8-52.7-10.8l14.5-34.4l12.6-11.1L272.4,317z"/>
			<path class="st2" d="M248.5,292.7c1.9,12.7,10.8,85.8-30.4,81.7c0,0-28.9,2.1-40.6-38.5c0,0-17.3-33.5-6.4-31.8
				c2.1,0.3,3.9,1.7,5,3.5l7.5,12.2c0,0-2.2-50,4-48s11.9,51.1,15.4,40.5c0,0,0.1-55,6.4-40.7c5.9,13.3,5.3,52.1,10.3,44
				c0.8-1.3,1.2-2.9,1.2-4.5c0.1-8.8,1-45.9,6.9-36.5c0.9,1.5,1.4,3.2,1.6,5c0.6,9.3,3.5,46.4,8.5,35.1c0.8-1.8,1.1-3.7,1.2-5.7
				c0.1-6,0.8-21.8,6.8-19.7C247.3,289.7,248.3,291.1,248.5,292.7z"/>
			<path class="st4" d="M226.6,331.4c0,0-16-5.3-25.4,2.3"/>
			<path class="st4" d="M222.4,343.3c0,0-12.4-1.1-15.4,1.4"/>
			<path class="st4" d="M189.4,326c0,0-3.2-2.1-5.8-6.3"/>
			<path class="st4" d="M272.4,352.3c0,0-7.3-6.4-23.5-8.8"/>
		</g>
	</g>
	<path class="st8" d="M359.3,47.7l-72.7,126c-4.6,8,1.2,18,10.4,18h145.5c9.2,0,15-10,10.4-18l-72.7-126
		C375.5,39.7,364,39.7,359.3,47.7z"/>
	<path class="st9" d="M362.2,70.5l-54.4,94.2c-3.4,5.8,0.8,13.1,7.5,13.1h108.8c6.7,0,10.9-7.3,7.5-13.1l-54.4-94.2
		C373.9,64.7,365.5,64.7,362.2,70.5z"/>
	<g>
		<path d="M369.7,140.5l8.9-26.7c4-14.7-1-33.2-8.9-33.2h0c-7.9,0-12.9,18.4-8.9,33.2L369.7,140.5z"/>
		<circle cx="369.7" cy="156.2" r="7.1"/>
	</g>
</g>
</svg>
