<?xml version="1.0" encoding="utf-8"?>
<!-- Generator: Adobe Illustrator 22.1.0, SVG Export Plug-In . SVG Version: 6.00 Build 0)  -->
<svg version="1.1" id="Слой_3" xmlns="http://www.w3.org/2000/svg" xmlns:xlink="http://www.w3.org/1999/xlink" x="0px" y="0px"
	 viewBox="0 0 512 512" style="enable-background:new 0 0 512 512;" xml:space="preserve">
<style type="text/css">
	.st0{fill:#575756;stroke:#000000;stroke-width:2.8122;stroke-linecap:round;stroke-linejoin:round;stroke-miterlimit:10;}
	.st1{fill:#878787;stroke:#000000;stroke-width:2.8122;stroke-linecap:round;stroke-linejoin:round;stroke-miterlimit:10;}
	.st2{fill:none;stroke:#000000;stroke-width:2.8122;stroke-linecap:round;stroke-linejoin:round;stroke-miterlimit:10;}
	.st3{fill:#1D1D1B;stroke:#000000;stroke-width:2.2998;stroke-linecap:round;stroke-linejoin:round;stroke-miterlimit:10;}
	
		.st4{opacity:0.22;fill:#FFFFFF;stroke:#000000;stroke-width:1.7224;stroke-linecap:round;stroke-linejoin:round;stroke-miterlimit:10;}
	.st5{fill:#EDEDED;stroke:#000000;stroke-width:2.8122;stroke-linecap:round;stroke-linejoin:round;stroke-miterlimit:10;}
	.st6{fill:#FFFFFF;stroke:#000000;stroke-width:3;stroke-linecap:round;stroke-linejoin:round;stroke-miterlimit:10;}
	.st7{fill:#B8E585;stroke:#000000;stroke-width:2;stroke-linecap:round;stroke-linejoin:round;stroke-miterlimit:10;}
	.st8{fill:none;stroke:#000000;stroke-width:2;stroke-linecap:round;stroke-linejoin:round;stroke-miterlimit:10;}
	.st9{fill:#FDCD95;stroke:#000000;stroke-linecap:round;stroke-linejoin:round;stroke-miterlimit:10;}
	.st10{fill:#FFD56E;stroke:#000000;stroke-width:2;stroke-linecap:round;stroke-linejoin:round;stroke-miterlimit:10;}
	.st11{fill:#FDCD95;stroke:#000000;stroke-width:2;stroke-linecap:round;stroke-linejoin:round;stroke-miterlimit:10;}
	.st12{fill:#472B25;stroke:#000000;stroke-width:2;stroke-linecap:round;stroke-linejoin:round;stroke-miterlimit:10;}
	.st13{fill:#FFFFFF;}
	.st14{fill:#816164;stroke:#000000;stroke-width:2;stroke-linecap:round;stroke-linejoin:round;stroke-miterlimit:10;}
	.st15{fill:#FCE0C5;stroke:#000000;stroke-width:1.8181;stroke-linecap:round;stroke-linejoin:round;stroke-miterlimit:10;}
	.st16{fill:none;stroke:#000000;stroke-width:1.8181;stroke-linecap:round;stroke-linejoin:round;stroke-miterlimit:10;}
</style>
<path class="st0" d="M115.6,281c0,0-1.4,12.1-0.8,12.8l89.9,135.4c2.2,3.3,5.7,5.8,9.6,6.4c3.9,0.7,13.5-0.4,15.3-7.4l-2.4-12.1
	c0.3-1.2,0.1-2.5-0.5-3.5l-46.6-80.2c-0.2-0.4-0.5-0.8-0.9-1.1l-55.6-50.9c-1.1-1-2.6-1.4-4.1-1.2h0
	C117.3,279.7,115.6,278.7,115.6,281z"/>
<path class="st1" d="M296.3,384.4L207,250.8c-4.7-7-13.7-9.6-21.3-6.1L119.4,275c-4.4,2-6,7.5-3.2,11.5L210,425.1
	c4.4,6.5,12.8,9.2,20.2,6.4l57.9-21.6C298.4,406,302.4,393.5,296.3,384.4z"/>
<path class="st2" d="M285.4,392.7l-17.2,6.4v0.1c0,8.2-6.6,14.8-14.8,14.8c-4.5,0-8.6-2-11.3-5.2l-23,8.6c-1.8,0.7-3.8,0-4.8-1.6
	l-82.6-122c-1.4-2.1-0.6-5,1.7-6l64.3-29.4c1.8-0.8,4-0.2,5.1,1.5l84.6,126.6C288.9,388.8,287.9,391.8,285.4,392.7z"/>
<path class="st3" d="M285.4,392.7l-17.2,6.4c-0.1-8.1-6.7-14.7-14.8-14.7c-8.2,0-14.8,6.6-14.8,14.8c0,3.7,1.3,7,3.6,9.6l-23,8.6
	c-1.8,0.7-3.8,0-4.8-1.6l-82.6-122c-1.4-2.1-0.6-5,1.7-6l64.3-29.4c1.8-0.8,4-0.2,5.1,1.5l84.6,126.6
	C288.9,388.8,287.9,391.8,285.4,392.7z"/>
<path class="st4" d="M275.8,388l-12.9,4.8c-0.1-6.1-5-11-11.1-11c-6.1,0-11.1,5-11.1,11.1c0,2.8,1,5.3,2.7,7.2l-17.2,6.4
	c-1.3,0.5-2.8,0-3.6-1.2L160.6,314c-1.1-1.6-0.5-3.7,1.3-4.5l48.2-22c1.4-0.6,3-0.2,3.8,1.1l63.3,94.8
	C278.4,385,277.6,387.3,275.8,388z"/>
<path class="st5" d="M268.3,399.1v0.1c0,8.2-6.6,14.8-14.8,14.8c-4.5,0-8.6-2-11.3-5.2c-2.2-2.6-3.6-6-3.6-9.6
	c0-8.2,6.6-14.8,14.8-14.8C261.6,384.4,268.2,391,268.3,399.1z"/>
<path class="st6" d="M340.2,40.2c-72.2,0-130.7,53.9-130.7,120.3c0,38.8,19.9,73.3,50.9,95.3c1.4,10.9,3,29.8-1.2,35
	c-4.8,6,23-7,37.1-16.9c13.7,4.5,28.5,7,43.9,7c72.2,0,130.7-53.9,130.7-120.3C471,94.1,412.4,40.2,340.2,40.2z"/>
<path class="st7" d="M294.9,181.8c0,0-5.9,0.1-12,2.2c-5.1,1.7-10.4,4.7-12.6,10c-5,11.8-18.3,52.3-18.3,52.3s7,6.5,7,9.3
	s11.3-18.8,13.3-25.3l4,55.3c0,0,12.8-6.7,18.6-10.7l4.3-0.1c0,0,34.2,7.7,37.2,6s1.9-13.5,1.9-13.5l-5.8-55.5l10.8,9.8
	c0,0,10.9,4.2,14.3,4c3.4-0.2,3.9-13.7,3.9-13.7s-4.8,4-14.4-9.5s-20.9-24.5-30.6-20.5H294.9z"/>
<path class="st8" d="M327.9,183.3c0,0-23.6,22.8-46.1,2.3"/>
<line class="st8" x1="291.3" y1="183.3" x2="286.4" y2="188.7"/>
<line class="st8" x1="297.6" y1="187.4" x2="296.7" y2="193.6"/>
<line class="st8" x1="306.1" y1="188.5" x2="306.8" y2="193.8"/>
<line class="st8" x1="312.1" y1="186.3" x2="317.2" y2="190.5"/>
<line class="st8" x1="315.4" y1="184" x2="325.9" y2="184"/>
<ellipse transform="matrix(0.9871 -0.1603 0.1603 0.9871 -19.0756 44.8474)" class="st9" cx="268.4" cy="140.6" rx="4.9" ry="8"/>
<path class="st10" d="M364.5,208.8c0,0-2.8-21.7-4-27.3S332,112.3,359,97.3c0,0,16.6-23.2,46.7-12.5c15.5,5.5,26.6,19.4,28.8,35.7
	c1,7.7,1.1,16.8-1.2,26.6c-6.5,27.8-7.3,53.6-6.3,56.3s-2.5-1.8-2.5-1.8l-22.3,6.8c0,0-18.5,1-20,0S364.5,208.8,364.5,208.8z"/>
<ellipse class="st9" cx="336.2" cy="140.9" rx="4.9" ry="8"/>
<path class="st11" d="M291.3,172.6v10.7c0,0,11,11.5,24.1,0.7l-0.8-11.5H291.3z"/>
<path class="st8" d="M262.4,135.1c0,0,19.3-15.3,14.1-23.3c0,0,30.5,17.5,54,2.8"/>
<path class="st12" d="M275.3,143.8c0,0-32-10.2-18-38.8c0,0,5.3-38,68.7-12c0,0,11.3,7.3,20,4.7c0,0-2.7,38-12.7,40.7
	c-10,2.7-37.8,10-37.8,10L275.3,143.8z"/>
<ellipse class="st9" cx="364.5" cy="139.7" rx="4.9" ry="8"/>
<ellipse class="st9" cx="425.1" cy="139" rx="4.9" ry="8"/>
<path class="st11" d="M386.5,167.8v22c0,0,13,5.5,14.8-1.8s0-20.3,0-20.3H386.5z"/>
<path class="st11" d="M336.4,135.7c0,19.9-14.4,43.8-32.3,43.8s-35.8-25.1-35.8-45c0-1.6,0.1-3.1,0.3-4.6c4.1-4.6,8.4-10.4,8.7-14.9
	c0.8-0.6,1.7-1.3,2.6-1.8c8.3,3.9,30.1,12.1,48.4,2.3C333.4,120,336.4,126.7,336.4,135.7z"/>
<path class="st8" d="M355.3,130.6c0,0,20.3-6.3,18.8-22.9c0,0,13.4,14,33.6,13.9c5,0,9.9,0.8,14.5,2.7c2.7,1.1,5.3,2.5,7,4.4"/>
<path class="st11" d="M425.6,133.5c0,18.2-14.3,40.1-29.6,40.1c-15.3,0-32.7-23.6-32.7-41.8c0-1.7,0.2-3.3,0.4-4.8
	c4.6-2.9,8.9-7.3,10-14.4c1.2-0.6-0.2-4,0.2-4.9c5.2,4.1,20.5,13.9,34.6,13.9c5,0,9.9,0.8,14.5,2.7c0.4,0.2,0.8,0.3,1.1,0.5
	C425.1,127.3,425.6,130.2,425.6,133.5z"/>
<path class="st8" d="M369.3,98.6c0,0-3.5-3.5-10.3-1.3"/>
<path class="st8" d="M386.5,101.1c0,0,5.3,7.8,16.5,9.5s21.4,5.8,22.6,7.3"/>
<path class="st8" d="M363.3,108.6c0,0-4.9,4.3-4.3,12.3"/>
<path class="st8" d="M361.1,103.1c0,0-7.9,6.6-7.9,16"/>
<path class="st8" d="M384,157.8c0,0,9.6,13,18,0"/>
<path class="st8" d="M389.3,148.3c0,0,6-2.5,8.5,0"/>
<path class="st8" d="M374.1,126.9c0,0,5.1-4.4,11.3-1.9"/>
<path class="st8" d="M399.6,125.6c0,0,6-2.6,11.6,0.6"/>
<ellipse cx="383.1" cy="138.4" rx="3.4" ry="5.3"/>
<circle class="st13" cx="383.1" cy="137.9" r="1.2"/>
<g>
	<path d="M385.7,133.9c-1.1-0.1-2,0.1-2.9,0.3c-0.9,0.2-1.7,0.6-2.6,1c-1,0.5-2.2,0.8-3.4,0.7c-1.2-0.1-2.3-0.6-3-1.6
		c1.1,0.2,2,0.2,2.9,0c0.9-0.2,1.7-0.5,2.5-0.9c1-0.5,2.2-0.8,3.3-0.7C383.7,132.7,384.9,133.1,385.7,133.9z"/>
</g>
<ellipse cx="403.1" cy="138.4" rx="3.4" ry="5.3"/>
<circle class="st13" cx="403.1" cy="137.9" r="1.2"/>
<g>
	<path d="M400.5,133.9c0.8-0.8,1.9-1.2,3.1-1.2c1.1,0,2.3,0.2,3.3,0.7c0.8,0.4,1.7,0.7,2.5,0.9c0.9,0.2,1.8,0.2,2.9,0
		c-0.6,0.9-1.8,1.4-3,1.6c-1.2,0.1-2.4-0.2-3.4-0.7c-0.8-0.4-1.7-0.7-2.6-1C402.6,134,401.6,133.9,400.5,133.9z"/>
</g>
<path class="st14" d="M403.1,183.6c0,0,20.4-4,23.9,19.8s8.3,39.8,8.3,39.8S399.1,280,356,280h-7c0,0,11.9-83.5,17-92
	c4.2-7,15.9-3.4,19.7-3.3C386.9,184.9,393.1,195.5,403.1,183.6z"/>
<path class="st8" d="M364.5,211.8c0,0,6,11.5,6.2,17.8s-6.2,49.2-6.2,49.2"/>
<path class="st8" d="M422.8,209.8c0,0-6.6,17-5.6,23s6.8,20.1,6.8,20.1"/>
<path class="st8" d="M385.7,184.8c0,0-12,4.1-7.2,10.8c5.1,7.1,14.7,2.6,16.6-3c0,0,7,9.5,12.8,5.1c5-3.8,3.2-12-2.9-13.4
	c-0.7-0.2-1.5-0.3-2.3-0.3"/>
<path class="st8" d="M292.9,160.7c0,0,12,12.4,21.7,0"/>
<path class="st8" d="M298.1,150.3c0,0,5.1-2.5,9.3,0"/>
<path class="st8" d="M282,126.9c0,0,4.8-3.1,10.1-1.3"/>
<path class="st8" d="M311.6,123.3c0,0,5-1.5,8.6,1.8"/>
<ellipse cx="291.3" cy="140.6" rx="4.2" ry="7.2"/>
<circle class="st13" cx="291.1" cy="139.7" r="1.8"/>
<path class="st8" d="M282.8,136.7c0,0,6-4.6,12.1-2.4"/>
<ellipse cx="314.5" cy="140.6" rx="4.2" ry="7.2"/>
<circle class="st13" cx="314.7" cy="139.7" r="1.8"/>
<path class="st8" d="M323.1,136.7c0,0-6-4.6-12.1-2.4"/>
<g>
	<path class="st15" d="M41.3,437.3c-1.1-5.3,1.7-10.6,6.7-12.7c6.4-2.7,15.6-8.8,24-22c14.9-23.4,24.3-32.6,39.8-27.4
		c0,0,14.7-6.2,16.6-0.7c0,0,22.7-22.8,21,7.7c0,0,36.7-40,40-25.4c0,0,4.9,4.5-19.5,32.2c-24.4,27.7-25.1,33.5-25.1,33.5
		s42.3-1.8,45.4,9.9c0,0,1.2,7.7-11.2,4.7c-4.8-1.1-9.9-1.2-14.8-0.3c-3.6,0.7-8.1,1.9-13.4,3.8c-15.1,5.6-24.1,6.3-31.4,6.6
		c-6.4,0.3-35.8,8.8-49.1,22c-3.3,3.3-8.6,3.4-11.9,0.2C52.5,463.8,44.7,453.6,41.3,437.3z"/>
	<path class="st16" d="M133.1,397.5c0,0,9.2-7.4,16.4-15.4"/>
	<path class="st16" d="M141.6,434.1c0,0,0.9-6.9,3.3-11.6"/>
	<path class="st16" d="M113.4,388.1c0.7-0.2,10.1-8.1,17-15.4"/>
	<path class="st16" d="M99.6,379.9c2.5,0.3,15.7-6,15.7-6"/>
	<path class="st16" d="M144.2,379.2c0,0,0.1,8.4-2.2,10.5"/>
</g>
</svg>
