<?xml version="1.0" encoding="utf-8"?>
<!-- Generator: Adobe Illustrator 22.1.0, SVG Export Plug-In . SVG Version: 6.00 Build 0)  -->
<svg version="1.1" id="Слой_3" xmlns="http://www.w3.org/2000/svg" xmlns:xlink="http://www.w3.org/1999/xlink" x="0px" y="0px"
	 viewBox="0 0 512 512" style="enable-background:new 0 0 512 512;" xml:space="preserve">
<style type="text/css">
	.st0{fill:#FDCD95;stroke:#000000;stroke-width:3;stroke-linecap:round;stroke-linejoin:round;stroke-miterlimit:10;}
	.st1{fill:#2E7553;stroke:#000000;stroke-width:3;stroke-linecap:round;stroke-linejoin:round;stroke-miterlimit:10;}
	.st2{fill:#472B25;stroke:#000000;stroke-width:3;stroke-linecap:round;stroke-linejoin:round;stroke-miterlimit:10;}
	.st3{fill:none;stroke:#000000;stroke-width:3;stroke-linecap:round;stroke-linejoin:round;stroke-miterlimit:10;}
	.st4{fill:#FFFFFF;}
	.st5{fill:#FFD56E;stroke:#000000;stroke-width:3;stroke-linecap:round;stroke-linejoin:round;stroke-miterlimit:10;}
	.st6{fill:#EB8C30;stroke:#000000;stroke-width:3;stroke-linecap:round;stroke-linejoin:round;stroke-miterlimit:10;}
	.st7{fill:none;stroke:#A80206;stroke-width:6.6337;stroke-linecap:round;stroke-linejoin:round;stroke-miterlimit:10;}
</style>
<path class="st0" d="M184.4,345.9c0,0,21.3,52,23.3,78s6.2,49.5,8.9,53.3c2.8,3.8-5.8,52.4-5.8,52.4l-14.9-21.9l-8.1-18.4
	l-18.3-138.1L184.4,345.9z"/>
<path class="st1" d="M115.2,251.3c0,0,32.2,10.6,34.5,16.8c2.3,6.2,1,7.9,1,7.9l0,0c12.7,8.3,22.3,20.6,27.2,35l12.9,37.8
	l-17.1,20.2l-34.4-26.7l-24.5-81.7L115.2,251.3z"/>
<path class="st2" d="M78,227.5l-6,4.2l-4.9-8.8l-3.6,17.9c0,0-20.7-15.8-21.3-35.9c0,0-4.7,9.6-4.2,13.8c0.6,4.2-24.6-51.9-7-85.1
	c0,0,0.6-16.9-1.7-21.8c0,0,12.6,2.6,14.5,1.5c1.8-1,34.6-49.8,92.2-14.7c8.4,5.1,14.9,13,17.8,22.4c1.8,6,2.2,12.7-1.7,17.7
	c0,0-8.6-17.7-28.2-23.4c0,0,5.2,15.6,3.6,18.9c-1.6,3.3-21.3-16-33-16.2c0,0,4.7,29.1,2.3,37.1l-6.9-7.4c0,0,7,29.8-0.4,29.9
	l-11.5,18.7l0,12.3L78,227.5z"/>
<path class="st0" d="M166.3,191.2c3.5,44.1-33,48.9-38.4,50.8c-5.5,1.9-2.9,21.5-2.1,27.7s8.1,17.8,8.1,17.8l-10.7,1.4l-34.4-9.7
	l-10.7-29.4L78,221.3l-0.1-24.7c-8.4-4.9-8.8-23.4-4-27.8c4.9-4.4,13.6,7.6,13.6,7.6c7.4-0.1,1.5-30.2,1.5-30.2l6.9,7.4
	c2.4-8-2.3-37.1-2.3-37.1c11.7,0.2,31.4,19.6,33,16.2s-3.6-18.9-3.6-18.9c19.6,5.7,28.2,23.4,28.2,23.4c0.8-1,1.4-2,1.8-3.1
	c2.8,8.8,5,18.2,5,18.2c2.5,11.2,11.6,20.2,14.1,22.6c0.5,0.5,0.9,1.1,1,1.7C175.5,185.3,166.3,191.2,166.3,191.2z"/>
<path class="st3" d="M91.3,196.4c0,0-4.6,6.8-13.4,0.2"/>
<path class="st3" d="M156.1,188.5c0,0,1.6,3,10.2,2.7"/>
<path class="st3" d="M120.3,157.8c0,0,11.2-17.6,25.3-13.5"/>
<path class="st3" d="M125,170.4c0,0,9.3-17.2,25.1-13.2"/>
<ellipse transform="matrix(0.9914 -0.131 0.131 0.9914 -21.0462 20.1885)" cx="142.9" cy="170.1" rx="5.9" ry="12.4"/>
<circle cx="175.9" cy="158.5" r="0.2"/>
<circle class="st4" cx="145.1" cy="168.7" r="3"/>
<path class="st3" d="M127.9,242c0,0-16.9,3-29.1-8.5"/>
<path class="st1" d="M77.6,246c0,0,6.4,29.6,75.7,38.9c0,0,18.7,23.3,29,71.1s31.5,177.3,31.5,177.3s-89.3,10.5-100.6,13.3
	c-10,2.5-62.3,8.1-62.3,8.1S63.7,418,62.4,410.4c-5.9-34.1-20.8-115.8,7.9-142.2C70.3,268.2,68.9,249.7,77.6,246z"/>
<path class="st3" d="M150.1,285.3c0,0-41.6,15.9-46.1,18.1c-7.1,3.6-33.7-35.3-33.7-35.3"/>
<path class="st3" d="M150.1,285.3c0,0-1.8-4.8,0.7-9.4"/>
<path class="st0" d="M102.6,425.6c0,0,22.3,13.9,88.8-23.5c0,0,29.3-13,35.2-15.5c7.6-3.3,10.6-15.9,10.7-20.3
	c0-4.4,2.7-19.3,2.7-19.3s-3.2-4.3-10.6,4.2c0,0-0.3-36.8-7.2-32l-1.8,3.5c0,0-2.8-14.8-11.6-3.1c0,0-11.2-5.8-10.4,7.2
	c0,0-7.7-4.7-9.6,9.6c-1.9,14.4,2.4,41.9-6.6,45c-7.8,2.7-17.1,6.8-46,6.9c-3,0-5.9,1-8.2,2.8c-7.9,6.2-25.7,21.6-25.6,33.7"/>
<line class="st3" x1="200.2" y1="351.2" x2="198.4" y2="326.7"/>
<path class="st1" d="M104.5,432.8c0,0,14.7-36.7,35.1-45.4c0,0-27.6-94.6-58.8-74.2C80.8,313.2,61.4,328.2,104.5,432.8z"/>
<line class="st3" x1="210.2" y1="348.9" x2="208.8" y2="319.6"/>
<line class="st3" x1="220.8" y1="348" x2="220.4" y2="322.6"/>
<path class="st3" d="M226.7,360.4c0,0,1.2-7.6,2.7-9.2"/>
<path class="st3" d="M203.6,360.4c0,0,8.8-5.4,14.2-3"/>
<path class="st3" d="M207,366.9c0,0,5.3-3.3,9.5-1.6"/>
<path class="st3" d="M145.9,214.8c0,0,4.8-7.2,19.9-8.5"/>
<g>
	<path class="st5" d="M483.8,337.7c0,0-36.6-27.1-33-62c0.5-5,2.3-9.8,5.1-14.1c6-9.4,19-29.7,25.4-41.6c8.6-15.8,9.4-38.9-0.1-44.7
		s-9.6-5.8-9.6-5.8s-9.7-2.5-9.3-3.6s44.1-52.4,76.8-17.9c42.5,44.8-6.5,95.4-23,112.3C499.6,277.1,468.4,307.3,483.8,337.7z"/>
	<path class="st5" d="M475.8,180.6c-0.2,1.3-0.4,2.6-0.6,4c-8.6,50.2-49,52-49,52l-11.3-7.2c0,0-2.9-15.4,2.5-38.4
		c5.4-23-12.2-44.8-12.2-44.8c1.1,9.7-7.9,30.1-6.1,25.8c1.8-4.3-12.7-43.2-11.8-38.4c1.2,7.1-12.9,17.9-12.9,17.9
		s-2.2-13.6-3.6-12.9c-1.4,0.7-6.8,9.3-6.8,9.3c-1.4-3.2-3.4-19.1-3.4-19.1l-13.3,19.7c0.9-66.6,52.5-57.6,78.9-53
		c18.3,3.2,38.7,20.3,46.8,47C476.4,153.7,477.7,166.5,475.8,180.6z"/>
	<path class="st0" d="M433.3,212.4c-5.8,11.1,0,67.5,0,67.5l-19.4,9.5c0,0-0.1,0-0.2,0c-3-0.5-32.5-6.2-29.8-14.7
		c2.9-9,1.6-28.9,1.6-28.9c-50.6,10.3-41.8-44.1-41.8-44.1c-2.9,0.5-6-1.9-8-3.9c-1.3-1.3-1.6-3.2-0.7-4.8
		c3.1-5.6,10.7-19.1,14.2-26.5c2.9-6.1,4.8-18.2,5.2-27.7c2.7-2.9,4.6-7.7,6.3-9.2c0,0,0.8,9.5,2.5,12.8c0,0,7.8-11.9,11.9-13.6
		c0,0,3.3,17.2,2.5,21.8c0,0,9.6-11.6,9.6-17c0,0,15.7,22.7,14.5,27.6c0,0,2.6-6.4,3.5-13.3c0.9-6.2,16.4,34,20.5,38.7
		c11.1-8.4,16.5-5.6,18.9,5.2C447.2,202.5,433.3,212.4,433.3,212.4z"/>
	<path class="st3" d="M351.9,199.4c0,0-4.8,2.9-8.2,2.4"/>
	<path class="st3" d="M361.4,154c0,0,17.6,1.9,25,13"/>
	<path class="st3" d="M426.3,213.2c0,0,5.1,0.7,7-0.8"/>
	<g>
		<path d="M361.3,169.3c1-1.2,2.5-1.9,4.1-2.3c1.6-0.4,3.2-0.2,4.8,0.2c0.8,0.2,1.5,0.5,2.3,0.8c0.7,0.3,1.4,0.7,2.1,1.1
			c0.7,0.4,1.4,0.8,2,1.2c0.6,0.5,1.2,1,1.8,1.5l0.1,0.1c-0.1-0.1-0.1,0-0.1-0.1c0,0,0,0,0,0c0,0,0.1,0.1,0.1,0.1
			c0.1,0.1,0.3,0.2,0.4,0.2c0.3,0.1,0.8,0.3,1.2,0.3c0.5,0.1,1,0.1,1.5,0.1c0.5,0,1.1,0,1.7,0l0,0c0.1,0,0.2,0.1,0.2,0.2
			c0,0,0,0.1,0,0.1c-0.4,0.4-0.9,0.8-1.4,1.1c-0.3,0.1-0.5,0.3-0.8,0.4c-0.3,0.1-0.6,0.2-0.9,0.3c-0.6,0.2-1.3,0.2-2,0.2
			c-0.4,0-0.7-0.1-1.1-0.3c-0.2-0.1-0.4-0.2-0.6-0.3c-0.1-0.1-0.2-0.1-0.3-0.2c-0.1-0.1-0.2-0.1-0.4-0.3l0.1,0.1
			c-0.6-0.4-1.1-0.9-1.6-1.4l-1.6-1.4c-0.5-0.4-1.1-0.8-1.7-1.2c-0.6-0.3-1.2-0.7-1.9-0.9c-1.3-0.6-2.6-0.9-4-0.9
			c-1.4,0-2.8,0.5-4,1.3l0,0c-0.1,0-0.2,0-0.2,0C361.3,169.4,361.3,169.3,361.3,169.3z"/>
	</g>
	<ellipse cx="366.5" cy="175.9" rx="4.8" ry="8.4"/>
	<circle class="st4" cx="364.2" cy="173.8" r="2.4"/>
	<path class="st3" d="M385.5,245.8c0,0,8.8-1.7,12.3-4.1"/>
	<path class="st6" d="M483.8,161.3c0,10.4-3.6,18.8-8,19.4c1.9-14.1,0.6-26.9-2.8-38c0.7-0.5,1.5-0.8,2.3-0.8c1.2,0,2.3,0.5,3.3,1.5
		C481.7,146.3,483.8,153.2,483.8,161.3z"/>
	<path class="st6" d="M381.4,273c0,0,23.5,15.7,49.2-3.4c0,0,40.7,0,41.8,96.5c0,2-0.4,4-0.4,6l-1.5,44.9l2.4,103.3l-10,2.5
		c0,0-155.9,11.8-155.9,3.9s31.9-201.2,35.2-213.7C347.6,293.2,381.4,273,381.4,273z"/>
	<path class="st3" d="M349.6,314.4c0,0-10.4,14.3-11.6,20.6"/>
	<path class="st6" d="M395.3,370.7c0,0,23.3,21.7,23.7,30.7c0.4,9,43.9-37.2,43.9-59.7c0-22.4-10.5-26-23.7-18.3
		C428.2,329.8,395.3,370.7,395.3,370.7z"/>
	<g>
		<path class="st0" d="M397.7,373.6l-15.4,12.8c0,0-66.6,3.8-71.2,1.5c-4.6-2.3-44.5-16.8-47.5-15.8c-2.9,1,11.3,9.6,11.2,11.9
			c-0.1,2.4-27.6-1.3-31.8-2.9c-4.2-1.6-12.2-1.6-8.2,3c0,0-6.7-1.6-2.9,3.6c0,0-5.6,3.8,3.1,7c0,0-4.8,2.6,3.9,5.9
			c8.6,3.4,16.7,13.4,35,10.8c18.3-2.6,24.6-5,30.1-4.5c5.4,0.5,68.5,4,68.5,4s27.8,2.6,35.7-4.9s9.4-9.1,9.4-9.1
			S401.1,374,397.7,373.6z"/>
		<line class="st3" x1="253.2" y1="401.8" x2="235" y2="394.7"/>
		<line class="st3" x1="252.7" y1="396.7" x2="232" y2="387.7"/>
		<line class="st3" x1="258.8" y1="393.2" x2="234.9" y2="384.2"/>
	</g>
	<path class="st3" d="M343.8,216.8c0,0,12.1,0,18.9,5.3"/>
</g>
<g>
	<line class="st7" x1="245.7" y1="307.9" x2="181.9" y2="370"/>
	<line class="st7" x1="181.9" y1="307.9" x2="245.7" y2="370"/>
</g>
</svg>
