<?xml version="1.0" encoding="utf-8"?>
<!-- Generator: Adobe Illustrator 22.1.0, SVG Export Plug-In . SVG Version: 6.00 Build 0)  -->
<svg version="1.1" id="Слой_5" xmlns="http://www.w3.org/2000/svg" xmlns:xlink="http://www.w3.org/1999/xlink" x="0px" y="0px"
	 viewBox="0 0 512 512" style="enable-background:new 0 0 512 512;" xml:space="preserve">
<style type="text/css">
	.st0{fill:#FFD56E;stroke:#000000;stroke-width:3;stroke-linecap:round;stroke-linejoin:round;stroke-miterlimit:10;}
	.st1{fill:#FDCD95;stroke:#000000;stroke-width:3;stroke-linecap:round;stroke-linejoin:round;stroke-miterlimit:10;}
	.st2{fill:none;stroke:#000000;stroke-width:3;stroke-linecap:round;stroke-linejoin:round;stroke-miterlimit:10;}
	.st3{fill:#FFFFFF;}
	.st4{fill:#EB8C30;stroke:#000000;stroke-width:3;stroke-linecap:round;stroke-linejoin:round;stroke-miterlimit:10;}
	.st5{fill:#2E7553;stroke:#000000;stroke-width:3;stroke-linecap:round;stroke-linejoin:round;stroke-miterlimit:10;}
	.st6{fill:#472B25;stroke:#000000;stroke-width:3;stroke-linecap:round;stroke-linejoin:round;stroke-miterlimit:10;}
</style>
<g>
	<g>
		<path class="st0" d="M444.9,301.7c0,0-30-22.2-27.1-50.8c0.4-4.1,1.9-8,4.2-11.5c5-7.7,15.6-24.4,20.8-34.1
			c7.1-12.9,7.7-31.9-0.1-36.7c-7.8-4.8-7.8-4.8-7.8-4.8s-7.9-2.1-7.6-2.9s36.2-42.9,62.9-14.7c34.8,36.7-5.3,78.2-18.8,92
			C457.9,252.1,432.3,276.7,444.9,301.7z"/>
		<path class="st0" d="M438.4,173c-0.1,1.1-0.3,2.2-0.5,3.3c-7.1,41.1-40.1,42.6-40.1,42.6l-9.3-5.9c0,0-2.4-12.6,2.1-31.4
			c4.4-18.8-10-36.7-10-36.7c0.9,7.9-6.5,24.7-5,21.2c1.5-3.5-10.4-35.4-9.7-31.5c1,5.8-10.6,14.7-10.6,14.7s-1.8-11.2-2.9-10.6
			c-1.2,0.6-5.6,7.6-5.6,7.6c-1.2-2.6-2.8-15.7-2.8-15.7l-10.9,16.2c0.7-54.6,43.1-47.2,64.7-43.4c15,2.7,31.7,16.7,38.3,38.5
			C438.9,151,439.9,161.4,438.4,173z"/>
		<path class="st1" d="M403.5,199.1c-4.7,9.1,0,55.3,0,55.3l-15.9,7.8c0,0-0.1,0-0.2,0c-2.4-0.4-26.7-5.1-24.4-12.1
			c2.4-7.4,1.3-23.6,1.3-23.6c-41.5,8.4-34.2-36.1-34.2-36.1c-2.4,0.4-4.9-1.6-6.6-3.2c-1.1-1-1.3-2.7-0.5-3.9
			c2.6-4.6,8.8-15.7,11.7-21.7c2.4-5,4-14.9,4.3-22.7c2.2-2.4,3.7-6.3,5.2-7.5c0,0,0.7,7.8,2,10.5c0,0,6.4-9.8,9.8-11.1
			c0,0,2.7,14.1,2,17.8c0,0,7.9-9.5,7.9-13.9c0,0,12.9,18.6,11.9,22.6c0,0,2.1-5.3,2.9-10.9c0.7-5.1,13.4,27.8,16.8,31.7
			c9.1-6.9,13.5-4.6,15.5,4.2C415,191,403.5,199.1,403.5,199.1z"/>
		<path class="st2" d="M336.8,188.3c0,0-3.9,2.4-6.7,1.9"/>
		<path class="st2" d="M344.7,151.1c0,0,14.4,1.5,20.5,10.6"/>
		<path class="st2" d="M397.8,199.7c0,0,4.1,0.6,5.7-0.7"/>
		<g>
			<path d="M344.6,163.7c0.8-1,2-1.7,3.3-2c1.3-0.3,2.7-0.2,4,0.1c0.7,0.1,1.3,0.4,1.9,0.6c0.6,0.3,1.2,0.6,1.8,0.9
				c0.6,0.3,1.2,0.6,1.7,1c0.5,0.4,1,0.8,1.5,1.3l0.1,0.1c-0.1-0.1-0.1-0.1-0.1-0.1c0,0,0,0,0,0c0,0,0,0.1,0.1,0.1
				c0.1,0.1,0.2,0.1,0.3,0.2c0.2,0.1,0.6,0.2,0.9,0.3c0.4,0.1,0.8,0.1,1.2,0.2c0.4,0,0.9,0.1,1.4,0.1l0,0c0.1,0,0.2,0.1,0.1,0.2
				c0,0,0,0.1,0,0.1c-0.3,0.4-0.7,0.7-1.1,1c-0.2,0.1-0.4,0.2-0.7,0.4c-0.2,0.1-0.5,0.2-0.7,0.3c-0.5,0.2-1.1,0.2-1.7,0.2
				c-0.3,0-0.6-0.1-1-0.2c-0.2-0.1-0.3-0.1-0.5-0.2c-0.1-0.1-0.2-0.1-0.3-0.2c-0.1-0.1-0.1-0.1-0.3-0.3l0.1,0.1
				c-0.5-0.3-0.9-0.7-1.3-1.1l-1.2-1.2c-0.4-0.4-0.9-0.7-1.4-1c-0.5-0.3-1-0.6-1.5-0.8c-1-0.5-2.1-0.8-3.2-0.8c-1.1,0-2.3,0.3-3.3,1
				l0,0c-0.1,0-0.2,0-0.2,0C344.5,163.8,344.5,163.7,344.6,163.7z"/>
		</g>
		<ellipse cx="348.9" cy="169.2" rx="3.9" ry="6.9"/>
		<circle class="st3" cx="347.7" cy="166.3" r="2"/>
		<path class="st2" d="M364.4,226.4c0,0,7.2-1.4,10.1-3.4"/>
		<path class="st4" d="M362.5,244.9c0,0,19.1,12.7,40-2.8c0,0,33,0,34,78.4c0,1.6-0.3,3.3-0.4,4.9l-1.2,36.5h-11.3l0.7,75.9
			c0,0-122.1,3-122.1-3.4c0-6.4,25.9-146.8,28.6-157C335,261.3,362.5,244.9,362.5,244.9z"/>
		<path class="st2" d="M423.5,362c0,0-30.7-0.3-30.7-3.5s-3.3-49.4-3.3-49.4"/>
		<path class="st2" d="M336.7,278.5c0,0-8.4,11.6-9.4,16.7"/>
		<path class="st4" d="M444.9,157.1c0,8.5-2.9,15.4-6.6,15.9c1.5-11.6,0.5-22-2.3-31.1c0.6-0.4,1.3-0.6,1.9-0.6c1,0,1.9,0.4,2.7,1.2
			C443.2,144.9,444.9,150.6,444.9,157.1z"/>
		<path class="st1" d="M400.8,360.9c0,0,5.9,17.5,4.4,25.4c-1.5,7.9-17.6,60.5-17.6,60.5h24.1c0,0,20.6-50,20.3-58.8
			c-0.3-8.8,0-26,0-26L400.8,360.9z"/>
		<line class="st2" x1="332" y1="204.7" x2="347.7" y2="204.7"/>
	</g>
	<g>
		<path class="st1" d="M145,268.6c0,0,30.6,15,37.8,15s55.7-2.3,55.7-2.3s-9.3-25,0-22.5c0,0-5.8-23.4,3.5-20.2
			c0,0,4.7-7.8,10.1,0.9c4.7,7.5,1.7,21.9,1.7,21.9l-1.4,28.6c0,0-36.4,13.6-37.2,13.6s-41.8,0.6-42.4,0c-0.6-0.6-33.2-7.5-33.2-7.5
			l-5.5-20.7L145,268.6z"/>
		<path class="st5" d="M93.2,232.4c0,0,14.5-6.2,36.9,19.2l22.8,16.4c0,0-4,15.2-10.3,16c-6.3,0.8-37.6-4.2-37.6-4.2L81,261.4
			L93.2,232.4z"/>
		<path class="st1" d="M143.3,320.3c0,0,34.1,0,37.7,0.5c8.3,1.2,45.3-8.6,56.1-10.9c1.7-0.4,3.4-0.6,5.2-0.8c5-0.5,16.3-1.9,18.7-4
			c3.1-2.7,15.3-44.3,1.9-60.8c0,0-4-4.9-5-3.6c0,0-5.5-5.9-7.4,2.5c-1.9,8.4-0.1,17.3-0.7,19.3c0,0-7.1-5-6.2,2.3
			c0.9,7.4,0.7,23.4-1.7,25c-2.5,1.6-54.3,5.2-65.6,3.6c-11.7-1.7-25.2-5.2-25.2-5.2l-4,8.1c0,0,0,9.7,0,10.5
			S143.3,320.3,143.3,320.3z"/>
		<path class="st2" d="M243.3,288.2c0,0,8.7-9.7,6.5-25.8"/>
		<path class="st2" d="M257.8,240.6c0,0-4.2,7.9,0,20.8"/>
		<path class="st2" d="M245.2,254.1c-0.1-0.5-3.3-15.5-3.3-15.5"/>
		<line class="st2" x1="239.9" y1="267.9" x2="238.5" y2="258.8"/>
		<circle cx="139.8" cy="152.5" r="0.2"/>
		<path class="st6" d="M64.3,189.5l-5.9,2.6l-2.8-8.4l-6.1,14.9c0,0-15.2-17.1-12.5-34.6c0,0-5.7,7.5-5.9,11.3
			c-0.2,3.7-12.6-49,8.2-74.8c0,0,3.4-14.6,2.1-19.1c0,0,10.5,4.4,12.3,3.7c1.7-0.6,38.3-37.3,82.3,2.7c6.4,5.8,10.7,13.7,11.6,22.4
			c0.6,5.5-0.2,11.4-4.5,15.1c0,0-4.5-16.8-20.5-25c0,0,1.9,14.4,0,17c-1.9,2.6-15.7-17.4-25.9-19.6c0,0-0.8,26-4.2,32.5l-4.8-7.5
			c0,0,1,27-5.4,25.8l-13.1,14.3l-2,10.7L64.3,189.5z"/>
		<path class="st1" d="M146.8,172.8c-4.3,38.8-36.7,36.8-41.8,37.5S99,228.5,98.6,234c-0.3,5.5,4,16.8,4,16.8l-9.5-0.6L65,236
			l-12.9-8.5l13.2-43.4l4.1-21.4c-6.4-5.6-3.7-21.7,1.2-24.7c4.9-3,10.5,8.9,10.5,8.9c6.4,1.1,6.3-25.9,6.3-25.9l4.8,7.5
			C95.5,122,96.3,96,96.3,96c10.1,2.1,23.9,22.2,25.9,19.6s0-17,0-17c16,8.2,20.5,25,20.5,25c0.8-0.7,1.5-1.5,2.1-2.4
			c1,8.1,1.3,16.6,1.3,16.6c0.3,10.1,6.6,19.5,8.4,21.9c0.4,0.5,0.6,1.1,0.6,1.7C155.8,169.2,146.8,172.8,146.8,172.8z"/>
		<path class="st2" d="M81,164.8c0,0-5.1,5.1-11.6-2.1"/>
		<path class="st2" d="M138.4,168.8c0,0,0.9,2.9,8.4,4"/>
		<path class="st2" d="M112.5,136.2c0,0,12.6-13.3,24.1-7.5"/>
		<path class="st2" d="M114.5,147.9c0,0,11-13.4,23.9-7.2"/>
		
			<ellipse transform="matrix(5.939753e-02 -0.9982 0.9982 5.939753e-02 -28.001 271.5221)" cx="130.1" cy="150.6" rx="10.9" ry="5.2"/>
		<circle class="st3" cx="132.2" cy="149.8" r="2.2"/>
		<path class="st2" d="M105,210.4c0,0-15.1-0.2-23.7-12.2"/>
		<path class="st5" d="M59,227.5c0,0-25-6.7-27.3,32.2c-2.3,38.9-5.8,164.7-5.8,164.7s55.4,33.5,102.3,3.5c0,0-16.9-88.1-8.8-109.6
			l33.9,3.1c0,0,7.3-29.6,0-36.5c0,0-31.5-18.1-38.1-30C108.7,242.7,93.3,231.5,59,227.5z"/>
		<path class="st2" d="M98.3,317.4c0,0,14.1,0.1,27.6,1.4"/>
		<line class="st2" x1="130.1" y1="183.5" x2="142.6" y2="185.2"/>
	</g>
</g>
</svg>
